<?xml version="1.0" encoding="UTF-8" standalone="no"?>
<svg
   viewBox="0 0 24 24"
   version="1.1"
   id="svg8"
   sodipodi:docname="documentsize_L_A3_24x24.svg"
   inkscape:version="1.1 (ce6663b3b7, 2021-05-25)"
   xmlns:inkscape="http://www.inkscape.org/namespaces/inkscape"
   xmlns:sodipodi="http://sodipodi.sourceforge.net/DTD/sodipodi-0.dtd"
   xmlns="http://www.w3.org/2000/svg"
   xmlns:svg="http://www.w3.org/2000/svg">
  <defs
     id="defs12" />
  <sodipodi:namedview
     id="namedview10"
     pagecolor="#ffffff"
     bordercolor="#666666"
     borderopacity="1.0"
     inkscape:pageshadow="2"
     inkscape:pageopacity="0.0"
     inkscape:pagecheckerboard="0"
     showgrid="false"
     inkscape:zoom="37.333333"
     inkscape:cx="11.986607"
     inkscape:cy="12"
     inkscape:window-width="1920"
     inkscape:window-height="1043"
     inkscape:window-x="1920"
     inkscape:window-y="0"
     inkscape:window-maximized="1"
     inkscape:current-layer="svg8" />
  <path
     sodipodi:nodetypes="cccccccccc"
     style="opacity:0.7;fill:#000000;stroke:#000000;stroke-width:2;stroke-linejoin:round;stroke-miterlimit:4;stroke-dasharray:none"
     id="path829"
     d="m 16,3.9978819 c 2,0 3,0 3,2.0005293 v 12.0031758 c 0,2.000531 -1,2.000531 -3,2.000531 h -8.0000001 c -2,0 -3,0 -3,-2.000531 v -3.40715 -8.5960258 c 0,-2.0005292 1,-2.0005292 3,-2.0005292 z"
     inkscape:connector-curvature="0" />
  <path
     inkscape:connector-curvature="0"
     d="m 16,3.9978819 c 2,0 3,0 3,2.0005293 v 12.0031758 c 0,2.000531 -1,2.000531 -3,2.000531 h -8.0000001 c -2,0 -3,0 -3,-2.000531 v -3.40715 -8.5960258 c 0,-2.0005292 1,-2.0005292 3,-2.0005292 z"
     id="path2-3"
     style="fill:#ffffff;stroke-width:1"
     sodipodi:nodetypes="cccccccccc" />
  <g
     aria-label="A3"
     transform="matrix(1.0001324,0,0,0.99986765,-2.4120156e-4,-2e-7)"
     id="text2890"
     style="font-size:10.6681px;line-height:1.25;letter-spacing:0px;word-spacing:0px">
    <path
       d="m 11.667945,15.703424 q -0.181357,-0.480064 -0.341379,-0.938792 -0.160021,-0.469397 -0.330711,-0.949461 h -3.3497836 l -0.6720903,1.888253 h -1.0774781 q 0.426724,-1.173491 0.8001075,-2.165624 0.3733835,-1.002801 0.7254308,-1.898922 0.3627154,-0.89612 0.7147628,-1.7068958 0.3520473,-0.8214438 0.7360989,-1.6215513 h 0.9494609 q 0.3840521,0.8001075 0.7360991,1.6215513 0.352047,0.8107758 0.704094,1.7068958 0.362716,0.896121 0.736099,1.898922 0.373384,0.992133 0.800108,2.165624 z m -0.970797,-2.741701 q -0.341379,-0.928125 -0.682758,-1.792241 -0.3307114,-0.874784 -0.6934268,-1.674892 -0.3733835,0.800108 -0.7147627,1.674892 -0.3307111,0.864116 -0.6614222,1.792241 z"
       style="font-family:Ubuntu;-inkscape-font-specification:Ubuntu"
       id="path9700" />
    <path
       d="m 15.29508,14.977994 q 0.949461,0 1.354849,-0.373384 0.416056,-0.373383 0.416056,-1.002801 0,-0.405388 -0.17069,-0.682759 -0.170689,-0.27737 -0.44806,-0.437392 -0.277371,-0.170689 -0.650754,-0.234698 -0.362716,-0.07468 -0.746767,-0.07468 h -0.256035 v -0.810775 h 0.352048 q 0.266702,0 0.544073,-0.05334 0.288039,-0.05334 0.522737,-0.192026 0.234698,-0.138685 0.384051,-0.373383 0.149354,-0.245367 0.149354,-0.608082 0,-0.2987067 -0.106681,-0.5120687 -0.106681,-0.2133621 -0.288039,-0.3520474 -0.17069,-0.1386853 -0.405388,-0.1920258 -0.22403,-0.064009 -0.480064,-0.064009 -0.512069,0 -0.874784,0.1493534 -0.352048,0.1493534 -0.597414,0.3093749 l -0.384052,-0.7574351 q 0.128017,-0.085345 0.320043,-0.1813577 0.202694,-0.106681 0.448061,-0.1920258 0.245366,-0.085345 0.522736,-0.1386853 0.288039,-0.064009 0.597414,-0.064009 0.586746,0 1.01347,0.1493534 0.426724,0.1386853 0.704094,0.4053878 0.277371,0.2560344 0.416056,0.6187498 0.138685,0.3520474 0.138685,0.7681035 0,0.576077 -0.330711,0.992133 -0.330711,0.405388 -0.800107,0.61875 0.288039,0.08535 0.554741,0.245366 0.266703,0.160022 0.458728,0.405388 0.202694,0.245366 0.320043,0.565409 0.128018,0.320043 0.128018,0.714763 0,0.480064 -0.17069,0.89612 -0.160022,0.405388 -0.512069,0.704095 -0.341379,0.298707 -0.864116,0.469396 -0.522737,0.17069 -1.2375,0.17069 -0.27737,0 -0.576077,-0.04267 -0.288039,-0.04267 -0.544073,-0.106681 -0.256035,-0.06401 -0.44806,-0.128018 -0.192026,-0.06401 -0.277371,-0.106681 l 0.192026,-0.864116 q 0.181358,0.08535 0.597413,0.22403 0.426724,0.138686 1.034806,0.138687 z"
       style="font-family:Ubuntu;-inkscape-font-specification:Ubuntu"
       id="path9702" />
  </g>
</svg>
