<?xml version="1.0" encoding="UTF-8" standalone="no"?>
<svg
   viewBox="0 0 24 24"
   version="1.1"
   id="svg8"
   sodipodi:docname="documentsizeC5_24x24.svg"
   inkscape:version="1.1 (ce6663b3b7, 2021-05-25)"
   xmlns:inkscape="http://www.inkscape.org/namespaces/inkscape"
   xmlns:sodipodi="http://sodipodi.sourceforge.net/DTD/sodipodi-0.dtd"
   xmlns="http://www.w3.org/2000/svg"
   xmlns:svg="http://www.w3.org/2000/svg">
  <defs
     id="defs12" />
  <sodipodi:namedview
     id="namedview10"
     pagecolor="#ffffff"
     bordercolor="#666666"
     borderopacity="1.0"
     inkscape:pageshadow="2"
     inkscape:pageopacity="0.0"
     inkscape:pagecheckerboard="0"
     showgrid="false"
     inkscape:zoom="37.333333"
     inkscape:cx="11.986607"
     inkscape:cy="11.986607"
     inkscape:window-width="1920"
     inkscape:window-height="1016"
     inkscape:window-x="0"
     inkscape:window-y="27"
     inkscape:window-maximized="1"
     inkscape:current-layer="svg8" />
  <path
     sodipodi:nodetypes="cccccccccc"
     style="opacity:0.7;fill:#000000;stroke:#000000;stroke-width:2;stroke-linejoin:round;stroke-miterlimit:4;stroke-dasharray:none"
     id="path829"
     d="m 3.9978821,7.9999998 c 0,-1.9999997 0,-2.9999997 2.0005293,-2.9999997 h 12.0031756 c 2.000531,0 2.000531,1 2.000531,2.9999997 v 8.0000002 c 0,2 0,3 -2.000531,3 h -3.40715 -8.5960256 c -2.0005293,0 -2.0005293,-1 -2.0005293,-3 z"
     inkscape:connector-curvature="0" />
  <path
     inkscape:connector-curvature="0"
     d="m 3.9978821,7.9999998 c 0,-1.9999997 0,-2.9999997 2.0005293,-2.9999997 h 12.0031756 c 2.000531,0 2.000531,1 2.000531,2.9999997 v 8.0000002 c 0,2 0,3 -2.000531,3 h -3.40715 -8.5960256 c -2.0005293,0 -2.0005293,-1 -2.0005293,-3 z"
     id="path2-3"
     style="fill:#ffffff;stroke-width:1"
     sodipodi:nodetypes="cccccccccc" />
  <g
     aria-label="C5"
     transform="scale(1.0001324,0.99986762)"
     id="text2890"
     style="font-size:10.6681px;line-height:1.25;letter-spacing:0px;word-spacing:0px">
    <path
       d="m 9.8594633,15.863441 q -0.7787713,0 -1.4188574,-0.256034 -0.640086,-0.256035 -1.0988143,-0.746767 -0.4587283,-0.490733 -0.7147627,-1.205496 -0.2453663,-0.72543 -0.2453663,-1.653555 0,-0.928125 0.2773706,-1.642888 0.2880387,-0.7254304 0.7681032,-1.216163 0.4800645,-0.4907327 1.1201505,-0.7467671 0.6400861,-0.2560344 1.3655169,-0.2560344 0.4587282,0 0.8214442,0.064009 0.373383,0.064009 0.640086,0.1493534 0.27737,0.085345 0.44806,0.1706896 0.170689,0.085345 0.234698,0.1280172 l -0.298707,0.8534481 q -0.09601,-0.064009 -0.27737,-0.1386853 -0.181358,-0.074677 -0.416056,-0.1493534 -0.22403,-0.074677 -0.501401,-0.1173491 -0.266703,-0.05334 -0.544073,-0.05334 -0.5867457,0 -1.0561421,0.2026939 -0.4693965,0.2026939 -0.8001076,0.5867455 -0.3307111,0.3840515 -0.5120688,0.9387925 -0.1706896,0.544073 -0.1706896,1.226832 0,0.661422 0.1493534,1.205495 0.1600215,0.544073 0.4693964,0.938793 0.3093749,0.384052 0.7681033,0.597414 0.4693964,0.213362 1.0881462,0.213362 0.7147628,0 1.1841588,-0.149354 0.469397,-0.149353 0.704095,-0.266702 l 0.266702,0.853448 q -0.07468,0.05334 -0.266702,0.138685 -0.192026,0.07468 -0.480065,0.149353 -0.288038,0.07468 -0.67209,0.128018 -0.384051,0.05334 -0.8321117,0.05334 z"
       style="font-family:Ubuntu;-inkscape-font-specification:Ubuntu"
       id="path9298" />
    <path
       d="m 14.500075,11.158809 q 1.610883,0.06401 2.357651,0.704095 0.757435,0.640086 0.757435,1.7389 0,0.490733 -0.17069,0.906788 -0.160021,0.416056 -0.501401,0.714763 -0.330711,0.298707 -0.84278,0.469397 -0.512068,0.170689 -1.216163,0.170689 -0.277371,0 -0.565409,-0.04267 -0.288039,-0.04267 -0.533405,-0.106681 -0.245367,-0.06401 -0.437393,-0.128017 -0.192025,-0.06401 -0.27737,-0.106681 l 0.192026,-0.864117 q 0.181357,0.08535 0.586745,0.224031 0.416056,0.138685 1.01347,0.138685 0.480064,0 0.800107,-0.106681 0.330711,-0.106681 0.533405,-0.288039 0.202694,-0.181358 0.288039,-0.416056 0.09601,-0.245366 0.09601,-0.512069 0,-0.405387 -0.138685,-0.714762 -0.138686,-0.320043 -0.490733,-0.533405 -0.352047,-0.213362 -0.938793,-0.320043 -0.586745,-0.117349 -1.482866,-0.117349 0.06401,-0.522737 0.09601,-0.981466 0.04267,-0.458728 0.07468,-0.89612 0.032,-0.4373922 0.05334,-0.8641162 0.02134,-0.4373921 0.04267,-0.9174567 h 3.563145 v 0.84278 h -2.699029 q -0.01067,0.1600215 -0.032,0.4373921 -0.02134,0.2667025 -0.04267,0.5654088 -0.02134,0.288039 -0.04267,0.56541 -0.02134,0.27737 -0.04267,0.437392 z"
       style="font-family:Ubuntu;-inkscape-font-specification:Ubuntu"
       id="path9300" />
  </g>
</svg>
