<svg viewBox="0 0 24 24" xmlns="http://www.w3.org/2000/svg"><path style="color:#000;fill:#000;stroke-linejoin:round;-inkscape-stroke:none;opacity:.7" d="M5.998 4c-.583 0-1.093.065-1.562.273-.47.21-.868.6-1.082 1.03C2.924 6.16 2.998 7 2.998 8v8c0 .389-.01.753.002 1.104V16h1.998V8c0-1 .073-1.66.145-1.803.035-.07.012-.054.105-.095.093-.042.333-.102.75-.102H17V4H5.998zm12.004 2c.417 0 .657.06.75.102.093.04.07.024.105.095.069.137.137.758.143 1.69V6h-.998zM21 6.896V8h-1.998v8c0 1-.073 1.66-.145 1.803-.035.07-.012.054-.105.095-.093.042-.333.102-.75.102H7v2h11.002c.583 0 1.093-.065 1.562-.273.47-.21.868-.6 1.082-1.03.43-.858.356-1.697.356-2.697V8c0-.389.01-.753-.002-1.104zM5 16.113V18h.998c-.417 0-.657-.06-.75-.102-.093-.04-.07-.024-.105-.095-.069-.137-.137-.758-.143-1.69z"/><path style="fill:#fff;stroke-width:1" d="M5.998 5c-2 0-2 1-2 3v8H5v2h2v1h11.002c2 0 2-1 2-3V8H19V6h-2V5H5.998z"/><path style="fill:#0073E5;fill-rule:evenodd;stroke-width:2;stroke-linecap:round;stroke-linejoin:round;fill-opacity:1" d="M20 2v2h-2v1h2v2h1V5h2V4h-2V2h-1z"/><path style="fill:#0073E5;fill-opacity:1;fill-rule:evenodd;stroke-width:2;stroke-linecap:round;stroke-linejoin:round" d="M3 17v2H1v1h2v2h1v-2h2v-1H4v-2z"/></svg>