<svg xmlns="http://www.w3.org/2000/svg" xmlns:xlink="http://www.w3.org/1999/xlink" height="32" width="32"><defs><linearGradient id="a"><stop style="stop-color:#151515;stop-opacity:1" offset="0"/><stop style="stop-color:#4d4d4d;stop-opacity:1" offset="1"/></linearGradient><linearGradient xlink:href="#a" id="b" x1="27" y1="4" x2="27" y2="28" gradientUnits="userSpaceOnUse"/></defs><path style="fill:#000;stroke:#fff;opacity:1;stroke-width:2;stroke-miterlimit:4;stroke-dasharray:none;stroke-linejoin:round" stroke-width="1.5" fill="#232629" d="M5 4v24h5V13.776c0-.638-.038-1.33-.114-2.077l12.799 15.487c.253.289.508.5.761.632.266.12.595.182.988.182H27V4h-5v14.06c0 .71.035 1.463.111 2.258L9.295 4.741a3.895 3.895 0 0 0-.38-.38 1.008 1.008 0 0 0-.34-.217 1.03 1.03 0 0 0-.402-.109A3.595 3.595 0 0 0 7.623 4z"/><path d="M5 4v24h5V13.776c0-.638-.038-1.33-.114-2.077l12.799 15.487c.253.289.508.5.761.632.266.12.595.182.988.182H27V4h-5v14.06c0 .71.035 1.463.111 2.258L9.295 4.741a3.895 3.895 0 0 0-.38-.38 1.008 1.008 0 0 0-.34-.217 1.03 1.03 0 0 0-.402-.109A3.595 3.595 0 0 0 7.623 4z" fill="#232629" style="fill:url(#b);fill-opacity:1"/></svg>