<svg xmlns="http://www.w3.org/2000/svg" viewBox="0 0 24 24"><path style="opacity:1;fill:#fff;fill-opacity:1;stroke:none;stroke-width:2;stroke-linecap:round;stroke-linejoin:round;stroke-miterlimit:4;stroke-dasharray:none;stroke-opacity:1" d="M2 2v16h9v-.098c0-.718.06-1.36.29-1.968a2.88 2.88 0 0 1 1.29-1.522c.436-.24.874-.339 1.266-.4l.076-.012H14c0-.5-.06-1.213.418-1.93C14.896 11.354 15.833 11 17 11h1V2H2z"/><path style="opacity:1;fill:#6d6d6d;fill-opacity:1" d="M4 1C2 1 1 1 1 3v14c0 2 1 2 3 2h7v-1H8v-3h3.855c.208-.233.449-.435.725-.588.436-.24.874-.339 1.266-.4l.076-.012H13v-2h1.475c.491-.667 1.4-1 2.525-1h-4V9h5v2h1V3c0-2-1-2-3-2H4zm0 1h3v3H2V3c0-1 1-1 2-1zm4 0h4v3H8V2zm5 0h3c1 0 2 0 2 1v2h-5V2zM2 6h5v2H2V6zm6 0h4v2H8V6zm5 0h5v2h-5V6zM2 9h5v2H2V9zm6 0h4v2H8V9zm-6 3h5v2H2v-2zm6 0h4v2H8v-2zm-6 3h5v3H4c-1 0-2 0-2-1v-2z"/><path style="color:#000;font-weight:400;line-height:normal;font-family:sans-serif;font-variant-ligatures:normal;font-variant-position:normal;font-variant-caps:normal;font-variant-numeric:normal;font-variant-alternates:normal;font-feature-settings:normal;text-indent:0;text-align:start;text-decoration:none;text-decoration-line:none;text-decoration-style:solid;text-decoration-color:#000;text-transform:none;text-orientation:mixed;white-space:normal;shape-padding:0;overflow:visible;opacity:.7;isolation:auto;mix-blend-mode:normal;fill:#000;fill-opacity:1;marker:none" d="M17 12c-2 0-2 1-2 2v1h-1c-.338.053-.655.131-.938.287a1.874 1.874 0 0 0-.837.998c-.165.438-.225.96-.225 1.617V19.098c0 .658.06 1.179.225 1.617.164.439.46.79.837.998.283.156.6.234.938.287h1v.001c0 1.108.739 2 1.656 2h2.688c.917 0 1.656-.892 1.656-2V22h1c.338-.053.654-.131.938-.287.389-.222.686-.576.837-.998.165-.438.225-.96.225-1.617V17.902c0-.657-.06-1.179-.225-1.617a1.882 1.882 0 0 0-.837-.998c-.284-.156-.6-.234-.938-.287h-1l-.008-1.008C21 13 21 12 19 12Zm-2 4.04V19h6v-2.96c.666.031 1.204.084 1.453.222.184.1.29.212.387.472.097.26.16.674.16 1.266v1c0 .592-.063 1.006-.16 1.266s-.203.372-.387.472c-.249.138-.787.19-1.453.223V18h-6v2.96c-.667-.031-1.206-.084-1.455-.222-.183-.1-.287-.212-.385-.472-.097-.26-.16-.674-.16-1.266v-1c0-.592.063-1.006.16-1.266.098-.26.202-.371.385-.472.249-.138.788-.19 1.455-.223Z"/><path style="opacity:1;vector-effect:none;fill:#b3b3b3;fill-opacity:1;stroke:none;stroke-width:.0625;stroke-linecap:round;stroke-linejoin:round;stroke-miterlimit:4;stroke-dasharray:none;stroke-dashoffset:0;stroke-opacity:1" d="M17.205 15.93c-1.024.017-2.053-.032-3.072.078-.39.048-.842.18-1 .584-.271.536-.174 1.16-.205 1.738.006 1.166-.026.214.023 1.379.05.423.181.934.621 1.107.446.208.954.16 1.428.145V19h6v1.96c.118.047.292-.016.418.009.46-.006 1-.002 1.326-.385.398-.517.292-1.087.317-1.695-.007-1.234.025-.47-.024-1.703-.049-.426-.233-.916-.682-1.057-.73-.255-1.519-.15-2.277-.184-2.29-.01-.582-.015-2.873-.015Z"/><path style="opacity:1;vector-effect:none;fill:#666;fill-opacity:1;stroke:none;stroke-width:4;stroke-linecap:butt;stroke-linejoin:round;stroke-miterlimit:4;stroke-dasharray:none;stroke-dashoffset:0;stroke-opacity:1" d="M15 18h6v4h-6z"/><path style="opacity:1;vector-effect:none;fill:#fff;fill-opacity:1;stroke:none;stroke-width:4;stroke-linecap:butt;stroke-linejoin:round;stroke-miterlimit:4;stroke-dasharray:none;stroke-dashoffset:0;stroke-opacity:1" d="M16 19h4v3.001c-.032.981-1 1-1 1h-2s-1 0-1-1z"/><path style="color:#000;font-weight:400;line-height:normal;font-family:sans-serif;font-variant-ligatures:normal;font-variant-position:normal;font-variant-caps:normal;font-variant-numeric:normal;font-variant-alternates:normal;font-feature-settings:normal;text-indent:0;text-align:start;text-decoration:none;text-decoration-line:none;text-decoration-style:solid;text-decoration-color:#000;text-transform:none;text-orientation:mixed;white-space:normal;shape-padding:0;overflow:visible;isolation:auto;mix-blend-mode:normal;fill:#a7a7f1;fill-opacity:1;marker:none" d="M17 21v1h2v-1z"/><path style="opacity:1;vector-effect:none;fill:#fff;fill-opacity:1;stroke:none;stroke-width:4;stroke-linecap:butt;stroke-linejoin:round;stroke-miterlimit:4;stroke-dasharray:none;stroke-dashoffset:0;stroke-opacity:1" d="M16 14v1h4v-1c-.032-.981-1-1-1-1h-2s-1 0-1 1z"/><path style="opacity:1;vector-effect:none;fill:#666;fill-opacity:1;stroke:none;stroke-width:2;stroke-linecap:round;stroke-linejoin:round;stroke-miterlimit:4;stroke-dasharray:none;stroke-dashoffset:0;stroke-opacity:1" d="M14 15h8v1h-8z"/><path style="fill:#f3d8f2;fill-opacity:1;fill-rule:evenodd;stroke-width:2;stroke-linecap:round;stroke-linejoin:round" d="M2 2h10v9H2z"/><path style="opacity:1;fill:#77216f;fill-opacity:1" d="M4 1C2 1 1 1 1 3v9h12V1H4zm0 1h3v3H2V3c0-1 1-1 2-1zm4 0h4v3H8V2zM2 6h5v2H2V6zm6 0h4v2H8V6zM2 9h5v2H2V9zm6 0h4v2H8V9z"/><g style="display:inline;stroke-width:27.2;enable-background:new"><path style="fill:#fec589;fill-opacity:1;stroke:none;stroke-width:27.2" d="M701.484 292.832 656 400.493l-45.484-107.661v-11.065h90.968z" transform="matrix(-.03808 .02199 .02385 .0413 26.163 -6.963)"/><path style="color:#000;display:inline;overflow:visible;visibility:visible;fill:#5d5d5d;fill-opacity:1;fill-rule:nonzero;stroke:none;stroke-width:28.009;marker:none;enable-background:accumulate" d="M645.198 374.677 656 400.493l10.803-25.816c.01.175-21.605 0-21.605 0z" transform="matrix(-.03808 .02199 .02385 .0413 26.163 -6.963)"/><path style="fill:#2f5fdd;fill-opacity:1;stroke:none;stroke-width:27.2" d="M610.516 292.832s91.989 1.586 90.968 0V23.057h-90.968z" transform="matrix(-.03808 .02199 .02385 .0413 26.163 -6.963)"/></g></svg>