<svg xmlns="http://www.w3.org/2000/svg" viewBox="0 0 24 24"><path style="opacity:1;fill:#fff;fill-opacity:1;stroke:none;stroke-width:2;stroke-linecap:round;stroke-linejoin:round;stroke-miterlimit:4;stroke-dasharray:none;stroke-opacity:1" d="M4 4v16h10.184c.084-.173.187-.338.324-.484-.402-.429-.629-.99-.387-1.577l.461-1.113a1 1 0 0 0 0-.002c.243-.586.8-.822 1.387-.842.018-.585.253-1.136.844-1.38l1.117-.463c.59-.245 1.146-.02 1.572.38.136-.127.218-.32.387-.39.036-.015.074-.023.111-.035V4H4zm15.44 15.365c-.063.026-.114.15-.088.211.025.06.152.113.212.088.063-.026.114-.15.088-.21-.025-.061-.152-.114-.213-.089z"/><path style="opacity:1;fill:#6d6d6d;fill-opacity:1" d="M6 3C4 3 3 3 3 5v14c0 2 1 2 3 2h8.107c-.188-.556.02-1.079.4-1.484-.401-.429-.628-.99-.386-1.577l.461-1.113a1 1 0 0 0 0-.002c.094-.227.246-.39.418-.52V15h1.305c.128-.163.286-.307.508-.398l1.117-.463c.59-.245 1.146-.02 1.572.38.136-.127.218-.32.387-.39a1.54 1.54 0 0 1 1.111-.02V5c0-2-1-2-3-2H6zm0 1h3v5H4V5c0-1 1-1 2-1zm4 0h4v5h-4V4zm5 0h3c1 0 2 0 2 1v4h-5V4zM4 10h5v4H4v-4zm6 0h4v4h-4v-4zm5 0h5v4h-5v-4zM4 15h5v5H6c-1 0-2 0-2-1v-4zm6 0h4v5h-4v-5z"/><path style="fill:#77216f;fill-opacity:1;stroke:none;stroke-width:1;stroke-linecap:round;stroke-linejoin:round;stroke-miterlimit:4;stroke-dasharray:none;stroke-opacity:1" d="M9 9v6h6V9Zm1 1h4v4h-4z"/><path style="opacity:1;fill:#f3d8f1;fill-opacity:1;fill-rule:evenodd;stroke:none;stroke-width:2;stroke-linecap:round;stroke-linejoin:round" d="M10 10h4v4h-4z"/><circle style="opacity:1;fill:#fff;fill-opacity:1;stroke:none;stroke-width:2;stroke-linecap:round;stroke-linejoin:round;stroke-miterlimit:4;stroke-dasharray:none;stroke-opacity:1" cx="-18" cy="18" r="1" transform="scale(-1 1)"/><circle style="fill:#fff;fill-rule:evenodd;stroke:none;stroke-width:2;stroke-linecap:round;stroke-linejoin:round" cx="19.5" cy="19.5" r="1.5"/><g transform="translate(8 8)"><circle style="fill:#fff;fill-opacity:1;fill-rule:evenodd;stroke:none;stroke-width:2;stroke-linecap:round;stroke-linejoin:round;stroke-miterlimit:4;stroke-dasharray:none;stroke-opacity:1" cx="11.5" cy="11.5" r="1.5"/><path d="M9.311 7.792a.244.244 0 0 0-.135.325l.273.657c-.26.195-.472.424-.662.678l-.674-.279a.248.248 0 0 0-.329.136l-.462 1.115a.248.248 0 0 0 .137.329l.673.279a3.312 3.312 0 0 0-.011.948l-.657.272a.244.244 0 0 0-.135.325l.463 1.117c.054.13.194.189.325.135l.657-.272c.195.26.424.471.678.662l-.279.673a.248.248 0 0 0 .136.329l1.115.462a.248.248 0 0 0 .329-.136l.279-.674c.314.045.626.057.948.012l.272.657c.054.13.195.188.325.134l1.117-.462a.244.244 0 0 0 .135-.326l-.272-.657c.26-.195.471-.424.662-.678l.673.28a.248.248 0 0 0 .329-.137l.462-1.115a.248.248 0 0 0-.136-.329l-.674-.279c.045-.314.057-.625.012-.947l.657-.273a.244.244 0 0 0 .134-.325l-.462-1.117a.244.244 0 0 0-.326-.135l-.657.273a3.312 3.312 0 0 0-.678-.662l.28-.674a.248.248 0 0 0-.137-.329l-1.115-.462a.248.248 0 0 0-.329.137l-.279.673a3.312 3.312 0 0 0-.947-.011l-.273-.657a.244.244 0 0 0-.325-.135Zm1.756 2.66a1.138 1.138 0 1 1 .87 2.103 1.138 1.138 0 0 1-.87-2.104z" display="block" fill="url(#d)" stroke="url(#e)" stroke-linejoin="round" stroke-width=".6" style="fill:#d3d3d3;fill-opacity:1;stroke:#4d4d4d;stroke-opacity:1"/></g></svg>