<svg xmlns="http://www.w3.org/2000/svg" viewBox="0 0 24 24"><path style="opacity:.7;fill:#000;fill-opacity:1;fill-rule:evenodd;stroke:#000;stroke-width:2;stroke-linecap:butt;stroke-linejoin:round;stroke-miterlimit:4;stroke-dasharray:none;stroke-opacity:1" d="M4 4h16v16H4z"/><path style="opacity:1;fill:#fff;fill-opacity:1;fill-rule:evenodd;stroke:none;stroke-width:2;stroke-linecap:butt;stroke-linejoin:round;stroke-miterlimit:4;stroke-dasharray:none;stroke-opacity:1" d="M4 4h16v16H4z"/><path d="M12 9a3 3 0 1 0 0 6 3 3 0 0 0 0-6zm0 2a1 1 0 1 1 0 2 1 1 0 0 1 0-2z" fill="#C88800"/><g style="display:inline;stroke-width:27.20000267;enable-background:new"><path style="fill:#fec589;fill-opacity:1;stroke:none;stroke-width:27.20000267" d="M701.484 292.832 656 400.493l-45.484-107.661v-11.065h90.968z" transform="matrix(.03808 .02199 -.02385 .0413 -2.163 -6.963)"/><path style="color:#000;display:inline;overflow:visible;visibility:visible;fill:#5d5d5d;fill-opacity:1;fill-rule:nonzero;stroke:none;stroke-width:28.00900841;marker:none;enable-background:accumulate" d="M645.198 374.677 656 400.493l10.803-25.816c.01.175-21.605 0-21.605 0z" transform="matrix(.03808 .02199 -.02385 .0413 -2.163 -6.963)"/><path style="fill:#2f5fdd;fill-opacity:1;stroke:none;stroke-width:27.20000267" d="M610.516 292.832s91.989 1.586 90.968 0V23.057h-90.968z" transform="matrix(.03808 .02199 -.02385 .0413 -2.163 -6.963)"/></g></svg>