<svg xmlns="http://www.w3.org/2000/svg" viewBox="0 0 24 24"><path style="color:#000;font-style:normal;font-variant:normal;font-weight:400;font-stretch:normal;font-size:medium;line-height:normal;font-family:sans-serif;font-variant-ligatures:normal;font-variant-position:normal;font-variant-caps:normal;font-variant-numeric:normal;font-variant-alternates:normal;font-variant-east-asian:normal;font-feature-settings:normal;font-variation-settings:normal;text-indent:0;text-align:start;text-decoration:none;text-decoration-line:none;text-decoration-style:solid;text-decoration-color:#000;letter-spacing:normal;word-spacing:normal;text-transform:none;writing-mode:lr-tb;direction:ltr;text-orientation:mixed;dominant-baseline:auto;baseline-shift:baseline;text-anchor:start;white-space:normal;shape-padding:0;shape-margin:0;inline-size:0;clip-rule:nonzero;display:inline;overflow:visible;visibility:visible;isolation:auto;mix-blend-mode:normal;color-interpolation:sRGB;color-interpolation-filters:linearRGB;solid-color:#000;solid-opacity:1;vector-effect:none;fill:#000;fill-opacity:1;fill-rule:nonzero;stroke:none;stroke-width:2;stroke-linecap:butt;stroke-linejoin:round;stroke-miterlimit:4;stroke-dasharray:none;stroke-dashoffset:0;stroke-opacity:1;color-rendering:auto;image-rendering:auto;shape-rendering:auto;text-rendering:auto;enable-background:accumulate;stop-color:#000;stop-opacity:1;opacity:.7" d="M6 4.002c-.5 0-1.063-.034-1.691.176a1.933 1.933 0 0 0-.926.63C3.123 5.145 3 5.586 3 6.003v9c0 .417.122.856.383 1.191.26.335.612.527.926.631.628.21 1.191.178 1.691.178h1.031L8.697 19H11v-1.998h7c.5 0 1.063.032 1.691-.178.314-.104.666-.296.926-.63.26-.336.383-.775.383-1.192v-9l-.01.14c.062-.434-.026-.937-.297-1.306-.27-.37-.638-.555-.959-.658-.64-.206-1.23-.176-1.734-.176H6zm0 2h12c.443 0 .81.033 1 .072v8.858c-.147.037-.528.07-1 .07h-8a1 1 0 0 0-1 1v.238l-.732-.879a1 1 0 0 0-.768-.359H6c-.472 0-.853-.033-1-.07V6.07c.147-.037.528-.068 1-.068z"/><path style="opacity:1;fill:#fa9381;fill-opacity:1;fill-rule:nonzero;stroke:none;stroke-width:.00119524;stroke-linecap:butt;stroke-linejoin:round;stroke-miterlimit:4;stroke-dasharray:none;stroke-dashoffset:0;stroke-opacity:1" d="M6 5.001h12c1 0 2.141.01 2 1v9c0 1-1 1-2 1h-8v3l-2.5-3H6c-1 0-2 0-2-1v-9c0-1 1-1 2-1z"/><path style="opacity:1;fill:#fff;fill-opacity:1;fill-rule:nonzero;stroke:none;stroke-width:.00119524;stroke-linecap:butt;stroke-linejoin:round;stroke-miterlimit:4;stroke-dasharray:none;stroke-dashoffset:0;stroke-opacity:1" d="M6.5 10.001h11a.499.499 0 1 1 0 1h-11a.499.499 0 1 1 0-1zM6.5 12.001h11a.499.499 0 1 1 0 1h-11a.499.499 0 1 1 0-1zM6.5 8.001h11a.499.499 0 1 1 0 1h-11a.499.499 0 1 1 0-1z"/><path style="fill:#C88800;fill-opacity:1;stroke:none;stroke-width:1px;stroke-linecap:butt;stroke-linejoin:miter;stroke-opacity:1" d="M1 20.5 5 18v2h5v1H5v2z"/></svg>