<svg xmlns="http://www.w3.org/2000/svg" viewBox="0 0 24 24"><path style="opacity:.7;vector-effect:none;fill:#000;fill-opacity:1;stroke:none;stroke-width:2;stroke-linecap:round;stroke-linejoin:round;stroke-miterlimit:4;stroke-dasharray:none;stroke-dashoffset:0;stroke-opacity:1" d="M9 3c-.554 0-1 .446-1 1H7c-1.108 0-2 .892-2 2v7c0 1.108.892 2 2 2h2v-4c0-1.108.925-1.731 2-2h4V6c0-1.108-.892-2-2-2h-1c0-.554-.446-1-1-1z"/><rect style="opacity:1;vector-effect:none;fill:#ccc;fill-opacity:1;stroke:none;stroke-width:2;stroke-linecap:round;stroke-linejoin:round;stroke-miterlimit:4;stroke-dasharray:none;stroke-dashoffset:0;stroke-opacity:1" width="8" height="9" x="6" y="5" ry="1" rx="1"/><path style="opacity:1;vector-effect:none;fill:#ccc;fill-opacity:1;stroke:none;stroke-width:2;stroke-linecap:round;stroke-linejoin:round;stroke-miterlimit:4;stroke-dasharray:none;stroke-dashoffset:0;stroke-opacity:1" d="M9 4h2v2H9z"/><path style="opacity:1;vector-effect:none;fill:#fff;fill-opacity:1;stroke:none;stroke-width:2;stroke-linecap:round;stroke-linejoin:round;stroke-miterlimit:4;stroke-dasharray:none;stroke-dashoffset:0;stroke-opacity:1" d="M8 5h4v1H8zM9 4h2v1H9z"/><path style="opacity:.7;vector-effect:none;fill:#000;fill-opacity:1;stroke:none;stroke-width:2;stroke-linecap:round;stroke-linejoin:round;stroke-miterlimit:4;stroke-dasharray:none;stroke-dashoffset:0;stroke-opacity:1" d="M11 9c-1.108 0-2 .892-2 2v8c0 1.108.892 2 2 2h1.896l6.079-4 .011 2.982c.228 0 .46-.002.668-.003l.082-.002A1.98 1.98 0 0 0 20 19v-8c0-1.108-.892-2-2-2z"/><path style="opacity:1;vector-effect:none;fill:#fff;fill-opacity:1;stroke:none;stroke-width:2;stroke-linecap:round;stroke-linejoin:round;stroke-miterlimit:4;stroke-dasharray:none;stroke-dashoffset:0;stroke-opacity:1" d="M11 10c-.554 0-1 .446-1 1v8c0 .554.446 1 1 1h3.486l4.489-2.82S19 11.874 19 11c0-.554-.446-1-1-1z"/><path style="opacity:1;vector-effect:none;fill:#a7a7f1;fill-opacity:1;stroke:none;stroke-width:2;stroke-linecap:round;stroke-linejoin:round;stroke-miterlimit:4;stroke-dasharray:none;stroke-dashoffset:0;stroke-opacity:1" d="M11 11h7v1h-7zM11 13h7v1h-7zM11 15h4v1h-4z"/><path style="fill:#C88800;fill-opacity:1;stroke:none;stroke-width:1px;stroke-linecap:butt;stroke-linejoin:miter;stroke-opacity:1" d="M22 18v.5c.005.75-.004 1.302-.057 1.66-.053.358-.122.473-.244.565-.122.091-.402.186-.928.23-.314.026-1.72.027-2.78.031l-.009-2.002L13.98 21.5 18 24l-.008-2.006c1.074-.004 2.495-.012 2.862-.043.599-.05 1.069-.142 1.447-.426.378-.283.559-.73.63-1.216.073-.486.069-1.059.069-1.809V18h-1z"/></svg>