<svg xmlns="http://www.w3.org/2000/svg" height="24" width="24"><path style="opacity:.7;vector-effect:none;fill:#000;fill-opacity:1;stroke:#000;stroke-width:2;stroke-linecap:round;stroke-linejoin:round;stroke-miterlimit:4;stroke-dasharray:none;stroke-dashoffset:0;stroke-opacity:1" d="M15 2.01V8h-2.156s2.078 5.218 4.156 8.01C19.078 13.219 21.156 8 21.156 8H19V2.01Z"/><path style="opacity:1;vector-effect:none;fill:#a6d74f;fill-opacity:1;stroke:none;stroke-width:.176777;stroke-linecap:round;stroke-linejoin:round;stroke-miterlimit:4;stroke-dasharray:none;stroke-dashoffset:0;stroke-opacity:1" d="M15 2.01V8h-2.156s2.078 5.218 4.156 8.01C19.078 13.219 21.156 8 21.156 8H19V2.01Z"/><path style="opacity:1;vector-effect:none;fill:#6d6d6d;fill-opacity:1;stroke:none;stroke-width:.302;stroke-linecap:round;stroke-linejoin:miter;stroke-miterlimit:4;stroke-dasharray:none;stroke-dashoffset:0;stroke-opacity:1" d="M1 22h12v1H1z"/><path style="opacity:.7;vector-effect:none;fill:#000;fill-opacity:1;stroke:#000;stroke-width:2;stroke-linecap:round;stroke-linejoin:round;stroke-miterlimit:4;stroke-dasharray:none;stroke-dashoffset:0;stroke-opacity:1" d="M5 7v5.99H2.844S4.922 18.206 7 21c2.078-2.793 4.156-8.01 4.156-8.01H9V7Z"/><path style="opacity:1;vector-effect:none;fill:#a6d74f;fill-opacity:1;stroke:none;stroke-width:.176777;stroke-linecap:round;stroke-linejoin:round;stroke-miterlimit:4;stroke-dasharray:none;stroke-dashoffset:0;stroke-opacity:1" d="M5 7v5.99H2.844S4.922 18.206 7 21c2.078-2.793 4.156-8.01 4.156-8.01H9V7Z"/><path style="opacity:1;vector-effect:none;fill:#6d6d6d;fill-opacity:1;stroke:none;stroke-width:.302;stroke-linecap:round;stroke-linejoin:miter;stroke-miterlimit:4;stroke-dasharray:none;stroke-dashoffset:0;stroke-opacity:1" d="M11 17h12v1H11z"/></svg>