<svg xmlns="http://www.w3.org/2000/svg" viewBox="0 0 24 24"><path d="M3 15v5h1v-2h16v2h1v-5h-1v2H4v-2z" style="fill:#c88800;fill-opacity:1"/><path style="opacity:1;fill:#fff;fill-opacity:1;stroke:none;stroke-width:2;stroke-linecap:round;stroke-linejoin:round;stroke-miterlimit:4;stroke-dasharray:none;stroke-opacity:1" d="M4 4h16v9H4z"/><path style="opacity:1;fill:#6d6d6d;fill-opacity:1;stroke-width:.999999" d="M6 3C4 3 3 3 3 5v8h1v-2h5v2h1v-2h4v2h1v-2h5v2h1V5c0-2-1-2-3-2Zm0 1h3v3H4V5c0-1 1-1 2-1Zm4 0h4v3h-4V5Zm5 0h3c1 0 2 0 2 1v2h-5V5ZM4 8h5v2H4Zm6 0h4v2h-4zm5 0h5v2h-5z"/></svg>