<svg xmlns="http://www.w3.org/2000/svg" viewBox="0 0 24 24"><path style="opacity:.7;fill:#000;fill-opacity:1;stroke:#000;stroke-width:2;stroke-linejoin:round;stroke-miterlimit:4;stroke-dasharray:none" d="M4 4h16v16H4z"/><path style="opacity:1;fill:#fff;fill-opacity:1;stroke:none;stroke-width:2;stroke-linejoin:round;stroke-miterlimit:4;stroke-dasharray:none" d="M4 4h16v16H4z"/><path style="opacity:1;fill:#6d6d6d;fill-opacity:1;stroke:none;stroke-width:2;stroke-linejoin:round;stroke-miterlimit:4;stroke-dasharray:none" d="M4 4h16v5H4z"/><path style="opacity:1;vector-effect:none;fill:#c88800;fill-opacity:1;stroke:none;stroke-width:2.28449893;stroke-linecap:round;stroke-linejoin:round;stroke-miterlimit:4;stroke-dasharray:none;stroke-dashoffset:0;stroke-opacity:1" d="M10 11h9v2h-9z"/><rect y="10" x="5" height="4" width="4" style="opacity:.7;vector-effect:none;fill:#000;fill-opacity:1;stroke:none;stroke-width:2.15384626;stroke-linecap:round;stroke-linejoin:round;stroke-miterlimit:4;stroke-dasharray:none;stroke-dashoffset:0;stroke-opacity:1" ry="1"/><path style="opacity:1;vector-effect:none;fill:#fff;fill-opacity:1;stroke:none;stroke-width:2.15384626;stroke-linecap:round;stroke-linejoin:round;stroke-miterlimit:4;stroke-dasharray:none;stroke-dashoffset:0;stroke-opacity:1" d="M6 11h2v2H6z"/><path style="opacity:1;vector-effect:none;fill:#c88800;fill-opacity:1;stroke:none;stroke-width:2.28449893;stroke-linecap:round;stroke-linejoin:round;stroke-miterlimit:4;stroke-dasharray:none;stroke-dashoffset:0;stroke-opacity:1" d="M10 16h9v2h-9z"/><rect ry="1" style="opacity:.7;vector-effect:none;fill:#000;fill-opacity:1;stroke:none;stroke-width:2.15384626;stroke-linecap:round;stroke-linejoin:round;stroke-miterlimit:4;stroke-dasharray:none;stroke-dashoffset:0;stroke-opacity:1" width="4" height="4" x="5" y="15"/><path style="opacity:1;vector-effect:none;fill:#fff;fill-opacity:1;stroke:none;stroke-width:2.15384626;stroke-linecap:round;stroke-linejoin:round;stroke-miterlimit:4;stroke-dasharray:none;stroke-dashoffset:0;stroke-opacity:1" d="M6 16h2v2H6z"/><path style="opacity:1;fill:#fff;fill-opacity:1;fill-rule:evenodd;stroke:none;stroke-width:2;stroke-linecap:butt;stroke-linejoin:round;stroke-miterlimit:4;stroke-dasharray:none;stroke-opacity:1" d="M13 15h9v7h-9z"/><path style="opacity:1;fill:#6d6d6d;fill-opacity:1;stroke:none;stroke-width:2;stroke-linejoin:round;stroke-miterlimit:4;stroke-dasharray:none;stroke-opacity:1" d="M13 15h9v2h-9z"/><path d="M12 16v5c0 2 1 2 3 2h5c2 0 3 0 3-2v-5c0-2-1-2-3-2h-5c-2 0-3 0-3 2zm3-1h2v4h-4v-3c0-1 1-1 2-1zm3 0h2c1 0 2 0 2 1v3h-4zm-5 5h4v2h-2c-1 0-2 0-2-1zm5 0h4v1c0 .858-1 1-2 1h-2z" style="fill:#6d6d6d;fill-opacity:1"/></svg>