<svg xmlns="http://www.w3.org/2000/svg" viewBox="0 0 16 16"><path style="opacity:.7;fill:#000;fill-opacity:1;fill-rule:nonzero;stroke:#000;stroke-width:2;stroke-linecap:butt;stroke-linejoin:round;stroke-miterlimit:4;stroke-dasharray:none;stroke-dashoffset:0;stroke-opacity:1" d="M4 1C2 1 1 1 1 3v3c0 2 1 2 3 2l4 3V8s3 0 3-2V3c0-2-1-2-3-2Z"/><path d="M4 1C2 1 1 1 1 3v3c0 2 1 2 3 2l4 3V8s3 0 3-2V3c0-2-1-2-3-2Z" style="opacity:1;fill:#fa9381;fill-opacity:1;fill-rule:nonzero;stroke:none;stroke-width:.00106905;stroke-linecap:butt;stroke-linejoin:round;stroke-miterlimit:4;stroke-dasharray:none;stroke-dashoffset:0;stroke-opacity:1"/><path d="M2.365 3h7.333c.185 0 .333.223.333.5s-.148.5-.333.5H2.365c-.185 0-.334-.223-.334-.5s.149-.5.334-.5zM2.365 5h7.333c.185 0 .333.223.333.5s-.148.5-.333.5H2.365c-.185 0-.334-.223-.334-.5s.149-.5.334-.5z" style="opacity:1;fill:#fff;fill-opacity:1;fill-rule:nonzero;stroke:none;stroke-width:.00097591;stroke-linecap:butt;stroke-linejoin:round;stroke-miterlimit:4;stroke-dasharray:none;stroke-dashoffset:0;stroke-opacity:1"/><path d="M7 4C5 4 4 4 4 6v3c0 2 1 2 3 2l4 3v-3s3 0 3-2V6c0-2-1-2-3-2z" style="opacity:.7;fill:#000;fill-opacity:1;fill-rule:nonzero;stroke:#000;stroke-width:2;stroke-linecap:butt;stroke-linejoin:round;stroke-miterlimit:4;stroke-dasharray:none;stroke-dashoffset:0;stroke-opacity:1"/><path style="opacity:1;fill:#fa9381;fill-opacity:1;fill-rule:nonzero;stroke:none;stroke-width:.00106905;stroke-linecap:butt;stroke-linejoin:round;stroke-miterlimit:4;stroke-dasharray:none;stroke-dashoffset:0;stroke-opacity:1" d="M7 4C5 4 4 4 4 6v3c0 2 1 2 3 2l4 3v-3s3 0 3-2V6c0-2-1-2-3-2z"/><path style="opacity:1;fill:#fff;fill-opacity:1;fill-rule:nonzero;stroke:none;stroke-width:.00097591;stroke-linecap:butt;stroke-linejoin:round;stroke-miterlimit:4;stroke-dasharray:none;stroke-dashoffset:0;stroke-opacity:1" d="M5.365 6h7.333c.185 0 .333.223.333.5s-.148.5-.333.5H5.365c-.185 0-.334-.223-.334-.5s.149-.5.334-.5ZM5.365 8h7.333c.185 0 .333.223.333.5s-.148.5-.333.5H5.365c-.185 0-.334-.223-.334-.5s.149-.5.334-.5Z"/><circle style="opacity:1;vector-effect:none;fill:#c7162b;fill-opacity:1;stroke:none;stroke-width:3.49999976;stroke-linecap:butt;stroke-linejoin:round;stroke-miterlimit:4;stroke-dasharray:none;stroke-dashoffset:0;stroke-opacity:1" cy="17.678" r="3.5" transform="rotate(-45)"/><path overflow="visible" font-weight="400" style="color:#000;font-weight:400;line-height:normal;font-family:sans-serif;text-indent:0;text-align:start;text-decoration:none;text-decoration-line:none;text-decoration-style:solid;text-decoration-color:#000;text-transform:none;white-space:normal;overflow:visible;isolation:auto;mix-blend-mode:normal;fill:#fff;fill-opacity:1;marker:none" d="m10.379 11.086 1.414 1.414-1.414 1.414.707.707 1.414-1.414 1.414 1.414.707-.707-1.414-1.414 1.414-1.414-.707-.707-1.414 1.414-1.414-1.414z"/></svg>