<svg xmlns="http://www.w3.org/2000/svg" xmlns:xlink="http://www.w3.org/1999/xlink" viewBox="0 0 16 16"><defs><linearGradient id="a"><stop style="stop-color:#151515;stop-opacity:1" offset="0"/><stop style="stop-color:#4d4d4d;stop-opacity:1" offset="1"/></linearGradient><linearGradient xlink:href="#a" id="c" x1="8" y1="2" x2="8" y2="7" gradientUnits="userSpaceOnUse"/><linearGradient xlink:href="#a" id="b" x1="4" y1="9" x2="4" y2="14" gradientUnits="userSpaceOnUse"/></defs><path style="opacity:1;fill:#000;stroke:#fff;stroke-width:2;stroke-linejoin:round;stroke-miterlimit:4;stroke-dasharray:none" d="M4 9a2.5 2.5 0 0 0 0 5h1v-1H4a1.5 1.5 0 1 1 0-3h1V9zM9 2v5h2.27C12.292 7 13 6.343 13 5.525c0-.598-.343-1.106-.98-1.338a1.61 1.61 0 0 0 .171-.687c0-.831-.615-1.5-1.382-1.5h-.885zm1 1h.885c.255 0 .46.223.46.5s-.205.5-.46.5H10zm0 2h1.168c.462 0 .832.223.832.5s-.37.5-.832.5H10z"/><path d="M3.273 2 1.646 7h1.051l.326-1h1.954l.326 1h1.05L4.728 2zM4 3l.652 2H3.348z" style="opacity:1;fill:#000;fill-opacity:1;fill-rule:evenodd;stroke:#fff;stroke-width:2;stroke-linecap:butt;stroke-linejoin:round;stroke-miterlimit:4;stroke-dasharray:none;stroke-opacity:1"/><path d="M4 9a2.5 2.5 0 0 0 0 5h1v-1H4a1.5 1.5 0 1 1 0-3h1V9z" style="fill:url(#b);fill-opacity:1"/><path style="fill:#C88800;fill-opacity:1;stroke:none;stroke-width:1px;stroke-linecap:butt;stroke-linejoin:miter;stroke-opacity:1" d="m8.017 12.515 3 2.5L11 10z"/><path style="fill:url(#c);fill-opacity:1" d="M3.273 2 1.646 7h1.051l.326-1h1.954l.326 1h1.05L4.728 2H3.273zM9 2v5h2.27C12.292 7 13 6.343 13 5.525c0-.598-.343-1.106-.98-1.338a1.61 1.61 0 0 0 .171-.687c0-.831-.615-1.5-1.382-1.5H9zM4 3l.652 2H3.348L4 3zm6 0h.885c.255 0 .46.223.46.5s-.205.5-.46.5H10V3zm0 2h1.168c.462 0 .832.223.832.5s-.37.5-.832.5H10V5z"/><path style="color:#000;font-style:normal;font-variant:normal;font-weight:400;font-stretch:normal;font-size:medium;line-height:normal;font-family:sans-serif;font-variant-ligatures:normal;font-variant-position:normal;font-variant-caps:normal;font-variant-numeric:normal;font-variant-alternates:normal;font-variant-east-asian:normal;font-feature-settings:normal;font-variation-settings:normal;text-indent:0;text-align:start;text-decoration:none;text-decoration-line:none;text-decoration-style:solid;text-decoration-color:#000;letter-spacing:normal;word-spacing:normal;text-transform:none;writing-mode:lr-tb;direction:ltr;text-orientation:mixed;dominant-baseline:auto;baseline-shift:baseline;text-anchor:start;white-space:normal;shape-padding:0;shape-margin:0;inline-size:0;clip-rule:nonzero;display:inline;overflow:visible;visibility:visible;opacity:1;isolation:auto;mix-blend-mode:normal;color-interpolation:sRGB;color-interpolation-filters:linearRGB;solid-color:#000;solid-opacity:1;vector-effect:none;fill:#C88800;fill-opacity:1;fill-rule:nonzero;stroke:none;stroke-width:1px;stroke-linecap:square;stroke-linejoin:miter;stroke-miterlimit:4;stroke-dasharray:none;stroke-dashoffset:0;stroke-opacity:1;color-rendering:auto;image-rendering:auto;shape-rendering:auto;text-rendering:auto;enable-background:accumulate;stop-color:#000;stop-opacity:1" d="M15 9h-1c-.002.732-.007 1.346-.043 1.771-.044.526-.139.806-.23.928-.092.122-.207.191-.565.244-.358.053-.91.057-1.66.057h-.5v1h.5c.75 0 1.323.004 1.809-.068.485-.072.933-.253 1.216-.631.284-.378.376-.848.426-1.447.04-.487.046-1.115.047-1.854z"/></svg>