<svg xmlns="http://www.w3.org/2000/svg" viewBox="0 0 16 16">/&gt;<path style="opacity:1;fill:#c88800;fill-opacity:1;stroke:none;stroke-width:1.02563834;stroke-miterlimit:4;stroke-dasharray:none;stroke-dashoffset:0;stroke-opacity:1" d="M4 4h8v3H4z"/><path style="opacity:1;fill:#9b33ae;fill-opacity:1;stroke:none;stroke-width:.64867061;stroke-miterlimit:4;stroke-dasharray:none;stroke-dashoffset:0;stroke-opacity:1" d="M4 8h3v4H4zM9 8h3v4H9z"/><g style="fill:#1a7fd4;fill-opacity:1"><g style="fill:#1a7fd4;fill-opacity:1"><path style="opacity:1;fill:#1a7fd4;fill-opacity:1;stroke:none;stroke-width:.81649661;stroke-miterlimit:4;stroke-dasharray:none;stroke-dashoffset:0;stroke-opacity:1" d="M2 6h1v4H2Zm1 5v2h2v1H2v-3Zm0-6V3h2V2H2v3zm7 8v1H6v-1Zm0-11v1H6V2Zm4 4h-1v4h1zm-1 5v2h-2v1h3v-3Zm0-6V3h-2V2h3v3z" transform="matrix(-1 0 0 1 16 0)"/></g></g></svg>