<svg xmlns="http://www.w3.org/2000/svg" xmlns:xlink="http://www.w3.org/1999/xlink" height="16" width="16"><defs><radialGradient xlink:href="#a" id="b" cx="8" cy="8" fx="8" fy="8" r="6" gradientUnits="userSpaceOnUse"/><linearGradient id="a"><stop style="stop-color:#232629;stop-opacity:1" offset="0"/><stop offset=".333" style="stop-color:#fff;stop-opacity:1"/><stop style="stop-color:#d4d4d4;stop-opacity:1" offset=".76"/><stop style="stop-color:#fff;stop-opacity:1" offset="1"/></linearGradient></defs><path d="M8 2a6 6 0 0 0-6 6 6 6 0 0 0 6 6 6 6 0 0 0 6-6 6 6 0 0 0-6-6Zm0 3a3 3 0 0 1 3 3 3 3 0 0 1-3 3 3 3 0 0 1-3-3 3 3 0 0 1 3-3Z" style="fill:#000;fill-opacity:.835294;stroke-width:2;stroke:#000;opacity:.7;stroke-miterlimit:4;stroke-dasharray:none;stroke-linejoin:round"/><path style="fill:url(#b);fill-opacity:1;stroke-width:.79056978" d="M8 2a6 6 0 0 0-6 6 6 6 0 0 0 6 6 6 6 0 0 0 6-6 6 6 0 0 0-6-6Zm0 3a3 3 0 0 1 3 3 3 3 0 0 1-3 3 3 3 0 0 1-3-3 3 3 0 0 1 3-3Z"/></svg>