<?xml version="1.0" encoding="UTF-8" standalone="no"?>
<svg
   xmlns:dc="http://purl.org/dc/elements/1.1/"
   xmlns:cc="http://creativecommons.org/ns#"
   xmlns:rdf="http://www.w3.org/1999/02/22-rdf-syntax-ns#"
   xmlns:svg="http://www.w3.org/2000/svg"
   xmlns="http://www.w3.org/2000/svg"
   xmlns:sodipodi="http://sodipodi.sourceforge.net/DTD/sodipodi-0.dtd"
   xmlns:inkscape="http://www.inkscape.org/namespaces/inkscape"
   height="52"
   viewBox="0 0 60 52"
   width="60"
   version="1.1"
   id="svg32"
   sodipodi:docname="areasfull_52x60.svg"
   inkscape:version="1.0.1 (3bc2e813f5, 2020-09-07)">
  <metadata
     id="metadata38">
    <rdf:RDF>
      <cc:Work
         rdf:about="">
        <dc:format>image/svg+xml</dc:format>
        <dc:type
           rdf:resource="http://purl.org/dc/dcmitype/StillImage" />
      </cc:Work>
    </rdf:RDF>
  </metadata>
  <defs
     id="defs36" />
  <sodipodi:namedview
     pagecolor="#ffffff"
     bordercolor="#666666"
     borderopacity="1"
     objecttolerance="10"
     gridtolerance="10"
     guidetolerance="10"
     inkscape:pageopacity="0"
     inkscape:pageshadow="2"
     inkscape:window-width="1920"
     inkscape:window-height="1016"
     id="namedview34"
     showgrid="false"
     inkscape:zoom="16.923077"
     inkscape:cx="30"
     inkscape:cy="26"
     inkscape:window-x="0"
     inkscape:window-y="27"
     inkscape:window-maximized="1"
     inkscape:current-layer="svg32" />
  <linearGradient
     id="a"
     gradientTransform="matrix(4.9999999,0,0,0.7,-218,-701.45346)"
     gradientUnits="userSpaceOnUse"
     x1="50"
     x2="50"
     y1="1066.3621"
     y2="1006.3621">
    <stop
       offset="0"
       stop-color="#77216F"
       id="stop2" />
    <stop
       offset="1"
       stop-color="#a25f9e"
       id="stop4" />
  </linearGradient>
  <linearGradient
     id="b"
     gradientTransform="matrix(5,0,0,1.1666666,-53,-1174.7558)"
     gradientUnits="userSpaceOnUse"
     x1="16"
     x2="16"
     y1="1046.3622"
     y2="1009.505">
    <stop
       offset="0"
       stop-color="#e95420"
       id="stop7" />
    <stop
       offset="1"
       stop-color="#fe865c"
       id="stop9" />
  </linearGradient>
  <path
     d="m 0,0 h 60 v 52 h -60 z"
     fill="#ffffff"
     id="path12" />
  <path
     d="m 7,4 v 6 15 l 20,-6 25,12 v -21 -6 z"
     fill="url(#a)"
     id="path14"
     style="fill:#77216f;fill-opacity:1" />
  <path
     d="m 7,25 20,-6 25,12 v 15 h -45 z"
     fill="url(#b)"
     id="path16"
     style="fill:#e95420;fill-opacity:1" />
  <path
     d="m 3,45 h 52 v 1 h -52 z"
     fill="#232629"
     id="path18" />
  <path
     d="m 6,3 h 1 v 46 h -1 z"
     fill="#232629"
     id="path20" />
  <g
     fill="#ffffff"
     id="g28"
     transform="translate(0,-1000.3622)">
    <path
       d="m 44,1006.3623 a 2,2 0 0 0 -2,2 2,2 0 0 0 2,2 2,2 0 0 0 2,-2 2,2 0 0 0 -2,-2 z m 0,1 a 1,1 0 0 1 1,1 1,1 0 0 1 -1,1 1,1 0 0 1 -1,-1 1,1 0 0 1 1,-1 z"
       id="path22" />
    <path
       d="m 48,1010.3623 a 2,2 0 0 0 -2,2 2,2 0 0 0 2,2 2,2 0 0 0 2,-2 2,2 0 0 0 -2,-2 z m 0,1 a 1,1 0 0 1 1,1 1,1 0 0 1 -1,1 1,1 0 0 1 -1,-1 1,1 0 0 1 1,-1 z"
       id="path24" />
    <path
       d="m 48.59961,1006.0626 -6,8 0.80078,0.5996 6,-8 z"
       fill-rule="evenodd"
       id="path26" />
  </g>
</svg>
