<?xml version="1.0" encoding="UTF-8" standalone="no"?>
<svg
   height="52"
   viewBox="0 0 60 52"
   width="60"
   version="1.1"
   id="svg36"
   sodipodi:docname="areas3d_52x60.svg"
   inkscape:version="1.1.2 (76b9e6a115, 2022-02-25)"
   xmlns:inkscape="http://www.inkscape.org/namespaces/inkscape"
   xmlns:sodipodi="http://sodipodi.sourceforge.net/DTD/sodipodi-0.dtd"
   xmlns="http://www.w3.org/2000/svg"
   xmlns:svg="http://www.w3.org/2000/svg"
   xmlns:rdf="http://www.w3.org/1999/02/22-rdf-syntax-ns#"
   xmlns:cc="http://creativecommons.org/ns#"
   xmlns:dc="http://purl.org/dc/elements/1.1/">
  <metadata
     id="metadata42">
    <rdf:RDF>
      <cc:Work
         rdf:about="">
        <dc:format>image/svg+xml</dc:format>
        <dc:type
           rdf:resource="http://purl.org/dc/dcmitype/StillImage" />
      </cc:Work>
    </rdf:RDF>
  </metadata>
  <defs
     id="defs40" />
  <sodipodi:namedview
     pagecolor="#ffffff"
     bordercolor="#666666"
     borderopacity="1"
     objecttolerance="10"
     gridtolerance="10"
     guidetolerance="10"
     inkscape:pageopacity="0"
     inkscape:pageshadow="2"
     inkscape:window-width="1852"
     inkscape:window-height="1016"
     id="namedview38"
     showgrid="false"
     inkscape:zoom="22.627417"
     inkscape:cx="39.133941"
     inkscape:cy="36.570679"
     inkscape:window-x="0"
     inkscape:window-y="0"
     inkscape:window-maximized="1"
     inkscape:current-layer="svg36"
     inkscape:pagecheckerboard="0" />
  <linearGradient
     id="a"
     gradientTransform="matrix(4.2222223,0,0,0.93333333,-180,-938.60458)"
     gradientUnits="userSpaceOnUse"
     x1="49.973682"
     x2="49.973682"
     y1="1054.9335"
     y2="1008.8621">
    <stop
       offset="0"
       stop-color="#77216f"
       id="stop2" />
    <stop
       offset="1"
       stop-color="#a25f9e"
       id="stop4" />
  </linearGradient>
  <linearGradient
     id="b"
     gradientTransform="matrix(4.2222223,0,0,0.49999998,-40.666659,-477.18102)"
     gradientUnits="userSpaceOnUse"
     x1="15.9375"
     x2="16.026314"
     y1="1046.3622"
     y2="958.36206">
    <stop
       offset="0"
       stop-color="#e95420"
       id="stop7" />
    <stop
       offset="1"
       stop-color="#fe865c"
       id="stop9" />
  </linearGradient>
  <path
     d="m 0,0 h 60 v 52 h -60 z"
     fill="#ffffff"
     id="path12" />
  <path
     d="m 12,40 -9,9"
     fill="none"
     stroke="#232629"
     id="path14" />
  <path
     d="m 11,40.0062 h 46 v 0.9874 h -46 z"
     fill="#232629"
     id="path16" />
  <path
     d="m 11,3 h 1 v 38 h -1 z"
     fill="#232629"
     id="path18" />
  <path
     d="m 10,22 v 3 l 19.875,-6 18.125,12 v -9 l -19,-12 z"
     fill="url(#a)"
     id="path20"
     style="fill:#00ff00;fill-opacity:1" />
  <path
     d="m 10,25 19.875261,-6 18.124739,12 v 15 h -38 z"
     fill="url(#b)"
     id="path22"
     style="fill:#00ff00;fill-opacity:1" />
  <path
     d="m 29,10 -19,12 4,-3 19,-12 z"
     fill="#987197"
     id="path24"
     style="fill-rule:evenodd;fill:#00ff00;fill-opacity:1" />
  <path
     d="m 48,22 v 9 l 3,-3 v -9 z"
     fill="#945c93"
     id="path26"
     style="fill-rule:evenodd;fill:#00ff00;fill-opacity:1" />
  <path
     d="m 48,31 v 15 l 3,-3 v -15 z"
     fill="#fe865c"
     id="path28"
     style="fill-rule:evenodd;fill:#00ff00;fill-opacity:1" />
  <path
     d="m 48,22 -19,-12 4,-3 18,12 z"
     fill="#987197"
     id="path30"
     style="fill-rule:evenodd;fill:#00ff00;fill-opacity:1" />
  <path
     d="m 29,10 -19,12 4,-3 19,-12 z"
     fill="#987197"
     id="path855"
     style="fill-rule:evenodd;fill:#ffffff;fill-opacity:1;opacity:0.3" />
  <path
     d="m 48,22 -19,-12 4,-3 18,12 z"
     fill="#987197"
     id="path857"
     style="fill-rule:evenodd;fill:#ffffff;fill-opacity:1;opacity:0.3" />
  <path
     d="m 48,22 v 9 l 3,-3 v -9 z"
     fill="#945c93"
     id="path931"
     style="fill-rule:evenodd;fill:#ffffff;fill-opacity:1;opacity:0.2" />
  <path
     d="m 48,31 v 15 l 3,-3 v -15 z"
     fill="#fe865c"
     id="path1005"
     style="fill-rule:evenodd;fill:#ffffff;fill-opacity:1;opacity:0.55" />
  <path
     d="m 10,25 19.875261,-6 18.124739,12 v 15 h -38 z"
     fill="url(#b)"
     id="path1067"
     style="fill:#ffffff;fill-opacity:1;opacity:0.4" />
</svg>
