<?xml version="1.0" encoding="UTF-8" standalone="no"?>
<svg
   xmlns:dc="http://purl.org/dc/elements/1.1/"
   xmlns:cc="http://creativecommons.org/ns#"
   xmlns:rdf="http://www.w3.org/1999/02/22-rdf-syntax-ns#"
   xmlns:svg="http://www.w3.org/2000/svg"
   xmlns="http://www.w3.org/2000/svg"
   xmlns:xlink="http://www.w3.org/1999/xlink"
   xmlns:sodipodi="http://sodipodi.sourceforge.net/DTD/sodipodi-0.dtd"
   xmlns:inkscape="http://www.inkscape.org/namespaces/inkscape"
   height="52"
   viewBox="0 0 60 52"
   width="60"
   version="1.1"
   id="svg34"
   sodipodi:docname="conedeep_52x60.svg"
   inkscape:version="1.0.1 (3bc2e813f5, 2020-09-07)">
  <metadata
     id="metadata40">
    <rdf:RDF>
      <cc:Work
         rdf:about="">
        <dc:format>image/svg+xml</dc:format>
        <dc:type
           rdf:resource="http://purl.org/dc/dcmitype/StillImage" />
      </cc:Work>
    </rdf:RDF>
  </metadata>
  <defs
     id="defs38" />
  <sodipodi:namedview
     pagecolor="#ffffff"
     bordercolor="#666666"
     borderopacity="1"
     objecttolerance="10"
     gridtolerance="10"
     guidetolerance="10"
     inkscape:pageopacity="0"
     inkscape:pageshadow="2"
     inkscape:window-width="1920"
     inkscape:window-height="1016"
     id="namedview36"
     showgrid="false"
     inkscape:zoom="16.923077"
     inkscape:cx="30"
     inkscape:cy="26"
     inkscape:window-x="0"
     inkscape:window-y="27"
     inkscape:window-maximized="1"
     inkscape:current-layer="svg34" />
  <linearGradient
     id="a">
    <stop
       offset="0"
       stop-color="#00ff00"
       id="stop2" />
    <stop
       offset="1"
       stop-color="#945c93"
       id="stop4" />
  </linearGradient>
  <linearGradient
     id="b">
    <stop
       offset="0"
       stop-color="#00ffff"
       id="stop7" />
    <stop
       offset="1"
       stop-color="#fe865c"
       id="stop9" />
  </linearGradient>
  <linearGradient
     id="c"
     gradientTransform="matrix(0.88888889,0,0,0.52120695,5.888901,-504.01919)"
     gradientUnits="userSpaceOnUse"
     x1="8"
     x2="26"
     xlink:href="#b"
     y1="1043.8622"
     y2="1043.8622" />
  <linearGradient
     id="d"
     gradientTransform="matrix(0.88888889,0,0,0.52120695,28.888841,-504.04517)"
     gradientUnits="userSpaceOnUse"
     x1="8"
     x2="26"
     xlink:href="#b"
     y1="1043.8622"
     y2="1043.8622" />
  <linearGradient
     id="e"
     gradientTransform="matrix(0.88888889,0,0,0.52120695,30.888747,-510.02075)"
     gradientUnits="userSpaceOnUse"
     x1="8"
     x2="26"
     xlink:href="#a"
     y1="1043.8622"
     y2="1043.8622" />
  <linearGradient
     id="f"
     gradientTransform="matrix(0.88888889,0,0,0.52120695,7.888904,-510.02074)"
     gradientUnits="userSpaceOnUse"
     x1="8"
     x2="26"
     xlink:href="#a"
     y1="1043.8622"
     y2="1043.8622" />
  <path
     d="m 0,0 h 60 v 52 h -60 z"
     fill="#ffffff"
     id="path16" />
  <path
     d="m 14,37 -12,12"
     fill="none"
     stroke="#232629"
     id="path18" />
  <path
     d="m 13,37 h 46 v 0.9874 h -46 z"
     fill="#232629"
     id="path20" />
  <path
     d="m 13,2 h 1 v 36 h -1 z"
     fill="#232629"
     id="path22" />
  <path
     d="m 15,39 v 0.014 0.012 -0.027 c 0.03001,2.198 3.603753,3.9995 8,4 4.39776,-5e-4 7.970131,-1.7758 7.998047,-3.9746 h 0.002 l -0.002,-0.014 0.002,-0.012 -8,-22 z"
     fill="url(#f)"
     id="path24"
     style="fill:#00ff00;fill-opacity:1" />
  <path
     d="m 21,33 -8,12 v 0.014 0.012 h 0.002 c 0.0033,0.1141 0.01629,0.2282 0.03906,0.3418 0.0113,0.056 0.02498,0.1121 0.04101,0.168 0.01925,0.074 0.0427,0.1487 0.07031,0.2226 0.02125,0.054 0.04469,0.107 0.07031,0.1602 0.03733,0.081 0.07967,0.1608 0.126953,0.2402 0.02835,0.045 0.0583,0.09 0.08984,0.1348 0.05361,0.08 0.112235,0.1585 0.175781,0.2363 0.04345,0.051 0.08903,0.102 0.136719,0.1523 0.06083,0.067 0.125306,0.1324 0.193359,0.1973 0.0563,0.052 0.114912,0.1035 0.175782,0.1543 0.08056,0.069 0.165234,0.1367 0.253906,0.2031 0.05643,0.041 0.114386,0.081 0.173828,0.1211 0.09077,0.063 0.185212,0.1251 0.283203,0.1856 0.08171,0.049 0.16572,0.096 0.251953,0.1425 0.09613,0.053 0.195128,0.1056 0.296875,0.1563 0.07916,0.039 0.159902,0.076 0.242188,0.1133 0.117305,0.054 0.237801,0.106 0.361328,0.1562 0.08146,0.032 0.164158,0.063 0.248047,0.094 0.128641,0.049 0.260211,0.096 0.394531,0.1406 0.09385,0.03 0.188922,0.058 0.285156,0.086 0.129336,0.04 0.2609,0.077 0.394532,0.1133 0.115162,0.029 0.231732,0.057 0.349609,0.084 0.115918,0.028 0.233139,0.053 0.351562,0.078 0.126389,0.025 0.254034,0.049 0.382813,0.07 0.132311,0.023 0.265821,0.045 0.400391,0.064 0.115846,0.016 0.232412,0.031 0.349609,0.045 0.143675,0.017 0.288261,0.032 0.433594,0.045 0.109661,0.01 0.219711,0.018 0.330078,0.025 0.148545,0.011 0.297693,0.02 0.447265,0.027 0.215604,0.01 0.431928,0.015 0.648408,0.016 0.2256,-4e-4 0.451062,-0.01 0.675781,-0.016 0.143044,-0.01 0.285674,-0.016 0.427735,-0.027 0.121496,-0.01 0.242622,-0.017 0.363281,-0.027 0.132901,-0.013 0.265105,-0.028 0.396484,-0.045 0.135006,-0.016 0.269166,-0.033 0.402344,-0.053 0.102858,-0.015 0.205092,-0.031 0.306641,-0.049 0.153356,-0.026 0.305118,-0.054 0.455078,-0.084 0.105815,-0.022 0.210657,-0.046 0.314453,-0.07 0.131877,-0.029 0.262133,-0.061 0.390625,-0.094 0.118887,-0.032 0.236112,-0.066 0.351562,-0.1016 0.110953,-0.032 0.220359,-0.065 0.328125,-0.1 0.114709,-0.039 0.227378,-0.079 0.337891,-0.1211 0.105444,-0.038 0.20899,-0.078 0.310547,-0.1191 0.101056,-0.042 0.200044,-0.085 0.296875,-0.1289 0.10129,-0.045 0.20028,-0.091 0.296875,-0.1387 0.09358,-0.048 0.184752,-0.097 0.273437,-0.1465 0.09038,-0.049 0.178302,-0.099 0.263672,-0.1504 0.07509,-0.047 0.148026,-0.095 0.21875,-0.1445 0.0935,-0.062 0.183378,-0.125 0.269532,-0.1895 0.05226,-0.04 0.10305,-0.082 0.152343,-0.123 0.08857,-0.072 0.172592,-0.1445 0.251953,-0.2188 0.046,-0.045 0.09028,-0.091 0.132813,-0.1367 0.07246,-0.075 0.140196,-0.1513 0.203125,-0.2285 0.0363,-0.047 0.07082,-0.095 0.103516,-0.1426 0.05616,-0.077 0.10762,-0.1542 0.154296,-0.2324 0.02955,-0.053 0.0569,-0.1065 0.08203,-0.1602 0.03736,-0.073 0.07058,-0.1466 0.09961,-0.2207 0.02007,-0.057 0.03765,-0.1144 0.05273,-0.1718 0.02356,-0.079 0.04245,-0.1573 0.05664,-0.2364 0.01722,-0.099 0.02699,-0.199 0.0293,-0.2988 h 0.002 l -0.002,-0.01 0.002,-0.012 -8,-12 z"
     fill="url(#c)"
     id="path26"
     style="fill:#00ffff;fill-opacity:1" />
  <path
     d="m 38,39.0018 v 0.014 0.012 h 0.002 c 0.03055,2.1979 3.602124,3.9717 7.998,3.9722 4.397753,-5e-4 7.970121,-1.7758 7.998047,-3.9746 h 0.002 l -0.002,-0.014 0.002,-0.012 -7.000047,-29.9994 c 0,0 -9,30 -9,30.0018 z"
     fill="url(#e)"
     id="path28"
     style="fill:#00ff00;fill-opacity:1" />
  <path
     d="m 36,44.9752 v 0.014 0.012 h 0.002 c 0.02793,2.1988 3.600294,3.9741 7.998047,3.9746 4.397753,-5e-4 7.970121,-1.7758 7.998047,-3.9746 h 0.002 l -0.002,-0.014 0.002,-0.012 -7.998141,-15.9752 c 0,0 -8,16 -8.001953,15.9752 z"
     fill="url(#d)"
     id="path30"
     style="fill:#00ffff;fill-opacity:1" />
</svg>
