<?xml version="1.0" encoding="UTF-8" standalone="no"?>
<svg
   height="52"
   viewBox="0 0 60 52"
   width="60"
   version="1.1"
   id="svg92"
   sodipodi:docname="netlinepointstack_52x60.svg"
   inkscape:version="1.1.2 (76b9e6a115, 2022-02-25)"
   xmlns:inkscape="http://www.inkscape.org/namespaces/inkscape"
   xmlns:sodipodi="http://sodipodi.sourceforge.net/DTD/sodipodi-0.dtd"
   xmlns="http://www.w3.org/2000/svg"
   xmlns:svg="http://www.w3.org/2000/svg">
  <defs
     id="defs96" />
  <sodipodi:namedview
     id="namedview94"
     pagecolor="#ffffff"
     bordercolor="#666666"
     borderopacity="1.0"
     inkscape:pageshadow="2"
     inkscape:pageopacity="0.0"
     inkscape:pagecheckerboard="0"
     showgrid="false"
     inkscape:zoom="15.038462"
     inkscape:cx="33.746802"
     inkscape:cy="23.705882"
     inkscape:window-width="1852"
     inkscape:window-height="1016"
     inkscape:window-x="0"
     inkscape:window-y="0"
     inkscape:window-maximized="1"
     inkscape:current-layer="svg92" />
  <path
     d="M 0,0 H 60 V 52 H 0 Z"
     fill="#ffffff"
     id="path2" />
  <path
     d="m 19.5,23.5 9.99965,-8.9997 14,6.9997 -5,17.0003 -16,-2 z"
     fill="none"
     stroke="#e95420"
     id="path4"
     style="stroke:#00ff00" />
  <path
     d="m 19.5,23.5 9.99965,-8.9997 14,6.9997 -5,17.0003 -16,-2 z"
     fill="none"
     stroke="#e95420"
     id="path214"
     style="stroke:#ffffff;opacity:0.4" />
  <path
     d="m 10.5,18.4997 18.99955,-10 19,10 -6,24.0003 H 16.5 Z"
     fill="none"
     stroke="#77216f"
     id="path6"
     style="stroke:#00ff00" />
  <path
     d="M 29,6 V 28.6328 L 9.83203,17.5664 9.33203,18.4336 28.5,29.5 v 0.293 L 12.88281,45.4102 13.58984,46.1172 29.5,30.207 45.41016,46.1172 46.11719,45.4102 30.5,29.793 V 29.5 l 19.16797,-11.0664 -0.5,-0.8672 L 30,28.6328 V 6 Z"
     fill="#232629"
     id="path8" />
  <g
     fill="#e95420"
     id="g18"
     transform="translate(0,-1000.3622)"
     style="fill:#00ff00">
    <path
       d="m 19,1024.3622 h 1 v 1 h -1 z"
       id="path10"
       style="fill:#00ff00" />
    <path
       d="m 20,1023.3622 h 1 v 1 h -1 z"
       id="path12"
       style="fill:#00ff00" />
    <path
       d="m 19,1022.3622 h 1 v 1 h -1 z"
       id="path14"
       style="fill:#00ff00" />
    <path
       d="m 18,1023.3622 h 1 v 1 h -1 z"
       id="path16"
       style="fill:#00ff00" />
  </g>
  <path
     d="m 19,23 h 1 v 1 h -1 z"
     fill="#ffffff"
     id="path20" />
  <path
     d="m 47,17 h 3 v 3 h -3 z"
     fill="#77216f"
     id="path22"
     style="fill:#00ff00" />
  <path
     d="m 48,18 h 1 v 1 h -1 z"
     fill="#ffffff"
     id="path24" />
  <path
     d="m 41,41 h 3 v 3 h -3 z"
     fill="#77216f"
     id="path26"
     style="fill:#00ff00" />
  <path
     d="m 42,42 h 1 v 1 h -1 z"
     fill="#ffffff"
     id="path28" />
  <path
     d="m 15,41 h 3 v 3 h -3 z"
     fill="#77216f"
     id="path30"
     style="fill:#00ff00" />
  <path
     d="m 16,42 h 1 v 1 h -1 z"
     fill="#ffffff"
     id="path32" />
  <path
     d="m 9,17 h 3 v 3 H 9 Z"
     fill="#77216f"
     id="path34"
     style="fill:#00ff00" />
  <path
     d="m 10,18 h 1 v 1 h -1 z"
     fill="#ffffff"
     id="path36" />
  <path
     d="m 28,7 h 3 v 3 h -3 z"
     fill="#77216f"
     id="path38"
     style="fill:#00ff00" />
  <path
     d="m 29,8 h 1 v 1 h -1 z"
     fill="#ffffff"
     id="path40" />
  <g
     fill="#e95420"
     id="g50"
     transform="translate(0,-1000.3622)"
     style="fill:#00ff00">
    <path
       d="m 29,1015.3622 h 1 v 1 h -1 z"
       id="path42"
       style="fill:#00ff00" />
    <path
       d="m 30,1014.3622 h 1 v 1 h -1 z"
       id="path44"
       style="fill:#00ff00" />
    <path
       d="m 29,1013.3622 h 1 v 1 h -1 z"
       id="path46"
       style="fill:#00ff00" />
    <path
       d="m 28,1014.3622 h 1 v 1 h -1 z"
       id="path48"
       style="fill:#00ff00" />
  </g>
  <path
     d="m 29,14 h 1 v 1 h -1 z"
     fill="#ffffff"
     id="path52" />
  <g
     fill="#e95420"
     id="g62"
     transform="translate(0,-1000.3622)"
     style="fill:#00ff00">
    <path
       d="m 43,1022.3622 h 1 v 1 h -1 z"
       id="path54"
       style="fill:#00ff00" />
    <path
       d="m 44,1021.3622 h 1 v 1 h -1 z"
       id="path56"
       style="fill:#00ff00" />
    <path
       d="m 43,1020.3622 h 1 v 1 h -1 z"
       id="path58"
       style="fill:#00ff00" />
    <path
       d="m 42,1021.3622 h 1 v 1 h -1 z"
       id="path60"
       style="fill:#00ff00" />
  </g>
  <path
     d="m 43,21 h 1 v 1 h -1 z"
     fill="#ffffff"
     id="path64" />
  <g
     fill="#e95420"
     id="g74"
     transform="translate(0,-1000.3622)"
     style="fill:#00ff00">
    <path
       d="m 38,1039.3622 h 1 v 1 h -1 z"
       id="path66"
       style="fill:#00ff00" />
    <path
       d="m 39,1038.3622 h 1 v 1 h -1 z"
       id="path68"
       style="fill:#00ff00" />
    <path
       d="m 38,1037.3622 h 1 v 1 h -1 z"
       id="path70"
       style="fill:#00ff00" />
    <path
       d="m 37,1038.3622 h 1 v 1 h -1 z"
       id="path72"
       style="fill:#00ff00" />
  </g>
  <path
     d="m 38,38 h 1 v 1 h -1 z"
     fill="#ffffff"
     id="path76" />
  <g
     fill="#e95420"
     id="g86"
     transform="translate(0,-1000.3622)"
     style="fill:#00ff00">
    <path
       d="m 22,1037.3622 h 1 v 1 h -1 z"
       id="path78"
       style="fill:#00ff00" />
    <path
       d="m 23,1036.3622 h 1 v 1 h -1 z"
       id="path80"
       style="fill:#00ff00" />
    <path
       d="m 22,1035.3622 h 1 v 1 h -1 z"
       id="path82"
       style="fill:#00ff00" />
    <path
       d="m 21,1036.3622 h 1 v 1 h -1 z"
       id="path84"
       style="fill:#00ff00" />
  </g>
  <path
     d="m 22,36 h 1 v 1 h -1 z"
     fill="#ffffff"
     id="path88" />
  <g
     fill="#e95420"
     id="g314"
     transform="translate(0,-1000.3622)"
     style="fill:#ffffff;opacity:0.4">
    <path
       d="m 19,1024.3622 h 1 v 1 h -1 z"
       id="path306"
       style="fill:#ffffff" />
    <path
       d="m 20,1023.3622 h 1 v 1 h -1 z"
       id="path308"
       style="fill:#ffffff" />
    <path
       d="m 19,1022.3622 h 1 v 1 h -1 z"
       id="path310"
       style="fill:#ffffff" />
    <path
       d="m 18,1023.3622 h 1 v 1 h -1 z"
       id="path312"
       style="fill:#ffffff" />
  </g>
  <g
     fill="#e95420"
     id="g324"
     transform="translate(0,-1000.3622)"
     style="fill:#ffffff;opacity:0.4">
    <path
       d="m 29,1015.3622 h 1 v 1 h -1 z"
       id="path316"
       style="fill:#ffffff" />
    <path
       d="m 30,1014.3622 h 1 v 1 h -1 z"
       id="path318"
       style="fill:#ffffff" />
    <path
       d="m 29,1013.3622 h 1 v 1 h -1 z"
       id="path320"
       style="fill:#ffffff" />
    <path
       d="m 28,1014.3622 h 1 v 1 h -1 z"
       id="path322"
       style="fill:#ffffff" />
  </g>
  <g
     fill="#e95420"
     id="g334"
     transform="translate(0,-1000.3622)"
     style="fill:#ffffff;opacity:0.4">
    <path
       d="m 43,1022.3622 h 1 v 1 h -1 z"
       id="path326"
       style="fill:#ffffff" />
    <path
       d="m 44,1021.3622 h 1 v 1 h -1 z"
       id="path328"
       style="fill:#ffffff" />
    <path
       d="m 43,1020.3622 h 1 v 1 h -1 z"
       id="path330"
       style="fill:#ffffff" />
    <path
       d="m 42,1021.3622 h 1 v 1 h -1 z"
       id="path332"
       style="fill:#ffffff" />
  </g>
  <g
     fill="#e95420"
     id="g344"
     transform="translate(0,-1000.3622)"
     style="fill:#ffffff;opacity:0.4">
    <path
       d="m 38,1039.3622 h 1 v 1 h -1 z"
       id="path336"
       style="fill:#ffffff" />
    <path
       d="m 39,1038.3622 h 1 v 1 h -1 z"
       id="path338"
       style="fill:#ffffff" />
    <path
       d="m 38,1037.3622 h 1 v 1 h -1 z"
       id="path340"
       style="fill:#ffffff" />
    <path
       d="m 37,1038.3622 h 1 v 1 h -1 z"
       id="path342"
       style="fill:#ffffff" />
  </g>
  <g
     fill="#e95420"
     id="g354"
     transform="translate(0,-1000.3622)"
     style="fill:#ffffff;opacity:0.4">
    <path
       d="m 22,1037.3622 h 1 v 1 h -1 z"
       id="path346"
       style="fill:#ffffff" />
    <path
       d="m 23,1036.3622 h 1 v 1 h -1 z"
       id="path348"
       style="fill:#ffffff" />
    <path
       d="m 22,1035.3622 h 1 v 1 h -1 z"
       id="path350"
       style="fill:#ffffff" />
    <path
       d="m 21,1036.3622 h 1 v 1 h -1 z"
       id="path352"
       style="fill:#ffffff" />
  </g>
</svg>
