<?xml version="1.0" encoding="UTF-8" standalone="no"?>
<svg
   xmlns:dc="http://purl.org/dc/elements/1.1/"
   xmlns:cc="http://creativecommons.org/ns#"
   xmlns:rdf="http://www.w3.org/1999/02/22-rdf-syntax-ns#"
   xmlns:svg="http://www.w3.org/2000/svg"
   xmlns="http://www.w3.org/2000/svg"
   xmlns:sodipodi="http://sodipodi.sourceforge.net/DTD/sodipodi-0.dtd"
   xmlns:inkscape="http://www.inkscape.org/namespaces/inkscape"
   height="52"
   viewBox="0 0 60 52"
   width="60"
   version="1.1"
   id="svg28"
   sodipodi:docname="nostacksmooth3d_52x60.svg"
   inkscape:version="1.0.1 (3bc2e813f5, 2020-09-07)">
  <metadata
     id="metadata34">
    <rdf:RDF>
      <cc:Work
         rdf:about="">
        <dc:format>image/svg+xml</dc:format>
        <dc:type
           rdf:resource="http://purl.org/dc/dcmitype/StillImage" />
      </cc:Work>
    </rdf:RDF>
  </metadata>
  <defs
     id="defs32" />
  <sodipodi:namedview
     pagecolor="#ffffff"
     bordercolor="#666666"
     borderopacity="1"
     objecttolerance="10"
     gridtolerance="10"
     guidetolerance="10"
     inkscape:pageopacity="0"
     inkscape:pageshadow="2"
     inkscape:window-width="1920"
     inkscape:window-height="1016"
     id="namedview30"
     showgrid="false"
     inkscape:zoom="8.4615385"
     inkscape:cx="31.577433"
     inkscape:cy="0.81134"
     inkscape:window-x="1920"
     inkscape:window-y="27"
     inkscape:window-maximized="1"
     inkscape:current-layer="svg28" />
  <path
     d="m 0,0 h 60 v 52 h -60 z"
     fill="#ffffff"
     id="path2" />
  <path
     d="m 3,45 h 52 v 1 h -52 z"
     fill="#232629"
     id="path4" />
  <path
     d="m 6,3 h 1 v 46 h -1 z"
     fill="#232629"
     id="path6" />
  <path
     d="m 14.191012,8.3026 c 2.67049,-1.7827 2.499239,-3.224 14.505416,-5.3249 l -2.977678,2.9554 c -5.352462,0.2904 -9.796702,2.9018 -14.433036,5.0223 z"
     fill="#987197"
     id="path8"
     style="fill:#b87ab2;fill-opacity:1" />
  <path
     d="m 28.636161,3 c 0.296617,0.056 0.64829,0.8063 0.798395,1.1128 4.785238,9.7691 8.4813,21.6967 14.181516,28.5523 l -3.044643,3.134 c -5.004531,2.1235 -7.727959,-16.6976 -11.550626,-25.4257 l -3.35116,-4.4404 z"
     fill="#945c93"
     id="path10"
     style="fill:#a6599f;fill-opacity:1" />
  <path
     d="m 43.580357,32.6429 c 2.052547,0.8045 4.523334,-3.083 7.426191,-5.2199 l 0.145238,0.1651 c -4.084418,10.178 -7.65624,9.2284 -10.928572,8.5013 z"
     fill="#987197"
     id="path12"
     style="fill:#b87ab2;fill-opacity:1" />
  <path
     d="m 44.294643,5.9465 c 5.607757,1.2825 8.725065,5.0447 10.674175,7.513 l -3.126269,1.9267 c -2.509271,-2.9346 -5.23644,-5.9777 -10.547906,-6.4397 z"
     fill="#fe865c"
     id="path14"
     style="fill:#f39472;fill-opacity:1" />
  <path
     d="m 20.433036,30.2321 c 0.951511,-0.5147 1.602952,-0.1216 2.352266,-0.8031 0.831671,-0.7564 1.68831,-1.1758 2.44683,-1.9476 10.039671,-10.2147 13.887561,-21.6635 19.053132,-21.5528 l -2.842164,3.0632 -3.681662,2.42 c -5.771669,6.2147 -11.543339,13.1412 -17.315009,18.3828 z"
     fill="#fe865c"
     id="path16"
     style="fill:#f39472;fill-opacity:1" />
  <path
     d="m 15.776084,19.4088 7.793237,7.43 -3.12627,3.2526 c -5.538474,-0.169 -7.407492,-4.0075 -8.466052,-8.6565 z"
     fill="#fe865c"
     id="path18"
     style="fill:#f39472;fill-opacity:1" />
  <g
     fill="none"
     id="g24"
     transform="translate(0,-1000.3622)">
    <path
       d="m 11.49996,1011.7622 c 0,0 6.513892,-8.0078 14,-4.9998 7.486108,3.008 7.23191,28.3163 15,30 7.76809,1.6837 11.00004,-8.9002 11.00004,-8.9002"
       stroke="#77216f"
       id="path20" />
    <path
       d="m 11.499553,1021.8618 c 0,0 1.928927,8.9999 9,9 7.071073,1e-4 14.158785,-20.1574 21.000447,-20.9996 6.841662,-0.8422 9.999553,5.9996 9.999553,5.9996"
       stroke="#e95420"
       id="path22" />
  </g>
</svg>
