<?xml version="1.0" encoding="UTF-8" standalone="no"?>
<svg
   height="52"
   viewBox="0 0 60 52"
   width="60"
   version="1.1"
   id="svg7"
   sodipodi:docname="pieofpie_52x60.svg"
   inkscape:version="1.3 (1:1.3+202307231459+0e150ed6c4)"
   xmlns:inkscape="http://www.inkscape.org/namespaces/inkscape"
   xmlns:sodipodi="http://sodipodi.sourceforge.net/DTD/sodipodi-0.dtd"
   xmlns="http://www.w3.org/2000/svg"
   xmlns:svg="http://www.w3.org/2000/svg">
  <defs
     id="defs7" />
  <sodipodi:namedview
     id="namedview7"
     pagecolor="#ffffff"
     bordercolor="#666666"
     borderopacity="1.0"
     inkscape:showpageshadow="2"
     inkscape:pageopacity="0.0"
     inkscape:pagecheckerboard="0"
     inkscape:deskcolor="#d1d1d1"
     inkscape:zoom="10.103485"
     inkscape:cx="28.702967"
     inkscape:cy="19.003344"
     inkscape:window-width="1920"
     inkscape:window-height="1011"
     inkscape:window-x="0"
     inkscape:window-y="0"
     inkscape:window-maximized="1"
     inkscape:current-layer="svg7" />
  <path
     d="m0 0h60v52h-60z"
     fill="#fff"
     id="path1" />
  <path
     d="m24.859375 14.417969-7.859375 11.582031h-14c0 7.731978 6.2680212 14 14 14 1.894869-.0068 3.768647-.398141 5.507812-1.150391a14 14 0 0 0 8.492188-12.849609 14 14 0 0 0 -6.140625-11.582031zm-2.351563 24.43164c.245035-.104855.482072-.222297.71875-.339843-.236317.120062-.475998.233389-.71875.339843z"
     fill="#f73062"
     id="path2"
     style="fill:#77216f;fill-opacity:1.0" />
  <path
     d="m 21.597656,12.794922 c 1.158054,0.403082 2.265804,0.948158 3.279297,1.638672 l 20.736328,3.939453 a 8,8 0 0 1 2.386719,-0.373047 a 8,8 0 0 1 0.992188,0.06445 l 0.0078,-0.06445 z"
     fill="#232629"
     id="path3" />
  <path
     d="m 45.308594,33.513672 l -20.429688,4.02539 c -0.77748,0.531378 -1.603808,0.989837 -2.472656,1.353516 c -0.0084,0.0035 -0.01697,0.0045 -0.02539,0.0078 c -0.264107,0.111274 -0.532946,0.210072 -0.802734,0.304687 l 26.421874,-5.205065 a 8,8 0 0 1 -2.691406,-0.486328 z"
     fill="#232629"
     id="path4" />
  <path
     d="m 48,18.001953 v 7.998047 l 6.158203,5.072266 c 1.148484,-1.393176 1.835734,-3.169044 1.839844,-5.070313 v -0.002 c 0,-4.394975 -3.603964,-7.998047 -7.998047,-7.998047 z"
     fill="#1abc9c"
     id="path5"
     style="fill:#80a3fa;fill-opacity:1.0" />
  <path
     d="m17 12a14 14 0 0 0 -14 14h14l7.859375-11.582031a14 14 0 0 0 -7.859375-2.417969z"
     fill="#1daff8"
     id="path6"
     style="fill:#e95420;fill-opacity:1.0" />
  <path
     d="m 48,18.001953 c -0.0098,0.0012 -0.01955,0.0025 -0.0293,0.0039 c -4.390057,0.01597 -7.964844,3.60045 -7.964844,7.994141 c 0,4.403515 3.590626,7.994141 7.994141,7.994141 h 0.002 c 2.500574,-0.0044 4.699831,-1.155158 6.15625,-2.921875 l -6.158247,-5.07226 z"
     fill="#9b59b6"
     id="path7"
     style="fill:#a6d74f;fill-opacity:1" />
</svg>
