<?xml version="1.0" encoding="UTF-8" standalone="no"?>
<svg
   height="30"
   viewBox="0 0 15 17.307692"
   width="30"
   version="1.1"
   id="svg22"
   sodipodi:docname="reglin.svg"
   inkscape:version="1.1.2 (76b9e6a115, 2022-02-25)"
   xmlns:inkscape="http://www.inkscape.org/namespaces/inkscape"
   xmlns:sodipodi="http://sodipodi.sourceforge.net/DTD/sodipodi-0.dtd"
   xmlns="http://www.w3.org/2000/svg"
   xmlns:svg="http://www.w3.org/2000/svg">
  <defs
     id="defs26" />
  <sodipodi:namedview
     id="namedview24"
     pagecolor="#ffffff"
     bordercolor="#666666"
     borderopacity="1.0"
     inkscape:pageshadow="2"
     inkscape:pageopacity="0.0"
     inkscape:pagecheckerboard="0"
     showgrid="false"
     inkscape:zoom="26.066667"
     inkscape:cx="14.980818"
     inkscape:cy="14.980818"
     inkscape:window-width="1852"
     inkscape:window-height="1016"
     inkscape:window-x="0"
     inkscape:window-y="0"
     inkscape:window-maximized="1"
     inkscape:current-layer="svg22" />
  <path
     d="m.000001 1.153846h14.999999v15h-14.999999z"
     fill="#fff"
     id="path2" />
  <path
     d="m1 1v28h28v-28zm1 1h26v26h-26z"
     fill="#232629"
     transform="matrix(.57692303 0 0 .57692307 -1.153846 0)"
     id="path4" />
  <g
     fill="#77216f"
     id="g18"
     style="fill:#00ff00">
    <path
       d="m.576924 12.692308h1.153846v1.153846h-1.153846z"
       id="path6"
       style="fill:#00ff00" />
    <path
       d="m4.0384618 12.115385h1.153846v1.153846h-1.153846z"
       id="path8"
       style="fill:#00ff00" />
    <path
       d="m5.1923078 8.6538462h1.153846v1.1538457h-1.153846z"
       id="path10"
       style="fill:#00ff00" />
    <path
       d="m8.653846 8.6538462h1.1538459v1.1538457h-1.1538459z"
       id="path12"
       style="fill:#00ff00" />
    <path
       d="m9.8076921 5.1923077h1.1538459v1.1538461h-1.1538459z"
       id="path14"
       style="fill:#00ff00" />
    <path
       d="m12.692307 2.3076923h1.153846v1.1538461h-1.153846z"
       id="path16"
       style="fill:#00ff00" />
  </g>
  <path
     d="m28 5.9023438-.273438.1777343-25.726562 16.8222659v1.193359l.2734375-.177734 25.7265625-16.8183596z"
     fill="#e95420"
     fill-rule="evenodd"
     transform="matrix(.57692303 0 0 .57692307 -1.153846 0)"
     id="path20"
     style="fill:#00ff00" />
  <path
     d="m28 5.9023438-.273438.1777343-25.726562 16.8222659v1.193359l.2734375-.177734 25.7265625-16.8183596z"
     fill="#e95420"
     fill-rule="evenodd"
     transform="matrix(.57692303 0 0 .57692307 -1.153846 0)"
     id="path64"
     style="fill:#ffffff;opacity:0.4" />
</svg>
