<?xml version="1.0" encoding="UTF-8" standalone="no"?>
<svg
   height="30"
   viewBox="0 0 15 17.307692"
   width="30"
   version="1.1"
   id="svg22"
   sodipodi:docname="reglog.svg"
   inkscape:version="1.1.2 (76b9e6a115, 2022-02-25)"
   xmlns:inkscape="http://www.inkscape.org/namespaces/inkscape"
   xmlns:sodipodi="http://sodipodi.sourceforge.net/DTD/sodipodi-0.dtd"
   xmlns="http://www.w3.org/2000/svg"
   xmlns:svg="http://www.w3.org/2000/svg">
  <defs
     id="defs26" />
  <sodipodi:namedview
     id="namedview24"
     pagecolor="#ffffff"
     bordercolor="#666666"
     borderopacity="1.0"
     inkscape:pageshadow="2"
     inkscape:pageopacity="0.0"
     inkscape:pagecheckerboard="0"
     showgrid="false"
     inkscape:zoom="26.066667"
     inkscape:cx="14.980818"
     inkscape:cy="14.980818"
     inkscape:window-width="1852"
     inkscape:window-height="1016"
     inkscape:window-x="0"
     inkscape:window-y="0"
     inkscape:window-maximized="1"
     inkscape:current-layer="svg22" />
  <path
     d="m.000001 1.153846h14.999999v15h-14.999999z"
     fill="#fff"
     id="path2" />
  <path
     d="m1 1v28h28v-28zm1 1h26v26h-26z"
     fill="#232629"
     transform="matrix(.57692303 0 0 .57692307 -1.153846 0)"
     id="path4" />
  <g
     fill="#77216f"
     id="g18"
     style="fill:#00ff00">
    <path
       d="m.576924 13.269231h1.153846v1.153846h-1.153846z"
       id="path6"
       style="fill:#00ff00" />
    <path
       d="m2.8846157 10.384615h1.153846v1.153846h-1.153846z"
       id="path8"
       style="fill:#00ff00" />
    <path
       d="m3.4615387 6.346154h1.153846v1.1538457h-1.153846z"
       id="path10"
       style="fill:#00ff00" />
    <path
       d="m7.4999999 6.346154h1.1538459v1.1538457h-1.1538459z"
       id="path12"
       style="fill:#00ff00" />
    <path
       d="m8.653846 2.8846155h1.1538459v1.1538461h-1.1538459z"
       id="path14"
       style="fill:#00ff00" />
    <path
       d="m12.692307 3.4615384h1.153846v1.1538461h-1.153846z"
       id="path16"
       style="fill:#00ff00" />
  </g>
  <path
     d="m1.4423081 16.153846c.0042303-6.3461538 6.0576919-13.0577169 13.5576909-12.9807691"
     fill="none"
     stroke="#e95420"
     stroke-width=".576923"
     id="path20"
     style="stroke:#00ff00" />
  <path
     d="m1.4423081 16.153846c.0042303-6.3461538 6.0576919-13.0577169 13.5576909-12.9807691"
     fill="none"
     stroke="#e95420"
     stroke-width=".576923"
     id="path64"
     style="stroke:#ffffff;opacity:0.4" />
</svg>
