<?xml version="1.0" encoding="UTF-8" standalone="no"?>
<svg
   height="52"
   viewBox="0 0 60 52"
   width="60"
   version="1.1"
   id="svg14"
   sodipodi:docname="stacksteppedlines_52x60.svg"
   inkscape:version="1.1.2 (76b9e6a115, 2022-02-25)"
   xmlns:inkscape="http://www.inkscape.org/namespaces/inkscape"
   xmlns:sodipodi="http://sodipodi.sourceforge.net/DTD/sodipodi-0.dtd"
   xmlns="http://www.w3.org/2000/svg"
   xmlns:svg="http://www.w3.org/2000/svg">
  <defs
     id="defs18" />
  <sodipodi:namedview
     id="namedview16"
     pagecolor="#ffffff"
     bordercolor="#666666"
     borderopacity="1.0"
     inkscape:pageshadow="2"
     inkscape:pageopacity="0.0"
     inkscape:pagecheckerboard="0"
     showgrid="false"
     inkscape:zoom="15.038462"
     inkscape:cx="30.023018"
     inkscape:cy="25.966752"
     inkscape:window-width="1852"
     inkscape:window-height="1016"
     inkscape:window-x="0"
     inkscape:window-y="0"
     inkscape:window-maximized="1"
     inkscape:current-layer="svg14" />
  <path
     d="M 0,0 H 60 V 52 H 0 Z"
     fill="#ffffff"
     id="path2" />
  <path
     d="m 3,45 h 52 v 1 H 3 Z"
     fill="#232629"
     id="path4" />
  <path
     d="M 6,3 H 7 V 49 H 6 Z"
     fill="#232629"
     id="path6" />
  <path
     d="m 36,24.9991 v 4 H 23 v 8 L 11,37 v 1 l 13,-9e-4 v -8 h 13 v -4 L 50,26 v -1 z"
     fill="#e95420"
     fill-rule="evenodd"
     id="path8"
     style="fill:#00ff00" />
  <path
     d="m 49,6 v 9 H 37 V 12 11 H 24 23 V 23 H 11 v 1 H 24 V 23 12 h 12 v 4 h 1 12 1 V 15 6 Z"
     fill="#77216f"
     id="path10"
     style="fill:#00ff00" />
  <path
     d="m 36,24.9991 v 4 H 23 v 8 L 11,37 v 1 l 13,-9e-4 v -8 h 13 v -4 L 50,26 v -1 z"
     fill="#e95420"
     fill-rule="evenodd"
     id="path43"
     style="fill:#ffffff;opacity:0.4" />
</svg>
