<?xml version="1.0" encoding="UTF-8" standalone="no"?>
<svg
   height="30"
   viewBox="0 0 15 17.307692"
   width="30"
   version="1.1"
   id="svg16"
   sodipodi:docname="step_center_x_30.svg"
   inkscape:version="1.1.2 (76b9e6a115, 2022-02-25)"
   xmlns:inkscape="http://www.inkscape.org/namespaces/inkscape"
   xmlns:sodipodi="http://sodipodi.sourceforge.net/DTD/sodipodi-0.dtd"
   xmlns="http://www.w3.org/2000/svg"
   xmlns:svg="http://www.w3.org/2000/svg">
  <defs
     id="defs20" />
  <sodipodi:namedview
     id="namedview18"
     pagecolor="#ffffff"
     bordercolor="#666666"
     borderopacity="1.0"
     inkscape:pageshadow="2"
     inkscape:pageopacity="0.0"
     inkscape:pagecheckerboard="0"
     showgrid="false"
     inkscape:zoom="25.7"
     inkscape:cx="15"
     inkscape:cy="14.980545"
     inkscape:window-width="1920"
     inkscape:window-height="1043"
     inkscape:window-x="1920"
     inkscape:window-y="0"
     inkscape:window-maximized="1"
     inkscape:current-layer="svg16" />
  <path
     d="m.0000011 16.153846h14.9999989v-15h-14.9999989z"
     fill="#fff"
     id="path2" />
  <path
     d="m-.57692287 16.730769v-16.15384603h16.15384487v16.15384603zm.57692303-.576923h14.99999884v-15h-14.99999884z"
     fill="#232629"
     id="path4" />
  <g
     fill="#77216f"
     id="g14"
     style="fill:#00ff00">
    <path
       d="m4 21v3h3v-3zm1 1h1v1h-1z"
       transform="matrix(.57692303 0 0 .57692307 -1.153846 0)"
       id="path6"
       style="fill:#00ff00" />
    <path
       d="m11.538461 10.961538v1.73077h1.730769v-1.73077zm.576923.576923h.576923v.576923h-.576923z"
       id="path8"
       style="fill:#00ff00" />
    <path
       d="m6.9230769 4.0384614v1.7307692h1.7307691v-1.7307692zm.5769231.5769231h.576923v.576923h-.576923z"
       id="path10"
       style="fill:#00ff00" />
    <path
       d="m10 8v14h-2v1h3v-1-13h2v-1h-2zm8 0v1h1v12h1 1v-1h-1v-11-1z"
       transform="matrix(.57692303 0 0 .57692307 -1.153846 0)"
       id="path12"
       style="fill:#00ff00" />
  </g>
</svg>
