<?xml version="1.0" encoding="UTF-8" standalone="no"?>
<svg
   viewBox="0 0 16 16"
   version="1.1"
   id="svg6"
   sodipodi:docname="typestock_16.svg"
   inkscape:version="1.1.2 (76b9e6a115, 2022-02-25)"
   xmlns:inkscape="http://www.inkscape.org/namespaces/inkscape"
   xmlns:sodipodi="http://sodipodi.sourceforge.net/DTD/sodipodi-0.dtd"
   xmlns="http://www.w3.org/2000/svg"
   xmlns:svg="http://www.w3.org/2000/svg"
   xmlns:rdf="http://www.w3.org/1999/02/22-rdf-syntax-ns#"
   xmlns:cc="http://creativecommons.org/ns#"
   xmlns:dc="http://purl.org/dc/elements/1.1/">
  <metadata
     id="metadata12">
    <rdf:RDF>
      <cc:Work
         rdf:about="">
        <dc:format>image/svg+xml</dc:format>
        <dc:type
           rdf:resource="http://purl.org/dc/dcmitype/StillImage" />
      </cc:Work>
    </rdf:RDF>
  </metadata>
  <defs
     id="defs10" />
  <sodipodi:namedview
     pagecolor="#ffffff"
     bordercolor="#666666"
     borderopacity="1"
     objecttolerance="10"
     gridtolerance="10"
     guidetolerance="10"
     inkscape:pageopacity="0"
     inkscape:pageshadow="2"
     inkscape:window-width="1920"
     inkscape:window-height="1043"
     id="namedview8"
     showgrid="false"
     inkscape:zoom="55"
     inkscape:cx="8.0090909"
     inkscape:cy="8"
     inkscape:window-x="1920"
     inkscape:window-y="0"
     inkscape:window-maximized="1"
     inkscape:current-layer="svg6"
     inkscape:pagecheckerboard="0" />
  <rect
     style="opacity:1;fill:#ffffff;fill-rule:evenodd;stroke:none;stroke-width:2;stroke-linejoin:round"
     id="rect837"
     width="16"
     height="16"
     x="0"
     y="0"
     ry="1.5"
     rx="2" />
  <path
     d="m2 2v11h-1v1h1v1h1v-1h7 2 2v-1h-2v-8h-2v8h-1v-4h-2v4h-1v-6h-2v6h-1v-11z"
     fill="#232629"
     id="path2" />
  <path
     d="m10 1v3h1v-1h1v-1h-1v-1zm-6 2v3h1v-1h1v-1h-1v-1zm3 2v3h1v-1h1v-1h-1v-1z"
     fill="#77216f"
     id="path4"
     style="fill:#00ff00" />
</svg>
