<svg xmlns="http://www.w3.org/2000/svg" xmlns:xlink="http://www.w3.org/1999/xlink" viewBox="0 0 24 24"><defs><linearGradient id="a"><stop offset="0" stop-color="#151515"/><stop offset="1" stop-color="#4d4d4d"/></linearGradient><linearGradient xlink:href="#a" id="b" x1="12" y1="3" x2="12" y2="21" gradientUnits="userSpaceOnUse"/></defs><path d="M7 3v15h3v-6h4a4 4.5 0 004-4.5A4 4.5 0 0014 3H7zm3 3h3a2 1.5 0 012 1.5A2 1.5 0 0113 9h-3V6z" fill-rule="evenodd" stroke="#fff" stroke-width="2" stroke-linecap="round" stroke-linejoin="round"/><path d="M5 20v1h14v-1z" stroke="#fff" stroke-width="2" stroke-linejoin="round"/><path d="M7 3v15h3v-6h4a4 4.5 0 004-4.5A4 4.5 0 0014 3H7zm3 3h3a2 1.5 0 012 1.5A2 1.5 0 0113 9h-3V6zM5 20v1h14v-1H5z" fill="url(#b)"/></svg>