<svg xmlns="http://www.w3.org/2000/svg" viewBox="0 0 24 24"><path d="M7 3v15h3v-6h4a4 4.5 0 004-4.5A4 4.5 0 0014 3H7zm3 3h3a2 1.5 0 012 1.5A2 1.5 0 0113 9h-3V6z" opacity=".6" fill-rule="evenodd" stroke="#000" stroke-width="2" stroke-linecap="round" stroke-linejoin="round"/><path d="M5 20v1h14v-1z" opacity=".6" stroke="#000" stroke-width="2" stroke-linejoin="round"/><path d="M5 20v1h14v-1z" fill="#fff"/><path d="M7 3v15h3v-6h4a4 4.5 0 004-4.5A4 4.5 0 0014 3H7zm3 3h3a2 1.5 0 012 1.5A2 1.5 0 0113 9h-3V6z" fill="#fff" fill-rule="evenodd"/></svg>