<svg xmlns="http://www.w3.org/2000/svg" viewBox="0 0 16 16"><path d="M4 1v11h2V8h3c1.657 0 3-1.567 3-3.5S10.657 1 9 1H5zm2 2h2a2 1.5 0 012 1.5A2 1.5 0 018 6H6z" opacity=".7" stroke="#000" stroke-width="2" stroke-linejoin="round"/><path d="M4 1v11h2V8h3c1.657 0 3-1.567 3-3.5S10.657 1 9 1H5zm2 2h2a2 1.5 0 012 1.5A2 1.5 0 018 6H6z" fill="#fff"/><path d="M2 12v1h12v-1H2zm0 2v1h12v-1H2z" opacity=".7" stroke="#000" stroke-width="2" stroke-linejoin="round"/><path d="M2 14v1h12v-1zM2 12v1h12v-1z" fill="#fff"/></svg>