<?xml version="1.0" encoding="UTF-8" standalone="no"?>
<svg
   xmlns:dc="http://purl.org/dc/elements/1.1/"
   xmlns:cc="http://creativecommons.org/ns#"
   xmlns:rdf="http://www.w3.org/1999/02/22-rdf-syntax-ns#"
   xmlns:svg="http://www.w3.org/2000/svg"
   xmlns="http://www.w3.org/2000/svg"
   xmlns:xlink="http://www.w3.org/1999/xlink"
   xmlns:sodipodi="http://sodipodi.sourceforge.net/DTD/sodipodi-0.dtd"
   xmlns:inkscape="http://www.inkscape.org/namespaces/inkscape"
   height="52"
   viewBox="0 0 60 52"
   width="60"
   version="1.1"
   id="svg40"
   sodipodi:docname="cylinderhoristack_52x60.svg"
   inkscape:version="1.0.1 (3bc2e813f5, 2020-09-07)">
  <metadata
     id="metadata46">
    <rdf:RDF>
      <cc:Work
         rdf:about="">
        <dc:format>image/svg+xml</dc:format>
        <dc:type
           rdf:resource="http://purl.org/dc/dcmitype/StillImage" />
      </cc:Work>
    </rdf:RDF>
  </metadata>
  <defs
     id="defs44" />
  <sodipodi:namedview
     pagecolor="#ffffff"
     bordercolor="#666666"
     borderopacity="1"
     objecttolerance="10"
     gridtolerance="10"
     guidetolerance="10"
     inkscape:pageopacity="0"
     inkscape:pageshadow="2"
     inkscape:window-width="1920"
     inkscape:window-height="1016"
     id="namedview42"
     showgrid="false"
     inkscape:zoom="16.923077"
     inkscape:cx="26.136427"
     inkscape:cy="26.530343"
     inkscape:window-x="0"
     inkscape:window-y="27"
     inkscape:window-maximized="1"
     inkscape:current-layer="svg40" />
  <linearGradient
     id="a">
    <stop
       offset="0"
       stop-color="#e95420"
       id="stop2" />
    <stop
       offset="1"
       stop-color="#fe865c"
       id="stop4" />
  </linearGradient>
  <linearGradient
     id="b">
    <stop
       offset="0"
       stop-color="#77216F"
       id="stop7" />
    <stop
       offset="1"
       stop-color="#945c93"
       id="stop9" />
  </linearGradient>
  <linearGradient
     id="c"
     gradientTransform="matrix(0.98461538,0,0,1.875,0.210256,-1875.8041)"
     gradientUnits="userSpaceOnUse"
     x1="19"
     x2="19"
     xlink:href="#a"
     y1="1023.3622"
     y2="1015.3622" />
  <linearGradient
     id="d"
     gradientTransform="matrix(0.98461538,0,0,1.875,20.210256,-1875.8041)"
     gradientUnits="userSpaceOnUse"
     x1="19"
     x2="19"
     xlink:href="#b"
     y1="1023.3622"
     y2="1015.3622" />
  <linearGradient
     id="e"
     gradientTransform="matrix(0.98461538,0,0,1.875,20.210256,-1895.8041)"
     gradientUnits="userSpaceOnUse"
     x1="19"
     x2="19"
     xlink:href="#b"
     y1="1023.3622"
     y2="1015.3622" />
  <linearGradient
     id="f"
     gradientTransform="matrix(0.98461538,0,0,1.875,0.210256,-1895.8041)"
     gradientUnits="userSpaceOnUse"
     x1="19"
     x2="19"
     xlink:href="#a"
     y1="1023.3622"
     y2="1015.3622" />
  <path
     d="m 0,0 h 60 v 52 h -60 z"
     fill="#ffffff"
     id="path16" />
  <g
     fill="#232629"
     id="g24"
     transform="translate(0,-1000.3622)">
    <path
       d="m 11.646484,1040.0078 -8.9999996,9 0.7070312,0.707 9.0000004,-9 z"
       fill-rule="evenodd"
       id="path18" />
    <path
       d="m 11,1040.3684 h 46 v 0.9874 h -46 z"
       id="path20" />
    <path
       d="m 9,1003.3622 h 1 v 38 h -1 z"
       id="path22" />
  </g>
  <path
     d="m 7,28 a 4,7.5 0 0 0 -4,7.5 4,7.5 0 0 0 4,7.5 h 28 v -15 z"
     fill="url(#c)"
     id="path26"
     style="fill:#e95420;fill-opacity:1" />
  <path
     d="m 27,28 c -2.209139,0 -4,3.3579 -4,7.5 0,4.1421 1.790861,7.5 4,7.5 h 22 v -15 z"
     fill="url(#d)"
     id="path28"
     style="fill:#77216f;fill-opacity:1" />
  <ellipse
     cx="35.499981"
     cy="-49"
     fill="#987197"
     rx="7.5"
     ry="4"
     transform="rotate(90)"
     id="ellipse30"
     style="fill:#a6599f;fill-opacity:1" />
  <path
     d="m 7,8 a 4,7.5 0 0 0 -4,7.5 4,7.5 0 0 0 4,7.5 h 28 v -15 z"
     fill="url(#f)"
     id="path32"
     style="fill:#e95420;fill-opacity:1" />
  <path
     d="m 19,8 c -2.209139,0 -4,3.3579 -4,7.5 0,4.1421 1.790861,7.5 4,7.5 h 8 8 v -15 h -8 z"
     fill="url(#e)"
     id="path34"
     style="fill:#77216f;fill-opacity:1" />
  <ellipse
     cx="15.499983"
     cy="-35"
     fill="#987197"
     rx="7.5"
     ry="4"
     transform="rotate(90)"
     id="ellipse36"
     style="fill:#a6599f;fill-opacity:1" />
</svg>
