<?xml version="1.0" encoding="UTF-8" standalone="no"?>
<svg
   xmlns:dc="http://purl.org/dc/elements/1.1/"
   xmlns:cc="http://creativecommons.org/ns#"
   xmlns:rdf="http://www.w3.org/1999/02/22-rdf-syntax-ns#"
   xmlns:svg="http://www.w3.org/2000/svg"
   xmlns="http://www.w3.org/2000/svg"
   xmlns:sodipodi="http://sodipodi.sourceforge.net/DTD/sodipodi-0.dtd"
   xmlns:inkscape="http://www.inkscape.org/namespaces/inkscape"
   viewBox="0 0 16 16"
   version="1.1"
   id="svg4"
   sodipodi:docname="typenet_16.svg"
   inkscape:version="1.0.1 (3bc2e813f5, 2020-09-07)">
  <metadata
     id="metadata10">
    <rdf:RDF>
      <cc:Work
         rdf:about="">
        <dc:format>image/svg+xml</dc:format>
        <dc:type
           rdf:resource="http://purl.org/dc/dcmitype/StillImage" />
      </cc:Work>
    </rdf:RDF>
  </metadata>
  <defs
     id="defs8" />
  <sodipodi:namedview
     pagecolor="#ffffff"
     bordercolor="#666666"
     borderopacity="1"
     objecttolerance="10"
     gridtolerance="10"
     guidetolerance="10"
     inkscape:pageopacity="0"
     inkscape:pageshadow="2"
     inkscape:window-width="1920"
     inkscape:window-height="1016"
     id="namedview6"
     showgrid="false"
     inkscape:zoom="55"
     inkscape:cx="8"
     inkscape:cy="8"
     inkscape:window-x="0"
     inkscape:window-y="27"
     inkscape:window-maximized="1"
     inkscape:current-layer="svg4" />
  <rect
     style="opacity:1;fill:#ffffff;fill-rule:evenodd;stroke:none;stroke-width:2;stroke-linejoin:round"
     id="rect837"
     width="16"
     height="16"
     x="0"
     y="0"
     ry="1.5"
     rx="2" />
  <path
     d="m7 2v.5.3125l-3.2558594 3.2558594-2.0253906-1.0058594-.4375-.21875-.46875.875.46875.25 2.21875 1.1152344v4.7148436l-2.34375 2.357422-.375.34375.71875.71875.34375-.34375 2.328125-2.328125 8.082031 1.425781.902344.902344.34375.34375.6875-.71875-.34375-.34375-.84375-.84375v-6.984375l.71875-.359375.4375-.25-.4375-.875-.4375.21875-.746094.3710938-4.535156-2.7207032v-.2128906-.5zm1 1.8867188 3.46875 2.0761718-3.46875 1.7246094zm-1 .3007812v3.5l-2.3378906-1.1621094zm5 2.640625v5.484375l-3.65625-3.65625zm-7.5.7597656 2.125 1.0683594-2.125 2.136719zm3 1.6308594 3.509766 3.509766-5.9531254-1.066407z"
     fill="#232629"
     id="path2" />
</svg>
