<?xml version="1.0" encoding="UTF-8" standalone="no"?>
<svg
   viewBox="0 0 43 43"
   version="1.1"
   id="svg4"
   sodipodi:docname="CellBorder.svg"
   inkscape:version="1.4.2 (ebf0e940d0, 2025-05-08)"
   xmlns:inkscape="http://www.inkscape.org/namespaces/inkscape"
   xmlns:sodipodi="http://sodipodi.sourceforge.net/DTD/sodipodi-0.dtd"
   xmlns="http://www.w3.org/2000/svg"
   xmlns:svg="http://www.w3.org/2000/svg"
   xmlns:rdf="http://www.w3.org/1999/02/22-rdf-syntax-ns#"
   xmlns:cc="http://creativecommons.org/ns#"
   xmlns:dc="http://purl.org/dc/elements/1.1/">
  <metadata
     id="metadata10">
    <rdf:RDF>
      <cc:Work
         rdf:about="">
        <dc:format>image/svg+xml</dc:format>
        <dc:type
           rdf:resource="http://purl.org/dc/dcmitype/StillImage" />
      </cc:Work>
    </rdf:RDF>
  </metadata>
  <defs
     id="defs8" />
  <sodipodi:namedview
     pagecolor="#ffffff"
     bordercolor="#666666"
     borderopacity="1"
     objecttolerance="10"
     gridtolerance="10"
     guidetolerance="10"
     inkscape:pageopacity="0"
     inkscape:pageshadow="2"
     inkscape:window-width="1920"
     inkscape:window-height="1011"
     id="namedview6"
     showgrid="true"
     inkscape:zoom="10.976744"
     inkscape:cx="22.912077"
     inkscape:cy="21.090043"
     inkscape:window-x="0"
     inkscape:window-y="0"
     inkscape:window-maximized="1"
     inkscape:current-layer="svg4"
     inkscape:showpageshadow="2"
     inkscape:pagecheckerboard="0"
     inkscape:deskcolor="#d1d1d1">
    <inkscape:grid
       type="xygrid"
       id="grid840"
       originx="0"
       originy="0"
       spacingy="1"
       spacingx="1"
       units="px" />
  </sodipodi:namedview>
  <path
     id="rect842"
     style="opacity:0.5;fill:#0000ff;fill-opacity:1;fill-rule:evenodd;stroke:none;stroke-width:2;stroke-linecap:round;stroke-linejoin:round;stroke-miterlimit:4;stroke-dasharray:none;stroke-opacity:1"
     d="M 2 1 L 2 3 L 3 3 L 3 1 L 2 1 z M 4 1 L 4 2 L 6 2 L 6 1 L 4 1 z M 7 1 L 7 2 L 9 2 L 9 1 L 7 1 z M 10 1 L 10 2 L 12 2 L 12 1 L 10 1 z M 13 1 L 13 2 L 15 2 L 15 1 L 13 1 z M 16 1 L 16 2 L 18 2 L 18 1 L 16 1 z M 19 1 L 19 2 L 21 2 L 21 1 L 19 1 z M 22 1 L 22 2 L 22 3 L 23 3 L 23 2 L 24 2 L 24 1 L 22 1 z M 25 1 L 25 2 L 27 2 L 27 1 L 25 1 z M 28 1 L 28 2 L 30 2 L 30 1 L 28 1 z M 31 1 L 31 2 L 33 2 L 33 1 L 31 1 z M 34 1 L 34 2 L 36 2 L 36 1 L 34 1 z M 37 1 L 37 2 L 39 2 L 39 1 L 37 1 z M 40 1 L 40 2 L 42 2 L 42 3 L 43 3 L 43 1 L 42 1 L 40 1 z M 2 4 L 2 6 L 3 6 L 3 4 L 2 4 z M 22 4 L 22 6 L 23 6 L 23 4 L 22 4 z M 42 4 L 42 6 L 43 6 L 43 4 L 42 4 z M 2 7 L 2 9 L 3 9 L 3 7 L 2 7 z M 22 7 L 22 9 L 23 9 L 23 7 L 22 7 z M 42 7 L 42 9 L 43 9 L 43 7 L 42 7 z M 2 10 L 2 12 L 3 12 L 3 10 L 2 10 z M 22 10 L 22 12 L 23 12 L 23 10 L 22 10 z M 42 10 L 42 12 L 43 12 L 43 10 L 42 10 z M 2 13 L 2 15 L 3 15 L 3 13 L 2 13 z M 22 13 L 22 15 L 23 15 L 23 13 L 22 13 z M 42 13 L 42 15 L 43 15 L 43 13 L 42 13 z M 2 16 L 2 18 L 3 18 L 3 16 L 2 16 z M 22 16 L 22 18 L 23 18 L 23 16 L 22 16 z M 42 16 L 42 18 L 43 18 L 43 16 L 42 16 z M 2 19 L 2 21 L 2 22 L 2 24 L 3 24 L 3 22 L 4 22 L 4 21 L 3 21 L 3 19 L 2 19 z M 22 19 L 22 21 L 23 21 L 23 19 L 22 19 z M 23 21 L 23 22 L 25 22 L 25 21 L 23 21 z M 23 22 L 22 22 L 22 24 L 23 24 L 23 22 z M 22 22 L 22 21 L 20 21 L 20 22 L 22 22 z M 42 19 L 42 21 L 41 21 L 41 22 L 42 22 L 42 24 L 43 24 L 43 22 L 43 21 L 43 19 L 42 19 z M 5 21 L 5 22 L 7 22 L 7 21 L 5 21 z M 8 21 L 8 22 L 10 22 L 10 21 L 8 21 z M 11 21 L 11 22 L 13 22 L 13 21 L 11 21 z M 14 21 L 14 22 L 16 22 L 16 21 L 14 21 z M 17 21 L 17 22 L 19 22 L 19 21 L 17 21 z M 26 21 L 26 22 L 28 22 L 28 21 L 26 21 z M 29 21 L 29 22 L 31 22 L 31 21 L 29 21 z M 32 21 L 32 22 L 34 22 L 34 21 L 32 21 z M 35 21 L 35 22 L 37 22 L 37 21 L 35 21 z M 38 21 L 38 22 L 40 22 L 40 21 L 38 21 z M 2 25 L 2 27 L 3 27 L 3 25 L 2 25 z M 22 25 L 22 27 L 23 27 L 23 25 L 22 25 z M 42 25 L 42 27 L 43 27 L 43 25 L 42 25 z M 2 28 L 2 30 L 3 30 L 3 28 L 2 28 z M 22 28 L 22 30 L 23 30 L 23 28 L 22 28 z M 42 28 L 42 30 L 43 30 L 43 28 L 42 28 z M 2 31 L 2 33 L 3 33 L 3 31 L 2 31 z M 22 31 L 22 33 L 23 33 L 23 31 L 22 31 z M 42 31 L 42 33 L 43 33 L 43 31 L 42 31 z M 2 34 L 2 36 L 3 36 L 3 34 L 2 34 z M 22 34 L 22 36 L 23 36 L 23 34 L 22 34 z M 42 34 L 42 36 L 43 36 L 43 34 L 42 34 z M 2 37 L 2 39 L 3 39 L 3 37 L 2 37 z M 22 37 L 22 39 L 23 39 L 23 37 L 22 37 z M 42 37 L 42 39 L 43 39 L 43 37 L 42 37 z M 2 40 L 2 42 L 3 42 L 3 40 L 2 40 z M 22 40 L 22 42 L 24 42 L 24 41 L 23 41 L 23 40 L 22 40 z M 42 40 L 42 41 L 40 41 L 40 42 L 42 42 L 43 42 L 43 40 L 42 40 z M 4 41 L 4 42 L 6 42 L 6 41 L 4 41 z M 7 41 L 7 42 L 9 42 L 9 41 L 7 41 z M 10 41 L 10 42 L 12 42 L 12 41 L 10 41 z M 13 41 L 13 42 L 15 42 L 15 41 L 13 41 z M 16 41 L 16 42 L 18 42 L 18 41 L 16 41 z M 19 41 L 19 42 L 21 42 L 21 41 L 19 41 z M 25 41 L 25 42 L 27 42 L 27 41 L 25 41 z M 28 41 L 28 42 L 30 42 L 30 41 L 28 41 z M 31 41 L 31 42 L 33 42 L 33 41 L 31 41 z M 34 41 L 34 42 L 36 42 L 36 41 L 34 41 z M 37 41 L 37 42 L 39 42 L 39 41 L 37 41 z " />
</svg>
