<?xml version="1.0" encoding="UTF-8" standalone="no"?>
<svg
   viewBox="0 0 18 18"
   version="1.1"
   id="svg6"
   sodipodi:docname="CellBorder_Top_18x18.svg"
   inkscape:version="1.4.2 (ebf0e940d0, 2025-05-08)"
   xmlns:inkscape="http://www.inkscape.org/namespaces/inkscape"
   xmlns:sodipodi="http://sodipodi.sourceforge.net/DTD/sodipodi-0.dtd"
   xmlns="http://www.w3.org/2000/svg"
   xmlns:svg="http://www.w3.org/2000/svg"
   xmlns:rdf="http://www.w3.org/1999/02/22-rdf-syntax-ns#"
   xmlns:cc="http://creativecommons.org/ns#"
   xmlns:dc="http://purl.org/dc/elements/1.1/">
  <metadata
     id="metadata12">
    <rdf:RDF>
      <cc:Work
         rdf:about="">
        <dc:format>image/svg+xml</dc:format>
        <dc:type
           rdf:resource="http://purl.org/dc/dcmitype/StillImage" />
        <dc:title />
      </cc:Work>
    </rdf:RDF>
  </metadata>
  <defs
     id="defs10" />
  <sodipodi:namedview
     pagecolor="#ffffff"
     bordercolor="#666666"
     borderopacity="1"
     objecttolerance="10"
     gridtolerance="10"
     guidetolerance="10"
     inkscape:pageopacity="0"
     inkscape:pageshadow="2"
     inkscape:window-width="1920"
     inkscape:window-height="1011"
     id="namedview8"
     showgrid="true"
     showborder="true"
     inkscape:zoom="22.627417"
     inkscape:cx="2.2318058"
     inkscape:cy="6.7396115"
     inkscape:window-x="0"
     inkscape:window-y="0"
     inkscape:window-maximized="1"
     inkscape:current-layer="svg6"
     inkscape:document-rotation="0"
     inkscape:showpageshadow="2"
     inkscape:pagecheckerboard="0"
     inkscape:deskcolor="#d1d1d1">
    <inkscape:grid
       type="xygrid"
       id="grid874"
       originx="0"
       originy="0"
       spacingy="1"
       spacingx="1"
       units="px" />
  </sodipodi:namedview>
  <rect
     style="opacity:0.8;fill:#808080;fill-opacity:1;fill-rule:evenodd;stroke:none;stroke-width:2;stroke-linecap:round;stroke-linejoin:round;stroke-miterlimit:4;stroke-dasharray:none;stroke-opacity:1"
     id="rect844"
     width="2"
     height="1"
     x="2"
     y="0" />
  <rect
     ry="0"
     rx="0"
     y="0"
     x="5"
     height="1"
     width="2"
     id="rect846"
     style="opacity:0.8;fill:#808080;fill-opacity:1;fill-rule:evenodd;stroke:none;stroke-width:2;stroke-linecap:round;stroke-linejoin:round;stroke-miterlimit:4;stroke-dasharray:none;stroke-opacity:1" />
  <rect
     y="0"
     x="8"
     height="1"
     width="2"
     id="rect848"
     style="opacity:0.8;fill:#808080;fill-opacity:1;fill-rule:evenodd;stroke:none;stroke-width:2;stroke-linecap:round;stroke-linejoin:round;stroke-miterlimit:4;stroke-dasharray:none;stroke-opacity:1" />
  <rect
     style="opacity:0.8;fill:#808080;fill-opacity:1;fill-rule:evenodd;stroke:none;stroke-width:2;stroke-linecap:round;stroke-linejoin:round;stroke-miterlimit:4;stroke-dasharray:none;stroke-opacity:1"
     id="rect850"
     width="2"
     height="1"
     x="11"
     y="0"
     rx="0"
     ry="0" />
  <rect
     style="opacity:0.8;fill:#808080;fill-opacity:1;fill-rule:evenodd;stroke:none;stroke-width:2;stroke-linecap:round;stroke-linejoin:round;stroke-miterlimit:4;stroke-dasharray:none;stroke-opacity:1"
     id="rect852"
     width="2"
     height="1"
     x="14"
     y="0" />
  <path
     id="rect851"
     style="opacity:0.5;fill:#0000ff;fill-opacity:1;fill-rule:evenodd;stroke:none;stroke-width:2;stroke-linecap:round;stroke-linejoin:round;stroke-miterlimit:4;stroke-dasharray:none;stroke-opacity:1"
     d="M 0 2 L 0 4 L 1 4 L 1 2 L 0 2 z M 17 3 L 17 5 L 18 5 L 18 3 L 17 3 z M 0 5 L 0 7 L 1 7 L 1 5 L 0 5 z M 17 6 L 17 8 L 18 8 L 18 6 L 17 6 z M 0 8 L 0 10 L 1 10 L 1 8 L 0 8 z M 17 9 L 17 11 L 18 11 L 18 9 L 17 9 z M 0 11 L 0 13 L 1 13 L 1 11 L 0 11 z M 17 12 L 17 14 L 18 14 L 18 12 L 17 12 z M 0 14 L 0 16 L 1 16 L 1 14 L 0 14 z M 17 15 L 17 17 L 18 17 L 18 15 L 17 15 z M 17 17 L 15 17 L 15 18 L 17 18 L 17 17 z M 0 17 L 0 18 L 2 18 L 2 17 L 0 17 z M 3 17 L 3 18 L 5 18 L 5 17 L 3 17 z M 6 17 L 6 18 L 8 18 L 8 17 L 6 17 z M 9 17 L 9 18 L 11 18 L 11 17 L 9 17 z M 12 17 L 12 18 L 14 18 L 14 17 L 12 17 z " />
  <rect
     transform="rotate(90)"
     y="-18"
     x="2.1400372e-16"
     height="1"
     width="2"
     id="rect896"
     style="opacity:0.8;fill:#808080;fill-opacity:1;fill-rule:evenodd;stroke:none;stroke-width:2;stroke-linecap:round;stroke-linejoin:round;stroke-miterlimit:4;stroke-dasharray:none;stroke-opacity:1" />
  <rect
     transform="rotate(90)"
     y="-1"
     x="6.1232343e-17"
     height="1"
     width="1"
     id="rect908"
     style="opacity:0.8;fill:#808080;fill-opacity:1;fill-rule:evenodd;stroke:none;stroke-width:1.41421354;stroke-linecap:round;stroke-linejoin:round;stroke-miterlimit:4;stroke-dasharray:none;stroke-opacity:1" />
  <rect
     style="opacity:1;fill:#00ff00;fill-opacity:1;fill-rule:evenodd;stroke:none;stroke-width:2;stroke-linecap:round;stroke-linejoin:round;stroke-miterlimit:4;stroke-dasharray:none;stroke-opacity:1"
     id="rect876"
     width="18"
     height="2"
     x="0"
     y="0"
     rx="0"
     ry="0" />
</svg>
