<svg height="52" width="60" xmlns:xlink="http://www.w3.org/1999/xlink" xmlns="http://www.w3.org/2000/svg"><linearGradient id="c" gradientTransform="matrix(1 0 0 1.16667 -2 -1174.756)" gradientUnits="userSpaceOnUse" x1="16" x2="16" xlink:href="#a" y1="1046.362" y2="1017.696"/><linearGradient id="a"><stop offset="0" stop-color="#e95420"/><stop offset="1" stop-color="#fe865c"/></linearGradient><linearGradient id="d" gradientTransform="matrix(1 0 0 .9 -26 -895.726)" gradientUnits="userSpaceOnUse" x1="101" x2="36" xlink:href="#b" y1="959.695" y2="947.195"/><linearGradient id="b"><stop offset="0" stop-color="#77216f"/><stop offset="1" stop-color="#a25f9e"/></linearGradient><linearGradient id="e" gradientTransform="matrix(1 0 0 1.66667 22 -1697.937)" gradientUnits="userSpaceOnUse" x1="16" x2="16" xlink:href="#a" y1="1046.362" y2="1020.562"/><linearGradient id="f" gradientTransform="matrix(1 0 0 .7 -2 -686.453)" gradientUnits="userSpaceOnUse" x1="50" x2="50" xlink:href="#b" y1="1046.362" y2="984.934"/><path d="M0 0h60v52H0z" fill="#fff"/><path d="M10 25h9v21h-9z" fill="url(#c)" style="fill:#0073E5;fill-opacity:1"/><path d="M19 19h9v27h-9z" fill="url(#d)" style="fill:#0073E5;fill-opacity:1"/><path d="M34 16h9v30h-9z" fill="url(#e)" style="fill:#0073E5;fill-opacity:1"/><path d="M43 25h9v21h-9z" fill="url(#f)" style="fill:#0073E5;fill-opacity:1"/><path d="M10 25h9v21h-9z" fill="url(#c)" style="fill:#fff;fill-opacity:1;opacity:.3"/><path d="M34 16h9v30h-9z" fill="url(#e)" style="fill:#fff;fill-opacity:1;opacity:.3"/><g fill="#232629"><path d="M3 45h52v1H3z"/><path d="M6 3h1v46H6z"/><path d="m29.896 4.38-16.26 17.277.727.686L30.103 5.62l16.663 8.822.468-.884z" fill-rule="evenodd"/></g></svg>