<svg height="52" width="60" xmlns="http://www.w3.org/2000/svg"><path d="M0 0h60v52H0Z" fill="#fff"/><path d="M29.5 7.935 9.775 18.315l.309.461 12.127 18.192 16.578 2.072 10.377-20.754Z" fill="#77216f" fill-rule="evenodd" style="fill:#3584e4"/><path d="M37 37h3v3h-3z" fill="#77216f"/><path d="M38 38h1v1h-1z" fill="#fff"/><path d="M21 35h3v3h-3z" fill="#77216f"/><path d="M22 36h1v1h-1z" fill="#fff"/><path d="m29.418 13.902-10.385 9.345-.027.176-3.092 19.576h27.063l1.037-21.8z" fill="#e95420" fill-rule="evenodd" style="fill:#3584e4"/><path d="m29.418 13.902-10.385 9.345-.027.176-3.092 19.576h27.063l1.037-21.8z" fill="#e95420" fill-rule="evenodd" style="fill:#fff;opacity:.4"/><path d="M29 6v22.633L9.832 17.566l-.5.868L28.5 29.5v.293L12.883 45.41l.707.707 15.91-15.91 15.91 15.91.707-.707L30.5 29.793V29.5l19.168-11.066-.5-.868L30 28.633V6Z" fill="#232629"/><g fill="#e95420" style="fill:#3584e4"><path d="M19 1024.362h1v1h-1zM20 1023.362h1v1h-1zM19 1022.362h1v1h-1zM18 1023.362h1v1h-1z" style="fill:#3584e4" transform="translate(0 -1000.362)"/></g><path d="M19 23h1v1h-1z" fill="#fff"/><path d="M47 17h3v3h-3z" fill="#77216f" style="fill:#3584e4"/><path d="M48 18h1v1h-1z" fill="#fff"/><path d="M9 17h3v3H9Z" fill="#77216f" style="fill:#3584e4"/><path d="M10 18h1v1h-1z" fill="#fff"/><path d="M28 7h3v3h-3z" fill="#77216f" style="fill:#3584e4"/><path d="M29 8h1v1h-1z" fill="#fff"/><g fill="#e95420" style="fill:#3584e4"><path d="M29 1015.362h1v1h-1zM30 1014.362h1v1h-1zM29 1013.362h1v1h-1zM28 1014.362h1v1h-1z" style="fill:#3584e4" transform="translate(0 -1000.362)"/></g><path d="M29 14h1v1h-1z" fill="#fff"/><g fill="#e95420" style="fill:#3584e4"><path d="M43 1022.362h1v1h-1zM44 1021.362h1v1h-1zM43 1020.362h1v1h-1zM42 1021.362h1v1h-1z" style="fill:#3584e4" transform="translate(0 -1000.362)"/></g><path d="M43 21h1v1h-1z" fill="#fff"/><g fill="#e95420" style="fill:#3584e4"><path d="M42 1043.362h1v1h-1zM43 1042.362h1v1h-1zM42 1041.362h1v1h-1zM41 1042.362h1v1h-1z" style="fill:#3584e4" transform="translate(0 -1000.362)"/></g><path d="M42 42h1v1h-1z" fill="#fff"/><g fill="#e95420" style="fill:#3584e4"><path d="M16 1043.362h1v1h-1zM17 1042.362h1v1h-1zM16 1041.362h1v1h-1zM15 1042.362h1v1h-1z" style="fill:#3584e4" transform="translate(0 -1000.362)"/></g><path d="M16 42h1v1h-1z" fill="#fff"/><g fill="#e95420" style="fill:#fff;opacity:.4"><path d="M19 1024.362h1v1h-1zM20 1023.362h1v1h-1zM19 1022.362h1v1h-1zM18 1023.362h1v1h-1z" style="fill:#fff" transform="translate(0 -1000.362)"/></g><g fill="#e95420" style="fill:#fff;opacity:.4"><path d="M29 1015.362h1v1h-1zM30 1014.362h1v1h-1zM29 1013.362h1v1h-1zM28 1014.362h1v1h-1z" style="fill:#fff" transform="translate(0 -1000.362)"/></g><g fill="#e95420" style="fill:#fff;opacity:.4"><path d="M43 1022.362h1v1h-1zM44 1021.362h1v1h-1zM43 1020.362h1v1h-1zM42 1021.362h1v1h-1z" style="fill:#fff" transform="translate(0 -1000.362)"/></g><g fill="#e95420" style="fill:#fff;opacity:.4"><path d="M42 1043.362h1v1h-1zM43 1042.362h1v1h-1zM42 1041.362h1v1h-1zM41 1042.362h1v1h-1z" style="fill:#fff" transform="translate(0 -1000.362)"/></g><g fill="#e95420" style="fill:#fff;opacity:.4"><path d="M16 1043.362h1v1h-1zM17 1042.362h1v1h-1zM16 1041.362h1v1h-1zM15 1042.362h1v1h-1z" style="fill:#fff" transform="translate(0 -1000.362)"/></g></svg>