<svg height="52" width="60" xmlns="http://www.w3.org/2000/svg"><path d="M0 0h60v52H0z" fill="#fff"/><path d="M3 45h52v1H3z" fill="#232629"/><path d="M6 3h1v46H6z" fill="#232629"/><path d="M14.191 8.303c2.67-1.783 2.5-3.224 14.505-5.325L25.72 5.933c-5.353.29-9.797 2.902-14.433 5.022z" fill="#987197" style="fill:#3584e4;fill-opacity:1"/><path d="M28.636 3c.297.056.648.806.799 1.113 4.785 9.769 8.48 21.697 14.181 28.552L40.571 35.8c-5.004 2.124-7.728-16.698-11.55-25.426l-3.351-4.44z" fill="#945c93" style="fill:#3584e4;fill-opacity:1"/><path d="M28.636 3c.297.056.648.806.799 1.113 4.785 9.769 8.48 21.697 14.181 28.552L40.571 35.8c-5.004 2.124-7.728-16.698-11.55-25.426l-3.351-4.44z" fill="#945c93" style="fill:#fff;fill-opacity:1;opacity:.2"/><path d="M43.58 32.643c2.053.804 4.524-3.083 7.427-5.22l.145.165c-4.085 10.178-7.656 9.228-10.929 8.501z" fill="#987197" style="fill:#3584e4;fill-opacity:1"/><path d="M44.295 5.947c5.607 1.282 8.725 5.044 10.674 7.513l-3.126 1.926c-2.51-2.934-5.237-5.977-10.548-6.44z" fill="#fe865c" style="fill:#3584e4;fill-opacity:1"/><path d="M44.295 5.947c5.607 1.282 8.725 5.044 10.674 7.513l-3.126 1.926c-2.51-2.934-5.237-5.977-10.548-6.44z" fill="#fe865c" style="fill:#fff;fill-opacity:1;opacity:.6"/><path d="M20.433 30.232c.952-.515 1.603-.122 2.352-.803.832-.756 1.689-1.176 2.447-1.948C35.272 17.267 39.12 5.818 44.285 5.93l-2.842 3.063-3.682 2.42c-5.771 6.214-11.543 13.141-17.315 18.383z" fill="#fe865c" style="fill:#3584e4;fill-opacity:1"/><path d="M20.433 30.232c.952-.515 1.603-.122 2.352-.803.832-.756 1.689-1.176 2.447-1.948C35.272 17.267 39.12 5.818 44.285 5.93l-2.842 3.063-3.682 2.42c-5.771 6.214-11.543 13.141-17.315 18.383z" fill="#fe865c" style="fill:#fff;fill-opacity:1;opacity:.6"/><path d="m15.776 19.409 7.793 7.43-3.126 3.252c-5.538-.169-7.407-4.007-8.466-8.656z" fill="#fe865c" style="fill:#3584e4;fill-opacity:1"/><path d="m15.776 19.409 7.793 7.43-3.126 3.252c-5.538-.169-7.407-4.007-8.466-8.656z" fill="#fe865c" style="fill:#fff;fill-opacity:1;opacity:.6"/><path d="M14.191 8.303c2.67-1.783 2.5-3.224 14.505-5.325L25.72 5.933c-5.353.29-9.797 2.902-14.433 5.022zM43.58 32.643c2.053.804 4.524-3.083 7.427-5.22l.145.165c-4.085 10.178-7.656 9.228-10.929 8.501z" fill="#987197" style="fill:#fff;fill-opacity:1;opacity:.3"/><path d="M11.5 11.4s6.514-8.008 14-5c7.486 3.008 7.232 28.316 15 30 7.768 1.684 11-8.9 11-8.9" stroke="#77216f" style="fill:none;stroke:#3584e4"/><path d="M11.5 21.5s1.928 9 9 9c7.07 0 14.158-20.158 21-21 6.842-.842 10 6 10 6" stroke="#e95420" style="fill:none;stroke:#3584e4"/><path d="M11.5 21.5s1.928 9 9 9c7.07 0 14.158-20.158 21-21 6.842-.842 10 6 10 6" stroke="#e95420" style="fill:none;stroke:#fff;opacity:.4"/></svg>