<svg viewBox="0 0 16 16" xmlns="http://www.w3.org/2000/svg"><path style="font-style:normal;font-variant:normal;font-weight:400;font-stretch:normal;font-size:15px;line-height:125%;font-family:Ubuntu;-inkscape-font-specification:Ubuntu;text-align:center;letter-spacing:0;word-spacing:0;writing-mode:lr-tb;text-anchor:middle;display:inline;opacity:.7;fill:#000;fill-opacity:1;stroke:none;stroke-width:.99980211" d="M4.994 1c-1.258.014-2.179-.03-2.931.385a1.88 1.88 0 0 0-.838.998C1.06 2.82 1 3.343 1 4v8c0 .658.06 1.179.225 1.617.164.439.461.789.837.996.753.415 1.674.372 2.932.387H9v-3.479c-.598-.714-.999-1.576-1-2.519A1 1 0 0 0 8 9c0-2.197 1.803-4 4-4 1.191 0 2.265.53 3 1.365V4c0-.658-.06-1.179-.225-1.617a1.875 1.875 0 0 0-.838-.996c-.752-.415-1.673-.372-2.931-.387H4.994z"/><path style="opacity:1;vector-effect:none;fill:#fff;fill-opacity:1;stroke:none;stroke-width:1;stroke-linecap:round;stroke-linejoin:bevel;stroke-miterlimit:4;stroke-dasharray:none;stroke-dashoffset:0;stroke-opacity:1" d="M5.982 2.027c-1.556.011-1.108-.011-2.658.04-.461.042-1.017.205-1.156.708-.219.636-.107 1.335-.145 1.983-.007 2.297-.023 5.595.022 7.885.039.462.201 1.013.697 1.164.633.225 1.286.122 1.938.154 1.424.007.85.011 2.275.012.682 0 1.363-.002 2.045-.004V11.52c-.598-.714-.999-1.576-1-2.519A1 1 0 0 0 8 9c0-2.197 1.803-4 4-4 .716 0 1.39.192 1.973.525-.006-.793-.012-1.557-.026-2.236-.049-.402-.169-.863-.574-1.045-.668-.294-1.427-.167-2.127-.205-1.754-.012-3.51-.013-5.264-.012z"/><path style="opacity:1;fill:#6f8396;fill-opacity:1;stroke:none;stroke-width:2;stroke-linejoin:round;stroke-miterlimit:4;stroke-dasharray:none;stroke-opacity:1" d="M10 12.459V16l2-2 2 2v-3.541a3.961 3.961 0 0 1-4 0z"/><circle style="opacity:1;fill:#6f8396;fill-opacity:1;stroke:none;stroke-width:4;stroke-linejoin:round;stroke-miterlimit:4;stroke-dasharray:none;stroke-opacity:1" cx="12" cy="9" r="3"/><circle style="opacity:1;fill:#fff;fill-opacity:1;stroke:none;stroke-width:4;stroke-linejoin:round;stroke-miterlimit:4;stroke-dasharray:none;stroke-opacity:1" cx="12" cy="9" r="1"/></svg>