<svg xmlns="http://www.w3.org/2000/svg" viewBox="0 0 26 26"><path d="M17 21c-2 0-3 0-3-2V7c0-2 1-2 3-2h5c2 0 3 0 3 2v12c0 2-1 2-3 2z" opacity=".7" stroke="#000" stroke-width="2" stroke-linejoin="round"/><path d="M17 21c-2 0-3 0-3-2V7c0-2 1-2 3-2h5c2 0 3 0 3 2v12c0 2-1 2-3 2z" fill="#fff"/><path d="M4 21c-2 0-3 0-3-2V7c0-2 1-2 3-2h5c2 0 3 0 3 2v12c0 2-1 2-3 2z" opacity=".7" stroke="#000" stroke-width="2" stroke-linejoin="round"/><path d="M4 21c-2 0-3 0-3-2V7c0-2 1-2 3-2h5c2 0 3 0 3 2v12c0 2-1 2-3 2z" fill="#fff"/><path d="M3 5v2H1v1h2v10H1v1h2v2h1v-2h5v2h1v-2h2v-1h-2V8h2V7h-2V5H9v2H4V5zm13 0v2h-2v1h2v10h-2v1h2v2h1v-2h5v2h1v-2h2v-1h-2V8h2V7h-2V5h-1v2h-5V5zM4 8h5v10H4zm13 0h5v10h-5z" fill="#77216f"/></svg>