<svg xmlns="http://www.w3.org/2000/svg" viewBox="0 0 32 32"><path style="fill:#000;stroke:#000;opacity:.7;stroke-width:2;stroke-miterlimit:4;stroke-dasharray:none" fill="#232629" d="M7 7c-1.662 0-3 1.338-3 3v12c0 1.662 1.338 3 3 3h18c1.662 0 3-1.338 3-3V10c0-1.662-1.338-3-3-3zm0 1h18c1.108 0 2 .892 2 2v12c0 1.108-.892 2-2 2H7c-1.108 0-2-.892-2-2V10c0-1.108.892-2 2-2z"/><path d="M7 7c-1.662 0-3 1.338-3 3v12c0 1.662 1.338 3 3 3h18c1.662 0 3-1.338 3-3V10c0-1.662-1.338-3-3-3zm0 1h18c1.108 0 2 .892 2 2v12c0 1.108-.892 2-2 2H7c-1.108 0-2-.892-2-2V10c0-1.108.892-2 2-2z" fill="#232629" style="fill:#fff"/></svg>