<?xml version="1.0" encoding="UTF-8" standalone="no"?>
<svg
   viewBox="0 0 24 24"
   version="1.1"
   id="svg4"
   sodipodi:docname="sidebar-a11y-large.svg"
   inkscape:version="1.2 (1:1.2.1+202207142221+cd75a1ee6d)"
   inkscape:export-filename="/home/jupiter007/Libreoffice yaru theme fullcolor/build/cmd/lc_pagemode.png"
   inkscape:export-xdpi="95"
   inkscape:export-ydpi="95"
   xmlns:inkscape="http://www.inkscape.org/namespaces/inkscape"
   xmlns:sodipodi="http://sodipodi.sourceforge.net/DTD/sodipodi-0.dtd"
   xmlns="http://www.w3.org/2000/svg"
   xmlns:svg="http://www.w3.org/2000/svg"
   xmlns:rdf="http://www.w3.org/1999/02/22-rdf-syntax-ns#"
   xmlns:cc="http://creativecommons.org/ns#"
   xmlns:dc="http://purl.org/dc/elements/1.1/">
  <metadata
     id="metadata10">
    <rdf:RDF>
      <cc:Work
         rdf:about="">
        <dc:format>image/svg+xml</dc:format>
        <dc:type
           rdf:resource="http://purl.org/dc/dcmitype/StillImage" />
      </cc:Work>
    </rdf:RDF>
  </metadata>
  <defs
     id="defs8" />
  <sodipodi:namedview
     pagecolor="#ffffff"
     bordercolor="#666666"
     borderopacity="1"
     objecttolerance="10"
     gridtolerance="10"
     guidetolerance="10"
     inkscape:pageopacity="0"
     inkscape:pageshadow="2"
     inkscape:window-width="1726"
     inkscape:window-height="481"
     id="namedview6"
     showgrid="true"
     inkscape:zoom="13.906433"
     inkscape:cx="29.123212"
     inkscape:cy="18.480655"
     inkscape:window-x="26"
     inkscape:window-y="23"
     inkscape:window-maximized="0"
     inkscape:current-layer="svg4"
     inkscape:showpageshadow="2"
     inkscape:pagecheckerboard="0"
     inkscape:deskcolor="#d1d1d1">
    <inkscape:grid
       type="xygrid"
       id="grid442" />
  </sodipodi:namedview>
  <rect
     style="opacity:1;fill:#ffffff;fill-rule:evenodd;stroke:none;stroke-width:2;stroke-linecap:round;stroke-linejoin:round;stroke-opacity:0.577077"
     id="rect676"
     width="46"
     height="38"
     x="-14"
     y="-7" />
  <path
     id="path602"
     style="color:#000000;opacity:0.7;fill:#000000;stroke-width:2;stroke-linejoin:round;-inkscape-stroke:none"
     d="m 7.2773438,2.9960938 c -0.6981891,-5.443e-4 -1.331284,0.037713 -1.9746094,0.359375 -0.4288838,0.2144416 -0.8205578,0.6123684 -1.0292969,1.0820312 -0.2087391,0.4696628 -0.2734375,0.9791691 -0.2734375,1.5625 v 12 c 0,0.58333 0.064698,1.092836 0.2734375,1.5625 0.2087391,0.469664 0.6004131,0.867589 1.0292969,1.082031 0.8577673,0.428885 1.6972696,0.355469 2.6972656,0.355469 h 4 v -11 h 8 v -2 c -5.1e-5,-0.265199 -0.105433,-0.5195195 -0.292969,-0.7070312 l -1,-1 -2,-2 -1,-1 c -0.187512,-0.1875362 -0.441832,-0.2929177 -0.707031,-0.2929688 h -7 c -0.2499991,0 -0.4899268,-0.00372 -0.7226562,-0.00391 z"
     sodipodi:nodetypes="cssssssscccccccccsc" />
  <path
     id="path2"
     style="fill:#ffffff"
     d="m 8,4 c -1.999998,0 -3,2e-6 -3,2 v 12 c 0,1.999998 1.000002,2 3,2 h 4 v -10 h 7 v -2 l -1,-1 -2,-2 -1,-1 z"
     sodipodi:nodetypes="sssscccccccs" />
  <path
     inkscape:connector-curvature="0"
     d="M 15,7.9999999 V 4.0000001 l 4,3.9999998 z"
     id="path4"
     style="fill:#6d6d6d;fill-opacity:1" />
  <path
     d="m 17.986,11 c 2.666666,0 2.666666,4 0,4 -2.666665,0 -2.666665,-4 0,-4 z m -4.986,5 h 10 v 1.002 h -0.221 c -0.447,0 -0.964,0.075 -1.328,0.234 -0.34273,0.136241 -0.642284,0.362548 -0.867,0.655 -0.227212,0.289738 -0.384924,0.627742 -0.461,0.988 -0.08734,0.402407 -0.129931,0.813235 -0.127,1.225 v 2.896 h -1 l 0.004,-2 c 0.0011,-0.552743 -0.447257,-1.001109 -1,-1 -0.552,0 -0.996,0.448 -1,1 l -0.004,2 h -0.986 v -2.902 -0.008 c -0.027,-0.427 -0.04,-0.83 -0.127,-1.211 -0.087,-0.38 -0.24,-0.711 -0.461,-0.987 -0.22455,-0.292855 -0.524128,-0.519525 -0.867,-0.656 -0.365,-0.16 -0.807,-0.234 -1.328,-0.234 h -0.227 z"
     style="line-height:normal;font-variant-ligatures:normal;font-variant-position:normal;font-variant-caps:normal;font-variant-numeric:normal;font-variant-alternates:normal;font-feature-settings:normal;text-indent:0;text-align:start;text-decoration-line:none;text-decoration-style:solid;text-decoration-color:#000000;text-transform:none;text-orientation:mixed;shape-padding:0;isolation:auto;mix-blend-mode:normal;fill:#00ff00"
     color="#000000"
     font-weight="400"
     font-family="sans-serif"
     white-space="normal"
     overflow="visible"
     fill="#808080"
     id="path132"
     sodipodi:nodetypes="ssscccsccccccccccccccccscc" />
</svg>
