<svg viewBox="0 0 16 16" xmlns="http://www.w3.org/2000/svg"><path d="M8.03 2 6.155 5.939l-4.15.621 2.982 3.08-.732 4.336 3.719-2.037L11.671 14l-.684-4.34 3.02-3.062-4.143-.645zm-.008 2 1.221 2.73 2.762.433-2.01 1.945.455 3.049-2.463-1.373-2.48 1.357.488-3.047-1.988-1.96 2.766-.411z" style="fill:#000;fill-opacity:1;opacity:.7"/><path d="M5.196 12.69c.012-.037.137-.804.277-1.704L5.73 9.35l-1.1-1.112-1.1-1.112.345-.058c.19-.032.872-.136 1.514-.23.642-.096 1.185-.19 1.207-.21.033-.033.583-1.223 1.245-2.694L8 3.578l.68 1.533c.374.844.684 1.538.69 1.544.006.006.688.117 1.517.246.83.13 1.507.253 1.507.274 0 .021-.491.518-1.091 1.104L10.21 9.345l.25 1.69c.137.928.24 1.697.23 1.709-.012.011-.617-.314-1.345-.722s-1.351-.742-1.385-.743c-.033 0-.662.333-1.396.74-.735.407-1.348.74-1.364.74-.015 0-.017-.03-.005-.068z" fill-opacity=".502" style="fill:#fee581;fill-opacity:1"/></svg>