<?xml version="1.0" encoding="UTF-8" standalone="no"?>
<svg
   xmlns:dc="http://purl.org/dc/elements/1.1/"
   xmlns:cc="http://creativecommons.org/ns#"
   xmlns:rdf="http://www.w3.org/1999/02/22-rdf-syntax-ns#"
   xmlns:svg="http://www.w3.org/2000/svg"
   xmlns="http://www.w3.org/2000/svg"
   xmlns:xlink="http://www.w3.org/1999/xlink"
   xmlns:sodipodi="http://sodipodi.sourceforge.net/DTD/sodipodi-0.dtd"
   xmlns:inkscape="http://www.inkscape.org/namespaces/inkscape"
   height="32"
   viewBox="0 0 32 32"
   width="32"
   version="1.1"
   id="svg4"
   sodipodi:docname="bold.svg"
   inkscape:export-filename="/home/jupiter007/Libreoffice yaru theme fullcolor/build/cmd/32/ca/bold.png"
   inkscape:export-xdpi="96"
   inkscape:export-ydpi="96"
   inkscape:version="1.0.1 (3bc2e813f5, 2020-09-07)">
  <metadata
     id="metadata10">
    <rdf:RDF>
      <cc:Work
         rdf:about="">
        <dc:format>image/svg+xml</dc:format>
        <dc:type
           rdf:resource="http://purl.org/dc/dcmitype/StillImage" />
        <dc:title></dc:title>
      </cc:Work>
    </rdf:RDF>
  </metadata>
  <defs
     id="defs8">
    <linearGradient
       inkscape:collect="always"
       id="linearGradient836">
      <stop
         style="stop-color:#151515;stop-opacity:1"
         offset="0"
         id="stop832" />
      <stop
         style="stop-color:#4d4d4d;stop-opacity:1"
         offset="1"
         id="stop834" />
    </linearGradient>
    <linearGradient
       inkscape:collect="always"
       xlink:href="#linearGradient836"
       id="linearGradient838"
       x1="27"
       y1="4"
       x2="27"
       y2="28"
       gradientUnits="userSpaceOnUse" />
  </defs>
  <sodipodi:namedview
     pagecolor="#808080"
     bordercolor="#666666"
     borderopacity="1"
     objecttolerance="10"
     gridtolerance="10"
     guidetolerance="10"
     inkscape:pageopacity="0"
     inkscape:pageshadow="2"
     inkscape:window-width="1920"
     inkscape:window-height="1043"
     id="namedview6"
     showgrid="true"
     inkscape:zoom="20.85965"
     inkscape:cx="15.319266"
     inkscape:cy="17.609579"
     inkscape:window-x="1920"
     inkscape:window-y="0"
     inkscape:window-maximized="1"
     inkscape:current-layer="svg4"
     inkscape:document-rotation="0">
    <inkscape:grid
       type="xygrid"
       id="grid817" />
  </sodipodi:namedview>
  <path
     style="fill:#000000;stroke:#ffffff;opacity:1;stroke-width:2;stroke-miterlimit:4;stroke-dasharray:none;stroke-linejoin:round"
     id="path819"
     stroke-width="1.5"
     fill="#232629"
     d="m5 4v24h5v-14.223633c0-.638554-.038239-1.33016-.1142575-2.077148l12.7988275 15.486327c.253394.289159.508325.500283.761718.632813.266065.120482.594548.181641.987305.181641h2.566407v-24h-5v14.059571c0 .710844.03531 1.463608.11133 2.258788l-12.8164079-15.5771481c-.1393665-.1566261-.2668327-.2844734-.3808596-.3808593-.1013582-.0963853-.2131467-.1686039-.3398437-.216797-.1140272-.0602408-.2493312-.0963504-.4013672-.1083984-.1520361-.024097-.3353972-.0351562-.5507812-.0351562z" />
  <path
     d="m5 4v24h5v-14.223633c0-.638554-.038239-1.33016-.1142575-2.077148l12.7988275 15.486327c.253394.289159.508325.500283.761718.632813.266065.120482.594548.181641.987305.181641h2.566407v-24h-5v14.059571c0 .710844.03531 1.463608.11133 2.258788l-12.8164079-15.5771481c-.1393665-.1566261-.2668327-.2844734-.3808596-.3808593-.1013582-.0963853-.2131467-.1686039-.3398437-.216797-.1140272-.0602408-.2493312-.0963504-.4013672-.1083984-.1520361-.024097-.3353972-.0351562-.5507812-.0351562z"
     fill="#232629"
     stroke-width="1.5"
     id="path2"
     style="fill:url(#linearGradient838);fill-opacity:1" />
</svg>
