<?xml version="1.0" encoding="UTF-8" standalone="no"?>
<svg
   xmlns:dc="http://purl.org/dc/elements/1.1/"
   xmlns:cc="http://creativecommons.org/ns#"
   xmlns:rdf="http://www.w3.org/1999/02/22-rdf-syntax-ns#"
   xmlns:svg="http://www.w3.org/2000/svg"
   xmlns="http://www.w3.org/2000/svg"
   xmlns:xlink="http://www.w3.org/1999/xlink"
   xmlns:sodipodi="http://sodipodi.sourceforge.net/DTD/sodipodi-0.dtd"
   xmlns:inkscape="http://www.inkscape.org/namespaces/inkscape"
   viewBox="0 0 32 32"
   version="1.1"
   id="svg4"
   sodipodi:docname="underline.svg"
   inkscape:export-filename="/home/jupiter007/Libreoffice yaru theme fullcolor/build/cmd/32/ca/underline.png"
   inkscape:export-xdpi="95"
   inkscape:export-ydpi="95"
   inkscape:version="1.0.1 (3bc2e813f5, 2020-09-07)">
  <metadata
     id="metadata10">
    <rdf:RDF>
      <cc:Work
         rdf:about="">
        <dc:format>image/svg+xml</dc:format>
        <dc:type
           rdf:resource="http://purl.org/dc/dcmitype/StillImage" />
        <dc:title></dc:title>
      </cc:Work>
    </rdf:RDF>
  </metadata>
  <defs
     id="defs8">
    <radialGradient
       id="a"
       cx="10.903473"
       cy="14.502974"
       gradientTransform="matrix(-1.709666,0.09708959,-0.15502467,-2.8523761,39.32894,44.039639)"
       gradientUnits="userSpaceOnUse"
       r="6.2253389"
       xlink:href="#b" />
    <linearGradient
       id="b">
      <stop
         offset="0"
         stop-color="#555"
         id="stop3" />
      <stop
         offset="1"
         stop-color="#666"
         id="stop5" />
    </linearGradient>
    <linearGradient
       inkscape:collect="always"
       xlink:href="#linearGradient842"
       id="linearGradient844"
       x1="16"
       y1="4"
       x2="16"
       y2="26.986"
       gradientUnits="userSpaceOnUse"
       gradientTransform="translate(0,1.014)" />
    <linearGradient
       inkscape:collect="always"
       id="linearGradient842">
      <stop
         style="stop-color:#151515;stop-opacity:1"
         offset="0"
         id="stop838" />
      <stop
         style="stop-color:#4d4d4d;stop-opacity:1"
         offset="1"
         id="stop840" />
    </linearGradient>
  </defs>
  <sodipodi:namedview
     pagecolor="#808080"
     bordercolor="#666666"
     borderopacity="1"
     objecttolerance="10"
     gridtolerance="10"
     guidetolerance="10"
     inkscape:pageopacity="0"
     inkscape:pageshadow="2"
     inkscape:window-width="1920"
     inkscape:window-height="1043"
     id="namedview6"
     showgrid="true"
     inkscape:zoom="32.000002"
     inkscape:cx="20.972844"
     inkscape:cy="25.393631"
     inkscape:window-x="1920"
     inkscape:window-y="0"
     inkscape:window-maximized="1"
     inkscape:current-layer="svg4"
     inkscape:document-rotation="0">
    <inkscape:grid
       type="xygrid"
       id="grid830" />
  </sodipodi:namedview>
  <path
     id="rect836"
     style="opacity:1;fill:#000000;fill-opacity:1;stroke:#ffffff;stroke-width:2;stroke-linejoin:round;stroke-miterlimit:4;stroke-dasharray:none;stroke-opacity:1"
     d="m 7,27.014 v 1 h 18 v -1 z"
     sodipodi:nodetypes="ccccc" />
  <path
     d="m 22.049542,19.540937 c 0,0.861093 -0.180341,1.633414 -0.541024,2.316963 -0.350378,0.674671 -0.855334,1.247254 -1.514867,1.717747 -0.659534,0.470495 -1.463341,0.830024 -2.411421,1.078587 -0.948079,0.239685 -1.68017,0.359528 -2.865271,0.359528 -1.143879,0 -2.215622,-0.0799 -3.215228,-0.239685 C 10.51243,24.623164 9.68286,24.396794 9.01302,24.094967 l -0.0078,-2.226409 c 0.350378,0.142037 0.747129,0.284073 1.190253,0.426108 0.45343,0.13316 0.927469,0.253003 1.422119,0.359529 0.494651,0.106528 1.004759,0.1953 1.530325,0.266318 0.525567,0.06214 1.045981,0.09321 1.561241,0.09321 1.648835,0 2.530354,-0.266318 3.31355,-0.798954 0.793502,-0.532634 1.198066,-1.439896 1.198066,-2.434148 0,-0.479371 -0.07729,-0.896602 -0.231868,-1.251693 C 18.84462,18.17384 18.581836,17.849822 18.200543,17.556873 17.829555,17.255046 17.329752,16.966536 16.701134,16.691341 16.072515,16.407268 15.34562,16.101003 14.387235,15.772545 13.470071,15.461841 12.671417,15.124505 11.991272,14.760538 11.321433,14.387693 10.764952,13.970462 10.321828,13.508845 9.889007,13.047229 9.564393,12.523471 9.347983,11.937572 9.141879,11.351673 9.038827,10.685879 9.038827,9.94019 9.038827,9.158992 9.20371,8.462128 9.533477,7.849597 9.863244,7.237067 10.32698,6.722186 10.924683,6.304955 11.522385,5.878848 12.233445,5.554828 13.057862,5.332896 13.892585,5.110965 15.077642,5 16.077248,5 c 1.226321,0 2.328979,0.102088 3.307974,0.306264 0.978995,0.1953 1.849786,0.448302 2.612373,0.759006 L 20.961921,7.978484 C 20.292082,7.721043 19.529497,7.499111 18.674164,7.312688 c -0.845029,-0.1953 -1.720973,-0.29295 -2.627832,-0.29295 -1.257237,0 -2.498972,0.253002 -3.189421,0.759006 -0.69045,0.497127 -1.035675,1.33586 -1.035675,2.188076 0,0.506003 0.07729,0.945427 0.231868,1.318272 0.154578,0.363968 0.412208,0.696865 0.772891,0.998691 0.360683,0.292949 0.834723,0.572583 1.42212,0.8389 0.597703,0.25744 1.262767,0.532635 2.128404,0.825584 0.937775,0.319581 1.75704,0.64804 2.457794,0.985375 0.711061,0.337335 1.303611,0.719058 1.77765,1.145167 0.474041,0.426108 0.829572,0.918795 1.066591,1.478062 0.247325,0.559267 0.370988,1.220622 0.370988,1.984066 z"
     id="path832"
     style="opacity:1;fill:#000000;stroke:#ffffff;stroke-width:2;stroke-linejoin:round;stroke-miterlimit:4;stroke-dasharray:none;stroke-opacity:1"
     inkscape:connector-curvature="0"
     sodipodi:nodetypes="scscsccccccscscccccccscccsccccscscccccccs" />
  <path
     id="rect834"
     style="opacity:1;fill:url(#linearGradient844);fill-opacity:1;stroke:none;stroke-width:2;stroke-linejoin:round;stroke-miterlimit:4;stroke-dasharray:none;stroke-opacity:1"
     d="m 16.078125,5.0003281 c -0.999606,0 -2.184808,0.1101003 -3.019531,0.3320313 -0.824417,0.221932 -1.537064,0.5465492 -2.134766,0.9726562 -0.597703,0.417231 -1.060857,0.9323919 -1.390625,1.5449219 -0.329767,0.612531 -0.494141,1.3086458 -0.494141,2.0898437 0,0.7456888 0.10249,1.4121478 0.308594,1.9980468 0.21641,0.585899 0.541789,1.108697 0.97461,1.570313 0.443124,0.461617 1.000083,0.879108 1.669922,1.251953 0.680144,0.363967 1.477367,0.701015 2.394531,1.011718 0.958385,0.328458 1.685834,0.635849 2.314453,0.919922 0.628618,0.275195 1.129012,0.563408 1.5,0.865235 0.381293,0.292949 0.642833,0.617568 0.787109,0.972656 0.154578,0.355091 0.232422,0.772582 0.232422,1.251953 0,0.994252 -0.403763,1.90096 -1.197265,2.433594 -0.783197,0.532636 -1.665619,0.798828 -3.314454,0.798828 -0.51526,0 -1.034979,-0.03161 -1.560546,-0.09375 -0.525566,-0.07102 -1.0366,-0.159097 -1.53125,-0.265625 C 11.122537,22.548099 10.648743,22.42841 10.195312,22.29525 9.752188,22.153215 9.356237,22.011506 9.005859,21.869469 l 0.0078,2.224609 c 0.66984,0.301827 1.498981,0.528775 2.488281,0.679688 0.999619,0.159785 2.070978,0.240234 3.214857,0.240234 1.185101,0 1.917155,-0.11969 2.865234,-0.359375 0.94808,-0.248563 1.752576,-0.60763 2.41211,-1.078125 0.659533,-0.470493 1.163294,-1.044079 1.513671,-1.71875 0.360683,-0.683549 0.541016,-1.455313 0.541016,-2.316406 0,-0.763444 -0.123769,-1.425108 -0.371094,-1.984375 -0.237019,-0.559267 -0.592365,-1.052408 -1.066406,-1.478516 -0.474039,-0.426109 -1.066283,-0.807196 -1.777344,-1.144531 -0.700754,-0.337335 -1.519256,-0.666747 -2.457031,-0.986328 -0.865637,-0.292949 -1.531203,-0.566779 -2.128906,-0.824219 -0.587397,-0.266317 -1.061192,-0.546895 -1.421875,-0.839844 -0.360683,-0.301826 -0.61886,-0.634079 -0.773438,-0.998047 -0.154578,-0.372845 -0.232422,-0.812356 -0.232422,-1.318359 1e-6,-0.852216 0.34666,-1.690373 1.03711,-2.1875 0.690449,-0.506004 1.932216,-0.7597656 3.189453,-0.7597656 0.906859,0 1.781924,0.097669 2.626953,0.2929687 0.855333,0.186423 1.619224,0.4085746 2.289063,0.6660157 L 21.998047,6.0647812 C 21.23546,5.7540773 20.363761,5.5022687 19.384766,5.3069688 18.405771,5.1027927 17.304446,5.0003281 16.078125,5.0003281 Z M 7,27.014 v 1 h 18 v -1 z"
     sodipodi:nodetypes="sccsscccccccscscsccccscscscscccccscsccccsccccc" />
</svg>
