<svg xmlns="http://www.w3.org/2000/svg" width="16" height="16" viewBox="0 0 4.233 4.233"><path style="line-height:normal;font-variant-ligatures:normal;font-variant-position:normal;font-variant-caps:normal;font-variant-numeric:normal;font-variant-alternates:normal;font-feature-settings:normal;text-indent:0;text-align:start;text-decoration-line:none;text-decoration-style:solid;text-decoration-color:#000;text-transform:none;text-orientation:mixed;white-space:normal;shape-padding:0;isolation:auto;mix-blend-mode:normal;solid-color:#000;solid-opacity:1" d="M2.646 1.323H.529a.265.265 0 00-.187.078l-.264.264A.265.265 0 000 1.852V3.97c0 .145.118.263.264.263H2.38a.268.268 0 00.187-.078l.264-.263a.265.265 0 00.078-.188V1.588a.285.285 0 00-.264-.265zM.529 2.382h1.323v1.322H.529z" color="#000" font-weight="400" font-family="sans-serif" overflow="visible" fill="#1463a5"/><path fill="#fff" fill-rule="evenodd" d="M.265 2.116h1.852v1.852H.265z"/><path d="M.265 1.852l.264-.264h1.918l-.264.264zM2.646 1.786l-.265.265v1.918l.265-.265z" fill="#b6b6b6"/></svg>