<svg xmlns="http://www.w3.org/2000/svg" height="16" width="16"><path fill="#fff" fill-rule="evenodd" d="M5 5h8v8H5z"/><path fill="#fff" fill-rule="evenodd" d="M3 3h8v8H3z"/><path d="M12 4v1h1v8H5v-1H4v2h10V4z" fill="#232629"/><text x="420.15" y="547.548" transform="translate(-421.714 -531.79)"></text><text x="420.887" y="541.685" transform="translate(-421.714 -531.79)"></text><path d="M2 2v10h10V2zm1 1h8v8H3V9.281z" fill="#232629"/><path d="M5 4a1 1 0 100 2 1 1 0 000-2zm4 2L5.656 9.344 4.313 8H4.28l-1.28 1.281L2.999 11h8V8L9 6z" fill="#762572"/></svg>