<svg xmlns="http://www.w3.org/2000/svg" xmlns:xlink="http://www.w3.org/1999/xlink" height="32" width="32"><linearGradient id="a"><stop offset="0"/><stop offset="1" stop-opacity="0"/></linearGradient><linearGradient id="b" xlink:href="#a"/><path style="font-style:normal;font-variant:normal;font-weight:400;font-stretch:normal;font-size:15px;line-height:125%;font-family:Ubuntu;-inkscape-font-specification:Ubuntu;text-align:center;letter-spacing:0;word-spacing:0;writing-mode:lr-tb;text-anchor:middle;display:inline;opacity:.7;fill:#000;fill-opacity:1;stroke:none;stroke-width:.99980211" d="M6.994 3c-1.258.014-2.179-.03-2.931.385a1.88 1.88 0 0 0-.838.998C3.06 4.82 3 5.343 3 6v19c0 .658.06 1.179.225 1.617.164.439.461.789.837.996.753.415 1.674.372 2.932.387h18.012c1.258-.015 2.179.03 2.931-.385a1.88 1.88 0 0 0 .838-.998c.165-.438.225-.96.225-1.617V7.68l-3 2.4V6h-7V3H6.994z"/><path style="opacity:1;vector-effect:none;fill:#fff;fill-opacity:1;stroke:none;stroke-width:1;stroke-linecap:round;stroke-linejoin:bevel;stroke-miterlimit:4;stroke-dasharray:none;stroke-dashoffset:0;stroke-opacity:1" d="M11.982 4.027c-1.556.011-5.108-.013-6.658.037-.461.043-1.017.208-1.156.711-.219.636-.11 1.335-.147 1.983-.007 2.297-.023 16.595.022 18.885.04.462.203 1.013.7 1.164.632.225 1.283.122 1.935.154 1.424.007 12.851.011 14.277.012 1.705 0 3.409-.006 5.108-.02.511-.012 1.182.02 1.583-.404.422-.54.287-1.269.323-1.904.01-2.037.015-11.31-.01-16.131L26 10.08V6h-7V4.033l-7.018-.006z"/><path style="fill:#232629;stroke-width:1.37436855" d="M9 10v1h17v-1z"/><path style="fill:#232629" d="M6 13v1h8v-1zM17 17v1h9v-1z"/><path style="fill:#c7162b" d="M26 7v1h-7V7zM6 10v1h2v-1z"/><path style="fill:#c7162b;stroke-width:1.91485417" d="M15 13v1h11v-1z"/><path style="fill:#c7162b;stroke-width:2.23606801" d="M6 17v1h10v-1z"/><path d="M18 7v1H6V7z" style="fill:#232629;stroke-width:1.15470052"/><path d="M9 23v1h17v-1z" style="fill:#232629;stroke-width:1.37436855"/><path d="M26 20v1h-7v-1z" style="fill:#c7162b"/><path style="fill:#232629;stroke-width:1.15470052" d="M18 20v1H6v-1z"/><circle style="opacity:1;fill:#46a926;fill-opacity:1;fill-rule:nonzero;stroke:none;stroke-width:2.25000048;stroke-linecap:round;stroke-linejoin:round;stroke-miterlimit:4;stroke-dasharray:none;stroke-opacity:.98705498" cx="26.5" cy="26.5" r="4.5"/><path style="color:#000;font-style:normal;font-variant:normal;font-weight:400;font-stretch:normal;font-size:medium;line-height:normal;font-family:sans-serif;font-variant-ligatures:normal;font-variant-position:normal;font-variant-caps:normal;font-variant-numeric:normal;font-variant-alternates:normal;font-feature-settings:normal;text-indent:0;text-align:start;text-decoration:none;text-decoration-line:none;text-decoration-style:solid;text-decoration-color:#000;letter-spacing:normal;word-spacing:normal;text-transform:none;writing-mode:lr-tb;direction:ltr;text-orientation:mixed;dominant-baseline:auto;baseline-shift:baseline;text-anchor:start;white-space:normal;shape-padding:0;clip-rule:nonzero;display:inline;overflow:visible;visibility:visible;opacity:1;isolation:auto;mix-blend-mode:normal;color-interpolation:sRGB;color-interpolation-filters:linearRGB;solid-color:#000;solid-opacity:1;vector-effect:none;fill:#fff;fill-opacity:1;fill-rule:nonzero;stroke:none;stroke-width:1.50000024;stroke-linecap:butt;stroke-linejoin:miter;stroke-miterlimit:4;stroke-dasharray:none;stroke-dashoffset:0;stroke-opacity:1;marker:none;color-rendering:auto;image-rendering:auto;shape-rendering:auto;text-rendering:auto;enable-background:accumulate" d="m28.85 23.964-3.411 3.405-1.29-1.285-.834.834 2.124 2.118 4.246-4.238z"/><path style="fill:#DA3450;fill-opacity:1;stroke:none;stroke-width:1px;stroke-linecap:butt;stroke-linejoin:miter;stroke-opacity:1" d="m32 4-5 4V5h-7V3h7V0z"/></svg>