<svg xmlns="http://www.w3.org/2000/svg" viewBox="0 0 32 32"><path d="M9.5 5.5h13v20h-13z" style="fill:#b549b5;fill-opacity:1"/><path style="opacity:.7" d="M5.5 4a.5.5 0 0 0-.5.5v22a.5.5 0 0 0 .5.5h21a.5.5 0 0 0 .5-.5v-22a.5.5 0 0 0-.5-.5H8ZM7 6h2v1H7Zm3 0h12v19H10Zm13 0h2v1h-2ZM7 9h2v1H7Zm16 0h2v1h-2ZM7 12h2v1H7Zm16 0h2v1h-2ZM7 15h2v1H7Zm16 0h2v1h-2ZM7 18h2v1H7Zm16 0h2v1h-2ZM7 21h2v1H7Zm16 0h2v1h-2ZM7 24h2v1H7Zm16 0h2v1h-2z"/><path d="M23 24h2v1h-2zm0-3h2v1h-2zm0-3h2v1h-2ZM7 24h2v1H7Zm0-3h2v1H7Zm0-3h2v1H7Zm0-3h2v1H7Zm0-3h2v1H7Zm0-3h2v1H7Zm0-3h2v1H7Z" style="opacity:1;fill:#fff"/><path display="block" d="M10.5 15.5h11" style="display:block;opacity:.7;fill:none;stroke:#000;stroke-linecap:square;stroke-linejoin:round"/><path style="opacity:1;fill:#fff;fill-opacity:1;fill-rule:evenodd;stroke:none;stroke-width:2;stroke-linecap:butt;stroke-linejoin:round;stroke-miterlimit:4;stroke-dasharray:none;stroke-opacity:1" d="M23 15h2v1h-2zM23 12h2v1h-2zM23 9h2v1h-2zM23 6h2v1h-2z"/></svg>