<svg xmlns="http://www.w3.org/2000/svg" viewBox="0 0 32 32"><path d="M6.994 3c-1.258.015-2.179-.03-2.931.384-.377.208-.674.56-.838.998C3.06 4.821 3 5.342 3 6V26.001c0 .657.06 1.178.225 1.617.164.438.461.788.838.996.752.415 1.673.371 2.931.387h18.012c1.258-.016 2.179.03 2.931-.385.377-.208.674-.56.838-.998.165-.439.225-.96.225-1.617V5.999c0-.657-.06-1.178-.225-1.617a1.875 1.875 0 0 0-.838-.996c-.752-.415-1.673-.371-2.931-.387H6.998z" style="font-style:normal;font-variant:normal;font-weight:400;font-stretch:normal;font-size:15px;line-height:125%;font-family:Ubuntu;-inkscape-font-specification:Ubuntu;text-align:center;letter-spacing:0;word-spacing:0;writing-mode:lr-tb;text-anchor:middle;display:inline;opacity:.7;fill:#000;fill-opacity:1;stroke:none;stroke-width:.99980205"/><path d="M9.983 4.027c-1.556.011-3.11-.012-4.66.039-.46.042-1.016.206-1.155.71-.219.635-.108 1.333-.146 1.981-.008 2.298-.023 17.597.022 19.887.039.462.202 1.012.699 1.163.632.226 1.284.123 1.936.155 1.424.007 4.85.011 6.276.011 1.705 0 11.408-.004 13.107-.019.512-.011 1.184.019 1.585-.405.421-.54.287-1.268.323-1.904.011-2.444.027-17.912-.022-20.357-.05-.402-.17-.863-.575-1.045-.669-.294-1.427-.168-2.126-.205-1.755-.012-13.51-.012-15.264-.012z" style="opacity:1;vector-effect:none;fill:#fff;fill-opacity:1;stroke:none;stroke-width:1;stroke-linecap:round;stroke-linejoin:bevel;stroke-miterlimit:4;stroke-dasharray:none;stroke-dashoffset:0;stroke-opacity:1"/><path style="opacity:1;fill:#1a7fd4;fill-opacity:1;fill-rule:evenodd;stroke:none;stroke-width:2.44948983;stroke-linecap:butt;stroke-linejoin:round;stroke-miterlimit:4;stroke-dasharray:none;stroke-opacity:1" d="M7 9h18v2H7z"/><path style="opacity:1;fill:#1a7fd4;fill-opacity:1;fill-rule:evenodd;stroke:none;stroke-width:1.6329931;stroke-linecap:butt;stroke-linejoin:round;stroke-miterlimit:4;stroke-dasharray:none;stroke-opacity:1" d="M7 15h8v2H7z"/><path style="opacity:1;fill:#1a7fd4;fill-opacity:1;fill-rule:evenodd;stroke:none;stroke-width:2.08166599;stroke-linecap:butt;stroke-linejoin:round;stroke-miterlimit:4;stroke-dasharray:none;stroke-opacity:1" d="M7 21h13v2H7z"/></svg>