<svg viewBox="0 0 32 32" xmlns:xlink="http://www.w3.org/1999/xlink" xmlns="http://www.w3.org/2000/svg"><defs><linearGradient y2="316.932" x2="702.214" y1="316.932" x1="609.786" gradientUnits="userSpaceOnUse" id="b" xlink:href="#a"/><linearGradient id="a"><stop offset="0" style="stop-color:#5884f4;stop-opacity:1"/><stop style="stop-color:#5884f4;stop-opacity:1" offset=".308"/><stop offset=".308" style="stop-color:#2f5fdd;stop-opacity:1"/><stop style="stop-color:#2f5fdd;stop-opacity:1" offset=".692"/><stop style="stop-color:#234db8;stop-opacity:1" offset=".692"/><stop offset="1" style="stop-color:#234db8;stop-opacity:1"/></linearGradient></defs><path d="M7 3c-1.258.014-2.179-.03-2.932.385a1.88 1.88 0 0 0-.838.998c-.164.438-.224.96-.224 1.617v19.001c0 .657.06 1.178.224 1.617.165.438.462.788.838.996.753.415 1.674.372 2.932.387h18.012c1.258-.015 2.179.03 2.931-.385a1.88 1.88 0 0 0 .838-.998c.165-.439.225-.96.225-1.617V6c0-.658-.06-1.179-.225-1.617a1.875 1.875 0 0 0-.838-.996c-.752-.415-1.673-.372-2.931-.387H7.004z" style="font-style:normal;font-variant:normal;font-weight:400;font-stretch:normal;font-size:15px;line-height:125%;font-family:Ubuntu;-inkscape-font-specification:Ubuntu;text-align:center;letter-spacing:0;word-spacing:0;writing-mode:lr-tb;text-anchor:middle;display:inline;opacity:.7;fill:#000;fill-opacity:1;stroke:none;stroke-width:.99980211"/><path d="M11.99 4.027c-1.557.011-5.11-.012-6.66.039-.462.043-1.017.206-1.156.71-.219.635-.108 1.334-.146 1.982-.008 2.297-.023 16.596.022 18.886.039.462.202 1.012.698 1.163.633.225 1.285.123 1.936.155 1.425.006 12.851.01 14.277.01 1.704.001 3.408-.004 5.107-.018.512-.012 1.184.02 1.585-.405.42-.54.287-1.268.323-1.904.011-2.444.027-16.91-.022-19.356-.05-.402-.17-.863-.576-1.045-.668-.294-1.426-.168-2.125-.205-1.755-.012-11.51-.013-13.264-.012Z" style="opacity:1;vector-effect:none;fill:#fff;fill-opacity:1;stroke:none;stroke-width:1;stroke-linecap:round;stroke-linejoin:bevel;stroke-miterlimit:4;stroke-dasharray:none;stroke-dashoffset:0;stroke-opacity:1"/><path d="M11 14v1h15v-1z" style="fill:#232629;fill-opacity:1;stroke-width:.86602539"/><path d="M11 16v1h12v-1z" style="fill:#232629;fill-opacity:1;stroke-width:.866025"/><circle r="1.5" cy="15.5" cx="7.5" style="opacity:1;fill:#232629;fill-opacity:1;stroke:none;stroke-width:2;stroke-linecap:round;stroke-linejoin:round;stroke-miterlimit:4;stroke-dasharray:none;stroke-opacity:1"/><path style="fill:#232629;stroke-width:.866025" d="M11 8v1h15V8zM11 10v1h12v-1z"/><path style="fill:#232629;stroke-width:.866025;fill-opacity:1" d="M11 22v1h12v-1z"/><circle style="fill:#232629;fill-opacity:1;stroke:none;stroke-width:2;stroke-linecap:round;stroke-linejoin:round;stroke-miterlimit:4;stroke-dasharray:none;stroke-opacity:1" cx="7.5" cy="9.5" r="1.5"/><path style="fill:#232629;stroke-width:.866025;fill-opacity:1" d="M11 20v1h15v-1z"/><circle style="fill:#232629;fill-opacity:1;stroke:none;stroke-width:2;stroke-linecap:round;stroke-linejoin:round;stroke-miterlimit:4;stroke-dasharray:none;stroke-opacity:1" cx="7.5" cy="21.5" r="1.5"/><g style="display:inline;stroke-width:9.71429;enable-background:new"><path style="fill:#fee1c2;fill-opacity:1;stroke:none;stroke-width:9.71429" d="M702.219 319.356 656 400.493l-46.214-81.137.444-28.635h92.433z" transform="matrix(.06093 .03518 -.03815 .06608 -8.69 -17.541)"/><path style="color:#000;display:inline;overflow:visible;visibility:visible;fill:#5d5d5d;fill-opacity:1;fill-rule:nonzero;stroke:none;stroke-width:11.6685;marker:none;enable-background:accumulate" d="M641.301 374.677 656 400.493l14.699-25.816s1.12-2.766-1.74-2.766c-2.86 0-5.694 3.688-5.694 3.688s-1.494-4.61-7.234-4.61-7.234 4.61-7.234 4.61-2.897-3.688-5.782-3.688c-2.886 0-1.714 2.766-1.714 2.766z" transform="matrix(.06093 .03518 -.03815 .06608 -8.69 -17.541)"/><path style="fill:url(#b);fill-opacity:1;stroke:none;stroke-width:9.71429" d="M609.786 306.25c0-7.376 28.428-3.688 28.428 7.377 0-18.44 35.534-18.44 35.534 0 0-11.065 28.47-14.753 28.47-7.377V67.93h-92.432z" transform="matrix(.06093 .03518 -.03815 .06608 -8.69 -17.541)"/></g></svg>