<svg height="32" width="32" xmlns="http://www.w3.org/2000/svg"><path style="color:#000;opacity:.7;fill:#000;stroke-width:2;stroke-linejoin:round;-inkscape-stroke:none" d="M20.277.996c-.698 0-1.33.038-1.974.36-.43.214-.82.612-1.03 1.081-.208.47-.273.98-.273 1.563v10c0 .583.065 1.093.273 1.563.21.47.6.867 1.03 1.082.655.327 1.3.36 2.013.359l2.903-3.629A1 1 0 0 1 24 13a1 1 0 0 1 .781.375l2.903 3.629c.713.002 1.358-.032 2.013-.36.43-.214.82-.612 1.03-1.081.208-.47.273-.98.273-1.563V6a1 1 0 0 0-.293-.707l-1-1-2-2-1-1A1 1 0 0 0 26 1h-5c-.25 0-.49-.004-.723-.004z"/><path style="fill:#fff" d="M21 2c-2 0-3 0-3 2v10c0 2 1 2 3 2h.12l2.099-2.625A1 1 0 0 1 24 13a1 1 0 0 1 .781.375l2.1 2.625H27c2 0 3 0 3-2V6l-1-1-2-2-1-1h-5z"/><path d="M26 6V2l4 4z" style="fill:#6d6d6d;fill-opacity:1"/><path style="color:#000;opacity:.7;fill:#000;stroke-width:2;stroke-linejoin:round;-inkscape-stroke:none" d="M7.277 12.996c-.698 0-1.33.038-1.974.36-.43.214-.82.612-1.03 1.082C4.065 14.908 4 15.416 4 16v10c0 .583.065 1.093.273 1.563.21.47.6.867 1.03 1.082C6.16 29.073 7 29 8 29h6c1 0 1.84.073 2.697-.355.43-.215.82-.613 1.03-1.082.08-.181.139-.368.181-.563H17a1 1 0 0 1-1-.992l-.016-2.018a1 1 0 0 1 1.004-1.008l1.012.004V18a1 1 0 0 0-.293-.707l-1-1-2-2-1-1A1 1 0 0 0 13 13H8c-.25 0-.49-.004-.723-.004z"/><path style="fill:#fff" d="M8 14c-2 0-3 0-3 2v10c0 2 1 2 3 2h6c1.6 0 2.556-.003 2.877-1.025a1 1 0 0 1-.877-.967l-.016-2.018a1 1 0 0 1 1.004-1.008H17V18l-1-1-2-2-1-1H8z"/><path d="M13 18v-4l4 4z" style="fill:#6d6d6d;fill-opacity:1"/><path style="opacity:.7;fill:#000;stroke:#000;stroke-width:2;stroke-linejoin:round;stroke-miterlimit:4;stroke-dasharray:none" d="M5 30c-2 0-3 0-3-2V18c0-2 1-2 3-2h5l1 1 2 2 1 1v8c0 2-1 2-3 2z"/><path d="M5 30c-2 0-3 0-3-2V18c0-2 1-2 3-2h5l1 1 2 2 1 1v8c0 2-1 2-3 2z" style="fill:#fff"/><path d="M10 20v-4l4 4z" style="fill:#6d6d6d;fill-opacity:1"/><path style="fill:#DA3450;fill-opacity:1;stroke:none;stroke-width:1px;stroke-linecap:butt;stroke-linejoin:miter;stroke-opacity:1" d="m15.983 16.015 4-5h-8zM16.983 11.015l.015-4c0-2-1-3-3-3H8.983l-.015 2.017 4.03-.017c2 0 2 0 2 2l-.015 3z" transform="matrix(1 0 0 -1 8.017 30.015)"/></svg>