<svg xmlns="http://www.w3.org/2000/svg" viewBox="0 0 32 32"><path d="M8 6c-1.258.014-2.179-.031-2.932.384a1.88 1.88 0 0 0-.837.998c-.165.44-.225.96-.225 1.618v12c0 .658.06 1.179.225 1.618.164.438.461.788.837.996.753.415 1.674.371 2.932.386h16.012c1.258-.014 2.179.031 2.932-.384a1.88 1.88 0 0 0 .837-.998c.165-.44.225-.96.225-1.618V9c0-.658-.06-1.179-.225-1.618a1.875 1.875 0 0 0-.837-.996c-.753-.415-1.674-.371-2.932-.386H8.004z" style="font-style:normal;font-variant:normal;font-weight:400;font-stretch:normal;font-size:15px;line-height:125%;font-family:Ubuntu;-inkscape-font-specification:Ubuntu;text-align:center;letter-spacing:0;word-spacing:0;writing-mode:lr-tb;text-anchor:middle;display:inline;opacity:.7;fill:#000;fill-opacity:1;stroke:none;stroke-width:.99980211"/><path style="opacity:1;vector-effect:none;fill:#2daaaa;fill-opacity:1;stroke:none;stroke-width:4;stroke-linecap:round;stroke-linejoin:round;stroke-miterlimit:4;stroke-dasharray:none;stroke-dashoffset:0;stroke-opacity:1" d="M5.037 20.062c.003.38.002 1.433.006 1.643.04.462.203 1.013.7 1.164.632.225 1.283.123 1.935.154.3.002.882.001 1.322.002v-2.963z"/><path style="opacity:1;vector-effect:none;fill:#46a926;fill-opacity:1;stroke:none;stroke-width:4;stroke-linecap:round;stroke-linejoin:round;stroke-miterlimit:4;stroke-dasharray:none;stroke-dashoffset:0;stroke-opacity:1" d="M9 20.062v2.963c1.444.005 3.35.01 4.336.01L16 23.031v-2.969z"/><path style="opacity:1;vector-effect:none;fill:#fdc92b;fill-opacity:1;stroke:none;stroke-width:4;stroke-linecap:round;stroke-linejoin:round;stroke-miterlimit:4;stroke-dasharray:none;stroke-dashoffset:0;stroke-opacity:1" d="M16 20.062v2.97c2.434-.002 4.959-.006 7-.013v-2.957z"/><path style="opacity:1;vector-effect:none;fill:#f34f17;fill-opacity:1;stroke:none;stroke-width:4;stroke-linecap:round;stroke-linejoin:round;stroke-miterlimit:4;stroke-dasharray:none;stroke-dashoffset:0;stroke-opacity:1" d="M23 20.062v2.957c.601-.001 1.795 0 2.063-.002.511-.012 1.182.02 1.583-.406.422-.54.287-1.268.323-1.904v-.645z"/><path style="opacity:1;vector-effect:none;fill:#31c6b7;fill-opacity:1;stroke:none;stroke-width:4;stroke-linecap:round;stroke-linejoin:round;stroke-miterlimit:4;stroke-dasharray:none;stroke-dashoffset:0;stroke-opacity:1" d="M5.014 15c0 2.184.008 3.87.023 5.031H9V15Z"/><path style="opacity:1;vector-effect:none;fill:#76c22b;fill-opacity:1;stroke:none;stroke-width:4;stroke-linecap:round;stroke-linejoin:round;stroke-miterlimit:4;stroke-dasharray:none;stroke-dashoffset:0;stroke-opacity:1" d="M9 15h7v5.031H9z"/><path style="opacity:1;vector-effect:none;fill:#ffda64;fill-opacity:1;stroke:none;stroke-width:4;stroke-linecap:round;stroke-linejoin:round;stroke-miterlimit:4;stroke-dasharray:none;stroke-dashoffset:0;stroke-opacity:1" d="M16 15h7v5.031h-7z"/><path style="opacity:1;vector-effect:none;fill:#fb7c38;fill-opacity:1;stroke:none;stroke-width:4;stroke-linecap:round;stroke-linejoin:round;stroke-miterlimit:4;stroke-dasharray:none;stroke-dashoffset:0;stroke-opacity:1" d="M23 15v5.031h3.969c.005-.874.013-2.855.013-5.031Z"/><path style="opacity:1;vector-effect:none;fill:#5bdbc1;fill-opacity:1;stroke:none;stroke-width:3.99999976;stroke-linecap:round;stroke-linejoin:round;stroke-miterlimit:4;stroke-dasharray:none;stroke-dashoffset:0;stroke-opacity:1" d="M5.008 10.031C5.004 10.751 5 12.844 5 15h3.986v-4.969z"/><path style="opacity:1;vector-effect:none;fill:#a6d74f;fill-opacity:1;stroke:none;stroke-width:3.99999976;stroke-linecap:round;stroke-linejoin:round;stroke-miterlimit:4;stroke-dasharray:none;stroke-dashoffset:0;stroke-opacity:1" d="M9 10.031h7V15H9z"/><path style="opacity:1;vector-effect:none;fill:#fee581;fill-opacity:1;stroke:none;stroke-width:3.99999976;stroke-linecap:round;stroke-linejoin:round;stroke-miterlimit:4;stroke-dasharray:none;stroke-dashoffset:0;stroke-opacity:1" d="M16 10.031h7V15h-7z"/><path style="opacity:1;vector-effect:none;fill:#fda463;fill-opacity:1;stroke:none;stroke-width:3.99999976;stroke-linecap:round;stroke-linejoin:round;stroke-miterlimit:4;stroke-dasharray:none;stroke-dashoffset:0;stroke-opacity:1" d="M23.018 10.031V15H27c0-2.149-.013-3.802-.03-4.969z"/><path style="opacity:1;vector-effect:none;fill:#81e9c0;fill-opacity:1;stroke:none;stroke-width:4;stroke-linecap:round;stroke-linejoin:round;stroke-miterlimit:4;stroke-dasharray:none;stroke-dashoffset:0;stroke-opacity:1" d="M8.979 7.07c-1.012.004-2.053.007-2.676.028-.461.042-1.017.205-1.157.709-.219.635-.109 1.334-.146 1.982v.242h3.979z"/><path style="opacity:1;vector-effect:none;fill:#cbe667;fill-opacity:1;stroke:none;stroke-width:4;stroke-linecap:round;stroke-linejoin:round;stroke-miterlimit:4;stroke-dasharray:none;stroke-dashoffset:0;stroke-opacity:1" d="M12.485 7.031c-.815.007-2.17.007-3.485.012v2.96h7V7.036c-1.36 0-3.05-.004-3.515-.004z"/><path style="opacity:1;vector-effect:none;fill:#fff4c9;fill-opacity:1;stroke:none;stroke-width:4;stroke-linecap:round;stroke-linejoin:round;stroke-miterlimit:4;stroke-dasharray:none;stroke-dashoffset:0;stroke-opacity:1" d="M16 7.035v2.969h7V7.04c-1.645-.006-4.291-.005-7-.006z"/><path style="opacity:1;vector-effect:none;fill:#fec589;fill-opacity:1;stroke:none;stroke-width:4;stroke-linecap:round;stroke-linejoin:round;stroke-miterlimit:4;stroke-dasharray:none;stroke-dashoffset:0;stroke-opacity:1" d="M23 7.068v2.963h3.953c-.003-.401-.001-1.483-.006-1.71-.049-.403-.169-.864-.574-1.046-.668-.294-1.427-.167-2.127-.205-.165 0-.953 0-1.246-.002Z"/><path style="color:#000;display:inline;overflow:visible;visibility:visible;opacity:1;fill:#232629;fill-opacity:1;fill-rule:nonzero;stroke:none;stroke-width:18.28524208;marker:none;enable-background:accumulate" d="M12.5 12 8 21h16l-5-7-3 3z"/><path style="opacity:1;vector-effect:none;fill:#232629;fill-opacity:1;stroke:none;stroke-width:4.02895594;stroke-linecap:round;stroke-linejoin:bevel;stroke-miterlimit:4;stroke-dasharray:none;stroke-dashoffset:0;stroke-opacity:1" d="M24.006 11a2.014 2.014 0 0 1-1.91 2.114 2.014 2.014 0 0 1-2.114-1.91 2.014 2.014 0 0 1 1.91-2.114A2.014 2.014 0 0 1 24.005 11"/><g style="display:inline;stroke-width:.63245046"><path style="color:#000;display:inline;overflow:visible;visibility:visible;opacity:1;fill:gray;fill-opacity:1;fill-rule:nonzero;stroke:none;stroke-width:2.00000024;stroke-linecap:butt;stroke-linejoin:miter;stroke-miterlimit:4;stroke-dasharray:none;stroke-dashoffset:0;stroke-opacity:1;marker:none;enable-background:accumulate" d="M13 24v.5c0 2.5-.75 2.5-2.25 2.5H10v1h12v-1h-.75c-1.5 0-2.25 0-2.25-2.5V24h-6z"/></g></svg>