<svg xmlns="http://www.w3.org/2000/svg" viewBox="0 0 32 32"><path d="M3 8v16c0 2.216 1.784 4 4 4h18c2.216 0 4-1.784 4-4V8Z" style="opacity:.7;fill:#000;fill-opacity:1;fill-rule:evenodd;stroke:#000;stroke-width:2;stroke-linecap:butt;stroke-linejoin:round;stroke-miterlimit:4;stroke-dasharray:none;stroke-opacity:1"/><path style="opacity:1;fill:#6d6d6d;fill-opacity:1;fill-rule:evenodd;stroke:none;stroke-width:2;stroke-linecap:butt;stroke-linejoin:round;stroke-miterlimit:4;stroke-dasharray:none;stroke-opacity:1" d="M0 4h32v4H0z"/><path style="opacity:1;fill:#fff;fill-opacity:1;fill-rule:evenodd;stroke:none;stroke-width:2;stroke-linecap:butt;stroke-linejoin:round;stroke-miterlimit:4;stroke-dasharray:none;stroke-opacity:1" d="M3 8v16c0 2.216 1.784 4 4 4h18c2.216 0 4-1.784 4-4V8Z"/><path style="opacity:1;fill:#46a926;fill-opacity:1;fill-rule:evenodd;stroke:none;stroke-width:2;stroke-linecap:butt;stroke-linejoin:round;stroke-miterlimit:4;stroke-dasharray:none;stroke-opacity:1" d="M27 18a6 6 0 0 1-3.704 5.543 6 6 0 0 1-6.539-1.3 6 6 0 0 1-1.3-6.539A6 6 0 0 1 21 12v6z"/><path d="M12-21a6 6 0 0 1 6-6v6z" style="opacity:1;fill:#c7162b;fill-opacity:1;fill-rule:evenodd;stroke:none;stroke-width:2;stroke-linecap:butt;stroke-linejoin:round;stroke-miterlimit:4;stroke-dasharray:none;stroke-opacity:1" transform="rotate(90)"/><path style="opacity:1;fill:#1a7fd4;fill-opacity:1;fill-rule:evenodd;stroke:none;stroke-width:4;stroke-linecap:butt;stroke-linejoin:round;stroke-miterlimit:4;stroke-dasharray:none;stroke-opacity:1" d="M6 13h6v2H6z"/><path style="opacity:1;fill:#c7162b;fill-opacity:1;fill-rule:evenodd;stroke:none;stroke-width:3.99999976;stroke-linecap:butt;stroke-linejoin:round;stroke-miterlimit:4;stroke-dasharray:none;stroke-opacity:1" d="M6 17h6v2H6z"/><path style="opacity:1;fill:#46a926;fill-opacity:1;fill-rule:evenodd;stroke:none;stroke-width:3.99999976;stroke-linecap:butt;stroke-linejoin:round;stroke-miterlimit:4;stroke-dasharray:none;stroke-opacity:1" d="M6 21h6v2H6z"/><path style="opacity:.7;fill:#090909;fill-opacity:1;stroke:#140c0c;stroke-width:2;stroke-linejoin:round;stroke-miterlimit:4;stroke-dasharray:none;stroke-opacity:1" d="M22.31 20.86a10 10 0 0 0-8.685 5.07A10 10 0 0 0 22.311 31 10 10 0 0 0 31 25.936l-.004-.006.004-.006a10 10 0 0 0-8.69-5.065z"/><path d="M22.31 20.86a10 10 0 0 0-8.685 5.07A10 10 0 0 0 22.311 31 10 10 0 0 0 31 25.936l-.004-.006.004-.006a10 10 0 0 0-8.69-5.065z" style="fill:#fff;fill-opacity:1"/><path style="opacity:1;fill:#232629;fill-opacity:1;stroke:none;stroke-width:2;stroke-linecap:round;stroke-linejoin:round;stroke-miterlimit:4;stroke-dasharray:none;stroke-opacity:1" d="M22.313 21.93a4 4 0 0 0-4 4 4 4 0 0 0 4 4 4 4 0 0 0 4-4 4 4 0 0 0-4-4zm0 1a3 3 0 0 1 3 3 3 3 0 0 1-3 3 3 3 0 0 1-3-3 3 3 0 0 1 3-3z"/><path style="opacity:1;fill:#232629;fill-opacity:1;stroke:none;stroke-width:2;stroke-linecap:round;stroke-linejoin:round;stroke-miterlimit:4;stroke-dasharray:none;stroke-opacity:1" d="M22.313 23.93a2 2 0 0 0-2 2 2 2 0 0 0 2 2 2 2 0 0 0 2-2 2 2 0 0 0-.09-.588 1 1 0 0 1-.91.588 1 1 0 0 1-1-1 1 1 0 0 1 .59-.91 2 2 0 0 0-.59-.09z"/></svg>