<svg xmlns="http://www.w3.org/2000/svg" viewBox="0 0 32 32"><path d="M6.994 4.973c-1.258.014-2.179-.031-2.931.384a1.88 1.88 0 0 0-.838.998C3.06 6.795 3 7.315 3 7.973V24.027c0 .658.06 1.179.225 1.618.164.438.461.788.838.996.752.415 1.673.371 2.931.386h18.012c1.258-.014 2.179.031 2.931-.384a1.88 1.88 0 0 0 .838-.998c.165-.44.223-.96.225-1.618V7.973c0-.658-.06-1.179-.225-1.618a1.875 1.875 0 0 0-.837-.996c-.753-.415-1.674-.371-2.932-.386H6.998z" style="font-style:normal;font-variant:normal;font-weight:400;font-stretch:normal;font-size:15px;line-height:125%;font-family:Ubuntu;-inkscape-font-specification:Ubuntu;text-align:center;letter-spacing:0;word-spacing:0;writing-mode:lr-tb;text-anchor:middle;display:inline;opacity:.7;fill:#000;fill-opacity:1;stroke:none;stroke-width:.999802"/><path d="M11.983 6c-1.556.01-5.11-.012-6.66.039-.46.042-1.016.206-1.155.71-.219.635-.108 1.333-.146 1.981-.008 2.297-.023 13.651.022 15.94.039.462.202 1.013.699 1.164.632.225 1.284.123 1.936.154 1.424.007 4.85.011 6.276.012 1.704 0 11.408-.005 13.107-.019.512-.012 1.184.02 1.585-.405.42-.54.287-1.268.323-1.904.011-2.444.027-13.965-.022-16.41-.05-.403-.17-.864-.575-1.045-.669-.294-1.427-.168-2.126-.206A4549.11 4549.11 0 0 0 11.983 6z" style="opacity:1;vector-effect:none;fill:#fff;fill-opacity:1;stroke:none;stroke-width:1;stroke-linecap:round;stroke-linejoin:bevel;stroke-miterlimit:4;stroke-dasharray:none;stroke-dashoffset:0;stroke-opacity:1"/><path style="opacity:1;fill:#DA3450;fill-opacity:1;fill-rule:evenodd;stroke:none;stroke-width:2;stroke-linecap:butt;stroke-linejoin:round;stroke-miterlimit:4;stroke-dasharray:none;stroke-opacity:1" d="M6 10h1v10H6z"/><path style="fill:#232629;fill-opacity:1;fill-rule:evenodd;stroke-width:2;stroke-linecap:round;stroke-linejoin:round" d="M8 8v13H6v1h2v2h1v-2h16v-1h-4v-6h-2v6h-2v-4h-2v4h-2v-8h-2v8H9V8z"/><path style="opacity:1;fill:#DA3450;fill-opacity:1;fill-rule:evenodd;stroke:none;stroke-width:2;stroke-linecap:butt;stroke-linejoin:round;stroke-miterlimit:4;stroke-dasharray:none;stroke-opacity:1" d="M10 23h13v1H10z"/></svg>