<svg xmlns="http://www.w3.org/2000/svg" viewBox="0 0 24 24"><circle cx="12" cy="12" r="10" fill="#4d4d4d" fill-rule="evenodd"/><circle cx="12" cy="12" r="7" opacity=".1" fill="#babeb4" fill-rule="evenodd"/><path d="M12 2a10 10 0 00-5 1.35V5h5zM5 4.889A10 10 0 002 12a10 10 0 0010 10v-3a7 7 0 01-7-7 7 7 0 012.111-5H5zM12 22a10 10 0 005-1.35V19h-5zm7-2.889A10 10 0 0022 12 10 10 0 0012 2v3a7 7 0 017 7 7 7 0 01-2.111 5H19z" fill="#fff" fill-rule="evenodd"/><path d="M12 2A10 10 0 002 12a10 10 0 0010 10 10 10 0 0010-10A10 10 0 0012 2zm0 1a9 9 0 019 9 9 9 0 01-9 9 9 9 0 01-9-9 9 9 0 019-9z" opacity=".2" fill-rule="evenodd"/><path d="M11 6h2l4 10h-2l-3-8-3 8H7z" fill="#ececec"/><path d="M12 8l1-2 4 10h-2z" fill="#4571df" opacity=".1"/><path style="marker:none" d="M7.5 11h9c.831 0 1.5.669 1.5 1.5s-.669 1.5-1.5 1.5h-9c-.831 0-1.5-.669-1.5-1.5S6.669 11 7.5 11z" color="#000" overflow="visible" fill="#f8f8f8"/><path d="M7.5 12a.499.499 0 100 1H16.566c.24 0 .434-.194.434-.434v-.133a.433.433 0 00-.434-.433h-6.132z" style="marker:none" color="#000" overflow="visible" opacity=".2" fill="#1f1f1f"/><path style="marker:none" d="M13.5 12h-6a.499.499 0 100 1h6a.499.499 0 100-1z" color="#000" overflow="visible" fill="#88a05d"/></svg>