<?xml version="1.0" encoding="UTF-8" standalone="no"?>
<svg
   viewBox="0 0 24 24"
   version="1.1"
   id="svg18"
   sodipodi:docname="lx03246.svg"
   inkscape:version="1.1 (ce6663b3b7, 2021-05-25)"
   xmlns:inkscape="http://www.inkscape.org/namespaces/inkscape"
   xmlns:sodipodi="http://sodipodi.sourceforge.net/DTD/sodipodi-0.dtd"
   xmlns:xlink="http://www.w3.org/1999/xlink"
   xmlns="http://www.w3.org/2000/svg"
   xmlns:svg="http://www.w3.org/2000/svg"
   xmlns:rdf="http://www.w3.org/1999/02/22-rdf-syntax-ns#"
   xmlns:cc="http://creativecommons.org/ns#"
   xmlns:dc="http://purl.org/dc/elements/1.1/">
  <metadata
     id="metadata24">
    <rdf:RDF>
      <cc:Work
         rdf:about="">
        <dc:format>image/svg+xml</dc:format>
        <dc:type
           rdf:resource="http://purl.org/dc/dcmitype/StillImage" />
      </cc:Work>
    </rdf:RDF>
  </metadata>
  <defs
     id="defs22">
    <linearGradient
       gradientTransform="translate(-320.49979,-189)"
       inkscape:collect="always"
       xlink:href="#linearGradient4338"
       id="linearGradient1311"
       x1="327.99951"
       y1="188"
       x2="335.99951"
       y2="212"
       gradientUnits="userSpaceOnUse" />
    <linearGradient
       inkscape:collect="always"
       id="linearGradient4338">
      <stop
         style="stop-color:#f2f2f2;stop-opacity:1"
         offset="0"
         id="stop4340" />
      <stop
         style="stop-color:#ffffff;stop-opacity:1"
         offset="1"
         id="stop4342" />
    </linearGradient>
    <linearGradient
       id="linearGradient6989-5">
      <stop
         id="stop6991-5"
         offset="0"
         style="stop-color: rgb(240, 158, 111); stop-opacity: 1;" />
      <stop
         id="stop6993-1"
         offset="1"
         style="stop-color: rgb(249, 207, 181); stop-opacity: 1;" />
    </linearGradient>
    <linearGradient
       id="linearGradient6975-88">
      <stop
         id="stop6977-8"
         offset="0"
         style="stop-color: rgb(245, 206, 83); stop-opacity: 1;" />
      <stop
         id="stop6979-6"
         offset="1"
         style="stop-color: rgb(253, 233, 169); stop-opacity: 1;" />
    </linearGradient>
    <linearGradient
       id="_Linear14"
       x1="0"
       y1="0"
       x2="1"
       y2="0"
       gradientUnits="userSpaceOnUse"
       gradientTransform="matrix(0,-8.29,8.29,0,743.808,196.553)">
      <stop
         offset="0"
         style="stop-color:rgb(240,188,111);stop-opacity:1"
         id="stop324" />
      <stop
         offset="1"
         style="stop-color:rgb(249,234,181);stop-opacity:1"
         id="stop326" />
    </linearGradient>
    <linearGradient
       id="_Linear15"
       x1="0"
       y1="0"
       x2="1"
       y2="0"
       gradientUnits="userSpaceOnUse"
       gradientTransform="matrix(0,-8.85,8.85,0,746.051,200.5)">
      <stop
         offset="0"
         style="stop-color:rgb(245,206,83);stop-opacity:1"
         id="stop329" />
      <stop
         offset="1"
         style="stop-color:rgb(253,233,169);stop-opacity:1"
         id="stop331" />
    </linearGradient>
  </defs>
  <sodipodi:namedview
     pagecolor="#ffffff"
     bordercolor="#666666"
     borderopacity="1"
     objecttolerance="10"
     gridtolerance="10"
     guidetolerance="10"
     inkscape:pageopacity="0"
     inkscape:pageshadow="2"
     inkscape:window-width="1920"
     inkscape:window-height="1016"
     id="namedview20"
     showgrid="true"
     inkscape:zoom="2.8284271"
     inkscape:cx="109.60155"
     inkscape:cy="23.5113"
     inkscape:window-x="0"
     inkscape:window-y="27"
     inkscape:window-maximized="1"
     inkscape:current-layer="svg18"
     inkscape:pagecheckerboard="0">
    <inkscape:grid
       type="xygrid"
       id="grid901" />
  </sodipodi:namedview>
  <path
     id="path1141"
     style="color:#000000;font-style:normal;font-variant:normal;font-weight:normal;font-stretch:normal;font-size:medium;line-height:normal;font-family:sans-serif;font-variant-ligatures:normal;font-variant-position:normal;font-variant-caps:normal;font-variant-numeric:normal;font-variant-alternates:normal;font-feature-settings:normal;text-indent:0;text-align:start;text-decoration:none;text-decoration-line:none;text-decoration-style:solid;text-decoration-color:#000000;letter-spacing:normal;word-spacing:normal;text-transform:none;writing-mode:lr-tb;direction:ltr;text-orientation:mixed;dominant-baseline:auto;baseline-shift:baseline;text-anchor:start;white-space:normal;shape-padding:0;clip-rule:nonzero;display:inline;overflow:visible;visibility:visible;opacity:1;isolation:auto;mix-blend-mode:normal;color-interpolation:sRGB;color-interpolation-filters:linearRGB;solid-color:#000000;solid-opacity:1;vector-effect:none;fill:#be5e0f;fill-opacity:1;fill-rule:nonzero;stroke:#be5e0f;stroke-width:2;stroke-linecap:butt;stroke-linejoin:miter;stroke-miterlimit:4;stroke-dasharray:none;stroke-dashoffset:0;stroke-opacity:1;marker:none;color-rendering:auto;image-rendering:auto;shape-rendering:auto;text-rendering:auto;enable-background:accumulate"
     d="m 8.8652344,2.999998 c -1.08855,0 -1.9003446,0.0312 -2.4589844,0.125 C 5.85738,3.217098 5.6094194,3.3537792 5.4746094,3.4882792 5.3402494,3.6223193 5.2081875,3.8647274 5.1171875,4.4121074 5.0246875,4.9683774 4.9949999,5.7788486 5,6.8691386 v 0.00391 4.1269534 6.128906 0.002 c -0.005,1.0898 0.024897,1.901902 0.1171875,2.457032 0.091,0.5474 0.2230619,0.789788 0.3574219,0.923828 0.13484,0.134473 0.3827706,0.271134 0.9316406,0.363234 0.5586198,0.0938 1.3704344,0.125 2.4589844,0.125 H 12 15.134766 c 1.08855,0 1.900345,-0.0312 2.458984,-0.125 0.54887,-0.0921 0.796831,-0.228781 0.931641,-0.363281 0.13436,-0.13404 0.266421,-0.376448 0.357421,-0.923828 C 18.975312,19.031623 19.005,18.221151 19,17.130861 v -0.0039 -4.126953 -6.1289065 -0.00195 c 0.005,-1.0898 -0.0249,-1.9019012 -0.117188,-2.4570312 -0.091,-0.5474 -0.223061,-0.7897882 -0.357421,-0.9238282 -0.13484,-0.13452 -0.382771,-0.2711812 -0.931641,-0.3632812 -0.558619,-0.0938 -1.370434,-0.125 -2.458984,-0.125 H 12 Z" />
  <path
     inkscape:connector-curvature="0"
     style="color:#000000;font-style:normal;font-variant:normal;font-weight:normal;font-stretch:normal;font-size:medium;line-height:normal;font-family:sans-serif;font-variant-ligatures:normal;font-variant-position:normal;font-variant-caps:normal;font-variant-numeric:normal;font-variant-alternates:normal;font-feature-settings:normal;text-indent:0;text-align:start;text-decoration:none;text-decoration-line:none;text-decoration-style:solid;text-decoration-color:#000000;letter-spacing:normal;word-spacing:normal;text-transform:none;writing-mode:lr-tb;direction:ltr;text-orientation:mixed;dominant-baseline:auto;baseline-shift:baseline;text-anchor:start;white-space:normal;shape-padding:0;clip-rule:nonzero;display:inline;overflow:visible;visibility:visible;opacity:1;isolation:auto;mix-blend-mode:normal;color-interpolation:sRGB;color-interpolation-filters:linearRGB;solid-color:#000000;solid-opacity:1;vector-effect:none;fill:url(#linearGradient1311);fill-opacity:1;fill-rule:nonzero;stroke:none;stroke-width:3;stroke-linecap:butt;stroke-linejoin:miter;stroke-miterlimit:4;stroke-dasharray:none;stroke-dashoffset:0;stroke-opacity:1;marker:none;color-rendering:auto;image-rendering:auto;shape-rendering:auto;text-rendering:auto;enable-background:accumulate"
     d="m 8.8656149,2.999998 c -1.08855,0 -1.90034,0.0312 -2.4589798,0.125 -0.54887,0.0921 -0.79683,0.22878 -0.93164,0.36328 -0.13436,0.13404 -0.26642,0.37645 -0.35742,0.92383 -0.0925,0.55627 -0.1221901,1.36674 -0.11719,2.45703 v 0.004 4.12695 6.12891 0.002 c -0.005,1.0898 0.0249,1.9019 0.11719,2.45703 0.091,0.5474 0.22306,0.78979 0.35742,0.92383 0.13484,0.13452 0.38277,0.27118 0.93164,0.36328 0.5586198,0.0938 1.3704298,0.125 2.4589798,0.125 h 6.2696561 c 1.08864,0 1.90078,-0.0314 2.45703,-0.125 0.54703,-0.0921 0.78777,-0.227 0.92187,-0.36133 0.13429,-0.13451 0.26913,-0.37646 0.36133,-0.92578 0.0936,-0.55811 0.105238,-1.372509 0.125,-2.46303 v -6.125 -3 L 12,2.999998 Z"
     id="path1293"
     sodipodi:nodetypes="scccccccccccsscccscccs" />
  <g
     transform="matrix(1.2872976,0,0,1.2900468,-943.16959,-295.31972)"
     id="g92"
     style="clip-rule:evenodd;display:inline;fill-rule:evenodd;stroke:#c99c00;stroke-width:0.775993;stroke-opacity:1;enable-background:new">
    <path
       d="m 745.492,237.487 -5.5,5 h 5.5 z"
       style="fill:#f7d260;fill-rule:nonzero;stroke:#c99c00;stroke-width:0.775993px;stroke-linejoin:round;stroke-opacity:1"
       id="path90" />
  </g>
  <g
     transform="matrix(1.2872976,0,0,1.2900468,-943.16959,-295.31972)"
     id="g100"
     style="clip-rule:evenodd;display:inline;fill-rule:evenodd;stroke-width:0.775993;enable-background:new">
    <path
       d="m 739.36,240.845 c -0.36,-0.314 -0.623,-0.723 -0.758,-1.181 -0.135,-0.458 -0.136,-0.945 -0.004,-1.404 0.132,-0.459 0.393,-0.87 0.751,-1.186 0.357,-0.316 0.798,-0.523 1.27,-0.597 0.471,-0.074 0.954,-0.012 1.392,0.179 0.437,0.191 0.811,0.503 1.078,0.899"
       style="fill:#f0c46f;fill-rule:nonzero;stroke-width:0.775993"
       id="path98" />
  </g>
  <g
     transform="matrix(1.2872976,0,0,1.2900468,-943.16959,-295.52672)"
     id="g104"
     style="clip-rule:evenodd;display:inline;fill-rule:evenodd;stroke-width:0.775993;enable-background:new">
    <path
       d="m 739.36,240.845 c -0.36,-0.314 -0.623,-0.723 -0.758,-1.181 -0.135,-0.458 -0.136,-0.945 -0.004,-1.404 0.132,-0.459 0.393,-0.87 0.751,-1.186 0.357,-0.316 0.798,-0.523 1.27,-0.597 0.471,-0.074 0.954,-0.012 1.392,0.179 0.437,0.191 0.811,0.503 1.078,0.899"
       style="fill:none;fill-rule:nonzero;stroke:#cb851d;stroke-width:0.775993px;stroke-linecap:round;stroke-linejoin:round"
       id="path102" />
  </g>
</svg>
