<?xml version="1.0" encoding="UTF-8" standalone="no"?>
<svg
   xmlns:dc="http://purl.org/dc/elements/1.1/"
   xmlns:cc="http://creativecommons.org/ns#"
   xmlns:rdf="http://www.w3.org/1999/02/22-rdf-syntax-ns#"
   xmlns:svg="http://www.w3.org/2000/svg"
   xmlns="http://www.w3.org/2000/svg"
   xmlns:xlink="http://www.w3.org/1999/xlink"
   xmlns:sodipodi="http://sodipodi.sourceforge.net/DTD/sodipodi-0.dtd"
   xmlns:inkscape="http://www.inkscape.org/namespaces/inkscape"
   viewBox="0 0 32 32"
   version="1.1"
   id="svg12"
   sodipodi:docname="lx03245_32.svg"
   inkscape:version="1.0.1 (3bc2e813f5, 2020-09-07)"
   width="32"
   height="32">
  <metadata
     id="metadata18">
    <rdf:RDF>
      <cc:Work
         rdf:about="">
        <dc:format>image/svg+xml</dc:format>
        <dc:type
           rdf:resource="http://purl.org/dc/dcmitype/StillImage" />
        <dc:title />
      </cc:Work>
    </rdf:RDF>
  </metadata>
  <defs
     id="defs16">
    <linearGradient
       inkscape:collect="always"
       id="linearGradient4338">
      <stop
         style="stop-color:#f2f2f2;stop-opacity:1"
         offset="0"
         id="stop4340" />
      <stop
         style="stop-color:#ffffff;stop-opacity:1"
         offset="1"
         id="stop4342" />
    </linearGradient>
    <linearGradient
       id="linearGradient14494">
      <stop
         id="stop14496"
         style="stop-color:#dc85e9;stop-opacity:1"
         offset="0" />
      <stop
         id="stop14498"
         style="stop-color:#f2cbf8;stop-opacity:1"
         offset="1" />
    </linearGradient>
    <linearGradient
       gradientTransform="translate(-319.99998,-132)"
       inkscape:collect="always"
       xlink:href="#linearGradient4338"
       id="linearGradient1313"
       x1="340"
       y1="132"
       x2="328"
       y2="164"
       gradientUnits="userSpaceOnUse" />
    <linearGradient
       inkscape:collect="always"
       xlink:href="#linearGradient14494"
       id="linearGradient1389"
       gradientUnits="userSpaceOnUse"
       gradientTransform="matrix(0.97892669,0,0,1.0007266,-171.40557,-739.99963)"
       x1="525.4375"
       y1="836.1875"
       x2="516.65625"
       y2="828.5" />
    <linearGradient
       inkscape:collect="always"
       xlink:href="#linearGradient14494"
       id="linearGradient1391"
       gradientUnits="userSpaceOnUse"
       gradientTransform="matrix(0.97892669,0,0,1.0007266,755.5951,-1698.6771)"
       x1="525.4375"
       y1="836.1875"
       x2="516.65625"
       y2="828.5" />
    <linearGradient
       inkscape:collect="always"
       xlink:href="#linearGradient14494"
       id="linearGradient1393"
       gradientUnits="userSpaceOnUse"
       gradientTransform="translate(-125.5,-1702.459)"
       x1="525.4375"
       y1="836.1875"
       x2="516.65625"
       y2="828.5" />
    <linearGradient
       inkscape:collect="always"
       xlink:href="#linearGradient14494"
       id="linearGradient1395"
       gradientUnits="userSpaceOnUse"
       x1="520.58502"
       y1="735.05206"
       x2="516.15179"
       y2="720.86298" />
  </defs>
  <sodipodi:namedview
     pagecolor="#ffffff"
     bordercolor="#666666"
     borderopacity="1"
     objecttolerance="10"
     gridtolerance="10"
     guidetolerance="10"
     inkscape:pageopacity="0"
     inkscape:pageshadow="2"
     inkscape:window-width="1920"
     inkscape:window-height="1011"
     id="namedview14"
     showgrid="true"
     inkscape:zoom="8.4166668"
     inkscape:cx="-21.59262"
     inkscape:cy="26.530413"
     inkscape:window-x="0"
     inkscape:window-y="0"
     inkscape:window-maximized="1"
     inkscape:current-layer="svg12"
     inkscape:document-rotation="0">
    <inkscape:grid
       type="xygrid"
       id="grid889" />
  </sodipodi:namedview>
  <path
     inkscape:connector-curvature="0"
     id="path922"
     d="m 20.306184,3.00046 c 1.41241,0 2.52238,0.0342 3.42383,0.18555 0.90145,0.15132 1.61987,0.43164 2.14258,0.95312 0.5227,0.52148 0.80325,1.23898 0.95312,2.14063 0.14988,0.90164 0.18075,2.0101 0.17383,3.42578 V 16 22.29644 c 0.007,1.41452 -0.024,2.52269 -0.17383,3.42382 -0.14987,0.90165 -0.43041,1.61915 -0.95312,2.14063 -0.52272,0.52148 -1.24112,0.8018 -2.14258,0.95312 -0.90146,0.15132 -2.01142,0.18555 -3.42383,0.18555 h -8.61523 c -1.41241,0 -2.5184698,-0.0342 -3.4179698,-0.18555 -0.8995,-0.15137 -1.61597,-0.43149 -2.13672,-0.95312 -0.52075,-0.52163 -0.80004,-1.23774 -0.95117,-2.13867 -0.15113,-0.90094 -0.18555,-2.01055 -0.18555,-3.42578 V 16 9.70358 c 0,-1.41524 0.0344,-2.52484 0.18555,-3.42578 0.15113,-0.90093 0.43042,-1.61703 0.95117,-2.13867 0.52075,-0.52163 1.23722,-0.80175 2.13672,-0.95312 0.8995,-0.15137 2.0055598,-0.18555 3.4179698,-0.18555 z"
     style="color:#000000;display:inline;overflow:visible;visibility:visible;fill:#9911aa;fill-opacity:1;fill-rule:nonzero;stroke:none;stroke-width:1;marker:none;enable-background:accumulate"
     sodipodi:nodetypes="scccccccsssscssscsccsss" />
  <path
     id="path1295"
     d="M 11.192904,5 C 9.8208542,5 8.8147542,5.0445 8.1831342,5.15039 c -0.61819,0.10377 -0.76201,0.22891 -0.79101,0.25781 -0.0276,0.0276 -0.14965,0.1658 -0.25196,0.78125 -0.10462,0.62946 -0.14762,1.63095 -0.14062,3.00391 V 9.19936 15 v 7.80273 0.006 c -0.007,1.37154 0.036,2.37291 0.14062,3.00196 0.10231,0.61547 0.22436,0.75365 0.25196,0.78125 0.029,0.029 0.17281,0.15404 0.79101,0.25781 0.63175,0.10609 1.63775,0.15039 3.0097698,0.15039 h 9.61523 c 1.37206,0 2.37433,-0.0445 3.00391,-0.15039 0.616,-0.10366 0.75435,-0.22701 0.78125,-0.25391 0.0283,-0.0283 0.15211,-0.16861 0.25586,-0.78711 0.10599,-0.632 0.15039,-1.63731 0.15039,-3.01199 v -7.79688 -5 l -6,-4.99986 z"
     style="color:#000000;font-style:normal;font-variant:normal;font-weight:normal;font-stretch:normal;font-size:medium;line-height:normal;font-family:sans-serif;font-variant-ligatures:normal;font-variant-position:normal;font-variant-caps:normal;font-variant-numeric:normal;font-variant-alternates:normal;font-feature-settings:normal;text-indent:0;text-align:start;text-decoration:none;text-decoration-line:none;text-decoration-style:solid;text-decoration-color:#000000;letter-spacing:normal;word-spacing:normal;text-transform:none;writing-mode:lr-tb;direction:ltr;text-orientation:mixed;dominant-baseline:auto;baseline-shift:baseline;text-anchor:start;white-space:normal;shape-padding:0;clip-rule:nonzero;display:inline;overflow:visible;visibility:visible;isolation:auto;mix-blend-mode:normal;color-interpolation:sRGB;color-interpolation-filters:linearRGB;solid-color:#000000;solid-opacity:1;vector-effect:none;fill:url(#linearGradient1313);fill-opacity:1;fill-rule:nonzero;stroke:none;stroke-width:5;stroke-linecap:butt;stroke-linejoin:miter;stroke-miterlimit:4;stroke-dasharray:none;stroke-dashoffset:0;stroke-opacity:1;marker:none;color-rendering:auto;image-rendering:auto;shape-rendering:auto;text-rendering:auto;enable-background:accumulate"
     inkscape:connector-curvature="0"
     sodipodi:nodetypes="scccccccccscsscscscccs" />
  <g
     id="g1387"
     transform="matrix(0.57732782,0,0,0.57515103,-182.60543,-32.824156)"
     style="display:inline;stroke-width:1.73539;enable-background:new">
    <path
       inkscape:connector-curvature="0"
       sodipodi:nodetypes="cccscccc"
       id="path1375"
       d="m 332.74163,90.1053 v 3.50254 c 0,0 0,0.33824 0,0.50036 0,1.93441 5.0402,3.50255 11.2577,3.50255 6.2174,0 11.2576,-1.56814 11.2576,-3.50255 V 93.60784 90.1053 Z"
       style="color:#000000;display:inline;overflow:visible;visibility:visible;fill:url(#linearGradient1389);fill-opacity:1;fill-rule:nonzero;stroke:#8e03a3;stroke-width:1.73539;stroke-linecap:butt;stroke-linejoin:miter;stroke-miterlimit:4;stroke-dasharray:none;stroke-dashoffset:0;stroke-opacity:1;marker:none" />
    <g
       style="stroke-width:1.73539;stroke-miterlimit:4;stroke-dasharray:none"
       transform="translate(-927.00067,953.99307)"
       id="g1385">
      <path
         sodipodi:nodetypes="cccscccc"
         id="path1377"
         d="m 1259.7423,-868.57233 v 3.50255 c 0,0 0,0.33824 0,0.50036 0,1.93441 5.0402,3.50254 11.2577,3.50254 6.2174,0 11.2576,-1.56813 11.2576,-3.50254 v -0.50036 -3.50255 z"
         style="color:#000000;display:inline;overflow:visible;visibility:visible;fill:url(#linearGradient1391);fill-opacity:1;fill-rule:nonzero;stroke:#8e03a3;stroke-width:1.73539;stroke-linecap:butt;stroke-linejoin:miter;stroke-miterlimit:4;stroke-dasharray:none;stroke-dashoffset:0;stroke-opacity:1;marker:none"
         inkscape:connector-curvature="0" />
      <g
         style="stroke-width:1.75334;stroke-miterlimit:4;stroke-dasharray:none"
         transform="matrix(0.97892669,0,0,1.0007266,878.4504,0.37753505)"
         id="g1383">
        <path
           sodipodi:nodetypes="cccscccc"
           id="path1379"
           d="m 389.5,-872.95665 v 3.5 c 0,0 0,0.338 0,0.5 0,1.933 5.14873,3.5 11.5,3.5 6.35127,0 11.5,-1.567 11.5,-3.5 v -0.5 -3.5 z"
           style="color:#000000;display:inline;overflow:visible;visibility:visible;fill:url(#linearGradient1393);fill-opacity:1;fill-rule:nonzero;stroke:#8e03a3;stroke-width:1.75334;stroke-linecap:butt;stroke-linejoin:miter;stroke-miterlimit:4;stroke-dasharray:none;stroke-dashoffset:0;stroke-opacity:1;marker:none"
           inkscape:connector-curvature="0" />
        <ellipse
           ry="5.6875"
           rx="22.4375"
           cy="730.3125"
           cx="519.6875"
           transform="matrix(0.512535,0,0,0.615385,134.642,-1323.1872)"
           id="ellipse1381"
           style="color:#000000;display:inline;overflow:visible;visibility:visible;fill:url(#linearGradient1395);fill-opacity:1;fill-rule:nonzero;stroke:#8e03a3;stroke-width:3.12198;stroke-miterlimit:4;stroke-dasharray:none;marker:none" />
      </g>
    </g>
  </g>
</svg>
