<?xml version="1.0" encoding="UTF-8" standalone="no"?>
<svg
   xmlns:dc="http://purl.org/dc/elements/1.1/"
   xmlns:cc="http://creativecommons.org/ns#"
   xmlns:rdf="http://www.w3.org/1999/02/22-rdf-syntax-ns#"
   xmlns:svg="http://www.w3.org/2000/svg"
   xmlns="http://www.w3.org/2000/svg"
   xmlns:xlink="http://www.w3.org/1999/xlink"
   xmlns:sodipodi="http://sodipodi.sourceforge.net/DTD/sodipodi-0.dtd"
   xmlns:inkscape="http://www.inkscape.org/namespaces/inkscape"
   viewBox="0 0 24 24"
   version="1.1"
   id="svg22"
   sodipodi:docname="lx03250.svg"
   inkscape:version="1.0.1 (3bc2e813f5, 2020-09-07)">
  <metadata
     id="metadata28">
    <rdf:RDF>
      <cc:Work
         rdf:about="">
        <dc:format>image/svg+xml</dc:format>
        <dc:type
           rdf:resource="http://purl.org/dc/dcmitype/StillImage" />
      </cc:Work>
    </rdf:RDF>
  </metadata>
  <defs
     id="defs26">
    <linearGradient
       id="linearGradient10292">
      <stop
         id="stop10294"
         style="stop-color:#666666;stop-opacity:1"
         offset="0" />
      <stop
         id="stop10296"
         style="stop-color:#333333;stop-opacity:1"
         offset="1" />
    </linearGradient>
    <linearGradient
       id="linearGradient9364">
      <stop
         style="stop-color: rgb(99, 187, 238); stop-opacity: 1;"
         offset="0"
         id="stop9366" />
      <stop
         style="stop-color: rgb(170, 220, 247); stop-opacity: 1;"
         offset="1"
         id="stop9368" />
    </linearGradient>
    <linearGradient
       gradientTransform="translate(-320.49978,-189)"
       inkscape:collect="always"
       xlink:href="#linearGradient4338"
       id="linearGradient1311"
       x1="327.99951"
       y1="188"
       x2="335.99951"
       y2="212"
       gradientUnits="userSpaceOnUse" />
    <linearGradient
       inkscape:collect="always"
       id="linearGradient4338">
      <stop
         style="stop-color:#f2f2f2;stop-opacity:1"
         offset="0"
         id="stop4340" />
      <stop
         style="stop-color:#ffffff;stop-opacity:1"
         offset="1"
         id="stop4342" />
    </linearGradient>
    <linearGradient
       inkscape:collect="always"
       xlink:href="#linearGradient13214"
       id="linearGradient2112"
       gradientUnits="userSpaceOnUse"
       gradientTransform="translate(-112,-1032.3622)"
       x1="119"
       y1="1036.2738"
       x2="119"
       y2="1052.4967" />
    <linearGradient
       id="linearGradient13214">
      <stop
         id="stop13216"
         style="stop-color:#18a303;stop-opacity:1"
         offset="0" />
      <stop
         id="stop13218"
         style="stop-color:#106802;stop-opacity:1"
         offset="1" />
    </linearGradient>
    <linearGradient
       inkscape:collect="always"
       xlink:href="#linearGradient15606-6"
       id="linearGradient2219"
       gradientUnits="userSpaceOnUse"
       gradientTransform="matrix(1,0,0,1.2,-144,1111.5628)"
       x1="481"
       y1="-759.63782"
       x2="481"
       y2="-764.63782" />
    <linearGradient
       id="linearGradient15606-6">
      <stop
         style="stop-color: rgb(255, 255, 255); stop-opacity: 0.588235;"
         offset="0"
         id="stop15608-8" />
      <stop
         style="stop-color: rgb(255, 255, 255); stop-opacity: 0.862745;"
         offset="1"
         id="stop15610-7" />
    </linearGradient>
  </defs>
  <sodipodi:namedview
     pagecolor="#ffffff"
     bordercolor="#666666"
     borderopacity="1"
     objecttolerance="10"
     gridtolerance="10"
     guidetolerance="10"
     inkscape:pageopacity="0"
     inkscape:pageshadow="2"
     inkscape:window-width="1920"
     inkscape:window-height="1011"
     id="namedview24"
     showgrid="true"
     inkscape:zoom="8.4166668"
     inkscape:cx="-42.088919"
     inkscape:cy="18.749112"
     inkscape:window-x="0"
     inkscape:window-y="0"
     inkscape:window-maximized="1"
     inkscape:current-layer="svg22"
     inkscape:document-rotation="0">
    <inkscape:grid
       type="xygrid"
       id="grid931" />
  </sodipodi:namedview>
  <path
     id="path1141"
     style="color:#000000;font-style:normal;font-variant:normal;font-weight:normal;font-stretch:normal;font-size:medium;line-height:normal;font-family:sans-serif;font-variant-ligatures:normal;font-variant-position:normal;font-variant-caps:normal;font-variant-numeric:normal;font-variant-alternates:normal;font-feature-settings:normal;text-indent:0;text-align:start;text-decoration:none;text-decoration-line:none;text-decoration-style:solid;text-decoration-color:#000000;letter-spacing:normal;word-spacing:normal;text-transform:none;writing-mode:lr-tb;direction:ltr;text-orientation:mixed;dominant-baseline:auto;baseline-shift:baseline;text-anchor:start;white-space:normal;shape-padding:0;clip-rule:nonzero;display:inline;overflow:visible;visibility:visible;opacity:1;isolation:auto;mix-blend-mode:normal;color-interpolation:sRGB;color-interpolation-filters:linearRGB;solid-color:#000000;solid-opacity:1;vector-effect:none;fill:#106802;fill-opacity:1;fill-rule:nonzero;stroke:#106802;stroke-width:2;stroke-linecap:butt;stroke-linejoin:miter;stroke-miterlimit:4;stroke-dasharray:none;stroke-dashoffset:0;stroke-opacity:1;marker:none;color-rendering:auto;image-rendering:auto;shape-rendering:auto;text-rendering:auto;enable-background:accumulate"
     d="m 8.8652344,2.9999982 c -1.08855,0 -1.9003446,0.0312 -2.4589844,0.125 C 5.85738,3.2170982 5.6094194,3.3537794 5.4746094,3.4882794 5.3402494,3.6223195 5.2081875,3.8647276 5.1171875,4.4121076 5.0246875,4.9683776 4.995,5.7788488 5,6.8691388 v 0.00391 4.1269532 6.128906 0.002 c -0.005,1.0898 0.024897,1.901902 0.1171875,2.457032 0.091,0.5474 0.2230619,0.789788 0.3574219,0.923828 0.13484,0.134473 0.3827706,0.271134 0.9316406,0.363234 0.5586198,0.0938 1.3704344,0.125 2.4589844,0.125 H 12 15.134766 c 1.08855,0 1.900345,-0.0312 2.458984,-0.125 0.54887,-0.0921 0.796831,-0.228781 0.931641,-0.363281 0.13436,-0.13404 0.266421,-0.376448 0.357421,-0.923828 C 18.975312,19.031623 19.005,18.221151 19,17.130861 v -0.0039 -4.126953 -6.1289063 -0.00195 c 0.005,-1.0898 -0.0249,-1.9019012 -0.117188,-2.4570312 -0.091,-0.5474 -0.223061,-0.7897882 -0.357421,-0.9238282 -0.13484,-0.13452 -0.382771,-0.2711812 -0.931641,-0.3632812 -0.558619,-0.0938 -1.370434,-0.125 -2.458984,-0.125 H 12 Z" />
  <path
     inkscape:connector-curvature="0"
     style="color:#000000;font-style:normal;font-variant:normal;font-weight:normal;font-stretch:normal;font-size:medium;line-height:normal;font-family:sans-serif;font-variant-ligatures:normal;font-variant-position:normal;font-variant-caps:normal;font-variant-numeric:normal;font-variant-alternates:normal;font-feature-settings:normal;text-indent:0;text-align:start;text-decoration:none;text-decoration-line:none;text-decoration-style:solid;text-decoration-color:#000000;letter-spacing:normal;word-spacing:normal;text-transform:none;writing-mode:lr-tb;direction:ltr;text-orientation:mixed;dominant-baseline:auto;baseline-shift:baseline;text-anchor:start;white-space:normal;shape-padding:0;clip-rule:nonzero;display:inline;overflow:visible;visibility:visible;opacity:1;isolation:auto;mix-blend-mode:normal;color-interpolation:sRGB;color-interpolation-filters:linearRGB;solid-color:#000000;solid-opacity:1;vector-effect:none;fill:url(#linearGradient1311);fill-opacity:1;fill-rule:nonzero;stroke:none;stroke-width:3;stroke-linecap:butt;stroke-linejoin:miter;stroke-miterlimit:4;stroke-dasharray:none;stroke-dashoffset:0;stroke-opacity:1;marker:none;color-rendering:auto;image-rendering:auto;shape-rendering:auto;text-rendering:auto;enable-background:accumulate"
     d="m 8.8656149,2.9999982 c -1.08855,0 -1.90034,0.0312 -2.4589798,0.125 -0.54887,0.0921 -0.79683,0.22878 -0.93164,0.36328 -0.13436,0.13404 -0.26642,0.37645 -0.35742,0.92383 -0.0925,0.55627 -0.12219,1.36674 -0.11719,2.45703 v 0.004 4.1269498 6.12891 0.002 c -0.005,1.0898 0.0249,1.9019 0.11719,2.45703 0.091,0.5474 0.22306,0.78979 0.35742,0.92383 0.13484,0.13452 0.38277,0.27118 0.93164,0.36328 0.5586198,0.0938 1.3704298,0.125 2.4589798,0.125 h 6.2696561 c 1.08864,0 1.90078,-0.0314 2.45703,-0.125 0.54703,-0.0921 0.78777,-0.227 0.92187,-0.36133 0.13429,-0.13451 0.26913,-0.37646 0.36133,-0.92578 0.0936,-0.55811 0.105238,-1.372509 0.125,-2.46303 v -6.125 -2.9999998 l -7.000501,-5 z"
     id="path1293"
     sodipodi:nodetypes="scccccccccccsscccscccs" />
  <rect
     y="7.9999995"
     x="7"
     height="3"
     width="10"
     id="rect7360-5"
     style="display:inline;overflow:visible;visibility:visible;fill:#92e285;fill-opacity:1;fill-rule:nonzero;stroke:none;stroke-width:1;marker:none;enable-background:new" />
  <rect
     y="11"
     x="7"
     height="6"
     width="10"
     id="rect2104"
     style="display:inline;overflow:visible;visibility:visible;fill:#ccf4c6;fill-opacity:1;fill-rule:nonzero;stroke:none;stroke-width:1;marker:none;enable-background:new" />
  <path
     style="display:inline;overflow:visible;visibility:visible;fill:url(#linearGradient2112);fill-opacity:1;fill-rule:nonzero;stroke:none;stroke-width:5.01122;marker:none;enable-background:new"
     d="m 7,8 v 1 1 1 1 1 1 1 1 1 h 1 2 1 2 1 2 1 -1 1 V 16 10 8 H 14 8 Z m 1,1 h 2 v 1 H 8 Z m 3,0 h 2 v 1 h -2 z m 3,0 h 2 v 1 h -2 z m -6,2 h 2 v 1 H 8 Z m 3,0 h 2 v 1 h -2 z m 3,0 h 2 v 1 h -2 z m -6,2 h 2 v 1 H 8 Z m 3,0 h 2 v 1 h -2 z m 3,0 h 2 v 1 h -2 z m -6,2 h 2 v 1 H 8 Z m 3,0 h 2 v 1 h -2 z m 3,0 h 2 v 1 h -2 z"
     id="path2106"
     inkscape:connector-curvature="0"
     sodipodi:nodetypes="ccccccccccccccccccccccccccccccccccccccccccccccccccccccccccccccccccccccccccccccccccccc" />
  <g
     style="display:inline;enable-background:new"
     id="g2228"
     transform="translate(-325,-181.99998)">
    <rect
       y="193.99998"
       x="336"
       height="6.9999542"
       width="7"
       id="rect2205"
       style="display:inline;overflow:visible;visibility:visible;fill:#808080;fill-opacity:1;fill-rule:nonzero;stroke:none;stroke-width:1;marker:none" />
    <rect
       y="194.99998"
       x="337"
       height="5"
       width="5"
       id="rect2207"
       style="display:inline;overflow:visible;visibility:visible;fill:#cccccc;fill-opacity:1;fill-rule:nonzero;stroke:none;stroke-width:1;marker:none" />
    <rect
       style="display:inline;overflow:visible;visibility:visible;fill:url(#linearGradient2219);fill-opacity:1;fill-rule:nonzero;stroke:none;stroke-width:1;marker:none"
       id="rect2209"
       width="5"
       height="5"
       x="337"
       y="194.99998" />
    <rect
       y="196.99998"
       x="338"
       height="3"
       width="1"
       id="rect2211"
       style="display:inline;overflow:visible;visibility:visible;fill:#1c99e0;fill-opacity:1;fill-rule:nonzero;stroke:none;stroke-width:1;marker:none" />
    <rect
       style="display:inline;overflow:visible;visibility:visible;fill:#d36118;fill-opacity:1;fill-rule:nonzero;stroke:none;stroke-width:1;marker:none"
       id="rect2213"
       width="1"
       height="3.9999847"
       x="339"
       y="195.99998" />
  </g>
  <rect
     style="display:inline;overflow:visible;visibility:visible;fill:#e9b913;fill-opacity:1;fill-rule:nonzero;stroke:none;stroke-width:1;marker:none;enable-background:new"
     id="rect7644-6"
     width="1"
     height="2"
     x="14"
     y="15.999995" />
</svg>
