<?xml version="1.0" encoding="UTF-8" standalone="no"?>
<svg
   xmlns:dc="http://purl.org/dc/elements/1.1/"
   xmlns:cc="http://creativecommons.org/ns#"
   xmlns:rdf="http://www.w3.org/1999/02/22-rdf-syntax-ns#"
   xmlns:svg="http://www.w3.org/2000/svg"
   xmlns="http://www.w3.org/2000/svg"
   xmlns:xlink="http://www.w3.org/1999/xlink"
   xmlns:sodipodi="http://sodipodi.sourceforge.net/DTD/sodipodi-0.dtd"
   xmlns:inkscape="http://www.inkscape.org/namespaces/inkscape"
   viewBox="0 0 32 32"
   version="1.1"
   id="svg14"
   sodipodi:docname="lx03123.svg"
   inkscape:version="1.0.1 (3bc2e813f5, 2020-09-07)">
  <metadata
     id="metadata20">
    <rdf:RDF>
      <cc:Work
         rdf:about="">
        <dc:format>image/svg+xml</dc:format>
        <dc:type
           rdf:resource="http://purl.org/dc/dcmitype/StillImage" />
      </cc:Work>
    </rdf:RDF>
  </metadata>
  <defs
     id="defs18">
    <linearGradient
       inkscape:collect="always"
       xlink:href="#linearGradient4338-3"
       id="linearGradient924"
       gradientUnits="userSpaceOnUse"
       gradientTransform="matrix(0,-0.07208805,-0.07208601,0,39.129119,33.81816)"
       x1="459.03448"
       y1="419.23337"
       x2="35.310345"
       y2="207.36522" />
    <linearGradient
       inkscape:collect="always"
       id="linearGradient4338-3">
      <stop
         style="stop-color:#d24625;stop-opacity:1"
         offset="0"
         id="stop4340-0" />
      <stop
         style="stop-color:#ec532f;stop-opacity:1"
         offset="1"
         id="stop4342-7" />
    </linearGradient>
    <linearGradient
       inkscape:collect="always"
       xlink:href="#linearGradient927"
       id="linearGradient969"
       x1="336"
       y1="134"
       x2="336"
       y2="162"
       gradientUnits="userSpaceOnUse" />
    <linearGradient
       inkscape:collect="always"
       id="linearGradient927">
      <stop
         style="stop-color:#ffffff;stop-opacity:1;"
         offset="0"
         id="stop923" />
      <stop
         id="stop933"
         offset="0.125"
         style="stop-color:#ffffff;stop-opacity:0.09803922" />
      <stop
         id="stop931"
         offset="0.92500001"
         style="stop-color:#ffffff;stop-opacity:0.09803922" />
      <stop
         style="stop-color:#ffffff;stop-opacity:0.49803922"
         offset="1"
         id="stop925" />
    </linearGradient>
    <clipPath
       clipPathUnits="userSpaceOnUse"
       id="clipPath959">
      <path
         style="color:#000000;display:inline;overflow:visible;visibility:visible;opacity:1;fill:#46a926;fill-opacity:1;fill-rule:nonzero;stroke:none;stroke-width:2;stroke-miterlimit:4;stroke-dasharray:none;stroke-opacity:1;marker:none;enable-background:accumulate"
         d="m 330.1929,133.99999 c -5.61538,0 -6.21958,0.57678 -6.19206,6.20352 v 7.79648 7.79648 c -0.0276,5.62673 0.57668,6.20351 6.19206,6.20351 h 11.615 c 5.6154,0 6.19208,-0.5767 6.19208,-6.20351 v -7.79648 -7.79648 c 0,-5.6268 -0.5767,-6.20352 -6.19208,-6.20352 z"
         id="path961"
         inkscape:connector-curvature="0"
         sodipodi:nodetypes="scccssscsss" />
    </clipPath>
  </defs>
  <sodipodi:namedview
     pagecolor="#ffffff"
     bordercolor="#666666"
     borderopacity="1"
     objecttolerance="10"
     gridtolerance="10"
     guidetolerance="10"
     inkscape:pageopacity="0"
     inkscape:pageshadow="2"
     inkscape:window-width="1920"
     inkscape:window-height="1011"
     id="namedview16"
     showgrid="false"
     inkscape:zoom="25.25"
     inkscape:cx="16"
     inkscape:cy="16"
     inkscape:window-x="0"
     inkscape:window-y="0"
     inkscape:window-maximized="1"
     inkscape:current-layer="svg14" />
  <path
     style="color:#000000;display:inline;overflow:visible;visibility:visible;fill:url(#linearGradient924);fill-opacity:1;fill-rule:nonzero;stroke:none;stroke-width:1;marker:none;enable-background:accumulate"
     d="m 21.806209,1.4999998 c 1.41241,0 2.52238,0.0342 3.42383,0.18555 0.90145,0.15132 1.61987,0.43164 2.14258,0.95312 0.5227,0.52148 0.80325,1.23898 0.95312,2.14063 0.14988,0.90164 0.18075,2.0101 0.17383,3.42578 V 16 23.79688 c 0.007,1.41452 -0.024,2.52269 -0.17383,3.42382 -0.14987,0.90165 -0.43041,1.61915 -0.95312,2.14063 -0.52272,0.52148 -1.24112,0.8018 -2.14258,0.95312 -0.90146,0.15132 -2.01142,0.18555 -3.42383,0.18555 h -11.61523 c -1.4124105,0 -2.5184705,-0.0342 -3.4179705,-0.18555 -0.8995,-0.15137 -1.61597,-0.43149 -2.13672,-0.95312 -0.52075,-0.52163 -0.80004,-1.23774 -0.95117,-2.13867 -0.15113,-0.90094 -0.18555,-2.01055 -0.18555,-3.42578 V 16 8.2031198 c 0,-1.41524 0.0344,-2.52484 0.18555,-3.42578 0.15113,-0.90093 0.43042,-1.61703 0.95117,-2.13867 0.52075,-0.52163 1.23722,-0.80175 2.13672,-0.95312 0.8995,-0.15137 2.00556,-0.18555 3.4179705,-0.18555 z"
     id="path922"
     inkscape:connector-curvature="0" />
  <path
     inkscape:connector-curvature="0"
     id="path998"
     d="m 16.078599,8.6679698 -8.0781205,1.24805 V 22.08789 l 8.0214805,1.24414 h 0.96875 c 0,0 -0.006,-14.6640602 0,-14.6640602 z m -3.62304,4.0839802 c 0.54976,-0.0117 1.07729,0.0675 1.50586,0.45508 0.82095,0.99619 0.60386,2.82959 -0.61328,3.42578 -0.43238,0.22095 -0.92796,0.19102 -1.39844,0.17578 -0.002,0.74477 -0.004,1.48766 -0.002,2.23243 -0.37715,-0.0324 -0.75567,-0.0633 -1.13282,-0.0937 -0.0171,-2.03429 -0.0229,-3.97744 0,-6.01172 0.53637,-0.0668 1.09087,-0.17193 1.64063,-0.1836 z m -0.0645,1.10352 c -0.15002,-0.004 -0.30264,0.0112 -0.44335,0.0176 -0.006,0.64 -0.009,1.27792 0.0312,1.91601 0.37904,-0.0457 0.86879,-0.008 1.08593,-0.40039 0.18096,-0.38476 0.19371,-0.87666 -0.0234,-1.25 -0.15834,-0.22024 -0.40036,-0.2765 -0.6504,-0.2832 z"
     style="display:inline;fill:#ffffff;stroke-width:1.33333;enable-background:new" />
  <path
     sodipodi:nodetypes="cccccccccccccccccccccccc"
     inkscape:connector-curvature="0"
     id="path965-6"
     d="M 18.000479,9.9999998 V 11.89927 c 0.31048,-0.0667 0.65215,-0.20177 0.99986,-0.18499 v 2.42858 c 0,0 1.59238,-0.006 2.42857,0 -0.0628,0.82285 -0.41333,1.69903 -1.14285,2.13141 -0.67429,0.45333 -1.53129,0.45917 -2.28558,0.22489 0.002,0.37333 -0.002,0.84179 0,1.21512 h 4.57129 v 0.85715 h -4.57129 v 0.85714 h 4.57129 v 0.85714 h -4.57129 V 22 h 6 V 9.9999998 Z m 1.28753,1.3560302 c 1.32381,0.0609 2.43622,1.17525 2.5067,2.49525 -0.83619,0.01 -1.67246,0.006 -2.50865,0.006 0,-0.83428 -0.002,-1.66873 0.002,-2.50111 z"
     style="display:inline;fill:#ffffff;fill-opacity:1;stroke-width:1.33333;enable-background:new" />
  <path
     id="path1089"
     d="m 10.193839,1.4999998 c -1.4124105,0 -2.5223805,0.0342 -3.4238305,0.18555 -0.90145,0.15132 -1.61987,0.43164 -2.14258,0.95312 -0.5227,0.52148 -0.80325,1.23898 -0.95312,2.14063 -0.14988,0.90164 -0.18075,2.0101 -0.17383,3.42578 V 16 23.79688 c -0.007,1.41452 0.024,2.52269 0.17383,3.42382 0.14987,0.90165 0.43041,1.61915 0.95312,2.14063 0.52272,0.52148 1.24112,0.8018 2.14258,0.95312 0.90146,0.15132 2.01142,0.18555 3.4238305,0.18555 h 11.61523 c 1.41241,0 2.51847,-0.0342 3.41797,-0.18555 0.8995,-0.15137 1.61597,-0.43149 2.13672,-0.95312 0.52075,-0.52163 0.80004,-1.23774 0.95117,-2.13867 0.15113,-0.90094 0.18555,-2.01055 0.18555,-3.42578 V 16 8.2031198 c 0,-1.41524 -0.0344,-2.52484 -0.18555,-3.42578 -0.15113,-0.90093 -0.43042,-1.61703 -0.95117,-2.13867 -0.52075,-0.52163 -1.23722,-0.80175 -2.13672,-0.95312 -0.8995,-0.15137 -2.00556,-0.18555 -3.41797,-0.18555 z"
     style="color:#000000;display:inline;overflow:visible;visibility:visible;opacity:0.4;fill:none;fill-opacity:1;fill-rule:nonzero;stroke:#000000;stroke-width:1;stroke-opacity:1;marker:none;enable-background:accumulate"
     inkscape:connector-curvature="0" />
  <path
     transform="translate(-319.99952,-132)"
     sodipodi:nodetypes="scccssscsss"
     inkscape:connector-curvature="0"
     id="path939"
     d="m 330.1929,133.99999 c -5.61538,0 -6.21958,0.57678 -6.19206,6.20352 v 7.79648 7.79648 c -0.0276,5.62673 0.57668,6.20351 6.19206,6.20351 h 11.615 c 5.6154,0 6.19208,-0.5767 6.19208,-6.20351 v -7.79648 -7.79648 c 0,-5.6268 -0.5767,-6.20352 -6.19208,-6.20352 z"
     style="color:#000000;display:inline;overflow:visible;visibility:visible;opacity:0.4;fill:none;fill-opacity:1;fill-rule:nonzero;stroke:url(#linearGradient969);stroke-width:2;stroke-miterlimit:4;stroke-dasharray:none;stroke-opacity:1;marker:none;enable-background:accumulate"
     clip-path="url(#clipPath959)" />
</svg>
