<?xml version="1.0" encoding="UTF-8" standalone="no"?>
<svg
   xmlns:dc="http://purl.org/dc/elements/1.1/"
   xmlns:cc="http://creativecommons.org/ns#"
   xmlns:rdf="http://www.w3.org/1999/02/22-rdf-syntax-ns#"
   xmlns:svg="http://www.w3.org/2000/svg"
   xmlns="http://www.w3.org/2000/svg"
   xmlns:sodipodi="http://sodipodi.sourceforge.net/DTD/sodipodi-0.dtd"
   xmlns:inkscape="http://www.inkscape.org/namespaces/inkscape"
   height="32"
   viewBox="0 0 8.4666665 8.4666669"
   width="32"
   version="1.1"
   id="svg22"
   sodipodi:docname="lx03125.svg"
   inkscape:version="1.0.1 (3bc2e813f5, 2020-09-07)">
  <metadata
     id="metadata28">
    <rdf:RDF>
      <cc:Work
         rdf:about="">
        <dc:format>image/svg+xml</dc:format>
        <dc:type
           rdf:resource="http://purl.org/dc/dcmitype/StillImage" />
        <dc:title></dc:title>
      </cc:Work>
    </rdf:RDF>
  </metadata>
  <defs
     id="defs26" />
  <sodipodi:namedview
     pagecolor="#ffffff"
     bordercolor="#666666"
     borderopacity="1"
     objecttolerance="10"
     gridtolerance="10"
     guidetolerance="10"
     inkscape:pageopacity="0"
     inkscape:pageshadow="2"
     inkscape:window-width="1920"
     inkscape:window-height="1011"
     id="namedview24"
     showgrid="true"
     inkscape:zoom="25.25"
     inkscape:cx="6.5022329"
     inkscape:cy="16.96744"
     inkscape:window-x="0"
     inkscape:window-y="0"
     inkscape:window-maximized="1"
     inkscape:current-layer="svg22">
    <inkscape:grid
       type="xygrid"
       id="grid875" />
  </sodipodi:namedview>
  <path
     sodipodi:nodetypes="ccccccccc"
     style="opacity:0.6;fill:#000000;stroke:#000000;stroke-width:0.529167;stroke-miterlimit:4;stroke-dasharray:none"
     id="path815"
     d="M 2.6458332,7.4083333 C 2.1166666,7.4083333 1.5875,7.1437503 1.5875,6.6145833 V 1.8520832 c 0,-0.5291666 0.5291666,-0.7937499 1.0583332,-0.7937499 h 2.3812501 l 1.8520834,1.8520832 v 3.7041668 c 0,0.529167 -0.5291667,0.79375 -1.0583334,0.79375 z"
     inkscape:connector-curvature="0" />
  <path
     inkscape:connector-curvature="0"
     d="M 2.6458332,7.4083333 C 2.1166666,7.4083333 1.5875,7.1437503 1.5875,6.6145833 V 1.8520832 c 0,-0.5291666 0.5291666,-0.7937499 1.0583332,-0.7937499 h 2.3812501 l 1.8520834,1.8520832 v 3.7041668 c 0,0.529167 -0.5291667,0.79375 -1.0583334,0.79375 z"
     id="path2"
     style="fill:#ffffff;stroke-width:0.264583"
     sodipodi:nodetypes="ccccccccc" />
  <path
     inkscape:connector-curvature="0"
     d="M 5.0270833,2.9104165 V 1.0583333 l 1.8520834,1.8520832 z"
     id="path4"
     style="fill:#6d6d6d;fill-opacity:1;stroke-width:0.264583" />
  <path
     d="m 5.4239585,3.7041666 c -0.219189,0 -0.396875,0.1776862 -0.396875,0.396875 0,0.2191887 0.177686,0.396875 0.396875,0.396875 0.219189,0 0.396875,-0.1776863 0.396875,-0.396875 0,-0.2191888 -0.177686,-0.396875 -0.396875,-0.396875 z"
     id="path4527-0"
     style="color:#000000;display:inline;overflow:visible;visibility:visible;fill:#232629;fill-opacity:1;fill-rule:nonzero;stroke:none;stroke-width:1.58719;marker:none;enable-background:accumulate" />
  <path
     d="M 3.571875,4.6302083 2.6458333,6.35 H 5.2916665 L 4.4979165,4.8947916 4.1010417,5.4239583 Z"
     id="path4156-2"
     style="color:#000000;display:inline;overflow:visible;visibility:visible;fill:#232629;fill-opacity:1;fill-rule:nonzero;stroke:none;stroke-width:1.89001;marker:none;enable-background:accumulate"
     sodipodi:nodetypes="cccccc" />
</svg>
