<?xml version="1.0" encoding="UTF-8" standalone="no"?>
<svg
   viewBox="0 0 32 32"
   version="1.1"
   id="svg24"
   sodipodi:docname="lx03249_32.svg"
   inkscape:version="1.1 (ce6663b3b7, 2021-05-25)"
   width="32"
   height="32"
   xmlns:inkscape="http://www.inkscape.org/namespaces/inkscape"
   xmlns:sodipodi="http://sodipodi.sourceforge.net/DTD/sodipodi-0.dtd"
   xmlns:xlink="http://www.w3.org/1999/xlink"
   xmlns="http://www.w3.org/2000/svg"
   xmlns:svg="http://www.w3.org/2000/svg"
   xmlns:rdf="http://www.w3.org/1999/02/22-rdf-syntax-ns#"
   xmlns:cc="http://creativecommons.org/ns#"
   xmlns:dc="http://purl.org/dc/elements/1.1/">
  <metadata
     id="metadata30">
    <rdf:RDF>
      <cc:Work
         rdf:about="">
        <dc:format>image/svg+xml</dc:format>
        <dc:type
           rdf:resource="http://purl.org/dc/dcmitype/StillImage" />
        <dc:title />
      </cc:Work>
    </rdf:RDF>
  </metadata>
  <defs
     id="defs28">
    <linearGradient
       inkscape:collect="always"
       id="linearGradient4338">
      <stop
         style="stop-color:#f2f2f2;stop-opacity:1"
         offset="0"
         id="stop4340" />
      <stop
         style="stop-color:#ffffff;stop-opacity:1"
         offset="1"
         id="stop4342" />
    </linearGradient>
    <linearGradient
       id="linearGradient9364">
      <stop
         style="stop-color: rgb(99, 187, 238); stop-opacity: 1;"
         offset="0"
         id="stop9366" />
      <stop
         style="stop-color: rgb(170, 220, 247); stop-opacity: 1;"
         offset="1"
         id="stop9368" />
    </linearGradient>
    <linearGradient
       id="linearGradient10292">
      <stop
         id="stop10294"
         style="stop-color:#666666;stop-opacity:1"
         offset="0" />
      <stop
         id="stop10296"
         style="stop-color:#333333;stop-opacity:1"
         offset="1" />
    </linearGradient>
    <linearGradient
       inkscape:collect="always"
       xlink:href="#linearGradient13791"
       id="linearGradient5003"
       gradientUnits="userSpaceOnUse"
       gradientTransform="matrix(0.3181796,0,0,0.37499759,-223.81657,345.23737)"
       x1="756"
       y1="-860.63782"
       x2="756"
       y2="-876.63782" />
    <linearGradient
       id="linearGradient13791">
      <stop
         id="stop13793"
         style="stop-color:#d36118;stop-opacity:1"
         offset="0" />
      <stop
         id="stop13795"
         style="stop-color:#f09e6f;stop-opacity:1"
         offset="1" />
    </linearGradient>
    <linearGradient
       inkscape:collect="always"
       xlink:href="#linearGradient15606-6"
       id="linearGradient5005"
       gradientUnits="userSpaceOnUse"
       gradientTransform="matrix(0.11666562,0,0,0.14999884,-77.432705,183.84461)"
       x1="812"
       y1="-1075.6378"
       x2="812"
       y2="-1115.6378" />
    <linearGradient
       id="linearGradient15606-6">
      <stop
         style="stop-color: rgb(255, 255, 255); stop-opacity: 0.588235;"
         offset="0"
         id="stop15608-8" />
      <stop
         style="stop-color: rgb(255, 255, 255); stop-opacity: 0.862745;"
         offset="1"
         id="stop15610-7" />
    </linearGradient>
    <linearGradient
       id="linearGradient13785-5"
       inkscape:collect="always">
      <stop
         id="stop13787-5"
         offset="0"
         style="stop-color: rgb(163, 62, 3); stop-opacity: 1;" />
      <stop
         id="stop13789-99"
         offset="1"
         style="stop-color: rgb(98, 37, 2); stop-opacity: 1;" />
    </linearGradient>
    <linearGradient
       gradientTransform="translate(-319.99998,-132.00001)"
       inkscape:collect="always"
       xlink:href="#linearGradient4338"
       id="linearGradient1313"
       x1="340"
       y1="132"
       x2="328"
       y2="164"
       gradientUnits="userSpaceOnUse" />
    <linearGradient
       inkscape:collect="always"
       xlink:href="#linearGradient13785-5"
       id="linearGradient3776"
       x1="15"
       y1="4"
       x2="15"
       y2="35"
       gradientUnits="userSpaceOnUse" />
    <linearGradient
       inkscape:collect="always"
       xlink:href="#linearGradient13785-5"
       id="linearGradient122"
       gradientUnits="userSpaceOnUse"
       x1="15"
       y1="4"
       x2="15"
       y2="35"
       gradientTransform="translate(0,2)" />
  </defs>
  <sodipodi:namedview
     pagecolor="#ffffff"
     bordercolor="#666666"
     borderopacity="1"
     objecttolerance="10"
     gridtolerance="10"
     guidetolerance="10"
     inkscape:pageopacity="0"
     inkscape:pageshadow="2"
     inkscape:window-width="1920"
     inkscape:window-height="1016"
     id="namedview26"
     showgrid="true"
     inkscape:zoom="67.333333"
     inkscape:cx="17.272277"
     inkscape:cy="17.799505"
     inkscape:window-x="0"
     inkscape:window-y="27"
     inkscape:window-maximized="1"
     inkscape:current-layer="svg24"
     inkscape:document-rotation="0"
     inkscape:pagecheckerboard="0">
    <inkscape:grid
       type="xygrid"
       id="grid893" />
  </sodipodi:namedview>
  <path
     inkscape:connector-curvature="0"
     id="path922"
     d="m 20.306184,3.00045 c 1.41241,0 2.52238,0.0342 3.42383,0.18555 0.90145,0.15132 1.61987,0.43164 2.14258,0.95312 0.5227,0.52148 0.80325,1.23898 0.95312,2.14063 0.14988,0.90164 0.18075,2.0101 0.17383,3.42578 v 6.29446 6.29644 c 0.007,1.41452 -0.024,2.52269 -0.17383,3.42382 -0.14987,0.90165 -0.43041,1.61915 -0.95312,2.14063 -0.52272,0.52148 -1.24112,0.8018 -2.14258,0.95312 -0.90146,0.15132 -2.01142,0.18555 -3.42383,0.18555 h -8.61523 c -1.41241,0 -2.5184699,-0.0342 -3.4179699,-0.18555 -0.8995,-0.15137 -1.61597,-0.43149 -2.13672,-0.95312 -0.52075,-0.52163 -0.80004,-1.23774 -0.95117,-2.13867 -0.15113,-0.90094 -0.18555,-2.01055 -0.18555,-3.42578 V 15.99999 9.70357 c 0,-1.41524 0.0344,-2.52484 0.18555,-3.42578 0.15113,-0.90093 0.43042,-1.61703 0.95117,-2.13867 0.52075,-0.52163 1.23722,-0.80175 2.13672,-0.95312 0.8995,-0.15137 2.0055599,-0.18555 3.4179699,-0.18555 z"
     style="color:#000000;display:inline;overflow:visible;visibility:visible;fill:#993a03;fill-opacity:1;fill-rule:nonzero;stroke:none;stroke-width:1;marker:none;enable-background:accumulate"
     sodipodi:nodetypes="scccccccsssscssscsccsss" />
  <path
     id="path1295"
     d="m 11.192904,4.99999 c -1.3720499,0 -2.3781499,0.0445 -3.0097699,0.15039 -0.61819,0.10377 -0.76201,0.22891 -0.79101,0.25781 -0.0276,0.0276 -0.14965,0.1658 -0.25196,0.78125 -0.10462,0.62946 -0.14762,1.63095 -0.14062,3.00391 v 0.006 5.80064 7.80273 0.006 c -0.007,1.37154 0.036,2.37291 0.14062,3.00196 0.10231,0.61547 0.22436,0.75365 0.25196,0.78125 0.029,0.029 0.17281,0.15404 0.79101,0.25781 0.63175,0.10609 1.63775,0.15039 3.0097699,0.15039 h 9.61523 c 1.37206,0 2.37433,-0.0445 3.00391,-0.15039 0.616,-0.10366 0.75435,-0.22701 0.78125,-0.25391 0.0283,-0.0283 0.15211,-0.16861 0.25586,-0.78711 0.10599,-0.632 0.15039,-1.63731 0.15039,-3.01199 v -7.79688 -5 l -6,-4.99986 z"
     style="color:#000000;font-style:normal;font-variant:normal;font-weight:normal;font-stretch:normal;font-size:medium;line-height:normal;font-family:sans-serif;font-variant-ligatures:normal;font-variant-position:normal;font-variant-caps:normal;font-variant-numeric:normal;font-variant-alternates:normal;font-feature-settings:normal;text-indent:0;text-align:start;text-decoration:none;text-decoration-line:none;text-decoration-style:solid;text-decoration-color:#000000;letter-spacing:normal;word-spacing:normal;text-transform:none;writing-mode:lr-tb;direction:ltr;text-orientation:mixed;dominant-baseline:auto;baseline-shift:baseline;text-anchor:start;white-space:normal;shape-padding:0;clip-rule:nonzero;display:inline;overflow:visible;visibility:visible;isolation:auto;mix-blend-mode:normal;color-interpolation:sRGB;color-interpolation-filters:linearRGB;solid-color:#000000;solid-opacity:1;vector-effect:none;fill:url(#linearGradient1313);fill-opacity:1;fill-rule:nonzero;stroke:none;stroke-width:5;stroke-linecap:butt;stroke-linejoin:miter;stroke-miterlimit:4;stroke-dasharray:none;stroke-dashoffset:0;stroke-opacity:1;marker:none;color-rendering:auto;image-rendering:auto;shape-rendering:auto;text-rendering:auto;enable-background:accumulate"
     inkscape:connector-curvature="0"
     sodipodi:nodetypes="scccccccccscsscscscccs" />
  <path
     id="rect4985"
     style="display:inline;overflow:visible;visibility:visible;fill:#a33e03;fill-opacity:1;fill-rule:nonzero;stroke:none;stroke-width:0.999993;marker:none;enable-background:new"
     d="m 10.999993,13.000023 h 10.000026 c 1.107992,0 1.999986,0.891994 1.999986,1.999985 v 6.999988 c 0,1.107992 -0.891994,1.999986 -1.999986,1.999986 H 10.999993 c -1.107992,0 -1.999986,-0.891994 -1.999986,-1.999986 v -6.999988 c 0,-1.107991 0.891994,-1.999985 1.999986,-1.999985 z"
     sodipodi:nodetypes="sssssssss" />
  <path
     id="rect4987"
     style="display:inline;overflow:visible;visibility:visible;fill:url(#linearGradient5003);fill-opacity:1;fill-rule:nonzero;stroke:none;stroke-width:0.999993;marker:none;enable-background:new"
     d="m 10.999977,14.000008 h 10.000026 c 0.553996,0 0.999992,0.445997 0.999992,0.999992 v 6.999988 c 0,0.553996 -0.445997,0.999993 -0.999993,0.999993 H 10.999977 c -0.553996,0 -0.999993,-0.445997 -0.999993,-0.999993 V 15 c 0,-0.553995 0.445997,-0.999992 0.999993,-0.999992 z"
     sodipodi:nodetypes="sssssssss" />
  <path
     id="rect4989"
     style="display:inline;overflow:visible;visibility:visible;fill:url(#linearGradient5005);fill-opacity:1;fill-rule:nonzero;stroke:none;stroke-width:0.999993;marker:none;enable-background:new"
     d="m 10.99997,14.000008 h 10.000026 c 0.553996,0 0.999992,0.445997 0.999992,0.999992 v 6.999988 c 0,0.553996 -0.445997,0.999993 -0.999993,0.999993 H 10.99997 c -0.553996,0 -0.999993,-0.445997 -0.999993,-0.999993 V 15 c 0,-0.553995 0.445997,-0.999992 0.999993,-0.999992 z"
     sodipodi:nodetypes="sssssssss" />
  <path
     id="ellipse4995"
     style="display:inline;overflow:visible;visibility:visible;fill:#d36118;fill-opacity:1;fill-rule:nonzero;stroke:none;stroke-width:0.186095;marker:none;enable-background:new"
     d="m 13.000117,18.499787 c 0,0.27614 -0.223855,0.499995 -0.499995,0.499995 -0.27614,0 -0.499995,-0.223855 -0.499996,-0.499995 0,-0.27614 0.223856,-0.499996 0.499996,-0.499996 0.27614,0 0.499996,0.223856 0.499995,0.499996 z"
     sodipodi:nodetypes="sssss" />
  <path
     id="ellipse4999"
     style="display:inline;overflow:visible;visibility:visible;fill:#d36118;fill-opacity:1;fill-rule:nonzero;stroke:none;stroke-width:0.186095;marker:none;enable-background:new"
     d="m 13.000117,20.499771 c 0,0.27614 -0.223855,0.499995 -0.499995,0.499995 -0.27614,0 -0.499995,-0.223855 -0.499996,-0.499995 0,-0.27614 0.223856,-0.499996 0.499996,-0.499996 0.27614,0 0.499996,0.223856 0.499995,0.499996 z"
     sodipodi:nodetypes="sssss" />
  <rect
     style="opacity:1;fill:#d36118;fill-rule:evenodd;stroke:none;stroke-width:1.00157;stroke-linecap:square;fill-opacity:1"
     id="rect3612"
     width="8"
     height="1"
     x="12"
     y="16"
     ry="0.5"
     rx="0.5" />
  <rect
     style="opacity:1;fill:url(#linearGradient3776);fill-opacity:1;fill-rule:evenodd;stroke:none;stroke-width:1.00157;stroke-linecap:square"
     id="rect3768"
     width="6"
     height="1"
     x="14"
     y="18"
     rx="0.5"
     ry="0.5" />
  <rect
     style="opacity:1;fill:url(#linearGradient122);fill-opacity:1;fill-rule:evenodd;stroke:none;stroke-width:1.00157;stroke-linecap:square"
     id="rect120"
     width="6"
     height="1"
     x="14"
     y="20"
     rx="0.5"
     ry="0.5" />
</svg>
