<?xml version="1.0" encoding="UTF-8" standalone="no"?>
<svg
   xmlns:dc="http://purl.org/dc/elements/1.1/"
   xmlns:cc="http://creativecommons.org/ns#"
   xmlns:rdf="http://www.w3.org/1999/02/22-rdf-syntax-ns#"
   xmlns:svg="http://www.w3.org/2000/svg"
   xmlns="http://www.w3.org/2000/svg"
   xmlns:xlink="http://www.w3.org/1999/xlink"
   xmlns:sodipodi="http://sodipodi.sourceforge.net/DTD/sodipodi-0.dtd"
   xmlns:inkscape="http://www.inkscape.org/namespaces/inkscape"
   viewBox="0 0 32 32"
   version="1.1"
   id="svg22"
   sodipodi:docname="lx03250_32.svg"
   inkscape:version="1.0.1 (3bc2e813f5, 2020-09-07)"
   width="32"
   height="32">
  <metadata
     id="metadata28">
    <rdf:RDF>
      <cc:Work
         rdf:about="">
        <dc:format>image/svg+xml</dc:format>
        <dc:type
           rdf:resource="http://purl.org/dc/dcmitype/StillImage" />
        <dc:title></dc:title>
      </cc:Work>
    </rdf:RDF>
  </metadata>
  <defs
     id="defs26">
    <linearGradient
       id="linearGradient10292">
      <stop
         id="stop10294"
         style="stop-color:#666666;stop-opacity:1"
         offset="0" />
      <stop
         id="stop10296"
         style="stop-color:#333333;stop-opacity:1"
         offset="1" />
    </linearGradient>
    <linearGradient
       id="linearGradient9364">
      <stop
         style="stop-color: rgb(99, 187, 238); stop-opacity: 1;"
         offset="0"
         id="stop9366" />
      <stop
         style="stop-color: rgb(170, 220, 247); stop-opacity: 1;"
         offset="1"
         id="stop9368" />
    </linearGradient>
    <linearGradient
       inkscape:collect="always"
       id="linearGradient4338">
      <stop
         style="stop-color:#f2f2f2;stop-opacity:1"
         offset="0"
         id="stop4340" />
      <stop
         style="stop-color:#ffffff;stop-opacity:1"
         offset="1"
         id="stop4342" />
    </linearGradient>
    <linearGradient
       id="linearGradient13214">
      <stop
         id="stop13216"
         style="stop-color:#18a303;stop-opacity:1"
         offset="0" />
      <stop
         id="stop13218"
         style="stop-color:#106802;stop-opacity:1"
         offset="1" />
    </linearGradient>
    <linearGradient
       id="linearGradient15606-6">
      <stop
         style="stop-color: rgb(255, 255, 255); stop-opacity: 0.588235;"
         offset="0"
         id="stop15608-8" />
      <stop
         style="stop-color: rgb(255, 255, 255); stop-opacity: 0.862745;"
         offset="1"
         id="stop15610-7" />
    </linearGradient>
    <linearGradient
       id="linearGradient7723">
      <stop
         id="stop7721"
         style="stop-color:#2e851b;stop-opacity:1"
         offset="0" />
      <stop
         id="stop7715"
         style="stop-color:#18a003;stop-opacity:1"
         offset="1" />
    </linearGradient>
    <linearGradient
       gradientTransform="translate(-319.99952,-132)"
       inkscape:collect="always"
       xlink:href="#linearGradient4338"
       id="linearGradient1313"
       x1="340"
       y1="132"
       x2="328"
       y2="164"
       gradientUnits="userSpaceOnUse" />
    <linearGradient
       inkscape:collect="always"
       xlink:href="#linearGradient13214"
       id="linearGradient54088"
       gradientUnits="userSpaceOnUse"
       gradientTransform="translate(-586.99952,-970.0022)"
       x1="592.2019"
       y1="968.76935"
       x2="592.64386"
       y2="1000.1472" />
    <linearGradient
       inkscape:collect="always"
       xlink:href="#linearGradient15606-6"
       id="linearGradient54090"
       gradientUnits="userSpaceOnUse"
       gradientTransform="matrix(1,0,0,1.2,-463.99952,935.5628)"
       x1="481"
       y1="-759.63782"
       x2="481"
       y2="-764.63782" />
    <clipPath
       clipPathUnits="userSpaceOnUse"
       id="clipPath959">
      <path
         style="color:#000000;display:inline;overflow:visible;visibility:visible;opacity:1;fill:#46a926;fill-opacity:1;fill-rule:nonzero;stroke:none;stroke-width:2;stroke-miterlimit:4;stroke-dasharray:none;stroke-opacity:1;marker:none;enable-background:accumulate"
         d="m 330.1929,133.99999 c -5.61538,0 -6.21958,0.57678 -6.19206,6.20352 v 7.79648 7.79648 c -0.0276,5.62673 0.57668,6.20351 6.19206,6.20351 h 11.615 c 5.6154,0 6.19208,-0.5767 6.19208,-6.20351 v -7.79648 -7.79648 c 0,-5.6268 -0.5767,-6.20352 -6.19208,-6.20352 z"
         id="path961"
         inkscape:connector-curvature="0"
         sodipodi:nodetypes="scccssscsss" />
    </clipPath>
  </defs>
  <sodipodi:namedview
     pagecolor="#ffffff"
     bordercolor="#666666"
     borderopacity="1"
     objecttolerance="10"
     gridtolerance="10"
     guidetolerance="10"
     inkscape:pageopacity="0"
     inkscape:pageshadow="2"
     inkscape:window-width="1920"
     inkscape:window-height="1011"
     id="namedview24"
     showgrid="true"
     inkscape:zoom="13.324543"
     inkscape:cx="6.9985287"
     inkscape:cy="12.939814"
     inkscape:window-x="0"
     inkscape:window-y="0"
     inkscape:window-maximized="1"
     inkscape:current-layer="svg22"
     inkscape:document-rotation="0"
     inkscape:snap-bbox="true"
     inkscape:bbox-paths="true"
     inkscape:bbox-nodes="true"
     inkscape:snap-bbox-edge-midpoints="true"
     inkscape:snap-bbox-midpoints="true">
    <inkscape:grid
       type="xygrid"
       id="grid931" />
  </sodipodi:namedview>
  <path
     inkscape:connector-curvature="0"
     id="path922"
     d="m 20.30664,3.00046 c 1.41241,0 2.52238,0.0342 3.42383,0.18555 0.90145,0.15132 1.61987,0.43164 2.14258,0.95312 0.5227,0.52148 0.80325,1.23898 0.95312,2.14063 C 26.97605,7.1814 27.00692,8.28986 27,9.70554 V 16 22.29644 c 0.007,1.41452 -0.024,2.52269 -0.17383,3.42382 -0.14987,0.90165 -0.43041,1.61915 -0.95312,2.14063 -0.52272,0.52148 -1.24112,0.8018 -2.14258,0.95312 -0.90146,0.15132 -2.01142,0.18555 -3.42383,0.18555 h -8.61523 c -1.41241,0 -2.51847,-0.0342 -3.41797,-0.18555 C 7.37394,28.66264 6.65747,28.38252 6.13672,27.86089 5.61597,27.33926 5.33668,26.62315 5.18555,25.72222 5.03442,24.82128 5,23.71167 5,22.29644 V 16 9.70358 C 5,8.28834 5.0344,7.17874 5.18555,6.2778 5.33668,5.37687 5.61597,4.66077 6.13672,4.13913 6.65747,3.6175 7.37394,3.33738 8.27344,3.18601 9.17294,3.03464 10.279,3.00046 11.69141,3.00046 Z"
     style="color:#000000;display:inline;overflow:visible;visibility:visible;fill:#2e851b;fill-opacity:1;fill-rule:nonzero;stroke:none;stroke-width:1;marker:none;enable-background:accumulate"
     sodipodi:nodetypes="scccccccsssscssscsccsss" />
  <path
     id="path1295"
     d="M 11.19336,5 C 9.82131,5 8.81521,5.0445 8.18359,5.15039 7.5654,5.25416 7.42158,5.3793 7.39258,5.4082 7.36498,5.4358 7.24293,5.574 7.14062,6.18945 7.036,6.81891 6.993,7.8204 7,9.19336 V 9.19936 15 v 7.80273 0.006 c -0.007,1.37154 0.036,2.37291 0.14062,3.00196 0.10231,0.61547 0.22436,0.75365 0.25196,0.78125 0.029,0.029 0.17281,0.15404 0.79101,0.25781 0.63175,0.10609 1.63775,0.15039 3.00977,0.15039 h 9.61523 c 1.37206,0 2.37433,-0.0445 3.00391,-0.15039 0.616,-0.10366 0.75435,-0.22701 0.78125,-0.25391 0.0283,-0.0283 0.15211,-0.16861 0.25586,-0.78711 C 24.9556,25.17673 25,24.17142 25,22.79674 v -7.79688 -5 L 19,5 Z"
     style="color:#000000;font-style:normal;font-variant:normal;font-weight:normal;font-stretch:normal;font-size:medium;line-height:normal;font-family:sans-serif;font-variant-ligatures:normal;font-variant-position:normal;font-variant-caps:normal;font-variant-numeric:normal;font-variant-alternates:normal;font-feature-settings:normal;text-indent:0;text-align:start;text-decoration:none;text-decoration-line:none;text-decoration-style:solid;text-decoration-color:#000000;letter-spacing:normal;word-spacing:normal;text-transform:none;writing-mode:lr-tb;direction:ltr;text-orientation:mixed;dominant-baseline:auto;baseline-shift:baseline;text-anchor:start;white-space:normal;shape-padding:0;clip-rule:nonzero;display:inline;overflow:visible;visibility:visible;isolation:auto;mix-blend-mode:normal;color-interpolation:sRGB;color-interpolation-filters:linearRGB;solid-color:#000000;solid-opacity:1;vector-effect:none;fill:url(#linearGradient1313);fill-opacity:1;fill-rule:nonzero;stroke:none;stroke-width:5;stroke-linecap:butt;stroke-linejoin:miter;stroke-miterlimit:4;stroke-dasharray:none;stroke-dashoffset:0;stroke-opacity:1;marker:none;color-rendering:auto;image-rendering:auto;shape-rendering:auto;text-rendering:auto;enable-background:accumulate"
     inkscape:connector-curvature="0"
     sodipodi:nodetypes="scccccccccscsscscscccs" />
  <rect
     y="11"
     x="9"
     height="12.999945"
     width="14.000479"
     id="rect15558-5"
     style="display:inline;overflow:visible;visibility:visible;fill:#ccf4c6;fill-opacity:1;fill-rule:nonzero;stroke:none;stroke-width:1;marker:none;enable-background:new" />
  <rect
     style="display:inline;overflow:visible;visibility:visible;fill:#92e285;fill-opacity:1;fill-rule:nonzero;stroke:none;stroke-width:1;marker:none;enable-background:new"
     id="rect7360"
     width="14"
     height="4"
     x="9"
     y="11" />
  <path
     inkscape:connector-curvature="0"
     id="rect6547"
     d="m 9,11 v 1 2 1 2 1 2 1 2 1 H 23 V 23 12 11 h -1 -2.999521 -1 -4 -1 H 10 Z m 1,1 h 3.000479 v 2 H 10 Z m 4.000479,0 h 4 v 2 h -4 z m 5,0 H 22 v 2 H 19.000479 Z M 10,15 h 3.000479 v 2 H 10 Z m 4.000479,0 h 4 v 2 h -4 z m 5,0 H 22 v 2 H 19.000479 Z M 10,18 h 3.000479 v 2 H 10 Z m 4.000479,0 h 4 v 2 h -4 z m 5,0 H 22 v 2 H 19.000479 Z M 10,21 h 3.000479 v 2 H 10 Z m 4.000479,0 h 4 v 2 h -4 z m 5,0 H 22 v 2 h -2.999521 z"
     style="display:inline;overflow:visible;visibility:visible;fill:url(#linearGradient54088);fill-opacity:1;fill-rule:nonzero;stroke:none;stroke-width:1;marker:none;enable-background:new"
     sodipodi:nodetypes="ccccccccccccccccccccccccccccccccccccccccccccccccccccccccccccccccccccccccccccccccc" />
  <rect
     style="display:inline;overflow:visible;visibility:visible;fill:#808080;fill-opacity:1;fill-rule:nonzero;stroke:none;stroke-width:1;marker:none;enable-background:new"
     id="rect7336"
     width="8"
     height="7.9999647"
     x="16.000479"
     y="16.999983" />
  <rect
     style="display:inline;overflow:visible;visibility:visible;fill:#cccccc;fill-opacity:1;fill-rule:nonzero;stroke:none;stroke-width:1;marker:none;enable-background:new"
     id="rect7362"
     width="6"
     height="5.9999619"
     x="17.000479"
     y="17.999983" />
  <rect
     y="17.999983"
     x="17.000479"
     height="5.9999619"
     width="6"
     id="rect6567"
     style="display:inline;overflow:visible;visibility:visible;fill:url(#linearGradient54090);fill-opacity:1;fill-rule:nonzero;stroke:none;stroke-width:1;marker:none;enable-background:new" />
  <rect
     style="display:inline;overflow:visible;visibility:visible;fill:#1c99e0;fill-opacity:1;fill-rule:nonzero;stroke:none;stroke-width:1;marker:none;enable-background:new"
     id="rect6585"
     width="2"
     height="2.9999723"
     x="18.000479"
     y="20.999983" />
  <rect
     y="18.999983"
     x="20.000479"
     height="4.9999609"
     width="2"
     id="rect6587"
     style="display:inline;overflow:visible;visibility:visible;fill:#d36118;fill-opacity:1;fill-rule:nonzero;stroke:none;stroke-width:1;marker:none;enable-background:new" />
  <rect
     y="20.999983"
     x="18.000479"
     height="1.9999989"
     width="1"
     id="rect7350"
     style="display:inline;overflow:visible;visibility:visible;fill:#63bbee;fill-opacity:1;fill-rule:nonzero;stroke:none;stroke-width:1;marker:none;enable-background:new" />
  <rect
     style="display:inline;overflow:visible;visibility:visible;fill:#f09e6f;fill-opacity:1;fill-rule:nonzero;stroke:none;stroke-width:1;marker:none;enable-background:new"
     id="rect7352"
     width="1"
     height="3.9999883"
     x="20.000479"
     y="18.999983" />
</svg>
