<?xml version="1.0" encoding="UTF-8" standalone="no"?>
<svg
   xmlns:dc="http://purl.org/dc/elements/1.1/"
   xmlns:cc="http://creativecommons.org/ns#"
   xmlns:rdf="http://www.w3.org/1999/02/22-rdf-syntax-ns#"
   xmlns:svg="http://www.w3.org/2000/svg"
   xmlns="http://www.w3.org/2000/svg"
   xmlns:xlink="http://www.w3.org/1999/xlink"
   xmlns:sodipodi="http://sodipodi.sourceforge.net/DTD/sodipodi-0.dtd"
   xmlns:inkscape="http://www.inkscape.org/namespaces/inkscape"
   viewBox="0 0 24 24"
   version="1.1"
   id="svg14"
   sodipodi:docname="lx03247.svg"
   inkscape:version="1.0.1 (3bc2e813f5, 2020-09-07)">
  <metadata
     id="metadata20">
    <rdf:RDF>
      <cc:Work
         rdf:about="">
        <dc:format>image/svg+xml</dc:format>
        <dc:type
           rdf:resource="http://purl.org/dc/dcmitype/StillImage" />
      </cc:Work>
    </rdf:RDF>
  </metadata>
  <defs
     id="defs18">
    <linearGradient
       gradientTransform="translate(-320.49979,-189)"
       inkscape:collect="always"
       xlink:href="#linearGradient4338"
       id="linearGradient1311"
       x1="327.99951"
       y1="188"
       x2="335.99951"
       y2="212"
       gradientUnits="userSpaceOnUse" />
    <linearGradient
       inkscape:collect="always"
       id="linearGradient4338">
      <stop
         style="stop-color:#f2f2f2;stop-opacity:1"
         offset="0"
         id="stop4340" />
      <stop
         style="stop-color:#ffffff;stop-opacity:1"
         offset="1"
         id="stop4342" />
    </linearGradient>
    <linearGradient
       id="linearGradient15606-6">
      <stop
         style="stop-color: rgb(255, 255, 255); stop-opacity: 0.588235;"
         offset="0"
         id="stop15608-8" />
      <stop
         style="stop-color: rgb(255, 255, 255); stop-opacity: 0.862745;"
         offset="1"
         id="stop15610-7" />
    </linearGradient>
    <linearGradient
       inkscape:collect="always"
       xlink:href="#linearGradient10292"
       id="linearGradient1974"
       gradientUnits="userSpaceOnUse"
       gradientTransform="translate(-182.99866,-1011.8622)"
       x1="195.75"
       y1="1016.2372"
       x2="195.75"
       y2="1032.2383" />
    <linearGradient
       id="linearGradient10292">
      <stop
         id="stop10294"
         style="stop-color:#666666;stop-opacity:1"
         offset="0" />
      <stop
         id="stop10296"
         style="stop-color:#333333;stop-opacity:1"
         offset="1" />
    </linearGradient>
    <linearGradient
       inkscape:collect="always"
       xlink:href="#linearGradient10292"
       id="linearGradient1976"
       gradientUnits="userSpaceOnUse"
       gradientTransform="translate(-184.49877,-1012.3621)"
       x1="195.75"
       y1="1016.2372"
       x2="195.75"
       y2="1032.2383" />
    <linearGradient
       inkscape:collect="always"
       xlink:href="#linearGradient10292"
       id="linearGradient1978"
       gradientUnits="userSpaceOnUse"
       gradientTransform="matrix(-1,0,0,1,211.50134,-1011.8622)"
       x1="195.75"
       y1="1016.2372"
       x2="195.75"
       y2="1032.2383" />
  </defs>
  <sodipodi:namedview
     pagecolor="#ffffff"
     bordercolor="#666666"
     borderopacity="1"
     objecttolerance="10"
     gridtolerance="10"
     guidetolerance="10"
     inkscape:pageopacity="0"
     inkscape:pageshadow="2"
     inkscape:window-width="1920"
     inkscape:window-height="1011"
     id="namedview16"
     showgrid="true"
     inkscape:zoom="33.666667"
     inkscape:cx="12"
     inkscape:cy="12"
     inkscape:window-x="0"
     inkscape:window-y="0"
     inkscape:window-maximized="1"
     inkscape:current-layer="svg14">
    <inkscape:grid
       type="xygrid"
       id="grid909" />
  </sodipodi:namedview>
  <path
     id="path1141"
     style="color:#000000;font-style:normal;font-variant:normal;font-weight:normal;font-stretch:normal;font-size:medium;line-height:normal;font-family:sans-serif;font-variant-ligatures:normal;font-variant-position:normal;font-variant-caps:normal;font-variant-numeric:normal;font-variant-alternates:normal;font-feature-settings:normal;text-indent:0;text-align:start;text-decoration:none;text-decoration-line:none;text-decoration-style:solid;text-decoration-color:#000000;letter-spacing:normal;word-spacing:normal;text-transform:none;writing-mode:lr-tb;direction:ltr;text-orientation:mixed;dominant-baseline:auto;baseline-shift:baseline;text-anchor:start;white-space:normal;shape-padding:0;clip-rule:nonzero;display:inline;overflow:visible;visibility:visible;opacity:1;isolation:auto;mix-blend-mode:normal;color-interpolation:sRGB;color-interpolation-filters:linearRGB;solid-color:#000000;solid-opacity:1;vector-effect:none;fill:#4c4c4c;fill-opacity:1;fill-rule:nonzero;stroke:#4c4c4c;stroke-width:2;stroke-linecap:butt;stroke-linejoin:miter;stroke-miterlimit:4;stroke-dasharray:none;stroke-dashoffset:0;stroke-opacity:1;marker:none;color-rendering:auto;image-rendering:auto;shape-rendering:auto;text-rendering:auto;enable-background:accumulate"
     d="m 8.8652344,2.9999979 c -1.08855,0 -1.9003446,0.0312 -2.4589844,0.125 C 5.85738,3.2170979 5.6094194,3.3537791 5.4746094,3.4882791 5.3402494,3.6223192 5.2081875,3.8647273 5.1171875,4.4121073 5.0246875,4.9683772 4.9949999,5.7788484 5,6.8691384 v 0.00391 4.1269536 6.128906 0.002 c -0.005,1.0898 0.024897,1.901902 0.1171875,2.457032 0.091,0.5474 0.2230619,0.789788 0.3574219,0.923828 0.13484,0.134473 0.3827706,0.271134 0.9316406,0.363234 0.5586198,0.0938 1.3704344,0.125 2.4589844,0.125 H 12 15.134766 c 1.08855,0 1.900345,-0.0312 2.458984,-0.125 0.54887,-0.0921 0.796831,-0.228781 0.931641,-0.363281 0.13436,-0.13404 0.266421,-0.376448 0.357421,-0.923828 C 18.975312,19.031623 19.005,18.221151 19,17.130861 v -0.0039 -4.126953 -6.1289067 -0.00195 c 0.005,-1.0898 -0.0249,-1.9019012 -0.117188,-2.4570311 -0.091,-0.5474 -0.223061,-0.7897882 -0.357421,-0.9238282 -0.13484,-0.13452 -0.382771,-0.2711812 -0.931641,-0.3632812 -0.558619,-0.0938 -1.370434,-0.125 -2.458984,-0.125 H 12 Z" />
  <path
     inkscape:connector-curvature="0"
     style="color:#000000;font-style:normal;font-variant:normal;font-weight:normal;font-stretch:normal;font-size:medium;line-height:normal;font-family:sans-serif;font-variant-ligatures:normal;font-variant-position:normal;font-variant-caps:normal;font-variant-numeric:normal;font-variant-alternates:normal;font-feature-settings:normal;text-indent:0;text-align:start;text-decoration:none;text-decoration-line:none;text-decoration-style:solid;text-decoration-color:#000000;letter-spacing:normal;word-spacing:normal;text-transform:none;writing-mode:lr-tb;direction:ltr;text-orientation:mixed;dominant-baseline:auto;baseline-shift:baseline;text-anchor:start;white-space:normal;shape-padding:0;clip-rule:nonzero;display:inline;overflow:visible;visibility:visible;opacity:1;isolation:auto;mix-blend-mode:normal;color-interpolation:sRGB;color-interpolation-filters:linearRGB;solid-color:#000000;solid-opacity:1;vector-effect:none;fill:url(#linearGradient1311);fill-opacity:1;fill-rule:nonzero;stroke:none;stroke-width:3;stroke-linecap:butt;stroke-linejoin:miter;stroke-miterlimit:4;stroke-dasharray:none;stroke-dashoffset:0;stroke-opacity:1;marker:none;color-rendering:auto;image-rendering:auto;shape-rendering:auto;text-rendering:auto;enable-background:accumulate"
     d="m 8.8656149,2.9999979 c -1.08855,0 -1.90034,0.0312 -2.4589798,0.125 -0.54887,0.0921 -0.79683,0.22878 -0.93164,0.36328 -0.13436,0.13404 -0.26642,0.37645 -0.35742,0.92383 -0.0925,0.5562699 -0.1221901,1.3667399 -0.11719,2.4570299 v 0.004 4.1269502 6.12891 0.002 c -0.005,1.0898 0.0249,1.9019 0.11719,2.45703 0.091,0.5474 0.22306,0.78979 0.35742,0.92383 0.13484,0.13452 0.38277,0.27118 0.93164,0.36328 0.5586198,0.0938 1.3704298,0.125 2.4589798,0.125 h 6.2696561 c 1.08864,0 1.90078,-0.0314 2.45703,-0.125 0.54703,-0.0921 0.78777,-0.227 0.92187,-0.36133 0.13429,-0.13451 0.26913,-0.37646 0.36133,-0.92578 0.0936,-0.55811 0.105238,-1.372509 0.125,-2.46303 v -6.125 -3.0000002 L 12,2.9999979 Z"
     id="path1293"
     sodipodi:nodetypes="scccccccccccsscccscccs" />
  <path
     sodipodi:nodetypes="cc"
     id="path1966"
     d="m 15.50014,13.49999 -3,2.9999"
     style="display:inline;fill:none;stroke:url(#linearGradient1974);stroke-width:1px;stroke-linecap:square;stroke-linejoin:round;stroke-opacity:1"
     inkscape:connector-curvature="0" />
  <path
     style="display:inline;fill:none;stroke:url(#linearGradient1976);stroke-width:1px;stroke-linecap:square;stroke-linejoin:round;stroke-opacity:1"
     d="m 16.50003,11 v -0.5 h -6 l -1,7.00007 -1.25,-3.99997 h -0.75"
     id="path1968"
     sodipodi:nodetypes="cccccc"
     inkscape:connector-curvature="0" />
  <path
     style="display:inline;fill:none;stroke:url(#linearGradient1978);stroke-width:1px;stroke-linecap:square;stroke-linejoin:round;stroke-opacity:1"
     d="m 12.50014,13.49999 3,2.9999"
     id="path1970"
     sodipodi:nodetypes="cc"
     inkscape:connector-curvature="0" />
</svg>
