<?xml version="1.0" encoding="UTF-8" standalone="no"?>
<svg
   height="32"
   width="32"
   version="1.1"
   id="svg31"
   sodipodi:docname="odg_32_8.svg"
   inkscape:version="1.1 (ce6663b3b7, 2021-05-25)"
   inkscape:export-filename="/home/jupiter007/Libreoffice yaru theme/build/res/odg_32_8.png"
   inkscape:export-xdpi="96"
   inkscape:export-ydpi="96"
   xmlns:inkscape="http://www.inkscape.org/namespaces/inkscape"
   xmlns:sodipodi="http://sodipodi.sourceforge.net/DTD/sodipodi-0.dtd"
   xmlns:xlink="http://www.w3.org/1999/xlink"
   xmlns="http://www.w3.org/2000/svg"
   xmlns:svg="http://www.w3.org/2000/svg"
   xmlns:rdf="http://www.w3.org/1999/02/22-rdf-syntax-ns#"
   xmlns:cc="http://creativecommons.org/ns#"
   xmlns:dc="http://purl.org/dc/elements/1.1/">
  <metadata
     id="metadata37">
    <rdf:RDF>
      <cc:Work
         rdf:about="">
        <dc:format>image/svg+xml</dc:format>
        <dc:type
           rdf:resource="http://purl.org/dc/dcmitype/StillImage" />
      </cc:Work>
    </rdf:RDF>
  </metadata>
  <defs
     id="defs35">
    <linearGradient
       inkscape:collect="always"
       xlink:href="#linearGradient927"
       id="linearGradient969"
       x1="336"
       y1="134"
       x2="336"
       y2="162"
       gradientUnits="userSpaceOnUse" />
    <linearGradient
       inkscape:collect="always"
       id="linearGradient927">
      <stop
         style="stop-color:#ffffff;stop-opacity:1;"
         offset="0"
         id="stop923" />
      <stop
         id="stop933"
         offset="0.125"
         style="stop-color:#ffffff;stop-opacity:0.09803922" />
      <stop
         id="stop931"
         offset="0.92500001"
         style="stop-color:#ffffff;stop-opacity:0.09803922" />
      <stop
         style="stop-color:#ffffff;stop-opacity:0.49803922"
         offset="1"
         id="stop925" />
    </linearGradient>
    <clipPath
       clipPathUnits="userSpaceOnUse"
       id="clipPath959">
      <path
         style="color:#000000;display:inline;overflow:visible;visibility:visible;opacity:1;fill:#46a926;fill-opacity:1;fill-rule:nonzero;stroke:none;stroke-width:2;stroke-miterlimit:4;stroke-dasharray:none;stroke-opacity:1;marker:none;enable-background:accumulate"
         d="m 330.1929,133.99999 c -5.61538,0 -6.21958,0.57678 -6.19206,6.20352 v 7.79648 7.79648 c -0.0276,5.62673 0.57668,6.20351 6.19206,6.20351 h 11.615 c 5.6154,0 6.19208,-0.5767 6.19208,-6.20351 v -7.79648 -7.79648 c 0,-5.6268 -0.5767,-6.20352 -6.19208,-6.20352 z"
         id="path961"
         inkscape:connector-curvature="0"
         sodipodi:nodetypes="scccssscsss" />
    </clipPath>
    <linearGradient
       id="linearGradient6989-5">
      <stop
         id="stop6991-5"
         offset="0"
         style="stop-color: rgb(240, 158, 111); stop-opacity: 1;" />
      <stop
         id="stop6993-1"
         offset="1"
         style="stop-color: rgb(249, 207, 181); stop-opacity: 1;" />
    </linearGradient>
    <linearGradient
       id="linearGradient6975-88">
      <stop
         id="stop6977-8"
         offset="0"
         style="stop-color: rgb(245, 206, 83); stop-opacity: 1;" />
      <stop
         id="stop6979-6"
         offset="1"
         style="stop-color: rgb(253, 233, 169); stop-opacity: 1;" />
    </linearGradient>
    <linearGradient
       gradientTransform="translate(-319.99952,-132)"
       inkscape:collect="always"
       xlink:href="#linearGradient4338"
       id="linearGradient1313"
       x1="340"
       y1="132"
       x2="328"
       y2="164"
       gradientUnits="userSpaceOnUse" />
    <linearGradient
       inkscape:collect="always"
       id="linearGradient4338">
      <stop
         style="stop-color:#f2f2f2;stop-opacity:1"
         offset="0"
         id="stop4340" />
      <stop
         style="stop-color:#ffffff;stop-opacity:1"
         offset="1"
         id="stop4342" />
    </linearGradient>
    <linearGradient
       inkscape:collect="always"
       xlink:href="#linearGradient7707"
       id="linearGradient924"
       gradientUnits="userSpaceOnUse"
       gradientTransform="matrix(0,-0.07208805,-0.07208601,0,39.129119,33.81816)"
       x1="459.03448"
       y1="419.23337"
       x2="35.310345"
       y2="207.36522" />
    <linearGradient
       id="linearGradient7707">
      <stop
         offset="0"
         style="stop-color:#d98027;stop-opacity:1"
         id="stop7703" />
      <stop
         offset="1"
         style="stop-color:#be5e0f;stop-opacity:1"
         id="stop7705" />
    </linearGradient>
    <linearGradient
       id="_Linear12"
       x1="0"
       y1="0"
       x2="1"
       y2="0"
       gradientUnits="userSpaceOnUse"
       gradientTransform="matrix(0,-8.29,8.29,0,745.808,146.553)">
      <stop
         offset="0"
         style="stop-color:rgb(240,188,111);stop-opacity:1"
         id="stop314" />
      <stop
         offset="1"
         style="stop-color:rgb(249,234,181);stop-opacity:1"
         id="stop316" />
    </linearGradient>
    <linearGradient
       id="_Linear13"
       x1="0"
       y1="0"
       x2="1"
       y2="0"
       gradientUnits="userSpaceOnUse"
       gradientTransform="matrix(0,-8.85,8.85,0,748.051,150.5)">
      <stop
         offset="0"
         style="stop-color:rgb(245,206,83);stop-opacity:1"
         id="stop319" />
      <stop
         offset="1"
         style="stop-color:rgb(253,233,169);stop-opacity:1"
         id="stop321" />
    </linearGradient>
  </defs>
  <sodipodi:namedview
     pagecolor="#ffffff"
     bordercolor="#666666"
     borderopacity="1"
     objecttolerance="10"
     gridtolerance="10"
     guidetolerance="10"
     inkscape:pageopacity="0"
     inkscape:pageshadow="2"
     inkscape:window-width="1920"
     inkscape:window-height="1016"
     id="namedview33"
     showgrid="true"
     inkscape:zoom="14.75"
     inkscape:cx="-0.23728814"
     inkscape:cy="10.40678"
     inkscape:window-x="0"
     inkscape:window-y="27"
     inkscape:window-maximized="1"
     inkscape:current-layer="svg31"
     inkscape:pagecheckerboard="0">
    <inkscape:grid
       type="xygrid"
       id="grid1443" />
  </sodipodi:namedview>
  <linearGradient
     id="a"
     gradientTransform="matrix(.49999977 0 0 .48275841 384.57144 516.34974)"
     gradientUnits="userSpaceOnUse"
     x1="32"
     x2="32"
     y1="61"
     y2="3">
    <stop
       offset="0"
       stop-color="#f39c12"
       id="stop2" />
    <stop
       offset="1"
       stop-color="#f9a11f"
       id="stop4" />
  </linearGradient>
  <linearGradient
     id="b"
     gradientUnits="userSpaceOnUse"
     x1="407.950735"
     x2="407.950735"
     y1="545.556623"
     y2="538.798005">
    <stop
       offset="0"
       stop-color="#fddda3"
       id="stop7" />
    <stop
       offset="1"
       stop-color="#fde3a7"
       id="stop9" />
  </linearGradient>
  <linearGradient
     id="c"
     gradientTransform="matrix(.48275841 0 0 -.48275841 378.50247 553.76351)"
     gradientUnits="userSpaceOnUse"
     x1="54"
     x2="39.500008"
     y1="31"
     y2="16.500048">
    <stop
       offset="0"
       stop-color="#383e51"
       id="stop12" />
    <stop
       offset="1"
       stop-color="#655c6f"
       stop-opacity="0"
       id="stop14" />
  </linearGradient>
  <path
     inkscape:connector-curvature="0"
     id="path922"
     d="m 21.806209,1.5 c 1.41241,0 2.52238,0.0342 3.42383,0.18555 0.90145,0.15132 1.61987,0.43164 2.14258,0.95312 0.5227,0.52148 0.80325,1.23898 0.95312,2.14063 0.14988,0.90164 0.18075,2.0101 0.17383,3.42578 v 7.79492 7.79688 c 0.007,1.41452 -0.024,2.52269 -0.17383,3.42382 -0.14987,0.90165 -0.43041,1.61915 -0.95312,2.14063 -0.52272,0.52148 -1.24112,0.8018 -2.14258,0.95312 -0.90146,0.15132 -2.01142,0.18555 -3.42383,0.18555 h -11.61523 c -1.41241,0 -2.51847,-0.0342 -3.41797,-0.18555 -0.8995,-0.15137 -1.61597,-0.43149 -2.13672,-0.95312 -0.52075,-0.52163 -0.80004,-1.23774 -0.95117,-2.13867 -0.15113,-0.90094 -0.18555,-2.01055 -0.18555,-3.42578 v -7.79688 -7.79688 c 0,-1.41524 0.0344,-2.52484 0.18555,-3.42578 0.15113,-0.90093 0.43042,-1.61703 0.95117,-2.13867 0.52075,-0.52163 1.23722,-0.80175 2.13672,-0.95312 0.8995,-0.15137 2.00556,-0.18555 3.41797,-0.18555 z"
     style="color:#000000;display:inline;overflow:visible;visibility:visible;fill:url(#linearGradient924);fill-opacity:1;fill-rule:nonzero;stroke:none;stroke-width:1;marker:none;enable-background:accumulate" />
  <path
     id="path1295"
     d="m 10.193839,4 c -1.37205,0 -2.37815,0.0445 -3.00977,0.15039 -0.61819,0.10377 -0.76201,0.22891 -0.79101,0.25781 -0.0276,0.0276 -0.14965,0.1658 -0.25196,0.78125 -0.10462,0.62946 -0.14762,1.63095 -0.14062,3.00391 v 0.006 7.80078 7.80273 0.006 c -0.007,1.37154 0.036,2.37291 0.14062,3.00196 0.10231,0.61547 0.22436,0.75365 0.25196,0.78125 0.029,0.029 0.17281,0.15404 0.79101,0.25781 0.63175,0.10609 1.63775,0.15039 3.00977,0.15039 h 11.61523 c 1.37206,0 2.37433,-0.0445 3.00391,-0.15039 0.616,-0.10366 0.75435,-0.22701 0.78125,-0.25391 0.0283,-0.0283 0.15211,-0.16861 0.25586,-0.78711 0.10599,-0.632 0.15039,-1.63731 0.15039,-3.01199 v -7.79688 -6 l -6,-6 z"
     style="color:#000000;font-style:normal;font-variant:normal;font-weight:normal;font-stretch:normal;font-size:medium;line-height:normal;font-family:sans-serif;font-variant-ligatures:normal;font-variant-position:normal;font-variant-caps:normal;font-variant-numeric:normal;font-variant-alternates:normal;font-feature-settings:normal;text-indent:0;text-align:start;text-decoration:none;text-decoration-line:none;text-decoration-style:solid;text-decoration-color:#000000;letter-spacing:normal;word-spacing:normal;text-transform:none;writing-mode:lr-tb;direction:ltr;text-orientation:mixed;dominant-baseline:auto;baseline-shift:baseline;text-anchor:start;white-space:normal;shape-padding:0;clip-rule:nonzero;display:inline;overflow:visible;visibility:visible;isolation:auto;mix-blend-mode:normal;color-interpolation:sRGB;color-interpolation-filters:linearRGB;solid-color:#000000;solid-opacity:1;vector-effect:none;fill:url(#linearGradient1313);fill-opacity:1;fill-rule:nonzero;stroke:none;stroke-width:5;stroke-linecap:butt;stroke-linejoin:miter;stroke-miterlimit:4;stroke-dasharray:none;stroke-dashoffset:0;stroke-opacity:1;marker:none;color-rendering:auto;image-rendering:auto;shape-rendering:auto;text-rendering:auto;enable-background:accumulate"
     inkscape:connector-curvature="0" />
  <path
     inkscape:connector-curvature="0"
     id="path1011"
     d="m 4.000479,16 v 7.79688 c -0.0276,5.62673 0.57798,6.20312 6.19336,6.20312 h 11.61523 c 5.6154,0 6.19141,-0.57631 6.19141,-6.20312 v -7.79688 z"
     style="color:#000000;display:inline;overflow:visible;visibility:visible;opacity:0.1;fill:#ffffff;fill-opacity:1;fill-rule:nonzero;stroke:none;stroke-width:1;marker:none;enable-background:accumulate" />
  <path
     inkscape:connector-curvature="0"
     id="path1018"
     d="m 16.000479,2 v 28 h 5.80859 c 5.6154,0 6.19141,-0.57631 6.19141,-6.20312 v -7.79688 -7.79688 c 0,-5.6268 -0.57603,-6.20312 -6.19141,-6.20312 z"
     style="color:#000000;display:inline;overflow:visible;visibility:visible;opacity:0.1;fill:#ffffff;fill-opacity:1;fill-rule:nonzero;stroke:none;stroke-width:1;marker:none;enable-background:accumulate" />
  <path
     inkscape:connector-curvature="0"
     style="color:#000000;display:inline;overflow:visible;visibility:visible;opacity:0.3;fill:none;fill-opacity:1;fill-rule:nonzero;stroke:#000000;stroke-width:1;stroke-opacity:1;marker:none;enable-background:accumulate"
     d="m 10.193839,1.5 c -1.41241,0 -2.52238,0.0342 -3.42383,0.18555 -0.90145,0.15132 -1.61987,0.43164 -2.14258,0.95312 -0.5227,0.52148 -0.80325,1.23898 -0.95312,2.14063 -0.14988,0.90164 -0.18075,2.0101 -0.17383,3.42578 v 7.79492 7.79688 c -0.007,1.41452 0.024,2.52269 0.17383,3.42382 0.14987,0.90165 0.43041,1.61915 0.95312,2.14063 0.52272,0.52148 1.24112,0.8018 2.14258,0.95312 0.90146,0.15132 2.01142,0.18555 3.42383,0.18555 h 11.61523 c 1.41241,0 2.51847,-0.0342 3.41797,-0.18555 0.8995,-0.15137 1.61597,-0.43149 2.13672,-0.95312 0.52075,-0.52163 0.80004,-1.23774 0.95117,-2.13867 0.15113,-0.90094 0.18555,-2.01055 0.18555,-3.42578 v -7.79688 -7.79688 c 0,-1.41524 -0.0344,-2.52484 -0.18555,-3.42578 -0.15113,-0.90093 -0.43042,-1.61703 -0.95117,-2.13867 -0.52075,-0.52163 -1.23722,-0.80175 -2.13672,-0.95312 -0.8995,-0.15137 -2.00556,-0.18555 -3.41797,-0.18555 z"
     id="path1089" />
  <path
     clip-path="url(#clipPath959)"
     style="color:#000000;display:inline;overflow:visible;visibility:visible;opacity:0.2;fill:none;fill-opacity:1;fill-rule:nonzero;stroke:url(#linearGradient969);stroke-width:2;stroke-miterlimit:4;stroke-dasharray:none;stroke-opacity:1;marker:none;enable-background:accumulate"
     d="m 330.1929,133.99999 c -5.61538,0 -6.21958,0.57678 -6.19206,6.20352 v 7.79648 7.79648 c -0.0276,5.62673 0.57668,6.20351 6.19206,6.20351 h 11.615 c 5.6154,0 6.19208,-0.5767 6.19208,-6.20351 v -7.79648 -7.79648 c 0,-5.6268 -0.5767,-6.20352 -6.19208,-6.20352 z"
     id="path939"
     inkscape:connector-curvature="0"
     sodipodi:nodetypes="scccssscsss"
     transform="translate(-319.99952,-132)" />
  <g
     id="g1441"
     transform="translate(0.16166,1.81121)">
    <g
       transform="translate(-734.15366,-127.81121)"
       id="g108"
       style="clip-rule:evenodd;display:inline;fill-rule:evenodd;enable-background:new">
      <path
         d="m 746.992,147.5 c 2.485,0 4.5,-2.015 4.5,-4.5 0,-2.485 -2.015,-4.5 -4.5,-4.5 -2.485,0 -4.5,2.015 -4.5,4.5 0,2.485 2.015,4.5 4.5,4.5 z"
         style="fill:url(#_Linear12);fill-rule:nonzero;stroke:#cb851d;stroke-width:1px"
         id="path106" />
    </g>
    <g
       transform="translate(-734.15366,-127.81121)"
       id="g112"
       style="clip-rule:evenodd;display:inline;fill-rule:evenodd;enable-background:new">
      <path
         d="m 746.991,146 c 1.657,0 3,-1.343 3,-3 0,-1.657 -1.343,-3 -3,-3 -1.656,0 -3,1.343 -3,3 0,1.657 1.344,3 3,3 z"
         style="fill:#f0c46f;fill-opacity:0.6;fill-rule:nonzero"
         id="path110" />
    </g>
    <g
       transform="translate(-734.15366,-127.81121)"
       id="g116"
       style="clip-rule:evenodd;display:inline;fill-rule:evenodd;enable-background:new">
      <path
         d="m 756.492,147.5 h -5 c -0.552,0 -1,-0.448 -1,-1 v -5 c 0,-0.552 0.448,-1 1,-1 h 5 c 0.552,0 1,0.448 1,1 v 5 c 0,0.552 -0.448,1 -1,1 z"
         style="fill:#c99c00;fill-rule:nonzero;stroke:#876900;stroke-width:1px;stroke-linecap:round;stroke-linejoin:round"
         id="path114" />
    </g>
    <g
       transform="translate(-734.15366,-127.81121)"
       id="g120"
       style="clip-rule:evenodd;display:inline;fill-rule:evenodd;enable-background:new">
      <path
         d="m 752.456,148.945 c 0.443,0.665 -0.034,1.555 -0.832,1.555 h -7.432 c -0.763,0 -1.245,-0.819 -0.875,-1.486 l 3.379,-6.08 c 0.363,-0.655 1.291,-0.692 1.706,-0.069 z"
         style="fill:url(#_Linear13);fill-rule:nonzero;stroke:#c99c00;stroke-width:1px;stroke-linecap:round;stroke-linejoin:round"
         id="path118" />
    </g>
    <g
       transform="translate(-734.15366,-127.81121)"
       id="g124"
       style="clip-rule:evenodd;display:inline;fill-rule:evenodd;enable-background:new">
      <path
         d="m 750.992,149 h -6 l 2.5,-5 z"
         style="fill:#f5ce53;fill-opacity:0.6;fill-rule:nonzero"
         id="path122" />
    </g>
  </g>
</svg>
