<?xml version="1.0" encoding="UTF-8" standalone="no"?>
<svg
   viewBox="0 0 48 48"
   version="1.1"
   id="svg4"
   sodipodi:docname="odp_48_8.svg"
   inkscape:export-filename="/home/jupiter007/Libreoffice yaru theme/build/res/odp_48_8.png"
   inkscape:export-xdpi="96"
   inkscape:export-ydpi="96"
   inkscape:version="1.1 (ce6663b3b7, 2021-05-25)"
   xmlns:inkscape="http://www.inkscape.org/namespaces/inkscape"
   xmlns:sodipodi="http://sodipodi.sourceforge.net/DTD/sodipodi-0.dtd"
   xmlns:xlink="http://www.w3.org/1999/xlink"
   xmlns="http://www.w3.org/2000/svg"
   xmlns:svg="http://www.w3.org/2000/svg"
   xmlns:rdf="http://www.w3.org/1999/02/22-rdf-syntax-ns#"
   xmlns:cc="http://creativecommons.org/ns#"
   xmlns:dc="http://purl.org/dc/elements/1.1/">
  <metadata
     id="metadata10">
    <rdf:RDF>
      <cc:Work
         rdf:about="">
        <dc:format>image/svg+xml</dc:format>
        <dc:type
           rdf:resource="http://purl.org/dc/dcmitype/StillImage" />
      </cc:Work>
    </rdf:RDF>
  </metadata>
  <defs
     id="defs8">
    <linearGradient
       id="linearGradient13791">
      <stop
         id="stop13793"
         style="stop-color:#d36118;stop-opacity:1"
         offset="0" />
      <stop
         id="stop13795"
         style="stop-color:#f09e6f;stop-opacity:1"
         offset="1" />
    </linearGradient>
    <linearGradient
       id="linearGradient16134-3-1-8">
      <stop
         id="stop16136-6-3-7"
         style="stop-color:#000000;stop-opacity:0.50196099"
         offset="0" />
      <stop
         id="stop16138-4-6-2"
         style="stop-color:#000000;stop-opacity:0"
         offset="1" />
    </linearGradient>
    <linearGradient
       id="linearGradient15606-6">
      <stop
         style="stop-color: rgb(255, 255, 255); stop-opacity: 0.588235;"
         offset="0"
         id="stop15608-8" />
      <stop
         style="stop-color: rgb(255, 255, 255); stop-opacity: 0.862745;"
         offset="1"
         id="stop15610-7" />
    </linearGradient>
    <linearGradient
       id="linearGradient10286-8">
      <stop
         id="stop10288-2-1"
         offset="0"
         style="stop-color: rgb(179, 179, 179); stop-opacity: 1;" />
      <stop
         id="stop10290-6"
         offset="1"
         style="stop-color: rgb(230, 230, 230); stop-opacity: 1;" />
    </linearGradient>
    <linearGradient
       id="linearGradient13214">
      <stop
         id="stop13216"
         style="stop-color:#18a303;stop-opacity:1"
         offset="0" />
      <stop
         id="stop13218"
         style="stop-color:#106802;stop-opacity:1"
         offset="1" />
    </linearGradient>
    <linearGradient
       gradientTransform="translate(-319.99856,-60)"
       inkscape:collect="always"
       xlink:href="#linearGradient927-3-6"
       id="linearGradient925"
       x1="344"
       y1="61"
       x2="344"
       y2="107"
       gradientUnits="userSpaceOnUse" />
    <linearGradient
       inkscape:collect="always"
       id="linearGradient927-3-6">
      <stop
         style="stop-color:#ffffff;stop-opacity:1;"
         offset="0"
         id="stop923-3" />
      <stop
         id="stop933-6"
         offset="0.125"
         style="stop-color:#ffffff;stop-opacity:0.09803922" />
      <stop
         id="stop931-7"
         offset="0.92500001"
         style="stop-color:#ffffff;stop-opacity:0.09803922" />
      <stop
         style="stop-color:#000000;stop-opacity:0.49803922"
         offset="1"
         id="stop925-5" />
    </linearGradient>
    <linearGradient
       gradientTransform="translate(-319.99999,-60)"
       inkscape:collect="always"
       xlink:href="#linearGradient4338"
       id="linearGradient1234"
       x1="352"
       y1="60"
       x2="332"
       y2="108"
       gradientUnits="userSpaceOnUse" />
    <linearGradient
       inkscape:collect="always"
       id="linearGradient4338">
      <stop
         style="stop-color:#f2f2f2;stop-opacity:1"
         offset="0"
         id="stop4340" />
      <stop
         style="stop-color:#ffffff;stop-opacity:1"
         offset="1"
         id="stop4342" />
    </linearGradient>
    <linearGradient
       inkscape:collect="always"
       xlink:href="#linearGradient7713"
       id="linearGradient951"
       gradientUnits="userSpaceOnUse"
       gradientTransform="matrix(0,-0.11328125,-0.11327801,0,59.488561,52)"
       x1="512"
       y1="397.99393"
       x2="-1.0000001e-06"
       y2="125.99394" />
    <linearGradient
       id="linearGradient7713">
      <stop
         id="stop7711"
         style="stop-color:#993a03;stop-opacity:1"
         offset="0" />
      <stop
         id="stop7709"
         style="stop-color:#f0692c;stop-opacity:1"
         offset="1" />
    </linearGradient>
    <linearGradient
       id="_Linear32"
       x1="0"
       y1="0"
       x2="1"
       y2="0"
       gradientUnits="userSpaceOnUse"
       gradientTransform="matrix(0,-16,16,0,366.8,387.001)">
      <stop
         offset="0"
         style="stop-color:white;stop-opacity:0.58"
         id="stop554" />
      <stop
         offset="1"
         style="stop-color:white;stop-opacity:0.86"
         id="stop556" />
    </linearGradient>
    <linearGradient
       id="_Linear33"
       x1="0"
       y1="0"
       x2="1"
       y2="0"
       gradientUnits="userSpaceOnUse"
       gradientTransform="matrix(0,65.035,-65.035,0,353,345.484)">
      <stop
         offset="0"
         style="stop-color:rgb(163,62,3);stop-opacity:1"
         id="stop559" />
      <stop
         offset="1"
         style="stop-color:rgb(98,37,2);stop-opacity:1"
         id="stop561" />
    </linearGradient>
    <linearGradient
       id="_Linear34"
       x1="0"
       y1="0"
       x2="1"
       y2="0"
       gradientUnits="userSpaceOnUse"
       gradientTransform="matrix(0,65.035,-65.035,0,353,348.484)">
      <stop
         offset="0"
         style="stop-color:rgb(163,62,3);stop-opacity:1"
         id="stop564" />
      <stop
         offset="1"
         style="stop-color:rgb(98,37,2);stop-opacity:1"
         id="stop566" />
    </linearGradient>
    <linearGradient
       id="_Linear35"
       x1="0"
       y1="0"
       x2="1"
       y2="0"
       gradientUnits="userSpaceOnUse"
       gradientTransform="matrix(0,65.035,-65.035,0,353,351.484)">
      <stop
         offset="0"
         style="stop-color:rgb(163,62,3);stop-opacity:1"
         id="stop569" />
      <stop
         offset="1"
         style="stop-color:rgb(98,37,2);stop-opacity:1"
         id="stop571" />
    </linearGradient>
    <linearGradient
       id="_Linear36"
       x1="0"
       y1="0"
       x2="1"
       y2="0"
       gradientUnits="userSpaceOnUse"
       gradientTransform="matrix(0,-6,6,0,360.001,384.002)">
      <stop
         offset="0"
         style="stop-color:rgb(179,179,179);stop-opacity:1"
         id="stop574" />
      <stop
         offset="1"
         style="stop-color:rgb(230,230,230);stop-opacity:1"
         id="stop576" />
    </linearGradient>
    <linearGradient
       id="_Linear37"
       x1="0"
       y1="0"
       x2="1"
       y2="0"
       gradientUnits="userSpaceOnUse"
       gradientTransform="matrix(0,-6,6,0,360,384.001)">
      <stop
         offset="0"
         style="stop-color:white;stop-opacity:0.58"
         id="stop579" />
      <stop
         offset="1"
         style="stop-color:white;stop-opacity:0.86"
         id="stop581" />
    </linearGradient>
  </defs>
  <sodipodi:namedview
     pagecolor="#ffffff"
     bordercolor="#666666"
     borderopacity="1"
     objecttolerance="10"
     gridtolerance="10"
     guidetolerance="10"
     inkscape:pageopacity="0"
     inkscape:pageshadow="2"
     inkscape:window-width="1920"
     inkscape:window-height="1016"
     id="namedview6"
     showgrid="true"
     inkscape:zoom="13.906433"
     inkscape:cx="11.649285"
     inkscape:cy="26.426618"
     inkscape:window-x="0"
     inkscape:window-y="27"
     inkscape:window-maximized="1"
     inkscape:current-layer="svg4"
     inkscape:pagecheckerboard="0">
    <inkscape:grid
       type="xygrid"
       id="grid2606" />
  </sodipodi:namedview>
  <path
     id="path949"
     d="m 15.730481,1 c -2.22284,0 -3.97472,0.05331 -5.41406,0.294922 -1.4411095,0.241906 -2.6186795,0.694922 -3.4824295,1.55664 -0.8639,0.861875 -1.31896,2.036891 -1.55859,3.478516 -0.23931,1.43968 -0.28629,3.193562 -0.27539,5.421875 v 12.248047 12.251953 c -0.0108,2.226005 0.0362,3.979287 0.27539,5.417967 0.23963,1.44163 0.69468,2.61664 1.55859,3.47852 0.86376,0.86171 2.04131,1.31473 3.4824295,1.55664 1.43934,0.24161 3.19122,0.29492 5.41406,0.29492 h 16.53906 c 2.22282,0 3.97185,-0.0532 5.4082,-0.29492 1.43796,-0.24198 2.61359,-0.69415 3.47461,-1.55664 0.86073,-0.86218 1.31309,-2.03824 1.55469,-3.47852 0.24138,-1.4389 0.29297,-3.190934 0.29297,-5.417967 v -12.251953 -12.251953 c 0,-2.227034 -0.0516,-3.979075 -0.29297,-5.417969 -0.2416,-1.440276 -0.69396,-2.616331 -1.55469,-3.478516 -0.86102,-0.862481 -2.03665,-1.314656 -3.47461,-1.55664 -1.43635,-0.241713 -3.18538,-0.294922 -5.4082,-0.294922 z"
     style="color:#000000;display:inline;overflow:visible;visibility:visible;fill:url(#linearGradient951);fill-opacity:1;fill-rule:nonzero;stroke:none;stroke-width:1;marker:none;enable-background:accumulate"
     inkscape:connector-curvature="0" />
  <path
     id="path1224"
     d="m 15.730481,4 c -2.17348,0 -3.80582,0.0653 -4.91797,0.251953 -1.1033295,0.185207 -1.5855295,0.449466 -1.8593795,0.722656 -0.27304,0.272413 -0.53394,0.747647 -0.71679,1.847657 -0.18443,1.10974 -0.24693,2.740598 -0.23633,4.916015 v 0.0059 12.255819 12.257812 0.0059 c -0.0106,2.174279 0.0519,3.804968 0.23633,4.914058 0.18285,1.10003 0.44376,1.57526 0.71679,1.84766 0.27387,0.27322 0.75604,0.53745 1.8593795,0.72266 1.11215,0.18665 2.74449,0.25195 4.91797,0.25195 h 16.53906 c 2.17351,0 3.8041,-0.0655 4.91211,-0.25195 1.09998,-0.18511 1.57783,-0.44847 1.84766,-0.71875 0.27131,-0.27177 0.53576,-0.75297 0.7207,-1.85547 0.1861,-1.10939 0.25,-2.742603 0.25,-4.921877 v -12.251993 -10 l -10,-10 z"
     style="color:#000000;font-style:normal;font-variant:normal;font-weight:normal;font-stretch:normal;font-size:medium;line-height:normal;font-family:sans-serif;font-variant-ligatures:normal;font-variant-position:normal;font-variant-caps:normal;font-variant-numeric:normal;font-variant-alternates:normal;font-feature-settings:normal;text-indent:0;text-align:start;text-decoration:none;text-decoration-line:none;text-decoration-style:solid;text-decoration-color:#000000;letter-spacing:normal;word-spacing:normal;text-transform:none;writing-mode:lr-tb;direction:ltr;text-orientation:mixed;dominant-baseline:auto;baseline-shift:baseline;text-anchor:start;white-space:normal;shape-padding:0;clip-rule:nonzero;display:inline;overflow:visible;visibility:visible;isolation:auto;mix-blend-mode:normal;color-interpolation:sRGB;color-interpolation-filters:linearRGB;solid-color:#000000;solid-opacity:1;vector-effect:none;fill:url(#linearGradient1234);fill-opacity:1;fill-rule:nonzero;stroke:none;stroke-width:5;stroke-linecap:butt;stroke-linejoin:miter;stroke-miterlimit:4;stroke-dasharray:none;stroke-dashoffset:0;stroke-opacity:1;marker:none;color-rendering:auto;image-rendering:auto;shape-rendering:auto;text-rendering:auto;enable-background:accumulate"
     inkscape:connector-curvature="0" />
  <path
     inkscape:connector-curvature="0"
     style="color:#000000;display:inline;overflow:visible;visibility:visible;opacity:0.3;fill:none;fill-opacity:1;fill-rule:nonzero;stroke:url(#linearGradient925);stroke-width:1;stroke-opacity:1;marker:none;enable-background:accumulate"
     d="m 15.731901,1.5 c -2.21461,0 -3.94722,0.05465 -5.33203,0.287109 -1.3848095,0.232456 -2.4455095,0.654338 -3.2109395,1.417969 -0.76543,0.763631 -1.1878,1.822342 -1.41797,3.207031 -0.23017,1.38469 -0.28039,3.118394 -0.26953,5.337891 v 12.25 12.251953 c -0.0108,2.218334 0.0394,3.951757 0.26953,5.335937 0.23017,1.38469 0.65253,2.4434 1.41797,3.20703 0.76544,0.76363 1.82612,1.18551 3.2109395,1.41797 1.38481,0.23246 3.11742,0.28711 5.33203,0.28711 h 16.53906 c 2.2146,0 3.94454,-0.0546 5.32617,-0.28711 1.38163,-0.2325 2.44064,-0.65418 3.20313,-1.41797 0.76249,-0.76378 1.18385,-1.82305 1.41601,-3.20703 0.23217,-1.38398 0.28516,-3.116864 0.28516,-5.335937 v -12.251953 -12.251953 c 0,-2.219073 -0.053,-3.951957 -0.28516,-5.335938 -0.23216,-1.383981 -0.65352,-2.443248 -1.41601,-3.207031 -0.76249,-0.763783 -1.8215,-1.185464 -3.20313,-1.417969 -1.38163,-0.232504 -3.11157,-0.287109 -5.32617,-0.287109 z"
     id="path901" />
  <g
     transform="translate(-334,-353)"
     id="g320"
     style="clip-rule:evenodd;display:inline;fill-rule:evenodd;enable-background:new">
    <path
       d="m 358.759,386.253 -6.567,5.031 c -0.304,0.232 -0.139,0.717 0.243,0.717 h 0.99 c 0.488,0 0.959,-0.178 1.325,-0.501 l 5.936,-5.247 z"
       style="fill:#a33e03;fill-rule:nonzero"
       id="path318" />
  </g>
  <g
     transform="translate(-334,-353)"
     id="g324"
     style="clip-rule:evenodd;display:inline;fill-rule:evenodd;enable-background:new">
    <path
       d="m 357.241,386.253 6.567,5.031 c 0.304,0.232 0.14,0.717 -0.243,0.717 h -0.99 c -0.488,0 -0.959,-0.178 -1.324,-0.501 l -5.937,-5.247 z"
       style="fill:#a33e03;fill-rule:nonzero"
       id="path322" />
  </g>
  <g
     transform="translate(-334,-353)"
     id="g328"
     style="clip-rule:evenodd;display:inline;fill-rule:evenodd;enable-background:new">
    <rect
       x="356"
       y="388.00101"
       width="4"
       height="1"
       style="fill:#a33e03;fill-rule:nonzero"
       id="rect326" />
  </g>
  <g
     transform="translate(-334,-353)"
     id="g332"
     style="clip-rule:evenodd;display:inline;fill-rule:evenodd;enable-background:new">
    <path
       d="m 370,373 c 0,-1.656 -1.344,-3 -3,-3 h -18 c -1.656,0 -3,1.344 -3,3 v 12 c 0,1.656 1.344,3 3,3 h 18 c 1.656,0 3,-1.344 3,-3 z"
       style="fill:#a33e03"
       id="path330" />
  </g>
  <g
     transform="translate(-334,-353)"
     id="g336"
     style="clip-rule:evenodd;display:inline;fill-rule:evenodd;enable-background:new">
    <path
       d="m 369,373 c 0,-1.104 -0.896,-2 -2,-2 h -18 c -1.104,0 -2,0.896 -2,2 v 12 c 0,1.104 0.896,2 2,2 h 18 c 1.104,0 2,-0.896 2,-2 z"
       style="fill:url(#_Linear32)"
       id="path334" />
  </g>
  <g
     transform="translate(-334,-353)"
     id="g340"
     style="clip-rule:evenodd;display:inline;fill-rule:evenodd;enable-background:new">
    <path
       d="m 366,373.001 h -16 c -0.552,0 -1,0.448 -1,1 0,0.553 0.448,1 1,1 h 16 c 0.552,0 1,-0.447 1,-1 0,-0.552 -0.448,-1 -1,-1 z"
       style="fill:#d36118;fill-rule:nonzero"
       id="path338" />
  </g>
  <g
     transform="translate(-334,-353)"
     id="g344"
     style="clip-rule:evenodd;display:inline;fill-rule:evenodd;enable-background:new">
    <path
       d="m 357,377.001 h -3 c -0.552,0 -1,0.448 -1,1 0,0.553 0.448,1 1,1 h 3 c 0.552,0 1,-0.447 1,-1 0,-0.552 -0.448,-1 -1,-1 z"
       style="fill:url(#_Linear33);fill-rule:nonzero"
       id="path342" />
  </g>
  <g
     transform="translate(-334,-353)"
     id="g348"
     style="clip-rule:evenodd;display:inline;fill-rule:evenodd;enable-background:new">
    <path
       d="m 350,379.001 c 0.553,0 1,-0.448 1,-1 0,-0.552 -0.447,-1 -1,-1 -0.552,0 -1,0.448 -1,1 0,0.552 0.448,1 1,1 z"
       style="fill:#d36118;fill-rule:nonzero"
       id="path346" />
  </g>
  <g
     transform="translate(-334,-353)"
     id="g352"
     style="clip-rule:evenodd;display:inline;fill-rule:evenodd;enable-background:new">
    <path
       d="m 357,380.001 h -3 c -0.552,0 -1,0.448 -1,1 0,0.553 0.448,1 1,1 h 3 c 0.552,0 1,-0.447 1,-1 0,-0.552 -0.448,-1 -1,-1 z"
       style="fill:url(#_Linear34);fill-rule:nonzero"
       id="path350" />
  </g>
  <g
     transform="translate(-334,-353)"
     id="g356"
     style="clip-rule:evenodd;display:inline;fill-rule:evenodd;enable-background:new">
    <path
       d="m 350,382.001 c 0.553,0 1,-0.448 1,-1 0,-0.552 -0.447,-1 -1,-1 -0.552,0 -1,0.448 -1,1 0,0.552 0.448,1 1,1 z"
       style="fill:#d36118;fill-rule:nonzero"
       id="path354" />
  </g>
  <g
     transform="translate(-334,-353)"
     id="g360"
     style="clip-rule:evenodd;display:inline;fill-rule:evenodd;enable-background:new">
    <path
       d="m 357,383.001 h -3 c -0.552,0 -1,0.448 -1,1 0,0.553 0.448,1 1,1 h 3 c 0.552,0 1,-0.447 1,-1 0,-0.552 -0.448,-1 -1,-1 z"
       style="fill:url(#_Linear35);fill-rule:nonzero"
       id="path358" />
  </g>
  <g
     transform="translate(-334,-353)"
     id="g364"
     style="clip-rule:evenodd;display:inline;fill-rule:evenodd;enable-background:new">
    <path
       d="m 350,385.001 c 0.553,0 1,-0.448 1,-1 0,-0.552 -0.447,-1 -1,-1 -0.552,0 -1,0.448 -1,1 0,0.552 0.448,1 1,1 z"
       style="fill:#d36118;fill-rule:nonzero"
       id="path362" />
  </g>
  <g
     transform="translate(-334,-353)"
     id="g368"
     style="clip-rule:evenodd;display:inline;fill-rule:evenodd;enable-background:new">
    <path
       d="m 365,377.001 h -4 c -1.104,0 -2,0.896 -2,2 v 4 c 0,1.105 0.896,2 2,2 h 4 c 1.105,0 2,-0.895 2,-2 v -4 c 0,-1.104 -0.895,-2 -2,-2 z"
       style="fill:#e5723c;fill-rule:nonzero"
       id="path366" />
  </g>
  <g
     transform="translate(-334,-353)"
     id="g372"
     style="clip-rule:evenodd;display:inline;fill-rule:evenodd;enable-background:new">
    <path
       d="m 365,378.001 h -4 c -0.552,0 -1,0.448 -1,1 v 4 c 0,0.553 0.448,1 1,1 h 4 c 0.552,0 1,-0.447 1,-1 v -4 c 0,-0.552 -0.448,-1 -1,-1 z"
       style="fill:url(#_Linear36);fill-rule:nonzero"
       id="path370" />
  </g>
  <g
     transform="translate(-334,-353)"
     id="g376"
     style="clip-rule:evenodd;display:inline;fill-rule:evenodd;enable-background:new">
    <path
       d="m 365,378.001 h -4 c -0.552,0 -1,0.448 -1,1 v 4 c 0,0.553 0.448,1 1,1 h 4 c 0.552,0 1,-0.447 1,-1 v -4 c 0,-0.552 -0.448,-1 -1,-1 z"
       style="fill:url(#_Linear37);fill-rule:nonzero"
       id="path374" />
  </g>
  <g
     transform="translate(-334,-353)"
     id="g380"
     style="clip-rule:evenodd;display:inline;fill-rule:evenodd;enable-background:new">
    <path
       d="m 360.5,383.501 1.5,-3 2,1 1.5,-3"
       style="fill:none;fill-rule:nonzero;stroke:#b44910;stroke-width:1px;stroke-linecap:round;stroke-linejoin:round"
       id="path378" />
  </g>
</svg>
