<?xml version="1.0" encoding="UTF-8" standalone="no"?>
<svg
   xmlns:dc="http://purl.org/dc/elements/1.1/"
   xmlns:cc="http://creativecommons.org/ns#"
   xmlns:rdf="http://www.w3.org/1999/02/22-rdf-syntax-ns#"
   xmlns:svg="http://www.w3.org/2000/svg"
   xmlns="http://www.w3.org/2000/svg"
   xmlns:xlink="http://www.w3.org/1999/xlink"
   xmlns:sodipodi="http://sodipodi.sourceforge.net/DTD/sodipodi-0.dtd"
   xmlns:inkscape="http://www.inkscape.org/namespaces/inkscape"
   viewBox="0 0 16 16"
   version="1.1"
   id="svg4"
   sodipodi:docname="sx03249.svg"
   inkscape:version="1.0.1 (3bc2e813f5, 2020-09-07)"
   inkscape:export-filename="/home/jupiter007/Libreoffice yaru theme/build/res/odp_16_8.png"
   inkscape:export-xdpi="95"
   inkscape:export-ydpi="95">
  <metadata
     id="metadata10">
    <rdf:RDF>
      <cc:Work
         rdf:about="">
        <dc:format>image/svg+xml</dc:format>
        <dc:type
           rdf:resource="http://purl.org/dc/dcmitype/StillImage" />
      </cc:Work>
    </rdf:RDF>
  </metadata>
  <defs
     id="defs8">
    <clipPath
       clipPathUnits="userSpaceOnUse"
       id="clipPath983-6">
      <path
         sodipodi:nodetypes="scccssscsss"
         inkscape:connector-curvature="0"
         id="path985-0"
         d="m 325.09646,237 c -2.80769,0 -3.10979,0.28839 -3.09603,3.10176 V 244 v 3.89824 c -0.0138,2.81337 0.28834,3.10176 3.09603,3.10176 h 5.8075 C 333.71166,251 334,250.71165 334,247.89824 V 244 240.10176 C 334,237.28836 333.71165,237 330.90396,237 Z"
         style="color:#000000;display:inline;overflow:visible;visibility:visible;opacity:1;fill:#46a926;fill-opacity:1;fill-rule:nonzero;stroke:none;stroke-width:2;stroke-miterlimit:4;stroke-dasharray:none;stroke-opacity:1;marker:none;enable-background:accumulate" />
    </clipPath>
    <linearGradient
       inkscape:collect="always"
       xlink:href="#linearGradient13785-5"
       id="linearGradient54152"
       gradientUnits="userSpaceOnUse"
       x1="155.75"
       y1="1016.3622"
       x2="155.75"
       y2="1032.3945" />
    <linearGradient
       id="linearGradient13785-5"
       inkscape:collect="always">
      <stop
         id="stop13787-5"
         offset="0"
         style="stop-color: rgb(163, 62, 3); stop-opacity: 1;" />
      <stop
         id="stop13789-99"
         offset="1"
         style="stop-color: rgb(98, 37, 2); stop-opacity: 1;" />
    </linearGradient>
    <linearGradient
       inkscape:collect="always"
       xlink:href="#linearGradient13785-5"
       id="linearGradient11240"
       gradientUnits="userSpaceOnUse"
       gradientTransform="matrix(0.666667,0,0,1,52.6667,0)"
       x1="155.75"
       y1="1016.3622"
       x2="155.75"
       y2="1032.3945" />
    <linearGradient
       gradientTransform="translate(-319.99946,-236)"
       inkscape:collect="always"
       xlink:href="#linearGradient4338"
       id="linearGradient1309"
       x1="332"
       y1="236"
       x2="324"
       y2="252"
       gradientUnits="userSpaceOnUse" />
    <linearGradient
       inkscape:collect="always"
       id="linearGradient4338">
      <stop
         style="stop-color:#f2f2f2;stop-opacity:1"
         offset="0"
         id="stop4340" />
      <stop
         style="stop-color:#ffffff;stop-opacity:1"
         offset="1"
         id="stop4342" />
    </linearGradient>
    <linearGradient
       id="linearGradient12112">
      <stop
         offset="0"
         style="stop-color:#9f3d06;stop-opacity:1"
         id="stop12108" />
      <stop
         offset="1"
         style="stop-color:#e76428;stop-opacity:1"
         id="stop12110" />
    </linearGradient>
    <linearGradient
       inkscape:collect="always"
       xlink:href="#linearGradient13785-5"
       id="linearGradient938"
       gradientUnits="userSpaceOnUse"
       x1="155.75"
       y1="1016.3622"
       x2="155.75"
       y2="1032.3945" />
    <linearGradient
       inkscape:collect="always"
       xlink:href="#linearGradient13785-5"
       id="linearGradient940"
       gradientUnits="userSpaceOnUse"
       gradientTransform="matrix(0.666667,0,0,1,52.6667,0)"
       x1="155.75"
       y1="1016.3622"
       x2="155.75"
       y2="1032.3945" />
    <linearGradient
       inkscape:collect="always"
       xlink:href="#linearGradient13785-5"
       id="linearGradient942"
       gradientUnits="userSpaceOnUse"
       x1="155.75"
       y1="1016.3622"
       x2="155.75"
       y2="1032.3945" />
    <linearGradient
       inkscape:collect="always"
       xlink:href="#linearGradient13785-5"
       id="linearGradient944"
       gradientUnits="userSpaceOnUse"
       x1="155.75"
       y1="1016.3622"
       x2="155.75"
       y2="1032.3945" />
    <linearGradient
       inkscape:collect="always"
       xlink:href="#linearGradient13785-5"
       id="linearGradient946"
       gradientUnits="userSpaceOnUse"
       x1="155.75"
       y1="1016.3622"
       x2="155.75"
       y2="1032.3945" />
    <linearGradient
       inkscape:collect="always"
       xlink:href="#linearGradient13785-5"
       id="linearGradient948"
       gradientUnits="userSpaceOnUse"
       x1="155.75"
       y1="1016.3622"
       x2="155.75"
       y2="1032.3945" />
    <linearGradient
       inkscape:collect="always"
       xlink:href="#linearGradient13785-5"
       id="linearGradient950"
       gradientUnits="userSpaceOnUse"
       x1="155.75"
       y1="1016.3622"
       x2="155.75"
       y2="1032.3945" />
    <linearGradient
       inkscape:collect="always"
       xlink:href="#linearGradient13785-5"
       id="linearGradient952"
       gradientUnits="userSpaceOnUse"
       x1="155.75"
       y1="1016.3622"
       x2="155.75"
       y2="1032.3945" />
  </defs>
  <sodipodi:namedview
     pagecolor="#ffffff"
     bordercolor="#666666"
     borderopacity="1"
     objecttolerance="10"
     gridtolerance="10"
     guidetolerance="10"
     inkscape:pageopacity="0"
     inkscape:pageshadow="2"
     inkscape:window-width="1920"
     inkscape:window-height="1011"
     id="namedview6"
     showgrid="true"
     inkscape:zoom="29.5"
     inkscape:cx="7.7211078"
     inkscape:cy="4.8657564"
     inkscape:window-x="0"
     inkscape:window-y="0"
     inkscape:window-maximized="1"
     inkscape:current-layer="svg4"
     inkscape:document-rotation="0">
    <inkscape:grid
       type="xygrid"
       id="grid879" />
  </sodipodi:namedview>
  <path
     inkscape:connector-curvature="0"
     id="path918"
     d="m 10.40417,1.00024 c 0.71048,0 1.27344,0.0154 1.75195,0.0957 0.47851,0.0803 0.89671,0.23728 1.20703,0.54688 0.31032,0.30959 0.46726,0.7261 0.54688,1.20508 0.0796,0.47897 0.0933,1.04352 0.0898,1.75586 V 7.9999999 11.39822 c 0.003,0.71121 -0.0103,1.27546 -0.0898,1.7539 -0.0796,0.47898 -0.23655,0.89549 -0.54688,1.20508 -0.31033,0.3096 -0.72851,0.46655 -1.20703,0.54688 -0.47852,0.0803 -1.04147,0.0957 -1.75195,0.0957 H 5.59585 c -0.71048,0 -1.27236,-0.0153 -1.75,-0.0957 C 3.36822,14.82368 2.95001,14.66695 2.64077,14.3572 2.33156,14.04745 2.17608,13.63039 2.09585,13.15212 c -0.0802,-0.47826 0.00794,-1.049595 -0.0957,-1.7539 V 7.9999999 4.6018 c 0,-0.71189 0.0155,-1.27564 0.0957,-1.7539 0.0802,-0.47827 0.2357,-0.89533 0.54492,-1.20508 0.30924,-0.30975 0.72745,-0.4665 1.20508,-0.54688 0.47764,-0.0804 1.03952,-0.0957 1.75,-0.0957 z"
     style="color:#000000;display:inline;overflow:visible;visibility:visible;fill:#993a03;fill-opacity:1;fill-rule:nonzero;stroke:none;stroke-width:1;marker:none;enable-background:accumulate"
     sodipodi:nodetypes="ssccccccccsssccscscccss" />
  <path
     id="path1291"
     d="m 5.096229,1.9999999 c -0.6888,0 -1.1839,0.0205 -1.5039,0.0742 -0.30449,0.0511 -0.38369,0.11806 -0.39649,0.13086 -0.0131,0.0131 -0.0746,0.0855 -0.125,0.38867 -0.0529,0.31839 -0.0733,0.81274 -0.0703,1.50195 v 0.004 3.90039 3.9023401 0.002 c -0.003,0.68916 0.0176,1.18495 0.0703,1.50195 0.0504,0.30317 0.1119,0.37557 0.125,0.38867 0.0128,0.0128 0.0918,0.0798 0.39649,0.13086 0.32002,0.0537 0.8151,0.0742 1.5039,0.0742 h 5.8086 c 0.68894,0 1.18348,-0.0206 1.50195,-0.0742 0.30433,-0.0512 0.38043,-0.1186 0.39063,-0.1289 0.0112,-0.0112 0.0774,-0.0858 0.1289,-0.39258 0.0536,-0.31974 0.0742,-0.81575 0.0742,-1.50586 v -3.8985501 -3 l -3,-3 z"
     style="color:#000000;font-style:normal;font-variant:normal;font-weight:normal;font-stretch:normal;font-size:medium;line-height:normal;font-family:sans-serif;font-variant-ligatures:normal;font-variant-position:normal;font-variant-caps:normal;font-variant-numeric:normal;font-variant-alternates:normal;font-feature-settings:normal;text-indent:0;text-align:start;text-decoration:none;text-decoration-line:none;text-decoration-style:solid;text-decoration-color:#000000;letter-spacing:normal;word-spacing:normal;text-transform:none;writing-mode:lr-tb;direction:ltr;text-orientation:mixed;dominant-baseline:auto;baseline-shift:baseline;text-anchor:start;white-space:normal;shape-padding:0;clip-rule:nonzero;display:inline;overflow:visible;visibility:visible;isolation:auto;mix-blend-mode:normal;color-interpolation:sRGB;color-interpolation-filters:linearRGB;solid-color:#000000;solid-opacity:1;vector-effect:none;fill:url(#linearGradient1309);fill-opacity:1;fill-rule:nonzero;stroke:none;stroke-width:3;stroke-linecap:butt;stroke-linejoin:miter;stroke-miterlimit:4;stroke-dasharray:none;stroke-dashoffset:0;stroke-opacity:1;marker:none;color-rendering:auto;image-rendering:auto;shape-rendering:auto;text-rendering:auto;enable-background:accumulate"
     inkscape:connector-curvature="0" />
  <rect
     y="6.0002589"
     x="4.0000277"
     height="6.999949"
     width="7.9999437"
     id="rect4777"
     style="display:inline;overflow:visible;visibility:visible;fill:#f9cfb5;fill-opacity:1;fill-rule:nonzero;stroke:none;stroke-width:0.999993;marker:none;enable-background:new" />
  <g
     transform="matrix(0.99999295,0,0,0.99999272,-149.99866,-1016.3545)"
     id="g13999"
     style="display:inline;fill:url(#linearGradient54152);fill-opacity:1;enable-background:new">
    <g
       style="fill:url(#linearGradient952)"
       id="g14296">
      <path
         inkscape:connector-curvature="0"
         style="font-style:normal;font-variant:normal;font-weight:normal;font-stretch:normal;font-size:medium;line-height:normal;font-family:'Andale Mono';text-indent:0pt;text-align:start;text-decoration:none;text-decoration-line:none;letter-spacing:normal;word-spacing:normal;text-transform:none;direction:ltr;text-anchor:start;display:inline;overflow:visible;visibility:visible;fill:url(#linearGradient938);fill-opacity:1;stroke:none;stroke-width:1;marker:none"
         d="m 154.03125,1022.375 v 0.4688 c -0.0119,1.9999 -0.0196,3.9999 -0.0312,6 v 0.5312 h 0.5 7 0.5 v -0.5 c -6e-5,-1.9921 0,-4.0081 0,-6 v -0.5 h -0.5 c -2.32275,-0.012 -4.64771,0.01 -6.96875,0 h -0.5 z m 1,1 c 1.98885,0.01 3.98117,-0.01 5.96875,0 0,1.6599 -4e-5,3.3399 0,5 h -6 c 0.01,-1.6668 0.0214,-3.3334 0.0312,-5 z"
         id="path20542-3-8-2" />
      <g
         style="fill:url(#linearGradient950);fill-opacity:1"
         id="g13956">
        <g
           style="fill:url(#linearGradient946);fill-opacity:1"
           id="g13948">
          <rect
             style="display:inline;overflow:visible;visibility:visible;fill:url(#linearGradient940);fill-opacity:1;fill-rule:nonzero;stroke:none;stroke-width:1;marker:none"
             id="rect13803"
             width="2"
             height="1"
             x="158"
             y="1024.3622" />
          <rect
             y="1026.3622"
             x="158"
             height="1"
             width="2"
             id="rect13805"
             style="display:inline;overflow:visible;visibility:visible;fill:url(#linearGradient11240);fill-opacity:1;fill-rule:nonzero;stroke:none;stroke-width:1;marker:none" />
          <rect
             y="1024.3622"
             x="156"
             height="1"
             width="1"
             id="rect13815"
             style="display:inline;overflow:visible;visibility:visible;fill:url(#linearGradient942);fill-opacity:1;fill-rule:nonzero;stroke:none;stroke-width:1;marker:none" />
          <rect
             style="display:inline;overflow:visible;visibility:visible;fill:url(#linearGradient944);fill-opacity:1;fill-rule:nonzero;stroke:none;stroke-width:1;marker:none"
             id="rect13817"
             width="1"
             height="1"
             x="156"
             y="1026.3622" />
          <g
             transform="translate(3)"
             style="fill:#f09e6f"
             id="g14026">
            <rect
               y="1024.3622"
               x="157"
               height="1"
               width="1"
               id="rect14018"
               style="display:inline;overflow:visible;visibility:visible;fill:#f09e6f;fill-opacity:1;fill-rule:nonzero;stroke:none;stroke-width:1;marker:none" />
            <rect
               style="display:inline;overflow:visible;visibility:visible;fill:#f09e6f;fill-opacity:1;fill-rule:nonzero;stroke:none;stroke-width:1;marker:none"
               id="rect14022"
               width="1"
               height="1"
               x="157"
               y="1026.3622" />
          </g>
        </g>
        <g
           style="fill:url(#linearGradient948);fill-opacity:1"
           id="g14154"
           transform="translate(20,20)" />
      </g>
    </g>
  </g>
</svg>
