<?xml version="1.0" encoding="UTF-8" standalone="no"?>
<svg
   xmlns:dc="http://purl.org/dc/elements/1.1/"
   xmlns:cc="http://creativecommons.org/ns#"
   xmlns:rdf="http://www.w3.org/1999/02/22-rdf-syntax-ns#"
   xmlns:svg="http://www.w3.org/2000/svg"
   xmlns="http://www.w3.org/2000/svg"
   xmlns:sodipodi="http://sodipodi.sourceforge.net/DTD/sodipodi-0.dtd"
   xmlns:inkscape="http://www.inkscape.org/namespaces/inkscape"
   height="16"
   viewBox="0 0 4.2333333 4.2333334"
   width="16"
   version="1.1"
   id="svg20"
   sodipodi:docname="sx03125.svg"
   inkscape:version="1.0.1 (3bc2e813f5, 2020-09-07)">
  <metadata
     id="metadata26">
    <rdf:RDF>
      <cc:Work
         rdf:about="">
        <dc:format>image/svg+xml</dc:format>
        <dc:type
           rdf:resource="http://purl.org/dc/dcmitype/StillImage" />
      </cc:Work>
    </rdf:RDF>
  </metadata>
  <defs
     id="defs24" />
  <sodipodi:namedview
     pagecolor="#ffffff"
     bordercolor="#666666"
     borderopacity="1"
     objecttolerance="10"
     gridtolerance="10"
     guidetolerance="10"
     inkscape:pageopacity="0"
     inkscape:pageshadow="2"
     inkscape:window-width="1920"
     inkscape:window-height="1011"
     id="namedview22"
     showgrid="true"
     inkscape:zoom="50.5"
     inkscape:cx="8"
     inkscape:cy="8"
     inkscape:window-x="0"
     inkscape:window-y="0"
     inkscape:window-maximized="1"
     inkscape:current-layer="svg20">
    <inkscape:grid
       type="xygrid"
       id="grid869" />
  </sodipodi:namedview>
  <path
     sodipodi:nodetypes="ccccccccc"
     style="opacity:0.6;fill:#000000;stroke:#000000;stroke-width:0.529167;stroke-linejoin:round;stroke-miterlimit:4;stroke-dasharray:none"
     id="path815"
     d="M 0.79374997,3.175 V 1.0583333 c 0,-0.52916668 0.26458343,-0.52916668 0.79375003,-0.52916668 h 1.0583334 l 0.79375,0.79374998 V 3.175 c 0,0.5291667 -0.2645834,0.5291667 -0.79375,0.5291667 H 1.5875 c -0.5291666,0 -0.79375002,0 -0.79375003,-0.5291667 z"
     inkscape:connector-curvature="0" />
  <path
     inkscape:connector-curvature="0"
     d="M 0.79374997,3.175 V 1.0583333 c 0,-0.52916668 0.26458343,-0.52916668 0.79375003,-0.52916668 h 1.0583334 l 0.79375,0.79374998 V 3.175 c 0,0.5291667 -0.2645834,0.5291667 -0.79375,0.5291667 H 1.5875 c -0.5291666,0 -0.79375002,0 -0.79375003,-0.5291667 z"
     id="path2"
     style="fill:#ffffff;stroke-width:0.264583"
     sodipodi:nodetypes="ccccccccc" />
  <path
     inkscape:connector-curvature="0"
     d="M 2.6458334,1.3229166 V 0.52916662 l 0.79375,0.79374998 z"
     id="path4"
     style="fill:#6d6d6d;fill-opacity:1;stroke-width:0.264583" />
  <path
     d="m 2.9104167,1.5875 c -0.1461259,0 -0.2645834,0.1184575 -0.2645834,0.2645834 0,0.1461258 0.1184575,0.2645833 0.2645834,0.2645833 C 3.0565425,2.1166667 3.175,1.9982092 3.175,1.8520834 3.175,1.7059575 3.0565425,1.5875 2.9104167,1.5875 Z"
     id="path4527-0-3"
     style="color:#000000;display:inline;overflow:visible;visibility:visible;fill:#232629;fill-opacity:1;fill-rule:nonzero;stroke:none;stroke-width:1.05813;marker:none;enable-background:accumulate" />
  <path
     d="M 1.7528645,1.9016928 1.0583333,3.175 H 1.6876179 2.9104166 L 2.3316405,2.1332031 2.1001301,2.4804688 Z"
     id="path4156-2-1"
     style="color:#000000;display:inline;overflow:visible;visibility:visible;fill:#232629;fill-opacity:1;fill-rule:nonzero;stroke:none;stroke-width:1.38879;marker:none;enable-background:accumulate" />
</svg>
