<?xml version="1.0" encoding="UTF-8" standalone="no"?>
<svg
   xmlns:dc="http://purl.org/dc/elements/1.1/"
   xmlns:cc="http://creativecommons.org/ns#"
   xmlns:rdf="http://www.w3.org/1999/02/22-rdf-syntax-ns#"
   xmlns:svg="http://www.w3.org/2000/svg"
   xmlns="http://www.w3.org/2000/svg"
   xmlns:sodipodi="http://sodipodi.sourceforge.net/DTD/sodipodi-0.dtd"
   xmlns:inkscape="http://www.inkscape.org/namespaces/inkscape"
   viewBox="0 0 16 16"
   version="1.1"
   id="svg6"
   sodipodi:docname="sx16670.svg"
   inkscape:export-filename="/home/jupiter007/Libreoffice yaru theme fullcolor/build/res/sx16670.png"
   inkscape:export-xdpi="96"
   inkscape:export-ydpi="96"
   inkscape:version="1.0.1 (3bc2e813f5, 2020-09-07)">
  <metadata
     id="metadata12">
    <rdf:RDF>
      <cc:Work
         rdf:about="">
        <dc:format>image/svg+xml</dc:format>
        <dc:type
           rdf:resource="http://purl.org/dc/dcmitype/StillImage" />
      </cc:Work>
    </rdf:RDF>
  </metadata>
  <defs
     id="defs10" />
  <sodipodi:namedview
     pagecolor="#ffffff"
     bordercolor="#666666"
     borderopacity="1"
     objecttolerance="10"
     gridtolerance="10"
     guidetolerance="10"
     inkscape:pageopacity="0"
     inkscape:pageshadow="2"
     inkscape:window-width="1920"
     inkscape:window-height="1016"
     id="namedview8"
     showgrid="true"
     inkscape:zoom="29.5"
     inkscape:cx="-0.18853672"
     inkscape:cy="5.4041138"
     inkscape:window-x="0"
     inkscape:window-y="27"
     inkscape:window-maximized="1"
     inkscape:current-layer="svg6"
     inkscape:document-rotation="0">
    <inkscape:grid
       type="xygrid"
       id="grid830" />
  </sodipodi:namedview>
  <path
     id="path817"
     style="fill:#f2cbf8;fill-opacity:1;stroke-width:0.91666681"
     d="M 8 2.5 C 4.9624339 2.5 2.5 3.3214627 2.5 4.3339844 L 2.5 11.666016 C 2.5 12.517217 4.2481587 13.227139 6.6074219 13.433594 L 6.4707031 13.347656 C 5.8448827 12.955817 5.8448827 12.044183 6.4707031 11.652344 L 10.470703 9.1523438 C 10.621485 9.0578059 10.794764 9.00522 10.972656 9 C 11.535565 8.9846599 12.000153 9.4368825 12 10 L 12 11 L 13.5 11 L 13.5 4.3339844 C 13.5 3.3214627 11.037565 2.5 8 2.5 z " />
  <path
     id="path2"
     style="fill:#8e03a3;fill-opacity:1"
     d="M 8 2 A 6 2 0 0 0 2 4 L 2 12 A 6 2 0 0 0 7.5019531 13.992188 L 6.4707031 13.347656 C 6.298371 13.239756 6.1789845 13.090805 6.1015625 12.925781 A 5 1 0 0 1 3 12 L 3 9.1015625 A 6 2 0 0 0 8 10 A 6 2 0 0 0 9.1757812 9.9609375 L 10.470703 9.1523438 C 10.621485 9.0578059 10.794764 9.00522 10.972656 9 C 11.361321 8.9894083 11.690927 9.2095334 11.865234 9.5273438 A 6 2 0 0 0 13 9.1035156 L 13 11 L 14 11 L 14 4 A 6 2 0 0 0 8 2 z M 7.8964844 3 A 5 1 0 0 1 8 3 A 5 1 0 0 1 13 4 A 5 1 0 0 1 8 5 A 5 1 0 0 1 3 4 A 5 1 0 0 1 7.8964844 3 z M 3 5.1015625 A 6 2 0 0 0 8 6 A 6 2 0 0 0 13 5.1035156 L 13 8 A 5 1 0 0 1 8 9 A 5 1 0 0 1 3 8 L 3 5.1015625 z " />
  <path
     inkscape:connector-curvature="0"
     style="fill:#e95420;fill-opacity:1;stroke:none;stroke-width:1px;stroke-linecap:butt;stroke-linejoin:miter;stroke-opacity:1"
     d="m 6.9999336,12.5 4.0000004,2.5001 v -2 L 15,13.0002 V 12 l -4.000066,-10e-5 V 9.999901 Z"
     id="path834-1"
     sodipodi:nodetypes="cccccccc" />
</svg>
