<svg xmlns="http://www.w3.org/2000/svg" height="32" width="32"><path style="opacity:.7;fill:#000;stroke:#000;stroke-width:2.0004;stroke-linecap:butt;stroke-linejoin:miter;stroke-miterlimit:4;stroke-dasharray:none;stroke-opacity:1" d="M2 6.996c0-2 1-2 3.001-2h22c1.998 0 2.999 0 2.999 2v18.008c0 2-1 2-3 2H5.002c-1.998 0-3 0-3-2z"/><path style="fill:#fff;stroke:none;stroke-width:1.0002px;stroke-linecap:butt;stroke-linejoin:miter;stroke-opacity:1" d="M2 6.996c0-2 1-2 3.001-2h22c1.998 0 2.999 0 2.999 2v18.008c0 2-1 2-3 2H5.002c-1.998 0-3 0-3-2z"/><path d="M7 5v22l17-3V9zm9 5a6 6 0 0 1 6 6v6h-2v-6a4 4 0 1 0-8 0v4h2l-3 3-3-3h2v-4a6 6 0 0 1 6-6z" fill="#e62d42" fill-rule="evenodd"/></svg>