<svg width="17" height="15" xmlns="http://www.w3.org/2000/svg"><path style="fill:#fee581;fill-opacity:1;fill-rule:evenodd;stroke:#000;stroke-width:2;stroke-linecap:round;stroke-linejoin:round;opacity:.7" d="M8.951 3A2 2 0 0 0 7 5v2H3v4h6V7H8V5a1 1 0 0 1 1-1 1 1 0 0 1 1 1v2h1V5a2 2 0 0 0-2-2 2 2 0 0 0-.049 0z"/><path style="fill:#fee581;fill-opacity:1;fill-rule:evenodd;stroke:none;stroke-width:2;stroke-linecap:round;stroke-linejoin:round" d="M8.951 3A2 2 0 0 0 7 5v2H3v4h6V7H8V5a1 1 0 0 1 1-1 1 1 0 0 1 1 1v2h1V5a2 2 0 0 0-2-2 2 2 0 0 0-.049 0z"/></svg>