<svg xmlns="http://www.w3.org/2000/svg" xmlns:xlink="http://www.w3.org/1999/xlink" viewBox="0 0 16 16"><defs><linearGradient id="b"><stop offset="0" stop-color="#151515"/><stop offset="1" stop-color="#4d4d4d"/></linearGradient><linearGradient id="a"><stop offset="0" stop-color="#151515"/><stop offset="1" stop-color="#4d4d4d"/></linearGradient><linearGradient xlink:href="#a" id="d" x1="8" y1="1" x2="8" y2="15" gradientUnits="userSpaceOnUse"/><linearGradient xlink:href="#b" id="c" x1="7" y1="1" x2="7" y2="15" gradientUnits="userSpaceOnUse"/></defs><path d="M8 1C5.784 1 4 2.784 4 5v4c0 2.216 1.784 4 4 4s4-1.784 4-4V5c0-2.216-1.784-4-4-4zm-.5 2h1c.831 0 1.5.892 1.5 2v4c0 1.108-.669 2-1.5 2h-1C6.669 11 6 10.108 6 9V5c0-1.108.669-2 1.5-2z" stroke="#fff" stroke-width="2" stroke-linejoin="round"/><path d="M8 13c-2.216 0-4-1.784-4-4V5c0-2.216 1.784-4 4-4s4 1.784 4 4v4c0 2.216-1.784 4-4 4zm-.5-2h1c.831 0 1.5-.892 1.5-2V5c0-1.108-.669-2-1.5-2h-1C6.669 3 6 3.892 6 5v4c0 1.108.669 2 1.5 2z" fill="url(#c)"/><path d="M2 12v1h12v-1H2zm0 2v1h12v-1H2z" stroke="#fff" stroke-width="2" stroke-linejoin="round"/><path d="M2 12v1h12v-1H2zm0 2v1h12v-1H2z" fill="url(#d)"/></svg>