<?xml version="1.0" encoding="UTF-8" standalone="no"?>
<svg
   xmlns:dc="http://purl.org/dc/elements/1.1/"
   xmlns:cc="http://creativecommons.org/ns#"
   xmlns:rdf="http://www.w3.org/1999/02/22-rdf-syntax-ns#"
   xmlns:svg="http://www.w3.org/2000/svg"
   xmlns="http://www.w3.org/2000/svg"
   xmlns:xlink="http://www.w3.org/1999/xlink"
   xmlns:sodipodi="http://sodipodi.sourceforge.net/DTD/sodipodi-0.dtd"
   xmlns:inkscape="http://www.inkscape.org/namespaces/inkscape"
   viewBox="0 0 32 32"
   version="1.1"
   id="svg4"
   sodipodi:docname="underlinedouble.svg"
   inkscape:version="1.0.1 (3bc2e813f5, 2020-09-07)"
   inkscape:export-filename="/home/jupiter007/Libreoffice yaru theme fullcolor/build/cmd/32/km/underlinedouble.png"
   inkscape:export-xdpi="96"
   inkscape:export-ydpi="96">
  <metadata
     id="metadata10">
    <rdf:RDF>
      <cc:Work
         rdf:about="">
        <dc:format>image/svg+xml</dc:format>
        <dc:type
           rdf:resource="http://purl.org/dc/dcmitype/StillImage" />
        <dc:title></dc:title>
      </cc:Work>
    </rdf:RDF>
  </metadata>
  <defs
     id="defs8">
    <linearGradient
       inkscape:collect="always"
       id="linearGradient840">
      <stop
         style="stop-color:#151515;stop-opacity:1"
         offset="0"
         id="stop836" />
      <stop
         style="stop-color:#4d4d4d;stop-opacity:1"
         offset="1"
         id="stop838" />
    </linearGradient>
    <linearGradient
       inkscape:collect="always"
       xlink:href="#linearGradient840"
       id="linearGradient842"
       x1="13"
       y1="4"
       x2="13"
       y2="29"
       gradientUnits="userSpaceOnUse" />
  </defs>
  <sodipodi:namedview
     pagecolor="#808080"
     bordercolor="#666666"
     borderopacity="1"
     objecttolerance="10"
     gridtolerance="10"
     guidetolerance="10"
     inkscape:pageopacity="0"
     inkscape:pageshadow="2"
     inkscape:window-width="1920"
     inkscape:window-height="1016"
     id="namedview6"
     showgrid="true"
     inkscape:zoom="15.999999"
     inkscape:cx="11.990735"
     inkscape:cy="14.334564"
     inkscape:window-x="0"
     inkscape:window-y="27"
     inkscape:window-maximized="1"
     inkscape:current-layer="svg4"
     inkscape:document-rotation="0">
    <inkscape:grid
       type="xygrid"
       id="grid819" />
  </sodipodi:namedview>
  <path
     style="opacity:1;fill:#000000;fill-opacity:1;stroke:#ffffff;stroke-width:2;stroke-linejoin:round;stroke-miterlimit:4;stroke-dasharray:none"
     d="m 8,4 -2,2 3,3 -10e-8,8 C 8.9999998,22 12,24 16,24 c 4,0 7,-3 7,-7 V 8 L 19,6 h 5 V 4 h -5 l -2,2 3,3 v 8 c 0,2.209139 -1.790861,4 -4,4 -2.209139,0 -4.129725,-1.794673 -4,-4 V 8 L 8,6 h 5 V 4 Z"
     id="path854"
     inkscape:connector-curvature="0"
     sodipodi:nodetypes="cccssscccccccsscccccc" />
  <path
     style="opacity:1;fill:#000000;fill-opacity:1;stroke:#ffffff;stroke-width:2;stroke-linejoin:round;stroke-miterlimit:4;stroke-dasharray:none"
     d="m 7,26 v 1 h 18 v -1 z m 0,2 v 1 h 18 v -1 z"
     id="path818"
     inkscape:connector-curvature="0" />
  <path
     id="path824"
     style="fill:url(#linearGradient842);fill-opacity:1"
     d="M 8 4 L 6 6 L 9 9 L 9 17 C 8.9999999 22 12 24 16 24 C 20 24 23 21 23 17 L 23 8 L 19 6 L 24 6 L 24 4 L 19 4 L 17 6 L 20 9 L 20 17 C 20 19.209139 18.209139 21 16 21 C 13.790861 21 11.870275 19.205327 12 17 L 12 8 L 8 6 L 13 6 L 13 4 L 8 4 z M 7 26 L 7 27 L 25 27 L 25 26 L 7 26 z M 7 28 L 7 29 L 25 29 L 25 28 L 7 28 z " />
</svg>
