<svg xmlns="http://www.w3.org/2000/svg" viewBox="0 0 24 24"><path style="fill:#fff;fill-rule:evenodd;stroke-width:3;stroke-linecap:round;stroke-linejoin:round" transform="scale(-1)" d="M-16-8h10v1h-10z"/><path style="fill:#232629;fill-rule:evenodd;stroke-width:3;stroke-linecap:round;stroke-linejoin:round" transform="scale(-1)" d="M-16-7h10v1h-10z"/><path style="fill:#fff;fill-rule:evenodd;stroke-width:3;stroke-linecap:round;stroke-linejoin:round" transform="scale(-1)" d="M-16-6h14v1h-14z"/><path style="fill:#232629;fill-rule:evenodd;stroke-width:3;stroke-linecap:round;stroke-linejoin:round" transform="scale(-1)" d="M-16-5h14v1h-14z"/><path style="fill:#fff;fill-rule:evenodd;stroke-width:3;stroke-linecap:round;stroke-linejoin:round" transform="scale(-1)" d="M-16-14h10v1h-10z"/><path style="fill:#232629;fill-rule:evenodd;stroke-width:3;stroke-linecap:round;stroke-linejoin:round" transform="scale(-1)" d="M-16-13h10v1h-10z"/><path style="fill:#fff;fill-rule:evenodd;stroke-width:3;stroke-linecap:round;stroke-linejoin:round" transform="scale(-1)" d="M-16-12h14v1h-14z"/><path style="fill:#232629;fill-rule:evenodd;stroke-width:3;stroke-linecap:round;stroke-linejoin:round" transform="scale(-1)" d="M-16-11h14v1h-14z"/><path style="fill:#fff;fill-rule:evenodd;stroke-width:3;stroke-linecap:round;stroke-linejoin:round" transform="scale(-1)" d="M-16-20h10v1h-10z"/><path style="fill:#232629;fill-rule:evenodd;stroke-width:3;stroke-linecap:round;stroke-linejoin:round" transform="scale(-1)" d="M-16-19h10v1h-10z"/><path style="fill:#fff;fill-rule:evenodd;stroke-width:3;stroke-linecap:round;stroke-linejoin:round" transform="scale(-1)" d="M-16-18h14v1h-14z"/><path style="fill:#232629;fill-rule:evenodd;stroke-width:3;stroke-linecap:round;stroke-linejoin:round" transform="scale(-1)" d="M-16-17h14v1h-14z"/><path style="fill:#657B69;fill-opacity:1;fill-rule:evenodd;stroke:none;stroke-width:2;stroke-linecap:round;stroke-linejoin:round" d="M19.951 4A2 2 0 0 0 18 6a2 2 0 0 0 2 2 2 2 0 0 0 1-.27V8h1V6.049A2 2 0 0 0 22 6V4h-1v.27A2 2 0 0 0 20 4a2 2 0 0 0-.049 0zM20 5a1 1 0 0 1 1 1 1 1 0 0 1-1 1 1 1 0 0 1-1-1 1 1 0 0 1 1-1zM18 14v3.998A2 2 0 0 0 18 18v2h1v-.27a2 2 0 0 0 1 .27 2 2 0 0 0 2-2 2 2 0 0 0-2-2 2 2 0 0 0-.049 0 2 2 0 0 0-.951.268V14zm2 3a1 1 0 0 1 1 1 1 1 0 0 1-1 1 1 1 0 0 1-1-1 1 1 0 0 1 1-1z"/></svg>