<svg xmlns="http://www.w3.org/2000/svg" xmlns:xlink="http://www.w3.org/1999/xlink" viewBox="0 0 16 16"><defs><linearGradient id="a"><stop offset="0" stop-color="#151515"/><stop offset="1" stop-color="#4d4d4d"/></linearGradient><linearGradient xlink:href="#a" id="b" x1="5" y1="4" x2="5" y2="14" gradientUnits="userSpaceOnUse" gradientTransform="translate(0 -1)"/></defs><path d="M6 3C4.343 3 3 4.12 3 5.5v3C3 9.88 4.343 11 6 11s3-1.12 3-2.5c0 1.38 1.343 2.5 3 2.5s3-1.12 3-2.5v-3C15 4.12 13.657 3 12 3S9 4.12 9 5.5C9 4.12 7.657 3 6 3zm0 2a1 1 0 011 1v2a1 1 0 11-2 0V6a1 1 0 011-1zm6 0a1 1 0 011 1v2a1 1 0 11-2 0V6a1 1 0 011-1zM1 9v2h1c0 1 0 1-1 2 1 0 2 0 2-2V9z" fill-rule="evenodd" stroke="#fff" stroke-width="2" stroke-linejoin="round"/><path d="M6 3C4.343 3 3 4.12 3 5.5v3C3 9.88 4.343 11 6 11s3-1.12 3-2.5c0 1.38 1.343 2.5 3 2.5s3-1.12 3-2.5v-3C15 4.12 13.657 3 12 3S9 4.12 9 5.5C9 4.12 7.657 3 6 3zm0 2a1 1 0 011 1v2a1 1 0 11-2 0V6a1 1 0 011-1zm6 0a1 1 0 011 1v2a1 1 0 11-2 0V6a1 1 0 011-1zM1 9v2h1c0 1 0 1-1 2 1 0 2 0 2-2V9z" fill="url(#b)"/><circle cy="12.5" cx="12.5" r="3.5" fill="#c7162b"/><path overflow="visible" font-weight="400" style="line-height:normal;text-indent:0;text-align:start;text-decoration-line:none;text-decoration-style:solid;text-decoration-color:#000;text-transform:none;white-space:normal;isolation:auto;mix-blend-mode:normal;marker:none" d="M13.914 10.379L12.5 11.793l-1.414-1.414-.707.707 1.414 1.414-1.414 1.414.707.707 1.414-1.414 1.414 1.414.707-.707-1.414-1.414 1.414-1.414z" color="#000" font-family="sans-serif" fill="#fff"/></svg>