<svg viewBox="0 0 24 24" xmlns="http://www.w3.org/2000/svg"><path style="opacity:.7;fill:#000;stroke:#000;stroke-width:2;stroke-linejoin:round;stroke-miterlimit:4;stroke-dasharray:none" d="M16 3.998c2 0 3 0 3 2v12.004c0 2-1 2-3 2H8c-2 0-3 0-3-2V5.998c0-2 1-2 3-2z"/><path d="M16 3.998c2 0 3 0 3 2v12.004c0 2-1 2-3 2H8c-2 0-3 0-3-2V5.998c0-2 1-2 3-2z" style="fill:#fff;stroke-width:1"/><g aria-label="A5" style="font-size:10.6681px;line-height:1.25;letter-spacing:0;word-spacing:0"><path d="M11.657 15.618q-.181-.48-.341-.939-.16-.47-.331-.95h-3.35l-.672 1.89H5.886q.426-1.174.8-2.167.373-1.002.725-1.898.363-.897.715-1.707.352-.822.736-1.622h.95q.384.8.736 1.622.352.81.704 1.707.362.896.736 1.898.373.993.8 2.166zm-.97-2.742q-.342-.928-.684-1.792-.33-.875-.693-1.675-.373.8-.715 1.675-.33.864-.661 1.792zM14.996 11.073q1.611.064 2.358.705.757.64.757 1.738 0 .491-.17.907-.16.416-.502.715-.33.299-.843.47-.512.17-1.216.17-.277 0-.565-.043-.288-.042-.534-.106-.245-.064-.437-.128t-.277-.107l.192-.864q.181.085.586.224.416.139 1.014.139.48 0 .8-.107.33-.107.533-.288t.288-.416q.096-.245.096-.512 0-.406-.138-.715-.139-.32-.491-.533-.352-.214-.939-.32-.587-.118-1.483-.118.064-.522.096-.981.043-.459.075-.896.032-.438.053-.864.022-.438.043-.918h3.563v.843h-2.699q-.01.16-.032.437l-.043.566q-.02.288-.042.565-.022.277-.043.437z" style="font-family:Ubuntu;-inkscape-font-specification:Ubuntu" transform="scale(1.00013 .99987)"/></g></svg>