<svg viewBox="0 0 24 24" xmlns="http://www.w3.org/2000/svg"><path style="color:#000;opacity:.7;fill:#000;stroke-linejoin:round;-inkscape-stroke:none" d="M4 5.998c0-.583.065-1.093.273-1.562.21-.47.6-.868 1.03-1.082C6.16 2.924 7 2.998 8 2.998h8c.389 0 .753-.01 1.104.002H16v1.998H8c-1 0-1.66.074-1.803.145-.07.035-.054.012-.095.105-.042.093-.102.333-.102.75V17H4zm2 12.004c0 .417.06.657.102.75.04.093.024.07.095.105.137.069.758.137 1.69.143H6zM6.896 21H8v-1.998h8c1 0 1.66-.073 1.803-.145.07-.035.054-.012.095-.105.042-.093.102-.333.102-.75V7h2v11.002c0 .583-.065 1.093-.273 1.562-.21.47-.6.868-1.03 1.082-.858.43-1.697.356-2.697.356H8c-.389 0-.753.01-1.104-.002zm9.217-16H18v.998c0-.417-.06-.657-.102-.75-.04-.093-.024-.07-.095-.105-.137-.069-.758-.137-1.69-.143z"/><path style="fill:#fff;stroke-width:1" d="M5 5.998c0-2 1-2 3-2h8V5h2v2h1v11.002c0 2-1 2-3 2H8V19H6v-2H5z"/><path style="fill:#2190a4;fill-opacity:1;fill-rule:evenodd;stroke-width:2;stroke-linecap:round;stroke-linejoin:round" d="M2 20h2v-2h1v2h2v1H5v2H4v-2H2zM17 3h2V1h1v2h2v1h-2v2h-1V4h-2z"/></svg>