<?xml version="1.0" encoding="UTF-8" standalone="no"?>
<svg
   xmlns:dc="http://purl.org/dc/elements/1.1/"
   xmlns:cc="http://creativecommons.org/ns#"
   xmlns:rdf="http://www.w3.org/1999/02/22-rdf-syntax-ns#"
   xmlns:svg="http://www.w3.org/2000/svg"
   xmlns="http://www.w3.org/2000/svg"
   xmlns:sodipodi="http://sodipodi.sourceforge.net/DTD/sodipodi-0.dtd"
   xmlns:inkscape="http://www.inkscape.org/namespaces/inkscape"
   height="16"
   width="16"
   version="1.1"
   id="svg18"
   sodipodi:docname="galnors.svg"
   inkscape:export-filename="/home/jupiter007/Libreoffice yaru theme fullcolor/build/svx/res/galnors.png"
   inkscape:export-xdpi="96"
   inkscape:export-ydpi="96"
   inkscape:version="1.0.1 (3bc2e813f5, 2020-09-07)">
  <metadata
     id="metadata24">
    <rdf:RDF>
      <cc:Work
         rdf:about="">
        <dc:format>image/svg+xml</dc:format>
        <dc:type
           rdf:resource="http://purl.org/dc/dcmitype/StillImage" />
      </cc:Work>
    </rdf:RDF>
  </metadata>
  <defs
     id="defs22" />
  <sodipodi:namedview
     pagecolor="#ffffff"
     bordercolor="#666666"
     borderopacity="1"
     objecttolerance="10"
     gridtolerance="10"
     guidetolerance="10"
     inkscape:pageopacity="0"
     inkscape:pageshadow="2"
     inkscape:window-width="1920"
     inkscape:window-height="1011"
     id="namedview20"
     showgrid="true"
     inkscape:zoom="41.7193"
     inkscape:cx="6.2122392"
     inkscape:cy="7.4849329"
     inkscape:window-x="0"
     inkscape:window-y="0"
     inkscape:window-maximized="1"
     inkscape:current-layer="svg18"
     inkscape:document-rotation="0">
    <inkscape:grid
       type="xygrid"
       id="grid834" />
  </sodipodi:namedview>
  <path
     sodipodi:nodetypes="cccscsccccccccscscccccc"
     inkscape:connector-curvature="0"
     id="path866"
     d="m 3.9938295,0.980421 c -1.2581996,0.0145 -2.1788906,-0.030604 -2.9316406,0.3847656 -0.37636993,0.20766 -0.67323103,0.5593869 -0.83789103,0.998047 -0.16467,0.43867 -0.22460899698,0.959587 -0.22460899698,1.617187 v 1.488281 3.589452 c 0,0.65761 0.059899997,1.1785784 0.22460899698,1.6171894 0.16468,0.438611 0.4615311,0.788524 0.83789103,0.996093 0.75272,0.41513 1.673541,0.371649 2.9316406,0.386718 h 0.002 5.005809 0.0039 c 1.2581895,-0.0145 2.1788905,0.0306 2.9316405,-0.384767 0.37637,-0.20766 0.673221,-0.559386 0.837891,-0.998046 0.164539,-0.43867 0.23258,-0.9596254 0.224618,-1.6171874 v -3.610936 -1.466797 c 0,-0.6576 -0.0599,-1.178577 -0.224609,-1.617187 C 12.610399,1.9246335 12.313548,1.5746997 11.937188,1.3671398 11.184418,0.9520098 10.263587,0.995501 9.0054975,0.980421 h -0.002 -5.005809 z"
     style="font-style:normal;font-variant:normal;font-weight:normal;font-stretch:normal;font-size:15px;line-height:125%;font-family:Ubuntu;-inkscape-font-specification:Ubuntu;text-align:center;letter-spacing:0px;word-spacing:0px;writing-mode:lr-tb;text-anchor:middle;display:inline;opacity:0.6;fill:#000000;fill-opacity:1;stroke:none;stroke-width:0.999802" />
  <path
     inkscape:connector-curvature="0"
     id="path868"
     d="m 5.9878925,2.0076058 c -1.556581,0.010796 -2.114825,-0.011752 -3.6647756,0.038775 -0.461229,0.04267 -1.016188,0.20642 -1.15534,0.709967 -0.21899393,0.635346 -0.108414,1.333787 -0.145796,1.981924 -0.0078,2.2970838 -0.02297,2.6735778 0.02152,4.9629298 0.0391,0.4619284 0.202551,1.0126654 0.698756,1.1636654 0.632456,0.225082 1.284144,0.12274 1.9359736,0.154299 1.424235,0.0068 1.855398,0.01102 3.281255,0.01131 1.704531,3.49e-4 1.403503,-0.005 3.1023045,-0.01851 0.511911,-0.01201 1.183699,0.01993 1.584745,-0.405191 C 12.067632,10.066992 11.933608,9.3387526 11.96928,8.7029876 11.98115,6.2586648 11.99697,5.7147428 11.94738,3.2690438 11.8981,2.8670036 11.777388,2.4060916 11.372241,2.2245686 10.704072,1.9304709 9.9460365,2.0565496 9.2463205,2.0189956 7.4919135,2.0071926 7.7423315,2.0065116 5.9878925,2.0076058 Z"
     style="opacity:1;vector-effect:none;fill:#a6d74f;fill-opacity:1;stroke:none;stroke-width:1;stroke-linecap:round;stroke-linejoin:bevel;stroke-miterlimit:4;stroke-dasharray:none;stroke-dashoffset:0;stroke-opacity:1"
     sodipodi:nodetypes="cccccccsccccccc" />
  <path
     sodipodi:nodetypes="cccscsccccccccscscccccc"
     inkscape:connector-curvature="0"
     id="path850"
     d="m 6.9938295,3.9418464 c -1.2582,0.0145 -2.178891,-0.030604 -2.931641,0.3847656 -0.37637,0.20766 -0.6732306,0.5593869 -0.8378906,0.998047 -0.16467,0.43867 -0.224609,0.959587 -0.224609,1.617187 v 1.488281 3.589452 c 0,0.65761 0.0599,1.178578 0.224609,1.617189 0.16468,0.438611 0.4615306,0.788524 0.8378906,0.996093 0.75272,0.41513 1.673541,0.371649 2.931641,0.386718 h 0.002 5.0058085 0.0039 c 1.25819,-0.0145 2.178891,0.0306 2.931641,-0.384767 0.37637,-0.20766 0.673221,-0.559386 0.837891,-0.998046 0.164539,-0.43867 0.23258,-0.959625 0.224618,-1.617187 V 8.408643 6.941846 c 0,-0.6576 -0.0599,-1.178577 -0.224609,-1.617187 -0.16468,-0.4386001 -0.461531,-0.7885339 -0.837891,-0.9960938 -0.75277,-0.41513 -1.673601,-0.3716388 -2.931691,-0.3867188 h -0.002 -5.0058085 z"
     style="font-style:normal;font-variant:normal;font-weight:normal;font-stretch:normal;font-size:15px;line-height:125%;font-family:Ubuntu;-inkscape-font-specification:Ubuntu;text-align:center;letter-spacing:0px;word-spacing:0px;writing-mode:lr-tb;text-anchor:middle;display:inline;opacity:0.6;fill:#000000;fill-opacity:1;stroke:none;stroke-width:0.999802" />
  <path
     inkscape:connector-curvature="0"
     id="path852"
     d="m 8.9878925,4.9690312 c -1.556581,0.010796 -2.114825,-0.011752 -3.664776,0.038775 -0.461229,0.04267 -1.016188,0.20642 -1.15534,0.709967 -0.218994,0.635346 -0.108414,1.333787 -0.145796,1.981924 -0.0078,2.2970838 -0.02297,2.6735778 0.02152,4.9629298 0.0391,0.461928 0.202551,1.012665 0.698756,1.163665 0.632456,0.225082 1.284144,0.12274 1.935974,0.154299 1.424235,0.0068 1.855398,0.01102 3.281255,0.01131 1.7045305,3.49e-4 1.4035025,-0.005 3.1023045,-0.01851 0.511911,-0.01201 1.183699,0.01993 1.584745,-0.405191 0.421097,-0.539783 0.287073,-1.268022 0.322745,-1.903787 C 14.98115,9.2200902 14.99697,8.6761682 14.94738,6.2304692 14.898104,5.828429 14.777388,5.367517 14.372241,5.185994 13.704072,4.8918963 12.946036,5.017975 12.24632,4.980421 10.491913,4.9686184 10.742331,4.9679366 8.9878925,4.9690312 Z"
     style="opacity:1;vector-effect:none;fill:#a6d74f;fill-opacity:1;stroke:none;stroke-width:1;stroke-linecap:round;stroke-linejoin:bevel;stroke-miterlimit:4;stroke-dasharray:none;stroke-dashoffset:0;stroke-opacity:1"
     sodipodi:nodetypes="cccccccsccccccc" />
  <path
     d="m 8.4364475,7.671045 -2.436759,4.309376 h 2.207842 4.2901845 L 10.467081,8.454568 9.6548275,9.629852 Z"
     id="path4156-2-1"
     style="color:#000000;display:inline;overflow:visible;visibility:visible;fill:#6d6d6f;fill-opacity:1;fill-rule:nonzero;stroke:none;stroke-width:4.7856;marker:none;enable-background:accumulate" />
  <path
     d="m 11.999688,6.980421 c -0.552287,0 -1,0.447713 -1,1 0,0.552287 0.447713,1 1,1 0.552287,0 1,-0.447713 1,-1 0,-0.552287 -0.447713,-1 -1,-1 z"
     id="path4527-0-3"
     style="color:#000000;display:inline;overflow:visible;visibility:visible;fill:#6d6d6f;fill-opacity:1;fill-rule:nonzero;stroke:none;stroke-width:3.99921;marker:none;enable-background:accumulate" />
</svg>
