<svg xmlns="http://www.w3.org/2000/svg" height="32" width="32"><path style="opacity:.7;fill:#000;stroke:#000;stroke-width:2.0004;stroke-linecap:butt;stroke-linejoin:miter;stroke-miterlimit:4;stroke-dasharray:none;stroke-opacity:1" d="M2 6.996c0-2 1-2 3.001-2h22c1.998 0 2.999 0 2.999 2v18.008c0 2-1 2-3 2H5.002c-1.998 0-3 0-3-2z"/><path style="fill:#fff;stroke:none;stroke-width:1.0002px;stroke-linecap:butt;stroke-linejoin:miter;stroke-opacity:1" d="M2 6.996c0-2 1-2 3.001-2h22c1.998 0 2.999 0 2.999 2v18.008c0 2-1 2-3 2H5.002c-1.998 0-3 0-3-2z"/><path style="fill:#4B8501" d="M8.021 4.996 4 6.051 8.924 22 30 16.475V9.47l-1.357-4.397c-.442-.072-.984-.078-1.643-.078H8.021z"/><path d="M22.79 22.463a8 8 0 0 0-2.423-11.05 8 8 0 0 0-11.051 2.423L11 14.915a6 6 0 0 1 8.288-1.818 6 6 0 0 1 1.818 8.288z" style="fill:#4B8501"/><path d="m24.475 23.542-5.053-3.236.909 4.145z" fill-rule="evenodd" style="fill:#4B8501"/></svg>