<svg height="52" width="60" xmlns="http://www.w3.org/2000/svg"><path d="M0 0h60v52H0z" fill="#fff"/><path d="M29 6v22.633L9.832 17.566l-.5.868L28.5 29.5v.293L12.883 45.41l.707.707 15.91-15.91 15.91 15.91.707-.707L30.5 29.793V29.5l19.168-11.066-.5-.868L30 28.633V6z" fill="#232629"/><g fill="#308280"><path d="M19 24h1v1h-1zM20 23h1v1h-1zM19 22h1v1h-1zM18 23h1v1h-1z"/></g><path d="M19 23h1v1h-1z" fill="#fff"/><path d="M47 17h3v3h-3z" fill="#308280"/><path d="M48 18h1v1h-1z" fill="#fff"/><path d="M41 41h3v3h-3z" fill="#308280"/><path d="M42 42h1v1h-1z" fill="#fff"/><path d="M18 38h3v3h-3z" fill="#308280"/><path d="M19 39h1v1h-1z" fill="#fff"/><path d="M9 17h3v3H9z" fill="#308280"/><path d="M10 18h1v1h-1z" fill="#fff"/><path d="M28 7h3v3h-3z" fill="#308280"/><path d="M29 8h1v1h-1z" fill="#fff"/><g fill="#308280"><path d="M29 15h1v1h-1zM30 14h1v1h-1zM29 13h1v1h-1zM28 14h1v1h-1z"/></g><path d="M29 14h1v1h-1z" fill="#fff"/><g fill="#308280"><path d="M43 22h1v1h-1zM44 21h1v1h-1zM43 20h1v1h-1zM42 21h1v1h-1z"/></g><path d="M43 21h1v1h-1z" fill="#fff"/><g fill="#308280"><path d="M38 39h1v1h-1zM39 38h1v1h-1zM38 37h1v1h-1zM37 38h1v1h-1z"/></g><path d="M38 38h1v1h-1z" fill="#fff"/><g fill="#308280"><path d="M22 37h1v1h-1zM23 36h1v1h-1zM22 35h1v1h-1zM21 36h1v1h-1z"/></g><path d="M22 36h1v1h-1z" fill="#fff"/></svg>