<svg xmlns="http://www.w3.org/2000/svg" height="52" width="60"><path d="M0 0h60v52H0z" fill="#fff"/><path d="M3 45h52v1H3z" fill="#232629"/><path d="M6 3h1v46H6z" fill="#232629"/><g fill="#308280"><path d="M11 11h15v1H11zM25 6h1v5h-1zM36 6h1v31h-1z"/><path d="M26 6h12v1H26zM37 36h15v1H37zM51 27h1v9h-1z"/></g><g fill="#308280"><path d="M11 21h10v1H11zM20 22h1v9h-1zM41 9h11v1H41z"/><path d="M51 9h1v7h-1z"/></g><path d="M51 36H37l3-3h11z" fill="#987197" style="fill-rule:evenodd;fill:#b87ab2;fill-opacity:1"/><path d="M42 10v21l3-3V10z" fill="#fe865c" style="fill-rule:evenodd;fill:#f08966;fill-opacity:1"/><path d="M37 6v30l3-3V3z" fill="#945c93" style="fill-rule:evenodd;fill:#a6599f;fill-opacity:1"/><path d="M41 30H21l3-3h17z" fill="#fe865c" style="fill-rule:evenodd;fill:#f39472;fill-opacity:1"/><path d="M21 21v9l3-3v-9zM52 9v7l3-3V6z" fill="#fe865c" style="fill-rule:evenodd;fill:#f08966;fill-opacity:1"/><path d="M37 6H25l3-3h12zM25 11H11l3-3h11z" fill="#987197" style="fill-rule:evenodd;fill:#b87ab2;fill-opacity:1"/><path d="M26 7v5l3-3V7z" fill="#945c93" style="fill-rule:evenodd"/><path d="M52 27v10l3-3v-7z" fill="#945c93" style="fill-rule:evenodd;fill:#a6599f;fill-opacity:1"/><g fill="#fe865c" style="fill-rule:evenodd;fill:#f39472;fill-opacity:1"><path d="M21 1021.362H11l3-3h10zM52 1009.362H41l3-3h11z" style="fill:#f39472;fill-opacity:1" transform="translate(0 -1000.362)"/></g><g fill="#308280"><path d="M21 30h21v1H21z"/><path d="M41 9h1v22h-1z"/></g></svg>