<svg xmlns="http://www.w3.org/2000/svg" height="24" width="24"><linearGradient id="a"><stop offset="0"/><stop offset="1" stop-opacity="0"/></linearGradient><path style="line-height:125%;-inkscape-font-specification:Ubuntu;text-align:center" d="M6.994 3c-1.258.014-2.179-.03-2.931.385a1.88 1.88 0 00-.838.998C3.06 4.82 3 5.343 3 6v12c0 .658.06 1.179.225 1.617.164.439.461.789.837.996.753.415 1.674.372 2.932.387h10.012c1.258-.015 2.179.03 2.931-.385a1.88 1.88 0 00.838-.998c.165-.438.225-.96.225-1.617V6c0-.025-.004-.044-.004-.068L18 9l-6 .195V5l1-1V3H6.998z" font-weight="400" font-size="15" font-family="Ubuntu" letter-spacing="0" word-spacing="0" text-anchor="middle" opacity=".7"/><path d="M11.982 4.027c-1.556.011-5.108-.011-6.658.04-.461.042-1.017.205-1.156.708-.219.636-.11 1.335-.147 1.983-.007 2.297-.023 9.595.022 11.885.04.462.203 1.013.7 1.164.632.225 1.283.122 1.935.154 1.424.007 4.851.011 6.277.012 1.705 0 3.409-.004 5.107-.018.512-.012 1.183.019 1.584-.406.422-.54.287-1.269.323-1.904.01-2.189.019-8.03-.014-11.063L18 7.805V5h-5v-.97c-.34 0-.678-.003-1.018-.003z" fill="#fff"/><path d="M6 10v1h5v-1zM8 13v1h5v-1z" fill="#232629"/><path d="M6 7v1h4V7zM12 10v1h2v-1zM6 13v1h1v-1z" fill="#c7162b"/><path d="M11 7v1h6V7zM15 10v1h3v-1z" fill="#232629"/><path d="M14 13v1h4v-1zM6 16v1h4v-1z" fill="#c7162b"/><path d="M11 16v1h7v-1z" fill="#232629"/><circle cy="19.5" cx="19.5" r="3.5" fill="#46a926"/><path style="line-height:normal;font-variant-ligatures:normal;font-variant-position:normal;font-variant-caps:normal;font-variant-numeric:normal;font-variant-alternates:normal;font-feature-settings:normal;text-indent:0;text-align:start;text-decoration-line:none;text-decoration-style:solid;text-decoration-color:#000;text-transform:none;text-orientation:mixed;white-space:normal;shape-padding:0;isolation:auto;mix-blend-mode:normal;solid-color:#000;solid-opacity:1;marker:none" d="M21.497 17.634l-2.705 2.7-1.289-1.287-.835.835L18.792 22l3.54-3.532z" color="#000" font-weight="400" font-family="sans-serif" overflow="visible" fill="#fff"/><path d="M23 3.5L19 1v2h-5v1h5v2z" fill="#e95420"/></svg>