<svg xmlns="http://www.w3.org/2000/svg" viewBox="0 0 24 24"><path style="color:#000;display:inline;overflow:visible;visibility:visible;fill:#aea795;fill-opacity:1;fill-rule:nonzero;stroke:none;stroke-width:1;marker:none;enable-background:accumulate" d="M6.833 3C3.357 3 2.983 3.309 3 6.323v11.354C2.983 20.69 3.357 21 6.833 21h10.334C20.643 21 21 20.691 21 17.677V6.323C21 3.31 20.643 3 17.167 3z"/><path style="display:inline;opacity:1;vector-effect:none;fill:#faf8f6;fill-opacity:1;stroke:none;stroke-width:1.15470052;stroke-linecap:round;stroke-linejoin:round;stroke-miterlimit:4;stroke-dasharray:none;stroke-dashoffset:0;stroke-opacity:1;enable-background:new" d="M12 3v3h-2v3h2v8h2v1h-2v3h1v-2h2v-3h-2V8h-2V7h2V3z"/><path style="display:inline;opacity:1;vector-effect:none;fill:#faf8f6;fill-opacity:1;stroke:none;stroke-width:1.15470052;stroke-linecap:round;stroke-linejoin:round;stroke-miterlimit:4;stroke-dasharray:none;stroke-dashoffset:0;stroke-opacity:1;enable-background:new" d="M3 13h3v2h3v-2h8v-2h1v2h3v-1h-2v-2h-3v2H8v2H7v-2H3z"/><path style="color:#000;display:inline;overflow:visible;visibility:visible;fill:#46a926;fill-opacity:1;fill-rule:nonzero;stroke:none;stroke-width:1;marker:none;enable-background:accumulate" d="M17 11v2h-4v3h2v3h-2v2h4.168C20.644 21 21 20.69 21 17.676V13h-3v-2z"/><path style="color:#000;display:inline;overflow:visible;visibility:visible;fill:#000;fill-opacity:1;fill-rule:nonzero;stroke:none;stroke-width:1;marker:none;enable-background:accumulate;opacity:.2" d="M6.834 3C3.358 3 2.983 3.31 3 6.324v11.352C2.983 20.69 3.358 21 6.834 21h10.332C20.642 21 21 20.69 21 17.676V6.324C21 3.31 20.642 3 17.166 3H6.834zM7 4h10c2.5 0 3 0 3 2v12c0 2-.5 2-3 2H7c-2.5 0-3 0-3-2V6c0-2 .5-2 3-2z"/><path d="M4 12h2v5h2l-3 5-3-5h2z" style="color:#000;overflow:visible;opacity:.7;fill:#020400;fill-opacity:1;stroke:#000;stroke-width:2;stroke-linecap:round;stroke-linejoin:round;stroke-miterlimit:4;stroke-dasharray:none;stroke-opacity:1;marker:none"/><path style="color:#000;overflow:visible;fill:#a6d74f;fill-opacity:1;stroke-width:.833333;marker:none" d="M4 12h2v5h2c-.392.832-1.833 3.244-3 5-1.167-1.756-2.608-4.168-3-5h2z"/><path style="color:#000;overflow:visible;opacity:1;fill:#6d6d6d;fill-opacity:1;stroke-width:.833333;marker:none" d="M0 23v1h10v-1z"/></svg>