<svg xmlns="http://www.w3.org/2000/svg" viewBox="0 0 24 24"><path style="opacity:.7;fill:#000;fill-opacity:1;fill-rule:evenodd;stroke:#000;stroke-width:2;stroke-linecap:round;stroke-linejoin:round;stroke-miterlimit:4;stroke-dasharray:none;stroke-opacity:1" d="m12.207 3.844-6.363 6.363 6.363 6.363c1.414 1.415 2.121.707 3.535-.707l2.121-2.12c1.414-1.415 2.122-2.122.707-3.536l-6.363-6.363zM4 7c-.554 0-1 .446-1 1v7c0 .554.446 1 1 1s1-.446 1-1v-4.258A1 1 0 0 1 5.137 9.5l2.5-2.5H4z"/><path style="opacity:1;fill:#fff;fill-opacity:1;fill-rule:evenodd;stroke:none;stroke-width:1;stroke-linecap:round;stroke-linejoin:round;stroke-miterlimit:4;stroke-dasharray:none;stroke-opacity:1" d="m5.843 10.207 6.364-6.364 6.364 6.364c1.414 1.414.707 2.121-.707 3.536l-2.121 2.121c-1.415 1.414-2.122 2.121-3.536.707z"/><circle style="opacity:.7;fill:#000;fill-opacity:1;fill-rule:evenodd;stroke:#000;stroke-width:2;stroke-linecap:round;stroke-linejoin:round;stroke-miterlimit:4;stroke-dasharray:none;stroke-opacity:1" cx="1.414" cy="14.849" r=".5" transform="rotate(-45)"/><circle style="opacity:1;fill:#fff;fill-opacity:1;fill-rule:evenodd;stroke:none;stroke-width:2;stroke-linecap:round;stroke-linejoin:round;stroke-miterlimit:4;stroke-dasharray:none;stroke-opacity:1" cx="1.414" cy="14.849" r=".5" transform="rotate(-45)"/><path style="opacity:1;fill:#6d6d6d;fill-opacity:1;fill-rule:evenodd;stroke:none;stroke-width:2;stroke-linecap:round;stroke-linejoin:round;stroke-miterlimit:4;stroke-dasharray:none;stroke-opacity:1" d="M14 0a3 3 0 0 0-3 3v5.543h1V3h.006c.059-1.121.934-1.998 1.994-2 1.061 0 1.937.878 1.996 2H16v3.395l1 1V3a3 3 0 0 0-3-3Z"/><path style="opacity:1;fill:#aee3f8;fill-opacity:1;fill-rule:evenodd;stroke:none;stroke-width:2;stroke-linecap:round;stroke-linejoin:round;stroke-miterlimit:4;stroke-dasharray:none;stroke-opacity:1" d="M4 7c-.554 0-1 .446-1 1v7c0 .554.446 1 1 1s1-.446 1-1v-4.258A1 1 0 0 1 5.137 9.5l2.5-2.5h-.414Z"/><path style="opacity:1;fill:#aee3f8;fill-opacity:1;fill-rule:evenodd;stroke:none;stroke-width:4;stroke-linecap:round;stroke-linejoin:round" d="M0 20h24v4H0z"/></svg>