<svg xmlns="http://www.w3.org/2000/svg" viewBox="0 0 24 24"><path style="fill:#000;stroke:#000;opacity:.7;stroke-width:2;stroke-miterlimit:4;stroke-dasharray:none;stroke-linejoin:round" fill="#232629" d="M12 4c-4.42.017-8 3.592-8 8 0 4.418 3.596 8 8.031 8 4.095 0 7.473-3.056 7.969-7-2.542-2.875-5.458-6.125-8-9zm-.688 1.031c.093-.01.188.006.282 0l.031.032 7.313 8.125A7.005 7.005 0 0 1 12.03 19C8.151 19 5 15.866 5 12c0-3.624 2.769-6.61 6.313-6.969z"/><path d="M12 4c-4.42.017-8 3.592-8 8 0 4.418 3.596 8 8.031 8 4.095 0 7.473-3.056 7.969-7-2.542-2.875-5.458-6.125-8-9zm-.688 1.031c.093-.01.188.006.282 0l.031.032 7.313 8.125A7.005 7.005 0 0 1 12.03 19C8.151 19 5 15.866 5 12c0-3.624 2.769-6.61 6.313-6.969z" fill="#232629" style="fill:#fff"/></svg>