<svg xmlns="http://www.w3.org/2000/svg" viewBox="0 0 24 24"><path d="M6.994 3c-1.258.014-2.179-.03-2.932.384a1.88 1.88 0 00-.837.999C3.06 4.82 3 5.343 3 6v12c0 .658.06 1.179.225 1.617.164.44.461.789.837.997.753.415 1.674.371 2.932.386h10.012c1.258-.014 2.179.03 2.932-.384a1.88 1.88 0 00.837-.999c.165-.438.225-.96.225-1.617V6c0-.658-.06-1.179-.225-1.617a1.875 1.875 0 00-.837-.997c-.753-.415-1.674-.371-2.932-.386H6.998z" style="line-height:125%;-inkscape-font-specification:Ubuntu;text-align:center" font-weight="400" font-size="15" font-family="Ubuntu" letter-spacing="0" word-spacing="0" text-anchor="middle" opacity=".7"/><path d="M11.983 4.027c-1.556.01-5.11-.012-6.66.039-.46.042-1.016.206-1.155.71-.219.635-.108 1.333-.146 1.982-.008 2.297-.023 9.596.022 11.885.039.462.202 1.013.699 1.164.632.225 1.284.123 1.936.154 1.424.007 4.85.011 6.276.012 1.704 0 3.408-.005 5.107-.019.512-.012 1.184.02 1.585-.405.421-.54.287-1.268.323-1.904.011-2.444.027-9.911-.022-12.357-.05-.402-.17-.863-.575-1.044-.669-.294-1.427-.168-2.126-.206a715.985 715.985 0 00-5.264-.011z" fill="#fff"/><circle cx="18" cy="18" r="5" fill="#aee3f8" fill-rule="evenodd"/><path d="M18 13a5 5 0 100 10 5 5 0 000-10zm0 .833c.144 0 .277.012.417.026h.103c.044.009.088.018.132.025.12.019.22.051.337.08.214.053.425.123.625.208.11.047.207.1.312.156v.025c.024.01.038.058.078.08.015.008.013.017.027.024.024.014.057.028.052.052-.007.033-.055.026-.079.051.004.048-.038.048-.05.08.007.021.047.028.05.052-.004.027-.06.024-.05.051.044.035.086.009.129 0 .093-.012.176-.008.234-.051-.008-.044.083-.038.078-.078.024.017.054.033.078.051-.009.008-.014.02-.024.024-.018.009-.038.017-.054.027l-.078.052c-.02.013-.058.078-.078.078-.024 0-.06-.03-.078-.025-.025.009-.023.042-.052.052-.055.02-.164-.03-.183.05.024.048.115.026.157.052a.259.259 0 01.078.105.493.493 0 010 .156c-.026.067-.104.052-.181.052h-.054c-.129-.009-.254-.066-.312.026.004.071.016.12 0 .181-.012.045-.08.093-.078.132 0 .02.048.05.053.078.004.015-.006.037 0 .051.022.041.065-.008.103 0 .037.009.078.062.078.103 0 .029-.006.077-.024.105-.037.055-.104.048-.157.078-.043.025-.052.089-.078.132-.027.046-.064.062-.053.13a.304.304 0 01-.157.155c-.022.01-.057.01-.078.025-.017.012-.028.054-.051.08-.03.033-.062.054-.078.079-.012.019-.015.051-.027.078-.018.035-.055.043-.078.078-.011.016-.013.056-.025.078-.026.048-.058.087-.053.13.004.04.05.04.053.077.003.02-.027.03-.027.052.001.031.025.055.027.08.006.062-.042.088-.053.13-.006.02.005.035 0 .051-.01.03-.05.068-.052.105 0 .026.05.041.052.078.001.024-.03.055-.025.078.01.045.095.095.13.13.047.047.108.081.129.131.017.043.021.125.054.157.024.023.071.027.102.051.03.022.048.027.078.051.051.04.13.136.21.13.043-.009.082-.044.13-.052.049-.008.106-.03.156-.026.038.008.09.029.13.026.041-.008.084-.009.131-.026.083-.036.217-.096.337-.079.092.014.092.116.156.157.074.008.125-.015.183 0 .045.01.101.07.105.105.005.035-.048.082-.053.105-.012.048.008.098 0 .129-.007.024-.026.054-.025.078 0 .022.03.077.052.105.027.035.071.065.105.103.06.07.086.142.129.234.01.023-.01.05 0 .08-.018.14-.065.236-.156.391-.044.05-.106.094-.105.156-.004.15.085.246.078.391-.015.195.015.208 0 .313.066.033.019.138 0 .207-.028.083-.062.101-.078.156.044.02.107.012.156 0l-.078.078c-.189.189-.403.37-.625.52a4.11 4.11 0 01-1.43.625 4.14 4.14 0 01-.887.079c-.159 0-.315-.007-.469-.025-.122-.014-.245-.027-.364-.051-.236-.048-.459-.148-.678-.234-.008-.015-.026-.037-.025-.054.044-.018.125.062.157 0 .015-.03-.021-.1 0-.13.015-.02.098-.018.129-.024.044-.008.107-.015.132-.027.027-.017.056-.078.051-.13-.002-.023-.032-.031-.051-.053-.016-.018.01-.034 0-.051-.02-.03-.07-.036-.078-.078.06-.012.147.05.234.027.04-.012.11-.091.13-.13.005-.011-.007-.039 0-.054s.024-.043.026-.05c.006-.023-.005-.01 0-.025.015-.043.051-.075.076-.105.02-.024.06-.054.078-.078.02-.026.014-.028.027-.052.012-.075-.045-.143-.027-.21.02-.075.138-.122.21-.156.025-.011.057-.017.078-.024.05-.018.11-.036.156-.052.079-.028.092-.084.13-.156.018-.033.048-.08.051-.105.004-.021-.004-.026 0-.051.004-.024-.006-.05 0-.078A.869.869 0 0018 19.85c0-.034-.026-.049-.027-.079-.006-.108.038-.097.078-.156.02-.029.04-.084.054-.105.067-.1.189-.134.18-.285-.003-.05-.04-.168-.077-.184-.021-.009-.048-.016-.079-.026-.098-.037-.183-.148-.285-.157h-.052c-.04 0-.086-.018-.131-.024-.029-.008-.086.008-.103 0-.026-.013-.033-.064-.054-.078-.016-.012-.052-.018-.078-.027-.04-.015-.055-.049-.102-.051-.015 0-.037.008-.054 0-.026-.009-.052-.012-.076-.027-.03-.019-.065-.026-.078-.051.028-.09-.06-.104-.078-.157-.008-.024.008-.08 0-.102-.01-.031-.044-.055-.078-.08a.314.314 0 00-.183-.079c-.039-.008-.084.008-.13 0a.297.297 0 01-.156-.078c-.035-.04-.047-.083-.078-.103-.03-.018-.058-.035-.078-.053-.01-.009-.019-.007-.027-.025-.015-.03-.045-.04-.027-.078-.033-.017-.015.03-.051.025-.033-.046-.056-.092-.13-.079-.033.009-.065.078-.104.079-.033 0-.063-.072-.105-.079-.033-.008-.08.031-.103.027-.036-.008-.046-.03-.078-.051-.024-.016-.065-.052-.078-.051-.042 0-.075.082-.132.051-.028-.036.06-.045.027-.078-.025-.024-.031.013-.051.024-.024.015-.053.018-.079.027-.057.022-.11.028-.156.051a.155.155 0 00-.078.079c-.02.035-.049.103-.078.105-.035 0-.047-.038-.078-.052-.096-.041-.155.023-.235.025-.073 0-.186-.114-.183-.183.003-.043.022-.104.027-.157.004-.041.05-.091.051-.13.001-.05-.096-.071-.129-.077-.078-.014-.172.035-.261 0-.017-.029.017-.05.027-.078.006-.015-.006-.035 0-.052.01-.026.065-.05.078-.078.009-.021-.01-.05 0-.078.01-.03.049-.056.051-.078.003-.028-.029-.062-.051-.08-.07.008-.116.009-.156.026-.09.041-.066.155-.157.183a.772.772 0 01-.105.025c-.015.008-.034 0-.051 0 .002-.009-.002-.016 0-.025.004-.019.02-.033.024-.05.06-.272.152-.534.262-.782h.027c.031.008.05.05.078.051.076.009.093-.072.156-.105.065.01.097-.008.156 0 .04.009.098.048.13.051.026 0 .026-.027.05-.024.026.008.075.048.079.078.004.038-.035.088-.024.13.039.04.124.054.18.078.037-.031.006-.086 0-.13 0-.019.003-.06 0-.078-.004-.03-.024-.052-.024-.078 0-.12.1-.163.18-.21.035-.02.075-.063.105-.078.043-.02.07-.007.105-.024.064-.036.108-.092.157-.132.022-.054-.003-.128 0-.181.022-.014.054 0 .078 0 .038-.008.056-.056.078-.078.012-.013.036-.014.051-.027.039-.03.045-.065.078-.078a.207.207 0 01.052-.027c.025-.008.065-.01.105-.024.025-.01.095-.016.105-.027.012-.013-.004-.06 0-.078.02-.094.15-.098.234-.13.058-.021.116-.09.18-.078-.012.045-.061.049-.05.103.013.076.102-.014.129-.025.05-.021.143-.053.21-.078.058-.02.157-.037.102-.105-.046-.008-.062.036-.102.051-.028.009-.03-.021-.054-.024-.023 0-.029.029-.051.024-.023-.008-.048-.05-.052-.078-.009-.07.05-.077.079-.13-.02-.062-.103-.026-.157-.05a.097.097 0 01.078-.08.305.305 0 01.157.026c.012.01-.02.035 0 .051.021.02.05.009.078 0 .01-.047-.062-.02-.054-.051.057-.037.165-.018.234-.027a.58.58 0 00.132-.051c.034-.02.043-.056.078-.025.01.035-.007.06-.026.079-.065.056-.134.114-.184.18.031.03.08.021.132.027.02.008.058 0 .078 0 .025.008.056-.008.076 0 .035.008.043.078.078.078.057 0 .033-.067 0-.105.01-.039.041-.075.027-.102-.026-.052-.124.015-.13-.052-.003-.041.037-.046.052-.078-.007-.08.06-.083.051-.156-.004-.03-.03-.025-.051-.054-.01-.015-.014-.066-.027-.078-.043-.036-.124-.008-.13-.078-.002-.042.007-.085 0-.13-.005-.042-.04-.174-.077-.182-.047-.01-.074.079-.13.105a.319.319 0 01-.132.024c-.02-.008-.048-.012-.05-.051-.004-.035.037-.051.05-.078.004-.009-.001-.016 0-.025.06-.017.122-.04.184-.054l.104-.024c.025-.008.054.008.079 0 .11-.02.222-.04.337-.051.138-.014.274-.027.417-.027zm-1.692.39c-.026.152-.17.214-.34.21-.038.037-.005.106-.026.156-.018.043-.087.082-.13.078-.03 0-.078-.048-.078-.078 0-.035.058-.037.027-.078.002-.008.016-.018.025-.027.016-.01.036-.016.053-.026.151-.093.306-.162.47-.235zm3.489.156c-.015.009-.013.019-.027.027-.032.02-.054.043-.078.052-.034.012-.073.02-.078.05-.004.027.028.029.027.052-.013.03-.02.043-.027.08.042.07.13-.015.183-.026.023-.009.039-.01.051-.027.014-.023.016-.047.027-.078.012-.035.055-.048.051-.078-.003-.031-.078-.056-.13-.052zm-4.558.523c.04.032.096.1.027.13a.422.422 0 01-.13.026c-.008 0-.02-.02-.027-.027.043-.041.085-.09.13-.13zm.156.156c.02 0 .03.05.054.051.022 0 .038-.03.051-.026.035.009.06.079.027.105-.028.008-.034-.03-.054-.027-.057.01-.087.135-.13.131-.04-.008-.067-.102-.026-.131 0-.025-.002-.026 0-.052.012-.015.045-.053.078-.05zm-.208.025c.012 0 .023-.009.027 0-.006.044-.02.057-.053.078-.06.035-.11.08-.13.156-.006.022-.076.083-.105.078-.066-.014.039-.137.054-.156.017-.021.032-.028.051-.052.02-.023.033-.064.052-.078a.208.208 0 01.105-.024zm5.652.131c.066-.008.1.063.13.103a.525.525 0 00.13.105c.022.012.051.04.077.051.054.024.154.103.157.156 0 .027-.03.054-.025.079.041.008.077-.062.078-.103.077.108.142.221.208.337.031.054.076.1.105.156-.037.011-.048.016-.054.051-.008.047.019.124-.051.132-.044.009-.096-.037-.157-.051-.025-.008-.058.008-.078 0-.045-.015-.039-.078-.078-.105a.393.393 0 00-.13-.051c-.022 0-.03.008-.053 0-.028-.009-.08.011-.102 0a.268.268 0 01-.079-.078c-.009-.031.077-.052.079-.079.001-.02-.023-.05-.027-.08-.004-.018.004-.039 0-.051-.006-.022-.044-.024-.078-.025h-.313c-.072.009-.126-.008-.183 0-.04 0-.118.035-.156.052-.02.009-.027.011-.052.024a.361.361 0 01-.05.027c-.024.01-.057.044-.079.051-.032.008-.073-.008-.132 0-.042 0-.101-.027-.102-.078-.001-.078.134-.037.207-.051.028-.009.045-.032.078-.052.016-.009.012-.016.027-.026.025-.018.074-.059.078-.079.004-.018-.002-.037 0-.05.004-.018.03-.029.052-.052.035-.035.061-.083.105-.105.029-.015.064-.028.078-.051.003-.027-.001-.027 0-.052a.11.11 0 01.051-.027c.045-.01.077 0 .13 0 .022 0 .053.011.078 0 .02-.013.033-.042.053-.05a.208.208 0 01.078-.028zm.47.494h-.106c-.037 0-.083-.02-.105 0 .031.05.087.065.156.078a.161.161 0 00.054-.078zm-5.704-.47h.078c.02 0 .043-.008.051 0-.013.056-.14.048-.183.028.003-.021.027-.024.054-.027zm-.183.106c-.037.026-.072.06-.13.078-.031.01-.072.008-.078-.027-.006-.043.05-.02.078-.024.037-.009.087-.026.13-.027zm5.417 0c-.027.009-.04.07 0 .078.02-.012.03-.042.025-.078-.011-.012-.016-.009-.025 0zm-.053.13c0 .046.009.09 0 .131.026.052.091.008.105-.027.015-.087-.012-.116-.052-.105-.013.009-.04-.01-.053 0zm-6.9 1.952c.047.043.073.104.13.132.02.011.051.018.078.025.021.008.03-.009.051 0 .044.015.097.035.132.05.053.024.11.106.156.133.003.026-.008.058 0 .078.022.029.043.058.078.078.043.023.063.06.103.078.014.008.032-.008.053 0 .055.017.082.092.13.078.03-.009.022-.048.027-.078.02-.023.045-.051.078-.051.052 0 .059.079.078.13.01.027.044.047.051.077a.784.784 0 010 .235c-.013.038-.073.035-.105.078-.015.02-.013.064-.024.078-.02.024-.039.031-.054.054-.008.012-.017.034-.024.05-.025.054-.075.093-.054.157.008.026.054.047.054.078 0 .037-.073.065-.078.105-.004.03.015.064.024.103.007.029.06.059.078.078.03.032.052.09.078.132.053.08.08.18.132.259.028.04.084.061.103.104.009.022-.009.059 0 .079.03.067.167.15.234.183.032.016.076.007.105.024a.572.572 0 01.156.132c.02.035.017.125.027.18.013.074-.003.131 0 .21.003.044.025.06.025.103v.078c-.001.052.004.104 0 .157a.496.496 0 000 .078c.002.025.025.03.026.053.002.025-.029.06-.026.078.005.053.043.081.053.13a.8.8 0 01.025.183c-.004.024-.021.05-.025.078-.002.022.004.032 0 .051-.002.02.005.036 0 .052l-.078-.052a4.336 4.336 0 01-.625-.52l-.078-.08a4.327 4.327 0 01-.417-.52c-.012-.017-.016-.036-.027-.051a4.008 4.008 0 01-.364-.677c-.008-.017-.02-.036-.027-.053a4.171 4.171 0 01-.207-.677c-.01-.044-.02-.085-.027-.13a4.177 4.177 0 01-.078-.756c0-.198.027-.383.053-.574z" opacity=".7"/></svg>