<svg xmlns="http://www.w3.org/2000/svg" viewBox="0 0 24 24"><path d="M2 6v12c0 1.662 1.338 3 3 3h14c1.662 0 3-1.338 3-3V6z" opacity=".7" fill-rule="evenodd" stroke="#000" stroke-width="2" stroke-linejoin="round"/><path fill="#6d6d6d" fill-rule="evenodd" d="M0 3h24v3H0z"/><path d="M2 6v12c0 1.662 1.338 3 3 3h14c1.662 0 3-1.338 3-3V6z" fill="#fff" fill-rule="evenodd"/><path fill="#1a7fd4" fill-rule="evenodd" d="M4 9h5v2H4z"/><path fill="#c7162b" fill-rule="evenodd" d="M4 12h5v2H4z"/><path fill="#46a926" fill-rule="evenodd" d="M4 15h5v2H4zM20 13.5a4.5 4.5 0 01-2.778 4.157 4.5 4.5 0 01-4.904-.975 4.5 4.5 0 01-.975-4.904A4.5 4.5 0 0115.5 9v4.5z"/><path d="M15.5 9a4.5 4.5 0 014.5 4.5h-4.5z" fill="#c7162b" fill-rule="evenodd"/><circle r="3.889" cy="19" cx="19" opacity=".7" fill-rule="evenodd" stroke="#000" stroke-width="2.222" stroke-linejoin="round"/><circle cx="19" cy="19" r="4" fill="#fff" fill-rule="evenodd"/><path fill="#c7162b" fill-rule="evenodd" d="M18 17h1v3h-1z"/><path fill="#232629" fill-rule="evenodd" d="M18 19h3v1h-3z"/></svg>