<svg xmlns="http://www.w3.org/2000/svg" viewBox="0 0 24 24"><path fill="#fff" fill-rule="evenodd" d="M4 8h3v11H4z"/><path fill="#a6d74f" fill-rule="evenodd" d="M4 4h15v3H4z"/><path d="M3 5v13c0 2 1 2 3 2h2V8h12V5c0-2-1-2-3-2H6C4 3 3 3 3 5zm1 0c0-1 1-1 2-1h1v3H4zm4-1h3v3H8zm4 0h3v3h-3zm4 0h1c1 0 2 0 2 1v2h-3zM4 8h3v3H4zm0 4h3v3H4zm0 4h3v3H6c-1 0-2 0-2-1z" fill="#6d6d6d" fill-rule="evenodd"/><circle cy="16.5" cx="16.5" r="3.5" fill="#c7162b"/><path overflow="visible" font-weight="400" style="line-height:normal;text-indent:0;text-align:start;text-decoration-line:none;text-decoration-style:solid;text-decoration-color:#000;text-transform:none;white-space:normal;isolation:auto;mix-blend-mode:normal;marker:none" d="M17.914 14.379L16.5 15.793l-1.414-1.414-.707.707 1.414 1.414-1.414 1.414.707.707 1.414-1.414 1.414 1.414.707-.707-1.414-1.414 1.414-1.414z" color="#000" font-family="sans-serif" fill="#fff"/></svg>