<svg xmlns="http://www.w3.org/2000/svg" viewBox="0 0 24 24"><path fill="#fff" d="M4 4h16v16H4z"/><path d="M6 3C4 3 3 3 3 5v14c0 2 1 2 3 2h12c2 0 3 0 3-2V5c0-2-1-2-3-2zM4 8h5v2H4zm6 0h4v2h-4zm5 0h5v2h-5zM4 11h5v2H4zm6 0h4v2h-4zm5 0h5v2h-5zM4 14h5v2H4zm6 0h4v2h-4zm5 0h5v2h-5zM4 17h5v3H6c-1 0-2 0-2-1zm6 0h4v3h-4zm5 0h5v2c0 1-1 1-2 1h-3z" fill="#6d6d6d"/><g stroke-width="27.2"><path d="M17.567 20.553L13.267 24l.836-5.447.264-.456 3.464 2z" fill="#fec589"/><path style="marker:none" d="M13.472 22.696L13.268 24l1.027-.829c-.004.008-.823-.475-.823-.475z" color="#000" overflow="visible" fill="#5d5d5d"/><path d="M14.103 18.553s3.465 2.088 3.464 2L24 9.412l-3.464-2z" fill="#2f5fdd"/></g></svg>