<svg xmlns="http://www.w3.org/2000/svg" xmlns:xlink="http://www.w3.org/1999/xlink" viewBox="0 0 24 24"><defs><linearGradient xlink:href="#a" id="b" x1="13.152" y1="6.471" x2="9.848" y2="15.529" gradientUnits="userSpaceOnUse" gradientTransform="translate(6 7)"/><linearGradient id="a"><stop style="stop-color:#151515;stop-opacity:1" offset="0"/><stop style="stop-color:#4d4d4d;stop-opacity:1" offset="1"/></linearGradient></defs><path d="M6 4 5 5v1.305l5 7.062v3.673L13.99 20H14v-6.633l5-7.062V5l-1-1z" style="opacity:.7;fill:#000;stroke:#000;stroke-width:2;stroke-linejoin:round;stroke-miterlimit:4;stroke-dasharray:none"/><path style="fill:#fff" d="M6 4 5 5v1.305l5 7.062v3.673L13.99 20H14v-6.633l5-7.062V5l-1-1z"/><path style="opacity:1;fill:#000;fill-opacity:1;fill-rule:evenodd;stroke:#fff;stroke-width:2;stroke-linejoin:round" d="M19.152 13.47 18.197 15H13v2h3.947l-1.25 2H13v2h1.447l-.295.47 1.696 1.06.955-1.53H22v-2h-3.947l1.25-2H22v-2h-1.447l.295-.47z"/><path style="opacity:1;fill:url(#b);fill-opacity:1;fill-rule:evenodd;stroke:none;stroke-width:2;stroke-linejoin:round" d="M19.152 13.47 18.197 15H13v2h3.947l-1.25 2H13v2h1.447l-.295.47 1.696 1.06.955-1.53H22v-2h-3.947l1.25-2H22v-2h-1.447l.295-.47z"/></svg>