<svg xmlns="http://www.w3.org/2000/svg" viewBox="0 0 24 24"><path d="M18.005 7.973c1.259.014 2.18-.03 2.932.385.376.207.673.559.838.998.165.438.225 2.274.225 1.617v6c0 .658-.06 1.179-.225 1.618a1.875 1.875 0 0 1-.838.996c-.753.415-1.674.371-2.932.386h-8.01c-1.259-.014-2.18.031-2.932-.384a1.88 1.88 0 0 1-.838-.998C6.061 18.15 6 17.63 6 16.973v-6c0-.658.06-1.179.225-1.617.165-.439.462-.789.838-.996.753-.416 1.674-.372 2.932-.387H18.002z" style="font-style:normal;font-variant:normal;font-weight:400;font-stretch:normal;font-size:15px;line-height:125%;font-family:Ubuntu;-inkscape-font-specification:Ubuntu;text-align:center;letter-spacing:0;word-spacing:0;writing-mode:lr-tb;text-anchor:middle;display:inline;opacity:.7;fill:#000;fill-opacity:1;stroke:none;stroke-width:.99980211"/><path d="M17.016 9c1.557.01 1.11-.012 2.66.039.461.042 1.016.206 1.155.71.22.635.109 1.334.146 1.982.008 2.297.023 3.596-.021 5.885-.04.462-.203 1.013-.699 1.164-.632.225-1.284.123-1.936.154-1.424.007-.85.011-2.276.012-1.705 0-5.408-.005-7.107-.019-.512-.012-1.183.02-1.584-.405-.421-.54-.287-1.268-.323-1.904-.012-2.444-.028-3.91.022-6.357.05-.402.17-.863.575-1.044.668-.294 1.426-.168 2.126-.206C11.508 9 15.262 9 17.016 9z" style="opacity:1;vector-effect:none;fill:#fff;fill-opacity:1;stroke:none;stroke-width:1;stroke-linecap:round;stroke-linejoin:bevel;stroke-miterlimit:4;stroke-dasharray:none;stroke-dashoffset:0;stroke-opacity:1"/><path style="font-style:normal;font-variant:normal;font-weight:400;font-stretch:normal;font-size:15px;line-height:125%;font-family:Ubuntu;-inkscape-font-specification:Ubuntu;text-align:center;letter-spacing:0;word-spacing:0;writing-mode:lr-tb;text-anchor:middle;display:inline;opacity:.7;fill:#000;fill-opacity:1;stroke:none;stroke-width:.99980211" d="M13.99 3.973c1.257.014 2.178-.03 2.93.385.377.207.674.559.839.998.164.438.224 2.274.224 1.617v6c0 .658-.06 1.179-.224 1.618a1.875 1.875 0 0 1-.838.996c-.753.415-1.674.371-2.932.386H5.978c-1.258-.014-2.178.031-2.931-.384a1.88 1.88 0 0 1-.838-.998c-.165-.44-.225-.96-.225-1.618v-6c0-.658.06-1.179.225-1.617.165-.439.461-.789.838-.996.753-.416 1.673-.372 2.932-.387h8.006z"/><path style="opacity:1;vector-effect:none;fill:#fff;fill-opacity:1;stroke:none;stroke-width:1;stroke-linecap:round;stroke-linejoin:bevel;stroke-miterlimit:4;stroke-dasharray:none;stroke-dashoffset:0;stroke-opacity:1" d="M13 5c1.557.01 1.11-.012 2.66.039.461.042 1.016.206 1.155.71.22.635.109 1.334.146 1.982.008 2.297.023 3.596-.021 5.885-.04.462-.203 1.013-.7 1.164-.632.225-1.283.123-1.935.154-1.424.007-.85.011-2.277.012-1.704 0-5.407-.005-7.106-.019-.512-.012-1.183.02-1.585-.405-.42-.54-.287-1.268-.322-1.904-.012-2.444-.028-3.91.022-6.357.049-.402.17-.863.575-1.044.668-.294 1.426-.168 2.126-.206C7.492 5 11.246 5 13 5Z"/></svg>