<svg xmlns="http://www.w3.org/2000/svg" viewBox="0 0 24 24"><path style="opacity:.7;fill:#000;stroke:#000;stroke-width:2;stroke-linejoin:round;stroke-miterlimit:4;stroke-dasharray:none" d="M20 13v-1H4v1z"/><path d="M20 13v-1H4v1z" style="fill:#fff"/><path style="opacity:.7;fill:#000;fill-opacity:1;stroke:#000;stroke-width:2;stroke-linejoin:round;stroke-miterlimit:4;stroke-dasharray:none;stroke-opacity:1" d="m8 21 3-4H9v-7c0-1.657 1.567-3 3.5-3S16 8.343 16 10v1h2v-1c0-2.761-2.462-5-5.5-5S7 7.24 7 10v7H5z"/><path style="opacity:1;fill:#e97cc8;fill-opacity:1;stroke:none;stroke-width:2;stroke-linejoin:round;stroke-miterlimit:4;stroke-dasharray:none;stroke-opacity:1" d="M18 11v-1c0-2.761-2.462-5-5.5-5S7 7.24 7 10h2c0-1.657 1.567-3 3.5-3S16 8.343 16 10v1z"/><path style="fill:#e97cc8;fill-opacity:1;stroke:none;stroke-width:1px;stroke-linecap:butt;stroke-linejoin:miter;stroke-opacity:1" d="m8 21 3-4H9v-7H7v7H5z"/></svg>