<svg viewBox="0 0 24 24" xmlns="http://www.w3.org/2000/svg"><path d="m11 4-6 6h10v9l6-6V4z" fill="#b3b3b3"/><path d="M10.281 4s-.276.284-.281.281L4.281 10 4 10.293V20h10.688l.312-.313L20.688 14l.312-.313V4h-9.312zm.406 1H19.282l-5 5H5.687zM20 5.688v7.593l-5 5v-7.593zM5 11h9v8H5z" style="fill:#1463a5;fill-opacity:1"/><path d="m11 10 2-2h2l-1-2-5 2h2l-2 2z" style="fill:#fff;fill-opacity:1;stroke:#fff;opacity:1;stroke-width:2;stroke-miterlimit:4;stroke-dasharray:none;stroke-linejoin:round"/><path style="fill:#e95420;fill-opacity:1" d="m11 10 2-2h2l-1-2-5 2h2l-2 2z"/><path style="opacity:1;fill:#fff;fill-opacity:1;stroke:none;stroke-width:2;stroke-linejoin:round;stroke-miterlimit:4;stroke-dasharray:none;stroke-opacity:1" d="M5 11h9v8H5z"/></svg>