<svg xmlns="http://www.w3.org/2000/svg" viewBox="0 0 24 24"><path style="opacity:1;fill:#fff;fill-opacity:1;stroke:none;stroke-width:2;stroke-linecap:round;stroke-linejoin:round;stroke-miterlimit:4;stroke-dasharray:none;stroke-opacity:1" d="M4 4h16v16H4z"/><path d="M6 3C4 3 3 3 3 5v14c0 2 1 2 3 2h12c2 0 3 0 3-2V5c0-2-1-2-3-2zM4 5c0-1 1-1 2-1h3v3H4zm6-1h4v3h-4V5zm5 0h3c1 0 2 0 2 1v2h-5V5zM4 8h5v2H4zm6 0h4v2h-4zm5 0h5v2h-5zM4 11h5v2H4zm6 0h4v2h-4zm5 0h5v2h-5zM4 14h5v2H4zm6 0h4v2h-4zm5 0h5v2h-5zM4 17h5v3H6c-1 0-2 0-2-1zm6 0h4v3h-4zm5 0h5v2c0 1-1 1-2 1h-3z" style="opacity:1;fill:#6d6d6d;fill-opacity:1;stroke-width:.999999"/><path style="opacity:.299;fill:#2f5fdd;fill-opacity:1;fill-rule:evenodd;stroke-width:4;stroke-linecap:round;stroke-linejoin:round" d="M4 4h16v3H9v13H4z"/><path style="opacity:1;fill:#2f5fdd;fill-opacity:1;stroke-width:.999999" d="M6 3C4 3 3 3 3 5v14c0 2 1 2 3 2h4V8h11V5c0-2-1-2-3-2H6zm0 1h3v3H4V5c0-1 1-1 2-1zm4 0h4v3h-4V4zm5 0h3c1 0 2 0 2 1v2h-5V4zM4 8h5v2H4V8zm0 3h5v2H4v-2zm0 3h5v2H4v-2zm0 3h5v3H6c-1 0-2 0-2-1v-2z"/></svg>