<svg xmlns="http://www.w3.org/2000/svg" viewBox="0 0 24 24"><path style="fill:#fff;fill-opacity:1;stroke:#fff;stroke-width:2;stroke-miterlimit:4;stroke-dasharray:none;stroke-linejoin:round" fill="#77216F" d="M12 4c-.973 3.405-3.354 6.332-4.404 8.676A4.958 4.958 0 0 0 7 15c0 2.77 2.23 5 5 5s5-2.23 5-5c0-.845-.228-1.627-.596-2.324C15.354 10.332 12.973 7.405 12 4zm2.283 7.717A3.984 3.984 0 0 1 16 15c0 2.216-1.784 4-4 4a3.984 3.984 0 0 1-3.283-1.717c.647.45 1.432.717 2.283.717 2.216 0 4-1.784 4-4 0-.851-.267-1.636-.717-2.283z"/><path d="M12 4c-.973 3.405-3.354 6.332-4.404 8.676A4.958 4.958 0 0 0 7 15c0 2.77 2.23 5 5 5s5-2.23 5-5c0-.845-.228-1.627-.596-2.324C15.354 10.332 12.973 7.405 12 4zm2.283 7.717A3.984 3.984 0 0 1 16 15c0 2.216-1.784 4-4 4a3.984 3.984 0 0 1-3.283-1.717c.647.45 1.432.717 2.283.717 2.216 0 4-1.784 4-4 0-.851-.267-1.636-.717-2.283z" fill="#77216F" style="fill:#1a7fd4;fill-opacity:1"/></svg>