<svg xmlns="http://www.w3.org/2000/svg" viewBox="0 0 24 24"><path style="line-height:125%;-inkscape-font-specification:Ubuntu;text-align:center" d="M6.002 3c-1.258.014-2.179-.03-2.932.385a1.88 1.88 0 00-.838.998c-.164.438-.224.96-.224 1.617v12c0 .658.06 1.179.224 1.617.165.439.462.789.838.996.753.415 1.674.372 2.932.387h8.105a1.313 1.313 0 01.083-1.036c-.765-2.816-.647-4.983.81-5.964 1.124-.757 3.045-.809 5.972.093.036.012.07.025.106.04h.002l.912.379V6c0-.658-.06-1.179-.224-1.617a1.875 1.875 0 00-.838-.996c-.753-.415-1.674-.372-2.932-.387H6.006z" font-weight="400" font-size="15" font-family="Ubuntu" letter-spacing="0" word-spacing="0" text-anchor="middle" opacity=".7"/><path d="M8.977 4.027c-1.557.011-3.11-.011-4.66.04-.462.042-1.016.205-1.155.708-.219.636-.109 1.335-.146 1.983-.008 2.297-.023 9.597.021 11.887.04.461.203 1.01.7 1.162.632.225 1.283.122 1.935.154 1.424.007 4.851.011 6.277.012.54 0 1.436-.005 2.248-.006.083-.16.182-.314.31-.451-.401-.429-.628-.99-.386-1.577l.461-1.113a1 1 0 000-.002c.243-.586.8-.822 1.387-.842.018-.585.253-1.136.844-1.38l1.117-.463c.59-.245 1.146-.02 1.572.38.136-.127.218-.32.387-.39a1.54 1.54 0 011.08-.03c.008-2.981.01-6.913-.028-8.81-.049-.402-.169-.863-.574-1.045-.668-.294-1.427-.167-2.127-.205-1.754-.012-7.509-.013-9.263-.012zm10.462 15.338c-.062.026-.113.15-.087.211.025.06.152.113.212.088.063-.026.114-.15.088-.21-.025-.061-.152-.114-.213-.089z" fill="#d85eca"/><path d="M16.491 7a1.5 1.5 0 100 3 1.5 1.5 0 000-3zM9.492 10.5l-3.5 6.5h8.518l.072-.174a1 1 0 000-.002c.173-.417.51-.65.898-.762L12.992 11.5l-1.5 2-2-3z" style="marker:none" color="#000" overflow="visible" fill="#fff"/><circle cx="19.5" cy="19.5" r="1.5" fill="#fff" fill-rule="evenodd"/><g transform="translate(8 8)"><circle cx="11.5" cy="11.5" r="1.5" fill="#fff" fill-rule="evenodd"/><path d="M9.311 7.792a.244.244 0 00-.135.325l.273.657c-.26.195-.472.424-.662.678l-.674-.279a.248.248 0 00-.329.136l-.462 1.115a.248.248 0 00.137.329l.673.279a3.312 3.312 0 00-.011.948l-.657.272a.244.244 0 00-.135.325l.463 1.117c.054.13.194.189.325.135l.657-.272c.195.26.424.471.678.662l-.279.673a.248.248 0 00.136.329l1.115.462a.248.248 0 00.329-.136l.279-.674c.314.045.626.057.948.012l.272.657c.054.13.195.188.325.134l1.117-.462a.244.244 0 00.135-.326l-.272-.657c.26-.195.471-.424.662-.678l.673.28a.248.248 0 00.329-.137l.462-1.115a.248.248 0 00-.136-.329l-.674-.279c.045-.314.057-.625.012-.947l.657-.273a.244.244 0 00.134-.325l-.462-1.117a.244.244 0 00-.326-.135l-.657.273a3.312 3.312 0 00-.678-.662l.28-.674a.248.248 0 00-.137-.329l-1.115-.462a.248.248 0 00-.329.137l-.279.673a3.312 3.312 0 00-.947-.011l-.273-.657a.244.244 0 00-.325-.135zm1.756 2.66a1.138 1.138 0 11.87 2.103 1.138 1.138 0 01-.87-2.104z" display="block" fill="#d3d3d3" stroke="#4d4d4d" stroke-linejoin="round" stroke-width=".6"/></g></svg>