<svg version="1.1" viewBox="0 0 24 24" xmlns="http://www.w3.org/2000/svg"><g><g fill="#6d6d6d"><path d="m8 8h2v2h-2z"/><path d="m6 18h2v2h-2z"/><path d="m2 2h2v2h-2z"/><path d="m6 4h2v2h-2z"/><path d="m2 8h2v2h-2z"/><path d="m6 12h2v2h-2z"/><path d="m2 16h2v2h-2z"/><path d="m10 2h2v2h-2z"/><path d="m19 2h2v2h-2z"/><path d="m19 10h2v2h-2z"/><path d="m12 11h2v2h-2z"/><path d="m13 20h2v2h-2z"/><path d="m15 6h2v2h-2z"/><path d="m10 16h2v2h-2z"/><path d="m16 14h2v2h-2z"/></g><circle cx="19.5" cy="19.5" r="3.5" fill="#c7162b"/><path d="m20.914 17.379-1.4142 1.4142-1.4142-1.4142-0.70711 0.70711 1.4142 1.4142-1.4142 1.4142 0.70711 0.70711 1.4142-1.4142 1.4142 1.4142 0.70711-0.70711-1.4142-1.4142 1.4142-1.4142z" color="#000000" fill="#fff" font-weight="400" overflow="visible" style="isolation:auto;mix-blend-mode:normal;text-decoration-color:#000000;text-decoration-line:none;text-decoration-style:solid;text-indent:0;text-transform:none;white-space:normal"/></g></svg>
