<svg xmlns="http://www.w3.org/2000/svg" viewBox="0 0 24 24"><path fill="#e95420" d="M6 3h1v18H6z"/><path fill="#e95420" d="M21 17v1H3v-1z"/><path d="M17.951 13A2 2 0 0016 15v2h-1v4h6v-4h-1v-2a2 2 0 00-2-2 2 2 0 00-.049 0zM18 14a1 1 0 011 1v2h-2v-2a1 1 0 011-1z" opacity=".7" fill-rule="evenodd" stroke="#000" stroke-width="2" stroke-linecap="round" stroke-linejoin="round"/><path d="M17.951 13A2 2 0 0016 15v2h-1v4h6v-4h-1v-2a2 2 0 00-2-2 2 2 0 00-.049 0zM18 14a1 1 0 011 1v2h-2v-2a1 1 0 011-1z" fill="#fee581" fill-rule="evenodd"/></svg>