<svg xmlns="http://www.w3.org/2000/svg" viewBox="0 0 24 24"><path d="M6.994 14c-1.258.014-2.179-.03-2.932.385a1.88 1.88 0 00-.837.998C3.06 15.82 3 16.343 3 17v12c0 .658.06 1.179.225 1.618.164.438.461.788.837.996.753.415 1.674.371 2.932.386h10.012c1.258-.014 2.179.031 2.932-.384a1.88 1.88 0 00.837-.998c.165-.439.225-.96.225-1.618V17c0-.658-.06-1.179-.225-1.617a1.875 1.875 0 00-.837-.996c-.753-.416-1.674-.372-2.932-.387H6.998z" style="line-height:125%;-inkscape-font-specification:Ubuntu;text-align:center" font-weight="400" font-size="15" font-family="Ubuntu" letter-spacing="0" word-spacing="0" text-anchor="middle" opacity=".7"/><path d="M11.983 15.027c-1.556.01-5.11-.012-6.66.039-.46.042-1.016.206-1.155.71-.219.635-.108 1.334-.146 1.982-.008 2.297-.023 9.596.022 11.885.039.462.202 1.013.699 1.164.632.225 1.284.123 1.936.154 1.424.007 4.85.011 6.276.012 1.704 0 3.408-.005 5.107-.019.512-.012 1.184.02 1.585-.405.421-.54.287-1.268.323-1.904.011-2.444.027-9.91-.022-12.357-.05-.402-.17-.862-.575-1.044-.669-.294-1.427-.168-2.126-.206a716.385 716.385 0 00-5.264-.011z" fill="#fff"/><path style="line-height:125%;-inkscape-font-specification:Ubuntu;text-align:center" d="M6.994-8c-1.258.014-2.179-.031-2.932.384a1.88 1.88 0 00-.837.998C3.06-6.179 3-5.658 3-5V7c0 .658.06 1.179.225 1.617.164.439.461.789.837.996.753.416 1.674.372 2.932.387h10.012c1.258-.014 2.179.03 2.932-.385a1.88 1.88 0 00.837-.998C20.94 8.18 21 7.657 21 7V-5c0-.658-.06-1.179-.225-1.618a1.875 1.875 0 00-.837-.996c-.753-.415-1.674-.371-2.932-.386H6.998z" font-weight="400" font-size="15" font-family="Ubuntu" letter-spacing="0" word-spacing="0" text-anchor="middle" opacity=".7"/><path d="M11.983-6.973c-1.556.01-5.11-.012-6.66.039-.46.042-1.016.206-1.155.71-.219.635-.108 1.333-.146 1.981C4.014-1.945 4 5.354 4.044 7.643c.039.462.202 1.013.699 1.164.632.225 1.284.123 1.936.154 1.424.007 4.85.011 6.276.011 1.704 0 3.408-.005 5.107-.018.512-.012 1.184.02 1.585-.405.421-.54.287-1.268.323-1.904.011-2.444.027-9.911-.022-12.357-.05-.402-.17-.863-.575-1.044-.669-.294-1.427-.168-2.126-.206a716.385 716.385 0 00-5.264-.011z" fill="#fff"/><path d="M11.983 15.027L15 19H9zM11.983 8.973L15 5H9z" fill="#e95420"/></svg>