<svg xmlns="http://www.w3.org/2000/svg" viewBox="0 0 24 24"><path d="M6.003 3c-1.259.015-2.18-.03-2.932.385-.376.207-.673.56-.838.998-.165.438-.224.96-.224 1.617v12c0 .658.06 1.179.224 1.617.165.439.462.789.838.996.753.415 1.674.372 2.932.387H17.997c1.258-.015 2.18.03 2.932-.385a1.88 1.88 0 00.838-.998c.164-.438.224-.96.224-1.617V6c0-.658-.06-1.179-.224-1.617a1.875 1.875 0 00-.838-.996c-.753-.415-1.674-.372-2.932-.387H6.006z" style="line-height:125%;-inkscape-font-specification:Ubuntu;text-align:center" font-weight="400" font-size="15" font-family="Ubuntu" letter-spacing="0" word-spacing="0" text-anchor="middle" opacity=".7"/><path d="M8.977 4.027c-1.556.012-3.11-.011-4.66.04-.46.042-1.016.206-1.155.71-.219.635-.108 1.333-.146 1.981-.008 2.297-.023 9.597.022 11.886.039.462.202 1.013.699 1.164.632.225 1.284.122 1.936.154 1.424.007 4.85.011 6.276.011 1.705 0 5.408-.004 7.107-.019.512-.011 1.184.02 1.585-.405.421-.54.287-2.268.323-2.904.011-2.444.027-8.91-.022-11.356-.05-.403-.17-.863-.575-1.045-.669-.294-1.427-.168-2.126-.206-1.755-.01-7.51-.01-9.264-.01z" fill="#a6d74f"/><path d="M6.5 12.5h1l1.5 3 3-7h5.5" fill="none" stroke="#4d4d4d" stroke-linecap="round" stroke-linejoin="round"/><path d="M15 10c-1.662 0-3 1.338-3 3s1.338 3 3 3c.773 0 1.47-.304 2-.781V16h1v-6h-1v.781A2.984 2.984 0 0015 10zm0 1c1.108 0 2 .892 2 2s-.892 2-2 2-2-.892-2-2 .892-2 2-2z" fill="#4d4d4d"/></svg>