<svg xmlns="http://www.w3.org/2000/svg" viewBox="0 0 24 24"><path d="M5.5 2.5h13v19h-13z" style="fill:#d85eca;fill-opacity:1;stroke-width:.902417"/><path d="M2.45 1.998a.451.451 0 0 0-.45.453v19.097c0 .25.201.452.45.452h19.1c.249 0 .45-.202.45-.452V2.451c0-.25-.308-.453-.556-.453H4.994zM6 3h12l-.006 18.096h-12z" style="opacity:.7;stroke-width:.902417"/><path d="M6.495 12.452h11.01" style="display:block;opacity:.7;fill:none;stroke:#000;stroke-width:.995012;stroke-linecap:square;stroke-linejoin:round"/><path style="opacity:1;fill:#fff;fill-opacity:1;fill-rule:evenodd;stroke:none;stroke-width:2;stroke-linecap:butt;stroke-linejoin:round;stroke-miterlimit:4;stroke-dasharray:none;stroke-opacity:1" d="M3 4h2v1H3zM3 7h2v1H3zM3 10h2v1H3zM3 13h2v1H3zM3 16h2v1H3zM3 19h2v1H3zM19 4h2v1h-2zM19 7h2v1h-2zM19 10h2v1h-2zM19 13h2v1h-2zM19 16h2v1h-2zM19 19h2v1h-2z"/></svg>