<svg xmlns="http://www.w3.org/2000/svg" viewBox="0 0 24 24"><path fill="#fff" d="M4 4h16v16H4z"/><path d="M6 3C4 3 3 3 3 5v14c0 2 1 2 3 2h12c2 0 3 0 3-2V5c0-2-1-2-3-2zM4 5c0-1 1-1 2-1h3v3H4zm6-1h4v3h-4V5zm5 0h3c1 0 2 0 2 1v2h-5V5zM4 8h5v2H4zm6 0h4v2h-4zm5 0h5v2h-5zM4 11h5v2H4zm6 0h4v2h-4zm5 0h5v2h-5zM4 14h5v2H4zm6 0h4v2h-4zm5 0h5v2h-5zM4 17h5v3H6c-1 0-2 0-2-1zm6 0h4v3h-4zm5 0h5v2c0 1-1 1-2 1h-3z" fill="#6d6d6d"/><path fill="#ddf6d5" fill-rule="evenodd" d="M4 4h5v16H4z"/><path d="M6 3C4 3 3 3 3 5v14c0 2 1 2 3 2h4V3zm0 1h3v3H4V5c0-1 1-1 2-1zM4 8h5v2H4zm0 3h5v2H4zm0 3h5v2H4zm0 3h5v3H6c-1 0-2 0-2-1z" fill="#46a926"/><circle cy="19.5" cx="-19.5" r="3.5" transform="scale(-1 1)" fill="#46a926"/><path overflow="visible" font-weight="400" style="line-height:normal;text-indent:0;text-align:start;text-decoration-line:none;text-decoration-style:solid;text-decoration-color:#000;text-transform:none;white-space:normal;isolation:auto;mix-blend-mode:normal;marker:none" d="M20 17v2h2v1h-2v2h-1v-2h-2v-1h2v-2z" color="#000" font-family="sans-serif" fill="#fff"/></svg>