<svg xmlns="http://www.w3.org/2000/svg" viewBox="0 0 24 24"><path d="M19 0v7c0 1.108-.892 2-2 2H7c-1.108 0-2-.892-2-2V0z" opacity=".7" stroke="#000" stroke-width="2" stroke-linejoin="round"/><path d="M19 0v7c0 1.108-.892 2-2 2H7c-1.108 0-1.948-.893-2-2V0z" fill="#fff"/><path fill="#e97cc8" d="M8 11h2v1H8zM14 11h2v1h-2zM11 11h2v1h-2zM5 11h2v1H5zM17 11h2v1h-2z"/><path d="M5 24v-8c0-1.108.892-2 2-2h10c1.108 0 2 .892 2 2v8z" opacity=".7" stroke="#000" stroke-width="2" stroke-linejoin="round"/><path d="M5 24v-8c0-1.108.892-2 2-2h10c1.108 0 1.948.893 2 2v8z" fill="#fff"/><path d="M0 9l4 2.5L0 14z" fill="#e97cc8"/></svg>