<svg xmlns="http://www.w3.org/2000/svg" xmlns:xlink="http://www.w3.org/1999/xlink" viewBox="0 0 24 24"><defs><linearGradient id="a"><stop offset="0" stop-color="#eeeeec"/><stop offset="1" stop-color="#e0e0de"/></linearGradient><linearGradient xlink:href="#b" id="c" x1="12" y1="7" x2="12" y2="23" gradientUnits="userSpaceOnUse" gradientTransform="translate(0 -3.004)"/><linearGradient id="b"><stop offset="0" stop-color="#151515"/><stop offset="1" stop-color="#4d4d4d"/></linearGradient></defs><path d="M16 4c2 0 3 1 3 3v3c0 1 1 1 2 1.5v1c-1 .5-2 .5-2 1.5v3c0 2-1 3-3 3h-1v-2h1c1 0 1 0 1-1v-3c0-1 0-1 1-2-1-1-1-1-1-2V7c0-1 0-1-1-1h-1V4zM8 3.992c-2 0-3 1-3 3v3c0 1-1 1-2 1.5v1c1 .5 2 .5 2 1.5v3c0 2 1 3 3 3h1v-2H8c-1 0-1 0-1-1v-3c0-1 0-1-1-2 1-1 1-1 1-2v-3c0-1 0-1.04 1-1h1v-2z" stroke="#fff" stroke-width="2" stroke-linejoin="round"/><path d="M8 4C6 4 5 5 5 7v3c0 1-1 1-2 1.5v1C4 13 5 13 5 14v3c0 2 1.002 2.919 3 3h1v-2H8c-1 0-1 0-1-1v-3c0-1 0-1-1-2 1-1 1-1 1-2V7c0-1 0-1.04 1-1h1V4zm7-.001v2h1c1 0 1 0 1 1v3c0 1 0 1 1 2-1 1-1 1-1 2v3c0 1 0 1-1 1h-1v2h1c2 0 3-1 3-3v-3c0-1 1-1 2-1.5v-1c-1-.5-2-.5-2-1.5v-3c0-2-1-3-3-3z" fill="url(#c)"/></svg>