<svg xmlns="http://www.w3.org/2000/svg" viewBox="0 0 24 24"><path d="M18 9l2.5-5L23 9z" fill="#e95420"/><path fill="#fff" fill-rule="evenodd" d="M2 5h12V4H2z"/><path fill="#232629" fill-rule="evenodd" d="M2 4h12V3H2z"/><path fill="#fff" fill-rule="evenodd" d="M2 7h12V6H2z"/><path fill="#232629" fill-rule="evenodd" d="M2 6h12V5H2z"/><path fill="#fff" fill-rule="evenodd" d="M2 9h12V8H2z"/><path fill="#232629" fill-rule="evenodd" d="M2 8h12V7H2z"/><path fill="#fff" fill-rule="evenodd" d="M2 17h12v-1H2z"/><path fill="#232629" fill-rule="evenodd" d="M2 16h12v-1H2z"/><path fill="#fff" fill-rule="evenodd" d="M2 21h12v-1H2z"/><path fill="#232629" fill-rule="evenodd" d="M2 20h12v-1H2z"/><path fill="#fff" fill-rule="evenodd" d="M2 19h12v-1H2z"/><path fill="#232629" fill-rule="evenodd" d="M2 18h12v-1H2z"/><path d="M18 15l2.5 5 2.5-5z" fill="#e95420"/></svg>