<svg xmlns="http://www.w3.org/2000/svg" viewBox="0 0 24 24"><path d="M18.005 5c1.259.014 2.18-.03 2.932.384.376.208.673.56.838.999.165.438.225.96.225 1.617v8c0 .658-.06 1.179-.225 1.617a1.875 1.875 0 01-.838.997c-.753.415-1.674.371-2.932.386H5.995c-1.259-.014-2.18.03-2.932-.384a1.88 1.88 0 01-.838-.999C2.061 17.18 2 16.657 2 16V8c0-.658.06-1.179.225-1.617.165-.44.462-.789.838-.997.753-.415 1.674-.371 2.932-.386H18.002z" style="line-height:125%;-inkscape-font-specification:Ubuntu;text-align:center" font-weight="400" font-size="15" font-family="Ubuntu" letter-spacing="0" word-spacing="0" text-anchor="middle" opacity=".7"/><path d="M13.016 6.027c1.557.01 5.11-.012 6.66.039.461.042 1.016.206 1.155.71.22.635.109 1.333.146 1.982.008 2.297.023 5.596-.021 7.885-.04.462-.203 1.013-.699 1.164-.632.225-1.284.123-1.936.154-1.424.007-4.85.011-6.276.012-1.705 0-5.408-.005-7.107-.019-.512-.012-1.183.02-1.584-.405-.421-.54-.287-1.268-.323-1.904-.012-2.444-.028-5.911.022-8.357.05-.402.17-.863.575-1.044.668-.294 1.426-.168 2.126-.206 1.754-.012 5.508-.012 7.262-.011z" fill="#aee3f8"/><g color="#000" font-weight="400" font-family="sans-serif" fill-rule="evenodd"><path d="M16.992 9v3h1.992a.451.451 0 00.008.025V19l-.008.025h-1.992v3h2c.599 0 1.086-.2 1.5-.46.414.26.901.46 1.5.46h2v-3H22L21.992 19v-6.975L22 12h1.992V9h-2c-.599 0-1.086.2-1.5.46a2.976 2.976 0 00-1.5-.46z" style="line-height:normal;font-variant-ligatures:normal;font-variant-position:normal;font-variant-caps:normal;font-variant-numeric:normal;font-variant-alternates:normal;font-feature-settings:normal;text-indent:0;text-align:start;text-decoration-line:none;text-decoration-style:solid;text-decoration-color:#000;text-transform:none;text-orientation:mixed;white-space:normal;shape-padding:0;isolation:auto;mix-blend-mode:normal;solid-color:#000;solid-opacity:1" overflow="visible" fill="#fff"/><path style="line-height:normal;font-variant-ligatures:normal;font-variant-position:normal;font-variant-caps:normal;font-variant-numeric:normal;font-variant-alternates:normal;font-feature-settings:normal;text-indent:0;text-align:start;text-decoration-line:none;text-decoration-style:solid;text-decoration-color:#000;text-transform:none;text-orientation:mixed;white-space:normal;shape-padding:0;isolation:auto;mix-blend-mode:normal;solid-color:#000;solid-opacity:1" d="M17.992 10v1h1c.584 0 .738.217.865.473.128.255.135.527.135.527v7.025s-.007.272-.135.528c-.128.255-.411.56-.865.472h-1v1h1c.727 0 1.19-.353 1.5-.738.31.385.773.738 1.5.738h1v-1h-1c-.583 0-.737-.217-.865-.472-.128-.256-.135-.528-.135-.528V12s.007-.272.135-.527c.128-.256.284-.428.865-.473h1v-1h-1c-.727 0-1.19.353-1.5.738-.31-.385-.775-.678-1.5-.738z" overflow="visible" fill="#111"/></g></svg>