<svg xmlns="http://www.w3.org/2000/svg" viewBox="0 0 24 24"><path d="M6 4L5 5v1.305l5 7.062v3.673L13.99 20H14v-6.633l5-7.062V5l-1-1z" opacity=".7" stroke="#000" stroke-width="2" stroke-linejoin="round"/><path d="M6 4L5 5v1.305l5 7.062v3.673L13.99 20H14v-6.633l5-7.062V5l-1-1z" fill="#fff"/><circle cy="18.5" cx="15.5" r="3.5" fill="#c7162b"/><path overflow="visible" font-weight="400" style="line-height:normal;text-indent:0;text-align:start;text-decoration-line:none;text-decoration-style:solid;text-decoration-color:#000;text-transform:none;white-space:normal;isolation:auto;mix-blend-mode:normal;marker:none" d="M16.914 16.379L15.5 17.793l-1.414-1.414-.707.707 1.414 1.414-1.414 1.414.707.707 1.414-1.414 1.414 1.414.707-.707-1.414-1.414 1.414-1.414z" color="#000" font-family="sans-serif" fill="#fff"/></svg>