<svg xmlns="http://www.w3.org/2000/svg" viewBox="0 0 24 24"><path style="fill:#000;stroke:#000;opacity:.7;stroke-width:2;stroke-miterlimit:4;stroke-dasharray:none;stroke-linejoin:round" fill="#232629" d="M14.016 4c-1.777 0-2.5.697-2.5 2.5v2.438c0 1.113-.05 2.406-1.032 2.406h-.5v1.312h.5c.982 0 1.032 1.293 1.032 2.406V17.5c0 1.803.723 2.5 2.5 2.5v-1.188c-1.185 0-1.188-.486-1.188-2.218v-2c0-.831-.22-2.081-1.219-2.594.999-.513 1.22-1.732 1.22-2.563v-2.03c0-1.733.002-2.22 1.187-2.22z"/><path d="M14.016 4c-1.777 0-2.5.697-2.5 2.5v2.438c0 1.113-.05 2.406-1.032 2.406h-.5v1.312h.5c.982 0 1.032 1.293 1.032 2.406V17.5c0 1.803.723 2.5 2.5 2.5v-1.188c-1.185 0-1.188-.486-1.188-2.218v-2c0-.831-.22-2.081-1.219-2.594.999-.513 1.22-1.732 1.22-2.563v-2.03c0-1.733.002-2.22 1.187-2.22z" fill="#232629" style="fill:#fff"/></svg>