<svg xmlns="http://www.w3.org/2000/svg" viewBox="0 0 24 24"><path d="M6 4c-1.108 0-2 .892-2 2v12c0 1.108.892 2 2 2h12c1.108 0 2-.892 2-2V6c0-1.108-.892-2-2-2zm0 1h12c.554 0 1 .446 1 1v12c0 .554-.446 1-1 1H6c-.554 0-1-.446-1-1V6c0-.554.446-1 1-1z" stroke="#000" opacity=".7" stroke-width="2" stroke-linejoin="round"/><path d="M6 4c-1.108 0-2 .892-2 2v12c0 1.108.892 2 2 2h12c1.108 0 2-.892 2-2V6c0-1.108-.892-2-2-2zm0 1h12c.554 0 1 .446 1 1v12c0 .554-.446 1-1 1H6c-.554 0-1-.446-1-1V6c0-.554.446-1 1-1z" fill="#fff"/></svg>