<svg xmlns="http://www.w3.org/2000/svg" height="24" width="24"><path d="M0 0h24v24H0z" fill="none"/><path d="M0 4h19v2H0z" fill="#1463a5"/><path opacity=".7" d="M4 2h6v6H4z"/><path d="M7.482 6A.5.5 0 007 6.5l.01 16a.5.5 0 00.799.4l5.146-3.83 6.588-.564a.5.5 0 00.303-.86l-12-11.507A.5.5 0 007.482 6z" opacity=".15" fill-opacity=".992" fill-rule="evenodd"/><path fill="#aee3f8" d="M5 3h4v4H5z"/><path d="M19.5 17.008l-6.729.577-5.26 3.915-.01-16z" fill="#333" fill-rule="evenodd" stroke="#fafafa" stroke-linecap="round" stroke-linejoin="round"/></svg>