<svg xmlns="http://www.w3.org/2000/svg" viewBox="0 0 24 24"><path style="opacity:1;fill:#fff;fill-opacity:1;stroke:none;stroke-width:2;stroke-linecap:round;stroke-linejoin:round;stroke-miterlimit:4;stroke-dasharray:none;stroke-opacity:1" d="M4 4h16v16H4z"/><path style="opacity:1;fill:#6d6d6d;fill-opacity:1;stroke-width:.999999" d="M6 3C4 3 3 3 3 5v14c0 2 1 2 3 2h12c2 0 3 0 3-2V5c0-2-1-2-3-2H6zm3 5h5v2H9V8zm6 0h5v2h-5V8zm-6 3h5v2H9v-2zm6 0h5v2h-5v-2zm-6 3h5v2H9v-2zm6 0h5v2h-5v-2zm-6 3h5v3H9v-3zm6 0h5v2c0 1-1 1-2 1h-3v-3z"/></svg>