<svg xmlns="http://www.w3.org/2000/svg" viewBox="0 0 24 24"><path d="M11 7v9H3V7z" opacity=".7" stroke="#000" stroke-width="2" stroke-linejoin="round"/><path d="M11 7v9H3V7z" fill="#d85eca"/><path fill="#232629" fill-rule="evenodd" d="M22 4H2v1h20z"/><path fill="#fff" fill-rule="evenodd" d="M21 5H3v1h18z"/><path fill="#232629" fill-rule="evenodd" d="M22 19H2v-1h20z"/><path fill="#fff" fill-rule="evenodd" d="M21 18H3v-1h18z"/><path d="M22 6v1h-9V6h4.5zM22 8v1h-9V8h4.5zM22 10v1h-9v-1h4.5zM22 12v1h-9v-1h4.5zM22 14v1h-9v-1h4.5zM22 16v1h-9v-1h4.5z" fill="#232629" fill-rule="evenodd"/><path d="M21 7v1h-9V7h4.5zM21 9v1h-9V9h4.5zM21 11v1h-9v-1h4.5zM21 13v1h-9v-1h4.5zM21 15v1h-9v-1h4.5z" fill="#fff" fill-rule="evenodd"/><path fill="#232629" fill-rule="evenodd" d="M22 2H2v1h20z"/><path fill="#fff" fill-rule="evenodd" d="M21 3H3v1h18z"/><path fill="#232629" fill-rule="evenodd" d="M22 21H2v-1h20z"/><path fill="#fff" fill-rule="evenodd" d="M21 20H3v-1h18z"/></svg>