<svg xmlns="http://www.w3.org/2000/svg" viewBox="0 0 16 16">/&gt;<path style="color:#000;display:inline;overflow:visible;visibility:visible;fill:#aea795;fill-opacity:1;fill-rule:nonzero;stroke:none;stroke-width:1;marker:none;enable-background:accumulate" d="M5.833 2C2.357 2 1.983 2.309 2 5.323v5.354C1.983 13.69 2.357 14 5.833 14h4.457c3.476 0 3.639-.31 3.71-3.323V5.323C14 2.31 13.643 2 10.167 2H9z"/><path style="display:inline;opacity:1;vector-effect:none;fill:#faf8f6;fill-opacity:1;stroke:none;stroke-width:1.15470052;stroke-linecap:round;stroke-linejoin:round;stroke-miterlimit:4;stroke-dasharray:none;stroke-dashoffset:0;stroke-opacity:1;enable-background:new" d="M8 2v2H6v3h2v4h2v1H8v2h1v-1h2v-3H9V6H7V5h2V2z"/><path style="display:inline;opacity:1;vector-effect:none;fill:#faf8f6;fill-opacity:1;stroke:none;stroke-width:1.15470052;stroke-linecap:round;stroke-linejoin:round;stroke-miterlimit:4;stroke-dasharray:none;stroke-dashoffset:0;stroke-opacity:1;enable-background:new" d="M2 9h2v2h3V9h4V7h1v2h2V8h-1V6h-3v2H6v2H5V8H2z"/><path style="color:#000;display:inline;overflow:visible;visibility:visible;fill:#46a926;fill-opacity:1;fill-rule:nonzero;stroke:none;stroke-width:1;marker:none;enable-background:accumulate" d="M11 7v2H9v1h2v3H9v1h1.168C13.832 14 14 13.67 14 10.676V9h-2V7z"/><path style="color:#000;display:inline;overflow:visible;visibility:visible;fill:#000;fill-opacity:1;fill-rule:nonzero;stroke:none;stroke-width:1;marker:none;enable-background:accumulate;opacity:.2" d="M5.834 2C2.358 2 1.983 2.31 2 5.324v5.352C1.983 13.69 2.358 14 5.834 14h4.455c3.476 0 3.64-.31 3.711-3.324V5.324C14 2.31 13.642 2 10.166 2H5.834zM6 3h4c2.5 0 3 0 3 2v6c0 2-.5 2-3 2H6c-2.5 0-3 0-3-2V5c0-2 .5-2 3-2z"/><path d="M3 6h1v4h2l-2.5 4L1 10h2z" style="color:#000;overflow:visible;opacity:.7;fill:#020400;fill-opacity:1;stroke:#000;stroke-width:2;stroke-linecap:round;stroke-linejoin:round;stroke-miterlimit:4;stroke-dasharray:none;stroke-opacity:1;marker:none"/><path style="color:#000;overflow:visible;fill:#a6d74f;fill-opacity:1;stroke-width:.833333;marker:none" d="M3 6h1v4h2c-.392.832-1.333 2.244-2.5 4-1.167-1.756-2.108-3.168-2.5-4h2z"/><path style="color:#000;overflow:visible;opacity:1;fill:#6d6d6d;fill-opacity:1;stroke-width:.833333;marker:none" d="M0 15v1h7v-1z"/></svg>