<svg xmlns="http://www.w3.org/2000/svg" viewBox="0 0 16 16"><path style="line-height:125%;-inkscape-font-specification:Ubuntu;text-align:center" d="M3.994 0C2.736.015 1.815-.03 1.062.385a1.88 1.88 0 00-.837.998C.06 1.82 0 2.343 0 3v7c0 .658.06 1.179.225 1.617.164.439.461.789.838.996.752.415 1.673.372 2.931.387h2.113c-.19-.558.018-1.083.399-1.488-.402-.43-.628-.99-.385-1.576a1 1 0 000-.002l.463-1.112c.242-.585.798-.823 1.385-.843.019-.586.256-1.135.845-1.38l1.116-.462c.591-.245 1.146-.022 1.572.379.135-.127.218-.321.387-.391.365-.151.788-.16 1.19.006l.921.383V3c0-.658-.06-1.179-.225-1.617a1.875 1.875 0 00-.838-.996C12.185-.028 11.264.015 10.006 0H3.994zm7.447 11.363c-.063.026-.113.15-.087.211.026.063.149.114.21.088.063-.026.114-.15.088-.21-.026-.064-.149-.114-.21-.089z" font-weight="400" font-size="15" font-family="Ubuntu" letter-spacing="0" word-spacing="0" text-anchor="middle" opacity=".7"/><path d="M3.982 1.027c-1.556.011-.108-.013-1.658.037-.461.043-1.017.208-1.156.711-.219.636-.11 1.335-.147 1.983-.007 2.297-.023 4.595.022 6.885.04.462.203 1.013.7 1.164.632.225 1.283.122 1.935.154 1.424.007-.149.011 1.277.012.346 0 .827-.004 1.238-.004.083-.163.183-.32.313-.457-.402-.43-.628-.99-.385-1.576a1 1 0 000-.002l.463-1.112c.242-.585.798-.823 1.385-.843.019-.586.256-1.135.845-1.38l1.116-.462c.591-.245 1.146-.022 1.572.379.135-.127.218-.321.387-.391.336-.14.721-.151 1.093-.023 0-1.273-.009-2.547-.035-3.815-.049-.402-.169-.861-.574-1.043-.668-.294-1.427-.17-2.127-.207-1.754-.012-4.51-.01-6.264-.01zm7.46 10.336c-.064.026-.114.15-.088.211.026.063.149.114.21.088.063-.026.114-.15.088-.21-.026-.064-.149-.114-.21-.089z" fill="#fff"/><path d="M6 9v1h.105c.008-.022.007-.043.016-.064a1 1 0 000-.002L6.51 9H6z" fill="#232629"/><path fill="#c7162b" d="M2 9h3v1H2z"/><path fill="#232629" d="M4 5.999H2v1h2z"/><path d="M5 6v1h3.307c.129-.164.286-.309.507-.4l1.116-.463c.591-.245 1.146-.022 1.572.379.135-.127.218-.321.387-.391.03-.013.062-.019.093-.03V6H5z" fill="#c7162b"/><path fill="#232629" d="M8 2.999h3.983v1H8z"/><path fill="#c7162b" d="M2 3h5v1H2z"/><circle cx="11.5" cy="11.5" r="1.5" fill="#fff" fill-rule="evenodd"/><path d="M9.311 7.792a.244.244 0 00-.135.325l.273.657c-.26.195-.472.424-.662.678l-.674-.279a.248.248 0 00-.329.136l-.462 1.115a.248.248 0 00.137.329l.673.279a3.312 3.312 0 00-.011.948l-.657.272a.244.244 0 00-.135.325l.463 1.117c.054.13.194.189.325.135l.657-.272c.195.26.424.471.678.662l-.279.673a.248.248 0 00.136.329l1.115.462a.248.248 0 00.329-.136l.279-.674c.314.045.626.057.948.012l.272.657c.054.13.195.188.325.134l1.117-.462a.244.244 0 00.135-.326l-.272-.657c.26-.195.471-.424.662-.678l.673.28a.248.248 0 00.329-.137l.462-1.115a.248.248 0 00-.136-.329l-.674-.279c.045-.314.057-.625.012-.947l.657-.273a.244.244 0 00.134-.325l-.462-1.117a.244.244 0 00-.326-.135l-.657.273a3.312 3.312 0 00-.678-.662l.28-.674a.248.248 0 00-.137-.329l-1.115-.462a.248.248 0 00-.329.137l-.279.673a3.312 3.312 0 00-.947-.011l-.273-.657a.244.244 0 00-.325-.135zm1.756 2.66a1.138 1.138 0 11.87 2.103 1.138 1.138 0 01-.87-2.104z" display="block" fill="#d3d3d3" stroke="#4d4d4d" stroke-linejoin="round" stroke-width=".6"/></svg>