<svg xmlns="http://www.w3.org/2000/svg" viewBox="0 0 16 16"><path d="M3 12V4c0-2 1-2 3-2h4l3 3v7c0 2-1 2-3 2H6c-2 0-3 0-3-2z" opacity=".7" stroke="#000" stroke-width="2" stroke-linejoin="round"/><path d="M3 12V4c0-2 1-2 3-2h4l3 3v7c0 2-1 2-3 2H6c-2 0-3 0-3-2z" fill="#fff"/><path d="M10 5V2l3 3z" fill="#6d6d6d"/><path opacity=".7" stroke="#000" stroke-width="2" stroke-linejoin="round" d="M1 7h14v5H1z"/><path fill="#fec589" d="M1 7h14v5H1z"/><path fill="#333" d="M3 7h1v2H3z"/><path fill="#f22c42" d="M6 7h1v2H6z"/><path fill="#333" d="M9 7h1v2H9z"/><path fill="#f22c42" d="M12 7h1v2h-1z"/></svg>