<svg xmlns="http://www.w3.org/2000/svg" viewBox="0 0 16 16"><g transform="matrix(0 1 1 0 -6.373 -7.432)"><path d="M20.932 7.873a10.917 10.917 0 00-7.076 2.592c-.038.031-.076.061-.113.093-.117.102-.23.209-.342.315-.08.076-.162.15-.24.228-.078.079-.153.16-.229.24-.106.113-.213.225-.314.342l-.094.114a10.917 10.917 0 00-2.592 7.076h1c0-.345.017-.685.051-1.022.512-5.042 4.772-8.978 9.95-8.978z" fill="#1463a5" stroke="#1463a5"/><path d="M9.432 6.373c-.554 0-1 .446-1 1v2c0 .554.446 1 1 1h2c.554 0 1-.446 1-1v.043h9V7.373h-9c0-.554-.446-1-1-1z" opacity=".8" fill="gray"/><path opacity=".7" d="M19.432 6.373h4v4h-4z"/><path fill="#aee3f8" d="M20.432 7.373h2v2h-2z"/><path opacity=".7" d="M8.432 18.373h4v4h-4z"/><path fill="#aee3f8" d="M9.432 19.373h2v2h-2z"/><rect ry="0" y="7.373" x="9.432" height="2" width="2" fill="#fff"/></g></svg>