<svg xmlns="http://www.w3.org/2000/svg" viewBox="0 0 16 16">/&gt;<path style="opacity:.7;fill:#000;stroke:#000;stroke-width:2;stroke-linejoin:round;stroke-miterlimit:4;stroke-dasharray:none" d="M6 14c-2 0-3 0-3-2V4c0-2 1-2 3-2h4c2 0 3 0 3 2v8c0 2-1 2-3 2z"/><path style="fill:#ffd9b2;fill-opacity:1" d="M6 14c-2 0-3 0-3-2V4c0-2 1-2 3-2h4c2 0 3 0 3 2v8c0 2-1 2-3 2z"/><path style="opacity:1;fill:#6d6d6d;fill-opacity:1;stroke:none;stroke-width:2;stroke-linejoin:round;stroke-miterlimit:4;stroke-dasharray:none;stroke-opacity:1" d="M6 2h1v12H6z"/><circle style="opacity:1;fill:#6d6d6d;fill-opacity:1;stroke:none;stroke-width:2;stroke-linejoin:round;stroke-miterlimit:4;stroke-dasharray:none;stroke-opacity:1" cx="4.5" cy="10.5" r=".5"/><circle style="opacity:1;fill:#6d6d6d;fill-opacity:1;stroke:none;stroke-width:2;stroke-linejoin:round;stroke-miterlimit:4;stroke-dasharray:none;stroke-opacity:1" cx="4.5" cy="5.5" r=".5"/><path style="fill:#6d6d6d;stroke:none;stroke-width:1px;stroke-linecap:butt;stroke-linejoin:miter;stroke-opacity:1;fill-opacity:1" d="m9 6 1-1 1 1V2H9z"/></svg>