<svg xmlns="http://www.w3.org/2000/svg" viewBox="0 0 16 16"><path d="M13 2L2 6l5 8h7l-3-6zm-1.594 1.625l-1.343 4.062-.157.375.188.375L12.375 13H7.563L3.5 6.531z" opacity=".7" stroke="#000" stroke-width="2" stroke-linejoin="round"/><path d="M13 2L2 6l5 8h7l-3-6zm-1.594 1.625l-1.343 4.062-.157.375.188.375L12.375 13H7.563L3.5 6.531z" fill="#fff"/><circle cy="12.5" cx="12.5" r="3.5" fill="#77216f"/><path d="M12.5 10c-.433 0-.833.12-1.188.313l.75.75c.138-.042.287-.063.438-.063.831 0 1.5.669 1.5 1.5 0 .15-.021.3-.063.438l.75.75c.193-.355.313-.755.313-1.188 0-1.385-1.115-2.5-2.5-2.5zm-2.188 1.313A2.476 2.476 0 0010 12.5c0 1.385 1.115 2.5 2.5 2.5.433 0 .833-.12 1.188-.313l-.75-.75A1.539 1.539 0 0112.5 14c-.831 0-1.5-.669-1.5-1.5 0-.15.021-.3.063-.438z" fill="#fff"/></svg>