<svg xmlns="http://www.w3.org/2000/svg" viewBox="0 0 16 16">/&gt;<path style="fill:#f2cbf8;fill-opacity:1;stroke-width:.91666681" d="M8 2.5c-3.038 0-5.5.821-5.5 1.834V10H3V9a1 1 0 0 1 1.53-.848l2.493 1.559a1 1 0 0 1 .448-1.059l4-2.5A1 1 0 0 1 13 7v1h.5V4.334C13.5 3.321 11.038 2.5 8 2.5zm5 8.5v1a.989.989 0 0 1-.14.51c.395-.253.64-.539.64-.844V11H13zm-4.023.29a1 1 0 0 1-.448 1.058l-1.763 1.101c.398.03.808.051 1.234.051 1.493 0 2.843-.2 3.834-.521a.98.98 0 0 1-.363-.131l-2.494-1.559z"/><path style="fill:#8e03a3;fill-opacity:1" d="M8 2a6 2 0 0 0-6 2v6h1V9c0-.272.109-.502.271-.676A5 1 0 0 1 3 8V5.102A6 2 0 0 0 8 6a6 2 0 0 0 5-.896V8h1V4a6 2 0 0 0-6-2zm-.104 1A5 1 0 0 1 8 3a5 1 0 0 1 5 1 5 1 0 0 1-5 1 5 1 0 0 1-5-1 5 1 0 0 1 4.896-1zM5.707 8.889l1.316.822a.988.988 0 0 1 .135-.725 5 1 0 0 1-1.451-.097zM13 11v1a5 1 0 0 1-.006.045v.002a.997.997 0 0 1-1.523.8l-.159-.097A5 1 0 0 1 8 13a5 1 0 0 1-.506-.006l-1.435.899A6 2 0 0 0 8 14a6 2 0 0 0 6-2v-1h-1zM2.805 13a6 2 0 0 0 .195.105V13h-.195z"/><path style="fill:#e95420;fill-opacity:1;stroke:none;stroke-width:1px;stroke-linecap:butt;stroke-linejoin:miter;stroke-opacity:1" d="M8 11.5 4 14v-2H1v-1h3V9zM8 9.5 12 7v2h3v1h-3v2z"/></svg>