<svg xmlns="http://www.w3.org/2000/svg" viewBox="0 0 16 16"><path opacity=".7" stroke="#000" stroke-width="2" stroke-linejoin="round" d="M3 2h10v12H3z"/><path fill="#fff" d="M3 2h10v12H3z"/><path opacity=".7" d="M11 3h1v1h-1zM11 6h1v1h-1zM11 9h1v1h-1zM11 12h1v1h-1zM4 3h1v1H4zM4 6h1v1H4zM4 9h1v1H4zM4 12h1v1H4z"/><path fill="#232629" d="M6 3h4v1H6zM6 6h4v1H6zM6 9h4v1H6zM6 12h4v1H6z"/><g stroke-width="27.2"><path d="M11.435 13.352L8.28 16l.717-4.055.263-.457 2.438 1.408z" fill="#fec589"/><path style="marker:none" d="M8.51 14.71L8.28 16l1.004-.842c-.004.007-.776-.448-.776-.448z" color="#000" overflow="visible" fill="#5d5d5d"/><path d="M8.998 11.945s2.438 1.495 2.437 1.407L16 5.445l-2.437-1.407z" fill="#2f5fdd"/></g></svg>