<svg viewBox="0 0 16 16" xmlns="http://www.w3.org/2000/svg"><path style="fill:#f2cbf8;fill-opacity:1;stroke-width:.91666681" d="M8 2.5c-3.038 0-5.5.821-5.5 1.834v7.332c0 .777 1.453 1.44 3.5 1.707V9a1 1 0 0 1 1-1h3a1 1 0 0 1 1 1 1 1 0 0 1 1-1h1.5V4.334C13.5 3.321 11.038 2.5 8 2.5z"/><path style="fill:#8e03a3;fill-opacity:1" d="M8 2a6 2 0 0 0-6 2v8a6 2 0 0 0 4 1.883v-.967A5 1 0 0 1 3 12V9.102a6 2 0 0 0 3 .779V9a1 1 0 0 1 .014-.084A5 1 0 0 1 3 8V5.102A6 2 0 0 0 8 6a6 2 0 0 0 5-.896V8h1V4a6 2 0 0 0-6-2zm0 1a5 1 0 0 1 5 1 5 1 0 0 1-5 1 5 1 0 0 1-5-1 5 1 0 0 1 5-1zm3.033 5.793a5 1 0 0 1-.064.01A1 1 0 0 1 11 9a1 1 0 0 1 .033-.207z"/><path style="fill:#77216f" d="M9 11v2h4v-2z"/><path d="M9 11v2h4v-2z" style="fill:#e95420;fill-opacity:1"/><path style="fill:#e95420;fill-opacity:1;stroke:none;stroke-width:1px;stroke-linecap:butt;stroke-linejoin:miter;stroke-opacity:1" d="M12 9h3v6h-3v-1h2v-4h-2zM10 9H7v6h3v-1H8v-4h2Z"/></svg>