<svg xmlns="http://www.w3.org/2000/svg" viewBox="0 0 16 16"><path opacity=".7" stroke="#000" stroke-width="2" stroke-linejoin="round" d="M3 2h10v12H3z"/><path fill="#fff" d="M3 2h10v12H3z"/><path opacity=".7" d="M11 3h1v1h-1zM11 6h1v1h-1zM11 9h1v1h-1zM11 12h1v1h-1zM4 3h1v1H4zM4 6h1v1H4zM4 9h1v1H4zM4 12h1v1H4z"/><path fill="#232629" d="M6 3h4v1H6zM6 6h4v1H6zM6 9h4v1H6zM6 12h4v1H6z"/><g color="#000" font-weight="400" font-family="sans-serif" fill-rule="evenodd"><path d="M8.992 4v3h1.992a.451.451 0 00.008.025l.008 5.95-.008.025H9v3h2c.599 0 1.086-.2 1.5-.46.414.26.901.46 1.5.46h2v-3h-1.992L14 12.975l-.008-5.95L14 7h1.992V4h-2c-.599 0-1.086.2-1.5.46-.414-.26-.902-.489-1.5-.46z" style="line-height:normal;font-variant-ligatures:normal;font-variant-position:normal;font-variant-caps:normal;font-variant-numeric:normal;font-variant-alternates:normal;font-feature-settings:normal;text-indent:0;text-align:start;text-decoration-line:none;text-decoration-style:solid;text-decoration-color:#000;text-transform:none;text-orientation:mixed;white-space:normal;shape-padding:0;isolation:auto;mix-blend-mode:normal;solid-color:#000;solid-opacity:1" overflow="visible" fill="#fff"/><path style="line-height:normal;font-variant-ligatures:normal;font-variant-position:normal;font-variant-caps:normal;font-variant-numeric:normal;font-variant-alternates:normal;font-feature-settings:normal;text-indent:0;text-align:start;text-decoration-line:none;text-decoration-style:solid;text-decoration-color:#000;text-transform:none;text-orientation:mixed;white-space:normal;shape-padding:0;isolation:auto;mix-blend-mode:normal;solid-color:#000;solid-opacity:1" d="M9.992 5v1h1c.584 0 .738.217.865.473.128.255.135.527.135.527L12 13s-.007.272-.135.527c-.128.256-.403.473-.865.473h-1v1h1c.727 0 1.19-.353 1.5-.738.31.385.773.738 1.5.738h1v-1h-1c-.583 0-.737-.217-.865-.473A1.404 1.404 0 0113 13l-.008-6s.007-.272.135-.527c.128-.256.284-.53.865-.473h1V5h-1c-.727 0-1.19.353-1.5.738-.31-.385-.773-.738-1.5-.738z" overflow="visible" fill="#111"/></g></svg>