<svg xmlns="http://www.w3.org/2000/svg" viewBox="0 0 16 16">/&gt;<path style="opacity:1;fill:#fff;fill-opacity:1;stroke:none;stroke-width:2;stroke-linecap:round;stroke-linejoin:round;stroke-miterlimit:4;stroke-dasharray:none;stroke-opacity:1" d="M1 1h12v12H1z"/><path style="fill:#f3d8f2;fill-opacity:1;fill-rule:evenodd;stroke-width:2;stroke-linecap:round;stroke-linejoin:round" d="M1 1h8v8H1z"/><path d="M0 2v10c0 2 1 2 3 2h8c2 0 3 0 3-2V2c0-2-1-2-3-2H3C1 0 0 0 0 2zm3-1h1v3H1V2c0-1 1-1 2-1zm2 0h4v3H5zm5 0h1c1 0 2 0 2 1v2h-3zM1 5h3v4H1zm4 0h4v4H5zm5 0h3v4h-3zm-9 5h3v3H3c-1 0-2 0-2-1zm4 0h4v3H5zm5 0h3v2c0 1-1 1-2 1h-1z" style="fill:#6d6d6d;fill-opacity:1"/><path style="fill:#77216f;fill-opacity:1" d="M3 0C1 0 0 0 0 2v8h10V0zm0 1h1v3H1V2c0-1 1-1 2-1zm2 0h4v3H5zM1 5h3v4H1zm4 0h4v4H5z"/><circle style="opacity:1;vector-effect:none;fill:#c7162b;fill-opacity:1;stroke:none;stroke-width:3.5;stroke-linecap:butt;stroke-linejoin:round;stroke-miterlimit:4;stroke-dasharray:none;stroke-dashoffset:0;stroke-opacity:1" cy="12.5" cx="12.5" r="3.5"/><path overflow="visible" font-weight="400" style="color:#000;font-weight:400;line-height:normal;font-family:sans-serif;text-indent:0;text-align:start;text-decoration:none;text-decoration-line:none;text-decoration-style:solid;text-decoration-color:#000;text-transform:none;white-space:normal;overflow:visible;isolation:auto;mix-blend-mode:normal;fill:#fff;fill-opacity:1;marker:none" d="M13.914 10.379 12.5 11.793l-1.414-1.414-.707.707 1.414 1.414-1.414 1.414.707.707 1.414-1.414 1.414 1.414.707-.707-1.414-1.414 1.414-1.414z"/></svg>