<svg xmlns="http://www.w3.org/2000/svg" viewBox="0 0 16 16"><path opacity=".7" stroke="#000" stroke-width="2" stroke-linejoin="round" d="M3 2h10v12H3z"/><path fill="#fff" d="M3 2h10v12H3z"/><path opacity=".7" d="M11 3h1v1h-1zM11 6h1v1h-1zM11 9h1v1h-1zM11 12h1v1h-1zM4 3h1v1H4zM4 6h1v1H4zM4 9h1v1H4zM4 12h1v1H4z"/><path fill="#232629" d="M6 3h4v1H6zM6 6h4v1H6zM6 9h4v1H6zM6 12h4v1H6z"/><circle cy="12.5" cx="12.5" r="3.5" fill="#46a926"/><path overflow="visible" font-weight="400" style="line-height:normal;text-indent:0;text-align:start;text-decoration-line:none;text-decoration-style:solid;text-decoration-color:#000;text-transform:none;white-space:normal;isolation:auto;mix-blend-mode:normal;marker:none" d="M12 10v2h-2v1h2v2h1v-2h2v-1h-2v-2z" color="#000" font-family="sans-serif" fill="#fff"/></svg>