<svg xmlns="http://www.w3.org/2000/svg" viewBox="0 0 16 16">/&gt;<path d="M2 4v7c0 1.108.892 2 2 2h8c1.108 0 2.014-.892 2-2V4z" style="opacity:.7;fill:#000;fill-opacity:1;fill-rule:evenodd;stroke:#000;stroke-width:2;stroke-linecap:butt;stroke-linejoin:round;stroke-miterlimit:4;stroke-dasharray:none;stroke-opacity:1"/><path style="opacity:1;fill:#6d6d6d;fill-opacity:1;fill-rule:evenodd;stroke:none;stroke-width:2;stroke-linecap:butt;stroke-linejoin:round;stroke-miterlimit:4;stroke-dasharray:none;stroke-opacity:1" d="M0 2h16v2H0z"/><path style="opacity:1;fill:#fff;fill-opacity:1;fill-rule:evenodd;stroke:none;stroke-width:2;stroke-linecap:butt;stroke-linejoin:round;stroke-miterlimit:4;stroke-dasharray:none;stroke-opacity:1" d="M2 4v7c0 1.108.892 2 2 2h8c1.108 0 2.014-.892 2-2V4z"/><path style="opacity:1;fill:#46a926;fill-opacity:1;fill-rule:evenodd;stroke:none;stroke-width:2;stroke-linecap:butt;stroke-linejoin:round;stroke-miterlimit:4;stroke-dasharray:none;stroke-opacity:1" d="M13 8.5a2.5 2.5 0 0 1-1.543 2.31 2.5 2.5 0 0 1-2.725-.542 2.5 2.5 0 0 1-.542-2.725A2.5 2.5 0 0 1 10.5 6v2.5z"/><path style="opacity:1;fill:#1a7fd4;fill-opacity:1;fill-rule:evenodd;stroke:none;stroke-width:2.30940104;stroke-linecap:butt;stroke-linejoin:round;stroke-miterlimit:4;stroke-dasharray:none;stroke-opacity:1" d="M3 6h4v1H3z"/><path style="opacity:1;fill:#c7162b;fill-opacity:1;fill-rule:evenodd;stroke:none;stroke-width:2.30940104;stroke-linecap:butt;stroke-linejoin:round;stroke-miterlimit:4;stroke-dasharray:none;stroke-opacity:1" d="M3 8h4v1H3z"/><path style="opacity:1;fill:#46a926;fill-opacity:1;fill-rule:evenodd;stroke:none;stroke-width:2.30940104;stroke-linecap:butt;stroke-linejoin:round;stroke-miterlimit:4;stroke-dasharray:none;stroke-opacity:1" d="M3 10h4v1H3z"/><path style="opacity:1;fill:#c7162b;fill-opacity:1;fill-rule:evenodd;stroke:none;stroke-width:2;stroke-linecap:butt;stroke-linejoin:round;stroke-miterlimit:4;stroke-dasharray:none;stroke-opacity:1" d="M6-10.5A2.5 2.5 0 0 1 8.5-13v2.5z" transform="rotate(90)"/><path d="m3.46 9.103.1-2.48 1.598-.834.5.28.02 1.477 1.045-.964 1.41.44L7.54 5.73l.855-1.205-1.414.164-.884-1.185-.28 1.397-.737.25-1.563-.58-.43-2.54-1.54 1.946L-1 3.601.375 5.667-.768 7.972l2.387-.67zm5.524-4.367.813-.75 1.093.344-.46-1.006.663-.933-1.097.127-.685-.92-.217 1.084-1.087.365.963.54.014 1.15zM5.27 3.843l1.184-1.09 1.596.498-.672-1.462.964-1.362-1.596.186-.997-1.34L5.433.851l-1.584.533 1.405.79.017 1.67zm6.22-1.586.298-1.12 1.158-.309-.97-.628.06-1.2-.897.73-1.123-.43.418 1.08-.754.935 1.155-.064.655 1.008z" style="opacity:.7;fill:#000;fill-opacity:1;stroke:#000;stroke-width:2;stroke-linejoin:round;stroke-miterlimit:4;stroke-dasharray:none"/><path style="fill:#fa9381;fill-opacity:1" d="m3.46 9.103.1-2.48 1.598-.834.5.28.02 1.477 1.045-.964 1.41.44L7.54 5.73l.855-1.205-1.414.164-.884-1.185-.28 1.397-.737.25-1.563-.58-.43-2.54-1.54 1.946L-1 3.601.375 5.667-.768 7.972l2.387-.67zm5.524-4.367.813-.75 1.093.344-.46-1.006.663-.933-1.097.127-.685-.92-.217 1.084-1.087.365.963.54.014 1.15zM5.27 3.843l1.184-1.09 1.596.498-.672-1.462.964-1.362-1.596.186-.997-1.34L5.433.851l-1.584.533 1.405.79.017 1.67zm6.22-1.586.298-1.12 1.158-.309-.97-.628.06-1.2-.897.73-1.123-.43.418 1.08-.754.935 1.155-.064.655 1.008z"/></svg>