<svg xmlns="http://www.w3.org/2000/svg" viewBox="0 0 16 16"><path fill="#fad1d6" d="M2 2h12v12H2z"/><path d="M1 3v10c0 2 1 2 3 2h8c2 0 3 0 3-2V3c0-2-1-2-3-2H4C2 1 1 1 1 3zm3-1h1v3H2V3c0-1 1-1 2-1zm2 0h4v3H6zm5 0h1c1 0 2 0 2 1v2h-3zM2 6h3v4H2zm4 0h4v4H6zm5 0h3v4h-3zm-9 5h3v3H4c-1 0-2 0-2-1zm4 0h4v3H6zm5 0h3v2c0 1-1 1-2 1h-1z" fill="#c7162b"/><circle cy="12.5" cx="12.5" r="3.5" fill="#c7162b"/><path overflow="visible" font-weight="400" style="line-height:normal;text-indent:0;text-align:start;text-decoration-line:none;text-decoration-style:solid;text-decoration-color:#000;text-transform:none;white-space:normal;isolation:auto;mix-blend-mode:normal;marker:none" d="M13.914 10.379L12.5 11.793l-1.414-1.414-.707.707 1.414 1.414-1.414 1.414.707.707 1.414-1.414 1.414 1.414.707-.707-1.414-1.414 1.414-1.414z" color="#000" font-family="sans-serif" fill="#fff"/></svg>