<svg xmlns="http://www.w3.org/2000/svg" viewBox="0 0 16 16">/&gt;<path style="opacity:1;fill:#fff;fill-opacity:1;stroke:none;stroke-width:2;stroke-linecap:round;stroke-linejoin:round;stroke-miterlimit:4;stroke-dasharray:none;stroke-opacity:1" d="M1 1h12v12H1z"/><path style="fill:#f3d8f2;fill-opacity:1;fill-rule:evenodd;stroke-width:2;stroke-linecap:round;stroke-linejoin:round" d="M1 1h8v8H1z"/><path d="M0 2v10c0 2 1 2 3 2h8c2 0 3 0 3-2V2c0-2-1-2-3-2H3C1 0 0 0 0 2zm3-1h1v3H1V2c0-1 1-1 2-1zm2 0h4v3H5zm5 0h1c1 0 2 0 2 1v2h-3zM1 5h3v4H1zm4 0h4v4H5zm5 0h3v4h-3zm-9 5h3v3H3c-1 0-2 0-2-1zm4 0h4v3H5zm5 0h3v2c0 1-1 1-2 1h-1z" style="fill:#6d6d6d;fill-opacity:1"/><path style="fill:#77216f;fill-opacity:1" d="M3 0C1 0 0 0 0 2v8h10V0zm0 1h1v3H1V2c0-1 1-1 2-1zm2 0h4v3H5zM1 5h3v4H1zm4 0h4v4H5z"/><g style="display:inline;stroke-width:27.2;enable-background:new"><path style="fill:#fec589;fill-opacity:1;stroke:none;stroke-width:27.2" d="m688 319.356-32 81.137-32-81.137v-11.064h64z" transform="matrix(.03808 .02199 -.02385 .0413 -7.15 -14.963)"/><path style="color:#000;display:inline;overflow:visible;visibility:visible;fill:#5d5d5d;fill-opacity:1;fill-rule:nonzero;stroke:none;stroke-width:27.2;marker:none;enable-background:accumulate" d="M645.813 374.677 656 400.493l10.188-25.816c.01.175-20.375 0-20.375 0z" transform="matrix(.03808 .02199 -.02385 .0413 -7.15 -14.963)"/><path style="fill:#2f5fdd;fill-opacity:1;stroke:none;stroke-width:27.2" d="M624 319.356s65.02 1.586 64 0V127.9h-64z" transform="matrix(.03808 .02199 -.02385 .0413 -7.15 -14.963)"/></g></svg>