<svg xmlns="http://www.w3.org/2000/svg" viewBox="0 0 16 16"><path d="M5.312 2C5.322 1.998 2 5.313 2 5.313V14h8.687s3.324-3.283 3.313-3.281V2H6zm.5 1h6.47c-.834.844-1.628 1.661-1.97 2H3.687zM13 3.719v6.594l-.719.687c-.544.552-.735.762-1.281 1.313V5.688zM3 6h7v7H3v-.687z" style="fill:#6d6d6d;fill-opacity:1"/><path style="fill:#fa9381;fill-opacity:1;stroke:none;stroke-width:1px;stroke-linecap:butt;stroke-linejoin:miter;stroke-opacity:1" d="m3.687 5 2.125-2h6.47l-1.97 2z"/><path style="opacity:1;fill:#fff;fill-opacity:1;stroke:none;stroke-width:2;stroke-linejoin:round;stroke-miterlimit:4;stroke-dasharray:none;stroke-opacity:1" d="M3 6h7v7H3z"/><path style="fill:#fa9381;stroke:none;stroke-width:1px;stroke-linecap:butt;stroke-linejoin:miter;stroke-opacity:1;fill-opacity:1" d="m11 5.688 2-1.97v6.595l-2 2V5.688"/></svg>