<svg xmlns="http://www.w3.org/2000/svg" viewBox="0 0 16 16"><path d="M10.5 2a2.5 2.5 0 1 0 0 5 2.5 2.5 0 0 0 0-5Zm0 6C8.567 8 7 9.79 7 12h7c0-2.21-1.567-4-3.5-4Z" style="opacity:.7;fill:#000;fill-opacity:1;stroke:#000;stroke-width:2;stroke-linejoin:round;stroke-miterlimit:4;stroke-dasharray:none"/><path style="fill:#aee3f8;fill-opacity:1" d="M10.5 2a2.5 2.5 0 1 0 0 5 2.5 2.5 0 0 0 0-5Zm0 6C8.567 8 7 9.79 7 12h7c0-2.21-1.567-4-3.5-4Z"/><path style="fill:#000;fill-opacity:1;stroke:#000;opacity:.7;stroke-width:2;stroke-miterlimit:4;stroke-dasharray:none;stroke-linejoin:round" d="M5.5 4a2.5 2.5 0 1 0 0 5 2.5 2.5 0 0 0 0-5Zm0 6C3.567 10 2 11.79 2 14h7c0-2.21-1.567-4-3.5-4Z"/><path d="M5.5 4a2.5 2.5 0 1 0 0 5 2.5 2.5 0 0 0 0-5Zm0 6C3.567 10 2 11.79 2 14h7c0-2.21-1.567-4-3.5-4Z" style="fill:#aee3f8;fill-opacity:1"/></svg>