<svg xmlns="http://www.w3.org/2000/svg" height="16" width="16"><path style="fill:#000;fill-rule:evenodd;fill-opacity:1;stroke:#000;opacity:.7;stroke-width:2;stroke-miterlimit:4;stroke-dasharray:none;stroke-linejoin:round" d="M8 3a6 3.333 0 0 0-6 3.334 6 3.333 0 0 0 .305 1.037 2.135 2.135 0 0 1-.282-.7C2.184 10.195 4.79 13 8 13c3.21 0 5.816-2.806 5.977-6.328-.046.25-.155.49-.295.72A6 3.333 0 0 0 14 6.335 6 3.333 0 0 0 8 3zM2.584 7.756a6 3.333 0 0 0 .127.146c-.046-.047-.085-.097-.127-.146zm10.824.012a3.241 3.241 0 0 1-.142.156 6 3.333 0 0 0 .142-.156zm-.56.521c-.042.032-.08.065-.123.096a6 3.333 0 0 0 .123-.096zm-9.676.018a6 3.333 0 0 0 .13.093 4.577 4.577 0 0 1-.13-.093zm8.93.453c-.04.02-.079.042-.12.062a6 3.333 0 0 0 .12-.062zm-8.186.011a6 3.333 0 0 0 .121.06l-.121-.06zm7.33.362c-.055.02-.11.038-.166.056a6 3.333 0 0 0 .166-.056zm-6.45.017a6 3.333 0 0 0 .102.032c-.033-.012-.068-.02-.101-.032zm5.454.27c-.044.01-.089.018-.133.027a6 3.333 0 0 0 .133-.027zm-4.494.002a6 3.333 0 0 0 .058.014l-.058-.014zm1.03.172a6 3.333 0 0 0 .12.013l-.12-.013zm2.368.01c-.02.002-.043.001-.064.003a6 3.333 0 0 0 .064-.003z"/><path style="fill:#b6b6b6;fill-rule:evenodd;fill-opacity:1" d="M2.023 6.672C2.184 10.194 4.79 13 8 13c3.21 0 5.816-2.806 5.977-6.328-.308 1.68-2.87 2.994-5.977 2.994S2.33 8.353 2.023 6.672z"/><path style="opacity:.986928;fill:#fff" d="M8 3a6 3.333 0 0 0-6 3.334 6 3.333 0 0 0 6 3.332 6 3.333 0 0 0 6-3.332A6 3.333 0 0 0 8 3z"/></svg>