<svg xmlns="http://www.w3.org/2000/svg" viewBox="0 0 16 16"><path style="opacity:1;fill:#fff;fill-opacity:1;stroke:none;stroke-width:2;stroke-linecap:round;stroke-linejoin:round;stroke-miterlimit:4;stroke-dasharray:none;stroke-opacity:1" d="M2 2h12v12H2z"/><path d="M1 3v10c0 2 1 2 3 2h8c2 0 3 0 3-2V3c0-2-1-2-3-2H4C2 1 1 1 1 3zm3-1h1v3H2V3c0-1 1-1 2-1zm2 0h4v3H6zm5 0h1c1 0 2 0 2 1v2h-3zM2 6h3v3H2zm4 0h4v3H6zm5 0h3v3h-3zm-9 4h3v4H4c-1 0-2 0-2-1zm4 0h4v4H6zm5 0h3v3c0 1-1 1-2 1h-1z" style="fill:#6d6d6d;fill-opacity:1"/><path style="fill:#ddf6d5;fill-opacity:1;fill-rule:evenodd;stroke-width:2;stroke-linecap:round;stroke-linejoin:round" transform="rotate(90)" d="M10-14h4v12h-4z"/><path style="fill:#46a926;fill-opacity:1" d="M1 9v4c0 2 1 2 3 2h8c2 0 3 0 3-2V9H2zm1 1h3v4H4c-1 0-2 0-2-1zm4 0h4v4H6zm5 0h3v3c0 1-1 1-2 1h-1z"/><circle style="opacity:1;vector-effect:none;fill:#46a926;fill-opacity:1;stroke:none;stroke-width:3.49999976;stroke-linecap:butt;stroke-linejoin:round;stroke-miterlimit:4;stroke-dasharray:none;stroke-dashoffset:0;stroke-opacity:1" cy="3.5" cx="12.5" r="3.5"/><path overflow="visible" font-weight="400" style="color:#000;font-weight:400;line-height:normal;font-family:sans-serif;text-indent:0;text-align:start;text-decoration:none;text-decoration-line:none;text-decoration-style:solid;text-decoration-color:#000;text-transform:none;white-space:normal;overflow:visible;isolation:auto;mix-blend-mode:normal;fill:#fff;fill-opacity:1;marker:none" d="M12 1v2h-2v1h2v2h1V4h2V3h-2V1z"/></svg>