<svg xmlns="http://www.w3.org/2000/svg" viewBox="0 0 16 16"><path style="opacity:1;fill:#fee581;fill-opacity:1;stroke:none;stroke-width:2;stroke-linejoin:round;stroke-miterlimit:4;stroke-dasharray:none;stroke-opacity:1" d="M9.5 2c.307 0 .605.031.895.09A4.5 4.5 0 0 0 9.5 2zm0 0a4.5 4.5 0 0 0-.652.053A4.5 4.5 0 0 1 9.5 2zm-.72.06a4.5 4.5 0 0 0-.602.143c.196-.06.396-.109.601-.142zm1.646.038c.273.057.538.141.79.246a4.5 4.5 0 0 0-.79-.246zm-2.371.146a4.5 4.5 0 0 0-.565.233 4.49 4.49 0 0 1 .565-.233zm-.565.233a4.5 4.5 0 0 0-.576.345 4.51 4.51 0 0 1 .576-.345zm3.793-.106c.247.107.482.234.703.381a4.5 4.5 0 0 0-.703-.38zm.742.404c.224.152.431.327.623.516a4.5 4.5 0 0 0-.623-.516zm-5.127.06a4.5 4.5 0 0 0-.457.38c.145-.135.296-.264.457-.38zm-.457.38c-.037.034-.073.07-.109.105a4.5 4.5 0 0 1 .11-.105zm-.109.105a4.5 4.5 0 0 0-.396.444c.121-.159.256-.304.396-.444zm6.361.012c.184.185.349.389.498.604a4.5 4.5 0 0 0-.498-.604zm-6.775.453a4.5 4.5 0 0 0-.332.518c.101-.18.209-.355.332-.518zm-.332.518-.066.12a4.5 4.5 0 0 1 .066-.12zm-.066.12A4.5 4.5 0 0 0 5.264 5c.07-.2.16-.391.256-.576zm7.73-.407c.137.206.252.426.354.654a4.5 4.5 0 0 0-.354-.654zm.412.785c.095.231.17.474.225.722a4.5 4.5 0 0 0-.225-.722zm.252.842c.054.278.086.563.086.857a4.5 4.5 0 0 0-.086-.857zM14 6.5c0 .215-.02.426-.05.635A4.5 4.5 0 0 0 14 6.5zM5.035 6A4.5 4.5 0 0 0 5 6.5 4.5 4.5 0 0 0 9.5 11a4.5 4.5 0 0 0 .5-.031V6zm8.897 1.256a4.494 4.494 0 0 1-.147.61 4.5 4.5 0 0 0 .147-.61zm-.162.654c-.064.192-.14.378-.229.559a4.5 4.5 0 0 0 .229-.559zm-.26.623c-.089.174-.193.34-.303.5a4.5 4.5 0 0 0 .303-.5zm-.303.5a4.5 4.5 0 0 1-.08.115c.028-.037.054-.076.08-.115zm-.08.115a4.447 4.447 0 0 1-.373.454 4.5 4.5 0 0 0 .373-.454zm-.4.48c-.156.16-.322.31-.5.446a4.5 4.5 0 0 0 .5-.445zm-.5.446a4.489 4.489 0 0 1-.532.342 4.5 4.5 0 0 0 .532-.342zm-.532.342a4.5 4.5 0 0 1-.111.06l.111-.06zm-.111.06c-.187.098-.38.188-.584.26a4.5 4.5 0 0 0 .584-.26z"/><path style="opacity:1;fill:#6d6d6d;fill-opacity:1;stroke:none;stroke-width:2;stroke-linejoin:round;stroke-miterlimit:4;stroke-dasharray:none;stroke-opacity:1" d="M2 5c-.554 0-1 .446-1 1v8c0 .554.446 1 1 1h8c.554 0 1-.446 1-1V6c0-.554-.446-1-1-1zm0 1h8v8H2z"/><path style="opacity:1;fill:#6d6d6d;fill-opacity:1;stroke:none;stroke-width:2;stroke-linejoin:round;stroke-miterlimit:4;stroke-dasharray:none;stroke-opacity:1" d="M9.5 1A5.5 5.5 0 0 0 4 6.5 5.5 5.5 0 0 0 9.5 12 5.5 5.5 0 0 0 15 6.5 5.5 5.5 0 0 0 9.5 1zm0 1A4.5 4.5 0 0 1 14 6.5 4.5 4.5 0 0 1 9.5 11 4.5 4.5 0 0 1 5 6.5 4.5 4.5 0 0 1 9.5 2z"/></svg>