<svg xmlns="http://www.w3.org/2000/svg" viewBox="0 0 16 16">/&gt;<path style="opacity:1;fill:#6d6d6d;stroke:#6d6d6d;stroke-width:2;stroke-linejoin:round;stroke-miterlimit:4;stroke-dasharray:none;fill-opacity:1;stroke-opacity:1" d="M3 12V4c0-2 1-2 3-2h4c2 0 3 0 3 2v8c0 2-1 2-3 2H6c-2 0-3 0-3-2z"/><path d="M3 12V4c0-2 1-2 3-2h4l3 3v7c0 2-1 2-3 2H6c-2 0-3 0-3-2z" style="fill:#fff"/><path d="M2 8v3.898C1.986 14.712 2.288 15 5.096 15h5.808C13.712 15 14 14.712 14 11.898V8z" style="color:#000;display:inline;overflow:visible;visibility:visible;opacity:.1;fill:#fff;fill-opacity:1;fill-rule:nonzero;stroke:none;stroke-width:1;marker:none;enable-background:accumulate"/></svg>