<svg xmlns="http://www.w3.org/2000/svg" viewBox="0 0 16 16"><path style="line-height:normal;font-variant-ligatures:normal;font-variant-position:normal;font-variant-caps:normal;font-variant-numeric:normal;font-variant-alternates:normal;font-variant-east-asian:normal;font-feature-settings:normal;font-variation-settings:normal;text-indent:0;text-align:start;text-decoration-line:none;text-decoration-style:solid;text-decoration-color:#000;text-transform:none;text-orientation:mixed;white-space:normal;shape-padding:0;shape-margin:0;inline-size:0;isolation:auto;mix-blend-mode:normal;solid-color:#000;solid-opacity:1" d="M8 1C4.146 1 1 4.146 1 8c0 3.687 2.88 6.717 6.504 6.975-.396-.108-.737-.345-.914-.774l-.463-1.117a1.267 1.267 0 01-.094-.482A4.985 4.985 0 013 8c0-2.773 2.227-5 5-5a4.984 4.984 0 014.596 3.021c.16.013.323.044.482.11l1.115.463c.438.18.68.538.784.95C14.739 3.904 11.7 1 8 1zm3.629 10.432c-.067.07-.135.136-.205.203.047.027.103.043.14.027.063-.026.114-.15.088-.21-.003-.009-.017-.013-.023-.02z" color="#000" font-weight="400" font-family="sans-serif" overflow="visible" opacity=".7"/><path d="M8 2a6 6 0 00-6 6 6 6 0 004.418 5.787l-.291-.703c-.244-.59-.021-1.146.379-1.572-.402-.43-.628-.99-.385-1.576a1 1 0 000-.002l.463-1.112c.242-.585.798-.823 1.385-.843.019-.586.256-1.135.845-1.38l1.116-.462c.591-.245 1.146-.022 1.572.379.135-.127.218-.321.387-.391.365-.151.788-.16 1.19.006l.712.295A6 6 0 008 2zm3.441 9.363c-.063.026-.113.15-.087.211.026.063.149.114.21.088.063-.026.114-.15.088-.21-.026-.064-.149-.114-.21-.089z" fill="#fee581"/><circle cx="11.5" cy="11.5" r="1.5" fill="#fff" fill-rule="evenodd"/><path d="M9.311 7.792a.244.244 0 00-.135.325l.273.657c-.26.195-.472.424-.662.678l-.674-.279a.248.248 0 00-.329.136l-.462 1.115a.248.248 0 00.137.329l.673.279a3.312 3.312 0 00-.011.948l-.657.272a.244.244 0 00-.135.325l.463 1.117c.054.13.194.189.325.135l.657-.272c.195.26.424.471.678.662l-.279.673a.248.248 0 00.136.329l1.115.462a.248.248 0 00.329-.136l.279-.674c.314.045.626.057.948.012l.272.657c.054.13.195.188.325.134l1.117-.462a.244.244 0 00.135-.326l-.272-.657c.26-.195.471-.424.662-.678l.673.28a.248.248 0 00.329-.137l.462-1.115a.248.248 0 00-.136-.329l-.674-.279c.045-.314.057-.625.012-.947l.657-.273a.244.244 0 00.134-.325l-.462-1.117a.244.244 0 00-.326-.135l-.657.273a3.312 3.312 0 00-.678-.662l.28-.674a.248.248 0 00-.137-.329l-1.115-.462a.248.248 0 00-.329.137l-.279.673a3.312 3.312 0 00-.947-.011l-.273-.657a.244.244 0 00-.325-.135zm1.756 2.66a1.138 1.138 0 11.87 2.103 1.138 1.138 0 01-.87-2.104z" display="block" fill="#d3d3d3" stroke="#4d4d4d" stroke-linejoin="round" stroke-width=".6"/></svg>