<svg xmlns="http://www.w3.org/2000/svg" viewBox="0 0 16 16"><path style="font-style:normal;font-variant:normal;font-weight:400;font-stretch:normal;font-size:15px;line-height:125%;font-family:Ubuntu;-inkscape-font-specification:Ubuntu;text-align:center;letter-spacing:0;word-spacing:0;writing-mode:lr-tb;text-anchor:middle;display:inline;opacity:.7;fill:#000;fill-opacity:1;stroke:none;stroke-width:.99980211" d="M8.011 4.973c-1.258.014-2.179-.03-2.932.385a1.88 1.88 0 0 0-.837.998c-.165.438-.225.96-.225 1.617v4c0 .658.06 1.179.225 1.618.164.438.461.788.837.996.753.415 1.674.371 2.932.386H11.023c1.258-.014 2.179.03 2.932-.385a1.88 1.88 0 0 0 .838-.998c.164-.438.224-.96.224-1.617v-4c0-.658-.06-1.18-.224-1.618a1.875 1.875 0 0 0-.838-.996c-.753-.415-1.674-.371-2.932-.386H8.015z"/><path style="opacity:1;vector-effect:none;fill:#fff;fill-opacity:1;stroke:none;stroke-width:1;stroke-linecap:round;stroke-linejoin:bevel;stroke-miterlimit:4;stroke-dasharray:none;stroke-dashoffset:0;stroke-opacity:1" d="M8 6c-1.557.01-.11-.012-1.66.039-.46.042-1.016.206-1.155.71-.219.635-.108 1.334-.146 1.982-.008 2.297-.023 1.596.022 3.885.039.462.202 1.013.699 1.164.632.225 1.284.123 1.936.154 1.424.007-.15.011 1.276.012 1.704 0 1.408-.006 3.107-.02.512-.011 1.184.02 1.585-.404.421-.54.287-1.268.323-1.904.012-2.444.027-1.911-.022-4.357-.05-.402-.17-.863-.575-1.044-.668-.294-1.426-.168-2.126-.206C9.509 6 9.754 6 8 6z"/><path d="M5 1c-1.258.014-2.179-.03-2.932.385a1.88 1.88 0 0 0-.838.998c-.164.438-.224.96-.224 1.617V8.001c0 .657.06 1.178.224 1.617.165.438.462.788.838.996.753.415 1.674.372 2.932.387H8.012c1.258-.015 2.179.03 2.932-.385a1.88 1.88 0 0 0 .837-.999c.165-.438.225-.96.225-1.617V4c0-.658-.06-1.179-.225-1.617a1.875 1.875 0 0 0-.837-.997C10.19.971 9.27 1.015 8.012 1H5.004z" style="font-style:normal;font-variant:normal;font-weight:400;font-stretch:normal;font-size:15px;line-height:125%;font-family:Ubuntu;-inkscape-font-specification:Ubuntu;text-align:center;letter-spacing:0;word-spacing:0;writing-mode:lr-tb;text-anchor:middle;display:inline;opacity:.7;fill:#000;fill-opacity:1;stroke:none;stroke-width:.99980211"/><path d="M4.989 2.027c-1.557.011-.11-.012-1.66.039-.46.043-1.016.206-1.155.71-.219.635-.108 1.334-.146 1.982-.008 2.297-.023 1.596.022 3.886.039.462.202 1.012.698 1.163.633.225 1.285.123 1.936.155 1.425.006-.15.01 1.276.01 1.705.001 1.41-.004 3.108-.018.512-.012 1.184.02 1.585-.405.421-.54.287-1.268.323-1.904.011-2.444.027-1.911-.022-4.357-.05-.402-.17-.863-.575-1.044-.669-.294-1.427-.168-2.126-.206-1.755-.012-1.51-.012-3.264-.01z" style="opacity:1;vector-effect:none;fill:#fff;fill-opacity:1;stroke:none;stroke-width:1;stroke-linecap:round;stroke-linejoin:bevel;stroke-miterlimit:4;stroke-dasharray:none;stroke-dashoffset:0;stroke-opacity:1"/><path d="M3 4v1h7V4z" style="fill:#232629;fill-opacity:1"/><rect style="opacity:1;fill:#fa9381;fill-opacity:1;stroke:none;stroke-width:2.64575124;stroke-linecap:round;stroke-linejoin:round;stroke-miterlimit:4;stroke-dasharray:none;stroke-opacity:1" width="7" height="1" x="3" y="7" ry="0"/><path style="opacity:1;fill:#fa9381;fill-opacity:1;stroke:none;stroke-width:2;stroke-linecap:round;stroke-linejoin:round;stroke-miterlimit:4;stroke-dasharray:none;stroke-opacity:1" d="M12 10h1v3h-1zM12 8h1v1h-1z"/></svg>