<svg xmlns="http://www.w3.org/2000/svg" viewBox="0 0 16 16">/&gt;<path d="m3.458 11.128 1.414 1.414c1.414 1.414 2.122 2.121 3.536.707l4.531-4.531C13.646 8.01 14 7.657 14 6.95V3.414C14 2.707 13.293 2 12.586 2H9.05c-.707 0-1.06.354-1.768 1.06L2.751 7.593c-1.414 1.414-.707 2.122.707 3.536z" style="fill:#000;fill-opacity:1;stroke:#000;stroke-width:2;stroke-linecap:butt;stroke-linejoin:miter;stroke-opacity:1;opacity:.7;stroke-miterlimit:4;stroke-dasharray:none"/><path style="fill:#ffd9b2;fill-opacity:1;stroke:none;stroke-width:1px;stroke-linecap:butt;stroke-linejoin:miter;stroke-opacity:1" d="m3.458 11.128 1.414 1.414c1.414 1.414 2.122 2.121 3.536.707l4.531-4.531C13.646 8.01 14 7.657 14 6.95V3.414C14 2.707 13.293 2 12.586 2H9.05c-.707 0-1.06.354-1.768 1.06L2.751 7.593c-1.414 1.414-.707 2.122.707 3.536z"/><circle r="1" cy="5" cx="11" style="opacity:.7;fill:#000;fill-opacity:1;stroke:#000;stroke-width:2;stroke-linejoin:round;stroke-miterlimit:4;stroke-dasharray:none;stroke-opacity:1"/><circle style="opacity:1;fill:#fff;fill-opacity:1;stroke:none;stroke-width:2;stroke-linejoin:round;stroke-miterlimit:4;stroke-dasharray:none;stroke-opacity:1" cx="11" cy="5" r="1"/></svg>