<svg xmlns="http://www.w3.org/2000/svg" viewBox="0 0 16 16">/&gt;<path d="M7.102 8.788v3h5v-3z" fill="#77216f"/><path d="M4.994 1c-1.258.014-2.179-.031-2.931.384a1.88 1.88 0 00-.838.998C1.06 2.821 1 3.342 1 4V11c0 .658.06 1.179.225 1.617.164.439.461.789.838.996.752.415 1.673.372 2.931.387h6.012c1.258-.015 2.179.03 2.931-.385a1.88 1.88 0 00.838-.998c.165-.438.225-.96.225-1.617V3.999c0-.657-.06-1.178-.225-1.617a1.875 1.875 0 00-.838-.996c-.752-.415-1.673-.372-2.931-.387H4.998z" style="line-height:125%;-inkscape-font-specification:Ubuntu;text-align:center" font-weight="400" font-size="15" font-family="Ubuntu" letter-spacing="0" word-spacing="0" text-anchor="middle" opacity=".7"/><path d="M4.983 2.026c-1.557.011-.11-.011-1.66.04-.46.042-1.016.206-1.155.71-.219.635-.108 1.333-.146 1.981-.007 2.297-.023 4.597.022 6.886.039.462.202 1.013.699 1.164.632.225 1.284.122 1.936.154 1.424.007-.15.011 1.276.011 1.704 0 4.408-.005 6.107-.018.512-.012 1.184.02 1.585-.405.42-.54.287-1.268.323-1.904.011-2.444.027-4.911-.022-7.357-.05-.402-.17-.863-.575-1.045-.669-.294-1.427-.168-2.126-.205-1.755-.012-4.51-.013-6.264-.012z" fill="#fff"/><path fill="#c5c5c5" d="M7 9.999h5.983v1H7zM3 7h2v1H3z"/><path fill="#232629" d="M13 6.999H6v1h7z"/><path fill="#c5c5c5" d="M9 3.999h3.983v1H9zM3 4h5v1H3zM3 10h3v1H3z"/></svg>