<svg xmlns="http://www.w3.org/2000/svg" xmlns:xlink="http://www.w3.org/1999/xlink" viewBox="0 0 16 16"><defs><linearGradient id="a"><stop offset="0" stop-color="#151515"/><stop offset="1" stop-color="#4d4d4d"/></linearGradient><linearGradient xlink:href="#a" id="b" x1="6" y1="4" x2="6" y2="12" gradientUnits="userSpaceOnUse"/></defs><path d="M6 4C4.343 4 3 5.12 3 6.5v3C3 10.88 4.343 12 6 12s3-1.12 3-2.5c0 1.38 1.343 2.5 3 2.5s3-1.12 3-2.5v-3C15 5.12 13.657 4 12 4S9 5.12 9 6.5C9 5.12 7.657 4 6 4zm0 2a1 1 0 011 1v2a1 1 0 11-2 0V7a1 1 0 011-1zm6 0a1 1 0 011 1v2a1 1 0 11-2 0V7a1 1 0 011-1zM1 10v2h2v-2H1z" stroke="#fff" stroke-width="2" stroke-linejoin="round"/><path d="M6 4C4.343 4 3 5.12 3 6.5v3C3 10.88 4.343 12 6 12s3-1.12 3-2.5c0 1.38 1.343 2.5 3 2.5s3-1.12 3-2.5v-3C15 5.12 13.657 4 12 4S9 5.12 9 6.5C9 5.12 7.657 4 6 4zm0 2a1 1 0 011 1v2a1 1 0 11-2 0V7a1 1 0 011-1zm6 0a1 1 0 011 1v2a1 1 0 11-2 0V7a1 1 0 011-1zM1 10v2h2v-2H1z" fill="url(#b)"/><circle cy="12.5" cx="12.5" r="3.5" fill="#c7162b"/><path overflow="visible" font-weight="400" style="line-height:normal;text-indent:0;text-align:start;text-decoration-line:none;text-decoration-style:solid;text-decoration-color:#000;text-transform:none;white-space:normal;isolation:auto;mix-blend-mode:normal;marker:none" d="M13.914 10.379L12.5 11.793l-1.414-1.414-.707.707 1.414 1.414-1.414 1.414.707.707 1.414-1.414 1.414 1.414.707-.707-1.414-1.414 1.414-1.414z" color="#000" font-family="sans-serif" fill="#fff"/></svg>