<svg xmlns="http://www.w3.org/2000/svg" viewBox="0 0 16 16">/&gt;<path style="line-height:125%;-inkscape-font-specification:Ubuntu;text-align:center" d="M5.012.973c-1.258.014-2.18-.03-2.932.384a1.88 1.88 0 00-.838.998c-.164.44-.224 2.275-.224 1.618v6c0 .657.06 1.178.224 1.617.165.438.462.788.838.996.753.415 1.674.372 2.932.387h1.09c-.174-.548.03-1.063.404-1.461-.402-.43-.628-.99-.385-1.576a1 1 0 000-.002l.463-1.112c.242-.585.798-.823 1.385-.843.019-.586.256-1.135.845-1.38l1.116-.462c.591-.245 1.146-.022 1.572.379.135-.127.218-.321.387-.391.365-.151.788-.16 1.19.006l1.114.463c.538.222.773.712.825 1.244V3.973c0-.658-.06-1.179-.225-1.618a1.875 1.875 0 00-.838-.996c-.753-.415-1.673-.371-2.932-.386H5.012zm6.43 10.39c-.064.026-.114.15-.088.211.026.063.149.114.21.088.063-.026.114-.15.088-.21-.026-.064-.149-.114-.21-.089z" font-weight="400" font-size="15" font-family="Ubuntu" letter-spacing="0" word-spacing="0" text-anchor="middle" opacity=".7"/><path d="M6 2c-1.557.01-1.108-.011-2.658.04-.461.042-1.017.204-1.156.708-.22.635-.11 1.334-.147 1.982-.008 2.298-.023 3.596.022 5.885.039.462.203 1.013.699 1.164.632.225 1.283.123 1.935.155l1.51.007c.081-.152.178-.299.3-.43-.401-.428-.627-.989-.384-1.575a1 1 0 000-.002l.463-1.112c.242-.585.798-.823 1.385-.843.019-.586.256-1.135.845-1.38l1.116-.462c.591-.245 1.146-.022 1.572.379.135-.127.218-.321.387-.391.365-.151.788-.16 1.19.006l.919.38c0-1-.008-1.999-.033-3.25-.05-.401-.171-.863-.576-1.044-.668-.294-1.426-.168-2.125-.205C9.509 2 7.754 1.999 6 2zm5.441 9.363c-.063.026-.113.15-.087.211.026.063.149.114.21.088.063-.026.114-.15.088-.21-.026-.064-.149-.114-.21-.089z" fill="#fff"/><circle cx="11.5" cy="11.5" r="1.5" fill="#fff" fill-rule="evenodd"/><path d="M9.311 7.792a.244.244 0 00-.135.325l.273.657c-.26.195-.472.424-.662.678l-.674-.279a.248.248 0 00-.329.136l-.462 1.115a.248.248 0 00.137.329l.673.279a3.312 3.312 0 00-.011.948l-.657.272a.244.244 0 00-.135.325l.463 1.117c.054.13.194.189.325.135l.657-.272c.195.26.424.471.678.662l-.279.673a.248.248 0 00.136.329l1.115.462a.248.248 0 00.329-.136l.279-.674c.314.045.626.057.948.012l.272.657c.054.13.195.188.325.134l1.117-.462a.244.244 0 00.135-.326l-.272-.657c.26-.195.471-.424.662-.678l.673.28a.248.248 0 00.329-.137l.462-1.115a.248.248 0 00-.136-.329l-.674-.279c.045-.314.057-.625.012-.947l.657-.273a.244.244 0 00.134-.325l-.462-1.117a.244.244 0 00-.326-.135l-.657.273a3.312 3.312 0 00-.678-.662l.28-.674a.248.248 0 00-.137-.329l-1.115-.462a.248.248 0 00-.329.137l-.279.673a3.312 3.312 0 00-.947-.011l-.273-.657a.244.244 0 00-.325-.135zm1.756 2.66a1.138 1.138 0 11.87 2.103 1.138 1.138 0 01-.87-2.104z" display="block" fill="#d3d3d3" stroke="#4d4d4d" stroke-linejoin="round" stroke-width=".6"/></svg>