<svg xmlns="http://www.w3.org/2000/svg" xmlns:xlink="http://www.w3.org/1999/xlink" viewBox="0 0 16 16"><defs><linearGradient xlink:href="#a" id="d" x1="328" y1="237" x2="328" y2="251" gradientUnits="userSpaceOnUse"/><linearGradient id="a"><stop style="stop-color:#fff;stop-opacity:1" offset="0"/><stop offset=".125" style="stop-color:#fff;stop-opacity:.09803922"/><stop offset=".925" style="stop-color:#fff;stop-opacity:.09803922"/><stop style="stop-color:#fff;stop-opacity:.49803922" offset="1"/></linearGradient><linearGradient xlink:href="#b" id="c" gradientUnits="userSpaceOnUse" gradientTransform="matrix(0 -.03604 .03604 0 -3.564 16.91)" x1="459.034" y1="419.233" x2="35.31" y2="207.365"/><linearGradient id="b"><stop style="stop-color:#f2f2f2;stop-opacity:1" offset="0"/><stop style="stop-color:#f9f9f9;stop-opacity:1" offset="1"/></linearGradient><clipPath clipPathUnits="userSpaceOnUse" id="e"><path d="M325.096 237c-2.807 0-3.11.288-3.096 3.102v7.796c-.013 2.814.289 3.102 3.096 3.102h5.808c2.808 0 3.096-.288 3.096-3.102v-7.796c0-2.814-.288-3.102-3.096-3.102z" style="color:#000;display:inline;overflow:visible;visibility:visible;opacity:1;fill:#46a926;fill-opacity:1;fill-rule:nonzero;stroke:none;stroke-width:2;stroke-miterlimit:4;stroke-dasharray:none;stroke-opacity:1;marker:none;enable-background:accumulate"/></clipPath></defs><path style="color:#000;font-style:normal;font-variant:normal;font-weight:400;font-stretch:normal;font-size:medium;line-height:normal;font-family:sans-serif;font-variant-ligatures:normal;font-variant-position:normal;font-variant-caps:normal;font-variant-numeric:normal;font-variant-alternates:normal;font-feature-settings:normal;text-indent:0;text-align:start;text-decoration:none;text-decoration-line:none;text-decoration-style:solid;text-decoration-color:#000;letter-spacing:normal;word-spacing:normal;text-transform:none;writing-mode:lr-tb;direction:ltr;text-orientation:mixed;dominant-baseline:auto;baseline-shift:baseline;text-anchor:start;white-space:normal;shape-padding:0;clip-rule:nonzero;display:inline;overflow:visible;visibility:visible;opacity:.1;isolation:auto;mix-blend-mode:normal;color-interpolation:sRGB;color-interpolation-filters:linearRGB;solid-color:#000;solid-opacity:1;vector-effect:none;fill:#000;fill-opacity:1;fill-rule:nonzero;stroke:none;stroke-width:2;stroke-linecap:butt;stroke-linejoin:miter;stroke-miterlimit:4;stroke-dasharray:none;stroke-dashoffset:0;stroke-opacity:1;marker:none;color-rendering:auto;image-rendering:auto;shape-rendering:auto;text-rendering:auto;enable-background:accumulate" d="M5.096 1c-.72 0-1.302.014-1.836.104s-1.068.276-1.477.683c-.408.407-.596.943-.685 1.479C1.008 3.8.997 4.386 1 5.107v6.791c-.003.719.01 1.303.098 1.836.089.536.277 1.072.685 1.479.409.407.943.594 1.477.683.534.09 1.117.104 1.836.104h5.809c.719 0 1.3-.014 1.834-.104.533-.09 1.067-.277 1.474-.685.407-.408.594-.943.684-1.477.09-.533.103-1.115.103-1.836V5.102c0-.72-.014-1.303-.103-1.836-.09-.534-.277-1.07-.684-1.477-.407-.408-.941-.596-1.474-.685-.534-.09-1.115-.104-1.834-.104z"/><path d="M5.097 1C2.289 1 1.987 1.288 2 4.102v7.796C1.987 14.712 2.289 15 5.097 15h5.807C13.712 15 14 14.712 14 11.898V4.102C14 1.288 13.712 1 10.904 1z" style="color:#000;display:inline;overflow:visible;visibility:visible;opacity:.2;fill:none;fill-opacity:1;fill-rule:nonzero;stroke:#000;stroke-width:2;stroke-miterlimit:4;stroke-dasharray:none;stroke-opacity:1;marker:none;enable-background:accumulate"/><path style="color:#000;display:inline;overflow:visible;visibility:visible;fill:url(#c);fill-opacity:1;fill-rule:nonzero;stroke:none;stroke-width:1;marker:none;enable-background:accumulate" d="M5.097 1C2.289 1 1.987 1.288 2 4.102v7.796C1.987 14.712 2.289 15 5.097 15h5.807C13.712 15 14 14.712 14 11.898V4.102C14 1.288 13.712 1 10.904 1z"/><path style="font-style:normal;font-variant:normal;font-weight:700;font-stretch:normal;font-size:medium;line-height:125%;font-family:Ubuntu;-inkscape-font-specification:'Ubuntu, Normal';text-align:center;letter-spacing:0;word-spacing:0;writing-mode:lr-tb;text-anchor:middle;display:inline;fill:#5884f4;fill-opacity:1;stroke:none;stroke-width:.99999994px;stroke-linecap:butt;stroke-linejoin:miter;stroke-opacity:1;enable-background:new" d="m3 7.115 2.918-1.228.264.821-2.13.828 2.13.828-.264.82L3 7.957zM7.386 10.82H6.348l2.28-6.568h1.024zM13 7.956l-2.917 1.229-.265-.821 2.13-.828-2.13-.828.265-.82L13 7.114z"/><path style="color:#000;display:inline;overflow:visible;visibility:visible;opacity:.2;fill:#fff;fill-opacity:1;fill-rule:nonzero;stroke:none;stroke-width:1;marker:none;enable-background:accumulate" d="M8 1v14h2.905C13.712 15 14 14.712 14 11.898V4.102C14 1.288 13.712 1 10.905 1z"/><path style="color:#000;display:inline;overflow:visible;visibility:visible;opacity:.2;fill:#fff;fill-opacity:1;fill-rule:nonzero;stroke:none;stroke-width:1;marker:none;enable-background:accumulate" d="M2 8v3.898C1.986 14.712 2.288 15 5.096 15h5.809C13.712 15 14 14.712 14 11.898V8z"/><path transform="translate(-320 -236)" style="color:#000;display:inline;overflow:visible;visibility:visible;opacity:.4;fill:none;fill-opacity:1;fill-rule:nonzero;stroke:url(#d);stroke-width:2;stroke-miterlimit:4;stroke-dasharray:none;stroke-opacity:1;marker:none;enable-background:accumulate" d="M325.096 237c-2.807 0-3.11.288-3.096 3.102v7.796c-.013 2.814.289 3.102 3.096 3.102h5.808c2.808 0 3.096-.288 3.096-3.102v-7.796c0-2.814-.288-3.102-3.096-3.102z" clip-path="url(#e)"/></svg>