<svg xmlns="http://www.w3.org/2000/svg" xmlns:xlink="http://www.w3.org/1999/xlink" viewBox="0 0 16 16"><defs><linearGradient xlink:href="#a" id="b" x1="8" y1="2" x2="8" y2="14" gradientUnits="userSpaceOnUse"/><linearGradient id="a"><stop style="stop-color:#151515;stop-opacity:1" offset="0"/><stop style="stop-color:#4d4d4d;stop-opacity:1" offset="1"/></linearGradient></defs><path d="M11.44 2.065a2.49 2.49 0 0 0-1.769.729L6.574 5.893a2.505 2.505 0 0 0 0 3.535c.121.12.253.225.39.316L7.7 9.01a1.486 1.486 0 0 1-.418-2.41l3.098-3.097a1.486 1.486 0 0 1 2.12 0 1.486 1.486 0 0 1 0 2.121l-1.312 1.312c.137.39-.057 1.066-.062 1.476l2.082-2.08a2.508 2.508 0 0 0 0-3.538 2.49 2.49 0 0 0-1.768-.729zM9.013 6.281l-.735.735a1.486 1.486 0 0 1 .418 2.412l-3.076 3.074a1.486 1.486 0 0 1-2.121 0 1.486 1.486 0 0 1 0-2.121l1.559-1.559a3.532 3.532 0 0 1-.205-1.209l-2.061 2.06a2.505 2.505 0 0 0 0 3.536 2.505 2.505 0 0 0 3.535 0l3.076-3.074a2.505 2.505 0 0 0-.39-3.854z" style="color:#000;font-style:normal;font-variant:normal;font-weight:400;font-stretch:normal;font-size:medium;line-height:normal;font-family:sans-serif;text-indent:0;text-align:start;text-decoration:none;text-decoration-line:none;text-decoration-style:solid;text-decoration-color:#000;letter-spacing:normal;word-spacing:normal;text-transform:none;writing-mode:lr-tb;direction:ltr;baseline-shift:baseline;text-anchor:start;white-space:normal;clip-rule:nonzero;display:inline;overflow:visible;visibility:visible;opacity:1;isolation:auto;mix-blend-mode:normal;color-interpolation:sRGB;color-interpolation-filters:linearRGB;solid-color:#000;solid-opacity:1;fill:#000;fill-opacity:1;fill-rule:nonzero;stroke:#fff;stroke-width:2;stroke-linecap:round;stroke-linejoin:round;stroke-miterlimit:4;stroke-dasharray:none;stroke-dashoffset:0;stroke-opacity:1;color-rendering:auto;image-rendering:auto;shape-rendering:auto;text-rendering:auto;enable-background:accumulate"/><path style="color:#000;font-style:normal;font-variant:normal;font-weight:400;font-stretch:normal;font-size:medium;line-height:normal;font-family:sans-serif;text-indent:0;text-align:start;text-decoration:none;text-decoration-line:none;text-decoration-style:solid;text-decoration-color:#000;letter-spacing:normal;word-spacing:normal;text-transform:none;writing-mode:lr-tb;direction:ltr;baseline-shift:baseline;text-anchor:start;white-space:normal;clip-rule:nonzero;display:inline;overflow:visible;visibility:visible;opacity:1;isolation:auto;mix-blend-mode:normal;color-interpolation:sRGB;color-interpolation-filters:linearRGB;solid-color:#000;solid-opacity:1;fill:url(#b);fill-opacity:1;fill-rule:nonzero;stroke:none;stroke-width:1;stroke-linecap:round;stroke-linejoin:round;stroke-miterlimit:4;stroke-dasharray:none;stroke-dashoffset:0;stroke-opacity:1;color-rendering:auto;image-rendering:auto;shape-rendering:auto;text-rendering:auto;enable-background:accumulate" d="M11.44 2.063a2.49 2.49 0 0 0-1.768.729L6.574 5.89a2.505 2.505 0 0 0 0 3.535c.122.122.253.226.391.317l.734-.734a1.486 1.486 0 0 1-.418-2.41L10.38 3.5a1.486 1.486 0 0 1 2.12 0 1.486 1.486 0 0 1 0 2.12l-1.311 1.312c.136.391-.058 1.067-.063 1.477l2.082-2.081a2.508 2.508 0 0 0 0-3.537 2.49 2.49 0 0 0-1.768-.729zM9.013 6.28l-.734.734c.149.073.292.166.417.291a1.486 1.486 0 0 1 0 2.122L5.621 12.5a1.486 1.486 0 0 1-2.12 0 1.486 1.486 0 0 1 0-2.121L5.058 8.82a3.532 3.532 0 0 1-.205-1.209l-2.06 2.06a2.505 2.505 0 0 0 0 3.536 2.505 2.505 0 0 0 3.534 0l3.077-3.074a2.505 2.505 0 0 0-.391-3.854z"/><circle style="opacity:1;vector-effect:none;fill:#c7162b;fill-opacity:1;stroke:none;stroke-width:3.49999976;stroke-linecap:butt;stroke-linejoin:round;stroke-miterlimit:4;stroke-dasharray:none;stroke-dashoffset:0;stroke-opacity:1" cy="12.5" cx="12.5" r="3.5"/><path overflow="visible" font-weight="400" style="color:#000;font-weight:400;line-height:normal;font-family:sans-serif;text-indent:0;text-align:start;text-decoration:none;text-decoration-line:none;text-decoration-style:solid;text-decoration-color:#000;text-transform:none;white-space:normal;overflow:visible;isolation:auto;mix-blend-mode:normal;fill:#fff;fill-opacity:1;marker:none" d="M13.914 10.379 12.5 11.793l-1.414-1.414-.707.707 1.414 1.414-1.414 1.414.707.707 1.414-1.414 1.414 1.414.707-.707-1.414-1.414 1.414-1.414z"/></svg>