<svg xmlns="http://www.w3.org/2000/svg" viewBox="0 0 16 16">/&gt;<path style="fill:#000;stroke:#000;opacity:.7;stroke-width:2;stroke-miterlimit:4;stroke-dasharray:none;stroke-linejoin:round" fill="#232629" d="M9.514 2 8.227 4.98l-.868-2.427-.746 2.506L4.93 3.02l1.845 3.301-3.107-2.095 2.393 2.828-3.028-1.139 1.805 1.39-2.797.885 3.227.465L2 10.123l3.615-.545-1.36 2.71 2.552-2.134-1.85 3.035 2.535-2.11-.642 2.359 1.289-2.885L9.004 14l.748-3.523 1.682 1.939-.625-2.09 2.558 1.494-3.062-2.224L14 10.28l-2.473-1.93 2.248-.494-2.677.137 2.718-2.07L10.75 7.07l2.027-2.29-3.22.6 1.851-1.92-2.537 2.263z"/><path d="M9.514 2 8.227 4.98l-.868-2.427-.746 2.506L4.93 3.02l1.845 3.301-3.107-2.095 2.393 2.828-3.028-1.139 1.805 1.39-2.797.885 3.227.465L2 10.123l3.615-.545-1.36 2.71 2.552-2.134-1.85 3.035 2.535-2.11-.642 2.359 1.289-2.885L9.004 14l.748-3.523 1.682 1.939-.625-2.09 2.558 1.494-3.062-2.224L14 10.28l-2.473-1.93 2.248-.494-2.677.137 2.718-2.07L10.75 7.07l2.027-2.29-3.22.6 1.851-1.92-2.537 2.263z" fill="#232629" style="fill:#fff"/></svg>