<svg xmlns="http://www.w3.org/2000/svg" viewBox="0 0 16 16">/&gt;<path d="M5 2s.559 2.632 0 3.75C4.441 6.868 2 8 2 8s2.441 1.132 3 2.25C5.559 11.368 5 14 5 14s1.75-2.25 3-2.25S11 14 11 14s-.559-2.632 0-3.75C11.559 9.132 14 8 14 8s-2.441-1.132-3-2.25C10.441 4.632 11 2 11 2S9.25 4.25 8 4.25 5 2 5 2z" stroke="#000" opacity=".7" stroke-width="2" stroke-linejoin="round"/><path d="M5 2s.559 2.632 0 3.75C4.441 6.868 2 8 2 8s2.441 1.132 3 2.25C5.559 11.368 5 14 5 14s1.75-2.25 3-2.25S11 14 11 14s-.559-2.632 0-3.75C11.559 9.132 14 8 14 8s-2.441-1.132-3-2.25C10.441 4.632 11 2 11 2S9.25 4.25 8 4.25 5 2 5 2z" fill="#fff"/></svg>