<svg xmlns="http://www.w3.org/2000/svg" xmlns:xlink="http://www.w3.org/1999/xlink" viewBox="0 0 16 16"><defs><linearGradient id="a"><stop style="stop-color:#151515;stop-opacity:1" offset="0"/><stop style="stop-color:#4d4d4d;stop-opacity:1" offset="1"/></linearGradient><linearGradient xlink:href="#a" id="b" x1="7" y1="2" x2="7" y2="13" gradientUnits="userSpaceOnUse"/></defs><path d="M7.383 4 3 15h2.357l1.19-3h4.906l1.19 3H15L10.617 4H9ZM9 5.496 10.686 10H7.315Z" style="fill:#6d6d6d;fill-opacity:1;stroke:#6d6d6d;stroke-width:2;stroke-linejoin:round;stroke-miterlimit:4;stroke-dasharray:none;stroke-opacity:1"/><path style="opacity:1;fill:#000;fill-opacity:1;stroke:#fff;stroke-width:2;stroke-linejoin:round;stroke-miterlimit:4;stroke-dasharray:none" d="M5.383 2 1 13h2.357l1.19-3h4.906l1.19 3H13L8.617 2H7zM7 3.496 8.686 8H5.314z"/><path style="fill:url(#b);fill-opacity:1;stroke-width:1" d="M5.383 2 1 13h2.357l1.19-3h4.906l1.19 3H13L8.617 2H7zM7 3.496 8.686 8H5.314z"/></svg>