<svg xmlns="http://www.w3.org/2000/svg" viewBox="0 0 16 16">/&gt;<path style="fill:#000;stroke:#000;opacity:.7;stroke-width:2;stroke-miterlimit:4;stroke-dasharray:none;stroke-linejoin:round" fill="#232629" d="M8 2c-.829 0-1.758 1.758-1.758 1.758s-1.899-.586-2.484 0 0 2.484 0 2.484S2 7.172 2 8s1.758 1.758 1.758 1.758-.586 1.899 0 2.484c.585.586 2.484 0 2.484 0S7.172 14 8 14s1.758-1.758 1.758-1.758 1.899.586 2.484 0c.586-.585 0-2.484 0-2.484S14 8.828 14 8s-1.758-1.758-1.758-1.758.586-1.899 0-2.484c-.585-.586-2.484 0-2.484 0S8.828 2 8 2zm0 3a3 3 0 1 1 0 6 3 3 0 0 1 0-6z"/><path d="M8 2c-.829 0-1.758 1.758-1.758 1.758s-1.899-.586-2.484 0 0 2.484 0 2.484S2 7.172 2 8s1.758 1.758 1.758 1.758-.586 1.899 0 2.484c.585.586 2.484 0 2.484 0S7.172 14 8 14s1.758-1.758 1.758-1.758 1.899.586 2.484 0c.586-.585 0-2.484 0-2.484S14 8.828 14 8s-1.758-1.758-1.758-1.758.586-1.899 0-2.484c-.585-.586-2.484 0-2.484 0S8.828 2 8 2zm0 3a3 3 0 1 1 0 6 3 3 0 0 1 0-6z" fill="#232629" style="fill:#fff"/></svg>