<svg xmlns="http://www.w3.org/2000/svg" viewBox="0 0 16 16"><path style="fill:#000;stroke:#000;opacity:.7;stroke-width:2;stroke-miterlimit:4;stroke-dasharray:none;stroke-linejoin:round" fill="#232629" d="m6.531 2 1 3h.938l1-3zm-.906.375-3.25 3.25 2.906.969L6.594 5.28zm4.75 0-.969 2.906 1.313 1.313 2.906-.969zM2 6.531V9.47l3-1V7.53zm12 0-3 1v.938l3 1zM5.281 9.406l-2.906.969 3.25 3.25.969-2.906zm5.438 0L9.406 10.72l.969 2.906 3.25-3.25zM7.53 11l-1 3H9.47l-1-3z"/><path d="M6 2 2 6v4l4 4h4l4-4V6l-4-4z" fill="#b3b3b3" style="fill:#6d6d6d;fill-opacity:1"/><path d="m6.531 2 1 3h.938l1-3zm-.906.375-3.25 3.25 2.906.969L6.594 5.28zm4.75 0-.969 2.906 1.313 1.313 2.906-.969zM2 6.531V9.47l3-1V7.53zm12 0-3 1v.938l3 1zM5.281 9.406l-2.906.969 3.25 3.25.969-2.906zm5.438 0L9.406 10.72l.969 2.906 3.25-3.25zM7.53 11l-1 3H9.47l-1-3z" fill="#232629" style="fill:#fff;fill-opacity:1"/></svg>