<svg xmlns="http://www.w3.org/2000/svg" viewBox="0 0 16 16">/&gt;<path style="fill:#000;stroke:#000;opacity:.7;stroke-width:2;stroke-miterlimit:4;stroke-dasharray:none;stroke-linejoin:round" fill="#232629" d="M6 2a2 2 0 0 0-2 2v8a2 2 0 0 0 2 2h1v-1H6a1 1 0 0 1-1-1V4a1 1 0 0 1 1-1h1V2zm3 0v1h1a1 1 0 0 1 1 1v8a1 1 0 0 1-1 1H9v1h1a2 2 0 0 0 2-2V4a2 2 0 0 0-2-2z"/><path d="M6 2a2 2 0 0 0-2 2v8a2 2 0 0 0 2 2h1v-1H6a1 1 0 0 1-1-1V4a1 1 0 0 1 1-1h1V2zm3 0v1h1a1 1 0 0 1 1 1v8a1 1 0 0 1-1 1H9v1h1a2 2 0 0 0 2-2V4a2 2 0 0 0-2-2z" fill="#232629" style="fill:#fff"/></svg>