<svg xmlns="http://www.w3.org/2000/svg" viewBox="0 0 16 16"><path style="fill:#f3d8f2;fill-opacity:1;stroke:#77216f;stroke-width:1px;stroke-linecap:square;stroke-linejoin:miter;stroke-opacity:1" d="M1.5 11.5v4h4l3-3"/><path style="opacity:1;fill:#f3d8f2;fill-opacity:1;stroke:none;stroke-width:2;stroke-linecap:round;stroke-linejoin:round;stroke-miterlimit:4;stroke-dasharray:none;stroke-opacity:1" d="M2 1h12v12H2z"/><path d="M1 2v11h11c2 0 3 0 3-2V2c0-2-1-2-3-2H4C2 0 1 0 1 2zm3-1h1v3H2V2c0-1 1-1 2-1zm2 0h4v3H6zm5 0h1c1 0 2 0 2 1v2h-3zM2 5h3v3H2zm4 0h4v3H6zm5 0h3v3h-3zM2 9h3v3H2zm4 0h4v3H6zm5 0h3v2c0 1-1 1-2 1h-1z" style="fill:#77216f;fill-opacity:1"/></svg>