<svg xmlns="http://www.w3.org/2000/svg" viewBox="0 0 16 16"><circle cx="8" cy="8" r="7" fill="#1a7fd4"/><path d="M8.021 4.236h0a4.08 4.08 0 00-.982.116c-.28.07-.528.167-.757.28l.234.625c.447-.219.905-.339 1.374-.339.394 0 .707.101.922.309.213.198.32.462.32.775 0 .195-.047.378-.14.545a2.09 2.09 0 01-.33.461c-.133.143-.274.286-.421.428h0l-.002.001c-.144.132-.28.279-.41.439h-.001v.001c-.128.15-.234.315-.32.494a1.448 1.448 0 00-.115.586c0 .13.016.253.037.373h.706c0-.015-.004-.028-.004-.043V9.17c0-.243.05-.464.15-.66.098-.196.22-.375.363-.535h0v-.002c.142-.166.298-.323.47-.474.165-.147.317-.3.454-.46.135-.159.25-.328.342-.506v0c.09-.181.135-.385.135-.617a1.87 1.87 0 00-.095-.573V5.34l-.001-.002a1.27 1.27 0 00-.313-.543 1.69 1.69 0 00-.621-.396h-.003c-.25-.108-.582-.165-.993-.165zm-.175 6.252c-.211 0-.365.062-.482.188a.63.63 0 00-.179.45c0 .175.058.321.179.45.117.127.27.189.482.189.21 0 .365-.062.482-.188a.632.632 0 00.179-.45.63.63 0 00-.179-.451c-.117-.126-.271-.188-.482-.188z" style="line-height:125%;-inkscape-font-specification:'Ubuntu Medium';text-align:center" font-weight="500" font-size="72.036" font-family="Ubuntu" letter-spacing="0" word-spacing="0" text-anchor="middle" fill="#fff" stroke="#fff" stroke-width=".471"/><circle cy="12" cx="12" r="3" opacity=".7" stroke="#000" stroke-width="2" stroke-linejoin="round"/><circle cy="12" cx="12" r="3" fill="#fff"/><path d="M11 10v4l3-2z" fill="#1a7fd4"/></svg>