<svg xmlns="http://www.w3.org/2000/svg" xmlns:xlink="http://www.w3.org/1999/xlink" viewBox="0 0 16 16"><defs><linearGradient id="a"><stop offset="0" stop-color="#151515"/><stop offset="1" stop-color="#4d4d4d"/></linearGradient><linearGradient xlink:href="#a" id="b" x1="8" y1="2" x2="8" y2="14" gradientUnits="userSpaceOnUse"/></defs><path d="M8.299 2C7 2 5.98 2.296 5.242 2.887c-.733.59-1.1 1.403-1.1 2.435 0 .549.113 1.026.337 1.436.223.41.523.77.898 1.078.375.309.938.631 1.687.967.8.362 1.329.626 1.586.79.263.166.462.337.596.518a.973.973 0 01.201.608c0 .41-.153.718-.46.926-.303.207-.738.312-1.31.312A6.577 6.577 0 016.1 11.74c-.571-.143-1.272-.39-2.1-.742v2.299c1.007.468 2.165.703 3.475.703 1.421 0 2.53-.303 3.324-.91.8-.607 1.201-1.436 1.201-2.49 0-.762-.213-1.405-.639-1.926-.425-.527-1.21-1.05-2.357-1.572-.868-.394-1.42-.666-1.654-.815a1.803 1.803 0 01-.504-.47 1.036 1.036 0 01-.16-.575c0-.351.131-.637.394-.855.263-.219.642-.326 1.135-.326.414 0 .832.049 1.258.15.43.101.974.28 1.629.535l.84-1.924c-.633-.26-1.24-.463-1.823-.607A7.495 7.495 0 008.3 2z" fill="#fff" stroke="#fff" stroke-width="2" stroke-linejoin="round"/><path d="M8.299 2C7 2 5.98 2.296 5.242 2.887c-.733.59-1.1 1.403-1.1 2.435 0 .549.113 1.026.337 1.436.223.41.523.77.898 1.078.375.309.938.631 1.687.967.8.362 1.329.626 1.586.79.263.166.462.337.596.518a.973.973 0 01.201.608c0 .41-.153.718-.46.926-.303.207-.738.312-1.31.312A6.577 6.577 0 016.1 11.74c-.571-.143-1.272-.39-2.1-.742v2.299c1.007.468 2.165.703 3.475.703 1.421 0 2.53-.303 3.324-.91.8-.607 1.201-1.436 1.201-2.49 0-.762-.213-1.405-.639-1.926-.425-.527-1.21-1.05-2.357-1.572-.868-.394-1.42-.666-1.654-.815a1.803 1.803 0 01-.504-.47 1.036 1.036 0 01-.16-.575c0-.351.131-.637.394-.855.263-.219.642-.326 1.135-.326.414 0 .832.049 1.258.15.43.101.974.28 1.629.535l.84-1.924c-.633-.26-1.24-.463-1.823-.607A7.495 7.495 0 008.3 2z" fill="url(#b)"/></svg>