<svg xmlns="http://www.w3.org/2000/svg" viewBox="0 0 16 16">/&gt;<path d="M6 2a2 2 0 00-2 2v3a.5.5 0 01-.5.5H3v1h.5A.5.5 0 014 9v3a2 2 0 002 2h1v-1H6a1 1 0 01-1-1V9a1.5 1.5 0 00-.375-1A1.5 1.5 0 005 7V4a1 1 0 011-1h1V2zm3 0v1h1a1 1 0 011 1v3c0 .382.14.735.375 1A1.5 1.5 0 0011 9v3a1 1 0 01-1 1H9v1h1a2 2 0 002-2V9a.5.5 0 01.5-.5h.5v-1h-.5A.5.5 0 0112 7V4a2 2 0 00-2-2z" stroke="#000" opacity=".7" stroke-width="2" stroke-linejoin="round"/><path d="M6 2a2 2 0 00-2 2v3a.5.5 0 01-.5.5H3v1h.5A.5.5 0 014 9v3a2 2 0 002 2h1v-1H6a1 1 0 01-1-1V9a1.5 1.5 0 00-.375-1A1.5 1.5 0 005 7V4a1 1 0 011-1h1V2zm3 0v1h1a1 1 0 011 1v3c0 .382.14.735.375 1A1.5 1.5 0 0011 9v3a1 1 0 01-1 1H9v1h1a2 2 0 002-2V9a.5.5 0 01.5-.5h.5v-1h-.5A.5.5 0 0112 7V4a2 2 0 00-2-2z" fill="#fff"/></svg>