<svg xmlns="http://www.w3.org/2000/svg" viewBox="0 0 16 16">/&amp;gt;<path style="fill:#e95420;fill-opacity:1" d="M2 10v5h1v-2h2.887l.222-.223A2.056 2.056 0 0 1 5.287 12H3v-2H2zm11 0v2h-1.887l-.222.223c.343.175.627.448.824.777H13v2h1v-5h-1z"/><g fill="#77216F" style="fill:#e95420;fill-opacity:1"><rect height="2" ry="1" width="2" x="6" y="10" style="fill:#e95420;fill-opacity:1"/><circle cx="10" cy="14" r="1" style="fill:#e95420;fill-opacity:1"/><path d="M10.3 10 6 14.3l.7.7 4.3-4.3z" fill-rule="evenodd" style="fill:#e95420;fill-opacity:1"/></g><path style="opacity:1;fill:#fff;fill-opacity:1;stroke:none;stroke-width:2;stroke-linecap:round;stroke-linejoin:round;stroke-miterlimit:4;stroke-dasharray:none;stroke-opacity:1" d="M2 2h12v5H2z"/><path style="fill:#6d6d6d;fill-opacity:1" d="M4 1C2 1 1 1 1 3v5h14V3c0-2-1-2-3-2zm0 1h1v2H2V3c0-1 1-1 2-1zm2 0h4v2H6zm5 0h1c1 0 2 0 2 1v1h-3zM2 5h3v2H2zm4 0h4v2H6zm5 0h3v2h-3z"/></svg>