<svg xmlns="http://www.w3.org/2000/svg" viewBox="0 0 16 16"><path d="M2 2v12h4.506l-.379-.916c-.244-.59-.021-1.146.379-1.572-.402-.43-.628-.99-.385-1.576a1 1 0 000-.002l.463-1.112c.242-.585.798-.823 1.385-.843.019-.586.256-1.135.845-1.38l1.116-.462c.591-.245 1.146-.022 1.572.379.135-.127.218-.321.387-.391.365-.151.788-.16 1.19.006l.921.383V2H2zm9.441 9.363c-.063.026-.113.15-.087.211.026.063.149.114.21.088.063-.026.114-.15.088-.21-.026-.064-.149-.114-.21-.089z" fill="#fff"/><path d="M4 1C2 1 1 1 1 3v10c0 2 1 2 3 2h3.629c-.449-.088-.843-.326-1.04-.799L6.507 14H6v-3h.168a1.283 1.283 0 01-.063-1H6V6h4v.121a1.278 1.278 0 011 .063V6h3v.514l.193.08c.494.204.73.634.807 1.115V3c0-2-1-2-3-2H4zm0 1h1v3H2V3c0-1 1-1 2-1zm2 0h4v3H6V2zm5 0h1c1 0 2 0 2 1v2h-3V2zM2 6h3v4H2V6zm0 5h3v3H4c-1 0-2 0-2-1v-2z" fill="#6d6d6d"/><circle cx="11.5" cy="11.5" r="1.5" fill="#fff" fill-rule="evenodd"/><path d="M9.311 7.792a.244.244 0 00-.135.325l.273.657c-.26.195-.472.424-.662.678l-.674-.279a.248.248 0 00-.329.136l-.462 1.115a.248.248 0 00.137.329l.673.279a3.312 3.312 0 00-.011.948l-.657.272a.244.244 0 00-.135.325l.463 1.117c.054.13.194.189.325.135l.657-.272c.195.26.424.471.678.662l-.279.673a.248.248 0 00.136.329l1.115.462a.248.248 0 00.329-.136l.279-.674c.314.045.626.057.948.012l.272.657c.054.13.195.188.325.134l1.117-.462a.244.244 0 00.135-.326l-.272-.657c.26-.195.471-.424.662-.678l.673.28a.248.248 0 00.329-.137l.462-1.115a.248.248 0 00-.136-.329l-.674-.279c.045-.314.057-.625.012-.947l.657-.273a.244.244 0 00.134-.325l-.462-1.117a.244.244 0 00-.326-.135l-.657.273a3.312 3.312 0 00-.678-.662l.28-.674a.248.248 0 00-.137-.329l-1.115-.462a.248.248 0 00-.329.137l-.279.673a3.312 3.312 0 00-.947-.011l-.273-.657a.244.244 0 00-.325-.135zm1.756 2.66a1.138 1.138 0 11.87 2.103 1.138 1.138 0 01-.87-2.104z" display="block" fill="#d3d3d3" stroke="#4d4d4d" stroke-linejoin="round" stroke-width=".6"/></svg>