<svg xmlns="http://www.w3.org/2000/svg" viewBox="0 0 16 16">/&gt;<path style="opacity:.6;fill:#000;fill-opacity:1;fill-rule:evenodd;stroke-width:.75;stroke-linecap:square;stroke-linejoin:round" d="M3 1a1.989 1.989 0 0 0-2 2v11h14V3c0-1.108-.892-2-2-2z"/><path style="fill:#fff;fill-opacity:1;fill-rule:evenodd;stroke:none;stroke-width:.75;stroke-linecap:square;stroke-linejoin:round;stroke-opacity:1" d="M2 6h12v7H2zM3 2c-.554 0-1 .446-1 1v2h12V3c0-.554-.446-1-1-1z"/><path style="fill:#e95420;fill-opacity:1;fill-rule:evenodd;stroke:none;stroke-width:.75;stroke-linecap:square;stroke-linejoin:round;stroke-opacity:1" d="M12 3h1v1h-1z"/><path style="fill:#232629;fill-opacity:1;fill-rule:evenodd;stroke:none;stroke-width:.75;stroke-linecap:square;stroke-linejoin:round;stroke-opacity:1" d="M10 3h1v1h-1zM8 3h1v1H8z"/><path d="m3 15 12-6v6z" style="opacity:.7;fill:#000;fill-opacity:1;stroke:#000;stroke-width:2;stroke-linecap:butt;stroke-linejoin:round;stroke-miterlimit:4;stroke-dasharray:none;stroke-opacity:1"/><path style="opacity:1;fill:#fff;fill-opacity:1;stroke:none;stroke-width:1px;stroke-linecap:butt;stroke-linejoin:miter;stroke-opacity:1" d="m3 15 12-6v6z"/></svg>