<svg xmlns="http://www.w3.org/2000/svg" xmlns:xlink="http://www.w3.org/1999/xlink" viewBox="0 0 16 16"><defs><linearGradient id="a"><stop offset="0" stop-color="#151515"/><stop offset="1" stop-color="#4d4d4d"/></linearGradient><linearGradient xlink:href="#a" id="b" x1="8" y1="2" x2="8" y2="15" gradientUnits="userSpaceOnUse"/></defs>/&gt;<path d="M4 2v8c0 1.657 1.567 3 3.5 3h1c1.933 0 3.5-1.343 3.5-3V2h-2v7a2 2 0 11-4 0V2H4zM2 14v1h12v-1H2z" stroke="#fff" stroke-width="2" stroke-linejoin="round"/><path d="M4 2v8c0 1.657 1.567 3 3.5 3h1c1.933 0 3.5-1.343 3.5-3V2h-2v7a2 2 0 11-4 0V2H4zM2 14v1h12v-1H2z" fill="url(#b)"/></svg>