<svg xmlns="http://www.w3.org/2000/svg" viewBox="0 0 16 16"><path style="opacity:.7;fill:#000;fill-opacity:1;stroke:#000;stroke-width:2;stroke-linejoin:round;stroke-miterlimit:4;stroke-dasharray:none" d="M2 11V4h6v7z"/><path d="M2 11V4h6v7z" style="fill:#d85eca;fill-opacity:1;stroke-width:.75"/><path style="fill:#232629;fill-opacity:1;fill-rule:evenodd;stroke-width:2;stroke-linecap:round;stroke-linejoin:round" d="M16 3v1h-6V3h3z"/><path style="fill:#fff;fill-opacity:1;fill-rule:evenodd;stroke-width:2;stroke-linecap:round;stroke-linejoin:round" d="M15 4v1H9V4h3z"/><path style="fill:#232629;fill-opacity:1;fill-rule:evenodd;stroke-width:2;stroke-linecap:round;stroke-linejoin:round" d="M16 11v1h-6v-1h3z"/><path style="fill:#fff;fill-opacity:1;fill-rule:evenodd;stroke-width:2;stroke-linecap:round;stroke-linejoin:round" d="M15 10v1H9v-1h3z"/><path style="fill:#232629;fill-opacity:1;fill-rule:evenodd;stroke-width:2;stroke-linecap:round;stroke-linejoin:round" d="M16 5v1h-6V5h3z"/><path style="fill:#fff;fill-opacity:1;fill-rule:evenodd;stroke-width:2;stroke-linecap:round;stroke-linejoin:round" d="M15 6v1H9V6h3z"/><path style="fill:#232629;fill-opacity:1;fill-rule:evenodd;stroke-width:2;stroke-linecap:round;stroke-linejoin:round" d="M16 9v1h-6V9h3z"/><path style="fill:#fff;fill-opacity:1;fill-rule:evenodd;stroke-width:2;stroke-linecap:round;stroke-linejoin:round" d="M15 8v1H9V8h3z"/><path style="fill:#232629;fill-opacity:1;fill-rule:evenodd;stroke-width:2;stroke-linecap:round;stroke-linejoin:round" transform="scale(-1)" d="M-16-14H0v1h-16z"/><path style="fill:#fff;fill-opacity:1;fill-rule:evenodd;stroke-width:2;stroke-linecap:round;stroke-linejoin:round" transform="scale(-1)" d="M-15-13h14v1h-14z"/><path style="fill:#232629;fill-opacity:1;fill-rule:evenodd;stroke-width:2;stroke-linecap:round;stroke-linejoin:round" transform="scale(-1 1)" d="M-16 1H0v1h-16z"/><path style="fill:#fff;fill-opacity:1;fill-rule:evenodd;stroke-width:2;stroke-linecap:round;stroke-linejoin:round" transform="scale(-1 1)" d="M-15 2h14v1h-14z"/><path style="fill:#232629;fill-opacity:1;fill-rule:evenodd;stroke-width:2;stroke-linecap:round;stroke-linejoin:round" d="M16 7v1h-6V7h3z"/></svg>