<svg xmlns="http://www.w3.org/2000/svg" viewBox="0 0 16 16"><path style="opacity:.7;fill:#000;fill-opacity:1;stroke:#000;stroke-width:2;stroke-linejoin:round;stroke-miterlimit:4;stroke-dasharray:none" d="M14 11V4H8v7z"/><path d="M14 11V4H8v7z" style="fill:#d85eca;fill-opacity:1;stroke-width:.75"/><path style="fill:#232629;fill-opacity:1;fill-rule:evenodd;stroke-width:2;stroke-linecap:round;stroke-linejoin:round" d="M0 3v1h6V3H0z"/><path style="fill:#fff;fill-opacity:1;fill-rule:evenodd;stroke-width:2;stroke-linecap:round;stroke-linejoin:round" d="M1 4v1h6V4H4z"/><path style="fill:#232629;fill-opacity:1;fill-rule:evenodd;stroke-width:2;stroke-linecap:round;stroke-linejoin:round" d="M0 11v1h6v-1H0z"/><path style="fill:#fff;fill-opacity:1;fill-rule:evenodd;stroke-width:2;stroke-linecap:round;stroke-linejoin:round" d="M1 10v1h6v-1H4z"/><path style="fill:#232629;fill-opacity:1;fill-rule:evenodd;stroke-width:2;stroke-linecap:round;stroke-linejoin:round" d="M0 5v1h6V5H0z"/><path style="fill:#fff;fill-opacity:1;fill-rule:evenodd;stroke-width:2;stroke-linecap:round;stroke-linejoin:round" d="M1 6v1h6V6H4z"/><path style="fill:#232629;fill-opacity:1;fill-rule:evenodd;stroke-width:2;stroke-linecap:round;stroke-linejoin:round" d="M0 9v1h6V9H0z"/><path style="fill:#fff;fill-opacity:1;fill-rule:evenodd;stroke-width:2;stroke-linecap:round;stroke-linejoin:round" d="M1 8v1h6V8H4z"/><path style="fill:#232629;fill-opacity:1;fill-rule:evenodd;stroke-width:2;stroke-linecap:round;stroke-linejoin:round" transform="scale(1 -1)" d="M0-14h16v1H0z"/><path style="fill:#fff;fill-opacity:1;fill-rule:evenodd;stroke-width:2;stroke-linecap:round;stroke-linejoin:round" transform="scale(1 -1)" d="M1-13h14v1H1z"/><path style="fill:#232629;fill-opacity:1;fill-rule:evenodd;stroke-width:2;stroke-linecap:round;stroke-linejoin:round" d="M0 1h16v1H0z"/><path style="fill:#fff;fill-opacity:1;fill-rule:evenodd;stroke-width:2;stroke-linecap:round;stroke-linejoin:round" d="M1 2h14v1H1z"/><path style="fill:#232629;fill-opacity:1;fill-rule:evenodd;stroke-width:2;stroke-linecap:round;stroke-linejoin:round" d="M0 7v1h6V7H0z"/></svg>