<svg xmlns="http://www.w3.org/2000/svg" viewBox="0 0 16 16">/&gt;<path style="line-height:normal;font-variant-ligatures:normal;font-variant-position:normal;font-variant-caps:normal;font-variant-numeric:normal;font-variant-alternates:normal;font-feature-settings:normal;text-indent:0;text-align:start;text-decoration-line:none;text-decoration-style:solid;text-decoration-color:#000;text-transform:none;text-orientation:mixed;white-space:normal;shape-padding:0;isolation:auto;mix-blend-mode:normal;solid-color:#000;solid-opacity:1" d="M7 1.006a6.5 6.5 0 00-4.096 11.076 6.5 6.5 0 008.002.932l1.543 1.543a1 1 0 001.414 0l.707-.707a1 1 0 000-1.414l-1.543-1.543a6.5 6.5 0 00.551-5.7L11 6.805V4H7z" color="#000" font-weight="400" font-family="sans-serif" overflow="visible" opacity=".7"/><path d="M7 2.01a5.5 5.5 0 00-3.389 1.588 5.5 5.5 0 000 7.777 5.5 5.5 0 007.407.336l2.138 2.139.707-.707-2.14-2.141a5.5 5.5 0 00.988-5.266L11 6.805V4H7V2.01z" fill="#fff"/><path d="M16 2.5L12 5V3H8V2h4V0z" fill="#e95420"/></svg>