<svg xmlns="http://www.w3.org/2000/svg" xmlns:xlink="http://www.w3.org/1999/xlink" viewBox="0 0 24 24"><defs><linearGradient id="a"><stop style="stop-color:#151515;stop-opacity:1" offset="0"/><stop style="stop-color:#4d4d4d;stop-opacity:1" offset="1"/></linearGradient><linearGradient xlink:href="#a" id="b" x1="11" y1="5" x2="11" y2="19" gradientUnits="userSpaceOnUse" gradientTransform="translate(.075)"/></defs><path style="opacity:1;fill:#000;stroke:#fff;stroke-width:3;stroke-linejoin:round;stroke-miterlimit:4;stroke-dasharray:none;stroke-opacity:1" d="M13.863 4.5a7.966 7.966 0 0 0-3.271.68 8.058 8.058 0 0 0-2.666 1.906c-1.6 1.756-2.36 3.16-2.426 5.684 0 .984.135 1.888.404 2.714.278.826.674 1.538 1.188 2.133a5.354 5.354 0 0 0 1.883 1.395c.75.325 1.595.488 2.539.488 1.196 0 2.248-.202 3.158-.607a7.39 7.39 0 0 0 2.414-1.74l-.797-.905c-.042-.08-.134-.12-.277-.12-.127 0-.278.084-.455.25a6.125 6.125 0 0 1-.721.536c-.303.199-.69.382-1.162.549-.472.159-1.066.238-1.781.238-5.016-.608-5.393-5.761-2.4-9.411a5.494 5.494 0 0 1 4.244-1.967c.412 0 .776.036 1.087.107.312.064.581.147.809.25.227.103.42.215.58.334.16.111.3.22.418.322.126.104.235.19.328.262a.488.488 0 0 0 .277.096.54.54 0 0 0 .291-.072c.076-.048.148-.107.215-.178l.758-.871a5.6 5.6 0 0 0-.846-.858 4.319 4.319 0 0 0-1.023-.654 5.205 5.205 0 0 0-1.238-.418 7.487 7.487 0 0 0-1.53-.143Z"/><path d="M13.863 4.5a7.966 7.966 0 0 0-3.271.68 8.058 8.058 0 0 0-2.666 1.906c-1.6 1.756-2.36 3.16-2.426 5.684 0 .984.135 1.888.404 2.714.278.826.674 1.538 1.188 2.133a5.354 5.354 0 0 0 1.883 1.395c.75.325 1.595.488 2.539.488 1.196 0 2.248-.202 3.158-.607a7.39 7.39 0 0 0 2.414-1.74l-.797-.905c-.042-.08-.134-.12-.277-.12-.127 0-.278.084-.455.25a6.125 6.125 0 0 1-.721.536c-.303.199-.69.382-1.162.549-.472.159-1.066.238-1.781.238-5.016-.608-5.393-5.761-2.4-9.411a5.494 5.494 0 0 1 4.244-1.967c.412 0 .776.036 1.087.107.312.064.581.147.809.25.227.103.42.215.58.334.16.111.3.22.418.322.126.104.235.19.328.262a.488.488 0 0 0 .277.096.54.54 0 0 0 .291-.072c.076-.048.148-.107.215-.178l.758-.871a5.6 5.6 0 0 0-.846-.858 4.319 4.319 0 0 0-1.023-.654 5.205 5.205 0 0 0-1.238-.418 7.487 7.487 0 0 0-1.53-.143Z" style="fill:url(#b);fill-opacity:1;stroke:url(#linearGradient848);stroke-width:1;stroke-miterlimit:4;stroke-dasharray:none;stroke-opacity:1"/></svg>