<svg xmlns="http://www.w3.org/2000/svg" viewBox="0 0 16 16"><path d="M4.995 1c-1.259.014-2.18-.03-2.932.385a1.88 1.88 0 00-.838.998C1.06 2.82 1 3.343 1 4v8c0 .658.06 1.179.225 1.617.165.439.462.789.838.996.753.415 1.674.372 2.932.387H11.005c1.259-.015 2.18.03 2.932-.385a1.88 1.88 0 00.838-.998c.164-.438.225-.96.225-1.617V4c0-.658-.06-1.179-.225-1.617a1.875 1.875 0 00-.838-.996c-.753-.415-1.674-.372-2.932-.387H4.998z" style="line-height:125%;-inkscape-font-specification:Ubuntu;text-align:center" font-weight="400" font-size="15" font-family="Ubuntu" letter-spacing="0" word-spacing="0" text-anchor="middle" opacity=".6"/><path d="M5.983 2.027c-1.557.011-1.11-.012-2.66.039-.46.043-1.015.206-1.154.71-.22.635-.109 1.334-.146 1.982-.008 2.297-.023 5.596.021 7.885.04.462.203 1.013.699 1.164.632.225 1.284.122 1.936.154 1.424.007.85.011 2.275.011 1.705 0 3.409-.005 5.108-.018.512-.012 1.183.02 1.584-.405.421-.54.287-1.268.323-1.904.012-2.444.028-5.91-.022-8.356-.05-.402-.17-.863-.575-1.045-.668-.294-1.426-.168-2.126-.205a715.83 715.83 0 00-5.263-.012z" fill="#fff"/><circle cy="6.364" cx="11.314" r="3.5" transform="rotate(45)" fill="#c7162b"/><path overflow="visible" font-weight="400" style="line-height:normal;text-indent:0;text-align:start;text-decoration-line:none;text-decoration-style:solid;text-decoration-color:#000;text-transform:none;white-space:normal;isolation:auto;mix-blend-mode:normal;marker:none" d="M4.914 10.379L3.5 11.793l-1.414-1.414-.707.707L2.793 12.5l-1.414 1.414.707.707L3.5 13.207l1.414 1.414.707-.707L4.207 12.5l1.414-1.414z" color="#000" font-family="sans-serif" fill="#fff"/><path d="M10 10h4v5l-2-2-2 2z" opacity=".6" stroke="#000" stroke-width="2" stroke-linejoin="round"/><path d="M10 10h4v5l-2-2-2 2z" fill="#e95420"/><circle cy="8" cx="12" r="3" opacity=".6" stroke="#000" stroke-width="2" stroke-linejoin="round"/><circle cx="12" cy="8" r="3" fill="#e95420"/><circle cx="12" cy="8" r="1" fill="#fff"/></svg>