<svg xmlns="http://www.w3.org/2000/svg" viewBox="0 0 24 24"><path style="opacity:1;fill:#fff;fill-opacity:1;fill-rule:evenodd;stroke:none;stroke-width:2;stroke-linecap:butt;stroke-linejoin:round;stroke-miterlimit:4;stroke-dasharray:none;stroke-opacity:1" d="M10 5h3v1h-3zM7 9h9v10H7z"/><path d="M11.5 4c-1.1 0-2.145.32-2.145.32L9 4.428V6.11A13.88 13.88 0 0 0 6.002 7L6 8H5v1h1l.004 9c0 .439.04.788.15 1.082.111.294.311.528.563.668.503.28 1.12.25 1.953.25h5.664c.833 0 1.45.03 1.953-.25.252-.14.45-.374.56-.668.11-.294.153-.643.153-1.082l-.002-8h-1L16 18c0 .376-.04.603-.088.729-.034.09-.078.129-.11.146-.173.097-.611.125-1.468.125H8.67c-.857 0-1.295-.028-1.469-.125a.267.267 0 0 1-.113-.146v-.002c-.046-.122-.084-.348-.084-.727v-.002L7 9h11V8h-1.002L17 7a13.855 13.855 0 0 0-3-.89V4.45l-.33-.12S12.757 4 11.5 4zm0 1c.89 0 1.29.155 1.5.22v.739a14.05 14.05 0 0 0-1.498-.084c-.502 0-1.003.032-1.502.086v-.734c.266-.07.772-.227 1.5-.227zM9 10v6h1v-6Zm2 0v6h1v-6Zm2 0v6h1v-6Z" font-size="15" font-weight="400" letter-spacing="0" style="font-weight:400;font-size:15px;line-height:125%;font-family:Ubuntu;-inkscape-font-specification:Ubuntu;text-align:center;letter-spacing:0;word-spacing:0;text-anchor:middle;fill:#c7162b;fill-opacity:1" word-spacing="0"/></svg>