<svg xmlns="http://www.w3.org/2000/svg" viewBox="0 0 24 24"><path style="fill:#000;stroke:#000;opacity:.7;stroke-width:2;stroke-miterlimit:4;stroke-dasharray:none;stroke-linejoin:round" fill="#232629" d="M10.115 4 8 7.438c2.4.779 4.076 2.526 4.076 4.564 0 2.037-1.676 3.782-4.076 4.562l2.115 3.438c3.493-1.49 5.885-4.503 5.885-8V12c0-3.497-2.392-6.51-5.885-8z"/><path d="M10.115 4 8 7.438c2.4.779 4.076 2.526 4.076 4.564 0 2.037-1.676 3.782-4.076 4.562l2.115 3.438c3.493-1.49 5.885-4.503 5.885-8V12c0-3.497-2.392-6.51-5.885-8z" fill="#232629" style="fill:#fff"/></svg>