<svg xmlns="http://www.w3.org/2000/svg" viewBox="0 0 24 24"><g style="fill:#6d6d6d;fill-opacity:1"><path d="M8 8h2v2H8ZM6 18h2v2H6Z" fill="#3a3a38" style="fill:#6d6d6d;fill-opacity:1"/><path d="M2 2h2v2H2ZM6 4h2v2H6ZM2 8h2v2H2ZM6 12h2v2H6ZM2 16h2v2H2ZM10 2h2v2h-2zM19 2h2v2h-2zM19 10h2v2h-2zM12 11h2v2h-2zM13 20h2v2h-2zM15 6h2v2h-2z" style="fill:#6d6d6d;fill-opacity:1"/><path d="M10 16h2v2h-2z" fill="#3a3a38" style="fill:#6d6d6d;fill-opacity:1"/><path d="M16 14h2v2h-2z" style="fill:#6d6d6d;fill-opacity:1"/></g><circle style="opacity:1;vector-effect:none;fill:#c7162b;fill-opacity:1;stroke:none;stroke-width:3.5;stroke-linecap:butt;stroke-linejoin:round;stroke-miterlimit:4;stroke-dasharray:none;stroke-dashoffset:0;stroke-opacity:1" cy="19.5" cx="19.5" r="3.5"/><path overflow="visible" font-weight="400" style="color:#000;font-weight:400;line-height:normal;font-family:sans-serif;text-indent:0;text-align:start;text-decoration:none;text-decoration-line:none;text-decoration-style:solid;text-decoration-color:#000;text-transform:none;white-space:normal;overflow:visible;isolation:auto;mix-blend-mode:normal;fill:#fff;fill-opacity:1;marker:none" d="M20.914 17.379 19.5 18.793l-1.414-1.414-.707.707 1.414 1.414-1.414 1.414.707.707 1.414-1.414 1.414 1.414.707-.707-1.414-1.414 1.414-1.414Z"/></svg>