<svg xmlns="http://www.w3.org/2000/svg" viewBox="0 0 24 24"><path style="color:#000;font-style:normal;font-variant:normal;font-weight:400;font-stretch:normal;font-size:medium;line-height:normal;font-family:sans-serif;font-variant-ligatures:normal;font-variant-position:normal;font-variant-caps:normal;font-variant-numeric:normal;font-variant-alternates:normal;font-variant-east-asian:normal;font-feature-settings:normal;font-variation-settings:normal;text-indent:0;text-align:start;text-decoration:none;text-decoration-line:none;text-decoration-style:solid;text-decoration-color:#000;letter-spacing:normal;word-spacing:normal;text-transform:none;writing-mode:lr-tb;direction:ltr;text-orientation:mixed;dominant-baseline:auto;baseline-shift:baseline;text-anchor:start;white-space:normal;shape-padding:0;shape-margin:0;inline-size:0;clip-rule:nonzero;display:inline;overflow:visible;visibility:visible;opacity:.7;isolation:auto;mix-blend-mode:normal;color-interpolation:sRGB;color-interpolation-filters:linearRGB;solid-color:#000;solid-opacity:1;vector-effect:none;fill:#000;fill-opacity:1;fill-rule:nonzero;stroke:none;stroke-width:2;stroke-linecap:butt;stroke-linejoin:round;stroke-miterlimit:4;stroke-dasharray:none;stroke-dashoffset:0;stroke-opacity:1;color-rendering:auto;image-rendering:auto;shape-rendering:auto;text-rendering:auto;enable-background:accumulate;stop-color:#000;stop-opacity:1" d="M6 3a1 1 0 0 0-.707.293l-1 1A1 1 0 0 0 4 5v1.305a1 1 0 0 0 .184.578L9 13.686v3.354a1 1 0 0 0 .404.802l3.637 2.699c.016-.38.194-.734.467-1.025-1.325-1.513-.951-3.157.502-3.238.268-.195.608-.284.959-.296.002-.08.02-.157.031-.236v-2.06l4.816-6.803A1 1 0 0 0 20 6.305V5a1 1 0 0 0-.293-.707l-1-1A1 1 0 0 0 18 3Zm.414 2h11.172l.414.414v.572l-4.816 6.803a1 1 0 0 0-.184.578c-.317 3.102 1.267 5.593-2 3.168v-3.168a1 1 0 0 0-.184-.578L6 5.986v-.572Z"/><path style="fill:#fff" d="M6 4 5 5v1.305l5 7.062v3.673l3.445 2.556c.023-.026.04-.055.063-.08-.402-.429-.629-.99-.387-1.577l.461-1.113a1 1 0 0 0 0-.002c.094-.227.246-.39.418-.52v-2.937l5-7.062V5l-1-1H6z"/><g transform="translate(-1)"><circle style="fill:#fff;fill-rule:evenodd;stroke:none;stroke-width:2;stroke-linecap:round;stroke-linejoin:round" cx="19.5" cy="19.5" r="1.5"/><g transform="translate(8 8)"><circle style="fill:#fff;fill-opacity:1;fill-rule:evenodd;stroke:none;stroke-width:2;stroke-linecap:round;stroke-linejoin:round;stroke-miterlimit:4;stroke-dasharray:none;stroke-opacity:1" cx="11.5" cy="11.5" r="1.5"/><path d="M9.311 7.792a.244.244 0 0 0-.135.325l.273.657c-.26.195-.472.424-.662.678l-.674-.279a.248.248 0 0 0-.329.136l-.462 1.115a.248.248 0 0 0 .137.329l.673.279a3.312 3.312 0 0 0-.011.948l-.657.272a.244.244 0 0 0-.135.325l.463 1.117c.054.13.194.189.325.135l.657-.272c.195.26.424.471.678.662l-.279.673a.248.248 0 0 0 .136.329l1.115.462a.248.248 0 0 0 .329-.136l.279-.674c.314.045.626.057.948.012l.272.657c.054.13.195.188.325.134l1.117-.462a.244.244 0 0 0 .135-.326l-.272-.657c.26-.195.471-.424.662-.678l.673.28a.248.248 0 0 0 .329-.137l.462-1.115a.248.248 0 0 0-.136-.329l-.674-.279c.045-.314.057-.625.012-.947l.657-.273a.244.244 0 0 0 .134-.325l-.462-1.117a.244.244 0 0 0-.326-.135l-.657.273a3.312 3.312 0 0 0-.678-.662l.28-.674a.248.248 0 0 0-.137-.329l-1.115-.462a.248.248 0 0 0-.329.137l-.279.673a3.312 3.312 0 0 0-.947-.011l-.273-.657a.244.244 0 0 0-.325-.135Zm1.756 2.66a1.138 1.138 0 1 1 .87 2.103 1.138 1.138 0 0 1-.87-2.104z" display="block" fill="url(#d)" stroke="url(#e)" stroke-linejoin="round" stroke-width=".6" style="fill:#d3d3d3;fill-opacity:1;stroke:#4d4d4d;stroke-opacity:1"/></g></g></svg>