<svg xmlns="http://www.w3.org/2000/svg" viewBox="0 0 24 24"><path style="opacity:1;fill:#fff;fill-opacity:1;stroke:none;stroke-width:2;stroke-linecap:round;stroke-linejoin:round;stroke-miterlimit:4;stroke-dasharray:none;stroke-opacity:1" d="M4 4h16v16H4z"/><path d="M6 3C4 3 3 3 3 5v14c0 2 1 2 3 2h12c2 0 3 0 3-2V5c0-2-1-2-3-2ZM4 5c0-1 1-1 2-1h3v3H4zm6-1h4v3h-4V5Zm5 0h3c1 0 2 0 2 1v2h-5V5ZM4 8h5v2H4zm6 0h4v2h-4Zm5 0h5v2h-5ZM4 11h5v2H4zm6 0h4v2h-4Zm5 0h5v2h-5ZM4 14h5v2H4zm6 0h4v2h-4Zm5 0h5v2h-5ZM4 17h5v3H6c-1 0-2 0-2-1zm6 0h4v3h-4Zm5 0h5v2c0 1-1 1-2 1h-3z" style="opacity:1;fill:#6d6d6d;fill-opacity:1;stroke-width:.999999"/><path style="opacity:1;fill:#ddf6d5;fill-opacity:1;fill-rule:evenodd;stroke-width:4;stroke-linecap:round;stroke-linejoin:round" d="M4 4h5v16H4z"/><path style="opacity:1;fill:#46a926;fill-opacity:1;stroke-width:.999999" d="M6 3C4 3 3 3 3 5v14c0 2 1 2 3 2h4V3Zm0 1h3v3H4V5c0-1 1-1 2-1zM4 8h5v2H4zm0 3h5v2H4zm0 3h5v2H4zm0 3h5v3H6c-1 0-2 0-2-1z"/><circle style="opacity:1;vector-effect:none;fill:#46a926;fill-opacity:1;stroke:none;stroke-width:3.5;stroke-linecap:butt;stroke-linejoin:round;stroke-miterlimit:4;stroke-dasharray:none;stroke-dashoffset:0;stroke-opacity:1" cy="19.5" cx="-19.5" r="3.5" transform="scale(-1 1)"/><path overflow="visible" font-weight="400" style="color:#000;font-weight:400;line-height:normal;font-family:sans-serif;text-indent:0;text-align:start;text-decoration:none;text-decoration-line:none;text-decoration-style:solid;text-decoration-color:#000;text-transform:none;white-space:normal;overflow:visible;isolation:auto;mix-blend-mode:normal;fill:#fff;fill-opacity:1;marker:none" d="M20 17v2h2v1h-2v2h-1v-2h-2v-1h2v-2z"/></svg>