<svg xmlns="http://www.w3.org/2000/svg" height="24" width="24"><linearGradient id="a"><stop offset="0"/><stop offset="1" stop-opacity="0"/></linearGradient><linearGradient id="b"><stop offset="0" stop-color="#fff" stop-opacity=".702"/><stop offset="1" stop-color="#fff" stop-opacity="0"/></linearGradient><path style="font-style:normal;font-variant:normal;font-weight:400;font-stretch:normal;font-size:15px;line-height:125%;font-family:Ubuntu;-inkscape-font-specification:Ubuntu;text-align:center;letter-spacing:0;word-spacing:0;writing-mode:lr-tb;text-anchor:middle;display:inline;opacity:.7;fill:#000;fill-opacity:1;stroke:none;stroke-width:.999802" d="M6.994 3c-1.258.014-2.179-.03-2.931.385a1.88 1.88 0 0 0-.838.998C3.06 4.82 3 5.343 3 6v12c0 .658.06 1.179.225 1.617.164.439.461.789.837.996.753.415 1.674.372 2.932.387h10.012c1.258-.015 2.179.03 2.931-.385a1.88 1.88 0 0 0 .838-.998c.165-.438.225-.96.225-1.617V6c0-.025-.004-.044-.004-.068L18 9h-6V5l1-.97V3H6.998Z"/><path style="opacity:1;vector-effect:none;fill:#fff;fill-opacity:1;stroke:none;stroke-width:1;stroke-linecap:round;stroke-linejoin:bevel;stroke-miterlimit:4;stroke-dasharray:none;stroke-dashoffset:0;stroke-opacity:1" d="M11.982 4.027c-1.556.011-5.108-.011-6.658.04-.461.042-1.017.205-1.156.708-.219.636-.11 1.335-.147 1.983-.007 2.297-.023 9.595.022 11.885.04.462.203 1.013.7 1.164.632.225 1.283.122 1.935.154 1.424.007 4.851.011 6.277.012 1.705 0 3.409-.006 5.107-.02.512-.012 1.183.02 1.584-.404.422-.54.287-1.269.323-1.904.01-2.189.019-8.03-.014-11.063L18 7.805V5h-5v-.97c-.34 0-.678-.003-1.018-.003z"/><path style="fill:#232629" d="M6 10v1h5v-1zM8 13v1h5v-1z"/><path style="fill:#c7162b" d="M6 7v1h4V7ZM12 10v1h2v-1zM6 13v1h1v-1z"/><path d="M11 7v1h6V7Z" style="fill:#232629;stroke-width:1.18322"/><path style="fill:#232629;stroke-width:.77459669" d="M15 10v1h3v-1z"/><path d="M14 13v1h4v-1zM6 16v1h4v-1Z" style="fill:#c7162b"/><path style="fill:#232629;stroke-width:1.18321598" d="M11 16v1h7v-1z"/><circle style="opacity:1;vector-effect:none;fill:#c7162b;fill-opacity:1;stroke:none;stroke-width:3.49999976;stroke-linecap:butt;stroke-linejoin:round;stroke-miterlimit:4;stroke-dasharray:none;stroke-dashoffset:0;stroke-opacity:1" cy="19.5" cx="19.5" r="3.5"/><path style="opacity:1;fill:#fff;fill-opacity:1;stroke:none;stroke-width:2;stroke-linejoin:round;stroke-miterlimit:4;stroke-dasharray:none;stroke-opacity:1" d="m17.379 18.086 1.414 1.414-1.414 1.414.707.707 1.414-1.414 1.414 1.414.707-.707-1.414-1.414 1.414-1.414-.707-.707-1.414 1.414-1.414-1.414Z"/><path style="fill:#e62d42;fill-opacity:1;stroke:none;stroke-width:1px;stroke-linecap:butt;stroke-linejoin:miter;stroke-opacity:1" d="M23 3.5 19 1v2h-5v1h5v2z"/></svg>