<svg xmlns="http://www.w3.org/2000/svg" viewBox="0 0 24 24"><path fill="#232629" d="m4.688 4 4 4h6.624l4-4H6zM4 4.688v14.625l4-4V8.686zm16 0-4 4v6.624l4 4V18zM8.687 16l-4 4H19.314l-4-4z" style="fill:#000;stroke:#000;opacity:.7;stroke-width:2;stroke-miterlimit:4;stroke-dasharray:none;stroke-linejoin:round"/><path d="M4 4v16h16V4H9z" fill="#b3b3b3" style="fill:#6d6d6d;fill-opacity:1"/><path d="m4.688 4 4 4h6.624l4-4H6zM4 4.688v14.625l4-4V8.686zm16 0-4 4v6.624l4 4V18zM8.687 16l-4 4H19.314l-4-4z" fill="#232629" style="fill:#fff"/></svg>