<svg xmlns="http://www.w3.org/2000/svg" viewBox="0 0 24 24"><path d="M18.005 5c1.259.014 2.18-.03 2.932.384.376.208.673.56.838.999.165.438.225.96.225 1.617v8c0 .658-.06 1.179-.225 1.617a1.875 1.875 0 0 1-.838.997c-.753.415-1.674.371-2.932.386H5.995c-1.259-.014-2.18.03-2.932-.384a1.88 1.88 0 0 1-.838-.999C2.061 17.18 2 16.657 2 16V8c0-.658.06-1.179.225-1.617.165-.44.462-.789.838-.997.753-.415 1.674-.371 2.932-.386H18.002z" style="font-style:normal;font-variant:normal;font-weight:400;font-stretch:normal;font-size:15px;line-height:125%;font-family:Ubuntu;-inkscape-font-specification:Ubuntu;text-align:center;letter-spacing:0;word-spacing:0;writing-mode:lr-tb;text-anchor:middle;display:inline;opacity:.7;fill:#000;fill-opacity:1;stroke:none;stroke-width:.99980211"/><path d="M13.016 6.027c1.557.01 5.11-.012 6.66.039.461.042 1.016.206 1.155.71.22.635.109 1.333.146 1.982.008 2.297.023 5.596-.021 7.885-.04.462-.203 1.013-.699 1.164-.632.225-1.284.123-1.936.154-1.424.007-4.85.011-6.276.012-1.705 0-5.408-.005-7.107-.019-.512-.012-1.183.02-1.584-.405-.421-.54-.287-1.268-.323-1.904-.012-2.444-.028-5.911.022-8.357.05-.402.17-.863.575-1.044.668-.294 1.426-.168 2.126-.206 1.754-.012 5.508-.012 7.262-.011z" style="opacity:1;vector-effect:none;fill:#aee3f8;fill-opacity:1;stroke:none;stroke-width:1;stroke-linecap:round;stroke-linejoin:bevel;stroke-miterlimit:4;stroke-dasharray:none;stroke-dashoffset:0;stroke-opacity:1"/><g style="display:inline;stroke-width:27.20000267;enable-background:new"><path style="fill:#fec589;fill-opacity:1;stroke:none;stroke-width:27.20000267" d="M701.484 292.832 656 400.493l-45.484-107.661v-11.065h90.968z" transform="matrix(.03808 .02199 -.02385 .0413 -2.163 -6.963)"/><path style="color:#000;display:inline;overflow:visible;visibility:visible;fill:#5d5d5d;fill-opacity:1;fill-rule:nonzero;stroke:none;stroke-width:28.00900841;marker:none;enable-background:accumulate" d="M645.198 374.677 656 400.493l10.803-25.816c.01.175-21.605 0-21.605 0z" transform="matrix(.03808 .02199 -.02385 .0413 -2.163 -6.963)"/><path style="fill:#2f5fdd;fill-opacity:1;stroke:none;stroke-width:27.20000267" d="M610.516 292.832s91.989 1.586 90.968 0V23.057h-90.968z" transform="matrix(.03808 .02199 -.02385 .0413 -2.163 -6.963)"/></g></svg>