<svg xmlns="http://www.w3.org/2000/svg" viewBox="0 0 24 24"><path style="opacity:.7;fill:#000;fill-opacity:1;stroke:#000;stroke-width:2;stroke-linejoin:round;stroke-miterlimit:4;stroke-dasharray:none" d="M8 8v9h8V8Z"/><path d="M8 8v9h8V8Z" style="fill:#e62d42;fill-opacity:1;stroke-width:.8"/><path style="fill:#232629;fill-opacity:1;fill-rule:evenodd;stroke-width:2;stroke-linecap:round;stroke-linejoin:round" d="M2 5h20v1H2z"/><path style="fill:#fff;fill-opacity:1;fill-rule:evenodd;stroke-width:2;stroke-linecap:round;stroke-linejoin:round" d="M3 6h18v1H3z"/><path style="fill:#232629;fill-opacity:1;fill-rule:evenodd;stroke-width:2;stroke-linecap:round;stroke-linejoin:round" transform="scale(1 -1)" d="M2-20h20v1H2z"/><path style="fill:#fff;fill-opacity:1;fill-rule:evenodd;stroke-width:2;stroke-linecap:round;stroke-linejoin:round" transform="scale(1 -1)" d="M3-19h18v1H3z"/><path style="fill:#232629;fill-opacity:1;fill-rule:evenodd;stroke:none;stroke-width:2;stroke-linecap:round;stroke-linejoin:round" d="M2 7h4v1H2zM2 9h4v1H2zM2 11h4v1H2zM2 13h4v1H2zM2 15h4v1H2zM2 17h4v1H2z"/><path style="fill:#fff;fill-opacity:1;fill-rule:evenodd;stroke:none;stroke-width:2;stroke-linecap:round;stroke-linejoin:round" d="M3 8h4v1H3zM3 10h4v1H3zM3 12h4v1H3zM3 14h4v1H3zM3 16h4v1H3z"/><path style="fill:#232629;fill-opacity:1;fill-rule:evenodd;stroke:none;stroke-width:2;stroke-linecap:round;stroke-linejoin:round" transform="scale(-1 1)" d="M-22 7h4v1h-4zM-22 9h4v1h-4zM-22 11h4v1h-4zM-22 13h4v1h-4zM-22 15h4v1h-4zM-22 17h4v1h-4z"/><path style="fill:#fff;fill-opacity:1;fill-rule:evenodd;stroke:none;stroke-width:2;stroke-linecap:round;stroke-linejoin:round" transform="scale(-1 1)" d="M-21 8h4v1h-4zM-21 10h4v1h-4zM-21 12h4v1h-4zM-21 14h4v1h-4zM-21 16h4v1h-4z"/><path style="fill:#232629;fill-opacity:1;fill-rule:evenodd;stroke-width:2;stroke-linecap:round;stroke-linejoin:round" d="M2 3h20v1H2z"/><path style="fill:#fff;fill-opacity:1;fill-rule:evenodd;stroke-width:2;stroke-linecap:round;stroke-linejoin:round" d="M3 4h18v1H3z"/><path style="fill:#232629;fill-opacity:1;fill-rule:evenodd;stroke-width:2;stroke-linecap:round;stroke-linejoin:round" transform="scale(1 -1)" d="M2-22h20v1H2z"/><path style="fill:#fff;fill-opacity:1;fill-rule:evenodd;stroke-width:2;stroke-linecap:round;stroke-linejoin:round" transform="scale(1 -1)" d="M3-21h18v1H3z"/></svg>