<svg viewBox="0 0 16 16" xmlns="http://www.w3.org/2000/svg"><path style="opacity:1;fill:#DA3450;fill-opacity:1;fill-rule:nonzero;stroke:none;stroke-width:.001;stroke-linecap:butt;stroke-linejoin:round;stroke-miterlimit:4;stroke-dasharray:none;stroke-dashoffset:0;stroke-opacity:1" d="M10.5 9c1.385 0 2.5 1.115 2.5 2.5S11.885 14 10.5 14h-6A2.495 2.495 0 0 1 2 11.5C2 10.115 3.115 9 4.5 9zm-6 1c-.831 0-1.5.669-1.5 1.5S3.669 13 4.5 13 6 12.331 6 11.5 5.331 10 4.5 10zm0-8A2.495 2.495 0 0 0 2 4.5C2 5.885 3.115 7 4.5 7h6C11.885 7 13 5.885 13 4.5S11.885 2 10.5 2zm6 1c.831 0 1.5.669 1.5 1.5S11.331 6 10.5 6 9 5.331 9 4.5 9.669 3 10.5 3z"/><circle style="opacity:1;fill:#fff;fill-opacity:1;fill-rule:nonzero;stroke:none;stroke-width:2;stroke-linecap:round;stroke-linejoin:round;stroke-miterlimit:4;stroke-dasharray:none;stroke-opacity:1" cx="10.5" cy="4.5" r="1.5"/><circle style="fill:#fff;fill-rule:evenodd;stroke-linejoin:round" cx="4.5" cy="11.5" r="1.5"/></svg>