<svg xmlns="http://www.w3.org/2000/svg" viewBox="0 0 16 16"><path style="font-style:normal;font-variant:normal;font-weight:400;font-stretch:normal;font-size:15px;line-height:125%;font-family:Ubuntu;-inkscape-font-specification:Ubuntu;text-align:center;letter-spacing:0;word-spacing:0;writing-mode:lr-tb;text-anchor:middle;display:inline;opacity:.7;fill:#000;fill-opacity:1;stroke:none;stroke-width:.999802" d="M5 1.96V3h2a1 1 0 0 1 .846 1.533l-3.524 4.97a1 1 0 0 1-1.697-.008L.15 4.525c-.022-.037-.089-.163-.12-.218-.02.207-.04.413-.03.654V13c0 .658.06 1.179.225 1.617.164.439.461.789.838.996.752.415 1.673.372 2.931.387h8.012c1.258-.015 2.179.03 2.931-.385a1.88 1.88 0 0 0 .838-.998c.165-.438.225-.96.225-1.617V4.961c0-.658-.06-1.179-.225-1.617a1.875 1.875 0 0 0-.838-.996c-.752-.415-1.673-.372-2.931-.387h-.002z"/><path style="opacity:1;vector-effect:none;fill:#fff;fill-opacity:1;stroke:none;stroke-width:1;stroke-linecap:round;stroke-linejoin:bevel;stroke-miterlimit:4;stroke-dasharray:none;stroke-dashoffset:0;stroke-opacity:1" d="M7.982 2.988c-.82.006-1.902.003-2.982.006V3h1a1 1 0 0 1 .846 1.533l-2.524 4a1 1 0 0 1-1.697-.008L1.021 5.934c-.007 2.288-.021 5.483.022 7.71.04.462.203 1.012.7 1.163.632.225 1.283.122 1.935.154 1.424.007 3.851.011 5.277.012 1.705 0 2.409-.004 4.107-.018.512-.012 1.183.019 1.584-.406.422-.54.287-1.269.323-1.904.012-2.445.028-5.95-.022-8.395-.049-.402-.169-.863-.574-1.045-.668-.294-1.427-.167-2.127-.205-1.754-.012-2.51-.013-4.264-.012z"/><path d="M11.5 5a1.5 1.5 0 1 0 0 3 1.5 1.5 0 0 0 0-3zM6 7.5 3 13h8L8.5 8.5l-1 1.5z" style="color:#000;display:inline;overflow:visible;visibility:visible;fill:#232629;fill-opacity:1;fill-rule:nonzero;stroke:none;stroke-width:5.99881;marker:none;enable-background:accumulate"/><path style="fill:#e62d42;fill-opacity:1;stroke:none;stroke-width:1px;stroke-linecap:butt;stroke-linejoin:miter;stroke-opacity:1" d="M3 0v4H1l2.476 4L6 4H4V0Z"/></svg>