<svg viewBox="0 0 16 16" xmlns="http://www.w3.org/2000/svg"><path style="color:#000;fill:#000;fill-rule:evenodd;stroke-linejoin:round;-inkscape-stroke:none;opacity:.7" d="M2 3a1 1 0 0 0-1 1v7c0 1.645 1.355 3 3 3h6.514c.26-.476.609-.892 1.02-1.223-.163-.25-.335-.5-.438-.777H4c-.571 0-1-.429-1-1V5h10v4.05a2.478 2.478 0 0 1 2 .457V4a1 1 0 0 0-1-1H2z"/><path style="opacity:1;fill:#6d6d6d;fill-opacity:1;fill-rule:evenodd;stroke:none;stroke-width:2;stroke-linecap:butt;stroke-linejoin:round;stroke-miterlimit:4;stroke-dasharray:none;stroke-opacity:1" d="M0 2h16v2H0z"/><path style="opacity:1;fill:#fff;fill-opacity:1;fill-rule:evenodd;stroke:none;stroke-width:2;stroke-linecap:butt;stroke-linejoin:round;stroke-miterlimit:4;stroke-dasharray:none;stroke-opacity:1" d="M2 4v7c0 1.108.892 2 2 2h7.281c.082-.078.165-.152.252-.223-.254-.39-.533-.781-.533-1.277 0-1.369 1.131-2.5 2.5-2.5.171 0 .338.017.5.05V4H2z"/><path style="opacity:1;fill:#46a926;fill-opacity:1;fill-rule:evenodd;stroke:none;stroke-width:2;stroke-linecap:butt;stroke-linejoin:round;stroke-miterlimit:4;stroke-dasharray:none;stroke-opacity:1" d="M10.5 6a2.5 2.5 0 0 0-2.31 1.543 2.5 2.5 0 0 0 .542 2.725 2.5 2.5 0 0 0 2.334.666 2.529 2.529 0 0 1 1.862-1.866A2.5 2.5 0 0 0 13 8.5h-2.5V6z"/><path style="opacity:1;fill:#1a7fd4;fill-opacity:1;fill-rule:evenodd;stroke:none;stroke-width:2.30940104;stroke-linecap:butt;stroke-linejoin:round;stroke-miterlimit:4;stroke-dasharray:none;stroke-opacity:1" d="M3 6h4v1H3z"/><path style="opacity:1;fill:#c7162b;fill-opacity:1;fill-rule:evenodd;stroke:none;stroke-width:2.30940104;stroke-linecap:butt;stroke-linejoin:round;stroke-miterlimit:4;stroke-dasharray:none;stroke-opacity:1" d="M3 8h4v1H3z"/><path style="opacity:1;fill:#46a926;fill-opacity:1;fill-rule:evenodd;stroke:none;stroke-width:2.30940104;stroke-linecap:butt;stroke-linejoin:round;stroke-miterlimit:4;stroke-dasharray:none;stroke-opacity:1" d="M3 10h4v1H3z"/><path style="opacity:1;fill:#c7162b;fill-opacity:1;fill-rule:evenodd;stroke:none;stroke-width:2;stroke-linecap:butt;stroke-linejoin:round;stroke-miterlimit:4;stroke-dasharray:none;stroke-opacity:1" d="M6-10.5A2.5 2.5 0 0 1 8.5-13v2.5z" transform="rotate(90)"/><path style="opacity:1;fill:#e62d42;fill-opacity:1;fill-rule:evenodd;stroke:none;stroke-width:2;stroke-linecap:butt;stroke-linejoin:round;stroke-miterlimit:4;stroke-dasharray:none;stroke-opacity:1" d="M13.5 10a1.5 1.5 0 0 0-1.5 1.5 1.5 1.5 0 0 0 1.5 1.5 1.5 1.5 0 0 0 1.5-1.5 1.5 1.5 0 0 0-1.5-1.5zm0 3a2.5 3 0 0 0-2.5 3h5a2.5 3 0 0 0-2.5-3z"/></svg>