<svg xmlns="http://www.w3.org/2000/svg" viewBox="0 0 16 16"><path style="opacity:1;fill:#fff;fill-opacity:1;fill-rule:evenodd;stroke:none;stroke-width:.25;stroke-linecap:round;stroke-linejoin:round" d="M2 2h11v11H2z"/><path style="opacity:1;fill:#a6d74f;fill-opacity:1;fill-rule:evenodd;stroke:none;stroke-width:2;stroke-linecap:butt;stroke-linejoin:round;stroke-miterlimit:4;stroke-dasharray:none;stroke-opacity:1" d="M2 2h11v3H2z"/><path style="opacity:1;fill:#6d6d6f;fill-opacity:1;fill-rule:evenodd;stroke:none;stroke-width:.25;stroke-linecap:round;stroke-linejoin:round" d="M4 1C2 1 1 1 1 3v9c0 2 1 2 3 2h3v-1H6v-3h1V9H6V6h1.283c.35-.592.99-1 1.717-1H6V2h3v3c.636 0 1.202.315 1.57.79.436-.017.913.03 1.424.173h.002c.038.01.063.026.1.037H13v.385c.078.043.172.09.238.129.255.146.452.248.762.347V3c0-2-1-2-3-2H4zm0 1h1v3H2V3c0-1 1-1 2-1zm6 0h1c1 0 2 0 2 1v2h-3V2zM2 6h3v3H2V6zm11 2.617V9h-2v1h2v1.244c.108.061.232.126.314.176.247.15.408.235.686.314V8.918a3.253 3.253 0 0 1-.438-.092c-.217-.062-.388-.136-.562-.209zM2 10h3v3H4c-1 0-2 0-2-1v-2zm9.959 2.945c-.3.039-.621.055-.959.055v1c1.12 0 1.915-.013 2.408-.365a5.105 5.105 0 0 1-1.135-.506 6.283 6.283 0 0 0-.314-.184z"/><path style="color:#000;font-style:normal;font-variant:normal;font-weight:400;font-stretch:normal;font-size:medium;line-height:normal;font-family:sans-serif;font-variant-ligatures:normal;font-variant-position:normal;font-variant-caps:normal;font-variant-numeric:normal;font-variant-alternates:normal;font-variant-east-asian:normal;font-feature-settings:normal;font-variation-settings:normal;text-indent:0;text-align:start;text-decoration:none;text-decoration-line:none;text-decoration-style:solid;text-decoration-color:#000;letter-spacing:normal;word-spacing:normal;text-transform:none;writing-mode:lr-tb;direction:ltr;text-orientation:mixed;dominant-baseline:auto;baseline-shift:baseline;text-anchor:start;white-space:normal;shape-padding:0;shape-margin:0;inline-size:0;clip-rule:nonzero;display:inline;overflow:visible;visibility:visible;isolation:auto;mix-blend-mode:normal;color-interpolation:sRGB;color-interpolation-filters:linearRGB;solid-color:#000;solid-opacity:1;vector-effect:none;fill:#fff;fill-opacity:1;fill-rule:evenodd;stroke:none;stroke-width:2;stroke-linecap:butt;stroke-linejoin:miter;stroke-miterlimit:4;stroke-dasharray:none;stroke-dashoffset:0;stroke-opacity:1;color-rendering:auto;image-rendering:auto;shape-rendering:auto;text-rendering:auto;enable-background:accumulate;stop-color:#000" d="M9 6c.554 0 1 .446 1 1v8c0 .554-.446 1-1 1s-1-.446-1-1V7c0-.554.446-1 1-1Z"/><path style="color:#000;font-style:normal;font-variant:normal;font-weight:400;font-stretch:normal;font-size:medium;line-height:normal;font-family:sans-serif;font-variant-ligatures:normal;font-variant-position:normal;font-variant-caps:normal;font-variant-numeric:normal;font-variant-alternates:normal;font-variant-east-asian:normal;font-feature-settings:normal;font-variation-settings:normal;text-indent:0;text-align:start;text-decoration:none;text-decoration-line:none;text-decoration-style:solid;text-decoration-color:#000;letter-spacing:normal;word-spacing:normal;text-transform:none;writing-mode:lr-tb;direction:ltr;text-orientation:mixed;dominant-baseline:auto;baseline-shift:baseline;text-anchor:start;white-space:normal;shape-padding:0;shape-margin:0;inline-size:0;clip-rule:nonzero;display:inline;overflow:visible;visibility:visible;isolation:auto;mix-blend-mode:normal;color-interpolation:sRGB;color-interpolation-filters:linearRGB;solid-color:#000;solid-opacity:1;vector-effect:none;fill:#fff;fill-opacity:1;fill-rule:evenodd;stroke:none;stroke-width:2;stroke-linecap:butt;stroke-linejoin:round;stroke-miterlimit:4;stroke-dasharray:none;stroke-dashoffset:0;stroke-opacity:1;color-rendering:auto;image-rendering:auto;shape-rendering:auto;text-rendering:auto;enable-background:accumulate;stop-color:#000" d="M10 7c-.007-.235.848-.32 1.727-.074.88.243 1.115.655 2.11.938.92.262 2.169-.03 2.163.206v4.587c.01.315-1.129.326-2.126.087-.994-.238-1.18-.7-2.12-.943-.936-.24-1.776.168-1.754-.263Z"/><rect style="opacity:1;fill:#6d6d6d;fill-opacity:1;fill-rule:evenodd;stroke:none;stroke-width:2;stroke-linecap:butt;stroke-linejoin:round;stroke-miterlimit:4;stroke-dasharray:none;stroke-opacity:1" width="2" height="10" x="8" y="6" ry="1"/><path d="M10 7c-.007-.235.848-.32 1.727-.074.88.243 1.115.655 2.11.938.92.262 2.169-.03 2.163.206v4.587c.01.315-1.129.326-2.126.087-.994-.238-1.18-.7-2.12-.943-.936-.24-1.776.168-1.754-.263Z" style="fill:#fa9381;fill-opacity:1;fill-rule:evenodd;stroke:none;stroke-width:.991;stroke-linejoin:round"/></svg>