<svg xmlns="http://www.w3.org/2000/svg" viewBox="0 0 16 16">/&gt;<path d="M3 2h10l-.026 11.013H3Z" style="fill:#d85eca;fill-opacity:1;stroke-width:.861651"/><path d="M1.429 1.007A.43.43 0 0 0 1 1.44v12.127c0 .24.192.433.429.433H14.57a.43.43 0 0 0 .429-.433V1.44c0-.239-.335-.433-.571-.433H2.983zM2 2h.983L3 3h-.983zm2 0h8v11H4Zm9 0h1l.017 1h-1zM2 4h.983v1H2Zm11 0h1v1h-1zM2 6h.983v1H2Zm11 0h1v1h-1zM2 8h.983v1H2Zm11 0h1v1h-1ZM2 10h.983v1H2Zm11 0h1v1h-1ZM2 12h.983v1H2Zm11 0h1v1h-1z" style="opacity:.7;stroke-width:.861651"/><path style="display:block;fill:none;stroke:#000;stroke-width:1;stroke-linecap:square;stroke-linejoin:round;stroke-opacity:.588235" d="M4.5 7.5h7" display="block"/><path style="opacity:1;fill:#fff;fill-opacity:1;fill-rule:evenodd;stroke:none;stroke-width:2;stroke-linecap:butt;stroke-linejoin:round;stroke-miterlimit:4;stroke-dasharray:none;stroke-opacity:1" d="M2 2h1v1H2zM2 4h1v1H2zM2 6h1v1H2zM2 8h1v1H2zM2 10h1v1H2zM2 12h1v1H2zM13 2h1v1h-1zM13 4h1v1h-1zM13 6h1v1h-1zM13 8h1v1h-1zM13 10h1v1h-1zM13 12h1v1h-1z"/></svg>