<svg xmlns="http://www.w3.org/2000/svg" viewBox="0 0 16 16"><path style="color:#000;font-style:normal;font-variant:normal;font-weight:400;font-stretch:normal;font-size:medium;line-height:normal;font-family:sans-serif;font-variant-ligatures:normal;font-variant-position:normal;font-variant-caps:normal;font-variant-numeric:normal;font-variant-alternates:normal;font-variant-east-asian:normal;font-feature-settings:normal;font-variation-settings:normal;text-indent:0;text-align:start;text-decoration:none;text-decoration-line:none;text-decoration-style:solid;text-decoration-color:#000;letter-spacing:normal;word-spacing:normal;text-transform:none;writing-mode:lr-tb;direction:ltr;text-orientation:mixed;dominant-baseline:auto;baseline-shift:baseline;text-anchor:start;white-space:normal;shape-padding:0;shape-margin:0;inline-size:0;clip-rule:nonzero;display:inline;overflow:visible;visibility:visible;isolation:auto;mix-blend-mode:normal;color-interpolation:sRGB;color-interpolation-filters:linearRGB;solid-color:#000;solid-opacity:1;vector-effect:none;fill:#000;fill-opacity:1;fill-rule:nonzero;stroke:none;stroke-width:2;stroke-linecap:butt;stroke-linejoin:round;stroke-miterlimit:4;stroke-dasharray:none;stroke-dashoffset:0;stroke-opacity:1;color-rendering:auto;image-rendering:auto;shape-rendering:auto;text-rendering:auto;enable-background:accumulate;stop-color:#000;stop-opacity:1;opacity:.7" d="M4 0C3 0 2.16-.073 1.303.355.873.57.483.968.273 1.438.065 1.907 0 2.417 0 3v8c0 .583.065 1.093.273 1.563.21.47.6.867 1.03 1.082C2.16 14.073 3 14 4 14h2.107a1 1 0 0 0 .37-.072l-.35-.844c-.244-.59-.021-1.146.379-1.572-.402-.43-.628-.99-.385-1.576a1 1 0 0 0 0-.002l.463-1.112c.242-.585.798-.823 1.385-.843.019-.586.256-1.135.845-1.38l1.116-.462c.591-.245 1.146-.022 1.572.379.135-.127.218-.321.387-.391.365-.151.788-.16 1.19.006l.847.351A1 1 0 0 0 14 6.107V3c0-.583-.065-1.093-.273-1.563-.21-.47-.6-.867-1.03-1.082C11.84-.073 11 0 10 0H4zm0 2h6c1 0 1.66.073 1.803.145.07.035.054.012.095.105.042.093.102.333.102.75v2.191c-.164.032-.339-.054-.494.01-.085.035-.089.077-.154.12-.55-.243-1.164-.373-1.805-.108l-1.115.463c-.703.29-1.05.894-1.248 1.515-.625.197-1.23.541-1.524 1.248l-.463 1.11a1 1 0 0 0-.068.271c-.153.606-.002 1.18.26 1.686-.087.169-.198.305-.248.494H4c-1 0-1.66-.073-1.803-.145-.07-.035-.054-.012-.095-.105C2.06 11.657 2 11.417 2 11V3c0-.417.06-.657.102-.75.04-.093.024-.07.095-.105C2.34 2.073 3 2 4 2z"/><path style="fill:#fff;fill-opacity:1" d="M4 1C2 1 1 1 1 3v8c0 2 1 2 3 2h2.107c-.19-.558.018-1.083.399-1.488-.402-.43-.628-.99-.385-1.576a1 1 0 0 0 0-.002l.463-1.112c.242-.585.798-.823 1.385-.843.019-.586.256-1.135.845-1.38l1.116-.462c.591-.245 1.146-.022 1.572.379.135-.127.218-.321.387-.391A1.539 1.539 0 0 1 13 6.107V3c0-2-1-2-3-2H4zm7.441 10.363c-.063.026-.113.15-.087.211.026.063.149.114.21.088.063-.026.114-.15.088-.21-.026-.064-.149-.114-.21-.089z"/><path style="opacity:1;vector-effect:none;fill:#1463a5;fill-opacity:1;stroke:none;stroke-width:1.70276;stroke-linecap:round;stroke-linejoin:round;stroke-miterlimit:4;stroke-dasharray:none;stroke-dashoffset:0;stroke-opacity:1" d="M6 3h5v2H6z"/><path style="opacity:1;vector-effect:none;fill:#1463a5;fill-opacity:1;stroke:none;stroke-width:2.15385;stroke-linecap:round;stroke-linejoin:round;stroke-miterlimit:4;stroke-dasharray:none;stroke-dashoffset:0;stroke-opacity:1" d="M3 3h2v2H3z"/><path style="opacity:1;vector-effect:none;fill:#e62d42;fill-opacity:1;stroke:none;stroke-width:2.15385;stroke-linecap:round;stroke-linejoin:round;stroke-miterlimit:4;stroke-dasharray:none;stroke-dashoffset:0;stroke-opacity:1" d="M3 6h2v2H3z"/><path style="opacity:1;vector-effect:none;fill:#46a926;fill-opacity:1;stroke:none;stroke-width:2.15385;stroke-linecap:round;stroke-linejoin:round;stroke-miterlimit:4;stroke-dasharray:none;stroke-dashoffset:0;stroke-opacity:1" d="M3 9h2v2H3z"/><path style="opacity:1;vector-effect:none;fill:#e62d42;fill-opacity:1;stroke:none;stroke-width:1.70276;stroke-linecap:round;stroke-linejoin:round;stroke-miterlimit:4;stroke-dasharray:none;stroke-dashoffset:0;stroke-opacity:1" d="M6 6v2h1.81c.054-.006.105-.02.159-.021.019-.586.256-1.135.845-1.38l1.116-.462c.381-.158.743-.107 1.07.047V6H6z"/><path style="opacity:1;vector-effect:none;fill:#46a926;fill-opacity:1;stroke:none;stroke-width:1.70276;stroke-linecap:round;stroke-linejoin:round;stroke-miterlimit:4;stroke-dasharray:none;stroke-dashoffset:0;stroke-opacity:1" d="M6 9v2h.168c-.152-.327-.203-.689-.047-1.064a1 1 0 0 0 0-.002L6.51 9H6z"/><circle style="fill:#fff;fill-opacity:1;fill-rule:evenodd;stroke:none;stroke-width:2;stroke-linecap:round;stroke-linejoin:round;stroke-miterlimit:4;stroke-dasharray:none;stroke-opacity:1" cx="11.5" cy="11.5" r="1.5"/><path d="M9.311 7.792a.244.244 0 0 0-.135.325l.273.657c-.26.195-.472.424-.662.678l-.674-.279a.248.248 0 0 0-.329.136l-.462 1.115a.248.248 0 0 0 .137.329l.673.279a3.312 3.312 0 0 0-.011.948l-.657.272a.244.244 0 0 0-.135.325l.463 1.117c.054.13.194.189.325.135l.657-.272c.195.26.424.471.678.662l-.279.673a.248.248 0 0 0 .136.329l1.115.462a.248.248 0 0 0 .329-.136l.279-.674c.314.045.626.057.948.012l.272.657c.054.13.195.188.325.134l1.117-.462a.244.244 0 0 0 .135-.326l-.272-.657c.26-.195.471-.424.662-.678l.673.28a.248.248 0 0 0 .329-.137l.462-1.115a.248.248 0 0 0-.136-.329l-.674-.279c.045-.314.057-.625.012-.947l.657-.273a.244.244 0 0 0 .134-.325l-.462-1.117a.244.244 0 0 0-.326-.135l-.657.273a3.312 3.312 0 0 0-.678-.662l.28-.674a.248.248 0 0 0-.137-.329l-1.115-.462a.248.248 0 0 0-.329.137l-.279.673a3.312 3.312 0 0 0-.947-.011l-.273-.657a.244.244 0 0 0-.325-.135Zm1.756 2.66a1.138 1.138 0 1 1 .87 2.103 1.138 1.138 0 0 1-.87-2.104z" display="block" fill="url(#d)" stroke="url(#e)" stroke-linejoin="round" stroke-width=".6" style="fill:#d3d3d3;fill-opacity:1;stroke:#4d4d4d;stroke-opacity:1"/></svg>