<svg xmlns="http://www.w3.org/2000/svg" viewBox="0 0 16 16"><path style="opacity:.7;fill:#000;stroke:#000;stroke-width:2;stroke-linejoin:round;stroke-miterlimit:4;stroke-dasharray:none" d="M7 12V4c0-2 1-2 3-2h2l3 3v7c0 2-1 2-3 2h-2c-2 0-3 0-3-2Z"/><path d="M7 12V4c0-2 1-2 3-2h2l3 3v7c0 2-1 2-3 2h-2c-2 0-3 0-3-2Z" style="fill:#fff"/><path d="M12 5V2l3 3z" style="fill:#6d6d6d;fill-opacity:1"/><path style="opacity:1;vector-effect:none;fill:#e62d42;fill-opacity:1;stroke:none;stroke-width:2.63791;stroke-linecap:round;stroke-linejoin:round;stroke-miterlimit:4;stroke-dasharray:none;stroke-dashoffset:0;stroke-opacity:1" d="M3 7h1v2H3z"/><path style="opacity:1;fill:#e62d42;fill-opacity:1;fill-rule:evenodd;stroke:none;stroke-width:2;stroke-linecap:round;stroke-linejoin:round;stroke-miterlimit:4;stroke-dasharray:none;stroke-opacity:1" d="M1 10h1v2H1zM3 10h1v2H3z"/><path style="fill:#232629;fill-opacity:1;fill-rule:evenodd;stroke-width:2;stroke-linecap:round;stroke-linejoin:round" transform="scale(-1 1)" d="M-14 7h6v1h-6zM-14 9h6v1h-6zM-14 11h6v1h-6z"/></svg>