<svg xmlns="http://www.w3.org/2000/svg" viewBox="0 0 16 16">/&amp;gt;<path style="color:#000;font-style:normal;font-variant:normal;font-weight:400;font-stretch:normal;font-size:medium;line-height:normal;font-family:sans-serif;font-variant-ligatures:normal;font-variant-position:normal;font-variant-caps:normal;font-variant-numeric:normal;font-variant-alternates:normal;font-variant-east-asian:normal;font-feature-settings:normal;font-variation-settings:normal;text-indent:0;text-align:start;text-decoration:none;text-decoration-line:none;text-decoration-style:solid;text-decoration-color:#000;letter-spacing:normal;word-spacing:normal;text-transform:none;writing-mode:lr-tb;direction:ltr;text-orientation:mixed;dominant-baseline:auto;baseline-shift:baseline;text-anchor:start;white-space:normal;shape-padding:0;shape-margin:0;inline-size:0;clip-rule:nonzero;display:inline;overflow:visible;visibility:visible;opacity:.7;isolation:auto;mix-blend-mode:normal;color-interpolation:sRGB;color-interpolation-filters:linearRGB;solid-color:#000;solid-opacity:1;vector-effect:none;fill:#000;fill-opacity:1;fill-rule:evenodd;stroke:none;stroke-width:2;stroke-linecap:butt;stroke-linejoin:round;stroke-miterlimit:4;stroke-dasharray:none;stroke-dashoffset:0;stroke-opacity:1;color-rendering:auto;image-rendering:auto;shape-rendering:auto;text-rendering:auto;enable-background:accumulate;stop-color:#000" d="M14.84 6.95 9.185 1.293a.998.998 0 0 0-1.414 0L5.648 3.414a.998.998 0 0 0 0 1.414l5.657 5.657a.998.998 0 0 0 1.414 0l2.122-2.121a.998.998 0 0 0 0-1.414z"/><path style="color:#000;font-style:normal;font-variant:normal;font-weight:400;font-stretch:normal;font-size:medium;line-height:normal;font-family:sans-serif;font-variant-ligatures:normal;font-variant-position:normal;font-variant-caps:normal;font-variant-numeric:normal;font-variant-alternates:normal;font-variant-east-asian:normal;font-feature-settings:normal;font-variation-settings:normal;text-indent:0;text-align:start;text-decoration:none;text-decoration-line:none;text-decoration-style:solid;text-decoration-color:#000;letter-spacing:normal;word-spacing:normal;text-transform:none;writing-mode:lr-tb;direction:ltr;text-orientation:mixed;dominant-baseline:auto;baseline-shift:baseline;text-anchor:start;white-space:normal;shape-padding:0;shape-margin:0;inline-size:0;clip-rule:nonzero;display:inline;overflow:visible;visibility:visible;opacity:.7;isolation:auto;mix-blend-mode:normal;color-interpolation:sRGB;color-interpolation-filters:linearRGB;solid-color:#000;solid-opacity:1;vector-effect:none;fill:#000;fill-opacity:1;fill-rule:evenodd;stroke:none;stroke-width:2;stroke-linecap:butt;stroke-linejoin:round;stroke-miterlimit:4;stroke-dasharray:none;stroke-dashoffset:0;stroke-opacity:1;color-rendering:auto;image-rendering:auto;shape-rendering:auto;text-rendering:auto;enable-background:accumulate;stop-color:#000" d="M8.477.008c-.515 0-1.029.192-1.415.578l-2.12 2.121a2.018 2.018 0 0 0 0 2.828l5.656 5.656a2.018 2.018 0 0 0 2.828 0l2.123-2.12c.208-.21.355-.456.451-.72v-1.39a1.95 1.95 0 0 0-.451-.719L9.89.586A1.994 1.994 0 0 0 8.477.008zm0 1.992 5.658 5.656-2.123 2.121-5.657-5.656L8.477 2z"/><path style="fill:#6d6d6d;fill-opacity:1;stroke:none;stroke-width:1px;stroke-linecap:butt;stroke-linejoin:miter;stroke-opacity:1" d="m7.062 2-.707-.707c-1.414-1.414-2.12-.707-2.828 0L2.113 2.707c-.707.707-1.414 1.414 0 2.829L4.94 8.364c.707.707.707.707 0 1.414l.707.707c.707-.707 1.415-1.414 0-2.828L2.82 4.828c-.707-.707-.707-.707 0-1.414L4.234 2c.707-.707.707-.707 1.414 0l.707.707L7.062 2"/><path style="fill:#fa9381;fill-opacity:1;stroke:none;stroke-width:1px;stroke-linecap:butt;stroke-linejoin:miter;stroke-opacity:1" d="m5.648 10.485-.707-.707c-.707-.707-.707-.707-2.828 1.414l-.707.707C-.01 13.313-.01 13.313.698 14.021l.708.707c.707.707.707.707 2.121-.707l.707-.707c2.121-2.122 2.121-2.122 1.414-2.829z"/><rect ry="1" y="-5.58" x="-16.408" height="5" width="10" style="opacity:1;fill:#fff;fill-opacity:1;fill-rule:evenodd;stroke:none;stroke-width:2;stroke-linecap:butt;stroke-linejoin:round;stroke-miterlimit:4;stroke-dasharray:none;stroke-opacity:1" rx="1" transform="scale(-1 1) rotate(-45)"/><circle style="opacity:1;vector-effect:none;fill:#e62d42;fill-opacity:1;stroke:none;stroke-width:3.5;stroke-linecap:butt;stroke-linejoin:round;stroke-miterlimit:4;stroke-dasharray:none;stroke-dashoffset:0;stroke-opacity:1" cy="12.5" cx="-12.563" r="3.5" transform="scale(-1 1)"/><path d="M12.563 10c.433 0 .832.12 1.187.313l-.75.75a1.539 1.539 0 0 0-.438-.063c-.83 0-1.5.669-1.5 1.5 0 .15.022.3.063.438l-.75.75a2.476 2.476 0 0 1-.313-1.188c0-1.385 1.116-2.5 2.5-2.5zm2.187 1.313c.192.354.313.754.313 1.187 0 1.385-1.116 2.5-2.5 2.5-.434 0-.833-.12-1.188-.313l.75-.75c.137.042.287.063.438.063.83 0 1.5-.669 1.5-1.5 0-.15-.022-.3-.063-.438z" style="fill:#fff;fill-opacity:1"/></svg>