<svg viewBox="0 0 16 16" xmlns="http://www.w3.org/2000/svg">/&gt;<path d="M5.011.973c-1.258.014-2.179-.03-2.932.385a1.88 1.88 0 0 0-.837.998c-.165.438-.225.96-.225 1.617V10.974c0 .657.06 1.178.225 1.617.164.438.461.788.837.996.753.415 1.674.371 2.932.387h6.012c1.258-.015 2.179.03 2.931-.385a1.88 1.88 0 0 0 .838-.998c.165-.439.225-.96.225-1.617V3.973c0-.658-.06-1.179-.225-1.617a1.875 1.875 0 0 0-.838-.996c-.752-.416-1.673-.372-2.931-.387H5.015z" style="font-style:normal;font-variant:normal;font-weight:400;font-stretch:normal;font-size:15px;line-height:125%;font-family:Ubuntu;-inkscape-font-specification:Ubuntu;text-align:center;letter-spacing:0;word-spacing:0;writing-mode:lr-tb;text-anchor:middle;display:inline;opacity:.7;fill:#000;fill-opacity:1;stroke:none;stroke-width:.99980211"/><path d="M5 2c-1.557.01-.11-.012-1.66.039-.46.042-1.016.206-1.155.71-.219.635-.108 1.334-.146 1.982-.008 2.297-.023 4.596.022 6.886.039.462.202 1.012.699 1.163.632.225 1.284.123 1.936.155 1.424.006-.15.01 1.276.01 1.704.001 4.408-.004 6.107-.018.512-.012 1.184.02 1.585-.405.42-.54.287-1.268.323-1.904.011-2.444.027-4.91-.022-7.357-.05-.402-.17-.863-.575-1.044-.669-.294-1.427-.168-2.126-.206C9.509 2 6.754 2 5 2Z" style="opacity:1;vector-effect:none;fill:#fff;fill-opacity:1;stroke:none;stroke-width:1;stroke-linecap:round;stroke-linejoin:bevel;stroke-miterlimit:4;stroke-dasharray:none;stroke-dashoffset:0;stroke-opacity:1"/><circle style="opacity:.7;fill:none;fill-rule:evenodd;stroke:#000;stroke-width:2;stroke-linecap:round;stroke-linejoin:round" cx="9.5" cy="9.5" r="4.5"/><circle style="fill:#fff;fill-rule:evenodd;stroke:none;stroke-width:2;stroke-linecap:round;stroke-linejoin:round" cx="9.5" cy="9.5" r="4.5"/><path style="fill:#46a926;fill-opacity:1;stroke:none;stroke-width:1.41421;stroke-linejoin:round;stroke-miterlimit:4;stroke-dasharray:none;stroke-opacity:1" d="M9 7v2H7v1h2v2h1v-2h2V9h-2V7z"/><path style="fill:none;stroke:#6d6d6d;stroke-width:1.5;stroke-linecap:round;stroke-linejoin:miter" d="M15.25 15.25 13.9 13.9"/></svg>