<svg xmlns="http://www.w3.org/2000/svg" xmlns:xlink="http://www.w3.org/1999/xlink" viewBox="0 0 24 24"><defs><linearGradient id="a"><stop style="stop-color:#151515;stop-opacity:1" offset="0"/><stop style="stop-color:#4d4d4d;stop-opacity:1" offset="1"/></linearGradient><linearGradient xlink:href="#a" id="b" x1="13" y1="4" x2="13" y2="19" gradientUnits="userSpaceOnUse"/></defs><path style="fill:#000;stroke:#fff;opacity:1;stroke-width:2;stroke-miterlimit:4;stroke-dasharray:none;stroke-linejoin:round" fill="#232629" d="m16.118 13.773-.343 1.92Q14.978 20 10.147 20t-4.034-4.307l.38-2.093h2.305l-.38 2.093q-.454 2.467 2.072 2.467 2.526 0 2.98-2.467l.38-2.12-1.374-.226q-6.363-1.014-5.627-5.04.343-1.84 1.802-3.08Q10.098 4 13.163 4q3.065 0 4.07 1.227.994 1.24.7 2.813l-.123.667h-2.305l.123-.667q.184-.96-.43-1.587-.6-.613-2.378-.613t-2.612.613q-.821.627-1.054 1.854-.466 2.533 3.776 3.213l1.361.213q.172-.32.466-.586.527-.48 1.165-.48.637 0 .993.493.356.48.233 1.173-.123.694-.662 1.174-.172.16-.368.266z"/><path d="m16.118 13.773-.343 1.92Q14.978 20 10.147 20t-4.034-4.307l.38-2.093h2.305l-.38 2.093q-.454 2.467 2.072 2.467 2.526 0 2.98-2.467l.38-2.12-1.374-.226q-6.363-1.014-5.627-5.04.343-1.84 1.802-3.08Q10.098 4 13.163 4q3.065 0 4.07 1.227.994 1.24.7 2.813l-.123.667h-2.305l.123-.667q.184-.96-.43-1.587-.6-.613-2.378-.613t-2.612.613q-.821.627-1.054 1.854-.466 2.533 3.776 3.213l1.361.213q.172-.32.466-.586.527-.48 1.165-.48.637 0 .993.493.356.48.233 1.173-.123.694-.662 1.174-.172.16-.368.266z" fill="#232629" style="fill:url(#b);fill-opacity:1"/></svg>