<svg xmlns="http://www.w3.org/2000/svg" height="18" width="140"><g fill="none" stroke="#232629" stroke-linejoin="round"><path d="M5 6.5h2l3 3h2l3-3h1M16 6.5h2l3 3h2l3-3h1M27 6.5h2l3 3h2l3-3h1M38 6.5h2l3 3h2l3-3h1M49 6.5h2l3 3h2l3-3h1M60 6.5h2l3 3h2l3-3h1M71 6.5h2l3 3h2l3-3h1M82 6.5h2l3 3h2l3-3h1M93 6.5h2l3 3h2l3-3h1M104 6.5h2l3 3h2l3-3h1M115 6.5h2l3 3h2l3-3h1M126 6.5h2l3 3h2l3-3h1"/></g><g fill="none" stroke="#fff" stroke-linejoin="round"><path d="M5 8.5h2l3 3h2l3-3h1M16 8.5h2l3 3h2l3-3h1M27 8.5h2l3 3h2l3-3h1M38 8.5h2l3 3h2l3-3h1M49 8.5h2l3 3h2l3-3h1M60 8.5h2l3 3h2l3-3h1M71 8.5h2l3 3h2l3-3h1M82 8.5h2l3 3h2l3-3h1M93 8.5h2l3 3h2l3-3h1M104 8.5h2l3 3h2l3-3h1M115 8.5h2l3 3h2l3-3h1M126 8.5h2l3 3h2l3-3h1"/></g></svg>