<svg xmlns="http://www.w3.org/2000/svg" height="18" width="140"><g fill="#3a3a38" style="fill:#232629;fill-opacity:1"><path d="M5 8h12v2H5zM21 8h12v2H21zM37 8h12v2H37zM53 8h12v2H53zM69 8h12v2H69zM85 8h12v2H85zM101 8h12v2h-12zM117 8h12v2h-12zM133 8h2v2h-2z" style="fill:#232629;fill-opacity:1" transform="translate(0 -1)"/></g><g fill="#3a3a38" style="fill:#fff;fill-opacity:1"><path d="M5 8h12v2H5zM21 8h12v2H21zM37 8h12v2H37zM53 8h12v2H53zM69 8h12v2H69zM85 8h12v2H85zM101 8h12v2h-12zM117 8h12v2h-12zM133 8h2v2h-2z" style="fill:#fff;fill-opacity:1" transform="translate(0 1)"/></g></svg>