<svg xmlns="http://www.w3.org/2000/svg" height="18" width="140"><g fill="#3a3a38" style="fill:#232629;fill-opacity:1"><path d="M5 8h8v2H5zM27 8h8v2h-8zM49 8h8v2h-8zM38 8h8v2h-8zM16 8h8v2h-8zM82 8h8v2h-8zM60 8h8v2h-8zM126 8h8v2h-8zM104 8h8v2h-8zM71 8h8v2h-8zM93 8h8v2h-8zM115 8h8v2h-8z" style="fill:#232629;fill-opacity:1" transform="translate(0 -1)"/></g><g fill="#3a3a38" style="fill:#fff;fill-opacity:1"><path d="M5 8h8v2H5zM27 8h8v2h-8zM49 8h8v2h-8zM38 8h8v2h-8zM16 8h8v2h-8zM82 8h8v2h-8zM60 8h8v2h-8zM126 8h8v2h-8zM104 8h8v2h-8zM71 8h8v2h-8zM93 8h8v2h-8zM115 8h8v2h-8z" style="fill:#fff;fill-opacity:1" transform="translate(0 1)"/></g></svg>