<?xml version="1.0" encoding="UTF-8" standalone="no"?>
<svg
   xmlns:dc="http://purl.org/dc/elements/1.1/"
   xmlns:cc="http://creativecommons.org/ns#"
   xmlns:rdf="http://www.w3.org/1999/02/22-rdf-syntax-ns#"
   xmlns:svg="http://www.w3.org/2000/svg"
   xmlns="http://www.w3.org/2000/svg"
   xmlns:xlink="http://www.w3.org/1999/xlink"
   xmlns:sodipodi="http://sodipodi.sourceforge.net/DTD/sodipodi-0.dtd"
   xmlns:inkscape="http://www.inkscape.org/namespaces/inkscape"
   viewBox="0 0 24 24"
   version="1.1"
   id="svg4"
   sodipodi:docname="lc_italic.svg"
   inkscape:export-filename="/home/jupiter007/Libreoffice yaru theme fullcolor/build/cmd/ca/lc_italic.png"
   inkscape:export-xdpi="96"
   inkscape:export-ydpi="96"
   inkscape:version="1.0.1 (3bc2e813f5, 2020-09-07)">
  <metadata
     id="metadata10">
    <rdf:RDF>
      <cc:Work
         rdf:about="">
        <dc:format>image/svg+xml</dc:format>
        <dc:type
           rdf:resource="http://purl.org/dc/dcmitype/StillImage" />
        <dc:title></dc:title>
      </cc:Work>
    </rdf:RDF>
  </metadata>
  <defs
     id="defs8">
    <linearGradient
       inkscape:collect="always"
       id="linearGradient836">
      <stop
         style="stop-color:#151515;stop-opacity:1"
         offset="0"
         id="stop832" />
      <stop
         style="stop-color:#4d4d4d;stop-opacity:1"
         offset="1"
         id="stop834" />
    </linearGradient>
    <linearGradient
       inkscape:collect="always"
       xlink:href="#linearGradient836"
       id="linearGradient838"
       x1="11"
       y1="5"
       x2="11"
       y2="19"
       gradientUnits="userSpaceOnUse"
       gradientTransform="translate(0.075)" />
    <linearGradient
       inkscape:collect="always"
       xlink:href="#linearGradient836"
       id="linearGradient848"
       gradientUnits="userSpaceOnUse"
       x1="11"
       y1="5"
       x2="11"
       y2="19"
       gradientTransform="translate(0.075)" />
  </defs>
  <sodipodi:namedview
     pagecolor="#ffffff"
     bordercolor="#666666"
     borderopacity="1"
     objecttolerance="10"
     gridtolerance="10"
     guidetolerance="10"
     inkscape:pageopacity="0"
     inkscape:pageshadow="2"
     inkscape:window-width="1920"
     inkscape:window-height="1043"
     id="namedview6"
     showgrid="true"
     inkscape:zoom="19.666667"
     inkscape:cx="8.8535087"
     inkscape:cy="11.690916"
     inkscape:window-x="1920"
     inkscape:window-y="0"
     inkscape:window-maximized="1"
     inkscape:current-layer="svg4"
     inkscape:document-rotation="0">
    <inkscape:grid
       type="xygrid"
       id="grid812" />
  </sodipodi:namedview>
  <path
     inkscape:connector-curvature="0"
     style="opacity:1;fill:#000000;stroke:#ffffff;stroke-width:3;stroke-linejoin:round;stroke-miterlimit:4;stroke-dasharray:none;stroke-opacity:1"
     id="path816"
     d="m 13.863281,4.5004687 c -1.162293,0 -2.252371,0.2269698 -3.271484,0.6796875 C 9.5726845,5.6328741 8.6837988,6.2683372 7.9257812,7.0864062 6.3267601,8.8420607 5.5665972,10.246838 5.5,12.769531 c 0,0.984859 0.1347796,1.888832 0.4042969,2.714844 0.2779398,0.826011 0.6737326,1.537132 1.1875,2.132813 0.5137675,0.595682 1.1416398,1.060949 1.8828125,1.394531 C 9.7242045,19.337358 10.570362,19.5 11.513672,19.5 c 1.195983,0 2.248582,-0.202358 3.158203,-0.607422 0.918043,-0.413005 1.723423,-0.993647 2.414063,-1.740234 l -0.796876,-0.904297 c -0.04211,-0.07943 -0.134162,-0.119141 -0.277343,-0.119141 -0.126336,0 -0.278207,0.08321 -0.455078,0.25 -0.176871,0.158848 -0.417496,0.336595 -0.720703,0.535156 -0.303208,0.19856 -0.690455,0.382038 -1.16211,0.548829 -0.471655,0.158852 -1.065345,0.238281 -1.78125,0.238281 C 6.8767694,17.093333 6.4999619,11.939823 9.4921875,8.2895313 10.031222,7.6541379 10.662391,7.1699878 11.386719,6.8364062 c 0.73275,-0.3415238 1.51579,-0.5136718 2.349609,-0.5136718 0.412699,0 0.776262,0.03594 1.087891,0.1074218 0.311629,0.063539 0.581188,0.1467486 0.808593,0.25 0.227405,0.1032514 0.420052,0.2148482 0.580079,0.3339844 0.160025,0.111194 0.300054,0.2190143 0.417968,0.3222656 0.126336,0.1032514 0.235478,0.1902369 0.328125,0.2617187 0.09265,0.063539 0.184694,0.095703 0.277344,0.095703 0.117913,0 0.215216,-0.024611 0.291016,-0.072266 0.0758,-0.047655 0.147464,-0.1062523 0.214844,-0.1777344 L 18.5,6.5727344 C 18.247328,6.2550376 17.965926,5.9694698 17.654297,5.7153125 17.351089,5.4532127 17.009867,5.2357487 16.630859,5.0610156 16.260273,4.87834 15.847389,4.7383559 15.392578,4.6430469 14.937769,4.5477383 14.427584,4.5004687 13.863281,4.5004687 Z"
     sodipodi:nodetypes="sscccscscccsccccccscscccssccccss" />
  <path
     d="m 13.863281,4.5004687 c -1.162293,0 -2.252371,0.2269698 -3.271484,0.6796875 C 9.5726845,5.6328741 8.6837988,6.2683372 7.9257812,7.0864062 6.3267601,8.8420607 5.5665972,10.246838 5.5,12.769531 c 0,0.984859 0.1347796,1.888832 0.4042969,2.714844 0.2779398,0.826011 0.6737326,1.537132 1.1875,2.132813 0.5137675,0.595682 1.1416398,1.060949 1.8828125,1.394531 C 9.7242045,19.337358 10.570362,19.5 11.513672,19.5 c 1.195983,0 2.248582,-0.202358 3.158203,-0.607422 0.918043,-0.413005 1.723423,-0.993647 2.414063,-1.740234 l -0.796876,-0.904297 c -0.04211,-0.07943 -0.134162,-0.119141 -0.277343,-0.119141 -0.126336,0 -0.278207,0.08321 -0.455078,0.25 -0.176871,0.158848 -0.417496,0.336595 -0.720703,0.535156 -0.303208,0.19856 -0.690455,0.382038 -1.16211,0.548829 -0.471655,0.158852 -1.065345,0.238281 -1.78125,0.238281 C 6.8767694,17.093333 6.4999619,11.939823 9.4921875,8.2895313 10.031222,7.6541379 10.662391,7.1699878 11.386719,6.8364062 c 0.73275,-0.3415238 1.51579,-0.5136718 2.349609,-0.5136718 0.412699,0 0.776262,0.03594 1.087891,0.1074218 0.311629,0.063539 0.581188,0.1467486 0.808593,0.25 0.227405,0.1032514 0.420052,0.2148482 0.580079,0.3339844 0.160025,0.111194 0.300054,0.2190143 0.417968,0.3222656 0.126336,0.1032514 0.235478,0.1902369 0.328125,0.2617187 0.09265,0.063539 0.184694,0.095703 0.277344,0.095703 0.117913,0 0.215216,-0.024611 0.291016,-0.072266 0.0758,-0.047655 0.147464,-0.1062523 0.214844,-0.1777344 L 18.5,6.5727344 C 18.247328,6.2550376 17.965926,5.9694698 17.654297,5.7153125 17.351089,5.4532127 17.009867,5.2357487 16.630859,5.0610156 16.260273,4.87834 15.847389,4.7383559 15.392578,4.6430469 14.937769,4.5477383 14.427584,4.5004687 13.863281,4.5004687 Z"
     id="path2"
     style="fill:url(#linearGradient838);fill-opacity:1;stroke:url(#linearGradient848);stroke-width:1;stroke-miterlimit:4;stroke-dasharray:none;stroke-opacity:1"
     inkscape:connector-curvature="0"
     sodipodi:nodetypes="sscccscscccsccccccscscccssccccss" />
</svg>
