<?xml version="1.0" encoding="UTF-8" standalone="no"?>
<svg
   xmlns:dc="http://purl.org/dc/elements/1.1/"
   xmlns:cc="http://creativecommons.org/ns#"
   xmlns:rdf="http://www.w3.org/1999/02/22-rdf-syntax-ns#"
   xmlns:svg="http://www.w3.org/2000/svg"
   xmlns="http://www.w3.org/2000/svg"
   xmlns:xlink="http://www.w3.org/1999/xlink"
   xmlns:sodipodi="http://sodipodi.sourceforge.net/DTD/sodipodi-0.dtd"
   xmlns:inkscape="http://www.inkscape.org/namespaces/inkscape"
   viewBox="0 0 16 16"
   version="1.1"
   id="svg4"
   sodipodi:docname="sc_underlinedouble.svg"
   inkscape:version="1.0.1 (3bc2e813f5, 2020-09-07)"
   inkscape:export-filename="/home/jupiter007/Libreoffice yaru theme fullcolor/build/cmd/ca/sc_underlinedouble.png"
   inkscape:export-xdpi="96"
   inkscape:export-ydpi="96">
  <metadata
     id="metadata10">
    <rdf:RDF>
      <cc:Work
         rdf:about="">
        <dc:format>image/svg+xml</dc:format>
        <dc:type
           rdf:resource="http://purl.org/dc/dcmitype/StillImage" />
        <dc:title></dc:title>
      </cc:Work>
    </rdf:RDF>
  </metadata>
  <defs
     id="defs8">
    <linearGradient
       inkscape:collect="always"
       xlink:href="#a"
       id="linearGradient881"
       x1="8"
       y1="15"
       x2="8"
       y2="1"
       gradientUnits="userSpaceOnUse" />
    <radialGradient
       id="a"
       cx="7.0107198"
       cy="4.5281138"
       gradientTransform="matrix(-1.8940078,3.7390502e-8,-6.4187424e-8,-3.6423225,20.778358,17.055019)"
       gradientUnits="userSpaceOnUse"
       r="3.4318759">
      <stop
         offset="0"
         stop-color="#737373"
         id="stop2"
         style="stop-color:#4d4d4d;stop-opacity:1" />
      <stop
         offset=".262"
         stop-color="#636363"
         id="stop4" />
      <stop
         offset=".705"
         stop-color="#4b4b4b"
         id="stop6" />
      <stop
         offset="1"
         stop-color="#3f3f3f"
         id="stop8"
         style="stop-color:#151515;stop-opacity:1" />
    </radialGradient>
    <linearGradient
       inkscape:collect="always"
       xlink:href="#a"
       id="linearGradient868"
       x1="9"
       y1="15"
       x2="9"
       y2="1"
       gradientUnits="userSpaceOnUse" />
  </defs>
  <sodipodi:namedview
     pagecolor="#808080"
     bordercolor="#666666"
     borderopacity="1"
     objecttolerance="10"
     gridtolerance="10"
     guidetolerance="10"
     inkscape:pageopacity="0"
     inkscape:pageshadow="2"
     inkscape:window-width="1920"
     inkscape:window-height="1043"
     id="namedview6"
     showgrid="true"
     inkscape:zoom="29.5"
     inkscape:cx="7.3218938"
     inkscape:cy="8.2521827"
     inkscape:window-x="1920"
     inkscape:window-y="0"
     inkscape:window-maximized="1"
     inkscape:current-layer="svg4"
     inkscape:document-rotation="0">
    <inkscape:grid
       type="xygrid"
       id="grid829" />
  </sodipodi:namedview>
  <path
     d="M 8.298828,1 C 7.000472,1 5.9809074,1.2959004 5.2421875,1.8867188 4.509064,2.4775371 4.1425781,3.2896642 4.1425781,4.3222656 c 0,0.5482368 0.1120831,1.0256999 0.3359375,1.4355469 0.2238546,0.4098469 0.5234813,0.7694091 0.8984375,1.078125 0.3749564,0.3087159 0.9375879,0.6314675 1.6874999,0.9667969 0.80028,0.3619427 1.328505,0.6260122 1.585938,0.7910156 0.263029,0.1650033 0.46139,0.3366069 0.595703,0.517578 0.134313,0.175649 0.201172,0.3785471 0.201172,0.6074221 0,0.4098469 -0.153138,0.7181969 -0.460938,0.9257809 -0.302203,0.207586 -0.737765,0.3125 -1.308594,0.3125 -0.47569,0 -1.001699,-0.07308 -1.578125,-0.216797 C 5.5287804,10.596522 4.8282617,10.349345 4,9.9980471 V 12.296875 C 5.0073453,12.765272 6.16506,13 7.474609,13 8.896085,13 10.004145,12.69663 10.798828,12.089844 11.599108,11.483058 12,10.653502 12,9.5996091 12,8.8384651 11.786651,8.1954515 11.361328,7.6738281 10.936004,7.146882 10.15116,6.6231858 9.003906,6.1015625 8.13647,5.7076835 7.584657,5.4361446 7.349609,5.2871094 7.120158,5.1327514 6.952034,4.9760869 6.845703,4.8164062 6.739372,4.6514029 6.685547,4.4604177 6.685547,4.2421875 c 0,-0.3512974 0.131502,-0.6372385 0.394531,-0.8554687 0.263029,-0.2182302 0.642286,-0.3261719 1.134766,-0.3261719 0.414131,0 0.832489,0.049259 1.257812,0.1503906 0.43092,0.101131 0.974132,0.2796673 1.628906,0.5351563 L 11.941406,1.8222656 C 11.309018,1.5614539 10.701163,1.3585563 10.119141,1.2148438 9.542716,1.0711312 8.936814,1 8.298828,1 Z"
     fill="#232629"
     id="path841"
     style="fill:#ffffff;fill-opacity:1;stroke:#ffffff;stroke-width:2;stroke-linejoin:round" />
  <rect
     style="fill:#ffffff;fill-rule:evenodd;stroke:#ffffff;stroke-width:2;stroke-linecap:square;stroke-linejoin:round"
     id="rect857"
     width="10"
     height="1"
     x="3"
     y="14" />
  <path
     id="rect859"
     style="fill:url(#linearGradient881);fill-opacity:1;fill-rule:evenodd;stroke:none;stroke-width:2;stroke-linecap:square;stroke-linejoin:round"
     d="m 3,14 h 10 v 1 H 3 Z M 8.298828,1 C 7.000472,1 5.9809074,1.2959004 5.2421875,1.8867188 4.509064,2.4775371 4.1425781,3.2896642 4.1425781,4.3222656 c 0,0.5482368 0.1120831,1.0256999 0.3359375,1.4355469 0.2238546,0.4098469 0.5234813,0.7694091 0.8984375,1.078125 0.3749564,0.3087159 0.9375879,0.6314675 1.6874999,0.9667969 0.80028,0.3619427 1.328505,0.6260122 1.585938,0.7910156 0.263029,0.1650033 0.46139,0.3366069 0.595703,0.517578 0.134313,0.175649 0.201172,0.3785471 0.201172,0.6074221 0,0.4098469 -0.153138,0.7181969 -0.460938,0.9257809 -0.302203,0.207586 -0.737765,0.3125 -1.308594,0.3125 -0.47569,0 -1.001699,-0.07308 -1.578125,-0.216797 C 5.5287804,10.596522 4.8282617,10.349345 4,9.9980471 V 12.296875 C 5.0073453,12.765272 6.16506,13 7.474609,13 8.896085,13 10.004145,12.69663 10.798828,12.089844 11.599108,11.483058 12,10.653502 12,9.5996091 12,8.8384651 11.786651,8.1954515 11.361328,7.6738281 10.936004,7.146882 10.15116,6.6231858 9.003906,6.1015625 8.13647,5.7076835 7.584657,5.4361446 7.349609,5.2871094 7.120158,5.1327514 6.952034,4.9760869 6.845703,4.8164062 6.739372,4.6514029 6.685547,4.4604177 6.685547,4.2421875 c 0,-0.3512974 0.131502,-0.6372385 0.394531,-0.8554687 0.263029,-0.2182302 0.642286,-0.3261719 1.134766,-0.3261719 0.414131,0 0.832489,0.049259 1.257812,0.1503906 0.43092,0.101131 0.974132,0.2796673 1.628906,0.5351563 L 11.941406,1.8222656 C 11.309018,1.5614539 10.701163,1.3585563 10.119141,1.2148438 9.542716,1.0711312 8.936814,1 8.298828,1 Z" />
  <rect
     style="fill:none;fill-rule:evenodd;stroke:#ffffff;stroke-width:2;stroke-linecap:square;stroke-linejoin:round"
     id="rect858"
     width="10"
     height="1"
     x="3"
     y="12"
     rx="0" />
  <rect
     style="fill:url(#linearGradient868);fill-rule:evenodd;stroke:none;stroke-width:2;stroke-linecap:square;stroke-linejoin:round;fill-opacity:1"
     id="rect860"
     width="10"
     height="1"
     x="3"
     y="12"
     rx="0" />
</svg>
