<svg xmlns="http://www.w3.org/2000/svg" viewBox="0 0 24 24"><path style="fill:#232629;fill-opacity:1;fill-rule:evenodd;stroke:none;stroke-width:2;stroke-linecap:round;stroke-linejoin:round" d="M3 4h18v1H3z"/><path style="fill:#fff;fill-rule:evenodd;stroke:none;stroke-width:2;stroke-linecap:round;stroke-linejoin:round" d="M3 5h18v1H3z"/><path style="fill:#232629;fill-opacity:1;fill-rule:evenodd;stroke:none;stroke-width:2;stroke-linecap:round;stroke-linejoin:round" d="M5 7h14v1H5z"/><path style="fill:#fff;fill-rule:evenodd;stroke:none;stroke-width:2;stroke-linecap:round;stroke-linejoin:round" d="M5 8h14v1H5z"/><path style="fill:#232629;fill-opacity:1;fill-rule:evenodd;stroke:none;stroke-width:2;stroke-linecap:round;stroke-linejoin:round" d="M7 10h10v1H7z"/><path style="fill:#fff;fill-rule:evenodd;stroke:none;stroke-width:2;stroke-linecap:round;stroke-linejoin:round" d="M7 11h10v1H7z"/><path style="fill:#232629;fill-opacity:1;fill-rule:evenodd;stroke:none;stroke-width:2;stroke-linecap:round;stroke-linejoin:round" d="M3 13h18v1H3z"/><path style="fill:#fff;fill-rule:evenodd;stroke:none;stroke-width:2;stroke-linecap:round;stroke-linejoin:round" d="M3 14h18v1H3z"/><path style="fill:#232629;fill-opacity:1;fill-rule:evenodd;stroke:none;stroke-width:2;stroke-linecap:round;stroke-linejoin:round" d="M6 16h12v1H6z"/><path style="fill:#fff;fill-rule:evenodd;stroke:none;stroke-width:2;stroke-linecap:round;stroke-linejoin:round" d="M6 17h12v1H6z"/><path style="fill:#232629;fill-opacity:1;fill-rule:evenodd;stroke:none;stroke-width:2;stroke-linecap:round;stroke-linejoin:round" d="M4 19h16v1H4z"/><path style="fill:#fff;fill-rule:evenodd;stroke:none;stroke-width:2;stroke-linecap:round;stroke-linejoin:round" d="M4 20h16v1H4z"/></svg>