<svg width="24" height="24" xmlns="http://www.w3.org/2000/svg"><path style="font-style:normal;font-variant:normal;font-weight:400;font-stretch:normal;font-size:15px;line-height:125%;font-family:Ubuntu;-inkscape-font-specification:Ubuntu;text-align:center;letter-spacing:0;word-spacing:0;writing-mode:lr-tb;text-anchor:middle;display:inline;opacity:.7;fill:#000;fill-opacity:1;stroke:none;stroke-width:.999802" d="M7.012 3c-1.258.014-2.18-.03-2.932.385a1.88 1.88 0 0 0-.838.998c-.164.438-.224.96-.224 1.617v12c0 .658.06 1.179.224 1.617.165.439.462.789.838.996.753.415 1.674.372 2.932.387H17.023c1.259-.015 2.18.03 2.932-.385a1.88 1.88 0 0 0 .838-.998c.165-.438.225-.96.225-1.617V9.896a1.301 1.301 0 0 1-1.03-.056c-4.686.85-8.08.048-5.816-5.811A1.31 1.31 0 0 1 14.105 3H7.014Z"/><path style="opacity:1;fill:#fff;fill-opacity:1;stroke:none;stroke-width:1;stroke-linecap:round;stroke-linejoin:bevel;stroke-miterlimit:4;stroke-dasharray:none;stroke-dashoffset:0;stroke-opacity:1" d="M12 4.027c-1.557.011-5.11-.011-6.66.04-.461.042-1.015.205-1.154.708-.22.636-.11 1.335-.147 1.983-.008 2.297-.023 9.597.022 11.887.039.461.203 1.01.699 1.162.632.225 1.283.122 1.935.154 1.425.007 4.85.011 6.276.012 1.704 0 3.408-.004 5.107-.018.512-.012 1.185.019 1.586-.406.421-.54.287-1.269.322-1.904.008-1.547.01-4.793.002-7.817a1.937 1.937 0 0 1-.484-.324c-.43.403-.993.627-1.578.385l-1.113-.46a1 1 0 0 0-.002-.001c-.587-.243-.824-.8-.842-1.387-.585-.02-1.136-.256-1.38-.844l-.462-1.117c-.244-.588-.02-1.143.38-1.57a1.958 1.958 0 0 1-.323-.479c-.728 0-1.456-.004-2.184-.004zm7.44.332c-.063.026-.114.15-.088.211.025.06.152.113.212.088.063-.026.114-.15.088-.21-.025-.061-.152-.114-.213-.089z"/><path style="fill:#000;fill-rule:evenodd;stroke-width:2;stroke-linecap:square;stroke-linejoin:round" d="M6 6v1h8.514l-.387-.932c-.01-.023-.017-.045-.025-.068H6zM6 8h7v1H6zM6 10h9v1H6z"/><g transform="translate(0 -15.005)"><circle style="fill:#fff;fill-rule:evenodd;stroke:none;stroke-width:2;stroke-linecap:round;stroke-linejoin:round" cx="19.5" cy="19.5" r="1.5"/><g transform="translate(8 8)"><circle style="fill:#fff;fill-opacity:1;fill-rule:evenodd;stroke:none;stroke-width:2;stroke-linecap:round;stroke-linejoin:round;stroke-miterlimit:4;stroke-dasharray:none;stroke-opacity:1" cx="11.5" cy="11.5" r="1.5"/><path d="M9.311 7.792a.244.244 0 0 0-.135.325l.273.657c-.26.195-.472.424-.662.678l-.674-.279a.248.248 0 0 0-.329.136l-.462 1.115a.248.248 0 0 0 .137.329l.673.279a3.312 3.312 0 0 0-.011.948l-.657.272a.244.244 0 0 0-.135.325l.463 1.117c.054.13.194.189.325.135l.657-.272c.195.26.424.471.678.662l-.279.673a.248.248 0 0 0 .136.329l1.115.462a.248.248 0 0 0 .329-.136l.279-.674c.314.045.626.057.948.012l.272.657c.054.13.195.188.325.134l1.117-.462a.244.244 0 0 0 .135-.326l-.272-.657c.26-.195.471-.424.662-.678l.673.28a.248.248 0 0 0 .329-.137l.462-1.115a.248.248 0 0 0-.136-.329l-.674-.279c.045-.314.057-.625.012-.947l.657-.273a.244.244 0 0 0 .134-.325l-.462-1.117a.244.244 0 0 0-.326-.135l-.657.273a3.312 3.312 0 0 0-.678-.662l.28-.674a.248.248 0 0 0-.137-.329l-1.115-.462a.248.248 0 0 0-.329.137l-.279.673a3.312 3.312 0 0 0-.947-.011l-.273-.657a.244.244 0 0 0-.325-.135Zm1.756 2.66a1.138 1.138 0 1 1 .87 2.103 1.138 1.138 0 0 1-.87-2.104z" display="block" fill="url(#d)" stroke="url(#e)" stroke-linejoin="round" stroke-width=".6" style="fill:#d3d3d3;fill-opacity:1;stroke:#4d4d4d;stroke-opacity:1"/></g></g><path style="fill:#d56199;fill-opacity:1" d="M9.01 15v1H18v-1zM9.01 17v1H16v-1z"/><path style="fill:#d56199;fill-rule:evenodd;stroke-width:2;stroke-linecap:square;stroke-linejoin:round" d="M6 13v1h1v-1zm0 2v3h1v-3z"/></svg>