<svg xmlns="http://www.w3.org/2000/svg" xmlns:xlink="http://www.w3.org/1999/xlink" viewBox="0 0 24 24"><defs><linearGradient id="a"><stop style="stop-color:#151515;stop-opacity:1" offset="0"/><stop style="stop-color:#4d4d4d;stop-opacity:1" offset="1"/></linearGradient><linearGradient xlink:href="#a" id="b" x1="13" y1="4" x2="13" y2="20" gradientUnits="userSpaceOnUse"/></defs><path style="opacity:.7;fill:#090909;fill-opacity:1;stroke:#140c0c;stroke-width:2;stroke-linejoin:round;stroke-miterlimit:4;stroke-dasharray:none;stroke-opacity:1" d="M11.998 6.93A10 10 0 0 0 3.313 12a10 10 0 0 0 8.685 5.07 10 10 0 0 0 8.69-5.064L20.683 12l.003-.006a10 10 0 0 0-8.689-5.064Z"/><path d="M11.998 6.93A10 10 0 0 0 3.313 12a10 10 0 0 0 8.685 5.07 10 10 0 0 0 8.69-5.064L20.683 12l.003-.006a10 10 0 0 0-8.689-5.064Z" style="fill:#fff;fill-opacity:1"/><path style="opacity:1;fill:#232629;fill-opacity:1;stroke:none;stroke-width:2;stroke-linecap:round;stroke-linejoin:round;stroke-miterlimit:4;stroke-dasharray:none;stroke-opacity:1" d="M12 8a4 4 0 0 0-4 4 4 4 0 0 0 4 4 4 4 0 0 0 4-4 4 4 0 0 0-4-4zm0 1a3 3 0 0 1 3 3 3 3 0 0 1-3 3 3 3 0 0 1-3-3 3 3 0 0 1 3-3z"/><path style="opacity:1;fill:#232629;fill-opacity:1;stroke:none;stroke-width:2;stroke-linecap:round;stroke-linejoin:round;stroke-miterlimit:4;stroke-dasharray:none;stroke-opacity:1" d="M12 10a2 2 0 0 0-2 2 2 2 0 0 0 2 2 2 2 0 0 0 2-2 2 2 0 0 0-.09-.588A1 1 0 0 1 13 12a1 1 0 0 1-1-1 1 1 0 0 1 .59-.91A2 2 0 0 0 12 10Z"/><path style="opacity:1;fill:#000;fill-opacity:1;fill-rule:evenodd;stroke:#fff;stroke-width:2;stroke-linecap:butt;stroke-linejoin:round;stroke-miterlimit:4;stroke-dasharray:none;stroke-opacity:1" d="m18.718 4.575.707.707L5.282 19.425l-.707-.707Z"/><path style="opacity:1;fill:url(#b);fill-opacity:1;fill-rule:evenodd;stroke:none;stroke-width:2;stroke-linecap:butt;stroke-linejoin:round;stroke-miterlimit:4;stroke-dasharray:none;stroke-opacity:1" d="m18.718 4.575.707.707L5.282 19.425l-.707-.707Z"/></svg>