<svg xmlns="http://www.w3.org/2000/svg" viewBox="0 0 24 24"><path style="opacity:1;fill:#fff;fill-opacity:1;stroke:none;stroke-width:2;stroke-linecap:round;stroke-linejoin:round;stroke-miterlimit:4;stroke-dasharray:none;stroke-opacity:1" d="M4 4v9h1v5h2.805l-1.25 2H20V4H4z"/><path style="opacity:1;fill:#6d6d6d;fill-opacity:1" d="M6 3C4 3 3 3 3 5v8h1v-3h5v4H5v1h4v5H6.555l-.625.998L6 21h12c2 0 3 0 3-2V5c0-2-1-2-3-2H6zm0 1h3v5H4V5c0-1 1-1 2-1zm4 0h4v5h-4V4zm5 0h3c1 0 2 0 2 1v4h-5V4zm-5 6h4v4h-4v-4zm5 0h5v4h-5v-4zm-5 5h4v5h-4v-5zm5 0h5v4c0 1-1 1-2 1h-3v-5z"/><path style="fill:#46a926;fill-opacity:1;stroke:none;stroke-width:1;stroke-linecap:round;stroke-linejoin:round;stroke-miterlimit:4;stroke-dasharray:none;stroke-opacity:1" d="M9 9v6h6V9Zm1 1h4v4h-4z"/><path style="opacity:1;fill:#ddf6d5;fill-opacity:1;fill-rule:evenodd;stroke:none;stroke-width:2;stroke-linecap:round;stroke-linejoin:round" d="M10 10h4v4h-4z"/><circle style="opacity:1;vector-effect:none;fill:#46a926;fill-opacity:1;stroke:none;stroke-width:3.49999976;stroke-linecap:butt;stroke-linejoin:round;stroke-miterlimit:4;stroke-dasharray:none;stroke-dashoffset:0;stroke-opacity:1" cy="19.5" cx="19.5" r="3.5"/><path overflow="visible" font-weight="400" style="color:#000;font-weight:400;line-height:normal;font-family:sans-serif;text-indent:0;text-align:start;text-decoration:none;text-decoration-line:none;text-decoration-style:solid;text-decoration-color:#000;text-transform:none;white-space:normal;overflow:visible;isolation:auto;mix-blend-mode:normal;fill:#fff;fill-opacity:1;marker:none" d="M19 17v2h-2v1h2v2h1v-2h2v-1h-2v-2z"/><path style="fill:#d56199;fill-opacity:1;stroke:none;stroke-width:1px;stroke-linecap:butt;stroke-linejoin:miter;stroke-opacity:1" d="M3.5 23 1 19h2v-5h1v5h2z"/></svg>