<svg xmlns="http://www.w3.org/2000/svg" viewBox="0 0 24 24"><path style="opacity:1;fill:#fff;fill-opacity:1;stroke:none;stroke-width:2;stroke-linecap:round;stroke-linejoin:round;stroke-miterlimit:4;stroke-dasharray:none;stroke-opacity:1" d="M4 4h16v16H4z"/><path style="opacity:1;fill:#6d6d6d;fill-opacity:1" d="M6 3C4 3 3 3 3 5v14c0 2 1 2 3 2h12c2 0 3 0 3-2V5c0-2-1-2-3-2Zm0 1h3v3H4V5c0-1 1-1 2-1Zm4 0h4v3h-4V5Zm5 0h3c1 0 2 0 2 1v2h-5V5ZM4 8h5v2H4Zm6 0h10v8H10Zm-6 3h5v2H4Zm0 3h5v2H4Zm0 3h5v3H6c-1 0-2 0-2-1Zm6 0h4v3h-4zm5 0h5v2c0 1-1 1-2 1h-3z"/></svg>