<svg xmlns="http://www.w3.org/2000/svg" viewBox="0 0 24 24"><path style="opacity:.7;fill:#000;stroke:#000;stroke-width:2;stroke-linejoin:round;stroke-miterlimit:4;stroke-dasharray:none" d="M8 20c-2 0-3 0-3-2V6c0-2 1-2 3-2h7l1 1 2 2 1 1v10c0 2-1 2-3 2z"/><path d="M8 20c-2 0-3 0-3-2V6c0-2 1-2 3-2h7l1 1 2 2 1 1v10c0 2-1 2-3 2z" style="fill:#fff"/><path d="M15 8V4l4 4z" style="fill:#6d6d6d;fill-opacity:1"/><rect ry="2" y="11" x="9" height="10" width="12" style="opacity:.7;fill:#000609;fill-opacity:1;stroke:#000;stroke-width:2;stroke-linecap:round;stroke-linejoin:round;stroke-miterlimit:4;stroke-dasharray:none;stroke-opacity:1" rx="2"/><rect style="opacity:1;fill:#aee3f8;fill-opacity:1;stroke:none;stroke-width:2.36705971;stroke-linecap:round;stroke-linejoin:round;stroke-miterlimit:4;stroke-dasharray:none;stroke-opacity:1" width="12" height="10" x="9" y="11" ry="2"/><path style="fill:#fff;fill-opacity:1;stroke:none;stroke-width:.71428573px;stroke-linecap:butt;stroke-linejoin:miter;stroke-opacity:1" d="m15 18 4.857-3.238v-1.05c0-.714 0-.714-.714-.714h-8.286c-.714 0-.714 0-.714.715v1.049z"/><path d="M11.571 12.143c-1.714 0-1.714.857-1.714 1.714l.002.743L9 14.081v.81l5.143 3.68-1.714 1.629s2.335-.968 3.428-1.629c1.7-1.026 4.098-2.858 5.143-3.663v-.827l-.859.52.002-.744c0-.857 0-1.714-1.714-1.714zM18.43 13c.857 0 .857 0 .857.857v1.26l-4.288 2.586-4.284-2.587v-1.259c0-.857 0-.857.857-.857Z" style="font-style:normal;font-variant:normal;font-weight:400;font-stretch:normal;font-size:15px;line-height:125%;font-family:Ubuntu;-inkscape-font-specification:Ubuntu;text-align:center;letter-spacing:0;word-spacing:0;writing-mode:lr-tb;text-anchor:middle;display:inline;opacity:1;fill:#465b63;fill-opacity:1;stroke:none;stroke-width:.85697323"/><path style="color:#000;font-weight:400;line-height:normal;font-family:sans-serif;font-variant-ligatures:normal;font-variant-position:normal;font-variant-caps:normal;font-variant-numeric:normal;font-variant-alternates:normal;font-feature-settings:normal;text-indent:0;text-align:start;text-decoration:none;text-decoration-line:none;text-decoration-style:solid;text-decoration-color:#000;text-transform:none;text-orientation:mixed;white-space:normal;shape-padding:0;overflow:visible;isolation:auto;mix-blend-mode:normal;fill:#a7a7f1;fill-opacity:1;stroke-width:.87481779;marker:none" d="M12 14v1h6v-1z"/></svg>