<svg xmlns="http://www.w3.org/2000/svg" viewBox="0 0 24 24"><path d="M6.004 3.002c-1.259.015-2.18-.03-2.932.385a1.88 1.88 0 0 0-.838.998c-.165.439-.225.96-.225 1.617V16c0 .658.06 1.179.225 1.617.165.439.462.789.838.996.753.415 1.673.372 2.932.387h11.994c1.258-.015 2.18.03 2.932-.385a1.88 1.88 0 0 0 .838-.998c.164-.438.224-.96.224-1.617V6.002c0-.657-.06-1.178-.224-1.617a1.875 1.875 0 0 0-.838-.996c-.753-.415-1.674-.372-2.932-.387H6.007z" style="font-style:normal;font-variant:normal;font-weight:400;font-stretch:normal;font-size:15px;line-height:125%;font-family:Ubuntu;-inkscape-font-specification:Ubuntu;text-align:center;letter-spacing:0;word-spacing:0;writing-mode:lr-tb;text-anchor:middle;display:inline;opacity:1;fill:#6d6d6d;fill-opacity:1;stroke:none;stroke-width:.999802"/><path style="opacity:1;vector-effect:none;fill:#31c6b7;fill-opacity:1;stroke:none;stroke-width:3;stroke-linecap:round;stroke-linejoin:round;stroke-miterlimit:4;stroke-dasharray:none;stroke-dashoffset:0;stroke-opacity:1" d="M3.017 14.002c.005.937.006 2.048.018 2.666.039.464.202 1.017.7 1.168.633.226 1.286.123 1.939.155h.33v-3.989z"/><path style="opacity:1;vector-effect:none;fill:#76c22b;fill-opacity:1;stroke:none;stroke-width:3;stroke-linecap:round;stroke-linejoin:round;stroke-miterlimit:4;stroke-dasharray:none;stroke-dashoffset:0;stroke-opacity:1" d="M6.004 14.002v3.989c1.54.006 4.603.011 5.957.011h.043v-4z"/><path style="opacity:1;vector-effect:none;fill:#ffda64;fill-opacity:1;stroke:none;stroke-width:3;stroke-linecap:round;stroke-linejoin:round;stroke-miterlimit:4;stroke-dasharray:none;stroke-dashoffset:0;stroke-opacity:1" d="M12.004 14.002v4c1.459 0 4.13-.006 6-.015v-3.985z"/><path style="opacity:1;vector-effect:none;fill:#fb7c38;fill-opacity:1;stroke:none;stroke-width:3;stroke-linecap:round;stroke-linejoin:round;stroke-miterlimit:4;stroke-dasharray:none;stroke-dashoffset:0;stroke-opacity:1" d="M18.004 14.002v3.985c.335-.002.819-.002 1.076-.004.513-.012 1.186.02 1.588-.407.421-.541.288-2.275.324-2.914l.002-.66z"/><path style="opacity:1;vector-effect:none;fill:#5bdbc1;fill-opacity:1;stroke:none;stroke-width:3;stroke-linecap:round;stroke-linejoin:round;stroke-miterlimit:4;stroke-dasharray:none;stroke-dashoffset:0;stroke-opacity:1" d="M3.011 8.002a780.75 780.75 0 0 0 .006 6h2.987v-6Z"/><path style="opacity:1;vector-effect:none;fill:#a6d74f;fill-opacity:1;stroke:none;stroke-width:3;stroke-linecap:round;stroke-linejoin:round;stroke-miterlimit:4;stroke-dasharray:none;stroke-dashoffset:0;stroke-opacity:1" d="M6.004 8.002h6v6h-6z"/><path style="opacity:1;vector-effect:none;fill:#fee581;fill-opacity:1;stroke:none;stroke-width:3;stroke-linecap:round;stroke-linejoin:round;stroke-miterlimit:4;stroke-dasharray:none;stroke-dashoffset:0;stroke-opacity:1" d="M12.004 8.002h6v6h-6z"/><path style="opacity:1;vector-effect:none;fill:#fda463;fill-opacity:1;stroke:none;stroke-width:3;stroke-linecap:round;stroke-linejoin:round;stroke-miterlimit:4;stroke-dasharray:none;stroke-dashoffset:0;stroke-opacity:1" d="M18.004 8.002v6h2.99c.008-1.737.007-3.897-.004-6z"/><path style="opacity:1;vector-effect:none;fill:#81e9c0;fill-opacity:1;stroke:none;stroke-width:3;stroke-linecap:round;stroke-linejoin:round;stroke-miterlimit:4;stroke-dasharray:none;stroke-dashoffset:0;stroke-opacity:1" d="M6.004 4.016c-.563.004-1.126.007-1.688.025-.462.043-1.019.208-1.158.713-.22.638-.107 1.34-.145 1.99 0 .293 0 .882-.002 1.258h2.993z"/><path style="opacity:1;vector-effect:none;fill:#cbe667;fill-opacity:1;stroke:none;stroke-width:3;stroke-linecap:round;stroke-linejoin:round;stroke-miterlimit:4;stroke-dasharray:none;stroke-dashoffset:0;stroke-opacity:1" d="M8.984 4.002c-.995.007-1.988.006-2.98.014v3.986h6V4.006c-1.145 0-2.448-.004-3.02-.004z"/><path style="opacity:1;vector-effect:none;fill:#fff4c9;fill-opacity:1;stroke:none;stroke-width:3;stroke-linecap:round;stroke-linejoin:round;stroke-miterlimit:4;stroke-dasharray:none;stroke-dashoffset:0;stroke-opacity:1" d="M12.004 4.006v3.996h6V4.014c-1.278-.007-3.726-.007-6-.008z"/><path style="opacity:1;vector-effect:none;fill:#fec589;fill-opacity:1;stroke:none;stroke-width:3;stroke-linecap:round;stroke-linejoin:round;stroke-miterlimit:4;stroke-dasharray:none;stroke-dashoffset:0;stroke-opacity:1" d="M18.004 4.014v3.988h2.986c-.005-.958-.005-2.018-.02-2.732-.049-.404-.17-.867-.576-1.049-.67-.295-1.43-.17-2.13-.207h-.26z"/><path style="color:#000;overflow:visible;fill:#6d6d6d;fill-opacity:1;marker:none" d="M9 18v1.5C9 21 8.5 21 7.5 21H7v1h10v-1h-.5c-1 0-1.5 0-1.5-1.5V18Z"/><path d="M16.504 7.002a1.5 1.5 0 1 0 0 3 1.5 1.5 0 0 0 0-3z" style="color:#000;display:inline;overflow:visible;visibility:visible;fill:#232629;fill-opacity:1;fill-rule:nonzero;stroke:none;stroke-width:5.99881;marker:none;enable-background:accumulate"/><path d="m9.504 9.502-3.5 6.5h10l-3-5.5-1.5 2z" style="color:#000;display:inline;overflow:visible;visibility:visible;fill:#232629;fill-opacity:1;fill-rule:nonzero;stroke:none;stroke-width:7.14334;marker:none;enable-background:accumulate"/></svg>