<svg height="24" width="24" xmlns="http://www.w3.org/2000/svg"><path d="M12 3a9 9 0 0 0-9 9 9 9 0 0 0 9 9 9 9 0 0 0 9-9 9 9 0 0 0-9-9zm-.014 1h.004l.002.002c-.203 0-.408.012-.611.023A8 8 0 0 1 11.986 4zM12 4a8 8 0 0 1 3.688.906c-.195-.099-.39-.179-.596-.263a7.114 7.114 0 0 0-.57-.215c-.108-.036-.213-.077-.323-.108a8.76 8.76 0 0 0-.57-.142h-.035a8.2 8.2 0 0 0-.608-.108C12.66 4.03 12.336 4 12 4zm-.9.06v.012c-.027.014-.172.084-.215.073-.012-.002-.03-.016-.035-.036-.074.01-.143.023-.215.036.036.035.106.054.107.107.004.103-.054.114-.142.178-.064-.027-.133-.061-.215-.073-.05.059.077.069.035.143-.122.025-.21-.038-.322-.072-.036-.012-.08.016-.108 0-.043-.025-.072-.105-.107-.143a8 8 0 0 1 1.217-.224zm-1.22.227c-.023.007-.043.022-.068.033-.055.016-.11.03-.166.041a8 8 0 0 1 .235-.074zm-.247.176c.074.01.122.102.178.144.049.04.094.02.107.07-.015.085-.08.1-.072.18.005.071.07.096.107.108.056.01.159-.01.215-.037.103-.048.164-.196.25-.178.067.015.132.246.143.322.011.084-.005.138 0 .213.01.128.17.112.25.18.023.02.015.081.035.107.038.052.1.053.107.108.014.131-.12.138-.107.285-.028.057-.114.066-.108.142.01.124.205.014.252.108.025.051-.018.07-.037.142.06.072.069.215-.035.215-.063 0-.079-.091-.143-.107-.035-.014-.097.011-.142 0-.039-.007-.071-.035-.108-.035-.094-.01-.194.02-.25-.035.09-.121.204-.254.32-.358.036-.032.091-.046.073-.107-.065-.057-.116 0-.178.035-.065.036-.143.096-.215.107-.125.017-.325-.032-.427.035-.014.059.125.02.107.108-.05.011-.106.035-.144 0-.036-.032-.013-.088-.036-.108a.554.554 0 0 0-.25-.035.169.169 0 0 0-.142.143c.096.044.25-.043.285.072-.053.095-.195.123-.178.25.007.05.065.131.108.143.042.008.066-.035.107-.035.043.004.057.046.107.035.074-.032.094-.108.178-.108.102.124-.07.176-.177.215-.123.045-.3.069-.393.108-.05.02-.224.173-.25.035-.018-.1.084-.06.107-.143-.117-.023-.215.066-.322.108-.153.058-.426.077-.463.25-.007.034.023.12 0 .142-.018.018-.13.02-.178.035-.073.027-.134.06-.18.073-.034.015-.085.023-.107.035-.06.024-.073.087-.142.142-.029.023-.085.05-.108.073-.04.038-.073.127-.142.142-.045 0-.065-.025-.108 0-.005.097.043.222 0 .32-.09.073-.205.115-.32.18-.064.036-.101.069-.178.108-.055.028-.117.07-.18.107-.144.086-.32.21-.32.428 0 .047.028.088.035.142.005.032-.002.072 0 .108.01.08.068.16 0 .215-.102-.044-.248-.035-.32-.108-.02-.075.043-.146.035-.215-.007-.055-.097-.166-.142-.177-.047-.007-.06.072-.108.072-.057-.005-.141-.096-.215-.108-.107-.011-.166.018-.285 0-.115.06-.146.19-.287.178-.049-.004-.085-.06-.142-.072a1.674 1.674 0 0 0-.25-.035c-.108.007-.198.082-.286.142l-.001.002a8 8 0 0 1 3.025-3.742c-.009-.004-.02-.006-.027-.01.115-.076.234-.144.357-.215.107-.064.213-.119.322-.177.04-.02.083-.035.123-.055a8 8 0 0 1 .008-.004 8 8 0 0 1 .96-.404c.05.016.098.033.16.033.036-.002.104-.037.142-.037zm6.1.465a8 8 0 0 1 .103.05.156.156 0 0 0-.03.06c.01.071.13.006.143.071-.012.071-.071.092-.072.143 0 .044.1.118.144.178.035.043.078.097.108.142.026.04.049.087.07.108.04.037.138.052.145.107.008.073-.121.097-.108.178-.105.082-.26.015-.43.037-.077.01-.167.1-.25.035-.018-.051.065-.058.073-.107-.007-.045-.059-.035-.072-.073.022-.058.079-.088.072-.177.042-.047.13-.01.142-.073.008-.043-.028-.118-.072-.142-.025-.012-.043.016-.072 0-.074-.041-.1-.123-.143-.143.006-.083-.023-.16 0-.215a.364.364 0 0 1 .143-.142c.035-.011.07-.026.105-.037zm.69.41A8 8 0 0 1 20 12a8 8 0 0 1-2.377 5.686c-.01-.056-.1-.434-.1-.434-.09.022-.204.035-.285 0 .029-.1.091-.135.143-.285.035-.127.12-.332 0-.393.027-.19-.028-.216 0-.572.012-.265-.149-.439-.143-.713-.002-.114.1-.194.178-.285.168-.283.252-.46.285-.715-.018-.055.02-.1 0-.143a2.047 2.047 0 0 0-.25-.427c-.06-.069-.127-.114-.178-.178a.618.618 0 0 1-.107-.215c-.001-.044.023-.099.035-.142.016-.057.015-.161.035-.25.01-.04.08-.112.073-.178-.008-.064-.098-.195-.178-.215-.108-.026-.223.047-.358.035-.115-.073-.118-.298-.285-.322-.22-.032-.456.08-.607.144-.087.038-.174.108-.25.108-.073.003-.145-.06-.215-.072-.091-.01-.195.019-.285.035-.088.015-.172.06-.25.072-.149.01-.265-.142-.358-.215-.056-.045-.126-.066-.18-.107-.056-.046-.132-.065-.177-.108-.06-.058-.077-.173-.107-.25-.038-.091-.13-.164-.215-.25-.065-.065-.234-.166-.25-.25-.008-.042.037-.061.035-.107-.005-.067-.071-.132-.07-.18 0-.066.087-.12.105-.178.01-.03-.01-.07 0-.107.022-.078.084-.102.072-.215-.004-.044-.034-.084-.035-.142-.002-.04.04-.071.035-.108-.005-.065-.1-.067-.107-.142-.008-.078.06-.162.107-.25.023-.04.053-.078.073-.108.042-.064.109-.114.142-.178.024-.046.014-.107.035-.142.029-.046.091-.083.145-.143a.718.718 0 0 1 .107-.107c.038-.028.1-.053.143-.072a.552.552 0 0 0 .285-.286c-.02-.123.022-.165.072-.25.047-.078.063-.17.143-.214.095-.055.219-.041.285-.143a.399.399 0 0 0 .072-.18c.001-.076-.075-.201-.142-.213-.07-.011-.176.076-.215 0-.013-.024.006-.08 0-.107-.01-.049-.07-.106-.072-.143-.004-.072.086-.132.107-.214.029-.112.008-.194 0-.323.106-.169.334-.088.57-.072h.108c.14.004.275.014.322-.107a.731.731 0 0 0 0-.25.543.543 0 0 0-.143-.215c-.075-.05-.206-.019-.25-.106.036-.15.22-.036.32-.072.053-.02.027-.092.073-.107.03-.01.1.036.143.035.036 0 .142-.084.177-.108.05-.033.066-.113.108-.142.03-.018.075.014.107 0a.526.526 0 0 0 .178-.143c.063-.075.103-.164.18-.177-.121-.092-.234-.195-.358-.288-.01-.006-.018-.013-.027-.02zm-1.152.055v.002c.094-.01.208.05.215.107.007.058-.05.043-.072.107-.02.059-.009.138-.035.178-.024.036-.064.023-.108.035-.095.024-.28.161-.357.035.012-.067.048-.086.07-.142.003-.045-.042-.06-.035-.108.01-.06.081-.048.143-.072.046-.017.049-.072.107-.107.027-.015.042-.035.072-.035zm-8.355.892c-.123-.032-.32.104-.463.143-.08.023-.16.005-.178.072.072.115.216-.018.32 0 .054.01.09.096.143.107a1.07 1.07 0 0 0 .25-.035c.152-.065-.002-.269-.072-.287zm.287.358c-.06-.004-.12.043-.142.072-.003.046.037.062.035.107-.074.054-.038.204.035.215.078.006.11-.196.215-.215.037-.007.057.035.107.035.06-.046.029-.16-.035-.177-.025-.006-.066.035-.107.035-.044-.005-.072-.072-.108-.072zm-.357.035a.505.505 0 0 0-.215.035c-.034.023-.038.1-.072.142-.037.044-.077.07-.108.108-.028.034-.191.26-.07.285.051.01.167-.101.178-.143a.431.431 0 0 1 .214-.285c.063-.039.097-.061.108-.142h-.035zm10.853.035c-.028-.002-.053.044-.07.068-.038.167.08.177.142.25.043.052.065.11.108.143.046.035.12.048.18.072.04.017.068.048.107.072.073.045.207.057.215.143-.046.024-.18-.04-.215.035-.009.05.036.06.035.108-.002.075-.067.155-.142.142-.008-.046.037-.06.035-.107-.004-.097-.186-.241-.285-.285-.047-.021-.1-.049-.143-.073-.075-.042-.206-.117-.252-.177-.055-.074-.13-.227-.25-.215-.049.004-.067.051-.107.072-.037.02-.07.047-.108.072a.325.325 0 0 1-.142.035c-.096.005-.168-.053-.25-.035-.029.006-.04.042-.073.072 0 .045.006.059 0 .108-.024.044-.124.042-.177.07-.08.041-.114.117-.178.18-.042.041-.102.075-.108.107-.004.025.043.073.036.108-.007.036-.097.11-.143.142-.027.019-.044.018-.072.035-.06.036-.092.096-.143.108-.133.025-.393-.033-.392.107 0 .092.137.108.214.108.109 0 .191.015.25 0 .042-.012.1-.053.143-.073a.722.722 0 0 0 .072-.035c.046-.022.072-.056.108-.072a.866.866 0 0 1 .285-.072c.103-.012.19.011.322 0 .047-.004.092-.035.143-.035.083-.007.218.036.285.035.047-.001.088-.035.142-.035.062 0 .132.033.143.072.007.023-.006.074 0 .107.01.056.037.072.035.108-.004.048-.123.121-.107.177.01.037.101.083.142.108.044.024.129.024.18.035h.107a.623.623 0 0 1 .215.072c.072.05.06.15.143.178.035.016.097-.011.142 0 .111.024.204.119.286.107.127-.014.057-.129.072-.214.033-.195.425-.168.5-.036.023.012.048 0 .072 0-.032-.067-.039-.148-.072-.214-.08-.145-.167-.286-.25-.428-.066-.026-.109-.083-.108-.178-.065-.1-.155-.169-.214-.25-.022-.03-.029-.099-.036-.144-.059-.085-.115-.17-.177-.25a.584.584 0 0 1-.073-.036 1.204 1.204 0 0 1-.25-.142c-.045-.039-.067-.082-.107-.108-.034-.021-.076-.014-.107-.035-.042-.028-.053-.092-.108-.107zm-10.064.246c-.05.004-.103-.003-.108.035.08.037.298.065.323-.035-.016-.02-.069.001-.108 0zm-.358.178c-.078.002-.182.025-.248.037-.053.008-.12-.009-.107.07.01.064.084.056.142.037a.81.81 0 0 0 .286-.144c-.027-.011-.046 0-.07 0zm9.926 0c.016 0 .016-.02.035 0 .01.065 0 .122-.035.142-.075-.013-.05-.126 0-.142zm-.037.215h.002c.072-.018.135.057.105.214-.025.066-.128.13-.177.036.017-.075 0-.13 0-.215.025-.024.047-.025.07-.035zm.502.43c.039-.033.112 0 .18 0h.177c-.021.058-.026.143-.072.177a.411.411 0 0 1-.285-.178zM5.387 10.106c.04.035.078.092.072.143-.005.039-.053.087-.072.143-.017.049-.018.103-.035.142-.023.051-.09.095-.108.143-.01.033.01.043 0 .072-.018.05-.103.091-.072.143.163.07.357-.027.5 0 .06.01.216.085.215.177-.001.07-.066.14-.073.215-.01.096-.065.209-.07.285-.007.126.186.323.32.323.146-.002.253-.11.428-.036.057.026.116.108.18.108.052-.004.107-.116.142-.18.044-.078.068-.139.143-.178.082-.043.145-.033.25-.072a.752.752 0 0 0 .143-.072c.037-.024.061-.082.107-.035.062.061-.087.077-.035.142.106.056.173-.107.25-.107.024-.001.1.079.142.107.06.04.078.095.143.108.041.005.118-.047.178-.035.077.011.12.072.18.072.071-.004.116-.06.177-.072.135-.024.19.023.25.107.068.01.047-.103.108-.072-.035.066.008.125.035.18.016.036.019.054.035.07.036.036.124.038.178.072.056.035.08.104.144.178.066.076.161.133.25.144.085 0 .18-.011.25 0 .159.02.247.093.358.178.061.047.123.085.142.143.015.04-.016.098 0 .142.033.095.193.12.143.285.023.048.052.075.107.108.045.026.095.06.143.072h.107c.087.008.14.044.215.072.047.018.112.015.143.035.039.027.024.12.072.143.03.015.125-.011.178 0 .082.011.175.072.25.072.044 0 .067-.035.107-.035.187.014.321.253.502.32.056.023.139.018.178.036.067.028.101.228.107.32.016.277-.199.353-.322.537-.026.039-.034.089-.07.143-.074.108-.153.16-.143.357.002.054.035.082.035.143 0 .074-.019.183-.035.25-.013.05-.03.096-.037.142-.008.047.006.068 0 .108a.696.696 0 0 1-.072.177c-.071.13-.108.268-.25.32-.085.032-.194.04-.286.073-.037.015-.096.05-.142.072-.134.062-.32.113-.358.25-.033.122.059.218.036.358-.024.04-.037.095-.073.142-.033.044-.073.1-.107.143-.046.057-.115.067-.143.144-.009.026.012.065 0 .106-.004.016-.058.042-.072.072-.011.026.012.05 0 .072-.035.071-.14.264-.215.285-.159.045-.318-.092-.428-.07.016.077.073.089.108.143.02.032.006.074.035.107.034.04.067.063.072.108a.254.254 0 0 1-.107.214c-.046.024-.134.022-.215.036-.057.009-.224.036-.25.072-.039.053.029.16 0 .213-.057.11-.205.004-.285.037a.151.151 0 0 0 .072.142c.048.029.11.018.143.073-.016.076-.09.068-.108.142.002.072.01.097 0 .143-.004.021-.018.02-.033.033a8 8 0 0 1-3.795-2.922c.087.115.177.23.264.34.206.26.441.517.678.75l.035.035c.234.227.488.445.75.643.275.208.557.4.857.572-.009-.029-.034-.041-.035-.072-.001-.033.006-.074 0-.108-.016-.102-.1-.182-.107-.285-.004-.05.028-.089.035-.142.006-.037-.005-.07 0-.108.007-.048.029-.098.035-.142a1.391 1.391 0 0 0-.035-.323c-.02-.088-.097-.154-.108-.25-.004-.034.038-.098.036-.142-.004-.043-.03-.06-.036-.108a.847.847 0 0 1 0-.142c.008-.096-.002-.19 0-.285v-.108c0-.079-.03-.136-.035-.215-.006-.145.024-.259 0-.392-.018-.1-.035-.259-.072-.323a1.045 1.045 0 0 0-.285-.25c-.053-.035-.122-.006-.18-.035-.124-.06-.373-.197-.428-.32-.016-.035.018-.103 0-.143-.033-.078-.128-.14-.177-.214-.095-.144-.153-.315-.25-.463-.05-.077-.09-.155-.143-.215-.032-.036-.132-.09-.144-.143-.018-.07-.079-.16-.07-.215.01-.071.142-.113.142-.18-.001-.055-.056-.094-.072-.142-.038-.116.026-.188.072-.285.015-.032.019-.083.035-.107.029-.043.07-.062.107-.108.022-.026.045-.072.073-.107.057-.077.153-.108.177-.178.02-.057.024-.333 0-.428-.013-.055-.052-.127-.072-.18-.034-.092-.048-.177-.142-.177-.059 0-.105.066-.143.107-.01.054-.015.127-.072.143-.087.025-.115-.112-.215-.143-.04-.011-.082.012-.108 0-.073-.033-.1-.135-.177-.177-.065-.035-.138-.054-.178-.108-.015-.036.005-.093 0-.142-.083-.05-.155-.242-.252-.286-.065-.024-.169-.007-.25-.035-.038-.012-.067-.023-.107-.035-.05-.01-.105-.018-.143-.037-.15-.074-.205-.328-.389-.32h-.002c-.078.003-.17.1-.242.105a8 8 0 0 1 .096-.592v.028c.008.03.027.06.037.072.04.042.149.106.215.107.056.002.124-.023.178-.035.062-.011.157-.017.214-.035.165-.054.121-.282.286-.357.072-.036.158-.024.285-.036zM4.07 11a7.795 7.795 0 0 0-.068.975A8 8 0 0 1 4.07 11zm3.323.707c-.056.026-.022.154.035.143.06-.01.038-.176-.035-.143zM4 12c0 .211.013.421.027.629A8 8 0 0 1 4 12zm.105 1.262c.025.112.05.225.073.338.041.205.078.403.133.601a8 8 0 0 1-.206-.94zm.254 1.088c.082.256.177.5.282.748.022.052.043.104.062.156a8 8 0 0 1-.344-.904zm.49 1.23.092.172a8 8 0 0 1-.091-.172zm.362.643c.032.052.063.105.096.156a8 8 0 0 1-.096-.156zm9.736 3.213a8 8 0 0 1-.18.064c.06-.022.121-.041.18-.064zm-5.65.084c.17.06.34.11.515.16.17.042.387.08.573.142.06.013.117.024.178.035.078.015.158.026.236.041a8 8 0 0 1-1.502-.378zm4.867.181A8 8 0 0 1 12 20c.394 0 .79-.045 1.168-.107.263-.057.506-.08.996-.192z" fill="#04896a"/></svg>