<svg xmlns="http://www.w3.org/2000/svg" viewBox="0 0 24 24"><path style="opacity:1;fill:#fff;fill-opacity:1;stroke:none;stroke-width:2;stroke-linecap:round;stroke-linejoin:round;stroke-miterlimit:4;stroke-dasharray:none;stroke-opacity:1" transform="rotate(-90)" d="M-20 4h16v16h-16z"/><path style="opacity:1;fill:#6d6d6d;fill-opacity:1" d="M6 3C4 3 3 3 3 5v14c0 2 1 2 3 2h12c2 0 3 0 3-2V5c0-2-1-2-3-2Zm0 1h12c1 0 2 0 2 1v14c0 1-1 1-2 1H6c-1 0-2 0-2-1V5c0-1 1-1 2-1Z"/><path style="opacity:1;fill:#6d6d6d;fill-opacity:1;fill-rule:evenodd;stroke-width:4;stroke-linecap:round;stroke-linejoin:round" d="M4 14h16v1H4z"/><path style="opacity:1;fill:#6d6d6d;fill-opacity:1;fill-rule:evenodd;stroke-width:4;stroke-linecap:round;stroke-linejoin:round" d="M10 4h1v16h-1zM13 4h1v16h-1zM7 4h1v16H7zM16 4h1v16h-1z"/><path style="opacity:1;fill:#6d6d6d;fill-opacity:1;fill-rule:evenodd;stroke-width:4;stroke-linecap:round;stroke-linejoin:round" d="M4 9h16v1H4z"/><path style="fill:#f3d8f2;fill-opacity:1;fill-rule:evenodd;stroke:none;stroke-width:2;stroke-linecap:round;stroke-linejoin:round" transform="rotate(-90)" d="M-14 4h4v16h-4z"/><path style="fill:#77216f;fill-opacity:1;fill-rule:evenodd;stroke:none;stroke-width:2;stroke-linecap:round;stroke-linejoin:round" d="M3 15h18V9H3Zm1-1v-4h3v4zm4 0v-4h2v4zm3 0v-4h2v4zm3 0v-4h2v4zm3 0v-4h3v4z"/></svg>