<svg xmlns="http://www.w3.org/2000/svg" xmlns:xlink="http://www.w3.org/1999/xlink" viewBox="0 0 24 24"><defs><linearGradient id="b"><stop style="stop-color:#232629;stop-opacity:1" offset="0"/><stop offset=".5" style="stop-color:#fff;stop-opacity:1"/><stop style="stop-color:#d4d4d4;stop-opacity:1" offset=".75"/><stop style="stop-color:#fff;stop-opacity:1" offset="1"/></linearGradient><linearGradient id="a"><stop stop-color="#b3b3b3"/><stop offset="1" stop-color="#232629" stop-opacity="0"/></linearGradient><radialGradient xlink:href="#b" id="d" cx="11" cy="1041.362" fx="11" fy="1041.362" r="8" gradientUnits="userSpaceOnUse"/><path id="c" d="M11 1033.362a8 8 0 0 0-8 8 8 8 0 0 0 8 8 8 8 0 0 0 8-8 8 8 0 0 0-8-8m0 4a4 4 0 0 1 4 4 4 4 0 0 1-4 4 4 4 0 0 1-4-4 4 4 0 0 1 4-4"/></defs><use transform="matrix(1 0 0 .875 1 -899.192)" height="100%" width="100%" style="fill:#000;fill-opacity:.835294;stroke:#000;opacity:.7;stroke-width:2.13808961;stroke-miterlimit:4;stroke-dasharray:none;stroke-linejoin:round" xlink:href="#c"/><use xlink:href="#c" style="fill:url(#d);fill-opacity:1" width="100%" height="100%" transform="matrix(1 0 0 .875 1 -899.192)"/></svg>