<svg xmlns="http://www.w3.org/2000/svg" xmlns:xlink="http://www.w3.org/1999/xlink" viewBox="0 0 16 16"><defs><linearGradient id="a"><stop style="stop-color:#000;stop-opacity:1" offset="0"/><stop style="stop-color:#4d4d4d;stop-opacity:1" offset="1"/></linearGradient><linearGradient xlink:href="#a" id="b" x1="11" y1="3" x2="11" y2="12" gradientUnits="userSpaceOnUse"/></defs><path d="M11.102 3c-.372 0-.73.056-1.065.172h-.002a2.703 2.703 0 0 0-1.549 1.377h-.002v.002c-.17.336-.275.713-.328 1.125l-.062.478.986.164h.004c.196.03.41.033.627-.086l.004-.002.004-.001c.244-.14.355-.382.404-.594v-.002c.028-.12.069-.222.125-.315l.002-.002.002-.004a.883.883 0 0 1 .197-.236l.004-.004.004-.002a.788.788 0 0 1 .256-.148l.006-.002.006-.002a.873.873 0 0 1 .324-.057c.136 0 .25.02.352.055a.574.574 0 0 1 .226.14l.004.005.002.003a.65.65 0 0 1 .154.247l.002.003.002.004c.041.102.069.237.069.414 0 .184-.026.351-.073.506-.05.168-.122.336-.218.508a3.71 3.71 0 0 1-.364.516l-.002.002-.002.004c-.15.184-.32.38-.514.584h-.001l-2.354 2.513c-.114.111-.208.251-.262.406v.002c-.042.12-.07.25-.07.383V12h6v-1.107a.87.87 0 0 0-.242-.598.878.878 0 0 0-.602-.246h-2.025l1.053-1.133v-.002c.21-.225.41-.448.601-.67l.002-.002V8.24c.2-.237.378-.48.531-.73v-.002c.163-.26.293-.534.387-.82.104-.309.154-.637.154-.979 0-.403-.066-.78-.21-1.123l-.003-.002a2.47 2.47 0 0 0-.591-.865 2.579 2.579 0 0 0-.885-.537A3.113 3.113 0 0 0 11.102 3Z" style="color:#000;font-style:normal;font-variant:normal;font-weight:400;font-stretch:normal;font-size:medium;line-height:normal;font-family:sans-serif;font-variant-ligatures:normal;font-variant-position:normal;font-variant-caps:normal;font-variant-numeric:normal;font-variant-alternates:normal;font-feature-settings:normal;text-indent:0;text-align:start;text-decoration:none;text-decoration-line:none;text-decoration-style:solid;text-decoration-color:#000;letter-spacing:normal;word-spacing:normal;text-transform:none;writing-mode:lr-tb;direction:ltr;text-orientation:mixed;dominant-baseline:auto;baseline-shift:baseline;text-anchor:start;white-space:normal;shape-padding:0;clip-rule:nonzero;display:inline;overflow:visible;visibility:visible;opacity:1;isolation:auto;mix-blend-mode:normal;color-interpolation:sRGB;color-interpolation-filters:linearRGB;solid-color:#000;solid-opacity:1;vector-effect:none;fill:#000;fill-opacity:1;fill-rule:nonzero;stroke:#fff;stroke-width:2;stroke-linecap:butt;stroke-linejoin:round;stroke-miterlimit:4;stroke-dasharray:none;stroke-dashoffset:0;stroke-opacity:1;color-rendering:auto;image-rendering:auto;shape-rendering:auto;text-rendering:auto;enable-background:accumulate"/><path style="color:#000;font-style:normal;font-variant:normal;font-weight:400;font-stretch:normal;font-size:medium;line-height:normal;font-family:sans-serif;font-variant-ligatures:normal;font-variant-position:normal;font-variant-caps:normal;font-variant-numeric:normal;font-variant-alternates:normal;font-feature-settings:normal;text-indent:0;text-align:start;text-decoration:none;text-decoration-line:none;text-decoration-style:solid;text-decoration-color:#000;letter-spacing:normal;word-spacing:normal;text-transform:none;writing-mode:lr-tb;direction:ltr;text-orientation:mixed;dominant-baseline:auto;baseline-shift:baseline;text-anchor:start;white-space:normal;shape-padding:0;clip-rule:nonzero;display:inline;overflow:visible;visibility:visible;opacity:1;isolation:auto;mix-blend-mode:normal;color-interpolation:sRGB;color-interpolation-filters:linearRGB;solid-color:#000;solid-opacity:1;vector-effect:none;fill:url(#b);fill-opacity:1;fill-rule:nonzero;stroke:none;stroke-width:1;stroke-linecap:butt;stroke-linejoin:miter;stroke-miterlimit:4;stroke-dasharray:none;stroke-dashoffset:0;stroke-opacity:1;color-rendering:auto;image-rendering:auto;shape-rendering:auto;text-rendering:auto;enable-background:accumulate" d="M11.102 3c-.372 0-.73.056-1.065.172h-.002a2.703 2.703 0 0 0-1.549 1.377h-.002v.002c-.17.336-.275.713-.328 1.125l-.062.478.986.164h.004c.196.03.41.033.627-.086l.004-.002.004-.001c.244-.14.355-.382.404-.594v-.002c.028-.12.069-.222.125-.315l.002-.002.002-.004a.883.883 0 0 1 .197-.236l.004-.004.004-.002a.788.788 0 0 1 .256-.148l.006-.002.006-.002a.873.873 0 0 1 .324-.057c.136 0 .25.02.352.055a.574.574 0 0 1 .226.14l.004.005.002.003a.65.65 0 0 1 .154.247l.002.003.002.004c.041.102.069.237.069.414 0 .184-.026.351-.073.506-.05.168-.122.336-.218.508a3.71 3.71 0 0 1-.364.516l-.002.002-.002.004c-.15.184-.32.38-.514.584h-.001l-2.354 2.513c-.114.111-.208.251-.262.406v.002c-.042.12-.07.25-.07.383V12h6v-1.107a.87.87 0 0 0-.242-.598.878.878 0 0 0-.602-.246h-2.025l1.053-1.133v-.002c.21-.225.41-.448.601-.67l.002-.002V8.24c.2-.237.378-.48.531-.73v-.002c.163-.26.293-.534.387-.82.104-.309.154-.637.154-.979 0-.403-.066-.78-.21-1.123l-.003-.002a2.47 2.47 0 0 0-.591-.865 2.579 2.579 0 0 0-.885-.537A3.113 3.113 0 0 0 11.102 3Z"/><path d="M0 7h6v2H0Z" style="fill:#c7162b;stroke-width:1.54919326"/></svg>