<svg viewBox="0 0 16 16" xmlns="http://www.w3.org/2000/svg">/&gt;<path d="M14 14 2 8v6Z" style="opacity:.7;fill:#000;fill-opacity:1;stroke:#000;stroke-width:2;stroke-linecap:butt;stroke-linejoin:round;stroke-miterlimit:4;stroke-dasharray:none;stroke-opacity:1"/><path style="opacity:1;fill:#fff;fill-opacity:1;stroke:none;stroke-width:1px;stroke-linecap:butt;stroke-linejoin:miter;stroke-opacity:1" d="M14 14 2 8v6Z"/><path style="fill:#d56199;fill-opacity:1" d="M13.002 3.979c0-.484-.017-.865-.162-1.227a1.168 1.168 0 0 0-.54-.598c-.246-.123-.508-.154-.8-.154-.292 0-.554.031-.8.154a1.168 1.168 0 0 0-.54.598c-.147.367-.163.755-.162 1.248H3.5a.5.5 0 0 0 0 1H4v1h1V5h1v1h1V5h2.998c0 .493.015.88.162 1.248.097.242.293.474.54.598.246.123.508.154.8.154.306 0 .589-.05.834-.195.245-.146.418-.387.51-.631.182-.488.156-1.009.156-1.674l.002-.521zM12 4.5c0 .665-.026 1.144-.094 1.324-.033.09-.048.1-.084.121-.036.022-.128.055-.322.055-.208 0-.32-.032-.355-.049-.035-.017-.027-.003-.055-.074C11.033 5.735 11 5.25 11 4.5s.033-1.235.09-1.377c.028-.07.02-.057.055-.074.034-.017.147-.049.355-.049s.32.032.355.049c.035.017.027.003.055.074.057.142.09.627.09 1.377z"/></svg>