<svg viewBox="0 0 16 16" xmlns="http://www.w3.org/2000/svg"><path d="m14 2-4 4v8l4-4zm-4 4 3.309-3.398-7.088-.043-3.707 3.707z" fill="#b3b3b3"/><path d="M6.22 2 2 6v8h8l4-4V2H7ZM3 6l3.465-3.2 6.42.022L9.287 6m3.89-2.354.022 6.112L10 12.868V7ZM3 7h6v6H3Z" style="fill:#1463a5;fill-opacity:1"/><path d="m7 6 1-1h2L9 3 4.084 5H6L5 6Z" style="fill:#fff;fill-opacity:1;stroke:#fff;opacity:1;stroke-width:2;stroke-miterlimit:4;stroke-dasharray:none;stroke-linejoin:round"/><path style="fill:#d56199;fill-opacity:1" d="m7 6 1-1h2L9 3 4.084 5H6L5 6Z"/><path style="opacity:1;fill:#fff;fill-opacity:1;stroke:none;stroke-width:2;stroke-linejoin:round;stroke-miterlimit:4;stroke-dasharray:none;stroke-opacity:1" d="M3 7h6v6H3z"/></svg>