<svg xmlns="http://www.w3.org/2000/svg" viewBox="0 0 16 16"><path style="opacity:1;fill:#6d6d6d;fill-rule:evenodd;stroke-width:2;stroke-linecap:round;stroke-linejoin:round;fill-opacity:1" d="M8 13h2v2H8zM1 3h2v2H1zM4 1h2v2H4zM7 2h2v2H7zM13 1h2v2h-2zM11 4h2v2h-2zM12 7h2v2h-2zM5 5h2v2H5zM1 9h2v2H1zM1 13h2v2H1zM4 12h2v2H4zM6 9h2v2H6z"/><circle style="opacity:1;vector-effect:none;fill:#c7162b;fill-opacity:1;stroke:none;stroke-width:3.5;stroke-linecap:butt;stroke-linejoin:round;stroke-miterlimit:4;stroke-dasharray:none;stroke-dashoffset:0;stroke-opacity:1" cy="12.5" cx="12.5" r="3.5"/><path overflow="visible" font-weight="400" style="color:#000;font-weight:400;line-height:normal;font-family:sans-serif;text-indent:0;text-align:start;text-decoration:none;text-decoration-line:none;text-decoration-style:solid;text-decoration-color:#000;text-transform:none;white-space:normal;overflow:visible;isolation:auto;mix-blend-mode:normal;fill:#fff;fill-opacity:1;marker:none" d="M13.914 10.379 12.5 11.793l-1.414-1.414-.707.707 1.414 1.414-1.414 1.414.707.707 1.414-1.414 1.414 1.414.707-.707-1.414-1.414 1.414-1.414z"/></svg>