<svg xmlns="http://www.w3.org/2000/svg" viewBox="0 0 16 16"><path style="opacity:.7;fill:#000;stroke:#000;stroke-width:2;stroke-linejoin:round;stroke-miterlimit:4;stroke-dasharray:none" d="M5 2C3 2 2 2 2 4v8c0 2 1 2 3 2h6c2 0 3 0 3-2V4c0-2-1-2-3-2z"/><path style="fill:#fff;fill-opacity:1" d="M5 2C3 2 2 2 2 4v8c0 2 1 2 3 2h6c2 0 3 0 3-2V4c0-2-1-2-3-2z"/><path style="opacity:1;fill:#232629;fill-opacity:1;stroke:none;stroke-width:1.63299334;stroke-linejoin:round;stroke-miterlimit:4;stroke-dasharray:none;stroke-opacity:1" d="M4 8h2v1H4z"/><path style="opacity:1;fill:#232629;fill-opacity:1;stroke:none;stroke-width:1.63299358;stroke-linejoin:round;stroke-miterlimit:4;stroke-dasharray:none;stroke-opacity:1" d="M10 11h2v1h-2z"/><path style="opacity:1;fill:#232629;fill-opacity:1;stroke:none;stroke-width:1.63299334;stroke-linejoin:round;stroke-miterlimit:4;stroke-dasharray:none;stroke-opacity:1" d="M4 6h2v1H4z"/><path style="opacity:1;fill:#232629;fill-opacity:1;stroke:none;stroke-width:1.63299358;stroke-linejoin:round;stroke-miterlimit:4;stroke-dasharray:none;stroke-opacity:1" d="M10 9h2v1h-2z"/><path style="opacity:1;fill:#232629;fill-opacity:1;stroke:none;stroke-width:1.63299334;stroke-linejoin:round;stroke-miterlimit:4;stroke-dasharray:none;stroke-opacity:1" d="M4 4h2v1H4z"/><path style="opacity:1;fill:#232629;fill-opacity:1;stroke:none;stroke-width:1.63299358;stroke-linejoin:round;stroke-miterlimit:4;stroke-dasharray:none;stroke-opacity:1" d="M10 7h2v1h-2z"/><path style="opacity:1;fill:#1463a5;fill-opacity:1;stroke:none;stroke-width:2;stroke-linejoin:round;stroke-miterlimit:4;stroke-dasharray:none;stroke-opacity:1" d="M7 4v7H4v1h5V5h3V4H7z"/></svg>