<svg xmlns="http://www.w3.org/2000/svg" viewBox="0 0 16 16">/&gt;<path style="fill:#fff;fill-rule:evenodd;stroke-width:2;stroke-linecap:round;stroke-linejoin:round" transform="scale(1 -1)" d="M2-12h6v1H2z"/><path style="fill:#232629;fill-opacity:1;fill-rule:evenodd;stroke-width:2;stroke-linecap:round;stroke-linejoin:round" transform="scale(1 -1)" d="M2-11h6v1H2z"/><path style="fill:#fff;fill-rule:evenodd;stroke-width:1.99999;stroke-linecap:round;stroke-linejoin:round" transform="scale(1 -1)" d="M2-14h4v1H2z"/><path style="fill:#232629;fill-opacity:1;fill-rule:evenodd;stroke-width:1.99999;stroke-linecap:round;stroke-linejoin:round" transform="scale(1 -1)" d="M2-13h4v1H2z"/><path style="fill:#d56199;fill-opacity:1;stroke:none;stroke-width:1px;stroke-linecap:butt;stroke-linejoin:miter;stroke-opacity:1" d="m12 11 4 2.5-4 2.5z"/><path style="fill:#fff;fill-rule:evenodd;stroke-width:2;stroke-linecap:round;stroke-linejoin:round" transform="scale(1 -1)" d="M2-4h12v1H2z"/><path style="fill:#232629;fill-opacity:1;fill-rule:evenodd;stroke-width:2;stroke-linecap:round;stroke-linejoin:round" transform="scale(1 -1)" d="M2-3h12v1H2z"/><path style="fill:#fff;fill-rule:evenodd;stroke-width:2;stroke-linecap:round;stroke-linejoin:round" transform="scale(1 -1)" d="M2-6h8v1H2z"/><path style="fill:#232629;fill-opacity:1;fill-rule:evenodd;stroke-width:2;stroke-linecap:round;stroke-linejoin:round" transform="scale(1 -1)" d="M2-5h8v1H2z"/><path style="fill:#d56199;fill-opacity:1;fill-rule:evenodd;stroke-width:2;stroke-linecap:round;stroke-linejoin:round" d="M8 13h4v1H8z"/><path style="fill:#fff;fill-rule:evenodd;stroke-width:1.99999;stroke-linecap:round;stroke-linejoin:round" transform="scale(1 -1)" d="M2-8h10v1H2z"/><path style="fill:#232629;fill-opacity:1;fill-rule:evenodd;stroke-width:1.99999;stroke-linecap:round;stroke-linejoin:round" transform="scale(1 -1)" d="M2-7h10v1H2z"/></svg>