<svg xmlns="http://www.w3.org/2000/svg" viewBox="0 0 16 16"><rect style="fill:#d56199;fill-opacity:1;fill-rule:evenodd;stroke-width:3;stroke-linecap:round;stroke-linejoin:round" width="3" height="3" x="5" y="9" ry="1.5" rx="1.5"/><path style="fill:#232629;fill-rule:evenodd;stroke-width:3;stroke-linecap:round;stroke-linejoin:round" transform="scale(1 -1)" d="M7-7h7v1H7z"/><path style="fill:#fff;fill-rule:evenodd;stroke-width:3;stroke-linecap:round;stroke-linejoin:round" transform="scale(1 -1)" d="M7-8h7v1H7zM7-6h5v1H7z"/><path style="fill:#232629;fill-rule:evenodd;stroke-width:3;stroke-linecap:round;stroke-linejoin:round" transform="scale(1 -1)" d="M7-5h5v1H7z"/><path style="fill:#fff;fill-rule:evenodd;stroke-width:3;stroke-linecap:round;stroke-linejoin:round" transform="scale(1 -1)" d="M7-4h9v1H7z"/><path style="fill:#232629;fill-rule:evenodd;stroke-width:3;stroke-linecap:round;stroke-linejoin:round" transform="scale(1 -1)" d="M7-3h9v1H7zM10-14h5v1h-5z"/><path style="fill:#fff;fill-rule:evenodd;stroke-width:3;stroke-linecap:round;stroke-linejoin:round" transform="scale(1 -1)" d="M10-15h5v1h-5zM10-13h4v1h-4z"/><path style="fill:#232629;fill-rule:evenodd;stroke-width:3;stroke-linecap:round;stroke-linejoin:round" transform="scale(1 -1)" d="M10-12h4v1h-4z"/><path style="fill:#fff;fill-rule:evenodd;stroke-width:3;stroke-linecap:round;stroke-linejoin:round" transform="scale(1 -1)" d="M10-11h6v1h-6z"/><path style="fill:#232629;fill-rule:evenodd;stroke-width:3;stroke-linecap:round;stroke-linejoin:round" transform="scale(1 -1)" d="M10-10h6v1h-6z"/><rect style="fill:#d56199;fill-opacity:1;fill-rule:evenodd;stroke-width:3.00001;stroke-linecap:round;stroke-linejoin:round" width="1" height="3" x="3" y="2" ry="0" rx="0"/><rect style="fill:#d56199;fill-opacity:1;fill-rule:evenodd;stroke-width:3.00001;stroke-linecap:round;stroke-linejoin:round" width="1" height="3" x="1" y="2" ry="0" rx="0"/><path style="fill:#d56199;fill-rule:evenodd;stroke-width:3;stroke-linecap:round;stroke-linejoin:round" d="M0 2h5v1H0zM0 5h5v1H0z"/></svg>