<svg xmlns="http://www.w3.org/2000/svg" viewBox="0 0 16 16">/&gt;<path style="fill:#000;stroke:#000;opacity:.7;stroke-width:2;stroke-miterlimit:4;stroke-dasharray:none;stroke-linejoin:round" fill="#232629" d="M9 2a2 2 0 0 0-2 2v3a.5.5 0 0 1-.5.5H6v1h.5A.5.5 0 0 1 7 9v3a2 2 0 0 0 2 2h1v-1H9a1 1 0 0 1-1-1V9a1.5 1.5 0 0 0-.375-1A1.5 1.5 0 0 0 8 7V4a1 1 0 0 1 1-1h1V2z"/><path d="M9 2a2 2 0 0 0-2 2v3a.5.5 0 0 1-.5.5H6v1h.5A.5.5 0 0 1 7 9v3a2 2 0 0 0 2 2h1v-1H9a1 1 0 0 1-1-1V9a1.5 1.5 0 0 0-.375-1A1.5 1.5 0 0 0 8 7V4a1 1 0 0 1 1-1h1V2z" fill="#232629" style="fill:#fff"/></svg>