<svg xmlns="http://www.w3.org/2000/svg" xmlns:xlink="http://www.w3.org/1999/xlink" viewBox="0 0 24 24"><defs><linearGradient id="a"><stop offset="0" stop-color="#151515"/><stop offset="1" stop-color="#4d4d4d"/></linearGradient><linearGradient xlink:href="#a" id="b" x1="12" y1="4" x2="12" y2="20" gradientUnits="userSpaceOnUse"/></defs><path d="M4 4v16h4v-9l8.123 8.457c.169.193.339.334.508.422.089.04.187.07.297.09.11.02.23.031.361.031H20V4h-4v9L7.863 4.494a2.597 2.597 0 00-.254-.254.672.672 0 00-.226-.144.686.686 0 00-.268-.073A2.397 2.397 0 006.748 4H5z" fill="#fff" stroke="#fff" stroke-width="2" stroke-linejoin="round"/><path d="M4 4v16h4v-9l8.123 8.457c.169.193.339.334.508.422.089.04.187.07.297.09.11.02.23.031.361.031H20V4h-4v9L7.863 4.494a2.597 2.597 0 00-.254-.254.672.672 0 00-.226-.144.686.686 0 00-.268-.073A2.397 2.397 0 006.748 4H5z" fill="url(#b)"/></svg>