<svg xmlns="http://www.w3.org/2000/svg" viewBox="0 0 32 32"><path d="M25.5 4a2.5 2.5 0 100 5 2.5 2.5 0 001.5-.504V9h1V4h-1v.502A2.5 2.5 0 0025.5 4zm0 1a1.5 1.5 0 110 3 1.5 1.5 0 010-3zM23 11v7h1v-.502A2.5 2.5 0 1025.5 13a2.5 2.5 0 00-1.5.504V11zm2.5 3a1.5 1.5 0 110 3 1.5 1.5 0 010-3z" fill="#88a05d"/><path fill="#fff" fill-rule="evenodd" d="M19 8H7V7h12z"/><path fill="#232629" fill-rule="evenodd" d="M19 7H7V6h12z"/><path fill="#fff" fill-rule="evenodd" d="M19 6H3V5h16z"/><path fill="#232629" fill-rule="evenodd" d="M19 5H3V4h16z"/><path fill="#fff" fill-rule="evenodd" d="M19 10H5V9h14z"/><path fill="#232629" fill-rule="evenodd" d="M19 9H5V8h14z"/><path fill="#fff" fill-rule="evenodd" d="M19 17H7v-1h12z"/><path fill="#232629" fill-rule="evenodd" d="M19 16H7v-1h12z"/><path fill="#fff" fill-rule="evenodd" d="M19 15H3v-1h16z"/><path fill="#232629" fill-rule="evenodd" d="M19 14H3v-1h16z"/><path fill="#fff" fill-rule="evenodd" d="M19 19H5v-1h14z"/><path fill="#232629" fill-rule="evenodd" d="M19 18H5v-1h14z"/><path fill="#fff" fill-rule="evenodd" d="M19 26H7v-1h12z"/><path fill="#232629" fill-rule="evenodd" d="M19 25H7v-1h12z"/><path fill="#fff" fill-rule="evenodd" d="M19 24H3v-1h16z"/><path fill="#232629" fill-rule="evenodd" d="M19 23H3v-1h16z"/><path fill="#fff" fill-rule="evenodd" d="M19 28H5v-1h14z"/><path fill="#232629" fill-rule="evenodd" d="M19 27H5v-1h14z"/><path d="M25.5 22a2.5 2.5 0 100 5 2.5 2.5 0 001.5-.504V26h-1.47v-.004c-.01 0-.02.004-.03.004a1.5 1.5 0 010-3c.01 0 .02.004.03.004V23H27v-.498A2.5 2.5 0 0025.5 22z" fill="#88a05d"/></svg>