<svg xmlns="http://www.w3.org/2000/svg" viewBox="0 0 32 32"><path fill="#fff" fill-rule="evenodd" d="M21 8H9V7h12z"/><path fill="#232629" fill-rule="evenodd" d="M21 7H9V6h12z"/><path fill="#fff" fill-rule="evenodd" d="M21 6H5V5h16z"/><path fill="#232629" fill-rule="evenodd" d="M21 5H5V4h16z"/><path fill="#fff" fill-rule="evenodd" d="M21 10H7V9h14z"/><path fill="#232629" fill-rule="evenodd" d="M21 9H7V8h14z"/><path fill="#fff" fill-rule="evenodd" d="M21 17H9v-1h12z"/><path fill="#232629" fill-rule="evenodd" d="M21 16H9v-1h12z"/><path fill="#fff" fill-rule="evenodd" d="M21 15H5v-1h16z"/><path fill="#232629" fill-rule="evenodd" d="M21 14H5v-1h16z"/><path fill="#fff" fill-rule="evenodd" d="M21 19H7v-1h14z"/><path fill="#232629" fill-rule="evenodd" d="M21 18H7v-1h14z"/><path fill="#fff" fill-rule="evenodd" d="M21 26H9v-1h12z"/><path fill="#232629" fill-rule="evenodd" d="M21 25H9v-1h12z"/><path fill="#fff" fill-rule="evenodd" d="M21 24H5v-1h16z"/><path fill="#232629" fill-rule="evenodd" d="M21 23H5v-1h16z"/><path fill="#fff" fill-rule="evenodd" d="M21 28H7v-1h14z"/><path fill="#232629" fill-rule="evenodd" d="M21 27H7v-1h14z"/><circle cx="-25.5" cy="5.5" r="1.5" transform="scale(-1 1)" fill="#88a05d" fill-rule="evenodd"/><circle cx="-25.5" cy="14.5" r="1.5" transform="scale(-1 1)" fill="#88a05d" fill-rule="evenodd"/><circle cx="-25.5" cy="23.5" r="1.5" transform="scale(-1 1)" fill="#88a05d" fill-rule="evenodd"/></svg>