<svg xmlns="http://www.w3.org/2000/svg" viewBox="0 0 32 32"><path d="M25 4l-1.447 1.447.722.723.725-.725V9h1V4zM24.975 13.006c-.561.022-1.225.156-1.975.424l1 .57c2.467-.491 2.738.84-1 3v1h4v-1h-2c2.893-2.103 2.405-4.09-.025-3.994z" fill="#88a05d"/><path fill="#fff" fill-rule="evenodd" d="M19 8H7V7h12z"/><path fill="#232629" fill-rule="evenodd" d="M19 7H7V6h12z"/><path fill="#fff" fill-rule="evenodd" d="M19 6H3V5h16z"/><path fill="#232629" fill-rule="evenodd" d="M19 5H3V4h16z"/><path fill="#fff" fill-rule="evenodd" d="M19 10H5V9h14z"/><path fill="#232629" fill-rule="evenodd" d="M19 9H5V8h14z"/><path fill="#fff" fill-rule="evenodd" d="M19 17H7v-1h12z"/><path fill="#232629" fill-rule="evenodd" d="M19 16H7v-1h12z"/><path fill="#fff" fill-rule="evenodd" d="M19 15H3v-1h16z"/><path fill="#232629" fill-rule="evenodd" d="M19 14H3v-1h16z"/><path fill="#fff" fill-rule="evenodd" d="M19 19H5v-1h14z"/><path fill="#232629" fill-rule="evenodd" d="M19 18H5v-1h14z"/><path fill="#fff" fill-rule="evenodd" d="M19 26H7v-1h12z"/><path fill="#232629" fill-rule="evenodd" d="M19 25H7v-1h12z"/><path fill="#fff" fill-rule="evenodd" d="M19 24H3v-1h16z"/><path fill="#232629" fill-rule="evenodd" d="M19 23H3v-1h16z"/><path fill="#fff" fill-rule="evenodd" d="M19 28H5v-1h14z"/><path fill="#232629" fill-rule="evenodd" d="M19 27H5v-1h14z"/><path style="line-height:normal;font-variant-ligatures:normal;font-variant-position:normal;font-variant-caps:normal;font-variant-numeric:normal;font-variant-alternates:normal;font-variant-east-asian:normal;font-feature-settings:normal;font-variation-settings:normal;text-indent:0;text-align:start;text-decoration-line:none;text-decoration-style:solid;text-decoration-color:#000;text-transform:none;text-orientation:mixed;white-space:normal;shape-padding:0;shape-margin:0;inline-size:0;isolation:auto;mix-blend-mode:normal;solid-color:#000;solid-opacity:1" d="M24.867 22.002a3.922 3.922 0 00-1.59.38l.446.895c.38-.19 1.083-.313 1.603-.261.26.026.471.095.572.162.102.066.102.069.102.152 0 .167-.033.228-.066.272-.034.043-.093.087-.217.128-.249.083-.717.1-1.217.1v1c.5 0 .968.017 1.217.1.124.041.183.085.217.129.033.043.066.104.066.271 0 .083 0 .086-.102.152-.1.067-.312.137-.572.163-.52.052-1.223-.072-1.603-.262l-.446.894c.62.31 1.417.437 2.147.364.365-.037.716-.123 1.021-.323.305-.199.555-.571.555-.988 0-.333-.092-.647-.277-.885-.037-.047-.086-.075-.127-.115.041-.04.09-.068.127-.115.185-.238.277-.552.277-.885 0-.417-.25-.789-.555-.988-.305-.2-.656-.286-1.021-.322a4.17 4.17 0 00-.557-.018z" color="#000" font-weight="400" font-family="sans-serif" overflow="visible" fill="#88a05d"/></svg>