<svg xmlns="http://www.w3.org/2000/svg" viewBox="0 0 32 32"><path fill="#fff" fill-rule="evenodd" d="M21 8H9V7h12z"/><path fill="#232629" fill-rule="evenodd" d="M21 7H9V6h12z"/><path fill="#fff" fill-rule="evenodd" d="M21 6H5V5h16z"/><path fill="#232629" fill-rule="evenodd" d="M21 5H5V4h16z"/><path fill="#fff" fill-rule="evenodd" d="M21 10H7V9h14z"/><path fill="#232629" fill-rule="evenodd" d="M21 9H7V8h14z"/><path fill="#fff" fill-rule="evenodd" d="M21 17H9v-1h12z"/><path fill="#232629" fill-rule="evenodd" d="M21 16H9v-1h12z"/><path fill="#fff" fill-rule="evenodd" d="M21 15H5v-1h16z"/><path fill="#232629" fill-rule="evenodd" d="M21 14H5v-1h16z"/><path fill="#fff" fill-rule="evenodd" d="M21 19H7v-1h14z"/><path fill="#232629" fill-rule="evenodd" d="M21 18H7v-1h14z"/><path fill="#fff" fill-rule="evenodd" d="M21 26H9v-1h12z"/><path fill="#232629" fill-rule="evenodd" d="M21 25H9v-1h12z"/><path fill="#fff" fill-rule="evenodd" d="M21 24H5v-1h16z"/><path fill="#232629" fill-rule="evenodd" d="M21 23H5v-1h16z"/><path fill="#fff" fill-rule="evenodd" d="M21 28H7v-1h14z"/><path fill="#232629" fill-rule="evenodd" d="M21 27H7v-1h14z"/><circle cx="-25.5" cy="5.5" r="1.5" transform="scale(-1 1)" fill="#e95420" fill-rule="evenodd"/><circle cx="-25.5" cy="14.5" r="1.5" transform="scale(-1 1)" fill="#e95420" fill-rule="evenodd"/><circle cx="-25.5" cy="23.5" r="1.5" transform="scale(-1 1)" fill="#e95420" fill-rule="evenodd"/><circle cy="27.5" cx="-4.5" r="3.5" transform="scale(-1 1)" fill="#c7162b"/><path overflow="visible" font-weight="400" style="line-height:normal;text-indent:0;text-align:start;text-decoration-line:none;text-decoration-style:solid;text-decoration-color:#000;text-transform:none;white-space:normal;isolation:auto;mix-blend-mode:normal;marker:none" d="M3.086 25.379L4.5 26.793l1.414-1.414.707.707L5.207 27.5l1.414 1.414-.707.707L4.5 28.207l-1.414 1.414-.707-.707L3.793 27.5l-1.414-1.414z" color="#000" font-family="sans-serif" fill="#fff"/></svg>