<svg xmlns="http://www.w3.org/2000/svg" viewBox="0 0 32 32"><path fill="#88a05d" d="M24 5h-1v3h1zM27 13v1h-1v3h1v1h-5v-1h1v-3h-1v-1zm-2 1h-1v3h1zM29 22v1h-1v3h1v1h-7v-1h1v-3h-1v-1zm-2 1h-1v3h1zm-2 0h-1v3h1z"/><rect width="3" height="1" x="-25" y="4" ry="0" transform="scale(-1 1)" fill="#88a05d"/><path fill="#88a05d" d="M25 8h-3v1h3z"/><path fill="#fff" fill-rule="evenodd" d="M19 8H7V7h12z"/><path fill="#232629" fill-rule="evenodd" d="M19 7H7V6h12z"/><path fill="#fff" fill-rule="evenodd" d="M19 6H3V5h16z"/><path fill="#232629" fill-rule="evenodd" d="M19 5H3V4h16z"/><path fill="#fff" fill-rule="evenodd" d="M19 10H5V9h14z"/><path fill="#232629" fill-rule="evenodd" d="M19 9H5V8h14z"/><path fill="#fff" fill-rule="evenodd" d="M19 17H7v-1h12z"/><path fill="#232629" fill-rule="evenodd" d="M19 16H7v-1h12z"/><path fill="#fff" fill-rule="evenodd" d="M19 15H3v-1h16z"/><path fill="#232629" fill-rule="evenodd" d="M19 14H3v-1h16z"/><path fill="#fff" fill-rule="evenodd" d="M19 19H5v-1h14z"/><path fill="#232629" fill-rule="evenodd" d="M19 18H5v-1h14z"/><path fill="#fff" fill-rule="evenodd" d="M19 26H7v-1h12z"/><path fill="#232629" fill-rule="evenodd" d="M19 25H7v-1h12z"/><path fill="#fff" fill-rule="evenodd" d="M19 24H3v-1h16z"/><path fill="#232629" fill-rule="evenodd" d="M19 23H3v-1h16z"/><path fill="#fff" fill-rule="evenodd" d="M19 28H5v-1h14z"/><path fill="#232629" fill-rule="evenodd" d="M19 27H5v-1h14z"/></svg>