<svg xmlns="http://www.w3.org/2000/svg" xmlns:xlink="http://www.w3.org/1999/xlink" width="32" height="32" viewBox="0 0 8.467 8.467"><defs><linearGradient xlink:href="#a" id="b" x1="74" y1="-64" x2="90" y2="-64" gradientUnits="userSpaceOnUse" gradientTransform="matrix(0 -.26458 .26458 0 20.902 313.14)"/><linearGradient id="a"><stop offset="0" style="stop-color:#4d4d4d;stop-opacity:1"/><stop offset="1" style="stop-color:#151515;stop-opacity:1"/></linearGradient></defs><path d="M2.117 288.813a.265.265 0 0 0-.265.266v1.189a.265.265 0 0 0 .029.12l.13.263a.265.265 0 0 0 .018.03.265.265 0 0 0-.162.161.265.265 0 0 0-.03-.017l-.263-.131a.265.265 0 0 0-.119-.03H.264a.265.265 0 0 0-.264.266v.264a.265.265 0 0 0 .264.265h1.191a.265.265 0 0 0 .12-.029l.263-.13a.265.265 0 0 0 .03-.018.265.265 0 0 0 .161.162.265.265 0 0 0-.017.029l-.131.264a.265.265 0 0 0-.03.119v1.191a.265.265 0 0 0 .266.264h.264a.265.265 0 0 0 .265-.266v-1.19a.265.265 0 0 0-.029-.118l-.13-.264a.265.265 0 0 0-.018-.03.265.265 0 0 0 .162-.161.265.265 0 0 0 .03.017l.263.131a.265.265 0 0 0 .119.03h1.19a.265.265 0 0 0 .265-.266v-.264a.265.265 0 0 0-.266-.266H3.043a.265.265 0 0 0-.12.03l-.263.13a.265.265 0 0 0-.03.018.265.265 0 0 0-.161-.162.265.265 0 0 0 .017-.03l.131-.263a.265.265 0 0 0 .03-.119v-1.19a.265.265 0 0 0-.266-.265z" style="color:#000;font-style:normal;font-variant:normal;font-weight:400;font-stretch:normal;font-size:medium;line-height:normal;font-family:sans-serif;font-variant-ligatures:normal;font-variant-position:normal;font-variant-caps:normal;font-variant-numeric:normal;font-variant-alternates:normal;font-feature-settings:normal;text-indent:0;text-align:start;text-decoration:none;text-decoration-line:none;text-decoration-style:solid;text-decoration-color:#000;letter-spacing:normal;word-spacing:normal;text-transform:none;writing-mode:lr-tb;direction:ltr;text-orientation:mixed;dominant-baseline:auto;baseline-shift:baseline;text-anchor:start;white-space:normal;shape-padding:0;clip-rule:nonzero;display:inline;overflow:visible;visibility:visible;opacity:.15;isolation:auto;mix-blend-mode:normal;color-interpolation:sRGB;color-interpolation-filters:linearRGB;solid-color:#000;solid-opacity:1;vector-effect:none;fill:#000;fill-opacity:1;fill-rule:evenodd;stroke:none;stroke-width:.5291667;stroke-linecap:butt;stroke-linejoin:round;stroke-miterlimit:4;stroke-dasharray:none;stroke-dashoffset:0;stroke-opacity:1;color-rendering:auto;image-rendering:auto;shape-rendering:auto;text-rendering:auto;enable-background:accumulate" transform="translate(0 -288.533)"/><path style="color:#000;font-style:normal;font-variant:normal;font-weight:400;font-stretch:normal;font-size:medium;line-height:normal;font-family:sans-serif;font-variant-ligatures:normal;font-variant-position:normal;font-variant-caps:normal;font-variant-numeric:normal;font-variant-alternates:normal;font-feature-settings:normal;text-indent:0;text-align:start;text-decoration:none;text-decoration-line:none;text-decoration-style:solid;text-decoration-color:#000;letter-spacing:normal;word-spacing:normal;text-transform:none;writing-mode:lr-tb;direction:ltr;text-orientation:mixed;dominant-baseline:auto;baseline-shift:baseline;text-anchor:start;white-space:normal;shape-padding:0;clip-rule:nonzero;display:inline;overflow:visible;visibility:visible;opacity:1;isolation:auto;mix-blend-mode:normal;color-interpolation:sRGB;color-interpolation-filters:linearRGB;solid-color:#000;solid-opacity:1;vector-effect:none;fill:#fff;fill-opacity:1;fill-rule:evenodd;stroke:none;stroke-width:.5291667;stroke-linecap:butt;stroke-linejoin:round;stroke-miterlimit:4;stroke-dasharray:none;stroke-dashoffset:0;stroke-opacity:1;color-rendering:auto;image-rendering:auto;shape-rendering:auto;text-rendering:auto;enable-background:accumulate" d="M2.117 288.533a.265.265 0 0 0-.265.266v1.19a.265.265 0 0 0 .029.119l.13.263a.265.265 0 0 0 .018.03.265.265 0 0 0-.162.162.265.265 0 0 0-.03-.018l-.263-.13a.265.265 0 0 0-.119-.03H.264a.265.265 0 0 0-.264.266v.263a.265.265 0 0 0 .264.266h1.191a.265.265 0 0 0 .12-.03l.263-.13a.265.265 0 0 0 .03-.018.265.265 0 0 0 .161.162.265.265 0 0 0-.017.03l-.131.263a.265.265 0 0 0-.03.12v1.19a.265.265 0 0 0 .266.264h.264a.265.265 0 0 0 .265-.265v-1.19a.265.265 0 0 0-.029-.119l-.13-.264a.265.265 0 0 0-.018-.029.265.265 0 0 0 .162-.162.265.265 0 0 0 .03.018l.263.13a.265.265 0 0 0 .119.03h1.19a.265.265 0 0 0 .265-.266v-.263a.265.265 0 0 0-.266-.266H3.043a.265.265 0 0 0-.12.03l-.263.13a.265.265 0 0 0-.03.018.265.265 0 0 0-.161-.162.265.265 0 0 0 .017-.03l.131-.263a.265.265 0 0 0 .03-.12V288.8a.265.265 0 0 0-.266-.266z" transform="translate(0 -288.533)"/><path d="M2.117 288.798v1.19l.132.265.132-.264v-1.191zM.265 290.65v.265h1.19l.265-.133-.265-.132zm1.852 0v.265h.264v-.265zm.926 0-.265.132.265.133h1.19v-.265zm-.794.661-.132.265v1.19h.264v-1.19z" style="display:inline;fill:url(#b);fill-opacity:1;fill-rule:evenodd;stroke:none;stroke-width:.26458332px;stroke-linecap:butt;stroke-linejoin:miter;stroke-opacity:1" transform="translate(0 -288.533)"/><path d="M3.44 292.767v.794h.527l.002.006v1.31l-.002.006H3.44v.794h.529a.729.729 0 0 0 .397-.122.73.73 0 0 0 .397.122h.529v-.794h-.527l-.003-.007v-1.31l.003-.006h.527v-.794h-.53a.729.729 0 0 0-.396.122.73.73 0 0 0-.397-.122z" style="color:#000;font-style:normal;font-variant:normal;font-weight:400;font-stretch:normal;font-size:medium;line-height:normal;font-family:sans-serif;font-variant-ligatures:normal;font-variant-position:normal;font-variant-caps:normal;font-variant-numeric:normal;font-variant-alternates:normal;font-feature-settings:normal;text-indent:0;text-align:start;text-decoration:none;text-decoration-line:none;text-decoration-style:solid;text-decoration-color:#000;letter-spacing:normal;word-spacing:normal;text-transform:none;writing-mode:lr-tb;direction:ltr;text-orientation:mixed;dominant-baseline:auto;baseline-shift:baseline;text-anchor:start;white-space:normal;shape-padding:0;clip-rule:nonzero;display:inline;overflow:visible;visibility:visible;opacity:1;isolation:auto;mix-blend-mode:normal;color-interpolation:sRGB;color-interpolation-filters:linearRGB;solid-color:#000;solid-opacity:1;vector-effect:none;fill:#fff;fill-opacity:1;fill-rule:evenodd;stroke:none;stroke-width:.5291667;stroke-linecap:butt;stroke-linejoin:miter;stroke-miterlimit:4;stroke-dasharray:none;stroke-dashoffset:0;stroke-opacity:1;color-rendering:auto;image-rendering:auto;shape-rendering:auto;text-rendering:auto;enable-background:accumulate" transform="translate(0 -288.533)"/><path style="color:#000;font-style:normal;font-variant:normal;font-weight:400;font-stretch:normal;font-size:medium;line-height:normal;font-family:sans-serif;font-variant-ligatures:normal;font-variant-position:normal;font-variant-caps:normal;font-variant-numeric:normal;font-variant-alternates:normal;font-feature-settings:normal;text-indent:0;text-align:start;text-decoration:none;text-decoration-line:none;text-decoration-style:solid;text-decoration-color:#000;letter-spacing:normal;word-spacing:normal;text-transform:none;writing-mode:lr-tb;direction:ltr;text-orientation:mixed;dominant-baseline:auto;baseline-shift:baseline;text-anchor:start;white-space:normal;shape-padding:0;clip-rule:nonzero;display:inline;overflow:visible;visibility:visible;opacity:1;isolation:auto;mix-blend-mode:normal;color-interpolation:sRGB;color-interpolation-filters:linearRGB;solid-color:#000;solid-opacity:1;vector-effect:none;fill:#111;fill-opacity:1;fill-rule:evenodd;stroke:none;stroke-width:.26458335px;stroke-linecap:butt;stroke-linejoin:miter;stroke-miterlimit:4;stroke-dasharray:none;stroke-dashoffset:0;stroke-opacity:1;color-rendering:auto;image-rendering:auto;shape-rendering:auto;text-rendering:auto;enable-background:accumulate" d="M3.704 293.031v.265h.265c.154 0 .195.057.229.125s.035.14.035.14v1.322s-.002.072-.035.14c-.034.067-.107.124-.23.124h-.264v.265h.265a.488.488 0 0 0 .397-.195.488.488 0 0 0 .397.195h.264v-.265h-.264c-.155 0-.196-.057-.23-.125a.372.372 0 0 1-.035-.14v-1.322s.002-.071.036-.14c.033-.067.074-.124.229-.124h.264v-.265h-.264a.488.488 0 0 0-.397.196.488.488 0 0 0-.397-.196z" transform="translate(0 -288.533)"/></svg>