<svg xmlns="http://www.w3.org/2000/svg" xmlns:xlink="http://www.w3.org/1999/xlink" width="32" height="32" viewBox="0 0 8.467 8.467"><defs><linearGradient xlink:href="#a" id="b" x1="74" y1="-64" x2="90" y2="-64" gradientUnits="userSpaceOnUse" gradientTransform="matrix(0 -.26458 .26458 0 20.902 313.14)"/><linearGradient id="a"><stop offset="0" style="stop-color:#4d4d4d;stop-opacity:1"/><stop offset="1" style="stop-color:#151515;stop-opacity:1"/></linearGradient></defs><g transform="translate(0 -288.533)"><path d="M2.117 288.798a.265.265 0 0 0-.265.265v1.19a.265.265 0 0 0 .029.119l.13.264a.265.265 0 0 0 .018.029.265.265 0 0 0-.162.162.265.265 0 0 0-.03-.018l-.263-.13a.265.265 0 0 0-.119-.03H.264a.265.265 0 0 0-.264.266v.264a.265.265 0 0 0 .264.265h1.191a.265.265 0 0 0 .12-.029l.263-.13a.265.265 0 0 0 .03-.018.265.265 0 0 0 .161.162.265.265 0 0 0-.017.029l-.131.264a.265.265 0 0 0-.03.119v1.191a.265.265 0 0 0 .266.264h.264a.265.265 0 0 0 .265-.266v-1.19a.265.265 0 0 0-.029-.118l-.13-.264a.265.265 0 0 0-.018-.03.265.265 0 0 0 .162-.161.265.265 0 0 0 .03.017l.263.131a.265.265 0 0 0 .119.03h1.19a.265.265 0 0 0 .265-.266v-.264a.265.265 0 0 0-.266-.266H3.043a.265.265 0 0 0-.12.03l-.263.13a.265.265 0 0 0-.03.018.265.265 0 0 0-.161-.162.265.265 0 0 0 .017-.03l.131-.263a.265.265 0 0 0 .03-.12v-1.189a.265.265 0 0 0-.266-.265Z" style="color:#000;font-style:normal;font-variant:normal;font-weight:400;font-stretch:normal;font-size:medium;line-height:normal;font-family:sans-serif;font-variant-ligatures:normal;font-variant-position:normal;font-variant-caps:normal;font-variant-numeric:normal;font-variant-alternates:normal;font-feature-settings:normal;text-indent:0;text-align:start;text-decoration:none;text-decoration-line:none;text-decoration-style:solid;text-decoration-color:#000;letter-spacing:normal;word-spacing:normal;text-transform:none;writing-mode:lr-tb;direction:ltr;text-orientation:mixed;dominant-baseline:auto;baseline-shift:baseline;text-anchor:start;white-space:normal;shape-padding:0;clip-rule:nonzero;display:inline;overflow:visible;visibility:visible;opacity:.15;isolation:auto;mix-blend-mode:normal;color-interpolation:sRGB;color-interpolation-filters:linearRGB;solid-color:#000;solid-opacity:1;vector-effect:none;fill:#000;fill-opacity:1;fill-rule:evenodd;stroke:none;stroke-width:.5291667;stroke-linecap:butt;stroke-linejoin:round;stroke-miterlimit:4;stroke-dasharray:none;stroke-dashoffset:0;stroke-opacity:1;color-rendering:auto;image-rendering:auto;shape-rendering:auto;text-rendering:auto;enable-background:accumulate"/><path style="color:#000;font-style:normal;font-variant:normal;font-weight:400;font-stretch:normal;font-size:medium;line-height:normal;font-family:sans-serif;font-variant-ligatures:normal;font-variant-position:normal;font-variant-caps:normal;font-variant-numeric:normal;font-variant-alternates:normal;font-feature-settings:normal;text-indent:0;text-align:start;text-decoration:none;text-decoration-line:none;text-decoration-style:solid;text-decoration-color:#000;letter-spacing:normal;word-spacing:normal;text-transform:none;writing-mode:lr-tb;direction:ltr;text-orientation:mixed;dominant-baseline:auto;baseline-shift:baseline;text-anchor:start;white-space:normal;shape-padding:0;clip-rule:nonzero;display:inline;overflow:visible;visibility:visible;opacity:1;isolation:auto;mix-blend-mode:normal;color-interpolation:sRGB;color-interpolation-filters:linearRGB;solid-color:#000;solid-opacity:1;vector-effect:none;fill:#fff;fill-opacity:1;fill-rule:evenodd;stroke:none;stroke-width:.5291667;stroke-linecap:butt;stroke-linejoin:round;stroke-miterlimit:4;stroke-dasharray:none;stroke-dashoffset:0;stroke-opacity:1;color-rendering:auto;image-rendering:auto;shape-rendering:auto;text-rendering:auto;enable-background:accumulate" d="M2.117 288.533a.265.265 0 0 0-.265.266v1.19a.265.265 0 0 0 .029.118l.13.264a.265.265 0 0 0 .018.03.265.265 0 0 0-.162.162.265.265 0 0 0-.03-.018l-.263-.131a.265.265 0 0 0-.119-.03H.264a.265.265 0 0 0-.264.266v.264a.265.265 0 0 0 .264.266h1.191a.265.265 0 0 0 .12-.03l.263-.13a.265.265 0 0 0 .03-.018.265.265 0 0 0 .161.162.265.265 0 0 0-.017.03l-.131.263a.265.265 0 0 0-.03.12v1.19a.265.265 0 0 0 .266.264h.264a.265.265 0 0 0 .265-.265v-1.19a.265.265 0 0 0-.029-.119l-.13-.264a.265.265 0 0 0-.018-.029.265.265 0 0 0 .162-.162.265.265 0 0 0 .03.018l.263.13a.265.265 0 0 0 .119.03h1.19a.265.265 0 0 0 .265-.266v-.264a.265.265 0 0 0-.266-.265H3.043a.265.265 0 0 0-.12.03l-.263.13a.265.265 0 0 0-.03.018.265.265 0 0 0-.161-.163.265.265 0 0 0 .017-.029l.131-.264a.265.265 0 0 0 .03-.119v-1.19a.265.265 0 0 0-.266-.265z"/><path d="M2.117 288.798v1.19l.132.265.132-.264v-1.191zM.265 290.65v.265h1.19l.265-.133-.265-.132zm1.852 0v.265h.264v-.265zm.926 0-.265.132.265.132h1.19v-.264zm-.794.661-.132.265v1.19h.264v-1.19z" style="display:inline;fill:url(#b);fill-opacity:1;fill-rule:evenodd;stroke:none;stroke-width:.26458332px;stroke-linecap:butt;stroke-linejoin:miter;stroke-opacity:1"/><path d="M2.794 294.867c0-.774.384-1.174 1.175-1.174M5.937 292.518c0 .774-.384 1.175-1.175 1.175" style="fill:none;stroke:#1463a5;stroke-width:.26458332;stroke-linecap:round;stroke-miterlimit:4;stroke-dasharray:none;stroke-opacity:1"/><path style="color:#000;font-style:normal;font-variant:normal;font-weight:400;font-stretch:normal;font-size:medium;line-height:normal;font-family:sans-serif;font-variant-ligatures:normal;font-variant-position:normal;font-variant-caps:normal;font-variant-numeric:normal;font-variant-alternates:normal;font-feature-settings:normal;text-indent:0;text-align:start;text-decoration:none;text-decoration-line:none;text-decoration-style:solid;text-decoration-color:#000;letter-spacing:normal;word-spacing:normal;text-transform:none;writing-mode:lr-tb;direction:ltr;text-orientation:mixed;dominant-baseline:auto;baseline-shift:baseline;text-anchor:start;white-space:normal;shape-padding:0;clip-rule:nonzero;display:inline;overflow:visible;visibility:visible;opacity:.7;isolation:auto;mix-blend-mode:normal;color-interpolation:sRGB;color-interpolation-filters:linearRGB;solid-color:#000;solid-opacity:1;vector-effect:none;fill:#000;fill-opacity:1;fill-rule:nonzero;stroke:none;stroke-width:.52784377;stroke-linecap:round;stroke-linejoin:round;stroke-miterlimit:4;stroke-dasharray:none;stroke-dashoffset:0;stroke-opacity:1;color-rendering:auto;image-rendering:auto;shape-rendering:auto;text-rendering:auto;enable-background:accumulate" d="M3.97 293.033a.264.264 0 0 0-.264.264l-.002.793c0 .145.118.263.264.263l.793-.002a.264.264 0 0 0 .263-.263l.002-.793a.264.264 0 0 0-.263-.264Zm.263.527h.265l-.003.263h-.264z"/><rect style="opacity:1;fill:#aee3f8;fill-opacity:1;fill-rule:nonzero;stroke:none;stroke-width:.43986943;stroke-linecap:round;stroke-linejoin:round;stroke-miterlimit:4;stroke-dasharray:none;stroke-opacity:1" width=".794" height=".794" x="3.969" y="293.296" ry="0"/></g></svg>