<svg xmlns="http://www.w3.org/2000/svg" width="32" height="32" viewBox="0 0 8.467 8.467"><g transform="translate(0 -288.533)"><path d="M.942 294.867c0-.774.384-1.174 1.175-1.174M4.085 292.518c0 .774-.384 1.175-1.175 1.175" style="fill:none;stroke:#1463a5;stroke-width:.26458332;stroke-linecap:round;stroke-miterlimit:4;stroke-dasharray:none;stroke-opacity:1"/><path style="color:#000;font-style:normal;font-variant:normal;font-weight:400;font-stretch:normal;font-size:medium;line-height:normal;font-family:sans-serif;font-variant-ligatures:normal;font-variant-position:normal;font-variant-caps:normal;font-variant-numeric:normal;font-variant-alternates:normal;font-feature-settings:normal;text-indent:0;text-align:start;text-decoration:none;text-decoration-line:none;text-decoration-style:solid;text-decoration-color:#000;letter-spacing:normal;word-spacing:normal;text-transform:none;writing-mode:lr-tb;direction:ltr;text-orientation:mixed;dominant-baseline:auto;baseline-shift:baseline;text-anchor:start;white-space:normal;shape-padding:0;clip-rule:nonzero;display:inline;overflow:visible;visibility:visible;opacity:.7;isolation:auto;mix-blend-mode:normal;color-interpolation:sRGB;color-interpolation-filters:linearRGB;solid-color:#000;solid-opacity:1;vector-effect:none;fill:#000;fill-opacity:1;fill-rule:nonzero;stroke:none;stroke-width:.52784377;stroke-linecap:round;stroke-linejoin:round;stroke-miterlimit:4;stroke-dasharray:none;stroke-dashoffset:0;stroke-opacity:1;color-rendering:auto;image-rendering:auto;shape-rendering:auto;text-rendering:auto;enable-background:accumulate" d="M2.118 293.033a.264.264 0 0 0-.264.264l-.002.793c0 .145.118.263.264.263l.793-.002a.264.264 0 0 0 .263-.263l.002-.793a.264.264 0 0 0-.264-.264zm.263.527h.265l-.003.263H2.38z"/><rect style="opacity:1;fill:#aee3f8;fill-opacity:1;fill-rule:nonzero;stroke:none;stroke-width:.43986943;stroke-linecap:round;stroke-linejoin:round;stroke-miterlimit:4;stroke-dasharray:none;stroke-opacity:1" width=".794" height=".794" x="2.117" y="293.296" ry="0"/><path style="opacity:.15;fill-opacity:.991565;fill-rule:evenodd" d="M27-365.314a.5.5 0 0 0-.482.5l.01 17a.5.5 0 0 0 .798.4l5.147-4.83 6.588-.565a.5.5 0 0 0 .302-.859l-12-11.508a.5.5 0 0 0-.363-.138z" transform="matrix(.26458 0 0 .26458 -7.016 385.454)"/><path style="fill:#333;fill-rule:evenodd;stroke:#fafafa;stroke-linecap:round;stroke-linejoin:round" d="m39.018-354.307-6.73.577-5.26 4.915-.01-17z" transform="matrix(.26458 0 0 .26458 -7.016 385.454)"/></g></svg>