<svg xmlns="http://www.w3.org/2000/svg" xmlns:xlink="http://www.w3.org/1999/xlink" width="32" height="32" viewBox="0 0 8.467 8.467"><defs><linearGradient xlink:href="#a" id="d" x1="316" y1="-156" x2="332" y2="-156" gradientUnits="userSpaceOnUse" gradientTransform="rotate(-90 324 -164)"/><linearGradient id="a"><stop offset="0" stop-color="#4d4d4d"/><stop offset="1" stop-color="#151515"/></linearGradient><filter id="c" x="-.211" width="1.421" y="-.211" height="1.421" color-interpolation-filters="sRGB"><feGaussianBlur stdDeviation="1.405"/></filter><filter id="b" x="-.12" width="1.24" y="-.12" height="1.24" color-interpolation-filters="sRGB"><feGaussianBlur stdDeviation=".8"/></filter></defs><path style="line-height:normal;font-variant-ligatures:normal;font-variant-position:normal;font-variant-caps:normal;font-variant-numeric:normal;font-variant-alternates:normal;font-feature-settings:normal;text-indent:0;text-align:start;text-decoration-line:none;text-decoration-style:solid;text-decoration-color:#000;text-transform:none;text-orientation:mixed;white-space:normal;shape-padding:0;isolation:auto;mix-blend-mode:normal;solid-color:#000;solid-opacity:1" d="M12.082 3.582c-4.689 0-8.5 3.811-8.5 8.5 0 4.688 3.811 8.5 8.5 8.5 4.688 0 8.5-3.812 8.5-8.5 0-4.689-3.812-8.5-8.5-8.5zm0 1c4.148 0 7.5 3.352 7.5 7.5s-3.352 7.5-7.5 7.5a7.492 7.492 0 01-7.5-7.5c0-4.148 3.352-7.5 7.5-7.5zm0 2a5.508 5.508 0 00-5.5 5.5c0 .885.215 1.758.625 2.543l.316.603 7.701-7.703-.601-.316a5.503 5.503 0 00-2.54-.627zm-.002 1h.002c.467 0 .898.19 1.34.332l-5.51 5.51c-.142-.443-.33-.875-.33-1.342a4.492 4.492 0 014.498-4.5zm4.56 1.353l-.48.483-7.22 7.22.6.317c.785.41 1.655.625 2.54.627h.002c3.031 0 5.5-2.469 5.5-5.5-.001-.885-.215-1.759-.625-2.543zm-.388 1.805c.142.442.33.874.33 1.342a4.492 4.492 0 01-4.498 4.5c-.468-.001-.9-.19-1.342-.332z" transform="matrix(.26458 0 0 .26458 1.037 1.037)" color="#000" font-weight="400" font-family="sans-serif" overflow="visible" opacity=".7" filter="url(#b)" enable-background="accumulate"/><path style="line-height:normal;font-variant-ligatures:normal;font-variant-position:normal;font-variant-caps:normal;font-variant-numeric:normal;font-variant-alternates:normal;font-feature-settings:normal;text-indent:0;text-align:start;text-decoration-line:none;text-decoration-style:solid;text-decoration-color:#000;text-transform:none;text-orientation:mixed;white-space:normal;shape-padding:0;isolation:auto;mix-blend-mode:normal;solid-color:#000;solid-opacity:1" d="M12.082 3.582c-4.689 0-8.5 3.811-8.5 8.5 0 4.688 3.811 8.5 8.5 8.5 4.688 0 8.5-3.812 8.5-8.5 0-4.689-3.812-8.5-8.5-8.5zm0 1c4.148 0 7.5 3.352 7.5 7.5s-3.352 7.5-7.5 7.5a7.492 7.492 0 01-7.5-7.5c0-4.148 3.352-7.5 7.5-7.5zm0 2a5.508 5.508 0 00-5.5 5.5c0 .885.215 1.758.625 2.543l.316.603 7.701-7.703-.601-.316a5.503 5.503 0 00-2.54-.627zm-.002 1h.002c.467 0 .898.19 1.34.332l-5.51 5.51c-.142-.443-.33-.875-.33-1.342a4.492 4.492 0 014.498-4.5zm4.56 1.353l-.48.483-7.22 7.22.6.317c.785.41 1.655.625 2.54.627h.002c3.031 0 5.5-2.469 5.5-5.5-.001-.885-.215-1.759-.625-2.543zm-.388 1.805c.142.442.33.874.33 1.342a4.492 4.492 0 01-4.498 4.5c-.468-.001-.9-.19-1.342-.332z" transform="matrix(.26458 0 0 .26458 1.037 1.037)" color="#000" font-weight="400" font-family="sans-serif" overflow="visible" opacity=".2" filter="url(#c)" enable-background="accumulate"/><path d="M4.233 2.117a2.117 2.117 0 100 4.233 2.117 2.117 0 000-4.233zm0 .793c.213 0 .423.053.611.151L3.061 4.845A1.323 1.323 0 014.233 2.91zm1.173.712a1.323 1.323 0 01-1.783 1.783z" fill="none" stroke="#fff" stroke-width=".52916" stroke-linecap="round"/><path d="M324-172a8 8 0 100 16 8 8 0 000-16zm0 3a5.004 5.004 0 012.309.57l-6.74 6.74A5 5 0 01324-169zm4.432 2.69A5 5 0 01324-159a5.004 5.004 0 01-2.309-.57z" fill="url(#d)" transform="matrix(.26458 0 0 .26458 -81.492 47.625)"/></svg>