<svg xmlns="http://www.w3.org/2000/svg" xmlns:xlink="http://www.w3.org/1999/xlink" viewBox="0 0 24 24"><defs><linearGradient id="a"><stop offset="0" stop-color="#151515"/><stop offset="1" stop-color="#4d4d4d"/></linearGradient><linearGradient xlink:href="#a" id="b" gradientUnits="userSpaceOnUse" x1="11.794" y1="2.035" x2="11.794" y2="23.402" gradientTransform="scale(1.01748 .98282)"/></defs><text transform="scale(1.01748 .98282)" y="17.987" x="5.494" style="line-height:1.25;-inkscape-font-specification:'Ubuntu Mono, Bold';font-variant-ligatures:normal;font-variant-caps:normal;font-variant-numeric:normal;font-feature-settings:normal;text-align:start" font-weight="700" font-size="25.2" font-family="Ubuntu Mono" letter-spacing="0" word-spacing="0" stroke="#fff" stroke-width="2" stroke-linejoin="round"><tspan style="-inkscape-font-specification:'Ubuntu Mono, Bold';font-variant-ligatures:normal;font-variant-caps:normal;font-variant-numeric:normal;font-feature-settings:normal;text-align:start" y="17.987" x="5.494">S</tspan></text><path d="M4 20v1h16v-1H4zm0 2v1h16v-1H4z" stroke="#fff" stroke-width="2" stroke-linejoin="round"/><path style="line-height:1.25;-inkscape-font-specification:'Ubuntu Mono, Bold';font-variant-ligatures:normal;font-variant-caps:normal;font-variant-numeric:normal;font-feature-settings:normal;text-align:start" d="M12.281 2c-1.692 0-3.025.404-4 1.213-.957.809-1.435 1.933-1.435 3.369 0 .727.136 1.337.41 1.832.273.479.615.885 1.025 1.215.428.33.898.602 1.41.816.513.215 1.01.406 1.489.57.359.133.717.28 1.076.446.359.149.684.321.974.52.291.181.531.396.72.644.187.248.28.528.28.842 0 .247-.043.496-.128.744a1.478 1.478 0 01-.41.643c-.206.181-.487.331-.846.447-.342.099-.777.148-1.307.148-.923 0-1.71-.116-2.36-.347a10.731 10.731 0 01-1.64-.743l-.924 2.477c.393.231.983.487 1.77.768.786.264 1.838.396 3.154.396 1.966 0 3.426-.388 4.383-1.164.974-.793 1.463-1.907 1.463-3.344 0-.842-.145-1.535-.436-2.08a4.183 4.183 0 00-1.129-1.387 5.192 5.192 0 00-1.486-.892 27.626 27.626 0 00-1.54-.62 39.775 39.775 0 01-1-.37 6.407 6.407 0 01-.898-.446 3.108 3.108 0 01-.64-.595A1.3 1.3 0 0110 6.309c0-1.173.837-1.758 2.512-1.758.683 0 1.282.083 1.795.248.53.165 1.01.362 1.437.594l.922-2.352c-.496-.264-1.11-.504-1.846-.719C14.102 2.108 13.256 2 12.281 2zM4 20v1h16v-1H4zm0 2v1h16v-1H4z" font-weight="700" font-size="25.2" font-family="Ubuntu Mono" letter-spacing="0" word-spacing="0" fill="url(#b)"/></svg>