<svg xmlns="http://www.w3.org/2000/svg" viewBox="0 0 16 16"><path d="M9.583 2.48c-.988 0-1.913.157-2.78.47a7.003 7.003 0 00-2.265 1.315 6.141 6.141 0 00-1.514 2.021c-.365.784-.547 1.646-.547 2.589 0 .68.114 1.304.343 1.874a4.21 4.21 0 001.01 1.471 4.6 4.6 0 001.599.962c.637.224 1.356.337 2.157.337 1.016 0 1.912-.139 2.685-.418a6.401 6.401 0 002.05-1.2l-.677-.626c-.036-.054-.114-.082-.235-.082-.108 0-.236.057-.387.172a5.25 5.25 0 01-.612.37 5.182 5.182 0 01-.988.38c-.4.109-.906.163-1.514.163-.508 0-.977-.078-1.406-.237a3.3 3.3 0 01-1.116-.7 3.224 3.224 0 01-.718-1.11 4.023 4.023 0 01-.26-1.478c0-.767.13-1.462.387-2.08A4.742 4.742 0 015.87 5.094a4.661 4.661 0 011.61-1.003 5.594 5.594 0 011.997-.354c.35 0 .657.025.922.074.265.044.495.101.688.172a4.06 4.06 0 01.847.453c.108.071.2.13.279.18a.543.543 0 00.484.018.923.923 0 00.183-.124l.643-.6a4.415 4.415 0 00-.72-.591 3.859 3.859 0 00-.869-.453 5.148 5.148 0 00-1.05-.288 7.8 7.8 0 00-1.301-.098z" opacity=".7" stroke="#000" stroke-width="3" stroke-linejoin="round"/><path d="M9.583 2.48c-.988 0-1.913.157-2.78.47a7.003 7.003 0 00-2.265 1.315 6.141 6.141 0 00-1.514 2.021c-.365.784-.547 1.646-.547 2.589 0 .68.114 1.304.343 1.874a4.21 4.21 0 001.01 1.471 4.6 4.6 0 001.599.962c.637.224 1.356.337 2.157.337 1.016 0 1.912-.139 2.685-.418a6.401 6.401 0 002.05-1.2l-.677-.626c-.036-.054-.114-.082-.235-.082-.108 0-.236.057-.387.172a5.25 5.25 0 01-.612.37 5.182 5.182 0 01-.988.38c-.4.109-.906.163-1.514.163-.508 0-.977-.078-1.406-.237a3.3 3.3 0 01-1.116-.7 3.224 3.224 0 01-.718-1.11 4.023 4.023 0 01-.26-1.478c0-.767.13-1.462.387-2.08A4.742 4.742 0 015.87 5.094a4.661 4.661 0 011.61-1.003 5.594 5.594 0 011.997-.354c.35 0 .657.025.922.074.265.044.495.101.688.172a4.06 4.06 0 01.847.453c.108.071.2.13.279.18a.543.543 0 00.484.018.923.923 0 00.183-.124l.643-.6a4.415 4.415 0 00-.72-.591 3.859 3.859 0 00-.869-.453 5.148 5.148 0 00-1.05-.288 7.8 7.8 0 00-1.301-.098z" fill="#fff" stroke="#fff"/></svg>