<svg xmlns="http://www.w3.org/2000/svg" xmlns:xlink="http://www.w3.org/1999/xlink" viewBox="0 0 24 24"><defs><linearGradient gradientTransform="translate(-320.5 -189)" xlink:href="#a" id="d" x1="328" y1="188" x2="336" y2="212" gradientUnits="userSpaceOnUse"/><linearGradient id="a"><stop offset="0" stop-color="#f2f2f2"/><stop offset="1" stop-color="#fff"/></linearGradient><linearGradient xlink:href="#b" id="e" gradientUnits="userSpaceOnUse" gradientTransform="translate(-112 -1032.362)" x1="119" y1="1036.274" x2="119" y2="1052.497"/><linearGradient id="b"><stop offset="0" stop-color="#18a303"/><stop offset="1" stop-color="#106802"/></linearGradient><linearGradient xlink:href="#c" id="f" gradientUnits="userSpaceOnUse" gradientTransform="matrix(1 0 0 1.2 -144 1111.563)" x1="481" y1="-759.638" x2="481" y2="-764.638"/><linearGradient id="c"><stop offset="0" stop-color="#fff" stop-opacity=".588"/><stop offset="1" stop-color="#fff" stop-opacity=".863"/></linearGradient></defs><path style="line-height:normal;font-variant-ligatures:normal;font-variant-position:normal;font-variant-caps:normal;font-variant-numeric:normal;font-variant-alternates:normal;font-feature-settings:normal;text-indent:0;text-align:start;text-decoration-line:none;text-decoration-style:solid;text-decoration-color:#000;text-transform:none;text-orientation:mixed;white-space:normal;shape-padding:0;isolation:auto;mix-blend-mode:normal;solid-color:#000;solid-opacity:1;marker:none" d="M8.865 3c-1.088 0-1.9.031-2.459.125-.549.092-.797.229-.931.363-.135.134-.267.377-.358.924C5.025 4.968 4.995 5.78 5 6.87V17.131c-.005 1.09.025 1.902.117 2.457.091.547.223.79.358.924.134.134.382.27.931.363.559.094 1.37.125 2.46.125h6.269c1.088 0 1.9-.031 2.459-.125.549-.092.797-.229.931-.363.135-.134.267-.377.358-.924.092-.556.122-1.367.117-2.457V6.869c.005-1.09-.025-1.902-.117-2.457-.091-.547-.223-.79-.358-.924-.134-.134-.382-.27-.931-.363-.559-.094-1.37-.125-2.46-.125H12z" color="#000" font-weight="400" font-family="sans-serif" overflow="visible" fill="#106802" stroke="#106802" stroke-width="2"/><path style="line-height:normal;font-variant-ligatures:normal;font-variant-position:normal;font-variant-caps:normal;font-variant-numeric:normal;font-variant-alternates:normal;font-feature-settings:normal;text-indent:0;text-align:start;text-decoration-line:none;text-decoration-style:solid;text-decoration-color:#000;text-transform:none;text-orientation:mixed;white-space:normal;shape-padding:0;isolation:auto;mix-blend-mode:normal;solid-color:#000;solid-opacity:1;marker:none" d="M8.866 3c-1.089 0-1.9.031-2.46.125-.548.092-.796.229-.931.363-.134.134-.266.377-.357.924C5.025 4.968 4.995 5.78 5 6.87V17.131c-.005 1.09.025 1.902.118 2.457.09.547.223.79.357.924.135.134.383.271.932.363.558.094 1.37.125 2.459.125h6.27c1.088 0 1.9-.031 2.456-.125.547-.092.788-.227.922-.361.134-.135.27-.377.362-.926.093-.558.105-1.372.125-2.463V8L12 3z" color="#000" font-weight="400" font-family="sans-serif" overflow="visible" fill="url(#d)"/><path style="marker:none" overflow="visible" fill="#92e285" d="M7 8h10v3H7z"/><path style="marker:none" overflow="visible" fill="#ccf4c6" d="M7 11h10v6H7z"/><path style="marker:none" d="M7 8v9h10-1 1V8H8zm1 1h2v1H8zm3 0h2v1h-2zm3 0h2v1h-2zm-6 2h2v1H8zm3 0h2v1h-2zm3 0h2v1h-2zm-6 2h2v1H8zm3 0h2v1h-2zm3 0h2v1h-2zm-6 2h2v1H8zm3 0h2v1h-2zm3 0h2v1h-2z" overflow="visible" fill="url(#e)"/><path style="marker:none" overflow="visible" fill="gray" d="M11 12h7v7h-7z"/><path style="marker:none" overflow="visible" fill="#ccc" d="M12 13h5v5h-5z"/><path style="marker:none" overflow="visible" fill="url(#f)" d="M337 195h5v5h-5z" transform="translate(-325 -182)"/><path style="marker:none" overflow="visible" fill="#1c99e0" d="M13 15h1v3h-1z"/><path style="marker:none" overflow="visible" fill="#d36118" d="M14 14h1v4h-1z"/><path style="marker:none" overflow="visible" fill="#e9b913" d="M14 16h1v2h-1z"/></svg>