<svg width="32" height="32" xmlns:xlink="http://www.w3.org/1999/xlink" xmlns="http://www.w3.org/2000/svg"><defs><linearGradient id="a"><stop style="stop-color:#f2f2f2;stop-opacity:1" offset="0"/><stop style="stop-color:#fff;stop-opacity:1" offset="1"/></linearGradient><linearGradient gradientTransform="translate(-320 -132)" xlink:href="#a" id="b" x1="340" y1="132" x2="328" y2="164" gradientUnits="userSpaceOnUse"/><linearGradient id="c" x1="0" y1="0" x2="1" y2="0" gradientUnits="userSpaceOnUse" gradientTransform="matrix(0 -8.29 8.29 0 743.808 196.553)"><stop offset="0" style="stop-color:#f0bc6f;stop-opacity:1"/><stop offset="1" style="stop-color:#f9eab5;stop-opacity:1"/></linearGradient><linearGradient id="d" x1="0" y1="0" x2="1" y2="0" gradientUnits="userSpaceOnUse" gradientTransform="matrix(0 -8.85 8.85 0 746.051 200.5)"><stop offset="0" style="stop-color:#f5ce53;stop-opacity:1"/><stop offset="1" style="stop-color:#fde9a9;stop-opacity:1"/></linearGradient></defs><path d="M20.306 3c1.413 0 2.523.035 3.424.186.901.151 1.62.432 2.143.953.522.522.803 1.24.953 2.14.15.902.18 2.01.174 3.427v12.59c.007 1.415-.024 2.523-.174 3.424-.15.902-.43 1.62-.953 2.14-.523.522-1.242.803-2.143.954-.901.151-2.011.186-3.424.186h-8.615c-1.412 0-2.519-.035-3.418-.186-.9-.151-1.616-.431-2.137-.953-.52-.522-.8-1.238-.95-2.139-.152-.9-.186-2.01-.186-3.426V9.704c0-1.416.034-2.525.185-3.426.151-.901.43-1.617.951-2.139.521-.522 1.237-.802 2.137-.953.9-.151 2.006-.186 3.418-.186z" style="color:#000;display:inline;overflow:visible;visibility:visible;fill:#be5e0f;fill-opacity:1;fill-rule:nonzero;stroke:none;stroke-width:1;marker:none;enable-background:accumulate"/><path d="M11.193 5c-1.372 0-2.378.044-3.01.15-.618.104-.762.23-.79.258-.028.028-.15.166-.253.781-.104.63-.147 1.631-.14 3.004V22.81c-.007 1.371.036 2.373.14 3.002.102.615.225.753.252.78.03.03.173.155.791.259.632.106 1.638.15 3.01.15h9.615c1.372 0 2.374-.044 3.004-.15.616-.104.754-.227.781-.254.029-.028.152-.169.256-.787.106-.632.15-1.638.15-3.012V10l-6-5z" style="color:#000;font-style:normal;font-variant:normal;font-weight:400;font-stretch:normal;font-size:medium;line-height:normal;font-family:sans-serif;font-variant-ligatures:normal;font-variant-position:normal;font-variant-caps:normal;font-variant-numeric:normal;font-variant-alternates:normal;font-feature-settings:normal;text-indent:0;text-align:start;text-decoration:none;text-decoration-line:none;text-decoration-style:solid;text-decoration-color:#000;letter-spacing:normal;word-spacing:normal;text-transform:none;writing-mode:lr-tb;direction:ltr;text-orientation:mixed;dominant-baseline:auto;baseline-shift:baseline;text-anchor:start;white-space:normal;shape-padding:0;clip-rule:nonzero;display:inline;overflow:visible;visibility:visible;isolation:auto;mix-blend-mode:normal;color-interpolation:sRGB;color-interpolation-filters:linearRGB;solid-color:#000;solid-opacity:1;vector-effect:none;fill:url(#b);fill-opacity:1;fill-rule:nonzero;stroke:none;stroke-width:5;stroke-linecap:butt;stroke-linejoin:miter;stroke-miterlimit:4;stroke-dasharray:none;stroke-dashoffset:0;stroke-opacity:1;marker:none;color-rendering:auto;image-rendering:auto;shape-rendering:auto;text-rendering:auto;enable-background:accumulate"/><g style="clip-rule:evenodd;display:inline;fill-rule:evenodd;enable-background:new"><path d="M744.992 197.5a4.5 4.5 0 1 0 0-9 4.5 4.5 0 0 0 0 9z" style="fill:url(#c);fill-rule:nonzero;stroke:#cb851d;stroke-width:1px" transform="translate(-729.993 -177)"/></g><g style="clip-rule:evenodd;display:inline;fill-rule:evenodd;enable-background:new"><path d="M744.991 196a3 3 0 1 0 0-6 3 3 0 0 0 0 6z" style="fill:#f0c46f;fill-opacity:.6;fill-rule:nonzero" transform="translate(-729.993 -177)"/></g><g style="clip-rule:evenodd;display:inline;fill-rule:evenodd;enable-background:new"><path d="M751.492 200.5h-11l5-9z" style="fill:url(#d);fill-rule:nonzero;stroke:#c99c00;stroke-width:1px;stroke-linecap:round;stroke-linejoin:round" transform="translate(-729.993 -177)"/></g><g style="clip-rule:evenodd;display:inline;fill-rule:evenodd;enable-background:new"><path d="M748.992 199h-6l2.5-5z" style="fill:#f5ce53;fill-opacity:.6;fill-rule:nonzero" transform="translate(-729.993 -177)"/></g></svg>