<svg xmlns="http://www.w3.org/2000/svg" xmlns:xlink="http://www.w3.org/1999/xlink" viewBox="0 0 48 48"><defs><linearGradient xlink:href="#a" id="g" x1="344" y1="62" x2="344" y2="106" gradientUnits="userSpaceOnUse"/><linearGradient id="a"><stop offset="0" stop-color="#fff"/><stop offset=".125" stop-color="#fff" stop-opacity=".098"/><stop offset=".925" stop-color="#fff" stop-opacity=".098"/><stop offset="1" stop-color="#fff" stop-opacity=".498"/></linearGradient><linearGradient gradientTransform="translate(-306.05 -63.692)" xlink:href="#b" id="e" x1="352.772" y1="106.5" x2="335.232" y2="61.5" gradientUnits="userSpaceOnUse"/><linearGradient id="b"><stop offset="0" stop-color="#626262"/><stop offset="1" stop-color="#4e4e4e"/></linearGradient><linearGradient gradientTransform="translate(-306.05 -63.692)" xlink:href="#c" id="d" x1="335.731" y1="62" x2="352.27" y2="106" gradientUnits="userSpaceOnUse"/><linearGradient id="c"><stop offset="0" stop-color="#f2f2f2"/><stop offset="1" stop-color="#fff"/></linearGradient><clipPath clipPathUnits="userSpaceOnUse" id="f"><path style="marker:none" d="M335.731 62c-8.824 0-9.774.906-9.73 9.748v24.504c-.044 8.842.906 9.748 9.73 9.748h16.54c8.823 0 9.73-.906 9.73-9.748V71.748c0-8.842-.907-9.748-9.73-9.748z" color="#000" overflow="visible" fill="#cdcdcd" stroke-width="2"/></clipPath></defs><path d="M33.418.935c-.132 0-.256.013-.367.03l-.078.011-.076.024c-.876.279-1.394 1.032-1.564 1.793a2.406 2.406 0 00.513 2.05l-.363-.363-.01-.008-.002-.003-.002.003a30.644 30.644 0 00-.834-.767h-.002l-.002-.004-.002-.002-.006-.002c-.271-.238-.54-.461-.81-.67l-.007-.004-.006-.004c-.269-.208-.542-.406-.826-.588h-.002l-.002-.002-.004-.002a8.925 8.925 0 00-.857-.488l-.006-.002a8.021 8.021 0 00-.924-.387l-.004-.002h-.004a8.233 8.233 0 00-.994-.275h-.01a9.592 9.592 0 00-1.07-.162h-.002c-.377-.035-.77-.05-1.178-.05H15.647c-4.151 0-6.865.144-8.652 1.831-.894.844-1.42 2.015-1.713 3.465-.292 1.45-.376 2.716-.365 4.957v25.498c-.01 2.237.073 4.003.365 5.451.293 1.45.82 2.62 1.713 3.465.22.208.464.399.727.566l.004.002.006.004.011.004c.25.158.514.298.797.418l.006.002.004.004h.002l.012.004c.286.12.587.227.906.315h.004c.317.087.652.162 1.006.222h.008c.352.06.717.107 1.102.145h.006c.384.038.787.068 1.212.09h.012l.004.002h.073c.836.04 3.763.056 2.754.056H32.69c4.123 0 6.316-.141 8.102-1.802.893-.83 1.424-1.985 1.724-3.41.3-1.426.397-3.162.403-5.36V18.08c-.01-1.902-1.19-3.39-2.323-4.541a25.342 25.342 0 00-1.11-1.05l-.284-.259h.027l-.012-.011h-.002l-.05-.051c.72.562 1.64.613 2.365.318.78-.317 1.502-1.045 1.54-2.06V8.769c.009-1.627.037-2.867-.027-3.875-.063-1.009-.205-1.85-.736-2.546-.53-.697-1.362-1.03-2.285-1.182-.923-.152-2.035-.18-3.523-.213H33.64c-.073-.007-.144-.017-.221-.017zM8.846 44.812l.002.002-.068.006.066-.008zm-.03 1.984l.064.006c-.027 0-.059-.004-.059-.004z" style="line-height:normal;font-variant-ligatures:normal;font-variant-position:normal;font-variant-caps:normal;font-variant-numeric:normal;font-variant-alternates:normal;font-feature-settings:normal;text-indent:0;text-align:start;text-decoration-line:none;text-decoration-style:solid;text-decoration-color:#000;text-transform:none;text-orientation:mixed;white-space:normal;shape-padding:0;isolation:auto;mix-blend-mode:normal;solid-color:#000;solid-opacity:1;marker:none" color="#000" font-weight="400" font-family="sans-serif" overflow="visible" opacity=".1"/><path d="M29.45-1.133c-2.568.197-5.596-.25-7.715 1.502-1.613 2.601-1.033 5.9-1.258 8.81-.057 9.222-.242 18.47.2 27.664.089 2.15 1.245 4.537 3.673 4.66 6.741.44 13.596.162 20.383.192 2.879-.177 5.862.254 8.633-.705 2.294-1.502 1.652-4.594 1.875-6.93.017-6.806.317-13.702-.035-20.53-.808-1.843-2.645-3.111-3.915-4.638-3.222-3.096-6.137-6.593-9.78-9.205-2.23-1.378-4.998-.516-7.49-.803a203.055 203.055 0 00-4.571-.017z" style="marker:none" color="#000" overflow="visible" fill="url(#d)" transform="translate(-14.034 3.254)"/><path d="M47.45-2.317c-.074 0-.148.007-.221.018-.94.3-1.26 1.724-.535 2.394l7.514 7.514c.786.746 2.353.109 2.394-.975V4.517c.034-6.557.342-6.682-5.596-6.816h-3.334a1.469 1.469 0 00-.222-.018zm-18.27.125c-8.231 0-9.774.906-9.73 9.748V33.06c-.044 8.842 1.499 9.748 9.73 9.748h17.54c8.172 0 9.705-.902 9.726-9.574V14.33c-.01-1.956-1.718-3.607-3.102-4.854l-.011-.01-8.518-8.52c-2.245-2.12-3.796-3.138-6.867-3.138zm11.27 3.5l12.5 12.5v22.5s-.167 1.833-.667 2.333c-.5.5-2.333.667-2.333.667h-24s-1.834-.167-2.334-.667-.666-2.333-.666-2.333v-32s.166-1.833.666-2.333c.5-.5 2.334-.667 2.334-.667z" style="marker:none" color="#000" overflow="visible" fill="url(#e)" transform="translate(-14.034 3.254)"/><path d="M5.418 23.562v12.752c-.044 8.842 1.499 9.748 9.73 9.748h17.54c8.172 0 9.705-.902 9.726-9.574V23.562z" style="marker:none" color="#000" overflow="visible" opacity=".1" fill="#fff"/><path d="M15.148 1.062c-4.116 0-6.56.227-7.969 1.559a3.991 3.991 0 00-.728.973c-.047.084-.102.156-.145.246v.002a6.011 6.011 0 00-.308.789c-.09.285-.17.593-.236.926a13.66 13.66 0 00-.168 1.07 27.494 27.494 0 00-.165 2.617 58.17 58.17 0 00-.011 1.566v25.504c-.003.553 0 1.074.011 1.567.022.984.073 1.853.165 2.617.045.382.1.738.168 1.07.133.664.312 1.232.544 1.717.233.485.521.886.873 1.219.177.166.369.315.579.449.419.267.908.472 1.476.629h.002c1.422.391 3.341.48 5.912.48h17.54c1.02 0 1.939-.015 2.763-.056.341-.017.655-.043.965-.07.064-.007.138-.008.201-.014h.004c.731-.073 1.375-.18 1.94-.334.282-.077.546-.165.79-.268.245-.102.471-.22.68-.351.21-.132.4-.278.576-.442.156-.145.296-.308.428-.48.017-.023.038-.04.055-.063 0-.002.003-.004.004-.006a4.43 4.43 0 00.388-.65c.118-.238.221-.497.313-.777a8.65 8.65 0 00.24-.909c.069-.326.126-.675.174-1.05.043-.335.075-.697.104-1.073.003-.045.01-.085.013-.13v-.02c.06-.85.086-1.805.088-2.881V17.584c-.009-1.955-1.718-3.607-3.101-4.854l-.012-.01-8.518-8.519c-2.245-2.122-3.796-3.139-6.867-3.139zM33.415.938a1.48 1.48 0 00-.22.018c-.941.3-1.26 1.723-.535 2.393l7.514 7.515c.786.746 2.353.108 2.394-.975V7.771c.034-6.557.343-6.68-5.595-6.815h-3.335a1.474 1.474 0 00-.223-.018z" style="marker:none" color="#000" overflow="visible" opacity=".4" fill="none" stroke="#000"/><path d="M335.232 61.5c-8.231 0-9.773.906-9.73 9.748v25.504c-.043 8.842 1.499 9.748 9.73 9.748h17.54c8.172 0 9.705-.902 9.726-9.574V79.022c-.006-1.214-.666-2.31-1.498-3.266V96.252c0 2.193-.061 3.87-.266 5.088-.204 1.217-.528 1.924-.998 2.394-.469.47-1.174.796-2.388 1-1.215.205-2.89.266-5.078.266h-16.54c-2.188 0-3.865-.061-5.084-.266-1.218-.204-1.928-.53-2.4-1s-.796-1.176-.998-2.392c-.202-1.216-.259-2.894-.248-5.086V71.744c-.01-2.192.046-3.87.248-5.086.202-1.216.526-1.922.998-2.392s1.184-.796 2.402-1c1.219-.205 2.894-.266 5.082-.266H348c-1.402-1.001-3.799-1.5-5.922-1.5z" clip-path="url(#f)" style="line-height:normal;font-variant-ligatures:normal;font-variant-position:normal;font-variant-caps:normal;font-variant-numeric:normal;font-variant-alternates:normal;font-feature-settings:normal;text-indent:0;text-align:start;text-decoration-line:none;text-decoration-style:solid;text-decoration-color:#000;text-transform:none;text-orientation:mixed;white-space:normal;shape-padding:0;isolation:auto;mix-blend-mode:normal;solid-color:#000;solid-opacity:1;marker:none" transform="translate(-320.084 -60.438)" color="#000" font-weight="400" font-family="sans-serif" overflow="visible" opacity=".3" fill="url(#g)"/><path d="M33.271 1.44l-.144.12c-.289.243-.433.749-.319 1.112.007.021.07.093.116.15a.918.918 0 01.203-.262l.144-.12 2.719.025c2.707.025 3.51.06 4.266.185 1.366.228 1.678.658 1.79 2.475.025.394.032 1.553.036 2.637.007-1.467 0-3.081-.035-3.637-.113-1.817-.425-2.247-1.791-2.475-.757-.126-1.559-.16-4.266-.185z" opacity=".3" fill="#fff"/></svg>