<svg xmlns="http://www.w3.org/2000/svg" xmlns:xlink="http://www.w3.org/1999/xlink" viewBox="0 0 16 16"><defs><linearGradient xlink:href="#a" id="k" x1="328" y1="237" x2="328" y2="251" gradientUnits="userSpaceOnUse"/><linearGradient id="a"><stop offset="0" stop-color="#fff"/><stop offset=".125" stop-color="#fff" stop-opacity=".098"/><stop offset=".925" stop-color="#fff" stop-opacity=".098"/><stop offset="1" stop-color="#fff" stop-opacity=".498"/></linearGradient><linearGradient xlink:href="#b" id="h" gradientUnits="userSpaceOnUse" gradientTransform="translate(132.501 -780.362)" x1="195.75" y1="1016.237" x2="195.75" y2="1032.238"/><linearGradient id="b"><stop offset="0" stop-color="#666"/><stop offset="1" stop-color="#333"/></linearGradient><linearGradient xlink:href="#b" id="i" gradientUnits="userSpaceOnUse" gradientTransform="matrix(-1 0 0 1 527.001 -780.362)" x1="195.75" y1="1016.237" x2="195.75" y2="1032.238"/><linearGradient xlink:href="#b" id="g" gradientUnits="userSpaceOnUse" gradientTransform="translate(-164.651 -1016.023)" x1="195.75" y1="1016.237" x2="195.75" y2="1032.238"/><linearGradient gradientTransform="translate(-297.152 -235.661)" xlink:href="#c" id="f" x1="332" y1="236" x2="324" y2="252" gradientUnits="userSpaceOnUse"/><linearGradient id="c"><stop offset="0" stop-color="#f2f2f2"/><stop offset="1" stop-color="#fff"/></linearGradient><linearGradient xlink:href="#d" id="e" gradientUnits="userSpaceOnUse" gradientTransform="matrix(0 -.03604 -.03604 0 42.412 17.248)" x1="39.094" y1="240.269" x2="455.251" y2="401.58"/><linearGradient id="d"><stop offset="0" stop-color="#626262"/><stop offset="1" stop-color="#4c4c4c"/></linearGradient><clipPath clipPathUnits="userSpaceOnUse" id="j"><path d="M325.096 237c-2.807 0-3.11.288-3.096 3.102v7.796c-.013 2.814.289 3.102 3.096 3.102h5.808c2.808 0 3.096-.288 3.096-3.102v-7.796c0-2.814-.288-3.102-3.096-3.102z" style="marker:none" color="#000" overflow="visible" fill="#46a926" stroke-width="2"/></clipPath></defs><path d="M5.096 1c-.72 0-1.302.014-1.836.104s-1.069.276-1.477.683c-.408.407-.596.943-.685 1.479C1.008 3.8.996 4.386 1 5.107v6.791c-.003.719.009 1.303.098 1.836.089.536.277 1.072.685 1.479.408.407.943.594 1.477.683.534.09 1.117.104 1.836.104h5.808c.72 0 1.3-.014 1.834-.104s1.068-.277 1.475-.685c.407-.408.594-.943.684-1.477.09-.533.103-1.115.103-1.836V5.102c0-.72-.014-1.303-.103-1.836-.09-.534-.277-1.07-.684-1.477-.407-.408-.941-.596-1.475-.685-.533-.09-1.115-.104-1.834-.104z" style="line-height:normal;font-variant-ligatures:normal;font-variant-position:normal;font-variant-caps:normal;font-variant-numeric:normal;font-variant-alternates:normal;font-feature-settings:normal;text-indent:0;text-align:start;text-decoration-line:none;text-decoration-style:solid;text-decoration-color:#000;text-transform:none;text-orientation:mixed;white-space:normal;shape-padding:0;isolation:auto;mix-blend-mode:normal;solid-color:#000;solid-opacity:1;marker:none" color="#000" font-weight="400" font-family="sans-serif" overflow="visible" opacity=".1"/><path d="M33.752.839c.71 0 1.273.015 1.752.096.478.08.896.237 1.207.547.31.31.467.726.547 1.205.08.479.093 1.043.09 1.756V12.237c.002.712-.01 1.276-.09 1.754-.08.48-.237.896-.547 1.205-.31.31-.729.467-1.207.547-.479.08-1.042.096-1.752.096h-5.809c-.71 0-1.272-.015-1.75-.096-.477-.08-.896-.237-1.205-.547-.31-.31-.465-.726-.545-1.205-.08-.478-.095-1.042-.095-1.754V4.441c0-.712.015-1.276.095-1.754.08-.479.236-.896.545-1.205.31-.31.728-.467 1.205-.547.478-.08 1.04-.096 1.75-.096z" style="marker:none" color="#000" overflow="visible" fill="url(#e)" transform="translate(-22.847 -.339)"/><path d="M27.944 2.339c-.69 0-1.184.02-1.504.074-.305.051-.384.118-.397.131-.013.013-.074.086-.125.389-.053.318-.073.812-.07 1.502v7.808c-.003.69.018 1.185.07 1.502.05.304.112.376.125.389.013.013.092.08.397.13.32.055.815.075 1.504.075h5.808c.69 0 1.184-.02 1.502-.074.305-.051.38-.119.39-.129.012-.011.078-.086.13-.393.053-.32.074-.815.074-1.505V5.339l-3-3z" style="line-height:normal;font-variant-ligatures:normal;font-variant-position:normal;font-variant-caps:normal;font-variant-numeric:normal;font-variant-alternates:normal;font-feature-settings:normal;text-indent:0;text-align:start;text-decoration-line:none;text-decoration-style:solid;text-decoration-color:#000;text-transform:none;text-orientation:mixed;white-space:normal;shape-padding:0;isolation:auto;mix-blend-mode:normal;solid-color:#000;solid-opacity:1;marker:none" color="#000" font-weight="400" font-family="sans-serif" overflow="visible" fill="url(#f)" transform="translate(-22.847 -.339)"/><path d="M2 8v3.898C1.988 14.712 2.29 15 5.097 15h5.809C13.713 15 14 14.712 14 11.898V8z" style="marker:none" color="#000" overflow="visible" opacity=".1" fill="#fff"/><path d="M33.847 9.34l-3 3" fill="none" stroke="url(#g)" stroke-linecap="square" stroke-linejoin="round" transform="translate(-22.847 -.339)"/><g fill="none" stroke-linecap="square" stroke-linejoin="round"><path d="M331.5 243v-.5h-5l-1 6-.25-3h-.75" stroke="url(#h)" transform="translate(-320 -236)"/><path d="M328 245l3 3" stroke="url(#i)" transform="translate(-320 -236)"/></g><path style="marker:none" d="M5.096.5c-.71 0-1.273.015-1.752.096-.478.08-.896.237-1.207.547-.31.31-.467.726-.547 1.205-.08.479-.093 1.043-.09 1.756V11.898c-.002.712.01 1.276.09 1.754.08.48.237.896.547 1.205.31.31.729.467 1.207.547.479.08 1.042.096 1.752.096h5.809c.71 0 1.272-.015 1.75-.096.477-.08.896-.237 1.205-.547.31-.31.465-.726.545-1.205.08-.478.096-1.042.096-1.754V4.102c0-.712-.016-1.276-.096-1.754-.08-.479-.236-.896-.545-1.205-.31-.31-.728-.467-1.205-.547-.478-.08-1.04-.096-1.75-.096z" color="#000" overflow="visible" opacity=".3" fill="none" stroke="#000"/><path clip-path="url(#j)" d="M325.096 237c-2.807 0-3.11.288-3.096 3.102v7.796c-.013 2.814.289 3.102 3.096 3.102h5.808c2.808 0 3.096-.288 3.096-3.102v-7.796c0-2.814-.288-3.102-3.096-3.102z" style="marker:none" transform="translate(-320 -236)" color="#000" overflow="visible" opacity=".3" fill="none" stroke="url(#k)" stroke-width="2"/></svg>