<svg xmlns="http://www.w3.org/2000/svg" xmlns:xlink="http://www.w3.org/1999/xlink" height="32" width="32"><defs><linearGradient xlink:href="#a" id="m" x1="336" y1="134" x2="336" y2="162" gradientUnits="userSpaceOnUse"/><linearGradient id="a"><stop offset="0" stop-color="#fff"/><stop offset=".125" stop-color="#fff" stop-opacity=".098"/><stop offset=".925" stop-color="#fff" stop-opacity=".098"/><stop offset="1" stop-color="#fff" stop-opacity=".498"/></linearGradient><linearGradient xlink:href="#b" id="g" gradientUnits="userSpaceOnUse" x1="3618.438" y1="-758.638" x2="3618.438" y2="-772.638" gradientTransform="translate(-.001)"/><linearGradient id="b"><stop offset="0" stop-color="#fff" stop-opacity=".588"/><stop offset="1" stop-color="#fff" stop-opacity=".863"/></linearGradient><linearGradient xlink:href="#c" id="h" gradientUnits="userSpaceOnUse" x1="3716.162" y1="683.977" x2="3716.162" y2="705.131"/><linearGradient id="c"><stop offset="0" stop-color="#666"/><stop offset="1" stop-color="#333"/></linearGradient><linearGradient xlink:href="#c" id="i" gradientUnits="userSpaceOnUse" x1="3716.162" y1="685.14" x2="3716.162" y2="706.417"/><linearGradient xlink:href="#c" id="j" gradientUnits="userSpaceOnUse" gradientTransform="translate(3426.5 -1791)" x1="195.75" y1="1006.37" x2="195.75" y2="1038.364"/><linearGradient xlink:href="#c" id="k" gradientUnits="userSpaceOnUse" gradientTransform="matrix(-1 0 0 1 3821.5 -1791.5)" x1="195.75" y1="1006.806" x2="195.75" y2="1038.862"/><linearGradient gradientTransform="translate(-314.44 -128.746)" xlink:href="#d" id="f" x1="340" y1="132" x2="328" y2="164" gradientUnits="userSpaceOnUse"/><linearGradient id="d"><stop offset="0" stop-color="#f2f2f2"/><stop offset="1" stop-color="#f9f9f9"/></linearGradient><linearGradient xlink:href="#c" id="e" gradientUnits="userSpaceOnUse" gradientTransform="matrix(0 -.07209 -.07209 0 44.688 37.072)" x1="459.034" y1="419.233" x2="35.31" y2="207.365"/><clipPath clipPathUnits="userSpaceOnUse" id="l"><path style="marker:none" d="M330.193 134c-5.615 0-6.22.577-6.192 6.204v15.592c-.028 5.627.577 6.204 6.192 6.204h11.615c5.615 0 6.192-.577 6.192-6.204v-15.592c0-5.627-.577-6.204-6.192-6.204z" color="#000" overflow="visible" fill="#46a926" stroke-width="2"/></clipPath></defs><path d="M27.366 4.754c1.412 0 2.522.034 3.423.186.902.151 1.62.431 2.143.953.523.521.803 1.239.953 2.14.15.902.18 2.01.174 3.426V27.051c.007 1.415-.024 2.523-.174 3.424-.15.902-.43 1.62-.953 2.14-.523.522-1.241.802-2.143.954-.901.151-2.011.185-3.423.185H15.75c-1.412 0-2.518-.034-3.418-.185-.9-.152-1.616-.432-2.136-.953-.521-.522-.8-1.238-.952-2.14-.15-.9-.185-2.01-.185-3.425V11.457c0-1.415.034-2.524.185-3.425.152-.901.43-1.617.952-2.14.52-.52 1.237-.8 2.136-.952.9-.152 2.006-.186 3.418-.186z" style="marker:none" color="#000" overflow="visible" fill="url(#e)" transform="translate(-5.56 -3.254)"/><path d="M15.753 7.254c-1.372 0-2.378.045-3.01.15-.618.104-.762.23-.79.258-.028.028-.15.166-.253.782-.104.63-.147 1.63-.14 3.004v15.615c-.007 1.372.036 2.373.14 3.002.103.616.225.754.252.781.03.03.173.154.791.258.632.106 1.638.15 3.01.15h11.615c1.372 0 2.375-.044 3.004-.15.616-.104.755-.227.782-.254.028-.028.152-.168.255-.787.106-.632.15-1.637.15-3.012V13.254l-6-6z" style="line-height:normal;font-variant-ligatures:normal;font-variant-position:normal;font-variant-caps:normal;font-variant-numeric:normal;font-variant-alternates:normal;font-feature-settings:normal;text-indent:0;text-align:start;text-decoration-line:none;text-decoration-style:solid;text-decoration-color:#000;text-transform:none;text-orientation:mixed;white-space:normal;shape-padding:0;isolation:auto;mix-blend-mode:normal;solid-color:#000;solid-opacity:1;marker:none" color="#000" font-weight="400" font-family="sans-serif" overflow="visible" fill="url(#f)" transform="translate(-5.56 -3.254)"/><path style="marker:none" overflow="visible" fill="url(#g)" d="M3613.999-772.638h16v14h-16z" transform="translate(-3605.998 783.638)"/><path style="marker:none" overflow="visible" fill="#f09e6f" d="M8 24h16v1H8zM8 11h16v1H8z"/><path style="marker:none" overflow="visible" fill="#f09e6f" d="M9 11v14H8V11zM24 11v14h-1V11z"/><path d="M3721.065 694.45v1.33h-.665v-.6h-3.657l-1.396 5.918h-.93l-1.33-3.324h-.665v-.665h1.33l1.063 2.66 1.264-5.32" font-family="Symbol" fill="url(#i)" transform="translate(-5574.898 -1031.532) scale(1.50411)" font-weight="400" font-size="8"/><path d="M3626.999-766.138l-5 5" fill="none" stroke="url(#j)" stroke-width="1.3" stroke-linecap="round" stroke-linejoin="round" transform="translate(-3605.998 783.638)"/><path d="M3621.999-766.138l5 5" fill="none" stroke="url(#k)" stroke-width="1.3" stroke-linecap="round" stroke-linejoin="round" transform="translate(-3605.998 783.638)"/><path style="marker:none" d="M10.194 1.5c-1.413 0-2.523.034-3.424.186-.901.15-1.62.431-2.143.953-.522.521-.803 1.239-.953 2.14-.15.902-.18 2.01-.174 3.426V23.797c-.007 1.414.024 2.523.174 3.424.15.901.43 1.619.953 2.14.523.522 1.242.802 2.143.953.901.152 2.011.186 3.424.186h11.615c1.412 0 2.519-.034 3.418-.186.9-.15 1.616-.431 2.137-.953.52-.521.8-1.237.95-2.138.152-.901.186-2.01.186-3.426V8.203c0-1.415-.034-2.525-.185-3.426-.151-.9-.43-1.617-.951-2.138-.521-.522-1.237-.802-2.137-.953-.9-.152-2.006-.186-3.418-.186z" color="#000" overflow="visible" opacity=".3" fill="none" stroke="#000"/><path clip-path="url(#l)" style="marker:none" d="M330.193 134c-5.615 0-6.22.577-6.192 6.204v15.592c-.028 5.627.577 6.204 6.192 6.204h11.615c5.615 0 6.192-.577 6.192-6.204v-15.592c0-5.627-.577-6.204-6.192-6.204z" transform="translate(-320 -132)" color="#000" overflow="visible" opacity=".2" fill="none" stroke="url(#m)" stroke-width="2"/></svg>