<svg xmlns="http://www.w3.org/2000/svg" xmlns:xlink="http://www.w3.org/1999/xlink" viewBox="0 0 48 48"><defs><linearGradient xlink:href="#a" id="j" gradientUnits="userSpaceOnUse" x1="1180.158" y1="688.526" x2="1180.158" y2="658.132"/><linearGradient id="a"><stop offset="0" stop-color="#f09e6f"/><stop offset="1" stop-color="#f9cfb5"/></linearGradient><linearGradient xlink:href="#b" id="k" gradientUnits="userSpaceOnUse" gradientTransform="translate(650.25 1242.2) scale(.34375)" x1="1057" y1="-1073.638" x2="1057" y2="-1121.669"/><linearGradient id="b"><stop offset="0" stop-color="#c99c00"/><stop offset="1" stop-color="#876900"/></linearGradient><linearGradient xlink:href="#c" id="l" gradientUnits="userSpaceOnUse" gradientTransform="matrix(.99041 0 0 .93163 -143.859 -1696.68)" x1="1162.591" y1="901.155" x2="1162.591" y2="887.434"/><linearGradient id="c"><stop offset="0" stop-color="#f5ce53"/><stop offset="1" stop-color="#fde9a9"/></linearGradient><linearGradient gradientTransform="translate(-341.965 -60.61)" xlink:href="#d" id="i" x1="344" y1="61" x2="344" y2="107" gradientUnits="userSpaceOnUse"/><linearGradient id="d"><stop offset="0" stop-color="#fff"/><stop offset=".125" stop-color="#fff" stop-opacity=".098"/><stop offset=".925" stop-color="#fff" stop-opacity=".098"/><stop offset="1" stop-opacity=".498"/></linearGradient><linearGradient gradientTransform="translate(-341.966 -60.61)" xlink:href="#e" id="h" x1="352" y1="60" x2="332" y2="108" gradientUnits="userSpaceOnUse"/><linearGradient id="e"><stop offset="0" stop-color="#f2f2f2"/><stop offset="1" stop-color="#fff"/></linearGradient><linearGradient xlink:href="#f" id="g" gradientUnits="userSpaceOnUse" gradientTransform="matrix(0 -.11328 -.11328 0 37.522 51.39)" x1="512" y1="397.994" x2="0" y2="125.994"/><linearGradient id="f"><stop offset="0" stop-color="#d98027"/><stop offset="1" stop-color="#be5e0f"/></linearGradient></defs><path d="M-6.236.39c-2.222 0-3.974.053-5.414.295-1.44.242-2.618.695-3.482 1.556-.864.862-1.32 2.037-1.559 3.479-.239 1.44-.286 3.193-.275 5.422v24.5c-.01 2.226.036 3.98.275 5.418.24 1.441.695 2.616 1.559 3.478.864.862 2.041 1.315 3.482 1.557 1.44.242 3.192.295 5.414.295h16.54c2.222 0 3.971-.053 5.408-.295 1.438-.242 2.613-.694 3.474-1.557.861-.862 1.313-2.038 1.555-3.478.241-1.44.293-3.191.293-5.418V11.138c0-2.227-.052-3.98-.293-5.418-.242-1.44-.694-2.616-1.555-3.479-.86-.862-2.036-1.314-3.474-1.556C14.275.443 12.526.39 10.303.39z" style="marker:none" color="#000" overflow="visible" fill="url(#g)" transform="translate(21.966 .61)"/><path d="M-6.236 3.39c-2.173 0-3.805.065-4.918.252-1.103.185-1.585.45-1.859.722-.273.273-.534.748-.717 1.848-.184 1.11-.247 2.74-.236 4.916v24.526c-.01 2.174.052 3.805.236 4.914.183 1.1.444 1.575.717 1.847.274.273.756.538 1.86.723 1.112.187 2.744.252 4.917.252h16.54c2.173 0 3.804-.066 4.912-.252 1.1-.185 1.577-.449 1.847-.719.272-.272.536-.753.72-1.855.187-1.11.25-2.743.25-4.922V13.39l-10-10z" style="line-height:normal;font-variant-ligatures:normal;font-variant-position:normal;font-variant-caps:normal;font-variant-numeric:normal;font-variant-alternates:normal;font-feature-settings:normal;text-indent:0;text-align:start;text-decoration-line:none;text-decoration-style:solid;text-decoration-color:#000;text-transform:none;text-orientation:mixed;white-space:normal;shape-padding:0;isolation:auto;mix-blend-mode:normal;solid-color:#000;solid-opacity:1;marker:none" color="#000" font-weight="400" font-family="sans-serif" overflow="visible" fill="url(#h)" transform="translate(21.966 .61)"/><path style="marker:none" d="M-6.234.89c-2.215 0-3.947.054-5.332.287-1.385.232-2.446.654-3.211 1.418-.766.764-1.188 1.822-1.418 3.207-.23 1.385-.28 3.118-.27 5.338V35.642c-.01 2.218.04 3.952.27 5.336.23 1.384.652 2.443 1.418 3.207.765.763 1.826 1.185 3.21 1.418 1.386.232 3.118.287 5.333.287h16.539c2.214 0 3.944-.055 5.326-.287 1.382-.233 2.44-.654 3.203-1.418.763-.764 1.184-1.823 1.416-3.207.232-1.384.285-3.117.285-5.336V11.138c0-2.22-.053-3.952-.285-5.336-.232-1.384-.653-2.443-1.416-3.207-.762-.764-1.821-1.186-3.203-1.418C14.249.944 12.519.89 10.305.89z" color="#000" overflow="visible" opacity=".3" fill="none" stroke="url(#i)" transform="translate(21.966 .61)"/><g transform="translate(-986 891.636)"><circle transform="translate(502.985 -1156.71) scale(.42424)" style="marker:none" cx="1184.5" cy="675.5" r="16.5" overflow="visible" fill="url(#j)" stroke="#a33e03" stroke-width="2.357"/><circle style="marker:none" transform="matrix(.33333 0 0 .33333 610.667 -1095.3)" cx="1184.5" cy="675.5" r="16.5" overflow="visible" opacity=".7" fill="#f09e6f"/><path transform="scale(1 -1)" style="marker:none" overflow="visible" fill="url(#k)" stroke="#876900" stroke-linecap="round" stroke-linejoin="round" d="M1010.5 862.138h11v11h-11z"/><path style="marker:none" overflow="visible" opacity=".7" fill="#c99c00" d="M1012-871.638h8v8h-8z"/><path style="marker:none" d="M1015.5-857.138h-16l8-13z" overflow="visible" fill="url(#l)" stroke="#c99c00" stroke-linecap="round" stroke-linejoin="round"/><path style="marker:none" overflow="visible" opacity=".75" fill="#92e285" stroke="#18a303" d="M998.5-858.138h2v2h-2z"/><path style="marker:none" d="M1013.33-858.138h-11.66l5.83-9.5z" overflow="visible" opacity=".7" fill="#f5ce53"/><path style="marker:none" overflow="visible" opacity=".75" fill="#92e285" stroke="#18a303" d="M1014.5-858.138h2v2h-2zM1006.5-871.138h2v2h-2z"/><path style="marker:none" d="M1012.43-862.138h9.07v-11h-11l.07 8z" overflow="visible" fill="none" stroke="#876900" stroke-linecap="round" stroke-linejoin="round"/></g><path d="M6 24v12.252C5.957 45.094 6.906 46 15.73 46h16.54c8.824 0 9.73-.906 9.73-9.748V24z" style="marker:none" color="#000" overflow="visible" opacity=".1" fill="#fff"/><path d="M24 2v44h8.27c8.824 0 9.73-.906 9.73-9.748V11.748C42 2.906 41.094 2 32.27 2z" style="marker:none" color="#000" overflow="visible" opacity=".1" fill="#fff"/></svg>