<svg xmlns="http://www.w3.org/2000/svg" xmlns:xlink="http://www.w3.org/1999/xlink" viewBox="0 0 32 32"><defs><linearGradient xlink:href="#a" id="z" x1="336" y1="134" x2="336" y2="162" gradientUnits="userSpaceOnUse"/><linearGradient id="a"><stop offset="0" stop-color="#fff"/><stop offset=".125" stop-color="#fff" stop-opacity=".098"/><stop offset=".925" stop-color="#fff" stop-opacity=".098"/><stop offset="1" stop-color="#fff" stop-opacity=".498"/></linearGradient><linearGradient xlink:href="#b" id="l" gradientUnits="userSpaceOnUse" gradientTransform="matrix(.66668 0 0 3 42.332 -1964.72)" x1="117.719" y1="982.362" x2="117.719" y2="984.72"/><linearGradient id="b"><stop offset="0" stop-color="#0369a3"/><stop offset="1" stop-color="#023f62"/></linearGradient><linearGradient xlink:href="#b" id="m" gradientUnits="userSpaceOnUse" gradientTransform="matrix(.77768 0 0 3 30.234 -1963.72)" x1="117.719" y1="982.362" x2="117.719" y2="984.72"/><linearGradient xlink:href="#b" id="n" gradientUnits="userSpaceOnUse" gradientTransform="matrix(.58326 0 0 3 51.425 -1965.72)" x1="117.719" y1="982.362" x2="117.719" y2="984.72"/><linearGradient xlink:href="#b" id="o" gradientUnits="userSpaceOnUse" gradientTransform="matrix(.55544 0 0 3 54.457 -1965.72)" x1="117.719" y1="982.362" x2="117.719" y2="984.72"/><linearGradient xlink:href="#b" id="p" gradientUnits="userSpaceOnUse" gradientTransform="matrix(.77768 0 0 3 39.234 -1963.72)" x1="117.719" y1="982.362" x2="117.719" y2="984.72"/><linearGradient xlink:href="#b" id="q" gradientUnits="userSpaceOnUse" gradientTransform="matrix(.58326 0 0 3 60.426 -1965.72)" x1="117.719" y1="982.362" x2="117.719" y2="984.72"/><linearGradient xlink:href="#b" id="r" gradientUnits="userSpaceOnUse" gradientTransform="matrix(.55544 0 0 3 63.457 -1965.72)" x1="117.719" y1="982.362" x2="117.719" y2="984.72"/><linearGradient xlink:href="#b" id="s" gradientUnits="userSpaceOnUse" gradientTransform="matrix(.77768 0 0 3 30.234 -1956.72)" x1="117.719" y1="982.362" x2="117.719" y2="984.72"/><linearGradient xlink:href="#b" id="t" gradientUnits="userSpaceOnUse" gradientTransform="matrix(.58326 0 0 3 51.425 -1958.72)" x1="117.719" y1="982.362" x2="117.719" y2="984.72"/><linearGradient xlink:href="#b" id="u" gradientUnits="userSpaceOnUse" gradientTransform="matrix(.55544 0 0 3 54.457 -1958.72)" x1="117.719" y1="982.362" x2="117.719" y2="984.72"/><linearGradient xlink:href="#b" id="v" gradientUnits="userSpaceOnUse" gradientTransform="matrix(.77768 0 0 3 39.234 -1956.72)" x1="117.719" y1="982.362" x2="117.719" y2="984.72"/><linearGradient xlink:href="#b" id="w" gradientUnits="userSpaceOnUse" gradientTransform="matrix(.58326 0 0 3 60.426 -1958.72)" x1="117.719" y1="982.362" x2="117.719" y2="984.72"/><linearGradient xlink:href="#b" id="x" gradientUnits="userSpaceOnUse" gradientTransform="matrix(.55544 0 0 3 63.457 -1958.72)" x1="117.719" y1="982.362" x2="117.719" y2="984.72"/><linearGradient xlink:href="#c" id="k" gradientUnits="userSpaceOnUse" gradientTransform="matrix(.24138 0 0 .23077 -806.772 274.116)" x1="3404.999" y1="-1092.638" x2="3404.999" y2="-1117.658"/><linearGradient id="c"><stop offset="0" stop-color="#63bbee"/><stop offset="1" stop-color="#aadcf7"/></linearGradient><linearGradient xlink:href="#c" id="j" gradientUnits="userSpaceOnUse" gradientTransform="matrix(.24138 0 0 .23077 -797.772 274.115)" x1="3404.999" y1="-1092.638" x2="3404.999" y2="-1117.658"/><linearGradient xlink:href="#c" id="i" gradientUnits="userSpaceOnUse" gradientTransform="matrix(.24138 0 0 .23077 -797.772 267.116)" x1="3404.999" y1="-1092.638" x2="3404.999" y2="-1117.658"/><linearGradient xlink:href="#c" id="h" gradientUnits="userSpaceOnUse" gradientTransform="matrix(.24138 0 0 .23077 -806.772 267.116)" x1="3404.999" y1="-1092.638" x2="3404.999" y2="-1117.658"/><linearGradient gradientTransform="translate(-319.864 -134.034)" xlink:href="#d" id="g" x1="340" y1="132" x2="328" y2="164" gradientUnits="userSpaceOnUse"/><linearGradient id="d"><stop offset="0" stop-color="#f2f2f2"/><stop offset="1" stop-color="#f9f9f9"/></linearGradient><linearGradient xlink:href="#e" id="f" gradientUnits="userSpaceOnUse" gradientTransform="matrix(0 -.07209 -.07209 0 39.265 31.784)" x1="459.034" y1="419.233" x2="35.31" y2="207.365"/><linearGradient id="e"><stop offset="0" stop-color="#666"/><stop offset="1" stop-color="#333"/></linearGradient><clipPath clipPathUnits="userSpaceOnUse" id="y"><path style="marker:none" d="M330.193 134c-5.615 0-6.22.577-6.192 6.204v15.592c-.028 5.627.577 6.204 6.192 6.204h11.615c5.615 0 6.192-.577 6.192-6.204v-15.592c0-5.627-.577-6.204-6.192-6.204z" color="#000" overflow="visible" fill="#46a926" stroke-width="2"/></clipPath></defs><path d="M21.942-.534c1.412 0 2.522.034 3.424.186.901.151 1.62.431 2.142.953.523.521.803 1.239.953 2.14.15.902.181 2.01.174 3.426V21.763c.007 1.415-.024 2.523-.174 3.424-.15.901-.43 1.619-.953 2.14-.523.522-1.24.802-2.142.954-.902.15-2.012.185-3.424.185H10.327c-1.413 0-2.519-.034-3.418-.185-.9-.152-1.616-.432-2.137-.954-.52-.521-.8-1.237-.951-2.138-.151-.901-.186-2.01-.186-3.426V6.169c0-1.415.035-2.525.186-3.426.15-.9.43-1.617.95-2.138C5.294.083 6.01-.197 6.91-.348c.9-.152 2.005-.186 3.418-.186z" style="marker:none" color="#000" overflow="visible" fill="url(#f)" transform="translate(-.136 2.034)"/><path d="M10.33 1.966c-1.373 0-2.379.045-3.01.15-.619.104-.762.23-.791.258-.028.028-.15.166-.252.782-.105.629-.148 1.63-.14 3.003v15.616c-.008 1.372.035 2.373.14 3.002.102.615.224.754.252.781.029.03.172.154.79.258.632.106 1.638.15 3.01.15h11.616c1.372 0 2.374-.044 3.004-.15.616-.104.754-.227.78-.254.03-.028.153-.169.257-.787.106-.632.15-1.637.15-3.012V7.966l-6-6z" style="line-height:normal;font-variant-ligatures:normal;font-variant-position:normal;font-variant-caps:normal;font-variant-numeric:normal;font-variant-alternates:normal;font-feature-settings:normal;text-indent:0;text-align:start;text-decoration-line:none;text-decoration-style:solid;text-decoration-color:#000;text-transform:none;text-orientation:mixed;white-space:normal;shape-padding:0;isolation:auto;mix-blend-mode:normal;solid-color:#000;solid-opacity:1;marker:none" color="#000" font-weight="400" font-family="sans-serif" overflow="visible" fill="url(#g)" transform="translate(-.136 2.034)"/><path style="marker:none" overflow="visible" opacity=".5" fill="url(#h)" d="M8.137 8.967h7v6h-7z" transform="translate(-.136 2.034)"/><path style="marker:none" overflow="visible" opacity=".5" fill="url(#i)" d="M17.137 8.967h7v6h-7z" transform="translate(-.136 2.034)"/><path style="marker:none" overflow="visible" opacity=".5" fill="url(#j)" d="M17.137 15.967h7v6h-7z" transform="translate(-.136 2.034)"/><path style="marker:none" overflow="visible" opacity=".5" fill="url(#k)" d="M8.137 15.967h7v6h-7z" transform="translate(-.136 2.034)"/><g transform="matrix(.99998 0 0 1 -106.997 -972.361)" style="marker:none" fill="url(#l)" stroke-width="5.011"><path style="marker:none" overflow="visible" fill="url(#m)" d="M115.001 983.361H122v1h-6.999z"/><path style="marker:none" overflow="visible" fill="url(#n)" d="M115.001 985.361H122v1h-6.999z"/><path style="marker:none" overflow="visible" fill="url(#o)" d="M115.001 987.361H120v1h-4.999z"/><path style="marker:none" overflow="visible" fill="url(#p)" d="M124.001 983.361H131v1h-6.999z"/><path style="marker:none" overflow="visible" fill="url(#q)" d="M124.001 985.361H131v1h-6.999z"/><path style="marker:none" overflow="visible" fill="url(#r)" d="M124.001 987.361H129v1h-4.999z"/><path style="marker:none" overflow="visible" fill="url(#s)" d="M115.001 990.361H122v1h-6.999z"/><path style="marker:none" overflow="visible" fill="url(#t)" d="M115.001 992.361H122v1h-6.999z"/><path style="marker:none" overflow="visible" fill="url(#u)" d="M115.001 994.361H120v1h-4.999z"/><path style="marker:none" overflow="visible" fill="url(#v)" d="M124.001 990.361H131v1h-6.999z"/><path style="marker:none" overflow="visible" fill="url(#w)" d="M124.001 992.361H131v1h-6.999z"/><path style="marker:none" overflow="visible" fill="url(#x)" d="M124.001 994.361H129v1h-4.999z"/></g><path style="marker:none" d="M10.194 1.5c-1.413 0-2.523.034-3.424.186-.901.15-1.62.431-2.143.953-.522.521-.803 1.239-.953 2.14-.15.902-.18 2.01-.174 3.426V23.797c-.007 1.414.024 2.523.174 3.424.15.901.43 1.619.953 2.14.523.522 1.242.802 2.143.953.901.152 2.011.186 3.424.186h11.615c1.412 0 2.519-.034 3.418-.186.9-.15 1.616-.431 2.137-.953.52-.521.8-1.237.95-2.138.152-.901.186-2.01.186-3.426V8.203c0-1.415-.034-2.525-.185-3.426-.151-.9-.43-1.617-.951-2.138-.521-.522-1.237-.802-2.137-.953-.9-.152-2.006-.186-3.418-.186z" color="#000" overflow="visible" opacity=".3" fill="none" stroke="#000"/><path clip-path="url(#y)" style="marker:none" d="M330.193 134c-5.615 0-6.22.577-6.192 6.204v15.592c-.028 5.627.577 6.204 6.192 6.204h11.615c5.615 0 6.192-.577 6.192-6.204v-15.592c0-5.627-.577-6.204-6.192-6.204z" transform="translate(-320 -132)" color="#000" overflow="visible" opacity=".2" fill="none" stroke="url(#z)" stroke-width="2"/><g><path style="marker:none" d="M21.942-.534c1.412 0 2.522.034 3.424.186.901.151 1.62.431 2.142.953.523.521.803 1.239.953 2.14.15.902.181 2.01.174 3.426V21.763c.007 1.415-.024 2.523-.174 3.424-.15.901-.43 1.619-.953 2.14-.523.522-1.24.802-2.142.954-.902.15-2.012.185-3.424.185H10.327c-1.413 0-2.519-.034-3.418-.185-.9-.152-1.616-.432-2.137-.954-.52-.521-.8-1.237-.951-2.138-.151-.901-.186-2.01-.186-3.426V6.169c0-1.415.035-2.525.186-3.426.15-.9.43-1.617.95-2.138C5.294.083 6.01-.197 6.91-.348c.9-.152 2.005-.186 3.418-.186z" color="#000" overflow="visible" fill="url(#f)" transform="translate(-.136 2.034)"/><path style="line-height:normal;font-variant-ligatures:normal;font-variant-position:normal;font-variant-caps:normal;font-variant-numeric:normal;font-variant-alternates:normal;font-feature-settings:normal;text-indent:0;text-align:start;text-decoration-line:none;text-decoration-style:solid;text-decoration-color:#000;text-transform:none;text-orientation:mixed;white-space:normal;shape-padding:0;isolation:auto;mix-blend-mode:normal;solid-color:#000;solid-opacity:1;marker:none" d="M10.33 1.966c-1.373 0-2.379.045-3.01.15-.619.104-.762.23-.791.258-.028.028-.15.166-.252.782-.105.629-.148 1.63-.14 3.003v15.616c-.008 1.372.035 2.373.14 3.002.102.615.224.754.252.781.029.03.172.154.79.258.632.106 1.638.15 3.01.15h11.616c1.372 0 2.374-.044 3.004-.15.616-.104.754-.227.78-.254.03-.028.153-.169.257-.787.106-.632.15-1.637.15-3.012V7.966l-6-6z" color="#000" font-weight="400" font-family="sans-serif" overflow="visible" fill="url(#g)" transform="translate(-.136 2.034)"/><path style="marker:none" overflow="visible" opacity=".5" fill="url(#h)" d="M8.137 8.967h7v6h-7z" transform="translate(-.136 2.034)"/><path style="marker:none" overflow="visible" opacity=".5" fill="url(#i)" d="M17.137 8.967h7v6h-7z" transform="translate(-.136 2.034)"/><path style="marker:none" overflow="visible" opacity=".5" fill="url(#j)" d="M17.137 15.967h7v6h-7z" transform="translate(-.136 2.034)"/><path style="marker:none" overflow="visible" opacity=".5" fill="url(#k)" d="M8.137 15.967h7v6h-7z" transform="translate(-.136 2.034)"/><g style="marker:none" transform="matrix(.99998 0 0 1 -106.997 -972.361)" fill="url(#l)" stroke-width="5.011"><path style="marker:none" overflow="visible" fill="url(#m)" d="M115.001 983.361H122v1h-6.999z"/><path style="marker:none" overflow="visible" fill="url(#n)" d="M115.001 985.361H122v1h-6.999z"/><path style="marker:none" overflow="visible" fill="url(#o)" d="M115.001 987.361H120v1h-4.999z"/><path style="marker:none" overflow="visible" fill="url(#p)" d="M124.001 983.361H131v1h-6.999z"/><path style="marker:none" overflow="visible" fill="url(#q)" d="M124.001 985.361H131v1h-6.999z"/><path style="marker:none" overflow="visible" fill="url(#r)" d="M124.001 987.361H129v1h-4.999z"/><path style="marker:none" overflow="visible" fill="url(#s)" d="M115.001 990.361H122v1h-6.999z"/><path style="marker:none" overflow="visible" fill="url(#t)" d="M115.001 992.361H122v1h-6.999z"/><path style="marker:none" overflow="visible" fill="url(#u)" d="M115.001 994.361H120v1h-4.999z"/><path style="marker:none" overflow="visible" fill="url(#v)" d="M124.001 990.361H131v1h-6.999z"/><path style="marker:none" overflow="visible" fill="url(#w)" d="M124.001 992.361H131v1h-6.999z"/><path style="marker:none" overflow="visible" fill="url(#x)" d="M124.001 994.361H129v1h-4.999z"/></g><path d="M10.194 1.5c-1.413 0-2.523.034-3.424.186-.901.15-1.62.431-2.143.953-.522.521-.803 1.239-.953 2.14-.15.902-.18 2.01-.174 3.426V23.797c-.007 1.414.024 2.523.174 3.424.15.901.43 1.619.953 2.14.523.522 1.242.802 2.143.953.901.152 2.011.186 3.424.186h11.615c1.412 0 2.519-.034 3.418-.186.9-.15 1.616-.431 2.137-.953.52-.521.8-1.237.95-2.138.152-.901.186-2.01.186-3.426V8.203c0-1.415-.034-2.525-.185-3.426-.151-.9-.43-1.617-.951-2.138-.521-.522-1.237-.802-2.137-.953-.9-.152-2.006-.186-3.418-.186z" style="marker:none" color="#000" overflow="visible" opacity=".3" fill="none" stroke="#000"/><path transform="translate(-320 -132)" d="M330.193 134c-5.615 0-6.22.577-6.192 6.204v15.592c-.028 5.627.577 6.204 6.192 6.204h11.615c5.615 0 6.192-.577 6.192-6.204v-15.592c0-5.627-.577-6.204-6.192-6.204z" style="marker:none" clip-path="url(#y)" color="#000" overflow="visible" opacity=".2" fill="none" stroke="url(#z)" stroke-width="2"/></g></svg>