<svg xmlns="http://www.w3.org/2000/svg" xmlns:xlink="http://www.w3.org/1999/xlink" viewBox="0 0 16 16"><defs><linearGradient xlink:href="#a" id="h" x1="328" y1="237" x2="328" y2="251" gradientUnits="userSpaceOnUse"/><linearGradient id="a"><stop offset="0" stop-color="#fff"/><stop offset=".125" stop-color="#fff" stop-opacity=".098"/><stop offset=".925" stop-color="#fff" stop-opacity=".098"/><stop offset="1" stop-color="#fff" stop-opacity=".498"/></linearGradient><linearGradient xlink:href="#b" id="f" gradientUnits="userSpaceOnUse" gradientTransform="matrix(.66667 0 0 3 -70.7 -2942.827)" x1="115.001" y1="981.36" x2="115.001" y2="985.36"/><linearGradient id="b"><stop offset="0" stop-color="#0369a3"/><stop offset="1" stop-color="#047fc6"/></linearGradient><linearGradient gradientTransform="translate(-322.033 -236.746)" xlink:href="#c" id="e" x1="332" y1="236" x2="324" y2="252" gradientUnits="userSpaceOnUse"/><linearGradient id="c"><stop offset="0" stop-color="#f2f2f2"/><stop offset="1" stop-color="#fff"/></linearGradient><linearGradient xlink:href="#b" id="d" gradientUnits="userSpaceOnUse" gradientTransform="matrix(0 -.03604 -.03604 0 17.531 16.163)" x1="459.034" y1="419.233" x2="35.31" y2="207.365"/><clipPath clipPathUnits="userSpaceOnUse" id="g"><path d="M325.096 237c-2.807 0-3.11.288-3.096 3.102v7.796c-.013 2.814.289 3.102 3.096 3.102h5.808c2.808 0 3.096-.288 3.096-3.102v-7.796c0-2.814-.288-3.102-3.096-3.102z" style="marker:none" color="#000" overflow="visible" fill="#46a926" stroke-width="2"/></clipPath></defs><g color="#000"><path d="M5.096 1c-.72 0-1.302.014-1.836.104s-1.069.276-1.477.683c-.408.407-.596.943-.685 1.479C1.008 3.8.996 4.386 1 5.107v6.791c-.003.719.009 1.303.098 1.836.089.536.277 1.072.685 1.479.408.407.943.594 1.477.683.534.09 1.117.104 1.836.104h5.808c.72 0 1.3-.014 1.834-.104s1.068-.277 1.475-.685c.407-.408.594-.943.684-1.477.09-.533.103-1.115.103-1.836V5.102c0-.72-.014-1.303-.103-1.836-.09-.534-.277-1.07-.684-1.477-.407-.408-.941-.596-1.475-.685-.533-.09-1.115-.104-1.834-.104z" style="line-height:normal;font-variant-ligatures:normal;font-variant-position:normal;font-variant-caps:normal;font-variant-numeric:normal;font-variant-alternates:normal;font-feature-settings:normal;text-indent:0;text-align:start;text-decoration-line:none;text-decoration-style:solid;text-decoration-color:#000;text-transform:none;text-orientation:mixed;white-space:normal;shape-padding:0;isolation:auto;mix-blend-mode:normal;solid-color:#000;solid-opacity:1;marker:none" font-weight="400" font-family="sans-serif" overflow="visible" opacity=".1"/><path d="M8.87-.246c.711 0 1.274.016 1.752.096.479.08.897.237 1.207.547.31.31.468.726.547 1.205.08.479.094 1.043.09 1.756v7.795c.003.71-.01 1.275-.09 1.754-.08.479-.236.895-.547 1.205-.31.31-.728.466-1.207.547-.478.08-1.041.095-1.752.095H3.062c-.71 0-1.272-.015-1.75-.095s-.896-.238-1.205-.547c-.31-.31-.465-.727-.545-1.205-.08-.479-.096-1.042-.096-1.754V3.356c0-.712.016-1.276.096-1.754S-.202.707.107.397C.416.087.834-.07 1.312-.15c.478-.08 1.04-.096 1.75-.096z" style="marker:none" overflow="visible" fill="url(#d)" transform="translate(2.034 .746)"/><path d="M3.062 1.254c-.688 0-1.184.02-1.504.074-.304.052-.383.118-.396.131-.013.013-.075.086-.125.389-.053.318-.073.813-.07 1.502v7.809c-.003.689.017 1.185.07 1.502.05.303.112.375.125.388.013.013.092.08.396.131.32.054.816.074 1.504.074h5.809c.689 0 1.183-.02 1.502-.074.304-.051.38-.118.39-.129.012-.011.078-.086.13-.392.053-.32.074-.816.074-1.506V4.254l-3-3z" style="line-height:normal;font-variant-ligatures:normal;font-variant-position:normal;font-variant-caps:normal;font-variant-numeric:normal;font-variant-alternates:normal;font-feature-settings:normal;text-indent:0;text-align:start;text-decoration-line:none;text-decoration-style:solid;text-decoration-color:#000;text-transform:none;text-orientation:mixed;white-space:normal;shape-padding:0;isolation:auto;mix-blend-mode:normal;solid-color:#000;solid-opacity:1;marker:none" font-weight="400" font-family="sans-serif" overflow="visible" fill="url(#e)" transform="translate(2.034 .746)"/><path d="M8 1v14h2.905C13.713 15 14 14.712 14 11.898V4.102C14 1.288 13.713 1 10.905 1z" style="marker:none" overflow="visible" opacity=".1" fill="#fff"/><path d="M2 8v3.898C1.988 14.712 2.29 15 5.097 15h5.809C13.713 15 14 14.712 14 11.898V8z" style="marker:none" overflow="visible" opacity=".1" fill="#fff"/><path d="M1.967 4.254v1h6v-1zm0 2v1h8v-1zm0 2v1h8v-1zm0 2v1h6v-1z" style="marker:none" overflow="visible" fill="url(#f)" transform="translate(2.034 .746)"/><path style="marker:none" d="M5.096.5c-.71 0-1.273.015-1.752.096-.478.08-.896.237-1.207.547-.31.31-.467.726-.547 1.205-.08.479-.093 1.043-.09 1.756V11.898c-.002.712.01 1.276.09 1.754.08.48.237.896.547 1.205.31.31.729.467 1.207.547.479.08 1.042.096 1.752.096h5.809c.71 0 1.272-.015 1.75-.096.477-.08.896-.237 1.205-.547.31-.31.465-.726.545-1.205.08-.478.096-1.042.096-1.754V4.102c0-.712-.016-1.276-.096-1.754-.08-.479-.236-.896-.545-1.205-.31-.31-.728-.467-1.205-.547-.478-.08-1.04-.096-1.75-.096z" overflow="visible" opacity=".3" fill="none" stroke="#000"/><path clip-path="url(#g)" d="M325.096 237c-2.807 0-3.11.288-3.096 3.102v7.796c-.013 2.814.289 3.102 3.096 3.102h5.808c2.808 0 3.096-.288 3.096-3.102v-7.796c0-2.814-.288-3.102-3.096-3.102z" style="marker:none" transform="translate(-320 -236)" overflow="visible" opacity=".3" fill="none" stroke="url(#h)" stroke-width="2"/></g></svg>