<svg xmlns="http://www.w3.org/2000/svg" xmlns:xlink="http://www.w3.org/1999/xlink" height="32" width="32"><defs><linearGradient xlink:href="#a" id="l" gradientUnits="userSpaceOnUse" gradientTransform="matrix(.87498 0 0 .8 -283.157 -921.199)" x1="345" y1="1173" x2="345" y2="1178"/><linearGradient id="a"><stop offset="0" stop-color="#666"/><stop offset="1" stop-color="#333"/></linearGradient><linearGradient xlink:href="#b" id="k" gradientUnits="userSpaceOnUse" gradientTransform="matrix(.87498 0 0 .66667 -175.534 403.962)" x1="230" y1="-581.638" x2="230" y2="-578.638"/><linearGradient id="b"><stop offset="0" stop-color="#63bbee"/><stop offset="1" stop-color="#aadcf7"/></linearGradient><linearGradient xlink:href="#c" id="j" x1="336" y1="134" x2="336" y2="162" gradientUnits="userSpaceOnUse"/><linearGradient id="c"><stop offset="0" stop-color="#fff"/><stop offset=".125" stop-color="#fff" stop-opacity=".098"/><stop offset=".925" stop-color="#fff" stop-opacity=".098"/><stop offset="1" stop-color="#fff" stop-opacity=".498"/></linearGradient><linearGradient xlink:href="#d" id="h" gradientUnits="userSpaceOnUse" gradientTransform="matrix(.85713 0 0 2 -87.858 -1949.519)" x1="117.719" y1="976.304" x2="117.719" y2="992.238"/><linearGradient id="d"><stop offset="0" stop-color="#0369a3"/><stop offset="1" stop-color="#047fc6"/></linearGradient><linearGradient gradientTransform="translate(-317.288 -127.797)" xlink:href="#e" id="g" x1="340" y1="132" x2="328" y2="164" gradientUnits="userSpaceOnUse"/><linearGradient id="e"><stop offset="0" stop-color="#f2f2f2"/><stop offset="1" stop-color="#fff"/></linearGradient><linearGradient xlink:href="#d" id="f" gradientUnits="userSpaceOnUse" gradientTransform="matrix(0 -.07209 -.07209 0 41.841 38.022)" x1="459.034" y1="419.233" x2="35.31" y2="207.365"/><clipPath clipPathUnits="userSpaceOnUse" id="i"><path style="marker:none" d="M330.193 134c-5.615 0-6.22.577-6.192 6.204v15.592c-.028 5.627.577 6.204 6.192 6.204h11.615c5.615 0 6.192-.577 6.192-6.204v-15.592c0-5.627-.577-6.204-6.192-6.204z" color="#000" overflow="visible" fill="#46a926" stroke-width="2"/></clipPath></defs><g color="#000"><path d="M24.518 5.703c1.412 0 2.522.035 3.424.186.901.151 1.62.432 2.142.953.523.522.804 1.239.954 2.14.15.902.18 2.01.173 3.426V28c.007 1.415-.024 2.523-.173 3.424-.15.902-.43 1.62-.954 2.14-.522.522-1.24.803-2.142.954-.902.151-2.012.185-3.424.185H12.903c-1.413 0-2.519-.034-3.418-.185-.9-.152-1.616-.432-2.137-.953-.52-.522-.8-1.238-.951-2.139-.151-.9-.186-2.01-.186-3.426V12.407c0-1.416.035-2.525.186-3.426.151-.901.43-1.617.951-2.139.52-.522 1.237-.802 2.137-.953.9-.151 2.005-.186 3.418-.186z" style="marker:none" overflow="visible" fill="url(#f)" transform="translate(-2.712 -4.203)"/><path d="M12.906 8.203c-1.372 0-2.378.045-3.01.15-.618.105-.762.23-.791.259-.028.027-.15.165-.252.78-.105.63-.148 1.632-.14 3.005v15.615c-.008 1.372.035 2.373.14 3.002.102.616.224.754.252.781.029.03.173.155.79.258.633.106 1.639.15 3.01.15h11.616c1.372 0 2.374-.044 3.004-.15.616-.103.754-.227.781-.254.028-.028.152-.168.256-.787.106-.632.15-1.637.15-3.012V14.203l-6-6z" style="line-height:normal;font-variant-ligatures:normal;font-variant-position:normal;font-variant-caps:normal;font-variant-numeric:normal;font-variant-alternates:normal;font-feature-settings:normal;text-indent:0;text-align:start;text-decoration-line:none;text-decoration-style:solid;text-decoration-color:#000;text-transform:none;text-orientation:mixed;white-space:normal;shape-padding:0;isolation:auto;mix-blend-mode:normal;solid-color:#000;solid-opacity:1;marker:none" font-weight="400" font-family="sans-serif" overflow="visible" fill="url(#g)" transform="translate(-2.712 -4.203)"/><path d="M10.712 15.203v1h6v-1zm7 0v7h9v-7zm-7 2v1h6v-1zm0 2v1h6v-1zm0 2v1h6v-1zm0 2v1h16v-1zm0 2v1h16v-1zm0 2v1h12v-1z" style="marker:none" overflow="visible" fill="url(#h)" transform="translate(-2.712 -4.203)"/><path d="M4 16v7.797C3.973 29.424 4.578 30 10.194 30h11.615C27.424 30 28 29.424 28 23.797V16z" style="marker:none" overflow="visible" opacity=".1" fill="#fff"/><path d="M16 2v28h5.81c5.614 0 6.19-.576 6.19-6.203V8.203C28 2.576 27.424 2 21.81 2z" style="marker:none" overflow="visible" opacity=".1" fill="#fff"/><path style="marker:none" d="M10.194 1.5c-1.413 0-2.523.034-3.424.186-.901.15-1.62.431-2.143.953-.522.521-.803 1.239-.953 2.14-.15.902-.18 2.01-.174 3.426V23.797c-.007 1.414.024 2.523.174 3.424.15.901.43 1.619.953 2.14.523.522 1.242.802 2.143.953.901.152 2.011.186 3.424.186h11.615c1.412 0 2.519-.034 3.418-.186.9-.15 1.616-.431 2.137-.953.52-.521.8-1.237.95-2.138.152-.901.186-2.01.186-3.426V8.203c0-1.415-.034-2.525-.185-3.426-.151-.9-.43-1.617-.951-2.138-.521-.522-1.237-.802-2.137-.953-.9-.152-2.006-.186-3.418-.186z" overflow="visible" opacity=".3" fill="none" stroke="#000"/><path clip-path="url(#i)" style="marker:none" d="M330.193 134c-5.615 0-6.22.577-6.192 6.204v15.592c-.028 5.627.577 6.204 6.192 6.204h11.615c5.615 0 6.192-.577 6.192-6.204v-15.592c0-5.627-.577-6.204-6.192-6.204z" transform="translate(-320 -132)" overflow="visible" opacity=".2" fill="none" stroke="url(#j)" stroke-width="2"/><path style="marker:none" overflow="visible" fill="url(#k)" d="M18.712 16.203h7v5h-7z" transform="translate(-2.712 -4.203)"/><path style="marker:none" d="M22.712 20.203l-2-2.5-2 3v.5h7v-.5l-1.5-1.5z" overflow="visible" fill="url(#l)" transform="translate(-2.712 -4.203)"/></g></svg>