<svg xmlns="http://www.w3.org/2000/svg" xmlns:xlink="http://www.w3.org/1999/xlink" viewBox="0 0 48 48"><defs><linearGradient xlink:href="#a" id="f" gradientUnits="userSpaceOnUse" gradientTransform="matrix(0 -.11328 -.11328 0 70.878 46.712)" x1="512" y1="397.994" x2="0" y2="125.994"/><linearGradient id="a"><stop offset="0" stop-color="#2e851b"/><stop offset="1" stop-color="#18a003"/></linearGradient><linearGradient gradientTransform="translate(-308.61 -65.288)" xlink:href="#b" id="g" x1="352" y1="60" x2="332" y2="108" gradientUnits="userSpaceOnUse"/><linearGradient id="b"><stop offset="0" stop-color="#f2f2f2"/><stop offset="1" stop-color="#fff"/></linearGradient><linearGradient xlink:href="#c" id="h" gradientUnits="userSpaceOnUse" x1="476" y1="-867.138" x2="498" y2="-867.138"/><linearGradient id="c"><stop offset="0" stop-color="#18a303"/><stop offset="1" stop-color="#106802"/></linearGradient><linearGradient xlink:href="#c" id="i" gradientUnits="userSpaceOnUse" gradientTransform="translate(123 1753.64)" x1="475" y1="-895.638" x2="475" y2="-848.638"/><linearGradient xlink:href="#d" id="j" gradientUnits="userSpaceOnUse" gradientTransform="matrix(1.5 0 0 1.80001 -231.5 510.715)" x1="481" y1="-759.638" x2="481" y2="-764.638"/><linearGradient id="d"><stop offset="0" stop-color="#fff" stop-opacity=".588"/><stop offset="1" stop-color="#fff" stop-opacity=".863"/></linearGradient><linearGradient gradientTransform="translate(-308.609 -65.288)" xlink:href="#e" id="k" x1="344" y1="61" x2="344" y2="107" gradientUnits="userSpaceOnUse"/><linearGradient id="e"><stop offset="0" stop-color="#fff"/><stop offset=".125" stop-color="#fff" stop-opacity=".098"/><stop offset=".925" stop-color="#fff" stop-opacity=".098"/><stop offset="1" stop-opacity=".498"/></linearGradient></defs><path d="M27.12-4.288c-2.223 0-3.974.053-5.414.295-1.44.242-2.618.695-3.482 1.556-.864.862-1.32 2.037-1.559 3.479-.24 1.44-.286 3.194-.275 5.422v24.5c-.011 2.226.036 3.98.275 5.418.24 1.441.695 2.616 1.559 3.478.864.862 2.041 1.315 3.482 1.557 1.44.242 3.191.295 5.414.295h16.54c2.222 0 3.971-.053 5.408-.295 1.438-.242 2.613-.694 3.474-1.557.86-.862 1.313-2.038 1.555-3.478.241-1.44.293-3.191.293-5.418V6.46c0-2.227-.052-3.98-.293-5.418-.242-1.44-.694-2.616-1.555-3.479-.86-.862-2.036-1.314-3.474-1.556-1.437-.242-3.186-.295-5.409-.295z" style="marker:none" color="#000" overflow="visible" fill="url(#f)" transform="translate(-11.39 5.288)"/><path d="M27.12-1.288c-2.173 0-3.806.065-4.918.252-1.103.185-1.585.45-1.859.722-.273.273-.534.748-.717 1.848-.184 1.11-.247 2.74-.236 4.916v24.526c-.01 2.174.052 3.805.236 4.914.183 1.1.444 1.575.717 1.847.274.274.756.538 1.86.723 1.111.187 2.744.252 4.917.252h16.54c2.173 0 3.803-.066 4.911-.252 1.1-.185 1.578-.449 1.848-.719.271-.272.536-.753.72-1.855.187-1.11.25-2.743.25-4.922V8.712l-10-10z" style="line-height:normal;font-variant-ligatures:normal;font-variant-position:normal;font-variant-caps:normal;font-variant-numeric:normal;font-variant-alternates:normal;font-feature-settings:normal;text-indent:0;text-align:start;text-decoration-line:none;text-decoration-style:solid;text-decoration-color:#000;text-transform:none;text-orientation:mixed;white-space:normal;shape-padding:0;isolation:auto;mix-blend-mode:normal;solid-color:#000;solid-opacity:1;marker:none" color="#000" font-weight="400" font-family="sans-serif" overflow="visible" fill="url(#g)" transform="translate(-11.39 5.288)"/><path style="marker:none" overflow="visible" fill="#ccf4c6" d="M13 16.002h22v21H13z"/><path style="marker:none" overflow="visible" fill="#92e285" d="M13 16.002h22v5H13z"/><path style="marker:none" d="M599 876v21h22v-21h-1zm1 1h6v3h-6zm7 0h6v3h-6zm7 0h6v3h-6zm-14 4h6v3h-6zm7 0h6v3h-6zm7 0h6v3h-6zm-14 4h6v3h-6zm7 0h6v3h-6zm7 0h6v3h-6zm-14 4h6v3h-6zm7 0h6v3h-6zm7 0h6v3h-6zm-14 4h6v3h-6zm7 0h6v3h-6zm7 0h6v3h-6z" transform="translate(-586 -860)" overflow="visible" fill="url(#i)"/><path style="marker:none" overflow="visible" fill="gray" d="M26 27.002h11v11H26z"/><path style="marker:none" overflow="visible" fill="#ccc" d="M27 28.002h9v9h-9z"/><path style="marker:none" overflow="visible" fill="url(#j)" d="M490-865.638h9v9h-9z" transform="translate(-463 893.64)"/><path style="marker:none" overflow="visible" fill="#1c99e0" d="M27 32.002h3v5h-3z"/><path style="marker:none" overflow="visible" fill="#d36118" d="M30 29.002h3v8h-3z"/><path style="marker:none" overflow="visible" fill="#e9b913" d="M33 34.002h3v3h-3z"/><path style="marker:none" overflow="visible" fill="#63bbee" d="M28 33.002h1v4h-1z"/><path style="marker:none" overflow="visible" fill="#f09e6f" d="M31 30.002h1v7h-1z"/><path style="marker:none" overflow="visible" fill="#f5ce53" d="M34 35.002h1v2h-1z"/><path style="marker:none" d="M27.122-3.788c-2.215 0-3.947.055-5.332.287-1.385.232-2.446.654-3.211 1.418-.766.764-1.188 1.822-1.418 3.207-.23 1.385-.28 3.118-.27 5.338V30.964c-.01 2.218.04 3.952.27 5.336.23 1.384.652 2.443 1.418 3.207.765.763 1.826 1.185 3.21 1.418 1.386.232 3.118.287 5.333.287H43.66c2.214 0 3.944-.055 5.326-.287 1.382-.233 2.44-.654 3.203-1.418.763-.764 1.184-1.823 1.416-3.207.232-1.384.285-3.117.285-5.336V6.46c0-2.22-.053-3.952-.285-5.336-.232-1.384-.653-2.443-1.416-3.207-.762-.764-1.821-1.186-3.203-1.418-1.382-.233-3.112-.287-5.326-.287z" color="#000" overflow="visible" opacity=".3" fill="none" stroke="url(#k)" transform="translate(-11.39 5.288)"/><path d="M18 47l29-14v14z" opacity=".7" stroke="#000" stroke-width="2" stroke-linejoin="round"/><path d="M18 47l29-14v14z" fill="#fff"/></svg>