<svg xmlns="http://www.w3.org/2000/svg" xmlns:xlink="http://www.w3.org/1999/xlink" viewBox="0 0 48 48"><defs><linearGradient xlink:href="#a" id="f" gradientUnits="userSpaceOnUse" gradientTransform="matrix(0 -.11328 -.11328 0 64.37 58.305)" x1="512" y1="397.994" x2="0" y2="125.994"/><linearGradient id="a"><stop offset="0" stop-color="#0369a3"/><stop offset="1" stop-color="#047fc6"/></linearGradient><linearGradient gradientTransform="translate(-315.119 -53.695)" xlink:href="#b" id="g" x1="352" y1="60" x2="332" y2="108" gradientUnits="userSpaceOnUse"/><linearGradient id="b"><stop offset="0" stop-color="#f2f2f2"/><stop offset="1" stop-color="#fff"/></linearGradient><linearGradient xlink:href="#a" id="h" gradientUnits="userSpaceOnUse" gradientTransform="matrix(1.55551 0 0 1.66668 -309.11 1323.38)" x1="217.286" y1="-787.839" x2="217.286" y2="-763.839"/><linearGradient xlink:href="#c" id="i" gradientUnits="userSpaceOnUse" gradientTransform="matrix(1.5 0 0 1.33334 -305.119 798.824)" x1="230" y1="-581.638" x2="230" y2="-578.638"/><linearGradient id="c"><stop offset="0" stop-color="#63bbee"/><stop offset="1" stop-color="#aadcf7"/></linearGradient><linearGradient xlink:href="#d" id="j" gradientUnits="userSpaceOnUse" gradientTransform="matrix(1.49995 0 0 1.53335 -489.603 -1775.027)" x1="345" y1="1173" x2="345" y2="1178"/><linearGradient id="d"><stop offset="0" stop-color="#666"/><stop offset="1" stop-color="#333"/></linearGradient><linearGradient gradientTransform="translate(-315.117 -53.695)" xlink:href="#e" id="k" x1="344" y1="61" x2="344" y2="107" gradientUnits="userSpaceOnUse"/><linearGradient id="e"><stop offset="0" stop-color="#fff"/><stop offset=".125" stop-color="#fff" stop-opacity=".098"/><stop offset=".925" stop-color="#fff" stop-opacity=".098"/><stop offset="1" stop-opacity=".498"/></linearGradient></defs><g color="#000"><path d="M20.612 7.305c-2.223 0-3.975.053-5.414.295-1.441.242-2.619.695-3.483 1.557-.864.862-1.319 2.037-1.558 3.478-.24 1.44-.287 3.194-.276 5.422v24.5c-.01 2.226.037 3.98.276 5.418.24 1.442.694 2.617 1.558 3.479.864.861 2.042 1.314 3.483 1.556 1.44.242 3.191.295 5.414.295H37.15c2.223 0 3.972-.053 5.408-.295 1.438-.242 2.614-.694 3.475-1.556.86-.863 1.313-2.039 1.554-3.479.242-1.439.293-3.19.293-5.418V18.053c0-2.227-.051-3.979-.293-5.418-.241-1.44-.694-2.616-1.554-3.478-.861-.863-2.037-1.315-3.475-1.557-1.436-.242-3.185-.295-5.408-.295z" style="marker:none" overflow="visible" fill="url(#f)" transform="translate(-4.881 -6.305)"/><path d="M20.612 10.305c-2.174 0-3.806.065-4.918.252-1.103.185-1.586.45-1.86.723-.273.272-.533.747-.716 1.847-.185 1.11-.247 2.74-.237 4.916V42.57c-.01 2.174.052 3.805.237 4.914.183 1.1.443 1.575.716 1.848.274.273.757.537 1.86.722 1.112.187 2.744.252 4.918.252H37.15c2.173 0 3.804-.065 4.912-.252 1.1-.185 1.578-.448 1.848-.719.271-.271.535-.753.72-1.855.186-1.11.25-2.743.25-4.922V20.305l-10-10z" style="line-height:normal;font-variant-ligatures:normal;font-variant-position:normal;font-variant-caps:normal;font-variant-numeric:normal;font-variant-alternates:normal;font-feature-settings:normal;text-indent:0;text-align:start;text-decoration-line:none;text-decoration-style:solid;text-decoration-color:#000;text-transform:none;text-orientation:mixed;white-space:normal;shape-padding:0;isolation:auto;mix-blend-mode:normal;solid-color:#000;solid-opacity:1;marker:none" font-weight="400" font-family="sans-serif" overflow="visible" fill="url(#g)" transform="translate(-4.881 -6.305)"/><path d="M16.881 22.305v2h8v-2zm10 0v10h14v-10zm-10 4v2h8v-2zm0 4v2h8v-2zm0 4v2h24v-2zm0 4v2h24v-2zm0 4v2h18v-2z" style="marker:none" overflow="visible" fill="url(#h)" transform="translate(-4.881 -6.305)"/><path style="marker:none" overflow="visible" fill="url(#i)" d="M27.881 23.305h12v8h-12z" transform="translate(-4.881 -6.305)"/><path d="M34.881 29.305l-3.5-4.5-3.5 5.5v1h12v-1l-2.5-3z" style="marker:none" overflow="visible" fill="url(#j)" transform="translate(-4.881 -6.305)"/><path style="marker:none" d="M35 20a3 3 0 01-3-3h3z" overflow="visible" fill="#e9b913"/><path d="M6 24v12.252C5.957 45.094 6.906 46 15.73 46h16.54c8.824 0 9.73-.906 9.73-9.748V24z" style="marker:none" overflow="visible" opacity=".1" fill="#fff"/><path d="M24 2v44h8.27c8.824 0 9.73-.906 9.73-9.748V11.748C42 2.906 41.094 2 32.27 2z" style="marker:none" overflow="visible" opacity=".1" fill="#fff"/><path style="marker:none" d="M20.613 7.805c-2.214 0-3.947.055-5.332.287-1.385.233-2.445.655-3.21 1.418-.766.764-1.189 1.823-1.419 3.207-.23 1.385-.28 3.119-.27 5.338V42.557c-.01 2.218.04 3.952.27 5.336.23 1.385.653 2.443 1.418 3.207.766.764 1.826 1.186 3.211 1.418 1.385.232 3.118.287 5.332.287h16.54c2.214 0 3.944-.055 5.325-.287 1.382-.233 2.441-.654 3.204-1.418.762-.764 1.183-1.823 1.416-3.207.232-1.384.285-3.117.285-5.336V18.053c0-2.219-.053-3.952-.285-5.336-.233-1.384-.654-2.443-1.416-3.207-.763-.764-1.822-1.185-3.204-1.418-1.381-.232-3.111-.287-5.326-.287z" overflow="visible" opacity=".3" fill="none" stroke="url(#k)" transform="translate(-4.881 -6.305)"/></g><path d="M18 47l29-14v14z" opacity=".7" stroke="#000" stroke-width="2" stroke-linejoin="round"/><path d="M18 47l29-14v14z" fill="#fff"/></svg>