<svg xmlns="http://www.w3.org/2000/svg" xmlns:xlink="http://www.w3.org/1999/xlink" viewBox="0 0 16 16"><defs><linearGradient xlink:href="#a" id="d" gradientUnits="userSpaceOnUse" gradientTransform="matrix(0 -.03604 -.03604 0 22.548 18.74)" x1="25.222" y1="209.883" x2="469.123" y2="404.096"/><linearGradient id="a"><stop offset="0" stop-color="#18a303"/><stop offset="1" stop-color="#106802"/></linearGradient><linearGradient gradientTransform="translate(-317.016 -234.17)" xlink:href="#b" id="e" x1="332" y1="236" x2="324" y2="252" gradientUnits="userSpaceOnUse"/><linearGradient id="b"><stop offset="0" stop-color="#f2f2f2"/><stop offset="1" stop-color="#fff"/></linearGradient><linearGradient xlink:href="#a" id="f" gradientUnits="userSpaceOnUse" gradientTransform="translate(349 -1742)" x1="119" y1="1036.274" x2="119" y2="1052.497"/><linearGradient xlink:href="#a" id="g" gradientUnits="userSpaceOnUse" gradientTransform="translate(472 11.638)" x1="119" y1="1036.274" x2="119" y2="1052.497"/><linearGradient xlink:href="#c" id="i" x1="328" y1="237" x2="328" y2="251" gradientUnits="userSpaceOnUse"/><linearGradient id="c"><stop offset="0" stop-color="#fff"/><stop offset=".125" stop-color="#fff" stop-opacity=".098"/><stop offset=".925" stop-color="#fff" stop-opacity=".098"/><stop offset="1" stop-color="#fff" stop-opacity=".498"/></linearGradient><clipPath clipPathUnits="userSpaceOnUse" id="h"><path d="M325.096 237c-2.807 0-3.11.288-3.096 3.102v7.796c-.013 2.814.289 3.102 3.096 3.102h5.808c2.808 0 3.096-.288 3.096-3.102v-7.796c0-2.814-.288-3.102-3.096-3.102z" style="marker:none" color="#000" overflow="visible" fill="#46a926" stroke-width="2"/></clipPath></defs><path d="M5.096 1c-.72 0-1.302.014-1.836.104s-1.069.276-1.477.683c-.408.407-.596.943-.685 1.479C1.008 3.8.996 4.386 1 5.107v6.791c-.003.719.009 1.303.098 1.836.089.536.277 1.072.685 1.479.408.407.943.594 1.477.683.534.09 1.117.104 1.836.104h5.808c.72 0 1.3-.014 1.834-.104s1.068-.277 1.475-.685c.407-.408.594-.943.684-1.477.09-.533.103-1.115.103-1.836V5.102c0-.72-.014-1.303-.103-1.836-.09-.534-.277-1.07-.684-1.477-.407-.408-.941-.596-1.475-.685-.533-.09-1.115-.104-1.834-.104z" style="line-height:normal;font-variant-ligatures:normal;font-variant-position:normal;font-variant-caps:normal;font-variant-numeric:normal;font-variant-alternates:normal;font-feature-settings:normal;text-indent:0;text-align:start;text-decoration-line:none;text-decoration-style:solid;text-decoration-color:#000;text-transform:none;text-orientation:mixed;white-space:normal;shape-padding:0;isolation:auto;mix-blend-mode:normal;solid-color:#000;solid-opacity:1;marker:none" color="#000" font-weight="400" font-family="sans-serif" overflow="visible" opacity=".1"/><path d="M13.887 2.33c.71 0 1.274.016 1.752.096.479.08.897.237 1.207.547.31.31.468.726.547 1.205.08.48.094 1.044.09 1.756v7.795c.003.711-.01 1.275-.09 1.754-.08.479-.236.895-.547 1.205-.31.31-.728.466-1.207.547-.478.08-1.041.096-1.752.096H8.08c-.71 0-1.273-.016-1.75-.096-.478-.08-.896-.237-1.205-.547-.31-.31-.465-.727-.545-1.205-.08-.478-.096-1.042-.096-1.754V5.932c0-.712.016-1.276.096-1.754s.236-.895.545-1.205c.309-.31.727-.466 1.205-.547.477-.08 1.04-.095 1.75-.095z" style="marker:none" color="#000" overflow="visible" fill="url(#d)" transform="translate(-2.983 -1.83)"/><path d="M8.08 3.83c-.69 0-1.185.021-1.505.075-.304.05-.383.118-.396.13-.013.014-.075.086-.125.39-.053.318-.073.812-.07 1.501v7.809c-.003.69.017 1.185.07 1.502.05.303.112.375.125.389.013.012.092.08.396.13.32.054.815.075 1.504.075h5.809c.689 0 1.183-.021 1.502-.075.304-.05.38-.118.39-.129.012-.01.078-.085.13-.392.053-.32.074-.816.074-1.506V6.831l-3-3z" style="line-height:normal;font-variant-ligatures:normal;font-variant-position:normal;font-variant-caps:normal;font-variant-numeric:normal;font-variant-alternates:normal;font-feature-settings:normal;text-indent:0;text-align:start;text-decoration-line:none;text-decoration-style:solid;text-decoration-color:#000;text-transform:none;text-orientation:mixed;white-space:normal;shape-padding:0;isolation:auto;mix-blend-mode:normal;solid-color:#000;solid-opacity:1;marker:none" color="#000" font-weight="400" font-family="sans-serif" overflow="visible" fill="url(#e)" transform="translate(-2.983 -1.83)"/><path d="M2 8v3.898C1.988 14.712 2.29 15 5.097 15h5.809C13.713 15 14 14.712 14 11.898V8z" style="marker:none" color="#000" overflow="visible" opacity=".1" fill="#fff"/><path style="marker:none" overflow="visible" fill="#ccf4c6" d="M4 5h7v7H4z"/><path style="marker:none" d="M591 1054v7h7v-7h-6zm1 1h2v1h-2zm3 0h2v1h-2zm-3 2h2v1h-2zm3 0h2v1h-2zm-3 2h2v1h-2zm3 0h2v1h-2z" transform="translate(-587 -1049)" overflow="visible" fill="url(#g)" stroke-width="5.011"/><path style="marker:none" d="M5.096.5c-.71 0-1.273.015-1.752.096-.478.08-.896.237-1.207.547-.31.31-.467.726-.547 1.205-.08.479-.093 1.043-.09 1.756V11.898c-.002.712.01 1.276.09 1.754.08.48.237.896.547 1.205.31.31.729.467 1.207.547.479.08 1.042.096 1.752.096h5.809c.71 0 1.272-.015 1.75-.096.477-.08.896-.237 1.205-.547.31-.31.465-.726.545-1.205.08-.478.096-1.042.096-1.754V4.102c0-.712-.016-1.276-.096-1.754-.08-.479-.236-.896-.545-1.205-.31-.31-.728-.467-1.205-.547-.478-.08-1.04-.096-1.75-.096z" color="#000" overflow="visible" opacity=".3" fill="none" stroke="#000"/><path clip-path="url(#h)" d="M325.096 237c-2.807 0-3.11.288-3.096 3.102v7.796c-.013 2.814.289 3.102 3.096 3.102h5.808c2.808 0 3.096-.288 3.096-3.102v-7.796c0-2.814-.288-3.102-3.096-3.102z" style="marker:none" transform="translate(-320 -236)" color="#000" overflow="visible" opacity=".3" fill="none" stroke="url(#i)" stroke-width="2"/><path d="M4 15l11-6v6z" opacity=".6" stroke="#000" stroke-width="2" stroke-linejoin="round"/><path d="M4 15l11-6v6z" fill="#fff"/></svg>