<svg xmlns="http://www.w3.org/2000/svg" viewBox="0 0 16 16"><path d="M8 2.5c-3.038 0-5.5.821-5.5 1.834v7.332c0 .851 1.748 1.561 4.107 1.768l-.136-.086a1 1 0 010-1.696l4-2.5A1 1 0 0112 10v1h1.5V4.334C13.5 3.321 11.038 2.5 8 2.5z" fill="#f2cbf8"/><path d="M8 2a6 2 0 00-6 2v8a6 2 0 005.502 1.992l-1.031-.644a.98.98 0 01-.37-.422A5 1 0 013 12V9.102A6 2 0 008 10a6 2 0 001.176-.04l1.295-.808A1 1 0 0110.973 9c.388-.01.718.21.892.527A6 2 0 0013 9.104V11h1V4a6 2 0 00-6-2zm-.104 1A5 1 0 018 3a5 1 0 015 1 5 1 0 01-5 1 5 1 0 01-5-1 5 1 0 014.896-1zM3 5.102A6 2 0 008 6a6 2 0 005-.896V8a5 1 0 01-5 1 5 1 0 01-5-1V5.102z" fill="#8e03a3"/><path d="M7 12.5l4 2.5v-2h4v-1h-4v-2z" fill="#e95420"/></svg>