<svg viewBox="0 0 48 48" xmlns:xlink="http://www.w3.org/1999/xlink" xmlns="http://www.w3.org/2000/svg"><defs><linearGradient xlink:href="#a" id="d" gradientUnits="userSpaceOnUse" gradientTransform="matrix(0 -.11328 -.11328 0 59.489 52)" x1="512" y1="397.994" x2="0" y2="125.994"/><linearGradient id="a"><stop style="stop-color:#2e851b;stop-opacity:1" offset="0"/><stop style="stop-color:#18a003;stop-opacity:1" offset="1"/></linearGradient><linearGradient gradientTransform="translate(-320 -60)" xlink:href="#b" id="e" x1="352" y1="60" x2="332" y2="108" gradientUnits="userSpaceOnUse"/><linearGradient id="b"><stop style="stop-color:#f2f2f2;stop-opacity:1" offset="0"/><stop style="stop-color:#fff;stop-opacity:1" offset="1"/></linearGradient><linearGradient gradientTransform="translate(-319.999 -60)" xlink:href="#c" id="f" x1="344" y1="61" x2="344" y2="107" gradientUnits="userSpaceOnUse"/><linearGradient id="c"><stop style="stop-color:#fff;stop-opacity:1" offset="0"/><stop offset=".125" style="stop-color:#fff;stop-opacity:.09803922"/><stop offset=".925" style="stop-color:#fff;stop-opacity:.09803922"/><stop style="stop-color:#000;stop-opacity:.49803922" offset="1"/></linearGradient><linearGradient id="g" x1="0" y1="0" x2="1" y2="0" gradientUnits="userSpaceOnUse" gradientTransform="rotate(90 146 200) scale(46.9998)"><stop offset="0" style="stop-color:#18a303;stop-opacity:1"/><stop offset="1" style="stop-color:#106802;stop-opacity:1"/></linearGradient></defs><path style="fill:gray;fill-opacity:1;fill-rule:evenodd;stroke-width:3;stroke-linecap:square" d="M2 8h4v1H2zM2 10h4v1H2zM2 12h4v1H2zM2 14h4v1H2zM2 16h4v1H2zM2 18h4v1H2zM2 20h4v1H2zM2 22h4v1H2zM2 24h4v1H2zM2 26h4v1H2zM2 28h4v1H2zM2 30h4v1H2zM2 32h4v1H2zM2 34h4v1H2zM2 36h4v1H2zM2 38h4v1H2z"/><path d="M15.73 1c-2.222 0-3.974.053-5.414.295-1.44.242-2.618.695-3.482 1.557-.864.861-1.319 2.036-1.559 3.478C5.036 7.77 4.99 9.524 5 11.752v24.5c-.01 2.226.036 3.98.275 5.418.24 1.442.695 2.617 1.559 3.478.864.862 2.041 1.315 3.482 1.557 1.44.242 3.192.295 5.414.295h16.54c2.222 0 3.971-.053 5.408-.295 1.438-.242 2.613-.694 3.474-1.557.861-.862 1.313-2.038 1.555-3.478.241-1.439.293-3.191.293-5.418V11.748c0-2.227-.052-3.979-.293-5.418-.242-1.44-.694-2.616-1.555-3.478-.86-.863-2.036-1.315-3.474-1.557C36.24 1.053 34.492 1 32.27 1z" style="color:#000;display:inline;overflow:visible;visibility:visible;fill:url(#d);fill-opacity:1;fill-rule:nonzero;stroke:none;stroke-width:1;marker:none;enable-background:accumulate"/><g style="clip-rule:evenodd;display:inline;fill-rule:evenodd;enable-background:new"><path d="M367 72h-18a2 2 0 0 0-2 2v17a2 2 0 0 0 2 2h18a2 2 0 0 0 2-2V74a2 2 0 0 0-2-2z" style="fill:#ccf4c6;fill-rule:nonzero" transform="translate(-334 -55.998)"/></g><path d="M15.73 4c-2.173 0-3.805.065-4.917.252-1.104.185-1.586.45-1.86.723-.273.272-.534.747-.717 1.847-.184 1.11-.247 2.74-.236 4.916v24.526c-.01 2.174.052 3.805.236 4.914.183 1.1.444 1.575.717 1.847.274.274.756.538 1.86.723 1.112.187 2.744.252 4.917.252h16.54c2.173 0 3.804-.065 4.912-.252 1.1-.185 1.577-.448 1.847-.719.272-.271.536-.753.721-1.855.186-1.11.25-2.743.25-4.922V14L30 4z" style="color:#000;font-style:normal;font-variant:normal;font-weight:400;font-stretch:normal;font-size:medium;line-height:normal;font-family:sans-serif;font-variant-ligatures:normal;font-variant-position:normal;font-variant-caps:normal;font-variant-numeric:normal;font-variant-alternates:normal;font-feature-settings:normal;text-indent:0;text-align:start;text-decoration:none;text-decoration-line:none;text-decoration-style:solid;text-decoration-color:#000;letter-spacing:normal;word-spacing:normal;text-transform:none;writing-mode:lr-tb;direction:ltr;text-orientation:mixed;dominant-baseline:auto;baseline-shift:baseline;text-anchor:start;white-space:normal;shape-padding:0;clip-rule:nonzero;display:inline;overflow:visible;visibility:visible;isolation:auto;mix-blend-mode:normal;color-interpolation:sRGB;color-interpolation-filters:linearRGB;solid-color:#000;solid-opacity:1;vector-effect:none;fill:url(#e);fill-opacity:1;fill-rule:nonzero;stroke:none;stroke-width:5;stroke-linecap:butt;stroke-linejoin:miter;stroke-miterlimit:4;stroke-dasharray:none;stroke-dashoffset:0;stroke-opacity:1;marker:none;color-rendering:auto;image-rendering:auto;shape-rendering:auto;text-rendering:auto;enable-background:accumulate"/><g style="clip-rule:evenodd;display:inline;fill-rule:evenodd;enable-background:new"><path d="M367 72h-18a2 2 0 0 0-2 2v1a2 2 0 0 0 2 2h18a2 2 0 0 0 2-2v-1a2 2 0 0 0-2-2z" style="fill:#92e285;fill-rule:nonzero" transform="translate(-334 -55.998)"/></g><path style="color:#000;display:inline;overflow:visible;visibility:visible;opacity:.3;fill:none;fill-opacity:1;fill-rule:nonzero;stroke:url(#f);stroke-width:1;stroke-opacity:1;marker:none;enable-background:accumulate" d="M15.732 1.5c-2.215 0-3.947.055-5.332.287-1.385.233-2.446.654-3.211 1.418C6.424 3.97 6 5.027 5.77 6.412c-.23 1.385-.28 3.119-.27 5.338V36.252c-.01 2.218.04 3.952.27 5.336.23 1.385.652 2.443 1.418 3.207.765.764 1.826 1.185 3.21 1.418 1.386.232 3.118.287 5.333.287H32.27c2.215 0 3.945-.055 5.326-.287 1.382-.233 2.44-.654 3.203-1.418.763-.764 1.184-1.823 1.416-3.207.232-1.384.285-3.117.285-5.336V11.748c0-2.219-.053-3.952-.285-5.336-.232-1.384-.653-2.443-1.416-3.207-.762-.764-1.821-1.185-3.203-1.418-1.381-.232-3.111-.287-5.326-.287z"/><g style="clip-rule:evenodd;display:inline;fill-rule:evenodd;enable-background:new"><path d="M349 72a2 2 0 0 0-2 2v16.998a2 2 0 0 0 2 2L369 93V73.998a2 2 0 0 0-2-2zm-1 1.998a1 1 0 0 1 1-1h5v3h-6zm7-1h6v3h-6zm7 0h5a1 1 0 0 1 1 1v2h-6zm-14 4h6v3h-6zm7 0h6v3h-6zm7 0h6v3h-6zm-14 4h6v3h-6zm7 0h6v3h-6zm7 0h6v3h-6zm-14 4h6v3h-6zm7 0h6v3h-6zm7 0h6v3h-6zm-14 4h6v3h-5a1 1 0 0 1-1-1zm7 0h6v3h-6zm7 0h6v2a1 1 0 0 1-1 1h-5z" style="fill:url(#g);fill-rule:nonzero" transform="translate(-334 -55.998)"/></g><g style="clip-rule:evenodd;display:inline;fill-rule:evenodd;enable-background:new"><path d="M369 83h-7a2 2 0 0 0-2 2v7a2 2 0 0 0 2 2h7a2 2 0 0 0 2-2v-7a2 2 0 0 0-2-2z" style="fill:#148103;fill-rule:nonzero" transform="translate(-334 -55.998)"/></g><g style="clip-rule:evenodd;display:inline;fill-rule:evenodd;enable-background:new"><path d="M369 84h-7a1 1 0 0 0-1 1v7a1 1 0 0 0 1 1h7a1 1 0 0 0 1-1v-7a1 1 0 0 0-1-1z" style="fill:#ccc;fill-rule:nonzero" transform="translate(-334 -55.998)"/></g><g style="clip-rule:evenodd;display:inline;fill-rule:evenodd;enable-background:new"><path d="M369 84h-7a1 1 0 0 0-1 1v7a1 1 0 0 0 1 1h7a1 1 0 0 0 1-1v-7a1 1 0 0 0-1-1z" style="fill:#ccf4c6;fill-rule:nonzero" transform="translate(-334 -55.998)"/></g><g style="clip-rule:evenodd;display:inline;fill-rule:evenodd;enable-background:new"><path d="M364 93v-3.5a1.5 1.5 0 0 0-3 0V92a1 1 0 0 0 1 1z" style="fill:#41b02f;fill-rule:nonzero" transform="translate(-334 -55.998)"/></g><g style="clip-rule:evenodd;display:inline;fill-rule:evenodd;enable-background:new"><path d="M367 93v-6.5a1.5 1.5 0 0 0-3 0V93z" style="fill:#239310;fill-rule:nonzero" transform="translate(-334 -55.998)"/></g><g style="clip-rule:evenodd;display:inline;fill-rule:evenodd;enable-background:new"><path d="M370 92v-.5a1.5 1.5 0 0 0-3 0V93h2a1 1 0 0 0 1-1z" style="fill:#41b02f;fill-rule:nonzero" transform="translate(-334 -55.998)"/></g><g style="clip-rule:evenodd;display:inline;fill-rule:evenodd;enable-background:new"><path style="fill:#92e285;fill-rule:nonzero" d="M362 89h1v4h-1z" transform="translate(-334 -55.998)"/></g><g style="clip-rule:evenodd;display:inline;fill-rule:evenodd;enable-background:new"><path style="fill:#41b02f;fill-rule:nonzero" d="M365 86h1v7h-1z" transform="translate(-334 -55.998)"/></g><g style="clip-rule:evenodd;display:inline;fill-rule:evenodd;enable-background:new"><path style="fill:#92e285;fill-rule:nonzero" d="M368 91h1v2h-1z" transform="translate(-334 -55.998)"/></g><path style="fill:#fff;fill-rule:evenodd;stroke-width:3;stroke-linecap:square" d="M6 8h1v1H6zM6 10h1v1H6zM6 12h1v1H6zM6 14h1v1H6zM6 16h1v1H6zM6 18h1v1H6zM6 20h1v1H6zM6 22h1v1H6zM6 24h1v1H6zM6 26h1v1H6zM6 28h1v1H6zM6 30h1v1H6zM6 32h1v1H6zM6 34h1v1H6zM6 36h1v1H6zM6 38h1v1H6z"/></svg>