<svg height="52" width="60" xmlns:xlink="http://www.w3.org/1999/xlink" xmlns="http://www.w3.org/2000/svg"><linearGradient id="b"><stop offset="0" stop-color="#77216f"/><stop offset="1" stop-color="#945c93"/></linearGradient><linearGradient id="a"><stop offset="0" stop-color="#e95420"/><stop offset="1" stop-color="#fe865c"/></linearGradient><linearGradient id="d" gradientTransform="matrix(.88889 0 0 .5212 4.889 -504.02)" gradientUnits="userSpaceOnUse" x1="8" x2="26" xlink:href="#a" y1="1043.862" y2="1043.862"/><linearGradient id="f" gradientTransform="matrix(.88889 0 0 .5212 27.887 -504.045)" gradientUnits="userSpaceOnUse" x1="8" x2="26" xlink:href="#a" y1="1043.862" y2="1043.862"/><linearGradient id="e" gradientTransform="matrix(.88889 0 0 .5212 31.889 -510.02)" gradientUnits="userSpaceOnUse" x1="8" x2="26" xlink:href="#b" y1="1043.862" y2="1043.862"/><linearGradient id="c" gradientTransform="matrix(.88889 0 0 .5212 8.889 -510.02)" gradientUnits="userSpaceOnUse" x1="8" x2="26" xlink:href="#b" y1="1043.862" y2="1043.862"/><path d="M0 0h60v52H0z" fill="#fff"/><path d="M14 37 2 49" fill="none" stroke="#232629"/><path d="M13 37h46v.987H13z" fill="#232629"/><path d="M13 2h1v36h-1z" fill="#232629"/><path d="M16 17a8 4 0 0 0 0 .014 8 4.512 0 0 0 0 .011V25a8 4 0 0 0 0 .014 8 4.512 0 0 0 0 .011 8 4.512 0 0 0 0 .002V31a8 4 0 0 0 0 .016 8 4.512 0 0 0 0 .011V33a8 4 0 0 0 0 .014 8 4.512 0 0 0 0 .013v5.975a8 4 0 0 0 0 .014 8 4.512 0 0 0 0 .011h.002A8 4 0 0 0 24 43a8 4 0 0 0 7.998-3.974H32a8 4.512 0 0 0-.002-.014A8 4 0 0 0 32 39V17z" fill="url(#c)" style="fill:#6f8396;fill-opacity:1"/><path d="M12 37v8a8 4 0 0 0 0 .014 8 4.512 0 0 0 0 .012h.002A8 4 0 0 0 20 49a8 4 0 0 0 7.998-3.975H28a8 4.512 0 0 0-.002-.014A8 4 0 0 0 28 45v-8H12z" fill="url(#d)" style="fill:#6f8396;fill-opacity:1"/><ellipse cx="24" cy="16.998" fill="#987197" rx="8" ry="4" style="fill:#6f8396;fill-opacity:1"/><path d="M39 9v7.998a8 4 0 0 0 0 .016 8 4.512 0 0 0 0 .012v7.975a8 4 0 0 0 0 .014 8 4.512 0 0 0 0 .012v5.972a8 4 0 0 0 0 .016 8 4.512 0 0 0 0 .012v7.975a8 4 0 0 0 0 .014 8 4.512 0 0 0 0 .012h.002A8 4 0 0 0 47 43a8 4 0 0 0 7.998-3.975H55a8 4.512 0 0 0-.002-.014A8 4 0 0 0 55 39V9.001H39z" fill="url(#e)" style="fill:#6f8396;fill-opacity:1"/><path d="M34.998 28.975v8a8 4 0 0 0 0 .014 8 4.512 0 0 0 0 .012v7.974a8 4 0 0 0 0 .014 8 4.512 0 0 0 0 .012H35a8 4 0 0 0 7.998 3.975A8 4 0 0 0 50.996 45h.002a8 4.512 0 0 0-.002-.014 8 4 0 0 0 .002-.012V28.976h-16z" fill="url(#f)" style="fill:#6f8396;fill-opacity:1"/><ellipse cx="47" cy="8.998" fill="#987197" rx="8" ry="4" style="fill:#6f8396;fill-opacity:1"/><path d="M12 37v8a8 4 0 0 0 0 .014 8 4.512 0 0 0 0 .012h.002A8 4 0 0 0 20 49a8 4 0 0 0 7.998-3.975H28a8 4.512 0 0 0-.002-.014A8 4 0 0 0 28 45v-8H12z" fill="url(#d)" style="fill:#fff;fill-opacity:1;opacity:.4"/><path d="M34.998 28.975v8a8 4 0 0 0 0 .014 8 4.512 0 0 0 0 .012v7.974a8 4 0 0 0 0 .014 8 4.512 0 0 0 0 .012H35a8 4 0 0 0 7.998 3.975A8 4 0 0 0 50.996 45h.002a8 4.512 0 0 0-.002-.014 8 4 0 0 0 .002-.012V28.976h-16z" fill="url(#f)" style="fill:#fff;fill-opacity:1;opacity:.4"/><ellipse cx="20" cy="37" fill="#fe865c" rx="8" ry="4" style="fill:#6f8396;fill-opacity:1"/><ellipse cx="42.998" cy="28.974" fill="#fe865c" rx="8" ry="4" style="fill:#6f8396;fill-opacity:1"/><ellipse cx="20" cy="37" fill="#fe865c" rx="8" ry="4" style="fill:#fff;fill-opacity:1;opacity:.6"/><ellipse cx="42.998" cy="28.974" fill="#fe865c" rx="8" ry="4" style="fill:#fff;fill-opacity:1;opacity:.6"/><ellipse cx="24" cy="16.998" fill="#987197" rx="8" ry="4" style="fill:#fff;fill-opacity:1;opacity:.3"/><ellipse cx="47" cy="8.998" fill="#987197" rx="8" ry="4" style="fill:#fff;fill-opacity:1;opacity:.3"/></svg>