<svg height="52" width="60" xmlns:xlink="http://www.w3.org/1999/xlink" xmlns="http://www.w3.org/2000/svg"><linearGradient id="a"><stop offset="0" stop-color="#e95420"/><stop offset="1" stop-color="#fe865c"/></linearGradient><linearGradient id="b"><stop offset="0" stop-color="#77216f"/><stop offset="1" stop-color="#945c93"/></linearGradient><linearGradient id="c" gradientTransform="matrix(.98462 0 0 1.875 .21 -1875.804)" gradientUnits="userSpaceOnUse" x1="19" x2="19" xlink:href="#a" y1="1023.362" y2="1015.362"/><linearGradient id="d" gradientTransform="matrix(.98462 0 0 1.875 20.21 -1875.804)" gradientUnits="userSpaceOnUse" x1="19" x2="19" xlink:href="#b" y1="1023.362" y2="1015.362"/><linearGradient id="f" gradientTransform="matrix(.98462 0 0 1.875 20.21 -1895.804)" gradientUnits="userSpaceOnUse" x1="19" x2="19" xlink:href="#b" y1="1023.362" y2="1015.362"/><linearGradient id="e" gradientTransform="matrix(.98462 0 0 1.875 .21 -1895.804)" gradientUnits="userSpaceOnUse" x1="19" x2="19" xlink:href="#a" y1="1023.362" y2="1015.362"/><path d="M0 0h60v52H0z" fill="#fff"/><g fill="#232629"><path d="m11.646 39.646-9 9 .708.707 9-9z" fill-rule="evenodd"/><path d="M11 40.006h46v.988H11zM9 3h1v38H9z"/></g><path d="M7 28a4 7.5 0 0 0-4 7.5A4 7.5 0 0 0 7 43h28V28z" fill="url(#c)" style="fill:#6f8396;fill-opacity:1"/><path d="M7 28a4 7.5 0 0 0-4 7.5A4 7.5 0 0 0 7 43h28V28z" fill="url(#c)" style="fill:#fff;fill-opacity:1;opacity:.4"/><path d="M27 28c-2.21 0-4 3.358-4 7.5 0 4.142 1.79 7.5 4 7.5h22V28z" fill="url(#d)" style="fill:#6f8396;fill-opacity:1"/><ellipse cx="35.5" cy="-49" fill="#987197" rx="7.5" ry="4" transform="rotate(90)" style="fill:#6f8396;fill-opacity:1"/><path d="M7 8a4 7.5 0 0 0-4 7.5A4 7.5 0 0 0 7 23h28V8z" fill="url(#e)" style="fill:#6f8396;fill-opacity:1"/><path d="M7 8a4 7.5 0 0 0-4 7.5A4 7.5 0 0 0 7 23h28V8z" fill="url(#e)" style="fill:#fff;fill-opacity:1;opacity:.4"/><path d="M19 8c-2.21 0-4 3.358-4 7.5 0 4.142 1.79 7.5 4 7.5h30V8H27z" fill="url(#f)" style="fill:#6f8396;fill-opacity:1"/><ellipse cx="15.5" cy="-49" fill="#987197" rx="7.5" ry="4" transform="rotate(90)" style="fill:#6f8396;fill-opacity:1"/><g fill="#fff"><path d="M37 11.5a2 2 0 0 0-2 2 2 2 0 0 0 2 2 2 2 0 0 0 2-2 2 2 0 0 0-2-2zm0 1a1 1 0 0 1 1 1 1 1 0 0 1-1 1 1 1 0 0 1-1-1 1 1 0 0 1 1-1zM41 15.5a2 2 0 0 0-2 2 2 2 0 0 0 2 2 2 2 0 0 0 2-2 2 2 0 0 0-2-2zm0 1a1 1 0 0 1 1 1 1 1 0 0 1-1 1 1 1 0 0 1-1-1 1 1 0 0 1 1-1z"/><path d="m41.6 11.2-6 8 .8.6 6-8z" fill-rule="evenodd"/></g><ellipse cx="35.5" cy="-49" fill="#987197" rx="7.5" ry="4" transform="rotate(90)" style="fill:#fff;fill-opacity:1;opacity:.2"/><ellipse cx="15.5" cy="-49" fill="#987197" rx="7.5" ry="4" transform="rotate(90)" style="fill:#fff;fill-opacity:1;opacity:.2"/></svg>