<svg height="52" width="60" xmlns:xlink="http://www.w3.org/1999/xlink" xmlns="http://www.w3.org/2000/svg"><linearGradient id="a"><stop offset="0" stop-color="#e95420"/><stop offset="1" stop-color="#fe865c"/></linearGradient><radialGradient id="c" cx="30" cy="-34" gradientTransform="matrix(1 0 0 .93474 0 56.28)" gradientUnits="userSpaceOnUse" r="14" xlink:href="#a"/><radialGradient id="d" cx="30" cy="-31.107" gradientTransform="matrix(1.4152 0 0 1.32285 -12.456 65.65)" gradientUnits="userSpaceOnUse" r="9.893" xlink:href="#b"/><linearGradient id="b"><stop offset="0" stop-color="#77216f"/><stop offset="1" stop-color="#a25f9e"/></linearGradient><radialGradient id="e" cx="30" cy="26" gradientTransform="matrix(1 0 0 .93474 0 .196)" gradientUnits="userSpaceOnUse" r="23" xlink:href="#b"/><radialGradient id="f" cx="30" cy="21.246" gradientTransform="matrix(-1.41504 0 0 -1.3227 72.451 52.601)" gradientUnits="userSpaceOnUse" r="16.254" xlink:href="#a"/><path d="M0 0h60v52H0z" fill="#fff"/><path d="M52.969 25.09a23 21.5 0 0 1-6.719 14.566v2.6A23 23 0 0 0 53 26a23 23 0 0 0-.031-.91zM46.25 42.256A23 23 0 0 1 30 49a23 23 0 0 0 16.25-6.744zM30 49a23 23 0 0 1-1.795-.076A23 23 0 0 0 30 49zM7.031 25.361A23 23 0 0 0 7 26a23 23 0 0 0 6.748 16.254v-2.57A23 21.5 0 0 1 7.031 25.36zm6.717 16.893a23 23 0 0 0 1.617 1.465 23 23 0 0 1-1.617-1.465zm30.865-1.203a23 21.5 0 0 1-.117.092 23 21.5 0 0 0 .117-.092zm-1.83 1.277a23 21.5 0 0 1-.148.092 23 21.5 0 0 0 .148-.092zm-1.879 1.06a23 21.5 0 0 1-.328.167 23 21.5 0 0 0 .328-.166zm-25.435.423a23 23 0 0 0 1.7 1.255 23 23 0 0 1-1.7-1.256zm23.447.47a23 21.5 0 0 1-.5.194 23 21.5 0 0 0 .5-.194zm-2.084.715a23 21.5 0 0 1-.64.182 23 21.5 0 0 0 .64-.182zm-19.508.18a23 23 0 0 0 1.678.998 23 23 0 0 1-1.678-.998zm17.356.345a23 21.5 0 0 1-.803.147 23 21.5 0 0 0 .803-.147zm-2.172.325a23 21.5 0 0 1-1.045.092 23 21.5 0 0 0 1.045-.092zm-13.178.517a23 23 0 0 0 1.627.758 23 23 0 0 1-1.627-.758zm2.108.971a23 23 0 0 0 1.574.55 23 23 0 0 1-1.575-.55zm2.19.756a23 23 0 0 0 1.505.361 23 23 0 0 1-1.504-.361zm2.253.53a23 23 0 0 0 1.369.187 23 23 0 0 1-1.37-.188z" fill="#987197" style="fill:#6f8396;fill-opacity:1"/><path d="M30 11.412a14 13.086 0 0 0-11.576 5.748c-.026.035-.053.068-.078.104a14 13.086 0 0 0-.715 1.125c-.001 0-.003 0-.004.01a14 13.086 0 0 0-.414.818c-.057.12-.12.24-.174.361a14 13.086 0 0 0-.31.809 14 13.086 0 0 0-.354 1.18 14 13.086 0 0 0-.24 1.238c-.027.19-.057.379-.074.57A14 13.086 0 0 0 16 24.498a14 13.086 0 0 0 1 4.824V24h.023a13 12.152 0 0 1 3.79-8.09A13 12.152 0 0 1 30 12.348a13 12.152 0 0 1 9.187 3.562A13 12.152 0 0 1 42.973 24H43v5.34a14 13.086 0 0 0 .15-.387 14 13.086 0 0 0 .29-.812 14 13.086 0 0 0 .132-.483 14 13.086 0 0 0 .278-1.348 14 13.086 0 0 0 .09-.689 14 13.086 0 0 0 .06-1.123 14 13.086 0 0 0-7.285-11.467 14 13.086 0 0 0-.045-.024 14 13.086 0 0 0-.18-.096 14 13.086 0 0 0-1.049-.455 14 13.086 0 0 0-.148-.062 14 13.086 0 0 0-.043-.019 14 13.086 0 0 0-.002 0 14 13.086 0 0 0-1.176-.383 14 13.086 0 0 0-.168-.053 14 13.086 0 0 0-1.18-.263 14 13.086 0 0 0-.208-.045 14 13.086 0 0 0-.91-.116 14 13.086 0 0 0-.503-.057A14 13.086 0 0 0 30 11.412zm0 8.414a5 4.674 0 0 0-.92.08 5 4.674 0 0 1 .92-.08zm.994.094a5 4.674 0 0 1 1.402.48 5 4.674 0 0 0-1.402-.48zm-4.79 1.545a5 4.674 0 0 0-.257.309 5 4.674 0 0 1 .256-.309zm-.311.375a5 4.674 0 0 0-.182.274 5 4.674 0 0 1 .182-.274zm-.266.402a5 4.674 0 0 0-.166.315 5 4.674 0 0 1 .166-.314zm-.217.413a5 4.674 0 0 0-.148.369 5 4.674 0 0 1 .148-.37zm-.176.437a5 4.674 0 0 0-.103.37 5 4.674 0 0 1 .103-.37zm-.127.453a5 4.674 0 0 0-.076.455 5 4.674 0 0 1 .076-.455zm17.885 5.815c-.117.273-.249.537-.385.8a14 13.086 0 0 0 .385-.8zm-.578 1.177c-.137.247-.288.484-.441.721a14 13.086 0 0 0 .441-.72zm-24.676.274a14 13.086 0 0 0 .698 1.06 12.96 12.96 0 0 1-.698-1.06zm.854 1.258a14 13.086 0 0 0 .664.816 13.318 13.318 0 0 1-.664-.816zm.982 1.142a14 13.086 0 0 0 .613.617c-.214-.197-.412-.407-.613-.617zm1.01.953a14 13.086 0 0 0 .621.51c-.214-.162-.417-.336-.621-.51zm1.08.83a14 13.086 0 0 0 .662.444c-.227-.14-.444-.292-.662-.444zm1.106.696a14 13.086 0 0 0 .771.414c-.264-.129-.518-.27-.771-.414zm1.173.596a14 13.086 0 0 0 .858.359c-.292-.11-.576-.233-.858-.36zm1.291.505a14 13.086 0 0 0 .87.272c-.296-.08-.583-.175-.87-.272zm1.387.395a14 13.086 0 0 0 .803.168 14.141 14.141 0 0 1-.803-.168zm1.442.26a14 13.086 0 0 0 .736.084c-.248-.02-.492-.052-.736-.084z" fill="#945c93" style="fill:#6f8396;fill-opacity:1"/><path d="M18.424 17.16a14 13.086 0 0 0-.078.104c.025-.035.052-.068.078-.104zm-.645.988a14 13.086 0 0 0-.152.246c.047-.084.103-.163.152-.246zm-.566 1.065a14 13.086 0 0 0-.174.361c.053-.122.117-.24.174-.361zm-.484 1.17a14 13.086 0 0 0-.147.416c.044-.14.097-.277.147-.416zm-.354 1.18a14 13.086 0 0 0-.123.513c.035-.172.08-.343.123-.514zm-.24 1.238a14 13.086 0 0 0-.074.57c.017-.191.047-.38.074-.57zM17 24v.498a13 12.152 0 0 1 .023-.498zm0 .498v4.826a14 13.086 0 0 0 1.26 2.278 14 13.086 0 0 0 .035.055 14 13.086 0 0 0 .797 1.027 14 13.086 0 0 0 .02.025 14 13.086 0 0 0 .859.9 14 13.086 0 0 0 .086.088 14 13.086 0 0 0 .888.764 14 13.086 0 0 0 .162.133 14 13.086 0 0 0 .916.64 14 13.086 0 0 0 .211.143 14 13.086 0 0 0 .944.531 14 13.086 0 0 0 .27.145 14 13.086 0 0 0 .95.424 14 13.086 0 0 0 .327.136 14 13.086 0 0 0 .89.297 14 13.086 0 0 0 .446.139 14 13.086 0 0 0 .87.201 14 13.086 0 0 0 1.311.215 14 13.086 0 0 0 1.758.12 14 13.086 0 0 0 12.94-8.116c.016-.037.036-.072.052-.11a14 13.086 0 0 0 .008-.016v-4.845A13 12.152 0 0 1 30 36.65a13 12.152 0 0 1-13-12.152zm26 0V24h-.027a13 12.152 0 0 1 .027.498zm.94 1.123c-.022.232-.056.461-.09.69a14 13.086 0 0 0 .09-.69zm-.188 1.285c-.05.254-.114.504-.18.752a14 13.086 0 0 0 .18-.752zm-.313 1.235c-.085.276-.185.544-.289.812a14 13.086 0 0 0 .29-.812zm-1.025 2.396c-.137.246-.288.484-.441.72a14 13.086 0 0 0 .441-.72zm-.71 1.135c-.15.212-.313.415-.475.619a14 13.086 0 0 0 .474-.62zm-.82 1.049c-.173.2-.358.39-.544.58a14 13.086 0 0 0 .545-.58zm-.904.95c-.21.201-.435.386-.66.573a14 13.086 0 0 0 .66-.572zm-1.01.872c-.28.219-.574.42-.872.62a14 13.086 0 0 0 .873-.62zm-1.083.766c-.366.233-.745.45-1.135.652a14 13.086 0 0 0 1.135-.652z" fill="#fe865c" style="fill:#6f8396;fill-opacity:1"/><path d="M26.437 21.225C25.641 21.96 24.01 23.042 25 27c.04-.015.08-.05.12-.068a5 5 0 0 1 1.317-2.428v-3.279Zm7.157.029v3.275a5 5 0 0 1 1.25 2.246c.053.08.102.143.156.225.978-3.914-.6-5.01-1.406-5.746zm-3.973 1.765a5 5 0 0 0-.217.021 5 5 0 0 1 .217-.02zm-.504.064a5 5 0 0 0-.191.04 5 5 0 0 1 .191-.04zm-.515.121a5 5 0 0 0-.118.037 5 5 0 0 1 .118-.037zm-.493.174a5 5 0 0 0-.068.03 5 5 0 0 1 .068-.03zm-.447.21a5 5 0 0 0-.078.042 5 5 0 0 1 .078-.043zm-.433.259a5 5 0 0 0-.061.04 5 5 0 0 1 .06-.04z" fill="#fe865c" style="fill:#6f8396"/><path d="M26.437 21.225C25.641 21.96 24.01 23.042 25 27c.04-.015.08-.05.12-.068a5 5 0 0 1 1.317-2.428v-3.279Zm7.157.029v3.275a5 5 0 0 1 1.25 2.246c.053.08.102.143.156.225.978-3.914-.6-5.01-1.406-5.746zm-3.973 1.765a5 5 0 0 0-.217.021 5 5 0 0 1 .217-.02zm-.504.064a5 5 0 0 0-.191.04 5 5 0 0 1 .191-.04zm-.515.121a5 5 0 0 0-.118.037 5 5 0 0 1 .118-.037zm-.493.174a5 5 0 0 0-.068.03 5 5 0 0 1 .068-.03zm-.447.21a5 5 0 0 0-.078.042 5 5 0 0 1 .078-.043zm-.433.259a5 5 0 0 0-.061.04 5 5 0 0 1 .06-.04z" fill="#fe865c" style="fill:#fff;opacity:.6"/><path d="M20.813 15.911A13 12.152 0 0 0 17 24.5a13 12.152 0 0 0 13 12.152 13 12.152 0 0 0 13-12.152 13 12.152 0 0 0-3.813-8.588l-5.654 5.285A5 4.674 0 0 1 35 24.5a5 4.674 0 0 1-5 4.674 5 4.674 0 0 1-5-4.674 5 4.674 0 0 1 1.467-3.303zm-2.39 1.249-.077.104a14 13.086 0 0 1 .078-.104zm-.644.988c-.05.083-.105.162-.152.246a14 13.086 0 0 1 .152-.246zm-.566 1.066c-.057.12-.12.237-.174.36a14 13.086 0 0 1 .174-.36zm-.484 1.168c-.05.139-.103.276-.147.416a14 13.086 0 0 1 .147-.416zm-.354 1.181c-.042.171-.088.34-.123.513a14 13.086 0 0 1 .123-.513zm-.24 1.238c-.027.19-.057.379-.074.57a14 13.086 0 0 1 .074-.57zm27.804 2.82a14 13.086 0 0 1-.09.69c.035-.23.07-.457.09-.69zm-.187 1.286a14 13.086 0 0 1-.18.75c.066-.248.13-.496.18-.75zm-27.473.192c.085.394.195.779.317 1.16a14 13.086 0 0 1-.317-1.16zm.317 1.16a14 13.086 0 0 0 .095.275c-.031-.092-.066-.183-.095-.276zm.095.275c.106.304.22.602.348.896a14 13.086 0 0 1-.348-.896zm.348.896a14 13.086 0 0 0 .115.263c-.04-.087-.077-.175-.115-.263zm.115.263c.17.367.353.73.557 1.08a14 13.086 0 0 1-.557-1.08zm26.285-1.552a14 13.086 0 0 1-.289.813c.104-.268.204-.537.29-.813zm-.447 1.218a14 13.086 0 0 1-.385.802c.136-.264.268-.53.385-.802zm-.578 1.178a14 13.086 0 0 1-.441.72c.153-.236.304-.474.441-.72zm-24.676.273c.215.365.447.719.698 1.061a14 13.086 0 0 1-.698-1.06zm23.965.862a14 13.086 0 0 1-.474.619c.162-.204.325-.406.474-.619zm-23.111.396c.212.279.43.554.664.816a14 13.086 0 0 1-.664-.816zm22.293.652a14 13.086 0 0 1-.545.58c.186-.19.371-.38.545-.58zm-21.31.491c.2.21.398.42.613.617a14 13.086 0 0 1-.614-.617zm20.405.46a14 13.086 0 0 1-.66.573c.225-.187.45-.372.66-.573zm-19.396.493c.204.174.407.347.621.51a14 13.086 0 0 1-.621-.51zm18.387.378a14 13.086 0 0 1-.873.62c.298-.197.592-.4.873-.62zm-17.307.453c.218.151.435.304.662.443a14 13.086 0 0 1-.662-.443zm16.223.314a14 13.086 0 0 1-1.135.652c.39-.202.769-.418 1.135-.652zm-15.117.381c.253.144.507.284.771.413a14 13.086 0 0 1-.771-.413zm13.94.296a14 13.086 0 0 1-1.153.52c.393-.159.78-.329 1.154-.52zm-1.153.52c-.093.037-.188.072-.282.108a14 13.086 0 0 0 .282-.108zm-.282.108a14 13.086 0 0 1-.959.325c.326-.098.645-.205.96-.325zm-.959.325c-.098.03-.195.062-.295.09a14 13.086 0 0 0 .295-.09zm-.295.09a14 13.086 0 0 1-1.24.296c.422-.08.834-.182 1.24-.296zm-10.078-.745c.282.127.566.25.858.36a14 13.086 0 0 1-.858-.36zm1.291.508c.287.097.574.19.87.27a14 13.086 0 0 1-.87-.27zm1.387.394c.266.062.532.12.803.168a14 13.086 0 0 1-.803-.168zm1.442.26c.244.031.488.063.736.083a14 13.086 0 0 1-.736-.084z" fill="url(#c)" style="fill:#6f8396;fill-opacity:1"/><path d="M30 19.827a5.176 5.176 0 0 0-3.533 1.371c-.008.01-.021.02-.03.027v3.28A5 5 0 0 1 30 23a5 5 0 0 1 3.594 1.53v-3.276c-.018-.016-.044-.04-.06-.057-.938-.877-2.208-1.37-3.534-1.37z" fill="#945c93" style="fill:#6f8396;fill-opacity:1"/><path d="M31.104 11.458a14 13.086 0 0 1 .501.057 14 13.086 0 0 0-.501-.057zm1.412.174a14 13.086 0 0 1 .41.086 14 13.086 0 0 0-.41-.086zm1.361.3a14 13.086 0 0 1 .371.114 14 13.086 0 0 0-.371-.115zM30 12.346a13 12.152 0 0 0-9.188 3.564l5.655 5.285A5 4.674 0 0 1 30 19.826a5 4.674 0 0 1 3.533 1.37l5.654-5.285A13 12.152 0 0 0 30 12.347zm5.227.018a14 13.086 0 0 1 .214.092 14 13.086 0 0 0-.214-.092zm1.263.546a14 13.086 0 0 1 .225.12 14 13.086 0 0 0-.225-.12z" fill="url(#d)" style="fill:#6f8396;fill-opacity:1"/><path d="M30 3A23 21.499 0 0 0 7 24.498a23 21.499 0 0 0 23 21.5 23 21.499 0 0 0 23-21.5A23 21.499 0 0 0 30 3zm0 8.412a14 13.086 0 0 1 1.164.053 14 13.086 0 0 1 1.422.182 14 13.086 0 0 1 1.328.297 14 13.086 0 0 1 1.352.437 14 13.086 0 0 1 1.24.54A14 13.086 0 0 1 44 24.497a14 13.086 0 0 1-.06 1.123 14 13.086 0 0 1-.083.635 14 13.086 0 0 1-.105.654 14 13.086 0 0 1-.148.618 14 13.086 0 0 1-.178.652 14 13.086 0 0 1-.223.623 14 13.086 0 0 1-.242.623 14 13.086 0 0 1-.285.592 14 13.086 0 0 1-.301.582 14 13.086 0 0 1-.334.547A14 13.086 0 0 1 30 37.586a14 13.086 0 0 1-1.912-.139h-.025a14 13.086 0 0 1-.64-.092 14 13.086 0 0 1-.683-.142 14 13.086 0 0 1-.683-.162 14 13.086 0 0 1-.686-.215 14 13.086 0 0 1-.644-.221 14 13.086 0 0 1-.62-.26 14 13.086 0 0 1-.62-.279 14 13.086 0 0 1-.663-.355 14 13.086 0 0 1-.545-.313 14 13.086 0 0 1-.61-.408h-.005a14 13.086 0 0 1-.516-.367 14 13.086 0 0 1-.539-.442c-.008-.01-.017-.014-.025-.022a14 13.086 0 0 1-.473-.412 14 13.086 0 0 1-.521-.525c-.005-.01-.01-.01-.016-.016a14 13.086 0 0 1-.398-.424 14 13.086 0 0 1-.45-.553 14 13.086 0 0 1-.372-.486 14 13.086 0 0 1-.397-.604A14 13.086 0 0 1 16 24.498a14 13.086 0 0 1 .06-1.127 14 13.086 0 0 1 .98-3.795 14 13.086 0 0 1 .587-1.18 14 13.086 0 0 1 .719-1.13A14 13.086 0 0 1 30 11.412zm-13.271 8.97c-.05.14-.103.277-.147.417a14 13.086 0 0 1 .147-.416zm-.354 1.18c-.042.171-.088.342-.123.514a14 13.086 0 0 1 .123-.513z" fill="url(#e)" style="fill:#6f8396;fill-opacity:1"/><path d="m20.107 33.746-6.36 5.946a23 21.499 0 0 0 .007.01 23 21.499 0 0 0 1.549 1.311 23 21.499 0 0 0 .176.144 23 21.499 0 0 0 1.627 1.123 23 21.499 0 0 0 .228.153 23 21.499 0 0 0 1.613.897 23 21.499 0 0 0 .393.21 23 21.499 0 0 0 1.566.683 23 21.499 0 0 0 .538.224 23 21.499 0 0 0 1.529.499 23 21.499 0 0 0 .66.206 23 21.499 0 0 0 1.47.328 23 21.499 0 0 0 .78.165 23 21.499 0 0 0 1.436.182 23 21.499 0 0 0 .863.098A23 21.499 0 0 0 30 46a23 21.499 0 0 0 16.158-6.223 23 21.499 0 0 0 .096-.082l-6.361-5.947A14 13.086 0 0 1 30 37.586a14 13.086 0 0 1-9.892-3.84z" fill="url(#f)" fill-rule="evenodd" style="fill:#6f8396;fill-opacity:1"/><path d="M46.25 39.656A23 21.5 0 0 1 30 46a23 21.5 0 0 1-16.252-6.316v2.57A23 23 0 0 0 30 49a23 23 0 0 0 16.25-6.744z" fill="#fe865c" style="fill:#6f8396;fill-opacity:1"/><path d="M30 11.412a14 13.086 0 0 0-11.576 5.748c-.026.035-.053.068-.078.104a14 13.086 0 0 0-.715 1.125c-.001 0-.003 0-.004.01a14 13.086 0 0 0-.414.818c-.057.12-.12.24-.174.361a14 13.086 0 0 0-.31.809 14 13.086 0 0 0-.354 1.18 14 13.086 0 0 0-.24 1.238c-.027.19-.057.379-.074.57A14 13.086 0 0 0 16 24.498a14 13.086 0 0 0 1 4.824V24h.023a13 12.152 0 0 1 3.79-8.09A13 12.152 0 0 1 30 12.348a13 12.152 0 0 1 9.187 3.562A13 12.152 0 0 1 42.973 24H43v5.34a14 13.086 0 0 0 .15-.387 14 13.086 0 0 0 .29-.812 14 13.086 0 0 0 .132-.483 14 13.086 0 0 0 .278-1.348 14 13.086 0 0 0 .09-.689 14 13.086 0 0 0 .06-1.123 14 13.086 0 0 0-7.285-11.467 14 13.086 0 0 0-.045-.024 14 13.086 0 0 0-.18-.096 14 13.086 0 0 0-1.049-.455 14 13.086 0 0 0-.148-.062 14 13.086 0 0 0-.043-.019 14 13.086 0 0 0-.002 0 14 13.086 0 0 0-1.176-.383 14 13.086 0 0 0-.168-.053 14 13.086 0 0 0-1.18-.263 14 13.086 0 0 0-.208-.045 14 13.086 0 0 0-.91-.116 14 13.086 0 0 0-.503-.057A14 13.086 0 0 0 30 11.412zm0 8.414a5 4.674 0 0 0-.92.08 5 4.674 0 0 1 .92-.08zm.994.094a5 4.674 0 0 1 1.402.48 5 4.674 0 0 0-1.402-.48zm-4.79 1.545a5 4.674 0 0 0-.257.309 5 4.674 0 0 1 .256-.309zm-.311.375a5 4.674 0 0 0-.182.274 5 4.674 0 0 1 .182-.274zm-.266.402a5 4.674 0 0 0-.166.315 5 4.674 0 0 1 .166-.314zm-.217.413a5 4.674 0 0 0-.148.369 5 4.674 0 0 1 .148-.37zm-.176.437a5 4.674 0 0 0-.103.37 5 4.674 0 0 1 .103-.37zm-.127.453a5 4.674 0 0 0-.076.455 5 4.674 0 0 1 .076-.455zm17.885 5.815c-.117.273-.249.537-.385.8a14 13.086 0 0 0 .385-.8zm-.578 1.177c-.137.247-.288.484-.441.721a14 13.086 0 0 0 .441-.72zm-24.676.274a14 13.086 0 0 0 .698 1.06 12.96 12.96 0 0 1-.698-1.06zm.854 1.258a14 13.086 0 0 0 .664.816 13.318 13.318 0 0 1-.664-.816zm.982 1.142a14 13.086 0 0 0 .613.617c-.214-.197-.412-.407-.613-.617zm1.01.953a14 13.086 0 0 0 .621.51c-.214-.162-.417-.336-.621-.51zm1.08.83a14 13.086 0 0 0 .662.444c-.227-.14-.444-.292-.662-.444zm1.106.696a14 13.086 0 0 0 .771.414c-.264-.129-.518-.27-.771-.414zm1.173.596a14 13.086 0 0 0 .858.359c-.292-.11-.576-.233-.858-.36zm1.291.505a14 13.086 0 0 0 .87.272c-.296-.08-.583-.175-.87-.272zm1.387.395a14 13.086 0 0 0 .803.168 14.141 14.141 0 0 1-.803-.168zm1.442.26a14 13.086 0 0 0 .736.084c-.248-.02-.492-.052-.736-.084z" fill="#945c93" style="fill:#fff;fill-opacity:1;opacity:.3"/><path d="M52.969 25.09a23 21.5 0 0 1-6.719 14.566v2.6A23 23 0 0 0 53 26a23 23 0 0 0-.031-.91zM46.25 42.256A23 23 0 0 1 30 49a23 23 0 0 0 16.25-6.744zM30 49a23 23 0 0 1-1.795-.076A23 23 0 0 0 30 49zM7.031 25.361A23 23 0 0 0 7 26a23 23 0 0 0 6.748 16.254v-2.57A23 21.5 0 0 1 7.031 25.36zm6.717 16.893a23 23 0 0 0 1.617 1.465 23 23 0 0 1-1.617-1.465zm30.865-1.203a23 21.5 0 0 1-.117.092 23 21.5 0 0 0 .117-.092zm-1.83 1.277a23 21.5 0 0 1-.148.092 23 21.5 0 0 0 .148-.092zm-1.879 1.06a23 21.5 0 0 1-.328.167 23 21.5 0 0 0 .328-.166zm-25.435.423a23 23 0 0 0 1.7 1.255 23 23 0 0 1-1.7-1.256zm23.447.47a23 21.5 0 0 1-.5.194 23 21.5 0 0 0 .5-.194zm-2.084.715a23 21.5 0 0 1-.64.182 23 21.5 0 0 0 .64-.182zm-19.508.18a23 23 0 0 0 1.678.998 23 23 0 0 1-1.678-.998zm17.356.345a23 21.5 0 0 1-.803.147 23 21.5 0 0 0 .803-.147zm-2.172.325a23 21.5 0 0 1-1.045.092 23 21.5 0 0 0 1.045-.092zm-13.178.517a23 23 0 0 0 1.627.758 23 23 0 0 1-1.627-.758zm2.108.971a23 23 0 0 0 1.574.55 23 23 0 0 1-1.575-.55zm2.19.756a23 23 0 0 0 1.505.361 23 23 0 0 1-1.504-.361zm2.253.53a23 23 0 0 0 1.369.187 23 23 0 0 1-1.37-.188z" fill="#987197" style="fill:#fff;fill-opacity:1;opacity:.3"/><path d="M30 19.827a5.176 5.176 0 0 0-3.533 1.371c-.008.01-.021.02-.03.027v3.28A5 5 0 0 1 30 23a5 5 0 0 1 3.594 1.53v-3.276c-.018-.016-.044-.04-.06-.057-.938-.877-2.208-1.37-3.534-1.37z" fill="#945c93" style="fill:#fff;fill-opacity:1;opacity:.3"/><path d="M20.813 15.911A13 12.152 0 0 0 17 24.5a13 12.152 0 0 0 13 12.152 13 12.152 0 0 0 13-12.152 13 12.152 0 0 0-3.813-8.588l-5.654 5.285A5 4.674 0 0 1 35 24.5a5 4.674 0 0 1-5 4.674 5 4.674 0 0 1-5-4.674 5 4.674 0 0 1 1.467-3.303zm-2.39 1.249-.077.104a14 13.086 0 0 1 .078-.104zm-.644.988c-.05.083-.105.162-.152.246a14 13.086 0 0 1 .152-.246zm-.566 1.066c-.057.12-.12.237-.174.36a14 13.086 0 0 1 .174-.36zm-.484 1.168c-.05.139-.103.276-.147.416a14 13.086 0 0 1 .147-.416zm-.354 1.181c-.042.171-.088.34-.123.513a14 13.086 0 0 1 .123-.513zm-.24 1.238c-.027.19-.057.379-.074.57a14 13.086 0 0 1 .074-.57zm27.804 2.82a14 13.086 0 0 1-.09.69c.035-.23.07-.457.09-.69zm-.187 1.286a14 13.086 0 0 1-.18.75c.066-.248.13-.496.18-.75zm-27.473.192c.085.394.195.779.317 1.16a14 13.086 0 0 1-.317-1.16zm.317 1.16a14 13.086 0 0 0 .095.275c-.031-.092-.066-.183-.095-.276zm.095.275c.106.304.22.602.348.896a14 13.086 0 0 1-.348-.896zm.348.896a14 13.086 0 0 0 .115.263c-.04-.087-.077-.175-.115-.263zm.115.263c.17.367.353.73.557 1.08a14 13.086 0 0 1-.557-1.08zm26.285-1.552a14 13.086 0 0 1-.289.813c.104-.268.204-.537.29-.813zm-.447 1.218a14 13.086 0 0 1-.385.802c.136-.264.268-.53.385-.802zm-.578 1.178a14 13.086 0 0 1-.441.72c.153-.236.304-.474.441-.72zm-24.676.273c.215.365.447.719.698 1.061a14 13.086 0 0 1-.698-1.06zm23.965.862a14 13.086 0 0 1-.474.619c.162-.204.325-.406.474-.619zm-23.111.396c.212.279.43.554.664.816a14 13.086 0 0 1-.664-.816zm22.293.652a14 13.086 0 0 1-.545.58c.186-.19.371-.38.545-.58zm-21.31.491c.2.21.398.42.613.617a14 13.086 0 0 1-.614-.617zm20.405.46a14 13.086 0 0 1-.66.573c.225-.187.45-.372.66-.573zm-19.396.493c.204.174.407.347.621.51a14 13.086 0 0 1-.621-.51zm18.387.378a14 13.086 0 0 1-.873.62c.298-.197.592-.4.873-.62zm-17.307.453c.218.151.435.304.662.443a14 13.086 0 0 1-.662-.443zm16.223.314a14 13.086 0 0 1-1.135.652c.39-.202.769-.418 1.135-.652zm-15.117.381c.253.144.507.284.771.413a14 13.086 0 0 1-.771-.413zm13.94.296a14 13.086 0 0 1-1.153.52c.393-.159.78-.329 1.154-.52zm-1.153.52c-.093.037-.188.072-.282.108a14 13.086 0 0 0 .282-.108zm-.282.108a14 13.086 0 0 1-.959.325c.326-.098.645-.205.96-.325zm-.959.325c-.098.03-.195.062-.295.09a14 13.086 0 0 0 .295-.09zm-.295.09a14 13.086 0 0 1-1.24.296c.422-.08.834-.182 1.24-.296zm-10.078-.745c.282.127.566.25.858.36a14 13.086 0 0 1-.858-.36zm1.291.508c.287.097.574.19.87.27a14 13.086 0 0 1-.87-.27zm1.387.394c.266.062.532.12.803.168a14 13.086 0 0 1-.803-.168zm1.442.26c.244.031.488.063.736.083a14 13.086 0 0 1-.736-.084z" fill="url(#c)" style="fill:#fff;fill-opacity:1;opacity:.4"/><path d="m20.107 33.746-6.36 5.946a23 21.499 0 0 0 .007.01 23 21.499 0 0 0 1.549 1.311 23 21.499 0 0 0 .176.144 23 21.499 0 0 0 1.627 1.123 23 21.499 0 0 0 .228.153 23 21.499 0 0 0 1.613.897 23 21.499 0 0 0 .393.21 23 21.499 0 0 0 1.566.683 23 21.499 0 0 0 .538.224 23 21.499 0 0 0 1.529.499 23 21.499 0 0 0 .66.206 23 21.499 0 0 0 1.47.328 23 21.499 0 0 0 .78.165 23 21.499 0 0 0 1.436.182 23 21.499 0 0 0 .863.098A23 21.499 0 0 0 30 46a23 21.499 0 0 0 16.158-6.223 23 21.499 0 0 0 .096-.082l-6.361-5.947A14 13.086 0 0 1 30 37.586a14 13.086 0 0 1-9.892-3.84z" fill="url(#f)" fill-rule="evenodd" style="fill:#fff;fill-opacity:1;opacity:.4"/><path d="M18.424 17.16a14 13.086 0 0 0-.078.104c.025-.035.052-.068.078-.104zm-.645.988a14 13.086 0 0 0-.152.246c.047-.084.103-.163.152-.246zm-.566 1.065a14 13.086 0 0 0-.174.361c.053-.122.117-.24.174-.361zm-.484 1.17a14 13.086 0 0 0-.147.416c.044-.14.097-.277.147-.416zm-.354 1.18a14 13.086 0 0 0-.123.513c.035-.172.08-.343.123-.514zm-.24 1.238a14 13.086 0 0 0-.074.57c.017-.191.047-.38.074-.57zM17 24v.498a13 12.152 0 0 1 .023-.498zm0 .498v4.826a14 13.086 0 0 0 1.26 2.278 14 13.086 0 0 0 .035.055 14 13.086 0 0 0 .797 1.027 14 13.086 0 0 0 .02.025 14 13.086 0 0 0 .859.9 14 13.086 0 0 0 .086.088 14 13.086 0 0 0 .888.764 14 13.086 0 0 0 .162.133 14 13.086 0 0 0 .916.64 14 13.086 0 0 0 .211.143 14 13.086 0 0 0 .944.531 14 13.086 0 0 0 .27.145 14 13.086 0 0 0 .95.424 14 13.086 0 0 0 .327.136 14 13.086 0 0 0 .89.297 14 13.086 0 0 0 .446.139 14 13.086 0 0 0 .87.201 14 13.086 0 0 0 1.311.215 14 13.086 0 0 0 1.758.12 14 13.086 0 0 0 12.94-8.116c.016-.037.036-.072.052-.11a14 13.086 0 0 0 .008-.016v-4.845A13 12.152 0 0 1 30 36.65a13 12.152 0 0 1-13-12.152zm26 0V24h-.027a13 12.152 0 0 1 .027.498zm.94 1.123c-.022.232-.056.461-.09.69a14 13.086 0 0 0 .09-.69zm-.188 1.285c-.05.254-.114.504-.18.752a14 13.086 0 0 0 .18-.752zm-.313 1.235c-.085.276-.185.544-.289.812a14 13.086 0 0 0 .29-.812zm-1.025 2.396c-.137.246-.288.484-.441.72a14 13.086 0 0 0 .441-.72zm-.71 1.135c-.15.212-.313.415-.475.619a14 13.086 0 0 0 .474-.62zm-.82 1.049c-.173.2-.358.39-.544.58a14 13.086 0 0 0 .545-.58zm-.904.95c-.21.201-.435.386-.66.573a14 13.086 0 0 0 .66-.572zm-1.01.872c-.28.219-.574.42-.872.62a14 13.086 0 0 0 .873-.62zm-1.083.766c-.366.233-.745.45-1.135.652a14 13.086 0 0 0 1.135-.652zM46.25 39.656A23 21.5 0 0 1 30 46a23 21.5 0 0 1-16.252-6.316v2.57A23 23 0 0 0 30 49a23 23 0 0 0 16.25-6.744z" fill="#fe865c" style="fill:#fff;fill-opacity:1;opacity:.6"/></svg>