<svg xmlns="http://www.w3.org/2000/svg" xmlns:xlink="http://www.w3.org/1999/xlink" viewBox="0 0 140 120"><defs><linearGradient gradientTransform="translate(-274 -26.5)" xlink:href="#a" id="e" x1="348" y1="67.001" x2="348" y2="105" gradientUnits="userSpaceOnUse"/><linearGradient id="a"><stop style="stop-color:#fff;stop-opacity:1" offset="0"/><stop offset=".125" style="stop-color:#fff;stop-opacity:.09803922"/><stop offset=".925" style="stop-color:#fff;stop-opacity:.09803922"/><stop style="stop-color:#000;stop-opacity:.49803922" offset="1"/></linearGradient><linearGradient xlink:href="#b" id="d" gradientUnits="userSpaceOnUse" gradientTransform="translate(42 24.011) scale(.11328)" x1="512" y1="397.994" x2="0" y2="125.994"/><linearGradient id="b"><stop offset="0" style="stop-color:#331d3b;stop-opacity:1"/><stop offset="1" style="stop-color:#281d2c;stop-opacity:1"/></linearGradient></defs><linearGradient id="c" gradientTransform="matrix(3.18182 0 0 2.06897 -31.818 -6.207)" gradientUnits="userSpaceOnUse" x1="32" x2="32" y1="61" y2="3"><stop offset="0" stop-color="#6c7a89"/><stop offset="1" stop-color="#768492"/></linearGradient><path d="M0 0v120h140V0H95.455z" fill="url(#c)" style="fill:#fff"/><path style="color:#000;font-style:normal;font-variant:normal;font-weight:400;font-stretch:normal;font-size:medium;line-height:normal;font-family:sans-serif;font-variant-ligatures:normal;font-variant-position:normal;font-variant-caps:normal;font-variant-numeric:normal;font-variant-alternates:normal;font-feature-settings:normal;text-indent:0;text-align:start;text-decoration:none;text-decoration-line:none;text-decoration-style:solid;text-decoration-color:#000;letter-spacing:normal;word-spacing:normal;text-transform:none;writing-mode:lr-tb;direction:ltr;text-orientation:mixed;dominant-baseline:auto;baseline-shift:baseline;text-anchor:start;white-space:normal;shape-padding:0;clip-rule:nonzero;display:inline;overflow:visible;visibility:visible;opacity:.1;isolation:auto;mix-blend-mode:normal;color-interpolation:sRGB;color-interpolation-filters:linearRGB;solid-color:#000;solid-opacity:1;vector-effect:none;fill:#000;fill-opacity:1;fill-rule:nonzero;stroke:none;stroke-width:2;stroke-linecap:butt;stroke-linejoin:miter;stroke-miterlimit:4;stroke-dasharray:none;stroke-dashoffset:0;stroke-opacity:1;marker:none;color-rendering:auto;image-rendering:auto;shape-rendering:auto;text-rendering:auto;enable-background:accumulate" d="M47 68.77c0 2.222.05 3.973.293 5.413.241 1.44.695 2.62 1.556 3.483.862.863 2.04 1.319 3.48 1.558 1.442.24 3.196.287 5.425.276h24.498c2.225.01 3.978-.036 5.418-.276 1.44-.24 2.619-.695 3.48-1.558.861-.864 1.315-2.042 1.557-3.483.241-1.44.293-3.19.293-5.414V52.23c0-2.223-.051-3.973-.293-5.41-.242-1.437-.697-2.613-1.559-3.473-.862-.86-2.039-1.313-3.478-1.554-1.44-.242-3.19-.293-5.418-.293H57.748c-2.228 0-3.979.051-5.418.293-1.44.241-2.617.694-3.479 1.554-.861.86-1.317 2.036-1.558 3.473-.242 1.437-.293 3.187-.293 5.41z"/><path style="color:#000;display:inline;overflow:visible;visibility:visible;fill:url(#d);fill-opacity:1;fill-rule:nonzero;stroke:none;stroke-width:1;marker:none;enable-background:accumulate" d="M57.748 40.5c-2.227 0-3.98.05-5.42.291-1.44.242-2.614.694-3.476 1.555-.863.861-1.317 2.037-1.559 3.475-.241 1.436-.293 3.187-.293 5.41V67.77c0 2.223.052 3.975.293 5.414.242 1.441.695 2.617 1.557 3.48.862.864 2.039 1.32 3.48 1.559 1.44.24 3.193.288 5.42.277H82.248c2.228.011 3.983-.038 5.422-.277 1.442-.24 2.617-.695 3.479-1.559.861-.863 1.315-2.039 1.556-3.48.242-1.44.295-3.191.295-5.414V51.23c0-2.222-.053-3.973-.295-5.41-.242-1.437-.694-2.613-1.556-3.474-.862-.86-2.038-1.313-3.479-1.555-1.439-.241-3.19-.29-5.418-.29H70z"/><path d="M47.5 67.768c0 2.215 0 3.948.29 5.332.23 1.385.65 2.446 1.42 3.211.76.766 1.82 1.188 3.2 1.418 1.39.23 3.12.28 5.34.27h24.5c2.22.01 3.95-.04 5.34-.27 1.38-.23 2.44-.652 3.2-1.418.77-.765 1.19-1.826 1.42-3.21.24-1.385.29-3.118.29-5.333V51.23c0-2.214 0-3.944-.29-5.326-.23-1.381-.65-2.44-1.42-3.203-.76-.762-1.82-1.184-3.2-1.416-1.39-.232-2.922.11-5.34-.285h-24.5c-2.22 0-3.95.053-5.34.285-1.38.232-2.44.654-3.2 1.416-.77.763-1.19 1.822-1.42 3.203-.24 1.382-.29 3.112-.29 5.326z" style="color:#000;display:inline;overflow:visible;visibility:visible;opacity:.3;fill:none;fill-opacity:1;fill-rule:nonzero;stroke:url(#e);stroke-width:1;stroke-opacity:1;marker:none;enable-background:accumulate"/><path style="color:#000;display:inline;overflow:visible;visibility:visible;opacity:.7;fill:#fff;fill-opacity:1;fill-rule:nonzero;stroke:none;stroke-width:2.99999976;marker:none;enable-background:accumulate" d="M63.013 49.4v20.263s9.603-4.153 18-10.137l-.002-.006-.004-.007-.005-.006A.017.017 0 0 1 81 59.5c-8.858-6.174-17.988-10.1-17.988-10.1z"/><path style="color:#000;display:inline;overflow:visible;visibility:visible;opacity:.03999999;fill:#fff;fill-opacity:1;fill-rule:nonzero;stroke:none;stroke-width:1;marker:none;enable-background:accumulate" d="M70 41.501h12.252c8.842-.043 9.748.906 9.748 9.73v16.54c0 8.824-.906 9.73-9.748 9.73H70z"/><path style="color:#000;display:inline;overflow:visible;visibility:visible;opacity:.03999999;fill:#fff;fill-opacity:1;fill-rule:nonzero;stroke:none;stroke-width:1;marker:none;enable-background:accumulate" d="M48 59.501h44v8.27c0 8.824-.906 9.73-9.748 9.73H57.748c-8.842 0-9.748-.906-9.748-9.73z"/></svg>