<svg height="128" width="128" xmlns:xlink="http://www.w3.org/1999/xlink" xmlns="http://www.w3.org/2000/svg"><defs><linearGradient id="m" x1="0" y1="0" x2="1" y2="0" gradientUnits="userSpaceOnUse" gradientTransform="matrix(0 -30 30 0 176.006 485.997)"><stop offset="0" style="stop-color:white;stop-opacity:.58"/><stop offset="1" style="stop-color:white;stop-opacity:.86"/></linearGradient><linearGradient id="l" x1="0" y1="0" x2="1" y2="0" gradientUnits="userSpaceOnUse" gradientTransform="matrix(0 -30 30 0 176.007 486.001)"><stop offset="0" style="stop-color:#b3b3b3;stop-opacity:1"/><stop offset="1" style="stop-color:#e6e6e6;stop-opacity:1"/></linearGradient><linearGradient id="k" x1="0" y1="0" x2="1" y2="0" gradientUnits="userSpaceOnUse" gradientTransform="matrix(0 -80 80 0 210.004 501.003)"><stop offset="0" style="stop-color:white;stop-opacity:.58"/><stop offset="1" style="stop-color:white;stop-opacity:.86"/></linearGradient><linearGradient id="j" x1="0" y1="0" x2="1" y2="0" gradientUnits="userSpaceOnUse" gradientTransform="matrix(0 -80 80 0 201.005 501)"><stop offset="0" style="stop-color:#d36118;stop-opacity:1"/><stop offset="1" style="stop-color:#f09e6f;stop-opacity:1"/></linearGradient><linearGradient gradientUnits="userSpaceOnUse" y2="383.928" x2="0" y1="172.06" x1="494.345" id="h" xlink:href="#a" gradientTransform="matrix(0 -.22656 .22656 0 1.019 120)"/><linearGradient id="a"><stop style="stop-color:#9f3d06;stop-opacity:1" offset="0"/><stop style="stop-color:#e76428;stop-opacity:1" offset="1"/></linearGradient><linearGradient gradientUnits="userSpaceOnUse" y2="169.681" x2="494.345" y1="386.308" x1="-2.207" id="i" xlink:href="#b" gradientTransform="matrix(0 -.20229 .19566 0 9.607 114)"/><linearGradient id="b"><stop style="stop-color:#f2f2f2;stop-opacity:1" offset="0"/><stop style="stop-color:#f9f9f9;stop-opacity:1" offset="1"/></linearGradient><linearGradient id="c"><stop style="stop-color:#000;stop-opacity:1" offset="0"/><stop style="stop-color:#000;stop-opacity:0" offset="1"/></linearGradient><linearGradient xlink:href="#d" id="p" x1="208" y1="76" x2="182.595" y2="101.92" gradientUnits="userSpaceOnUse" gradientTransform="matrix(.5 0 0 .5 -12 -14)"/><linearGradient id="d"><stop style="stop-color:#259dd1;stop-opacity:1" offset="0"/><stop style="stop-color:#75b4d1;stop-opacity:1" offset="1"/></linearGradient><linearGradient xlink:href="#e" id="q" x1="208" y1="76" x2="182.595" y2="101.92" gradientUnits="userSpaceOnUse" gradientTransform="matrix(.5 0 0 .5 -12 -14)"/><linearGradient id="e"><stop style="stop-color:#b15523;stop-opacity:1" offset="0"/><stop style="stop-color:#d87747;stop-opacity:1" offset="1"/></linearGradient><filter style="color-interpolation-filters:sRGB" id="f" x="-.014" width="1.029" y="-.011" height="1.023"><feGaussianBlur stdDeviation="2.12"/></filter><filter style="color-interpolation-filters:sRGB" id="g" x="-.058" width="1.116" y="-.045" height="1.091"><feGaussianBlur stdDeviation="8.48"/></filter><filter style="color-interpolation-filters:sRGB" id="o" x="-.037" width="1.074" y="-.036" height="1.072"><feGaussianBlur stdDeviation=".99"/></filter><radialGradient xlink:href="#c" id="n" cx="179.993" cy="103.282" fx="179.993" fy="103.282" r="35.069" gradientTransform="matrix(1.36873 0 0 1.35286 -151.362 -100.726)" gradientUnits="userSpaceOnUse"/></defs><path style="color:#000;display:inline;overflow:visible;visibility:visible;opacity:.1;fill:#000;fill-opacity:1;fill-rule:nonzero;stroke:none;stroke-width:2;marker:none;filter:url(#f);enable-background:accumulate" d="M189.843 74c-70.593 0-78.189 7.25-77.843 77.987v292.026c-.346 70.736 7.25 77.987 77.843 77.987h196.314c70.593 0 76.006-7.274 77.843-77.987V200L336 74z" transform="matrix(.25 0 0 .25 -8 -10)"/><path d="M189.843 74c-70.593 0-78.189 7.25-77.843 77.987v292.026c-.346 70.736 7.25 77.987 77.843 77.987h196.314C456.75 522 464 514.75 464 444.013V202L336 74z" style="color:#000;display:inline;overflow:visible;visibility:visible;opacity:.1;fill:#000;fill-opacity:1;fill-rule:nonzero;stroke:none;stroke-width:2;marker:none;filter:url(#g);enable-background:accumulate" transform="matrix(.25 0 0 .25 -8 -10)"/><path style="color:#000;display:inline;overflow:visible;visibility:visible;fill:url(#h);fill-opacity:1;fill-rule:nonzero;stroke:none;stroke-width:.5;marker:none;enable-background:accumulate" d="M39.46 8C21.813 8 19.915 9.813 20 27.497v73.006C19.914 118.187 21.812 120 39.46 120h49.08c17.648 0 19.46-1.813 19.46-19.497V40L76 8z"/><path style="color:#000;display:inline;overflow:visible;visibility:visible;opacity:.4;fill:#fff;fill-opacity:1;fill-rule:nonzero;stroke:none;stroke-width:.5;marker:none;enable-background:accumulate" d="M39.46 8C21.814 8 19.915 9.813 20 27.497v1C19.914 10.813 21.813 9 39.46 9H76V8z"/><path style="color:#000;display:inline;overflow:visible;visibility:visible;fill:url(#i);fill-opacity:1;fill-rule:nonzero;stroke:none;stroke-width:.5;marker:none;enable-background:accumulate" d="M42.806 14C26 14 26 14 26 31.408v65.184C26 114 26 114 42.806 114h42.385c16.809 0 16.806 0 16.806-17.408V38.571L78.362 14z"/><g style="clip-rule:evenodd;display:inline;fill-rule:evenodd;enable-background:new"><path d="m169.8 497.256-32.837 25.156c-1.517 1.162-.695 3.588 1.216 3.588h4.194c2.927 0 5.753-1.071 7.947-3.009l29.116-25.735z" style="fill:#a33e03;fill-rule:nonzero" transform="matrix(.5 0 0 .5 -19.003 -160)"/></g><g style="clip-rule:evenodd;display:inline;fill-rule:evenodd;enable-background:new"><path d="m162.209 497.256 32.837 25.156c1.518 1.162.695 3.588-1.216 3.588h-4.193a12.006 12.006 0 0 1-7.948-3.009l-29.115-25.735z" style="fill:#a33e03;fill-rule:nonzero" transform="matrix(.5 0 0 .5 -19.003 -160)"/></g><g style="clip-rule:evenodd;display:inline;fill-rule:evenodd;enable-background:new"><path style="fill:#a33e03;fill-rule:nonzero" d="M156.005 506h19.999v4.999h-19.999z" transform="matrix(.5 0 0 .5 -19.003 -160)"/></g><g style="clip-rule:evenodd;display:inline;fill-rule:evenodd;enable-background:new"><path d="M226.005 433c0-9.383-7.617-17-17-17h-86c-9.383 0-17 7.617-17 17v56c0 9.383 7.617 17 17 17h86c9.383 0 17-7.617 17-17z" style="fill:#a33e03" transform="matrix(.5 0 0 .5 -19.003 -160)"/></g><g style="clip-rule:evenodd;display:inline;fill-rule:evenodd;enable-background:new"><path d="M221.005 434c0-7.175-5.825-13-13-13h-84c-7.175 0-13 5.825-13 13v54c0 7.175 5.825 13 13 13h84c7.175 0 13-5.825 13-13z" style="fill:url(#j)" transform="matrix(.5 0 0 .5 -19.003 -160)"/></g><g style="clip-rule:evenodd;display:inline;fill-rule:evenodd;enable-background:new"><path d="M221.005 434c0-7.175-5.825-13-13-13h-84c-7.175 0-13 5.825-13 13v54c0 7.175 5.825 13 13 13h84c7.175 0 13-5.825 13-13z" style="fill:url(#k)" transform="matrix(.5 0 0 .5 -19.003 -160)"/></g><g style="clip-rule:evenodd;display:inline;fill-rule:evenodd;enable-background:new"><path d="M206.004 431h-79.999a5 5 0 1 0 0 10h79.999a5 5 0 1 0 0-10z" style="fill:#d36118;fill-rule:nonzero" transform="matrix(.5 0 0 .5 -19.003 -160)"/></g><rect style="display:inline;fill:#b2470f;fill-opacity:1;fill-rule:evenodd;stroke:none;stroke-width:1;stroke-linecap:round;stroke-linejoin:round;enable-background:new" width="14" height="3" x="50" y="66.5" ry="1.5"/><g style="clip-rule:evenodd;display:inline;fill-rule:evenodd;enable-background:new"><path d="M126.006 460.997a5 5 0 1 0 0-10 5 5 0 0 0 0 10z" style="fill:#e3713b;fill-rule:nonzero" transform="matrix(.5 0 0 .5 -19.003 -160)"/></g><g style="clip-rule:evenodd;display:inline;fill-rule:evenodd;enable-background:new"><path d="M126.006 475.997a5 5 0 1 0 0-10 5 5 0 0 0 0 10z" style="fill:#e3713b;fill-rule:nonzero" transform="matrix(.5 0 0 .5 -19.003 -160)"/></g><g style="clip-rule:evenodd;display:inline;fill-rule:evenodd;enable-background:new"><path d="M126.006 490.997a5 5 0 1 0 0-10 5 5 0 0 0 0 10z" style="fill:#e3713b;fill-rule:nonzero" transform="matrix(.5 0 0 .5 -19.003 -160)"/></g><g style="clip-rule:evenodd;display:inline;fill-rule:evenodd;enable-background:new"><path d="M202.004 451h-21.999a9 9 0 0 0-9 9v22a9 9 0 0 0 9 9h21.999a9 9 0 0 0 9-9v-22a9 9 0 0 0-9-9z" style="fill:#e5723c;fill-rule:nonzero" transform="matrix(.5 0 0 .5 -19.003 -160)"/></g><g style="clip-rule:evenodd;display:inline;fill-rule:evenodd;enable-background:new"><path d="M201.004 456h-19.999a5 5 0 0 0-5 5v20a5 5 0 0 0 5 5h19.999a5 5 0 0 0 5-5v-20a5 5 0 0 0-5-5z" style="fill:url(#l);fill-rule:nonzero" transform="matrix(.5 0 0 .5 -19.003 -160)"/></g><g style="clip-rule:evenodd;display:inline;fill-rule:evenodd;enable-background:new"><path d="M201.004 456h-19.999a5 5 0 0 0-5 5v20a5 5 0 0 0 5 5h19.999a5 5 0 0 0 5-5v-20a5 5 0 0 0-5-5z" style="fill:url(#m);fill-rule:nonzero" transform="matrix(.5 0 0 .5 -19.003 -160)"/></g><g style="clip-rule:evenodd;display:inline;fill-rule:evenodd;enable-background:new"><path d="m178.505 483.5 7.499-15 10 5 7.5-15" style="fill:none;fill-rule:nonzero;stroke:#b44910;stroke-width:5px;stroke-linecap:round;stroke-linejoin:round" transform="matrix(.5 0 0 .5 -19.003 -160)"/></g><rect style="display:inline;fill:#b2470f;fill-opacity:1;fill-rule:evenodd;stroke:none;stroke-width:1;stroke-linecap:round;stroke-linejoin:round;enable-background:new" width="14" height="3" x="50" y="74" ry="1.5"/><rect style="display:inline;fill:#b2470f;fill-opacity:1;fill-rule:evenodd;stroke:none;stroke-width:1;stroke-linecap:round;stroke-linejoin:round;enable-background:new" width="14" height="3" x="50" y="81.5" ry="1.5"/><path style="color:#000;display:inline;overflow:visible;visibility:visible;opacity:.1;fill:#fff;fill-opacity:1;fill-rule:nonzero;stroke:none;stroke-width:.5;marker:none;enable-background:accumulate" d="M64 8v112h24.54c17.647 0 19-1.818 19.46-19.497V40L76 8z"/><path style="color:#000;display:inline;overflow:visible;visibility:visible;opacity:.1;fill:#fff;fill-opacity:1;fill-rule:nonzero;stroke:none;stroke-width:.5;marker:none;enable-background:accumulate" d="M20 64v36.503C19.914 118.187 21.813 120 39.46 120h49.08c17.647 0 19-1.818 19.46-19.497V64z"/><path style="color:#000;display:inline;overflow:visible;visibility:visible;opacity:.1;fill:#fff;fill-opacity:1;fill-rule:nonzero;stroke:none;stroke-width:4;stroke-linecap:butt;stroke-linejoin:miter;stroke-miterlimit:4;stroke-dasharray:none;stroke-dashoffset:0;stroke-opacity:1;marker:none;enable-background:accumulate" d="m78 120 30-30v11.242C107.974 118.24 106.099 120 88.913 120z"/><path style="color:#000;display:inline;overflow:visible;visibility:visible;opacity:.1;fill:url(#n);fill-opacity:1;fill-rule:nonzero;stroke:none;stroke-width:1;marker:none;filter:url(#filter2553);enable-background:accumulate" d="M155 45 91-21l.003 24.999v1.537c0 35.294 1.626 39.632 36.994 39.459z" transform="matrix(.5 0 0 .5 30.5 18.5)"/><path style="color:#000;display:inline;overflow:visible;visibility:visible;opacity:.1;fill:#000;fill-opacity:1;fill-rule:nonzero;stroke:none;stroke-width:1;marker:none;filter:url(#o);enable-background:accumulate" d="M155 45v-2L91-21V5.536C91 40 95 45 127.994 44.996z" transform="matrix(.5 0 0 .5 30.5 18.5)"/><path style="color:#000;display:inline;overflow:visible;visibility:visible;fill:url(#p);fill-opacity:1;fill-rule:nonzero;stroke:none;stroke-width:.5;marker:none;enable-background:accumulate" d="M107.999 39.997 76 8v12.268c0 17.647 1.813 19.816 19.498 19.73z"/><path style="color:#000;display:inline;overflow:visible;visibility:visible;fill:#fff;fill-opacity:1;fill-rule:nonzero;stroke:none;stroke-width:.5;marker:none;enable-background:accumulate" d="M107.999 39.997 76 8v12.268c0 17.647 1.813 19.816 19.498 19.73z"/><path style="color:#000;display:inline;overflow:visible;visibility:visible;fill:url(#q);fill-opacity:1;fill-rule:nonzero;stroke:none;stroke-width:.5;marker:none;enable-background:accumulate" d="M107.999 39.997 76 8v12.268c0 17.647 1.813 19.816 19.498 19.73z"/><path style="display:inline;opacity:.2;fill:#000;fill-opacity:1;stroke:none;stroke-width:4.53165;stroke-linecap:round;stroke-linejoin:round;stroke-miterlimit:4;stroke-dasharray:none;stroke-opacity:1;enable-background:new" d="M102 40h6v.5h-6z"/><rect transform="matrix(0 -1 -1 0 0 0)" style="display:inline;opacity:.2;fill:#000;fill-opacity:1;stroke:none;stroke-width:1.03448;stroke-opacity:.25098;enable-background:new" width="30" height="30" x="-128" y="-120" rx="15" ry="15"/><rect ry="15" rx="15" y="-120" x="-127" height="30" width="30" style="display:inline;fill:#3a944a;fill-opacity:1;stroke:none;stroke-width:1.03448;stroke-opacity:.25098;enable-background:new" transform="matrix(0 -1 -1 0 0 0)"/><g style="display:inline;enable-background:new" transform="translate(-231 -36)"><path style="opacity:1;fill:#fff;fill-opacity:1;stroke:none;stroke-width:1;stroke-linecap:butt;stroke-linejoin:round;stroke-miterlimit:4;stroke-dasharray:none;stroke-dashoffset:1;stroke-opacity:1" d="M329 146h14v10h-14z"/><rect ry="4.5" y="138.5" x="331.5" height="14" width="9" style="opacity:1;fill:none;fill-opacity:1;stroke:#fff;stroke-width:1;stroke-linecap:butt;stroke-linejoin:round;stroke-miterlimit:4;stroke-dasharray:none;stroke-dashoffset:1;stroke-opacity:1" rx="4.5"/><path style="color:#000;font-style:normal;font-variant:normal;font-weight:400;font-stretch:normal;font-size:medium;line-height:normal;font-family:sans-serif;font-variant-ligatures:none;font-variant-position:normal;font-variant-caps:normal;font-variant-numeric:normal;font-variant-alternates:normal;font-feature-settings:normal;text-indent:0;text-align:start;text-decoration:none;text-decoration-line:none;text-decoration-style:solid;text-decoration-color:#000;letter-spacing:normal;word-spacing:normal;text-transform:none;writing-mode:lr-tb;direction:ltr;baseline-shift:baseline;text-anchor:start;white-space:normal;shape-padding:0;clip-rule:nonzero;display:inline;overflow:visible;visibility:visible;opacity:1;isolation:auto;mix-blend-mode:normal;color-interpolation:sRGB;color-interpolation-filters:linearRGB;solid-color:#000;solid-opacity:1;fill:#3a944a;fill-opacity:1;fill-rule:nonzero;stroke:none;stroke-width:4.89898;stroke-linecap:butt;stroke-linejoin:miter;stroke-miterlimit:4;stroke-dasharray:none;stroke-dashoffset:0;stroke-opacity:1;marker:none;color-rendering:auto;image-rendering:auto;shape-rendering:auto;text-rendering:auto;enable-background:accumulate" d="M337 149v4h-2v-4z"/></g></svg>