<svg xmlns="http://www.w3.org/2000/svg" height="15" width="15"><path d="M1 1v1h1V1Zm2 0v1h2V1Zm3 0v1h2V1Zm3 0v1h2V1Zm3 0v1h2V1h-1ZM1 3v2h1V3Zm12 0v2h1V3ZM1 6v2h1V6Zm12 0v2h1V6ZM1 9v2h1V9Zm12 0v2h1V9ZM1 12v2h1v-2Zm12 0v1h-1v1h2v-2zM3 13v1h2v-1zm3 0v1h2v-1zm3 0v1h2v-1z" style="opacity:.8;fill:gray;fill-opacity:1"/><path style="fill:#3584e4;fill-opacity:1;fill-rule:evenodd;stroke:none;stroke-width:2;stroke-linecap:round;stroke-linejoin:round" d="M1 1v13h13V1Zm1 1h11v11H2Z"/><path style="fill:#3584e4;fill-rule:evenodd;stroke:none;stroke-width:2;stroke-linecap:round;stroke-linejoin:round;fill-opacity:1" d="M2 7h11v1H2z"/></svg>