<?xml version="1.0" encoding="UTF-8" standalone="no"?>
<svg
   xmlns:dc="http://purl.org/dc/elements/1.1/"
   xmlns:cc="http://creativecommons.org/ns#"
   xmlns:rdf="http://www.w3.org/1999/02/22-rdf-syntax-ns#"
   xmlns:svg="http://www.w3.org/2000/svg"
   xmlns="http://www.w3.org/2000/svg"
   xmlns:sodipodi="http://sodipodi.sourceforge.net/DTD/sodipodi-0.dtd"
   xmlns:inkscape="http://www.inkscape.org/namespaces/inkscape"
   viewBox="0 0 24 24"
   version="1.1"
   id="svg4"
   sodipodi:docname="lc_additionsdialog.svg"
   inkscape:export-filename="/home/jupiter007/Libreoffice yaru theme fullcolor/build/cmd/lc_insertplugin.png"
   inkscape:export-xdpi="95"
   inkscape:export-ydpi="95"
   inkscape:version="1.0.1 (3bc2e813f5, 2020-09-07)">
  <metadata
     id="metadata10">
    <rdf:RDF>
      <cc:Work
         rdf:about="">
        <dc:format>image/svg+xml</dc:format>
        <dc:type
           rdf:resource="http://purl.org/dc/dcmitype/StillImage" />
        <dc:title></dc:title>
      </cc:Work>
    </rdf:RDF>
  </metadata>
  <defs
     id="defs8" />
  <sodipodi:namedview
     pagecolor="#ffffff"
     bordercolor="#666666"
     borderopacity="1"
     objecttolerance="10"
     gridtolerance="10"
     guidetolerance="10"
     inkscape:pageopacity="0"
     inkscape:pageshadow="2"
     inkscape:window-width="1920"
     inkscape:window-height="1011"
     id="namedview6"
     showgrid="true"
     inkscape:zoom="22.627417"
     inkscape:cx="4.0697554"
     inkscape:cy="8.7386871"
     inkscape:window-x="0"
     inkscape:window-y="0"
     inkscape:window-maximized="1"
     inkscape:current-layer="svg4"
     inkscape:snap-bbox="true"
     inkscape:bbox-paths="true"
     inkscape:bbox-nodes="true"
     inkscape:snap-bbox-edge-midpoints="true"
     inkscape:snap-bbox-midpoints="true"
     inkscape:object-paths="true"
     inkscape:snap-intersection-paths="true"
     inkscape:snap-smooth-nodes="true"
     inkscape:snap-midpoints="true"
     inkscape:snap-object-midpoints="true"
     inkscape:snap-center="true"
     inkscape:snap-text-baseline="true"
     inkscape:snap-page="true"
     inkscape:document-rotation="0">
    <inkscape:grid
       type="xygrid"
       id="grid865" />
    <inkscape:grid
       type="xygrid"
       id="grid821"
       spacingx="0.5"
       spacingy="0.5"
       empspacing="1"
       dotted="true" />
  </sodipodi:namedview>
  <path
     style="color:#000000;display:inline;overflow:visible;visibility:visible;fill:#aea795;fill-opacity:1;fill-rule:nonzero;stroke:none;stroke-width:1;marker:none;enable-background:accumulate"
     d="M 6.83302,3 C 3.35698,3 2.98296,3.30899 3,6.32331 v 5.676695 L 3,17.67668 C 2.983,20.69101 3.35698,21 6.83302,21 H 17.16697 C 20.64302,21 21,20.69105 21,17.67668 l 0,-5.676675 V 6.32331 C 21,3.30895 20.64301,3 17.16697,3 Z"
     id="path918"
     inkscape:connector-curvature="0"
     sodipodi:nodetypes="scccssscsss" />
  <path
     style="display:inline;opacity:1;vector-effect:none;fill:#faf8f6;fill-opacity:1;stroke:none;stroke-width:1.15470052;stroke-linecap:round;stroke-linejoin:round;stroke-miterlimit:4;stroke-dasharray:none;stroke-dashoffset:0;stroke-opacity:1;enable-background:new"
     d="m 12,3 v 2.9999999 h -1 -1 v 1 V 9 h 1 1 l 9e-6,7 v 1 h 1.999999 v 1 h -1.999999 v 1 2 h 1 v -2 h 1.999999 v -1 -2 h -1 -0.999999 L 13,9 V 8 H 11 V 6.9999999 h 1 1 V 3 Z"
     id="rect22234"
     inkscape:connector-curvature="0"
     sodipodi:nodetypes="cccccccccccccccccccccccccccccc" />
  <path
     style="display:inline;opacity:1;vector-effect:none;fill:#faf8f6;fill-opacity:1;stroke:none;stroke-width:1.15470052;stroke-linecap:round;stroke-linejoin:round;stroke-miterlimit:4;stroke-dasharray:none;stroke-dashoffset:0;stroke-opacity:1;enable-background:new"
     d="m 3,12.999995 h 2.9999994 v 1 1 h 1 H 9 v -1 -1 h 7 1 v -2 h 1 v 2 h 1 L 21,13 v -1 l -2,-5e-6 V 9.9999952 h -1 -2 v 0.9999998 1 H 9 7.9999994 v 2 h -1 v -1 -1 H 3 Z"
     id="rect22234-4"
     inkscape:connector-curvature="0"
     sodipodi:nodetypes="cccccccccccccccccccccccccccccc" />
  <path
     style="color:#000000;display:inline;overflow:visible;visibility:visible;fill:#46a926;fill-opacity:1;fill-rule:nonzero;stroke:none;stroke-width:1;marker:none;enable-background:accumulate"
     d="m 17,11 v 2 h -1 l -2.999991,-5e-6 V 16 h 0.999999 1 v 2 1 h -1.999999 v 2 H 17.16797 C 20.64402,21 21,20.69015 21,17.67578 V 12.999995 L 19,13 h -1 v -2 z"
     id="path22304"
     inkscape:connector-curvature="0"
     sodipodi:nodetypes="cccccccccccssccccc" />
  <path
     style="color:#000000;display:inline;overflow:visible;visibility:visible;fill:#000000;fill-opacity:1;fill-rule:nonzero;stroke:none;stroke-width:1;marker:none;enable-background:accumulate;opacity:0.2"
     d="M 6.8339844 3 C 3.3579444 3 2.98296 3.3098987 3 6.3242188 L 3 12 L 3 17.675781 C 2.983 20.690111 3.3579444 21 6.8339844 21 L 17.166016 21 C 20.642066 21 21 20.690151 21 17.675781 L 21 12 L 21 6.3242188 C 21 3.3098587 20.642056 3 17.166016 3 L 6.8339844 3 z M 7 4 L 17 4 C 19.5 4 20 4 20 6 L 20 18 C 20 20 19.5 20 17 20 L 7 20 C 4.5 20 4 20 4 18 L 4 6 C 4 4 4.5 4 7 4 z "
     id="path823" />
  <path
     id="path831"
     d="m 4,12 h 2 v 5 H 8 L 5,22 2,17 h 2 z"
     style="color:#000000;overflow:visible;opacity:0.6;fill:#020400;fill-opacity:1;stroke:#000000;stroke-width:2;stroke-linecap:round;stroke-linejoin:round;stroke-miterlimit:4;stroke-dasharray:none;stroke-opacity:1;marker:none"
     inkscape:connector-curvature="0"
     sodipodi:nodetypes="cccccccc" />
  <path
     style="color:#000000;overflow:visible;fill:#a6d74f;fill-opacity:1;stroke-width:0.833333;marker:none"
     d="m 4,12 h 2 v 5 H 8 C 7.608333,17.831667 6.166667,20.244167 5,22 3.833333,20.244167 2.391667,17.831667 2,17 h 2 z"
     id="path827"
     inkscape:connector-curvature="0"
     sodipodi:nodetypes="cccccccc" />
  <path
     style="color:#000000;overflow:visible;opacity:1;fill:#6d6d6d;fill-opacity:1;stroke-width:0.833333;marker:none"
     d="m 0,23 v 1 h 10 v -1 z"
     id="path2-4"
     inkscape:connector-curvature="0"
     sodipodi:nodetypes="ccccc" />
</svg>
