<?xml version="1.0" encoding="UTF-8" standalone="no"?>
<svg
   xmlns:dc="http://purl.org/dc/elements/1.1/"
   xmlns:cc="http://creativecommons.org/ns#"
   xmlns:rdf="http://www.w3.org/1999/02/22-rdf-syntax-ns#"
   xmlns:svg="http://www.w3.org/2000/svg"
   xmlns="http://www.w3.org/2000/svg"
   xmlns:sodipodi="http://sodipodi.sourceforge.net/DTD/sodipodi-0.dtd"
   xmlns:inkscape="http://www.inkscape.org/namespaces/inkscape"
   viewBox="0 0 24 24"
   version="1.1"
   id="svg4"
   sodipodi:docname="lc_bibliographycomponent.svg"
   inkscape:version="0.92.4 (5da689c313, 2019-01-14)"
   inkscape:export-filename="/home/jupiter007/Libreoffice yaru theme/build/cmd/lc_bibliographycomponent.png"
   inkscape:export-xdpi="96"
   inkscape:export-ydpi="96">
  <metadata
     id="metadata10">
    <rdf:RDF>
      <cc:Work
         rdf:about="">
        <dc:format>image/svg+xml</dc:format>
        <dc:type
           rdf:resource="http://purl.org/dc/dcmitype/StillImage" />
      </cc:Work>
    </rdf:RDF>
  </metadata>
  <defs
     id="defs8" />
  <sodipodi:namedview
     pagecolor="#ffffff"
     bordercolor="#666666"
     borderopacity="1"
     objecttolerance="10"
     gridtolerance="10"
     guidetolerance="10"
     inkscape:pageopacity="0"
     inkscape:pageshadow="2"
     inkscape:window-width="1920"
     inkscape:window-height="1011"
     id="namedview6"
     showgrid="true"
     inkscape:zoom="27.812867"
     inkscape:cx="-0.010617655"
     inkscape:cy="11.778292"
     inkscape:window-x="1920"
     inkscape:window-y="32"
     inkscape:window-maximized="1"
     inkscape:current-layer="svg4">
    <inkscape:grid
       type="xygrid"
       id="grid817" />
  </sodipodi:namedview>
  <path
     style="color:#000000;font-style:normal;font-variant:normal;font-weight:normal;font-stretch:normal;font-size:medium;line-height:normal;font-family:sans-serif;font-variant-ligatures:normal;font-variant-position:normal;font-variant-caps:normal;font-variant-numeric:normal;font-variant-alternates:normal;font-feature-settings:normal;text-indent:0;text-align:start;text-decoration:none;text-decoration-line:none;text-decoration-style:solid;text-decoration-color:#000000;letter-spacing:normal;word-spacing:normal;text-transform:none;writing-mode:lr-tb;direction:ltr;text-orientation:mixed;dominant-baseline:auto;baseline-shift:baseline;text-anchor:start;white-space:normal;shape-padding:0;clip-rule:nonzero;display:inline;overflow:visible;visibility:visible;opacity:1;isolation:auto;mix-blend-mode:normal;color-interpolation:sRGB;color-interpolation-filters:linearRGB;solid-color:#000000;solid-opacity:1;vector-effect:none;fill:#232629;fill-opacity:1;fill-rule:nonzero;stroke:none;stroke-width:1.00000012;stroke-linecap:butt;stroke-linejoin:miter;stroke-miterlimit:4;stroke-dasharray:none;stroke-dashoffset:0;stroke-opacity:1;marker:none;color-rendering:auto;image-rendering:auto;shape-rendering:auto;text-rendering:auto;enable-background:accumulate"
     d="M 11.994141,4 C 10.736092,4.01507 9.81522,3.9715887 9.0625,4.3867188 8.68614,4.5942888 8.3892894,4.9442025 8.2246094,5.3828125 8.1519153,5.5763913 8.104083,5.7931077 8.0683594,6.0234375 7.2881841,6.0398198 6.6048524,6.0876078 6.0625,6.3867188 5.68614,6.5942888 5.3892894,6.9442025 5.2246094,7.3828125 5.0598994,7.8214225 5,8.3423895 5,9 v 8 c 0,0.65761 0.060079,1.178517 0.2246094,1.617188 C 5.3892794,19.055847 5.68613,19.407574 6.0625,19.615234 6.81525,20.030604 7.7359506,19.9855 8.9941406,20 h 0.00391 3.0058591 0.002 c 1.2581,-0.01507 2.178921,0.02841 2.931641,-0.386719 0.37636,-0.20757 0.673211,-0.557484 0.837891,-0.996093 0.07257,-0.193304 0.116631,-0.410683 0.152343,-0.640626 0.790876,-0.01567 1.462064,-0.06122 2.009766,-0.363281 0.37636,-0.20757 0.673211,-0.557483 0.837891,-0.996093 C 18.94006,16.178545 19,15.65761 19,15 V 7 C 19,6.3423905 18.940061,5.8214825 18.775391,5.3828125 18.610731,4.9441525 18.31387,4.5924256 17.9375,4.3847656 17.18475,3.9693956 16.264059,4.0145 15.005859,4 h -0.0039 -3.005859 z M 12,5 V 6 H 9.0898438 C 9.1112026,5.9014585 9.1326256,5.8077986 9.1601562,5.734375 9.2576962,5.474575 9.3615019,5.3628788 9.5449219,5.2617188 9.9109019,5.0598987 10.74138,5.0152 12,5 Z m 1,0 h 2 c 1.25852,0.0147 2.087175,0.059809 2.453125,0.2617188 0.18341,0.1011898 0.289119,0.2127462 0.386719,0.4726562 C 17.937404,5.9942755 18,6.4076095 18,7 v 8 c 0,0.59239 -0.06261,1.005835 -0.160156,1.265625 -0.09754,0.2598 -0.201346,0.371496 -0.384766,0.472656 -0.25063,0.13821 -0.780403,0.192784 -1.455078,0.22461 V 9 C 16,8.3423905 15.940061,7.8214825 15.775391,7.3828125 15.610731,6.9441525 15.31387,6.5924256 14.9375,6.3847656 14.410661,6.0940543 13.7495,6.0432843 13,6.0253906 Z M 9,7 V 19 C 7.74148,18.98529 6.9108819,18.940201 6.5449219,18.738281 6.3615119,18.637091 6.2577563,18.525535 6.1601562,18.265625 6.0625963,18.005725 6,17.59239 6,17 V 9 C 6,8.4076095 6.0627463,7.9941655 6.1601562,7.734375 6.2576963,7.474575 6.3615019,7.3628788 6.5449219,7.2617188 6.9109019,7.0598987 7.74138,7.0152 9,7 Z m 1,0 h 2 c 1.25852,0.0147 2.087175,0.059809 2.453125,0.2617188 0.18341,0.1011898 0.289119,0.2127462 0.386719,0.4726562 C 14.937404,7.9942755 15,8.4076095 15,9 v 8 c 0,0.59239 -0.06261,1.005835 -0.160156,1.265625 -0.09754,0.2598 -0.201346,0.371496 -0.384766,0.472656 C 14.089098,18.940101 13.25863,18.9848 12,19 H 11.994141 10 Z M 7.5,10 A 0.5,0.5 0 0 0 7,10.5 0.5,0.5 0 0 0 7.5,11 0.5,0.5 0 0 0 8,10.5 0.5,0.5 0 0 0 7.5,10 Z m 0,5 A 0.5,0.5 0 0 0 7,15.5 0.5,0.5 0 0 0 7.5,16 0.5,0.5 0 0 0 8,15.5 0.5,0.5 0 0 0 7.5,15 Z"
     id="path2732-8-1-7"
     inkscape:connector-curvature="0" />
</svg>
