<?xml version="1.0" encoding="UTF-8" standalone="no"?>
<svg
   xmlns:dc="http://purl.org/dc/elements/1.1/"
   xmlns:cc="http://creativecommons.org/ns#"
   xmlns:rdf="http://www.w3.org/1999/02/22-rdf-syntax-ns#"
   xmlns:svg="http://www.w3.org/2000/svg"
   xmlns="http://www.w3.org/2000/svg"
   xmlns:sodipodi="http://sodipodi.sourceforge.net/DTD/sodipodi-0.dtd"
   xmlns:inkscape="http://www.inkscape.org/namespaces/inkscape"
   viewBox="0 0 24 24"
   version="1.1"
   id="svg6"
   sodipodi:docname="lc_commentchangetracking.svg"
   inkscape:version="0.92.4 (5da689c313, 2019-01-14)">
  <metadata
     id="metadata12">
    <rdf:RDF>
      <cc:Work
         rdf:about="">
        <dc:format>image/svg+xml</dc:format>
        <dc:type
           rdf:resource="http://purl.org/dc/dcmitype/StillImage" />
      </cc:Work>
    </rdf:RDF>
  </metadata>
  <defs
     id="defs10" />
  <sodipodi:namedview
     pagecolor="#ffffff"
     bordercolor="#666666"
     borderopacity="1"
     objecttolerance="10"
     gridtolerance="10"
     guidetolerance="10"
     inkscape:pageopacity="0"
     inkscape:pageshadow="2"
     inkscape:window-width="1920"
     inkscape:window-height="1011"
     id="namedview8"
     showgrid="true"
     inkscape:zoom="16"
     inkscape:cx="-0.90185431"
     inkscape:cy="10.805884"
     inkscape:window-x="1920"
     inkscape:window-y="32"
     inkscape:window-maximized="1"
     inkscape:current-layer="svg6">
    <inkscape:grid
       type="xygrid"
       id="grid828" />
  </sodipodi:namedview>
  <path
     d="M 12,7.9999999 A 1.9999999,1.9999999 0 0 0 10,9.9999998 1.9999999,1.9999999 0 0 0 12,12 1.9999999,1.9999999 0 0 0 14,9.9999998 1.9999999,1.9999999 0 0 0 12,7.9999999 Z"
     id="path4"
     inkscape:connector-curvature="0"
     style="fill:#c7162b;stroke-width:1" />
  <path
     inkscape:connector-curvature="0"
     id="rect841"
     style="opacity:1;fill:#232629;fill-opacity:1;fill-rule:nonzero;stroke:none;stroke-width:0.00119524;stroke-linecap:butt;stroke-linejoin:round;stroke-miterlimit:4;stroke-dasharray:none;stroke-dashoffset:0;stroke-opacity:1"
     d="M 7,4 C 5,4 4,4 4,6 v 8 c 0,2 1,2 3,2 l 4,3 v -3 h 6 c 2,0 3,0 3,-2 V 13 6 C 20,4 19,4 17,4 Z m 0,1 h 10 c 1,0 2,0 2,1 v 7 1 c 0,1 -1.008164,1.127522 -2,1 H 9.9999998 v 2 L 7.5,15 H 7 C 6,15 5,15 5,14 V 6 C 5,5 6,5 7,5 Z m 11,12 v 2 h -2 v 1 h 2 v 2 h 1 v -2 h 2 v -1 h -2 v -2 z"
     sodipodi:nodetypes="ssscccsscsssssscsscccssssccccccccccccc" />
</svg>
