<?xml version="1.0" encoding="UTF-8" standalone="no"?>
<svg
   xmlns:dc="http://purl.org/dc/elements/1.1/"
   xmlns:cc="http://creativecommons.org/ns#"
   xmlns:rdf="http://www.w3.org/1999/02/22-rdf-syntax-ns#"
   xmlns:svg="http://www.w3.org/2000/svg"
   xmlns="http://www.w3.org/2000/svg"
   xmlns:sodipodi="http://sodipodi.sourceforge.net/DTD/sodipodi-0.dtd"
   xmlns:inkscape="http://www.inkscape.org/namespaces/inkscape"
   viewBox="0 0 24 24"
   version="1.1"
   id="svg4"
   sodipodi:docname="lc_dsbformletter.svg"
   inkscape:version="0.92.4 (5da689c313, 2019-01-14)">
  <metadata
     id="metadata10">
    <rdf:RDF>
      <cc:Work
         rdf:about="">
        <dc:format>image/svg+xml</dc:format>
        <dc:type
           rdf:resource="http://purl.org/dc/dcmitype/StillImage" />
      </cc:Work>
    </rdf:RDF>
  </metadata>
  <defs
     id="defs8" />
  <sodipodi:namedview
     pagecolor="#ffffff"
     bordercolor="#666666"
     borderopacity="1"
     objecttolerance="10"
     gridtolerance="10"
     guidetolerance="10"
     inkscape:pageopacity="0"
     inkscape:pageshadow="2"
     inkscape:window-width="1920"
     inkscape:window-height="1011"
     id="namedview6"
     showgrid="true"
     inkscape:zoom="16"
     inkscape:cx="11.618987"
     inkscape:cy="17.623415"
     inkscape:window-x="0"
     inkscape:window-y="32"
     inkscape:window-maximized="1"
     inkscape:current-layer="svg4">
    <inkscape:grid
       type="xygrid"
       id="grid823" />
  </sodipodi:namedview>
  <path
     d="M 7,10 V 21 H 21 V 10 Z m 1.7070312,1 H 19.292969 L 14,16.292969 Z M 8,11.707031 11.933594,15.640625 8,19.230469 Z m 12,0 v 7.525391 L 16.066406,15.640625 Z M 12.642578,16.349609 14,17.707031 15.357422,16.349609 19.341797,20 H 8.65625 Z"
     id="path2"
     inkscape:connector-curvature="0"
     style="fill:#232629"
     sodipodi:nodetypes="ccccccccccccccccccccccc" />
  <path
     d="m 6,19.97564 c -0.7079889,-0.03079 -1.1932042,-0.09497 -1.4514521,-0.23736 -0.18345,-0.10116 -0.28727,-0.21286 -0.38482,-0.47266 -0.0976,-0.25979 -0.16,-0.67323 -0.16019,-1.26562 l -0.004,-12.0000002 c -1.89e-4,-0.59239 0.0626,-1.00572 0.16019,-1.2656199 0.0976,-0.25991 0.20334,-0.37147 0.38678,-0.47266 0.366001,-0.20191 1.1947812,-0.24702 2.4534912,-0.26172 h 7.5e-4 H 12 v 3.9999997 h 4.000001 L 15.999833,9 h 1.000137 l 1.1e-5,-2.0000004 -4,-3.9999997 h -6.0015719 -0.0037 c -1.25839,0.0145 -2.1792212,-0.0306 -2.9320912,0.38477 -0.376427,0.20766 -0.673327,0.55938 -0.838017,0.99804 -0.16469,0.43867 -0.224851,0.9595799 -0.224641,1.6171899 L 3.0037599,18 c 2.1e-4,0.65761 0.0599,1.17858 0.22464,1.61719 0.16471,0.43861 0.4616076,0.788524 0.838019,0.99609 0.5380527,0.2967 1.1619816,0.359134 1.9335567,0.376111 z"
     id="path2732-8-9-9"
     style="color:#000000;font-style:normal;font-variant:normal;font-weight:normal;font-stretch:normal;font-size:medium;line-height:normal;font-family:sans-serif;font-variant-ligatures:normal;font-variant-position:normal;font-variant-caps:normal;font-variant-numeric:normal;font-variant-alternates:normal;font-feature-settings:normal;text-indent:0;text-align:start;text-decoration:none;text-decoration-line:none;text-decoration-style:solid;text-decoration-color:#000000;letter-spacing:normal;word-spacing:normal;text-transform:none;writing-mode:lr-tb;direction:ltr;text-orientation:mixed;dominant-baseline:auto;baseline-shift:baseline;text-anchor:start;white-space:normal;shape-padding:0;clip-rule:nonzero;display:inline;overflow:visible;visibility:visible;opacity:1;isolation:auto;mix-blend-mode:normal;color-interpolation:sRGB;color-interpolation-filters:linearRGB;solid-color:#000000;solid-opacity:1;vector-effect:none;fill:#232629;fill-opacity:1;fill-rule:nonzero;stroke:none;stroke-width:1.00007653;stroke-linecap:butt;stroke-linejoin:miter;stroke-miterlimit:4;stroke-dasharray:none;stroke-dashoffset:0;stroke-opacity:1;marker:none;color-rendering:auto;image-rendering:auto;shape-rendering:auto;text-rendering:auto;enable-background:accumulate"
     inkscape:connector-curvature="0"
     sodipodi:nodetypes="cccsscccccccccccccccsscscc" />
</svg>
