<?xml version="1.0" encoding="UTF-8" standalone="no"?>
<svg
   xmlns:dc="http://purl.org/dc/elements/1.1/"
   xmlns:cc="http://creativecommons.org/ns#"
   xmlns:rdf="http://www.w3.org/1999/02/22-rdf-syntax-ns#"
   xmlns:svg="http://www.w3.org/2000/svg"
   xmlns="http://www.w3.org/2000/svg"
   xmlns:sodipodi="http://sodipodi.sourceforge.net/DTD/sodipodi-0.dtd"
   xmlns:inkscape="http://www.inkscape.org/namespaces/inkscape"
   viewBox="0 0 24 24"
   version="1.1"
   id="svg4"
   sodipodi:docname="lc_displaymode.svg"
   inkscape:version="0.92.4 (5da689c313, 2019-01-14)">
  <metadata
     id="metadata10">
    <rdf:RDF>
      <cc:Work
         rdf:about="">
        <dc:format>image/svg+xml</dc:format>
        <dc:type
           rdf:resource="http://purl.org/dc/dcmitype/StillImage" />
      </cc:Work>
    </rdf:RDF>
  </metadata>
  <defs
     id="defs8" />
  <sodipodi:namedview
     pagecolor="#ffffff"
     bordercolor="#666666"
     borderopacity="1"
     objecttolerance="10"
     gridtolerance="10"
     guidetolerance="10"
     inkscape:pageopacity="0"
     inkscape:pageshadow="2"
     inkscape:window-width="1920"
     inkscape:window-height="1011"
     id="namedview6"
     showgrid="false"
     inkscape:zoom="27.812867"
     inkscape:cx="8.8677124"
     inkscape:cy="13.863774"
     inkscape:window-x="0"
     inkscape:window-y="32"
     inkscape:window-maximized="1"
     inkscape:current-layer="svg4" />
  <path
     id="path2732-8-9-9"
     style="color:#000000;font-style:normal;font-variant:normal;font-weight:normal;font-stretch:normal;font-size:medium;line-height:normal;font-family:sans-serif;font-variant-ligatures:normal;font-variant-position:normal;font-variant-caps:normal;font-variant-numeric:normal;font-variant-alternates:normal;font-feature-settings:normal;text-indent:0;text-align:start;text-decoration:none;text-decoration-line:none;text-decoration-style:solid;text-decoration-color:#000000;letter-spacing:normal;word-spacing:normal;text-transform:none;writing-mode:lr-tb;direction:ltr;text-orientation:mixed;dominant-baseline:auto;baseline-shift:baseline;text-anchor:start;white-space:normal;shape-padding:0;clip-rule:nonzero;display:inline;overflow:visible;visibility:visible;opacity:1;isolation:auto;mix-blend-mode:normal;color-interpolation:sRGB;color-interpolation-filters:linearRGB;solid-color:#000000;solid-opacity:1;vector-effect:none;fill:#232629;fill-opacity:1;fill-rule:nonzero;stroke:none;stroke-width:1.00007653;stroke-linecap:butt;stroke-linejoin:miter;stroke-miterlimit:4;stroke-dasharray:none;stroke-dashoffset:0;stroke-opacity:1;marker:none;color-rendering:auto;image-rendering:auto;shape-rendering:auto;text-rendering:auto;enable-background:accumulate"
     d="m 21,8.9947594 c -0.0145,-1.25839 0.0306,-2.17922 -0.38477,-2.93209 -0.20766,-0.376429 -0.559381,-0.673329 -0.998041,-0.838019 -0.43867,-0.16469 -0.95958,-0.224851 -1.61719,-0.224641 l -11.9999999,0.0038 c -0.65761,2.1e-4 -1.178579,0.0599 -1.617189,0.22464 -0.43861,0.16471 -0.7885202,0.46161 -0.9960902,0.83802 -0.41514,0.752839 -0.37165,1.6738 -0.38672,2.932089 v 0.002 6.0008216 0.004 c 0.0145,1.25838 -0.0306,2.17922 0.38477,2.93209 0.20766,0.37642 0.5593802,0.67333 0.9980402,0.83801 0.43867,0.164561 0.959579,0.224511 1.617189,0.224511 l 10.9999999,-1e-6 4.000001,-4 V 8.9984194 Z m -1.000001,0.006 V 14.00001 h -4 v 4 l -9.9999999,-2.59e-4 c -0.59239,-1.5e-5 -1.005719,-0.0626 -1.265619,-0.16019 -0.25991,-0.0976 -0.37147,-0.20138 -0.47266,-0.38482 -0.20192,-0.36601 -0.24701,-1.19674 -0.26172,-2.455451 v -5.9892806 -0.006 c 0.0152,-1.25882 0.0599,-2.08942 0.26172,-2.45545 0.10116,-0.18345 0.21286,-0.28727 0.47266,-0.38482 0.25979,-0.0976 0.673229,-0.16 1.265619,-0.16019 l 11.9999999,-0.004 c 0.59239,-1.9e-4 1.00572,0.0626 1.26562,0.16019 0.25991,0.0976 0.37147,0.20334 0.47266,0.38678 0.20191,0.366 0.24702,1.19478 0.26172,2.45349 z M 8,7 h 1 z m 4,0 h 1 z M 6,7 v 10 h 4 V 7 Z m 6,0 v 1 h 5 V 7 Z m 0,3 v 1 h 5 v -1 z m 0,3 v 1 h 2 v -1 z" />
</svg>
