<?xml version="1.0" encoding="UTF-8" standalone="no"?>
<svg
   xmlns:dc="http://purl.org/dc/elements/1.1/"
   xmlns:cc="http://creativecommons.org/ns#"
   xmlns:rdf="http://www.w3.org/1999/02/22-rdf-syntax-ns#"
   xmlns:svg="http://www.w3.org/2000/svg"
   xmlns="http://www.w3.org/2000/svg"
   xmlns:sodipodi="http://sodipodi.sourceforge.net/DTD/sodipodi-0.dtd"
   xmlns:inkscape="http://www.inkscape.org/namespaces/inkscape"
   viewBox="0 0 24 24"
   version="1.1"
   id="svg4"
   sodipodi:docname="lc_dataprovider.svg"
   inkscape:version="0.92.4 (5da689c313, 2019-01-14)">
  <metadata
     id="metadata10">
    <rdf:RDF>
      <cc:Work
         rdf:about="">
        <dc:format>image/svg+xml</dc:format>
        <dc:type
           rdf:resource="http://purl.org/dc/dcmitype/StillImage" />
      </cc:Work>
    </rdf:RDF>
  </metadata>
  <defs
     id="defs8" />
  <sodipodi:namedview
     pagecolor="#ffffff"
     bordercolor="#666666"
     borderopacity="1"
     objecttolerance="10"
     gridtolerance="10"
     guidetolerance="10"
     inkscape:pageopacity="0"
     inkscape:pageshadow="2"
     inkscape:window-width="1920"
     inkscape:window-height="1011"
     id="namedview6"
     showgrid="true"
     inkscape:zoom="13.906433"
     inkscape:cx="24.862361"
     inkscape:cy="4.0866912"
     inkscape:window-x="0"
     inkscape:window-y="32"
     inkscape:window-maximized="1"
     inkscape:current-layer="svg4">
    <inkscape:grid
       type="xygrid"
       id="grid817" />
  </sodipodi:namedview>
  <path
     d="m 4,14 v 2 1 2 c 0,2 1,2 3,2 h 5 c 2,0 3,0 3,-2 v -5 c 0,-2 -1,-2 -3,-2 H 7 c -2,0 -3,0 -3,2 z m 3,-1 h 2 v 3 H 5 v -2 c 0,-1 1,-1 2,-1 z m 3,0 h 2 c 1,0 2,0 2,1 v 2 h -4 z m -5,4 h 4 v 3 H 7 C 6,20 5,20 5,19 Z m 5,0 h 4 v 2 c 0,1 -1,1 -2,1 h -2 z"
     id="path2"
     inkscape:connector-curvature="0"
     style="fill:#232629"
     sodipodi:nodetypes="ccccccccccccccccccccccccccccccccccc" />
  <path
     d="m 16,19.990043 c 0.771085,-0.01635 1.398883,-0.07809 1.936711,-0.374813 0.37642,-0.20766 0.67333,-0.55938 0.83801,-0.99804 C 18.939282,18.17852 18.999232,17.65761 18.999232,17 l -10e-7,-9 -4,-4 H 8.99766 8.994 C 7.73561,4.0145 6.81478,3.9694 6.06191,4.38477 5.685482,4.59243 5.388582,4.94415 5.223892,5.38281 5.059202,5.82148 4.999,6.34239 4.999251,7 l 0.00101,4 H 6 L 5.99879,7 C 5.9986108,6.40761 6.06139,5.99428 6.15898,5.73438 6.25658,5.47447 6.36232,5.36291 6.54576,5.26172 6.91176,5.05981 7.74054,5.0147 8.99925,5 H 9 13.999251 v 4 h 4 l -2.59e-4,8 c -1.9e-5,0.59239 -0.0626,1.00572 -0.16019,1.26562 -0.0976,0.25991 -0.20138,0.37147 -0.38482,0.47266 C 17.196399,18.880383 16.705108,18.944812 16,18.975641 Z"
     id="path2732-8-9-9"
     style="color:#000000;font-style:normal;font-variant:normal;font-weight:normal;font-stretch:normal;font-size:medium;line-height:normal;font-family:sans-serif;font-variant-ligatures:normal;font-variant-position:normal;font-variant-caps:normal;font-variant-numeric:normal;font-variant-alternates:normal;font-feature-settings:normal;text-indent:0;text-align:start;text-decoration:none;text-decoration-line:none;text-decoration-style:solid;text-decoration-color:#000000;letter-spacing:normal;word-spacing:normal;text-transform:none;writing-mode:lr-tb;direction:ltr;text-orientation:mixed;dominant-baseline:auto;baseline-shift:baseline;text-anchor:start;white-space:normal;shape-padding:0;clip-rule:nonzero;display:inline;overflow:visible;visibility:visible;opacity:1;isolation:auto;mix-blend-mode:normal;color-interpolation:sRGB;color-interpolation-filters:linearRGB;solid-color:#000000;solid-opacity:1;vector-effect:none;fill:#232629;fill-opacity:1;fill-rule:nonzero;stroke:none;stroke-width:1.00007653;stroke-linecap:butt;stroke-linejoin:miter;stroke-miterlimit:4;stroke-dasharray:none;stroke-dashoffset:0;stroke-opacity:1;marker:none;color-rendering:auto;image-rendering:auto;shape-rendering:auto;text-rendering:auto;enable-background:accumulate"
     inkscape:connector-curvature="0"
     sodipodi:nodetypes="cccsccccccsccscccccccscccc" />
</svg>
