<?xml version="1.0" encoding="UTF-8" standalone="no"?>
<svg
   xmlns:dc="http://purl.org/dc/elements/1.1/"
   xmlns:cc="http://creativecommons.org/ns#"
   xmlns:rdf="http://www.w3.org/1999/02/22-rdf-syntax-ns#"
   xmlns:svg="http://www.w3.org/2000/svg"
   xmlns="http://www.w3.org/2000/svg"
   xmlns:sodipodi="http://sodipodi.sourceforge.net/DTD/sodipodi-0.dtd"
   xmlns:inkscape="http://www.inkscape.org/namespaces/inkscape"
   viewBox="0 0 24 24"
   version="1.1"
   id="svg4"
   sodipodi:docname="lc_dataranges.svg"
   inkscape:version="1.0.1 (3bc2e813f5, 2020-09-07)"
   inkscape:export-filename="/home/jupiter007/Libreoffice yaru theme fullcolor/build/cmd/lc_dataranges.png"
   inkscape:export-xdpi="95"
   inkscape:export-ydpi="95">
  <metadata
     id="metadata10">
    <rdf:RDF>
      <cc:Work
         rdf:about="">
        <dc:format>image/svg+xml</dc:format>
        <dc:type
           rdf:resource="http://purl.org/dc/dcmitype/StillImage" />
      </cc:Work>
    </rdf:RDF>
  </metadata>
  <defs
     id="defs8" />
  <sodipodi:namedview
     pagecolor="#ffffff"
     bordercolor="#666666"
     borderopacity="1"
     objecttolerance="10"
     gridtolerance="10"
     guidetolerance="10"
     inkscape:pageopacity="0"
     inkscape:pageshadow="2"
     inkscape:window-width="1920"
     inkscape:window-height="1011"
     id="namedview6"
     showgrid="true"
     inkscape:zoom="19.666667"
     inkscape:cx="7.881708"
     inkscape:cy="6.8103384"
     inkscape:window-x="0"
     inkscape:window-y="0"
     inkscape:window-maximized="1"
     inkscape:current-layer="svg4"
     inkscape:document-rotation="0">
    <inkscape:grid
       type="xygrid"
       id="grid817" />
  </sodipodi:namedview>
  <path
     sodipodi:nodetypes="cccscsccccccccscscccccc"
     inkscape:connector-curvature="0"
     id="path4237-1-7"
     d="m 6.0026407,2.9999999 c -1.2582,0.0145 -2.178891,-0.030604 -2.9316408,0.3847655 -0.37637,0.20766 -0.6732311,0.5593869 -0.8378911,0.9980469 -0.16467,0.43867 -0.224609,0.9595875 -0.224609,1.6171875 v 1.4882812 10.51172 c 0,0.657609 0.0599,1.178577 0.224609,1.617188 0.16468,0.438611 0.461531,0.788523 0.8378911,0.996092 C 3.8237198,21.028412 4.7445407,20.984931 6.0026407,21 h 0.002 11.9888093 0.0039 c 1.25819,-0.0145 2.178891,0.0306 2.931641,-0.384766 0.37637,-0.20766 0.673221,-0.559386 0.837891,-0.998045 C 21.931421,19.178518 21.9915,18.65761 21.9915,18.000001 V 7.466797 5.9999998 c 0,-0.6576 -0.0599,-1.1785775 -0.224609,-1.6171875 C 21.602211,3.9442123 21.30536,3.5942785 20.929,3.3867186 20.17623,2.9715886 19.255399,3.0150798 17.997309,2.9999999 h -0.002 -11.9888094 z"
     style="font-style:normal;font-variant:normal;font-weight:normal;font-stretch:normal;font-size:15px;line-height:125%;font-family:Ubuntu;-inkscape-font-specification:Ubuntu;text-align:center;letter-spacing:0px;word-spacing:0px;writing-mode:lr-tb;text-anchor:middle;display:inline;opacity:0.6;fill:#000000;fill-opacity:1;stroke:none;stroke-width:0.999802" />
  <path
     inkscape:connector-curvature="0"
     id="path1993"
     d="m 8.9999997,3.9999999 c -1.556581,0.010796 -3.109991,-0.011752 -4.659942,0.038775 -0.461228,0.042668 -1.0161879,0.2064194 -1.1553389,0.7099669 -0.218994,0.6353464 -0.108414,1.3337871 -0.145797,1.981924 -0.0078,2.2970854 -0.02297,9.5963443 0.02152,11.8856973 0.0391,0.461929 0.202551,1.012664 0.6987549,1.163665 0.632457,0.225082 1.284145,0.12274 1.935974,0.154299 1.424236,0.0068 4.8505643,0.01102 6.2764213,0.01131 1.704531,3.51e-4 5.408388,-0.005 7.10719,-0.01851 0.511911,-0.01201 1.183699,0.01993 1.584745,-0.40519 0.421097,-0.539783 0.287073,-2.267798 0.322745,-2.903564 0.01187,-2.444324 0.02769,-8.9112352 -0.0219,-11.3569345 C 20.915092,4.8593972 20.794381,4.3984854 20.389234,4.2169623 19.721065,3.9228649 18.963029,4.0489434 18.263313,4.0113896 16.508906,3.9995866 10.754439,3.9989056 8.9999997,3.9999999 Z"
     style="opacity:1;vector-effect:none;fill:#80a3fa;fill-opacity:1;stroke:none;stroke-width:1;stroke-linecap:round;stroke-linejoin:bevel;stroke-miterlimit:4;stroke-dasharray:none;stroke-dashoffset:0;stroke-opacity:1"
     sodipodi:nodetypes="cccccccsccccccc" />
  <path
     style="opacity:1;fill:#ffffff;fill-opacity:1;stroke:none;stroke-width:2;stroke-linecap:round;stroke-linejoin:round;stroke-miterlimit:4;stroke-dasharray:none;stroke-opacity:1"
     d="m 5.9999997,5.9999998 v 1 h -1 v 1.0000001 h 1 V 16 h -1 v 1 h 1 v 1 h 1 V 17 H 17 v 1 h 1 v -1 h 1 V 16 H 18 V 7.9999999 h 1 V 6.9999998 h -1 v -1 h -1 v 1 H 6.9999997 v -1 z m 1,2.0000001 H 17 V 16 h -1 v -4 h -2 v 4 h -1 v -2 h -2 v 2 H 9.9999997 V 9.9999999 h -2 V 16 h -1 z"
     id="rect830"
     inkscape:connector-curvature="0"
     sodipodi:nodetypes="cccccccccccccccccccccccccccccccccccccccccccccc" />
  <rect
     style="opacity:1;fill:#ffffff;fill-opacity:1;fill-rule:evenodd;stroke:none;stroke-width:2;stroke-linecap:butt;stroke-linejoin:round;stroke-miterlimit:4;stroke-dasharray:none;stroke-opacity:1"
     id="rect826"
     width="9"
     height="7"
     x="14"
     y="15" />
  <path
     d="m 13,16 v 2 1 2 c 0,2 1,2 3,2 h 5 c 2,0 3,0 3,-2 v -5 c 0,-2 -1,-2 -3,-2 h -5 c -2,0 -3,0 -3,2 z m 3,-1 h 2 v 3 h -4 v -2 c 0,-1 1,-1 2,-1 z m 3,0 h 2 c 1,0 2,0 2,1 v 2 h -4 z m -5,4 h 4 v 3 h -2 c -1,0 -2,0 -2,-1 z m 5,0 h 4 v 2 c 0,0.85848 -1,1 -2,1 h -2 z"
     id="path2"
     inkscape:connector-curvature="0"
     style="fill:#6d6d6d;fill-opacity:1"
     sodipodi:nodetypes="ccccccccccccccccccccccccccccccccccc" />
</svg>
