<?xml version="1.0" encoding="UTF-8" standalone="no"?>
<svg
   xmlns:dc="http://purl.org/dc/elements/1.1/"
   xmlns:cc="http://creativecommons.org/ns#"
   xmlns:rdf="http://www.w3.org/1999/02/22-rdf-syntax-ns#"
   xmlns:svg="http://www.w3.org/2000/svg"
   xmlns="http://www.w3.org/2000/svg"
   xmlns:sodipodi="http://sodipodi.sourceforge.net/DTD/sodipodi-0.dtd"
   xmlns:inkscape="http://www.inkscape.org/namespaces/inkscape"
   viewBox="0 0 24 24"
   version="1.1"
   id="svg4"
   sodipodi:docname="lc_editannotation.svg"
   inkscape:version="0.92.4 (5da689c313, 2019-01-14)">
  <metadata
     id="metadata10">
    <rdf:RDF>
      <cc:Work
         rdf:about="">
        <dc:format>image/svg+xml</dc:format>
        <dc:type
           rdf:resource="http://purl.org/dc/dcmitype/StillImage" />
      </cc:Work>
    </rdf:RDF>
  </metadata>
  <defs
     id="defs8" />
  <sodipodi:namedview
     pagecolor="#ffffff"
     bordercolor="#666666"
     borderopacity="1"
     objecttolerance="10"
     gridtolerance="10"
     guidetolerance="10"
     inkscape:pageopacity="0"
     inkscape:pageshadow="2"
     inkscape:window-width="1920"
     inkscape:window-height="1011"
     id="namedview6"
     showgrid="true"
     inkscape:zoom="3.4766083"
     inkscape:cx="-43.835371"
     inkscape:cy="52.767379"
     inkscape:window-x="1920"
     inkscape:window-y="32"
     inkscape:window-maximized="1"
     inkscape:current-layer="svg4">
    <inkscape:grid
       type="xygrid"
       id="grid841" />
  </sodipodi:namedview>
  <path
     d="m 19,12 -1,1 -5,5 v 2 h 2 V 19.96875 L 16,19 l 4,-4 1,-1 z m -0.28125,1.6875 0.5625,0.59375 -4.96875,5 -0.59375,-0.59375 z"
     id="path2"
     inkscape:connector-curvature="0"
     style="fill:#e95420"
     sodipodi:nodetypes="ccccccccccccccc" />
  <g
     id="g839"
     transform="translate(5.0607658,-1.501262)">
    <path
       sodipodi:nodetypes="cccccccccccccccccccccc"
       style="fill:#e95420"
       inkscape:connector-curvature="0"
       id="path2-4"
       d="m 14.939234,13.501262 0,-5 c 0,-2 -1,-2 -3,-2 H 1.9392343 c -1.99999995,0 -3,0 -3,2 v 7 c 0,2 1.00000005,2 3,2 l 4,3 v -3 h 2.9999999 l 1,-1 H 4.9392343 v 2 l -2.5,-2 h -0.5 c -0.99999995,0 -1.99999995,0 -1.99999995,-1 v -7 c 0,-1 1,-1 1.99999995,-1 h 9.9999997 c 1,0 2,0 2,1 l 0,4 z" />
    <rect
       ry="0.5"
       y="9.5012617"
       x="1.9392344"
       height="1"
       width="10"
       id="rect821"
       style="opacity:1;fill:#e95420;fill-opacity:1;fill-rule:nonzero;stroke:none;stroke-width:0.00119524;stroke-linecap:butt;stroke-linejoin:round;stroke-miterlimit:4;stroke-dasharray:none;stroke-dashoffset:0;stroke-opacity:1" />
    <rect
       ry="0.5"
       y="13.501262"
       x="1.9392344"
       height="1"
       width="10"
       id="rect823"
       style="opacity:1;fill:#e95420;fill-opacity:1;fill-rule:nonzero;stroke:none;stroke-width:0.00119524;stroke-linecap:butt;stroke-linejoin:round;stroke-miterlimit:4;stroke-dasharray:none;stroke-dashoffset:0;stroke-opacity:1" />
    <rect
       style="opacity:1;fill:#e95420;fill-opacity:1;fill-rule:nonzero;stroke:none;stroke-width:0.00119524;stroke-linecap:butt;stroke-linejoin:round;stroke-miterlimit:4;stroke-dasharray:none;stroke-dashoffset:0;stroke-opacity:1"
       id="rect841"
       width="10"
       height="1"
       x="1.9392344"
       y="11.501262"
       ry="0.5" />
  </g>
</svg>
