<?xml version="1.0" encoding="UTF-8" standalone="no"?>
<svg
   xmlns:osb="http://www.openswatchbook.org/uri/2009/osb"
   xmlns:dc="http://purl.org/dc/elements/1.1/"
   xmlns:cc="http://creativecommons.org/ns#"
   xmlns:rdf="http://www.w3.org/1999/02/22-rdf-syntax-ns#"
   xmlns:svg="http://www.w3.org/2000/svg"
   xmlns="http://www.w3.org/2000/svg"
   xmlns:xlink="http://www.w3.org/1999/xlink"
   xmlns:sodipodi="http://sodipodi.sourceforge.net/DTD/sodipodi-0.dtd"
   xmlns:inkscape="http://www.inkscape.org/namespaces/inkscape"
   height="24"
   id="svg7384"
   version="1.1"
   width="24"
   sodipodi:docname="lc_exportdirecttopdf.svg"
   inkscape:version="1.0.1 (3bc2e813f5, 2020-09-07)"
   inkscape:export-filename="/home/jupiter007/Libreoffice yaru theme fullcolor/build/cmd/lc_exportdirecttopdf.png"
   inkscape:export-xdpi="95"
   inkscape:export-ydpi="95">
  <sodipodi:namedview
     pagecolor="#ffffff"
     bordercolor="#666666"
     borderopacity="1"
     objecttolerance="10"
     gridtolerance="10"
     guidetolerance="10"
     inkscape:pageopacity="0"
     inkscape:pageshadow="2"
     inkscape:window-width="1920"
     inkscape:window-height="1011"
     id="namedview22"
     showgrid="true"
     inkscape:snap-page="true"
     inkscape:snap-grids="true"
     inkscape:zoom="20.85965"
     inkscape:cx="4.5907647"
     inkscape:cy="9.422836"
     inkscape:window-x="0"
     inkscape:window-y="0"
     inkscape:window-maximized="1"
     inkscape:current-layer="svg7384"
     inkscape:snap-global="true"
     inkscape:document-rotation="0">
    <inkscape:grid
       type="xygrid"
       id="grid831" />
  </sodipodi:namedview>
  <metadata
     id="metadata20854">
    <rdf:RDF>
      <cc:Work
         rdf:about="">
        <dc:title />
        <dc:format>image/svg+xml</dc:format>
        <dc:type
           rdf:resource="http://purl.org/dc/dcmitype/StillImage" />
      </cc:Work>
    </rdf:RDF>
  </metadata>
  <defs
     id="defs7386">
    <linearGradient
       id="linearGradient5606"
       osb:paint="solid">
      <stop
         id="stop5608"
         offset="0"
         style="stop-color:#000000;stop-opacity:1;" />
    </linearGradient>
    <linearGradient
       id="linearGradient4526"
       osb:paint="solid">
      <stop
         id="stop4528"
         offset="0"
         style="stop-color:#ffffff;stop-opacity:1;" />
    </linearGradient>
    <linearGradient
       id="linearGradient3600-4"
       osb:paint="gradient">
      <stop
         id="stop3602-7"
         offset="0"
         style="stop-color:#f4f4f4;stop-opacity:1" />
      <stop
         id="stop3604-6"
         offset="1"
         style="stop-color:#dbdbdb;stop-opacity:1" />
    </linearGradient>
    <linearGradient
       inkscape:collect="always"
       xlink:href="#linearGradient927"
       id="linearGradient993"
       x1="328"
       y1="237"
       x2="328"
       y2="251"
       gradientUnits="userSpaceOnUse" />
    <linearGradient
       inkscape:collect="always"
       id="linearGradient927">
      <stop
         style="stop-color:#ffffff;stop-opacity:1;"
         offset="0"
         id="stop923" />
      <stop
         id="stop933"
         offset="0.125"
         style="stop-color:#ffffff;stop-opacity:0.09803922" />
      <stop
         id="stop931"
         offset="0.92500001"
         style="stop-color:#ffffff;stop-opacity:0.09803922" />
      <stop
         style="stop-color:#ffffff;stop-opacity:0.49803922"
         offset="1"
         id="stop925" />
    </linearGradient>
    <clipPath
       clipPathUnits="userSpaceOnUse"
       id="clipPath983">
      <path
         sodipodi:nodetypes="scccssscsss"
         inkscape:connector-curvature="0"
         id="path985"
         d="m 325.09646,237 c -2.80769,0 -3.10979,0.28839 -3.09603,3.10176 V 244 v 3.89824 c -0.0138,2.81337 0.28834,3.10176 3.09603,3.10176 h 5.8075 C 333.71166,251 334,250.71165 334,247.89824 V 244 240.10176 C 334,237.28836 333.71165,237 330.90396,237 Z"
         style="color:#000000;display:inline;overflow:visible;visibility:visible;opacity:1;fill:#46a926;fill-opacity:1;fill-rule:nonzero;stroke:none;stroke-width:2;stroke-miterlimit:4;stroke-dasharray:none;stroke-opacity:1;marker:none;enable-background:accumulate" />
    </clipPath>
    <clipPath
       clipPathUnits="userSpaceOnUse"
       id="clipPath959">
      <path
         style="color:#000000;display:inline;overflow:visible;visibility:visible;opacity:1;fill:#46a926;fill-opacity:1;fill-rule:nonzero;stroke:none;stroke-width:2;stroke-miterlimit:4;stroke-dasharray:none;stroke-opacity:1;marker:none;enable-background:accumulate"
         d="m 330.1929,133.99999 c -5.61538,0 -6.21958,0.57678 -6.19206,6.20352 v 7.79648 7.79648 c -0.0276,5.62673 0.57668,6.20351 6.19206,6.20351 h 11.615 c 5.6154,0 6.19208,-0.5767 6.19208,-6.20351 v -7.79648 -7.79648 c 0,-5.6268 -0.5767,-6.20352 -6.19208,-6.20352 z"
         id="path961"
         inkscape:connector-curvature="0"
         sodipodi:nodetypes="scccssscsss" />
    </clipPath>
    <clipPath
       clipPathUnits="userSpaceOnUse"
       id="clipPath971">
      <path
         style="color:#000000;display:inline;overflow:visible;visibility:visible;opacity:1;fill:#46a926;fill-opacity:1;fill-rule:nonzero;stroke:none;stroke-width:2;stroke-miterlimit:4;stroke-dasharray:none;stroke-opacity:1;marker:none;enable-background:accumulate"
         d="m 327.8652,189 c -4.41209,0 -4.88682,0.45318 -4.8652,4.87419 V 200 206.12581 C 322.9783,210.54682 323.45311,211 327.8652,211 h 8.2696 C 340.54689,211 341,210.54688 341,206.12581 V 200 193.87419 C 341,189.45313 340.54688,189 336.13479,189 Z"
         id="path973"
         inkscape:connector-curvature="0"
         sodipodi:nodetypes="scccssscsss" />
    </clipPath>
    <clipPath
       clipPathUnits="userSpaceOnUse"
       id="clipPath983-5">
      <path
         sodipodi:nodetypes="scccssscsss"
         inkscape:connector-curvature="0"
         id="path985-0"
         d="m 325.09646,237 c -2.80769,0 -3.10979,0.28839 -3.09603,3.10176 V 244 v 3.89824 c -0.0138,2.81337 0.28834,3.10176 3.09603,3.10176 h 5.8075 C 333.71166,251 334,250.71165 334,247.89824 V 244 240.10176 C 334,237.28836 333.71165,237 330.90396,237 Z"
         style="color:#000000;display:inline;overflow:visible;visibility:visible;opacity:1;fill:#46a926;fill-opacity:1;fill-rule:nonzero;stroke:none;stroke-width:2;stroke-miterlimit:4;stroke-dasharray:none;stroke-opacity:1;marker:none;enable-background:accumulate" />
    </clipPath>
    <clipPath
       clipPathUnits="userSpaceOnUse"
       id="clipPath971-5">
      <path
         style="color:#000000;display:inline;overflow:visible;visibility:visible;opacity:1;fill:#46a926;fill-opacity:1;fill-rule:nonzero;stroke:none;stroke-width:2;stroke-miterlimit:4;stroke-dasharray:none;stroke-opacity:1;marker:none;enable-background:accumulate"
         d="m 327.8652,189 c -4.41209,0 -4.88682,0.45318 -4.8652,4.87419 V 200 206.12581 C 322.9783,210.54682 323.45311,211 327.8652,211 h 8.2696 C 340.54689,211 341,210.54688 341,206.12581 V 200 193.87419 C 341,189.45313 340.54688,189 336.13479,189 Z"
         id="path973-2"
         inkscape:connector-curvature="0"
         sodipodi:nodetypes="scccssscsss" />
    </clipPath>
  </defs>
  <path
     sodipodi:nodetypes="cccccccccccc"
     style="opacity:0.7;fill:#000000;stroke:#000000;stroke-width:2;stroke-linejoin:round;stroke-miterlimit:4;stroke-dasharray:none"
     id="path829"
     d="M 8,20 C 6,20 5,20 5,18 V 6 C 5,4 6,4 8,4 h 7 l 1,1 2,2 1,1 V 9.40625 18 c 0,2 -1,2 -3,2 z"
     inkscape:connector-curvature="0" />
  <path
     inkscape:connector-curvature="0"
     d="M 8,20 C 6,20 5,20 5,18 V 6 C 5,4 6,4 8,4 h 7 l 1,1 2,2 1,1 V 9.40625 18 c 0,2 -1,2 -3,2 z"
     id="path2"
     style="fill:#ffffff"
     sodipodi:nodetypes="cccccccccccc" />
  <path
     style="fill:#da1636;fill-opacity:1;stroke-width:0.326514"
     inkscape:connector-curvature="0"
     id="path1036"
     d="m 10.199733,13.836291 c 0.311419,-0.610396 0.665341,-1.298117 0.948619,-1.988566 v 0 l 0.112008,-0.27256 C 10.890348,10.167155 10.668475,9.0369389 10.866689,8.3061299 v 0 C 10.920049,8.1155989 11.140725,8 11.376656,8 v 0 l 0.143767,0.0021 h 0.02639 c 0.322998,-0.005 0.475089,0.405919 0.492346,0.565664 v 0 c 0.0285,0.266047 -0.09458,0.716307 -0.09458,0.716307 v 0 c 0,-0.181818 0.0071,-0.475617 -0.107638,-0.729139 v 0 C 11.703356,8.261594 11.575759,8.086344 11.461357,8.058565 v 0 c -0.05776,0.03858 -0.1139,0.118466 -0.133135,0.272143 v 0 c -0.03983,0.215471 -0.05178,0.487448 -0.05178,0.627653 v 0 c 0,0.495353 0.09753,1.149171 0.289207,1.82317 v 0 c 0.03616,-0.104354 0.06797,-0.204616 0.09328,-0.298559 v 0 c 0.0393,-0.148055 0.289178,-1.129492 0.289178,-1.129492 v 0 c 0,0 -0.06297,1.306439 -0.150921,1.701725 v 0 c -0.01884,0.08353 -0.03963,0.166148 -0.06129,0.250711 v 0 c 0.316067,0.883124 0.825366,1.671328 1.432922,2.238608 v 0 c 0.239549,0.223877 0.542089,0.404388 0.828428,0.56892 v 0 c 0.625316,-0.08935 1.201057,-0.131548 1.681378,-0.126231 v 0 c 0.637257,0.0084 1.105024,0.102655 1.294443,0.289234 v 0 c 0.09275,0.09069 0.13038,0.200217 0.14207,0.322997 v 0 c 0.0027,0.04777 -0.02048,0.159997 -0.02731,0.188166 v 0 c 0.0068,-0.0341 0.0068,-0.201776 -0.504734,-0.365056 v 0 c -0.402885,-0.128794 -1.156909,-0.124786 -2.061687,-0.02847 v 0 c 1.046515,0.511998 2.066058,0.766383 2.389167,0.613874 v 0 c 0.07899,-0.0385 0.174805,-0.169766 0.174805,-0.169766 v 0 c 0,0 -0.05695,0.258756 -0.09784,0.323444 v 0 c -0.05219,0.07028 -0.154568,0.146412 -0.251629,0.172076 v 0 c -0.510272,0.136141 -1.838534,-0.178896 -2.996474,-0.840536 v 0 c -1.293718,0.190532 -2.714504,0.542506 -3.853376,0.916052 v 0 C 8.766894,17.370572 7.925495,18.27137 7.241003,17.928692 v 0 L 6.989347,17.802148 c -0.102294,-0.05851 -0.11791,-0.200941 -0.09425,-0.31693 v 0 c 0.0798,-0.390442 0.569394,-0.978514 1.552834,-1.56575 v 0 C 8.553788,15.855418 9.025315,15.6061 9.025315,15.6061 v 0 c 0,0 -0.34908,0.337863 -0.430859,0.404166 v 0 c -0.78495,0.64324 -1.364281,1.452489 -1.349834,1.766218 v 0 l 0.0028,0.02736 c 0.666789,-0.09503 1.666736,-1.45221 2.952271,-3.967554 m 0.407394,0.208596 c -0.214719,0.404388 -0.424596,0.779326 -0.618356,1.12359 v 0 c 1.07182,-0.449065 2.225416,-0.736435 3.323538,-0.940577 v 0 C 13.164727,14.125995 13.02146,14.018078 12.886655,13.90401 v 0 c -0.604718,-0.51197 -1.065749,-1.150701 -1.399938,-1.822835 v 0 c -0.211935,0.57098 -0.463955,1.177729 -0.879588,1.963709" />
  <path
     inkscape:connector-curvature="0"
     d="M 15,8 V 4.0000001 L 19,8 Z"
     id="path4"
     style="fill:#6d6d6d;fill-opacity:1" />
</svg>
