<?xml version="1.0" encoding="UTF-8" standalone="no"?>
<svg
   xmlns:dc="http://purl.org/dc/elements/1.1/"
   xmlns:cc="http://creativecommons.org/ns#"
   xmlns:rdf="http://www.w3.org/1999/02/22-rdf-syntax-ns#"
   xmlns:svg="http://www.w3.org/2000/svg"
   xmlns="http://www.w3.org/2000/svg"
   xmlns:sodipodi="http://sodipodi.sourceforge.net/DTD/sodipodi-0.dtd"
   xmlns:inkscape="http://www.inkscape.org/namespaces/inkscape"
   viewBox="0 0 24 24"
   version="1.1"
   id="svg4"
   sodipodi:docname="lc_edit.svg"
   inkscape:export-filename="/home/jupiter007/Libreoffice yaru theme fullcolor/build/cmd/lc_edit.png"
   inkscape:export-xdpi="96"
   inkscape:export-ydpi="96"
   inkscape:version="1.0.1 (3bc2e813f5, 2020-09-07)">
  <metadata
     id="metadata10">
    <rdf:RDF>
      <cc:Work
         rdf:about="">
        <dc:format>image/svg+xml</dc:format>
        <dc:type
           rdf:resource="http://purl.org/dc/dcmitype/StillImage" />
      </cc:Work>
    </rdf:RDF>
  </metadata>
  <defs
     id="defs8" />
  <sodipodi:namedview
     pagecolor="#ffffff"
     bordercolor="#666666"
     borderopacity="1"
     objecttolerance="10"
     gridtolerance="10"
     guidetolerance="10"
     inkscape:pageopacity="0"
     inkscape:pageshadow="2"
     inkscape:window-width="1920"
     inkscape:window-height="1011"
     id="namedview6"
     showgrid="true"
     inkscape:zoom="27.812866"
     inkscape:cx="17.518484"
     inkscape:cy="15.297521"
     inkscape:window-x="0"
     inkscape:window-y="0"
     inkscape:window-maximized="1"
     inkscape:current-layer="g12435"
     inkscape:document-rotation="0">
    <inkscape:grid
       type="xygrid"
       id="grid825" />
  </sodipodi:namedview>
  <path
     inkscape:connector-curvature="0"
     id="path828"
     d="M 10,5 5,19 h 3 l 1.455078,-4 h 5.089844 L 16,19 h 3 L 14,5 Z m 2,3 1.818359,5 h -3.636718 z"
     style="opacity:0.7;fill:#000000;fill-opacity:1;stroke:#000000;stroke-width:2;stroke-linecap:butt;stroke-linejoin:round;stroke-miterlimit:4;stroke-dasharray:none;stroke-opacity:1" />
  <path
     inkscape:connector-curvature="0"
     style="fill:#ffffff;fill-opacity:1;stroke:none;stroke-width:1px;stroke-linecap:butt;stroke-linejoin:miter;stroke-opacity:1"
     d="M 10,5 5,19 h 3 l 1.455078,-4 h 5.089844 L 16,19 h 3 L 14,5 Z m 2,3 1.818359,5 h -3.636718 z"
     id="path820" />
  <g
     id="g12435"
     style="display:inline"
     transform="translate(-109.99219,177)">
    <g
       id="g866">
      <path
         sodipodi:nodetypes="cccccccccscsccccccccscsc"
         inkscape:connector-curvature="0"
         id="path3543"
         d="m 126.99219,-168 v 1 2 h 1.99219 c 0.002,0.008 0.008,0.0254 0.008,0.0254 l -1.9e-4,6.9746 c 0,0 -0.006,0.0171 -0.008,0.0254 H 126.992 v 3 h 2 c 0.59893,0 1.08626,-0.20045 1.5,-0.46094 0.41374,0.26049 0.90107,0.46094 1.5,0.46094 h 2 v -3 H 132 c -0.002,-0.008 -0.008,-0.0254 -0.008,-0.0254 l 1.9e-4,-6.9746 c 0,0 0.006,-0.0171 0.008,-0.0254 h 1.992 v -3 h -2 c -0.59893,0 -1.08626,0.20045 -1.5,0.46094 -0.41374,-0.26049 -0.90156,-0.4367 -1.5,-0.46094 z"
         style="color:#000000;font-style:normal;font-variant:normal;font-weight:normal;font-stretch:normal;font-size:medium;line-height:normal;font-family:sans-serif;font-variant-ligatures:normal;font-variant-position:normal;font-variant-caps:normal;font-variant-numeric:normal;font-variant-alternates:normal;font-feature-settings:normal;text-indent:0;text-align:start;text-decoration:none;text-decoration-line:none;text-decoration-style:solid;text-decoration-color:#000000;letter-spacing:normal;word-spacing:normal;text-transform:none;writing-mode:lr-tb;direction:ltr;text-orientation:mixed;dominant-baseline:auto;baseline-shift:baseline;text-anchor:start;white-space:normal;shape-padding:0;clip-rule:nonzero;display:inline;overflow:visible;visibility:visible;opacity:1;isolation:auto;mix-blend-mode:normal;color-interpolation:sRGB;color-interpolation-filters:linearRGB;solid-color:#000000;solid-opacity:1;vector-effect:none;fill:#ffffff;fill-opacity:1;fill-rule:evenodd;stroke:none;stroke-width:2;stroke-linecap:butt;stroke-linejoin:miter;stroke-miterlimit:4;stroke-dasharray:none;stroke-dashoffset:0;stroke-opacity:1;color-rendering:auto;image-rendering:auto;shape-rendering:auto;text-rendering:auto;enable-background:accumulate" />
      <path
         sodipodi:nodetypes="ccsccccsccscsccsccccsccscsc"
         inkscape:connector-curvature="0"
         style="color:#000000;font-style:normal;font-variant:normal;font-weight:normal;font-stretch:normal;font-size:medium;line-height:normal;font-family:sans-serif;font-variant-ligatures:normal;font-variant-position:normal;font-variant-caps:normal;font-variant-numeric:normal;font-variant-alternates:normal;font-feature-settings:normal;text-indent:0;text-align:start;text-decoration:none;text-decoration-line:none;text-decoration-style:solid;text-decoration-color:#000000;letter-spacing:normal;word-spacing:normal;text-transform:none;writing-mode:lr-tb;direction:ltr;text-orientation:mixed;dominant-baseline:auto;baseline-shift:baseline;text-anchor:start;white-space:normal;shape-padding:0;clip-rule:nonzero;display:inline;overflow:visible;visibility:visible;opacity:1;isolation:auto;mix-blend-mode:normal;color-interpolation:sRGB;color-interpolation-filters:linearRGB;solid-color:#000000;solid-opacity:1;vector-effect:none;fill:#111111;fill-opacity:1;fill-rule:evenodd;stroke:none;stroke-width:1px;stroke-linecap:butt;stroke-linejoin:miter;stroke-miterlimit:4;stroke-dasharray:none;stroke-dashoffset:0;stroke-opacity:1;color-rendering:auto;image-rendering:auto;shape-rendering:auto;text-rendering:auto;enable-background:accumulate"
         d="m 127.99219,-167 v 1 h 1 c 0.58333,0 0.73736,0.21691 0.86523,0.47266 0.12788,0.25574 0.13477,0.52734 0.13477,0.52734 l -1.9e-4,7.02538 c 0,0 -0.007,0.2716 -0.13477,0.52734 -0.12787,0.25575 -0.41161,0.56018 -0.86523,0.47266 h -1 v 1 h 1 c 0.72726,0 1.19053,-0.35304 1.5,-0.73828 0.30947,0.38524 0.77274,0.73828 1.5,0.73828 h 1 v -1 h -1 c -0.58333,0 -0.73736,-0.21691 -0.86523,-0.47266 -0.12788,-0.25574 -0.13477,-0.52734 -0.13477,-0.52734 L 130.99219,-165 c 0,0 0.007,-0.2716 0.13477,-0.52734 0.12787,-0.25575 0.28365,-0.42754 0.86523,-0.47266 h 1 v -1 h -1 c -0.72726,0 -1.19053,0.35304 -1.5,0.73828 -0.30947,-0.38524 -0.77519,-0.67869 -1.5,-0.73828 z"
         id="path7092" />
    </g>
  </g>
</svg>
