<?xml version="1.0" encoding="UTF-8" standalone="no"?>
<svg
   xmlns:dc="http://purl.org/dc/elements/1.1/"
   xmlns:cc="http://creativecommons.org/ns#"
   xmlns:rdf="http://www.w3.org/1999/02/22-rdf-syntax-ns#"
   xmlns:svg="http://www.w3.org/2000/svg"
   xmlns="http://www.w3.org/2000/svg"
   xmlns:xlink="http://www.w3.org/1999/xlink"
   xmlns:sodipodi="http://sodipodi.sourceforge.net/DTD/sodipodi-0.dtd"
   xmlns:inkscape="http://www.inkscape.org/namespaces/inkscape"
   height="24"
   viewBox="0 0 24 24"
   width="24"
   version="1.1"
   id="svg4"
   sodipodi:docname="lc_extendedhelp.svg"
   inkscape:version="1.0.1 (3bc2e813f5, 2020-09-07)"
   inkscape:export-filename="/home/jupiter007/Libreoffice yaru theme fullcolor/build/cmd/lc_extendedhelp.png"
   inkscape:export-xdpi="96"
   inkscape:export-ydpi="96">
  <metadata
     id="metadata10">
    <rdf:RDF>
      <cc:Work
         rdf:about="">
        <dc:format>image/svg+xml</dc:format>
        <dc:type
           rdf:resource="http://purl.org/dc/dcmitype/StillImage" />
      </cc:Work>
    </rdf:RDF>
  </metadata>
  <defs
     id="defs8">
    <linearGradient
       inkscape:collect="always"
       id="linearGradient5796">
      <stop
         id="stop5794"
         offset="0"
         style="stop-color:#4d4d4d;stop-opacity:1" />
      <stop
         id="stop5792"
         offset="1"
         style="stop-color:#151515;stop-opacity:1;" />
    </linearGradient>
    <filter
       inkscape:collect="always"
       style="color-interpolation-filters:sRGB"
       id="filter4715-5"
       x="-0.32234022"
       width="1.6446804"
       y="-0.19116727"
       height="1.3823345">
      <feGaussianBlur
         inkscape:collect="always"
         stdDeviation="1.3541014"
         id="feGaussianBlur4717-0" />
    </filter>
    <filter
       inkscape:collect="always"
       style="color-interpolation-filters:sRGB"
       id="filter4719"
       x="-0.16117011"
       width="1.3223403"
       y="-0.095583633"
       height="1.1911674">
      <feGaussianBlur
         inkscape:collect="always"
         stdDeviation="0.67705072"
         id="feGaussianBlur4721" />
    </filter>
    <linearGradient
       inkscape:collect="always"
       xlink:href="#linearGradient5796"
       id="linearGradient5123-9"
       x1="27.49609"
       y1="235.50391"
       x2="43.49609"
       y2="235.50391"
       gradientUnits="userSpaceOnUse"
       gradientTransform="rotate(-90,-84.014652,131.51074)" />
  </defs>
  <sodipodi:namedview
     pagecolor="#ffffff"
     bordercolor="#666666"
     borderopacity="1"
     objecttolerance="10"
     gridtolerance="10"
     guidetolerance="10"
     inkscape:pageopacity="0"
     inkscape:pageshadow="2"
     inkscape:window-width="1920"
     inkscape:window-height="1011"
     id="namedview6"
     showgrid="true"
     inkscape:zoom="27.812867"
     inkscape:cx="-0.98320194"
     inkscape:cy="15.620935"
     inkscape:window-x="0"
     inkscape:window-y="0"
     inkscape:window-maximized="1"
     inkscape:current-layer="svg4"
     inkscape:document-rotation="0">
    <inkscape:grid
       type="xygrid"
       id="grid823" />
  </sodipodi:namedview>
  <path
     style="color:#000000;font-style:normal;font-variant:normal;font-weight:bold;font-stretch:normal;font-size:medium;line-height:1000%;font-family:Ubuntu;-inkscape-font-specification:'Ubuntu Bold';font-variant-ligatures:normal;font-variant-position:normal;font-variant-caps:normal;font-variant-numeric:normal;font-variant-alternates:normal;font-feature-settings:normal;text-indent:0;text-align:start;text-decoration:none;text-decoration-line:none;text-decoration-style:solid;text-decoration-color:#000000;letter-spacing:0px;word-spacing:0px;text-transform:none;writing-mode:lr-tb;direction:ltr;text-orientation:mixed;dominant-baseline:auto;baseline-shift:baseline;text-anchor:start;white-space:normal;shape-padding:0;clip-rule:nonzero;display:inline;overflow:visible;visibility:visible;opacity:0.2;isolation:auto;mix-blend-mode:normal;color-interpolation:sRGB;color-interpolation-filters:linearRGB;solid-color:#000000;solid-opacity:1;vector-effect:none;fill:#000000;fill-opacity:1;fill-rule:nonzero;stroke:none;stroke-width:2;stroke-linecap:butt;stroke-linejoin:miter;stroke-miterlimit:4;stroke-dasharray:none;stroke-dashoffset:0;stroke-opacity:1;filter:url(#filter4715-5);color-rendering:auto;image-rendering:auto;shape-rendering:auto;text-rendering:auto;enable-background:accumulate"
     d="m 11.753907,1.9999957 c -0.92329,0 -1.860738,0.12719 -2.8027351,0.375 -0.956093,0.23514 -1.812916,0.58576 -2.55664,1.0625 l -0.679688,0.43555 1.707031,4.5859298 1.001953,-0.51171 c 0.594471,-0.30487 1.119554,-0.5166 1.5605471,-0.64063 0.42972,-0.12092 0.89278,-0.18359 1.400391,-0.18359 0.432829,0 0.587748,0.0946 0.640625,0.14453 l 0.0098,0.01 0.01172,0.01 c 0.137196,0.12275 0.132813,0.13146 0.132813,0.26172 0,0.25597 -0.05958,0.4235 -0.236328,0.63867 -0.289942,0.33501 -0.612614,0.68098 -0.970703,1.03906 -0.276712,0.27671 -0.546576,0.5626695 -0.806641,0.8574195 -0.288976,0.32751 -0.5441061,0.6829 -0.7695311,1.0586 l -0.0039,0.006 -0.0039,0.006 c -0.219478,0.37911 -0.396515,0.79275 -0.53125,1.23242 -3.79e-4,10e-4 3.79e-4,0.003 0,0.004 -0.151085,0.47635 -0.21875,0.98672 -0.21875,1.52735 v 0.58118 l 0.0039,0.041 c -0.0013,-0.0152 0.0095,0.25586 0.01758,0.45898 h -2.88481 l 5.7031251,6.51955 5.703125,-6.51953 H 13.9375 c -9.4e-4,-0.12851 -0.0039,-0.31924 -0.0039,-0.34375 v -0.29492 c 0,-0.14205 0.02587,-0.27036 0.08789,-0.41211 l 0.0039,-0.01 0.0039,-0.01 c 0.08763,-0.21281 0.19479,-0.40882 0.316407,-0.59375 0.146314,-0.19755 0.302509,-0.38259 0.474609,-0.55469 l 0.01367,-0.0137 0.01172,-0.0137 c 0.206404,-0.22229 0.403884,-0.42732 0.589843,-0.61329 0.270378,-0.27037 0.546065,-0.55473 0.830078,-0.85546 0.317158,-0.33581 0.601786,-0.69491 0.84961,-1.07618 0.254068,-0.39087 0.457528,-0.8127995 0.613281,-1.2558595 0.190508,-0.51008 0.287109,-1.05885 0.287109,-1.625 0,-0.57324 -0.105277,-1.15565 -0.292968,-1.7421798 -0.194227,-0.66057 -0.54919,-1.26684 -1.03125,-1.78906 -0.515519,-0.55848 -1.187478,-0.98303 -1.97461,-1.30274 -5.4e-4,-2.2e-4 -0.0014,2.2e-4 -0.002,0 -0.841212,-0.34795 -1.82393,-0.49361 -2.960882,-0.49361 z m 0,2 c 0.96068,0 1.694634,0.13339 2.197265,0.3418 l 0.0039,0.002 0.0039,0.002 c 0.586182,0.23727 0.994196,0.51471 1.263672,0.80664 0.301544,0.32667 0.484158,0.65334 0.585937,1.0039098 l 0.0039,0.0137 0.0059,0.0137 c 0.136958,0.42458 0.197265,0.80484 0.197265,1.14453 0,0.34994 -0.05497,0.65246 -0.158203,0.92774 l -0.0059,0.0117 -0.0039,0.0117 c -0.105744,0.30401 -0.239691,0.58059 -0.408203,0.83984 -0.178407,0.27447 -0.386733,0.53667 -0.626954,0.7910195 -0.273362,0.28945 -0.536801,0.56219 -0.791015,0.8164 -0.199119,0.19913 -0.404752,0.4145 -0.615235,0.64063 -0.0026,0.003 -0.0052,0.005 -0.0078,0.008 -0.245616,0.2464 -0.473426,0.51099 -0.681641,0.79492 l -0.01367,0.0176 -0.01172,0.0195 c -0.198716,0.29807 -0.365795,0.616 -0.503907,0.94922 -0.165382,0.38076 -0.253906,0.79245 -0.253906,1.20508 v 0.29492 c 0,0.0832 0.002,0.38544 0.0059,0.69727 0.0019,0.15591 0.0047,0.30967 0.0078,0.4375 0.0016,0.0639 0.0036,0.12062 0.0059,0.17187 0.0023,0.0513 -0.009,0.0448 0.01758,0.20313 l 0.140556,0.83368 h 0.664063 l -1.296875,1.48242 -1.296875,-1.48242 h 0.751953 l -0.240234,-1.19531 c 0.03225,0.16126 7.92e-4,-0.0126 -0.0059,-0.13867 -0.0067,-0.12611 -0.01145,-0.29301 -0.01758,-0.46094 -0.01104,-0.3026 -0.01718,-0.53761 -0.03125,-0.7461 v -0.54101 c 0,-0.37606 0.04738,-0.68184 0.125,-0.92578 l 0.002,-0.006 0.002,-0.006 c 0.09404,-0.309 0.210961,-0.58043 0.34961,-0.82031 3.98e-4,-6.9e-4 0.0016,-10e-4 0.002,-0.002 0.165967,-0.27505 0.347076,-0.52356 0.546875,-0.75 0.231739,-0.26264 0.472823,-0.5197 0.720703,-0.76758 0.39148,-0.39146 0.753758,-0.77581 1.083985,-1.1581995 l 0.0059,-0.01 0.0078,-0.008 c 0.443545,-0.53689 0.695313,-1.222789 0.695313,-1.916009 0,-0.65156 -0.315548,-1.30551 -0.794922,-1.7402404 -0.536066,-0.49844 -1.258353,-0.68554 -2,-0.68554 -0.672717,0 -1.323897,0.0835 -1.9433591,0.25781 -0.281614,0.0792 -0.598213,0.24487 -0.894532,0.36328 l -0.34375,-0.92383 c 0.389643,-0.18124 0.74167,-0.38596 1.230469,-0.50586 l 0.0078,-0.002 0.0098,-0.002 c 0.7915631,-0.20829 1.5576201,-0.30971 2.3025851,-0.3097104 z"
     id="path4685-8"
     inkscape:connector-curvature="0" />
  <path
     style="color:#000000;font-style:normal;font-variant:normal;font-weight:bold;font-stretch:normal;font-size:medium;line-height:1000%;font-family:Ubuntu;-inkscape-font-specification:'Ubuntu Bold';font-variant-ligatures:normal;font-variant-position:normal;font-variant-caps:normal;font-variant-numeric:normal;font-variant-alternates:normal;font-feature-settings:normal;text-indent:0;text-align:start;text-decoration:none;text-decoration-line:none;text-decoration-style:solid;text-decoration-color:#000000;letter-spacing:0px;word-spacing:0px;text-transform:none;writing-mode:lr-tb;direction:ltr;text-orientation:mixed;dominant-baseline:auto;baseline-shift:baseline;text-anchor:start;white-space:normal;shape-padding:0;clip-rule:nonzero;display:inline;overflow:visible;visibility:visible;opacity:0.7;isolation:auto;mix-blend-mode:normal;color-interpolation:sRGB;color-interpolation-filters:linearRGB;solid-color:#000000;solid-opacity:1;vector-effect:none;fill:#000000;fill-opacity:1;fill-rule:nonzero;stroke:none;stroke-width:1;stroke-linecap:butt;stroke-linejoin:miter;stroke-miterlimit:4;stroke-dasharray:none;stroke-dashoffset:0;stroke-opacity:1;filter:url(#filter4719);color-rendering:auto;image-rendering:auto;shape-rendering:auto;text-rendering:auto;enable-background:accumulate"
     d="m 11.753907,3.4999957 c -0.879013,0 -1.77305,0.11914 -2.6777351,0.35742 -0.913757,0.22414 -1.719746,0.55619 -2.412109,1 l -0.339844,0.21875 1.371094,3.6816398 0.5,-0.25586 c 0.616907,-0.31637 1.169551,-0.54195 1.652344,-0.67773 0.4771551,-0.13427 0.9882221,-0.20117 1.5371091,-0.20117 0.511497,0 0.810395,0.11693 0.984375,0.28125 l 0.0059,0.004 0.0039,0.006 c 0.224335,0.20072 0.300781,0.37292 0.300781,0.63477 0,0.36585 -0.107058,0.66242 -0.351563,0.95898 -4.39e-4,5.4e-4 4.4e-4,10e-4 0,0.002 -0.300561,0.3476395 -0.634551,0.7029195 -1.001953,1.0703095 -0.269504,0.2695 -0.532173,0.54921 -0.785156,0.83594 -0.267439,0.30309 -0.505724,0.63064 -0.7167971,0.98242 l -0.002,0.004 -0.002,0.004 c -0.19991,0.34532 -0.361599,0.72257 -0.486328,1.13086 -1.85e-4,5.8e-4 1.84e-4,10e-4 0,0.002 -0.132938,0.41854 -0.195313,0.8791 -0.195313,1.37891 v 0.5625 l 0.002,0.0195 c 0.0031,0.037 0.01681,0.41744 0.0293,0.75977 0.0031,0.0849 0.0064,0.15899 0.0098,0.24023 h -2.302758 l 4.6015621,5.25928 4.601562,-5.25977 h -2.638671 c -9.06e-4,-0.0579 -0.0012,-0.10574 -0.002,-0.16602 -0.0038,-0.30495 -0.0059,-0.62099 -0.0059,-0.67773 v -0.29492 c 0,-0.21037 0.04247,-0.40931 0.13086,-0.61133 l 0.002,-0.006 0.002,-0.006 c 0.102047,-0.24783 0.224847,-0.47835 0.36914,-0.69531 8.01e-4,-0.001 0.0012,-0.003 0.002,-0.004 0.161602,-0.21849 0.337203,-0.42118 0.527343,-0.61133 l 0.0059,-0.006 0.0078,-0.008 c 0.20976,-0.22589 0.410223,-0.4356 0.601563,-0.62695 0.266336,-0.26633 0.538961,-0.54779 0.820312,-0.8457 0.297923,-0.31545 0.564453,-0.64934 0.794922,-1.00391 0.234306,-0.36047 0.422809,-0.74877 0.566406,-1.16016 0.168297,-0.4509395 0.251953,-0.9377595 0.251953,-1.4492195 0,-0.51489 -0.09268,-1.04795 -0.267578,-1.59374 -0.170703,-0.5854 -0.48547,-1.1247398 -0.923828,-1.5996098 -0.454508,-0.49239 -1.06115,-0.87858 -1.798828,-1.17774 -5.19e-4,-2.1e-4 -0.0014,2.2e-4 -0.002,0 -0.756583,-0.31338 -1.67685,-0.45703 -2.769531,-0.45703 z m 0,1 c 1.00493,0 1.801292,0.13536 2.388671,0.37891 l 0.002,0.002 h 0.002 c 0.637354,0.25798 1.1119,0.57451 1.443359,0.93359 0.347494,0.3764498 0.574558,0.7717998 0.699219,1.2011698 l 0.002,0.008 0.002,0.008 c 0.150446,0.46639 0.222656,0.89752 0.222656,1.29687 0,0.40449 -0.06602,0.76916 -0.191406,1.10352 l -0.002,0.006 -0.002,0.006 c -0.118445,0.3405295 -0.272076,0.6537095 -0.462891,0.9472595 -0.19576,0.30118 -0.422185,0.58857 -0.68164,0.86329 -0.276025,0.29227 -0.542526,0.56792 -0.800782,0.82617 -0.197797,0.1978 -0.403665,0.41307 -0.615234,0.64062 -0.230849,0.23086 -0.443305,0.47969 -0.638672,0.7461 l -0.0078,0.008 -0.0059,0.01 c -0.181731,0.27259 -0.336307,0.56441 -0.46289,0.87109 -0.138972,0.32037 -0.210938,0.66154 -0.210938,1.00586 v 0.29492 c 0,0.0744 0.002,0.37992 0.0059,0.68945 0.0019,0.15477 0.0047,0.30951 0.0078,0.4336 0.0015,0.062 0.0019,0.11641 0.0039,0.16211 0.002,0.0457 -6.27e-4,0.0553 0.01367,0.14062 l 0.06836,0.41797 h 1.341796 l -2.396569,2.73716 -2.3964841,-2.73828 h 1.2402341 l -0.119141,-0.59766 c 0.01203,0.0601 -0.0067,-0.0795 -0.01367,-0.21093 -0.0069,-0.13145 -0.01337,-0.29974 -0.01953,-0.46875 -0.0117,-0.32079 -0.01923,-0.59798 -0.03125,-0.76368 v -0.54101 c 0,-0.41754 0.05225,-0.77388 0.148438,-1.07617 v -0.004 l 0.002,-0.002 c 0.103633,-0.34051 0.236611,-0.64775 0.394531,-0.92188 l 0.002,-0.002 c 0.181989,-0.30301 0.381695,-0.58233 0.605469,-0.83594 0.238821,-0.27067 0.487099,-0.53398 0.742188,-0.78906 0.384264,-0.38426 0.737742,-0.76128 1.058593,-1.13281 l 0.0039,-0.004 0.002,-0.004 c 0.377509,-0.4569595 0.582031,-1.0133395 0.582031,-1.5976495 0,-0.52202 -0.234457,-1.01683 -0.628906,-1.37305 -0.415916,-0.39007 -0.99953,-0.55273 -1.666016,-0.55273 -0.631441,0 -1.234614,0.0793 -1.8066411,0.24023 -0.407001,0.11447 -0.866986,0.32928 -1.322265,0.53711 l -0.6875,-1.8496098 c 0.517873,-0.28693 1.064639,-0.55355 1.746094,-0.7207 l 0.0039,-0.002 h 0.0039 c 0.8302831,-0.21931 1.6411251,-0.32812 2.4316411,-0.32812 z"
     id="path3579-2"
     inkscape:connector-curvature="0" />
  <path
     style="font-style:normal;font-variant:normal;font-weight:bold;font-stretch:normal;font-size:medium;line-height:1000%;font-family:Ubuntu;-inkscape-font-specification:'Ubuntu Bold';letter-spacing:0px;word-spacing:0px;fill:#ffffff;fill-opacity:1;stroke:#ffffff;stroke-width:2;stroke-linecap:butt;stroke-linejoin:miter;stroke-miterlimit:4;stroke-dasharray:none;stroke-opacity:1"
     d="M 11.775391,3 C 10.939325,3 10.085651,3.11425 9.216797,3.34375 8.347945,3.55687 7.594424,3.86947 6.955078,4.2793 L 7.988281,7.05664 C 8.627625,6.72876 9.209784,6.49129 9.734375,6.34375 c 0.524591,-0.14762 1.081711,-0.2207 1.671875,-0.2207 0.590164,0 1.033042,0.13928 1.328125,0.41797 0.311475,0.27868 0.466797,0.61437 0.466797,1.00781 0,0.47541 -0.155322,0.90226 -0.466797,1.27929 -0.311476,0.36068 -0.656153,0.72843 -1.033203,1.10547 -0.262296,0.26229 -0.51777,0.5338 -0.763672,0.8125 -0.245902,0.27869 -0.465388,0.5823 -0.662109,0.91016 -0.180328,0.31149 -0.328606,0.65615 -0.44336,1.0332 -0.114752,0.36065 -0.171875,0.7695 -0.171875,1.22852 v 0.54101 C 9.676536,14.6557 9.701596,15.83607 9.734376,16 H 8 l 3.5,4 3.5,-4 h -2.021484 c -0.01649,-0.0984 -0.02344,-1.2126 -0.02344,-1.34375 v -0.29492 c 0,-0.27869 0.05712,-0.55021 0.171875,-0.8125 0.114755,-0.27869 0.254035,-0.54121 0.417969,-0.78711 0.180328,-0.2459 0.37673,-0.47438 0.589844,-0.6875 0.213115,-0.22951 0.418513,-0.4439 0.615234,-0.64063 0.262296,-0.26229 0.531859,-0.54084 0.810547,-0.83593 0.278689,-0.29508 0.525166,-0.60573 0.738281,-0.9336 0.213116,-0.32787 0.384478,-0.67959 0.515625,-1.05664 0.147542,-0.39344 0.222656,-0.82027 0.222656,-1.2793 0,-0.45902 -0.08216,-0.94297 -0.246093,-1.45117 C 16.643472,5.36876 16.371957,4.90083 15.978514,4.47461 15.585072,4.04838 15.043993,3.69666 14.355467,3.41797 13.683339,3.13928 12.824572,3 11.775391,3 Z"
     id="path3590"
     inkscape:connector-curvature="0"
     sodipodi:nodetypes="sccccscscccccsccccccsscccccccscccs" />
  <path
     sodipodi:nodetypes="sccccscscccccsccccccsscccccccscccs"
     inkscape:connector-curvature="0"
     id="path3579-5"
     d="m 11.753899,2.99999 c -0.83607,0 -1.68974,0.11425 -2.5586,0.34375 -0.86885,0.21312 -1.62237,0.52572 -2.26171,0.93555 l 1.0332,2.77734 c 0.63934,-0.32788 1.2215,-0.56535 1.74609,-0.71289 0.52459,-0.14762 1.08171,-0.2207 1.67188,-0.2207 0.59016,0 1.03304,0.13928 1.32812,0.41797 0.31148,0.27868 0.4668,0.61437 0.4668,1.00781 0,0.47541 -0.15532,0.90226 -0.4668,1.27929 -0.31147,0.36068 -0.65615,0.72843 -1.0332,1.10547 -0.2623,0.26229 -0.51777,0.5338 -0.76367,0.8125 -0.2459,0.27869 -0.46539,0.5823 -0.66211,0.91016 -0.18033,0.31149 -0.32861,0.65615 -0.44336,1.0332 -0.11475,0.36065 -0.17188,0.7695 -0.17188,1.22852 v 0.54101 c 0.0164,0.19672 0.0414,1.37709 0.0742,1.54102 h -1.73437 l 3.5,4 3.5,-4 h -2.02149 c -0.0165,-0.0984 -0.0234,-1.2126 -0.0234,-1.34375 v -0.29492 c 0,-0.27869 0.0571,-0.55021 0.17188,-0.8125 0.11475,-0.27869 0.25403,-0.54121 0.41797,-0.78711 0.18033,-0.2459 0.37673,-0.47438 0.58984,-0.6875 0.21312,-0.22951 0.41851,-0.4439 0.61524,-0.64063 0.26229,-0.26229 0.53185,-0.54084 0.81054,-0.83593 0.27869,-0.29508 0.52517,-0.60573 0.73828,-0.9336 0.21312,-0.32787 0.38448,-0.67959 0.51563,-1.05664 0.14754,-0.39344 0.22265,-0.82027 0.22265,-1.2793 0,-0.45902 -0.0822,-0.94297 -0.24609,-1.45117 -0.14754,-0.50819 -0.41906,-0.97612 -0.8125,-1.40234 -0.39344,-0.42623 -0.93452,-0.77795 -1.62305,-1.05664 -0.67212,-0.27869 -1.53089,-0.41797 -2.58007,-0.41797 z"
     style="font-style:normal;font-variant:normal;font-weight:bold;font-stretch:normal;font-size:medium;line-height:1000%;font-family:Ubuntu;-inkscape-font-specification:'Ubuntu Bold';letter-spacing:0px;word-spacing:0px;fill:url(#linearGradient5123-9);fill-opacity:1;stroke:none;stroke-width:1.805px;stroke-linecap:butt;stroke-linejoin:miter;stroke-opacity:1" />
</svg>
