<?xml version="1.0" encoding="UTF-8" standalone="no"?>
<svg
   xmlns:dc="http://purl.org/dc/elements/1.1/"
   xmlns:cc="http://creativecommons.org/ns#"
   xmlns:rdf="http://www.w3.org/1999/02/22-rdf-syntax-ns#"
   xmlns:svg="http://www.w3.org/2000/svg"
   xmlns="http://www.w3.org/2000/svg"
   xmlns:sodipodi="http://sodipodi.sourceforge.net/DTD/sodipodi-0.dtd"
   xmlns:inkscape="http://www.inkscape.org/namespaces/inkscape"
   viewBox="0 0 24 24"
   version="1.1"
   id="svg4"
   sodipodi:docname="lc_equalizewidth.svg"
   inkscape:export-filename="/home/jupiter007/Libreoffice yaru theme fullcolor/build/cmd/lc_equalizewidth.png"
   inkscape:export-xdpi="95"
   inkscape:export-ydpi="95"
   inkscape:version="1.0.1 (3bc2e813f5, 2020-09-07)">
  <metadata
     id="metadata10">
    <rdf:RDF>
      <cc:Work
         rdf:about="">
        <dc:format>image/svg+xml</dc:format>
        <dc:type
           rdf:resource="http://purl.org/dc/dcmitype/StillImage" />
      </cc:Work>
    </rdf:RDF>
  </metadata>
  <defs
     id="defs8" />
  <sodipodi:namedview
     pagecolor="#ffffff"
     bordercolor="#666666"
     borderopacity="1"
     objecttolerance="10"
     gridtolerance="10"
     guidetolerance="10"
     inkscape:pageopacity="0"
     inkscape:pageshadow="2"
     inkscape:window-width="1920"
     inkscape:window-height="1011"
     id="namedview6"
     showgrid="true"
     inkscape:zoom="13.906433"
     inkscape:cx="17.86343"
     inkscape:cy="11.682603"
     inkscape:window-x="0"
     inkscape:window-y="32"
     inkscape:window-maximized="1"
     inkscape:current-layer="svg4"
     inkscape:document-rotation="0">
    <inkscape:grid
       type="xygrid"
       id="grid911" />
  </sodipodi:namedview>
  <path
     sodipodi:nodetypes="cccccccccccc"
     style="opacity:0.7;fill:#000000;stroke:#000000;stroke-width:2;stroke-linejoin:round;stroke-miterlimit:4;stroke-dasharray:none"
     id="path829"
     d="m 6,17.000001 c -2,0 -3,0 -3,-2 v -12 c 0,-2 1,-2 3,-2 h 7 l 1,1 2,2 1,1 v 1.40625 8.59375 c 0,2 -1,2 -3,2 z"
     inkscape:connector-curvature="0" />
  <path
     inkscape:connector-curvature="0"
     d="m 6,17.000001 c -2,0 -3,0 -3,-2 v -12 c 0,-2 1,-2 3,-2 h 7 l 1,1 2,2 1,1 v 1.40625 8.59375 c 0,2 -1,2 -3,2 z"
     id="path2"
     style="fill:#ffffff"
     sodipodi:nodetypes="cccccccccccc" />
  <path
     inkscape:connector-curvature="0"
     d="m 13,5.000001 v -4 l 4,4 z"
     id="path4"
     style="fill:#6d6d6d;fill-opacity:1" />
  <rect
     y="8"
     x="1"
     height="4"
     width="18"
     id="rect827"
     style="opacity:0.7;fill:#000000;fill-opacity:1;stroke:#000000;stroke-width:2;stroke-linejoin:round;stroke-miterlimit:4;stroke-dasharray:none;stroke-opacity:1" />
  <rect
     style="fill:#fec589;fill-opacity:1;stroke:none;stroke-width:2;stroke-linejoin:round;stroke-miterlimit:4;stroke-dasharray:none;stroke-opacity:1"
     id="rect825"
     width="18"
     height="4"
     x="1"
     y="8" />
  <rect
     style="fill:#333333;fill-opacity:1;stroke:none;stroke-width:2;stroke-linejoin:round;stroke-miterlimit:4;stroke-dasharray:none;stroke-opacity:1"
     id="rect829"
     width="1"
     height="2"
     x="5"
     y="8" />
  <rect
     y="8"
     x="8"
     height="2"
     width="1"
     id="rect831"
     style="fill:#f22c42;fill-opacity:1;stroke:none;stroke-width:2;stroke-linejoin:round;stroke-miterlimit:4;stroke-dasharray:none;stroke-opacity:1" />
  <rect
     style="fill:#333333;fill-opacity:1;stroke:none;stroke-width:2;stroke-linejoin:round;stroke-miterlimit:4;stroke-dasharray:none;stroke-opacity:1"
     id="rect833"
     width="1"
     height="2"
     x="11"
     y="8" />
  <rect
     y="8"
     x="14"
     height="2"
     width="1"
     id="rect835"
     style="fill:#f22c42;fill-opacity:1;stroke:none;stroke-width:2;stroke-linejoin:round;stroke-miterlimit:4;stroke-dasharray:none;stroke-opacity:1" />
  <rect
     y="8"
     x="2"
     height="2"
     width="1"
     id="rect841"
     style="fill:#f22c42;fill-opacity:1;stroke:none;stroke-width:2;stroke-linejoin:round;stroke-miterlimit:4;stroke-dasharray:none;stroke-opacity:1" />
  <rect
     style="fill:#333333;fill-opacity:1;stroke:none;stroke-width:2;stroke-linejoin:round;stroke-miterlimit:4;stroke-dasharray:none;stroke-opacity:1"
     id="rect843"
     width="1"
     height="2"
     x="17"
     y="8" />
  <path
     inkscape:connector-curvature="0"
     d="m 9.999999,23 c -2,0 -3,0 -3,-2 V 9 c 0,-2 1,-2 3,-2 h 7 l 1,1 2,2 1,1 V 12.40625 21 c 0,2 -1,2 -3,2 z"
     id="path920"
     style="opacity:0.7;fill:#000000;stroke:#000000;stroke-width:2;stroke-linejoin:round;stroke-miterlimit:4;stroke-dasharray:none"
     sodipodi:nodetypes="cccccccccccc" />
  <path
     sodipodi:nodetypes="cccccccccccc"
     style="fill:#ffffff"
     id="path922"
     d="m 9.999999,23 c -2,0 -3,0 -3,-2 V 9 c 0,-2 1,-2 3,-2 h 7 l 1,1 2,2 1,1 V 12.40625 21 c 0,2 -1,2 -3,2 z"
     inkscape:connector-curvature="0" />
  <path
     style="fill:#6d6d6d;fill-opacity:1"
     id="path924"
     d="M 16.999999,11 V 7 l 4,4 z"
     inkscape:connector-curvature="0" />
  <rect
     style="opacity:0.7;fill:#000000;fill-opacity:1;stroke:#000000;stroke-width:2;stroke-linejoin:round;stroke-miterlimit:4;stroke-dasharray:none;stroke-opacity:1"
     id="rect926"
     width="18"
     height="4"
     x="5"
     y="16" />
  <rect
     y="16"
     x="5"
     height="4"
     width="18"
     id="rect928"
     style="fill:#fec589;fill-opacity:1;stroke:none;stroke-width:2;stroke-linejoin:round;stroke-miterlimit:4;stroke-dasharray:none;stroke-opacity:1" />
  <rect
     y="16"
     x="9"
     height="2"
     width="1"
     id="rect930"
     style="fill:#333333;fill-opacity:1;stroke:none;stroke-width:2;stroke-linejoin:round;stroke-miterlimit:4;stroke-dasharray:none;stroke-opacity:1" />
  <rect
     style="fill:#f22c42;fill-opacity:1;stroke:none;stroke-width:2;stroke-linejoin:round;stroke-miterlimit:4;stroke-dasharray:none;stroke-opacity:1"
     id="rect932"
     width="1"
     height="2"
     x="12"
     y="16" />
  <rect
     y="16"
     x="15"
     height="2"
     width="1"
     id="rect934"
     style="fill:#333333;fill-opacity:1;stroke:none;stroke-width:2;stroke-linejoin:round;stroke-miterlimit:4;stroke-dasharray:none;stroke-opacity:1" />
  <rect
     style="fill:#f22c42;fill-opacity:1;stroke:none;stroke-width:2;stroke-linejoin:round;stroke-miterlimit:4;stroke-dasharray:none;stroke-opacity:1"
     id="rect936"
     width="1"
     height="2"
     x="18"
     y="16" />
  <rect
     style="fill:#f22c42;fill-opacity:1;stroke:none;stroke-width:2;stroke-linejoin:round;stroke-miterlimit:4;stroke-dasharray:none;stroke-opacity:1"
     id="rect938"
     width="1"
     height="2"
     x="6"
     y="16" />
  <rect
     y="16"
     x="21"
     height="2"
     width="1"
     id="rect940"
     style="fill:#333333;fill-opacity:1;stroke:none;stroke-width:2;stroke-linejoin:round;stroke-miterlimit:4;stroke-dasharray:none;stroke-opacity:1" />
</svg>
