<?xml version="1.0" encoding="UTF-8" standalone="no"?>
<svg
   xmlns:dc="http://purl.org/dc/elements/1.1/"
   xmlns:cc="http://creativecommons.org/ns#"
   xmlns:rdf="http://www.w3.org/1999/02/22-rdf-syntax-ns#"
   xmlns:svg="http://www.w3.org/2000/svg"
   xmlns="http://www.w3.org/2000/svg"
   xmlns:sodipodi="http://sodipodi.sourceforge.net/DTD/sodipodi-0.dtd"
   xmlns:inkscape="http://www.inkscape.org/namespaces/inkscape"
   viewBox="0 0 24 24"
   version="1.1"
   id="svg4"
   sodipodi:docname="lc_editprintarea.svg"
   inkscape:version="1.0.1 (3bc2e813f5, 2020-09-07)"
   inkscape:export-filename="/home/jupiter007/Libreoffice yaru theme fullcolor/build/cmd/lc_defineprintarea.png"
   inkscape:export-xdpi="96"
   inkscape:export-ydpi="96">
  <metadata
     id="metadata10">
    <rdf:RDF>
      <cc:Work
         rdf:about="">
        <dc:format>image/svg+xml</dc:format>
        <dc:type
           rdf:resource="http://purl.org/dc/dcmitype/StillImage" />
        <dc:title></dc:title>
      </cc:Work>
    </rdf:RDF>
  </metadata>
  <defs
     id="defs8" />
  <sodipodi:namedview
     pagecolor="#ffffff"
     bordercolor="#666666"
     borderopacity="1"
     objecttolerance="10"
     gridtolerance="10"
     guidetolerance="10"
     inkscape:pageopacity="0"
     inkscape:pageshadow="2"
     inkscape:window-width="1920"
     inkscape:window-height="1016"
     id="namedview6"
     showgrid="true"
     inkscape:zoom="19.666667"
     inkscape:cx="18.790359"
     inkscape:cy="17.908263"
     inkscape:window-x="0"
     inkscape:window-y="27"
     inkscape:window-maximized="1"
     inkscape:current-layer="svg4"
     inkscape:document-rotation="0">
    <inkscape:grid
       type="xygrid"
       id="grid831" />
  </sodipodi:namedview>
  <path
     id="rect827"
     style="opacity:1;fill:#ffffff;fill-opacity:1;stroke:none;stroke-width:2;stroke-linecap:round;stroke-linejoin:round;stroke-miterlimit:4;stroke-dasharray:none;stroke-opacity:1"
     d="M 2 2 L 2 18 L 11 18 L 11 17.902344 C 11 17.18395 11.05982 16.542139 11.289062 15.933594 C 11.530605 15.288846 11.981641 14.742282 12.580078 14.412109 C 13.015951 14.171395 13.454386 14.073079 13.845703 14.011719 L 13.921875 14 L 14 14 C 14 13.499999 13.9404 12.786668 14.417969 12.070312 C 14.895538 11.353958 15.833333 11 17 11 L 18 11 L 18 2 L 2 2 z " />
  <path
     id="path2"
     style="opacity:1;fill:#6d6d6d;fill-opacity:1"
     d="M 4 1 C 2 1 1 1 1 3 L 1 17 C 1 19 2 19 4 19 L 11 19 L 11 18 L 8 18 L 8 15 L 11.855469 15 C 12.062828 14.766906 12.30375 14.564567 12.580078 14.412109 C 13.015951 14.171395 13.454386 14.073079 13.845703 14.011719 L 13.921875 14 L 13 14 L 13 12 L 14.474609 12 C 14.96628 11.333195 15.874172 11 17 11 L 13 11 L 13 9 L 18 9 L 18 11 L 19 11 L 19 3 C 19 1 18 1 16 1 L 4 1 z M 4 2 L 7 2 L 7 3 L 7 5 L 6 5 L 2 5 L 2 3 C 2 2 3 2 4 2 z M 8 2 L 12 2 L 12 3 L 12 5 L 8 5 L 8 3 L 8 2 z M 13 2 L 16 2 C 17 2 18 2 18 3 L 18 5 L 14 5 L 13 5 L 13 3 L 13 2 z M 2 6 L 6 6 L 7 6 L 7 8 L 2 8 L 2 6 z M 8 6 L 12 6 L 12 8 L 8 8 L 8 6 z M 13 6 L 18 6 L 18 8 L 13 8 L 13 6 z M 2 9 L 7 9 L 7 11 L 2 11 L 2 9 z M 8 9 L 12 9 L 12 11 L 8 11 L 8 9 z M 2 12 L 7 12 L 7 14 L 6 14 L 2 14 L 2 12 z M 8 12 L 12 12 L 12 14 L 8 14 L 8 12 z M 2 15 L 6 15 L 7 15 L 7 17.099609 L 7 18 L 4 18 C 3 18 2 18 2 17 L 2 15 z " />
  <path
     style="color:#000000;font-weight:400;line-height:normal;font-family:sans-serif;font-variant-ligatures:normal;font-variant-position:normal;font-variant-caps:normal;font-variant-numeric:normal;font-variant-alternates:normal;font-feature-settings:normal;text-indent:0;text-align:start;text-decoration:none;text-decoration-line:none;text-decoration-style:solid;text-decoration-color:#000000;text-transform:none;text-orientation:mixed;white-space:normal;shape-padding:0;overflow:visible;opacity:0.7;isolation:auto;mix-blend-mode:normal;fill:#000000;fill-opacity:1;marker:none"
     d="m 17,11.999999 c -2,0 -2,1 -2,2.000002 v 1 l -1,1e-6 c -0.338,0.053 -0.6555,0.131109 -0.9375,0.287109 -0.377,0.208 -0.673891,0.559049 -0.837891,0.998047 C 12.05961,16.723158 12,17.244347 12,17.902346 v 0.09766 1.000001 0.09766 c 0,0.658 0.05961,1.179188 0.224609,1.617188 0.164,0.438996 0.460891,0.790043 0.837891,0.998044 0.282,0.155999 0.5995,0.234108 0.9375,0.287109 h 1 v 9.97e-4 c 0,1.108001 0.738687,2 1.65625,2 h 2.6875 c 0.917563,0 1.65625,-0.891999 1.65625,-2 v -9.97e-4 h 1 c 0.338,-0.053 0.6545,-0.13111 0.9375,-0.287109 0.389009,-0.222302 0.686728,-0.576272 0.837891,-0.998047 C 23.940391,20.276847 24,19.754659 24,19.097659 v -0.09766 -1 -0.09766 c 0,-0.657 -0.05961,-1.179188 -0.224609,-1.617189 C 23.624228,15.863379 23.326509,15.509407 22.9375,15.287107 22.6545,15.131108 22.338,15.052998 22,14.999998 l -1,3e-6 -0.0078,-1.007814 C 21,12.999999 21,11.999999 19,11.999999 Z m -2,4.039066 v 2.960938 h 6 v -2.960937 c 0.66579,0.03204 1.204393,0.08538 1.453125,0.222656 0.184,0.1 0.289719,0.212656 0.386719,0.472656 0.097,0.26 0.160156,0.673625 0.160156,1.265625 v 1 c 0,0.592 -0.06316,1.005625 -0.160156,1.265625 -0.097,0.26 -0.202719,0.372655 -0.386719,0.472656 C 22.204393,20.87556 21.66579,20.928904 21,20.960942 v -2.960939 h -6 v 2.960939 c -0.666999,-0.03202 -1.206199,-0.0853 -1.455078,-0.222659 -0.183,-0.101 -0.286766,-0.212656 -0.384766,-0.472655 C 13.06316,20.005627 13,19.592002 13,19.000003 v -1 c 0,-0.592001 0.06316,-1.005625 0.160156,-1.265625 0.098,-0.26 0.201766,-0.371656 0.384766,-0.472657 C 13.793801,16.124362 14.333001,16.071081 15,16.039065 Z"
     id="path2013-2-4"
     inkscape:connector-curvature="0"
     sodipodi:nodetypes="ccccccsccsccccssssccccsccsccccccccccccsssscccccccsscsc" />
  <path
     style="opacity:1;vector-effect:none;fill:#b3b3b3;fill-opacity:1;stroke:none;stroke-width:0.0625;stroke-linecap:round;stroke-linejoin:round;stroke-miterlimit:4;stroke-dasharray:none;stroke-dashoffset:0;stroke-opacity:1"
     d="m 17.205078,15.929689 c -1.023612,0.01691 -2.052751,-0.03144 -3.072265,0.07813 -0.390162,0.04851 -0.842108,0.180755 -1,0.583985 -0.271294,0.536285 -0.173565,1.159618 -0.205079,1.738283 0.0061,1.166365 -0.02619,0.213418 0.02344,1.378908 0.05,0.423199 0.18132,0.933585 0.621094,1.107421 0.446094,0.207619 0.95423,0.159023 1.427735,0.144532 v -1.960939 h 6 v 1.960939 c 0.118063,0.0465 0.292358,-0.01647 0.417969,0.0078 0.459325,-0.0054 1.000794,-0.0015 1.326172,-0.384767 0.397859,-0.51661 0.29202,-1.087289 0.316406,-1.695313 -0.0066,-1.233721 0.02504,-0.470216 -0.02344,-1.703125 C 22.9881,16.759539 22.803553,16.26976 22.355472,16.128915 21.62466,15.874225 20.836453,15.979677 20.078128,15.94532 17.787239,15.93447 19.495994,15.93021 17.205081,15.92969 Z"
     id="path4490"
     inkscape:connector-curvature="0"
     sodipodi:nodetypes="ccccccccccccccccc" />
  <rect
     style="opacity:1;vector-effect:none;fill:#666666;fill-opacity:1;stroke:none;stroke-width:4;stroke-linecap:butt;stroke-linejoin:round;stroke-miterlimit:4;stroke-dasharray:none;stroke-dashoffset:0;stroke-opacity:1"
     id="rect2016"
     width="6"
     height="4"
     x="15"
     y="18" />
  <path
     style="opacity:1;vector-effect:none;fill:#ffffff;fill-opacity:1;stroke:none;stroke-width:4;stroke-linecap:butt;stroke-linejoin:round;stroke-miterlimit:4;stroke-dasharray:none;stroke-dashoffset:0;stroke-opacity:1"
     d="m 16,19.000003 h 4 V 22.001 c -0.03156,0.981081 -1,1 -1,1 h -2 c 0,0 -1,0 -1,-1 z"
     id="rect4622"
     inkscape:connector-curvature="0"
     sodipodi:nodetypes="ccccccc" />
  <path
     style="color:#000000;font-weight:400;line-height:normal;font-family:sans-serif;font-variant-ligatures:normal;font-variant-position:normal;font-variant-caps:normal;font-variant-numeric:normal;font-variant-alternates:normal;font-feature-settings:normal;text-indent:0;text-align:start;text-decoration:none;text-decoration-line:none;text-decoration-style:solid;text-decoration-color:#000000;text-transform:none;text-orientation:mixed;white-space:normal;shape-padding:0;overflow:visible;isolation:auto;mix-blend-mode:normal;fill:#a7a7f1;fill-opacity:1;marker:none"
     d="m 17,21.000499 v 1.000002 h 2 v -1.000002 z"
     id="path2005"
     inkscape:connector-curvature="0"
     sodipodi:nodetypes="ccccc" />
  <path
     style="opacity:1;vector-effect:none;fill:#ffffff;fill-opacity:1;stroke:none;stroke-width:4;stroke-linecap:butt;stroke-linejoin:round;stroke-miterlimit:4;stroke-dasharray:none;stroke-dashoffset:0;stroke-opacity:1"
     d="m 16,14.000001 v 1 h 4 v -1 0 c -0.03156,-0.981081 -1,-1 -1,-1 h -2 c 0,-2e-6 -1,-2e-6 -1,1 z"
     id="rect4622-3"
     inkscape:connector-curvature="0"
     sodipodi:nodetypes="cccccccc" />
  <rect
     style="opacity:1;vector-effect:none;fill:#666666;fill-opacity:1;stroke:none;stroke-width:2;stroke-linecap:round;stroke-linejoin:round;stroke-miterlimit:4;stroke-dasharray:none;stroke-dashoffset:0;stroke-opacity:1"
     id="rect2525"
     width="8"
     height="1"
     x="14"
     y="15.000002" />
  <rect
     style="fill:#f3d8f2;fill-opacity:1;fill-rule:evenodd;stroke-width:2;stroke-linecap:round;stroke-linejoin:round"
     id="rect871"
     width="10"
     height="9"
     x="2"
     y="2" />
  <path
     id="path861"
     style="opacity:1;fill:#762572;fill-opacity:1"
     d="M 4 1 C 2 1 1 1 1 3 L 1 12 L 2 12 L 7 12 L 8 12 L 12 12 L 13 12 L 13 11 L 13 9 L 13 8 L 13 6 L 13 5 L 13 2 L 13 1 L 4 1 z M 4 2 L 7 2 L 7 3 L 7 5 L 6 5 L 2 5 L 2 3 C 2 2 3 2 4 2 z M 8 2 L 12 2 L 12 3 L 12 5 L 8 5 L 8 3 L 8 2 z M 2 6 L 6 6 L 7 6 L 7 8 L 2 8 L 2 6 z M 8 6 L 12 6 L 12 8 L 8 8 L 8 6 z M 2 9 L 7 9 L 7 11 L 2 11 L 2 9 z M 8 9 L 12 9 L 12 11 L 8 11 L 8 9 z " />
  <g
     style="display:inline;stroke-width:27.2;enable-background:new"
     transform="matrix(-0.03808017,0.02198561,0.02384508,0.04130087,26.162846,-6.9632891)"
     id="g1151">
    <path
       style="fill:#fec589;fill-opacity:1;stroke:none;stroke-width:27.2"
       d="M 701.48433,292.8316 656.00003,400.49346 610.51572,292.8316 v -11.06422 h 90.96861 z"
       id="path1145"
       inkscape:connector-curvature="0"
       sodipodi:nodetypes="cccccc" />
    <path
       style="color:#000000;display:inline;overflow:visible;visibility:visible;fill:#5d5d5d;fill-opacity:1;fill-rule:nonzero;stroke:none;stroke-width:28.009;marker:none;enable-background:accumulate"
       d="m 645.19752,374.67695 10.80251,25.81651 10.80253,-25.81651 c 0.0107,0.17481 -21.60504,0 -21.60504,0 z"
       id="path1147"
       inkscape:connector-curvature="0"
       sodipodi:nodetypes="cccc" />
    <path
       style="fill:#2f5fdd;fill-opacity:1;stroke:none;stroke-width:27.2"
       d="m 610.51572,292.83159 c 0,0 91.98903,1.58617 90.96861,0 V 23.057025 h -90.96861 z"
       id="path1149"
       inkscape:connector-curvature="0"
       sodipodi:nodetypes="ccccc" />
  </g>
</svg>
