<?xml version="1.0" encoding="UTF-8" standalone="no"?>
<svg
   xmlns:dc="http://purl.org/dc/elements/1.1/"
   xmlns:cc="http://creativecommons.org/ns#"
   xmlns:rdf="http://www.w3.org/1999/02/22-rdf-syntax-ns#"
   xmlns:svg="http://www.w3.org/2000/svg"
   xmlns="http://www.w3.org/2000/svg"
   xmlns:sodipodi="http://sodipodi.sourceforge.net/DTD/sodipodi-0.dtd"
   xmlns:inkscape="http://www.inkscape.org/namespaces/inkscape"
   viewBox="0 0 24 24"
   version="1.1"
   id="svg6"
   sodipodi:docname="lc_formatcelldialog.svg"
   inkscape:version="1.0.1 (3bc2e813f5, 2020-09-07)"
   inkscape:export-filename="/home/jupiter007/Libreoffice yaru theme fullcolor/build/cmd/lc_formatcelldialog.png"
   inkscape:export-xdpi="95"
   inkscape:export-ydpi="95">
  <metadata
     id="metadata12">
    <rdf:RDF>
      <cc:Work
         rdf:about="">
        <dc:format>image/svg+xml</dc:format>
        <dc:type
           rdf:resource="http://purl.org/dc/dcmitype/StillImage" />
      </cc:Work>
    </rdf:RDF>
  </metadata>
  <defs
     id="defs10" />
  <sodipodi:namedview
     pagecolor="#ffffff"
     bordercolor="#666666"
     borderopacity="1"
     objecttolerance="10"
     gridtolerance="10"
     guidetolerance="10"
     inkscape:pageopacity="0"
     inkscape:pageshadow="2"
     inkscape:window-width="1920"
     inkscape:window-height="1011"
     id="namedview8"
     showgrid="true"
     inkscape:zoom="19.666667"
     inkscape:cx="10.039005"
     inkscape:cy="8.4008321"
     inkscape:window-x="0"
     inkscape:window-y="0"
     inkscape:window-maximized="1"
     inkscape:current-layer="svg6"
     inkscape:document-rotation="0">
    <inkscape:grid
       type="xygrid"
       id="grid822" />
  </sodipodi:namedview>
  <rect
     style="opacity:1;fill:#ffffff;fill-opacity:1;stroke:none;stroke-width:2;stroke-linecap:round;stroke-linejoin:round;stroke-miterlimit:4;stroke-dasharray:none;stroke-opacity:1"
     id="rect827-7"
     width="16"
     height="16"
     x="4"
     y="4"
     inkscape:export-filename="/home/jupiter007/Libreoffice yaru theme fullcolor/build/cmd/rect827.png"
     inkscape:export-xdpi="95"
     inkscape:export-ydpi="95" />
  <path
     id="path2-8"
     style="opacity:1;fill:#6d6d6d;fill-opacity:1"
     d="M 6,3 C 4,3 3,3 3,5 v 14 c 0,2 1,2 3,2 h 12 c 2,0 3,0 3,-2 V 5 C 21,3 20,3 18,3 Z M 6,4 H 9 V 5 9 H 4 V 5 C 4,4 5,4 6,4 Z m 4,0 h 4 V 5 9 H 10 V 5 Z m 5,0 h 3 c 1,0 2,0 2,1 V 9 H 15 V 5 Z M 4,10 h 5 v 4 H 8 4 Z m 6,0 h 4 v 4 h -4 z m 5,0 h 5 v 4 H 15 Z M 4,15 H 8 9 V 19.099609 20 H 6 C 5,20 4,20 4,19 Z m 6,0 h 4 v 5 h -4 z m 5,0 h 5 v 4 c 0,1 -1,1 -2,1 h -3 z"
     sodipodi:nodetypes="sssssssssscccccsccccccccsccccccccccccccccccccccccccssccccccccsscc" />
  <path
     style="fill:#762572;fill-opacity:1;stroke:none;stroke-width:1;stroke-linecap:round;stroke-linejoin:round;stroke-miterlimit:4;stroke-dasharray:none;stroke-opacity:1"
     d="m 9,9 v 6 h 6 V 9 Z m 1,1 h 4 v 4 h -4 z"
     id="path835"
     inkscape:connector-curvature="0"
     sodipodi:nodetypes="cccccccccc" />
  <rect
     style="opacity:1;fill:#f3d8f1;fill-opacity:1;fill-rule:evenodd;stroke:none;stroke-width:2;stroke-linecap:round;stroke-linejoin:round"
     id="rect842"
     width="4"
     height="4"
     x="10"
     y="10" />
  <g
     transform="matrix(-0.73400013,0,0,0.73400013,22.367726,14.132274)"
     id="g47"
     style="fill:#b3b3b3;fill-opacity:1;stroke:#6d6d6d;stroke-opacity:1">
    <path
       style="display:block;fill:#b3b3b3;fill-opacity:1;stroke:#6d6d6d;stroke-width:1.36239755;stroke-linejoin:round;stroke-opacity:1"
       inkscape:connector-curvature="0"
       d="m 4.9953044,-2.2238063 c -0.2251553,0 -0.4071226,0.2880272 -0.4071226,0.6466061 v 1.04042491 H 4.4551301 L 2.9250935,0.11781452 2.826633,0.21893167 2.0735896,-0.53411316 C 1.8200337,-0.78766762 1.4877368,-0.86361992 1.3285284,-0.70441286 L -0.02322615,0.64734169 C -0.18243321,0.80655014 -0.10648227,1.1388471 0.14707355,1.3924029 L 0.90011839,2.1454464 0.79900124,2.2439064 0.14441142,3.773943 v 0.1330399 h -1.04041259 c -0.35857903,0 -0.64660623,0.1819672 -0.64660623,0.4071225 v 1.9105501 c 0,0.2251553 0.2880272,0.4071226 0.64660623,0.4071226 H 0.14442369 V 6.7754688 L 0.7990135,8.3055053 0.8948037,8.3986393 0.14708175,9.1463613 C -0.1064727,9.3999151 -0.18242501,9.7322142 -0.02321795,9.8914222 L 1.3285366,11.243176 c 0.1592084,0.159209 0.4915053,0.08326 0.7450611,-0.170299 l 0.747722,-0.747722 0.1037738,0.10643 1.5300366,0.657251 h 0.1330517 v 1.027121 c 0,0.358584 0.1819673,0.64661 0.4071226,0.64661 h 1.9105501 c 0.2251552,0 0.4071225,-0.288026 0.4071225,-0.646606 V 11.08884 h 0.1436907 l 1.5300366,-0.657251 0.09846,-0.101117 0.7424005,0.742401 c 0.2535562,0.253553 0.5858532,0.329508 0.7450622,0.170299 l 1.351754,-1.3517538 c 0.159207,-0.159209 0.08326,-0.4915071 -0.170299,-0.745061 l -0.742401,-0.7424005 0.101117,-0.09846 0.657251,-1.5300366 v -0.143682 h 1.027121 c 0.358569,0 0.646597,-0.1819673 0.646597,-0.4071226 V 4.3141054 c 0,-0.2251553 -0.288028,-0.4071225 -0.646607,-0.4071225 H 11.770039 V 3.7739311 L 11.112789,2.2438946 11.006358,2.1401207 11.75408,1.3923988 c 0.253555,-0.2535558 0.329507,-0.58585276 0.1703,-0.74506121 l -1.351755,-1.35175454 c -0.159208,-0.15920706 -0.491505,-0.0832561 -0.7450612,0.1702997 L 9.0798418,0.2136047 8.9867083,0.11781452 7.4566718,-0.53677529 H 7.312977 V -1.5772002 c 0,-0.3585789 -0.1819673,-0.6466061 -0.4071225,-0.6466061 z m 0.9605965,5.4495904 c 1.1300503,0 2.048918,0.9188677 2.048918,2.0489179 1.3e-6,1.1300502 -0.9188677,2.0489179 -2.048918,2.0489179 C 4.8258507,7.3236213 3.906983,6.4047522 3.906983,5.274702 c 0,-1.1300502 0.9188677,-2.0489179 2.0489179,-2.0489179 z"
       display="block"
       id="path41" />
  </g>
  <circle
     style="opacity:1;fill:#ffffff;fill-opacity:1;stroke:none;stroke-width:2;stroke-linecap:round;stroke-linejoin:round;stroke-miterlimit:4;stroke-dasharray:none;stroke-opacity:1"
     id="path838"
     cx="-18"
     cy="18"
     r="1"
     transform="scale(-1,1)" />
</svg>
