<?xml version="1.0" encoding="UTF-8" standalone="no"?>
<svg
   xmlns:dc="http://purl.org/dc/elements/1.1/"
   xmlns:cc="http://creativecommons.org/ns#"
   xmlns:rdf="http://www.w3.org/1999/02/22-rdf-syntax-ns#"
   xmlns:svg="http://www.w3.org/2000/svg"
   xmlns="http://www.w3.org/2000/svg"
   xmlns:sodipodi="http://sodipodi.sourceforge.net/DTD/sodipodi-0.dtd"
   xmlns:inkscape="http://www.inkscape.org/namespaces/inkscape"
   height="24"
   viewBox="0 0 24 24"
   width="24"
   version="1.1"
   id="svg4"
   sodipodi:docname="lc_formattedfield.svg"
   inkscape:export-filename="/home/jupiter007/Libreoffice yaru theme fullcolor/build/cmd/lc_formattedfield.png"
   inkscape:export-xdpi="95"
   inkscape:export-ydpi="95"
   inkscape:version="0.92.5 (2060ec1f9f, 2020-04-08)">
  <metadata
     id="metadata10">
    <rdf:RDF>
      <cc:Work
         rdf:about="">
        <dc:format>image/svg+xml</dc:format>
        <dc:type
           rdf:resource="http://purl.org/dc/dcmitype/StillImage" />
      </cc:Work>
    </rdf:RDF>
  </metadata>
  <defs
     id="defs8" />
  <sodipodi:namedview
     pagecolor="#ffffff"
     bordercolor="#666666"
     borderopacity="1"
     objecttolerance="10"
     gridtolerance="10"
     guidetolerance="10"
     inkscape:pageopacity="0"
     inkscape:pageshadow="2"
     inkscape:window-width="1920"
     inkscape:window-height="1011"
     id="namedview6"
     showgrid="false"
     inkscape:zoom="9.8333333"
     inkscape:cx="0.66101695"
     inkscape:cy="12"
     inkscape:window-x="0"
     inkscape:window-y="32"
     inkscape:window-maximized="1"
     inkscape:current-layer="svg4" />
  <path
     sodipodi:nodetypes="cccscsccccccccscscccccc"
     inkscape:connector-curvature="0"
     id="path4237-1"
     d="m 6.994116,2.9997087 c -1.2582,0.0145 -2.178891,-0.0306 -2.931641,0.384765 -0.37637,0.20766 -0.673231,0.559387 -0.837891,0.998047 -0.16467,0.43867 -0.224609,0.959588 -0.224609,1.617188 v 1.488281 10.5123023 c 0,0.657609 0.0599,1.178576 0.224609,1.617188 0.16468,0.438611 0.461531,0.788523 0.837891,0.996092 0.75272,0.415131 1.673541,0.37165 2.931641,0.386719 h 0.002 10.005859 0.0039 c 1.25819,-0.0145 2.178891,0.0306 2.931641,-0.384766 0.37637,-0.20766 0.673221,-0.559386 0.837891,-0.998045 0.164539,-0.438671 0.224618,-0.959579 0.224618,-1.617188 V 7.4665057 5.9997087 c 0,-0.6576 -0.0599,-1.178578 -0.224609,-1.617188 -0.16468,-0.4386 -0.461531,-0.788534 -0.837891,-0.996094 -0.75277,-0.41513 -1.673601,-0.371638 -2.931691,-0.386718 h -0.002 -10.0058591 z"
     style="font-style:normal;font-variant:normal;font-weight:normal;font-stretch:normal;font-size:15px;line-height:125%;font-family:Ubuntu;-inkscape-font-specification:Ubuntu;text-align:center;letter-spacing:0px;word-spacing:0px;writing-mode:lr-tb;text-anchor:middle;display:inline;opacity:0.6;fill:#000000;fill-opacity:1;stroke:none;stroke-width:0.99980211" />
  <path
     inkscape:connector-curvature="0"
     id="path1993"
     d="m 11.983344,4.0268927 c -1.556581,0.0108 -5.10999,-0.01175 -6.659941,0.03878 -0.461229,0.04267 -1.016188,0.20642 -1.15534,0.709967 -0.218994,0.635347 -0.108414,1.333787 -0.145796,1.981924 -0.0078,2.297085 -0.02297,9.5964293 0.02152,11.8857803 0.0391,0.461929 0.202551,1.012665 0.698756,1.163665 0.632456,0.225082 1.284144,0.12274 1.935974,0.154298 1.424235,0.0068 4.850563,0.01102 6.27642,0.01131 1.704531,3.5e-4 3.408388,-0.005 5.10719,-0.01851 0.511911,-0.01201 1.183699,0.01993 1.584745,-0.405191 0.421097,-0.539783 0.287073,-1.268021 0.322745,-1.903787 0.01187,-2.444323 0.02769,-9.9110953 -0.0219,-12.3567953 -0.04928,-0.402038 -0.169992,-0.86295 -0.575139,-1.044473 -0.668169,-0.294098 -1.426205,-0.168019 -2.125921,-0.205573 -1.754407,-0.0118 -3.508874,-0.01248 -5.263313,-0.01139 z"
     style="opacity:1;vector-effect:none;fill:#d85eca;fill-opacity:1;stroke:none;stroke-width:1;stroke-linecap:round;stroke-linejoin:bevel;stroke-miterlimit:4;stroke-dasharray:none;stroke-dashoffset:0;stroke-opacity:1"
     sodipodi:nodetypes="cccccccsccccccc" />
  <text
     xml:space="preserve"
     style="font-style:normal;font-variant:normal;font-weight:normal;font-stretch:normal;font-size:13.33333302px;line-height:1.25;font-family:Ubuntu;-inkscape-font-specification:'Ubuntu, Normal';font-variant-ligatures:normal;font-variant-caps:normal;font-variant-numeric:normal;font-feature-settings:normal;text-align:start;letter-spacing:0px;word-spacing:0px;writing-mode:lr-tb;text-anchor:start;fill:#ffffff;fill-opacity:1;stroke:none"
     x="6.2800002"
     y="16.620001"
     id="text845"><tspan
       sodipodi:role="line"
       id="tspan843"
       x="6.2800002"
       y="16.620001"
       style="font-style:normal;font-variant:normal;font-weight:normal;font-stretch:normal;font-size:13.33333302px;font-family:Ubuntu;-inkscape-font-specification:'Ubuntu, Normal';font-variant-ligatures:normal;font-variant-caps:normal;font-variant-numeric:normal;font-feature-settings:normal;text-align:start;writing-mode:lr-tb;text-anchor:start">%</tspan></text>
</svg>
