<?xml version="1.0" encoding="UTF-8" standalone="no"?>
<svg
   xmlns:dc="http://purl.org/dc/elements/1.1/"
   xmlns:cc="http://creativecommons.org/ns#"
   xmlns:rdf="http://www.w3.org/1999/02/22-rdf-syntax-ns#"
   xmlns:svg="http://www.w3.org/2000/svg"
   xmlns="http://www.w3.org/2000/svg"
   xmlns:sodipodi="http://sodipodi.sourceforge.net/DTD/sodipodi-0.dtd"
   xmlns:inkscape="http://www.inkscape.org/namespaces/inkscape"
   viewBox="0 0 24 24"
   version="1.1"
   id="svg4"
   sodipodi:docname="lc_formatarea.svg"
   inkscape:version="0.92.5 (2060ec1f9f, 2020-04-08)"
   inkscape:export-filename="/home/jupiter007/Libreoffice yaru theme fullcolor/build/cmd/lc_formatarea.png"
   inkscape:export-xdpi="96"
   inkscape:export-ydpi="96">
  <metadata
     id="metadata10">
    <rdf:RDF>
      <cc:Work
         rdf:about="">
        <dc:format>image/svg+xml</dc:format>
        <dc:type
           rdf:resource="http://purl.org/dc/dcmitype/StillImage" />
      </cc:Work>
    </rdf:RDF>
  </metadata>
  <defs
     id="defs8" />
  <sodipodi:namedview
     pagecolor="#ffffff"
     bordercolor="#666666"
     borderopacity="1"
     objecttolerance="10"
     gridtolerance="10"
     guidetolerance="10"
     inkscape:pageopacity="0"
     inkscape:pageshadow="2"
     inkscape:window-width="1920"
     inkscape:window-height="1011"
     id="namedview6"
     showgrid="true"
     inkscape:zoom="19.666667"
     inkscape:cx="3.037167"
     inkscape:cy="13.504769"
     inkscape:window-x="0"
     inkscape:window-y="32"
     inkscape:window-maximized="1"
     inkscape:current-layer="svg4"
     inkscape:snap-nodes="true"
     inkscape:snap-others="false"
     inkscape:snap-bbox="false"
     inkscape:bbox-nodes="true"
     inkscape:object-paths="true"
     inkscape:snap-intersection-paths="true"
     inkscape:snap-smooth-nodes="true"
     inkscape:snap-midpoints="true">
    <inkscape:grid
       type="xygrid"
       id="grid853" />
  </sodipodi:namedview>
  <path
     sodipodi:nodetypes="ccccccc"
     inkscape:connector-curvature="0"
     id="path854"
     d="m 5.8431458,12.207107 6.3639622,-6.3639607 6.363961,6.3639607 c 1.414213,1.414214 0.707107,2.12132 -0.707108,3.535535 l -2.121319,2.121319 c -1.414214,1.414214 -2.121321,2.121321 -3.535534,0.707107 z"
     style="opacity:0.6;fill:#000000;fill-opacity:1;fill-rule:evenodd;stroke:#000000;stroke-width:2;stroke-linecap:round;stroke-linejoin:round;stroke-miterlimit:4;stroke-dasharray:none;stroke-opacity:1" />
  <path
     style="opacity:1;fill:#ffffff;fill-opacity:1;fill-rule:evenodd;stroke:none;stroke-width:1;stroke-linecap:round;stroke-linejoin:round;stroke-miterlimit:4;stroke-dasharray:none;stroke-opacity:1"
     d="m 5.8431458,12.207107 6.3639622,-6.3639607 6.363961,6.3639607 c 1.414213,1.414214 0.707107,2.12132 -0.707108,3.535535 l -2.121319,2.121319 c -1.414214,1.414214 -2.121321,2.121321 -3.535534,0.707107 z"
     id="rect830"
     inkscape:connector-curvature="0"
     sodipodi:nodetypes="ccccccc" />
  <circle
     style="opacity:0.6;fill:#000000;fill-opacity:1;fill-rule:evenodd;stroke:#000000;stroke-width:2;stroke-linecap:round;stroke-linejoin:round;stroke-miterlimit:4;stroke-dasharray:none;stroke-opacity:1"
     id="path837"
     cx="-3.1418449e-07"
     cy="16.263454"
     r="0.5"
     transform="rotate(-45)" />
  <circle
     style="opacity:1;fill:#ffffff;fill-opacity:1;fill-rule:evenodd;stroke:none;stroke-width:2;stroke-linecap:round;stroke-linejoin:round;stroke-miterlimit:4;stroke-dasharray:none;stroke-opacity:1"
     id="path839"
     cx="-3.1418449e-07"
     cy="16.263454"
     r="0.5"
     transform="rotate(-45)" />
  <path
     style="opacity:1;fill:#6d6d6d;fill-opacity:1;fill-rule:evenodd;stroke:none;stroke-width:2;stroke-linecap:round;stroke-linejoin:round;stroke-miterlimit:4;stroke-dasharray:none;stroke-opacity:1"
     d="m 14,2 c -1.656854,0 -3,1.3431458 -3,3 v 5.542969 h 1 V 5 h 0.0059 C 12.06496,3.8789908 12.939798,3.0015685 14,3 c 1.060972,4.493e-4 1.936986,0.8781776 1.996094,2 h 0.0039 v 3.3945312 l 1,1 V 5 c 0,-1.6568542 -1.343146,-3 -3,-3 z"
     id="rect841"
     inkscape:connector-curvature="0"
     sodipodi:nodetypes="sscccccccccss" />
  <path
     style="opacity:1;fill:#6d6d6d;fill-opacity:1;fill-rule:evenodd;stroke:none;stroke-width:2;stroke-linecap:round;stroke-linejoin:round;stroke-miterlimit:4;stroke-dasharray:none;stroke-opacity:1"
     d="m 3.9999995,9 c -0.554,0 -1,0.4459992 -1,1 v 1 3 L 3,17 c 10e-8,0.554 0.446,1 1,1 0.554,0 1.0000001,-0.446 1,-1 l -5e-7,-3 V 12.742188 C 4.7494203,12.347115 4.8062125,11.831117 5.1367183,11.5 l 2.5,-2.5 H 7.2226557 Z"
     id="rect862"
     inkscape:connector-curvature="0"
     sodipodi:nodetypes="ssccssscccccs" />
</svg>
