<?xml version="1.0" encoding="UTF-8" standalone="no"?>
<svg
   xmlns:dc="http://purl.org/dc/elements/1.1/"
   xmlns:cc="http://creativecommons.org/ns#"
   xmlns:rdf="http://www.w3.org/1999/02/22-rdf-syntax-ns#"
   xmlns:svg="http://www.w3.org/2000/svg"
   xmlns="http://www.w3.org/2000/svg"
   xmlns:sodipodi="http://sodipodi.sourceforge.net/DTD/sodipodi-0.dtd"
   xmlns:inkscape="http://www.inkscape.org/namespaces/inkscape"
   viewBox="0 0 24 24"
   version="1.1"
   id="svg4"
   sodipodi:docname="lc_formdesigntools.svg"
   inkscape:version="1.0.1 (0767f8302a, 2020-10-17)"
   inkscape:export-filename="/home/jupiter007/Libreoffice yaru theme fullcolor/build/cmd/lc_formdesigntools.png"
   inkscape:export-xdpi="95"
   inkscape:export-ydpi="95">
  <metadata
     id="metadata10">
    <rdf:RDF>
      <cc:Work
         rdf:about="">
        <dc:format>image/svg+xml</dc:format>
        <dc:type
           rdf:resource="http://purl.org/dc/dcmitype/StillImage" />
      </cc:Work>
    </rdf:RDF>
  </metadata>
  <defs
     id="defs8" />
  <sodipodi:namedview
     pagecolor="#ffffff"
     bordercolor="#666666"
     borderopacity="1"
     objecttolerance="10"
     gridtolerance="10"
     guidetolerance="10"
     inkscape:pageopacity="0"
     inkscape:pageshadow="2"
     inkscape:window-width="1920"
     inkscape:window-height="1011"
     id="namedview6"
     showgrid="true"
     inkscape:zoom="19.666667"
     inkscape:cx="6.244734"
     inkscape:cy="6.6917725"
     inkscape:window-x="0"
     inkscape:window-y="0"
     inkscape:window-maximized="1"
     inkscape:current-layer="svg4"
     inkscape:document-rotation="0">
    <inkscape:grid
       type="xygrid"
       id="grid845" />
  </sodipodi:namedview>
  <path
     sodipodi:nodetypes="ccccccccc"
     style="opacity:0.7;fill:#000000;fill-opacity:1;stroke:#000000;stroke-width:2;stroke-linejoin:round;stroke-miterlimit:4;stroke-dasharray:none"
     inkscape:connector-curvature="0"
     id="path822"
     d="m 11,4 v 2 h 4 v 9 h 2 V 6 h 4 V 4 Z" />
  <path
     d="m 11,4 v 2 h 4 v 9 h 2 V 6 h 4 V 4 Z"
     id="path2"
     inkscape:connector-curvature="0"
     style="fill:#ffffff;fill-opacity:1"
     sodipodi:nodetypes="ccccccccc" />
  <path
     id="path915"
     style="color:#000000;font-style:normal;font-variant:normal;font-weight:normal;font-stretch:normal;font-size:medium;line-height:normal;font-family:sans-serif;font-variant-ligatures:normal;font-variant-position:normal;font-variant-caps:normal;font-variant-numeric:normal;font-variant-alternates:normal;font-variant-east-asian:normal;font-feature-settings:normal;font-variation-settings:normal;text-indent:0;text-align:start;text-decoration:none;text-decoration-line:none;text-decoration-style:solid;text-decoration-color:#000000;letter-spacing:normal;word-spacing:normal;text-transform:none;writing-mode:lr-tb;direction:ltr;text-orientation:mixed;dominant-baseline:auto;baseline-shift:baseline;text-anchor:start;white-space:normal;shape-padding:0;shape-margin:0;inline-size:0;clip-rule:nonzero;display:inline;overflow:visible;visibility:visible;opacity:0.7;isolation:auto;mix-blend-mode:normal;color-interpolation:sRGB;color-interpolation-filters:linearRGB;solid-color:#000000;solid-opacity:1;vector-effect:none;fill:#000000;fill-opacity:1;fill-rule:evenodd;stroke:none;stroke-width:2;stroke-linecap:butt;stroke-linejoin:round;stroke-miterlimit:4;stroke-dasharray:none;stroke-dashoffset:0;stroke-opacity:1;color-rendering:auto;image-rendering:auto;shape-rendering:auto;text-rendering:auto;enable-background:accumulate;stop-color:#000000"
     d="M 8.928781,8 C 8.414485,8 7.90034,8.1925032 7.514718,8.5781247 L 5.3936244,10.699219 c -0.7712436,0.771244 -0.7712434,2.056882 0,2.828125 l 5.6562506,5.65625 c 0.771243,0.771244 2.056881,0.771244 2.828124,0 L 16.001046,17.0625 c 0.208544,-0.208543 0.355409,-0.455293 0.451172,-0.71875 v -1.390625 c -0.09577,-0.263348 -0.242704,-0.510282 -0.451172,-0.71875 L 10.342843,8.5781247 C 9.957221,8.1925032 9.443077,8 8.928781,8 Z m 0,1.9921877 5.658203,5.6562503 -2.123047,2.121094 -5.65625,-5.65625 z" />
  <path
     style="fill:#6d6d6d;fill-opacity:1;stroke:none;stroke-width:1px;stroke-linecap:butt;stroke-linejoin:miter;stroke-opacity:1"
     d="M 7.514717,9.9921877 6.8076111,9.2850807 c -1.414214,-1.414214 -2.12132,-0.707107 -2.828427,0 l -1.414214,1.4142133 c -0.707107,0.707107 -1.414213,1.414214 0,2.828428 l 2.828427,2.828426 c 0.707107,0.707107 0.707107,0.707107 1e-6,1.414213 l 0.707107,0.707108 c 0.707107,-0.707108 1.4142139,-1.414215 0,-2.828428 l -2.828427,-2.828427 c -0.707107,-0.707107 -0.707107,-0.707107 0,-1.414214 l 1.414213,-1.4142133 c 0.707107,-0.707107 0.707107,-0.707107 1.414213,0 L 6.8076111,10.699294 7.514717,9.9921877"
     id="path823"
     inkscape:connector-curvature="0"
     sodipodi:nodetypes="ccccccccccccccc" />
  <path
     style="fill:#fa9381;fill-opacity:1;stroke:none;stroke-width:1px;stroke-linecap:butt;stroke-linejoin:miter;stroke-opacity:1"
     d="m 6.1005051,18.477469 -0.707107,-0.707107 c -0.707106,-0.707107 -0.707106,-0.707107 -2.828427,1.414213 l -0.707106,0.707107 c -1.414423,1.414005 -1.414423,1.414005 -0.707317,2.121112 l 0.707317,0.707317 c 0.707107,0.707106 0.707107,0.707106 2.12132,-0.707108 l 0.707107,-0.707107 c 2.12132,-2.121321 2.12132,-2.121321 1.414213,-2.828427 z"
     id="path827"
     inkscape:connector-curvature="0"
     sodipodi:nodetypes="ccccccccc" />
  <rect
     ry="1.0000007"
     y="-0.24816504"
     x="-22.379251"
     height="5"
     width="10"
     id="rect829"
     style="opacity:1;fill:#ffffff;fill-opacity:1;fill-rule:evenodd;stroke:none;stroke-width:2;stroke-linecap:butt;stroke-linejoin:round;stroke-miterlimit:4;stroke-dasharray:none;stroke-opacity:1"
     rx="1.0000007"
     transform="matrix(-0.70710678,-0.70710678,-0.70710678,0.70710678,0,0)" />
</svg>
