<?xml version="1.0" encoding="UTF-8" standalone="no"?>
<svg
   xmlns:dc="http://purl.org/dc/elements/1.1/"
   xmlns:cc="http://creativecommons.org/ns#"
   xmlns:rdf="http://www.w3.org/1999/02/22-rdf-syntax-ns#"
   xmlns:svg="http://www.w3.org/2000/svg"
   xmlns="http://www.w3.org/2000/svg"
   xmlns:sodipodi="http://sodipodi.sourceforge.net/DTD/sodipodi-0.dtd"
   xmlns:inkscape="http://www.inkscape.org/namespaces/inkscape"
   viewBox="0 0 24 24"
   version="1.1"
   id="svg6"
   sodipodi:docname="lc_graphicdialog.svg"
   inkscape:version="1.0.1 (3bc2e813f5, 2020-09-07)"
   inkscape:export-filename="/home/jupiter007/Libreoffice yaru theme fullcolor/build/cmd/lc_graphicdialog.png"
   inkscape:export-xdpi="95"
   inkscape:export-ydpi="95">
  <metadata
     id="metadata12">
    <rdf:RDF>
      <cc:Work
         rdf:about="">
        <dc:format>image/svg+xml</dc:format>
        <dc:type
           rdf:resource="http://purl.org/dc/dcmitype/StillImage" />
      </cc:Work>
    </rdf:RDF>
  </metadata>
  <defs
     id="defs10" />
  <sodipodi:namedview
     pagecolor="#ffffff"
     bordercolor="#666666"
     borderopacity="1"
     objecttolerance="10"
     gridtolerance="10"
     guidetolerance="10"
     inkscape:pageopacity="0"
     inkscape:pageshadow="2"
     inkscape:window-width="1920"
     inkscape:window-height="1011"
     id="namedview8"
     showgrid="true"
     inkscape:zoom="27.812867"
     inkscape:cx="4.0056074"
     inkscape:cy="10.437458"
     inkscape:window-x="0"
     inkscape:window-y="0"
     inkscape:window-maximized="1"
     inkscape:current-layer="svg6"
     inkscape:document-rotation="0">
    <inkscape:grid
       type="xygrid"
       id="grid822" />
  </sodipodi:namedview>
  <path
     sodipodi:nodetypes="cccscsccccccccscscccccc"
     inkscape:connector-curvature="0"
     id="path4237-1"
     d="M 6.002641,3.0000002 C 4.744441,3.0145002 3.82375,2.9693963 3.0710001,3.3847659 2.6946301,3.5924258 2.397769,3.9441527 2.233109,4.3828127 2.068439,4.8214827 2.0085,5.3424002 2.0085,6.0000002 V 7.4882813 18.000001 c 0,0.657609 0.0599,1.178577 0.224609,1.617188 0.16468,0.438611 0.461531,0.788523 0.8378911,0.996092 C 3.8237201,21.028412 4.744541,20.984931 6.002641,21 h 0.002 11.988809 0.0039 c 1.25819,-0.0145 2.178891,0.0306 2.931641,-0.384766 0.37637,-0.20766 0.673221,-0.559386 0.837891,-0.998045 C 21.931421,19.178518 21.9915,18.65761 21.9915,18.000001 V 7.4667973 6.0000002 c 0,-0.6576 -0.0599,-1.1785775 -0.224609,-1.6171875 C 21.602211,3.9442127 21.30536,3.5942789 20.929,3.3867191 20.17623,2.9715891 19.255399,3.0150803 17.997309,3.0000002 h -0.002 -11.9888091 z"
     style="font-style:normal;font-variant:normal;font-weight:normal;font-stretch:normal;font-size:15px;line-height:125%;font-family:Ubuntu;-inkscape-font-specification:Ubuntu;text-align:center;letter-spacing:0px;word-spacing:0px;writing-mode:lr-tb;text-anchor:middle;display:inline;opacity:0.6;fill:#000000;fill-opacity:1;stroke:none;stroke-width:0.999802" />
  <path
     inkscape:connector-curvature="0"
     id="path1993-9"
     d="M 8.977287,4.0273579 C 7.420706,4.0381539 5.867296,4.0156059 4.317345,4.0661329 3.856117,4.1088009 3.301157,4.2725523 3.162006,4.7760997 2.943012,5.4114462 3.053592,6.109887 3.016209,6.7580239 c -0.0078,2.2970853 -0.02297,9.5963441 0.02152,11.8856971 0.0391,0.461929 0.202551,1.012664 0.698755,1.163665 0.632457,0.225082 1.284145,0.12274 1.935974,0.154299 1.424236,0.0068 4.850564,0.01102 6.276421,0.01131 1.704531,3.51e-4 5.408388,-0.005 7.10719,-0.01851 0.511911,-0.01201 1.183699,0.01993 1.584745,-0.40519 0.421097,-0.539783 0.287073,-2.267798 0.322745,-2.903564 0.01187,-2.444324 0.02769,-8.911235 -0.0219,-11.3569343 C 20.892389,4.8867553 20.771668,4.4258435 20.366521,4.2443205 19.698352,3.9502231 18.940316,4.0763016 18.2406,4.0387478 16.486193,4.0269448 10.731726,4.0262638 8.977287,4.0273579 Z"
     style="opacity:1;vector-effect:none;fill:#d85eca;fill-opacity:1;stroke:none;stroke-width:1;stroke-linecap:round;stroke-linejoin:bevel;stroke-miterlimit:4;stroke-dasharray:none;stroke-dashoffset:0;stroke-opacity:1"
     sodipodi:nodetypes="cccccccsccccccc" />
  <path
     d="m 16.4915,7.0000002 c -0.82843,0 -1.5,0.6715699 -1.5,1.4999999 0,0.8284297 0.67157,1.4999999 1.5,1.4999999 0.82843,0 1.5,-0.6715702 1.5,-1.4999999 0,-0.82843 -0.67157,-1.4999999 -1.5,-1.4999999 z"
     id="path4527-0"
     style="color:#000000;display:inline;overflow:visible;visibility:visible;fill:#ffffff;fill-opacity:1;fill-rule:nonzero;stroke:none;stroke-width:5.99881;marker:none;enable-background:accumulate" />
  <path
     d="m 9.4915,10.5 -3.5,6.5 h 10 l -3,-5.5 -1.5,2 z"
     id="path4156-2"
     style="color:#000000;display:inline;overflow:visible;visibility:visible;fill:#ffffff;fill-opacity:1;fill-rule:nonzero;stroke:none;stroke-width:7.14334;marker:none;enable-background:accumulate"
     sodipodi:nodetypes="cccccc" />
  <g
     transform="matrix(0.73400013,0,0,0.73400013,13.632273,14.132274)"
     id="g47"
     style="fill:#b3b3b3;fill-opacity:1;stroke:#6d6d6d;stroke-opacity:1">
    <path
       style="display:block;fill:#b3b3b3;fill-opacity:1;stroke:#6d6d6d;stroke-width:1.36239755;stroke-linejoin:round;stroke-opacity:1"
       inkscape:connector-curvature="0"
       d="m 4.9953044,-2.2238063 c -0.2251553,0 -0.4071226,0.2880272 -0.4071226,0.6466061 v 1.04042491 H 4.4551301 L 2.9250935,0.11781452 2.826633,0.21893167 2.0735896,-0.53411316 C 1.8200337,-0.78766762 1.4877368,-0.86361992 1.3285284,-0.70441286 L -0.02322615,0.64734169 C -0.18243321,0.80655014 -0.10648227,1.1388471 0.14707355,1.3924029 L 0.90011839,2.1454464 0.79900124,2.2439064 0.14441142,3.773943 v 0.1330399 h -1.04041259 c -0.35857903,0 -0.64660623,0.1819672 -0.64660623,0.4071225 v 1.9105501 c 0,0.2251553 0.2880272,0.4071226 0.64660623,0.4071226 H 0.14442369 V 6.7754688 L 0.7990135,8.3055053 0.8948037,8.3986393 0.14708175,9.1463613 C -0.1064727,9.3999151 -0.18242501,9.7322142 -0.02321795,9.8914222 L 1.3285366,11.243176 c 0.1592084,0.159209 0.4915053,0.08326 0.7450611,-0.170299 l 0.747722,-0.747722 0.1037738,0.10643 1.5300366,0.657251 h 0.1330517 v 1.027121 c 0,0.358584 0.1819673,0.64661 0.4071226,0.64661 h 1.9105501 c 0.2251552,0 0.4071225,-0.288026 0.4071225,-0.646606 V 11.08884 h 0.1436907 l 1.5300366,-0.657251 0.09846,-0.101117 0.7424005,0.742401 c 0.2535562,0.253553 0.5858532,0.329508 0.7450622,0.170299 l 1.351754,-1.3517538 c 0.159207,-0.159209 0.08326,-0.4915071 -0.170299,-0.745061 l -0.742401,-0.7424005 0.101117,-0.09846 0.657251,-1.5300366 v -0.143682 h 1.027121 c 0.358569,0 0.646597,-0.1819673 0.646597,-0.4071226 V 4.3141054 c 0,-0.2251553 -0.288028,-0.4071225 -0.646607,-0.4071225 H 11.770039 V 3.7739311 L 11.112789,2.2438946 11.006358,2.1401207 11.75408,1.3923988 c 0.253555,-0.2535558 0.329507,-0.58585276 0.1703,-0.74506121 l -1.351755,-1.35175454 c -0.159208,-0.15920706 -0.491505,-0.0832561 -0.7450612,0.1702997 L 9.0798418,0.2136047 8.9867083,0.11781452 7.4566718,-0.53677529 H 7.312977 V -1.5772002 c 0,-0.3585789 -0.1819673,-0.6466061 -0.4071225,-0.6466061 z m 0.9605965,5.4495904 c 1.1300503,0 2.048918,0.9188677 2.048918,2.0489179 1.3e-6,1.1300502 -0.9188677,2.0489179 -2.048918,2.0489179 C 4.8258507,7.3236213 3.906983,6.4047522 3.906983,5.274702 c 0,-1.1300502 0.9188677,-2.0489179 2.0489179,-2.0489179 z"
       display="block"
       id="path41" />
  </g>
  <circle
     style="opacity:1;fill:#ffffff;fill-opacity:1;stroke:none;stroke-width:2;stroke-linecap:round;stroke-linejoin:round;stroke-miterlimit:4;stroke-dasharray:none;stroke-opacity:1"
     id="path838"
     cx="17.999998"
     cy="18"
     r="1" />
</svg>
