<?xml version="1.0" encoding="UTF-8" standalone="no"?>
<svg
   xmlns:dc="http://purl.org/dc/elements/1.1/"
   xmlns:cc="http://creativecommons.org/ns#"
   xmlns:rdf="http://www.w3.org/1999/02/22-rdf-syntax-ns#"
   xmlns:svg="http://www.w3.org/2000/svg"
   xmlns="http://www.w3.org/2000/svg"
   xmlns:sodipodi="http://sodipodi.sourceforge.net/DTD/sodipodi-0.dtd"
   xmlns:inkscape="http://www.inkscape.org/namespaces/inkscape"
   viewBox="0 0 24 24"
   version="1.1"
   id="svg6"
   sodipodi:docname="lc_goalseekdialog.svg"
   inkscape:version="0.92.4 (5da689c313, 2019-01-14)">
  <metadata
     id="metadata12">
    <rdf:RDF>
      <cc:Work
         rdf:about="">
        <dc:format>image/svg+xml</dc:format>
        <dc:type
           rdf:resource="http://purl.org/dc/dcmitype/StillImage" />
      </cc:Work>
    </rdf:RDF>
  </metadata>
  <defs
     id="defs10" />
  <sodipodi:namedview
     pagecolor="#ffffff"
     bordercolor="#666666"
     borderopacity="1"
     objecttolerance="10"
     gridtolerance="10"
     guidetolerance="10"
     inkscape:pageopacity="0"
     inkscape:pageshadow="2"
     inkscape:window-width="1920"
     inkscape:window-height="1011"
     id="namedview8"
     showgrid="true"
     inkscape:zoom="39.333333"
     inkscape:cx="9.0800315"
     inkscape:cy="10.935516"
     inkscape:window-x="0"
     inkscape:window-y="32"
     inkscape:window-maximized="1"
     inkscape:current-layer="svg6">
    <inkscape:grid
       type="xygrid"
       id="grid822" />
  </sodipodi:namedview>
  <path
     id="path838"
     d="m 18,12 v 1 h 2 v -1 z m -3,0 v 1 h 2 v -1 z m -2,1 V 13.0625 14 18.03125 l -2,-1.5 V 14 13.0625 13 H 10.96875 9.75 L 10,13.375 V 17 17.03125 L 14,20 V 13.375 L 14.25,13 h -1.21875 z m -2,-1 v 1 h 2 v -1 z m -4,0 v 1 h 2 v -1 z m -3,0 v 1 H 6 V 12 Z M 7,6 9,9 V 7 L 11,6 Z M 6,4 5,5 V 6 6.3125 L 9.03125,12 H 10.25 L 6,6 V 5 h 12 v 1 l -4.25,6 h 1.21875 L 19,6.3125 V 5 L 18,4 Z"
     style="fill:#232629;fill-opacity:1" />
</svg>
