<?xml version="1.0" encoding="UTF-8" standalone="no"?>
<svg
   xmlns:dc="http://purl.org/dc/elements/1.1/"
   xmlns:cc="http://creativecommons.org/ns#"
   xmlns:rdf="http://www.w3.org/1999/02/22-rdf-syntax-ns#"
   xmlns:svg="http://www.w3.org/2000/svg"
   xmlns="http://www.w3.org/2000/svg"
   xmlns:sodipodi="http://sodipodi.sourceforge.net/DTD/sodipodi-0.dtd"
   xmlns:inkscape="http://www.inkscape.org/namespaces/inkscape"
   viewBox="0 0 24 24"
   version="1.1"
   id="svg6"
   sodipodi:docname="lc_graphicdialog.svg"
   inkscape:version="1.0.1 (3bc2e813f5, 2020-09-07)"
   inkscape:export-filename="/home/jupiter007/Libreoffice yaru theme fullcolor/build/cmd/lc_graphicdialog.png"
   inkscape:export-xdpi="95"
   inkscape:export-ydpi="95">
  <metadata
     id="metadata12">
    <rdf:RDF>
      <cc:Work
         rdf:about="">
        <dc:format>image/svg+xml</dc:format>
        <dc:type
           rdf:resource="http://purl.org/dc/dcmitype/StillImage" />
      </cc:Work>
    </rdf:RDF>
  </metadata>
  <defs
     id="defs10" />
  <sodipodi:namedview
     pagecolor="#ffffff"
     bordercolor="#666666"
     borderopacity="1"
     objecttolerance="10"
     gridtolerance="10"
     guidetolerance="10"
     inkscape:pageopacity="0"
     inkscape:pageshadow="2"
     inkscape:window-width="1920"
     inkscape:window-height="1011"
     id="namedview8"
     showgrid="true"
     inkscape:zoom="45.254834"
     inkscape:cx="16.489567"
     inkscape:cy="13.567691"
     inkscape:window-x="1920"
     inkscape:window-y="32"
     inkscape:window-maximized="1"
     inkscape:current-layer="svg6"
     inkscape:document-rotation="0">
    <inkscape:grid
       type="xygrid"
       id="grid822" />
  </sodipodi:namedview>
  <path
     id="path4237-1"
     style="font-style:normal;font-variant:normal;font-weight:normal;font-stretch:normal;font-size:15px;line-height:125%;font-family:Ubuntu;-inkscape-font-specification:Ubuntu;text-align:center;letter-spacing:0px;word-spacing:0px;writing-mode:lr-tb;text-anchor:middle;display:inline;opacity:0.7;fill:#000000;fill-opacity:1;stroke:none;stroke-width:0.999802"
     d="M 6.0019531,3 C 4.7437531,3.0145 3.8230624,2.969396 3.0703125,3.3847656 2.6939425,3.5924255 2.3970819,3.9441525 2.2324219,4.3828125 2.0677519,4.8214825 2.0078125,5.3424 2.0078125,6 V 7.4882812 18 c 0,0.657609 0.0599,1.178577 0.2246094,1.617188 0.16468,0.438611 0.4615305,0.788524 0.8378906,0.996093 0.75272,0.415131 1.6735406,0.37165 2.9316406,0.386719 h 0.00195 8.1035158 c -0.124541,-0.367744 -0.07552,-0.721161 0.08218,-1.035776 C 13.424743,17.148308 13.543359,14.981332 15,14 c 1.124138,-0.757326 3.045165,-0.808515 5.972004,0.09311 0.03551,0.01188 0.0709,0.02511 0.106121,0.0397 h 0.002 l 0.91211,0.378907 V 7.4667969 6 c 0,-0.6576 -0.0599,-1.1785775 -0.22461,-1.6171875 -0.16468,-0.4386 -0.46153,-0.7885339 -0.83789,-0.9960937 C 20.176918,2.9715888 19.256137,3.0150801 17.998047,3 h -0.002 -11.9902346 z"
     sodipodi:nodetypes="cccscsccccccscccccscccccc" />
  <path
     id="path1993-9"
     style="opacity:1;vector-effect:none;fill:#d85eca;fill-opacity:1;stroke:none;stroke-width:1;stroke-linecap:round;stroke-linejoin:bevel;stroke-miterlimit:4;stroke-dasharray:none;stroke-dashoffset:0;stroke-opacity:1"
     d="M 8.9765625 4.0273438 C 7.4199815 4.0381398 5.8663572 4.0158792 4.3164062 4.0664062 C 3.8551782 4.1090742 3.3012604 4.2718432 3.1621094 4.7753906 C 2.9431154 5.4107371 3.053008 6.1096756 3.015625 6.7578125 C 3.007825 9.0548978 2.9926194 16.355178 3.0371094 18.644531 C 3.0762094 19.10646 3.2401241 19.65564 3.7363281 19.806641 C 4.3687851 20.031723 5.020046 19.929378 5.671875 19.960938 C 7.096111 19.967737 10.523362 19.972366 11.949219 19.972656 C 12.488355 19.972767 13.384804 19.967904 14.197266 19.966797 C 14.279857 19.806179 14.379104 19.652886 14.507812 19.515625 C 14.105595 19.087305 13.87907 18.525881 14.121094 17.939453 L 14.582031 16.826172 A 1.0001 1.0001 0 0 0 14.582031 16.824219 C 14.824683 16.238394 15.381342 16.001822 15.96875 15.982422 C 15.986864 15.397402 16.221882 14.846213 16.8125 14.601562 L 17.929688 14.138672 C 18.520262 13.894053 19.07597 14.118821 19.501953 14.519531 C 19.637506 14.392345 19.719953 14.198866 19.888672 14.128906 C 20.220692 13.991227 20.600718 13.977254 20.96875 14.099609 C 20.976626 11.117682 20.979874 7.1862253 20.941406 5.2890625 C 20.892136 4.8870211 20.772335 4.4256636 20.367188 4.2441406 C 19.699019 3.9500432 18.93995 4.0766163 18.240234 4.0390625 C 16.485827 4.0272595 10.731002 4.0262496 8.9765625 4.0273438 z M 19.439453 19.365234 C 19.376513 19.391306 19.326013 19.514492 19.351562 19.576172 C 19.376646 19.636732 19.503763 19.689203 19.564453 19.664062 C 19.627393 19.637991 19.677894 19.514805 19.652344 19.453125 C 19.62726 19.392565 19.500143 19.340094 19.439453 19.365234 z " />
  <path
     d="m 16.4915,7.0000002 c -0.82843,0 -1.5,0.6715699 -1.5,1.4999999 0,0.8284297 0.67157,1.4999999 1.5,1.4999999 0.82843,0 1.5,-0.6715702 1.5,-1.4999999 0,-0.82843 -0.67157,-1.4999999 -1.5,-1.4999999 z"
     id="path4527-0"
     style="color:#000000;display:inline;overflow:visible;visibility:visible;fill:#ffffff;fill-opacity:1;fill-rule:nonzero;stroke:none;stroke-width:5.99881;marker:none;enable-background:accumulate" />
  <path
     id="path4156-2"
     style="color:#000000;display:inline;overflow:visible;visibility:visible;fill:#ffffff;fill-opacity:1;fill-rule:nonzero;stroke:none;stroke-width:7.14334;marker:none;enable-background:accumulate"
     d="M 9.4921875 10.5 L 5.9921875 17 L 14.509766 17 L 14.582031 16.826172 A 1.0001 1.0001 0 0 0 14.582031 16.824219 C 14.754915 16.406833 15.091237 16.173079 15.480469 16.0625 L 12.992188 11.5 L 11.492188 13.5 L 9.4921875 10.5 z " />
  <g
     id="g915">
    <circle
       style="fill:#ffffff;fill-rule:evenodd;stroke:none;stroke-width:2;stroke-linecap:round;stroke-linejoin:round"
       id="path909"
       cx="19.5"
       cy="19.5"
       r="1.5" />
    <g
       id="g1425"
       transform="translate(8.0000004,8)">
      <circle
         style="fill:#ffffff;fill-opacity:1;fill-rule:evenodd;stroke:none;stroke-width:2;stroke-linecap:round;stroke-linejoin:round;stroke-miterlimit:4;stroke-dasharray:none;stroke-opacity:1"
         id="path1328"
         cx="11.5"
         cy="11.5"
         r="1.5" />
      <path
         d="m 9.3111344,7.791575 c -0.13058,0.05409 -0.188804,0.19465 -0.134715,0.325232 l 0.272166,0.657066 c -0.260199,0.195351 -0.471578,0.424352 -0.66202,0.678364 L 8.1128724,9.173184 c -0.130581,-0.05409 -0.274445,0.0055 -0.328533,0.136083 l -0.461881,1.115078 c -0.05409,0.130582 0.0055,0.274445 0.136083,0.328534 l 0.673693,0.279053 c -0.04495,0.314275 -0.05741,0.62567 -0.01156,0.947793 l -0.657066,0.272166 c -0.130581,0.05409 -0.188804,0.19465 -0.134715,0.325232 l 0.462682,1.117013 c 0.05409,0.130581 0.19465,0.188803 0.325231,0.134715 l 0.657067,-0.272166 c 0.195351,0.260198 0.424352,0.471578 0.678363,0.66202 l -0.279053,0.673693 c -0.05409,0.130583 0.0055,0.274445 0.136083,0.328533 l 1.1150786,0.461881 c 0.130582,0.05409 0.274445,-0.0055 0.328533,-0.136083 l 0.279053,-0.673693 c 0.314276,0.04495 0.625672,0.05741 0.947794,0.01156 l 0.272166,0.657067 c 0.05409,0.130582 0.19465,0.188803 0.325231,0.134715 l 1.117013,-0.462682 c 0.130582,-0.05409 0.188804,-0.19465 0.134716,-0.325231 l -0.272166,-0.657067 c 0.260198,-0.19535 0.471577,-0.424351 0.662019,-0.678363 l 0.673694,0.279053 c 0.130583,0.05409 0.274445,-0.0055 0.328533,-0.136083 l 0.461881,-1.115079 c 0.05409,-0.130583 -0.0055,-0.274445 -0.136083,-0.328533 L 14.873035,11.97334 c 0.04495,-0.314276 0.05741,-0.625672 0.01156,-0.947794 l 0.657066,-0.272166 c 0.130582,-0.05409 0.188804,-0.194649 0.134716,-0.325231 L 15.213692,9.311132 C 15.159602,9.18055 15.019042,9.122328 14.88846,9.176417 L 14.231394,9.448582 C 14.036043,9.188383 13.807042,8.977005 13.553031,8.786563 l 0.279053,-0.673694 c 0.05409,-0.130582 -0.0055,-0.274445 -0.136083,-0.328533 L 12.580922,7.322455 c -0.130583,-0.05409 -0.274445,0.0055 -0.328534,0.136083 L 11.973335,8.132232 C 11.65906,8.087282 11.347664,8.074822 11.025542,8.120672 L 10.753376,7.463606 C 10.699286,7.333024 10.558726,7.274802 10.428144,7.32889 Z m 1.7560366,2.659752 c 0.580321,-0.240377 1.246395,0.03552 1.486772,0.615841 0.240377,0.580322 -0.03552,1.246395 -0.615841,1.486772 -0.580321,0.240377 -1.246395,-0.03552 -1.486772,-0.615841 -0.240377,-0.580321 0.03552,-1.246395 0.615841,-1.486772 z"
         display="block"
         fill="url(#d)"
         stroke="url(#e)"
         stroke-linejoin="round"
         stroke-width="0.6"
         id="path42"
         style="fill:#d3d3d3;fill-opacity:1;stroke:#4d4d4d;stroke-opacity:1" />
    </g>
  </g>
</svg>
