<?xml version="1.0" encoding="UTF-8" standalone="no"?>
<svg
   xmlns:dc="http://purl.org/dc/elements/1.1/"
   xmlns:cc="http://creativecommons.org/ns#"
   xmlns:rdf="http://www.w3.org/1999/02/22-rdf-syntax-ns#"
   xmlns:svg="http://www.w3.org/2000/svg"
   xmlns="http://www.w3.org/2000/svg"
   xmlns:sodipodi="http://sodipodi.sourceforge.net/DTD/sodipodi-0.dtd"
   xmlns:inkscape="http://www.inkscape.org/namespaces/inkscape"
   viewBox="0 0 24 24"
   version="1.1"
   id="svg6"
   sodipodi:docname="lc_heading5parastyle.svg"
   inkscape:export-filename="/home/jupiter007/Libreoffice yaru theme fullcolor/build/cmd/lc_heading5parastyle.png"
   inkscape:export-xdpi="96"
   inkscape:export-ydpi="96"
   inkscape:version="1.0.1 (3bc2e813f5, 2020-09-07)">
  <metadata
     id="metadata12">
    <rdf:RDF>
      <cc:Work
         rdf:about="">
        <dc:format>image/svg+xml</dc:format>
        <dc:type
           rdf:resource="http://purl.org/dc/dcmitype/StillImage" />
      </cc:Work>
    </rdf:RDF>
  </metadata>
  <defs
     id="defs10" />
  <sodipodi:namedview
     pagecolor="#ffffff"
     bordercolor="#666666"
     borderopacity="1"
     objecttolerance="10"
     gridtolerance="10"
     guidetolerance="10"
     inkscape:pageopacity="0"
     inkscape:pageshadow="2"
     inkscape:window-width="1920"
     inkscape:window-height="1011"
     id="namedview8"
     showgrid="true"
     inkscape:zoom="27.812867"
     inkscape:cx="6.1610692"
     inkscape:cy="9.4756796"
     inkscape:window-x="0"
     inkscape:window-y="0"
     inkscape:window-maximized="1"
     inkscape:current-layer="svg6"
     inkscape:document-rotation="0">
    <inkscape:grid
       type="xygrid"
       id="grid822" />
  </sodipodi:namedview>
  <path
     id="path840"
     style="opacity:0.7;fill:#000000;fill-opacity:1;fill-rule:evenodd;stroke:#000000;stroke-width:2;stroke-linecap:round;stroke-linejoin:round"
     d="m 17,11 v 2 3 H 17.171875 19 20 c 0.552285,0 1,0.447715 1,1 0,0.552285 -0.447715,1 -1,1 h -3 v 2 h 2.949219 0.05078 c 1.656854,0 3,-1.343146 3,-3 0,-1.656854 -1.343146,-3 -3,-3 -0.01693,-1.43e-4 -0.03385,-1.43e-4 -0.05078,0 C 19.625613,14.0057 19.305063,14.06376 19,14.171875 V 13 h 3 v -2 z"
     sodipodi:nodetypes="cccccssscccssccccccc" />
  <path
     style="fill:#000000;stroke:#000000;opacity:0.7;stroke-width:2;stroke-miterlimit:4;stroke-dasharray:none;stroke-linejoin:round"
     inkscape:connector-curvature="0"
     id="path824"
     d="m 3,4 v 16 h 2 v -7 h 7 v 7 h 2 V 4 h -2 v 7 H 5 V 4 Z" />
  <path
     d="m 3,4 v 16 h 2 v -7 h 7 v 7 h 2 V 4 h -2 v 7 H 5 V 4 Z"
     id="path2"
     inkscape:connector-curvature="0"
     style="fill:#ffffff" />
  <path
     id="rect834"
     style="opacity:1;fill:#aee3f8;fill-opacity:1;fill-rule:evenodd;stroke:none;stroke-width:2;stroke-linecap:round;stroke-linejoin:round"
     d="m 17,11 v 2 3 H 17.171875 19 20 c 0.552285,0 1,0.447715 1,1 0,0.552285 -0.447715,1 -1,1 h -3 v 2 h 2.949219 0.05078 c 1.656854,0 3,-1.343146 3,-3 0,-1.656854 -1.343146,-3 -3,-3 -0.01693,-1.43e-4 -0.03385,-1.43e-4 -0.05078,0 C 19.625613,14.0057 19.305063,14.06376 19,14.171875 V 13 h 3 v -2 z"
     sodipodi:nodetypes="cccccssscccssccccccc" />
</svg>
