<?xml version="1.0" encoding="UTF-8" standalone="no"?>
<svg
   xmlns:dc="http://purl.org/dc/elements/1.1/"
   xmlns:cc="http://creativecommons.org/ns#"
   xmlns:rdf="http://www.w3.org/1999/02/22-rdf-syntax-ns#"
   xmlns:svg="http://www.w3.org/2000/svg"
   xmlns="http://www.w3.org/2000/svg"
   xmlns:sodipodi="http://sodipodi.sourceforge.net/DTD/sodipodi-0.dtd"
   xmlns:inkscape="http://www.inkscape.org/namespaces/inkscape"
   viewBox="0 0 24 24"
   version="1.1"
   id="svg6"
   sodipodi:docname="lc_heading2parastyle.svg"
   inkscape:version="1.0.1 (3bc2e813f5, 2020-09-07)"
   inkscape:export-filename="/home/jupiter007/Libreoffice yaru theme fullcolor/build/cmd/lc_heading2parastyle.png"
   inkscape:export-xdpi="96"
   inkscape:export-ydpi="96">
  <metadata
     id="metadata12">
    <rdf:RDF>
      <cc:Work
         rdf:about="">
        <dc:format>image/svg+xml</dc:format>
        <dc:type
           rdf:resource="http://purl.org/dc/dcmitype/StillImage" />
      </cc:Work>
    </rdf:RDF>
  </metadata>
  <defs
     id="defs10" />
  <sodipodi:namedview
     pagecolor="#ffffff"
     bordercolor="#666666"
     borderopacity="1"
     objecttolerance="10"
     gridtolerance="10"
     guidetolerance="10"
     inkscape:pageopacity="0"
     inkscape:pageshadow="2"
     inkscape:window-width="1920"
     inkscape:window-height="1011"
     id="namedview8"
     showgrid="true"
     inkscape:zoom="27.812867"
     inkscape:cx="6.2150011"
     inkscape:cy="12.143848"
     inkscape:window-x="0"
     inkscape:window-y="0"
     inkscape:window-maximized="1"
     inkscape:current-layer="svg6"
     inkscape:document-rotation="0">
    <inkscape:grid
       type="xygrid"
       id="grid826" />
  </sodipodi:namedview>
  <path
     id="path840"
     style="opacity:0.6;fill:#000000;fill-opacity:1;fill-rule:evenodd;stroke:#000000;stroke-width:2;stroke-linecap:round;stroke-linejoin:round;stroke-miterlimit:4;stroke-dasharray:none"
     d="m 20,11 c -0.833333,0 -1.469348,0.361076 -1.929688,0.667969 -0.460338,0.306892 -0.777343,0.625 -0.777343,0.625 a 1,1 0 0 0 0,1.414062 1,1 0 0 0 1.414062,0 c 0,0 0.182994,-0.181892 0.472657,-0.375 C 19.469348,13.138924 19.833333,13 20,13 c 0.745356,0 0.837909,0.207139 0.919922,0.628906 0.08201,0.421768 -0.09411,1.131218 -0.626953,1.664063 l -3,3 A 1,1 0 0 0 17,19.011719 V 20 H 17.970703 23 v -2 h -2.585938 l 1.292969,-1.292969 c 0.967155,-0.967155 1.409752,-2.257704 1.175781,-3.460937 C 22.648843,12.042861 21.490712,11 20,11 Z" />
  <path
     style="opacity:0.6;fill:#000000;stroke:#000000;stroke-width:2;stroke-linejoin:round;stroke-miterlimit:4;stroke-dasharray:none"
     id="path822"
     d="m 3,4 v 16 h 2 v -7 h 7 v 7 h 2 V 4 h -2 v 7 H 5 V 4 Z"
     inkscape:connector-curvature="0" />
  <path
     d="m 3,4 v 16 h 2 v -7 h 7 v 7 h 2 V 4 h -2 v 7 H 5 V 4 Z"
     id="path2"
     style="fill:#ffffff"
     inkscape:connector-curvature="0" />
  <path
     id="rect867"
     style="opacity:1;fill:#aee3f8;fill-opacity:1;fill-rule:evenodd;stroke:none;stroke-width:2;stroke-linecap:round;stroke-linejoin:round;stroke-miterlimit:4;stroke-dasharray:none"
     d="m 20,11 c -0.833333,0 -1.469348,0.361076 -1.929688,0.667969 -0.460338,0.306892 -0.777343,0.625 -0.777343,0.625 a 1,1 0 0 0 0,1.414062 1,1 0 0 0 1.414062,0 c 0,0 0.182994,-0.181892 0.472657,-0.375 C 19.469348,13.138924 19.833333,13 20,13 c 0.745356,0 0.837909,0.207139 0.919922,0.628906 0.08201,0.421768 -0.09411,1.131218 -0.626953,1.664063 l -3,3 A 1,1 0 0 0 17,19.011719 V 20 H 17.970703 23 v -2 h -2.585938 l 1.292969,-1.292969 c 0.967155,-0.967155 1.409752,-2.257704 1.175781,-3.460937 C 22.648843,12.042861 21.490712,11 20,11 Z" />
</svg>
