<?xml version="1.0" encoding="UTF-8" standalone="no"?>
<svg
   xmlns:dc="http://purl.org/dc/elements/1.1/"
   xmlns:cc="http://creativecommons.org/ns#"
   xmlns:rdf="http://www.w3.org/1999/02/22-rdf-syntax-ns#"
   xmlns:svg="http://www.w3.org/2000/svg"
   xmlns="http://www.w3.org/2000/svg"
   xmlns:sodipodi="http://sodipodi.sourceforge.net/DTD/sodipodi-0.dtd"
   xmlns:inkscape="http://www.inkscape.org/namespaces/inkscape"
   inkscape:export-ydpi="95"
   inkscape:export-xdpi="95"
   inkscape:export-filename="/home/jupiter007/Libreoffice yaru theme fullcolor/build/cmd/lc_insertcell.png"
   inkscape:version="1.0.1 (3bc2e813f5, 2020-09-07)"
   sodipodi:docname="lc_insertcell.svg"
   id="svg6"
   version="1.1"
   viewBox="0 0 24 24">
  <metadata
     id="metadata12">
    <rdf:RDF>
      <cc:Work
         rdf:about="">
        <dc:format>image/svg+xml</dc:format>
        <dc:type
           rdf:resource="http://purl.org/dc/dcmitype/StillImage" />
      </cc:Work>
    </rdf:RDF>
  </metadata>
  <defs
     id="defs10" />
  <sodipodi:namedview
     inkscape:document-rotation="0"
     inkscape:current-layer="svg6"
     inkscape:window-maximized="1"
     inkscape:window-y="0"
     inkscape:window-x="0"
     inkscape:cy="9.2935075"
     inkscape:cx="10.273686"
     inkscape:zoom="27.812867"
     showgrid="true"
     id="namedview8"
     inkscape:window-height="1011"
     inkscape:window-width="1920"
     inkscape:pageshadow="2"
     inkscape:pageopacity="0"
     guidetolerance="10"
     gridtolerance="10"
     objecttolerance="10"
     borderopacity="1"
     bordercolor="#666666"
     pagecolor="#ffffff">
    <inkscape:grid
       id="grid822"
       type="xygrid" />
  </sodipodi:namedview>
  <rect
     style="opacity:1;fill:#ffffff;fill-opacity:1;stroke:none;stroke-width:2;stroke-linecap:round;stroke-linejoin:round;stroke-miterlimit:4;stroke-dasharray:none;stroke-opacity:1"
     id="rect827-7"
     width="16"
     height="16"
     x="4"
     y="4"
     inkscape:export-filename="/home/jupiter007/Libreoffice yaru theme fullcolor/build/cmd/rect827.png"
     inkscape:export-xdpi="95"
     inkscape:export-ydpi="95" />
  <path
     id="path2-8"
     style="opacity:1;fill:#6d6d6d;fill-opacity:1"
     d="M 6,3 C 4,3 3,3 3,5 v 14 c 0,2 1,2 3,2 h 12 c 2,0 3,0 3,-2 V 5 C 21,3 20,3 18,3 Z M 6,4 H 9 V 5 9 H 4 V 5 C 4,4 5,4 6,4 Z m 4,0 h 4 V 5 9 H 10 V 5 Z m 5,0 h 3 c 1,0 2,0 2,1 V 9 H 15 V 5 Z M 4,10 h 5 v 4 H 8 4 Z m 6,0 h 4 v 4 h -4 z m 5,0 h 5 v 4 H 15 Z M 4,15 H 8 9 V 19.099609 20 H 6 C 5,20 4,20 4,19 Z m 6,0 h 4 v 5 h -4 z m 5,0 h 5 v 4 c 0,1 -1,1 -2,1 h -3 z"
     sodipodi:nodetypes="sssssssssscccccsccccccccsccccccccccccccccccccccccccssccccccccsscc" />
  <path
     style="fill:#46a926;fill-opacity:1;stroke:none;stroke-width:1;stroke-linecap:round;stroke-linejoin:round;stroke-miterlimit:4;stroke-dasharray:none;stroke-opacity:1"
     d="m 9,9 v 6 h 6 V 9 Z m 1,1 h 4 v 4 h -4 z"
     id="path835-3"
     inkscape:connector-curvature="0"
     sodipodi:nodetypes="cccccccccc" />
  <rect
     style="opacity:1;fill:#ddf6d5;fill-opacity:1;fill-rule:evenodd;stroke:none;stroke-width:2;stroke-linecap:round;stroke-linejoin:round"
     id="rect842"
     width="4"
     height="4"
     x="10"
     y="10" />
  <circle
     r="3.5"
     cx="19.499998"
     cy="19.5"
     id="path2644"
     style="opacity:1;vector-effect:none;fill:#46a926;fill-opacity:1;stroke:none;stroke-width:3.49999976;stroke-linecap:butt;stroke-linejoin:round;stroke-miterlimit:4;stroke-dasharray:none;stroke-dashoffset:0;stroke-opacity:1" />
  <path
     d="m 19,17 v 2 h -2.000001 v 1 H 19 v 2 h 1 v -2 h 2 v -1 h -2 v -2 z"
     style="color:#000000;font-weight:400;line-height:normal;font-family:sans-serif;text-indent:0;text-align:start;text-decoration:none;text-decoration-line:none;text-decoration-style:solid;text-decoration-color:#000000;text-transform:none;white-space:normal;overflow:visible;isolation:auto;mix-blend-mode:normal;fill:#ffffff;fill-opacity:1;marker:none"
     font-weight="400"
     overflow="visible"
     id="path1063"
     inkscape:connector-curvature="0" />
</svg>
