<?xml version="1.0" encoding="UTF-8" standalone="no"?>
<svg
   xmlns:dc="http://purl.org/dc/elements/1.1/"
   xmlns:cc="http://creativecommons.org/ns#"
   xmlns:rdf="http://www.w3.org/1999/02/22-rdf-syntax-ns#"
   xmlns:svg="http://www.w3.org/2000/svg"
   xmlns="http://www.w3.org/2000/svg"
   xmlns:sodipodi="http://sodipodi.sourceforge.net/DTD/sodipodi-0.dtd"
   xmlns:inkscape="http://www.inkscape.org/namespaces/inkscape"
   viewBox="0 0 24 24"
   version="1.1"
   id="svg4"
   sodipodi:docname="lc_masterlayouts.svg"
   inkscape:version="0.92.4 (5da689c313, 2019-01-14)">
  <metadata
     id="metadata10">
    <rdf:RDF>
      <cc:Work
         rdf:about="">
        <dc:format>image/svg+xml</dc:format>
        <dc:type
           rdf:resource="http://purl.org/dc/dcmitype/StillImage" />
      </cc:Work>
    </rdf:RDF>
  </metadata>
  <defs
     id="defs8" />
  <sodipodi:namedview
     pagecolor="#ffffff"
     bordercolor="#666666"
     borderopacity="1"
     objecttolerance="10"
     gridtolerance="10"
     guidetolerance="10"
     inkscape:pageopacity="0"
     inkscape:pageshadow="2"
     inkscape:window-width="1920"
     inkscape:window-height="1011"
     id="namedview6"
     showgrid="true"
     inkscape:zoom="5.6568543"
     inkscape:cx="1.5217619"
     inkscape:cy="43.2576"
     inkscape:window-x="0"
     inkscape:window-y="32"
     inkscape:window-maximized="1"
     inkscape:current-layer="svg4">
    <inkscape:grid
       type="xygrid"
       id="grid823" />
  </sodipodi:namedview>
  <path
     d="M 21,11 5,20 h 16 z m -1,1.800781 V 19 H 8.9003906 Z"
     id="path2"
     inkscape:connector-curvature="0"
     style="fill:#762572"
     sodipodi:nodetypes="cccccccc" />
  <path
     d="m 20,10 v -0.9899911 -0.006 c -0.0152,-1.25882 -0.0599,-2.08942 -0.26172,-2.45545 -0.10116,-0.18345 -0.21286,-0.28727 -0.47266,-0.38482 -0.25979,-0.0976 -0.67323,-0.16 -1.26562,-0.16019 l -12,-0.004 c -0.59239,-1.9e-4 -1.00572,0.0626 -1.26562,0.16019 -0.25991,0.0976 -0.37147,0.20334 -0.47266,0.38678 -0.20191,0.366 -0.24702,1.19478 -0.26172,2.45349 v 7.5e-4 4.9992511 H 8 V 17 L 6,18 3,14.999991 V 8.9984189 8.9947589 C 3.0145,7.7363689 2.9694,6.8155389 3.38477,6.0626689 3.59243,5.6862399 3.94415,5.3893399 4.38281,5.2246499 4.82148,5.0599599 5.34239,4.9997989 6,5.0000089 l 12,0.0038 c 0.65761,2.1e-4 1.17858,0.0599 1.61719,0.22464 0.43861,0.16471 0.78852,0.46161 0.99609,0.83802 0.41514,0.752839 0.37165,1.6738 0.38672,2.932089 v 0.002 V 10 Z"
     id="path2732-8-9-9"
     style="color:#000000;font-style:normal;font-variant:normal;font-weight:normal;font-stretch:normal;font-size:medium;line-height:normal;font-family:sans-serif;font-variant-ligatures:normal;font-variant-position:normal;font-variant-caps:normal;font-variant-numeric:normal;font-variant-alternates:normal;font-feature-settings:normal;text-indent:0;text-align:start;text-decoration:none;text-decoration-line:none;text-decoration-style:solid;text-decoration-color:#000000;letter-spacing:normal;word-spacing:normal;text-transform:none;writing-mode:lr-tb;direction:ltr;text-orientation:mixed;dominant-baseline:auto;baseline-shift:baseline;text-anchor:start;white-space:normal;shape-padding:0;clip-rule:nonzero;display:inline;overflow:visible;visibility:visible;opacity:1;isolation:auto;mix-blend-mode:normal;color-interpolation:sRGB;color-interpolation-filters:linearRGB;solid-color:#000000;solid-opacity:1;vector-effect:none;fill:#762572;fill-opacity:1;fill-rule:nonzero;stroke:none;stroke-width:1.00007653;stroke-linecap:butt;stroke-linejoin:miter;stroke-miterlimit:4;stroke-dasharray:none;stroke-dashoffset:0;stroke-opacity:1;marker:none;color-rendering:auto;image-rendering:auto;shape-rendering:auto;text-rendering:auto;enable-background:accumulate"
     inkscape:connector-curvature="0"
     sodipodi:nodetypes="cccccsscccccccccccccsscscccc" />
</svg>
