<?xml version="1.0" encoding="UTF-8" standalone="no"?>
<svg
   xmlns:dc="http://purl.org/dc/elements/1.1/"
   xmlns:cc="http://creativecommons.org/ns#"
   xmlns:rdf="http://www.w3.org/1999/02/22-rdf-syntax-ns#"
   xmlns:svg="http://www.w3.org/2000/svg"
   xmlns="http://www.w3.org/2000/svg"
   xmlns:sodipodi="http://sodipodi.sourceforge.net/DTD/sodipodi-0.dtd"
   xmlns:inkscape="http://www.inkscape.org/namespaces/inkscape"
   viewBox="0 0 24 24"
   version="1.1"
   id="svg4"
   sodipodi:docname="lc_mailmergecreatedocuments.svg"
   inkscape:version="0.92.4 (5da689c313, 2019-01-14)">
  <metadata
     id="metadata10">
    <rdf:RDF>
      <cc:Work
         rdf:about="">
        <dc:format>image/svg+xml</dc:format>
        <dc:type
           rdf:resource="http://purl.org/dc/dcmitype/StillImage" />
      </cc:Work>
    </rdf:RDF>
  </metadata>
  <defs
     id="defs8" />
  <sodipodi:namedview
     pagecolor="#ffffff"
     bordercolor="#666666"
     borderopacity="1"
     objecttolerance="10"
     gridtolerance="10"
     guidetolerance="10"
     inkscape:pageopacity="0"
     inkscape:pageshadow="2"
     inkscape:window-width="1920"
     inkscape:window-height="1011"
     id="namedview6"
     showgrid="true"
     showguides="false"
     inkscape:zoom="19.666667"
     inkscape:cx="6.2858755"
     inkscape:cy="10.79734"
     inkscape:window-x="0"
     inkscape:window-y="32"
     inkscape:window-maximized="1"
     inkscape:current-layer="svg4">
    <inkscape:grid
       type="xygrid"
       id="grid823" />
  </sodipodi:namedview>
  <path
     d="m 19,15 -4,4 v 2 h 2 l 4,-4 z m -0.310547,1.689453 0.591797,0.591797 c -1.032854,1.021691 -2.091495,2.111353 -2.96875,3 L 15.71875,19.6875 Z"
     id="path2"
     inkscape:connector-curvature="0"
     style="fill:#232629"
     sodipodi:nodetypes="ccccccccccc" />
  <path
     d="m 14,20 h -4.989971 -0.006 C 7.745209,19.9848 6.914609,19.9401 6.548578,19.73828 6.365128,19.63712 6.261308,19.52542 6.163758,19.26562 6.066158,19.00583 6.003758,18.59239 6.003568,18 l -0.004,-12.0000002 c -1.89e-4,-0.59239 0.0626,-1.00572 0.16019,-1.26562 0.0976,-0.25991 0.20334,-0.37147 0.38678,-0.47266 0.366001,-0.20191 1.194781,-0.24702 2.453491,-0.26172 h 7.5e-4 4.999251 v 3.9999998 h 4.000001 L 18,15 l 1,-1 1.1e-5,-7.0000004 -4,-3.9999998 h -6.001572 -0.0037 c -1.25839,0.0145 -2.179221,-0.0306 -2.932091,0.38477 -0.376427,0.20766 -0.673327,0.55938 -0.838017,0.99804 -0.16469,0.43867 -0.224851,0.95958 -0.224641,1.61719 L 5.00379,18 c 2.1e-4,0.65761 0.0599,1.17858 0.22464,1.61719 0.16471,0.43861 0.46161,0.78852 0.838019,0.99609 C 6.819288,21.02842 7.74025,20.98493 8.998539,21 h 0.002 4.999421 z"
     id="path2732-8-9-9"
     style="color:#000000;font-style:normal;font-variant:normal;font-weight:normal;font-stretch:normal;font-size:medium;line-height:normal;font-family:sans-serif;font-variant-ligatures:normal;font-variant-position:normal;font-variant-caps:normal;font-variant-numeric:normal;font-variant-alternates:normal;font-feature-settings:normal;text-indent:0;text-align:start;text-decoration:none;text-decoration-line:none;text-decoration-style:solid;text-decoration-color:#000000;letter-spacing:normal;word-spacing:normal;text-transform:none;writing-mode:lr-tb;direction:ltr;text-orientation:mixed;dominant-baseline:auto;baseline-shift:baseline;text-anchor:start;white-space:normal;shape-padding:0;clip-rule:nonzero;display:inline;overflow:visible;visibility:visible;opacity:1;isolation:auto;mix-blend-mode:normal;color-interpolation:sRGB;color-interpolation-filters:linearRGB;solid-color:#000000;solid-opacity:1;vector-effect:none;fill:#232629;fill-opacity:1;fill-rule:nonzero;stroke:none;stroke-width:1.00007653;stroke-linecap:butt;stroke-linejoin:miter;stroke-miterlimit:4;stroke-dasharray:none;stroke-dashoffset:0;stroke-opacity:1;marker:none;color-rendering:auto;image-rendering:auto;shape-rendering:auto;text-rendering:auto;enable-background:accumulate"
     inkscape:connector-curvature="0"
     sodipodi:nodetypes="cccccsscccccccccccccccsscscccc" />
</svg>
