<?xml version="1.0" encoding="UTF-8" standalone="no"?>
<svg
   xmlns:dc="http://purl.org/dc/elements/1.1/"
   xmlns:cc="http://creativecommons.org/ns#"
   xmlns:rdf="http://www.w3.org/1999/02/22-rdf-syntax-ns#"
   xmlns:svg="http://www.w3.org/2000/svg"
   xmlns="http://www.w3.org/2000/svg"
   xmlns:sodipodi="http://sodipodi.sourceforge.net/DTD/sodipodi-0.dtd"
   xmlns:inkscape="http://www.inkscape.org/namespaces/inkscape"
   viewBox="0 0 24 24"
   version="1.1"
   id="svg6"
   sodipodi:docname="lc_managebreakpoints.svg"
   inkscape:export-filename="/home/jupiter007/Libreoffice yaru theme/build/cmd/lc_managebreakpoints.png"
   inkscape:export-xdpi="96"
   inkscape:export-ydpi="96"
   inkscape:version="0.92.4 (5da689c313, 2019-01-14)">
  <metadata
     id="metadata12">
    <rdf:RDF>
      <cc:Work
         rdf:about="">
        <dc:format>image/svg+xml</dc:format>
        <dc:type
           rdf:resource="http://purl.org/dc/dcmitype/StillImage" />
      </cc:Work>
    </rdf:RDF>
  </metadata>
  <defs
     id="defs10" />
  <sodipodi:namedview
     pagecolor="#ffffff"
     bordercolor="#666666"
     borderopacity="1"
     objecttolerance="10"
     gridtolerance="10"
     guidetolerance="10"
     inkscape:pageopacity="0"
     inkscape:pageshadow="2"
     inkscape:window-width="1920"
     inkscape:window-height="1011"
     id="namedview8"
     showgrid="false"
     inkscape:zoom="9.8333333"
     inkscape:cx="12"
     inkscape:cy="12"
     inkscape:window-x="0"
     inkscape:window-y="32"
     inkscape:window-maximized="1"
     inkscape:current-layer="svg6" />
  <path
     d="m16 4 2 3 2-3z"
     fill="#f47750"
     id="path2" />
  <path
     d="m4 4v4 12h1 12v-1h-12v-11h9v-2-2zm6.4375 6c-1.06609 0-1.53125.34834-1.53125 1.25v1.21875c0 .55691-.00488 1.21875-.59375 1.21875h-.3125v.625h.3125c.58889 0 .59375.66184.59375 1.21875v1.21875c0 .90166.46516 1.25 1.53125 1.25v-.59375c-.71072 0-.71875-.22744-.71875-1.09375v-1.03125c0-.41546-.15096-1.0249-.75-1.28125.59904-.25635.75-.86578.75-1.28125v-1.03125c0-.86631.00805-1.09375.71875-1.09375zm1.5625 0c-.554 0-1 .446-1 1s.446 1 1 1 1-.446 1-1-.446-1-1-1zm1.5625 0v.59375c.71073 0 .71875.22744.71875 1.09375v1.03125c0 .41547.1197 1.0249.71875 1.28125-.59905.25635-.71875.86579-.71875 1.28125v1.03125c0 .86631-.00793 1.09375-.71875 1.09375v.59375c1.0661 0 1.53124-.34834 1.53125-1.25v-1.21875c0-.55691.04626-1.21875.625-1.21875h.28125v-.625h-.28125c-.57874 0-.62501-.66184-.625-1.21875v-1.21875c0-.90166-.46515-1.25-1.53125-1.25zm5.4375 0a1 1 0 0 0 -1 1 1 1 0 0 0 1 1 1 1 0 0 0 1-1 1 1 0 0 0 -1-1zm-8 3v4h2v-4zm8 1a1 1.0000024 0 0 0 -1 1 1 1.0000024 0 0 0 1 1 1 1.0000024 0 0 0 1-1 1 1.0000024 0 0 0 -1-1zm0 4a1 1.0000024 0 0 0 -1 1 1 1.0000024 0 0 0 1 1 1 1.0000024 0 0 0 1-1 1 1.0000024 0 0 0 -1-1z"
     fill="#232629"
     id="path4" />
</svg>
