<?xml version="1.0" encoding="UTF-8" standalone="no"?>
<svg
   xmlns:dc="http://purl.org/dc/elements/1.1/"
   xmlns:cc="http://creativecommons.org/ns#"
   xmlns:rdf="http://www.w3.org/1999/02/22-rdf-syntax-ns#"
   xmlns:svg="http://www.w3.org/2000/svg"
   xmlns="http://www.w3.org/2000/svg"
   xmlns:sodipodi="http://sodipodi.sourceforge.net/DTD/sodipodi-0.dtd"
   xmlns:inkscape="http://www.inkscape.org/namespaces/inkscape"
   viewBox="0 0 24 24"
   version="1.1"
   id="svg6"
   sodipodi:docname="lc_modifyframe.svg"
   inkscape:version="1.0.1 (3bc2e813f5, 2020-09-07)"
   inkscape:export-filename="/home/jupiter007/Libreoffice yaru theme fullcolor/build/cmd/lc_modifyframe.png"
   inkscape:export-xdpi="95"
   inkscape:export-ydpi="95">
  <metadata
     id="metadata12">
    <rdf:RDF>
      <cc:Work
         rdf:about="">
        <dc:format>image/svg+xml</dc:format>
        <dc:type
           rdf:resource="http://purl.org/dc/dcmitype/StillImage" />
      </cc:Work>
    </rdf:RDF>
  </metadata>
  <defs
     id="defs10" />
  <sodipodi:namedview
     pagecolor="#ffffff"
     bordercolor="#666666"
     borderopacity="1"
     objecttolerance="10"
     gridtolerance="10"
     guidetolerance="10"
     inkscape:pageopacity="0"
     inkscape:pageshadow="2"
     inkscape:window-width="1920"
     inkscape:window-height="1011"
     id="namedview8"
     showgrid="false"
     inkscape:zoom="27.812867"
     inkscape:cx="17.369646"
     inkscape:cy="17.122477"
     inkscape:window-x="1920"
     inkscape:window-y="32"
     inkscape:window-maximized="1"
     inkscape:current-layer="svg6"
     inkscape:document-rotation="0" />
  <path
     id="path853"
     style="color:#000000;font-style:normal;font-variant:normal;font-weight:normal;font-stretch:normal;font-size:medium;line-height:normal;font-family:sans-serif;font-variant-ligatures:normal;font-variant-position:normal;font-variant-caps:normal;font-variant-numeric:normal;font-variant-alternates:normal;font-variant-east-asian:normal;font-feature-settings:normal;font-variation-settings:normal;text-indent:0;text-align:start;text-decoration:none;text-decoration-line:none;text-decoration-style:solid;text-decoration-color:#000000;letter-spacing:normal;word-spacing:normal;text-transform:none;writing-mode:lr-tb;direction:ltr;text-orientation:mixed;dominant-baseline:auto;baseline-shift:baseline;text-anchor:start;white-space:normal;shape-padding:0;shape-margin:0;inline-size:0;clip-rule:nonzero;display:inline;overflow:visible;visibility:visible;isolation:auto;mix-blend-mode:normal;color-interpolation:sRGB;color-interpolation-filters:linearRGB;solid-color:#000000;solid-opacity:1;vector-effect:none;fill:#000000;fill-opacity:1;fill-rule:nonzero;stroke:none;stroke-width:2;stroke-linecap:round;stroke-linejoin:round;stroke-miterlimit:4;stroke-dasharray:none;stroke-dashoffset:0;stroke-opacity:1;color-rendering:auto;image-rendering:auto;shape-rendering:auto;text-rendering:auto;enable-background:accumulate;stop-color:#000000;stop-opacity:1;opacity:0.7"
     d="M 16.242188 2.7636719 C 14.960482 2.7636719 13.679154 3.2505333 12.707031 4.2226562 L 9.171875 7.7578125 C 8.6298577 8.2998297 8.2749663 8.9441609 8.0351562 9.625 A 1.0001 1.0001 0 0 0 7.0507812 9.8789062 L 4.2226562 12.707031 C 2.2784102 14.651277 2.2784101 17.833098 4.2226562 19.777344 C 6.1669023 21.72159 9.3487227 21.72159 11.292969 19.777344 L 13.138672 17.931641 C 13.012541 17.623141 12.97706 17.288448 13.121094 16.939453 L 13.582031 15.826172 A 1.0001 1.0001 0 0 0 13.582031 15.824219 C 13.824683 15.238394 14.381342 15.001822 14.96875 14.982422 C 14.986864 14.397402 15.221882 13.846213 15.8125 13.601562 L 16.929688 13.138672 C 17.280131 12.993516 17.613853 13.026301 17.919922 13.150391 L 19.777344 11.292969 C 21.72159 9.3487227 21.72159 6.1669022 19.777344 4.2226562 C 18.805221 3.2505333 17.523893 2.7636719 16.242188 2.7636719 z M 16.242188 5.7519531 C 16.751938 5.7519531 17.261538 5.9490379 17.65625 6.34375 C 18.445674 7.1331742 18.445674 8.3824508 17.65625 9.171875 L 15.935547 10.892578 C 15.692837 10.265674 15.331854 9.6756037 14.828125 9.171875 C 14.316429 8.6601783 13.676922 8.3795211 13.037109 8.1347656 L 14.828125 6.34375 C 15.222837 5.9490379 15.732437 5.7519531 16.242188 5.7519531 z M 10.992188 10.599609 A 1.0001 1.0001 0 0 0 11.404297 10.712891 C 11.883872 10.738435 12.339469 10.925408 12.707031 11.292969 C 13.29583 11.881768 13.297336 12.683431 13.007812 13.402344 A 1.0001 1.0001 0 0 0 12.595703 13.289062 C 12.118137 13.263183 11.660096 13.074159 11.292969 12.707031 C 10.704634 12.118696 10.703583 11.318154 10.992188 10.599609 z M 8.0644531 13.107422 C 8.3071628 13.734326 8.6681462 14.324396 9.171875 14.828125 C 9.6862608 15.342511 10.326644 15.618864 10.966797 15.861328 L 9.171875 17.65625 C 8.382451 18.445674 7.1331738 18.445674 6.34375 17.65625 C 5.5543261 16.866826 5.554326 15.617549 6.34375 14.828125 L 8.0644531 13.107422 z " />
  <path
     id="circle829"
     style="opacity:1;fill:#ffffff;fill-opacity:1;fill-rule:nonzero;stroke:none;stroke-width:2;stroke-linecap:round;stroke-linejoin:round;stroke-miterlimit:4;stroke-dasharray:none;stroke-opacity:1"
     d="M 12.330078 8.8417969 L 11.457031 9.7148438 C 12.170443 9.7528438 12.869118 10.040994 13.414062 10.585938 C 14.585634 11.757511 14.585634 13.656552 13.414062 14.828125 L 9.8789062 18.363281 C 8.7073334 19.534854 6.8082914 19.534854 5.6367188 18.363281 C 4.4651461 17.191708 4.4651458 15.292667 5.6367188 14.121094 L 7.7578125 12 L 7.7578125 10.585938 L 4.9296875 13.414062 C 3.3675903 14.976159 3.3675903 17.508215 4.9296875 19.070312 C 6.4917847 20.63241 9.0238406 20.63241 10.585938 19.070312 L 13.40625 16.25 L 13.582031 15.826172 A 1.0001 1.0001 0 0 0 13.582031 15.824219 C 13.761349 15.391299 14.113517 15.149685 14.521484 15.044922 C 15.655888 13.481014 15.530703 11.288515 14.121094 9.8789062 C 13.606668 9.3644793 12.985695 9.0174039 12.330078 8.8417969 z " />
  <path
     inkscape:connector-curvature="0"
     id="path832"
     d="m 16.242641,13.414214 2.828427,-2.828428 c 1.562097,-1.5620969 1.562097,-4.0947569 0,-5.6568539 -1.562097,-1.562097 -4.094757,-1.562097 -5.656854,0 l -3.5355345,3.535534 c -1.5620972,1.5620969 -1.5620972,4.0947569 0,5.6568539 0.5168755,0.516876 1.1359065,0.858619 1.7949855,1.033441 l 0.868196,-0.868195 c -0.712449,-0.03861 -1.411847,-0.328124 -1.956075,-0.872352 -1.1715725,-1.171573 -1.1715725,-3.071068 0,-4.2426409 l 3.535534,-3.535534 c 1.171573,-1.171573 3.071068,-1.171573 4.242641,0 1.171573,1.171573 1.171573,3.071068 0,4.242641 L 16.242641,12 Z"
     style="opacity:1;fill:#ffffff;fill-opacity:1;fill-rule:nonzero;stroke:none;stroke-width:2;stroke-linecap:round;stroke-linejoin:round;stroke-miterlimit:4;stroke-dasharray:none;stroke-opacity:1"
     sodipodi:nodetypes="csssssccssssscc" />
  <g
     id="g915"
     transform="translate(-0.9998745,-1.000156)">
    <circle
       style="fill:#ffffff;fill-rule:evenodd;stroke:none;stroke-width:2;stroke-linecap:round;stroke-linejoin:round"
       id="path909"
       cx="19.5"
       cy="19.5"
       r="1.5" />
    <g
       id="g1425"
       transform="translate(8.0000004,8)">
      <circle
         style="fill:#ffffff;fill-opacity:1;fill-rule:evenodd;stroke:none;stroke-width:2;stroke-linecap:round;stroke-linejoin:round;stroke-miterlimit:4;stroke-dasharray:none;stroke-opacity:1"
         id="path1328"
         cx="11.5"
         cy="11.5"
         r="1.5" />
      <path
         d="m 9.3111344,7.791575 c -0.13058,0.05409 -0.188804,0.19465 -0.134715,0.325232 l 0.272166,0.657066 c -0.260199,0.195351 -0.471578,0.424352 -0.66202,0.678364 L 8.1128724,9.173184 c -0.130581,-0.05409 -0.274445,0.0055 -0.328533,0.136083 l -0.461881,1.115078 c -0.05409,0.130582 0.0055,0.274445 0.136083,0.328534 l 0.673693,0.279053 c -0.04495,0.314275 -0.05741,0.62567 -0.01156,0.947793 l -0.657066,0.272166 c -0.130581,0.05409 -0.188804,0.19465 -0.134715,0.325232 l 0.462682,1.117013 c 0.05409,0.130581 0.19465,0.188803 0.325231,0.134715 l 0.657067,-0.272166 c 0.195351,0.260198 0.424352,0.471578 0.678363,0.66202 l -0.279053,0.673693 c -0.05409,0.130583 0.0055,0.274445 0.136083,0.328533 l 1.1150786,0.461881 c 0.130582,0.05409 0.274445,-0.0055 0.328533,-0.136083 l 0.279053,-0.673693 c 0.314276,0.04495 0.625672,0.05741 0.947794,0.01156 l 0.272166,0.657067 c 0.05409,0.130582 0.19465,0.188803 0.325231,0.134715 l 1.117013,-0.462682 c 0.130582,-0.05409 0.188804,-0.19465 0.134716,-0.325231 l -0.272166,-0.657067 c 0.260198,-0.19535 0.471577,-0.424351 0.662019,-0.678363 l 0.673694,0.279053 c 0.130583,0.05409 0.274445,-0.0055 0.328533,-0.136083 l 0.461881,-1.115079 c 0.05409,-0.130583 -0.0055,-0.274445 -0.136083,-0.328533 L 14.873035,11.97334 c 0.04495,-0.314276 0.05741,-0.625672 0.01156,-0.947794 l 0.657066,-0.272166 c 0.130582,-0.05409 0.188804,-0.194649 0.134716,-0.325231 L 15.213692,9.311132 C 15.159602,9.18055 15.019042,9.122328 14.88846,9.176417 L 14.231394,9.448582 C 14.036043,9.188383 13.807042,8.977005 13.553031,8.786563 l 0.279053,-0.673694 c 0.05409,-0.130582 -0.0055,-0.274445 -0.136083,-0.328533 L 12.580922,7.322455 c -0.130583,-0.05409 -0.274445,0.0055 -0.328534,0.136083 L 11.973335,8.132232 C 11.65906,8.087282 11.347664,8.074822 11.025542,8.120672 L 10.753376,7.463606 C 10.699286,7.333024 10.558726,7.274802 10.428144,7.32889 Z m 1.7560366,2.659752 c 0.580321,-0.240377 1.246395,0.03552 1.486772,0.615841 0.240377,0.580322 -0.03552,1.246395 -0.615841,1.486772 -0.580321,0.240377 -1.246395,-0.03552 -1.486772,-0.615841 -0.240377,-0.580321 0.03552,-1.246395 0.615841,-1.486772 z"
         display="block"
         fill="url(#d)"
         stroke="url(#e)"
         stroke-linejoin="round"
         stroke-width="0.6"
         id="path42"
         style="fill:#d3d3d3;fill-opacity:1;stroke:#4d4d4d;stroke-opacity:1" />
    </g>
  </g>
</svg>
