<?xml version="1.0" encoding="UTF-8" standalone="no"?>
<svg
   xmlns:dc="http://purl.org/dc/elements/1.1/"
   xmlns:cc="http://creativecommons.org/ns#"
   xmlns:rdf="http://www.w3.org/1999/02/22-rdf-syntax-ns#"
   xmlns:svg="http://www.w3.org/2000/svg"
   xmlns="http://www.w3.org/2000/svg"
   xmlns:sodipodi="http://sodipodi.sourceforge.net/DTD/sodipodi-0.dtd"
   xmlns:inkscape="http://www.inkscape.org/namespaces/inkscape"
   viewBox="0 0 24 24"
   version="1.1"
   id="svg4"
   sodipodi:docname="lc_normalmultipanegui.svg"
   inkscape:version="0.92.4 (5da689c313, 2019-01-14)">
  <metadata
     id="metadata10">
    <rdf:RDF>
      <cc:Work
         rdf:about="">
        <dc:format>image/svg+xml</dc:format>
        <dc:type
           rdf:resource="http://purl.org/dc/dcmitype/StillImage" />
      </cc:Work>
    </rdf:RDF>
  </metadata>
  <defs
     id="defs8" />
  <sodipodi:namedview
     pagecolor="#ffffff"
     bordercolor="#666666"
     borderopacity="1"
     objecttolerance="10"
     gridtolerance="10"
     guidetolerance="10"
     inkscape:pageopacity="0"
     inkscape:pageshadow="2"
     inkscape:window-width="1920"
     inkscape:window-height="1011"
     id="namedview6"
     showgrid="true"
     showguides="false"
     inkscape:zoom="6.9532167"
     inkscape:cx="-9.0626822"
     inkscape:cy="58.530479"
     inkscape:window-x="0"
     inkscape:window-y="32"
     inkscape:window-maximized="1"
     inkscape:current-layer="svg4">
    <inkscape:grid
       type="xygrid"
       id="grid823" />
  </sodipodi:namedview>
  <path
     d="m 19,11.001953 -1,1 -5,5 v 1 1 h 2 l 1,-1 4,-4 1,-1 z m -0.28125,1.6875 0.5625,0.59375 -4.96875,5 -0.59375,-0.59375 z"
     id="path2"
     inkscape:connector-curvature="0"
     style="fill:#232629"
     sodipodi:nodetypes="ccccccccccccccc" />
  <path
     d="m 20,11 v -1.9899712 -0.006 c -0.0152,-1.25882 -0.0599,-2.08942 -0.26172,-2.455451 -0.10116,-0.18345 -0.21286,-0.28727 -0.47266,-0.38482 -0.25979,-0.0976 -0.67323,-0.16 -1.26562,-0.16019 l -12,-0.004 c -0.59239,-1.89e-4 -1.00572,0.0626 -1.26562,0.16019 -0.25991,0.0976 -0.37147,0.20334 -0.47266,0.38678 C 4.05981,6.9125388 4.0147,7.7413188 4,9.0000288 v 7.5e-4 4.9992512 h 4 v 4.000001 l 4,-1.68e-4 V 19 l -5,1.1e-5 -4,-4 v -6.0015722 -0.0037 C 3.0145,7.7363488 2.9694,6.8155178 3.38477,6.0626478 3.59243,5.6862208 3.94415,5.3893208 4.38281,5.2246308 4.82148,5.0599408 5.34239,4.9997798 6,4.9999898 l 12,0.0038 c 0.65761,2.1e-4 1.17858,0.0599 1.61719,0.22464 0.43861,0.16471 0.78852,0.46161 0.99609,0.838019 0.41514,0.752839 0.37165,1.673801 0.38672,2.93209 v 0.002 V 12 Z"
     id="path2732-8-9-9"
     style="color:#000000;font-style:normal;font-variant:normal;font-weight:normal;font-stretch:normal;font-size:medium;line-height:normal;font-family:sans-serif;font-variant-ligatures:normal;font-variant-position:normal;font-variant-caps:normal;font-variant-numeric:normal;font-variant-alternates:normal;font-feature-settings:normal;text-indent:0;text-align:start;text-decoration:none;text-decoration-line:none;text-decoration-style:solid;text-decoration-color:#000000;letter-spacing:normal;word-spacing:normal;text-transform:none;writing-mode:lr-tb;direction:ltr;text-orientation:mixed;dominant-baseline:auto;baseline-shift:baseline;text-anchor:start;white-space:normal;shape-padding:0;clip-rule:nonzero;display:inline;overflow:visible;visibility:visible;opacity:1;isolation:auto;mix-blend-mode:normal;color-interpolation:sRGB;color-interpolation-filters:linearRGB;solid-color:#000000;solid-opacity:1;vector-effect:none;fill:#232629;fill-opacity:1;fill-rule:nonzero;stroke:none;stroke-width:1.00007653;stroke-linecap:butt;stroke-linejoin:miter;stroke-miterlimit:4;stroke-dasharray:none;stroke-dashoffset:0;stroke-opacity:1;marker:none;color-rendering:auto;image-rendering:auto;shape-rendering:auto;text-rendering:auto;enable-background:accumulate"
     inkscape:connector-curvature="0"
     sodipodi:nodetypes="cccccsscccccccccccccccsscscccc" />
</svg>
