<?xml version="1.0" encoding="UTF-8" standalone="no"?>
<svg
   xmlns:dc="http://purl.org/dc/elements/1.1/"
   xmlns:cc="http://creativecommons.org/ns#"
   xmlns:rdf="http://www.w3.org/1999/02/22-rdf-syntax-ns#"
   xmlns:svg="http://www.w3.org/2000/svg"
   xmlns="http://www.w3.org/2000/svg"
   xmlns:sodipodi="http://sodipodi.sourceforge.net/DTD/sodipodi-0.dtd"
   xmlns:inkscape="http://www.inkscape.org/namespaces/inkscape"
   viewBox="0 0 24 24"
   version="1.1"
   id="svg6"
   sodipodi:docname="lc_numberliststyle.svg"
   inkscape:version="0.92.4 (5da689c313, 2019-01-14)">
  <metadata
     id="metadata12">
    <rdf:RDF>
      <cc:Work
         rdf:about="">
        <dc:format>image/svg+xml</dc:format>
        <dc:type
           rdf:resource="http://purl.org/dc/dcmitype/StillImage" />
      </cc:Work>
    </rdf:RDF>
  </metadata>
  <defs
     id="defs10" />
  <sodipodi:namedview
     pagecolor="#ffffff"
     bordercolor="#666666"
     borderopacity="1"
     objecttolerance="10"
     gridtolerance="10"
     guidetolerance="10"
     inkscape:pageopacity="0"
     inkscape:pageshadow="2"
     inkscape:window-width="1920"
     inkscape:window-height="1011"
     id="namedview8"
     showgrid="true"
     inkscape:zoom="39.333333"
     inkscape:cx="12.607688"
     inkscape:cy="12.434427"
     inkscape:window-x="0"
     inkscape:window-y="32"
     inkscape:window-maximized="1"
     inkscape:current-layer="svg6">
    <inkscape:grid
       type="xygrid"
       id="grid822" />
  </sodipodi:namedview>
  <path
     d="m 11,3 v 1 h 9 V 3 Z m 0,2 v 1 h 9 V 5 Z m 0,4 v 1 h 9 V 9 Z m 0,2 v 1 h 9 v -1 z m 0,4 v 1 h 9 v -1 z m 0,2 v 1 h 9 v -1 z"
     id="path2"
     inkscape:connector-curvature="0"
     style="fill:#232629"
     sodipodi:nodetypes="cccccccccccccccccccccccccccccc" />
  <path
     d="m6.2988281 3-1.2988281 1.0253906.4101562.5097656.4648438-.3691406c.0552-.04378.1533119-.1368967.2949219-.2773437l-.0136719.4160156-.0078125.3808594v2.3144531h.8515625v-4zm.2265625 6c-.20273 0-.3850881.0188806-.5488281.0566406-.16374.03596-.314725.08792-.453125.15625s-.3129075.1861325-.5234375.3515625l.4921875.5351559c.16959-.1294666.3323312-.2286998.4882813-.2988278.15594-.07013.3167318-.1054687.4824218-.1054687.15789 0 .2833932.0398695.3769532.1171875.0955.07732.1425781.195278.1425781.353516 0 .106091-.0215531.207742-.0644531.30664-.0429001.0989-.1134676.207339-.2109376.324219-.0975.115082-.3053068.322755-.6230468.623047l-1.0722656 1v.580078h2.9882812v-.701172h-1.8632812v-.037109l.5507812-.478516c.36647-.309283.621375-.547615.765625-.714844.14619-.167228.2540456-.330043.3222656-.488281.0702-.160036.1054688-.330105.1054688-.511719 0-.2085856-.0569019-.3948062-.1699219-.5566402-.11306-.1618341-.2718925-.2870462-.4765625-.3769532-.20463-.089908-.4419244-.1347656-.7089844-.1347656z"
     fill="#762572"
     id="path4" />
</svg>
