<?xml version="1.0" encoding="UTF-8" standalone="no"?>
<svg
   xmlns:dc="http://purl.org/dc/elements/1.1/"
   xmlns:cc="http://creativecommons.org/ns#"
   xmlns:rdf="http://www.w3.org/1999/02/22-rdf-syntax-ns#"
   xmlns:svg="http://www.w3.org/2000/svg"
   xmlns="http://www.w3.org/2000/svg"
   xmlns:sodipodi="http://sodipodi.sourceforge.net/DTD/sodipodi-0.dtd"
   xmlns:inkscape="http://www.inkscape.org/namespaces/inkscape"
   sodipodi:docname="lc_openremote.svg"
   id="svg4"
   version="1.1"
   width="24"
   height="24"
   inkscape:export-filename="/home/jupiter007/Téléchargements/images_breeze/cmd/lc_openremote.png"
   inkscape:export-xdpi="96"
   inkscape:export-ydpi="96"
   inkscape:version="0.92.4 (5da689c313, 2019-01-14)">
  <metadata
     id="metadata10">
    <rdf:RDF>
      <cc:Work
         rdf:about="">
        <dc:format>image/svg+xml</dc:format>
        <dc:type
           rdf:resource="http://purl.org/dc/dcmitype/StillImage" />
        <dc:title></dc:title>
      </cc:Work>
    </rdf:RDF>
  </metadata>
  <defs
     id="defs8" />
  <sodipodi:namedview
     pagecolor="#ffffff"
     bordercolor="#666666"
     borderopacity="1"
     objecttolerance="10"
     gridtolerance="10"
     guidetolerance="10"
     inkscape:pageopacity="0"
     inkscape:pageshadow="2"
     inkscape:window-width="1920"
     inkscape:window-height="1011"
     id="namedview6"
     showgrid="true"
     inkscape:snap-to-guides="true"
     inkscape:snap-grids="true"
     inkscape:snap-page="true"
     inkscape:snap-bbox="false"
     inkscape:snap-global="true"
     inkscape:zoom="22.627417"
     inkscape:cx="13.776346"
     inkscape:cy="11.298491"
     inkscape:window-x="0"
     inkscape:window-y="32"
     inkscape:window-maximized="1"
     inkscape:current-layer="svg4">
    <sodipodi:guide
       id="guide834"
       inkscape:locked="false"
       orientation="0,18"
       position="0,0" />
    <sodipodi:guide
       id="guide836"
       inkscape:locked="false"
       orientation="-18,0"
       position="24,20" />
    <sodipodi:guide
       id="guide838"
       inkscape:locked="false"
       orientation="0,-18"
       position="4.3389831,24" />
    <sodipodi:guide
       id="guide840"
       inkscape:locked="false"
       orientation="18,0"
       position="0,18" />
    <inkscape:grid
       id="grid842"
       type="xygrid" />
    <sodipodi:guide
       id="guide824"
       position="12.0,0"
       orientation="1,0"
       inkscape:locked="false" />
    <sodipodi:guide
       id="guide826"
       position="0,12.0"
       orientation="0,1"
       inkscape:locked="false" />
  </sodipodi:namedview>
  <path
     id="rect838"
     style="opacity:1;fill:#232629;fill-opacity:1;fill-rule:nonzero;stroke:none;stroke-width:1;stroke-linecap:round;stroke-linejoin:round;stroke-miterlimit:4;stroke-dasharray:none;stroke-dashoffset:0;stroke-opacity:1"
     d="m 4,21 h 16 v 1 H 4 Z M 7,3 C 5.742,3.015 4.815,2.96675 4.062,3.38275 3.6721135,3.60387 3.3741698,3.957146 3.222,4.37875 3.058,4.81675 3,5.33875 3,5.99575 v 10 c 0,0.658 0.058,1.179 0.223,1.617 0.164,0.439 0.463,0.79 0.84,0.998 0.752,0.416 1.673,0.37 2.931,0.385 L 11,19 v 1 h 2 v -1 h 4 c 1.258,-0.015 2.185,0.0341 2.938,-0.3809 0.376,-0.207 0.675,-0.56 0.84,-0.998 0.164,-0.438 0.222,-0.96 0.222,-1.617 V 8.004225 c 0,-0.658 -0.058,-1.179 -0.223,-1.617 -0.02,-0.055 -0.048,-0.104 -0.074,-0.154 l -0.027,-0.057 C 20.514266,5.845972 20.257189,5.5718254 19.938,5.3892246 c -0.753,-0.416 -1.674,-0.37 -2.932,-0.385 L 13,4.99575 11,3 Z m 0.006,0.99575 h 3.563 l 1.765,1.746 -1.268,1.254 H 6.994 c -1.258,0.015 -2.179,-0.03 -2.932,0.385 -0.022,0.012 -0.04,0.03 -0.062,0.043 v -1.428 c 0,-0.592 0.062,-1.006 0.16,-1.266 0.098,-0.26 0.203,-0.371 0.387,-0.472 0.366,-0.203 1.195,-0.247 2.459,-0.262 z m 6.492,2 3.494,0.0085 c 1.264,0.015 2.092,0.06 2.46,0.262 0.183,0.1 0.288,0.212 0.386,0.472 0.098,0.26 0.162,0.674 0.162,1.266 v 8 c 0,0.592 -0.063,1.006 -0.16,1.266 -0.098,0.26 -0.203,0.371 -0.387,0.472 C 19.087,17.94425 18.26,17.985 17,18 L 7,17.9958 c -1.26,-0.015 -2.087,-0.06 -2.453,-0.262 -0.184,-0.1 -0.29,-0.212 -0.387,-0.472 C 4.063,17.0018 4,16.5878 4,15.9958 v -6 c 0,-0.592 0.064,-1.006 0.162,-1.266 0.098,-0.26 0.203,-0.371 0.387,-0.472 0.367,-0.203 1.195,-0.247 2.459,-0.262 h 4.468 z"
     inkscape:connector-curvature="0" />
</svg>
