<?xml version="1.0" encoding="UTF-8" standalone="no"?>
<svg
   xmlns:dc="http://purl.org/dc/elements/1.1/"
   xmlns:cc="http://creativecommons.org/ns#"
   xmlns:rdf="http://www.w3.org/1999/02/22-rdf-syntax-ns#"
   xmlns:svg="http://www.w3.org/2000/svg"
   xmlns="http://www.w3.org/2000/svg"
   xmlns:sodipodi="http://sodipodi.sourceforge.net/DTD/sodipodi-0.dtd"
   xmlns:inkscape="http://www.inkscape.org/namespaces/inkscape"
   viewBox="0 0 24 24"
   version="1.1"
   id="svg4"
   sodipodi:docname="lc_pagesetup.svg"
   inkscape:version="1.0.1 (3bc2e813f5, 2020-09-07)"
   inkscape:export-filename="/home/jupiter007/Libreoffice yaru theme fullcolor/build/cmd/lc_pagesetup.png"
   inkscape:export-xdpi="96"
   inkscape:export-ydpi="96">
  <metadata
     id="metadata10">
    <rdf:RDF>
      <cc:Work
         rdf:about="">
        <dc:format>image/svg+xml</dc:format>
        <dc:type
           rdf:resource="http://purl.org/dc/dcmitype/StillImage" />
      </cc:Work>
    </rdf:RDF>
  </metadata>
  <defs
     id="defs8" />
  <sodipodi:namedview
     pagecolor="#ffffff"
     bordercolor="#666666"
     borderopacity="1"
     objecttolerance="10"
     gridtolerance="10"
     guidetolerance="10"
     inkscape:pageopacity="0"
     inkscape:pageshadow="2"
     inkscape:window-width="1920"
     inkscape:window-height="1011"
     id="namedview6"
     showgrid="true"
     inkscape:zoom="90.509668"
     inkscape:cx="18.463948"
     inkscape:cy="14.172204"
     inkscape:window-x="1920"
     inkscape:window-y="32"
     inkscape:window-maximized="1"
     inkscape:current-layer="svg4"
     inkscape:document-rotation="0">
    <inkscape:grid
       type="xygrid"
       id="grid817" />
  </sodipodi:namedview>
  <path
     id="path4237-1"
     style="font-style:normal;font-variant:normal;font-weight:normal;font-stretch:normal;font-size:15px;line-height:125%;font-family:Ubuntu;-inkscape-font-specification:Ubuntu;text-align:center;letter-spacing:0px;word-spacing:0px;writing-mode:lr-tb;text-anchor:middle;display:inline;opacity:0.7;fill:#000000;fill-opacity:1;stroke:none;stroke-width:0.999802"
     d="M 5.9941406,5 C 4.7360506,5.01508 3.81527,4.9715888 3.0625,5.3867188 2.68614,5.5942788 2.3892894,5.9442135 2.2246094,6.3828125 2.0599004,6.8214235 2,7.3424 2,8 V 9.4667969 16 c 0,0.657609 0.06007,1.178517 0.2246094,1.617188 C 2.3892794,18.055846 2.68613,18.407574 3.0625,18.615234 3.81525,19.0306 4.7359506,18.9855 5.9941406,19 h 0.00391 8.1699221 C 14.016361,18.673874 13.966426,18.314216 14.121094,17.939453 13.732601,14.313947 18,12 21.078125,14.132812 h 0.002 L 22,14.515625 V 9.4882812 8 C 22,7.3424 21.940061,6.8214825 21.775391,6.3828125 21.610731,5.9441525 21.31387,5.5924256 20.9375,5.3847656 20.18475,4.9693996 19.264059,5.0145 18.005859,5 h -0.0039 -12.0058592 z"
     sodipodi:nodetypes="cccscsccccccccccscccccc" />
  <path
     id="path1993"
     style="opacity:1;vector-effect:none;fill:#ffffff;fill-opacity:1;stroke:none;stroke-width:1;stroke-linecap:round;stroke-linejoin:bevel;stroke-miterlimit:4;stroke-dasharray:none;stroke-dashoffset:0;stroke-opacity:1"
     d="M 13.015625 6.0273438 C 11.261186 6.0262437 7.5083132 6.0253094 5.7539062 6.0371094 C 5.0541903 6.0746624 4.2951221 5.9500436 3.6269531 6.2441406 C 3.2218061 6.4256636 3.1020144 6.8850694 3.0527344 7.2871094 C 3.0031444 9.7328082 3.01938 13.200209 3.03125 15.644531 C 3.066922 16.280297 2.9324186 17.009045 3.3535156 17.548828 C 3.7545616 17.97395 4.425589 17.941115 4.9375 17.953125 C 6.636302 17.966635 10.340391 17.973005 12.044922 17.972656 C 12.515326 17.972561 13.353088 17.969653 14.115234 17.96875 C 14.119037 17.958912 14.117028 17.949305 14.121094 17.939453 L 14.582031 16.826172 A 1.0001 1.0001 0 0 0 14.582031 16.824219 C 14.824683 16.238394 15.381342 16.001822 15.96875 15.982422 C 15.986864 15.397402 16.221882 14.846213 16.8125 14.601562 L 17.929688 14.138672 C 18.520262 13.894053 19.07597 14.118821 19.501953 14.519531 C 19.637506 14.392345 19.719953 14.198866 19.888672 14.128906 C 20.222473 13.990489 20.604736 13.976998 20.974609 14.101562 C 20.983403 12.250982 20.981847 10.314068 20.976562 8.7578125 C 20.939181 8.1096755 21.051025 7.4107366 20.832031 6.7753906 C 20.692879 6.2718426 20.13701 6.1071231 19.675781 6.0644531 C 18.12583 6.0139331 14.572206 6.0381437 13.015625 6.0273438 z " />
  <g
     id="g915">
    <circle
       style="fill:#ffffff;fill-rule:evenodd;stroke:none;stroke-width:2;stroke-linecap:round;stroke-linejoin:round"
       id="path909"
       cx="19.5"
       cy="19.5"
       r="1.5" />
    <g
       id="g1425"
       transform="translate(8.0000004,8)">
      <circle
         style="fill:#ffffff;fill-opacity:1;fill-rule:evenodd;stroke:none;stroke-width:2;stroke-linecap:round;stroke-linejoin:round;stroke-miterlimit:4;stroke-dasharray:none;stroke-opacity:1"
         id="path1328"
         cx="11.5"
         cy="11.5"
         r="1.5" />
      <path
         d="m 9.3111344,7.791575 c -0.13058,0.05409 -0.188804,0.19465 -0.134715,0.325232 l 0.272166,0.657066 c -0.260199,0.195351 -0.471578,0.424352 -0.66202,0.678364 L 8.1128724,9.173184 c -0.130581,-0.05409 -0.274445,0.0055 -0.328533,0.136083 l -0.461881,1.115078 c -0.05409,0.130582 0.0055,0.274445 0.136083,0.328534 l 0.673693,0.279053 c -0.04495,0.314275 -0.05741,0.62567 -0.01156,0.947793 l -0.657066,0.272166 c -0.130581,0.05409 -0.188804,0.19465 -0.134715,0.325232 l 0.462682,1.117013 c 0.05409,0.130581 0.19465,0.188803 0.325231,0.134715 l 0.657067,-0.272166 c 0.195351,0.260198 0.424352,0.471578 0.678363,0.66202 l -0.279053,0.673693 c -0.05409,0.130583 0.0055,0.274445 0.136083,0.328533 l 1.1150786,0.461881 c 0.130582,0.05409 0.274445,-0.0055 0.328533,-0.136083 l 0.279053,-0.673693 c 0.314276,0.04495 0.625672,0.05741 0.947794,0.01156 l 0.272166,0.657067 c 0.05409,0.130582 0.19465,0.188803 0.325231,0.134715 l 1.117013,-0.462682 c 0.130582,-0.05409 0.188804,-0.19465 0.134716,-0.325231 l -0.272166,-0.657067 c 0.260198,-0.19535 0.471577,-0.424351 0.662019,-0.678363 l 0.673694,0.279053 c 0.130583,0.05409 0.274445,-0.0055 0.328533,-0.136083 l 0.461881,-1.115079 c 0.05409,-0.130583 -0.0055,-0.274445 -0.136083,-0.328533 L 14.873035,11.97334 c 0.04495,-0.314276 0.05741,-0.625672 0.01156,-0.947794 l 0.657066,-0.272166 c 0.130582,-0.05409 0.188804,-0.194649 0.134716,-0.325231 L 15.213692,9.311132 C 15.159602,9.18055 15.019042,9.122328 14.88846,9.176417 L 14.231394,9.448582 C 14.036043,9.188383 13.807042,8.977005 13.553031,8.786563 l 0.279053,-0.673694 c 0.05409,-0.130582 -0.0055,-0.274445 -0.136083,-0.328533 L 12.580922,7.322455 c -0.130583,-0.05409 -0.274445,0.0055 -0.328534,0.136083 L 11.973335,8.132232 C 11.65906,8.087282 11.347664,8.074822 11.025542,8.120672 L 10.753376,7.463606 C 10.699286,7.333024 10.558726,7.274802 10.428144,7.32889 Z m 1.7560366,2.659752 c 0.580321,-0.240377 1.246395,0.03552 1.486772,0.615841 0.240377,0.580322 -0.03552,1.246395 -0.615841,1.486772 -0.580321,0.240377 -1.246395,-0.03552 -1.486772,-0.615841 -0.240377,-0.580321 0.03552,-1.246395 0.615841,-1.486772 z"
         display="block"
         fill="url(#d)"
         stroke="url(#e)"
         stroke-linejoin="round"
         stroke-width="0.6"
         id="path42"
         style="fill:#d3d3d3;fill-opacity:1;stroke:#4d4d4d;stroke-opacity:1" />
    </g>
  </g>
</svg>
