<?xml version="1.0" encoding="UTF-8" standalone="no"?>
<svg
   xmlns:dc="http://purl.org/dc/elements/1.1/"
   xmlns:cc="http://creativecommons.org/ns#"
   xmlns:rdf="http://www.w3.org/1999/02/22-rdf-syntax-ns#"
   xmlns:svg="http://www.w3.org/2000/svg"
   xmlns="http://www.w3.org/2000/svg"
   xmlns:sodipodi="http://sodipodi.sourceforge.net/DTD/sodipodi-0.dtd"
   xmlns:inkscape="http://www.inkscape.org/namespaces/inkscape"
   height="24"
   width="24"
   version="1.1"
   id="svg4"
   sodipodi:docname="lc_paste.svg"
   inkscape:export-filename="/home/jupiter007/Téléchargements/libreoffice yaru/images_breeze/cmd/lc_paste.png"
   inkscape:export-xdpi="95"
   inkscape:export-ydpi="95"
   inkscape:version="0.92.4 (5da689c313, 2019-01-14)">
  <metadata
     id="metadata10">
    <rdf:RDF>
      <cc:Work
         rdf:about="">
        <dc:format>image/svg+xml</dc:format>
        <dc:type
           rdf:resource="http://purl.org/dc/dcmitype/StillImage" />
        <dc:title></dc:title>
      </cc:Work>
    </rdf:RDF>
  </metadata>
  <defs
     id="defs8" />
  <sodipodi:namedview
     pagecolor="#ffffff"
     bordercolor="#666666"
     borderopacity="1"
     objecttolerance="10"
     gridtolerance="10"
     guidetolerance="10"
     inkscape:pageopacity="0"
     inkscape:pageshadow="2"
     inkscape:window-width="1920"
     inkscape:window-height="1011"
     id="namedview6"
     showgrid="true"
     inkscape:snap-page="true"
     fit-margin-top="3"
     fit-margin-right="3"
     fit-margin-bottom="3"
     fit-margin-left="3"
     inkscape:zoom="20.85965"
     inkscape:cx="5.1302126"
     inkscape:cy="17.427014"
     inkscape:window-x="0"
     inkscape:window-y="32"
     inkscape:window-maximized="1"
     inkscape:current-layer="svg4">
    <inkscape:grid
       type="xygrid"
       id="grid817"
       originx="3"
       originy="3" />
  </sodipodi:namedview>
  <path
     d="M 12,3 C 10.901,3 10,3.902 10,5 H 8 V 5.025 C 7.25,5.044 6.59,5.096 6.062,5.387 5.6721135,5.60812 5.3741698,5.961396 5.222,6.383 5.058,6.821 5,7.343 5,8 v 9 c 0,0.658 0.058,1.179 0.223,1.617 0.164,0.439 0.463,0.79 0.84,0.998 0.527,0.291 2.182,0.342 2.937,0.36 V 21 H 20 V 9 H 19 C 19,8.342 18.94,6.821 18.775,6.383 18.623815,5.9617444 18.326931,5.6084632 17.938,5.387 17.411,5.096 16.749,5.044 16,5.025 V 5 H 14 C 14,3.902 13.099,3 12,3 Z m 0,1 c 0.558,0 1,0.442 1,1 0.0056,0.5546004 -0.4454,1.0056309 -1,1 C 11.59653,6.005404 11.23082,5.7634483 11.078,5.39 11.026331,5.2664783 10.999814,5.1338928 11,5 11,4.442 11.442,4 12,4 Z M 8,6.04 V 7 h 8 V 6.04 c 0.666,0.031 1.204,0.084 1.453,0.222 0.184,0.1 0.29,0.212 0.387,0.472 C 17.937,6.994 18,8.408 18,9 H 9 v 9.96 C 8.328,18.93 6.796,18.876 6.547,18.738 6.363,18.638 6.257,18.526 6.16,18.266 6.063,18.006 6,17.592 6,17 V 8 C 6,7.408 6.063,6.994 6.16,6.734 6.258,6.474 6.362,6.363 6.545,6.262 6.794,6.124 7.333,6.071 8,6.039 Z M 10,10 h 9 v 10 h -9 z m 0.988,2 v 1 H 18 v -1 z m 0,2 v 1 H 18 v -1 z m -0.008,2 v 1 h 3 v -1 z"
     font-weight="400"
     overflow="visible"
     style="color:#000000;font-weight:400;line-height:normal;font-family:sans-serif;text-indent:0;text-align:start;text-decoration:none;text-decoration-line:none;text-decoration-style:solid;text-decoration-color:#000000;text-transform:none;white-space:normal;overflow:visible;isolation:auto;mix-blend-mode:normal;fill:#232629;fill-opacity:1;marker:none"
     id="path2"
     inkscape:connector-curvature="0"
     sodipodi:nodetypes="scccccssccccccccccccssccccscccccsccccssscccccccccccccccccccccccc"
     inkscape:export-filename="/home/jupiter007/Téléchargements/libreoffice yaru/images_breeze/cmd/path2.png"
     inkscape:export-xdpi="95"
     inkscape:export-ydpi="95" />
</svg>
