<?xml version="1.0" encoding="UTF-8" standalone="no"?>
<svg
   xmlns:dc="http://purl.org/dc/elements/1.1/"
   xmlns:cc="http://creativecommons.org/ns#"
   xmlns:rdf="http://www.w3.org/1999/02/22-rdf-syntax-ns#"
   xmlns:svg="http://www.w3.org/2000/svg"
   xmlns="http://www.w3.org/2000/svg"
   xmlns:sodipodi="http://sodipodi.sourceforge.net/DTD/sodipodi-0.dtd"
   xmlns:inkscape="http://www.inkscape.org/namespaces/inkscape"
   height="24"
   width="24"
   version="1.1"
   id="svg4"
   sodipodi:docname="lc_printersetup.svg"
   inkscape:version="1.0.1 (3bc2e813f5, 2020-09-07)"
   inkscape:export-filename="/home/jupiter007/Libreoffice yaru theme fullcolor/build/cmd/lc_printersetup.png"
   inkscape:export-xdpi="95"
   inkscape:export-ydpi="95">
  <metadata
     id="metadata10">
    <rdf:RDF>
      <cc:Work
         rdf:about="">
        <dc:format>image/svg+xml</dc:format>
        <dc:type
           rdf:resource="http://purl.org/dc/dcmitype/StillImage" />
        <dc:title />
      </cc:Work>
    </rdf:RDF>
  </metadata>
  <defs
     id="defs8" />
  <sodipodi:namedview
     pagecolor="#ffffff"
     bordercolor="#666666"
     borderopacity="1"
     objecttolerance="10"
     gridtolerance="10"
     guidetolerance="10"
     inkscape:pageopacity="0"
     inkscape:pageshadow="2"
     inkscape:window-width="1920"
     inkscape:window-height="1011"
     id="namedview6"
     showgrid="true"
     inkscape:snap-page="true"
     inkscape:snap-global="true"
     inkscape:snap-grids="true"
     inkscape:snap-to-guides="true"
     inkscape:zoom="32"
     inkscape:cx="16.467831"
     inkscape:cy="14.852149"
     inkscape:window-x="1920"
     inkscape:window-y="32"
     inkscape:window-maximized="1"
     inkscape:current-layer="layer2"
     inkscape:snap-bbox="true"
     inkscape:snap-intersection-paths="true"
     inkscape:document-rotation="0">
    <inkscape:grid
       type="xygrid"
       id="grid819" />
  </sodipodi:namedview>
  <g
     inkscape:groupmode="layer"
     id="layer2"
     inkscape:label="icon"
     style="display:inline"
     transform="translate(0,6)">
    <path
       id="path2013-2-4"
       style="color:#000000;font-weight:400;line-height:normal;font-family:sans-serif;font-variant-ligatures:normal;font-variant-position:normal;font-variant-caps:normal;font-variant-numeric:normal;font-variant-alternates:normal;font-feature-settings:normal;text-indent:0;text-align:start;text-decoration:none;text-decoration-line:none;text-decoration-style:solid;text-decoration-color:#000000;text-transform:none;text-orientation:mixed;white-space:normal;shape-padding:0;overflow:visible;opacity:0.7;isolation:auto;mix-blend-mode:normal;fill:#000000;fill-opacity:1;marker:none"
       d="M 7.65625 3 C 6.738687 3 6 3.892 6 5 L 6 8 L 5 8 C 4.662 8.053 4.3445 8.1311094 4.0625 8.2871094 C 3.6855 8.4951094 3.3886094 8.8461572 3.2246094 9.2851562 C 3.0596104 9.7231562 3 10.244344 3 10.902344 L 3 11 L 3 14 L 3 14.097656 C 3 14.755656 3.0596104 15.276844 3.2246094 15.714844 C 3.3886094 16.15384 3.6855 16.504891 4.0625 16.712891 C 4.3445 16.868891 4.662 16.947 5 17 L 6 17 L 6 19 C 5.9998723 20.108 6.738687 21 7.65625 21 L 14.107422 21 C 13.917322 20.44183 14.125285 19.917044 14.505859 19.511719 C 14.103874 19.082931 13.878132 18.522099 14.121094 17.935547 L 14.121094 17.933594 L 14.583984 16.822266 C 14.826363 16.2371 15.382107 15.998648 15.96875 15.978516 C 15.987975 15.393322 16.225284 14.84366 16.814453 14.599609 L 17.929688 14.136719 C 17.953518 14.126848 17.976295 14.129462 18 14.121094 L 18 13 L 6 13 L 6 15.960938 C 5.333001 15.928917 4.7938009 15.875638 4.5449219 15.738281 C 4.3619219 15.637282 4.2581562 15.525625 4.1601562 15.265625 C 4.0631602 15.005625 4 14.592 4 14 L 4 11 C 4 10.408 4.0631603 9.994375 4.1601562 9.734375 C 4.2581562 9.474375 4.3619219 9.3627188 4.5449219 9.2617188 C 4.7938009 9.1243588 5.333001 9.0710795 6 9.0390625 L 6 12 L 18 12 L 18 9.0390625 C 18.66579 9.0711025 19.204393 9.1244417 19.453125 9.2617188 C 19.637125 9.3617188 19.742844 9.474375 19.839844 9.734375 C 19.936844 9.994375 20 10.408 20 11 L 20 14 C 20 14.036631 19.994617 14.058479 19.994141 14.09375 C 20.310362 13.988704 20.659635 13.986119 21 14.107422 C 21.000004 14.10384 21 14.101247 21 14.097656 L 21 14 L 21 11 L 21 10.902344 C 21 10.245344 20.94039 9.7231562 20.775391 9.2851562 C 20.624228 8.8633812 20.326509 8.5094094 19.9375 8.2871094 C 19.6545 8.1311094 19.338 8.053 19 8 L 18 8 L 18 5 C 18 3.892 17.261313 3 16.34375 3 L 7.65625 3 z "
       transform="translate(0,-6)" />
    <path
       id="path4490"
       style="vector-effect:none;fill:#b3b3b3;fill-opacity:1;stroke:none;stroke-width:0.0625;stroke-linecap:round;stroke-linejoin:round;stroke-miterlimit:4;stroke-dasharray:none;stroke-dashoffset:0;stroke-opacity:1"
       d="M 8.2050781 8.9296875 C 7.1814661 8.9465975 6.1523275 8.8982425 5.1328125 9.0078125 C 4.7426515 9.0563225 4.2907055 9.1885659 4.1328125 9.5917969 C 3.8615195 10.128082 3.9592484 10.751415 3.9277344 11.330078 C 3.9338344 12.496445 3.9015419 13.66459 3.9511719 14.830078 C 4.0011719 15.253278 4.1324916 15.763665 4.5722656 15.9375 C 5.0183576 16.145114 5.526495 16.096523 6 16.082031 L 6 14 L 18 14 L 18 14.121094 C 18.564483 13.921812 19.092818 14.131217 19.501953 14.515625 C 19.637396 14.38865 19.72015 14.194878 19.888672 14.125 C 19.942774 14.102566 20.000242 14.090291 20.056641 14.074219 C 20.057123 14.013047 20.058149 13.94847 20.060547 13.888672 C 20.053947 12.654951 20.085589 11.418456 20.037109 10.185547 C 19.988099 9.7595419 19.80355 9.2697512 19.355469 9.1289062 C 18.624657 8.8742172 17.83645 8.9796695 17.078125 8.9453125 C 14.787236 8.9344625 10.495991 8.9301975 8.2050781 8.9296875 z "
       transform="translate(0,-6)" />
    <path
       id="rect2016"
       style="vector-effect:none;fill:#666666;fill-opacity:1;stroke:none;stroke-width:4;stroke-linecap:butt;stroke-linejoin:round;stroke-miterlimit:4;stroke-dasharray:none;stroke-dashoffset:0;stroke-opacity:1"
       d="M 6 13 L 6 17 L 14.509766 17 L 14.583984 16.822266 C 14.826363 16.2371 15.382107 15.998648 15.96875 15.978516 C 15.987975 15.393322 16.225284 14.84366 16.814453 14.599609 L 17.929688 14.136719 C 17.953518 14.126848 17.976295 14.129462 18 14.121094 L 18 13 L 6 13 z "
       transform="translate(0,-6)" />
    <path
       id="rect4622"
       style="vector-effect:none;fill:#ffffff;fill-opacity:1;stroke:none;stroke-width:4;stroke-linecap:butt;stroke-linejoin:round;stroke-miterlimit:4;stroke-dasharray:none;stroke-dashoffset:0;stroke-opacity:1"
       d="M 7 14 L 7 19 C 7 20 8 20 8 20 L 14.179688 20 C 14.263672 19.826073 14.36793 19.658619 14.505859 19.511719 C 14.103874 19.082931 13.878132 18.522099 14.121094 17.935547 L 14.121094 17.933594 L 14.583984 16.822266 C 14.826363 16.2371 15.382107 15.998648 15.96875 15.978516 C 15.987975 15.393322 16.225284 14.84366 16.814453 14.599609 L 17 14.523438 L 17 14 L 7 14 z "
       transform="translate(0,-6)" />
    <path
       id="path2005"
       style="color:#000000;font-weight:400;line-height:normal;font-family:sans-serif;font-variant-ligatures:normal;font-variant-position:normal;font-variant-caps:normal;font-variant-numeric:normal;font-variant-alternates:normal;font-feature-settings:normal;text-indent:0;text-align:start;text-decoration:none;text-decoration-line:none;text-decoration-style:solid;text-decoration-color:#000000;text-transform:none;text-orientation:mixed;white-space:normal;shape-padding:0;overflow:visible;isolation:auto;mix-blend-mode:normal;fill:#a7a7f1;fill-opacity:1;marker:none"
       d="M 8 16 L 8 17 L 14.509766 17 L 14.583984 16.822266 C 14.804055 16.290957 15.285235 16.055755 15.810547 16 L 8 16 z "
       transform="translate(0,-6)" />
    <path
       id="path4024"
       style="color:#000000;font-weight:400;line-height:normal;font-family:sans-serif;font-variant-ligatures:normal;font-variant-position:normal;font-variant-caps:normal;font-variant-numeric:normal;font-variant-alternates:normal;font-feature-settings:normal;text-indent:0;text-align:start;text-decoration:none;text-decoration-line:none;text-decoration-style:solid;text-decoration-color:#000000;text-transform:none;text-orientation:mixed;white-space:normal;shape-padding:0;overflow:visible;isolation:auto;mix-blend-mode:normal;fill:#a7a7f1;fill-opacity:1;marker:none"
       d="M 8 18 L 8 19 L 14.167969 19 C 14.024515 18.692217 13.979659 18.35279 14.105469 18 L 8 18 z "
       transform="translate(0,-6)" />
    <path
       sodipodi:nodetypes="ccccccc"
       inkscape:connector-curvature="0"
       id="rect4622-3"
       d="m 7.0002305,2 h 9.9995385 v -3 c -0.03156,-0.981081 -1,-1 -1,-1 H 8.0002305 c 0,0 -1,0 -1,1 z"
       style="vector-effect:none;fill:#ffffff;fill-opacity:1;stroke:none;stroke-width:4;stroke-linecap:butt;stroke-linejoin:round;stroke-miterlimit:4;stroke-dasharray:none;stroke-dashoffset:0;stroke-opacity:1" />
    <path
       id="rect2525"
       style="vector-effect:none;fill:#666666;fill-opacity:1;stroke:none;stroke-width:2;stroke-linecap:round;stroke-linejoin:round;stroke-miterlimit:4;stroke-dasharray:none;stroke-dashoffset:0;stroke-opacity:1"
       d="M 5.0002306,2 H 18.999769 V 3 H 5.0002306 Z" />
    <g
       id="g1425"
       transform="translate(8.0000004,2)">
      <circle
         style="fill:#ffffff;fill-opacity:1;fill-rule:evenodd;stroke:none;stroke-width:2;stroke-linecap:round;stroke-linejoin:round;stroke-miterlimit:4;stroke-dasharray:none;stroke-opacity:1"
         id="path1328"
         cx="11.5"
         cy="11.5"
         r="1.5" />
      <path
         d="m 9.3111344,7.791575 c -0.13058,0.05409 -0.188804,0.19465 -0.134715,0.325232 l 0.272166,0.657066 c -0.260199,0.195351 -0.471578,0.424352 -0.66202,0.678364 L 8.1128724,9.173184 c -0.130581,-0.05409 -0.274445,0.0055 -0.328533,0.136083 l -0.461881,1.115078 c -0.05409,0.130582 0.0055,0.274445 0.136083,0.328534 l 0.673693,0.279053 c -0.04495,0.314275 -0.05741,0.62567 -0.01156,0.947793 l -0.657066,0.272166 c -0.130581,0.05409 -0.188804,0.19465 -0.134715,0.325232 l 0.462682,1.117013 c 0.05409,0.130581 0.19465,0.188803 0.325231,0.134715 l 0.657067,-0.272166 c 0.195351,0.260198 0.424352,0.471578 0.678363,0.66202 l -0.279053,0.673693 c -0.05409,0.130583 0.0055,0.274445 0.136083,0.328533 l 1.1150786,0.461881 c 0.130582,0.05409 0.274445,-0.0055 0.328533,-0.136083 l 0.279053,-0.673693 c 0.314276,0.04495 0.625672,0.05741 0.947794,0.01156 l 0.272166,0.657067 c 0.05409,0.130582 0.19465,0.188803 0.325231,0.134715 l 1.117013,-0.462682 c 0.130582,-0.05409 0.188804,-0.19465 0.134716,-0.325231 l -0.272166,-0.657067 c 0.260198,-0.19535 0.471577,-0.424351 0.662019,-0.678363 l 0.673694,0.279053 c 0.130583,0.05409 0.274445,-0.0055 0.328533,-0.136083 l 0.461881,-1.115079 c 0.05409,-0.130583 -0.0055,-0.274445 -0.136083,-0.328533 L 14.873035,11.97334 c 0.04495,-0.314276 0.05741,-0.625672 0.01156,-0.947794 l 0.657066,-0.272166 c 0.130582,-0.05409 0.188804,-0.194649 0.134716,-0.325231 L 15.213692,9.311132 C 15.159602,9.18055 15.019042,9.122328 14.88846,9.176417 L 14.231394,9.448582 C 14.036043,9.188383 13.807042,8.977005 13.553031,8.786563 l 0.279053,-0.673694 c 0.05409,-0.130582 -0.0055,-0.274445 -0.136083,-0.328533 L 12.580922,7.322455 c -0.130583,-0.05409 -0.274445,0.0055 -0.328534,0.136083 L 11.973335,8.132232 C 11.65906,8.087282 11.347664,8.074822 11.025542,8.120672 L 10.753376,7.463606 C 10.699286,7.333024 10.558726,7.274802 10.428144,7.32889 Z m 1.7560366,2.659752 c 0.580321,-0.240377 1.246395,0.03552 1.486772,0.615841 0.240377,0.580322 -0.03552,1.246395 -0.615841,1.486772 -0.580321,0.240377 -1.246395,-0.03552 -1.486772,-0.615841 -0.240377,-0.580321 0.03552,-1.246395 0.615841,-1.486772 z"
         display="block"
         fill="url(#d)"
         stroke="url(#e)"
         stroke-linejoin="round"
         stroke-width="0.6"
         id="path42"
         style="fill:#d3d3d3;fill-opacity:1;stroke:#4d4d4d;stroke-opacity:1" />
    </g>
  </g>
</svg>
