<?xml version="1.0" encoding="UTF-8" standalone="no"?>
<svg
   xmlns:dc="http://purl.org/dc/elements/1.1/"
   xmlns:cc="http://creativecommons.org/ns#"
   xmlns:rdf="http://www.w3.org/1999/02/22-rdf-syntax-ns#"
   xmlns:svg="http://www.w3.org/2000/svg"
   xmlns="http://www.w3.org/2000/svg"
   xmlns:sodipodi="http://sodipodi.sourceforge.net/DTD/sodipodi-0.dtd"
   xmlns:inkscape="http://www.inkscape.org/namespaces/inkscape"
   viewBox="0 0 24 24"
   version="1.1"
   id="svg4"
   sodipodi:docname="lc_renamemasterpage.svg"
   inkscape:version="0.92.4 (5da689c313, 2019-01-14)">
  <metadata
     id="metadata10">
    <rdf:RDF>
      <cc:Work
         rdf:about="">
        <dc:format>image/svg+xml</dc:format>
        <dc:type
           rdf:resource="http://purl.org/dc/dcmitype/StillImage" />
      </cc:Work>
    </rdf:RDF>
  </metadata>
  <defs
     id="defs8" />
  <sodipodi:namedview
     pagecolor="#ffffff"
     bordercolor="#666666"
     borderopacity="1"
     objecttolerance="10"
     gridtolerance="10"
     guidetolerance="10"
     inkscape:pageopacity="0"
     inkscape:pageshadow="2"
     inkscape:window-width="1920"
     inkscape:window-height="1011"
     id="namedview6"
     showgrid="true"
     inkscape:zoom="19.666667"
     inkscape:cx="26.958502"
     inkscape:cy="8.7962652"
     inkscape:window-x="0"
     inkscape:window-y="32"
     inkscape:window-maximized="1"
     inkscape:current-layer="svg4">
    <inkscape:grid
       type="xygrid"
       id="grid827" />
  </sodipodi:namedview>
  <path
     id="path2732-8-9-9"
     style="color:#000000;font-style:normal;font-variant:normal;font-weight:normal;font-stretch:normal;font-size:medium;line-height:normal;font-family:sans-serif;font-variant-ligatures:normal;font-variant-position:normal;font-variant-caps:normal;font-variant-numeric:normal;font-variant-alternates:normal;font-feature-settings:normal;text-indent:0;text-align:start;text-decoration:none;text-decoration-line:none;text-decoration-style:solid;text-decoration-color:#000000;letter-spacing:normal;word-spacing:normal;text-transform:none;writing-mode:lr-tb;direction:ltr;text-orientation:mixed;dominant-baseline:auto;baseline-shift:baseline;text-anchor:start;white-space:normal;shape-padding:0;clip-rule:nonzero;display:inline;overflow:visible;visibility:visible;opacity:1;isolation:auto;mix-blend-mode:normal;color-interpolation:sRGB;color-interpolation-filters:linearRGB;solid-color:#000000;solid-opacity:1;vector-effect:none;fill:#762572;fill-opacity:1;fill-rule:nonzero;stroke:none;stroke-width:1.00007653;stroke-linecap:butt;stroke-linejoin:miter;stroke-miterlimit:4;stroke-dasharray:none;stroke-dashoffset:0;stroke-opacity:1;marker:none;color-rendering:auto;image-rendering:auto;shape-rendering:auto;text-rendering:auto;enable-background:accumulate"
     d="m 20,11.00002 v -1.9899914 -0.006 c -0.0152,-1.25882 -0.0599,-2.08942 -0.26172,-2.45545 -0.10116,-0.18345 -0.21286,-0.28727 -0.47266,-0.38482 -0.25979,-0.0976 -0.67323,-0.16 -1.26562,-0.16019 l -11.9999998,-0.004 c -0.59239,-1.89e-4 -1.00572,0.0626 -1.26562,0.16019 -0.25991,0.0976 -0.37147,0.20334 -0.47266,0.38678 -0.20191,0.366 -0.24702,1.19478 -0.26172,2.45349 v 7.5e-4 4.9992514 h 4 v 4 L 15,17.999863 V 19 l -7.9999998,10e-6 -4,-4 v -6.0015714 -0.0037 c 0.0145,-1.25839 -0.0306,-2.17922 0.38477,-2.93209 0.20766,-0.376428 0.55938,-0.673328 0.99804,-0.838018 0.43867,-0.16469 0.95958,-0.224851 1.61719,-0.224641 L 18,5.0037896 c 0.65761,2.1e-4 1.17858,0.0599 1.61719,0.22464 0.43861,0.16471 0.78852,0.46161 0.99609,0.83802 0.41514,0.752839 0.37165,1.6738 0.38672,2.932089 v 0.002 1.9994414 z M 16,12 v 1 h 2 v 6 h -2 v 1 h 5 v -1 h -2 v -6 h 2 v -1 z" />
</svg>
