<?xml version="1.0" encoding="UTF-8" standalone="no"?>
<svg
   xmlns:dc="http://purl.org/dc/elements/1.1/"
   xmlns:cc="http://creativecommons.org/ns#"
   xmlns:rdf="http://www.w3.org/1999/02/22-rdf-syntax-ns#"
   xmlns:svg="http://www.w3.org/2000/svg"
   xmlns="http://www.w3.org/2000/svg"
   xmlns:sodipodi="http://sodipodi.sourceforge.net/DTD/sodipodi-0.dtd"
   xmlns:inkscape="http://www.inkscape.org/namespaces/inkscape"
   viewBox="0 0 24 24"
   version="1.1"
   id="svg6"
   sodipodi:docname="lc_removehyperlink.svg"
   inkscape:version="0.92.4 (5da689c313, 2019-01-14)">
  <metadata
     id="metadata12">
    <rdf:RDF>
      <cc:Work
         rdf:about="">
        <dc:format>image/svg+xml</dc:format>
        <dc:type
           rdf:resource="http://purl.org/dc/dcmitype/StillImage" />
      </cc:Work>
    </rdf:RDF>
  </metadata>
  <defs
     id="defs10" />
  <sodipodi:namedview
     pagecolor="#ffffff"
     bordercolor="#666666"
     borderopacity="1"
     objecttolerance="10"
     gridtolerance="10"
     guidetolerance="10"
     inkscape:pageopacity="0"
     inkscape:pageshadow="2"
     inkscape:window-width="1920"
     inkscape:window-height="1011"
     id="namedview8"
     showgrid="true"
     inkscape:zoom="55.625733"
     inkscape:cx="16.439352"
     inkscape:cy="14.062614"
     inkscape:window-x="0"
     inkscape:window-y="32"
     inkscape:window-maximized="1"
     inkscape:current-layer="svg6">
    <inkscape:grid
       type="xygrid"
       id="grid828" />
  </sodipodi:namedview>
  <path
     d="m14.990234 14-.990234.990234 2.009766 2.009766-2.009766 2.009766.990234.990234 2.009766-2.009766 2.009766 2.009766.990234-.990234-2.009766-2.009766 2.009766-2.009766-.990234-.990234-2.009766 2.009766z"
     fill="#c7162b"
     id="path4" />
  <path
     inkscape:connector-curvature="0"
     id="path4-9"
     overflow="visible"
     font-weight="400"
     style="color:#000000;font-weight:400;line-height:normal;font-family:sans-serif;font-variant-ligatures:normal;font-variant-position:normal;font-variant-caps:normal;font-variant-numeric:normal;font-variant-alternates:normal;font-feature-settings:normal;text-indent:0;text-align:start;text-decoration:none;text-decoration-line:none;text-decoration-style:solid;text-decoration-color:#000000;text-transform:none;text-orientation:mixed;white-space:normal;shape-padding:0;overflow:visible;isolation:auto;mix-blend-mode:normal;fill:#232629;fill-opacity:1;marker:none"
     d="m 6.8279997,6 c -0.838,0.01 -1.467,-0.035 -2.033,0.277 a 1.44,1.44 0 0 0 -0.635,0.752 c -0.12,0.323 -0.16,0.688 -0.16,1.137 v 0.6680004 c 0,0.45 0.04,0.814 0.16,1.137 0.121,0.3219996 0.352,0.5959996 0.635,0.7519996 0.566,0.312 1.195,0.267 2.033,0.277 h 1.3439999 c 0.838,-0.01 1.467,0.035 2.0330004,-0.277 0.274,-0.151 0.493,-0.415 0.617,-0.723 H 6.8339997 c -0.838,-0.01 -1.377,-0.053 -1.557,-0.1519996 -0.09,-0.05 -0.127,-0.086 -0.181,-0.229 -0.054,-0.143 -0.096,-0.401 -0.096,-0.785 V 8.166 c 0,-0.384 0.042,-0.642 0.096,-0.785 0.054,-0.143 0.091,-0.179 0.181,-0.229 0.18,-0.099 0.72,-0.142 1.557,-0.152 H 10.822 A 1.434,1.434 0 0 0 10.205,6.277 C 9.6399996,5.965 9.0099996,6.01 8.1719996,6 H 6.8319997 Z M 15.828,6 C 14.99,6.01 14.361,5.965 13.795,6.277 13.521,6.428 13.302,6.692 13.178,7 h 3.988 c 0.838,0.01 1.377,0.053 1.557,0.152 0.09,0.05 0.127,0.086 0.181,0.229 C 18.958,7.524 19,7.782 19,8.166 v 0.6680004 c 0,0.384 -0.042,0.642 -0.096,0.785 -0.054,0.143 -0.091,0.179 -0.181,0.229 -0.18,0.099 -0.719,0.142 -1.557,0.1519996 h -3.988 c 0.124,0.308 0.343,0.572 0.617,0.723 0.566,0.312 1.195,0.267 2.033,0.277 h 1.344 c 0.838,-0.01 1.467,0.035 2.033,-0.277 A 1.44,1.44 0 0 0 19.84,9.9710004 c 0.12,-0.323 0.16,-0.688 0.16,-1.137 V 8.166 C 20,7.716 19.961,7.352 19.84,7.029 A 1.44,1.44 0 0 0 19.205,6.277 C 18.64,5.965 18.01,6.01 17.172,6 h -1.34 z M 7.9999996,8 V 9.0000004 H 16 V 8 Z" />
</svg>
