<?xml version="1.0" encoding="UTF-8" standalone="no"?>
<svg
   xmlns:dc="http://purl.org/dc/elements/1.1/"
   xmlns:cc="http://creativecommons.org/ns#"
   xmlns:rdf="http://www.w3.org/1999/02/22-rdf-syntax-ns#"
   xmlns:svg="http://www.w3.org/2000/svg"
   xmlns="http://www.w3.org/2000/svg"
   xmlns:sodipodi="http://sodipodi.sourceforge.net/DTD/sodipodi-0.dtd"
   xmlns:inkscape="http://www.inkscape.org/namespaces/inkscape"
   viewBox="0 0 24 24"
   version="1.1"
   id="svg6"
   sodipodi:docname="lc_renamepage.svg"
   inkscape:version="0.92.4 (5da689c313, 2019-01-14)">
  <metadata
     id="metadata12">
    <rdf:RDF>
      <cc:Work
         rdf:about="">
        <dc:format>image/svg+xml</dc:format>
        <dc:type
           rdf:resource="http://purl.org/dc/dcmitype/StillImage" />
      </cc:Work>
    </rdf:RDF>
  </metadata>
  <defs
     id="defs10" />
  <sodipodi:namedview
     pagecolor="#ffffff"
     bordercolor="#666666"
     borderopacity="1"
     objecttolerance="10"
     gridtolerance="10"
     guidetolerance="10"
     inkscape:pageopacity="0"
     inkscape:pageshadow="2"
     inkscape:window-width="1920"
     inkscape:window-height="1011"
     id="namedview8"
     showgrid="true"
     inkscape:zoom="55.625733"
     inkscape:cx="11.682742"
     inkscape:cy="10.179349"
     inkscape:window-x="0"
     inkscape:window-y="32"
     inkscape:window-maximized="1"
     inkscape:current-layer="svg6">
    <inkscape:grid
       type="xygrid"
       id="grid828" />
  </sodipodi:namedview>
  <path
     d="m15 12v1h2v6h-2v1h5v-1h-2v-6h2v-1z"
     fill="#762572"
     id="path4" />
  <path
     d="m 14,20 h -4.9899712 -0.006 c -1.25882,-0.0152 -2.08942,-0.0599 -2.455451,-0.26172 -0.18345,-0.10116 -0.28727,-0.21286 -0.38482,-0.47266 -0.0976,-0.25979 -0.16,-0.67323 -0.16019,-1.26562 l -0.004,-11.9999999 c -1.89e-4,-0.59239 0.0626,-1.00572 0.16019,-1.26562 0.0976,-0.25991 0.20334,-0.37147 0.38678,-0.47266 0.366001,-0.20191 1.194781,-0.24702 2.453491,-0.26172 h 7.5e-4 4.9992512 v 3.9999998 h 4 L 17.999863,11 H 19 l 10e-6,-4.0000001 -4,-3.9999998 h -6.0015712 -0.0037 c -1.25839,0.0145 -2.179221,-0.0306 -2.932091,0.38477 -0.376427,0.20766 -0.673327,0.55938 -0.838017,0.99804 -0.16469,0.43867 -0.224851,0.95958 -0.224641,1.61719 L 5.0037898,18 c 2.1e-4,0.65761 0.0599,1.17858 0.22464,1.61719 0.16471,0.43861 0.46161,0.78852 0.838019,0.99609 0.752839,0.41514 1.673801,0.37165 2.93209,0.38672 h 0.002 4.9994212 z"
     id="path2732-8-9-9"
     style="color:#000000;font-style:normal;font-variant:normal;font-weight:normal;font-stretch:normal;font-size:medium;line-height:normal;font-family:sans-serif;font-variant-ligatures:normal;font-variant-position:normal;font-variant-caps:normal;font-variant-numeric:normal;font-variant-alternates:normal;font-feature-settings:normal;text-indent:0;text-align:start;text-decoration:none;text-decoration-line:none;text-decoration-style:solid;text-decoration-color:#000000;letter-spacing:normal;word-spacing:normal;text-transform:none;writing-mode:lr-tb;direction:ltr;text-orientation:mixed;dominant-baseline:auto;baseline-shift:baseline;text-anchor:start;white-space:normal;shape-padding:0;clip-rule:nonzero;display:inline;overflow:visible;visibility:visible;opacity:1;isolation:auto;mix-blend-mode:normal;color-interpolation:sRGB;color-interpolation-filters:linearRGB;solid-color:#000000;solid-opacity:1;vector-effect:none;fill:#232629;fill-opacity:1;fill-rule:nonzero;stroke:none;stroke-width:1.00007653;stroke-linecap:butt;stroke-linejoin:miter;stroke-miterlimit:4;stroke-dasharray:none;stroke-dashoffset:0;stroke-opacity:1;marker:none;color-rendering:auto;image-rendering:auto;shape-rendering:auto;text-rendering:auto;enable-background:accumulate"
     inkscape:connector-curvature="0"
     sodipodi:nodetypes="cccccsscccccccccccccccsscscccc" />
</svg>
