<?xml version="1.0" encoding="UTF-8" standalone="no"?>
<svg
   xmlns:osb="http://www.openswatchbook.org/uri/2009/osb"
   xmlns:dc="http://purl.org/dc/elements/1.1/"
   xmlns:cc="http://creativecommons.org/ns#"
   xmlns:rdf="http://www.w3.org/1999/02/22-rdf-syntax-ns#"
   xmlns:svg="http://www.w3.org/2000/svg"
   xmlns="http://www.w3.org/2000/svg"
   xmlns:sodipodi="http://sodipodi.sourceforge.net/DTD/sodipodi-0.dtd"
   xmlns:inkscape="http://www.inkscape.org/namespaces/inkscape"
   height="24"
   id="svg7384"
   version="1.1"
   width="24"
   sodipodi:docname="lc_redactedexportblack.svg"
   inkscape:version="1.1-dev (83f2ee46ff, 2020-02-13)"
   inkscape:export-filename="/home/jupiter007/Libreoffice yaru theme/build/cmd/lc_redactedexportblack.png"
   inkscape:export-xdpi="95"
   inkscape:export-ydpi="95">
  <sodipodi:namedview
     pagecolor="#ffffff"
     bordercolor="#666666"
     borderopacity="1"
     objecttolerance="10"
     gridtolerance="10"
     guidetolerance="10"
     inkscape:pageopacity="0"
     inkscape:pageshadow="2"
     inkscape:window-width="1920"
     inkscape:window-height="1011"
     id="namedview22"
     showgrid="true"
     inkscape:snap-page="true"
     inkscape:snap-grids="true"
     inkscape:zoom="32"
     inkscape:cx="12.393354"
     inkscape:cy="9.5650192"
     inkscape:window-x="0"
     inkscape:window-y="32"
     inkscape:window-maximized="1"
     inkscape:current-layer="svg7384">
    <inkscape:grid
       type="xygrid"
       id="grid831" />
  </sodipodi:namedview>
  <metadata
     id="metadata20854">
    <rdf:RDF>
      <cc:Work
         rdf:about="">
        <dc:title />
        <dc:format>image/svg+xml</dc:format>
        <dc:type
           rdf:resource="http://purl.org/dc/dcmitype/StillImage" />
      </cc:Work>
    </rdf:RDF>
  </metadata>
  <defs
     id="defs7386">
    <linearGradient
       id="linearGradient5606"
       osb:paint="solid">
      <stop
         id="stop5608"
         offset="0"
         style="stop-color:#000000;stop-opacity:1;" />
    </linearGradient>
    <linearGradient
       id="linearGradient4526"
       osb:paint="solid">
      <stop
         id="stop4528"
         offset="0"
         style="stop-color:#ffffff;stop-opacity:1;" />
    </linearGradient>
    <linearGradient
       id="linearGradient3600-4"
       osb:paint="gradient">
      <stop
         id="stop3602-7"
         offset="0"
         style="stop-color:#f4f4f4;stop-opacity:1" />
      <stop
         id="stop3604-6"
         offset="1"
         style="stop-color:#dbdbdb;stop-opacity:1" />
    </linearGradient>
  </defs>
  <g
     id="layer9"
     label="status"
     style="display:inline"
     transform="translate(-753.00024,135)" />
  <g
     id="layer2"
     style="display:inline"
     transform="translate(-512.00004,-232)" />
  <g
     id="layer4"
     style="display:inline"
     transform="translate(-512.00004,-232)" />
  <g
     id="g1812"
     style="display:inline"
     transform="translate(-512.00004,-232)" />
  <g
     id="g6217"
     style="display:inline"
     transform="translate(-512.00004,-232)" />
  <g
     id="layer3"
     style="display:inline"
     transform="translate(-512.00004,-232)" />
  <g
     id="g1833"
     style="display:inline"
     transform="translate(-507.99618,-235)">
    <path
       d="m 516.99093,238 c -1.25839,0.0145 -2.17922,-0.0306 -2.93209,0.38477 -0.37643,0.20766 -0.67333,0.55938 -0.83802,0.99804 -0.16469,0.43867 -0.22485,0.95958 -0.22464,1.61719 L 513,253 c 2.1e-4,0.65761 0.0599,1.17858 0.22464,1.61719 0.16471,0.43861 0.46161,0.78852 0.83802,0.99609 0.75284,0.41514 1.6738,0.37165 2.93209,0.38672 h 0.002 6.00082 0.004 c 1.25838,-0.0145 2.17922,0.0306 2.93209,-0.38477 0.37642,-0.20766 0.67333,-0.55938 0.83801,-0.99804 0.16456,-0.43867 0.22473,-0.95958 0.22451,-1.61719 l -0.004,-12 c -2.2e-4,-0.65761 -0.0599,-1.17858 -0.22465,-1.61719 -0.1647,-0.43861 -0.4616,-0.78852 -0.83801,-0.99609 -0.75284,-0.41513 -1.67381,-0.37165 -2.93209,-0.38672 h -0.002 -6.00082 z m 0.006,1 h 5.99496 c 1.25881,0.0152 2.08942,0.0599 2.45545,0.26172 0.18345,0.10116 0.28727,0.21286 0.38482,0.47266 0.0974,0.25979 0.15986,0.67323 0.16005,1.26562 l 0.004,12 c 1.9e-4,0.59239 -0.0626,1.00572 -0.16019,1.26562 -0.0976,0.25991 -0.20138,0.37147 -0.38482,0.47266 -0.36601,0.20192 -1.19674,0.24701 -2.45545,0.26172 h -5.98928 -0.006 c -1.25882,-0.0152 -2.08942,-0.0599 -2.45545,-0.26172 -0.18345,-0.10116 -0.28727,-0.21286 -0.38482,-0.47266 -0.0976,-0.25979 -0.16,-0.67323 -0.16019,-1.26562 l -0.004,-12 c -1.9e-4,-0.59239 0.0626,-1.00572 0.16019,-1.26562 0.0976,-0.25991 0.20334,-0.37147 0.38678,-0.47266 0.366,-0.20191 1.19478,-0.24702 2.45349,-0.26172 z"
       id="path2732-8-9"
       style="color:#000000;font-style:normal;font-variant:normal;font-weight:normal;font-stretch:normal;font-size:medium;line-height:normal;font-family:sans-serif;font-variant-ligatures:normal;font-variant-position:normal;font-variant-caps:normal;font-variant-numeric:normal;font-variant-alternates:normal;font-feature-settings:normal;text-indent:0;text-align:start;text-decoration:none;text-decoration-line:none;text-decoration-style:solid;text-decoration-color:#000000;letter-spacing:normal;word-spacing:normal;text-transform:none;writing-mode:lr-tb;direction:ltr;text-orientation:mixed;dominant-baseline:auto;baseline-shift:baseline;text-anchor:start;white-space:normal;shape-padding:0;clip-rule:nonzero;display:inline;overflow:visible;visibility:visible;opacity:1;isolation:auto;mix-blend-mode:normal;color-interpolation:sRGB;color-interpolation-filters:linearRGB;solid-color:#000000;solid-opacity:1;vector-effect:none;fill:#232629;fill-opacity:1;fill-rule:nonzero;stroke:none;stroke-width:1.00007653;stroke-linecap:butt;stroke-linejoin:miter;stroke-miterlimit:4;stroke-dasharray:none;stroke-dashoffset:0;stroke-opacity:1;marker:none;color-rendering:auto;image-rendering:auto;shape-rendering:auto;text-rendering:auto;enable-background:accumulate"
       inkscape:connector-curvature="0"
       sodipodi:nodetypes="cccsscsccccccssccccccccccsscccccccsscccc" />
  </g>
  <g
     id="layer1"
     style="display:inline"
     transform="translate(-512.00004,-232)" />
  <path
     style="color:#000000;overflow:visible;fill:#232629;fill-opacity:1;stroke-width:1.125;marker:none"
     d="m 11.390431,7.000425 c -0.230628,0 -0.445886,0.11611 -0.498047,0.306641 -0.193759,0.730808 0.02307,1.859569 0.384766,3.267578 l -0.109375,0.273437 c -0.276912,0.690448 -0.623316,1.377886 -0.927735,1.988282 -1.2566415,2.51534 -2.2349165,3.873719 -2.8867175,3.96875 l -0.002,-0.02734 c -0.01412,-0.313728 0.551052,-1.124337 1.318359,-1.767578 0.07994,-0.0663 0.421875,-0.404297 0.421875,-0.404297 0,0 -0.460976,0.250403 -0.564453,0.314453 -0.961338,0.587237 -1.439564,1.17401 -1.517578,1.564453 -0.02313,0.115989 -0.0082,0.259859 0.0918,0.318359 l 0.246093,0.125 c 0.669108,0.342678 1.491926,-0.556238 2.585938,-2.517578 1.1132745,-0.373547 2.5009835,-0.725483 3.7656245,-0.916015 1.131915,0.661639 2.430882,0.975985 2.929687,0.839843 0.09488,-0.02566 0.195084,-0.101585 0.246094,-0.171875 0.03997,-0.06469 0.0957,-0.324218 0.0957,-0.324218 0,0 -0.0927,0.131432 -0.169922,0.169921 -0.315848,0.152509 -1.312941,-0.101282 -2.335937,-0.613281 0.884443,-0.09631 1.621802,-0.101449 2.015625,0.02734 0.50009,0.163281 0.498887,0.331134 0.492187,0.365234 0.0067,-0.02817 0.03004,-0.13973 0.02734,-0.1875 -0.01143,-0.12278 -0.048,-0.231585 -0.138672,-0.322265 -0.185159,-0.186578 -0.642691,-0.282616 -1.265625,-0.291016 -0.469526,-0.0053 -1.03327,0.0376 -1.644531,0.126953 -0.279904,-0.164533 -0.574428,-0.344483 -0.808594,-0.568359 -0.5939,-0.567279 -1.091428,-1.355158 -1.40039,-2.238281 0.02117,-0.08456 0.04017,-0.168414 0.05859,-0.251953 0.08598,-0.395286 0.148438,-1.701172 0.148438,-1.701172 0,0 -0.244781,0.980851 -0.283203,1.128906 -0.02473,0.09394 -0.05645,0.194474 -0.0918,0.298828 -0.187366,-0.673999 -0.28125,-1.326913 -0.28125,-1.822265 0,-0.140206 0.01184,-0.413436 0.05078,-0.628907 0.01885,-0.153678 0.0725,-0.232903 0.128953,-0.271484 0.111831,0.02778 0.236609,0.202738 0.367188,0.496094 0.112209,0.25352 0.105469,0.546696 0.105469,0.728515 0,0 0.11966,-0.448799 0.0918,-0.714843 -0.01687,-0.159746 -0.16473,-0.5713468 -0.480468,-0.566407 h -0.02539 z m 0.107422,4.082031 c 0.326677,0.672133 0.778016,1.310296 1.369141,1.822266 0.131777,0.114067 0.271751,0.222315 0.416015,0.324219 -1.073441,0.204143 -2.202271,0.49039 -3.25,0.939453 0.189405,-0.344263 0.395576,-0.718658 0.605469,-1.123047 0.406292,-0.785978 0.652202,-1.391912 0.859375,-1.962891 z"
     id="path2"
     inkscape:connector-curvature="0"
     sodipodi:nodetypes="ccccccccccccccccccccccccccccccccscccccccccccccc" />
  <circle
     style="fill:#232620;fill-rule:evenodd;fill-opacity:1"
     id="path24"
     cx="15"
     cy="7"
     r="2" />
</svg>
