<?xml version="1.0" encoding="UTF-8" standalone="no"?>
<svg
   xmlns:dc="http://purl.org/dc/elements/1.1/"
   xmlns:cc="http://creativecommons.org/ns#"
   xmlns:rdf="http://www.w3.org/1999/02/22-rdf-syntax-ns#"
   xmlns:svg="http://www.w3.org/2000/svg"
   xmlns="http://www.w3.org/2000/svg"
   xmlns:sodipodi="http://sodipodi.sourceforge.net/DTD/sodipodi-0.dtd"
   xmlns:inkscape="http://www.inkscape.org/namespaces/inkscape"
   viewBox="0 0 24 24"
   version="1.1"
   id="svg4"
   sodipodi:docname="lc_showbookview.svg"
   inkscape:version="0.92.4 (5da689c313, 2019-01-14)">
  <metadata
     id="metadata10">
    <rdf:RDF>
      <cc:Work
         rdf:about="">
        <dc:format>image/svg+xml</dc:format>
        <dc:type
           rdf:resource="http://purl.org/dc/dcmitype/StillImage" />
      </cc:Work>
    </rdf:RDF>
  </metadata>
  <defs
     id="defs8" />
  <sodipodi:namedview
     pagecolor="#ffffff"
     bordercolor="#666666"
     borderopacity="1"
     objecttolerance="10"
     gridtolerance="10"
     guidetolerance="10"
     inkscape:pageopacity="0"
     inkscape:pageshadow="2"
     inkscape:window-width="1920"
     inkscape:window-height="1011"
     id="namedview6"
     showgrid="true"
     inkscape:zoom="19.666667"
     inkscape:cx="8.3403145"
     inkscape:cy="10.090295"
     inkscape:window-x="0"
     inkscape:window-y="32"
     inkscape:window-maximized="1"
     inkscape:current-layer="svg4">
    <inkscape:grid
       type="xygrid"
       id="grid823" />
  </sodipodi:namedview>
  <path
     style="color:#000000;font-style:normal;font-variant:normal;font-weight:normal;font-stretch:normal;font-size:medium;line-height:normal;font-family:sans-serif;font-variant-ligatures:normal;font-variant-position:normal;font-variant-caps:normal;font-variant-numeric:normal;font-variant-alternates:normal;font-feature-settings:normal;text-indent:0;text-align:start;text-decoration:none;text-decoration-line:none;text-decoration-style:solid;text-decoration-color:#000000;letter-spacing:normal;word-spacing:normal;text-transform:none;writing-mode:lr-tb;direction:ltr;text-orientation:mixed;dominant-baseline:auto;baseline-shift:baseline;text-anchor:start;white-space:normal;shape-padding:0;clip-rule:nonzero;display:inline;overflow:visible;visibility:visible;opacity:1;isolation:auto;mix-blend-mode:normal;color-interpolation:sRGB;color-interpolation-filters:linearRGB;solid-color:#000000;solid-opacity:1;vector-effect:none;fill:#232629;fill-opacity:1;fill-rule:nonzero;stroke:none;stroke-width:1.00007653;stroke-linecap:butt;stroke-linejoin:miter;stroke-miterlimit:4;stroke-dasharray:none;stroke-dashoffset:0;stroke-opacity:1;marker:none;color-rendering:auto;image-rendering:auto;shape-rendering:auto;text-rendering:auto;enable-background:accumulate"
     d="M 7 3 L 3 7 L 3 18 C 3 18.65761 3.0600484 19.178517 3.2246094 19.617188 C 3.3892894 20.055848 3.68608 20.407574 4.0625 20.615234 C 4.81537 21.030604 5.7357606 20.9855 6.9941406 21 L 6.9980469 21 L 8 21 L 8.0019531 21 L 12 21 L 15.998047 21 L 16 21 L 17.001953 21 L 17.005859 21 C 18.264239 20.9855 19.18463 21.030604 19.9375 20.615234 C 20.31392 20.407574 20.610711 20.055848 20.775391 19.617188 C 20.939952 19.178517 21 18.65761 21 18 L 21 7 L 17 3 L 15.998047 3 L 15.994141 3 L 12 3 L 8.0058594 3 L 8.0019531 3 L 7 3 z M 8 4 L 11 4 L 11 6 L 10.996094 18 L 11 20 L 7.9960938 20 L 7.9902344 20 L 7 20 C 5.741289 19.98529 4.9109319 19.940201 4.5449219 19.738281 C 4.3614819 19.637091 4.2577562 19.525535 4.1601562 19.265625 C 4.0625662 19.005725 4.000015 18.59239 4 18 L 4 8 L 8 8 L 8 4 z M 13 4 L 16 4 L 16 8 L 20 8 L 20 18 C 19.999985 18.59239 19.937434 19.005725 19.839844 19.265625 C 19.742244 19.525535 19.638518 19.637091 19.455078 19.738281 C 19.089068 19.940201 18.258711 19.98529 17 20 L 16.009766 20 L 16.003906 20 L 13 20 L 13.003906 18 L 13 6 L 13 4 z "
     id="path2732-8-9-9" />
</svg>
