<?xml version="1.0" encoding="UTF-8" standalone="no"?>
<svg
   xmlns:dc="http://purl.org/dc/elements/1.1/"
   xmlns:cc="http://creativecommons.org/ns#"
   xmlns:rdf="http://www.w3.org/1999/02/22-rdf-syntax-ns#"
   xmlns:svg="http://www.w3.org/2000/svg"
   xmlns="http://www.w3.org/2000/svg"
   xmlns:sodipodi="http://sodipodi.sourceforge.net/DTD/sodipodi-0.dtd"
   xmlns:inkscape="http://www.inkscape.org/namespaces/inkscape"
   viewBox="0 0 24 24"
   version="1.1"
   id="svg6"
   sodipodi:docname="lc_searchdialog.svg"
   inkscape:version="0.92.4 (5da689c313, 2019-01-14)"
   inkscape:export-filename="/home/jupiter007/Libreoffice yaru theme fullcolor/build/cmd/lc_searchdialog.png"
   inkscape:export-xdpi="95"
   inkscape:export-ydpi="95">
  <metadata
     id="metadata12">
    <rdf:RDF>
      <cc:Work
         rdf:about="">
        <dc:format>image/svg+xml</dc:format>
        <dc:type
           rdf:resource="http://purl.org/dc/dcmitype/StillImage" />
      </cc:Work>
    </rdf:RDF>
  </metadata>
  <defs
     id="defs10" />
  <sodipodi:namedview
     pagecolor="#ffffff"
     bordercolor="#666666"
     borderopacity="1"
     objecttolerance="10"
     gridtolerance="10"
     guidetolerance="10"
     inkscape:pageopacity="0"
     inkscape:pageshadow="2"
     inkscape:window-width="1920"
     inkscape:window-height="1011"
     id="namedview8"
     showgrid="true"
     inkscape:zoom="19.032958"
     inkscape:cx="6.7847555"
     inkscape:cy="23.375213"
     inkscape:window-x="1920"
     inkscape:window-y="32"
     inkscape:window-maximized="1"
     inkscape:current-layer="svg6">
    <inkscape:grid
       type="xygrid"
       id="grid822" />
  </sodipodi:namedview>
  <path
     inkscape:connector-curvature="0"
     style="color:#000000;font-weight:400;line-height:normal;font-family:sans-serif;font-variant-ligatures:normal;font-variant-position:normal;font-variant-caps:normal;font-variant-numeric:normal;font-variant-alternates:normal;font-feature-settings:normal;text-indent:0;text-align:start;text-decoration:none;text-decoration-line:none;text-decoration-style:solid;text-decoration-color:#000000;text-transform:none;text-orientation:mixed;white-space:normal;shape-padding:0;overflow:visible;opacity:0.7;isolation:auto;mix-blend-mode:normal;fill:#000000;fill-opacity:1;stroke:#000000;stroke-width:2;stroke-linejoin:round;stroke-miterlimit:4;stroke-dasharray:none"
     d="M 11.469689,4.9696886 A 6.508,6.508 0 0 0 4.9696886,11.469689 c 0,3.584 2.916,6.5 6.5000004,6.5 1.612224,0 3.087362,-0.592853 4.224609,-1.568359 l 2.921875,2.921875 0.707032,-0.707032 -2.921875,-2.921875 c 0.975506,-1.137247 1.568359,-2.612385 1.568359,-4.224609 0,-3.5840004 -2.916,-6.5000004 -6.5,-6.5000004 z m 0,1.039063 c 3.022,0 5.460938,2.438937 5.460938,5.4609374 0,3.022 -2.438938,5.460938 -5.460938,5.460938 A 5.454,5.454 0 0 1 6.0087511,11.469689 c 0,-3.0220004 2.4399375,-5.4609374 5.4609379,-5.4609374 z"
     id="path2035-9" />
  <path
     inkscape:connector-curvature="0"
     id="path2035"
     overflow="visible"
     style="color:#000000;font-weight:400;line-height:normal;font-family:sans-serif;font-variant-ligatures:normal;font-variant-position:normal;font-variant-caps:normal;font-variant-numeric:normal;font-variant-alternates:normal;font-feature-settings:normal;text-indent:0;text-align:start;text-decoration:none;text-decoration-line:none;text-decoration-style:solid;text-decoration-color:#000000;text-transform:none;text-orientation:mixed;white-space:normal;shape-padding:0;overflow:visible;isolation:auto;mix-blend-mode:normal;fill:#c8c4b7;fill-opacity:1"
     d="M 11.469689,4.9696886 A 6.508,6.508 0 0 0 4.9696886,11.469689 c 0,3.584 2.916,6.5 6.5000004,6.5 3.584,0 6.5,-2.916 6.5,-6.5 0,-3.5840004 -2.916,-6.5000004 -6.5,-6.5000004 z m 0,1.04 c 3.022,0 5.46,2.438 5.46,5.4600004 0,3.022 -2.438,5.46 -5.46,5.46 a 5.454,5.454 0 0 1 -5.4610004,-5.46 c 0,-3.0220004 2.44,-5.4600004 5.4610004,-5.4600004 z" />
  <path
     inkscape:connector-curvature="0"
     id="path2037"
     overflow="visible"
     style="color:#000000;font-weight:400;line-height:normal;font-family:sans-serif;font-variant-ligatures:normal;font-variant-position:normal;font-variant-caps:normal;font-variant-numeric:normal;font-variant-alternates:normal;font-feature-settings:normal;text-indent:0;text-align:start;text-decoration:none;text-decoration-line:none;text-decoration-style:solid;text-decoration-color:#000000;text-transform:none;text-orientation:mixed;white-space:normal;shape-padding:0;overflow:visible;isolation:auto;mix-blend-mode:normal;fill:#c8c4b7;fill-opacity:1;fill-rule:evenodd"
     d="m 15.822689,15.115689 -0.707,0.708 3.5,3.5 0.707,-0.708 z"
     sodipodi:nodetypes="ccccc" />
  <path
     style="opacity:1;vector-effect:none;fill:#ffffff;fill-opacity:1;stroke:none;stroke-width:2;stroke-linecap:round;stroke-linejoin:bevel;stroke-miterlimit:4;stroke-dasharray:none;stroke-dashoffset:0;stroke-opacity:1"
     id="path2707"
     sodipodi:type="arc"
     sodipodi:cx="11.469688"
     sodipodi:cy="11.469688"
     sodipodi:rx="5.5"
     sodipodi:ry="5.5"
     sodipodi:start="0"
     sodipodi:end="6.2319424"
     sodipodi:open="true"
     d="M 16.969688,11.469688 A 5.5,5.5 0 0 1 11.540145,16.969237 5.5,5.5 0 0 1 5.9714936,11.610591 5.5,5.5 0 0 1 11.258363,5.9737498 5.5,5.5 0 0 1 16.962469,11.187976" />
  <g
     style="display:inline;stroke-width:27.20000267;enable-background:new"
     transform="matrix(0.03109234,0.03109234,-0.03372203,0.03372203,2.1088762,-18.902028)"
     id="g1151">
    <path
       style="fill:#fec589;fill-opacity:1;stroke:none;stroke-width:27.20000267"
       d="m 688.00003,319.35584 -32,81.13762 -31.99999,-81.13762 v -11.06422 h 63.99999 z"
       id="path1145"
       inkscape:connector-curvature="0" />
    <path
       style="color:#000000;display:inline;overflow:visible;visibility:visible;fill:#5d5d5d;fill-opacity:1;fill-rule:nonzero;stroke:none;stroke-width:27.20000267;marker:none;enable-background:accumulate"
       d="m 645.81253,374.67694 10.1875,25.81651 10.1875,-25.81651 c 0.0102,0.17481 -20.375,0 -20.375,0 z"
       id="path1147"
       inkscape:connector-curvature="0"
       sodipodi:nodetypes="cccc" />
    <path
       style="fill:#2f5fdd;fill-opacity:1;stroke:none;stroke-width:27.20000267"
       d="m 624.00004,319.35583 c 0,0 65.02041,1.58617 63.99999,0 V 133.45602 h -63.99999 z"
       id="path1149"
       inkscape:connector-curvature="0"
       sodipodi:nodetypes="ccccc" />
  </g>
</svg>
