<?xml version="1.0" encoding="UTF-8" standalone="no"?>
<svg
   xmlns:dc="http://purl.org/dc/elements/1.1/"
   xmlns:cc="http://creativecommons.org/ns#"
   xmlns:rdf="http://www.w3.org/1999/02/22-rdf-syntax-ns#"
   xmlns:svg="http://www.w3.org/2000/svg"
   xmlns="http://www.w3.org/2000/svg"
   xmlns:sodipodi="http://sodipodi.sourceforge.net/DTD/sodipodi-0.dtd"
   xmlns:inkscape="http://www.inkscape.org/namespaces/inkscape"
   viewBox="0 0 24 24"
   version="1.1"
   id="svg6"
   sodipodi:docname="lc_snappoints.svg"
   inkscape:export-filename="/home/jupiter007/Libreoffice yaru theme fullcolor/build/cmd/lc_snappoints.png"
   inkscape:export-xdpi="95"
   inkscape:export-ydpi="95"
   inkscape:version="1.0.1 (3bc2e813f5, 2020-09-07)">
  <metadata
     id="metadata12">
    <rdf:RDF>
      <cc:Work
         rdf:about="">
        <dc:format>image/svg+xml</dc:format>
        <dc:type
           rdf:resource="http://purl.org/dc/dcmitype/StillImage" />
      </cc:Work>
    </rdf:RDF>
  </metadata>
  <defs
     id="defs10" />
  <sodipodi:namedview
     pagecolor="#ffffff"
     bordercolor="#666666"
     borderopacity="1"
     objecttolerance="10"
     gridtolerance="10"
     guidetolerance="10"
     inkscape:pageopacity="0"
     inkscape:pageshadow="2"
     inkscape:window-width="1920"
     inkscape:window-height="1011"
     id="namedview8"
     showgrid="true"
     inkscape:zoom="19.666667"
     inkscape:cx="15.830494"
     inkscape:cy="9.7302945"
     inkscape:window-x="0"
     inkscape:window-y="0"
     inkscape:window-maximized="1"
     inkscape:current-layer="svg6"
     inkscape:document-rotation="0">
    <inkscape:grid
       type="xygrid"
       id="grid844" />
  </sodipodi:namedview>
  <rect
     style="opacity:1;fill:#ffffff;fill-opacity:1;fill-rule:nonzero;stroke:none;stroke-width:4;stroke-linecap:round;stroke-linejoin:round;stroke-miterlimit:4;stroke-dasharray:none;stroke-opacity:1"
     id="rect852"
     width="12"
     height="12"
     x="6"
     y="6" />
  <rect
     style="opacity:0.7;vector-effect:none;fill:#000000;fill-opacity:1;stroke:none;stroke-width:1;stroke-linecap:round;stroke-linejoin:round;stroke-miterlimit:4;stroke-dasharray:none;stroke-dashoffset:0;stroke-opacity:1"
     id="rect9084-4-4"
     width="4"
     height="4"
     x="3.9999998"
     y="4"
     transform="matrix(0,1,1,0,0,0)" />
  <rect
     style="opacity:1;vector-effect:none;fill:#aee3f8;fill-opacity:1;stroke:none;stroke-width:1;stroke-linecap:round;stroke-linejoin:round;stroke-miterlimit:4;stroke-dasharray:none;stroke-dashoffset:0;stroke-opacity:1"
     id="rect9101-4-4"
     width="2"
     height="2"
     x="5"
     y="5"
     transform="matrix(0,1,1,0,0,0)" />
  <rect
     transform="matrix(0,1,1,0,0,0)"
     y="16"
     x="3.9999998"
     height="4"
     width="4"
     id="rect832"
     style="opacity:0.7;vector-effect:none;fill:#000000;fill-opacity:1;stroke:none;stroke-width:1;stroke-linecap:round;stroke-linejoin:round;stroke-miterlimit:4;stroke-dasharray:none;stroke-dashoffset:0;stroke-opacity:1" />
  <rect
     transform="matrix(0,1,1,0,0,0)"
     y="17"
     x="5"
     height="2"
     width="2"
     id="rect834"
     style="opacity:1;vector-effect:none;fill:#aee3f8;fill-opacity:1;stroke:none;stroke-width:1;stroke-linecap:round;stroke-linejoin:round;stroke-miterlimit:4;stroke-dasharray:none;stroke-dashoffset:0;stroke-opacity:1" />
  <rect
     style="opacity:0.7;vector-effect:none;fill:#000000;fill-opacity:1;stroke:none;stroke-width:1;stroke-linecap:round;stroke-linejoin:round;stroke-miterlimit:4;stroke-dasharray:none;stroke-dashoffset:0;stroke-opacity:1"
     id="rect836"
     width="4"
     height="4"
     x="16"
     y="16"
     transform="matrix(0,1,1,0,0,0)" />
  <rect
     style="opacity:1;vector-effect:none;fill:#aee3f8;fill-opacity:1;stroke:none;stroke-width:1;stroke-linecap:round;stroke-linejoin:round;stroke-miterlimit:4;stroke-dasharray:none;stroke-dashoffset:0;stroke-opacity:1"
     id="rect838"
     width="2"
     height="2"
     x="17"
     y="17"
     transform="matrix(0,1,1,0,0,0)" />
  <rect
     transform="matrix(0,1,1,0,0,0)"
     y="4"
     x="16"
     height="4"
     width="4"
     id="rect840"
     style="opacity:0.7;vector-effect:none;fill:#000000;fill-opacity:1;stroke:none;stroke-width:1;stroke-linecap:round;stroke-linejoin:round;stroke-miterlimit:4;stroke-dasharray:none;stroke-dashoffset:0;stroke-opacity:1" />
  <rect
     transform="matrix(0,1,1,0,0,0)"
     y="5"
     x="17"
     height="2"
     width="2"
     id="rect842"
     style="opacity:1;vector-effect:none;fill:#aee3f8;fill-opacity:1;stroke:none;stroke-width:1;stroke-linecap:round;stroke-linejoin:round;stroke-miterlimit:4;stroke-dasharray:none;stroke-dashoffset:0;stroke-opacity:1" />
  <rect
     style="opacity:1;fill:#1463a5;fill-opacity:1;fill-rule:nonzero;stroke:none;stroke-width:4;stroke-linecap:round;stroke-linejoin:round;stroke-miterlimit:4;stroke-dasharray:none;stroke-opacity:1"
     id="rect844"
     width="8"
     height="2"
     x="8"
     y="5" />
  <rect
     style="opacity:1;fill:#1463a5;fill-opacity:1;fill-rule:nonzero;stroke:none;stroke-width:4;stroke-linecap:round;stroke-linejoin:round;stroke-miterlimit:4;stroke-dasharray:none;stroke-opacity:1"
     id="rect846"
     width="2"
     height="8"
     x="17"
     y="8" />
  <rect
     style="opacity:1;fill:#1463a5;fill-opacity:1;fill-rule:nonzero;stroke:none;stroke-width:4;stroke-linecap:round;stroke-linejoin:round;stroke-miterlimit:4;stroke-dasharray:none;stroke-opacity:1"
     id="rect848"
     width="2"
     height="8"
     x="5"
     y="8" />
  <rect
     style="opacity:1;fill:#1463a5;fill-opacity:1;fill-rule:nonzero;stroke:none;stroke-width:4;stroke-linecap:round;stroke-linejoin:round;stroke-miterlimit:4;stroke-dasharray:none;stroke-opacity:1"
     id="rect850"
     width="8"
     height="2"
     x="8"
     y="17" />
  <path
     id="path883"
     style="opacity:0.6;fill:#000000;fill-rule:evenodd;stroke:#000000;stroke-width:2;stroke-linecap:round;stroke-linejoin:round;stroke-miterlimit:4;stroke-dasharray:none"
     d="M 17.951172,13 A 2,2 0 0 0 16,15 v 2 h -1 v 4 h 6 v -4 h -1 v -2 a 2,2 0 0 0 -2,-2 2,2 0 0 0 -0.04883,0 z M 18,14 a 1,1 0 0 1 1,1 v 2 h -2 v -2 a 1,1 0 0 1 1,-1 z" />
  <path
     id="path855"
     style="opacity:1;fill:#fee581;fill-opacity:1;fill-rule:evenodd;stroke-width:1.88562;stroke-linecap:round;stroke-linejoin:round"
     d="M 17.951172,13 A 2,2 0 0 0 16,15 v 2 h -1 v 4 h 6 v -4 h -1 v -2 a 2,2 0 0 0 -2,-2 2,2 0 0 0 -0.04883,0 z M 18,14 a 1,1 0 0 1 1,1 v 2 h -2 v -2 a 1,1 0 0 1 1,-1 z" />
</svg>
