<?xml version="1.0" encoding="UTF-8" standalone="no"?>
<svg
   xmlns:dc="http://purl.org/dc/elements/1.1/"
   xmlns:cc="http://creativecommons.org/ns#"
   xmlns:rdf="http://www.w3.org/1999/02/22-rdf-syntax-ns#"
   xmlns:svg="http://www.w3.org/2000/svg"
   xmlns="http://www.w3.org/2000/svg"
   xmlns:sodipodi="http://sodipodi.sourceforge.net/DTD/sodipodi-0.dtd"
   xmlns:inkscape="http://www.inkscape.org/namespaces/inkscape"
   viewBox="0 0 24 24"
   version="1.1"
   id="svg4"
   sodipodi:docname="lc_snapborder.svg"
   inkscape:version="0.92.4 (5da689c313, 2019-01-14)">
  <metadata
     id="metadata10">
    <rdf:RDF>
      <cc:Work
         rdf:about="">
        <dc:format>image/svg+xml</dc:format>
        <dc:type
           rdf:resource="http://purl.org/dc/dcmitype/StillImage" />
      </cc:Work>
    </rdf:RDF>
  </metadata>
  <defs
     id="defs8" />
  <sodipodi:namedview
     pagecolor="#ffffff"
     bordercolor="#666666"
     borderopacity="1"
     objecttolerance="10"
     gridtolerance="10"
     guidetolerance="10"
     inkscape:pageopacity="0"
     inkscape:pageshadow="2"
     inkscape:window-width="1920"
     inkscape:window-height="1011"
     id="namedview6"
     showgrid="true"
     inkscape:zoom="39.333333"
     inkscape:cx="3.5822996"
     inkscape:cy="18.746099"
     inkscape:window-x="0"
     inkscape:window-y="32"
     inkscape:window-maximized="1"
     inkscape:current-layer="svg4">
    <inkscape:grid
       type="xygrid"
       id="grid823" />
  </sodipodi:namedview>
  <path
     d="M 18.5,3 C 17.669,3 17,3.669 17,4.5 V 6 h -1 v 3 h 5 V 6 H 20 V 4.5 C 20,3.669 19.331,3 18.5,3 Z m 0,1 C 18.777,4 19,4.223 19,4.5 V 6 H 18 V 4.5 C 18,4.223 18.223,4 18.5,4 Z"
     id="path2"
     inkscape:connector-curvature="0"
     style="fill:#232629"
     sodipodi:nodetypes="ssccccccssssccss" />
  <path
     d="m 15,4 h -5.989971 -0.006 c -1.25882,0.0152 -2.08942,0.0599 -2.455451,0.26172 -0.18345,0.10116 -0.28727,0.21286 -0.38482,0.47266 -0.0976,0.25979 -0.16,0.6732301 -0.16019,1.2656201 L 5.999568,18 c -1.89e-4,0.59239 0.0626,1.00572 0.16019,1.26562 0.0976,0.25991 0.20334,0.37147 0.38678,0.47266 C 6.912539,19.94019 7.741319,19.9853 9.000029,20 h 7.5e-4 4.999252 v -4 h 4 l -1.68e-4,-6 H 19 l 1.1e-5,7 -4,4 H 8.998439 8.994739 C 7.736349,20.9855 6.815518,21.0306 6.062648,20.61523 5.686221,20.40757 5.389321,20.05585 5.224631,19.61719 5.059941,19.17852 4.99978,18.65761 4.99999,18 L 5.00379,6.0000001 C 5.004,5.3423901 5.06369,4.82142 5.22843,4.38281 5.39314,3.9442 5.69004,3.59429 6.066449,3.3867199 6.819288,2.9715799 7.74025,3.01507 8.998539,2.9999999 h 0.002 L 16,3 Z"
     id="path2732-8-9-9"
     style="color:#000000;font-style:normal;font-variant:normal;font-weight:normal;font-stretch:normal;font-size:medium;line-height:normal;font-family:sans-serif;font-variant-ligatures:normal;font-variant-position:normal;font-variant-caps:normal;font-variant-numeric:normal;font-variant-alternates:normal;font-feature-settings:normal;text-indent:0;text-align:start;text-decoration:none;text-decoration-line:none;text-decoration-style:solid;text-decoration-color:#000000;letter-spacing:normal;word-spacing:normal;text-transform:none;writing-mode:lr-tb;direction:ltr;text-orientation:mixed;dominant-baseline:auto;baseline-shift:baseline;text-anchor:start;white-space:normal;shape-padding:0;clip-rule:nonzero;display:inline;overflow:visible;visibility:visible;opacity:1;isolation:auto;mix-blend-mode:normal;color-interpolation:sRGB;color-interpolation-filters:linearRGB;solid-color:#000000;solid-opacity:1;vector-effect:none;fill:#232629;fill-opacity:1;fill-rule:nonzero;stroke:none;stroke-width:1.00007653;stroke-linecap:butt;stroke-linejoin:miter;stroke-miterlimit:4;stroke-dasharray:none;stroke-dashoffset:0;stroke-opacity:1;marker:none;color-rendering:auto;image-rendering:auto;shape-rendering:auto;text-rendering:auto;enable-background:accumulate"
     inkscape:connector-curvature="0"
     sodipodi:nodetypes="cccccsscccccccccccccccsscscccc" />
</svg>
