<?xml version="1.0" encoding="UTF-8" standalone="no"?>
<svg
   xmlns:dc="http://purl.org/dc/elements/1.1/"
   xmlns:cc="http://creativecommons.org/ns#"
   xmlns:rdf="http://www.w3.org/1999/02/22-rdf-syntax-ns#"
   xmlns:svg="http://www.w3.org/2000/svg"
   xmlns="http://www.w3.org/2000/svg"
   xmlns:sodipodi="http://sodipodi.sourceforge.net/DTD/sodipodi-0.dtd"
   xmlns:inkscape="http://www.inkscape.org/namespaces/inkscape"
   viewBox="0 0 24 24"
   version="1.1"
   id="svg4"
   sodipodi:docname="lc_setdocumentproperties.svg"
   inkscape:version="0.92.4 (5da689c313, 2019-01-14)">
  <metadata
     id="metadata10">
    <rdf:RDF>
      <cc:Work
         rdf:about="">
        <dc:format>image/svg+xml</dc:format>
        <dc:type
           rdf:resource="http://purl.org/dc/dcmitype/StillImage" />
      </cc:Work>
    </rdf:RDF>
  </metadata>
  <defs
     id="defs8" />
  <sodipodi:namedview
     pagecolor="#ffffff"
     bordercolor="#666666"
     borderopacity="1"
     objecttolerance="10"
     gridtolerance="10"
     guidetolerance="10"
     inkscape:pageopacity="0"
     inkscape:pageshadow="2"
     inkscape:window-width="1920"
     inkscape:window-height="1011"
     id="namedview6"
     showgrid="true"
     inkscape:zoom="9.8333333"
     inkscape:cx="36.626715"
     inkscape:cy="10.216248"
     inkscape:window-x="0"
     inkscape:window-y="32"
     inkscape:window-maximized="1"
     inkscape:current-layer="svg4">
    <inkscape:grid
       type="xygrid"
       id="grid823" />
  </sodipodi:namedview>
  <path
     d="m 8.9947492,3.0000001 c -1.25839,0.0145 -2.1792204,-0.0306 -2.9320904,0.38477 -0.3764287,0.20766 -0.6733287,0.55938 -0.8380187,0.9980398 -0.16469,0.43867 -0.2248507,0.95958 -0.2246407,1.61719 L 5.0038194,18 c 2.1e-4,0.65761 0.0599,1.17858 0.22464,1.61719 0.16471,0.43861 0.46161,0.78852 0.8380197,0.99609 0.752839,0.41514 1.6738001,0.37165 2.9320891,0.38672 h 0.002 6.0008218 0.004 c 1.25838,-0.0145 2.17922,0.0306 2.93209,-0.38477 0.37642,-0.20766 0.67333,-0.55938 0.83801,-0.99804 C 18.940051,19.17852 19.000001,18.65761 19.000001,18 L 19,6.9999999 15,3.0000001 H 8.9984292 Z m 0.006,1 H 14 v 3.9999998 h 4 L 17.999741,18 c -1.5e-5,0.59239 -0.0626,1.00572 -0.16019,1.26562 -0.0976,0.25991 -0.20138,0.37147 -0.38482,0.47266 C 17.088721,19.9402 16.257991,19.98529 14.99928,20 h -5.9892808 -0.006 c -1.25882,-0.0152 -2.0894204,-0.0599 -2.4554504,-0.26172 -0.18345,-0.10116 -0.28727,-0.21286 -0.38482,-0.47266 -0.0976,-0.25979 -0.16,-0.67323 -0.16019,-1.26562 l -0.004,-12.0000001 c -1.897e-4,-0.59239 0.0626,-1.00572 0.16019,-1.26562 0.0976,-0.25991 0.20334,-0.37147 0.38678,-0.47266 0.366,-0.2019098 1.1947804,-0.2470198 2.4534904,-0.2617198 z"
     id="path2732-8-9-9"
     style="color:#000000;font-style:normal;font-variant:normal;font-weight:normal;font-stretch:normal;font-size:medium;line-height:normal;font-family:sans-serif;font-variant-ligatures:normal;font-variant-position:normal;font-variant-caps:normal;font-variant-numeric:normal;font-variant-alternates:normal;font-feature-settings:normal;text-indent:0;text-align:start;text-decoration:none;text-decoration-line:none;text-decoration-style:solid;text-decoration-color:#000000;letter-spacing:normal;word-spacing:normal;text-transform:none;writing-mode:lr-tb;direction:ltr;text-orientation:mixed;dominant-baseline:auto;baseline-shift:baseline;text-anchor:start;white-space:normal;shape-padding:0;clip-rule:nonzero;display:inline;overflow:visible;visibility:visible;opacity:1;isolation:auto;mix-blend-mode:normal;color-interpolation:sRGB;color-interpolation-filters:linearRGB;solid-color:#000000;solid-opacity:1;vector-effect:none;fill:#232629;fill-opacity:1;fill-rule:nonzero;stroke:none;stroke-width:1.00007653;stroke-linecap:butt;stroke-linejoin:miter;stroke-miterlimit:4;stroke-dasharray:none;stroke-dashoffset:0;stroke-opacity:1;marker:none;color-rendering:auto;image-rendering:auto;shape-rendering:auto;text-rendering:auto;enable-background:accumulate"
     inkscape:connector-curvature="0"
     sodipodi:nodetypes="cccsscsccccccsccccccccscccccccsscccc" />
  <path
     style="opacity:1;fill:#232629;fill-opacity:1;fill-rule:nonzero;stroke:none;stroke-width:0.001;stroke-linecap:butt;stroke-linejoin:round;stroke-miterlimit:4;stroke-dasharray:none;stroke-dashoffset:0;stroke-opacity:1"
     d="M 10 14 C 8.892 14 8 14.892 8 16 C 8 17.108 8.892 18 10 18 L 14 18 C 15.108 18 16 17.108 16 16 C 16 14.892 15.108 14 14 14 L 10 14 z M 14 15 C 14.554 15 15 15.446 15 16 C 15 16.554 14.554 17 14 17 C 13.446 17 13 16.554 13 16 C 13 15.446 13.446 15 14 15 z "
     id="rect825" />
  <path
     id="path830"
     d="m 14,9 c 1.108,0 2,0.892 2,2 0,1.108 -0.892,2 -2,2 H 10 C 8.892,13 8,12.108 8,11 8,9.892 8.892,9 10,9 Z m -4,1 c -0.554,0 -1,0.446 -1,1 0,0.554 0.446,1 1,1 0.554,0 1,-0.446 1,-1 0,-0.554 -0.446,-1 -1,-1 z"
     style="opacity:1;fill:#232629;fill-opacity:1;fill-rule:nonzero;stroke:none;stroke-width:0.001;stroke-linecap:butt;stroke-linejoin:round;stroke-miterlimit:4;stroke-dasharray:none;stroke-dashoffset:0;stroke-opacity:1"
     inkscape:connector-curvature="0" />
</svg>
