<?xml version="1.0" encoding="UTF-8" standalone="no"?>
<svg
   xmlns:dc="http://purl.org/dc/elements/1.1/"
   xmlns:cc="http://creativecommons.org/ns#"
   xmlns:rdf="http://www.w3.org/1999/02/22-rdf-syntax-ns#"
   xmlns:svg="http://www.w3.org/2000/svg"
   xmlns="http://www.w3.org/2000/svg"
   xmlns:sodipodi="http://sodipodi.sourceforge.net/DTD/sodipodi-0.dtd"
   xmlns:inkscape="http://www.inkscape.org/namespaces/inkscape"
   viewBox="0 0 24 24"
   version="1.1"
   id="svg4"
   sodipodi:docname="lc_sharedocument.svg"
   inkscape:version="0.92.4 (5da689c313, 2019-01-14)"
   inkscape:export-filename="/home/jupiter007/Libreoffice yaru theme/build/cmd/lc_sharedocument.png"
   inkscape:export-xdpi="96"
   inkscape:export-ydpi="96">
  <metadata
     id="metadata10">
    <rdf:RDF>
      <cc:Work
         rdf:about="">
        <dc:format>image/svg+xml</dc:format>
        <dc:type
           rdf:resource="http://purl.org/dc/dcmitype/StillImage" />
      </cc:Work>
    </rdf:RDF>
  </metadata>
  <defs
     id="defs8" />
  <sodipodi:namedview
     pagecolor="#ffffff"
     bordercolor="#666666"
     borderopacity="1"
     objecttolerance="10"
     gridtolerance="10"
     guidetolerance="10"
     inkscape:pageopacity="0"
     inkscape:pageshadow="2"
     inkscape:window-width="1920"
     inkscape:window-height="1011"
     id="namedview6"
     showgrid="true"
     inkscape:zoom="1"
     inkscape:cx="11.49956"
     inkscape:cy="13.550963"
     inkscape:window-x="1920"
     inkscape:window-y="32"
     inkscape:window-maximized="1"
     inkscape:current-layer="svg4">
    <inkscape:grid
       type="xygrid"
       id="grid843" />
  </sodipodi:namedview>
  <path
     d="m 8.994749,2.9999998 c -1.25839,0.0145 -2.17922,-0.0306 -2.93209,0.38477 -0.3764287,0.20766 -0.6733287,0.55938 -0.8380187,0.99804 -0.16469,0.43867 -0.2248507,0.95958 -0.2246407,1.61719 L 5.0038196,18 c 2.1e-4,0.65761 0.0599,1.17858 0.22464,1.61719 0.16471,0.43861 0.46161,0.78852 0.8380197,0.99609 0.752839,0.41514 1.6738,0.37165 2.932089,0.38672 h 0.002 6.0008217 0.004 c 1.25838,-0.0145 2.17922,0.0306 2.93209,-0.38477 0.37642,-0.20766 0.67333,-0.55938 0.83801,-0.99804 C 18.940051,19.17852 19.000001,18.65761 19.000001,18 L 19,6.9999998 l -4,-4 H 8.998429 Z m 0.006,1 H 14 v 4 h 4 L 17.999741,18 c -1.5e-5,0.59239 -0.0626,1.00572 -0.16019,1.26562 -0.0976,0.25991 -0.20138,0.37147 -0.38482,0.47266 C 17.088721,19.9402 16.257991,19.98529 14.99928,20 h -5.989281 -0.006 C 7.745179,19.9848 6.914579,19.9401 6.548549,19.73828 6.365099,19.63712 6.261279,19.52542 6.163729,19.26562 6.066129,19.00583 6.003729,18.59239 6.003539,18 l -0.004,-12.0000003 c -1.897e-4,-0.59239 0.0626,-1.00572 0.16019,-1.26562 0.0976,-0.25991 0.20334,-0.37147 0.38678,-0.47266 0.366,-0.20191 1.19478,-0.24702 2.45349,-0.26172 z"
     id="path2732-8-9-9"
     style="color:#000000;font-style:normal;font-variant:normal;font-weight:normal;font-stretch:normal;font-size:medium;line-height:normal;font-family:sans-serif;font-variant-ligatures:normal;font-variant-position:normal;font-variant-caps:normal;font-variant-numeric:normal;font-variant-alternates:normal;font-feature-settings:normal;text-indent:0;text-align:start;text-decoration:none;text-decoration-line:none;text-decoration-style:solid;text-decoration-color:#000000;letter-spacing:normal;word-spacing:normal;text-transform:none;writing-mode:lr-tb;direction:ltr;text-orientation:mixed;dominant-baseline:auto;baseline-shift:baseline;text-anchor:start;white-space:normal;shape-padding:0;clip-rule:nonzero;display:inline;overflow:visible;visibility:visible;opacity:1;isolation:auto;mix-blend-mode:normal;color-interpolation:sRGB;color-interpolation-filters:linearRGB;solid-color:#000000;solid-opacity:1;vector-effect:none;fill:#232629;fill-opacity:1;fill-rule:nonzero;stroke:none;stroke-width:1.00007653;stroke-linecap:butt;stroke-linejoin:miter;stroke-miterlimit:4;stroke-dasharray:none;stroke-dashoffset:0;stroke-opacity:1;marker:none;color-rendering:auto;image-rendering:auto;shape-rendering:auto;text-rendering:auto;enable-background:accumulate"
     inkscape:connector-curvature="0"
     sodipodi:nodetypes="cccsscsccccccsccccccccscccccccsscccc" />
  <g
     transform="matrix(0.06204414,0,0,0.06204414,4.0790645,3.7130851)"
     style="display:inline;fill:none;fill-opacity:1;stroke:#232629;stroke-opacity:1;enable-background:new"
     id="g978-7-6-9">
    <circle
       r="18"
       cy="158.3721"
       cx="86.41613"
       id="path933-0-2-2"
       style="opacity:1;fill:none;fill-opacity:1;stroke:#232629;stroke-width:16.11755753;stroke-linecap:butt;stroke-linejoin:miter;stroke-miterlimit:4;stroke-dasharray:none;stroke-opacity:1" />
    <path
       sodipodi:nodetypes="cc"
       inkscape:connector-curvature="0"
       id="path935-9-6-0"
       d="m 101.98215,149.33335 39.07831,-21.27328"
       style="fill:none;fill-opacity:1;stroke:#232629;stroke-width:16.11755753;stroke-linecap:butt;stroke-linejoin:miter;stroke-miterlimit:4;stroke-dasharray:none;stroke-opacity:1" />
    <path
       sodipodi:nodetypes="cc"
       inkscape:connector-curvature="0"
       id="path935-6-3-1-2"
       d="m 102.22109,166.98623 39.0783,21.27328"
       style="display:inline;fill:none;fill-opacity:1;stroke:#232629;stroke-width:16.11755753;stroke-linecap:butt;stroke-linejoin:miter;stroke-miterlimit:4;stroke-dasharray:none;stroke-opacity:1;enable-background:new" />
    <circle
       r="18"
       cy="204.2114"
       cx="168.91614"
       id="path933-7-6-8-3"
       style="display:inline;opacity:1;fill:none;fill-opacity:1;stroke:#232629;stroke-width:16.11755753;stroke-linecap:butt;stroke-linejoin:miter;stroke-miterlimit:4;stroke-dasharray:none;stroke-opacity:1;enable-background:new" />
    <circle
       r="18"
       cy="112.53282"
       cx="168.91614"
       id="path933-5-0-7-7"
       style="display:inline;opacity:1;fill:none;fill-opacity:1;stroke:#232629;stroke-width:16.11755753;stroke-linecap:butt;stroke-linejoin:miter;stroke-miterlimit:4;stroke-dasharray:none;stroke-opacity:1;enable-background:new" />
  </g>
</svg>
