<?xml version="1.0" encoding="UTF-8" standalone="no"?>
<svg
   xmlns:dc="http://purl.org/dc/elements/1.1/"
   xmlns:cc="http://creativecommons.org/ns#"
   xmlns:rdf="http://www.w3.org/1999/02/22-rdf-syntax-ns#"
   xmlns:svg="http://www.w3.org/2000/svg"
   xmlns="http://www.w3.org/2000/svg"
   xmlns:sodipodi="http://sodipodi.sourceforge.net/DTD/sodipodi-0.dtd"
   xmlns:inkscape="http://www.inkscape.org/namespaces/inkscape"
   viewBox="0 0 24 24"
   version="1.1"
   id="svg6"
   sodipodi:docname="lc_spellonline.svg"
   inkscape:version="0.92.4 (5da689c313, 2019-01-14)"
   inkscape:export-filename="/home/jupiter007/Libreoffice yaru theme fullcolor/build/cmd/lc_spellonline.png"
   inkscape:export-xdpi="96"
   inkscape:export-ydpi="96">
  <metadata
     id="metadata12">
    <rdf:RDF>
      <cc:Work
         rdf:about="">
        <dc:format>image/svg+xml</dc:format>
        <dc:type
           rdf:resource="http://purl.org/dc/dcmitype/StillImage" />
      </cc:Work>
    </rdf:RDF>
  </metadata>
  <defs
     id="defs10" />
  <sodipodi:namedview
     pagecolor="#ffffff"
     bordercolor="#666666"
     borderopacity="1"
     objecttolerance="10"
     gridtolerance="10"
     guidetolerance="10"
     inkscape:pageopacity="0"
     inkscape:pageshadow="2"
     inkscape:window-width="1920"
     inkscape:window-height="1011"
     id="namedview8"
     showgrid="true"
     inkscape:zoom="78.666668"
     inkscape:cx="20.187585"
     inkscape:cy="4.8077866"
     inkscape:window-x="1920"
     inkscape:window-y="32"
     inkscape:window-maximized="1"
     inkscape:current-layer="svg6">
    <inkscape:grid
       type="xygrid"
       id="grid828" />
  </sodipodi:namedview>
  <path
     inkscape:connector-curvature="0"
     id="path821"
     d="m 6,18 c -0.416667,0 -0.7662926,0.237521 -0.9785156,0.492188 -0.212222,0.254666 -0.34375,0.535156 -0.46875,0.785156 -0.125,0.25 -0.243472,0.46951 -0.34375,0.589844 C 4.1087074,19.987521 4.083333,20 4,20 v 1 c 0.416667,0 0.7662926,-0.237521 0.9785156,-0.492188 0.212222,-0.254666 0.34375,-0.535156 0.46875,-0.785156 0.125,-0.25 0.243472,-0.46951 0.34375,-0.589844 C 5.8912926,19.012479 5.916667,19 6,19 c 0.08333,0 0.1087074,0.01248 0.2089844,0.132812 0.100278,0.120334 0.21875,0.339844 0.34375,0.589844 0.125,0.25 0.256528,0.53049 0.46875,0.785156 C 7.2337074,20.762479 7.583333,21 8,21 c 0.416667,0 0.7662926,-0.237521 0.9785156,-0.492188 0.212222,-0.254666 0.34375,-0.535156 0.46875,-0.785156 0.125,-0.25 0.243472,-0.46951 0.34375,-0.589844 C 9.8912926,19.012479 9.916667,19 10,19 c 0.08333,0 0.108707,0.01248 0.208984,0.132812 0.100278,0.120334 0.21875,0.339844 0.34375,0.589844 0.125,0.25 0.256528,0.53049 0.46875,0.785156 C 11.233707,20.762479 11.583333,21 12,21 c 0.416667,0 0.766293,-0.237521 0.978516,-0.492188 0.212222,-0.254666 0.34375,-0.535156 0.46875,-0.785156 0.125,-0.25 0.243472,-0.46951 0.34375,-0.589844 C 13.891293,19.012479 13.916667,19 14,19 c 0.08333,0 0.108707,0.01248 0.208984,0.132812 0.100278,0.120334 0.21875,0.339844 0.34375,0.589844 0.125,0.25 0.256528,0.53049 0.46875,0.785156 C 15.233707,20.762479 15.583333,21 16,21 c 0.416667,0 0.766293,-0.237521 0.978516,-0.492188 0.212222,-0.254666 0.34375,-0.535156 0.46875,-0.785156 0.125,-0.25 0.243472,-0.46951 0.34375,-0.589844 C 17.891293,19.012479 17.916667,19 18,19 c 0.08333,0 0.108707,0.01248 0.208984,0.132812 0.100278,0.120334 0.21875,0.339844 0.34375,0.589844 0.125,0.25 0.256528,0.53049 0.46875,0.785156 C 19.233707,20.762479 19.583333,21 20,21 v -1 c -0.08333,0 -0.108707,-0.01248 -0.208984,-0.132812 -0.100278,-0.120334 -0.21875,-0.339844 -0.34375,-0.589844 -0.125,-0.25 -0.256528,-0.53049 -0.46875,-0.785156 C 18.766293,18.237521 18.416667,18 18,18 c -0.416667,0 -0.766293,0.237521 -0.978516,0.492188 -0.212222,0.254666 -0.34375,0.535156 -0.46875,0.785156 -0.125,0.25 -0.243472,0.46951 -0.34375,0.589844 C 16.108707,19.987521 16.083333,20 16,20 c -0.08333,0 -0.108707,-0.01248 -0.208984,-0.132812 -0.100278,-0.120334 -0.21875,-0.339844 -0.34375,-0.589844 -0.125,-0.25 -0.256528,-0.53049 -0.46875,-0.785156 C 14.766293,18.237521 14.416667,18 14,18 c -0.416667,0 -0.766293,0.237521 -0.978516,0.492188 -0.212222,0.254666 -0.34375,0.535156 -0.46875,0.785156 -0.125,0.25 -0.243472,0.46951 -0.34375,0.589844 C 12.108707,19.987521 12.083333,20 12,20 c -0.08333,0 -0.108707,-0.01248 -0.208984,-0.132812 -0.100278,-0.120334 -0.21875,-0.339844 -0.34375,-0.589844 -0.125,-0.25 -0.256528,-0.53049 -0.46875,-0.785156 C 10.766293,18.237521 10.416667,18 10,18 c -0.416667,0 -0.7662926,0.237521 -0.9785156,0.492188 -0.212222,0.254666 -0.34375,0.535156 -0.46875,0.785156 -0.125,0.25 -0.243472,0.46951 -0.34375,0.589844 C 8.1087074,19.987521 8.083333,20 8,20 7.91667,20 7.8912926,19.98752 7.7910156,19.867188 c -0.100278,-0.120334 -0.21875,-0.339844 -0.34375,-0.589844 -0.125,-0.25 -0.256528,-0.53049 -0.46875,-0.785156 C 6.7662926,18.237521 6.416667,18 6,18 Z"
     style="color:#000000;font-style:normal;font-variant:normal;font-weight:normal;font-stretch:normal;font-size:medium;line-height:normal;font-family:sans-serif;font-variant-ligatures:normal;font-variant-position:normal;font-variant-caps:normal;font-variant-numeric:normal;font-variant-alternates:normal;font-feature-settings:normal;text-indent:0;text-align:start;text-decoration:none;text-decoration-line:none;text-decoration-style:solid;text-decoration-color:#000000;letter-spacing:normal;word-spacing:normal;text-transform:none;writing-mode:lr-tb;direction:ltr;text-orientation:mixed;dominant-baseline:auto;baseline-shift:baseline;text-anchor:start;white-space:normal;shape-padding:0;clip-rule:nonzero;display:inline;overflow:visible;visibility:visible;opacity:1;isolation:auto;mix-blend-mode:normal;color-interpolation:sRGB;color-interpolation-filters:linearRGB;solid-color:#000000;solid-opacity:1;vector-effect:none;fill:#ffffff;fill-opacity:1;fill-rule:nonzero;stroke:#ffffff;stroke-width:2;stroke-linecap:butt;stroke-linejoin:miter;stroke-miterlimit:4;stroke-dasharray:none;stroke-dashoffset:0;stroke-opacity:1;color-rendering:auto;image-rendering:auto;shape-rendering:auto;text-rendering:auto;enable-background:accumulate" />
  <path
     style="fill:#ffffff;fill-opacity:1;stroke:#ffffff;stroke-width:2;stroke-linecap:round;stroke-linejoin:round;stroke-miterlimit:4;stroke-dasharray:none;stroke-opacity:1"
     inkscape:connector-curvature="0"
     id="path817"
     d="M 10.910156,3 7.5957031,12.59375 7.4726562,13 6,17 h 1.6582031 l 1.625,-4.4375 H 14.716797 L 16.341797,17 H 18 L 16.527344,13 16.404297,12.59375 13.089844,3 H 12.875 11.125 Z m 1.105469,1.9375 2.179687,6.34375 H 9.8046875 Z" />
  <path
     d="M 10.910156,3 7.5957031,12.59375 7.4726562,13 6,17 h 1.6582031 l 1.625,-4.4375 H 14.716797 L 16.341797,17 H 18 L 16.527344,13 16.404297,12.59375 13.089844,3 H 12.875 11.125 Z m 1.105469,1.9375 2.179687,6.34375 H 9.8046875 Z"
     id="path4-5"
     inkscape:connector-curvature="0"
     style="opacity:0.98999999;fill:#6d6d6d;fill-opacity:1" />
  <path
     style="color:#000000;font-style:normal;font-variant:normal;font-weight:normal;font-stretch:normal;font-size:medium;line-height:normal;font-family:sans-serif;font-variant-ligatures:normal;font-variant-position:normal;font-variant-caps:normal;font-variant-numeric:normal;font-variant-alternates:normal;font-feature-settings:normal;text-indent:0;text-align:start;text-decoration:none;text-decoration-line:none;text-decoration-style:solid;text-decoration-color:#000000;letter-spacing:normal;word-spacing:normal;text-transform:none;writing-mode:lr-tb;direction:ltr;text-orientation:mixed;dominant-baseline:auto;baseline-shift:baseline;text-anchor:start;white-space:normal;shape-padding:0;clip-rule:nonzero;display:inline;overflow:visible;visibility:visible;opacity:1;isolation:auto;mix-blend-mode:normal;color-interpolation:sRGB;color-interpolation-filters:linearRGB;solid-color:#000000;solid-opacity:1;vector-effect:none;fill:#0e8420;fill-opacity:1;fill-rule:nonzero;stroke:none;stroke-width:1px;stroke-linecap:butt;stroke-linejoin:miter;stroke-miterlimit:4;stroke-dasharray:none;stroke-dashoffset:0;stroke-opacity:1;color-rendering:auto;image-rendering:auto;shape-rendering:auto;text-rendering:auto;enable-background:accumulate"
     d="m 6,18 c -0.416667,0 -0.7662926,0.237521 -0.9785156,0.492188 -0.212222,0.254666 -0.34375,0.535156 -0.46875,0.785156 -0.125,0.25 -0.243472,0.46951 -0.34375,0.589844 C 4.1087074,19.987521 4.083333,20 4,20 v 1 c 0.416667,0 0.7662926,-0.237521 0.9785156,-0.492188 0.212222,-0.254666 0.34375,-0.535156 0.46875,-0.785156 0.125,-0.25 0.243472,-0.46951 0.34375,-0.589844 C 5.8912926,19.012479 5.916667,19 6,19 c 0.08333,0 0.1087074,0.01248 0.2089844,0.132812 0.100278,0.120334 0.21875,0.339844 0.34375,0.589844 0.125,0.25 0.256528,0.53049 0.46875,0.785156 C 7.2337074,20.762479 7.583333,21 8,21 c 0.416667,0 0.7662926,-0.237521 0.9785156,-0.492188 0.212222,-0.254666 0.34375,-0.535156 0.46875,-0.785156 0.125,-0.25 0.243472,-0.46951 0.34375,-0.589844 C 9.8912926,19.012479 9.916667,19 10,19 c 0.08333,0 0.108707,0.01248 0.208984,0.132812 0.100278,0.120334 0.21875,0.339844 0.34375,0.589844 0.125,0.25 0.256528,0.53049 0.46875,0.785156 C 11.233707,20.762479 11.583333,21 12,21 c 0.416667,0 0.766293,-0.237521 0.978516,-0.492188 0.212222,-0.254666 0.34375,-0.535156 0.46875,-0.785156 0.125,-0.25 0.243472,-0.46951 0.34375,-0.589844 C 13.891293,19.012479 13.916667,19 14,19 c 0.08333,0 0.108707,0.01248 0.208984,0.132812 0.100278,0.120334 0.21875,0.339844 0.34375,0.589844 0.125,0.25 0.256528,0.53049 0.46875,0.785156 C 15.233707,20.762479 15.583333,21 16,21 c 0.416667,0 0.766293,-0.237521 0.978516,-0.492188 0.212222,-0.254666 0.34375,-0.535156 0.46875,-0.785156 0.125,-0.25 0.243472,-0.46951 0.34375,-0.589844 C 17.891293,19.012479 17.916667,19 18,19 c 0.08333,0 0.108707,0.01248 0.208984,0.132812 0.100278,0.120334 0.21875,0.339844 0.34375,0.589844 0.125,0.25 0.256528,0.53049 0.46875,0.785156 C 19.233707,20.762479 19.583333,21 20,21 v -1 c -0.08333,0 -0.108707,-0.01248 -0.208984,-0.132812 -0.100278,-0.120334 -0.21875,-0.339844 -0.34375,-0.589844 -0.125,-0.25 -0.256528,-0.53049 -0.46875,-0.785156 C 18.766293,18.237521 18.416667,18 18,18 c -0.416667,0 -0.766293,0.237521 -0.978516,0.492188 -0.212222,0.254666 -0.34375,0.535156 -0.46875,0.785156 -0.125,0.25 -0.243472,0.46951 -0.34375,0.589844 C 16.108707,19.987521 16.083333,20 16,20 c -0.08333,0 -0.108707,-0.01248 -0.208984,-0.132812 -0.100278,-0.120334 -0.21875,-0.339844 -0.34375,-0.589844 -0.125,-0.25 -0.256528,-0.53049 -0.46875,-0.785156 C 14.766293,18.237521 14.416667,18 14,18 c -0.416667,0 -0.766293,0.237521 -0.978516,0.492188 -0.212222,0.254666 -0.34375,0.535156 -0.46875,0.785156 -0.125,0.25 -0.243472,0.46951 -0.34375,0.589844 C 12.108707,19.987521 12.083333,20 12,20 c -0.08333,0 -0.108707,-0.01248 -0.208984,-0.132812 -0.100278,-0.120334 -0.21875,-0.339844 -0.34375,-0.589844 -0.125,-0.25 -0.256528,-0.53049 -0.46875,-0.785156 C 10.766293,18.237521 10.416667,18 10,18 c -0.416667,0 -0.7662926,0.237521 -0.9785156,0.492188 -0.212222,0.254666 -0.34375,0.535156 -0.46875,0.785156 -0.125,0.25 -0.243472,0.46951 -0.34375,0.589844 C 8.1087074,19.987521 8.083333,20 8,20 7.91667,20 7.8912926,19.98752 7.7910156,19.867188 c -0.100278,-0.120334 -0.21875,-0.339844 -0.34375,-0.589844 -0.125,-0.25 -0.256528,-0.53049 -0.46875,-0.785156 C 6.7662926,18.237521 6.416667,18 6,18 Z"
     id="path824-3"
     inkscape:connector-curvature="0" />
  <circle
     style="opacity:1;fill:#46a926;fill-opacity:1;stroke:none;stroke-width:2;stroke-linecap:round;stroke-linejoin:round;stroke-miterlimit:4;stroke-dasharray:none;stroke-opacity:1"
     id="path850"
     cx="19.5"
     cy="19.5"
     r="3.5" />
  <path
     id="path845"
     style="fill:#ffffff;fill-opacity:1"
     d="m 21.6875,18.3125 -0.75,0.75 C 20.9785,19.1996 21,19.34921 21,19.5 21,20.331 20.331,21 19.5,21 19.34921,21 19.1996,20.9785 19.0625,20.9375 l -0.75,0.75 C 18.66714,21.88 19.06657,22 19.5,22 20.885,22 22,20.885 22,19.5 22,19.06657 21.88,18.66714 21.6875,18.3125 Z M 19.5,17 c -1.385,0 -2.5,1.115 -2.5,2.5 0,0.43343 0.12,0.83286 0.3125,1.1875 l 0.75,-0.75 C 18.0215,19.8004 18,19.65079 18,19.5 18,18.669 18.669,18 19.5,18 c 0.15079,0 0.3004,0.0215 0.4375,0.0625 l 0.75,-0.75 C 20.33286,17.12 19.93343,17 19.5,17 Z"
     inkscape:connector-curvature="0" />
</svg>
