<?xml version="1.0" encoding="UTF-8" standalone="no"?>
<svg
   xmlns:dc="http://purl.org/dc/elements/1.1/"
   xmlns:cc="http://creativecommons.org/ns#"
   xmlns:rdf="http://www.w3.org/1999/02/22-rdf-syntax-ns#"
   xmlns:svg="http://www.w3.org/2000/svg"
   xmlns="http://www.w3.org/2000/svg"
   xmlns:sodipodi="http://sodipodi.sourceforge.net/DTD/sodipodi-0.dtd"
   xmlns:inkscape="http://www.inkscape.org/namespaces/inkscape"
   viewBox="0 0 24 24"
   version="1.1"
   id="svg4"
   sodipodi:docname="lc_snapborder.svg"
   inkscape:version="1.0.1 (3bc2e813f5, 2020-09-07)"
   inkscape:export-filename="/home/jupiter007/Libreoffice yaru theme fullcolor/build/cmd/lc_snapborder.png"
   inkscape:export-xdpi="95"
   inkscape:export-ydpi="95">
  <metadata
     id="metadata10">
    <rdf:RDF>
      <cc:Work
         rdf:about="">
        <dc:format>image/svg+xml</dc:format>
        <dc:type
           rdf:resource="http://purl.org/dc/dcmitype/StillImage" />
      </cc:Work>
    </rdf:RDF>
  </metadata>
  <defs
     id="defs8" />
  <sodipodi:namedview
     pagecolor="#ffffff"
     bordercolor="#666666"
     borderopacity="1"
     objecttolerance="10"
     gridtolerance="10"
     guidetolerance="10"
     inkscape:pageopacity="0"
     inkscape:pageshadow="2"
     inkscape:window-width="1920"
     inkscape:window-height="1011"
     id="namedview6"
     showgrid="true"
     inkscape:zoom="13.906433"
     inkscape:cx="-6.7936058"
     inkscape:cy="14.727979"
     inkscape:window-x="0"
     inkscape:window-y="0"
     inkscape:window-maximized="1"
     inkscape:current-layer="svg4"
     inkscape:document-rotation="0">
    <inkscape:grid
       type="xygrid"
       id="grid823" />
  </sodipodi:namedview>
  <path
     id="rect824"
     style="opacity:1;fill:#ffffff;fill-opacity:1;stroke:none;stroke-width:1;stroke-linecap:round;stroke-linejoin:round;stroke-miterlimit:4;stroke-dasharray:none;stroke-opacity:1"
     d="M 4,4 H 20 V 20 H 4 Z"
     sodipodi:nodetypes="ccccc" />
  <path
     d="M 2,2 V 22 H 22 V 20 2 Z M 4,4 H 20 V 20 H 4 Z"
     fill="#e95420"
     id="path2"
     sodipodi:nodetypes="ccccccccccc" />
  <path
     id="path4"
     d="M 3,3 V 21 H 21 V 3 Z M 4,4 H 20 V 20 H 4 Z"
     sodipodi:nodetypes="cccccccccc"
     style="fill:#232629;fill-opacity:1" />
  <path
     id="path883"
     style="opacity:0.7;fill:#000000;fill-rule:evenodd;stroke:#000000;stroke-width:2;stroke-linecap:round;stroke-linejoin:round;stroke-miterlimit:4;stroke-dasharray:none"
     d="M 19.951172,15 A 2,2 0 0 0 18,17 v 2 h -1 v 4 h 6 v -4 h -1 v -2 a 2,2 0 0 0 -2,-2 2,2 0 0 0 -0.04883,0 z M 20,16 a 1,1 0 0 1 1,1 v 2 h -2 v -2 a 1,1 0 0 1 1,-1 z" />
  <path
     id="path855"
     style="opacity:1;fill:#fee581;fill-opacity:1;fill-rule:evenodd;stroke-width:1.88562;stroke-linecap:round;stroke-linejoin:round"
     d="M 19.951172,15 A 2,2 0 0 0 18,17 v 2 h -1 v 4 h 6 v -4 h -1 v -2 a 2,2 0 0 0 -2,-2 2,2 0 0 0 -0.04883,0 z M 20,16 a 1,1 0 0 1 1,1 v 2 h -2 v -2 a 1,1 0 0 1 1,-1 z" />
</svg>
