<?xml version="1.0" encoding="UTF-8" standalone="no"?>
<svg
   xmlns:dc="http://purl.org/dc/elements/1.1/"
   xmlns:cc="http://creativecommons.org/ns#"
   xmlns:rdf="http://www.w3.org/1999/02/22-rdf-syntax-ns#"
   xmlns:svg="http://www.w3.org/2000/svg"
   xmlns="http://www.w3.org/2000/svg"
   xmlns:sodipodi="http://sodipodi.sourceforge.net/DTD/sodipodi-0.dtd"
   xmlns:inkscape="http://www.inkscape.org/namespaces/inkscape"
   viewBox="0 0 24 24"
   version="1.1"
   id="svg6"
   sodipodi:docname="lc_subscript.svg"
   inkscape:version="0.92.4 (5da689c313, 2019-01-14)"
   inkscape:export-filename="/home/jupiter007/Libreoffice yaru theme fullcolor/build/cmd/lc_subscript.png"
   inkscape:export-xdpi="95"
   inkscape:export-ydpi="95">
  <metadata
     id="metadata12">
    <rdf:RDF>
      <cc:Work
         rdf:about="">
        <dc:format>image/svg+xml</dc:format>
        <dc:type
           rdf:resource="http://purl.org/dc/dcmitype/StillImage" />
      </cc:Work>
    </rdf:RDF>
  </metadata>
  <defs
     id="defs10" />
  <sodipodi:namedview
     pagecolor="#ffffff"
     bordercolor="#666666"
     borderopacity="1"
     objecttolerance="10"
     gridtolerance="10"
     guidetolerance="10"
     inkscape:pageopacity="0"
     inkscape:pageshadow="2"
     inkscape:window-width="1920"
     inkscape:window-height="1011"
     id="namedview8"
     showgrid="true"
     inkscape:zoom="16"
     inkscape:cx="16.333137"
     inkscape:cy="9.9002089"
     inkscape:window-x="1920"
     inkscape:window-y="32"
     inkscape:window-maximized="1"
     inkscape:current-layer="svg6">
    <inkscape:grid
       type="xygrid"
       id="grid815" />
  </sodipodi:namedview>
  <path
     style="fill:#ffffff;fill-opacity:1;stroke:#ffffff;stroke-opacity:1;stroke-width:2;stroke-miterlimit:4;stroke-dasharray:none;stroke-linejoin:round"
     id="path818"
     fill="#762572"
     d="m16 15v2 1 2 1h1 2c1.108 0 2-.892 2-2 0-.81094-.481265-1.501896-1.171875-1.816406.10595-.20585.171875-.435284.171875-.683594 0-.831-.669-1.5-1.5-1.5h-1.5zm1 1h1.5c.277 0 .5.223.5.5s-.223.5-.5.5h-1.5zm0 2h1.5.5c.554 0 1 .446 1 1s-.446 1-1 1h-2z" />
  <path
     sodipodi:nodetypes="ccccccccccccccccc"
     inkscape:connector-curvature="0"
     style="fill:#ffffff;fill-opacity:1;stroke:#ffffff;stroke-opacity:1;stroke-width:2;stroke-miterlimit:4;stroke-dasharray:none;stroke-linejoin:round"
     id="path819"
     d="M 9.9030929,13 12.015625,6.9375 14.100181,13 Z m 5.6646561,1 h 0.632363 L 13.089844,5 H 12.875 11.125 10.910156 L 7.5957031,14.59375 7.4726562,15 6,19 h 1.6582031 l 1.625,-4.4375 0.2233574,-0.562997 z" />
  <path
     d="M 9.9030929,13 12.015625,6.9375 14.100181,13 Z m 5.6646561,1 h 0.632363 L 13.089844,5 H 12.875 11.125 10.910156 L 7.5957031,14.59375 7.4726562,15 6,19 h 1.6582031 l 1.625,-4.4375 0.2233574,-0.562997 z"
     id="path2"
     style="fill:#6d6d6d;fill-opacity:1"
     inkscape:connector-curvature="0"
     sodipodi:nodetypes="ccccccccccccccccc" />
  <path
     d="m16 15v2 1 2 1h1 2c1.108 0 2-.892 2-2 0-.81094-.481265-1.501896-1.171875-1.816406.10595-.20585.171875-.435284.171875-.683594 0-.831-.669-1.5-1.5-1.5h-1.5zm1 1h1.5c.277 0 .5.223.5.5s-.223.5-.5.5h-1.5zm0 2h1.5.5c.554 0 1 .446 1 1s-.446 1-1 1h-2z"
     fill="#762572"
     id="path4"
     style="fill:#762572;fill-opacity:1" />
</svg>
