<?xml version="1.0" encoding="UTF-8" standalone="no"?>
<svg
   viewBox="0 0 24 24"
   version="1.1"
   id="svg6"
   sodipodi:docname="lc_textbodyparastyle.svg"
   inkscape:export-filename="/home/jupiter007/Libreoffice yaru theme fullcolor/build/cmd/lc_textbodyparastyle.png"
   inkscape:export-xdpi="96"
   inkscape:export-ydpi="96"
   inkscape:version="1.1 (ce6663b3b7, 2021-05-25)"
   xmlns:inkscape="http://www.inkscape.org/namespaces/inkscape"
   xmlns:sodipodi="http://sodipodi.sourceforge.net/DTD/sodipodi-0.dtd"
   xmlns:xlink="http://www.w3.org/1999/xlink"
   xmlns="http://www.w3.org/2000/svg"
   xmlns:svg="http://www.w3.org/2000/svg"
   xmlns:rdf="http://www.w3.org/1999/02/22-rdf-syntax-ns#"
   xmlns:cc="http://creativecommons.org/ns#"
   xmlns:dc="http://purl.org/dc/elements/1.1/">
  <metadata
     id="metadata12">
    <rdf:RDF>
      <cc:Work
         rdf:about="">
        <dc:format>image/svg+xml</dc:format>
        <dc:type
           rdf:resource="http://purl.org/dc/dcmitype/StillImage" />
      </cc:Work>
    </rdf:RDF>
  </metadata>
  <defs
     id="defs10">
    <linearGradient
       inkscape:collect="always"
       xlink:href="#linearGradient840"
       id="linearGradient842"
       x1="11"
       y1="4"
       x2="11"
       y2="18"
       gradientUnits="userSpaceOnUse"
       gradientTransform="translate(2.2e-7,0.99999986)" />
    <linearGradient
       inkscape:collect="always"
       id="linearGradient840">
      <stop
         style="stop-color:#151515;stop-opacity:1"
         offset="0"
         id="stop836" />
      <stop
         style="stop-color:#4d4d4d;stop-opacity:1"
         offset="1"
         id="stop838" />
    </linearGradient>
  </defs>
  <sodipodi:namedview
     pagecolor="#808080"
     bordercolor="#666666"
     borderopacity="1"
     objecttolerance="10"
     gridtolerance="10"
     guidetolerance="10"
     inkscape:pageopacity="0"
     inkscape:pageshadow="2"
     inkscape:window-width="1920"
     inkscape:window-height="1016"
     id="namedview8"
     showgrid="true"
     inkscape:zoom="27.812866"
     inkscape:cx="15.370584"
     inkscape:cy="15.33463"
     inkscape:window-x="0"
     inkscape:window-y="27"
     inkscape:window-maximized="1"
     inkscape:current-layer="svg6"
     inkscape:document-rotation="0"
     inkscape:pagecheckerboard="0">
    <inkscape:grid
       type="xygrid"
       id="grid2748" />
  </sodipodi:namedview>
  <path
     id="path837"
     style="color:#000000;fill:#ffffff;stroke-linejoin:round;-inkscape-stroke:none"
     d="M 10 4 A 1.0001 1.0001 0 0 0 9.0585938 4.6640625 L 4.0585938 18.664062 A 1.0001 1.0001 0 0 0 5 20 L 8 20 A 1.0001 1.0001 0 0 0 8.9394531 19.341797 L 10.15625 16 L 13.84375 16 L 15.060547 19.341797 A 1.0001 1.0001 0 0 0 16 20 L 19 20 L 19 19.796875 C 16.741788 19.317234 15 17.39552 15 15 C 15 14.718371 15.024976 14.443101 15.070312 14.173828 A 1.0001 1.0001 0 0 0 14.544922 14 L 13.818359 14 A 1.0001 1.0001 0 0 0 14.757812 12.658203 L 12.939453 7.6582031 A 1.0001 1.0001 0 0 0 11.060547 7.6582031 L 9.2421875 12.658203 A 1.0001 1.0001 0 0 0 10.181641 14 L 9.4550781 14 A 1.0001 1.0001 0 0 0 8.515625 14.658203 L 7.2988281 18 L 6.4179688 18 L 10.705078 6 L 13.294922 6 L 15.638672 12.5625 C 16.013943 11.895571 16.537439 11.323026 17.164062 10.888672 L 14.941406 4.6640625 A 1.0001 1.0001 0 0 0 14 4 L 10 4 z M 12 10.925781 L 12.390625 12 L 11.609375 12 L 12 10.925781 z " />
  <path
     id="path2"
     style="fill:url(#linearGradient842);fill-opacity:1"
     d="M 10 5 L 5 19 L 8 19 L 9.4550781 15 L 14.544922 15 L 16 19 L 17.138672 19 C 15.853422 18.11942 15 16.675771 15 15 C 15 13.684963 15.515579 12.484937 16.353516 11.589844 L 14 5 L 10 5 z M 12 8 L 13.818359 13 L 10.181641 13 L 12 8 z M 17.193359 13.941406 C 17.070631 14.270516 17 14.625729 17 15 C 17 16.119985 17.601083 17.086056 18.5 17.601562 L 17.193359 13.941406 z " />
  <path
     style="color:#000000;opacity:0.7;fill:#000000;stroke-width:2;stroke-linejoin:round;-inkscape-stroke:none"
     d="m 20,11 c -2.20914,0 -4,1.79085 -4,4 0,2.20915 1.79086,4 4,4 v 1 3 h 1 v -3 -8 h 1 v 8 3 h 1 v -3 -9 h -2 z"
     id="path2847" />
  <path
     inkscape:connector-curvature="0"
     d="m 20,11 c -2.20914,0 -4,1.79085 -4,4 0,2.20915 1.79086,4 4,4 v 1 4 h 1 v -4 -8 h 1 v 8 4 h 1 v -4 -9 h -2 z"
     id="path2-8"
     style="fill:#e95420;fill-opacity:1"
     sodipodi:nodetypes="sscccccccccccccs" />
</svg>
