<?xml version="1.0" encoding="UTF-8" standalone="no"?>
<svg
   xmlns:dc="http://purl.org/dc/elements/1.1/"
   xmlns:cc="http://creativecommons.org/ns#"
   xmlns:rdf="http://www.w3.org/1999/02/22-rdf-syntax-ns#"
   xmlns:svg="http://www.w3.org/2000/svg"
   xmlns="http://www.w3.org/2000/svg"
   xmlns:sodipodi="http://sodipodi.sourceforge.net/DTD/sodipodi-0.dtd"
   xmlns:inkscape="http://www.inkscape.org/namespaces/inkscape"
   viewBox="0 0 24 24"
   version="1.1"
   id="svg6"
   sodipodi:docname="lc_titlepagedialog.svg"
   inkscape:version="0.92.4 (5da689c313, 2019-01-14)">
  <metadata
     id="metadata12">
    <rdf:RDF>
      <cc:Work
         rdf:about="">
        <dc:format>image/svg+xml</dc:format>
        <dc:type
           rdf:resource="http://purl.org/dc/dcmitype/StillImage" />
      </cc:Work>
    </rdf:RDF>
  </metadata>
  <defs
     id="defs10" />
  <sodipodi:namedview
     pagecolor="#ffffff"
     bordercolor="#666666"
     borderopacity="1"
     objecttolerance="10"
     gridtolerance="10"
     guidetolerance="10"
     inkscape:pageopacity="0"
     inkscape:pageshadow="2"
     inkscape:window-width="1920"
     inkscape:window-height="1011"
     id="namedview8"
     showgrid="false"
     inkscape:zoom="9.8333333"
     inkscape:cx="12"
     inkscape:cy="12"
     inkscape:window-x="1920"
     inkscape:window-y="32"
     inkscape:window-maximized="1"
     inkscape:current-layer="svg6" />
  <path
     d="m8 7v2h8v-2z"
     fill="#762572"
     id="path4" />
  <path
     d="M 8.9947491,21 C 7.7363591,20.9855 6.815529,21.0306 6.062659,20.61523 5.6862302,20.40757 5.3893302,20.05585 5.2246402,19.61719 5.0599502,19.17852 4.9997895,18.65761 4.9999995,18 l 0.00382,-12.0000002 c 2.1e-4,-0.65761 0.0599,-1.17858 0.22464,-1.61719 0.16471,-0.43861 0.46161,-0.78852 0.8380198,-0.99609 0.752839,-0.41514 1.6737998,-0.37165 2.9320888,-0.38672 h 0.002 6.0008219 0.004 c 1.25838,0.0145 2.17922,-0.0306 2.93209,0.38477 0.37642,0.20766 0.67333,0.55938 0.83801,0.99804 0.164561,0.43867 0.224511,0.95958 0.224511,1.61719 L 19,17 15,21 H 8.9984291 Z m 0.006,-1 H 14 v -4 h 4 L 17.999741,5.9999998 c -1.5e-5,-0.59239 -0.0626,-1.00572 -0.16019,-1.26562 -0.0976,-0.25991 -0.20138,-0.37147 -0.38482,-0.47266 -0.36601,-0.20192 -1.19674,-0.24701 -2.455451,-0.26172 h -5.9892809 -0.006 c -1.25882,0.0152 -2.0894201,0.0599 -2.4554501,0.26172 -0.18345,0.10116 -0.28727,0.21286 -0.38482,0.47266 -0.0976,0.25979 -0.16,0.67323 -0.16019,1.26562 L 5.999539,18 c -1.898e-4,0.59239 0.0626,1.00572 0.16019,1.26562 0.0976,0.25991 0.20334,0.37147 0.38678,0.47266 0.366,0.20191 1.1947801,0.24702 2.4534901,0.26172 z"
     id="path2732-8-9-9"
     style="color:#000000;font-style:normal;font-variant:normal;font-weight:normal;font-stretch:normal;font-size:medium;line-height:normal;font-family:sans-serif;font-variant-ligatures:normal;font-variant-position:normal;font-variant-caps:normal;font-variant-numeric:normal;font-variant-alternates:normal;font-feature-settings:normal;text-indent:0;text-align:start;text-decoration:none;text-decoration-line:none;text-decoration-style:solid;text-decoration-color:#000000;letter-spacing:normal;word-spacing:normal;text-transform:none;writing-mode:lr-tb;direction:ltr;text-orientation:mixed;dominant-baseline:auto;baseline-shift:baseline;text-anchor:start;white-space:normal;shape-padding:0;clip-rule:nonzero;display:inline;overflow:visible;visibility:visible;opacity:1;isolation:auto;mix-blend-mode:normal;color-interpolation:sRGB;color-interpolation-filters:linearRGB;solid-color:#000000;solid-opacity:1;vector-effect:none;fill:#232629;fill-opacity:1;fill-rule:nonzero;stroke:none;stroke-width:1.00007653;stroke-linecap:butt;stroke-linejoin:miter;stroke-miterlimit:4;stroke-dasharray:none;stroke-dashoffset:0;stroke-opacity:1;marker:none;color-rendering:auto;image-rendering:auto;shape-rendering:auto;text-rendering:auto;enable-background:accumulate"
     inkscape:connector-curvature="0"
     sodipodi:nodetypes="cccsscsccccccsccccccccscccccccsscccc" />
</svg>
