<?xml version="1.0" encoding="UTF-8" standalone="no"?>
<svg
   xmlns:dc="http://purl.org/dc/elements/1.1/"
   xmlns:cc="http://creativecommons.org/ns#"
   xmlns:rdf="http://www.w3.org/1999/02/22-rdf-syntax-ns#"
   xmlns:svg="http://www.w3.org/2000/svg"
   xmlns="http://www.w3.org/2000/svg"
   xmlns:sodipodi="http://sodipodi.sourceforge.net/DTD/sodipodi-0.dtd"
   xmlns:inkscape="http://www.inkscape.org/namespaces/inkscape"
   viewBox="0 0 24 24"
   version="1.1"
   id="svg6"
   sodipodi:docname="lc_texttocolumns.svg"
   inkscape:version="0.92.4 (5da689c313, 2019-01-14)">
  <metadata
     id="metadata12">
    <rdf:RDF>
      <cc:Work
         rdf:about="">
        <dc:format>image/svg+xml</dc:format>
        <dc:type
           rdf:resource="http://purl.org/dc/dcmitype/StillImage" />
      </cc:Work>
    </rdf:RDF>
  </metadata>
  <defs
     id="defs10" />
  <sodipodi:namedview
     pagecolor="#ffffff"
     bordercolor="#666666"
     borderopacity="1"
     objecttolerance="10"
     gridtolerance="10"
     guidetolerance="10"
     inkscape:pageopacity="0"
     inkscape:pageshadow="2"
     inkscape:window-width="1920"
     inkscape:window-height="1011"
     id="namedview8"
     showgrid="true"
     inkscape:zoom="16"
     inkscape:cx="14.674639"
     inkscape:cy="12.056579"
     inkscape:window-x="0"
     inkscape:window-y="32"
     inkscape:window-maximized="1"
     inkscape:current-layer="svg6">
    <inkscape:grid
       type="xygrid"
       id="grid822" />
  </sodipodi:namedview>
  <path
     d="m 4,14 v 2 1 2 c 0,2 1,2 3,2 h 5 c 2,0 3,0 3,-2 v -5 c 0,-2 -1,-2 -3,-2 H 7 c -2,0 -3,0 -3,2 z m 1,0 c 0,-1 1,-1 2,-1 h 2 v 3 H 5 Z m 5,-1 h 2 c 1,0 2,0 2,1 v 2 h -4 z m -5,4 h 4 v 3 H 7 C 6,20 5,20 5,19 Z m 5,0 h 4 v 2 c 0,1 -1,1 -2,1 h -2 z"
     id="path2"
     inkscape:connector-curvature="0"
     style="fill:#232629"
     sodipodi:nodetypes="ccccccccccccccccccccccccccccccccccc" />
  <path
     d="m9.5 11-2.5-3h5.000001z"
     fill="#762572"
     id="path4" />
  <path
     d="m 16,20.989812 c 0.766137,-0.01669 1.402132,-0.07923 1.93746,-0.374582 0.37642,-0.20766 0.67333,-0.55938 0.83801,-0.99804 C 18.940031,19.17852 18.99998,18.65761 18.999981,18 L 19,9 15,5 H 8.998429 8.994749 C 7.736359,5.0145 6.815529,4.9694 6.062659,5.38477 5.68623,5.59243 5.38933,5.94415 5.22464,6.38281 5.05995,6.82148 5.0039877,7.342402 5,8 v 3 H 6 L 5.999539,8 C 5.999448,7.40761 6.062139,6.99428 6.159729,6.73438 6.257329,6.47447 6.363069,6.36291 6.546509,6.26172 6.912509,6.05981 7.741289,6.0147 8.999999,6 H 9.000749 14 v 4 h 4 l -2.59e-4,8 c -1.9e-5,0.59239 -0.0626,1.00572 -0.16019,1.26562 -0.0976,0.25991 -0.20138,0.37147 -0.38482,0.47266 C 17.197529,19.880173 16.703421,19.944621 16,19.975504 Z"
     id="path2732-8-9-9"
     style="color:#000000;font-style:normal;font-variant:normal;font-weight:normal;font-stretch:normal;font-size:medium;line-height:normal;font-family:sans-serif;font-variant-ligatures:normal;font-variant-position:normal;font-variant-caps:normal;font-variant-numeric:normal;font-variant-alternates:normal;font-feature-settings:normal;text-indent:0;text-align:start;text-decoration:none;text-decoration-line:none;text-decoration-style:solid;text-decoration-color:#000000;letter-spacing:normal;word-spacing:normal;text-transform:none;writing-mode:lr-tb;direction:ltr;text-orientation:mixed;dominant-baseline:auto;baseline-shift:baseline;text-anchor:start;white-space:normal;shape-padding:0;clip-rule:nonzero;display:inline;overflow:visible;visibility:visible;opacity:1;isolation:auto;mix-blend-mode:normal;color-interpolation:sRGB;color-interpolation-filters:linearRGB;solid-color:#000000;solid-opacity:1;vector-effect:none;fill:#232629;fill-opacity:1;fill-rule:nonzero;stroke:none;stroke-width:1.00007653;stroke-linecap:butt;stroke-linejoin:miter;stroke-miterlimit:4;stroke-dasharray:none;stroke-dashoffset:0;stroke-opacity:1;marker:none;color-rendering:auto;image-rendering:auto;shape-rendering:auto;text-rendering:auto;enable-background:accumulate"
     inkscape:connector-curvature="0"
     sodipodi:nodetypes="cccsccccccsccscccccccscccc" />
</svg>
