<?xml version="1.0" encoding="UTF-8" standalone="no"?>
<svg
   xmlns:dc="http://purl.org/dc/elements/1.1/"
   xmlns:cc="http://creativecommons.org/ns#"
   xmlns:rdf="http://www.w3.org/1999/02/22-rdf-syntax-ns#"
   xmlns:svg="http://www.w3.org/2000/svg"
   xmlns="http://www.w3.org/2000/svg"
   xmlns:sodipodi="http://sodipodi.sourceforge.net/DTD/sodipodi-0.dtd"
   xmlns:inkscape="http://www.inkscape.org/namespaces/inkscape"
   viewBox="0 0 24 24"
   version="1.1"
   id="svg6"
   sodipodi:docname="lc_tablemodefixprop.svg"
   inkscape:version="1.0.1 (3bc2e813f5, 2020-09-07)"
   inkscape:export-filename="/home/jupiter007/Libreoffice yaru theme fullcolor/build/cmd/lc_tablemodefixprop.png"
   inkscape:export-xdpi="95"
   inkscape:export-ydpi="95">
  <metadata
     id="metadata12">
    <rdf:RDF>
      <cc:Work
         rdf:about="">
        <dc:format>image/svg+xml</dc:format>
        <dc:type
           rdf:resource="http://purl.org/dc/dcmitype/StillImage" />
      </cc:Work>
    </rdf:RDF>
  </metadata>
  <defs
     id="defs10" />
  <sodipodi:namedview
     pagecolor="#ffffff"
     bordercolor="#666666"
     borderopacity="1"
     objecttolerance="10"
     gridtolerance="10"
     guidetolerance="10"
     inkscape:pageopacity="0"
     inkscape:pageshadow="2"
     inkscape:window-width="1920"
     inkscape:window-height="1011"
     id="namedview8"
     showgrid="true"
     inkscape:zoom="19.666667"
     inkscape:cx="19.812069"
     inkscape:cy="10.753109"
     inkscape:window-x="0"
     inkscape:window-y="0"
     inkscape:window-maximized="1"
     inkscape:current-layer="svg6"
     inkscape:document-rotation="0">
    <inkscape:grid
       type="xygrid"
       id="grid822" />
  </sodipodi:namedview>
  <path
     sodipodi:nodetypes="ccccccccccccc"
     inkscape:connector-curvature="0"
     style="opacity:0.6;fill:#000000;fill-opacity:1;stroke:#000000;stroke-width:2;stroke-linejoin:round;stroke-miterlimit:4;stroke-dasharray:none"
     id="path828"
     d="m 3,15 v 5 h 1 v -2 h 16 v 2 h 1 v -5 h -1 v 2 H 4 v -2 z" />
  <path
     d="m 3,15 v 5 h 1 v -2 h 16 v 2 h 1 v -5 h -1 v 2 H 4 v -2 z"
     id="path4"
     style="fill:#aee3f8;fill-opacity:1"
     inkscape:connector-curvature="0"
     sodipodi:nodetypes="ccccccccccccc" />
  <path
     sodipodi:nodetypes="ssssscccccsssssssssssssss"
     style="opacity:0.6;fill:#000000;fill-opacity:1;stroke:#000000;stroke-width:2;stroke-linejoin:round;stroke-miterlimit:4;stroke-dasharray:none"
     inkscape:connector-curvature="0"
     id="path826"
     d="M 10.5,14 C 9.6715729,14 9,14.671573 9,15.5 9,16.328427 9.6715729,17 10.5,17 11.328427,17 12,16.328427 12,15.5 12,14.671573 11.328427,14 10.5,14 Z M 14.328125,14 9,20.402344 9.671875,21 15,14.597656 Z M 10.5,15 C 10.776142,15 11,15.223858 11,15.5 11,15.776142 10.776142,16 10.5,16 10.223858,16 10,15.776142 10,15.5 10,15.223858 10.223858,15 10.5,15 Z m 3,3 C 12.671573,18 12,18.671573 12,19.5 12,20.328427 12.671573,21 13.5,21 14.328427,21 15,20.328427 15,19.5 15,18.671573 14.328427,18 13.5,18 Z m 0,1 C 13.776142,19 14,19.223858 14,19.5 14,19.776142 13.776142,20 13.5,20 13.223858,20 13,19.776142 13,19.5 13,19.223858 13.223858,19 13.5,19 Z" />
  <path
     d="M 10.5,14 C 9.6715729,14 9,14.671573 9,15.5 9,16.328427 9.6715729,17 10.5,17 11.328427,17 12,16.328427 12,15.5 12,14.671573 11.328427,14 10.5,14 Z M 14.328125,14 9,20.402344 9.671875,21 15,14.597656 Z M 10.5,15 C 10.776142,15 11,15.223858 11,15.5 11,15.776142 10.776142,16 10.5,16 10.223858,16 10,15.776142 10,15.5 10,15.223858 10.223858,15 10.5,15 Z m 3,3 C 12.671573,18 12,18.671573 12,19.5 12,20.328427 12.671573,21 13.5,21 14.328427,21 15,20.328427 15,19.5 15,18.671573 14.328427,18 13.5,18 Z m 0,1 C 13.776142,19 14,19.223858 14,19.5 14,19.776142 13.776142,20 13.5,20 13.223858,20 13,19.776142 13,19.5 13,19.223858 13.223858,19 13.5,19 Z"
     id="path2"
     inkscape:connector-curvature="0"
     style="fill:#aee3f8;fill-opacity:1"
     sodipodi:nodetypes="ssssscccccsssssssssssssss" />
  <circle
     style="opacity:0.6;fill:#000000;fill-opacity:1;stroke:none;stroke-width:2;stroke-linejoin:round;stroke-miterlimit:4;stroke-dasharray:none;stroke-opacity:1"
     id="path829"
     cx="10.5"
     cy="15.5"
     r="0.5" />
  <circle
     style="opacity:0.6;fill:#000000;fill-opacity:1;stroke:none;stroke-width:2;stroke-linejoin:round;stroke-miterlimit:4;stroke-dasharray:none;stroke-opacity:1"
     id="path831"
     cx="13.5"
     cy="19.5"
     r="0.5" />
  <rect
     style="opacity:1;fill:#ffffff;fill-opacity:1;stroke:none;stroke-width:2;stroke-linecap:round;stroke-linejoin:round;stroke-miterlimit:4;stroke-dasharray:none;stroke-opacity:1"
     id="rect827"
     width="16"
     height="9"
     x="4"
     y="4"
     inkscape:export-filename="/home/jupiter007/Libreoffice yaru theme fullcolor/build/cmd/rect827.png"
     inkscape:export-xdpi="95"
     inkscape:export-ydpi="95" />
  <path
     id="path2-4"
     style="opacity:1;fill:#6d6d6d;fill-opacity:1;stroke-width:0.999999"
     d="M 6,3 C 4,3 3,3 3,5 v 8 h 1 v -2 h 5 v 2 h 1 v -2 h 4 v 2 h 1 v -2 h 5 v 2 h 1 V 5 C 21,3 20,3 18,3 Z M 6,4 H 9 V 5 7 H 8 4 V 5 C 4,4 5,4 6,4 Z m 4,0 h 4 V 5 7 H 10 V 5 Z m 5,0 h 3 c 1,0 2,0 2,1 V 7 H 16 15 V 5 Z M 4,8 h 4 1 v 2 H 4 Z m 6,0 h 4 v 2 h -4 z m 5,0 h 5 v 2 h -5 z"
     sodipodi:nodetypes="ssccccccccccccccsssscccccssccccccccssccccccccccccccccccccc" />
</svg>
