<?xml version="1.0" encoding="UTF-8" standalone="no"?>
<svg
   xmlns:dc="http://purl.org/dc/elements/1.1/"
   xmlns:cc="http://creativecommons.org/ns#"
   xmlns:rdf="http://www.w3.org/1999/02/22-rdf-syntax-ns#"
   xmlns:svg="http://www.w3.org/2000/svg"
   xmlns="http://www.w3.org/2000/svg"
   xmlns:sodipodi="http://sodipodi.sourceforge.net/DTD/sodipodi-0.dtd"
   xmlns:inkscape="http://www.inkscape.org/namespaces/inkscape"
   viewBox="0 0 24 24"
   version="1.1"
   id="svg8"
   sodipodi:docname="lc_tablemodevariable.svg"
   inkscape:version="0.92.4 (5da689c313, 2019-01-14)">
  <metadata
     id="metadata14">
    <rdf:RDF>
      <cc:Work
         rdf:about="">
        <dc:format>image/svg+xml</dc:format>
        <dc:type
           rdf:resource="http://purl.org/dc/dcmitype/StillImage" />
      </cc:Work>
    </rdf:RDF>
  </metadata>
  <defs
     id="defs12" />
  <sodipodi:namedview
     pagecolor="#ffffff"
     bordercolor="#666666"
     borderopacity="1"
     objecttolerance="10"
     gridtolerance="10"
     guidetolerance="10"
     inkscape:pageopacity="0"
     inkscape:pageshadow="2"
     inkscape:window-width="1920"
     inkscape:window-height="1011"
     id="namedview10"
     showgrid="true"
     inkscape:zoom="105.83333"
     inkscape:cx="16.007661"
     inkscape:cy="18.15496"
     inkscape:window-x="1920"
     inkscape:window-y="32"
     inkscape:window-maximized="1"
     inkscape:current-layer="svg8">
    <inkscape:grid
       type="xygrid"
       id="grid821" />
  </sodipodi:namedview>
  <path
     d="m7.296875 12.992188-2.296875 2.091796v-2.083984h-1v2.996094 1 3.003906h1v-2.091797l2.296875 2.091797.7070312-.707031-2.296875-2.296875h12.5898438l-2.296875 2.296875.707031.707031 3.292969-3.003906v-1l-3.292969-3.003906-.707031.707031 2.296875 2.296875h-12.5898438l2.296875-2.296875z"
     fill="#762572"
     id="path2" />
  <path
     d="m19 13h1v7h-1z"
     fill="#762572"
     id="path4" />
  <path
     d="m 4,6 v 6 h 1 v -1 h 4 v 1 h 1 v -1 h 4 v 1 h 1 v -1 h 4 v 1 h 1 V 6 C 20,4 19,4 17.00717,4 H 7 C 5,4 4,4 4,6 Z M 7,5 H 9 V 7 H 5 V 6 C 5,5 6,5 7,5 Z m 3,0 h 4 v 2 h -4 z m 5,0 h 2 c 1,0 2,0 2,1 V 7 H 15 Z M 5,8 h 4 v 2 H 5 Z m 5,0 h 4 v 2 h -4 z m 5,0 h 4 v 2 h -4 z"
     id="path6"
     inkscape:connector-curvature="0"
     style="fill:#232629"
     sodipodi:nodetypes="ccccccccccccccccccccccccccccccccccccccccccccccccccc" />
</svg>
