<?xml version="1.0" encoding="UTF-8" standalone="no"?>
<svg
   xmlns:dc="http://purl.org/dc/elements/1.1/"
   xmlns:cc="http://creativecommons.org/ns#"
   xmlns:rdf="http://www.w3.org/1999/02/22-rdf-syntax-ns#"
   xmlns:svg="http://www.w3.org/2000/svg"
   xmlns="http://www.w3.org/2000/svg"
   xmlns:sodipodi="http://sodipodi.sourceforge.net/DTD/sodipodi-0.dtd"
   xmlns:inkscape="http://www.inkscape.org/namespaces/inkscape"
   viewBox="0 0 24 24"
   version="1.1"
   id="svg4"
   sodipodi:docname="lc_underline.svg"
   inkscape:version="1.0.1 (3bc2e813f5, 2020-09-07)"
   inkscape:export-filename="/home/jupiter007/Libreoffice yaru theme fullcolor/build/cmd/lc_underline.png"
   inkscape:export-xdpi="96"
   inkscape:export-ydpi="96">
  <metadata
     id="metadata10">
    <rdf:RDF>
      <cc:Work
         rdf:about="">
        <dc:format>image/svg+xml</dc:format>
        <dc:type
           rdf:resource="http://purl.org/dc/dcmitype/StillImage" />
      </cc:Work>
    </rdf:RDF>
  </metadata>
  <defs
     id="defs8" />
  <sodipodi:namedview
     pagecolor="#ffffff"
     bordercolor="#666666"
     borderopacity="1"
     objecttolerance="10"
     gridtolerance="10"
     guidetolerance="10"
     inkscape:pageopacity="0"
     inkscape:pageshadow="2"
     inkscape:window-width="1920"
     inkscape:window-height="1011"
     id="namedview6"
     showgrid="true"
     inkscape:zoom="19.666667"
     inkscape:cx="2.0061048"
     inkscape:cy="8.4467951"
     inkscape:window-x="0"
     inkscape:window-y="0"
     inkscape:window-maximized="1"
     inkscape:current-layer="svg4"
     inkscape:document-rotation="0">
    <inkscape:grid
       type="xygrid"
       id="grid819" />
  </sodipodi:namedview>
  <path
     id="path820"
     d="m 5,21 v 1 h 14 v -1 z"
     style="opacity:0.7;fill:#000000;fill-opacity:1;stroke:#000000;stroke-width:2;stroke-linejoin:round;stroke-miterlimit:4;stroke-dasharray:none" />
  <path
     id="path818"
     d="m 7,3 v 4 7 c 0,2.77 2.23,5 5,5 2.77,0 5,-2.23 5,-5 V 7 3 h -3 v 4 7 c 0,1.108 -0.892,2 -2,2 -1.108,0 -2.1566949,-0.903136 -2,-2 V 7 3 Z"
     style="opacity:0.7;fill:#000000;fill-opacity:1;stroke:#000000;stroke-width:2;stroke-linejoin:round;stroke-miterlimit:4;stroke-dasharray:none"
     inkscape:connector-curvature="0"
     sodipodi:nodetypes="ccsssccccsssccc" />
  <path
     style="fill:#ffffff;fill-opacity:1"
     d="m 7,3 v 4 7 c 0,2.77 2.23,5 5,5 2.77,0 5,-2.23 5,-5 V 7 3 h -3 v 4 7 c 0,1.108 -0.892,2 -2,2 -1.108,0 -2.1566949,-0.903136 -2,-2 V 7 3 Z"
     id="path816"
     inkscape:connector-curvature="0"
     sodipodi:nodetypes="ccsssccccsssccc" />
  <path
     style="fill:#ffffff;fill-opacity:1"
     d="m 5,21 v 1 h 14 v -1 z"
     id="path2" />
</svg>
