<?xml version="1.0" encoding="UTF-8" standalone="no"?>
<svg
   xmlns:dc="http://purl.org/dc/elements/1.1/"
   xmlns:cc="http://creativecommons.org/ns#"
   xmlns:rdf="http://www.w3.org/1999/02/22-rdf-syntax-ns#"
   xmlns:svg="http://www.w3.org/2000/svg"
   xmlns="http://www.w3.org/2000/svg"
   xmlns:sodipodi="http://sodipodi.sourceforge.net/DTD/sodipodi-0.dtd"
   xmlns:inkscape="http://www.inkscape.org/namespaces/inkscape"
   viewBox="0 0 24 24"
   version="1.1"
   id="svg4"
   sodipodi:docname="lc_wordcountdialog.svg"
   inkscape:version="1.0.1 (3bc2e813f5, 2020-09-07)"
   inkscape:export-filename="/home/jupiter007/Libreoffice yaru theme fullcolor/build/cmd/lc_wordcountdialog.png"
   inkscape:export-xdpi="96"
   inkscape:export-ydpi="96">
  <metadata
     id="metadata10">
    <rdf:RDF>
      <cc:Work
         rdf:about="">
        <dc:format>image/svg+xml</dc:format>
        <dc:type
           rdf:resource="http://purl.org/dc/dcmitype/StillImage" />
      </cc:Work>
    </rdf:RDF>
  </metadata>
  <defs
     id="defs8" />
  <sodipodi:namedview
     pagecolor="#ffffff"
     bordercolor="#666666"
     borderopacity="1"
     objecttolerance="10"
     gridtolerance="10"
     guidetolerance="10"
     inkscape:pageopacity="0"
     inkscape:pageshadow="2"
     inkscape:window-width="1920"
     inkscape:window-height="1011"
     id="namedview6"
     showgrid="true"
     inkscape:zoom="19.666667"
     inkscape:cx="18.024597"
     inkscape:cy="9.1299879"
     inkscape:window-x="1920"
     inkscape:window-y="32"
     inkscape:window-maximized="1"
     inkscape:current-layer="svg4"
     inkscape:document-rotation="0">
    <inkscape:grid
       type="xygrid"
       id="grid825" />
  </sodipodi:namedview>
  <path
     id="path848"
     style="color:#000000;font-style:normal;font-variant:normal;font-weight:normal;font-stretch:normal;font-size:medium;line-height:normal;font-family:sans-serif;font-variant-ligatures:normal;font-variant-position:normal;font-variant-caps:normal;font-variant-numeric:normal;font-variant-alternates:normal;font-variant-east-asian:normal;font-feature-settings:normal;font-variation-settings:normal;text-indent:0;text-align:start;text-decoration:none;text-decoration-line:none;text-decoration-style:solid;text-decoration-color:#000000;letter-spacing:normal;word-spacing:normal;text-transform:none;writing-mode:lr-tb;direction:ltr;text-orientation:mixed;dominant-baseline:auto;baseline-shift:baseline;text-anchor:start;white-space:normal;shape-padding:0;shape-margin:0;inline-size:0;clip-rule:nonzero;display:inline;overflow:visible;visibility:visible;isolation:auto;mix-blend-mode:normal;color-interpolation:sRGB;color-interpolation-filters:linearRGB;solid-color:#000000;solid-opacity:1;vector-effect:none;fill:#000000;fill-opacity:1;fill-rule:nonzero;stroke:none;stroke-width:2;stroke-linecap:butt;stroke-linejoin:round;stroke-miterlimit:4;stroke-dasharray:none;stroke-dashoffset:0;stroke-opacity:1;color-rendering:auto;image-rendering:auto;shape-rendering:auto;text-rendering:auto;enable-background:accumulate;stop-color:#000000;stop-opacity:1;opacity:0.7"
     d="M 10 4 A 1.0001 1.0001 0 0 0 9.0585938 4.6640625 L 4.0585938 18.664062 A 1.0001 1.0001 0 0 0 5 20 L 8 20 A 1.0001 1.0001 0 0 0 8.9394531 19.341797 L 10.15625 16 L 12 16 L 12 15 A 1.0001 1.0001 0 0 1 13 14 L 13.818359 14 A 1.0001 1.0001 0 0 0 14 13.984375 L 14 13 A 1.0001 1.0001 0 0 1 14.556641 12.105469 L 12.939453 7.6582031 A 1.0001 1.0001 0 0 0 11.060547 7.6582031 L 9.2421875 12.658203 A 1.0001 1.0001 0 0 0 10.181641 14 L 9.4550781 14 A 1.0001 1.0001 0 0 0 8.515625 14.658203 L 7.2988281 18 L 6.4179688 18 L 10.705078 6 L 13.294922 6 L 15.4375 12 L 17 12 A 1.0001 1.0001 0 0 1 17.646484 12.238281 L 14.941406 4.6640625 A 1.0001 1.0001 0 0 0 14 4 L 10 4 z M 12 10.925781 L 12.390625 12 L 11.609375 12 L 12 10.925781 z M 15.818359 15.574219 A 1.0001 1.0001 0 0 1 15 16 A 1.0001 1.0001 0 0 1 16 17 A 1.0001 1.0001 0 0 1 16.146484 16.478516 L 15.818359 15.574219 z M 16.863281 15.990234 L 16.871094 16.009766 A 1.0001 1.0001 0 0 1 17 16 A 1.0001 1.0001 0 0 1 16.863281 15.990234 z M 16 19 A 1.0001 1.0001 0 0 1 15.5 19.865234 A 1.0001 1.0001 0 0 0 16 20 L 17 20 A 1.0001 1.0001 0 0 1 16 19 z " />
  <path
     id="path820"
     style="fill:#ffffff;fill-opacity:1;stroke:none;stroke-width:1px;stroke-linecap:butt;stroke-linejoin:miter;stroke-opacity:1"
     d="M 10 5 L 5 19 L 8 19 L 9.4550781 15 L 12 15 A 1.0001 1.0001 0 0 1 13 14 L 14 14 L 14 13 A 1.0001 1.0001 0 0 1 15 12 L 16.5 12 L 14 5 L 10 5 z M 12 8 L 13.818359 13 L 10.181641 13 L 12 8 z M 16 15 A 1.0001 1.0001 0 0 1 15 16 A 1.0001 1.0001 0 0 1 16 17 A 1.0001 1.0001 0 0 1 17 16 A 1.0001 1.0001 0 0 1 16 15 z " />
  <path
     id="path847"
     d="m 15,13 v 2 h -2 v 2 h 2 v 2 h -2 v 2 h 2 v 2 h 2 v -2 h 2 v 2 h 2 v -2 h 2 v -2 h -2 v -2 h 2 v -2 h -2 v -2 h -2 v 2 h -2 v -2 z m 2,4 h 2 v 2 h -2 z"
     style="color:#000000;font-style:normal;font-variant:normal;font-weight:normal;font-stretch:normal;font-size:medium;line-height:normal;font-family:sans-serif;font-variant-ligatures:normal;font-variant-position:normal;font-variant-caps:normal;font-variant-numeric:normal;font-variant-alternates:normal;font-feature-settings:normal;text-indent:0;text-align:start;text-decoration:none;text-decoration-line:none;text-decoration-style:solid;text-decoration-color:#000000;letter-spacing:normal;word-spacing:normal;text-transform:none;writing-mode:lr-tb;direction:ltr;text-orientation:mixed;dominant-baseline:auto;baseline-shift:baseline;text-anchor:start;white-space:normal;shape-padding:0;clip-rule:nonzero;display:inline;overflow:visible;visibility:visible;opacity:1;isolation:auto;mix-blend-mode:normal;color-interpolation:sRGB;color-interpolation-filters:linearRGB;solid-color:#000000;solid-opacity:1;vector-effect:none;fill:#1a7fd4;fill-opacity:1;fill-rule:nonzero;stroke:none;stroke-width:1.00007653;stroke-linecap:butt;stroke-linejoin:miter;stroke-miterlimit:4;stroke-dasharray:none;stroke-dashoffset:0;stroke-opacity:1;marker:none;color-rendering:auto;image-rendering:auto;shape-rendering:auto;text-rendering:auto;enable-background:accumulate"
     inkscape:connector-curvature="0" />
</svg>
