<?xml version="1.0" encoding="UTF-8" standalone="no"?>
<svg
   xmlns:dc="http://purl.org/dc/elements/1.1/"
   xmlns:cc="http://creativecommons.org/ns#"
   xmlns:rdf="http://www.w3.org/1999/02/22-rdf-syntax-ns#"
   xmlns:svg="http://www.w3.org/2000/svg"
   xmlns="http://www.w3.org/2000/svg"
   xmlns:sodipodi="http://sodipodi.sourceforge.net/DTD/sodipodi-0.dtd"
   xmlns:inkscape="http://www.inkscape.org/namespaces/inkscape"
   viewBox="0 0 24 24"
   version="1.1"
   id="svg4"
   sodipodi:docname="lc_zoomprevious.svg"
   inkscape:export-filename="/home/jupiter007/Libreoffice yaru theme fullcolor/build/cmd/lc_zoomprevious.png"
   inkscape:export-xdpi="96"
   inkscape:export-ydpi="96"
   inkscape:version="1.0.1 (3bc2e813f5, 2020-09-07)">
  <metadata
     id="metadata10">
    <rdf:RDF>
      <cc:Work
         rdf:about="">
        <dc:format>image/svg+xml</dc:format>
        <dc:type
           rdf:resource="http://purl.org/dc/dcmitype/StillImage" />
      </cc:Work>
    </rdf:RDF>
  </metadata>
  <defs
     id="defs8" />
  <sodipodi:namedview
     pagecolor="#ffffff"
     bordercolor="#666666"
     borderopacity="1"
     objecttolerance="10"
     gridtolerance="10"
     guidetolerance="10"
     inkscape:pageopacity="0"
     inkscape:pageshadow="2"
     inkscape:window-width="1920"
     inkscape:window-height="1016"
     id="namedview6"
     showgrid="true"
     inkscape:zoom="19.666667"
     inkscape:cx="-1.39004"
     inkscape:cy="4.5941149"
     inkscape:window-x="0"
     inkscape:window-y="27"
     inkscape:window-maximized="1"
     inkscape:current-layer="svg4"
     inkscape:document-rotation="0">
    <inkscape:grid
       type="xygrid"
       id="grid827" />
  </sodipodi:namedview>
  <path
     id="path852"
     style="color:#000000;font-style:normal;font-variant:normal;font-weight:400;font-stretch:normal;font-size:medium;line-height:normal;font-family:sans-serif;font-variant-ligatures:normal;font-variant-position:normal;font-variant-caps:normal;font-variant-numeric:normal;font-variant-alternates:normal;font-variant-east-asian:normal;font-feature-settings:normal;font-variation-settings:normal;text-indent:0;text-align:start;text-decoration:none;text-decoration-line:none;text-decoration-style:solid;text-decoration-color:#000000;letter-spacing:normal;word-spacing:normal;text-transform:none;writing-mode:lr-tb;direction:ltr;text-orientation:mixed;dominant-baseline:auto;baseline-shift:baseline;text-anchor:start;white-space:normal;shape-padding:0;shape-margin:0;inline-size:0;clip-rule:nonzero;display:inline;overflow:visible;visibility:visible;opacity:0.7;isolation:auto;mix-blend-mode:normal;color-interpolation:sRGB;color-interpolation-filters:linearRGB;solid-color:#000000;solid-opacity:1;vector-effect:none;fill:#000000;fill-opacity:1;fill-rule:evenodd;stroke:none;stroke-width:2;stroke-linecap:butt;stroke-linejoin:round;stroke-miterlimit:4;stroke-dasharray:none;stroke-dashoffset:0;stroke-opacity:1;color-rendering:auto;image-rendering:auto;shape-rendering:auto;text-rendering:auto;enable-background:accumulate;stop-color:#000000;stop-opacity:1"
     d="M 11.494141,3 C 11.329404,3 11.164504,3.0139708 11,3.0234375 v 1.9882813 c 0.164324,-0.012517 0.32943,-0.023438 0.494141,-0.023438 1.661401,10e-8 3.322311,0.6367645 4.595703,1.9101563 2.426832,2.4261476 2.556201,6.2921415 0.296875,8.8750005 -0.100684,0.115402 -0.17352,0.252387 -0.212891,0.40039 -0.147828,0.0388 -0.284797,0.110956 -0.40039,0.210938 C 13.191074,18.643657 9.3247496,18.515578 6.8984375,16.089844 4.8649478,14.056403 4.4578106,11.033539 5.6738281,8.5996094 l -1.7011719,-1.0625 C 2.2891248,10.745559 2.7943249,14.813922 5.484375,17.503906 c 2.9209859,2.920291 7.442301,3.162632 10.771484,0.873047 l 3.728516,3.730469 c 0.390753,0.391672 1.025263,0.391672 1.416016,0 l 0.707031,-0.707031 c 0.391672,-0.390753 0.391672,-1.025263 0,-1.416016 L 18.378906,16.255859 C 20.668834,12.926028 20.425509,8.4032001 17.503906,5.4824219 15.848365,3.8268814 13.671574,3.0000001 11.494141,3 Z M 7,7 6,8.0195312 C 6.246644,7.631495 6.5359389,7.2626223 6.8730469,6.921875 c 0.00748,-0.00752 0.015666,-0.015701 0.023437,-0.023437 h 0.00195 C 7.2470648,6.5498102 7.6266129,6.2531881 8.0253906,6 Z"
     sodipodi:nodetypes="sccscccccccccccccccsccccccc" />
  <path
     id="path2037-0"
     style="color:#000000;font-weight:400;line-height:normal;font-family:sans-serif;font-variant-ligatures:normal;font-variant-position:normal;font-variant-caps:normal;font-variant-numeric:normal;font-variant-alternates:normal;font-feature-settings:normal;text-indent:0;text-align:start;text-decoration:none;text-decoration-line:none;text-decoration-style:solid;text-decoration-color:#000000;text-transform:none;text-orientation:mixed;white-space:normal;shape-padding:0;overflow:visible;isolation:auto;mix-blend-mode:normal;fill:#ffffff;fill-opacity:1;fill-rule:evenodd;stroke-width:1.05404"
     inkscape:transform-center-x="-1.1966615"
     inkscape:transform-center-y="1.1966053"
     d="M 11.494141 3.9941406 C 11.329203 3.9941406 11.164642 4.006783 11 4.0175781 L 11 6 L 6.4003906 6 C 6.3313624 6.0640752 6.258567 6.1222924 6.1914062 6.1894531 C 6.1826362 6.1981831 6.1727874 6.2080287 6.1640625 6.2167969 C 6.105636 6.2758044 6.0560654 6.3399593 6 6.4003906 L 6 8.8046875 L 4.8222656 8.0683594 C 3.3725316 10.889993 3.8295261 14.435052 6.1914062 16.796875 C 8.983189 19.587993 13.460303 19.737815 16.431641 17.138672 L 20.693359 21.400391 L 21.400391 20.693359 L 17.140625 16.431641 C 19.740264 13.459738 19.589251 8.9810414 16.796875 6.1894531 C 15.332408 4.724987 13.413558 3.9941407 11.494141 3.9941406 z " />
  <path
     inkscape:connector-curvature="0"
     style="fill:#e95420;fill-opacity:1;stroke:none;stroke-width:1px;stroke-linecap:butt;stroke-linejoin:miter;stroke-opacity:1"
     d="M 1,4.5 5,2 v 2 h 5 V 5 H 5 v 2 z"
     id="path834"
     sodipodi:nodetypes="cccccccc" />
</svg>
