<?xml version="1.0" encoding="UTF-8" standalone="no"?>
<svg
   xmlns:dc="http://purl.org/dc/elements/1.1/"
   xmlns:cc="http://creativecommons.org/ns#"
   xmlns:rdf="http://www.w3.org/1999/02/22-rdf-syntax-ns#"
   xmlns:svg="http://www.w3.org/2000/svg"
   xmlns="http://www.w3.org/2000/svg"
   xmlns:sodipodi="http://sodipodi.sourceforge.net/DTD/sodipodi-0.dtd"
   xmlns:inkscape="http://www.inkscape.org/namespaces/inkscape"
   viewBox="0 0 16 16"
   version="1.1"
   id="svg10"
   sodipodi:docname="sc_alphaliststyle.svg"
   inkscape:version="1.0.1 (3bc2e813f5, 2020-09-07)"
   inkscape:export-filename="/home/jupiter007/Libreoffice yaru theme fullcolor/build/cmd/sc_alphaliststyle.png"
   inkscape:export-xdpi="96"
   inkscape:export-ydpi="96">
  <metadata
     id="metadata16">
    <rdf:RDF>
      <cc:Work
         rdf:about="">
        <dc:format>image/svg+xml</dc:format>
        <dc:type
           rdf:resource="http://purl.org/dc/dcmitype/StillImage" />
        <dc:title></dc:title>
      </cc:Work>
    </rdf:RDF>
  </metadata>
  <defs
     id="defs14" />
  <sodipodi:namedview
     pagecolor="#808080"
     bordercolor="#666666"
     borderopacity="1"
     objecttolerance="10"
     gridtolerance="10"
     guidetolerance="10"
     inkscape:pageopacity="0"
     inkscape:pageshadow="2"
     inkscape:window-width="1920"
     inkscape:window-height="1011"
     id="namedview12"
     showgrid="true"
     inkscape:zoom="14.75"
     inkscape:cx="10.523734"
     inkscape:cy="10.538442"
     inkscape:window-x="1920"
     inkscape:window-y="32"
     inkscape:window-maximized="1"
     inkscape:current-layer="svg10"
     inkscape:document-rotation="0">
    <inkscape:grid
       type="xygrid"
       id="grid823" />
  </sodipodi:namedview>
  <path
     d="M 3,2 A 2,2 0 0 0 1,4 2,2 0 0 0 3,6 H 4 V 5 H 3 A 1,1 0 0 1 2,4 1,1 0 0 1 3,3 H 4 V 2 Z"
     id="path4"
     inkscape:connector-curvature="0"
     style="fill:#e95420;fill-opacity:1" />
  <path
     d="m 1,9 v 4 H 2 3 C 4.1045695,13 5,12.104569 5,11 5,9.8954305 4.1045695,9 3,9 H 2 Z m 1,1 h 1 c 0.5522847,0 1,0.447715 1,1 0,0.552285 -0.4477153,1 -1,1 H 2 Z"
     id="path6"
     inkscape:connector-curvature="0"
     style="fill:#e95420;fill-opacity:1"
     sodipodi:nodetypes="cccssscccssscc" />
  <rect
     style="fill:#232629;fill-rule:evenodd;stroke-width:3;stroke-linecap:round;stroke-linejoin:round"
     id="rect837"
     width="7"
     height="1"
     x="6"
     y="-7"
     transform="scale(1,-1)" />
  <rect
     style="fill:#ffffff;fill-rule:evenodd;stroke-width:3;stroke-linecap:round;stroke-linejoin:round"
     id="rect839"
     width="7"
     height="1"
     x="6"
     y="-8"
     transform="scale(1,-1)" />
  <rect
     style="fill:#ffffff;fill-rule:evenodd;stroke-width:3;stroke-linecap:round;stroke-linejoin:round"
     id="rect843-2"
     width="5"
     height="1"
     x="6"
     y="-6"
     transform="scale(1,-1)" />
  <rect
     style="fill:#232629;fill-rule:evenodd;stroke-width:3;stroke-linecap:round;stroke-linejoin:round"
     id="rect861"
     width="5"
     height="1"
     x="6"
     y="-5"
     transform="scale(1,-1)" />
  <rect
     style="fill:#ffffff;fill-rule:evenodd;stroke-width:3;stroke-linecap:round;stroke-linejoin:round"
     id="rect867"
     width="9"
     height="1"
     x="6"
     y="-4"
     transform="scale(1,-1)" />
  <rect
     style="fill:#232629;fill-rule:evenodd;stroke-width:3;stroke-linecap:round;stroke-linejoin:round"
     id="rect869"
     width="9"
     height="1"
     x="6"
     y="-3.0000002"
     transform="scale(1,-1)" />
  <rect
     style="fill:#232629;fill-rule:evenodd;stroke-width:3;stroke-linecap:round;stroke-linejoin:round"
     id="rect837-1"
     width="7"
     height="1"
     x="6"
     y="-14"
     transform="scale(1,-1)" />
  <rect
     style="fill:#ffffff;fill-rule:evenodd;stroke-width:3;stroke-linecap:round;stroke-linejoin:round"
     id="rect839-2"
     width="7"
     height="1"
     x="6"
     y="-15"
     transform="scale(1,-1)" />
  <rect
     style="fill:#ffffff;fill-rule:evenodd;stroke-width:3;stroke-linecap:round;stroke-linejoin:round"
     id="rect843-2-7"
     width="5"
     height="1"
     x="6"
     y="-13"
     transform="scale(1,-1)" />
  <rect
     style="fill:#232629;fill-rule:evenodd;stroke-width:3;stroke-linecap:round;stroke-linejoin:round"
     id="rect861-0"
     width="5"
     height="1"
     x="6"
     y="-12"
     transform="scale(1,-1)" />
  <rect
     style="fill:#ffffff;fill-rule:evenodd;stroke-width:3;stroke-linecap:round;stroke-linejoin:round"
     id="rect867-9"
     width="9"
     height="1"
     x="6"
     y="-11"
     transform="scale(1,-1)" />
  <rect
     style="fill:#232629;fill-rule:evenodd;stroke-width:3;stroke-linecap:round;stroke-linejoin:round"
     id="rect869-3"
     width="9"
     height="1"
     x="6"
     y="-10"
     transform="scale(1,-1)" />
</svg>
