<?xml version="1.0" encoding="UTF-8" standalone="no"?>
<svg
   xmlns:dc="http://purl.org/dc/elements/1.1/"
   xmlns:cc="http://creativecommons.org/ns#"
   xmlns:rdf="http://www.w3.org/1999/02/22-rdf-syntax-ns#"
   xmlns:svg="http://www.w3.org/2000/svg"
   xmlns="http://www.w3.org/2000/svg"
   xmlns:xlink="http://www.w3.org/1999/xlink"
   xmlns:sodipodi="http://sodipodi.sourceforge.net/DTD/sodipodi-0.dtd"
   xmlns:inkscape="http://www.inkscape.org/namespaces/inkscape"
   viewBox="0 0 16 16"
   version="1.1"
   id="svg4"
   sodipodi:docname="sc_backcolor.svg"
   inkscape:version="1.0.1 (3bc2e813f5, 2020-09-07)"
   inkscape:export-filename="/home/jupiter007/Libreoffice yaru theme fullcolor/build/cmd/sc_backcolor.png"
   inkscape:export-xdpi="95"
   inkscape:export-ydpi="95"><metadata
   id="metadata10">
  <rdf:RDF>
    <cc:Work
       rdf:about="">
      <dc:format>image/svg+xml</dc:format>
      <dc:type
         rdf:resource="http://purl.org/dc/dcmitype/StillImage" />
      <dc:title></dc:title>
    </cc:Work>
  </rdf:RDF>
</metadata>
<defs
   id="defs8">
  <linearGradient
     inkscape:collect="always"
     id="linearGradient863">
    <stop
       style="stop-color:#151515;stop-opacity:1"
       offset="0"
       id="stop859" />
    <stop
       style="stop-color:#4d4d4d;stop-opacity:1"
       offset="1"
       id="stop861" />
  </linearGradient>
  <linearGradient
     inkscape:collect="always"
     xlink:href="#linearGradient863"
     id="linearGradient865"
     x1="5"
     y1="1"
     x2="5"
     y2="9"
     gradientUnits="userSpaceOnUse" />
</defs>
<sodipodi:namedview
   pagecolor="#808080"
   bordercolor="#666666"
   borderopacity="1"
   objecttolerance="10"
   gridtolerance="10"
   guidetolerance="10"
   inkscape:pageopacity="0"
   inkscape:pageshadow="2"
   inkscape:window-width="1920"
   inkscape:window-height="1043"
   id="namedview6"
   showgrid="true"
   inkscape:zoom="29.5"
   inkscape:cx="9.7249362"
   inkscape:cy="8.167872"
   inkscape:window-x="1920"
   inkscape:window-y="0"
   inkscape:window-maximized="1"
   inkscape:current-layer="svg4"
   inkscape:document-rotation="0"
   inkscape:snap-bbox="true"
   inkscape:bbox-nodes="true"
   inkscape:snap-bbox-edge-midpoints="true"
   inkscape:snap-bbox-midpoints="true"
   inkscape:bbox-paths="true">
  <inkscape:grid
     type="xygrid"
     id="grid867" />
  <inkscape:grid
     type="xygrid"
     id="grid856"
     spacingx="0.5"
     spacingy="0.5"
     empspacing="10"
     dotted="true" />
</sodipodi:namedview>





/&gt;<path
   id="path857"
   style="color:#000000;font-style:normal;font-variant:normal;font-weight:normal;font-stretch:normal;font-size:medium;line-height:normal;font-family:sans-serif;font-variant-ligatures:normal;font-variant-position:normal;font-variant-caps:normal;font-variant-numeric:normal;font-variant-alternates:normal;font-variant-east-asian:normal;font-feature-settings:normal;font-variation-settings:normal;text-indent:0;text-align:start;text-decoration:none;text-decoration-line:none;text-decoration-style:solid;text-decoration-color:#000000;letter-spacing:normal;word-spacing:normal;text-transform:none;writing-mode:lr-tb;direction:ltr;text-orientation:mixed;dominant-baseline:auto;baseline-shift:baseline;text-anchor:start;white-space:normal;shape-padding:0;shape-margin:0;inline-size:0;clip-rule:nonzero;display:inline;overflow:visible;visibility:visible;opacity:1;isolation:auto;mix-blend-mode:normal;color-interpolation:sRGB;color-interpolation-filters:linearRGB;solid-color:#000000;solid-opacity:1;vector-effect:none;fill:none;fill-opacity:1;fill-rule:nonzero;stroke:#ffffff;stroke-width:2;stroke-linecap:square;stroke-linejoin:round;stroke-miterlimit:4;stroke-dasharray:none;stroke-dashoffset:0;stroke-opacity:1;color-rendering:auto;image-rendering:auto;shape-rendering:auto;text-rendering:auto;enable-background:accumulate;stop-color:#000000;stop-opacity:1"
   d="m 4.171875,1 -0.1308594,0.3027344 -3,7 L 0.84375,8.7617188 1.7617188,9.15625 1.9589844,8.6972656 3.1152344,6 H 6.8847656 L 8.0410156,8.6972656 8.2382812,9.15625 9.15625,8.7617188 8.9589844,8.3027344 l -3,-7 L 5.828125,1 Z M 5,1.6015625 5.0410156,1.6972656 6.4570312,5 H 3.5429688 L 4.9589844,1.6972656 Z"
   sodipodi:nodetypes="ccccccccccccccccccccc" />
<path
   id="path849"
   style="color:#000000;font-style:normal;font-variant:normal;font-weight:normal;font-stretch:normal;font-size:medium;line-height:normal;font-family:sans-serif;font-variant-ligatures:normal;font-variant-position:normal;font-variant-caps:normal;font-variant-numeric:normal;font-variant-alternates:normal;font-variant-east-asian:normal;font-feature-settings:normal;font-variation-settings:normal;text-indent:0;text-align:start;text-decoration:none;text-decoration-line:none;text-decoration-style:solid;text-decoration-color:#000000;letter-spacing:normal;word-spacing:normal;text-transform:none;writing-mode:lr-tb;direction:ltr;text-orientation:mixed;dominant-baseline:auto;baseline-shift:baseline;text-anchor:start;white-space:normal;shape-padding:0;shape-margin:0;inline-size:0;clip-rule:nonzero;display:inline;overflow:visible;visibility:visible;opacity:1;isolation:auto;mix-blend-mode:normal;color-interpolation:sRGB;color-interpolation-filters:linearRGB;solid-color:#000000;solid-opacity:1;vector-effect:none;fill:url(#linearGradient865);fill-opacity:1;fill-rule:nonzero;stroke:none;stroke-width:1px;stroke-linecap:square;stroke-linejoin:miter;stroke-miterlimit:4;stroke-dasharray:none;stroke-dashoffset:0;stroke-opacity:1;color-rendering:auto;image-rendering:auto;shape-rendering:auto;text-rendering:auto;enable-background:accumulate;stop-color:#000000;stop-opacity:1"
   d="m 4.171875,1 -0.1308594,0.3027344 -3,7 L 0.84375,8.7617188 1.7617188,9.15625 1.9589844,8.6972656 3.1152344,6 H 6.8847656 L 8.0410156,8.6972656 8.2382812,9.15625 9.15625,8.7617188 8.9589844,8.3027344 l -3,-7 L 5.828125,1 Z M 5,1.6015625 5.0410156,1.6972656 6.4570312,5 H 3.5429688 L 4.9589844,1.6972656 Z"
   sodipodi:nodetypes="ccccccccccccccccccccc" />
<path
   style="color:#000000;font-style:normal;font-variant:normal;font-weight:normal;font-stretch:normal;font-size:medium;line-height:normal;font-family:sans-serif;font-variant-ligatures:normal;font-variant-position:normal;font-variant-caps:normal;font-variant-numeric:normal;font-variant-alternates:normal;font-feature-settings:normal;text-indent:0;text-align:start;text-decoration:none;text-decoration-line:none;text-decoration-style:solid;text-decoration-color:#000000;letter-spacing:normal;word-spacing:normal;text-transform:none;writing-mode:lr-tb;direction:ltr;text-orientation:mixed;dominant-baseline:auto;baseline-shift:baseline;text-anchor:start;white-space:normal;shape-padding:0;clip-rule:nonzero;display:inline;overflow:visible;visibility:visible;opacity:0.7;isolation:auto;mix-blend-mode:normal;color-interpolation:sRGB;color-interpolation-filters:linearRGB;solid-color:#000000;solid-opacity:1;vector-effect:none;fill:#000000;fill-opacity:1;fill-rule:nonzero;stroke:#000000;stroke-width:2;stroke-linecap:butt;stroke-linejoin:round;stroke-miterlimit:4;stroke-dasharray:none;stroke-dashoffset:0;stroke-opacity:1;color-rendering:auto;image-rendering:auto;shape-rendering:auto;text-rendering:auto;enable-background:accumulate"
   d="M 4.1493962,11.861894 A 0.50004994,0.50004994 0 0 0 4.4919011,12 h 1.5606067 a 0.50004994,0.50004994 0 0 0 0.3535535,-0.146393 l 0.7554441,-0.758206 a 0.50004994,0.50004994 0 0 0 0.02624,-0.02348 L 7.354855,10.904813 7.3120419,10.862 a 0.50004994,0.50004994 0 0 0 0.00276,-0.0055 0.50004994,0.50004994 0 0 0 0.447466,0.0801 L 8.8464083,10.600978 6.1685177,7.923088 5.8356803,9.0099883 a 0.50004994,0.50004994 0 0 0 0.044194,0.3949854 L 5.7251948,9.5596534 a 0.50004994,0.50004994 0 0 0 -0.02624,0.02624 L 4.1383477,11.1465 a 0.50004994,0.50004994 0 0 0 0.011049,0.715394 z M 9.6322359,9.9725926 14.627558,4.9800321 a 0.50004994,0.50004994 0 0 0 0,-0.7071068 L 12.499333,2.1446996 A 0.50004994,0.50004994 0 0 0 12.138874,1.9996877 0.50004994,0.50004994 0 0 0 11.792226,2.1446998 L 6.7982847,7.1386414 Z"
   id="path856"
   inkscape:connector-curvature="0" />
<path
   style="color:#000000;font-style:normal;font-variant:normal;font-weight:normal;font-stretch:normal;font-size:medium;line-height:normal;font-family:sans-serif;font-variant-ligatures:normal;font-variant-position:normal;font-variant-caps:normal;font-variant-numeric:normal;font-variant-alternates:normal;font-feature-settings:normal;text-indent:0;text-align:start;text-decoration:none;text-decoration-line:none;text-decoration-style:solid;text-decoration-color:#000000;letter-spacing:normal;word-spacing:normal;text-transform:none;writing-mode:lr-tb;direction:ltr;text-orientation:mixed;dominant-baseline:auto;baseline-shift:baseline;text-anchor:start;white-space:normal;shape-padding:0;clip-rule:nonzero;display:inline;overflow:visible;visibility:visible;opacity:1;isolation:auto;mix-blend-mode:normal;color-interpolation:sRGB;color-interpolation-filters:linearRGB;solid-color:#000000;solid-opacity:1;vector-effect:none;fill:#ffffff;fill-opacity:1;fill-rule:nonzero;stroke:none;stroke-width:1px;stroke-linecap:butt;stroke-linejoin:round;stroke-miterlimit:4;stroke-dasharray:none;stroke-dashoffset:0;stroke-opacity:1;color-rendering:auto;image-rendering:auto;shape-rendering:auto;text-rendering:auto;enable-background:accumulate"
   d="M 9.6322359,9.9725926 14.627558,4.9800321 a 0.50004994,0.50004994 0 0 0 0,-0.7071068 L 12.499333,2.1446996 A 0.50004994,0.50004994 0 0 0 12.138874,1.9996877 0.50004994,0.50004994 0 0 0 11.792226,2.1446998 L 6.7982847,7.1386414 Z"
   id="path881" />
<path
   style="color:#000000;font-style:normal;font-variant:normal;font-weight:normal;font-stretch:normal;font-size:medium;line-height:normal;font-family:sans-serif;font-variant-ligatures:normal;font-variant-position:normal;font-variant-caps:normal;font-variant-numeric:normal;font-variant-alternates:normal;font-feature-settings:normal;text-indent:0;text-align:start;text-decoration:none;text-decoration-line:none;text-decoration-style:solid;text-decoration-color:#000000;letter-spacing:normal;word-spacing:normal;text-transform:none;writing-mode:lr-tb;direction:ltr;text-orientation:mixed;dominant-baseline:auto;baseline-shift:baseline;text-anchor:start;white-space:normal;shape-padding:0;clip-rule:nonzero;display:inline;overflow:visible;visibility:visible;opacity:1;isolation:auto;mix-blend-mode:normal;color-interpolation:sRGB;color-interpolation-filters:linearRGB;solid-color:#000000;solid-opacity:1;vector-effect:none;fill:#76c22b;fill-opacity:1;fill-rule:nonzero;stroke:none;stroke-width:1px;stroke-linecap:butt;stroke-linejoin:round;stroke-miterlimit:4;stroke-dasharray:none;stroke-dashoffset:0;stroke-opacity:1;color-rendering:auto;image-rendering:auto;shape-rendering:auto;text-rendering:auto;enable-background:accumulate"
   d="M 4.1493962,11.861894 A 0.50004994,0.50004994 0 0 0 4.4919011,12 h 1.5606067 a 0.50004994,0.50004994 0 0 0 0.3535535,-0.146393 l 0.7554441,-0.758206 a 0.50004994,0.50004994 0 0 0 0.02624,-0.02348 L 7.354855,10.904813 7.3120419,10.862 a 0.50004994,0.50004994 0 0 0 0.00276,-0.0055 0.50004994,0.50004994 0 0 0 0.447466,0.0801 L 8.8464083,10.600978 6.1685177,7.923088 5.8356803,9.0099883 a 0.50004994,0.50004994 0 0 0 0.044194,0.3949854 L 5.7251948,9.5596534 a 0.50004994,0.50004994 0 0 0 -0.02624,0.02624 L 4.1383477,11.1465 a 0.50004994,0.50004994 0 0 0 0.011049,0.715394 z"
   id="path850" />
<path
   d="m 0,13 h 16 v 3 H 0 Z"
   fill="#ed3d3b"
   id="path4"
   style="fill:#76c22b;fill-opacity:1" />
</svg>
