<?xml version="1.0" encoding="UTF-8" standalone="no"?>
<svg
   xmlns:dc="http://purl.org/dc/elements/1.1/"
   xmlns:cc="http://creativecommons.org/ns#"
   xmlns:rdf="http://www.w3.org/1999/02/22-rdf-syntax-ns#"
   xmlns:svg="http://www.w3.org/2000/svg"
   xmlns="http://www.w3.org/2000/svg"
   xmlns:sodipodi="http://sodipodi.sourceforge.net/DTD/sodipodi-0.dtd"
   xmlns:inkscape="http://www.inkscape.org/namespaces/inkscape"
   viewBox="0 0 16 16"
   version="1.1"
   id="svg4"
   sodipodi:docname="sc_backcolor.svg"
   inkscape:version="1.0.1 (3bc2e813f5, 2020-09-07)"
   inkscape:export-filename="/home/jupiter007/Libreoffice yaru theme fullcolor/build/cmd/sc_backcolor.png"
   inkscape:export-xdpi="95"
   inkscape:export-ydpi="95"><metadata
   id="metadata10">
  <rdf:RDF>
    <cc:Work
       rdf:about="">
      <dc:format>image/svg+xml</dc:format>
      <dc:type
         rdf:resource="http://purl.org/dc/dcmitype/StillImage" />
      <dc:title></dc:title>
    </cc:Work>
  </rdf:RDF>
</metadata>
<defs
   id="defs8" />
<sodipodi:namedview
   pagecolor="#ffffff"
   bordercolor="#666666"
   borderopacity="1"
   objecttolerance="10"
   gridtolerance="10"
   guidetolerance="10"
   inkscape:pageopacity="0"
   inkscape:pageshadow="2"
   inkscape:window-width="1920"
   inkscape:window-height="1011"
   id="namedview6"
   showgrid="true"
   inkscape:zoom="29.5"
   inkscape:cx="1.4489332"
   inkscape:cy="5.4592232"
   inkscape:window-x="0"
   inkscape:window-y="0"
   inkscape:window-maximized="1"
   inkscape:current-layer="svg4"
   inkscape:document-rotation="0"
   inkscape:snap-bbox="true"
   inkscape:bbox-nodes="true"
   inkscape:snap-bbox-edge-midpoints="true"
   inkscape:snap-bbox-midpoints="true"
   inkscape:bbox-paths="true">
  <inkscape:grid
     type="xygrid"
     id="grid867" />
  <inkscape:grid
     type="xygrid"
     id="grid856"
     spacingx="0.5"
     spacingy="0.5"
     empspacing="10"
     dotted="true" />
</sodipodi:namedview>




/&gt;<path
   id="path877"
   style="color:#000000;font-style:normal;font-variant:normal;font-weight:normal;font-stretch:normal;font-size:medium;line-height:normal;font-family:sans-serif;font-variant-ligatures:normal;font-variant-position:normal;font-variant-caps:normal;font-variant-numeric:normal;font-variant-alternates:normal;font-variant-east-asian:normal;font-feature-settings:normal;font-variation-settings:normal;text-indent:0;text-align:start;text-decoration:none;text-decoration-line:none;text-decoration-style:solid;text-decoration-color:#000000;letter-spacing:normal;word-spacing:normal;text-transform:none;writing-mode:lr-tb;direction:ltr;text-orientation:mixed;dominant-baseline:auto;baseline-shift:baseline;text-anchor:start;white-space:normal;shape-padding:0;shape-margin:0;inline-size:0;clip-rule:nonzero;display:inline;overflow:visible;visibility:visible;opacity:0.7;isolation:auto;mix-blend-mode:normal;color-interpolation:sRGB;color-interpolation-filters:linearRGB;solid-color:#000000;solid-opacity:1;vector-effect:none;fill:#000000;fill-opacity:1;fill-rule:nonzero;stroke:#000000;stroke-width:2;stroke-linecap:round;stroke-linejoin:round;stroke-miterlimit:4;stroke-dasharray:none;stroke-dashoffset:0;stroke-opacity:1;color-rendering:auto;image-rendering:auto;shape-rendering:auto;text-rendering:auto;enable-background:accumulate;stop-color:#000000;stop-opacity:1"
   d="m 4.984375,0.5 c -0.068331,8.5154e-4 -0.1363953,0.008705 -0.203125,0.0234375 -0.014393,0.002939 -0.028719,0.006195 -0.042969,0.009766 -0.0013,6.482e-4 -0.00261,0.001299 -0.00391,0.001953 -0.025692,0.006797 -0.051103,0.0146159 -0.076172,0.0234375 -0.0013,6.482e-4 -0.00261,0.001299 -0.00391,0.001953 -0.016444,0.006081 -0.032726,0.0125939 -0.048828,0.0195312 -0.00918,0.004418 -0.018299,0.008976 -0.027344,0.0136719 -0.017822,0.007947 -0.035408,0.0164144 -0.052734,0.0253906 -0.016528,0.008657 -0.03281,0.0177754 -0.048828,0.0273438 -0.012558,0.008184 -0.024932,0.01665 -0.037109,0.0253906 -0.00655,0.003832 -0.013065,0.007738 -0.019531,0.0117188 -0.01734,0.0124751 -0.034276,0.0255026 -0.050781,0.0390625 -0.00328,0.003233 -0.00653,0.006488 -0.00977,0.009766 -0.019517,0.0162026 -0.038411,0.0331419 -0.056641,0.0507812 -0.019668,0.0187535 -0.038564,0.038301 -0.056641,0.0585938 -0.00462,0.005808 -0.00918,0.0116682 -0.013672,0.0175781 -0.00935,0.0108704 -0.018468,0.0219407 -0.027344,0.0332031 -0.011514,0.0153038 -0.022587,0.0309353 -0.033203,0.046875 -0.00532,0.007739 -0.010527,0.015552 -0.015625,0.0234375 -0.00397,0.005818 -0.00787,0.0116776 -0.011719,0.0175781 -0.00885,0.0147531 -0.017315,0.0297319 -0.025391,0.0449218 -0.01344,0.024855 -0.025821,0.050268 -0.037109,0.076172 -6.539e-4,0.0013 -0.0013,0.0026 -0.00195,0.00391 l -3,7 c -0.21846547,0.5080516 0.016923,1.096959 0.5253907,1.3144531 0.5080516,0.2184655 1.096959,-0.016922 1.3144531,-0.5253907 L 3.7324219,7 h 2.5351562 l 0.8125,1.8945312 C 7.2975722,9.4029994 7.8864796,9.6383874 8.3945312,9.4199219 8.9029994,9.2024278 9.1383874,8.6135204 8.9199219,8.1054688 l -3,-7 c -0.00129,-0.00326 -0.00259,-0.00652 -0.00391,-0.00977 -0.00912,-0.019846 -0.018894,-0.039388 -0.029297,-0.058594 -0.00129,-0.00261 -0.00259,-0.00521 -0.00391,-0.00781 -0.00443,-0.00853 -0.00899,-0.016993 -0.013672,-0.025391 -0.00257,-0.004578 -0.00517,-0.009135 -0.00781,-0.0136718 -0.010517,-0.0179188 -0.02159,-0.0355055 -0.033203,-0.0527344 -0.0013,-0.001958 -0.0026,-0.003911 -0.00391,-0.005859 -0.010034,-0.0145972 -0.020455,-0.0289251 -0.03125,-0.0429687 -0.00639,-0.007911 -0.012902,-0.0157248 -0.019531,-0.0234375 -0.011347,-0.013986 -0.02307,-0.0276628 -0.035156,-0.0410156 C 5.7318751,0.81696315 5.725364,0.80980094 5.71875,0.80273438 5.7060648,0.79001599 5.6930393,0.77764171 5.6796875,0.765625 5.6589835,0.74649556 5.6374799,0.7282501 5.6152344,0.7109375 c -0.019643,-0.0150674 -0.03984,-0.0294002 -0.060547,-0.0429687 -0.00259,-0.001966 -0.0052,-0.003919 -0.00781,-0.005859 -0.00839,-0.005334 -0.01685,-0.0105431 -0.025391,-0.015625 -0.015375,-0.009537 -0.031006,-0.0186549 -0.046875,-0.0273438 -0.00904,-0.004696 -0.01816,-0.009254 -0.027344,-0.0136719 -0.016061,-0.008252 -0.032343,-0.0160673 -0.048828,-0.0234375 -0.0013,-6.5389e-4 -0.0026,-0.001305 -0.00391,-0.001953 -0.024369,-0.0100898 -0.049128,-0.0192115 -0.074219,-0.0273437 -0.0013,-6.5389e-4 -0.0026,-0.001305 -0.00391,-0.001953 -0.025741,-0.008214 -0.051804,-0.0153813 -0.078125,-0.0214844 -0.0013,-6.5389e-4 -0.0026,-0.001305 -0.00391,-0.001953 -0.025824,-0.006244 -0.051886,-0.0114565 -0.078125,-0.015625 -0.0013,-2.54e-6 -0.0026,-2.54e-6 -0.00391,0 -0.02655,-0.004331 -0.053265,-0.007589 -0.080078,-0.009766 -0.0013,-2.54e-6 -0.0026,-2.54e-6 -0.00391,0 C 5.0404043,0.50012597 5.0123848,0.49947435 4.984375,0.5 Z M 5,4.0410156 5.8398438,6 H 4.1601562 Z"
   sodipodi:nodetypes="cccccccccccccccccccccccccccccccccccccccccccccccccccccccccccccccccc" />
<path
   id="path870"
   style="color:#000000;font-style:normal;font-variant:normal;font-weight:normal;font-stretch:normal;font-size:medium;line-height:normal;font-family:sans-serif;font-variant-ligatures:normal;font-variant-position:normal;font-variant-caps:normal;font-variant-numeric:normal;font-variant-alternates:normal;font-variant-east-asian:normal;font-feature-settings:normal;font-variation-settings:normal;text-indent:0;text-align:start;text-decoration:none;text-decoration-line:none;text-decoration-style:solid;text-decoration-color:#000000;letter-spacing:normal;word-spacing:normal;text-transform:none;writing-mode:lr-tb;direction:ltr;text-orientation:mixed;dominant-baseline:auto;baseline-shift:baseline;text-anchor:start;white-space:normal;shape-padding:0;shape-margin:0;inline-size:0;clip-rule:nonzero;display:inline;overflow:visible;visibility:visible;opacity:1;isolation:auto;mix-blend-mode:normal;color-interpolation:sRGB;color-interpolation-filters:linearRGB;solid-color:#000000;solid-opacity:1;vector-effect:none;fill:#ffffff;fill-opacity:1;fill-rule:nonzero;stroke:none;stroke-width:2;stroke-linecap:round;stroke-linejoin:round;stroke-miterlimit:4;stroke-dasharray:none;stroke-dashoffset:0;stroke-opacity:1;color-rendering:auto;image-rendering:auto;shape-rendering:auto;text-rendering:auto;enable-background:accumulate;stop-color:#000000;stop-opacity:1"
   d="m 4.984375,0.5 c -0.068331,8.5154e-4 -0.1363953,0.008705 -0.203125,0.0234375 -0.014393,0.002939 -0.028719,0.006195 -0.042969,0.009766 -0.0013,6.482e-4 -0.00261,0.001299 -0.00391,0.001953 -0.025692,0.006797 -0.051103,0.0146159 -0.076172,0.0234375 -0.0013,6.482e-4 -0.00261,0.001299 -0.00391,0.001953 -0.016444,0.006081 -0.032726,0.0125939 -0.048828,0.0195312 -0.00918,0.004418 -0.018299,0.008976 -0.027344,0.0136719 -0.017822,0.007947 -0.035408,0.0164144 -0.052734,0.0253906 -0.016528,0.008657 -0.03281,0.0177754 -0.048828,0.0273438 -0.012558,0.008184 -0.024932,0.01665 -0.037109,0.0253906 -0.00655,0.003832 -0.013065,0.007738 -0.019531,0.0117188 -0.01734,0.0124751 -0.034276,0.0255026 -0.050781,0.0390625 -0.00328,0.003233 -0.00653,0.006488 -0.00977,0.009766 -0.019517,0.0162026 -0.038411,0.0331419 -0.056641,0.0507812 -0.019668,0.0187535 -0.038564,0.038301 -0.056641,0.0585938 -0.00462,0.005808 -0.00918,0.0116682 -0.013672,0.0175781 -0.00935,0.0108704 -0.018468,0.0219407 -0.027344,0.0332031 -0.011514,0.0153038 -0.022587,0.0309353 -0.033203,0.046875 -0.00532,0.007739 -0.010527,0.015552 -0.015625,0.0234375 -0.00397,0.005818 -0.00787,0.0116776 -0.011719,0.0175781 -0.00885,0.0147531 -0.017315,0.0297319 -0.025391,0.0449218 -0.01344,0.024855 -0.025821,0.050268 -0.037109,0.076172 -6.539e-4,0.0013 -0.0013,0.0026 -0.00195,0.00391 l -3,7 c -0.21846547,0.5080516 0.016923,1.096959 0.5253907,1.3144531 0.5080516,0.2184655 1.096959,-0.016922 1.3144531,-0.5253907 L 3.7324219,7 h 2.5351562 l 0.8125,1.8945312 C 7.2975722,9.4029994 7.8864796,9.6383874 8.3945312,9.4199219 8.9029994,9.2024278 9.1383874,8.6135204 8.9199219,8.1054688 l -3,-7 c -0.00129,-0.00326 -0.00259,-0.00652 -0.00391,-0.00977 -0.00912,-0.019846 -0.018894,-0.039388 -0.029297,-0.058594 -0.00129,-0.00261 -0.00259,-0.00521 -0.00391,-0.00781 -0.00443,-0.00853 -0.00899,-0.016993 -0.013672,-0.025391 -0.00257,-0.004578 -0.00517,-0.009135 -0.00781,-0.0136718 -0.010517,-0.0179188 -0.02159,-0.0355055 -0.033203,-0.0527344 -0.0013,-0.001958 -0.0026,-0.003911 -0.00391,-0.005859 -0.010034,-0.0145972 -0.020455,-0.0289251 -0.03125,-0.0429687 -0.00639,-0.007911 -0.012902,-0.0157248 -0.019531,-0.0234375 -0.011347,-0.013986 -0.02307,-0.0276628 -0.035156,-0.0410156 C 5.7318751,0.81696315 5.725364,0.80980094 5.71875,0.80273438 5.7060648,0.79001599 5.6930393,0.77764171 5.6796875,0.765625 5.6589835,0.74649556 5.6374799,0.7282501 5.6152344,0.7109375 c -0.019643,-0.0150674 -0.03984,-0.0294002 -0.060547,-0.0429687 -0.00259,-0.001966 -0.0052,-0.003919 -0.00781,-0.005859 -0.00839,-0.005334 -0.01685,-0.0105431 -0.025391,-0.015625 -0.015375,-0.009537 -0.031006,-0.0186549 -0.046875,-0.0273438 -0.00904,-0.004696 -0.01816,-0.009254 -0.027344,-0.0136719 -0.016061,-0.008252 -0.032343,-0.0160673 -0.048828,-0.0234375 -0.0013,-6.5389e-4 -0.0026,-0.001305 -0.00391,-0.001953 -0.024369,-0.0100898 -0.049128,-0.0192115 -0.074219,-0.0273437 -0.0013,-6.5389e-4 -0.0026,-0.001305 -0.00391,-0.001953 -0.025741,-0.008214 -0.051804,-0.0153813 -0.078125,-0.0214844 -0.0013,-6.5389e-4 -0.0026,-0.001305 -0.00391,-0.001953 -0.025824,-0.006244 -0.051886,-0.0114565 -0.078125,-0.015625 -0.0013,-2.54e-6 -0.0026,-2.54e-6 -0.00391,0 -0.02655,-0.004331 -0.053265,-0.007589 -0.080078,-0.009766 -0.0013,-2.54e-6 -0.0026,-2.54e-6 -0.00391,0 C 5.0404043,0.50012597 5.0123848,0.49947435 4.984375,0.5 Z M 5,3 6,6 H 4 Z"
   sodipodi:nodetypes="cccccccccccccccccccccccccccccccccccccccccccccccccccccccccccccccccc" />
<path
   style="color:#000000;font-style:normal;font-variant:normal;font-weight:normal;font-stretch:normal;font-size:medium;line-height:normal;font-family:sans-serif;font-variant-ligatures:normal;font-variant-position:normal;font-variant-caps:normal;font-variant-numeric:normal;font-variant-alternates:normal;font-feature-settings:normal;text-indent:0;text-align:start;text-decoration:none;text-decoration-line:none;text-decoration-style:solid;text-decoration-color:#000000;letter-spacing:normal;word-spacing:normal;text-transform:none;writing-mode:lr-tb;direction:ltr;text-orientation:mixed;dominant-baseline:auto;baseline-shift:baseline;text-anchor:start;white-space:normal;shape-padding:0;clip-rule:nonzero;display:inline;overflow:visible;visibility:visible;opacity:0.7;isolation:auto;mix-blend-mode:normal;color-interpolation:sRGB;color-interpolation-filters:linearRGB;solid-color:#000000;solid-opacity:1;vector-effect:none;fill:#000000;fill-opacity:1;fill-rule:nonzero;stroke:#000000;stroke-width:2;stroke-linecap:butt;stroke-linejoin:round;stroke-miterlimit:4;stroke-dasharray:none;stroke-dashoffset:0;stroke-opacity:1;color-rendering:auto;image-rendering:auto;shape-rendering:auto;text-rendering:auto;enable-background:accumulate"
   d="M 4.1493962,11.861894 A 0.50004994,0.50004994 0 0 0 4.4919011,12 h 1.5606067 a 0.50004994,0.50004994 0 0 0 0.3535535,-0.146393 l 0.7554441,-0.758206 a 0.50004994,0.50004994 0 0 0 0.02624,-0.02348 L 7.354855,10.904813 7.3120419,10.862 a 0.50004994,0.50004994 0 0 0 0.00276,-0.0055 0.50004994,0.50004994 0 0 0 0.447466,0.0801 L 8.8464083,10.600978 6.1685177,7.923088 5.8356803,9.0099883 a 0.50004994,0.50004994 0 0 0 0.044194,0.3949854 L 5.7251948,9.5596534 a 0.50004994,0.50004994 0 0 0 -0.02624,0.02624 L 4.1383477,11.1465 a 0.50004994,0.50004994 0 0 0 0.011049,0.715394 z M 9.6322359,9.9725926 14.627558,4.9800321 a 0.50004994,0.50004994 0 0 0 0,-0.7071068 L 12.499333,2.1446996 A 0.50004994,0.50004994 0 0 0 12.138874,1.9996877 0.50004994,0.50004994 0 0 0 11.792226,2.1446998 L 6.7982847,7.1386414 Z"
   id="path856"
   inkscape:connector-curvature="0" />
<path
   style="color:#000000;font-style:normal;font-variant:normal;font-weight:normal;font-stretch:normal;font-size:medium;line-height:normal;font-family:sans-serif;font-variant-ligatures:normal;font-variant-position:normal;font-variant-caps:normal;font-variant-numeric:normal;font-variant-alternates:normal;font-feature-settings:normal;text-indent:0;text-align:start;text-decoration:none;text-decoration-line:none;text-decoration-style:solid;text-decoration-color:#000000;letter-spacing:normal;word-spacing:normal;text-transform:none;writing-mode:lr-tb;direction:ltr;text-orientation:mixed;dominant-baseline:auto;baseline-shift:baseline;text-anchor:start;white-space:normal;shape-padding:0;clip-rule:nonzero;display:inline;overflow:visible;visibility:visible;opacity:1;isolation:auto;mix-blend-mode:normal;color-interpolation:sRGB;color-interpolation-filters:linearRGB;solid-color:#000000;solid-opacity:1;vector-effect:none;fill:#ffffff;fill-opacity:1;fill-rule:nonzero;stroke:none;stroke-width:1px;stroke-linecap:butt;stroke-linejoin:round;stroke-miterlimit:4;stroke-dasharray:none;stroke-dashoffset:0;stroke-opacity:1;color-rendering:auto;image-rendering:auto;shape-rendering:auto;text-rendering:auto;enable-background:accumulate"
   d="M 9.6322359,9.9725926 14.627558,4.9800321 a 0.50004994,0.50004994 0 0 0 0,-0.7071068 L 12.499333,2.1446996 A 0.50004994,0.50004994 0 0 0 12.138874,1.9996877 0.50004994,0.50004994 0 0 0 11.792226,2.1446998 L 6.7982847,7.1386414 Z"
   id="path881" />
<path
   style="color:#000000;font-style:normal;font-variant:normal;font-weight:normal;font-stretch:normal;font-size:medium;line-height:normal;font-family:sans-serif;font-variant-ligatures:normal;font-variant-position:normal;font-variant-caps:normal;font-variant-numeric:normal;font-variant-alternates:normal;font-feature-settings:normal;text-indent:0;text-align:start;text-decoration:none;text-decoration-line:none;text-decoration-style:solid;text-decoration-color:#000000;letter-spacing:normal;word-spacing:normal;text-transform:none;writing-mode:lr-tb;direction:ltr;text-orientation:mixed;dominant-baseline:auto;baseline-shift:baseline;text-anchor:start;white-space:normal;shape-padding:0;clip-rule:nonzero;display:inline;overflow:visible;visibility:visible;opacity:1;isolation:auto;mix-blend-mode:normal;color-interpolation:sRGB;color-interpolation-filters:linearRGB;solid-color:#000000;solid-opacity:1;vector-effect:none;fill:#76c22b;fill-opacity:1;fill-rule:nonzero;stroke:none;stroke-width:1px;stroke-linecap:butt;stroke-linejoin:round;stroke-miterlimit:4;stroke-dasharray:none;stroke-dashoffset:0;stroke-opacity:1;color-rendering:auto;image-rendering:auto;shape-rendering:auto;text-rendering:auto;enable-background:accumulate"
   d="M 4.1493962,11.861894 A 0.50004994,0.50004994 0 0 0 4.4919011,12 h 1.5606067 a 0.50004994,0.50004994 0 0 0 0.3535535,-0.146393 l 0.7554441,-0.758206 a 0.50004994,0.50004994 0 0 0 0.02624,-0.02348 L 7.354855,10.904813 7.3120419,10.862 a 0.50004994,0.50004994 0 0 0 0.00276,-0.0055 0.50004994,0.50004994 0 0 0 0.447466,0.0801 L 8.8464083,10.600978 6.1685177,7.923088 5.8356803,9.0099883 a 0.50004994,0.50004994 0 0 0 0.044194,0.3949854 L 5.7251948,9.5596534 a 0.50004994,0.50004994 0 0 0 -0.02624,0.02624 L 4.1383477,11.1465 a 0.50004994,0.50004994 0 0 0 0.011049,0.715394 z"
   id="path850" />
<path
   d="m 0,13 h 16 v 3 H 0 Z"
   fill="#ed3d3b"
   id="path4"
   style="fill:#76c22b;fill-opacity:1" />
</svg>
