<?xml version="1.0" encoding="UTF-8" standalone="no"?>
<svg
   xmlns:dc="http://purl.org/dc/elements/1.1/"
   xmlns:cc="http://creativecommons.org/ns#"
   xmlns:rdf="http://www.w3.org/1999/02/22-rdf-syntax-ns#"
   xmlns:svg="http://www.w3.org/2000/svg"
   xmlns="http://www.w3.org/2000/svg"
   xmlns:sodipodi="http://sodipodi.sourceforge.net/DTD/sodipodi-0.dtd"
   xmlns:inkscape="http://www.inkscape.org/namespaces/inkscape"
   viewBox="0 0 16 16"
   version="1.1"
   id="svg6"
   sodipodi:docname="sc_chapternumberingdialog.svg"
   inkscape:version="1.0.1 (3bc2e813f5, 2020-09-07)"
   inkscape:export-filename="/home/jupiter007/Libreoffice yaru theme fullcolor/build/cmd/sc_insertmultiindex.png"
   inkscape:export-xdpi="95"
   inkscape:export-ydpi="95">
  <metadata
     id="metadata12">
    <rdf:RDF>
      <cc:Work
         rdf:about="">
        <dc:format>image/svg+xml</dc:format>
        <dc:type
           rdf:resource="http://purl.org/dc/dcmitype/StillImage" />
        <dc:title />
      </cc:Work>
    </rdf:RDF>
  </metadata>
  <defs
     id="defs10" />
  <sodipodi:namedview
     pagecolor="#ffffff"
     bordercolor="#666666"
     borderopacity="1"
     objecttolerance="10"
     gridtolerance="10"
     guidetolerance="10"
     inkscape:pageopacity="0"
     inkscape:pageshadow="2"
     inkscape:window-width="1920"
     inkscape:window-height="1011"
     id="namedview8"
     showgrid="true"
     inkscape:zoom="29.5"
     inkscape:cx="4.5103253"
     inkscape:cy="7.4575011"
     inkscape:window-x="1920"
     inkscape:window-y="32"
     inkscape:window-maximized="1"
     inkscape:current-layer="svg6"
     inkscape:document-rotation="0">
    <inkscape:grid
       type="xygrid"
       id="grid830" />
  </sodipodi:namedview>
  <path
     id="path4237-1"
     style="font-style:normal;font-variant:normal;font-weight:normal;font-stretch:normal;font-size:15px;line-height:125%;font-family:Ubuntu;-inkscape-font-specification:Ubuntu;text-align:center;letter-spacing:0px;word-spacing:0px;writing-mode:lr-tb;text-anchor:middle;display:inline;opacity:0.7;fill:#000000;fill-opacity:1;stroke:none;stroke-width:0.999802"
     d="m 10.014648,-0.01367185 c 1.25809,0.01508 2.178871,-0.028411 2.931641,0.3867187 0.37636,0.2075598 0.673211,0.5574939 0.837891,0.99609385 0.164709,0.4386099 0.224609,0.9595876 0.224609,1.6171875 v 1.4667967 2.087891 l -0.941406,-0.390625 c -0.591287,-0.244919 -1.145948,-0.02165 -1.572266,0.378906 -0.135442,-0.126975 -0.218198,-0.320748 -0.386719,-0.390625 -0.364986,-0.151342 -0.788183,-0.160349 -1.1894528,0.0059 l -1.115234,0.462891 c -0.585826,0.242653 -0.82435,0.799315 -0.84375,1.386719 -0.584848,0.02017 -1.134047,0.257322 -1.376953,0.84375 l -0.462891,1.115234 c -0.243772,0.5885281 -0.02282,1.1449991 0.376953,1.5722661 -0.401983,0.428789 -0.627678,0.989625 -0.384765,1.576172 l 0.378906,0.912068 h -2.486328 -0.002 c -1.2581,-0.01507 -2.178921,0.02841 -2.931641,-0.386719 C 0.69488318,13.419384 0.39803218,13.06947 0.23335218,12.63086 c -0.164663,-0.438612 -0.224563,-0.959578 -0.224563,-1.617188 V 4.4746089 2.9863282 c 0,-0.6576 0.05994,-1.1785176 0.22461,-1.6171875 0.164659,-0.43865985 0.461521,-0.79038705 0.83789002,-0.99804695 0.75275,-0.4153697 1.673441,-0.37026559778 2.931641,-0.3847656 h 0.0039 6.0058588 z M 11.555664,11.376953 c 0.06294,0.02607 0.113441,0.149258 0.08789,0.210938 -0.02607,0.06294 -0.149248,0.11344 -0.210938,0.08789 -0.06294,-0.02607 -0.11344,-0.149257 -0.08789,-0.210937 0.02607,-0.06294 0.149258,-0.113441 0.210938,-0.08789 z" />
  <path
     id="path1993"
     style="opacity:1;vector-effect:none;fill:#ffffff;fill-opacity:1;stroke:none;stroke-width:1;stroke-linecap:round;stroke-linejoin:bevel;stroke-miterlimit:4;stroke-dasharray:none;stroke-dashoffset:0;stroke-opacity:1"
     d="m 3.9912112,1.0136719 c 1.754439,-0.00109 4.509265,-8.37e-5 6.2636718,0.011719 0.699716,0.037554 1.456831,-0.0890191 2.125,0.2050781 0.405147,0.1815229 0.526892,0.6428814 0.576172,1.0449218 0.02282,1.1254111 0.02937,2.4926271 0.03125,3.8574221 -0.560773,-0.193285 -1.085426,0.01431 -1.492188,0.396484 -0.135442,-0.126975 -0.218198,-0.320748 -0.386719,-0.390625 -0.364986,-0.151342 -0.788183,-0.160349 -1.1894528,0.0059 l -1.115234,0.462891 c -0.585826,0.242653 -0.82435,0.799315 -0.84375,1.386719 -0.584848,0.02017 -1.134047,0.257322 -1.376953,0.84375 l -0.462891,1.115234 c -0.243772,0.5885281 -0.02282,1.1449991 0.376953,1.5722661 -0.37437,0.399335 -0.579659,0.914531 -0.412109,1.457031 -0.368567,3.36e-4 -0.809613,0.004 -1.123047,0.0039 -1.425857,-2.9e-4 0.148844,-0.0049 -1.275391,-0.01172 -0.65183,-0.03156 -1.30309,0.07078 -1.935546,-0.154297 -0.496205,-0.151 -0.660119,-0.702134 -0.699219,-1.164063 -0.04449,-2.2893521 -0.02928,-5.6150251 -0.02149,-7.9121091 0.03739,-0.648129 -0.0725,-1.3470677 0.14649,-1.9824141 0.139152,-0.5035883 0.693068,-0.6663574 1.154297,-0.7090254 1.549951,-0.050527 0.103575,-0.028266 1.660156,-0.039063 z M 11.555664,11.376953 c 0.06294,0.02607 0.113441,0.149258 0.08789,0.210938 -0.02607,0.06294 -0.149248,0.11344 -0.210938,0.08789 -0.06294,-0.02607 -0.11344,-0.149257 -0.08789,-0.210937 0.02607,-0.06294 0.149258,-0.113441 0.210938,-0.08789 z" />
  <path
     id="path4"
     style="fill:#762572"
     d="m 6.9912112,3.0136719 v 1 h -1 v 1 h 1 v 1 h -3 v -1 h 1 v -1 h -1 v -1 z m 0,5 v 0.3125 c -0.167676,0.129562 -0.315175,0.287128 -0.408203,0.511719 l -0.072266,0.175781 h -0.519531 v 1.0000001 h 0.115234 c -0.128029,0.354278 -0.08642,0.693053 0.05469,1 h -1.169921 -1 -2 v -1 h 1 V 9.0136719 h -1 v -1 h 2 1 z m -2,1 h -1 v 1.0000001 h 1 z" />
  <rect
     y="3.0136719"
     x="7.9912119"
     height="1"
     width="4"
     id="rect836"
     style="opacity:1;fill:#232629;fill-opacity:1;stroke:none;stroke-width:1.41421;stroke-linecap:round;stroke-linejoin:round;stroke-miterlimit:4;stroke-dasharray:none;stroke-opacity:1" />
  <rect
     style="opacity:1;fill:#232629;fill-opacity:1;stroke:none;stroke-width:1.41421;stroke-linecap:round;stroke-linejoin:round;stroke-miterlimit:4;stroke-dasharray:none;stroke-opacity:1"
     id="rect838"
     width="4"
     height="1"
     x="7.9912119"
     y="5.0136728" />
  <g
     id="g1425"
     transform="matrix(-1,0,0,1,22.996481,0.01367185)">
    <circle
       style="fill:#ffffff;fill-opacity:1;fill-rule:evenodd;stroke:none;stroke-width:2;stroke-linecap:round;stroke-linejoin:round;stroke-miterlimit:4;stroke-dasharray:none;stroke-opacity:1"
       id="path1328"
       cx="11.5"
       cy="11.5"
       r="1.5" />
    <path
       d="m 9.3111344,7.791575 c -0.13058,0.05409 -0.188804,0.19465 -0.134715,0.325232 l 0.272166,0.657066 c -0.260199,0.195351 -0.471578,0.424352 -0.66202,0.678364 L 8.1128724,9.173184 c -0.130581,-0.05409 -0.274445,0.0055 -0.328533,0.136083 l -0.461881,1.115078 c -0.05409,0.130582 0.0055,0.274445 0.136083,0.328534 l 0.673693,0.279053 c -0.04495,0.314275 -0.05741,0.62567 -0.01156,0.947793 l -0.657066,0.272166 c -0.130581,0.05409 -0.188804,0.19465 -0.134715,0.325232 l 0.462682,1.117013 c 0.05409,0.130581 0.19465,0.188803 0.325231,0.134715 l 0.657067,-0.272166 c 0.195351,0.260198 0.424352,0.471578 0.678363,0.66202 l -0.279053,0.673693 c -0.05409,0.130583 0.0055,0.274445 0.136083,0.328533 l 1.1150786,0.461881 c 0.130582,0.05409 0.274445,-0.0055 0.328533,-0.136083 l 0.279053,-0.673693 c 0.314276,0.04495 0.625672,0.05741 0.947794,0.01156 l 0.272166,0.657067 c 0.05409,0.130582 0.19465,0.188803 0.325231,0.134715 l 1.117013,-0.462682 c 0.130582,-0.05409 0.188804,-0.19465 0.134716,-0.325231 l -0.272166,-0.657067 c 0.260198,-0.19535 0.471577,-0.424351 0.662019,-0.678363 l 0.673694,0.279053 c 0.130583,0.05409 0.274445,-0.0055 0.328533,-0.136083 l 0.461881,-1.115079 c 0.05409,-0.130583 -0.0055,-0.274445 -0.136083,-0.328533 L 14.873035,11.97334 c 0.04495,-0.314276 0.05741,-0.625672 0.01156,-0.947794 l 0.657066,-0.272166 c 0.130582,-0.05409 0.188804,-0.194649 0.134716,-0.325231 L 15.213692,9.311132 C 15.159602,9.18055 15.019042,9.122328 14.88846,9.176417 L 14.231394,9.448582 C 14.036043,9.188383 13.807042,8.977005 13.553031,8.786563 l 0.279053,-0.673694 c 0.05409,-0.130582 -0.0055,-0.274445 -0.136083,-0.328533 L 12.580922,7.322455 c -0.130583,-0.05409 -0.274445,0.0055 -0.328534,0.136083 L 11.973335,8.132232 C 11.65906,8.087282 11.347664,8.074822 11.025542,8.120672 L 10.753376,7.463606 C 10.699286,7.333024 10.558726,7.274802 10.428144,7.32889 Z m 1.7560366,2.659752 c 0.580321,-0.240377 1.246395,0.03552 1.486772,0.615841 0.240377,0.580322 -0.03552,1.246395 -0.615841,1.486772 -0.580321,0.240377 -1.246395,-0.03552 -1.486772,-0.615841 -0.240377,-0.580321 0.03552,-1.246395 0.615841,-1.486772 z"
       display="block"
       fill="url(#d)"
       stroke="url(#e)"
       stroke-linejoin="round"
       stroke-width="0.6"
       id="path42"
       style="fill:#d3d3d3;fill-opacity:1;stroke:#4d4d4d;stroke-opacity:1" />
  </g>
</svg>
