<?xml version="1.0" encoding="UTF-8" standalone="no"?>
<svg
   xmlns:dc="http://purl.org/dc/elements/1.1/"
   xmlns:cc="http://creativecommons.org/ns#"
   xmlns:rdf="http://www.w3.org/1999/02/22-rdf-syntax-ns#"
   xmlns:svg="http://www.w3.org/2000/svg"
   xmlns="http://www.w3.org/2000/svg"
   xmlns:sodipodi="http://sodipodi.sourceforge.net/DTD/sodipodi-0.dtd"
   xmlns:inkscape="http://www.inkscape.org/namespaces/inkscape"
   viewBox="0 0 16 16"
   version="1.1"
   id="svg6"
   sodipodi:docname="sc_changepicture.svg"
   inkscape:export-filename="/home/jupiter007/Libreoffice yaru theme fullcolor/build/cmd/sc_changepicture.png"
   inkscape:export-xdpi="96"
   inkscape:export-ydpi="96"
   inkscape:version="1.0.1 (3bc2e813f5, 2020-09-07)">
  <metadata
     id="metadata12">
    <rdf:RDF>
      <cc:Work
         rdf:about="">
        <dc:format>image/svg+xml</dc:format>
        <dc:type
           rdf:resource="http://purl.org/dc/dcmitype/StillImage" />
      </cc:Work>
    </rdf:RDF>
  </metadata>
  <defs
     id="defs10" />
  <sodipodi:namedview
     pagecolor="#ffffff"
     bordercolor="#666666"
     borderopacity="1"
     objecttolerance="10"
     gridtolerance="10"
     guidetolerance="10"
     inkscape:pageopacity="0"
     inkscape:pageshadow="2"
     inkscape:window-width="1920"
     inkscape:window-height="1011"
     id="namedview8"
     showgrid="true"
     inkscape:zoom="29.5"
     inkscape:cx="5.3705052"
     inkscape:cy="7.3544157"
     inkscape:window-x="0"
     inkscape:window-y="0"
     inkscape:window-maximized="1"
     inkscape:current-layer="svg6"
     inkscape:document-rotation="0">
    <inkscape:grid
       type="xygrid"
       id="grid854" />
  </sodipodi:namedview>
  <path
     sodipodi:nodetypes="cccscsccccccccscscccccc"
     inkscape:connector-curvature="0"
     id="path4237-1"
     d="m 3.9965708,0.980421 c -1.2582,0.0145 -2.178891,-0.030604 -2.931641,0.3847656 -0.37636999,0.20766 -0.67323099,0.5593869 -0.83789099,0.9980469 -0.16467,0.43867 -0.2516058,0.9601419 -0.224609,1.6171875 v 1.488281 6.550877 c 0,0.65761 0.0599,1.178578 0.224609,1.617189 0.16468,0.438611 0.461531,0.788524 0.83789099,0.996093 0.75272,0.41513 1.673541,0.371649 2.931641,0.386718 h 0.002 8.0058092 0.0039 c 1.25819,-0.0145 2.178891,0.0306 2.931641,-0.384767 0.37637,-0.20766 0.673221,-0.559386 0.837891,-0.998046 0.164539,-0.43867 0.224618,-0.959577 0.224618,-1.617187 V 5.447218 3.980421 c 0,-0.6576 -0.0599,-1.1785775 -0.224609,-1.6171875 C 15.613141,1.9246335 15.31629,1.5746997 14.93993,1.3671398 14.18716,0.9520098 13.266329,0.995501 12.008239,0.980421 h -0.002 -8.0058092 z"
     style="font-style:normal;font-variant:normal;font-weight:normal;font-stretch:normal;font-size:15px;line-height:125%;font-family:Ubuntu;-inkscape-font-specification:Ubuntu;text-align:center;letter-spacing:0px;word-spacing:0px;writing-mode:lr-tb;text-anchor:middle;display:inline;opacity:0.7;fill:#000000;fill-opacity:1;stroke:none;stroke-width:0.999802" />
  <path
     inkscape:connector-curvature="0"
     id="path1993"
     d="m 7.9857738,2.0076058 c -1.556581,0.010796 -4.109965,-0.011752 -5.659916,0.038775 -0.461229,0.042668 -1.016188,0.2064194 -1.15534,0.7099668 -0.21899399,0.6353464 -0.108414,1.3337872 -0.145796,1.9819243 -0.0078,2.2970841 -0.02297,5.6350031 0.02152,7.9243551 0.0391,0.461928 0.202551,1.012665 0.698756,1.163665 0.632456,0.225082 1.284144,0.12274 1.935974,0.154299 1.424235,0.0068 3.850538,0.01102 5.276395,0.01131 1.7045312,3.49e-4 2.4083632,-0.005 4.1071652,-0.01851 0.511911,-0.01201 1.183699,0.01993 1.584745,-0.405191 0.421097,-0.539783 0.287073,-1.268022 0.322745,-1.903787 0.01187,-2.444323 0.02769,-5.94967 -0.0219,-8.3953695 C 14.900846,2.8670032 14.78013,2.4060914 14.374983,2.2245683 13.706814,1.9304709 12.948778,2.0565494 12.249062,2.0189956 10.494655,2.007193 9.7402128,2.0065112 7.9857738,2.0076058 Z"
     style="opacity:1;vector-effect:none;fill:#d85eca;fill-opacity:1;stroke:none;stroke-width:1;stroke-linecap:round;stroke-linejoin:bevel;stroke-miterlimit:4;stroke-dasharray:none;stroke-dashoffset:0;stroke-opacity:1"
     sodipodi:nodetypes="cccccccsccccccc" />
  <path
     d="m 11.502431,4.0189956 c -0.82843,0 -1.5,0.67157 -1.5,1.5 0,0.8284304 0.67157,1.5000004 1.5,1.5000004 0.82843,0 1.5,-0.67157 1.5,-1.5000004 0,-0.82843 -0.67157,-1.5 -1.5,-1.5 z"
     id="path4527-0-3"
     style="color:#000000;display:inline;overflow:visible;visibility:visible;fill:#ffffff;fill-opacity:1;fill-rule:nonzero;stroke:none;stroke-width:5.99881;marker:none;enable-background:accumulate" />
  <path
     d="m 6.0024298,6.518996 -3,5.5 h 2.71817 5.2818312 l -2.5000012,-4.5 -1,1.5 z"
     id="path4156-2-1"
     style="color:#000000;display:inline;overflow:visible;visibility:visible;fill:#ffffff;fill-opacity:1;fill-rule:nonzero;stroke:none;stroke-width:5.99881;marker:none;enable-background:accumulate" />
  <circle
     style="opacity:1;vector-effect:none;fill:#762572;fill-opacity:1;stroke:none;stroke-width:3.5;stroke-linecap:butt;stroke-linejoin:round;stroke-miterlimit:4;stroke-dasharray:none;stroke-dashoffset:0;stroke-opacity:1"
     id="path2644"
     cy="12.5"
     cx="12.5"
     r="3.5" />
  <path
     d="m 12.499999,10 c -0.433427,0 -0.832855,0.1201 -1.1875,0.3125 l 0.75,0.75 C 12.199593,11.0215 12.349208,11 12.499999,11 c 0.831,0 1.5,0.669 1.5,1.5 0,0.1508 -0.02148,0.3004 -0.0625,0.4375 l 0.75,0.75 c 0.192495,-0.3547 0.3125,-0.7541 0.3125,-1.1875 0,-1.385 -1.115,-2.5 -2.5,-2.5 z m -2.1875,1.3125 C 10.120004,11.6672 10,12.0666 10,12.5 c 0,1.385 1.114999,2.5 2.499999,2.5 0.433427,0 0.832855,-0.1201 1.1875,-0.3125 l -0.75,-0.75 C 12.800405,13.9785 12.65079,14 12.499999,14 c -0.831,0 -1.5,-0.669 -1.5,-1.5 0,-0.1508 0.02147,-0.3004 0.0625,-0.4375 z"
     id="path4"
     inkscape:connector-curvature="0"
     style="fill:#ffffff;fill-opacity:1"
     sodipodi:nodetypes="sccssccsscssccsscc" />
</svg>
