<?xml version="1.0" encoding="UTF-8" standalone="no"?>
<svg
   xmlns:dc="http://purl.org/dc/elements/1.1/"
   xmlns:cc="http://creativecommons.org/ns#"
   xmlns:rdf="http://www.w3.org/1999/02/22-rdf-syntax-ns#"
   xmlns:svg="http://www.w3.org/2000/svg"
   xmlns="http://www.w3.org/2000/svg"
   xmlns:sodipodi="http://sodipodi.sourceforge.net/DTD/sodipodi-0.dtd"
   xmlns:inkscape="http://www.inkscape.org/namespaces/inkscape"
   viewBox="0 0 16 16"
   version="1.1"
   id="svg4"
   sodipodi:docname="sc_duplicatepage.svg"
   inkscape:version="0.92.4 (5da689c313, 2019-01-14)"><metadata
   id="metadata10">
  <rdf:RDF>
    <cc:Work
       rdf:about="">
      <dc:format>image/svg+xml</dc:format>
      <dc:type
         rdf:resource="http://purl.org/dc/dcmitype/StillImage" />
    </cc:Work>
  </rdf:RDF>
</metadata>
<defs
   id="defs8" />
<sodipodi:namedview
   pagecolor="#ffffff"
   bordercolor="#666666"
   borderopacity="1"
   objecttolerance="10"
   gridtolerance="10"
   guidetolerance="10"
   inkscape:pageopacity="0"
   inkscape:pageshadow="2"
   inkscape:window-width="1920"
   inkscape:window-height="1011"
   id="namedview6"
   showgrid="true"
   inkscape:zoom="29.5"
   inkscape:cx="14.443132"
   inkscape:cy="6.3134968"
   inkscape:window-x="0"
   inkscape:window-y="32"
   inkscape:window-maximized="1"
   inkscape:current-layer="svg4">
  <inkscape:grid
     type="xygrid"
     id="grid823" />
</sodipodi:namedview>
/&gt;<path
   style="color:#000000;font-style:normal;font-variant:normal;font-weight:normal;font-stretch:normal;font-size:medium;line-height:normal;font-family:sans-serif;font-variant-ligatures:normal;font-variant-position:normal;font-variant-caps:normal;font-variant-numeric:normal;font-variant-alternates:normal;font-feature-settings:normal;text-indent:0;text-align:start;text-decoration:none;text-decoration-line:none;text-decoration-style:solid;text-decoration-color:#000000;letter-spacing:normal;word-spacing:normal;text-transform:none;writing-mode:lr-tb;direction:ltr;text-orientation:mixed;dominant-baseline:auto;baseline-shift:baseline;text-anchor:start;white-space:normal;shape-padding:0;clip-rule:nonzero;display:inline;overflow:visible;visibility:visible;opacity:1;isolation:auto;mix-blend-mode:normal;color-interpolation:sRGB;color-interpolation-filters:linearRGB;solid-color:#000000;solid-opacity:1;vector-effect:none;fill:#232629;fill-opacity:1;fill-rule:nonzero;stroke:none;stroke-width:1.00007653;stroke-linecap:butt;stroke-linejoin:miter;stroke-miterlimit:4;stroke-dasharray:none;stroke-dashoffset:0;stroke-opacity:1;marker:none;color-rendering:auto;image-rendering:auto;shape-rendering:auto;text-rendering:auto;enable-background:accumulate"
   d="M 5 2 C 4.34239 2 3.8214225 2.0618225 3.3828125 2.2265625 C 2.9442025 2.3912725 2.5942888 2.6880431 2.3867188 3.0644531 C 1.9715788 3.8172931 2.01507 4.7378037 2 5.9960938 L 2 5.9980469 L 2 6.0039062 L 2 6.0078125 C 2.0145 7.2661925 1.9693956 8.1865831 2.3847656 8.9394531 C 2.5924256 9.3158731 2.9441525 9.6126637 3.3828125 9.7773438 C 3.576485 9.8499969 3.7930176 9.8964438 4.0234375 9.9316406 C 4.0390307 10.713705 4.0849923 11.398059 4.3847656 11.941406 C 4.5924256 12.317826 4.9441525 12.614617 5.3828125 12.779297 C 5.8214825 12.943857 6.34239 13.001953 7 13.001953 L 11 13.001953 L 14 10.001953 L 14 8.9980469 L 14 8.9941406 C 13.9855 7.7357506 14.030604 6.81537 13.615234 6.0625 C 13.407574 5.68607 13.055848 5.3892994 12.617188 5.2246094 C 12.424416 5.1522372 12.207672 5.1074704 11.978516 5.0722656 C 11.963634 4.2794481 11.917969 3.6092633 11.615234 3.0605469 C 11.407574 2.6841169 11.055848 2.3873463 10.617188 2.2226562 C 10.178517 2.0579663 9.65761 2 9 2 L 5 2 z M 9 2.9980469 C 9.59239 2.9974545 10.005725 3.0606131 10.265625 3.1582031 C 10.525535 3.2558031 10.637091 3.3614819 10.738281 3.5449219 C 10.877377 3.7970578 10.933255 4.3213066 10.964844 5.0019531 L 7 5.0019531 C 6.34239 5.0019531 5.8214225 5.0637756 5.3828125 5.2285156 C 4.9442025 5.3932256 4.5942887 5.6899962 4.3867188 6.0664062 C 3.9823607 6.7996936 4.0140087 7.7034554 4.0019531 8.9121094 C 3.9039274 8.8907622 3.8075226 8.8692631 3.734375 8.8417969 C 3.474465 8.7441969 3.3629088 8.6404713 3.2617188 8.4570312 C 3.0601768 8.0917364 3.0147964 7.2625663 3 6.0078125 L 3 6.0019531 C 3.0152 4.7431331 3.0598988 3.912905 3.2617188 3.546875 C 3.3628788 3.363425 3.474575 3.2596594 3.734375 3.1621094 C 3.994165 3.0645094 4.40761 3.0025455 5 3.0019531 L 9 2.9980469 z M 11 6 C 11.59239 5.9994076 12.005725 6.0625662 12.265625 6.1601562 C 12.525535 6.2577562 12.637091 6.363435 12.738281 6.546875 C 12.940191 6.912875 12.9853 7.74129 13 9 L 10 9.0019531 L 10 12.001953 L 7 12.003906 C 6.40761 12.00434 5.994275 11.94134 5.734375 11.84375 C 5.474465 11.74615 5.3629087 11.642424 5.2617188 11.458984 C 5.0601768 11.09369 5.0147964 10.264519 5 9.0097656 L 5 9.0039062 C 5.0152 7.7450863 5.0598987 6.9148581 5.2617188 6.5488281 C 5.3628787 6.3653781 5.474575 6.2616125 5.734375 6.1640625 C 5.994165 6.0664625 6.40761 6.0044987 7 6.0039062 L 11 6 z "
   id="path2732-8-9-4" />
</svg>
