<?xml version="1.0" encoding="UTF-8" standalone="no"?>
<svg
   xmlns:dc="http://purl.org/dc/elements/1.1/"
   xmlns:cc="http://creativecommons.org/ns#"
   xmlns:rdf="http://www.w3.org/1999/02/22-rdf-syntax-ns#"
   xmlns:svg="http://www.w3.org/2000/svg"
   xmlns="http://www.w3.org/2000/svg"
   xmlns:sodipodi="http://sodipodi.sourceforge.net/DTD/sodipodi-0.dtd"
   xmlns:inkscape="http://www.inkscape.org/namespaces/inkscape"
   viewBox="0 0 16 16"
   version="1.1"
   id="svg4"
   sodipodi:docname="sc_deleteallannotation.svg"
   inkscape:version="0.92.4 (5da689c313, 2019-01-14)">
  <metadata
     id="metadata10">
    <rdf:RDF>
      <cc:Work
         rdf:about="">
        <dc:format>image/svg+xml</dc:format>
        <dc:type
           rdf:resource="http://purl.org/dc/dcmitype/StillImage" />
      </cc:Work>
    </rdf:RDF>
  </metadata>
  <defs
     id="defs8" />
  <sodipodi:namedview
     pagecolor="#ffffff"
     bordercolor="#666666"
     borderopacity="1"
     objecttolerance="10"
     gridtolerance="10"
     guidetolerance="10"
     inkscape:pageopacity="0"
     inkscape:pageshadow="2"
     inkscape:window-width="1920"
     inkscape:window-height="1011"
     id="namedview6"
     showgrid="false"
     inkscape:zoom="32"
     inkscape:cx="14.839679"
     inkscape:cy="3.2022408"
     inkscape:window-x="1920"
     inkscape:window-y="32"
     inkscape:window-maximized="1"
     inkscape:current-layer="svg4">
    <inkscape:grid
       type="xygrid"
       id="grid825" />
  </sodipodi:namedview>
  <path
     inkscape:connector-curvature="0"
     id="rect823"
     style="opacity:1;fill:#e95420;fill-opacity:1;fill-rule:nonzero;stroke:none;stroke-width:0.00106905;stroke-linecap:butt;stroke-linejoin:round;stroke-miterlimit:4;stroke-dasharray:none;stroke-dashoffset:0;stroke-opacity:1"
     d="M 6.4999997,7 H 11.5 C 11.777,7 12,7.223 12,7.5 12,7.777 11.777,8 11.5,8 H 6.4999997 c -0.277,0 -0.5,-0.223 -0.5,-0.5 0,-0.277 0.223,-0.5 0.5,-0.5 z M 8,11 6.9999997,11.000126 c -1,0 -2,0 -2,-1 V 7.0001263 c 0,-1 1,-1 2,-1 H 11 c 1,0 2,0 2,1 V 8 h 1.000001 V 7.0001263 c 0,-2 -1.000001,-2 -3.000001,-2 H 6.9999997 c -2,0 -2.9999997,0 -2.9999997,2 v 2.9999997 c 0,2 0.9999997,2 2.9999997,2 L 8,12 Z"
     sodipodi:nodetypes="sssssssccsssssccsssssccc" />
  <path
     inkscape:connector-curvature="0"
     style="fill:#c7162b"
     d="M 9.7128899,9.000001 8.9999997,9.701172 10.794922,11.500001 8.9999997,13.298828 9.7128899,14 11.5,12.207031 13.289063,14 14.000001,13.298828 12.205078,11.500001 14.000001,9.701172 13.289063,9.000001 11.5,10.792969 Z"
     id="path4" />
  <path
     sodipodi:nodetypes="cssssccsssscc"
     d="M 5,8 C 4,8 3,8 3,7 V 4.0000003 c 0,-1 1,-1 2,-1 h 4.0000003 c 0.9999997,0 1.9999997,0 1.9999997,1 -0.147071,2.5961947 1.000001,2.5961947 1.000001,0 0,-2 -1.000001,-2 -3.0000007,-2 H 5 c -2,0 -2.9999997,0 -2.9999997,2 V 7 C 2.0000003,9 3,9 5,9 Z"
     style="opacity:1;fill:#e95420;fill-opacity:1;fill-rule:nonzero;stroke:none;stroke-width:0.00106905;stroke-linecap:butt;stroke-linejoin:round;stroke-miterlimit:4;stroke-dasharray:none;stroke-dashoffset:0;stroke-opacity:1"
     id="path827"
     inkscape:connector-curvature="0" />
  <path
     style="opacity:1;fill:#e95420;fill-opacity:1;fill-rule:nonzero;stroke:none;stroke-width:0.001;stroke-linecap:butt;stroke-linejoin:round;stroke-miterlimit:4;stroke-dasharray:none;stroke-dashoffset:0;stroke-opacity:1"
     d="M 6.5,9 H 8 v 1 H 6.5 C 6.223,10 6,9.777 6,9.5 6,9.223 6.223,9 6.5,9 Z"
     id="rect831"
     inkscape:connector-curvature="0"
     sodipodi:nodetypes="sccsss" />
</svg>
