<?xml version="1.0" encoding="UTF-8" standalone="no"?>
<svg
   xmlns:dc="http://purl.org/dc/elements/1.1/"
   xmlns:cc="http://creativecommons.org/ns#"
   xmlns:rdf="http://www.w3.org/1999/02/22-rdf-syntax-ns#"
   xmlns:svg="http://www.w3.org/2000/svg"
   xmlns="http://www.w3.org/2000/svg"
   xmlns:sodipodi="http://sodipodi.sourceforge.net/DTD/sodipodi-0.dtd"
   xmlns:inkscape="http://www.inkscape.org/namespaces/inkscape"
   viewBox="0 0 16 16"
   version="1.1"
   id="svg6"
   sodipodi:docname="sc_dbquerypropertiesdialog.svg"
   inkscape:version="0.92.4 (5da689c313, 2019-01-14)">
  <metadata
     id="metadata12">
    <rdf:RDF>
      <cc:Work
         rdf:about="">
        <dc:format>image/svg+xml</dc:format>
        <dc:type
           rdf:resource="http://purl.org/dc/dcmitype/StillImage" />
      </cc:Work>
    </rdf:RDF>
  </metadata>
  <defs
     id="defs10" />
  <sodipodi:namedview
     pagecolor="#ffffff"
     bordercolor="#666666"
     borderopacity="1"
     objecttolerance="10"
     gridtolerance="10"
     guidetolerance="10"
     inkscape:pageopacity="0"
     inkscape:pageshadow="2"
     inkscape:window-width="1920"
     inkscape:window-height="1011"
     id="namedview8"
     showgrid="false"
     inkscape:zoom="14.75"
     inkscape:cx="8"
     inkscape:cy="8"
     inkscape:window-x="1920"
     inkscape:window-y="32"
     inkscape:window-maximized="1"
     inkscape:current-layer="svg6" />
  <path
     inkscape:connector-curvature="0"
     style="fill:#232629"
     d="M 7.40625,2.0012253 A 6,2 0 0 0 2.267578,3.4094283 6,2 0 0 0 2.11914,3.6047413 6,2 0 0 0 2.04492,3.7668503 6,2 0 0 0 2.02734,3.8176303 6,2 0 0 0 2,4.0012243 v 4 3.9999997 a 6,2 0 0 0 6,2 6,2 0 0 0 6,-2 v -3.9999997 -4 a 6,2 0 0 0 -0.02734,-0.183594 6,2 0 0 0 -0.01758,-0.05078 6,2 0 0 0 -0.07422,-0.162109 6,2 0 0 0 -0.148437,-0.195313 6,2 0 0 0 -5.138672,-1.408203 6,2 0 0 0 -0.59375,0 6,2 0 0 0 -0.593751,0 z m 0.59375,1 a 5,1 0 0 1 4.988281,0.927735 5,1 0 0 1 0.01172,0.07227 5,1 0 0 1 -0.02148,0.08789 5,1 0 0 1 -0.02539,0.04102 5,1 0 0 1 -0.04102,0.05664 5,1 0 0 1 -0.05469,0.04687 5,1 0 0 1 -0.06445,0.05078 5,1 0 0 1 -0.05859,0.03516 5,1 0 0 1 -0.115234,0.0625 5,1 0 0 1 -0.07422,0.0332 5,1 0 0 1 -0.125,0.05078 5,1 0 0 1 -0.103516,0.03711 5,1 0 0 1 -0.162109,0.05469 5,1 0 0 1 -0.158203,0.04297 5,1 0 0 1 -0.105469,0.02734 5,1 0 0 1 -0.191406,0.04492 5,1 0 0 1 -0.195313,0.04102 5,1 0 0 1 -0.06641,0.01172 5,1 0 0 1 -0.314453,0.05664 5,1 0 0 1 -0.0625,0.0078 5,1 0 0 1 -0.3125,0.04687 5,1 0 0 1 -0.224609,0.02539 5,1 0 0 1 -0.19336,0.02148 5,1 0 0 1 -0.142578,0.01563 5,1 0 0 1 -0.361328,0.03125 5,1 0 0 1 -0.06836,0.0059 5,1 0 0 1 -0.38086,0.02539 5,1 0 0 1 -0.150391,0.0078 5,1 0 0 1 -0.285156,0.01367 5,1 0 0 1 -0.441406,0.01172 5,1 0 0 1 -0.5,0.0059 5,1 0 0 1 -0.5,-0.0059 5,1 0 0 1 -0.441406,-0.01172 5,1 0 0 1 -0.296875,-0.01563 5,1 0 0 1 -0.132813,-0.0059 5,1 0 0 1 -0.396484,-0.02734 5,1 0 0 1 -0.05664,-0.0039 5,1 0 0 1 -0.363281,-0.03125 5,1 0 0 1 -0.142578,-0.01563 5,1 0 0 1 -0.19336,-0.02148 5,1 0 0 1 -0.224609,-0.02539 5,1 0 0 1 -0.3125,-0.04687 5,1 0 0 1 -0.0625,-0.0078 5,1 0 0 1 -0.314453,-0.05664 5,1 0 0 1 -0.06641,-0.01172 5,1 0 0 1 -0.195313,-0.04102 5,1 0 0 1 -0.191406,-0.04492 5,1 0 0 1 -0.105469,-0.02734 5,1 0 0 1 -0.158203,-0.04297 5,1 0 0 1 -0.162109,-0.05469 5,1 0 0 1 -0.103516,-0.03711 5,1 0 0 1 -0.125,-0.05078 5,1 0 0 1 -0.07422,-0.0332 5,1 0 0 1 -0.115234,-0.0625 5,1 0 0 1 -0.05859,-0.03516 5,1 0 0 1 -0.06445,-0.05078 5,1 0 0 1 -0.05469,-0.04687 5,1 0 0 1 -0.04101,-0.05664 5,1 0 0 1 -0.02539,-0.04102 5,1 0 0 1 -0.02148,-0.08789 5,1 0 0 1 0.01172,-0.07227 5,1 0 0 1 4.988281,-0.927735 z m -5,2.09375 a 6,2 0 0 0 0.324219,0.148438 6,2 0 0 0 0.189453,0.07422 6,2 0 0 0 0.232422,0.08594 6,2 0 0 0 0.05664,0.01758 6,2 0 0 0 0.386718,0.117187 6,2 0 0 0 0.07422,0.01953 6,2 0 0 0 0.375,0.0957 6,2 0 0 0 0.22461,0.04492 6,2 0 0 0 0.324218,0.06445 6,2 0 0 0 0.542969,0.08594 6,2 0 0 0 0.498047,0.06055 6,2 0 0 0 0.0078,0 6,2 0 0 0 0.34375,0.03125 6,2 0 0 0 0.279297,0.02148 6,2 0 0 0 0.01758,0.002 6,2 0 0 0 0.523437,0.02539 6,2 0 0 0 0.599612,0.01172 6,2 0 0 0 0.599609,-0.01172 6,2 0 0 0 0.541016,-0.02734 6,2 0 0 0 0.279297,-0.02148 6,2 0 0 0 0.34375,-0.03125 6,2 0 0 0 0.0078,0 6,2 0 0 0 0.498046,-0.06055 6,2 0 0 0 0.542969,-0.08594 6,2 0 0 0 0.300781,-0.05859 6,2 0 0 0 0.25586,-0.05469 6,2 0 0 0 0.30664,-0.07617 6,2 0 0 0 0.136719,-0.03516 6,2 0 0 0 0.384767,-0.117188 6,2 0 0 0 0.05664,-0.01758 6,2 0 0 0 0.232422,-0.08594 6,2 0 0 0 0.189453,-0.07422 6,2 0 0 0 0.324221,-0.148438 v 2.90625 a 5,1 0 0 1 -5,1 5,1 0 0 1 -5,-1 z m 0,4 a 6,2 0 0 0 5,0.9062497 6,2 0 0 0 5,-0.9062497 v 2.9062497 a 5,1 0 0 1 -5,1 5,1 0 0 1 -5,-1 z"
     id="path2" />
</svg>
