<?xml version="1.0" encoding="UTF-8" standalone="no"?>
<svg
   xmlns:dc="http://purl.org/dc/elements/1.1/"
   xmlns:cc="http://creativecommons.org/ns#"
   xmlns:rdf="http://www.w3.org/1999/02/22-rdf-syntax-ns#"
   xmlns:svg="http://www.w3.org/2000/svg"
   xmlns="http://www.w3.org/2000/svg"
   xmlns:sodipodi="http://sodipodi.sourceforge.net/DTD/sodipodi-0.dtd"
   xmlns:inkscape="http://www.inkscape.org/namespaces/inkscape"
   viewBox="0 0 16 16"
   version="1.1"
   id="svg4"
   sodipodi:docname="sc_diagramwall.svg"
   inkscape:export-filename="/home/jupiter007/Libreoffice yaru theme fullcolor/build/cmd/sc_diagramwall.png"
   inkscape:export-xdpi="96"
   inkscape:export-ydpi="96"
   inkscape:version="1.0.1 (3bc2e813f5, 2020-09-07)"><path
   sodipodi:nodetypes="cccscsccccccccscscccccc"
   inkscape:connector-curvature="0"
   id="path4237-1-7"
   d="m 3.9965708,0.98042098 c -1.2582,0.0145 -2.178891,-0.030604 -2.931641,0.38476552 -0.37637003,0.20766 -0.67323103,0.5593869 -0.83789103,0.9980469 -0.16467,0.43867 -0.25160587,0.9601419 -0.224609,1.6171875 v 1.488281 6.5508771 c 0,0.65761 0.0599,1.178578 0.224609,1.617189 0.16468,0.438611 0.461531,0.788524 0.83789103,0.996093 0.75272,0.41513 1.673541,0.371649 2.931641,0.386718 h 0.002 8.0058092 0.0039 c 1.25819,-0.0145 2.178891,0.0306 2.931641,-0.384767 0.37637,-0.20766 0.673221,-0.559386 0.837891,-0.998046 0.164539,-0.43867 0.224618,-0.959577 0.224618,-1.617187 V 5.4472179 3.9804209 c 0,-0.6576 -0.0599,-1.1785774 -0.224609,-1.6171875 C 15.613141,1.9246334 15.31629,1.5746996 14.93993,1.3671397 14.18716,0.95200978 13.266329,0.99550098 12.008239,0.98042098 h -0.002 -8.0058092 z"
   style="font-style:normal;font-variant:normal;font-weight:normal;font-stretch:normal;font-size:15px;line-height:125%;font-family:Ubuntu;-inkscape-font-specification:Ubuntu;text-align:center;letter-spacing:0px;word-spacing:0px;writing-mode:lr-tb;text-anchor:middle;display:inline;opacity:0.7;fill:#000000;fill-opacity:1;stroke:none;stroke-width:0.999802" />
<path
   id="rect3830-78-6"
   style="opacity:1;vector-effect:none;fill:#81e9c0;fill-opacity:1;stroke:none;stroke-width:2;stroke-linecap:round;stroke-linejoin:round;stroke-miterlimit:4;stroke-dasharray:none;stroke-dashoffset:0;stroke-opacity:1"
   d="m 3.9863557,2.0254606 c -0.577238,0.00493 -1.20523,0.00665 -1.660156,0.021484 -0.461229,0.042668 -1.015145,0.205437 -1.154297,0.7089844 -0.138697,0.4023876 -0.148915,0.8277579 -0.144531,1.2519535 h 2.958984 z" />
<metadata
   id="metadata10">
  <rdf:RDF>
    <cc:Work
       rdf:about="">
      <dc:format>image/svg+xml</dc:format>
      <dc:type
         rdf:resource="http://purl.org/dc/dcmitype/StillImage" />
    </cc:Work>
  </rdf:RDF>
</metadata>
<defs
   id="defs8" />
<sodipodi:namedview
   pagecolor="#ffffff"
   bordercolor="#666666"
   borderopacity="1"
   objecttolerance="10"
   gridtolerance="10"
   guidetolerance="10"
   inkscape:pageopacity="0"
   inkscape:pageshadow="2"
   inkscape:window-width="1920"
   inkscape:window-height="1011"
   id="namedview6"
   showgrid="true"
   inkscape:zoom="29.5"
   inkscape:cx="-2.3663405"
   inkscape:cy="8.1309933"
   inkscape:window-x="0"
   inkscape:window-y="0"
   inkscape:window-maximized="1"
   inkscape:current-layer="svg4"
   inkscape:document-rotation="0">
  <inkscape:grid
     type="xygrid"
     id="grid855" />
</sodipodi:namedview>


/&gt;<path
   id="rect3830-5-8"
   style="opacity:1;vector-effect:none;fill:#2daaaa;fill-opacity:1;stroke:none;stroke-width:2;stroke-linecap:round;stroke-linejoin:round;stroke-miterlimit:4;stroke-dasharray:none;stroke-dashoffset:0;stroke-opacity:1"
   d="m 1.0410437,12.007882 c 0.0029,0.202322 0.00218,0.465116 0.00586,0.654297 0.0391,0.461928 0.203014,1.013062 0.699219,1.164062 0.632456,0.225082 1.283716,0.122738 1.935546,0.154297 0.082259,3.93e-4 0.21613,-3.75e-4 0.304688,0 v -1.972656 z" />
<path
   id="rect3830-0-9-4"
   style="opacity:1;vector-effect:none;fill:#46a926;fill-opacity:1;stroke:none;stroke-width:2;stroke-linecap:round;stroke-linejoin:round;stroke-miterlimit:4;stroke-dasharray:none;stroke-dashoffset:0;stroke-opacity:1"
   d="m 3.9863557,12.007882 v 1.972656 c 1.162611,0.0049 2.6911057,0.0085 4,0.0098 v -1.982456 z" />
<path
   id="rect3830-2-2-5"
   style="opacity:1;vector-effect:none;fill:#fdc92b;fill-opacity:1;stroke:none;stroke-width:2;stroke-linecap:round;stroke-linejoin:round;stroke-miterlimit:4;stroke-dasharray:none;stroke-dashoffset:0;stroke-opacity:1"
   d="m 7.9863557,12.007882 v 1.982422 c 0.3176367,3.11e-4 0.7083371,0.0019 0.9707031,0.002 1.2571212,2.57e-4 2.0602192,-0.0067 3.0292972,-0.01367 v -1.970752 z" />
<path
   id="rect3830-3-2-0"
   style="opacity:1;vector-effect:none;fill:#f34f17;fill-opacity:1;stroke:none;stroke-width:2;stroke-linecap:round;stroke-linejoin:round;stroke-miterlimit:4;stroke-dasharray:none;stroke-dashoffset:0;stroke-opacity:1"
   d="m 11.986356,12.007882 v 1.970703 c 0.344895,-0.0025 0.632218,-0.0023 1.078125,-0.0059 0.511911,-0.01201 1.184891,0.02082 1.585937,-0.404297 0.347864,-0.445868 0.317588,-1.015756 0.316407,-1.560506 z" />
<path
   id="rect3830-9-3"
   style="opacity:1;vector-effect:none;fill:#31c6b7;fill-opacity:1;stroke:none;stroke-width:2;stroke-linecap:round;stroke-linejoin:round;stroke-miterlimit:4;stroke-dasharray:none;stroke-dashoffset:0;stroke-opacity:1"
   d="m 1.0176057,8.0078825 c -0.00125,1.414231 0.00572,2.7634455 0.023438,3.9999995 h 2.945312 V 8.0078825 Z" />
<rect
   style="opacity:1;vector-effect:none;fill:#76c22b;fill-opacity:1;stroke:none;stroke-width:2;stroke-linecap:round;stroke-linejoin:round;stroke-miterlimit:4;stroke-dasharray:none;stroke-dashoffset:0;stroke-opacity:1"
   id="rect3830-0-7-6"
   width="4"
   height="4"
   x="3.9863558"
   y="8.0078821" />
<rect
   style="opacity:1;vector-effect:none;fill:#ffda64;fill-opacity:1;stroke:none;stroke-width:2;stroke-linecap:round;stroke-linejoin:round;stroke-miterlimit:4;stroke-dasharray:none;stroke-dashoffset:0;stroke-opacity:1"
   id="rect3830-2-3-1"
   width="4"
   height="4"
   x="7.9863548"
   y="8.0078821" />
<path
   id="rect3830-3-6-0"
   style="opacity:1;vector-effect:none;fill:#fb7c38;fill-opacity:1;stroke:none;stroke-width:2;stroke-linecap:round;stroke-linejoin:round;stroke-miterlimit:4;stroke-dasharray:none;stroke-dashoffset:0;stroke-opacity:1"
   d="m 11.986356,8.0078825 v 3.9999995 h 2.980469 c -2.49e-4,-0.114682 -3.45e-4,-0.233184 0.0059,-0.34375 0.0052,-1.064627 0.0088,-2.3642817 0.0098,-3.6562495 z" />
<path
   id="rect3830-29-6"
   style="opacity:1;vector-effect:none;fill:#5bdbc1;fill-opacity:1;stroke:none;stroke-width:2;stroke-linecap:round;stroke-linejoin:round;stroke-miterlimit:4;stroke-dasharray:none;stroke-dashoffset:0;stroke-opacity:1"
   d="m 1.0273717,4.0078825 c 0.00254,0.2455851 0.011753,0.4928196 -0.00195,0.7304688 -0.00322,0.9471226 -0.00679,2.1149737 -0.00782,3.2695312 h 2.96875 v -4 z" />
<rect
   style="opacity:1;vector-effect:none;fill:#a6d74f;fill-opacity:1;stroke:none;stroke-width:2;stroke-linecap:round;stroke-linejoin:round;stroke-miterlimit:4;stroke-dasharray:none;stroke-dashoffset:0;stroke-opacity:1"
   id="rect3830-0-3-3"
   width="4"
   height="4"
   x="3.9863558"
   y="4.0078826" />
<rect
   style="opacity:1;vector-effect:none;fill:#fee581;fill-opacity:1;stroke:none;stroke-width:2;stroke-linecap:round;stroke-linejoin:round;stroke-miterlimit:4;stroke-dasharray:none;stroke-dashoffset:0;stroke-opacity:1"
   id="rect3830-2-1-2"
   width="4"
   height="4"
   x="7.9863548"
   y="4.0078826" />
<path
   id="rect3830-3-9-0"
   style="opacity:1;vector-effect:none;fill:#fda463;fill-opacity:1;stroke:none;stroke-width:2;stroke-linecap:round;stroke-linejoin:round;stroke-miterlimit:4;stroke-dasharray:none;stroke-dashoffset:0;stroke-opacity:1"
   d="m 11.986356,4.0078825 v 4 h 2.996094 c 10e-4,-1.4134357 -0.007,-2.7536244 -0.02539,-4 z" />
<path
   id="rect3830-0-4-1"
   style="opacity:1;vector-effect:none;fill:#cbe667;fill-opacity:1;stroke:none;stroke-width:2;stroke-linecap:round;stroke-linejoin:round;stroke-miterlimit:4;stroke-dasharray:none;stroke-dashoffset:0;stroke-opacity:1"
   d="m 7.9863557,2.0078825 c -1.0997087,0.00763 -2.610568,0.00571 -4,0.017578 v 1.982422 h 4 z" />
<path
   id="rect3830-2-5-5"
   style="opacity:1;vector-effect:none;fill:#fff4c9;fill-opacity:1;stroke:none;stroke-width:2;stroke-linecap:round;stroke-linejoin:round;stroke-miterlimit:4;stroke-dasharray:none;stroke-dashoffset:0;stroke-opacity:1"
   d="m 7.9863557,2.0078825 v 2 H 11.986356 V 2.0196013 C 10.449297,2.0097855 9.6322984,2.0068556 7.9863557,2.0078825 Z" />
<path
   id="rect3830-3-0-5"
   style="opacity:1;vector-effect:none;fill:#fec589;fill-opacity:1;stroke:none;stroke-width:2;stroke-linecap:round;stroke-linejoin:round;stroke-miterlimit:4;stroke-dasharray:none;stroke-dashoffset:0;stroke-opacity:1"
   d="m 11.986356,2.0196013 v 1.9882812 h 2.970703 c -0.0034,-0.2300439 -0.0015,-0.5231871 -0.0059,-0.7382812 -0.04928,-0.4020404 -0.171025,-0.8633989 -0.576172,-1.0449219 -0.668169,-0.2940975 -1.425284,-0.1675244 -2.125,-0.2050781 -0.108495,-7.299e-4 -0.162353,6.47e-4 -0.263672,0 z" />
<path
   d="m 2.9999999,12 h 1 3 H 13 V 11 H 12 V 6.9999999 H 9.9999999 V 11 h -1 V 9.0000001 h -2 V 11 h -1 V 4.9999999 h -2 V 11 h -1 z"
   id="path2"
   inkscape:connector-curvature="0"
   style="fill:#232629;fill-opacity:1"
   sodipodi:nodetypes="ccccccccccccccccccc" />
</svg>
