<?xml version="1.0" encoding="UTF-8" standalone="no"?>
<svg
   xmlns:dc="http://purl.org/dc/elements/1.1/"
   xmlns:cc="http://creativecommons.org/ns#"
   xmlns:rdf="http://www.w3.org/1999/02/22-rdf-syntax-ns#"
   xmlns:svg="http://www.w3.org/2000/svg"
   xmlns="http://www.w3.org/2000/svg"
   xmlns:sodipodi="http://sodipodi.sourceforge.net/DTD/sodipodi-0.dtd"
   xmlns:inkscape="http://www.inkscape.org/namespaces/inkscape"
   viewBox="0 0 16 16"
   version="1.1"
   id="svg4"
   sodipodi:docname="sc_datastreams.svg"
   inkscape:version="0.92.4 (5da689c313, 2019-01-14)">
  <metadata
     id="metadata10">
    <rdf:RDF>
      <cc:Work
         rdf:about="">
        <dc:format>image/svg+xml</dc:format>
        <dc:type
           rdf:resource="http://purl.org/dc/dcmitype/StillImage" />
      </cc:Work>
    </rdf:RDF>
  </metadata>
  <defs
     id="defs8" />
  <sodipodi:namedview
     pagecolor="#ffffff"
     bordercolor="#666666"
     borderopacity="1"
     objecttolerance="10"
     gridtolerance="10"
     guidetolerance="10"
     inkscape:pageopacity="0"
     inkscape:pageshadow="2"
     inkscape:window-width="1920"
     inkscape:window-height="1011"
     id="namedview6"
     showgrid="true"
     inkscape:zoom="32"
     inkscape:cx="9.0455721"
     inkscape:cy="6.9516695"
     inkscape:window-x="0"
     inkscape:window-y="32"
     inkscape:window-maximized="1"
     inkscape:current-layer="svg4">
    <inkscape:grid
       type="xygrid"
       id="grid823" />
  </sodipodi:namedview>
  <path
     d="m 10,7 c -2.20914,0 -4,1.7908667 -4,4 0,2.209133 1.79086,4 4,4 2.20914,0 4,-1.790867 4,-4 0,-2.2091333 -1.79086,-4 -4,-4 z m 0,0.6660156 c 0.11506,0 0.221924,0.010151 0.333984,0.021484 h 0.08203 c 0.03507,0.00667 0.07073,0.014198 0.105468,0.019531 0.09577,0.015333 0.176718,0.04112 0.269532,0.064453 0.171066,0.042 0.34048,0.098482 0.5,0.1660156 0.08795,0.037333 0.1661,0.0806 0.25,0.125 -4.7e-5,0.00667 5.33e-4,0.012198 0,0.019531 0.01933,0.00867 0.0299,0.046453 0.0625,0.064453 0.012,0.00667 0.01022,0.013531 0.02148,0.019531 0.01933,0.010667 0.04502,0.022349 0.04102,0.041016 -0.0053,0.026667 -0.04383,0.021016 -0.0625,0.041016 0.0027,0.038667 -0.03102,0.038453 -0.04102,0.064453 0.006,0.016667 0.03835,0.021682 0.04102,0.041016 -0.0033,0.021333 -0.04902,0.019682 -0.04102,0.041016 0.036,0.028 0.06952,0.00667 0.103516,0 0.07466,-0.00933 0.1415,-0.00635 0.1875,-0.041016 -0.006,-0.035333 0.0665,-0.0305 0.0625,-0.0625 0.01913,0.014 0.04357,0.027016 0.0625,0.041016 -0.0072,0.00667 -0.01153,0.016198 -0.01953,0.019531 -0.014,0.00667 -0.0303,0.013484 -0.04297,0.021484 -0.01867,0.012 -0.04117,0.027682 -0.0625,0.041016 -0.01533,0.010667 -0.0465,0.0625 -0.0625,0.0625 -0.01933,0 -0.0485,-0.023531 -0.0625,-0.019531 -0.02,0.00667 -0.01842,0.033682 -0.04102,0.041016 -0.044,0.016 -0.131158,-0.024318 -0.146484,0.041016 0.01867,0.038 0.09167,0.020349 0.125,0.041016 0.02067,0.013333 0.05723,0.061318 0.0625,0.083984 0.0053,0.018667 0.008,0.105 0,0.125 -0.02067,0.053333 -0.08321,0.041682 -0.144532,0.041016 h -0.04297 c -0.10332,-0.00667 -0.203334,-0.052516 -0.25,0.021484 0.0033,0.056667 0.01267,0.095198 0,0.1445313 -0.0093,0.036 -0.0645,0.074402 -0.0625,0.1054687 6.66e-4,0.016 0.03897,0.039833 0.04297,0.0625 0.0027,0.012 -0.0053,0.029682 0,0.041016 0.01733,0.032667 0.05137,-0.00667 0.08203,0 0.02933,0.00667 0.0625,0.049365 0.0625,0.082031 0,0.023333 -0.0047,0.061318 -0.01953,0.083984 -0.02933,0.044 -0.083,0.0385 -0.125,0.0625 -0.03467,0.02 -0.04183,0.071069 -0.0625,0.1054687 -0.022,0.037333 -0.05163,0.049982 -0.04297,0.1035156 -0.03,0.059333 -0.063,0.096333 -0.125,0.125 -0.018,0.008 -0.0459,0.00753 -0.0625,0.019531 -0.01333,0.00933 -0.02235,0.04312 -0.04102,0.064453 -0.02333,0.026 -0.04983,0.0425 -0.0625,0.0625 -0.0093,0.015333 -0.01155,0.041167 -0.02148,0.0625 -0.01467,0.028 -0.0439,0.034501 -0.0625,0.062501 -0.0087,0.01333 -0.01027,0.04517 -0.01953,0.0625 -0.02133,0.03867 -0.04697,0.06952 -0.04297,0.103515 0.0033,0.032 0.04097,0.03317 0.04297,0.0625 0.002,0.016 -0.02215,0.02368 -0.02148,0.04102 6.67e-4,0.02533 0.01955,0.04445 0.02148,0.06445 0.0047,0.04933 -0.03363,0.06978 -0.04297,0.103516 -0.0047,0.016 0.004,0.02835 0,0.04102 -0.008,0.02467 -0.04035,0.05465 -0.04102,0.08398 -6.67e-4,0.02067 0.03902,0.03317 0.04102,0.0625 0.0013,0.01933 -0.02353,0.04383 -0.01953,0.0625 0.0073,0.036 0.07552,0.07552 0.103516,0.103515 0.038,0.038 0.08686,0.06527 0.103516,0.105469 0.014,0.034 0.01697,0.0996 0.04297,0.125 0.01933,0.01867 0.05737,0.02168 0.08203,0.04101 0.02333,0.018 0.0379,0.02168 0.0625,0.04102 0.04067,0.032 0.103302,0.108182 0.167968,0.103516 0.034,-0.0067 0.06548,-0.03502 0.103516,-0.04102 0.03933,-0.0067 0.08501,-0.02482 0.125,-0.02148 0.03067,0.0067 0.07152,0.02348 0.103516,0.02148 0.03333,-0.0067 0.0675,-0.0075 0.105468,-0.02148 0.066,-0.02867 0.173545,-0.07617 0.269532,-0.0625 0.07333,0.01067 0.07367,0.09233 0.125,0.125 0.05867,0.0067 0.09982,-0.01133 0.146484,0 0.03533,0.0087 0.08065,0.05598 0.08398,0.08398 0.0033,0.02867 -0.03897,0.06598 -0.04297,0.08398 -0.0093,0.03867 0.0067,0.07885 0,0.103516 -0.0053,0.01933 -0.0202,0.04317 -0.01953,0.0625 0,0.01733 0.02302,0.06132 0.04102,0.08398 0.022,0.028 0.05732,0.05203 0.08398,0.08203 0.04867,0.056 0.06952,0.1135 0.103516,0.1875 0.0087,0.01867 -0.008,0.04045 0,0.06445 -0.01467,0.111933 -0.05167,0.188567 -0.125,0.3125 -0.03467,0.04 -0.08465,0.07507 -0.08398,0.125 -0.0027,0.12 0.06787,0.1965 0.0625,0.3125 -0.012,0.155933 0.012,0.166733 0,0.25 0.05267,0.02667 0.01533,0.110617 0,0.166015 -0.02267,0.066 -0.04983,0.081 -0.0625,0.125 0.0354,0.01534 0.08568,0.0093 0.125,0 -0.01987,0.02067 -0.04217,0.04184 -0.0625,0.0625 -0.150807,0.150803 -0.322667,0.296149 -0.5,0.416016 -0.344027,0.2324 -0.725372,0.408933 -1.144532,0.5 -0.229026,0.05 -0.465057,0.0625 -0.708984,0.0625 -0.1268867,0 -0.2520867,-0.0055 -0.375,-0.01953 -0.097907,-0.01133 -0.1958756,-0.02168 -0.2910156,-0.04102 -0.18878,-0.03867 -0.3672821,-0.118433 -0.5429688,-0.1875 -0.006,-0.01133 -0.020998,-0.02963 -0.019531,-0.04297 0.034667,-0.01467 0.099673,0.04933 0.125,0 0.012667,-0.02333 -0.016667,-0.08018 0,-0.103515 0.012,-0.016 0.078856,-0.01487 0.1035156,-0.01953 0.035333,-0.0067 0.085469,-0.01215 0.1054688,-0.02149 0.022,-0.014 0.045016,-0.06265 0.041016,-0.103515 -0.002,-0.01933 -0.025749,-0.02564 -0.041016,-0.04297 -0.012667,-0.01467 0.00867,-0.02768 0,-0.04102 -0.016,-0.02333 -0.0559,-0.0285 -0.0625,-0.0625 0.048,-0.0093 0.1181732,0.04081 0.1875,0.02149 0.032666,-0.0093 0.088182,-0.07278 0.1035156,-0.103516 0.00467,-0.0093 -0.00533,-0.03097 0,-0.04297 0.006,-0.012 0.019484,-0.03503 0.021484,-0.04101 0.00467,-0.018 -0.004,-0.0075 0,-0.01953 0.012,-0.034 0.040547,-0.05998 0.060547,-0.08398 0.015333,-0.01867 0.0485,-0.04317 0.0625,-0.0625 0.016,-0.02067 0.010884,-0.02235 0.021484,-0.04102 0.01,-0.06067 -0.036151,-0.114702 -0.021484,-0.167968 0.016,-0.06 0.1099754,-0.09767 0.1679688,-0.125 0.02,-0.0093 0.0459,-0.01353 0.0625,-0.01953 0.04,-0.014 0.087667,-0.02835 0.125,-0.04101 0.062667,-0.02267 0.072849,-0.06773 0.1035156,-0.125 0.014667,-0.02667 0.038349,-0.06464 0.041016,-0.08399 0.00267,-0.01733 -0.00333,-0.02101 0,-0.04101 0.00333,-0.01933 -0.00533,-0.03983 0,-0.0625 C 9.9858586,12.576815 10,12.512402 10,12.480469 c 0,-0.02667 -0.020884,-0.0385 -0.021484,-0.0625 -0.00467,-0.08667 0.030566,-0.07767 0.0625,-0.125 0.016,-0.02333 0.0317,-0.06731 0.04297,-0.08399 0.054,-0.08 0.151198,-0.107182 0.144532,-0.228515 -0.0027,-0.04 -0.03323,-0.133818 -0.0625,-0.146485 -0.01667,-0.0073 -0.0379,-0.01282 -0.0625,-0.02148 C 10.024856,11.78317 9.9569933,11.694167 9.875,11.6875 H 9.833984 c -0.032,0 -0.069475,-0.01487 -0.1054688,-0.01953 -0.022667,-0.0067 -0.068698,0.0067 -0.082031,0 -0.020667,-0.01 -0.026302,-0.05117 -0.042969,-0.0625 -0.013333,-0.0093 -0.0419,-0.01414 -0.0625,-0.02149 -0.032667,-0.012 -0.044031,-0.03901 -0.082031,-0.04101 -0.012,0 -0.029635,0.0067 -0.042969,0 -0.020667,-0.0067 -0.04128,-0.0095 -0.060547,-0.02149 -0.024,-0.01467 -0.052567,-0.02035 -0.0625,-0.04101 0.022,-0.07193 -0.0479,-0.083 -0.0625,-0.125 -0.00667,-0.01933 0.00667,-0.0647 0,-0.08203 -0.00867,-0.02467 -0.035233,-0.04379 -0.0625,-0.06445 -0.048,-0.03733 -0.077824,-0.05383 -0.1464844,-0.0625 -0.030667,-0.0067 -0.066856,0.0067 -0.1035156,0 -0.038667,-0.0067 -0.095673,-0.02917 -0.125,-0.0625 -0.028,-0.03267 -0.0379,-0.06663 -0.0625,-0.08203 -0.023334,-0.01467 -0.0465,-0.0283 -0.0625,-0.04297 -0.00733,-0.0067 -0.014818,-0.0055 -0.021484,-0.01953 -0.012,-0.02467 -0.036151,-0.0325 -0.021484,-0.0625 -0.026667,-0.01333 -0.012349,0.0242 -0.041016,0.01953 -0.026,-0.03667 -0.044882,-0.07303 -0.1035156,-0.0625 -0.026667,0.0067 -0.052651,0.06183 -0.083984,0.0625 -0.026,0 -0.049984,-0.05717 -0.083984,-0.0625 -0.026,-0.0067 -0.064031,0.02482 -0.082031,0.02148 -0.028667,-0.0067 -0.036567,-0.02368 -0.0625,-0.04102 -0.019334,-0.01267 -0.051834,-0.04168 -0.0625,-0.04102 -0.033334,0 -0.059502,0.06568 -0.1054688,0.04102 -0.022667,-0.02867 0.048218,-0.03583 0.021484,-0.0625 -0.02,-0.01933 -0.025016,0.0102 -0.041016,0.01953 -0.018667,0.012 -0.0419,0.01415 -0.0625,0.02148 -0.046,0.01733 -0.089007,0.02235 -0.125,0.04102 -0.033333,0.01733 -0.043233,0.0285 -0.0625,0.0625 -0.015333,0.028 -0.039233,0.08265 -0.0625,0.08398 -0.028,0 -0.037167,-0.02968 -0.0625,-0.04102 -0.07666,-0.03333 -0.1241736,0.0182 -0.1875,0.01953 -0.058667,0 -0.1491511,-0.09115 -0.1464844,-0.146484 0.002,-0.034 0.017551,-0.083 0.021484,-0.125 0.00333,-0.03333 0.040416,-0.07312 0.041016,-0.103516 6.666e-4,-0.04133 -0.076849,-0.05783 -0.1035156,-0.0625 -0.062667,-0.01133 -0.1376578,0.028 -0.2089844,0 -0.013333,-0.02267 0.013551,-0.03983 0.021484,-0.0625 0.00467,-0.012 -0.00467,-0.02768 0,-0.04102 0.008,-0.02133 0.052567,-0.03983 0.0625,-0.0625 0.00733,-0.01733 -0.00733,-0.0405 0,-0.0625 0.00867,-0.024 0.039016,-0.04517 0.041016,-0.0625 0.00267,-0.02267 -0.023082,-0.04979 -0.041016,-0.06445 -0.055333,0.0067 -0.093,0.0075 -0.125,0.02148 -0.071993,0.03267 -0.052333,0.123818 -0.125,0.146484 -0.024667,0.008 -0.055984,0.01487 -0.083984,0.01953 -0.0122,0.0067 -0.027349,0 -0.041016,0 0.00133,-0.0067 -0.00133,-0.01287 0,-0.01953 0.00333,-0.01533 0.016265,-0.02635 0.019531,-0.04102 0.047533,-0.216667 0.1215777,-0.4264001 0.2089844,-0.625 h 0.021484 c 0.025333,0.00667 0.0405,0.039682 0.0625,0.041016 0.061333,0.00667 0.074333,-0.057318 0.125,-0.083984 0.052,0.00733 0.077673,-0.00667 0.125,0 0.032,0.00667 0.078189,0.038349 0.1035156,0.041016 0.021333,0 0.021016,-0.022198 0.041016,-0.019531 0.02,0.00667 0.059233,0.0385 0.0625,0.0625 0.00333,0.03 -0.028265,0.070449 -0.019531,0.1035156 0.031333,0.032 0.099865,0.043833 0.1445312,0.0625 0.029333,-0.024667 0.00467,-0.068849 0,-0.1035156 -6.667e-4,-0.015333 0.002,-0.0485 0,-0.0625 -0.00333,-0.024 -0.019531,-0.041833 -0.019531,-0.0625 0,-0.095333 0.080538,-0.1307021 0.1445312,-0.1679688 0.027333,-0.016 0.059984,-0.0505 0.083984,-0.0625 0.034,-0.016667 0.055984,-0.00553 0.083984,-0.019531 0.050667,-0.028667 0.085666,-0.073002 0.125,-0.1054688 0.018,-0.043333 -0.002,-0.1018646 0,-0.1445312 0.018,-0.011333 0.043233,0 0.0625,0 0.030666,-0.00667 0.045166,-0.045167 0.0625,-0.0625 0.01,-0.01 0.029016,-0.011484 0.041016,-0.021484 0.030667,-0.024 0.035833,-0.051833 0.0625,-0.0625 0.00933,-0.00667 0.026349,-0.016818 0.041016,-0.021484 0.02,-0.00667 0.051984,-0.00753 0.083984,-0.019531 0.020667,-0.00733 0.075984,-0.012818 0.083984,-0.021484 0.01,-0.01 -0.00267,-0.047167 0,-0.0625 0.016,-0.075267 0.1201732,-0.078116 0.1875,-0.1035156 0.046667,-0.017333 0.092531,-0.0717 0.1445312,-0.0625 -0.01,0.036 -0.049682,0.038698 -0.041016,0.082031 C 8.782816,8.851671 8.853665,8.780139 8.8749986,8.771473 8.9156656,8.75414 8.9896338,8.728973 9.0429674,8.708973 9.0896348,8.6923121 9.1689933,8.679 9.125,8.625 9.0883333,8.6183333 9.0749688,8.653349 9.0429688,8.6660156 9.0209685,8.6726823 9.0186667,8.6484844 9,8.6464844 c -0.018,0 -0.023016,0.022865 -0.041016,0.019531 -0.018,-0.00667 -0.038349,-0.0405 -0.041016,-0.0625 -0.00733,-0.056 0.0399,-0.061982 0.0625,-0.1035156 -0.015334,-0.050667 -0.08234,-0.021682 -0.125,-0.041016 0.00467,-0.03 0.027233,-0.057786 0.0625,-0.064453 0.028666,-0.00667 0.1076665,0.00748 0.125,0.021484 0.01,0.00867 -0.015267,0.027682 0,0.041016 0.017333,0.015333 0.0399,0.00667 0.0625,0 0.008,-0.038 -0.049636,-0.016349 -0.042969,-0.041016 0.045333,-0.029333 0.1321733,-0.014151 0.1875,-0.021484 0.032,-0.00667 0.076802,-0.025682 0.1054688,-0.041016 0.026666,-0.015333 0.0345,-0.044865 0.0625,-0.019531 0.008,0.027333 -0.00602,0.047833 -0.021484,0.0625 C 9.3451516,8.4418183 9.2899933,8.4884156 9.25,8.5410156 c 0.024667,0.024 0.064102,0.016818 0.1054688,0.021484 0.016,0.00667 0.0459,0 0.0625,0 0.02,0.00667 0.044547,-0.00667 0.060547,0 0.028,0.00667 0.034567,0.0625 0.0625,0.0625 0.045333,0 0.026,-0.053984 0,-0.083984 C 9.5490154,8.5096823 9.5739,8.4809844 9.5625,8.4589844 9.5418333,8.417651 9.4629844,8.471302 9.4589844,8.4179688 9.4563177,8.3846353 9.488,8.3808019 9.5,8.3554688 c -0.00533,-0.064 0.047682,-0.067 0.041016,-0.125 C 9.5376819,8.2064687 9.5166667,8.2101667 9.5,8.1875 9.4913333,8.1755 9.488449,8.1343333 9.4785156,8.125 9.443849,8.0956667 9.379,8.1185 9.375,8.0625 9.373,8.029167 9.37967,7.994718 9.375,7.9589844 9.37033,7.9249844 9.341767,7.8191667 9.3125,7.8125 9.275167,7.8045 9.253684,7.8758184 9.2089844,7.8964844 c -0.024,0.011333 -0.080809,0.023531 -0.1054688,0.019531 C 9.0875156,7.9093496 9.0645,7.9063333 9.0625,7.875 9.05983,7.847 9.0931156,7.8345 9.1035156,7.8125 c 0.00267,-0.00667 -0.00133,-0.012198 0,-0.019531 C 9.1519152,7.7796351 9.2008133,7.7613333 9.25,7.75 9.277933,7.74333 9.305784,7.735802 9.333984,7.730469 c 0.019933,-0.00667 0.0425,0.00667 0.0625,0 C 9.485518,7.713802 9.574649,7.69812 9.6660156,7.689453 9.7768423,7.6781198 9.8859333,7.6679688 10,7.6679688 Z m -1.3535156,0.3125 C 8.6252844,8.1001823 8.5106667,8.149951 8.375,8.1464844 c -0.030667,0.029333 -0.00468,0.084333 -0.021484,0.125 -0.014,0.034 -0.069522,0.065167 -0.1035156,0.0625 -0.024667,0 -0.0625,-0.039167 -0.0625,-0.0625 0,-0.028667 0.046218,-0.029833 0.021484,-0.0625 0.00133,-0.00667 0.012598,-0.014818 0.019531,-0.021484 0.013467,-0.00867 0.029369,-0.013484 0.042969,-0.021484 0.1208,-0.074333 0.24464,-0.1288325 0.375,-0.1875008 z m 2.7910156,0.125 c -0.01227,0.00667 -0.01068,0.014818 -0.02148,0.021484 -0.02533,0.015333 -0.04317,0.034349 -0.0625,0.041016 -0.02733,0.01 -0.05857,0.016349 -0.0625,0.041016 -0.0033,0.020667 0.02222,0.022349 0.02148,0.041016 -0.01,0.024667 -0.01615,0.034453 -0.02148,0.064453 0.034,0.055333 0.104491,-0.012818 0.146484,-0.021484 0.01867,-0.00667 0.03102,-0.00748 0.04102,-0.021484 0.01133,-0.018 0.01288,-0.037167 0.02148,-0.0625 0.0093,-0.028 0.04435,-0.037833 0.04102,-0.0625 -0.0027,-0.024667 -0.06222,-0.044349 -0.103516,-0.041016 z M 7.7910156,8.5214844 C 7.8226156,8.5468174 7.86774,8.6012664 7.8125,8.625 7.80583,8.63167 7.724984,8.6491514 7.7089844,8.6464844 7.7023144,8.6464844 7.6931,8.629666 7.6875,8.625 7.721967,8.591667 7.755156,8.553484 7.7910156,8.5214844 Z m 0.125,0.125 c 0.016,0 0.024302,0.040349 0.042969,0.041016 0.018,0 0.030349,-0.024151 0.041016,-0.021484 0.028,0.00733 0.048218,0.063318 0.021484,0.083984 -0.022,0.00667 -0.026969,-0.024151 -0.042969,-0.021484 C 7.9331823,8.7365148 7.909,8.836651 7.875,8.8339844 7.843,8.8273177 7.8207823,8.751849 7.8535156,8.7285156 c 6.667e-4,-0.02 -0.00133,-0.020349 0,-0.041016 0.01,-0.012 0.035833,-0.043016 0.0625,-0.041015 z M 7.75,8.6660156 c 0.00933,0 0.018218,-0.00667 0.021484,0 -0.00467,0.035333 -0.015635,0.045833 -0.042969,0.0625 -0.047333,0.028667 -0.088182,0.064 -0.1035156,0.125 -0.00467,0.018 -0.061318,0.066767 -0.083984,0.0625 -0.052667,-0.011333 0.030969,-0.1097333 0.042969,-0.125 C 7.5973177,8.774349 7.6096667,8.7686667 7.625,8.75 7.6403333,8.7313333 7.651349,8.6981667 7.6660156,8.6875 7.6820156,8.6761667 7.722,8.6666354 7.75,8.6679688 Z m 4.521484,0.1054688 c 0.05267,-0.00667 0.07952,0.050031 0.103516,0.082031 0.02,0.026 0.07085,0.065984 0.103516,0.083984 0.01867,0.01 0.04183,0.032349 0.0625,0.041016 0.04333,0.019333 0.123,0.082333 0.125,0.125 6.66e-4,0.021333 -0.02293,0.0425 -0.01953,0.0625 0.03267,0.00667 0.06183,-0.049365 0.0625,-0.082031 0.06127,0.086667 0.113083,0.1771312 0.166016,0.2695312 0.025,0.043333 0.06092,0.08 0.08398,0.125 -0.0294,0.00867 -0.03823,0.013016 -0.04297,0.041016 C 12.909353,9.5568644 12.931,9.6184 12.875,9.625 12.83967,9.63167 12.79866,9.5953184 12.75,9.5839844 c -0.02,-0.00667 -0.0465,0.00667 -0.0625,0 C 12.650833,9.5719848 12.656267,9.522 12.625,9.5 12.607,9.487333 12.55015,9.4616514 12.521484,9.4589844 c -0.018,0 -0.0243,0.00667 -0.04297,0 -0.02267,-0.00667 -0.06337,0.00933 -0.08203,0 -0.018,-0.011333 -0.05783,-0.047167 -0.0625,-0.0625 -0.0073,-0.024667 0.06117,-0.041167 0.0625,-0.0625 0.0013,-0.016 -0.01822,-0.039786 -0.02148,-0.064453 -0.0027,-0.014666 0.0033,-0.031016 0,-0.041016 -0.0047,-0.017333 -0.03523,-0.018865 -0.0625,-0.019531 H 12.25 12.125 12.0625 c -0.058,0.00667 -0.101151,-0.00667 -0.146484,0 -0.03267,0 -0.09433,0.027682 -0.125,0.041016 -0.01533,0.00733 -0.02102,0.00953 -0.04102,0.019531 -0.0093,0.00667 -0.02902,0.016151 -0.04102,0.021484 -0.01867,0.00867 -0.04457,0.035682 -0.0625,0.041016 -0.026,0.00667 -0.05817,-0.00667 -0.105468,0 -0.034,0 -0.08137,-0.021833 -0.08203,-0.0625 -6.66e-4,-0.062 0.107356,-0.029682 0.166016,-0.041016 0.022,-0.00667 0.03583,-0.025016 0.0625,-0.041016 0.01267,-0.00733 0.0096,-0.013484 0.02148,-0.021484 0.02,-0.014 0.05923,-0.0465 0.0625,-0.0625 0.0027,-0.014667 -0.002,-0.029682 0,-0.041016 0.0027,-0.014 0.02302,-0.022349 0.04102,-0.041016 0.028,-0.028 0.04932,-0.065984 0.08398,-0.083984 0.02333,-0.012 0.05183,-0.022349 0.0625,-0.041016 0.0027,-0.021333 -6.66e-4,-0.021016 0,-0.041016 0.01469,-0.01333 0.02903,-0.018816 0.04103,-0.021483 0.036,-0.008 0.06155,0 0.103516,0 0.018,0 0.04323,0.00867 0.0625,0 0.016,-0.010667 0.02697,-0.033682 0.04297,-0.041016 0.01733,-0.00933 0.04117,-0.020151 0.0625,-0.021484 z m 0.375,0.3945312 H 12.5625 c -0.02933,0 -0.06665,-0.015333 -0.08398,0 0.02467,0.04 0.06967,0.0525 0.125,0.0625 0.02,-0.014667 0.03363,-0.0365 0.04297,-0.0625 z m -4.5624996,-0.375 h 0.0625 c 0.016667,0 0.034349,-0.00667 0.041016,0 -0.010667,0.044 -0.1118177,0.037484 -0.1464844,0.021484 0.002,-0.016667 0.021635,-0.018818 0.042968,-0.021484 z M 7.9375,8.875 C 7.908367,8.896333 7.880218,8.922833 7.8339844,8.9375 7.8086514,8.9455 7.7761514,8.94402 7.7714844,8.916016 7.7661544,8.881349 7.8113174,8.899818 7.8339844,8.896485 7.8633177,8.8898171 7.9035,8.8763333 7.9375,8.875 Z m 4.333984,0 c -0.022,0.00733 -0.03267,0.055833 0,0.0625 0.01533,-0.00933 0.0236,-0.033833 0.01953,-0.0625 -0.0087,-0.00933 -0.01293,-0.00667 -0.01953,0 z m -0.04297,0.1035156 c 6.66e-4,0.037333 0.0073,0.073069 0,0.1054688 0.02133,0.041333 0.07332,0.00652 0.08398,-0.021484 0.01267,-0.069333 -0.009,-0.092651 -0.04102,-0.083984 -0.01067,0.00667 -0.0317,-0.00867 -0.04297,0 z M 6.7089824,10.541016 c 0.0376,0.034 0.058549,0.0832 0.1035156,0.105468 0.016667,0.0087 0.041233,0.0142 0.0625,0.01953 0.017333,0.0067 0.024349,-0.0067 0.041016,0 0.035333,0.012 0.077475,0.02835 0.1054688,0.04102 0.042667,0.01867 0.088333,0.08414 0.125,0.105469 0.002,0.02133 -0.00667,0.0465 0,0.0625 0.017333,0.02333 0.0345,0.0465 0.0625,0.0625 0.034,0.01867 0.050031,0.04783 0.082031,0.0625 0.011333,0.0067 0.025635,-0.0067 0.042969,0 0.044,0.01333 0.065482,0.07357 0.1035156,0.0625 0.024667,-0.0073 0.017551,-0.0385 0.021484,-0.0625 0.016667,-0.018 0.0365,-0.04102 0.0625,-0.04102 0.041333,0 0.047167,0.06332 0.0625,0.103516 0.00867,0.02267 0.035016,0.0385 0.041016,0.0625 0.01,0.04133 0.00867,0.162833 0,0.1875 -0.010667,0.03067 -0.058651,0.0285 -0.083984,0.0625 -0.012,0.016 -0.010265,0.05117 -0.019531,0.0625 -0.016,0.01933 -0.030969,0.02497 -0.042969,0.04297 -0.00667,0.01 -0.013598,0.02768 -0.019531,0.04101 -0.02,0.04267 -0.059635,0.07367 -0.042969,0.125 0.00667,0.02067 0.042969,0.03783 0.042969,0.0625 0,0.02933 -0.057833,0.05199 -0.0625,0.08399 -0.00333,0.02333 0.012265,0.0507 0.019531,0.08203 0.00533,0.02333 0.0485,0.04717 0.0625,0.0625 0.023333,0.026 0.041233,0.07247 0.0625,0.105469 0.042,0.06467 0.064169,0.143698 0.1054688,0.207031 0.022,0.03267 0.067365,0.04932 0.082031,0.08398 0.00733,0.01733 -0.00667,0.0465 0,0.0625 0.024,0.054 0.1335067,0.119885 0.1875,0.146485 0.025333,0.01267 0.060651,0.0062 0.083984,0.01953 0.035333,0.02 0.1070067,0.0744 0.125,0.105469 0.016,0.028 0.013551,0.09993 0.021484,0.144531 0.01,0.05867 -0.00267,0.104569 0,0.167969 0.002,0.03467 0.019531,0.04736 0.019531,0.08203 0,0.012 6.667e-4,0.04983 0,0.0625 -6.666e-4,0.04133 0.00333,0.083 0,0.125 -0.002,0.02267 -0.00133,0.04317 0,0.0625 0.002,0.02067 0.020218,0.02497 0.021484,0.04297 0.00133,0.01933 -0.023551,0.04717 -0.021484,0.0625 0.00467,0.042 0.034969,0.06465 0.042969,0.103515 0.00667,0.03067 0.023531,0.109818 0.019531,0.146485 -0.00267,0.01933 -0.016865,0.0405 -0.019531,0.0625 -0.002,0.01733 0.00267,0.02569 0,0.04101 -0.002,0.01533 0.004,0.02835 0,0.04102 -0.021267,-0.01333 -0.041633,-0.02702 -0.0625,-0.04102 -0.1773334,-0.119866 -0.3491934,-0.265215 -0.5,-0.416015 -0.0204,-0.02067 -0.042633,-0.04312 -0.0625,-0.06445 C 7.4635999,13.164289 7.3494267,13.019467 7.25,12.875 7.241,12.861667 7.2373156,12.846651 7.2285156,12.833984 7.113149,12.661118 7.0193733,12.486569 6.9375,12.292969 6.9315,12.278969 6.9216823,12.264 6.9160156,12.25 6.8457623,12.077333 6.7907133,11.894651 6.75,11.708984 6.7423333,11.673651 6.735049,11.640869 6.7285156,11.605469 6.7119823,11.516402 6.6967667,11.425384 6.6875,11.333984 6.6761,11.220984 6.6660156,11.115067 6.6660156,11 c 0,-0.1584 0.021569,-0.306451 0.042969,-0.458984 z"
     id="path2"
     inkscape:connector-curvature="0"
     style="fill:#232629"
     sodipodi:nodetypes="sssssccccccccccccccccccccccsccccccccccccccscccccccccccccccccccccccccccccccccccccccccccccccccccsccccccccccccccccccccccccccccscccccccsccccccccccccccccccccccccccccccccccccccccccccccccccccccccccccccccccccccccccccccccccccccccccccccccccccccscccccccccccccccccccccccccscccccccccccccccccccccccccccccccccccscccccccccccccccccccccccccccccccccccccccccccccsccccsccccscccccccccccccccccccccccccccccsccccccccsccccccccccccsccccccccccccccccccccsc" />
  <path
     d="m 5,12.880678 c -0.191778,-0.03567 -0.3439802,-0.082 -0.4535198,-0.142398 -0.18345,-0.10116 -0.28727,-0.21286 -0.38482,-0.47266 -0.0976,-0.25979 -0.1598,-0.67323 -0.16019,-1.26562 l -0.004,-6 c -3.9e-4,-0.59239 0.0626,-1.00572 0.16019,-1.26562 0.0976,-0.25991 0.20334,-0.37147 0.38678,-0.47266 C 4.9104402,3.05981 5.7392202,3.0147 6.9979299,3 h 4.5e-4 1.99954 l 0.0021,3 H 12.00002 l 0.99999,1 V 5 l -3,-3 h -3.0039501 -0.0037 C 5.7339702,2.0145 4.8131402,1.9694 4.0602702,2.38477 3.6838402,2.5924301 3.3869402,2.94415 3.2222502,3.38281 3.0575602,3.82148 2.9999902,4.34239 2.9999902,5 v 6 c 0,0.65761 0.06152,1.17858 0.22626,1.61719 0.16471,0.43861 0.4616077,0.788524 0.83802,0.99609 C 4.3502287,13.770967 4.6562563,13.862483 5,13.916172 Z"
     id="path2732-8-9-4"
     style="color:#000000;font-style:normal;font-variant:normal;font-weight:normal;font-stretch:normal;font-size:medium;line-height:normal;font-family:sans-serif;font-variant-ligatures:normal;font-variant-position:normal;font-variant-caps:normal;font-variant-numeric:normal;font-variant-alternates:normal;font-feature-settings:normal;text-indent:0;text-align:start;text-decoration:none;text-decoration-line:none;text-decoration-style:solid;text-decoration-color:#000000;letter-spacing:normal;word-spacing:normal;text-transform:none;writing-mode:lr-tb;direction:ltr;text-orientation:mixed;dominant-baseline:auto;baseline-shift:baseline;text-anchor:start;white-space:normal;shape-padding:0;clip-rule:nonzero;display:inline;overflow:visible;visibility:visible;opacity:1;isolation:auto;mix-blend-mode:normal;color-interpolation:sRGB;color-interpolation-filters:linearRGB;solid-color:#000000;solid-opacity:1;vector-effect:none;fill:#232629;fill-opacity:1;fill-rule:nonzero;stroke:none;stroke-width:1.00007653;stroke-linecap:butt;stroke-linejoin:miter;stroke-miterlimit:4;stroke-dasharray:none;stroke-dashoffset:0;stroke-opacity:1;marker:none;color-rendering:auto;image-rendering:auto;shape-rendering:auto;text-rendering:auto;enable-background:accumulate"
     inkscape:connector-curvature="0"
     sodipodi:nodetypes="cccssccccccccccccccsscscc" />
</svg>
