<?xml version="1.0" encoding="UTF-8" standalone="no"?>
<svg
   xmlns:dc="http://purl.org/dc/elements/1.1/"
   xmlns:cc="http://creativecommons.org/ns#"
   xmlns:rdf="http://www.w3.org/1999/02/22-rdf-syntax-ns#"
   xmlns:svg="http://www.w3.org/2000/svg"
   xmlns="http://www.w3.org/2000/svg"
   xmlns:sodipodi="http://sodipodi.sourceforge.net/DTD/sodipodi-0.dtd"
   xmlns:inkscape="http://www.inkscape.org/namespaces/inkscape"
   viewBox="0 0 16 16"
   version="1.1"
   id="svg6"
   sodipodi:docname="sc_dbviewtablenames.svg"
   inkscape:version="1.0.1 (3bc2e813f5, 2020-09-07)"
   inkscape:export-filename="/home/jupiter007/Libreoffice yaru theme fullcolor/build/cmd/sc_dbviewtablenames.png"
   inkscape:export-xdpi="95"
   inkscape:export-ydpi="95"><metadata
   id="metadata12">
  <rdf:RDF>
    <cc:Work
       rdf:about="">
      <dc:format>image/svg+xml</dc:format>
      <dc:type
         rdf:resource="http://purl.org/dc/dcmitype/StillImage" />
    </cc:Work>
  </rdf:RDF>
</metadata>
<defs
   id="defs10" />
<sodipodi:namedview
   pagecolor="#ffffff"
   bordercolor="#666666"
   borderopacity="1"
   objecttolerance="10"
   gridtolerance="10"
   guidetolerance="10"
   inkscape:pageopacity="0"
   inkscape:pageshadow="2"
   inkscape:window-width="1920"
   inkscape:window-height="1011"
   id="namedview8"
   showgrid="true"
   inkscape:zoom="14.75"
   inkscape:cx="-8.1802694"
   inkscape:cy="-3.7055653"
   inkscape:window-x="0"
   inkscape:window-y="0"
   inkscape:window-maximized="1"
   inkscape:current-layer="svg6"
   inkscape:document-rotation="0">
  <inkscape:grid
     type="xygrid"
     id="grid822" />
</sodipodi:namedview>


/&amp;gt;<rect
   style="opacity:1;fill:#ffffff;fill-opacity:1;stroke:none;stroke-width:2;stroke-linecap:round;stroke-linejoin:round;stroke-miterlimit:4;stroke-dasharray:none;stroke-opacity:1"
   id="rect820-9"
   width="12"
   height="12"
   x="2"
   y="2" />
<path
   d="M 4,1 C 2,1 1,1 1,3 v 10 c 0,2 1,2 3,2 h 8 c 2,0 3,0 3,-2 V 3 C 15,1 14,1 12,1 Z M 2,6 H 5 V 9 H 2 Z m 4,0 h 4 V 9 H 6 Z m 5,0 h 3 v 3 h -3 z m -9,4 h 3 v 4 H 4 C 3,14 2,14 2,13 Z m 4,0 h 4 v 4 H 6 Z m 5,0 h 3 v 3 c 0,1 -1,1 -2,1 h -1 z"
   id="path2-3"
   inkscape:connector-curvature="0"
   style="fill:#6d6d6d;fill-opacity:1"
   sodipodi:nodetypes="ccccccccccccccccccccccccccccccccccccccccc" />
<path
   d="M 4,2 C 3,2 2,2 2,3 V 5 H 9 V 2 Z"
   id="path4"
   inkscape:connector-curvature="0"
   style="fill:#aee3f8;fill-opacity:1"
   sodipodi:nodetypes="cccccc" />
</svg>
