<?xml version="1.0" encoding="UTF-8" standalone="no"?>
<svg
   xmlns:dc="http://purl.org/dc/elements/1.1/"
   xmlns:cc="http://creativecommons.org/ns#"
   xmlns:rdf="http://www.w3.org/1999/02/22-rdf-syntax-ns#"
   xmlns:svg="http://www.w3.org/2000/svg"
   xmlns="http://www.w3.org/2000/svg"
   xmlns:sodipodi="http://sodipodi.sourceforge.net/DTD/sodipodi-0.dtd"
   xmlns:inkscape="http://www.inkscape.org/namespaces/inkscape"
   inkscape:version="1.0.1 (3bc2e813f5, 2020-09-07)"
   inkscape:export-ydpi="96"
   inkscape:export-xdpi="96"
   inkscape:export-filename="/home/jupiter007/Libreoffice yaru theme fullcolor/build/cmd/sc_fontwork.png"
   sodipodi:docname="sc_fontwork.svg"
   id="svg20"
   version="1.1"
   viewBox="0 0 16 16"><metadata
   id="metadata26">
  <rdf:RDF>
    <cc:Work
       rdf:about="">
      <dc:format>image/svg+xml</dc:format>
      <dc:type
         rdf:resource="http://purl.org/dc/dcmitype/StillImage" />
    </cc:Work>
  </rdf:RDF>
</metadata>
<defs
   id="defs24">
  <linearGradient
     id="linearGradient855"
     gradientUnits="userSpaceOnUse"
     x1="0.167"
     x2="14.239"
     y1="10.717"
     y2="0.219">
    <stop
       offset="0"
       stop-color="#fff3cb"
       id="stop7-0" />
    <stop
       offset=".262"
       stop-color="#fdde76"
       id="stop9-6" />
    <stop
       offset=".661"
       stop-color="#f9c440"
       id="stop11-2" />
    <stop
       offset="1"
       stop-color="#e48b20"
       id="stop13-6" />
  </linearGradient>
</defs>
<sodipodi:namedview
   inkscape:current-layer="svg20"
   inkscape:window-maximized="1"
   inkscape:window-y="0"
   inkscape:window-x="0"
   inkscape:cy="3.1520372"
   inkscape:cx="-0.24910192"
   inkscape:zoom="19.11398"
   showgrid="false"
   id="namedview22"
   inkscape:window-height="1011"
   inkscape:window-width="1920"
   inkscape:pageshadow="2"
   inkscape:pageopacity="0"
   guidetolerance="10"
   gridtolerance="10"
   objecttolerance="10"
   borderopacity="1"
   bordercolor="#666666"
   pagecolor="#ffffff"
   inkscape:document-rotation="0" />
<linearGradient
   y2="14.674222"
   y1="1.524931"
   x2="8.220834"
   x1="7.421891"
   gradientUnits="userSpaceOnUse"
   id="a">
  <stop
     id="stop2"
     stop-color="#64baff"
     offset="0" />
  <stop
     id="stop4"
     stop-color="#3689e6"
     offset="1" />
</linearGradient>
<linearGradient
   y2=".219"
   y1="10.717"
   x2="14.239"
   x1=".167"
   gradientUnits="userSpaceOnUse"
   id="b">
  <stop
     id="stop7"
     stop-color="#fff3cb"
     offset="0" />
  <stop
     id="stop9"
     stop-color="#fdde76"
     offset=".262" />
  <stop
     id="stop11"
     stop-color="#f9c440"
     offset=".661" />
  <stop
     id="stop13"
     stop-color="#e48b20"
     offset="1" />
</linearGradient>


/&amp;amp;gt;<path
   style="opacity:0.7;fill:#000000;fill-opacity:1;stroke:#000000;stroke-width:2;stroke-linejoin:round;stroke-miterlimit:4;stroke-dasharray:none"
   d="M 6.3828125,3.9999998 1.9999999,15 h 2.357422 L 5.546875,12 H 8 10.453125 l 1.189453,3 H 14 L 9.6171875,3.9999998 H 8 Z M 8,5.4960936 9.6855469,10 H 8 6.3144531 Z"
   id="path839" />
<path
   style="fill:#ffffff;fill-opacity:1;stroke-width:1"
   d="M 6.3828125,3.9999998 1.9999999,15 h 2.357422 L 5.546875,12 H 8 10.453125 l 1.189453,3 H 14 L 9.6171875,3.9999998 H 8 Z M 8,5.4960936 9.6855469,10 H 8 6.3144531 Z"
   id="path4-3" />
<path
   d="M 8.6079992,0.99987136 8.5277953,2.9889282 7.2469386,3.6578287 6.8459191,3.4332578 6.8298783,2.2486461 5.9917475,3.0218118 4.8608725,2.6689146 5.3364816,3.7059511 4.6507383,4.672408 5.7848215,4.5408736 6.493824,5.4912899 6.7183949,4.3708414 7.3094976,4.1703316 8.563085,4.6355142 8.9079618,6.6726935 10.143102,5.1119254 l 2.042792,0.3007647 -1.102803,-1.6570126 0.91673,-1.8487 -1.914466,0.5373662 z M 4.1783373,4.5023758 3.5262795,5.103905 2.6496508,4.8280036 3.0185888,5.6348549 2.4868369,6.3831574 3.3666738,6.2812984 3.9160705,7.0191743 4.090113,6.149764 4.9619294,5.8570198 4.1895658,5.4239186 4.1783373,4.5015737 Z M 7.1563082,5.2185966 6.206694,6.0928192 4.9266397,5.6934037 5.4656099,6.8659849 4.6924443,7.958362 5.9724986,7.8091828 6.7721315,8.8839147 7.0263779,7.6182975 8.296808,7.1908107 7.1699429,6.5571998 7.1563082,5.2177946 Z M 2.1676254,6.4906306 1.9286177,7.3889143 0.99985656,7.6367444 1.7778344,8.1404249 1.7297121,9.1028714 2.4491411,8.5173829 3.349831,8.8622597 3.0145786,7.9960579 3.6193161,7.2461514 2.6929609,7.2974819 2.1676254,6.4890265 Z"
   fill="url(#b)"
   id="path860"
   style="opacity:0.7;fill:#000000;fill-opacity:1;stroke:#000000;stroke-width:2;stroke-linejoin:round" />
<path
   d="M 8.6079992,0.99987136 8.5277953,2.9889282 7.2469386,3.6578287 6.8459191,3.4332578 6.8298783,2.2486461 5.9917475,3.0218118 4.8608725,2.6689146 5.3364816,3.7059511 4.6507383,4.672408 5.7848215,4.5408736 6.493824,5.4912899 6.7183949,4.3708414 7.3094976,4.1703316 8.563085,4.6355142 8.9079618,6.6726935 10.143102,5.1119254 l 2.042792,0.3007647 -1.102803,-1.6570126 0.91673,-1.8487 -1.914466,0.5373662 z M 4.1783373,4.5023758 3.5262795,5.103905 2.6496508,4.8280036 3.0185888,5.6348549 2.4868369,6.3831574 3.3666738,6.2812984 3.9160705,7.0191743 4.090113,6.149764 4.9619294,5.8570198 4.1895658,5.4239186 4.1783373,4.5015737 Z M 7.1563082,5.2185966 6.206694,6.0928192 4.9266397,5.6934037 5.4656099,6.8659849 4.6924443,7.958362 5.9724986,7.8091828 6.7721315,8.8839147 7.0263779,7.6182975 8.296808,7.1908107 7.1699429,6.5571998 7.1563082,5.2177946 Z M 2.1676254,6.4906306 1.9286177,7.3889143 0.99985656,7.6367444 1.7778344,8.1404249 1.7297121,9.1028714 2.4491411,8.5173829 3.349831,8.8622597 3.0145786,7.9960579 3.6193161,7.2461514 2.6929609,7.2974819 2.1676254,6.4890265 Z"
   fill="url(#b)"
   id="path18-1"
   style="fill:#fa9381;fill-opacity:1;stroke-width:0.999998" />
</svg>
