<?xml version="1.0" encoding="UTF-8" standalone="no"?>
<svg
   xmlns:dc="http://purl.org/dc/elements/1.1/"
   xmlns:cc="http://creativecommons.org/ns#"
   xmlns:rdf="http://www.w3.org/1999/02/22-rdf-syntax-ns#"
   xmlns:svg="http://www.w3.org/2000/svg"
   xmlns="http://www.w3.org/2000/svg"
   xmlns:sodipodi="http://sodipodi.sourceforge.net/DTD/sodipodi-0.dtd"
   xmlns:inkscape="http://www.inkscape.org/namespaces/inkscape"
   viewBox="0 0 16 16"
   version="1.1"
   id="svg6"
   sodipodi:docname="sc_filecontrol.svg"
   inkscape:version="0.92.4 (5da689c313, 2019-01-14)">
  <metadata
     id="metadata12">
    <rdf:RDF>
      <cc:Work
         rdf:about="">
        <dc:format>image/svg+xml</dc:format>
        <dc:type
           rdf:resource="http://purl.org/dc/dcmitype/StillImage" />
      </cc:Work>
    </rdf:RDF>
  </metadata>
  <defs
     id="defs10" />
  <sodipodi:namedview
     pagecolor="#ffffff"
     bordercolor="#666666"
     borderopacity="1"
     objecttolerance="10"
     gridtolerance="10"
     guidetolerance="10"
     inkscape:pageopacity="0"
     inkscape:pageshadow="2"
     inkscape:window-width="1920"
     inkscape:window-height="1011"
     id="namedview8"
     showgrid="true"
     inkscape:zoom="16"
     inkscape:cx="23.36914"
     inkscape:cy="9.664042"
     inkscape:window-x="0"
     inkscape:window-y="32"
     inkscape:window-maximized="1"
     inkscape:current-layer="svg6">
    <inkscape:grid
       type="xygrid"
       id="grid828" />
  </sodipodi:namedview>
  <path
     d="m8 8 .00363 6.048611 1.7600369-2.048611h3.2363331z"
     fill="#762572"
     id="path4" />
  <path
     d="m 7.0079195,13 h -0.006 c -1.25882,-0.0152 -2.08942,-0.0599 -2.45545,-0.26172 -0.18345,-0.10116 -0.28727,-0.21286 -0.38482,-0.47266 -0.0976,-0.25979 -0.1598,-0.67323 -0.16019,-1.26562 l -0.004,-5.9999999 c -3.9e-4,-0.5923901 0.0626,-1.00572 0.16019,-1.26562 0.0976,-0.25991 0.20334,-0.37147 0.38678,-0.47266 0.366,-0.20191 1.19478,-0.24702 2.45349,-0.26172 h 4.5e-4 1.99954 l 0.0021,3 H 12.000009 L 12,10 13,11 12.999999,5.0000001 9.9999995,2 h -3.00395 -0.00368 c -1.25839,0.0145 -2.17922,-0.0306 -2.93209,0.3847701 -0.37643,0.20766 -0.67333,0.55938 -0.83802,0.99804 -0.16469,0.43867 -0.222259,0.9595798 -0.222259,1.61719 V 11 c 0,0.65761 0.06152,1.17858 0.226259,1.61719 0.16471,0.43861 0.46161,0.78852 0.83802,0.99609 0.75284,0.41514 1.6738,0.37165 2.93209,0.38672 h 0.002 z"
     id="path2732-8-9-4"
     style="color:#000000;font-style:normal;font-variant:normal;font-weight:normal;font-stretch:normal;font-size:medium;line-height:normal;font-family:sans-serif;font-variant-ligatures:normal;font-variant-position:normal;font-variant-caps:normal;font-variant-numeric:normal;font-variant-alternates:normal;font-feature-settings:normal;text-indent:0;text-align:start;text-decoration:none;text-decoration-line:none;text-decoration-style:solid;text-decoration-color:#000000;letter-spacing:normal;word-spacing:normal;text-transform:none;writing-mode:lr-tb;direction:ltr;text-orientation:mixed;dominant-baseline:auto;baseline-shift:baseline;text-anchor:start;white-space:normal;shape-padding:0;clip-rule:nonzero;display:inline;overflow:visible;visibility:visible;opacity:1;isolation:auto;mix-blend-mode:normal;color-interpolation:sRGB;color-interpolation-filters:linearRGB;solid-color:#000000;solid-opacity:1;vector-effect:none;fill:#232629;fill-opacity:1;fill-rule:nonzero;stroke:none;stroke-width:1.00007653;stroke-linecap:butt;stroke-linejoin:miter;stroke-miterlimit:4;stroke-dasharray:none;stroke-dashoffset:0;stroke-opacity:1;marker:none;color-rendering:auto;image-rendering:auto;shape-rendering:auto;text-rendering:auto;enable-background:accumulate"
     inkscape:connector-curvature="0"
     sodipodi:nodetypes="ccccsscccccccccccccccsscsccc" />
</svg>
