<?xml version="1.0" encoding="UTF-8" standalone="no"?>
<svg
   xmlns:dc="http://purl.org/dc/elements/1.1/"
   xmlns:cc="http://creativecommons.org/ns#"
   xmlns:rdf="http://www.w3.org/1999/02/22-rdf-syntax-ns#"
   xmlns:svg="http://www.w3.org/2000/svg"
   xmlns="http://www.w3.org/2000/svg"
   xmlns:sodipodi="http://sodipodi.sourceforge.net/DTD/sodipodi-0.dtd"
   xmlns:inkscape="http://www.inkscape.org/namespaces/inkscape"
   viewBox="0 0 16 16"
   version="1.1"
   id="svg6"
   sodipodi:docname="sc_formatcelldialog.svg"
   inkscape:version="1.0.1 (3bc2e813f5, 2020-09-07)"
   inkscape:export-filename="/home/jupiter007/Libreoffice yaru theme fullcolor/build/cmd/sc_formatcelldialog.png"
   inkscape:export-xdpi="96"
   inkscape:export-ydpi="96">
  <metadata
     id="metadata12">
    <rdf:RDF>
      <cc:Work
         rdf:about="">
        <dc:format>image/svg+xml</dc:format>
        <dc:type
           rdf:resource="http://purl.org/dc/dcmitype/StillImage" />
      </cc:Work>
    </rdf:RDF>
  </metadata>
  <defs
     id="defs10" />
  <sodipodi:namedview
     pagecolor="#ffffff"
     bordercolor="#666666"
     borderopacity="1"
     objecttolerance="10"
     gridtolerance="10"
     guidetolerance="10"
     inkscape:pageopacity="0"
     inkscape:pageshadow="2"
     inkscape:window-width="1920"
     inkscape:window-height="1011"
     id="namedview8"
     showgrid="true"
     inkscape:zoom="29.5"
     inkscape:cx="14.256348"
     inkscape:cy="9.6618515"
     inkscape:window-x="1920"
     inkscape:window-y="32"
     inkscape:window-maximized="1"
     inkscape:current-layer="svg6"
     inkscape:document-rotation="0">
    <inkscape:grid
       type="xygrid"
       id="grid822" />
  </sodipodi:namedview>
  <path
     id="rect814"
     style="fill:#ffffff;fill-opacity:1;stroke:none;stroke-width:2;stroke-linecap:round;stroke-linejoin:round;stroke-miterlimit:4;stroke-dasharray:none;stroke-opacity:1"
     d="M 2 2 L 2 14 L 6.5058594 14 L 6.1269531 13.083984 C 5.8825251 12.493881 6.1059064 11.937684 6.5058594 11.511719 C 6.1038744 11.082931 5.8781377 10.522094 6.1210938 9.9355469 A 1.0001 1.0001 0 0 0 6.1210938 9.9335938 L 6.5839844 8.8222656 C 6.8263654 8.2371006 7.38211 7.9986456 7.96875 7.9785156 C 7.987975 7.3933206 8.2252721 6.8436564 8.8144531 6.5996094 L 9.9296875 6.1367188 C 10.520975 5.8917997 11.075635 6.115073 11.501953 6.515625 C 11.637395 6.38865 11.720151 6.19488 11.888672 6.125 C 12.253658 5.973699 12.676855 5.9646514 13.078125 6.1308594 L 14 6.5136719 L 14 2 L 2 2 z M 11.441406 11.363281 C 11.378466 11.389351 11.327966 11.512539 11.353516 11.574219 C 11.379588 11.637159 11.502763 11.687659 11.564453 11.662109 C 11.627393 11.636037 11.677894 11.512852 11.652344 11.451172 C 11.626272 11.388232 11.503086 11.337731 11.441406 11.363281 z " />
  <path
     id="path2-3"
     style="fill:#6d6d6d;fill-opacity:1"
     d="M 3 1 C 1 1 1 2 1 4 L 1 12 C 1 14 1 15 3 15 L 4 15 L 7.6289062 15 C 7.1801137 14.911712 6.7856784 14.673953 6.5898438 14.201172 L 6.1269531 13.083984 C 5.8825251 12.493881 6.1059064 11.937684 6.5058594 11.511719 C 6.1038744 11.082931 5.8781377 10.522094 6.1210938 9.9355469 A 1.0001 1.0001 0 0 0 6.1210938 9.9335938 L 6.5839844 8.8222656 C 6.6780111 8.5952629 6.8281477 8.434833 7 8.3046875 L 7 7 L 8.3066406 7 C 8.4357268 6.836499 8.5932388 6.6912394 8.8144531 6.5996094 L 9.9296875 6.1367188 C 10.520975 5.8917997 11.075635 6.115073 11.501953 6.515625 C 11.637395 6.38865 11.720151 6.19488 11.888672 6.125 C 12.253658 5.973699 12.676855 5.9646514 13.078125 6.1308594 L 14.193359 6.59375 C 14.686647 6.7980732 14.92268 7.2284971 15 7.7089844 L 15 4 C 15 2 15 1 13 1 L 12 1 L 4 1 L 3 1 z M 3 2 L 4 2 L 6 2 L 6 6 L 2 6 L 2 4 C 2 3 2 2 3 2 z M 7 2 L 10 2 L 10 6 L 7 6 L 7 2 z M 11 2 L 12 2 L 13 2 C 14 2 14 3 14 4 L 14 6 L 11 6 L 11 2 z M 2 7 L 6 7 L 6 10 L 2 10 L 2 7 z M 2 11 L 6 11 L 6 14 L 4 14 L 3 14 C 2 14 2 13 2 12 L 2 11 z " />
  <path
     id="rect837"
     style="fill:#77216F;fill-opacity:1;fill-rule:evenodd;stroke:none;stroke-width:2;stroke-linecap:round;stroke-linejoin:round"
     d="M 3 1 C 1 1 1 2 1 4 L 1 7 L 2 7 L 6 7 L 7 7 L 7 6 L 7 2 L 7 1 L 3 1 z M 3 2 L 4 2 L 6 2 L 6 6 L 2 6 L 2 4 C 2 3 2 2 3 2 z " />
  <path
     id="rect839"
     style="fill:#f3d8f2;fill-opacity:1;fill-rule:evenodd;stroke:none;stroke-width:1.14174;stroke-linecap:round;stroke-linejoin:round"
     d="M 3 2 C 2 2 2 3 2 4 L 2 6 L 6 6 L 6 2 L 3 2 z " />
  <g
     id="g1425">
    <circle
       style="fill:#ffffff;fill-opacity:1;fill-rule:evenodd;stroke:none;stroke-width:2;stroke-linecap:round;stroke-linejoin:round;stroke-miterlimit:4;stroke-dasharray:none;stroke-opacity:1"
       id="path1328"
       cx="11.5"
       cy="11.5"
       r="1.5" />
    <path
       d="m 9.3111344,7.791575 c -0.13058,0.05409 -0.188804,0.19465 -0.134715,0.325232 l 0.272166,0.657066 c -0.260199,0.195351 -0.471578,0.424352 -0.66202,0.678364 L 8.1128724,9.173184 c -0.130581,-0.05409 -0.274445,0.0055 -0.328533,0.136083 l -0.461881,1.115078 c -0.05409,0.130582 0.0055,0.274445 0.136083,0.328534 l 0.673693,0.279053 c -0.04495,0.314275 -0.05741,0.62567 -0.01156,0.947793 l -0.657066,0.272166 c -0.130581,0.05409 -0.188804,0.19465 -0.134715,0.325232 l 0.462682,1.117013 c 0.05409,0.130581 0.19465,0.188803 0.325231,0.134715 l 0.657067,-0.272166 c 0.195351,0.260198 0.424352,0.471578 0.678363,0.66202 l -0.279053,0.673693 c -0.05409,0.130583 0.0055,0.274445 0.136083,0.328533 l 1.1150786,0.461881 c 0.130582,0.05409 0.274445,-0.0055 0.328533,-0.136083 l 0.279053,-0.673693 c 0.314276,0.04495 0.625672,0.05741 0.947794,0.01156 l 0.272166,0.657067 c 0.05409,0.130582 0.19465,0.188803 0.325231,0.134715 l 1.117013,-0.462682 c 0.130582,-0.05409 0.188804,-0.19465 0.134716,-0.325231 l -0.272166,-0.657067 c 0.260198,-0.19535 0.471577,-0.424351 0.662019,-0.678363 l 0.673694,0.279053 c 0.130583,0.05409 0.274445,-0.0055 0.328533,-0.136083 l 0.461881,-1.115079 c 0.05409,-0.130583 -0.0055,-0.274445 -0.136083,-0.328533 L 14.873035,11.97334 c 0.04495,-0.314276 0.05741,-0.625672 0.01156,-0.947794 l 0.657066,-0.272166 c 0.130582,-0.05409 0.188804,-0.194649 0.134716,-0.325231 L 15.213692,9.311132 C 15.159602,9.18055 15.019042,9.122328 14.88846,9.176417 L 14.231394,9.448582 C 14.036043,9.188383 13.807042,8.977005 13.553031,8.786563 l 0.279053,-0.673694 c 0.05409,-0.130582 -0.0055,-0.274445 -0.136083,-0.328533 L 12.580922,7.322455 c -0.130583,-0.05409 -0.274445,0.0055 -0.328534,0.136083 L 11.973335,8.132232 C 11.65906,8.087282 11.347664,8.074822 11.025542,8.120672 L 10.753376,7.463606 C 10.699286,7.333024 10.558726,7.274802 10.428144,7.32889 Z m 1.7560366,2.659752 c 0.580321,-0.240377 1.246395,0.03552 1.486772,0.615841 0.240377,0.580322 -0.03552,1.246395 -0.615841,1.486772 -0.580321,0.240377 -1.246395,-0.03552 -1.486772,-0.615841 -0.240377,-0.580321 0.03552,-1.246395 0.615841,-1.486772 z"
       display="block"
       fill="url(#d)"
       stroke="url(#e)"
       stroke-linejoin="round"
       stroke-width="0.6"
       id="path42"
       style="fill:#d3d3d3;fill-opacity:1;stroke:#4d4d4d;stroke-opacity:1" />
  </g>
</svg>
