<?xml version="1.0" encoding="UTF-8" standalone="no"?>
<svg
   xmlns:dc="http://purl.org/dc/elements/1.1/"
   xmlns:cc="http://creativecommons.org/ns#"
   xmlns:rdf="http://www.w3.org/1999/02/22-rdf-syntax-ns#"
   xmlns:svg="http://www.w3.org/2000/svg"
   xmlns="http://www.w3.org/2000/svg"
   xmlns:sodipodi="http://sodipodi.sourceforge.net/DTD/sodipodi-0.dtd"
   xmlns:inkscape="http://www.inkscape.org/namespaces/inkscape"
   viewBox="0 0 16 16"
   version="1.1"
   id="svg4"
   sodipodi:docname="sc_gallery.svg"
   inkscape:export-filename="/home/jupiter007/Libreoffice yaru theme fullcolor/build/cmd/sc_gallery.png"
   inkscape:export-xdpi="96"
   inkscape:export-ydpi="96"
   inkscape:version="1.0.1 (3bc2e813f5, 2020-09-07)"><metadata
   id="metadata10">
  <rdf:RDF>
    <cc:Work
       rdf:about="">
      <dc:format>image/svg+xml</dc:format>
      <dc:type
         rdf:resource="http://purl.org/dc/dcmitype/StillImage" />
    </cc:Work>
  </rdf:RDF>
</metadata>
<defs
   id="defs8" />
<sodipodi:namedview
   pagecolor="#ffffff"
   bordercolor="#666666"
   borderopacity="1"
   objecttolerance="10"
   gridtolerance="10"
   guidetolerance="10"
   inkscape:pageopacity="0"
   inkscape:pageshadow="2"
   inkscape:window-width="1920"
   inkscape:window-height="1011"
   id="namedview6"
   showgrid="true"
   inkscape:zoom="29.5"
   inkscape:cx="14.853463"
   inkscape:cy="9.67394"
   inkscape:window-x="0"
   inkscape:window-y="0"
   inkscape:window-maximized="1"
   inkscape:current-layer="svg4"
   inkscape:document-rotation="0">
  <inkscape:grid
     type="xygrid"
     id="grid833" />
</sodipodi:namedview>

/&amp;gt;<path
   sodipodi:nodetypes="cccscsccccccccscscccccc"
   inkscape:connector-curvature="0"
   id="path843"
   d="m 4.005913,0.972815 c -1.2582,0.0145 -2.178891,-0.0306 -2.931641,0.384766 -0.37637,0.20766 -0.673231,0.559387 -0.837891,0.998047 -0.16467,0.43867 -0.224609,0.959587 -0.224609,1.617187 v 1.488281 3.5124425 c 0,0.65761 0.0599,1.1785775 0.224609,1.6171885 0.16468,0.438611 0.461531,0.788524 0.837891,0.996093 0.75272,0.41513 1.673541,0.371649 2.931641,0.386719 h 0.002 5.010718 0.0039 c 1.25819,-0.0145 2.178891,0.0306 2.931641,-0.384766 0.37637,-0.20766 0.673221,-0.559386 0.837891,-0.998047 0.164539,-0.438671 0.224618,-0.9595775 0.224618,-1.6171875 V 5.439612 3.972815 c 0,-0.6576 -0.0599,-1.178577 -0.224609,-1.617187 C 12.627392,1.917028 12.330541,1.567094 11.954181,1.359534 11.201411,0.944404 10.28058,0.987895 9.02249,0.972815 h -0.002 -5.010718 z"
   style="font-style:normal;font-variant:normal;font-weight:normal;font-stretch:normal;font-size:15px;line-height:125%;font-family:Ubuntu;-inkscape-font-specification:Ubuntu;text-align:center;letter-spacing:0px;word-spacing:0px;writing-mode:lr-tb;text-anchor:middle;display:inline;opacity:0.6;fill:#000000;fill-opacity:1;stroke:none;stroke-width:0.999802" />
<path
   inkscape:connector-curvature="0"
   id="path845"
   d="M 6,2 C 4.443419,2.0108 3.885151,1.98825 2.3352,2.03877 1.873971,2.08144 1.319012,2.24519 1.17986,2.748737 0.960866,3.384083 1.071446,4.082524 1.034064,4.730661 c -0.0078,2.2970845 -0.02297,2.5965685 0.02152,4.8859205 0.0391,0.4619295 0.202551,1.0126665 0.698756,1.1636665 0.632456,0.225082 1.284144,0.12274 1.935974,0.154298 1.424235,0.0068 1.855422,0.01102 3.281279,0.01131 1.704531,3.5e-4 1.408388,-0.005 3.10719,-0.01851 0.511912,-0.01201 1.1837,0.01993 1.584746,-0.405191 0.421097,-0.5397835 0.287073,-1.2680215 0.322745,-1.9037875 0.01187,-2.444323 0.02769,-2.9112355 -0.0219,-5.3569345 C 11.915094,2.859393 11.794382,2.398481 11.389235,2.216958 10.721066,1.92286 9.963029,2.048939 9.263313,2.011385 7.508906,1.999585 7.754439,1.998905 6,1.999995 Z"
   style="opacity:1;vector-effect:none;fill:#d85eca;fill-opacity:1;stroke:none;stroke-width:1;stroke-linecap:round;stroke-linejoin:bevel;stroke-miterlimit:4;stroke-dasharray:none;stroke-dashoffset:0;stroke-opacity:1"
   sodipodi:nodetypes="cccccccscccccccc" />
<path
   style="color:#000000;display:inline;overflow:visible;visibility:visible;opacity:1;fill:#ffffff;fill-opacity:1;fill-rule:nonzero;stroke:none;stroke-width:18.2852;marker:none;enable-background:accumulate"
   d="m 4.760772,5.9729555 -1.75,4 h 7 l -2,-3 -1.5,2 z"
   id="path847"
   inkscape:connector-curvature="0"
   sodipodi:nodetypes="cccccc" />
<circle
   style="opacity:1;vector-effect:none;fill:#ffffff;fill-opacity:1;stroke:none;stroke-width:2;stroke-linecap:round;stroke-linejoin:bevel;stroke-miterlimit:4;stroke-dasharray:none;stroke-dashoffset:0;stroke-opacity:1"
   id="circle849"
   cx="9.0107718"
   cy="4.9729557"
   r="1" />
<path
   sodipodi:nodetypes="cccscsccccccccscscccccc"
   inkscape:connector-curvature="0"
   id="path4237-1"
   d="m 6.994141,3.9998595 c -1.2582,0.0145 -2.178891,-0.0306 -2.931641,0.384766 -0.37637,0.20766 -0.673231,0.559387 -0.837891,0.998047 C 3.059939,5.8213425 3,6.3422595 3,6.9998595 v 1.488281 3.5124425 c 0,0.65761 0.0599,1.178577 0.224609,1.617188 0.16468,0.438611 0.461531,0.788524 0.837891,0.996093 0.75272,0.41513 1.673541,0.371649 2.931641,0.386719 h 0.002 5.010718 0.0039 c 1.25819,-0.0145 2.178891,0.0306 2.931641,-0.384766 0.37637,-0.20766 0.673221,-0.559386 0.837891,-0.998046 0.164539,-0.438671 0.224618,-0.959578 0.224618,-1.617188 V 8.4666565 6.9998595 c 0,-0.6576 -0.0599,-1.178577 -0.224609,-1.617187 -0.16468,-0.4386 -0.461531,-0.788534 -0.837891,-0.996094 -0.75277,-0.41513 -1.673601,-0.371639 -2.931691,-0.386719 h -0.002 H 6.998 Z"
   style="font-style:normal;font-variant:normal;font-weight:normal;font-stretch:normal;font-size:15px;line-height:125%;font-family:Ubuntu;-inkscape-font-specification:Ubuntu;text-align:center;letter-spacing:0px;word-spacing:0px;writing-mode:lr-tb;text-anchor:middle;display:inline;opacity:0.6;fill:#000000;fill-opacity:1;stroke:none;stroke-width:0.999802" />
<path
   inkscape:connector-curvature="0"
   id="path1993"
   d="m 8.988228,5.0270445 c -1.556581,0.0108 -2.114849,-0.01175 -3.6648,0.03877 -0.461229,0.04267 -1.016188,0.20642 -1.15534,0.709967 -0.218994,0.635346 -0.108414,1.333787 -0.145796,1.981924 -0.0078,2.2970845 -0.02297,2.5965685 0.02152,4.8859205 0.0391,0.461929 0.202551,1.012666 0.698756,1.163666 0.632456,0.225082 1.284144,0.12274 1.935974,0.154298 1.424235,0.0068 1.855422,0.01102 3.281279,0.01131 1.704531,3.5e-4 1.408388,-0.005 3.10719,-0.01851 0.511912,-0.01201 1.1837,0.01993 1.584746,-0.405191 0.421097,-0.539783 0.287073,-1.268021 0.322745,-1.903787 0.01187,-2.444323 0.02769,-2.9112355 -0.0219,-5.3569345 -0.04928,-0.40204 -0.169992,-0.862952 -0.575139,-1.044475 -0.668169,-0.294098 -1.426206,-0.168019 -2.125922,-0.205573 -1.754407,-0.0118 -1.508874,-0.01248 -3.263313,-0.01139 z"
   style="opacity:1;vector-effect:none;fill:#d85eca;fill-opacity:1;stroke:none;stroke-width:1;stroke-linecap:round;stroke-linejoin:bevel;stroke-miterlimit:4;stroke-dasharray:none;stroke-dashoffset:0;stroke-opacity:1"
   sodipodi:nodetypes="cccccccscccccccc" />
<path
   style="color:#000000;display:inline;overflow:visible;visibility:visible;opacity:1;fill:#ffffff;fill-opacity:1;fill-rule:nonzero;stroke:none;stroke-width:18.2852;marker:none;enable-background:accumulate"
   d="m 7.749,9 -1.75,4 h 7 l -2,-3 -1.5,2 z"
   id="path1099"
   inkscape:connector-curvature="0"
   sodipodi:nodetypes="cccccc" />
<circle
   style="opacity:1;vector-effect:none;fill:#ffffff;fill-opacity:1;stroke:none;stroke-width:2;stroke-linecap:round;stroke-linejoin:bevel;stroke-miterlimit:4;stroke-dasharray:none;stroke-dashoffset:0;stroke-opacity:1"
   id="path3397"
   cx="11.999"
   cy="8"
   r="1" />
</svg>
