<?xml version="1.0" encoding="UTF-8" standalone="no"?>
<svg
   xmlns:dc="http://purl.org/dc/elements/1.1/"
   xmlns:cc="http://creativecommons.org/ns#"
   xmlns:rdf="http://www.w3.org/1999/02/22-rdf-syntax-ns#"
   xmlns:svg="http://www.w3.org/2000/svg"
   xmlns="http://www.w3.org/2000/svg"
   xmlns:sodipodi="http://sodipodi.sourceforge.net/DTD/sodipodi-0.dtd"
   xmlns:inkscape="http://www.inkscape.org/namespaces/inkscape"
   viewBox="0 0 16 16"
   version="1.1"
   id="svg6"
   sodipodi:docname="sc_heading3parastyle.svg"
   inkscape:export-filename="/home/jupiter007/Libreoffice yaru theme fullcolor/build/cmd/sc_heading3parastyle.png"
   inkscape:export-xdpi="96"
   inkscape:export-ydpi="96"
   inkscape:version="1.0.1 (3bc2e813f5, 2020-09-07)">
  <metadata
     id="metadata12">
    <rdf:RDF>
      <cc:Work
         rdf:about="">
        <dc:format>image/svg+xml</dc:format>
        <dc:type
           rdf:resource="http://purl.org/dc/dcmitype/StillImage" />
      </cc:Work>
    </rdf:RDF>
  </metadata>
  <defs
     id="defs10" />
  <sodipodi:namedview
     pagecolor="#ffffff"
     bordercolor="#666666"
     borderopacity="1"
     objecttolerance="10"
     gridtolerance="10"
     guidetolerance="10"
     inkscape:pageopacity="0"
     inkscape:pageshadow="2"
     inkscape:window-width="1920"
     inkscape:window-height="1011"
     id="namedview8"
     showgrid="true"
     inkscape:zoom="41.7193"
     inkscape:cx="10.283334"
     inkscape:cy="9.4853737"
     inkscape:window-x="0"
     inkscape:window-y="0"
     inkscape:window-maximized="1"
     inkscape:current-layer="svg6"
     inkscape:document-rotation="0">
    <inkscape:grid
       type="xygrid"
       id="grid822" />
  </sodipodi:namedview>
  <path
     id="path849"
     style="opacity:0.7;fill:#000000;fill-opacity:1;fill-rule:evenodd;stroke:#000000;stroke-width:2;stroke-linecap:round;stroke-linejoin:round"
     d="M 2 2 L 2 14 L 4 14 L 4 9 L 11 9 L 11 6 L 11 5 L 11 2 L 9 2 L 9 5 L 9 7 L 8 7 L 4 7 L 4 2 L 2 2 z M 10 10 L 10.003906 15 L 11.003906 15 L 11 10 L 10 10 z M 11.996094 10 L 12 15 L 13 15 L 12.996094 10 L 11.996094 10 z M 13.996094 10 L 14 15 L 15 15 L 14.996094 10 L 13.996094 10 z " />
  <path
     id="path2-7"
     style="fill:#ffffff"
     d="M 2,1.9999997 V 14 H 4 V 8.9999999 h 7 V 6 4.9999997 v -3 H 8.9999996 v 3 V 7 h -1 H 4 V 1.9999997 Z"
     sodipodi:nodetypes="ccccccccccccccc" />
  <path
     id="rect868"
     style="opacity:1;fill:#aee3f8;fill-opacity:1;fill-rule:evenodd;stroke:none;stroke-width:2;stroke-linecap:round;stroke-linejoin:round"
     d="m 11.999958,15 h 1.000001 l -0.0043,-5 h -1.000001 z"
     sodipodi:nodetypes="ccccc" />
  <path
     id="path872"
     style="opacity:1;fill:#aee3f8;fill-opacity:1;fill-rule:evenodd;stroke:none;stroke-width:2;stroke-linecap:round;stroke-linejoin:round"
     d="m 13.999959,15 h 1 l -0.0043,-5 h -1 z"
     sodipodi:nodetypes="ccccc" />
  <path
     id="path853"
     style="opacity:1;fill:#aee3f8;fill-opacity:1;fill-rule:evenodd;stroke:none;stroke-width:2;stroke-linecap:round;stroke-linejoin:round"
     d="M 10.004299,15 H 11.0043 L 11,10 H 9.999999 Z"
     sodipodi:nodetypes="ccccc" />
</svg>
