<?xml version="1.0" encoding="UTF-8" standalone="no"?>
<svg
   xmlns:dc="http://purl.org/dc/elements/1.1/"
   xmlns:cc="http://creativecommons.org/ns#"
   xmlns:rdf="http://www.w3.org/1999/02/22-rdf-syntax-ns#"
   xmlns:svg="http://www.w3.org/2000/svg"
   xmlns="http://www.w3.org/2000/svg"
   xmlns:sodipodi="http://sodipodi.sourceforge.net/DTD/sodipodi-0.dtd"
   xmlns:inkscape="http://www.inkscape.org/namespaces/inkscape"
   viewBox="0 0 16 16"
   version="1.1"
   id="svg6"
   sodipodi:docname="sc_heading6parastyle.svg"
   inkscape:version="1.0.1 (3bc2e813f5, 2020-09-07)"
   inkscape:export-filename="/home/jupiter007/Libreoffice yaru theme fullcolor/build/cmd/sc_heading6parastyle.png"
   inkscape:export-xdpi="96"
   inkscape:export-ydpi="96">
  <metadata
     id="metadata12">
    <rdf:RDF>
      <cc:Work
         rdf:about="">
        <dc:format>image/svg+xml</dc:format>
        <dc:type
           rdf:resource="http://purl.org/dc/dcmitype/StillImage" />
      </cc:Work>
    </rdf:RDF>
  </metadata>
  <defs
     id="defs10" />
  <sodipodi:namedview
     pagecolor="#ffffff"
     bordercolor="#666666"
     borderopacity="1"
     objecttolerance="10"
     gridtolerance="10"
     guidetolerance="10"
     inkscape:pageopacity="0"
     inkscape:pageshadow="2"
     inkscape:window-width="1920"
     inkscape:window-height="1011"
     id="namedview8"
     showgrid="true"
     inkscape:zoom="29.5"
     inkscape:cx="4.0704328"
     inkscape:cy="11.915151"
     inkscape:window-x="0"
     inkscape:window-y="0"
     inkscape:window-maximized="1"
     inkscape:current-layer="svg6"
     inkscape:document-rotation="0">
    <inkscape:grid
       type="xygrid"
       id="grid822" />
  </sodipodi:namedview>
  <path
     id="path849"
     style="opacity:0.7;fill:#000000;fill-opacity:1;fill-rule:evenodd;stroke:#000000;stroke-width:2;stroke-linecap:round;stroke-linejoin:round"
     d="M 2 2 L 2 14 L 4 14 L 4 9 L 11 9 L 11 6 L 11 5 L 11 2 L 9 2 L 9 5 L 9 7 L 8 7 L 4 7 L 4 2 L 2 2 z M 8.5019531 10 A 0.5 0.5 0 0 0 8.2734375 10.052734 A 0.5 0.5 0 0 0 8.0488281 10.722656 L 10.048828 14.722656 A 0.50005 0.50005 0 0 0 10.943359 14.722656 L 12.943359 10.722656 A 0.5 0.5 0 0 0 12.71875 10.052734 A 0.5 0.5 0 0 0 12.478516 10 A 0.5 0.5 0 0 0 12.048828 10.277344 L 10.496094 13.382812 L 8.9433594 10.277344 A 0.5 0.5 0 0 0 8.5019531 10 z M 13.996094 10 L 13.996094 15 L 14.996094 15 L 14.996094 10 L 13.996094 10 z " />
  <path
     id="path2"
     style="fill:#ffffff"
     d="M 2,2 V 14 H 4 V 9 h 7 V 6 5 2 H 9 V 5 7 H 8 4 V 2 Z"
     sodipodi:nodetypes="ccccccccccccccc" />
  <rect
     style="opacity:1;fill:#aee3f8;fill-opacity:1;fill-rule:evenodd;stroke:none;stroke-width:2;stroke-linecap:round;stroke-linejoin:round"
     id="rect868"
     width="1"
     height="5"
     x="-14.99566"
     y="10"
     transform="scale(-1,1)" />
  <path
     style="fill:none;stroke:#aee3f8;stroke-width:1px;stroke-linecap:round;stroke-linejoin:round;stroke-opacity:1"
     d="m 12.49566,10.5 -2,4 -2.0000002,-4"
     id="path870" />
</svg>
