<?xml version="1.0" encoding="UTF-8" standalone="no"?>
<svg
   xmlns:dc="http://purl.org/dc/elements/1.1/"
   xmlns:cc="http://creativecommons.org/ns#"
   xmlns:rdf="http://www.w3.org/1999/02/22-rdf-syntax-ns#"
   xmlns:svg="http://www.w3.org/2000/svg"
   xmlns="http://www.w3.org/2000/svg"
   xmlns:sodipodi="http://sodipodi.sourceforge.net/DTD/sodipodi-0.dtd"
   xmlns:inkscape="http://www.inkscape.org/namespaces/inkscape"
   viewBox="0 0 16 16"
   version="1.1"
   id="svg8"
   sodipodi:docname="sc_hidecolumn.svg"
   inkscape:version="1.0.1 (3bc2e813f5, 2020-09-07)"
   inkscape:export-filename="/home/jupiter007/Libreoffice yaru theme fullcolor/build/cmd/sc_hidecolumn.png"
   inkscape:export-xdpi="95"
   inkscape:export-ydpi="95">
  <metadata
     id="metadata14">
    <rdf:RDF>
      <cc:Work
         rdf:about="">
        <dc:format>image/svg+xml</dc:format>
        <dc:type
           rdf:resource="http://purl.org/dc/dcmitype/StillImage" />
      </cc:Work>
    </rdf:RDF>
  </metadata>
  <defs
     id="defs12" />
  <sodipodi:namedview
     pagecolor="#ffffff"
     bordercolor="#666666"
     borderopacity="1"
     objecttolerance="10"
     gridtolerance="10"
     guidetolerance="10"
     inkscape:pageopacity="0"
     inkscape:pageshadow="2"
     inkscape:window-width="1920"
     inkscape:window-height="1011"
     id="namedview10"
     showgrid="true"
     inkscape:zoom="29.5"
     inkscape:cx="1.5093957"
     inkscape:cy="8.1691734"
     inkscape:window-x="0"
     inkscape:window-y="0"
     inkscape:window-maximized="1"
     inkscape:current-layer="svg8"
     inkscape:document-rotation="0">
    <inkscape:grid
       type="xygrid"
       id="grid821" />
  </sodipodi:namedview>
  <rect
     style="fill:#ffffff;fill-opacity:1;stroke:none;stroke-width:2;stroke-linecap:round;stroke-linejoin:round;stroke-miterlimit:4;stroke-dasharray:none;stroke-opacity:1"
     id="rect814"
     width="12"
     height="12"
     x="2"
     y="-14"
     transform="rotate(90)" />
  <path
     d="m 15,3.9999999 c 0,-2 0,-3 -2,-3 H 12 4 3 c -2.00000005,0 -2.00000005,1 -2.00000005,3 V 12 c 0,2 0,3 2.00000005,3 h 1 8 1 c 2,0 2,-1 2,-3 z m -2,-2 c 1,0 1,1 1,2 v 0.9999998 h -3 v 1 h 3 v 4 H 11 V 11 h 3 v 1 c 0,1 0,2 -1,2 H 12 4 3 C 2,14 2,13 2,12 V 11 H 5 V 9.9999997 H 2 v -4 h 3 v -1 H 2 V 3.9999999 c 0,-1 0,-2 1,-2 h 1 8 z"
     id="path2"
     inkscape:connector-curvature="0"
     style="fill:#6d6d6d;fill-opacity:1"
     sodipodi:nodetypes="cccccccccccccccccccccccccccccccccccccccccc" />
  <rect
     style="fill:#762572;fill-opacity:1;fill-rule:evenodd;stroke:none;stroke-width:2;stroke-linecap:round;stroke-linejoin:round"
     id="rect837"
     width="14"
     height="6"
     x="0.99999994"
     y="-11"
     transform="rotate(90)" />
  <rect
     style="fill:#f3d8f2;fill-opacity:1;fill-rule:evenodd;stroke:none;stroke-width:2;stroke-linecap:round;stroke-linejoin:round"
     id="rect839"
     width="12"
     height="4"
     x="2"
     y="-10"
     transform="rotate(90)" />
  <rect
     style="fill:#762572;fill-rule:evenodd;stroke-width:2;stroke-linecap:round;stroke-linejoin:round"
     id="rect834"
     width="1"
     height="4"
     x="5"
     y="-10"
     transform="rotate(90)" />
  <rect
     style="fill:#762572;fill-rule:evenodd;stroke-width:2;stroke-linecap:round;stroke-linejoin:round"
     id="rect836"
     width="1"
     height="4"
     x="10"
     y="-10"
     transform="rotate(90)" />
  <circle
     style="opacity:0.6;fill:#000000;fill-opacity:1;fill-rule:evenodd;stroke:#000000;stroke-width:2;stroke-linecap:butt;stroke-linejoin:round;stroke-miterlimit:4;stroke-dasharray:none;stroke-opacity:1"
     id="path831"
     cx="12.000001"
     cy="11.999999"
     r="3" />
  <circle
     r="3"
     cy="11.999999"
     cx="12.000001"
     id="circle833"
     style="opacity:1;fill:#ffffff;fill-opacity:1;fill-rule:evenodd;stroke:none;stroke-width:2;stroke-linecap:butt;stroke-linejoin:round;stroke-miterlimit:4;stroke-dasharray:none;stroke-opacity:1" />
  <path
     d="m 12,10 c -1.104569,0 -2.0000001,0.895431 -2.0000001,2 0,1.10457 0.8954311,2 2.0000001,2 1.104569,0 2,-0.89543 2,-2 0.02896,-0.194894 0.02896,-0.392997 0,-0.587891 C 13.825992,11.801139 13.42455,12.037143 13,12 12.447715,12 12,11.552285 12,11 11.96318,10.574973 12.200048,10.173388 12.589844,10 12.39431,9.97085 12.195534,9.97085 12,10 Z"
     id="path2-3"
     inkscape:connector-curvature="0"
     style="fill:#232629"
     sodipodi:nodetypes="csscccccc" />
  <rect
     style="opacity:0.6;fill:#aee3f8;fill-opacity:1;fill-rule:evenodd;stroke:#000000;stroke-width:2;stroke-linecap:butt;stroke-linejoin:round;stroke-miterlimit:4;stroke-dasharray:none;stroke-opacity:1"
     id="rect845"
     width="1"
     height="9"
     x="17.127434"
     y="-4.5000219"
     transform="rotate(45)"
     inkscape:transform-center-x="3.559322"
     inkscape:transform-center-y="-0.47457627" />
  <rect
     y="-4.5000219"
     x="17.127434"
     height="9"
     width="1"
     id="rect847"
     style="opacity:1;fill:#aee3f8;fill-opacity:1;fill-rule:evenodd;stroke:none;stroke-width:2;stroke-linecap:butt;stroke-linejoin:round;stroke-miterlimit:4;stroke-dasharray:none;stroke-opacity:1"
     transform="rotate(45)"
     inkscape:transform-center-x="3.559322"
     inkscape:transform-center-y="-0.47457627" />
</svg>
