<?xml version="1.0" encoding="UTF-8" standalone="no"?>
<svg
   xmlns:dc="http://purl.org/dc/elements/1.1/"
   xmlns:cc="http://creativecommons.org/ns#"
   xmlns:rdf="http://www.w3.org/1999/02/22-rdf-syntax-ns#"
   xmlns:svg="http://www.w3.org/2000/svg"
   xmlns="http://www.w3.org/2000/svg"
   xmlns:sodipodi="http://sodipodi.sourceforge.net/DTD/sodipodi-0.dtd"
   xmlns:inkscape="http://www.inkscape.org/namespaces/inkscape"
   viewBox="0 0 16 16"
   version="1.1"
   id="svg6"
   sodipodi:docname="sc_heading5parastyle.svg"
   inkscape:export-filename="/home/jupiter007/Libreoffice yaru theme fullcolor/build/cmd/sc_heading5parastyle.png"
   inkscape:export-xdpi="96"
   inkscape:export-ydpi="96"
   inkscape:version="1.0.1 (3bc2e813f5, 2020-09-07)">
  <metadata
     id="metadata12">
    <rdf:RDF>
      <cc:Work
         rdf:about="">
        <dc:format>image/svg+xml</dc:format>
        <dc:type
           rdf:resource="http://purl.org/dc/dcmitype/StillImage" />
      </cc:Work>
    </rdf:RDF>
  </metadata>
  <defs
     id="defs10" />
  <sodipodi:namedview
     pagecolor="#ffffff"
     bordercolor="#666666"
     borderopacity="1"
     objecttolerance="10"
     gridtolerance="10"
     guidetolerance="10"
     inkscape:pageopacity="0"
     inkscape:pageshadow="2"
     inkscape:window-width="1920"
     inkscape:window-height="1011"
     id="namedview8"
     showgrid="true"
     inkscape:zoom="41.7193"
     inkscape:cx="8.7450975"
     inkscape:cy="7.8143115"
     inkscape:window-x="0"
     inkscape:window-y="0"
     inkscape:window-maximized="1"
     inkscape:current-layer="svg6"
     inkscape:document-rotation="0">
    <inkscape:grid
       type="xygrid"
       id="grid822" />
  </sodipodi:namedview>
  <path
     id="path824"
     style="opacity:0.6;fill:#000000;stroke:#000000;stroke-width:2;stroke-linejoin:round;stroke-miterlimit:4;stroke-dasharray:none"
     d="M 2,2 V 14 H 4 V 9 H 8 V 7 H 4 V 2 Z m 7,0 v 3 h 2 V 2 Z m 0,4 v 2 3 H 9.171875 11 12 c 0.552285,0 1,0.447715 1,1 0,0.552285 -0.447715,1 -1,1 H 9 v 2 H 11.949219 12 c 1.656854,0 3,-1.343146 3,-3 0,-1.656854 -1.343146,-3 -3,-3 -0.01693,-1.433e-4 -0.03385,-1.433e-4 -0.05078,0 C 11.625613,9.0057131 11.305063,9.0637549 11,9.171875 V 8 h 3 V 6 Z"
     sodipodi:nodetypes="cccccccccccccccccccssscccssccccccc" />
  <path
     id="path2"
     style="fill:#ffffff"
     d="M 2 2 L 2 14 L 4 14 L 4 9 L 8 9 L 8 7 L 4 7 L 4 2 L 2 2 z M 9 2 L 9 5 L 11 5 L 11 2 L 9 2 z " />
  <path
     id="rect834"
     style="opacity:1;fill:#aee3f8;fill-opacity:1;fill-rule:evenodd;stroke:none;stroke-width:2;stroke-linecap:round;stroke-linejoin:round"
     d="m 9,6 v 2 3 H 9.171875 11 12 c 0.552285,0 1,0.447715 1,1 0,0.552285 -0.447715,1 -1,1 H 9 v 2 h 2.949219 0.05078 c 1.656854,0 3,-1.343146 3,-3 0,-1.656854 -1.343146,-3 -3,-3 -0.01693,-1.433e-4 -0.03385,-1.433e-4 -0.05078,0 C 11.625613,9.0057131 11.305063,9.0637549 11,9.171875 V 8 h 3 V 6 Z"
     sodipodi:nodetypes="cccccssscccssccccccc" />
</svg>
