<?xml version="1.0" encoding="UTF-8" standalone="no"?>
<svg
   xmlns:dc="http://purl.org/dc/elements/1.1/"
   xmlns:cc="http://creativecommons.org/ns#"
   xmlns:rdf="http://www.w3.org/1999/02/22-rdf-syntax-ns#"
   xmlns:svg="http://www.w3.org/2000/svg"
   xmlns="http://www.w3.org/2000/svg"
   xmlns:sodipodi="http://sodipodi.sourceforge.net/DTD/sodipodi-0.dtd"
   xmlns:inkscape="http://www.inkscape.org/namespaces/inkscape"
   viewBox="0 0 16 16"
   version="1.1"
   id="svg6"
   sodipodi:docname="sc_heading6parastyle.svg"
   inkscape:version="1.0.1 (3bc2e813f5, 2020-09-07)"
   inkscape:export-filename="/home/jupiter007/Libreoffice yaru theme fullcolor/build/cmd/sc_heading6parastyle.png"
   inkscape:export-xdpi="96"
   inkscape:export-ydpi="96">
  <metadata
     id="metadata12">
    <rdf:RDF>
      <cc:Work
         rdf:about="">
        <dc:format>image/svg+xml</dc:format>
        <dc:type
           rdf:resource="http://purl.org/dc/dcmitype/StillImage" />
      </cc:Work>
    </rdf:RDF>
  </metadata>
  <defs
     id="defs10" />
  <sodipodi:namedview
     pagecolor="#ffffff"
     bordercolor="#666666"
     borderopacity="1"
     objecttolerance="10"
     gridtolerance="10"
     guidetolerance="10"
     inkscape:pageopacity="0"
     inkscape:pageshadow="2"
     inkscape:window-width="1920"
     inkscape:window-height="1011"
     id="namedview8"
     showgrid="true"
     inkscape:zoom="14.75"
     inkscape:cx="-13.542486"
     inkscape:cy="19.752029"
     inkscape:window-x="0"
     inkscape:window-y="0"
     inkscape:window-maximized="1"
     inkscape:current-layer="svg6"
     inkscape:document-rotation="0">
    <inkscape:grid
       type="xygrid"
       id="grid822" />
  </sodipodi:namedview>
  <path
     id="path824"
     style="opacity:0.7;fill:#000000;stroke:#000000;stroke-width:2;stroke-linejoin:round;stroke-miterlimit:4;stroke-dasharray:none"
     d="M 2,2 V 14 H 4 V 9 H 8 V 7 H 4 V 2 Z m 7,0 v 4 h 2 V 2 Z m 4.177734,3.9824219 c -0.277205,-0.00706 -0.560352,-0.010682 -0.851562,0.00586 -0.582418,0.03308 -1.246257,0.1613573 -1.81836,0.6015626 C 9.9357105,7.0300481 9.5512268,7.7164055 9.3242188,8.5839844 9.1104238,9.4010655 9.0170164,10.440064 9.0058594,11.775391 c -0.00601,0.07407 -0.00927,0.148342 -0.00977,0.222656 V 12 c 0,1.656854 1.3431462,3 3.0000002,3 1.656854,0 3,-1.343146 3,-3 0,-1.656854 -1.343146,-3 -3,-3 -0.01693,-1.433e-4 -0.03385,-1.433e-4 -0.05078,0 -0.23129,0.00407 -0.461334,0.034869 -0.685546,0.091797 v -0.00195 c 0.156831,-0.5993754 0.331823,-0.8121597 0.466796,-0.9160157 0.134974,-0.103856 0.325622,-0.1655038 0.712891,-0.1875 C 12.826726,7.9642817 13.364203,8 13.996094,8 V 6 c -0.269892,0 -0.541155,-0.010513 -0.81836,-0.017578 z M 11.996094,11 c 0.552285,0 1,0.447715 1,1 0,0.552285 -0.447715,1 -1,1 -0.552285,0 -1,-0.447715 -1,-1 0,-0.03286 0.0038,-0.05161 0.0039,-0.08398 C 11.043637,11.398268 11.47651,11.000194 11.996094,11 Z"
     sodipodi:nodetypes="cccccccccccccccsssccsssccccscccccssscc" />
  <path
     id="path2"
     style="fill:#ffffff"
     d="M 2,2 V 14 H 4 V 9 H 8 L 9,7 H 4 V 2 Z M 9,2 V 7 L 11,5 V 2 Z"
     sodipodi:nodetypes="cccccccccccccc" />
  <path
     id="path853"
     style="opacity:1;fill:#aee3f8;fill-opacity:1;fill-rule:evenodd;stroke:none;stroke-width:2;stroke-linecap:round;stroke-linejoin:round"
     d="m 13.177735,5.9824219 c -0.277205,-0.00706 -0.560353,-0.010681 -0.851563,0.00586 -0.582418,0.03308 -1.246257,0.1613574 -1.818359,0.6015626 C 9.935711,7.0300489 9.551227,7.7164055 9.324219,8.5839844 9.110424,9.4010655 9.017017,10.440064 9.00586,11.775391 a 3,3 0 0 0 -0.00977,0.222656 c 0,7.38e-4 0,0.0012 0,0.002 a 3,3 0 0 0 3,3 3,3 0 0 0 3,-3 3,3 0 0 0 -3,-3 3,3 0 0 0 -0.05078,0 3,3 0 0 0 -0.685547,0.091797 c 1.28e-4,-4.885e-4 -1.28e-4,-0.00147 0,-0.00195 0.156831,-0.5993753 0.331823,-0.8121597 0.466797,-0.9160157 0.134974,-0.103856 0.325621,-0.1655038 0.71289,-0.1875 C 12.826723,7.9643319 13.364203,8 13.996094,8 V 6 C 13.726202,6 13.45494,5.9894866 13.177735,5.9824219 Z M 11.996094,11 a 1,1 0 0 1 1,1 1,1 0 0 1 -1,1 1,1 0 0 1 -1,-1 c 0,-0.03286 0.0038,-0.05161 0.0039,-0.08398 A 1,1 0 0 1 11.996094,11 Z" />
</svg>
