<?xml version="1.0" encoding="UTF-8" standalone="no"?>
<svg
   xmlns:dc="http://purl.org/dc/elements/1.1/"
   xmlns:cc="http://creativecommons.org/ns#"
   xmlns:rdf="http://www.w3.org/1999/02/22-rdf-syntax-ns#"
   xmlns:svg="http://www.w3.org/2000/svg"
   xmlns="http://www.w3.org/2000/svg"
   xmlns:sodipodi="http://sodipodi.sourceforge.net/DTD/sodipodi-0.dtd"
   xmlns:inkscape="http://www.inkscape.org/namespaces/inkscape"
   viewBox="0 0 16 16"
   version="1.1"
   id="svg6"
   sodipodi:docname="sc_heading3parastyle.svg"
   inkscape:export-filename="/home/jupiter007/Libreoffice yaru theme fullcolor/build/cmd/sc_heading3parastyle.png"
   inkscape:export-xdpi="96"
   inkscape:export-ydpi="96"
   inkscape:version="1.0.1 (3bc2e813f5, 2020-09-07)">
  <metadata
     id="metadata12">
    <rdf:RDF>
      <cc:Work
         rdf:about="">
        <dc:format>image/svg+xml</dc:format>
        <dc:type
           rdf:resource="http://purl.org/dc/dcmitype/StillImage" />
      </cc:Work>
    </rdf:RDF>
  </metadata>
  <defs
     id="defs10" />
  <sodipodi:namedview
     pagecolor="#ffffff"
     bordercolor="#666666"
     borderopacity="1"
     objecttolerance="10"
     gridtolerance="10"
     guidetolerance="10"
     inkscape:pageopacity="0"
     inkscape:pageshadow="2"
     inkscape:window-width="1920"
     inkscape:window-height="1011"
     id="namedview8"
     showgrid="true"
     inkscape:zoom="41.7193"
     inkscape:cx="8.5267093"
     inkscape:cy="11.957813"
     inkscape:window-x="0"
     inkscape:window-y="0"
     inkscape:window-maximized="1"
     inkscape:current-layer="svg6"
     inkscape:document-rotation="0">
    <inkscape:grid
       type="xygrid"
       id="grid822" />
  </sodipodi:namedview>
  <path
     id="path824"
     style="opacity:0.7;fill:#000000;stroke:#000000;stroke-width:2;stroke-linejoin:round;stroke-miterlimit:4;stroke-dasharray:none"
     d="M 2 2 L 2 14 L 4 14 L 4 9 L 8 9 L 8 7 L 4 7 L 4 2 L 2 2 z M 9 2 L 9 5 L 11 5 L 11 2 L 9 2 z M 11.402344 6 A 3.5 2.5 0 0 0 9 6.75 L 9 9 L 10 9 A 1.5 1 0 0 1 11.490234 8 A 1.5 1 0 0 1 11.5 8 A 1.5 1 0 0 1 13 9 A 1.5 1 0 0 1 11.509766 10 A 1.5 1 0 0 1 11.5 10 A 1.5 1 0 0 1 11 9.9414062 L 11 11.058594 A 1.5 1 0 0 1 11.490234 11 A 3.5 2.5 0 0 0 11.5 11 A 1.5 1 0 0 1 13 12 A 1.5 1 0 0 1 11.5 13 A 1.5 1 0 0 1 11.490234 13 A 1.5 1 0 0 1 10 12 L 9 12 L 9 14.25 A 3.5 2.5 0 0 0 11.402344 15 A 3.5 2.5 0 0 0 11.5 15 A 3.5 2.5 0 0 0 15 12.5 A 3.5 2.5 0 0 0 13.597656 10.5 A 3.5 2.5 0 0 0 15 8.5 A 3.5 2.5 0 0 0 11.5 6 A 3.5 2.5 0 0 0 11.402344 6 z " />
  <path
     id="path2"
     style="fill:#ffffff"
     d="M 2 2 L 2 14 L 4 14 L 4 9 L 8 9 L 8 7 L 4 7 L 4 2 L 2 2 z M 9 2 L 9 5 L 11 5 L 11 2 L 9 2 z " />
  <path
     id="path862"
     style="opacity:1;fill:#aee3f8;fill-opacity:1;fill-rule:evenodd;stroke:none;stroke-width:2;stroke-linecap:round;stroke-linejoin:round"
     d="M 11.402344,6 C 10.495767,6.0182339 9.6344959,6.2871186 9,6.75 V 9 h 1 c -1.75e-5,-0.5497521 0.665623,-0.9964207 1.490234,-1 0.0033,-7.1e-6 0.0065,-7.1e-6 0.0098,0 0.828427,0 1.5,0.4477153 1.5,1 1.7e-5,0.5497521 -0.665623,0.9964207 -1.490234,1 H 11.5 11 v 1 H 11.490234 11.5 c 0.828427,0 1.5,0.447715 1.5,1 0,0.552285 -0.671573,1 -1.5,1 -0.0033,7e-6 -0.0065,7e-6 -0.0098,0 C 10.665623,12.996421 9.9999825,12.549752 10,12 H 9 v 2.25 c 0.6344959,0.462881 1.495767,0.731766 2.402344,0.75 0.03255,3.24e-4 0.06511,3.24e-4 0.09766,0 1.932997,0 3.5,-1.119288 3.5,-2.5 -5.53e-4,-0.787188 -0.52014,-1.528214 -1.402344,-2 C 14.47986,10.028214 14.999447,9.287188 15,8.5 15,7.1192881 13.432997,6 11.5,6 c -0.03255,-3.244e-4 -0.06511,-3.244e-4 -0.09766,0 z"
     sodipodi:nodetypes="ccccccccccccsscccccccccccc" />
</svg>
