<?xml version="1.0" encoding="UTF-8" standalone="no"?>
<svg
   xmlns:dc="http://purl.org/dc/elements/1.1/"
   xmlns:cc="http://creativecommons.org/ns#"
   xmlns:rdf="http://www.w3.org/1999/02/22-rdf-syntax-ns#"
   xmlns:svg="http://www.w3.org/2000/svg"
   xmlns="http://www.w3.org/2000/svg"
   xmlns:sodipodi="http://sodipodi.sourceforge.net/DTD/sodipodi-0.dtd"
   xmlns:inkscape="http://www.inkscape.org/namespaces/inkscape"
   viewBox="0 0 16 16"
   version="1.1"
   id="svg4"
   sodipodi:docname="sc_insertmasterpage.svg"
   inkscape:version="0.92.4 (5da689c313, 2019-01-14)">
  <metadata
     id="metadata10">
    <rdf:RDF>
      <cc:Work
         rdf:about="">
        <dc:format>image/svg+xml</dc:format>
        <dc:type
           rdf:resource="http://purl.org/dc/dcmitype/StillImage" />
      </cc:Work>
    </rdf:RDF>
  </metadata>
  <defs
     id="defs8" />
  <sodipodi:namedview
     pagecolor="#ffffff"
     bordercolor="#666666"
     borderopacity="1"
     objecttolerance="10"
     gridtolerance="10"
     guidetolerance="10"
     inkscape:pageopacity="0"
     inkscape:pageshadow="2"
     inkscape:window-width="1920"
     inkscape:window-height="1011"
     id="namedview6"
     showgrid="false"
     inkscape:zoom="29.5"
     inkscape:cx="1.6392203"
     inkscape:cy="6.9345978"
     inkscape:window-x="0"
     inkscape:window-y="32"
     inkscape:window-maximized="1"
     inkscape:current-layer="svg4" />
  <path
     id="path2732-8-9-4"
     style="color:#000000;font-style:normal;font-variant:normal;font-weight:normal;font-stretch:normal;font-size:medium;line-height:normal;font-family:sans-serif;font-variant-ligatures:normal;font-variant-position:normal;font-variant-caps:normal;font-variant-numeric:normal;font-variant-alternates:normal;font-feature-settings:normal;text-indent:0;text-align:start;text-decoration:none;text-decoration-line:none;text-decoration-style:solid;text-decoration-color:#000000;letter-spacing:normal;word-spacing:normal;text-transform:none;writing-mode:lr-tb;direction:ltr;text-orientation:mixed;dominant-baseline:auto;baseline-shift:baseline;text-anchor:start;white-space:normal;shape-padding:0;clip-rule:nonzero;display:inline;overflow:visible;visibility:visible;opacity:1;isolation:auto;mix-blend-mode:normal;color-interpolation:sRGB;color-interpolation-filters:linearRGB;solid-color:#000000;solid-opacity:1;vector-effect:none;fill:#762572;fill-opacity:1;fill-rule:nonzero;stroke:none;stroke-width:1.00007653;stroke-linecap:butt;stroke-linejoin:miter;stroke-miterlimit:4;stroke-dasharray:none;stroke-dashoffset:0;stroke-opacity:1;marker:none;color-rendering:auto;image-rendering:auto;shape-rendering:auto;text-rendering:auto;enable-background:accumulate"
     d="m 13,7.00792 v -0.006 C 12.9848,5.7431 12.9401,4.9125 12.73828,4.54647 12.63712,4.36302 12.52542,4.2592 12.26562,4.16165 12.00583,4.06405 11.59239,4.00185 11,4.00146 l -5.9999999,-0.004 c -0.59239,-3.9e-4 -1.00572,0.0626 -1.26562,0.16019 -0.25991,0.0976 -0.37147,0.20334 -0.47266,0.38678 -0.20191,0.366 -0.24702,1.19478 -0.26172,2.45349 v 4.5e-4 1.99954 l 3,0.0021 v 3 l 2,8.88e-4 V 13 h -3 l -3,-3 V 6.99605 6.99237 c 0.0145,-1.25839 -0.0306,-2.17922 0.38477,-2.93209 0.20766,-0.37643 0.55938,-0.67333 0.99804,-0.83802 C 3.8214801,3.05757 4.3423901,3 5.0000001,3 H 11 c 0.65761,0 1.17858,0.06152 1.61719,0.22626 0.43861,0.16471 0.78852,0.46161 0.99609,0.83802 0.41514,0.75284 0.37165,1.6738 0.38672,2.93209 v 0.002 z M 11,8 v 2 H 9 v 1 h 2 v 2 h 1 v -2 h 2 V 10 H 12 V 8 Z" />
</svg>
