<?xml version="1.0" encoding="UTF-8" standalone="no"?>
<svg
   xmlns:dc="http://purl.org/dc/elements/1.1/"
   xmlns:cc="http://creativecommons.org/ns#"
   xmlns:rdf="http://www.w3.org/1999/02/22-rdf-syntax-ns#"
   xmlns:svg="http://www.w3.org/2000/svg"
   xmlns="http://www.w3.org/2000/svg"
   xmlns:sodipodi="http://sodipodi.sourceforge.net/DTD/sodipodi-0.dtd"
   xmlns:inkscape="http://www.inkscape.org/namespaces/inkscape"
   viewBox="0 0 16 16"
   version="1.1"
   id="svg6"
   sodipodi:docname="sc_insertrows.svg"
   inkscape:version="1.0.1 (3bc2e813f5, 2020-09-07)"
   inkscape:export-filename="/home/jupiter007/Libreoffice yaru theme fullcolor/build/cmd/sc_insertrows.png"
   inkscape:export-xdpi="95"
   inkscape:export-ydpi="95">
  <rect
     style="fill:#ffffff;fill-opacity:1;stroke:none;stroke-width:2;stroke-linecap:round;stroke-linejoin:round;stroke-miterlimit:4;stroke-dasharray:none;stroke-opacity:1"
     id="rect820"
     width="10"
     height="10"
     x="3"
     y="3"
     transform="matrix(0,1,1,0,0,0)" />
  <path
     d="m 14,6 v 3 1 1 c 0,2 0,3 -2,3 H 4 C 2,14 2,13 2,11 V 6 Z M 3,6 H 5 Z M 3,7 V 9 H 5 V 7 Z m 0,3 v 1 c 0,1 0,2 1,2 H 5 V 12 11 10 Z M 6,6 H 9 Z M 6,7 V 9 H 9 V 7 Z m 0,3 v 1 1 1 h 3 v -1 -1 -1 z m 4,-4 h 3 z m 0,1 v 2 h 3 V 7 Z m 0,3 v 1 1 1 h 2 c 1,0 1,-1 1,-2 v -1 z"
     id="path2-0"
     inkscape:connector-curvature="0"
     style="fill:#6d6d6d;fill-opacity:1"
     sodipodi:nodetypes="cccccccccccccccccccccccccccccccccccccccccccccccccccccccccc" />
  <rect
     style="fill:#ddf6d5;fill-opacity:1;fill-rule:evenodd;stroke-width:2;stroke-linecap:round;stroke-linejoin:round"
     id="rect849"
     width="3"
     height="10"
     x="-6"
     y="3"
     transform="rotate(-90)" />
  <path
     id="path4"
     style="fill:#46a926;fill-opacity:1"
     d="M 2,7 H 3 4 5.28125 6 7 8 9.28125 10 h 1 1 1 1 V 6 5 C 14,3 14,2 12,2 H 10 9.71875 8.28125 7 6 5.71875 4.28125 4 C 2,2 2,3 2,5 V 6 Z M 3,6 V 5 C 3,4 3,3 4,3 H 5 V 6 Z M 6,6 V 3 h 3 v 3 z m 4,0 V 3 h 2 c 1,0 1,1 1,2 v 1 z" />
  <metadata
     id="metadata12">
    <rdf:RDF>
      <cc:Work
         rdf:about="">
        <dc:format>image/svg+xml</dc:format>
        <dc:type
           rdf:resource="http://purl.org/dc/dcmitype/StillImage" />
      </cc:Work>
    </rdf:RDF>
  </metadata>
  <defs
     id="defs10" />
  <sodipodi:namedview
     pagecolor="#ffffff"
     bordercolor="#666666"
     borderopacity="1"
     objecttolerance="10"
     gridtolerance="10"
     guidetolerance="10"
     inkscape:pageopacity="0"
     inkscape:pageshadow="2"
     inkscape:window-width="1920"
     inkscape:window-height="1011"
     id="namedview8"
     showgrid="true"
     inkscape:zoom="22.627417"
     inkscape:cx="-0.074564073"
     inkscape:cy="6.2865851"
     inkscape:window-x="0"
     inkscape:window-y="0"
     inkscape:window-maximized="1"
     inkscape:current-layer="svg6"
     inkscape:document-rotation="0">
    <inkscape:grid
       type="xygrid"
       id="grid822" />
  </sodipodi:namedview>
  <circle
     style="opacity:1;vector-effect:none;fill:#46a926;fill-opacity:1;stroke:none;stroke-width:3.49999976;stroke-linecap:butt;stroke-linejoin:round;stroke-miterlimit:4;stroke-dasharray:none;stroke-dashoffset:0;stroke-opacity:1"
     id="path2644"
     cy="12.5"
     cx="12.5"
     r="3.5" />
  <path
     inkscape:connector-curvature="0"
     id="path1063"
     overflow="visible"
     font-weight="400"
     style="color:#000000;font-weight:400;line-height:normal;font-family:sans-serif;text-indent:0;text-align:start;text-decoration:none;text-decoration-line:none;text-decoration-style:solid;text-decoration-color:#000000;text-transform:none;white-space:normal;overflow:visible;isolation:auto;mix-blend-mode:normal;fill:#ffffff;fill-opacity:1;marker:none"
     d="m 12,10 v 2 h -2 v 1 h 2 v 2 h 1 v -2 h 2 v -1 h -2 v -2 z" />
</svg>
