<?xml version="1.0" encoding="UTF-8" standalone="no"?>
<svg
   xmlns:dc="http://purl.org/dc/elements/1.1/"
   xmlns:cc="http://creativecommons.org/ns#"
   xmlns:rdf="http://www.w3.org/1999/02/22-rdf-syntax-ns#"
   xmlns:svg="http://www.w3.org/2000/svg"
   xmlns="http://www.w3.org/2000/svg"
   xmlns:sodipodi="http://sodipodi.sourceforge.net/DTD/sodipodi-0.dtd"
   xmlns:inkscape="http://www.inkscape.org/namespaces/inkscape"
   viewBox="0 0 16 16"
   version="1.1"
   id="svg4"
   sodipodi:docname="sc_insertgraphic.svg"
   inkscape:export-filename="/home/jupiter007/Libreoffice yaru theme fullcolor/build/cmd/sc_insertgraphic.png"
   inkscape:export-xdpi="96"
   inkscape:export-ydpi="96"
   inkscape:version="1.0.1 (3bc2e813f5, 2020-09-07)">
  <metadata
     id="metadata10">
    <rdf:RDF>
      <cc:Work
         rdf:about="">
        <dc:format>image/svg+xml</dc:format>
        <dc:type
           rdf:resource="http://purl.org/dc/dcmitype/StillImage" />
        <dc:title />
      </cc:Work>
    </rdf:RDF>
  </metadata>
  <defs
     id="defs8" />
  <sodipodi:namedview
     pagecolor="#ffffff"
     bordercolor="#666666"
     borderopacity="1"
     objecttolerance="10"
     gridtolerance="10"
     guidetolerance="10"
     inkscape:pageopacity="0"
     inkscape:pageshadow="2"
     inkscape:window-width="1920"
     inkscape:window-height="1011"
     id="namedview6"
     showgrid="true"
     inkscape:zoom="29.5"
     inkscape:cx="-5.673808"
     inkscape:cy="7.0844539"
     inkscape:window-x="0"
     inkscape:window-y="0"
     inkscape:window-maximized="1"
     inkscape:current-layer="svg4"
     inkscape:document-rotation="0">
    <inkscape:grid
       type="xygrid"
       id="grid817" />
    <inkscape:grid
       type="xygrid"
       id="grid848"
       dotted="true"
       spacingx="0.5"
       spacingy="0.5"
       empspacing="10" />
  </sodipodi:namedview>
  <path
     sodipodi:nodetypes="cccscsccccccccscscccccc"
     inkscape:connector-curvature="0"
     id="path4237-1"
     d="M 3.994141,0.9614254 C 2.735941,0.9759254 1.81525,0.9308214 1.0625,1.346191 0.68613,1.553851 0.389269,1.9055779 0.224609,2.3442379 0.059939,2.7829079 -0.02699685,3.3043798 0,3.9614254 v 1.488281 6.5508766 c 0,0.65761 0.0599,1.178578 0.224609,1.617189 0.16468,0.438611 0.461531,0.788524 0.837891,0.996093 0.75272,0.41513 1.673541,0.371649 2.931641,0.386718 h 0.002 8.005809 0.0039 c 1.25819,-0.0145 2.178891,0.0306 2.931641,-0.384767 0.37637,-0.20766 0.673221,-0.559386 0.837891,-0.998046 C 15.939921,13.1791 16,12.658193 16,12.000583 V 5.4282224 3.9614254 C 16,3.3038254 15.9401,2.7828479 15.775391,2.3442379 15.610711,1.9056379 15.31386,1.5557041 14.9375,1.3481442 14.18473,0.9330142 13.263899,0.9765054 12.005809,0.9614254 h -0.002 H 3.998 Z"
     style="font-style:normal;font-variant:normal;font-weight:normal;font-stretch:normal;font-size:15px;line-height:125%;font-family:Ubuntu;-inkscape-font-specification:Ubuntu;text-align:center;letter-spacing:0px;word-spacing:0px;writing-mode:lr-tb;text-anchor:middle;display:inline;opacity:0.6;fill:#000000;fill-opacity:1;stroke:none;stroke-width:0.999802" />
  <path
     inkscape:connector-curvature="0"
     id="path1993"
     d="M 7.983344,1.9886102 C 6.426763,1.9994062 3.873379,1.9768582 2.323428,2.0273852 1.862199,2.0700532 1.30724,2.2338046 1.168088,2.737352 0.949094,3.3726984 1.059674,4.0711392 1.022292,4.7192763 c -0.0078,2.2970841 -0.02297,5.6350027 0.02152,7.9243547 0.0391,0.461928 0.202551,1.012665 0.698756,1.163665 0.632456,0.225082 1.284144,0.12274 1.935974,0.154299 1.424235,0.0068 3.850538,0.01102 5.276395,0.01131 1.704531,3.49e-4 2.408363,-0.005 4.107165,-0.01851 0.511911,-0.01201 1.183699,0.01993 1.584745,-0.405191 0.421097,-0.539783 0.287073,-1.268022 0.322745,-1.903787 0.01187,-2.444323 0.02769,-5.9496696 -0.0219,-8.3953691 C 14.898416,2.8480076 14.7777,2.3870958 14.372553,2.2055727 13.704384,1.9114753 12.946348,2.0375538 12.246632,2 10.492225,1.9881974 9.737783,1.9875156 7.983344,1.9886102 Z"
     style="opacity:1;vector-effect:none;fill:#d85eca;fill-opacity:1;stroke:none;stroke-width:1;stroke-linecap:round;stroke-linejoin:bevel;stroke-miterlimit:4;stroke-dasharray:none;stroke-dashoffset:0;stroke-opacity:1"
     sodipodi:nodetypes="cccccccsccccccc" />
  <path
     d="m 11.500001,4 c -0.82843,0 -1.5,0.67157 -1.5,1.5 0,0.82843 0.67157,1.5 1.5,1.5 0.82843,0 1.5,-0.67157 1.5,-1.5 0,-0.82843 -0.67157,-1.5 -1.5,-1.5 z"
     id="path4527-0-3"
     style="color:#000000;display:inline;overflow:visible;visibility:visible;fill:#ffffff;fill-opacity:1;fill-rule:nonzero;stroke:none;stroke-width:5.99881;marker:none;enable-background:accumulate" />
  <path
     d="M 6,6.5 3,12 h 2.71817 5.281831 L 8.5,7.5 7.5,9 Z"
     id="path4156-2-1"
     style="color:#000000;display:inline;overflow:visible;visibility:visible;fill:#ffffff;fill-opacity:1;fill-rule:nonzero;stroke:none;stroke-width:5.99881;marker:none;enable-background:accumulate" />
</svg>
