<?xml version="1.0" encoding="UTF-8" standalone="no"?>
<svg
   xmlns:dc="http://purl.org/dc/elements/1.1/"
   xmlns:cc="http://creativecommons.org/ns#"
   xmlns:rdf="http://www.w3.org/1999/02/22-rdf-syntax-ns#"
   xmlns:svg="http://www.w3.org/2000/svg"
   xmlns="http://www.w3.org/2000/svg"
   xmlns:sodipodi="http://sodipodi.sourceforge.net/DTD/sodipodi-0.dtd"
   xmlns:inkscape="http://www.inkscape.org/namespaces/inkscape"
   viewBox="0 0 16 16"
   version="1.1"
   id="svg4"
   sodipodi:docname="sc_insertsymbol.svg"
   inkscape:export-filename="/home/jupiter007/Libreoffice yaru theme fullcolor/build/cmd/sc_insertsymbol.png"
   inkscape:export-xdpi="95"
   inkscape:export-ydpi="95"
   inkscape:version="1.0.1 (3bc2e813f5, 2020-09-07)"><metadata
   id="metadata10">
  <rdf:RDF>
    <cc:Work
       rdf:about="">
      <dc:format>image/svg+xml</dc:format>
      <dc:type
         rdf:resource="http://purl.org/dc/dcmitype/StillImage" />
    </cc:Work>
  </rdf:RDF>
</metadata>
<defs
   id="defs8" />
<sodipodi:namedview
   pagecolor="#ffffff"
   bordercolor="#666666"
   borderopacity="1"
   objecttolerance="10"
   gridtolerance="10"
   guidetolerance="10"
   inkscape:pageopacity="0"
   inkscape:pageshadow="2"
   inkscape:window-width="1920"
   inkscape:window-height="1011"
   id="namedview6"
   showgrid="true"
   inkscape:zoom="53.298176"
   inkscape:cx="6.729889"
   inkscape:cy="9.5756026"
   inkscape:window-x="0"
   inkscape:window-y="0"
   inkscape:window-maximized="1"
   inkscape:current-layer="svg4"
   inkscape:document-rotation="0"
   inkscape:snap-bbox="true"
   inkscape:bbox-paths="true"
   inkscape:bbox-nodes="true"
   inkscape:snap-bbox-midpoints="true"
   inkscape:object-paths="true"
   inkscape:snap-intersection-paths="true"
   inkscape:snap-smooth-nodes="true"
   inkscape:snap-midpoints="true"
   showguides="false">
  <inkscape:grid
     type="xygrid"
     id="grid817" />
</sodipodi:namedview>







/&gt;<path
   id="path932"
   style="opacity:0.6;fill:#000000;fill-rule:evenodd;stroke:#000000;stroke-width:2;stroke-miterlimit:4;stroke-dasharray:none;stroke-linejoin:round"
   d="M 8,2 C 4.6862915,2 2,4.4624339 2,7.5 c 2.718e-4,2.3291966 1.6010564,4.405679 3.9960938,5.183594 V 13 H 4 C 3,13 3,13 2,12 v 2 h 5 v -1 -0.07617 -0.597656 -0.470703 C 5.2344508,11.342623 4.0006635,9.5513827 4,7.5 4,5.0147186 5.790861,3 8,3 c 2.209139,0 4,2.0147186 4,4.5 1.28e-4,2.0521098 -1.233825,3.844395 -3,4.357422 V 12 12.921875 14 h 1 4 v -2 c -1,1 -1,1 -2,1 H 10 V 12.683594 C 12.396578,11.906886 13.999142,9.8301254 14,7.5 14,4.4624339 11.313708,2 8,2 Z"
   sodipodi:nodetypes="sccccccccccccsccccccccccccs" />
<path
   id="path901"
   style="opacity:1;fill:#ffffff;fill-rule:evenodd;stroke:none"
   d="M 8,2 C 4.6862915,2 2,4.4624339 2,7.5 c 2.718e-4,2.3291966 1.6010564,4.405679 3.9960938,5.183594 V 13 H 4 C 3,13 3,13 2,12 v 2 h 5 v -1 -0.07617 -0.597656 -0.470703 C 5.2344508,11.342623 4.0006635,9.5513827 4,7.5 4,5.0147186 5.790861,3 8,3 c 2.209139,0 4,2.0147186 4,4.5 1.28e-4,2.0521098 -1.233825,3.844395 -3,4.357422 V 12 12.921875 14 h 1 4 v -2 c -1,1 -1,1 -2,1 H 10 V 12.683594 C 12.396578,11.906886 13.999142,9.8301254 14,7.5 14,4.4624339 11.313708,2 8,2 Z"
   sodipodi:nodetypes="sccccccccccccsccccccccccccs" />
</svg>
