<?xml version="1.0" encoding="UTF-8" standalone="no"?>
<svg
   xmlns:dc="http://purl.org/dc/elements/1.1/"
   xmlns:cc="http://creativecommons.org/ns#"
   xmlns:rdf="http://www.w3.org/1999/02/22-rdf-syntax-ns#"
   xmlns:svg="http://www.w3.org/2000/svg"
   xmlns="http://www.w3.org/2000/svg"
   xmlns:xlink="http://www.w3.org/1999/xlink"
   xmlns:sodipodi="http://sodipodi.sourceforge.net/DTD/sodipodi-0.dtd"
   xmlns:inkscape="http://www.inkscape.org/namespaces/inkscape"
   viewBox="0 0 16 16"
   version="1.1"
   id="svg4"
   sodipodi:docname="sc_matchgroup.svg"
   inkscape:export-filename="/home/jupiter007/Libreoffice yaru theme fullcolor/build/cmd/sc_matchgroup.png"
   inkscape:export-xdpi="96"
   inkscape:export-ydpi="96"
   inkscape:version="1.0.1 (3bc2e813f5, 2020-09-07)"><metadata
   id="metadata10">
  <rdf:RDF>
    <cc:Work
       rdf:about="">
      <dc:format>image/svg+xml</dc:format>
      <dc:type
         rdf:resource="http://purl.org/dc/dcmitype/StillImage" />
    </cc:Work>
  </rdf:RDF>
</metadata>
<defs
   id="defs8">
  <linearGradient
     inkscape:collect="always"
     xlink:href="#linearGradient853"
     id="linearGradient872"
     gradientUnits="userSpaceOnUse"
     gradientTransform="translate(0.9941406,-1.015625)"
     x1="8"
     y1="3"
     x2="8"
     y2="15" />
  <linearGradient
     inkscape:collect="always"
     id="linearGradient853">
    <stop
       style="stop-color:#151515;stop-opacity:1"
       offset="0"
       id="stop849" />
    <stop
       style="stop-color:#4d4d4d;stop-opacity:1"
       offset="1"
       id="stop851" />
  </linearGradient>
  <linearGradient
     inkscape:collect="always"
     xlink:href="#linearGradient853"
     id="linearGradient880"
     gradientUnits="userSpaceOnUse"
     gradientTransform="matrix(-1,0,0,1,15.005859,-1.015625)"
     x1="8"
     y1="3"
     x2="8"
     y2="15" />
  <linearGradient
     inkscape:collect="always"
     xlink:href="#linearGradient853"
     id="linearGradient867"
     gradientUnits="userSpaceOnUse"
     gradientTransform="matrix(-1,0,0,1,15.005859,-1.015625)"
     x1="8"
     y1="3"
     x2="8"
     y2="15" />
  <linearGradient
     inkscape:collect="always"
     xlink:href="#linearGradient853"
     id="linearGradient869"
     gradientUnits="userSpaceOnUse"
     gradientTransform="translate(0.9941406,-1.015625)"
     x1="8"
     y1="3"
     x2="8"
     y2="15" />
</defs>
<sodipodi:namedview
   pagecolor="#ffffff"
   bordercolor="#666666"
   borderopacity="1"
   objecttolerance="10"
   gridtolerance="10"
   guidetolerance="10"
   inkscape:pageopacity="0"
   inkscape:pageshadow="2"
   inkscape:window-width="1920"
   inkscape:window-height="1016"
   id="namedview6"
   showgrid="true"
   inkscape:zoom="29.5"
   inkscape:cx="1.9632975"
   inkscape:cy="7.4642318"
   inkscape:window-x="0"
   inkscape:window-y="27"
   inkscape:window-maximized="1"
   inkscape:current-layer="svg4"
   inkscape:document-rotation="0">
  <inkscape:grid
     type="xygrid"
     id="grid817" />
</sodipodi:namedview>

/&gt;<path
   style="fill:url(#linearGradient872);fill-opacity:1;stroke:#ffffff;stroke-width:2;stroke-linejoin:round"
   d="M 5,2 C 3.8956147,2.017358 3,2.8954777 3,4 V 6.5 C 3,6.77615 2.7761026,6.995321 2.5,7 H 2 v 1.9999996 h 0.5 c 0.2761423,0 0.5,0.225804 0.5,0.501953 v 1.5000004 1 c 0,1.104597 0.8954311,2 2,2 l 0.9941406,-0.01758 v -1 h -1 c -0.552284,0 -0.990479,-0.447783 -1,-1 v -3 c 0,-0.3824995 -0.139285,-0.735025 -0.375,-1 0.235715,-0.264974 0.381594,-0.617557 0.375,-1 v -1 -0.28125 -1.71875 c 0,-0.5522986 0.452148,-1.0693454 1,-1 h 1 v -1 z"
   id="path864" />
<path
   style="fill:url(#linearGradient869);fill-opacity:1"
   d="M 5,2 C 3.8956147,2.017358 3,2.8954777 3,4 V 6.5 C 3,6.77615 2.7761026,6.995321 2.5,7 H 2 v 1.9999996 h 0.5 c 0.2761423,0 0.5,0.225804 0.5,0.501953 v 1.5000004 1 c 0,1.104597 0.8954311,2 2,2 l 0.9941406,-0.01758 v -1 h -1 c -0.552284,0 -0.990479,-0.447783 -1,-1 v -3 c 0,-0.3824995 -0.139285,-0.735025 -0.375,-1 0.235715,-0.264974 0.381594,-0.617557 0.375,-1 v -1 -0.28125 -1.71875 c 0,-0.5522986 0.452148,-1.0693454 1,-1 h 1 v -1 z"
   id="path2-3" />
<path
   style="fill:url(#linearGradient880);fill-opacity:1;stroke:#ffffff;stroke-width:2;stroke-linejoin:round"
   d="m 11,2 c 1.104385,0.017358 2,0.8954777 2,2 v 2.5 c 0,0.27615 0.223897,0.495321 0.5,0.5 H 14 v 1.9999996 h -0.5 c -0.276142,0 -0.5,0.225804 -0.5,0.501953 v 1.5000004 1 c 0,1.104597 -0.895431,2 -2,2 l -0.994141,-0.01758 v -1 h 1 c 0.552284,0 0.990479,-0.447783 1,-1 v -3 c 0,-0.3824995 0.139285,-0.735025 0.375,-1 -0.235715,-0.264974 -0.381594,-0.617557 -0.375,-1 v -1 -0.28125 -1.71875 c 0,-0.5522986 -0.452148,-1.0693454 -1,-1 h -1 v -1 z"
   id="path874" />
<path
   style="fill:url(#linearGradient867);fill-opacity:1"
   d="m 11,2 c 1.104385,0.017358 2,0.8954777 2,2 v 2.5 c 0,0.27615 0.223897,0.495321 0.5,0.5 H 14 v 1.9999996 h -0.5 c -0.276142,0 -0.5,0.225804 -0.5,0.501953 v 1.5000004 1 c 0,1.104597 -0.895431,2 -2,2 l -0.994141,-0.01758 v -1 h 1 c 0.552284,0 0.990479,-0.447783 1,-1 v -3 c 0,-0.3824995 0.139285,-0.735025 0.375,-1 -0.235715,-0.264974 -0.381594,-0.617557 -0.375,-1 v -1 -0.28125 -1.71875 c 0,-0.5522986 -0.452148,-1.0693454 -1,-1 h -1 v -1 z"
   id="path876" />
</svg>
