<?xml version="1.0" encoding="UTF-8" standalone="no"?>
<svg
   xmlns:dc="http://purl.org/dc/elements/1.1/"
   xmlns:cc="http://creativecommons.org/ns#"
   xmlns:rdf="http://www.w3.org/1999/02/22-rdf-syntax-ns#"
   xmlns:svg="http://www.w3.org/2000/svg"
   xmlns="http://www.w3.org/2000/svg"
   xmlns:sodipodi="http://sodipodi.sourceforge.net/DTD/sodipodi-0.dtd"
   xmlns:inkscape="http://www.inkscape.org/namespaces/inkscape"
   viewBox="0 0 16 16"
   version="1.1"
   id="svg6"
   sodipodi:docname="sc_modifyframe.svg"
   inkscape:version="1.0.1 (3bc2e813f5, 2020-09-07)"
   inkscape:export-filename="/home/jupiter007/Libreoffice yaru theme fullcolor/build/cmd/sc_modifyframe.png"
   inkscape:export-xdpi="95"
   inkscape:export-ydpi="95">
  <metadata
     id="metadata12">
    <rdf:RDF>
      <cc:Work
         rdf:about="">
        <dc:format>image/svg+xml</dc:format>
        <dc:type
           rdf:resource="http://purl.org/dc/dcmitype/StillImage" />
      </cc:Work>
    </rdf:RDF>
  </metadata>
  <defs
     id="defs10" />
  <sodipodi:namedview
     pagecolor="#ffffff"
     bordercolor="#666666"
     borderopacity="1"
     objecttolerance="10"
     gridtolerance="10"
     guidetolerance="10"
     inkscape:pageopacity="0"
     inkscape:pageshadow="2"
     inkscape:window-width="1920"
     inkscape:window-height="1011"
     id="namedview8"
     showgrid="false"
     inkscape:zoom="20.85965"
     inkscape:cx="-2.0220449"
     inkscape:cy="9.1778023"
     inkscape:window-x="1920"
     inkscape:window-y="32"
     inkscape:window-maximized="1"
     inkscape:current-layer="svg6"
     inkscape:document-rotation="0" />
  <path
     id="path852"
     style="color:#000000;font-style:normal;font-variant:normal;font-weight:normal;font-stretch:normal;font-size:medium;line-height:normal;font-family:sans-serif;font-variant-ligatures:normal;font-variant-position:normal;font-variant-caps:normal;font-variant-numeric:normal;font-variant-alternates:normal;font-variant-east-asian:normal;font-feature-settings:normal;font-variation-settings:normal;text-indent:0;text-align:start;text-decoration:none;text-decoration-line:none;text-decoration-style:solid;text-decoration-color:#000000;letter-spacing:normal;word-spacing:normal;text-transform:none;writing-mode:lr-tb;direction:ltr;text-orientation:mixed;dominant-baseline:auto;baseline-shift:baseline;text-anchor:start;white-space:normal;shape-padding:0;shape-margin:0;inline-size:0;clip-rule:nonzero;display:inline;overflow:visible;visibility:visible;isolation:auto;mix-blend-mode:normal;color-interpolation:sRGB;color-interpolation-filters:linearRGB;solid-color:#000000;solid-opacity:1;vector-effect:none;fill:#000000;fill-opacity:1;fill-rule:nonzero;stroke:none;stroke-width:2;stroke-linecap:round;stroke-linejoin:round;stroke-miterlimit:4;stroke-dasharray:none;stroke-dashoffset:0;stroke-opacity:1;color-rendering:auto;image-rendering:auto;shape-rendering:auto;text-rendering:auto;enable-background:accumulate;stop-color:#000000;stop-opacity:1;opacity:0.7"
     d="M 10.371094 0 C 9.4788716 -5.5713662e-07 8.5761616 0.34152003 7.8964844 1.0214844 L 4.7988281 4.1191406 C 4.3841261 4.5340176 4.139876 5.0400578 3.9785156 5.5683594 A 1.0001 1.0001 0 0 0 3.078125 5.8398438 L 1.0175781 7.9003906 C -0.34040443 9.2583743 -0.34041546 11.493569 1.0175781 12.851562 C 2.3751683 14.209154 4.6086922 14.208355 5.9667969 12.851562 L 6.0527344 12.765625 C 5.9854811 12.296742 6.1793756 11.859436 6.5058594 11.511719 C 6.1038744 11.082931 5.8781377 10.522095 6.1210938 9.9355469 A 1.0001 1.0001 0 0 0 6.1210938 9.9335938 L 6.5839844 8.8222656 C 6.8263654 8.2371006 7.38211 7.9986456 7.96875 7.9785156 C 7.987975 7.3933206 8.2252721 6.8436564 8.8144531 6.5996094 L 9.9296875 6.1367188 C 10.520975 5.8917998 11.075635 6.115073 11.501953 6.515625 C 11.637395 6.388651 11.720151 6.19488 11.888672 6.125 C 12.163645 6.0110119 12.470559 5.9793982 12.777344 6.0410156 L 12.845703 5.9726562 C 14.204174 4.6141995 14.204168 2.3799485 12.845703 1.0214844 C 12.261736 0.437515 11.507456 0.1548707 10.742188 0.072265625 C 10.742188 0.072265625 10.740234 0.072265625 10.740234 0.072265625 A 1.0001 1.0001 0 0 0 10.371094 0 z M 10.371094 2.9765625 C 10.492085 2.9765625 10.613076 3.0329985 10.724609 3.1445312 C 10.947676 3.3675983 10.947676 3.6284957 10.724609 3.8515625 L 9.4121094 5.1621094 A 1.0001 1.0001 0 0 0 9.3300781 5.2578125 C 9.2269909 5.1172371 9.1716689 4.9529189 9.0449219 4.8261719 C 8.9250289 4.7062788 8.7898262 4.612038 8.6582031 4.5136719 A 1.0001 1.0001 0 0 0 8.6542969 4.5097656 L 10.017578 3.1445312 C 10.129111 3.0329984 10.250103 2.9765625 10.371094 2.9765625 z M 4.5175781 8.6445312 C 4.6194166 8.7827185 4.6740577 8.9435903 4.7988281 9.0683594 C 4.9234433 9.1929849 5.0587274 9.2888084 5.1914062 9.3867188 L 3.8476562 10.728516 A 1.0001 1.0001 0 0 0 3.8457031 10.728516 C 3.6226376 10.951585 3.3636955 10.951586 3.140625 10.728516 C 2.9175591 10.505449 2.9175592 10.246503 3.140625 10.023438 L 4.5175781 8.6445312 z " />
  <path
     id="rect76514"
     style="color:#000000;font-style:normal;font-variant:normal;font-weight:normal;font-stretch:normal;font-size:medium;line-height:normal;font-family:sans-serif;text-indent:0;text-align:start;text-decoration:none;text-decoration-line:none;text-decoration-style:solid;text-decoration-color:#000000;letter-spacing:normal;word-spacing:normal;text-transform:none;writing-mode:lr-tb;direction:ltr;baseline-shift:baseline;text-anchor:start;white-space:normal;clip-rule:nonzero;display:inline;overflow:visible;visibility:visible;opacity:1;isolation:auto;mix-blend-mode:normal;color-interpolation:sRGB;color-interpolation-filters:linearRGB;solid-color:#000000;solid-opacity:1;fill:#ffffff;fill-opacity:1;fill-rule:nonzero;stroke:none;stroke-width:1;stroke-linecap:round;stroke-linejoin:round;stroke-miterlimit:4;stroke-dasharray:none;stroke-dashoffset:0;stroke-opacity:1;color-rendering:auto;image-rendering:auto;shape-rendering:auto;text-rendering:auto;enable-background:accumulate"
     d="M 10.371094 1 C 9.730517 0.9999996 9.0900287 1.241797 8.6035156 1.7285156 L 5.5078125 4.8261719 C 4.5347877 5.7996072 4.5345823 7.3881081 5.5078125 8.3613281 C 5.6289924 8.4825181 5.7605073 8.5867547 5.8984375 8.6777344 L 6.6328125 7.9433594 C 6.4834625 7.8709594 6.3402338 7.7796969 6.2148438 7.6542969 C 5.6211237 7.0605769 5.6211238 6.1269332 6.2148438 5.5332031 L 9.3105469 2.4375 C 9.9042669 1.8437807 10.837921 1.843781 11.431641 2.4375 C 12.025361 3.0312201 12.025361 3.9648737 11.431641 4.5585938 L 10.119141 5.8710938 C 10.14084 5.9332425 10.143293 6.011623 10.150391 6.0859375 C 10.50982 6.0048726 10.853626 6.069426 11.154297 6.25 L 12.138672 5.265625 C 13.111902 4.2924049 13.111902 2.7017454 12.138672 1.7285156 C 11.652059 1.2419009 11.011671 0.999999 10.371094 1 z M 7.9472656 5.2148438 L 7.2128906 5.9492188 C 7.3622208 6.0216188 7.5054695 6.1148444 7.6308594 6.2402344 C 7.9704376 6.5798125 8.107459 7.0300663 8.0585938 7.4648438 C 8.1730914 7.0907786 8.4050732 6.7691802 8.8144531 6.5996094 L 8.9394531 6.546875 C 8.8227423 6.1768239 8.6302329 5.8255455 8.3378906 5.5332031 C 8.2167007 5.4120131 8.0851959 5.3058236 7.9472656 5.2148438 z M 3.7871094 6.546875 L 1.7265625 8.6074219 C 0.75334248 9.5806427 0.75333268 11.169348 1.7265625 12.142578 C 2.6997924 13.115808 4.2884887 13.115808 5.2617188 12.142578 L 6.2402344 11.164062 C 6.0202816 10.798795 5.9395067 10.373937 6.1210938 9.9355469 A 1.0001 1.0001 0 0 0 6.1210938 9.9335938 L 6.1660156 9.8242188 L 4.5546875 11.435547 C 3.9609676 12.029277 3.0273137 12.029267 2.4335938 11.435547 C 1.8398747 10.841827 1.8398749 9.9081731 2.4335938 9.3144531 L 3.9921875 7.7558594 C 3.8556969 7.3649383 3.7818494 6.957115 3.7871094 6.546875 z M 8 7.7460938 C 7.9736838 7.8289835 7.939763 7.9097456 7.8984375 7.9882812 C 7.9223217 7.9867174 7.944743 7.9793394 7.96875 7.9785156 C 7.9713623 7.8989989 7.9889992 7.8236208 8 7.7460938 z " />
  <circle
     style="opacity:1;fill:#ffffff;fill-opacity:1;stroke:none;stroke-width:2;stroke-linecap:round;stroke-linejoin:round;stroke-miterlimit:4;stroke-dasharray:none;stroke-opacity:1"
     id="path824-1"
     cx="11.5"
     cy="12.5"
     r="1.5" />
  <circle
     style="opacity:1;fill:#ffffff;fill-opacity:1;stroke:none;stroke-width:2;stroke-linecap:round;stroke-linejoin:round;stroke-miterlimit:4;stroke-dasharray:none;stroke-opacity:1"
     id="path824"
     cx="11.5"
     cy="14.5"
     r="1.5" />
  <g
     id="g1425">
    <circle
       style="fill:#ffffff;fill-opacity:1;fill-rule:evenodd;stroke:none;stroke-width:2;stroke-linecap:round;stroke-linejoin:round;stroke-miterlimit:4;stroke-dasharray:none;stroke-opacity:1"
       id="path1328"
       cx="11.5"
       cy="11.5"
       r="1.5" />
    <path
       d="m 9.3111344,7.791575 c -0.13058,0.05409 -0.188804,0.19465 -0.134715,0.325232 l 0.272166,0.657066 c -0.260199,0.195351 -0.471578,0.424352 -0.66202,0.678364 L 8.1128724,9.173184 c -0.130581,-0.05409 -0.274445,0.0055 -0.328533,0.136083 l -0.461881,1.115078 c -0.05409,0.130582 0.0055,0.274445 0.136083,0.328534 l 0.673693,0.279053 c -0.04495,0.314275 -0.05741,0.62567 -0.01156,0.947793 l -0.657066,0.272166 c -0.130581,0.05409 -0.188804,0.19465 -0.134715,0.325232 l 0.462682,1.117013 c 0.05409,0.130581 0.19465,0.188803 0.325231,0.134715 l 0.657067,-0.272166 c 0.195351,0.260198 0.424352,0.471578 0.678363,0.66202 l -0.279053,0.673693 c -0.05409,0.130583 0.0055,0.274445 0.136083,0.328533 l 1.1150786,0.461881 c 0.130582,0.05409 0.274445,-0.0055 0.328533,-0.136083 l 0.279053,-0.673693 c 0.314276,0.04495 0.625672,0.05741 0.947794,0.01156 l 0.272166,0.657067 c 0.05409,0.130582 0.19465,0.188803 0.325231,0.134715 l 1.117013,-0.462682 c 0.130582,-0.05409 0.188804,-0.19465 0.134716,-0.325231 l -0.272166,-0.657067 c 0.260198,-0.19535 0.471577,-0.424351 0.662019,-0.678363 l 0.673694,0.279053 c 0.130583,0.05409 0.274445,-0.0055 0.328533,-0.136083 l 0.461881,-1.115079 c 0.05409,-0.130583 -0.0055,-0.274445 -0.136083,-0.328533 L 14.873035,11.97334 c 0.04495,-0.314276 0.05741,-0.625672 0.01156,-0.947794 l 0.657066,-0.272166 c 0.130582,-0.05409 0.188804,-0.194649 0.134716,-0.325231 L 15.213692,9.311132 C 15.159602,9.18055 15.019042,9.122328 14.88846,9.176417 L 14.231394,9.448582 C 14.036043,9.188383 13.807042,8.977005 13.553031,8.786563 l 0.279053,-0.673694 c 0.05409,-0.130582 -0.0055,-0.274445 -0.136083,-0.328533 L 12.580922,7.322455 c -0.130583,-0.05409 -0.274445,0.0055 -0.328534,0.136083 L 11.973335,8.132232 C 11.65906,8.087282 11.347664,8.074822 11.025542,8.120672 L 10.753376,7.463606 C 10.699286,7.333024 10.558726,7.274802 10.428144,7.32889 Z m 1.7560366,2.659752 c 0.580321,-0.240377 1.246395,0.03552 1.486772,0.615841 0.240377,0.580322 -0.03552,1.246395 -0.615841,1.486772 -0.580321,0.240377 -1.246395,-0.03552 -1.486772,-0.615841 -0.240377,-0.580321 0.03552,-1.246395 0.615841,-1.486772 z"
       display="block"
       fill="url(#d)"
       stroke="url(#e)"
       stroke-linejoin="round"
       stroke-width="0.6"
       id="path42"
       style="fill:#d3d3d3;fill-opacity:1;stroke:#4d4d4d;stroke-opacity:1" />
  </g>
</svg>
