<?xml version="1.0" encoding="UTF-8" standalone="no"?>
<svg
   xmlns:dc="http://purl.org/dc/elements/1.1/"
   xmlns:cc="http://creativecommons.org/ns#"
   xmlns:rdf="http://www.w3.org/1999/02/22-rdf-syntax-ns#"
   xmlns:svg="http://www.w3.org/2000/svg"
   xmlns="http://www.w3.org/2000/svg"
   xmlns:sodipodi="http://sodipodi.sourceforge.net/DTD/sodipodi-0.dtd"
   xmlns:inkscape="http://www.inkscape.org/namespaces/inkscape"
   viewBox="0 0 16 16"
   version="1.1"
   id="svg4"
   sodipodi:docname="sc_masterlayouts.svg"
   inkscape:version="0.92.4 (5da689c313, 2019-01-14)"><metadata
   id="metadata10">
  <rdf:RDF>
    <cc:Work
       rdf:about="">
      <dc:format>image/svg+xml</dc:format>
      <dc:type
         rdf:resource="http://purl.org/dc/dcmitype/StillImage" />
    </cc:Work>
  </rdf:RDF>
</metadata>
<defs
   id="defs8" />
<sodipodi:namedview
   pagecolor="#ffffff"
   bordercolor="#666666"
   borderopacity="1"
   objecttolerance="10"
   gridtolerance="10"
   guidetolerance="10"
   inkscape:pageopacity="0"
   inkscape:pageshadow="2"
   inkscape:window-width="1920"
   inkscape:window-height="1011"
   id="namedview6"
   showgrid="true"
   inkscape:zoom="7.375"
   inkscape:cx="8.3182238"
   inkscape:cy="8.2036943"
   inkscape:window-x="0"
   inkscape:window-y="32"
   inkscape:window-maximized="1"
   inkscape:current-layer="svg4">
  <inkscape:grid
     type="xygrid"
     id="grid825" />
</sodipodi:namedview>
/&amp;gt;<path
   d="M 14,6 13.3125,6.46875 3.34375,13.125 2,14 H 3.5625 13.53125 14 V 13.5 6.875 Z m -1,2 v 5 l -7.84375,0.03125 z"
   id="path2"
   inkscape:connector-curvature="0"
   style="fill:#762572"
   sodipodi:nodetypes="cccccccccccccc" />
<path
   d="M 12.881666,5 C 12.84586,4.8056876 12.799237,4.6570235 12.73828,4.54647 12.63712,4.36302 12.52542,4.2592 12.26562,4.16165 12.00583,4.06405 11.59239,4.00185 11,4.00146 L 5,3.99746 C 4.40761,3.99707 3.99428,4.06006 3.73438,4.15765 3.47447,4.25525 3.36291,4.36099 3.26172,4.54443 3.05981,4.91043 3.0147,5.73921 3,6.99792 v 4.5e-4 1.99954 l 3,0.0021 V 10.15 L 3.691,11.61 2,10 V 6.99605 6.99237 C 2.0145,5.73398 1.9694,4.81315 2.38477,4.06028 2.59243,3.68385 2.94415,3.38695 3.38281,3.22226 3.82148,3.05757 4.34239,3 5,3 h 6 c 0.65761,0 1.17858,0.06152 1.61719,0.22626 0.43861,0.16471 0.788524,0.4616077 0.99609,0.83802 C 13.769985,4.3484583 13.861341,4.6588107 13.915165,5 Z"
   id="path2732-8-9-4"
   style="color:#000000;font-style:normal;font-variant:normal;font-weight:normal;font-stretch:normal;font-size:medium;line-height:normal;font-family:sans-serif;font-variant-ligatures:normal;font-variant-position:normal;font-variant-caps:normal;font-variant-numeric:normal;font-variant-alternates:normal;font-feature-settings:normal;text-indent:0;text-align:start;text-decoration:none;text-decoration-line:none;text-decoration-style:solid;text-decoration-color:#000000;letter-spacing:normal;word-spacing:normal;text-transform:none;writing-mode:lr-tb;direction:ltr;text-orientation:mixed;dominant-baseline:auto;baseline-shift:baseline;text-anchor:start;white-space:normal;shape-padding:0;clip-rule:nonzero;display:inline;overflow:visible;visibility:visible;opacity:1;isolation:auto;mix-blend-mode:normal;color-interpolation:sRGB;color-interpolation-filters:linearRGB;solid-color:#000000;solid-opacity:1;vector-effect:none;fill:#762572;fill-opacity:1;fill-rule:nonzero;stroke:none;stroke-width:1.00007653;stroke-linecap:butt;stroke-linejoin:miter;stroke-miterlimit:4;stroke-dasharray:none;stroke-dashoffset:0;stroke-opacity:1;marker:none;color-rendering:auto;image-rendering:auto;shape-rendering:auto;text-rendering:auto;enable-background:accumulate"
   inkscape:connector-curvature="0"
   sodipodi:nodetypes="cccsscccccccccccccsscscc" />
</svg>
