<?xml version="1.0" encoding="UTF-8" standalone="no"?>
<svg
   xmlns:dc="http://purl.org/dc/elements/1.1/"
   xmlns:cc="http://creativecommons.org/ns#"
   xmlns:rdf="http://www.w3.org/1999/02/22-rdf-syntax-ns#"
   xmlns:svg="http://www.w3.org/2000/svg"
   xmlns="http://www.w3.org/2000/svg"
   xmlns:sodipodi="http://sodipodi.sourceforge.net/DTD/sodipodi-0.dtd"
   xmlns:inkscape="http://www.inkscape.org/namespaces/inkscape"
   viewBox="0 0 16 16"
   version="1.1"
   id="svg4"
   sodipodi:docname="sc_openremote.svg"
   inkscape:version="0.92.4 (5da689c313, 2019-01-14)"
   inkscape:export-filename="/home/jupiter007/Libreoffice yaru theme/build/cmd/sc_openremote.png"
   inkscape:export-xdpi="96"
   inkscape:export-ydpi="96"><metadata
   id="metadata10">
  <rdf:RDF>
    <cc:Work
       rdf:about="">
      <dc:format>image/svg+xml</dc:format>
      <dc:type
         rdf:resource="http://purl.org/dc/dcmitype/StillImage" />
      <dc:title></dc:title>
    </cc:Work>
  </rdf:RDF>
</metadata>
<defs
   id="defs8" />
<sodipodi:namedview
   pagecolor="#ffffff"
   bordercolor="#666666"
   borderopacity="1"
   objecttolerance="10"
   gridtolerance="10"
   guidetolerance="10"
   inkscape:pageopacity="0"
   inkscape:pageshadow="2"
   inkscape:window-width="1920"
   inkscape:window-height="1011"
   id="namedview6"
   showgrid="true"
   inkscape:zoom="32"
   inkscape:cx="2.39626"
   inkscape:cy="3.3838864"
   inkscape:window-x="0"
   inkscape:window-y="32"
   inkscape:window-maximized="1"
   inkscape:current-layer="svg4">
  <inkscape:grid
     type="xygrid"
     id="grid823" />
</sodipodi:namedview>

/&gt;<path
   id="rect816"
   style="opacity:1;fill:#232629;fill-opacity:1;fill-rule:nonzero;stroke:none;stroke-width:1;stroke-linecap:round;stroke-linejoin:round;stroke-miterlimit:4;stroke-dasharray:none;stroke-dashoffset:0;stroke-opacity:1"
   d="m 3,14 h 11 v 1 H 3 Z M 5.9913391,2 C 4.7341772,2.015 3.8137908,1.971 3.0612925,2.387 2.6716657,2.60812 2.3739205,2.961396 2.2218521,3.383 2.0579614,3.821 2,4.3430001 2,5.0000001 V 9 c 0,0.658 0.057961,1.179 0.2228514,1.617 0.1638908,0.439 0.4626916,0.79 0.8394404,0.998 0.751499,0.416 1.6718854,0.37 2.9290473,0.385 H 7 v 1 h 2 v -1 h 1.008661 c 1.257162,-0.015 2.177548,0.03 2.930047,-0.385 0.375749,-0.207 0.67455,-0.56 0.83944,-0.998 C 13.942039,10.179 14,9.657 14,9 V 6.254 C 14,5.596 13.94204,5.075 13.777149,4.637 13.757159,4.582 13.729179,4.533 13.703199,4.483 L 13.676216,4.426 C 13.51459,4.0957474 13.257684,3.8216008 12.938708,3.639 12.186209,3.223 11.265823,3.269 10.008661,3.254 H 8.9663558 L 7,2 H 5.9933378 Z m 0.011992,1 H 6.5369753 L 8.3007995,4 7,5 l -1.0086609,1e-7 c -1.2571619,0.015 -2.1775483,-0.03 -2.9300466,0.385 -0.021985,0.012 -0.039973,0.03 -0.061959,0.043 v -0.428 C 2.9993335,4.4080001 3.0612925,3.994 3.1592269,3.734 3.2571619,3.474 3.3620919,3.3630001 3.5459694,3.2620001 3.9117255,3.059 4.7401732,3.015 6.0033311,3 Z M 9.464024,4.2540001 h 0.5306462 c 1.2631578,0.015 2.0906058,0.06 2.4583608,0.2619999 0.182878,0.1 0.287808,0.212 0.385743,0.4720001 C 12.936704,5.248 13.000666,5.662 13.000666,6.254 V 9 c 0,0.592 -0.06296,1.006 -0.159893,1.266 -0.09794,0.26 -0.202865,0.371 -0.386742,0.472 C 12.088274,10.94 11.261825,10.985 10.002665,11 H 5.9973351 C 4.7381746,10.985 3.9117255,10.94 3.5459694,10.738 3.3620919,10.638 3.2561626,10.526 3.1592272,10.266 3.0622918,10.006 2.9993338,9.592 2.9993338,9 V 8 c 0,-0.592 0.063957,-1.006 0.161892,-1.266 C 3.2591606,6.474 3.3640906,6.363 3.547968,6.262 3.9147235,6.059 4.7421719,6.015 6.0053298,6 H 7.5 Z"
   inkscape:connector-curvature="0" />
</svg>
