<?xml version="1.0" encoding="UTF-8" standalone="no"?>
<svg
   xmlns:dc="http://purl.org/dc/elements/1.1/"
   xmlns:cc="http://creativecommons.org/ns#"
   xmlns:rdf="http://www.w3.org/1999/02/22-rdf-syntax-ns#"
   xmlns:svg="http://www.w3.org/2000/svg"
   xmlns="http://www.w3.org/2000/svg"
   xmlns:sodipodi="http://sodipodi.sourceforge.net/DTD/sodipodi-0.dtd"
   xmlns:inkscape="http://www.inkscape.org/namespaces/inkscape"
   viewBox="0 0 16 16"
   version="1.1"
   id="svg4"
   sodipodi:docname="sc_openreadonly.svg"
   inkscape:version="0.92.4 (5da689c313, 2019-01-14)"
   inkscape:export-filename="/home/jupiter007/Libreoffice yaru theme fullcolor/build/cmd/sc_openreadonly.png"
   inkscape:export-xdpi="96"
   inkscape:export-ydpi="96"><metadata
   id="metadata10">
  <rdf:RDF>
    <cc:Work
       rdf:about="">
      <dc:format>image/svg+xml</dc:format>
      <dc:type
         rdf:resource="http://purl.org/dc/dcmitype/StillImage" />
      <dc:title />
    </cc:Work>
  </rdf:RDF>
</metadata>
<defs
   id="defs8" />
<sodipodi:namedview
   pagecolor="#ffffff"
   bordercolor="#666666"
   borderopacity="1"
   objecttolerance="10"
   gridtolerance="10"
   guidetolerance="10"
   inkscape:pageopacity="0"
   inkscape:pageshadow="2"
   inkscape:window-width="1920"
   inkscape:window-height="1011"
   id="namedview6"
   showgrid="true"
   inkscape:zoom="16"
   inkscape:cx="-10.438414"
   inkscape:cy="10.823692"
   inkscape:window-x="1920"
   inkscape:window-y="32"
   inkscape:window-maximized="1"
   inkscape:current-layer="svg4">
  <inkscape:grid
     type="xygrid"
     id="grid823" />
</sodipodi:namedview>


/&gt;<path
   sodipodi:nodetypes="sccccccccccsscccccsscs"
   inkscape:connector-curvature="0"
   id="path820"
   d="m 2.9993337,5.0027646 c 0,-0.592 0.061959,-1.0060001 0.1598934,-1.2660001 0.097935,-0.26 0.202865,-0.3709999 0.3867425,-0.4719999 C 3.9117257,3.0617645 4.7291249,3.0027645 6.0033313,3.0027645 h 0.5336442 l 1.7638243,1 0.4602004,0.254 h 0.703024 l 0.5306462,1e-7 c 1.2631576,0.015 2.0906056,0.06 2.4583606,0.2619999 0.182878,0.1 0.287808,0.212 0.385743,0.4720001 0.09793,0.2599999 0.161892,0.6739999 0.161892,1.2659999 v 2.746 c 0,0.592 -0.06296,1.0060005 -0.159893,1.2660005 -0.09794,0.26 -0.202864,0.371 -0.386742,0.472 -0.365757,0.202 -1.192206,0.247 -2.451366,0.262 H 5.9973353 c -1.2591605,-0.015 -2.0856096,-0.06 -2.4513657,-0.262 -0.1838775,-0.1 -0.2898068,-0.212 -0.3867422,-0.472 -0.096935,-0.26 -0.1598934,-0.6740005 -0.1598934,-1.2660005 v -1 z"
   style="color:#000000;font-weight:400;line-height:normal;font-family:sans-serif;font-variant-ligatures:none;font-variant-position:normal;font-variant-caps:normal;font-variant-numeric:normal;font-variant-alternates:normal;font-feature-settings:normal;text-indent:0;text-align:start;text-decoration:none;text-decoration-line:none;text-decoration-style:solid;text-decoration-color:#000000;text-transform:none;white-space:normal;shape-padding:0;overflow:visible;opacity:0.4;isolation:auto;mix-blend-mode:normal;fill:#000000;fill-opacity:1;stroke:#000000;stroke-width:2;stroke-miterlimit:4;stroke-dasharray:none;stroke-opacity:1;marker:none" />
<path
   style="color:#000000;font-weight:400;line-height:normal;font-family:sans-serif;font-variant-ligatures:none;font-variant-position:normal;font-variant-caps:normal;font-variant-numeric:normal;font-variant-alternates:normal;font-feature-settings:normal;text-indent:0;text-align:start;text-decoration:none;text-decoration-line:none;text-decoration-style:solid;text-decoration-color:#000000;text-transform:none;white-space:normal;shape-padding:0;overflow:visible;isolation:auto;mix-blend-mode:normal;fill:#dfdfdf;fill-opacity:1;stroke-width:0.99966687;marker:none"
   d="m 2.9993337,5.0027646 c 0,-0.592 0.061959,-1.0060001 0.1598934,-1.2660001 0.097935,-0.26 0.202865,-0.3709999 0.3867425,-0.4719999 C 3.9117257,3.0617645 4.7291249,3.0027645 6.0033313,3.0027645 h 0.5336442 l 1.7638243,1 0.4602004,0.254 h 0.703024 l 0.5306462,1e-7 c 1.2631576,0.015 2.0906056,0.06 2.4583606,0.2619999 0.182878,0.1 0.287808,0.212 0.385743,0.4720001 0.09793,0.2599999 0.161892,0.6739999 0.161892,1.2659999 v 2.746 c 0,0.592 -0.06296,1.0060005 -0.159893,1.2660005 -0.09794,0.26 -0.202864,0.371 -0.386742,0.472 -0.365757,0.202 -1.192206,0.247 -2.451366,0.262 H 5.9973353 c -1.2591605,-0.015 -2.0856096,-0.06 -2.4513657,-0.262 -0.1838775,-0.1 -0.2898068,-0.212 -0.3867422,-0.472 -0.096935,-0.26 -0.1598934,-0.6740005 -0.1598934,-1.2660005 v -1 z"
   id="path2"
   inkscape:connector-curvature="0"
   sodipodi:nodetypes="sccccccccccsscccccsscs" />
<rect
   style="opacity:0.4;vector-effect:none;fill:#000000;fill-opacity:1;stroke:none;stroke-width:1.27272725;stroke-linecap:round;stroke-linejoin:round;stroke-miterlimit:4;stroke-dasharray:none;stroke-dashoffset:0;stroke-opacity:1"
   id="rect2081-2"
   width="6"
   height="7"
   x="6.0000005"
   y="7.0027647"
   ry="1"
   rx="1.2727273" />
<rect
   style="opacity:1;vector-effect:none;fill:#ffffff;fill-opacity:1;stroke:none;stroke-width:1.27272725;stroke-linecap:round;stroke-linejoin:round;stroke-miterlimit:4;stroke-dasharray:none;stroke-dashoffset:0;stroke-opacity:1"
   id="rect2085-9"
   width="4"
   height="5"
   x="7.0000005"
   y="8.0027647"
   rx="0"
   ry="1" />
<rect
   style="opacity:0.2;vector-effect:none;fill:#000000;fill-opacity:1;stroke:none;stroke-width:1.27272725;stroke-linecap:round;stroke-linejoin:round;stroke-miterlimit:4;stroke-dasharray:none;stroke-dashoffset:0;stroke-opacity:1"
   id="rect2100-3"
   width="2"
   height="1"
   x="8"
   y="9.0027647" />
<rect
   style="opacity:0.2;vector-effect:none;fill:#000000;fill-opacity:1;stroke:none;stroke-width:1.27272725;stroke-linecap:round;stroke-linejoin:round;stroke-miterlimit:4;stroke-dasharray:none;stroke-dashoffset:0;stroke-opacity:1"
   id="rect2102-1"
   width="1"
   height="1"
   x="8"
   y="11.002765" />
</svg>
