<?xml version="1.0" encoding="UTF-8" standalone="no"?>
<svg
   xmlns:dc="http://purl.org/dc/elements/1.1/"
   xmlns:cc="http://creativecommons.org/ns#"
   xmlns:rdf="http://www.w3.org/1999/02/22-rdf-syntax-ns#"
   xmlns:svg="http://www.w3.org/2000/svg"
   xmlns="http://www.w3.org/2000/svg"
   xmlns:sodipodi="http://sodipodi.sourceforge.net/DTD/sodipodi-0.dtd"
   xmlns:inkscape="http://www.inkscape.org/namespaces/inkscape"
   viewBox="0 0 16 16"
   version="1.1"
   id="svg6"
   sodipodi:docname="sc_outputqualitycolor.svg"
   inkscape:export-filename="/home/jupiter007/Libreoffice yaru theme fullcolor/build/cmd/sc_outputqualitycolor.png"
   inkscape:export-xdpi="96"
   inkscape:export-ydpi="96"
   inkscape:version="1.0.1 (3bc2e813f5, 2020-09-07)">
  <metadata
     id="metadata12">
    <rdf:RDF>
      <cc:Work
         rdf:about="">
        <dc:format>image/svg+xml</dc:format>
        <dc:type
           rdf:resource="http://purl.org/dc/dcmitype/StillImage" />
      </cc:Work>
    </rdf:RDF>
  </metadata>
  <defs
     id="defs10" />
  <sodipodi:namedview
     pagecolor="#ffffff"
     bordercolor="#666666"
     borderopacity="1"
     objecttolerance="10"
     gridtolerance="10"
     guidetolerance="10"
     inkscape:pageopacity="0"
     inkscape:pageshadow="2"
     inkscape:window-width="1920"
     inkscape:window-height="1011"
     id="namedview8"
     showgrid="true"
     inkscape:zoom="41.7193"
     inkscape:cx="11.423385"
     inkscape:cy="8.4389325"
     inkscape:window-x="0"
     inkscape:window-y="0"
     inkscape:window-maximized="1"
     inkscape:current-layer="svg6"
     inkscape:document-rotation="0">
    <inkscape:grid
       type="xygrid"
       id="grid834" />
  </sodipodi:namedview>
  <path
     sodipodi:nodetypes="cccscsccccccccscscccccc"
     inkscape:connector-curvature="0"
     id="path4237-1-5"
     d="M 4.994116,0.961859 C 3.735916,0.976359 2.815225,0.931259 2.062475,1.346625 1.686105,1.554285 1.389244,1.906012 1.224584,2.344671 1.059914,2.783341 0.999975,3.304259 0.999975,3.961859 V 5.45014 9.000582 c 0,0.65761 0.0599,1.178579 0.224609,1.617189 0.16468,0.438611 0.461531,0.788525 0.837891,0.996094 0.75272,0.415129 1.673541,0.371648 2.931641,0.386718 h 0.002 6.005859 0.0039 c 1.25819,-0.0145 2.178891,0.0306 2.931641,-0.384765 0.37637,-0.207661 0.673221,-0.559386 0.837891,-0.998046 0.164539,-0.438673 0.224618,-0.959579 0.224618,-1.61719 V 5.428656 3.961859 c 0,-0.6576 -0.0599,-1.178578 -0.224609,-1.617188 -0.16468,-0.4386 -0.461531,-0.788533 -0.837891,-0.996093 -0.75277,-0.41513 -1.673601,-0.371639 -2.931691,-0.386719 h -0.002 -6.005859 z"
     style="font-style:normal;font-variant:normal;font-weight:normal;font-stretch:normal;font-size:15px;line-height:125%;font-family:Ubuntu;-inkscape-font-specification:Ubuntu;text-align:center;letter-spacing:0px;word-spacing:0px;writing-mode:lr-tb;text-anchor:middle;display:inline;opacity:1;fill:#6d6d6d;fill-opacity:1;stroke:none;stroke-width:1;stroke-miterlimit:4;stroke-dasharray:none" />
  <path
     id="rect3830-9-0"
     style="opacity:1;vector-effect:none;fill:#31c6b7;fill-opacity:1;stroke:none;stroke-width:2;stroke-linecap:round;stroke-linejoin:round;stroke-miterlimit:4;stroke-dasharray:none;stroke-dashoffset:0;stroke-opacity:1"
     d="m 2.039062,8 c 0.00404,0.4752891 0.00661,0.8789856 0.021485,1.6445312 0.0391,0.4619278 0.203014,1.0111098 0.699219,1.1621098 C 3.166617,10.951434 3.582313,10.962374 4,10.958984 V 8 Z" />
  <path
     id="rect3830-0-7-7"
     style="opacity:1;vector-effect:none;fill:#76c22b;fill-opacity:1;stroke:none;stroke-width:2;stroke-linecap:round;stroke-linejoin:round;stroke-miterlimit:4;stroke-dasharray:none;stroke-dashoffset:0;stroke-opacity:1"
     d="m 4,8 v 2.958984 c 0.231613,-0.0019 0.462797,-0.0093 0.695312,0.002 1.100872,0.0053 2.2025,0.0082 3.304688,0.0098 V 8 Z" />
  <path
     id="rect3830-2-3-8"
     style="opacity:1;vector-effect:none;fill:#ffda64;fill-opacity:1;stroke:none;stroke-width:2;stroke-linecap:round;stroke-linejoin:round;stroke-miterlimit:4;stroke-dasharray:none;stroke-dashoffset:0;stroke-opacity:1"
     d="m 8,8 v 2.970703 c 0.323751,4.55e-4 0.646971,0.0019 0.970703,0.002 1.661678,3.4e-4 1.468528,-0.0048 3.029297,-0.01758 V 8 Z" />
  <path
     id="rect3830-3-6-6"
     style="opacity:1;vector-effect:none;fill:#fb7c38;fill-opacity:1;stroke:none;stroke-width:2;stroke-linecap:round;stroke-linejoin:round;stroke-miterlimit:4;stroke-dasharray:none;stroke-dashoffset:0;stroke-opacity:1"
     d="m 12,8 v 2.955078 c 0.04025,-3.29e-4 0.03542,3.4e-4 0.07813,0 0.511911,-0.01201 1.184892,0.01887 1.585937,-0.40625 0.421097,-0.539783 0.286594,-1.2685308 0.322266,-1.9042968 0.0014,-0.2922544 5.4e-4,-0.4010949 0.002,-0.6445312 z" />
  <path
     id="rect3830-29-8"
     style="opacity:1;vector-effect:none;fill:#5bdbc1;fill-opacity:1;stroke:none;stroke-width:2;stroke-linecap:round;stroke-linejoin:round;stroke-miterlimit:4;stroke-dasharray:none;stroke-dashoffset:0;stroke-opacity:1"
     d="m 2.041016,4 c 0.0026,0.2420862 0.01156,0.484454 -0.00195,0.71875 -0.00519,1.5289532 -0.00804,2.3351941 0,3.28125 H 4 V 4 Z" />
  <rect
     style="opacity:1;vector-effect:none;fill:#a6d74f;fill-opacity:1;stroke:none;stroke-width:2;stroke-linecap:round;stroke-linejoin:round;stroke-miterlimit:4;stroke-dasharray:none;stroke-dashoffset:0;stroke-opacity:1"
     id="rect3830-0-3-8"
     width="4"
     height="4"
     x="4"
     y="4" />
  <rect
     style="opacity:1;vector-effect:none;fill:#fee581;fill-opacity:1;stroke:none;stroke-width:2;stroke-linecap:round;stroke-linejoin:round;stroke-miterlimit:4;stroke-dasharray:none;stroke-dashoffset:0;stroke-opacity:1"
     id="rect3830-2-1-4"
     width="4"
     height="4"
     x="8"
     y="4" />
  <path
     id="rect3830-3-9-3"
     style="opacity:1;vector-effect:none;fill:#fda463;fill-opacity:1;stroke:none;stroke-width:2;stroke-linecap:round;stroke-linejoin:round;stroke-miterlimit:4;stroke-dasharray:none;stroke-dashoffset:0;stroke-opacity:1"
     d="m 12,4 v 4 h 1.988281 c 0.0088,-1.5097225 0.01062,-2.5308369 -0.01367,-4 z" />
  <path
     id="rect3830-78-1"
     style="opacity:1;vector-effect:none;fill:#81e9c0;fill-opacity:1;stroke:none;stroke-width:2;stroke-linecap:round;stroke-linejoin:round;stroke-miterlimit:4;stroke-dasharray:none;stroke-dashoffset:0;stroke-opacity:1"
     d="m 4,2.0175781 c -0.21989,0.00453 -0.440405,0.0026 -0.660156,0.00977 C 2.878615,2.0700138 2.324699,2.2347332 2.185547,2.7382812 2.045717,3.1439551 2.036425,3.5723988 2.041016,4 H 4 Z" />
  <path
     id="rect3830-0-4-4"
     style="opacity:1;vector-effect:none;fill:#cbe667;fill-opacity:1;stroke:none;stroke-width:2;stroke-linecap:round;stroke-linejoin:round;stroke-miterlimit:4;stroke-dasharray:none;stroke-dashoffset:0;stroke-opacity:1"
     d="M 8,1.9882812 C 6.66411,1.99755 5.331036,1.9901607 4,2.0175781 V 4 h 4 z" />
  <path
     id="rect3830-2-5-9"
     style="opacity:1;vector-effect:none;fill:#fff4c9;fill-opacity:1;stroke:none;stroke-width:2;stroke-linecap:round;stroke-linejoin:round;stroke-miterlimit:4;stroke-dasharray:none;stroke-dashoffset:0;stroke-opacity:1"
     d="M 8,1.9882812 V 4 h 4 V 2.0058594 C 11.752452,2.0079272 11.503485,2.0128705 11.263672,2 9.509265,1.9882 9.754439,1.9871913 8,1.9882812 Z" />
  <path
     id="rect3830-3-0-2"
     style="opacity:1;vector-effect:none;fill:#fec589;fill-opacity:1;stroke:none;stroke-width:2;stroke-linecap:round;stroke-linejoin:round;stroke-miterlimit:4;stroke-dasharray:none;stroke-dashoffset:0;stroke-opacity:1"
     d="M 12,2.0058594 V 4 h 1.974609 c -0.0046,-0.2752662 -0.0029,-0.4102181 -0.0098,-0.75 C 13.915564,2.84796 13.793819,2.3866011 13.388672,2.2050781 12.949504,2.0117767 12.474737,2.0018937 12,2.0058594 Z" />
  <path
     style="color:#000000;overflow:visible;fill:#6d6d6d;fill-opacity:1;marker:none"
     d="m 6,12 v 0.5 C 6,14 5.5,14 4.5,14 H 4 v 1 h 8 V 14 H 11.5 C 10.5,14 10,14 10,12.5 V 12 Z"
     id="path4"
     inkscape:connector-curvature="0" />
  <path
     d="m 11,4 c -0.552287,0 -1,0.447713 -1,1 0,0.552286 0.447713,1 1,1 0.552287,0 1,-0.447714 1,-1 0,-0.552287 -0.447713,-1 -1,-1 z"
     id="path4527-0-3-7"
     style="color:#000000;display:inline;overflow:visible;visibility:visible;fill:#232629;fill-opacity:1;fill-rule:nonzero;stroke:none;stroke-width:3.99921;marker:none;enable-background:accumulate" />
  <path
     d="M 6.5,5 4,10 H 6.21817 11 L 9,6 8,7.5 Z"
     id="path4156-2-1-6"
     style="color:#000000;display:inline;overflow:visible;visibility:visible;fill:#232629;fill-opacity:1;fill-rule:nonzero;stroke:none;stroke-width:5.99881;marker:none;enable-background:accumulate"
     sodipodi:nodetypes="ccccccc" />
</svg>
