<?xml version="1.0" encoding="UTF-8" standalone="no"?>
<svg
   xmlns:dc="http://purl.org/dc/elements/1.1/"
   xmlns:cc="http://creativecommons.org/ns#"
   xmlns:rdf="http://www.w3.org/1999/02/22-rdf-syntax-ns#"
   xmlns:svg="http://www.w3.org/2000/svg"
   xmlns="http://www.w3.org/2000/svg"
   xmlns:sodipodi="http://sodipodi.sourceforge.net/DTD/sodipodi-0.dtd"
   xmlns:inkscape="http://www.inkscape.org/namespaces/inkscape"
   viewBox="0 0 16 16"
   version="1.1"
   id="svg4"
   sodipodi:docname="sc_openreadonly.svg"
   inkscape:version="0.92.4 (5da689c313, 2019-01-14)"
   inkscape:export-filename="/home/jupiter007/Libreoffice yaru theme/build/cmd/sc_openreadonly.png"
   inkscape:export-xdpi="96"
   inkscape:export-ydpi="96"><metadata
   id="metadata10">
  <rdf:RDF>
    <cc:Work
       rdf:about="">
      <dc:format>image/svg+xml</dc:format>
      <dc:type
         rdf:resource="http://purl.org/dc/dcmitype/StillImage" />
      <dc:title></dc:title>
    </cc:Work>
  </rdf:RDF>
</metadata>
<defs
   id="defs8" />
<sodipodi:namedview
   pagecolor="#ffffff"
   bordercolor="#666666"
   borderopacity="1"
   objecttolerance="10"
   gridtolerance="10"
   guidetolerance="10"
   inkscape:pageopacity="0"
   inkscape:pageshadow="2"
   inkscape:window-width="1920"
   inkscape:window-height="1011"
   id="namedview6"
   showgrid="true"
   inkscape:zoom="32"
   inkscape:cx="-3.1535989"
   inkscape:cy="12.661715"
   inkscape:window-x="0"
   inkscape:window-y="32"
   inkscape:window-maximized="1"
   inkscape:current-layer="svg4">
  <inkscape:grid
     type="xygrid"
     id="grid823" />
</sodipodi:namedview>

/&gt;<path
   inkscape:connector-curvature="0"
   d="M 5.9913391,3 C 4.7341772,3.015 3.8137908,2.971 3.0612925,3.387 2.6716657,3.60812 2.3739205,3.961396 2.2218521,4.383 2.0579614,4.821 2,5.3430001 2,6.0000001 V 10 c 0,0.658 0.057961,1.179 0.2228514,1.617 0.1638908,0.439 0.4626916,0.79 0.8394404,0.998 0.751499,0.416 1.6718854,0.37 2.9290473,0.385 h 4.0173219 c 1.257162,-0.015 2.177548,0.03 2.930047,-0.385 0.375749,-0.207 0.67455,-0.56 0.83944,-0.998 C 13.942039,11.179 14,10.657 14,10 V 7.254 C 14,6.596 13.94204,6.075 13.777149,5.637 13.757159,5.582 13.729179,5.533 13.703199,5.483 L 13.676216,5.426 C 13.51459,5.0957474 13.257684,4.8216008 12.938708,4.639 12.186209,4.223 11.265823,4.269 10.008661,4.254 H 8.9663558 L 7,3 H 5.9933378 Z m 0.011992,1 H 6.5369753 L 8.3007995,5 7,6 l -1.0086609,1e-7 c -1.2571619,0.015 -2.1775483,-0.03 -2.9300466,0.385 -0.021985,0.012 -0.039973,0.03 -0.061959,0.043 v -0.428 C 2.9993335,5.4080001 3.0612925,4.994 3.1592269,4.734 3.2571619,4.474 3.3620919,4.3630001 3.5459694,4.2620001 3.9117255,4.059 4.7401732,4.015 6.0033311,4 Z M 9.464024,5.2540001 h 0.5306462 c 1.2631578,0.015 2.0906058,0.06 2.4583608,0.2619999 0.182878,0.1 0.287808,0.212 0.385743,0.4720001 C 12.936704,6.248 13.000666,6.662 13.000666,7.254 V 10 c 0,0.592 -0.06296,1.006 -0.159893,1.266 -0.09794,0.26 -0.202865,0.371 -0.386742,0.472 C 12.088274,11.94 11.261825,11.985 10.002665,12 H 5.9973351 C 4.7381746,11.985 3.9117255,11.94 3.5459694,11.738 3.3620919,11.638 3.2561626,11.526 3.1592272,11.266 3.0622918,11.006 2.9993338,10.592 2.9993338,10 V 9 c 0,-0.592 0.063957,-1.006 0.161892,-1.266 C 3.2591606,7.474 3.3640906,7.363 3.547968,7.262 3.9147235,7.059 4.7421719,7.015 6.0053298,7 H 7.5 Z"
   font-weight="400"
   overflow="visible"
   style="color:#000000;font-weight:400;line-height:normal;font-family:sans-serif;font-variant-ligatures:none;font-variant-position:normal;font-variant-caps:normal;font-variant-numeric:normal;font-variant-alternates:normal;font-feature-settings:normal;text-indent:0;text-align:start;text-decoration:none;text-decoration-line:none;text-decoration-style:solid;text-decoration-color:#000000;text-transform:none;white-space:normal;shape-padding:0;overflow:visible;isolation:auto;mix-blend-mode:normal;fill:#b3b3b3;fill-opacity:1;stroke-width:0.99966687;marker:none"
   id="path2"
   sodipodi:nodetypes="cccssccccccssccccccccccccccccsscccccssscccccsssscccc" />
</svg>
