<?xml version="1.0" encoding="UTF-8" standalone="no"?>
<svg
   xmlns:dc="http://purl.org/dc/elements/1.1/"
   xmlns:cc="http://creativecommons.org/ns#"
   xmlns:rdf="http://www.w3.org/1999/02/22-rdf-syntax-ns#"
   xmlns:svg="http://www.w3.org/2000/svg"
   xmlns="http://www.w3.org/2000/svg"
   xmlns:sodipodi="http://sodipodi.sourceforge.net/DTD/sodipodi-0.dtd"
   xmlns:inkscape="http://www.inkscape.org/namespaces/inkscape"
   viewBox="0 0 16 16"
   version="1.1"
   id="svg6"
   sodipodi:docname="sc_printdefault.svg"
   inkscape:export-filename="/home/jupiter007/AA.PNG"
   inkscape:export-xdpi="95"
   inkscape:export-ydpi="95"
   inkscape:version="0.92.4 (5da689c313, 2019-01-14)">
  <metadata
     id="metadata12">
    <rdf:RDF>
      <cc:Work
         rdf:about="">
        <dc:format>image/svg+xml</dc:format>
        <dc:type
           rdf:resource="http://purl.org/dc/dcmitype/StillImage" />
      </cc:Work>
    </rdf:RDF>
  </metadata>
  <defs
     id="defs10" />
  <sodipodi:namedview
     pagecolor="#ffffff"
     bordercolor="#666666"
     borderopacity="1"
     objecttolerance="10"
     gridtolerance="10"
     guidetolerance="10"
     inkscape:pageopacity="0"
     inkscape:pageshadow="2"
     inkscape:window-width="1920"
     inkscape:window-height="1011"
     id="namedview8"
     showgrid="true"
     inkscape:zoom="32"
     inkscape:cx="-1.1960214"
     inkscape:cy="5.7055411"
     inkscape:window-x="0"
     inkscape:window-y="32"
     inkscape:window-maximized="1"
     inkscape:current-layer="svg6">
    <inkscape:grid
       type="xygrid"
       id="grid839" />
  </sodipodi:namedview>
  <path
     style="fill:#762572;stroke:none;stroke-width:1px;stroke-linecap:butt;stroke-linejoin:miter;stroke-opacity:1;fill-opacity:1"
     d="m 10,10 4,2 -4,2 z"
     id="path841"
     inkscape:connector-curvature="0" />
  <path
     id="path814"
     style="opacity:1;fill:#232629;fill-opacity:1;fill-rule:nonzero;stroke:none;stroke-width:1;stroke-linecap:round;stroke-linejoin:round;stroke-miterlimit:4;stroke-dasharray:none;stroke-dashoffset:0;stroke-opacity:1"
     d="M 11,7.5 A 0.5,0.5 0 0 1 10.5,8 0.5,0.5 0 0 1 10,7.5 0.5,0.5 0 0 1 10.5,7 0.5,0.5 0 0 1 11,7.5 Z M 5,1.9999998 v 3.025 c -0.75,0.018 -1.41,0.07 -1.937,0.36 -0.3893852,0.2221175 -0.6865859,0.5760631 -0.838,0.998 -0.165,0.439 -0.225,1.617 -0.225,1.617 v 1 c 0,0 0.06,1.2770002 0.225,1.7150002 0.164,0.439 0.461,0.79 0.838,0.998 C 3.345,11.869 3.662,11.947 4,12 V 10.975 C 3.8423418,10.95121 3.6890365,10.90438 3.545,10.836 3.362,10.736 3.258,10.624 3.16,10.364 3.063,10.104 3,8.9999998 3,8.9999998 v -1 c 0,0 0.063,-1.006 0.16,-1.266 0.098,-0.26 0.202,-0.371 0.385,-0.472 0.365,-0.202 1.195,-0.247 2.455,-0.262 h 4 c 1.259,0.015 2.087,0.06 2.453,0.262 0.184,0.101 0.29,0.213 0.387,0.472 0.097,0.26 0.16,1.266 0.16,1.266 V 10 h 1 v -1.0000002 -1 c 0,0 -0.06,-1.178 -0.225,-1.617 -0.151163,-0.4217764 -0.447991,-0.7756996 -0.837,-0.998 -0.527,-0.29 -1.188,-0.342 -1.938,-0.36 v -3.025 z m 1,1 h 4 v 2 H 6 Z m -1,7 V 14 H 9 V 13 H 6 V 9.9999998 Z M 7,12 v -1 h 2 v 1 z" />
</svg>
