<?xml version="1.0" encoding="UTF-8" standalone="no"?>
<svg
   viewBox="0 0 16 16"
   version="1.1"
   id="svg6"
   sodipodi:docname="sc_preformattedparastyle.svg"
   inkscape:export-filename="/home/jupiter007/Libreoffice yaru theme fullcolor/build/cmd/sc_preformattedparastyle.png"
   inkscape:export-xdpi="95"
   inkscape:export-ydpi="95"
   inkscape:version="1.1 (ce6663b3b7, 2021-05-25)"
   xmlns:inkscape="http://www.inkscape.org/namespaces/inkscape"
   xmlns:sodipodi="http://sodipodi.sourceforge.net/DTD/sodipodi-0.dtd"
   xmlns:xlink="http://www.w3.org/1999/xlink"
   xmlns="http://www.w3.org/2000/svg"
   xmlns:svg="http://www.w3.org/2000/svg"
   xmlns:rdf="http://www.w3.org/1999/02/22-rdf-syntax-ns#"
   xmlns:cc="http://creativecommons.org/ns#"
   xmlns:dc="http://purl.org/dc/elements/1.1/">
  <path
     id="path4"
     style="fill:#e95420;fill-opacity:1"
     d="M 13 8 C 11.895431 8 11 8.8954305 11 10 C 11 11.104569 11.895431 12 13 12 L 13 15 L 14 15 L 14 9 L 15 9 L 15 15 L 16 15 L 16 8 L 15 8 L 14 8 L 13 8 z " />
  <metadata
     id="metadata12">
    <rdf:RDF>
      <cc:Work
         rdf:about="">
        <dc:format>image/svg+xml</dc:format>
        <dc:type
           rdf:resource="http://purl.org/dc/dcmitype/StillImage" />
      </cc:Work>
    </rdf:RDF>
  </metadata>
  <defs
     id="defs10">
    <linearGradient
       inkscape:collect="always"
       id="linearGradient839">
      <stop
         style="stop-color:#151515;stop-opacity:1"
         offset="0"
         id="stop835" />
      <stop
         style="stop-color:#4d4d4d;stop-opacity:1"
         offset="1"
         id="stop837" />
    </linearGradient>
    <linearGradient
       inkscape:collect="always"
       xlink:href="#linearGradient839"
       id="linearGradient841"
       x1="7"
       y1="2"
       x2="7"
       y2="14"
       gradientUnits="userSpaceOnUse" />
  </defs>
  <sodipodi:namedview
     pagecolor="#808080"
     bordercolor="#666666"
     borderopacity="1"
     objecttolerance="10"
     gridtolerance="10"
     guidetolerance="10"
     inkscape:pageopacity="0"
     inkscape:pageshadow="2"
     inkscape:window-width="1920"
     inkscape:window-height="1016"
     id="namedview8"
     showgrid="true"
     inkscape:zoom="41.7193"
     inkscape:cx="5.8366272"
     inkscape:cy="8.8088726"
     inkscape:window-x="0"
     inkscape:window-y="27"
     inkscape:window-maximized="1"
     inkscape:current-layer="svg6"
     inkscape:document-rotation="0"
     inkscape:pagecheckerboard="0">
    <inkscape:grid
       type="xygrid"
       id="grid833" />
  </sodipodi:namedview>
  <path
     style="fill:#000000;stroke:#ffffff;opacity:1;stroke-width:2;stroke-miterlimit:4;stroke-dasharray:none;stroke-linejoin:round;stroke-opacity:1"
     id="path822"
     fill="#232629"
     d="m9.0898438 2-3.1464844 11.740234.9667968.259766 3.1464848-11.7402344zm-3.8046876 2-2.9609374 3.1445312-.3242188.3476563.3242188.3476563 2.9433593 3.1621092.7148438-.695312-2.6210938-2.8144535 2.6386719-2.796875z" />
  <path
     d="m9.0898438 2-3.1464844 11.740234.9667968.259766 3.1464848-11.7402344zm-3.8046876 2-2.9609374 3.1445312-.3242188.3476563.3242188.3476563 2.9433593 3.1621092.7148438-.695312-2.6210938-2.8144535 2.6386719-2.796875z"
     fill="#232629"
     id="path2"
     style="fill:url(#linearGradient841);fill-opacity:1" />
</svg>
