<?xml version="1.0" encoding="UTF-8" standalone="no"?>
<svg
   xmlns:dc="http://purl.org/dc/elements/1.1/"
   xmlns:cc="http://creativecommons.org/ns#"
   xmlns:rdf="http://www.w3.org/1999/02/22-rdf-syntax-ns#"
   xmlns:svg="http://www.w3.org/2000/svg"
   xmlns="http://www.w3.org/2000/svg"
   xmlns:xlink="http://www.w3.org/1999/xlink"
   xmlns:sodipodi="http://sodipodi.sourceforge.net/DTD/sodipodi-0.dtd"
   xmlns:inkscape="http://www.inkscape.org/namespaces/inkscape"
   viewBox="0 0 16 16"
   version="1.1"
   id="svg4"
   sodipodi:docname="sc_pasteaslink.svg"
   inkscape:version="1.0.2 (e86c870879, 2021-01-15)"
   inkscape:export-filename="/home/jupiter007/Libreoffice yaru theme fullcolor/build/cmd/sc_pasteunformatted.png"
   inkscape:export-xdpi="95"
   inkscape:export-ydpi="95">
  <metadata
     id="metadata10">
    <rdf:RDF>
      <cc:Work
         rdf:about="">
        <dc:format>image/svg+xml</dc:format>
        <dc:type
           rdf:resource="http://purl.org/dc/dcmitype/StillImage" />
        <dc:title></dc:title>
      </cc:Work>
    </rdf:RDF>
  </metadata>
  <defs
     id="defs8">
    <linearGradient
       inkscape:collect="always"
       xlink:href="#linearGradient836"
       id="linearGradient838"
       x1="8"
       y1="2"
       x2="8"
       y2="14"
       gradientUnits="userSpaceOnUse"
       gradientTransform="rotate(90,5.5181822,9.4141832)" />
    <linearGradient
       inkscape:collect="always"
       id="linearGradient836">
      <stop
         style="stop-color:#151515;stop-opacity:1"
         offset="0"
         id="stop832" />
      <stop
         style="stop-color:#4d4d4d;stop-opacity:1"
         offset="1"
         id="stop834" />
    </linearGradient>
  </defs>
  <sodipodi:namedview
     pagecolor="#ffffff"
     bordercolor="#666666"
     borderopacity="1"
     objecttolerance="10"
     gridtolerance="10"
     guidetolerance="10"
     inkscape:pageopacity="0"
     inkscape:pageshadow="2"
     inkscape:window-width="1920"
     inkscape:window-height="1016"
     id="namedview6"
     showgrid="true"
     inkscape:zoom="29.5"
     inkscape:cx="2.0244515"
     inkscape:cy="9.2139628"
     inkscape:window-x="0"
     inkscape:window-y="27"
     inkscape:window-maximized="1"
     inkscape:current-layer="svg4"
     inkscape:document-rotation="0">
    <inkscape:grid
       type="xygrid"
       id="grid846" />
  </sodipodi:namedview>
  <path
     inkscape:connector-curvature="0"
     style="opacity:0.7;vector-effect:none;fill:#000000;fill-opacity:1;stroke:none;stroke-width:2;stroke-linecap:round;stroke-linejoin:round;stroke-miterlimit:4;stroke-dasharray:none;stroke-dashoffset:0;stroke-opacity:1"
     d="m 9.0000003,1e-7 c -0.554,0 -1,0.4459999 -1,0.9999999 h -2 c -1.108,0 -2,0.8920005 -2,2.0000006 v 8.9999994 c 0,1.108 0.892,2 2,2 h 3 4.9999997 c 1.106228,0 2,-0.889291 2,-2 v -7.0000005 -1.9999999 c 0,-1.1079991 -0.892,-1.9999996 -2,-1.9999996 h -2 c 0,-0.5540001 -0.445999,-1.00000005 -1,-1.00000005 z"
     id="rect9566"
     sodipodi:nodetypes="scssssccccsscss" />
  <rect
     style="opacity:1;vector-effect:none;fill:#cccccc;fill-opacity:1;stroke:none;stroke-width:2;stroke-linecap:round;stroke-linejoin:round;stroke-miterlimit:4;stroke-dasharray:none;stroke-dashoffset:0;stroke-opacity:1"
     id="rect873-1"
     width="10"
     height="11"
     x="5"
     y="1.9999995"
     ry="1"
     rx="1" />
  <rect
     style="opacity:1;vector-effect:none;fill:#ffffff;fill-opacity:1;stroke:none;stroke-width:2;stroke-linecap:round;stroke-linejoin:round;stroke-miterlimit:4;stroke-dasharray:none;stroke-dashoffset:0;stroke-opacity:1"
     id="rect9578"
     width="2"
     height="1"
     x="9"
     y="0.99999952" />
  <rect
     style="fill:#ffffff;fill-rule:evenodd;stroke:none;stroke-width:3;stroke-linecap:round;stroke-linejoin:round"
     id="rect839"
     width="4"
     height="1"
     x="8"
     y="1.9999995" />
  <path
     d="m 7,5 v 1 h 6 v -1 z m 0,2 v 1 h 5 v -1 z m 0,2 v 1 h 3 v -1 z"
     id="path2"
     inkscape:connector-curvature="0"
     style="fill:#232629"
     sodipodi:nodetypes="ccccccccccccccc" />
  <path
     style="color:#000000;font-style:normal;font-variant:normal;font-weight:normal;font-stretch:normal;font-size:medium;line-height:normal;font-family:sans-serif;text-indent:0;text-align:start;text-decoration:none;text-decoration-line:none;text-decoration-style:solid;text-decoration-color:#000000;letter-spacing:normal;word-spacing:normal;text-transform:none;writing-mode:lr-tb;direction:ltr;baseline-shift:baseline;text-anchor:start;white-space:normal;clip-rule:nonzero;display:inline;overflow:visible;visibility:visible;isolation:auto;mix-blend-mode:normal;color-interpolation:sRGB;color-interpolation-filters:linearRGB;solid-color:#000000;solid-opacity:1;fill:#ffffff;fill-opacity:1;fill-rule:nonzero;stroke:#ffffff;stroke-width:2;stroke-linecap:round;stroke-linejoin:round;stroke-miterlimit:4;stroke-dasharray:none;stroke-dashoffset:0;stroke-opacity:1;color-rendering:auto;image-rendering:auto;shape-rendering:auto;text-rendering:auto;enable-background:accumulate"
     d="m 10.040279,12.506455 c 10e-7,-0.640578 -0.24171,-1.281152 -0.7285149,-1.767579 l -1.6839687,-1.6826625 c -0.9736078,-0.972853 -2.5619361,-0.973229 -3.5351561,10e-7 -0.1211898,0.121179 -0.2254283,0.252694 -0.3164067,0.390624 l 0.7343749,0.7343745 c 0.0724,-0.14935 0.1636626,-0.2925775 0.2890624,-0.4179675 0.5937202,-0.59372 1.5273643,-0.59372 2.1210942,0 l 1.6820158,1.6826605 c 0.59372,0.59372 0.5937193,1.527375 7e-7,2.121095 -0.5937201,0.59372 -1.527374,0.59372 -2.1210933,0 l 0.1029939,0.102344 c -0.3909205,0.136489 -1.0661759,-0.05709 -1.4764159,-0.06235 l 0.6663777,0.667051 c 0.97322,0.973229 2.5638784,0.973228 3.5371082,-1e-6 0.4866156,-0.486613 0.7285168,-1.127004 0.7285148,-1.767581 z m -2.8011559,-1.010788 -0.7343749,-0.734375 c -0.072399,0.14933 -0.1656254,0.292578 -0.2910161,0.417968 -0.5937202,0.59372 -1.5273737,0.593721 -2.1210935,1e-6 l -1.6600122,-1.6619915 c -0.5937304,-0.59372 -0.5937201,-1.527374 10e-8,-2.121095 0.5937205,-0.593719 1.5273744,-0.5937186 2.1210939,1e-6 l 0.1444005,0.1444 c 0.3909214,-0.136491 0.7987461,-0.210339 1.2089859,-0.205079 l -0.6463531,-0.6463531 c -0.9732205,-0.9732206 -2.5619274,-0.9732296 -3.5351562,3e-7 -0.97322998,0.9732298 -0.97322959,2.5619258 3e-7,3.5351563 l 1.6600105,1.66199 c 0.9732306,0.973219 2.5619372,0.97322 3.5351575,-1e-6 0.1211898,-0.12119 0.2273792,-0.252693 0.3183583,-0.390624 z"
     id="path852"
     inkscape:connector-curvature="0"
     sodipodi:nodetypes="cssccccccccccccccccsccscccssccscc" />
  <path
     style="color:#000000;font-style:normal;font-variant:normal;font-weight:normal;font-stretch:normal;font-size:medium;line-height:normal;font-family:sans-serif;text-indent:0;text-align:start;text-decoration:none;text-decoration-line:none;text-decoration-style:solid;text-decoration-color:#000000;letter-spacing:normal;word-spacing:normal;text-transform:none;writing-mode:lr-tb;direction:ltr;baseline-shift:baseline;text-anchor:start;white-space:normal;clip-rule:nonzero;display:inline;overflow:visible;visibility:visible;isolation:auto;mix-blend-mode:normal;color-interpolation:sRGB;color-interpolation-filters:linearRGB;solid-color:#000000;solid-opacity:1;fill:url(#linearGradient838);fill-opacity:1;fill-rule:nonzero;stroke:none;stroke-width:1;stroke-linecap:round;stroke-linejoin:round;stroke-miterlimit:4;stroke-dasharray:none;stroke-dashoffset:0;stroke-opacity:1;color-rendering:auto;image-rendering:auto;shape-rendering:auto;text-rendering:auto;enable-background:accumulate"
     d="m 10.040279,12.506455 c 10e-7,-0.640578 -0.24171,-1.281152 -0.7285149,-1.767579 l -1.6839687,-1.6826625 c -0.9736078,-0.972853 -2.5619361,-0.973229 -3.5351561,10e-7 -0.1211898,0.121179 -0.2254283,0.252694 -0.3164067,0.390624 l 0.7343749,0.7343745 c 0.0724,-0.14935 0.1636626,-0.2925775 0.2890624,-0.4179675 0.5937202,-0.59372 1.5273643,-0.59372 2.1210942,0 l 1.6820158,1.6826605 c 0.59372,0.59372 0.5937193,1.527375 7e-7,2.121095 -0.5937201,0.59372 -1.527374,0.59372 -2.1210933,0 l 0.1029939,0.102344 c -0.3909205,0.136489 -1.0661759,-0.05709 -1.4764159,-0.06235 l 0.6663777,0.667051 c 0.97322,0.973229 2.5638784,0.973228 3.5371082,-1e-6 0.4866156,-0.486613 0.7285168,-1.127004 0.7285148,-1.767581 z m -2.8011559,-1.010788 -0.7343749,-0.734375 c -0.072399,0.14933 -0.1656254,0.292578 -0.2910161,0.417968 -0.5937202,0.59372 -1.5273737,0.593721 -2.1210935,1e-6 l -1.6600122,-1.6619915 c -0.5937304,-0.59372 -0.5937201,-1.527374 10e-8,-2.121095 0.5937205,-0.593719 1.5273744,-0.5937186 2.1210939,1e-6 l 0.1444005,0.1444 c 0.3909214,-0.136491 0.7987461,-0.210339 1.2089859,-0.205079 l -0.6463531,-0.6463531 c -0.9732205,-0.9732206 -2.5619274,-0.9732296 -3.5351562,3e-7 -0.97322998,0.9732298 -0.97322959,2.5619258 3e-7,3.5351563 l 1.6600105,1.66199 c 0.9732306,0.973219 2.5619372,0.97322 3.5351575,-1e-6 0.1211898,-0.12119 0.2273792,-0.252693 0.3183583,-0.390624 z"
     id="rect76514"
     inkscape:connector-curvature="0"
     sodipodi:nodetypes="cssccccccccccccccccsccscccssccscc" />
</svg>
