<?xml version="1.0" encoding="UTF-8" standalone="no"?>
<svg
   xmlns:dc="http://purl.org/dc/elements/1.1/"
   xmlns:cc="http://creativecommons.org/ns#"
   xmlns:rdf="http://www.w3.org/1999/02/22-rdf-syntax-ns#"
   xmlns:svg="http://www.w3.org/2000/svg"
   xmlns="http://www.w3.org/2000/svg"
   xmlns:sodipodi="http://sodipodi.sourceforge.net/DTD/sodipodi-0.dtd"
   xmlns:inkscape="http://www.inkscape.org/namespaces/inkscape"
   viewBox="0 0 16 16"
   version="1.1"
   id="svg4"
   sodipodi:docname="sc_print.svg"
   inkscape:version="0.92.4 (5da689c313, 2019-01-14)"><metadata
   id="metadata10">
  <rdf:RDF>
    <cc:Work
       rdf:about="">
      <dc:format>image/svg+xml</dc:format>
      <dc:type
         rdf:resource="http://purl.org/dc/dcmitype/StillImage" />
    </cc:Work>
  </rdf:RDF>
</metadata>
<defs
   id="defs8" />
<sodipodi:namedview
   pagecolor="#ffffff"
   bordercolor="#666666"
   borderopacity="1"
   objecttolerance="10"
   gridtolerance="10"
   guidetolerance="10"
   inkscape:pageopacity="0"
   inkscape:pageshadow="2"
   inkscape:window-width="886"
   inkscape:window-height="425"
   id="namedview6"
   showgrid="true"
   inkscape:zoom="45.254834"
   inkscape:cx="9.0701542"
   inkscape:cy="6.5641892"
   inkscape:window-x="553"
   inkscape:window-y="426"
   inkscape:window-maximized="0"
   inkscape:current-layer="svg4">
  <inkscape:grid
     type="xygrid"
     id="grid840" />
</sodipodi:namedview>


/&gt;<path
   d="M 5,2 V 5.025 C 4.25,5.043 3.59,5.095 3.063,5.385 2.673615,5.6071175 2.376414,5.9610631 2.225,6.383 2.06,6.822 2,7.343 2,8 v 1 c 0,0.658 0.06,1.277 0.225,1.715 0.164,0.439 0.461,0.79 0.838,0.998 C 3.345,11.869 3.662,11.947 4,12 V 10.975 C 3.842342,10.95121 3.689037,10.90438 3.545,10.836 3.362,10.736 3.258,10.624 3.16,10.364 3.063,10.104 3,9.592 3,9 V 8 C 3,7.408 3.063,6.994 3.16,6.734 3.258,6.474 3.362,6.363 3.545,6.262 3.91,6.06 4.74,6.015 6,6 h 4 c 1.259,0.015 2.087,0.06 2.453,0.262 0.184,0.101 0.29,0.213 0.387,0.472 C 12.937,6.994 13,7.408 13,8 v 1 c 0,0.592 -0.063,1.104 -0.16,1.364 -0.098,0.26 -0.203,0.371 -0.387,0.472 -0.107,0.06 -0.267,0.104 -0.453,0.139 V 12 c 0.338,-0.053 0.655,-0.13 0.938,-0.287 0.389009,-0.2223 0.685837,-0.576224 0.837,-0.998 C 13.94,10.277 14,9.657 14,9 V 8 C 14,7.342 13.94,6.822 13.775,6.383 13.623837,5.9612236 13.327009,5.6073004 12.938,5.385 12.411,5.095 11.75,5.043 11,5.025 V 2 Z m 1,1 h 4 V 5 H 6 Z m 4.5,4 C 10.223858,7 10,7.223858 10,7.5 10,7.776142 10.223858,8 10.5,8 10.776142,8 11,7.7357023 11,7.5 11,7.2642977 10.776142,7 10.5,7 Z M 5,10 v 4 h 6 v -4 h -1 v 3 H 6 v -3 z m 2,1 v 1 h 2 v -1 z"
   style="color:#000000;font-weight:400;line-height:normal;font-family:sans-serif;font-variant-ligatures:normal;font-variant-position:normal;font-variant-caps:normal;font-variant-numeric:normal;font-variant-alternates:normal;font-feature-settings:normal;text-indent:0;text-align:start;text-decoration:none;text-decoration-line:none;text-decoration-style:solid;text-decoration-color:#000000;text-transform:none;text-orientation:mixed;white-space:normal;shape-padding:0;display:inline;overflow:visible;isolation:auto;mix-blend-mode:normal;fill:#232629;fill-opacity:1;marker:none"
   font-weight="400"
   overflow="visible"
   id="path2"
   inkscape:connector-curvature="0"
   sodipodi:nodetypes="ccccssccccccssccccccssccccccssccccccccccsssascccccccccccccc" />
</svg>
