<?xml version="1.0" encoding="UTF-8" standalone="no"?>
<svg
   viewBox="0 0 16 16"
   version="1.1"
   id="svg6"
   sodipodi:docname="sc_quoteparastyle.svg"
   inkscape:export-filename="/home/jupiter007/Libreoffice yaru theme fullcolor/build/cmd/sc_quoteparastyle.png"
   inkscape:export-xdpi="96"
   inkscape:export-ydpi="96"
   inkscape:version="1.1 (ce6663b3b7, 2021-05-25)"
   xmlns:inkscape="http://www.inkscape.org/namespaces/inkscape"
   xmlns:sodipodi="http://sodipodi.sourceforge.net/DTD/sodipodi-0.dtd"
   xmlns:xlink="http://www.w3.org/1999/xlink"
   xmlns="http://www.w3.org/2000/svg"
   xmlns:svg="http://www.w3.org/2000/svg"
   xmlns:rdf="http://www.w3.org/1999/02/22-rdf-syntax-ns#"
   xmlns:cc="http://creativecommons.org/ns#"
   xmlns:dc="http://purl.org/dc/elements/1.1/">
  <metadata
     id="metadata12">
    <rdf:RDF>
      <cc:Work
         rdf:about="">
        <dc:format>image/svg+xml</dc:format>
        <dc:type
           rdf:resource="http://purl.org/dc/dcmitype/StillImage" />
      </cc:Work>
    </rdf:RDF>
  </metadata>
  <defs
     id="defs10">
    <linearGradient
       inkscape:collect="always"
       xlink:href="#linearGradient836"
       id="linearGradient838"
       x1="9"
       y1="2"
       x2="9"
       y2="14"
       gradientUnits="userSpaceOnUse"
       gradientTransform="translate(-0.49971713)" />
    <linearGradient
       inkscape:collect="always"
       id="linearGradient836">
      <stop
         style="stop-color:#151515;stop-opacity:1"
         offset="0"
         id="stop832" />
      <stop
         style="stop-color:#4d4d4d;stop-opacity:1"
         offset="1"
         id="stop834" />
    </linearGradient>
  </defs>
  <sodipodi:namedview
     pagecolor="#ffffff"
     bordercolor="#666666"
     borderopacity="1"
     objecttolerance="10"
     gridtolerance="10"
     guidetolerance="10"
     inkscape:pageopacity="0"
     inkscape:pageshadow="2"
     inkscape:window-width="1920"
     inkscape:window-height="1016"
     id="namedview8"
     showgrid="false"
     inkscape:zoom="29.5"
     inkscape:cx="7.9152542"
     inkscape:cy="10.762712"
     inkscape:window-x="0"
     inkscape:window-y="27"
     inkscape:window-maximized="1"
     inkscape:current-layer="svg6"
     inkscape:document-rotation="0"
     inkscape:pagecheckerboard="0" />
  <path
     id="path828"
     style="color:#000000;fill:#ffffff;fill-rule:evenodd;stroke-linejoin:round;-inkscape-stroke:none"
     d="M 7.5 1 C 4.4142328 1.0000002 1.8299205 3.65978 1.5058594 6.9003906 C 1.1817983 10.141001 3.4142327 13 6.5 13 A 1.0001 1.0001 0 0 0 6.5097656 13 C 6.5481806 12.999625 6.5865786 12.991534 6.625 12.990234 L 7.6679688 14.554688 A 1.0001 1.0001 0 0 0 8.5 15 L 10 15 A 1.0001 1.0001 0 0 1 9 14 L 9 13 A 1.0001 1.0001 0 0 1 10 12 A 1.0001 1.0001 0 0 1 9 11 L 9 9 A 1.0001 1.0001 0 0 1 10 8 L 10.132812 8 C 10.163144 7.9063742 10.194373 7.8127855 10.222656 7.7167969 C 10.198703 7.8128458 10.171711 7.9071997 10.142578 8 L 12 8 A 1.0001 1.0001 0 0 1 12.275391 8.1914062 C 12.381458 7.8398012 12.458389 7.4759453 12.496094 7.0996094 C 12.820155 3.8589983 10.585768 0.9999996 7.5 1 z M 10 15 L 10.5 15 A 1.0001 1.0001 0 0 0 11.125 14.777344 C 10.776477 14.920329 10.39728 15 10 15 z M 7.5 3 C 9.3847907 2.9999998 10.734083 4.6181593 10.505859 6.9003906 C 10.503859 6.9205486 10.488618 6.9369082 10.486328 6.9570312 C 10.554408 5.9616131 10.321587 5.0162013 9.7871094 4.2871094 C 9.2451627 3.5478288 8.3695487 3.0575623 7.3964844 3.0234375 C 7.4315704 3.0221875 7.4649084 3 7.5 3 z M 4.421875 4.8339844 C 4.2671816 5.067151 4.1221962 5.306472 3.9960938 5.5566406 C 3.8394481 5.8836841 3.716968 6.2318378 3.6367188 6.6035156 C 3.7012757 6.2264157 3.8320171 5.8821445 3.9960938 5.5566406 C 4.1175943 5.3029729 4.2588748 5.0616907 4.421875 4.8339844 z M 7.3007812 5 C 7.6667365 5.0001372 7.9387875 5.1500795 8.1738281 5.4707031 C 8.4088687 5.7913268 8.5665035 6.2939491 8.5058594 6.9003906 C 8.384516 8.1138244 7.431474 9.0002746 6.6992188 9 C 6.3332638 8.9998627 6.0612124 8.8499206 5.8261719 8.5292969 C 5.5911313 8.2086732 5.4354496 7.7060508 5.4960938 7.0996094 C 5.6174371 5.8861758 6.5685263 4.9997256 7.3007812 5 z M 3.515625 7.0332031 C 3.44514 8.0323484 3.6766146 8.9813453 4.2128906 9.7128906 C 4.7632937 10.463707 5.6549628 10.966897 6.6464844 10.986328 C 6.5978904 10.989228 6.5482204 10.99938 6.5 11 L 6.4980469 11 C 4.6143172 10.9988 3.2679524 9.3810219 3.4960938 7.0996094 C 3.4984637 7.0759244 3.5129 7.0567861 3.515625 7.0332031 z M 8.109375 10.6875 A 1.0001 1.0001 0 0 0 7.8046875 11.322266 A 1.0001 1.0001 0 0 0 7 10.960938 C 7.3908361 10.929895 7.7668497 10.845121 8.109375 10.6875 z M 6.9707031 10.958984 A 1.0001 1.0001 0 0 1 6.9980469 10.960938 C 6.9421139 10.965354 6.8865954 10.968409 6.8300781 10.970703 C 6.8770621 10.965183 6.9234881 10.966684 6.9707031 10.958984 z " />
  <path
     id="path819"
     style="opacity:1;fill:url(#linearGradient838);fill-opacity:1;fill-rule:evenodd;stroke:none;stroke-width:2;stroke-linecap:butt;stroke-linejoin:round;stroke-miterlimit:4;stroke-dasharray:none;stroke-opacity:1"
     d="M 7.5 2 A 4.403021 5.1101278 24.006394 0 0 2.5 7 A 4.403021 5.1101278 24.006394 0 0 6.5 12 A 4.403021 5.1101278 24.006394 0 0 7.1308594 11.945312 L 8.5 14 L 9 14 L 9 13 A 1.0001 1.0001 0 0 1 9.3378906 12.257812 L 8.7460938 11.371094 A 4.403021 5.1101278 24.006394 0 0 9.0253906 11.195312 A 1.0001 1.0001 0 0 1 9 11 L 9 9 A 1.0001 1.0001 0 0 1 10 8 L 11.308594 8 A 4.403021 5.1101278 24.006394 0 0 11.5 7 A 4.403021 5.1101278 24.006394 0 0 7.5 2 z M 7.3007812 4 A 2.4625403 3.0456355 17.042943 0 1 9.5 7 A 2.4625403 3.0456355 17.042943 0 1 6.6992188 10 A 2.4625403 3.0456355 17.042943 0 1 4.5 7 A 2.4625403 3.0456355 17.042943 0 1 7.3007812 4 z " />
  <path
     d="m10 9v2h1v1c0 .552285-.44772 1-1 1v1c1.10457 0 2-.895431 2-2v-1-2zm3 0v2h1v1c0 .552285-.44772 1-1 1v1c1.10457 0 2-.895431 2-2v-1-2z"
     fill="#77216F"
     id="path4"
     style="fill:#e95420;fill-opacity:1" />
</svg>
