<?xml version="1.0" encoding="UTF-8" standalone="no"?>
<svg
   xmlns:dc="http://purl.org/dc/elements/1.1/"
   xmlns:cc="http://creativecommons.org/ns#"
   xmlns:rdf="http://www.w3.org/1999/02/22-rdf-syntax-ns#"
   xmlns:svg="http://www.w3.org/2000/svg"
   xmlns="http://www.w3.org/2000/svg"
   xmlns:sodipodi="http://sodipodi.sourceforge.net/DTD/sodipodi-0.dtd"
   xmlns:inkscape="http://www.inkscape.org/namespaces/inkscape"
   viewBox="0 0 16 16"
   version="1.1"
   id="svg4"
   sodipodi:docname="sc_recsearch.svg"
   inkscape:export-filename="/home/jupiter007/Libreoffice yaru theme fullcolor/build/cmd/sc_recsearch.png"
   inkscape:export-xdpi="95"
   inkscape:export-ydpi="95"
   inkscape:version="1.0.1 (3bc2e813f5, 2020-09-07)"><metadata
   id="metadata10">
  <rdf:RDF>
    <cc:Work
       rdf:about="">
      <dc:format>image/svg+xml</dc:format>
      <dc:type
         rdf:resource="http://purl.org/dc/dcmitype/StillImage" />
      <dc:title></dc:title>
    </cc:Work>
  </rdf:RDF>
</metadata>
<defs
   id="defs8" />
<sodipodi:namedview
   pagecolor="#ffffff"
   bordercolor="#666666"
   borderopacity="1"
   objecttolerance="10"
   gridtolerance="10"
   guidetolerance="10"
   inkscape:pageopacity="0"
   inkscape:pageshadow="2"
   inkscape:window-width="1920"
   inkscape:window-height="1011"
   id="namedview6"
   showgrid="true"
   inkscape:zoom="29.5"
   inkscape:cx="9.5488421"
   inkscape:cy="7.018974"
   inkscape:window-x="0"
   inkscape:window-y="0"
   inkscape:window-maximized="1"
   inkscape:current-layer="svg4"
   inkscape:document-rotation="0"
   inkscape:snap-center="true">
  <inkscape:grid
     type="xygrid"
     id="grid833" />
  <inkscape:grid
     type="xygrid"
     id="grid838"
     spacingx="0.5"
     spacingy="0.5"
     empspacing="10"
     dotted="true" />
</sodipodi:namedview>

/&gt;<path
   id="rect840"
   style="opacity:0.7;fill:#000000;fill-opacity:1;fill-rule:nonzero;stroke:#000000;stroke-width:2;stroke-linecap:butt;stroke-linejoin:round;stroke-miterlimit:4;stroke-dasharray:none;stroke-dashoffset:0;stroke-opacity:1"
   inkscape:transform-center-y="0.78553407"
   d="m 3.6109127,3.6109127 a 5.5,5.5 0 0 0 0,7.7781743 5.5,5.5 0 0 0 7.4080483,0.336981 l 2.845,2.845 0.707107,-0.707107 -2.845,-2.845 a 5.5,5.5 0 0 0 -0.336981,-7.4080483 5.5,5.5 0 0 0 -7.7781743,0 z"
   inkscape:transform-center-x="-0.78553407" />
<path
   style="opacity:1;fill:#c8c4b7;fill-opacity:1;fill-rule:nonzero;stroke:none;stroke-width:1.72858;stroke-linecap:butt;stroke-linejoin:bevel;stroke-miterlimit:4;stroke-dasharray:none;stroke-dashoffset:0;stroke-opacity:1"
   d="M 7.4999987,2.0000006 A 5.5000019,5.5000019 0 0 0 1.9999984,7.5000009 5.5000019,5.5000019 0 0 0 7.5,13 5.5000019,5.5000019 0 0 0 13.000001,7.5000028 5.5000019,5.5000019 0 0 0 7.4999987,2.0000006 Z m 7e-7,1.2222219 A 4.2777793,4.2777793 0 0 1 11.777778,7.5000021 4.2777793,4.2777793 0 0 1 7.5000004,11.777775 4.2777793,4.2777793 0 0 1 3.2222211,7.5000006 4.2777793,4.2777793 0 0 1 7.4999994,3.2222225 Z"
   id="path828"
   inkscape:connector-curvature="0" />
<circle
   style="opacity:1;fill:#fffefd;fill-opacity:1;fill-rule:nonzero;stroke:none;stroke-width:1.41429;stroke-linecap:butt;stroke-linejoin:bevel;stroke-miterlimit:4;stroke-dasharray:none;stroke-dashoffset:0;stroke-opacity:1"
   id="path837"
   cx="7.5"
   cy="7.5"
   r="4.5" />
<rect
   style="opacity:1;fill:#c8c4b7;fill-opacity:1;fill-rule:nonzero;stroke:none;stroke-width:1.1;stroke-linecap:butt;stroke-linejoin:bevel;stroke-miterlimit:4;stroke-dasharray:none;stroke-dashoffset:0;stroke-opacity:1"
   id="rect845"
   width="5"
   height="1"
   x="15.106602"
   y="-0.5"
   ry="4.5e-08"
   transform="rotate(45)"
   inkscape:transform-center-y="4.9497475"
   inkscape:transform-center-x="-4.9497475" />
</svg>
