<?xml version="1.0" encoding="UTF-8" standalone="no"?>
<svg
   xmlns:dc="http://purl.org/dc/elements/1.1/"
   xmlns:cc="http://creativecommons.org/ns#"
   xmlns:rdf="http://www.w3.org/1999/02/22-rdf-syntax-ns#"
   xmlns:svg="http://www.w3.org/2000/svg"
   xmlns="http://www.w3.org/2000/svg"
   xmlns:sodipodi="http://sodipodi.sourceforge.net/DTD/sodipodi-0.dtd"
   xmlns:inkscape="http://www.inkscape.org/namespaces/inkscape"
   viewBox="0 0 16 16"
   version="1.1"
   id="svg6"
   sodipodi:docname="sc_renameslide.svg"
   inkscape:export-filename="/home/jupiter007/Libreoffice yaru theme fullcolor/build/cmd/sc_renameslide.png"
   inkscape:export-xdpi="96"
   inkscape:export-ydpi="96"
   inkscape:version="1.0.1 (3bc2e813f5, 2020-09-07)">
  <metadata
     id="metadata12">
    <rdf:RDF>
      <cc:Work
         rdf:about="">
        <dc:format>image/svg+xml</dc:format>
        <dc:type
           rdf:resource="http://purl.org/dc/dcmitype/StillImage" />
      </cc:Work>
    </rdf:RDF>
  </metadata>
  <defs
     id="defs10" />
  <sodipodi:namedview
     pagecolor="#ffffff"
     bordercolor="#666666"
     borderopacity="1"
     objecttolerance="10"
     gridtolerance="10"
     guidetolerance="10"
     inkscape:pageopacity="0"
     inkscape:pageshadow="2"
     inkscape:window-width="1920"
     inkscape:window-height="1011"
     id="namedview8"
     showgrid="false"
     inkscape:zoom="29.5"
     inkscape:cx="-2.4401228"
     inkscape:cy="4.5664637"
     inkscape:window-x="0"
     inkscape:window-y="0"
     inkscape:window-maximized="1"
     inkscape:current-layer="svg6"
     inkscape:document-rotation="0" />
  <path
     sodipodi:nodetypes="cccscsccccccccscscccccc"
     inkscape:connector-curvature="0"
     id="path4237-1"
     d="m 4.9946171,1.9999998 c -1.2582,0.0145 -2.1788909,-0.0306 -2.9316409,0.384766 -0.37637,0.2076599 -0.673231,0.5593859 -0.8378911,0.9980459 -0.1646699,0.43867 -0.2246089,2.2747882 -0.2246089,1.6171881 v 1.488281 4.5117182 c 0,0.657609 0.0599,1.178578 0.2246089,1.61719 0.1646801,0.43861 0.4615311,0.788523 0.8378911,0.996092 0.75272,0.415131 1.673541,0.37165 2.9316409,0.386719 h 0.002 6.0048569 0.0039 c 1.25819,-0.0145 2.178891,0.0306 2.931641,-0.384766 0.37637,-0.20766 0.673221,-0.559386 0.837891,-0.998045 0.164539,-0.438671 0.224618,-0.959581 0.224618,-1.61719 V 6.4667968 4.9999998 c 0,-0.6576001 -0.0599,-1.1785771 -0.224609,-1.6171881 -0.16468,-0.438599 -0.461531,-0.788533 -0.837891,-0.9960929 -0.75277,-0.41513 -1.673601,-0.371639 -2.931691,-0.386719 h -0.002 -6.0048569 z"
     style="font-style:normal;font-variant:normal;font-weight:normal;font-stretch:normal;font-size:15px;line-height:125%;font-family:Ubuntu;-inkscape-font-specification:Ubuntu;text-align:center;letter-spacing:0px;word-spacing:0px;writing-mode:lr-tb;text-anchor:middle;display:inline;opacity:0.6;fill:#000000;fill-opacity:1;stroke:none;stroke-width:0.99980211" />
  <path
     inkscape:connector-curvature="0"
     id="path1993"
     d="m 5.9828451,3.0271847 c -1.556581,0.0108 -1.10899,-0.01175 -2.658941,0.03877 -0.461229,0.04267 -1.016188,0.206419 -1.15534,0.709967 -0.218994,0.635346 -0.108414,1.3337871 -0.145796,1.9819241 -0.0078,2.297084 -0.02297,3.5958455 0.02152,5.8851962 0.0391,0.46193 0.202551,1.012666 0.698756,1.163666 0.632456,0.225083 1.284144,0.12274 1.935974,0.154299 1.4242354,0.0068 0.849563,0.01102 2.2754204,0.01131 1.704531,3.49e-4 3.4083875,-0.005 5.1071875,-0.01851 0.511911,-0.01201 1.183699,0.01993 1.584745,-0.405192 0.421097,-0.539783 0.287073,-1.268022 0.322745,-1.903788 0.01187,-2.4443212 0.02769,-3.9105112 -0.0219,-6.3562103 -0.04928,-0.40204 -0.169992,-0.862952 -0.575139,-1.044475 -0.668169,-0.294097 -1.426205,-0.168019 -2.125921,-0.205572 -1.7544044,-0.0118 -3.5088714,-0.01249 -5.2633108,-0.01139 z"
     style="opacity:1;vector-effect:none;fill:#ffffff;fill-opacity:1;stroke:none;stroke-width:1;stroke-linecap:round;stroke-linejoin:bevel;stroke-miterlimit:4;stroke-dasharray:none;stroke-dashoffset:0;stroke-opacity:1"
     sodipodi:nodetypes="cccccccscccccccc" />
  <g
     id="g12435"
     style="display:inline"
     transform="translate(-118,171.99998)">
    <path
       sodipodi:nodetypes="cccccccccscsccccccccscsc"
       inkscape:connector-curvature="0"
       id="path3543"
       d="m 126.99219,-168 v 1 2 h 1.99219 c 0.002,0.008 0.008,0.0254 0.008,0.0254 l 0.008,5.94922 c 0,0 -0.006,0.0171 -0.008,0.0254 H 127 v 3 h 2 c 0.59893,0 1.08626,-0.20045 1.5,-0.46094 0.41374,0.26049 0.90107,0.46094 1.5,0.46094 h 2 v -3 h -1.99219 c -0.002,-0.008 -0.008,-0.0254 -0.008,-0.0254 l -0.008,-5.94922 c 0,0 0.006,-0.0171 0.008,-0.0254 h 1.99219 v -3 h -2 c -0.59893,0 -1.08626,0.20045 -1.5,0.46094 -0.41374,-0.26049 -0.90176,-0.48971 -1.5,-0.46094 z"
       style="color:#000000;font-style:normal;font-variant:normal;font-weight:normal;font-stretch:normal;font-size:medium;line-height:normal;font-family:sans-serif;font-variant-ligatures:normal;font-variant-position:normal;font-variant-caps:normal;font-variant-numeric:normal;font-variant-alternates:normal;font-feature-settings:normal;text-indent:0;text-align:start;text-decoration:none;text-decoration-line:none;text-decoration-style:solid;text-decoration-color:#000000;letter-spacing:normal;word-spacing:normal;text-transform:none;writing-mode:lr-tb;direction:ltr;text-orientation:mixed;dominant-baseline:auto;baseline-shift:baseline;text-anchor:start;white-space:normal;shape-padding:0;clip-rule:nonzero;display:inline;overflow:visible;visibility:visible;opacity:1;isolation:auto;mix-blend-mode:normal;color-interpolation:sRGB;color-interpolation-filters:linearRGB;solid-color:#000000;solid-opacity:1;vector-effect:none;fill:#ffffff;fill-opacity:1;fill-rule:evenodd;stroke:none;stroke-width:2;stroke-linecap:butt;stroke-linejoin:miter;stroke-miterlimit:4;stroke-dasharray:none;stroke-dashoffset:0;stroke-opacity:1;color-rendering:auto;image-rendering:auto;shape-rendering:auto;text-rendering:auto;enable-background:accumulate" />
    <path
       sodipodi:nodetypes="ccsccccsccscsccsccccsccscsc"
       inkscape:connector-curvature="0"
       style="color:#000000;font-style:normal;font-variant:normal;font-weight:normal;font-stretch:normal;font-size:medium;line-height:normal;font-family:sans-serif;font-variant-ligatures:normal;font-variant-position:normal;font-variant-caps:normal;font-variant-numeric:normal;font-variant-alternates:normal;font-feature-settings:normal;text-indent:0;text-align:start;text-decoration:none;text-decoration-line:none;text-decoration-style:solid;text-decoration-color:#000000;letter-spacing:normal;word-spacing:normal;text-transform:none;writing-mode:lr-tb;direction:ltr;text-orientation:mixed;dominant-baseline:auto;baseline-shift:baseline;text-anchor:start;white-space:normal;shape-padding:0;clip-rule:nonzero;display:inline;overflow:visible;visibility:visible;opacity:1;isolation:auto;mix-blend-mode:normal;color-interpolation:sRGB;color-interpolation-filters:linearRGB;solid-color:#000000;solid-opacity:1;vector-effect:none;fill:#111111;fill-opacity:1;fill-rule:evenodd;stroke:none;stroke-width:1px;stroke-linecap:butt;stroke-linejoin:miter;stroke-miterlimit:4;stroke-dasharray:none;stroke-dashoffset:0;stroke-opacity:1;color-rendering:auto;image-rendering:auto;shape-rendering:auto;text-rendering:auto;enable-background:accumulate"
       d="m 127.99219,-167 v 1 h 1 c 0.58333,0 0.73736,0.21691 0.86523,0.47266 0.12788,0.25574 0.13477,0.52734 0.13477,0.52734 l 0.008,6 c 0,0 -0.007,0.2716 -0.13477,0.52734 C 129.73736,-158.21691 129.46199,-158 129,-158 h -1 v 1 h 1 c 0.72726,0 1.19053,-0.35304 1.5,-0.73828 0.30947,0.38524 0.77274,0.73828 1.5,0.73828 h 1 v -1 h -1 c -0.58333,0 -0.73736,-0.21691 -0.86523,-0.47266 C 131.00689,-158.7284 131,-159 131,-159 l -0.008,-6 c 0,0 0.007,-0.2716 0.13477,-0.52734 0.12787,-0.25575 0.28464,-0.52916 0.86523,-0.47266 h 1 v -1 h -1 c -0.72726,0 -1.19053,0.35304 -1.5,0.73828 -0.30947,-0.38524 -0.77274,-0.73828 -1.5,-0.73828 z"
       id="path7092" />
  </g>
</svg>
