<?xml version="1.0" encoding="UTF-8" standalone="no"?>
<svg
   xmlns:dc="http://purl.org/dc/elements/1.1/"
   xmlns:cc="http://creativecommons.org/ns#"
   xmlns:rdf="http://www.w3.org/1999/02/22-rdf-syntax-ns#"
   xmlns:svg="http://www.w3.org/2000/svg"
   xmlns="http://www.w3.org/2000/svg"
   xmlns:sodipodi="http://sodipodi.sourceforge.net/DTD/sodipodi-0.dtd"
   xmlns:inkscape="http://www.inkscape.org/namespaces/inkscape"
   viewBox="0 0 16 16"
   version="1.1"
   id="svg4"
   sodipodi:docname="sc_recsearch.svg"
   inkscape:export-filename="/home/jupiter007/Libreoffice yaru theme fullcolor/build/cmd/sc_recsearch.png"
   inkscape:export-xdpi="95"
   inkscape:export-ydpi="95"
   inkscape:version="1.0.1 (3bc2e813f5, 2020-09-07)"><metadata
   id="metadata10">
  <rdf:RDF>
    <cc:Work
       rdf:about="">
      <dc:format>image/svg+xml</dc:format>
      <dc:type
         rdf:resource="http://purl.org/dc/dcmitype/StillImage" />
      <dc:title />
    </cc:Work>
  </rdf:RDF>
</metadata>
<defs
   id="defs8" />
<sodipodi:namedview
   pagecolor="#ffffff"
   bordercolor="#666666"
   borderopacity="1"
   objecttolerance="10"
   gridtolerance="10"
   guidetolerance="10"
   inkscape:pageopacity="0"
   inkscape:pageshadow="2"
   inkscape:window-width="1920"
   inkscape:window-height="1016"
   id="namedview6"
   showgrid="true"
   inkscape:zoom="29.5"
   inkscape:cx="9.5488421"
   inkscape:cy="7.018974"
   inkscape:window-x="0"
   inkscape:window-y="27"
   inkscape:window-maximized="1"
   inkscape:current-layer="svg4"
   inkscape:document-rotation="0"
   inkscape:snap-center="true">
  <inkscape:grid
     type="xygrid"
     id="grid833" />
  <inkscape:grid
     type="xygrid"
     id="grid838"
     spacingx="0.5"
     spacingy="0.5"
     empspacing="10"
     dotted="true" />
</sodipodi:namedview>


/&gt;<path
   id="rect840"
   style="opacity:0.7;fill:#000000;fill-opacity:1;fill-rule:nonzero;stroke:#000000;stroke-width:2;stroke-linecap:butt;stroke-linejoin:round;stroke-miterlimit:4;stroke-dasharray:none;stroke-dashoffset:0;stroke-opacity:1"
   inkscape:transform-center-y="0.78553407"
   d="m 3.6109127,3.6109127 a 5.5,5.5 0 0 0 0,7.7781743 5.5,5.5 0 0 0 7.4080483,0.336981 l 2.845,2.845 0.707107,-0.707107 -2.845,-2.845 a 5.5,5.5 0 0 0 -0.336981,-7.4080483 5.5,5.5 0 0 0 -7.7781743,0 z"
   inkscape:transform-center-x="-0.78553407" />
<path
   id="path828"
   style="opacity:1;fill:#ffffff;fill-opacity:1;fill-rule:nonzero;stroke:none;stroke-width:1.72858;stroke-linecap:butt;stroke-linejoin:bevel;stroke-miterlimit:4;stroke-dasharray:none;stroke-dashoffset:0;stroke-opacity:1"
   d="M 7.5 2 A 5.5000019 5.5000019 0 0 0 2 7.5 A 5.5000019 5.5000019 0 0 0 7.5 13 A 5.5000019 5.5000019 0 0 0 11.017578 11.724609 L 13.863281 14.570312 L 14.570312 13.863281 L 11.726562 11.019531 A 5.5000019 5.5000019 0 0 0 13 7.5 A 5.5000019 5.5000019 0 0 0 7.5 2 z " />
</svg>
