<?xml version="1.0" encoding="UTF-8" standalone="no"?>
<svg
   xmlns:dc="http://purl.org/dc/elements/1.1/"
   xmlns:cc="http://creativecommons.org/ns#"
   xmlns:rdf="http://www.w3.org/1999/02/22-rdf-syntax-ns#"
   xmlns:svg="http://www.w3.org/2000/svg"
   xmlns="http://www.w3.org/2000/svg"
   xmlns:sodipodi="http://sodipodi.sourceforge.net/DTD/sodipodi-0.dtd"
   xmlns:inkscape="http://www.inkscape.org/namespaces/inkscape"
   viewBox="0 0 16 16"
   version="1.1"
   id="svg4"
   sodipodi:docname="sc_redactdoc.svg"
   inkscape:version="0.92.4 (5da689c313, 2019-01-14)">
  <metadata
     id="metadata10">
    <rdf:RDF>
      <cc:Work
         rdf:about="">
        <dc:format>image/svg+xml</dc:format>
        <dc:type
           rdf:resource="http://purl.org/dc/dcmitype/StillImage" />
      </cc:Work>
    </rdf:RDF>
  </metadata>
  <defs
     id="defs8" />
  <sodipodi:namedview
     pagecolor="#ffffff"
     bordercolor="#666666"
     borderopacity="1"
     objecttolerance="10"
     gridtolerance="10"
     guidetolerance="10"
     inkscape:pageopacity="0"
     inkscape:pageshadow="2"
     inkscape:window-width="1920"
     inkscape:window-height="1011"
     id="namedview6"
     showgrid="false"
     inkscape:zoom="29.5"
     inkscape:cx="1.7936728"
     inkscape:cy="10.129919"
     inkscape:window-x="0"
     inkscape:window-y="32"
     inkscape:window-maximized="1"
     inkscape:current-layer="svg4" />
  <path
     d="m 5,5 v 1 h 5 V 5 Z M 5,7 V 8 H 7 V 7 Z m 3,0 v 1 h 3 V 7 Z M 5,9 v 1 H 8 V 9 Z"
     id="path2"
     inkscape:connector-curvature="0"
     style="fill:#232629"
     sodipodi:nodetypes="cccccccccccccccccccc" />
  <path
     d="M 6.99237,14 C 5.7339799,13.9855 4.8131498,14.0306 4.0602799,13.61523 3.6838499,13.40757 3.3869499,13.05585 3.2222599,12.61719 3.0575699,12.17852 2.9999999,11.65761 2.9999999,11 V 4.9999999 c 0,-0.65761 0.06152,-1.17858 0.22626,-1.61719 0.1647099,-0.43861 0.46161,-0.78852 0.8380199,-0.99609 0.7528401,-0.41514 1.6738,-0.37165 2.9320902,-0.38672 h 0.002 2.0054001 0.004 c 1.2583799,0.0145 2.1792199,-0.0306 2.9320899,0.38477 0.37642,0.20766 0.67333,0.55938 0.83801,0.99804 C 12.94243,3.8214799 13,4.3423899 13,4.9999999 V 11 l -3,3 H 6.99605 Z m 0.006,-1 h 1.9995401 l 0.0021,-3 H 12.00001 l 0.0022,-5.0000001 c 2.61e-4,-0.59239 -0.0626,-1.00572 -0.16019,-1.26562 -0.0976,-0.25991 -0.20138,-0.37147 -0.38482,-0.47266 -0.36598,-0.20192 -1.19671,-0.24701 -2.45542,-0.26172 h -1.99386 -0.006 c -1.2588202,0.0152 -2.0894202,0.0599 -2.4554502,0.26172 -0.18345,0.10116 -0.28727,0.21286 -0.38482,0.47266 -0.0976,0.25979 -0.1598,0.67323 -0.16019,1.26562 L 3.9974598,11 c -3.9e-4,0.59239 0.0626,1.00572 0.16019,1.26562 0.0976,0.25991 0.20334,0.37147 0.3867799,0.47266 0.366,0.20191 1.19478,0.24702 2.4534903,0.26172 z"
     id="path2732-8-9-4"
     style="color:#000000;font-style:normal;font-variant:normal;font-weight:normal;font-stretch:normal;font-size:medium;line-height:normal;font-family:sans-serif;font-variant-ligatures:normal;font-variant-position:normal;font-variant-caps:normal;font-variant-numeric:normal;font-variant-alternates:normal;font-feature-settings:normal;text-indent:0;text-align:start;text-decoration:none;text-decoration-line:none;text-decoration-style:solid;text-decoration-color:#000000;letter-spacing:normal;word-spacing:normal;text-transform:none;writing-mode:lr-tb;direction:ltr;text-orientation:mixed;dominant-baseline:auto;baseline-shift:baseline;text-anchor:start;white-space:normal;shape-padding:0;clip-rule:nonzero;display:inline;overflow:visible;visibility:visible;opacity:1;isolation:auto;mix-blend-mode:normal;color-interpolation:sRGB;color-interpolation-filters:linearRGB;solid-color:#000000;solid-opacity:1;vector-effect:none;fill:#232629;fill-opacity:1;fill-rule:nonzero;stroke:none;stroke-width:1.00007653;stroke-linecap:butt;stroke-linejoin:miter;stroke-miterlimit:4;stroke-dasharray:none;stroke-dashoffset:0;stroke-opacity:1;marker:none;color-rendering:auto;image-rendering:auto;shape-rendering:auto;text-rendering:auto;enable-background:accumulate"
     inkscape:connector-curvature="0"
     sodipodi:nodetypes="cccsscsccccccsccccccccscccccccsscccc" />
</svg>
