<?xml version="1.0" encoding="UTF-8" standalone="no"?>
<svg
   xmlns:dc="http://purl.org/dc/elements/1.1/"
   xmlns:cc="http://creativecommons.org/ns#"
   xmlns:rdf="http://www.w3.org/1999/02/22-rdf-syntax-ns#"
   xmlns:svg="http://www.w3.org/2000/svg"
   xmlns="http://www.w3.org/2000/svg"
   xmlns:sodipodi="http://sodipodi.sourceforge.net/DTD/sodipodi-0.dtd"
   xmlns:inkscape="http://www.inkscape.org/namespaces/inkscape"
   viewBox="0 0 16 16"
   version="1.1"
   id="svg4"
   sodipodi:docname="sc_replycomment.svg"
   inkscape:version="0.92.4 (5da689c313, 2019-01-14)">
  <metadata
     id="metadata10">
    <rdf:RDF>
      <cc:Work
         rdf:about="">
        <dc:format>image/svg+xml</dc:format>
        <dc:type
           rdf:resource="http://purl.org/dc/dcmitype/StillImage" />
      </cc:Work>
    </rdf:RDF>
  </metadata>
  <defs
     id="defs8" />
  <sodipodi:namedview
     pagecolor="#ffffff"
     bordercolor="#666666"
     borderopacity="1"
     objecttolerance="10"
     gridtolerance="10"
     guidetolerance="10"
     inkscape:pageopacity="0"
     inkscape:pageshadow="2"
     inkscape:window-width="1920"
     inkscape:window-height="1011"
     id="namedview6"
     showgrid="false"
     inkscape:zoom="1"
     inkscape:cx="-240.50927"
     inkscape:cy="98.076524"
     inkscape:window-x="1920"
     inkscape:window-y="32"
     inkscape:window-maximized="1"
     inkscape:current-layer="svg4">
    <inkscape:grid
       type="xygrid"
       id="grid835" />
  </sodipodi:namedview>
  <path
     style="opacity:1;fill:#e95420;fill-opacity:1;fill-rule:nonzero;stroke:none;stroke-width:0.00106905;stroke-linecap:butt;stroke-linejoin:round;stroke-miterlimit:4;stroke-dasharray:none;stroke-dashoffset:0;stroke-opacity:1"
     d="m 5,2 c -2,0 -3,10e-8 -3,2 v 5 c 0,2.000001 1,2 3,2 h 6 V 10 H 5 c -1,0 -2,-4e-7 -2,-1 V 4 C 3,3.0000001 4,3 5,3 h 6 c 1,0 2,10e-8 2,1 v 5 h 1 V 4 C 14,2.0000001 13,2 11,2 Z M 4.5,5 C 4.2229999,5 4,5.223 4,5.5 4,5.777 4.2229999,6 4.5,6 h 7 C 11.777,6 12,5.777 12,5.5 12,5.223 11.777,5 11.5,5 Z m 0,2 C 4.2229999,7 4,7.223 4,7.5 4,7.777 4.2229999,8 4.5,8 h 7 C 11.777,8 12,7.777 12,7.5 12,7.223 11.777,7 11.5,7 Z"
     id="rect823"
     inkscape:connector-curvature="0"
     sodipodi:nodetypes="sssccccsssssccsssssssssssssssss" />
  <path
     id="path841"
     style="fill:#e95420;fill-opacity:1;stroke:none;stroke-width:1px;stroke-linecap:butt;stroke-linejoin:miter;stroke-opacity:1"
     d="m 9,13 h 1 c 1,0 2,0 2,-1 v -2 h 1 v 2 c 0,2 -1,2 -3,2 H 9 v -1 m 0,-1 v 3 L 6,13.5 Z"
     inkscape:connector-curvature="0" />
</svg>
