<?xml version="1.0" encoding="UTF-8" standalone="no"?>
<svg
   xmlns:dc="http://purl.org/dc/elements/1.1/"
   xmlns:cc="http://creativecommons.org/ns#"
   xmlns:rdf="http://www.w3.org/1999/02/22-rdf-syntax-ns#"
   xmlns:svg="http://www.w3.org/2000/svg"
   xmlns="http://www.w3.org/2000/svg"
   xmlns:sodipodi="http://sodipodi.sourceforge.net/DTD/sodipodi-0.dtd"
   xmlns:inkscape="http://www.inkscape.org/namespaces/inkscape"
   viewBox="0 0 16 16"
   version="1.1"
   id="svg6"
   sodipodi:docname="sc_spellonline.svg"
   inkscape:version="0.92.4 (5da689c313, 2019-01-14)"
   inkscape:export-filename="/home/jupiter007/Libreoffice yaru theme fullcolor/build/cmd/sc_spellonline.png"
   inkscape:export-xdpi="96"
   inkscape:export-ydpi="96">
  <metadata
     id="metadata12">
    <rdf:RDF>
      <cc:Work
         rdf:about="">
        <dc:format>image/svg+xml</dc:format>
        <dc:type
           rdf:resource="http://purl.org/dc/dcmitype/StillImage" />
      </cc:Work>
    </rdf:RDF>
  </metadata>
  <defs
     id="defs10" />
  <sodipodi:namedview
     pagecolor="#ffffff"
     bordercolor="#666666"
     borderopacity="1"
     objecttolerance="10"
     gridtolerance="10"
     guidetolerance="10"
     inkscape:pageopacity="0"
     inkscape:pageshadow="2"
     inkscape:window-width="1920"
     inkscape:window-height="1011"
     id="namedview8"
     showgrid="true"
     inkscape:zoom="29.5"
     inkscape:cx="4.1237753"
     inkscape:cy="7.6226135"
     inkscape:window-x="1920"
     inkscape:window-y="32"
     inkscape:window-maximized="1"
     inkscape:current-layer="svg6">
    <inkscape:grid
       type="xygrid"
       id="grid822" />
  </sodipodi:namedview>
  <path
     id="path826"
     fill="#0e8420"
     d="m11.5 9c-1.385003 0-2.5 1.114999-2.5 2.5 0 .433425.1199974.832863.3125 1.1875l.75-.75c-.041025-.1371-.0625-.286713-.0625-.4375 0-.830999.669-1.5 1.5-1.5.150788 0 .3004.02155.4375.0625l.75-.75c-.354638-.1925023-.754075-.3125-1.1875-.3125zm2.1875 1.3125-.75.75c.041025.1371.0625.286705.0625.4375 0 .830999-.669 1.5-1.5 1.5-.150795 0-.3004-.02155-.4375-.0625l-.75.75c.354645.192495.754067.3125 1.1875.3125 1.384996 0 2.5-1.115006 2.5-2.5 0-.433432-.119997-.832855-.3125-1.1875zm-11.6875 2.6875v1h7v-1z"
     style="fill:#ffffff;fill-opacity:1;stroke:#ffffff;stroke-opacity:1;stroke-width:2;stroke-miterlimit:4;stroke-dasharray:none;stroke-linejoin:round;stroke-linecap:round" />
  <path
     id="path828"
     fill="#232629"
     d="m7 2-4 10h1.46875l1.21875-3h3.3125 1.3125 1.5l-2.8125-7zm1 1.21875 1.90625 4.78125h-3.8125z"
     style="fill:#ffffff;fill-opacity:1;stroke:#ffffff;stroke-opacity:1;stroke-width:2;stroke-miterlimit:4;stroke-dasharray:none;stroke-linejoin:round;stroke-linecap:round" />
  <path
     style="fill:#ffffff;stroke:none;stroke-width:1px;stroke-linecap:butt;stroke-linejoin:miter;stroke-opacity:1;fill-opacity:1"
     d="M 8,3 C 8,3 3,13 3,13 h 11 z"
     id="path830"
     inkscape:connector-curvature="0" />
  <path
     d="m11.5 9c-1.385003 0-2.5 1.114999-2.5 2.5 0 .433425.1199974.832863.3125 1.1875l.75-.75c-.041025-.1371-.0625-.286713-.0625-.4375 0-.830999.669-1.5 1.5-1.5.150788 0 .3004.02155.4375.0625l.75-.75c-.354638-.1925023-.754075-.3125-1.1875-.3125zm2.1875 1.3125-.75.75c.041025.1371.0625.286705.0625.4375 0 .830999-.669 1.5-1.5 1.5-.150795 0-.3004-.02155-.4375-.0625l-.75.75c.354645.192495.754067.3125 1.1875.3125 1.384996 0 2.5-1.115006 2.5-2.5 0-.433432-.119997-.832855-.3125-1.1875zm-11.6875 2.6875v1h7v-1z"
     fill="#0e8420"
     id="path2" />
  <path
     d="m7 2-4 10h1.46875l1.21875-3h3.3125 1.3125 1.5l-2.8125-7zm1 1.21875 1.90625 4.78125h-3.8125z"
     fill="#232629"
     id="path4" />
</svg>
