<?xml version="1.0" encoding="UTF-8" standalone="no"?>
<svg
   xmlns:dc="http://purl.org/dc/elements/1.1/"
   xmlns:cc="http://creativecommons.org/ns#"
   xmlns:rdf="http://www.w3.org/1999/02/22-rdf-syntax-ns#"
   xmlns:svg="http://www.w3.org/2000/svg"
   xmlns="http://www.w3.org/2000/svg"
   xmlns:sodipodi="http://sodipodi.sourceforge.net/DTD/sodipodi-0.dtd"
   xmlns:inkscape="http://www.inkscape.org/namespaces/inkscape"
   viewBox="0 0 16 16"
   version="1.1"
   id="svg4"
   sodipodi:docname="sc_showallnotes.svg"
   inkscape:version="0.92.4 (5da689c313, 2019-01-14)">
  <metadata
     id="metadata10">
    <rdf:RDF>
      <cc:Work
         rdf:about="">
        <dc:format>image/svg+xml</dc:format>
        <dc:type
           rdf:resource="http://purl.org/dc/dcmitype/StillImage" />
      </cc:Work>
    </rdf:RDF>
  </metadata>
  <defs
     id="defs8" />
  <sodipodi:namedview
     pagecolor="#ffffff"
     bordercolor="#666666"
     borderopacity="1"
     objecttolerance="10"
     gridtolerance="10"
     guidetolerance="10"
     inkscape:pageopacity="0"
     inkscape:pageshadow="2"
     inkscape:window-width="1920"
     inkscape:window-height="1011"
     id="namedview6"
     showgrid="true"
     inkscape:zoom="20.85965"
     inkscape:cx="-8.0444257"
     inkscape:cy="15.29516"
     inkscape:window-x="0"
     inkscape:window-y="32"
     inkscape:window-maximized="1"
     inkscape:current-layer="svg4">
    <inkscape:grid
       type="xygrid"
       id="grid821" />
  </sodipodi:namedview>
  <path
     id="rect819"
     style="opacity:1;fill:#e95420;fill-opacity:1;fill-rule:nonzero;stroke:none;stroke-width:0.001;stroke-linecap:butt;stroke-linejoin:round;stroke-miterlimit:4;stroke-dasharray:none;stroke-dashoffset:0;stroke-opacity:1"
     d="m 6.500001,9.999937 h 5 c 0.277,0 0.499999,0.223 0.499999,0.5 0,0.277 -0.222999,0.5 -0.499999,0.5 h -5 c -0.277,0 -0.5,-0.223 -0.5,-0.5 0,-0.277 0.223,-0.5 0.5,-0.5 z M 5,8.999937 c -1,0 -2,0 -2,-1 v -3 c 0,-1 1,-1 2,-1 h 4 c 1,0 2,0 2,1 V 7 h 1 V 4.999937 c 0,-2 -1,-2 -3,-2 H 5 c -2,0 -3,0 -3,2 v 3 c 0,2 1,2 3,2 z m 1.5,-1 h 5 c 0.277,0 0.5,0.223 0.5,0.5 0,0.277 -0.223,0.5 -0.5,0.5 h -5 c -0.277,0 -0.5,-0.223 -0.5,-0.5 0,-0.277 0.223,-0.5 0.5,-0.5 z m 1.5,4 -1,1.26e-4 c -1,0 -2,0 -2,-1 v -3 c 0,-1 1,-1 2,-1 h 4 c 1,0 1.999999,0 1.999999,1 v 0.999874 2 c 0,1 -0.999999,1 -1.999999,1 z m 6,-3 V 8.000063 c 0,-2 -1.000001,-2 -3,-2 H 7 c -2,0 -3,0 -3,2 v 3 c 0,2 1,2 3,2 l 1,-1.26e-4 h 3 c 1.999999,0 2.999999,0 2.999999,-2 z"
     inkscape:connector-curvature="0"
     sodipodi:nodetypes="ssssssscsssscccsssssccsssssssccssssscssccsssssccssc" />
</svg>
