<?xml version="1.0" encoding="UTF-8" standalone="no"?>
<svg
   xmlns:dc="http://purl.org/dc/elements/1.1/"
   xmlns:cc="http://creativecommons.org/ns#"
   xmlns:rdf="http://www.w3.org/1999/02/22-rdf-syntax-ns#"
   xmlns:svg="http://www.w3.org/2000/svg"
   xmlns="http://www.w3.org/2000/svg"
   xmlns:xlink="http://www.w3.org/1999/xlink"
   xmlns:sodipodi="http://sodipodi.sourceforge.net/DTD/sodipodi-0.dtd"
   xmlns:inkscape="http://www.inkscape.org/namespaces/inkscape"
   viewBox="0 0 16 16"
   version="1.1"
   id="svg6"
   sodipodi:docname="sc_superscript.svg"
   inkscape:version="1.0.1 (3bc2e813f5, 2020-09-07)"
   inkscape:export-filename="/home/jupiter007/Libreoffice yaru theme fullcolor/build/cmd/sc_superscript.png"
   inkscape:export-xdpi="95"
   inkscape:export-ydpi="95">
  <metadata
     id="metadata12">
    <rdf:RDF>
      <cc:Work
         rdf:about="">
        <dc:format>image/svg+xml</dc:format>
        <dc:type
           rdf:resource="http://purl.org/dc/dcmitype/StillImage" />
        <dc:title></dc:title>
      </cc:Work>
    </rdf:RDF>
  </metadata>
  <defs
     id="defs10">
    <linearGradient
       inkscape:collect="always"
       xlink:href="#linearGradient861"
       id="linearGradient896"
       x1="8"
       y1="2"
       x2="8"
       y2="14"
       gradientUnits="userSpaceOnUse" />
    <linearGradient
       inkscape:collect="always"
       id="linearGradient861">
      <stop
         style="stop-color:#151515;stop-opacity:1"
         offset="0"
         id="stop857" />
      <stop
         style="stop-color:#4d4d4d;stop-opacity:1"
         offset="1"
         id="stop859" />
    </linearGradient>
  </defs>
  <sodipodi:namedview
     pagecolor="#808080"
     bordercolor="#666666"
     borderopacity="1"
     objecttolerance="10"
     gridtolerance="10"
     guidetolerance="10"
     inkscape:pageopacity="0"
     inkscape:pageshadow="2"
     inkscape:window-width="1920"
     inkscape:window-height="1043"
     id="namedview8"
     showgrid="true"
     inkscape:zoom="29.5"
     inkscape:cx="3.2346933"
     inkscape:cy="5.7218285"
     inkscape:window-x="1920"
     inkscape:window-y="0"
     inkscape:window-maximized="1"
     inkscape:current-layer="svg6"
     inkscape:document-rotation="0">
    <inkscape:grid
       type="xygrid"
       id="grid823" />
  </sodipodi:namedview>
  <path
     id="path897"
     style="color:#000000;font-style:normal;font-variant:normal;font-weight:normal;font-stretch:normal;font-size:medium;line-height:normal;font-family:sans-serif;font-variant-ligatures:normal;font-variant-position:normal;font-variant-caps:normal;font-variant-numeric:normal;font-variant-alternates:normal;font-variant-east-asian:normal;font-feature-settings:normal;font-variation-settings:normal;text-indent:0;text-align:start;text-decoration:none;text-decoration-line:none;text-decoration-style:solid;text-decoration-color:#000000;letter-spacing:normal;word-spacing:normal;text-transform:none;writing-mode:lr-tb;direction:ltr;text-orientation:mixed;dominant-baseline:auto;baseline-shift:baseline;text-anchor:start;white-space:normal;shape-padding:0;shape-margin:0;inline-size:0;clip-rule:nonzero;display:inline;overflow:visible;visibility:visible;isolation:auto;mix-blend-mode:normal;color-interpolation:sRGB;color-interpolation-filters:linearRGB;solid-color:#000000;solid-opacity:1;vector-effect:none;fill:#ffffff;fill-opacity:1;fill-rule:nonzero;stroke:none;stroke-width:2;stroke-linecap:square;stroke-linejoin:round;stroke-miterlimit:4;stroke-dasharray:none;stroke-dashoffset:0;stroke-opacity:1;color-rendering:auto;image-rendering:auto;shape-rendering:auto;text-rendering:auto;enable-background:accumulate;stop-color:#000000;stop-opacity:1;opacity:1"
     d="M 7.1777344 1 A 1.0001 1.0001 0 0 0 6.2675781 1.5878906 L 6.1347656 1.8789062 L 1.1347656 12.878906 L 0.92773438 13.333984 A 1.0001 1.0001 0 0 0 1.4238281 14.658203 L 2.3339844 15.072266 A 1.0001 1.0001 0 0 0 3.6582031 14.576172 L 3.8652344 14.121094 L 5.7382812 10 L 10.261719 10 L 12.134766 14.121094 L 12.341797 14.576172 A 1.0001 1.0001 0 0 0 13.666016 15.072266 L 14.576172 14.658203 A 1.0001 1.0001 0 0 0 15.072266 13.333984 L 14.865234 12.878906 L 11.738281 6 L 11 6 L 11 4.375 L 9.8652344 1.8789062 L 9.7324219 1.5878906 A 1.0001 1.0001 0 0 0 8.8222656 1 L 7.1777344 1 z M 8 5.0234375 L 8.8984375 7 L 7.1015625 7 L 8 5.0234375 z " />
  <path
     id="path875"
     style="color:#000000;font-style:normal;font-variant:normal;font-weight:normal;font-stretch:normal;font-size:medium;line-height:normal;font-family:sans-serif;font-variant-ligatures:normal;font-variant-position:normal;font-variant-caps:normal;font-variant-numeric:normal;font-variant-alternates:normal;font-variant-east-asian:normal;font-feature-settings:normal;font-variation-settings:normal;text-indent:0;text-align:start;text-decoration:none;text-decoration-line:none;text-decoration-style:solid;text-decoration-color:#000000;letter-spacing:normal;word-spacing:normal;text-transform:none;writing-mode:lr-tb;direction:ltr;text-orientation:mixed;dominant-baseline:auto;baseline-shift:baseline;text-anchor:start;white-space:normal;shape-padding:0;shape-margin:0;inline-size:0;clip-rule:nonzero;display:inline;overflow:visible;visibility:visible;opacity:1;isolation:auto;mix-blend-mode:normal;color-interpolation:sRGB;color-interpolation-filters:linearRGB;solid-color:#000000;solid-opacity:1;vector-effect:none;fill:url(#linearGradient896);fill-opacity:1;fill-rule:nonzero;stroke:none;stroke-width:1px;stroke-linecap:square;stroke-linejoin:miter;stroke-miterlimit:4;stroke-dasharray:none;stroke-dashoffset:0;stroke-opacity:1;color-rendering:auto;image-rendering:auto;shape-rendering:auto;text-rendering:auto;enable-background:accumulate;stop-color:#000000;stop-opacity:1"
     d="m 7.1777346,2 -0.1328125,0.2929688 -5,11.0000002 -0.2070313,0.455078 0.9101563,0.414062 L 2.9550783,13.707031 5.0937502,9 H 10.90625 l 2.138672,4.707031 0.207031,0.455078 0.910156,-0.414062 L 13.955078,13.292969 8.9550783,2.2929688 8.8222658,2 Z M 8.0000002,2.6074219 8.0449221,2.7070312 10.451172,8 H 5.5488283 l 2.40625,-5.2929688 z"
     sodipodi:nodetypes="ccccccccccccccccccccc" />
  <path
     d="m 12,0 v 5 h 1 1.5 C 15.32843,5 16,4.32843 16,3.5 16,2.9667 15.73181,2.48473 15.3125,2.21875 15.42796,2.00621 15.5,1.75888 15.5,1.5 15.5,0.67157 14.82844,0 14,0 h -1 z m 1,1 h 1 c 0.27614,0 0.5,0.22386 0.5,0.5 C 14.5,1.77614 14.27614,2 14,2 h -1 z m 0,2 h 1 0.5 C 14.77615,3 15,3.22386 15,3.5 15,3.77614 14.77615,4 14.5,4 H 13 Z"
     fill="#762572"
     id="path4"
     style="fill:#e95420;fill-opacity:1" />
</svg>
