<?xml version="1.0" encoding="UTF-8" standalone="no"?>
<svg
   xmlns:dc="http://purl.org/dc/elements/1.1/"
   xmlns:cc="http://creativecommons.org/ns#"
   xmlns:rdf="http://www.w3.org/1999/02/22-rdf-syntax-ns#"
   xmlns:svg="http://www.w3.org/2000/svg"
   xmlns="http://www.w3.org/2000/svg"
   xmlns:xlink="http://www.w3.org/1999/xlink"
   xmlns:sodipodi="http://sodipodi.sourceforge.net/DTD/sodipodi-0.dtd"
   xmlns:inkscape="http://www.inkscape.org/namespaces/inkscape"
   viewBox="0 0 16 16"
   version="1.1"
   id="svg4"
   sodipodi:docname="sc_scan.svg"
   inkscape:version="1.0.1 (3bc2e813f5, 2020-09-07)"
   inkscape:export-filename="/home/jupiter007/Libreoffice yaru theme fullcolor/build/cmd/sc_pagemode.png"
   inkscape:export-xdpi="95"
   inkscape:export-ydpi="95">
  <metadata
     id="metadata10">
    <rdf:RDF>
      <cc:Work
         rdf:about="">
        <dc:format>image/svg+xml</dc:format>
        <dc:type
           rdf:resource="http://purl.org/dc/dcmitype/StillImage" />
      </cc:Work>
    </rdf:RDF>
  </metadata>
  <defs
     id="defs8">
    <linearGradient
       inkscape:collect="always"
       xlink:href="#linearGradient906"
       id="linearGradient908"
       x1="11.338984"
       y1="13.38983"
       x2="11.338984"
       y2="9.3898296"
       gradientUnits="userSpaceOnUse"
       gradientTransform="translate(-8.3389843,-2.3898296)" />
    <linearGradient
       inkscape:collect="always"
       id="linearGradient906">
      <stop
         style="stop-color:#ff0000;stop-opacity:1"
         offset="0"
         id="stop902" />
      <stop
         style="stop-color:#000000;stop-opacity:0;"
         offset="1"
         id="stop904" />
    </linearGradient>
    <linearGradient
       inkscape:collect="always"
       xlink:href="#linearGradient906"
       id="linearGradient932"
       gradientUnits="userSpaceOnUse"
       x1="11.338984"
       y1="12.38983"
       x2="11.338984"
       y2="14.38983"
       gradientTransform="rotate(180,4.1694921,1.1949148)" />
  </defs>
  <sodipodi:namedview
     pagecolor="#ffffff"
     bordercolor="#666666"
     borderopacity="1"
     objecttolerance="10"
     gridtolerance="10"
     guidetolerance="10"
     inkscape:pageopacity="0"
     inkscape:pageshadow="2"
     inkscape:window-width="1920"
     inkscape:window-height="1011"
     id="namedview6"
     showgrid="true"
     inkscape:zoom="41.7193"
     inkscape:cx="5.4223617"
     inkscape:cy="7.4034522"
     inkscape:window-x="0"
     inkscape:window-y="32"
     inkscape:window-maximized="1"
     inkscape:current-layer="svg4"
     inkscape:document-rotation="0">
    <inkscape:grid
       type="xygrid"
       id="grid864" />
  </sodipodi:namedview>
  <path
     id="path835"
     style="fill:#ffffff;stroke:#000000;stroke-width:2;opacity:0.7"
     d="M 6 2 C 4 2 3 2 3 4 L 3 12 C 3 14 4 14 6 14 L 10 14 C 12 14 13 14 13 12 L 13 11 L 13 5 L 13 4 C 13 2 12 2 10 2 L 6 2 z " />
  <path
     id="path2"
     style="fill:#ffffff"
     d="M 6 2 C 4 2 3 2 3 4 L 3 12 C 3 14 4 14 6 14 L 10 14 C 12 14 13 14 13 12 L 13 11 L 13 5 L 13 4 C 13 2 12 2 10 2 L 6 2 z " />
  <rect
     style="display:inline;opacity:1;vector-effect:none;fill:#ff0000;fill-opacity:1;stroke:none;stroke-width:2;stroke-linecap:butt;stroke-linejoin:miter;stroke-miterlimit:4;stroke-dasharray:none;stroke-dashoffset:0;stroke-opacity:1;marker:none;enable-background:new"
     id="rect1330-2-8-9"
     width="10.000001"
     height="0.99999905"
     x="2.9999993"
     y="9.000001" />
  <rect
     style="opacity:0.71;fill:url(#linearGradient908);fill-opacity:1;fill-rule:evenodd;stroke:none;stroke-width:2;stroke-linecap:round;stroke-linejoin:round"
     id="rect900"
     width="10.000001"
     height="3.999999"
     x="2.9999993"
     y="7.000001" />
  <rect
     style="opacity:0.71;fill:url(#linearGradient932);fill-opacity:1;fill-rule:evenodd;stroke:none;stroke-width:2;stroke-linecap:round;stroke-linejoin:round"
     id="rect930"
     width="9.9999971"
     height="2"
     x="-13"
     y="-12"
     transform="scale(-1)" />
  <path
     id="path866"
     style="fill:#000000;opacity:0.4"
     d="M 3 10 L 3 12 C 3 14 4 14 6 14 L 10 14 C 12 14 13 14 13 12 L 13 11 L 13 10 L 3 10 z " />
  <g
     id="g3753"
     transform="matrix(0.38461538,0,0,0.38461538,-224.49769,-42.76923)"
     style="color:#bebebe;display:inline;fill:#1463a5;stroke-width:2.6;enable-background:new">
    <path
       id="path3751"
       word-spacing="0"
       style="font-weight:400;font-size:17.833px;line-height:125%;font-family:'DejaVu Serif';-inkscape-font-specification:'DejaVu Serif';letter-spacing:0;word-spacing:0;overflow:visible;fill:#5d5d5d;fill-opacity:1;stroke-width:2.6;marker:none"
       overflow="visible"
       letter-spacing="0"
       font-weight="400"
       font-size="17.833"
       d="m 599.875,119 -4.625,12 h -1.156 v 1 h 3.593 v -1 h -1.343 l 1.093,-3 h 5.469 l 1.063,3 h -1.282 v 1 h 4.594 v -1 H 606 l -4.656,-12 z m 0.281,2.094 2.406,5.906 h -4.781 z"
       inkscape:connector-curvature="0" />
  </g>
  <rect
     style="opacity:1;fill:#c8c4b7;fill-opacity:0.996078;fill-rule:evenodd;stroke:none;stroke-width:2;stroke-linecap:round;stroke-linejoin:round"
     id="rect934"
     width="4"
     height="1"
     x="8"
     y="3" />
  <rect
     style="opacity:1;fill:#c8c4b7;fill-opacity:0.996078;fill-rule:evenodd;stroke:none;stroke-width:2;stroke-linecap:round;stroke-linejoin:round"
     id="rect886"
     width="3"
     height="1"
     x="9"
     y="5" />
  <rect
     style="opacity:1;fill:#c8c4b7;fill-opacity:0.996078;fill-rule:evenodd;stroke:none;stroke-width:2;stroke-linecap:round;stroke-linejoin:round"
     id="rect888"
     width="2"
     height="1"
     x="10"
     y="7" />
</svg>
