<?xml version="1.0" encoding="UTF-8" standalone="no"?>
<svg
   xmlns:dc="http://purl.org/dc/elements/1.1/"
   xmlns:cc="http://creativecommons.org/ns#"
   xmlns:rdf="http://www.w3.org/1999/02/22-rdf-syntax-ns#"
   xmlns:svg="http://www.w3.org/2000/svg"
   xmlns="http://www.w3.org/2000/svg"
   xmlns:sodipodi="http://sodipodi.sourceforge.net/DTD/sodipodi-0.dtd"
   xmlns:inkscape="http://www.inkscape.org/namespaces/inkscape"
   viewBox="0 0 16 16"
   version="1.1"
   id="svg6"
   sodipodi:docname="sc_spelling.svg"
   inkscape:version="0.92.4 (5da689c313, 2019-01-14)"
   inkscape:export-filename="/home/jupiter007/Libreoffice yaru theme fullcolor/build/cmd/sc_spelling.png"
   inkscape:export-xdpi="96"
   inkscape:export-ydpi="96">
  <metadata
     id="metadata12">
    <rdf:RDF>
      <cc:Work
         rdf:about="">
        <dc:format>image/svg+xml</dc:format>
        <dc:type
           rdf:resource="http://purl.org/dc/dcmitype/StillImage" />
      </cc:Work>
    </rdf:RDF>
  </metadata>
  <defs
     id="defs10" />
  <sodipodi:namedview
     pagecolor="#ffffff"
     bordercolor="#666666"
     borderopacity="1"
     objecttolerance="10"
     gridtolerance="10"
     guidetolerance="10"
     inkscape:pageopacity="0"
     inkscape:pageshadow="2"
     inkscape:window-width="1920"
     inkscape:window-height="1011"
     id="namedview8"
     showgrid="true"
     inkscape:zoom="10.429825"
     inkscape:cx="-13.631063"
     inkscape:cy="0.85390996"
     inkscape:window-x="0"
     inkscape:window-y="32"
     inkscape:window-maximized="1"
     inkscape:current-layer="svg6">
    <inkscape:grid
       type="xygrid"
       id="grid822" />
  </sodipodi:namedview>
  <path
     inkscape:connector-curvature="0"
     id="path814"
     d="M 6.3828125,2 2,13 H 3.3574219 L 4.546875,10 h 4.9277345 l 0.384765,1 H 11.226563 L 7.7480469,2 Z M 7.0625,3.328125 C 7.17566,3.7042047 7.7739746,5.4100918 8.859375,8.4433594 L 9.0839844,9 H 4.9414062 Z"
     style="fill:#ffffff;fill-opacity:1;stroke:#ffffff;stroke-width:2;stroke-linejoin:round;stroke-miterlimit:4;stroke-dasharray:none;stroke-opacity:1" />
  <path
     inkscape:connector-curvature="0"
     d="M 6.3828125,2 2,13 H 3.3574219 L 4.546875,10 h 4.9277345 l 0.384765,1 H 11.226563 L 7.7480469,2 Z M 7.0625,3.328125 C 7.17566,3.7042047 7.7739746,5.4100918 8.859375,8.4433594 L 9.0839844,9 H 4.9414062 Z"
     id="path4-3"
     style="fill:#232629;fill-opacity:1" />
  <path
     style="fill:#0e8420;fill-opacity:1;stroke:none;stroke-width:0.68900001;stroke-linecap:round;stroke-linejoin:round;stroke-opacity:1"
     inkscape:connector-curvature="0"
     id="path19"
     d="m 15.136504,6.8644071 c -0.15,-0.056 -0.323,-0.02 -0.44,0.103 L 9.6665036,12.262407 7.1265038,9.8494069 c -0.164,-0.158 -0.423,-0.154 -0.58,0.012 l -1.433,1.5200001 c -0.157,0.165 -0.15,0.426 0.014,0.583 l 4.0399998,3.924 c 0.038,0.037 0.082,0.062 0.13,0.08 0.15,0.063 0.33,0.032 0.452,-0.095 L 16.529504,8.7304069 c 0.16,-0.165 0.153,-0.426 -0.012,-0.584 l -1.242,-1.1949998 c -0.04,-0.04 -0.09,-0.07 -0.14,-0.087 z" />
</svg>
