<?xml version="1.0" encoding="UTF-8" standalone="no"?>
<svg
   xmlns:dc="http://purl.org/dc/elements/1.1/"
   xmlns:cc="http://creativecommons.org/ns#"
   xmlns:rdf="http://www.w3.org/1999/02/22-rdf-syntax-ns#"
   xmlns:svg="http://www.w3.org/2000/svg"
   xmlns="http://www.w3.org/2000/svg"
   xmlns:sodipodi="http://sodipodi.sourceforge.net/DTD/sodipodi-0.dtd"
   xmlns:inkscape="http://www.inkscape.org/namespaces/inkscape"
   viewBox="0 0 16 16"
   version="1.1"
   id="svg4"
   sodipodi:docname="sc_showtwopages.svg"
   inkscape:version="0.92.4 (5da689c313, 2019-01-14)"><metadata
   id="metadata10">
  <rdf:RDF>
    <cc:Work
       rdf:about="">
      <dc:format>image/svg+xml</dc:format>
      <dc:type
         rdf:resource="http://purl.org/dc/dcmitype/StillImage" />
    </cc:Work>
  </rdf:RDF>
</metadata>
<defs
   id="defs8" />
<sodipodi:namedview
   pagecolor="#ffffff"
   bordercolor="#666666"
   borderopacity="1"
   objecttolerance="10"
   gridtolerance="10"
   guidetolerance="10"
   inkscape:pageopacity="0"
   inkscape:pageshadow="2"
   inkscape:window-width="1920"
   inkscape:window-height="1011"
   id="namedview6"
   showgrid="true"
   inkscape:zoom="41.7193"
   inkscape:cx="10.065043"
   inkscape:cy="7.7232189"
   inkscape:window-x="0"
   inkscape:window-y="32"
   inkscape:window-maximized="1"
   inkscape:current-layer="svg4">
  <inkscape:grid
     type="xygrid"
     id="grid823" />
</sodipodi:namedview>
/&gt;<path
   d="M 11.992359,2 C 10.733969,2.0145 9.813139,1.9694 9.060269,2.38477 8.683839,2.59243 8.386939,2.94415 8.222249,3.38281 8.057559,3.82148 7.99999,4.3423899 7.99999,5 v 6 c 0,0.65761 0.06152,1.17858 0.226259,1.61719 0.16471,0.43861 0.46161,0.78852 0.83802,0.99609 0.75284,0.41514 1.6738,0.37165 2.93209,0.38672 h 0.002 0.0054 0.004 c 1.25838,-0.0145 2.17922,0.0306 2.93209,-0.38477 0.37642,-0.20766 0.67333,-0.55938 0.83801,-0.99804 C 15.94242,12.17852 15.99999,11.65761 15.99999,11 V 5 l -3,-3 h -1.003951 z m 0.006,1 H 11.9979 L 12,6 h 3 l 0.0022,5 c 2.61e-4,0.59239 -0.0626,1.00572 -0.16019,1.26562 -0.0976,0.25991 -0.20138,0.37147 -0.38482,0.47266 C 14.09121,12.9402 13.26048,12.98529 12.00177,13 h 0.0061 -0.006 C 10.743089,12.9848 9.912489,12.9401 9.546459,12.73828 9.363009,12.63712 9.259189,12.52542 9.161639,12.26562 9.064039,12.00583 9.0018439,11.59239 9.001449,11 l -0.004,-6 C 8.9970541,4.40761 9.060049,3.99428 9.157639,3.73438 9.255239,3.47447 9.360979,3.36291 9.544419,3.26172 9.910419,3.05981 10.739199,3.0147 11.997909,3 Z"
   id="path2732-8-9-4"
   style="color:#000000;font-style:normal;font-variant:normal;font-weight:normal;font-stretch:normal;font-size:medium;line-height:normal;font-family:sans-serif;font-variant-ligatures:normal;font-variant-position:normal;font-variant-caps:normal;font-variant-numeric:normal;font-variant-alternates:normal;font-feature-settings:normal;text-indent:0;text-align:start;text-decoration:none;text-decoration-line:none;text-decoration-style:solid;text-decoration-color:#000000;letter-spacing:normal;word-spacing:normal;text-transform:none;writing-mode:lr-tb;direction:ltr;text-orientation:mixed;dominant-baseline:auto;baseline-shift:baseline;text-anchor:start;white-space:normal;shape-padding:0;clip-rule:nonzero;display:inline;overflow:visible;visibility:visible;opacity:1;isolation:auto;mix-blend-mode:normal;color-interpolation:sRGB;color-interpolation-filters:linearRGB;solid-color:#000000;solid-opacity:1;vector-effect:none;fill:#232629;fill-opacity:1;fill-rule:nonzero;stroke:none;stroke-width:1.00007653;stroke-linecap:butt;stroke-linejoin:miter;stroke-miterlimit:4;stroke-dasharray:none;stroke-dashoffset:0;stroke-opacity:1;marker:none;color-rendering:auto;image-rendering:auto;shape-rendering:auto;text-rendering:auto;enable-background:accumulate"
   inkscape:connector-curvature="0"
   sodipodi:nodetypes="cccsscsccccccsccccccccscccccccsscccc" />
<path
   sodipodi:nodetypes="cccsscsccccccsccccccccscccccccsscccc"
   inkscape:connector-curvature="0"
   style="color:#000000;font-style:normal;font-variant:normal;font-weight:normal;font-stretch:normal;font-size:medium;line-height:normal;font-family:sans-serif;font-variant-ligatures:normal;font-variant-position:normal;font-variant-caps:normal;font-variant-numeric:normal;font-variant-alternates:normal;font-feature-settings:normal;text-indent:0;text-align:start;text-decoration:none;text-decoration-line:none;text-decoration-style:solid;text-decoration-color:#000000;letter-spacing:normal;word-spacing:normal;text-transform:none;writing-mode:lr-tb;direction:ltr;text-orientation:mixed;dominant-baseline:auto;baseline-shift:baseline;text-anchor:start;white-space:normal;shape-padding:0;clip-rule:nonzero;display:inline;overflow:visible;visibility:visible;opacity:1;isolation:auto;mix-blend-mode:normal;color-interpolation:sRGB;color-interpolation-filters:linearRGB;solid-color:#000000;solid-opacity:1;vector-effect:none;fill:#232629;fill-opacity:1;fill-rule:nonzero;stroke:none;stroke-width:1.00007653;stroke-linecap:butt;stroke-linejoin:miter;stroke-miterlimit:4;stroke-dasharray:none;stroke-dashoffset:0;stroke-opacity:1;marker:none;color-rendering:auto;image-rendering:auto;shape-rendering:auto;text-rendering:auto;enable-background:accumulate"
   id="path825"
   d="M 3.992359,2 C 2.733969,2.0145 1.813139,1.9694 1.060269,2.38477 0.683839,2.59243 0.386939,2.94415 0.222249,3.38281 0.057559,3.82148 -10e-6,4.3423899 -10e-6,5 v 6 c 0,0.65761 0.06152,1.17858 0.226259,1.61719 0.16471,0.43861 0.46161,0.78852 0.83802,0.99609 0.75284,0.41514 1.6738,0.37165 2.93209,0.38672 h 0.002 0.0054 0.004 c 1.25838,-0.0145 2.17922,0.0306 2.93209,-0.38477 0.37642,-0.20766 0.67333,-0.55938 0.83801,-0.99804 C 7.94242,12.17852 7.99999,11.65761 7.99999,11 V 5 l -3,-3 H 3.996039 Z m 0.006,1 H 3.9979 L 4,6 h 3 l 0.0022,5 c 2.61e-4,0.59239 -0.0626,1.00572 -0.16019,1.26562 -0.0976,0.25991 -0.20138,0.37147 -0.38482,0.47266 C 6.09121,12.9402 5.26048,12.98529 4.00177,13 h 0.0061 -0.006 C 2.743089,12.9848 1.912489,12.9401 1.546459,12.73828 1.363009,12.63712 1.259189,12.52542 1.161639,12.26562 1.064039,12.00583 1.0018439,11.59239 1.001449,11 l -0.004,-6 C 0.9970541,4.40761 1.060049,3.99428 1.157639,3.73438 1.255239,3.47447 1.360979,3.36291 1.544419,3.26172 1.910419,3.05981 2.739199,3.0147 3.997909,3 Z" />
</svg>
