<?xml version="1.0" encoding="UTF-8" standalone="no"?>
<svg
   xmlns:dc="http://purl.org/dc/elements/1.1/"
   xmlns:cc="http://creativecommons.org/ns#"
   xmlns:rdf="http://www.w3.org/1999/02/22-rdf-syntax-ns#"
   xmlns:svg="http://www.w3.org/2000/svg"
   xmlns="http://www.w3.org/2000/svg"
   xmlns:sodipodi="http://sodipodi.sourceforge.net/DTD/sodipodi-0.dtd"
   xmlns:inkscape="http://www.inkscape.org/namespaces/inkscape"
   viewBox="0 0 16 16"
   version="1.1"
   id="svg4"
   sodipodi:docname="sc_setdocumentproperties.svg"
   inkscape:version="0.92.4 (5da689c313, 2019-01-14)"><metadata
   id="metadata10">
  <rdf:RDF>
    <cc:Work
       rdf:about="">
      <dc:format>image/svg+xml</dc:format>
      <dc:type
         rdf:resource="http://purl.org/dc/dcmitype/StillImage" />
    </cc:Work>
  </rdf:RDF>
</metadata>
<defs
   id="defs8" />
<sodipodi:namedview
   pagecolor="#ffffff"
   bordercolor="#666666"
   borderopacity="1"
   objecttolerance="10"
   gridtolerance="10"
   guidetolerance="10"
   inkscape:pageopacity="0"
   inkscape:pageshadow="2"
   inkscape:window-width="1920"
   inkscape:window-height="1011"
   id="namedview6"
   showgrid="true"
   inkscape:zoom="14.75"
   inkscape:cx="4.4175972"
   inkscape:cy="19.517624"
   inkscape:window-x="0"
   inkscape:window-y="32"
   inkscape:window-maximized="1"
   inkscape:current-layer="svg4">
  <inkscape:grid
     type="xygrid"
     id="grid823" />
</sodipodi:namedview>
/&gt;<path
   id="rect825"
   style="opacity:1;fill:#232629;fill-opacity:1;fill-rule:nonzero;stroke:none;stroke-width:0.001;stroke-linecap:butt;stroke-linejoin:round;stroke-miterlimit:4;stroke-dasharray:none;stroke-dashoffset:0;stroke-opacity:1"
   d="M 6.5,8 C 5.669,8 5,8.669 5,9.5 5,10.331 5.669,11 6.5,11 h 3 C 10.331,11 11,10.331 11,9.5 11,8.669 10.331,8 9.5,8 Z m 2,1 h 1 C 9.777,9 10,9.223 10,9.5 10,9.777 9.777,10 9.5,10 h -1 C 8.223,10 8,9.777 8,9.5 8,9.223 8.223,9 8.5,9 Z M 6.9923698,2 c -1.25839,0.0145 -2.17922,-0.0306 -2.93209,0.3847701 -0.37643,0.20766 -0.67333,0.55938 -0.83802,0.99804 C 3.0575698,3.8214801 3,4.3423899 3,5 v 6 c 0,0.65761 0.06152,1.17858 0.2262598,1.61719 0.16471,0.43861 0.46161,0.78852 0.83802,0.99609 0.75284,0.41514 1.6738,0.37165 2.93209,0.38672 h 0.002 2.0054002 0.004 c 1.25838,-0.0145 2.17922,0.0306 2.93209,-0.38477 0.37642,-0.20766 0.67333,-0.55938 0.83801,-0.99804 C 12.94243,12.17852 13,11.65761 13,11 V 5 L 10,2 H 6.9960499 Z m 0.006,1.0000001 H 8.9979099 L 9.0000099,6 H 12.00001 l 0.0022,5 c 2.61e-4,0.59239 -0.0626,1.00572 -0.16019,1.26562 -0.0976,0.25991 -0.20138,0.37147 -0.38482,0.47266 C 11.09122,12.9402 10.26049,12.98529 9.00178,13 h -1.9938602 -0.006 c -1.25882,-0.0152 -2.08942,-0.0599 -2.45545,-0.26172 -0.18345,-0.10116 -0.28727,-0.21286 -0.38482,-0.47266 -0.0976,-0.25979 -0.1598,-0.67323 -0.16019,-1.26562 l -0.004,-6 c -3.9e-4,-0.59239 0.0626,-1.0057199 0.16019,-1.2656199 0.0976,-0.25991 0.20334,-0.37147 0.38678,-0.47266 0.366,-0.20191 1.19478,-0.24702 2.45349,-0.26172 z" />
</svg>
