<?xml version="1.0" encoding="UTF-8" standalone="no"?>
<svg
   xmlns:dc="http://purl.org/dc/elements/1.1/"
   xmlns:cc="http://creativecommons.org/ns#"
   xmlns:rdf="http://www.w3.org/1999/02/22-rdf-syntax-ns#"
   xmlns:svg="http://www.w3.org/2000/svg"
   xmlns="http://www.w3.org/2000/svg"
   xmlns:sodipodi="http://sodipodi.sourceforge.net/DTD/sodipodi-0.dtd"
   xmlns:inkscape="http://www.inkscape.org/namespaces/inkscape"
   viewBox="0 0 16 16"
   version="1.1"
   id="svg18"
   sodipodi:docname="sc_subscript.svg"
   inkscape:version="0.92.4 (5da689c313, 2019-01-14)"
   inkscape:export-filename="/home/jupiter007/Téléchargements/libreoffice yaru/images_breeze/cmd/sc_subscript.png"
   inkscape:export-xdpi="95"
   inkscape:export-ydpi="95">
  <metadata
     id="metadata24">
    <rdf:RDF>
      <cc:Work
         rdf:about="">
        <dc:format>image/svg+xml</dc:format>
        <dc:type
           rdf:resource="http://purl.org/dc/dcmitype/StillImage" />
      </cc:Work>
    </rdf:RDF>
  </metadata>
  <defs
     id="defs22" />
  <sodipodi:namedview
     pagecolor="#ffffff"
     bordercolor="#666666"
     borderopacity="1"
     objecttolerance="10"
     gridtolerance="10"
     guidetolerance="10"
     inkscape:pageopacity="0"
     inkscape:pageshadow="2"
     inkscape:window-width="1920"
     inkscape:window-height="1011"
     id="namedview20"
     showgrid="false"
     inkscape:zoom="14.75"
     inkscape:cx="8"
     inkscape:cy="8"
     inkscape:window-x="0"
     inkscape:window-y="32"
     inkscape:window-maximized="1"
     inkscape:current-layer="svg18" />
  <path
     d="m6.3828125 2-4.3828125 11h1.3574219l1.1894531-3h4.453125.4746094.5253906v-1-1.171875l-2.2519531-5.828125zm.6796875 1.328125c.11316.37608.711475 2.0819644 1.796875 5.1152344l.2246094.5566406h-4.1425782z"
     fill="#232629"
     id="path14" />
  <path
     d="m11 9v5h1 1.5c.82843 0 1.5-.67157 1.5-1.5 0-.5333-.26819-1.01527-.6875-1.28125.11546-.21254.1875-.45987.1875-.71875 0-.82843-.67156-1.5-1.5-1.5h-1zm1 1h1c.27614 0 .5.22386.5.5s-.22386.5-.5.5h-1zm0 2h1 .5c.27615 0 .5.22386.5.5s-.22385.5-.5.5h-1.5z"
     fill="#762572"
     id="path16"
     style="fill:#762572;fill-opacity:1" />
</svg>
