<?xml version="1.0" encoding="UTF-8" standalone="no"?>
<svg
   xmlns:dc="http://purl.org/dc/elements/1.1/"
   xmlns:cc="http://creativecommons.org/ns#"
   xmlns:rdf="http://www.w3.org/1999/02/22-rdf-syntax-ns#"
   xmlns:svg="http://www.w3.org/2000/svg"
   xmlns="http://www.w3.org/2000/svg"
   xmlns:sodipodi="http://sodipodi.sourceforge.net/DTD/sodipodi-0.dtd"
   xmlns:inkscape="http://www.inkscape.org/namespaces/inkscape"
   viewBox="0 0 16 16"
   version="1.1"
   id="svg4"
   sodipodi:docname="sc_slidemasterpage.svg"
   inkscape:version="0.92.4 (5da689c313, 2019-01-14)">
  <metadata
     id="metadata10">
    <rdf:RDF>
      <cc:Work
         rdf:about="">
        <dc:format>image/svg+xml</dc:format>
        <dc:type
           rdf:resource="http://purl.org/dc/dcmitype/StillImage" />
      </cc:Work>
    </rdf:RDF>
  </metadata>
  <defs
     id="defs8" />
  <sodipodi:namedview
     pagecolor="#ffffff"
     bordercolor="#666666"
     borderopacity="1"
     objecttolerance="10"
     gridtolerance="10"
     guidetolerance="10"
     inkscape:pageopacity="0"
     inkscape:pageshadow="2"
     inkscape:window-width="1920"
     inkscape:window-height="1011"
     id="namedview6"
     showgrid="true"
     inkscape:zoom="20.85965"
     inkscape:cx="-6.2719787"
     inkscape:cy="2.0384622"
     inkscape:window-x="0"
     inkscape:window-y="32"
     inkscape:window-maximized="1"
     inkscape:current-layer="svg4">
    <inkscape:grid
       type="xygrid"
       id="grid830" />
  </sodipodi:namedview>
  <path
     d="M 12 7 L 11 8 L 10 9 L 8 11 L 8 12 L 8 13 L 10 13 L 10.59375 12.40625 L 11 12 L 12 11 L 13 10 L 14 9 L 12 7 z M 11.6875 8.6875 L 12.28125 9.28125 L 12 9.5625 L 10.59375 10.96875 L 10.59375 11 L 9.3125 12.28125 L 8.71875 11.6875 L 10.59375 9.78125 L 11.6875 8.6875 z "
     id="path819"
     style="fill:#762572;fill-opacity:1" />
  <path
     d="m 13,7.0079198 v -0.006 c -0.0152,-1.25882 -0.0599,-2.08942 -0.26172,-2.45545 -0.10116,-0.18345 -0.21286,-0.28727 -0.47266,-0.38482 C 12.00583,4.0640498 11.59239,4.0018501 11,4.0014601 l -5.9999998,-0.004 c -0.59239,-3.9e-4 -1.00572,0.0626 -1.26562,0.1601897 -0.25991,0.0976 -0.37147,0.20334 -0.47266,0.38678 -0.20191,0.366 -0.24702,1.19478 -0.26172,2.45349 v 4.5e-4 1.99954 l 3,0.0021 V 12.00001 L 7,12 v 0.999102 L 5.0000002,13 l -3,-3.0000001 v -3.00395 -0.00368 c 0.0145,-1.2583899 -0.0306,-2.17922 0.38477,-2.9320899 0.20766,-0.3764297 0.55938,-0.6733297 0.99804,-0.8380197 0.43867,-0.16469 0.95958,-0.22226 1.61719,-0.22226 H 11 c 0.65761,0 1.17858,0.06152 1.61719,0.22626 0.43861,0.1647099 0.78852,0.46161 0.99609,0.8380196 C 14.02842,4.81712 13.98493,5.7380799 14,6.99637 L 14,8 Z"
     id="path2732-8-9-4"
     style="color:#000000;font-style:normal;font-variant:normal;font-weight:normal;font-stretch:normal;font-size:medium;line-height:normal;font-family:sans-serif;font-variant-ligatures:normal;font-variant-position:normal;font-variant-caps:normal;font-variant-numeric:normal;font-variant-alternates:normal;font-feature-settings:normal;text-indent:0;text-align:start;text-decoration:none;text-decoration-line:none;text-decoration-style:solid;text-decoration-color:#000000;letter-spacing:normal;word-spacing:normal;text-transform:none;writing-mode:lr-tb;direction:ltr;text-orientation:mixed;dominant-baseline:auto;baseline-shift:baseline;text-anchor:start;white-space:normal;shape-padding:0;clip-rule:nonzero;display:inline;overflow:visible;visibility:visible;opacity:1;isolation:auto;mix-blend-mode:normal;color-interpolation:sRGB;color-interpolation-filters:linearRGB;solid-color:#000000;solid-opacity:1;vector-effect:none;fill:#762572;fill-opacity:1;fill-rule:nonzero;stroke:none;stroke-width:1.00007653;stroke-linecap:butt;stroke-linejoin:miter;stroke-miterlimit:4;stroke-dasharray:none;stroke-dashoffset:0;stroke-opacity:1;marker:none;color-rendering:auto;image-rendering:auto;shape-rendering:auto;text-rendering:auto;enable-background:accumulate"
     inkscape:connector-curvature="0"
     sodipodi:nodetypes="ccccsscccccccccccccccsscsccc" />
</svg>
