<?xml version="1.0" encoding="UTF-8" standalone="no"?>
<svg
   xmlns:dc="http://purl.org/dc/elements/1.1/"
   xmlns:cc="http://creativecommons.org/ns#"
   xmlns:rdf="http://www.w3.org/1999/02/22-rdf-syntax-ns#"
   xmlns:svg="http://www.w3.org/2000/svg"
   xmlns="http://www.w3.org/2000/svg"
   xmlns:sodipodi="http://sodipodi.sourceforge.net/DTD/sodipodi-0.dtd"
   xmlns:inkscape="http://www.inkscape.org/namespaces/inkscape"
   viewBox="0 0 16 16"
   version="1.1"
   id="svg6"
   sodipodi:docname="sc_subtitleparastyle.svg"
   inkscape:version="1.0.1 (3bc2e813f5, 2020-09-07)"
   inkscape:export-filename="/home/jupiter007/Libreoffice yaru theme fullcolor/build/cmd/sc_subtitleparastyle.png"
   inkscape:export-xdpi="96"
   inkscape:export-ydpi="96">
  <metadata
     id="metadata12">
    <rdf:RDF>
      <cc:Work
         rdf:about="">
        <dc:format>image/svg+xml</dc:format>
        <dc:type
           rdf:resource="http://purl.org/dc/dcmitype/StillImage" />
      </cc:Work>
    </rdf:RDF>
  </metadata>
  <defs
     id="defs10" />
  <sodipodi:namedview
     pagecolor="#ffffff"
     bordercolor="#666666"
     borderopacity="1"
     objecttolerance="10"
     gridtolerance="10"
     guidetolerance="10"
     inkscape:pageopacity="0"
     inkscape:pageshadow="2"
     inkscape:window-width="1920"
     inkscape:window-height="1011"
     id="namedview8"
     showgrid="true"
     inkscape:zoom="29.5"
     inkscape:cx="4.2413022"
     inkscape:cy="10.452178"
     inkscape:window-x="0"
     inkscape:window-y="0"
     inkscape:window-maximized="1"
     inkscape:current-layer="svg6"
     inkscape:document-rotation="0">
    <inkscape:grid
       type="xygrid"
       id="grid833" />
  </sodipodi:namedview>
  <path
     style="opacity:0.7;fill:#000000;stroke:#000000;stroke-width:2;stroke-linejoin:round;stroke-miterlimit:4;stroke-dasharray:none"
     id="path822"
     fill="#232629"
     d="M 7,14 H 5 V 4 H 1 V 2 H 11 V 4 H 7 Z" />
  <path
     d="M 7,14 H 5 V 4 H 1 V 2 H 11 V 4 H 7 Z"
     fill="#232629"
     id="path2"
     style="fill:#ffffff" />
  <path
     id="path841"
     style="opacity:0.7;fill:#000000;fill-opacity:1;fill-rule:evenodd;stroke:#000000;stroke-width:2;stroke-linecap:round;stroke-linejoin:round;stroke-miterlimit:4;stroke-dasharray:none"
     d="m 12,6.0000003 c -0.833333,0 -1.469348,0.3610764 -1.929688,0.6679688 -0.460338,0.3068923 -0.7773429,0.6249999 -0.7773429,0.625 a 1,1 0 0 0 0,1.4140629 1,1 0 0 0 1.4140619,0 c 0,0 0.182994,-0.181893 0.472657,-0.3750005 C 11.469348,8.1389239 11.833333,8.0000003 12,8.0000003 c 0.745356,0 0.837909,0.207139 0.919922,0.6289067 0.08201,0.421767 -0.09411,1.131217 -0.626953,1.664062 l -2.9999999,3 a 1,1 0 0 0 -0.292969,0.71875 V 15 H 9.970703 15 v -2 h -2.585938 l 1.292969,-1.292969 C 14.674186,10.739876 15.116783,9.449327 14.882812,8.2460941 14.648843,7.0428613 13.490712,6.0000003 12,6.0000003 Z" />
  <path
     id="rect867"
     style="opacity:1;fill:#aee3f8;fill-opacity:1;fill-rule:evenodd;stroke:none;stroke-width:2;stroke-linecap:round;stroke-linejoin:round;stroke-miterlimit:4;stroke-dasharray:none"
     d="m 12,6.0000003 c -0.833333,0 -1.469348,0.3610764 -1.929688,0.6679688 -0.460338,0.3068923 -0.7773429,0.6249999 -0.7773429,0.625 a 1,1 0 0 0 0,1.4140629 1,1 0 0 0 1.4140619,0 c 0,0 0.182994,-0.181893 0.472657,-0.3750005 C 11.469348,8.1389239 11.833333,8.0000003 12,8.0000003 c 0.745356,0 0.837909,0.207139 0.919922,0.6289067 0.08201,0.421767 -0.09411,1.131217 -0.626953,1.664062 l -2.9999999,3 a 1,1 0 0 0 -0.292969,0.71875 V 15 H 9.970703 15 v -2 h -2.585938 l 1.292969,-1.292969 C 14.674186,10.739876 15.116783,9.449327 14.882812,8.2460941 14.648843,7.0428613 13.490712,6.0000003 12,6.0000003 Z" />
</svg>
