<?xml version="1.0" encoding="UTF-8" standalone="no"?>
<svg
   xmlns:dc="http://purl.org/dc/elements/1.1/"
   xmlns:cc="http://creativecommons.org/ns#"
   xmlns:rdf="http://www.w3.org/1999/02/22-rdf-syntax-ns#"
   xmlns:svg="http://www.w3.org/2000/svg"
   xmlns="http://www.w3.org/2000/svg"
   xmlns:sodipodi="http://sodipodi.sourceforge.net/DTD/sodipodi-0.dtd"
   xmlns:inkscape="http://www.inkscape.org/namespaces/inkscape"
   viewBox="0 0 16 16"
   version="1.1"
   id="svg6"
   sodipodi:docname="sc_thesaurusdialog.svg"
   inkscape:version="0.92.4 (5da689c313, 2019-01-14)">
  <metadata
     id="metadata12">
    <rdf:RDF>
      <cc:Work
         rdf:about="">
        <dc:format>image/svg+xml</dc:format>
        <dc:type
           rdf:resource="http://purl.org/dc/dcmitype/StillImage" />
      </cc:Work>
    </rdf:RDF>
  </metadata>
  <defs
     id="defs10" />
  <sodipodi:namedview
     pagecolor="#ffffff"
     bordercolor="#666666"
     borderopacity="1"
     objecttolerance="10"
     gridtolerance="10"
     guidetolerance="10"
     inkscape:pageopacity="0"
     inkscape:pageshadow="2"
     inkscape:window-width="1920"
     inkscape:window-height="1011"
     id="namedview8"
     showgrid="true"
     inkscape:zoom="41.7193"
     inkscape:cx="4.0366896"
     inkscape:cy="6.9008499"
     inkscape:window-x="0"
     inkscape:window-y="32"
     inkscape:window-maximized="1"
     inkscape:current-layer="svg6">
    <inkscape:grid
       type="xygrid"
       id="grid832" />
  </sodipodi:namedview>
  <path
     style="color:#000000;font-style:normal;font-variant:normal;font-weight:normal;font-stretch:normal;font-size:medium;line-height:normal;font-family:sans-serif;font-variant-ligatures:normal;font-variant-position:normal;font-variant-caps:normal;font-variant-numeric:normal;font-variant-alternates:normal;font-feature-settings:normal;text-indent:0;text-align:start;text-decoration:none;text-decoration-line:none;text-decoration-style:solid;text-decoration-color:#000000;letter-spacing:normal;word-spacing:normal;text-transform:none;writing-mode:lr-tb;direction:ltr;text-orientation:mixed;dominant-baseline:auto;baseline-shift:baseline;text-anchor:start;white-space:normal;shape-padding:0;clip-rule:nonzero;display:inline;overflow:visible;visibility:visible;opacity:1;isolation:auto;mix-blend-mode:normal;color-interpolation:sRGB;color-interpolation-filters:linearRGB;solid-color:#000000;solid-opacity:1;vector-effect:none;fill:#232629;fill-opacity:1;fill-rule:nonzero;stroke:none;stroke-width:1.00000012;stroke-linecap:butt;stroke-linejoin:miter;stroke-miterlimit:4;stroke-dasharray:none;stroke-dashoffset:0;stroke-opacity:1;marker:none;color-rendering:auto;image-rendering:auto;shape-rendering:auto;text-rendering:auto;enable-background:accumulate"
     d="M 9.0058594,1 C 10.264059,1.0145 11.18475,0.96939564 11.9375,1.3847656 c 0.37637,0.20766 0.673231,0.5593869 0.837891,0.9980469 C 12.940061,2.8214825 13,3.34239 13,4 v 8 c 0,0.65761 -0.0599,1.178576 -0.224609,1.617188 -0.16468,0.438609 -0.461531,0.788523 -0.837891,0.996093 C 11.18478,15.028411 10.263959,14.98493 9.0058594,15 H 9.0039062 7 6 5.9980469 5.9941406 C 4.735951,14.9855 3.81525,15.030604 3.0625,14.615234 2.68613,14.407574 2.389279,14.055847 2.224609,13.617188 2.060079,13.178516 2,12.65761 2,12 V 4 C 2,3.34239 2.059899,2.8214225 2.224609,2.3828125 2.389289,1.9442025 2.68614,1.5942887 3.0625,1.3867188 3.81522,0.9715887 4.736051,1.01507 5.9941406,1 H 5.9960938 6 7 9.0019531 Z M 9,2 H 7 V 14 H 8.9941406 9 c 1.25863,-0.0152 2.089098,-0.0599 2.455078,-0.261719 0.18342,-0.10116 0.287226,-0.212856 0.384766,-0.472656 C 11.937394,13.005835 12,12.59239 12,12 V 4 C 12,3.40761 11.937404,2.994275 11.839844,2.734375 11.742244,2.474465 11.636535,2.3629088 11.453125,2.2617188 11.087175,2.0598087 10.25852,2.0147 9,2 Z M 6,2 C 4.74138,2.0152 3.910902,2.0598988 3.544922,2.2617188 3.361502,2.3628787 3.257696,2.474575 3.160156,2.734375 3.062756,2.994165 3,3.40761 3,4 v 8 c 0,0.59239 0.062596,1.005725 0.160156,1.265625 0.0976,0.25991 0.201356,0.371466 0.384766,0.472656 C 3.910882,13.940201 4.74148,13.98529 6,14 Z M 4.5,5 A 0.5,0.5 0 0 1 5,5.5 0.5,0.5 0 0 1 4.5,6 0.5,0.5 0 0 1 4,5.5 0.5,0.5 0 0 1 4.5,5 Z m 0,5 A 0.5,0.5 0 0 1 5,10.5 0.5,0.5 0 0 1 4.5,11 0.5,0.5 0 0 1 4,10.5 0.5,0.5 0 0 1 4.5,10 Z"
     id="path2732-8-1-7"
     inkscape:connector-curvature="0" />
</svg>
