<?xml version="1.0" encoding="UTF-8" standalone="no"?>
<svg
   xmlns:dc="http://purl.org/dc/elements/1.1/"
   xmlns:cc="http://creativecommons.org/ns#"
   xmlns:rdf="http://www.w3.org/1999/02/22-rdf-syntax-ns#"
   xmlns:svg="http://www.w3.org/2000/svg"
   xmlns="http://www.w3.org/2000/svg"
   xmlns:sodipodi="http://sodipodi.sourceforge.net/DTD/sodipodi-0.dtd"
   xmlns:inkscape="http://www.inkscape.org/namespaces/inkscape"
   viewBox="0 0 16 16"
   version="1.1"
   id="svg4"
   sodipodi:docname="sc_templatemanager.svg"
   inkscape:version="0.92.4 (5da689c313, 2019-01-14)">
  <metadata
     id="metadata10">
    <rdf:RDF>
      <cc:Work
         rdf:about="">
        <dc:format>image/svg+xml</dc:format>
        <dc:type
           rdf:resource="http://purl.org/dc/dcmitype/StillImage" />
      </cc:Work>
    </rdf:RDF>
  </metadata>
  <defs
     id="defs8" />
  <sodipodi:namedview
     pagecolor="#ffffff"
     bordercolor="#666666"
     borderopacity="1"
     objecttolerance="10"
     gridtolerance="10"
     guidetolerance="10"
     inkscape:pageopacity="0"
     inkscape:pageshadow="2"
     inkscape:window-width="1920"
     inkscape:window-height="1011"
     id="namedview6"
     showgrid="true"
     inkscape:zoom="59"
     inkscape:cx="7.4506762"
     inkscape:cy="5.3919681"
     inkscape:window-x="0"
     inkscape:window-y="32"
     inkscape:window-maximized="1"
     inkscape:current-layer="svg4">
    <inkscape:grid
       type="xygrid"
       id="grid823" />
  </sodipodi:namedview>
  <path
     d="M 11.5,9 11.021484,10.345703 9.7324219,9.7324219 10.345703,11.021484 9,11.5 10.345703,11.978516 9.7324219,13.267578 11.021484,12.654297 11.5,14 11.978516,12.654297 13.267578,13.267578 12.654297,11.978516 14,11.5 12.654297,11.021484 13.267578,9.7324219 11.978516,10.345703 Z"
     id="path2"
     inkscape:connector-curvature="0"
     style="fill:#232629"
     sodipodi:nodetypes="ccccccccccccccccc" />
  <path
     d="m 7.00792,13 h -0.006 C 5.7431,12.9848 4.9125,12.9401 4.54647,12.73828 4.36302,12.63712 4.2592,12.52542 4.16165,12.26562 4.06405,12.00583 4.00185,11.59239 4.00146,11 l -0.004,-5.9999999 c -3.9e-4,-0.59239 0.0626,-1.00572 0.16019,-1.26562 0.0976,-0.25991 0.20334,-0.37147 0.38678,-0.47266 0.366,-0.20191 1.19478,-0.24702 2.45349,-0.26172 h 4.5e-4 1.99954 l 0.0021,3 h 3 L 12.000898,8 H 13 V 5.0000001 l -3,-3 H 6.99605 6.99237 c -1.25839,0.0145 -2.17922,-0.0306 -2.93209,0.38477 -0.37643,0.2076601 -0.67333,0.55938 -0.83802,0.99804 C 3.05757,3.8214801 3,4.3423901 3,5.0000001 V 11 c 0,0.65761 0.06152,1.17858 0.22626,1.61719 0.16471,0.43861 0.46161,0.78852 0.83802,0.99609 C 4.81712,14.02842 5.73808,13.98493 6.99637,14 H 6.99837 8 v -1 z"
     id="path2732-8-9-4"
     style="color:#000000;font-style:normal;font-variant:normal;font-weight:normal;font-stretch:normal;font-size:medium;line-height:normal;font-family:sans-serif;font-variant-ligatures:normal;font-variant-position:normal;font-variant-caps:normal;font-variant-numeric:normal;font-variant-alternates:normal;font-feature-settings:normal;text-indent:0;text-align:start;text-decoration:none;text-decoration-line:none;text-decoration-style:solid;text-decoration-color:#000000;letter-spacing:normal;word-spacing:normal;text-transform:none;writing-mode:lr-tb;direction:ltr;text-orientation:mixed;dominant-baseline:auto;baseline-shift:baseline;text-anchor:start;white-space:normal;shape-padding:0;clip-rule:nonzero;display:inline;overflow:visible;visibility:visible;opacity:1;isolation:auto;mix-blend-mode:normal;color-interpolation:sRGB;color-interpolation-filters:linearRGB;solid-color:#000000;solid-opacity:1;vector-effect:none;fill:#232629;fill-opacity:1;fill-rule:nonzero;stroke:none;stroke-width:1.00007653;stroke-linecap:butt;stroke-linejoin:miter;stroke-miterlimit:4;stroke-dasharray:none;stroke-dashoffset:0;stroke-opacity:1;marker:none;color-rendering:auto;image-rendering:auto;shape-rendering:auto;text-rendering:auto;enable-background:accumulate"
     inkscape:connector-curvature="0"
     sodipodi:nodetypes="ccccsscccccccccccccccsscsccccc" />
</svg>
