<?xml version="1.0" encoding="UTF-8" standalone="no"?>
<svg
   xmlns:dc="http://purl.org/dc/elements/1.1/"
   xmlns:cc="http://creativecommons.org/ns#"
   xmlns:rdf="http://www.w3.org/1999/02/22-rdf-syntax-ns#"
   xmlns:svg="http://www.w3.org/2000/svg"
   xmlns="http://www.w3.org/2000/svg"
   xmlns:sodipodi="http://sodipodi.sourceforge.net/DTD/sodipodi-0.dtd"
   xmlns:inkscape="http://www.inkscape.org/namespaces/inkscape"
   viewBox="0 0 16 16"
   version="1.1"
   id="svg4"
   sodipodi:docname="sc_viewformasgrid.svg"
   inkscape:version="0.92.4 (5da689c313, 2019-01-14)"><metadata
   id="metadata10">
  <rdf:RDF>
    <cc:Work
       rdf:about="">
      <dc:format>image/svg+xml</dc:format>
      <dc:type
         rdf:resource="http://purl.org/dc/dcmitype/StillImage" />
    </cc:Work>
  </rdf:RDF>
</metadata>
<defs
   id="defs8" />
<sodipodi:namedview
   pagecolor="#ffffff"
   bordercolor="#666666"
   borderopacity="1"
   objecttolerance="10"
   gridtolerance="10"
   guidetolerance="10"
   inkscape:pageopacity="0"
   inkscape:pageshadow="2"
   inkscape:window-width="1920"
   inkscape:window-height="1011"
   id="namedview6"
   showgrid="true"
   inkscape:zoom="7.375"
   inkscape:cx="4.6805458"
   inkscape:cy="43.269122"
   inkscape:window-x="0"
   inkscape:window-y="32"
   inkscape:window-maximized="1"
   inkscape:current-layer="svg4">
  <inkscape:grid
     type="xygrid"
     id="grid817" />
</sodipodi:namedview>
/&gt;<path
   d="m 2,3 c 0,2 1,2 3,2 h 5.991525 C 13,5 14,5 14,3 14,1 13,1 11,1 H 5 C 3,1 2,1 2,3 Z M 5,2 H 6 V 4 H 5 C 4,4 3,4 3,3 3,2 4,2 5,2 Z M 7,2 H 9 V 4 H 7 Z m 3,0 h 1 c 1,0 2,0 2,1 0,1 -1,1 -1.991525,1 H 10 Z M 7.40625,6 C 7.2010477,6.0068012 7.0125546,6.0167013 6.8125,6.03125 5.1035452,6.1679181 3.4088201,6.4641232 2.125,7.625 2.0828522,7.6881367 2.0529526,7.7479971 2.03125,7.8125 2.01315,7.8733226 1.9990938,7.9384763 2,8 v 4 c 0.007,0.66405 0.77174,0.98126 1,1.09375 C 4.08093,13.64536 6.02343,13.997 8,14 9.97657,13.997 11.91907,13.64536 13,13.09375 13.22826,12.98126 13.993,12.66405 14,12 V 8 C 14,7.93455 13.990453,7.8770029 13.96875,7.8125 13.947047,7.7479971 13.917148,7.6881367 13.875,7.625 12.673931,6.3967978 10.799053,6.2124952 9.1875,6.03125 9.177003,6.0304866 9.166763,6.0319927 9.15625,6.03125 8.7774304,6.0031516 8.3926988,6 8,6 7.80224,5.997 7.604,5.997 7.40625,6 Z m -0.3125,1 c 0.0208,-3e-5 0.0417,-3e-5 0.0625,0 C 7.43683,6.995 7.71942,6.995 8,7 8.28058,6.995 8.56317,6.995 8.84375,7 c 0.0208,-3e-5 0.0417,-3e-5 0.0625,0 1.652539,0.060841 3.037827,0.3171962 3.6875,0.625 0.13211,0.059147 0.242254,0.1243633 0.3125,0.1875 C 12.966789,7.8746462 13.005272,7.9361953 13,8 13,8.5236 10.61799,9 8,9 5.38201,9 3,8.5236 3,8 2.9947277,7.9361953 3.0332109,7.8746462 3.09375,7.8125 3.1587605,7.7457637 3.2737754,7.6877642 3.40625,7.625 4.0559226,7.3171962 5.4412111,7.0608411 7.09375,7 Z M 3,9.09375 C 4.08093,9.64536 6.02343,9.997 8,10 9.97657,9.997 11.91907,9.64536 13,9.09375 V 12 c 0,0.5236 -2.38201,1 -5,1 -2.61799,0 -5,-0.4764 -5,-1 z"
   id="path2"
   inkscape:connector-curvature="0"
   style="fill:#232629"
   sodipodi:nodetypes="ccccccccccccccccccccccccccccccccccsscccccccccccccscssccccsssc" />
</svg>
