<?xml version="1.0" encoding="UTF-8" standalone="no"?>
<svg
   xmlns:dc="http://purl.org/dc/elements/1.1/"
   xmlns:cc="http://creativecommons.org/ns#"
   xmlns:rdf="http://www.w3.org/1999/02/22-rdf-syntax-ns#"
   xmlns:svg="http://www.w3.org/2000/svg"
   xmlns="http://www.w3.org/2000/svg"
   xmlns:sodipodi="http://sodipodi.sourceforge.net/DTD/sodipodi-0.dtd"
   xmlns:inkscape="http://www.inkscape.org/namespaces/inkscape"
   viewBox="0 0 16 16"
   version="1.1"
   id="svg4"
   sodipodi:docname="sc_verticaltext.svg"
   inkscape:export-filename="/home/jupiter007/Libreoffice yaru theme fullcolor/build/cmd/sc_verticaltext.png"
   inkscape:export-xdpi="95"
   inkscape:export-ydpi="95"
   inkscape:version="1.0.1 (3bc2e813f5, 2020-09-07)"><metadata
   id="metadata10">
  <rdf:RDF>
    <cc:Work
       rdf:about="">
      <dc:format>image/svg+xml</dc:format>
      <dc:type
         rdf:resource="http://purl.org/dc/dcmitype/StillImage" />
    </cc:Work>
  </rdf:RDF>
</metadata>
<defs
   id="defs8" />
<sodipodi:namedview
   pagecolor="#ffffff"
   bordercolor="#666666"
   borderopacity="1"
   objecttolerance="10"
   gridtolerance="10"
   guidetolerance="10"
   inkscape:pageopacity="0"
   inkscape:pageshadow="2"
   inkscape:window-width="1920"
   inkscape:window-height="1011"
   id="namedview6"
   showgrid="false"
   inkscape:zoom="14.75"
   inkscape:cx="0.44067797"
   inkscape:cy="8"
   inkscape:window-x="0"
   inkscape:window-y="0"
   inkscape:window-maximized="1"
   inkscape:current-layer="svg4"
   inkscape:document-rotation="0" />


/&gt;<g
   id="g850"
   transform="rotate(90,4.779661,18.40678)">
  <path
     sodipodi:nodetypes="cccscsccccccccscscccccc"
     inkscape:connector-curvature="0"
     id="path4237-1-7"
     d="m -9.6305478,8.1668617 c -1.2582002,0.0145 -2.1788912,-0.030604 -2.9316412,0.3847655 -0.37637,0.20766 -0.673231,0.5593869 -0.837891,0.9980469 -0.16467,0.4386701 -0.251606,0.9601419 -0.224609,1.6171879 v 1.488281 6.550877 c 0,0.65761 0.0599,1.178578 0.224609,1.617189 0.16468,0.438611 0.461531,0.788524 0.837891,0.996093 0.75272,0.41513 1.673541,0.371649 2.9316412,0.386718 h 0.002 8.0058092 0.0039 c 1.25818995,-0.0145 2.17889095,0.0306 2.931641,-0.384767 0.37637,-0.20766 0.673221,-0.559386 0.837891,-0.998046 0.164539,-0.43867 0.224618,-0.959577 0.224618,-1.617187 v -6.572361 -1.466797 c 0,-0.6576 -0.0599,-1.1785777 -0.224609,-1.6171878 C 1.9860224,9.1110741 1.6891714,8.7611403 1.3128114,8.5535804 0.56004135,8.1384505 -0.36078965,8.1819417 -1.6188796,8.1668617 h -0.002 -8.0058092 z"
     style="font-style:normal;font-variant:normal;font-weight:normal;font-stretch:normal;font-size:15px;line-height:125%;font-family:Ubuntu;-inkscape-font-specification:Ubuntu;text-align:center;letter-spacing:0px;word-spacing:0px;writing-mode:lr-tb;text-anchor:middle;display:inline;opacity:0.6;fill:#000000;fill-opacity:1;stroke:none;stroke-width:0.999802" />
  <path
     inkscape:connector-curvature="0"
     id="path1993-8"
     d="m -5.6413448,9.1940464 c -1.556581,0.010796 -4.109965,-0.011752 -5.6599162,0.038775 -0.461229,0.042668 -1.016188,0.2064194 -1.15534,0.7099669 -0.218994,0.6353467 -0.108414,1.3337867 -0.145796,1.9819247 -0.0078,2.297084 -0.02297,5.635003 0.02152,7.924355 0.0391,0.461928 0.202551,1.012665 0.698756,1.163665 0.632456,0.225082 1.284144,0.12274 1.9359742,0.154299 1.424235,0.0068 3.850538,0.01102 5.276395,0.01131 1.7045312,3.49e-4 2.4083632,-0.005 4.10716515,-0.01851 0.511911,-0.01201 1.183699,0.01993 1.58474505,-0.405191 0.421097,-0.539783 0.287073,-1.268022 0.322745,-1.903787 0.01187,-2.444323 0.02769,-5.94967 -0.0219,-8.39537 -0.049276,-0.40204 -0.169992,-0.8629518 -0.57513905,-1.044475 -0.668169,-0.2940975 -1.426205,-0.168019 -2.12592095,-0.2055728 -1.754407,-0.011802 -2.5088491,-0.012484 -4.2632882,-0.01139 z"
     style="opacity:1;vector-effect:none;fill:#fa9381;fill-opacity:1;stroke:none;stroke-width:1;stroke-linecap:round;stroke-linejoin:bevel;stroke-miterlimit:4;stroke-dasharray:none;stroke-dashoffset:0;stroke-opacity:1"
     sodipodi:nodetypes="cccccccsccccccc" />
  <rect
     style="opacity:1;fill:#ffffff;fill-opacity:1;stroke:none;stroke-width:2;stroke-linecap:round;stroke-linejoin:round;stroke-miterlimit:4;stroke-dasharray:none;stroke-opacity:1"
     id="rect834"
     width="8"
     height="2"
     x="-9.6271191"
     y="12.18644" />
  <rect
     style="opacity:1;fill:#ffffff;fill-opacity:1;stroke:none;stroke-width:2;stroke-linecap:round;stroke-linejoin:round;stroke-miterlimit:4;stroke-dasharray:none;stroke-opacity:1"
     id="rect836"
     width="2"
     height="5"
     x="-6.6271186"
     y="14.18644" />
</g>
</svg>
