<?xml version="1.0" encoding="UTF-8" standalone="no"?>
<svg
   xmlns:dc="http://purl.org/dc/elements/1.1/"
   xmlns:cc="http://creativecommons.org/ns#"
   xmlns:rdf="http://www.w3.org/1999/02/22-rdf-syntax-ns#"
   xmlns:svg="http://www.w3.org/2000/svg"
   xmlns="http://www.w3.org/2000/svg"
   xmlns:sodipodi="http://sodipodi.sourceforge.net/DTD/sodipodi-0.dtd"
   xmlns:inkscape="http://www.inkscape.org/namespaces/inkscape"
   viewBox="0 0 16 16"
   version="1.1"
   id="svg6"
   sodipodi:docname="sc_wrapleft.svg"
   inkscape:version="1.0.1 (3bc2e813f5, 2020-09-07)"
   inkscape:export-filename="/home/jupiter007/Libreoffice yaru theme fullcolor/build/cmd/sc_wrapleft.png"
   inkscape:export-xdpi="96"
   inkscape:export-ydpi="96">
  <metadata
     id="metadata12">
    <rdf:RDF>
      <cc:Work
         rdf:about="">
        <dc:format>image/svg+xml</dc:format>
        <dc:type
           rdf:resource="http://purl.org/dc/dcmitype/StillImage" />
        <dc:title />
      </cc:Work>
    </rdf:RDF>
  </metadata>
  <defs
     id="defs10" />
  <sodipodi:namedview
     pagecolor="#808080"
     bordercolor="#666666"
     borderopacity="1"
     objecttolerance="10"
     gridtolerance="10"
     guidetolerance="10"
     inkscape:pageopacity="0"
     inkscape:pageshadow="2"
     inkscape:window-width="1920"
     inkscape:window-height="1016"
     id="namedview8"
     showgrid="true"
     inkscape:zoom="41.7193"
     inkscape:cx="8.2107272"
     inkscape:cy="7.1825422"
     inkscape:window-x="1920"
     inkscape:window-y="27"
     inkscape:window-maximized="1"
     inkscape:current-layer="svg6"
     inkscape:document-rotation="0">
    <inkscape:grid
       type="xygrid"
       id="grid846" />
  </sodipodi:namedview>
  <path
     inkscape:connector-curvature="0"
     style="opacity:0.7;fill:#000000;fill-opacity:1;stroke:#000000;stroke-width:2;stroke-linejoin:round;stroke-miterlimit:4;stroke-dasharray:none"
     id="path4547"
     d="M 14,11 V 4 H 8 v 7 z"
     sodipodi:nodetypes="ccccc" />
  <path
     d="M 14,11 V 4 H 8 v 7 z"
     id="path4"
     style="fill:#d85eca;fill-opacity:1;stroke-width:0.75"
     inkscape:connector-curvature="0"
     sodipodi:nodetypes="ccccc" />
  <path
     id="rect862"
     style="fill:#232629;fill-opacity:1;fill-rule:evenodd;stroke-width:2;stroke-linecap:round;stroke-linejoin:round"
     d="M 0 3 L 0 4 L 3 4 L 6 4 L 6 3 L 3 3 L 0 3 z " />
  <path
     id="rect864"
     style="fill:#ffffff;fill-opacity:1;fill-rule:evenodd;stroke-width:2;stroke-linecap:round;stroke-linejoin:round"
     d="M 0 4 L 0 5 L 3 5 L 6 5 L 6 4 L 3 4 L 0 4 z " />
  <path
     id="rect866"
     style="fill:#232629;fill-opacity:1;fill-rule:evenodd;stroke-width:2;stroke-linecap:round;stroke-linejoin:round"
     d="M 0 11 L 0 12 L 3 12 L 6 12 L 6 11 L 3 11 L 0 11 z " />
  <path
     id="rect868"
     style="fill:#ffffff;fill-opacity:1;fill-rule:evenodd;stroke-width:2;stroke-linecap:round;stroke-linejoin:round"
     d="M 0 10 L 0 11 L 3 11 L 6 11 L 6 10 L 3 10 L 0 10 z " />
  <path
     id="rect894"
     style="fill:#232629;fill-opacity:1;fill-rule:evenodd;stroke-width:2;stroke-linecap:round;stroke-linejoin:round"
     d="M 0 5 L 0 6 L 3 6 L 6 6 L 6 5 L 3 5 L 0 5 z " />
  <path
     id="rect896"
     style="fill:#ffffff;fill-opacity:1;fill-rule:evenodd;stroke-width:2;stroke-linecap:round;stroke-linejoin:round"
     d="M 0 6 L 0 7 L 3 7 L 6 7 L 6 6 L 3 6 L 0 6 z " />
  <path
     id="rect898"
     style="fill:#232629;fill-opacity:1;fill-rule:evenodd;stroke-width:2;stroke-linecap:round;stroke-linejoin:round"
     d="M 0 9 L 0 10 L 3 10 L 6 10 L 6 9 L 3 9 L 0 9 z " />
  <path
     id="rect900"
     style="fill:#ffffff;fill-opacity:1;fill-rule:evenodd;stroke-width:2;stroke-linecap:round;stroke-linejoin:round"
     d="M 0 8 L 0 9 L 3 9 L 6 9 L 6 8 L 3 8 L 0 8 z " />
  <rect
     style="fill:#232629;fill-opacity:1;fill-rule:evenodd;stroke-width:2;stroke-linecap:round;stroke-linejoin:round"
     id="rect912"
     width="16"
     height="1"
     x="0"
     y="-14"
     transform="scale(1,-1)" />
  <rect
     style="fill:#ffffff;fill-opacity:1;fill-rule:evenodd;stroke-width:2;stroke-linecap:round;stroke-linejoin:round"
     id="rect914"
     width="16"
     height="1"
     x="0"
     y="-13"
     transform="scale(1,-1)" />
  <rect
     style="fill:#232629;fill-opacity:1;fill-rule:evenodd;stroke-width:2;stroke-linecap:round;stroke-linejoin:round"
     id="rect834-2"
     width="16"
     height="1"
     x="0"
     y="1.0000001" />
  <rect
     style="fill:#ffffff;fill-opacity:1;fill-rule:evenodd;stroke-width:2;stroke-linecap:round;stroke-linejoin:round"
     id="rect836-7"
     width="16"
     height="1"
     x="0"
     y="2.0000002" />
  <path
     id="rect920"
     style="fill:#232629;fill-opacity:1;fill-rule:evenodd;stroke-width:2;stroke-linecap:round;stroke-linejoin:round"
     d="M 0 7 L 0 8 L 3 8 L 6 8 L 6 7 L 3 7 L 0 7 z " />
</svg>
