<?xml version="1.0" encoding="UTF-8" standalone="no"?>
<svg
   xmlns:dc="http://purl.org/dc/elements/1.1/"
   xmlns:cc="http://creativecommons.org/ns#"
   xmlns:rdf="http://www.w3.org/1999/02/22-rdf-syntax-ns#"
   xmlns:svg="http://www.w3.org/2000/svg"
   xmlns="http://www.w3.org/2000/svg"
   xmlns:sodipodi="http://sodipodi.sourceforge.net/DTD/sodipodi-0.dtd"
   xmlns:inkscape="http://www.inkscape.org/namespaces/inkscape"
   viewBox="0 0 16 16"
   version="1.1"
   id="svg4"
   sodipodi:docname="sc_wordcountdialog.svg"
   inkscape:version="0.92.5 (2060ec1f9f, 2020-04-08)"
   inkscape:export-filename="/home/jupiter007/Libreoffice yaru theme fullcolor/build/cmd/sc_wordcountdialog.png"
   inkscape:export-xdpi="96"
   inkscape:export-ydpi="96"><metadata
   id="metadata10">
  <rdf:RDF>
    <cc:Work
       rdf:about="">
      <dc:format>image/svg+xml</dc:format>
      <dc:type
         rdf:resource="http://purl.org/dc/dcmitype/StillImage" />
    </cc:Work>
  </rdf:RDF>
</metadata>
<defs
   id="defs8" />
<sodipodi:namedview
   pagecolor="#ffffff"
   bordercolor="#666666"
   borderopacity="1"
   objecttolerance="10"
   gridtolerance="10"
   guidetolerance="10"
   inkscape:pageopacity="0"
   inkscape:pageshadow="2"
   inkscape:window-width="1920"
   inkscape:window-height="1011"
   id="namedview6"
   showgrid="true"
   inkscape:zoom="29.5"
   inkscape:cx="3.7446645"
   inkscape:cy="8.8582336"
   inkscape:window-x="0"
   inkscape:window-y="32"
   inkscape:window-maximized="1"
   inkscape:current-layer="svg4">
  <inkscape:grid
     type="xygrid"
     id="grid817" />
</sodipodi:namedview>
/&gt;<path
   inkscape:connector-curvature="0"
   id="path814"
   d="M 6.382765,2 1.9999525,13 H 3.3573744 L 4.5468275,10 H 9.474562 l 0.3847654,1 H 11.226515 L 7.7479994,2 Z m 0.6796875,1.328125 c 0.11316,0.3760797 0.7114746,2.0819668 1.796875,5.1152344 L 9.0839369,9 H 4.9413587 Z"
   style="fill:#ffffff;fill-opacity:1;stroke:#ffffff;stroke-width:2;stroke-linejoin:round;stroke-miterlimit:4;stroke-dasharray:none;stroke-opacity:1" />
<path
   inkscape:connector-curvature="0"
   d="M 6.382765,2 1.9999525,13 H 3.3573744 L 4.5468275,10 H 9.474562 l 0.3847654,1 H 11.226515 L 7.7479994,2 Z m 0.6796875,1.328125 c 0.11316,0.3760797 0.7114746,2.0819668 1.796875,5.1152344 L 9.0839369,9 H 4.9413587 Z"
   id="path4-3"
   style="fill:#232629;fill-opacity:1" />
<path
   sodipodi:nodetypes="cccccccccccccccccccccccccccccccccc"
   style="opacity:0.8;fill:#ffffff;fill-opacity:1;stroke:#ffffff;stroke-width:2;stroke-linejoin:round;stroke-miterlimit:4;stroke-dasharray:none"
   inkscape:connector-curvature="0"
   id="path858"
   d="m 10,9 v 1 H 9 v 1 h 1 v 2 H 9 v 1 h 1 v 1 h 1 v -1 h 2 v 1 h 1 v -1 h 1 v -1 h -1 v -2 h 1 V 10 H 14 V 9 h -1 v 1 H 11 V 9 Z m 1,2 h 2 v 2 h -2 z" />
<path
   d="m 10,9 v 1 H 9 v 1 h 1 v 2 H 9 v 1 h 1 v 1 h 1 v -1 h 2 v 1 h 1 v -1 h 1 v -1 h -1 v -2 h 1 V 10 H 14 V 9 h -1 v 1 H 11 V 9 Z m 1,2 h 2 v 2 h -2 z"
   id="path2"
   inkscape:connector-curvature="0"
   style="fill:#1a7fd4;fill-opacity:1"
   sodipodi:nodetypes="cccccccccccccccccccccccccccccccccc" />
</svg>
