<?xml version="1.0" encoding="UTF-8" standalone="no"?>
<svg
   xmlns:dc="http://purl.org/dc/elements/1.1/"
   xmlns:cc="http://creativecommons.org/ns#"
   xmlns:rdf="http://www.w3.org/1999/02/22-rdf-syntax-ns#"
   xmlns:svg="http://www.w3.org/2000/svg"
   xmlns="http://www.w3.org/2000/svg"
   xmlns:sodipodi="http://sodipodi.sourceforge.net/DTD/sodipodi-0.dtd"
   xmlns:inkscape="http://www.inkscape.org/namespaces/inkscape"
   viewBox="0 0 16 16"
   version="1.1"
   id="svg4"
   sodipodi:docname="sc_zoomout.svg"
   inkscape:version="0.92.5 (2060ec1f9f, 2020-04-08)"
   inkscape:export-filename="/home/jupiter007/Libreoffice yaru theme fullcolor/build/cmd/sc_zoomout.png"
   inkscape:export-xdpi="95"
   inkscape:export-ydpi="95"><metadata
   id="metadata10">
  <rdf:RDF>
    <cc:Work
       rdf:about="">
      <dc:format>image/svg+xml</dc:format>
      <dc:type
         rdf:resource="http://purl.org/dc/dcmitype/StillImage" />
    </cc:Work>
  </rdf:RDF>
</metadata>
<defs
   id="defs8" />
<sodipodi:namedview
   pagecolor="#ffffff"
   bordercolor="#666666"
   borderopacity="1"
   objecttolerance="10"
   gridtolerance="10"
   guidetolerance="10"
   inkscape:pageopacity="0"
   inkscape:pageshadow="2"
   inkscape:window-width="1920"
   inkscape:window-height="1011"
   id="namedview6"
   showgrid="true"
   inkscape:zoom="41.7193"
   inkscape:cx="4.2265225"
   inkscape:cy="8.0607907"
   inkscape:window-x="0"
   inkscape:window-y="32"
   inkscape:window-maximized="1"
   inkscape:current-layer="svg4">
  <inkscape:grid
     type="xygrid"
     id="grid827" />
</sodipodi:namedview>
/&gt;<path
   id="path832"
   d="m 7.4949283,2.9941028 a 4.5,4.5 0 0 0 -4.5,4.5 4.5,4.5 0 0 0 4.5,4.5000002 4.5,4.5 0 0 0 2.8066407,-0.986329 l 2.289063,2.291016 0.707031,-0.707031 -2.28711,-2.289062 a 4.5,4.5 0 0 0 0.984375,-2.8085942 4.5,4.5 0 0 0 -4.4999997,-4.5 z m 0,1 a 3.5,3.5 0 0 1 3.4999997,3.5 3.5,3.5 0 0 1 -3.4999997,3.5000002 3.5,3.5 0 0 1 -3.5,-3.5000002 3.5,3.5 0 0 1 3.5,-3.5 z"
   style="opacity:0.6;fill:#000000;fill-opacity:1;fill-rule:nonzero;stroke:#000000;stroke-width:2;stroke-linecap:butt;stroke-linejoin:round;stroke-miterlimit:4;stroke-dasharray:none;stroke-dashoffset:0;stroke-opacity:1"
   inkscape:connector-curvature="0" />
<path
   style="opacity:1;fill:#c8c4b7;fill-opacity:1;fill-rule:nonzero;stroke:none;stroke-width:1.41428578;stroke-linecap:butt;stroke-linejoin:bevel;stroke-miterlimit:4;stroke-dasharray:none;stroke-dashoffset:0;stroke-opacity:1"
   d="m 7.4949283,2.9941028 a 4.5,4.5 0 0 0 -4.5,4.5 4.5,4.5 0 0 0 4.5,4.5000002 4.5,4.5 0 0 0 2.8066407,-0.986329 l 2.289063,2.291016 0.707031,-0.707031 -2.28711,-2.289062 a 4.5,4.5 0 0 0 0.984375,-2.8085942 4.5,4.5 0 0 0 -4.4999997,-4.5 z m 0,1 a 3.5,3.5 0 0 1 3.4999997,3.5 3.5,3.5 0 0 1 -3.4999997,3.5000002 3.5,3.5 0 0 1 -3.5,-3.5000002 3.5,3.5 0 0 1 3.5,-3.5 z"
   id="path828"
   inkscape:connector-curvature="0" />
<circle
   style="opacity:1;fill:#fffefd;fill-opacity:1;fill-rule:nonzero;stroke:none;stroke-width:1.10000002;stroke-linecap:butt;stroke-linejoin:bevel;stroke-miterlimit:4;stroke-dasharray:none;stroke-dashoffset:0;stroke-opacity:1"
   id="path837"
   cx="7.4941058"
   cy="7.4948106"
   r="3.5" />
<rect
   style="opacity:1;fill:#c7162b;fill-opacity:1;stroke:none;stroke-width:2;stroke-linejoin:round;stroke-miterlimit:4;stroke-dasharray:none;stroke-opacity:1"
   id="rect829"
   width="5"
   height="1"
   x="5"
   y="7" />
</svg>
