<?xml version="1.0" encoding="UTF-8" standalone="no"?>
<svg
   xmlns:dc="http://purl.org/dc/elements/1.1/"
   xmlns:cc="http://creativecommons.org/ns#"
   xmlns:rdf="http://www.w3.org/1999/02/22-rdf-syntax-ns#"
   xmlns:svg="http://www.w3.org/2000/svg"
   xmlns="http://www.w3.org/2000/svg"
   xmlns:xlink="http://www.w3.org/1999/xlink"
   xmlns:sodipodi="http://sodipodi.sourceforge.net/DTD/sodipodi-0.dtd"
   xmlns:inkscape="http://www.inkscape.org/namespaces/inkscape"
   viewBox="0 0 24 24"
   version="1.1"
   id="svg4"
   sodipodi:docname="lc_underlinedouble.svg"
   inkscape:version="1.0.1 (3bc2e813f5, 2020-09-07)"
   inkscape:export-filename="/home/jupiter007/Libreoffice yaru theme fullcolor/build/cmd/ru/lc_underlinedouble.png"
   inkscape:export-xdpi="96"
   inkscape:export-ydpi="96">
  <metadata
     id="metadata10">
    <rdf:RDF>
      <cc:Work
         rdf:about="">
        <dc:format>image/svg+xml</dc:format>
        <dc:type
           rdf:resource="http://purl.org/dc/dcmitype/StillImage" />
        <dc:title></dc:title>
      </cc:Work>
    </rdf:RDF>
  </metadata>
  <defs
     id="defs8">
    <linearGradient
       inkscape:collect="always"
       id="linearGradient840">
      <stop
         style="stop-color:#151515;stop-opacity:1"
         offset="0"
         id="stop836" />
      <stop
         style="stop-color:#4d4d4d;stop-opacity:1"
         offset="1"
         id="stop838" />
    </linearGradient>
    <linearGradient
       inkscape:collect="always"
       xlink:href="#linearGradient840"
       id="linearGradient842"
       x1="12"
       y1="2"
       x2="12"
       y2="23"
       gradientUnits="userSpaceOnUse" />
  </defs>
  <sodipodi:namedview
     pagecolor="#808080"
     bordercolor="#666666"
     borderopacity="1"
     objecttolerance="10"
     gridtolerance="10"
     guidetolerance="10"
     inkscape:pageopacity="0"
     inkscape:pageshadow="2"
     inkscape:window-width="1920"
     inkscape:window-height="1016"
     id="namedview6"
     showgrid="true"
     inkscape:zoom="19.666667"
     inkscape:cx="9.9978701"
     inkscape:cy="10.905496"
     inkscape:window-x="0"
     inkscape:window-y="27"
     inkscape:window-maximized="1"
     inkscape:current-layer="svg4"
     inkscape:document-rotation="0">
    <inkscape:grid
       type="xygrid"
       id="grid829" />
  </sodipodi:namedview>
  <path
     id="path823"
     d="M 6,2 V 7.2851562 C 6,8.4957892 6.238022,9.5519761 6.714843,10.25 7.191664,10.948023 7.843431,11.439084 8.669921,11.722656 9.507008,11.995275 10.481167,12.08725 11.59375,12 12.716929,11.91275 13.717881,11.593154 15,11.244141 V 18 h 3 V 2 h -3 v 7.2304693 c -1.049007,0.261758 -1.772826,0.4314648 -2.578125,0.5078118 -0.794701,0.06544 -1.260384,0.01711 -1.800781,-0.146484 C 10.091293,9.4172913 9.689559,9.1120453 9.414062,8.6757812 9.138565,8.2286103 9,7.6228372 9,6.8593752 V 2 Z"
     style="opacity:1;fill:#000000;stroke:#ffffff;stroke-width:2;stroke-linejoin:round;stroke-miterlimit:4;stroke-dasharray:none"
     inkscape:connector-curvature="0" />
  <path
     style="opacity:1;fill:#000000;stroke:#ffffff;stroke-width:2;stroke-linejoin:round;stroke-miterlimit:4;stroke-dasharray:none"
     d="M 5 20 L 5 21 L 19 21 L 19 20 L 5 20 z M 5 22 L 5 23 L 19 23 L 19 22 L 5 22 z "
     id="path825" />
  <path
     id="path819"
     style="fill:url(#linearGradient842);fill-opacity:1"
     d="M 6 2 L 6 7.2851562 C 6 8.4957893 6.2380228 9.5519761 6.7148438 10.25 C 7.1916648 10.948023 7.8434319 11.439084 8.6699219 11.722656 C 9.5070089 11.995275 10.481167 12.08725 11.59375 12 C 12.716929 11.91275 13.717881 11.593154 15 11.244141 L 15 18 L 18 18 L 18 2 L 15 2 L 15 9.2304688 C 13.950993 9.4922268 13.227174 9.6619343 12.421875 9.7382812 C 11.627174 9.8037213 11.161491 9.7553909 10.621094 9.5917969 C 10.091293 9.4172911 9.6895595 9.1120453 9.4140625 8.6757812 C 9.1385655 8.2286104 9 7.622837 9 6.859375 L 9 2 L 6 2 z M 5 20 L 5 21 L 19 21 L 19 20 L 5 20 z M 5 22 L 5 23 L 19 23 L 19 22 L 5 22 z " />
</svg>
