<svg xmlns="http://www.w3.org/2000/svg" height="32" width="32"><path style="opacity:.7;fill:#000;stroke:#000;stroke-width:2.0004;stroke-linecap:butt;stroke-linejoin:miter;stroke-miterlimit:4;stroke-dasharray:none;stroke-opacity:1" d="M2 6.996c0-2 1-2 3.001-2h22c1.998 0 2.999 0 2.999 2v18.008c0 2-1 2-3 2H5.002c-1.998 0-3 0-3-2z"/><path style="fill:#fff;stroke:none;stroke-width:1.0002px;stroke-linecap:butt;stroke-linejoin:miter;stroke-opacity:1" d="M2 6.996c0-2 1-2 3.001-2h22c1.998 0 2.999 0 2.999 2v18.008c0 2-1 2-3 2H5.002c-1.998 0-3 0-3-2z"/><path style="fill:#7764D8" d="M12 4.996V8h1v4h-1v4h1v4h-1v4h1v3.004h2V24h-1v-4h1v-4h-1v-4h1V8h1v4h-1v4h1v4h-1v4h1v3.004h2V24h1v3.004h3V27h5.164c1.877-.002 2.836-.058 2.836-1.996V6.996c0-1.938-.96-1.994-2.836-1.996H22v-.004H12zM12 24h-2v3h2v-3zm-2 0v-4H8v-4H6v4h1v4H6v3h2v-3h2zm-4-8v-4h1V8H5v4H4v4h2zM5 8V5h-.162c-.766 0-1.385.017-1.838.16V8h2zm2 0h2v4H8v4h2v-4h2V8h-2V5H7v3zm3 8v4h2v-4h-2zm8-8h1v4h-1V8zm0 8h1v4h-1v-4z"/></svg>