<svg xmlns="http://www.w3.org/2000/svg" xmlns:xlink="http://www.w3.org/1999/xlink" height="32" width="32"><defs><linearGradient id="a"><stop style="stop-color:#4d4d4d;stop-opacity:1" offset="0"/><stop style="stop-color:#151515;stop-opacity:1" offset="1"/></linearGradient><linearGradient xlink:href="#a" id="b" x1="16.457" y1="21.418" x2="16.457" y2="3.723" gradientUnits="userSpaceOnUse"/></defs><g style="font-style:normal;font-variant:normal;font-weight:700;font-stretch:normal;font-size:25.24028397px;line-height:1.25;font-family:Ubuntu;-inkscape-font-specification:'Ubuntu, Bold';font-variant-ligatures:normal;font-variant-caps:normal;font-variant-numeric:normal;font-feature-settings:normal;text-align:start;letter-spacing:0;word-spacing:0;writing-mode:lr-tb;text-anchor:start;fill:#000;fill-opacity:1;stroke:#fff;stroke-width:1.66462281;opacity:1;stroke-miterlimit:4;stroke-dasharray:none;stroke-linejoin:round" aria-label="G"><path style="font-style:normal;font-variant:normal;font-weight:700;font-stretch:normal;font-size:25.24028397px;font-family:Ubuntu;-inkscape-font-specification:'Ubuntu, Bold';font-variant-ligatures:normal;font-variant-caps:normal;font-variant-numeric:normal;font-feature-settings:normal;text-align:start;writing-mode:lr-tb;text-anchor:start;fill:#000;stroke-width:1.66462281;stroke:#fff;stroke-miterlimit:4;stroke-dasharray:none;stroke-linejoin:round" d="M14.227 6.47c-1.834 0-3.163.513-3.988 1.54-.808 1.01-1.211 2.397-1.211 4.164 0 .858.1 1.64.302 2.348.202.69.505 1.287.91 1.792.403.504.908.9 1.514 1.186.605.27 1.312.404 2.12.404.437 0 .807-.009 1.11-.025.32-.017.416-.05.651-.101v-5.629h4.12l.003 8.367c-.47.185-1.228.379-2.271.58-1.044.22-2.33.329-3.862.329-1.313 0-2.507-.202-3.584-.606-1.06-.404-1.973-.985-2.73-1.76-.757-.774-1.342-1.731-1.763-2.859-.404-1.127-.606-2.752-.606-4.2 0-1.463.224-2.752.678-3.88.454-1.127.921-2.022 1.712-2.796.79-.791 1.872-1.444 2.932-1.848a9.695 9.695 0 0 1 3.433-.605c.825 0 1.565.059 2.221.176.673.101 1.245.227 1.717.379.488.135.883.278 1.186.429.32.151.547.27.681.353L18.367 7.53a9.605 9.605 0 0 0-1.868-.732 7.485 7.485 0 0 0-2.272-.328z" transform="matrix(1.2164 0 0 1.18674 .982 1.582)"/></g><g style="font-style:normal;font-variant:normal;font-weight:700;font-stretch:normal;font-size:25.24028397px;line-height:1.25;font-family:Ubuntu;-inkscape-font-specification:'Ubuntu, Bold';font-variant-ligatures:normal;font-variant-caps:normal;font-variant-numeric:normal;font-feature-settings:normal;text-align:start;letter-spacing:0;word-spacing:0;writing-mode:lr-tb;text-anchor:start;fill:url(#b);fill-opacity:1;stroke:none;stroke-width:.99632692"><path d="M14.227 6.47c-1.834 0-3.163.513-3.988 1.54-.808 1.01-1.211 2.397-1.211 4.164 0 .858.1 1.64.302 2.348.202.69.505 1.287.91 1.792.403.504.908.9 1.514 1.186.605.27 1.312.404 2.12.404.437 0 .807-.009 1.11-.025.32-.017.416-.05.651-.101v-5.629h4.12l.003 8.367c-.47.185-1.228.379-2.271.58-1.044.22-2.33.329-3.862.329-1.313 0-2.507-.202-3.584-.606-1.06-.404-1.973-.985-2.73-1.76-.757-.774-1.342-1.731-1.763-2.859-.404-1.127-.606-2.752-.606-4.2 0-1.463.224-2.752.678-3.88.454-1.127.921-2.022 1.712-2.796.79-.791 1.872-1.444 2.932-1.848a9.695 9.695 0 0 1 3.433-.605c.825 0 1.565.059 2.221.176.673.101 1.245.227 1.717.379.488.135.883.278 1.186.429.32.151.547.27.681.353L18.367 7.53a9.605 9.605 0 0 0-1.868-.732 7.485 7.485 0 0 0-2.272-.328z" style="font-style:normal;font-variant:normal;font-weight:700;font-stretch:normal;font-size:25.24028397px;font-family:Ubuntu;-inkscape-font-specification:'Ubuntu, Bold';font-variant-ligatures:normal;font-variant-caps:normal;font-variant-numeric:normal;font-feature-settings:normal;text-align:start;writing-mode:lr-tb;text-anchor:start;fill:url(#b);stroke-width:.99632692;fill-opacity:1" aria-label="G" transform="matrix(1.2164 0 0 1.18674 .982 1.582)"/></g></svg>