<svg height="52" width="60" xmlns:xlink="http://www.w3.org/1999/xlink" xmlns="http://www.w3.org/2000/svg"><linearGradient id="b"><stop offset="0" stop-color="#77216f"/><stop offset="1" stop-color="#945c93"/></linearGradient><linearGradient id="a"><stop offset="0" stop-color="#e95420"/><stop offset="1" stop-color="#fe865c"/></linearGradient><linearGradient id="d" gradientUnits="userSpaceOnUse" x1="12" x2="12" xlink:href="#a" y1="1022.362" y2="1010.362" gradientTransform="translate(0 -1000.362)"/><linearGradient id="f" gradientUnits="userSpaceOnUse" x1="12" x2="12" xlink:href="#a" y1="1040.362" y2="1028.362" gradientTransform="translate(0 -1000.362)"/><linearGradient id="e" gradientUnits="userSpaceOnUse" x1="16" x2="16" xlink:href="#b" y1="1035.362" y2="1023.362" gradientTransform="translate(0 -1000.362)"/><linearGradient id="c" gradientUnits="userSpaceOnUse" x1="16" x2="16" xlink:href="#b" y1="1017.362" y2="1005.362" gradientTransform="translate(0 -1000.362)"/><path d="M0 0h60v52H0z" fill="#fff"/><path d="M0 0h60v52H0z" fill="#fff"/><path d="M14 37 2 49" fill="none" stroke="#232629"/><path d="M13 37h46v.987H13z" fill="#232629"/><path d="M13 2h1v36h-1z" fill="#232629"/><path d="M11 5c-1.632-.288-3 2.686-3 6s1.343 6 3 6l34-6z" fill="url(#c)" style="fill:#7764D8;fill-opacity:1"/><path d="M7 10c-1.572-.524-3 2.686-3 6s1.343 6 3 6l18-6z" fill="url(#d)" style="fill:#7764D8;fill-opacity:1"/><path d="M11 23c-1.641-.229-3 2.686-3 6s1.343 6 3 6l43-6z" fill="url(#e)" style="fill:#7764D8;fill-opacity:1"/><path d="M7 28c-1.628-.305-3 2.686-3 6s1.343 6 3 6l32-6z" fill="url(#f)" style="fill:#7764D8;fill-opacity:1"/><path d="M7 10c-1.572-.524-3 2.686-3 6s1.343 6 3 6l18-6z" fill="url(#d)" style="fill:#fff;fill-opacity:1;opacity:.3"/><path d="M7 28c-1.628-.305-3 2.686-3 6s1.343 6 3 6l32-6z" fill="url(#f)" style="fill:#fff;fill-opacity:1;opacity:.3"/></svg>