<svg height="52" width="60" xmlns="http://www.w3.org/2000/svg"><path d="M0 0h60v52H0z" fill="#fff"/><path d="M3 45h52v1H3z" fill="#232629"/><path d="M6 3h1v46H6z" fill="#232629"/><g fill="#77216f" style="fill:#9141ac"><path d="M10 10h3v3h-3zM24 5h3v3h-3zM39 35h3v3h-3zM50 26h3v3h-3z" style="fill:#9141ac"/></g><g fill="#e95420" style="fill:#9141ac"><path d="M50 14h3v3h-3zM40 8h3v3h-3zM19 29h3v3h-3zM10 20h3v3h-3z" style="fill:#9141ac"/></g><g fill="#e95420" style="fill:#fff;opacity:.4"><path d="M50 14h3v3h-3zM40 8h3v3h-3zM19 29h3v3h-3zM10 20h3v3h-3z" style="fill:#fff"/></g></svg>