<svg height="52" width="60" xmlns:xlink="http://www.w3.org/1999/xlink" xmlns="http://www.w3.org/2000/svg"><linearGradient id="a"><stop offset="0" stop-color="#e95420"/><stop offset="1" stop-color="#fe865c"/></linearGradient><linearGradient id="c" gradientTransform="matrix(1 0 0 1.5 -2 -1523.543)" gradientUnits="userSpaceOnUse" x1="16" x2="16" xlink:href="#a" y1="1046.362" y2="1017.696"/><linearGradient id="d" gradientTransform="matrix(1 0 0 .83333 -26 -825.968)" gradientUnits="userSpaceOnUse" x1="101" x2="36" xlink:href="#b" y1="959.695" y2="947.195"/><linearGradient id="b"><stop offset="0" stop-color="#77216f"/><stop offset="1" stop-color="#a25f9e"/></linearGradient><linearGradient id="e" gradientTransform="matrix(1 0 0 1.66667 22 -1697.937)" gradientUnits="userSpaceOnUse" x1="16" x2="16" xlink:href="#a" y1="1046.362" y2="1020.562"/><linearGradient id="f" gradientTransform="matrix(1 0 0 .7 -2 -686.453)" gradientUnits="userSpaceOnUse" x1="50" x2="50" xlink:href="#b" y1="1046.362" y2="984.934"/><path d="M0 0h60v52H0z" fill="#fff"/><path d="M10 19h9v27h-9z" fill="url(#c)" style="fill:#7764D8;fill-opacity:1"/><path d="M19 21h9v25h-9z" fill="url(#d)" style="fill:#7764D8;fill-opacity:1"/><path d="M34 16h9v30h-9z" fill="url(#e)" style="fill:#7764D8;fill-opacity:1"/><path d="M43 25h9v21h-9z" fill="url(#f)" style="fill:#7764D8;fill-opacity:1"/><path d="M6 3h1v46H6z" fill="#232629"/><g fill="#e95420" style="fill:#7764D8"><path d="M13 1009.362h3v5h-3z" style="fill:#7764D8" transform="translate(0 -1000.362)"/><path d="M14 1007.362h1v9h-1zM37 1006.362h3v5h-3z" style="fill:#7764D8" transform="translate(0 -1000.362)"/><path d="M38 1004.362h1v9h-1z" style="fill:#7764D8" transform="translate(0 -1000.362)"/></g><g fill="#77216f" style="fill:#7764D8"><path d="M22 1011.362h3v5h-3z" style="fill:#7764D8" transform="translate(0 -1000.362)"/><path d="M23 1009.362h1v9h-1zM46 1015.362h3v5h-3z" style="fill:#7764D8" transform="translate(0 -1000.362)"/><path d="M47 1013.362h1v9h-1z" style="fill:#7764D8" transform="translate(0 -1000.362)"/></g><path style="fill:#fff;fill-opacity:1;opacity:.4" d="M38 4v2h-1v5h1v2h1v-2h1V6h-1V4h-1zM14 7v2h-1v5h1v2h1v-2h1V9h-1V7h-1zm20 9v30h9V16h-9zm-24 3v27h9V19h-9z"/><path d="M3 45h52v1H3z" fill="#232629"/></svg>