<svg height="52" width="60" xmlns="http://www.w3.org/2000/svg"><path d="M0 0h60v52H0z" fill="#fff"/><path d="M3 45h52v1H3z" fill="#232629"/><path d="M6 3h1v46H6z" fill="#232629"/><path d="M11.5 35.5s8.832-20.605 17-23c8.168-2.394 18.684 1.601 21 8 2.316 6.399-9 16-9 16" stroke="#77216f" style="fill:none;stroke:#7764D8"/><path d="M20.5 8.5s-10.669 6.244-9 13c1.669 6.756 16.13 11.24 23 12 6.87.76 15-4 15-4" stroke="#e95420" style="fill:none;stroke:#7764D8"/><path d="M20.5 8.5s-10.669 6.244-9 13c1.669 6.756 16.13 11.24 23 12 6.87.76 15-4 15-4" stroke="#e95420" style="fill:none;stroke:#fff;opacity:.4"/></svg>