<svg height="52" width="60" xmlns="http://www.w3.org/2000/svg"><path d="M0 0h60v52H0Z" fill="#fff"/><path d="M3 45h52v1H3Z" fill="#232629"/><path d="M6 3h1v46H6Z" fill="#232629"/><g fill="#77216f" style="fill:#9141ac"><path d="M11 1035.362h17v1H11ZM28 1012.362h1v24h-1z" style="fill:#9141ac" transform="translate(0 -1000.362)"/><path d="M28 1012.362h22v1H28Z" style="fill:#9141ac" transform="translate(0 -1000.362)"/><path d="M49 1012.362h1v9h-1z" style="fill:#9141ac" transform="translate(0 -1000.362)"/><path d="M40 1020.362h10v1H40Z" style="fill:#9141ac" transform="translate(0 -1000.362)"/><path d="M40 1020.362h1v17h-1z" style="fill:#9141ac" transform="translate(0 -1000.362)"/></g><path d="M28 35H11l4-3h13z" fill="#987197" style="fill-rule:evenodd;fill:#9141ac"/><path d="M35 21v12l3-3V18Z" fill="#fe865c" style="fill-rule:evenodd;fill:#9141ac"/><path d="M29 13v23l3-3V13Z" fill="#945c93" style="fill-rule:evenodd;fill:#9141ac"/><path d="M29 13v23l3-3V13Z" fill="#945c93" style="fill-rule:evenodd;fill:#fff;opacity:.2"/><path d="M35 21H12l3-3h23zM50 29v5l3-3v-5z" fill="#fe865c" style="fill-rule:evenodd;fill:#9141ac"/><path d="M12 9v12l3-3V9ZM14 5l-3 3h10V5Z" fill="#fe865c" style="fill-rule:evenodd;fill:#9141ac"/><path d="M50 12H28l4-3h21zM49 20h-9l4-3h5z" fill="#987197" style="fill-rule:evenodd;fill:#9141ac"/><g fill="#945c93" style="fill-rule:evenodd;fill:#9141ac"><path d="M50 12v9l3-3V9ZM41 21v16l3-3V21Z" style="fill:#9141ac"/></g><g fill="#945c93" style="fill-rule:evenodd;fill:#fff;opacity:.2"><path d="M50 12v9l3-3V9ZM41 21v16l3-3V21Z" style="fill:#fff"/></g><path style="fill:#9141ac" d="M11 8v14h23v12h16v-5h-1v4H35V21H12V9h9V8H11z"/><path d="M49 33H35l3-3h11z" fill="#fe865c" fill-rule="evenodd" style="fill:#9141ac"/><path d="M28 35H11l4-3h13zM50 12H28l4-3h21zM49 20h-9l4-3h5z" fill="#987197" style="fill-rule:evenodd;fill:#fff;opacity:.3"/><path style="fill:#fff;opacity:.4" d="M11 8v14h23v12h16v-5h-1v4H35V21H12V9h9V8H11z"/><path d="M35 21H12l3-3h23zM14 5l-3 3h10V5Z" fill="#fe865c" style="fill-rule:evenodd;fill:#fff;opacity:.6"/><path d="M49 33H35l3-3h11z" fill="#fe865c" fill-rule="evenodd" style="fill:#fff;opacity:.6"/><path d="M35 21v12l3-3V18ZM50 29v5l3-3v-5zM12 9v12l3-3V9Z" fill="#fe865c" style="fill-rule:evenodd;fill:#fff;opacity:.5"/></svg>