<svg xmlns="http://www.w3.org/2000/svg" xmlns:xlink="http://www.w3.org/1999/xlink" viewBox="0 0 24 24"><defs><linearGradient id="a"><stop style="stop-color:#4d4d4d;stop-opacity:1" offset="0"/><stop style="stop-color:#151515;stop-opacity:1" offset="1"/></linearGradient><linearGradient xlink:href="#a" id="b" x1="11" y1="22" x2="11" y2="2" gradientUnits="userSpaceOnUse"/></defs><path style="fill:#000;stroke:#fff;opacity:1;stroke-width:2;stroke-miterlimit:4;stroke-dasharray:none;stroke-linejoin:round" fill="#232629" d="M10.51 2c-2.64 0-3.96.925-3.96 2.777 0 1.111.367 1.668 1.1 1.668h6.182V9c0 .37-.411.555-1.232.555H9.168V8.11H6v3.534h8.36c1.76 0 2.64-.882 2.64-2.645V6.445h-.55V4.777a13.635 13.635 0 0 0-2.75-1.943C12.664 2.278 11.601 2 10.51 2zm0 2c1.364 0 2.456.333 3.277 1H9.301c0-.667.402-1 1.209-1zM6 12.855V22h2.959l2.553-2.334L14.052 22H17v-9.145h-3.168v6.223l-2.32-2.133L9.168 19.1v-6.245z"/><path d="M10.51 2c-2.64 0-3.96.925-3.96 2.777 0 1.111.367 1.668 1.1 1.668h6.182V9c0 .37-.411.555-1.232.555H9.168V8.11H6v3.534h8.36c1.76 0 2.64-.882 2.64-2.645V6.445h-.55V4.777a13.635 13.635 0 0 0-2.75-1.943C12.664 2.278 11.601 2 10.51 2zm0 2c1.364 0 2.456.333 3.277 1H9.301c0-.667.402-1 1.209-1zM6 12.855V22h2.959l2.553-2.334L14.052 22H17v-9.145h-3.168v6.223l-2.32-2.133L9.168 19.1v-6.245z" fill="#232629" style="fill:url(#b);fill-opacity:1"/></svg>