<svg xmlns="http://www.w3.org/2000/svg" xmlns:xlink="http://www.w3.org/1999/xlink" height="24" width="24"><defs><linearGradient gradientTransform="translate(1 -1029.362)" xlink:href="#a" id="b" x1="3" y1="1045.362" x2="19" y2="1045.362" gradientUnits="userSpaceOnUse"/><linearGradient id="a"><stop style="stop-color:#fff;stop-opacity:1" offset="0"/><stop offset=".313" style="stop-color:#fff;stop-opacity:1"/><stop style="stop-color:#b6b6b6;stop-opacity:1" offset="1"/></linearGradient></defs><path d="M12 4 4.375 14.781A2.27 2.27 0 0 0 4 16c0 2.21 3.582 4 8 4s8-1.79 8-4c0-.483-.186-.946-.5-1.375z" style="opacity:.7;fill:#000;stroke:#000;stroke-width:2;stroke-linejoin:round;stroke-miterlimit:4;stroke-dasharray:none"/><path d="M12 4 4.375 14.781A2.27 2.27 0 0 0 4 16c0 2.21 3.582 4 8 4s8-1.79 8-4c0-.483-.186-.946-.5-1.375z" style="opacity:1;fill:url(#b);fill-opacity:1"/><circle style="opacity:1;vector-effect:none;fill:#3584e4;fill-opacity:1;stroke:none;stroke-width:3.49999976;stroke-linecap:butt;stroke-linejoin:round;stroke-miterlimit:4;stroke-dasharray:none;stroke-dashoffset:0;stroke-opacity:1" cy="18.5" cx="18.5" r="3.5"/><path d="M18.5 16c-.433 0-.833.12-1.188.313l.75.75c.138-.041.287-.063.438-.063.831 0 1.5.669 1.5 1.5 0 .15-.021.3-.063.438l.75.75c.193-.355.313-.755.313-1.188 0-1.385-1.115-2.5-2.5-2.5Zm-2.188 1.313A2.476 2.476 0 0 0 16 18.5c0 1.385 1.115 2.5 2.5 2.5.433 0 .833-.12 1.188-.313l-.75-.75A1.539 1.539 0 0 1 18.5 20c-.831 0-1.5-.669-1.5-1.5 0-.15.021-.3.063-.438z" style="fill:#fff;fill-opacity:1"/></svg>