<svg xmlns="http://www.w3.org/2000/svg" height="24" width="24"><linearGradient id="a" gradientUnits="userSpaceOnUse" x1="6" x2="18" y1="20" y2="8" gradientTransform="translate(1)"><stop offset="0" stop-color="#3584e4"/><stop offset=".417" stop-color="#48acf5" stop-opacity=".761"/><stop offset=".667" stop-color="#73c0f7" stop-opacity="0"/><stop offset="1" stop-color="#cae7fc" stop-opacity="0"/></linearGradient><path style="fill:#b3b3b3" d="M12 4c-.973 3.405-3.356 6.344-4.406 8.688A4.91 4.91 0 0 0 7 15c0 2.77 2.23 5 5 5s5-2.23 5-5a4.91 4.91 0 0 0-.594-2.313C15.356 10.345 12.973 7.405 12 4Z"/><path style="fill:#777" d="M12 4c-.3 1.048-.732 2.044-1.219 3H12Zm0 3v4h3.5c-.705-1.214-1.545-2.554-2.281-4Zm0 4H8.5c-.167.288-.354.57-.5.844V15h4zm0 4v4h3a4.947 4.947 0 0 0 1-1v-3z"/><path style="fill:url(#a)" d="M12 4c-.973 3.405-3.356 6.344-4.406 8.688A4.91 4.91 0 0 0 7 15c0 2.77 2.23 5 5 5s5-2.23 5-5a4.91 4.91 0 0 0-.594-2.313C15.356 10.345 12.973 7.405 12 4Z"/><path style="fill:#000;opacity:.7" d="M12 4c-.973 3.405-3.356 6.344-4.406 8.688A4.91 4.91 0 0 0 7 15c0 2.77 2.23 5 5 5s5-2.23 5-5a4.91 4.91 0 0 0-.594-2.313C15.356 10.345 12.973 7.405 12 4Zm0 2c.778 2.767 2.691 5.158 3.531 7.063.156.3.261.6.344.937.034.14.075.292.094.438.003.02-.003.042 0 .062.017.145.031.287.031.438V15a4.096 4.096 0 0 1-.094.75c-.003.02.004.043 0 .063a4.233 4.233 0 0 1-.219.718c-.003.01.004.022 0 .032a4.07 4.07 0 0 1-.374.656c-.006.007.004.024 0 .031-.14.208-.294.385-.47.563a3.848 3.848 0 0 1-.593.5A3.977 3.977 0 0 1 12 19a4.066 4.066 0 0 1-1.344-.25c-.03-.011-.063-.02-.094-.031-.04-.016-.085-.015-.124-.032-.065-.027-.126-.063-.188-.093-.11-.054-.21-.125-.313-.188-.071-.043-.15-.077-.218-.125-.02-.013-.044-.017-.063-.031a4.06 4.06 0 0 1-.5-.438 4.043 4.043 0 0 1-.406-.5c-.012-.008-.02-.023-.031-.03A4.129 4.129 0 0 1 8 14.936c0-.686.175-1.308.469-1.874C9.309 11.158 11.222 8.767 12 6Z"/></svg>