<svg viewBox="0 0 24 24" xmlns="http://www.w3.org/2000/svg"><path d="M4.994 1.011c-1.258.015-2.179-.03-2.932.385a1.88 1.88 0 0 0-.837.998C1.06 2.833 1 3.354 1 4.011v8c0 .658.06 1.179.225 1.618.164.438.461.788.837.996.753.415 1.674.371 2.932.386h7.06c1.258-.014 2.179.031 2.931-.384a1.88 1.88 0 0 0 .838-.998c.165-.44.225-.96.225-1.618v-8c0-.657-.06-1.178-.225-1.617a1.875 1.875 0 0 0-.838-.996c-.752-.415-1.673-.372-2.931-.387H4.998z" style="font-style:normal;font-variant:normal;font-weight:400;font-stretch:normal;font-size:15px;line-height:125%;font-family:Ubuntu;-inkscape-font-specification:Ubuntu;text-align:center;letter-spacing:0;word-spacing:0;writing-mode:lr-tb;text-anchor:middle;display:inline;opacity:.7;fill:#000;fill-opacity:1;stroke:none;stroke-width:.999802"/><path d="M9.033 2c-1.556.01-4.157-.012-5.707.039-.461.042-1.016.206-1.155.71-.22.635-.109 1.334-.146 1.982-.008 2.297-.023 5.662.021 7.951.04.462.203 1.013.699 1.164.632.225 1.284.123 1.936.154 1.424.007 3.898.011 5.324.011 1.704 0 1.409-.005 3.107-.018.512-.012 1.184.02 1.585-.405.421-.54.287-1.268.323-1.904.012-2.444.028-5.977-.022-8.423-.05-.402-.17-.863-.575-1.044-.668-.294-1.426-.168-2.126-.206C10.543 2 10.787 2 9.033 2z" style="opacity:1;fill:#fff;fill-opacity:1;stroke:none;stroke-width:1;stroke-linecap:round;stroke-linejoin:bevel;stroke-miterlimit:4;stroke-dasharray:none;stroke-dashoffset:0;stroke-opacity:1"/><path d="M10.97 8c-1.259.015-2.18-.03-2.932.385a1.88 1.88 0 0 0-.838.998c-.165.438-.225.96-.225 1.617v8c0 .658.06 1.179.225 1.617.165.439.461.789.838.996.752.415 1.673.372 2.931.387h7.06c1.258-.015 2.179.03 2.932-.385a1.88 1.88 0 0 0 .838-.998c.164-.438.224-.96.224-1.617v-8c0-.658-.06-1.179-.224-1.617a1.875 1.875 0 0 0-.838-.996c-.753-.415-1.674-.372-2.932-.387h-7.056z" style="font-style:normal;font-variant:normal;font-weight:400;font-stretch:normal;font-size:15px;line-height:125%;font-family:Ubuntu;-inkscape-font-specification:Ubuntu;text-align:center;letter-spacing:0;word-spacing:0;writing-mode:lr-tb;text-anchor:middle;display:inline;opacity:.7;fill:#000;fill-opacity:1;stroke:none;stroke-width:.999802"/><path d="M15.009 8.989c-1.557.01-4.158-.012-5.708.038-.461.043-1.016.207-1.155.71-.22.636-.109 1.334-.146 1.982-.008 2.297-.023 5.662.022 7.952.039.462.202 1.012.698 1.163.633.225 1.284.123 1.936.155 1.424.006 3.898.01 5.324.011 1.705 0 1.409-.005 3.108-.019.512-.012 1.183.02 1.584-.405.422-.54.288-1.268.323-1.903.012-2.445.028-5.977-.022-8.423-.049-.402-.17-.863-.575-1.044-.668-.295-1.426-.168-2.126-.206-1.754-.012-1.509-.012-3.263-.011z" style="opacity:1;fill:#fff;fill-opacity:1;stroke:none;stroke-width:1;stroke-linecap:round;stroke-linejoin:bevel;stroke-miterlimit:4;stroke-dasharray:none;stroke-dashoffset:0;stroke-opacity:1"/><path style="fill:#000;fill-opacity:1" d="M6 4v1h7V4z"/><path style="fill:#0073E5;fill-opacity:1;stroke-width:1.19615" d="M12 18v1h5v-1z"/><path style="fill:#0073E5;fill-opacity:1" d="M12 16v1h7v-1z"/><path style="fill:#0073E5;fill-rule:evenodd;stroke-width:1.5;stroke-linejoin:round" d="M10 14v1h1v-1zm0 2v3h1v-3zM4 4v1h1V4zm0 2v3h1V6z"/><path style="fill:#000;fill-opacity:1" d="M6 6v1h5V6z"/></svg>