<svg xmlns="http://www.w3.org/2000/svg" viewBox="0 0 24 24"><path style="opacity:1;fill:#3584e4;fill-opacity:1;stroke:none;stroke-width:2;stroke-linecap:round;stroke-linejoin:round;stroke-miterlimit:4;stroke-dasharray:none;stroke-opacity:1" d="M4 9v1h1v2H4v1h3v-1H6v-2h1V9ZM2 14v1h1v2H2v1h5v-1H6v-2h1v-1zm2 1h1v2H4Z"/><path style="opacity:.7;fill:#000;stroke:#000;stroke-width:2;stroke-linejoin:round;stroke-miterlimit:4;stroke-dasharray:none" d="M13 20c-2 0-3 0-3-2V6c0-2 1-2 3-2h5l1 1 2 2 1 1v10c0 2-1 2-3 2z"/><path d="M13 20c-2 0-3 0-3-2V6c0-2 1-2 3-2h5l1 1 2 2 1 1v10c0 2-1 2-3 2z" style="fill:#fff"/><path d="M18 8V4l4 4z" style="fill:#6d6d6d;fill-opacity:1"/><path style="fill:#232629;fill-opacity:1;fill-rule:evenodd;stroke-width:2;stroke-linecap:round;stroke-linejoin:round" d="M12 10h8v1h-8zM12 12h8v1h-8zM12 14h8v1h-8zM12 16h8v1h-8z"/></svg>