<svg viewBox="0 0 24 24" xmlns:xlink="http://www.w3.org/1999/xlink" xmlns="http://www.w3.org/2000/svg"><defs><linearGradient xlink:href="#a" id="b" x1="15" y1="3" x2="15" y2="21" gradientUnits="userSpaceOnUse" gradientTransform="translate(.423)"/><linearGradient id="a"><stop style="stop-color:#151515;stop-opacity:1" offset="0"/><stop style="stop-color:#4d4d4d;stop-opacity:1" offset="1"/></linearGradient></defs><path style="color:#000;fill:#fff;fill-rule:evenodd;stroke-linejoin:round;-inkscape-stroke:none" d="M13 2c-4.213 0-7.88 3.769-8.492 8.367-.307 2.3.218 4.44 1.383 6.028C7.055 17.983 8.893 19 11 19a1 1 0 0 0 .01 0c.093 0 .187-.02.281-.025l1.236 2.472a1 1 0 0 0 .895.553h3a1 1 0 0 0 .285-.047A1 1 0 0 1 16 21v-1a1 1 0 0 1 .588-.902l-.926-1.854c.115-.089.227-.181.338-.275V15a1 1 0 0 1 1-1h1.398a9.98 9.98 0 0 0 1.092-3.367 1 1 0 0 0 .002 0c.307-2.3-.218-4.44-1.383-6.028C16.945 3.017 15.107 2 13 2zm0 2c1.483 0 2.67.661 3.496 1.787.826 1.126 1.258 2.737 1.012 4.58h.002c-.32 2.385-1.755 4.617-3.664 5.778a1 1 0 0 0 .52 1.855h-.561l1 2h-.766l-1.262-2.523a1 1 0 0 0-1.054-.54c-.244.04-.485.06-.723.063h-.002c-1.482 0-2.669-.662-3.494-1.787-.826-1.126-1.258-2.737-1.012-4.58C6.984 6.947 10.034 4 13 4zm-.4 1c-2.628 0-4.706 2.473-5.092 5.367-.193 1.447.076 2.806.752 3.856.676 1.049 1.825 1.776 3.138 1.777 2.63.002 4.708-2.472 5.094-5.367.193-1.448-.075-2.808-.752-3.858C15.064 5.726 13.914 5 12.6 5zm0 2c.619 0 1.085.28 1.459.86.373.579.587 1.47.449 2.507-.277 2.077-1.871 3.634-3.11 3.633-.618 0-1.083-.28-1.457-.86-.373-.579-.587-1.47-.449-2.507C9.77 8.557 11.362 7 12.6 7z"/><path style="opacity:1;fill:url(#b);fill-opacity:1;fill-rule:evenodd;stroke:none;stroke-width:2;stroke-linecap:butt;stroke-linejoin:round;stroke-miterlimit:4;stroke-dasharray:none;stroke-opacity:1" d="M13 3a6.31 7.725 24.543 0 0-7.5 7.5A6.31 7.725 24.543 0 0 11 18a6.31 7.725 24.543 0 0 .883-.076L13.422 21H16v-.844L14.422 17h-.057A6.31 7.725 24.543 0 0 16 15.682V15a1 1 0 0 1 1-1h.28a6.31 7.725 24.543 0 0 1.22-3.5A6.31 7.725 24.543 0 0 13 3zm-.4 3a3.428 4.594 17.626 0 1 2.9 4.5 3.428 4.594 17.626 0 1-4.102 4.5A3.428 4.594 17.626 0 1 8.5 10.5 3.428 4.594 17.626 0 1 12.6 6z"/><path d="M17 15v2h1v2a1 1 0 0 1-1 1v1a2 2 0 0 0 2-2v-4zm3 0v2h1v2a1 1 0 0 1-1 1v1a2 2 0 0 0 2-2v-4z" style="fill:#0073E5;fill-opacity:1"/></svg>