<svg xmlns="http://www.w3.org/2000/svg" viewBox="0 0 24 24"><path style="opacity:.7;fill:#fff;fill-opacity:1;fill-rule:nonzero;stroke:#000;stroke-width:2;stroke-linecap:butt;stroke-linejoin:round;stroke-miterlimit:4;stroke-dasharray:none;stroke-dashoffset:0;stroke-opacity:1" d="M5 3h10c1 0 2 0 2 1v7c0 1-1 1-2 1H9v3l-2.5-3H5c-1 0-2 0-2-1V4c0-1 1-1 2-1z"/><path d="M5 3h10c1 0 2 0 2 1v7c0 1-1 1-2 1H9v3l-2.5-3H5c-1 0-2 0-2-1V4c0-1 1-1 2-1z" style="opacity:1;fill:#fa9381;fill-opacity:1;fill-rule:nonzero;stroke:none;stroke-width:.00119524;stroke-linecap:butt;stroke-linejoin:round;stroke-miterlimit:4;stroke-dasharray:none;stroke-dashoffset:0;stroke-opacity:1"/><path d="M5.5 6h9a.499.499 0 1 1 0 1h-9a.499.499 0 1 1 0-1zM5.5 8h9a.499.499 0 1 1 0 1h-9a.499.499 0 1 1 0-1z" style="opacity:1;fill:#fff;fill-opacity:1;fill-rule:nonzero;stroke:none;stroke-width:.00119524;stroke-linecap:butt;stroke-linejoin:round;stroke-miterlimit:4;stroke-dasharray:none;stroke-dashoffset:0;stroke-opacity:1"/><path d="M9 9h10c1 0 2 0 2 1v7c0 1-1 1-2 1h-6v3l-2.5-3H9c-1 0-2 0-2-1v-7c0-1 1-1 2-1z" style="opacity:.7;fill:#fff;fill-opacity:1;fill-rule:nonzero;stroke:#000;stroke-width:2;stroke-linecap:butt;stroke-linejoin:round;stroke-miterlimit:4;stroke-dasharray:none;stroke-dashoffset:0;stroke-opacity:1"/><path style="opacity:1;fill:#fa9381;fill-opacity:1;fill-rule:nonzero;stroke:none;stroke-width:.00119524;stroke-linecap:butt;stroke-linejoin:round;stroke-miterlimit:4;stroke-dasharray:none;stroke-dashoffset:0;stroke-opacity:1" d="M9 9h10c1 0 2 0 2 1v7c0 1-1 1-2 1h-6v3l-2.5-3H9c-1 0-2 0-2-1v-7c0-1 1-1 2-1z"/><path style="opacity:1;fill:#fff;fill-opacity:1;fill-rule:nonzero;stroke:none;stroke-width:.00119524;stroke-linecap:butt;stroke-linejoin:round;stroke-miterlimit:4;stroke-dasharray:none;stroke-dashoffset:0;stroke-opacity:1" d="M9.5 12h9a.499.499 0 1 1 0 1h-9a.499.499 0 1 1 0-1zM9.5 14h9a.499.499 0 1 1 0 1h-9a.499.499 0 1 1 0-1z"/></svg>