<svg xmlns="http://www.w3.org/2000/svg" viewBox="0 0 24 24"><path d="M6.003 3c-1.259.014-2.18-.03-2.932.385a1.88 1.88 0 0 0-.838.998c-.165.438-.224.96-.224 1.617v12c0 .658.06 1.179.224 1.617.165.439.462.789.838.996.753.415 1.674.372 2.932.387h11.994c1.259-.015 2.18.03 2.932-.385a1.88 1.88 0 0 0 .838-.998c.164-.438.224-.96.224-1.617V6c0-.658-.06-1.179-.224-1.617a1.875 1.875 0 0 0-.838-.996c-.753-.415-1.674-.372-2.932-.387H6.006z" style="font-style:normal;font-variant:normal;font-weight:400;font-stretch:normal;font-size:15px;line-height:125%;font-family:Ubuntu;-inkscape-font-specification:Ubuntu;text-align:center;letter-spacing:0;word-spacing:0;writing-mode:lr-tb;text-anchor:middle;display:inline;opacity:.7;fill:#000;fill-opacity:1;stroke:none;stroke-width:.999802"/><path d="M9 4c-1.557.01-3.11-.012-4.66.039-.461.042-1.016.206-1.155.71-.22.635-.109 1.334-.146 1.982-.008 2.297-.023 9.596.021 11.885.04.462.203 1.013.7 1.164.632.225 1.283.123 1.935.154 1.424.007 4.85.011 6.277.012 1.704 0 5.408-.005 7.107-.019.512-.012 1.183.02 1.585-.405.42-.54.287-2.268.322-2.904.012-2.444.028-8.91-.022-11.357-.049-.402-.17-.863-.575-1.044-.668-.294-1.426-.168-2.126-.206C16.51 4 10.754 4 9 4z" style="opacity:1;vector-effect:none;fill:#fff;fill-opacity:1;stroke:none;stroke-width:1;stroke-linecap:round;stroke-linejoin:bevel;stroke-miterlimit:4;stroke-dasharray:none;stroke-dashoffset:0;stroke-opacity:1"/><path style="opacity:1;fill:#0073E5;fill-opacity:1;fill-rule:evenodd;stroke:none;stroke-width:2;stroke-linecap:butt;stroke-linejoin:round;stroke-miterlimit:4;stroke-dasharray:none;stroke-opacity:1" transform="rotate(90)" d="M18-17h1v9h-1z"/><path style="fill:#232629;fill-opacity:1;fill-rule:evenodd;stroke-width:2;stroke-linecap:round;stroke-linejoin:round" d="M6 7v9H5v1h1v1h1v-1h11v-1h-2v-4h-2v4h-1v-2h-2v2h-1v-6H8v6H7V7z"/><path style="opacity:1;fill:#0073E5;fill-opacity:1;fill-rule:evenodd;stroke:none;stroke-width:1.73205;stroke-linecap:butt;stroke-linejoin:round;stroke-miterlimit:4;stroke-dasharray:none;stroke-opacity:1" d="M4 8h1v7H4z"/></svg>