<svg xmlns="http://www.w3.org/2000/svg" viewBox="0 0 24 24"><path style="opacity:.7;fill:#000;stroke:#000;stroke-width:2;stroke-linejoin:round;stroke-miterlimit:4;stroke-dasharray:none" d="M8 4C6 4 5 4 5 6v12c0 2 1 2 3 2h8c2 0 3 0 3-2V6c0-2-1-2-3-2h-1z"/><path style="fill:#fff;fill-opacity:1" d="M8 4C6 4 5 4 5 6v12c0 2 1 2 3 2h8c2 0 3 0 3-2V6c0-2-1-2-3-2h-1z"/><path style="opacity:1;vector-effect:none;fill:#1463a5;fill-opacity:1;stroke:none;stroke-width:1.86528563;stroke-linecap:round;stroke-linejoin:round;stroke-miterlimit:4;stroke-dasharray:none;stroke-dashoffset:0;stroke-opacity:1" d="M11 7h6v2h-6z"/><path style="opacity:1;vector-effect:none;fill:#1463a5;fill-opacity:1;stroke:none;stroke-width:2.15384626;stroke-linecap:round;stroke-linejoin:round;stroke-miterlimit:4;stroke-dasharray:none;stroke-dashoffset:0;stroke-opacity:1" d="M7 7h2v2H7z"/><path style="opacity:1;vector-effect:none;fill:#0073E5;fill-opacity:1;stroke:none;stroke-width:2.15384626;stroke-linecap:round;stroke-linejoin:round;stroke-miterlimit:4;stroke-dasharray:none;stroke-dashoffset:0;stroke-opacity:1" d="M7 11h2v2H7z"/><path style="opacity:1;vector-effect:none;fill:#46a926;fill-opacity:1;stroke:none;stroke-width:2.15384626;stroke-linecap:round;stroke-linejoin:round;stroke-miterlimit:4;stroke-dasharray:none;stroke-dashoffset:0;stroke-opacity:1" d="M7 15h2v2H7z"/><path style="opacity:1;vector-effect:none;fill:#0073E5;fill-opacity:1;stroke:none;stroke-width:1.86528563;stroke-linecap:round;stroke-linejoin:round;stroke-miterlimit:4;stroke-dasharray:none;stroke-dashoffset:0;stroke-opacity:1" d="M11 11h6v2h-6z"/><path style="opacity:1;vector-effect:none;fill:#46a926;fill-opacity:1;stroke:none;stroke-width:1.86528563;stroke-linecap:round;stroke-linejoin:round;stroke-miterlimit:4;stroke-dasharray:none;stroke-dashoffset:0;stroke-opacity:1" d="M11 15h6v2h-6z"/></svg>