<svg xmlns="http://www.w3.org/2000/svg" viewBox="0 0 16 16"><path d="M3 2a2 2 0 0 0-2 2 2 2 0 0 0 2 2 2 2 0 0 0 1-.27V6h1V2H4v.271A2 2 0 0 0 3 2zm0 1a1 1 0 0 1 1 1 1 1 0 0 1-1 1 1 1 0 0 1-1-1 1 1 0 0 1 1-1zM3 10a2 2 0 1 1-1 3.73V14H1V9h1v1.271A2 2 0 0 1 3 10zm0 1a1 1 0 1 0 0 2 1 1 0 0 0 0-2z" style="fill:#0073E5;fill-opacity:1"/><path style="fill:#232629;fill-rule:evenodd;stroke-width:3;stroke-linecap:round;stroke-linejoin:round" transform="scale(1 -1)" d="M6-7h7v1H6z"/><path style="fill:#fff;fill-rule:evenodd;stroke-width:3;stroke-linecap:round;stroke-linejoin:round" transform="scale(1 -1)" d="M6-8h7v1H6zM6-6h5v1H6z"/><path style="fill:#232629;fill-rule:evenodd;stroke-width:3;stroke-linecap:round;stroke-linejoin:round" transform="scale(1 -1)" d="M6-5h5v1H6z"/><path style="fill:#fff;fill-rule:evenodd;stroke-width:3;stroke-linecap:round;stroke-linejoin:round" transform="scale(1 -1)" d="M6-4h9v1H6z"/><path style="fill:#232629;fill-rule:evenodd;stroke-width:3;stroke-linecap:round;stroke-linejoin:round" transform="scale(1 -1)" d="M6-3h9v1H6zM6-14h7v1H6z"/><path style="fill:#fff;fill-rule:evenodd;stroke-width:3;stroke-linecap:round;stroke-linejoin:round" transform="scale(1 -1)" d="M6-15h7v1H6zM6-13h5v1H6z"/><path style="fill:#232629;fill-rule:evenodd;stroke-width:3;stroke-linecap:round;stroke-linejoin:round" transform="scale(1 -1)" d="M6-12h5v1H6z"/><path style="fill:#fff;fill-rule:evenodd;stroke-width:3;stroke-linecap:round;stroke-linejoin:round" transform="scale(1 -1)" d="M6-11h9v1H6z"/><path style="fill:#232629;fill-rule:evenodd;stroke-width:3;stroke-linecap:round;stroke-linejoin:round" transform="scale(1 -1)" d="M6-10h9v1H6z"/></svg>