<svg viewBox="0 0 16 16" xmlns="http://www.w3.org/2000/svg">/&gt;<path d="M3.5 1a2.5 2.5 0 1 0 0 5H5v4H3.5A2.5 2.5 0 1 0 6 12.5V11h4v1.5a2.5 2.5 0 0 0 5 0c0-1.38-1.351-1.734-2.5-2.5H11V6h1.5A2.5 2.5 0 1 0 10 3.5V5H6V3.5A2.5 2.5 0 0 0 3.5 1zm0 1A1.5 1.5 0 0 1 5 3.5V5H3.5a1.5 1.5 0 0 1 0-3zm9 0a1.5 1.5 0 1 1 0 3H11V3.5A1.5 1.5 0 0 1 12.5 2zM6 6h4v4H6zm-2.5 5H5v1.5a1.5 1.5 0 1 1-3 0c0-.828.81-1.04 1.5-1.5zm7.5 0h1.5a1.5 1.5 0 1 1-1.5 1.5z" style="fill:#0073E5;fill-opacity:1;stroke:none;stroke-opacity:1"/></svg>