<svg viewBox="0 0 16 16" xmlns="http://www.w3.org/2000/svg">/&gt;<path style="font-style:normal;font-variant:normal;font-weight:400;font-stretch:normal;font-size:15px;line-height:125%;font-family:Ubuntu;-inkscape-font-specification:Ubuntu;text-align:center;letter-spacing:0;word-spacing:0;writing-mode:lr-tb;text-anchor:middle;display:inline;opacity:.7;fill:#000;fill-opacity:1;stroke:none;stroke-width:.99980211" d="M3.994 0C2.736.015 1.815-.03 1.062.385a1.88 1.88 0 0 0-.837.998C.06 1.82 0 2.343 0 3v1h4V3a1 1 0 0 1 .516-.875A1 1 0 0 1 5.026 2a1 1 0 0 1 .503.152l4 2.5a1 1 0 0 1 0 1.696l-4 2.5A1 1 0 0 1 4 8V7H0v1c0 .658.06 1.179.225 1.617.164.439.461.789.838.996.752.415 1.673.372 2.931.387H6.146a1 1 0 0 1 .325-1.348l4-2.5A1 1 0 0 1 10.975 7a1 1 0 0 1 .51.125A1 1 0 0 1 12 8V3c0-.658-.06-1.179-.225-1.617a1.875 1.875 0 0 0-.838-.996C10.185-.028 9.264.015 8.006 0H3.994z"/><path style="opacity:1;vector-effect:none;fill:#fff;fill-opacity:1;stroke:none;stroke-width:1;stroke-linecap:round;stroke-linejoin:bevel;stroke-miterlimit:4;stroke-dasharray:none;stroke-dashoffset:0;stroke-opacity:1" d="M3.982 1.027c-1.556.011-.108-.011-1.658.04-.461.042-1.017.205-1.156.708-.219.636-.11 1.335-.147 1.983V4H4V3a1 1 0 0 1 .516-.875A1 1 0 0 1 5.026 2a1 1 0 0 1 .503.152l4 2.5a1 1 0 0 1 0 1.696l-4 2.5A1 1 0 0 1 4 8V7H1.02c.004.444.01.94.023 1.645.04.461.203 1.01.7 1.162.632.225 1.283.122 1.935.154 1.424.007-.149.011 1.277.012l1.211-.002a1 1 0 0 1 .305-.319l4-2.5a1 1 0 0 1 .5-.152c.01-1.78.02-2.56-.024-4.71-.049-.403-.169-.864-.574-1.046-.668-.294-1.427-.167-2.127-.205-1.754-.012-2.51-.013-4.264-.012z"/><path style="font-style:normal;font-variant:normal;font-weight:400;font-stretch:normal;font-size:15px;line-height:125%;font-family:Ubuntu;-inkscape-font-specification:Ubuntu;text-align:center;letter-spacing:0;word-spacing:0;writing-mode:lr-tb;text-anchor:middle;display:inline;opacity:.7;fill:#000;fill-opacity:1;stroke:none;stroke-width:.99980211" d="M9.861 5a1 1 0 0 1-.332 1.348l-4 2.5A1 1 0 0 1 4 8v5c0 .658.06 1.179.225 1.617.164.439.461.789.838.996.752.415 1.673.372 2.931.387h4.012c1.258-.014 2.179.03 2.931-.385a1.88 1.88 0 0 0 .838-.998c.165-.438.225-.96.225-1.617v-1h-4v1a1 1 0 0 1-1.53.848l-4-2.5a1 1 0 0 1 0-1.696l4-2.5A1 1 0 0 1 10.976 7a1 1 0 0 1 .51.125A1 1 0 0 1 12 8v1h4V8c0-.658-.06-1.179-.225-1.617a1.875 1.875 0 0 0-.838-.996c-.752-.415-1.673-.372-2.931-.387H9.86z"/><path style="opacity:1;vector-effect:none;fill:#fff;fill-opacity:1;stroke:none;stroke-width:1;stroke-linecap:round;stroke-linejoin:bevel;stroke-miterlimit:4;stroke-dasharray:none;stroke-dashoffset:0;stroke-opacity:1" d="M9.848 6.027a1 1 0 0 1-.319.32l-4 2.5a1 1 0 0 1-.508.143c-.007 2.016-.02 2.472.022 4.653.04.462.203 1.013.7 1.164.632.225 1.283.122 1.935.154 1.424.007-.149.011 1.277.012 1.705 0 2.409-.006 4.107-.02.512-.012 1.183.02 1.584-.404.422-.54.287-1.269.323-1.904.001-.295 0-.401.002-.645H12v1a1 1 0 0 1-1.53.848l-4-2.5a1 1 0 0 1 0-1.696l4-2.5A1 1 0 0 1 10.976 7a1 1 0 0 1 .51.125A1 1 0 0 1 12 8v1h2.975c-.005-.474-.013-1.002-.028-1.713-.049-.402-.169-.861-.574-1.043-.668-.294-1.427-.17-2.127-.207-.987-.007-1.688-.008-2.398-.01z"/><path d="M9 5.5 5 8V6H0V5h5V3ZM7 10.5l4 2.5v-2h5v-1h-5V8Z" style="fill:#3584e4;fill-opacity:1;stroke:none;stroke-width:1px;stroke-linecap:butt;stroke-linejoin:miter;stroke-opacity:1"/></svg>