<svg xmlns="http://www.w3.org/2000/svg" viewBox="0 0 16 16"><path style="fill:#3584e4;fill-opacity:1;stroke:none;stroke-width:1px;stroke-linecap:butt;stroke-linejoin:miter;stroke-opacity:1" d="m1 8 4-2.5L1 3Z"/><path style="fill:#fff;fill-rule:evenodd;stroke-width:3;stroke-linecap:round;stroke-linejoin:round" transform="scale(-1)" d="M-16-5h8v1h-8z"/><path style="fill:#232629;fill-rule:evenodd;stroke-width:3;stroke-linecap:round;stroke-linejoin:round" transform="scale(-1)" d="M-16-4h8v1h-8z"/><path style="fill:#fff;fill-rule:evenodd;stroke-width:3;stroke-linecap:round;stroke-linejoin:round" transform="scale(-1)" d="M-16-7h8v1h-8z"/><path style="fill:#232629;fill-rule:evenodd;stroke-width:3;stroke-linecap:round;stroke-linejoin:round" transform="scale(-1)" d="M-16-6h8v1h-8z"/><path style="fill:#fff;fill-rule:evenodd;stroke-width:3;stroke-linecap:round;stroke-linejoin:round" transform="scale(-1)" d="M-16-9h8v1h-8z"/><path style="fill:#232629;fill-rule:evenodd;stroke-width:3;stroke-linecap:round;stroke-linejoin:round" transform="scale(-1)" d="M-16-8h8v1h-8z"/><path style="fill:#fff;fill-rule:evenodd;stroke-width:3;stroke-linecap:round;stroke-linejoin:round" transform="scale(-1)" d="M-16-13h8v1h-8z"/><path style="fill:#232629;fill-rule:evenodd;stroke-width:3;stroke-linecap:round;stroke-linejoin:round" transform="scale(-1)" d="M-16-12h8v1h-8z"/><path style="fill:#fff;fill-rule:evenodd;stroke-width:3;stroke-linecap:round;stroke-linejoin:round" transform="scale(-1)" d="M-16-11h8v1h-8z"/><path style="fill:#232629;fill-rule:evenodd;stroke-width:3;stroke-linecap:round;stroke-linejoin:round" transform="scale(-1)" d="M-16-10h8v1h-8z"/></svg>