<svg xmlns="http://www.w3.org/2000/svg" viewBox="0 0 16 16">/&gt;<path style="fill:#3584e4;fill-opacity:1;stroke:none;stroke-width:1px;stroke-linecap:butt;stroke-linejoin:miter;stroke-opacity:1" d="m8 16-3-4h2v-2h2v2h2z"/><path style="opacity:1;fill:#fff;fill-opacity:1;stroke:none;stroke-width:2;stroke-linejoin:round;stroke-miterlimit:4;stroke-dasharray:none" d="M3 7h10v2H3z"/><path d="M1 6v4h14V6H6zm1 1h3v2H2Zm4 0h4v2H6Zm5 0h3v2h-3z" style="fill:#6d6d6d;fill-opacity:1"/><path style="opacity:1;fill:#fff;fill-opacity:1;stroke:none;stroke-width:2;stroke-linejoin:round;stroke-miterlimit:4;stroke-dasharray:none" d="M3 2h10v2H3z"/><path style="fill:#6d6d6d;fill-opacity:1" d="M1 1v4h14V1H6zm1 1h3v2H2Zm4 0h4v2H6Zm5 0h3v2h-3z"/></svg>