<svg viewBox="0 0 16 16" xmlns="http://www.w3.org/2000/svg"><path style="color:#000;fill:gray;-inkscape-stroke:none" d="m13.443 4.68-.373.373c.371.787.68 1.79.68 2.947 0 2.889-1.928 4.822-1.928 4.822l.356.356S14.25 11.11 14.25 8c0-1.324-.376-2.455-.807-3.32zM11.504 6.62l-.393.392c.086.293.139.622.139.988 0 1.875-1.389 2.791-1.389 2.791l.278.418S11.75 10.125 11.75 8c0-.524-.099-.984-.246-1.38z"/><path style="color:#000;opacity:.7;fill:#000;stroke-width:2;stroke-linejoin:round;-inkscape-stroke:none" d="M7.912 1.285a1 1 0 0 0-.51.194L2.668 5H2a1 1 0 0 0-1 1v4a1 1 0 0 0 1.016 1l.638-.01.135.102L9 4.88v-2.6a1 1 0 0 0-.55-.892 1 1 0 0 0-.538-.104zM9 9.123 5.223 12.9l2.18 1.621A1 1 0 0 0 9 13.72V9.123z"/><path style="fill:#fff" d="M8 2.281 3 6H2v4l1-.016V10l.506.375L8 5.881v-3.6zm0 7.842-2.063 2.063L8 13.719v-3.596z"/><path style="opacity:1;fill:#6d6d6d;fill-opacity:1;stroke:none;stroke-width:2;stroke-linejoin:round;stroke-miterlimit:4;stroke-dasharray:none;stroke-opacity:1" d="M2 6h1v4H2z"/><path style="opacity:1;fill:#c7162b;fill-opacity:1;stroke:none;stroke-width:2;stroke-linejoin:round;stroke-miterlimit:4;stroke-dasharray:none;stroke-opacity:1" transform="rotate(45)" d="M10.814-8h1V8h-1z"/></svg>