<svg xmlns="http://www.w3.org/2000/svg" viewBox="0 0 16 16">/&gt;<path style="fill:#000;stroke:#000;opacity:.7;stroke-width:2;stroke-miterlimit:4;stroke-dasharray:none;stroke-linejoin:round" fill="#232629" d="M5.375 2A3.375 3.375 0 0 0 2 5.375c0 .398.043.804.21 1.125 1.712 3.194 3.78 3.485 5.767 7.453v.024c.005.01.018.013.023.023l.023-.047c1.987-3.968 4.055-4.26 5.766-7.453.168-.321.211-.727.211-1.125A3.375 3.375 0 0 0 10.625 2a3.339 3.339 0 0 0-2.602 1.242c-.006.009-.016.015-.023.024-.007-.009-.017-.015-.023-.024A3.339 3.339 0 0 0 5.375 2z"/><path d="M5.375 2A3.375 3.375 0 0 0 2 5.375c0 .398.043.804.21 1.125 1.712 3.194 3.78 3.485 5.767 7.453v.024c.005.01.018.013.023.023l.023-.047c1.987-3.968 4.055-4.26 5.766-7.453.168-.321.211-.727.211-1.125A3.375 3.375 0 0 0 10.625 2a3.339 3.339 0 0 0-2.602 1.242c-.006.009-.016.015-.023.024-.007-.009-.017-.015-.023-.024A3.339 3.339 0 0 0 5.375 2z" fill="#232629" style="fill:#fff"/></svg>