<svg xmlns="http://www.w3.org/2000/svg" viewBox="0 0 16 16"><path d="M3 1a1.989 1.989 0 00-2 2v11h9.072l-.92-1.47A1 1 0 0110 11h1V8a1 1 0 011-1h1a1 1 0 011 1v3h1V3c0-1.108-.892-2-2-2H3zm12 12.885l-.072.115H15v-.115z" opacity=".6" fill-rule="evenodd"/><path d="M2 6v7h7.447l-.295-.47A1 1 0 0110 11h1V8a1 1 0 011-1h1a1 1 0 011 1V6H2zM3 2c-.554 0-1 .446-1 1v2h12V3c0-.554-.446-1-1-1z" fill="#fff" fill-rule="evenodd"/><path d="M12 3h1v1h-1z" fill="#88a05d" fill-rule="evenodd"/><path d="M10 3h1v1h-1zM8 3h1v1H8z" fill="#232629" fill-rule="evenodd"/><path d="M12.5 16L10 12h2V8h1v4h2z" fill="#88a05d"/></svg>