<svg xmlns="http://www.w3.org/2000/svg" xmlns:xlink="http://www.w3.org/1999/xlink" viewBox="0 0 32 32"><path style="line-height:normal;font-variant-ligatures:normal;font-variant-position:normal;font-variant-caps:normal;font-variant-numeric:normal;font-variant-alternates:normal;font-variant-east-asian:normal;font-feature-settings:normal;font-variation-settings:normal;text-indent:0;text-align:start;text-decoration-line:none;text-decoration-style:solid;text-decoration-color:#000;text-transform:none;text-orientation:mixed;white-space:normal;shape-padding:0;shape-margin:0;inline-size:0;isolation:auto;mix-blend-mode:normal;solid-color:#000;solid-opacity:1" d="M10 4v21h3v-9h3.5c1.667 0 3.413-.246 4.906-1.158C22.9 13.929 24 12.179 24 10v-.014c-.02-2.118-1.114-3.835-2.588-4.763C19.938 4.295 18.191 4 16.5 4H13zm3 3h3.5c1.31 0 2.547.278 3.314.762.767.482 1.17 1.015 1.184 2.246-.002 1.313-.4 1.814-1.154 2.275-.757.463-2.01.717-3.344.717H13z" color="#000" font-weight="400" font-family="sans-serif" overflow="visible" stroke="#fff" stroke-width="2" stroke-linejoin="round"/><defs><linearGradient id="a"><stop offset="0" stop-color="#151515"/><stop offset="1" stop-color="#4d4d4d"/></linearGradient><linearGradient xlink:href="#a" id="b" x1="15" y1="4" x2="15" y2="28" gradientUnits="userSpaceOnUse"/></defs><path d="M7 27v1h18v-1z" stroke="#fff" stroke-width="2" stroke-linejoin="round"/><path style="line-height:normal;font-variant-ligatures:normal;font-variant-position:normal;font-variant-caps:normal;font-variant-numeric:normal;font-variant-alternates:normal;font-variant-east-asian:normal;font-feature-settings:normal;font-variation-settings:normal;text-indent:0;text-align:start;text-decoration-line:none;text-decoration-style:solid;text-decoration-color:#000;text-transform:none;text-orientation:mixed;white-space:normal;shape-padding:0;shape-margin:0;inline-size:0;isolation:auto;mix-blend-mode:normal;solid-color:#000;solid-opacity:1" d="M10 4v21h3v-9h3.5c1.667 0 3.413-.246 4.906-1.158C22.9 13.929 24 12.179 24 10v-.014c-.02-2.118-1.114-3.835-2.588-4.763C19.938 4.295 18.191 4 16.5 4H10zm3 3h3.5c1.31 0 2.547.278 3.314.762.767.482 1.17 1.015 1.184 2.246-.002 1.313-.4 1.814-1.154 2.275-.757.463-2.01.717-3.344.717H13V7zM7 27v1h18v-1H7z" color="#000" font-weight="400" font-family="sans-serif" overflow="visible" fill="url(#b)"/></svg>