<svg height="30" viewBox="0 0 15 17.308" width="30" xmlns="http://www.w3.org/2000/svg"><path d="M0 1.154h15v15H0z" fill="#fff"/><path d="M-.577 16.73V.578h16.154V16.73zM0 16.155h15v-15H0z" fill="#232629"/><g fill="#77216f" style="fill:#3a944a"><path d="M4 21v3h3v-3zm1 1h1v1H5z" transform="matrix(.57692 0 0 .57692 -1.154 0)" style="fill:#3a944a"/><path d="M11.538 10.962v1.73h1.731v-1.73zm.577.576h.577v.577h-.577zM6.923 4.038V5.77h1.73V4.04zm.577.577h.577v.577H7.5z" style="fill:#3a944a"/><path d="M18 8v1h5v9h1V8zm-3 3v11H8v1h8V11z" transform="matrix(.57692 0 0 .57692 -1.154 0)" style="fill:#3a944a"/></g></svg>