<svg xmlns="http://www.w3.org/2000/svg" viewBox="0 0 16 16"><circle style="opacity:1;fill:#4d4d4d;fill-opacity:1;fill-rule:evenodd;stroke:none;stroke-width:2;stroke-linecap:round;stroke-linejoin:round;stroke-miterlimit:4;stroke-dasharray:none;stroke-opacity:1" cx="8" cy="8" r="7"/><path style="opacity:1;fill:#ebebeb;fill-opacity:1;fill-rule:evenodd;stroke:none;stroke-width:2;stroke-linecap:round;stroke-linejoin:round;stroke-miterlimit:4;stroke-dasharray:none;stroke-opacity:1" d="M8 1a7 7 0 0 0-3 .686V3h3a5 5 0 0 1 5 5 5 5 0 0 1-2.01 4H12v1.742A7 7 0 0 0 15 8a7 7 0 0 0-7-7zM4 2.258A7 7 0 0 0 1 8a7 7 0 0 0 7 7 7 7 0 0 0 3-.686V13H8a5 5 0 0 1-5-5 5 5 0 0 1 2.01-4H4V2.258z"/><circle style="opacity:.1;fill:#babeb4;fill-opacity:1;fill-rule:evenodd;stroke:none;stroke-width:2;stroke-linecap:round;stroke-linejoin:round;stroke-miterlimit:4;stroke-dasharray:none;stroke-opacity:1" cx="8" cy="8" r="5"/><path style="fill:#fff9f2;stroke:none;stroke-width:1px;stroke-linecap:butt;stroke-linejoin:miter;stroke-opacity:1;fill-opacity:1" d="m4.5 11 3-7h1l3 7H10L8 5.5 6 11H4.5"/><path style="fill:#4571df;stroke:none;stroke-width:1px;stroke-linecap:butt;stroke-linejoin:miter;stroke-opacity:1;fill-opacity:1;opacity:.1" d="M8.5 4 8 5.5l2 5.5h1.5z"/><rect style="opacity:1;fill:#f8f8f8;fill-opacity:1;fill-rule:evenodd;stroke:none;stroke-width:2;stroke-linecap:round;stroke-linejoin:round;stroke-miterlimit:4;stroke-dasharray:none;stroke-opacity:1" width="8" height="1" x="4" y="8" rx=".771" ry=".5"/><path style="opacity:.2;fill:#000;fill-opacity:1;fill-rule:evenodd;stroke:none;stroke-width:2;stroke-linecap:round;stroke-linejoin:round;stroke-miterlimit:4;stroke-dasharray:none;stroke-opacity:1" d="M8 1a7 7 0 0 0-7 7 7 7 0 0 0 7 7 7 7 0 0 0 7-7 7 7 0 0 0-7-7zm0 1a6 6 0 0 1 6 6 6 6 0 0 1-6 6 6 6 0 0 1-6-6 6 6 0 0 1 6-6z"/></svg>