<svg xmlns="http://www.w3.org/2000/svg" xmlns:xlink="http://www.w3.org/1999/xlink" height="32" width="32"><defs><linearGradient xlink:href="#a" id="d" gradientUnits="userSpaceOnUse" gradientTransform="matrix(.15217 0 0 .15217 1.391 1.391)" x1="96" y1="4" x2="96" y2="188"/><linearGradient id="a"><stop offset="0" stop-color="#fff"/><stop offset=".125" stop-color="#fff" stop-opacity=".098"/><stop offset=".925" stop-color="#fff" stop-opacity=".098"/><stop offset="1" stop-color="#fff" stop-opacity=".498"/></linearGradient><linearGradient xlink:href="#b" id="c" gradientUnits="userSpaceOnUse" gradientTransform="matrix(.60892 0 0 .60892 .856 -149.706)" x1="13.735" y1="249.694" x2="38.1" y2="292.767"/><linearGradient id="b"><stop offset="0" stop-color="#da1636"/><stop offset="1" stop-color="#f22c42"/></linearGradient></defs><circle cx="-16" cy="-17" transform="scale(-1)" r="15" opacity=".1"/><circle cx="16" cy="16" r="14.5" fill="url(#c)"/><path d="M1.406 17.333A14.667 14.667 0 0016 30.667a14.667 14.667 0 0014.6-13.334z" opacity=".05" fill="#fff"/><g style="line-height:1000%;text-align:center"><path d="M17.275 11.793q0 2.142-.153 3.901-.153 1.734-.383 3.467h-1.478q-.23-1.733-.383-3.467-.153-1.76-.153-3.9V7h2.55zm.433 11.499q0 .688-.459 1.198T16 25q-.79 0-1.25-.51-.458-.51-.458-1.198 0-.689.459-1.199.459-.51 1.249-.51t1.25.51q.458.51.458 1.199z" style="-inkscape-font-specification:Ubuntu;text-align:center" font-family="Ubuntu" aria-label="!" font-weight="400" font-size="25.496" letter-spacing="0" word-spacing="0" text-anchor="middle" fill="#fff" stroke-width=".637"/></g><circle cx="16" cy="16" r="14.5" opacity=".4" fill="none" stroke="#000" stroke-linejoin="round" stroke-dashoffset="6.6"/><path d="M16 2C8.268 2 2 8.268 2 16s6.268 14 14 14 14-6.268 14-14S23.732 2 16 2zm0 1a13 13 0 0113 13 13 13 0 01-13 13A13 13 0 013 16 13 13 0 0116 3z" fill="url(#d)"/></svg>