<svg xmlns="http://www.w3.org/2000/svg" xmlns:xlink="http://www.w3.org/1999/xlink" viewBox="0 0 108 43"><defs><radialGradient xlink:href="#a" id="g" gradientUnits="userSpaceOnUse" gradientTransform="matrix(-.01566 0 0 .00848 60.39 26.298)" cx="605.71" cy="486.65" r="117.14"/></defs><linearGradient id="b" gradientTransform="matrix(.03952 0 0 .00848 57.226 35.812)" gradientUnits="userSpaceOnUse" x1="302.86" x2="302.86" y1="366.65" y2="609.51"><stop offset="0" stop-opacity="0"/><stop offset=".5"/><stop offset="1" stop-opacity="0"/></linearGradient><linearGradient id="a"><stop offset="0"/><stop offset="1" stop-opacity="0"/></linearGradient><linearGradient id="c" gradientTransform="matrix(.65714 0 0 .64865 54.229 13.946)" gradientUnits="userSpaceOnUse" x1="25.132" x2="25.132" y1=".985" y2="47.013"><stop offset="0" stop-color="#f4f4f4"/><stop offset="1" stop-color="#dbdbdb"/></linearGradient><linearGradient id="d" gradientTransform="matrix(.53064 0 0 .60704 93.27 13.223)" gradientUnits="userSpaceOnUse" x1="-51.786" x2="-51.786" y1="50.786" y2="2.906"><stop offset="0" stop-color="#aaa"/><stop offset="1" stop-color="#c8c8c8"/></linearGradient><linearGradient id="e" gradientTransform="matrix(.63636 0 0 .64638 54.727 14.996)" gradientUnits="userSpaceOnUse" x1="24" x2="24" y1="2" y2="46.017"><stop offset="0" stop-color="#fff"/><stop offset="1" stop-color="#fff" stop-opacity="0"/></linearGradient><linearGradient id="f" gradientTransform="matrix(.63713 0 0 .66351 54.83 14.804)" gradientUnits="userSpaceOnUse" x1="32.892" x2="36.358" y1="8.059" y2="5.457"><stop offset="0" stop-color="#fefefe"/><stop offset="1" stop-color="#cbcbcb"/></linearGradient><radialGradient id="h" cx="605.71" cy="486.65" gradientTransform="matrix(-.01566 0 0 .00848 24.89 26.298)" gradientUnits="userSpaceOnUse" r="117.14" xlink:href="#a"/><radialGradient id="i" cx="605.71" cy="486.65" gradientTransform="matrix(-.01566 0 0 .00848 95.89 26.298)" gradientUnits="userSpaceOnUse" r="117.14" xlink:href="#a"/><path d="M50.5 6.02l12.811.047 7.189 6.53V30l-20-.048V6.019z" opacity=".6" stroke="#000" stroke-width="2" stroke-linejoin="round"/><path d="M50.5 6.02l12.811.047 7.189 6.53V30l-20-.048V6.019z" fill="#fff"/><path d="M37.5 12.02l12.811.047 7.189 6.53V36l-20-.048V12.019z" opacity=".6" stroke="#000" stroke-width="2" stroke-linejoin="round"/><path d="M50.95 29.406v2.058c-.807.004-1.95-.46-1.95-1.029 0-.568.9-1.03 1.95-1.03z" opacity=".15" fill="url(#g)"/><path d="M15 6.02l12.811.047L35 12.597V30l-20-.048V6.019z" opacity=".6" stroke="#000" stroke-width="2" stroke-linejoin="round"/><path d="M68.033 28.008H59.51V26.09l3.06-3.31q1.36-1.49 1.777-2.062.417-.58.6-1.07.184-.492.184-1.018 0-.785-.409-1.169-.4-.384-1.075-.384-.71 0-1.376.348-.667.348-1.393.99l-1.401-1.775q.9-.82 1.493-1.16.592-.34 1.292-.518.7-.187 1.568-.187 1.143 0 2.018.446.876.446 1.36 1.25.483.803.483 1.838 0 .9-.3 1.695-.292.785-.917 1.615-.617.83-2.185 2.365l-1.568 1.58v.124h5.312z" fill="#565656"/><path d="M37.5 12.02l12.811.047 7.189 6.53V36l-20-.048V12.019z" fill="#fff"/><path d="M86 6.02l12.811.047 7.189 6.53V30l-20-.048V6.019z" opacity=".6" stroke="#000" stroke-width="2" stroke-linejoin="round"/><path d="M55.033 34.008H46.51V32.09l3.06-3.31q1.36-1.49 1.777-2.062.417-.58.6-1.07.184-.492.184-1.018 0-.785-.409-1.169-.4-.384-1.075-.384-.71 0-1.376.348-.667.348-1.393.99l-1.401-1.775q.9-.82 1.493-1.16.592-.34 1.292-.518.7-.187 1.568-.187 1.143 0 2.018.446.876.446 1.36 1.25.483.803.483 1.838 0 .9-.3 1.695-.292.785-.917 1.615-.617.83-2.185 2.365l-1.568 1.58v.124h5.312z" fill="#565656"/><path d="M15 6.02l12.811.047L35 12.597V30l-20-.048V6.019z" fill="#fff"/><path d="M2 12.02l12.811.047L22 18.597V36l-20-.048V12.019z" opacity=".6" stroke="#000" stroke-width="2" stroke-linejoin="round"/><path d="M15.45 29.406v2.058c-.807.004-1.95-.46-1.95-1.029 0-.568.9-1.03 1.95-1.03z" opacity=".15" fill="url(#h)"/><path d="M30.382 28.008h-2.577V20.46l.025-1.24.041-1.356q-.642.687-.892.9l-1.4 1.205-1.243-1.66 3.927-3.346h2.119z" fill="#565656"/><path d="M2 12.02l12.811.047L22 18.597V36l-20-.048V12.019z" fill="#fff"/><path d="M19.023 34.008h-2.577V26.46l.025-1.24.042-1.356q-.642.687-.892.9l-1.401 1.205-1.243-1.66 3.928-3.346h2.118z" fill="#565656"/><path d="M86 6.02l12.811.047 7.189 6.53V30l-20-.048V6.019z" fill="#fff"/><path d="M73 12.02l12.811.047L93 18.597V36l-20-.048V12.019z" opacity=".6" stroke="#000" stroke-width="2" stroke-linejoin="round"/><path d="M86.45 29.406v2.058c-.807.004-1.95-.46-1.95-1.029 0-.568.9-1.03 1.95-1.03z" opacity=".15" fill="url(#i)"/><path d="M103.058 17.88q0 1.223-.692 2.08-.693.856-1.943 1.177v.054q1.476.196 2.234.964.76.758.76 2.052 0 1.883-1.277 2.936-1.275 1.044-3.644 1.044-1.985 0-3.519-.705v-2.347q.709.384 1.56.625.85.24 1.684.24 1.276 0 1.885-.463.608-.464.608-1.49 0-.92-.7-1.303-.7-.384-2.235-.384h-.926v-2.115h.943q1.417 0 2.068-.393.659-.401.659-1.365 0-1.481-1.735-1.481-.6 0-1.226.214-.617.214-1.376.74l-1.192-1.9q1.668-1.285 3.978-1.285 1.893 0 2.985.821 1.1.82 1.1 2.284z" fill="#565656"/><path d="M73 12.02l12.811.047L93 18.597V36l-20-.048V12.019z" fill="#fff"/><path d="M90.058 23.88q0 1.223-.692 2.08-.693.856-1.943 1.177v.054q1.476.196 2.234.964.76.758.76 2.052 0 1.883-1.277 2.936-1.275 1.044-3.644 1.044-1.985 0-3.519-.705v-2.347q.709.384 1.56.625.85.24 1.684.24 1.276 0 1.885-.463.608-.464.608-1.49 0-.92-.7-1.303-.7-.384-2.235-.384h-.926v-2.115h.943q1.417 0 2.068-.393.659-.401.659-1.365 0-1.481-1.735-1.481-.6 0-1.226.214-.617.214-1.376.74l-1.192-1.9q1.668-1.285 3.978-1.285 1.893 0 2.985.821 1.1.82 1.1 2.284z" fill="#565656"/></svg>