<svg xmlns="http://www.w3.org/2000/svg" xmlns:xlink="http://www.w3.org/1999/xlink" width="32" height="32" viewBox="0 0 8.467 8.467"><defs><linearGradient xlink:href="#a" id="d" x1="221" y1="-212.008" x2="237.885" y2="-212.008" gradientUnits="userSpaceOnUse" gradientTransform="rotate(-90 229 -212)"/><linearGradient id="a"><stop offset="0" stop-color="#4d4d4d"/><stop offset="1" stop-color="#151515"/></linearGradient><linearGradient xlink:href="#a" id="e" x1="221" y1="-213" x2="237" y2="-213" gradientUnits="userSpaceOnUse" gradientTransform="rotate(-90 229 -212)"/><filter id="c" x="-.097" width="1.195" y="-.156" height="1.312" color-interpolation-filters="sRGB"><feGaussianBlur stdDeviation=".568"/></filter><filter id="b" x="-.195" width="1.39" y="-.312" height="1.625" color-interpolation-filters="sRGB"><feGaussianBlur stdDeviation="1.137"/></filter></defs><g color="#000"><path transform="matrix(.26458 0 0 .26458 -.076 -.099)" d="M9.009 3.217v2.652h-6v5H9.01v2.645l.707-.324a65.081 65.081 0 004.088-2.053v-.002h.002a77.429 77.429 0 003.969-2.344l.675-.426-.68-.421a91.054 91.054 0 00-3.964-2.317h-.002v-.002a75.742 75.742 0 00-4.084-2.074zm1 1.602a74.784 74.784 0 013.316 1.685 89.956 89.956 0 013.198 1.867 76.44 76.44 0 01-3.2 1.889 64.285 64.285 0 01-3.312 1.664V9.87H4.009v-3h6z" style="line-height:normal;font-variant-ligatures:normal;font-variant-position:normal;font-variant-caps:normal;font-variant-numeric:normal;font-variant-alternates:normal;font-feature-settings:normal;text-indent:0;text-align:start;text-decoration-line:none;text-decoration-style:solid;text-decoration-color:#000;text-transform:none;text-orientation:mixed;white-space:normal;shape-padding:0;isolation:auto;mix-blend-mode:normal;solid-color:#000;solid-opacity:1;marker:none" font-weight="400" font-family="sans-serif" overflow="visible" opacity=".2" filter="url(#b)" enable-background="accumulate"/><path transform="matrix(.26458 0 0 .26458 -.076 -.099)" d="M9.009 3.217v2.652h-6v5H9.01v2.645l.707-.324a65.081 65.081 0 004.088-2.053v-.002h.002a77.429 77.429 0 003.969-2.344l.675-.426-.68-.421a91.054 91.054 0 00-3.964-2.317h-.002v-.002a75.742 75.742 0 00-4.084-2.074zm1 1.602a74.784 74.784 0 013.316 1.685 89.956 89.956 0 013.198 1.867 76.44 76.44 0 01-3.2 1.889 64.285 64.285 0 01-3.312 1.664V9.87H4.009v-3h6z" style="line-height:normal;font-variant-ligatures:normal;font-variant-position:normal;font-variant-caps:normal;font-variant-numeric:normal;font-variant-alternates:normal;font-feature-settings:normal;text-indent:0;text-align:start;text-decoration-line:none;text-decoration-style:solid;text-decoration-color:#000;text-transform:none;text-orientation:mixed;white-space:normal;shape-padding:0;isolation:auto;mix-blend-mode:normal;solid-color:#000;solid-opacity:1;marker:none" font-weight="400" font-family="sans-serif" overflow="visible" opacity=".6" filter="url(#c)" enable-background="accumulate"/><path d="M228-216.365V-214h-6v4h6.002v2.365a64.555 64.555 0 004.055-2.037A76.931 76.931 0 00236-212a90.574 90.574 0 00-3.943-2.305 75.233 75.233 0 00-4.057-2.06z" style="marker:none" overflow="visible" fill="url(#d)" stroke="#fff" stroke-width="2" enable-background="accumulate" transform="matrix(.26458 0 0 .26458 -57.944 58.208)"/><path style="marker:none" d="M228-216.365V-214h-6v4h6.002v2.365a64.555 64.555 0 004.055-2.037A76.931 76.931 0 00236-212a90.574 90.574 0 00-3.943-2.305 75.233 75.233 0 00-4.057-2.06z" overflow="visible" fill="url(#e)" enable-background="accumulate" transform="matrix(.26458 0 0 .26458 -57.944 58.208)"/></g></svg>