<svg xmlns="http://www.w3.org/2000/svg" width="22" height="22"><path style="line-height:normal;font-variant-ligatures:normal;font-variant-position:normal;font-variant-caps:normal;font-variant-numeric:normal;font-variant-alternates:normal;font-feature-settings:normal;text-indent:0;text-align:start;text-decoration-line:none;text-decoration-style:solid;text-decoration-color:#000;text-transform:none;text-orientation:mixed;white-space:normal;shape-padding:0;isolation:auto;mix-blend-mode:normal;solid-color:#000;solid-opacity:1" d="M17 14.03a1 1 0 01-.05.286l-2 6A1 1 0 0114 21H7a1 1 0 01-.95-.684l-2-6A.977.977 0 014 14V2a1 1 0 011-1h11a1 1 0 011 1zM15 12V3H6v9zm-.389 3H6.39l1.332 4h5.558z" color="#000" font-weight="400" font-family="sans-serif" overflow="visible" fill="#1463a5" fill-rule="evenodd"/><path fill="#fff" fill-rule="evenodd" d="M16 13V2H5v11z"/><path d="M16 14l-2 6H7l-2-6h11" fill="#b6b6b6"/></svg>