<svg xmlns="http://www.w3.org/2000/svg" height="15" width="15"><path d="M1 1v1h1V1zm2 0v1h2V1zm3 0v1h2V1zm3 0v1h2V1zm3 0v1h2V1h-1zM1 3v2h1V3zm12 0v2h1V3zM1 6v2h1V6zm12 0v2h1V6zM1 9v2h1V9zm12 0v2h1V9zM1 12v2h1v-2zm12 0v1h-1v1h2v-2zM3 13v1h2v-1zm3 0v1h2v-1zm3 0v1h2v-1z" opacity=".8" fill="gray"/><path opacity=".8" fill="gray" fill-rule="evenodd" d="M7 3h1v2H7zM7 6h1v2H7zM7 9h1v2H7zM7 12h1v1H7zM12 7v1h-2V7z"/><path opacity=".8" fill="gray" fill-rule="evenodd" d="M9 7v1H7V7zM6 7v1H4V7zM3 7v1H2V7z"/><path d="M1 1v13h13V1H1zm1 1h11v5H2V2zm0 6h11v5H2V8z" fill="#88a05d" fill-rule="evenodd"/></svg>