<svg xmlns="http://www.w3.org/2000/svg" xmlns:xlink="http://www.w3.org/1999/xlink" viewBox="0 0 32 32"><defs><linearGradient id="a"><stop offset="0" stop-color="#4d4d4d"/><stop offset="1" stop-color="#151515"/></linearGradient><linearGradient xlink:href="#a" id="b" x1="16" y1="28" x2="16" y2="4" gradientUnits="userSpaceOnUse"/></defs><path stroke="#fff" stroke-width="2" stroke-linejoin="round" d="M7 27h18v1H7zM16 25c-3.878 0-7-2.676-7-6v-9c0-3.324 3.122-6 7-6s7 2.676 7 6v9c0 3.324-3.122 6-7 6zm0-2c2.216 0 4-1.784 4-4v-9c0-2.216-1.784-4-4-4s-4 1.784-4 4v9c0 2.216 1.784 4 4 4z"/><path d="M16 4c-3.878 0-7 2.676-7 6v9c0 3.324 3.122 6 7 6s7-2.676 7-6v-9c0-3.324-3.122-6-7-6zm0 2c2.216 0 4 1.784 4 4v9c0 2.216-1.784 4-4 4s-4-1.784-4-4v-9c0-2.216 1.784-4 4-4zM7 27v1h18v-1H7z" fill="url(#b)"/></svg>