<svg xmlns="http://www.w3.org/2000/svg" height="32" width="32"><path d="M2 6.996c0-2 1-2 3.001-2h22c1.998 0 2.999 0 2.999 2v18.008c0 2-1 2-3 2H5.002c-1.998 0-3 0-3-2z" opacity=".7" stroke="#000" stroke-width="2"/><path d="M2 6.996c0-2 1-2 3.001-2h22c1.998 0 2.999 0 2.999 2v18.008c0 2-1 2-3 2H5.002c-1.998 0-3 0-3-2z" fill="#fff"/><path d="M8 5L6 6l-1.963-.98-.078.001-1.793.897C2.06 6.191 2 6.535 2 6.996v18.008c0 .46.06.805.166 1.078l1.793.897.08.001L6 26l2 1 2-1 2 1 2-1 2 1 2-1 2 1 2-1 2 1 2-1v-2l2-1v-2l-2-1-2 1v2l-2 1-2-1v-2l2-1v-2l-2-1v-2l2-1 2 1 2-1v-2l-2-1-2 1-2-1-2 1-2-1V9l2-1V6l-2-1-2 1-2-1-2 1-2-1zm8 12l2 1v2l-2 1-2-1v-2l2-1z" fill="#762572" fill-rule="evenodd"/></svg>