<svg xmlns="http://www.w3.org/2000/svg" height="32" width="32"><path d="M2 6.996c0-2 1-2 3.001-2h22c1.998 0 2.999 0 2.999 2v18.008c0 2-1 2-3 2H5.002c-1.998 0-3 0-3-2z" opacity=".7" stroke="#000" stroke-width="2"/><path d="M2 6.996c0-2 1-2 3.001-2h22c1.998 0 2.999 0 2.999 2v18.008c0 2-1 2-3 2H5.002c-1.998 0-3 0-3-2z" fill="#fff"/><path d="M5.002 4.996C3 4.996 2 4.996 2 6.996v.832h3.914l.065-2.832h-.977zm1.11 0l.087 2.918 3.887-.057.045-2.86H6.11zm4.253 0l-.021 2.861L14 8l.09-3.004h-3.725zm4.018 0l-.184 2.975 3.186-.114.457-2.86h-3.46zm3.906 0l-.646 2.861 3.128-.3.612-2.56h-3.094zm3.412 0l-.615 2.477L24 7l.457-2.004h-2.756zM24.7 5l-.441 1.873L27 6l.328-.996c-.058 0-.103-.004-.164-.004H24.7zm2.174 1.436l-2.686.771-.8 2.672 2.486-1.158 1-2.285zm-2.988.85l-2.914.571-.828 2.928L23 10l.885-2.715zm-3.17.542l-3.115.344-.485 3.271 2.77-.558.83-3.057zM6.229 8.03l.029 3.657 3.713.056.058-3.6-3.8-.113zM2 8.057l.057 3.714 3.886-.056L6 8.085l-4-.028zm8.502.086l-.13 3.6h3.155l.33-3.6h-3.355zm6.799.029l-3.072.1-.358 3.414 2.93-.186.5-3.328zm8.43 1.006l-2.487 1.056-1.056 2.444 2.484-1.3 1.058-2.2zm-2.903 1.193l-2.685.772-.8 2.671 2.485-1.1 1-2.343zm-3.027.828l-2.715.543-.828 3.186L19 14l.8-2.8zm-3.059.543l-2.914.315-.885 3.5L16 15l.742-3.258zm7.76.121l-2.457 1.201-.887 2.358 2.315-1.215 1.029-2.344zM2 12v3.857l3.885-.029L6 12H2zm8 0l-3.67.057-.158 3.857 3.299-.057L10 12zm3.5.086l-3.156.014-.53 3.728 2.957-.185.729-3.557zm8.186 1.086l-2.487 1-.885 2.357 2.428-1.015.944-2.342zM18.8 14.314l-2.602.858-.855 2.642 2.6-1.158.857-2.342zm4.355.436l-2.314 1.143-.973 2.101 2.602-1.3.685-1.944zm-7.299.535l-2.943.572-.771 2.987L15 18l.857-2.715zm-3.2.6l-2.886.287-.656 3.185 2.828-.5.713-2.972zm7.83.115L18 17l-.885 2.357 2.313-1.214L20.486 16zm-18.415.086l-.043 3.857 3.412-.058.502-3.742-3.87-.057zm7.399.086l-3.213.07-.559 3.672 3.102-.414.67-3.328zm12.771.978l-2.457 1.229-.828 2.014 2.6-1.3.685-1.943zm-4.556.022l-2.487 1-.885 2.357 2.428-1.101.944-2.256zm-2.858 1.2l-2.629.8-.855 2.642 2.484-1.158 1-2.285zm4.512.171l-2.315 1.145-.798 2.04 2.427-1.242.686-1.943zm-7.483.686L9 19.715l-.742 3.014L11 22l.857-2.771zm4.762.55l-2.371 1.086-.887 2.385 2.43-1.299.828-2.172zm-7.963.022l-2.914.398-.6 3.33L8 22.771l.656-2.97zm-3.213.457l-3.386.043-.057.377v3.246l2.8-.424.643-3.242zm8.319.832l-2.4 1-.858 2.644 2.43-1.3.828-2.344zm-2.828 1.203l-2.772.828-.857 2.844 2.857-1.158.772-2.514zm-2.99.85l-2.887.714-.8 3.014L7 26l.943-2.857zm-3.231.685L2 24.301v.703c0 1.62.692 1.918 2.004 1.976l.709-3.152z" fill="#88a05d"/></svg>