<svg xmlns="http://www.w3.org/2000/svg" height="32" width="32"><path style="opacity:.7;fill:#000;stroke:#000;stroke-width:2.0004;stroke-linecap:butt;stroke-linejoin:miter;stroke-miterlimit:4;stroke-dasharray:none;stroke-opacity:1" d="M2 6.996c0-2 1-2 3.001-2h22c1.998 0 2.999 0 2.999 2v18.008c0 2-1 2-3 2H5.002c-1.998 0-3 0-3-2z"/><path style="fill:#fff;stroke:none;stroke-width:1.0002px;stroke-linecap:butt;stroke-linejoin:miter;stroke-opacity:1" d="M2 6.996c0-2 1-2 3.001-2h22c1.998 0 2.999 0 2.999 2v18.008c0 2-1 2-3 2H5.002c-1.998 0-3 0-3-2z"/><g fill="#88a05d"><circle cx="16" cy="16" r="2"/><path d="M16 6a6 10 0 0 0-6 10 6 10 0 0 0 6 10 6 10 0 0 0 6-10 6 10 0 0 0-6-10zm0 1a5 9 0 0 1 5 9 5 9 0 0 1-5 9 5 9 0 0 1-5-9 5 9 0 0 1 5-9z"/><path d="M16 10a12 6 0 0 0-12 6 12 6 0 0 0 12 6 12 6 0 0 0 12-6 12 6 0 0 0-12-6zm0 1a11 5 0 0 1 11 5 11 5 0 0 1-11 5 11 5 0 0 1-11-5 11 5 0 0 1 11-5z"/><path d="M12.464 12.464a5 12 45 0 0-4.95 12.021 5 12 45 0 0 12.022-4.95 5 12 45 0 0 4.95-12.02 5 12 45 0 0-12.022 4.95zm.708.708a4 11 45 0 1 10.606-4.95 4 11 45 0 1-4.95 10.606 4 11 45 0 1-10.606 4.95 4 11 45 0 1 4.95-10.606z"/><path d="M18.828 13.172A12 4 45 0 0 7.515 7.515a12 4 45 0 0 5.657 11.313 12 4 45 0 0 11.313 5.657 12 4 45 0 0-5.657-11.313zm-.707.707a11 3 45 0 1 5.657 9.9 11 3 45 0 1-9.9-5.658 11 3 45 0 1-5.656-9.9 11 3 45 0 1 9.9 5.658z"/></g></svg>