<svg xmlns="http://www.w3.org/2000/svg" height="32" width="32"><path d="M2 6.996c0-2 1-2 3.001-2h22c1.998 0 2.999 0 2.999 2v18.008c0 2-1 2-3 2H5.002c-1.998 0-3 0-3-2z" opacity=".7" stroke="#000" stroke-width="2"/><path d="M2 6.996c0-2 1-2 3.001-2h22c1.998 0 2.999 0 2.999 2v18.008c0 2-1 2-3 2H5.002c-1.998 0-3 0-3-2z" fill="#fff"/><g fill="#88a05d"><ellipse cx="16" cy="16" rx="9" ry="6"/><path d="M16 8a11 8 0 00-11 8 11 8 0 0011 8 11 8 0 0011-8 11 8 0 00-11-8zm0 1a10 7 0 0110 7 10 7 0 01-10 7 10 7 0 01-10-7 10 7 0 0110-7z" opacity=".6"/><path d="M16 6A13 10 0 003 16a13 10 0 0013 10 13 10 0 0013-10A13 10 0 0016 6zm0 1a12 9 0 0112 9 12 9 0 01-12 9 12 9 0 01-12-9 12 9 0 0112-9z" opacity=".6"/><path d="M10.611 4.996A15 11.9 0 002 11.83V16A14 11 0 0116 5a14 11 0 0114 10.928V11.83a15 11.9 0 00-8.61-6.834H10.612zM30 16a14 11 0 01-14 11A14 11 0 012 16.072v4.3a15 11.9 0 007.996 6.632H22.01A15 11.9 0 0030 20.37V16z" opacity=".7"/></g></svg>