<svg xmlns="http://www.w3.org/2000/svg" height="32" width="32"><path d="M2 6.996c0-2 1-2 3.001-2h22c1.998 0 2.999 0 2.999 2v18.008c0 2-1 2-3 2H5.002c-1.998 0-3 0-3-2z" opacity=".7" stroke="#000" stroke-width="2"/><path d="M2 6.996c0-2 1-2 3.001-2h22c1.998 0 2.999 0 2.999 2v18.008c0 2-1 2-3 2H5.002c-1.998 0-3 0-3-2z" fill="#fff"/><g fill="#88a05d"><path d="M8.021 4.996L4 6.051 8.924 22 30 16.475V9.47l-1.357-4.397c-.442-.072-.984-.078-1.643-.078H8.021z"/><path d="M22.79 22.463a8 8 0 00-2.423-11.05 8 8 0 00-11.051 2.423L11 14.915a6 6 0 018.288-1.818 6 6 0 011.818 8.288z"/><path d="M24.475 23.542l-5.053-3.236.909 4.145z" fill-rule="evenodd"/></g></svg>