<?xml version="1.0" encoding="UTF-8" standalone="no"?>
<svg
   xmlns:dc="http://purl.org/dc/elements/1.1/"
   xmlns:cc="http://creativecommons.org/ns#"
   xmlns:rdf="http://www.w3.org/1999/02/22-rdf-syntax-ns#"
   xmlns:svg="http://www.w3.org/2000/svg"
   xmlns="http://www.w3.org/2000/svg"
   xmlns:sodipodi="http://sodipodi.sourceforge.net/DTD/sodipodi-0.dtd"
   xmlns:inkscape="http://www.inkscape.org/namespaces/inkscape"
   viewBox="0 0 24 24"
   version="1.1"
   id="svg4"
   sodipodi:docname="lc_numberformatthousands.svg"
   inkscape:version="0.92.5 (2060ec1f9f, 2020-04-08)"
   inkscape:export-filename="/home/jupiter007/Libreoffice yaru theme fullcolor/build/cmd/de/lc_numberformatthousands.png"
   inkscape:export-xdpi="96"
   inkscape:export-ydpi="96">
  <metadata
     id="metadata10">
    <rdf:RDF>
      <cc:Work
         rdf:about="">
        <dc:format>image/svg+xml</dc:format>
        <dc:type
           rdf:resource="http://purl.org/dc/dcmitype/StillImage" />
      </cc:Work>
    </rdf:RDF>
  </metadata>
  <defs
     id="defs8" />
  <sodipodi:namedview
     pagecolor="#ffffff"
     bordercolor="#666666"
     borderopacity="1"
     objecttolerance="10"
     gridtolerance="10"
     guidetolerance="10"
     inkscape:pageopacity="0"
     inkscape:pageshadow="2"
     inkscape:window-width="1920"
     inkscape:window-height="1011"
     id="namedview6"
     showgrid="true"
     inkscape:zoom="19.666667"
     inkscape:cx="6.248848"
     inkscape:cy="15.119719"
     inkscape:window-x="0"
     inkscape:window-y="32"
     inkscape:window-maximized="1"
     inkscape:current-layer="svg4">
    <inkscape:grid
       type="xygrid"
       id="grid851" />
  </sodipodi:namedview>
  <path
     sodipodi:nodetypes="cccscsccccccccscscccccc"
     inkscape:connector-curvature="0"
     id="path4237-1"
     d="m 6.9941161,2.9997098 c -1.2582,0.0145 -2.178891,-0.030604 -2.931641,0.3847656 -0.37637,0.2076596 -0.673231,0.5593867 -0.837891,0.9980467 -0.16467,0.43867 -0.224609,0.959588 -0.224609,1.6171884 V 7.4879915 18.00029 c 0,0.65761 0.0599,1.178577 0.224609,1.617188 0.16468,0.438611 0.461531,0.788524 0.837891,0.996093 0.75272,0.41513 1.673541,0.371649 2.931641,0.386719 h 0.002 10.0058589 0.0039 c 1.25819,-0.0145 2.178891,0.0306 2.931641,-0.384766 0.37637,-0.20766 0.673221,-0.559386 0.837891,-0.998046 0.164539,-0.438671 0.224618,-0.959578 0.224618,-1.617188 V 7.4665075 5.9997105 c 0,-0.6576004 -0.0599,-1.1785784 -0.224609,-1.6171884 -0.16468,-0.4386 -0.461531,-0.788534 -0.837891,-0.9960935 -0.75277,-0.41513 -1.673601,-0.3716388 -2.931691,-0.3867188 h -0.002 -10.0058591 z"
     style="font-style:normal;font-variant:normal;font-weight:normal;font-stretch:normal;font-size:15px;line-height:125%;font-family:Ubuntu;-inkscape-font-specification:Ubuntu;text-align:center;letter-spacing:0px;word-spacing:0px;writing-mode:lr-tb;text-anchor:middle;display:inline;opacity:0.6;fill:#000000;fill-opacity:1;stroke:none;stroke-width:0.99980211" />
  <path
     inkscape:connector-curvature="0"
     id="path1993"
     d="m 11.983344,4.0268941 c -1.556581,0.0108 -5.1099899,-0.01175 -6.6599409,0.03878 -0.461229,0.04267 -1.016188,0.2064199 -1.15534,0.709967 -0.218994,0.635347 -0.108414,1.3337874 -0.145796,1.9819254 -0.0078,2.297084 -0.02297,9.5964245 0.02152,11.8857765 0.0391,0.461929 0.202551,1.012666 0.698756,1.163666 0.632456,0.225082 1.284144,0.12274 1.935974,0.154298 1.4242353,0.0068 4.8505629,0.01102 6.2764199,0.01131 1.704531,3.5e-4 3.408388,-0.005 5.10719,-0.01851 0.511911,-0.01201 1.183699,0.01993 1.584745,-0.405191 0.421097,-0.539783 0.287073,-1.268021 0.322745,-1.903786 0.01187,-2.444323 0.02769,-9.9110925 -0.0219,-12.3567929 -0.04928,-0.40204 -0.169992,-0.862952 -0.575139,-1.044475 -0.668169,-0.294097 -1.426205,-0.168019 -2.125921,-0.205573 -1.754407,-0.0118 -3.508874,-0.01248 -5.263313,-0.01139 z"
     style="opacity:1;vector-effect:none;fill:#a6d74f;fill-opacity:1;stroke:none;stroke-width:1;stroke-linecap:round;stroke-linejoin:bevel;stroke-miterlimit:4;stroke-dasharray:none;stroke-dashoffset:0;stroke-opacity:1"
     sodipodi:nodetypes="cccccccscccccccc" />
  <g
     aria-label="0.0"
     style="font-style:normal;font-variant:normal;font-weight:normal;font-stretch:normal;font-size:12px;line-height:1.25;font-family:Ubuntu;-inkscape-font-specification:'Ubuntu, Normal';font-variant-ligatures:normal;font-variant-caps:normal;font-variant-numeric:normal;font-feature-settings:normal;text-align:start;letter-spacing:0px;word-spacing:0px;writing-mode:lr-tb;text-anchor:start;fill:#ffffff;fill-opacity:1;stroke:none"
     id="text829">
    <path
       d="m 13.432,12 c 0,-1.392 0.244,-2.4640004 0.732,-3.2160004 0.496,-0.752 1.18,-1.128 2.052,-1.128 0.872,0 1.552,0.376 2.04,1.128 C 18.752,9.5359996 19,10.608 19,12 c 0,1.392 -0.248,2.464 -0.744,3.216 -0.488,0.752 -1.168,1.128 -2.04,1.128 -0.872,0 -1.556,-0.376 -2.052,-1.128 C 13.676,14.464 13.432,13.392 13.432,12 Z m 4.392,0 c 0,-0.456 -0.028,-0.888 -0.084,-1.296 -0.048,-0.408 -0.136,-0.7640001 -0.264,-1.0680004 -0.12,-0.304 -0.284,-0.544 -0.492,-0.72 -0.208,-0.184 -0.464,-0.276 -0.768,-0.276 -0.304,0 -0.56,0.092 -0.768,0.276 -0.208,0.176 -0.376,0.416 -0.504,0.72 C 14.824,9.9399999 14.736,10.296 14.68,10.704 c -0.048,0.408 -0.072,0.84 -0.072,1.296 0,0.456 0.024,0.888 0.072,1.296 0.056,0.408 0.144,0.764 0.264,1.068 0.128,0.304 0.296,0.548 0.504,0.732 0.208,0.176 0.464,0.264 0.768,0.264 0.304,0 0.56,-0.088 0.768,-0.264 0.208,-0.184 0.372,-0.428 0.492,-0.732 0.128,-0.304 0.216,-0.66 0.264,-1.068 0.056,-0.408 0.084,-0.84 0.084,-1.296 z"
       id="path839"
       inkscape:connector-curvature="0"
       sodipodi:nodetypes="scscscscsscccscccscccscccs" />
  </g>
  <circle
     style="opacity:1;fill:#ffffff;fill-opacity:1;stroke:none;stroke-width:1;stroke-linecap:round;stroke-linejoin:round;stroke-miterlimit:4;stroke-dasharray:none;stroke-opacity:1"
     id="path842"
     cx="12"
     cy="16"
     r="1" />
  <path
     d="M 8.2929783,8.0000095 5.326992,10.960883 6.0340246,11.667916 8.7500002,9 l -4e-7,7 h 1.25 V 8.0000003 H 8.9999995 Z"
     id="path2"
     inkscape:connector-curvature="0"
     style="fill:#ffffff"
     sodipodi:nodetypes="ccccccccc" />
</svg>
