<svg height="128" width="128" xmlns:xlink="http://www.w3.org/1999/xlink" xmlns="http://www.w3.org/2000/svg"><defs><linearGradient gradientUnits="userSpaceOnUse" y2="169.669" x2="4.414" y1="386.308" x1="494.345" id="g" xlink:href="#a" gradientTransform="matrix(0 -.45313 -.45311 0 205.69 183.136)"/><linearGradient id="a"><stop style="stop-color:#f2f2f2;stop-opacity:1" offset="0"/><stop style="stop-color:#fff;stop-opacity:1" offset="1"/></linearGradient><linearGradient gradientTransform="translate(-72.273 -84.864)" xlink:href="#b" id="h" x1="201.078" y1="270" x2="102.922" y2="46" gradientUnits="userSpaceOnUse"/><linearGradient id="b"><stop offset="0" style="stop-color:#626262;stop-opacity:1"/><stop offset="1" style="stop-color:#4e4e4e;stop-opacity:1"/></linearGradient><linearGradient xlink:href="#c" id="i" gradientUnits="userSpaceOnUse" gradientTransform="matrix(1.5 0 0 1.57143 -1803 336.508)" x1="3618.438" y1="-758.638" x2="3618.438" y2="-772.638"/><linearGradient id="c"><stop style="stop-color:#fff;stop-opacity:.588235" offset="0"/><stop style="stop-color:#fff;stop-opacity:.862745" offset="1"/></linearGradient><linearGradient xlink:href="#d" id="j" gradientUnits="userSpaceOnUse" x1="3716.162" y1="683.977" x2="3716.162" y2="705.131"/><linearGradient id="d"><stop style="stop-color:#666;stop-opacity:1" offset="0"/><stop style="stop-color:#333;stop-opacity:1" offset="1"/></linearGradient><linearGradient xlink:href="#d" id="l" gradientUnits="userSpaceOnUse" gradientTransform="translate(3435.5 -1891.5)" x1="195.75" y1="1016.237" x2="195.75" y2="1032.238"/><linearGradient xlink:href="#d" id="m" gradientUnits="userSpaceOnUse" gradientTransform="matrix(-1 0 0 1 3830.5 -1892)" x1="195.75" y1="1016.237" x2="195.75" y2="1032.238"/><linearGradient xlink:href="#d" id="k" gradientUnits="userSpaceOnUse" x1="3716.162" y1="683.977" x2="3716.162" y2="705.131"/><filter style="color-interpolation-filters:sRGB" id="e" x="-.055" width="1.109" y="-.043" height="1.086"><feGaussianBlur stdDeviation="4"/></filter><filter style="color-interpolation-filters:sRGB" id="f" x="-.014" width="1.027" y="-.011" height="1.022"><feGaussianBlur stdDeviation="1"/></filter></defs><path d="M30.649-38.864C-4.648-38.864-8.273-35.24-8.273.13V144.14c0 15.474.693 24.873 4.43 30.55.533.81 1.13 1.544 1.795 2.21 5.318 5.328 15.048 6.235 32.697 6.235h98.156c2.055 0 3.987-.015 5.834-.045.659-.011 1.261-.036 1.895-.051 1.149-.028 2.291-.06 3.359-.106 1.27-.055 2.51-.12 3.668-.205.474-.035.935-.074 1.39-.115.221-.02.45-.037.667-.058.727-.071 1.435-.147 2.117-.235.668-.086 1.31-.182 1.935-.285.222-.037.432-.08.649-.12.396-.07.79-.142 1.17-.222.248-.052.487-.108.728-.164a29.755 29.755 0 0 0 2.54-.7 22.103 22.103 0 0 0 1.506-.547c.195-.078.393-.158.583-.241.275-.121.537-.25.799-.381.174-.087.355-.17.523-.262.41-.221.806-.453 1.182-.7.406-.268.795-.55 1.164-.849.34-.275.66-.569.969-.873.074-.073.146-.15.219-.224.23-.236.45-.481.664-.735.077-.091.155-.181.23-.275a15.125 15.125 0 0 0 1.465-2.22c.055-.102.108-.208.162-.311.159-.307.31-.622.455-.948.062-.137.125-.273.184-.414.182-.433.357-.878.517-1.345a26.525 26.525 0 0 0 .567-1.897c.064-.244.123-.5.183-.752.144-.601.276-1.227.397-1.877.032-.171.067-.338.097-.513.141-.811.268-1.655.377-2.541.022-.178.04-.37.06-.551a74.704 74.704 0 0 0 .294-3.147c.057-.768.106-1.563.148-2.38.013-.255.031-.5.043-.758.007-.148.01-.312.016-.461.062-1.463.102-3.02.129-4.64a346.056 346.056 0 0 0 .037-6.846V43.375c-.044-9.733-8.18-17.956-14.762-24.162l-.049-.051-40.523-42.408c-10.677-10.561-18.058-15.62-32.666-15.62zm96.982.09c-2.169 2.775-2.385 7.403.21 9.912l28.495 30.386c3.724 3.696 11.119.569 11.381-4.779-.002-.42.001-.861-.002-1.272 0-.49-.009-.953-.012-1.431-.361-27.254-4.96-32.19-31.345-32.817z" style="color:#000;display:inline;overflow:visible;visibility:visible;opacity:.3;fill:#000;fill-opacity:1;fill-rule:nonzero;stroke:none;stroke-width:1;marker:none;filter:url(#e);enable-background:accumulate" transform="matrix(.5 0 0 .5 24.136 27.932)"/><path d="M30.649-39.864C-4.648-39.864-8.273-36.24-8.273-.87V144.14c0 15.474.693 24.873 4.43 30.55.533.81 1.13 1.544 1.795 2.21 5.318 5.328 15.048 6.235 32.697 6.235h98.156c2.055 0 3.987-.015 5.834-.045.659-.011 1.261-.036 1.895-.051 1.149-.028 2.291-.06 3.359-.106 1.27-.055 2.51-.12 3.668-.205.474-.035.935-.074 1.39-.115.221-.02.45-.037.667-.058.727-.071 1.435-.147 2.117-.235.668-.086 1.31-.182 1.935-.285.222-.037.432-.08.649-.12.396-.07.79-.142 1.17-.222.248-.052.487-.108.728-.164a29.755 29.755 0 0 0 2.54-.7 22.103 22.103 0 0 0 1.506-.547c.195-.078.393-.158.583-.241.275-.121.537-.25.799-.381.174-.087.355-.17.523-.262.41-.221.806-.453 1.182-.7.406-.268.795-.55 1.164-.849.34-.275.66-.569.969-.873.074-.073.146-.15.219-.224.23-.236.45-.481.664-.735.077-.091.155-.181.23-.275a15.125 15.125 0 0 0 1.465-2.22c.055-.102.108-.208.162-.311.159-.307.31-.622.455-.948.062-.137.125-.273.184-.414.182-.433.357-.878.517-1.345a26.525 26.525 0 0 0 .567-1.897c.064-.244.123-.5.183-.752.144-.601.276-1.227.397-1.877.032-.171.067-.338.097-.513.141-.811.268-1.655.377-2.541.022-.178.04-.37.06-.551a74.704 74.704 0 0 0 .294-3.147c.057-.768.106-1.563.148-2.38.013-.255.031-.5.043-.758.007-.148.01-.312.016-.461.062-1.463.102-3.02.129-4.64a346.056 346.056 0 0 0 .037-6.846V42.375c-.044-9.733-8.18-17.956-14.762-24.162l-.049-.051-40.523-42.408c-10.677-10.561-18.058-15.62-32.666-15.62zm97.969.09c-3.04 2.502-3.721 8.066-.778 10.912l28.496 30.386c3.73 3.701 11.142.56 11.385-4.8 0-.211 0-.419-.002-.627 0-1.199-.013-2.329-.025-3.452-.404-26.889-5.085-31.797-31.336-32.42z" style="color:#000;display:inline;overflow:visible;visibility:visible;opacity:.1;fill:#000;fill-opacity:1;fill-rule:nonzero;stroke:none;stroke-width:1;marker:none;filter:url(#f);enable-background:accumulate" transform="matrix(.5 0 0 .5 24.136 27.932)"/><path d="M30.649-40.864c-2.176 0-4.227.014-6.168.048-29.482.528-32.668 5.788-32.668 38.946V144.14c0 33.158 3.186 38.418 32.668 38.946 1.941.034 3.992.049 6.168.049H128.805c2.055 0 3.987-.015 5.834-.045.659-.011 1.261-.036 1.895-.051 1.149-.028 2.291-.06 3.359-.106 1.27-.055 2.51-.12 3.668-.205.474-.035.935-.074 1.39-.115.221-.02.45-.037.667-.059.727-.07 1.435-.146 2.117-.234.668-.086 1.31-.182 1.935-.285.222-.037.432-.08.649-.12.396-.07.79-.142 1.17-.222.248-.052.487-.108.728-.164a29.755 29.755 0 0 0 2.54-.7 22.103 22.103 0 0 0 1.506-.547c.195-.078.393-.158.583-.241.275-.121.537-.25.799-.381.174-.087.355-.17.523-.262.41-.221.806-.453 1.182-.7.406-.268.795-.55 1.164-.849.34-.275.66-.569.969-.873.074-.073.146-.15.219-.224.23-.236.45-.481.664-.735.077-.091.155-.181.23-.275a15.125 15.125 0 0 0 1.465-2.22c.055-.102.108-.208.162-.311.159-.307.31-.622.455-.948.061-.137.125-.273.184-.414.182-.433.356-.879.517-1.345a26.525 26.525 0 0 0 .567-1.897c.064-.244.123-.5.183-.752.144-.601.276-1.228.397-1.877.032-.171.067-.338.097-.513.141-.811.268-1.655.377-2.541.022-.178.04-.37.06-.551a74.704 74.704 0 0 0 .294-3.147c.057-.768.106-1.563.148-2.38.013-.255.031-.5.043-.758.007-.148.01-.312.016-.461.062-1.463.102-3.02.129-4.64a346.056 346.056 0 0 0 .037-6.846V41.375c-.044-9.733-8.18-17.956-14.762-24.162l-.049-.051-40.523-42.408c-10.677-10.561-18.058-15.62-32.666-15.62zm99.732.09c-4.474 1.492-5.99 8.576-2.54 11.912l28.495 30.386c3.734 3.706 11.162.553 11.387-4.82.048-31.33-3.553-36.819-31.365-37.479z" style="color:#000;display:inline;overflow:visible;visibility:visible;opacity:.1;fill:none;fill-opacity:1;fill-rule:nonzero;stroke:#000;stroke-width:4;stroke-miterlimit:4;stroke-dasharray:none;marker:none;enable-background:accumulate" transform="matrix(.5 0 0 .5 24.136 27.932)"/><path d="M30.649-40.864c-35.297 0-38.922 3.625-38.922 38.994V144.14c0 35.369 3.625 38.995 38.922 38.995h98.156c35.297 0 39.095-3.626 38.922-38.995V41.376c-.044-9.733-8.18-17.956-14.762-24.162l-.049-.051-40.523-42.408c-10.677-10.561-18.058-15.62-32.666-15.62z" style="color:#000;display:inline;overflow:visible;visibility:visible;fill:url(#g);fill-opacity:1;fill-rule:nonzero;stroke:none;stroke-width:1;marker:none;enable-background:accumulate" transform="matrix(.5 0 0 .5 24.136 27.932)"/><path d="M30.649-40.864c-12.133 0-20.525.428-26.313 2.427-2.103.727-3.863 1.661-5.334 2.858l-.002.002a13.845 13.845 0 0 0-2.843 3.158c-.256.388-.493.797-.721 1.22-.058.107-.11.222-.166.33-.16.315-.316.636-.463.97-.073.166-.141.34-.211.511-.121.297-.24.598-.352.91a26.826 26.826 0 0 0-.668 2.174c-.093.353-.18.718-.265 1.088-.048.209-.096.415-.14.629-.082.388-.156.791-.23 1.197-.037.212-.08.416-.116.633a54.302 54.302 0 0 0-.284 1.938v.002a69.51 69.51 0 0 0-.228 2.039c-.028.283-.05.582-.076.873-.038.435-.075.872-.108 1.324a122.743 122.743 0 0 0-.197 3.523c-.05 1.147-.086 2.368-.115 3.61-.014.58-.035 1.124-.045 1.726-.03 1.854-.045 3.787-.045 5.852V144.14c0 2.065.015 3.998.045 5.852.01.602.031 1.146.045 1.727.03 1.241.065 2.462.115 3.609.054 1.22.116 2.406.197 3.523.033.452.07.89.108 1.325.025.29.048.59.076.873.069.7.144 1.382.228 2.039v.002c.086.668.18 1.312.284 1.937.035.217.079.421.117.633.073.406.147.81.228 1.197.045.215.093.42.14.63a29.573 29.573 0 0 0 .934 3.262c.112.311.231.612.352.91.07.17.138.344.211.51.147.335.302.655.463.97.056.109.109.223.166.33.228.423.465.832.72 1.22.534.811 1.13 1.545 1.796 2.211a13.688 13.688 0 0 0 1.05.95c1.47 1.196 3.23 2.13 5.334 2.857 5.788 1.999 14.18 2.428 26.313 2.428h98.156c2.057 0 3.985-.015 5.834-.045h.033c.646-.011 1.24-.036 1.862-.051.457-.011.885-.028 1.336-.041.673-.021 1.379-.037 2.023-.065l.02-.002c1.252-.054 2.474-.117 3.619-.2l.029-.003c.474-.035.935-.074 1.39-.115.012 0 .023 0 .034-.002.21-.019.427-.037.633-.057.727-.07 1.435-.146 2.117-.234.668-.086 1.31-.182 1.935-.285l.006-.002c.22-.037.428-.079.643-.117.396-.072.79-.144 1.17-.223.238-.05.468-.105.699-.158l.03-.006a29.815 29.815 0 0 0 1.686-.436l.018-.006a26.886 26.886 0 0 0 1.506-.486c.15-.054.292-.112.438-.168.132-.05.267-.098.396-.15l.033-.014c.186-.075.372-.15.551-.229.168-.073.326-.154.487-.232.104-.05.21-.097.312-.148a.49.49 0 0 1 .022-.012c.167-.083.338-.163.5-.25h.002c.41-.222.805-.454 1.181-.701a14.08 14.08 0 0 0 2.133-1.721l.004-.004c.071-.07.14-.143.209-.215l.006-.006c.23-.236.45-.481.664-.734.077-.092.156-.182.23-.276a15.125 15.125 0 0 0 1.465-2.22c.056-.102.109-.207.162-.31.159-.307.31-.623.456-.948.06-.136.123-.271.181-.41l.002-.004c.182-.434.357-.88.518-1.346.16-.466.306-.955.447-1.455l.002-.006c.04-.143.079-.29.117-.436.036-.136.068-.279.102-.42l.082-.332c0-.003 0-.005.002-.008a37.8 37.8 0 0 0 .394-1.869c.026-.139.053-.276.078-.416l.02-.097v-.002c.14-.81.267-1.654.377-2.54.006-.047.01-.098.015-.148.016-.13.03-.27.045-.402l.006-.063c.08-.693.15-1.407.213-2.146l.002-.02a107.38 107.38 0 0 0 .22-3.299c.009-.155.02-.31.028-.464l.016-.293v-.028c.006-.128.009-.266.014-.396 0-.012 0-.025.002-.037.062-1.463.102-3.02.128-4.64v-.034a346.056 346.056 0 0 0 .037-6.813V41.377a18.745 18.745 0 0 0-.814-5.313 23.484 23.484 0 0 0-1.303-3.353c-2.859-6.009-8.119-11.23-12.644-15.496l-.049-.051-40.523-42.408c-10.678-10.561-18.059-15.62-32.667-15.62zm99.732.09c-4.474 1.492-5.99 8.576-2.54 11.912l28.495 30.386c3.734 3.706 11.162.553 11.387-4.82a296.16 296.16 0 0 0-.04-5.453c-.002-.167-.008-.32-.01-.485-.03-1.557-.073-3.047-.137-4.457a112.875 112.875 0 0 0-.174-2.98c-1.153-15.946-5.549-21.537-19.662-23.361a77.201 77.201 0 0 0-4.141-.412c-.71-.053-1.442-.1-2.193-.141l-.028-.002a164.219 164.219 0 0 0-4.98-.188zM47.293-28.92c11.374.004 22.63.04 33.899.246 7.238-.385 13.866 3.454 18.855 8.408 16.106 15.963 31.408 32.714 47.278 48.91 3.416 3.877 8.263 7.764 8.173 13.4.362 29.858.155 59.72.106 89.579-.265 10.25.395 20.696-.908 30.965-.547 2.357-.533 6.036-3.563 6.65-7.589 1.85-15.51 1.47-23.267 1.697-35.546.178-71.429.3-106.977-.136-4.705-.415-9.88.006-14.12-2.385-2.826-3.819-2.108-9.004-2.444-13.484-.583-48.646-.703-97.306-.584-145.973.283-10.717-.494-21.769 1.568-32.438.308-3.273 3.855-4.008 6.496-4.41 11.788-1.128 23.781-.867 35.488-1.03z" style="color:#000;display:inline;overflow:visible;visibility:visible;fill:url(#h);fill-opacity:1;fill-rule:nonzero;stroke:none;stroke-width:1;marker:none;enable-background:accumulate" transform="matrix(.5 0 0 .5 24.136 27.932)"/><path d="M-8.273 71.136v73.006c-.173 35.369 3.625 38.994 38.922 38.994h98.156c35.297 0 38.004-3.637 38.922-38.994V71.136z" style="color:#000;display:inline;overflow:visible;visibility:visible;opacity:.1;fill:#fff;fill-opacity:1;fill-rule:nonzero;stroke:none;stroke-width:1;marker:none;enable-background:accumulate" transform="matrix(.5 0 0 .5 24.136 27.932)"/><path d="M-8.273 142.141v2c-.173 35.369 3.625 38.995 38.922 38.995h98.156c35.297 0 38.004-3.638 38.922-38.995v-2c-.918 35.357-3.625 38.995-38.922 38.995H30.65c-35.297 0-39.095-3.626-38.922-38.995z" style="color:#000;display:inline;overflow:visible;visibility:visible;opacity:.2;fill:#000;fill-opacity:1;fill-rule:nonzero;stroke:none;stroke-width:1;marker:none;enable-background:accumulate" transform="matrix(.5 0 0 .5 24.136 27.932)"/><path d="m107.727 183.136 60-60v22.483c-.052 33.996-3.802 37.517-38.174 37.517z" style="color:#000;display:inline;overflow:visible;visibility:visible;opacity:.07999998;fill:#fff;fill-opacity:1;fill-rule:nonzero;stroke:none;stroke-width:7.99999952;stroke-linecap:butt;stroke-linejoin:miter;stroke-miterlimit:4;stroke-dasharray:none;stroke-dashoffset:0;stroke-opacity:1;marker:none;enable-background:accumulate" transform="matrix(.5 0 0 .5 24.136 27.932)"/><g style="display:inline;enable-background:new"><path style="display:inline;overflow:visible;visibility:visible;fill:url(#i);fill-opacity:1;fill-rule:nonzero;stroke:none;stroke-width:1;marker:none" d="M3617.999-877.638h24v22h-24z" transform="matrix(2.5 0 0 2.5 -9010.996 2245.094)"/><path style="display:inline;overflow:visible;visibility:visible;fill:#f09e6f;fill-opacity:1;fill-rule:nonzero;stroke:none;stroke-width:1;marker:none" d="M3617.999-858.638h24v1h-24zM3617.999-875.638h24v1h-24z" transform="matrix(2.5 0 0 2.5 -9010.996 2245.094)"/><path transform="matrix(0 2.5 -2.5 0 -9010.996 2245.094)" style="display:inline;overflow:visible;visibility:visible;fill:#f09e6f;fill-opacity:1;fill-rule:nonzero;stroke:none;stroke-width:1;marker:none" d="M-877.638-3619.999h22v1h-22zM-877.638-3640.999h22v1h-22z"/><g style="font-style:normal;font-variant:normal;font-weight:400;font-stretch:normal;font-size:8px;font-family:Vegur;display:inline;fill:url(#j);fill-opacity:1;stroke:none"><path style="font-family:Symbol;fill:url(#k);fill-opacity:1" d="M3725.054 691.79v1.995h-.997v-.931h-6.183l-1.396 8.244h-1.596l-1.33-4.188h-.798v-1.13h1.663l1.163 3.323 1.163-7.313" transform="matrix(3.76028 0 0 3.76028 -13920.746 -2540.33)"/></g><path style="fill:none;stroke:url(#l);stroke-width:2;stroke-linecap:round;stroke-linejoin:round;stroke-miterlimit:4;stroke-dasharray:none;stroke-opacity:1" d="m3636.999-867.638-7 7" transform="matrix(2.5 0 0 2.5 -9010.996 2245.094)"/><path d="m3629.999-867.638 7 7" style="fill:none;stroke:url(#m);stroke-width:2;stroke-linecap:round;stroke-linejoin:round;stroke-miterlimit:4;stroke-dasharray:none;stroke-opacity:1" transform="matrix(2.5 0 0 2.5 -9010.996 2245.094)"/></g><path d="M30.649-40.864c-2.508 0-4.812.025-7.012.072-1.569.033-3.086.077-4.506.142-.892.042-1.76.088-2.597.145l-.229.014c-.04.002-.074.007-.113.01-1.116.079-2.17.179-3.188.29-.281.031-.565.06-.84.094a60.734 60.734 0 0 0-1.95.272c-.246.038-.494.075-.733.117-.387.067-.757.142-1.127.217-.508.102-1 .21-1.479.328-.19.046-.386.091-.572.14-.325.086-.638.178-.95.272a24.132 24.132 0 0 0-1.477.492c-.097.036-.191.074-.288.111-1.533.594-2.876 1.309-4.045 2.174-.014.011-.03.02-.045.032-4.841 3.613-6.74 9.796-7.42 20.238-.017.264-.029.545-.044.814a142.13 142.13 0 0 0-.168 3.547l-.002.092c-.048 1.44-.08 2.944-.1 4.525.473-28.963 6.028-32.138 38.885-32.138h62.53a33.395 33.395 0 0 0-2.655-.784c-.157-.04-.312-.081-.47-.119a35.653 35.653 0 0 0-2.042-.418c-.332-.059-.662-.122-1.002-.174a41.838 41.838 0 0 0-1.887-.238c-.255-.027-.519-.045-.779-.068-.493-.043-.995-.08-1.506-.108-.26-.014-.521-.03-.787-.04-.757-.03-1.525-.051-2.324-.051z" style="color:#000;display:inline;overflow:visible;visibility:visible;opacity:.3;fill:#fff;fill-opacity:1;fill-rule:nonzero;stroke:none;stroke-width:1;marker:none;enable-background:accumulate" transform="matrix(.5 0 0 .5 24.136 27.932)"/><path d="M130.381-40.775c-1.071.358-1.967 1.04-2.672 1.91h1.096c34.151 0 38.64 3.485 38.897 35.74.003-.036.011-.071.013-.109-.053-17.67-1.158-27.178-7.08-32.177-.317-.265-.645-.52-.99-.76-1.343-.938-2.913-1.689-4.719-2.297-.142-.048-.276-.099-.422-.144-.319-.102-.656-.193-.99-.286-.258-.07-.514-.144-.781-.21a35.175 35.175 0 0 0-1.983-.432c-.32-.062-.64-.124-.972-.18a52.565 52.565 0 0 0-1.428-.217c-.216-.03-.422-.065-.643-.093l-.008-.002a70.123 70.123 0 0 0-2.2-.245c-.308-.03-.63-.055-.946-.082a95.24 95.24 0 0 0-1.592-.125c-.341-.023-.688-.043-1.039-.064a164.984 164.984 0 0 0-5.549-.227h-.019z" style="color:#000;display:inline;overflow:visible;visibility:visible;opacity:.4;fill:#fff;fill-opacity:1;fill-rule:nonzero;stroke:none;stroke-width:1;marker:none;enable-background:accumulate" transform="matrix(.5 0 0 .5 24.136 27.932)"/><path d="M-8.261-3.443c-.002.54-.012 1.018-.012 1.573v2c-.006-1.26.007-2.392.012-3.573z" style="color:#000;display:inline;overflow:visible;visibility:visible;opacity:.3;fill:#fff;fill-opacity:1;fill-rule:nonzero;stroke:none;stroke-width:1;marker:none;enable-background:accumulate" transform="matrix(.5 0 0 .5 24.136 27.932)"/><path d="M-8.267 142.141v2c-.002.443.005.822.004 1.254.001.46.007.884.01 1.332a356.641 356.641 0 0 1-.014-4.586zm175.994.752c-.056 34.633-3.884 38.243-38.916 38.243H30.655c-32.935 0-38.441-3.18-38.89-32.334.304 24.874 3.488 31.965 22.175 33.765h.01c.76.073 1.548.139 2.361.196h.006c.815.056 1.655.106 2.523.148h.002c.58.028 1.247.036 1.852.059 1.208.044 2.391.093 3.701.117h.004c1.964.035 4.045.049 6.25.049h98.156c3.677 0 6.937-.056 9.961-.166 2.42-.089 4.716-.207 6.752-.403 19.496-1.877 22.124-9.499 22.205-37.084 0-.462.006-.868.004-1.342z" style="color:#000;display:inline;overflow:visible;visibility:visible;opacity:.2;fill:#000;fill-opacity:1;fill-rule:nonzero;stroke:none;stroke-width:1;marker:none;enable-background:accumulate" transform="matrix(.5 0 0 .5 24.136 27.932)"/><rect transform="matrix(0 -1 -1 0 0 0)" style="display:inline;opacity:.2;fill:#000;fill-opacity:1;stroke:none;stroke-width:1.03448;stroke-opacity:.25098;enable-background:new" width="30" height="30" x="-128" y="-120" rx="15" ry="15"/><rect ry="15" rx="15" y="-120" x="-127" height="30" width="30" style="display:inline;fill:#0073E5;fill-opacity:1;stroke:none;stroke-width:1.03448;stroke-opacity:.25098;enable-background:new" transform="matrix(0 -1 -1 0 0 0)"/><g style="display:inline;enable-background:new" transform="translate(-231 -36)"><path style="opacity:1;fill:#fff;fill-opacity:1;stroke:none;stroke-width:1;stroke-linecap:butt;stroke-linejoin:round;stroke-miterlimit:4;stroke-dasharray:none;stroke-dashoffset:1;stroke-opacity:1" d="M329 146h14v10h-14z"/><rect ry="4.5" y="138.5" x="331.5" height="14" width="9" style="opacity:1;fill:none;fill-opacity:1;stroke:#fff;stroke-width:1;stroke-linecap:butt;stroke-linejoin:round;stroke-miterlimit:4;stroke-dasharray:none;stroke-dashoffset:1;stroke-opacity:1" rx="4.5"/><path style="color:#000;font-style:normal;font-variant:normal;font-weight:400;font-stretch:normal;font-size:medium;line-height:normal;font-family:sans-serif;font-variant-ligatures:none;font-variant-position:normal;font-variant-caps:normal;font-variant-numeric:normal;font-variant-alternates:normal;font-feature-settings:normal;text-indent:0;text-align:start;text-decoration:none;text-decoration-line:none;text-decoration-style:solid;text-decoration-color:#000;letter-spacing:normal;word-spacing:normal;text-transform:none;writing-mode:lr-tb;direction:ltr;baseline-shift:baseline;text-anchor:start;white-space:normal;shape-padding:0;clip-rule:nonzero;display:inline;overflow:visible;visibility:visible;opacity:1;isolation:auto;mix-blend-mode:normal;color-interpolation:sRGB;color-interpolation-filters:linearRGB;solid-color:#000;solid-opacity:1;fill:#0073E5;fill-opacity:1;fill-rule:nonzero;stroke:none;stroke-width:4.89898;stroke-linecap:butt;stroke-linejoin:miter;stroke-miterlimit:4;stroke-dasharray:none;stroke-dashoffset:0;stroke-opacity:1;marker:none;color-rendering:auto;image-rendering:auto;shape-rendering:auto;text-rendering:auto;enable-background:accumulate" d="M337 149v4h-2v-4z"/></g></svg>