<svg width="24" height="16" xmlns="http://www.w3.org/2000/svg"><path style="opacity:1;fill:#787859;stroke:#787859;stroke-width:2;stroke-linejoin:round;stroke-miterlimit:4;stroke-dasharray:none" d="M1 12V4c0-2 1-2 3-2h4l3 3v7c0 2-1 2-3 2H4c-2 0-3 0-3-2z"/><path d="M1 12V4c0-2 1-2 3-2h4l3 3v7c0 2-1 2-3 2H4c-2 0-3 0-3-2z" style="fill:#fff"/><path d="M8 5V2l3 3z" style="fill:#787859;fill-opacity:1"/><path style="opacity:1;fill:#787859;stroke:#787859;stroke-width:2;stroke-linejoin:round;stroke-miterlimit:4;stroke-dasharray:none" d="M13 12V4c0-2 1-2 3-2h4l3 3v7c0 2-1 2-3 2h-4c-2 0-3 0-3-2z"/><path d="M13 12V4c0-2 1-2 3-2h4l3 3v7c0 2-1 2-3 2h-4c-2 0-3 0-3-2z" style="fill:#fff"/><path d="M20 5V2l3 3z" style="fill:#787859;fill-opacity:1"/></svg>