<svg height="128" width="128" xmlns:xlink="http://www.w3.org/1999/xlink" xmlns="http://www.w3.org/2000/svg"><defs><linearGradient id="b"><stop style="stop-color:#259dd2;stop-opacity:1" offset="0"/><stop style="stop-color:#065d8d;stop-opacity:1" offset="1"/></linearGradient><linearGradient gradientUnits="userSpaceOnUse" y2="169.669" x2="4.414" y1="386.308" x1="494.345" id="d" xlink:href="#a" gradientTransform="matrix(0 -.22656 -.22656 0 126.98 119.9)"/><linearGradient id="a"><stop style="stop-color:#f2f2f2;stop-opacity:1" offset="0"/><stop style="stop-color:#fff;stop-opacity:1" offset="1"/></linearGradient><linearGradient gradientTransform="matrix(.5 0 0 .5 -12.001 -14.1)" xlink:href="#b" id="e" x1="201.078" y1="270" x2="102.922" y2="46" gradientUnits="userSpaceOnUse"/><linearGradient id="f" x1="0" y1="0" x2="1" y2="0" gradientUnits="userSpaceOnUse" gradientTransform="matrix(0 100 -100 0 64 17.997)"><stop offset="0" style="stop-color:#0369a3;stop-opacity:1"/><stop offset="1" style="stop-color:#047fc6;stop-opacity:1"/></linearGradient><linearGradient id="g" x1="0" y1="0" x2="1" y2="0" gradientUnits="userSpaceOnUse" gradientTransform="rotate(90 20.502 70.995) scale(10.0005)"><stop offset="0" style="stop-color:#aadcf7;stop-opacity:1"/><stop offset="1" style="stop-color:#aadcf7;stop-opacity:1"/></linearGradient><filter style="color-interpolation-filters:sRGB" id="c" x="-.014" width="1.027" y="-.011" height="1.022"><feGaussianBlur stdDeviation="1"/></filter></defs><path d="M22.512-32.008c-35.296 0-38.921 3.625-38.921 38.994v145.012c0 35.368 3.625 38.994 38.921 38.994h98.157c35.296 0 39.094-3.626 38.922-38.994V50.232c-.044-9.733-8.18-17.956-14.762-24.162l-.049-.05-40.523-42.41C93.58-26.95 86.199-32.007 71.59-32.007zm97.97.09c-3.04 2.502-3.721 8.066-.778 10.912L148.2 9.38c3.728 3.701 11.14.562 11.385-4.798-.032-30.449-3.85-35.848-31.364-36.5z" style="color:#000;display:inline;overflow:visible;visibility:visible;opacity:.1;fill:#000;fill-opacity:1;fill-rule:nonzero;stroke:none;stroke-width:1;marker:none;filter:url(#c);enable-background:accumulate" transform="matrix(.5 0 0 .5 28.203 24.404)"/><path d="M39.46 7.9c-1.088 0-2.114.007-3.084.024-14.741.264-16.334 2.894-16.334 19.473v73.006c0 16.579 1.593 19.209 16.334 19.473.97.017 1.996.024 3.084.024H88.538c1.103 0 2.144-.007 3.128-.024 14.75-.264 16.414-2.894 16.333-19.473V49.02c-.022-4.866-4.09-8.978-7.381-12.081l-.025-.025L80.332 15.71c-5.339-5.281-9.03-7.81-16.333-7.81zm49.866.045c-2.238.746-2.996 4.288-1.27 5.956l14.247 15.193c1.87 1.857 5.597.27 5.696-2.425v-3.596c-.32-12.478-2.883-14.825-15.642-15.128H90.38z" style="color:#000;display:inline;overflow:visible;visibility:visible;opacity:.1;fill:none;fill-opacity:1;fill-rule:nonzero;stroke:#000;stroke-width:2;stroke-miterlimit:4;stroke-dasharray:none;marker:none;enable-background:accumulate"/><path d="M39.46 7.9c-17.649 0-19.461 1.813-19.461 19.497v73.006c0 17.684 1.812 19.497 19.46 19.497h49.079c17.648 0 19.547-1.813 19.46-19.497V49.02c-.021-4.866-4.089-8.978-7.38-12.081l-.025-.025L80.332 15.71c-5.339-5.281-9.03-7.81-16.333-7.81z" style="color:#000;display:inline;overflow:visible;visibility:visible;fill:url(#d);fill-opacity:1;fill-rule:nonzero;stroke:none;stroke-width:.5;marker:none;enable-background:accumulate"/><path d="M39.46 7.9c-17.649 0-19.461 1.813-19.461 19.497v73.006c0 17.684 1.812 19.497 19.46 19.497h49.079c7.72 0 12.427-.347 15.272-2.219.203-.133.398-.274.582-.424 1.108-.897 1.888-2.091 2.433-3.672.998-2.9 1.203-7.103 1.174-13.182V49.02c-.022-4.866-4.09-8.978-7.381-12.081l-.025-.025L80.332 15.71c-5.339-5.281-9.03-7.81-16.333-7.81zm49.866.045c-2.238.746-2.996 4.288-1.27 5.956l14.247 15.193c1.867 1.853 5.581.277 5.694-2.41.024-15.664-1.777-18.41-15.683-18.74H90.38zm-41.544 5.928c5.687.002 11.315.02 16.95.123 3.618-.193 6.932 1.727 9.427 4.204 8.052 7.981 15.704 16.357 23.638 24.455 1.709 1.938 4.132 3.881 4.087 6.7.181 14.929.077 29.86.053 44.79-.132 5.124.198 10.347-.454 15.482-.273 1.178-.266 3.017-1.781 3.325-3.795.925-7.756.735-11.634.848-17.773.09-35.714.15-53.488-.068-2.353-.207-4.94.003-7.06-1.192-1.414-1.91-1.054-4.502-1.223-6.743-.29-24.322-.35-48.653-.292-72.986.142-5.358-.246-10.884.785-16.219.154-1.636 1.927-2.004 3.248-2.205 5.893-.564 11.89-.434 17.744-.514z" style="color:#000;display:inline;overflow:visible;visibility:visible;fill:url(#e);fill-opacity:1;fill-rule:nonzero;stroke:none;stroke-width:.5;marker:none;enable-background:accumulate"/><path d="M19.999 63.9v36.503c-.087 17.684 1.812 19.497 19.46 19.497h49.079c17.648 0 19.002-1.818 19.46-19.497V63.9z" style="color:#000;display:inline;overflow:visible;visibility:visible;opacity:.1;fill:#fff;fill-opacity:1;fill-rule:nonzero;stroke:none;stroke-width:.5;marker:none;enable-background:accumulate"/><path d="M19.999 99.403v1c-.087 17.684 1.812 19.497 19.46 19.497h49.079c17.648 0 19.002-1.819 19.46-19.497v-1c-.458 17.678-1.812 19.497-19.46 19.497H39.46c-17.649 0-19.548-1.813-19.461-19.497z" style="color:#000;display:inline;overflow:visible;visibility:visible;opacity:.2;fill:#000;fill-opacity:1;fill-rule:nonzero;stroke:none;stroke-width:.5;marker:none;enable-background:accumulate"/><path d="m77.999 119.9 30-30v11.242c-.026 16.998-1.901 18.758-19.087 18.758z" style="color:#000;display:inline;overflow:visible;visibility:visible;opacity:.08;fill:#fff;fill-opacity:1;fill-rule:nonzero;stroke:none;stroke-width:4;stroke-linecap:butt;stroke-linejoin:miter;stroke-miterlimit:4;stroke-dasharray:none;stroke-dashoffset:0;stroke-opacity:1;marker:none;enable-background:accumulate"/><path d="M20.002 99.403v1c-.002.221.002.41.002.627 0 .23.003.442.004.666-.005-.744-.01-1.484-.006-2.293zm87.997.376c-.028 17.316-1.942 19.121-19.458 19.121H39.463c-16.468 0-19.221-1.59-19.446-16.167.152 12.437 1.745 15.983 11.088 16.883h.005c.38.036.774.07 1.18.098h.004c.407.028.827.053 1.261.074h.001c.29.014.624.018.926.029.604.022 1.196.047 1.85.059h.003c.982.017 2.022.024 3.125.024h49.078c1.838 0 3.468-.028 4.98-.083a58.484 58.484 0 0 0 3.376-.201c9.748-.939 11.062-4.75 11.103-18.542 0-.231.003-.434.002-.671z" style="color:#000;display:inline;overflow:visible;visibility:visible;opacity:.2;fill:#000;fill-opacity:1;fill-rule:nonzero;stroke:none;stroke-width:.5;marker:none;enable-background:accumulate"/><path d="M39.46 7.9c-1.254 0-2.406.013-3.506.036-.785.017-1.543.038-2.253.071-.447.021-.88.044-1.299.073l-.114.006-.057.005c-.558.04-1.085.09-1.594.146-.14.015-.283.03-.42.047a30.438 30.438 0 0 0-.975.136c-.123.019-.247.037-.366.058-.194.034-.379.071-.564.108-.254.052-.5.106-.74.165-.095.023-.192.045-.285.07a14.322 14.322 0 0 0-1.22.384l-.12.046c-.78.3-1.46.662-2.053 1.102l-.002.002c-2.697 2.007-3.568 5.611-3.807 11.96a116.249 116.249 0 0 0-.066 2.629C20.256 10.487 23.04 8.9 39.458 8.9h31.265c-.43-.148-.873-.277-1.327-.392l-.235-.06a17.84 17.84 0 0 0-1.02-.208c-.167-.03-.332-.061-.502-.087a20.927 20.927 0 0 0-.943-.12c-.128-.013-.26-.022-.39-.033-.247-.022-.497-.04-.753-.054-.13-.007-.26-.015-.393-.02a28.85 28.85 0 0 0-1.162-.026z" style="color:#000;display:inline;overflow:visible;visibility:visible;opacity:.3;fill:#fff;fill-opacity:1;fill-rule:nonzero;stroke:none;stroke-width:.5;marker:none;enable-background:accumulate"/><path d="M89.326 7.945c-.536.179-.984.52-1.336.955h.548c17.076 0 19.32 1.743 19.448 17.873 0-.02.006-.037.007-.057-.027-8.896-.584-13.656-3.598-16.142a7.092 7.092 0 0 0-.512-.383 7.65 7.65 0 0 0-.544-.337 8.536 8.536 0 0 0-.365-.197c-.07-.036-.144-.07-.217-.105a9.813 9.813 0 0 0-.51-.224l-.071-.029c-2.3-.907-5.476-1.25-9.854-1.354h-1.941z" style="color:#000;display:inline;overflow:visible;visibility:visible;opacity:.4;fill:#fff;fill-opacity:1;fill-rule:nonzero;stroke:none;stroke-width:.5;marker:none;enable-background:accumulate"/><path d="M20.005 26.67c-.002.246-.006.47-.006.727v1c-.003-.61.003-1.157.006-1.727z" style="color:#000;display:inline;overflow:visible;visibility:visible;opacity:.3;fill:#fff;fill-opacity:1;fill-rule:nonzero;stroke:none;stroke-width:.5;marker:none;enable-background:accumulate"/><path d="M36.5 47.997a2.5 2.5 0 0 0 0 5h15a2.5 2.5 0 0 0 0-5zm28 0a5.5 5.5 0 0 0-5.5 5.5v14a5.5 5.5 0 0 0 5.5 5.5h24a5.5 5.5 0 0 0 5.5-5.5v-14a5.5 5.5 0 0 0-5.5-5.5zm-28 10a2.5 2.5 0 0 0 0 5h15a2.5 2.5 0 0 0 0-5zm0 10a2.5 2.5 0 0 0 0 5h15a2.5 2.5 0 0 0 0-5zm0 10a2.5 2.5 0 0 0 0 5h55a2.5 2.5 0 0 0 0-5zm0 10a2.5 2.5 0 0 0 0 5h55a2.5 2.5 0 0 0 0-5zm0 10a2.5 2.5 0 0 0 0 5h40a2.5 2.5 0 0 0 0-5z" style="clip-rule:evenodd;display:inline;fill:url(#f);fill-rule:nonzero;stroke-width:1;enable-background:new"/><path style="clip-rule:evenodd;display:inline;fill:url(#g);fill-rule:nonzero;stroke-width:1;enable-background:new" d="M63.997 50.497a2.5 2.5 0 0 0-2.5 2.5v15c0 1.209.858 2.216 1.997 2.45a2.501 2.501 0 0 1-1.994-2.45l6.084-9.56c1.3-2.041 4.229-2.18 5.715-.269l5.337 6.862a.5.5 0 0 0 .764.029l2.213-2.425a3.5 3.5 0 0 1 5.214.048l4.67 5.313V52.997a2.5 2.5 0 0 0-2.5-2.5zM91.49 68.135zm-.164.753c-.011.03-.017.063-.03.093.013-.03.019-.063.03-.093zm-.236.47c-.008.013-.014.027-.023.04l.023-.04zm-.282.355c-.017.018-.03.039-.047.056.017-.017.03-.038.047-.056zm-.34.297c-.027.02-.05.045-.078.064.028-.02.051-.044.079-.064zm-.406.242c-.033.016-.062.036-.095.05.033-.014.062-.034.095-.05z"/><rect transform="matrix(0 -1 -1 0 0 0)" style="display:inline;opacity:.2;fill:#000;fill-opacity:1;stroke:none;stroke-width:1.03448;stroke-opacity:.25098;enable-background:new" width="30" height="30" x="-128" y="-120" rx="15" ry="15"/><rect ry="15" rx="15" y="-120" x="-127" height="30" width="30" style="display:inline;fill:#787859;fill-opacity:1;stroke:none;stroke-width:1.03448;stroke-opacity:.25098;enable-background:new" transform="matrix(0 -1 -1 0 0 0)"/><g style="display:inline;enable-background:new" transform="translate(-231 -36)"><path style="opacity:1;fill:#fff;fill-opacity:1;stroke:none;stroke-width:1;stroke-linecap:butt;stroke-linejoin:round;stroke-miterlimit:4;stroke-dasharray:none;stroke-dashoffset:1;stroke-opacity:1" d="M329 146h14v10h-14z"/><rect ry="4.5" y="138.5" x="331.5" height="14" width="9" style="opacity:1;fill:none;fill-opacity:1;stroke:#fff;stroke-width:1;stroke-linecap:butt;stroke-linejoin:round;stroke-miterlimit:4;stroke-dasharray:none;stroke-dashoffset:1;stroke-opacity:1" rx="4.5"/><path style="color:#000;font-style:normal;font-variant:normal;font-weight:400;font-stretch:normal;font-size:medium;line-height:normal;font-family:sans-serif;font-variant-ligatures:none;font-variant-position:normal;font-variant-caps:normal;font-variant-numeric:normal;font-variant-alternates:normal;font-feature-settings:normal;text-indent:0;text-align:start;text-decoration:none;text-decoration-line:none;text-decoration-style:solid;text-decoration-color:#000;letter-spacing:normal;word-spacing:normal;text-transform:none;writing-mode:lr-tb;direction:ltr;baseline-shift:baseline;text-anchor:start;white-space:normal;shape-padding:0;clip-rule:nonzero;display:inline;overflow:visible;visibility:visible;opacity:1;isolation:auto;mix-blend-mode:normal;color-interpolation:sRGB;color-interpolation-filters:linearRGB;solid-color:#000;solid-opacity:1;fill:#787859;fill-opacity:1;fill-rule:nonzero;stroke:none;stroke-width:4.89898;stroke-linecap:butt;stroke-linejoin:miter;stroke-miterlimit:4;stroke-dasharray:none;stroke-dashoffset:0;stroke-opacity:1;marker:none;color-rendering:auto;image-rendering:auto;shape-rendering:auto;text-rendering:auto;enable-background:accumulate" d="M337 149v4h-2v-4z"/></g></svg>