<svg xmlns="http://www.w3.org/2000/svg" xmlns:xlink="http://www.w3.org/1999/xlink" viewBox="0 0 16 16"><defs><linearGradient id="a"><stop style="stop-color:#151515;stop-opacity:1" offset="0"/><stop style="stop-color:#4d4d4d;stop-opacity:1" offset="1"/></linearGradient><linearGradient xlink:href="#a" id="b" x1="16.971" y1="-4.243" x2="21.92" y2=".707" gradientUnits="userSpaceOnUse"/></defs><path style="opacity:.6;fill:#000;fill-opacity:1;fill-rule:evenodd;stroke-width:.75;stroke-linecap:square;stroke-linejoin:round" d="M3 1a1.989 1.989 0 0 0-2 2v12h14V3c0-1.108-.892-2-2-2z"/><path style="fill:#fff;fill-opacity:1;fill-rule:evenodd;stroke:none;stroke-width:.75;stroke-linecap:square;stroke-linejoin:round;stroke-opacity:1" d="M2 6h12v8H2zM3 2c-.554 0-1 .446-1 1v2h12V3c0-.554-.446-1-1-1z"/><path style="fill:#787859;fill-opacity:1;fill-rule:evenodd;stroke:none;stroke-width:.75;stroke-linecap:square;stroke-linejoin:round;stroke-opacity:1" d="M5 6v8H2V6zM12 3h1v1h-1z"/><path style="fill:#232629;fill-opacity:1;fill-rule:evenodd;stroke:none;stroke-width:.75;stroke-linecap:square;stroke-linejoin:round;stroke-opacity:1" d="M10 3h1v1h-1zM8 3h1v1H8z"/><circle style="opacity:.7;fill:#000;fill-opacity:1;fill-rule:evenodd;stroke:#000;stroke-width:2;stroke-linecap:butt;stroke-linejoin:round;stroke-miterlimit:4;stroke-dasharray:none;stroke-opacity:1" cx="12" cy="12" r="3"/><circle r="3" cy="12" cx="12" style="opacity:1;fill:#fff;fill-opacity:1;fill-rule:evenodd;stroke:none;stroke-width:2;stroke-linecap:butt;stroke-linejoin:round;stroke-miterlimit:4;stroke-dasharray:none;stroke-opacity:1"/><path d="M12 10a2 2 0 1 0 2 2 2 2 0 0 0 0-.588A1 1 0 0 1 13 12a1 1 0 0 1-1-1 1 1 0 0 1 .59-1 2 2 0 0 0-.59 0z" style="fill:#232629"/><path style="opacity:1;fill:#aee3f8;fill-opacity:1;fill-rule:evenodd;stroke:#fff;stroke-width:2;stroke-linecap:butt;stroke-linejoin:round;stroke-miterlimit:4;stroke-dasharray:none;stroke-opacity:1" transform="rotate(45)" d="M17.127-4.5h1v9h-1z"/><path style="opacity:1;fill:url(#b);fill-opacity:1;fill-rule:evenodd;stroke:none;stroke-width:2;stroke-linecap:butt;stroke-linejoin:round;stroke-miterlimit:4;stroke-dasharray:none;stroke-opacity:1" transform="rotate(45)" d="M17.127-4.5h1v9h-1z"/></svg>