<svg viewBox="0 0 24 24" xmlns="http://www.w3.org/2000/svg"><circle style="opacity:1;fill:#4d4d4d;fill-opacity:1;fill-rule:evenodd;stroke:none;stroke-width:2;stroke-linecap:round;stroke-linejoin:round;stroke-miterlimit:4;stroke-dasharray:none;stroke-opacity:1" cx="12" cy="12" r="10"/><circle style="opacity:.1;fill:#babeb4;fill-opacity:1;fill-rule:evenodd;stroke:none;stroke-width:2;stroke-linecap:round;stroke-linejoin:round;stroke-miterlimit:4;stroke-dasharray:none;stroke-opacity:1" cx="12" cy="12" r="7"/><path style="opacity:1;fill:#fff;fill-opacity:1;fill-rule:evenodd;stroke:none;stroke-width:2;stroke-linecap:round;stroke-linejoin:round;stroke-miterlimit:4;stroke-dasharray:none;stroke-opacity:1" d="M12 2a10 10 0 0 0-5 1.35V5h5zM5 4.889A10 10 0 0 0 2 12a10 10 0 0 0 10 10v-3a7 7 0 0 1-7-7 7 7 0 0 1 2.111-5H5zM12 22a10 10 0 0 0 5-1.35V19h-5zm7-2.889A10 10 0 0 0 22 12 10 10 0 0 0 12 2v3a7 7 0 0 1 7 7 7 7 0 0 1-2.111 5H19z"/><path style="opacity:.2;fill:#000;fill-opacity:1;fill-rule:evenodd;stroke:none;stroke-width:2;stroke-linecap:round;stroke-linejoin:round;stroke-miterlimit:4;stroke-dasharray:none;stroke-opacity:1" d="M12 2A10 10 0 0 0 2 12a10 10 0 0 0 10 10 10 10 0 0 0 10-10A10 10 0 0 0 12 2zm0 1a9 9 0 0 1 9 9 9 9 0 0 1-9 9 9 9 0 0 1-9-9 9 9 0 0 1 9-9z"/><path style="fill:#ececec;fill-opacity:1;stroke:none;stroke-width:1px;stroke-linecap:butt;stroke-linejoin:miter;stroke-opacity:1" d="M11 6h2l4 10h-2l-3-8-3 8H7z"/><path style="fill:#4571df;stroke:none;stroke-width:1px;stroke-linecap:butt;stroke-linejoin:miter;stroke-opacity:1;fill-opacity:1;opacity:.1" d="m12 8 1-2 4 10h-2z"/><path style="color:#000;display:inline;overflow:visible;visibility:visible;opacity:1;fill:#f8f8f8;fill-opacity:1;fill-rule:nonzero;stroke:none;stroke-width:2;stroke-linecap:butt;stroke-linejoin:miter;stroke-miterlimit:4;stroke-dasharray:2.00000001,2.00000001;stroke-dashoffset:0;stroke-opacity:1;marker:none;enable-background:accumulate" d="M7.5 11h9c.831 0 1.5.669 1.5 1.5s-.669 1.5-1.5 1.5h-9c-.831 0-1.5-.669-1.5-1.5S6.669 11 7.5 11z"/><path d="M7.5 12a.499.499 0 1 0 0 1H16.566c.24 0 .434-.194.434-.434v-.133a.433.433 0 0 0-.434-.433h-6.132z" style="color:#000;display:inline;overflow:visible;visibility:visible;opacity:.2;fill:#1f1f1f;fill-opacity:1;fill-rule:nonzero;stroke:none;stroke-width:1.99999988;stroke-linecap:butt;stroke-linejoin:miter;stroke-miterlimit:4;stroke-dasharray:2.00000001,2.00000001;stroke-dashoffset:0;stroke-opacity:1;marker:none;enable-background:accumulate"/><path style="color:#000;display:inline;overflow:visible;visibility:visible;opacity:1;fill:#7764D8;fill-opacity:1;fill-rule:nonzero;stroke:none;stroke-width:1.99999988;stroke-linecap:butt;stroke-linejoin:miter;stroke-miterlimit:4;stroke-dasharray:2.00000001,2.00000001;stroke-dashoffset:0;stroke-opacity:1;marker:none;enable-background:accumulate" d="M13.5 12h-6a.499.499 0 1 0 0 1h6a.499.499 0 1 0 0-1z"/></svg>