<svg xmlns="http://www.w3.org/2000/svg" viewBox="0 0 32 32"><rect ry="1.5" y="7" x="4" height="18" width="24" style="opacity:.7;fill:#000609;fill-opacity:1;stroke:#000;stroke-width:2;stroke-linecap:round;stroke-linejoin:round;stroke-miterlimit:4;stroke-dasharray:none;stroke-opacity:1"/><rect style="opacity:1;fill:#aee3f8;fill-opacity:1;stroke:none;stroke-width:2;stroke-linecap:round;stroke-linejoin:round;stroke-miterlimit:4;stroke-dasharray:none;stroke-opacity:1" width="24" height="18" x="4" y="7" ry="1.5"/><path style="fill:#fff;fill-opacity:1;stroke:none;stroke-width:1.71428454px;stroke-linecap:butt;stroke-linejoin:miter;stroke-opacity:1" d="m15.997 19.834 8.575-5.173v-1.947c0-1.714 0-1.714-1.715-1.714H9.143c-1.714 0-1.714 0-1.714 1.714v1.947z"/><path style="fill:#fff;stroke:none;stroke-width:1px;stroke-linecap:butt;stroke-linejoin:miter;stroke-opacity:1" d="M10.5 10c-1.98 0-2.883.188-3.17.44-.143.125-.22.28-.273.615-.053.335-.057.82-.057 1.445v1.902l8.996 5.432L25 14.402V12.5c0-.625-.004-1.11-.057-1.445-.052-.335-.13-.49-.273-.616-.287-.25-1.19-.439-3.17-.439Z"/><path style="font-style:normal;font-variant:normal;font-weight:400;font-stretch:normal;font-size:15px;line-height:125%;font-family:Ubuntu;-inkscape-font-specification:Ubuntu;text-align:center;letter-spacing:0;word-spacing:0;writing-mode:lr-tb;text-anchor:middle;display:inline;opacity:.7;fill:#000;fill-opacity:1;stroke:none;stroke-width:1.71394527" d="M10.5 9c-2.02 0-3.117.062-3.83.686-.357.312-.53.75-.602 1.212C5.996 11.36 6 11.875 6 12.5v1.299l-.283-.17L4 12.592v1.617L15 21l-2.5 2.5s3-1.579 4.5-2.5l11-6.754v-1.654l-1.717 1.037-.283.17V12.5c0-.625.004-1.14-.068-1.602-.073-.461-.245-.9-.602-1.212C24.617 9.062 23.52 9 21.5 9Zm0 1h11c1.98 0 2.883.188 3.17.44.143.125.22.28.273.615.053.335.057.82.057 1.445v1.902l-.428.258-8.576 5.174-8.568-5.174L7 14.402V12.5c0-.625.004-1.11.057-1.445.052-.335.13-.49.273-.616.287-.25 1.19-.439 3.17-.439Z"/><path style="color:#000;font-weight:400;line-height:normal;font-family:sans-serif;font-variant-ligatures:normal;font-variant-position:normal;font-variant-caps:normal;font-variant-numeric:normal;font-variant-alternates:normal;font-feature-settings:normal;text-indent:0;text-align:start;text-decoration:none;text-decoration-line:none;text-decoration-style:solid;text-decoration-color:#000;text-transform:none;text-orientation:mixed;white-space:normal;shape-padding:0;overflow:visible;isolation:auto;mix-blend-mode:normal;fill:#a7a7f1;fill-opacity:1;stroke-width:1.71428454;marker:none" d="M11 12v1h10v-1zM11 14v1h10v-1z"/></svg>