<svg xmlns="http://www.w3.org/2000/svg" xmlns:xlink="http://www.w3.org/1999/xlink" viewBox="0 0 32 32"><defs><linearGradient xlink:href="#a" id="c" gradientUnits="userSpaceOnUse" gradientTransform="matrix(0 -.07209 -.07209 0 39.13 33.818)" x1="459.034" y1="419.233" x2="35.31" y2="207.365"/><linearGradient id="a"><stop style="stop-color:#b52428;stop-opacity:1" offset="0"/><stop style="stop-color:#d32429;stop-opacity:1" offset="1"/></linearGradient><linearGradient xlink:href="#b" id="d" x1="336" y1="134" x2="336" y2="162" gradientUnits="userSpaceOnUse"/><linearGradient id="b"><stop style="stop-color:#fff;stop-opacity:1" offset="0"/><stop offset=".125" style="stop-color:#fff;stop-opacity:.09803922"/><stop offset=".925" style="stop-color:#fff;stop-opacity:.09803922"/><stop style="stop-color:#fff;stop-opacity:.49803922" offset="1"/></linearGradient><clipPath clipPathUnits="userSpaceOnUse" id="e"><path style="color:#000;display:inline;overflow:visible;visibility:visible;opacity:1;fill:#46a926;fill-opacity:1;fill-rule:nonzero;stroke:none;stroke-width:2;stroke-miterlimit:4;stroke-dasharray:none;stroke-opacity:1;marker:none;enable-background:accumulate" d="M330.193 134c-5.615 0-6.22.577-6.192 6.204v15.592c-.028 5.627.577 6.204 6.192 6.204h11.615c5.615 0 6.192-.577 6.192-6.204v-15.592c0-5.627-.577-6.204-6.192-6.204z"/></clipPath></defs><path style="color:#000;display:inline;overflow:visible;visibility:visible;fill:url(#c);fill-opacity:1;fill-rule:nonzero;stroke:none;stroke-width:1;marker:none;enable-background:accumulate" d="M21.806 1.5c1.413 0 2.523.034 3.424.186.901.15 1.62.431 2.143.953.522.521.803 1.239.953 2.14.15.902.18 2.01.174 3.426V23.797c.007 1.414-.024 2.523-.174 3.424-.15.901-.43 1.619-.953 2.14-.523.522-1.242.802-2.143.953-.901.152-2.011.186-3.424.186H10.191c-1.412 0-2.518-.034-3.418-.186-.9-.15-1.616-.431-2.137-.953-.52-.521-.8-1.237-.95-2.138-.152-.901-.186-2.01-.186-3.426V8.203c0-1.415.034-2.525.185-3.426.151-.9.43-1.617.951-2.138.521-.522 1.238-.802 2.137-.953.9-.152 2.006-.186 3.418-.186z"/><path style="display:inline;fill:#fff;stroke-width:1.33333;enable-background:new" d="M16.079 8.668 8 9.916v12.172l8.022 1.244h.969s-.006-14.664 0-14.664zm-3.09 4.088c.696 2.328 1.359 4.67 2.047 7-.48-.031-.962-.068-1.438-.111a81.337 81.337 0 0 0-.398-1.557 41.794 41.794 0 0 1-1.914-.055c-.123.493-.247.984-.373 1.475-.408-.031-.814-.061-1.22-.088.608-2.19 1.24-4.37 1.843-6.559.484-.035.966-.068 1.453-.105zM12.208 14c-.14.988-.45 1.937-.66 2.91.457.004.913.008 1.372.01-.237-.973-.525-1.934-.712-2.92zM19.618 10a15.08 15.08 0 0 0-1.618.113v2.484c1.714.217 3.484.138 5.128-.417.371-.162.84-.366.918-.817-.104-.551-.723-.758-1.185-.93-1.05-.32-2.146-.443-3.243-.432zm4.427 2.297c-.689.554-1.577.738-2.428.864A15.514 15.514 0 0 1 18 13.2v2.507c1.531.166 3.093.142 4.595-.213.495-.14 1.045-.287 1.391-.7.124-.823.016-1.666.059-2.498zm0 3.097c-.685.551-1.567.735-2.417.86a15.444 15.444 0 0 1-3.628.042v2.508c1.536.165 3.103.142 4.61-.216.493-.141 1.042-.288 1.38-.702.114-.824.016-1.662.055-2.492zm0 3.095c-.689.551-1.573.737-2.424.861-1.2.159-2.417.168-3.62.042v2.505a14.2 14.2 0 0 0 3.816-.054c.753-.153 1.622-.262 2.17-.858.121-.824.017-1.666.058-2.496z"/><path d="M10.194 1.5c-1.413 0-2.523.034-3.424.186-.901.15-1.62.431-2.143.953-.522.521-.803 1.239-.953 2.14-.15.902-.18 2.01-.174 3.426V23.797c-.007 1.414.024 2.523.174 3.424.15.901.43 1.619.953 2.14.523.522 1.242.802 2.143.953.901.152 2.011.186 3.424.186h11.615c1.412 0 2.519-.034 3.418-.186.9-.15 1.616-.431 2.137-.953.52-.521.8-1.237.95-2.138.152-.901.186-2.01.186-3.426V8.203c0-1.415-.034-2.525-.185-3.426-.151-.9-.43-1.617-.951-2.138-.521-.522-1.237-.802-2.137-.953-.9-.152-2.006-.186-3.418-.186z" style="color:#000;display:inline;overflow:visible;visibility:visible;opacity:.4;fill:none;fill-opacity:1;fill-rule:nonzero;stroke:#000;stroke-width:1;stroke-opacity:1;marker:none;enable-background:accumulate"/><path transform="translate(-320 -132)" d="M330.193 134c-5.615 0-6.22.577-6.192 6.204v15.592c-.028 5.627.577 6.204 6.192 6.204h11.615c5.615 0 6.192-.577 6.192-6.204v-15.592c0-5.627-.577-6.204-6.192-6.204z" style="color:#000;display:inline;overflow:visible;visibility:visible;opacity:.4;fill:none;fill-opacity:1;fill-rule:nonzero;stroke:url(#d);stroke-width:2;stroke-miterlimit:4;stroke-dasharray:none;stroke-opacity:1;marker:none;enable-background:accumulate" clip-path="url(#e)"/></svg>