<?xml version="1.0" encoding="UTF-8" standalone="no"?>
<svg
   height="32"
   viewBox="0 0 32 32"
   width="32"
   version="1.1"
   id="svg8"
   sodipodi:docname="fatcross.svg"
   inkscape:version="1.1 (ce6663b3b7, 2021-05-25)"
   xmlns:inkscape="http://www.inkscape.org/namespaces/inkscape"
   xmlns:sodipodi="http://sodipodi.sourceforge.net/DTD/sodipodi-0.dtd"
   xmlns:xlink="http://www.w3.org/1999/xlink"
   xmlns="http://www.w3.org/2000/svg"
   xmlns:svg="http://www.w3.org/2000/svg">
  <defs
     id="defs12">
    <linearGradient
       inkscape:collect="always"
       id="linearGradient955">
      <stop
         style="stop-color:#151515;stop-opacity:1"
         offset="0"
         id="stop951" />
      <stop
         style="stop-color:#4d4d4d;stop-opacity:1"
         offset="1"
         id="stop953" />
    </linearGradient>
    <linearGradient
       inkscape:collect="always"
       xlink:href="#linearGradient955"
       id="linearGradient957"
       x1="15"
       y1="8"
       x2="15"
       y2="23"
       gradientUnits="userSpaceOnUse" />
    <filter
       inkscape:collect="always"
       style="color-interpolation-filters:sRGB"
       id="filter1363"
       x="-0.192"
       y="-0.192"
       width="1.384"
       height="1.384">
      <feGaussianBlur
         inkscape:collect="always"
         stdDeviation="1.36"
         id="feGaussianBlur1365" />
    </filter>
  </defs>
  <sodipodi:namedview
     id="namedview10"
     pagecolor="#ffffff"
     bordercolor="#666666"
     borderopacity="1.0"
     inkscape:pageshadow="2"
     inkscape:pageopacity="0"
     inkscape:pagecheckerboard="0"
     showgrid="true"
     inkscape:zoom="19.224466"
     inkscape:cx="31.366281"
     inkscape:cy="14.590783"
     inkscape:window-width="1559"
     inkscape:window-height="752"
     inkscape:window-x="2827"
     inkscape:window-y="195"
     inkscape:window-maximized="0"
     inkscape:current-layer="svg8">
    <inkscape:grid
       type="xygrid"
       id="grid909" />
  </sodipodi:namedview>
  <path
     d="m 11,7.5 v 1 3 h -3 -1 v 8 1 h 1 3 v 3 1 h 8 1 v -1 -3 h 3 1 v -1 -8 h -1 -3 v -3 -1 h -1 z"
     id="path1343"
     style="opacity:0.25;fill:#000000;filter:url(#filter1363)" />
  <path
     d="m 11,7 v 1 3 h -3 -1 v 8 1 h 1 3 v 3 1 h 8 1 v -1 -3 h 3 1 v -1 -8 h -1 -3 v -3 -1 h -1 z"
     id="path4"
     style="fill:#ffffff" />
  <path
     d="m12 8v4h-4v7h4v4h7v-4h4v-7h-4v-4z"
     fill="#fafafa"
     id="path6"
     style="fill-opacity:1;fill:url(#linearGradient957)" />
</svg>
