<svg xmlns="http://www.w3.org/2000/svg" viewBox="0 0 32 32"><g style="display:inline;fill:#787859;fill-opacity:1;stroke:none;stroke-opacity:1"><path style="fill:#787859;fill-opacity:1;stroke:none;stroke-width:.99999976;stroke-linecap:butt;stroke-linejoin:round;stroke-miterlimit:0;stroke-dasharray:none;stroke-dashoffset:0;stroke-opacity:1" d="M186 490h3v1h-3zM191 490h3v1h-3zM196 490h3v1h-3zM201 490h3v1h-3z" transform="matrix(0 -1 2 0 -965 218)"/><path transform="matrix(0 1 -2 0 -965 218)" style="fill:#787859;fill-opacity:1;stroke:none;stroke-width:.99999976;stroke-linecap:butt;stroke-linejoin:round;stroke-miterlimit:0;stroke-dasharray:none;stroke-dashoffset:0;stroke-opacity:1" d="M-209-491h3v1h-3z"/></g><path style="color:#000;display:inline;overflow:visible;visibility:visible;fill:#1a7fd4;fill-opacity:1;fill-rule:nonzero;stroke:none;stroke-width:1.00475;stroke-linecap:butt;stroke-linejoin:round;stroke-miterlimit:4;stroke-dasharray:none;stroke-dashoffset:0;stroke-opacity:1;marker:none;enable-background:accumulate" d="M20 28h10L22 4h-2z"/><path d="M12 28H2l8-24h2z" style="color:#000;display:inline;fill:#c43ac4;fill-opacity:1;fill-rule:evenodd;stroke:none;stroke-width:1.00025;stroke-linecap:butt;stroke-linejoin:round;stroke-miterlimit:0;stroke-dasharray:none;stroke-dashoffset:0;stroke-opacity:1;marker:none"/><g style="display:inline;fill:#787859;fill-opacity:1;stroke:none;stroke-opacity:1"><path style="fill:#787859;fill-opacity:1;stroke:none;stroke-width:.99999976;stroke-linecap:butt;stroke-linejoin:round;stroke-miterlimit:0;stroke-dasharray:none;stroke-dashoffset:0;stroke-opacity:1" d="M186 490h3v1h-3zM191 490h2v1h-2z" transform="matrix(0 -1 2 0 -965 193)"/></g></svg>