<svg xmlns="http://www.w3.org/2000/svg" xmlns:xlink="http://www.w3.org/1999/xlink" viewBox="0 0 16 16"><defs><linearGradient id="b"><stop style="stop-color:#151515;stop-opacity:1" offset="0"/><stop style="stop-color:#4d4d4d;stop-opacity:1" offset="1"/></linearGradient><linearGradient id="a"><stop style="stop-color:#151515;stop-opacity:1" offset="0"/><stop style="stop-color:#4d4d4d;stop-opacity:1" offset="1"/></linearGradient><linearGradient xlink:href="#a" id="d" x1="7" y1="1" x2="7" y2="15" gradientUnits="userSpaceOnUse"/><linearGradient xlink:href="#b" id="c" x1="8" y1="1" x2="8" y2="15" gradientUnits="userSpaceOnUse"/></defs><path style="opacity:1;fill:#000;fill-opacity:1;stroke:#fff;stroke-width:2;stroke-linejoin:round;stroke-miterlimit:4;stroke-dasharray:none" d="m3.5 1-2 2L4 5v4c0 1.657 1.567 3 3.5 3h1c1.933 0 3.5-1.343 3.5-3V4.5L10 3h2V1H9.5l-2 2L10 5v3a2 2 0 1 1-4 0V4.5L4 3h2V1Z"/><path style="fill:url(#c);fill-opacity:1" d="m3.5 1-2 2L4 5v4c0 1.657 1.567 3 3.5 3h1c1.933 0 3.5-1.343 3.5-3V4.5L10 3h2V1H9.5l-2 2L10 5v3a2 2 0 1 1-4 0V4.5L4 3h2V1Z"/><path style="opacity:1;fill:#000;stroke:#fff;stroke-width:2;stroke-linejoin:round;stroke-miterlimit:4;stroke-dasharray:none" d="M2 12v1h12v-1H2zm0 2v1h12v-1H2z"/><path style="fill:url(#d);fill-opacity:1" d="M2 12v1h12v-1H2zm0 2v1h12v-1H2z"/></svg>