<svg xmlns="http://www.w3.org/2000/svg" height="32" width="32"><path style="opacity:.7;fill:#000;stroke:#000;stroke-width:2;stroke-linecap:butt;stroke-linejoin:miter;stroke-miterlimit:4;stroke-dasharray:none;stroke-opacity:1" d="M2 7c0-2 1-2 3-2h22c2 0 3 0 3 2v18c0 2-1 2-3 2H5c-2 0-3 0-3-2Z"/><path style="fill:#fff;stroke:none;stroke-width:1px;stroke-linecap:butt;stroke-linejoin:miter;stroke-opacity:1" d="M2 7c0-2 1-2 3-2h22c2 0 3 0 3 2v18c0 2-1 2-3 2H5c-2 0-3 0-3-2Z"/><path style="fill:#3a944a" d="M5 5C3 5 2 5 2 7v10h28V7c0-2-1-2-3-2ZM11 20h10l-5 5z"/><path style="fill:#3a944a" d="M14 13h4v9h-4z"/></svg>