<svg xmlns="http://www.w3.org/2000/svg" height="32" width="32"><path style="opacity:.7;fill:#000;stroke:#000;stroke-width:2.0004;stroke-linecap:butt;stroke-linejoin:miter;stroke-miterlimit:4;stroke-dasharray:none;stroke-opacity:1" d="M2 6.996c0-2 1-2 3.001-2h22c1.998 0 2.999 0 2.999 2v18.008c0 2-1 2-3 2H5.002c-1.998 0-3 0-3-2z"/><path style="fill:#fff;stroke:none;stroke-width:1.0002px;stroke-linecap:butt;stroke-linejoin:miter;stroke-opacity:1" d="M2 6.996c0-2 1-2 3.001-2h22c1.998 0 2.999 0 2.999 2v18.008c0 2-1 2-3 2H5.002c-1.998 0-3 0-3-2z"/><path style="fill:#3a944a" d="M4.838 5c-1.472.001-2.377.051-2.695 1H6V5H4.838zM7 5v1h4V5H7zm5 0v1h4V5h-4zm5 0v1h4V5h-4zm5 0v1h4V5h-4zm5 0v1h2.857c-.318-.949-1.224-.999-2.693-1H27zM2 8v1h3V8H2zm4 0v1h4V8H6zm5 0v1h4V8h-4zm5 0v1h4V8h-4zm5 0v1h4V8h-4zm5 0v1h4V8h-4zM2 11v1h4v-1H2zm5 0v1h4v-1H7zm5 0v1h4v-1h-4zm5 0v1h4v-1h-4zm5 0v1h4v-1h-4zm5 0v1h3v-1h-3zM3 13v1h4v-1H3zm5 0v1h4v-1H8zm5 0v1h4v-1h-4zm5 0v1h4v-1h-4zm5 0v1h4v-1h-4zm5 0v1h2v-1h-2zM2 15v1h3v-1H2zm4 0v1h4v-1H6zm5 0v1h4v-1h-4zm5 0v1h4v-1h-4zm5 0v1h4v-1h-4zm5 0v1h4v-1h-4zM2 17v1h4v-1H2zm5 0v1h4v-1H7zm5 0v1h4v-1h-4zm5 0v1h4v-1h-4zm5 0v1h4v-1h-4zm5 0v1h3v-1h-3zM2 19v1h1v-1H2zm2 0v1h4v-1H4zm5 0v1h4v-1H9zm5 0v1h4v-1h-4zm5 0v1h4v-1h-4zm5 0v1h4v-1h-4zm5 0v1h1v-1h-1zM2 22v1h3v-1H2zm4 0v1h4v-1H6zm5 0v1h4v-1h-4zm5 0v1h4v-1h-4zm5 0v1h4v-1h-4zm5 0v1h4v-1h-4zM2.143 26c.319.949 1.225.999 2.695 1H6v-1H2.143zM7 26v1h4v-1H7zm5 0v1h4v-1h-4zm5 0v1h4v-1h-4zm5 0v1h4v-1h-4zm5 0v1h.164c1.47-.001 2.375-.051 2.693-1H27z"/></svg>