<svg viewBox="0 0 32 32" xmlns="http://www.w3.org/2000/svg"><path style="color:#000;opacity:.7;fill:#000;fill-rule:evenodd;stroke-linejoin:round;-inkscape-stroke:none" d="M3 7a1 1 0 0 0-1 1v16c0 2.753 2.247 5 5 5h13.262a7.364 7.364 0 0 1 .863-2H7c-1.68 0-3-1.32-3-3V9h24v9.541c1.193.695 2 1.989 2 3.459V8a1 1 0 0 0-1-1z"/><path style="opacity:1;fill:#6d6d6d;fill-opacity:1;fill-rule:evenodd;stroke:none;stroke-width:2;stroke-linecap:butt;stroke-linejoin:round;stroke-miterlimit:4;stroke-dasharray:none;stroke-opacity:1" d="M0 4h32v4H0z"/><path style="opacity:1;fill:#fff;fill-opacity:1;fill-rule:evenodd;stroke:none;stroke-width:2;stroke-linecap:butt;stroke-linejoin:round;stroke-miterlimit:4;stroke-dasharray:none;stroke-opacity:1" d="M3 8v16c0 2.216 1.784 4 4 4h13.61c.564-1.326 1.487-2.426 2.632-3.13A3.973 3.973 0 0 1 22 22c0-2.197 1.803-4 4-4a3.99 3.99 0 0 1 3 1.371V8H3zm25.94 16.682a4.204 4.204 0 0 1-.182.187c.042.026.083.055.125.082.021-.089.04-.178.056-.27z"/><path style="opacity:1;fill:#46a926;fill-opacity:1;fill-rule:evenodd;stroke:none;stroke-width:2;stroke-linecap:butt;stroke-linejoin:round;stroke-miterlimit:4;stroke-dasharray:none;stroke-opacity:1" d="M21 12a6 6 0 0 0-5.543 3.703 6 6 0 0 0 1.3 6.54 6 6 0 0 0 5.696 1.577A3.893 3.893 0 0 1 22 22c0-2.197 1.803-4 4-4h-5v-6zm5 6c.341 0 .673.043.99.125A6 6 0 0 0 27 18h-1z"/><path d="M12-21a6 6 0 0 1 6-6v6z" style="opacity:1;fill:#c7162b;fill-opacity:1;fill-rule:evenodd;stroke:none;stroke-width:2;stroke-linecap:butt;stroke-linejoin:round;stroke-miterlimit:4;stroke-dasharray:none;stroke-opacity:1" transform="rotate(90)"/><path style="opacity:1;fill:#1a7fd4;fill-opacity:1;fill-rule:evenodd;stroke:none;stroke-width:4;stroke-linecap:butt;stroke-linejoin:round;stroke-miterlimit:4;stroke-dasharray:none;stroke-opacity:1" d="M6 13h6v2H6z"/><path style="opacity:1;fill:#c7162b;fill-opacity:1;fill-rule:evenodd;stroke:none;stroke-width:3.99999976;stroke-linecap:butt;stroke-linejoin:round;stroke-miterlimit:4;stroke-dasharray:none;stroke-opacity:1" d="M6 17h6v2H6z"/><path style="opacity:1;fill:#46a926;fill-opacity:1;fill-rule:evenodd;stroke:none;stroke-width:3.99999976;stroke-linecap:butt;stroke-linejoin:round;stroke-miterlimit:4;stroke-dasharray:none;stroke-opacity:1" d="M6 21h6v2H6z"/><path style="opacity:1;fill:#3a944a;fill-opacity:1;fill-rule:evenodd;stroke:none;stroke-width:2;stroke-linecap:butt;stroke-linejoin:round;stroke-miterlimit:4;stroke-dasharray:none;stroke-opacity:1" d="M26 19a3 3 0 0 0-3 3 3 3 0 0 0 3 3 3 3 0 0 0 3-3 3 3 0 0 0-3-3zm0 6a5 6 0 0 0-5 6h10a5 6 0 0 0-5-6z"/></svg>