<svg xmlns="http://www.w3.org/2000/svg" xmlns:xlink="http://www.w3.org/1999/xlink" viewBox="0 0 32 32"><defs><linearGradient y2="316.932" x2="702.214" y1="316.932" x1="609.786" gradientUnits="userSpaceOnUse" id="b" xlink:href="#a"/><linearGradient id="a"><stop offset="0" style="stop-color:#5884f4;stop-opacity:1"/><stop style="stop-color:#5884f4;stop-opacity:1" offset=".308"/><stop offset=".308" style="stop-color:#2f5fdd;stop-opacity:1"/><stop style="stop-color:#2f5fdd;stop-opacity:1" offset=".692"/><stop style="stop-color:#234db8;stop-opacity:1" offset=".692"/><stop offset="1" style="stop-color:#234db8;stop-opacity:1"/></linearGradient></defs><path style="opacity:.7;fill:#000;fill-opacity:1;stroke:#000;stroke-width:2;stroke-linejoin:round;stroke-miterlimit:4;stroke-dasharray:none" d="M6 4h20v24H6z"/><path style="opacity:1;fill:#fff;fill-opacity:1;stroke:none;stroke-width:2;stroke-linejoin:round;stroke-miterlimit:4;stroke-dasharray:none" d="M6 4h20v24H6z"/><path style="opacity:1;fill:#232629;fill-opacity:1;stroke:none;stroke-width:2.19089031;stroke-linejoin:round;stroke-miterlimit:4;stroke-dasharray:none" d="M10 14h12v1H10zM10 17h12v1H10zM10 20h12v1H10zM10 23h12v1H10z"/><path style="opacity:1;fill:#232629;fill-opacity:1;stroke:none;stroke-width:2.30940127;stroke-linejoin:round;stroke-miterlimit:4;stroke-dasharray:none" d="M10 8h12v1H10zM10 11h12v1H10z"/><path style="opacity:1;fill:#6d6d6d;fill-opacity:1;stroke:none;stroke-width:2;stroke-linejoin:round;stroke-miterlimit:4;stroke-dasharray:none" d="M7 8h1v1H7zM7 5h1v1H7zM24 8h1v1h-1zM24 5h1v1h-1zM24 14h1v1h-1zM24 11h1v1h-1zM24 20h1v1h-1zM24 17h1v1h-1zM24 26h1v1h-1zM24 23h1v1h-1zM7 26h1v1H7zM7 23h1v1H7zM7 20h1v1H7zM7 17h1v1H7zM7 14h1v1H7zM7 11h1v1H7z"/><g style="display:inline;stroke-width:9.7142868;enable-background:new"><path style="fill:#fee1c2;fill-opacity:1;stroke:none;stroke-width:9.7142868" d="M702.219 319.356 656 400.493l-46.214-81.137.444-28.635h92.433z" transform="matrix(.06093 .03518 -.03815 .06608 -8.69 -17.541)"/><path style="color:#000;display:inline;overflow:visible;visibility:visible;fill:#5d5d5d;fill-opacity:1;fill-rule:nonzero;stroke:none;stroke-width:11.66852188;marker:none;enable-background:accumulate" d="M641.301 374.677 656 400.493l14.699-25.816s1.12-2.766-1.74-2.766c-2.86 0-5.694 3.688-5.694 3.688s-1.494-4.61-7.234-4.61-7.234 4.61-7.234 4.61-2.897-3.688-5.782-3.688c-2.886 0-1.714 2.766-1.714 2.766z" transform="matrix(.06093 .03518 -.03815 .06608 -8.69 -17.541)"/><path style="fill:url(#b);fill-opacity:1;stroke:none;stroke-width:9.7142868" d="M609.786 306.25c0-7.376 28.428-3.688 28.428 7.377 0-18.44 35.534-18.44 35.534 0 0-11.065 28.47-14.753 28.47-7.377V67.93h-92.432Z" transform="matrix(.06093 .03518 -.03815 .06608 -8.69 -17.541)"/></g></svg>