<svg viewBox="0 0 32 32" xmlns="http://www.w3.org/2000/svg"><path style="color:#000;opacity:.7;fill:#000;fill-rule:evenodd;stroke-width:2;stroke-linejoin:round;-inkscape-stroke:none" d="M3 7a1 1 0 0 0-1 1v16c0 2.753 2.247 5 5 5h4v-8a1 1 0 0 1 1.447-.895L20 23.883V21a1 1 0 0 1 1.447-.895l8.533 4.268c.01-.124.02-.247.02-.373V8a1 1 0 0 0-1-1z"/><path style="opacity:1;fill:#6d6d6d;fill-opacity:1;fill-rule:evenodd;stroke:none;stroke-width:2;stroke-linecap:butt;stroke-linejoin:round;stroke-miterlimit:4;stroke-dasharray:none;stroke-opacity:1" d="M0 4h32v4H0z"/><path style="opacity:1;fill:#fff;fill-opacity:1;fill-rule:evenodd;stroke:none;stroke-width:2;stroke-linecap:butt;stroke-linejoin:round;stroke-miterlimit:4;stroke-dasharray:none;stroke-opacity:1" d="M3 8v16c0 2.216 1.784 4 4 4h4v-7a1 1 0 0 1 1.057-.998 1 1 0 0 1 .39.103L20 23.883V21a1 1 0 0 1 1.447-.895L29 23.883V8H3z"/><path style="opacity:1;fill:#46a926;fill-opacity:1;fill-rule:evenodd;stroke:none;stroke-width:2;stroke-linecap:butt;stroke-linejoin:round;stroke-miterlimit:4;stroke-dasharray:none;stroke-opacity:1" d="M21 12a6 6 0 0 0-5.543 3.703 6 6 0 0 0 1.3 6.54 6 6 0 0 0 .054.044L20 23.883V21a1 1 0 0 1 1.447-.895l3.948 1.973A6 6 0 0 0 27 18h-6v-6z"/><path d="M12-21a6 6 0 0 1 6-6v6z" style="opacity:1;fill:#c7162b;fill-opacity:1;fill-rule:evenodd;stroke:none;stroke-width:2;stroke-linecap:butt;stroke-linejoin:round;stroke-miterlimit:4;stroke-dasharray:none;stroke-opacity:1" transform="rotate(90)"/><path style="opacity:1;fill:#1a7fd4;fill-opacity:1;fill-rule:evenodd;stroke:none;stroke-width:4;stroke-linecap:butt;stroke-linejoin:round;stroke-miterlimit:4;stroke-dasharray:none;stroke-opacity:1" d="M6 13h6v2H6z"/><path style="opacity:1;fill:#c7162b;fill-opacity:1;fill-rule:evenodd;stroke:none;stroke-width:3.99999976;stroke-linecap:butt;stroke-linejoin:round;stroke-miterlimit:4;stroke-dasharray:none;stroke-opacity:1" d="M6 17h6v2H6z"/><path style="opacity:1;fill:#46a926;fill-opacity:1;fill-rule:evenodd;stroke:none;stroke-width:3.99999976;stroke-linecap:butt;stroke-linejoin:round;stroke-miterlimit:4;stroke-dasharray:none;stroke-opacity:1" d="M6 21v2h5v-2H6z"/><path style="fill:#3a944a;fill-opacity:1;stroke:none;stroke-width:1px;stroke-linecap:butt;stroke-linejoin:miter;stroke-opacity:1" d="M12 21v10l9-4.5V31l10-5-10-5v4.5L12 21z"/></svg>