<svg xmlns="http://www.w3.org/2000/svg" viewBox="0 0 32 32"><path d="m16 29-4-5h3v-5h2v5h3z" style="fill:#3a944a;fill-opacity:1;stroke:none;stroke-width:1px;stroke-linecap:butt;stroke-linejoin:miter;stroke-opacity:1"/><path style="opacity:1;fill:#fff;fill-opacity:1;stroke:none;stroke-width:2;stroke-linejoin:round;stroke-miterlimit:4;stroke-dasharray:none" d="M4 14h24v4H4z"/><path d="M3 13v6h26v-6zm1 1h4v4H4zm5 0h4v4H9Zm5 0h4v4h-4zm5 0h4v4h-4zm5 0h4v4h-4z" style="fill:#6d6d6d;fill-opacity:1"/><path style="opacity:1;fill:#fff;fill-opacity:1;stroke:none;stroke-width:2;stroke-linejoin:round;stroke-miterlimit:4;stroke-dasharray:none" d="M4 7h24v4H4z"/><path style="fill:#6d6d6d;fill-opacity:1" d="M3 6v6h26V6Zm1 1h4v4H4zm5 0h4v4H9Zm5 0h4v4h-4zm5 0h4v4h-4zm5 0h4v4h-4z"/></svg>