<svg xmlns="http://www.w3.org/2000/svg" viewBox="0 0 32 32"><path d="M6.293 3.995 5 5.288v2.54c.055.04 8 10.667 8 10.667v5.008l6 4.502v-9.51l8-10.668V5.288l-1.293-1.293Z" style="opacity:.7;fill:#000;stroke:#000;stroke-width:2;stroke-linejoin:round;stroke-miterlimit:4;stroke-dasharray:none"/><path style="fill:#fff" d="M6.293 3.995 5 5.288v2.54c.055.04 8 10.667 8 10.667v5.008l6 4.502v-9.51l8-10.668V5.288l-1.293-1.293Z"/><circle style="display:inline;opacity:1;fill:#507ce8;fill-opacity:1;stroke:none;stroke-width:2.50387;stroke-linecap:round;stroke-linejoin:round;stroke-miterlimit:4;stroke-dasharray:none;stroke-opacity:1;enable-background:new" cx="23" cy="23" r="7"/><path d="m22 22-3 5 5-3z" style="color:#000;display:inline;overflow:visible;visibility:visible;opacity:1;fill:#dfdfdf;fill-opacity:1;fill-rule:nonzero;stroke:none;stroke-width:.49999997;stroke-linecap:butt;stroke-linejoin:miter;stroke-miterlimit:4;stroke-dasharray:none;stroke-dashoffset:0;stroke-opacity:1;marker:none;enable-background:accumulate"/><path style="color:#000;display:inline;overflow:visible;visibility:visible;opacity:1;fill:#e93549;fill-opacity:1;fill-rule:nonzero;stroke:none;stroke-width:.49999997;stroke-linecap:butt;stroke-linejoin:miter;stroke-miterlimit:4;stroke-dasharray:none;stroke-dashoffset:0;stroke-opacity:1;marker:none;enable-background:accumulate" d="m22 22 5-3-3 5Z"/><circle style="color:#000;display:inline;overflow:visible;visibility:visible;opacity:1;fill:#f2f2f2;fill-opacity:1;fill-rule:nonzero;stroke:none;stroke-width:.20000002;stroke-linecap:butt;stroke-linejoin:miter;stroke-miterlimit:4;stroke-dasharray:none;stroke-dashoffset:0;stroke-opacity:1;marker:none;enable-background:accumulate" cx="23" cy="23" transform="matrix(0 1 1 0 0 0)" r="1"/></svg>