<svg xmlns="http://www.w3.org/2000/svg" xmlns:xlink="http://www.w3.org/1999/xlink" height="32" width="32"><defs><linearGradient xlink:href="#a" id="b" x1="10" y1="5" x2="10" y2="25" gradientUnits="userSpaceOnUse"/><linearGradient id="a"><stop style="stop-color:#151515;stop-opacity:1" offset="0"/><stop style="stop-color:#4d4d4d;stop-opacity:1" offset="1"/></linearGradient></defs><path style="color:#000;font-style:normal;font-variant:normal;font-weight:400;font-stretch:normal;font-size:medium;line-height:normal;font-family:sans-serif;font-variant-ligatures:normal;font-variant-position:normal;font-variant-caps:normal;font-variant-numeric:normal;font-variant-alternates:normal;font-variant-east-asian:normal;font-feature-settings:normal;font-variation-settings:normal;text-indent:0;text-align:start;text-decoration:none;text-decoration-line:none;text-decoration-style:solid;text-decoration-color:#000;letter-spacing:normal;word-spacing:normal;text-transform:none;writing-mode:lr-tb;direction:ltr;text-orientation:mixed;dominant-baseline:auto;baseline-shift:baseline;text-anchor:start;white-space:normal;shape-padding:0;shape-margin:0;inline-size:0;clip-rule:nonzero;display:inline;overflow:visible;visibility:visible;opacity:1;isolation:auto;mix-blend-mode:normal;color-interpolation:sRGB;color-interpolation-filters:linearRGB;solid-color:#000;solid-opacity:1;vector-effect:none;fill:#fff;fill-opacity:1;fill-rule:nonzero;stroke:none;stroke-width:2;stroke-linecap:butt;stroke-linejoin:round;stroke-miterlimit:4;stroke-dasharray:none;stroke-dashoffset:0;stroke-opacity:1;color-rendering:auto;image-rendering:auto;shape-rendering:auto;text-rendering:auto;enable-background:accumulate;stop-color:#000;stop-opacity:1" d="M3 4a1 1 0 0 0-1 1v20a1 1 0 0 0 1 1h2a1 1 0 0 0 1-1v-8h9v3h4V5a1 1 0 0 0-1-1h-2a1 1 0 0 0-1 1v8H6V5a1 1 0 0 0-1-1Zm1 10a1 1 0 0 0 1 1 1 1 0 0 0-1 1zm13 0v2a1 1 0 0 0-1-1 1 1 0 0 0 1-1z"/><path style="fill:url(#b);fill-opacity:1" d="M3 5v20h2v-9h11v4h2V5h-2v9H5V5Z"/><path style="opacity:1;fill:#3a944a;fill-opacity:1;fill-rule:evenodd;stroke:none;stroke-width:2;stroke-linejoin:round" transform="scale(-1 1)" d="M-29 22h1v6h-1zM-31 21h13v1h-13zM-31 28h13v1h-13z"/><path style="fill:none;stroke:#3a944a;stroke-width:1px;stroke-linecap:butt;stroke-linejoin:round;stroke-opacity:1" d="m26.5 21.5-3.5 7-3.5-7"/></svg>