<svg xmlns="http://www.w3.org/2000/svg" viewBox="0 0 32 32"><path style="fill:#fff;fill-opacity:1;stroke:none;stroke-width:2;stroke-linecap:round;stroke-linejoin:round;stroke-miterlimit:4;stroke-dasharray:none;stroke-opacity:1" transform="matrix(0 -1 -1 0 0 0)" d="M-27-27h22v22h-22z"/><path d="M4 20V7c0-2 0-3 2-3h20c2 0 2 1 2 3v13Zm23 0h-2zm0-1v-6h-2v6zm0-7V7c0-1 0-2-1-2h-1v7Zm-3 8h-3zm0-1v-6h-3v6zm0-7V5h-3v7Zm-4 8h-3zm0-1v-6h-3v6zm0-7V5h-3v7Zm-4 8h-3zm0-1v-6h-3v6zm0-7V5h-3v7Zm-4 8H9Zm0-1v-6H9v6zm0-7V5H9v7Zm-4 8H5zm0-1v-6H5v6zm0-7V5H6C5 5 5 6 5 7v5Z" style="fill:#6d6d6d;fill-opacity:1"/><path style="fill:#ddf6d5;fill-opacity:1;fill-rule:evenodd;stroke-width:2;stroke-linecap:round;stroke-linejoin:round" transform="rotate(90)" d="M20-27h7v22h-7z"/><path style="fill:#46a926;fill-opacity:1" d="M28 19H4v6c0 2 0 3 2 3h20c2 0 2-1 2-3zm-1 1v5c0 1 0 2-1 2h-1v-7zm-3 0v7h-3v-7zm-4 0v7h-3v-7zm-4 0v7h-3v-7zm-4 0v7H9v-7zm-4 0v7H6c-1 0-1-1-1-2v-5z"/><circle style="opacity:1;vector-effect:none;fill:#46a926;fill-opacity:1;stroke:none;stroke-width:4.49999952;stroke-linecap:butt;stroke-linejoin:round;stroke-miterlimit:4;stroke-dasharray:none;stroke-dashoffset:0;stroke-opacity:1" cy="5.5" cx="26.5" r="4.5"/><path overflow="visible" font-weight="400" style="color:#000;font-weight:400;line-height:normal;font-family:sans-serif;text-indent:0;text-align:start;text-decoration:none;text-decoration-line:none;text-decoration-style:solid;text-decoration-color:#000;text-transform:none;white-space:normal;overflow:visible;isolation:auto;mix-blend-mode:normal;fill:#fff;fill-opacity:1;marker:none" d="M26 3v2h-2v1h2v2h1V6h2V5h-2V3Z"/></svg>