<svg xmlns="http://www.w3.org/2000/svg" viewBox="0 0 32 32"><path style="color:#000;font-style:normal;font-variant:normal;font-weight:400;font-stretch:normal;font-size:medium;line-height:normal;font-family:sans-serif;font-variant-ligatures:normal;font-variant-position:normal;font-variant-caps:normal;font-variant-numeric:normal;font-variant-alternates:normal;font-variant-east-asian:normal;font-feature-settings:normal;font-variation-settings:normal;text-indent:0;text-align:start;text-decoration:none;text-decoration-line:none;text-decoration-style:solid;text-decoration-color:#000;letter-spacing:normal;word-spacing:normal;text-transform:none;writing-mode:lr-tb;direction:ltr;text-orientation:mixed;dominant-baseline:auto;baseline-shift:baseline;text-anchor:start;white-space:normal;shape-padding:0;shape-margin:0;inline-size:0;clip-rule:nonzero;display:inline;overflow:visible;visibility:visible;isolation:auto;mix-blend-mode:normal;color-interpolation:sRGB;color-interpolation-filters:linearRGB;solid-color:#000;solid-opacity:1;vector-effect:none;fill:#000;fill-opacity:1;fill-rule:nonzero;stroke:none;stroke-width:2;stroke-linecap:butt;stroke-linejoin:round;stroke-miterlimit:4;stroke-dasharray:none;stroke-dashoffset:0;stroke-opacity:1;color-rendering:auto;image-rendering:auto;shape-rendering:auto;text-rendering:auto;enable-background:accumulate;stop-color:#000;stop-opacity:1;opacity:.7" d="M7 3c-1 0-1.84-.073-2.697.355-.43.215-.82.613-1.03 1.083C3.065 4.907 3 5.417 3 6v13c0 .583.065 1.093.273 1.563.21.47.6.867 1.03 1.082.462.23.943.275 1.435.285L7 20.92v1.494L9.586 25H14v-3h11c1 0 1.84.073 2.697-.355.43-.215.82-.613 1.03-1.082.208-.47.273-.98.273-1.563V6c0-.583-.065-1.093-.273-1.563-.21-.47-.6-.867-1.03-1.082C26.84 2.927 26 3 25 3H7zm0 2h18c1 0 1.66.073 1.803.145.07.035.054.012.095.105.042.093.102.333.102.75v13c0 .417-.06.657-.102.75-.04.093-.024.07-.095.105C26.66 19.927 26 20 25 20H13a1 1 0 0 0-1 1v3.586l-4.293-4.293A1 1 0 0 0 7 20c-1 0-1.66-.073-1.803-.145-.07-.035-.054-.012-.095-.105C5.06 19.657 5 19.417 5 19V6c0-.417.06-.657.102-.75.04-.093.024-.07.095-.105C5.34 5.073 6 5 7 5z"/><path style="opacity:1;fill:#fa9381;fill-opacity:1;fill-rule:nonzero;stroke:none;stroke-width:.00119524;stroke-linecap:butt;stroke-linejoin:round;stroke-miterlimit:4;stroke-dasharray:none;stroke-dashoffset:0;stroke-opacity:1" d="M7 4C5 4 4 4 4 6v13c0 1.963.976 1.997 2.902 1.998L7 20.92V21l4 4h2v-4h12c2 0 3 0 3-2V6c0-2-1-2-3-2H7z"/><rect style="opacity:1;fill:#fff;fill-opacity:1;stroke:none;stroke-width:2;stroke-linecap:round;stroke-linejoin:round;stroke-miterlimit:4;stroke-dasharray:none;stroke-opacity:1" width="14" height="1" x="9" y="9" ry=".5"/><rect ry=".5" y="12" x="9" height="1" width="14" style="opacity:1;fill:#fff;fill-opacity:1;stroke:none;stroke-width:2;stroke-linecap:round;stroke-linejoin:round;stroke-miterlimit:4;stroke-dasharray:none;stroke-opacity:1"/><rect style="opacity:1;fill:#fff;fill-opacity:1;stroke:none;stroke-width:2;stroke-linecap:round;stroke-linejoin:round;stroke-miterlimit:4;stroke-dasharray:none;stroke-opacity:1" width="14" height="1" x="9" y="15" ry=".5"/><path style="fill:#3a944a;fill-opacity:1;stroke:none;stroke-width:1px;stroke-linecap:butt;stroke-linejoin:miter;stroke-opacity:1" d="m1 27 5-4v3h7v2H6v3z"/></svg>