<svg xmlns="http://www.w3.org/2000/svg" xmlns:xlink="http://www.w3.org/1999/xlink" height="32" width="32"><defs><radialGradient xlink:href="#a" id="c" cx="16" cy="16" fx="16" fy="16" r="12" gradientTransform="matrix(1 0 0 .875 0 2)" gradientUnits="userSpaceOnUse"/><linearGradient id="a"><stop style="stop-color:#fff;stop-opacity:1" offset="0"/><stop style="stop-color:#fff;stop-opacity:1" offset=".5"/><stop offset=".75" style="stop-color:#d4d4d4;stop-opacity:1"/><stop style="stop-color:#fff;stop-opacity:1" offset="1"/></linearGradient></defs><linearGradient id="b"><stop offset="0" stop-color="#b3b3b3"/><stop offset="1" stop-color="#232629" stop-opacity="0"/></linearGradient><path d="M16 5.5A12 10.5 0 0 0 4 16a12 10.5 0 0 0 12 10.5A12 10.5 0 0 0 28 16 12 10.5 0 0 0 16 5.5Zm0 5.25A6 5.25 0 0 1 22 16a6 5.25 0 0 1-6 5.25A6 5.25 0 0 1 10 16a6 5.25 0 0 1 6-5.25z" style="fill:#000;fill-opacity:.835294;stroke-width:2;stroke:#000;opacity:.7;stroke-miterlimit:4;stroke-dasharray:none;stroke-linejoin:round"/><path style="fill:url(#c);fill-opacity:1;stroke-width:1.40312171;stroke:none" d="M16 5.5A12 10.5 0 0 0 4 16a12 10.5 0 0 0 12 10.5A12 10.5 0 0 0 28 16 12 10.5 0 0 0 16 5.5Zm0 5.25A6 5.25 0 0 1 22 16a6 5.25 0 0 1-6 5.25A6 5.25 0 0 1 10 16a6 5.25 0 0 1 6-5.25z"/></svg>