<svg xmlns="http://www.w3.org/2000/svg" viewBox="0 0 32 32"><path style="fill:#232629" d="M21 4v5h7V4h-6z"/><path style="fill:#6d6d6d;fill-opacity:1" d="M6 4v5h2V6h11V4z"/><path style="fill:#232629" d="M21 10v5h7v-5zM21 17v5h7v-5h-6z"/><path style="fill:#6d6d6d;fill-opacity:1" d="M6 23v5h13v-2H8v-3z"/><path style="fill:#232629" d="M21 23v5h7v-5z"/><path d="M2.757 13.172 5.586 16l-2.829 2.828 1.415 1.415L7 17.414l2.828 2.829 1.415-1.415L8.414 16l2.829-2.828-1.415-1.415L7 14.586l-2.828-2.829Z" style="fill:#c7162b;fill-opacity:1"/><rect style="opacity:1;fill:#fff;fill-opacity:1;fill-rule:evenodd;stroke:none;stroke-width:2;stroke-linecap:butt;stroke-linejoin:round;stroke-miterlimit:4;stroke-dasharray:none;stroke-opacity:1" width="5" height="3" x="22" y="5" ry="0"/><rect ry="0" y="11" x="22" height="3" width="5" style="opacity:1;fill:#fff;fill-opacity:1;fill-rule:evenodd;stroke:none;stroke-width:2;stroke-linecap:butt;stroke-linejoin:round;stroke-miterlimit:4;stroke-dasharray:none;stroke-opacity:1"/><rect style="opacity:1;fill:#fff;fill-opacity:1;fill-rule:evenodd;stroke:none;stroke-width:2;stroke-linecap:butt;stroke-linejoin:round;stroke-miterlimit:4;stroke-dasharray:none;stroke-opacity:1" width="5" height="3" x="22" y="18" ry="0"/><rect ry="0" y="24" x="22" height="3" width="5" style="opacity:1;fill:#fff;fill-opacity:1;fill-rule:evenodd;stroke:none;stroke-width:2;stroke-linecap:butt;stroke-linejoin:round;stroke-miterlimit:4;stroke-dasharray:none;stroke-opacity:1"/></svg>