<svg height="32" width="32" xmlns:xlink="http://www.w3.org/1999/xlink" xmlns="http://www.w3.org/2000/svg"><defs><linearGradient xlink:href="#a" id="d" gradientUnits="userSpaceOnUse" gradientTransform="matrix(.15217 0 0 .15217 1.391 1.391)" x1="96" y1="4" x2="96" y2="188"/><linearGradient id="a"><stop style="stop-color:#fff;stop-opacity:1" offset="0"/><stop offset=".125" style="stop-color:#fff;stop-opacity:.09803922"/><stop offset=".925" style="stop-color:#fff;stop-opacity:.09803922"/><stop style="stop-color:#fff;stop-opacity:.49803922" offset="1"/></linearGradient><linearGradient xlink:href="#b" id="c" gradientUnits="userSpaceOnUse" gradientTransform="matrix(.60892 0 0 .60892 .856 -149.706)" x1="13.735" y1="249.694" x2="38.1" y2="292.767"/><linearGradient id="b"><stop style="stop-color:#1a7fd4;stop-opacity:1" offset="0"/><stop style="stop-color:#37a6e6;stop-opacity:1" offset="1"/></linearGradient></defs><circle style="display:inline;opacity:.1;fill:#000;fill-opacity:1;stroke:none;stroke-width:1.95437694;stroke-linecap:round;stroke-linejoin:round;stroke-miterlimit:4;stroke-dasharray:none;stroke-opacity:1;enable-background:new" cx="-16" cy="-17" transform="scale(-1)" r="15"/><circle style="display:inline;opacity:1;fill:url(#c);fill-opacity:1;stroke:none;stroke-width:1.86940372;stroke-linecap:round;stroke-linejoin:round;stroke-miterlimit:4;stroke-dasharray:none;stroke-opacity:1;enable-background:new" cx="16" cy="16" r="14.5"/><path style="opacity:1;fill:#fff;fill-rule:evenodd;stroke:none;stroke-width:2;stroke-linecap:round;stroke-linejoin:round;stroke-opacity:.577077" d="M15 12h2v13h-2z"/><g style="font-size:24.4565px;line-height:1.25;letter-spacing:0;word-spacing:0;display:inline;fill:#fff;enable-background:new"><path d="M16 9.984a1.53 1.53 0 0 1-1.051-.392c-.278-.277-.416-.644-.416-1.1 0-.457.138-.815.416-1.076A1.478 1.478 0 0 1 16 7c.408 0 .75.139 1.027.416.294.26.44.62.44 1.076 0 .456-.146.823-.44 1.1-.277.261-.62.392-1.027.392z" style="font-family:Ubuntu;-inkscape-font-specification:Ubuntu;stroke-width:.204734" aria-label="i"/></g><circle style="display:inline;opacity:.4;vector-effect:none;fill:none;fill-opacity:1;stroke:#000;stroke-width:1;stroke-linecap:butt;stroke-linejoin:round;stroke-miterlimit:4;stroke-dasharray:none;stroke-dashoffset:6.5999999;stroke-opacity:1;enable-background:new" cx="16" cy="16" r="14.5"/><path style="display:inline;opacity:1;fill:url(#d);fill-opacity:1;stroke:none;stroke-width:1.8694036;stroke-linecap:round;stroke-linejoin:round;stroke-miterlimit:4;stroke-dasharray:none;stroke-opacity:1;enable-background:new" d="M16 2C8.268 2 2 8.268 2 16s6.268 14 14 14 14-6.268 14-14S23.732 2 16 2Zm0 1a13 13 0 0 1 13 13 13 13 0 0 1-13 13A13 13 0 0 1 3 16 13 13 0 0 1 16 3Z"/><path style="display:inline;opacity:.1;fill:#fff;fill-opacity:1;stroke:none;stroke-width:1.33333325;stroke-linecap:round;stroke-linejoin:round;stroke-miterlimit:4;stroke-dasharray:none;stroke-opacity:1;enable-background:new" d="M1.406 17.333A14.667 14.667 0 0 0 16 30.667a14.667 14.667 0 0 0 14.6-13.334Z"/></svg>