<svg xmlns="http://www.w3.org/2000/svg" viewBox="0 0 16 11"><path d="M7.688 1L5.344 9.75l.968.25 2.344-8.75zm2 0L7.344 9.75l.968.25 2.344-8.75zM4.28 2L1.313 5.156 1 5.5l.313.344L4.28 9l.688-.688L2.375 5.5 5 2.687zm7.438 0L11 2.688 13.625 5.5l-2.594 2.813.688.687 2.969-3.156L15 5.5l-.313-.344z" stroke="#000" opacity=".6" stroke-width="2" stroke-linejoin="round"/><path fill="#fff" d="M7.688 1L5.344 9.75l.968.25 2.344-8.75zm2 0L7.344 9.75l.968.25 2.344-8.75zM4.28 2L1.313 5.156 1 5.5l.313.344L4.28 9l.688-.688L2.375 5.5 5 2.687zm7.438 0L11 2.688 13.625 5.5l-2.594 2.813.688.687 2.969-3.156L15 5.5l-.313-.344z"/><path d="M7.688 1L5.344 9.75l.968.25 2.344-8.75zm2 0L7.344 9.75l.968.25 2.344-8.75zM4.28 2L1.313 5.156 1 5.5l.313.344L4.28 9l.688-.688L2.375 5.5 5 2.687zm7.438 0L11 2.688 13.625 5.5l-2.594 2.813.688.687 2.969-3.156L15 5.5l-.313-.344z" fill="#fff"/></svg>