<svg xmlns="http://www.w3.org/2000/svg" xmlns:xlink="http://www.w3.org/1999/xlink" width="32" height="32" viewBox="0 0 8.467 8.467"><defs><linearGradient xlink:href="#a" id="b" x1="74" y1="-64" x2="90" y2="-64" gradientUnits="userSpaceOnUse" gradientTransform="matrix(0 -.26458 .26458 0 20.902 313.14)"/><linearGradient id="a"><stop offset="0" stop-color="#4d4d4d"/><stop offset="1" stop-color="#151515"/></linearGradient></defs><g fill-rule="evenodd"><path d="M2.117.28a.265.265 0 00-.265.265v1.19a.265.265 0 00.029.119l.13.263a.265.265 0 00.018.03.265.265 0 00-.162.162.265.265 0 00-.03-.018l-.263-.13a.265.265 0 00-.119-.03H.264A.265.265 0 000 2.397v.263a.265.265 0 00.264.266h1.191a.265.265 0 00.12-.03l.263-.13a.265.265 0 00.03-.018.265.265 0 00.161.162.265.265 0 00-.017.03l-.131.263a.265.265 0 00-.03.12v1.19a.265.265 0 00.266.265h.264a.265.265 0 00.265-.266v-1.19a.265.265 0 00-.029-.119l-.13-.263a.265.265 0 00-.018-.03.265.265 0 00.162-.162.265.265 0 00.03.018l.263.13a.265.265 0 00.119.03h1.19a.265.265 0 00.265-.266v-.263a.265.265 0 00-.266-.266H3.043a.265.265 0 00-.12.03l-.263.13a.265.265 0 00-.03.018.265.265 0 00-.161-.162.265.265 0 00.017-.03l.131-.263a.265.265 0 00.03-.12V.546A.265.265 0 002.38.28z" style="line-height:normal;font-variant-ligatures:normal;font-variant-position:normal;font-variant-caps:normal;font-variant-numeric:normal;font-variant-alternates:normal;font-feature-settings:normal;text-indent:0;text-align:start;text-decoration-line:none;text-decoration-style:solid;text-decoration-color:#000;text-transform:none;text-orientation:mixed;white-space:normal;shape-padding:0;isolation:auto;mix-blend-mode:normal;solid-color:#000;solid-opacity:1" color="#000" font-weight="400" font-family="sans-serif" overflow="visible" opacity=".15"/><path style="line-height:normal;font-variant-ligatures:normal;font-variant-position:normal;font-variant-caps:normal;font-variant-numeric:normal;font-variant-alternates:normal;font-feature-settings:normal;text-indent:0;text-align:start;text-decoration-line:none;text-decoration-style:solid;text-decoration-color:#000;text-transform:none;text-orientation:mixed;white-space:normal;shape-padding:0;isolation:auto;mix-blend-mode:normal;solid-color:#000;solid-opacity:1" d="M2.117 0a.265.265 0 00-.265.266v1.19a.265.265 0 00.029.118l.13.264a.265.265 0 00.018.03.265.265 0 00-.162.161.265.265 0 00-.03-.017l-.263-.131a.265.265 0 00-.119-.03H.264A.265.265 0 000 2.118v.264a.265.265 0 00.264.265h1.191a.265.265 0 00.12-.029l.263-.13a.265.265 0 00.03-.018.265.265 0 00.161.162.265.265 0 00-.017.03l-.131.263a.265.265 0 00-.03.119v1.191a.265.265 0 00.266.264h.264a.265.265 0 00.265-.266v-1.19a.265.265 0 00-.029-.118l-.13-.264a.265.265 0 00-.018-.03.265.265 0 00.162-.161.265.265 0 00.03.017l.263.131a.265.265 0 00.119.03h1.19a.265.265 0 00.265-.266v-.264a.265.265 0 00-.266-.265H3.043a.265.265 0 00-.12.029l-.263.13a.265.265 0 00-.03.018.265.265 0 00-.161-.162.265.265 0 00.017-.03l.131-.263a.265.265 0 00.03-.119V.265A.265.265 0 002.38 0z" color="#000" font-weight="400" font-family="sans-serif" overflow="visible" fill="#fff"/><path d="M2.117 288.798v1.19l.132.265.132-.264v-1.191zM.265 290.65v.265h1.19l.265-.133-.265-.132zm1.852 0v.265h.264v-.265zm.926 0l-.265.132.265.133h1.19v-.265zm-.794.661l-.132.265v1.19h.264v-1.19z" fill="url(#b)" transform="translate(0 -288.533)"/><path d="M3.44 4.233v.795h.527l.002.006v1.309l-.002.007H3.44v.794h.529a.729.729 0 00.397-.122.73.73 0 00.397.122h.529v-.795h-.527l-.003-.007V5.034l.003-.007h.527v-.794h-.53a.729.729 0 00-.396.122.73.73 0 00-.397-.122z" style="line-height:normal;font-variant-ligatures:normal;font-variant-position:normal;font-variant-caps:normal;font-variant-numeric:normal;font-variant-alternates:normal;font-feature-settings:normal;text-indent:0;text-align:start;text-decoration-line:none;text-decoration-style:solid;text-decoration-color:#000;text-transform:none;text-orientation:mixed;white-space:normal;shape-padding:0;isolation:auto;mix-blend-mode:normal;solid-color:#000;solid-opacity:1" color="#000" font-weight="400" font-family="sans-serif" overflow="visible" fill="#fff"/><path style="line-height:normal;font-variant-ligatures:normal;font-variant-position:normal;font-variant-caps:normal;font-variant-numeric:normal;font-variant-alternates:normal;font-feature-settings:normal;text-indent:0;text-align:start;text-decoration-line:none;text-decoration-style:solid;text-decoration-color:#000;text-transform:none;text-orientation:mixed;white-space:normal;shape-padding:0;isolation:auto;mix-blend-mode:normal;solid-color:#000;solid-opacity:1" d="M3.704 4.498v.265h.265c.154 0 .195.057.229.125.034.067.035.14.035.14v1.321s-.002.072-.035.14c-.034.068-.107.125-.23.125h-.264v.265h.265a.488.488 0 00.397-.196.488.488 0 00.397.196h.264v-.265h-.264c-.155 0-.196-.057-.23-.125a.372.372 0 01-.035-.14V5.027s.002-.072.036-.14c.033-.067.074-.124.229-.124h.264v-.265h-.264a.488.488 0 00-.397.195.488.488 0 00-.397-.195z" color="#000" font-weight="400" font-family="sans-serif" overflow="visible" fill="#111"/></g></svg>