<svg xmlns="http://www.w3.org/2000/svg" xmlns:xlink="http://www.w3.org/1999/xlink" height="32" width="32"><defs><linearGradient xlink:href="#a" id="d" gradientUnits="userSpaceOnUse" gradientTransform="matrix(.15217 0 0 .15217 1.391 1.391)" x1="96" y1="4" x2="96" y2="188"/><linearGradient id="a"><stop style="stop-color:#fff;stop-opacity:1" offset="0"/><stop offset=".125" style="stop-color:#fff;stop-opacity:.09803922"/><stop offset=".925" style="stop-color:#fff;stop-opacity:.09803922"/><stop style="stop-color:#fff;stop-opacity:.49803922" offset="1"/></linearGradient><linearGradient xlink:href="#b" id="c" gradientUnits="userSpaceOnUse" gradientTransform="matrix(.60892 0 0 .60892 .856 -149.706)" x1="13.735" y1="249.694" x2="38.1" y2="292.767"/><linearGradient id="b"><stop style="stop-color:#da1636;stop-opacity:1" offset="0"/><stop style="stop-color:#f22c42;stop-opacity:1" offset="1"/></linearGradient></defs><circle style="display:inline;opacity:.1;fill:#000;fill-opacity:1;stroke:none;stroke-width:1.95437694;stroke-linecap:round;stroke-linejoin:round;stroke-miterlimit:4;stroke-dasharray:none;stroke-opacity:1;enable-background:new" cx="-16" cy="-17" transform="scale(-1)" r="15"/><circle style="display:inline;opacity:1;fill:url(#c);fill-opacity:1;stroke:none;stroke-width:1.86940372;stroke-linecap:round;stroke-linejoin:round;stroke-miterlimit:4;stroke-dasharray:none;stroke-opacity:1;enable-background:new" cx="16" cy="16" r="14.5"/><path style="display:inline;opacity:.05;fill:#fff;fill-opacity:1;stroke:none;stroke-width:1.33333325;stroke-linecap:round;stroke-linejoin:round;stroke-miterlimit:4;stroke-dasharray:none;stroke-opacity:1;enable-background:new" d="M1.406 17.333A14.667 14.667 0 0 0 16 30.667a14.667 14.667 0 0 0 14.6-13.334z"/><g style="font-style:normal;font-weight:400;font-size:25.49575043px;line-height:1000%;font-family:sans-serif;text-align:center;letter-spacing:0;word-spacing:0;text-anchor:middle;display:inline;fill:#fff;fill-opacity:1;stroke:none;stroke-width:.63739383px;stroke-linecap:butt;stroke-linejoin:miter;stroke-opacity:1;enable-background:new"><path d="M337.275 143.793q0 2.142-.153 3.901-.153 1.734-.383 3.467h-1.478q-.23-1.733-.383-3.467-.153-1.76-.153-3.9V139h2.55zm.433 11.499q0 .688-.459 1.198T336 157q-.79 0-1.25-.51-.458-.51-.458-1.198 0-.689.459-1.199.459-.51 1.249-.51t1.25.51q.458.51.458 1.199z" style="font-style:normal;font-variant:normal;font-weight:400;font-stretch:normal;font-family:Ubuntu;-inkscape-font-specification:Ubuntu;text-align:center;text-anchor:middle;fill:#fff;fill-opacity:1;stroke-width:.63739383px" transform="translate(-320 -132)" aria-label="!"/></g><circle style="display:inline;opacity:.4;vector-effect:none;fill:none;fill-opacity:1;stroke:#000;stroke-width:1;stroke-linecap:butt;stroke-linejoin:round;stroke-miterlimit:4;stroke-dasharray:none;stroke-dashoffset:6.5999999;stroke-opacity:1;enable-background:new" cx="16" cy="16" r="14.5"/><path style="display:inline;opacity:1;fill:url(#d);fill-opacity:1;stroke:none;stroke-width:1.8694036;stroke-linecap:round;stroke-linejoin:round;stroke-miterlimit:4;stroke-dasharray:none;stroke-opacity:1;enable-background:new" d="M16 2C8.268 2 2 8.268 2 16s6.268 14 14 14 14-6.268 14-14S23.732 2 16 2zm0 1a13 13 0 0 1 13 13 13 13 0 0 1-13 13A13 13 0 0 1 3 16 13 13 0 0 1 16 3z"/></svg>