<svg xmlns="http://www.w3.org/2000/svg" viewBox="0 0 32 32"><path style="fill:#fff;fill-rule:evenodd;stroke-width:3;stroke-linecap:round;stroke-linejoin:round" transform="scale(1 -1)" d="M11-8h12v1H11z"/><path style="fill:#232629;fill-rule:evenodd;stroke-width:3;stroke-linecap:round;stroke-linejoin:round" transform="scale(1 -1)" d="M11-7h12v1H11z"/><path style="fill:#fff;fill-rule:evenodd;stroke-width:3;stroke-linecap:round;stroke-linejoin:round" transform="scale(1 -1)" d="M11-6h16v1H11z"/><path style="fill:#232629;fill-rule:evenodd;stroke-width:3;stroke-linecap:round;stroke-linejoin:round" transform="scale(1 -1)" d="M11-5h16v1H11z"/><path style="fill:#fff;fill-rule:evenodd;stroke-width:3;stroke-linecap:round;stroke-linejoin:round" transform="scale(1 -1)" d="M11-10h14v1H11z"/><path style="fill:#232629;fill-rule:evenodd;stroke-width:3;stroke-linecap:round;stroke-linejoin:round" transform="scale(1 -1)" d="M11-9h14v1H11z"/><path style="fill:#fff;fill-rule:evenodd;stroke-width:3;stroke-linecap:round;stroke-linejoin:round" transform="scale(1 -1)" d="M11-17h12v1H11z"/><path style="fill:#232629;fill-rule:evenodd;stroke-width:3;stroke-linecap:round;stroke-linejoin:round" transform="scale(1 -1)" d="M11-16h12v1H11z"/><path style="fill:#fff;fill-rule:evenodd;stroke-width:3;stroke-linecap:round;stroke-linejoin:round" transform="scale(1 -1)" d="M11-15h16v1H11z"/><path style="fill:#232629;fill-rule:evenodd;stroke-width:3;stroke-linecap:round;stroke-linejoin:round" transform="scale(1 -1)" d="M11-14h16v1H11z"/><path style="fill:#fff;fill-rule:evenodd;stroke-width:3;stroke-linecap:round;stroke-linejoin:round" transform="scale(1 -1)" d="M11-19h14v1H11z"/><path style="fill:#232629;fill-rule:evenodd;stroke-width:3;stroke-linecap:round;stroke-linejoin:round" transform="scale(1 -1)" d="M11-18h14v1H11z"/><path style="fill:#fff;fill-rule:evenodd;stroke-width:3;stroke-linecap:round;stroke-linejoin:round" transform="scale(1 -1)" d="M11-26h12v1H11z"/><path style="fill:#232629;fill-rule:evenodd;stroke-width:3;stroke-linecap:round;stroke-linejoin:round" transform="scale(1 -1)" d="M11-25h12v1H11z"/><path style="fill:#fff;fill-rule:evenodd;stroke-width:3;stroke-linecap:round;stroke-linejoin:round" transform="scale(1 -1)" d="M11-24h16v1H11z"/><path style="fill:#232629;fill-rule:evenodd;stroke-width:3;stroke-linecap:round;stroke-linejoin:round" transform="scale(1 -1)" d="M11-23h16v1H11z"/><path style="fill:#fff;fill-rule:evenodd;stroke-width:3;stroke-linecap:round;stroke-linejoin:round" transform="scale(1 -1)" d="M11-28h14v1H11z"/><path style="fill:#232629;fill-rule:evenodd;stroke-width:3;stroke-linecap:round;stroke-linejoin:round" transform="scale(1 -1)" d="M11-27h14v1H11z"/><circle style="fill:#3584e4;fill-rule:evenodd;stroke-width:2;stroke-linecap:round;stroke-linejoin:round" cx="6.5" cy="5.5" r="1.5"/><circle style="fill:#3584e4;fill-rule:evenodd;stroke-width:2;stroke-linecap:round;stroke-linejoin:round" cx="6.5" cy="14.5" r="1.5"/><circle style="fill:#3584e4;fill-rule:evenodd;stroke-width:2;stroke-linecap:round;stroke-linejoin:round" cx="6.5" cy="23.5" r="1.5"/></svg>