<svg xmlns="http://www.w3.org/2000/svg" viewBox="0 0 32 32"><path style="opacity:1;vector-effect:none;fill:#3584e4;fill-opacity:1;stroke:none;stroke-width:2.15384626;stroke-linecap:round;stroke-linejoin:round;stroke-miterlimit:4;stroke-dasharray:none;stroke-dashoffset:0;stroke-opacity:1" d="M6 13h1v3H6zM3 20v1h1v3H3v1h5v-1H7v-3h1v-1zm2 1h1v3H5Z"/><rect style="opacity:1;fill:#3584e4;fill-opacity:1;stroke:none;stroke-width:2;stroke-linejoin:round;stroke-miterlimit:4;stroke-dasharray:none" width="3" height="1" x="5" y="12" ry="0"/><path style="opacity:1;fill:#3584e4;fill-opacity:1;stroke:none;stroke-width:2;stroke-linejoin:round;stroke-miterlimit:4;stroke-dasharray:none" d="M5 16h3v1H5z"/><path style="opacity:.7;fill:#000;stroke:#000;stroke-width:2;stroke-miterlimit:4;stroke-dasharray:none" d="M16 28c-2 0-4-1-4-3V7c0-2 2-3 4-3h6l7 7v14c0 2-2 3-4 3z"/><path d="M16 28c-2 0-4-1-4-3V7c0-2 2-3 4-3h6l7 7v14c0 2-2 3-4 3z" style="fill:#fff"/><path d="M22 11V4l7 7z" style="fill:#6d6d6d;fill-opacity:1"/><path style="opacity:1;vector-effect:none;fill:#232629;fill-opacity:1;stroke:none;stroke-width:2.74563;stroke-linecap:round;stroke-linejoin:round;stroke-miterlimit:4;stroke-dasharray:none;stroke-dashoffset:0;stroke-opacity:1" transform="scale(-1 1)" d="M-27 13h13v1h-13zM-27 15h13v1h-13zM-27 21h13v1h-13zM-27 23h13v1h-13z"/></svg>