<svg height="32" width="32" xmlns:xlink="http://www.w3.org/1999/xlink" xmlns="http://www.w3.org/2000/svg"><defs><linearGradient id="a"><stop style="stop-color:#151515;stop-opacity:1" offset="0"/><stop style="stop-color:#4d4d4d;stop-opacity:1" offset="1"/></linearGradient><linearGradient xlink:href="#a" id="b" x1="14" y1="5" x2="14.176" y2="23.992" gradientUnits="userSpaceOnUse"/></defs><path style="fill:#000;stroke-width:2;stroke:#fff;opacity:1;stroke-miterlimit:4;stroke-dasharray:none;stroke-linejoin:round;stroke-opacity:1" d="m17.472 4.992-5.091 19h1.795l5.151-18.986zM9.679 8.447l-5.115 5.431-.56.6.56.598 5.084 5.462 1.235-1.198-4.527-4.861 4.557-4.831z"/><path d="M25 15a4 4 0 1 0 0 8v5h1V16h1v12h1V15h-2z" fill="#0073E5" style="fill:#0073E5;fill-opacity:1"/><path d="m17.472 4.992-5.091 19h1.795l5.151-18.986zM9.679 8.447l-5.115 5.431-.56.6.56.598 5.084 5.462 1.235-1.198-4.527-4.861 4.557-4.831z" style="fill:url(#b);stroke-width:1.72727704;stroke:none;fill-opacity:1"/></svg>