<svg xmlns="http://www.w3.org/2000/svg" xmlns:xlink="http://www.w3.org/1999/xlink" viewBox="0 0 32 32"><defs><linearGradient xlink:href="#a" id="b" x1="16" y1="6" x2="16" y2="26" gradientUnits="userSpaceOnUse"/><linearGradient id="a"><stop style="stop-color:#151515;stop-opacity:1" offset="0"/><stop style="stop-color:#4d4d4d;stop-opacity:1" offset="1"/></linearGradient></defs><path style="color:#000;font-style:normal;font-variant:normal;font-weight:400;font-stretch:normal;font-size:medium;line-height:normal;font-family:sans-serif;font-variant-ligatures:normal;font-variant-position:normal;font-variant-caps:normal;font-variant-numeric:normal;font-variant-alternates:normal;font-variant-east-asian:normal;font-feature-settings:normal;font-variation-settings:normal;text-indent:0;text-align:start;text-decoration:none;text-decoration-line:none;text-decoration-style:solid;text-decoration-color:#000;letter-spacing:normal;word-spacing:normal;text-transform:none;writing-mode:lr-tb;direction:ltr;text-orientation:mixed;dominant-baseline:auto;baseline-shift:baseline;text-anchor:start;white-space:normal;shape-padding:0;shape-margin:0;inline-size:0;clip-rule:nonzero;display:inline;overflow:visible;visibility:visible;opacity:1;isolation:auto;mix-blend-mode:normal;color-interpolation:sRGB;color-interpolation-filters:linearRGB;solid-color:#000;solid-opacity:1;vector-effect:none;fill:#fff;fill-opacity:1;fill-rule:nonzero;stroke:none;stroke-width:2;stroke-linecap:butt;stroke-linejoin:round;stroke-miterlimit:4;stroke-dasharray:none;stroke-dashoffset:0;stroke-opacity:1;color-rendering:auto;image-rendering:auto;shape-rendering:auto;text-rendering:auto;enable-background:accumulate;stop-color:#000;stop-opacity:1" d="M14 5a1 1 0 0 0-.912.59l-9 20A1 1 0 0 0 5 27h3a1 1 0 0 0 .9-.564L11.535 21h8.93l1.94 4h2.222l-2.635-5.436a1 1 0 0 0-.9-.564H10.908a1 1 0 0 0-.9.564L7.373 25h-.826l8.1-18h2.707L25 23.992V19.12L18.912 5.59A1 1 0 0 0 18 5h-2zm1.973 2.402a1 1 0 0 0-.885.592l-3.85 8.598A1 1 0 0 0 12.15 18h7.7a1 1 0 0 0 .912-1.408l-3.85-8.598a1 1 0 0 0-.94-.592ZM16 10.848 18.307 16h-4.614Z"/><path style="fill:url(#b);fill-opacity:1" d="M14 6 5 26h3l2.908-6h10.184l2.424 5H25v-3.445L18 6h-2Zm2 2.402L19.85 17h-7.7Z"/><path style="fill:#3584e4;fill-opacity:1;stroke:none;stroke-width:1px;stroke-linecap:butt;stroke-linejoin:miter;stroke-opacity:1" d="m27 31-4-5h3v-7h2v7h3zM27 1l-4 5h3v7h2V6h3z"/></svg>