<?xml version="1.0" encoding="UTF-8" standalone="no"?>
<svg
   xmlns:dc="http://purl.org/dc/elements/1.1/"
   xmlns:cc="http://creativecommons.org/ns#"
   xmlns:rdf="http://www.w3.org/1999/02/22-rdf-syntax-ns#"
   xmlns:svg="http://www.w3.org/2000/svg"
   xmlns="http://www.w3.org/2000/svg"
   xmlns:sodipodi="http://sodipodi.sourceforge.net/DTD/sodipodi-0.dtd"
   xmlns:inkscape="http://www.inkscape.org/namespaces/inkscape"
   viewBox="0 0 24 24"
   version="1.1"
   id="svg10"
   sodipodi:docname="lc_alphalowliststyle.svg"
   inkscape:version="1.0.1 (3bc2e813f5, 2020-09-07)"
   inkscape:export-filename="/home/jupiter007/Libreoffice yaru theme fullcolor/build/cmd/lc_alphalowliststyle.png"
   inkscape:export-xdpi="96"
   inkscape:export-ydpi="96">
  <metadata
     id="metadata16">
    <rdf:RDF>
      <cc:Work
         rdf:about="">
        <dc:format>image/svg+xml</dc:format>
        <dc:type
           rdf:resource="http://purl.org/dc/dcmitype/StillImage" />
        <dc:title />
      </cc:Work>
    </rdf:RDF>
  </metadata>
  <defs
     id="defs14" />
  <sodipodi:namedview
     pagecolor="#808080"
     bordercolor="#666666"
     borderopacity="1"
     objecttolerance="10"
     gridtolerance="10"
     guidetolerance="10"
     inkscape:pageopacity="0"
     inkscape:pageshadow="2"
     inkscape:window-width="1920"
     inkscape:window-height="1016"
     id="namedview12"
     showgrid="true"
     inkscape:zoom="19.666667"
     inkscape:cx="21.841509"
     inkscape:cy="7.0051672"
     inkscape:window-x="0"
     inkscape:window-y="27"
     inkscape:window-maximized="1"
     inkscape:current-layer="svg10"
     inkscape:document-rotation="0">
    <inkscape:grid
       type="xygrid"
       id="grid823" />
  </sodipodi:namedview>
  <rect
     style="fill:#ffffff;fill-rule:evenodd;stroke-width:3;stroke-linecap:round;stroke-linejoin:round"
     id="rect843-2"
     width="10"
     height="1"
     x="8"
     y="-8"
     transform="scale(1,-1)" />
  <rect
     style="fill:#232629;fill-rule:evenodd;stroke-width:3;stroke-linecap:round;stroke-linejoin:round"
     id="rect861"
     width="10"
     height="1"
     x="8"
     y="-7"
     transform="scale(1,-1)" />
  <rect
     style="fill:#ffffff;fill-rule:evenodd;stroke-width:3;stroke-linecap:round;stroke-linejoin:round"
     id="rect867"
     width="14"
     height="1"
     x="8"
     y="-6"
     transform="scale(1,-1)" />
  <rect
     style="fill:#232629;fill-rule:evenodd;stroke-width:3;stroke-linecap:round;stroke-linejoin:round"
     id="rect869"
     width="14"
     height="1"
     x="8"
     y="-5"
     transform="scale(1,-1)" />
  <rect
     style="fill:#ffffff;fill-rule:evenodd;stroke-width:3;stroke-linecap:round;stroke-linejoin:round"
     id="rect864"
     width="10"
     height="1"
     x="8"
     y="-14"
     transform="scale(1,-1)" />
  <rect
     style="fill:#232629;fill-rule:evenodd;stroke-width:3;stroke-linecap:round;stroke-linejoin:round"
     id="rect866"
     width="10"
     height="1"
     x="8"
     y="-13.000001"
     transform="scale(1,-1)" />
  <rect
     style="fill:#ffffff;fill-rule:evenodd;stroke-width:3;stroke-linecap:round;stroke-linejoin:round"
     id="rect868"
     width="14"
     height="1"
     x="8"
     y="-12.000001"
     transform="scale(1,-1)" />
  <rect
     style="fill:#232629;fill-rule:evenodd;stroke-width:3;stroke-linecap:round;stroke-linejoin:round"
     id="rect870"
     width="14"
     height="1"
     x="8"
     y="-11"
     transform="scale(1,-1)" />
  <rect
     style="fill:#ffffff;fill-rule:evenodd;stroke-width:3;stroke-linecap:round;stroke-linejoin:round"
     id="rect877"
     width="10"
     height="1"
     x="8"
     y="-20"
     transform="scale(1,-1)" />
  <rect
     style="fill:#232629;fill-rule:evenodd;stroke-width:3;stroke-linecap:round;stroke-linejoin:round"
     id="rect879"
     width="10"
     height="1"
     x="8"
     y="-19"
     transform="scale(1,-1)" />
  <rect
     style="fill:#ffffff;fill-rule:evenodd;stroke-width:3;stroke-linecap:round;stroke-linejoin:round"
     id="rect881"
     width="14"
     height="1"
     x="8"
     y="-18"
     transform="scale(1,-1)" />
  <rect
     style="fill:#232629;fill-rule:evenodd;stroke-width:3;stroke-linecap:round;stroke-linejoin:round"
     id="rect883"
     width="14"
     height="1"
     x="8"
     y="-17"
     transform="scale(1,-1)" />
  <path
     id="rect873"
     style="fill:#e95420;fill-opacity:1;fill-rule:evenodd;stroke:none;stroke-width:2;stroke-linecap:round;stroke-linejoin:round"
     d="M 3.9511719,4 A 2,2 0 0 0 2,6 2,2 0 0 0 4,8 2,2 0 0 0 5,7.7304688 V 8 H 6 V 6.0488281 A 2,2 0 0 0 6,6 V 4 H 5 V 4.2695312 A 2,2 0 0 0 4,4 2,2 0 0 0 3.9511719,4 Z M 4,5 A 1,1 0 0 1 5,6 1,1 0 0 1 4,7 1,1 0 0 1 3,6 1,1 0 0 1 4,5 Z" />
  <path
     id="path882"
     style="fill:#e95420;fill-opacity:1;fill-rule:evenodd;stroke:none;stroke-width:2;stroke-linecap:round;stroke-linejoin:round"
     d="M 2,13.999953 V 17.998 A 2,2 0 0 0 2,18 v 2 h 1 v -0.269578 a 2,2 0 0 0 1,0.269531 2,2 0 0 0 2,-2 2,2 0 0 0 -2,-2 2,2 0 0 0 -0.048828,0 2,2 0 0 0 -0.9511719,0.267578 v -2.267578 z m 2,3 a 1,1 0 0 1 1,1 1,1 0 0 1 -1,1 1,1 0 0 1 -1,-1 1,1 0 0 1 1,-1 z" />
</svg>
