<?xml version="1.0" encoding="UTF-8" standalone="no"?>
<svg
   xmlns:dc="http://purl.org/dc/elements/1.1/"
   xmlns:cc="http://creativecommons.org/ns#"
   xmlns:rdf="http://www.w3.org/1999/02/22-rdf-syntax-ns#"
   xmlns:svg="http://www.w3.org/2000/svg"
   xmlns="http://www.w3.org/2000/svg"
   xmlns:sodipodi="http://sodipodi.sourceforge.net/DTD/sodipodi-0.dtd"
   xmlns:inkscape="http://www.inkscape.org/namespaces/inkscape"
   viewBox="0 0 24 24"
   version="1.1"
   id="svg6"
   sodipodi:docname="lc_accepttrackedchanges.svg"
   inkscape:export-filename="/home/jupiter007/Libreoffice yaru theme fullcolor/build/cmd/lc_accepttrackedchanges.png"
   inkscape:export-xdpi="95"
   inkscape:export-ydpi="95"
   inkscape:version="1.0.1 (3bc2e813f5, 2020-09-07)">
  <metadata
     id="metadata12">
    <rdf:RDF>
      <cc:Work
         rdf:about="">
        <dc:format>image/svg+xml</dc:format>
        <dc:type
           rdf:resource="http://purl.org/dc/dcmitype/StillImage" />
      </cc:Work>
    </rdf:RDF>
  </metadata>
  <defs
     id="defs10" />
  <sodipodi:namedview
     pagecolor="#ffffff"
     bordercolor="#666666"
     borderopacity="1"
     objecttolerance="10"
     gridtolerance="10"
     guidetolerance="10"
     inkscape:pageopacity="0"
     inkscape:pageshadow="2"
     inkscape:window-width="1920"
     inkscape:window-height="1011"
     id="namedview8"
     showgrid="false"
     inkscape:zoom="45.254834"
     inkscape:cx="20.081082"
     inkscape:cy="17.573474"
     inkscape:window-x="1920"
     inkscape:window-y="32"
     inkscape:window-maximized="1"
     inkscape:current-layer="svg6"
     inkscape:document-rotation="0" />
  <path
     id="path4237-1"
     style="font-style:normal;font-variant:normal;font-weight:normal;font-stretch:normal;font-size:15px;line-height:125%;font-family:Ubuntu;-inkscape-font-specification:Ubuntu;text-align:center;letter-spacing:0px;word-spacing:0px;writing-mode:lr-tb;text-anchor:middle;display:inline;opacity:0.7;fill:#000000;fill-opacity:1;stroke:none;stroke-width:0.999802"
     d="M 6.9941406,3 C 5.7359406,3.0145 4.81525,2.969396 4.0625,3.3847656 3.68613,3.5924256 3.3892694,3.9441525 3.2246094,4.3828125 3.0599394,4.8214825 3,5.3424 3,6 V 7.4882812 18 c 0,0.65761 0.0599,1.178577 0.2246094,1.617188 C 3.3892894,20.055799 3.68614,20.405712 4.0625,20.613281 4.81522,21.028411 5.7360406,20.98493 6.9941406,21 h 0.00195 7.1113282 c -0.123612,-0.364999 -0.07625,-0.715884 0.07867,-1.028724 -2.725167,-4.383484 1.595309,-8.483741 5.797937,-5.87811 C 20.302072,13.986304 20.656968,13.987437 21,14.109375 V 7.4667969 6 C 21,5.3424 20.9401,4.8214225 20.775391,4.3828125 20.610711,3.9442125 20.31386,3.5942786 19.9375,3.3867188 19.18473,2.9715888 18.263949,3.01508 17.005859,3 h -0.002 -10.0058591 z"
     sodipodi:nodetypes="cccscscccccccccscccccc" />
  <path
     id="path1993"
     style="opacity:1;vector-effect:none;fill:#ffffff;fill-opacity:1;stroke:none;stroke-width:1;stroke-linecap:round;stroke-linejoin:bevel;stroke-miterlimit:4;stroke-dasharray:none;stroke-dashoffset:0;stroke-opacity:1"
     d="M 11.982422 4.0273438 C 10.425841 4.0381398 6.8741697 4.0158792 5.3242188 4.0664062 C 4.8629898 4.1090743 4.3071208 4.2718432 4.1679688 4.7753906 C 3.9489748 5.4107369 4.0588664 6.1096754 4.0214844 6.7578125 C 4.0136844 9.0548971 3.9984788 16.353226 4.0429688 18.642578 C 4.0820688 19.104507 4.2459825 19.655641 4.7421875 19.806641 C 5.3746435 20.031723 6.0259044 19.929379 6.6777344 19.960938 C 8.1019694 19.967737 11.529221 19.972366 12.955078 19.972656 C 13.36964 19.972741 13.782846 19.969375 14.197266 19.96875 C 14.279945 19.807533 14.378677 19.653341 14.507812 19.515625 C 14.105595 19.087305 13.87907 18.525881 14.121094 17.939453 L 14.582031 16.826172 A 1.0001 1.0001 0 0 0 14.582031 16.824219 C 14.824683 16.238394 15.381342 16.001822 15.96875 15.982422 C 15.986864 15.397402 16.221882 14.846213 16.8125 14.601562 L 17.929688 14.138672 C 18.520262 13.894053 19.07597 14.118821 19.501953 14.519531 C 19.637506 14.392345 19.719953 14.198866 19.888672 14.128906 C 19.916996 14.117161 19.947575 14.1116 19.976562 14.101562 C 19.982577 10.892752 19.982636 7.0334502 19.947266 5.2890625 C 19.897986 4.8870223 19.778194 4.4256637 19.373047 4.2441406 C 18.704878 3.9500432 17.94581 4.0766163 17.246094 4.0390625 C 15.491687 4.0272599 13.736861 4.0262491 11.982422 4.0273438 z M 19.439453 19.365234 C 19.376513 19.391306 19.326013 19.514492 19.351562 19.576172 C 19.369032 19.618348 19.432645 19.645404 19.492188 19.65625 C 19.542591 19.619915 19.600137 19.597574 19.644531 19.550781 C 19.655224 19.515765 19.662813 19.4784 19.652344 19.453125 C 19.62726 19.392565 19.500143 19.340094 19.439453 19.365234 z " />
  <path
     inkscape:connector-curvature="0"
     style="fill:#232629"
     d="M 6,9.9999994 V 11 h 5 V 9.9999994 Z"
     id="path838" />
  <path
     style="fill:#232629"
     d="m 8,13 v 1 h 5 v -1 z"
     id="path2"
     inkscape:connector-curvature="0" />
  <path
     inkscape:connector-curvature="0"
     style="fill:#c7162b"
     d="m 6,6.9999998 v 0.9999996 h 4 V 6.9999998 Z"
     id="path834" />
  <path
     style="fill:#c7162b"
     d="M 12,9.9999994 V 11 h 2 V 9.9999994 Z"
     id="path832"
     inkscape:connector-curvature="0" />
  <path
     inkscape:connector-curvature="0"
     style="fill:#c7162b"
     d="m 6,13 v 1 h 1 v -1 z"
     id="path4" />
  <path
     id="path840"
     d="m 11,6.9999998 v 1.0000004 h 7 V 6.9999998 Z"
     style="fill:#232629;stroke-width:1.18321598"
     inkscape:connector-curvature="0" />
  <path
     inkscape:connector-curvature="0"
     style="fill:#232629;stroke-width:0.77459669"
     d="M 15,9.9999994 V 11 h 3 V 9.9999994 Z"
     id="path842" />
  <path
     id="path844"
     d="m 14,13 v 1 h 4 v -1 z"
     style="fill:#c7162b"
     inkscape:connector-curvature="0" />
  <path
     id="path846"
     d="m 6,16 v 0.999999 h 4 V 16 Z"
     style="fill:#c7162b"
     inkscape:connector-curvature="0" />
  <path
     id="path848"
     style="fill:#232629;stroke-width:1.18321598"
     d="M 11 16 L 11 17 L 14.509766 17 L 14.582031 16.826172 A 1.0001 1.0001 0 0 0 14.582031 16.824219 C 14.805932 16.283665 15.299869 16.0496 15.835938 16 L 11 16 z " />
  <g
     id="g915">
    <circle
       style="fill:#ffffff;fill-rule:evenodd;stroke:none;stroke-width:2;stroke-linecap:round;stroke-linejoin:round"
       id="path909"
       cx="19.5"
       cy="19.5"
       r="1.5" />
    <g
       id="g1425"
       transform="translate(8.0000004,8)">
      <circle
         style="fill:#ffffff;fill-opacity:1;fill-rule:evenodd;stroke:none;stroke-width:2;stroke-linecap:round;stroke-linejoin:round;stroke-miterlimit:4;stroke-dasharray:none;stroke-opacity:1"
         id="path1328"
         cx="11.5"
         cy="11.5"
         r="1.5" />
      <path
         d="m 9.3111344,7.791575 c -0.13058,0.05409 -0.188804,0.19465 -0.134715,0.325232 l 0.272166,0.657066 c -0.260199,0.195351 -0.471578,0.424352 -0.66202,0.678364 L 8.1128724,9.173184 c -0.130581,-0.05409 -0.274445,0.0055 -0.328533,0.136083 l -0.461881,1.115078 c -0.05409,0.130582 0.0055,0.274445 0.136083,0.328534 l 0.673693,0.279053 c -0.04495,0.314275 -0.05741,0.62567 -0.01156,0.947793 l -0.657066,0.272166 c -0.130581,0.05409 -0.188804,0.19465 -0.134715,0.325232 l 0.462682,1.117013 c 0.05409,0.130581 0.19465,0.188803 0.325231,0.134715 l 0.657067,-0.272166 c 0.195351,0.260198 0.424352,0.471578 0.678363,0.66202 l -0.279053,0.673693 c -0.05409,0.130583 0.0055,0.274445 0.136083,0.328533 l 1.1150786,0.461881 c 0.130582,0.05409 0.274445,-0.0055 0.328533,-0.136083 l 0.279053,-0.673693 c 0.314276,0.04495 0.625672,0.05741 0.947794,0.01156 l 0.272166,0.657067 c 0.05409,0.130582 0.19465,0.188803 0.325231,0.134715 l 1.117013,-0.462682 c 0.130582,-0.05409 0.188804,-0.19465 0.134716,-0.325231 l -0.272166,-0.657067 c 0.260198,-0.19535 0.471577,-0.424351 0.662019,-0.678363 l 0.673694,0.279053 c 0.130583,0.05409 0.274445,-0.0055 0.328533,-0.136083 l 0.461881,-1.115079 c 0.05409,-0.130583 -0.0055,-0.274445 -0.136083,-0.328533 L 14.873035,11.97334 c 0.04495,-0.314276 0.05741,-0.625672 0.01156,-0.947794 l 0.657066,-0.272166 c 0.130582,-0.05409 0.188804,-0.194649 0.134716,-0.325231 L 15.213692,9.311132 C 15.159602,9.18055 15.019042,9.122328 14.88846,9.176417 L 14.231394,9.448582 C 14.036043,9.188383 13.807042,8.977005 13.553031,8.786563 l 0.279053,-0.673694 c 0.05409,-0.130582 -0.0055,-0.274445 -0.136083,-0.328533 L 12.580922,7.322455 c -0.130583,-0.05409 -0.274445,0.0055 -0.328534,0.136083 L 11.973335,8.132232 C 11.65906,8.087282 11.347664,8.074822 11.025542,8.120672 L 10.753376,7.463606 C 10.699286,7.333024 10.558726,7.274802 10.428144,7.32889 Z m 1.7560366,2.659752 c 0.580321,-0.240377 1.246395,0.03552 1.486772,0.615841 0.240377,0.580322 -0.03552,1.246395 -0.615841,1.486772 -0.580321,0.240377 -1.246395,-0.03552 -1.486772,-0.615841 -0.240377,-0.580321 0.03552,-1.246395 0.615841,-1.486772 z"
         display="block"
         fill="url(#d)"
         stroke="url(#e)"
         stroke-linejoin="round"
         stroke-width="0.6"
         id="path42"
         style="fill:#d3d3d3;fill-opacity:1;stroke:#4d4d4d;stroke-opacity:1" />
    </g>
  </g>
</svg>
