<?xml version="1.0" encoding="UTF-8" standalone="no"?>
<svg
   xmlns:dc="http://purl.org/dc/elements/1.1/"
   xmlns:cc="http://creativecommons.org/ns#"
   xmlns:rdf="http://www.w3.org/1999/02/22-rdf-syntax-ns#"
   xmlns:svg="http://www.w3.org/2000/svg"
   xmlns="http://www.w3.org/2000/svg"
   xmlns:xlink="http://www.w3.org/1999/xlink"
   xmlns:sodipodi="http://sodipodi.sourceforge.net/DTD/sodipodi-0.dtd"
   xmlns:inkscape="http://www.inkscape.org/namespaces/inkscape"
   inkscape:version="1.0.1 (3bc2e813f5, 2020-09-07)"
   inkscape:export-ydpi="96"
   inkscape:export-xdpi="96"
   inkscape:export-filename="/home/jupiter007/Libreoffice yaru theme fullcolor/build/cmd/lc_bold.png"
   sodipodi:docname="lc_bold.svg"
   id="svg4"
   version="1.1"
   viewBox="0 0 24 24">
  <path
     id="path2007"
     style="opacity:1;fill:#ffffff;stroke:#ffffff;stroke-width:2;stroke-linejoin:round;stroke-miterlimit:4;stroke-dasharray:none"
     d="M 4,4 V 8.4550781 11 11.662109 16.294922 20 H 9.2871094 13.642578 C 16.61043,20 19,17.933295 19,15.367188 19,13.324533 17.4759,11.619043 15.361328,11 16.265745,10.289569 16.857422,9.1728895 16.857422,7.8984375 16.857422,5.738826 15.184922,4 13.107422,4 H 9.2871094 Z m 4,3 h 3 c 1.108,0 2,0.669 2,1.5 0,0.831 -0.892,1.5 -2,1.5 H 8 Z m 0,6 h 4 c 1.662,0 3,0.892 3,2 0,1.108 -1.338,2 -3,2 H 8 Z"
     inkscape:connector-curvature="0"
     sodipodi:nodetypes="cccccccsscsscccssscccssscc" />
  <path
     d="M 4,4 V 8.4550781 11 11.662109 16.294922 20 H 9.2871094 13.642578 C 16.61043,20 19,17.933295 19,15.367188 19,13.324533 17.4759,11.619043 15.361328,11 16.265745,10.289569 16.857422,9.1728895 16.857422,7.8984375 16.857422,5.738826 15.184922,4 13.107422,4 H 9.2871094 Z m 4,3 h 3 c 1.108,0 2,0.669 2,1.5 0,0.831 -0.892,1.5 -2,1.5 H 8 Z m 0,6 h 4 c 1.662,0 3,0.892 3,2 0,1.108 -1.338,2 -3,2 H 8 Z"
     style="fill:url(#linearGradient838);fill-opacity:1;stroke-width:1.0924"
     id="path1988"
     inkscape:connector-curvature="0"
     sodipodi:nodetypes="cccccccsscsscccssscccssscc" />
  <metadata
     id="metadata10">
    <rdf:RDF>
      <cc:Work
         rdf:about="">
        <dc:format>image/svg+xml</dc:format>
        <dc:type
           rdf:resource="http://purl.org/dc/dcmitype/StillImage" />
        <dc:title></dc:title>
      </cc:Work>
    </rdf:RDF>
  </metadata>
  <defs
     id="defs8">
    <linearGradient
       inkscape:collect="always"
       id="linearGradient836">
      <stop
         style="stop-color:#151515;stop-opacity:1"
         offset="0"
         id="stop832" />
      <stop
         style="stop-color:#4d4d4d;stop-opacity:1"
         offset="1"
         id="stop834" />
    </linearGradient>
    <linearGradient
       inkscape:collect="always"
       xlink:href="#linearGradient836"
       id="linearGradient838"
       x1="7"
       y1="4"
       x2="7"
       y2="20"
       gradientUnits="userSpaceOnUse" />
  </defs>
  <sodipodi:namedview
     inkscape:document-rotation="0"
     inkscape:current-layer="svg4"
     inkscape:window-maximized="1"
     inkscape:window-y="0"
     inkscape:window-x="1920"
     inkscape:cy="15.536987"
     inkscape:cx="10.868649"
     inkscape:zoom="27.812868"
     showgrid="true"
     id="namedview6"
     inkscape:window-height="1043"
     inkscape:window-width="1920"
     inkscape:pageshadow="2"
     inkscape:pageopacity="0"
     guidetolerance="10"
     gridtolerance="10"
     objecttolerance="10"
     borderopacity="1"
     bordercolor="#666666"
     pagecolor="#808080">
    <inkscape:grid
       id="grid817"
       type="xygrid" />
  </sodipodi:namedview>
</svg>
