<?xml version="1.0" encoding="UTF-8" standalone="no"?>
<svg
   xmlns:dc="http://purl.org/dc/elements/1.1/"
   xmlns:cc="http://creativecommons.org/ns#"
   xmlns:rdf="http://www.w3.org/1999/02/22-rdf-syntax-ns#"
   xmlns:svg="http://www.w3.org/2000/svg"
   xmlns="http://www.w3.org/2000/svg"
   xmlns:xlink="http://www.w3.org/1999/xlink"
   xmlns:sodipodi="http://sodipodi.sourceforge.net/DTD/sodipodi-0.dtd"
   xmlns:inkscape="http://www.inkscape.org/namespaces/inkscape"
   viewBox="0 0 24 24"
   version="1.1"
   id="svg6"
   sodipodi:docname="lc_basicstepout.svg"
   inkscape:version="1.0.1 (3bc2e813f5, 2020-09-07)"
   inkscape:export-filename="/home/jupiter007/Libreoffice yaru theme fullcolor/build/cmd/lc_basicstepout.png"
   inkscape:export-xdpi="95"
   inkscape:export-ydpi="95">
  <metadata
     id="metadata12">
    <rdf:RDF>
      <cc:Work
         rdf:about="">
        <dc:format>image/svg+xml</dc:format>
        <dc:type
           rdf:resource="http://purl.org/dc/dcmitype/StillImage" />
        <dc:title></dc:title>
      </cc:Work>
    </rdf:RDF>
  </metadata>
  <defs
     id="defs10">
    <linearGradient
       inkscape:collect="always"
       id="linearGradient840">
      <stop
         style="stop-color:#151515;stop-opacity:1"
         offset="0"
         id="stop836" />
      <stop
         style="stop-color:#4d4d4d;stop-opacity:1"
         offset="1"
         id="stop838" />
    </linearGradient>
    <linearGradient
       inkscape:collect="always"
       xlink:href="#linearGradient840"
       id="linearGradient842"
       x1="12"
       y1="7"
       x2="12"
       y2="23"
       gradientUnits="userSpaceOnUse" />
  </defs>
  <sodipodi:namedview
     pagecolor="#808080"
     bordercolor="#666666"
     borderopacity="1"
     objecttolerance="10"
     gridtolerance="10"
     guidetolerance="10"
     inkscape:pageopacity="0"
     inkscape:pageshadow="2"
     inkscape:window-width="1920"
     inkscape:window-height="1043"
     id="namedview8"
     showgrid="true"
     inkscape:zoom="19.666667"
     inkscape:cx="7.3120933"
     inkscape:cy="16.002361"
     inkscape:window-x="1920"
     inkscape:window-y="0"
     inkscape:window-maximized="1"
     inkscape:current-layer="svg6"
     inkscape:document-rotation="0">
    <inkscape:grid
       type="xygrid"
       id="grid838" />
  </sodipodi:namedview>
  <path
     inkscape:connector-curvature="0"
     style="opacity:1;fill:#000000;fill-opacity:1;stroke:#ffffff;stroke-width:2;stroke-linejoin:round;stroke-miterlimit:4;stroke-dasharray:none;stroke-opacity:1"
     d="m 17,7.0087882 c 2,0 3,1 3,3.0000008 v 3 c 0,1 1,1 2,1.5 v 0.5 0.5 c -1,0.5 -2,0.5 -2,1.5 v 3 c 0,2 -1,3 -3,3 h -1 v -2 h 1 c 1,0 1,0 1,-1 v -3 c 0,-1 0,-1 1,-2 -1,-1 -1,-1 -1,-2 v -3 C 18,9.0087882 18,9.0087882 17,9.0087882 h -1 v -2 z"
     id="path843" />
  <path
     id="path841"
     d="M 7,7 C 5,7 4,8 4,10.000001 v 3 c 0,1 -1,1 -2,1.5 v 0.5 0.5 c 1,0.5 2,0.5 2,1.5 v 3 c 0,2 1,3 3,3 h 1 v -2 H 7 c -1.0000001,0 -1.0000001,0 -1.0000001,-1 v -3 c 0,-1 0,-1 -1,-2 1,-1 1,-1 1,-2 v -3 C 5.9999999,9 5.9999999,9 7,9 H 8 V 7 Z"
     style="opacity:1;fill:#000000;fill-opacity:1;stroke:#ffffff;stroke-width:2;stroke-linejoin:round;stroke-miterlimit:4;stroke-dasharray:none;stroke-opacity:1"
     inkscape:connector-curvature="0" />
  <path
     id="rect859"
     style="opacity:1;fill:url(#linearGradient842);fill-opacity:1;stroke:none;stroke-width:2;stroke-linejoin:round;stroke-miterlimit:4;stroke-dasharray:none;stroke-opacity:1"
     d="M 7 7.0078125 C 5 7.0078125 4 8.0078117 4 10.007812 L 4 13.007812 C 4 14.007812 3 14.007812 2 14.507812 L 2 15.007812 L 2 15.507812 C 3 16.007812 4 16.007812 4 17.007812 L 4 20.007812 C 4 22.007812 5 23.007813 7 23.007812 L 8 23.007812 L 8 21.007812 L 7 21.007812 C 5.9999999 21.007812 6 21.007812 6 20.007812 L 6 17.007812 C 6 16.007812 6 16.007812 5 15.007812 C 6 14.007812 6 14.007812 6 13.007812 L 6 10.007812 C 6 9.0078117 5.9999999 9.0078125 7 9.0078125 L 8 9.0078125 L 8 7.0078125 L 7 7.0078125 z M 16 7.0078125 L 16 9.0078125 L 17 9.0078125 C 18 9.0078125 18 9.0078117 18 10.007812 L 18 13.007812 C 18 14.007812 18 14.007812 19 15.007812 C 18 16.007812 18 16.007812 18 17.007812 L 18 20.007812 C 18 21.007812 18 21.007812 17 21.007812 L 16 21.007812 L 16 23.007812 L 17 23.007812 C 19 23.007813 20 22.007812 20 20.007812 L 20 17.007812 C 20 16.007812 21 16.007812 22 15.507812 L 22 15.007812 L 22 14.507812 C 21 14.007812 20 14.007812 20 13.007812 L 20 10.007812 C 20 8.0078117 19 7.0078125 17 7.0078125 L 16 7.0078125 z " />
  <g
     id="g899"
     transform="rotate(180,20,4.999021)">
    <path
       style="fill:#e95420;fill-opacity:1;stroke:none;stroke-width:1px;stroke-linecap:butt;stroke-linejoin:miter;stroke-opacity:1"
       d="M 19.981137,7.5 24,10 23.98309,4.984743 Z"
       id="path833-7"
       inkscape:connector-curvature="0"
       sodipodi:nodetypes="cccc" />
    <path
       id="path866"
       style="color:#000000;font-style:normal;font-variant:normal;font-weight:normal;font-stretch:normal;font-size:medium;line-height:normal;font-family:sans-serif;font-variant-ligatures:normal;font-variant-position:normal;font-variant-caps:normal;font-variant-numeric:normal;font-variant-alternates:normal;font-variant-east-asian:normal;font-feature-settings:normal;font-variation-settings:normal;text-indent:0;text-align:start;text-decoration:none;text-decoration-line:none;text-decoration-style:solid;text-decoration-color:#000000;letter-spacing:normal;word-spacing:normal;text-transform:none;writing-mode:lr-tb;direction:ltr;text-orientation:mixed;dominant-baseline:auto;baseline-shift:baseline;text-anchor:start;white-space:normal;shape-padding:0;shape-margin:0;inline-size:0;clip-rule:nonzero;display:inline;overflow:visible;visibility:visible;isolation:auto;mix-blend-mode:normal;color-interpolation:sRGB;color-interpolation-filters:linearRGB;solid-color:#000000;solid-opacity:1;vector-effect:none;fill:#e95420;fill-opacity:1;fill-rule:nonzero;stroke:none;stroke-width:1px;stroke-linecap:square;stroke-linejoin:miter;stroke-miterlimit:4;stroke-dasharray:none;stroke-dashoffset:0;stroke-opacity:1;color-rendering:auto;image-rendering:auto;shape-rendering:auto;text-rendering:auto;enable-background:accumulate;stop-color:#000000"
       d="m 24.000001,7.998047 v -1 c 0.732467,-0.0016 2.345651,-0.0075 2.771484,-0.04297 0.525846,-0.04382 0.805735,-0.138969 0.927735,-0.230469 0.122,-0.0915 0.191082,-0.206312 0.24414,-0.564453 C 27.99642,5.802015 28.005356,5.249981 28,4.5 V 1 h 1 v 3.5 c 0,0.75 0.0036,1.322985 -0.06836,1.808594 -0.07194,0.485609 -0.25286,0.933297 -0.63086,1.216797 -0.378,0.2835 -0.848111,0.375851 -1.447265,0.425781 C 26.367309,7.991692 24.738942,7.996882 24,7.998042 Z"
       sodipodi:nodetypes="cccsssccscsscc" />
  </g>
</svg>
