<?xml version="1.0" encoding="UTF-8" standalone="no"?>
<svg
   viewBox="0 0 24 24"
   version="1.1"
   id="svg4"
   sodipodi:docname="lc_customshowdialog.svg"
   inkscape:export-filename="/home/jupiter007/Libreoffice yaru theme fullcolor/build/cmd/lc_customshowdialog.png"
   inkscape:export-xdpi="96"
   inkscape:export-ydpi="96"
   inkscape:version="1.1 (ce6663b3b7, 2021-05-25)"
   xmlns:inkscape="http://www.inkscape.org/namespaces/inkscape"
   xmlns:sodipodi="http://sodipodi.sourceforge.net/DTD/sodipodi-0.dtd"
   xmlns="http://www.w3.org/2000/svg"
   xmlns:svg="http://www.w3.org/2000/svg"
   xmlns:rdf="http://www.w3.org/1999/02/22-rdf-syntax-ns#"
   xmlns:cc="http://creativecommons.org/ns#"
   xmlns:dc="http://purl.org/dc/elements/1.1/">
  <metadata
     id="metadata10">
    <rdf:RDF>
      <cc:Work
         rdf:about="">
        <dc:format>image/svg+xml</dc:format>
        <dc:type
           rdf:resource="http://purl.org/dc/dcmitype/StillImage" />
      </cc:Work>
    </rdf:RDF>
  </metadata>
  <defs
     id="defs8" />
  <sodipodi:namedview
     pagecolor="#ffffff"
     bordercolor="#666666"
     borderopacity="1"
     objecttolerance="10"
     gridtolerance="10"
     guidetolerance="10"
     inkscape:pageopacity="0"
     inkscape:pageshadow="2"
     inkscape:window-width="1920"
     inkscape:window-height="1016"
     id="namedview6"
     showgrid="true"
     inkscape:zoom="27.812867"
     inkscape:cx="15.604288"
     inkscape:cy="20.152543"
     inkscape:window-x="0"
     inkscape:window-y="27"
     inkscape:window-maximized="1"
     inkscape:current-layer="svg4"
     inkscape:pagecheckerboard="0">
    <inkscape:grid
       type="xygrid"
       id="grid841" />
  </sodipodi:namedview>
  <path
     id="path826"
     style="color:#000000;fill:#000000;fill-rule:evenodd;stroke-linejoin:round;-inkscape-stroke:none;opacity:0.7"
     d="M 2 5 A 1.0001 1.0001 0 0 0 1 6 L 1 18 C 1 20.198701 2.8012994 22 5 22 L 16.410156 22 C 16.751693 21.20421 17.287546 20.519076 17.943359 20 L 5 20 C 3.8747039 20 3 19.125297 3 18 L 3 7 L 21 7 L 21 14.037109 C 21.777001 14.149974 22.473487 14.521228 23 15.060547 L 23 6 A 1.0001 1.0001 0 0 0 22 5 L 2 5 z " />
  <rect
     style="opacity:1;fill:#6d6d6d;fill-opacity:1;fill-rule:evenodd;stroke:none;stroke-width:2;stroke-linecap:butt;stroke-linejoin:round;stroke-miterlimit:4;stroke-dasharray:none;stroke-opacity:1"
     id="rect819"
     width="24"
     height="3"
     x="0"
     y="3.0000615" />
  <path
     id="rect821"
     style="opacity:1;fill:#ffffff;fill-opacity:1;fill-rule:evenodd;stroke:none;stroke-width:2;stroke-linecap:butt;stroke-linejoin:round;stroke-miterlimit:4;stroke-dasharray:none;stroke-opacity:1"
     d="M 2 6 L 2 18 C 2 19.662001 3.338 21 5 21 L 16.982422 21 C 17.275843 20.598546 17.622797 20.242481 18.011719 19.945312 C 17.389636 19.312317 17 18.449535 17 17.5 C 17 15.57885 18.57885 14 20.5 14 C 21.035688 14 21.544348 14.123094 22 14.341797 L 22 6 L 2 6 z " />
  <rect
     style="opacity:1;fill:#1a7fd4;fill-opacity:1;fill-rule:evenodd;stroke:none;stroke-width:3.65148377;stroke-linecap:butt;stroke-linejoin:round;stroke-miterlimit:4;stroke-dasharray:none;stroke-opacity:1"
     id="rect830"
     width="5"
     height="2"
     x="4"
     y="9.000061" />
  <rect
     style="opacity:1;fill:#c7162b;fill-opacity:1;fill-rule:evenodd;stroke:none;stroke-width:3.65148354;stroke-linecap:butt;stroke-linejoin:round;stroke-miterlimit:4;stroke-dasharray:none;stroke-opacity:1"
     id="rect832"
     width="5"
     height="2"
     x="4"
     y="12.000061" />
  <rect
     style="opacity:1;fill:#46a926;fill-opacity:1;fill-rule:evenodd;stroke:none;stroke-width:3.65148354;stroke-linecap:butt;stroke-linejoin:round;stroke-miterlimit:4;stroke-dasharray:none;stroke-opacity:1"
     id="rect834"
     width="5"
     height="2"
     x="4"
     y="15.000061" />
  <path
     id="path820"
     style="opacity:1;fill:#46a926;fill-opacity:1;fill-rule:evenodd;stroke:none;stroke-width:2;stroke-linecap:butt;stroke-linejoin:round;stroke-miterlimit:4;stroke-dasharray:none;stroke-opacity:1"
     d="M 15.5 9 A 4.5 4.5 0 0 0 11.341797 11.777344 A 4.5 4.5 0 0 0 12.318359 16.681641 A 4.5 4.5 0 0 0 17.007812 17.728516 C 17.002813 17.653042 17 17.576681 17 17.5 C 17 15.762418 18.290777 14.30565 19.958984 14.042969 A 4.5 4.5 0 0 0 20 13.5 L 15.5 13.5 L 15.5 9 z " />
  <path
     d="m 9.000061,-15.500001 a 4.5,4.5 0 0 1 4.5,-4.5 l 0,4.5 z"
     sodipodi:end="4.712389"
     sodipodi:start="3.1415927"
     sodipodi:ry="4.5"
     sodipodi:rx="4.5"
     sodipodi:cy="-15.500001"
     sodipodi:cx="13.500061"
     sodipodi:type="arc"
     id="path822"
     style="opacity:1;fill:#c7162b;fill-opacity:1;fill-rule:evenodd;stroke:none;stroke-width:2;stroke-linecap:butt;stroke-linejoin:round;stroke-miterlimit:4;stroke-dasharray:none;stroke-opacity:1"
     transform="rotate(90)" />
  <path
     style="opacity:1;fill:#e95420;fill-opacity:1;fill-rule:evenodd;stroke:none;stroke-width:2;stroke-linecap:butt;stroke-linejoin:round;stroke-miterlimit:4;stroke-dasharray:none;stroke-opacity:1"
     d="m 20.5,15 a 2.5,2.5 0 0 0 -2.5,2.5 2.5,2.5 0 0 0 2.5,2.5 2.5,2.5 0 0 0 2.5,-2.5 2.5,2.5 0 0 0 -2.5,-2.5 z m 0,5 a 3.5,4 0 0 0 -3.5,4 h 7 a 3.5,4 0 0 0 -3.5,-4 z"
     id="path843" />
</svg>
