<?xml version="1.0" encoding="UTF-8" standalone="no"?>
<svg
   xmlns:dc="http://purl.org/dc/elements/1.1/"
   xmlns:cc="http://creativecommons.org/ns#"
   xmlns:rdf="http://www.w3.org/1999/02/22-rdf-syntax-ns#"
   xmlns:svg="http://www.w3.org/2000/svg"
   xmlns="http://www.w3.org/2000/svg"
   xmlns:xlink="http://www.w3.org/1999/xlink"
   xmlns:sodipodi="http://sodipodi.sourceforge.net/DTD/sodipodi-0.dtd"
   xmlns:inkscape="http://www.inkscape.org/namespaces/inkscape"
   viewBox="0 0 24 24"
   version="1.1"
   id="svg6"
   sodipodi:docname="lc_changecasetoupper.svg"
   inkscape:export-filename="/home/jupiter007/Libreoffice yaru theme fullcolor/build/cmd/lc_changecasetoupper.png"
   inkscape:export-xdpi="96"
   inkscape:export-ydpi="96"
   inkscape:version="1.0.1 (3bc2e813f5, 2020-09-07)">
  <metadata
     id="metadata12">
    <rdf:RDF>
      <cc:Work
         rdf:about="">
        <dc:format>image/svg+xml</dc:format>
        <dc:type
           rdf:resource="http://purl.org/dc/dcmitype/StillImage" />
        <dc:title></dc:title>
      </cc:Work>
    </rdf:RDF>
  </metadata>
  <defs
     id="defs10">
    <linearGradient
       inkscape:collect="always"
       id="linearGradient848">
      <stop
         style="stop-color:#151515;stop-opacity:1"
         offset="0"
         id="stop844" />
      <stop
         style="stop-color:#4d4d4d;stop-opacity:1"
         offset="1"
         id="stop846" />
    </linearGradient>
    <linearGradient
       inkscape:collect="always"
       xlink:href="#linearGradient848"
       id="linearGradient842"
       x1="12"
       y1="9"
       x2="12"
       y2="21"
       gradientUnits="userSpaceOnUse" />
  </defs>
  <sodipodi:namedview
     pagecolor="#808080"
     bordercolor="#666666"
     borderopacity="1"
     objecttolerance="10"
     gridtolerance="10"
     guidetolerance="10"
     inkscape:pageopacity="0"
     inkscape:pageshadow="2"
     inkscape:window-width="1920"
     inkscape:window-height="1043"
     id="namedview8"
     showgrid="true"
     inkscape:zoom="45.254834"
     inkscape:cx="13.697905"
     inkscape:cy="14.365774"
     inkscape:window-x="1920"
     inkscape:window-y="0"
     inkscape:window-maximized="1"
     inkscape:current-layer="svg6"
     inkscape:document-rotation="0">
    <inkscape:grid
       type="xygrid"
       id="grid867" />
  </sodipodi:namedview>
  <path
     style="opacity:1;fill:#000000;stroke:#ffffff;stroke-width:2;stroke-linejoin:round;stroke-miterlimit:4;stroke-dasharray:none"
     d="M 6.0585938,9 1.8847657,21 h 1.0078125 1 l 1,-3 h 4.3378906 l 1.0000002,3 h 0.855469 0.144531 1 L 8,9 H 7.8925782 6.2304688 Z m 7.0000002,0 v 12 h 1 5 c 1.932997,0 3.5,-1.567003 3.5,-3.5 C 22.557071,15.979131 21.573556,14.633311 20.125,14.169922 20.719856,13.604729 21.057245,12.820546 21.058594,12 c 0,-1.656854 -1.343146,-3 -3,-3 h -4 z M 15,11 h 2.666016 C 18.40265,10.999596 19,11.671287 19,12.5 19,13.328713 18.40265,14.000404 17.666016,14 H 15 Z M 7.0625,11.492188 8.5644532,16 H 5.5605469 Z M 15,16 h 3.666016 C 19.678792,15.999706 20.5,16.671365 20.5,17.5 c 0,0.828635 -0.821208,1.500294 -1.833984,1.5 H 15 Z"
     id="path893"
     inkscape:connector-curvature="0"
     sodipodi:nodetypes="cccccccccccccccccscccsccccscccccccccsccc" />
  <path
     id="path881"
     style="fill:url(#linearGradient842);fill-opacity:1"
     d="M 6.0585938,9 1.8847656,21 h 1.0078125 1 l 1,-3 h 4.3378907 l 1.0000002,3 h 0.855469 0.144531 1 L 8,9 H 7.8925781 6.2304688 Z M 13,9 v 12 h 1.058594 5 c 1.932997,0 3.5,-1.567003 3.5,-3.5 C 22.557071,15.979131 21.573556,14.633311 20.125,14.169922 20.719856,13.604729 21.057245,12.820546 21.058594,12 c 0,-1.656854 -1.343146,-3 -3,-3 h -4 z m 2,2 h 2.666016 C 18.40265,10.999596 19,11.671287 19,12.5 19,13.328713 18.40265,14.000404 17.666016,14 H 15 Z M 7.0625,11.492188 8.5644531,16 H 5.5605469 Z M 15,16 h 3.666016 C 19.678792,15.999706 20.5,16.671365 20.5,17.5 c 0,0.828635 -0.821208,1.500294 -1.833984,1.5 H 15 Z"
     sodipodi:nodetypes="cccccccccccccccccscccsccccscccccccccsccc" />
  <path
     d="m 15,5.9999333 3,-4 3,4 z"
     id="path4"
     inkscape:connector-curvature="0"
     style="fill:#00ff00;fill-opacity:1" />
</svg>
