<?xml version="1.0" encoding="UTF-8" standalone="no"?>
<svg
   xmlns:dc="http://purl.org/dc/elements/1.1/"
   xmlns:cc="http://creativecommons.org/ns#"
   xmlns:rdf="http://www.w3.org/1999/02/22-rdf-syntax-ns#"
   xmlns:svg="http://www.w3.org/2000/svg"
   xmlns="http://www.w3.org/2000/svg"
   xmlns:sodipodi="http://sodipodi.sourceforge.net/DTD/sodipodi-0.dtd"
   xmlns:inkscape="http://www.inkscape.org/namespaces/inkscape"
   viewBox="0 0 24 24"
   version="1.1"
   id="svg4"
   sodipodi:docname="lc_diagramarea.svg"
   inkscape:export-filename="/home/jupiter007/Libreoffice yaru theme fullcolor/build/cmd/lc_diagramwall.png"
   inkscape:export-xdpi="96"
   inkscape:export-ydpi="96"
   inkscape:version="1.0.1 (3bc2e813f5, 2020-09-07)">
  <metadata
     id="metadata10">
    <rdf:RDF>
      <cc:Work
         rdf:about="">
        <dc:format>image/svg+xml</dc:format>
        <dc:type
           rdf:resource="http://purl.org/dc/dcmitype/StillImage" />
        <dc:title></dc:title>
      </cc:Work>
    </rdf:RDF>
  </metadata>
  <defs
     id="defs8" />
  <sodipodi:namedview
     pagecolor="#ffffff"
     bordercolor="#666666"
     borderopacity="1"
     objecttolerance="10"
     gridtolerance="10"
     guidetolerance="10"
     inkscape:pageopacity="0"
     inkscape:pageshadow="2"
     inkscape:window-width="1920"
     inkscape:window-height="1016"
     id="namedview6"
     showgrid="true"
     inkscape:zoom="27.812868"
     inkscape:cx="15.054297"
     inkscape:cy="13.23942"
     inkscape:window-x="0"
     inkscape:window-y="27"
     inkscape:window-maximized="1"
     inkscape:current-layer="svg4"
     inkscape:document-rotation="0">
    <inkscape:grid
       type="xygrid"
       id="grid855" />
  </sodipodi:namedview>
  <path
     sodipodi:nodetypes="cccscsccccccccscscccccc"
     inkscape:connector-curvature="0"
     id="path4237-1-7"
     d="M 6.002641,3 C 4.744441,3.0145 3.82375,2.969396 3.0710001,3.3847656 2.6946301,3.5924256 2.397769,3.9441525 2.233109,4.3828125 2.068439,4.8214825 2.0085,5.3424 2.0085,6 V 7.4882811 18.000001 c 0,0.657609 0.0599,1.178577 0.224609,1.617188 0.16468,0.438611 0.461531,0.788523 0.8378911,0.996092 C 3.8237201,21.028412 4.744541,20.984931 6.002641,21 h 0.002 11.988809 0.0039 c 1.25819,-0.0145 2.178891,0.0306 2.931641,-0.384766 0.37637,-0.20766 0.673221,-0.559386 0.837891,-0.998045 C 21.931421,19.178518 21.9915,18.65761 21.9915,18.000001 V 7.4667971 6 c 0,-0.6576 -0.0599,-1.1785775 -0.224609,-1.6171875 C 21.602211,3.9442125 21.30536,3.5942787 20.929,3.3867188 20.17623,2.9715888 19.255399,3.01508 17.997309,3 h -0.002 -11.9888091 z"
     style="font-style:normal;font-variant:normal;font-weight:normal;font-stretch:normal;font-size:15px;line-height:125%;font-family:Ubuntu;-inkscape-font-specification:Ubuntu;text-align:center;letter-spacing:0px;word-spacing:0px;writing-mode:lr-tb;text-anchor:middle;display:inline;opacity:0.7;fill:#000000;fill-opacity:1;stroke:none;stroke-width:0.999802" />
  <path
     id="rect3830-5"
     style="opacity:1;vector-effect:none;fill:#ffffff;fill-opacity:1;stroke:none;stroke-width:3;stroke-linecap:round;stroke-linejoin:round;stroke-miterlimit:4;stroke-dasharray:none;stroke-dashoffset:0;stroke-opacity:1"
     d="M 9 4 C 7.99841 4.00695 6.998888 4.0059799 6 4.0136719 C 5.446507 4.0179313 4.8924707 4.0210474 4.3398438 4.0390625 C 3.8786157 4.0817305 3.3246979 4.2444995 3.1855469 4.7480469 C 3.0468499 5.1504341 3.0366316 5.5758044 3.0410156 6 C 3.0435526 6.245585 3.0527705 6.4928196 3.0390625 6.7304688 C 3.0356065 7.7484605 3.031768 9.8886029 3.03125 12 C 3.03066 14.405484 3.0372196 16.594998 3.0566406 18 C 3.0586406 18.144537 3.0582369 18.498278 3.0605469 18.617188 C 3.0996469 19.079117 3.2635616 19.628296 3.7597656 19.779297 C 4.3922226 20.004379 5.0434845 19.902035 5.6953125 19.933594 C 5.7644635 19.933924 5.921868 19.933276 6 19.933594 C 7.531083 19.939794 10.614075 19.945033 11.970703 19.945312 C 11.977703 19.945314 11.9929 19.945311 12 19.945312 C 13.452802 19.94557 16.130161 19.939008 18 19.929688 C 18.335986 19.927988 18.820434 19.92983 19.078125 19.927734 C 19.590036 19.915724 20.263016 19.946604 20.664062 19.521484 C 20.889553 19.23244 20.952273 18.620319 20.970703 18 C 20.986693 17.461889 20.969753 16.914465 20.986328 16.619141 C 20.991128 15.625188 20.994594 13.783395 20.996094 12 C 20.997994 9.6828159 20.99059 7.5504782 20.96875 6 C 20.96605 5.8092076 20.968062 5.4207264 20.964844 5.2617188 C 20.915574 4.8596774 20.793819 4.39832 20.388672 4.2167969 C 19.720503 3.9226995 18.963388 4.0492725 18.263672 4.0117188 C 18.213732 4.0113828 18.056232 4.0120368 18 4.0117188 C 16.7204 4.0044787 14.270939 4.0045762 12 4.0039062 C 10.864531 4.0035709 9.568167 3.99965 9 4 z " />
  <path
     id="path854"
     style="opacity:0.7;fill:#000000;fill-opacity:1;fill-rule:evenodd;stroke:#000000;stroke-width:2;stroke-linecap:round;stroke-linejoin:round;stroke-miterlimit:4;stroke-dasharray:none;stroke-opacity:1"
     d="m 17.494141,4.544922 -4.949219,4.949218 4.242187,4.242188 c 1.414213,1.414214 2.120942,0.707183 3.535157,-0.707031 l 0.707031,-0.707031 c 1.414215,-1.414215 2.121244,-2.120942 0.707031,-3.535157 z M 11,6 c -0.554,0 -1,0.445999 -1,1 v 1 3 2 c 0,0.554 0.446001,1 1,1 0.554,0 1,-0.446 1,-1 V 11 9.742187 C 11.749421,9.347114 11.806213,8.831117 12.136719,8.5 l 2.5,-2.5 h -0.414063 z" />
  <path
     style="opacity:1;fill:#ffffff;fill-opacity:1;fill-rule:evenodd;stroke:none;stroke-width:1;stroke-linecap:round;stroke-linejoin:round;stroke-miterlimit:4;stroke-dasharray:none;stroke-opacity:1"
     d="m 12.543972,9.493719 4.949747,-4.949747 4.242641,4.24264 c 1.414213,1.414215 0.707107,2.121322 -0.707108,3.535536 l -0.707104,0.707107 c -1.414215,1.414214 -2.121322,2.121321 -3.535535,0.707107 z"
     id="rect830"
     inkscape:connector-curvature="0"
     sodipodi:nodetypes="ccccccc" />
  <circle
     style="opacity:0.7;fill:#000000;fill-opacity:1;fill-rule:evenodd;stroke:#000000;stroke-width:2;stroke-linecap:round;stroke-linejoin:round;stroke-miterlimit:4;stroke-dasharray:none;stroke-opacity:1"
     id="path837"
     cx="5.6568542"
     cy="19.082998"
     r="0.5"
     transform="rotate(-45)" />
  <circle
     style="opacity:1;fill:#ffffff;fill-opacity:1;fill-rule:evenodd;stroke:none;stroke-width:2;stroke-linecap:round;stroke-linejoin:round;stroke-miterlimit:4;stroke-dasharray:none;stroke-opacity:1"
     id="path839"
     cx="5.6568542"
     cy="19.082998"
     r="0.5"
     transform="rotate(-45)" />
  <path
     style="opacity:1;fill:#aee3f8;fill-opacity:1;fill-rule:evenodd;stroke:none;stroke-width:2;stroke-linecap:round;stroke-linejoin:round;stroke-miterlimit:4;stroke-dasharray:none;stroke-opacity:1"
     d="m 11,6 c -0.554,0 -1,0.445999 -1,1 v 1 3 2 c 0,0.554 0.446001,1 1,1 0.554,0 1,-0.446 1,-1 V 11 9.742188 C 11.749421,9.347115 11.806213,8.831117 12.136719,8.5 l 2.5,-2.5 h -0.414063 z"
     id="rect862"
     inkscape:connector-curvature="0"
     sodipodi:nodetypes="ssccssscccccs" />
  <path
     style="opacity:1;fill:#6d6d6d;fill-opacity:1;fill-rule:evenodd;stroke:none;stroke-width:1;stroke-linecap:round;stroke-linejoin:round;stroke-miterlimit:4;stroke-dasharray:none;stroke-opacity:1"
     d="M 19.5,2 A 2.5,2 0 0 0 17,4 v 4.085937 c 0.323654,-0.110501 0.677178,-0.109401 1,0.0039 V 4 A 1.5,1 0 0 1 19.5,3 1.5,1 0 0 1 21,4 v 2.634765 l 1,1.001954 V 4 A 2.5,2 0 0 0 19.5,2 Z"
     id="rect846" />
</svg>
