<?xml version="1.0" encoding="UTF-8" standalone="no"?>
<svg
   viewBox="0 0 24 24"
   version="1.1"
   id="svg6"
   sodipodi:docname="lc_dsbinsertcontent.svg"
   inkscape:version="1.1.1 (eb90963e84, 2021-10-02)"
   inkscape:export-filename="/home/jupiter007/Libreoffice yaru theme fullcolor/build/cmd/lc_dsbinsertcontent.png"
   inkscape:export-xdpi="96"
   inkscape:export-ydpi="96"
   xmlns:inkscape="http://www.inkscape.org/namespaces/inkscape"
   xmlns:sodipodi="http://sodipodi.sourceforge.net/DTD/sodipodi-0.dtd"
   xmlns="http://www.w3.org/2000/svg"
   xmlns:svg="http://www.w3.org/2000/svg"
   xmlns:rdf="http://www.w3.org/1999/02/22-rdf-syntax-ns#"
   xmlns:cc="http://creativecommons.org/ns#"
   xmlns:dc="http://purl.org/dc/elements/1.1/">
  <metadata
     id="metadata12">
    <rdf:RDF>
      <cc:Work
         rdf:about="">
        <dc:format>image/svg+xml</dc:format>
        <dc:type
           rdf:resource="http://purl.org/dc/dcmitype/StillImage" />
      </cc:Work>
    </rdf:RDF>
  </metadata>
  <defs
     id="defs10" />
  <sodipodi:namedview
     pagecolor="#ffffff"
     bordercolor="#666666"
     borderopacity="1"
     objecttolerance="10"
     gridtolerance="10"
     guidetolerance="10"
     inkscape:pageopacity="0"
     inkscape:pageshadow="2"
     inkscape:window-width="1920"
     inkscape:window-height="1016"
     id="namedview8"
     showgrid="true"
     inkscape:zoom="27.812867"
     inkscape:cx="12.242535"
     inkscape:cy="13.752628"
     inkscape:window-x="0"
     inkscape:window-y="27"
     inkscape:window-maximized="1"
     inkscape:current-layer="svg6"
     inkscape:pagecheckerboard="0">
    <inkscape:grid
       type="xygrid"
       id="grid848" />
  </sodipodi:namedview>
  <path
     id="path819"
     style="fill:#f2cbf8;fill-opacity:1"
     d="M 12 4 C 7.581722 4 4 4.8954258 4 6 L 4 10 L 4 18 C 4 19.1046 7.5817219 20 12 20 L 12 15 A 1.0001 1.0001 0 0 1 13 14 L 16 14 A 1.0001 1.0001 0 0 1 17 15 L 17 16 L 18 16 L 18 15 A 1.0001 1.0001 0 0 1 19 14 L 20 14 L 20 10 L 20 6 C 20 4.8954258 16.418278 4 12 4 z M 16 18 L 16 19 L 18.921875 19 C 18.947052 18.989131 18.975623 18.977794 19 18.966797 L 19 18 L 16 18 z " />
  <path
     id="path2"
     style="fill:#8e03a3;fill-opacity:1"
     d="M 12 4 C 7.581722 4 4 4.8954258 4 6 L 4 10 L 4 18 C 4 19.1046 7.5817219 20 12 20 L 12 19 C 8.134007 19 5 18.5523 5 18 L 5 14.9375 C 6.3529559 15.562421 8.958076 16 12 16 L 12 15 C 8.134007 15 5 14.5523 5 14 L 5 10.9375 C 6.3529559 11.562421 8.958076 12 12 12 C 15.041924 12 17.647043 11.562421 19 10.9375 L 19 14 L 20 14 L 20 10 L 20 6 C 20 4.8954258 16.418278 4 12 4 z M 12 5 C 15.865993 5 19 5.4477153 19 6 C 19 6.5522847 15.865993 7 12 7 C 8.134007 7 5 6.5522847 5 6 C 5 5.4477153 8.134007 5 12 5 z M 5 6.9375 C 6.3529559 7.5624199 8.958076 8 12 8 C 15.041924 8 17.647043 7.5624199 19 6.9375 L 19 10 C 19 10.5523 15.865993 11 12 11 C 8.134007 11 5 10.5523 5 10 L 5 9.0625 L 5 6.9375 z M 18.173828 14.470703 C 17.845545 14.558373 17.430102 14.637424 16.941406 14.707031 A 1.0001 1.0001 0 0 1 17 15 L 17 15.546875 C 17.361666 15.472063 17.694471 15.388021 18 15.298828 L 18 15 A 1.0001 1.0001 0 0 1 18.173828 14.470703 z M 19 18 C 19 18.339682 17.812144 18.639584 16 18.820312 L 16 19 L 18.927734 19 C 18.951827 18.98959 18.976641 18.979277 19 18.96875 L 19 18 z " />
  <path
     d="m 15,17 v 3 h 5 v -3 z"
     id="path4-3"
     inkscape:connector-curvature="0"
     style="fill:#00ffff;fill-opacity:1.0" />
  <path
     style="fill:#00ffff;fill-opacity:1.0;stroke:none;stroke-width:1px;stroke-linecap:butt;stroke-linejoin:miter;stroke-opacity:1"
     d="m 19,15 h 3 v 7 h -3 v -1 h 2 v -5 h -2 z"
     id="path850"
     inkscape:connector-curvature="0" />
  <path
     inkscape:connector-curvature="0"
     id="path858"
     d="m 16,15 h -3 v 7 h 3 v -1 h -2 v -5 h 2 z"
     style="fill:#00ffff;fill-opacity:1.0;stroke:none;stroke-width:1px;stroke-linecap:butt;stroke-linejoin:miter;stroke-opacity:1" />
</svg>
