<?xml version="1.0" encoding="UTF-8" standalone="no"?>
<svg
   viewBox="0 0 24 24"
   version="1.1"
   id="svg4"
   sodipodi:docname="lc_diaeffect.svg"
   inkscape:export-filename="/home/jupiter007/Libreoffice yaru theme fullcolor/build/cmd/lc_diaeffect.png"
   inkscape:export-xdpi="96"
   inkscape:export-ydpi="96"
   inkscape:version="1.1.2 (76b9e6a115, 2022-02-25)"
   xmlns:inkscape="http://www.inkscape.org/namespaces/inkscape"
   xmlns:sodipodi="http://sodipodi.sourceforge.net/DTD/sodipodi-0.dtd"
   xmlns="http://www.w3.org/2000/svg"
   xmlns:svg="http://www.w3.org/2000/svg"
   xmlns:rdf="http://www.w3.org/1999/02/22-rdf-syntax-ns#"
   xmlns:cc="http://creativecommons.org/ns#"
   xmlns:dc="http://purl.org/dc/elements/1.1/">
  <metadata
     id="metadata10">
    <rdf:RDF>
      <cc:Work
         rdf:about="">
        <dc:format>image/svg+xml</dc:format>
        <dc:type
           rdf:resource="http://purl.org/dc/dcmitype/StillImage" />
      </cc:Work>
    </rdf:RDF>
  </metadata>
  <defs
     id="defs8" />
  <sodipodi:namedview
     pagecolor="#ffffff"
     bordercolor="#666666"
     borderopacity="1"
     objecttolerance="10"
     gridtolerance="10"
     guidetolerance="10"
     inkscape:pageopacity="0"
     inkscape:pageshadow="2"
     inkscape:window-width="1920"
     inkscape:window-height="1043"
     id="namedview6"
     showgrid="true"
     inkscape:zoom="9.8333333"
     inkscape:cx="42.966102"
     inkscape:cy="1.220339"
     inkscape:window-x="1920"
     inkscape:window-y="0"
     inkscape:window-maximized="1"
     inkscape:current-layer="svg4"
     inkscape:pagecheckerboard="0">
    <inkscape:grid
       type="xygrid"
       id="grid830" />
  </sodipodi:namedview>
  <path
     id="path1131"
     style="color:#000000;opacity:0.7;fill:#000000;fill-rule:evenodd;stroke-width:2;stroke-linejoin:round;-inkscape-stroke:none"
     d="M 14.808594 5 C 15.228932 5.7141378 14.638481 6.6166713 13.800781 6.4921875 L 11.826172 6.2011719 L 10.644531 7.6933594 C 10.464208 7.834717 10.240815 7.90987 10.011719 7.90625 C 9.9566341 8.2449272 9.7317708 8.5317203 9.4160156 8.6660156 L 8.3808594 9.015625 L 8.1777344 10.027344 C 8.0076519 10.87683 6.911455 11.122963 6.3945312 10.427734 L 5.7421875 9.5507812 L 4.7207031 9.6699219 C 4.3385963 9.7084405 3.9681826 9.5247517 3.7675781 9.1972656 L 3.8632812 9.4414062 C 4.1766236 10.250272 3.3820746 11.047225 2.5722656 10.736328 L 1.9902344 10.513672 L 1.5410156 10.878906 C 1.3736467 11.01467 1.1869063 11.085657 1 11.101562 L 1 18 C 1 20.198701 2.8012994 22 5 22 L 19 22 C 21.198701 22 23 20.198701 23 18 L 23 6 A 1.0001 1.0001 0 0 0 22 5 L 14.808594 5 z M 1.234375 5.3789062 A 1.0001 1.0001 0 0 0 1.0058594 5.9746094 C 1.0689718 5.9427627 1.1344902 5.9146986 1.2050781 5.8964844 L 1.3671875 5.6699219 L 1.234375 5.3789062 z M 3.7597656 8.7675781 L 3.6523438 8.9003906 L 3.7460938 9.140625 C 3.7271978 9.01652 3.7318356 8.8899669 3.7597656 8.7675781 z " />
  <path
     id="rect819"
     style="opacity:1;fill:#6d6d6d;fill-opacity:1;fill-rule:evenodd;stroke:none;stroke-width:2;stroke-linecap:butt;stroke-linejoin:round;stroke-miterlimit:4;stroke-dasharray:none;stroke-opacity:1"
     d="M 0 3 L 0 6 L 0.95898438 6 C 1.0353559 5.9561894 1.1167003 5.919289 1.2050781 5.8964844 L 1.3671875 5.6699219 L 1.1484375 5.1894531 C 0.78697916 4.4016174 1.530539 3.5583557 2.3574219 3.8183594 L 2.8984375 3.9882812 L 3.2851562 3.6328125 L 3.1582031 3.921875 C 3.3688705 3.6225703 3.7262104 3.4622542 4.0898438 3.5039062 L 4.2578125 3.265625 L 4.1367188 3 L 0 3 z M 13.904297 3 L 13.724609 3.3632812 L 14.779297 4.9472656 C 15.011201 5.2942814 14.990234 5.6923216 14.8125 6 L 24 6 L 24 3 L 13.904297 3 z M 2.9785156 4.3300781 L 2.9667969 4.3574219 L 2.96875 4.359375 C 2.97186 4.34956 2.9751056 4.3397881 2.9785156 4.3300781 z " />
  <path
     id="rect821"
     style="opacity:1;fill:#ffffff;fill-opacity:1;fill-rule:evenodd;stroke:none;stroke-width:2;stroke-linecap:butt;stroke-linejoin:round;stroke-miterlimit:4;stroke-dasharray:none;stroke-opacity:1"
     d="M 14.8125 6 C 14.620744 6.3319524 14.246191 6.5583762 13.800781 6.4921875 L 11.826172 6.2011719 L 10.644531 7.6933594 C 10.464208 7.834717 10.240815 7.90987 10.011719 7.90625 C 9.9566341 8.2449272 9.7317708 8.5317203 9.4160156 8.6660156 L 8.3808594 9.015625 L 8.1777344 10.027344 C 8.0076519 10.87683 6.911455 11.122963 6.3945312 10.427734 L 5.7421875 9.5507812 L 4.7207031 9.6699219 C 4.3385963 9.7084405 3.9681826 9.5247517 3.7675781 9.1972656 L 3.8632812 9.4414062 C 4.1766236 10.250272 3.3820746 11.047225 2.5722656 10.736328 L 2 10.517578 L 2 18 C 2 19.662 3.338 21 5 21 L 19 21 C 20.662 21 22 19.662 22 18 L 22 6 L 14.8125 6 z M 3.7597656 8.7675781 L 3.6523438 8.9003906 L 3.7460938 9.140625 C 3.7271978 9.01652 3.7318356 8.8899669 3.7597656 8.7675781 z " />
  <rect
     style="opacity:1;fill:#1a7fd4;fill-opacity:1;fill-rule:evenodd;stroke:none;stroke-width:3.65148377;stroke-linecap:butt;stroke-linejoin:round;stroke-miterlimit:4;stroke-dasharray:none;stroke-opacity:1"
     id="rect830"
     width="5"
     height="2"
     x="4"
     y="9.000061" />
  <rect
     style="opacity:1;fill:#c7162b;fill-opacity:1;fill-rule:evenodd;stroke:none;stroke-width:3.65148354;stroke-linecap:butt;stroke-linejoin:round;stroke-miterlimit:4;stroke-dasharray:none;stroke-opacity:1"
     id="rect832"
     width="5"
     height="2"
     x="4"
     y="12.000061" />
  <rect
     style="opacity:1;fill:#46a926;fill-opacity:1;fill-rule:evenodd;stroke:none;stroke-width:3.65148354;stroke-linecap:butt;stroke-linejoin:round;stroke-miterlimit:4;stroke-dasharray:none;stroke-opacity:1"
     id="rect834"
     width="5"
     height="2"
     x="4"
     y="15.000061" />
  <path
     style="opacity:1;fill:#46a926;fill-opacity:1;fill-rule:evenodd;stroke:none;stroke-width:2;stroke-linecap:butt;stroke-linejoin:round;stroke-miterlimit:4;stroke-dasharray:none;stroke-opacity:1"
     id="path820"
     sodipodi:type="arc"
     sodipodi:cx="15.5"
     sodipodi:cy="13.500061"
     sodipodi:rx="4.5"
     sodipodi:ry="4.5"
     sodipodi:start="0"
     sodipodi:end="4.712389"
     d="M 20,13.500061 A 4.5,4.5 0 0 1 17.222075,17.657519 4.5,4.5 0 0 1 12.318019,16.682042 4.5,4.5 0 0 1 11.342542,11.777986 4.5,4.5 0 0 1 15.5,9.000061 l 0,4.5 z" />
  <path
     d="m 9.000061,-15.5 a 4.5,4.5 0 0 1 4.5,-4.5 l 0,4.5 z"
     sodipodi:end="4.712389"
     sodipodi:start="3.1415927"
     sodipodi:ry="4.5"
     sodipodi:rx="4.5"
     sodipodi:cy="-15.5"
     sodipodi:cx="13.500061"
     sodipodi:type="arc"
     id="path822"
     style="opacity:1;fill:#c7162b;fill-opacity:1;fill-rule:evenodd;stroke:none;stroke-width:2;stroke-linecap:butt;stroke-linejoin:round;stroke-miterlimit:4;stroke-dasharray:none;stroke-opacity:1"
     transform="rotate(90)" />
  <path
     inkscape:connector-curvature="0"
     d="m 9.486,0 -0.1,2.4799999 -1.5970002,0.8340001 -0.5,-0.2800001 -0.02,-1.477 -1.043,0.963 -1.4109997,-0.44 0.5929997,1.293 -0.8549997,1.205 1.4139997,-0.164 0.883,1.186 0.28,-1.397 0.737,-0.25 1.5630002,0.58 0.43,2.5400001 1.54,-1.946 2.547,0.375 -1.375,-2.066 1.143,-2.306 -2.387,0.67 z m -5.5229999,4.3669999 -0.813,0.75 -1.093,-0.344 0.46,1.006 -0.663,0.933 1.097,-0.127 0.685,0.9200001 0.217,-1.084 1.087,-0.365 -0.963,-0.54 -0.014,-1.15 z m 3.7129997,0.893 -1.184,1.09 -1.5959997,-0.498 0.6719997,1.4620001 -0.9639997,1.362 1.5959997,-0.186 0.997,1.3399996 0.317,-1.5779996 1.5840002,-0.533 -1.4050002,-0.79 -0.017,-1.67 z m -6.2199997,1.5860001 -0.298,1.12 -1.1580001,0.309 0.9700001,0.628 -0.06,1.2 0.897,-0.7300005 1.123,0.43 -0.418,-1.0799996 0.754,-0.935 -1.155,0.064 -0.655,-1.008 z"
     id="path36"
     style="fill:#00ffff;fill-opacity:1" />
</svg>
