<?xml version="1.0" encoding="UTF-8" standalone="no"?>
<svg
   viewBox="0 0 24 24"
   version="1.1"
   id="svg4"
   sodipodi:docname="lc_diaspeed.svg"
   inkscape:export-filename="/home/jupiter007/Libreoffice yaru theme fullcolor/build/cmd/lc_diaspeed.png"
   inkscape:export-xdpi="96"
   inkscape:export-ydpi="96"
   inkscape:version="1.1 (ce6663b3b7, 2021-05-25)"
   xmlns:inkscape="http://www.inkscape.org/namespaces/inkscape"
   xmlns:sodipodi="http://sodipodi.sourceforge.net/DTD/sodipodi-0.dtd"
   xmlns="http://www.w3.org/2000/svg"
   xmlns:svg="http://www.w3.org/2000/svg"
   xmlns:rdf="http://www.w3.org/1999/02/22-rdf-syntax-ns#"
   xmlns:cc="http://creativecommons.org/ns#"
   xmlns:dc="http://purl.org/dc/elements/1.1/">
  <metadata
     id="metadata10">
    <rdf:RDF>
      <cc:Work
         rdf:about="">
        <dc:format>image/svg+xml</dc:format>
        <dc:type
           rdf:resource="http://purl.org/dc/dcmitype/StillImage" />
      </cc:Work>
    </rdf:RDF>
  </metadata>
  <defs
     id="defs8" />
  <sodipodi:namedview
     pagecolor="#ffffff"
     bordercolor="#666666"
     borderopacity="1"
     objecttolerance="10"
     gridtolerance="10"
     guidetolerance="10"
     inkscape:pageopacity="0"
     inkscape:pageshadow="2"
     inkscape:window-width="1920"
     inkscape:window-height="1016"
     id="namedview6"
     showgrid="true"
     inkscape:zoom="39.333334"
     inkscape:cx="15.050847"
     inkscape:cy="16.131356"
     inkscape:window-x="0"
     inkscape:window-y="27"
     inkscape:window-maximized="1"
     inkscape:current-layer="svg4"
     inkscape:pagecheckerboard="0">
    <inkscape:grid
       type="xygrid"
       id="grid841" />
  </sodipodi:namedview>
  <path
     id="path826"
     style="color:#000000;opacity:0.7;fill:#000000;fill-rule:evenodd;stroke-linejoin:round;-inkscape-stroke:none"
     d="m 2,5 c -0.5522619,5.52e-5 -0.9999448,0.4477381 -1,1 v 12 c 0,2.198701 1.8012994,4 4,4 h 5 v -1 l -1,-2 -4,1 c -1.0916976,0.272924 -2,-0.874704 -2,-2 v -11 h 18 v 8.882812 l 2,2 v -11.882812 c -5.5e-5,-0.5522619 -0.447738,-0.9999448 -1,-1 z"
     sodipodi:nodetypes="ccsscccssccccccc" />
  <rect
     style="opacity:1;fill:#6d6d6d;fill-opacity:1;fill-rule:evenodd;stroke:none;stroke-width:2;stroke-linecap:butt;stroke-linejoin:round;stroke-miterlimit:4;stroke-dasharray:none;stroke-opacity:1"
     id="rect819"
     width="24"
     height="3"
     x="0"
     y="3.0000615" />
  <path
     id="rect821"
     style="opacity:1;fill:#ffffff;fill-opacity:1;fill-rule:evenodd;stroke:none;stroke-width:2;stroke-linecap:butt;stroke-linejoin:round;stroke-miterlimit:4;stroke-dasharray:none;stroke-opacity:1"
     d="M 2 6 L 2 18 C 2 19.662 3.338 21 5 21 L 10 21 L 10 16 A 1.0001 1.0001 0 0 1 11.125 15.007812 A 1.0001 1.0001 0 0 1 11.447266 15.105469 L 16 17.382812 L 16 16 A 1.0001 1.0001 0 0 1 17.447266 15.105469 L 22 17.382812 L 22 6 L 2 6 z " />
  <rect
     style="opacity:1;fill:#1a7fd4;fill-opacity:1;fill-rule:evenodd;stroke:none;stroke-width:3.65148377;stroke-linecap:butt;stroke-linejoin:round;stroke-miterlimit:4;stroke-dasharray:none;stroke-opacity:1"
     id="rect830"
     width="5"
     height="2"
     x="4"
     y="9.000061" />
  <rect
     style="opacity:1;fill:#c7162b;fill-opacity:1;fill-rule:evenodd;stroke:none;stroke-width:3.65148354;stroke-linecap:butt;stroke-linejoin:round;stroke-miterlimit:4;stroke-dasharray:none;stroke-opacity:1"
     id="rect832"
     width="5"
     height="2"
     x="4"
     y="12.000062" />
  <rect
     style="opacity:1;fill:#46a926;fill-opacity:1;fill-rule:evenodd;stroke:none;stroke-width:3.65148354;stroke-linecap:butt;stroke-linejoin:round;stroke-miterlimit:4;stroke-dasharray:none;stroke-opacity:1"
     id="rect834"
     width="5"
     height="2"
     x="4"
     y="15.000062" />
  <path
     id="path820"
     style="opacity:1;fill:#46a926;fill-opacity:1;fill-rule:evenodd;stroke:none;stroke-width:2;stroke-linecap:butt;stroke-linejoin:round;stroke-miterlimit:4;stroke-dasharray:none;stroke-opacity:1"
     d="M 15.5 9 A 4.5 4.5 0 0 0 11.341797 11.777344 A 4.5 4.5 0 0 0 11.28125 15.054688 A 1.0001 1.0001 0 0 1 11.447266 15.105469 L 16 17.382812 L 16 16 A 1.0001 1.0001 0 0 1 17.447266 15.105469 L 19.240234 16.001953 A 4.5 4.5 0 0 0 20 13.5 L 15.5 13.5 L 15.5 9 z " />
  <path
     d="m 9.000062,-15.499999 a 4.5,4.5 0 0 1 4.5,-4.5 l 0,4.5 z"
     sodipodi:end="4.712389"
     sodipodi:start="3.1415927"
     sodipodi:ry="4.5"
     sodipodi:rx="4.5"
     sodipodi:cy="-15.499999"
     sodipodi:cx="13.500062"
     sodipodi:type="arc"
     id="path822"
     style="opacity:1;fill:#c7162b;fill-opacity:1;fill-rule:evenodd;stroke:none;stroke-width:2;stroke-linecap:butt;stroke-linejoin:round;stroke-miterlimit:4;stroke-dasharray:none;stroke-opacity:1"
     transform="rotate(90)" />
  <path
     id="path824"
     style="fill:#00ffff;fill-opacity:1;stroke:none;stroke-width:1px;stroke-linecap:butt;stroke-linejoin:miter;stroke-opacity:1"
     d="M 11 16 L 11 23 L 17 20 L 17 23 L 24 19.5 L 17 16 L 17 19 L 11 16 z " />
</svg>
