<?xml version="1.0" encoding="UTF-8" standalone="no"?>
<svg
   xmlns:dc="http://purl.org/dc/elements/1.1/"
   xmlns:cc="http://creativecommons.org/ns#"
   xmlns:rdf="http://www.w3.org/1999/02/22-rdf-syntax-ns#"
   xmlns:svg="http://www.w3.org/2000/svg"
   xmlns="http://www.w3.org/2000/svg"
   xmlns:xlink="http://www.w3.org/1999/xlink"
   xmlns:sodipodi="http://sodipodi.sourceforge.net/DTD/sodipodi-0.dtd"
   xmlns:inkscape="http://www.inkscape.org/namespaces/inkscape"
   viewBox="0 0 24 24"
   version="1.1"
   id="svg6"
   sodipodi:docname="lc_dbdistinctvalues.svg"
   inkscape:export-filename="/home/jupiter007/Libreoffice yaru theme fullcolor/build/cmd/lc_dbdistinctvalues.png"
   inkscape:export-xdpi="96"
   inkscape:export-ydpi="96"
   inkscape:version="1.0.1 (3bc2e813f5, 2020-09-07)">
  <metadata
     id="metadata12">
    <rdf:RDF>
      <cc:Work
         rdf:about="">
        <dc:format>image/svg+xml</dc:format>
        <dc:type
           rdf:resource="http://purl.org/dc/dcmitype/StillImage" />
      </cc:Work>
    </rdf:RDF>
  </metadata>
  <defs
     id="defs10">
    <linearGradient
       inkscape:collect="always"
       xlink:href="#linearGradient884"
       id="linearGradient886"
       x1="13.152344"
       y1="6.4707031"
       x2="9.8476562"
       y2="15.529297"
       gradientUnits="userSpaceOnUse"
       gradientTransform="translate(6,6.9999996)" />
    <linearGradient
       inkscape:collect="always"
       id="linearGradient884">
      <stop
         style="stop-color:#151515;stop-opacity:1"
         offset="0"
         id="stop880" />
      <stop
         style="stop-color:#4d4d4d;stop-opacity:1"
         offset="1"
         id="stop882" />
    </linearGradient>
  </defs>
  <sodipodi:namedview
     pagecolor="#ffffff"
     bordercolor="#666666"
     borderopacity="1"
     objecttolerance="10"
     gridtolerance="10"
     guidetolerance="10"
     inkscape:pageopacity="0"
     inkscape:pageshadow="2"
     inkscape:window-width="1920"
     inkscape:window-height="1043"
     id="namedview8"
     showgrid="true"
     inkscape:zoom="27.812867"
     inkscape:cx="10.837432"
     inkscape:cy="9.5147186"
     inkscape:window-x="1920"
     inkscape:window-y="0"
     inkscape:window-maximized="1"
     inkscape:current-layer="svg6"
     inkscape:document-rotation="0">
    <inkscape:grid
       type="xygrid"
       id="grid832" />
  </sodipodi:namedview>
  <path
     sodipodi:nodetypes="cccccccccccccc"
     id="path825"
     d="m 5.999983,4.000001 -1,1 v 1 0.304687 l 5,7.062501 v 3.632812 0.03906 l 3.990234,2.960938 h 0.0098 v -6.63281 l 5,-7.062501 V 5.000001 l -1,-1 z"
     style="opacity:0.7;fill:#000000;stroke:#000000;stroke-width:2;stroke-linejoin:round;stroke-miterlimit:4;stroke-dasharray:none"
     inkscape:connector-curvature="0" />
  <path
     inkscape:connector-curvature="0"
     style="fill:#ffffff"
     d="m 5.999983,4.000001 -1,1 v 1 0.304687 l 5,7.062501 v 3.632812 0.03906 l 3.990234,2.960938 h 0.0098 v -6.63281 l 5,-7.062501 V 5.000001 l -1,-1 z"
     id="path2"
     sodipodi:nodetypes="cccccccccccccc" />
  <path
     id="path878"
     style="opacity:1;fill:#000000;fill-opacity:1;fill-rule:evenodd;stroke:#ffffff;stroke-width:2;stroke-linejoin:round"
     d="M 19.152344,13.470703 18.197266,15 H 13 v 2 h 3.947266 l -1.25,2 H 13 v 2 h 1.447266 l -0.294922,0.470703 1.695312,1.058593 L 16.802734,21 H 22 v -2 h -3.947266 l 1.25,-2 H 22 v -2 h -1.447266 l 0.294922,-0.470704 z" />
  <path
     id="rect862"
     style="opacity:1;fill:url(#linearGradient886);fill-opacity:1;fill-rule:evenodd;stroke:none;stroke-width:2;stroke-linejoin:round"
     d="M 19.152344,13.470703 18.197266,15 H 13 v 2 h 3.947266 l -1.25,2 H 13 v 2 h 1.447266 l -0.294922,0.470703 1.695312,1.058593 L 16.802734,21 H 22 v -2 h -3.947266 l 1.25,-2 H 22 v -2 h -1.447266 l 0.294922,-0.470704 z" />
</svg>
