<?xml version="1.0" encoding="UTF-8" standalone="no"?>
<svg
   xmlns:dc="http://purl.org/dc/elements/1.1/"
   xmlns:cc="http://creativecommons.org/ns#"
   xmlns:rdf="http://www.w3.org/1999/02/22-rdf-syntax-ns#"
   xmlns:svg="http://www.w3.org/2000/svg"
   xmlns="http://www.w3.org/2000/svg"
   xmlns:sodipodi="http://sodipodi.sourceforge.net/DTD/sodipodi-0.dtd"
   xmlns:inkscape="http://www.inkscape.org/namespaces/inkscape"
   viewBox="0 0 24 24"
   version="1.1"
   id="svg6"
   sodipodi:docname="lc_dbviewtablenames.svg"
   inkscape:version="1.0.1 (3bc2e813f5, 2020-09-07)"
   inkscape:export-filename="/home/jupiter007/Libreoffice yaru theme fullcolor/build/cmd/lc_dbviewtablenames.png"
   inkscape:export-xdpi="95"
   inkscape:export-ydpi="95">
  <metadata
     id="metadata12">
    <rdf:RDF>
      <cc:Work
         rdf:about="">
        <dc:format>image/svg+xml</dc:format>
        <dc:type
           rdf:resource="http://purl.org/dc/dcmitype/StillImage" />
      </cc:Work>
    </rdf:RDF>
  </metadata>
  <defs
     id="defs10" />
  <sodipodi:namedview
     pagecolor="#ffffff"
     bordercolor="#666666"
     borderopacity="1"
     objecttolerance="10"
     gridtolerance="10"
     guidetolerance="10"
     inkscape:pageopacity="0"
     inkscape:pageshadow="2"
     inkscape:window-width="1920"
     inkscape:window-height="1011"
     id="namedview8"
     showgrid="true"
     inkscape:zoom="19.666667"
     inkscape:cx="-0.19898901"
     inkscape:cy="5.097468"
     inkscape:window-x="0"
     inkscape:window-y="0"
     inkscape:window-maximized="1"
     inkscape:current-layer="svg6"
     inkscape:document-rotation="0">
    <inkscape:grid
       type="xygrid"
       id="grid822" />
  </sodipodi:namedview>
  <rect
     style="opacity:1;fill:#ffffff;fill-opacity:1;stroke:none;stroke-width:2;stroke-linecap:round;stroke-linejoin:round;stroke-miterlimit:4;stroke-dasharray:none;stroke-opacity:1"
     id="rect827-8"
     width="16"
     height="16"
     x="4"
     y="4"
     inkscape:export-filename="/home/jupiter007/Libreoffice yaru theme fullcolor/build/cmd/rect827.png"
     inkscape:export-xdpi="95"
     inkscape:export-ydpi="95" />
  <path
     id="path2-7"
     style="opacity:1;fill:#6d6d6d;fill-opacity:1"
     d="M 6 3 C 4 3 3 3 3 5 L 3 19 C 3 21 4 21 6 21 L 18 21 C 20 21 21 21 21 19 L 21 5 C 21 3 20 3 18 3 L 6 3 z M 4 8 L 8 8 L 9 8 L 9 10 L 4 10 L 4 8 z M 10 8 L 14 8 L 14 10 L 10 10 L 10 8 z M 15 8 L 20 8 L 20 10 L 15 10 L 15 8 z M 4 11 L 9 11 L 9 13 L 4 13 L 4 11 z M 10 11 L 14 11 L 14 13 L 10 13 L 10 11 z M 15 11 L 20 11 L 20 13 L 15 13 L 15 11 z M 4 14 L 9 14 L 9 16 L 8 16 L 4 16 L 4 14 z M 10 14 L 14 14 L 14 16 L 10 16 L 10 14 z M 15 14 L 20 14 L 20 16 L 15 16 L 15 14 z M 4 17 L 8 17 L 9 17 L 9 19.099609 L 9 20 L 6 20 C 5 20 4 20 4 19 L 4 17 z M 10 17 L 14 17 L 14 20 L 10 20 L 10 17 z M 15 17 L 20 17 L 20 19 C 20 20 19 20 18 20 L 15 20 L 15 17 z " />
  <path
     d="M 6,4 C 5,4 4,4 4,5 v 2 h 8 V 4 Z"
     id="path4"
     inkscape:connector-curvature="0"
     style="fill:#aee3f8;fill-opacity:1"
     sodipodi:nodetypes="cccccc" />
</svg>
