<?xml version="1.0" encoding="UTF-8" standalone="no"?>
<svg
   xmlns:dc="http://purl.org/dc/elements/1.1/"
   xmlns:cc="http://creativecommons.org/ns#"
   xmlns:rdf="http://www.w3.org/1999/02/22-rdf-syntax-ns#"
   xmlns:svg="http://www.w3.org/2000/svg"
   xmlns="http://www.w3.org/2000/svg"
   xmlns:xlink="http://www.w3.org/1999/xlink"
   xmlns:sodipodi="http://sodipodi.sourceforge.net/DTD/sodipodi-0.dtd"
   xmlns:inkscape="http://www.inkscape.org/namespaces/inkscape"
   viewBox="0 0 24 24"
   version="1.1"
   id="svg6"
   sodipodi:docname="lc_editstyle.svg"
   inkscape:version="1.0.1 (3bc2e813f5, 2020-09-07)"
   inkscape:export-filename="/home/jupiter007/Libreoffice yaru theme fullcolor/build/cmd/lc_editstyle.png"
   inkscape:export-xdpi="95"
   inkscape:export-ydpi="95">
  <metadata
     id="metadata12">
    <rdf:RDF>
      <cc:Work
         rdf:about="">
        <dc:format>image/svg+xml</dc:format>
        <dc:type
           rdf:resource="http://purl.org/dc/dcmitype/StillImage" />
        <dc:title></dc:title>
      </cc:Work>
    </rdf:RDF>
  </metadata>
  <defs
     id="defs10">
    <linearGradient
       inkscape:collect="always"
       xlink:href="#linearGradient840"
       id="linearGradient842"
       x1="16"
       y1="3"
       x2="16"
       y2="14"
       gradientUnits="userSpaceOnUse" />
    <linearGradient
       inkscape:collect="always"
       id="linearGradient840">
      <stop
         style="stop-color:#151515;stop-opacity:1"
         offset="0"
         id="stop836" />
      <stop
         style="stop-color:#4d4d4d;stop-opacity:1"
         offset="1"
         id="stop838" />
    </linearGradient>
  </defs>
  <sodipodi:namedview
     pagecolor="#ffffff"
     bordercolor="#666666"
     borderopacity="1"
     objecttolerance="10"
     gridtolerance="10"
     guidetolerance="10"
     inkscape:pageopacity="0"
     inkscape:pageshadow="2"
     inkscape:window-width="1920"
     inkscape:window-height="1043"
     id="namedview8"
     showgrid="true"
     inkscape:zoom="19.666667"
     inkscape:cx="5.6394268"
     inkscape:cy="15.170973"
     inkscape:window-x="1920"
     inkscape:window-y="0"
     inkscape:window-maximized="1"
     inkscape:current-layer="svg6"
     inkscape:document-rotation="0">
    <inkscape:grid
       type="xygrid"
       id="grid838" />
  </sodipodi:namedview>
  <path
     sodipodi:nodetypes="ccccccccccccc"
     inkscape:connector-curvature="0"
     id="path846"
     d="m 14.5,3 -4.105469,11 h 2.308594 L 13.5,12 h 5.017578 l 0.773438,2 h 2.412109 L 17.5,3 Z m 1.5,2 1.773438,5 h -3.5625 z"
     style="opacity:1;fill:#000000;stroke:#ffffff;stroke-width:2;stroke-linecap:round;stroke-linejoin:round;stroke-miterlimit:4;stroke-dasharray:none;stroke-opacity:0.987055" />
  <path
     style="fill:url(#linearGradient842);fill-opacity:1;stroke:none;stroke-width:0.647105;stroke-linecap:round;stroke-linejoin:round;stroke-opacity:0.490196"
     d="m 14.5,3 -4.105469,11 h 2.308594 L 13.5,12 h 5.017578 l 0.773438,2 h 2.412109 L 17.5,3 Z m 1.5,2 1.773438,5 h -3.5625 z"
     id="path20"
     inkscape:connector-curvature="0"
     sodipodi:nodetypes="ccccccccccccc" />
  <path
     style="fill:#6d6d6d;fill-opacity:1;stroke:none;stroke-width:1px;stroke-linecap:butt;stroke-linejoin:miter;stroke-opacity:1"
     d="m 7.5147171,9.9921877 -0.707106,-0.707107 c -1.414214,-1.414214 -2.12132,-0.707107 -2.828427,0 l -1.414214,1.4142133 c -0.707107,0.707107 -1.414213,1.414214 0,2.828428 l 2.828427,2.828426 c 0.707107,0.707107 0.707107,0.707107 1e-6,1.414213 l 0.707107,0.707108 c 0.707107,-0.707108 1.414214,-1.414215 0,-2.828428 l -2.828427,-2.828427 c -0.707107,-0.707107 -0.707107,-0.707107 0,-1.414214 l 1.414213,-1.4142133 c 0.707107,-0.707107 0.707107,-0.707107 1.414213,0 l 0.707107,0.7071073 0.707106,-0.7071063"
     id="path823"
     inkscape:connector-curvature="0"
     sodipodi:nodetypes="ccccccccccccccc" />
  <path
     style="fill:#fa9381;fill-opacity:1;stroke:none;stroke-width:1px;stroke-linecap:butt;stroke-linejoin:miter;stroke-opacity:1"
     d="m 6.1005051,18.477469 -0.707107,-0.707107 c -0.707106,-0.707107 -0.707106,-0.707107 -2.828427,1.414213 l -0.707106,0.707107 c -1.41442304,1.414005 -1.41442304,1.414005 -0.707317,2.121112 l 0.707317,0.707317 c 0.707107,0.707106 0.707107,0.707106 2.12132,-0.707108 l 0.707107,-0.707107 c 2.12132,-2.121321 2.12132,-2.121321 1.414213,-2.828427 z"
     id="path827"
     inkscape:connector-curvature="0"
     sodipodi:nodetypes="ccccccccc" />
  <rect
     ry="1.0000007"
     y="-0.24816507"
     x="-22.379253"
     height="5"
     width="10"
     id="rect836"
     style="opacity:0.7;fill:#000000;fill-opacity:1;fill-rule:evenodd;stroke:#000000;stroke-width:2;stroke-linecap:butt;stroke-linejoin:round;stroke-miterlimit:4;stroke-dasharray:none;stroke-opacity:1"
     rx="1.0000007"
     transform="matrix(-0.70710678,-0.70710678,-0.70710678,0.70710678,0,0)" />
  <rect
     ry="1.0000007"
     y="-0.24816507"
     x="-22.379253"
     height="5"
     width="10"
     id="rect829"
     style="opacity:1;fill:#ffffff;fill-opacity:1;fill-rule:evenodd;stroke:none;stroke-width:2;stroke-linecap:butt;stroke-linejoin:round;stroke-miterlimit:4;stroke-dasharray:none;stroke-opacity:1"
     rx="1.0000007"
     transform="matrix(-0.70710678,-0.70710678,-0.70710678,0.70710678,0,0)" />
  <g
     style="display:inline;stroke-width:27.20000267;enable-background:new"
     transform="matrix(0.03808017,0.02198561,-0.02384508,0.04130087,-2.1628459,-6.9632891)"
     id="g1151">
    <path
       style="fill:#fec589;fill-opacity:1;stroke:none;stroke-width:27.20000267"
       d="M 701.48433,292.8316 656.00003,400.49346 610.51572,292.8316 v -11.06422 h 90.96861 z"
       id="path1145"
       inkscape:connector-curvature="0"
       sodipodi:nodetypes="cccccc" />
    <path
       style="color:#000000;display:inline;overflow:visible;visibility:visible;fill:#5d5d5d;fill-opacity:1;fill-rule:nonzero;stroke:none;stroke-width:28.00900841;marker:none;enable-background:accumulate"
       d="m 645.19752,374.67695 10.80251,25.81651 10.80253,-25.81651 c 0.0107,0.17481 -21.60504,0 -21.60504,0 z"
       id="path1147"
       inkscape:connector-curvature="0"
       sodipodi:nodetypes="cccc" />
    <path
       style="fill:#2f5fdd;fill-opacity:1;stroke:none;stroke-width:27.20000267"
       d="m 610.51572,292.83159 c 0,0 91.98903,1.58617 90.96861,0 V 23.057025 h -90.96861 z"
       id="path1149"
       inkscape:connector-curvature="0"
       sodipodi:nodetypes="ccccc" />
  </g>
</svg>
