<?xml version="1.0" encoding="UTF-8" standalone="no"?>
<svg
   viewBox="0 0 24 24"
   version="1.1"
   id="svg8"
   sodipodi:docname="lc_footnotedialog.svg"
   inkscape:version="1.2 (1:1.2.1+202207142221+cd75a1ee6d)"
   width="24"
   height="24"
   inkscape:export-filename="/home/jupiter007/Libreoffice yaru theme fullcolor/build/cmd/lc_footnotedialog.png"
   inkscape:export-xdpi="95"
   inkscape:export-ydpi="95"
   xmlns:inkscape="http://www.inkscape.org/namespaces/inkscape"
   xmlns:sodipodi="http://sodipodi.sourceforge.net/DTD/sodipodi-0.dtd"
   xmlns="http://www.w3.org/2000/svg"
   xmlns:svg="http://www.w3.org/2000/svg"
   xmlns:rdf="http://www.w3.org/1999/02/22-rdf-syntax-ns#"
   xmlns:cc="http://creativecommons.org/ns#"
   xmlns:dc="http://purl.org/dc/elements/1.1/">
  <metadata
     id="metadata14">
    <rdf:RDF>
      <cc:Work
         rdf:about="">
        <dc:format>image/svg+xml</dc:format>
        <dc:type
           rdf:resource="http://purl.org/dc/dcmitype/StillImage" />
        <dc:title />
      </cc:Work>
    </rdf:RDF>
  </metadata>
  <defs
     id="defs12" />
  <sodipodi:namedview
     pagecolor="#ffffff"
     bordercolor="#666666"
     borderopacity="1"
     objecttolerance="10"
     gridtolerance="10"
     guidetolerance="10"
     inkscape:pageopacity="0"
     inkscape:pageshadow="2"
     inkscape:window-width="1920"
     inkscape:window-height="1043"
     id="namedview10"
     showgrid="true"
     inkscape:zoom="22.627417"
     inkscape:cx="8.7725435"
     inkscape:cy="8.4410872"
     inkscape:window-x="0"
     inkscape:window-y="0"
     inkscape:window-maximized="1"
     inkscape:current-layer="svg8"
     inkscape:document-rotation="0"
     inkscape:showpageshadow="2"
     inkscape:pagecheckerboard="0"
     inkscape:deskcolor="#d1d1d1">
    <inkscape:grid
       type="xygrid"
       id="grid821" />
  </sodipodi:namedview>
  <path
     id="path4237-1"
     style="font-style:normal;font-variant:normal;font-weight:normal;font-stretch:normal;font-size:15px;line-height:125%;font-family:Ubuntu;-inkscape-font-specification:Ubuntu;text-align:center;letter-spacing:0px;word-spacing:0px;writing-mode:lr-tb;text-anchor:middle;display:inline;opacity:0.7;fill:#000000;fill-opacity:1;stroke:none;stroke-width:0.999802"
     d="M 7.0117188,3 C 5.7535187,3.0145 4.8328281,2.969396 4.0800781,3.3847656 3.7037081,3.5924256 3.4068475,3.9441525 3.2421875,4.3828125 3.0775175,4.8214825 3.0175781,5.3424 3.0175781,6 V 7.4882812 18 c 0,0.65761 0.0599,1.178576 0.2246094,1.617188 0.16468,0.438611 0.4615306,0.788524 0.8378906,0.996093 0.75272,0.41513 1.6735407,0.371649 2.9316407,0.386719 h 0.00195 10.0058591 0.0039 c 1.258189,-0.0145 2.17889,0.0306 2.93164,-0.384766 0.37637,-0.20766 0.673221,-0.559386 0.837891,-0.998046 C 20.957508,19.178517 21.017578,18.65761 21.017578,18 V 9.8964844 C 20.653439,10.02911 20.30261,9.9888789 19.988755,9.8404448 15.302416,10.689612 11.907498,9.8880568 14.171885,4.0285552 14.021001,3.714055 13.977393,3.3624302 14.105469,3 H 7.0136719 Z"
     sodipodi:nodetypes="cccscsccccccccscccccc" />
  <path
     id="path1993"
     style="opacity:1;fill:#ffffff;fill-opacity:1;stroke:none;stroke-width:1;stroke-linecap:round;stroke-linejoin:bevel;stroke-miterlimit:4;stroke-dasharray:none;stroke-dashoffset:0;stroke-opacity:1"
     d="M 12 4.0273438 C 10.443419 4.0381398 6.8897948 4.0158792 5.3398438 4.0664062 C 4.8786147 4.1090742 4.3246989 4.2718432 4.1855469 4.7753906 C 3.9665529 5.410737 4.0764445 6.1096755 4.0390625 6.7578125 C 4.0312625 9.0548965 4.0160569 16.355179 4.0605469 18.644531 C 4.0996469 19.10646 4.2635606 19.655641 4.7597656 19.806641 C 5.3922216 20.031723 6.0434825 19.929379 6.6953125 19.960938 C 8.1195475 19.967737 11.544846 19.972366 12.970703 19.972656 C 14.675234 19.973006 16.379323 19.968588 18.078125 19.955078 C 18.590036 19.943068 19.263016 19.973949 19.664062 19.548828 C 20.085159 19.009045 19.950656 18.280297 19.986328 17.644531 C 19.993837 16.098185 19.995171 12.85171 19.988281 9.828125 C 19.815898 9.7443886 19.650025 9.6408058 19.503906 9.5039062 C 19.074149 9.9066212 18.510526 10.130886 17.925781 9.8886719 L 16.8125 9.4296875 A 1.0001 1.0001 0 0 0 16.810547 9.4277344 C 16.223585 9.1846114 15.98738 8.6278856 15.96875 8.0410156 C 15.3845 8.0215526 14.833203 7.7847696 14.589844 7.1972656 L 14.126953 6.0800781 C 13.883365 5.4920051 14.10747 4.9367116 14.507812 4.5097656 C 14.372005 4.3651445 14.268068 4.2020592 14.183594 4.03125 C 13.455776 4.0304256 12.727815 4.0268897 12 4.0273438 z M 19.439453 4.359375 C 19.376513 4.385447 19.326013 4.5086325 19.351562 4.5703125 C 19.376646 4.6308725 19.503763 4.6833431 19.564453 4.6582031 C 19.627393 4.6321311 19.677894 4.5089456 19.652344 4.4472656 C 19.62726 4.3867056 19.500143 4.334235 19.439453 4.359375 z " />
  <path
     id="rect470"
     style="fill:#000000;fill-rule:evenodd;stroke-width:2;stroke-linecap:square;stroke-linejoin:round"
     d="M 6 6 L 6 7 L 14.513672 7 L 14.126953 6.0683594 C 14.117416 6.0453355 14.109692 6.0229149 14.101562 6 L 6 6 z " />
  <rect
     style="fill:#000000;fill-rule:evenodd;stroke-width:2;stroke-linecap:square;stroke-linejoin:round"
     id="rect526"
     width="7"
     height="1"
     x="6"
     y="8" />
  <rect
     style="fill:#000000;fill-rule:evenodd;stroke-width:2;stroke-linecap:square;stroke-linejoin:round"
     id="rect748"
     width="9"
     height="1"
     x="6"
     y="10" />
  <g
     id="g915"
     transform="translate(-2.684133e-8,-15.005267)">
    <circle
       style="fill:#ffffff;fill-rule:evenodd;stroke:none;stroke-width:2;stroke-linecap:round;stroke-linejoin:round"
       id="path909"
       cx="19.5"
       cy="19.5"
       r="1.5" />
    <g
       id="g1425"
       transform="translate(8.0000004,8)">
      <circle
         style="fill:#ffffff;fill-opacity:1;fill-rule:evenodd;stroke:none;stroke-width:2;stroke-linecap:round;stroke-linejoin:round;stroke-miterlimit:4;stroke-dasharray:none;stroke-opacity:1"
         id="path1328"
         cx="11.5"
         cy="11.5"
         r="1.5" />
      <path
         d="m 9.3111344,7.791575 c -0.13058,0.05409 -0.188804,0.19465 -0.134715,0.325232 l 0.272166,0.657066 c -0.260199,0.195351 -0.471578,0.424352 -0.66202,0.678364 L 8.1128724,9.173184 c -0.130581,-0.05409 -0.274445,0.0055 -0.328533,0.136083 l -0.461881,1.115078 c -0.05409,0.130582 0.0055,0.274445 0.136083,0.328534 l 0.673693,0.279053 c -0.04495,0.314275 -0.05741,0.62567 -0.01156,0.947793 l -0.657066,0.272166 c -0.130581,0.05409 -0.188804,0.19465 -0.134715,0.325232 l 0.462682,1.117013 c 0.05409,0.130581 0.19465,0.188803 0.325231,0.134715 l 0.657067,-0.272166 c 0.195351,0.260198 0.424352,0.471578 0.678363,0.66202 l -0.279053,0.673693 c -0.05409,0.130583 0.0055,0.274445 0.136083,0.328533 l 1.1150786,0.461881 c 0.130582,0.05409 0.274445,-0.0055 0.328533,-0.136083 l 0.279053,-0.673693 c 0.314276,0.04495 0.625672,0.05741 0.947794,0.01156 l 0.272166,0.657067 c 0.05409,0.130582 0.19465,0.188803 0.325231,0.134715 l 1.117013,-0.462682 c 0.130582,-0.05409 0.188804,-0.19465 0.134716,-0.325231 l -0.272166,-0.657067 c 0.260198,-0.19535 0.471577,-0.424351 0.662019,-0.678363 l 0.673694,0.279053 c 0.130583,0.05409 0.274445,-0.0055 0.328533,-0.136083 l 0.461881,-1.115079 c 0.05409,-0.130583 -0.0055,-0.274445 -0.136083,-0.328533 L 14.873035,11.97334 c 0.04495,-0.314276 0.05741,-0.625672 0.01156,-0.947794 l 0.657066,-0.272166 c 0.130582,-0.05409 0.188804,-0.194649 0.134716,-0.325231 L 15.213692,9.311132 C 15.159602,9.18055 15.019042,9.122328 14.88846,9.176417 L 14.231394,9.448582 C 14.036043,9.188383 13.807042,8.977005 13.553031,8.786563 l 0.279053,-0.673694 c 0.05409,-0.130582 -0.0055,-0.274445 -0.136083,-0.328533 L 12.580922,7.322455 c -0.130583,-0.05409 -0.274445,0.0055 -0.328534,0.136083 L 11.973335,8.132232 C 11.65906,8.087282 11.347664,8.074822 11.025542,8.120672 L 10.753376,7.463606 C 10.699286,7.333024 10.558726,7.274802 10.428144,7.32889 Z m 1.7560366,2.659752 c 0.580321,-0.240377 1.246395,0.03552 1.486772,0.615841 0.240377,0.580322 -0.03552,1.246395 -0.615841,1.486772 -0.580321,0.240377 -1.246395,-0.03552 -1.486772,-0.615841 -0.240377,-0.580321 0.03552,-1.246395 0.615841,-1.486772 z"
         display="block"
         fill="url(#d)"
         stroke="url(#e)"
         stroke-linejoin="round"
         stroke-width="0.6"
         id="path42"
         style="fill:#d3d3d3;fill-opacity:1;stroke:#4d4d4d;stroke-opacity:1" />
    </g>
  </g>
  <path
     style="fill:#00ff00;fill-opacity:1"
     d="m 9.010772,15 v 1 h 8.989228 v -1 z"
     id="path2"
     inkscape:connector-curvature="0"
     sodipodi:nodetypes="ccccc" />
  <path
     style="fill:#00ff00;fill-opacity:1"
     d="m 9.010772,17 v 1 h 6.989228 v -1 z"
     id="path458"
     inkscape:connector-curvature="0"
     sodipodi:nodetypes="ccccc" />
  <path
     id="rect346"
     style="fill:#00ff00;fill-rule:evenodd;stroke-width:2;stroke-linecap:square;stroke-linejoin:round"
     d="m 6,13 v 1 h 1 v -1 z m 0,2 v 3 h 1 v -3 z"
     sodipodi:nodetypes="cccccccccc" />
</svg>
