<?xml version="1.0" encoding="UTF-8" standalone="no"?>
<svg
   xmlns:dc="http://purl.org/dc/elements/1.1/"
   xmlns:cc="http://creativecommons.org/ns#"
   xmlns:rdf="http://www.w3.org/1999/02/22-rdf-syntax-ns#"
   xmlns:svg="http://www.w3.org/2000/svg"
   xmlns="http://www.w3.org/2000/svg"
   xmlns:xlink="http://www.w3.org/1999/xlink"
   xmlns:sodipodi="http://sodipodi.sourceforge.net/DTD/sodipodi-0.dtd"
   xmlns:inkscape="http://www.inkscape.org/namespaces/inkscape"
   viewBox="0 0 24 24"
   version="1.1"
   id="svg6"
   sodipodi:docname="lc_hyphenate.svg"
   inkscape:export-filename="/home/jupiter007/Libreoffice yaru theme fullcolor/build/cmd/lc_hyphenate.png"
   inkscape:export-xdpi="95"
   inkscape:export-ydpi="95"
   inkscape:version="1.0.1 (3bc2e813f5, 2020-09-07)">
  <metadata
     id="metadata12">
    <rdf:RDF>
      <cc:Work
         rdf:about="">
        <dc:format>image/svg+xml</dc:format>
        <dc:type
           rdf:resource="http://purl.org/dc/dcmitype/StillImage" />
        <dc:title></dc:title>
      </cc:Work>
    </rdf:RDF>
  </metadata>
  <defs
     id="defs10">
    <linearGradient
       inkscape:collect="always"
       id="linearGradient857">
      <stop
         style="stop-color:#151515;stop-opacity:1"
         offset="0"
         id="stop853" />
      <stop
         style="stop-color:#4d4d4d;stop-opacity:1"
         offset="1"
         id="stop855" />
    </linearGradient>
    <linearGradient
       inkscape:collect="always"
       xlink:href="#linearGradient857"
       id="linearGradient859"
       x1="6"
       y1="4"
       x2="6"
       y2="10"
       gradientUnits="userSpaceOnUse" />
    <linearGradient
       inkscape:collect="always"
       xlink:href="#linearGradient857"
       id="linearGradient867"
       x1="5"
       y1="14"
       x2="5"
       y2="20"
       gradientUnits="userSpaceOnUse" />
  </defs>
  <sodipodi:namedview
     pagecolor="#808080"
     bordercolor="#666666"
     borderopacity="1"
     objecttolerance="10"
     gridtolerance="10"
     guidetolerance="10"
     inkscape:pageopacity="0"
     inkscape:pageshadow="2"
     inkscape:window-width="1920"
     inkscape:window-height="1016"
     id="namedview8"
     showgrid="true"
     inkscape:zoom="27.812867"
     inkscape:cx="9.4587447"
     inkscape:cy="14.742351"
     inkscape:window-x="0"
     inkscape:window-y="27"
     inkscape:window-maximized="1"
     inkscape:current-layer="svg6"
     inkscape:document-rotation="0">
    <inkscape:grid
       type="xygrid"
       id="grid822" />
  </sodipodi:namedview>
  <path
     style="opacity:1;fill:#000000;stroke:#ffffff;stroke-width:2;stroke-linejoin:round;stroke-miterlimit:4;stroke-dasharray:none"
     id="path867"
     d="m 6,14 c -1.65685,0 -3,1.3432 -3,3 0,1.6569 1.34315,3 3,3 H 7 V 19 H 6 C 4.895431,19 4,18.1046 4,17 4,15.8954 4.895431,15 6,15 h 1 v -1 z"
     inkscape:connector-curvature="0" />
  <path
     style="opacity:1;fill:#000000;stroke:#ffffff;stroke-width:2;stroke-linejoin:round;stroke-miterlimit:4;stroke-dasharray:none"
     id="path865"
     d="m 12,4 v 2 1 2 1 h 3 C 16.108,10 17,9.108 17,8 17,7.1891 16.50311,6.502 15.8125,6.1875 15.91845,5.9817 16,5.7483 16,5.5 16,4.669 15.331,4 14.5,4 H 13 Z m 1,1 h 1.5 C 14.777,5 15,5.223 15,5.5 15,5.777 14.777,6 14.5,6 H 13 Z m 0,2 h 1.5 0.5 c 0.554,0 1,0.446 1,1 0,0.554 -0.446,1 -1,1 h -2 z"
     inkscape:connector-curvature="0" />
  <path
     id="path849"
     d="M 5.3125 4 L 3.4765625 10 L 4.5234375 10 L 5.1347656 8 L 6.8652344 8 L 7.4785156 10 L 8.5234375 10 L 6.6875 4 L 5.3125 4 z M 6 5.1738281 L 6.5585938 7 L 5.4414062 7 L 6 5.1738281 z "
     style="opacity:1;fill:#000000;fill-opacity:1;fill-rule:evenodd;stroke:#ffffff;stroke-width:2;stroke-linecap:butt;stroke-linejoin:round;stroke-miterlimit:4;stroke-dasharray:none;stroke-opacity:1" />
  <path
     id="path861"
     style="fill:url(#linearGradient859);fill-opacity:1"
     d="M 5.3125 4 L 3.4765625 10 L 4.5234375 10 L 5.1347656 8 L 6.8652344 8 L 7.4785156 10 L 8.5234375 10 L 6.6875 4 L 5.3125 4 z M 12 4 L 12 6 L 12 7 L 12 9 L 12 10 L 15 10 C 16.108 10 17 9.108 17 8 C 17 7.1891 16.50311 6.502 15.8125 6.1875 C 15.91845 5.9817 16 5.7483 16 5.5 C 16 4.669 15.331 4 14.5 4 L 13 4 L 12 4 z M 13 5 L 14.5 5 C 14.777 5 15 5.223 15 5.5 C 15 5.777 14.777 6 14.5 6 L 13 6 L 13 5 z M 6 5.1738281 L 6.5585938 7 L 5.4414062 7 L 6 5.1738281 z M 13 7 L 14.5 7 L 15 7 C 15.554 7 16 7.446 16 8 C 16 8.554 15.554 9 15 9 L 13 9 L 13 7 z " />
  <path
     d="m 6,14 c -1.65685,0 -3,1.3432 -3,3 0,1.6569 1.34315,3 3,3 H 7 V 19 H 6 C 4.895431,19 4,18.1046 4,17 4,15.8954 4.895431,15 6,15 h 1 v -1 z"
     id="path855"
     style="fill:url(#linearGradient867);fill-opacity:1"
     inkscape:connector-curvature="0" />
  <path
     style="fill:#00ff00;fill-opacity:1;stroke:none;stroke-width:1px;stroke-linecap:butt;stroke-linejoin:miter;stroke-opacity:1"
     d="M 9.981137,17.5 14,20 13.98309,14.984743 Z"
     id="path833-7"
     inkscape:connector-curvature="0"
     sodipodi:nodetypes="cccc" />
  <path
     id="path866"
     style="color:#000000;font-style:normal;font-variant:normal;font-weight:normal;font-stretch:normal;font-size:medium;line-height:normal;font-family:sans-serif;font-variant-ligatures:normal;font-variant-position:normal;font-variant-caps:normal;font-variant-numeric:normal;font-variant-alternates:normal;font-variant-east-asian:normal;font-feature-settings:normal;font-variation-settings:normal;text-indent:0;text-align:start;text-decoration:none;text-decoration-line:none;text-decoration-style:solid;text-decoration-color:#000000;letter-spacing:normal;word-spacing:normal;text-transform:none;writing-mode:lr-tb;direction:ltr;text-orientation:mixed;dominant-baseline:auto;baseline-shift:baseline;text-anchor:start;white-space:normal;shape-padding:0;shape-margin:0;inline-size:0;clip-rule:nonzero;display:inline;overflow:visible;visibility:visible;isolation:auto;mix-blend-mode:normal;color-interpolation:sRGB;color-interpolation-filters:linearRGB;solid-color:#000000;solid-opacity:1;vector-effect:none;fill:#00ff00;fill-opacity:1;fill-rule:nonzero;stroke:none;stroke-width:1px;stroke-linecap:square;stroke-linejoin:miter;stroke-miterlimit:4;stroke-dasharray:none;stroke-dashoffset:0;stroke-opacity:1;color-rendering:auto;image-rendering:auto;shape-rendering:auto;text-rendering:auto;enable-background:accumulate;stop-color:#000000"
     d="m 14.000001,17.998047 v -1 c 0.732467,-0.0016 2.345651,-0.0075 2.771484,-0.04297 0.525846,-0.04382 0.805735,-0.138969 0.927735,-0.230469 0.122,-0.0915 0.191082,-0.206312 0.24414,-0.564453 C 17.99642,15.802015 18.005356,15.249981 18,14.5 V 14 h 1 v 0.5 c 0,0.75 0.0036,1.322985 -0.06836,1.808594 -0.07194,0.485609 -0.25286,0.933297 -0.63086,1.216797 -0.378,0.2835 -0.848111,0.375851 -1.447265,0.425781 -0.486206,0.04052 -2.114573,0.04571 -2.853515,0.04687 z"
     sodipodi:nodetypes="cccsssccscsscc" />
</svg>
