<?xml version="1.0" encoding="UTF-8" standalone="no"?>
<svg
   xmlns:dc="http://purl.org/dc/elements/1.1/"
   xmlns:cc="http://creativecommons.org/ns#"
   xmlns:rdf="http://www.w3.org/1999/02/22-rdf-syntax-ns#"
   xmlns:svg="http://www.w3.org/2000/svg"
   xmlns="http://www.w3.org/2000/svg"
   xmlns:xlink="http://www.w3.org/1999/xlink"
   xmlns:sodipodi="http://sodipodi.sourceforge.net/DTD/sodipodi-0.dtd"
   xmlns:inkscape="http://www.inkscape.org/namespaces/inkscape"
   viewBox="0 0 24 24"
   version="1.1"
   id="svg4"
   sodipodi:docname="lc_hide.svg"
   inkscape:export-filename="/home/jupiter007/Libreoffice yaru theme fullcolor/build/cmd/lc_hide.png"
   inkscape:export-xdpi="95"
   inkscape:export-ydpi="95"
   inkscape:version="1.0.1 (3bc2e813f5, 2020-09-07)">
  <metadata
     id="metadata10">
    <rdf:RDF>
      <cc:Work
         rdf:about="">
        <dc:format>image/svg+xml</dc:format>
        <dc:type
           rdf:resource="http://purl.org/dc/dcmitype/StillImage" />
      </cc:Work>
    </rdf:RDF>
  </metadata>
  <defs
     id="defs8">
    <linearGradient
       inkscape:collect="always"
       id="linearGradient842">
      <stop
         style="stop-color:#151515;stop-opacity:1"
         offset="0"
         id="stop838" />
      <stop
         style="stop-color:#4d4d4d;stop-opacity:1"
         offset="1"
         id="stop840" />
    </linearGradient>
    <linearGradient
       inkscape:collect="always"
       xlink:href="#linearGradient842"
       id="linearGradient844"
       x1="13"
       y1="4"
       x2="13"
       y2="20"
       gradientUnits="userSpaceOnUse" />
  </defs>
  <sodipodi:namedview
     pagecolor="#ffffff"
     bordercolor="#666666"
     borderopacity="1"
     objecttolerance="10"
     gridtolerance="10"
     guidetolerance="10"
     inkscape:pageopacity="0"
     inkscape:pageshadow="2"
     inkscape:window-width="1920"
     inkscape:window-height="1043"
     id="namedview6"
     showgrid="true"
     inkscape:zoom="27.812867"
     inkscape:cx="7.9335031"
     inkscape:cy="14.176224"
     inkscape:window-x="1920"
     inkscape:window-y="0"
     inkscape:window-maximized="1"
     inkscape:current-layer="svg4"
     inkscape:document-rotation="0">
    <inkscape:grid
       type="xygrid"
       id="grid829" />
  </sodipodi:namedview>
  <path
     sodipodi:nodetypes="ccccccc"
     inkscape:connector-curvature="0"
     style="opacity:0.7;fill:#090909;fill-opacity:1;stroke:#140c0c;stroke-width:2;stroke-linejoin:round;stroke-miterlimit:4;stroke-dasharray:none;stroke-opacity:1"
     id="path839"
     d="m 11.998047,6.929688 c -3.5962743,0.0054 -6.9127021,1.941384 -8.6855466,5.070313 1.7728447,3.128929 5.0892723,5.064911 8.6855466,5.070311 3.596452,-0.0028 6.914412,-1.936567 8.689453,-5.064451 -0.0013,-0.002 -0.0026,-0.0039 -0.0039,-0.0059 0.0013,-0.002 0.0027,-0.0039 0.0039,-0.0059 C 18.912439,8.866208 15.594482,6.932442 11.998047,6.929688 Z" />
  <path
     d="m 11.998047,6.929688 c -3.5962743,0.0054 -6.9127021,1.941384 -8.6855466,5.070313 1.7728447,3.128929 5.0892723,5.064911 8.6855466,5.070311 3.596452,-0.0028 6.914412,-1.936567 8.689453,-5.064451 -0.0013,-0.002 -0.0026,-0.0039 -0.0039,-0.0059 0.0013,-0.002 0.0027,-0.0039 0.0039,-0.0059 C 18.912439,8.866208 15.594482,6.932442 11.998047,6.929688 Z"
     id="path2"
     style="fill:#ffffff;fill-opacity:1"
     inkscape:connector-curvature="0"
     sodipodi:nodetypes="ccccccc" />
  <path
     style="opacity:1;fill:#232629;fill-opacity:1;stroke:none;stroke-width:2;stroke-linecap:round;stroke-linejoin:round;stroke-miterlimit:4;stroke-dasharray:none;stroke-opacity:1"
     d="m 12,8.000001 a 4,4 0 0 0 -3.9999995,4 A 4,4 0 0 0 12,16 a 4,4 0 0 0 4,-3.999999 4,4 0 0 0 -4,-4 z m 0,1 a 3,3 0 0 1 3,3 3,3 0 0 1 -3,3 3,3 0 0 1 -2.9999995,-3 3,3 0 0 1 2.9999995,-3 z"
     id="path829"
     inkscape:connector-curvature="0" />
  <path
     style="opacity:1;fill:#232629;fill-opacity:1;stroke:none;stroke-width:2;stroke-linecap:round;stroke-linejoin:round;stroke-miterlimit:4;stroke-dasharray:none;stroke-opacity:1"
     d="m 12,10.000001 a 2,2 0 0 0 -2,2 2,2 0 0 0 2,2 2,2 0 0 0 2,-2 A 2,2 0 0 0 13.91016,11.41211 1,1 0 0 1 13,12.000001 a 1,1 0 0 1 -1,-1 1,1 0 0 1 0.589844,-0.910156 A 2,2 0 0 0 12,10.000005 Z"
     id="path834"
     inkscape:connector-curvature="0" />
  <path
     id="rect833"
     style="opacity:1;fill:#000000;fill-opacity:1;fill-rule:evenodd;stroke:#ffffff;stroke-width:2;stroke-linecap:butt;stroke-linejoin:round;stroke-miterlimit:4;stroke-dasharray:none;stroke-opacity:1"
     d="M 18.717514,4.5753778 19.424621,5.2824846 5.2824856,19.42462 4.5753788,18.717513 Z"
     sodipodi:nodetypes="ccccc" />
  <path
     id="rect831"
     style="opacity:1;fill:url(#linearGradient844);fill-opacity:1;fill-rule:evenodd;stroke:none;stroke-width:2;stroke-linecap:butt;stroke-linejoin:round;stroke-miterlimit:4;stroke-dasharray:none;stroke-opacity:1"
     d="M 18.717514,4.5753778 19.424621,5.2824846 5.2824856,19.42462 4.5753788,18.717513 Z"
     sodipodi:nodetypes="ccccc" />
</svg>
