<?xml version="1.0" encoding="UTF-8" standalone="no"?>
<svg
   viewBox="0 0 24 24"
   version="1.1"
   id="svg6"
   sodipodi:docname="lc_insertfootnote.svg"
   inkscape:version="1.2 (1:1.2.1+202207142221+cd75a1ee6d)"
   inkscape:export-filename="/home/jupiter007/Libreoffice yaru theme fullcolor/build/cmd/lc_insertfootnote.png"
   inkscape:export-xdpi="95"
   inkscape:export-ydpi="95"
   xmlns:inkscape="http://www.inkscape.org/namespaces/inkscape"
   xmlns:sodipodi="http://sodipodi.sourceforge.net/DTD/sodipodi-0.dtd"
   xmlns="http://www.w3.org/2000/svg"
   xmlns:svg="http://www.w3.org/2000/svg"
   xmlns:rdf="http://www.w3.org/1999/02/22-rdf-syntax-ns#"
   xmlns:cc="http://creativecommons.org/ns#"
   xmlns:dc="http://purl.org/dc/elements/1.1/">
  <metadata
     id="metadata12">
    <rdf:RDF>
      <cc:Work
         rdf:about="">
        <dc:format>image/svg+xml</dc:format>
        <dc:type
           rdf:resource="http://purl.org/dc/dcmitype/StillImage" />
      </cc:Work>
    </rdf:RDF>
  </metadata>
  <defs
     id="defs10" />
  <sodipodi:namedview
     pagecolor="#ffffff"
     bordercolor="#666666"
     borderopacity="1"
     objecttolerance="10"
     gridtolerance="10"
     guidetolerance="10"
     inkscape:pageopacity="0"
     inkscape:pageshadow="2"
     inkscape:window-width="1920"
     inkscape:window-height="1043"
     id="namedview8"
     showgrid="true"
     inkscape:zoom="19.666668"
     inkscape:cx="9.991525"
     inkscape:cy="11.440677"
     inkscape:window-x="0"
     inkscape:window-y="0"
     inkscape:window-maximized="1"
     inkscape:current-layer="svg6"
     inkscape:document-rotation="0"
     inkscape:showpageshadow="2"
     inkscape:pagecheckerboard="0"
     inkscape:deskcolor="#d1d1d1">
    <inkscape:grid
       type="xygrid"
       id="grid838" />
  </sodipodi:namedview>
  <path
     sodipodi:nodetypes="cccscsccccccccscscccccc"
     inkscape:connector-curvature="0"
     id="path4237-1"
     d="M 7,3 C 5.7418,3.0145 4.821109,2.969396 4.068359,3.3847656 3.691989,3.5924256 3.395128,3.9441525 3.230468,4.3828125 3.065798,4.8214825 3.005859,5.3424 3.005859,6 V 7.4882812 18.000583 c 0,0.65761 0.0599,1.178577 0.224609,1.617188 0.16468,0.438611 0.461531,0.788524 0.837891,0.996093 C 4.821079,21.028994 5.7419,20.985513 7,21.000583 h 0.002 10.005859 0.0039 c 1.25819,-0.0145 2.178891,0.0306 2.931641,-0.384766 0.37637,-0.20766 0.673221,-0.559386 0.837891,-0.998046 0.164539,-0.438671 0.224618,-0.959578 0.224618,-1.617188 V 7.4667972 6 c 0,-0.6576 -0.0599,-1.1785775 -0.224609,-1.6171875 C 20.61662,3.9442125 20.319769,3.5942787 19.943409,3.3867188 19.190639,2.9715888 18.269808,3.01508 17.011718,3 h -0.002 -10.005859 z"
     style="font-style:normal;font-variant:normal;font-weight:normal;font-stretch:normal;font-size:15px;line-height:125%;font-family:Ubuntu;-inkscape-font-specification:Ubuntu;text-align:center;letter-spacing:0px;word-spacing:0px;writing-mode:lr-tb;text-anchor:middle;display:inline;opacity:0.7;fill:#000000;fill-opacity:1;stroke:none;stroke-width:0.99980211" />
  <path
     inkscape:connector-curvature="0"
     id="path1993"
     d="M 11.989228,4.0271848 C 10.432647,4.0379808 6.879238,4.0154328 5.329287,4.0659598 4.868058,4.1086278 4.313099,4.2723792 4.173947,4.7759266 3.954953,5.411273 4.065533,6.1097138 4.028151,6.7578512 c -0.0078,2.297084 -0.02297,9.5964278 0.02152,11.8857798 0.0391,0.461929 0.202551,1.012666 0.698756,1.163666 0.632456,0.225082 1.284144,0.12274 1.935974,0.154298 1.424235,0.0068 4.850563,0.01102 6.27642,0.01131 1.704531,3.5e-4 3.408388,-0.005 5.10719,-0.01851 0.511911,-0.01201 1.183699,0.01993 1.584745,-0.405191 0.421097,-0.539783 0.287073,-1.268021 0.322745,-1.903787 0.01187,-2.444323 0.02769,-9.9110948 -0.0219,-12.3567945 C 19.904325,4.8865822 19.783609,4.4256704 19.378462,4.2441473 18.710293,3.9500499 17.952257,4.0761284 17.252541,4.0385746 15.498134,4.026772 13.743667,4.0260902 11.989228,4.0271848 Z"
     style="opacity:1;vector-effect:none;fill:#ffffff;fill-opacity:1;stroke:none;stroke-width:1;stroke-linecap:round;stroke-linejoin:bevel;stroke-miterlimit:4;stroke-dasharray:none;stroke-dashoffset:0;stroke-opacity:1"
     sodipodi:nodetypes="cccccccsccccccc" />
  <rect
     style="fill:#000000;fill-rule:evenodd;stroke-width:2;stroke-linecap:square;stroke-linejoin:round"
     id="rect470"
     width="9"
     height="1"
     x="9"
     y="6" />
  <rect
     style="fill:#000000;fill-rule:evenodd;stroke-width:2;stroke-linecap:square;stroke-linejoin:round"
     id="rect526"
     width="5"
     height="1"
     x="9"
     y="8" />
  <path
     style="fill:#00ffff;fill-opacity:1"
     d="m 9.010772,15 v 1 h 8.989228 v -1 z"
     id="path2"
     inkscape:connector-curvature="0"
     sodipodi:nodetypes="ccccc" />
  <path
     style="fill:#00ffff;fill-opacity:1"
     d="m 9.010772,17 v 1 h 6.989228 v -1 z"
     id="path458"
     inkscape:connector-curvature="0"
     sodipodi:nodetypes="ccccc" />
  <path
     id="rect346"
     style="fill:#00ffff;fill-rule:evenodd;stroke-width:2;stroke-linecap:square;stroke-linejoin:round"
     d="m 6,13 v 1 h 1 v -1 z m 0,2 v 3 h 1 v -3 z"
     sodipodi:nodetypes="cccccccccc" />
  <rect
     style="fill:#000000;fill-rule:evenodd;stroke-width:2;stroke-linecap:square;stroke-linejoin:round"
     id="rect748"
     width="7"
     height="1"
     x="9"
     y="10" />
  <path
     id="path343"
     style="fill:#00ffff;fill-rule:evenodd;stroke-width:2;stroke-linecap:square;stroke-linejoin:round"
     d="m 6,6 v 1 h 1 v -1 z m 0,2 v 3 h 1 v -3 z"
     sodipodi:nodetypes="cccccccccc" />
</svg>
