<?xml version="1.0" encoding="UTF-8" standalone="no"?>
<svg
   viewBox="0 0 24 24"
   version="1.1"
   id="svg6"
   sodipodi:docname="lc_insertbookmark.svg"
   inkscape:export-filename="/home/jupiter007/Libreoffice yaru theme fullcolor/build/cmd/lc_insertbookmark.png"
   inkscape:export-xdpi="95"
   inkscape:export-ydpi="95"
   inkscape:version="1.2 (1:1.2.1+202207142221+cd75a1ee6d)"
   xmlns:inkscape="http://www.inkscape.org/namespaces/inkscape"
   xmlns:sodipodi="http://sodipodi.sourceforge.net/DTD/sodipodi-0.dtd"
   xmlns="http://www.w3.org/2000/svg"
   xmlns:svg="http://www.w3.org/2000/svg"
   xmlns:rdf="http://www.w3.org/1999/02/22-rdf-syntax-ns#"
   xmlns:cc="http://creativecommons.org/ns#"
   xmlns:dc="http://purl.org/dc/elements/1.1/">
  <metadata
     id="metadata12">
    <rdf:RDF>
      <cc:Work
         rdf:about="">
        <dc:format>image/svg+xml</dc:format>
        <dc:type
           rdf:resource="http://purl.org/dc/dcmitype/StillImage" />
      </cc:Work>
    </rdf:RDF>
  </metadata>
  <defs
     id="defs10" />
  <sodipodi:namedview
     pagecolor="#ffffff"
     bordercolor="#666666"
     borderopacity="1"
     objecttolerance="10"
     gridtolerance="10"
     guidetolerance="10"
     inkscape:pageopacity="0"
     inkscape:pageshadow="2"
     inkscape:window-width="1920"
     inkscape:window-height="1043"
     id="namedview8"
     showgrid="true"
     inkscape:zoom="32.000001"
     inkscape:cx="18.937499"
     inkscape:cy="14.0625"
     inkscape:window-x="0"
     inkscape:window-y="0"
     inkscape:window-maximized="1"
     inkscape:current-layer="svg6"
     inkscape:document-rotation="0"
     inkscape:showpageshadow="2"
     inkscape:pagecheckerboard="0"
     inkscape:deskcolor="#d1d1d1">
    <inkscape:grid
       type="xygrid"
       id="grid832" />
  </sodipodi:namedview>
  <g
     id="g844"
     font-weight="400"
     style="color:#000000;font-weight:400;font-family:sans-serif;white-space:normal;opacity:0.7;fill:#000000;fill-opacity:1;stroke:#000000;stroke-width:2;stroke-miterlimit:4;stroke-dasharray:none"
     transform="translate(4,4)">
    <path
       sodipodi:nodetypes="ccccscsccccscccccccc"
       id="path842"
       overflow="visible"
       style="line-height:normal;font-variant-ligatures:none;font-variant-position:normal;font-variant-caps:normal;font-variant-numeric:normal;font-variant-alternates:normal;font-feature-settings:normal;text-indent:0;text-align:start;text-decoration:none;text-decoration-line:none;text-decoration-style:solid;text-decoration-color:#000000;text-transform:none;shape-padding:0;overflow:visible;isolation:auto;mix-blend-mode:normal;fill:#000000;fill-opacity:1;stroke:#000000;stroke-width:2;stroke-miterlimit:4;stroke-dasharray:none;marker:none"
       d="M 17,10 V 3 C 17,1 16,1 14,1 H 13 10 C 8.964,1 8.365,2.145 8,2.5 7.635,2.145 7.036,1 6,1 H 2 C 0,1 -1,1 -1,3 v 9 c 0,2 1,2 3,2 h 4 c 0.975,0 1.602,0.8 1.602,0.8 l 0.39,0.518 0.4,-0.51 c 0,0 0.65,-0.79 1.608,-0.808 h 1 3 c 2,0 3,0 3,-2 z"
       inkscape:connector-curvature="0" />
  </g>
  <g
     id="g856"
     font-weight="400"
     style="color:#000000;font-weight:400;font-family:sans-serif;white-space:normal;opacity:1;fill:#ffffff;fill-opacity:1"
     transform="translate(4,4)">
    <path
       sodipodi:nodetypes="ccccscsccccscccccccc"
       id="path854"
       overflow="visible"
       style="line-height:normal;font-variant-ligatures:none;font-variant-position:normal;font-variant-caps:normal;font-variant-numeric:normal;font-variant-alternates:normal;font-feature-settings:normal;text-indent:0;text-align:start;text-decoration:none;text-decoration-line:none;text-decoration-style:solid;text-decoration-color:#000000;text-transform:none;shape-padding:0;overflow:visible;isolation:auto;mix-blend-mode:normal;fill:#ffffff;fill-opacity:1;marker:none"
       d="M 17,10 V 3 C 17,1 16,1 14,1 H 13 10 C 8.964,1 8.365,2.145 8,2.5 7.635,2.145 7.036,1 6,1 H 2 C 0,1 -1,1 -1,3 v 9 c 0,2 1,2 3,2 h 4 c 0.975,0 1.602,0.8 1.602,0.8 l 0.39,0.518 0.4,-0.51 c 0,0 0.65,-0.79 1.608,-0.808 h 1 3 c 2,0 3,0 3,-2 z"
       inkscape:connector-curvature="0" />
  </g>
  <g
     transform="translate(-3,3)"
     style="color:#000000;font-weight:400;font-family:sans-serif;white-space:normal;opacity:0.7;fill:#090000;fill-opacity:1"
     font-weight="400"
     id="g6">
    <path
       style="fill:#090000;fill-opacity:1;stroke:none;stroke-width:1px;stroke-linecap:butt;stroke-linejoin:miter;stroke-opacity:1"
       d="m 18,2 h 3 v 6 l -3,1 z"
       id="path858"
       inkscape:connector-curvature="0" />
  </g>
  <rect
     style="opacity:1;fill:#00ff00;fill-opacity:1;stroke:none;stroke-width:2;stroke-linecap:round;stroke-linejoin:round;stroke-miterlimit:4;stroke-dasharray:none;stroke-opacity:1"
     id="rect842"
     width="4"
     height="1"
     x="6"
     y="8" />
  <rect
     style="opacity:1;fill:#00ff00;fill-opacity:1;stroke:none;stroke-width:2;stroke-linecap:round;stroke-linejoin:round;stroke-miterlimit:4;stroke-dasharray:none;stroke-opacity:1"
     id="rect844"
     width="4"
     height="1"
     x="6"
     y="10" />
  <rect
     style="opacity:1;fill:#00ff00;fill-opacity:1;stroke:none;stroke-width:2;stroke-linecap:round;stroke-linejoin:round;stroke-miterlimit:4;stroke-dasharray:none;stroke-opacity:1"
     id="rect846"
     width="4"
     height="1"
     x="6"
     y="12" />
  <rect
     style="opacity:1;fill:#00ff00;fill-opacity:1;stroke:none;stroke-width:2;stroke-linecap:round;stroke-linejoin:round;stroke-miterlimit:4;stroke-dasharray:none;stroke-opacity:1"
     id="rect848"
     width="4"
     height="1"
     x="6"
     y="14" />
</svg>
