<?xml version="1.0" encoding="UTF-8" standalone="no"?>
<svg
   viewBox="0 0 24 24"
   version="1.1"
   id="svg6"
   sodipodi:docname="lc_insertendnote.svg"
   inkscape:export-filename="/home/jupiter007/Libreoffice yaru theme fullcolor/build/cmd/lc_insertendnote.png"
   inkscape:export-xdpi="95"
   inkscape:export-ydpi="95"
   inkscape:version="1.2 (1:1.2.1+202207142221+cd75a1ee6d)"
   xmlns:inkscape="http://www.inkscape.org/namespaces/inkscape"
   xmlns:sodipodi="http://sodipodi.sourceforge.net/DTD/sodipodi-0.dtd"
   xmlns="http://www.w3.org/2000/svg"
   xmlns:svg="http://www.w3.org/2000/svg"
   xmlns:rdf="http://www.w3.org/1999/02/22-rdf-syntax-ns#"
   xmlns:cc="http://creativecommons.org/ns#"
   xmlns:dc="http://purl.org/dc/elements/1.1/">
  <metadata
     id="metadata12">
    <rdf:RDF>
      <cc:Work
         rdf:about="">
        <dc:format>image/svg+xml</dc:format>
        <dc:type
           rdf:resource="http://purl.org/dc/dcmitype/StillImage" />
      </cc:Work>
    </rdf:RDF>
  </metadata>
  <defs
     id="defs10" />
  <sodipodi:namedview
     pagecolor="#ffffff"
     bordercolor="#666666"
     borderopacity="1"
     objecttolerance="10"
     gridtolerance="10"
     guidetolerance="10"
     inkscape:pageopacity="0"
     inkscape:pageshadow="2"
     inkscape:window-width="1920"
     inkscape:window-height="1043"
     id="namedview8"
     showgrid="true"
     inkscape:zoom="13.906434"
     inkscape:cx="1.8336837"
     inkscape:cy="5.8246422"
     inkscape:window-x="0"
     inkscape:window-y="0"
     inkscape:window-maximized="1"
     inkscape:current-layer="svg6"
     inkscape:document-rotation="0"
     inkscape:showpageshadow="2"
     inkscape:pagecheckerboard="0"
     inkscape:deskcolor="#d1d1d1">
    <inkscape:grid
       type="xygrid"
       id="grid844" />
  </sodipodi:namedview>
  <path
     sodipodi:nodetypes="cccscsccccccccscscccccc"
     inkscape:connector-curvature="0"
     id="path4237-1"
     d="m 4.994141,1.011385 c -1.2582,0.0145 -2.1788911,-0.030604 -2.9316411,0.3847656 -0.37637,0.20766 -0.6732309,0.5593869 -0.8378909,0.9980471 -0.16467,0.43867 -0.224609,0.9595873 -0.224609,1.6171873 v 0.413977 7.586023 c 0,0.65761 0.0599,1.178577 0.224609,1.617188 0.16468,0.438611 0.4615309,0.788524 0.8378909,0.996093 0.75272,0.41513 1.6735411,0.371649 2.9316411,0.386719 h 0.002 7.053753 0.0039 c 1.25819,-0.0145 2.178891,0.0306 2.931641,-0.384766 0.37637,-0.20766 0.673221,-0.559386 0.837891,-0.998046 0.164539,-0.438671 0.224618,-0.959578 0.224618,-1.617188 v -7.607507 -0.392493 c 0,-0.6576 -0.0599,-1.1785773 -0.224609,-1.6171873 -0.16468,-0.4386002 -0.461531,-0.788534 -0.837891,-0.9960939 -0.75277,-0.41513 -1.673601,-0.3716388 -2.931691,-0.3867188 h -0.002 -7.053754 z"
     style="font-style:normal;font-variant:normal;font-weight:normal;font-stretch:normal;font-size:15px;line-height:125%;font-family:Ubuntu;-inkscape-font-specification:Ubuntu;text-align:center;letter-spacing:0px;word-spacing:0px;writing-mode:lr-tb;text-anchor:middle;display:inline;opacity:0.7;fill:#000000;fill-opacity:1;stroke:none;stroke-width:0.999802" />
  <path
     inkscape:connector-curvature="0"
     id="path1993"
     d="m 9.033361,2 c -1.55658,0.0108 -4.15754,-0.011752 -5.707491,0.03877 -0.461229,0.04267 -1.016188,0.206419 -1.15534,0.709967 -0.218994,0.635346 -0.108414,1.333787 -0.145796,1.981925 -0.0078,2.297084 -0.02297,5.662097 0.02152,7.951449 0.0391,0.461929 0.202551,1.012666 0.698756,1.163666 0.632456,0.225082 1.284143,0.12274 1.935974,0.154298 1.424234,0.0068 3.898114,0.01102 5.323971,0.01131 1.70453,3.5e-4 1.408732,-0.005 3.107534,-0.01851 0.511911,-0.01201 1.183699,0.01993 1.584745,-0.405191 0.421097,-0.539783 0.287073,-1.268021 0.322745,-1.903787 0.01187,-2.444323 0.02769,-5.976764 -0.0219,-8.422464 -0.04928,-0.402041 -0.169992,-0.862952 -0.575139,-1.044475 -0.668169,-0.2940979 -1.426205,-0.168019 -2.125921,-0.205573 -1.754407,-0.011803 -1.509218,-0.012484 -3.263658,-0.01139 z"
     style="opacity:1;fill:#ffffff;fill-opacity:1;stroke:none;stroke-width:1;stroke-linecap:round;stroke-linejoin:bevel;stroke-miterlimit:4;stroke-dasharray:none;stroke-dashoffset:0;stroke-opacity:1"
     sodipodi:nodetypes="cccccccscccccccc" />
  <path
     sodipodi:nodetypes="cccscsccccccccscscccccc"
     inkscape:connector-curvature="0"
     id="path408"
     d="m 10.969407,8 c -1.2582,0.0145 -2.1788911,-0.030604 -2.9316411,0.3847656 -0.37637,0.20766 -0.6732309,0.5593869 -0.8378909,0.9980471 -0.16467,0.43867 -0.224609,0.9595873 -0.224609,1.6171873 v 0.413977 7.586023 c 0,0.65761 0.0599,1.178577 0.224609,1.617188 0.16468,0.438611 0.4615309,0.788524 0.8378909,0.996093 0.75272,0.41513 1.6735411,0.371649 2.9316411,0.386719 h 0.002 7.053753 0.0039 c 1.25819,-0.0145 2.178891,0.0306 2.931641,-0.384766 0.37637,-0.20766 0.673221,-0.559386 0.837891,-0.998046 0.164539,-0.438671 0.224618,-0.959578 0.224618,-1.617188 v -7.607507 -0.392493 c 0,-0.6576 -0.0599,-1.1785773 -0.224609,-1.6171873 -0.16468,-0.4386002 -0.461531,-0.788534 -0.837891,-0.9960939 -0.75277,-0.41513 -1.673601,-0.3716388 -2.931691,-0.3867188 h -0.002 -7.053754 z"
     style="font-style:normal;font-variant:normal;font-weight:normal;font-stretch:normal;font-size:15px;line-height:125%;font-family:Ubuntu;-inkscape-font-specification:Ubuntu;text-align:center;letter-spacing:0px;word-spacing:0px;writing-mode:lr-tb;text-anchor:middle;display:inline;opacity:0.7;fill:#000000;fill-opacity:1;stroke:none;stroke-width:0.999802" />
  <path
     inkscape:connector-curvature="0"
     id="path410"
     d="m 15.008627,8.988615 c -1.55658,0.0108 -4.15754,-0.011752 -5.707491,0.03877 -0.461229,0.04267 -1.016188,0.206419 -1.15534,0.709967 -0.218994,0.635346 -0.108414,1.333787 -0.145796,1.981925 -0.0078,2.297084 -0.02297,5.662097 0.02152,7.951449 0.0391,0.461929 0.202551,1.012666 0.698756,1.163666 0.632456,0.225082 1.284143,0.12274 1.935974,0.154298 1.424234,0.0068 3.898114,0.01102 5.323971,0.01131 1.70453,3.5e-4 1.408732,-0.005 3.107534,-0.01851 0.511911,-0.01201 1.183699,0.01993 1.584745,-0.405191 0.421097,-0.539783 0.287073,-1.268021 0.322745,-1.903787 0.01187,-2.444323 0.02769,-5.976764 -0.0219,-8.422464 -0.04928,-0.402041 -0.169992,-0.862952 -0.575139,-1.044475 -0.668169,-0.2940979 -1.426205,-0.168019 -2.125921,-0.205573 -1.754407,-0.011803 -1.509218,-0.012484 -3.263658,-0.01139 z"
     style="opacity:1;fill:#ffffff;fill-opacity:1;stroke:none;stroke-width:1;stroke-linecap:round;stroke-linejoin:bevel;stroke-miterlimit:4;stroke-dasharray:none;stroke-dashoffset:0;stroke-opacity:1"
     sodipodi:nodetypes="cccccccscccccccc" />
  <path
     style="fill:#000000;fill-opacity:1"
     d="m 6,4 v 1 h 7 v -1 z"
     id="path848"
     sodipodi:nodetypes="ccccc" />
  <path
     style="fill:#00ffff;fill-opacity:1;stroke-width:1.19615"
     d="m 12,18 v 1 h 4.999999 v -1 z"
     id="path2-3"
     inkscape:connector-curvature="0"
     sodipodi:nodetypes="ccccc" />
  <path
     style="fill:#00ffff;fill-opacity:1"
     d="m 12,16 v 1 h 6.999999 v -1 z"
     id="path2"
     inkscape:connector-curvature="0"
     sodipodi:nodetypes="ccccc" />
  <path
     id="rect629"
     style="fill:#00ffff;fill-rule:evenodd;stroke-width:1.5;stroke-linejoin:round"
     d="m 10,14 v 1 h 1 v -1 z m 0,2 v 3 h 1 v -3 z"
     sodipodi:nodetypes="cccccccccc" />
  <path
     id="path345"
     style="fill:#00ffff;fill-rule:evenodd;stroke-width:1.5;stroke-linejoin:round"
     d="m 4,4 v 1 h 1 v -1 z m 0,2 v 3 h 1 v -3 z"
     sodipodi:nodetypes="cccccccccc" />
  <path
     style="fill:#000000;fill-opacity:1"
     d="m 6,6 v 1 h 5 v -1 z"
     id="path403"
     sodipodi:nodetypes="ccccc" />
</svg>
