<?xml version="1.0" encoding="UTF-8" standalone="no"?>
<svg
   viewBox="0 0 24 24"
   version="1.1"
   id="svg6"
   sodipodi:docname="lc_insertendnote.svg"
   inkscape:export-filename="/home/jupiter007/Libreoffice yaru theme fullcolor/build/cmd/lc_insertendnote.png"
   inkscape:export-xdpi="95"
   inkscape:export-ydpi="95"
   inkscape:version="1.2 (1:1.2.1+202207142221+cd75a1ee6d)"
   xmlns:inkscape="http://www.inkscape.org/namespaces/inkscape"
   xmlns:sodipodi="http://sodipodi.sourceforge.net/DTD/sodipodi-0.dtd"
   xmlns="http://www.w3.org/2000/svg"
   xmlns:svg="http://www.w3.org/2000/svg"
   xmlns:rdf="http://www.w3.org/1999/02/22-rdf-syntax-ns#"
   xmlns:cc="http://creativecommons.org/ns#"
   xmlns:dc="http://purl.org/dc/elements/1.1/">
  <metadata
     id="metadata12">
    <rdf:RDF>
      <cc:Work
         rdf:about="">
        <dc:format>image/svg+xml</dc:format>
        <dc:type
           rdf:resource="http://purl.org/dc/dcmitype/StillImage" />
      </cc:Work>
    </rdf:RDF>
  </metadata>
  <defs
     id="defs10" />
  <sodipodi:namedview
     pagecolor="#ffffff"
     bordercolor="#666666"
     borderopacity="1"
     objecttolerance="10"
     gridtolerance="10"
     guidetolerance="10"
     inkscape:pageopacity="0"
     inkscape:pageshadow="2"
     inkscape:window-width="1920"
     inkscape:window-height="1043"
     id="namedview8"
     showgrid="true"
     inkscape:zoom="9.8333335"
     inkscape:cx="-23.949152"
     inkscape:cy="0"
     inkscape:window-x="0"
     inkscape:window-y="0"
     inkscape:window-maximized="1"
     inkscape:current-layer="svg6"
     inkscape:document-rotation="0"
     inkscape:showpageshadow="2"
     inkscape:pagecheckerboard="0"
     inkscape:deskcolor="#d1d1d1">
    <inkscape:grid
       type="xygrid"
       id="grid844" />
  </sodipodi:namedview>
  <path
     style="font-style:normal;font-variant:normal;font-weight:normal;font-stretch:normal;font-size:15px;line-height:125%;font-family:Ubuntu;-inkscape-font-specification:Ubuntu;text-align:center;letter-spacing:0px;word-spacing:0px;writing-mode:lr-tb;text-anchor:middle;display:inline;opacity:0.7;fill:#000000;fill-opacity:1;stroke:none;stroke-width:0.999802"
     d="m 5,0.9999998 c -1.2582,0.0145 -2.178891,-0.030604 -2.931641,0.3847656 -0.37637,0.20766 -0.673231,0.5593869 -0.837891,0.9980469 -0.16467,0.43867 -0.224609,0.9595875 -0.224609,1.6171875 v 1.4882812 8.512302 c 0,0.65761 0.0599,1.178577 0.224609,1.617188 0.16468,0.438611 0.461531,0.788524 0.837891,0.996093 0.75272,0.41513 1.673541,0.371649 2.931641,0.386719 h 0.002 8.006462 0.0039 c 1.25819,-0.0145 2.178891,0.0306 2.931641,-0.384766 0.376371,-0.20766 0.673221,-0.559386 0.837891,-0.998046 0.164539,-0.438671 0.224618,-0.959578 0.224618,-1.617188 v -8.533786 -1.4667972 c 0,-0.6576 -0.0599,-1.1785775 -0.224609,-1.6171875 -0.16468,-0.4386 -0.461531,-0.7885338 -0.837891,-0.9960937 -0.75277,-0.41513 -1.673601,-0.3716388 -2.931691,-0.3867188 h -0.002 -8.006462 z"
     id="path851"
     inkscape:connector-curvature="0"
     sodipodi:nodetypes="cccscsccccccccscscccccc" />
  <path
     sodipodi:nodetypes="cccccccsccccccc"
     style="opacity:1;fill:#ffffff;fill-opacity:1;stroke:none;stroke-width:1;stroke-linecap:round;stroke-linejoin:bevel;stroke-miterlimit:4;stroke-dasharray:none;stroke-dashoffset:0;stroke-opacity:1"
     d="m 9.989487,2.0271846 c -1.5565805,0.010796 -5.110249,-0.011752 -6.6602,0.038775 -0.461229,0.042668 -1.016188,0.2064194 -1.15534,0.7099668 -0.218994,0.6353464 -0.108414,1.3337872 -0.145796,1.9819246 -0.0078,2.297084 -0.02297,7.596428 0.02152,9.88578 0.0391,0.461929 0.202551,1.012666 0.698756,1.163666 0.632456,0.225082 1.284144,0.12274 1.935974,0.154298 1.424235,0.0068 4.850822,0.01102 6.27668,0.01131 1.70453,3.5e-4 1.408732,-0.005 3.107533,-0.01851 0.511911,-0.01201 1.183699,0.01993 1.584745,-0.405191 0.421097,-0.539783 0.287073,-1.268021 0.322745,-1.903787 0.01187,-2.444323 0.02769,-7.911095 -0.0219,-10.3567947 -0.04928,-0.4020403 -0.169992,-0.8629521 -0.575139,-1.0444752 -0.668169,-0.2940974 -1.426205,-0.1680189 -2.125921,-0.2055727 -1.754407,-0.011803 -1.509218,-0.012484 -3.263657,-0.01139 z"
     id="path853"
     inkscape:connector-curvature="0" />
  <path
     id="path848"
     style="fill:#000000;fill-opacity:1"
     d="M 4 4 L 4 5 L 14 5 L 14 4 L 4 4 z M 4 6 L 4 7 L 7.421875 7 C 7.5902246 6.7266516 7.8179275 6.5052949 8.0859375 6.3574219 C 8.5169956 6.1195628 9.0050817 6.0335219 9.578125 6 L 4 6 z M 6 10 L 6 11 L 7.0234375 11 L 7.0234375 10.460938 L 7.0234375 10 L 6 10 z M 6 13 L 6 14 L 7.0234375 14 L 7.0234375 13 L 6 13 z " />
  <path
     sodipodi:nodetypes="cccscsccccccccscscccccc"
     inkscape:connector-curvature="0"
     id="path4237-1"
     d="m 11.016958,5.9723923 c -1.2582005,0.0145 -2.1788915,-0.030604 -2.9316415,0.3847656 -0.37637,0.20766 -0.6732309,0.5593869 -0.8378909,0.9980469 -0.16467,0.43867 -0.224609,0.9595874 -0.224609,1.6171874 v 1.4882818 8.613631 c 0,0.65761 0.0599,1.178577 0.224609,1.617188 0.16468,0.438611 0.4615309,0.788524 0.8378909,0.996093 0.75272,0.41513 1.673541,0.371649 2.9316415,0.386719 h 0.002 8.006202 0.0039 c 1.25819,-0.0145 2.178891,0.0306 2.931641,-0.384766 0.37637,-0.20766 0.673221,-0.559386 0.837891,-0.998046 0.164539,-0.438671 0.224618,-0.959578 0.224618,-1.617188 v -8.635115 -1.4667978 c 0,-0.6576 -0.0599,-1.1785774 -0.224609,-1.6171874 -0.16468,-0.4386 -0.461531,-0.7885338 -0.837891,-0.9960937 -0.75277,-0.41513 -1.673601,-0.3716388 -2.931691,-0.3867188 h -0.002 -8.006203 z"
     style="font-style:normal;font-variant:normal;font-weight:normal;font-stretch:normal;font-size:15px;line-height:125%;font-family:Ubuntu;-inkscape-font-specification:Ubuntu;text-align:center;letter-spacing:0px;word-spacing:0px;writing-mode:lr-tb;text-anchor:middle;display:inline;opacity:0.7;fill:#000000;fill-opacity:1;stroke:none;stroke-width:0.999802" />
  <path
     inkscape:connector-curvature="0"
     id="path1993"
     d="m 16.008627,7 c -1.55658,0.010796 -5.109989,-0.011752 -6.6599404,0.038775 -0.461229,0.042668 -1.016188,0.2064194 -1.15534,0.7099668 -0.218994,0.6353464 -0.108414,1.3337872 -0.145796,1.9819252 -0.0078,2.297084 -0.02297,7.697757 0.02152,9.987109 0.0391,0.461929 0.202551,1.012666 0.698756,1.163666 0.632456,0.225082 1.2841434,0.12274 1.9359744,0.154298 1.424234,0.0068 4.850563,0.01102 6.27642,0.01131 1.70453,3.5e-4 1.408732,-0.005 3.107534,-0.01851 0.511911,-0.01201 1.183699,0.01993 1.584745,-0.405191 0.421097,-0.539783 0.287073,-1.268021 0.322745,-1.903787 0.01187,-2.444323 0.02769,-8.012424 -0.0219,-10.4581238 -0.04928,-0.4020408 -0.169992,-0.8629526 -0.575139,-1.0444757 -0.668169,-0.2940974 -1.426205,-0.1680189 -2.125921,-0.2055727 -1.754407,-0.011803 -1.509218,-0.012484 -3.263658,-0.01139 z"
     style="opacity:1;vector-effect:none;fill:#ffffff;fill-opacity:1;stroke:none;stroke-width:1;stroke-linecap:round;stroke-linejoin:bevel;stroke-miterlimit:4;stroke-dasharray:none;stroke-dashoffset:0;stroke-opacity:1"
     sodipodi:nodetypes="cccccccsccccccc" />
  <path
     style="fill:#00ffff;fill-opacity:1;stroke-width:1.19615"
     d="m 12,18 v 1 h 5.999999 v -1 z"
     id="path2-3"
     inkscape:connector-curvature="0"
     sodipodi:nodetypes="ccccc" />
  <path
     style="fill:#00ffff;fill-opacity:1"
     d="m 12,16 v 1 h 7.999999 v -1 z"
     id="path2"
     inkscape:connector-curvature="0"
     sodipodi:nodetypes="ccccc" />
  <path
     id="rect629"
     style="fill:#00ffff;fill-rule:evenodd;stroke-width:1.5;stroke-linejoin:round"
     d="m 10,14 v 1 h 1 v -1 z m 0,2 v 3 h 1 v -3 z"
     sodipodi:nodetypes="cccccccccc" />
  <rect
     style="fill:#000000;fill-rule:evenodd;stroke-width:2;stroke-linecap:square;stroke-linejoin:round"
     id="rect470"
     width="10"
     height="1"
     x="10"
     y="9" />
  <rect
     style="fill:#000000;fill-rule:evenodd;stroke-width:2;stroke-linecap:square;stroke-linejoin:round"
     id="rect526"
     width="8"
     height="1"
     x="10"
     y="11" />
  <path
     id="path345"
     style="fill:#00ffff;fill-rule:evenodd;stroke-width:1.5;stroke-linejoin:round"
     d="m 4,9 v 1 h 1 v -1 z m 0,2 v 3 h 1 v -3 z"
     sodipodi:nodetypes="cccccccccc" />
</svg>
