<?xml version="1.0" encoding="UTF-8" standalone="no"?>
<svg
   viewBox="0 0 24 24"
   version="1.1"
   id="svg6"
   sodipodi:docname="lc_insertneutralparagraph.svg"
   inkscape:version="1.4.2 (ebf0e940d0, 2025-05-08)"
   inkscape:export-filename="/home/jupiter007/Libreoffice yaru theme fullcolor/build/cmd/lc_insertneutralparagraph.png"
   inkscape:export-xdpi="96"
   inkscape:export-ydpi="96"
   xmlns:inkscape="http://www.inkscape.org/namespaces/inkscape"
   xmlns:sodipodi="http://sodipodi.sourceforge.net/DTD/sodipodi-0.dtd"
   xmlns="http://www.w3.org/2000/svg"
   xmlns:svg="http://www.w3.org/2000/svg"
   xmlns:rdf="http://www.w3.org/1999/02/22-rdf-syntax-ns#"
   xmlns:cc="http://creativecommons.org/ns#"
   xmlns:dc="http://purl.org/dc/elements/1.1/">
  <path
     id="rect861"
     style="fill:#0000ff;fill-rule:evenodd;stroke-width:3;stroke-linecap:round;stroke-linejoin:round"
     d="M 9 -4 L 9 -5 L 23 -5 L 23 -4 L 9 -4 z M 9 -6 L 9 -7 L 19 -7 L 19 -6 L 9 -6 z M 9 -10 L 9 -11 L 23 -11 L 23 -10 L 9 -10 z M 9 -12 L 9 -13 L 19 -13 L 19 -12 L 9 -12 z M 9 -16 L 9 -17 L 23 -17 L 23 -16 L 9 -16 z M 9 -18 L 9 -19 L 19 -19 L 19 -18 L 9 -18 z "
     transform="scale(1,-1)" />
  <metadata
     id="metadata12">
    <rdf:RDF>
      <cc:Work
         rdf:about="">
        <dc:format>image/svg+xml</dc:format>
        <dc:type
           rdf:resource="http://purl.org/dc/dcmitype/StillImage" />
        <dc:title />
      </cc:Work>
    </rdf:RDF>
  </metadata>
  <defs
     id="defs10" />
  <sodipodi:namedview
     pagecolor="#ffffff"
     bordercolor="#666666"
     borderopacity="1"
     objecttolerance="10"
     gridtolerance="10"
     guidetolerance="10"
     inkscape:pageopacity="0"
     inkscape:pageshadow="2"
     inkscape:window-width="1920"
     inkscape:window-height="1011"
     id="namedview8"
     showgrid="true"
     inkscape:zoom="27.812867"
     inkscape:cx="0.91684183"
     inkscape:cy="12.458263"
     inkscape:window-x="0"
     inkscape:window-y="0"
     inkscape:window-maximized="1"
     inkscape:current-layer="svg6"
     inkscape:document-rotation="0"
     inkscape:showpageshadow="2"
     inkscape:pagecheckerboard="0"
     inkscape:deskcolor="#d1d1d1">
    <inkscape:grid
       type="xygrid"
       id="grid822"
       originx="0"
       originy="0"
       spacingy="1"
       spacingx="1"
       units="px" />
  </sodipodi:namedview>
  <path
     id="rect846"
     style="opacity:1;fill:#00ff00;fill-opacity:1;stroke:none;stroke-width:2;stroke-linecap:round;stroke-linejoin:round;stroke-miterlimit:4;stroke-dasharray:none;stroke-opacity:1"
     d="M 4 4 L 4 5 L 5 5 L 5 7 L 4 7 L 4 8 L 7 8 L 7 7 L 6 7 L 6 5 L 7 5 L 7 4 L 4 4 z M 2 16 L 2 17 L 3 17 L 3 19 L 2 19 L 2 20 L 7 20 L 7 19 L 6 19 L 6 17 L 7 17 L 7 16 L 2 16 z M 4 17 L 5 17 L 5 19 L 4 19 L 4 17 z " />
</svg>
