<?xml version="1.0" encoding="UTF-8" standalone="no"?>
<svg
   viewBox="0 0 24 24"
   version="1.1"
   id="svg6"
   sodipodi:docname="lc_jumpupthislevel.svg"
   inkscape:version="1.4.2 (ebf0e940d0, 2025-05-08)"
   inkscape:export-filename="/home/jupiter007/Libreoffice yaru theme fullcolor/build/cmd/lc_removebullets.png"
   inkscape:export-xdpi="96"
   inkscape:export-ydpi="96"
   xmlns:inkscape="http://www.inkscape.org/namespaces/inkscape"
   xmlns:sodipodi="http://sodipodi.sourceforge.net/DTD/sodipodi-0.dtd"
   xmlns="http://www.w3.org/2000/svg"
   xmlns:svg="http://www.w3.org/2000/svg"
   xmlns:rdf="http://www.w3.org/1999/02/22-rdf-syntax-ns#"
   xmlns:cc="http://creativecommons.org/ns#"
   xmlns:dc="http://purl.org/dc/elements/1.1/">
  <metadata
     id="metadata12">
    <rdf:RDF>
      <cc:Work
         rdf:about="">
        <dc:format>image/svg+xml</dc:format>
        <dc:type
           rdf:resource="http://purl.org/dc/dcmitype/StillImage" />
      </cc:Work>
    </rdf:RDF>
  </metadata>
  <defs
     id="defs10" />
  <sodipodi:namedview
     pagecolor="#ffffff"
     bordercolor="#666666"
     borderopacity="1"
     objecttolerance="10"
     gridtolerance="10"
     guidetolerance="10"
     inkscape:pageopacity="0"
     inkscape:pageshadow="2"
     inkscape:window-width="1920"
     inkscape:window-height="1011"
     id="namedview8"
     showgrid="false"
     inkscape:zoom="22.627416"
     inkscape:cx="7.7118837"
     inkscape:cy="13.766486"
     inkscape:window-x="0"
     inkscape:window-y="0"
     inkscape:window-maximized="1"
     inkscape:current-layer="svg6"
     inkscape:document-rotation="0"
     inkscape:pagecheckerboard="0"
     inkscape:showpageshadow="2"
     inkscape:deskcolor="#bfbfbf">
    <inkscape:grid
       type="xygrid"
       id="grid822"
       originx="0"
       originy="0"
       spacingy="1"
       spacingx="1"
       units="px" />
    <inkscape:grid
       type="xygrid"
       id="grid919"
       dotted="true"
       spacingx="0.5"
       spacingy="0.5"
       empspacing="10"
       originx="0"
       originy="0"
       units="px" />
  </sodipodi:namedview>
  <path
     id="rect843-2"
     style="fill:#00ff00;fill-rule:evenodd;stroke-width:3;stroke-linecap:round;stroke-linejoin:round"
     d="M 4 -2 L 4 -7 L 7 -4.5 L 4 -2 z M 8 -2 L 8 -3 L 22 -3 L 22 -2 L 8 -2 z M 8 -4 L 8 -5 L 16 -5 L 16 -4 L 8 -4 z M 8 -6 L 8 -7 L 18 -7 L 18 -6 L 8 -6 z M 8 -17 L 8 -18 L 22 -18 L 22 -17 L 8 -17 z M 8 -19 L 8 -20 L 16 -20 L 16 -19 L 8 -19 z M 8 -21 L 8 -22 L 18 -22 L 18 -21 L 8 -21 z "
     transform="scale(1,-1)" />
  <path
     id="rect866"
     style="fill:#0000ff;fill-rule:evenodd;stroke-width:3;stroke-linecap:round;stroke-linejoin:round"
     d="M 8 -9 L 8 -10 L 22 -10 L 22 -9 L 8 -9 z M 8 -11 L 8 -12 L 16 -12 L 16 -11 L 8 -11 z M 8 -13 L 8 -14 L 18 -14 L 18 -13 L 8 -13 z "
     transform="scale(1,-1)" />
  <path
     style="fill:none;stroke:#00ff00;stroke-width:1px;stroke-linecap:butt;stroke-linejoin:miter"
     d="M 7,19.5 H 5 C 2.9460449,19.474243 2.5,19 2.5,17 V 7 C 2.5,5 3,4.5 5,4.5"
     id="path484"
     sodipodi:nodetypes="ccccc" />
</svg>
