<?xml version="1.0" encoding="UTF-8" standalone="no"?>
<svg
   xmlns:dc="http://purl.org/dc/elements/1.1/"
   xmlns:cc="http://creativecommons.org/ns#"
   xmlns:rdf="http://www.w3.org/1999/02/22-rdf-syntax-ns#"
   xmlns:svg="http://www.w3.org/2000/svg"
   xmlns="http://www.w3.org/2000/svg"
   xmlns:sodipodi="http://sodipodi.sourceforge.net/DTD/sodipodi-0.dtd"
   xmlns:inkscape="http://www.inkscape.org/namespaces/inkscape"
   viewBox="0 0 24 24"
   version="1.1"
   id="svg4"
   sodipodi:docname="lc_outputqualityblackwhite.svg"
   inkscape:export-filename="/home/jupiter007/Libreoffice yaru theme fullcolor/build/cmd/lc_outputqualityblackwhite.png"
   inkscape:export-xdpi="96"
   inkscape:export-ydpi="96"
   inkscape:version="1.0.1 (3bc2e813f5, 2020-09-07)">
  <metadata
     id="metadata10">
    <rdf:RDF>
      <cc:Work
         rdf:about="">
        <dc:format>image/svg+xml</dc:format>
        <dc:type
           rdf:resource="http://purl.org/dc/dcmitype/StillImage" />
      </cc:Work>
    </rdf:RDF>
  </metadata>
  <defs
     id="defs8" />
  <sodipodi:namedview
     pagecolor="#ffffff"
     bordercolor="#666666"
     borderopacity="1"
     objecttolerance="10"
     gridtolerance="10"
     guidetolerance="10"
     inkscape:pageopacity="0"
     inkscape:pageshadow="2"
     inkscape:window-width="1920"
     inkscape:window-height="1011"
     id="namedview6"
     showgrid="true"
     inkscape:zoom="19.666667"
     inkscape:cx="-0.36359016"
     inkscape:cy="9.8197876"
     inkscape:window-x="0"
     inkscape:window-y="0"
     inkscape:window-maximized="1"
     inkscape:current-layer="svg4"
     inkscape:snap-bbox="true"
     inkscape:bbox-paths="false"
     inkscape:bbox-nodes="true"
     inkscape:snap-nodes="true"
     inkscape:document-rotation="0">
    <inkscape:grid
       type="xygrid"
       id="grid825" />
  </sodipodi:namedview>
  <path
     sodipodi:nodetypes="cccscsccccccccscscccccc"
     inkscape:connector-curvature="0"
     id="path4237-1-2"
     d="M 6,3 C 4.7418,3.0145 3.821109,2.969396 3.068359,3.3847656 2.691989,3.5924256 2.395128,3.9441525 2.230468,4.3828125 2.065798,4.8214825 2.005859,5.3424 2.005859,6 v 1.488281 8.509466 c 0,0.657609 0.0599,1.178577 0.224609,1.617188 0.16468,0.438611 0.461531,0.788523 0.837891,0.996092 C 3.821079,19.026158 4.7419,18.982677 6,18.997746 h 0.002 11.988809 0.0039 c 1.25819,-0.0145 2.178891,0.0306 2.931641,-0.384766 0.37637,-0.20766 0.673221,-0.559386 0.837891,-0.998045 0.164539,-0.438671 0.224618,-0.959579 0.224618,-1.617188 V 7.466797 6 c 0,-0.6576 -0.0599,-1.1785775 -0.224609,-1.6171875 C 21.59957,3.9442125 21.302719,3.5942787 20.926359,3.3867188 20.173589,2.9715888 19.252758,3.01508 17.994668,3 h -0.002 -11.988809 z"
     style="font-style:normal;font-variant:normal;font-weight:normal;font-stretch:normal;font-size:15px;line-height:125%;font-family:Ubuntu;-inkscape-font-specification:Ubuntu;text-align:center;letter-spacing:0px;word-spacing:0px;writing-mode:lr-tb;text-anchor:middle;display:inline;opacity:1;fill:#6d6d6d;fill-opacity:1;stroke:none;stroke-width:0.999802" />
  <path
     inkscape:connector-curvature="0"
     id="path898"
     d="m 8.9778439,4.0003656 c -1.559316,0.01084 -3.115456,-0.011799 -4.66813,0.038931 -0.462039,0.04284 -1.017974,0.2072518 -1.157369,0.7128299 -0.219379,0.6379086 -0.108605,1.3391663 -0.146053,1.989917 -0.0078,2.3063482 -0.02301,7.6247155 0.02156,9.9233015 0.03917,0.463792 0.202907,1.016748 0.699983,1.168358 0.633569,0.225989 1.286402,0.123234 1.939376,0.154921 1.426738,0.0068 4.8590871,0.01106 6.2874491,0.01136 1.707526,3.53e-4 5.417891,-0.005 7.119678,-0.01858 0.51281,-0.01206 1.185779,0.02001 1.58753,-0.406824 0.421836,-0.54196 0.287577,-2.276944 0.323312,-2.915274 C 20.99707,12.205125 21.01292,7.7224627 20.96324,5.2669 20.91388,4.8632287 20.792948,4.4004582 20.38709,4.218203 19.717747,3.9229196 18.958379,4.0495066 18.257433,4.0118013 16.499944,3.9999507 10.735365,3.999267 8.9778439,4.0003656 Z"
     style="opacity:1;vector-effect:none;fill:#ffffff;fill-opacity:1;stroke:none;stroke-width:1.00289;stroke-linecap:round;stroke-linejoin:bevel;stroke-miterlimit:4;stroke-dasharray:none;stroke-dashoffset:0;stroke-opacity:1"
     sodipodi:nodetypes="cccccccsccccccc" />
  <path
     id="path4"
     style="color:#000000;overflow:visible;fill:#6d6d6d;fill-opacity:1;marker:none"
     d="m 9.002641,18 v 1.5 c 0,1.5 -0.5,1.5 -1.5,1.5 h -0.5 v 1 h 10 v -1 h -0.5 c -1,0 -1.5,0 -1.5,-1.5 V 18 Z"
     sodipodi:nodetypes="cssccccsscc" />
  <path
     d="M 16.5,7 C 15.67157,7 15,7.67157 15,8.5 15,9.32843 15.67157,10 16.5,10 17.32843,10 18,9.32843 18,8.5 18,7.67157 17.32843,7 16.5,7 Z"
     id="path4527-0"
     style="color:#000000;display:inline;overflow:visible;visibility:visible;fill:#232629;fill-opacity:1;fill-rule:nonzero;stroke:none;stroke-width:5.99881;marker:none;enable-background:accumulate" />
  <path
     d="M 9.5,9.5 6,16 h 10 l -3,-5.5 -1.5,2 z"
     id="path4156-2"
     style="color:#000000;display:inline;overflow:visible;visibility:visible;fill:#232629;fill-opacity:1;fill-rule:nonzero;stroke:none;stroke-width:7.14334;marker:none;enable-background:accumulate"
     sodipodi:nodetypes="cccccc" />
</svg>
