<?xml version="1.0" encoding="UTF-8" standalone="no"?>
<svg
   viewBox="0 0 24 24"
   version="1.1"
   id="svg6"
   sodipodi:docname="lc_objecttitledescription.svg"
   inkscape:version="1.2 (1:1.2.1+202207142221+cd75a1ee6d)"
   inkscape:export-filename="/home/jupiter007/Libreoffice yaru theme fullcolor/build/cmd/lc_insertcaptiondialog.png"
   inkscape:export-xdpi="95"
   inkscape:export-ydpi="95"
   xmlns:inkscape="http://www.inkscape.org/namespaces/inkscape"
   xmlns:sodipodi="http://sodipodi.sourceforge.net/DTD/sodipodi-0.dtd"
   xmlns="http://www.w3.org/2000/svg"
   xmlns:svg="http://www.w3.org/2000/svg"
   xmlns:rdf="http://www.w3.org/1999/02/22-rdf-syntax-ns#"
   xmlns:cc="http://creativecommons.org/ns#"
   xmlns:dc="http://purl.org/dc/elements/1.1/">
  <metadata
     id="metadata12">
    <rdf:RDF>
      <cc:Work
         rdf:about="">
        <dc:format>image/svg+xml</dc:format>
        <dc:type
           rdf:resource="http://purl.org/dc/dcmitype/StillImage" />
      </cc:Work>
    </rdf:RDF>
  </metadata>
  <defs
     id="defs10" />
  <sodipodi:namedview
     pagecolor="#ffffff"
     bordercolor="#666666"
     borderopacity="1"
     objecttolerance="10"
     gridtolerance="10"
     guidetolerance="10"
     inkscape:pageopacity="0"
     inkscape:pageshadow="2"
     inkscape:window-width="1920"
     inkscape:window-height="1016"
     id="namedview8"
     showgrid="true"
     inkscape:zoom="16"
     inkscape:cx="0.65625"
     inkscape:cy="12.28125"
     inkscape:window-x="0"
     inkscape:window-y="0"
     inkscape:window-maximized="1"
     inkscape:current-layer="svg6"
     inkscape:document-rotation="0"
     inkscape:showpageshadow="2"
     inkscape:pagecheckerboard="0"
     inkscape:deskcolor="#d1d1d1">
    <inkscape:grid
       type="xygrid"
       id="grid822" />
  </sodipodi:namedview>
  <path
     id="rect820"
     style="opacity:0.7;fill:#000000;fill-opacity:1;stroke:#000000;stroke-width:2;stroke-linecap:round;stroke-linejoin:round;stroke-miterlimit:4;stroke-dasharray:none;stroke-opacity:1"
     d="m 5,4 c -1.108,0 -2,0.892 -2,2 v 1 8 1 c 0,1.108 0.892,2 2,2 h 12 c 1.108,0 2,-0.892 2,-2 v -1 -8 -1 c 0,-1.108 -0.892,-2 -2,-2 z"
     sodipodi:nodetypes="ssccssssccsss" />
  <path
     id="rect818"
     style="opacity:1;fill:#ffffff;fill-opacity:1;stroke:none;stroke-width:1;stroke-linecap:round;stroke-linejoin:round;stroke-miterlimit:4;stroke-dasharray:none;stroke-opacity:1"
     d="m 5,4 c -1.108,0 -2,0.892 -2,2 v 1 8 1 c 0,1.108 0.892,2 2,2 h 12 c 1.108,0 2,-0.892 2,-2 v -1 -8 -1 c 0,-1.108 -0.892,-2 -2,-2 z"
     sodipodi:nodetypes="ssccssssccsss" />
  <path
     id="path2088"
     style="opacity:0.7;fill:#ffffff;fill-opacity:1;stroke:#000000;stroke-width:2;stroke-linecap:round;stroke-linejoin:round;stroke-miterlimit:4;stroke-dasharray:none;stroke-opacity:1"
     d="m 12,16 c -1.920758,0 -2,0 -2,2 v 1 c 0,2 0,2 2,2 h 8 c 2,0 2,0 2,-2 v -1 c 0,-2 0,-2 -2,-2 z"
     sodipodi:nodetypes="sccssccss" />
  <path
     id="path1936"
     style="fill:#ffffff;fill-opacity:1;stroke:none;stroke-width:1;stroke-linecap:round;stroke-linejoin:round;stroke-miterlimit:4;stroke-dasharray:none;stroke-opacity:1"
     d="m 12,16 c -1.920758,0 -2,0 -2,2 v 1 c 0,2 0,2 2,2 h 8 c 2,0 2,0 2,-2 v -1 c 0,-2 0,-2 -2,-2 z"
     sodipodi:nodetypes="sccssccss" />
  <rect
     id="rect2-3"
     overflow="visible"
     y="17"
     x="11"
     width="10"
     style="color:#bebebe;overflow:visible;fill:#00ff00;fill-opacity:1;stroke-width:1.82091;marker:none"
     height="1" />
  <rect
     id="rect2086"
     overflow="visible"
     y="19"
     x="11"
     width="10"
     style="color:#bebebe;overflow:visible;fill:#00ff00;fill-opacity:1;stroke-width:1.82091;marker:none"
     height="1" />
</svg>
