<?xml version="1.0" encoding="UTF-8" standalone="no"?>
<svg
   xmlns:dc="http://purl.org/dc/elements/1.1/"
   xmlns:cc="http://creativecommons.org/ns#"
   xmlns:rdf="http://www.w3.org/1999/02/22-rdf-syntax-ns#"
   xmlns:svg="http://www.w3.org/2000/svg"
   xmlns="http://www.w3.org/2000/svg"
   xmlns:sodipodi="http://sodipodi.sourceforge.net/DTD/sodipodi-0.dtd"
   xmlns:inkscape="http://www.inkscape.org/namespaces/inkscape"
   height="24"
   width="24"
   version="1.1"
   id="svg4"
   sodipodi:docname="lc_pastespecial.svg"
   inkscape:export-filename="/home/jupiter007/Libreoffice yaru theme fullcolor/build/cmd/lc_paste.png"
   inkscape:export-xdpi="95"
   inkscape:export-ydpi="95"
   inkscape:version="1.0.2 (e86c870879, 2021-01-15)">
  <metadata
     id="metadata10">
    <rdf:RDF>
      <cc:Work
         rdf:about="">
        <dc:format>image/svg+xml</dc:format>
        <dc:type
           rdf:resource="http://purl.org/dc/dcmitype/StillImage" />
        <dc:title />
      </cc:Work>
    </rdf:RDF>
  </metadata>
  <defs
     id="defs8" />
  <sodipodi:namedview
     pagecolor="#ffffff"
     bordercolor="#666666"
     borderopacity="1"
     objecttolerance="10"
     gridtolerance="10"
     guidetolerance="10"
     inkscape:pageopacity="0"
     inkscape:pageshadow="2"
     inkscape:window-width="1920"
     inkscape:window-height="1016"
     id="namedview6"
     showgrid="true"
     inkscape:snap-page="true"
     fit-margin-top="3"
     fit-margin-right="3"
     fit-margin-bottom="3"
     fit-margin-left="3"
     inkscape:zoom="10.429825"
     inkscape:cx="11.645935"
     inkscape:cy="8.1298061"
     inkscape:window-x="0"
     inkscape:window-y="27"
     inkscape:window-maximized="1"
     inkscape:current-layer="svg4"
     inkscape:document-rotation="0">
    <inkscape:grid
       type="xygrid"
       id="grid817"
       originx="3"
       originy="3" />
  </sodipodi:namedview>
  <path
     inkscape:connector-curvature="0"
     style="opacity:0.7;vector-effect:none;fill:#000000;fill-opacity:1;stroke:none;stroke-width:2;stroke-linecap:round;stroke-linejoin:round;stroke-miterlimit:4;stroke-dasharray:none;stroke-dashoffset:0;stroke-opacity:1"
     d="m 8.0000059,2.0000083 c -0.553991,-0.00317 -1,0.446 -1,1 h -2 c -1.108,0 -2.0037655,0.8920064 -2,2 l 0.033898,9.9745747 c 0.00377,1.107993 0.8920262,1.992385 2,2 l 4.932204,0.0339 v -4 c 0,-1.108 0.8920101,-1.995344 2.0000001,-2 l 4.033898,-0.01695 -0.0339,-5.9745745 c -0.0063,-1.1079819 -0.892,-2 -2,-2 h -2 c 0,-0.554 -0.446009,-0.9968343 -1,-1 z"
     id="rect9566-8"
     sodipodi:nodetypes="scsssscsscsscss" />
  <rect
     style="vector-effect:none;fill:#cccccc;fill-opacity:1;stroke:none;stroke-width:2;stroke-linecap:round;stroke-linejoin:round;stroke-miterlimit:4;stroke-dasharray:none;stroke-dashoffset:0;stroke-opacity:1"
     id="rect873-1-9"
     width="11"
     height="12"
     x="4.0000057"
     y="4.0000081"
     ry="1"
     rx="1" />
  <path
     style="vector-effect:none;fill:#ffffff;fill-opacity:1;stroke:none;stroke-width:2;stroke-linecap:round;stroke-linejoin:round;stroke-miterlimit:4;stroke-dasharray:none;stroke-dashoffset:0;stroke-opacity:1"
     d="m 8.0000059,3.0000083 v 1 h -1 v 1 h 5.0000001 v -1 h -1 v -1 z"
     id="rect9576-3"
     inkscape:connector-curvature="0"
     sodipodi:nodetypes="ccccccccc" />
  <rect
     style="opacity:0.7;vector-effect:none;fill:#000000;fill-opacity:1;stroke:none;stroke-width:2;stroke-linecap:round;stroke-linejoin:round;stroke-miterlimit:4;stroke-dasharray:none;stroke-dashoffset:0;stroke-opacity:1"
     id="rect899-6"
     width="13"
     height="14"
     x="8.0000057"
     y="8.0000086"
     ry="2"
     rx="2" />
  <rect
     style="vector-effect:none;fill:#ffffff;fill-opacity:1;stroke:none;stroke-width:2;stroke-linecap:round;stroke-linejoin:round;stroke-miterlimit:4;stroke-dasharray:none;stroke-dashoffset:0;stroke-opacity:1"
     id="rect873-12"
     width="11"
     height="12"
     x="9.0000057"
     y="9.0000086"
     ry="1"
     rx="1" />
  <path
     d="m 14.500006,11.500009 c -1.38125,0 -2.5,1.13843 -2.5,2.400391 v 0.599609 h 1 v -0.599609 c 0,-0.66 0.528594,-1.400391 1.599609,-1.400391 1.074093,0 1.400391,0.549637 1.400391,1 0,1.211696 -2,1.736978 -2,3 h 1 c 0,-0.495357 2,-1.470451 2,-3 0,-1.326 -1,-2 -2.5,-2 z m -0.5,6 v 1 h 1 v -1 z"
     id="path2"
     inkscape:connector-curvature="0"
     style="fill:#232629"
     sodipodi:nodetypes="ssccsssccssccccc" />
</svg>
