<?xml version="1.0" encoding="UTF-8" standalone="no"?>
<svg
   xmlns:dc="http://purl.org/dc/elements/1.1/"
   xmlns:cc="http://creativecommons.org/ns#"
   xmlns:rdf="http://www.w3.org/1999/02/22-rdf-syntax-ns#"
   xmlns:svg="http://www.w3.org/2000/svg"
   xmlns="http://www.w3.org/2000/svg"
   xmlns:xlink="http://www.w3.org/1999/xlink"
   xmlns:sodipodi="http://sodipodi.sourceforge.net/DTD/sodipodi-0.dtd"
   xmlns:inkscape="http://www.inkscape.org/namespaces/inkscape"
   viewBox="0 0 24 24"
   version="1.1"
   id="svg6"
   sodipodi:docname="lc_removehyperlink.svg"
   inkscape:version="1.0.1 (3bc2e813f5, 2020-09-07)"
   inkscape:export-filename="/home/jupiter007/Libreoffice yaru theme fullcolor/build/cmd/lc_removehyperlink.png"
   inkscape:export-xdpi="96"
   inkscape:export-ydpi="96">
  <metadata
     id="metadata12">
    <rdf:RDF>
      <cc:Work
         rdf:about="">
        <dc:format>image/svg+xml</dc:format>
        <dc:type
           rdf:resource="http://purl.org/dc/dcmitype/StillImage" />
      </cc:Work>
    </rdf:RDF>
  </metadata>
  <defs
     id="defs10">
    <linearGradient
       inkscape:collect="always"
       xlink:href="#linearGradient861"
       id="linearGradient855"
       x1="15"
       y1="4"
       x2="15"
       y2="20"
       gradientUnits="userSpaceOnUse" />
    <linearGradient
       inkscape:collect="always"
       id="linearGradient861">
      <stop
         style="stop-color:#151515;stop-opacity:1"
         offset="0"
         id="stop857" />
      <stop
         style="stop-color:#4d4d4d;stop-opacity:1"
         offset="1"
         id="stop859" />
    </linearGradient>
    <linearGradient
       inkscape:collect="always"
       xlink:href="#linearGradient861"
       id="linearGradient853"
       x1="15"
       y1="3"
       x2="15"
       y2="21"
       gradientUnits="userSpaceOnUse" />
  </defs>
  <sodipodi:namedview
     pagecolor="#ffffff"
     bordercolor="#666666"
     borderopacity="1"
     objecttolerance="10"
     gridtolerance="10"
     guidetolerance="10"
     inkscape:pageopacity="0"
     inkscape:pageshadow="2"
     inkscape:window-width="1920"
     inkscape:window-height="1016"
     id="namedview8"
     showgrid="true"
     inkscape:zoom="19.666667"
     inkscape:cx="-4.5850723"
     inkscape:cy="13.569442"
     inkscape:window-x="0"
     inkscape:window-y="27"
     inkscape:window-maximized="1"
     inkscape:current-layer="svg6"
     inkscape:document-rotation="0">
    <inkscape:grid
       type="xygrid"
       id="grid828" />
  </sodipodi:namedview>
  <path
     inkscape:connector-curvature="0"
     id="path834"
     d="m 4.9289321,13.414214 c -1.5620972,1.562097 -1.5620972,4.094757 0,5.656854 1.5620972,1.562097 4.0947569,1.562097 5.6568539,0 l 3.535534,-3.535534 c 1.562098,-1.562097 1.562098,-4.094757 0,-5.656854 C 13.606894,9.364253 12.985691,9.017104 12.330074,8.841497 l -0.872835,0.872835 c 0.713412,0.038 1.412031,0.326511 1.956975,0.871454 1.171572,1.171573 1.171572,3.071068 0,4.242641 L 9.87868,18.363961 c -1.1715733,1.171573 -3.0710684,1.171573 -4.2426411,0 -1.1715727,-1.171573 -1.1715729,-3.071068 0,-4.242641 L 7.7573592,12 V 10.585786 Z M 9.87868,8.464466 c -1.5620976,1.562097 -1.5620976,4.094757 0,5.656854 0.516875,0.516876 1.136308,0.858217 1.795387,1.033039 l 0.867311,-0.867311 c -0.712449,-0.03861 -1.411364,-0.328606 -1.955592,-0.872834 -1.171572,-1.171573 -1.171572,-3.071068 0,-4.242641 L 14.12132,5.636039 c 1.171573,-1.171573 3.071068,-1.171573 4.242641,0 1.171573,1.171573 1.171573,3.071068 0,4.242641 L 16.242641,12 v 1.414214 l 2.828427,-2.828428 c 1.562097,-1.562097 1.562097,-4.094757 0,-5.656854 -1.562097,-1.562097 -4.094757,-1.562097 -5.656854,0 z"
     style="opacity:1;fill:#ffffff;fill-opacity:1;fill-rule:nonzero;stroke:#ffffff;stroke-width:2;stroke-linecap:round;stroke-linejoin:round;stroke-miterlimit:4;stroke-dasharray:none;stroke-opacity:1" />
  <path
     sodipodi:nodetypes="csssssccssssscc"
     style="fill:url(#linearGradient853);fill-opacity:1;fill-rule:nonzero;stroke:none;stroke-width:2;stroke-linecap:round;stroke-linejoin:round;stroke-miterlimit:4;stroke-dasharray:none;stroke-opacity:1"
     d="m 16.242641,13.414214 2.828427,-2.828428 c 1.562097,-1.562097 1.562097,-4.094757 0,-5.656854 -1.562097,-1.562097 -4.094757,-1.562097 -5.656854,0 L 9.87868,8.464466 c -1.5620976,1.562097 -1.5620976,4.094757 0,5.656854 0.516875,0.516876 1.135906,0.858619 1.794985,1.033441 l 0.868196,-0.868195 c -0.712449,-0.03861 -1.411847,-0.328124 -1.956075,-0.872352 -1.171572,-1.171573 -1.171572,-3.071068 0,-4.242641 L 14.12132,5.636039 c 1.171573,-1.171573 3.071068,-1.171573 4.242641,0 1.171573,1.171573 1.171573,3.071068 0,4.242641 L 16.242641,12 Z"
     id="path832"
     inkscape:connector-curvature="0" />
  <path
     sodipodi:nodetypes="csssssccssssscc"
     inkscape:connector-curvature="0"
     id="circle829"
     d="m 11.45681,9.714762 c 0.713412,0.038 1.41246,0.326081 1.957404,0.871024 1.171572,1.171573 1.171572,3.071068 0,4.242641 L 9.87868,18.363961 c -1.1715733,1.171573 -3.0710684,1.171573 -4.2426411,0 -1.1715727,-1.171573 -1.1715729,-3.071068 0,-4.242641 L 7.7573592,12 v -1.414214 l -2.8284271,2.828428 c -1.5620972,1.562097 -1.5620972,4.094757 0,5.656854 1.5620972,1.562097 4.0947569,1.562097 5.6568539,0 l 3.535534,-3.535534 c 1.562098,-1.562097 1.562098,-4.094757 0,-5.656854 C 13.606894,9.364253 12.985384,9.017411 12.329767,8.841804 Z"
     style="fill:url(#linearGradient855);fill-opacity:1;fill-rule:nonzero;stroke:none;stroke-width:2;stroke-linecap:round;stroke-linejoin:round;stroke-miterlimit:4;stroke-dasharray:none;stroke-opacity:1" />
  <circle
     style="opacity:1;vector-effect:none;fill:#c7162b;fill-opacity:1;stroke:none;stroke-width:3.49999976;stroke-linecap:butt;stroke-linejoin:round;stroke-miterlimit:4;stroke-dasharray:none;stroke-dashoffset:0;stroke-opacity:1"
     id="path2644"
     cy="19.5"
     cx="19.5"
     r="3.5" />
  <path
     inkscape:connector-curvature="0"
     id="path1063"
     overflow="visible"
     font-weight="400"
     style="color:#000000;font-weight:400;line-height:normal;font-family:sans-serif;text-indent:0;text-align:start;text-decoration:none;text-decoration-line:none;text-decoration-style:solid;text-decoration-color:#000000;text-transform:none;white-space:normal;overflow:visible;isolation:auto;mix-blend-mode:normal;fill:#ffffff;fill-opacity:1;marker:none"
     d="m 20.914213,17.37868 -1.414214,1.414213 -1.414214,-1.414213 -0.707106,0.707106 1.414213,1.414214 -1.414213,1.414214 0.707106,0.707106 1.414214,-1.414213 1.414214,1.414213 0.707106,-0.707106 L 20.207106,19.5 21.621319,18.085786 Z" />
</svg>
