<?xml version="1.0" encoding="UTF-8" standalone="no"?>
<svg
   xmlns:dc="http://purl.org/dc/elements/1.1/"
   xmlns:cc="http://creativecommons.org/ns#"
   xmlns:rdf="http://www.w3.org/1999/02/22-rdf-syntax-ns#"
   xmlns:svg="http://www.w3.org/2000/svg"
   xmlns="http://www.w3.org/2000/svg"
   xmlns:xlink="http://www.w3.org/1999/xlink"
   xmlns:sodipodi="http://sodipodi.sourceforge.net/DTD/sodipodi-0.dtd"
   xmlns:inkscape="http://www.inkscape.org/namespaces/inkscape"
   viewBox="0 0 24 24"
   version="1.1"
   id="svg6"
   sodipodi:docname="lc_subscript.svg"
   inkscape:version="1.0.1 (3bc2e813f5, 2020-09-07)"
   inkscape:export-filename="/home/jupiter007/Libreoffice yaru theme fullcolor/build/cmd/lc_subscript.png"
   inkscape:export-xdpi="95"
   inkscape:export-ydpi="95">
  <metadata
     id="metadata12">
    <rdf:RDF>
      <cc:Work
         rdf:about="">
        <dc:format>image/svg+xml</dc:format>
        <dc:type
           rdf:resource="http://purl.org/dc/dcmitype/StillImage" />
        <dc:title></dc:title>
      </cc:Work>
    </rdf:RDF>
  </metadata>
  <defs
     id="defs10">
    <linearGradient
       inkscape:collect="always"
       xlink:href="#linearGradient840"
       id="linearGradient842"
       x1="11"
       y1="4"
       x2="11"
       y2="18"
       gradientUnits="userSpaceOnUse"
       gradientTransform="translate(1e-7,1)" />
    <linearGradient
       inkscape:collect="always"
       id="linearGradient840">
      <stop
         style="stop-color:#151515;stop-opacity:1"
         offset="0"
         id="stop836" />
      <stop
         style="stop-color:#4d4d4d;stop-opacity:1"
         offset="1"
         id="stop838" />
    </linearGradient>
  </defs>
  <sodipodi:namedview
     pagecolor="#808080"
     bordercolor="#666666"
     borderopacity="1"
     objecttolerance="10"
     gridtolerance="10"
     guidetolerance="10"
     inkscape:pageopacity="0"
     inkscape:pageshadow="2"
     inkscape:window-width="1920"
     inkscape:window-height="1043"
     id="namedview8"
     showgrid="true"
     inkscape:zoom="45.254836"
     inkscape:cx="16.343355"
     inkscape:cy="16.276583"
     inkscape:window-x="1920"
     inkscape:window-y="0"
     inkscape:window-maximized="1"
     inkscape:current-layer="svg6"
     inkscape:document-rotation="0">
    <inkscape:grid
       type="xygrid"
       id="grid815" />
  </sodipodi:namedview>
  <path
     id="path858"
     style="color:#000000;font-style:normal;font-variant:normal;font-weight:normal;font-stretch:normal;font-size:medium;line-height:normal;font-family:sans-serif;font-variant-ligatures:normal;font-variant-position:normal;font-variant-caps:normal;font-variant-numeric:normal;font-variant-alternates:normal;font-variant-east-asian:normal;font-feature-settings:normal;font-variation-settings:normal;text-indent:0;text-align:start;text-decoration:none;text-decoration-line:none;text-decoration-style:solid;text-decoration-color:#000000;letter-spacing:normal;word-spacing:normal;text-transform:none;writing-mode:lr-tb;direction:ltr;text-orientation:mixed;dominant-baseline:auto;baseline-shift:baseline;text-anchor:start;white-space:normal;shape-padding:0;shape-margin:0;inline-size:0;clip-rule:nonzero;display:inline;overflow:visible;visibility:visible;isolation:auto;mix-blend-mode:normal;color-interpolation:sRGB;color-interpolation-filters:linearRGB;solid-color:#000000;solid-opacity:1;vector-effect:none;fill:#ffffff;fill-opacity:1;fill-rule:nonzero;stroke:none;stroke-width:2;stroke-linecap:butt;stroke-linejoin:round;stroke-miterlimit:4;stroke-dasharray:none;stroke-dashoffset:0;stroke-opacity:1;color-rendering:auto;image-rendering:auto;shape-rendering:auto;text-rendering:auto;enable-background:accumulate;stop-color:#000000;stop-opacity:1;opacity:1"
     d="M 10 4 A 1.0001 1.0001 0 0 0 9.0585938 4.6640625 L 4.0585938 18.664062 A 1.0001 1.0001 0 0 0 5 20 L 8 20 A 1.0001 1.0001 0 0 0 8.9394531 19.341797 L 10.15625 16 L 13.84375 16 L 15.060547 19.341797 A 1.0001 1.0001 0 0 0 16 20 L 17 20 L 17 18 L 16.701172 18 L 15.484375 14.658203 A 1.0001 1.0001 0 0 0 14.544922 14 L 13.818359 14 A 1.0001 1.0001 0 0 0 14.757812 12.658203 L 12.939453 7.6582031 A 1.0001 1.0001 0 0 0 11.060547 7.6582031 L 9.2421875 12.658203 A 1.0001 1.0001 0 0 0 10.181641 14 L 9.4550781 14 A 1.0001 1.0001 0 0 0 8.515625 14.658203 L 7.2988281 18 L 6.4179688 18 L 10.705078 6 L 13.294922 6 L 17 16.371094 L 17 15 L 18.632812 15 L 14.941406 4.6640625 A 1.0001 1.0001 0 0 0 14 4 L 10 4 z M 12 10.925781 L 12.390625 12 L 11.609375 12 L 12 10.925781 z " />
  <path
     id="path2"
     style="fill:url(#linearGradient842);fill-opacity:1"
     d="M 10 5 L 5 19 L 8 19 L 9.4550781 15 L 14.544922 15 L 16 19 L 17 19 L 17 15 L 17.572266 15 L 14 5 L 10 5 z M 12 8 L 13.818359 13 L 10.181641 13 L 12 8 z " />
  <path
     d="m 18,16 v 2 1 2 1 h 1 2 c 1.108,0 2,-0.892 2,-2 0,-0.81094 -0.481275,-1.501896 -1.171875,-1.816406 C 21.934075,17.977744 22,17.74831 22,17.5 22,16.669 21.331,16 20.5,16 H 19 Z m 1,1 h 1.5 c 0.277,0 0.5,0.223 0.5,0.5 0,0.277 -0.223,0.5 -0.5,0.5 H 19 Z m 0,2 h 1.5 0.5 c 0.554,0 1,0.446 1,1 0,0.554 -0.446,1 -1,1 h -2 z"
     fill="#00ff00"
     id="path4"
     style="fill:#00ff00;fill-opacity:1" />
</svg>
