<?xml version="1.0" encoding="UTF-8" standalone="no"?>
<svg
   xmlns:dc="http://purl.org/dc/elements/1.1/"
   xmlns:cc="http://creativecommons.org/ns#"
   xmlns:rdf="http://www.w3.org/1999/02/22-rdf-syntax-ns#"
   xmlns:svg="http://www.w3.org/2000/svg"
   xmlns="http://www.w3.org/2000/svg"
   xmlns:xlink="http://www.w3.org/1999/xlink"
   xmlns:sodipodi="http://sodipodi.sourceforge.net/DTD/sodipodi-0.dtd"
   xmlns:inkscape="http://www.inkscape.org/namespaces/inkscape"
   viewBox="0 0 24 24"
   version="1.1"
   id="svg4"
   sodipodi:docname="lc_sbanativesql.svg"
   inkscape:export-filename="/home/jupiter007/Libreoffice yaru theme fullcolor/build/cmd/lc_sbanativesql.png"
   inkscape:export-xdpi="96"
   inkscape:export-ydpi="96"
   inkscape:version="1.0.1 (3bc2e813f5, 2020-09-07)">
  <metadata
     id="metadata10">
    <rdf:RDF>
      <cc:Work
         rdf:about="">
        <dc:format>image/svg+xml</dc:format>
        <dc:type
           rdf:resource="http://purl.org/dc/dcmitype/StillImage" />
        <dc:title></dc:title>
      </cc:Work>
    </rdf:RDF>
  </metadata>
  <defs
     id="defs8">
    <linearGradient
       inkscape:collect="always"
       id="linearGradient842">
      <stop
         style="stop-color:#151515;stop-opacity:1"
         offset="0"
         id="stop838" />
      <stop
         style="stop-color:#4d4d4d;stop-opacity:1"
         offset="1"
         id="stop840" />
    </linearGradient>
    <linearGradient
       inkscape:collect="always"
       xlink:href="#linearGradient842"
       id="linearGradient844"
       x1="7"
       y1="10"
       x2="7"
       y2="21"
       gradientUnits="userSpaceOnUse"
       gradientTransform="translate(-1)" />
  </defs>
  <sodipodi:namedview
     pagecolor="#ffffff"
     bordercolor="#666666"
     borderopacity="1"
     objecttolerance="10"
     gridtolerance="10"
     guidetolerance="10"
     inkscape:pageopacity="0"
     inkscape:pageshadow="2"
     inkscape:window-width="1920"
     inkscape:window-height="1016"
     id="namedview6"
     showgrid="true"
     inkscape:zoom="19.666667"
     inkscape:cx="1.9138948"
     inkscape:cy="9.5215288"
     inkscape:window-x="0"
     inkscape:window-y="27"
     inkscape:window-maximized="1"
     inkscape:current-layer="svg4"
     inkscape:document-rotation="0">
    <inkscape:grid
       type="xygrid"
       id="grid825" />
  </sodipodi:namedview>
  <path
     style="fill:#f2cbf8;fill-opacity:1"
     id="path819"
     d="M 12,4 C 7.581722,4 4,4.8954258 4,6 v 4 8 c 0,1.1046 3.581722,2 8,2 4.418278,0 8,-0.8954 8,-2 V 10 6 C 20,4.8954258 16.418278,4 12,4 Z"
     inkscape:connector-curvature="0"
     sodipodi:nodetypes="sscssscss" />
  <path
     inkscape:connector-curvature="0"
     d="M 12,4 C 7.581722,4 4,4.8954258 4,6 v 4 8 c 0,1.1046 3.581722,2 8,2 4.418278,0 8,-0.8954 8,-2 V 10 6 C 20,4.8954258 16.418278,4 12,4 Z m 0,1 c 3.865993,0 7,0.4477153 7,1 0,0.5522847 -3.134007,1 -7,1 C 8.134007,7 5,6.5522847 5,6 5,5.4477153 8.134007,5 12,5 Z M 5,6.9375 C 6.352956,7.5624199 8.958076,8 12,8 15.041924,8 17.647043,7.5624199 19,6.9375 V 10 c 0,0.5523 -3.134007,1 -7,1 C 8.134007,11 5,10.5523 5,10 V 9.0625 Z m 0,4 C 6.352956,11.562421 8.958076,12 12,12 c 3.041924,0 5.647043,-0.437579 7,-1.0625 V 14 c 0,0.5523 -3.134007,1 -7,1 -3.865993,0 -7,-0.4477 -7,-1 z m 0,4 C 6.352956,15.562421 8.958076,16 12,16 c 3.041924,0 5.647043,-0.437579 7,-1.0625 V 18 c 0,0.5523 -3.134007,1 -7,1 -3.865993,0 -7,-0.4477 -7,-1 z"
     id="path2"
     style="fill:#8e03a3;fill-opacity:1" />
  <path
     sodipodi:nodetypes="ccccccccc"
     inkscape:connector-curvature="0"
     id="path834"
     d="M 2.75736,10.249548 1.343146,11.663761 4.1715736,14.492188 1.343146,17.320615 2.75736,18.734828 6.2928939,15.199294 7.0000007,14.492188 6.2928939,13.78508 Z"
     style="opacity:1;fill:#000000;fill-opacity:1;stroke:#ffffff;stroke-width:2;stroke-linejoin:round;stroke-miterlimit:4;stroke-dasharray:none" />
  <rect
     y="19"
     x="6.0000005"
     height="2"
     width="7"
     id="rect836"
     style="opacity:1;fill:#000000;fill-opacity:1;stroke:#ffffff;stroke-width:2;stroke-linejoin:round;stroke-miterlimit:4;stroke-dasharray:none" />
  <path
     id="rect827"
     style="opacity:1;fill:url(#linearGradient844);fill-opacity:1;stroke:none;stroke-width:2;stroke-linejoin:round;stroke-miterlimit:4;stroke-dasharray:none"
     d="M 2.7578125,10.25 1.34375,11.664062 4.171875,14.492188 1.34375,17.320312 2.7578125,18.734375 6.2929688,15.199219 7,14.492188 6.2929688,13.785156 Z M 6,19 v 2 h 7 v -2 z" />
</svg>
