<?xml version="1.0" encoding="UTF-8" standalone="no"?>
<svg
   xmlns:dc="http://purl.org/dc/elements/1.1/"
   xmlns:cc="http://creativecommons.org/ns#"
   xmlns:rdf="http://www.w3.org/1999/02/22-rdf-syntax-ns#"
   xmlns:svg="http://www.w3.org/2000/svg"
   xmlns="http://www.w3.org/2000/svg"
   xmlns:sodipodi="http://sodipodi.sourceforge.net/DTD/sodipodi-0.dtd"
   xmlns:inkscape="http://www.inkscape.org/namespaces/inkscape"
   viewBox="0 0 24 24"
   version="1.1"
   id="svg6"
   sodipodi:docname="lc_splitcell.svg"
   inkscape:version="1.0.1 (3bc2e813f5, 2020-09-07)"
   inkscape:export-filename="/home/jupiter007/Libreoffice yaru theme fullcolor/build/cmd/lc_splitcell.png"
   inkscape:export-xdpi="95"
   inkscape:export-ydpi="95">
  <metadata
     id="metadata12">
    <rdf:RDF>
      <cc:Work
         rdf:about="">
        <dc:format>image/svg+xml</dc:format>
        <dc:type
           rdf:resource="http://purl.org/dc/dcmitype/StillImage" />
      </cc:Work>
    </rdf:RDF>
  </metadata>
  <defs
     id="defs10" />
  <sodipodi:namedview
     pagecolor="#ffffff"
     bordercolor="#666666"
     borderopacity="1"
     objecttolerance="10"
     gridtolerance="10"
     guidetolerance="10"
     inkscape:pageopacity="0"
     inkscape:pageshadow="2"
     inkscape:window-width="1920"
     inkscape:window-height="1011"
     id="namedview8"
     showgrid="true"
     inkscape:zoom="19.666667"
     inkscape:cx="12.350884"
     inkscape:cy="10.903408"
     inkscape:window-x="0"
     inkscape:window-y="0"
     inkscape:window-maximized="1"
     inkscape:current-layer="svg6"
     inkscape:document-rotation="0">
    <inkscape:grid
       type="xygrid"
       id="grid822" />
  </sodipodi:namedview>
  <rect
     style="opacity:1;fill:#ffffff;fill-opacity:1;stroke:none;stroke-width:2;stroke-linecap:round;stroke-linejoin:round;stroke-miterlimit:4;stroke-dasharray:none;stroke-opacity:1"
     id="rect827-7"
     width="16"
     height="16"
     x="4"
     y="4"
     inkscape:export-filename="/home/jupiter007/Libreoffice yaru theme fullcolor/build/cmd/rect827.png"
     inkscape:export-xdpi="95"
     inkscape:export-ydpi="95" />
  <path
     id="path2-8"
     style="opacity:1;fill:#6d6d6d;fill-opacity:1"
     d="M 6,3 C 4,3 3,3 3,5 v 14 c 0,2 1,2 3,2 h 12 c 2,0 3,0 3,-2 V 5 C 21,3 20,3 18,3 Z M 6,4 H 9 V 5 9 H 4 V 5 C 4,4 5,4 6,4 Z m 4,0 h 4 V 5 9 H 10 V 5 Z m 5,0 h 3 c 1,0 2,0 2,1 V 9 H 15 V 5 Z M 4,10 h 5 v 4 H 8 4 Z m 6,0 h 4 v 4 h -4 z m 5,0 h 5 v 4 H 15 Z M 4,15 H 8 9 V 19.099609 20 H 6 C 5,20 4,20 4,19 Z m 6,0 h 4 v 5 h -4 z m 5,0 h 5 v 4 c 0,1 -1,1 -2,1 h -3 z"
     sodipodi:nodetypes="sssssssssscccccsccccccccsccccccccccccccccccccccccccssccccccccsscc" />
  <rect
     style="opacity:1;fill:#ffffff;fill-rule:evenodd;stroke-width:4;stroke-linecap:round;stroke-linejoin:round"
     id="rect845"
     width="6"
     height="6"
     x="9"
     y="9" />
  <path
     d="m 8,8 v 8 h 8 V 8 Z m 1,1 h 6 v 1 l -2,2 2,2 v 1 H 9 v -1 l 2,-2 -2,-2 z"
     fill="#c7162b"
     id="path4" />
</svg>
