<?xml version="1.0" encoding="UTF-8" standalone="no"?>
<svg
   viewBox="0 0 24 24"
   version="1.1"
   id="svg6"
   sodipodi:docname="lc_setoutline.svg"
   inkscape:version="1.4.2 (ebf0e940d0, 2025-05-08)"
   inkscape:export-filename="/home/jupiter007/Libreoffice yaru theme fullcolor/build/cmd/lc_setoutline.png"
   inkscape:export-xdpi="96"
   inkscape:export-ydpi="96"
   xmlns:inkscape="http://www.inkscape.org/namespaces/inkscape"
   xmlns:sodipodi="http://sodipodi.sourceforge.net/DTD/sodipodi-0.dtd"
   xmlns="http://www.w3.org/2000/svg"
   xmlns:svg="http://www.w3.org/2000/svg"
   xmlns:rdf="http://www.w3.org/1999/02/22-rdf-syntax-ns#"
   xmlns:cc="http://creativecommons.org/ns#"
   xmlns:dc="http://purl.org/dc/elements/1.1/">
  <metadata
     id="metadata12">
    <rdf:RDF>
      <cc:Work
         rdf:about="">
        <dc:format>image/svg+xml</dc:format>
        <dc:type
           rdf:resource="http://purl.org/dc/dcmitype/StillImage" />
        <dc:title />
      </cc:Work>
    </rdf:RDF>
  </metadata>
  <defs
     id="defs10" />
  <sodipodi:namedview
     pagecolor="#ffffff"
     bordercolor="#666666"
     borderopacity="1"
     objecttolerance="10"
     gridtolerance="10"
     guidetolerance="10"
     inkscape:pageopacity="0"
     inkscape:pageshadow="2"
     inkscape:window-width="1920"
     inkscape:window-height="1011"
     id="namedview8"
     showgrid="true"
     inkscape:zoom="27.812867"
     inkscape:cx="13.267241"
     inkscape:cy="12.602081"
     inkscape:window-x="0"
     inkscape:window-y="0"
     inkscape:window-maximized="1"
     inkscape:current-layer="svg6"
     inkscape:document-rotation="0"
     inkscape:showpageshadow="2"
     inkscape:pagecheckerboard="0"
     inkscape:deskcolor="#d1d1d1">
    <inkscape:grid
       type="xygrid"
       id="grid822"
       originx="0"
       originy="0"
       spacingy="1"
       spacingx="1"
       units="px" />
  </sodipodi:namedview>
  <path
     id="rect840"
     style="opacity:1;vector-effect:none;fill:#00ff00;fill-opacity:1;stroke:none;stroke-width:1.523;stroke-linecap:round;stroke-linejoin:round;stroke-miterlimit:4;stroke-dasharray:none;stroke-dashoffset:0;stroke-opacity:1"
     d="M 1 4 L 1 5 L 2 5 L 2 7 L 1 7 L 1 8 L 8 8 L 8 7 L 7 7 L 7 5 L 8 5 L 8 4 L 1 4 z M 3 5 L 4 5 L 4 7 L 3 7 L 3 5 z M 5 5 L 6 5 L 6 7 L 5 7 L 5 5 z M 4 10 L 4 13 L 5 13 L 5 10 L 4 10 z M 6 10 L 6 13 L 7 13 L 7 10 L 6 10 z M 10.5 16 C 9.669 16 9 16.669 9 17.5 C 9 18.331 9.669 19 10.5 19 C 11.331 19 12 18.331 12 17.5 C 12 16.669 11.331 16 10.5 16 z " />
  <path
     id="rect861"
     style="fill:#0000ff;fill-rule:evenodd;stroke-width:3;stroke-linecap:round;stroke-linejoin:round"
     d="M 9 -4 L 9 -5 L 23 -5 L 23 -4 L 9 -4 z M 9 -6 L 9 -7 L 19 -7 L 19 -6 L 9 -6 z M 9 -10 L 9 -11 L 23 -11 L 23 -10 L 9 -10 z M 9 -12 L 9 -13 L 19 -13 L 19 -12 L 9 -12 z M 14 -16 L 14 -17 L 23 -17 L 23 -16 L 14 -16 z M 14 -18 L 14 -19 L 20 -19 L 20 -18 L 14 -18 z "
     transform="scale(1,-1)" />
</svg>
