<?xml version="1.0" encoding="UTF-8" standalone="no"?>
<svg
   viewBox="0 0 24 24"
   version="1.1"
   id="svg4"
   sodipodi:docname="lc_stackwindow.svg"
   inkscape:export-filename="/home/jupiter007/Libreoffice yaru theme fullcolor/build/cmd/lc_addwatch.png"
   inkscape:export-xdpi="96"
   inkscape:export-ydpi="96"
   inkscape:version="1.2 (1:1.2.1+202207142221+cd75a1ee6d)"
   xmlns:inkscape="http://www.inkscape.org/namespaces/inkscape"
   xmlns:sodipodi="http://sodipodi.sourceforge.net/DTD/sodipodi-0.dtd"
   xmlns="http://www.w3.org/2000/svg"
   xmlns:svg="http://www.w3.org/2000/svg"
   xmlns:rdf="http://www.w3.org/1999/02/22-rdf-syntax-ns#"
   xmlns:cc="http://creativecommons.org/ns#"
   xmlns:dc="http://purl.org/dc/elements/1.1/">
  <metadata
     id="metadata10">
    <rdf:RDF>
      <cc:Work
         rdf:about="">
        <dc:format>image/svg+xml</dc:format>
        <dc:type
           rdf:resource="http://purl.org/dc/dcmitype/StillImage" />
      </cc:Work>
    </rdf:RDF>
  </metadata>
  <defs
     id="defs8" />
  <sodipodi:namedview
     pagecolor="#ffffff"
     bordercolor="#666666"
     borderopacity="1"
     objecttolerance="10"
     gridtolerance="10"
     guidetolerance="10"
     inkscape:pageopacity="0"
     inkscape:pageshadow="2"
     inkscape:window-width="1920"
     inkscape:window-height="1043"
     id="namedview6"
     showgrid="true"
     inkscape:zoom="22.627417"
     inkscape:cx="19.003495"
     inkscape:cy="15.423767"
     inkscape:window-x="0"
     inkscape:window-y="0"
     inkscape:window-maximized="1"
     inkscape:current-layer="svg4"
     inkscape:showpageshadow="2"
     inkscape:pagecheckerboard="0"
     inkscape:deskcolor="#d1d1d1">
    <inkscape:grid
       type="xygrid"
       id="grid827" />
  </sodipodi:namedview>
  <path
     id="path1093"
     style="color:#000000;fill:#ffffff;stroke-width:1px;stroke-linejoin:round;-inkscape-stroke:none"
     d="M 12 12.546875 L 4.2304688 16 L 12 19.453125 L 19.769531 16 L 12 12.546875 z " />
  <path
     style="color:#000000;fill:#000000;stroke-linejoin:round;-inkscape-stroke:none;opacity:0.7"
     d="m 11.796875,11.542969 -9,4 a 0.50005,0.50005 0 0 0 0,0.914062 l 9,4 a 0.50005,0.50005 0 0 0 0.40625,0 l 9,-4 a 0.50005,0.50005 0 0 0 0,-0.914062 l -9,-4 a 0.50005,0.50005 0 0 0 -0.40625,0 z m 0.203125,1.003906 7.769531,3.453125 -7.769531,3.453125 -7.7695313,-3.453125 z"
     id="path1095" />
  <path
     id="path1087"
     style="color:#000000;fill:#ffffff;stroke-width:1px;stroke-linejoin:round;-inkscape-stroke:none"
     d="m 12,8.5470206 -7.7695312,3.4531254 7.7695312,3.453125 7.769531,-3.453125 z" />
  <path
     style="color:#000000;opacity:0.7;fill:#000000;stroke-linejoin:round;-inkscape-stroke:none"
     d="m 11.796875,7.5431144 -9,4.0000006 a 0.50005,0.50005 0 0 0 0,0.914062 l 9,4 a 0.50005,0.50005 0 0 0 0.40625,0 l 9,-4 a 0.50005,0.50005 0 0 0 0,-0.914062 l -9,-4.0000006 a 0.50005,0.50005 0 0 0 -0.40625,0 z m 0.203125,1.0039062 7.769531,3.4531254 -7.769531,3.453125 -7.7695313,-3.453125 z"
     id="path1089" />
  <path
     id="path1081"
     style="color:#000000;fill:#ffffff;stroke-width:1px;stroke-linejoin:round;-inkscape-stroke:none"
     d="m 12,4.5470206 -7.7695312,3.453125 7.7695312,3.4531254 7.769531,-3.4531254 z" />
  <path
     style="color:#000000;opacity:0.7;fill:#000000;stroke-linejoin:round;-inkscape-stroke:none"
     d="m 11.796875,3.5431143 -9,4.0000001 a 0.50005,0.50005 0 0 0 0,0.9140622 l 9,4.0000004 a 0.50005,0.50005 0 0 0 0.40625,0 l 9,-4.0000004 a 0.50005,0.50005 0 0 0 0,-0.9140622 l -9,-4.0000001 a 0.50005,0.50005 0 0 0 -0.40625,0 z m 0.203125,1.0039063 7.769531,3.453125 -7.769531,3.4531254 -7.7695313,-3.4531254 z"
     id="path1083" />
</svg>
