<?xml version="1.0" encoding="UTF-8" standalone="no"?>
<svg
   xmlns:dc="http://purl.org/dc/elements/1.1/"
   xmlns:cc="http://creativecommons.org/ns#"
   xmlns:rdf="http://www.w3.org/1999/02/22-rdf-syntax-ns#"
   xmlns:svg="http://www.w3.org/2000/svg"
   xmlns="http://www.w3.org/2000/svg"
   xmlns:xlink="http://www.w3.org/1999/xlink"
   xmlns:sodipodi="http://sodipodi.sourceforge.net/DTD/sodipodi-0.dtd"
   xmlns:inkscape="http://www.inkscape.org/namespaces/inkscape"
   viewBox="0 0 24 24"
   version="1.1"
   id="svg4"
   sodipodi:docname="lc_strikeout.svg"
   inkscape:version="1.0.1 (3bc2e813f5, 2020-09-07)"
   inkscape:export-filename="/home/jupiter007/Libreoffice yaru theme fullcolor/build/cmd/lc_strikeout.png"
   inkscape:export-xdpi="96"
   inkscape:export-ydpi="96">
  <metadata
     id="metadata10">
    <rdf:RDF>
      <cc:Work
         rdf:about="">
        <dc:format>image/svg+xml</dc:format>
        <dc:type
           rdf:resource="http://purl.org/dc/dcmitype/StillImage" />
        <dc:title></dc:title>
      </cc:Work>
    </rdf:RDF>
  </metadata>
  <defs
     id="defs8">
    <linearGradient
       inkscape:collect="always"
       xlink:href="#linearGradient837"
       id="linearGradient839"
       x1="12"
       y1="4"
       x2="12"
       y2="20"
       gradientUnits="userSpaceOnUse" />
    <linearGradient
       inkscape:collect="always"
       id="linearGradient837">
      <stop
         style="stop-color:#151515;stop-opacity:1"
         offset="0"
         id="stop833" />
      <stop
         style="stop-color:#4d4d4d;stop-opacity:1"
         offset="1"
         id="stop835" />
    </linearGradient>
    <linearGradient
       inkscape:collect="always"
       xlink:href="#linearGradient837"
       id="linearGradient858"
       x1="12"
       y1="4"
       x2="12"
       y2="20"
       gradientUnits="userSpaceOnUse" />
  </defs>
  <sodipodi:namedview
     pagecolor="#ffffff"
     bordercolor="#666666"
     borderopacity="1"
     objecttolerance="10"
     gridtolerance="10"
     guidetolerance="10"
     inkscape:pageopacity="0"
     inkscape:pageshadow="2"
     inkscape:window-width="1920"
     inkscape:window-height="1043"
     id="namedview6"
     showgrid="true"
     inkscape:zoom="27.812866"
     inkscape:cx="7.0772759"
     inkscape:cy="11.668017"
     inkscape:window-x="1920"
     inkscape:window-y="0"
     inkscape:window-maximized="1"
     inkscape:current-layer="svg4"
     inkscape:document-rotation="0">
    <inkscape:grid
       type="xygrid"
       id="grid832" />
  </sodipodi:namedview>
  <path
     style="opacity:1;fill:#000000;stroke:#ffffff;stroke-width:2;stroke-linejoin:round;stroke-miterlimit:4;stroke-dasharray:none"
     id="path817"
     fill="#232629"
     d="m 12.373047,4 c -1.622945,0 -2.896913,0.3938827 -3.820313,1.1816405 -0.916404,0.7877579 -1.375,1.8692919 -1.375,3.2460938 0,0.7309825 0.140104,1.369553 0.419922,1.9160157 0.279818,0.546463 0.654352,1.025879 1.123047,1.4375 0.468695,0.411621 1.171984,0.841957 2.109375,1.289062 1.00035,0.482591 1.660631,0.832731 1.982422,1.052735 0.328786,0.220005 0.578203,0.452064 0.746094,0.693359 0.167891,0.234199 0.251953,0.503427 0.251953,0.808594 0,0.546463 -0.193375,0.957595 -0.578125,1.234375 -0.377755,0.27678 -0.923183,0.416016 -1.636719,0.416016 -0.594613,0 -1.252124,-0.09549 -1.972656,-0.28711 C 8.909511,16.796664 8.035327,16.466443 7,15.998047 V 19.0625 C 8.259181,19.687029 9.706814,20 11.34375,20 13.120595,20 14.506645,19.596158 15.5,18.787109 16.500349,17.97806 17,16.870034 17,15.464844 17,14.449985 16.73478,13.595888 16.203125,12.900391 15.671471,12.197795 14.687974,11.498232 13.253906,10.802734 12.169611,10.277562 11.481309,9.9155104 11.1875,9.7167969 10.900686,9.5109863 10.689554,9.3007982 10.556641,9.0878906 10.423727,8.8678862 10.357422,8.6132392 10.357422,8.3222655 c 0,-0.4683965 0.165354,-0.8476982 0.49414,-1.1386718 0.328787,-0.2909736 0.800416,-0.4375 1.416016,-0.4375 0.517664,0 1.042564,0.068284 1.574219,0.203125 0.53865,0.1348414 1.216688,0.3722385 2.035156,0.7128906 L 16.925781,5.095703 C 16.135295,4.7479541 15.377918,4.4787261 14.650391,4.2871093 13.929859,4.0954926 13.170529,4 12.373047,4 Z" />
  <path
     d="m 12.373047,4 c -1.622945,0 -2.896913,0.3938827 -3.820313,1.1816405 -0.916404,0.7877579 -1.375,1.8692919 -1.375,3.2460938 0,0.7309825 0.140104,1.369553 0.419922,1.9160157 0.279818,0.546463 0.654352,1.025879 1.123047,1.4375 0.468695,0.411621 1.171984,0.841957 2.109375,1.289062 1.00035,0.482591 1.660631,0.832731 1.982422,1.052735 0.328786,0.220005 0.578203,0.452064 0.746094,0.693359 0.167891,0.234199 0.251953,0.503427 0.251953,0.808594 0,0.546463 -0.193375,0.957595 -0.578125,1.234375 -0.377755,0.27678 -0.923183,0.416016 -1.636719,0.416016 -0.594613,0 -1.252124,-0.09549 -1.972656,-0.28711 C 8.909511,16.796664 8.035327,16.466443 7,15.998047 V 19.0625 C 8.259181,19.687029 9.706814,20 11.34375,20 13.120595,20 14.506645,19.596158 15.5,18.787109 16.500349,17.97806 17,16.870034 17,15.464844 17,14.449985 16.73478,13.595888 16.203125,12.900391 15.671471,12.197795 14.687974,11.498232 13.253906,10.802734 12.169611,10.277562 11.481309,9.9155104 11.1875,9.7167969 10.900686,9.5109863 10.689554,9.3007982 10.556641,9.0878906 10.423727,8.8678862 10.357422,8.6132392 10.357422,8.3222655 c 0,-0.4683965 0.165354,-0.8476982 0.49414,-1.1386718 0.328787,-0.2909736 0.800416,-0.4375 1.416016,-0.4375 0.517664,0 1.042564,0.068284 1.574219,0.203125 0.53865,0.1348414 1.216688,0.3722385 2.035156,0.7128906 L 16.925781,5.095703 C 16.135295,4.7479541 15.377918,4.4787261 14.650391,4.2871093 13.929859,4.0954926 13.170529,4 12.373047,4 Z"
     fill="#232629"
     id="path2"
     style="fill:url(#linearGradient839);fill-opacity:1" />
  <path
     style="opacity:1;fill:#ffffff;fill-opacity:1;stroke:#ffffff;stroke-width:2;stroke-linejoin:round;stroke-miterlimit:4;stroke-dasharray:none;stroke-opacity:1"
     d="m 4,11 v 1 h 16 v -1 z"
     id="path825"
     inkscape:connector-curvature="0"
     sodipodi:nodetypes="ccccc" />
  <path
     style="opacity:1;fill:url(#linearGradient858);fill-opacity:1;stroke:none;stroke-width:2;stroke-linecap:round;stroke-linejoin:round;stroke-miterlimit:4;stroke-dasharray:none;stroke-opacity:1"
     d="m 4,11 h 16 v 1 H 4 Z"
     id="rect828"
     inkscape:connector-curvature="0"
     sodipodi:nodetypes="ccccc" />
</svg>
