<?xml version="1.0" encoding="UTF-8" standalone="no"?>
<svg
   xmlns:dc="http://purl.org/dc/elements/1.1/"
   xmlns:cc="http://creativecommons.org/ns#"
   xmlns:rdf="http://www.w3.org/1999/02/22-rdf-syntax-ns#"
   xmlns:svg="http://www.w3.org/2000/svg"
   xmlns="http://www.w3.org/2000/svg"
   xmlns:xlink="http://www.w3.org/1999/xlink"
   xmlns:sodipodi="http://sodipodi.sourceforge.net/DTD/sodipodi-0.dtd"
   xmlns:inkscape="http://www.inkscape.org/namespaces/inkscape"
   viewBox="0 0 24 24"
   version="1.1"
   id="svg6"
   sodipodi:docname="lc_spelling.svg"
   inkscape:version="1.0.1 (3bc2e813f5, 2020-09-07)"
   inkscape:export-filename="/home/jupiter007/Libreoffice yaru theme fullcolor/build/cmd/lc_spelling.png"
   inkscape:export-xdpi="96"
   inkscape:export-ydpi="96">
  <metadata
     id="metadata12">
    <rdf:RDF>
      <cc:Work
         rdf:about="">
        <dc:format>image/svg+xml</dc:format>
        <dc:type
           rdf:resource="http://purl.org/dc/dcmitype/StillImage" />
        <dc:title></dc:title>
      </cc:Work>
    </rdf:RDF>
  </metadata>
  <defs
     id="defs10">
    <radialGradient
       id="f"
       cx="69.576111"
       cy="57.160503"
       gradientTransform="matrix(-8.7939626e-4,0.49240892,-0.48462804,-8.6550631e-4,42.518621,-20.706477)"
       gradientUnits="userSpaceOnUse"
       r="31">
      <stop
         offset="0"
         stop-color="#cdf87e"
         id="stop23" />
      <stop
         offset=".262"
         stop-color="#a2e34f"
         id="stop25" />
      <stop
         offset=".661"
         stop-color="#68b723"
         id="stop27" />
      <stop
         offset="1"
         stop-color="#1d7e0d"
         id="stop29" />
    </radialGradient>
    <linearGradient
       inkscape:collect="always"
       xlink:href="#linearGradient840"
       id="linearGradient842"
       x1="11"
       y1="4"
       x2="11"
       y2="18"
       gradientUnits="userSpaceOnUse"
       gradientTransform="translate(0.49974029,-1)" />
    <linearGradient
       inkscape:collect="always"
       id="linearGradient840">
      <stop
         style="stop-color:#151515;stop-opacity:1"
         offset="0"
         id="stop836" />
      <stop
         style="stop-color:#4d4d4d;stop-opacity:1"
         offset="1"
         id="stop838" />
    </linearGradient>
  </defs>
  <sodipodi:namedview
     pagecolor="#808080"
     bordercolor="#666666"
     borderopacity="1"
     objecttolerance="10"
     gridtolerance="10"
     guidetolerance="10"
     inkscape:pageopacity="0"
     inkscape:pageshadow="2"
     inkscape:window-width="1920"
     inkscape:window-height="1043"
     id="namedview8"
     showgrid="true"
     inkscape:zoom="32"
     inkscape:cx="7.3378942"
     inkscape:cy="12.068183"
     inkscape:window-x="1920"
     inkscape:window-y="0"
     inkscape:window-maximized="1"
     inkscape:current-layer="svg6"
     inkscape:document-rotation="0">
    <inkscape:grid
       type="xygrid"
       id="grid828" />
  </sodipodi:namedview>
  <path
     id="path866"
     style="color:#000000;font-style:normal;font-variant:normal;font-weight:normal;font-stretch:normal;font-size:medium;line-height:normal;font-family:sans-serif;font-variant-ligatures:normal;font-variant-position:normal;font-variant-caps:normal;font-variant-numeric:normal;font-variant-alternates:normal;font-variant-east-asian:normal;font-feature-settings:normal;font-variation-settings:normal;text-indent:0;text-align:start;text-decoration:none;text-decoration-line:none;text-decoration-style:solid;text-decoration-color:#000000;letter-spacing:normal;word-spacing:normal;text-transform:none;writing-mode:lr-tb;direction:ltr;text-orientation:mixed;dominant-baseline:auto;baseline-shift:baseline;text-anchor:start;white-space:normal;shape-padding:0;shape-margin:0;inline-size:0;clip-rule:nonzero;display:inline;overflow:visible;visibility:visible;isolation:auto;mix-blend-mode:normal;color-interpolation:sRGB;color-interpolation-filters:linearRGB;solid-color:#000000;solid-opacity:1;vector-effect:none;fill:#ffffff;fill-opacity:1;fill-rule:nonzero;stroke:none;stroke-width:2;stroke-linecap:butt;stroke-linejoin:round;stroke-miterlimit:4;stroke-dasharray:none;stroke-dashoffset:0;stroke-opacity:1;color-rendering:auto;image-rendering:auto;shape-rendering:auto;text-rendering:auto;enable-background:accumulate;stop-color:#000000"
     d="M 10.5 2 A 1.0001 1.0001 0 0 0 9.5585938 2.6640625 L 4.5585938 16.664062 A 1.0001 1.0001 0 0 0 5.5 18 L 8.265625 18 L 7.3046875 16.990234 L 10.650391 14.019531 L 10.65625 14 L 10.669922 14 L 11.191406 13.537109 L 11.677734 14 L 14.34375 14 L 15.179688 16.298828 L 16.736328 14.720703 L 15.984375 12.658203 A 1.0001 1.0001 0 0 0 15.044922 12 L 14.318359 12 A 1.0001 1.0001 0 0 0 15.257812 10.658203 L 13.439453 5.6582031 A 1.0001 1.0001 0 0 0 11.560547 5.6582031 L 9.7421875 10.658203 A 1.0001 1.0001 0 0 0 10.681641 12 L 9.9550781 12 A 1.0001 1.0001 0 0 0 9.015625 12.658203 L 7.7988281 16 L 6.9179688 16 L 11.205078 4 L 13.794922 4 L 17.388672 14.058594 L 18.947266 12.478516 L 15.441406 2.6640625 A 1.0001 1.0001 0 0 0 14.5 2 L 10.5 2 z M 12.5 8.9257812 L 12.890625 10 L 12.109375 10 L 12.5 8.9257812 z " />
  <path
     id="path2"
     style="fill:url(#linearGradient842);fill-opacity:1"
     d="M 10.5 3 L 5.5 17 L 7.3144531 17 L 7.3046875 16.990234 L 9.0761719 15.416016 L 9.9550781 13 L 15.044922 13 L 15.957031 15.509766 L 18.167969 13.269531 L 14.5 3 L 10.5 3 z M 12.5 6 L 14.318359 11 L 10.681641 11 L 12.5 6 z " />
  <path
     inkscape:connector-curvature="0"
     style="fill:#0e8420;fill-opacity:1;stroke-width:0.93712002"
     d="m 14.670531,18.239431 6.32368,-6.41151 2.005533,1.960729 L 14.405866,23 8.743,17.050867 11.166527,14.896435 Z"
     id="path40"
     sodipodi:nodetypes="ccccccc" />
</svg>
