<?xml version="1.0" encoding="UTF-8" standalone="no"?>
<svg
   xmlns:dc="http://purl.org/dc/elements/1.1/"
   xmlns:cc="http://creativecommons.org/ns#"
   xmlns:rdf="http://www.w3.org/1999/02/22-rdf-syntax-ns#"
   xmlns:svg="http://www.w3.org/2000/svg"
   xmlns="http://www.w3.org/2000/svg"
   xmlns:sodipodi="http://sodipodi.sourceforge.net/DTD/sodipodi-0.dtd"
   xmlns:inkscape="http://www.inkscape.org/namespaces/inkscape"
   viewBox="0 0 24 24"
   version="1.1"
   id="svg6"
   sodipodi:docname="lc_tablemodefix.svg"
   inkscape:version="1.0.1 (3bc2e813f5, 2020-09-07)"
   inkscape:export-filename="/home/jupiter007/Libreoffice yaru theme fullcolor/build/cmd/lc_tablemodefix.png"
   inkscape:export-xdpi="95"
   inkscape:export-ydpi="95">
  <metadata
     id="metadata12">
    <rdf:RDF>
      <cc:Work
         rdf:about="">
        <dc:format>image/svg+xml</dc:format>
        <dc:type
           rdf:resource="http://purl.org/dc/dcmitype/StillImage" />
      </cc:Work>
    </rdf:RDF>
  </metadata>
  <defs
     id="defs10" />
  <sodipodi:namedview
     pagecolor="#ffffff"
     bordercolor="#666666"
     borderopacity="1"
     objecttolerance="10"
     gridtolerance="10"
     guidetolerance="10"
     inkscape:pageopacity="0"
     inkscape:pageshadow="2"
     inkscape:window-width="1920"
     inkscape:window-height="1016"
     id="namedview8"
     showgrid="true"
     inkscape:zoom="27.812867"
     inkscape:cx="11.643933"
     inkscape:cy="9.9289758"
     inkscape:window-x="0"
     inkscape:window-y="27"
     inkscape:window-maximized="1"
     inkscape:current-layer="svg6"
     inkscape:document-rotation="0">
    <inkscape:grid
       type="xygrid"
       id="grid822" />
  </sodipodi:namedview>
  <path
     d="m 3,15 v 5 h 1 v -2 h 16 v 2 h 1 v -5 h -1 v 2 H 4 v -2 z"
     id="path4"
     style="fill:#e95420;fill-opacity:1"
     inkscape:connector-curvature="0"
     sodipodi:nodetypes="ccccccccccccc" />
  <rect
     style="opacity:1;fill:#ffffff;fill-opacity:1;stroke:none;stroke-width:2;stroke-linecap:round;stroke-linejoin:round;stroke-miterlimit:4;stroke-dasharray:none;stroke-opacity:1"
     id="rect827"
     width="16"
     height="9"
     x="4"
     y="4"
     inkscape:export-filename="/home/jupiter007/Libreoffice yaru theme fullcolor/build/cmd/rect827.png"
     inkscape:export-xdpi="95"
     inkscape:export-ydpi="95" />
  <path
     id="path2-4"
     style="opacity:1;fill:#6d6d6d;fill-opacity:1;stroke-width:0.999999"
     d="M 6,3 C 4,3 3,3 3,5 v 8 h 1 v -2 h 5 v 2 h 1 v -2 h 4 v 2 h 1 v -2 h 5 v 2 h 1 V 5 C 21,3 20,3 18,3 Z M 6,4 H 9 V 5 7 H 8 4 V 5 C 4,4 5,4 6,4 Z m 4,0 h 4 V 5 7 H 10 V 5 Z m 5,0 h 3 c 1,0 2,0 2,1 V 7 H 16 15 V 5 Z M 4,8 h 4 1 v 2 H 4 Z m 6,0 h 4 v 2 h -4 z m 5,0 h 5 v 2 h -5 z"
     sodipodi:nodetypes="ssccccccccccccccsssscccccssccccccccssccccccccccccccccccccc" />
</svg>
