<?xml version="1.0" encoding="UTF-8" standalone="no"?>
<svg
   xmlns:dc="http://purl.org/dc/elements/1.1/"
   xmlns:cc="http://creativecommons.org/ns#"
   xmlns:rdf="http://www.w3.org/1999/02/22-rdf-syntax-ns#"
   xmlns:svg="http://www.w3.org/2000/svg"
   xmlns="http://www.w3.org/2000/svg"
   xmlns:sodipodi="http://sodipodi.sourceforge.net/DTD/sodipodi-0.dtd"
   xmlns:inkscape="http://www.inkscape.org/namespaces/inkscape"
   viewBox="0 0 24 24"
   version="1.1"
   id="svg6"
   sodipodi:docname="lc_verticaltext.svg"
   inkscape:export-filename="/home/jupiter007/Libreoffice yaru theme fullcolor/build/cmd/lc_verticaltext.png"
   inkscape:export-xdpi="95"
   inkscape:export-ydpi="95"
   inkscape:version="1.0.1 (3bc2e813f5, 2020-09-07)">
  <metadata
     id="metadata12">
    <rdf:RDF>
      <cc:Work
         rdf:about="">
        <dc:format>image/svg+xml</dc:format>
        <dc:type
           rdf:resource="http://purl.org/dc/dcmitype/StillImage" />
      </cc:Work>
    </rdf:RDF>
  </metadata>
  <defs
     id="defs10" />
  <sodipodi:namedview
     pagecolor="#ffffff"
     bordercolor="#666666"
     borderopacity="1"
     objecttolerance="10"
     gridtolerance="10"
     guidetolerance="10"
     inkscape:pageopacity="0"
     inkscape:pageshadow="2"
     inkscape:window-width="1920"
     inkscape:window-height="1011"
     id="namedview8"
     showgrid="true"
     inkscape:zoom="19.666667"
     inkscape:cx="8.8604996"
     inkscape:cy="9.3698731"
     inkscape:window-x="0"
     inkscape:window-y="0"
     inkscape:window-maximized="1"
     inkscape:current-layer="svg6"
     inkscape:document-rotation="0">
    <inkscape:grid
       type="xygrid"
       id="grid836" />
  </sodipodi:namedview>
  <g
     id="g847"
     transform="rotate(90,15.500006,13.499994)">
    <path
       sodipodi:nodetypes="cccscsccccccccscscccccc"
       inkscape:connector-curvature="0"
       id="path4237-1-3"
       d="M 8.0027064,8 C 6.7445054,8.0151181 5.8238162,7.9697638 5.0710666,8.3847559 4.6947012,8.592252 4.3978344,8.9441638 4.2331755,9.3828158 4.0685015,9.8214678 4.0085582,10.3424 4.0085582,11 v 1.488265 10.511736 c 0,0.6576 0.059905,1.17857 0.2246173,1.617184 0.164674,0.438614 0.4615295,0.788523 0.8378911,0.996094 0.7527194,0.415144 1.6735408,0.371528 2.9316398,0.386722 h 0.002 11.9888096 0.0038 c 1.25819,-0.01512 2.178891,0.03024 2.93164,-0.384756 0.376366,-0.207874 0.673221,-0.559408 0.837891,-0.99806 0.164523,-0.438652 0.224618,-0.959584 0.224618,-1.617184 V 12.466797 11 c 0,-0.6576 -0.05991,-1.17857 -0.224618,-1.6171842 C 23.602151,8.9442016 23.305292,8.5942929 22.928934,8.3867213 22.176162,7.971578 21.255333,8.0151937 19.997241,8 h -0.002 -11.988809 z"
       style="font-style:normal;font-variant:normal;font-weight:normal;font-stretch:normal;font-size:15px;line-height:125%;font-family:Ubuntu;-inkscape-font-specification:Ubuntu;text-align:center;letter-spacing:0px;word-spacing:0px;writing-mode:lr-tb;text-anchor:middle;display:inline;opacity:0.7;fill:#000000;fill-opacity:1;stroke:none;stroke-width:0.999802" />
    <path
       inkscape:connector-curvature="0"
       id="path1993-9"
       d="M 10.977353,9.0273512 C 9.4207701,9.0386898 7.8673615,9.0160126 6.3174112,9.0662804 5.8561841,9.108989 5.3012209,9.2726426 5.1620701,9.7762646 4.9430842,10.411603 5.0536732,11.110022 5.0162937,11.758173 c -0.00794,2.297084 -0.023055,9.596335 0.021543,11.885708 0.039118,0.461934 0.2025449,1.012649 0.6987553,1.163641 0.6324548,0.22526 1.2841437,0.122835 1.9359723,0.154205 1.4242357,0.0076 4.8505667,0.01134 6.2764197,0.01134 1.704533,3.4e-4 5.408391,-0.0038 7.10719,-0.0189 0.511915,-0.01134 1.183699,0.0189 1.584749,-0.405166 0.421096,-0.539792 0.287055,-2.267792 0.322734,-2.903584 0.01172,-2.444296 0.02759,-8.911219 -0.02192,-11.356914 C 22.89245,9.8864379 22.771732,9.4255245 22.366597,9.2440315 21.69843,8.9499843 20.940392,9.0758426 20.240677,9.0384252 18.486269,9.0270867 12.731803,9.0270867 10.977365,9.0270867 Z"
       style="opacity:1;vector-effect:none;fill:#fa9381;fill-opacity:1;stroke:none;stroke-width:0.999999;stroke-linecap:round;stroke-linejoin:bevel;stroke-miterlimit:4;stroke-dasharray:none;stroke-dashoffset:0;stroke-opacity:1"
       sodipodi:nodetypes="cccccccsccccccc" />
    <path
       style="fill:#ffffff;fill-opacity:1;stroke-width:0.999999"
       d="m 8.999999,12.999975 v 2.000013 h 4.000003 v 6 h 1.999997 v -6 h 3.999999 v -2.000013 z"
       id="path815-3"
       inkscape:connector-curvature="0"
       sodipodi:nodetypes="ccccccccc" />
  </g>
</svg>
