<?xml version="1.0" encoding="UTF-8" standalone="no"?>
<svg
   viewBox="0 0 24 24"
   version="1.1"
   id="svg4"
   sodipodi:docname="lc_watchwindow.svg"
   inkscape:export-filename="/home/jupiter007/Libreoffice yaru theme fullcolor/build/cmd/lc_addwatch.png"
   inkscape:export-xdpi="96"
   inkscape:export-ydpi="96"
   inkscape:version="1.2 (1:1.2.1+202207142221+cd75a1ee6d)"
   xmlns:inkscape="http://www.inkscape.org/namespaces/inkscape"
   xmlns:sodipodi="http://sodipodi.sourceforge.net/DTD/sodipodi-0.dtd"
   xmlns="http://www.w3.org/2000/svg"
   xmlns:svg="http://www.w3.org/2000/svg"
   xmlns:rdf="http://www.w3.org/1999/02/22-rdf-syntax-ns#"
   xmlns:cc="http://creativecommons.org/ns#"
   xmlns:dc="http://purl.org/dc/elements/1.1/">
  <metadata
     id="metadata10">
    <rdf:RDF>
      <cc:Work
         rdf:about="">
        <dc:format>image/svg+xml</dc:format>
        <dc:type
           rdf:resource="http://purl.org/dc/dcmitype/StillImage" />
      </cc:Work>
    </rdf:RDF>
  </metadata>
  <defs
     id="defs8" />
  <sodipodi:namedview
     pagecolor="#ffffff"
     bordercolor="#666666"
     borderopacity="1"
     objecttolerance="10"
     gridtolerance="10"
     guidetolerance="10"
     inkscape:pageopacity="0"
     inkscape:pageshadow="2"
     inkscape:window-width="1920"
     inkscape:window-height="1016"
     id="namedview6"
     showgrid="true"
     inkscape:zoom="16"
     inkscape:cx="1.125"
     inkscape:cy="5.90625"
     inkscape:window-x="0"
     inkscape:window-y="0"
     inkscape:window-maximized="1"
     inkscape:current-layer="svg4"
     inkscape:showpageshadow="2"
     inkscape:pagecheckerboard="0"
     inkscape:deskcolor="#d1d1d1">
    <inkscape:grid
       type="xygrid"
       id="grid827" />
  </sodipodi:namedview>
  <path
     id="rect859"
     style="opacity:0.7;fill:#000000;fill-opacity:1;fill-rule:evenodd;stroke-width:0.75;stroke-linecap:square;stroke-linejoin:round"
     d="m 4,2 c -1.108,0 -2,0.892 -2,2 v 18 h 20 v -18 c 0,-1.108 -0.892,-2 -2,-2 z" />
  <rect
     style="fill:#ffffff;fill-rule:evenodd;stroke-width:0.75;stroke-linecap:square;stroke-linejoin:round"
     id="rect846"
     width="18"
     height="14"
     x="3"
     y="7"
     ry="0"
     rx="0" />
  <path
     id="rect870"
     style="fill:#ffffff;fill-opacity:1;fill-rule:evenodd;stroke-width:0.75;stroke-linecap:square;stroke-linejoin:round"
     d="m 4,3 c -0.554,0 -1,0.446 -1,1 v 2 h 18 v -2 c 0,-0.554 -0.446,-1 -1,-1 z" />
  <path
     d="m 18,4 h 1 v 1 h -1 z"
     id="path54"
     inkscape:connector-curvature="0"
     style="fill:#00ffff;fill-opacity:1;stroke-width:2" />
  <path
     d="m 16,4 h 1 v 1 h -1 z"
     id="path855"
     inkscape:connector-curvature="0"
     style="fill:#232629;fill-opacity:1;stroke-width:2" />
  <path
     d="m 14,4 h 1 v 1 h -1 z"
     id="path857"
     inkscape:connector-curvature="0"
     style="fill:#232629;fill-opacity:1;stroke-width:2" />
  <path
     sodipodi:nodetypes="sssss"
     inkscape:connector-curvature="0"
     id="path839"
     d="m 16,13 c 3.865993,0 7,2.790861 7,5 0,2.209139 -3.134007,5 -7,5 -3.865993,0 -7,-2.790861 -7,-5 0,-2.209139 3.134007,-5 7,-5 z"
     style="opacity:0.7;fill:#000000;fill-opacity:1;stroke:#000000;stroke-width:2;stroke-linecap:round;stroke-linejoin:round;stroke-miterlimit:4;stroke-dasharray:none;stroke-opacity:1" />
  <path
     style="fill:#ffffff;fill-opacity:1;stroke:none;stroke-width:2;stroke-linecap:round;stroke-linejoin:round;stroke-miterlimit:4;stroke-dasharray:none;stroke-opacity:1"
     d="m 16,13 c 3.865993,0 7,2.790861 7,5 0,2.209139 -3.134007,5 -7,5 -3.865993,0 -7,-2.790861 -7,-5 0,-2.209139 3.134007,-5 7,-5 z"
     id="path826-5"
     inkscape:connector-curvature="0"
     sodipodi:nodetypes="sssss" />
  <path
     d="m 16,16 c -1.104569,0 -2,0.89543 -2,2 0,1.104569 0.895431,2 2,2 1.104569,0 2,-0.89543 2,-2 0.02896,-0.194894 0.02896,-0.392997 0,-0.587891 -0.174008,0.38903 -0.57545,0.625034 -1,0.587891 -0.552285,0 -1,-0.447715 -1,-1 -0.03682,-0.425027 0.200048,-0.826612 0.589844,-1 -0.195534,-0.02915 -0.39431,-0.02915 -0.589844,0 z"
     id="path2"
     inkscape:connector-curvature="0"
     style="fill:#232629"
     sodipodi:nodetypes="csscccccc" />
  <path
     inkscape:connector-curvature="0"
     style="fill:#232629;fill-opacity:1;stroke:none;stroke-width:2;stroke-linecap:round;stroke-linejoin:round;stroke-miterlimit:4;stroke-dasharray:none;stroke-opacity:1"
     d="m 16,14 a 4,4 0 0 0 -4,4 4,4 0 0 0 4,4 4,4 0 0 0 4,-4 4,4 0 0 0 -4,-4 z m 0,1 a 3,3 0 0 1 3,3 3,3 0 0 1 -3,3 3,3 0 0 1 -3,-3 3,3 0 0 1 3,-3 z"
     id="path833" />
</svg>
