<?xml version="1.0" encoding="UTF-8" standalone="no"?>
<svg
   viewBox="0 0 24 24"
   version="1.1"
   id="svg8"
   sodipodi:docname="lc_wrapideal.svg"
   inkscape:version="1.4.2 (ebf0e940d0, 2025-05-08)"
   inkscape:export-filename="/home/jupiter007/Libreoffice yaru theme fullcolor/build/cmd/lc_wrapideal.png"
   inkscape:export-xdpi="96"
   inkscape:export-ydpi="96"
   xmlns:inkscape="http://www.inkscape.org/namespaces/inkscape"
   xmlns:sodipodi="http://sodipodi.sourceforge.net/DTD/sodipodi-0.dtd"
   xmlns="http://www.w3.org/2000/svg"
   xmlns:svg="http://www.w3.org/2000/svg"
   xmlns:rdf="http://www.w3.org/1999/02/22-rdf-syntax-ns#"
   xmlns:cc="http://creativecommons.org/ns#"
   xmlns:dc="http://purl.org/dc/elements/1.1/">
  <metadata
     id="metadata14">
    <rdf:RDF>
      <cc:Work
         rdf:about="">
        <dc:format>image/svg+xml</dc:format>
        <dc:type
           rdf:resource="http://purl.org/dc/dcmitype/StillImage" />
        <dc:title />
      </cc:Work>
    </rdf:RDF>
  </metadata>
  <defs
     id="defs12" />
  <sodipodi:namedview
     pagecolor="#ffffff"
     bordercolor="#666666"
     borderopacity="1"
     objecttolerance="10"
     gridtolerance="10"
     guidetolerance="10"
     inkscape:pageopacity="0"
     inkscape:pageshadow="2"
     inkscape:window-width="1920"
     inkscape:window-height="1011"
     id="namedview10"
     showgrid="true"
     inkscape:zoom="27.812867"
     inkscape:cx="14.148128"
     inkscape:cy="13.860491"
     inkscape:window-x="0"
     inkscape:window-y="0"
     inkscape:window-maximized="1"
     inkscape:current-layer="svg8"
     inkscape:document-rotation="0"
     inkscape:showpageshadow="2"
     inkscape:pagecheckerboard="0"
     inkscape:deskcolor="#d1d1d1">
    <inkscape:grid
       type="xygrid"
       id="grid838"
       originx="0"
       originy="0"
       spacingy="1"
       spacingx="1"
       units="px" />
  </sodipodi:namedview>
  <path
     d="M 7,7 V 18 H 17 V 7 Z"
     id="path2"
     style="opacity:1;fill:#00ff00;fill-opacity:1;stroke-width:0.830336"
     inkscape:connector-curvature="0"
     sodipodi:nodetypes="ccccc" />
  <path
     id="rect834-2"
     style="fill:#0000ff;fill-opacity:1;fill-rule:evenodd;stroke-width:2;stroke-linecap:round;stroke-linejoin:round"
     d="M 2 3 L 2 4 L 22 4 L 22 3 L 2 3 z M 2 5 L 2 6 L 22 6 L 22 5 L 2 5 z M 2 7 L 2 8 L 6 8 L 6 7 L 2 7 z M 18 7 L 18 8 L 22 8 L 22 7 L 18 7 z M 2 9 L 2 10 L 6 10 L 6 9 L 2 9 z M 18 9 L 18 10 L 22 10 L 22 9 L 18 9 z M 2 11 L 2 12 L 6 12 L 6 11 L 2 11 z M 18 11 L 18 12 L 22 12 L 22 11 L 18 11 z M 2 13 L 2 14 L 6 14 L 6 13 L 2 13 z M 18 13 L 18 14 L 22 14 L 22 13 L 18 13 z M 2 15 L 2 16 L 6 16 L 6 15 L 2 15 z M 18 15 L 18 16 L 22 16 L 22 15 L 18 15 z M 2 17 L 2 18 L 6 18 L 6 17 L 2 17 z M 18 17 L 18 18 L 22 18 L 22 17 L 18 17 z M 2 19 L 2 20 L 22 20 L 22 19 L 2 19 z M 2 21 L 2 22 L 22 22 L 22 21 L 2 21 z " />
  <path
     id="path1"
     style="opacity:0.5;fill:#000000;fill-opacity:1;stroke-width:0.830336"
     d="M 7 7 L 7 18 L 17 18 L 17 7 L 7 7 z M 8 8 L 16 8 L 16 17 L 8 17 L 8 8 z " />
</svg>
