<?xml version="1.0" encoding="UTF-8" standalone="no"?>
<svg
   viewBox="0 0 24 24"
   version="1.1"
   id="svg4"
   sodipodi:docname="lc_zoomnext.svg"
   inkscape:export-filename="/home/jupiter007/Libreoffice yaru theme fullcolor/build/cmd/lc_zoomnext.png"
   inkscape:export-xdpi="96"
   inkscape:export-ydpi="96"
   inkscape:version="1.2 (1:1.2.1+202207142221+cd75a1ee6d)"
   xmlns:inkscape="http://www.inkscape.org/namespaces/inkscape"
   xmlns:sodipodi="http://sodipodi.sourceforge.net/DTD/sodipodi-0.dtd"
   xmlns="http://www.w3.org/2000/svg"
   xmlns:svg="http://www.w3.org/2000/svg"
   xmlns:rdf="http://www.w3.org/1999/02/22-rdf-syntax-ns#"
   xmlns:cc="http://creativecommons.org/ns#"
   xmlns:dc="http://purl.org/dc/elements/1.1/">
  <metadata
     id="metadata10">
    <rdf:RDF>
      <cc:Work
         rdf:about="">
        <dc:format>image/svg+xml</dc:format>
        <dc:type
           rdf:resource="http://purl.org/dc/dcmitype/StillImage" />
      </cc:Work>
    </rdf:RDF>
  </metadata>
  <defs
     id="defs8" />
  <sodipodi:namedview
     pagecolor="#ffffff"
     bordercolor="#666666"
     borderopacity="1"
     objecttolerance="10"
     gridtolerance="10"
     guidetolerance="10"
     inkscape:pageopacity="0"
     inkscape:pageshadow="2"
     inkscape:window-width="1920"
     inkscape:window-height="1043"
     id="namedview6"
     showgrid="false"
     inkscape:zoom="11.313708"
     inkscape:cx="37.25569"
     inkscape:cy="10.694991"
     inkscape:window-x="0"
     inkscape:window-y="0"
     inkscape:window-maximized="1"
     inkscape:current-layer="svg4"
     inkscape:document-rotation="0"
     inkscape:showpageshadow="2"
     inkscape:pagecheckerboard="0"
     inkscape:deskcolor="#d1d1d1">
    <inkscape:grid
       type="xygrid"
       id="grid817" />
  </sodipodi:namedview>
  <path
     id="path1206"
     style="color:#000000;fill:#000000;fill-rule:evenodd;stroke-linecap:round;stroke-linejoin:round;opacity:0.7"
     d="M 11.5 3 C 6.8174336 3 3 6.8174336 3 11.5 C 3 16.182566 6.8174336 20 11.5 20 C 16.182566 20 20 16.182566 20 11.5 C 20 10.261914 19.731128 9.0859907 19.251953 8.0234375 L 18 8.8046875 L 18 6.0351562 C 17.990173 6.0234888 17.980591 6.011614 17.970703 6 L 14.972656 6 C 16.79379 7.149148 18 9.1779939 18 11.5 C 18 15.101688 15.101688 18 11.5 18 C 7.8983117 18 5 15.101688 5 11.5 C 5 7.8983117 7.8983117 5 11.5 5 C 12.01692 5 12.518546 5.0609158 13 5.1738281 L 13 3.1367188 C 12.512352 3.0492266 12.012216 3 11.5 3 z " />
  <path
     id="circle1208"
     style="fill:#ffffff;fill-rule:evenodd;stroke:none;stroke-width:2;stroke-linecap:round;stroke-linejoin:round"
     d="M 11.5 4 A 7.5 7.5 0 0 0 4 11.5 A 7.5 7.5 0 0 0 11.5 19 A 7.5 7.5 0 0 0 19 11.5 A 7.5 7.5 0 0 0 18.396484 8.5566406 L 18 8.8046875 L 18 7.7617188 A 7.5 7.5 0 0 0 16.595703 6 L 13 6 L 13 4.1523438 A 7.5 7.5 0 0 0 11.5 4 z " />
  <path
     style="fill:none;stroke:#6d6d6d;stroke-width:2;stroke-linecap:round;stroke-linejoin:miter"
     d="m 21,21 -2.8,-2.8"
     id="path1327"
     sodipodi:nodetypes="cc" />
  <path
     inkscape:connector-curvature="0"
     style="fill:#00ff00;fill-opacity:1;stroke:none;stroke-width:1px;stroke-linecap:butt;stroke-linejoin:miter;stroke-opacity:1"
     d="M 23,4.5 19,2 v 2 h -5 v 1 h 5 v 2 z"
     id="path834"
     sodipodi:nodetypes="cccccccc" />
</svg>
