<?xml version="1.0" encoding="UTF-8" standalone="no"?>
<svg
   xmlns:dc="http://purl.org/dc/elements/1.1/"
   xmlns:cc="http://creativecommons.org/ns#"
   xmlns:rdf="http://www.w3.org/1999/02/22-rdf-syntax-ns#"
   xmlns:svg="http://www.w3.org/2000/svg"
   xmlns="http://www.w3.org/2000/svg"
   xmlns:sodipodi="http://sodipodi.sourceforge.net/DTD/sodipodi-0.dtd"
   xmlns:inkscape="http://www.inkscape.org/namespaces/inkscape"
   viewBox="0 0 16 16"
   version="1.1"
   id="svg10"
   sodipodi:docname="sc_alphalowliststyle.svg"
   inkscape:version="1.0.1 (3bc2e813f5, 2020-09-07)"
   inkscape:export-filename="/home/jupiter007/Libreoffice yaru theme fullcolor/build/cmd/sc_alphalowliststyle.png"
   inkscape:export-xdpi="96"
   inkscape:export-ydpi="96">
  <metadata
     id="metadata16">
    <rdf:RDF>
      <cc:Work
         rdf:about="">
        <dc:format>image/svg+xml</dc:format>
        <dc:type
           rdf:resource="http://purl.org/dc/dcmitype/StillImage" />
        <dc:title></dc:title>
      </cc:Work>
    </rdf:RDF>
  </metadata>
  <defs
     id="defs14" />
  <sodipodi:namedview
     pagecolor="#808080"
     bordercolor="#666666"
     borderopacity="1"
     objecttolerance="10"
     gridtolerance="10"
     guidetolerance="10"
     inkscape:pageopacity="0"
     inkscape:pageshadow="2"
     inkscape:window-width="1920"
     inkscape:window-height="1011"
     id="namedview12"
     showgrid="true"
     inkscape:zoom="41.7193"
     inkscape:cx="5.7316399"
     inkscape:cy="4.6912076"
     inkscape:window-x="0"
     inkscape:window-y="32"
     inkscape:window-maximized="1"
     inkscape:current-layer="svg10"
     inkscape:document-rotation="0">
    <inkscape:grid
       type="xygrid"
       id="grid823" />
  </sodipodi:namedview>
  <path
     d="M 3,2 A 2,2 0 0 0 1,4 2,2 0 0 0 3,6 2,2 0 0 0 4,5.7304688 V 6 H 5 V 4 2 H 4 V 2.2714844 A 2,2 0 0 0 3,2 Z M 3,3 A 1,1 0 0 1 4,4 1,1 0 0 1 3,5 1,1 0 0 1 2,4 1,1 0 0 1 3,3 Z"
     id="path4"
     inkscape:connector-curvature="0"
     style="fill:#00ffff;fill-opacity:1" />
  <path
     d="m 3,10 c 1.1045695,0 2,0.895431 2,2 0,1.104569 -0.8954305,2 -2,2 C 2.6487829,13.999519 2.3038851,13.90656 2,13.730469 V 14 H 1 V 12 9 h 1 v 1.271484 C 2.3036956,10.094712 2.6486051,10.001074 3,10 Z m 0,1 c -0.5522847,0 -1,0.447715 -1,1 0,0.552285 0.4477153,1 1,1 0.5522847,0 1,-0.447715 1,-1 0,-0.552285 -0.4477153,-1 -1,-1 z"
     id="path6"
     inkscape:connector-curvature="0"
     sodipodi:nodetypes="cscccccccccsssss"
     style="fill:#00ffff;fill-opacity:1" />
  <rect
     style="fill:#232629;fill-rule:evenodd;stroke-width:3;stroke-linecap:round;stroke-linejoin:round"
     id="rect837-8"
     width="7"
     height="1"
     x="6"
     y="-7"
     transform="scale(1,-1)" />
  <rect
     style="fill:#ffffff;fill-rule:evenodd;stroke-width:3;stroke-linecap:round;stroke-linejoin:round"
     id="rect839-7"
     width="7"
     height="1"
     x="6"
     y="-8"
     transform="scale(1,-1)" />
  <rect
     style="fill:#ffffff;fill-rule:evenodd;stroke-width:3;stroke-linecap:round;stroke-linejoin:round"
     id="rect843-2"
     width="5"
     height="1"
     x="6"
     y="-6"
     transform="scale(1,-1)" />
  <rect
     style="fill:#232629;fill-rule:evenodd;stroke-width:3;stroke-linecap:round;stroke-linejoin:round"
     id="rect861"
     width="5"
     height="1"
     x="6"
     y="-5"
     transform="scale(1,-1)" />
  <rect
     style="fill:#ffffff;fill-rule:evenodd;stroke-width:3;stroke-linecap:round;stroke-linejoin:round"
     id="rect867"
     width="9"
     height="1"
     x="6"
     y="-4"
     transform="scale(1,-1)" />
  <rect
     style="fill:#232629;fill-rule:evenodd;stroke-width:3;stroke-linecap:round;stroke-linejoin:round"
     id="rect869"
     width="9"
     height="1"
     x="6"
     y="-3"
     transform="scale(1,-1)" />
  <rect
     style="fill:#232629;fill-rule:evenodd;stroke-width:3;stroke-linecap:round;stroke-linejoin:round"
     id="rect837-1"
     width="7"
     height="1"
     x="6"
     y="-14"
     transform="scale(1,-1)" />
  <rect
     style="fill:#ffffff;fill-rule:evenodd;stroke-width:3;stroke-linecap:round;stroke-linejoin:round"
     id="rect839-2"
     width="7"
     height="1"
     x="6"
     y="-15"
     transform="scale(1,-1)" />
  <rect
     style="fill:#ffffff;fill-rule:evenodd;stroke-width:3;stroke-linecap:round;stroke-linejoin:round"
     id="rect843-2-7"
     width="5"
     height="1"
     x="6"
     y="-13"
     transform="scale(1,-1)" />
  <rect
     style="fill:#232629;fill-rule:evenodd;stroke-width:3;stroke-linecap:round;stroke-linejoin:round"
     id="rect861-0"
     width="5"
     height="1"
     x="6"
     y="-12"
     transform="scale(1,-1)" />
  <rect
     style="fill:#ffffff;fill-rule:evenodd;stroke-width:3;stroke-linecap:round;stroke-linejoin:round"
     id="rect867-9"
     width="9"
     height="1"
     x="6"
     y="-11"
     transform="scale(1,-1)" />
  <rect
     style="fill:#232629;fill-rule:evenodd;stroke-width:3;stroke-linecap:round;stroke-linejoin:round"
     id="rect869-3"
     width="9"
     height="1"
     x="6"
     y="-10"
     transform="scale(1,-1)" />
</svg>
