<?xml version="1.0" encoding="UTF-8" standalone="no"?>
<svg
   xmlns:dc="http://purl.org/dc/elements/1.1/"
   xmlns:cc="http://creativecommons.org/ns#"
   xmlns:rdf="http://www.w3.org/1999/02/22-rdf-syntax-ns#"
   xmlns:svg="http://www.w3.org/2000/svg"
   xmlns="http://www.w3.org/2000/svg"
   xmlns:xlink="http://www.w3.org/1999/xlink"
   xmlns:sodipodi="http://sodipodi.sourceforge.net/DTD/sodipodi-0.dtd"
   xmlns:inkscape="http://www.inkscape.org/namespaces/inkscape"
   viewBox="0 0 16 16"
   version="1.1"
   id="svg6"
   sodipodi:docname="sc_basicstepover.svg"
   inkscape:export-filename="/home/jupiter007/Libreoffice yaru theme fullcolor/build/cmd/sc_basicstepover.png"
   inkscape:export-xdpi="96"
   inkscape:export-ydpi="96"
   inkscape:version="1.0.1 (3bc2e813f5, 2020-09-07)">
  <metadata
     id="metadata12">
    <rdf:RDF>
      <cc:Work
         rdf:about="">
        <dc:format>image/svg+xml</dc:format>
        <dc:type
           rdf:resource="http://purl.org/dc/dcmitype/StillImage" />
        <dc:title></dc:title>
      </cc:Work>
    </rdf:RDF>
  </metadata>
  <defs
     id="defs10">
    <linearGradient
       inkscape:collect="always"
       id="linearGradient853">
      <stop
         style="stop-color:#151515;stop-opacity:1"
         offset="0"
         id="stop849" />
      <stop
         style="stop-color:#4d4d4d;stop-opacity:1"
         offset="1"
         id="stop851" />
    </linearGradient>
    <linearGradient
       inkscape:collect="always"
       xlink:href="#linearGradient853"
       id="linearGradient855"
       x1="8"
       y1="3"
       x2="8"
       y2="15"
       gradientUnits="userSpaceOnUse"
       gradientTransform="translate(-0.0058594,-0.0156246)" />
    <linearGradient
       inkscape:collect="always"
       xlink:href="#linearGradient853"
       id="linearGradient953"
       x1="8"
       y1="3"
       x2="8"
       y2="15"
       gradientUnits="userSpaceOnUse" />
    <linearGradient
       inkscape:collect="always"
       xlink:href="#linearGradient853"
       id="linearGradient872"
       gradientUnits="userSpaceOnUse"
       gradientTransform="translate(-0.0058594,-0.0156246)"
       x1="8"
       y1="3"
       x2="8"
       y2="15" />
    <linearGradient
       inkscape:collect="always"
       xlink:href="#linearGradient853"
       id="linearGradient882"
       gradientUnits="userSpaceOnUse"
       gradientTransform="matrix(-1,0,0,1,13.005859,-0.0156246)"
       x1="8"
       y1="3"
       x2="8"
       y2="15" />
  </defs>
  <sodipodi:namedview
     pagecolor="#808080"
     bordercolor="#666666"
     borderopacity="1"
     objecttolerance="10"
     gridtolerance="10"
     guidetolerance="10"
     inkscape:pageopacity="0"
     inkscape:pageshadow="2"
     inkscape:window-width="1920"
     inkscape:window-height="1043"
     id="namedview8"
     showgrid="true"
     inkscape:zoom="59"
     inkscape:cx="12.423817"
     inkscape:cy="4.6978216"
     inkscape:window-x="1920"
     inkscape:window-y="0"
     inkscape:window-maximized="1"
     inkscape:current-layer="svg6"
     inkscape:document-rotation="0">
    <inkscape:grid
       type="xygrid"
       id="grid842" />
  </sodipodi:namedview>
  <path
     style="fill:url(#linearGradient855);fill-opacity:1;stroke:#ffffff;stroke-width:2;stroke-linejoin:round"
     d="m 4,3.0000004 c -1.1043853,0.017358 -2,0.8954777 -2,2 V 7.5 C 2,7.77615 1.7761026,7.995321 1.5,8 H 1 v 2 H 1.5 C 1.7761423,10 2,10.225804 2,10.501953 v 1.5 1 c 0,1.104597 0.8954311,2 2,2 l 0.9941406,-0.01758 v -1 h -1 c -0.552284,0 -0.990479,-0.447783 -1,-1 v -3 c 0,-0.382499 -0.139285,-0.735025 -0.375,-1 0.235715,-0.264974 0.381594,-0.617557 0.375,-1 v -0.9999996 -0.28125 -1.71875 c 0,-0.5522986 0.452148,-1.0693454 1,-1 h 1 v -1 z"
     id="path864" />
  <path
     style="fill:url(#linearGradient872);fill-opacity:1"
     d="m 4,3.0000004 c -1.1043853,0.017358 -2,0.8954777 -2,2 V 7.5 C 2,7.77615 1.7761026,7.995321 1.5,8 H 1 v 2 H 1.5 C 1.7761423,10 2,10.225804 2,10.501953 v 1.5 1 c 0,1.104597 0.8954311,2 2,2 l 0.9941406,-0.01758 v -1 h -1 c -0.552284,0 -0.990479,-0.447783 -1,-1 v -3 c 0,-0.382499 -0.139285,-0.735025 -0.375,-1 0.235715,-0.264974 0.381594,-0.617557 0.375,-1 v -0.9999996 -0.28125 -1.71875 c 0,-0.5522986 0.452148,-1.0693454 1,-1 h 1 v -1 z"
     id="path2" />
  <g
     id="g876"
     transform="rotate(90,10.989258,4.9951177)">
    <path
       style="fill:#00ff00;fill-opacity:1;stroke:none;stroke-width:1px;stroke-linecap:butt;stroke-linejoin:miter;stroke-opacity:1"
       d="m 12.97723,2.4691184 -3.0000005,-2.5 0.01691,5.015257 z"
       id="path833-7"
       inkscape:connector-curvature="0"
       sodipodi:nodetypes="cccc" />
    <path
       id="path866"
       style="color:#000000;font-style:normal;font-variant:normal;font-weight:normal;font-stretch:normal;font-size:medium;line-height:normal;font-family:sans-serif;font-variant-ligatures:normal;font-variant-position:normal;font-variant-caps:normal;font-variant-numeric:normal;font-variant-alternates:normal;font-variant-east-asian:normal;font-feature-settings:normal;font-variation-settings:normal;text-indent:0;text-align:start;text-decoration:none;text-decoration-line:none;text-decoration-style:solid;text-decoration-color:#000000;letter-spacing:normal;word-spacing:normal;text-transform:none;writing-mode:lr-tb;direction:ltr;text-orientation:mixed;dominant-baseline:auto;baseline-shift:baseline;text-anchor:start;white-space:normal;shape-padding:0;shape-margin:0;inline-size:0;clip-rule:nonzero;display:inline;overflow:visible;visibility:visible;isolation:auto;mix-blend-mode:normal;color-interpolation:sRGB;color-interpolation-filters:linearRGB;solid-color:#000000;solid-opacity:1;vector-effect:none;fill:#00ff00;fill-opacity:1;fill-rule:nonzero;stroke:none;stroke-width:1px;stroke-linecap:square;stroke-linejoin:miter;stroke-miterlimit:4;stroke-dasharray:none;stroke-dashoffset:0;stroke-opacity:1;color-rendering:auto;image-rendering:auto;shape-rendering:auto;text-rendering:auto;enable-background:accumulate;stop-color:#000000"
       d="m 6.9941406,7.984375 h 1 c 0.00156,-0.732467 0.00943,-3.3456506 0.044921,-3.7714836 0.04382,-0.525846 0.1389688,-0.805735 0.2304687,-0.927735 0.0915,-0.122 0.206312,-0.191082 0.5644532,-0.24414 0.3581407,-0.053058 0.9101561,-0.056641 1.6601565,-0.056641 h 0.5 v -1 h -0.5 c -0.7500004,0 -1.3229854,-0.0036 -1.8085943,0.06836 -0.4856087,0.07194 -0.9332968,0.25286 -1.2167968,0.63086 -0.2835,0.378 -0.3758517,0.848111 -0.4257813,1.447265 -0.040517,0.486206 -0.047661,3.1145726 -0.048827,3.8535146 z"
       sodipodi:nodetypes="cccsssccscssc" />
  </g>
  <path
     id="path919"
     style="color:#000000;font-style:normal;font-variant:normal;font-weight:normal;font-stretch:normal;font-size:medium;line-height:normal;font-family:sans-serif;font-variant-ligatures:normal;font-variant-position:normal;font-variant-caps:normal;font-variant-numeric:normal;font-variant-alternates:normal;font-variant-east-asian:normal;font-feature-settings:normal;font-variation-settings:normal;text-indent:0;text-align:start;text-decoration:none;text-decoration-line:none;text-decoration-style:solid;text-decoration-color:#000000;letter-spacing:normal;word-spacing:normal;text-transform:none;writing-mode:lr-tb;direction:ltr;text-orientation:mixed;dominant-baseline:auto;baseline-shift:baseline;text-anchor:start;white-space:normal;shape-padding:0;shape-margin:0;inline-size:0;clip-rule:nonzero;display:inline;overflow:visible;visibility:visible;isolation:auto;mix-blend-mode:normal;color-interpolation:sRGB;color-interpolation-filters:linearRGB;solid-color:#000000;solid-opacity:1;vector-effect:none;fill:#ffffff;fill-opacity:1;fill-rule:nonzero;stroke:none;stroke-width:2;stroke-linecap:butt;stroke-linejoin:round;stroke-miterlimit:4;stroke-dasharray:none;stroke-dashoffset:0;stroke-opacity:1;color-rendering:auto;image-rendering:auto;shape-rendering:auto;text-rendering:auto;enable-background:accumulate;stop-color:#000000;stop-opacity:1;opacity:1"
     d="M 7.0058594 3.4980469 L 7.0058594 3.984375 A 1.0001 1.0001 0 0 0 8.0058594 4.984375 L 9.0058594 4.984375 L 9.0058594 6.703125 L 9.0058594 6.984375 L 9.0058594 7.9667969 C 8.9991311 8.3570536 9.2286419 8.6508797 9.3847656 8.9804688 C 9.2309697 9.3090414 9.0058594 9.6070793 9.0058594 9.984375 L 9.0058594 12.984375 L 8.0058594 12.984375 A 1.0001 1.0001 0 0 0 7.0058594 13.984375 L 7.0058594 14.984375 A 1.0001 1.0001 0 0 0 7.9882812 15.984375 L 8.9824219 16.001953 A 1.0001 1.0001 0 0 0 9 16.001953 C 10.644993 16.001953 12 14.646977 12 13.001953 L 12 12.001953 L 12 11 A 1.0001 1.0001 0 0 0 13 10 L 13 8.6953125 L 8.6191406 3.5039062 C 8.4288459 3.5032739 8.1101401 3.5002429 7.9960938 3.5 L 7.0058594 3.4980469 z " />
  <path
     id="path880"
     style="fill:url(#linearGradient882);fill-opacity:1"
     d="M 8.0058594 3.5 L 8.0058594 3.984375 L 9.0058594 3.984375 C 9.0125081 3.9835334 9.0187708 3.9850448 9.0253906 3.984375 L 8.6191406 3.5039062 C 8.4318285 3.5032838 8.1243525 3.5003239 8.0058594 3.5 z M 10.005859 5.1464844 L 10.005859 6.703125 L 10.005859 6.984375 L 10.005859 7.984375 C 9.9992658 8.366818 10.145144 8.719401 10.380859 8.984375 C 10.145144 9.24935 10.005859 9.601876 10.005859 9.984375 L 10.005859 12.984375 C 9.9963388 13.536592 9.5581434 13.984375 9.0058594 13.984375 L 8.0058594 13.984375 L 8.0058594 14.984375 L 9 15.001953 C 10.104569 15.001953 11 14.10655 11 13.001953 L 11 12.001953 L 11 10.501953 C 11 10.225804 11.223858 10 11.5 10 L 12 10 L 12 8 L 11.5 8 C 11.223897 7.995321 11 7.77615 11 7.5 L 11 6.3261719 L 10.005859 5.1464844 z " />
</svg>
