<?xml version="1.0" encoding="UTF-8" standalone="no"?>
<svg
   xmlns:dc="http://purl.org/dc/elements/1.1/"
   xmlns:cc="http://creativecommons.org/ns#"
   xmlns:rdf="http://www.w3.org/1999/02/22-rdf-syntax-ns#"
   xmlns:svg="http://www.w3.org/2000/svg"
   xmlns="http://www.w3.org/2000/svg"
   xmlns:xlink="http://www.w3.org/1999/xlink"
   xmlns:sodipodi="http://sodipodi.sourceforge.net/DTD/sodipodi-0.dtd"
   xmlns:inkscape="http://www.inkscape.org/namespaces/inkscape"
   viewBox="0 0 16 16"
   version="1.1"
   id="svg6"
   sodipodi:docname="sc_basicstepout.svg"
   inkscape:export-filename="/home/jupiter007/Libreoffice yaru theme fullcolor/build/cmd/sc_basicstepout.png"
   inkscape:export-xdpi="96"
   inkscape:export-ydpi="96"
   inkscape:version="1.0.1 (3bc2e813f5, 2020-09-07)">
  <metadata
     id="metadata12">
    <rdf:RDF>
      <cc:Work
         rdf:about="">
        <dc:format>image/svg+xml</dc:format>
        <dc:type
           rdf:resource="http://purl.org/dc/dcmitype/StillImage" />
        <dc:title></dc:title>
      </cc:Work>
    </rdf:RDF>
  </metadata>
  <defs
     id="defs10">
    <linearGradient
       inkscape:collect="always"
       id="linearGradient853">
      <stop
         style="stop-color:#151515;stop-opacity:1"
         offset="0"
         id="stop849" />
      <stop
         style="stop-color:#4d4d4d;stop-opacity:1"
         offset="1"
         id="stop851" />
    </linearGradient>
    <linearGradient
       inkscape:collect="always"
       xlink:href="#linearGradient853"
       id="linearGradient855"
       x1="8"
       y1="3"
       x2="8"
       y2="15"
       gradientUnits="userSpaceOnUse" />
    <linearGradient
       inkscape:collect="always"
       xlink:href="#linearGradient853"
       id="linearGradient871"
       gradientUnits="userSpaceOnUse"
       x1="8"
       y1="3"
       x2="8"
       y2="15"
       gradientTransform="matrix(-1,0,0,1,16.005859,0)" />
  </defs>
  <sodipodi:namedview
     pagecolor="#808080"
     bordercolor="#666666"
     borderopacity="1"
     objecttolerance="10"
     gridtolerance="10"
     guidetolerance="10"
     inkscape:pageopacity="0"
     inkscape:pageshadow="2"
     inkscape:window-width="1920"
     inkscape:window-height="1043"
     id="namedview8"
     showgrid="true"
     inkscape:zoom="41.7193"
     inkscape:cx="11.114794"
     inkscape:cy="5.6374881"
     inkscape:window-x="1920"
     inkscape:window-y="0"
     inkscape:window-maximized="1"
     inkscape:current-layer="svg6"
     inkscape:document-rotation="0">
    <inkscape:grid
       type="xygrid"
       id="grid835" />
  </sodipodi:namedview>
  <path
     style="fill:url(#linearGradient855);fill-opacity:1;stroke:#ffffff;stroke-width:2;stroke-linejoin:round"
     d="m 4.0058594,3.015625 c -1.1043853,0.017358 -2,0.8954777 -2,2 v 2.5 c 0,0.27615 -0.2238974,0.495321 -0.5,0.5 h -0.5 v 2 h 0.5 c 0.2761423,0 0.5,0.225804 0.5,0.501953 v 1.5 1 c 0,1.104597 0.8954311,2 2,2 L 5,15 V 14 H 4 C 3.447716,14 3.009521,13.552217 3,13 V 10 C 3,9.6175005 2.860715,9.264975 2.625,9 2.860715,8.735026 3.006594,8.382443 3,8 V 7 6.71875 5 C 3,4.4477014 3.452148,3.9306546 4,4 H 5 V 3 Z"
     id="path864" />
  <path
     style="fill:url(#linearGradient855);fill-opacity:1"
     d="m 4.0058594,3.015625 c -1.1043853,0.017358 -2,0.8954777 -2,2 v 2.5 c 0,0.27615 -0.2238974,0.495321 -0.5,0.5 h -0.5 v 2 h 0.5 c 0.2761423,0 0.5,0.225804 0.5,0.501953 v 1.5 1 c 0,1.104597 0.8954311,2 2,2 L 5,15 V 14 H 4 C 3.447716,14 3.009521,13.552217 3,13 V 10 C 3,9.6175005 2.860715,9.264975 2.625,9 2.860715,8.735026 3.006594,8.382443 3,8 V 7 6.71875 5 C 3,4.4477014 3.452148,3.9306546 4,4 H 5 V 3 Z"
     id="path2" />
  <path
     id="path888"
     style="color:#000000;font-style:normal;font-variant:normal;font-weight:normal;font-stretch:normal;font-size:medium;line-height:normal;font-family:sans-serif;font-variant-ligatures:normal;font-variant-position:normal;font-variant-caps:normal;font-variant-numeric:normal;font-variant-alternates:normal;font-variant-east-asian:normal;font-feature-settings:normal;font-variation-settings:normal;text-indent:0;text-align:start;text-decoration:none;text-decoration-line:none;text-decoration-style:solid;text-decoration-color:#000000;letter-spacing:normal;word-spacing:normal;text-transform:none;writing-mode:lr-tb;direction:ltr;text-orientation:mixed;dominant-baseline:auto;baseline-shift:baseline;text-anchor:start;white-space:normal;shape-padding:0;shape-margin:0;inline-size:0;clip-rule:nonzero;display:inline;overflow:visible;visibility:visible;isolation:auto;mix-blend-mode:normal;color-interpolation:sRGB;color-interpolation-filters:linearRGB;solid-color:#000000;solid-opacity:1;vector-effect:none;fill:#ffffff;fill-opacity:1;fill-rule:nonzero;stroke:none;stroke-width:2;stroke-linecap:butt;stroke-linejoin:round;stroke-miterlimit:4;stroke-dasharray:none;stroke-dashoffset:0;stroke-opacity:1;color-rendering:auto;image-rendering:auto;shape-rendering:auto;text-rendering:auto;enable-background:accumulate;stop-color:#000000;stop-opacity:1;opacity:1"
     d="M 14.402344 3.25 L 12.005859 5.2695312 L 12.005859 6.71875 L 12.005859 7 L 12.005859 7.9824219 C 11.999131 8.3726794 12.228642 8.6665047 12.384766 8.9960938 C 12.23097 9.3246664 12.005859 9.6227042 12.005859 10 L 12.005859 13 L 11.005859 13 A 1.0001 1.0001 0 0 0 10.005859 14 L 10.005859 15 A 1.0001 1.0001 0 0 0 10.988281 16 L 11.982422 16.017578 A 1.0001 1.0001 0 0 0 12 16.017578 C 13.644993 16.017578 15 14.662602 15 13.017578 L 15 12.017578 L 15 11.015625 A 1.0001 1.0001 0 0 0 16 10.015625 L 16 8.015625 A 1.0001 1.0001 0 0 0 15 7.015625 L 15 5.015625 C 15 4.3524989 14.77236 3.7458056 14.402344 3.25 z " />
  <path
     id="path869"
     style="fill:url(#linearGradient871);fill-opacity:1"
     d="M 13.636719 3.8945312 L 12.884766 4.5292969 C 12.961387 4.6709271 13.005859 4.8317974 13.005859 5 L 13.005859 6.71875 L 13.005859 7 L 13.005859 8 C 12.999265 8.382443 13.145144 8.735026 13.380859 9 C 13.145144 9.264975 13.005859 9.6175005 13.005859 10 L 13.005859 13 C 12.996338 13.552217 12.558143 14 12.005859 14 L 11.005859 14 L 11.005859 15 L 12 15.017578 C 13.104569 15.017578 14 14.122175 14 13.017578 L 14 12.017578 L 14 10.517578 C 14 10.241429 14.223858 10.015625 14.5 10.015625 L 15 10.015625 L 15 8.015625 L 14.5 8.015625 C 14.223897 8.010946 14 7.791775 14 7.515625 L 14 5.015625 C 14 4.5946123 13.860646 4.2128769 13.636719 3.8945312 z " />
  <path
     style="fill:#00ff00;fill-opacity:1;stroke:none;stroke-width:1px;stroke-linecap:butt;stroke-linejoin:miter;stroke-opacity:1"
     d="m 12.983089,2.484743 -3.0000001,-2.5 L 9.9999989,5 Z"
     id="path833-7"
     inkscape:connector-curvature="0"
     sodipodi:nodetypes="cccc" />
  <path
     id="path866"
     style="color:#000000;font-style:normal;font-variant:normal;font-weight:normal;font-stretch:normal;font-size:medium;line-height:normal;font-family:sans-serif;font-variant-ligatures:normal;font-variant-position:normal;font-variant-caps:normal;font-variant-numeric:normal;font-variant-alternates:normal;font-variant-east-asian:normal;font-feature-settings:normal;font-variation-settings:normal;text-indent:0;text-align:start;text-decoration:none;text-decoration-line:none;text-decoration-style:solid;text-decoration-color:#000000;letter-spacing:normal;word-spacing:normal;text-transform:none;writing-mode:lr-tb;direction:ltr;text-orientation:mixed;dominant-baseline:auto;baseline-shift:baseline;text-anchor:start;white-space:normal;shape-padding:0;shape-margin:0;inline-size:0;clip-rule:nonzero;display:inline;overflow:visible;visibility:visible;isolation:auto;mix-blend-mode:normal;color-interpolation:sRGB;color-interpolation-filters:linearRGB;solid-color:#000000;solid-opacity:1;vector-effect:none;fill:#00ff00;fill-opacity:1;fill-rule:nonzero;stroke:none;stroke-width:1px;stroke-linecap:square;stroke-linejoin:miter;stroke-miterlimit:4;stroke-dasharray:none;stroke-dashoffset:0;stroke-opacity:1;color-rendering:auto;image-rendering:auto;shape-rendering:auto;text-rendering:auto;enable-background:accumulate;stop-color:#000000"
     d="M 7,8 H 8 C 8.00156,7.267533 8.00943,4.654349 8.044921,4.228516 8.088741,3.70267 8.1838898,3.422781 8.2753897,3.300781 c 0.0915,-0.122 0.206312,-0.191082 0.5644532,-0.24414 C 9.1979836,3.003583 9.749999,3 10.499999,3 h 0.5 V 2 h -0.5 C 9.749999,2 9.177014,1.9964 8.6914051,2.06836 8.2057964,2.1403 7.7581083,2.32122 7.4746083,2.69922 7.1911083,3.07722 7.0987566,3.547331 7.048827,4.146485 7.0083098,4.632691 7.0011664,7.261058 7,8 Z"
     sodipodi:nodetypes="cccsssccscssc" />
</svg>
