<?xml version="1.0" encoding="UTF-8" standalone="no"?>
<svg
   xmlns:dc="http://purl.org/dc/elements/1.1/"
   xmlns:cc="http://creativecommons.org/ns#"
   xmlns:rdf="http://www.w3.org/1999/02/22-rdf-syntax-ns#"
   xmlns:svg="http://www.w3.org/2000/svg"
   xmlns="http://www.w3.org/2000/svg"
   xmlns:xlink="http://www.w3.org/1999/xlink"
   xmlns:sodipodi="http://sodipodi.sourceforge.net/DTD/sodipodi-0.dtd"
   xmlns:inkscape="http://www.inkscape.org/namespaces/inkscape"
   inkscape:version="1.0.1 (3bc2e813f5, 2020-09-07)"
   inkscape:export-ydpi="96"
   inkscape:export-xdpi="96"
   inkscape:export-filename="/home/jupiter007/Libreoffice yaru theme fullcolor/build/cmd/sc_bold.png"
   sodipodi:docname="sc_bold.svg"
   id="svg834"
   version="1.1"
   viewBox="0 0 16 16"><metadata
   id="metadata840">
  <rdf:RDF>
    <cc:Work
       rdf:about="">
      <dc:format>image/svg+xml</dc:format>
      <dc:type
         rdf:resource="http://purl.org/dc/dcmitype/StillImage" />
      <dc:title></dc:title>
    </cc:Work>
  </rdf:RDF>
</metadata>
<defs
   id="defs838">
  <linearGradient
     inkscape:collect="always"
     id="linearGradient836">
    <stop
       style="stop-color:#151515;stop-opacity:1"
       offset="0"
       id="stop832" />
    <stop
       style="stop-color:#4d4d4d;stop-opacity:1"
       offset="1"
       id="stop834" />
  </linearGradient>
  <linearGradient
     inkscape:collect="always"
     xlink:href="#linearGradient836"
     id="linearGradient838"
     x1="8"
     y1="2"
     x2="8"
     y2="14"
     gradientUnits="userSpaceOnUse" />
</defs>
<sodipodi:namedview
   inkscape:current-layer="svg834"
   inkscape:window-maximized="1"
   inkscape:window-y="0"
   inkscape:window-x="1920"
   inkscape:cy="6.9159958"
   inkscape:cx="6.2497535"
   inkscape:zoom="38.22796"
   showgrid="true"
   id="namedview836"
   inkscape:window-height="1043"
   inkscape:window-width="1920"
   inkscape:pageshadow="2"
   inkscape:pageopacity="0"
   guidetolerance="10"
   gridtolerance="10"
   objecttolerance="10"
   borderopacity="1"
   bordercolor="#666666"
   pagecolor="#808080"
   inkscape:document-rotation="0">
  <inkscape:grid
     id="grid2009"
     type="xygrid" />
</sodipodi:namedview>



/&gt;<path
   sodipodi:nodetypes="cccccccsscsscccssscccssscc"
   id="path2031"
   style="opacity:1;fill:#000000;stroke:#ffffff;stroke-width:2;stroke-linejoin:round;stroke-miterlimit:4;stroke-dasharray:none"
   d="M 3.0001562,2 V 5.3417969 7.25 7.7460938 11.220703 14 H 6.4298437 9.7148438 C 12.089126,14 14,12.44997 14,10.525391 14,8.993399 12.781502,7.7142822 11.089844,7.25 11.813378,6.7171767 12.285156,5.8796669 12.285156,4.9238281 12.285156,3.3041193 10.947156,2 9.2851562,2 H 6.4298437 Z m 3,3 H 7 C 8.108,5 9,5 9,6 9,7 8.108,7 7,7 H 6.0001562 Z m 0,4 H 8 c 2,0 2,0 2,1 0,1 0,1 -2,1 H 6.0001562 Z"
   inkscape:connector-curvature="0" />
<path
   sodipodi:nodetypes="cccccccsscsscccssscccssscc"
   d="M 3.0001562,2 V 5.3417969 7.25 7.7460938 11.220703 14 H 6.4298437 9.7148438 C 12.089126,14 14,12.44997 14,10.525391 14,8.993399 12.781502,7.7142822 11.089844,7.25 11.813378,6.7171767 12.285156,5.8796669 12.285156,4.9238281 12.285156,3.3041193 10.947156,2 9.2851562,2 H 6.4298437 Z m 3,3 H 7 C 8,5 9,5 9,6 9,7 8,7 7,7 H 6.0001562 Z m 0,4 H 8 c 1,0 2,0 2,1 0,1 -1,1 -2,1 H 6.0001562 Z"
   style="fill:url(#linearGradient838);stroke-width:0.84617001;fill-opacity:1"
   id="path1988"
   inkscape:connector-curvature="0" />
</svg>
