<?xml version="1.0" encoding="UTF-8" standalone="no"?>
<svg
   xmlns:dc="http://purl.org/dc/elements/1.1/"
   xmlns:cc="http://creativecommons.org/ns#"
   xmlns:rdf="http://www.w3.org/1999/02/22-rdf-syntax-ns#"
   xmlns:svg="http://www.w3.org/2000/svg"
   xmlns="http://www.w3.org/2000/svg"
   xmlns:sodipodi="http://sodipodi.sourceforge.net/DTD/sodipodi-0.dtd"
   xmlns:inkscape="http://www.inkscape.org/namespaces/inkscape"
   viewBox="0 0 16 16"
   version="1.1"
   id="svg6"
   sodipodi:docname="sc_compressgraphic.svg"
   inkscape:export-filename="/home/jupiter007/Libreoffice yaru theme fullcolor/build/cmd/sc_compressgraphic.png"
   inkscape:export-xdpi="96"
   inkscape:export-ydpi="96"
   inkscape:version="1.0.1 (3bc2e813f5, 2020-09-07)">
  <metadata
     id="metadata12">
    <rdf:RDF>
      <cc:Work
         rdf:about="">
        <dc:format>image/svg+xml</dc:format>
        <dc:type
           rdf:resource="http://purl.org/dc/dcmitype/StillImage" />
      </cc:Work>
    </rdf:RDF>
  </metadata>
  <defs
     id="defs10" />
  <sodipodi:namedview
     pagecolor="#ffffff"
     bordercolor="#666666"
     borderopacity="1"
     objecttolerance="10"
     gridtolerance="10"
     guidetolerance="10"
     inkscape:pageopacity="0"
     inkscape:pageshadow="2"
     inkscape:window-width="1920"
     inkscape:window-height="1043"
     id="namedview8"
     showgrid="true"
     inkscape:zoom="41.7193"
     inkscape:cx="5.8842381"
     inkscape:cy="7.8553872"
     inkscape:window-x="1920"
     inkscape:window-y="0"
     inkscape:window-maximized="1"
     inkscape:current-layer="svg6"
     inkscape:document-rotation="0">
    <inkscape:grid
       type="xygrid"
       id="grid834" />
  </sodipodi:namedview>
  <path
     id="path4237-1"
     style="font-style:normal;font-variant:normal;font-weight:normal;font-stretch:normal;font-size:15px;line-height:125%;font-family:Ubuntu;-inkscape-font-specification:Ubuntu;text-align:center;letter-spacing:0px;word-spacing:0px;writing-mode:lr-tb;text-anchor:middle;display:inline;opacity:0.7;fill:#000000;fill-opacity:1;stroke:none;stroke-width:0.999802"
     d="M 5,1.9609375 V 3 h 2 c 0.7869231,3.661e-4 1.2651725,0.8674026 0.8457031,1.5332031 L 4.3222656,9.5029556 C 3.9278475,10.129073 3.0136375,10.124863 2.625,9.4951431 L 0.15039062,4.5253906 C 0.1276117,4.4884858 0.06131361,4.3619662 0.02929688,4.3066406 0.01026499,4.5140096 -0.00991608,4.7196027 0,4.9609375 V 6.4492188 13 c 0,0.65761 0.05990038,1.178577 0.22460938,1.617188 0.16467999,0.43861 0.46153061,0.788524 0.83789062,0.996093 0.75272,0.41513 1.6735406,0.37165 2.9316406,0.386719 h 0.00195 8.0058592 0.0039 c 1.25819,-0.0145 2.178891,0.0306 2.931641,-0.384766 0.37637,-0.20766 0.673221,-0.559386 0.837891,-0.998046 C 15.93993,14.178517 16,13.65761 16,13 V 6.4277344 4.9609375 C 16,4.3033375 15.9401,3.78236 15.775391,3.34375 15.610711,2.90515 15.31386,2.5552161 14.9375,2.3476562 14.18473,1.9325263 13.263949,1.9760175 12.005859,1.9609375 h -0.002 z"
     sodipodi:nodetypes="ccccccccccsccccccccscsccccc" />
  <path
     id="path1993"
     style="opacity:1;vector-effect:none;fill:#ffffff;fill-opacity:1;stroke:none;stroke-width:1;stroke-linecap:round;stroke-linejoin:bevel;stroke-miterlimit:4;stroke-dasharray:none;stroke-dashoffset:0;stroke-opacity:1"
     d="M 7.9824219 2.9882812 C 7.1627155 2.9939665 6.0804566 2.991408 5 2.9941406 L 5 3 L 6 3 C 6.7869231 3.0003661 7.2651725 3.8674026 6.8457031 4.5332031 L 4.3222656 8.5332031 C 3.9278475 9.1593208 3.0136375 9.1551102 2.625 8.5253906 L 1.0214844 5.9335938 C 1.013555 8.2218213 0.99968414 11.417206 1.0429688 13.644531 C 1.0820687 14.106459 1.2459825 14.655641 1.7421875 14.806641 C 2.3746435 15.031723 3.0259044 14.929379 3.6777344 14.960938 C 5.1019694 14.967738 7.5292211 14.972366 8.9550781 14.972656 C 10.659609 14.973005 11.363698 14.968588 13.0625 14.955078 C 13.574411 14.943068 14.245438 14.973949 14.646484 14.548828 C 15.067581 14.009045 14.933078 13.280296 14.96875 12.644531 C 14.98062 10.200208 14.996856 6.6956995 14.947266 4.25 C 14.897986 3.8479597 14.778194 3.3866012 14.373047 3.2050781 C 13.704878 2.9109807 12.94581 3.0375538 12.246094 3 C 10.491687 2.988197 9.7368609 2.987187 7.9824219 2.9882812 z " />
  <path
     d="m 11.5,4.9999996 c -0.82843,0 -1.5,0.67157 -1.5,1.5 0,0.82843 0.67157,1.5 1.5,1.5 0.82843,0 1.5,-0.67157 1.5,-1.5 0,-0.82843 -0.67157,-1.5 -1.5,-1.5 z"
     id="path4527-0-3"
     style="color:#000000;display:inline;overflow:visible;visibility:visible;fill:#232629;fill-opacity:1;fill-rule:nonzero;stroke:none;stroke-width:5.99881;marker:none;enable-background:accumulate" />
  <path
     d="M 5.9999989,7.4999996 2.9999989,13 H 5.7181689 11 l -2.5000011,-4.5000004 -1,1.5 z"
     id="path4156-2-1"
     style="color:#000000;display:inline;overflow:visible;visibility:visible;fill:#232629;fill-opacity:1;fill-rule:nonzero;stroke:none;stroke-width:5.99881;marker:none;enable-background:accumulate" />
  <path
     id="path814"
     style="fill:#e95420;fill-opacity:1;stroke:none;stroke-width:1px;stroke-linecap:butt;stroke-linejoin:miter;stroke-opacity:1"
     d="M 3,0 V 4 H 1 L 3.4760303,8 6,4 H 4 V 0 Z"
     sodipodi:nodetypes="cccccccc" />
</svg>
