<?xml version="1.0" encoding="UTF-8" standalone="no"?>
<svg
   xmlns:dc="http://purl.org/dc/elements/1.1/"
   xmlns:cc="http://creativecommons.org/ns#"
   xmlns:rdf="http://www.w3.org/1999/02/22-rdf-syntax-ns#"
   xmlns:svg="http://www.w3.org/2000/svg"
   xmlns="http://www.w3.org/2000/svg"
   xmlns:sodipodi="http://sodipodi.sourceforge.net/DTD/sodipodi-0.dtd"
   xmlns:inkscape="http://www.inkscape.org/namespaces/inkscape"
   viewBox="0 0 16 16"
   version="1.1"
   id="svg6"
   sodipodi:docname="sc_diagramaxisz.svg"
   inkscape:export-filename="/home/jupiter007/Libreoffice yaru theme fullcolor/build/cmd/sc_diagramaxisz.png"
   inkscape:export-xdpi="96"
   inkscape:export-ydpi="96"
   inkscape:version="1.0.1 (3bc2e813f5, 2020-09-07)">
  <metadata
     id="metadata12">
    <rdf:RDF>
      <cc:Work
         rdf:about="">
        <dc:format>image/svg+xml</dc:format>
        <dc:type
           rdf:resource="http://purl.org/dc/dcmitype/StillImage" />
        <dc:title />
      </cc:Work>
    </rdf:RDF>
  </metadata>
  <defs
     id="defs10" />
  <sodipodi:namedview
     pagecolor="#ffffff"
     bordercolor="#666666"
     borderopacity="1"
     objecttolerance="10"
     gridtolerance="10"
     guidetolerance="10"
     inkscape:pageopacity="0"
     inkscape:pageshadow="2"
     inkscape:window-width="1920"
     inkscape:window-height="1016"
     id="namedview8"
     showgrid="true"
     inkscape:zoom="30.713928"
     inkscape:cx="12.367916"
     inkscape:cy="9.8147459"
     inkscape:window-x="1920"
     inkscape:window-y="27"
     inkscape:window-maximized="1"
     inkscape:current-layer="svg6"
     inkscape:document-rotation="0">
    <inkscape:grid
       type="xygrid"
       id="grid822"
       dotted="false" />
    <inkscape:grid
       type="xygrid"
       id="grid850"
       dotted="true"
       spacingx="0.5"
       spacingy="0.5"
       empspacing="10" />
  </sodipodi:namedview>
  <path
     sodipodi:nodetypes="cccscsccccccccscscccccc"
     inkscape:connector-curvature="0"
     id="path4237-1"
     d="m 4.9941507,0.999639 c -1.2582,0.0145 -2.178891,-0.030604 -2.931641,0.3847658 C 1.6861401,1.5920647 1.3892791,1.9437917 1.224619,2.3824514 1.059949,2.8211214 1.00001,3.342039 1.00001,3.9996391 v 1.4882808 6.5124411 c 0,0.65761 0.0599,1.178577 0.224609,1.617188 0.1646801,0.438611 0.4615311,0.788524 0.8378907,0.996093 0.75272,0.41513 1.673541,0.371649 2.931641,0.386719 h 0.002 6.0057873 0.0039 c 1.258191,-0.0145 2.178893,0.0306 2.931644,-0.384766 0.376369,-0.20766 0.67322,-0.559386 0.837889,-0.998046 0.164541,-0.438671 0.224619,-0.959578 0.224619,-1.617188 V 5.4664359 3.9996391 c 0,-0.6576 -0.0599,-1.1785776 -0.224608,-1.6171875 C 14.610698,1.9438516 14.313847,1.5939178 13.937488,1.3863579 13.184717,0.9712278 12.263886,1.0147192 11.005795,0.999639 h -0.002 -6.0057853 z"
     style="font-style:normal;font-variant:normal;font-weight:normal;font-stretch:normal;font-size:15px;line-height:125%;font-family:Ubuntu;-inkscape-font-specification:Ubuntu;text-align:center;letter-spacing:0px;word-spacing:0px;writing-mode:lr-tb;text-anchor:middle;display:inline;opacity:0.7;fill:#000000;fill-opacity:1;stroke:none;stroke-width:0.999802" />
  <path
     inkscape:connector-curvature="0"
     id="path1993"
     d="m 4.9830099,2.0268237 c -1.556581,0.010796 -0.1096212,-0.011752 -1.6595722,0.038775 -0.461229,0.042668 -1.016188,0.2064193 -1.15534,0.7099666 -0.218994,0.6353466 -0.108414,1.3337873 -0.145796,1.9819244 -0.0078,2.2970842 -0.02297,5.5965683 0.02152,7.8859193 0.0391,0.461929 0.202551,1.012666 0.698756,1.163666 0.632456,0.225082 1.284144,0.12274 1.935974,0.154298 1.424235,0.0068 -0.1498058,0.01102 1.2760512,0.01131 1.7045311,3.5e-4 4.4086841,-0.005 6.1074851,-0.01851 0.511913,-0.01201 1.183699,0.01993 1.584747,-0.405191 0.421097,-0.539783 0.287071,-1.268021 0.322743,-1.903787 0.01187,-2.4443232 0.02769,-5.9112341 -0.0219,-8.3569335 C 13.898397,2.8862212 13.777685,2.4253095 13.372539,2.2437863 12.704371,1.949689 11.946333,2.0757675 11.246618,2.0382136 9.492212,2.0264106 6.737448,2.0257296 4.9830089,2.0268236 Z"
     style="opacity:1;vector-effect:none;fill:#ffffff;fill-opacity:1;stroke:none;stroke-width:1;stroke-linecap:round;stroke-linejoin:bevel;stroke-miterlimit:4;stroke-dasharray:none;stroke-dashoffset:0;stroke-opacity:1"
     sodipodi:nodetypes="cccccccsccccccc" />
  <rect
     style="fill:#232629;fill-opacity:1;fill-rule:evenodd;stroke-width:2;stroke-linecap:round;stroke-linejoin:round;stroke:none;stroke-opacity:1"
     id="rect846"
     width="1"
     height="6"
     x="6"
     y="2.9999995" />
  <rect
     style="fill:#232629;fill-opacity:1;fill-rule:evenodd;stroke-width:2;stroke-linecap:round;stroke-linejoin:round;stroke:none;stroke-opacity:1"
     id="rect848"
     width="7"
     height="1"
     x="6"
     y="9" />
  <path
     style="fill:none;stroke:#00ff00;stroke-width:1px;stroke-linecap:butt;stroke-linejoin:miter;stroke-opacity:1"
     d="M 6.5,9.4999996 3.5,12.5"
     id="path854"
     sodipodi:nodetypes="cc" />
</svg>
