<?xml version="1.0" encoding="UTF-8" standalone="no"?>
<svg
   xmlns:dc="http://purl.org/dc/elements/1.1/"
   xmlns:cc="http://creativecommons.org/ns#"
   xmlns:rdf="http://www.w3.org/1999/02/22-rdf-syntax-ns#"
   xmlns:svg="http://www.w3.org/2000/svg"
   xmlns="http://www.w3.org/2000/svg"
   xmlns:sodipodi="http://sodipodi.sourceforge.net/DTD/sodipodi-0.dtd"
   xmlns:inkscape="http://www.inkscape.org/namespaces/inkscape"
   viewBox="0 0 16 16"
   version="1.1"
   id="svg4"
   sodipodi:docname="sc_definedbname.svg"
   inkscape:export-filename="/home/jupiter007/Libreoffice yaru theme fullcolor/build/cmd/sc_definedbname.png"
   inkscape:export-xdpi="96"
   inkscape:export-ydpi="96"
   inkscape:version="1.0.1 (3bc2e813f5, 2020-09-07)">
  <metadata
     id="metadata10">
    <rdf:RDF>
      <cc:Work
         rdf:about="">
        <dc:format>image/svg+xml</dc:format>
        <dc:type
           rdf:resource="http://purl.org/dc/dcmitype/StillImage" />
      </cc:Work>
    </rdf:RDF>
  </metadata>
  <defs
     id="defs8">
    <linearGradient
       id="a"
       gradientTransform="matrix(0.56057,0,0,0.59553,7.4824994,6.6783701)"
       gradientUnits="userSpaceOnUse"
       x1="3.1389999"
       x2="2"
       y1="8.1990004"
       y2="8">
      <stop
         offset="0"
         stop-color="#e4e4e4"
         id="stop2" />
      <stop
         offset="1"
         stop-color="#fff"
         id="stop4" />
    </linearGradient>
    <linearGradient
       id="b"
       gradientTransform="matrix(0.16834,0.03973,0.00114,0.1974,8.3094994,5.1483701)"
       gradientUnits="userSpaceOnUse"
       spreadMethod="reflect"
       x1="0.36500001"
       x2="28.059999"
       y1="19.599001"
       y2="19.599001">
      <stop
         offset="0"
         stop-color="#ffcd7d"
         id="stop7" />
      <stop
         offset=".262"
         stop-color="#fc8f36"
         id="stop9" />
      <stop
         offset="1"
         stop-color="#e23a0e"
         id="stop11" />
    </linearGradient>
    <linearGradient
       id="c"
       gradientTransform="matrix(0.12692,0.02995,8.5e-4,0.14783,9.2264994,5.6833701)"
       gradientUnits="userSpaceOnUse"
       spreadMethod="reflect"
       x1="30"
       x2="-11"
       y1="30"
       y2="30">
      <stop
         offset="0"
         stop-color="#ba3d12"
         id="stop14" />
      <stop
         offset="1"
         stop-color="#db6737"
         id="stop16" />
    </linearGradient>
  </defs>
  <sodipodi:namedview
     pagecolor="#ffffff"
     bordercolor="#666666"
     borderopacity="1"
     objecttolerance="10"
     gridtolerance="10"
     guidetolerance="10"
     inkscape:pageopacity="0"
     inkscape:pageshadow="2"
     inkscape:window-width="1920"
     inkscape:window-height="1011"
     id="namedview6"
     showgrid="true"
     inkscape:zoom="29.5"
     inkscape:cx="0.74286197"
     inkscape:cy="8.3842072"
     inkscape:window-x="0"
     inkscape:window-y="0"
     inkscape:window-maximized="1"
     inkscape:current-layer="svg4"
     inkscape:document-rotation="0">
    <inkscape:grid
       type="xygrid"
       id="grid827" />
  </sodipodi:namedview>
  <rect
     style="opacity:1;fill:#ffffff;fill-opacity:1;fill-rule:evenodd;stroke:none;stroke-width:0.25;stroke-linecap:round;stroke-linejoin:round"
     id="rect855"
     width="11"
     height="11"
     x="2"
     y="2" />
  <rect
     style="opacity:1;fill:#a6d74f;fill-opacity:1;fill-rule:evenodd;stroke:none;stroke-width:2;stroke-linecap:butt;stroke-linejoin:round;stroke-miterlimit:4;stroke-dasharray:none;stroke-opacity:1"
     id="rect845"
     width="11"
     height="3"
     x="2"
     y="2" />
  <path
     id="rect835"
     style="opacity:1;fill:#6d6d6f;fill-opacity:1;fill-rule:evenodd;stroke:none;stroke-width:0.25;stroke-linecap:round;stroke-linejoin:round"
     d="M 4 1 C 2 1 1 1 1 3 L 1 12 C 1 14 2 14 4 14 L 5 14 L 6 14 L 7 14 L 7 13 L 6 13 L 6 10 L 7 10 L 7 9 L 6 9 L 6 6 L 7.2832031 6 C 7.633551 5.4079429 8.2732665 5 9 5 L 6 5 L 6 2 L 9 2 L 9 5 C 9.6356255 5 10.201968 5.3154992 10.570312 5.7890625 C 11.005527 5.773105 11.483148 5.8200859 11.994141 5.9628906 L 11.996094 5.9628906 C 12.034415 5.9734944 12.058872 5.9887126 12.095703 6 L 13 6 L 13 6.3847656 C 13.07829 6.42799 13.172166 6.47561 13.238281 6.5136719 C 13.492846 6.6602228 13.690111 6.7618901 14 6.8613281 L 14 3 C 14 1 13 1 11 1 L 4 1 z M 4 2 L 5 2 L 5 5 L 2 5 L 2 3 C 2 2 3 2 4 2 z M 10 2 L 11 2 C 12 2 13 2 13 3 L 13 5 L 10 5 L 10 2 z M 2 6 L 5 6 L 5 9 L 2 9 L 2 6 z M 13 8.6171875 L 13 9 L 11 9 L 11 10 L 13 10 L 13 11.244141 C 13.108492 11.304993 13.23175 11.369532 13.314453 11.419922 C 13.560604 11.569897 13.72225 11.655392 14 11.734375 L 14 8.9179688 C 13.859601 8.8979771 13.715382 8.8697099 13.5625 8.8261719 C 13.344814 8.7642572 13.173692 8.6903683 13 8.6171875 z M 2 10 L 5 10 L 5 13 L 4 13 C 3 13 2 13 2 12 L 2 10 z M 11.958984 12.945312 C 11.659797 12.983824 11.337699 13 11 13 L 11 14 C 12.120662 14 12.915483 13.986621 13.408203 13.634766 C 12.916412 13.483099 12.525975 13.282773 12.273438 13.128906 C 12.147656 13.052271 12.055176 12.996575 11.958984 12.945312 z " />
  <path
     style="color:#000000;font-style:normal;font-variant:normal;font-weight:normal;font-stretch:normal;font-size:medium;line-height:normal;font-family:sans-serif;font-variant-ligatures:normal;font-variant-position:normal;font-variant-caps:normal;font-variant-numeric:normal;font-variant-alternates:normal;font-variant-east-asian:normal;font-feature-settings:normal;font-variation-settings:normal;text-indent:0;text-align:start;text-decoration:none;text-decoration-line:none;text-decoration-style:solid;text-decoration-color:#000000;letter-spacing:normal;word-spacing:normal;text-transform:none;writing-mode:lr-tb;direction:ltr;text-orientation:mixed;dominant-baseline:auto;baseline-shift:baseline;text-anchor:start;white-space:normal;shape-padding:0;shape-margin:0;inline-size:0;clip-rule:nonzero;display:inline;overflow:visible;visibility:visible;isolation:auto;mix-blend-mode:normal;color-interpolation:sRGB;color-interpolation-filters:linearRGB;solid-color:#000000;solid-opacity:1;vector-effect:none;fill:#ffffff;fill-opacity:1;fill-rule:evenodd;stroke:none;stroke-width:2;stroke-linecap:butt;stroke-linejoin:miter;stroke-miterlimit:4;stroke-dasharray:none;stroke-dashoffset:0;stroke-opacity:1;color-rendering:auto;image-rendering:auto;shape-rendering:auto;text-rendering:auto;enable-background:accumulate;stop-color:#000000"
     d="m 9,6 c 0.554,0 1,0.446 1,1 v 8 C 10,15.554 9.554,16 9,16 8.446,16 8,15.554 8,15 V 7 C 8,6.446 8.446,6 9,6 Z"
     id="path884" />
  <path
     style="color:#000000;font-style:normal;font-variant:normal;font-weight:normal;font-stretch:normal;font-size:medium;line-height:normal;font-family:sans-serif;font-variant-ligatures:normal;font-variant-position:normal;font-variant-caps:normal;font-variant-numeric:normal;font-variant-alternates:normal;font-variant-east-asian:normal;font-feature-settings:normal;font-variation-settings:normal;text-indent:0;text-align:start;text-decoration:none;text-decoration-line:none;text-decoration-style:solid;text-decoration-color:#000000;letter-spacing:normal;word-spacing:normal;text-transform:none;writing-mode:lr-tb;direction:ltr;text-orientation:mixed;dominant-baseline:auto;baseline-shift:baseline;text-anchor:start;white-space:normal;shape-padding:0;shape-margin:0;inline-size:0;clip-rule:nonzero;display:inline;overflow:visible;visibility:visible;isolation:auto;mix-blend-mode:normal;color-interpolation:sRGB;color-interpolation-filters:linearRGB;solid-color:#000000;solid-opacity:1;vector-effect:none;fill:#ffffff;fill-opacity:1;fill-rule:evenodd;stroke:none;stroke-width:2;stroke-linecap:butt;stroke-linejoin:round;stroke-miterlimit:4;stroke-dasharray:none;stroke-dashoffset:0;stroke-opacity:1;color-rendering:auto;image-rendering:auto;shape-rendering:auto;text-rendering:auto;enable-background:accumulate;stop-color:#000000"
     d="m 10,7 c -0.007,-0.235 0.848,-0.32 1.727,-0.074 0.88,0.243 1.115,0.655 2.11,0.938 0.92,0.262 2.169,-0.03 2.163,0.206 v 4.587 c 0.01,0.315 -1.129,0.326 -2.126,0.087 -0.994,-0.238 -1.18,-0.7 -2.12,-0.943 C 10.818,11.561 9.978,11.969 10,11.538 Z"
     id="path890" />
  <rect
     style="opacity:1;fill:#6d6d6d;fill-opacity:1;fill-rule:evenodd;stroke:none;stroke-width:2;stroke-linecap:butt;stroke-linejoin:round;stroke-miterlimit:4;stroke-dasharray:none;stroke-opacity:1"
     id="rect861"
     width="2"
     height="10"
     x="8"
     y="6"
     ry="1" />
  <path
     id="path54"
     d="m 10,7 c -0.007,-0.235 0.848,-0.32 1.727,-0.074 0.88,0.243 1.115,0.655 2.11,0.938 0.92,0.262 2.169,-0.03 2.163,0.206 v 4.587 c 0.01,0.315 -1.129,0.326 -2.126,0.087 -0.994,-0.238 -1.18,-0.7 -2.12,-0.943 C 10.818,11.561 9.978,11.969 10,11.538 Z"
     inkscape:connector-curvature="0"
     style="fill:#fa9381;fill-opacity:1;fill-rule:evenodd;stroke:none;stroke-width:0.991;stroke-linejoin:round"
     sodipodi:nodetypes="ccccccccc" />
</svg>
