<?xml version="1.0" encoding="UTF-8" standalone="no"?>
<svg
   viewBox="0 0 16 16"
   version="1.1"
   id="svg6"
   sodipodi:docname="sc_dsbinsertcontent.svg"
   inkscape:version="1.1.1 (eb90963e84, 2021-10-02)"
   inkscape:export-filename="/home/jupiter007/Libreoffice yaru theme fullcolor/build/cmd/sc_dsbinsertcontent.png"
   inkscape:export-xdpi="96"
   inkscape:export-ydpi="96"
   xmlns:inkscape="http://www.inkscape.org/namespaces/inkscape"
   xmlns:sodipodi="http://sodipodi.sourceforge.net/DTD/sodipodi-0.dtd"
   xmlns="http://www.w3.org/2000/svg"
   xmlns:svg="http://www.w3.org/2000/svg"
   xmlns:rdf="http://www.w3.org/1999/02/22-rdf-syntax-ns#"
   xmlns:cc="http://creativecommons.org/ns#"
   xmlns:dc="http://purl.org/dc/elements/1.1/">
  <metadata
     id="metadata12">
    <rdf:RDF>
      <cc:Work
         rdf:about="">
        <dc:format>image/svg+xml</dc:format>
        <dc:type
           rdf:resource="http://purl.org/dc/dcmitype/StillImage" />
      </cc:Work>
    </rdf:RDF>
  </metadata>
  <defs
     id="defs10" />
  <sodipodi:namedview
     pagecolor="#ffffff"
     bordercolor="#666666"
     borderopacity="1"
     objecttolerance="10"
     gridtolerance="10"
     guidetolerance="10"
     inkscape:pageopacity="0"
     inkscape:pageshadow="2"
     inkscape:window-width="1920"
     inkscape:window-height="1016"
     id="namedview8"
     showgrid="true"
     inkscape:zoom="10.429825"
     inkscape:cx="-28.811605"
     inkscape:cy="5.5130359"
     inkscape:window-x="0"
     inkscape:window-y="27"
     inkscape:window-maximized="1"
     inkscape:current-layer="svg6"
     inkscape:pagecheckerboard="0">
    <inkscape:grid
       type="xygrid"
       id="grid844" />
  </sodipodi:namedview>
  <path
     id="path817"
     style="fill:#f2cbf8;fill-opacity:1;stroke-width:0.91666681"
     d="M 8 2.5 C 4.962434 2.5 2.5 3.3214624 2.5 4.3339844 L 2.5 11.666016 C 2.5 12.443002 3.9527434 13.106125 6 13.373047 L 6 9 A 1.0001 1.0001 0 0 1 7 8 L 10 8 A 1.0001 1.0001 0 0 1 11 9 A 1.0001 1.0001 0 0 1 12 8 L 13.5 8 L 13.5 4.3339844 C 13.5 3.3214624 11.037565 2.5 8 2.5 z " />
  <path
     id="path2"
     style="fill:#8e03a3;fill-opacity:1"
     d="M 8 2 A 6 2 0 0 0 2 4 L 2 12 A 6 2 0 0 0 6 13.882812 L 6 12.916016 A 5 1 0 0 1 3 12 L 3 9.1015625 A 6 2 0 0 0 6 9.8808594 L 6 9 A 1.0001 1.0001 0 0 1 6.0136719 8.9160156 A 5 1 0 0 1 3 8 L 3 5.1015625 A 6 2 0 0 0 8 6 A 6 2 0 0 0 13 5.1035156 L 13 8 L 14 8 L 14 4 A 6 2 0 0 0 8 2 z M 8 3 A 5 1 0 0 1 13 4 A 5 1 0 0 1 8 5 A 5 1 0 0 1 3 4 A 5 1 0 0 1 8 3 z M 11.033203 8.7929688 A 5 1 0 0 1 10.96875 8.8027344 A 1.0001 1.0001 0 0 1 11 9 A 1.0001 1.0001 0 0 1 11.033203 8.7929688 z " />
  <path
     inkscape:connector-curvature="0"
     style="fill:#77216F"
     d="m 9,11 v 2 h 4 v -2 z"
     id="path4"
     sodipodi:nodetypes="ccccc" />
  <path
     d="m 9,11 v 2 h 4 v -2 z"
     id="path4-3"
     inkscape:connector-curvature="0"
     style="fill:#e95420;fill-opacity:1.0"
     sodipodi:nodetypes="ccccc" />
  <path
     style="fill:#e95420;fill-opacity:1.0;stroke:none;stroke-width:1px;stroke-linecap:butt;stroke-linejoin:miter;stroke-opacity:1"
     d="m 12,9 h 3 v 6 h -3 v -1 h 2 v -4 h -2 z"
     id="path850"
     inkscape:connector-curvature="0"
     sodipodi:nodetypes="ccccccccc" />
  <path
     inkscape:connector-curvature="0"
     id="path858"
     d="M 10,9 H 7.0000002 v 6 H 10 V 14 H 8.0000002 V 10 H 10 Z"
     style="fill:#e95420;fill-opacity:1.0;stroke:none;stroke-width:1px;stroke-linecap:butt;stroke-linejoin:miter;stroke-opacity:1"
     sodipodi:nodetypes="ccccccccc" />
</svg>
