<?xml version="1.0" encoding="UTF-8" standalone="no"?>
<svg
   xmlns:dc="http://purl.org/dc/elements/1.1/"
   xmlns:cc="http://creativecommons.org/ns#"
   xmlns:rdf="http://www.w3.org/1999/02/22-rdf-syntax-ns#"
   xmlns:svg="http://www.w3.org/2000/svg"
   xmlns="http://www.w3.org/2000/svg"
   xmlns:sodipodi="http://sodipodi.sourceforge.net/DTD/sodipodi-0.dtd"
   xmlns:inkscape="http://www.inkscape.org/namespaces/inkscape"
   viewBox="0 0 16 16"
   version="1.1"
   id="svg6"
   sodipodi:docname="sc_dbqueryrename.svg"
   inkscape:export-filename="/home/jupiter007/Libreoffice yaru theme fullcolor/build/cmd/sc_dbqueryrename.png"
   inkscape:export-xdpi="95"
   inkscape:export-ydpi="95"
   inkscape:version="1.0.1 (3bc2e813f5, 2020-09-07)">
  <metadata
     id="metadata12">
    <rdf:RDF>
      <cc:Work
         rdf:about="">
        <dc:format>image/svg+xml</dc:format>
        <dc:type
           rdf:resource="http://purl.org/dc/dcmitype/StillImage" />
      </cc:Work>
    </rdf:RDF>
  </metadata>
  <defs
     id="defs10" />
  <sodipodi:namedview
     pagecolor="#ffffff"
     bordercolor="#666666"
     borderopacity="1"
     objecttolerance="10"
     gridtolerance="10"
     guidetolerance="10"
     inkscape:pageopacity="0"
     inkscape:pageshadow="2"
     inkscape:window-width="1920"
     inkscape:window-height="1011"
     id="namedview8"
     showgrid="false"
     inkscape:zoom="14.75"
     inkscape:cx="0.44067797"
     inkscape:cy="8"
     inkscape:window-x="0"
     inkscape:window-y="0"
     inkscape:window-maximized="1"
     inkscape:current-layer="svg6"
     inkscape:document-rotation="0" />
  <path
     style="fill:#f2cbf8;fill-opacity:1;stroke-width:0.91666681"
     id="path817"
     d="m 8,2.5000002 c -3.0375661,0 -5.5,0.8208113 -5.5,1.8333333 V 11.666666 C 2.5,12.679188 4.9624339,13.5 8,13.5 c 3.037565,0 5.5,-0.820812 5.5,-1.833334 V 4.3333335 C 13.5,3.3208115 11.037565,2.5000002 8,2.5000002 Z"
     inkscape:connector-curvature="0"
     sodipodi:nodetypes="sssssss" />
  <path
     inkscape:connector-curvature="0"
     d="m 8,2.0000002 a 6,2 0 0 0 -6,2 V 12 a 6,2 0 0 0 6,2 6,2 0 0 0 6,-2 V 4.0000002 a 6,2 0 0 0 -6,-2 z m 0,1 a 5,1 0 0 1 5,1 5,1 0 0 1 -5,1 5,1 0 0 1 -5,-1 5,1 0 0 1 5,-1 z M 3,5.1015627 a 6,2 0 0 0 5,0.8984375 6,2 0 0 0 5,-0.8964844 v 2.8964844 a 5,1 0 0 1 -5,1 5,1 0 0 1 -5,-1 z m 0,4 A 6,2 0 0 0 8,10 6,2 0 0 0 13,9.1035158 V 12 A 5,1 0 0 1 8,13 5,1 0 0 1 3,12 Z"
     id="path2"
     style="fill:#8e03a3;fill-opacity:1" />
  <g
     id="g12435"
     style="display:inline"
     transform="translate(-118,171.99998)">
    <path
       sodipodi:nodetypes="cccccccccscsccccccccscsc"
       inkscape:connector-curvature="0"
       id="path3543"
       d="m 126.99219,-168 v 1 2 h 1.99219 c 0.002,0.008 0.008,0.0254 0.008,0.0254 l 0.008,5.94922 c 0,0 -0.006,0.0171 -0.008,0.0254 H 127 v 3 h 2 c 0.59893,0 1.08626,-0.20045 1.5,-0.46094 0.41374,0.26049 0.90107,0.46094 1.5,0.46094 h 2 v -3 h -1.99219 c -0.002,-0.008 -0.008,-0.0254 -0.008,-0.0254 l -0.008,-5.94922 c 0,0 0.006,-0.0171 0.008,-0.0254 h 1.99219 v -3 h -2 c -0.59893,0 -1.08626,0.20045 -1.5,0.46094 -0.41374,-0.26049 -0.90176,-0.48971 -1.5,-0.46094 z"
       style="color:#000000;font-style:normal;font-variant:normal;font-weight:normal;font-stretch:normal;font-size:medium;line-height:normal;font-family:sans-serif;font-variant-ligatures:normal;font-variant-position:normal;font-variant-caps:normal;font-variant-numeric:normal;font-variant-alternates:normal;font-feature-settings:normal;text-indent:0;text-align:start;text-decoration:none;text-decoration-line:none;text-decoration-style:solid;text-decoration-color:#000000;letter-spacing:normal;word-spacing:normal;text-transform:none;writing-mode:lr-tb;direction:ltr;text-orientation:mixed;dominant-baseline:auto;baseline-shift:baseline;text-anchor:start;white-space:normal;shape-padding:0;clip-rule:nonzero;display:inline;overflow:visible;visibility:visible;opacity:1;isolation:auto;mix-blend-mode:normal;color-interpolation:sRGB;color-interpolation-filters:linearRGB;solid-color:#000000;solid-opacity:1;vector-effect:none;fill:#ffffff;fill-opacity:1;fill-rule:evenodd;stroke:none;stroke-width:2;stroke-linecap:butt;stroke-linejoin:miter;stroke-miterlimit:4;stroke-dasharray:none;stroke-dashoffset:0;stroke-opacity:1;color-rendering:auto;image-rendering:auto;shape-rendering:auto;text-rendering:auto;enable-background:accumulate" />
    <path
       sodipodi:nodetypes="ccsccccsccscsccsccccsccscsc"
       inkscape:connector-curvature="0"
       style="color:#000000;font-style:normal;font-variant:normal;font-weight:normal;font-stretch:normal;font-size:medium;line-height:normal;font-family:sans-serif;font-variant-ligatures:normal;font-variant-position:normal;font-variant-caps:normal;font-variant-numeric:normal;font-variant-alternates:normal;font-feature-settings:normal;text-indent:0;text-align:start;text-decoration:none;text-decoration-line:none;text-decoration-style:solid;text-decoration-color:#000000;letter-spacing:normal;word-spacing:normal;text-transform:none;writing-mode:lr-tb;direction:ltr;text-orientation:mixed;dominant-baseline:auto;baseline-shift:baseline;text-anchor:start;white-space:normal;shape-padding:0;clip-rule:nonzero;display:inline;overflow:visible;visibility:visible;opacity:1;isolation:auto;mix-blend-mode:normal;color-interpolation:sRGB;color-interpolation-filters:linearRGB;solid-color:#000000;solid-opacity:1;vector-effect:none;fill:#111111;fill-opacity:1;fill-rule:evenodd;stroke:none;stroke-width:1px;stroke-linecap:butt;stroke-linejoin:miter;stroke-miterlimit:4;stroke-dasharray:none;stroke-dashoffset:0;stroke-opacity:1;color-rendering:auto;image-rendering:auto;shape-rendering:auto;text-rendering:auto;enable-background:accumulate"
       d="m 127.99219,-167 v 1 h 1 c 0.58333,0 0.73736,0.21691 0.86523,0.47266 0.12788,0.25574 0.13477,0.52734 0.13477,0.52734 l 0.008,6 c 0,0 -0.007,0.2716 -0.13477,0.52734 C 129.73736,-158.21691 129.46199,-158 129,-158 h -1 v 1 h 1 c 0.72726,0 1.19053,-0.35304 1.5,-0.73828 0.30947,0.38524 0.77274,0.73828 1.5,0.73828 h 1 v -1 h -1 c -0.58333,0 -0.73736,-0.21691 -0.86523,-0.47266 C 131.00689,-158.7284 131,-159 131,-159 l -0.008,-6 c 0,0 0.007,-0.2716 0.13477,-0.52734 0.12787,-0.25575 0.28464,-0.52916 0.86523,-0.47266 h 1 v -1 h -1 c -0.72726,0 -1.19053,0.35304 -1.5,0.73828 -0.30947,-0.38524 -0.77274,-0.73828 -1.5,-0.73828 z"
       id="path7092" />
  </g>
</svg>
