<?xml version="1.0" encoding="UTF-8" standalone="no"?>
<svg
   viewBox="0 0 16 16"
   version="1.1"
   id="svg4"
   sodipodi:docname="sc_dia.svg"
   inkscape:export-filename="/home/jupiter007/Libreoffice yaru theme fullcolor/build/cmd/sc_dia.png"
   inkscape:export-xdpi="96"
   inkscape:export-ydpi="96"
   inkscape:version="1.1 (ce6663b3b7, 2021-05-25)"
   xmlns:inkscape="http://www.inkscape.org/namespaces/inkscape"
   xmlns:sodipodi="http://sodipodi.sourceforge.net/DTD/sodipodi-0.dtd"
   xmlns="http://www.w3.org/2000/svg"
   xmlns:svg="http://www.w3.org/2000/svg"
   xmlns:rdf="http://www.w3.org/1999/02/22-rdf-syntax-ns#"
   xmlns:cc="http://creativecommons.org/ns#"
   xmlns:dc="http://purl.org/dc/elements/1.1/"><metadata
   id="metadata10">
  <rdf:RDF>
    <cc:Work
       rdf:about="">
      <dc:format>image/svg+xml</dc:format>
      <dc:type
         rdf:resource="http://purl.org/dc/dcmitype/StillImage" />
    </cc:Work>
  </rdf:RDF>
</metadata>
<defs
   id="defs8" />
<sodipodi:namedview
   pagecolor="#ffffff"
   bordercolor="#666666"
   borderopacity="1"
   objecttolerance="10"
   gridtolerance="10"
   guidetolerance="10"
   inkscape:pageopacity="0"
   inkscape:pageshadow="2"
   inkscape:window-width="1920"
   inkscape:window-height="1016"
   id="namedview6"
   showgrid="true"
   inkscape:zoom="41.7193"
   inkscape:cx="6.7474766"
   inkscape:cy="11.685239"
   inkscape:window-x="0"
   inkscape:window-y="27"
   inkscape:window-maximized="1"
   inkscape:current-layer="svg4"
   inkscape:pagecheckerboard="0">
  <inkscape:grid
     type="xygrid"
     id="grid817" />
</sodipodi:namedview>

/&gt;<path
   id="path826"
   style="color:#000000;fill:#000000;fill-rule:evenodd;stroke-linejoin:round;-inkscape-stroke:none;opacity:0.7"
   d="M 2 3 A 1.0001 1.0001 0 0 0 1 4 L 1 11 C 1 12.644701 2.3552989 14 4 14 L 10 14 L 10 12 L 4 12 C 3.4287033 12 3 11.571297 3 11 L 3 5 L 13 5 L 13 9.8828125 L 15 10.882812 L 15 4 A 1.0001 1.0001 0 0 0 14 3 L 2 3 z " />
<rect
   style="opacity:1;fill:#6d6d6d;fill-opacity:1;fill-rule:evenodd;stroke:none;stroke-width:2;stroke-linecap:butt;stroke-linejoin:round;stroke-miterlimit:4;stroke-dasharray:none;stroke-opacity:1"
   id="rect819"
   width="16"
   height="2"
   x="0"
   y="2" />
<path
   id="rect821"
   style="opacity:1;fill:#ffffff;fill-opacity:1;fill-rule:evenodd;stroke:none;stroke-width:2;stroke-linecap:butt;stroke-linejoin:round;stroke-miterlimit:4;stroke-dasharray:none;stroke-opacity:1"
   d="M 2 4 L 2 11 C 2 12.108 2.892 13 4 13 L 10 13 L 10 10 A 1.0001 1.0001 0 0 1 10.955078 9 A 1.0001 1.0001 0 0 1 11.447266 9.1054688 L 14 10.382812 L 14 4 L 2 4 z " />
<path
   id="path828"
   style="opacity:1;fill:#46a926;fill-opacity:1;fill-rule:evenodd;stroke:none;stroke-width:2;stroke-linecap:butt;stroke-linejoin:round;stroke-miterlimit:4;stroke-dasharray:none;stroke-opacity:1"
   d="M 10.5 6 A 2.5 2.5 0 0 0 8.1894531 7.5429688 A 2.5 2.5 0 0 0 8.7324219 10.267578 A 2.5 2.5 0 0 0 10 10.947266 L 10 10 A 1.0001 1.0001 0 0 1 10.955078 9 A 1.0001 1.0001 0 0 1 11.447266 9.1054688 L 12.673828 9.71875 A 2.5 2.5 0 0 0 13 8.5 L 10.5 8.5 L 10.5 6 z " />
<rect
   style="opacity:1;fill:#1a7fd4;fill-opacity:1;fill-rule:evenodd;stroke:none;stroke-width:2.30940104;stroke-linecap:butt;stroke-linejoin:round;stroke-miterlimit:4;stroke-dasharray:none;stroke-opacity:1"
   id="rect830"
   width="4"
   height="1"
   x="3"
   y="6" />
<rect
   style="opacity:1;fill:#c7162b;fill-opacity:1;fill-rule:evenodd;stroke:none;stroke-width:2.30940104;stroke-linecap:butt;stroke-linejoin:round;stroke-miterlimit:4;stroke-dasharray:none;stroke-opacity:1"
   id="rect832"
   width="4"
   height="1"
   x="3"
   y="8" />
<rect
   style="opacity:1;fill:#46a926;fill-opacity:1;fill-rule:evenodd;stroke:none;stroke-width:2.30940104;stroke-linecap:butt;stroke-linejoin:round;stroke-miterlimit:4;stroke-dasharray:none;stroke-opacity:1"
   id="rect834"
   width="4"
   height="1"
   x="3"
   y="10" />
<path
   style="opacity:1;fill:#c7162b;fill-opacity:1;fill-rule:evenodd;stroke:none;stroke-width:2;stroke-linecap:butt;stroke-linejoin:round;stroke-miterlimit:4;stroke-dasharray:none;stroke-opacity:1"
   id="path836"
   sodipodi:type="arc"
   sodipodi:cx="8.5"
   sodipodi:cy="-10.5"
   sodipodi:rx="2.5"
   sodipodi:ry="2.5"
   sodipodi:start="3.1415927"
   sodipodi:end="4.712389"
   d="M 6,-10.5 A 2.5,2.5 0 0 1 8.5,-13 l 0,2.5 z"
   transform="rotate(90)" />
<path
   style="fill:#00ff00;fill-opacity:1;stroke:none;stroke-width:1px;stroke-linecap:butt;stroke-linejoin:miter;stroke-opacity:1"
   d="m 11,15 5,-2.5 -5,-2.5 z"
   id="path838"
   inkscape:connector-curvature="0"
   sodipodi:nodetypes="cccc" />
</svg>
