<?xml version="1.0" encoding="UTF-8" standalone="no"?>
<svg
   xmlns:dc="http://purl.org/dc/elements/1.1/"
   xmlns:cc="http://creativecommons.org/ns#"
   xmlns:rdf="http://www.w3.org/1999/02/22-rdf-syntax-ns#"
   xmlns:svg="http://www.w3.org/2000/svg"
   xmlns="http://www.w3.org/2000/svg"
   xmlns:sodipodi="http://sodipodi.sourceforge.net/DTD/sodipodi-0.dtd"
   xmlns:inkscape="http://www.inkscape.org/namespaces/inkscape"
   viewBox="0 0 16 16"
   version="1.1"
   id="svg4"
   sodipodi:docname="sc_fillright.svg"
   inkscape:export-filename="/home/jupiter007/Libreoffice yaru theme fullcolor/build/cmd/sc_gallery.png"
   inkscape:export-xdpi="96"
   inkscape:export-ydpi="96"
   inkscape:version="1.0.1 (3bc2e813f5, 2020-09-07)"><metadata
   id="metadata10">
  <rdf:RDF>
    <cc:Work
       rdf:about="">
      <dc:format>image/svg+xml</dc:format>
      <dc:type
         rdf:resource="http://purl.org/dc/dcmitype/StillImage" />
      <dc:title />
    </cc:Work>
  </rdf:RDF>
</metadata>
<defs
   id="defs8" />
<sodipodi:namedview
   pagecolor="#ffffff"
   bordercolor="#666666"
   borderopacity="1"
   objecttolerance="10"
   gridtolerance="10"
   guidetolerance="10"
   inkscape:pageopacity="0"
   inkscape:pageshadow="2"
   inkscape:window-width="1920"
   inkscape:window-height="1043"
   id="namedview6"
   showgrid="true"
   inkscape:zoom="29.5"
   inkscape:cx="3.4207252"
   inkscape:cy="7.8034269"
   inkscape:window-x="1920"
   inkscape:window-y="0"
   inkscape:window-maximized="1"
   inkscape:current-layer="svg4"
   inkscape:document-rotation="0">
  <inkscape:grid
     type="xygrid"
     id="grid847" />
</sodipodi:namedview>



/&amp;gt;<rect
   style="fill:#ffffff;fill-opacity:1;stroke:none;stroke-width:2;stroke-linecap:round;stroke-linejoin:round;stroke-miterlimit:4;stroke-dasharray:none;stroke-opacity:1"
   id="rect820"
   width="12"
   height="12"
   x="2"
   y="2"
   transform="matrix(0,1,1,0,0,0)" />
<path
   id="path2"
   style="fill:#6d6d6d;fill-opacity:1"
   d="M 1,4 C 1,2 1,1 3,1 h 10 c 2,0 2,1 2,3 v 8 c 0,2 0,3 -2,3 H 3 C 1,15 1,14 1,12 Z M 5,2 v 2 8 2 h 8 c 1,0 1,-1 1,-2 V 4 C 14,3 14,2 13,2 Z"
   sodipodi:nodetypes="sssssssssccccccccc" />
<path
   sodipodi:nodetypes="cccccccc"
   style="opacity:1;fill:#6d6d6d;fill-opacity:1;stroke:#6d6d6d;stroke-width:2;stroke-linecap:butt;stroke-linejoin:round;stroke-miterlimit:4;stroke-dasharray:none;stroke-opacity:1"
   d="M 11,7.9999995 7.9999995,11 V 9 H 5 V 6.999999 h 3 v -2 z"
   id="path839"
   inkscape:connector-curvature="0" />
<path
   sodipodi:nodetypes="cccccccc"
   id="path841"
   d="M 11,8.0000005 8,4.999999 V 7 H 5 V 9.000001 H 7.9999995 V 11 Z"
   style="fill:#aee3f8;fill-opacity:1;stroke:none;stroke-width:1px;stroke-linecap:butt;stroke-linejoin:miter;stroke-opacity:1"
   inkscape:connector-curvature="0" />
</svg>
