<?xml version="1.0" encoding="UTF-8" standalone="no"?>
<svg
   viewBox="0 0 16 16"
   version="1.1"
   id="svg8"
   sodipodi:docname="sc_footnotedialog.svg"
   inkscape:version="1.2 (1:1.2.1+202207142221+cd75a1ee6d)"
   inkscape:export-filename="/home/jupiter007/Libreoffice yaru theme fullcolor/build/cmd/sc_footnotedialog.png"
   inkscape:export-xdpi="95"
   inkscape:export-ydpi="95"
   xmlns:inkscape="http://www.inkscape.org/namespaces/inkscape"
   xmlns:sodipodi="http://sodipodi.sourceforge.net/DTD/sodipodi-0.dtd"
   xmlns="http://www.w3.org/2000/svg"
   xmlns:svg="http://www.w3.org/2000/svg"
   xmlns:rdf="http://www.w3.org/1999/02/22-rdf-syntax-ns#"
   xmlns:cc="http://creativecommons.org/ns#"
   xmlns:dc="http://purl.org/dc/elements/1.1/">
  <metadata
     id="metadata14">
    <rdf:RDF>
      <cc:Work
         rdf:about="">
        <dc:format>image/svg+xml</dc:format>
        <dc:type
           rdf:resource="http://purl.org/dc/dcmitype/StillImage" />
      </cc:Work>
    </rdf:RDF>
  </metadata>
  <defs
     id="defs12" />
  <sodipodi:namedview
     pagecolor="#ffffff"
     bordercolor="#666666"
     borderopacity="1"
     objecttolerance="10"
     gridtolerance="10"
     guidetolerance="10"
     inkscape:pageopacity="0"
     inkscape:pageshadow="2"
     inkscape:window-width="1920"
     inkscape:window-height="1043"
     id="namedview10"
     showgrid="true"
     inkscape:zoom="41.7193"
     inkscape:cx="8.1616901"
     inkscape:cy="7.3347347"
     inkscape:window-x="0"
     inkscape:window-y="0"
     inkscape:window-maximized="1"
     inkscape:current-layer="svg8"
     inkscape:document-rotation="0"
     inkscape:showpageshadow="2"
     inkscape:pagecheckerboard="0"
     inkscape:deskcolor="#d1d1d1">
    <inkscape:grid
       type="xygrid"
       id="grid821" />
  </sodipodi:namedview>
  <path
     id="path4237-1"
     style="font-style:normal;font-variant:normal;font-weight:normal;font-stretch:normal;font-size:15px;line-height:125%;font-family:Ubuntu;-inkscape-font-specification:Ubuntu;text-align:center;letter-spacing:0px;word-spacing:0px;writing-mode:lr-tb;text-anchor:middle;display:inline;opacity:0.7;fill:#000000;fill-opacity:1;stroke:none;stroke-width:0.99980211"
     d="M 5.0117188 2 C 3.753519 2.0145 2.8328281 1.9693958 2.0800781 2.3847656 C 1.7037085 2.5924255 1.4068475 2.9441527 1.2421875 3.3828125 C 1.0775175 3.8214825 1.0175781 4.3424 1.0175781 5 L 1.0175781 6.4882812 L 1.0175781 12 C 1.0175781 12.65761 1.0774785 13.178576 1.2421875 13.617188 C 1.4068675 14.055798 1.7037185 14.405712 2.0800781 14.613281 C 2.8327981 15.028411 3.7536189 14.98493 5.0117188 15 L 5.0136719 15 L 11.019531 15 L 11.023438 15 C 12.281627 14.9855 13.202328 15.0306 13.955078 14.615234 C 14.331448 14.407574 14.628299 14.055848 14.792969 13.617188 C 14.957508 13.178517 15.017578 12.65761 15.017578 12 L 15.017578 8.1601562 C 14.970987 8.6983106 14.738207 9.1934258 14.191406 9.4199219 L 13.074219 9.8828125 C 12.48687 10.1261 11.930823 9.9030902 11.503906 9.5039062 C 11.075092 9.9073852 10.513259 10.133971 9.9257812 9.890625 A 1.0001 1.0001 0 0 0 9.9238281 9.890625 L 8.8105469 9.4277344 C 8.2255439 9.1847954 7.98813 8.6279466 7.96875 8.0410156 C 7.384502 8.0221686 6.8342168 7.7872276 6.5898438 7.1972656 L 6.1269531 6.0800781 C 5.8825251 5.4899754 6.1059064 4.9337775 6.5058594 4.5078125 C 6.1038744 4.0790245 5.8781377 3.5181882 6.1210938 2.9316406 A 1.0001 1.0001 0 0 0 6.1210938 2.9296875 L 6.5078125 2 L 5.015625 2 L 5.0117188 2 z M 11.441406 4.359375 C 11.378466 4.385445 11.327966 4.5086325 11.353516 4.5703125 C 11.379588 4.6332525 11.502763 4.6837531 11.564453 4.6582031 C 11.627393 4.6321311 11.677894 4.5089456 11.652344 4.4472656 C 11.626272 4.3843256 11.503086 4.333825 11.441406 4.359375 z " />
  <path
     id="path1993"
     style="opacity:1;vector-effect:none;fill:#ffffff;fill-opacity:1;stroke:none;stroke-width:1;stroke-linecap:round;stroke-linejoin:bevel;stroke-miterlimit:4;stroke-dasharray:none;stroke-dashoffset:0;stroke-opacity:1"
     d="M 5 3.0273438 C 3.4434194 3.0381398 4.8897946 3.0158793 3.3398438 3.0664062 C 2.8786148 3.1090742 2.3246989 3.2718433 2.1855469 3.7753906 C 1.9665529 4.4107371 2.0764445 5.1096753 2.0390625 5.7578125 C 2.0312625 8.0548971 2.0160569 10.355179 2.0605469 12.644531 C 2.0996469 13.10646 2.2635606 13.655641 2.7597656 13.806641 C 3.3922216 14.031723 4.0434825 13.929379 4.6953125 13.960938 C 6.1195475 13.967738 4.5448461 13.972366 5.9707031 13.972656 C 7.6752341 13.973006 10.379324 13.968588 12.078125 13.955078 C 12.590036 13.943068 13.263018 13.973949 13.664062 13.548828 C 14.085159 13.009045 13.950656 12.280297 13.986328 11.644531 C 13.989786 10.932524 13.989774 10.216711 13.992188 9.5019531 L 13.074219 9.8828125 C 12.48687 10.1261 11.930823 9.9030902 11.503906 9.5039062 C 11.075092 9.9073852 10.513259 10.133971 9.9257812 9.890625 A 1.0001 1.0001 0 0 0 9.9238281 9.890625 L 8.8105469 9.4277344 C 8.2255439 9.1847954 7.98813 8.6279466 7.96875 8.0410156 C 7.384502 8.0221686 6.8342168 7.7872276 6.5898438 7.1972656 L 6.1269531 6.0800781 C 5.8825251 5.4899754 6.1059064 4.9337775 6.5058594 4.5078125 C 6.1264606 4.1031167 5.9191422 3.5798448 6.0996094 3.0292969 C 5.740778 3.029329 5.3079978 3.0271516 5 3.0273438 z M 11.441406 4.359375 C 11.378466 4.385445 11.327966 4.5086325 11.353516 4.5703125 C 11.379588 4.6332525 11.502763 4.6837531 11.564453 4.6582031 C 11.627393 4.6321311 11.677894 4.5089456 11.652344 4.4472656 C 11.626272 4.3843256 11.503086 4.333825 11.441406 4.359375 z " />
  <g
     id="g1425"
     transform="translate(3.7315867e-7,-7.0052673)">
    <circle
       style="fill:#ffffff;fill-opacity:1;fill-rule:evenodd;stroke:none;stroke-width:2;stroke-linecap:round;stroke-linejoin:round;stroke-miterlimit:4;stroke-dasharray:none;stroke-opacity:1"
       id="path1328"
       cx="11.5"
       cy="11.5"
       r="1.5" />
    <path
       d="m 9.3111344,7.791575 c -0.13058,0.05409 -0.188804,0.19465 -0.134715,0.325232 l 0.272166,0.657066 c -0.260199,0.195351 -0.471578,0.424352 -0.66202,0.678364 L 8.1128724,9.173184 c -0.130581,-0.05409 -0.274445,0.0055 -0.328533,0.136083 l -0.461881,1.115078 c -0.05409,0.130582 0.0055,0.274445 0.136083,0.328534 l 0.673693,0.279053 c -0.04495,0.314275 -0.05741,0.62567 -0.01156,0.947793 l -0.657066,0.272166 c -0.130581,0.05409 -0.188804,0.19465 -0.134715,0.325232 l 0.462682,1.117013 c 0.05409,0.130581 0.19465,0.188803 0.325231,0.134715 l 0.657067,-0.272166 c 0.195351,0.260198 0.424352,0.471578 0.678363,0.66202 l -0.279053,0.673693 c -0.05409,0.130583 0.0055,0.274445 0.136083,0.328533 l 1.1150786,0.461881 c 0.130582,0.05409 0.274445,-0.0055 0.328533,-0.136083 l 0.279053,-0.673693 c 0.314276,0.04495 0.625672,0.05741 0.947794,0.01156 l 0.272166,0.657067 c 0.05409,0.130582 0.19465,0.188803 0.325231,0.134715 l 1.117013,-0.462682 c 0.130582,-0.05409 0.188804,-0.19465 0.134716,-0.325231 l -0.272166,-0.657067 c 0.260198,-0.19535 0.471577,-0.424351 0.662019,-0.678363 l 0.673694,0.279053 c 0.130583,0.05409 0.274445,-0.0055 0.328533,-0.136083 l 0.461881,-1.115079 c 0.05409,-0.130583 -0.0055,-0.274445 -0.136083,-0.328533 L 14.873035,11.97334 c 0.04495,-0.314276 0.05741,-0.625672 0.01156,-0.947794 l 0.657066,-0.272166 c 0.130582,-0.05409 0.188804,-0.194649 0.134716,-0.325231 L 15.213692,9.311132 C 15.159602,9.18055 15.019042,9.122328 14.88846,9.176417 L 14.231394,9.448582 C 14.036043,9.188383 13.807042,8.977005 13.553031,8.786563 l 0.279053,-0.673694 c 0.05409,-0.130582 -0.0055,-0.274445 -0.136083,-0.328533 L 12.580922,7.322455 c -0.130583,-0.05409 -0.274445,0.0055 -0.328534,0.136083 L 11.973335,8.132232 C 11.65906,8.087282 11.347664,8.074822 11.025542,8.120672 L 10.753376,7.463606 C 10.699286,7.333024 10.558726,7.274802 10.428144,7.32889 Z m 1.7560366,2.659752 c 0.580321,-0.240377 1.246395,0.03552 1.486772,0.615841 0.240377,0.580322 -0.03552,1.246395 -0.615841,1.486772 -0.580321,0.240377 -1.246395,-0.03552 -1.486772,-0.615841 -0.240377,-0.580321 0.03552,-1.246395 0.615841,-1.486772 z"
       display="block"
       fill="url(#d)"
       stroke="url(#e)"
       stroke-linejoin="round"
       stroke-width="0.6"
       id="path42"
       style="fill:#d3d3d3;fill-opacity:1;stroke:#4d4d4d;stroke-opacity:1" />
  </g>
  <g
     id="g858"
     transform="translate(3.7315867e-7,-7.0052673)">
    <circle
       style="fill:#ffffff;fill-opacity:1;fill-rule:evenodd;stroke:none;stroke-width:2;stroke-linecap:round;stroke-linejoin:round;stroke-miterlimit:4;stroke-dasharray:none;stroke-opacity:1"
       id="circle854"
       cx="11.5"
       cy="11.5"
       r="1.5" />
    <path
       d="m 9.3111344,7.791575 c -0.13058,0.05409 -0.188804,0.19465 -0.134715,0.325232 l 0.272166,0.657066 c -0.260199,0.195351 -0.471578,0.424352 -0.66202,0.678364 L 8.1128724,9.173184 c -0.130581,-0.05409 -0.274445,0.0055 -0.328533,0.136083 l -0.461881,1.115078 c -0.05409,0.130582 0.0055,0.274445 0.136083,0.328534 l 0.673693,0.279053 c -0.04495,0.314275 -0.05741,0.62567 -0.01156,0.947793 l -0.657066,0.272166 c -0.130581,0.05409 -0.188804,0.19465 -0.134715,0.325232 l 0.462682,1.117013 c 0.05409,0.130581 0.19465,0.188803 0.325231,0.134715 l 0.657067,-0.272166 c 0.195351,0.260198 0.424352,0.471578 0.678363,0.66202 l -0.279053,0.673693 c -0.05409,0.130583 0.0055,0.274445 0.136083,0.328533 l 1.1150786,0.461881 c 0.130582,0.05409 0.274445,-0.0055 0.328533,-0.136083 l 0.279053,-0.673693 c 0.314276,0.04495 0.625672,0.05741 0.947794,0.01156 l 0.272166,0.657067 c 0.05409,0.130582 0.19465,0.188803 0.325231,0.134715 l 1.117013,-0.462682 c 0.130582,-0.05409 0.188804,-0.19465 0.134716,-0.325231 l -0.272166,-0.657067 c 0.260198,-0.19535 0.471577,-0.424351 0.662019,-0.678363 l 0.673694,0.279053 c 0.130583,0.05409 0.274445,-0.0055 0.328533,-0.136083 l 0.461881,-1.115079 c 0.05409,-0.130583 -0.0055,-0.274445 -0.136083,-0.328533 L 14.873035,11.97334 c 0.04495,-0.314276 0.05741,-0.625672 0.01156,-0.947794 l 0.657066,-0.272166 c 0.130582,-0.05409 0.188804,-0.194649 0.134716,-0.325231 L 15.213692,9.311132 C 15.159602,9.18055 15.019042,9.122328 14.88846,9.176417 L 14.231394,9.448582 C 14.036043,9.188383 13.807042,8.977005 13.553031,8.786563 l 0.279053,-0.673694 c 0.05409,-0.130582 -0.0055,-0.274445 -0.136083,-0.328533 L 12.580922,7.322455 c -0.130583,-0.05409 -0.274445,0.0055 -0.328534,0.136083 L 11.973335,8.132232 C 11.65906,8.087282 11.347664,8.074822 11.025542,8.120672 L 10.753376,7.463606 C 10.699286,7.333024 10.558726,7.274802 10.428144,7.32889 Z m 1.7560366,2.659752 c 0.580321,-0.240377 1.246395,0.03552 1.486772,0.615841 0.240377,0.580322 -0.03552,1.246395 -0.615841,1.486772 -0.580321,0.240377 -1.246395,-0.03552 -1.486772,-0.615841 -0.240377,-0.580321 0.03552,-1.246395 0.615841,-1.486772 z"
       display="block"
       fill="url(#d)"
       stroke="url(#e)"
       stroke-linejoin="round"
       stroke-width="0.6"
       id="path856"
       style="fill:#d3d3d3;fill-opacity:1;stroke:#4d4d4d;stroke-opacity:1" />
  </g>
  <path
     id="path1028"
     style="fill:#00ffff;fill-opacity:1"
     d="m 6,10 v 1 h 7 v -1 z m 0,2 v 1 h 5 v -1 z"
     sodipodi:nodetypes="cccccccccc" />
  <path
     id="rect1025"
     style="fill:#00ffff;fill-rule:evenodd;stroke-width:2;stroke-linecap:square;stroke-linejoin:round"
     d="m 4,10 h 1 v 3 h -1 z"
     sodipodi:nodetypes="ccccc" />
  <path
     id="rect1022"
     style="fill:#00ffff;fill-rule:evenodd;stroke-width:2;stroke-linecap:square;stroke-linejoin:round"
     d="m 4,8 h 1 v 1 h -1 z"
     sodipodi:nodetypes="ccccc" />
</svg>
