<?xml version="1.0" encoding="UTF-8" standalone="no"?>
<svg
   xmlns:dc="http://purl.org/dc/elements/1.1/"
   xmlns:cc="http://creativecommons.org/ns#"
   xmlns:rdf="http://www.w3.org/1999/02/22-rdf-syntax-ns#"
   xmlns:svg="http://www.w3.org/2000/svg"
   xmlns="http://www.w3.org/2000/svg"
   xmlns:sodipodi="http://sodipodi.sourceforge.net/DTD/sodipodi-0.dtd"
   xmlns:inkscape="http://www.inkscape.org/namespaces/inkscape"
   viewBox="0 0 16 16"
   version="1.1"
   id="svg6"
   sodipodi:docname="sc_framelinecolor.svg"
   inkscape:version="1.0.1 (3bc2e813f5, 2020-09-07)"
   inkscape:export-filename="/home/jupiter007/Libreoffice yaru theme fullcolor/build/cmd/sc_framelinecolor.png"
   inkscape:export-xdpi="96"
   inkscape:export-ydpi="96">
  <metadata
     id="metadata12">
    <rdf:RDF>
      <cc:Work
         rdf:about="">
        <dc:format>image/svg+xml</dc:format>
        <dc:type
           rdf:resource="http://purl.org/dc/dcmitype/StillImage" />
      </cc:Work>
    </rdf:RDF>
  </metadata>
  <defs
     id="defs10" />
  <sodipodi:namedview
     pagecolor="#ffffff"
     bordercolor="#666666"
     borderopacity="1"
     objecttolerance="10"
     gridtolerance="10"
     guidetolerance="10"
     inkscape:pageopacity="0"
     inkscape:pageshadow="2"
     inkscape:window-width="1920"
     inkscape:window-height="1011"
     id="namedview8"
     showgrid="true"
     inkscape:zoom="41.7193"
     inkscape:cx="4.8399657"
     inkscape:cy="6.3392675"
     inkscape:window-x="0"
     inkscape:window-y="0"
     inkscape:window-maximized="1"
     inkscape:current-layer="svg6"
     inkscape:document-rotation="0">
    <inkscape:grid
       type="xygrid"
       id="grid814" />
  </sodipodi:namedview>
  <path
     inkscape:connector-curvature="0"
     style="fill:#232629"
     d="M 2,1.9999995 V 14 l 12,10e-7 V 2.0000005 Z m 1,1 10,1e-6 V 13.000001 L 3,13 Z"
     id="path2-2"
     sodipodi:nodetypes="cccccccccc" />
  <path
     inkscape:connector-curvature="0"
     style="fill:#00ffff"
     d="M 1,0.9999995 V 15 l 12,0 h 2 V 13 7 1.0000005 Z m 1,1 12,1e-6 V 14.000001 L 2,14 Z"
     id="path4"
     sodipodi:nodetypes="ccccccccccccc" />
  <path
     id="rect824"
     style="opacity:1;fill:#ffffff;fill-opacity:1;stroke:none;stroke-width:2;stroke-linecap:round;stroke-linejoin:round;stroke-miterlimit:4;stroke-dasharray:none;stroke-opacity:1"
     d="M 3.0000003,2.9999996 13,3.0000006 V 13 l -9.9999997,-10e-7 z"
     sodipodi:nodetypes="ccccc" />
  <path
     d="m 9,11 c 1.108,0 2,-0.836253 2,-1.875 C 11,8.8079008 10.896981,8.5191118 10.75,8.2578125 10.33006,7.3788897 9.38916,6.2767968 9,5 8.6108295,6.2767968 7.6445494,7.3788897 7.2246094,8.2578125 7.0776596,8.5191118 7,8.8079008 7,9.125 7,10.163747 7.8919995,11 9,11 Z"
     id="path2"
     inkscape:connector-curvature="0"
     style="fill:#232629;fill-opacity:1" />
</svg>
