<?xml version="1.0" encoding="UTF-8" standalone="no"?>
<svg
   xmlns:dc="http://purl.org/dc/elements/1.1/"
   xmlns:cc="http://creativecommons.org/ns#"
   xmlns:rdf="http://www.w3.org/1999/02/22-rdf-syntax-ns#"
   xmlns:svg="http://www.w3.org/2000/svg"
   xmlns="http://www.w3.org/2000/svg"
   xmlns:sodipodi="http://sodipodi.sourceforge.net/DTD/sodipodi-0.dtd"
   xmlns:inkscape="http://www.inkscape.org/namespaces/inkscape"
   viewBox="0 0 16 16"
   version="1.1"
   id="svg6"
   sodipodi:docname="sc_gotopage.svg"
   inkscape:version="1.0.1 (3bc2e813f5, 2020-09-07)"
   inkscape:export-filename="/home/jupiter007/Libreoffice yaru theme fullcolor/build/cmd/sc_gotopage.png"
   inkscape:export-xdpi="96"
   inkscape:export-ydpi="96">
  <metadata
     id="metadata12">
    <rdf:RDF>
      <cc:Work
         rdf:about="">
        <dc:format>image/svg+xml</dc:format>
        <dc:type
           rdf:resource="http://purl.org/dc/dcmitype/StillImage" />
      </cc:Work>
    </rdf:RDF>
  </metadata>
  <defs
     id="defs10" />
  <sodipodi:namedview
     pagecolor="#ffffff"
     bordercolor="#666666"
     borderopacity="1"
     objecttolerance="10"
     gridtolerance="10"
     guidetolerance="10"
     inkscape:pageopacity="0"
     inkscape:pageshadow="2"
     inkscape:window-width="1920"
     inkscape:window-height="1043"
     id="namedview8"
     showgrid="true"
     inkscape:zoom="59"
     inkscape:cx="7.5764785"
     inkscape:cy="8.4844275"
     inkscape:window-x="1920"
     inkscape:window-y="0"
     inkscape:window-maximized="1"
     inkscape:current-layer="svg6"
     inkscape:document-rotation="0">
    <inkscape:grid
       type="xygrid"
       id="grid828" />
  </sodipodi:namedview>
  <path
     id="path853"
     style="color:#000000;font-style:normal;font-variant:normal;font-weight:normal;font-stretch:normal;font-size:medium;line-height:normal;font-family:sans-serif;font-variant-ligatures:normal;font-variant-position:normal;font-variant-caps:normal;font-variant-numeric:normal;font-variant-alternates:normal;font-variant-east-asian:normal;font-feature-settings:normal;font-variation-settings:normal;text-indent:0;text-align:start;text-decoration:none;text-decoration-line:none;text-decoration-style:solid;text-decoration-color:#000000;letter-spacing:normal;word-spacing:normal;text-transform:none;writing-mode:lr-tb;direction:ltr;text-orientation:mixed;dominant-baseline:auto;baseline-shift:baseline;text-anchor:start;white-space:normal;shape-padding:0;shape-margin:0;inline-size:0;clip-rule:nonzero;display:inline;overflow:visible;visibility:visible;isolation:auto;mix-blend-mode:normal;color-interpolation:sRGB;color-interpolation-filters:linearRGB;solid-color:#000000;solid-opacity:1;vector-effect:none;fill:#000000;fill-opacity:1;fill-rule:nonzero;stroke:none;stroke-width:2;stroke-linecap:butt;stroke-linejoin:round;stroke-miterlimit:4;stroke-dasharray:none;stroke-dashoffset:0;stroke-opacity:1;color-rendering:auto;image-rendering:auto;shape-rendering:auto;text-rendering:auto;enable-background:accumulate;stop-color:#000000;stop-opacity:1;opacity:0.7"
     d="M 6 1 C 5 1 4.1605053 0.92658326 3.3027344 1.3554688 C 2.8738489 1.5699114 2.4821774 1.9678352 2.2734375 2.4375 C 2.0646976 2.9071648 2 3.4166667 2 4 L 2 12 C 2 12.583333 2.0646976 13.092835 2.2734375 13.5625 C 2.4821774 14.032165 2.8738489 14.430089 3.3027344 14.644531 C 4.1605053 15.073417 5 15 6 15 L 7 15 L 7 13 L 6 13 C 5 13 4.3394947 12.926583 4.1972656 12.855469 C 4.1261511 12.819911 4.1428226 12.842835 4.1015625 12.75 C 4.0603024 12.657165 4 12.416667 4 12 L 4 4 C 4 3.5833333 4.0603024 3.3428352 4.1015625 3.25 C 4.1428226 3.1571648 4.1261511 3.1800886 4.1972656 3.1445312 C 4.3394947 3.0734168 5 3 6 3 L 9.5859375 3 L 12 5.4140625 L 12 9.8203125 L 14 11.070312 L 14 5 A 1.0001 1.0001 0 0 0 13.707031 4.2929688 L 10.707031 1.2929688 A 1.0001 1.0001 0 0 0 10 1 L 6 1 z " />
  <path
     id="path2"
     style="fill:#ffffff"
     d="M 6 2 C 4 2 3 2 3 4 L 3 12 C 3 14 4 14 6 14 L 7 14 L 7 12 L 11 12 L 11 9.1953125 L 13 10.445312 L 13 5 L 10 2 L 6 2 z " />
  <path
     inkscape:connector-curvature="0"
     d="m 10,4.9999998 v -3 l 3,3 z"
     id="path4"
     style="fill:#6d6d6d;fill-opacity:1" />
  <path
     sodipodi:nodetypes="cccccccc"
     id="path841-1"
     d="m 16,13.500001 -4,-2.5 v 2 H 7.999999 v 1 H 12 V 16 Z"
     style="fill:#00ffff;fill-opacity:1;stroke:none;stroke-width:1px;stroke-linecap:butt;stroke-linejoin:miter;stroke-opacity:1"
     inkscape:connector-curvature="0" />
</svg>
