<?xml version="1.0" encoding="UTF-8" standalone="no"?>
<svg
   xmlns:dc="http://purl.org/dc/elements/1.1/"
   xmlns:cc="http://creativecommons.org/ns#"
   xmlns:rdf="http://www.w3.org/1999/02/22-rdf-syntax-ns#"
   xmlns:svg="http://www.w3.org/2000/svg"
   xmlns="http://www.w3.org/2000/svg"
   xmlns:sodipodi="http://sodipodi.sourceforge.net/DTD/sodipodi-0.dtd"
   xmlns:inkscape="http://www.inkscape.org/namespaces/inkscape"
   viewBox="0 0 16 16"
   version="1.1"
   id="svg6"
   sodipodi:docname="sc_insertmenutitles.svg"
   inkscape:export-filename="/home/jupiter007/Libreoffice yaru theme fullcolor/build/cmd/sc_insertmenutitles.png"
   inkscape:export-xdpi="96"
   inkscape:export-ydpi="96"
   inkscape:version="1.0.1 (3bc2e813f5, 2020-09-07)">
  <metadata
     id="metadata12">
    <rdf:RDF>
      <cc:Work
         rdf:about="">
        <dc:format>image/svg+xml</dc:format>
        <dc:type
           rdf:resource="http://purl.org/dc/dcmitype/StillImage" />
      </cc:Work>
    </rdf:RDF>
  </metadata>
  <defs
     id="defs10" />
  <sodipodi:namedview
     pagecolor="#ffffff"
     bordercolor="#666666"
     borderopacity="1"
     objecttolerance="10"
     gridtolerance="10"
     guidetolerance="10"
     inkscape:pageopacity="0"
     inkscape:pageshadow="2"
     inkscape:window-width="1920"
     inkscape:window-height="1011"
     id="namedview8"
     showgrid="true"
     inkscape:zoom="41.7193"
     inkscape:cx="4.7950621"
     inkscape:cy="8.0303671"
     inkscape:window-x="0"
     inkscape:window-y="0"
     inkscape:window-maximized="1"
     inkscape:current-layer="svg6"
     inkscape:document-rotation="0">
    <inkscape:grid
       type="xygrid"
       id="grid829" />
  </sodipodi:namedview>
  <path
     sodipodi:nodetypes="cccscsccccccccscscccccc"
     inkscape:connector-curvature="0"
     id="path4237-1-7"
     d="m 3.9965708,0.980421 c -1.2582,0.0145 -2.1788911,-0.030604 -2.9316411,0.3847655 -0.37637003,0.20766 -0.67323103,0.559387 -0.83789103,0.998047 -0.16467,0.43867 -0.2516059,0.9601419 -0.224609,1.6171875 v 1.4882811 6.5508769 c 0,0.65761 0.0599,1.178578 0.224609,1.617189 0.16468,0.438611 0.461531,0.788524 0.83789103,0.996093 0.75272,0.41513 1.6735411,0.371649 2.9316411,0.386718 h 0.002 8.0058092 0.0039 c 1.25819,-0.0145 2.178891,0.0306 2.931641,-0.384767 0.37637,-0.20766 0.673221,-0.559386 0.837891,-0.998046 0.164539,-0.43867 0.224618,-0.959577 0.224618,-1.617187 V 5.447218 3.980421 c 0,-0.6575999 -0.0599,-1.1785774 -0.224609,-1.6171875 C 15.613141,1.9246335 15.31629,1.5746996 14.93993,1.3671397 14.18716,0.9520098 13.266329,0.995501 12.008239,0.980421 h -0.002 -8.0058092 z"
     style="font-style:normal;font-variant:normal;font-weight:normal;font-stretch:normal;font-size:15px;line-height:125%;font-family:Ubuntu;-inkscape-font-specification:Ubuntu;text-align:center;letter-spacing:0px;word-spacing:0px;writing-mode:lr-tb;text-anchor:middle;display:inline;opacity:0.7;fill:#000000;fill-opacity:1;stroke:none;stroke-width:0.999802" />
  <path
     inkscape:connector-curvature="0"
     id="path1993-8"
     d="M 7.9857741,2.0076058 C 6.4291931,2.0184018 3.8758088,1.9958538 2.3258578,2.0463808 1.8646287,2.0890488 1.3096697,2.2528002 1.1705177,2.7563476 0.95152367,3.3916941 1.0621037,4.0901349 1.0247217,4.738272 c -0.0078,2.297084 -0.02297,5.635003 0.02152,7.924355 0.0391,0.461928 0.202551,1.012665 0.698756,1.163665 0.6324561,0.225082 1.2841441,0.12274 1.9359741,0.154299 1.424235,0.0068 3.8505383,0.01102 5.2763953,0.01131 1.7045309,3.49e-4 2.4083629,-0.005 4.1071649,-0.01851 0.511911,-0.01201 1.183699,0.01993 1.584745,-0.405191 0.421097,-0.539783 0.287073,-1.268022 0.322745,-1.903787 0.01187,-2.444323 0.02769,-5.9496699 -0.0219,-8.3953694 C 14.900846,2.8670032 14.78013,2.4060914 14.374983,2.2245684 13.706814,1.9304709 12.948778,2.0565494 12.249062,2.0189956 10.494655,2.0071931 9.7402131,2.0065112 7.9857741,2.0076058 Z"
     style="opacity:1;vector-effect:none;fill:#ffffff;fill-opacity:1;stroke:none;stroke-width:1;stroke-linecap:round;stroke-linejoin:bevel;stroke-miterlimit:4;stroke-dasharray:none;stroke-dashoffset:0;stroke-opacity:1"
     sodipodi:nodetypes="cccccccsccccccc" />
  <path
     d="m 3.0000001,11 h 1 3 H 13 V 10 H 12 V 7 h -2 v 3 H 9.0000001 V 8 h -2 v 2 h -1 V 5.0000001 h -2 V 10 h -1 z"
     id="path2-7"
     inkscape:connector-curvature="0"
     style="fill:#232629;fill-opacity:1"
     sodipodi:nodetypes="ccccccccccccccccccc" />
  <rect
     y="-12"
     x="12"
     height="8"
     width="1"
     id="rect847"
     style="opacity:1;fill:#00ff00;fill-opacity:1;fill-rule:evenodd;stroke:none;stroke-width:1.78885;stroke-linecap:butt;stroke-linejoin:round;stroke-miterlimit:4;stroke-dasharray:none;stroke-opacity:1"
     transform="rotate(90)" />
  <rect
     y="-9"
     x="-3"
     height="4.999999"
     width="1"
     id="rect848"
     style="opacity:1;fill:#00ff00;fill-opacity:1;fill-rule:evenodd;stroke:none;stroke-width:1.78885;stroke-linecap:butt;stroke-linejoin:round;stroke-miterlimit:4;stroke-dasharray:none;stroke-opacity:1"
     transform="scale(-1)" />
  <rect
     y="-12"
     x="3"
     height="8"
     width="1"
     id="rect850"
     style="opacity:1;fill:#00ff00;fill-opacity:1;fill-rule:evenodd;stroke:none;stroke-width:1.78885;stroke-linecap:butt;stroke-linejoin:round;stroke-miterlimit:4;stroke-dasharray:none;stroke-opacity:1"
     transform="rotate(90)" />
</svg>
