<?xml version="1.0" encoding="UTF-8" standalone="no"?>
<svg
   viewBox="0 0 16 16"
   version="1.1"
   id="svg6"
   sodipodi:docname="sc_insertendnote.svg"
   inkscape:export-filename="/home/jupiter007/Libreoffice yaru theme fullcolor/build/cmd/sc_insertendnote.png"
   inkscape:export-xdpi="95"
   inkscape:export-ydpi="95"
   inkscape:version="1.2 (1:1.2.1+202207142221+cd75a1ee6d)"
   xmlns:inkscape="http://www.inkscape.org/namespaces/inkscape"
   xmlns:sodipodi="http://sodipodi.sourceforge.net/DTD/sodipodi-0.dtd"
   xmlns="http://www.w3.org/2000/svg"
   xmlns:svg="http://www.w3.org/2000/svg"
   xmlns:rdf="http://www.w3.org/1999/02/22-rdf-syntax-ns#"
   xmlns:cc="http://creativecommons.org/ns#"
   xmlns:dc="http://purl.org/dc/elements/1.1/">
  <metadata
     id="metadata12">
    <rdf:RDF>
      <cc:Work
         rdf:about="">
        <dc:format>image/svg+xml</dc:format>
        <dc:type
           rdf:resource="http://purl.org/dc/dcmitype/StillImage" />
      </cc:Work>
    </rdf:RDF>
  </metadata>
  <defs
     id="defs10" />
  <sodipodi:namedview
     pagecolor="#ffffff"
     bordercolor="#666666"
     borderopacity="1"
     objecttolerance="10"
     gridtolerance="10"
     guidetolerance="10"
     inkscape:pageopacity="0"
     inkscape:pageshadow="2"
     inkscape:window-width="1920"
     inkscape:window-height="1043"
     id="namedview8"
     showgrid="true"
     inkscape:snap-global="true"
     inkscape:zoom="29.5"
     inkscape:cx="10.79661"
     inkscape:cy="7.4237288"
     inkscape:window-x="0"
     inkscape:window-y="0"
     inkscape:window-maximized="1"
     inkscape:current-layer="svg6"
     inkscape:document-rotation="0"
     inkscape:showpageshadow="2"
     inkscape:pagecheckerboard="0"
     inkscape:deskcolor="#d1d1d1">
    <inkscape:grid
       type="xygrid"
       id="grid822" />
  </sodipodi:namedview>
  <path
     sodipodi:nodetypes="cccscsccccccccscscccccc"
     inkscape:connector-curvature="0"
     id="path1232"
     d="m 3.9941406,1 c -1.2582,0.0145 -2.178891,-0.030604 -2.931641,0.3847658 -0.3763696,0.2076599 -0.6732306,0.5593869 -0.8378906,0.9980467 -0.16467,0.43867 -0.224609,0.9595875 -0.224609,1.6171875 v 1.4882811 3.5511769 c 0,0.65761 0.0599,1.178577 0.224609,1.617188 0.16468,0.438611 0.461531,0.788524 0.8378906,0.996093 0.75272,0.41513 1.673541,0.371649 2.931641,0.386719 h 0.002 5.005809 0.0039 c 1.2581904,-0.0145 2.1788914,0.0306 2.9316414,-0.384766 0.37637,-0.20766 0.673221,-0.559386 0.837891,-0.998046 0.164539,-0.438671 0.224618,-0.959578 0.224618,-1.617188 v -3.572661 -1.466797 c 0,-0.6576 -0.0599,-1.1785776 -0.224609,-1.6171875 -0.16468,-0.4385999 -0.461531,-0.7885337 -0.837891,-0.9960936 -0.75277,-0.4151301 -1.673601,-0.3716387 -2.9316914,-0.3867189 h -0.002 -5.005809 z"
     style="font-style:normal;font-variant:normal;font-weight:normal;font-stretch:normal;font-size:15px;line-height:125%;font-family:Ubuntu;-inkscape-font-specification:Ubuntu;text-align:center;letter-spacing:0px;word-spacing:0px;writing-mode:lr-tb;text-anchor:middle;display:inline;opacity:0.7;fill:#000000;fill-opacity:1;stroke:none;stroke-width:0.999802" />
  <path
     inkscape:connector-curvature="0"
     id="path1234"
     d="m 3.9829998,2.0271848 c -1.556581,0.010796 -0.1096212,-0.011752 -1.6595722,0.038775 -0.461229,0.042668 -1.016188,0.2064193 -1.15534,0.7099666 -0.218994,0.6353465 -0.108414,1.3337872 -0.145796,1.9819244 -0.0078,2.2970848 -0.02297,2.6353028 0.02152,4.9246552 0.0391,0.461929 0.202551,1.012666 0.698756,1.163666 0.632456,0.225082 1.284144,0.12274 1.935974,0.154298 1.424235,0.0068 -0.1498058,0.01102 1.2760512,0.01131 1.704531,3.5e-4 3.4087068,-0.005 5.1075092,-0.01851 0.511911,-0.01201 1.183699,0.01993 1.584745,-0.405191 0.421097,-0.539783 0.287073,-1.268021 0.322745,-1.9037874 0.01187,-2.444324 0.02769,-2.9499696 -0.0219,-5.3956691 -0.04928,-0.4020403 -0.169992,-0.862952 -0.575139,-1.0444751 -0.668169,-0.2940974 -1.4262054,-0.1680189 -2.1259214,-0.2055728 -1.754407,-0.011802 -3.5091928,-0.012484 -5.2636318,-0.01139 z"
     style="fill:#ffffff;fill-opacity:1;stroke:none;stroke-width:1;stroke-linecap:round;stroke-linejoin:bevel;stroke-miterlimit:4;stroke-dasharray:none;stroke-dashoffset:0;stroke-opacity:1"
     sodipodi:nodetypes="cccccccsccccccc" />
  <path
     sodipodi:nodetypes="cccscsccccccccscscccccc"
     inkscape:connector-curvature="0"
     id="path4237-1"
     d="m 6.971849,3.9614254 c -1.2582,0.0145 -2.178891,-0.030604 -2.931641,0.3847658 -0.3763696,0.2076599 -0.6732306,0.5593869 -0.8378906,0.9980467 -0.16467,0.43867 -0.224609,0.9595875 -0.224609,1.6171875 v 1.4882811 3.5511765 c 0,0.65761 0.0599,1.178577 0.224609,1.617188 0.16468,0.438611 0.461531,0.788524 0.8378906,0.996093 0.75272,0.41513 1.673541,0.371649 2.931641,0.386719 h 0.002 l 5.045079,-4e-6 h 0.0039 c 1.25819,-0.0145 2.178891,0.0306 2.931641,-0.384766 0.37637,-0.20766 0.673221,-0.559386 0.837891,-0.998046 0.164539,-0.438671 0.224618,-0.959578 0.224618,-1.617188 v -3.5726606 -1.466797 c 0,-0.6576 -0.0599,-1.1785776 -0.224609,-1.6171875 -0.16468,-0.4385999 -0.461531,-0.7885337 -0.837891,-0.9960936 -0.75277,-0.4151301 -1.673601,-0.3716387 -2.931691,-0.3867189 h -0.002 l -5.045079,0 z"
     style="font-style:normal;font-variant:normal;font-weight:normal;font-stretch:normal;font-size:15px;line-height:125%;font-family:Ubuntu;-inkscape-font-specification:Ubuntu;text-align:center;letter-spacing:0px;word-spacing:0px;writing-mode:lr-tb;text-anchor:middle;display:inline;opacity:0.7;fill:#000000;fill-opacity:1;stroke:none;stroke-width:0.999802" />
  <path
     inkscape:connector-curvature="0"
     id="path1993"
     d="m 6.9607082,4.9886102 c -1.556581,0.010796 -0.1096212,-0.011752 -1.6595722,0.038775 -0.461229,0.042668 -1.016188,0.2064193 -1.15534,0.7099666 -0.218994,0.6353465 -0.108414,1.3337872 -0.145796,1.9819244 -0.0078,2.2970848 -0.02297,2.6353028 0.02152,4.9246548 0.0391,0.461929 0.202551,1.012666 0.698756,1.163666 0.632456,0.225082 1.284144,0.12274 1.935974,0.154298 1.424235,0.0068 -0.1498058,0.01102 1.2760512,0.01131 1.7045308,3.5e-4 3.4479768,-0.005 5.1467788,-0.01854 0.511911,-0.01201 1.183699,0.01993 1.584745,-0.405191 0.421097,-0.539783 0.287073,-1.268021 0.322745,-1.903787 0.01187,-2.444324 0.02769,-2.9499696 -0.0219,-5.3956691 -0.04928,-0.4020403 -0.169992,-0.862952 -0.575139,-1.0444751 -0.668169,-0.2940974 -1.426205,-0.1680189 -2.125921,-0.2055728 -1.754407,-0.011802 -3.5484628,-0.012484 -5.3029018,-0.01139 z"
     style="fill:#ffffff;fill-opacity:1;stroke:none;stroke-width:1;stroke-linecap:round;stroke-linejoin:bevel;stroke-miterlimit:4;stroke-dasharray:none;stroke-dashoffset:0;stroke-opacity:1"
     sodipodi:nodetypes="cccccccscccccccc" />
  <path
     id="path1028"
     style="fill:#00ff00;fill-opacity:1"
     d="m 8,9.027344 v 1 l 6,-4e-6 v -1 z m 0,1.972656 v 1 l 4,-4e-6 v -1 z"
     sodipodi:nodetypes="cccccccccc" />
  <path
     id="rect1025"
     style="fill:#00ff00;fill-rule:evenodd;stroke-width:2;stroke-linecap:square;stroke-linejoin:round"
     d="m 6,9.027344 h 1 v 3 h -1 z"
     sodipodi:nodetypes="ccccc" />
  <path
     id="rect1022"
     style="fill:#00ff00;fill-rule:evenodd;stroke-width:2;stroke-linecap:square;stroke-linejoin:round"
     d="m 6,7.027344 h 1 v 1 h -1 z"
     sodipodi:nodetypes="ccccc" />
</svg>
