<?xml version="1.0" encoding="UTF-8" standalone="no"?>
<svg
   xmlns:dc="http://purl.org/dc/elements/1.1/"
   xmlns:cc="http://creativecommons.org/ns#"
   xmlns:rdf="http://www.w3.org/1999/02/22-rdf-syntax-ns#"
   xmlns:svg="http://www.w3.org/2000/svg"
   xmlns="http://www.w3.org/2000/svg"
   xmlns:sodipodi="http://sodipodi.sourceforge.net/DTD/sodipodi-0.dtd"
   xmlns:inkscape="http://www.inkscape.org/namespaces/inkscape"
   viewBox="0 0 16 16"
   version="1.1"
   id="svg4"
   sodipodi:docname="sc_insertmath.svg"
   inkscape:export-filename="/home/jupiter007/Libreoffice yaru theme fullcolor/build/cmd/sc_insertmath.png"
   inkscape:export-xdpi="95"
   inkscape:export-ydpi="95"
   inkscape:version="1.0.1 (3bc2e813f5, 2020-09-07)"><metadata
   id="metadata10">
  <rdf:RDF>
    <cc:Work
       rdf:about="">
      <dc:format>image/svg+xml</dc:format>
      <dc:type
         rdf:resource="http://purl.org/dc/dcmitype/StillImage" />
      <dc:title></dc:title>
    </cc:Work>
  </rdf:RDF>
</metadata>
<defs
   id="defs8" />
<sodipodi:namedview
   pagecolor="#ffffff"
   bordercolor="#666666"
   borderopacity="1"
   objecttolerance="10"
   gridtolerance="10"
   guidetolerance="10"
   inkscape:pageopacity="0"
   inkscape:pageshadow="2"
   inkscape:window-width="1920"
   inkscape:window-height="1011"
   id="namedview6"
   showgrid="true"
   inkscape:zoom="14.75"
   inkscape:cx="-1.7859352"
   inkscape:cy="9.5442733"
   inkscape:window-x="0"
   inkscape:window-y="0"
   inkscape:window-maximized="1"
   inkscape:current-layer="svg4"
   inkscape:document-rotation="0">
  <inkscape:grid
     type="xygrid"
     id="grid817" />
  <inkscape:grid
     spacingx="0.5"
     spacingy="0.5"
     empspacing="10"
     dotted="true"
     type="xygrid"
     id="grid844" />
</sodipodi:namedview>



/&gt;<path
   style="color:#000000;font-style:normal;font-variant:normal;font-weight:normal;font-stretch:normal;font-size:medium;line-height:normal;font-family:sans-serif;font-variant-ligatures:normal;font-variant-position:normal;font-variant-caps:normal;font-variant-numeric:normal;font-variant-alternates:normal;font-feature-settings:normal;text-indent:0;text-align:start;text-decoration:none;text-decoration-line:none;text-decoration-style:solid;text-decoration-color:#000000;letter-spacing:normal;word-spacing:normal;text-transform:none;writing-mode:lr-tb;direction:ltr;text-orientation:mixed;dominant-baseline:auto;baseline-shift:baseline;text-anchor:start;white-space:normal;shape-padding:0;clip-rule:nonzero;display:inline;overflow:visible;visibility:visible;opacity:1;isolation:auto;mix-blend-mode:normal;color-interpolation:sRGB;color-interpolation-filters:linearRGB;solid-color:#000000;solid-opacity:1;vector-effect:none;fill:#4d4d4d;fill-opacity:1;fill-rule:nonzero;stroke:none;stroke-width:1px;stroke-linecap:butt;stroke-linejoin:miter;stroke-miterlimit:4;stroke-dasharray:none;stroke-dashoffset:0;stroke-opacity:1;color-rendering:auto;image-rendering:auto;shape-rendering:auto;text-rendering:auto;enable-background:accumulate"
   d="M 7.662109,5 5.949219,9.2812498 5.308594,8 H 3 V 9 H 4.691406 L 6.050781,11.71875 8.33789,6 H 13 V 5 Z"
   id="path835"
   inkscape:connector-curvature="0" />
<path
   sodipodi:nodetypes="cccscsccccccccscscccccc"
   inkscape:connector-curvature="0"
   id="path4237-1-7"
   d="m 3.9965708,0.98042125 c -1.2582,0.0145 -2.178891,-0.030604 -2.931641,0.38476555 -0.37636998,0.20766 -0.67323098,0.5593869 -0.83789098,0.9980469 -0.16467,0.4386701 -0.25160588,0.960142 -0.224609,1.6171876 v 1.488281 6.5508767 c 0,0.65761 0.0599,1.178578 0.224609,1.617189 0.16468,0.438611 0.461531,0.788524 0.83789098,0.996093 0.75272,0.41513 1.673541,0.371649 2.931641,0.386718 h 0.002 8.0058092 0.0039 c 1.25819,-0.0145 2.178891,0.0306 2.931641,-0.384767 0.37637,-0.20766 0.673221,-0.559386 0.837891,-0.998046 0.164539,-0.43867 0.224618,-0.959577 0.224618,-1.617187 V 5.4472183 3.9804213 c 0,-0.6576 -0.0599,-1.1785775 -0.224609,-1.6171876 C 15.613141,1.9246337 15.31629,1.5746999 14.93993,1.36714 14.18716,0.95201004 13.266329,0.99550125 12.008239,0.98042125 h -0.002 -8.0058092 z"
   style="font-style:normal;font-variant:normal;font-weight:normal;font-stretch:normal;font-size:15px;line-height:125%;font-family:Ubuntu;-inkscape-font-specification:Ubuntu;text-align:center;letter-spacing:0px;word-spacing:0px;writing-mode:lr-tb;text-anchor:middle;display:inline;opacity:0.7;fill:#000000;fill-opacity:1;stroke:none;stroke-width:0.999802" />
<path
   inkscape:connector-curvature="0"
   id="path1993-8"
   d="m 7.9857738,2.007606 c -1.556581,0.010796 -4.109965,-0.011752 -5.659916,0.038775 -0.461229,0.042668 -1.016188,0.2064194 -1.15534,0.7099669 -0.21899398,0.6353464 -0.108414,1.3337872 -0.145796,1.9819243 -0.0078,2.2970841 -0.02297,5.6350028 0.02152,7.9243548 0.0391,0.461928 0.202551,1.012665 0.698756,1.163665 0.632456,0.225082 1.284144,0.12274 1.935974,0.154299 1.424235,0.0068 3.850538,0.01102 5.276395,0.01131 1.7045312,3.49e-4 2.4083632,-0.005 4.1071652,-0.01851 0.511911,-0.01201 1.183699,0.01993 1.584745,-0.405191 0.421097,-0.539783 0.287073,-1.268022 0.322745,-1.903787 0.01187,-2.4443227 0.02769,-5.9496697 -0.0219,-8.3953692 C 14.900846,2.8670035 14.78013,2.4060917 14.374983,2.2245685 13.706814,1.9304711 12.948778,2.0565496 12.249062,2.0189958 10.494655,2.0071932 9.7402129,2.0065114 7.9857738,2.007606 Z"
   style="opacity:1;vector-effect:none;fill:#a6d74f;fill-opacity:1;stroke:none;stroke-width:1;stroke-linecap:round;stroke-linejoin:bevel;stroke-miterlimit:4;stroke-dasharray:none;stroke-dashoffset:0;stroke-opacity:1"
   sodipodi:nodetypes="cccccccsccccccc" />
<path
   style="opacity:1;fill:#4d4d4d;fill-opacity:1;stroke:none;stroke-width:2.23607;stroke-linecap:round;stroke-linejoin:round;stroke-miterlimit:4;stroke-dasharray:none;stroke-opacity:1"
   d="M 10.5,7 A 2.5,2.5 0 0 0 8,9.4999998 2.5,2.5 0 0 0 10.5,12 2.5,2.5 0 0 0 12,11.496094 V 12 h 1 V 9.4999998 7 H 12 V 7.5019531 A 2.5,2.5 0 0 0 10.5,7 Z m 0,1 A 1.5,1.5 0 0 1 12,9.4999998 1.5,1.5 0 0 1 10.5,11 1.5,1.5 0 0 1 9,9.4999998 1.5,1.5 0 0 1 10.5,8 Z"
   id="rect856"
   inkscape:connector-curvature="0" />
<path
   style="fill:none;stroke:#4d4d4d;stroke-width:1px;stroke-linecap:round;stroke-linejoin:round;stroke-opacity:1"
   d="M 3.5,8.5 H 5 l 1,3 2,-6 h 4.5"
   id="path846" />
</svg>
