<?xml version="1.0" encoding="UTF-8" standalone="no"?>
<svg
   viewBox="0 0 16 16"
   version="1.1"
   id="svg6"
   sodipodi:docname="sc_insertreferencefield.svg"
   inkscape:version="1.2 (1:1.2.1+202207142221+cd75a1ee6d)"
   inkscape:export-filename="/home/jupiter007/Libreoffice yaru theme fullcolor/build/cmd/sc_insertreferencefield.png"
   inkscape:export-xdpi="95"
   inkscape:export-ydpi="95"
   xmlns:inkscape="http://www.inkscape.org/namespaces/inkscape"
   xmlns:sodipodi="http://sodipodi.sourceforge.net/DTD/sodipodi-0.dtd"
   xmlns="http://www.w3.org/2000/svg"
   xmlns:svg="http://www.w3.org/2000/svg"
   xmlns:rdf="http://www.w3.org/1999/02/22-rdf-syntax-ns#"
   xmlns:cc="http://creativecommons.org/ns#"
   xmlns:dc="http://purl.org/dc/elements/1.1/">
  <metadata
     id="metadata12">
    <rdf:RDF>
      <cc:Work
         rdf:about="">
        <dc:format>image/svg+xml</dc:format>
        <dc:type
           rdf:resource="http://purl.org/dc/dcmitype/StillImage" />
      </cc:Work>
    </rdf:RDF>
  </metadata>
  <defs
     id="defs10" />
  <sodipodi:namedview
     pagecolor="#ffffff"
     bordercolor="#666666"
     borderopacity="1"
     objecttolerance="10"
     gridtolerance="10"
     guidetolerance="10"
     inkscape:pageopacity="0"
     inkscape:pageshadow="2"
     inkscape:window-width="1920"
     inkscape:window-height="1043"
     id="namedview8"
     showgrid="true"
     inkscape:zoom="29.5"
     inkscape:cx="8.3559322"
     inkscape:cy="3.7288136"
     inkscape:window-x="0"
     inkscape:window-y="0"
     inkscape:window-maximized="1"
     inkscape:current-layer="svg6"
     inkscape:document-rotation="0"
     inkscape:showpageshadow="2"
     inkscape:pagecheckerboard="0"
     inkscape:deskcolor="#d1d1d1">
    <inkscape:grid
       type="xygrid"
       id="grid832" />
  </sodipodi:namedview>
  <path
     id="path1232"
     style="font-style:normal;font-variant:normal;font-weight:normal;font-stretch:normal;font-size:15px;line-height:125%;font-family:Ubuntu;-inkscape-font-specification:Ubuntu;text-align:center;letter-spacing:0px;word-spacing:0px;writing-mode:lr-tb;text-anchor:middle;display:inline;opacity:0.7;fill:#000000;fill-opacity:1;stroke:none;stroke-width:0.999802"
     d="m 3.9941406,1 c -1.2581987,0.0145 -2.1788914,-0.0306038 -2.9316406,0.3847656 -0.37636922,0.2076597 -0.67323079,0.5593875 -0.83789062,0.9980469 -0.16466984,0.4386696 -0.22460938,0.9595882 -0.22460938,1.6171875 v 1.4882812 0.011719 c 5.5217905e-5,-0.5522619 0.44773812,-0.9999448 1,-1 l 1,-0.5000002 c 0.5522619,5.52e-5 1.9999448,0.4477381 2,1 l -1,2.1386721 c 0.1744566,-0.043077 0.3572969,-0.038354 0.5292969,0.013672 l 9.4805321,-0.1073018 0.02924,-1.5782451 v -1.4667969 c 0,-0.6575993 -0.0599,-1.178578 -0.224609,-1.6171875 -0.16468,-0.4385995 -0.461531,-0.7885341 -0.837891,-0.9960937 -0.752769,-0.41512973 -1.673551,-0.3716386 -2.9316404,-0.3867188 h -0.00195 -5.0449219 z"
     sodipodi:nodetypes="cccscccccccccscccccc" />
  <path
     id="path1234"
     style="fill:#ffffff;fill-opacity:1;stroke:none;stroke-width:1;stroke-linecap:round;stroke-linejoin:bevel;stroke-miterlimit:4;stroke-dasharray:none;stroke-dashoffset:0;stroke-opacity:1"
     d="M 3.9824219 2.0273438 C 2.4258424 2.0381397 3.8741682 2.0158793 2.3242188 2.0664062 C 1.8629902 2.1090742 1.3071206 2.2718438 1.1679688 2.7753906 C 0.97764238 3.3275664 1.0371834 3.9269507 1.03125 4.5 L 2 4.5 A 1.0001 1.0001 0 0 1 3 5.5 L 3 7.1386719 A 1.0001 1.0001 0 0 1 3.5292969 7.1523438 L 7.5292969 9.6523438 A 1.0001 1.0001 0 0 1 7.859375 11.005859 C 8.609821 11.002868 9.3611592 11.000029 10.101562 10.994141 C 10.613473 10.982131 11.284501 11.013011 11.685547 10.587891 C 12.106643 10.048108 11.974094 9.3193591 12.009766 8.6835938 C 12.021636 6.2392718 12.035918 5.7347596 11.986328 3.2890625 C 11.937048 2.8870226 11.817256 2.4256635 11.412109 2.2441406 C 10.743941 1.9500435 9.9848716 2.0766164 9.2851562 2.0390625 C 7.530751 2.0272605 5.7368591 2.0262496 3.9824219 2.0273438 z " />
  <path
     id="path4237-1"
     style="font-style:normal;font-variant:normal;font-weight:normal;font-stretch:normal;font-size:15px;line-height:125%;font-family:Ubuntu;-inkscape-font-specification:Ubuntu;text-align:center;letter-spacing:0px;word-spacing:0px;writing-mode:lr-tb;text-anchor:middle;display:inline;opacity:0.7;fill:#000000;fill-opacity:1;stroke:none;stroke-width:0.999802"
     d="m 6.9726562,4.9609375 c -1.2581974,0.0145 -2.178892,-0.030603 -2.9316406,0.3847656 -0.3763688,0.2076595 -0.673231,0.5593878 -0.8378906,0.9980469 -0.088692,0.2362691 -0.1453193,0.4994079 -0.1796875,0.7929688 0.1671706,-0.038248 0.3413681,-0.032868 0.5058594,0.015625 1.7776609,0.7678565 3.0991549,0.8645902 4.4707031,1.8476562 0.62582,0.391838 0.62582,2.608161 0,3 l -4.4707031,1.847656 c -0.057818,0.03198 -0.1186618,0.05814 -0.1816407,0.07813 0.1707578,0.294909 0.4098968,0.531165 0.6933594,0.6875 0.7527186,0.41513 1.6735432,0.371649 2.9316406,0.386719 h 0.00195 5.0449216 0.0039 c 1.258186,-0.0145 2.178892,0.0306 2.93164,-0.384766 0.37637,-0.207658 0.673221,-0.559388 0.837891,-0.998046 0.164539,-0.438671 0.224609,-0.95958 0.224609,-1.617188 v -2.5722656 -1.4667969 c 0,-0.6575986 -0.0599,-1.1785784 -0.224609,-1.6171875 -0.16468,-0.4385991 -0.461531,-0.7885343 -0.837891,-0.9960938 -0.752768,-0.4151291 -1.673554,-0.3716385 -2.93164,-0.3867187 h -0.002 -5.0449215 z"
     sodipodi:nodetypes="ccccccccccccccccscscccccc" />
  <path
     id="path1993"
     style="fill:#ffffff;fill-opacity:1;stroke:none;stroke-width:1;stroke-linecap:round;stroke-linejoin:bevel;stroke-miterlimit:4;stroke-dasharray:none;stroke-dashoffset:0;stroke-opacity:1"
     d="M 6.9609375 5.9882812 C 5.4043597 5.9990772 6.8507292 5.9768168 5.3007812 6.0273438 C 4.8395532 6.0700117 4.285636 6.2347351 4.1464844 6.7382812 C 4.0661341 6.9713939 4.0310626 7.21267 4.015625 7.4570312 L 7.5292969 9.6523438 A 1.0001 1.0001 0 0 1 7.5292969 11.347656 L 4.234375 13.40625 C 4.3418567 13.590735 4.4981375 13.738911 4.7207031 13.806641 C 5.3531579 14.03172 6.0044214 13.92938 6.65625 13.960938 C 8.0804822 13.967737 6.5057866 13.972366 7.9316406 13.972656 C 9.6361682 13.973005 11.379327 13.968558 13.078125 13.955078 C 13.590034 13.943068 14.263018 13.973948 14.664062 13.548828 C 15.085159 13.009047 14.950656 12.28225 14.986328 11.646484 C 14.998198 9.2021651 15.014434 9.6956943 14.964844 7.25 C 14.915564 6.8479605 14.793817 6.3866008 14.388672 6.2050781 C 13.720505 5.9109813 12.963386 6.0375538 12.263672 6 C 10.509269 5.988198 8.7153729 5.9871873 6.9609375 5.9882812 z " />
  <path
     id="path1028"
     style="fill:#00ff00;fill-opacity:1"
     d="m 8,9.027344 v 1 h 6 v -1 z m 0,1.972656 v 1 h 5 v -1 z"
     sodipodi:nodetypes="cccccccccc" />
  <path
     id="path841"
     style="fill:#00ff00;fill-opacity:1;stroke:none;stroke-width:1px;stroke-linecap:butt;stroke-linejoin:miter;stroke-opacity:1"
     d="M 1 5.5 L 1 8.5 C 1 9.5320912 1.0515044 10.151077 1.46875 10.59375 C 1.6773728 10.815087 1.9591802 10.92147 2.2148438 10.962891 C 2.4705072 11.004311 2.7212803 11 3 11 L 3 13 L 7 10.5 L 3 8 L 3 10 C 2.7212803 10 2.5051059 9.9956904 2.375 9.9746094 C 2.2448941 9.9535304 2.2223291 9.934913 2.1953125 9.90625 C 2.1412796 9.8489241 2 9.4679048 2 8.5 L 2 5.5 L 1 5.5 z " />
</svg>
