<?xml version="1.0" encoding="UTF-8" standalone="no"?>
<svg
   xmlns:dc="http://purl.org/dc/elements/1.1/"
   xmlns:cc="http://creativecommons.org/ns#"
   xmlns:rdf="http://www.w3.org/1999/02/22-rdf-syntax-ns#"
   xmlns:svg="http://www.w3.org/2000/svg"
   xmlns="http://www.w3.org/2000/svg"
   xmlns:sodipodi="http://sodipodi.sourceforge.net/DTD/sodipodi-0.dtd"
   xmlns:inkscape="http://www.inkscape.org/namespaces/inkscape"
   viewBox="0 0 16 16"
   version="1.1"
   id="svg6"
   sodipodi:docname="sc_legend.svg"
   inkscape:version="1.0.1 (3bc2e813f5, 2020-09-07)"
   inkscape:export-filename="/home/jupiter007/Libreoffice yaru theme fullcolor/build/cmd/sc_legend.png"
   inkscape:export-xdpi="96"
   inkscape:export-ydpi="96">
  <metadata
     id="metadata12">
    <rdf:RDF>
      <cc:Work
         rdf:about="">
        <dc:format>image/svg+xml</dc:format>
        <dc:type
           rdf:resource="http://purl.org/dc/dcmitype/StillImage" />
      </cc:Work>
    </rdf:RDF>
  </metadata>
  <defs
     id="defs10" />
  <sodipodi:namedview
     pagecolor="#ffffff"
     bordercolor="#666666"
     borderopacity="1"
     objecttolerance="10"
     gridtolerance="10"
     guidetolerance="10"
     inkscape:pageopacity="0"
     inkscape:pageshadow="2"
     inkscape:window-width="1920"
     inkscape:window-height="1011"
     id="namedview8"
     showgrid="true"
     inkscape:zoom="41.7193"
     inkscape:cx="7.170553"
     inkscape:cy="7.5326493"
     inkscape:window-x="1920"
     inkscape:window-y="32"
     inkscape:window-maximized="1"
     inkscape:current-layer="svg6"
     inkscape:document-rotation="0">
    <inkscape:grid
       type="xygrid"
       id="grid824" />
  </sodipodi:namedview>
  <path
     id="path871"
     style="color:#000000;font-style:normal;font-variant:normal;font-weight:normal;font-stretch:normal;font-size:medium;line-height:normal;font-family:sans-serif;font-variant-ligatures:normal;font-variant-position:normal;font-variant-caps:normal;font-variant-numeric:normal;font-variant-alternates:normal;font-variant-east-asian:normal;font-feature-settings:normal;font-variation-settings:normal;text-indent:0;text-align:start;text-decoration:none;text-decoration-line:none;text-decoration-style:solid;text-decoration-color:#000000;letter-spacing:normal;word-spacing:normal;text-transform:none;writing-mode:lr-tb;direction:ltr;text-orientation:mixed;dominant-baseline:auto;baseline-shift:baseline;text-anchor:start;white-space:normal;shape-padding:0;shape-margin:0;inline-size:0;clip-rule:nonzero;display:inline;overflow:visible;visibility:visible;isolation:auto;mix-blend-mode:normal;color-interpolation:sRGB;color-interpolation-filters:linearRGB;solid-color:#000000;solid-opacity:1;vector-effect:none;fill:#000000;fill-opacity:1;fill-rule:nonzero;stroke:none;stroke-width:2;stroke-linecap:butt;stroke-linejoin:round;stroke-miterlimit:4;stroke-dasharray:none;stroke-dashoffset:0;stroke-opacity:1;color-rendering:auto;image-rendering:auto;shape-rendering:auto;text-rendering:auto;enable-background:accumulate;stop-color:#000000;stop-opacity:1;opacity:0.7"
     d="M 4 0 C 3 0 2.1605053 -0.073416688 1.3027344 0.35546875 C 0.87384891 0.56991147 0.48217739 0.96783525 0.2734375 1.4375 C 0.06469761 1.9071648 0 2.4166667 0 3 L 0 11 C 0 11.583333 0.06469761 12.092835 0.2734375 12.5625 C 0.48217739 13.032165 0.87384892 13.430089 1.3027344 13.644531 C 2.1605053 14.073417 3 14 4 14 L 6.1074219 14 A 1.0001 1.0001 0 0 0 6.4765625 13.927734 L 6.1269531 13.083984 C 5.8825251 12.493881 6.1059064 11.937684 6.5058594 11.511719 C 6.1038744 11.082931 5.8781377 10.522094 6.1210938 9.9355469 A 1.0001 1.0001 0 0 0 6.1210938 9.9335938 L 6.5839844 8.8222656 C 6.8263654 8.2371006 7.38211 7.9986456 7.96875 7.9785156 C 7.987975 7.3933206 8.2252721 6.8436563 8.8144531 6.5996094 L 9.9296875 6.1367188 C 10.520975 5.8917999 11.075635 6.1150728 11.501953 6.515625 C 11.637395 6.3886503 11.720151 6.194877 11.888672 6.125 C 12.253658 5.9736576 12.676855 5.9646514 13.078125 6.1308594 L 13.925781 6.4824219 A 1.0001 1.0001 0 0 0 14 6.1074219 L 14 4 L 14 3 C 14 2.4166667 13.935302 1.9071648 13.726562 1.4375 C 13.517824 0.96783525 13.126151 0.56991147 12.697266 0.35546875 C 11.839495 -0.073416688 11 -2.220446e-16 10 0 L 4 0 z M 4 2 L 10 2 C 11 2 11.660505 2.0734167 11.802734 2.1445312 C 11.873849 2.1800886 11.857176 2.1571648 11.898438 2.25 C 11.939697 2.3428352 12 2.5833333 12 3 L 12 4 L 12 5.1914062 C 11.835671 5.2226823 11.66118 5.1367676 11.505859 5.2011719 C 11.421078 5.2363264 11.41726 5.277831 11.351562 5.3203125 C 10.801354 5.0784861 10.187532 4.9475221 9.546875 5.2128906 L 8.4316406 5.6757812 C 7.7288543 5.9668851 7.3827431 6.5700375 7.1835938 7.1914062 C 6.5593605 7.3884449 5.9531922 7.7319951 5.6601562 8.4394531 L 5.1972656 9.5488281 A 1.0001 1.0001 0 0 0 5.1289062 9.8203125 C 4.9755513 10.425909 5.1272886 11.000801 5.3886719 11.505859 C 5.3017449 11.674633 5.1908899 11.811048 5.140625 12 L 4 12 C 3 12 2.3394947 11.926583 2.1972656 11.855469 C 2.1261511 11.819911 2.1428226 11.842835 2.1015625 11.75 C 2.0603024 11.657165 2 11.416667 2 11 L 2 3 C 2 2.5833333 2.0603024 2.3428352 2.1015625 2.25 C 2.1428226 2.1571648 2.1261511 2.1800886 2.1972656 2.1445312 C 2.3394947 2.0734168 3 2 4 2 z " />
  <path
     id="path2"
     style="fill:#ffffff;fill-opacity:1"
     d="M 4 1 C 2 1 1 0.9999999 1 3 L 1 11 C 1 13 2 13 4 13 L 6.1074219 13 C 5.9173238 12.441831 6.1252854 11.917044 6.5058594 11.511719 C 6.1038744 11.082931 5.8781377 10.522094 6.1210938 9.9355469 A 1.0001 1.0001 0 0 0 6.1210938 9.9335938 L 6.5839844 8.8222656 C 6.8263654 8.2371006 7.38211 7.9986456 7.96875 7.9785156 C 7.987975 7.3933206 8.2252721 6.8436563 8.8144531 6.5996094 L 9.9296875 6.1367188 C 10.520975 5.8917999 11.075635 6.1150728 11.501953 6.515625 C 11.637395 6.3886503 11.720151 6.194877 11.888672 6.125 C 12.23027 5.9833556 12.622121 5.9727546 13 6.1074219 L 13 4 L 13 3 C 13 1 12 1 10 1 L 4 1 z M 11.441406 11.363281 C 11.378466 11.389351 11.327966 11.512539 11.353516 11.574219 C 11.379588 11.637159 11.502763 11.687659 11.564453 11.662109 C 11.627393 11.636037 11.677894 11.512852 11.652344 11.451172 C 11.626272 11.388232 11.503086 11.337731 11.441406 11.363281 z " />
  <rect
     style="opacity:1;vector-effect:none;fill:#1463a5;fill-opacity:1;stroke:none;stroke-width:1.70276;stroke-linecap:round;stroke-linejoin:round;stroke-miterlimit:4;stroke-dasharray:none;stroke-dashoffset:0;stroke-opacity:1"
     id="rect7299"
     width="5"
     height="2"
     x="6"
     y="3"
     inkscape:export-filename="/home/jupiter007/Libreoffice yaru theme fullcolor/build/cmd/rect7303.png"
     inkscape:export-xdpi="96"
     inkscape:export-ydpi="96" />
  <rect
     inkscape:export-ydpi="96"
     inkscape:export-xdpi="96"
     inkscape:export-filename="/home/jupiter007/Libreoffice yaru theme fullcolor/build/cmd/rect7303.png"
     y="3"
     x="3"
     height="2"
     width="2"
     id="rect832"
     style="opacity:1;vector-effect:none;fill:#1463a5;fill-opacity:1;stroke:none;stroke-width:2.15385;stroke-linecap:round;stroke-linejoin:round;stroke-miterlimit:4;stroke-dasharray:none;stroke-dashoffset:0;stroke-opacity:1" />
  <rect
     style="opacity:1;vector-effect:none;fill:#00ff00;fill-opacity:1;stroke:none;stroke-width:2.15385;stroke-linecap:round;stroke-linejoin:round;stroke-miterlimit:4;stroke-dasharray:none;stroke-dashoffset:0;stroke-opacity:1"
     id="rect836"
     width="2"
     height="2"
     x="3.0000012"
     y="6"
     inkscape:export-filename="/home/jupiter007/Libreoffice yaru theme fullcolor/build/cmd/rect7303.png"
     inkscape:export-xdpi="96"
     inkscape:export-ydpi="96" />
  <rect
     inkscape:export-ydpi="96"
     inkscape:export-xdpi="96"
     inkscape:export-filename="/home/jupiter007/Libreoffice yaru theme fullcolor/build/cmd/rect7303.png"
     y="9"
     x="3.0000012"
     height="2"
     width="2"
     id="rect840"
     style="opacity:1;vector-effect:none;fill:#46a926;fill-opacity:1;stroke:none;stroke-width:2.15385;stroke-linecap:round;stroke-linejoin:round;stroke-miterlimit:4;stroke-dasharray:none;stroke-dashoffset:0;stroke-opacity:1" />
  <path
     id="rect824"
     style="opacity:1;vector-effect:none;fill:#00ff00;fill-opacity:1;stroke:none;stroke-width:1.70276;stroke-linecap:round;stroke-linejoin:round;stroke-miterlimit:4;stroke-dasharray:none;stroke-dashoffset:0;stroke-opacity:1"
     d="M 6 6 L 6 8 L 7.8105469 8 C 7.8637967 7.9943483 7.9147565 7.9803684 7.96875 7.9785156 C 7.987975 7.3933206 8.2252721 6.8436563 8.8144531 6.5996094 L 9.9296875 6.1367188 C 10.31142 5.9786001 10.673478 6.0297118 11 6.1835938 L 11 6 L 6 6 z " />
  <path
     id="rect826"
     style="opacity:1;vector-effect:none;fill:#46a926;fill-opacity:1;stroke:none;stroke-width:1.70276;stroke-linecap:round;stroke-linejoin:round;stroke-miterlimit:4;stroke-dasharray:none;stroke-dashoffset:0;stroke-opacity:1"
     d="M 6 9 L 6 11 L 6.1679688 11 C 6.0156601 10.673214 5.9653946 10.311438 6.1210938 9.9355469 A 1.0001 1.0001 0 0 0 6.1210938 9.9335938 L 6.5097656 9 L 6 9 z " />
  <g
     id="g1425">
    <circle
       style="fill:#ffffff;fill-opacity:1;fill-rule:evenodd;stroke:none;stroke-width:2;stroke-linecap:round;stroke-linejoin:round;stroke-miterlimit:4;stroke-dasharray:none;stroke-opacity:1"
       id="path1328"
       cx="11.5"
       cy="11.5"
       r="1.5" />
    <path
       d="m 9.3111344,7.791575 c -0.13058,0.05409 -0.188804,0.19465 -0.134715,0.325232 l 0.272166,0.657066 c -0.260199,0.195351 -0.471578,0.424352 -0.66202,0.678364 L 8.1128724,9.173184 c -0.130581,-0.05409 -0.274445,0.0055 -0.328533,0.136083 l -0.461881,1.115078 c -0.05409,0.130582 0.0055,0.274445 0.136083,0.328534 l 0.673693,0.279053 c -0.04495,0.314275 -0.05741,0.62567 -0.01156,0.947793 l -0.657066,0.272166 c -0.130581,0.05409 -0.188804,0.19465 -0.134715,0.325232 l 0.462682,1.117013 c 0.05409,0.130581 0.19465,0.188803 0.325231,0.134715 l 0.657067,-0.272166 c 0.195351,0.260198 0.424352,0.471578 0.678363,0.66202 l -0.279053,0.673693 c -0.05409,0.130583 0.0055,0.274445 0.136083,0.328533 l 1.1150786,0.461881 c 0.130582,0.05409 0.274445,-0.0055 0.328533,-0.136083 l 0.279053,-0.673693 c 0.314276,0.04495 0.625672,0.05741 0.947794,0.01156 l 0.272166,0.657067 c 0.05409,0.130582 0.19465,0.188803 0.325231,0.134715 l 1.117013,-0.462682 c 0.130582,-0.05409 0.188804,-0.19465 0.134716,-0.325231 l -0.272166,-0.657067 c 0.260198,-0.19535 0.471577,-0.424351 0.662019,-0.678363 l 0.673694,0.279053 c 0.130583,0.05409 0.274445,-0.0055 0.328533,-0.136083 l 0.461881,-1.115079 c 0.05409,-0.130583 -0.0055,-0.274445 -0.136083,-0.328533 L 14.873035,11.97334 c 0.04495,-0.314276 0.05741,-0.625672 0.01156,-0.947794 l 0.657066,-0.272166 c 0.130582,-0.05409 0.188804,-0.194649 0.134716,-0.325231 L 15.213692,9.311132 C 15.159602,9.18055 15.019042,9.122328 14.88846,9.176417 L 14.231394,9.448582 C 14.036043,9.188383 13.807042,8.977005 13.553031,8.786563 l 0.279053,-0.673694 c 0.05409,-0.130582 -0.0055,-0.274445 -0.136083,-0.328533 L 12.580922,7.322455 c -0.130583,-0.05409 -0.274445,0.0055 -0.328534,0.136083 L 11.973335,8.132232 C 11.65906,8.087282 11.347664,8.074822 11.025542,8.120672 L 10.753376,7.463606 C 10.699286,7.333024 10.558726,7.274802 10.428144,7.32889 Z m 1.7560366,2.659752 c 0.580321,-0.240377 1.246395,0.03552 1.486772,0.615841 0.240377,0.580322 -0.03552,1.246395 -0.615841,1.486772 -0.580321,0.240377 -1.246395,-0.03552 -1.486772,-0.615841 -0.240377,-0.580321 0.03552,-1.246395 0.615841,-1.486772 z"
       display="block"
       fill="url(#d)"
       stroke="url(#e)"
       stroke-linejoin="round"
       stroke-width="0.6"
       id="path42"
       style="fill:#d3d3d3;fill-opacity:1;stroke:#4d4d4d;stroke-opacity:1" />
  </g>
</svg>
