<?xml version="1.0" encoding="UTF-8" standalone="no"?>
<svg
   xmlns:dc="http://purl.org/dc/elements/1.1/"
   xmlns:cc="http://creativecommons.org/ns#"
   xmlns:rdf="http://www.w3.org/1999/02/22-rdf-syntax-ns#"
   xmlns:svg="http://www.w3.org/2000/svg"
   xmlns="http://www.w3.org/2000/svg"
   xmlns:sodipodi="http://sodipodi.sourceforge.net/DTD/sodipodi-0.dtd"
   xmlns:inkscape="http://www.inkscape.org/namespaces/inkscape"
   viewBox="0 0 16 16"
   version="1.1"
   id="svg4"
   sodipodi:docname="sc_nextannotation.svg"
   inkscape:version="1.0.1 (3bc2e813f5, 2020-09-07)"
   inkscape:export-filename="/home/jupiter007/Libreoffice yaru theme fullcolor/build/cmd/sc_nextannotation.png"
   inkscape:export-xdpi="95"
   inkscape:export-ydpi="95">
  <metadata
     id="metadata10">
    <rdf:RDF>
      <cc:Work
         rdf:about="">
        <dc:format>image/svg+xml</dc:format>
        <dc:type
           rdf:resource="http://purl.org/dc/dcmitype/StillImage" />
      </cc:Work>
    </rdf:RDF>
  </metadata>
  <defs
     id="defs8" />
  <sodipodi:namedview
     pagecolor="#ffffff"
     bordercolor="#666666"
     borderopacity="1"
     objecttolerance="10"
     gridtolerance="10"
     guidetolerance="10"
     inkscape:pageopacity="0"
     inkscape:pageshadow="2"
     inkscape:window-width="1920"
     inkscape:window-height="1016"
     id="namedview6"
     showgrid="true"
     inkscape:zoom="45.254834"
     inkscape:cx="6.367541"
     inkscape:cy="10.309422"
     inkscape:window-x="0"
     inkscape:window-y="27"
     inkscape:window-maximized="1"
     inkscape:current-layer="svg4"
     inkscape:document-rotation="0">
    <inkscape:grid
       type="xygrid"
       id="grid823" />
  </sodipodi:namedview>
  <path
     id="path850"
     style="color:#000000;font-style:normal;font-variant:normal;font-weight:normal;font-stretch:normal;font-size:medium;line-height:normal;font-family:sans-serif;font-variant-ligatures:normal;font-variant-position:normal;font-variant-caps:normal;font-variant-numeric:normal;font-variant-alternates:normal;font-variant-east-asian:normal;font-feature-settings:normal;font-variation-settings:normal;text-indent:0;text-align:start;text-decoration:none;text-decoration-line:none;text-decoration-style:solid;text-decoration-color:#000000;letter-spacing:normal;word-spacing:normal;text-transform:none;writing-mode:lr-tb;direction:ltr;text-orientation:mixed;dominant-baseline:auto;baseline-shift:baseline;text-anchor:start;white-space:normal;shape-padding:0;shape-margin:0;inline-size:0;clip-rule:nonzero;display:inline;overflow:visible;visibility:visible;isolation:auto;mix-blend-mode:normal;color-interpolation:sRGB;color-interpolation-filters:linearRGB;solid-color:#000000;solid-opacity:1;vector-effect:none;fill:#000000;fill-opacity:1;fill-rule:nonzero;stroke:none;stroke-width:2;stroke-linecap:butt;stroke-linejoin:round;stroke-miterlimit:4;stroke-dasharray:none;stroke-dashoffset:0;stroke-opacity:1;color-rendering:auto;image-rendering:auto;shape-rendering:auto;text-rendering:auto;enable-background:accumulate;stop-color:#000000;stop-opacity:1;opacity:0.7"
     d="M 5 1.0019531 C 4 1.0019531 3.1605052 0.92853644 2.3027344 1.3574219 C 1.8738489 1.5718646 1.4821774 1.9697884 1.2734375 2.4394531 C 1.0646976 2.9091179 1 3.4186198 1 4.0019531 L 1 9.0019531 C 1 9.5852864 1.0646976 10.094788 1.2734375 10.564453 C 1.4821774 11.034118 1.8738489 11.432042 2.3027344 11.646484 C 3.0319553 12.011095 3.7830644 11.956911 4.5957031 11.949219 L 7 13.751953 L 7 12 L 7.9941406 12 L 5.5996094 10.203125 A 1.0001 1.0001 0 0 0 5 10.001953 C 4 10.001953 3.3394948 9.9285364 3.1972656 9.8574219 C 3.1261511 9.8218646 3.1428226 9.8447883 3.1015625 9.7519531 C 3.0603024 9.6591179 3 9.4186197 3 9.0019531 L 3 4.0019531 C 3 3.5852865 3.0603024 3.3447884 3.1015625 3.2519531 C 3.1428226 3.1591179 3.1261511 3.1820417 3.1972656 3.1464844 C 3.3394948 3.0753698 4 3.0019531 5 3.0019531 L 11 3.0019531 C 12 3.0019531 12.660505 3.0753698 12.802734 3.1464844 C 12.873849 3.1820417 12.857176 3.1591179 12.898438 3.2519531 C 12.939697 3.3447884 13 3.5852865 13 4.0019531 L 13 8.0019531 L 13 9.0019531 C 13 9.4186197 12.939698 9.6591179 12.898438 9.7519531 C 12.857176 9.8447883 12.873849 9.8218646 12.802734 9.8574219 C 12.731393 9.8930926 12.528323 9.9297579 12.21875 9.9570312 L 14.259766 11.232422 C 14.451903 11.040238 14.615742 10.8138 14.726562 10.564453 C 14.935303 10.094788 15 9.5852864 15 9.0019531 L 15 8.0019531 L 15 4.0019531 C 15 3.4186198 14.935302 2.9091179 14.726562 2.4394531 C 14.517824 1.9697884 14.126151 1.5718646 13.697266 1.3574219 C 12.839495 0.92853644 12 1.0019531 11 1.0019531 L 5 1.0019531 z M 9 10.001953 A 1.0001 1.0001 0 0 0 8 11.001953 L 8 12 L 11 12 L 11 10.001953 L 9 10.001953 z M 8.9453125 15 A 1.0001 1.0001 0 0 0 9.0566406 15 L 8.9453125 15 z " />
  <path
     id="rect823"
     style="opacity:1;fill:#fa9381;fill-opacity:1;fill-rule:nonzero;stroke:none;stroke-width:0.00106905;stroke-linecap:butt;stroke-linejoin:round;stroke-miterlimit:4;stroke-dasharray:none;stroke-dashoffset:0;stroke-opacity:1"
     d="M 5 2.0019531 C 3 2.0019531 2 2.0019532 2 4.0019531 L 2 9.0019531 C 2 11.001953 3 11.001953 5 11.001953 L 7 12.501953 L 7 12 L 9 12 L 9 11.001953 L 11 11.001953 L 11 9.1953125 L 13.361328 10.671875 C 13.780358 10.402677 14 9.9174096 14 9.0019531 L 14 8.0019531 L 14 4.0019531 C 14 2.0019532 13 2.0019531 11 2.0019531 L 5 2.0019531 z " />
  <path
     style="opacity:1;fill:#ffffff;fill-opacity:1;fill-rule:nonzero;stroke:none;stroke-width:0.00097591;stroke-linecap:butt;stroke-linejoin:round;stroke-miterlimit:4;stroke-dasharray:none;stroke-dashoffset:0;stroke-opacity:1"
     d="M 4.3333334,5.0024291 H 11.666666 C 11.851334,5.0024291 12,5.2254292 12,5.5024292 c 0,0.277 -0.148666,0.5 -0.333334,0.5 H 4.3333334 C 4.1486666,6.0024292 4,5.7794292 4,5.5024292 4,5.2254292 4.1486666,5.0024291 4.3333334,5.0024291 Z"
     id="path822"
     inkscape:connector-curvature="0"
     sodipodi:nodetypes="sssssss" />
  <path
     sodipodi:nodetypes="sssssss"
     inkscape:connector-curvature="0"
     id="path828"
     d="m 4.3333334,7.0024292 h 7.3333326 c 0.184668,0 0.333334,0.223 0.333334,0.5 0,0.277 -0.148666,0.5 -0.333334,0.5 H 4.3333334 C 4.1486666,8.0024292 4,7.7794292 4,7.5024292 c 0,-0.277 0.1486666,-0.5 0.3333334,-0.5 z"
     style="opacity:1;fill:#ffffff;fill-opacity:1;fill-rule:nonzero;stroke:none;stroke-width:0.00097591;stroke-linecap:butt;stroke-linejoin:round;stroke-miterlimit:4;stroke-dasharray:none;stroke-dashoffset:0;stroke-opacity:1" />
  <path
     sodipodi:nodetypes="cccccccc"
     id="path841-1"
     d="M 16,13.5 12,16 V 14 H 7.999999 V 13 H 12 v -1.999999 z"
     style="fill:#00ff00;fill-opacity:1;stroke:none;stroke-width:1px;stroke-linecap:butt;stroke-linejoin:miter;stroke-opacity:1"
     inkscape:connector-curvature="0" />
</svg>
