<?xml version="1.0" encoding="UTF-8" standalone="no"?>
<svg
   xmlns:dc="http://purl.org/dc/elements/1.1/"
   xmlns:cc="http://creativecommons.org/ns#"
   xmlns:rdf="http://www.w3.org/1999/02/22-rdf-syntax-ns#"
   xmlns:svg="http://www.w3.org/2000/svg"
   xmlns="http://www.w3.org/2000/svg"
   xmlns:sodipodi="http://sodipodi.sourceforge.net/DTD/sodipodi-0.dtd"
   xmlns:inkscape="http://www.inkscape.org/namespaces/inkscape"
   viewBox="0 0 16 16"
   version="1.1"
   id="svg4"
   sodipodi:docname="sc_outlinebullet.svg"
   inkscape:version="1.0.1 (3bc2e813f5, 2020-09-07)"
   inkscape:export-filename="/home/jupiter007/Libreoffice yaru theme fullcolor/build/cmd/sc_outlinebullet.png"
   inkscape:export-xdpi="96"
   inkscape:export-ydpi="96"><metadata
   id="metadata10">
  <rdf:RDF>
    <cc:Work
       rdf:about="">
      <dc:format>image/svg+xml</dc:format>
      <dc:type
         rdf:resource="http://purl.org/dc/dcmitype/StillImage" />
      <dc:title></dc:title>
    </cc:Work>
  </rdf:RDF>
</metadata>
<defs
   id="defs8" />
<sodipodi:namedview
   pagecolor="#808080"
   bordercolor="#666666"
   borderopacity="1"
   objecttolerance="10"
   gridtolerance="10"
   guidetolerance="10"
   inkscape:pageopacity="0"
   inkscape:pageshadow="2"
   inkscape:window-width="1920"
   inkscape:window-height="1011"
   id="namedview6"
   showgrid="true"
   inkscape:zoom="41.7193"
   inkscape:cx="6.6160818"
   inkscape:cy="8.6127669"
   inkscape:window-x="1920"
   inkscape:window-y="32"
   inkscape:window-maximized="1"
   inkscape:current-layer="svg4"
   inkscape:document-rotation="0">
  <inkscape:grid
     type="xygrid"
     id="grid817" />
</sodipodi:namedview>



/&gt;<rect
   style="fill:#00ffff;fill-opacity:1;fill-rule:evenodd;stroke-width:3;stroke-linecap:round;stroke-linejoin:round"
   id="rect905"
   width="3"
   height="3"
   x="2.3841858e-07"
   y="8"
   ry="1.5"
   rx="1.5" />
<path
   id="rect860"
   style="fill:#232629;fill-rule:evenodd;stroke-width:3;stroke-linecap:round;stroke-linejoin:round"
   d="M 5 12 L 5 13 L 6.109375 13 C 5.9853203 12.644814 6.028973 12.306014 6.1738281 12 L 5 12 z " />
<path
   id="rect862"
   style="fill:#ffffff;fill-rule:evenodd;stroke-width:3;stroke-linecap:round;stroke-linejoin:round"
   d="M 5 13 L 5 14 L 6.5097656 14 L 6.1269531 13.074219 C 6.1165217 13.049035 6.118125 13.025052 6.109375 13 L 5 13 z " />
<path
   id="rect864"
   style="fill:#ffffff;fill-rule:evenodd;stroke-width:3;stroke-linecap:round;stroke-linejoin:round"
   d="M 5 11 L 5 12 L 6.1738281 12 C 6.175066 11.997385 6.1764868 11.994799 6.1777344 11.992188 C 6.2153805 11.913766 6.2547297 11.837059 6.3046875 11.763672 C 6.3631526 11.671883 6.4289842 11.583828 6.5058594 11.501953 C 6.430803 11.421892 6.3680116 11.335549 6.3105469 11.246094 C 6.2568319 11.168065 6.2137528 11.087543 6.1738281 11.003906 C 6.1732068 11.002601 6.172494 11.001306 6.171875 11 L 5 11 z " />
<path
   id="rect866"
   style="fill:#232629;fill-rule:evenodd;stroke-width:3;stroke-linecap:round;stroke-linejoin:round"
   d="M 5 10 L 5 11 L 6.171875 11 C 6.0261495 10.692595 5.9806599 10.352969 6.1035156 10 L 5 10 z " />
<path
   id="rect868"
   style="fill:#ffffff;fill-rule:evenodd;stroke-width:3;stroke-linecap:round;stroke-linejoin:round"
   d="M 5 9 L 5 10 L 6.1035156 10 C 6.1122298 9.9749637 6.1106806 9.9509204 6.1210938 9.9257812 L 6.1210938 9.9238281 L 6.5058594 9 L 5 9 z " />
<path
   id="rect870-2"
   style="fill:#232629;fill-rule:evenodd;stroke-width:3;stroke-linecap:round;stroke-linejoin:round"
   d="M 5 8 L 5 9 L 6.5058594 9 L 6.5839844 8.8125 C 6.7941357 8.3051382 7.243046 8.0697603 7.7402344 8 L 5 8 z " />
<rect
   style="fill:#00ffff;fill-opacity:1;fill-rule:evenodd;stroke-width:3.00001;stroke-linecap:round;stroke-linejoin:round"
   id="rect870"
   width="1"
   height="3"
   x="2"
   y="1"
   ry="0"
   rx="0" />
<rect
   style="fill:#232629;fill-rule:evenodd;stroke-width:3;stroke-linecap:round;stroke-linejoin:round"
   id="rect837"
   width="7"
   height="1"
   x="5"
   y="-6"
   transform="scale(1,-1)" />
<path
   id="rect839"
   style="fill:#ffffff;fill-rule:evenodd;stroke-width:3;stroke-linecap:round;stroke-linejoin:round"
   d="M 5 6 L 5 7 L 8.2988281 7 C 8.4287655 6.8320541 8.5888127 6.6833105 8.8144531 6.5898438 L 9.9296875 6.1269531 C 10.520976 5.8820374 11.075637 6.1053083 11.501953 6.5058594 C 11.637396 6.378884 11.72015 6.1851127 11.888672 6.1152344 C 11.92449 6.1003824 11.963137 6.0941108 12 6.0820312 L 12 6 L 5 6 z " />
<rect
   style="fill:#ffffff;fill-rule:evenodd;stroke-width:3;stroke-linecap:round;stroke-linejoin:round"
   id="rect843-2"
   width="5"
   height="1"
   x="5"
   y="-5"
   transform="scale(1,-1)" />
<rect
   style="fill:#232629;fill-rule:evenodd;stroke-width:3;stroke-linecap:round;stroke-linejoin:round"
   id="rect861"
   width="5"
   height="1"
   x="5"
   y="-4"
   transform="scale(1,-1)" />
<rect
   style="fill:#ffffff;fill-rule:evenodd;stroke-width:3;stroke-linecap:round;stroke-linejoin:round"
   id="rect867"
   width="9"
   height="1"
   x="5"
   y="-3"
   transform="scale(1,-1)" />
<rect
   style="fill:#232629;fill-rule:evenodd;stroke-width:3;stroke-linecap:round;stroke-linejoin:round"
   id="rect869"
   width="9"
   height="1"
   x="5"
   y="-2"
   transform="scale(1,-1)" />
<rect
   style="fill:#00ffff;fill-rule:evenodd;stroke-width:3;stroke-linecap:round;stroke-linejoin:round"
   id="rect873"
   width="3"
   height="1"
   x="1"
   y="1" />
<rect
   style="fill:#00ffff;fill-rule:evenodd;stroke-width:3;stroke-linecap:round;stroke-linejoin:round"
   id="rect875"
   width="3"
   height="1"
   x="1"
   y="4" />
<g
   id="g886">
  <circle
     style="fill:#ffffff;fill-opacity:1;fill-rule:evenodd;stroke:none;stroke-width:2;stroke-linecap:round;stroke-linejoin:round;stroke-miterlimit:4;stroke-dasharray:none;stroke-opacity:1"
     id="path1328"
     cx="11.5"
     cy="11.5"
     r="1.5" />
  <path
     d="m 9.3111344,7.791575 c -0.13058,0.05409 -0.188804,0.19465 -0.134715,0.325232 l 0.272166,0.657066 c -0.260199,0.195351 -0.471578,0.424352 -0.66202,0.678364 L 8.1128724,9.173184 c -0.130581,-0.05409 -0.274445,0.0055 -0.328533,0.136083 l -0.461881,1.115078 c -0.05409,0.130582 0.0055,0.274445 0.136083,0.328534 l 0.673693,0.279053 c -0.04495,0.314275 -0.05741,0.62567 -0.01156,0.947793 l -0.657066,0.272166 c -0.130581,0.05409 -0.188804,0.19465 -0.134715,0.325232 l 0.462682,1.117013 c 0.05409,0.130581 0.19465,0.188803 0.325231,0.134715 l 0.657067,-0.272166 c 0.195351,0.260198 0.424352,0.471578 0.678363,0.66202 l -0.279053,0.673693 c -0.05409,0.130583 0.0055,0.274445 0.136083,0.328533 l 1.1150786,0.461881 c 0.130582,0.05409 0.274445,-0.0055 0.328533,-0.136083 l 0.279053,-0.673693 c 0.314276,0.04495 0.625672,0.05741 0.947794,0.01156 l 0.272166,0.657067 c 0.05409,0.130582 0.19465,0.188803 0.325231,0.134715 l 1.117013,-0.462682 c 0.130582,-0.05409 0.188804,-0.19465 0.134716,-0.325231 l -0.272166,-0.657067 c 0.260198,-0.19535 0.471577,-0.424351 0.662019,-0.678363 l 0.673694,0.279053 c 0.130583,0.05409 0.274445,-0.0055 0.328533,-0.136083 l 0.461881,-1.115079 c 0.05409,-0.130583 -0.0055,-0.274445 -0.136083,-0.328533 L 14.873035,11.97334 c 0.04495,-0.314276 0.05741,-0.625672 0.01156,-0.947794 l 0.657066,-0.272166 c 0.130582,-0.05409 0.188804,-0.194649 0.134716,-0.325231 L 15.213692,9.311132 C 15.159602,9.18055 15.019042,9.122328 14.88846,9.176417 L 14.231394,9.448582 C 14.036043,9.188383 13.807042,8.977005 13.553031,8.786563 l 0.279053,-0.673694 c 0.05409,-0.130582 -0.0055,-0.274445 -0.136083,-0.328533 L 12.580922,7.322455 c -0.130583,-0.05409 -0.274445,0.0055 -0.328534,0.136083 L 11.973335,8.132232 C 11.65906,8.087282 11.347664,8.074822 11.025542,8.120672 L 10.753376,7.463606 C 10.699286,7.333024 10.558726,7.274802 10.428144,7.32889 Z m 1.7560366,2.659752 c 0.580321,-0.240377 1.246395,0.03552 1.486772,0.615841 0.240377,0.580322 -0.03552,1.246395 -0.615841,1.486772 -0.580321,0.240377 -1.246395,-0.03552 -1.486772,-0.615841 -0.240377,-0.580321 0.03552,-1.246395 0.615841,-1.486772 z"
     display="block"
     fill="url(#d)"
     stroke="url(#e)"
     stroke-linejoin="round"
     stroke-width="0.6"
     id="path42"
     style="fill:#d3d3d3;fill-opacity:1;stroke:#4d4d4d;stroke-opacity:1" />
</g>
</svg>
