<?xml version="1.0" encoding="UTF-8" standalone="no"?>
<svg
   xmlns:dc="http://purl.org/dc/elements/1.1/"
   xmlns:cc="http://creativecommons.org/ns#"
   xmlns:rdf="http://www.w3.org/1999/02/22-rdf-syntax-ns#"
   xmlns:svg="http://www.w3.org/2000/svg"
   xmlns="http://www.w3.org/2000/svg"
   xmlns:sodipodi="http://sodipodi.sourceforge.net/DTD/sodipodi-0.dtd"
   xmlns:inkscape="http://www.inkscape.org/namespaces/inkscape"
   viewBox="0 0 16 16"
   version="1.1"
   id="svg6"
   sodipodi:docname="sc_presentationdialog.svg"
   inkscape:version="1.0.1 (3bc2e813f5, 2020-09-07)"
   inkscape:export-filename="/home/jupiter007/Libreoffice yaru theme fullcolor/build/cmd/sc_presentationdialog.png"
   inkscape:export-xdpi="96"
   inkscape:export-ydpi="96"><metadata
   id="metadata12">
  <rdf:RDF>
    <cc:Work
       rdf:about="">
      <dc:format>image/svg+xml</dc:format>
      <dc:type
         rdf:resource="http://purl.org/dc/dcmitype/StillImage" />
    </cc:Work>
  </rdf:RDF>
</metadata>
<defs
   id="defs10" />
<sodipodi:namedview
   pagecolor="#ffffff"
   bordercolor="#666666"
   borderopacity="1"
   objecttolerance="10"
   gridtolerance="10"
   guidetolerance="10"
   inkscape:pageopacity="0"
   inkscape:pageshadow="2"
   inkscape:window-width="1920"
   inkscape:window-height="1011"
   id="namedview8"
   showgrid="true"
   inkscape:zoom="32"
   inkscape:cx="9.4055944"
   inkscape:cy="6.2273735"
   inkscape:window-x="1920"
   inkscape:window-y="32"
   inkscape:window-maximized="1"
   inkscape:current-layer="svg6"
   inkscape:document-rotation="0">
  <inkscape:grid
     type="xygrid"
     id="grid833" />
</sodipodi:namedview>


/&amp;gt;<path
   id="path873"
   style="color:#000000;font-style:normal;font-variant:normal;font-weight:normal;font-stretch:normal;font-size:medium;line-height:normal;font-family:sans-serif;font-variant-ligatures:normal;font-variant-position:normal;font-variant-caps:normal;font-variant-numeric:normal;font-variant-alternates:normal;font-variant-east-asian:normal;font-feature-settings:normal;font-variation-settings:normal;text-indent:0;text-align:start;text-decoration:none;text-decoration-line:none;text-decoration-style:solid;text-decoration-color:#000000;letter-spacing:normal;word-spacing:normal;text-transform:none;writing-mode:lr-tb;direction:ltr;text-orientation:mixed;dominant-baseline:auto;baseline-shift:baseline;text-anchor:start;white-space:normal;shape-padding:0;shape-margin:0;inline-size:0;clip-rule:nonzero;display:inline;overflow:visible;visibility:visible;isolation:auto;mix-blend-mode:normal;color-interpolation:sRGB;color-interpolation-filters:linearRGB;solid-color:#000000;solid-opacity:1;vector-effect:none;fill:#000000;fill-opacity:1;fill-rule:evenodd;stroke:none;stroke-width:2;stroke-linecap:butt;stroke-linejoin:round;stroke-miterlimit:4;stroke-dasharray:none;stroke-dashoffset:0;stroke-opacity:1;color-rendering:auto;image-rendering:auto;shape-rendering:auto;text-rendering:auto;enable-background:accumulate;stop-color:#000000;stop-opacity:1;opacity:0.7"
   d="M 2 1 A 1.0001 1.0001 0 0 0 1 2 L 1 9 C 1 10.644703 2.3552972 12 4 12 L 6.1796875 12 C 6.263672 11.826073 6.3679298 11.658619 6.5058594 11.511719 C 6.1188544 11.09891 5.9048055 10.562703 6.1054688 10 L 4 10 C 3.4287028 10 3 9.5712972 3 9 L 3 3 L 13 3 L 13 6.1074219 C 13.025872 6.1166422 13.052412 6.1202088 13.078125 6.1308594 L 14.193359 6.59375 C 14.686647 6.798073 14.92268 7.2284971 15 7.7089844 L 15 2 A 1.0001 1.0001 0 0 0 14 1 L 2 1 z M 11.441406 11.363281 C 11.378466 11.389351 11.327966 11.512539 11.353516 11.574219 C 11.379588 11.637159 11.502763 11.687659 11.564453 11.662109 C 11.627393 11.636037 11.677894 11.512852 11.652344 11.451172 C 11.626272 11.388232 11.503086 11.337731 11.441406 11.363281 z " />
<rect
   style="opacity:1;fill:#6d6d6d;fill-opacity:1;fill-rule:evenodd;stroke:none;stroke-width:2;stroke-linecap:butt;stroke-linejoin:round;stroke-miterlimit:4;stroke-dasharray:none;stroke-opacity:1"
   id="rect819"
   width="16"
   height="2"
   x="0"
   y="0" />
<path
   id="rect821"
   style="opacity:1;fill:#ffffff;fill-opacity:1;fill-rule:evenodd;stroke:none;stroke-width:2;stroke-linecap:butt;stroke-linejoin:round;stroke-miterlimit:4;stroke-dasharray:none;stroke-opacity:1"
   d="M 2 2 L 2 9 C 2 10.108 2.892 11 4 11 L 6.1679688 11 C 6.0156601 10.673214 5.9653946 10.311438 6.1210938 9.9355469 A 1.0001 1.0001 0 0 0 6.1210938 9.9335938 L 6.5839844 8.8222656 C 6.8263654 8.2371006 7.38211 7.9986456 7.96875 7.9785156 C 7.987975 7.3933206 8.2252721 6.8436563 8.8144531 6.5996094 L 9.9296875 6.1367188 C 10.520975 5.8917999 11.075635 6.1150728 11.501953 6.515625 C 11.637395 6.3886503 11.720151 6.194877 11.888672 6.125 C 12.253658 5.9736576 12.676855 5.9646514 13.078125 6.1308594 L 14 6.5136719 L 14 2 L 2 2 z " />
<path
   id="path828"
   style="opacity:1;fill:#46a926;fill-opacity:1;fill-rule:evenodd;stroke:none;stroke-width:2;stroke-linecap:butt;stroke-linejoin:round;stroke-miterlimit:4;stroke-dasharray:none;stroke-opacity:1"
   d="M 10.480469 4 A 2.5 2.5 0 0 0 8.1894531 5.5429688 A 2.5 2.5 0 0 0 8.1289062 7.2890625 C 8.259857 6.993603 8.4718712 6.7415115 8.8144531 6.5996094 L 9.9296875 6.1367188 C 10.125861 6.0554611 10.315239 6.0415447 10.5 6.0527344 L 10.5 4 A 2.5 2.5 0 0 0 10.480469 4 z M 11.482422 6.5 C 11.488667 6.5057412 11.495762 6.5098081 11.501953 6.515625 C 11.506945 6.5109455 11.51077 6.5048514 11.515625 6.5 L 11.482422 6.5 z " />
<rect
   style="opacity:1;fill:#1a7fd4;fill-opacity:1;fill-rule:evenodd;stroke:none;stroke-width:2.3094;stroke-linecap:butt;stroke-linejoin:round;stroke-miterlimit:4;stroke-dasharray:none;stroke-opacity:1"
   id="rect830"
   width="4"
   height="1"
   x="3"
   y="4" />
<rect
   style="opacity:1;fill:#c7162b;fill-opacity:1;fill-rule:evenodd;stroke:none;stroke-width:2.3094;stroke-linecap:butt;stroke-linejoin:round;stroke-miterlimit:4;stroke-dasharray:none;stroke-opacity:1"
   id="rect832"
   width="4"
   height="1"
   x="3"
   y="6" />
<path
   id="rect834"
   style="opacity:1;fill:#46a926;fill-opacity:1;fill-rule:evenodd;stroke:none;stroke-width:2.3094;stroke-linecap:butt;stroke-linejoin:round;stroke-miterlimit:4;stroke-dasharray:none;stroke-opacity:1"
   d="M 3 8 L 3 9 L 6.5097656 9 L 6.5839844 8.8222656 C 6.6780111 8.5952629 6.8281477 8.434833 7 8.3046875 L 7 8 L 3 8 z " />
<path
   id="path836"
   style="opacity:1;fill:#c7162b;fill-opacity:1;fill-rule:evenodd;stroke:none;stroke-width:2;stroke-linecap:butt;stroke-linejoin:round;stroke-miterlimit:4;stroke-dasharray:none;stroke-opacity:1"
   d="M 10.5 4 L 10.5 6.0527344 C 10.86404 6.0747817 11.201312 6.2415634 11.482422 6.5 L 11.515625 6.5 C 11.642516 6.3732121 11.726361 6.1923018 11.888672 6.125 C 12.21981 5.9876929 12.597723 5.9760901 12.964844 6.0976562 A 2.5 2.5 0 0 0 10.5 4 z " />
<g
   id="g1425">
  <circle
     style="fill:#ffffff;fill-opacity:1;fill-rule:evenodd;stroke:none;stroke-width:2;stroke-linecap:round;stroke-linejoin:round;stroke-miterlimit:4;stroke-dasharray:none;stroke-opacity:1"
     id="path1328"
     cx="11.5"
     cy="11.5"
     r="1.5" />
  <path
     d="m 9.3111344,7.791575 c -0.13058,0.05409 -0.188804,0.19465 -0.134715,0.325232 l 0.272166,0.657066 c -0.260199,0.195351 -0.471578,0.424352 -0.66202,0.678364 L 8.1128724,9.173184 c -0.130581,-0.05409 -0.274445,0.0055 -0.328533,0.136083 l -0.461881,1.115078 c -0.05409,0.130582 0.0055,0.274445 0.136083,0.328534 l 0.673693,0.279053 c -0.04495,0.314275 -0.05741,0.62567 -0.01156,0.947793 l -0.657066,0.272166 c -0.130581,0.05409 -0.188804,0.19465 -0.134715,0.325232 l 0.462682,1.117013 c 0.05409,0.130581 0.19465,0.188803 0.325231,0.134715 l 0.657067,-0.272166 c 0.195351,0.260198 0.424352,0.471578 0.678363,0.66202 l -0.279053,0.673693 c -0.05409,0.130583 0.0055,0.274445 0.136083,0.328533 l 1.1150786,0.461881 c 0.130582,0.05409 0.274445,-0.0055 0.328533,-0.136083 l 0.279053,-0.673693 c 0.314276,0.04495 0.625672,0.05741 0.947794,0.01156 l 0.272166,0.657067 c 0.05409,0.130582 0.19465,0.188803 0.325231,0.134715 l 1.117013,-0.462682 c 0.130582,-0.05409 0.188804,-0.19465 0.134716,-0.325231 l -0.272166,-0.657067 c 0.260198,-0.19535 0.471577,-0.424351 0.662019,-0.678363 l 0.673694,0.279053 c 0.130583,0.05409 0.274445,-0.0055 0.328533,-0.136083 l 0.461881,-1.115079 c 0.05409,-0.130583 -0.0055,-0.274445 -0.136083,-0.328533 L 14.873035,11.97334 c 0.04495,-0.314276 0.05741,-0.625672 0.01156,-0.947794 l 0.657066,-0.272166 c 0.130582,-0.05409 0.188804,-0.194649 0.134716,-0.325231 L 15.213692,9.311132 C 15.159602,9.18055 15.019042,9.122328 14.88846,9.176417 L 14.231394,9.448582 C 14.036043,9.188383 13.807042,8.977005 13.553031,8.786563 l 0.279053,-0.673694 c 0.05409,-0.130582 -0.0055,-0.274445 -0.136083,-0.328533 L 12.580922,7.322455 c -0.130583,-0.05409 -0.274445,0.0055 -0.328534,0.136083 L 11.973335,8.132232 C 11.65906,8.087282 11.347664,8.074822 11.025542,8.120672 L 10.753376,7.463606 C 10.699286,7.333024 10.558726,7.274802 10.428144,7.32889 Z m 1.7560366,2.659752 c 0.580321,-0.240377 1.246395,0.03552 1.486772,0.615841 0.240377,0.580322 -0.03552,1.246395 -0.615841,1.486772 -0.580321,0.240377 -1.246395,-0.03552 -1.486772,-0.615841 -0.240377,-0.580321 0.03552,-1.246395 0.615841,-1.486772 z"
     display="block"
     fill="url(#d)"
     stroke="url(#e)"
     stroke-linejoin="round"
     stroke-width="0.6"
     id="path42"
     style="fill:#d3d3d3;fill-opacity:1;stroke:#4d4d4d;stroke-opacity:1" />
</g>
</svg>
