<?xml version="1.0" encoding="UTF-8" standalone="no"?>
<svg
   viewBox="0 0 16 16"
   version="1.1"
   id="svg4"
   sodipodi:docname="sc_pastetransposed.svg"
   inkscape:version="1.4.4 (dcaf3e7d9e, 2026-05-05)"
   inkscape:export-filename="/home/jupiter007/Libreoffice yaru theme fullcolor/build/cmd/sc_pastespecial.png"
   inkscape:export-xdpi="95"
   inkscape:export-ydpi="95"
   xmlns:inkscape="http://www.inkscape.org/namespaces/inkscape"
   xmlns:sodipodi="http://sodipodi.sourceforge.net/DTD/sodipodi-0.dtd"
   xmlns="http://www.w3.org/2000/svg"
   xmlns:svg="http://www.w3.org/2000/svg"
   xmlns:rdf="http://www.w3.org/1999/02/22-rdf-syntax-ns#"
   xmlns:cc="http://creativecommons.org/ns#"
   xmlns:dc="http://purl.org/dc/elements/1.1/">
  <metadata
     id="metadata10">
    <rdf:RDF>
      <cc:Work
         rdf:about="">
        <dc:format>image/svg+xml</dc:format>
        <dc:type
           rdf:resource="http://purl.org/dc/dcmitype/StillImage" />
      </cc:Work>
    </rdf:RDF>
  </metadata>
  <defs
     id="defs8" />
  <sodipodi:namedview
     pagecolor="#ffffff"
     bordercolor="#666666"
     borderopacity="1"
     objecttolerance="10"
     gridtolerance="10"
     guidetolerance="10"
     inkscape:pageopacity="0"
     inkscape:pageshadow="2"
     inkscape:window-width="1920"
     inkscape:window-height="1043"
     id="namedview6"
     showgrid="true"
     inkscape:zoom="14.75"
     inkscape:cx="0.33898305"
     inkscape:cy="1.2542373"
     inkscape:window-x="0"
     inkscape:window-y="0"
     inkscape:window-maximized="1"
     inkscape:current-layer="svg4"
     inkscape:document-rotation="0"
     inkscape:showpageshadow="2"
     inkscape:pagecheckerboard="0"
     inkscape:deskcolor="#d1d1d1">
    <inkscape:grid
       type="xygrid"
       id="grid1407"
       originx="0"
       originy="0"
       spacingy="1"
       spacingx="1"
       units="px" />
  </sodipodi:namedview>
  <path
     inkscape:connector-curvature="0"
     style="opacity:0.8;vector-effect:none;fill:#0000ff;fill-opacity:1;stroke:none;stroke-width:2;stroke-linecap:round;stroke-linejoin:round;stroke-miterlimit:4;stroke-dasharray:none;stroke-dashoffset:0;stroke-opacity:1"
     d="m 7.0000001,1.0000001 c -0.554,0 -1,0.446 -1,1 h -2 c -1.1080002,0 -2.0000002,0.8920005 -2.0000002,2.0000005 V 13 c 0,1.108 0.892,2 2.0000002,2 h 3 H 12 c 1.106228,0 2,-0.889291 2,-2 v -7.0000004 -2 C 14,2.8920006 13.108,2.0000001 12,2.0000001 H 10 C 10,1.446 9.5540001,1 9.0000001,1 Z"
     id="rect9566"
     sodipodi:nodetypes="scssssccccsscss" />
  <rect
     style="vector-effect:none;fill:#ffff00;fill-opacity:1;stroke:none;stroke-width:2;stroke-linecap:round;stroke-linejoin:round;stroke-miterlimit:4;stroke-dasharray:none;stroke-dashoffset:0;stroke-opacity:1"
     id="rect873-1"
     width="10"
     height="11"
     x="3"
     y="2.9999998"
     ry="1"
     rx="1" />
  <rect
     style="vector-effect:none;fill:#ffff00;fill-opacity:1;stroke:none;stroke-width:2;stroke-linecap:round;stroke-linejoin:round;stroke-miterlimit:4;stroke-dasharray:none;stroke-dashoffset:0;stroke-opacity:1"
     id="rect9578"
     width="2"
     height="1"
     x="7"
     y="1.9999996" />
  <rect
     style="opacity:0.5;vector-effect:none;fill:#0000ff;fill-opacity:1;stroke:none;stroke-width:2;stroke-linecap:round;stroke-linejoin:round;stroke-miterlimit:4;stroke-dasharray:none;stroke-dashoffset:0;stroke-opacity:1"
     id="rect1"
     width="10"
     height="11"
     x="3"
     y="2.9999998"
     ry="1"
     rx="1" />
  <rect
     style="fill:#ffff00;fill-rule:evenodd;stroke:none;stroke-width:3;stroke-linecap:round;stroke-linejoin:round"
     id="rect839"
     width="4"
     height="1"
     x="6"
     y="2.9999998" />
  <path
     id="rect1409"
     style="opacity:1;fill:#00ffff;fill-rule:evenodd;stroke-linecap:square;fill-opacity:1"
     d="M 7 5 L 7 6 L 4 6 L 4 13 L 7 13 L 7 8 L 12 8 L 12 5 L 7 5 z M 8 6 L 9 6 L 9 7 L 8 7 L 8 6 z M 10 6 L 11 6 L 11 7 L 10 7 L 10 6 z M 5 7 L 6 7 L 6 8 L 5 8 L 5 7 z M 5 9 L 6 9 L 6 10 L 5 10 L 5 9 z M 5 11 L 6 11 L 6 12 L 5 12 L 5 11 z " />
</svg>
