<?xml version="1.0" encoding="UTF-8" standalone="no"?>
<svg
   xmlns:dc="http://purl.org/dc/elements/1.1/"
   xmlns:cc="http://creativecommons.org/ns#"
   xmlns:rdf="http://www.w3.org/1999/02/22-rdf-syntax-ns#"
   xmlns:svg="http://www.w3.org/2000/svg"
   xmlns="http://www.w3.org/2000/svg"
   xmlns:xlink="http://www.w3.org/1999/xlink"
   xmlns:sodipodi="http://sodipodi.sourceforge.net/DTD/sodipodi-0.dtd"
   xmlns:inkscape="http://www.inkscape.org/namespaces/inkscape"
   viewBox="0 0 16 16"
   version="1.1"
   id="svg4"
   sodipodi:docname="sc_quotecharstyle.svg"
   inkscape:version="1.0.1 (3bc2e813f5, 2020-09-07)"
   inkscape:export-filename="/home/jupiter007/Libreoffice yaru theme fullcolor/build/cmd/sc_quotecharstyle.png"
   inkscape:export-xdpi="96"
   inkscape:export-ydpi="96">
  <metadata
     id="metadata10">
    <rdf:RDF>
      <cc:Work
         rdf:about="">
        <dc:format>image/svg+xml</dc:format>
        <dc:type
           rdf:resource="http://purl.org/dc/dcmitype/StillImage" />
        <dc:title></dc:title>
      </cc:Work>
    </rdf:RDF>
  </metadata>
  <defs
     id="defs8">
    <linearGradient
       inkscape:collect="always"
       id="linearGradient836">
      <stop
         style="stop-color:#151515;stop-opacity:1"
         offset="0"
         id="stop832" />
      <stop
         style="stop-color:#4d4d4d;stop-opacity:1"
         offset="1"
         id="stop834" />
    </linearGradient>
    <linearGradient
       inkscape:collect="always"
       xlink:href="#linearGradient836"
       id="linearGradient838"
       x1="9"
       y1="2"
       x2="9"
       y2="14"
       gradientUnits="userSpaceOnUse" />
  </defs>
  <sodipodi:namedview
     pagecolor="#ffffff"
     bordercolor="#666666"
     borderopacity="1"
     objecttolerance="10"
     gridtolerance="10"
     guidetolerance="10"
     inkscape:pageopacity="0"
     inkscape:pageshadow="2"
     inkscape:window-width="1920"
     inkscape:window-height="1016"
     id="namedview6"
     showgrid="true"
     inkscape:zoom="41.7193"
     inkscape:cx="4.2751577"
     inkscape:cy="6.329417"
     inkscape:window-x="0"
     inkscape:window-y="27"
     inkscape:window-maximized="1"
     inkscape:current-layer="svg4"
     inkscape:document-rotation="0">
    <inkscape:grid
       type="xygrid"
       id="grid817" />
  </sodipodi:namedview>
  <path
     id="path828"
     d="M 8 2 A 4.403021 5.1101278 24.006394 0 0 3 7 A 4.403021 5.1101278 24.006394 0 0 7 12 A 4.403021 5.1101278 24.006394 0 0 7.6308594 11.945312 L 9 14 L 11 14 L 9.2460938 11.371094 A 4.403021 5.1101278 24.006394 0 0 12 7 A 4.403021 5.1101278 24.006394 0 0 8 2 z M 7.8007812 4 A 2.4625403 3.0456355 17.042943 0 1 10 7 A 2.4625403 3.0456355 17.042943 0 1 7.1992188 10 A 2.4625403 3.0456355 17.042943 0 1 5 7 A 2.4625403 3.0456355 17.042943 0 1 7.8007812 4 z "
     style="opacity:1;fill:#000000;fill-opacity:1;fill-rule:evenodd;stroke:#ffffff;stroke-width:2;stroke-linecap:butt;stroke-linejoin:round;stroke-miterlimit:4;stroke-dasharray:none;stroke-opacity:1" />
  <path
     style="opacity:1;fill:url(#linearGradient838);fill-opacity:1;fill-rule:evenodd;stroke:none;stroke-width:2;stroke-linecap:butt;stroke-linejoin:round;stroke-miterlimit:4;stroke-dasharray:none;stroke-opacity:1"
     d="M 8 2 A 4.403021 5.1101278 24.006394 0 0 3 7 A 4.403021 5.1101278 24.006394 0 0 7 12 A 4.403021 5.1101278 24.006394 0 0 7.6308594 11.945312 L 9 14 L 11 14 L 9.2460938 11.371094 A 4.403021 5.1101278 24.006394 0 0 12 7 A 4.403021 5.1101278 24.006394 0 0 8 2 z M 7.8007812 4 A 2.4625403 3.0456355 17.042943 0 1 10 7 A 2.4625403 3.0456355 17.042943 0 1 7.1992188 10 A 2.4625403 3.0456355 17.042943 0 1 5 7 A 2.4625403 3.0456355 17.042943 0 1 7.8007812 4 z "
     id="path819" />
</svg>
