<?xml version="1.0" encoding="UTF-8" standalone="no"?>
<svg
   viewBox="0 0 16 16"
   version="1.1"
   id="svg6"
   sodipodi:docname="sc_romanlowliststyle.svg"
   inkscape:version="1.4.2 (ebf0e940d0, 2025-05-08)"
   inkscape:export-filename="/home/jupiter007/Libreoffice yaru theme fullcolor/build/cmd/sc_romanlowliststyle.png"
   inkscape:export-xdpi="96"
   inkscape:export-ydpi="96"
   xmlns:inkscape="http://www.inkscape.org/namespaces/inkscape"
   xmlns:sodipodi="http://sodipodi.sourceforge.net/DTD/sodipodi-0.dtd"
   xmlns="http://www.w3.org/2000/svg"
   xmlns:svg="http://www.w3.org/2000/svg"
   xmlns:rdf="http://www.w3.org/1999/02/22-rdf-syntax-ns#"
   xmlns:cc="http://creativecommons.org/ns#"
   xmlns:dc="http://purl.org/dc/elements/1.1/">
  <metadata
     id="metadata12">
    <rdf:RDF>
      <cc:Work
         rdf:about="">
        <dc:format>image/svg+xml</dc:format>
        <dc:type
           rdf:resource="http://purl.org/dc/dcmitype/StillImage" />
        <dc:title />
      </cc:Work>
    </rdf:RDF>
  </metadata>
  <defs
     id="defs10" />
  <sodipodi:namedview
     pagecolor="#ffffff"
     bordercolor="#666666"
     borderopacity="1"
     objecttolerance="10"
     gridtolerance="10"
     guidetolerance="10"
     inkscape:pageopacity="0"
     inkscape:pageshadow="2"
     inkscape:window-width="1920"
     inkscape:window-height="1011"
     id="namedview8"
     showgrid="true"
     inkscape:zoom="41.7193"
     inkscape:cx="7.9699324"
     inkscape:cy="6.8433555"
     inkscape:window-x="0"
     inkscape:window-y="0"
     inkscape:window-maximized="1"
     inkscape:current-layer="svg6"
     inkscape:document-rotation="0"
     inkscape:showpageshadow="2"
     inkscape:pagecheckerboard="0"
     inkscape:deskcolor="#d1d1d1">
    <inkscape:grid
       type="xygrid"
       id="grid822"
       originx="0"
       originy="0"
       spacingy="1"
       spacingx="1"
       units="px" />
  </sodipodi:namedview>
  <path
     id="rect903"
     style="fill:#00ff00;fill-opacity:1;fill-rule:evenodd;stroke-width:3.00001;stroke-linecap:round;stroke-linejoin:round"
     d="M 3 2 L 3 5 L 4 5 L 4 2 L 3 2 z M 1 9 L 1 12 L 2 12 L 2 9 L 1 9 z M 3 9 L 3 12 L 4 12 L 4 9 L 3 9 z " />
  <path
     id="rect837"
     style="fill:#0000ff;fill-rule:evenodd;stroke-width:3;stroke-linecap:round;stroke-linejoin:round"
     d="M 6 -2 L 6 -3 L 15 -3 L 15 -2 L 6 -2 z M 6 -4 L 6 -5 L 11 -5 L 11 -4 L 6 -4 z M 6 -6 L 6 -7 L 13 -7 L 13 -6 L 6 -6 z M 6 -9 L 6 -10 L 15 -10 L 15 -9 L 6 -9 z M 6 -11 L 6 -12 L 11 -12 L 11 -11 L 6 -11 z M 6 -13 L 6 -14 L 13 -14 L 13 -13 L 6 -13 z "
     transform="scale(1,-1)" />
</svg>
