<?xml version="1.0" encoding="UTF-8" standalone="no"?>
<svg
   xmlns:dc="http://purl.org/dc/elements/1.1/"
   xmlns:cc="http://creativecommons.org/ns#"
   xmlns:rdf="http://www.w3.org/1999/02/22-rdf-syntax-ns#"
   xmlns:svg="http://www.w3.org/2000/svg"
   xmlns="http://www.w3.org/2000/svg"
   xmlns:xlink="http://www.w3.org/1999/xlink"
   xmlns:sodipodi="http://sodipodi.sourceforge.net/DTD/sodipodi-0.dtd"
   xmlns:inkscape="http://www.inkscape.org/namespaces/inkscape"
   viewBox="0 0 16 16"
   version="1.1"
   id="svg4"
   sodipodi:docname="sc_strikeout.svg"
   inkscape:export-filename="/home/jupiter007/Libreoffice yaru theme fullcolor/build/cmd/sc_strikeout.png"
   inkscape:export-xdpi="96"
   inkscape:export-ydpi="96"
   inkscape:version="1.0.1 (3bc2e813f5, 2020-09-07)"><metadata
   id="metadata10">
  <rdf:RDF>
    <cc:Work
       rdf:about="">
      <dc:format>image/svg+xml</dc:format>
      <dc:type
         rdf:resource="http://purl.org/dc/dcmitype/StillImage" />
      <dc:title></dc:title>
    </cc:Work>
  </rdf:RDF>
</metadata>
<defs
   id="defs8">
  <linearGradient
     inkscape:collect="always"
     xlink:href="#linearGradient835"
     id="linearGradient837"
     x1="8"
     y1="2"
     x2="8"
     y2="14"
     gradientUnits="userSpaceOnUse" />
  <linearGradient
     inkscape:collect="always"
     id="linearGradient835">
    <stop
       style="stop-color:#151515;stop-opacity:1"
       offset="0"
       id="stop831" />
    <stop
       style="stop-color:#4d4d4d;stop-opacity:1"
       offset="1"
       id="stop833" />
  </linearGradient>
  <linearGradient
     inkscape:collect="always"
     xlink:href="#linearGradient835"
     id="linearGradient878"
     x1="8"
     y1="2"
     x2="8"
     y2="14"
     gradientUnits="userSpaceOnUse" />
</defs>
<sodipodi:namedview
   pagecolor="#ffffff"
   bordercolor="#666666"
   borderopacity="1"
   objecttolerance="10"
   gridtolerance="10"
   guidetolerance="10"
   inkscape:pageopacity="0"
   inkscape:pageshadow="2"
   inkscape:window-width="1920"
   inkscape:window-height="1043"
   id="namedview6"
   showgrid="true"
   inkscape:zoom="29.5"
   inkscape:cx="2.8925545"
   inkscape:cy="4.4114682"
   inkscape:window-x="1920"
   inkscape:window-y="0"
   inkscape:window-maximized="1"
   inkscape:current-layer="svg4"
   inkscape:document-rotation="0">
  <inkscape:grid
     type="xygrid"
     id="grid828" />
</sodipodi:namedview>



/&gt;<path
   d="M 8.2988281,2 C 7.0004721,2 5.9809074,2.2959004 5.2421875,2.8867188 4.509064,3.4775371 4.1425781,4.2896642 4.1425781,5.3222656 c 0,0.5482368 0.1120831,1.0257004 0.3359375,1.4355474 0.2238546,0.409846 0.5234813,0.769409 0.8984375,1.078125 0.3749564,0.308715 0.9375875,0.631467 1.6875,0.966796 0.8002799,0.361943 1.328505,0.626013 1.5859375,0.791016 0.2630291,0.165003 0.4613905,0.336607 0.5957032,0.517578 0.1343128,0.175649 0.2011718,0.378547 0.2011718,0.607422 0,0.409847 -0.1531375,0.718197 -0.4609375,0.925781 -0.3022035,0.207586 -0.7377647,0.3125 -1.3085937,0.3125 -0.4756908,0 -1.0016997,-0.07308 -1.578125,-0.216797 C 5.5287804,11.596522 4.8282617,11.349345 4,10.998047 v 2.298828 C 5.0073453,13.765272 6.1650605,14 7.4746094,14 8.8960855,14 10.004145,13.69663 10.798828,13.089844 11.599108,12.483058 12,11.653502 12,10.599609 12,9.838465 11.786651,9.195452 11.361328,8.673828 10.936004,8.146882 10.15116,7.623186 9.0039063,7.101563 8.1364701,6.707684 7.5846566,6.436145 7.3496094,6.287109 7.1201585,6.132751 6.9520341,5.9760869 6.8457031,5.8164062 6.7393723,5.6514029 6.6855469,5.4604177 6.6855469,5.2421875 c 0,-0.3512974 0.1315022,-0.6372385 0.3945312,-0.8554687 0.2630291,-0.2182302 0.6422858,-0.3261719 1.1347657,-0.3261719 0.4141309,0 0.8324889,0.049259 1.2578125,0.1503906 0.4309197,0.101131 0.9741317,0.2796673 1.6289057,0.5351563 L 11.941406,2.8222656 C 11.309018,2.5614539 10.701163,2.3585563 10.119141,2.2148438 9.5427157,2.0711312 8.9368136,2 8.2988281,2 Z"
   fill="#232629"
   id="path841"
   style="fill:#ffffff;fill-opacity:1;stroke:#ffffff;stroke-width:2;stroke-linejoin:round" />
<path
   d="M 8.2988281,2 C 7.0004721,2 5.9809074,2.2959004 5.2421875,2.8867188 4.509064,3.4775371 4.1425781,4.2896642 4.1425781,5.3222656 c 0,0.5482368 0.1120831,1.0257004 0.3359375,1.4355474 0.2238546,0.409846 0.5234813,0.769409 0.8984375,1.078125 0.3749564,0.308715 0.9375875,0.631467 1.6875,0.966796 0.8002799,0.361943 1.328505,0.626013 1.5859375,0.791016 0.2630291,0.165003 0.4613905,0.336607 0.5957032,0.517578 0.1343128,0.175649 0.2011718,0.378547 0.2011718,0.607422 0,0.409847 -0.1531375,0.718197 -0.4609375,0.925781 -0.3022035,0.207586 -0.7377647,0.3125 -1.3085937,0.3125 -0.4756908,0 -1.0016997,-0.07308 -1.578125,-0.216797 C 5.5287804,11.596522 4.8282617,11.349345 4,10.998047 v 2.298828 C 5.0073453,13.765272 6.1650605,14 7.4746094,14 8.8960855,14 10.004145,13.69663 10.798828,13.089844 11.599108,12.483058 12,11.653502 12,10.599609 12,9.838465 11.786651,9.195452 11.361328,8.673828 10.936004,8.146882 10.15116,7.623186 9.0039063,7.101563 8.1364701,6.707684 7.5846566,6.436145 7.3496094,6.287109 7.1201585,6.132751 6.9520341,5.9760869 6.8457031,5.8164062 6.7393723,5.6514029 6.6855469,5.4604177 6.6855469,5.2421875 c 0,-0.3512974 0.1315022,-0.6372385 0.3945312,-0.8554687 0.2630291,-0.2182302 0.6422858,-0.3261719 1.1347657,-0.3261719 0.4141309,0 0.8324889,0.049259 1.2578125,0.1503906 0.4309197,0.101131 0.9741317,0.2796673 1.6289057,0.5351563 L 11.941406,2.8222656 C 11.309018,2.5614539 10.701163,2.3585563 10.119141,2.2148438 9.5427157,2.0711312 8.9368136,2 8.2988281,2 Z"
   fill="#232629"
   id="path2"
   style="fill:url(#linearGradient837);fill-opacity:1" />
<rect
   style="fill:#ffffff;fill-rule:evenodd;stroke:#ffffff;stroke-width:2;stroke-linecap:square;stroke-linejoin:round"
   id="rect868"
   width="12"
   height="1"
   x="2"
   y="7" />
<rect
   style="fill:url(#linearGradient878);fill-opacity:1;fill-rule:evenodd;stroke:none;stroke-width:2;stroke-linecap:square;stroke-linejoin:round"
   id="rect870"
   width="12"
   height="1"
   x="2"
   y="7" />
</svg>
