<?xml version="1.0" encoding="UTF-8" standalone="no"?>
<svg
   xmlns:dc="http://purl.org/dc/elements/1.1/"
   xmlns:cc="http://creativecommons.org/ns#"
   xmlns:rdf="http://www.w3.org/1999/02/22-rdf-syntax-ns#"
   xmlns:svg="http://www.w3.org/2000/svg"
   xmlns="http://www.w3.org/2000/svg"
   xmlns:sodipodi="http://sodipodi.sourceforge.net/DTD/sodipodi-0.dtd"
   xmlns:inkscape="http://www.inkscape.org/namespaces/inkscape"
   viewBox="0 0 16 16"
   version="1.1"
   id="svg4"
   sodipodi:docname="sc_snapborder.svg"
   inkscape:version="1.0.1 (3bc2e813f5, 2020-09-07)"
   inkscape:export-filename="/home/jupiter007/Libreoffice yaru theme fullcolor/build/cmd/sc_snapborder.png"
   inkscape:export-xdpi="95"
   inkscape:export-ydpi="95"><metadata
   id="metadata10">
  <rdf:RDF>
    <cc:Work
       rdf:about="">
      <dc:format>image/svg+xml</dc:format>
      <dc:type
         rdf:resource="http://purl.org/dc/dcmitype/StillImage" />
    </cc:Work>
  </rdf:RDF>
</metadata>
<defs
   id="defs8" />
<sodipodi:namedview
   pagecolor="#ffffff"
   bordercolor="#666666"
   borderopacity="1"
   objecttolerance="10"
   gridtolerance="10"
   guidetolerance="10"
   inkscape:pageopacity="0"
   inkscape:pageshadow="2"
   inkscape:window-width="1920"
   inkscape:window-height="1011"
   id="namedview6"
   showgrid="true"
   inkscape:zoom="29.5"
   inkscape:cx="1.6889742"
   inkscape:cy="9.8155288"
   inkscape:window-x="0"
   inkscape:window-y="0"
   inkscape:window-maximized="1"
   inkscape:current-layer="svg4"
   inkscape:document-rotation="0">
  <inkscape:grid
     type="xygrid"
     id="grid823" />
</sodipodi:namedview>





/&gt;<path
   inkscape:connector-curvature="0"
   style="fill:#232629"
   d="M 2,1.9999995 V 14 l 12,0 V 2.0000005 Z m 1,1 10,1e-6 V 13 L 3,13 Z"
   id="path2"
   sodipodi:nodetypes="cccccccccc" />
<path
   inkscape:connector-curvature="0"
   style="fill:#e95420"
   d="M 1,0.9999995 V 15 l 12,0 h 2 V 13 7 1.0000005 Z m 1,1 12,1e-6 V 14 L 2,14 Z"
   id="path4"
   sodipodi:nodetypes="ccccccccccccc" />
<path
   id="rect824"
   style="opacity:1;fill:#ffffff;fill-opacity:1;stroke:none;stroke-width:2;stroke-linecap:round;stroke-linejoin:round;stroke-miterlimit:4;stroke-dasharray:none;stroke-opacity:1"
   d="M 3.0000003,2.9999996 13,3.0000006 v 9.9999984 l -9.9999997,0 z"
   sodipodi:nodetypes="ccccc" />
<path
   sodipodi:nodetypes="cccccccccccccccc"
   style="opacity:0.7;fill:#000000;stroke:#000000;stroke-width:2;stroke-linejoin:round;stroke-miterlimit:4;stroke-dasharray:none"
   inkscape:connector-curvature="0"
   id="path847"
   d="M 12,8 C 11,8 10,8 10,9.5 V 11 H 9 v 4 h 6 V 11 H 14 V 9.5 C 14,8 13,8 12,8 Z m 0,1 c 1,0 1,0.5 1,1 v 1 h -2 v -1 c 0,-0.5 0,-1 1,-1 z" />
<path
   d="M 12,8 C 11,8 10,8 10,9.5 V 11 H 9 v 4 h 6 V 11 H 14 V 9.5 C 14,8 13,8 12,8 Z m 0,1 c 1,0 1,0.5 1,1 v 1 h -2 v -1 c 0,-0.5 0,-1 1,-1 z"
   id="path2-7"
   inkscape:connector-curvature="0"
   style="fill:#fee581;fill-opacity:1"
   sodipodi:nodetypes="cccccccccccccccc" />
</svg>
