<?xml version="1.0" encoding="UTF-8" standalone="no"?>
<svg
   viewBox="0 0 16 16"
   version="1.1"
   id="svg6"
   sodipodi:docname="sc_setoutline.svg"
   inkscape:version="1.4.2 (ebf0e940d0, 2025-05-08)"
   inkscape:export-filename="/home/jupiter007/Libreoffice yaru theme fullcolor/build/cmd/sc_setoutline.png"
   inkscape:export-xdpi="96"
   inkscape:export-ydpi="96"
   xmlns:inkscape="http://www.inkscape.org/namespaces/inkscape"
   xmlns:sodipodi="http://sodipodi.sourceforge.net/DTD/sodipodi-0.dtd"
   xmlns="http://www.w3.org/2000/svg"
   xmlns:svg="http://www.w3.org/2000/svg"
   xmlns:rdf="http://www.w3.org/1999/02/22-rdf-syntax-ns#"
   xmlns:cc="http://creativecommons.org/ns#"
   xmlns:dc="http://purl.org/dc/elements/1.1/">
  <metadata
     id="metadata12">
    <rdf:RDF>
      <cc:Work
         rdf:about="">
        <dc:format>image/svg+xml</dc:format>
        <dc:type
           rdf:resource="http://purl.org/dc/dcmitype/StillImage" />
        <dc:title />
      </cc:Work>
    </rdf:RDF>
  </metadata>
  <defs
     id="defs10" />
  <sodipodi:namedview
     pagecolor="#ffffff"
     bordercolor="#666666"
     borderopacity="1"
     objecttolerance="10"
     gridtolerance="10"
     guidetolerance="10"
     inkscape:pageopacity="0"
     inkscape:pageshadow="2"
     inkscape:window-width="1920"
     inkscape:window-height="1011"
     id="namedview8"
     showgrid="true"
     inkscape:zoom="41.7193"
     inkscape:cx="6.7714463"
     inkscape:cy="9.8395706"
     inkscape:window-x="0"
     inkscape:window-y="0"
     inkscape:window-maximized="1"
     inkscape:current-layer="svg6"
     inkscape:document-rotation="0"
     inkscape:showpageshadow="2"
     inkscape:pagecheckerboard="0"
     inkscape:deskcolor="#d1d1d1">
    <inkscape:grid
       type="xygrid"
       id="grid822"
       originx="0"
       originy="0"
       spacingy="1"
       spacingx="1"
       units="px" />
  </sodipodi:namedview>
  <rect
     style="fill:#00ff00;fill-opacity:1;fill-rule:evenodd;stroke-width:3;stroke-linecap:round;stroke-linejoin:round"
     id="rect903"
     width="3"
     height="3"
     x="5"
     y="9"
     ry="1.5"
     rx="1.5" />
  <path
     id="rect837-8"
     style="fill:#0000ff;fill-rule:evenodd;stroke-width:3;stroke-linecap:round;stroke-linejoin:round"
     d="M 7 -2 L 7 -3 L 16 -3 L 16 -2 L 7 -2 z M 7 -4 L 7 -5 L 12 -5 L 12 -4 L 7 -4 z M 7 -6 L 7 -7 L 14 -7 L 14 -6 L 7 -6 z M 10 -9 L 10 -10 L 16 -10 L 16 -9 L 10 -9 z M 10 -11 L 10 -12 L 14 -12 L 14 -11 L 10 -11 z M 10 -13 L 10 -14 L 15 -14 L 15 -13 L 10 -13 z "
     transform="scale(1,-1)" />
  <rect
     style="fill:#00ff00;fill-opacity:1;fill-rule:evenodd;stroke-width:3.00001;stroke-linecap:round;stroke-linejoin:round"
     id="rect903-7"
     width="1"
     height="3"
     x="3"
     y="2"
     ry="0"
     rx="0" />
  <rect
     style="fill:#00ff00;fill-opacity:1;fill-rule:evenodd;stroke-width:3.00001;stroke-linecap:round;stroke-linejoin:round"
     id="rect872"
     width="1"
     height="3"
     x="0.99999976"
     y="2"
     ry="0"
     rx="0" />
  <rect
     style="fill:#00ff00;fill-rule:evenodd;stroke-width:3;stroke-linecap:round;stroke-linejoin:round"
     id="rect877"
     width="5"
     height="1"
     x="-2.3841858e-07"
     y="2" />
  <rect
     style="fill:#00ff00;fill-rule:evenodd;stroke-width:3;stroke-linecap:round;stroke-linejoin:round"
     id="rect879"
     width="5"
     height="1"
     x="-2.3841858e-07"
     y="5" />
</svg>
