<?xml version="1.0" encoding="UTF-8" standalone="no"?>
<svg
   viewBox="0 0 16 16"
   version="2.0"
   id="svg4"
   sodipodi:docname="sc_sharedocument.svg"
   inkscape:version="1.5-dev (23acc5f795, 2026-06-29)"
   inkscape:export-filename="/home/jupiter007/Libreoffice yaru theme fullcolor/build/cmd/sc_sharedocument.png"
   inkscape:export-xdpi="96"
   inkscape:export-ydpi="96"
   standalone="no"
   xmlns:inkscape="http://www.inkscape.org/namespaces/inkscape"
   xmlns:sodipodi="http://sodipodi.sourceforge.net/DTD/sodipodi-0.dtd"
   xmlns="http://www.w3.org/2000/svg"
   xmlns:svg="http://www.w3.org/2000/svg"
   xmlns:rdf="http://www.w3.org/1999/02/22-rdf-syntax-ns#"
   xmlns:cc="http://creativecommons.org/ns#"
   xmlns:dc="http://purl.org/dc/elements/1.1/">
  <metadata
     id="metadata10">
    <rdf:RDF>
      <cc:Work
         rdf:about="">
        <dc:format>image/svg+xml</dc:format>
        <dc:type
           rdf:resource="http://purl.org/dc/dcmitype/StillImage" />
        <dc:title />
      </cc:Work>
    </rdf:RDF>
  </metadata>
  <defs
     id="defs8" />
  <sodipodi:namedview
     pagecolor="#ffffff"
     bordercolor="#666666"
     borderopacity="1"
     objecttolerance="10"
     gridtolerance="10"
     guidetolerance="10"
     inkscape:pageopacity="0"
     inkscape:pageshadow="2"
     inkscape:window-width="1920"
     inkscape:window-height="1048"
     id="namedview6"
     showgrid="true"
     inkscape:zoom="22.627417"
     inkscape:cx="2.541165"
     inkscape:cy="4.5299028"
     inkscape:window-x="0"
     inkscape:window-y="27"
     inkscape:window-maximized="1"
     inkscape:current-layer="svg4"
     inkscape:document-rotation="0"
     inkscape:showpageshadow="2"
     inkscape:pagecheckerboard="0"
     inkscape:deskcolor="#d1d1d1">
    <inkscape:grid
       type="xygrid"
       id="grid1089"
       originx="0.000000"
       originy="0.000000"
       spacingy="16.000000"
       spacingx="16.000000"
       units="px" />
  </sodipodi:namedview>
  <path
     id="path1091"
     style="opacity:1;fill:#0000ff;fill-opacity:1;fill-rule:evenodd;stroke:none;stroke-width:2;stroke-linecap:butt;stroke-linejoin:round;stroke-miterlimit:4;stroke-dasharray:none;stroke-opacity:1"
     d="M 11.029297 2.0019531 A 2 2 0 0 0 9.0292969 4.0019531 A 2 2 0 0 0 11.029297 6.0019531 A 2 2 0 0 0 13.029297 4.0019531 A 2 2 0 0 0 11.029297 2.0019531 z M 11.029297 3.0019531 A 1 1 0 0 1 12.029297 4.0019531 A 1 1 0 0 1 11.029297 5.0019531 A 1 1 0 0 1 10.029297 4.0019531 A 1 1 0 0 1 11.029297 3.0019531 z M 8.1035156 5.0664062 L 5.4472656 6.5996094 A 2 2 0 0 0 3.0234375 6.2675781 A 2 2 0 0 0 2.2910156 9 A 2 2 0 0 0 5.0234375 9.7324219 A 2 2 0 0 0 5.4589844 9.3886719 L 5.453125 9.4003906 L 8.1074219 10.931641 L 8.6074219 10.066406 L 5.9511719 8.5332031 L 5.9433594 8.5488281 A 2 2 0 0 0 5.9492188 7.4648438 L 8.6035156 5.9316406 L 8.1035156 5.0664062 z M 4 7 A 1 1 0 0 1 4.8886719 7.5 A 1 1 0 0 1 4.5234375 8.8652344 A 1 1 0 0 1 3.15625 8.5 A 1 1 0 0 1 3.5234375 7.1328125 A 1 1 0 0 1 4 7 z M 11.029297 10.001953 A 2 2 0 0 0 9.0292969 12.001953 A 2 2 0 0 0 11.029297 14.001953 A 2 2 0 0 0 13.029297 12.001953 A 2 2 0 0 0 11.029297 10.001953 z M 11.029297 11.001953 A 1 1 0 0 1 12.029297 12.001953 A 1 1 0 0 1 11.029297 13.001953 A 1 1 0 0 1 10.029297 12.001953 A 1 1 0 0 1 11.029297 11.001953 z " />
</svg>
