<?xml version="1.0" encoding="UTF-8" standalone="no"?>
<svg
   xmlns:dc="http://purl.org/dc/elements/1.1/"
   xmlns:cc="http://creativecommons.org/ns#"
   xmlns:rdf="http://www.w3.org/1999/02/22-rdf-syntax-ns#"
   xmlns:svg="http://www.w3.org/2000/svg"
   xmlns="http://www.w3.org/2000/svg"
   xmlns:xlink="http://www.w3.org/1999/xlink"
   xmlns:sodipodi="http://sodipodi.sourceforge.net/DTD/sodipodi-0.dtd"
   xmlns:inkscape="http://www.inkscape.org/namespaces/inkscape"
   viewBox="0 0 16 16"
   version="1.1"
   id="svg4"
   sodipodi:docname="sc_textdirectionlefttoright.svg"
   inkscape:export-filename="/home/jupiter007/Libreoffice yaru theme fullcolor/build/cmd/sc_textdirectionlefttoright.png"
   inkscape:export-xdpi="96"
   inkscape:export-ydpi="96"
   inkscape:version="1.0.1 (3bc2e813f5, 2020-09-07)"><metadata
   id="metadata10">
  <rdf:RDF>
    <cc:Work
       rdf:about="">
      <dc:format>image/svg+xml</dc:format>
      <dc:type
         rdf:resource="http://purl.org/dc/dcmitype/StillImage" />
      <dc:title></dc:title>
    </cc:Work>
  </rdf:RDF>
</metadata>
<defs
   id="defs8">
  <linearGradient
     inkscape:collect="always"
     xlink:href="#linearGradient861"
     id="linearGradient889"
     x1="8"
     y1="2"
     x2="8"
     y2="13.5"
     gradientUnits="userSpaceOnUse"
     gradientTransform="translate(-1.0899872,-1)" />
  <linearGradient
     inkscape:collect="always"
     id="linearGradient861">
    <stop
       style="stop-color:#151515;stop-opacity:1"
       offset="0"
       id="stop857" />
    <stop
       style="stop-color:#4d4d4d;stop-opacity:1"
       offset="1"
       id="stop859" />
  </linearGradient>
</defs>
<sodipodi:namedview
   pagecolor="#808080"
   bordercolor="#666666"
   borderopacity="1"
   objecttolerance="10"
   gridtolerance="10"
   guidetolerance="10"
   inkscape:pageopacity="0"
   inkscape:pageshadow="2"
   inkscape:window-width="1920"
   inkscape:window-height="1016"
   id="namedview6"
   showgrid="true"
   inkscape:zoom="29.5"
   inkscape:cx="8.724761"
   inkscape:cy="5.2194548"
   inkscape:window-x="0"
   inkscape:window-y="27"
   inkscape:window-maximized="1"
   inkscape:current-layer="svg4"
   inkscape:document-rotation="0">
  <inkscape:grid
     type="xygrid"
     id="grid833" />
</sodipodi:namedview>

/&gt;<path
   id="path880"
   style="color:#000000;font-style:normal;font-variant:normal;font-weight:normal;font-stretch:normal;font-size:medium;line-height:normal;font-family:sans-serif;font-variant-ligatures:normal;font-variant-position:normal;font-variant-caps:normal;font-variant-numeric:normal;font-variant-alternates:normal;font-variant-east-asian:normal;font-feature-settings:normal;font-variation-settings:normal;text-indent:0;text-align:start;text-decoration:none;text-decoration-line:none;text-decoration-style:solid;text-decoration-color:#000000;letter-spacing:normal;word-spacing:normal;text-transform:none;writing-mode:lr-tb;direction:ltr;text-orientation:mixed;dominant-baseline:auto;baseline-shift:baseline;text-anchor:start;white-space:normal;shape-padding:0;shape-margin:0;inline-size:0;clip-rule:nonzero;display:inline;overflow:visible;visibility:visible;isolation:auto;mix-blend-mode:normal;color-interpolation:sRGB;color-interpolation-filters:linearRGB;solid-color:#000000;solid-opacity:1;vector-effect:none;fill:#ffffff;fill-opacity:1;fill-rule:nonzero;stroke:none;stroke-width:2;stroke-linecap:butt;stroke-linejoin:round;stroke-miterlimit:4;stroke-dasharray:none;stroke-dashoffset:0;stroke-opacity:1;color-rendering:auto;image-rendering:auto;shape-rendering:auto;text-rendering:auto;enable-background:accumulate;stop-color:#000000;stop-opacity:1;opacity:1"
   d="M 5.8125 0 A 1.0001 1.0001 0 0 0 4.9023438 0.5859375 L 0.08984375 11.171875 A 1.0001 1.0001 0 0 0 0.5859375 12.496094 L 2.40625 13.324219 A 1.0001 1.0001 0 0 0 3.7304688 12.828125 L 5.0175781 10 L 8.8027344 10 L 9.7128906 12 L 11 12 L 11 9.1953125 L 13.558594 10.794922 L 8.9179688 0.5859375 A 1.0001 1.0001 0 0 0 8.0078125 0 L 6.9101562 0 L 5.8125 0 z M 6.4570312 2 L 6.9101562 2 L 7.3632812 2 L 7.8046875 2.96875 A 1.0001 1.0001 0 0 0 6.0078125 2.984375 L 6.4570312 2 z M 6.9101562 5.8320312 L 6.9863281 6 L 6.8339844 6 L 6.9101562 5.8320312 z M 4.3671875 6.5957031 A 1.0001 1.0001 0 0 0 5.28125 8 L 4.3730469 8 A 1.0001 1.0001 0 0 0 3.484375 8.5410156 L 4.3671875 6.5957031 z M 9.4726562 6.6425781 L 10.357422 8.5859375 A 1.0001 1.0001 0 0 0 9.4472656 8 L 8.5390625 8 A 1.0001 1.0001 0 0 0 9.4726562 6.6425781 z " />
<path
   id="path872"
   style="color:#000000;font-style:normal;font-variant:normal;font-weight:normal;font-stretch:normal;font-size:medium;line-height:normal;font-family:sans-serif;font-variant-ligatures:normal;font-variant-position:normal;font-variant-caps:normal;font-variant-numeric:normal;font-variant-alternates:normal;font-variant-east-asian:normal;font-feature-settings:normal;font-variation-settings:normal;text-indent:0;text-align:start;text-decoration:none;text-decoration-line:none;text-decoration-style:solid;text-decoration-color:#000000;letter-spacing:normal;word-spacing:normal;text-transform:none;writing-mode:lr-tb;direction:ltr;text-orientation:mixed;dominant-baseline:auto;baseline-shift:baseline;text-anchor:start;white-space:normal;shape-padding:0;shape-margin:0;inline-size:0;clip-rule:nonzero;display:inline;overflow:visible;visibility:visible;opacity:1;isolation:auto;mix-blend-mode:normal;color-interpolation:sRGB;color-interpolation-filters:linearRGB;solid-color:#000000;solid-opacity:1;vector-effect:none;fill:url(#linearGradient889);fill-opacity:1;fill-rule:nonzero;stroke:none;stroke-width:2;stroke-linecap:butt;stroke-linejoin:miter;stroke-miterlimit:4;stroke-dasharray:none;stroke-dashoffset:0;stroke-opacity:1;color-rendering:auto;image-rendering:auto;shape-rendering:auto;text-rendering:auto;enable-background:accumulate;stop-color:#000000;stop-opacity:1"
   d="M 5.8125 1 L 1 11.585938 L 2.8203125 12.414062 L 4.3730469 9 L 9.4472656 9 L 10.8125 12 L 11 12 L 11 9.1953125 L 12.025391 9.8359375 L 8.0078125 1 L 6.9101562 1 L 5.8125 1 z M 6.9101562 3.4160156 L 8.5390625 7 L 5.28125 7 L 6.9101562 3.4160156 z " />
<path
   sodipodi:nodetypes="cccccccc"
   id="path841"
   d="M 16,13.5 12,16 V 14 H 7.999999 V 13 H 12 v -1.999999 z"
   style="fill:#00ffff;fill-opacity:1;stroke:none;stroke-width:1px;stroke-linecap:butt;stroke-linejoin:miter;stroke-opacity:1"
   inkscape:connector-curvature="0" />
</svg>
