<?xml version="1.0" encoding="UTF-8" standalone="no"?>
<svg
   viewBox="0 0 16 16"
   version="1.1"
   id="svg6"
   sodipodi:docname="sc_trackchangesbar.svg"
   inkscape:version="1.2 (1:1.2.1+202207142221+cd75a1ee6d)"
   inkscape:export-filename="/home/jupiter007/Libreoffice yaru theme fullcolor/build/cmd/sc_trackchangesbar.png"
   inkscape:export-xdpi="96"
   inkscape:export-ydpi="96"
   xmlns:inkscape="http://www.inkscape.org/namespaces/inkscape"
   xmlns:sodipodi="http://sodipodi.sourceforge.net/DTD/sodipodi-0.dtd"
   xmlns="http://www.w3.org/2000/svg"
   xmlns:svg="http://www.w3.org/2000/svg"
   xmlns:rdf="http://www.w3.org/1999/02/22-rdf-syntax-ns#"
   xmlns:cc="http://creativecommons.org/ns#"
   xmlns:dc="http://purl.org/dc/elements/1.1/">
  <metadata
     id="metadata12">
    <rdf:RDF>
      <cc:Work
         rdf:about="">
        <dc:format>image/svg+xml</dc:format>
        <dc:type
           rdf:resource="http://purl.org/dc/dcmitype/StillImage" />
      </cc:Work>
    </rdf:RDF>
  </metadata>
  <defs
     id="defs10" />
  <sodipodi:namedview
     pagecolor="#ffffff"
     bordercolor="#666666"
     borderopacity="1"
     objecttolerance="10"
     gridtolerance="10"
     guidetolerance="10"
     inkscape:pageopacity="0"
     inkscape:pageshadow="2"
     inkscape:window-width="1920"
     inkscape:window-height="1043"
     id="namedview8"
     showgrid="true"
     inkscape:zoom="14.75"
     inkscape:cx="12.440678"
     inkscape:cy="0.81355932"
     inkscape:window-x="0"
     inkscape:window-y="0"
     inkscape:window-maximized="1"
     inkscape:current-layer="svg6"
     inkscape:showpageshadow="2"
     inkscape:pagecheckerboard="0"
     inkscape:deskcolor="#d1d1d1">
    <inkscape:grid
       type="xygrid"
       id="grid842" />
  </sodipodi:namedview>
  <path
     inkscape:connector-curvature="0"
     style="fill:#00ff00"
     d="m 7.1018182,8.788206 v 3 h 4.9999998 v -3 z"
     id="path4-2" />
  <path
     sodipodi:nodetypes="cccscsccccccccscscccccc"
     inkscape:connector-curvature="0"
     id="path4237-1"
     d="m 4.9941406,0.9992765 c -1.2582,0.0145 -2.178891,-0.030604 -2.931641,0.3847657 C 1.68613,1.5917021 1.389269,1.9434292 1.224609,2.382089 1.059939,2.820759 1,3.3416765 1,3.9992765 V 5.4875576 11 c 0,0.65761 0.0599,1.178577 0.224609,1.617188 0.16468,0.438611 0.461531,0.788524 0.8378906,0.996093 0.75272,0.41513 1.673541,0.371649 2.931641,0.386719 h 0.002 6.0057864 0.0039 c 1.25819,-0.0145 2.178891,0.0306 2.931641,-0.384766 0.37637,-0.20766 0.673221,-0.559386 0.837891,-0.998046 C 14.939898,12.178517 14.999977,11.65761 14.999977,11 V 5.4660735 3.9992765 c 0,-0.6576 -0.0599,-1.1785776 -0.224609,-1.6171875 C 14.610688,1.9434891 14.313837,1.5935552 13.937477,1.3859954 13.184707,0.9708653 12.263876,1.0143566 11.005786,0.9992765 h -0.002 -6.0057864 z"
     style="font-style:normal;font-variant:normal;font-weight:normal;font-stretch:normal;font-size:15px;line-height:125%;font-family:Ubuntu;-inkscape-font-specification:Ubuntu;text-align:center;letter-spacing:0px;word-spacing:0px;writing-mode:lr-tb;text-anchor:middle;display:inline;opacity:0.7;fill:#000000;fill-opacity:1;stroke:none;stroke-width:0.99980211" />
  <path
     inkscape:connector-curvature="0"
     id="path1993"
     d="m 4.9829998,2.0264613 c -1.556581,0.010796 -0.1096212,-0.011752 -1.6595722,0.038775 -0.461229,0.042668 -1.016188,0.2064193 -1.15534,0.7099666 -0.218994,0.6353465 -0.108414,1.3337872 -0.145796,1.9819244 -0.0078,2.2970846 -0.02297,4.5965687 0.02152,6.8859207 0.0391,0.461929 0.202551,1.012666 0.698756,1.163666 0.632456,0.225082 1.284144,0.12274 1.935974,0.154298 1.424235,0.0068 -0.1498058,0.01102 1.2760512,0.01131 1.704531,3.5e-4 4.4086842,-0.005 6.1074862,-0.01851 0.511911,-0.01201 1.183699,0.01993 1.584745,-0.405191 0.421097,-0.539783 0.287073,-1.268021 0.322745,-1.903787 0.01187,-2.4443231 0.02769,-4.9112355 -0.0219,-7.356935 C 13.898389,2.8858587 13.777677,2.424947 13.37253,2.2434239 12.704361,1.9493264 11.946325,2.075405 11.246609,2.0378511 9.4922024,2.0260486 6.7374388,2.0253667 4.9829998,2.0264613 Z"
     style="opacity:1;vector-effect:none;fill:#ffffff;fill-opacity:1;stroke:none;stroke-width:1;stroke-linecap:round;stroke-linejoin:bevel;stroke-miterlimit:4;stroke-dasharray:none;stroke-dashoffset:0;stroke-opacity:1"
     sodipodi:nodetypes="cccccccsccccccc" />
  <rect
     style="opacity:0.25;fill:#000000;fill-opacity:1;stroke:none;stroke-width:1.72964;stroke-linecap:round;stroke-linejoin:round;stroke-miterlimit:4;stroke-dasharray:none;stroke-opacity:1"
     id="rect840"
     width="5.9832954"
     height="1"
     x="7"
     y="7.9994183" />
  <rect
     y="8"
     x="3"
     height="1"
     width="3"
     id="rect844"
     style="opacity:1;fill:#c7162b;fill-opacity:1;stroke:none;stroke-width:1.22474;stroke-linecap:round;stroke-linejoin:round;stroke-miterlimit:4;stroke-dasharray:none;stroke-opacity:1" />
  <rect
     y="6"
     x="-5"
     height="1"
     width="2"
     id="rect846"
     style="opacity:0.25;fill:#000000;fill-opacity:1;stroke:none;stroke-width:1;stroke-linecap:round;stroke-linejoin:round;stroke-miterlimit:4;stroke-dasharray:none;stroke-opacity:1"
     transform="scale(-1,1)" />
  <rect
     style="opacity:1;fill:#c7162b;fill-opacity:1;stroke:none;stroke-width:1.8686;stroke-linecap:round;stroke-linejoin:round;stroke-miterlimit:4;stroke-dasharray:none;stroke-opacity:1"
     id="rect848"
     width="6.9832954"
     height="1"
     x="-12.983295"
     y="6.0005817"
     transform="scale(-1,1)" />
  <rect
     style="opacity:0.25;fill:#000000;fill-opacity:1;stroke:none;stroke-width:1.41125751;stroke-linecap:round;stroke-linejoin:round;stroke-miterlimit:4;stroke-dasharray:none;stroke-opacity:1"
     id="rect850"
     width="3.9832954"
     height="1"
     x="9"
     y="3.9994183" />
  <rect
     y="4"
     x="3"
     height="1"
     width="5"
     id="rect852"
     style="opacity:1;fill:#c7162b;fill-opacity:1;stroke:none;stroke-width:1.58113873;stroke-linecap:round;stroke-linejoin:round;stroke-miterlimit:4;stroke-dasharray:none;stroke-opacity:1" />
  <rect
     style="opacity:0.25;fill:#000000;fill-opacity:1;stroke:none;stroke-width:1.41126;stroke-linecap:round;stroke-linejoin:round;stroke-miterlimit:4;stroke-dasharray:none;stroke-opacity:1"
     id="rect5076"
     width="3.9832954"
     height="0.99941826"
     x="9"
     y="10" />
  <rect
     y="10"
     x="3"
     height="1"
     width="5"
     id="rect5078"
     style="opacity:1;fill:#c7162b;fill-opacity:1;stroke:none;stroke-width:1.58114;stroke-linecap:round;stroke-linejoin:round;stroke-miterlimit:4;stroke-dasharray:none;stroke-opacity:1" />
  <g
     style="display:inline;stroke-width:27.2;enable-background:new"
     transform="matrix(0.03808017,0.02198561,-0.02384508,0.04130087,-7.4307943,-14.963289)"
     id="g1151"
     inkscape:transform-center-x="1.779661"
     inkscape:transform-center-y="1.1694915">
    <path
       style="fill:#fec589;fill-opacity:1;stroke:none;stroke-width:27.2"
       d="m 688.00003,319.35584 -32,81.13762 -31.99999,-81.13762 v -11.06422 h 63.99999 z"
       id="path1145"
       inkscape:connector-curvature="0" />
    <path
       style="color:#000000;display:inline;overflow:visible;visibility:visible;fill:#5d5d5d;fill-opacity:1;fill-rule:nonzero;stroke:none;stroke-width:27.2;marker:none;enable-background:accumulate"
       d="m 645.81253,374.67694 10.1875,25.81651 10.1875,-25.81651 c 0.0102,0.17481 -20.375,0 -20.375,0 z"
       id="path1147"
       inkscape:connector-curvature="0"
       sodipodi:nodetypes="cccc" />
    <path
       style="fill:#2f5fdd;fill-opacity:1;stroke:none;stroke-width:27.2"
       d="m 624.00004,319.35583 c 0,0 65.02041,1.58617 63.99999,0 v -191.45535 h -63.99999 z"
       id="path1149"
       inkscape:connector-curvature="0"
       sodipodi:nodetypes="ccccc" />
  </g>
</svg>
