<?xml version="1.0" encoding="UTF-8" standalone="no"?>
<svg
   xmlns:dc="http://purl.org/dc/elements/1.1/"
   xmlns:cc="http://creativecommons.org/ns#"
   xmlns:rdf="http://www.w3.org/1999/02/22-rdf-syntax-ns#"
   xmlns:svg="http://www.w3.org/2000/svg"
   xmlns="http://www.w3.org/2000/svg"
   xmlns:sodipodi="http://sodipodi.sourceforge.net/DTD/sodipodi-0.dtd"
   xmlns:inkscape="http://www.inkscape.org/namespaces/inkscape"
   viewBox="0 0 16 16"
   version="1.1"
   id="svg20"
   sodipodi:docname="sc_tablemodefixprop.svg"
   inkscape:version="1.0.1 (3bc2e813f5, 2020-09-07)"
   inkscape:export-filename="/home/jupiter007/Libreoffice yaru theme fullcolor/build/cmd/sc_tablemodefixprop.png"
   inkscape:export-xdpi="96"
   inkscape:export-ydpi="96"><metadata
   id="metadata26">
  <rdf:RDF>
    <cc:Work
       rdf:about="">
      <dc:format>image/svg+xml</dc:format>
      <dc:type
         rdf:resource="http://purl.org/dc/dcmitype/StillImage" />
    </cc:Work>
  </rdf:RDF>
</metadata>
<defs
   id="defs24" />
<sodipodi:namedview
   pagecolor="#ffffff"
   bordercolor="#666666"
   borderopacity="1"
   objecttolerance="10"
   gridtolerance="10"
   guidetolerance="10"
   inkscape:pageopacity="0"
   inkscape:pageshadow="2"
   inkscape:window-width="1920"
   inkscape:window-height="1016"
   id="namedview22"
   showgrid="true"
   inkscape:zoom="41.7193"
   inkscape:cx="5.1933417"
   inkscape:cy="7.5143242"
   inkscape:window-x="0"
   inkscape:window-y="27"
   inkscape:window-maximized="1"
   inkscape:current-layer="svg20"
   inkscape:document-rotation="0">
  <inkscape:grid
     type="xygrid"
     id="grid833" />
</sodipodi:namedview>



/&amp;gt;<path
   id="path2"
   style="fill:#00ff00;fill-opacity:1"
   d="M 2 10 L 2 15 L 3 15 L 3 13 L 5.8867188 13 L 6.109375 12.777344 C 5.7664693 12.602218 5.484223 12.328583 5.2871094 12 L 3 12 L 3 10 L 2 10 z M 13 10 L 13 12 L 11.113281 12 L 10.890625 12.222656 C 11.234376 12.397876 11.517741 12.670589 11.714844 13 L 13 13 L 13 15 L 14 15 L 14 10 L 13 10 z " />
<g
   fill="#00ff00"
   id="g18"
   style="fill:#00ff00;fill-opacity:1">
  <rect
     height="2"
     ry="1"
     width="2"
     x="6"
     y="10"
     id="rect12"
     style="fill:#00ff00;fill-opacity:1" />
  <circle
     cx="10"
     cy="14"
     r="1"
     id="circle14"
     style="fill:#00ff00;fill-opacity:1" />
  <path
     d="m10.3 10-4.3 4.3.7.7 4.3-4.3z"
     fill-rule="evenodd"
     id="path16"
     style="fill:#00ff00;fill-opacity:1" />
</g>
<rect
   style="opacity:1;fill:#ffffff;fill-opacity:1;stroke:none;stroke-width:2;stroke-linecap:round;stroke-linejoin:round;stroke-miterlimit:4;stroke-dasharray:none;stroke-opacity:1"
   id="rect820"
   width="12"
   height="5"
   x="2"
   y="2" />
<path
   id="path2-2"
   style="fill:#6d6d6d;fill-opacity:1"
   d="M 4,1 C 2,1 1,1 1,3 V 7 8 H 15 V 7 3 C 15,1 14,1 12,1 Z M 4,2 H 5 V 4 H 2 V 3 C 2,2 3.0000001,2 4,2 Z m 2,0 h 4 V 4 H 6 Z m 5,0 h 1 c 1,0 2,0 2,1 V 4 H 13 12 11 Z M 2,5 H 5 V 7 H 2 Z m 4,0 h 4 V 7 H 6 Z m 5,0 h 1 1 1 v 2 h -3 z" />
</svg>
