<?xml version="1.0" encoding="UTF-8" standalone="no"?>
<svg
   xmlns:dc="http://purl.org/dc/elements/1.1/"
   xmlns:cc="http://creativecommons.org/ns#"
   xmlns:rdf="http://www.w3.org/1999/02/22-rdf-syntax-ns#"
   xmlns:svg="http://www.w3.org/2000/svg"
   xmlns="http://www.w3.org/2000/svg"
   xmlns:xlink="http://www.w3.org/1999/xlink"
   xmlns:sodipodi="http://sodipodi.sourceforge.net/DTD/sodipodi-0.dtd"
   xmlns:inkscape="http://www.inkscape.org/namespaces/inkscape"
   viewBox="0 0 16 16"
   version="1.1"
   id="svg4"
   sodipodi:docname="sc_underlinedouble.svg"
   inkscape:export-filename="/home/jupiter007/Libreoffice yaru theme fullcolor/build/cmd/sc_underlinedouble.png"
   inkscape:export-xdpi="96"
   inkscape:export-ydpi="96"
   inkscape:version="1.0.1 (3bc2e813f5, 2020-09-07)"><metadata
   id="metadata10">
  <rdf:RDF>
    <cc:Work
       rdf:about="">
      <dc:format>image/svg+xml</dc:format>
      <dc:type
         rdf:resource="http://purl.org/dc/dcmitype/StillImage" />
      <dc:title></dc:title>
    </cc:Work>
  </rdf:RDF>
</metadata>
<defs
   id="defs8">
  <linearGradient
     inkscape:collect="always"
     id="linearGradient849">
    <stop
       style="stop-color:#000000;stop-opacity:1;"
       offset="0"
       id="stop845" />
    <stop
       style="stop-color:#4d4d4d;stop-opacity:1"
       offset="1"
       id="stop847" />
  </linearGradient>
  <linearGradient
     inkscape:collect="always"
     xlink:href="#linearGradient849"
     id="linearGradient843"
     x1="8"
     y1="2"
     x2="8"
     y2="15"
     gradientUnits="userSpaceOnUse" />
  <linearGradient
     inkscape:collect="always"
     xlink:href="#linearGradient849"
     id="linearGradient857"
     x1="8"
     y1="2"
     x2="8"
     y2="15"
     gradientUnits="userSpaceOnUse" />
</defs>
<sodipodi:namedview
   pagecolor="#ffffff"
   bordercolor="#666666"
   borderopacity="1"
   objecttolerance="10"
   gridtolerance="10"
   guidetolerance="10"
   inkscape:pageopacity="0"
   inkscape:pageshadow="2"
   inkscape:window-width="1920"
   inkscape:window-height="1016"
   id="namedview6"
   showgrid="true"
   inkscape:zoom="29.5"
   inkscape:cx="6.0591643"
   inkscape:cy="4.8730807"
   inkscape:window-x="0"
   inkscape:window-y="27"
   inkscape:window-maximized="1"
   inkscape:current-layer="svg4"
   inkscape:document-rotation="0">
  <inkscape:grid
     type="xygrid"
     id="grid829" />
</sodipodi:namedview>

/&gt;<path
   sodipodi:nodetypes="cccsccscccccccsssccccc"
   inkscape:connector-curvature="0"
   id="path825"
   d="m 4.0000001,1.9999996 v 3 1 4 c 0,1.6568504 1.567,3.0000004 3.5,3.0000004 H 8.5000002 C 10.433,13 12,11.65685 12,9.9999996 v -4 -1 -3 h -2 v 3 1 1.3125 1.6875 C 10,10.10457 9.1045702,11 8.0000002,11 6.8954301,11 6.0000001,10.10457 6.0000001,8.9999996 v -1.6875 -1.3125 -1 -3 z"
   style="opacity:1;fill:#000000;fill-opacity:1;stroke:#ffffff;stroke-width:2;stroke-linejoin:round;stroke-miterlimit:4;stroke-dasharray:none" />
<path
   style="fill:url(#linearGradient857);fill-opacity:1"
   d="m 4.0000001,1.9999996 v 3 1 4 c 0,1.6568504 1.567,3.0000004 3.5,3.0000004 H 8.5000002 C 10.433,13 12,11.65685 12,9.9999996 v -4 -1 -3 h -2 v 3 1 1.3125 1.6875 C 10,10.10457 9.1045702,11 8.0000002,11 6.8954301,11 6.0000001,10.10457 6.0000001,8.9999996 v -1.6875 -1.3125 -1 -3 z"
   id="path820"
   inkscape:connector-curvature="0"
   sodipodi:nodetypes="cccsccscccccccsssccccc" />
<path
   style="opacity:1;fill:#000000;fill-opacity:1;stroke:#ffffff;stroke-width:2;stroke-linejoin:round;stroke-miterlimit:4;stroke-dasharray:none"
   d="M 2 12 L 2 13 L 14 13 L 14 12 L 11 12 L 8 12 L 2 12 z M 2 14 L 2 15 L 14 15 L 14 14 L 11 14 L 8 14 L 2 14 z "
   id="path827" />
<path
   id="path2"
   style="fill:url(#linearGradient843);fill-opacity:1"
   d="M 2 12 L 2 13 L 14 13 L 14 12 L 11 12 L 8 12 L 2 12 z M 2 14 L 2 15 L 14 15 L 14 14 L 11 14 L 8 14 L 2 14 z " />
</svg>
