<?xml version="1.0" encoding="UTF-8" standalone="no"?>
<svg
   viewBox="0 0 16 16"
   version="1.1"
   id="svg8"
   sodipodi:docname="sc_wrapideal.svg"
   inkscape:export-filename="/home/jupiter007/Libreoffice yaru theme fullcolor/build/cmd/sc_wrapideal.png"
   inkscape:export-xdpi="96"
   inkscape:export-ydpi="96"
   inkscape:version="1.4.2 (ebf0e940d0, 2025-05-08)"
   xmlns:inkscape="http://www.inkscape.org/namespaces/inkscape"
   xmlns:sodipodi="http://sodipodi.sourceforge.net/DTD/sodipodi-0.dtd"
   xmlns="http://www.w3.org/2000/svg"
   xmlns:svg="http://www.w3.org/2000/svg"
   xmlns:rdf="http://www.w3.org/1999/02/22-rdf-syntax-ns#"
   xmlns:cc="http://creativecommons.org/ns#"
   xmlns:dc="http://purl.org/dc/elements/1.1/">
  <metadata
     id="metadata14">
    <rdf:RDF>
      <cc:Work
         rdf:about="">
        <dc:format>image/svg+xml</dc:format>
        <dc:type
           rdf:resource="http://purl.org/dc/dcmitype/StillImage" />
        <dc:title />
      </cc:Work>
    </rdf:RDF>
  </metadata>
  <defs
     id="defs12" />
  <sodipodi:namedview
     pagecolor="#ffffff"
     bordercolor="#666666"
     borderopacity="1"
     objecttolerance="10"
     gridtolerance="10"
     guidetolerance="10"
     inkscape:pageopacity="0"
     inkscape:pageshadow="2"
     inkscape:window-width="1920"
     inkscape:window-height="1011"
     id="namedview10"
     showgrid="true"
     inkscape:zoom="41.7193"
     inkscape:cx="9.7676615"
     inkscape:cy="6.4119005"
     inkscape:window-x="0"
     inkscape:window-y="0"
     inkscape:window-maximized="1"
     inkscape:current-layer="svg8"
     inkscape:document-rotation="0"
     inkscape:showpageshadow="2"
     inkscape:pagecheckerboard="0"
     inkscape:deskcolor="#d1d1d1">
    <inkscape:grid
       type="xygrid"
       id="grid839"
       originx="0"
       originy="0"
       spacingy="1"
       spacingx="1"
       units="px" />
  </sodipodi:namedview>
  <path
     id="rect862"
     style="fill:#0000ff;fill-opacity:1;fill-rule:evenodd;stroke-width:2;stroke-linecap:round;stroke-linejoin:round"
     d="M 0 1 L 0 2 L 16 2 L 16 1 L 0 1 z M 0 3 L 0 4 L 3 4 L 3 3 L 0 3 z M 13 3 L 13 4 L 16 4 L 16 3 L 13 3 z M 0 5 L 0 6 L 3 6 L 3 5 L 0 5 z M 13 5 L 13 6 L 16 6 L 16 5 L 13 5 z M 0 7 L 0 8 L 3 8 L 3 7 L 0 7 z M 13 7 L 13 8 L 16 8 L 16 7 L 13 7 z M 0 9 L 0 10 L 3 10 L 3 9 L 0 9 z M 13 9 L 13 10 L 16 10 L 16 9 L 13 9 z M 0 11 L 0 12 L 3 12 L 3 11 L 0 11 z M 13 11 L 13 12 L 16 12 L 16 11 L 13 11 z M 0 13 L 0 14 L 16 14 L 16 13 L 0 13 z " />
  <path
     d="m 4,3 v 9 h 8 V 3 Z"
     id="path4-9"
     style="fill:#00ff00;fill-opacity:1;stroke-width:1.04745"
     inkscape:connector-curvature="0"
     sodipodi:nodetypes="ccccc" />
  <path
     id="rect1"
     style="opacity:0.5;fill:#000000;fill-opacity:1;stroke:none"
     d="M 4 3 L 4 12 L 12 12 L 12 3 L 4 3 z M 5 4 L 11 4 L 11 11 L 5 11 L 5 4 z " />
</svg>
