<?xml version="1.0" encoding="UTF-8" standalone="no"?>
<svg
   xmlns:dc="http://purl.org/dc/elements/1.1/"
   xmlns:cc="http://creativecommons.org/ns#"
   xmlns:rdf="http://www.w3.org/1999/02/22-rdf-syntax-ns#"
   xmlns:svg="http://www.w3.org/2000/svg"
   xmlns="http://www.w3.org/2000/svg"
   xmlns:sodipodi="http://sodipodi.sourceforge.net/DTD/sodipodi-0.dtd"
   xmlns:inkscape="http://www.inkscape.org/namespaces/inkscape"
   viewBox="0 0 16 16"
   version="1.1"
   id="svg4"
   sodipodi:docname="sc_zoompage.svg"
   inkscape:version="1.0.1 (3bc2e813f5, 2020-09-07)"
   inkscape:export-filename="/home/jupiter007/Libreoffice yaru theme fullcolor/build/cmd/sc_zoompage.png"
   inkscape:export-xdpi="95"
   inkscape:export-ydpi="95"><metadata
   id="metadata10">
  <rdf:RDF>
    <cc:Work
       rdf:about="">
      <dc:format>image/svg+xml</dc:format>
      <dc:type
         rdf:resource="http://purl.org/dc/dcmitype/StillImage" />
    </cc:Work>
  </rdf:RDF>
</metadata>
<defs
   id="defs8" />
<sodipodi:namedview
   pagecolor="#ffffff"
   bordercolor="#666666"
   borderopacity="1"
   objecttolerance="10"
   gridtolerance="10"
   guidetolerance="10"
   inkscape:pageopacity="0"
   inkscape:pageshadow="2"
   inkscape:window-width="1920"
   inkscape:window-height="1011"
   id="namedview6"
   showgrid="true"
   inkscape:zoom="41.7193"
   inkscape:cx="7.7470627"
   inkscape:cy="7.8262194"
   inkscape:window-x="0"
   inkscape:window-y="32"
   inkscape:window-maximized="1"
   inkscape:current-layer="svg4"
   inkscape:document-rotation="0">
  <inkscape:grid
     type="xygrid"
     id="grid837" />
</sodipodi:namedview>



/&amp;gt;<path
   id="path4237-1-2"
   style="font-style:normal;font-variant:normal;font-weight:normal;font-stretch:normal;font-size:15px;line-height:125%;font-family:Ubuntu;-inkscape-font-specification:Ubuntu;text-align:center;letter-spacing:0px;word-spacing:0px;writing-mode:lr-tb;text-anchor:middle;display:inline;opacity:0.7;fill:#000000;fill-opacity:1;stroke:none;stroke-width:0.999802"
   d="M 5 1 C 4.34239 1 3.8214235 1.0599004 3.3828125 1.2246094 C 2.9442015 1.3892894 2.5942877 1.68614 2.3867188 2.0625 C 1.9715887 2.81522 2.01507 3.7360407 2 4.9941406 L 2 4.9960938 L 2 11.001953 L 2 11.005859 C 2.0145 12.26405 1.9693996 13.18475 2.3847656 13.9375 C 2.5924256 14.313871 2.9441525 14.61072 3.3828125 14.775391 C 3.8214835 14.939929 4.34239 15 5 15 L 6.3789062 15 L 4.9394531 13.560547 A 1.50015 1.50015 0 0 1 6 11 L 10 11 A 1.50015 1.50015 0 0 1 11.060547 13.560547 L 9.6210938 15 L 11 15 C 11.6576 15 12.178577 14.9401 12.617188 14.775391 C 13.055786 14.610709 13.405721 14.313859 13.613281 13.9375 C 14.028411 13.184729 13.98492 12.263948 14 11.005859 L 14 11.003906 L 14 4.9980469 L 14 4.9941406 C 13.9855 3.7359407 14.0306 2.81525 13.615234 2.0625 C 13.407574 1.68613 13.055846 1.3892694 12.617188 1.2246094 C 12.178516 1.0599394 11.6576 1 11 1 L 9.6210938 1 L 11.060547 2.4394531 A 1.50015 1.50015 0 0 1 10 5 L 6 5 A 1.50015 1.50015 0 0 1 4.9394531 2.4394531 L 6.3789062 1 L 5 1 z " />
<path
   inkscape:connector-curvature="0"
   id="path1993-3"
   d="M 12.999995,4.999999 C 12.989195,3.443418 13.011745,4.8903777 12.961225,3.3404268 12.918555,2.879198 12.754806,2.324239 12.251258,2.185087 11.615912,1.966093 10.917471,2.076673 10.269334,2.039291 7.9722499,2.031491 6.6729869,2.016321 4.3836349,2.060811 c -0.461929,0.0391 -1.012666,0.202551 -1.163666,0.698756 -0.225082,0.6324559 -0.12274,1.2841438 -0.154298,1.9359739 -0.0068,1.4242349 -0.01102,0.8492053 -0.01131,2.2750622 -3.5e-4,1.7045311 0.005,3.4087199 0.01851,5.1075229 0.01201,0.51191 -0.01993,1.183699 0.405191,1.584745 0.539783,0.421096 1.268021,0.287072 1.903788,0.322744 2.444322,0.01187 3.9110126,0.02769 6.3567121,-0.0219 0.40204,-0.04928 0.862952,-0.16999 1.044475,-0.575138 0.294098,-0.668169 0.168019,-1.426205 0.205573,-2.125922 C 13.00041,9.5082502 13.00109,6.754439 13,5 Z"
   style="opacity:1;vector-effect:none;fill:#ffffff;fill-opacity:1;stroke:none;stroke-width:1;stroke-linecap:round;stroke-linejoin:bevel;stroke-miterlimit:4;stroke-dasharray:none;stroke-dashoffset:0;stroke-opacity:1"
   sodipodi:nodetypes="cccccccscccccccc" />
<path
   style="fill:#00ffff;fill-opacity:1;stroke:none;stroke-linecap:round;stroke-linejoin:round;stroke-opacity:1"
   d="M 13,8 10,6 v 4 z"
   id="path833"
   inkscape:connector-curvature="0"
   sodipodi:nodetypes="cccc" />
<path
   style="fill:#00ffff;fill-opacity:1;stroke:none;stroke-linecap:round;stroke-linejoin:round;stroke-opacity:1"
   d="M 8,1 6,4 h 4 z"
   id="path836"
   inkscape:connector-curvature="0"
   sodipodi:nodetypes="cccc" />
<path
   style="fill:#00ffff;fill-opacity:1;stroke:none;stroke-linecap:round;stroke-linejoin:round;stroke-opacity:1"
   d="m 8,15 2,-3 H 6 Z"
   id="path838"
   inkscape:connector-curvature="0"
   sodipodi:nodetypes="cccc" />
<path
   style="fill:#00ffff;fill-opacity:1;stroke:none;stroke-linecap:round;stroke-linejoin:round;stroke-opacity:1"
   d="M 3,8 6,6 v 4 z"
   id="path840"
   inkscape:connector-curvature="0"
   sodipodi:nodetypes="cccc" />
</svg>
