<svg xmlns="http://www.w3.org/2000/svg" viewBox="0 0 32 32"><path d="M16 10c6.627 0 12 6 12 7s-5.373 7-12 7-12-6-12-7 5.373-7 12-7Z" style="opacity:.7;fill:#000;fill-opacity:1;stroke:#000;stroke-width:2;stroke-linecap:round;stroke-linejoin:round;stroke-miterlimit:4;stroke-dasharray:none;stroke-opacity:1"/><path style="opacity:1;fill:#fff;fill-opacity:1;stroke:none;stroke-width:2;stroke-linecap:round;stroke-linejoin:round;stroke-miterlimit:4;stroke-dasharray:none;stroke-opacity:1" d="M16 10c6.627 0 12 6 12 7s-5.373 7-12 7-12-6-12-7 5.373-7 12-7Z"/><path style="opacity:1;fill:#232629;fill-opacity:1;stroke:none;stroke-width:2;stroke-linecap:round;stroke-linejoin:round;stroke-miterlimit:4;stroke-dasharray:none;stroke-opacity:1" d="M16 11a6 6 0 0 0-6 6 6 6 0 0 0 6 6 6 6 0 0 0 6-6 6 6 0 0 0-6-6zm0 1a5 5 0 0 1 5 5 5 5 0 0 1-5 5 5 5 0 0 1-5-5 5 5 0 0 1 5-5zm0 2a3 3 0 1 0 2.865 2.117A1.5 1.5 0 0 1 16 15.5a1.5 1.5 0 0 1 .885-1.365A3 3 0 0 0 16 14Z"/></svg>