<svg viewBox="0 0 32 32" xmlns="http://www.w3.org/2000/svg"><path style="fill:#fff;stroke:none;stroke-width:1px;stroke-linecap:butt;stroke-linejoin:miter" d="M7.5 3.5c-2 0-3 0-3 2V22c0 1 .5 1.5 2.5 1.5h3.5l2-4H14V8h3.5V6.5c0-3-1-3-3-3z"/><path style="color:#000;fill:gray;-inkscape-stroke:none" d="M6.787 3c-.677.006-1.25.048-1.76.303-.34.17-.63.462-.797.838C4.064 4.516 4 4.958 4 5.5V22c0 .583.198 1.191.723 1.541.524.35 1.235.459 2.277.459h3.809l2-4H14V8h4V6.5c0-.778-.062-1.383-.209-1.877-.146-.494-.394-.889-.74-1.148C16.359 2.955 15.5 3 14.5 3h-7c-.25 0-.487-.002-.713 0zM7.5 4H8v3H5V5.5c0-.458.061-.766.145-.953a.615.615 0 0 1 .328-.35C5.793 4.037 6.5 4 7.5 4zM9 4h4v3H9zm5 0h.5c1 0 1.641.044 1.95.275.153.116.28.284.384.633.103.35.166.87.166 1.592V7h-3zM5 8h3v3H5zm4 0h4v3H9zm-4 4h3v3H5zm4 0h4v3H9zm-4 4h3v3H5zm4 0h4v3H9zm-4 4h6.691l-1.5 3H7c-.958 0-1.497-.14-1.723-.291C5.052 22.559 5 22.417 5 22z"/><path style="fill:#fff;stroke:none;stroke-width:1px;stroke-linecap:butt;stroke-linejoin:miter" d="M18.5 9.5c-2 0-3 0-3 2V28c0 1 .5 1.5 2.5 1.5h3.5l2-4h2c2 0 3 0 3-2v-11c0-3-1-3-3-3z"/><path style="color:#000;fill:gray;-inkscape-stroke:none" d="M17.787 9c-.677.007-1.25.05-1.76.304-.34.17-.63.462-.797.838-.166.375-.23.817-.23 1.359V28c0 .583.198 1.191.723 1.541.524.35 1.235.459 2.277.459h3.809l2-4H25.5c1 0 1.794.037 2.473-.303.34-.17.63-.462.797-.838.166-.375.23-.817.23-1.36v-11c0-.777-.062-1.382-.209-1.876-.146-.494-.394-.889-.74-1.148C27.359 8.956 26.5 9 25.5 9h-7c-.25 0-.487-.002-.713 0zm.713 1h.5v3h-3v-1.5c0-.457.061-.765.145-.952a.615.615 0 0 1 .328-.35c.32-.16 1.027-.197 2.027-.197zm1.5 0h4v3h-4zm5 0h.5c1 0 1.641.045 1.95.276.153.116.28.284.384.633.103.35.166.87.166 1.592v.5h-3zm-9 4h3v3h-3zm4 0h4v3h-4zm5 0h3v3h-3zm-9 4h3v3h-3zm4 0h4v3h-4zm5 0h3v3h-3zm-9 4h3v3h-3zm4 0h4v3h-4zm5 0h3v1.5c0 .46-.061.767-.145.954a.615.615 0 0 1-.328.35c-.32.16-1.027.197-2.027.197H25zm-9 4h6.691l-1.5 3H18c-.958 0-1.497-.14-1.723-.29-.225-.15-.277-.292-.277-.71z"/></svg>