<svg xmlns="http://www.w3.org/2000/svg" viewBox="0 0 32 32"><path style="fill:#000;stroke:#000;opacity:.7;stroke-width:2;stroke-miterlimit:4;stroke-dasharray:none;stroke-linejoin:round" fill="#232629" d="M16 7a12 9 0 0 0-12 9 12 9 0 0 0 12 9 12 9 0 0 0 12-9 12 9 0 0 0-12-9zm0 1a11 8 0 0 1 11 8 11 8 0 0 1-11 8 11 8 0 0 1-11-8 11 8 0 0 1 11-8z"/><path d="M16 7a12 9 0 0 0-12 9 12 9 0 0 0 12 9 12 9 0 0 0 12-9 12 9 0 0 0-12-9zm0 1a11 8 0 0 1 11 8 11 8 0 0 1-11 8 11 8 0 0 1-11-8 11 8 0 0 1 11-8z" fill="#232629" style="fill:#fff"/></svg>