<svg xmlns="http://www.w3.org/2000/svg" viewBox="0 0 32 32"><path style="opacity:.7;fill:#000;fill-opacity:1;fill-rule:nonzero;stroke:#000;stroke-width:2;stroke-linecap:round;stroke-linejoin:round;stroke-miterlimit:4;stroke-dasharray:none;stroke-opacity:1" d="M4 4h24v24H4z"/><path style="opacity:1;fill:#fff;fill-opacity:1;fill-rule:nonzero;stroke:none;stroke-width:2;stroke-linecap:round;stroke-linejoin:round;stroke-miterlimit:4;stroke-dasharray:none;stroke-opacity:1" d="M4 4h24v24H4z"/><path d="M19 7v2h2V7ZM15 7v2h2V7ZM11 7v2h2V7ZM7 7v2h2V7ZM19 11v2h2v-2zM15 11v2h2v-2zM11 11v2h2v-2zM7 11v2h2v-2zM19 15v2h2v-2zM15 15v2h2v-2zM11 15v2h2v-2zM7 15v2h2v-2zM19 19v2h2v-2zM15 19v2h2v-2zM11 19v2h2v-2zM7 19v2h2v-2zM23 7v2h2V7ZM23 11v2h2v-2zM23 15v2h2v-2zM23 19v2h2v-2zM19 23v2h2v-2zM15 23v2h2v-2zM11 23v2h2v-2zM7 23v2h2v-2zM23 23v2h2v-2z" style="fill:#232629"/></svg>