<svg xmlns="http://www.w3.org/2000/svg" viewBox="0 0 32 32"><path style="opacity:1;vector-effect:none;fill:#6d6d6d;fill-opacity:1;stroke:none;stroke-width:.388284;stroke-linecap:round;stroke-linejoin:miter;stroke-miterlimit:4;stroke-dasharray:none;stroke-dashoffset:0;stroke-opacity:1" d="M15 22h16v1H15z"/><path style="opacity:.7;vector-effect:none;fill:#000;fill-opacity:1;stroke:#000;stroke-width:2;stroke-linecap:round;stroke-linejoin:round;stroke-miterlimit:4;stroke-dasharray:none;stroke-dashoffset:0;stroke-opacity:1" d="M20 2v8.058h-2.772S20.328 17.408 23 21c2.671-3.591 5.772-10.942 5.772-10.942H26V2Z"/><path style="opacity:1;vector-effect:none;fill:#a6d74f;fill-opacity:1;stroke:none;stroke-width:.227283;stroke-linecap:round;stroke-linejoin:round;stroke-miterlimit:4;stroke-dasharray:none;stroke-dashoffset:0;stroke-opacity:1" d="M20 2v8.058h-2.772S20.328 17.408 23 21c2.671-3.591 5.772-10.942 5.772-10.942H26V2Z"/><path style="opacity:1;vector-effect:none;fill:#6d6d6d;fill-opacity:1;stroke:none;stroke-width:.388284;stroke-linecap:round;stroke-linejoin:miter;stroke-miterlimit:4;stroke-dasharray:none;stroke-dashoffset:0;stroke-opacity:1" d="M2 30h16v1H2z"/><path style="opacity:.7;vector-effect:none;fill:#000;fill-opacity:1;stroke:#000;stroke-width:2;stroke-linecap:round;stroke-linejoin:round;stroke-miterlimit:4;stroke-dasharray:none;stroke-dashoffset:0;stroke-opacity:1" d="M7 10v8.058H4.228S7.328 25.408 10 29c2.671-3.591 5.772-10.942 5.772-10.942H13V10Z"/><path style="opacity:1;vector-effect:none;fill:#a6d74f;fill-opacity:1;stroke:none;stroke-width:.227283;stroke-linecap:round;stroke-linejoin:round;stroke-miterlimit:4;stroke-dasharray:none;stroke-dashoffset:0;stroke-opacity:1" d="M7 10v8.058H4.228S7.328 25.408 10 29c2.671-3.591 5.772-10.942 5.772-10.942H13V10Z"/></svg>