<svg height="32" viewBox="0 0 8.467 8.467" width="32" xmlns="http://www.w3.org/2000/svg"><path style="color:#000;opacity:.7;fill:#000;stroke-width:.529167;-inkscape-stroke:none" d="M2.646 7.408c-.53 0-1.059-.264-1.059-.793V1.852c0-.53.53-.794 1.059-.794h2.381L6.88 2.91v3.705c0 .529-.529.793-1.058.793z"/><path style="color:#000;opacity:.7;fill:#000;-inkscape-stroke:none" d="M2.646.793c-.308 0-.62.074-.875.244a.983.983 0 0 0-.449.815v4.763c0 .353.195.645.45.815.254.17.566.244.874.244H5.82c.309 0 .62-.074.875-.244a.983.983 0 0 0 .45-.815V2.801L5.137.793zm0 .53h2.272L6.615 3.02v3.595c0 .177-.07.28-.213.375a1.1 1.1 0 0 1-.582.155H2.646a1.1 1.1 0 0 1-.582-.155c-.142-.094-.212-.198-.212-.375V1.852c0-.177.07-.28.212-.375a1.1 1.1 0 0 1 .582-.155z"/><path d="M2.646 7.408c-.53 0-1.059-.264-1.059-.793V1.852c0-.53.53-.794 1.059-.794h2.381L6.88 2.91v3.705c0 .529-.529.793-1.058.793z" style="fill:#fff;stroke-width:.264583"/><path d="M5.027 2.91V1.058L6.88 2.91z" style="fill:#6d6d6d;fill-opacity:1;stroke-width:.264583"/><path style="vector-effect:none;fill:#6d6d6d;fill-opacity:1;stroke:none;stroke-width:.0799042;stroke-linecap:round;stroke-linejoin:miter;stroke-miterlimit:4;stroke-dasharray:none;stroke-dashoffset:0;stroke-opacity:1" d="M5.027 7.938h3.175v.265H5.027z"/><path style="color:#000;opacity:.7;fill:#000;stroke-width:.529167;stroke-linecap:round;stroke-linejoin:round" d="M6.085 3.705a.265.265 0 0 0-.264.264v1.32h-.307a.265.265 0 0 0-.246.361s.54 1.382 1.133 2.18a.265.265 0 0 0 .426 0c.594-.798 1.133-2.18 1.133-2.18a.265.265 0 0 0-.246-.36h-.305V3.968a.265.265 0 0 0-.266-.264z"/><path style="vector-effect:none;fill:#a6d74f;fill-opacity:1;stroke:none;stroke-width:.0467722;stroke-linecap:round;stroke-linejoin:round;stroke-miterlimit:4;stroke-dasharray:none;stroke-dashoffset:0;stroke-opacity:1" d="M6.085 3.969v1.584h-.57s.55 1.38 1.1 2.12c.55-.74 1.1-2.12 1.1-2.12h-.571V3.97z"/></svg>