<svg xmlns="http://www.w3.org/2000/svg" xmlns:xlink="http://www.w3.org/1999/xlink" height="32" width="32"><defs><radialGradient xlink:href="#a" id="b" cx="16" cy="4" fx="16" fy="4" r="12" gradientTransform="matrix(0 1.5 -2 0 24 -17)" gradientUnits="userSpaceOnUse"/></defs><linearGradient id="a" gradientTransform="matrix(1.5 0 0 -1.5 -.5 1581.043)" gradientUnits="userSpaceOnUse" x1="3" x2="15" y1="1045.362" y2="1045.362"><stop offset="0" stop-color="#b3b3b3" style="stop-color:#fff;stop-opacity:1"/><stop style="stop-color:#fff;stop-opacity:1" stop-color="#b3b3b3" offset=".389"/><stop offset="1" stop-color="#232629" style="stop-color:#b6b6b6;stop-opacity:1"/></linearGradient><path fill-rule="evenodd" fill="url(#a)" d="M16 7C9.58 7 4.369 12.05 4.047 18.39A3.025 3.025 0 0 0 4 19c0 3.314 5.373 6 12 6s12-2.686 12-6c0-.207-.006-.408-.047-.61C27.631 12.05 22.42 7 16 7z" style="fill:#000;stroke:#000;opacity:.7;stroke-width:1.99999998;stroke-linejoin:round"/><path d="M16 7C9.58 7 4.369 12.05 4.047 18.39A3.025 3.025 0 0 0 4 19c0 3.314 5.373 6 12 6s12-2.686 12-6c0-.207-.006-.408-.047-.61C27.631 12.05 22.42 7 16 7z" fill="url(#a)" fill-rule="evenodd" style="fill-opacity:1;fill:url(#b)"/></svg>