<svg xmlns="http://www.w3.org/2000/svg" height="32" width="32"><radialGradient id="a" cx="12" cy="4" gradientTransform="matrix(0 3 -3 0 28 -32)" gradientUnits="userSpaceOnUse" r="8" fx="12" fy="4"><stop offset="0" stop-color="#b3b3b3" style="stop-color:#fff;stop-opacity:1"/><stop stop-color="#b3b3b3" offset=".292" style="stop-color:#fff;stop-opacity:1"/><stop offset="1" stop-color="#232629" style="stop-color:#b6b6b6;stop-opacity:1"/></radialGradient><path fill-rule="evenodd" fill="url(#a)" d="M16 4A12 12 0 0 0 4 16a12 12 0 0 0 12 12 12 12 0 0 0 12-12A12 12 0 0 0 16 4z" style="fill:#000;stroke:#000;opacity:.7;stroke-width:1.99999998;stroke-miterlimit:4;stroke-dasharray:none;stroke-linejoin:round"/><path d="M16 4A12 12 0 0 0 4 16a12 12 0 0 0 12 12 12 12 0 0 0 12-12A12 12 0 0 0 16 4z" fill="url(#a)" fill-rule="evenodd" style="fill:url(#a)"/></svg>