<svg height="128" width="128" xmlns:xlink="http://www.w3.org/1999/xlink" xmlns="http://www.w3.org/2000/svg"><defs><linearGradient id="c"><stop style="stop-color:#fff;stop-opacity:.588235" offset="0"/><stop style="stop-color:#fff;stop-opacity:.862745" offset="1"/></linearGradient><linearGradient gradientUnits="userSpaceOnUse" y2="169.681" x2="494.345" y1="387.958" x1="0" id="j" xlink:href="#a" gradientTransform="matrix(0 -.22656 .22656 0 1.019 120)"/><linearGradient id="a"><stop offset="0" style="stop-color:#dc195b;stop-opacity:1"/><stop offset="1" style="stop-color:#a91326;stop-opacity:1"/></linearGradient><linearGradient gradientUnits="userSpaceOnUse" y2="169.681" x2="494.345" y1="386.308" x1="-2.207" id="k" xlink:href="#b" gradientTransform="matrix(0 -.20229 .19566 0 9.607 114)"/><linearGradient id="b"><stop style="stop-color:#f2f2f2;stop-opacity:1" offset="0"/><stop style="stop-color:#f9f9f9;stop-opacity:1" offset="1"/></linearGradient><linearGradient xlink:href="#c" id="l" gradientUnits="userSpaceOnUse" gradientTransform="matrix(3.75 0 0 3.92857 -13518.496 3083.864)" x1="3618.438" y1="-758.638" x2="3618.438" y2="-772.638"/><linearGradient xlink:href="#d" id="m" gradientUnits="userSpaceOnUse" x1="3716.744" y1="691.79" x2="3716.477" y2="701.098" gradientTransform="matrix(3.76028 0 0 3.76028 -13920.746 -2542.83)"/><linearGradient id="d"><stop offset="0" style="stop-color:#d21b58;stop-opacity:1"/><stop offset="1" style="stop-color:#a91326;stop-opacity:1"/></linearGradient><linearGradient id="e"><stop style="stop-color:#000;stop-opacity:1" offset="0"/><stop style="stop-color:#000;stop-opacity:0" offset="1"/></linearGradient><linearGradient xlink:href="#f" id="p" x1="208" y1="76" x2="182.595" y2="101.92" gradientUnits="userSpaceOnUse" gradientTransform="matrix(.5 0 0 .5 -12 -14)"/><linearGradient id="f"><stop style="stop-color:#259dd1;stop-opacity:1" offset="0"/><stop style="stop-color:#75b4d1;stop-opacity:1" offset="1"/></linearGradient><linearGradient xlink:href="#g" id="q" x1="176.003" y1="107.999" x2="207.501" y2="76.501" gradientUnits="userSpaceOnUse" gradientTransform="matrix(.5 0 0 .5 -12 -14)"/><linearGradient id="g"><stop offset="0" style="stop-color:#eb4780;stop-opacity:1"/><stop offset="1" style="stop-color:#ae1327;stop-opacity:1"/></linearGradient><filter style="color-interpolation-filters:sRGB" id="h" x="-.014" width="1.029" y="-.011" height="1.023"><feGaussianBlur stdDeviation="2.12"/></filter><filter style="color-interpolation-filters:sRGB" id="i" x="-.058" width="1.116" y="-.045" height="1.091"><feGaussianBlur stdDeviation="8.48"/></filter><filter style="color-interpolation-filters:sRGB" id="o" x="-.037" width="1.074" y="-.036" height="1.072"><feGaussianBlur stdDeviation=".99"/></filter><radialGradient xlink:href="#e" id="n" cx="179.993" cy="103.282" fx="179.993" fy="103.282" r="35.069" gradientTransform="matrix(1.36873 0 0 1.35286 -139.166 -129.021)" gradientUnits="userSpaceOnUse"/></defs><path style="color:#000;display:inline;overflow:visible;visibility:visible;opacity:.1;fill:#000;fill-opacity:1;fill-rule:nonzero;stroke:none;stroke-width:2;marker:none;filter:url(#h);enable-background:accumulate" d="M189.843 74c-70.593 0-78.189 7.25-77.843 77.987v292.026c-.346 70.736 7.25 77.987 77.843 77.987h196.314c70.593 0 76.006-7.274 77.843-77.987V200L336 74z" transform="matrix(.25 0 0 .25 -8 -10)"/><path d="M189.843 74c-70.593 0-78.189 7.25-77.843 77.987v292.026c-.346 70.736 7.25 77.987 77.843 77.987h196.314C456.75 522 464 514.75 464 444.013V202L336 74z" style="color:#000;display:inline;overflow:visible;visibility:visible;opacity:.1;fill:#000;fill-opacity:1;fill-rule:nonzero;stroke:none;stroke-width:2;marker:none;filter:url(#i);enable-background:accumulate" transform="matrix(.25 0 0 .25 -8 -10)"/><path style="color:#000;display:inline;overflow:visible;visibility:visible;fill:url(#j);fill-opacity:1;fill-rule:nonzero;stroke:none;stroke-width:.5;marker:none;enable-background:accumulate" d="M39.46 8C21.813 8 19.915 9.813 20 27.497v73.006C19.914 118.187 21.812 120 39.46 120h49.08c17.648 0 19.46-1.813 19.46-19.497V40L76 8z"/><path style="color:#000;display:inline;overflow:visible;visibility:visible;opacity:.4;fill:#fff;fill-opacity:1;fill-rule:nonzero;stroke:none;stroke-width:.5;marker:none;enable-background:accumulate" d="M39.46 8C21.814 8 19.915 9.813 20 27.497v1C19.914 10.813 21.813 9 39.46 9H76V8z"/><path style="color:#000;display:inline;overflow:visible;visibility:visible;fill:url(#k);fill-opacity:1;fill-rule:nonzero;stroke:none;stroke-width:.5;marker:none;enable-background:accumulate" d="M42.806 14C26 14 26 14 26 31.408v65.184C26 114 26 114 42.806 114h42.385c16.809 0 16.806 0 16.806-17.408V38.571L78.362 14z"/><path style="display:inline;overflow:visible;visibility:visible;fill:url(#l);fill-opacity:1;fill-rule:nonzero;stroke:none;stroke-width:2.5;marker:none;enable-background:new" d="M34.001 48.5h60v55h-60z"/><path style="display:inline;overflow:visible;visibility:visible;fill:#f2b5b5;fill-opacity:1;fill-rule:nonzero;stroke:none;stroke-width:2.5;marker:none;enable-background:new" d="M36.501 48.5v5h-2.5V56h2.5v40h-2.5v2.5h2.5v5h2.5v-5h50v5h2.5v-5h2.5V96h-2.5V56h2.5v-2.5h-2.5v-5h-2.5v5h-50v-5zm2.5 7.5h50v40h-50z"/><path style="font-style:normal;font-variant:normal;font-weight:400;font-stretch:normal;font-size:8px;font-family:Symbol;display:inline;fill:url(#m);fill-opacity:1;stroke:none;stroke-width:3.76027;enable-background:new" d="m55.232 58.491-4.375 27.5-4.375-12.5h-6.25v4.25h3l5 15.75h6l5.25-31h23.25v3.5h3.75v-7.5zM64.002 71a2.5 2.5 0 0 0-1.769.732 2.5 2.5 0 0 0 0 3.536l6.983 6.982-6.983 6.982a2.5 2.5 0 0 0 0 3.536 2.5 2.5 0 0 0 3.537 0l6.982-6.983 6.981 6.983a2.5 2.5 0 0 0 3.537 0 2.5 2.5 0 0 0 0-3.536l-6.983-6.982 6.983-6.982a2.5 2.5 0 0 0 0-3.536A2.5 2.5 0 0 0 81.502 71a2.5 2.5 0 0 0-1.769.732l-6.981 6.983-6.982-6.983A2.5 2.5 0 0 0 64.002 71z"/><path style="color:#000;display:inline;overflow:visible;visibility:visible;opacity:.1;fill:#fff;fill-opacity:1;fill-rule:nonzero;stroke:none;stroke-width:.5;marker:none;enable-background:accumulate" d="M64 8v112h24.54c17.647 0 19-1.818 19.46-19.497V40L76 8z"/><path style="color:#000;display:inline;overflow:visible;visibility:visible;opacity:.1;fill:#fff;fill-opacity:1;fill-rule:nonzero;stroke:none;stroke-width:.5;marker:none;enable-background:accumulate" d="M20 64v36.503C19.914 118.187 21.813 120 39.46 120h49.08c17.647 0 19-1.818 19.46-19.497V64z"/><path style="color:#000;display:inline;overflow:visible;visibility:visible;opacity:.1;fill:#fff;fill-opacity:1;fill-rule:nonzero;stroke:none;stroke-width:4;stroke-linecap:butt;stroke-linejoin:miter;stroke-miterlimit:4;stroke-dasharray:none;stroke-dashoffset:0;stroke-opacity:1;marker:none;enable-background:accumulate" d="m78 120 30-30v11.242C107.974 118.24 106.099 120 88.913 120z"/><path style="color:#000;display:inline;overflow:visible;visibility:visible;opacity:.1;fill:url(#n);fill-opacity:1;fill-rule:nonzero;stroke:none;stroke-width:1;marker:none;filter:url(#filter2553);enable-background:accumulate" d="m167.196 16.705-64-66 .003 24.998v1.537c0 35.295 1.626 39.632 36.994 39.46z" transform="matrix(.5 0 0 .5 24.402 32.648)"/><path style="color:#000;display:inline;overflow:visible;visibility:visible;opacity:.1;fill:#000;fill-opacity:1;fill-rule:nonzero;stroke:none;stroke-width:1;marker:none;filter:url(#o);enable-background:accumulate" d="M167.196 16.705v-2l-64-64V-22.76c0 34.464 4 39.464 36.994 39.459z" transform="matrix(.5 0 0 .5 24.402 32.648)"/><path style="color:#000;display:inline;overflow:visible;visibility:visible;fill:url(#p);fill-opacity:1;fill-rule:nonzero;stroke:none;stroke-width:.5;marker:none;enable-background:accumulate" d="M107.999 39.997 76 8v12.268c0 17.647 1.813 19.816 19.498 19.73z"/><path style="color:#000;display:inline;overflow:visible;visibility:visible;fill:#fff;fill-opacity:1;fill-rule:nonzero;stroke:none;stroke-width:.5;marker:none;enable-background:accumulate" d="M107.999 39.997 76 8v12.268c0 17.647 1.813 19.816 19.498 19.73z"/><path style="color:#000;display:inline;overflow:visible;visibility:visible;fill:url(#q);fill-opacity:1;fill-rule:nonzero;stroke:none;stroke-width:.5;marker:none;enable-background:accumulate" d="M107.999 39.997 76 8v12.268c0 17.647 1.813 19.816 19.498 19.73z"/><path style="display:inline;opacity:.2;fill:#000;fill-opacity:1;stroke:none;stroke-width:4.53165;stroke-linecap:round;stroke-linejoin:round;stroke-miterlimit:4;stroke-dasharray:none;stroke-opacity:1;enable-background:new" d="M102 40h6v.5h-6z"/><rect transform="matrix(0 -1 -1 0 0 0)" style="display:inline;opacity:.2;fill:#000;fill-opacity:1;stroke:none;stroke-width:1.03448;stroke-opacity:.25098;enable-background:new" width="30" height="30" x="-128" y="-120" rx="15" ry="15"/><rect ry="15" rx="15" y="-120" x="-127" height="30" width="30" style="display:inline;fill:#e95420;fill-opacity:1;stroke:none;stroke-width:1.03448;stroke-opacity:.25098;enable-background:new" transform="matrix(0 -1 -1 0 0 0)"/><g style="display:inline;enable-background:new" transform="translate(-231 -36)"><path style="opacity:1;fill:#fff;fill-opacity:1;stroke:none;stroke-width:1;stroke-linecap:butt;stroke-linejoin:round;stroke-miterlimit:4;stroke-dasharray:none;stroke-dashoffset:1;stroke-opacity:1" d="M329 146h14v10h-14z"/><rect ry="4.5" y="138.5" x="331.5" height="14" width="9" style="opacity:1;fill:none;fill-opacity:1;stroke:#fff;stroke-width:1;stroke-linecap:butt;stroke-linejoin:round;stroke-miterlimit:4;stroke-dasharray:none;stroke-dashoffset:1;stroke-opacity:1" rx="4.5"/><path style="color:#000;font-style:normal;font-variant:normal;font-weight:400;font-stretch:normal;font-size:medium;line-height:normal;font-family:sans-serif;font-variant-ligatures:none;font-variant-position:normal;font-variant-caps:normal;font-variant-numeric:normal;font-variant-alternates:normal;font-feature-settings:normal;text-indent:0;text-align:start;text-decoration:none;text-decoration-line:none;text-decoration-style:solid;text-decoration-color:#000;letter-spacing:normal;word-spacing:normal;text-transform:none;writing-mode:lr-tb;direction:ltr;baseline-shift:baseline;text-anchor:start;white-space:normal;shape-padding:0;clip-rule:nonzero;display:inline;overflow:visible;visibility:visible;opacity:1;isolation:auto;mix-blend-mode:normal;color-interpolation:sRGB;color-interpolation-filters:linearRGB;solid-color:#000;solid-opacity:1;fill:#e95420;fill-opacity:1;fill-rule:nonzero;stroke:none;stroke-width:4.89898;stroke-linecap:butt;stroke-linejoin:miter;stroke-miterlimit:4;stroke-dasharray:none;stroke-dashoffset:0;stroke-opacity:1;marker:none;color-rendering:auto;image-rendering:auto;shape-rendering:auto;text-rendering:auto;enable-background:accumulate" d="M337 149v4h-2v-4z"/></g></svg>