<svg height="128" width="128" xmlns:xlink="http://www.w3.org/1999/xlink" xmlns="http://www.w3.org/2000/svg"><defs><linearGradient id="i" x1="0" y1="0" x2="1" y2="0" gradientUnits="userSpaceOnUse" gradientTransform="rotate(-90 358.723 -175.575) scale(64.473)"><stop offset="0" style="stop-color:#f0bc6f;stop-opacity:1"/><stop offset="1" style="stop-color:#f9eab5;stop-opacity:1"/></linearGradient><linearGradient id="k" x1="0" y1="0" x2="1" y2="0" gradientUnits="userSpaceOnUse" gradientTransform="rotate(-90 387.22 -166.714) scale(63.914)"><stop offset="0" style="stop-color:#f5ce53;stop-opacity:1"/><stop offset="1" style="stop-color:#fde9a9;stop-opacity:1"/></linearGradient><linearGradient gradientUnits="userSpaceOnUse" y2="169.68" x2="492.138" y1="386.307" x1="0" id="g" xlink:href="#a" gradientTransform="matrix(0 -.22656 .22656 0 1.019 120)"/><linearGradient id="a"><stop offset="0" style="stop-color:#edaa00;stop-opacity:1"/><stop offset="1" style="stop-color:#cf8b2c;stop-opacity:1"/></linearGradient><linearGradient gradientUnits="userSpaceOnUse" y2="169.681" x2="494.345" y1="386.308" x1="-2.207" id="h" xlink:href="#b" gradientTransform="matrix(0 -.20229 .19566 0 9.607 114)"/><linearGradient id="b"><stop style="stop-color:#f2f2f2;stop-opacity:1" offset="0"/><stop style="stop-color:#f9f9f9;stop-opacity:1" offset="1"/></linearGradient><linearGradient id="j" x1="0" y1="0" x2="1" y2="0" gradientUnits="userSpaceOnUse" gradientTransform="rotate(90 6.867 66.118) scale(41.2765)"><stop offset="0" style="stop-color:#f4dd79;stop-opacity:1"/><stop offset="1" style="stop-color:#e6b100;stop-opacity:1"/></linearGradient><linearGradient id="c"><stop style="stop-color:#000;stop-opacity:1" offset="0"/><stop style="stop-color:#000;stop-opacity:0" offset="1"/></linearGradient><linearGradient xlink:href="#d" id="n" x1="208" y1="76" x2="182.595" y2="101.92" gradientUnits="userSpaceOnUse" gradientTransform="matrix(.5 0 0 .5 -12 -14)"/><linearGradient id="d"><stop style="stop-color:#259dd1;stop-opacity:1" offset="0"/><stop style="stop-color:#75b4d1;stop-opacity:1" offset="1"/></linearGradient><linearGradient xlink:href="#a" id="o" x1="176.003" y1="107.999" x2="207.749" y2="76.253" gradientUnits="userSpaceOnUse" gradientTransform="matrix(.5 0 0 .5 -12 -14)"/><filter style="color-interpolation-filters:sRGB" id="e" x="-.014" width="1.029" y="-.011" height="1.023"><feGaussianBlur stdDeviation="2.12"/></filter><filter style="color-interpolation-filters:sRGB" id="f" x="-.058" width="1.116" y="-.045" height="1.091"><feGaussianBlur stdDeviation="8.48"/></filter><filter style="color-interpolation-filters:sRGB" id="m" x="-.037" width="1.074" y="-.036" height="1.072"><feGaussianBlur stdDeviation=".99"/></filter><radialGradient xlink:href="#c" id="l" cx="179.993" cy="103.282" fx="179.993" fy="103.282" r="35.069" gradientTransform="matrix(1.36873 0 0 1.35286 -105.32 -66.029)" gradientUnits="userSpaceOnUse"/></defs><path style="color:#000;display:inline;overflow:visible;visibility:visible;opacity:.1;fill:#000;fill-opacity:1;fill-rule:nonzero;stroke:none;stroke-width:2;marker:none;filter:url(#e);enable-background:accumulate" d="M189.843 74c-70.593 0-78.189 7.25-77.843 77.987v292.026c-.346 70.736 7.25 77.987 77.843 77.987h196.314c70.593 0 76.006-7.274 77.843-77.987V200L336 74z" transform="matrix(.25 0 0 .25 -8 -10)"/><path d="M189.843 74c-70.593 0-78.189 7.25-77.843 77.987v292.026c-.346 70.736 7.25 77.987 77.843 77.987h196.314C456.75 522 464 514.75 464 444.013V202L336 74z" style="color:#000;display:inline;overflow:visible;visibility:visible;opacity:.1;fill:#000;fill-opacity:1;fill-rule:nonzero;stroke:none;stroke-width:2;marker:none;filter:url(#f);enable-background:accumulate" transform="matrix(.25 0 0 .25 -8 -10)"/><path style="color:#000;display:inline;overflow:visible;visibility:visible;fill:url(#g);fill-opacity:1;fill-rule:nonzero;stroke:none;stroke-width:.5;marker:none;enable-background:accumulate" d="M39.46 8C21.813 8 19.915 9.813 20 27.497v73.006C19.914 118.187 21.812 120 39.46 120h49.08c17.648 0 19.46-1.813 19.46-19.497V40L76 8z"/><path style="color:#000;display:inline;overflow:visible;visibility:visible;opacity:.4;fill:#fff;fill-opacity:1;fill-rule:nonzero;stroke:none;stroke-width:.5;marker:none;enable-background:accumulate" d="M39.46 8C21.814 8 19.915 9.813 20 27.497v1C19.914 10.813 21.813 9 39.46 9H76V8z"/><path style="color:#000;display:inline;overflow:visible;visibility:visible;fill:url(#h);fill-opacity:1;fill-rule:nonzero;stroke:none;stroke-width:.5;marker:none;enable-background:accumulate" d="M42.806 14C26 14 26 14 26 31.408v65.184C26 114 26 114 42.806 114h42.385c16.809 0 16.806 0 16.806-17.408V38.571L78.362 14z"/><g style="clip-rule:evenodd;display:inline;fill-rule:evenodd;enable-background:new"><path d="M543.507 190.517c19.33 0 35-15.67 35-35s-15.67-35-35-35-35 15.67-35 35 15.67 35 35 35z" style="fill:url(#i);fill-rule:nonzero;stroke:#cb851d;stroke-width:5px" transform="matrix(.5 0 0 .5 -219.004 -11.002)"/></g><g style="clip-rule:evenodd;display:inline;fill-rule:evenodd;enable-background:new"><path d="M543.508 183.021c15.188 0 27.5-12.312 27.5-27.5 0-15.187-12.312-27.5-27.5-27.5-15.187 0-27.5 12.313-27.5 27.5 0 15.188 12.313 27.5 27.5 27.5z" style="fill:#f0c46f;fill-opacity:.6;fill-rule:nonzero" transform="matrix(.5 0 0 .5 -219.004 -11.002)"/></g><path d="M88.25 86.749h-18.5a4.5 4.5 0 0 1-4.5-4.5v-18.5a4.5 4.5 0 0 1 4.5-4.5h18.5a4.5 4.5 0 0 1 4.5 4.5v18.5a4.5 4.5 0 0 1-4.5 4.5z" style="clip-rule:evenodd;display:inline;fill:url(#j);fill-rule:nonzero;stroke:#876900;stroke-width:2.5px;stroke-linecap:round;stroke-linejoin:round;enable-background:new"/><path d="M85.5 62.998h-13a3.5 3.5 0 0 0-3.5 3.5v13a3.5 3.5 0 0 0 3.5 3.5h13a3.5 3.5 0 0 0 3.5-3.5v-13a3.5 3.5 0 0 0-3.5-3.5z" style="clip-rule:evenodd;display:inline;fill:#ecba14;fill-opacity:.6;fill-rule:nonzero;stroke-width:.5;enable-background:new"/><g style="clip-rule:evenodd;display:inline;fill-rule:evenodd;enable-background:new"><path d="M585.067 206.783c3.69 5.997-.624 13.717-7.665 13.717h-47.787c-7.041 0-11.356-7.72-7.665-13.717l23.894-38.828c3.514-5.71 11.815-5.71 15.329.001z" style="fill:url(#k);fill-rule:nonzero;stroke:#c99c00;stroke-width:5px;stroke-linecap:round;stroke-linejoin:round" transform="matrix(.5 0 0 .5 -219.004 -11.002)"/></g><g style="clip-rule:evenodd;display:inline;fill-rule:evenodd;enable-background:new"><path d="M578.923 209.408c1.636 2.665-.281 6.092-3.409 6.092h-44.011c-3.128 0-5.045-3.427-3.409-6.092l22.005-35.854c1.562-2.543 5.257-2.543 6.819 0z" style="fill:#f5ce53;fill-opacity:.6;fill-rule:nonzero" transform="matrix(.5 0 0 .5 -219.004 -11.002)"/></g><path d="M68.756 84.62a4.499 4.499 0 0 0 3.825 2.128h15.67a4.5 4.5 0 0 0 4.5-4.5v-18.5a4.5 4.5 0 0 0-4.5-4.5H69.79a4.5 4.5 0 0 0-4.5 4.54l.124 14.2c.007.825.24 1.631.675 2.332z" style="clip-rule:evenodd;display:inline;fill:none;fill-rule:nonzero;stroke:#b28a00;stroke-width:2.5px;stroke-linecap:round;stroke-linejoin:round;stroke-opacity:1;enable-background:new"/><path style="color:#000;display:inline;overflow:visible;visibility:visible;opacity:.1;fill:#fff;fill-opacity:1;fill-rule:nonzero;stroke:none;stroke-width:.5;marker:none;enable-background:accumulate" d="M64 8v112h24.54c17.647 0 19-1.818 19.46-19.497V40L76 8z"/><path style="color:#000;display:inline;overflow:visible;visibility:visible;opacity:.1;fill:#fff;fill-opacity:1;fill-rule:nonzero;stroke:none;stroke-width:.5;marker:none;enable-background:accumulate" d="M20 64v36.503C19.914 118.187 21.813 120 39.46 120h49.08c17.647 0 19-1.818 19.46-19.497V64z"/><path style="color:#000;display:inline;overflow:visible;visibility:visible;opacity:.1;fill:#fff;fill-opacity:1;fill-rule:nonzero;stroke:none;stroke-width:4;stroke-linecap:butt;stroke-linejoin:miter;stroke-miterlimit:4;stroke-dasharray:none;stroke-dashoffset:0;stroke-opacity:1;marker:none;enable-background:accumulate" d="m78 120 30-30v11.242C107.974 118.24 106.099 120 88.913 120z"/><path style="color:#000;display:inline;overflow:visible;visibility:visible;opacity:.1;fill:url(#l);fill-opacity:1;fill-rule:nonzero;stroke:none;stroke-width:1;marker:none;filter:url(#filter2553);enable-background:accumulate" d="m201.041 79.697-64-66 .003 24.999v1.537c0 35.294 1.626 39.632 36.994 39.459z" transform="matrix(.5 0 0 .5 7.48 1.151)"/><path style="color:#000;display:inline;overflow:visible;visibility:visible;opacity:.1;fill:#000;fill-opacity:1;fill-rule:nonzero;stroke:none;stroke-width:1;marker:none;filter:url(#m);enable-background:accumulate" d="M201.041 79.697v-2l-64-64v26.536c0 34.464 4 39.464 36.994 39.46z" transform="matrix(.5 0 0 .5 7.48 1.151)"/><path style="color:#000;display:inline;overflow:visible;visibility:visible;fill:url(#n);fill-opacity:1;fill-rule:nonzero;stroke:none;stroke-width:.5;marker:none;enable-background:accumulate" d="M107.999 39.997 76 8v12.268c0 17.647 1.813 19.816 19.498 19.73z"/><path style="color:#000;display:inline;overflow:visible;visibility:visible;fill:#fff;fill-opacity:1;fill-rule:nonzero;stroke:none;stroke-width:.5;marker:none;enable-background:accumulate" d="M107.999 39.997 76 8v12.268c0 17.647 1.813 19.816 19.498 19.73z"/><path style="color:#000;display:inline;overflow:visible;visibility:visible;fill:url(#o);fill-opacity:1;fill-rule:nonzero;stroke:none;stroke-width:.5;marker:none;enable-background:accumulate" d="M107.999 39.997 76 8v12.268c0 17.647 1.813 19.816 19.498 19.73z"/><path style="display:inline;opacity:.2;fill:#000;fill-opacity:1;stroke:none;stroke-width:4.53165;stroke-linecap:round;stroke-linejoin:round;stroke-miterlimit:4;stroke-dasharray:none;stroke-opacity:1;enable-background:new" d="M102 40h6v.5h-6z"/><rect transform="matrix(0 -1 -1 0 0 0)" style="display:inline;opacity:.2;fill:#000;fill-opacity:1;stroke:none;stroke-width:1.03448;stroke-opacity:.25098;enable-background:new" width="30" height="30" x="-128" y="-120" rx="15" ry="15"/><rect ry="15" rx="15" y="-120" x="-127" height="30" width="30" style="display:inline;fill:#e95420;fill-opacity:1;stroke:none;stroke-width:1.03448;stroke-opacity:.25098;enable-background:new" transform="matrix(0 -1 -1 0 0 0)"/><g style="display:inline;enable-background:new" transform="translate(-231 -36)"><path style="opacity:1;fill:#fff;fill-opacity:1;stroke:none;stroke-width:1;stroke-linecap:butt;stroke-linejoin:round;stroke-miterlimit:4;stroke-dasharray:none;stroke-dashoffset:1;stroke-opacity:1" d="M329 146h14v10h-14z"/><rect ry="4.5" y="138.5" x="331.5" height="14" width="9" style="opacity:1;fill:none;fill-opacity:1;stroke:#fff;stroke-width:1;stroke-linecap:butt;stroke-linejoin:round;stroke-miterlimit:4;stroke-dasharray:none;stroke-dashoffset:1;stroke-opacity:1" rx="4.5"/><path style="color:#000;font-style:normal;font-variant:normal;font-weight:400;font-stretch:normal;font-size:medium;line-height:normal;font-family:sans-serif;font-variant-ligatures:none;font-variant-position:normal;font-variant-caps:normal;font-variant-numeric:normal;font-variant-alternates:normal;font-feature-settings:normal;text-indent:0;text-align:start;text-decoration:none;text-decoration-line:none;text-decoration-style:solid;text-decoration-color:#000;letter-spacing:normal;word-spacing:normal;text-transform:none;writing-mode:lr-tb;direction:ltr;baseline-shift:baseline;text-anchor:start;white-space:normal;shape-padding:0;clip-rule:nonzero;display:inline;overflow:visible;visibility:visible;opacity:1;isolation:auto;mix-blend-mode:normal;color-interpolation:sRGB;color-interpolation-filters:linearRGB;solid-color:#000;solid-opacity:1;fill:#e95420;fill-opacity:1;fill-rule:nonzero;stroke:none;stroke-width:4.89898;stroke-linecap:butt;stroke-linejoin:miter;stroke-miterlimit:4;stroke-dasharray:none;stroke-dashoffset:0;stroke-opacity:1;marker:none;color-rendering:auto;image-rendering:auto;shape-rendering:auto;text-rendering:auto;enable-background:accumulate" d="M337 149v4h-2v-4z"/></g></svg>