<svg xmlns="http://www.w3.org/2000/svg" height="52" width="60"><linearGradient id="a" gradientTransform="matrix(5 0 0 .7 -218 -701.453)" gradientUnits="userSpaceOnUse" x1="50" x2="50" y1="1066.362" y2="1006.362"><stop offset="0" stop-color="#03875B"/><stop offset="1" stop-color="#a25f9e"/></linearGradient><linearGradient id="b" gradientTransform="matrix(5 0 0 1.16667 -53 -1174.756)" gradientUnits="userSpaceOnUse" x1="16" x2="16" y1="1046.362" y2="1009.505"><stop offset="0" stop-color="#03875B"/><stop offset="1" stop-color="#fe865c"/></linearGradient><path d="M0 0h60v52H0z" fill="#fff"/><path d="M7 4v21l20-6 25 12V4z" fill="url(#a)" style="fill:#03875B;fill-opacity:1"/><path d="m7 25 20-6 25 12v15H7z" fill="url(#b)" style="fill:#03875B;fill-opacity:1"/><path d="M3 45h52v1H3z" fill="#232629"/><path d="M6 3h1v46H6z" fill="#232629"/><g fill="#fff"><path d="M44 6a2 2 0 0 0-2 2 2 2 0 0 0 2 2 2 2 0 0 0 2-2 2 2 0 0 0-2-2zm0 1a1 1 0 0 1 1 1 1 1 0 0 1-1 1 1 1 0 0 1-1-1 1 1 0 0 1 1-1zM48 10a2 2 0 0 0-2 2 2 2 0 0 0 2 2 2 2 0 0 0 2-2 2 2 0 0 0-2-2zm0 1a1 1 0 0 1 1 1 1 1 0 0 1-1 1 1 1 0 0 1-1-1 1 1 0 0 1 1-1z"/><path d="m48.6 5.7-6 8 .8.6 6-8z" fill-rule="evenodd"/></g></svg>