<svg height="52" width="60" xmlns="http://www.w3.org/2000/svg"><path d="M0 0h60v52H0z" fill="#fff"/><path d="M3 45h52v1H3z" fill="#232629"/><path d="M6 3h1v46H6z" fill="#232629"/><g fill="#77216f" style="fill:#03875B"><path d="M11 1011.362h15v1H11zM25 1006.362h1v5h-1zM36 1006.362h1v31h-1z" style="fill:#03875B" transform="translate(0 -1000.362)"/><path d="M26 1006.362h12v1H26zM37 1036.362h15v1H37zM51 1027.362h1v9h-1z" style="fill:#03875B" transform="translate(0 -1000.362)"/></g><path d="M51 36H37l3-3h11z" fill="#987197" style="fill-rule:evenodd;fill:#03875B;fill-opacity:1"/><path d="M42 10v21l3-3V10z" fill="#fe865c" style="fill-rule:evenodd;fill:#03875B;fill-opacity:1"/><path d="M37 6v30l3-3V3z" fill="#945c93" style="fill-rule:evenodd;fill:#03875B;fill-opacity:1"/><path d="M37 6v30l3-3V3z" fill="#945c93" style="fill-rule:evenodd;fill:#fff;fill-opacity:1;opacity:.2"/><path d="M41 30H21l3-3h17z" fill="#fe865c" style="fill-rule:evenodd;fill:#03875B;fill-opacity:1"/><path d="M21 21v9l3-3v-9z" fill="#fe865c" style="fill-rule:evenodd;fill:#03875B;fill-opacity:1"/><path style="fill:#03875B" d="M41 9v21H21v-9H11v1h9v9h22V10h9v6h1V9H41z"/><path d="M52 9v7l3-3V6z" fill="#fe865c" style="fill-rule:evenodd;fill:#03875B;fill-opacity:1"/><path d="M37 6H25l3-3h12zM25 11H11l3-3h11z" fill="#987197" style="fill-rule:evenodd;fill:#03875B;fill-opacity:1"/><path d="M26 7v5l3-3V7z" fill="#945c93" style="fill-rule:evenodd;fill:#03875B"/><path d="M52 27v10l3-3v-7z" fill="#945c93" style="fill-rule:evenodd;fill:#03875B;fill-opacity:1"/><g fill="#fe865c" style="fill-rule:evenodd;fill:#03875B;fill-opacity:1"><path d="M21 1021.362H11l3-3h10zM52 1009.362H41l3-3h11z" style="fill:#03875B;fill-opacity:1" transform="translate(0 -1000.362)"/></g><path d="M41 30H21l3-3h17z" fill="#fe865c" style="fill-rule:evenodd;fill:#fff;fill-opacity:1;opacity:.6"/><g fill="#fe865c" style="fill-rule:evenodd;fill:#fff;fill-opacity:1;opacity:.6"><path d="M21 1021.362H11l3-3h10zM52 1009.362H41l3-3h11z" style="fill:#fff;fill-opacity:1" transform="translate(0 -1000.362)"/></g><path d="M42 10v21l3-3V10zM21 21v9l3-3v-9zM52 9v7l3-3V6z" fill="#fe865c" style="fill-rule:evenodd;fill:#fff;fill-opacity:1;opacity:.5"/><path style="fill:#fff;opacity:.4" d="M41 9v21H21v-9H11v1h9v9h22V10h9v6h1V9H41z"/><path d="M51 36H37l3-3h11zM37 6H25l3-3h12zM25 11H11l3-3h11z" fill="#987197" style="fill-rule:evenodd;fill:#fff;fill-opacity:1;opacity:.3"/><path d="M26 7v5l3-3V7z" fill="#945c93" style="fill-rule:evenodd;fill:#fff;opacity:.2"/><path d="M52 27v10l3-3v-7z" fill="#945c93" style="fill-rule:evenodd;fill:#fff;fill-opacity:1;opacity:.2"/></svg>