<svg xmlns="http://www.w3.org/2000/svg" height="52" width="60"><radialGradient id="a" cx="30" cy="1026.362" gradientTransform="matrix(1 0 0 .93478 0 -934.926)" gradientUnits="userSpaceOnUse" r="23"><stop offset="0" stop-color="#03875B"/><stop offset="1" stop-color="#a25f9e"/></radialGradient><radialGradient id="b" cx="30" cy="21.246" gradientTransform="matrix(-1.41504 0 0 -1.32276 72.451 52.603)" gradientUnits="userSpaceOnUse" r="16.254"><stop offset="0" stop-color="#03875B"/><stop offset="1" stop-color="#fe865c"/></radialGradient><path d="M0 0h60v52H0z" fill="#fff"/><path d="M7.031 25.084A23 23 0 0 0 7 26a23 23 0 0 0 6.75 16.256v-2.567h-.004a23 21.5 0 0 1-6.715-14.605zm45.932.193a23 21.5 0 0 1-6.71 14.416h-.003v2.567A23 23 0 0 0 53 26.004a23 23 0 0 0-.037-.727z" fill="#987197" style="fill:#a6599f;fill-opacity:1"/><path d="M13.75 38.565v3.69A23 23 0 0 0 30 49a23 23 0 0 0 16.25-6.744v-3.691z" fill="#fe865c" style="fill:#f39472;fill-opacity:1"/><path d="M30 3A23 21.5 0 0 0 7 24.5a23 21.5 0 0 0 6.746 15.194L30 24.5l16.254 15.194A23 21.5 0 0 0 53 24.5 23 21.5 0 0 0 30 3zm16.246 36.701a23 21.5 0 0 1-1.062.913 23 21.5 0 0 0 1.062-.913zm-32.453.033a23 21.5 0 0 0 1.635 1.384 23 21.5 0 0 1-1.635-1.384zm30.889 1.29a23 21.5 0 0 1-1.325.945 23 21.5 0 0 0 1.325-.944zm-29.084.215a23 21.5 0 0 0 1.662 1.146 23 21.5 0 0 1-1.662-1.146zm27.213 1.095a23 21.5 0 0 1-1.354.778 23 21.5 0 0 0 1.354-.778zm-25.249.226a23 21.5 0 0 0 1.641.911 23 21.5 0 0 1-1.64-.91zm23.27.888a23 21.5 0 0 1-1.38.624 23 21.5 0 0 0 1.38-.624zm-21.088.268a23 21.5 0 0 0 1.522.663 23 21.5 0 0 1-1.522-.663zm18.99.656a23 21.5 0 0 1-1.377.47 23 21.5 0 0 0 1.377-.47zm-16.798.235a23 21.5 0 0 0 1.488.486 23 21.5 0 0 1-1.488-.486zm14.615.486a23 21.5 0 0 1-1.373.328 23 21.5 0 0 0 1.373-.328zm-12.348.186a23 21.5 0 0 0 1.432.321 23 21.5 0 0 1-1.432-.321zm10.104.325A23 21.5 0 0 1 33 45.79a23 21.5 0 0 0 1.307-.186zm-7.752.126a23 21.5 0 0 0 1.345.172 23 21.5 0 0 1-1.345-.172zm5.424.175A23 21.5 0 0 1 30 46a23 21.5 0 0 0 1.979-.095z" fill="url(#a)" style="fill:#03875B;fill-opacity:1"/><path d="M30 24.5 13.746 39.694A23 21.5 0 0 0 30 46a23 21.5 0 0 0 16.254-6.306z" fill="url(#b)" fill-rule="evenodd" style="fill:#03875B;fill-opacity:1"/></svg>