<svg height="52" width="60" xmlns="http://www.w3.org/2000/svg"><path d="M0 0h60v52H0z" fill="#fff"/><path d="M3 45h52v1H3z" fill="#232629"/><path d="M6 3h1v46H6z" fill="#232629"/><path d="M11 37h1v1h-1zM11 22v1h-1v1h1v1h1v-1h1v-1h-1v-1z" fill="#fff"/><path d="M11.5 23.5s7.055-10.772 12-12c4.945-1.228 8.156 4.75 13 4 4.845-.75 13-9 13-9" stroke="#77216f" style="fill:none;stroke:#03875B"/><path d="M11.5 37.5s7.78-5.997 12-8c4.219-2.003 8.516-3.326 13-4 4.285-.645 13 0 13 0" stroke="#e95420" style="fill:none;stroke:#03875B"/><path d="M11.5 37.5s7.78-5.997 12-8c4.219-2.003 8.516-3.326 13-4 4.285-.645 13 0 13 0" stroke="#e95420" style="fill:none;stroke:#fff;opacity:.4"/></svg>