<svg xmlns="http://www.w3.org/2000/svg" xmlns:xlink="http://www.w3.org/1999/xlink" height="52" width="60"><linearGradient id="b"><stop offset="0" stop-color="#657B69"/><stop offset="1" stop-color="#fe865c"/></linearGradient><linearGradient id="c" gradientTransform="matrix(0 1.33333 -1.1 0 1158.998 -31)" gradientUnits="userSpaceOnUse" x1="49.5" x2="49.5" xlink:href="#a" y1="1046.362" y2="1016.362"/><linearGradient id="a"><stop offset="0" stop-color="#657B69"/><stop offset="1" stop-color="#a25f9e"/></linearGradient><linearGradient id="d" gradientTransform="matrix(0 1.33333 -1.16667 0 1224.756 17)" gradientUnits="userSpaceOnUse" x1="16.5" x2="16.5" xlink:href="#b" y1="1046.362" y2="1028.362"/><linearGradient id="e" gradientTransform="matrix(0 1.33333 -.9 0 949.726 -49)" gradientUnits="userSpaceOnUse" x1="49.5" x2="49.5" xlink:href="#a" y1="1046.362" y2="1016.362"/><linearGradient id="f" gradientTransform="matrix(0 1.33333 -.5 0 527.181 -1)" gradientUnits="userSpaceOnUse" x1="16.5" x2="16.5" xlink:href="#b" y1="1046.362" y2="1028.362"/><path d="M0 0h60v52H0z" fill="#fff"/><path d="M0 0h60v52H0z" fill="#fff"/><path d="M14 37 2 49" fill="none" stroke="#232629"/><path d="M13 37h46v.987H13z" fill="#232629"/><path d="M13 2h1v36h-1z" fill="#232629"/><path d="M41 29v12H8V29z" fill="url(#c)" style="fill:#657B69;fill-opacity:1"/><path d="M25 33v12H4V33z" fill="url(#d)" style="fill:#657B69;fill-opacity:1"/><path d="M35 11v12H8V11z" fill="url(#e)" style="fill:#657B69;fill-opacity:1"/><path d="M41 29H8l3-3h33z" fill="#987197" fill-rule="evenodd" style="fill:#b87ab2;fill-opacity:1"/><path d="M13 15v12H4V15z" fill="url(#f)" style="fill:#657B69;fill-opacity:1"/><path d="M25 33H4l3-3h21z" fill="#fe865c" style="fill-rule:evenodd;fill:#f39472;fill-opacity:1"/><path d="M41 29v12l3-3V26z" fill="#945c93" style="fill-rule:evenodd;fill:#a6599f;fill-opacity:1"/><path d="M25 33v12l3-3V30z" fill="#fe865c" style="fill-rule:evenodd;fill:#f08966;fill-opacity:1"/><path d="M13 15H4l3-3h9z" fill="#fe865c" style="fill-rule:evenodd;fill:#f39472;fill-opacity:1"/><path d="M13 15v12l3-3V12z" fill="#fe865c" style="fill-rule:evenodd;fill:#f08966;fill-opacity:1"/><path d="M35 11H8l3-3h27z" fill="#987197" style="fill-rule:evenodd;fill:#b87ab2;fill-opacity:1"/><path d="M35 11v12l3-3V8z" fill="#945c93" style="fill-rule:evenodd;fill:#a6599f;fill-opacity:1"/></svg>