<svg height="52" width="60" xmlns:xlink="http://www.w3.org/1999/xlink" xmlns="http://www.w3.org/2000/svg"><linearGradient id="a"><stop offset="0" stop-color="#e95420"/><stop offset="1" stop-color="#fe865c"/></linearGradient><radialGradient id="c" cx="15.5" cy="1010.862" gradientUnits="userSpaceOnUse" r="4.5" xlink:href="#a" gradientTransform="translate(0 -1000.362)"/><radialGradient id="d" cx="31" cy="1036.362" gradientUnits="userSpaceOnUse" r="6" xlink:href="#a" gradientTransform="translate(0 -1000.362)"/><radialGradient id="e" cx="49" cy="1012.362" gradientUnits="userSpaceOnUse" r="3" xlink:href="#a" gradientTransform="translate(0 -1000.362)"/><radialGradient id="f" cx="13.5" cy="1034.862" gradientUnits="userSpaceOnUse" r="4.5" xlink:href="#b" gradientTransform="translate(0 -1000.362)"/><linearGradient id="b"><stop offset="0" stop-color="#77216f"/><stop offset="1" stop-color="#a25f9e"/></linearGradient><radialGradient id="g" cx="29.5" cy="1013.862" gradientUnits="userSpaceOnUse" r="4.5" xlink:href="#b" gradientTransform="translate(0 -1000.362)"/><radialGradient id="h" cx="49" cy="1024.362" gradientUnits="userSpaceOnUse" r="6" xlink:href="#b" gradientTransform="translate(0 -1000.362)"/><path d="M0 0h60v52H0z" fill="#fff"/><path d="M3 45h52v1H3z" fill="#232629"/><path d="M6 3h1v46H6z" fill="#232629"/><circle cx="15.5" cy="10.5" fill="url(#c)" r="4.5" style="fill:#657B69;fill-opacity:1"/><circle cx="31" cy="36" fill="url(#d)" r="6" style="fill:#657B69;fill-opacity:1"/><circle cx="49" cy="12" fill="url(#e)" r="3" style="fill:#657B69;fill-opacity:1"/><circle cx="13.5" cy="34.5" fill="url(#f)" r="4.5" style="fill:#657B69;fill-opacity:1"/><circle cx="29.5" cy="13.5" fill="url(#g)" r="4.5" style="fill:#657B69;fill-opacity:1"/><circle cx="49" cy="24" fill="url(#h)" r="6" style="fill:#657B69;fill-opacity:1"/><circle cx="15.5" cy="10.5" fill="url(#c)" r="4.5" style="fill:#fff;fill-opacity:1;opacity:.4"/><circle cx="31" cy="36" fill="url(#d)" r="6" style="fill:#fff;fill-opacity:1;opacity:.4"/><circle cx="49" cy="12" fill="url(#e)" r="3" style="fill:#fff;fill-opacity:1;opacity:.4"/></svg>