<svg height="52" width="60" xmlns:xlink="http://www.w3.org/1999/xlink" xmlns="http://www.w3.org/2000/svg"><linearGradient id="b"><stop offset="0" stop-color="#e95420"/><stop offset="1" stop-color="#fe865c"/></linearGradient><linearGradient id="a"><stop offset="0" stop-color="#77216f"/><stop offset="1" stop-color="#945c93"/></linearGradient><linearGradient id="c" gradientTransform="matrix(.92308 0 0 1 2.385 -1000.362)" gradientUnits="userSpaceOnUse" x1="19" x2="19" xlink:href="#a" y1="1023.362" y2="1015.362"/><linearGradient id="d" gradientTransform="matrix(.92308 0 0 1 2.385 -1008.362)" gradientUnits="userSpaceOnUse" x1="19" x2="19" xlink:href="#b" y1="1023.362" y2="1015.362"/><linearGradient id="f" gradientTransform="matrix(.92308 0 0 1 2.385 -988.362)" gradientUnits="userSpaceOnUse" x1="19" x2="19" xlink:href="#b" y1="1023.362" y2="1015.362"/><linearGradient id="e" gradientTransform="matrix(.92308 0 0 1 2.385 -980.362)" gradientUnits="userSpaceOnUse" x1="19" x2="19" xlink:href="#a" y1="1023.362" y2="1015.362"/><path d="M0 0h60v52H0z" fill="#fff"/><g fill="#232629"><path d="m11.646 39.646-9 9 .708.707 9-9z" fill-rule="evenodd"/><path d="M11 40.006h46v.988H11zM9 3h1v38H9z"/></g><path d="M7 15c-1.097-.125-2 1.79-2 4s.895 4 2 4l35-4z" fill="url(#c)" style="fill:#657B69;fill-opacity:1"/><path d="M7 7c-1.08-.228-2 1.79-2 4s.895 4 2 4l19-4z" fill="url(#d)" style="fill:#657B69;fill-opacity:1"/><path d="M7 35c-1.1-.11-2 1.79-2 4s.895 4 2 4l40-4z" fill="url(#e)" style="fill:#657B69;fill-opacity:1"/><path d="M7 27c-1.093-.156-2 1.79-2 4s.895 4 2 4l28-4z" fill="url(#f)" style="fill:#657B69;fill-opacity:1"/><path d="M7 7c-1.08-.228-2 1.79-2 4s.895 4 2 4l19-4z" fill="url(#d)" style="fill:#fff;fill-opacity:1;opacity:.4"/><path d="M7 27c-1.093-.156-2 1.79-2 4s.895 4 2 4l28-4z" fill="url(#f)" style="fill:#fff;fill-opacity:1;opacity:.4"/></svg>