<svg xmlns="http://www.w3.org/2000/svg" xmlns:xlink="http://www.w3.org/1999/xlink" height="52" width="60"><linearGradient id="b"><stop offset="0" stop-color="#657B69"/><stop offset="1" stop-color="#fe865c"/></linearGradient><radialGradient id="c" cx="30" cy="1026.362" gradientUnits="userSpaceOnUse" r="23" xlink:href="#a" gradientTransform="translate(0 -1000.362)"/><linearGradient id="a"><stop offset="0" stop-color="#657B69"/><stop offset="1" stop-color="#a25f9e"/></linearGradient><radialGradient id="d" cx="30" cy="1026.362" gradientUnits="userSpaceOnUse" r="14" xlink:href="#b" gradientTransform="translate(0 -1000.362)"/><radialGradient id="e" cx="30" cy="-31.107" gradientTransform="translate(-12.456 70.023) scale(1.4152)" gradientUnits="userSpaceOnUse" r="9.893" xlink:href="#a"/><radialGradient id="f" cx="30" cy="21.246" gradientTransform="matrix(-1.41504 0 0 -1.41504 72.451 56.064)" gradientUnits="userSpaceOnUse" r="16.254" xlink:href="#b"/><path d="M0 0h60v52H0z" fill="#fff"/><path d="M30 3A23 23 0 0 0 7 26a23 23 0 0 0 23 23 23 23 0 0 0 23-23A23 23 0 0 0 30 3zm0 9a14 14 0 0 1 14 14 14 14 0 0 1-14 14 14 14 0 0 1-14-14 14 14 0 0 1 14-14z" fill="url(#c)" style="fill:#657B69;fill-opacity:1"/><path d="M20.813 16.813A13 13 0 0 0 17 26a13 13 0 0 0 13 13 13 13 0 0 0 13-13 13 13 0 0 0-3.813-9.188l-5.654 5.655A5 5 0 0 1 35 26a5 5 0 0 1-5 5 5 5 0 0 1-5-5 5 5 0 0 1 1.467-3.533zm-2.39 1.336-.077.11a14 14 0 0 1 .078-.11zm-.644 1.056c-.05.09-.105.174-.152.264a14 14 0 0 1 .152-.264zm-.566 1.14c-.057.13-.12.255-.174.385a14 14 0 0 1 .174-.384zm-.484 1.25c-.05.15-.103.296-.147.446a14 14 0 0 1 .147-.445zm-.354 1.264c-.042.183-.088.365-.123.55a14 14 0 0 1 .123-.55zm-.24 1.325c-.027.202-.057.404-.074.609a14 14 0 0 1 .074-.61zM43.939 27.2a14 14 0 0 1-.09.736c.035-.244.07-.488.09-.736zm-.187 1.375a14 14 0 0 1-.18.803c.066-.266.13-.531.18-.803zm-27.473.205c.085.422.195.834.317 1.24a14 14 0 0 1-.317-1.24zm.317 1.24a14 14 0 0 0 .095.295c-.031-.099-.066-.195-.095-.294zm.095.295c.106.326.22.645.348.96a14 14 0 0 1-.348-.96zm.348.96a14 14 0 0 0 .115.28c-.04-.092-.077-.187-.115-.28zm.115.28c.17.394.353.782.557 1.155a14 14 0 0 1-.557-1.154zm26.285-1.66a14 14 0 0 1-.289.87c.104-.287.204-.574.29-.87zm-.447 1.303a14 14 0 0 1-.385.858c.136-.282.268-.566.385-.858zm-.578 1.26a14 14 0 0 1-.441.771c.153-.253.304-.507.441-.771zm-24.676.293c.215.39.447.769.698 1.135a14 14 0 0 1-.698-1.135zm23.965.922a14 14 0 0 1-.474.662c.162-.218.325-.435.474-.662zm-23.111.424c.212.298.43.592.664.873a14 14 0 0 1-.664-.873zm22.293.697a14 14 0 0 1-.545.621c.186-.204.371-.406.545-.621zm-21.31.525c.2.225.398.45.613.66a14 14 0 0 1-.614-.66zm20.405.493a14 14 0 0 1-.66.613c.225-.2.45-.4.66-.613zm-19.396.527c.204.186.407.371.621.545a14 14 0 0 1-.621-.545zm18.387.404a14 14 0 0 1-.873.664c.298-.212.592-.43.873-.664zm-17.307.484c.218.162.435.326.662.475a14 14 0 0 1-.662-.475zm16.223.336a14 14 0 0 1-1.135.698c.39-.215.769-.447 1.135-.698zm-15.117.409c.253.153.507.304.771.441a14 14 0 0 1-.771-.441zm13.94.316a14 14 0 0 1-1.153.557c.393-.17.78-.353 1.154-.557zm-1.153.557c-.093.04-.188.077-.282.115a14 14 0 0 0 .282-.115zm-.282.115a14 14 0 0 1-.959.348c.326-.105.645-.22.96-.348zm-.959.348c-.098.032-.195.066-.295.096a14 14 0 0 0 .295-.096zm-.295.096a14 14 0 0 1-1.24.316c.422-.085.834-.195 1.24-.316zm-10.078-.797c.282.135.566.267.858.384a14 14 0 0 1-.858-.384zm1.291.543c.287.104.574.203.87.289a14 14 0 0 1-.87-.29zm1.387.422c.266.066.532.129.803.18a14 14 0 0 1-.803-.18zm1.442.277c.244.034.488.069.736.09a14 14 0 0 1-.736-.09z" fill="url(#d)" style="fill:#657B69;fill-opacity:1"/><path d="M31.104 12.049a14 14 0 0 1 .501.06 14 14 0 0 0-.501-.06zm1.412.185a14 14 0 0 1 .41.092 14 14 0 0 0-.41-.092zm1.361.32a14 14 0 0 1 .371.124 14 14 0 0 0-.371-.123zM30 13a13 13 0 0 0-9.188 3.813l5.655 5.654A5 5 0 0 1 30 21a5 5 0 0 1 3.533 1.467l5.654-5.654A13 13 0 0 0 30 13zm5.227.019a14 14 0 0 1 .214.098 14 14 0 0 0-.214-.098zm1.263.584a14 14 0 0 1 .225.129 14 14 0 0 0-.225-.129z" fill="url(#e)" style="fill:#657B69;fill-opacity:1"/><path d="m20.107 35.893-6.36 6.36a23 23 0 0 0 .007.01 23 23 0 0 0 1.549 1.403 23 23 0 0 0 .176.155 23 23 0 0 0 1.627 1.2 23 23 0 0 0 .228.165 23 23 0 0 0 1.613.959 23 23 0 0 0 .393.224 23 23 0 0 0 1.566.73 23 23 0 0 0 .538.241 23 23 0 0 0 1.529.533 23 23 0 0 0 .66.221 23 23 0 0 0 1.47.352 23 23 0 0 0 .78.175 23 23 0 0 0 1.436.196 23 23 0 0 0 .863.105 23 23 0 0 0 1.818.08 23 23 0 0 0 16.158-6.658 23 23 0 0 0 .096-.088l-6.361-6.361A14 14 0 0 1 30 40a14 14 0 0 1-9.892-4.107z" fill="url(#f)" fill-rule="evenodd" style="fill:#657B69;fill-opacity:1"/></svg>