<svg height="52" width="60" xmlns="http://www.w3.org/2000/svg"><path d="M0 0h60v52H0z" fill="#fff"/><path d="M3 45h52v1H3z" fill="#232629"/><path d="M6 3h1v46H6z" fill="#232629"/><g fill="#657B69"><path d="M10 10h3v3h-3zM24 5h3v3h-3zM37 35h3v3h-3zM50 26h3v3h-3z"/></g><g fill="#657B69"><path d="M50 14h3v3h-3zM40 8h3v3h-3zM19 29h3v3h-3zM10 20h3v3h-3z"/></g><g fill="#657B69"><path d="M11 11h15v1H11zM25 6h1v5h-1zM38 6h1v31h-1z"/><path d="M26 6h13v1H26zM38 36h14v1H38zM51 27h1v9h-1z"/></g><g fill="#657B69"><path d="M11 21h10v1H11zM20 22h1v9h-1zM21 30h21v1H21z"/><path d="M41 9h1v22h-1z"/><path d="M41 9h11v1H41z"/><path d="M51 9h1v7h-1z"/></g></svg>