<svg height="52" width="60" xmlns="http://www.w3.org/2000/svg"><path d="M0 0h60v52H0z" fill="#fff"/><path d="M24.86 14.418 17 26H3c0 7.732 6.268 14 14 14a14 14 0 0 0 5.508-1.15A14 14 0 0 0 31 26a14 14 0 0 0-6.14-11.582zM22.507 38.85z" fill="#f73062" style="fill:#657B69;fill-opacity:1"/><path d="M21.598 12.795c1.158.403 2.265.948 3.279 1.639l20.736 3.939A8 8 0 0 1 48 18a8 8 0 0 1 .992.064L49 18zM45.309 33.514l-20.43 4.025c-.778.531-1.604.99-2.473 1.354l-.025.007c-.264.112-.533.21-.803.305L48 34a8 8 0 0 1-2.691-.486z" fill="#232629"/><path d="M48 18.002V26l6.158 5.072a7.997 7.997 0 0 0 1.84-5.07V26c0-4.395-3.604-7.998-7.998-7.998z" fill="#1abc9c" style="fill:#80a3fa;fill-opacity:1"/><path d="M17 12A14 14 0 0 0 3 26h14l7.86-11.582A14 14 0 0 0 17 12z" fill="#1daff8" style="fill:#657B69;fill-opacity:1"/><path d="m48 18.002-.03.004c-4.39.016-7.964 3.6-7.964 7.994 0 4.404 3.59 7.994 7.994 7.994h.002a7.968 7.968 0 0 0 6.156-2.922L48 26z" fill="#9b59b6" style="fill:#a6d74f;fill-opacity:1"/><path d="M17 12A14 14 0 0 0 3 26h14l7.86-11.582A14 14 0 0 0 17 12z" fill="#1daff8" style="fill:#fff;fill-opacity:1;opacity:.4"/></svg>