<svg height="52" width="60" xmlns="http://www.w3.org/2000/svg"><path d="M0 0h60v52H0Z" fill="#fff"/><path d="M28.324 11.898 11.098 35.202l.804.596 16.774-22.695 20.103 7.658-8.715 15.494.872.49L50.22 20.24z" fill="#77216f" fill-rule="evenodd" style="fill:#657B69"/><path d="M3 45h52v1H3Z" fill="#232629"/><path d="M6 3h1v46H6Z" fill="#232629"/><path d="M20.09 8.216 10.766 21.68 34.44 34.032l15.188-4.048-.258-.967-14.812 3.949-22.327-11.649L20.91 8.784Z" fill="#e95420" fill-rule="evenodd" style="fill:#657B69"/><path d="M20.09 8.216 10.766 21.68 34.44 34.032l15.188-4.048-.258-.967-14.812 3.949-22.327-11.649L20.91 8.784Z" fill="#e95420" fill-rule="evenodd" style="fill:#fff;opacity:.4"/></svg>