<?xml version="1.0" encoding="UTF-8" standalone="no"?>
<svg
   viewBox="0 0 56 40"
   version="1.1"
   id="svg25"
   sodipodi:docname="certificate_40x56.svg"
   inkscape:export-filename="/home/jupiter007/Libreoffice yaru theme fullcolor/build/xmlsecurity/res/certificate_40x56.png"
   inkscape:export-xdpi="96"
   inkscape:export-ydpi="96"
   inkscape:version="1.1.1 (50ffc5b540, 2022-01-11)"
   xmlns:inkscape="http://www.inkscape.org/namespaces/inkscape"
   xmlns:sodipodi="http://sodipodi.sourceforge.net/DTD/sodipodi-0.dtd"
   xmlns="http://www.w3.org/2000/svg"
   xmlns:svg="http://www.w3.org/2000/svg"
   xmlns:rdf="http://www.w3.org/1999/02/22-rdf-syntax-ns#"
   xmlns:cc="http://creativecommons.org/ns#"
   xmlns:dc="http://purl.org/dc/elements/1.1/">
  <metadata
     id="metadata31">
    <rdf:RDF>
      <cc:Work
         rdf:about="">
        <dc:format>image/svg+xml</dc:format>
        <dc:type
           rdf:resource="http://purl.org/dc/dcmitype/StillImage" />
        <dc:title />
      </cc:Work>
    </rdf:RDF>
  </metadata>
  <defs
     id="defs29" />
  <sodipodi:namedview
     pagecolor="#ffffff"
     bordercolor="#666666"
     borderopacity="1"
     objecttolerance="10"
     gridtolerance="10"
     guidetolerance="10"
     inkscape:pageopacity="0"
     inkscape:pageshadow="2"
     inkscape:window-width="1920"
     inkscape:window-height="1043"
     id="namedview27"
     showgrid="true"
     inkscape:snap-global="false"
     inkscape:zoom="5.9"
     inkscape:cx="-0.42372881"
     inkscape:cy="17.457627"
     inkscape:window-x="1920"
     inkscape:window-y="0"
     inkscape:window-maximized="1"
     inkscape:current-layer="svg25"
     inkscape:pagecheckerboard="0">
    <inkscape:grid
       type="xygrid"
       id="grid854" />
  </sodipodi:namedview>
  <linearGradient
     id="a"
     gradientTransform="matrix(.70710678 -.70710678 .70710678 .70710678 35.506097 -17.79037)"
     gradientUnits="userSpaceOnUse"
     x1="-40.514721"
     x2="-23.544157"
     y1="28.485283"
     y2="11.51472">
    <stop
       offset="0"
       stop-color="#bcfd93"
       id="stop2" />
    <stop
       offset="1"
       stop-color="#fafff5"
       id="stop4" />
  </linearGradient>
  <linearGradient
     id="b"
     gradientTransform="matrix(-1.2972972 0 0 1.2154856 61.081084 -4.5083)"
     gradientUnits="userSpaceOnUse"
     x1="26.21154"
     x2="26.21154"
     y1="43.999989"
     y2="6.999989">
    <stop
       offset="0"
       stop-color="#42a603"
       id="stop7" />
    <stop
       offset="1"
       stop-color="#78da06"
       id="stop9" />
  </linearGradient>
  <linearGradient
     id="c"
     gradientUnits="userSpaceOnUse"
     x1="15.999998"
     x2="39.999996"
     y1="7.999998"
     y2="32">
    <stop
       offset="0"
       stop-color="#020303"
       id="stop12" />
    <stop
       offset="1"
       stop-color="#424649"
       stop-opacity="0"
       id="stop14" />
  </linearGradient>
  <path
     id="path4237-1"
     style="font-style:normal;font-variant:normal;font-weight:normal;font-stretch:normal;font-size:15px;line-height:125%;font-family:Ubuntu;-inkscape-font-specification:Ubuntu;text-align:center;letter-spacing:0px;word-spacing:0px;writing-mode:lr-tb;text-anchor:middle;display:inline;opacity:0.7;fill:#000000;fill-opacity:1;stroke:none;stroke-width:0.99980211"
     d="M 6.9941406 3 C 5.7360506 3.01508 4.81527 2.9715888 4.0625 3.3867188 C 3.68614 3.5942787 3.3892894 3.9442125 3.2246094 4.3828125 C 3.0599004 4.8214235 3 5.3424 3 6 L 3 7.4667969 L 3 34 C 3 34.657609 3.0600704 35.178517 3.2246094 35.617188 C 3.3892794 36.055847 3.68613 36.407574 4.0625 36.615234 C 4.81525 37.0306 5.7359506 36.9855 6.9941406 37 L 6.9980469 37 L 38 37 L 38 32.544922 C 36.202545 31.241358 35.0062 29.250457 35 27.001953 A 1.0001 1.0001 0 0 0 35 27 C 35 23.145855 38.145855 20 42 20 C 45.854145 20 49 23.145855 49 27 A 1.0001 1.0001 0 0 0 49 27.001953 C 48.993825 29.250457 47.797455 31.241358 46 32.544922 L 46 37 L 49.003906 37 L 49.005859 37 C 50.263959 36.984931 51.18478 37.028412 51.9375 36.613281 C 52.31386 36.405713 52.610711 36.055799 52.775391 35.617188 C 52.9401 35.178578 53 34.657609 53 34 L 53 7.4882812 L 53 6 C 53 5.3424 52.940061 4.8214825 52.775391 4.3828125 C 52.610731 3.9441525 52.31387 3.5924256 51.9375 3.3847656 C 51.18475 2.9693996 50.264059 3.0145 49.005859 3 L 49.001953 3 L 6.9960938 3 L 6.9941406 3 z " />
  <path
     id="path1993"
     style="opacity:1;vector-effect:none;fill:#ffffff;fill-opacity:1;stroke:none;stroke-width:1;stroke-linecap:round;stroke-linejoin:bevel;stroke-miterlimit:4;stroke-dasharray:none;stroke-dashoffset:0;stroke-opacity:1"
     d="M 44.017578 4.0273438 C 42.263139 4.0262537 8.5083133 4.0272625 6.7539062 4.0390625 C 6.0541902 4.0766155 5.2951221 3.9500436 4.6269531 4.2441406 C 4.2218061 4.4256636 4.1020144 4.8870215 4.0527344 5.2890625 C 4.0031444 7.7347625 4.0174269 31.200209 4.0292969 33.644531 C 4.0649689 34.280298 3.9324186 35.009045 4.3535156 35.548828 C 4.7545616 35.973949 5.425589 35.941115 5.9375 35.953125 C 7.636302 35.966635 11.340391 35.973005 13.044922 35.972656 C 14.025765 35.972457 27.567336 35.968323 38 35.964844 L 38 32.544922 C 36.202545 31.241358 35.0062 29.250457 35 27.001953 A 1.0001 1.0001 0 0 0 35 27 C 35 23.145855 38.145855 20 42 20 C 45.854145 20 49 23.145855 49 27 A 1.0001 1.0001 0 0 0 49 27.001953 C 48.993825 29.250457 47.797455 31.241358 46 32.544922 L 46 35.962891 C 46.618075 35.962312 49.191835 35.96156 49.322266 35.960938 C 49.974096 35.929378 50.625357 36.031723 51.257812 35.806641 C 51.754017 35.655641 51.917931 35.104508 51.957031 34.642578 C 52.001521 32.353226 51.986316 9.0548975 51.978516 6.7578125 C 51.941134 6.1096755 52.051025 5.4107366 51.832031 4.7753906 C 51.692879 4.2718426 51.138963 4.1090763 50.677734 4.0664062 C 49.127783 4.0158862 45.574159 4.0381437 44.017578 4.0273438 z " />
  <path
     id="rect842"
     style="opacity:1;fill:#e95420;fill-opacity:1;stroke:none;stroke-width:2;stroke-linejoin:round;stroke-miterlimit:4;stroke-dasharray:none;stroke-opacity:1"
     d="M 39 33.322266 L 39 40 L 42 38 L 45 40 L 45 33.322266 C 44.089698 33.756964 43.072531 34 42 34 C 40.927469 34 39.910302 33.756964 39 33.322266 z " />
  <circle
     r="6"
     cy="27"
     cx="42"
     id="circle856"
     style="opacity:1;fill:#e95420;fill-opacity:1;stroke:none;stroke-width:8;stroke-linejoin:round;stroke-miterlimit:4;stroke-dasharray:none;stroke-opacity:1" />
  <circle
     style="opacity:1;fill:#ffffff;fill-opacity:1;stroke:none;stroke-width:8;stroke-linejoin:round;stroke-miterlimit:4;stroke-dasharray:none;stroke-opacity:1"
     id="path852"
     cx="42"
     cy="27"
     r="2" />
</svg>
