<svg xmlns="http://www.w3.org/2000/svg" xmlns:xlink="http://www.w3.org/1999/xlink" height="16" width="24"><defs><linearGradient xlink:href="#a" id="b" x1="3" y1="3" x2="3" y2="8" gradientUnits="userSpaceOnUse"/><linearGradient id="a"><stop style="stop-color:#151515;stop-opacity:1" offset="0"/><stop style="stop-color:#4d4d4d;stop-opacity:1" offset="1"/></linearGradient></defs><path style="opacity:1;fill:#000;stroke:#fff;stroke-width:2;stroke-linejoin:round;stroke-miterlimit:4;stroke-dasharray:none" d="M2 3v5h2.5A1.5 1.5 0 0 0 6 6.5c0-.533-.268-1.015-.687-1.281.115-.213.187-.46.187-.719A1.5 1.5 0 0 0 4 3H2.5Zm1 1h1a.5.5 0 0 1 0 1H3Zm0 2h1.5a.5.5 0 0 1 0 1H3ZM11 3v5h2.5A1.5 1.5 0 0 0 15 6.5v-2A1.5 1.5 0 0 0 13.5 3H12Zm1 1h1.5a.5.5 0 0 1 .5.5v2a.5.5 0 0 1-.5.5H12Z"/><path style="fill:#e62d42;fill-opacity:1;stroke:none;stroke-width:1px;stroke-linecap:butt;stroke-linejoin:miter;stroke-opacity:1" d="m2 10 4 2-4 2ZM15 10l-4 2 4 2z"/><path style="fill:url(#b);fill-opacity:1" d="M2 3v5h2.5A1.5 1.5 0 0 0 6 6.5c0-.533-.268-1.015-.688-1.281.116-.213.188-.46.188-.719A1.5 1.5 0 0 0 4 3H2.5Zm9 0v5h2.5A1.5 1.5 0 0 0 15 6.5v-2A1.5 1.5 0 0 0 13.5 3H12ZM3 4h1a.5.5 0 0 1 0 1H3Zm9 0h1.5c.276 0 .588.238.5.5v2a.5.5 0 0 1-.5.5H12ZM3 6h1.5a.5.5 0 0 1 0 1H3Z"/></svg>