<svg xmlns="http://www.w3.org/2000/svg" viewBox="0 0 32 32"><path style="font-style:normal;font-variant:normal;font-weight:400;font-stretch:normal;font-size:15px;line-height:125%;font-family:Ubuntu;-inkscape-font-specification:Ubuntu;text-align:center;letter-spacing:0;word-spacing:0;writing-mode:lr-tb;text-anchor:middle;display:inline;opacity:.7;fill:#000;fill-opacity:1;stroke:none;stroke-width:.99980211" d="M6.994 3c-1.258.014-2.179-.03-2.931.385a1.88 1.88 0 0 0-.838.998C3.06 4.82 3 5.343 3 6v19c0 .658.06 1.179.225 1.617.164.439.461.789.837.996.753.415 1.674.372 2.932.387H20.04c-.09-.58.2-1.13.682-1.492-.578-.432-.888-1.138-.6-1.834l.57-1.381c.29-.699 1.01-.977 1.723-.873-.101-.71.177-1.422.875-1.711l1.383-.574c.699-.29 1.394.022 1.824.595.176-.237.342-.495.606-.603.38-.157.818-.169 1.23.002l.668.275V6c0-.658-.06-1.179-.225-1.617a1.875 1.875 0 0 0-.837-.996c-.753-.415-1.674-.372-2.932-.387H6.994z"/><path style="opacity:1;vector-effect:none;fill:#fff;fill-opacity:1;stroke:none;stroke-width:1;stroke-linecap:round;stroke-linejoin:bevel;stroke-miterlimit:4;stroke-dasharray:none;stroke-dashoffset:0;stroke-opacity:1" d="M11.982 4.027c-1.556.011-5.108-.013-6.658.037-.461.043-1.017.208-1.156.711-.219.636-.11 1.335-.147 1.983-.007 2.297-.023 16.595.022 18.885.04.462.203 1.013.7 1.164.632.225 1.283.122 1.935.154 1.358.006 11.412.011 13.615.012.043-.064.089-.123.14-.182.085-.102.177-.2.288-.283a1.926 1.926 0 0 1-.377-.371 1.656 1.656 0 0 1-.248-.446v-.002a1.402 1.402 0 0 1 .025-1.016l.57-1.38c.073-.175.172-.323.291-.445.358-.369.897-.506 1.432-.428a1.945 1.945 0 0 1-.004-.527c.045-.343.189-.658.434-.895.122-.118.27-.217.445-.289l1.383-.574a1.38 1.38 0 0 1 1.014-.026c.157.057.304.141.441.246.137.106.261.232.37.375.087-.118.172-.241.269-.35a.932.932 0 0 1 .336-.253 1.61 1.61 0 0 1 .388-.1l.078-.007c.135-.013.27-.013.407.01.007-5.187.01-12.88-.028-14.743-.049-.402-.169-.861-.574-1.043-.668-.294-1.427-.17-2.127-.207-1.754-.012-11.51-.01-13.264-.01z"/><path style="fill:#232629;stroke-width:1.37436855" d="M9 10v1h17v-1Z"/><path style="fill:#232629" d="M6 13v1h8v-1zM17 17v1h9v-1z"/><path style="fill:#c7162b" d="M26 7v1h-7V7ZM6 10v1h2v-1Z"/><path style="fill:#c7162b;stroke-width:1.91485417" d="M15 13v1h11v-1z"/><path style="fill:#c7162b;stroke-width:2.23606801" d="M6 17v1h10v-1z"/><path d="M18 7v1H6V7Z" style="fill:#232629;stroke-width:1.15470052"/><path style="fill:#232629;stroke-width:1.37436855" d="M9 23v1h11.398l.293-.707c.046-.11.106-.204.17-.293H9z"/><path style="fill:#c7162b" d="M19 20v1h3.842c.123-.12.272-.218.447-.291l1.383-.574c.473-.196.94-.102 1.328.148V20h-7zM6 23v1h2v-1z"/><path style="fill:#232629;stroke-width:1.15470052" d="M18 20v1H6v-1z"/><g transform="matrix(1.23872 0 0 1.23872 2.342 2.342)" style="stroke-width:.807285"><circle style="fill:#fff;fill-rule:evenodd;stroke:none;stroke-width:1.61457;stroke-linecap:round;stroke-linejoin:round" cx="19.5" cy="19.5" r="1.5"/><g transform="translate(8 8)" style="stroke-width:.807285"><circle style="fill:#fff;fill-opacity:1;fill-rule:evenodd;stroke:none;stroke-width:1.61457;stroke-linecap:round;stroke-linejoin:round;stroke-miterlimit:4;stroke-dasharray:none;stroke-opacity:1" cx="11.5" cy="11.5" r="1.5"/><path d="M9.311 7.792a.244.244 0 0 0-.135.325l.273.657c-.26.195-.472.424-.662.678l-.674-.279a.248.248 0 0 0-.329.136l-.462 1.115a.248.248 0 0 0 .137.329l.673.279a3.312 3.312 0 0 0-.011.948l-.657.272a.244.244 0 0 0-.135.325l.463 1.117c.054.13.194.189.325.135l.657-.272c.195.26.424.471.678.662l-.279.673a.248.248 0 0 0 .136.329l1.115.462a.248.248 0 0 0 .329-.136l.279-.674c.314.045.626.057.948.012l.272.657c.054.13.195.188.325.134l1.117-.462a.244.244 0 0 0 .135-.326l-.272-.657c.26-.195.471-.424.662-.678l.673.28a.248.248 0 0 0 .329-.137l.462-1.115a.248.248 0 0 0-.136-.329l-.674-.279c.045-.314.057-.625.012-.947l.657-.273a.244.244 0 0 0 .134-.325l-.462-1.117a.244.244 0 0 0-.326-.135l-.657.273a3.312 3.312 0 0 0-.678-.662l.28-.674a.248.248 0 0 0-.137-.329l-1.115-.462a.248.248 0 0 0-.329.137l-.279.673a3.312 3.312 0 0 0-.947-.011l-.273-.657a.244.244 0 0 0-.325-.135Zm1.756 2.66a1.138 1.138 0 1 1 .87 2.103 1.138 1.138 0 0 1-.87-2.104z" display="block" fill="url(#d)" stroke="url(#e)" stroke-linejoin="round" stroke-width=".484" style="fill:#d3d3d3;fill-opacity:1;stroke:#4d4d4d;stroke-opacity:1"/></g></g></svg>