<svg viewBox="0 0 32 32" xmlns="http://www.w3.org/2000/svg"><path d="M13.883 4 4 14h15v14l9-10.5V4z" fill="#b3b3b3"/><path d="M13 4 4 14v14h15l9-10V4zm.447 1h12.877l-8.1 9H5.349zM27 5.746v11.869l-8 8.889v-11.87zM5 15h13v12H5z" style="fill:#1463a5;fill-opacity:1"/><path style="fill:#fff;stroke:#fff;opacity:1;stroke-width:2;stroke-miterlimit:4;stroke-dasharray:none;stroke-linejoin:round" d="m12.824 14 2.822-3h2.825l-1.412-3L10 11h2.824L10 14z"/><path d="m12.824 14 2.822-3h2.825l-1.412-3L10 11h2.824L10 14z" style="fill:#C88800"/><path style="opacity:1;fill:#fff;fill-opacity:1;stroke:none;stroke-width:2;stroke-linejoin:round;stroke-miterlimit:4;stroke-dasharray:none;stroke-opacity:1" d="M5 15h13v12H5z"/></svg>