<svg viewBox="0 0 32 32" xmlns="http://www.w3.org/2000/svg"><path style="opacity:1;fill:#fff;fill-opacity:1;stroke:none;stroke-width:2;stroke-linecap:round;stroke-linejoin:round;stroke-miterlimit:4;stroke-dasharray:none;stroke-opacity:1" transform="matrix(0 1 1 0 0 0)" d="M5 5h22v22H5z"/><path style="fill:#6d6d6d;fill-opacity:1" d="M4 7c0-2 0-3 2-3h20c2 0 2 1 2 3v18c0 2 0 3-2 3H6c-2 0-2-1-2-3zm8-2v22h14c1 0 1-1 1-2V7c0-1 0-2-1-2H15z"/><path d="m21 16-5-3v2h-5v2h5v2z" style="fill:#C88800;fill-opacity:1;stroke:none;stroke-width:1px;stroke-linecap:butt;stroke-linejoin:miter;stroke-opacity:1"/></svg>