<svg xmlns="http://www.w3.org/2000/svg" height="32" width="32"><linearGradient id="a" gradientUnits="userSpaceOnUse" x1="6" x2="18" y1="20.002" y2="8.002"><stop offset="0" stop-color="#C88800"/><stop offset=".417" stop-color="#48acf5" stop-opacity=".761"/><stop offset=".667" stop-color="#73c0f7" stop-opacity="0"/><stop offset="1" stop-color="#cae7fc" stop-opacity="0"/></linearGradient><path d="M16 4c-1.46 5.107-5.035 9.516-6.61 13.03-.55 1.046-.89 2.202-.89 3.47 0 4.155 3.345 7.5 7.5 7.5s7.5-3.345 7.5-7.5c0-1.268-.34-2.424-.89-3.47C21.034 13.517 17.46 9.108 16 4z" fill="#b3b3b3"/><path d="M16 4c-.45 1.572-1.098 3.066-1.828 4.5H16zm0 4.5v6h5.25c-1.057-1.82-2.318-3.83-3.422-6zm0 6h-5.25c-.25.43-.53.855-.75 1.266V20.5h6zm0 6v6h4.5A7.404 7.404 0 0 0 22 25v-4.5z" fill="#777"/><path d="M11 4c-.973 3.405-3.356 6.344-4.406 8.688A4.896 4.896 0 0 0 6 15c0 2.77 2.23 5 5 5s5-2.23 5-5c0-.845-.226-1.616-.594-2.313C14.356 10.345 11.973 7.405 11 4z" fill="url(#a)" transform="matrix(1.5 0 0 1.5 -.5 -2)"/><path d="M16 4c-1.46 5.108-5.035 9.516-6.61 13.03-.55 1.046-.89 2.202-.89 3.47 0 4.155 3.345 7.5 7.5 7.5s7.5-3.345 7.5-7.5c0-1.268-.34-2.424-.89-3.47C21.034 13.517 17.46 9.11 16 4zm0 3c1.167 4.15 4.037 7.738 5.297 10.594.234.45.392.9.516 1.406.05.21.11.44.14.656.004.03-.004.064 0 .094.025.218.047.43.047.656v.094a6.214 6.214 0 0 1-.14 1.125c-.006.03.005.064 0 .094-.08.365-.19.74-.33 1.077-.004.014.007.033 0 .047-.147.35-.354.67-.56.984-.01.01.006.036 0 .047a5.87 5.87 0 0 1-.704.844c-.28.28-.562.527-.89.75A5.976 5.976 0 0 1 16 26.498c-.416 0-.827-.06-1.22-.14a5.828 5.828 0 0 1-.796-.235c-.046-.017-.094-.03-.14-.047-.06-.023-.13-.022-.188-.047-.096-.04-.188-.093-.28-.14-.165-.08-.315-.186-.47-.28-.107-.066-.225-.116-.328-.188-.028-.02-.066-.027-.094-.047a5.993 5.993 0 0 1-.75-.656 6.55 6.55 0 0 1-.61-.75c-.017-.013-.028-.036-.046-.048A6.196 6.196 0 0 1 10 20.404c0-1.03.262-1.963.703-2.812C11.963 14.738 14.833 11.15 16 7z" fill="#232629" style="fill:#000;opacity:.7"/></svg>