<svg xmlns="http://www.w3.org/2000/svg" viewBox="0 0 32 32"><path style="color:#000;font-style:normal;font-variant:normal;font-weight:400;font-stretch:normal;font-size:medium;line-height:normal;font-family:sans-serif;font-variant-ligatures:normal;font-variant-position:normal;font-variant-caps:normal;font-variant-numeric:normal;font-variant-alternates:normal;font-variant-east-asian:normal;font-feature-settings:normal;font-variation-settings:normal;text-indent:0;text-align:start;text-decoration:none;text-decoration-line:none;text-decoration-style:solid;text-decoration-color:#000;letter-spacing:normal;word-spacing:normal;text-transform:none;writing-mode:lr-tb;direction:ltr;text-orientation:mixed;dominant-baseline:auto;baseline-shift:baseline;text-anchor:start;white-space:normal;shape-padding:0;shape-margin:0;inline-size:0;clip-rule:nonzero;display:inline;overflow:visible;visibility:visible;opacity:.7;isolation:auto;mix-blend-mode:normal;color-interpolation:sRGB;color-interpolation-filters:linearRGB;solid-color:#000;solid-opacity:1;vector-effect:none;fill:#000;fill-opacity:1;fill-rule:nonzero;stroke:none;stroke-width:2;stroke-linecap:butt;stroke-linejoin:miter;stroke-miterlimit:4;stroke-dasharray:none;stroke-dashoffset:0;stroke-opacity:1;color-rendering:auto;image-rendering:auto;shape-rendering:auto;text-rendering:auto;enable-background:accumulate;stop-color:#000;stop-opacity:1" d="M10 3c-1.167 0-2.341.276-3.305.918C5.732 4.56 5 5.667 5 7v17c0 1.333.732 2.44 1.695 3.082C7.66 27.724 8.833 28 10 28h10.04c-.09-.58.198-1.13.68-1.492-.188-.141-.6-.133-.72-.323L10 26c-.833-.015-1.659-.224-2.195-.582C7.268 25.06 7 24.667 7 24V7c0-.667.268-1.06.805-1.418C8.34 5.224 9.167 5 10 5h12c.833 0 1.659.224 2.195.582.537.358.805.751.805 1.418v13.047c.583-.092 1.134.2 1.496.683.152-.204.3-.418.504-.544V7c0-1.333-.732-2.44-1.695-3.082C24.34 3.276 23.167 3 22 3h-3z"/><path style="fill:#fff;fill-opacity:1" d="M10 4C8 4 6 5 6 7v17c0 2 2 3 4 3h10.277c.119-.183.26-.355.444-.492-.578-.432-.888-1.138-.6-1.834l.57-1.381c.29-.699 1.01-.977 1.723-.873-.101-.71.177-1.422.875-1.711l1.383-.574c.473-.196.94-.102 1.328.148V7c0-2-2-3-4-3H10z"/><path style="opacity:1;vector-effect:none;fill:#1463a5;fill-opacity:1;stroke:none;stroke-width:1.61538;stroke-linecap:round;stroke-linejoin:round;stroke-miterlimit:4;stroke-dasharray:none;stroke-dashoffset:0;stroke-opacity:1" d="M14 8h9v1h-9z"/><path style="opacity:1;vector-effect:none;fill:#1463a5;fill-opacity:1;stroke:none;stroke-width:3.23077;stroke-linecap:round;stroke-linejoin:round;stroke-miterlimit:4;stroke-dasharray:none;stroke-dashoffset:0;stroke-opacity:1" d="M9 8h3v3H9z"/><path style="opacity:1;vector-effect:none;fill:#C88800;fill-opacity:1;stroke:none;stroke-width:3.23077;stroke-linecap:round;stroke-linejoin:round;stroke-miterlimit:4;stroke-dasharray:none;stroke-dashoffset:0;stroke-opacity:1" d="M9 14h3v3H9z"/><path style="opacity:1;vector-effect:none;fill:#46a926;fill-opacity:1;stroke:none;stroke-width:3.23077;stroke-linecap:round;stroke-linejoin:round;stroke-miterlimit:4;stroke-dasharray:none;stroke-dashoffset:0;stroke-opacity:1" d="M9 20h3v3H9z"/><path style="opacity:1;vector-effect:none;fill:#C88800;fill-opacity:1;stroke:none;stroke-width:1.61538;stroke-linecap:round;stroke-linejoin:round;stroke-miterlimit:4;stroke-dasharray:none;stroke-dashoffset:0;stroke-opacity:1" d="M14 14h9v1h-9z"/><path style="opacity:1;vector-effect:none;fill:#46a926;fill-opacity:1;stroke:none;stroke-width:1.61538;stroke-linecap:round;stroke-linejoin:round;stroke-miterlimit:4;stroke-dasharray:none;stroke-dashoffset:0;stroke-opacity:1" d="M14 20v1h8.842c.048-.046.102-.087.158-.127V20h-9z"/><path style="opacity:1;vector-effect:none;fill:#1463a5;fill-opacity:1;stroke:none;stroke-width:1.61538;stroke-linecap:round;stroke-linejoin:round;stroke-miterlimit:4;stroke-dasharray:none;stroke-dashoffset:0;stroke-opacity:1" d="M14 10h9v1h-9z"/><path style="opacity:1;vector-effect:none;fill:#C88800;fill-opacity:1;stroke:none;stroke-width:1.61538;stroke-linecap:round;stroke-linejoin:round;stroke-miterlimit:4;stroke-dasharray:none;stroke-dashoffset:0;stroke-opacity:1" d="M14 16h9v1h-9z"/><path style="opacity:1;vector-effect:none;fill:#46a926;fill-opacity:1;stroke:none;stroke-width:1.61538;stroke-linecap:round;stroke-linejoin:round;stroke-miterlimit:4;stroke-dasharray:none;stroke-dashoffset:0;stroke-opacity:1" d="M14 22v1h6.861c.349-.48.951-.668 1.553-.58a1.947 1.947 0 0 1-.004-.42H14z"/><g transform="matrix(1.23872 0 0 1.23872 2.342 2.342)" style="stroke-width:.807285"><circle style="fill:#fff;fill-rule:evenodd;stroke:none;stroke-width:1.61457;stroke-linecap:round;stroke-linejoin:round" cx="19.5" cy="19.5" r="1.5"/><g transform="translate(8 8)" style="stroke-width:.807285"><circle style="fill:#fff;fill-opacity:1;fill-rule:evenodd;stroke:none;stroke-width:1.61457;stroke-linecap:round;stroke-linejoin:round;stroke-miterlimit:4;stroke-dasharray:none;stroke-opacity:1" cx="11.5" cy="11.5" r="1.5"/><path d="M9.311 7.792a.244.244 0 0 0-.135.325l.273.657c-.26.195-.472.424-.662.678l-.674-.279a.248.248 0 0 0-.329.136l-.462 1.115a.248.248 0 0 0 .137.329l.673.279a3.312 3.312 0 0 0-.011.948l-.657.272a.244.244 0 0 0-.135.325l.463 1.117c.054.13.194.189.325.135l.657-.272c.195.26.424.471.678.662l-.279.673a.248.248 0 0 0 .136.329l1.115.462a.248.248 0 0 0 .329-.136l.279-.674c.314.045.626.057.948.012l.272.657c.054.13.195.188.325.134l1.117-.462a.244.244 0 0 0 .135-.326l-.272-.657c.26-.195.471-.424.662-.678l.673.28a.248.248 0 0 0 .329-.137l.462-1.115a.248.248 0 0 0-.136-.329l-.674-.279c.045-.314.057-.625.012-.947l.657-.273a.244.244 0 0 0 .134-.325l-.462-1.117a.244.244 0 0 0-.326-.135l-.657.273a3.312 3.312 0 0 0-.678-.662l.28-.674a.248.248 0 0 0-.137-.329l-1.115-.462a.248.248 0 0 0-.329.137l-.279.673a3.312 3.312 0 0 0-.947-.011l-.273-.657a.244.244 0 0 0-.325-.135zm1.756 2.66a1.138 1.138 0 1 1 .87 2.103 1.138 1.138 0 0 1-.87-2.104z" display="block" fill="url(#d)" stroke="url(#e)" stroke-linejoin="round" stroke-width=".484" style="fill:#d3d3d3;fill-opacity:1;stroke:#4d4d4d;stroke-opacity:1"/></g></g></svg>