<svg xmlns="http://www.w3.org/2000/svg" viewBox="0 0 32 32"><path style="opacity:.7;fill:#000;fill-opacity:1;fill-rule:nonzero;stroke:#000;stroke-width:2;stroke-linecap:butt;stroke-linejoin:round;stroke-miterlimit:4;stroke-dasharray:none;stroke-dashoffset:0;stroke-opacity:1" d="M24 12V6c0-2-1-2-3-2H7C5 4 4 4 4 6v9c0 2 1 2 3 2l6 6v-6h8c2 0 3 0 3-2z"/><path d="M24 12V6c0-2-1-2-3-2H7C5 4 4 4 4 6v9c0 2 1 2 3 2l6 6v-6h8c2 0 3 0 3-2z" style="opacity:1;fill:#fa9381;fill-opacity:1;fill-rule:nonzero;stroke:none;stroke-width:.00119524;stroke-linecap:butt;stroke-linejoin:round;stroke-miterlimit:4;stroke-dasharray:none;stroke-dashoffset:0;stroke-opacity:1"/><path d="M28 17v-6c0-2-1-2-3-2H11c-2 0-3 0-3 2v9c0 2 1 2 3 2l6 6v-6h8c2 0 3 0 3-2z" style="opacity:.7;fill:#000;fill-opacity:1;fill-rule:nonzero;stroke:#000;stroke-width:2;stroke-linecap:butt;stroke-linejoin:round;stroke-miterlimit:4;stroke-dasharray:none;stroke-dashoffset:0;stroke-opacity:1"/><path style="opacity:1;fill:#fa9381;fill-opacity:1;fill-rule:nonzero;stroke:none;stroke-width:.00119524;stroke-linecap:butt;stroke-linejoin:round;stroke-miterlimit:4;stroke-dasharray:none;stroke-dashoffset:0;stroke-opacity:1" d="M28 17v-6c0-2-1-2-3-2H11c-2 0-3 0-3 2v9c0 2 1 2 3 2l6 6v-6h8c2 0 3 0 3-2z"/><rect style="opacity:1;fill:#fff;fill-opacity:1;stroke:none;stroke-width:2;stroke-linecap:round;stroke-linejoin:round;stroke-miterlimit:4;stroke-dasharray:none;stroke-opacity:1" width="14" height="1" x="11" y="12" ry=".5"/><rect ry=".5" y="15" x="11" height="1" width="14" style="opacity:1;fill:#fff;fill-opacity:1;stroke:none;stroke-width:2;stroke-linecap:round;stroke-linejoin:round;stroke-miterlimit:4;stroke-dasharray:none;stroke-opacity:1"/><rect style="opacity:1;fill:#fff;fill-opacity:1;stroke:none;stroke-width:2;stroke-linecap:round;stroke-linejoin:round;stroke-miterlimit:4;stroke-dasharray:none;stroke-opacity:1" width="14" height="1" x="11" y="18" ry=".5"/></svg>