<svg xmlns="http://www.w3.org/2000/svg" xmlns:xlink="http://www.w3.org/1999/xlink" viewBox="0 0 32 32"><defs><linearGradient xlink:href="#a" id="c" gradientUnits="userSpaceOnUse" gradientTransform="matrix(0 -.07209 -.07209 0 39.13 33.818)" x1="459.034" y1="419.233" x2="35.31" y2="207.365"/><linearGradient id="a"><stop style="stop-color:#d24625;stop-opacity:1" offset="0"/><stop style="stop-color:#ec532f;stop-opacity:1" offset="1"/></linearGradient><linearGradient xlink:href="#b" id="d" x1="336" y1="134" x2="336" y2="162" gradientUnits="userSpaceOnUse"/><linearGradient id="b"><stop style="stop-color:#fff;stop-opacity:1" offset="0"/><stop offset=".125" style="stop-color:#fff;stop-opacity:.09803922"/><stop offset=".925" style="stop-color:#fff;stop-opacity:.09803922"/><stop style="stop-color:#fff;stop-opacity:.49803922" offset="1"/></linearGradient><clipPath clipPathUnits="userSpaceOnUse" id="e"><path style="color:#000;display:inline;overflow:visible;visibility:visible;opacity:1;fill:#46a926;fill-opacity:1;fill-rule:nonzero;stroke:none;stroke-width:2;stroke-miterlimit:4;stroke-dasharray:none;stroke-opacity:1;marker:none;enable-background:accumulate" d="M330.193 134c-5.615 0-6.22.577-6.192 6.204v15.592c-.028 5.627.577 6.204 6.192 6.204h11.615c5.615 0 6.192-.577 6.192-6.204v-15.592c0-5.627-.577-6.204-6.192-6.204z"/></clipPath></defs><path style="color:#000;display:inline;overflow:visible;visibility:visible;fill:url(#c);fill-opacity:1;fill-rule:nonzero;stroke:none;stroke-width:1;marker:none;enable-background:accumulate" d="M21.806 1.5c1.413 0 2.523.034 3.424.186.901.15 1.62.431 2.143.953.522.521.803 1.239.953 2.14.15.902.18 2.01.174 3.426V23.797c.007 1.414-.024 2.523-.174 3.424-.15.901-.43 1.619-.953 2.14-.523.522-1.242.802-2.143.953-.901.152-2.011.186-3.424.186H10.191c-1.412 0-2.518-.034-3.418-.186-.9-.15-1.616-.431-2.137-.953-.52-.521-.8-1.237-.95-2.138-.152-.901-.186-2.01-.186-3.426V8.203c0-1.415.034-2.525.185-3.426.151-.9.43-1.617.951-2.138.521-.522 1.238-.802 2.137-.953.9-.152 2.006-.186 3.418-.186z"/><path d="M16.079 8.668 8 9.916v12.172l8.022 1.244h.969s-.006-14.664 0-14.664zm-3.623 4.084c.55-.012 1.077.067 1.505.455.821.996.604 2.83-.613 3.426-.432.22-.928.19-1.398.176-.002.744-.004 1.487-.002 2.232a216.08 216.08 0 0 0-1.133-.094 301.18 301.18 0 0 1 0-6.011c.536-.067 1.09-.172 1.64-.184zm-.065 1.103c-.15-.004-.303.012-.443.018-.006.64-.01 1.278.03 1.916.38-.046.87-.008 1.087-.4.18-.385.194-.877-.024-1.25-.158-.22-.4-.277-.65-.284z" style="display:inline;fill:#fff;stroke-width:1.33333;enable-background:new"/><path d="M18 10v1.9c.311-.067.653-.203 1-.186v2.429s1.593-.006 2.429 0c-.063.823-.413 1.699-1.143 2.131-.674.454-1.531.46-2.286.225.002.373-.002.842 0 1.215h4.572v.857H18v.858h4.572v.857H18V22h6V10zm1.288 1.356c1.324.06 2.436 1.175 2.507 2.495-.836.01-1.673.006-2.509.006 0-.834-.002-1.668.002-2.5z" style="display:inline;fill:#fff;fill-opacity:1;stroke-width:1.33333;enable-background:new"/><path d="M10.194 1.5c-1.413 0-2.523.034-3.424.186-.901.15-1.62.431-2.143.953-.522.521-.803 1.239-.953 2.14-.15.902-.18 2.01-.174 3.426V23.797c-.007 1.414.024 2.523.174 3.424.15.901.43 1.619.953 2.14.523.522 1.242.802 2.143.953.901.152 2.011.186 3.424.186h11.615c1.412 0 2.519-.034 3.418-.186.9-.15 1.616-.431 2.137-.953.52-.521.8-1.237.95-2.138.152-.901.186-2.01.186-3.426V8.203c0-1.415-.034-2.525-.185-3.426-.151-.9-.43-1.617-.951-2.138-.521-.522-1.237-.802-2.137-.953-.9-.152-2.006-.186-3.418-.186z" style="color:#000;display:inline;overflow:visible;visibility:visible;opacity:.4;fill:none;fill-opacity:1;fill-rule:nonzero;stroke:#000;stroke-width:1;stroke-opacity:1;marker:none;enable-background:accumulate"/><path transform="translate(-320 -132)" d="M330.193 134c-5.615 0-6.22.577-6.192 6.204v15.592c-.028 5.627.577 6.204 6.192 6.204h11.615c5.615 0 6.192-.577 6.192-6.204v-15.592c0-5.627-.577-6.204-6.192-6.204z" style="color:#000;display:inline;overflow:visible;visibility:visible;opacity:.4;fill:none;fill-opacity:1;fill-rule:nonzero;stroke:url(#d);stroke-width:2;stroke-miterlimit:4;stroke-dasharray:none;stroke-opacity:1;marker:none;enable-background:accumulate" clip-path="url(#e)"/></svg>