<?xml version="1.0" encoding="UTF-8" standalone="no"?>
<svg
   xmlns:dc="http://purl.org/dc/elements/1.1/"
   xmlns:cc="http://creativecommons.org/ns#"
   xmlns:rdf="http://www.w3.org/1999/02/22-rdf-syntax-ns#"
   xmlns:svg="http://www.w3.org/2000/svg"
   xmlns="http://www.w3.org/2000/svg"
   xmlns:xlink="http://www.w3.org/1999/xlink"
   xmlns:sodipodi="http://sodipodi.sourceforge.net/DTD/sodipodi-0.dtd"
   xmlns:inkscape="http://www.inkscape.org/namespaces/inkscape"
   viewBox="0 0 24 24"
   version="1.1"
   id="svg4"
   sodipodi:docname="lc_bold.svg"
   inkscape:export-filename="/home/jupiter007/Libreoffice yaru theme fullcolor/build/cmd/km/lc_bold.png"
   inkscape:export-xdpi="96"
   inkscape:export-ydpi="96"
   inkscape:version="1.0.1 (3bc2e813f5, 2020-09-07)">
  <metadata
     id="metadata10">
    <rdf:RDF>
      <cc:Work
         rdf:about="">
        <dc:format>image/svg+xml</dc:format>
        <dc:type
           rdf:resource="http://purl.org/dc/dcmitype/StillImage" />
        <dc:title></dc:title>
      </cc:Work>
    </rdf:RDF>
  </metadata>
  <defs
     id="defs8">
    <linearGradient
       inkscape:collect="always"
       id="linearGradient835">
      <stop
         style="stop-color:#4d4d4d;stop-opacity:1"
         offset="0"
         id="stop831" />
      <stop
         style="stop-color:#151515;stop-opacity:1"
         offset="1"
         id="stop833" />
    </linearGradient>
    <linearGradient
       inkscape:collect="always"
       xlink:href="#linearGradient835"
       id="linearGradient837"
       x1="11"
       y1="22"
       x2="11"
       y2="2"
       gradientUnits="userSpaceOnUse" />
  </defs>
  <sodipodi:namedview
     pagecolor="#808080"
     bordercolor="#666666"
     borderopacity="1"
     objecttolerance="10"
     gridtolerance="10"
     guidetolerance="10"
     inkscape:pageopacity="0"
     inkscape:pageshadow="2"
     inkscape:window-width="1920"
     inkscape:window-height="1016"
     id="namedview6"
     showgrid="true"
     inkscape:zoom="27.812867"
     inkscape:cx="10.494896"
     inkscape:cy="12.612437"
     inkscape:window-x="0"
     inkscape:window-y="27"
     inkscape:window-maximized="1"
     inkscape:current-layer="svg4"
     inkscape:document-rotation="0">
    <inkscape:grid
       type="xygrid"
       id="grid839" />
  </sodipodi:namedview>
  <path
     style="fill:#000000;stroke:#ffffff;opacity:1;stroke-width:2;stroke-miterlimit:4;stroke-dasharray:none;stroke-linejoin:round"
     id="path817"
     fill="#232629"
     d="m10.509766 2c-2.6400007 0-3.9589847.9254919-3.9589848 2.7773438 0 1.1111111.3662761 1.6679687 1.0996094 1.6679687h6.1816404v2.5546875c0 .37037-.411088.554688-1.232422.554688h-3.4316402v-1.4433599h-3.1679688v3.5332029h8.359375c1.760001 0 2.640625-.881568 2.640625-2.644531v-2.5546875h-.550781v-1.6679687c-.806667-.7407408-1.723334-1.3878038-2.75-1.9433594-1.034-.5555556-2.096787-.8339844-3.189453-.8339844zm0 2c1.363999 0 2.456009.3333333 3.277343 1h-4.4863278c.0000001-.6666667.4023178-1 1.2089848-1zm-4.509766 8.855469v9.144531h2.9589844l2.5527346-2.333984 2.541015 2.333984h2.947266v-9.144531h-3.167969v6.222656l-2.320312-2.132813-2.3437502 2.154297v-6.24414z" />
  <path
     d="m10.509766 2c-2.6400007 0-3.9589847.9254919-3.9589848 2.7773438 0 1.1111111.3662761 1.6679687 1.0996094 1.6679687h6.1816404v2.5546875c0 .37037-.411088.554688-1.232422.554688h-3.4316402v-1.4433599h-3.1679688v3.5332029h8.359375c1.760001 0 2.640625-.881568 2.640625-2.644531v-2.5546875h-.550781v-1.6679687c-.806667-.7407408-1.723334-1.3878038-2.75-1.9433594-1.034-.5555556-2.096787-.8339844-3.189453-.8339844zm0 2c1.363999 0 2.456009.3333333 3.277343 1h-4.4863278c.0000001-.6666667.4023178-1 1.2089848-1zm-4.509766 8.855469v9.144531h2.9589844l2.5527346-2.333984 2.541015 2.333984h2.947266v-9.144531h-3.167969v6.222656l-2.320312-2.132813-2.3437502 2.154297v-6.24414z"
     fill="#232629"
     id="path2"
     style="fill:url(#linearGradient837);fill-opacity:1" />
</svg>
