<?xml version="1.0" encoding="UTF-8" standalone="no"?>
<svg
   xmlns:dc="http://purl.org/dc/elements/1.1/"
   xmlns:cc="http://creativecommons.org/ns#"
   xmlns:rdf="http://www.w3.org/1999/02/22-rdf-syntax-ns#"
   xmlns:svg="http://www.w3.org/2000/svg"
   xmlns="http://www.w3.org/2000/svg"
   xmlns:xlink="http://www.w3.org/1999/xlink"
   xmlns:sodipodi="http://sodipodi.sourceforge.net/DTD/sodipodi-0.dtd"
   xmlns:inkscape="http://www.inkscape.org/namespaces/inkscape"
   viewBox="0 0 24 24"
   version="1.1"
   id="svg4"
   sodipodi:docname="lc_underlinedouble.svg"
   inkscape:export-filename="/home/jupiter007/Libreoffice yaru theme fullcolor/build/cmd/km/lc_underlinedouble.png"
   inkscape:export-xdpi="96"
   inkscape:export-ydpi="96"
   inkscape:version="1.0.1 (3bc2e813f5, 2020-09-07)">
  <path
     id="path838"
     style="opacity:1;fill:#000000;stroke:#ffffff;stroke-width:2;stroke-linejoin:round;stroke-miterlimit:4;stroke-dasharray:none"
     d="M 5 20 L 5 21 L 19 21 L 19 20 L 5 20 z M 5 22 L 5 23 L 19 23 L 19 22 L 5 22 z " />
  <metadata
     id="metadata10">
    <rdf:RDF>
      <cc:Work
         rdf:about="">
        <dc:format>image/svg+xml</dc:format>
        <dc:type
           rdf:resource="http://purl.org/dc/dcmitype/StillImage" />
        <dc:title></dc:title>
      </cc:Work>
    </rdf:RDF>
  </metadata>
  <defs
     id="defs8">
    <linearGradient
       inkscape:collect="always"
       id="linearGradient840">
      <stop
         style="stop-color:#151515;stop-opacity:1"
         offset="0"
         id="stop836" />
      <stop
         style="stop-color:#4d4d4d;stop-opacity:1"
         offset="1"
         id="stop838" />
    </linearGradient>
    <linearGradient
       inkscape:collect="always"
       xlink:href="#linearGradient840"
       id="linearGradient842"
       x1="12"
       y1="2"
       x2="12"
       y2="23"
       gradientUnits="userSpaceOnUse" />
  </defs>
  <sodipodi:namedview
     pagecolor="#808080"
     bordercolor="#666666"
     borderopacity="1"
     objecttolerance="10"
     gridtolerance="10"
     guidetolerance="10"
     inkscape:pageopacity="0"
     inkscape:pageshadow="2"
     inkscape:window-width="1920"
     inkscape:window-height="1016"
     id="namedview6"
     showgrid="true"
     inkscape:zoom="19.666667"
     inkscape:cx="7.9975041"
     inkscape:cy="14.541111"
     inkscape:window-x="0"
     inkscape:window-y="27"
     inkscape:window-maximized="1"
     inkscape:current-layer="svg4"
     inkscape:document-rotation="0">
    <inkscape:grid
       type="xygrid"
       id="grid833" />
  </sodipodi:namedview>
  <path
     style="opacity:1;fill:#000000;fill-opacity:1;stroke:#ffffff;stroke-width:2;stroke-linejoin:round;stroke-miterlimit:4;stroke-dasharray:none"
     d="m 5.9999619,2 -1.5,2 2.5,2 v 7 c 0,2.77 2.23,5 5.0000001,5 2.77,0 5,-2.23 5,-5 V 6 l -3,-2 h 3 V 2 h -4 l -1.5,2 2.5,2 v 7 c 0,1.108 -0.892,2 -2,2 -1.108,0 -2.1566951,-0.903136 -2.0000001,-2 V 6 l -3,-2 h 3 V 2 Z"
     id="path848"
     inkscape:connector-curvature="0"
     sodipodi:nodetypes="cccssscccccccsssccccc" />
  <path
     id="path816"
     style="fill:url(#linearGradient842);fill-opacity:1"
     d="M 6 2 L 4.5 4 L 7 6 L 7 13 C 7 15.77 9.2299999 18 12 18 C 14.77 18 17 15.77 17 13 L 17 6 L 14 4 L 17 4 L 17 2 L 13 2 L 11.5 4 L 14 6 L 14 13 C 14 14.108 13.108 15 12 15 C 10.892 15 9.843305 14.096864 10 13 L 10 6 L 7 4 L 10 4 L 10 2 L 6 2 z M 5 20 L 5 21 L 19 21 L 19 20 L 5 20 z M 5 22 L 5 23 L 19 23 L 19 22 L 5 22 z " />
</svg>
