<?xml version="1.0" encoding="UTF-8" standalone="no"?>
<svg
   xmlns:dc="http://purl.org/dc/elements/1.1/"
   xmlns:cc="http://creativecommons.org/ns#"
   xmlns:rdf="http://www.w3.org/1999/02/22-rdf-syntax-ns#"
   xmlns:svg="http://www.w3.org/2000/svg"
   xmlns="http://www.w3.org/2000/svg"
   xmlns:sodipodi="http://sodipodi.sourceforge.net/DTD/sodipodi-0.dtd"
   xmlns:inkscape="http://www.inkscape.org/namespaces/inkscape"
   viewBox="0 0 16 16"
   version="1.1"
   id="svg4"
   sodipodi:docname="sc_underlinedouble.svg"
   inkscape:export-filename="/home/jupiter007/Libreoffice yaru theme fullcolor/build/cmd/km/sc_underlinedouble.png"
   inkscape:export-xdpi="96"
   inkscape:export-ydpi="96"
   inkscape:version="1.0.1 (3bc2e813f5, 2020-09-07)">
  <metadata
     id="metadata10">
    <rdf:RDF>
      <cc:Work
         rdf:about="">
        <dc:format>image/svg+xml</dc:format>
        <dc:type
           rdf:resource="http://purl.org/dc/dcmitype/StillImage" />
      </cc:Work>
    </rdf:RDF>
  </metadata>
  <defs
     id="defs8" />
  <sodipodi:namedview
     pagecolor="#ffffff"
     bordercolor="#666666"
     borderopacity="1"
     objecttolerance="10"
     gridtolerance="10"
     guidetolerance="10"
     inkscape:pageopacity="0"
     inkscape:pageshadow="2"
     inkscape:window-width="1920"
     inkscape:window-height="1011"
     id="namedview6"
     showgrid="true"
     inkscape:zoom="29.5"
     inkscape:cx="5.5182"
     inkscape:cy="6.8534024"
     inkscape:window-x="0"
     inkscape:window-y="0"
     inkscape:window-maximized="1"
     inkscape:current-layer="svg4"
     inkscape:document-rotation="0">
    <inkscape:grid
       type="xygrid"
       id="grid845" />
  </sodipodi:namedview>
  <path
     style="opacity:0.6;fill:#000000;fill-opacity:1;stroke:#000000;stroke-width:2;stroke-linejoin:round;stroke-miterlimit:4;stroke-dasharray:none"
     d="m 3.4999503,1 -2,2 2.5,2 2e-7,3.9999998 C 3.9999506,10.65685 5.5669505,12 7.4999505,12 h 1 C 10.43295,12 11.99995,10.65685 11.99995,8.9999998 V 4.5 L 9.9999503,3 H 11.99995 V 1 H 9.4999503 l -2,2 2.5,2 V 6.3125 8 c 0,1.1045698 -0.8954298,1.9999998 -1.9999998,1.9999998 -1.10457,0 -2,-0.89543 -2,-1.9999998 V 6.3125 4.5 L 3.9999503,3 h 2 V 1 Z"
     id="path848"
     inkscape:connector-curvature="0"
     sodipodi:nodetypes="cccsccsccccccccssscccccc" />
  <path
     style="fill:#ffffff;fill-opacity:1"
     d="m 3.4999503,1 -2,2 2.5,2 2e-7,3.9999998 C 3.9999506,10.65685 5.5669505,12 7.4999505,12 h 1 C 10.43295,12 11.99995,10.65685 11.99995,8.9999998 V 4.5 L 9.9999503,3 H 11.99995 V 1 H 9.4999503 l -2,2 2.5,2 V 6.3125 8 c 0,1.1045698 -0.8954298,1.9999998 -1.9999998,1.9999998 -1.10457,0 -2,-0.89543 -2,-1.9999998 V 6.3125 4.5 L 3.9999503,3 h 2 V 1 Z"
     id="path820"
     inkscape:connector-curvature="0"
     sodipodi:nodetypes="cccsccsccccccccssscccccc" />
  <path
     style="opacity:0.6;fill:#000000;stroke:#000000;stroke-width:2;stroke-linejoin:round;stroke-miterlimit:4;stroke-dasharray:none"
     d="M 2 12 L 2 13 L 14 13 L 14 12 L 2 12 z M 2 14 L 2 15 L 14 15 L 14 14 L 2 14 z "
     id="path817" />
  <path
     style="fill:#ffffff"
     d="m 2,14 v 1 h 12 v -1 z"
     id="path2" />
  <path
     id="path843"
     d="m 2,12 v 1 h 12 v -1 z"
     style="fill:#ffffff"
     inkscape:connector-curvature="0" />
</svg>
