<svg xmlns="http://www.w3.org/2000/svg" xmlns:xlink="http://www.w3.org/1999/xlink" viewBox="0 0 24 24"><defs><linearGradient id="a"><stop offset="0" stop-color="#151515"/><stop offset="1" stop-color="#4d4d4d"/></linearGradient><linearGradient xlink:href="#a" id="b" x1="10" y1="7" x2="10" y2="19" gradientUnits="userSpaceOnUse" gradientTransform="translate(0 -1.001)"/></defs><path d="M18 5.999c-1.657 0-3 1.12-3 2.5v5c0 1.38 1.343 2.5 3 2.5s3-1.12 3-2.5v-5c0-1.38-1.343-2.5-3-2.5zm0 2a1 1 0 011 1v4a1 1 0 11-2 0v-4a1 1 0 011-1zM10 5.999c-1.657 0-3 1.12-3 2.5v5c0 1.38 1.343 2.5 3 2.5s3-1.12 3-2.5v-5c0-1.38-1.343-2.5-3-2.5zm0 2a1 1 0 011 1v4a1 1 0 11-2 0v-4a1 1 0 011-1z" stroke="#fff" stroke-width="2"/><path d="M3 13.999v2h1c0 1 0 1-1 2 1 0 2 0 2-2v-2z" fill-rule="evenodd" stroke="#fff" stroke-width="2" stroke-linejoin="round"/><path d="M10 5.999c-1.657 0-3 1.12-3 2.5v5c0 1.38 1.343 2.5 3 2.5s3-1.12 3-2.5v-5c0-1.38-1.343-2.5-3-2.5zm8 0c-1.657 0-3 1.12-3 2.5v5c0 1.38 1.343 2.5 3 2.5s3-1.12 3-2.5v-5c0-1.38-1.343-2.5-3-2.5zm-8 2a1 1 0 011 1v4a1 1 0 11-2 0v-4a1 1 0 011-1zm8 0a1 1 0 011 1v4a1 1 0 11-2 0v-4a1 1 0 011-1zm-15 6v2h1c0 1 0 1-1 2 1 0 2 0 2-2v-2z" fill="url(#b)"/><circle cy="16.5" cx="20.5" r="3.5" fill="#46a926"/><path overflow="visible" font-weight="400" style="line-height:normal;text-indent:0;text-align:start;text-decoration-line:none;text-decoration-style:solid;text-decoration-color:#000;text-transform:none;white-space:normal;isolation:auto;mix-blend-mode:normal;marker:none" d="M20 14v2h-2v1h2v2h1v-2h2v-1h-2v-2z" color="#000" font-family="sans-serif" fill="#fff"/></svg>