<?xml version="1.0" encoding="UTF-8" standalone="no"?>
<svg
   viewBox="0 0 16 16"
   version="1.1"
   id="svg8"
   sodipodi:docname="icon-set-stars-half.svg"
   inkscape:version="1.1.2 (76b9e6a115, 2022-02-25)"
   xmlns:inkscape="http://www.inkscape.org/namespaces/inkscape"
   xmlns:sodipodi="http://sodipodi.sourceforge.net/DTD/sodipodi-0.dtd"
   xmlns="http://www.w3.org/2000/svg"
   xmlns:svg="http://www.w3.org/2000/svg">
  <defs
     id="defs12" />
  <sodipodi:namedview
     id="namedview10"
     pagecolor="#ffffff"
     bordercolor="#666666"
     borderopacity="1.0"
     inkscape:pageshadow="2"
     inkscape:pageopacity="0.0"
     inkscape:pagecheckerboard="0"
     showgrid="false"
     inkscape:zoom="16"
     inkscape:cx="28.78125"
     inkscape:cy="9.96875"
     inkscape:window-width="1920"
     inkscape:window-height="1016"
     inkscape:window-x="0"
     inkscape:window-y="27"
     inkscape:window-maximized="1"
     inkscape:current-layer="svg8" />
  <path
     d="m 8.03,2 -1.875,3.939 -4.15,0.621 2.982,3.08 -0.732,4.336 3.719,-2.037 3.697,2.061 -0.684,-4.34 3.02,-3.062 -4.143,-0.645 z m -0.008,2 1.221,2.7308789 2.762,0.432 -2.01,1.9451211 0.455,3.048803 -2.463,-1.373 -2.48,1.357 0.488,-3.046803 -1.988,-1.9591211 2.766,-0.412 z"
     id="path2"
     style="fill:#000000;opacity:0.7" />
  <path
     d="m 5.1956827,12.690882 0.2776019,-1.70485 0.2559244,-1.6363244 -1.1004132,-1.1116787 -1.1004133,-1.1116789 0.3458598,-0.058326 1.513609,-0.2307315 1.2070873,-0.2101571 1.2450123,-2.6934403 0.1600491,-0.3558688 0,7.7015887 -1.4354435,0.739909 -1.3630644,0.740084 -0.00581,-0.06852 z"
     fill-opacity="0.501961"
     id="path4"
     style="fill:#fee581;fill-opacity:1"
     sodipodi:nodetypes="ccccccccccccccc" />
  <path
     d="m 10.804317,12.690882 -0.277602,-1.70485 -0.255924,-1.6363244 1.100413,-1.1116787 1.100413,-1.1116789 -0.345859,-0.058326 -1.513609,-0.2307315 -1.2070876,-0.2101571 -1.2450123,-2.6934403 -0.1600491,-0.3558688 0,7.7015887 1.4354435,0.739909 1.3630645,0.740084 0.0058,-0.06852 z"
     fill-opacity="0.501961"
     id="path70"
     style="fill:#ffffff;fill-opacity:1"
     sodipodi:nodetypes="ccccccccccccccc" />
</svg>
