<svg xmlns="http://www.w3.org/2000/svg" xmlns:xlink="http://www.w3.org/1999/xlink" viewBox="0 0 16 11"><defs><linearGradient id="a"><stop style="stop-color:#151515;stop-opacity:1" offset="0"/><stop style="stop-color:#4d4d4d;stop-opacity:1" offset="1"/></linearGradient><linearGradient xlink:href="#a" id="b" x1="7" y1="1" x2="7" y2="10" gradientUnits="userSpaceOnUse"/></defs><path d="M7.688 1 5.344 9.75l.968.25 2.344-8.75zm2 0L7.344 9.75l.968.25 2.344-8.75zM4.28 2 1.313 5.156 1 5.5l.313.344L4.28 9l.688-.688L2.375 5.5 5 2.687zm7.438 0L11 2.688 13.625 5.5l-2.594 2.813.688.687 2.969-3.156L15 5.5l-.313-.344z" fill="#f27935" style="fill:#000;stroke:#fff;opacity:1;stroke-width:2;stroke-miterlimit:4;stroke-dasharray:none;stroke-linejoin:round"/><path style="fill:#fff" fill="#f27935" d="M7.688 1 5.344 9.75l.968.25 2.344-8.75zm2 0L7.344 9.75l.968.25 2.344-8.75zM4.28 2 1.313 5.156 1 5.5l.313.344L4.28 9l.688-.688L2.375 5.5 5 2.687zm7.438 0L11 2.688 13.625 5.5l-2.594 2.813.688.687 2.969-3.156L15 5.5l-.313-.344z"/><path d="M7.688 1 5.344 9.75l.968.25 2.344-8.75zm2 0L7.344 9.75l.968.25 2.344-8.75zM4.28 2 1.313 5.156 1 5.5l.313.344L4.28 9l.688-.688L2.375 5.5 5 2.687zm7.438 0L11 2.688 13.625 5.5l-2.594 2.813.688.687 2.969-3.156L15 5.5l-.313-.344z" fill="#f27935" style="fill:url(#b);fill-opacity:1"/></svg>