<svg xmlns="http://www.w3.org/2000/svg" viewBox="0 0 32 32"><path style="fill:#000;stroke:#000;opacity:.7;stroke-width:2;stroke-miterlimit:4;stroke-dasharray:none;stroke-linejoin:round" fill="#03875B" d="M15 4v24h1V4z"/><path d="M15 4v24h1V4z" fill="#03875B" style="fill:#fff"/><path d="M14 5C8.477 5 4 9.253 4 14.5S8.477 24 14 24h9v3l5-4-5-4v3h-9c-4.418 0-8-3.358-8-7.5C6 10.358 9.582 7 14 7z" style="opacity:.7;fill:#000;fill-opacity:1;stroke:#000;stroke-width:2;stroke-linecap:butt;stroke-linejoin:round;stroke-miterlimit:4;stroke-dasharray:none;stroke-opacity:1"/><path style="fill:#e97cc8;fill-opacity:1;stroke:none;stroke-width:1px;stroke-linecap:butt;stroke-linejoin:miter;stroke-opacity:1" d="M14 5C8.477 5 4 9.253 4 14.5S8.477 24 14 24h9v3l5-4-5-4v3h-9c-4.418 0-8-3.358-8-7.5C6 10.358 9.582 7 14 7z"/></svg>