<svg xmlns="http://www.w3.org/2000/svg" xmlns:xlink="http://www.w3.org/1999/xlink" viewBox="0 0 140 120"><defs><linearGradient xlink:href="#a" id="b" x1="592" y1="204" x2="592" y2="-4" gradientUnits="userSpaceOnUse" gradientTransform="matrix(.37815 0 0 .37815 -153.401 21.576)"/><linearGradient id="a"><stop offset="0" stop-color="#e72662"/><stop offset=".483" stop-color="#ec3c50"/><stop offset="1" stop-color="#ff7b66"/></linearGradient></defs><path d="M0 0v120h140V0H95.455z" fill="#fff"/><path style="line-height:125%;-inkscape-font-specification:Ubuntu;text-align:center" d="M89.876 32c-.71-.008-1.654.103-2.911.292l-20.91 3.197c-5.048 1.075-5.03 1.41-5.048 5.675V75.77c-.21-.148-.418-.296-.636-.442v.002c-1.604-1.075-3.313-1.84-5.609-1.84-2.876 0-4.591 1.102-5.63 2.552-1.038 1.45-1.382 3.279-1.382 4.692 0 1.705.582 3.523 1.844 4.91C50.857 87.03 52.797 88 55.588 88c3.15 0 5.367-.88 6.62-2.598.987-1.353 1.532-3.16 1.727-5.39v-.006c.027-.27.047-.548.064-.835.027-.44.02-1.265.02-1.265V51.408c0-3.785 0-4.011 5.05-4.874L83.94 44.2c5.059-.662 5.06-.201 5.06 2.641V71.16c-.205-.144-.407-.288-.619-.43v.001c-1.604-1.075-3.313-1.84-5.609-1.84-2.876 0-4.591 1.102-5.63 2.552-1.038 1.45-1.382 3.28-1.382 4.692 0 1.705.582 3.524 1.845 4.91 1.262 1.386 3.203 2.357 5.993 2.357 3.151 0 5.368-.88 6.62-2.599.987-1.353 1.532-3.16 1.727-5.39v-.006c.027-.27.047-.548.064-.834.026-.44.021-1.266.021-1.266V36.443c0-3.32-.022-4.42-2.153-4.443z" font-weight="400" font-size="15" font-family="Ubuntu" letter-spacing="0" word-spacing="0" text-anchor="middle" opacity=".8" fill="url(#b)"/></svg>