<?xml version="1.0" encoding="UTF-8" standalone="no"?>
<svg
   xmlns:dc="http://purl.org/dc/elements/1.1/"
   xmlns:cc="http://creativecommons.org/ns#"
   xmlns:rdf="http://www.w3.org/1999/02/22-rdf-syntax-ns#"
   xmlns:svg="http://www.w3.org/2000/svg"
   xmlns="http://www.w3.org/2000/svg"
   xmlns:xlink="http://www.w3.org/1999/xlink"
   xmlns:sodipodi="http://sodipodi.sourceforge.net/DTD/sodipodi-0.dtd"
   xmlns:inkscape="http://www.inkscape.org/namespaces/inkscape"
   height="54"
   viewBox="0 0 17.991667 14.287501"
   width="68"
   version="1.1"
   id="svg33"
   sodipodi:docname="displaymode_handoutmaster.svg"
   inkscape:export-filename="/home/jupiter007/Libreoffice yaru theme/build/sd/res/displaymode_handoutmaster.png"
   inkscape:export-xdpi="96"
   inkscape:export-ydpi="96"
   inkscape:version="0.92.4 (5da689c313, 2019-01-14)">
  <metadata
     id="metadata39">
    <rdf:RDF>
      <cc:Work
         rdf:about="">
        <dc:format>image/svg+xml</dc:format>
        <dc:type
           rdf:resource="http://purl.org/dc/dcmitype/StillImage" />
      </cc:Work>
    </rdf:RDF>
  </metadata>
  <defs
     id="defs37">
    <clipPath
       clipPathUnits="userSpaceOnUse"
       id="clipPath1082-3">
      <path
         sodipodi:nodetypes="sssssssss"
         inkscape:connector-curvature="0"
         id="path1084-6"
         d="M 361.9375,-212 C 507.2348,-212 528,-191.28677 528,-46.125 V 70.125 C 528,215.28618 507.2348,236 361.9375,236 H 214.0625 C 68.7652,236 48,215.28618 48,70.125 V -46.125 C 48,-191.28677 68.7652,-212 214.0625,-212 Z"
         style="display:inline;opacity:1;fill:#8c59d9;fill-opacity:1;stroke:none;stroke-width:2;stroke-linecap:round;stroke-linejoin:round;stroke-miterlimit:4;stroke-dasharray:none;stroke-dashoffset:0;stroke-opacity:1;enable-background:new" />
    </clipPath>
    <linearGradient
       inkscape:collect="always"
       xlink:href="#linearGradient927"
       id="linearGradient929"
       x1="168"
       y1="234"
       x2="168"
       y2="283"
       gradientUnits="userSpaceOnUse"
       gradientTransform="matrix(-0.26458335,0,0,0.26458335,53.445836,-61.383338)" />
    <linearGradient
       inkscape:collect="always"
       id="linearGradient927">
      <stop
         style="stop-color:#ffffff;stop-opacity:1;"
         offset="0"
         id="stop923" />
      <stop
         id="stop933"
         offset="0.125"
         style="stop-color:#ffffff;stop-opacity:0.09803922" />
      <stop
         id="stop931"
         offset="0.92500001"
         style="stop-color:#ffffff;stop-opacity:0.09803922" />
      <stop
         style="stop-color:#ffffff;stop-opacity:0.49803922"
         offset="1"
         id="stop925" />
    </linearGradient>
  </defs>
  <sodipodi:namedview
     pagecolor="#ffffff"
     bordercolor="#666666"
     borderopacity="1"
     objecttolerance="10"
     gridtolerance="10"
     guidetolerance="10"
     inkscape:pageopacity="0"
     inkscape:pageshadow="2"
     inkscape:window-width="1920"
     inkscape:window-height="1011"
     id="namedview35"
     showgrid="true"
     inkscape:zoom="8"
     inkscape:cx="25.338891"
     inkscape:cy="15.36324"
     inkscape:window-x="1920"
     inkscape:window-y="32"
     inkscape:window-maximized="1"
     inkscape:current-layer="svg33">
    <inkscape:grid
       type="xygrid"
       id="grid846" />
  </sodipodi:namedview>
  <linearGradient
     id="a"
     gradientTransform="matrix(0.26490985,0,0,0.25577503,-0.531778,283.38909)"
     gradientUnits="userSpaceOnUse"
     x1="33"
     x2="33"
     xlink:href="#b"
     y1="50.107143"
     y2=".392856" />
  <linearGradient
     id="b">
    <stop
       offset="0"
       stop-color="#bdc3c7"
       id="stop3" />
    <stop
       offset="1"
       stop-color="#dadfe1"
       id="stop5" />
  </linearGradient>
  <linearGradient
     id="c"
     gradientTransform="matrix(0.26490985,0,0,0.25577503,0.527855,283.38908)"
     gradientUnits="userSpaceOnUse"
     x1="33"
     x2="33"
     xlink:href="#b"
     y1="50.107143"
     y2=".392856" />
  <linearGradient
     id="d"
     gradientUnits="userSpaceOnUse"
     x1="2.647134"
     x2="14.303167"
     y1="284.814109"
     y2="295.940323">
    <stop
       offset="0"
       stop-color="#383e51"
       id="stop9" />
    <stop
       offset="1"
       stop-color="#655c6f"
       stop-opacity="0"
       id="stop11" />
  </linearGradient>
  <linearGradient
     id="e"
     gradientTransform="matrix(0.24736747,0,0,0.31098111,-188.88308,-0.988162)"
     gradientUnits="userSpaceOnUse"
     x1="798"
     x2="798"
     y1="958.21936"
     y2="912.21936">
    <stop
       offset="0"
       stop-color="#22a7f0"
       id="stop14" />
    <stop
       offset="1"
       stop-color="#19b5fe"
       id="stop16" />
  </linearGradient>
  <path
     style="color:#000000;font-style:normal;font-variant:normal;font-weight:normal;font-stretch:normal;font-size:medium;line-height:normal;font-family:sans-serif;font-variant-ligatures:normal;font-variant-position:normal;font-variant-caps:normal;font-variant-numeric:normal;font-variant-alternates:normal;font-feature-settings:normal;text-indent:0;text-align:start;text-decoration:none;text-decoration-line:none;text-decoration-style:solid;text-decoration-color:#000000;letter-spacing:normal;word-spacing:normal;text-transform:none;writing-mode:lr-tb;direction:ltr;text-orientation:mixed;dominant-baseline:auto;baseline-shift:baseline;text-anchor:start;white-space:normal;shape-padding:0;clip-rule:nonzero;display:inline;overflow:visible;visibility:visible;opacity:0.2;isolation:auto;mix-blend-mode:normal;color-interpolation:sRGB;color-interpolation-filters:linearRGB;solid-color:#000000;solid-opacity:1;vector-effect:none;fill:#000000;fill-opacity:1;fill-rule:nonzero;stroke:none;stroke-width:0.26458335;stroke-linecap:round;stroke-linejoin:round;stroke-miterlimit:4;stroke-dasharray:none;stroke-dashoffset:0;stroke-opacity:1;color-rendering:auto;image-rendering:auto;shape-rendering:auto;text-rendering:auto;enable-background:accumulate"
     d="m 12.152746,0.52906335 c 1.808314,0 2.876881,0.1186815 3.504695,0.74569115 0.627817,0.6270096 0.746726,1.6944235 0.746726,3.5010782 v 5.0004189 c 0,1.8066464 -0.118909,2.8740654 -0.746726,3.5010774 -0.627814,0.627013 -1.696381,0.745692 -3.504695,0.745692 H 5.8389198 c -1.808313,0 -2.87688,-0.118679 -3.504694,-0.745692 -0.627817,-0.627012 -0.746726,-1.694431 -0.746726,-3.5010774 V 4.7758327 c 0,-1.8066547 0.118909,-2.8740686 0.746726,-3.5010782 0.627814,-0.62700965 1.696381,-0.74569115 3.504694,-0.74569115 z"
     id="path907" />
  <path
     style="display:inline;opacity:1;fill:#8c59d9;fill-opacity:1;stroke:none;stroke-width:0.5291667;stroke-linecap:round;stroke-linejoin:round;stroke-miterlimit:4;stroke-dasharray:none;stroke-dashoffset:0;stroke-opacity:1;enable-background:new"
     d="m 12.152746,0.39677165 c 3.604054,0 4.119129,0.5137865 4.119129,4.11447745 v 5.0004188 c 0,3.6006781 -0.515075,4.1144781 -4.119129,4.1144781 H 5.8389198 c -3.604053,0 -4.119128,-0.5138 -4.119128,-4.1144781 V 4.5112491 c 0,-3.60069095 0.515075,-4.11447745 4.119128,-4.11447745 z"
     id="path888" />
  <path
     style="color:#000000;font-style:normal;font-variant:normal;font-weight:normal;font-stretch:normal;font-size:medium;line-height:normal;font-family:sans-serif;font-variant-ligatures:normal;font-variant-position:normal;font-variant-caps:normal;font-variant-numeric:normal;font-variant-alternates:normal;font-feature-settings:normal;text-indent:0;text-align:start;text-decoration:none;text-decoration-line:none;text-decoration-style:solid;text-decoration-color:#000000;letter-spacing:normal;word-spacing:normal;text-transform:none;writing-mode:lr-tb;direction:ltr;text-orientation:mixed;dominant-baseline:auto;baseline-shift:baseline;text-anchor:start;white-space:normal;shape-padding:0;clip-rule:nonzero;display:inline;overflow:visible;visibility:visible;opacity:0.5;isolation:auto;mix-blend-mode:normal;color-interpolation:sRGB;color-interpolation-filters:linearRGB;solid-color:#000000;solid-opacity:1;vector-effect:none;fill:none;fill-opacity:1;fill-rule:nonzero;stroke:url(#linearGradient929);stroke-width:0.26458335;stroke-linecap:round;stroke-linejoin:round;stroke-miterlimit:4;stroke-dasharray:none;stroke-dashoffset:0;stroke-opacity:1;color-rendering:auto;image-rendering:auto;shape-rendering:auto;text-rendering:auto;enable-background:accumulate"
     d="M 12.152746,0.66135505 H 5.8389198 c -1.789453,0 -2.741895,0.1478412 -3.224093,0.62941995 -0.482195,0.4815761 -0.630452,1.4327453 -0.630452,3.2204741 v 5.0004188 c 0,1.7877241 0.148257,2.7388951 0.630452,3.2204741 0.482198,0.481582 1.43464,0.62942 3.224093,0.62942 h 6.3138262 c 1.789454,0 2.741896,-0.147838 3.224094,-0.62942 0.482195,-0.481579 0.630452,-1.43275 0.630452,-3.2204741 V 4.5112491 c 0,-1.7877288 -0.148257,-2.738898 -0.630452,-3.2204741 C 14.894642,0.80919625 13.9422,0.66135505 12.152746,0.66135505 Z"
     id="path911" />
  <path
     style="display:inline;opacity:0.4;fill:none;fill-opacity:1;stroke:#000000;stroke-width:0.26458335;stroke-linecap:round;stroke-linejoin:round;stroke-miterlimit:4;stroke-dasharray:none;stroke-dashoffset:0;stroke-opacity:1;enable-background:new"
     d="m 12.152746,0.39677165 c 3.604054,0 4.119129,0.5137865 4.119129,4.11447745 v 5.0004188 c 0,3.6006781 -0.515075,4.1144781 -4.119129,4.1144781 H 5.8389198 c -3.604053,0 -4.119128,-0.5138 -4.119128,-4.1144781 V 4.5112491 c 0,-3.60069095 0.515075,-4.11447745 4.119128,-4.11447745 z"
     id="path892" />
  <path
     style="opacity:0.98799995;fill:#e7e7e7;fill-opacity:1;fill-rule:nonzero;stroke:none;stroke-width:0.29334247;stroke-linecap:butt;stroke-linejoin:round;stroke-miterlimit:4;stroke-dasharray:none;stroke-dashoffset:0;stroke-opacity:1"
     d="m 3.9687502,7.672917 h 3.7041671 c 0.4397375,0 0.79375,0.3540124 0.79375,0.7937499 V 11.1125 c 0,0.439738 -0.3540125,0.79375 -0.79375,0.79375 H 3.9687502 c -0.4397374,0 -0.7937499,-0.354012 -0.7937499,-0.79375 V 8.4666669 c 0,-0.4397375 0.3540125,-0.7937499 0.7937499,-0.7937499 z"
     id="path861"
     inkscape:connector-curvature="0" />
  <path
     style="opacity:0.98799995;fill:#e7e7e7;fill-opacity:1;fill-rule:nonzero;stroke:none;stroke-width:0.29334247;stroke-linecap:butt;stroke-linejoin:round;stroke-miterlimit:4;stroke-dasharray:none;stroke-dashoffset:0;stroke-opacity:1"
     d="m 10.31875,7.672917 h 3.704167 c 0.439737,0 0.79375,0.3540124 0.79375,0.7937499 V 11.1125 c 0,0.439738 -0.354013,0.79375 -0.79375,0.79375 H 10.31875 c -0.4397375,0 -0.7937499,-0.354012 -0.7937499,-0.79375 V 8.4666669 c 0,-0.4397375 0.3540124,-0.7937499 0.7937499,-0.7937499 z"
     id="path859"
     inkscape:connector-curvature="0" />
  <path
     style="opacity:0.98799995;fill:#e7e7e7;fill-opacity:1;fill-rule:nonzero;stroke:none;stroke-width:0.29334247;stroke-linecap:butt;stroke-linejoin:round;stroke-miterlimit:4;stroke-dasharray:none;stroke-dashoffset:0;stroke-opacity:1"
     d="m 10.31875,2.116667 h 3.704168 c 0.439737,0 0.79375,0.3540124 0.79375,0.7937498 v 2.6458341 c 0,0.4397373 -0.354013,0.7937497 -0.79375,0.7937497 H 10.31875 c -0.439737,0 -0.7937494,-0.3540124 -0.7937494,-0.7937497 V 2.9104168 c 0,-0.4397374 0.3540124,-0.7937498 0.7937494,-0.7937498 z"
     id="path857" />
  <path
     style="opacity:0.98799995;fill:#e7e7e7;fill-opacity:1;fill-rule:nonzero;stroke:none;stroke-width:0.29334247;stroke-linecap:butt;stroke-linejoin:round;stroke-miterlimit:4;stroke-dasharray:none;stroke-dashoffset:0;stroke-opacity:1"
     d="m 3.9687499,2.116667 h 3.7041675 c 0.4397374,0 0.7937498,0.3540124 0.7937498,0.7937498 v 2.6458341 c 0,0.4397373 -0.3540124,0.7937497 -0.7937498,0.7937497 H 3.9687499 c -0.4397373,0 -0.7937497,-0.3540124 -0.7937497,-0.7937497 V 2.9104168 c 0,-0.4397374 0.3540124,-0.7937498 0.7937497,-0.7937498 z"
     id="rect953" />
</svg>
