<?xml version="1.0" encoding="UTF-8" standalone="no"?>
<svg
   xmlns:dc="http://purl.org/dc/elements/1.1/"
   xmlns:cc="http://creativecommons.org/ns#"
   xmlns:rdf="http://www.w3.org/1999/02/22-rdf-syntax-ns#"
   xmlns:svg="http://www.w3.org/2000/svg"
   xmlns="http://www.w3.org/2000/svg"
   xmlns:sodipodi="http://sodipodi.sourceforge.net/DTD/sodipodi-0.dtd"
   xmlns:inkscape="http://www.inkscape.org/namespaces/inkscape"
   viewBox="0 0 16 16"
   version="1.1"
   id="svg16"
   sodipodi:docname="placeholder_image_small.svg"
   inkscape:version="1.0.1 (3bc2e813f5, 2020-09-07)">
  <metadata
     id="metadata22">
    <rdf:RDF>
      <cc:Work
         rdf:about="">
        <dc:format>image/svg+xml</dc:format>
        <dc:type
           rdf:resource="http://purl.org/dc/dcmitype/StillImage" />
      </cc:Work>
    </rdf:RDF>
  </metadata>
  <defs
     id="defs20" />
  <sodipodi:namedview
     pagecolor="#ffffff"
     bordercolor="#666666"
     borderopacity="1"
     objecttolerance="10"
     gridtolerance="10"
     guidetolerance="10"
     inkscape:pageopacity="0"
     inkscape:pageshadow="2"
     inkscape:window-width="1920"
     inkscape:window-height="1016"
     id="namedview18"
     showgrid="false"
     inkscape:zoom="27.5"
     inkscape:cx="5.6369054"
     inkscape:cy="8.4380296"
     inkscape:window-x="0"
     inkscape:window-y="27"
     inkscape:window-maximized="1"
     inkscape:current-layer="svg16" />
  <g
     id="g863"
     style="opacity:0.5">
    <path
       sodipodi:nodetypes="cccscsccccccccscscccccc"
       inkscape:connector-curvature="0"
       id="path4237-1"
       d="m 3.9965709,0.98042118 c -1.2582,0.0145 -2.178891,-0.030604 -2.931641,0.38476562 -0.37636998,0.20766 -0.67323098,0.5593869 -0.83789098,0.9980469 -0.16467,0.43867 -0.2516059,0.9601419 -0.224609,1.6171875 v 1.488281 6.5508768 c 0,0.65761 0.0599,1.178578 0.224609,1.617189 0.16468,0.438611 0.461531,0.788524 0.83789098,0.996093 0.75272,0.41513 1.673541,0.371649 2.931641,0.386718 h 0.002 8.0058091 0.0039 c 1.25819,-0.0145 2.178891,0.0306 2.931641,-0.384767 0.37637,-0.20766 0.673221,-0.559386 0.837891,-0.998046 0.164539,-0.43867 0.224618,-0.959577 0.224618,-1.617187 V 5.4472182 3.9804212 c 0,-0.6576 -0.0599,-1.1785775 -0.224609,-1.6171875 C 15.613141,1.9246337 15.31629,1.5746999 14.93993,1.36714 14.18716,0.95200998 13.266329,0.99550118 12.008239,0.98042118 h -0.002 -8.0058091 z"
       style="font-style:normal;font-variant:normal;font-weight:normal;font-stretch:normal;font-size:15px;line-height:125%;font-family:Ubuntu;-inkscape-font-specification:Ubuntu;text-align:center;letter-spacing:0px;word-spacing:0px;writing-mode:lr-tb;text-anchor:middle;display:inline;opacity:0.7;fill:#000000;fill-opacity:1;stroke:none;stroke-width:0.999802" />
    <path
       inkscape:connector-curvature="0"
       id="path1993"
       d="M 7.9857738,2.007606 C 6.4291929,2.018402 3.8758089,1.995854 2.3258579,2.046381 1.8646289,2.089049 1.3096699,2.2528004 1.1705179,2.7563478 0.95152392,3.3916942 1.0621039,4.090135 1.0247219,4.7382721 c -0.0078,2.2970841 -0.02297,5.6350029 0.02152,7.9243549 0.0391,0.461928 0.202551,1.012665 0.698756,1.163665 0.632456,0.225082 1.284144,0.12274 1.935974,0.154299 1.424235,0.0068 3.850538,0.01102 5.2763949,0.01131 1.7045312,3.49e-4 2.4083632,-0.005 4.1071652,-0.01851 0.511911,-0.01201 1.183699,0.01993 1.584745,-0.405191 0.421097,-0.539783 0.287073,-1.268022 0.322745,-1.903787 0.01187,-2.4443232 0.02769,-5.9496698 -0.0219,-8.3953693 C 14.900846,2.8670034 14.78013,2.4060916 14.374983,2.2245685 13.706814,1.9304711 12.948778,2.0565496 12.249062,2.0189958 10.494655,2.0071932 9.7402128,2.0065114 7.9857738,2.007606 Z"
       style="opacity:1;vector-effect:none;fill:#d85eca;fill-opacity:1;stroke:none;stroke-width:1;stroke-linecap:round;stroke-linejoin:bevel;stroke-miterlimit:4;stroke-dasharray:none;stroke-dashoffset:0;stroke-opacity:1"
       sodipodi:nodetypes="cccccccsccccccc" />
    <path
       d="m 11.502431,4.0189958 c -0.82843,0 -1.5,0.67157 -1.5,1.5 0,0.82843 0.67157,1.5 1.5,1.5 0.82843,0 1.5,-0.67157 1.5,-1.5 0,-0.82843 -0.67157,-1.5 -1.5,-1.5 z"
       id="path4527-0-3"
       style="color:#000000;display:inline;overflow:visible;visibility:visible;fill:#ffffff;fill-opacity:1;fill-rule:nonzero;stroke:none;stroke-width:5.99881;marker:none;enable-background:accumulate" />
    <path
       d="m 6.0024299,6.5189958 -3,5.5000002 h 2.71817 5.2818311 l -2.5000012,-4.5000002 -0.9999999,1.5 z"
       id="path4156-2-1"
       style="color:#000000;display:inline;overflow:visible;visibility:visible;fill:#ffffff;fill-opacity:1;fill-rule:nonzero;stroke:none;stroke-width:5.99881;marker:none;enable-background:accumulate" />
  </g>
</svg>
