<?xml version="1.0" encoding="UTF-8" standalone="no"?>
<svg
   xmlns:dc="http://purl.org/dc/elements/1.1/"
   xmlns:cc="http://creativecommons.org/ns#"
   xmlns:rdf="http://www.w3.org/1999/02/22-rdf-syntax-ns#"
   xmlns:svg="http://www.w3.org/2000/svg"
   xmlns="http://www.w3.org/2000/svg"
   xmlns:sodipodi="http://sodipodi.sourceforge.net/DTD/sodipodi-0.dtd"
   xmlns:inkscape="http://www.inkscape.org/namespaces/inkscape"
   viewBox="0 0 32 32"
   version="1.1"
   id="svg14"
   sodipodi:docname="placeholder_chart_large_hover.svg"
   inkscape:version="1.0.1 (3bc2e813f5, 2020-09-07)">
  <metadata
     id="metadata20">
    <rdf:RDF>
      <cc:Work
         rdf:about="">
        <dc:format>image/svg+xml</dc:format>
        <dc:type
           rdf:resource="http://purl.org/dc/dcmitype/StillImage" />
      </cc:Work>
    </rdf:RDF>
  </metadata>
  <defs
     id="defs18" />
  <sodipodi:namedview
     pagecolor="#ffffff"
     bordercolor="#666666"
     borderopacity="1"
     objecttolerance="10"
     gridtolerance="10"
     guidetolerance="10"
     inkscape:pageopacity="0"
     inkscape:pageshadow="2"
     inkscape:window-width="1920"
     inkscape:window-height="1016"
     id="namedview16"
     showgrid="false"
     inkscape:zoom="27.5"
     inkscape:cx="16"
     inkscape:cy="16"
     inkscape:window-x="0"
     inkscape:window-y="27"
     inkscape:window-maximized="1"
     inkscape:current-layer="svg14" />
  <path
     sodipodi:nodetypes="cccscsccccccccscscccccc"
     inkscape:connector-curvature="0"
     id="path4237-1-3"
     d="m 6.9941412,4.9725686 c -1.2582,0.0145 -2.178891,-0.0306 -2.931641,0.384766 -0.3763699,0.20766 -0.6732309,0.559387 -0.8378909,0.998047 -0.16467,0.43867 -0.224609,0.9595872 -0.224609,1.617187 v 1.488282 14.5665804 c 0,0.65761 0.0599,1.178577 0.224609,1.617188 0.16468,0.438611 0.461531,0.788524 0.8378909,0.996093 0.7527201,0.41513 1.6735411,0.371649 2.931641,0.386719 h 0.002 18.0058088 0.0039 c 1.25819,-0.0145 2.178891,0.0306 2.931641,-0.384766 0.37637,-0.20766 0.673221,-0.559386 0.837891,-0.998046 C 28.939921,25.205948 28.998286,24.685039 29,24.027431 V 9.4393666 7.9725686 c 0,-0.6576 -0.0599,-1.178577 -0.224609,-1.617187 -0.16468,-0.4386 -0.461531,-0.788534 -0.837891,-0.996094 -0.75277,-0.41513 -1.673601,-0.371639 -2.931691,-0.386719 h -0.002 -18.0058088 z"
     style="font-style:normal;font-variant:normal;font-weight:normal;font-stretch:normal;font-size:15px;line-height:125%;font-family:Ubuntu;-inkscape-font-specification:Ubuntu;text-align:center;letter-spacing:0px;word-spacing:0px;writing-mode:lr-tb;text-anchor:middle;display:inline;opacity:0.7;fill:#000000;fill-opacity:1;stroke:none;stroke-width:0.999802" />
  <path
     inkscape:connector-curvature="0"
     id="path1993-1"
     d="m 11.983369,5.9997536 c -1.556581,0.0108 -5.1099898,-0.01175 -6.6599408,0.03877 -0.461229,0.04267 -1.016188,0.20642 -1.15534,0.709967 -0.2189939,0.635346 -0.1084139,1.333787 -0.1457959,1.981924 -0.0078,2.2970854 -0.02297,13.6507074 0.02152,15.9400594 0.0391,0.461929 0.2025511,1.012666 0.6987561,1.163666 0.632456,0.225082 1.284144,0.12274 1.935974,0.154298 1.424235,0.0068 4.8505626,0.01102 6.2764196,0.01131 1.704531,3.5e-4 11.408338,-0.005 13.10714,-0.01851 0.511911,-0.01201 1.183699,0.01993 1.584745,-0.405191 0.421097,-0.539783 0.287073,-1.268021 0.322745,-1.903787 0.01187,-2.444323 0.02769,-13.9653734 -0.0219,-16.4110734 -0.04928,-0.40204 -0.169992,-0.862952 -0.575139,-1.044475 -0.668169,-0.294098 -1.426205,-0.168019 -2.125921,-0.205573 -1.754407,-0.0118 -11.508824,-0.01248 -13.263263,-0.01139 z"
     style="opacity:1;vector-effect:none;fill:#80a3fa;fill-opacity:1;stroke:none;stroke-width:1;stroke-linecap:round;stroke-linejoin:bevel;stroke-miterlimit:4;stroke-dasharray:none;stroke-dashoffset:0;stroke-opacity:1"
     sodipodi:nodetypes="cccccccscccccccc" />
  <path
     style="opacity:1;fill:#ffffff;fill-opacity:1;stroke:none;stroke-width:2;stroke-linecap:round;stroke-linejoin:round;stroke-miterlimit:4;stroke-dasharray:none;stroke-opacity:1"
     d="m 8.0000002,7.9997486 v 2 h -2 v 1.0000004 h 2 v 9.999999 h -2 v 1 h 2 v 2 h 1 v -2 H 23 v 2 h 1 v -2 h 2 v -1 h -2 v -9.999999 h 2 V 9.9997486 h -2 v -2 h -1 v 2 H 9.0000002 v -2 z m 1,3.0000004 H 23 v 9.999999 h -2 v -6 h -2 v 6 h -2 v -4 h -2 v 4 h -2 v -8 h -2 v 8 H 9.0000002 Z"
     id="rect830"
     inkscape:connector-curvature="0"
     sodipodi:nodetypes="cccccccccccccccccccccccccccccccccccccccccccccc" />
</svg>
