<svg xmlns="http://www.w3.org/2000/svg" xmlns:xlink="http://www.w3.org/1999/xlink" viewBox="0 0 24 24"><defs><linearGradient xlink:href="#a" id="d" x1="22.245" y1="-345.069" x2="38.245" y2="-345.069" gradientUnits="userSpaceOnUse" gradientTransform="rotate(-90 31.657 -357.412)"/><linearGradient id="a"><stop offset="0" style="stop-color:#4d4d4d;stop-opacity:1"/><stop offset="1" style="stop-color:#151515;stop-opacity:1"/></linearGradient><linearGradient id="b" gradientTransform="matrix(.93897 0 0 .26458 -217.548 281.708)" gradientUnits="userSpaceOnUse" x1="236.195" x2="236.195" y1="35.804" y2="53.804"><stop offset="0" stop-color="#f4f4f4" stop-opacity=".746"/><stop offset=".5" stop-color="#f7f7f7"/><stop offset="1" stop-color="#dcdcdc"/></linearGradient><linearGradient id="c" gradientTransform="matrix(.26458 0 0 .26458 -20.905 216.09)" gradientUnits="userSpaceOnUse" x1="105.472" x2="105.472" y1="283.477" y2="303.339"><stop offset="0" stop-color="#fff"/><stop offset=".063" stop-color="#fff" stop-opacity=".235"/><stop offset=".951" stop-color="#fff" stop-opacity=".157"/><stop offset="1" stop-color="#fff" stop-opacity=".392"/></linearGradient></defs><path d="M.806 290.92a.529.529 0 0 0-.529.53l-.005 2.425c0 .282.22.51.499.526l7.09-.007a.529.529 0 0 0 .53-.53l.004-2.425c0-.282-.22-.51-.497-.526z" style="opacity:.2;fill:none;stroke:#000;stroke-width:.38657799;stroke-linecap:round;stroke-linejoin:round" transform="translate(.78 -750.036) scale(2.5868)"/><path style="fill:url(#b)" d="M1 291.111a.525.525 0 0 0-.529.53l.024 1.978a.531.531 0 0 0 .53.53l6.688.035a.525.525 0 0 0 .53-.529l-.025-1.978a.531.531 0 0 0-.53-.53z" transform="translate(.78 -750.036) scale(2.5868)"/><path style="fill:none;stroke:url(#c);stroke-width:.38657799;stroke-linecap:round;stroke-linejoin:round" d="m7.73 291.318-6.79-.001a.264.264 0 0 0-.264.264l-.007 2.134c0 .142.111.255.251.262l6.8.003a.264.264 0 0 0 .265-.265l.007-2.133a.263.263 0 0 0-.263-.264z" transform="translate(.78 -750.036) scale(2.5868)"/><g style="fill:#fff;fill-opacity:.8455883"><path d="M8 7h1v1H8zM9 6h1v1H9zM10 7h1v1h-1zM8 8h1v1H8zM10 8h1v1h-1zM9 9h1v1H9zM12 6h1v1h-1zM12 7h1v1h-1zM12 8h1v1h-1zM12 9h1v1h-1zM14 6h1v1h-1ZM13 7h1v1h-1zM14 8h1v1h-1ZM14 9h1v1h-1Z"/></g><g style="fill:#4d4d4d;stroke-width:.38657799"><path d="M8 6h1v1H8zM9 5h1v1H9zM10 6h1v1h-1zM8 7h1v1H8zM10 7h1v1h-1zM9 8h1v1H9zM12 5h1v1h-1zM12 6h1v1h-1zM12 7h1v1h-1zM12 8h1v1h-1zM14 5h1v1h-1ZM13 6h1v1h-1zM14 7h1v1h-1ZM14 8h1v1h-1Z"/></g><g style="display:inline"><path style="display:inline;fill:none;fill-opacity:1;fill-rule:evenodd;stroke:#fff;stroke-width:2;stroke-linecap:butt;stroke-linejoin:miter;stroke-miterlimit:4;stroke-dasharray:none;stroke-opacity:1" d="M27-365.314v14.283l3.133-3.82 2.066 4.703c.5 1.256 2.383.476 1.848-.766l-2.111-4.812 4.378.01z" transform="matrix(.83245 0 0 .83245 -10.476 313.107)"/><path d="M27-365.314v14.283l3.133-3.82 2.066 4.703c.5 1.256 2.383.476 1.848-.766l-2.111-4.812 4.378.01z" style="display:inline;fill:url(#d);fill-opacity:1;fill-rule:evenodd;stroke:none;stroke-width:2;stroke-linecap:butt;stroke-linejoin:miter;stroke-miterlimit:4;stroke-dasharray:none;stroke-opacity:1" transform="matrix(.83245 0 0 .83245 -10.476 313.107)"/></g></svg>