<svg xmlns="http://www.w3.org/2000/svg" viewBox="0 0 24 24"><path d="M2 4v6h3c1.108 0 2-.892 2-2 0-.81-.497-1.498-1.188-1.813C5.918 5.982 6 5.748 6 5.5 6 4.669 5.331 4 4.5 4H3zm1 1h1.5a.499.499 0 110 1H3zm0 2h2c.554 0 1 .446 1 1s-.446 1-1 1H3zM5 14a3 3 0 000 6h1v-1H5a2 2 0 110-4h1v-1z" fill="#88a05d"/><path fill="#fff" fill-rule="evenodd" d="M9 8h10V7H9z"/><path fill="#232629" fill-rule="evenodd" d="M9 7h10V6H9z"/><path fill="#fff" fill-rule="evenodd" d="M9 6h14V5H9z"/><path fill="#232629" fill-rule="evenodd" d="M9 5h14V4H9z"/><path fill="#fff" fill-rule="evenodd" d="M9 14h10v-1H9z"/><path fill="#232629" fill-rule="evenodd" d="M9 13h10v-1H9z"/><path fill="#fff" fill-rule="evenodd" d="M9 12h14v-1H9z"/><path fill="#232629" fill-rule="evenodd" d="M9 11h14v-1H9z"/><path fill="#fff" fill-rule="evenodd" d="M9 20h10v-1H9z"/><path fill="#232629" fill-rule="evenodd" d="M9 19h10v-1H9z"/><path fill="#fff" fill-rule="evenodd" d="M9 18h14v-1H9z"/><path fill="#232629" fill-rule="evenodd" d="M9 17h14v-1H9z"/></svg>