<svg xmlns="http://www.w3.org/2000/svg" xmlns:xlink="http://www.w3.org/1999/xlink" viewBox="0 0 24 24"><defs><linearGradient xlink:href="#a" id="b" x1="12" y1="7" x2="12" y2="23" gradientUnits="userSpaceOnUse" gradientTransform="translate(-1 -.008)"/><linearGradient id="a"><stop offset="0" stop-color="#151515"/><stop offset="1" stop-color="#4d4d4d"/></linearGradient></defs><path d="M6 6.992c-2 0-3 1-3 3v3c0 1-1 1-2 1.5v1c1 .5 2 .5 2 1.5v3c0 2 1 3 3 3h1v-2H6c-1 0-1 0-1-1v-3c0-1 0-1-1-2 1-1 1-1 1-2v-3c0-1 0-1 1-1h1v-2zM12 7.001c2 0 3 1 3 3v3c0 1 1 1 2 1.5v1c-1 .5-2 .5-2 1.5v3c0 2-1 3-3 3h-1v-2h1c1 0 1 0 1-1v-3c0-1 0-1 1-2-1-1-1-1-1-2v-3c0-1-.022-1.21-1-1h-1v-2z" stroke="#fff" stroke-width="2" stroke-linejoin="round"/><path d="M6 7c-2 0-3 1-3 3v3c0 1-1 1-2 1.5v1C2 16 3 16 3 17v3c0 2 1 3 3 3h1v-2H6c-1 0-1 0-1-1v-3c0-1 0-1-1-2 1-1 1-1 1-2v-3c0-1 0-1 1-1h1V7zm5 0v2h1c1 0 1 0 1 1v3c0 1 0 1 1 2-1 1-1 1-1 2v3c0 1 0 1-1 1h-1v2h1c2 0 3-1 3-3v-3c0-1 1-1 2-1.5v-1c-1-.5-2-.5-2-1.5v-3c0-2-1.045-3.421-3-3z" fill="url(#b)"/><g fill="#88a05d"><path d="M20.5 11.019L23 7l-5.015.017z"/><path style="line-height:normal;font-variant-ligatures:normal;font-variant-position:normal;font-variant-caps:normal;font-variant-numeric:normal;font-variant-alternates:normal;font-variant-east-asian:normal;font-feature-settings:normal;font-variation-settings:normal;text-indent:0;text-align:start;text-decoration-line:none;text-decoration-style:solid;text-decoration-color:#000;text-transform:none;text-orientation:mixed;white-space:normal;shape-padding:0;shape-margin:0;inline-size:0;isolation:auto;mix-blend-mode:normal;solid-color:#000;solid-opacity:1" d="M20.998 7h-1c-.002-.732-.007-2.346-.043-2.771-.044-.526-.139-.806-.23-.928-.092-.122-.207-.191-.565-.244-.358-.053-.91-.062-1.66-.057H14V2h3.5c.75 0 1.323-.004 1.809.068.485.072.933.253 1.216.631.284.378.376.848.426 1.447.04.487.046 2.115.047 2.854z" color="#000" font-weight="400" font-family="sans-serif" overflow="visible"/></g></svg>