<svg xmlns="http://www.w3.org/2000/svg" viewBox="0 0 24 24"><path d="M17.006 3c1.258.014 2.179-.03 2.932.384.376.208.673.56.837.999.165.438.225.96.225 1.617v12c0 .658-.06 1.179-.225 1.617a1.875 1.875 0 0 1-.837.997c-.753.415-1.674.371-2.932.386H6.994c-1.258-.014-2.179.03-2.932-.384a1.88 1.88 0 0 1-.837-.999C3.06 19.18 3 18.657 3 18V6c0-.658.06-1.179.225-1.617.164-.44.461-.789.837-.997.753-.415 1.674-.371 2.932-.386H17.002z" style="font-style:normal;font-variant:normal;font-weight:400;font-stretch:normal;font-size:15px;line-height:125%;font-family:Ubuntu;-inkscape-font-specification:Ubuntu;text-align:center;letter-spacing:0;word-spacing:0;writing-mode:lr-tb;text-anchor:middle;display:inline;opacity:.7;fill:#000;fill-opacity:1;stroke:none;stroke-width:.99980211"/><path d="M12.017 4.027c1.556.01 5.11-.012 6.66.039.46.042 1.016.206 1.155.71.219.635.108 1.333.146 1.982.008 2.297.023 9.596-.022 11.885-.039.462-.202 1.013-.699 1.164-.632.225-1.284.123-1.936.154-1.424.007-4.85.011-6.276.012-1.704 0-3.408-.005-5.107-.019-.512-.012-1.184.02-1.585-.405-.421-.54-.287-1.268-.323-1.904-.011-2.444-.027-9.911.022-12.357.05-.402.17-.863.575-1.044.669-.294 1.427-.168 2.126-.206a715.83 715.83 0 0 1 5.264-.011z" style="opacity:1;vector-effect:none;fill:#fff;fill-opacity:1;stroke:none;stroke-width:1;stroke-linecap:round;stroke-linejoin:bevel;stroke-miterlimit:4;stroke-dasharray:none;stroke-dashoffset:0;stroke-opacity:1"/><path style="opacity:1;fill:#232629;fill-opacity:1;fill-rule:evenodd;stroke:none;stroke-width:2;stroke-linecap:butt;stroke-linejoin:round;stroke-miterlimit:4;stroke-dasharray:none;stroke-opacity:1" d="M7 7h2v2H7z"/><path style="opacity:.7;fill:#000;fill-rule:evenodd;stroke:#000;stroke-width:2;stroke-linecap:round;stroke-linejoin:round;stroke-miterlimit:4;stroke-dasharray:none" d="M18.951 14A2 2 0 0 0 17 16v2h-1v4h6v-4h-1v-2a2 2 0 0 0-2-2 2 2 0 0 0-.049 0zM19 15a1 1 0 0 1 1 1v2h-2v-2a1 1 0 0 1 1-1z"/><path style="opacity:1;fill:#fee581;fill-opacity:1;fill-rule:evenodd;stroke-width:1.88562;stroke-linecap:round;stroke-linejoin:round" d="M18.951 14A2 2 0 0 0 17 16v2h-1v4h6v-4h-1v-2a2 2 0 0 0-2-2 2 2 0 0 0-.049 0zM19 15a1 1 0 0 1 1 1v2h-2v-2a1 1 0 0 1 1-1z"/></svg>