<svg xmlns="http://www.w3.org/2000/svg" viewBox="0 0 24 24"><path d="M18.5 7c-.303.014-.398.027-.469.031C11.897 7.277 7 12.306 7 18.5c0 .167.024.334.031.5H20V7z" fill="#b3b3b3"/><path d="M18.5 5.5a13 13 0 00-13 13h1a12 12 0 0112-12 12 12 0 011 .05V5.544a13 13 0 00-1-.043z" fill="#1463a5" stroke="#1463a5"/><path d="M5 4c-.554 0-1 .446-1 1v2c0 .554.446 1 1 1h2c.554 0 1-.446 1-1h12V5H8c0-.554-.446-1-1-1z" fill="gray"/><path opacity=".7" d="M19 4h4v4h-4z"/><path fill="#aee3f8" d="M20 5h2v2h-2z"/><path fill="#fff" d="M5 5.043h2V7H5z"/><path opacity=".7" d="M4 18h4v4H4z"/><path fill="#aee3f8" d="M5 19h2v2H5z"/><circle cy="18.5" cx="18.5" r="3.5" fill="#88a05d"/><path d="M18.5 16c-.433 0-.833.12-1.188.313l.75.75c.138-.041.287-.063.438-.063.831 0 1.5.669 1.5 1.5 0 .15-.021.3-.063.438l.75.75c.193-.355.313-.755.313-1.188 0-1.385-1.115-2.5-2.5-2.5zm-2.188 1.313A2.476 2.476 0 0016 18.5c0 1.385 1.115 2.5 2.5 2.5.433 0 .833-.12 1.188-.313l-.75-.75A1.539 1.539 0 0118.5 20c-.831 0-1.5-.669-1.5-1.5 0-.15.021-.3.063-.438z" fill="#fff"/></svg>