<svg xmlns="http://www.w3.org/2000/svg" viewBox="0 0 24 24"><path style="opacity:.7;fill:#000;stroke:#000;stroke-width:2;stroke-linejoin:round;stroke-miterlimit:4;stroke-dasharray:none" d="M4 4v14c4.54-.071 8.031.151 12.688 1.281L20 6C13.75 4.302 8.68 4.023 4 4Z"/><path d="M4 4v14c4.54-.071 8.031.151 12.688 1.281L20 6C13.75 4.302 8.68 4.023 4 4Z" style="fill:#fff"/><path d="m8 9-2 2 2 2v-1c2.613 0 4.417.315 6.281.781l-.25.907 2.438-1.407-1.406-2.437-.25.937C12.882 10.32 10.482 10 8 10Z" style="fill:#232629;fill-opacity:1"/></svg>