<svg xmlns="http://www.w3.org/2000/svg" viewBox="0 0 24 24"><path d="M6 4a1.998 1.998 0 00-.822.18 2.004 2.004 0 00-.586.4l-.018.02a2 2 0 00-.224.271v.002a2.001 2.001 0 00-.31 1.512 1.994 1.994 0 00.541 1.023l.019.018a2 2 0 00.271.224h.002a2.001 2.001 0 001.512.31 1.993 1.993 0 00.438-.14c.065-.03.125-.067.187-.103l10.636 10.637-.365.365L16 20h4v-4l-1.281 1.281-.365.365L7.719 7.012c.039-.067.078-.133.11-.203l.025-.063A1.99 1.99 0 008 6a2 2 0 00-.27-1H7.73A1.997 1.997 0 006 4zm0 1a1 1 0 110 2 1 1 0 010-2z" stroke="#000" opacity=".7" stroke-width="2" stroke-linejoin="round"/><path d="M6 4a1.998 1.998 0 00-.822.18 2.004 2.004 0 00-.586.4l-.018.02a2 2 0 00-.224.271v.002a2.001 2.001 0 00-.31 1.512 1.994 1.994 0 00.541 1.023l.019.018a2 2 0 00.271.224h.002a2.001 2.001 0 001.512.31 1.993 1.993 0 00.438-.14c.065-.03.125-.067.187-.103l10.636 10.637-.365.365L16 20h4v-4l-1.281 1.281-.365.365L7.719 7.012c.039-.067.078-.133.11-.203l.025-.063A1.99 1.99 0 008 6a2 2 0 00-.27-1H7.73A1.997 1.997 0 006 4zm0 1a1 1 0 110 2 1 1 0 010-2z" fill="#fff"/></svg>