<svg xmlns="http://www.w3.org/2000/svg" viewBox="0 0 24 24"><path style="fill:#000;stroke:#000;opacity:.7;stroke-width:2;stroke-miterlimit:4;stroke-dasharray:none;stroke-linejoin:round" d="M4 4v14c4.54-.071 8.031.151 12.688 1.281L20 6C13.75 4.302 8.68 4.023 4 4z"/><path d="M4 4v14c4.54-.071 8.031.151 12.688 1.281L20 6C13.75 4.302 8.68 4.023 4 4z" style="fill:#fff"/><path d="m8 9-2 2 2 2v-1c2.613 0 4.417.315 6.281.781l-.25.906 2.438-1.406-1.407-2.437-.25.937C12.883 10.32 10.482 10 8 10z" style="fill:#232629;fill-opacity:1"/></svg>