<svg xmlns="http://www.w3.org/2000/svg" height="24" viewBox="0 0 6.35 6.35" width="24"><linearGradient id="a"><stop offset="0" stop-color="#fff"/><stop offset=".125" stop-color="#fff" stop-opacity=".099"/><stop offset="1" stop-color="#fff" stop-opacity="0"/><stop offset="1" stop-color="#fff" stop-opacity=".551"/></linearGradient><rect y=".529" x="3.44" height="2.381" width="2.381" ry=".265" opacity=".7"/><path fill="#fff" d="M3.704.794h1.852v1.852H3.704z"/><rect ry=".265" width="2.381" height="2.381" x="3.44" y="3.44" opacity=".7"/><path fill="#fff" d="M3.704 3.704h1.852v1.852H3.704z"/><path d="M4.63 1.058l.662 1.323H3.969" fill="#88a05d"/><circle cx="1.72" cy="1.72" fill="#88a05d" r="1.191"/><path style="line-height:normal;font-variant-ligatures:normal;font-variant-position:normal;font-variant-caps:normal;font-variant-numeric:normal;font-variant-alternates:normal;font-feature-settings:normal;text-indent:0;text-align:start;text-decoration-line:none;text-decoration-style:solid;text-decoration-color:#000;text-transform:none;text-orientation:mixed;white-space:normal;shape-padding:0;isolation:auto;mix-blend-mode:normal;solid-color:#000;solid-opacity:1;marker:none" d="M2.342 1.049l-.903.9-.341-.34-.221.221.562.56 1.124-1.12z" color="#000" font-weight="400" font-family="sans-serif" overflow="visible" fill="#fff"/><rect y="3.44" x=".529" height="2.381" width="2.381" ry=".265" fill="#88a05d"/><path d="M2.342 3.96l-.903.9-.341-.34-.221.22.562.561L2.563 4.18z" style="line-height:normal;font-variant-ligatures:normal;font-variant-position:normal;font-variant-caps:normal;font-variant-numeric:normal;font-variant-alternates:normal;font-feature-settings:normal;text-indent:0;text-align:start;text-decoration-line:none;text-decoration-style:solid;text-decoration-color:#000;text-transform:none;text-orientation:mixed;white-space:normal;shape-padding:0;isolation:auto;mix-blend-mode:normal;solid-color:#000;solid-opacity:1;marker:none" color="#000" font-weight="400" font-family="sans-serif" overflow="visible" fill="#fff"/><path d="M4.63 5.292L3.97 3.969h1.323" fill="#88a05d"/></svg>