<svg xmlns="http://www.w3.org/2000/svg" viewBox="0 0 24 24"><path d="M16.008 3.332l.75 1.3-8.813 5.089A3 3 0 006 9a3 3 0 00-3 3 3 3 0 003 3 3 3 0 001.95-.719l8.808 5.086-.75 1.301 4.281-.416-1.781-3.914-.75 1.299L9.727 13H19v1.5l3.5-2.5L19 9.5V11H9.727l8.03-4.637.75 1.3 1.782-3.915zM6 11a1 1 0 011 1 1 1 0 01-1 1 1 1 0 01-1-1 1 1 0 011-1z" fill="#88a05d" fill-rule="evenodd"/><circle cx="6" cy="12" r="1" fill="#fff" fill-rule="evenodd"/><circle cy="19.5" cx="19.5" r="3.5" fill="#c7162b"/><path overflow="visible" font-weight="400" style="line-height:normal;text-indent:0;text-align:start;text-decoration-line:none;text-decoration-style:solid;text-decoration-color:#000;text-transform:none;white-space:normal;isolation:auto;mix-blend-mode:normal;marker:none" d="M20.914 17.379L19.5 18.793l-1.414-1.414-.707.707 1.414 1.414-1.414 1.414.707.707 1.414-1.414 1.414 1.414.707-.707-1.414-1.414 1.414-1.414z" color="#000" font-family="sans-serif" fill="#fff"/></svg>