<svg xmlns="http://www.w3.org/2000/svg" viewBox="0 0 24 24"><path d="M6.003 3c-1.259.014-2.18-.03-2.932.385a1.88 1.88 0 00-.838.998c-.165.438-.224.96-.224 1.617v12c0 .658.06 1.179.224 1.617.165.439.462.789.838.996.753.415 1.674.372 2.932.387h11.994c1.259-.015 2.18.03 2.932-.385a1.88 1.88 0 00.838-.998c.164-.438.224-.96.224-1.617V6c0-.658-.06-1.179-.224-1.617a1.875 1.875 0 00-.838-.996c-.753-.415-1.674-.372-2.932-.387H6.006z" style="line-height:125%;-inkscape-font-specification:Ubuntu;text-align:center" font-weight="400" font-size="15" font-family="Ubuntu" letter-spacing="0" word-spacing="0" text-anchor="middle" opacity=".7"/><path d="M9 4c-1.002.007-2.001.006-3 .014-.553.004-1.108.007-1.66.025-.461.043-1.015.205-1.154.709-.14.402-.15.828-.145 1.252.003.246.012.493-.002.73A1981.08 1981.08 0 003.031 12c0 2.405.006 4.595.026 6 .002.145.001.498.004.617.039.462.203 1.011.699 1.162.632.225 1.283.123 1.935.155H6c1.531.006 4.614.011 5.97.011H12c1.453 0 4.13-.006 6-.015.336-.002.82 0 1.078-.002.512-.012 1.185.019 1.586-.407.226-.289.288-.9.307-1.521.016-.538-.001-1.086.015-1.38.005-.995.009-2.837.01-4.62.002-2.317-.005-4.45-.027-6-.003-.19 0-.58-.004-.738-.05-.402-.171-.864-.576-1.045-.668-.294-1.426-.168-2.125-.205H18c-1.28-.008-3.73-.007-6-.008C10.865 4.004 9.568 4 9 4z" fill="#fff"/><path d="M17.494 4.545l-4.95 4.95 4.243 4.241c1.414 1.415 2.121.708 3.535-.707l.707-.707c1.415-1.414 2.122-2.12.707-3.535zM11 6c-.554 0-1 .446-1 1v6c0 .554.446 1 1 1s1-.446 1-1V9.742a1 1 0 01.137-1.242l2.5-2.5h-.414z" opacity=".7" fill-rule="evenodd" stroke="#000" stroke-width="2" stroke-linecap="round" stroke-linejoin="round"/><path d="M12.544 9.494l4.95-4.95 4.242 4.243c1.415 1.414.707 2.12-.707 3.535l-.707.707c-1.414 1.414-2.121 2.122-3.535.707z" fill="#fff" fill-rule="evenodd"/><circle cx="5.657" cy="19.083" r=".5" transform="rotate(-45)" opacity=".7" fill-rule="evenodd" stroke="#000" stroke-width="2" stroke-linecap="round" stroke-linejoin="round"/><circle cx="5.657" cy="19.083" r=".5" transform="rotate(-45)" fill="#fff" fill-rule="evenodd"/><path d="M11 6c-.554 0-1 .446-1 1v6c0 .554.446 1 1 1s1-.446 1-1V9.742a1 1 0 01.137-1.242l2.5-2.5h-.414z" fill="#aee3f8" fill-rule="evenodd"/><path d="M19.5 2A2.5 2 0 0017 4v4.086c.324-.11.677-.11 1 .004V4a1.5 1 0 011.5-1A1.5 1 0 0121 4v2.635l1 1.002V4a2.5 2 0 00-2.5-2z" fill="#6d6d6d" fill-rule="evenodd"/></svg>