<svg xmlns="http://www.w3.org/2000/svg" viewBox="0 0 24 24"><path d="M12 4c-4.418 0-8 .895-8 2v12c0 1.105 3.582 2 8 2s8-.895 8-2V6c0-1.105-3.582-2-8-2z" fill="#f2cbf8"/><path d="M12 4c-4.418 0-8 .895-8 2v12c0 1.105 3.582 2 8 2s8-.895 8-2V6c0-1.105-3.582-2-8-2zm0 1c3.866 0 7 .448 7 1s-3.134 1-7 1-7-.448-7-1 3.134-1 7-1zM5 6.938C6.353 7.561 8.958 8 12 8s5.647-.438 7-1.063V10c0 .552-3.134 1-7 1s-7-.448-7-1v-.938zm0 4C6.353 11.562 8.958 12 12 12s5.647-.438 7-1.063V14c0 .552-3.134 1-7 1s-7-.448-7-1zm0 4C6.353 15.562 8.958 16 12 16s5.647-.438 7-1.063V18c0 .552-3.134 1-7 1s-7-.448-7-1z" fill="#8e03a3"/><g color="#000" font-weight="400" font-family="sans-serif" fill-rule="evenodd"><path d="M16.008 8.975v3H18a.451.451 0 00.008.025v6.975L18 19h-1.992v3h2c.599 0 1.086-.2 1.5-.46.414.26.9.46 1.5.46h2v-3h-1.992l-.008-.025V12l.008-.025h1.992v-3h-2c-.599 0-1.086.2-1.5.46a2.976 2.976 0 00-1.5-.46z" style="line-height:normal;font-variant-ligatures:normal;font-variant-position:normal;font-variant-caps:normal;font-variant-numeric:normal;font-variant-alternates:normal;font-feature-settings:normal;text-indent:0;text-align:start;text-decoration-line:none;text-decoration-style:solid;text-decoration-color:#000;text-transform:none;text-orientation:mixed;white-space:normal;shape-padding:0;isolation:auto;mix-blend-mode:normal;solid-color:#000;solid-opacity:1" overflow="visible" fill="#fff"/><path style="line-height:normal;font-variant-ligatures:normal;font-variant-position:normal;font-variant-caps:normal;font-variant-numeric:normal;font-variant-alternates:normal;font-feature-settings:normal;text-indent:0;text-align:start;text-decoration-line:none;text-decoration-style:solid;text-decoration-color:#000;text-transform:none;text-orientation:mixed;white-space:normal;shape-padding:0;isolation:auto;mix-blend-mode:normal;solid-color:#000;solid-opacity:1" d="M17.008 9.975v1h1c.583 0 .737.217.865.472.128.256.135.528.135.528V19s-.007.272-.135.527c-.128.256-.412.56-.865.473h-1v1h1c.727 0 1.19-.353 1.5-.738.31.385.773.738 1.5.738h1v-1h-1c-.584 0-.738-.217-.865-.473-.128-.255-.135-.527-.135-.527v-7.025s.007-.272.135-.528c.128-.255.283-.427.865-.472h1v-1h-1c-.727 0-1.19.353-1.5.738-.31-.385-.775-.679-1.5-.738z" overflow="visible" fill="#111"/></g></svg>