<svg xmlns="http://www.w3.org/2000/svg" viewBox="0 0 24 24"><path d="M12 4c-4.418 0-8 .895-8 2v12c0 1.105 3.582 2 8 2s8-.895 8-2V6c0-1.105-3.582-2-8-2z" fill="#f2cbf8"/><path d="M12 4c-4.418 0-8 .895-8 2v12c0 1.105 3.582 2 8 2s8-.895 8-2V6c0-1.105-3.582-2-8-2zm0 1c3.866 0 7 .448 7 1s-3.134 1-7 1-7-.448-7-1 3.134-1 7-1zM5 6.938C6.353 7.561 8.958 8 12 8s5.647-.438 7-1.063V10c0 .552-3.134 1-7 1s-7-.448-7-1v-.938zm0 4C6.353 11.562 8.958 12 12 12s5.647-.438 7-1.063V14c0 .552-3.134 1-7 1s-7-.448-7-1zm0 4C6.353 15.562 8.958 16 12 16s5.647-.438 7-1.063V18c0 .552-3.134 1-7 1s-7-.448-7-1z" fill="#8e03a3"/><g stroke-width="27.2"><path d="M17.567 20.553L13.267 24l.836-5.447.264-.456 3.464 2z" fill="#fec589"/><path style="marker:none" d="M13.472 22.696L13.268 24l1.027-.829c-.004.008-.823-.475-.823-.475z" color="#000" overflow="visible" fill="#5d5d5d"/><path d="M14.103 18.553s3.465 2.088 3.464 2L24 9.412l-3.464-2z" fill="#2f5fdd"/></g></svg>