<svg xmlns="http://www.w3.org/2000/svg" viewBox="0 0 24 24"><path d="M13 18v3h5v-3z" fill="#77216F"/><path d="M12 4c-4.418 0-8 .895-8 2v12c0 1.105 3.582 2 8 2s8-.895 8-2V6c0-1.105-3.582-2-8-2z" fill="#f2cbf8"/><path d="M12 4c-4.418 0-8 .895-8 2v12c0 1.105 3.582 2 8 2s8-.895 8-2V6c0-1.105-3.582-2-8-2zm0 1c3.866 0 7 .448 7 1s-3.134 1-7 1-7-.448-7-1 3.134-1 7-1zM5 6.938C6.353 7.562 8.958 8 12 8s5.647-.438 7-1.062V10c0 .552-3.134 1-7 1s-7-.448-7-1v-.937zm0 4C6.353 11.562 8.958 12 12 12s5.647-.438 7-1.063V14c0 .552-3.134 1-7 1s-7-.448-7-1zm0 4C6.353 15.562 8.958 16 12 16s5.647-.438 7-1.063V18c0 .552-3.134 1-7 1s-7-.448-7-1z" fill="#8e03a3"/><path d="M11 16v7h3v-1h-2v-5h2v-1h-3zm6 0v1h2v5h-2v1h3v-7h-3zm-4 2v3h5v-3h-5z" stroke="#000" opacity=".7" stroke-width="2" stroke-linejoin="round"/><path d="M13 18v3h5v-3z" fill="#d85eca"/><path d="M17 16h3v7h-3v-1h2v-5h-2zM14 16h-3v7h3v-1h-2v-5h2z" fill="#d85eca"/></svg>