<svg xmlns="http://www.w3.org/2000/svg" viewBox="0 0 24 24"><path d="M6.994 4c-1.258.014-2.179-.031-2.932.384a1.88 1.88 0 0 0-.837.998C3.06 5.821 3 6.342 3 7v10c0 .658.06 1.179.225 1.618.164.438.461.788.837.996.753.415 1.674.371 2.932.386h10.012c1.258-.014 2.179.031 2.932-.384a1.88 1.88 0 0 0 .837-.998c.165-.439.225-.96.225-1.618V7c0-.658-.06-1.179-.225-1.618a1.875 1.875 0 0 0-.837-.996c-.753-.415-1.674-.371-2.932-.386H6.998z" style="font-style:normal;font-variant:normal;font-weight:400;font-stretch:normal;font-size:15px;line-height:125%;font-family:Ubuntu;-inkscape-font-specification:Ubuntu;text-align:center;letter-spacing:0;word-spacing:0;writing-mode:lr-tb;text-anchor:middle;display:inline;opacity:.7;fill:#000;fill-opacity:1;stroke:none;stroke-width:.99980211"/><path d="M11.983 5.027c-1.556.01-5.11-.012-6.66.038-.46.043-1.016.207-1.155.71-.219.636-.108 1.334-.146 1.982-.008 2.297-.023 7.597.022 9.887.039.461.202 1.012.699 1.163.632.225 1.284.123 1.936.154 1.424.007 4.85.012 6.276.012 1.704 0 3.408-.005 5.107-.019.512-.012 1.184.02 1.585-.405.421-.54.287-1.268.323-1.904.011-2.444.027-7.911-.022-10.357-.05-.402-.17-.863-.575-1.044-.669-.294-1.427-.168-2.126-.206a715.99 715.99 0 0 0-5.264-.011z" style="opacity:1;vector-effect:none;fill:#aee3f8;fill-opacity:1;stroke:none;stroke-width:1;stroke-linecap:round;stroke-linejoin:bevel;stroke-miterlimit:4;stroke-dasharray:none;stroke-dashoffset:0;stroke-opacity:1"/><path style="color:#000;display:inline;overflow:visible;visibility:visible;opacity:1;fill:#232629;fill-opacity:1;fill-rule:nonzero;stroke:none;stroke-width:18.28524208;marker:none;enable-background:accumulate" d="m8.983 10-3 6h11l-3.5-4-1.5 2z"/><path style="opacity:1;vector-effect:none;fill:#232629;fill-opacity:1;stroke:none;stroke-width:3;stroke-linecap:round;stroke-linejoin:bevel;stroke-miterlimit:4;stroke-dasharray:none;stroke-dashoffset:0;stroke-opacity:1" d="M16.983 9.415a1.5 1.5 0 0 1-1.422 1.574 1.5 1.5 0 0 1-1.574-1.422 1.5 1.5 0 0 1 1.422-1.574 1.5 1.5 0 0 1 1.574 1.421"/><path d="M16 13c3.866 0 7 2.79 7 5s-3.134 5-7 5-7-2.79-7-5 3.134-5 7-5z" style="opacity:.7;fill:#000;fill-opacity:1;stroke:#000;stroke-width:2;stroke-linecap:round;stroke-linejoin:round;stroke-miterlimit:4;stroke-dasharray:none;stroke-opacity:1"/><path style="opacity:1;fill:#fff;fill-opacity:1;stroke:none;stroke-width:2;stroke-linecap:round;stroke-linejoin:round;stroke-miterlimit:4;stroke-dasharray:none;stroke-opacity:1" d="M16 13c3.866 0 7 2.79 7 5s-3.134 5-7 5-7-2.79-7-5 3.134-5 7-5z"/><path d="M16 16a2 2 0 1 0 2 2 2 2 0 0 0 0-.588A1 1 0 0 1 17 18a1 1 0 0 1-1-1 1 1 0 0 1 .59-1 2 2 0 0 0-.59 0z" style="fill:#232629"/><path style="opacity:1;fill:#232629;fill-opacity:1;stroke:none;stroke-width:2;stroke-linecap:round;stroke-linejoin:round;stroke-miterlimit:4;stroke-dasharray:none;stroke-opacity:1" d="M16 14a4 4 0 0 0-4 4 4 4 0 0 0 4 4 4 4 0 0 0 4-4 4 4 0 0 0-4-4zm0 1a3 3 0 0 1 3 3 3 3 0 0 1-3 3 3 3 0 0 1-3-3 3 3 0 0 1 3-3z"/></svg>