<svg xmlns="http://www.w3.org/2000/svg" viewBox="0 0 24 24"><path d="M6 17c-2 0-3 0-3-2V3c0-2 1-2 3-2h7l1 1 2 2 1 1v10c0 2-1 2-3 2z" opacity=".7" stroke="#000" stroke-width="2" stroke-linejoin="round"/><path d="M6 17c-2 0-3 0-3-2V3c0-2 1-2 3-2h7l1 1 2 2 1 1v10c0 2-1 2-3 2z" fill="#fff"/><path d="M13 5V1l4 4z" fill="#6d6d6d"/><path opacity=".7" stroke="#000" stroke-width="2" stroke-linejoin="round" d="M1 8h18v4H1z"/><path fill="#fec589" d="M1 8h18v4H1z"/><path fill="#333" d="M5 8h1v2H5z"/><path fill="#f22c42" d="M8 8h1v2H8z"/><path fill="#333" d="M11 8h1v2h-1z"/><path fill="#f22c42" d="M14 8h1v2h-1zM2 8h1v2H2z"/><path fill="#333" d="M17 8h1v2h-1z"/><path d="M10 23c-2 0-3 0-3-2V9c0-2 1-2 3-2h7l1 1 2 2 1 1v10c0 2-1 2-3 2z" opacity=".7" stroke="#000" stroke-width="2" stroke-linejoin="round"/><path d="M10 23c-2 0-3 0-3-2V9c0-2 1-2 3-2h7l1 1 2 2 1 1v10c0 2-1 2-3 2z" fill="#fff"/><path d="M17 11V7l4 4z" fill="#6d6d6d"/><path opacity=".7" stroke="#000" stroke-width="2" stroke-linejoin="round" d="M5 16h18v4H5z"/><path fill="#fec589" d="M5 16h18v4H5z"/><path fill="#333" d="M9 16h1v2H9z"/><path fill="#f22c42" d="M12 16h1v2h-1z"/><path fill="#333" d="M15 16h1v2h-1z"/><path fill="#f22c42" d="M18 16h1v2h-1zM6 16h1v2H6z"/><path fill="#333" d="M21 16h1v2h-1z"/></svg>