<svg xmlns="http://www.w3.org/2000/svg" viewBox="0 0 24 24"><path style="line-height:normal;font-variant-ligatures:normal;font-variant-position:normal;font-variant-caps:normal;font-variant-numeric:normal;font-variant-alternates:normal;font-variant-east-asian:normal;font-feature-settings:normal;font-variation-settings:normal;text-indent:0;text-align:start;text-decoration-line:none;text-decoration-style:solid;text-decoration-color:#000;text-transform:none;text-orientation:mixed;white-space:normal;shape-padding:0;shape-margin:0;inline-size:0;isolation:auto;mix-blend-mode:normal;solid-color:#000;solid-opacity:1" d="M4 2a1 1 0 00-1 1v18a1 1 0 001 1h9v-2H5V4h14v13.82l2 1.25V3a1 1 0 00-1-1H4z" color="#000" font-weight="400" font-family="sans-serif" overflow="visible" opacity=".7"/><path d="M4 3v18h9v-1h5v-2.805l2 1.25V3H4z" fill="#fff"/><path opacity=".7" d="M5 4h1v1H5zM5 7h1v1H5zM5 10h1v1H5zM5 13h1v1H5zM5 16h1v1H5zM5 19h1v1H5zM18 4h1v1h-1zM18 7h1v1h-1zM18 10h1v1h-1zM18 13h1v1h-1zM18 16h1v1h-1z"/><path fill="#232629" d="M7 7h10v1H7zM7 10h10v1H7zM7 13h10v1H7zM7 16h10v1H7z"/><path d="M23 21.5L19 19v2h-5v1h5v2z" fill="#88a05d"/></svg>