<svg xmlns="http://www.w3.org/2000/svg" viewBox="0 0 24 24"><path style="fill:#000;stroke:#000;opacity:.7;stroke-width:2;stroke-miterlimit:4;stroke-dasharray:none;stroke-linejoin:round" fill="#232629" d="M11.998 4a7.985 7.985 0 0 0-4.914 1.684L12 10.598l4.916-4.914A8.006 8.006 0 0 0 11.998 4zM5.68 7.088a8.034 8.034 0 0 0 0 9.83l4.916-4.916zm12.64 0-4.916 4.914 4.916 4.916a8.034 8.034 0 0 0 0-9.83zM12 13.406l-4.916 4.916a8.039 8.039 0 0 0 9.832 0z"/><path d="M11.998 4a7.985 7.985 0 0 0-4.914 1.684L12 10.598l4.916-4.914A8.006 8.006 0 0 0 11.998 4zM5.68 7.088a8.034 8.034 0 0 0 0 9.83l4.916-4.916zm12.64 0-4.916 4.914 4.916 4.916a8.034 8.034 0 0 0 0-9.83zM12 13.406l-4.916 4.916a8.039 8.039 0 0 0 9.832 0z" fill="#232629" style="fill:#fff"/></svg>