<svg xmlns="http://www.w3.org/2000/svg" viewBox="0 0 24 24"><path style="fill:#000;stroke:#000;opacity:.7;stroke-width:2;stroke-miterlimit:4;stroke-dasharray:none;stroke-linejoin:round" fill="#232629" d="M7.438 8 4 10.115C5.49 13.608 8.503 16 12 16h.002c3.497 0 6.51-2.392 8-5.885L16.564 8c-.78 2.4-2.525 4.076-4.562 4.076-2.038 0-3.786-1.676-4.565-4.076z"/><path d="M7.438 8 4 10.115C5.49 13.608 8.503 16 12 16h.002c3.497 0 6.51-2.392 8-5.885L16.564 8c-.78 2.4-2.525 4.076-4.562 4.076-2.038 0-3.786-1.676-4.565-4.076z" fill="#232629" style="fill:#fff"/></svg>