<svg xmlns="http://www.w3.org/2000/svg" viewBox="0 0 24 24"><path d="M18.188 11.5v1H20v-1zM11.5 18.188V20h1v-1.813zm5.25-2.157l-.719.719 1.282 1.281.718-.718zm-9.5 0l-1.281 1.282.718.718L7.97 16.75zM4 11.5v1h1.813v-1zM12 7a5 5 0 100 10 5 5 0 000-10zm5.313-1.031L16.03 7.25l.719.75 1.281-1.313zm-10.625 0l-.72.718L7.25 8l.719-.75zM11.5 4v1.813h1V4z" stroke="#000" opacity=".7" stroke-width="2" stroke-linejoin="round"/><path d="M18.188 11.5v1H20v-1zM11.5 18.188V20h1v-1.813zm5.25-2.157l-.719.719 1.282 1.281.718-.718zm-9.5 0l-1.281 1.282.718.718L7.97 16.75zM4 11.5v1h1.813v-1zM12 7a5 5 0 100 10 5 5 0 000-10zm5.313-1.031L16.03 7.25l.719.75 1.281-1.313zm-10.625 0l-.72.718L7.25 8l.719-.75zM11.5 4v1.813h1V4z" fill="#fff"/></svg>