<svg xmlns="http://www.w3.org/2000/svg" viewBox="0 0 24 24"><path style="line-height:normal;font-variant-ligatures:normal;font-variant-position:normal;font-variant-caps:normal;font-variant-numeric:normal;font-variant-alternates:normal;font-variant-east-asian:normal;font-feature-settings:normal;font-variation-settings:normal;text-indent:0;text-align:start;text-decoration-line:none;text-decoration-style:solid;text-decoration-color:#000;text-transform:none;text-orientation:mixed;white-space:normal;shape-padding:0;shape-margin:0;inline-size:0;isolation:auto;mix-blend-mode:normal;solid-color:#000;solid-opacity:1" d="M8 3c-1 0-1.84-.073-2.697.355-.43.215-.82.613-1.03 1.083C4.065 4.907 4 5.417 4 6v12c0 .583.065 1.093.273 1.563.21.47.6.867 1.03 1.082C6.16 21.073 7 21 8 21h5v-2H8c-1 0-1.66-.073-1.803-.145-.07-.035-.054-.012-.095-.105C6.06 18.657 6 18.417 6 18V6c0-.417.06-.657.102-.75.04-.093.024-.07.095-.105C6.34 5.073 7 5 8 5h6.586l.707.707 2 2 .707.707V16l2 1.445V8a1 1 0 00-.293-.707l-1-1-2-2-1-1A1 1 0 0015 3z" color="#000" font-weight="400" font-family="sans-serif" overflow="visible" opacity=".7"/><path d="M8 4C6 4 5 4 5 6v12c0 2 1 2 3 2h5v-1h5v-2.805l1 .625V8l-1-1-2-2-1-1H8z" fill="#fff"/><path d="M15 8V4l4 4z" fill="#6d6d6d"/><path d="M23 20.5L19 23v-2h-5v-1h5v-2z" fill="#e95420"/></svg>