<svg xmlns="http://www.w3.org/2000/svg" xmlns:xlink="http://www.w3.org/1999/xlink" viewBox="0 0 24 24"><defs><linearGradient xlink:href="#a" id="b" x1="3" y1="4" x2="3" y2="20" gradientUnits="userSpaceOnUse" gradientTransform="translate(0 -2)"/><linearGradient id="a"><stop offset="0" stop-color="#151515"/><stop offset="1" stop-color="#4d4d4d"/></linearGradient></defs><path style="line-height:normal;font-variant-ligatures:normal;font-variant-position:normal;font-variant-caps:normal;font-variant-numeric:normal;font-variant-alternates:normal;font-variant-east-asian:normal;font-feature-settings:normal;font-variation-settings:normal;text-indent:0;text-align:start;text-decoration-line:none;text-decoration-style:solid;text-decoration-color:#000;text-transform:none;text-orientation:mixed;white-space:normal;shape-padding:0;shape-margin:0;inline-size:0;isolation:auto;mix-blend-mode:normal;solid-color:#000;solid-opacity:1" d="M2 1a1 1 0 00-1 1v16a1 1 0 001 1h2a1 1 0 001-1v-6h10V2a1 1 0 00-1-1h-2a1 1 0 00-1 1v6H5V2a1 1 0 00-1-1zm1 8a1 1 0 001 1 1 1 0 00-1 1zm10 0v2a1 1 0 00-1-1 1 1 0 001-1z" color="#000" font-weight="400" font-family="sans-serif" overflow="visible" fill="#fff"/><path d="M2 2v16h2v-7h8v1h2V2h-2v7H4V2z" fill="url(#b)"/><path fill="#88a05d" fill-rule="evenodd" d="M11 13h13v1H11zM11 20h13v1H11zM13 14h1v6h-1z"/><path d="M15.5 13.5l3.5 7 3.5-7" fill="none" stroke="#88a05d" stroke-linejoin="round"/></svg>