<svg xmlns="http://www.w3.org/2000/svg" viewBox="0 0 24 24"><path d="M3 18l5-2.5L3 13z" fill="#88a05d"/><path fill="#fff" fill-rule="evenodd" d="M21 14H11v-1h10z"/><path fill="#232629" fill-rule="evenodd" d="M21 13H11v-1h10z"/><path fill="#fff" fill-rule="evenodd" d="M21 16H11v-1h10z"/><path fill="#232629" fill-rule="evenodd" d="M21 15H11v-1h10z"/><path fill="#fff" fill-rule="evenodd" d="M21 18H11v-1h10z"/><path fill="#232629" fill-rule="evenodd" d="M21 17H11v-1h10z"/><path fill="#fff" fill-rule="evenodd" d="M21 20H11v-1h10z"/><path fill="#232629" fill-rule="evenodd" d="M21 19H11v-1h10z"/><path fill="#fff" fill-rule="evenodd" d="M21 7H3V6h18z"/><path fill="#232629" fill-rule="evenodd" d="M21 6H3V5h18z"/><path fill="#fff" fill-rule="evenodd" d="M21 11H3v-1h18z"/><path fill="#232629" fill-rule="evenodd" d="M21 10H3V9h18z"/><path fill="#fff" fill-rule="evenodd" d="M21 9H3V8h18z"/><path fill="#232629" fill-rule="evenodd" d="M21 8H3V7h18z"/></svg>