<svg viewBox="0 0 24 24" xmlns="http://www.w3.org/2000/svg"><path style="font-style:normal;font-variant:normal;font-weight:400;font-stretch:normal;font-size:15px;line-height:125%;font-family:Ubuntu;-inkscape-font-specification:Ubuntu;text-align:center;letter-spacing:0;word-spacing:0;writing-mode:lr-tb;text-anchor:middle;display:inline;opacity:.7;fill:#000;fill-opacity:1;stroke:none;stroke-width:.999802" d="M5 1c-1.258.014-2.179-.03-2.932.385a1.88 1.88 0 0 0-.838.998c-.164.438-.224.96-.224 1.617v10.001c0 .657.06 1.178.224 1.617.165.438.462.788.838.996.753.415 1.674.372 2.932.387h8.012c1.259-.015 2.18.03 2.932-.385a1.88 1.88 0 0 0 .838-.998c.164-.439.225-.96.225-1.617V4c0-.658-.06-1.179-.225-1.617a1.875 1.875 0 0 0-.838-.996C15.191.972 14.27 1.015 13.012 1H5.004z"/><path style="opacity:1;fill:#fff;fill-opacity:1;stroke:none;stroke-width:1;stroke-linecap:round;stroke-linejoin:bevel;stroke-miterlimit:4;stroke-dasharray:none;stroke-dashoffset:0;stroke-opacity:1" d="M9.99 2.027c-1.557.011-5.11-.012-6.66.039-.462.043-1.017.206-1.156.71-.219.635-.108 1.334-.146 1.982-.008 2.297-.023 7.596.022 9.886.039.462.202 1.012.698 1.163.633.225 1.285.123 1.936.155 1.425.006 4.851.01 6.277.01 1.705.001 1.409-.004 3.108-.018.512-.012 1.183.02 1.584-.405.421-.54.287-1.268.323-1.904.012-2.444.028-7.91-.022-10.356-.05-.402-.17-.863-.575-1.045-.668-.294-1.426-.168-2.126-.205-1.754-.012-1.51-.013-3.264-.012z"/><path style="fill:#000;fill-opacity:1" d="M4 4v1h10V4H4zm0 2v1h3.422c.168-.273.396-.495.664-.643.431-.237.92-.323 1.492-.357H4zm2 4v1h1.023v-1H6zm0 3v1h1.023v-1H6z"/><path d="M11.017 5.972c-1.258.015-2.179-.03-2.932.385a1.88 1.88 0 0 0-.838.998c-.164.439-.224.96-.224 1.617v10.102c0 .658.06 1.179.224 1.617.165.44.462.789.838.997.753.415 1.674.371 2.932.386h8.012c1.258-.014 2.179.03 2.932-.384a1.88 1.88 0 0 0 .838-.999c.164-.438.224-.96.224-1.617V8.972c0-.657-.06-1.178-.224-1.617a1.875 1.875 0 0 0-.838-.996c-.753-.415-1.674-.372-2.932-.387H11.021z" style="font-style:normal;font-variant:normal;font-weight:400;font-stretch:normal;font-size:15px;line-height:125%;font-family:Ubuntu;-inkscape-font-specification:Ubuntu;text-align:center;letter-spacing:0;word-spacing:0;writing-mode:lr-tb;text-anchor:middle;display:inline;opacity:.7;fill:#000;fill-opacity:1;stroke:none;stroke-width:.999802"/><path d="M16.009 7c-1.557.01-5.11-.012-6.66.039-.462.042-1.017.206-1.156.71-.219.635-.108 1.334-.145 1.982-.008 2.297-.023 7.697.021 9.987.04.462.203 1.012.699 1.163.632.226 1.284.123 1.936.155 1.424.007 4.85.01 6.276.011 1.705 0 1.409-.005 3.108-.018.512-.012 1.183.02 1.585-.406.42-.54.287-1.268.322-1.903.012-2.445.028-8.013-.022-10.459-.049-.402-.17-.863-.575-1.044-.668-.294-1.426-.168-2.126-.206C17.518 7 17.763 7 16.01 7z" style="opacity:1;vector-effect:none;fill:#fff;fill-opacity:1;stroke:none;stroke-width:1;stroke-linecap:round;stroke-linejoin:bevel;stroke-miterlimit:4;stroke-dasharray:none;stroke-dashoffset:0;stroke-opacity:1"/><path style="fill:#88a05d;fill-opacity:1;stroke-width:1.19615" d="M12 18v1h6v-1z"/><path style="fill:#88a05d;fill-opacity:1" d="M12 16v1h8v-1z"/><path style="fill:#88a05d;fill-rule:evenodd;stroke-width:1.5;stroke-linejoin:round" d="M10 14v1h1v-1zm0 2v3h1v-3z"/><path style="fill:#000;fill-rule:evenodd;stroke-width:2;stroke-linecap:square;stroke-linejoin:round" d="M10 9h10v1H10zM10 11h8v1h-8z"/><path style="fill:#88a05d;fill-rule:evenodd;stroke-width:1.5;stroke-linejoin:round" d="M4 9v1h1V9zm0 2v3h1v-3z"/></svg>