<svg xmlns="http://www.w3.org/2000/svg" viewBox="0 0 24 24"><path style="opacity:.7;vector-effect:none;fill:#000;fill-opacity:1;stroke:#000;stroke-width:2;stroke-linecap:butt;stroke-linejoin:round;stroke-miterlimit:4;stroke-dasharray:none;stroke-dashoffset:0;stroke-opacity:1" d="M19 0v7c0 1.108-.892 2-2 2H7c-1.108 0-2-.892-2-2V0Z"/><path style="opacity:1;vector-effect:none;fill:#fff;fill-opacity:1;stroke:none;stroke-width:4;stroke-linecap:butt;stroke-linejoin:round;stroke-miterlimit:4;stroke-dasharray:none;stroke-dashoffset:0;stroke-opacity:1" d="M19 0v7c0 1.108-.892 2-2 2H7c-1.108 0-1.948-.893-2-2V0Z"/><path style="opacity:1;fill:#e97cc8;fill-opacity:1;stroke:none;stroke-width:1.63299322;stroke-linecap:round;stroke-linejoin:round;stroke-miterlimit:4;stroke-dasharray:none;stroke-opacity:1" d="M8 11h2v1H8zM14 11h2v1h-2z"/><path style="opacity:1;fill:#e97cc8;fill-opacity:1;stroke:none;stroke-width:1.6329931;stroke-linecap:round;stroke-linejoin:round;stroke-miterlimit:4;stroke-dasharray:none;stroke-opacity:1" d="M11 11h2v1h-2z"/><path style="opacity:1;fill:#e97cc8;fill-opacity:1;stroke:none;stroke-width:1.63299322;stroke-linecap:round;stroke-linejoin:round;stroke-miterlimit:4;stroke-dasharray:none;stroke-opacity:1" d="M5 11h2v1H5zM17 11h2v1h-2z"/><path style="opacity:.7;vector-effect:none;fill:#000;fill-opacity:1;stroke:#000;stroke-width:2;stroke-linecap:butt;stroke-linejoin:round;stroke-miterlimit:4;stroke-dasharray:none;stroke-dashoffset:0;stroke-opacity:1" d="M5 24v-8c0-1.108.892-2 2-2h10c1.108 0 2 .892 2 2v8z"/><path style="opacity:1;vector-effect:none;fill:#fff;fill-opacity:1;stroke:none;stroke-width:4;stroke-linecap:butt;stroke-linejoin:round;stroke-miterlimit:4;stroke-dasharray:none;stroke-dashoffset:0;stroke-opacity:1" d="M5 24v-8c0-1.108.892-2 2-2h10c1.108 0 1.948.893 2 2v8z"/><path style="fill:#e97cc8;fill-opacity:1;stroke:none;stroke-width:1px;stroke-linecap:butt;stroke-linejoin:miter" d="m0 9 4 2.5L0 14Z"/></svg>