<svg xmlns="http://www.w3.org/2000/svg" xmlns:xlink="http://www.w3.org/1999/xlink" viewBox="0 0 24 24"><defs><linearGradient id="a"><stop offset="0" stop-color="#151515"/><stop offset="1" stop-color="#4d4d4d"/></linearGradient><linearGradient xlink:href="#a" id="b" x1="12" y1="3" x2="12" y2="21" gradientUnits="userSpaceOnUse"/></defs><path d="M11.87 3C6.95 3.064 3 6.627 3 11c.001 3.038 1.938 5.814 5 7.164V19H5c-1 0-1 0-2-1v3h7V16.656a6 6 0 114 0V21h7v-3c-1 1-1 1-2 1h-3v-.834c3.063-1.35 5-4.127 5-7.166 0-4.418-4.03-8-9-8h-.13z" fill-rule="evenodd" stroke-width="2" stroke-linecap="round" stroke-linejoin="round" stroke="#fff"/><path d="M11.87 3C6.95 3.064 3 6.627 3 11c.001 3.038 1.938 5.814 5 7.164V19H5c-1 0-1 0-2-1v3h7V16.656a6 6 0 114 0V21h7v-3c-1 1-1 1-2 1h-3v-.834c3.063-1.35 5-4.127 5-7.166 0-4.418-4.03-8-9-8h-.13z" fill="url(#b)" fill-rule="evenodd"/></svg>