<svg xmlns="http://www.w3.org/2000/svg" viewBox="0 0 24 24"><path d="M21 11l-5-2.5L21 6z" fill="#88a05d"/><path fill="#fff" fill-rule="evenodd" d="M3 7h10V6H3z"/><path fill="#232629" fill-rule="evenodd" d="M3 6h10V5H3z"/><path fill="#fff" fill-rule="evenodd" d="M3 9h10V8H3z"/><path fill="#232629" fill-rule="evenodd" d="M3 8h10V7H3z"/><path fill="#fff" fill-rule="evenodd" d="M3 11h10v-1H3z"/><path fill="#232629" fill-rule="evenodd" d="M3 10h10V9H3z"/><path fill="#fff" fill-rule="evenodd" d="M3 15h10v-1H3z"/><path fill="#232629" fill-rule="evenodd" d="M3 14h10v-1H3z"/><path fill="#fff" fill-rule="evenodd" d="M3 13h10v-1H3z"/><path fill="#232629" fill-rule="evenodd" d="M3 12h10v-1H3z"/><path fill="#fff" fill-rule="evenodd" d="M3 19h10v-1H3z"/><path fill="#232629" fill-rule="evenodd" d="M3 18h10v-1H3z"/><path fill="#fff" fill-rule="evenodd" d="M3 17h10v-1H3z"/><path fill="#232629" fill-rule="evenodd" d="M3 16h10v-1H3z"/></svg>