<svg xmlns="http://www.w3.org/2000/svg" height="24" width="24"><linearGradient id="a"><stop offset="0"/><stop offset="1" stop-opacity="0"/></linearGradient><path d="M4 2c-1.108 0-2 .892-2 2v18h20V4c0-1.108-.892-2-2-2z" opacity=".6" fill="#232629" fill-rule="evenodd"/><rect width="18" height="14" x="3" y="7" ry="0" rx="0" fill="#fff" fill-rule="evenodd"/><path d="M4 3c-.554 0-1 .446-1 1v2h18V4c0-.554-.446-1-1-1z" fill="#fff" fill-rule="evenodd"/><path d="M18 4h1v1h-1z" fill="#88a05d"/><path d="M16 4h1v1h-1zM14 4h1v1h-1z" fill="#232629"/><path d="M3 7h18v4H3z" fill="#88a05d" fill-rule="evenodd"/></svg>