<svg xmlns="http://www.w3.org/2000/svg" viewBox="0 0 24 24"><path d="M0 4v1h1v2H0v1h7V7H6V5h1V4zm2 1h1v2H2zm2 0h1v2H4zM4 10v1h1v2H4v1h3v-1H6v-2h1v-1z" fill="#e95420"/><path fill="#fff" fill-rule="evenodd" d="M9 8h10V7H9z"/><path fill="#232629" fill-rule="evenodd" d="M9 7h10V6H9z"/><path fill="#fff" fill-rule="evenodd" d="M9 6h14V5H9z"/><path fill="#232629" fill-rule="evenodd" d="M9 5h14V4H9z"/><path fill="#fff" fill-rule="evenodd" d="M9 14h10v-1H9z"/><path fill="#232629" fill-rule="evenodd" d="M9 13h10v-1H9z"/><path fill="#fff" fill-rule="evenodd" d="M9 12h14v-1H9z"/><path fill="#232629" fill-rule="evenodd" d="M9 11h14v-1H9z"/><path fill="#fff" fill-rule="evenodd" d="M9 20h10v-1H9z"/><path fill="#232629" fill-rule="evenodd" d="M9 19h10v-1H9z"/><path fill="#fff" fill-rule="evenodd" d="M9 18h14v-1H9z"/><path fill="#232629" fill-rule="evenodd" d="M9 17h14v-1H9z"/></svg>