<svg xmlns="http://www.w3.org/2000/svg" viewBox="0 0 24 24"><path style="line-height:normal;font-variant-ligatures:normal;font-variant-position:normal;font-variant-caps:normal;font-variant-numeric:normal;font-variant-alternates:normal;font-variant-east-asian:normal;font-feature-settings:normal;font-variation-settings:normal;text-indent:0;text-align:start;text-decoration-line:none;text-decoration-style:solid;text-decoration-color:#000;text-transform:none;text-orientation:mixed;white-space:normal;shape-padding:0;shape-margin:0;inline-size:0;isolation:auto;mix-blend-mode:normal;solid-color:#000;solid-opacity:1" d="M6 4.002c-.5 0-1.063-.034-1.691.176a1.933 1.933 0 00-.926.63C3.123 5.145 3 5.586 3 6.003v9c0 .417.122.856.383 1.191.26.335.612.527.926.631.628.21 1.191.178 1.691.178h1.031L8.697 19H11v-1.998h7c.5 0 1.063.032 1.691-.178.314-.104.666-.296.926-.63.26-.336.383-.775.383-1.192v-9l-.01.14c.062-.434-.026-.937-.297-1.306-.27-.37-.638-.555-.959-.658-.64-.206-1.23-.176-1.734-.176H6zm0 2h12c.443 0 .81.033 1 .072v8.858c-.147.037-.528.07-1 .07h-8a1 1 0 00-1 1v.238l-.732-.879a1 1 0 00-.768-.359H6c-.472 0-.853-.033-1-.07V6.07c.147-.037.528-.068 1-.068z" color="#000" font-weight="400" font-family="sans-serif" overflow="visible" opacity=".7"/><path d="M6 5.001h12c1 0 2.141.01 2 1v9c0 1-1 1-2 1h-8v3l-2.5-3H6c-1 0-2 0-2-1v-9c0-1 1-1 2-1z" fill="#fa9381"/><path d="M6.5 10.001h11a.499.499 0 110 1h-11a.499.499 0 110-1zM6.5 12.001h11a.499.499 0 110 1h-11a.499.499 0 110-1zM6.5 8.001h11a.499.499 0 110 1h-11a.499.499 0 110-1z" fill="#fff"/><path d="M1 20.5L5 18v2h5v1H5v2z" fill="#88a05d"/></svg>