<svg xmlns="http://www.w3.org/2000/svg" height="24" width="24"><g style="display:inline"><path style="color:#000;font-weight:400;line-height:normal;font-family:sans-serif;font-variant-ligatures:normal;font-variant-position:normal;font-variant-caps:normal;font-variant-numeric:normal;font-variant-alternates:normal;font-feature-settings:normal;text-indent:0;text-align:start;text-decoration:none;text-decoration-line:none;text-decoration-style:solid;text-decoration-color:#000;text-transform:none;text-orientation:mixed;white-space:normal;shape-padding:0;overflow:visible;opacity:.7;isolation:auto;mix-blend-mode:normal;fill:#000;fill-opacity:1;marker:none" d="M7.656 3C6.74 3 6 3.892 6 5v3H5c-.338.053-.655.131-.938.287a1.874 1.874 0 0 0-.837.998c-.165.438-.225.96-.225 1.617V14.098c0 .658.06 1.179.225 1.617.164.439.46.79.837.998.282.156.6.234.938.287h1v2c0 1.108.739 2 1.656 2h6.451c-.19-.558.018-1.083.399-1.488-.402-.43-.628-.99-.385-1.576v-.002l.463-1.112c.242-.585.798-.823 1.385-.843.019-.586.256-1.135.845-1.38l1.116-.462c.024-.01.046-.008.07-.016V13H6v2.96c-.667-.031-1.206-.084-1.455-.222-.183-.1-.287-.212-.385-.472C4.063 15.006 4 14.592 4 14v-3c0-.592.063-1.006.16-1.266.098-.26.202-.371.385-.472.249-.138.788-.19 1.455-.223V12h12V9.04c.666.031 1.204.084 1.453.222.184.1.29.212.387.472.097.26.16.674.16 1.266v3c0 .037-.005.058-.006.094a1.534 1.534 0 0 1 1.006.013v-3.205c0-.657-.06-1.179-.225-1.617a1.882 1.882 0 0 0-.837-.998c-.284-.156-.6-.234-.938-.287h-1V5c0-1.108-.739-2-1.656-2H7.656z"/><path style="vector-effect:none;fill:#b3b3b3;fill-opacity:1;stroke:none;stroke-width:.0625;stroke-linecap:round;stroke-linejoin:round;stroke-miterlimit:4;stroke-dasharray:none;stroke-dashoffset:0;stroke-opacity:1" d="M8.205 8.93c-1.024.017-2.053-.032-3.072.078-.39.048-.842.18-1 .584-.271.536-.174 1.16-.205 1.738.006 1.166-.026 2.335.023 3.5.05.423.181.934.621 1.107.446.208.954.16 1.428.145V14h12v.121c.564-.2 1.093.01 1.502.395.135-.127.218-.321.387-.391.054-.022.111-.035.168-.05 0-.062.001-.127.004-.186-.007-1.234.025-2.47-.024-3.703-.049-.426-.233-.916-.682-1.057-.73-.255-1.519-.15-2.277-.184-2.29-.01-6.582-.015-8.873-.015z"/><path style="vector-effect:none;fill:#666;fill-opacity:1;stroke:none;stroke-width:4;stroke-linecap:butt;stroke-linejoin:round;stroke-miterlimit:4;stroke-dasharray:none;stroke-dashoffset:0;stroke-opacity:1" d="M6 13v4h8.51l.074-.178c.242-.585.798-.823 1.385-.843.019-.586.256-1.135.845-1.38l1.116-.462c.024-.01.046-.008.07-.016V13H6z"/><path style="vector-effect:none;fill:#fff;fill-opacity:1;stroke:none;stroke-width:4;stroke-linecap:butt;stroke-linejoin:round;stroke-miterlimit:4;stroke-dasharray:none;stroke-dashoffset:0;stroke-opacity:1" d="M7 14v5c0 1 1 1 1 1h6.18a1.93 1.93 0 0 1 .326-.488c-.402-.43-.628-.99-.385-1.576v-.002l.463-1.112c.242-.585.798-.823 1.385-.843.019-.586.256-1.135.845-1.38l.186-.076V14H7z"/><path style="color:#000;font-weight:400;line-height:normal;font-family:sans-serif;font-variant-ligatures:normal;font-variant-position:normal;font-variant-caps:normal;font-variant-numeric:normal;font-variant-alternates:normal;font-feature-settings:normal;text-indent:0;text-align:start;text-decoration:none;text-decoration-line:none;text-decoration-style:solid;text-decoration-color:#000;text-transform:none;text-orientation:mixed;white-space:normal;shape-padding:0;overflow:visible;isolation:auto;mix-blend-mode:normal;fill:#a7a7f1;fill-opacity:1;marker:none" d="M8 16v1h6.51l.074-.178c.22-.531.701-.766 1.227-.822H8zM8 18v1h6.168a1.283 1.283 0 0 1-.063-1H8z"/><path d="M7 2h10v-3c-.032-.981-1-1-1-1H8S7-2 7-1z" style="vector-effect:none;fill:#fff;fill-opacity:1;stroke:none;stroke-width:4;stroke-linecap:butt;stroke-linejoin:round;stroke-miterlimit:4;stroke-dasharray:none;stroke-dashoffset:0;stroke-opacity:1" transform="translate(0 6)"/><path style="vector-effect:none;fill:#666;fill-opacity:1;stroke:none;stroke-width:2;stroke-linecap:round;stroke-linejoin:round;stroke-miterlimit:4;stroke-dasharray:none;stroke-dashoffset:0;stroke-opacity:1" d="M5 2h14v1H5z" transform="translate(0 6)"/><g transform="translate(8 8)"><circle style="fill:#fff;fill-opacity:1;fill-rule:evenodd;stroke:none;stroke-width:2;stroke-linecap:round;stroke-linejoin:round;stroke-miterlimit:4;stroke-dasharray:none;stroke-opacity:1" cx="11.5" cy="11.5" r="1.5"/><path d="M9.311 7.792a.244.244 0 0 0-.135.325l.273.657c-.26.195-.472.424-.662.678l-.674-.279a.248.248 0 0 0-.329.136l-.462 1.115a.248.248 0 0 0 .137.329l.673.279a3.312 3.312 0 0 0-.011.948l-.657.272a.244.244 0 0 0-.135.325l.463 1.117c.054.13.194.189.325.135l.657-.272c.195.26.424.471.678.662l-.279.673a.248.248 0 0 0 .136.329l1.115.462a.248.248 0 0 0 .329-.136l.279-.674c.314.045.626.057.948.012l.272.657c.054.13.195.188.325.134l1.117-.462a.244.244 0 0 0 .135-.326l-.272-.657c.26-.195.471-.424.662-.678l.673.28a.248.248 0 0 0 .329-.137l.462-1.115a.248.248 0 0 0-.136-.329l-.674-.279c.045-.314.057-.625.012-.947l.657-.273a.244.244 0 0 0 .134-.325l-.462-1.117a.244.244 0 0 0-.326-.135l-.657.273a3.312 3.312 0 0 0-.678-.662l.28-.674a.248.248 0 0 0-.137-.329l-1.115-.462a.248.248 0 0 0-.329.137l-.279.673a3.312 3.312 0 0 0-.947-.011l-.273-.657a.244.244 0 0 0-.325-.135zm1.756 2.66a1.138 1.138 0 1 1 .87 2.103 1.138 1.138 0 0 1-.87-2.104z" display="block" fill="url(#d)" stroke="url(#e)" stroke-linejoin="round" stroke-width=".6" style="fill:#d3d3d3;fill-opacity:1;stroke:#4d4d4d;stroke-opacity:1"/></g></g></svg>