<svg xmlns="http://www.w3.org/2000/svg" viewBox="0 0 24 24"><path style="fill:#88a05d;fill-opacity:1;stroke:none;stroke-width:1px;stroke-linecap:butt;stroke-linejoin:miter;stroke-opacity:1" d="m19 18 4 2.5-4 2.5z"/><path style="fill:#88a05d;fill-opacity:1;fill-rule:evenodd;stroke-width:2;stroke-linecap:round;stroke-linejoin:round" d="M15 20h4v1h-4z"/><path style="fill:#fff;fill-rule:evenodd;stroke-width:2;stroke-linecap:round;stroke-linejoin:round" transform="scale(1 -1)" d="M3-5h18v1H3z"/><path style="fill:#232629;fill-opacity:1;fill-rule:evenodd;stroke-width:2;stroke-linecap:round;stroke-linejoin:round" transform="scale(1 -1)" d="M3-4h18v1H3z"/><path style="fill:#fff;fill-rule:evenodd;stroke-width:2;stroke-linecap:round;stroke-linejoin:round" transform="scale(1 -1)" d="M3-7h12v1H3z"/><path style="fill:#232629;fill-opacity:1;fill-rule:evenodd;stroke-width:2;stroke-linecap:round;stroke-linejoin:round" transform="scale(1 -1)" d="M3-6h12v1H3z"/><path style="fill:#fff;fill-rule:evenodd;stroke-width:1.99998;stroke-linecap:round;stroke-linejoin:round" transform="scale(1 -1)" d="M3-9h15v1H3z"/><path style="fill:#232629;fill-opacity:1;fill-rule:evenodd;stroke-width:1.99998;stroke-linecap:round;stroke-linejoin:round" transform="scale(1 -1)" d="M3-8h15v1H3z"/><path style="fill:#fff;fill-rule:evenodd;stroke-width:2;stroke-linecap:round;stroke-linejoin:round" transform="scale(1 -1)" d="M3-12h18v1H3z"/><path style="fill:#232629;fill-opacity:1;fill-rule:evenodd;stroke-width:2;stroke-linecap:round;stroke-linejoin:round" transform="scale(1 -1)" d="M3-11h18v1H3z"/><path style="fill:#fff;fill-rule:evenodd;stroke-width:2;stroke-linecap:round;stroke-linejoin:round" transform="scale(1 -1)" d="M3-14h12v1H3z"/><path style="fill:#232629;fill-opacity:1;fill-rule:evenodd;stroke-width:2;stroke-linecap:round;stroke-linejoin:round" transform="scale(1 -1)" d="M3-13h12v1H3z"/><path style="fill:#fff;fill-rule:evenodd;stroke-width:1.99998;stroke-linecap:round;stroke-linejoin:round" transform="scale(1 -1)" d="M3-16h15v1H3z"/><path style="fill:#232629;fill-opacity:1;fill-rule:evenodd;stroke-width:1.99998;stroke-linecap:round;stroke-linejoin:round" transform="scale(1 -1)" d="M3-15h15v1H3z"/><path style="fill:#fff;fill-rule:evenodd;stroke-width:2;stroke-linecap:round;stroke-linejoin:round" transform="scale(1 -1)" d="M3-19h12v1H3z"/><path style="fill:#232629;fill-opacity:1;fill-rule:evenodd;stroke-width:2;stroke-linecap:round;stroke-linejoin:round" transform="scale(1 -1)" d="M3-18h12v1H3z"/><path style="fill:#fff;fill-rule:evenodd;stroke-width:2;stroke-linecap:round;stroke-linejoin:round" transform="scale(1 -1)" d="M3-21h9v1H3z"/><path style="fill:#232629;fill-opacity:1;fill-rule:evenodd;stroke-width:2;stroke-linecap:round;stroke-linejoin:round" transform="scale(1 -1)" d="M3-20h9v1H3z"/></svg>