<svg xmlns="http://www.w3.org/2000/svg" viewBox="0 0 24 24"><circle style="opacity:1;fill:#88a05d;fill-opacity:1;fill-rule:evenodd;stroke:none;stroke-width:2;stroke-linecap:butt;stroke-linejoin:round;stroke-miterlimit:4;stroke-dasharray:none;stroke-opacity:1" cx="12" cy="12" r="10"/><path style="opacity:1;fill:#fff;fill-opacity:1;fill-rule:evenodd;stroke:none;stroke-width:2;stroke-linecap:butt;stroke-linejoin:round;stroke-miterlimit:4;stroke-dasharray:none;stroke-opacity:1" d="M12 6a6 6 0 0 0-3.041.836l1.484 1.484A4 4 0 0 1 12 8a4 4 0 0 1 4 4 4 4 0 0 1-.316 1.559v.002l1.48 1.48A6 6 0 0 0 18 12a6 6 0 0 0-6-6zM6.836 8.959A6 6 0 0 0 6 12a6 6 0 0 0 6 6 6 6 0 0 0 3.041-.836l-1.484-1.484A4 4 0 0 1 12 16a4 4 0 0 1-4-4 4 4 0 0 1 .316-1.559 4 4 0 0 1 0-.002l-1.48-1.48z"/></svg>