<svg xmlns="http://www.w3.org/2000/svg" viewBox="0 0 24 24"><path fill="#fff" d="M4 4h16v16H4z"/><path d="M6 3C4 3 3 3 3 5v14c0 2 1 2 3 2h12c2 0 3 0 3-2V5c0-2-1-2-3-2zM4 5c0-1 1-1 2-1h3v3H4zm6-1h4v3h-4V5zm5 0h3c1 0 2 0 2 1v2h-5V5zM4 8h5v2H4zm6 0h4v2h-4zm5 0h5v2h-5zM4 11h5v2H4zm6 0h4v2h-4zm5 0h5v2h-5zM4 14h5v2H4zm6 0h4v2h-4zm5 0h5v2h-5zM4 17h5v3H6c-1 0-2 0-2-1zm6 0h4v3h-4zm5 0h5v2c0 1-1 1-2 1h-3z" fill="#6d6d6d"/><g color="#000" font-weight="400" font-family="sans-serif" fill-rule="evenodd"><path d="M17 9.975v3h1.992A.451.451 0 0019 13v6.975l-.008.025H17v3h2c.599 0 1.086-.2 1.5-.46.414.26.901.46 1.5.46h2v-3h-1.992L22 19.975V13l.008-.025H24v-3h-2c-.599 0-1.086.2-1.5.46a2.976 2.976 0 00-1.5-.46z" style="line-height:normal;font-variant-ligatures:normal;font-variant-position:normal;font-variant-caps:normal;font-variant-numeric:normal;font-variant-alternates:normal;font-feature-settings:normal;text-indent:0;text-align:start;text-decoration-line:none;text-decoration-style:solid;text-decoration-color:#000;text-transform:none;text-orientation:mixed;white-space:normal;shape-padding:0;isolation:auto;mix-blend-mode:normal;solid-color:#000;solid-opacity:1" overflow="visible" fill="#fff"/><path style="line-height:normal;font-variant-ligatures:normal;font-variant-position:normal;font-variant-caps:normal;font-variant-numeric:normal;font-variant-alternates:normal;font-feature-settings:normal;text-indent:0;text-align:start;text-decoration-line:none;text-decoration-style:solid;text-decoration-color:#000;text-transform:none;text-orientation:mixed;white-space:normal;shape-padding:0;isolation:auto;mix-blend-mode:normal;solid-color:#000;solid-opacity:1" d="M18 10.975v1h1c.584 0 .738.217.865.472.128.256.135.528.135.528V20s-.007.272-.135.527c-.128.256-.411.56-.865.473h-1v1h1c.727 0 1.19-.353 1.5-.738.31.385.773.738 1.5.738h1v-1h-1c-.583 0-.737-.217-.865-.473C21.007 20.272 21 20 21 20v-7.025s.007-.272.135-.528c.128-.255.284-.427.865-.472h1v-1h-1c-.727 0-1.19.353-1.5.738-.31-.385-.775-.679-1.5-.738z" overflow="visible" fill="#111"/></g></svg>