<svg xmlns="http://www.w3.org/2000/svg" viewBox="0 0 24 24"><path d="M0 16v1h1v2H0v1h7v-1H6v-2h1v-1zm2 1h1v2H2zm2 0h1v2H4zM4 4v1h1v2H4v1h3V7H6V5h1V4zM2 10v1h1v2H2v1h5v-1H6v-2h1v-1zm2 1h1v2H4z" fill="#88a05d"/><path fill="#fff" fill-rule="evenodd" d="M9 8h10V7H9z"/><path fill="#232629" fill-rule="evenodd" d="M9 7h10V6H9z"/><path fill="#fff" fill-rule="evenodd" d="M9 6h14V5H9z"/><path fill="#232629" fill-rule="evenodd" d="M9 5h14V4H9z"/><path fill="#fff" fill-rule="evenodd" d="M9 14h10v-1H9z"/><path fill="#232629" fill-rule="evenodd" d="M9 13h10v-1H9z"/><path fill="#fff" fill-rule="evenodd" d="M9 12h14v-1H9z"/><path fill="#232629" fill-rule="evenodd" d="M9 11h14v-1H9z"/><path fill="#fff" fill-rule="evenodd" d="M9 20h10v-1H9z"/><path fill="#232629" fill-rule="evenodd" d="M9 19h10v-1H9z"/><path fill="#fff" fill-rule="evenodd" d="M9 18h14v-1H9z"/><path fill="#232629" fill-rule="evenodd" d="M9 17h14v-1H9z"/></svg>