<svg xmlns="http://www.w3.org/2000/svg" xmlns:xlink="http://www.w3.org/1999/xlink" viewBox="0 0 24 24"><defs><linearGradient xlink:href="#a" id="b" x1="16" y1="3" x2="16" y2="14" gradientUnits="userSpaceOnUse"/><linearGradient id="a"><stop offset="0" stop-color="#151515"/><stop offset="1" stop-color="#4d4d4d"/></linearGradient></defs><path d="M14.5 3l-4.105 11h2.308l.797-2h5.018l.773 2h2.412L17.5 3zM16 5l1.773 5h-3.562z" stroke="#fff" stroke-width="2" stroke-linecap="round" stroke-linejoin="round" stroke-opacity=".987"/><path d="M14.5 3l-4.105 11h2.308l.797-2h5.018l.773 2h2.412L17.5 3zM16 5l1.773 5h-3.562z" fill="url(#b)"/><path d="M7.515 9.992l-.707-.707c-1.415-1.414-2.122-.707-2.829 0L2.565 10.7c-.707.707-1.414 1.415 0 2.829l2.828 2.828c.707.707.707.707 0 1.414l.707.707c.708-.707 1.415-1.414 0-2.828l-2.828-2.828c-.707-.707-.707-.707 0-1.415l1.414-1.414c.707-.707.707-.707 1.414 0l.708.707.707-.707" fill="#6d6d6d"/><path d="M6.1 18.477l-.707-.707c-.707-.707-.707-.707-2.828 1.415l-.707.707c-1.415 1.414-1.415 1.414-.708 2.12l.708.708c.707.707.707.707 2.121-.707l.707-.707c2.122-2.121 2.122-2.121 1.414-2.829z" fill="#fa9381"/><rect ry="1" y="-.248" x="-22.379" height="5" width="10" rx="1" transform="scale(-1 1) rotate(-45)" opacity=".7" fill-rule="evenodd" stroke="#000" stroke-width="2" stroke-linejoin="round"/><rect ry="1" y="-.248" x="-22.379" height="5" width="10" rx="1" transform="scale(-1 1) rotate(-45)" fill="#fff" fill-rule="evenodd"/><circle cy="18.5" cx="18.5" r="3.5" fill="#88a05d"/><path d="M18.5 16c-.433 0-.833.12-1.188.313l.75.75c.138-.041.287-.063.438-.063.831 0 1.5.669 1.5 1.5 0 .15-.021.3-.063.438l.75.75c.193-.355.313-.755.313-1.188 0-1.385-1.115-2.5-2.5-2.5zm-2.188 1.313A2.476 2.476 0 0016 18.5c0 1.385 1.115 2.5 2.5 2.5.433 0 .833-.12 1.188-.313l-.75-.75A1.539 1.539 0 0118.5 20c-.831 0-1.5-.669-1.5-1.5 0-.15.021-.3.063-.438z" fill="#fff"/></svg>