<svg xmlns="http://www.w3.org/2000/svg" xmlns:xlink="http://www.w3.org/1999/xlink" viewBox="0 0 24 24"><defs><linearGradient id="a"><stop style="stop-color:red;stop-opacity:1" offset="0"/><stop style="stop-color:#000;stop-opacity:0" offset="1"/></linearGradient><linearGradient xlink:href="#a" id="b" x1="6" y1="15" x2="6" y2="11" gradientUnits="userSpaceOnUse"/><linearGradient xlink:href="#a" id="c" gradientUnits="userSpaceOnUse" x1="7" y1="14" x2="7" y2="18" gradientTransform="scale(-1)"/></defs><path style="fill:#fff;stroke:#000;stroke-width:2;opacity:.71" d="M8 4C6 4 5 4 5 6v12c0 2 1 2 3 2h8c2 0 3 0 3-2V6c0-2-1-2-3-2H8z"/><path style="fill:#fff" d="M8 4C6 4 5 4 5 6v12c0 2 1 2 3 2h8c2 0 3 0 3-2V6c0-2-1-2-3-2H8z"/><g style="color:#bebebe;display:inline;fill:#1463a5;stroke-width:2.6;enable-background:new"><path word-spacing="0" style="font-weight:400;font-size:17.833px;line-height:125%;font-family:'DejaVu Serif';-inkscape-font-specification:'DejaVu Serif';letter-spacing:0;word-spacing:0;overflow:visible;fill:#5d5d5d;fill-opacity:1;stroke-width:2.6;marker:none" overflow="visible" letter-spacing="0" font-weight="400" font-size="17.833" d="m599.875 119-4.625 12h-1.156v1h3.593v-1h-1.343l1.093-3h5.469l1.063 3h-1.282v1h4.594v-1H606l-4.656-12zm.281 2.094 2.406 5.906h-4.781z" transform="matrix(.38462 0 0 .38462 -222.498 -39.77)"/></g><path style="display:inline;opacity:1;vector-effect:none;fill:red;fill-opacity:1;stroke:none;stroke-width:2;stroke-linecap:butt;stroke-linejoin:miter;stroke-miterlimit:4;stroke-dasharray:none;stroke-dashoffset:0;stroke-opacity:1;marker:none;enable-background:new" d="M5 13h14v1H5z"/><path style="opacity:.71;fill:url(#b);fill-opacity:1;fill-rule:evenodd;stroke:none;stroke-width:2;stroke-linecap:round;stroke-linejoin:round" d="M5 11h14v4H5z"/><path style="opacity:.71;fill:url(#c);fill-opacity:1;fill-rule:evenodd;stroke:none;stroke-width:2;stroke-linecap:round;stroke-linejoin:round" transform="scale(-1)" d="M-19-18h14v4h-14z"/><path style="opacity:.45;fill:#000" d="M5 14v4c0 2 1 2 3 2h8c2 0 3 0 3-2v-4z"/><path style="opacity:1;fill:#c8c4b7;fill-opacity:.99607843;fill-rule:evenodd;stroke:none;stroke-width:2;stroke-linecap:round;stroke-linejoin:round" d="M11 6h7v1h-7z"/><path style="opacity:1;fill:#c8c4b7;fill-opacity:.996078;fill-rule:evenodd;stroke:none;stroke-width:2;stroke-linecap:round;stroke-linejoin:round" d="M11 8h7v1h-7zM12 10h6v1h-6z"/></svg>