<svg xmlns="http://www.w3.org/2000/svg" xmlns:xlink="http://www.w3.org/1999/xlink" viewBox="0 0 24 24"><defs><linearGradient id="a"><stop offset="0" stop-color="#151515"/><stop offset="1" stop-color="#4d4d4d"/></linearGradient><linearGradient xlink:href="#a" id="b" x1="4" y1="4" x2="4" y2="10" gradientUnits="userSpaceOnUse"/></defs><path d="M4 4v6h3c1.108 0 2-.892 2-2 0-.81-.481-1.502-1.172-1.816C7.934 5.978 8 5.748 8 5.5 8 4.669 7.331 4 6.5 4H5zm11 0v6h3c1.108 0 2-.892 2-2V6c0-1.108-.892-2-2-2h-1zM5 5h1.5a.499.499 0 110 1H5zm11 0h2c.554 0 1 .446 1 1v2c0 .554-.446 1-1 1h-2zM5 7h2c.554 0 1 .446 1 1s-.446 1-1 1H5zm6 0v1h2V7z" stroke="#fff" stroke-width="2" stroke-linejoin="round"/><path d="M4 4v6h3c1.108 0 2-.892 2-2 0-.81-.481-1.502-1.172-1.816C7.934 5.978 8 5.748 8 5.5 8 4.669 7.331 4 6.5 4H5zm11 0v6h3c1.108 0 2-.892 2-2V6c0-1.108-.892-2-2-2h-1zM5 5h1.5a.499.499 0 110 1H5zm11 0h2c.554 0 1 .446 1 1v2c0 .554-.446 1-1 1h-2zM5 7h2c.554 0 1 .446 1 1s-.446 1-1 1H5zm6 0v1h2V7z" fill="url(#b)"/><path d="M8 15l-5 2.5L8 20v-2h8v2l5-2.5-5-2.5v2H8z" fill="#88a05d"/></svg>