<svg xmlns="http://www.w3.org/2000/svg" viewBox="0 0 24 24"><path d="M14.02 4l-1.717 3.975-1.157-3.237-.996 3.338-2.244-2.713 2.461 4.4L6.223 6.97l3.191 3.771-4.037-1.517 2.406 1.851-3.73 1.18 4.302.621L4 14.83l4.82-.725-1.812 3.612 3.402-2.846-2.467 4.047 3.38-2.814-.858 3.146 1.719-3.846L13.338 20l.998-4.7 2.242 2.587-.834-2.783 3.412 1.99-4.084-2.967 4.928.916-3.297-2.574 2.998-.66-3.572.183 3.625-2.76-4.088 1.53 2.703-3.057-4.293.803 2.467-2.56-3.38 3.015z" stroke="#000" stroke-width="2" stroke-linejoin="round" opacity=".7"/><path d="M14.02 4l-1.717 3.975-1.157-3.237-.996 3.338-2.244-2.713 2.461 4.4L6.223 6.97l3.191 3.771-4.037-1.517 2.406 1.851-3.73 1.18 4.302.621L4 14.83l4.82-.725-1.812 3.612 3.402-2.846-2.467 4.047 3.38-2.814-.858 3.146 1.719-3.846L13.338 20l.998-4.7 2.242 2.587-.834-2.783 3.412 1.99-4.084-2.967 4.928.916-3.297-2.574 2.998-.66-3.572.183 3.625-2.76-4.088 1.53 2.703-3.057-4.293.803 2.467-2.56-3.38 3.015z" fill="#fff"/></svg>