<svg xmlns="http://www.w3.org/2000/svg" xmlns:xlink="http://www.w3.org/1999/xlink" viewBox="0 0 24 24"><defs><linearGradient xlink:href="#a" id="b" x1="16" y1="3" x2="16" y2="14" gradientUnits="userSpaceOnUse"/><linearGradient id="a"><stop style="stop-color:#151515;stop-opacity:1" offset="0"/><stop style="stop-color:#4d4d4d;stop-opacity:1" offset="1"/></linearGradient></defs><path d="m14.5 3-4.105 11h2.308l.797-2h5.018l.773 2h2.412L17.5 3zM16 5l1.773 5h-3.562z" style="opacity:1;fill:#000;stroke:#fff;stroke-width:2;stroke-linecap:round;stroke-linejoin:round;stroke-miterlimit:4;stroke-dasharray:none;stroke-opacity:.987055"/><path style="fill:url(#b);fill-opacity:1;stroke:none;stroke-width:.647105;stroke-linecap:round;stroke-linejoin:round;stroke-opacity:.490196" d="m14.5 3-4.105 11h2.308l.797-2h5.018l.773 2h2.412L17.5 3zM16 5l1.773 5h-3.562z"/><path style="fill:#6d6d6d;fill-opacity:1;stroke:none;stroke-width:1px;stroke-linecap:butt;stroke-linejoin:miter;stroke-opacity:1" d="m7.515 9.992-.707-.707c-1.415-1.414-2.122-.707-2.829 0L2.565 10.7c-.707.707-1.414 1.415 0 2.829l2.828 2.828c.707.707.707.707 0 1.414l.707.707c.708-.707 1.415-1.414 0-2.828l-2.828-2.828c-.707-.707-.707-.707 0-1.415l1.414-1.414c.707-.707.707-.707 1.414 0l.708.707.707-.707"/><path style="fill:#fa9381;fill-opacity:1;stroke:none;stroke-width:1px;stroke-linecap:butt;stroke-linejoin:miter;stroke-opacity:1" d="m6.1 18.477-.707-.707c-.707-.707-.707-.707-2.828 1.415l-.707.707c-1.415 1.414-1.415 1.414-.708 2.12l.708.708c.707.707.707.707 2.121-.707l.707-.707c2.122-2.121 2.122-2.121 1.414-2.829z"/><rect ry="1" y="-.248" x="-22.379" height="5" width="10" style="opacity:.7;fill:#000;fill-opacity:1;fill-rule:evenodd;stroke:#000;stroke-width:2;stroke-linecap:butt;stroke-linejoin:round;stroke-miterlimit:4;stroke-dasharray:none;stroke-opacity:1" rx="1" transform="scale(-1 1) rotate(-45)"/><rect ry="1" y="-.248" x="-22.379" height="5" width="10" style="opacity:1;fill:#fff;fill-opacity:1;fill-rule:evenodd;stroke:none;stroke-width:2;stroke-linecap:butt;stroke-linejoin:round;stroke-miterlimit:4;stroke-dasharray:none;stroke-opacity:1" rx="1" transform="scale(-1 1) rotate(-45)"/><circle style="opacity:1;vector-effect:none;fill:#46a926;fill-opacity:1;stroke:none;stroke-width:3.49999976;stroke-linecap:butt;stroke-linejoin:round;stroke-miterlimit:4;stroke-dasharray:none;stroke-dashoffset:0;stroke-opacity:1" cy="18.5" cx="18.5" r="3.5"/><path overflow="visible" font-weight="400" style="color:#000;font-weight:400;line-height:normal;font-family:sans-serif;text-indent:0;text-align:start;text-decoration:none;text-decoration-line:none;text-decoration-style:solid;text-decoration-color:#000;text-transform:none;white-space:normal;overflow:visible;isolation:auto;mix-blend-mode:normal;fill:#fff;fill-opacity:1;marker:none" d="M18 16v2h-2v1h2v2h1v-2h2v-1h-2v-2z"/></svg>