<svg xmlns="http://www.w3.org/2000/svg" height="24" width="24"><linearGradient id="a"><stop offset="0"/><stop offset="1" stop-opacity="0"/></linearGradient><path style="opacity:.6;fill:#232629;fill-opacity:1;fill-rule:evenodd;stroke-width:.75;stroke-linecap:square;stroke-linejoin:round" d="M4 2c-1.108 0-2 .892-2 2v17h20V4c0-1.108-.892-2-2-2z"/><rect style="opacity:1;fill:#fff;fill-rule:evenodd;stroke-width:.75;stroke-linecap:square;stroke-linejoin:round" width="18" height="13" x="3" y="7" ry="0" rx="0"/><path style="opacity:1;fill:#fff;fill-opacity:1;fill-rule:evenodd;stroke-width:.75;stroke-linecap:square;stroke-linejoin:round" d="M4 3c-.554 0-1 .446-1 1v2h18V4c0-.554-.446-1-1-1z"/><path d="M18 4h1v1h-1z" style="fill:#88a05d;fill-opacity:1;stroke-width:2"/><path d="M16 4h1v1h-1zM14 4h1v1h-1z" style="fill:#232629;fill-opacity:1;stroke-width:2"/><path d="m9 22 14-7v7z" style="opacity:.7;fill:#000;fill-opacity:1;stroke:#000;stroke-width:2;stroke-linecap:butt;stroke-linejoin:round;stroke-miterlimit:4;stroke-dasharray:none;stroke-opacity:1"/><path style="opacity:1;fill:#fff;fill-opacity:1;stroke:none;stroke-width:1px;stroke-linecap:butt;stroke-linejoin:miter;stroke-opacity:1" d="m9 22 14-7v7z"/></svg>