<svg xmlns="http://www.w3.org/2000/svg" xmlns:xlink="http://www.w3.org/1999/xlink" viewBox="0 0 24 24"><defs><linearGradient id="a"><stop style="stop-color:#151515;stop-opacity:1" offset="0"/><stop style="stop-color:#4d4d4d;stop-opacity:1" offset="1"/></linearGradient><linearGradient xlink:href="#a" id="b" x1="12" y1="4" x2="12" y2="21" gradientUnits="userSpaceOnUse"/></defs><path style="opacity:1;fill:#000;fill-opacity:1;stroke:#fff;stroke-width:2;stroke-linejoin:round;stroke-miterlimit:4;stroke-dasharray:none;stroke-opacity:1" d="M11.5 3.5A2.507 2.507 0 0 0 9 6c0 .998.648 1.776 1.5 2.176l.001.328V10H8.5a.5.5 0 0 0-.5.5v1c0 .276.225.52.5.5H10v6.779c-1.936-.276-3.093-1.262-4.256-2.722l.498-.276a.5.5 0 0 0 .192-.685l-.5-.875a.499.499 0 0 0-.672-.19l-3 1.624a.5.5 0 0 0-.196.687l.5.875a.498.498 0 0 0 .674.19l.676-.368c1.72 2.353 4.447 3.93 7.584 3.93 3.138 0 5.864-1.577 7.584-3.93l.676.37a.5.5 0 0 0 .674-.192l.5-.875c.324-.481-.221-.705-.665-.941l-1.032-.56-1.5-.81a.499.499 0 0 0-.672.19l-.5.875a.5.5 0 0 0 .192.685l.498.276c-1.163 1.46-2.319 2.446-4.255 2.72V12h1.499a.5.5 0 0 0 .5-.5v-1c0-.276-.225-.48-.5-.5h-1.998l.001-1.5-.003-.324c.852-.4 1.5-1.178 1.5-2.176 0-1.375-1.125-2.5-2.5-2.5zm0 2c.282 0 .5.218.5.5 0 .282-.218.5-.5.5A.493.493 0 0 1 11 6c0-.282.218-.5.5-.5z"/><path d="M11.5 3.5A2.507 2.507 0 0 0 9 6c0 .998.648 1.776 1.5 2.176l.001.328V10H8.5a.5.5 0 0 0-.5.5v1c0 .276.225.52.5.5H10v6.779c-1.936-.276-3.093-1.262-4.256-2.722l.498-.276a.5.5 0 0 0 .192-.685l-.5-.875a.499.499 0 0 0-.672-.19l-3 1.624a.5.5 0 0 0-.196.687l.5.875a.498.498 0 0 0 .674.19l.676-.368c1.72 2.353 4.447 3.93 7.584 3.93 3.138 0 5.864-1.577 7.584-3.93l.676.37a.5.5 0 0 0 .674-.192l.5-.875c.324-.481-.221-.705-.665-.941l-1.032-.56-1.5-.81a.499.499 0 0 0-.672.19l-.5.875a.5.5 0 0 0 .192.685l.498.276c-1.163 1.46-2.319 2.446-4.255 2.72V12h1.499a.5.5 0 0 0 .5-.5v-1c0-.276-.225-.48-.5-.5h-1.998l.001-1.5-.003-.324c.852-.4 1.5-1.178 1.5-2.176 0-1.375-1.125-2.5-2.5-2.5zm0 2c.282 0 .5.218.5.5 0 .282-.218.5-.5.5A.493.493 0 0 1 11 6c0-.282.218-.5.5-.5z" style="fill:url(#b);fill-opacity:1;stroke:none;stroke-linejoin:round;stroke-opacity:.49840255"/><circle style="opacity:1;fill:#fff;fill-opacity:1;fill-rule:nonzero;stroke:none;stroke-width:2;stroke-linecap:round;stroke-linejoin:round;stroke-miterlimit:4;stroke-dasharray:none;stroke-opacity:1" cx="11.501" cy="6" r="1"/></svg>