<svg xmlns="http://www.w3.org/2000/svg" width="24" height="24" viewBox="0 0 6.35 6.35"><path d="M-70.719 148.682c-.333.004-.576-.008-.775.102a.497.497 0 0 0-.222.264c-.044.116-.06.254-.06.428v3.174c0 .175.016.313.06.429a.496.496 0 0 0 .222.263c.199.11.442.099.775.103h3.173c.334-.004.577.008.777-.102a.497.497 0 0 0 .221-.264c.044-.116.06-.254.06-.428v-3.175c0-.174-.016-.312-.06-.428a.496.496 0 0 0-.221-.264c-.2-.11-.443-.098-.776-.102h-3.173z" style="font-style:normal;font-variant:normal;font-weight:400;font-stretch:normal;font-size:15px;line-height:125%;font-family:Ubuntu;-inkscape-font-specification:Ubuntu;text-align:center;letter-spacing:0;word-spacing:0;writing-mode:lr-tb;text-anchor:middle;display:inline;opacity:.7;fill:#000;fill-opacity:1;stroke:none;stroke-width:.264531" transform="translate(72.307 -147.888)"/><path d="M-69.932 148.954c-.411.003-.822-.003-1.233.01-.122.012-.268.055-.305.188-.058.168-.029.353-.039.524a237.1 237.1 0 0 0 .006 3.145c.01.122.054.268.185.308.167.06.34.033.512.04a459.444 459.444 0 0 0 3.541-.001c.136-.003.313.005.42-.107.11-.143.075-.6.085-.769.003-.646.007-2.357-.006-3.004-.013-.107-.045-.229-.152-.277-.177-.078-.378-.044-.563-.054-.464-.003-1.986-.003-2.45-.003z" style="opacity:1;vector-effect:none;fill:#fa9381;fill-opacity:1;stroke:none;stroke-width:.264583;stroke-linecap:round;stroke-linejoin:bevel;stroke-miterlimit:4;stroke-dasharray:none;stroke-dashoffset:0;stroke-opacity:1" transform="translate(72.307 -147.888)"/><path style="fill:#fff;fill-opacity:1;stroke-width:.264583" d="M-70.455 150.005v.53h1.059v1.587h.529v-1.588h1.058v-.529z" transform="translate(72.307 -147.888)"/></svg>