<svg viewBox="0 0 24 24" xmlns:xlink="http://www.w3.org/1999/xlink" xmlns="http://www.w3.org/2000/svg"><defs><linearGradient xlink:href="#a" id="b" x1="11" y1="4" x2="11" y2="18" gradientUnits="userSpaceOnUse" gradientTransform="translate(0 1)"/><linearGradient id="a"><stop style="stop-color:#151515;stop-opacity:1" offset="0"/><stop style="stop-color:#4d4d4d;stop-opacity:1" offset="1"/></linearGradient></defs><path style="color:#000;fill:#fff;stroke-linejoin:round;-inkscape-stroke:none" d="M10 4a1 1 0 0 0-.941.664l-5 14A1 1 0 0 0 5 20h3a1 1 0 0 0 .94-.658L10.155 16h3.688l1.217 3.342A1 1 0 0 0 16 20h3v-.203c-2.258-.48-4-2.401-4-4.797 0-.282.025-.557.07-.826a1 1 0 0 0-.525-.174h-.727a1 1 0 0 0 .94-1.342l-1.819-5a1 1 0 0 0-1.878 0l-1.819 5a1 1 0 0 0 .94 1.342h-.727a1 1 0 0 0-.94.658L7.3 18h-.881l4.287-12h2.59l2.344 6.563a5.056 5.056 0 0 1 1.525-1.674l-2.223-6.225A1 1 0 0 0 14 4h-4zm2 6.926L12.39 12h-.78l.39-1.074z"/><path style="fill:url(#b);fill-opacity:1" d="M10 5 5 19h3l1.455-4h5.09L16 19h1.139C15.853 18.12 15 16.676 15 15a4.98 4.98 0 0 1 1.354-3.41L14 5h-4zm2 3 1.818 5h-3.636L12 8zm5.193 5.941A3.02 3.02 0 0 0 17 15c0 1.12.601 2.086 1.5 2.602l-1.307-3.66z"/><path style="color:#000;opacity:.7;fill:#000;stroke-width:2;stroke-linejoin:round;-inkscape-stroke:none" d="M20 11a4 4 0 1 0 0 8v4h1V12h1v11h1V11h-2z"/><path d="M20 11a4 4 0 1 0 0 8v5h1V12h1v12h1V11h-2z" style="fill:#88a05d;fill-opacity:1"/></svg>