<svg xmlns="http://www.w3.org/2000/svg" xmlns:xlink="http://www.w3.org/1999/xlink" viewBox="0 0 24 24"><defs><linearGradient xlink:href="#a" id="b" x1="11" y1="4" x2="11" y2="18" gradientUnits="userSpaceOnUse" gradientTransform="translate(0 1)"/><linearGradient id="a"><stop style="stop-color:#151515;stop-opacity:1" offset="0"/><stop style="stop-color:#4d4d4d;stop-opacity:1" offset="1"/></linearGradient></defs><path style="color:#000;font-style:normal;font-variant:normal;font-weight:400;font-stretch:normal;font-size:medium;line-height:normal;font-family:sans-serif;font-variant-ligatures:normal;font-variant-position:normal;font-variant-caps:normal;font-variant-numeric:normal;font-variant-alternates:normal;font-variant-east-asian:normal;font-feature-settings:normal;font-variation-settings:normal;text-indent:0;text-align:start;text-decoration:none;text-decoration-line:none;text-decoration-style:solid;text-decoration-color:#000;letter-spacing:normal;word-spacing:normal;text-transform:none;writing-mode:lr-tb;direction:ltr;text-orientation:mixed;dominant-baseline:auto;baseline-shift:baseline;text-anchor:start;white-space:normal;shape-padding:0;shape-margin:0;inline-size:0;clip-rule:nonzero;display:inline;overflow:visible;visibility:visible;isolation:auto;mix-blend-mode:normal;color-interpolation:sRGB;color-interpolation-filters:linearRGB;solid-color:#000;solid-opacity:1;vector-effect:none;fill:#fff;fill-opacity:1;fill-rule:nonzero;stroke:none;stroke-width:2;stroke-linecap:butt;stroke-linejoin:round;stroke-miterlimit:4;stroke-dasharray:none;stroke-dashoffset:0;stroke-opacity:1;color-rendering:auto;image-rendering:auto;shape-rendering:auto;text-rendering:auto;enable-background:accumulate;stop-color:#000;stop-opacity:1;opacity:1" d="M10 4a1 1 0 0 0-.941.664l-5 14A1 1 0 0 0 5 20h3a1 1 0 0 0 .94-.658L10.155 16h3.688l1.092 3H18v-2.805l1.365.854-4.424-12.385A1 1 0 0 0 14 4h-4zm.705 2h2.59l4.287 12h-.88l-1.218-3.342a1 1 0 0 0-.94-.658h-.726a1 1 0 0 0 .94-1.342l-1.819-5a1 1 0 0 0-1.878 0l-1.819 5a1 1 0 0 0 .94 1.342h-.727a1 1 0 0 0-.94.658L7.3 18h-.881l4.287-12zM12 10.926 12.39 12h-.78l.39-1.074z"/><path style="fill:url(#b);fill-opacity:1" d="M10 5 5 19h3l1.455-4h5.09L16 19h2v-2.8L14 5h-4zm2 3 1.818 5h-3.636L12 8z"/><path style="fill:#88a05d;fill-opacity:1;stroke:none;stroke-width:1px;stroke-linecap:butt;stroke-linejoin:miter;stroke-opacity:1" d="M23 20.5 19 18v2h-5v1h5v2z"/></svg>