<svg xmlns="http://www.w3.org/2000/svg" viewBox="0 0 24 24"><path d="M3 15v5h1v-2h5.697l.207-.248c-.496-.14-.944-.4-1.283-.752H4v-2H3zm17 0v2h-5.697l-.207.248c.496.14.944.4 1.283.752H20v2h1v-5h-1zM10.5 14a1.5 1.5 0 100 3 1.5 1.5 0 000-3zm3.828 0L9 20.402l.672.598L15 14.598zM10.5 15a.5.5 0 110 1 .5.5 0 010-1zm3 3a1.5 1.5 0 100 3 1.5 1.5 0 000-3zm0 1a.5.5 0 110 1 .5.5 0 010-1z" fill="#88a05d"/><path fill="#fff" d="M4 4h16v9H4z"/><path d="M6 3C4 3 3 3 3 5v8h1v-2h5v2h1v-2h4v2h1v-2h5v2h1V5c0-2-1-2-3-2zm0 1h3v3H4V5c0-1 1-1 2-1zm4 0h4v3h-4V5zm5 0h3c1 0 2 0 2 1v2h-5V5zM4 8h5v2H4zm6 0h4v2h-4zm5 0h5v2h-5z" fill="#6d6d6d"/></svg>