<svg xmlns="http://www.w3.org/2000/svg" viewBox="0 0 24 24"><path d="M21 6.003c-.015-1.259.03-2.18-.385-2.932a1.879 1.879 0 00-.998-.838c-.438-.165-.96-.224-1.617-.224H6c-.658 0-1.179.06-1.617.224a1.875 1.875 0 00-.996.838c-.415.753-.372 1.674-.387 2.932V17.997c.015 1.258-.03 2.18.385 2.932.208.376.56.673.998.838.438.164.96.224 1.617.224h12c.658 0 1.179-.06 1.617-.224.439-.165.789-.462.996-.838.415-.753.372-1.674.387-2.932V6.006z" style="line-height:125%;-inkscape-font-specification:Ubuntu;text-align:center" font-weight="400" font-size="15" font-family="Ubuntu" letter-spacing="0" word-spacing="0" text-anchor="middle" opacity=".7"/><path d="M19.973 8.977c-.012-1.556.011-3.11-.04-4.66-.042-.46-.206-1.016-.71-1.155-.635-.219-1.333-.108-1.981-.146-2.297-.008-9.597-.023-11.886.022-.462.039-1.013.202-1.164.699-.225.632-.122 1.284-.154 1.936-.007 1.424-.011 4.85-.011 6.276 0 1.705.004 5.408.019 7.107.011.512-.02 1.184.405 1.585.54.421 2.268.287 2.904.323 2.444.011 8.91.027 11.356-.022.403-.05.863-.17 1.045-.575.294-.669.168-1.427.206-2.126.01-1.755.01-7.51.01-9.264z" fill="#fa9381"/><path d="M16 7h-2v4H8v2h6v4h2z" fill="#fff"/></svg>