<svg xmlns="http://www.w3.org/2000/svg" xmlns:xlink="http://www.w3.org/1999/xlink" viewBox="0 0 16 16"><defs><linearGradient id="a"><stop offset="0" stop-color="#151515"/><stop offset="1" stop-color="#4d4d4d"/></linearGradient><linearGradient xlink:href="#a" id="b" x1="8" y1="3" x2="8" y2="15" gradientUnits="userSpaceOnUse" gradientTransform="translate(-.003 -.001)"/><linearGradient xlink:href="#a" id="c" gradientUnits="userSpaceOnUse" gradientTransform="translate(-.003 -.001)" x1="8" y1="3" x2="8" y2="15"/><linearGradient xlink:href="#a" id="e" gradientUnits="userSpaceOnUse" gradientTransform="matrix(-1 0 0 1 16.006 -.001)" x1="8" y1="3" x2="8" y2="15"/><linearGradient xlink:href="#a" id="d" gradientUnits="userSpaceOnUse" gradientTransform="matrix(-1 0 0 1 16.006 -.001)" x1="8" y1="3" x2="8" y2="15"/></defs><path d="M4.003 3.014c-1.104.018-2 .896-2 2v2.5a.503.503 0 01-.5.5h-.5v2h.5c.276 0 .5.226.5.502v2.5a2 2 0 002 2L4.997 15v-1h-1c-.552 0-.99-.448-1-1v-3a1.5 1.5 0 00-.375-1c.236-.265.382-.618.375-1V4.998c0-.551.452-1.069 1-1h1v-1z" fill="url(#b)" stroke="#fff" stroke-width="2" stroke-linejoin="round"/><path d="M4.003 3.014c-1.104.018-2 .896-2 2v2.5a.503.503 0 01-.5.5h-.5v2h.5c.276 0 .5.226.5.502v2.5a2 2 0 002 2L4.997 15v-1h-1c-.552 0-.99-.448-1-1v-3a1.5 1.5 0 00-.375-1c.236-.265.382-.618.375-1V4.998c0-.551.452-1.069 1-1h1v-1z" fill="url(#c)"/><path d="M12 3.014c1.104.018 2 .896 2 2v2.5c0 .277.224.496.5.5h.5v2h-.5c-.276 0-.5.226-.5.502v2.5a2 2 0 01-2 2L11.006 15v-1h1c.552 0 .99-.448 1-1v-3c0-.383.14-.735.375-1a1.468 1.468 0 01-.375-1V4.998c0-.551-.452-1.069-1-1h-1v-1z" fill="url(#d)" stroke="#fff" stroke-width="2" stroke-linejoin="round"/><path d="M12 3.014c1.104.018 2 .896 2 2v2.5c0 .277.224.496.5.5h.5v2h-.5c-.276 0-.5.226-.5.502v2.5a2 2 0 01-2 2L11.006 15v-1h1c.552 0 .99-.448 1-1v-3c0-.383.14-.735.375-1a1.468 1.468 0 01-.375-1V4.998c0-.551-.452-1.069-1-1h-1v-1z" fill="url(#e)"/><g fill="#e95420"><path d="M7.5 9L10 6l-5.015.017z"/><path style="line-height:normal;font-variant-ligatures:normal;font-variant-position:normal;font-variant-caps:normal;font-variant-numeric:normal;font-variant-alternates:normal;font-variant-east-asian:normal;font-feature-settings:normal;font-variation-settings:normal;text-indent:0;text-align:start;text-decoration-line:none;text-decoration-style:solid;text-decoration-color:#000;text-transform:none;text-orientation:mixed;white-space:normal;shape-padding:0;shape-margin:0;inline-size:0;isolation:auto;mix-blend-mode:normal;solid-color:#000;solid-opacity:1" d="M2 0v1c.732.002 3.346.01 3.771.045.526.044.806.139.928.23.122.092.191.207.244.565.053.358.057.91.057 1.66l-.015 3.517h1L8 3.5c.003-.75.004-1.323-.068-1.809C7.86 1.206 7.679.758 7.3.475 6.923.19 6.453.099 5.854.049 5.367.009 2.739 0 2 0z" color="#000" font-weight="400" font-family="sans-serif" overflow="visible"/></g></svg>