<svg xmlns="http://www.w3.org/2000/svg" viewBox="0 0 16 16"><path d="M2 4v7c0 1.108.892 2 2 2h8c1.108 0 2.014-.892 2-2V4z" opacity=".7" fill-rule="evenodd" stroke="#000" stroke-width="2" stroke-linejoin="round"/><path fill="#6d6d6d" fill-rule="evenodd" d="M0 2h16v2H0z"/><path d="M2 4v7c0 1.108.892 2 2 2h8c1.108 0 2.014-.892 2-2V4z" fill="#fff" fill-rule="evenodd"/><path d="M13 8.5a2.5 2.5 0 01-1.543 2.31 2.5 2.5 0 01-2.725-.542 2.5 2.5 0 01-.542-2.725A2.5 2.5 0 0110.5 6v2.5z" fill="#46a926" fill-rule="evenodd"/><path fill="#1a7fd4" fill-rule="evenodd" d="M3 6h4v1H3z"/><path fill="#c7162b" fill-rule="evenodd" d="M3 8h4v1H3z"/><path fill="#46a926" fill-rule="evenodd" d="M3 10h4v1H3z"/><path d="M10.5 6A2.5 2.5 0 0113 8.5h-2.5z" fill="#c7162b" fill-rule="evenodd"/><path d="M12.5 9a1.5 1.5 0 00-1.5 1.5 1.5 1.5 0 001.5 1.5 1.5 1.5 0 001.5-1.5A1.5 1.5 0 0012.5 9zm0 3a2.5 3 0 00-2.5 3h5a2.5 3 0 00-2.5-3z" opacity=".7" fill-rule="evenodd" stroke="#000" stroke-width="2" stroke-linejoin="round"/><path d="M12.5 9a1.5 1.5 0 00-1.5 1.5 1.5 1.5 0 001.5 1.5 1.5 1.5 0 001.5-1.5A1.5 1.5 0 0012.5 9zm0 3a2.5 3 0 00-2.5 3h5a2.5 3 0 00-2.5-3z" fill="#aee3f8" fill-rule="evenodd"/></svg>