<svg xmlns="http://www.w3.org/2000/svg" viewBox="0 0 16 16">/&gt;<path d="M5 2c-.433.75-.652.75-.219 1.5l2.31 3.96.589-.882Zm2.406 6-1.5 2.219A2 2 0 1 0 7 12c0-.405-.137-.779-.344-1.094-.005-.007.005-.024 0-.031L8 9.5l1.344 1.375v.031C9.137 11.221 9 11.596 9 12a2 2 0 1 0 1.094-1.781L8.594 8l2.625-4.5c.433-.75.214-.75-.219-1.5L8 7.125ZM8 8a.5.5 0 0 1 .5.5.508.508 0 0 1-.437.5h-.125a.508.508 0 0 1-.438-.5A.5.5 0 0 1 8 8zm-3 3a1 1 0 1 1 0 2 1 1 0 0 1 0-2zm6 0a1 1 0 1 1 0 2 1 1 0 0 1 0-2z" style="fill:gray;fill-opacity:1;stroke:#4c4c4c;opacity:1;stroke-width:2;stroke-miterlimit:4;stroke-dasharray:none;stroke-linejoin:round;stroke-opacity:1"/><path style="fill:#e3dfd5;fill-opacity:1" d="M5 2c-.433.75-.652.75-.219 1.5l2.31 3.96.589-.882Zm2.406 6-1.5 2.219A2 2 0 1 0 7 12c0-.405-.137-.779-.344-1.094-.005-.007.005-.024 0-.031L8 9.5l1.344 1.375v.031C9.137 11.221 9 11.596 9 12a2 2 0 1 0 1.094-1.781L8.594 8l2.625-4.5c.433-.75.214-.75-.219-1.5L8 7.125ZM8 8a.5.5 0 0 1 .5.5.508.508 0 0 1-.437.5h-.125a.508.508 0 0 1-.438-.5A.5.5 0 0 1 8 8zm-3 3a1 1 0 1 1 0 2 1 1 0 0 1 0-2zm6 0a1 1 0 1 1 0 2 1 1 0 0 1 0-2z"/></svg>