<svg xmlns="http://www.w3.org/2000/svg" viewBox="0 0 16 16"><path style="line-height:125%;-inkscape-font-specification:Ubuntu;text-align:center" d="M4.994 1c-1.258.015-2.179-.03-2.931.385-.377.207-.674.56-.838.998C1.06 2.82 1 3.343 1 4v8c0 .658.06 1.179.225 1.617.164.439.461.789.838.996.752.415 1.673.372 2.931.387h6.012c1.258-.015 2.179.03 2.931-.385.377-.207.674-.56.838-.998C14.94 13.178 15 13 15 12V4c0-.658-.06-1.179-.225-1.617a1.875 1.875 0 00-.838-.996c-.752-.415-1.673-.372-2.931-.387H11v1h-1V1H6v1H5V1h-.002z" font-weight="400" font-size="15" font-family="Ubuntu" letter-spacing="0" word-spacing="0" text-anchor="middle" fill="#6d6d6d"/><path d="M2 7c0-2 1-2 2-2h8c2 0 2 1 2 2v5c0 2-1 2-2 2H4c-2 0-2-1-2-2z" fill="#fff" fill-rule="evenodd"/><path fill="#6d6d6d" fill-rule="evenodd" d="M5 0h1v1H5zM10 0h1v1h-1z"/><path fill="#46a926" d="M4 7h2v2H4zM7 7h2v2H7z"/><path fill="#f22c42" d="M10 7h2v2h-2z"/><path fill="#46a926" d="M7 10.254h2v2H7z"/><path fill="#f22c42" d="M10 10.254h2v2h-2z"/></svg>