<svg xmlns="http://www.w3.org/2000/svg" viewBox="0 0 16 16"><path d="M4.994 3c-1.258.014-2.179-.031-2.932.384a1.88 1.88 0 00-.837.998C1.06 4.821 1 5.342 1 6v4.002c0 .657.06 1.178.225 1.617.164.438.461.788.837.996.753.415 1.674.372 2.932.387h6.012c1.258-.015 2.179.03 2.932-.385a1.88 1.88 0 00.837-.998c.165-.439.225-.96.225-1.617V5.999c0-.657-.06-1.178-.225-1.617a1.875 1.875 0 00-.837-.996c-.753-.415-1.674-.371-2.932-.387H4.998z" style="line-height:125%;-inkscape-font-specification:Ubuntu;text-align:center" font-weight="400" font-size="15" font-family="Ubuntu" letter-spacing="0" word-spacing="0" text-anchor="middle" opacity=".7"/><path d="M5.983 4.027c-1.556.01-1.11-.012-2.66.038-.46.043-1.016.207-1.155.71-.219.636-.108 1.334-.146 1.982-.008 2.297-.023 1.597.022 3.887.039.462.202 1.012.699 1.163.632.225 1.284.123 1.936.155 1.424.006 2.85.01 4.276.01 1.704.001 1.408-.004 3.107-.018.512-.012 1.184.02 1.585-.405.421-.54.287-1.268.323-1.904.011-2.444.027-1.911-.022-4.357-.05-.402-.17-.863-.575-1.044-.669-.295-1.427-.168-2.126-.206a715.83 715.83 0 00-5.264-.011z" fill="#80a3fa"/><path d="M8 6a2 2 0 100 4 2 2 0 000-4zm0 1a1 1 0 110 2 1 1 0 010-2z" fill="#fff"/></svg>