<svg xmlns="http://www.w3.org/2000/svg" viewBox="0 0 16 16">/&gt;<path style="line-height:125%;-inkscape-font-specification:Ubuntu;text-align:center" d="M3.994 0C2.736.015 1.815-.03 1.062.385a1.88 1.88 0 00-.837.998C.06 1.82 0 2.343 0 3V8.001c0 .657.06 1.178.225 1.617.164.439.461.788.837.996.753.415 1.674.372 2.932.387h4.012c1.258-.015 2.179.03 2.931-.385a1.88 1.88 0 00.838-.998C11.94 9.179 12 8.658 12 8V3c0-.658-.06-1.179-.225-1.617a1.875 1.875 0 00-.838-.996C10.185-.028 9.264.015 8.006 0H3.998z" font-weight="400" font-size="15" font-family="Ubuntu" letter-spacing="0" word-spacing="0" text-anchor="middle" opacity=".7"/><path d="M3.983 1.027c-1.557.011-.11-.012-1.66.039-.46.043-1.016.206-1.155.71-.219.635-.108 1.334-.146 1.982-.008 2.297-.023 2.596.022 4.886.039.462.202 1.012.699 1.163.632.226 1.284.123 1.936.155 1.424.007-.15.01 1.276.011 1.704 0 2.408-.005 4.107-.018.512-.012 1.184.02 1.585-.406.42-.54.287-1.268.323-1.903.011-2.445.027-2.912-.022-5.357-.05-.402-.17-.863-.575-1.045-.669-.294-1.427-.168-2.126-.205-1.755-.012-2.51-.013-4.264-.012z" fill="#fff"/><path d="M7.994 5c-1.258.014-2.179-.031-2.931.384a1.88 1.88 0 00-.838.998C4.06 6.821 4 7.342 4 8V13c0 .658.06 1.179.225 1.617.164.439.461.789.838.996.752.415 1.673.372 2.931.387h4.012c1.258-.015 2.179.03 2.931-.385a1.88 1.88 0 00.838-.998c.165-.438.225-.96.225-1.617V7.999c0-.657-.06-1.178-.225-1.617a1.875 1.875 0 00-.838-.996c-.752-.415-1.673-.372-2.931-.387H7.998z" style="line-height:125%;-inkscape-font-specification:Ubuntu;text-align:center" font-weight="400" font-size="15" font-family="Ubuntu" letter-spacing="0" word-spacing="0" text-anchor="middle" opacity=".7"/><path d="M7.983 6.026c-1.557.011-.11-.011-1.66.04-.46.042-1.016.206-1.155.71-.219.635-.108 1.333-.146 1.981-.007 2.297-.023 2.597.022 4.886.039.462.202 1.013.699 1.164.632.225 1.284.122 1.936.154 1.424.007-.15.011 1.276.011 1.704 0 2.408-.005 4.107-.018.512-.012 1.184.02 1.585-.405.42-.54.287-1.268.323-1.904.011-2.444.027-2.911-.022-5.357-.05-.402-.17-.863-.575-1.045-.669-.294-1.427-.168-2.126-.205-1.755-.012-2.51-.013-4.264-.012z" fill="#fff"/><path d="M9 4.5L5 8V6H1V3h4V1z" opacity=".7" stroke="#000" stroke-width="2" stroke-linejoin="round"/><path d="M9 4.5L5 8V6H1V3h4V1z" fill="#e97cc8"/><path d="M7 11.5l4 3.5v-2h4v-3h-4V8z" opacity=".7" stroke="#000" stroke-width="2" stroke-linejoin="round"/><path d="M7 11.5l4 3.5v-2h4v-3h-4V8z" fill="#aee3f8"/></svg>