<svg xmlns="http://www.w3.org/2000/svg" viewBox="0 0 16 16"><rect ry="0" y="11" x="10" height="4" width="5" opacity=".7" fill-rule="evenodd" stroke="#000" stroke-width="2" stroke-linejoin="round"/><rect width="5" height="4" x="10" y="11" ry="0" fill="#fff" fill-rule="evenodd"/><rect width="5" height="4" x="1" y="6" ry="0" opacity=".7" fill-rule="evenodd" stroke="#000" stroke-width="2" stroke-linejoin="round"/><rect ry="0" y="6" x="1" height="4" width="5" fill="#fff" fill-rule="evenodd"/><path d="M8 1H4l1.293 1.293-1.536 1.536L5.17 5.243l1.536-1.536L8 5zM8 15H4l1.293-1.293-1.536-1.536 1.414-1.414 1.536 1.536L8 11z" fill="#88a05d"/><rect width="5" height="4" x="10" y="1" ry="0" opacity=".7" fill-rule="evenodd" stroke="#000" stroke-width="2" stroke-linejoin="round"/><rect ry="0" y="1" x="10" height="4" width="5" fill="#fff" fill-rule="evenodd"/><circle cy="12.5" cx="12.5" r="3.5" fill="#c7162b"/><path overflow="visible" font-weight="400" style="line-height:normal;text-indent:0;text-align:start;text-decoration-line:none;text-decoration-style:solid;text-decoration-color:#000;text-transform:none;white-space:normal;isolation:auto;mix-blend-mode:normal;marker:none" d="M13.914 10.379L12.5 11.793l-1.414-1.414-.707.707 1.414 1.414-1.414 1.414.707.707 1.414-1.414 1.414 1.414.707-.707-1.414-1.414 1.414-1.414z" color="#000" font-family="sans-serif" fill="#fff"/></svg>