<svg xmlns="http://www.w3.org/2000/svg" viewBox="0 0 16 16"><rect width="4" height="2" x="10" y="7.094" ry="0" fill="#fff" fill-rule="evenodd"/><rect ry="0" y="12.094" x="10" height="2" width="4" fill="#fff" fill-rule="evenodd"/><path d="M9 1v4.094h6V1zm1 1h4v2h-4zM9 11.094v4.094h6v-4.094zm1 1h4v2h-4z" fill="#c7162b"/><path d="M9 6.094v4.093h6V6.095zm1 1h4v2h-4z" fill="#232629"/><rect ry="0" y="2" x="10" height="2" width="4" fill="#fff" fill-rule="evenodd"/><circle cy="6.5" cx="4.5" r="3.5" fill="#46a926"/><path overflow="visible" font-weight="400" style="line-height:normal;text-indent:0;text-align:start;text-decoration-line:none;text-decoration-style:solid;text-decoration-color:#000;text-transform:none;white-space:normal;isolation:auto;mix-blend-mode:normal;marker:none" d="M4 4v2H2v1h2v2h1V7h2V6H5V4z" color="#000" font-family="sans-serif" fill="#fff"/><circle r="3.5" cx="4.5" cy="12.5" fill="#46a926"/><path d="M4 10v2H2v1h2v2h1v-2h2v-1H5v-2z" style="line-height:normal;text-indent:0;text-align:start;text-decoration-line:none;text-decoration-style:solid;text-decoration-color:#000;text-transform:none;white-space:normal;isolation:auto;mix-blend-mode:normal;marker:none" font-weight="400" overflow="visible" color="#000" font-family="sans-serif" fill="#fff"/></svg>