<svg xmlns="http://www.w3.org/2000/svg" viewBox="0 0 16 16"><path fill="#fff" d="M2 2h12v12H2z"/><path d="M4 1C2 1 1 1 1 3v10c0 2 1 2 3 2h8c2 0 3 0 3-2V3c0-2-1-2-3-2zM2 3c0-1 1-1 2-1h1v3h1V2h4v3h1V2h1c1 0 2 0 2 1v10c0 1-1 1-2 1h-1v-3h-1v3H6v-3H5v3H4c-1 0-2 0-2-1V4z" fill="#6d6d6d"/><path fill="#c7162b" fill-rule="evenodd" d="M1 5h14v6H1z"/><path fill="#fad1d6" fill-rule="evenodd" d="M2 6h12v4H2z"/><path fill="#c7162b" fill-rule="evenodd" d="M5 6h1v4H5zM10 6h1v4h-1z"/><circle cy="12.5" cx="12.5" r="3.5" fill="#c7162b"/><path overflow="visible" font-weight="400" style="line-height:normal;text-indent:0;text-align:start;text-decoration-line:none;text-decoration-style:solid;text-decoration-color:#000;text-transform:none;white-space:normal;isolation:auto;mix-blend-mode:normal;marker:none" d="M13.914 10.379L12.5 11.793l-1.414-1.414-.707.707 1.414 1.414-1.414 1.414.707.707 1.414-1.414 1.414 1.414.707-.707-1.414-1.414 1.414-1.414z" color="#000" font-family="sans-serif" fill="#fff"/></svg>