<svg xmlns="http://www.w3.org/2000/svg" viewBox="0 0 16 16"><path fill="#fff" d="M2 2h12v12H2z"/><path d="M4 1C2 1 1 1 1 3v10c0 2 1 2 3 2h8c2 0 3 0 3-2V3c0-2-1-2-3-2zM2 6h3v3H2zm4 0h4v3H6zm5 0h3v3h-3zm-9 4h3v4H4c-1 0-2 0-2-1zm4 0h4v4H6zm5 0h3v3c0 1-1 1-2 1h-1z" fill="#6d6d6d"/><circle cy="12.5" cx="12.5" r="3.5" fill="#46a926"/><path overflow="visible" font-weight="400" style="line-height:normal;text-indent:0;text-align:start;text-decoration-line:none;text-decoration-style:solid;text-decoration-color:#000;text-transform:none;white-space:normal;isolation:auto;mix-blend-mode:normal;marker:none" d="M12 10v2h-2v1h2v2h1v-2h2v-1h-2v-2z" color="#000" font-family="sans-serif" fill="#fff"/></svg>