<svg xmlns="http://www.w3.org/2000/svg" viewBox="0 0 16 16"><path style="line-height:normal;font-variant-ligatures:normal;font-variant-position:normal;font-variant-caps:normal;font-variant-numeric:normal;font-variant-alternates:normal;font-variant-east-asian:normal;font-feature-settings:normal;font-variation-settings:normal;text-indent:0;text-align:start;text-decoration-line:none;text-decoration-style:solid;text-decoration-color:#000;text-transform:none;text-orientation:mixed;white-space:normal;shape-padding:0;shape-margin:0;inline-size:0;isolation:auto;mix-blend-mode:normal;solid-color:#000;solid-opacity:1" d="M6.986 2A1 1 0 006 3v1H3a1 1 0 00-1 1v2a1 1 0 001 1h3v1a1 1 0 00.24.648l.344-.826c.242-.585.798-.823 1.385-.843.005-.165.033-.324.076-.477L8 7.523V7a1 1 0 00-1-1 1 1 0 001-1v-.523c.762.311 1.695.837 2.922 1.523l-.15.084c.268.075.515.23.73.432.135-.127.218-.321.387-.391.365-.151.788-.16 1.19.006l.806.336a1 1 0 00-.33-1.299c-3.128-2.085-6.239-3.117-6.239-3.117A1 1 0 006.986 2z" color="#000" font-weight="400" font-family="sans-serif" overflow="visible" opacity=".7"/><path d="M7 3v2H3v2h4v1.305a1.69 1.69 0 01.969-.326c.019-.586.256-1.135.845-1.38l1.116-.462c.591-.245 1.146-.022 1.572.379.135-.127.218-.321.387-.391.307-.127.654-.146.996-.053.038-.025.076-.046.115-.072-3-2-6-3-6-3z" fill="#e97cc8"/><path fill="#6d6d6d" d="M1 1h1v10H1z"/><circle cx="11.5" cy="11.5" r="1.5" fill="#fff" fill-rule="evenodd"/><path d="M9.311 7.792a.244.244 0 00-.135.325l.273.657c-.26.195-.472.424-.662.678l-.674-.279a.248.248 0 00-.329.136l-.462 1.115a.248.248 0 00.137.329l.673.279a3.312 3.312 0 00-.011.948l-.657.272a.244.244 0 00-.135.325l.463 1.117c.054.13.194.189.325.135l.657-.272c.195.26.424.471.678.662l-.279.673a.248.248 0 00.136.329l1.115.462a.248.248 0 00.329-.136l.279-.674c.314.045.626.057.948.012l.272.657c.054.13.195.188.325.134l1.117-.462a.244.244 0 00.135-.326l-.272-.657c.26-.195.471-.424.662-.678l.673.28a.248.248 0 00.329-.137l.462-1.115a.248.248 0 00-.136-.329l-.674-.279c.045-.314.057-.625.012-.947l.657-.273a.244.244 0 00.134-.325l-.462-1.117a.244.244 0 00-.326-.135l-.657.273a3.312 3.312 0 00-.678-.662l.28-.674a.248.248 0 00-.137-.329l-1.115-.462a.248.248 0 00-.329.137l-.279.673a3.312 3.312 0 00-.947-.011l-.273-.657a.244.244 0 00-.325-.135zm1.756 2.66a1.138 1.138 0 11.87 2.103 1.138 1.138 0 01-.87-2.104z" display="block" fill="#d3d3d3" stroke="#4d4d4d" stroke-linejoin="round" stroke-width=".6"/></svg>