<svg xmlns="http://www.w3.org/2000/svg" viewBox="0 0 16 16"><path style="line-height:normal;font-variant-ligatures:normal;font-variant-position:normal;font-variant-caps:normal;font-variant-numeric:normal;font-variant-alternates:normal;font-variant-east-asian:normal;font-feature-settings:normal;font-variation-settings:normal;text-indent:0;text-align:start;text-decoration-line:none;text-decoration-style:solid;text-decoration-color:#000;text-transform:none;text-orientation:mixed;white-space:normal;shape-padding:0;shape-margin:0;inline-size:0;isolation:auto;mix-blend-mode:normal;solid-color:#000;solid-opacity:1" d="M3 1a1 1 0 00-1 1v12a1 1 0 001 1h4v-2H4V3h8v6.82l2 1.25V2a1 1 0 00-1-1H3z" color="#000" font-weight="400" font-family="sans-serif" overflow="visible" opacity=".7"/><path d="M3 2v12h4v-2h4V9.195l2 1.25V2H3z" fill="#fff"/><path opacity=".7" d="M11 3h1v1h-1zM11 6h1v1h-1zM11 9h1v1h-1zM4 3h1v1H4zM4 6h1v1H4zM4 9h1v1H4zM4 12h1v1H4z"/><path fill="#232629" d="M6 3h4v1H6zM6 6h4v1H6zM6 9h4v1H6zM6 12h1v1H6z"/><path d="M16 13.5L12 16v-2H8v-1h4v-2z" fill="#e95420"/></svg>