<svg xmlns="http://www.w3.org/2000/svg" viewBox="0 0 16 16"><path style="fill:#000;fill-opacity:1;stroke:#000;opacity:.7;stroke-width:2;stroke-miterlimit:4;stroke-dasharray:none;stroke-linejoin:round" d="M6 2v2H4v2H2v7.002c2.335 2.309 4.908-.061 6-.438a6.59 6.59 0 0 1 2-.562V10.562A6.59 6.59 0 0 1 12 10V8.562A6.594 6.594 0 0 1 14 8V2H6z"/><path d="M4 4v2h6v4.563A6.59 6.59 0 0 1 12 10V4z" style="fill:#6d6d6d;fill-opacity:1" fill="#b3b3b3"/><path d="M6 2v2h6V8.563A6.594 6.594 0 0 1 14 8V2zM2 6v7.002c2.335 2.309 4.908-.061 6-.438a6.59 6.59 0 0 1 2-.562V6z" style="fill:#fff" fill="#232629"/></svg>