<svg xmlns="http://www.w3.org/2000/svg" viewBox="0 0 16 16"><path d="M3 2L2 3v1.313l4 5.656V12l4 2V9.969l4-5.656V3l-1-1z" opacity=".7" stroke="#000" stroke-width="2" stroke-linejoin="round"/><path d="M3 2L2 3v1.313l4 5.656V12l4 2V9.969l4-5.656V3l-1-1z" fill="#fff"/><path d="M14 8l-3 1c-1.047 0-2 .953-2 2l-1 3 3-1c1.047 0 2-.953 2-2zm-3 2c.524 0 1 .476 1 1s-.476 1-1 1-1-.476-1-1 .476-1 1-1z" fill="#88a05d"/><circle cx="11" cy="11" r="5" fill="#507ce8"/><path d="M10 10l-2 4 4-2z" style="marker:none" color="#000" overflow="visible" fill="#dfdfdf"/><path style="marker:none" d="M10 10l4-2-2 4z" color="#000" overflow="visible" fill="#e93549"/><circle style="marker:none" cx="11" cy="11" transform="matrix(0 1 1 0 0 0)" r="1" color="#000" overflow="visible" fill="#f2f2f2"/></svg>