<svg xmlns="http://www.w3.org/2000/svg" viewBox="0 0 16 16"><path d="M6 2C3.79 2 2 4.686 2 8s1.79 6 4 6h4a4 6 0 004-6 4 6 0 00-4-6H6zm3.205.12a4 6 0 00-.387.148 4 6 0 00-.724.457c.229-.187.471-.34.724-.457.127-.06.256-.11.387-.149zm-1.187.675a4 6 0 00-.266.244c.085-.087.175-.167.266-.244zm-.815.924a4 6 0 00-.043.06l.043-.06zm-.482.857a4 6 0 00-.053.113l.053-.113zm-.373.996a4 6 0 00-.045.153c.014-.052.03-.102.045-.153zM6.1 6.703a4 6 0 00-.022.149l.022-.149zm.205 3.584a4 6 0 00.027.098l-.027-.098zm.363 1.024a4 6 0 00.023.058l-.023-.058zm.484.896a4 6 0 00.03.047l-.03-.047zm.575.723a4 6 0 00.072.076c-.025-.024-.048-.051-.072-.076zm.238.228a4 6 0 00.178.155c-.061-.048-.12-.102-.178-.155zm.318.254a4 6 0 00.238.16 3.508 3.508 0 01-.238-.16zm.344.217a4 6 0 00.262.133 3.145 3.145 0 01-.262-.133zm.389.182a4 6 0 00.263.087 2.88 2.88 0 01-.263-.087zm.41.12a4 6 0 00.234.044 2.74 2.74 0 01-.234-.043z" stroke="#000" opacity=".7" stroke-width="2"/><path d="M10 2a4 6 0 00-4 6 4 6 0 004 6 4 6 0 004-6 4 6 0 00-4-6z" fill="#fff"/><path d="M6 2C3.79 2 2 4.686 2 8s1.79 6 4 6h4c-2.21 0-4-2.686-4-6s1.79-6 4-6z" fill="#6d6d6d"/></svg>