<svg xmlns="http://www.w3.org/2000/svg" viewBox="0 0 16 16">/&gt;<path fill="#fff" d="M2 2h12v12H2z"/><path d="M1 3v10c0 2 1 2 3 2h8c2 0 3 0 3-2V3c0-2-1-2-3-2H4C2 1 1 1 1 3zm3-1h1v4H2V3c0-1 1-1 2-1zm2 0h4v4H6zm5 0h1c1 0 2 0 2 1v3h-3zM2 7h3v3H2zm4 0h4v3H6zm5 0h3v3h-3zm-9 4h3v3H4c-1 0-2 0-2-1zm4 0h4v3H6zm5 0h3v2c0 1-1 1-2 1h-1z" fill="#6d6d6d"/><path d="M4 1C2 1 1 1 1 3v4h14V3c0-2-1-2-3-2zm0 1h1v4H2V3c0-1 1-1 2-1zm2 0h4v4H6zm5 0h1c1 0 2 0 2 1v3h-3z" fill="#2f5fdd"/><path opacity=".3" fill="#2f5fdd" fill-rule="evenodd" d="M2 2h12v4H2z"/></svg>