<svg xmlns="http://www.w3.org/2000/svg" xmlns:xlink="http://www.w3.org/1999/xlink" viewBox="0 0 16 16"><defs><linearGradient xlink:href="#a" id="b" x1="8" y1="2" x2="8" y2="13.5" gradientUnits="userSpaceOnUse" gradientTransform="translate(0 1)"/><linearGradient id="a"><stop offset="0" stop-color="#151515"/><stop offset="1" stop-color="#4d4d4d"/></linearGradient></defs><path d="M13.5 0L11 4h2v4h1V4h2z" fill="#88a05d"/><path style="line-height:normal;font-variant-ligatures:normal;font-variant-position:normal;font-variant-caps:normal;font-variant-numeric:normal;font-variant-alternates:normal;font-variant-east-asian:normal;font-feature-settings:normal;font-variation-settings:normal;text-indent:0;text-align:start;text-decoration-line:none;text-decoration-style:solid;text-decoration-color:#000;text-transform:none;text-orientation:mixed;white-space:normal;shape-padding:0;shape-margin:0;inline-size:0;isolation:auto;mix-blend-mode:normal;solid-color:#000;solid-opacity:1" d="M6.902 2a1 1 0 00-.91.586L1.18 13.172a1 1 0 00.496 1.324l1.82.828a1 1 0 001.324-.496L6.107 12h3.786l1.287 2.828a1 1 0 001.324.496l1.82-.828a1 1 0 00.496-1.324L12.924 9H12V6.969L11.105 5H10V2.57A1 1 0 009.098 2H6.902zm.645 2h.906l.442.969a1 1 0 00-1.797.015L7.547 4zM8 7.832L8.076 8h-.152L8 7.832zm-2.543.764A1 1 0 006.371 10h-.908a1 1 0 00-.889.541l.883-1.945zm5.107.049l.883 1.94a1 1 0 00-.91-.585H9.63a1 1 0 00.935-1.355z" color="#000" font-weight="400" font-family="sans-serif" overflow="visible" fill="#fff"/><path style="line-height:normal;font-variant-ligatures:normal;font-variant-position:normal;font-variant-caps:normal;font-variant-numeric:normal;font-variant-alternates:normal;font-variant-east-asian:normal;font-feature-settings:normal;font-variation-settings:normal;text-indent:0;text-align:start;text-decoration-line:none;text-decoration-style:solid;text-decoration-color:#000;text-transform:none;text-orientation:mixed;white-space:normal;shape-padding:0;shape-margin:0;inline-size:0;isolation:auto;mix-blend-mode:normal;solid-color:#000;solid-opacity:1" d="M6.902 3L2.09 13.586l1.82.828L5.463 11h5.074l1.553 3.414 1.82-.828L9.098 3H8zM8 5.416L9.629 9H6.37z" color="#000" font-weight="400" font-family="sans-serif" overflow="visible" fill="url(#b)"/></svg>