<svg xmlns="http://www.w3.org/2000/svg" viewBox="0 0 16 16">/&gt;<path fill="#fff" d="M7.5 2v1h1V2zM4.125 3.438c-.248.21-.477.44-.688.687l.72.719c.203-.247.44-.484.687-.688zm7.75 0l-.719.718c.247.204.484.44.688.688l.719-.719a6.007 6.007 0 00-.688-.688zM8 4a4 4 0 100 8 4 4 0 000-8zm0 1v6a3 3 0 010-6zM2 7.5v1h1v-1zm11 0v1h1v-1zm-8.844 3.656l-.718.719c.21.248.44.477.687.688l.719-.72a5.175 5.175 0 01-.688-.687zm7.688 0c-.204.247-.44.484-.688.688l.719.719c.248-.211.477-.44.688-.688zM7.5 13v1h1v-1z" stroke="#fff" stroke-width="2" stroke-linejoin="round"/><path d="M7.5 2v1h1V2zM4.125 3.438c-.248.21-.477.44-.688.687l.72.719c.203-.247.44-.484.687-.688zm7.75 0l-.719.718c.247.204.484.44.688.688l.719-.719a6.007 6.007 0 00-.688-.688zM8 4a4 4 0 100 8 4 4 0 000-8zm0 1v6a3 3 0 010-6zM2 7.5v1h1v-1zm11 0v1h1v-1zm-8.844 3.656l-.718.719c.21.248.44.477.687.688l.719-.72a5.175 5.175 0 01-.688-.687zm7.688 0c-.204.247-.44.484-.688.688l.719.719c.248-.211.477-.44.688-.688zM7.5 13v1h1v-1z" fill="#232629"/><path d="M8 5v6a3 3 0 010-6z" fill="#fff"/></svg>