<svg xmlns="http://www.w3.org/2000/svg" viewBox="0 0 16 16">/&gt;<path style="opacity:.7;fill:#000;fill-opacity:1;fill-rule:nonzero;stroke:#000;stroke-width:2;stroke-linecap:round;stroke-linejoin:round;stroke-miterlimit:4;stroke-dasharray:none;stroke-opacity:1" d="M2 2h12v12H2z"/><path style="opacity:1;fill:#fff;fill-opacity:1;fill-rule:nonzero;stroke:none;stroke-width:2;stroke-linecap:round;stroke-linejoin:round;stroke-miterlimit:4;stroke-dasharray:none;stroke-opacity:1" d="M2 2h12v12H2z"/><path style="fill:#232629" d="M11 3v2h2V3ZM7 3v2h2V3ZM3 3v2h2V3ZM11 7v2h2V7ZM7 7v2h2V7ZM3 7v2h2V7ZM11 11v2h2v-2zM7 11v2h2v-2zM3 11v2h2v-2z"/><path style="opacity:.7;fill:#000;stroke:#000;stroke-width:2;stroke-linejoin:round;stroke-miterlimit:4;stroke-dasharray:none" d="M12 8c-1 0-2 0-2 1.5V11H9v4h6v-4h-1V9.5C14 8 13 8 12 8Zm0 1c1 0 1 .5 1 1v1h-2v-1c0-.5 0-1 1-1z"/><path d="M12 8c-1 0-2 0-2 1.5V11H9v4h6v-4h-1V9.5C14 8 13 8 12 8Zm0 1c1 0 1 .5 1 1v1h-2v-1c0-.5 0-1 1-1z" style="fill:#fee581;fill-opacity:1"/></svg>