<svg xmlns="http://www.w3.org/2000/svg" viewBox="0 0 16 16"><path d="M4 12v2h2v-2zm6-2H8v2h2zm0-2v2h2V8zM6 6v2h2V6zm4-2v2h2V4zM8 2v2h2V2zM2 2v2h2V2z" fill="#fdbc4b"/><path d="M6 12v2h2v-2zm4-2v2h2v-2zM2 8v2h2V8zm4-4v2h2V4zm6 2h-2v2h2zm0-2v2h2V4zm-2-2v2h2V2z" fill="#2ecc71"/><path d="M12 12v2h2v-2zM2 12v2h2v-2zm10-4v2h2V8zm-4 2H6v2h2zm0-2v2h2V8zM4 6v2h2V6zM2 4v2h2V4zm4-2v2h2V2z" fill="#762572"/><path d="M10 12v2h2v-2zm2-2v2h2v-2zm-6 0H4v2h2zm0-2v2h2V8zm6-2v2h2V6zM2 6v2h2V6zm6-2v2h2V4zM4 2v2h2V2z" fill="#c7162b"/><path d="M8 12v2h2v-2zm-4-2H2v2h2zm0-2v2h2V8zm4-2v2h2V6zM4 4v2h2V4zm8-2v2h2V2z" fill="#88a05d"/></svg>