<svg xmlns="http://www.w3.org/2000/svg" xmlns:xlink="http://www.w3.org/1999/xlink" viewBox="0 0 16 16"><defs><linearGradient xlink:href="#a" id="b" x1="14.849" y1="-2.121" x2="20.506" y2="3.536" gradientUnits="userSpaceOnUse"/><linearGradient id="a"><stop style="stop-color:#151515;stop-opacity:1" offset="0"/><stop style="stop-color:#4d4d4d;stop-opacity:1" offset="1"/></linearGradient></defs><path style="opacity:1;fill:#fff;fill-opacity:1;stroke:none;stroke-width:2;stroke-linecap:round;stroke-linejoin:round;stroke-miterlimit:4;stroke-dasharray:none;stroke-opacity:1" d="M2 2h12v12H2z"/><path d="M4 1C2 1 1 1 1 3v10c0 2 1 2 3 2h8c2 0 3 0 3-2V3c0-2-1-2-3-2zM2 3c0-1 1-1 2-1h1v3h1V2h4v3h1V2h1c1 0 2 0 2 1v10c0 1-1 1-2 1h-1v-3h-1v3H6v-3H5v3H4c-1 0-2 0-2-1V4z" style="fill:#6d6d6d;fill-opacity:1"/><path style="opacity:1;fill:#77216f;fill-opacity:1;fill-rule:evenodd;stroke:none;stroke-width:2;stroke-linecap:round;stroke-linejoin:round" d="M1 5h14v6H1z"/><path style="opacity:1;fill:#f3d8f2;fill-opacity:1;fill-rule:evenodd;stroke:none;stroke-width:2;stroke-linecap:round;stroke-linejoin:round" d="M2 6h12v4H2z"/><path style="fill:#77216f;fill-rule:evenodd;stroke-width:2;stroke-linecap:round;stroke-linejoin:round" d="M5 6h1v4H5zM10 6h1v4h-1z"/><circle style="opacity:.7;fill:#000;fill-opacity:1;fill-rule:evenodd;stroke:#000;stroke-width:2;stroke-linecap:butt;stroke-linejoin:round;stroke-miterlimit:4;stroke-dasharray:none;stroke-opacity:1" cx="12" cy="12" r="3"/><circle r="3" cy="12" cx="12" style="opacity:1;fill:#fff;fill-opacity:1;fill-rule:evenodd;stroke:none;stroke-width:2;stroke-linecap:butt;stroke-linejoin:round;stroke-miterlimit:4;stroke-dasharray:none;stroke-opacity:1"/><path d="M12 10a2 2 0 1 0 2 2 2 2 0 0 0 0-.588A1 1 0 0 1 13 12a1 1 0 0 1-1-1 1 1 0 0 1 .59-1 2 2 0 0 0-.59 0z" style="fill:#232629"/><path style="opacity:1;fill:#aee3f8;fill-opacity:1;fill-rule:evenodd;stroke:#fff;stroke-width:2;stroke-linecap:butt;stroke-linejoin:round;stroke-miterlimit:4;stroke-dasharray:none;stroke-opacity:1" transform="rotate(45)" d="M17.127-4.5h1v9h-1z"/><path style="opacity:1;fill:url(#b);fill-opacity:1;fill-rule:evenodd;stroke:none;stroke-width:2;stroke-linecap:butt;stroke-linejoin:round;stroke-miterlimit:4;stroke-dasharray:none;stroke-opacity:1" transform="rotate(45)" d="M17.127-4.5h1v9h-1z"/></svg>