<svg xmlns="http://www.w3.org/2000/svg" viewBox="0 0 16 16"><path d="M3.997.98c-1.259.015-2.18-.03-2.932.385a1.88 1.88 0 0 0-.838.998c-.165.439-.252.96-.225 1.617v8.039c0 .658.06 1.18.225 1.618.165.438.462.788.838.996.753.415 1.673.372 2.932.387H12.008c1.258-.015 2.18.03 2.932-.385a1.88 1.88 0 0 0 .838-.998c.164-.439.224-.96.224-1.617V3.98c0-.657-.06-1.178-.224-1.617a1.875 1.875 0 0 0-.838-.996C14.187.952 13.266.996 12.008.98H4z" style="font-style:normal;font-variant:normal;font-weight:400;font-stretch:normal;font-size:15px;line-height:125%;font-family:Ubuntu;-inkscape-font-specification:Ubuntu;text-align:center;letter-spacing:0;word-spacing:0;writing-mode:lr-tb;text-anchor:middle;display:inline;opacity:.7;fill:#000;fill-opacity:1;stroke:none;stroke-width:.999802"/><path d="M7.986 2.008c-1.557.01-4.11-.012-5.66.038-.461.043-1.016.207-1.155.71-.22.636-.109 1.334-.146 1.982-.008 2.297-.023 5.635.021 7.925.04.462.203 1.012.699 1.163.632.225 1.284.123 1.936.155 1.424.006 3.85.01 5.276.01 1.705.001 2.409-.004 4.108-.018.511-.012 1.183.02 1.584-.405.421-.54.287-1.268.323-1.904.012-2.444.028-5.95-.022-8.395-.05-.402-.17-.863-.575-1.044-.668-.295-1.426-.168-2.126-.206a469.764 469.764 0 0 0-4.263-.011z" style="opacity:1;vector-effect:none;fill:#fff;fill-opacity:1;stroke:none;stroke-width:1;stroke-linecap:round;stroke-linejoin:bevel;stroke-miterlimit:4;stroke-dasharray:none;stroke-dashoffset:0;stroke-opacity:1"/><path d="M3 11h10v-1h-1V7h-2v3H9V8H7v2H6V5H4v5H3z" style="fill:#232629;fill-opacity:1"/><path style="opacity:1;fill:#88a05d;fill-opacity:1;fill-rule:evenodd;stroke:none;stroke-width:1.78885;stroke-linecap:butt;stroke-linejoin:round;stroke-miterlimit:4;stroke-dasharray:none;stroke-opacity:1" transform="rotate(90)" d="M12-12h1v8h-1z"/><path style="opacity:1;fill:#88a05d;fill-opacity:1;fill-rule:evenodd;stroke:none;stroke-width:1.78885;stroke-linecap:butt;stroke-linejoin:round;stroke-miterlimit:4;stroke-dasharray:none;stroke-opacity:1" transform="scale(-1)" d="M-3-9h1v5h-1z"/><path style="opacity:1;fill:#88a05d;fill-opacity:1;fill-rule:evenodd;stroke:none;stroke-width:1.78885;stroke-linecap:butt;stroke-linejoin:round;stroke-miterlimit:4;stroke-dasharray:none;stroke-opacity:1" transform="rotate(90)" d="M3-12h1v8H3z"/></svg>