<svg xmlns="http://www.w3.org/2000/svg" viewBox="0 0 16 16">/&gt;<path d="M5.01 1c-1.257.014-2.178-.03-2.93.385a1.88 1.88 0 00-.839.998c-.164.438-.224.96-.224 1.617v7c0 .658.06 1.179.224 1.617.165.439.462.789.838.996.753.416 1.674.372 2.932.387h6.012c1.258-.014 2.178.03 2.931-.385a1.88 1.88 0 00.838-.998c.165-.438.225-.96.225-1.617V4c0-.658-.06-1.179-.225-1.617a1.875 1.875 0 00-.838-.996C13.201.97 12.281 1.015 11.022 1H5.015z" style="line-height:125%;-inkscape-font-specification:Ubuntu;text-align:center" font-weight="400" font-size="15" font-family="Ubuntu" letter-spacing="0" word-spacing="0" text-anchor="middle" opacity=".7"/><path d="M5 2c-1.557.01-.11-.012-1.66.039-.46.042-1.016.206-1.155.71-.219.635-.108 1.334-.146 1.982-.008 2.297-.023 4.596.022 6.885.039.462.202 1.013.699 1.164.632.225 1.284.123 1.936.154 1.424.007-.15.011 1.276.011 1.704 0 4.408-.005 6.107-.018.512-.012 1.184.02 1.585-.405.42-.54.287-1.268.323-1.904.011-2.444.027-4.91-.022-7.357-.05-.402-.17-.863-.575-1.044-.669-.294-1.427-.168-2.126-.206C9.509 2 6.754 2 5 2z" fill="#fff"/><path d="M3 4v1h4V4zM3 10v1h4v-1z"/><path d="M11.5 3L10 6h3" fill="#88a05d"/><path d="M3 7v1h4V7z"/><path d="M11.5 12L10 9h3" fill="#88a05d"/><path opacity=".7" d="M8 2h1v11H8z"/></svg>