<svg xmlns="http://www.w3.org/2000/svg" viewBox="0 0 16 16">/&gt;<path d="M3.458 11.128l1.414 1.414c1.414 1.414 2.122 2.121 3.536.707l4.531-4.531C13.646 8.01 14 7.657 14 6.95V3.414C14 2.707 13.293 2 12.586 2H9.05c-.707 0-1.06.354-1.768 1.06L2.751 7.593c-1.414 1.414-.707 2.122.707 3.536z" stroke="#000" stroke-width="2" opacity=".7"/><path d="M3.458 11.128l1.414 1.414c1.414 1.414 2.122 2.121 3.536.707l4.531-4.531C13.646 8.01 14 7.657 14 6.95V3.414C14 2.707 13.293 2 12.586 2H9.05c-.707 0-1.06.354-1.768 1.06L2.751 7.593c-1.414 1.414-.707 2.122.707 3.536z" fill="#ffd9b2"/><circle r="1" cy="5" cx="11" opacity=".7" stroke="#000" stroke-width="2" stroke-linejoin="round"/><circle cx="11" cy="5" r="1" fill="#fff"/></svg>