<svg xmlns="http://www.w3.org/2000/svg" viewBox="0 0 16 16"><path d="M2 5c-.554 0-1 .446-1 1v8c0 .554.446 1 1 1h8c.554 0 1-.446 1-1V6c0-.554-.446-1-1-1zm0 1h8v8H2z" fill="#6d6d6d"/><path d="M9.5 1A5.5 5.5 0 004 6.5 5.5 5.5 0 009.5 12 5.5 5.5 0 0015 6.5 5.5 5.5 0 009.5 1zm0 1A4.5 4.5 0 0114 6.5 4.5 4.5 0 019.5 11 4.5 4.5 0 015 6.5 4.5 4.5 0 019.5 2z" fill="#6d6d6d"/><path d="M2 6v8h8v-2.025a5.5 5.5 0 01-.5.025A5.5 5.5 0 014 6.5a5.5 5.5 0 01.027-.5z" fill="#fee581"/><circle cx="9.5" cy="6.5" r="4.5" fill="#fee581"/></svg>