<svg xmlns="http://www.w3.org/2000/svg" xmlns:xlink="http://www.w3.org/1999/xlink" viewBox="0 0 16 16"><defs><linearGradient xlink:href="#a" id="b" gradientUnits="userSpaceOnUse" gradientTransform="translate(.994 -1.016)" x1="8" y1="3" x2="8" y2="15"/><linearGradient id="a"><stop style="stop-color:#151515;stop-opacity:1" offset="0"/><stop style="stop-color:#4d4d4d;stop-opacity:1" offset="1"/></linearGradient><linearGradient xlink:href="#a" id="d" gradientUnits="userSpaceOnUse" gradientTransform="matrix(-1 0 0 1 15.006 -1.016)" x1="8" y1="3" x2="8" y2="15"/><linearGradient xlink:href="#a" id="e" gradientUnits="userSpaceOnUse" gradientTransform="matrix(-1 0 0 1 15.006 -1.016)" x1="8" y1="3" x2="8" y2="15"/><linearGradient xlink:href="#a" id="c" gradientUnits="userSpaceOnUse" gradientTransform="translate(.994 -1.016)" x1="8" y1="3" x2="8" y2="15"/></defs>/&gt;<path style="fill:url(#b);fill-opacity:1;stroke:#fff;stroke-width:2;stroke-linejoin:round" d="M5 2c-1.104.017-2 .895-2 2v2.5a.503.503 0 0 1-.5.5H2v2h.5c.276 0 .5.226.5.502v2.5a2 2 0 0 0 2 2l.994-.018v-1h-1c-.552 0-.99-.447-1-1v-3a1.5 1.5 0 0 0-.375-1c.236-.265.382-.617.375-1v-3c0-.552.452-1.069 1-1h1v-1z"/><path style="fill:url(#c);fill-opacity:1" d="M5 2c-1.104.017-2 .895-2 2v2.5a.503.503 0 0 1-.5.5H2v2h.5c.276 0 .5.226.5.502v2.5a2 2 0 0 0 2 2l.994-.018v-1h-1c-.552 0-.99-.447-1-1v-3a1.5 1.5 0 0 0-.375-1c.236-.265.382-.617.375-1v-3c0-.552.452-1.069 1-1h1v-1z"/><path style="fill:url(#d);fill-opacity:1;stroke:#fff;stroke-width:2;stroke-linejoin:round" d="M11 2c1.104.017 2 .895 2 2v2.5c0 .276.224.495.5.5h.5v2h-.5c-.276 0-.5.226-.5.502v2.5a2 2 0 0 1-2 2l-.994-.018v-1h1c.552 0 .99-.447 1-1v-3c0-.382.14-.735.375-1a1.468 1.468 0 0 1-.375-1v-3c0-.552-.452-1.069-1-1h-1v-1z"/><path style="fill:url(#e);fill-opacity:1" d="M11 2c1.104.017 2 .895 2 2v2.5c0 .276.224.495.5.5h.5v2h-.5c-.276 0-.5.226-.5.502v2.5a2 2 0 0 1-2 2l-.994-.018v-1h1c.552 0 .99-.447 1-1v-3c0-.382.14-.735.375-1a1.468 1.468 0 0 1-.375-1v-3c0-.552-.452-1.069-1-1h-1v-1z"/></svg>