<svg xmlns="http://www.w3.org/2000/svg" viewBox="0 0 16 16"><path style="line-height:normal;font-variant-ligatures:normal;font-variant-position:normal;font-variant-caps:normal;font-variant-numeric:normal;font-variant-alternates:normal;font-variant-east-asian:normal;font-feature-settings:normal;font-variation-settings:normal;text-indent:0;text-align:start;text-decoration-line:none;text-decoration-style:solid;text-decoration-color:#000;text-transform:none;text-orientation:mixed;white-space:normal;shape-padding:0;shape-margin:0;inline-size:0;isolation:auto;mix-blend-mode:normal;solid-color:#000;solid-opacity:1" d="M5 1.002c-1 0-1.84-.073-2.697.355-.43.215-.82.613-1.03 1.082C1.065 2.91 1 3.42 1 4.002v5c0 .583.065 1.093.273 1.562.21.47.6.868 1.03 1.082.729.365 1.48.31 2.293.303L7 13.752V12h.994L5.6 10.203a1 1 0 00-.6-.201c-1 0-1.66-.073-1.803-.145-.07-.035-.054-.012-.095-.105C3.06 9.659 3 9.419 3 9.002v-5c0-.417.06-.657.102-.75.04-.093.024-.07.095-.106C3.34 3.076 4 3.002 5 3.002h6c1 0 1.66.073 1.803.144.07.036.054.013.095.106.042.093.102.333.102.75v5c0 .417-.06.657-.102.75-.04.093-.024.07-.095.105-.072.036-.275.073-.584.1l2.04 1.275c.193-.192.357-.418.468-.668.208-.47.273-.979.273-1.562v-5c0-.583-.065-1.093-.273-1.563-.21-.47-.6-.867-1.03-1.082C12.84.93 12 1.002 11 1.002H5zm4 9a1 1 0 00-1 1V12h3v-1.998H9zM8.945 15a1 1 0 00.112 0h-.112z" color="#000" font-weight="400" font-family="sans-serif" overflow="visible" opacity=".7"/><path d="M5 2.002c-2 0-3 0-3 2v5c0 2 1 2 3 2l2 1.5V12h2v-.998h2V9.195l2.361 1.477c.42-.27.639-.755.639-1.67v-5c0-2-1-2-3-2H5z" fill="#fa9381"/><path d="M4.333 5.002h7.334c.184 0 .333.223.333.5s-.149.5-.333.5H4.333c-.184 0-.333-.223-.333-.5s.149-.5.333-.5zM4.333 7.002h7.334c.184 0 .333.223.333.5s-.149.5-.333.5H4.333c-.184 0-.333-.223-.333-.5s.149-.5.333-.5z" fill="#fff"/><path d="M16 13.5L12 16v-2H8v-1h4v-2z" fill="#88a05d"/></svg>