<svg xmlns="http://www.w3.org/2000/svg" xmlns:xlink="http://www.w3.org/1999/xlink" viewBox="0 0 16 16"><defs><linearGradient id="a"><stop style="stop-color:#151515;stop-opacity:1" offset="0"/><stop style="stop-color:#4d4d4d;stop-opacity:1" offset="1"/></linearGradient><linearGradient xlink:href="#a" id="b" x1="8" y1="1" x2="8" y2="15" gradientUnits="userSpaceOnUse"/></defs>/&gt;<path style="opacity:1;fill:#000;fill-opacity:1;stroke:#fff;stroke-width:2;stroke-linejoin:round;stroke-miterlimit:4;stroke-dasharray:none;stroke-opacity:1" d="M2 1v1h12V1H2zm6 2C5.784 3 4 4.784 4 7v4c0 2.216 1.784 4 4 4s4-1.784 4-4V7c0-2.216-1.784-4-4-4zm-.5 2h1c.831 0 1.5.892 1.5 2v4c0 1.108-.669 2-1.5 2h-1c-.831 0-1.5-.892-1.5-2V7c0-1.108.669-2 1.5-2z"/><path style="opacity:1;fill:url(#b);fill-opacity:1;stroke:none;stroke-width:1;stroke-linejoin:round;stroke-miterlimit:4;stroke-dasharray:none;stroke-opacity:1" d="M2 1v1h12V1H2zm6 2C5.784 3 4 4.784 4 7v4c0 2.216 1.784 4 4 4s4-1.784 4-4V7c0-2.216-1.784-4-4-4zm-.5 2h1c.831 0 1.5.892 1.5 2v4c0 1.108-.669 2-1.5 2h-1c-.831 0-1.5-.892-1.5-2V7c0-1.108.669-2 1.5-2z"/></svg>