<svg xmlns="http://www.w3.org/2000/svg" viewBox="0 0 16 16"><path d="M4.994.962c-1.258.014-2.179-.03-2.932.385a1.88 1.88 0 00-.837.998C1.06 2.783 1 3.305 1 3.962V9c0 .658.06 1.18.225 1.618.164.438.461.788.837.996.753.415 1.674.372 2.932.387h6.012c1.258-.015 2.179.03 2.932-.385a1.88 1.88 0 00.837-.998C14.94 10.179 15 9.658 15 9V3.962c0-.658-.06-1.179-.225-1.617a1.875 1.875 0 00-.837-.996c-.753-.416-1.674-.372-2.932-.387H4.998z" style="line-height:125%;-inkscape-font-specification:Ubuntu;text-align:center" font-weight="400" font-size="15" font-family="Ubuntu" letter-spacing="0" word-spacing="0" text-anchor="middle" fill="#6d6d6d"/><path d="M7.983 1.989c-1.556.01-3.11-.012-4.66.039-.46.042-1.016.206-1.155.71-.219.635-.108 1.334-.146 1.982-.008 2.297-.023 2.634.022 4.924.039.462.202 1.012.699 1.163.632.225 1.284.123 1.936.155 1.424.006 2.85.01 4.276.01 1.704.001 1.408-.004 3.107-.018.512-.012 1.184.02 1.585-.405.421-.54.287-1.268.323-1.904.011-2.444.027-2.949-.022-5.395-.05-.402-.17-.862-.575-1.044-.669-.294-1.427-.168-2.126-.206-1.755-.011-1.51-.012-3.264-.011z" fill="#fff"/><path style="marker:none" d="M6 12v.5C6 14 5.5 14 4.5 14H4v1h8v-1h-.5c-1 0-1.5 0-1.5-1.5V12z" color="#000" overflow="visible" fill="#6d6d6d"/><path d="M11 4a1 1 0 100 2 1 1 0 000-2zM6.5 5L4 10h7L9 6 8 7.5z" style="marker:none" color="#000" overflow="visible" fill="#232629"/></svg>