<svg xmlns="http://www.w3.org/2000/svg" viewBox="0 0 16 16">/&gt;<path fill="#fff" fill-rule="evenodd" d="M2 12h6v-1H2z"/><path fill="#232629" fill-rule="evenodd" d="M2 11h6v-1H2z"/><path fill="#fff" fill-rule="evenodd" d="M2 14h4v-1H2z"/><path fill="#232629" fill-rule="evenodd" d="M2 13h4v-1H2z"/><path d="M12 11l4 2.5-4 2.5z" fill="#88a05d"/><path fill="#fff" fill-rule="evenodd" d="M2 4h12V3H2z"/><path fill="#232629" fill-rule="evenodd" d="M2 3h12V2H2z"/><path fill="#fff" fill-rule="evenodd" d="M2 6h8V5H2z"/><path fill="#232629" fill-rule="evenodd" d="M2 5h8V4H2z"/><path fill="#88a05d" fill-rule="evenodd" d="M8 13h4v1H8z"/><path fill="#fff" fill-rule="evenodd" d="M2 8h10V7H2z"/><path fill="#232629" fill-rule="evenodd" d="M2 7h10V6H2z"/></svg>