<svg xmlns="http://www.w3.org/2000/svg" viewBox="0 0 16 16"><path style="line-height:normal;font-variant-ligatures:normal;font-variant-position:normal;font-variant-caps:normal;font-variant-numeric:normal;font-variant-alternates:normal;font-variant-east-asian:normal;font-feature-settings:normal;font-variation-settings:normal;text-indent:0;text-align:start;text-decoration-line:none;text-decoration-style:solid;text-decoration-color:#000;text-transform:none;text-orientation:mixed;white-space:normal;shape-padding:0;shape-margin:0;inline-size:0;isolation:auto;mix-blend-mode:normal;solid-color:#000;solid-opacity:1" d="M5 1.002c-1 0-1.84-.073-2.697.355-.43.215-.82.613-1.03 1.082C1.065 2.91 1 3.42 1 4.002v5c0 .583.065 1.093.273 1.562.111.25.275.476.467.668l2.041-1.275c-.31-.027-.512-.064-.584-.1-.07-.035-.054-.012-.095-.105C3.06 9.659 3 9.419 3 9.002v-5c0-.417.06-.657.102-.75.04-.093.024-.07.095-.106C3.34 3.076 4 3.002 5 3.002h6c1 0 1.66.073 1.803.144.07.036.054.013.095.106.042.093.102.333.102.75v5c0 .417-.06.657-.102.75-.04.093-.024.07-.095.105-.142.072-.803.145-1.803.145H9a1 1 0 00-1 1V12h1l1 .002h1c1 0 1.84.073 2.697-.355.43-.215.82-.613 1.03-1.082.208-.47.273-.98.273-1.563v-5c0-.583-.065-1.093-.273-1.563-.21-.47-.6-.867-1.03-1.082C12.84.93 12 1.002 11 1.002zm0 9V12h2.994L5.6 10.203a1 1 0 00-.6-.201z" color="#000" font-weight="400" font-family="sans-serif" overflow="visible" opacity=".7"/><path d="M5 2.002c-2 0-3 0-3 2v5c0 .915.22 1.4.639 1.67L5 9.195v1.807L6.33 12H9v-.998h2c2 0 3 0 3-2v-5c0-2-1-2-3-2H5z" fill="#fa9381"/><path d="M4.333 5.002h7.334c.184 0 .333.223.333.5s-.149.5-.333.5H4.333c-.184 0-.333-.223-.333-.5s.149-.5.333-.5zM4.333 7.002h7.334c.184 0 .333.223.333.5s-.149.5-.333.5H4.333c-.184 0-.333-.223-.333-.5s.149-.5.333-.5z" fill="#fff"/><path d="M0 13.5L4 16v-2h4v-1H4v-2z" fill="#88a05d"/></svg>