<svg xmlns="http://www.w3.org/2000/svg" viewBox="0 0 16 16"><path d="M7 1c-.554 0-1 .446-1 1H4c-1.108 0-2 .892-2 2v9c0 1.108.892 2 2 2h8c1.106 0 2-.89 2-2V4c0-1.108-.892-2-2-2h-2c0-.554-.446-1-1-1z" opacity=".7"/><rect width="10" height="11" x="3" y="3" ry="1" rx="1" fill="#ccc"/><path fill="#fff" d="M7 2h2v1H7z"/><path fill="#fff" fill-rule="evenodd" d="M6 3h4v1H6z"/><path d="M8.5 5C7.119 5 6 6.138 6 7.4V8h1v-.6C7 6.74 7.529 6 8.6 6c1.074 0 1.4.55 1.4 1 0 1.212-2 1.737-2 3h1c0-.495 2-1.47 2-3 0-1.326-1-2-2.5-2zM8 11v1h1v-1z" fill="#232629"/></svg>