<svg xmlns="http://www.w3.org/2000/svg" viewBox="0 0 16 16">/&gt;<path d="M5 1c-.554 0-1 .446-1 1H3c-1.108 0-2 .892-2 2v7c0 1.108.892 2 2 2h6c1.106 0 2-.89 2-2V4c0-1.108-.892-2-2-2H8c0-.554-.446-1-1-1z" opacity=".7"/><rect width="8" height="9" x="2" y="3" ry="1" rx="1" fill="#ccc"/><path fill="#ccc" d="M5 2h2v2H5z"/><path fill="#fff" d="M4 3h4v1H4zM5 2h2v1H5z"/><rect width="10" height="11" x="5" y="4" ry="2" rx="2" opacity=".2"/><rect width="10" height="11" x="5" y="4" ry="2" rx="2" opacity=".7"/><rect width="8" height="9" x="6" y="5" ry="1" rx="1" fill="#fff"/><path fill="#a7a7f1" d="M7 7h6v1H7zM7 9h6v1H7zM7 11h3v1H7z"/></svg>