<svg xmlns="http://www.w3.org/2000/svg" viewBox="0 0 16 16"><rect width="1" height="3" x="3" y="9" ry="0" rx="0" fill="#88a05d" fill-rule="evenodd"/><rect width="1" height="3" x="3" y="2" ry="0" rx="0" fill="#88a05d" fill-rule="evenodd"/><rect width="1" height="3" x="1" y="9" ry="0" rx="0" fill="#88a05d" fill-rule="evenodd"/><path fill="#232629" fill-rule="evenodd" d="M6 7h7V6H6z"/><path fill="#fff" fill-rule="evenodd" d="M6 8h7V7H6zM6 6h5V5H6z"/><path fill="#232629" fill-rule="evenodd" d="M6 5h5V4H6z"/><path fill="#fff" fill-rule="evenodd" d="M6 4h9V3H6z"/><path fill="#232629" fill-rule="evenodd" d="M6 3h9V2H6zM6 14h7v-1H6z"/><path fill="#fff" fill-rule="evenodd" d="M6 15h7v-1H6zM6 13h5v-1H6z"/><path fill="#232629" fill-rule="evenodd" d="M6 12h5v-1H6z"/><path fill="#fff" fill-rule="evenodd" d="M6 11h9v-1H6z"/><path fill="#232629" fill-rule="evenodd" d="M6 10h9V9H6z"/><path fill="#88a05d" fill-rule="evenodd" d="M2 2h3v1H2zM2 5h3v1H2zM0 9h5v1H0zM0 12h5v1H0z"/></svg>