<svg xmlns="http://www.w3.org/2000/svg" viewBox="0 0 16 16">/&gt;<path d="M4 0c-.554 0-1 .446-1 1H2C.892 1 0 1.892 0 3v7c0 1.108.892 2 2 2h6c1.106 0 2-.89 2-2V3c0-1.108-.892-2-2-2H7c0-.554-.446-1-1-1z" opacity=".7"/><rect width="8" height="9" x="1" y="2" ry="1" rx="1" fill="#ccc"/><path fill="#ccc" d="M4 1h2v2H4z"/><path fill="#fff" d="M3 2h4v1H3zM4 1h2v1H4z"/><path d="M6 3c-1.108 0-2 .892-2 2v7c0 1.108.892 2 2 2h2.057l-.596-1.496 5.531-4.664.012 4.129c.37-.006.779-.009.934-.028.004-.03 0 .016.023-.27.03-.355.037-.96.039-1.689V5c0-1.108-.892-2-2-2z" opacity=".7"/><path d="M6 4c-.554 0-1 .446-1 1v7c0 .554.446 1 1 1h2.059l4.933-4.16.008 2.086V5c0-.554-.446-1-1-1H6z" fill="#fff"/><path fill="#a7a7f1" d="M6 6h6v1H6zM6 8h6v1H6zM6 10h3v1H6z"/><path d="M15 9.984c-.002.733-.007 1.346-.043 1.772-.044.526-.139.806-.23.928-.092.122-.207.19-.565.244-.358.053-.91.056-1.66.056h-.494l-.008-2L9.018 13.5l3 2.5-.008-2.016h.492c.75 0 1.323.004 1.809-.068.485-.072.933-.253 1.216-.63.284-.379.376-.849.426-1.448.04-.486.046-1.115.047-1.854h-1z" fill="#88a05d"/></svg>