<svg xmlns="http://www.w3.org/2000/svg" viewBox="0 0 16 16"><rect width="3" height="3" x="5" y="9" ry="1.5" rx="1.5" fill="#88a05d" fill-rule="evenodd"/><path fill="#232629" fill-rule="evenodd" d="M7 7h7V6H7z"/><path fill="#fff" fill-rule="evenodd" d="M7 8h7V7H7zM7 6h5V5H7z"/><path fill="#232629" fill-rule="evenodd" d="M7 5h5V4H7z"/><path fill="#fff" fill-rule="evenodd" d="M7 4h9V3H7z"/><path fill="#232629" fill-rule="evenodd" d="M7 3h9V2H7zM10 14h5v-1h-5z"/><path fill="#fff" fill-rule="evenodd" d="M10 15h5v-1h-5zM10 13h4v-1h-4z"/><path fill="#232629" fill-rule="evenodd" d="M10 12h4v-1h-4z"/><path fill="#fff" fill-rule="evenodd" d="M10 11h6v-1h-6z"/><path fill="#232629" fill-rule="evenodd" d="M10 10h6V9h-6z"/><rect width="1" height="3" x="3" y="2" ry="0" rx="0" fill="#88a05d" fill-rule="evenodd"/><rect width="1" height="3" x="1" y="2" ry="0" rx="0" fill="#88a05d" fill-rule="evenodd"/><path fill="#88a05d" fill-rule="evenodd" d="M0 2h5v1H0zM0 5h5v1H0z"/></svg>