<svg xmlns="http://www.w3.org/2000/svg" xmlns:xlink="http://www.w3.org/1999/xlink" viewBox="0 0 16 16"><defs><linearGradient xlink:href="#a" id="b" x1="11.339" y1="13.39" x2="11.339" y2="9.39" gradientUnits="userSpaceOnUse" gradientTransform="translate(-8.339 -2.39)"/><linearGradient id="a"><stop style="stop-color:red;stop-opacity:1" offset="0"/><stop style="stop-color:#000;stop-opacity:0" offset="1"/></linearGradient><linearGradient xlink:href="#a" id="c" gradientUnits="userSpaceOnUse" x1="11.339" y1="12.39" x2="11.339" y2="14.39" gradientTransform="rotate(180 4.17 1.195)"/></defs><path style="fill:#fff;stroke:#000;stroke-width:2;opacity:.7" d="M6 2C4 2 3 2 3 4v8c0 2 1 2 3 2h4c2 0 3 0 3-2V4c0-2-1-2-3-2H6z"/><path style="fill:#fff" d="M6 2C4 2 3 2 3 4v8c0 2 1 2 3 2h4c2 0 3 0 3-2V4c0-2-1-2-3-2H6z"/><path style="display:inline;opacity:1;vector-effect:none;fill:red;fill-opacity:1;stroke:none;stroke-width:2;stroke-linecap:butt;stroke-linejoin:miter;stroke-miterlimit:4;stroke-dasharray:none;stroke-dashoffset:0;stroke-opacity:1;marker:none;enable-background:new" d="M3 9h10v1H3z"/><path style="opacity:.71;fill:url(#b);fill-opacity:1;fill-rule:evenodd;stroke:none;stroke-width:2;stroke-linecap:round;stroke-linejoin:round" d="M3 7h10v4H3z"/><path style="opacity:.71;fill:url(#c);fill-opacity:1;fill-rule:evenodd;stroke:none;stroke-width:2;stroke-linecap:round;stroke-linejoin:round" transform="scale(-1)" d="M-13-12h10v2h-10z"/><path style="fill:#000;opacity:.4" d="M3 10v2c0 2 1 2 3 2h4c2 0 3 0 3-2v-2H3z"/><g style="color:#bebebe;display:inline;fill:#1463a5;stroke-width:2.6;enable-background:new"><path word-spacing="0" style="font-weight:400;font-size:17.833px;line-height:125%;font-family:'DejaVu Serif';-inkscape-font-specification:'DejaVu Serif';letter-spacing:0;word-spacing:0;overflow:visible;fill:#5d5d5d;fill-opacity:1;stroke-width:2.6;marker:none" overflow="visible" letter-spacing="0" font-weight="400" font-size="17.833" d="m599.875 119-4.625 12h-1.156v1h3.593v-1h-1.343l1.093-3h5.469l1.063 3h-1.282v1h4.594v-1H606l-4.656-12zm.281 2.094 2.406 5.906h-4.781z" transform="matrix(.38462 0 0 .38462 -224.498 -42.77)"/></g><path style="opacity:1;fill:#c8c4b7;fill-opacity:.996078;fill-rule:evenodd;stroke:none;stroke-width:2;stroke-linecap:round;stroke-linejoin:round" d="M8 3h4v1H8zM9 5h3v1H9zM10 7h2v1h-2z"/></svg>