<svg xmlns="http://www.w3.org/2000/svg" xmlns:xlink="http://www.w3.org/1999/xlink" viewBox="0 0 16 16"><defs><linearGradient xlink:href="#a" id="b" x1="8" y1="2" x2="8" y2="13.5" gradientUnits="userSpaceOnUse" gradientTransform="translate(.098)"/><linearGradient id="a"><stop offset="0" stop-color="#151515"/><stop offset="1" stop-color="#4d4d4d"/></linearGradient></defs><path style="line-height:normal;font-variant-ligatures:normal;font-variant-position:normal;font-variant-caps:normal;font-variant-numeric:normal;font-variant-alternates:normal;font-variant-east-asian:normal;font-feature-settings:normal;font-variation-settings:normal;text-indent:0;text-align:start;text-decoration-line:none;text-decoration-style:solid;text-decoration-color:#000;text-transform:none;text-orientation:mixed;white-space:normal;shape-padding:0;shape-margin:0;inline-size:0;isolation:auto;mix-blend-mode:normal;solid-color:#000;solid-opacity:1" d="M7 2L2.187 12.586l1.82.828L5.562 10h5.074l1.553 3.414 1.82-.828L9.195 2H8.098zm1.098 2.416L9.727 8H6.469z" color="#000" font-weight="400" font-family="sans-serif" overflow="visible" fill="none" stroke="#fff" stroke-width="2" stroke-linejoin="round"/><path style="line-height:normal;font-variant-ligatures:normal;font-variant-position:normal;font-variant-caps:normal;font-variant-numeric:normal;font-variant-alternates:normal;font-variant-east-asian:normal;font-feature-settings:normal;font-variation-settings:normal;text-indent:0;text-align:start;text-decoration-line:none;text-decoration-style:solid;text-decoration-color:#000;text-transform:none;text-orientation:mixed;white-space:normal;shape-padding:0;shape-margin:0;inline-size:0;isolation:auto;mix-blend-mode:normal;solid-color:#000;solid-opacity:1" d="M7 2L2.187 12.586l1.82.828L5.562 10h5.074l1.553 3.414 1.82-.828L9.195 2H8.098zm1.098 2.416L9.727 8H6.469z" color="#000" font-weight="400" font-family="sans-serif" overflow="visible" fill="url(#b)"/><path d="M13.5 8.5a2 2 0 00-2 2 2 2 0 002 2v2h1v-6z" opacity=".7" stroke="#000" stroke-width="3" stroke-linejoin="round"/><path d="M13.5 8.5a2 2 0 00-2 2 2 2 0 002 2v2h1v-6z" fill="#aee3f8" stroke="#aee3f8"/></svg>