<svg xmlns="http://www.w3.org/2000/svg" xmlns:xlink="http://www.w3.org/1999/xlink" viewBox="0 0 16 16"><defs><linearGradient xlink:href="#a" id="b" x1="5" y1="2" x2="5" y2="14" gradientUnits="userSpaceOnUse" gradientTransform="translate(1)"/><linearGradient id="a"><stop style="stop-color:#151515;stop-opacity:1" offset="0"/><stop style="stop-color:#4d4d4d;stop-opacity:1" offset="1"/></linearGradient></defs>/&gt;<path style="opacity:1;fill:#000;stroke:#fff;stroke-width:2;stroke-linejoin:round;stroke-miterlimit:4;stroke-dasharray:none" d="m10.465 9.758-.707.707 1.414 1.414-1.414 1.414.707.707 1.414-1.414L13.293 14l.707-.707-1.414-1.414L14 10.465l-.707-.707-1.414 1.414z"/><path d="M8 2C5 2 4 3 4 6v1H3v2h1v5h2V9h2V7H6V6c0-1.499.504-2 2-2h1V2z" style="opacity:1;fill:#000;fill-opacity:1;stroke:#fff;stroke-width:2;stroke-linecap:round;stroke-linejoin:round;stroke-miterlimit:4;stroke-dasharray:none;stroke-opacity:1"/><path style="opacity:1;fill:url(#b);fill-opacity:1;stroke:none;stroke-width:2;stroke-linecap:round;stroke-linejoin:round;stroke-miterlimit:4;stroke-dasharray:none;stroke-opacity:1" d="M8 2C5 2 4 3 4 6v1H3v2h1v5h2V9h2V7H6V6c0-1.499.504-2 2-2h1V2zm2.465 7.758-.707.707 1.414 1.414-1.414 1.414.707.707 1.414-1.414L13.293 14l.707-.707-1.414-1.414L14 10.465l-.707-.707-1.414 1.414z"/></svg>