<svg xmlns="http://www.w3.org/2000/svg" viewBox="0 0 16 16">/&gt;<path d="M3 1a1.989 1.989 0 00-2 2v11h14V3c0-1.108-.892-2-2-2z" opacity=".6" fill-rule="evenodd"/><path d="M2 6h12v7H2zM3 2c-.554 0-1 .446-1 1v2h12V3c0-.554-.446-1-1-1z" fill="#fff" fill-rule="evenodd"/><path d="M12 3h1v1h-1z" fill="#e95420" fill-rule="evenodd"/><path d="M10 3h1v1h-1zM8 3h1v1H8z" fill="#232629" fill-rule="evenodd"/><path d="M3 15l12-6v6z" opacity=".7" stroke="#000" stroke-width="2" stroke-linejoin="round"/><path d="M3 15l12-6v6z" fill="#fff"/></svg>