<svg xmlns="http://www.w3.org/2000/svg" xmlns:xlink="http://www.w3.org/1999/xlink" viewBox="0 0 16 16"><defs><linearGradient xlink:href="#a" id="b" x1="8" y1="2" x2="8" y2="13.5" gradientUnits="userSpaceOnUse" gradientTransform="translate(-1 -1)"/><linearGradient id="a"><stop offset="0" stop-color="#151515"/><stop offset="1" stop-color="#4d4d4d"/></linearGradient></defs>/&gt;<path style="line-height:normal;font-variant-ligatures:normal;font-variant-position:normal;font-variant-caps:normal;font-variant-numeric:normal;font-variant-alternates:normal;font-variant-east-asian:normal;font-feature-settings:normal;font-variation-settings:normal;text-indent:0;text-align:start;text-decoration-line:none;text-decoration-style:solid;text-decoration-color:#000;text-transform:none;text-orientation:mixed;white-space:normal;shape-padding:0;shape-margin:0;inline-size:0;isolation:auto;mix-blend-mode:normal;solid-color:#000;solid-opacity:1" d="M5.902 0a1 1 0 00-.91.586L.18 11.172a1 1 0 00.496 1.324l1.82.828a1 1 0 001.324-.496L5.107 10h3.786l.455 1H12V7.168L9.008.586A1 1 0 008.098 0H7zm.645 2h.906l.442.969a1 1 0 00-1.797.015zM7 5.832L7.076 6h-.152zm-2.543.764A1 1 0 005.371 8h-.908a1 1 0 00-.889.541zm5.107.049l.883 1.94A1 1 0 009.537 8H8.63a1 1 0 00.935-1.355z" color="#000" font-weight="400" font-family="sans-serif" overflow="visible" fill="#fff"/><path style="line-height:normal;font-variant-ligatures:normal;font-variant-position:normal;font-variant-caps:normal;font-variant-numeric:normal;font-variant-alternates:normal;font-variant-east-asian:normal;font-feature-settings:normal;font-variation-settings:normal;text-indent:0;text-align:start;text-decoration-line:none;text-decoration-style:solid;text-decoration-color:#000;text-transform:none;text-orientation:mixed;white-space:normal;shape-padding:0;shape-margin:0;inline-size:0;isolation:auto;mix-blend-mode:normal;solid-color:#000;solid-opacity:1" d="M5.902 1L1.09 11.586l1.82.828L4.463 9h5.074l.91 2H12V9.584L8.098 1H5.902zM7 3.416L8.629 7H5.37L7 3.416z" color="#000" font-weight="400" font-family="sans-serif" overflow="visible" fill="url(#b)"/><path d="M13.5 16L11 12h2V8h1v4h2z" fill="#88a05d"/></svg>