<svg xmlns="http://www.w3.org/2000/svg" xmlns:xlink="http://www.w3.org/1999/xlink" viewBox="0 0 16 16"><defs><linearGradient id="a"><stop style="stop-color:#151515;stop-opacity:1" offset="0"/><stop style="stop-color:#4d4d4d;stop-opacity:1" offset="1"/></linearGradient><linearGradient xlink:href="#a" id="b" x1="8" y1="2" x2="8" y2="15" gradientUnits="userSpaceOnUse"/></defs>/&gt;<path style="fill:#000;fill-opacity:1;stroke:#fff;opacity:1;stroke-width:2;stroke-miterlimit:4;stroke-dasharray:none;stroke-linejoin:round" d="M4 2v8c0 1.657 1.567 3 3.5 3h1c1.933 0 3.5-1.343 3.5-3V2h-2v7a2 2 0 1 1-4 0V2H4zM2 14v1h12v-1H2z"/><path style="fill:url(#b);fill-opacity:1" d="M4 2v8c0 1.657 1.567 3 3.5 3h1c1.933 0 3.5-1.343 3.5-3V2h-2v7a2 2 0 1 1-4 0V2H4zM2 14v1h12v-1H2z"/></svg>