<svg xmlns="http://www.w3.org/2000/svg" viewBox="0 0 16 16"><path d="M4.995 1c-1.259.014-2.18-.03-2.932.385a1.88 1.88 0 00-.838.998C1.06 2.82 1 3.343 1 4v8c0 .658.06 1.179.225 1.617.165.439.462.789.838.996.753.415 1.674.372 2.932.387H11.005c1.259-.015 2.18.03 2.932-.385a1.88 1.88 0 00.838-.998c.164-.438.225-.96.225-1.617V4c0-.658-.06-1.179-.225-1.617a1.875 1.875 0 00-.838-.996c-.753-.415-1.674-.372-2.932-.387H4.998z" style="line-height:125%;-inkscape-font-specification:Ubuntu;text-align:center" font-weight="400" font-size="15" font-family="Ubuntu" letter-spacing="0" word-spacing="0" text-anchor="middle" opacity=".7"/><path d="M5.983 2.027c-1.557.011-1.11-.012-2.66.039-.46.043-1.015.206-1.154.71-.22.635-.109 1.334-.146 1.982-.008 2.297-.023 5.596.021 7.885.04.462.203 1.013.699 1.164.632.225 1.284.122 1.936.154 1.424.007.85.011 2.275.011 1.705 0 3.409-.005 5.108-.018.512-.012 1.183.02 1.584-.405.421-.54.287-1.268.323-1.904.012-2.444.028-5.91-.022-8.356-.05-.402-.17-.863-.575-1.045-.668-.294-1.426-.168-2.126-.205a715.83 715.83 0 00-5.263-.012z" fill="#fff"/><path d="M7.965 3a5 5 0 00-3.5 1.465 5 5 0 00-1.084 5.45A5 5 0 008 13c.941 0 1.875-.008 2.607-.217l-.552-.957C9.398 11.994 8.55 12 8 12a4 4 0 01-3.695-2.469 4 4 0 01.867-4.36 4 4 0 014.36-.866A4 4 0 0112 8c0 1-1 1-2 1V6H9v.271A2 2 0 008 6a2 2 0 00-2 2 2 2 0 002 2 2 2 0 001-.27V10h1c2 0 3 0 3-2a5 5 0 00-3.086-4.62A5 5 0 007.964 3zM8 7a1 1 0 011 1 1 1 0 01-1 1 1 1 0 01-1-1 1 1 0 011-1z" fill-rule="evenodd"/><path d="M7.965 3a5 5 0 00-3.5 1.465 5 5 0 00-1.084 5.45A5 5 0 008 13c.941 0 1.875-.008 2.607-.217l-.552-.957C9.398 11.994 8.55 12 8 12a4 4 0 01-3.695-2.469 4 4 0 01.867-4.36 4 4 0 014.36-.866A4 4 0 0112 8c0 1-1 1-2 1V6H9v.271A2 2 0 008 6a2 2 0 00-2 2 2 2 0 002 2 2 2 0 001-.27V10h1c2 0 3 0 3-2a5 5 0 00-3.086-4.62A5 5 0 007.964 3zM8 7a1 1 0 011 1 1 1 0 01-1 1 1 1 0 01-1-1 1 1 0 011-1z" fill="#1a7fd4" fill-rule="evenodd"/></svg>