<svg xmlns="http://www.w3.org/2000/svg" viewBox="0 0 16 16"><path style="opacity:.7;fill:#000;fill-opacity:1;stroke:#000;stroke-width:2;stroke-linejoin:round;stroke-miterlimit:4;stroke-dasharray:none" d="M11.465 4 8 7.5l3.465 3.5L15 7.5z"/><path d="M11.465 4 8 7.5l3.465 3.5L15 7.5z" style="fill:#d85eca;fill-opacity:1;stroke-width:.75"/><path style="fill:#232629;fill-opacity:1;fill-rule:evenodd;stroke-width:2;stroke-linecap:round;stroke-linejoin:round" d="M1 1h14v1H1z"/><path style="fill:#fff;fill-opacity:1;fill-rule:evenodd;stroke-width:2;stroke-linecap:round;stroke-linejoin:round" d="M2 2h12v1H2z"/><path style="fill:#232629;fill-rule:evenodd;stroke-width:2;stroke-linecap:round;stroke-linejoin:round;fill-opacity:1" d="M1 3h8v1H1z"/><path style="fill:#fff;fill-rule:evenodd;stroke-width:2;stroke-linecap:round;stroke-linejoin:round" d="M2 4h7v1H2z"/><path style="fill:#232629;fill-rule:evenodd;stroke-width:2;stroke-linecap:round;stroke-linejoin:round;fill-opacity:1" d="M1 5h6v1H1z"/><path style="fill:#fff;fill-rule:evenodd;stroke-width:2;stroke-linecap:round;stroke-linejoin:round" d="M2 6h5v1H2z"/><path style="fill:#232629;fill-rule:evenodd;stroke-width:2;stroke-linecap:round;stroke-linejoin:round;fill-opacity:1" d="M1 7h5v1H1z"/><path style="fill:#232629;fill-opacity:1;fill-rule:evenodd;stroke-width:2;stroke-linecap:round;stroke-linejoin:round" transform="scale(1 -1)" d="M1-14h14v1H1z"/><path style="fill:#fff;fill-opacity:1;fill-rule:evenodd;stroke-width:2;stroke-linecap:round;stroke-linejoin:round" transform="scale(1 -1)" d="M2-13h12v1H2z"/><path style="fill:#232629;fill-opacity:1;fill-rule:evenodd;stroke-width:2;stroke-linecap:round;stroke-linejoin:round" transform="scale(1 -1)" d="M1-12h8v1H1z"/><path style="fill:#fff;fill-opacity:1;fill-rule:evenodd;stroke-width:2;stroke-linecap:round;stroke-linejoin:round" transform="scale(1 -1)" d="M2-11h7v1H2z"/><path style="fill:#232629;fill-opacity:1;fill-rule:evenodd;stroke-width:2;stroke-linecap:round;stroke-linejoin:round" transform="scale(1 -1)" d="M1-10h6v1H1z"/><path style="fill:#fff;fill-opacity:1;fill-rule:evenodd;stroke-width:2;stroke-linecap:round;stroke-linejoin:round" d="M2 8h5v1H2z"/></svg>