<svg xmlns="http://www.w3.org/2000/svg" viewBox="0 0 16 16">/&gt;<path style="line-height:normal;font-variant-ligatures:normal;font-variant-position:normal;font-variant-caps:normal;font-variant-numeric:normal;font-variant-alternates:normal;font-feature-settings:normal;text-indent:0;text-align:start;text-decoration-line:none;text-decoration-style:solid;text-decoration-color:#000;text-transform:none;text-orientation:mixed;white-space:normal;shape-padding:0;isolation:auto;mix-blend-mode:normal;solid-color:#000;solid-opacity:1" d="M9 1.162V4H5v2.805L1.629 4.697a6.5 6.5 0 001.275 7.385 6.5 6.5 0 008.002.932l1.543 1.543a1 1 0 001.414 0l.707-.707a1 1 0 000-1.414l-1.543-1.543a6.5 6.5 0 00-.931-8.002A6.5 6.5 0 009 1.162z" color="#000" font-weight="400" font-family="sans-serif" overflow="visible" opacity=".7"/><path d="M9 2.195V4H5v2.805L2.484 5.232a5.5 5.5 0 001.127 6.143 5.5 5.5 0 007.407.336l2.138 2.139.707-.707-2.14-2.141a5.5 5.5 0 00-.334-7.404A5.5 5.5 0 009 2.195z" fill="#fff"/><path d="M0 2.5L4 0v2h4v1H4v2z" fill="#e95420"/></svg>