<svg xmlns="http://www.w3.org/2000/svg" xmlns:xlink="http://www.w3.org/1999/xlink" viewBox="0 0 16 16"><defs><linearGradient id="a"><stop style="stop-color:#151515;stop-opacity:1" offset="0"/><stop style="stop-color:#4d4d4d;stop-opacity:1" offset="1"/></linearGradient><linearGradient xlink:href="#a" id="b" x1="8" y1="2" x2="8" y2="14" gradientUnits="userSpaceOnUse"/></defs><path style="opacity:1;fill:#000;stroke:#fff;stroke-width:2;stroke-linejoin:round;stroke-miterlimit:4;stroke-dasharray:none" d="m1 2 2.015 4.424c.165.314.333.566.506.76.172.193.379.346.623.459-.337.12-.614.3-.829.533a3.368 3.368 0 0 0-.558.869L1 14h1.413c.244 0 .456-.02.635-.06.18-.04.332-.102.46-.182a1.45 1.45 0 0 0 .356-.326c.1-.137.19-.294.27-.471L5.38 9.734c.115-.29.27-.503.463-.64s.556-.205.806-.205V14h2.647V8.889c.25 0 .646.068.84.205.2.137.355.347.463.629l1.257 3.25c.158.354.363.616.614.785.25.16.613.242 1.086.242H15l-1.769-4.955a3.205 3.205 0 0 0-.568-.87 1.957 1.957 0 0 0-.818-.532c.243-.113.453-.266.625-.46.172-.193.339-.445.504-.76L15 2h-1.962c-.25 0-.48.072-.687.217a1.56 1.56 0 0 0-.485.594L10.36 6.17c-.107.25-.243.434-.408.555-.165.112-.384.17-.656.17V2H6.649v4.895c-.272 0-.484-.058-.634-.17-.15-.121-.282-.305-.397-.555L4.122 2.797a1.421 1.421 0 0 0-.494-.58A1.129 1.129 0 0 0 2.95 2z"/><path d="m1 2 2.015 4.424c.165.314.333.566.506.76.172.193.379.346.623.459-.337.12-.614.3-.829.533a3.368 3.368 0 0 0-.558.869L1 14h1.413c.244 0 .456-.02.635-.06.18-.04.332-.102.46-.182a1.45 1.45 0 0 0 .356-.326c.1-.137.19-.294.27-.471L5.38 9.734c.115-.29.27-.503.463-.64s.556-.205.806-.205V14h2.647V8.889c.25 0 .646.068.84.205.2.137.355.347.463.629l1.257 3.25c.158.354.363.616.614.785.25.16.613.242 1.086.242H15l-1.769-4.955a3.205 3.205 0 0 0-.568-.87 1.957 1.957 0 0 0-.818-.532c.243-.113.453-.266.625-.46.172-.193.339-.445.504-.76L15 2h-1.962c-.25 0-.48.072-.687.217a1.56 1.56 0 0 0-.485.594L10.36 6.17c-.107.25-.243.434-.408.555-.165.112-.384.17-.656.17V2H6.649v4.895c-.272 0-.484-.058-.634-.17-.15-.121-.282-.305-.397-.555L4.122 2.797a1.421 1.421 0 0 0-.494-.58A1.129 1.129 0 0 0 2.95 2z" style="fill:url(#b);fill-opacity:1"/></svg>