<?xml version="1.0" encoding="UTF-8" standalone="no"?>
<svg
   xmlns:dc="http://purl.org/dc/elements/1.1/"
   xmlns:cc="http://creativecommons.org/ns#"
   xmlns:rdf="http://www.w3.org/1999/02/22-rdf-syntax-ns#"
   xmlns:svg="http://www.w3.org/2000/svg"
   xmlns="http://www.w3.org/2000/svg"
   xmlns:sodipodi="http://sodipodi.sourceforge.net/DTD/sodipodi-0.dtd"
   xmlns:inkscape="http://www.inkscape.org/namespaces/inkscape"
   viewBox="0 0 16 16"
   version="1.1"
   id="svg10"
   sodipodi:docname="light.svg"
   inkscape:version="1.0.1 (3bc2e813f5, 2020-09-07)"><metadata
   id="metadata16">
  <rdf:RDF>
    <cc:Work
       rdf:about="">
      <dc:format>image/svg+xml</dc:format>
      <dc:type
         rdf:resource="http://purl.org/dc/dcmitype/StillImage" />
    </cc:Work>
  </rdf:RDF>
</metadata>
<defs
   id="defs14" />
<sodipodi:namedview
   pagecolor="#ffffff"
   bordercolor="#666666"
   borderopacity="1"
   objecttolerance="10"
   gridtolerance="10"
   guidetolerance="10"
   inkscape:pageopacity="0"
   inkscape:pageshadow="2"
   inkscape:window-width="1920"
   inkscape:window-height="1011"
   id="namedview12"
   showgrid="false"
   inkscape:zoom="35.708892"
   inkscape:cx="7.2779535"
   inkscape:cy="7.9409698"
   inkscape:window-x="0"
   inkscape:window-y="0"
   inkscape:window-maximized="1"
   inkscape:current-layer="svg10" />


/&amp;amp;gt;<path
   d="m 3.050252,11.535534 1.4142136,-1.414214 1.4142135,1.414214 -1.4142135,1.414213 z m 7.071068,0 1.414214,-1.414214 1.414213,1.414214 -1.414213,1.414213 z m 0,-7.071068 1.414214,-1.4142136 1.414213,1.4142136 -1.414213,1.4142135 z m -7.0710678,2e-7 L 4.4644658,3.0502526 5.8786793,4.4644662 4.4644658,5.8786797 Z M 1.9999998,7.0000002 H 3.9999999 V 8.9999998 H 1.9999998 Z M 7.0000002,12 h 1.999999 l 1e-6,2 H 6.9999992 Z M 12,7.0000003 l 2,-4e-7 V 8.9999998 H 12 Z M 7.0000002,2.0000002 h 2 v 2.0000001 h -2 z M 11,8.0000004 A 3,3 0 0 1 8.0000002,11 3,3 0 0 1 4.9999999,8.0000002 3,3 0 0 1 8.0000002,5.0000003 3,3 0 0 1 11,8.0000004 Z"
   style="opacity:0.7;fill:#000000;fill-opacity:1;stroke:#000000;stroke-width:2;stroke-linejoin:round;stroke-miterlimit:4;stroke-dasharray:none;stroke-opacity:1"
   id="path879" />
<path
   id="rect867"
   style="opacity:1;fill:#e6e6e6;fill-opacity:1;stroke:none;stroke-width:2;stroke-linejoin:round;stroke-miterlimit:4;stroke-dasharray:none;stroke-opacity:1"
   d="m 3.050252,11.535534 1.4142136,-1.414214 1.4142135,1.414214 -1.4142135,1.414213 z m 7.071068,0 1.414214,-1.414214 1.414213,1.414214 -1.414213,1.414213 z m 0,-7.071068 1.414214,-1.4142136 1.414213,1.4142136 -1.414213,1.4142135 z m -7.0710678,2e-7 L 4.4644658,3.0502526 5.8786793,4.4644662 4.4644658,5.8786797 Z M 1.9999998,7.0000002 H 3.9999999 V 8.9999998 H 1.9999998 Z M 7.0000002,12 h 1.999999 l 1e-6,2 H 6.9999992 Z M 12,7.0000003 l 2,-4e-7 V 8.9999998 H 12 Z M 7.0000002,2.0000002 h 2 v 2.0000001 h -2 z M 11,8.0000004 A 3,3 0 0 1 8.0000002,11 3,3 0 0 1 4.9999999,8.0000002 3,3 0 0 1 8.0000002,5.0000003 3,3 0 0 1 11,8.0000004 Z" />
</svg>
