<?xml version="1.0" encoding="UTF-8" standalone="no"?>
<svg
   height="15"
   width="15"
   version="1.1"
   id="svg24"
   sodipodi:docname="pr013.svg"
   inkscape:version="1.4.2 (ebf0e940d0, 2025-05-08)"
   xmlns:inkscape="http://www.inkscape.org/namespaces/inkscape"
   xmlns:sodipodi="http://sodipodi.sourceforge.net/DTD/sodipodi-0.dtd"
   xmlns="http://www.w3.org/2000/svg"
   xmlns:svg="http://www.w3.org/2000/svg"
   xmlns:rdf="http://www.w3.org/1999/02/22-rdf-syntax-ns#"
   xmlns:cc="http://creativecommons.org/ns#"
   xmlns:dc="http://purl.org/dc/elements/1.1/">
  <metadata
     id="metadata30">
    <rdf:RDF>
      <cc:Work
         rdf:about="">
        <dc:format>image/svg+xml</dc:format>
        <dc:type
           rdf:resource="http://purl.org/dc/dcmitype/StillImage" />
      </cc:Work>
    </rdf:RDF>
  </metadata>
  <defs
     id="defs28" />
  <sodipodi:namedview
     pagecolor="#ffffff"
     bordercolor="#666666"
     borderopacity="1"
     objecttolerance="10"
     gridtolerance="10"
     guidetolerance="10"
     inkscape:pageopacity="0"
     inkscape:pageshadow="2"
     inkscape:window-width="1920"
     inkscape:window-height="1011"
     id="namedview26"
     showgrid="true"
     inkscape:zoom="26.933333"
     inkscape:cx="5.9220298"
     inkscape:cy="8.22401"
     inkscape:window-x="0"
     inkscape:window-y="0"
     inkscape:window-maximized="1"
     inkscape:current-layer="svg24"
     inkscape:document-rotation="0"
     inkscape:showpageshadow="2"
     inkscape:pagecheckerboard="0"
     inkscape:deskcolor="#d1d1d1">
    <inkscape:grid
       type="xygrid"
       id="grid850"
       originx="0"
       originy="0"
       spacingy="1"
       spacingx="1"
       units="px" />
  </sodipodi:namedview>
  <path
     d="m 1,1.0000001 v 1 h 1.000001 v -1 z m 2.000001,0 v 1 H 5 v -1 z m 2.999999,0 v 1 h 2 v -1 z m 3,0 v 1 h 2 v -1 z m 3,0 v 1 h 1 1 v -1 h -1 z m -11,2 v 2 h 1.000001 v -2 z m 12,0 v 2 h 1 v -2 z m -12,3 v 2 h 1.000001 v -2 z m 12,0 v 2 h 1 v -2 z m -12,3 V 11 H 2.000001 V 9.0000001 Z m 12,0 V 11 h 1 V 9.0000001 Z M 1,12 v 2 h 1.000001 v -2 z m 12,0 v 1 h -1 v 1 h 1 1 v -2 z m -9.999999,1 v 1 h 2 v -1 z m 3,0 v 1 h 2 v -1 z m 3,0 v 1 H 11 v -1 z"
     style="opacity:0.8;fill:#808080;fill-opacity:1;opacity:0.8"
     id="path4-5" />
  <path
     id="rect933"
     style="fill:#00ff00;fill-opacity:1;fill-rule:evenodd;stroke:none;stroke-width:2;stroke-linecap:round;stroke-linejoin:round"
     d="m 1,1.0000001 v 1 V 13 14 H 2 14 V 13 1.0000001 H 2 Z m 1,1 H 13 V 13 H 2 Z" />
  <path
     id="rect873"
     style="opacity:0.5;fill:#0000ff;fill-opacity:1;fill-rule:evenodd;stroke:none;stroke-width:2;stroke-linecap:round;stroke-linejoin:round"
     d="M 7 3 L 7 5 L 8 5 L 8 3 L 7 3 z M 7 6 L 7 8 L 8 8 L 8 6 L 7 6 z M 7 9 L 7 11 L 8 11 L 8 9 L 7 9 z M 7 12 L 7 13 L 8 13 L 8 12 L 7 12 z " />
</svg>
