<?xml version="1.0" encoding="UTF-8" standalone="no"?>
<svg
   height="15"
   width="15"
   version="1.1"
   id="svg14"
   sodipodi:docname="pr01.svg"
   inkscape:version="1.4.2 (ebf0e940d0, 2025-05-08)"
   xmlns:inkscape="http://www.inkscape.org/namespaces/inkscape"
   xmlns:sodipodi="http://sodipodi.sourceforge.net/DTD/sodipodi-0.dtd"
   xmlns="http://www.w3.org/2000/svg"
   xmlns:svg="http://www.w3.org/2000/svg"
   xmlns:rdf="http://www.w3.org/1999/02/22-rdf-syntax-ns#"
   xmlns:cc="http://creativecommons.org/ns#"
   xmlns:dc="http://purl.org/dc/elements/1.1/">
  <metadata
     id="metadata20">
    <rdf:RDF>
      <cc:Work
         rdf:about="">
        <dc:format>image/svg+xml</dc:format>
        <dc:type
           rdf:resource="http://purl.org/dc/dcmitype/StillImage" />
      </cc:Work>
    </rdf:RDF>
  </metadata>
  <defs
     id="defs18" />
  <sodipodi:namedview
     pagecolor="#ffffff"
     bordercolor="#666666"
     borderopacity="1"
     objecttolerance="10"
     gridtolerance="10"
     guidetolerance="10"
     inkscape:pageopacity="0"
     inkscape:pageshadow="2"
     inkscape:window-width="1920"
     inkscape:window-height="1011"
     id="namedview16"
     showgrid="false"
     inkscape:zoom="26.933333"
     inkscape:cx="8.1868813"
     inkscape:cy="7.2957922"
     inkscape:window-x="0"
     inkscape:window-y="0"
     inkscape:window-maximized="1"
     inkscape:current-layer="svg14"
     inkscape:document-rotation="0"
     inkscape:showpageshadow="2"
     inkscape:pagecheckerboard="0"
     inkscape:deskcolor="#d1d1d1" />
  <path
     d="M 1.0000001,1.0000001 V 2.0000002 H 2.0000002 V 1.0000001 Z m 2,0 V 2.0000002 H 5 V 1.0000001 Z M 6,1.0000001 V 2.0000002 H 8.0000002 V 1.0000001 Z m 3.0000002,0 V 2.0000002 H 11 V 1.0000001 Z m 2.9999998,0 v 1.0000001 h 1 1 V 1.0000001 H 13 Z M 1.0000001,3.0000002 V 5.0000001 H 2.0000002 V 3.0000002 Z m 11.9999999,0 v 1.9999999 h 1 V 3.0000002 Z M 1.0000001,6.0000001 V 8.0000002 H 2.0000002 V 6.0000001 Z m 11.9999999,0 v 2.0000001 h 1 V 6.0000001 Z M 1.0000001,8.9999999 V 11 H 2.0000002 V 8.9999999 Z M 13,8.9999999 V 11 h 1 V 8.9999999 Z M 1.0000001,12 v 2 H 2.0000002 V 12 Z M 13,12 v 1 h -1 v 1 h 1 1 v -2 z m -9.9999998,1 v 1 h 1.9999999 v -1 z m 2.9999999,0 v 1 h 2.0000001 v -1 z m 3.0000001,0 v 1 H 11 v -1 z"
     style="opacity:0.5;fill:#0000ff;fill-opacity:1"
     id="path4" />
</svg>
