<?xml version="1.0" encoding="UTF-8" standalone="no"?>
<svg
   height="15"
   width="15"
   version="1.1"
   id="svg26"
   sodipodi:docname="pr019.svg"
   inkscape:version="1.4.2 (ebf0e940d0, 2025-05-08)"
   xmlns:inkscape="http://www.inkscape.org/namespaces/inkscape"
   xmlns:sodipodi="http://sodipodi.sourceforge.net/DTD/sodipodi-0.dtd"
   xmlns="http://www.w3.org/2000/svg"
   xmlns:svg="http://www.w3.org/2000/svg"
   xmlns:rdf="http://www.w3.org/1999/02/22-rdf-syntax-ns#"
   xmlns:cc="http://creativecommons.org/ns#"
   xmlns:dc="http://purl.org/dc/elements/1.1/">
  <metadata
     id="metadata32">
    <rdf:RDF>
      <cc:Work
         rdf:about="">
        <dc:format>image/svg+xml</dc:format>
        <dc:type
           rdf:resource="http://purl.org/dc/dcmitype/StillImage" />
      </cc:Work>
    </rdf:RDF>
  </metadata>
  <defs
     id="defs30" />
  <sodipodi:namedview
     pagecolor="#ffffff"
     bordercolor="#666666"
     borderopacity="1"
     objecttolerance="10"
     gridtolerance="10"
     guidetolerance="10"
     inkscape:pageopacity="0"
     inkscape:pageshadow="2"
     inkscape:window-width="1920"
     inkscape:window-height="1011"
     id="namedview28"
     showgrid="false"
     inkscape:zoom="38.089485"
     inkscape:cx="6.4190944"
     inkscape:cy="10.09465"
     inkscape:window-x="0"
     inkscape:window-y="0"
     inkscape:window-maximized="1"
     inkscape:current-layer="svg26"
     inkscape:showpageshadow="2"
     inkscape:pagecheckerboard="0"
     inkscape:deskcolor="#d1d1d1" />
  <path
     d="M 0.99999986,1.0000002 V 2.0000003 H 1.9999998 V 1.0000002 Z m 1.99999984,0 v 1.0000001 h 2 V 1.0000002 Z m 3,0 v 1.0000001 h 2 V 1.0000002 Z m 3,0 V 2.0000003 H 11 V 1.0000002 Z m 3.0000003,0 v 1.0000001 h 1 1 V 1.0000002 H 13 Z M 0.99999986,3.0000003 V 5.0000002 H 1.9999998 V 3.0000003 Z M 13,3.0000003 v 1.9999999 h 1 V 3.0000003 Z M 0.99999986,5.9999998 v 2 H 1.9999998 v -2 z M 13,5.9999998 v 2 h 1 v -2 z M 0.99999986,9.0000008 V 11 H 1.9999998 V 9.0000008 Z M 13,9.0000008 V 11 h 1 V 9.0000008 Z M 0.99999986,12 v 2 H 1.9999998 V 12 Z M 13,12 v 1 h -1 v 1 h 1 1 V 12 Z M 2.9999997,13 v 1 h 2 v -1 z m 3,0 v 1 h 2 v -1 z m 3,0 v 1 H 11 v -1 z"
     style="opacity:0.8;fill:#808080;fill-opacity:1;opacity:0.8"
     id="path4" />
  <path
     id="rect865"
     style="opacity:0.5;fill:#0000ff;fill-opacity:1;fill-rule:evenodd;stroke:none;stroke-width:2;stroke-linecap:round;stroke-linejoin:round"
     d="M 7 3 L 7 5 L 8 5 L 8 3 L 7 3 z M 7 6 L 7 7 L 7 8 L 8 8 L 9 8 L 9 7 L 8 7 L 8 6 L 7 6 z M 7 9 L 7 11 L 8 11 L 8 9 L 7 9 z M 7 12 L 7 13 L 8 13 L 8 12 L 7 12 z " />
  <rect
     style="opacity:0.8;fill:#808080;fill-opacity:1;fill-rule:evenodd;stroke:none;stroke-width:2;stroke-linecap:round;stroke-linejoin:round"
     id="rect873"
     width="1"
     height="2"
     x="7"
     y="-11.999999"
     transform="rotate(90)" />
  <rect
     style="opacity:0.8;fill:#808080;fill-opacity:1;fill-rule:evenodd;stroke:none;stroke-width:2;stroke-linecap:round;stroke-linejoin:round"
     id="rect877"
     width="1"
     height="2"
     x="7"
     y="-6"
     transform="rotate(90)" />
  <rect
     style="opacity:0.8;fill:#808080;fill-opacity:1;fill-rule:evenodd;stroke:none;stroke-width:2;stroke-linecap:round;stroke-linejoin:round"
     id="rect879"
     width="1"
     height="1"
     x="7"
     y="-2.9999998"
     transform="rotate(90)" />
  <path
     id="rect880"
     style="fill:#00ff00;fill-opacity:1;fill-rule:evenodd;stroke:none;stroke-width:2;stroke-linecap:round;stroke-linejoin:round"
     d="M 1 1 L 1 2 L 1 7 L 1 8 L 1 13 L 1 14 L 2 14 L 13 14 L 14 14 L 14 13 L 14 1 L 1 1 z M 2 2 L 13 2 L 13 7 L 2 7 L 2 2 z M 2 8 L 13 8 L 13 13 L 2 13 L 2 8 z " />
</svg>
