<?xml version="1.0" encoding="UTF-8" standalone="no"?>
<svg
   xmlns:dc="http://purl.org/dc/elements/1.1/"
   xmlns:cc="http://creativecommons.org/ns#"
   xmlns:rdf="http://www.w3.org/1999/02/22-rdf-syntax-ns#"
   xmlns:svg="http://www.w3.org/2000/svg"
   xmlns="http://www.w3.org/2000/svg"
   xmlns:sodipodi="http://sodipodi.sourceforge.net/DTD/sodipodi-0.dtd"
   xmlns:inkscape="http://www.inkscape.org/namespaces/inkscape"
   height="15"
   width="15"
   version="1.1"
   id="svg14"
   sodipodi:docname="pr05.svg"
   inkscape:version="1.0.1 (3bc2e813f5, 2020-09-07)">
  <metadata
     id="metadata20">
    <rdf:RDF>
      <cc:Work
         rdf:about="">
        <dc:format>image/svg+xml</dc:format>
        <dc:type
           rdf:resource="http://purl.org/dc/dcmitype/StillImage" />
      </cc:Work>
    </rdf:RDF>
  </metadata>
  <defs
     id="defs18" />
  <sodipodi:namedview
     pagecolor="#ffffff"
     bordercolor="#666666"
     borderopacity="1"
     objecttolerance="10"
     gridtolerance="10"
     guidetolerance="10"
     inkscape:pageopacity="0"
     inkscape:pageshadow="2"
     inkscape:window-width="1920"
     inkscape:window-height="1011"
     id="namedview16"
     showgrid="false"
     inkscape:zoom="38.089485"
     inkscape:cx="9.0963405"
     inkscape:cy="7.5586679"
     inkscape:window-x="0"
     inkscape:window-y="0"
     inkscape:window-maximized="1"
     inkscape:current-layer="svg14" />
  <path
     d="M 1.0000001,0.99999989 V 2 H 2.0000002 V 0.99999989 Z m 1.9999999,0 V 2 H 5 V 0.99999989 Z m 3,0 V 2 H 8.0000001 V 0.99999989 Z m 3.0000001,0 V 2 H 11 V 0.99999989 Z m 2.9999999,0 V 2 h 1 1 V 0.99999989 H 13 Z M 1.0000001,3 V 4.9999999 H 2.0000002 V 3 Z M 13,3 v 1.9999999 h 1 V 3 Z M 1.0000001,5.9999999 V 8 H 2.0000002 V 5.9999999 Z M 13,5.9999999 V 8 h 1 V 5.9999999 Z M 1.0000001,8.9999997 V 11 H 2.0000002 V 8.9999997 Z M 13,8.9999997 V 11 h 1 V 8.9999997 Z M 1.0000001,12 v 2 H 2.0000002 V 12 Z M 13,12 v 1 h -1 v 1 h 1 1 v -2 z m -9.9999999,1 v 1 h 2 v -1 z m 3,0 v 1 h 2 v -1 z m 3,0 v 1 H 11 v -1 z"
     style="opacity:0.8;fill:#808080;fill-opacity:1;opacity:0.8"
     id="path4" />
  <rect
     style="fill:#00ff00;fill-rule:evenodd;stroke:none;stroke-width:2;stroke-linecap:round;stroke-linejoin:round;fill-opacity:1"
     id="rect870"
     width="1.0000001"
     height="13"
     x="1.0000001"
     y="0.99999988" />
</svg>
