<?xml version="1.0" encoding="UTF-8" standalone="no"?>
<svg
   xmlns:dc="http://purl.org/dc/elements/1.1/"
   xmlns:cc="http://creativecommons.org/ns#"
   xmlns:rdf="http://www.w3.org/1999/02/22-rdf-syntax-ns#"
   xmlns:svg="http://www.w3.org/2000/svg"
   xmlns="http://www.w3.org/2000/svg"
   xmlns:sodipodi="http://sodipodi.sourceforge.net/DTD/sodipodi-0.dtd"
   xmlns:inkscape="http://www.inkscape.org/namespaces/inkscape"
   height="15"
   width="15"
   version="1.1"
   id="svg24"
   sodipodi:docname="pr08.svg"
   inkscape:version="1.0.1 (3bc2e813f5, 2020-09-07)">
  <metadata
     id="metadata30">
    <rdf:RDF>
      <cc:Work
         rdf:about="">
        <dc:format>image/svg+xml</dc:format>
        <dc:type
           rdf:resource="http://purl.org/dc/dcmitype/StillImage" />
      </cc:Work>
    </rdf:RDF>
  </metadata>
  <defs
     id="defs28" />
  <sodipodi:namedview
     pagecolor="#ffffff"
     bordercolor="#666666"
     borderopacity="1"
     objecttolerance="10"
     gridtolerance="10"
     guidetolerance="10"
     inkscape:pageopacity="0"
     inkscape:pageshadow="2"
     inkscape:window-width="1920"
     inkscape:window-height="1011"
     id="namedview26"
     showgrid="false"
     inkscape:zoom="26.933333"
     inkscape:cx="5.9630842"
     inkscape:cy="6.9853106"
     inkscape:window-x="0"
     inkscape:window-y="0"
     inkscape:window-maximized="1"
     inkscape:current-layer="svg24" />
  <path
     d="M 1.0000002,0.99999995 V 2.0000001 H 2.0000003 V 0.99999995 Z m 1.9999999,0 V 2.0000001 h 2 V 0.99999995 Z m 3,0 V 2.0000001 H 7.9999998 V 0.99999995 Z m 2.9999997,0 V 2.0000001 H 11 V 0.99999995 Z m 3.0000002,0 V 2.0000001 h 1 1 V 0.99999995 H 13 Z M 1.0000002,3.0000001 V 5 H 2.0000003 V 3.0000001 Z M 13,3.0000001 V 5 h 1 V 3.0000001 Z M 1.0000002,6.0000002 v 2 h 1.0000001 v -2 z m 11.9999998,0 v 2 h 1 v -2 z m -11.9999998,3 V 11 H 2.0000003 V 9.0000002 Z M 13,9.0000002 V 11 h 1 V 9.0000002 Z M 1.0000002,12 v 2 H 2.0000003 V 12 Z M 13,12 v 1 h -1 v 1 h 1 1 v -2 z m -9.9999998,1 v 1 h 2 v -1 z m 3,0 v 1 h 1.9999996 v -1 z m 2.9999997,0 v 1 H 11 v -1 z"
     style="opacity:0.8;fill:#808080;fill-opacity:1;opacity:0.8"
     id="path4" />
  <rect
     style="opacity:0.8;fill:#808080;fill-opacity:1;fill-rule:evenodd;stroke:none;stroke-width:2;stroke-linecap:round;stroke-linejoin:round"
     id="rect873"
     width="1"
     height="2"
     x="6.9999995"
     y="-12.000001"
     transform="rotate(90)" />
  <rect
     style="opacity:0.8;fill:#808080;fill-opacity:1;fill-rule:evenodd;stroke:none;stroke-width:2;stroke-linecap:round;stroke-linejoin:round"
     id="rect875"
     width="1"
     height="2"
     x="6.9999995"
     y="-9.000001"
     transform="rotate(90)" />
  <rect
     style="opacity:0.8;fill:#808080;fill-opacity:1;fill-rule:evenodd;stroke:none;stroke-width:2;stroke-linecap:round;stroke-linejoin:round"
     id="rect877"
     width="1"
     height="2"
     x="6.9999995"
     y="-6.0000005"
     transform="rotate(90)" />
  <rect
     style="opacity:0.8;fill:#808080;fill-opacity:1;fill-rule:evenodd;stroke:none;stroke-width:2;stroke-linecap:round;stroke-linejoin:round"
     id="rect879"
     width="1"
     height="1"
     x="6.9999995"
     y="-2.9999998"
     transform="rotate(90)" />
  <path
     id="rect880"
     style="fill:#00ff00;fill-opacity:1;fill-rule:evenodd;stroke:none;stroke-width:2;stroke-linecap:round;stroke-linejoin:round"
     d="M 1.0000001,0.99999985 V 1.9999999 13 14 h 1 H 13 14 V 13 0.99999985 Z m 1,1.00000005 H 13 V 13 H 2.0000001 Z" />
</svg>
