<svg xmlns="http://www.w3.org/2000/svg" xmlns:xlink="http://www.w3.org/1999/xlink" height="16" width="24"><defs><linearGradient id="a"><stop style="stop-color:#151515;stop-opacity:1" offset="0"/><stop style="stop-color:#4d4d4d;stop-opacity:1" offset="1"/></linearGradient><linearGradient xlink:href="#a" id="b" x1="3" y1="3" x2="3" y2="8" gradientUnits="userSpaceOnUse"/></defs><path style="opacity:1;fill:#000;stroke:#fff;stroke-width:2;stroke-linejoin:round;stroke-miterlimit:4;stroke-dasharray:none" d="M2 3v5h2.5A1.5 1.5 0 0 0 6 6.5c0-.533-.268-1.015-.688-1.281.116-.213.188-.46.188-.719A1.5 1.5 0 0 0 4 3H2zm5 0v5h2.5A1.5 1.5 0 0 0 11 6.5v-2A1.5 1.5 0 0 0 9.5 3H7zM3 4h1a.5.5 0 0 1 0 1H3V4zm5 0h1.5a.5.5 0 0 1 .5.5v2a.5.5 0 0 1-.5.5H8V4zM3 6h1.5a.5.5 0 0 1 0 1H3V6z"/><path style="fill:#d56199;fill-opacity:1;stroke:none;stroke-width:1px;stroke-linecap:butt;stroke-linejoin:miter;stroke-opacity:1" d="m2 10 4 2-4 2z"/><path style="fill:url(#b);fill-opacity:1" d="M2 3v5h2.5A1.5 1.5 0 0 0 6 6.5c0-.533-.268-1.015-.688-1.281.116-.213.188-.46.188-.719A1.5 1.5 0 0 0 4 3H2zm5 0v5h2.5A1.5 1.5 0 0 0 11 6.5v-2A1.5 1.5 0 0 0 9.5 3H7zM3 4h1a.5.5 0 0 1 0 1H3V4zm5 0h1.5a.5.5 0 0 1 .5.5v2a.5.5 0 0 1-.5.5H8V4zM3 6h1.5a.5.5 0 0 1 0 1H3V6z"/><path style="fill:#d56199;fill-opacity:1;stroke:none;stroke-width:1px;stroke-linecap:butt;stroke-linejoin:miter;stroke-opacity:1" d="m11 10-4 2 4 2z"/></svg>