<svg height="32" width="32" xmlns="http://www.w3.org/2000/svg"><filter id="a" color-interpolation-filters="sRGB" height="1.6" width="1.4" x="-.2" y="-.3"><feGaussianBlur stdDeviation="1.5"/></filter><g transform="translate(-384.571 -515.798)"><g fill="#762572"><path d="M569.571 419.798h-22l1 3h22l-1-3zM426.571 640.798v5h16.309l-2.887-5zm14.577 0s5.786 10.008 5.773 10.002l5.775-10.002zm12.703 0l-9.239 16h9.96v-16zm-27.28 6v16h.721l9.238-16zm7.65 5.998l-5.775 10.002h11.55zm4.042 5.002l2.887 5h13.421v-5z" opacity=".4"/><path d="M548.571 441.849l23.076-6.051 4.924 15.95-23.075 6.05zM506.571 640.798h12v3h-12zM506.571 645.798h12v2h-12z"/></g><path d="M545.571 519.798v24h30v-24zm1 1h28v22h-28z" fill="#232629"/><g fill="#762572"><path d="M520.571 600.798v11l9 11h5v-22zM506.571 542.798h28v-12h-28z"/><path d="M515.571 527.798h10l-5-5z" fill-rule="evenodd"/><path d="M518.571 534.798h4v-9h-4zM506.571 560.798h28v12h-28zM546.571 480.798h3v22h-3zM551.571 480.798h1v22h-1zM554.571 480.798h1v22h-1zM556.571 480.798h3v22h-3zM560.571 480.798h2v22h-2zM564.571 480.798h1v22h-1zM568.571 480.798h1v22h-1zM571.571 480.798h2v22h-2zM551.571 525.798h18v12h-18zM560.571 560.798h7v5h-7zM553.571 565.798h7v4h-7zM546.571 577.798h7v5h-7zM560.571 569.798h7v4h-7zM567.571 565.798h7v4h-7zM567.571 573.798h7v4h-7z"/><path d="M547.571 526.04l4.243-4.242h-4.243z" fill-rule="evenodd"/><path d="M555.107 530.748l1.414-1.414-6.364-6.364-1.414 1.414z"/><path d="M573.571 526.04l-4.242-4.242h4.242z" fill-rule="evenodd"/><path d="M566.036 530.748l-1.414-1.414 6.364-6.364 1.414 1.414z"/><path d="M573.571 537.555l-4.242 4.243h4.242z" fill-rule="evenodd"/><path d="M566.036 532.848l-1.414 1.415 6.364 6.364 1.414-1.415z"/><path d="M547.571 537.555l4.243 4.243h-4.243z" fill-rule="evenodd"/><path d="M555.107 532.848l1.414 1.415-6.364 6.364-1.414-1.415z"/></g><g fill="#232629"><path d="M505.571 479.798v24h30v-24zm1 1h28v22h-28zM505.571 519.798v24h30v-24zm1 1h28v22h-28zM545.571 559.798v24h30v-24zm1 1h28v22h-28zM545.571 479.798v24h30v-24zm1 1h28v22h-28zM505.571 599.798v24h30v-24zm1 1h28v22h-28zM505.571 559.798v24h30v-24zm1 1h28v22h-28z"/></g><g fill="#762572"><path d="M515.571 575.798h10l-5 5z" fill-rule="evenodd"/><path d="M518.571 568.798h4v9h-4zM546.571 569.798h7v4h-7zM546.571 560.798h7v5h-7zM560.571 577.798h7v5h-7zM553.571 573.798h7v4h-7z"/><path d="M509.678 616.574l8.997-4.366-6.681-2.315z" fill-rule="evenodd"/><path d="M512.377 615.264a9 9 0 0012.027 4.168 9 9 0 004.167-12.026l-3.598 1.746a5 5 0 01-2.316 6.682 5 5 0 01-6.681-2.316zM506.571 480.798h28v22h-28z"/><path d="M506.571 480.798h28v22h-28zM550.571 606.798h6v10h-6z"/><path d="M547.571 608.04l4.243-4.242h-4.243z" fill-rule="evenodd"/><path d="M555.107 612.748l1.414-1.414-6.364-6.364-1.414 1.414z"/><path d="M559.571 608.04l-4.242-4.242h4.242z" fill-rule="evenodd"/><path d="M552.036 612.748l-1.414-1.414 6.364-6.364 1.414 1.414z"/><path d="M559.571 615.555l-4.242 4.243h4.242z" fill-rule="evenodd"/><path d="M552.036 610.848l-1.414 1.415 6.364 6.363 1.414-1.414z"/><path d="M547.571 615.555l4.243 4.243h-4.243z" fill-rule="evenodd"/><path d="M555.107 610.848l1.414 1.415-6.364 6.364-1.414-1.415zM564.571 606.798h6v10h-6z"/><path d="M561.571 608.04l4.243-4.242h-4.243z" fill-rule="evenodd"/><path d="M569.107 612.748l1.414-1.414-6.364-6.364-1.414 1.414z"/><path d="M573.571 608.04l-4.242-4.242h4.242z" fill-rule="evenodd"/><path d="M566.036 612.748l-1.414-1.415 6.364-6.364 1.414 1.415z"/><path d="M573.571 615.555l-4.242 4.243h4.242z" fill-rule="evenodd"/><path d="M566.036 610.848l-1.414 1.414 6.364 6.364 1.414-1.414z"/><path d="M561.571 615.555l4.243 4.243h-4.243z" fill-rule="evenodd"/><path d="M569.107 610.848l1.414 1.414-6.364 6.364-1.414-1.414z"/></g><path d="M545.571 599.798v24h30v-24zm1 1h28v22h-28zM465.571 519.798v24h30v-24zm1 1h28v22h-28z" fill="#232629"/><g fill="#762572"><path d="M467.571 526.04l4.243-4.242h-4.243z" fill-rule="evenodd"/><path d="M475.107 530.748l1.414-1.414-6.364-6.364-1.414 1.414z"/><path d="M493.571 526.04l-4.242-4.242h4.242z" fill-rule="evenodd"/><path d="M486.036 530.748l-1.414-1.414 6.364-6.364 1.414 1.414z"/><path d="M493.571 537.555l-4.242 4.243h4.242z" fill-rule="evenodd"/><path d="M486.036 532.848l-1.414 1.415 6.364 6.363 1.414-1.414z"/><path d="M467.571 537.555l4.243 4.243h-4.243z" fill-rule="evenodd"/><path d="M475.107 532.848l1.414 1.415-6.364 6.363-1.414-1.414z"/><circle cx="480.571" cy="531.798" r="8"/><path d="M474.571 571.798l-3-3v2h-3v2h3v2z"/><path d="M466.571 560.798h4v22h-4zM484.571 571.798l-3-3v2h-3v2h3v2z"/><path d="M475.571 560.798h4v22h-4zM493.571 571.798l-3-3v2h-3v2h3v2z"/><path d="M485.571 560.798h4v22h-4z"/></g><path d="M465.571 559.798v24h30v-24zm1 1h28v22h-28zM465.571 479.798v24h30v-24zm1 1h28v22h-28z" fill="#232629"/><ellipse cx="480.571" cy="491.798" fill="#762572" filter="url(#a)" rx="9" ry="6"/><path d="M385.571 519.798v24h30v-24zm1 1h28v22h-28z" fill="#232629"/><g fill="#762572"><path d="M466.571 608.798l14 5 14-5v-8h-28z"/><path d="M487.362 618.261a8 8 0 00-2.424-11.05 8 8 0 00-11.05 2.423l1.683 1.079a6 6 0 018.289-1.818 6 6 0 011.818 8.288z"/><path d="M489.046 619.34l-5.053-3.236.91 4.145z" fill-rule="evenodd"/><g><path d="M473.83 618.261a8 8 0 012.424-11.05 8 8 0 0111.05 2.423l-1.683 1.079a6 6 0 00-8.289-1.818 6 6 0 00-1.818 8.288z"/><path d="M472.146 619.34l5.053-3.236-.91 4.145z" fill-rule="evenodd"/></g></g><path d="M465.571 599.798v24h30v-24zm1 1h28v22h-28z" fill="#232629"/><g fill="#762572"><path d="M466.571 659.798h4v4h-4zM466.571 655.798h4v4h-4zM466.571 651.798h4v4h-4zM466.571 643.798h4v4h-4zM470.571 659.798h4v4h-4zM470.571 651.798h4v4h-4zM470.571 647.798h4v4h-4zM470.571 639.798h4v4h-4zM474.571 655.798h4v4h-4zM474.571 643.798h4v4h-4zM474.571 639.798h4v4h-4zM478.571 659.798h4v4h-4zM478.571 651.798h4v4h-4zM478.571 647.798h4v4h-4zM482.571 659.798h4v4h-4zM482.571 655.798h4v4h-4zM482.571 639.798h4v4h-4zM486.571 655.798h4v4h-4zM486.571 651.798h4v4h-4zM482.571 647.798h4v4h-4zM486.571 643.798h4v4h-4zM486.571 639.798h4v4h-4zM490.571 659.798h4v4h-4zM490.571 651.798h4v4h-4zM490.571 643.798h4v4h-4z"/></g><path d="M465.571 639.798v24h30v-24zm1 1h28v22h-28zM505.571 639.798v24h30v-24zm1 1h28v22h-28z" fill="#232629"/><path d="M515.571 447.798h10l-5-5z" fill="#762572" fill-rule="evenodd"/><path d="M518.571 454.798h4v-9h-4z" fill="#762572"/><path d="M505.571 439.798v24h30v-24zm1 1h28v22h-28zM425.571 519.798v24h30v-24zm1 1h28v22h-28z" fill="#232629"/><g fill="#762572"><path d="M426.571 479.798h28v4h-28z"/><path d="M435.571 485.798h10l-5 5z" fill-rule="evenodd"/><path d="M438.571 479.798h4v8h-4zM426.571 502.798h28v-3h-28z"/><path d="M435.571 497.798h10l-5-5z" fill-rule="evenodd"/><path d="M438.571 501.798h4v-6h-4z"/></g><path d="M425.571 479.798v24h30v-24zm1 1h28v22h-28z" fill="#232629"/><g fill="#762572"><path d="M430.571 559.798h25v4h-25zM446.571 575.798h8v4h-8zM442.571 571.798h12v4h-12zM438.571 567.798h16v4h-16zM450.571 579.798h4v4h-4zM434.571 563.798h20v4h-20z"/></g><path d="M425.571 559.798v24h30v-24zm1 1h28v22h-28zM385.571 479.798v24h30v-24zm1 1h28v22h-28z" fill="#232629"/><path d="M426.571 439.798l28 2v4l-28-2z" fill="#762572"/><path d="M425.571 439.798v24h30v-24zm1 1h28v22h-28z" fill="#232629"/><g fill="#762572"><path d="M428.571 443.798l24 2v4l-24-2z"/><path d="M430.571 447.798l20 2v4l-20-2z"/><path d="M432.571 451.798l16 2v4l-16-2z"/><path d="M434.571 455.798l12 2v4l-12-2z"/><path d="M436.571 459.798l8 2v2l-8-2z"/><g fill-rule="evenodd"><path d="M400.571 502.798l14-4v-14l-14-4z"/><path d="M400.571 502.798l-14-4v-14l14-4z" opacity=".4"/></g></g><path d="M385.571 599.798v24h30v-24zm1 1h28v22h-28z" fill="#232629"/><path d="M386.571 621.798h4v1h-4zM391.571 621.798h4v1h-4z" fill="#762572"/><path d="M385.571 559.798v24h30v-24zm1 1h28v22h-28z" fill="#232629"/><g fill="#762572"><path d="M386.571 581.798h1v1h-1zM388.571 581.798h1v1h-1zM390.571 581.798h1v1h-1zM392.571 581.798h1v1h-1zM394.571 581.798h1v1h-1zM396.571 581.798h1v1h-1zM398.571 581.798h1v1h-1zM400.571 581.798h1v1h-1zM402.571 581.798h1v1h-1zM404.571 581.798h1v1h-1zM406.571 581.798h1v1h-1zM408.571 581.798h1v1h-1zM410.571 581.798h1v1h-1zM412.571 581.798h1v1h-1zM387.571 580.798h1v1h-1zM389.571 580.798h1v1h-1zM391.571 580.798h1v1h-1zM393.571 580.798h1v1h-1zM395.571 580.798h1v1h-1zM397.571 580.798h1v1h-1zM399.571 580.798h1v1h-1zM401.571 580.798h1v1h-1zM403.571 580.798h1v1h-1zM405.571 580.798h1v1h-1zM407.571 580.798h1v1h-1zM409.571 580.798h1v1h-1zM411.571 580.798h1v1h-1zM413.571 580.798h1v1h-1zM386.571 579.798h1v1h-1zM388.571 579.798h1v1h-1zM390.571 579.798h1v1h-1zM392.571 579.798h1v1h-1zM394.571 579.798h1v1h-1zM396.571 579.798h1v1h-1zM398.571 579.798h1v1h-1zM400.571 579.798h1v1h-1zM402.571 579.798h1v1h-1zM404.571 579.798h1v1h-1zM406.571 579.798h1v1h-1zM408.571 579.798h1v1h-1zM410.571 579.798h1v1h-1zM412.571 579.798h1v1h-1zM387.571 578.798h1v1h-1zM389.571 578.798h1v1h-1zM391.571 578.798h1v1h-1zM393.571 578.798h1v1h-1zM395.571 578.798h1v1h-1zM397.571 578.798h1v1h-1zM399.571 578.798h1v1h-1zM401.571 578.798h1v1h-1zM403.571 578.798h1v1h-1zM405.571 578.798h1v1h-1zM407.571 578.798h1v1h-1zM409.571 578.798h1v1h-1zM411.571 578.798h1v1h-1zM413.571 578.798h1v1h-1zM386.571 577.798h1v1h-1zM388.571 577.798h1v1h-1zM390.571 577.798h1v1h-1zM392.571 577.798h1v1h-1zM394.571 577.798h1v1h-1zM396.571 577.798h1v1h-1zM398.571 577.798h1v1h-1zM400.571 577.798h1v1h-1zM402.571 577.798h1v1h-1zM404.571 577.798h1v1h-1zM406.571 577.798h1v1h-1zM408.571 577.798h1v1h-1zM410.571 577.798h1v1h-1zM412.571 577.798h1v1h-1zM387.571 576.798h1v1h-1zM389.571 576.798h1v1h-1zM391.571 576.798h1v1h-1zM393.571 576.798h1v1h-1zM395.571 576.798h1v1h-1zM397.571 576.798h1v1h-1zM399.571 576.798h1v1h-1zM401.571 576.798h1v1h-1zM403.571 576.798h1v1h-1zM405.571 576.798h1v1h-1zM407.571 576.798h1v1h-1zM409.571 576.798h1v1h-1zM411.571 576.798h1v1h-1zM413.571 576.798h1v1h-1zM386.571 575.798h1v1h-1zM388.571 575.798h1v1h-1zM390.571 575.798h1v1h-1zM392.571 575.798h1v1h-1zM394.571 575.798h1v1h-1zM396.571 575.798h1v1h-1zM398.571 575.798h1v1h-1zM400.571 575.798h1v1h-1zM402.571 575.798h1v1h-1zM404.571 575.798h1v1h-1zM406.571 575.798h1v1h-1zM408.571 575.798h1v1h-1zM410.571 575.798h1v1h-1zM412.571 575.798h1v1h-1zM387.571 574.798h1v1h-1zM389.571 574.798h1v1h-1zM391.571 574.798h1v1h-1zM393.571 574.798h1v1h-1zM395.571 574.798h1v1h-1zM397.571 574.798h1v1h-1zM399.571 574.798h1v1h-1zM401.571 574.798h1v1h-1zM403.571 574.798h1v1h-1zM405.571 574.798h1v1h-1zM407.571 574.798h1v1h-1zM409.571 574.798h1v1h-1zM411.571 574.798h1v1h-1zM413.571 574.798h1v1h-1zM386.571 573.798h1v1h-1zM388.571 573.798h1v1h-1zM390.571 573.798h1v1h-1zM392.571 573.798h1v1h-1zM394.571 573.798h1v1h-1zM396.571 573.798h1v1h-1zM398.571 573.798h1v1h-1zM400.571 573.798h1v1h-1zM402.571 573.798h1v1h-1zM404.571 573.798h1v1h-1zM406.571 573.798h1v1h-1zM408.571 573.798h1v1h-1zM410.571 573.798h1v1h-1zM412.571 573.798h1v1h-1zM387.571 572.798h1v1h-1zM389.571 572.798h1v1h-1zM391.571 572.798h1v1h-1zM393.571 572.798h1v1h-1zM395.571 572.798h1v1h-1zM397.571 572.798h1v1h-1zM399.571 572.798h1v1h-1zM401.571 572.798h1v1h-1zM403.571 572.798h1v1h-1zM405.571 572.798h1v1h-1zM407.571 572.798h1v1h-1zM409.571 572.798h1v1h-1zM411.571 572.798h1v1h-1zM413.571 572.798h1v1h-1zM386.571 571.798h1v1h-1zM388.571 571.798h1v1h-1zM390.571 571.798h1v1h-1zM392.571 571.798h1v1h-1zM394.571 571.798h1v1h-1zM396.571 571.798h1v1h-1zM398.571 571.798h1v1h-1zM400.571 571.798h1v1h-1zM402.571 571.798h1v1h-1zM404.571 571.798h1v1h-1zM406.571 571.798h1v1h-1zM408.571 571.798h1v1h-1zM410.571 571.798h1v1h-1zM412.571 571.798h1v1h-1zM387.571 570.798h1v1h-1zM389.571 570.798h1v1h-1zM391.571 570.798h1v1h-1zM393.571 570.798h1v1h-1zM395.571 570.798h1v1h-1zM397.571 570.798h1v1h-1zM399.571 570.798h1v1h-1zM401.571 570.798h1v1h-1zM403.571 570.798h1v1h-1zM405.571 570.798h1v1h-1zM407.571 570.798h1v1h-1zM409.571 570.798h1v1h-1zM411.571 570.798h1v1h-1zM413.571 570.798h1v1h-1zM386.571 569.798h1v1h-1zM388.571 569.798h1v1h-1zM390.571 569.798h1v1h-1zM392.571 569.798h1v1h-1zM394.571 569.798h1v1h-1zM396.571 569.798h1v1h-1zM398.571 569.798h1v1h-1zM400.571 569.798h1v1h-1zM402.571 569.798h1v1h-1zM404.571 569.798h1v1h-1zM406.571 569.798h1v1h-1zM408.571 569.798h1v1h-1zM410.571 569.798h1v1h-1zM412.571 569.798h1v1h-1zM387.571 568.798h1v1h-1zM389.571 568.798h1v1h-1zM391.571 568.798h1v1h-1zM393.571 568.798h1v1h-1zM395.571 568.798h1v1h-1zM397.571 568.798h1v1h-1zM399.571 568.798h1v1h-1zM401.571 568.798h1v1h-1zM403.571 568.798h1v1h-1zM405.571 568.798h1v1h-1zM407.571 568.798h1v1h-1zM409.571 568.798h1v1h-1zM411.571 568.798h1v1h-1zM413.571 568.798h1v1h-1zM386.571 567.798h1v1h-1zM388.571 567.798h1v1h-1zM390.571 567.798h1v1h-1zM392.571 567.798h1v1h-1zM394.571 567.798h1v1h-1zM396.571 567.798h1v1h-1zM398.571 567.798h1v1h-1zM400.571 567.798h1v1h-1zM402.571 567.798h1v1h-1zM404.571 567.798h1v1h-1zM406.571 567.798h1v1h-1zM408.571 567.798h1v1h-1zM410.571 567.798h1v1h-1zM412.571 567.798h1v1h-1zM387.571 566.798h1v1h-1zM389.571 566.798h1v1h-1zM391.571 566.798h1v1h-1zM393.571 566.798h1v1h-1zM395.571 566.798h1v1h-1zM397.571 566.798h1v1h-1zM399.571 566.798h1v1h-1zM401.571 566.798h1v1h-1zM403.571 566.798h1v1h-1zM405.571 566.798h1v1h-1zM407.571 566.798h1v1h-1zM409.571 566.798h1v1h-1zM411.571 566.798h1v1h-1zM413.571 566.798h1v1h-1zM386.571 565.798h1v1h-1zM388.571 565.798h1v1h-1zM390.571 565.798h1v1h-1zM392.571 565.798h1v1h-1zM394.571 565.798h1v1h-1zM396.571 565.798h1v1h-1zM398.571 565.798h1v1h-1zM400.571 565.798h1v1h-1zM402.571 565.798h1v1h-1zM404.571 565.798h1v1h-1zM406.571 565.798h1v1h-1zM408.571 565.798h1v1h-1zM410.571 565.798h1v1h-1zM412.571 565.798h1v1h-1zM387.571 564.798h1v1h-1zM389.571 564.798h1v1h-1zM391.571 564.798h1v1h-1zM393.571 564.798h1v1h-1zM395.571 564.798h1v1h-1zM397.571 564.798h1v1h-1zM399.571 564.798h1v1h-1zM401.571 564.798h1v1h-1zM403.571 564.798h1v1h-1zM405.571 564.798h1v1h-1zM407.571 564.798h1v1h-1zM409.571 564.798h1v1h-1zM411.571 564.798h1v1h-1zM413.571 564.798h1v1h-1zM386.571 563.798h1v1h-1zM388.571 563.798h1v1h-1zM390.571 563.798h1v1h-1zM392.571 563.798h1v1h-1zM394.571 563.798h1v1h-1zM396.571 563.798h1v1h-1zM398.571 563.798h1v1h-1zM400.571 563.798h1v1h-1zM402.571 563.798h1v1h-1zM404.571 563.798h1v1h-1zM406.571 563.798h1v1h-1zM408.571 563.798h1v1h-1zM410.571 563.798h1v1h-1zM412.571 563.798h1v1h-1zM387.571 562.798h1v1h-1zM389.571 562.798h1v1h-1zM391.571 562.798h1v1h-1zM393.571 562.798h1v1h-1zM395.571 562.798h1v1h-1zM397.571 562.798h1v1h-1zM399.571 562.798h1v1h-1zM401.571 562.798h1v1h-1zM403.571 562.798h1v1h-1zM405.571 562.798h1v1h-1zM407.571 562.798h1v1h-1zM409.571 562.798h1v1h-1zM411.571 562.798h1v1h-1zM413.571 562.798h1v1h-1zM386.571 561.798h1v1h-1zM388.571 561.798h1v1h-1zM390.571 561.798h1v1h-1zM392.571 561.798h1v1h-1zM394.571 561.798h1v1h-1zM396.571 561.798h1v1h-1zM398.571 561.798h1v1h-1zM400.571 561.798h1v1h-1zM402.571 561.798h1v1h-1zM404.571 561.798h1v1h-1zM406.571 561.798h1v1h-1zM408.571 561.798h1v1h-1zM410.571 561.798h1v1h-1zM412.571 561.798h1v1h-1zM387.571 560.798h1v1h-1zM389.571 560.798h1v1h-1zM391.571 560.798h1v1h-1zM393.571 560.798h1v1h-1zM395.571 560.798h1v1h-1zM397.571 560.798h1v1h-1zM399.571 560.798h1v1h-1zM401.571 560.798h1v1h-1zM403.571 560.798h1v1h-1zM405.571 560.798h1v1h-1zM407.571 560.798h1v1h-1zM409.571 560.798h1v1h-1zM411.571 560.798h1v1h-1zM413.571 560.798h1v1h-1z"/></g><path d="M385.571 439.798v24h30v-24zm1 1h28v22h-28z" fill="#232629"/><g fill="#762572"><path d="M400.571 643.798h2v4h-2zM399.571 639.798h3v4h-3zM400.571 659.798h2v4h-2zM403.571 651.798h3v4h-3zM399.571 655.798h3v4h-3zM403.571 643.798h3v4h-3zM403.571 659.798h3v4h-3zM402.571 655.798h4v4h-4zM402.571 639.798h4v4h-4zM402.571 647.798h4v4h-4zM406.571 640.798h8v22h-8zM400.571 651.798h2v4h-2zM399.571 647.798h3v4h-3zM396.571 639.798h3v4h-3zM397.571 643.798h2v4h-2zM396.571 647.798h2v4h-2zM397.571 651.798h2v4h-2zM396.571 655.798h2v4h-2zM397.571 659.798h2v4h-2z"/></g><path d="M385.571 639.798v24h30v-24zm1 1h28v22h-28z" fill="#232629"/><g fill="#762572"><path d="M391.571 640.798h3v3h-3zM393.571 643.798h3v4h-3zM392.571 647.798h2v4h-2zM394.571 651.798h2v4h-2zM391.571 655.798h3v4h-3zM394.571 659.798h2v3h-2zM389.571 643.798h2v4h-2zM390.571 651.798h2v4h-2zM390.571 659.798h2v3h-2zM388.571 647.798h2v4h-2zM387.571 640.798h2v3h-2zM384.571 436.798h28v22h-28zM396.571 621.798h4v1h-4zM401.571 621.798h4v1h-4zM406.571 621.798h4v1h-4zM411.571 621.798h3v1h-3zM386.571 617.798h3v1h-3zM390.571 617.798h4v1h-4zM395.571 617.798h4v1h-4zM400.571 617.798h4v1h-4zM405.571 617.798h4v1h-4zM410.571 617.798h4v1h-4zM388.571 614.798h4v1h-4zM393.571 614.798h4v1h-4zM398.571 614.798h4v1h-4zM403.571 614.798h4v1h-4zM408.571 614.798h4v1h-4zM413.571 614.798h1v1h-1zM386.571 612.798h4v1h-4zM391.571 612.798h4v1h-4zM396.571 612.798h4v1h-4zM401.571 612.798h4v1h-4zM406.571 612.798h4v1h-4zM411.571 612.798h3v1h-3zM386.571 614.798h1v1h-1zM386.571 610.798h3v1h-3zM390.571 610.798h4v1h-4zM395.571 610.798h4v1h-4zM400.571 610.798h4v1h-4zM405.571 610.798h4v1h-4zM410.571 610.798h4v1h-4zM386.571 606.798h4v1h-4zM391.571 606.798h4v1h-4zM396.571 606.798h4v1h-4zM401.571 606.798h4v1h-4zM406.571 606.798h4v1h-4zM411.571 606.798h3v1h-3zM386.571 603.798h3v1h-3zM390.571 603.798h4v1h-4zM395.571 603.798h4v1h-4zM400.571 603.798h4v1h-4zM405.571 603.798h4v1h-4zM410.571 603.798h4v1h-4zM386.571 600.798h4v1h-4zM391.571 600.798h4v1h-4zM396.571 600.798h4v1h-4zM401.571 600.798h4v1h-4zM406.571 600.798h4v1h-4zM411.571 600.798h3v1h-3zM387.571 608.798h4v1h-4zM392.571 608.798h4v1h-4zM397.571 608.798h4v1h-4zM402.571 608.798h4v1h-4zM407.571 608.798h4v1h-4zM412.571 608.798h2v1h-2z"/></g><path d="M545.571 439.798v24h30v-24zm1 1h28v22h-28z" fill="#232629"/><g fill="#762572"><path d="M567.362 458.261a8 8 0 00-2.424-11.05 8 8 0 00-11.05 2.423l1.683 1.079a6 6 0 018.289-1.818 6 6 0 011.818 8.288z"/><path d="M569.046 459.34l-5.053-3.236.91 4.145z" fill-rule="evenodd"/></g><path d="M425.571 639.798v24h30v-24zm1 1h28v22h-28z" fill="#232629"/><path d="M439.993 640.798l2.887 5h-16.309v1h9.96l-9.239 16h1.154l5.776-10.002 5.773 10.002h1.155l-2.887-5h16.308v-1h-9.959l9.239-16h-1.155l-5.775 10.002c.013.006-5.773-10.002-5.773-10.002zm-2.308 6h5.773l2.887 5-2.887 5h-5.773l-2.887-5z" fill="#762572"/><path d="M385.571 399.798v24h30v-24zm1 1h28v22h-28z" fill="#232629"/><path d="M391.571 400.798v22l17-3v-15zm9 5a6 6 0 016 6v6h-2v-6a4 4 0 10-8 0v4h2l-3 3-3-3h2v-4a6 6 0 016-6z" fill="#762572" fill-rule="evenodd"/><path d="M425.571 399.798v24h30v-24zm1 1h28v22h-28z" fill="#232629"/><g fill="#762572"><path d="M428.571 405.798l3 16 21-4-3-16zm10.363.227a6 6 0 11-1.362 10.969l1-1.732a4 4 0 10-1.464-5.464l1.732 1-4.098 1.098-1.098-4.098 1.732 1a6 6 0 013.558-2.773z"/><ellipse cx="480.571" cy="411.798" rx="9" ry="6"/><path d="M480.571 403.798a11 8 0 00-11 8 11 8 0 0011 8 11 8 0 0011-8 11 8 0 00-11-8zm0 1a10 7 0 0110 7 10 7 0 01-10 7 10 7 0 01-10-7 10 7 0 0110-7z" opacity=".6"/><path d="M480.571 401.798a13 10 0 00-13 10 13 10 0 0013 10 13 10 0 0013-10 13 10 0 00-13-10zm0 1a12 9 0 0112 9 12 9 0 01-12 9 12 9 0 01-12-9 12 9 0 0112-9z" opacity=".6"/><path d="M480.571 400a15 11.9 0 00-15 11.898 15 11.9 0 0015 11.9 15 11.9 0 0015-11.9 15 11.9 0 00-15-11.899zm0 .798a14 11 0 0114 11 14 11 0 01-14 11 14 11 0 01-14-11 14 11 0 0114-11z" opacity=".6"/></g><path d="M465.571 399.798v24h30v-24zm1 1h28v22h-28zM465.571 359.798v24h30v-24zm1 1h28v22h-28z" fill="#232629"/><g fill="#762572" fill-rule="evenodd"><path d="M468.571 364.798l-2-1v-2l2-1 2 1v2zM472.571 364.798l-2-1v-2l2-1 2 1v2zM476.571 364.798l-2-1v-2l2-1 2 1v2z"/><path d="M470.571 367.798l-2-1v-2l2-1 2 1v2zM474.571 367.798l-2-1v-2l2-1 2 1v2zM478.571 367.798l-2-1v-2l2-1 2 1v2z"/><path d="M468.571 370.798l-2-1v-2l2-1 2 1v2zM472.571 370.798l-2-1v-2l2-1 2 1v2zM476.571 370.798l-2-1v-2l2-1 2 1v2z"/><path d="M470.571 373.798l-2-1v-2l2-1 2 1v2zM474.571 373.798l-2-1v-2l2-1 2 1v2zM478.571 373.798l-2-1v-2l2-1 2 1v2z"/><path d="M472.571 376.798l-2-1v-2l2-1 2 1v2zM476.571 376.798l-2-1v-2l2-1 2 1v2z"/><path d="M474.571 379.798l-2-1v-2l2-1 2 1v2zM478.571 379.798l-2-1v-2l2-1 2 1v2z"/><path d="M472.571 382.798l-2-1v-2l2-1 2 1v2zM476.571 382.798l-2-1v-2l2-1 2 1v2zM480.571 382.798l-2-1v-2l2-1 2 1v2zM466.571 375.798v4l2-1v-2z"/><path d="M470.571 379.798l-2-1v-2l2-1 2 1v2z"/><path d="M468.571 376.798l-2-1v-2l2-1 2 1v2z"/><path d="M466.571 369.798v4l2-1v-2zM468.571 382.798l-2-1v-2l2-1 2 1v2zM466.571 363.798v4l2-1v-2zM484.571 382.798l-2-1v-2l2-1 2 1v2zM480.571 364.798l-2-1v-2l2-1 2 1v2zM480.571 370.798l-2-1v-2l2-1 2 1v2zM484.571 370.798l-2-1v-2l2-1 2 1v2z"/><path d="M482.571 373.798l-2-1v-2l2-1 2 1v2zM488.571 382.798l-2-1v-2l2-1 2 1v2z"/><path d="M490.571 379.798l-2-1v-2l2-1 2 1v2zM488.571 370.798l-2-1v-2l2-1 2 1v2zM484.571 376.798l-2-1v-2l2-1 2 1v2z"/><path d="M482.571 379.798l-2-1v-2l2-1 2 1v2z"/></g><path d="M425.571 359.798v24h30v-24zm1 1h28v22h-28z" fill="#232629"/><g fill="#762572"><g fill-rule="evenodd"><path d="M433.143 369.746l-2.19-.448-.518-1.932 1.673-1.484 2.19.449.518 1.931zM437.007 368.71l-2.19-.448-.518-1.931 1.673-1.484 2.19.448.518 1.932zM440.87 367.675l-2.19-.448-.517-1.932 1.673-1.483 2.19.448.518 1.932z"/><path d="M439.715 371.09l-2.19-.447-.518-1.932 1.673-1.484 2.19.448.518 1.932zM443.58 370.056l-2.192-.449-.517-1.932 1.673-1.483 2.19.448.518 1.932zM434.696 375.542l-2.19-.449-.518-1.932 1.673-1.483 2.19.448.518 1.932z"/><path d="M438.56 374.506l-2.19-.448-.518-1.932 1.673-1.483 2.19.448.518 1.932z"/><path d="M442.424 373.471l-2.19-.448-.519-1.932 1.673-1.484 2.191.449.518 1.931zM437.405 377.922l-2.191-.449-.518-1.931 1.673-1.484 2.191.448.518 1.932z"/><path d="M441.268 376.886l-2.19-.448-.518-1.932 1.673-1.483 2.19.448.518 1.932zM446.287 372.436l-2.19-.449-.518-1.931 1.673-1.484 2.19.448.519 1.932zM447.443 369.02l-2.19-.448-.518-1.932 1.673-1.483 2.19.448.518 1.932z"/><path d="M444.735 366.64l-2.191-.448-.518-1.932 1.673-1.484 2.19.449.519 1.932zM433.541 378.957l-2.19-.448-.518-1.932 1.673-1.484 2.19.449.518 1.931zM431.988 373.161l-2.19-.448-.518-1.932 1.673-1.483 2.19.448.518 1.932z"/><path d="M448.598 365.605l-2.19-.448-.518-1.932 1.673-1.484 2.19.449.518 1.931zM430.833 376.577l-2.191-.448-.518-1.932 1.673-1.484 2.191.448.518 1.932zM429.28 370.781l-2.19-.448-.519-1.932 1.673-1.483 2.191.448.518 1.932zM451.307 367.985l-2.191-.448-.518-1.932 1.673-1.484 2.191.449.518 1.931z"/><path d="M450.151 371.4l-2.19-.448-.518-1.932 1.673-1.483 2.19.448.518 1.932zM436.25 381.337l-2.191-.448-.518-1.932 1.673-1.484 2.19.449.518 1.932zM440.113 380.302l-2.19-.448-.518-1.932 1.673-1.484 2.19.448.518 1.932z"/></g><path d="M440.571 366.04v1.994a6 6 0 013.29.946 6 6 0 011.816 8.289l1.685 1.078a8 8 0 00-2.423-11.05 8 8 0 00-4.368-1.257z"/><path d="M449.046 379.425l-5.053-3.235.91 4.144z" fill-rule="evenodd"/></g><path d="M545.571 639.798v24h30v-24zm1 1h28v22h-28z" fill="#232629"/><g fill="#762572"><path d="M572.571 642.798l-6-2v22l6-2zM563.571 642.798l-6-2v22l6-2zM548.571 640.798l6 2v18l-6 2z"/></g><path d="M545.571 399.798v24h30v-24zm1 1h28v22h-28z" fill="#232629"/><g fill="#762572"><path d="M547.571 404.798v14h22v-14h-14.619a3.972 3.972 0 00-1.38 3 4 4 0 004 4h4v-2l3 3-3 3v-2h-4a6 6 0 01-6-6c0-1.094.298-2.117.81-3z"/><path d="M557.571 401.798a5.991 5.991 0 00-5.189 3h2.57c.704-.614 1.612-1 2.62-1h16v-2zM511.571 407.798a6 6 0 016-6h13v2h-13a4 4 0 100 8h4v-2l3 3-3 3v-2h-4a6 6 0 01-6-6z" fill-rule="evenodd"/></g><path d="M505.571 359.798v24h30v-24zm1 1h28v22h-28z" fill="#232629"/><g fill="#762572"><circle cx="520.571" cy="371.798" r="2"/><path d="M520.571 361.798a6 10 0 00-6 10 6 10 0 006 10 6 10 0 006-10 6 10 0 00-6-10zm0 1a5 9 0 015 9 5 9 0 01-5 9 5 9 0 01-5-9 5 9 0 015-9z"/><path d="M520.571 365.798a12 6 0 00-12 6 12 6 0 0012 6 12 6 0 0012-6 12 6 0 00-12-6zm0 1a11 5 0 0111 5 11 5 0 01-11 5 11 5 0 01-11-5 11 5 0 0111-5z"/><path d="M517.036 368.262a5 12 45 00-4.95 12.021 5 12 45 0012.021-4.95 5 12 45 004.95-12.02 5 12 45 00-12.021 4.95zm.707.708a4 11 45 0110.607-4.95 4 11 45 01-4.95 10.606 4 11 45 01-10.607 4.95 4 11 45 014.95-10.606z"/><path d="M523.4 368.97a12 4 45 00-11.314-5.657 12 4 45 005.657 11.313 12 4 45 0011.314 5.657 12 4 45 00-5.657-11.313zm-.707.707a11 3 45 015.657 9.9 11 3 45 01-9.9-5.658 11 3 45 01-5.657-9.9 11 3 45 019.9 5.658zM438.633 537.79h2.547v3.008h-2.547zm2.472-1.74h-2.397v-1.824q0-1.196.352-1.966.35-.77 1.48-1.788l1.13-1.054q.714-.628 1.028-1.184.326-.557.326-1.137 0-1.054-.828-1.706-.815-.65-2.17-.65-.992 0-2.12.414-1.118.414-2.335 1.207v-2.226q1.18-.675 2.384-1.006 1.217-.332 2.51-.332 2.308 0 3.701 1.149 1.405 1.148 1.405 3.031 0 .9-.451 1.717-.452.806-1.581 1.824l-1.104 1.018q-.59.557-.841.877-.238.308-.339.604-.075.248-.113.604-.037.355-.037.97v1.457zM506.571 657.798h12v2h-12zM522.571 659.798h12v3h-12zM522.571 655.798h12v2h-12zM522.571 651.798h12v2h-12zM522.571 647.798h12v2h-12zM522.571 643.798h12v2h-12zM506.571 649.798h12v2h-12zM506.571 653.798h12v2h-12zM466.571 437.798h28v13h-28zM506.571 466.798h28v-16h-28zM426.571 599.798h4l-.085 3.829h-3.943zM426.571 607.798h4l-.114 3.829-3.886.028zM426.571 603.855l4 .029-.057 3.628-3.885.057zM430.657 599.912l4.057.115-.057 3.628-3.886.057zM434.943 599.94l3.743.03-.115 3.828-3.657-.143zM430.8 603.827l3.8.114-.057 3.6-3.714-.057zM435.073 603.94h3.356l-.33 3.6h-3.156zM430.902 607.855l3.67-.057-.53 3.857-3.3.057zM434.914 607.898l3.157-.014-.728 3.557-2.957.186zM438.8 604.07l3.071-.1-.5 3.328-2.928.186zM430.829 612.04l3.214-.07-.672 3.328-3.1.414zM439.016 599.798h3.555l-.615 3.857-3.185.114zM426.644 611.884l3.87.057-.501 3.743-3.413.057zM442.971 600.298l3.186-.357-.814 3.414-3.129.3zM426.629 616.098l3.385-.043-.643 3.243-3.3.5zM442.171 603.97l3.115-.343-.829 3.057-2.771.557zM448.429 599.798l-2.057.6-.714 2.872 2.913-.472.684-3zM438.4 607.855l2.914-.314-.743 3.257-3.057.557zM434.343 611.97l2.886-.286-.715 2.971-2.828.5zM430.314 615.998l2.915-.4-.658 2.971-2.857.758zM429.285 619.626l-2.799.486-.915 2.942v.18l3-.436z"/></g><path d="M425.571 599.798v24h30v-24zm1 1h28v22h-28z" fill="#232629"/><g fill="#762572"><path d="M441.657 607.54l2.714-.542-.8 2.8-2.742.929zM437.486 611.655l2.943-.571-.858 2.714-2.857.843zM433.571 615.512l2.858-.485-.858 2.771-2.742.729zM429.629 619.655l2.885-.714-.943 2.857-2.742.871zM445.543 603.655l2.914-.571-.886 2.714-2.857.786zM449.27 600.798l-.442 1.872 2.743-.872.33-1zM440.771 610.97l2.6-.858-.857 2.343-2.6 1.157zM444.714 606.94l2.686-.77-1 2.342-2.486 1.1zM436.771 614.97l2.629-.8-1 2.285-2.486 1.157zM439.771 613.97l2.486-1-.943 2.257-2.428 1.1zM443.771 609.97l2.486-1-.943 2.342-2.428 1.015zM442.571 612.798l2.486-1-1.057 2.143-2.314 1.214zM432.733 618.92l2.771-.83-.771 2.515-2.857 1.157zM435.933 617.889l2.4-1-.829 2.342-2.428 1.3zM438.819 616.663l2.371-1.086-.828 2.172-2.429 1.3zM441.597 615.485l2.314-1.143-.685 1.943-2.429 1.242zM448.759 603.005l2.685-.772-1 2.286-2.485 1.157zM447.816 606.033l2.485-1.057-1.057 2.2-2.485 1.3zM446.616 608.862l2.457-1.2-1.029 2.343-2.314 1.214zM445.413 611.691l2.314-1.143-.686 1.943-2.6 1.3zM444.357 614.177l2.457-1.229-.685 1.943-2.6 1.3z"/></g><g fill="#232629"><path d="M475.571 457.798h10l-5 5z" fill-rule="evenodd"/><path d="M478.571 451.798h4v8h-4z"/><path d="M465.571 450.798l3 17h24l3-17zm1.193 1h27.615l-2.647 15H469.41z" fill-rule="evenodd"/><path d="M505.571 399.798v24h30v-24zm1 1h28v22h-28z"/></g></g></svg>