<svg xmlns="http://www.w3.org/2000/svg" height="32" width="32"><path d="M2 6.996c0-2 1-2 3.001-2h22c1.998 0 2.999 0 2.999 2v18.008c0 2-1 2-3 2H5.002c-1.998 0-3 0-3-2z" opacity=".6" stroke="#000" stroke-width="2"/><path d="M2 6.996c0-2 1-2 3.001-2h22c1.998 0 2.999 0 2.999 2v18.008c0 2-1 2-3 2H5.002c-1.998 0-3 0-3-2z" fill="#fff"/><g fill="#762572"><path d="M16 5v11l9 11h2.164c1.877-.002 2.836-.058 2.836-1.996V6.996c0-1.938-.96-1.994-2.836-1.996H16z"/><path d="M5.107 20.776l8.997-4.366-6.682-2.315z" fill-rule="evenodd"/><path d="M7.806 19.466a9 9 0 0012.026 4.168A9 9 0 0024 11.608l-3.599 1.746a5 5 0 01-2.315 6.681 5 5 0 01-6.681-2.315z"/></g></svg>