<svg xmlns="http://www.w3.org/2000/svg" height="32" width="32"><filter id="a" color-interpolation-filters="sRGB" height="1.6" width="1.4" x="-.2" y="-.3"><feGaussianBlur stdDeviation="1.5"/></filter><path d="M2 6.996c0-2 1-2 3.001-2h22c1.998 0 2.999 0 2.999 2v18.008c0 2-1 2-3 2H5.002c-1.998 0-3 0-3-2z" opacity=".7" stroke="#000" stroke-width="2"/><path d="M2 6.996c0-2 1-2 3.001-2h22c1.998 0 2.999 0 2.999 2v18.008c0 2-1 2-3 2H5.002c-1.998 0-3 0-3-2z" fill="#fff"/><ellipse cx="16" cy="16" fill="#77216F" filter="url(#a)" rx="9" ry="6"/></svg>