<svg version="1.1" viewBox="0 0 32 32" xmlns="http://www.w3.org/2000/svg"><g><rect x="17" y="4" width="11" height="11" ry="1" opacity=".7"/><rect x="18" y="5" width="9" height="9" fill="#fff"/><rect x="17" y="17" width="11" height="11" ry="1" opacity=".7"/><rect x="18" y="18" width="9" height="9" fill="#fff"/></g><g fill="#9141ac"><path d="m22.5 7 2.5 5h-5"/><circle cx="9.5" cy="9.5" r="5.5"/><path d="m22.5 25 2.5-5h-5"/><rect x="4" y="17" width="11" height="11" ry="1"/></g><g><path d="m12.557 19.61-4.1187 4.113-1.9963-1.9928-0.83505 0.83425 2.8313 2.8255 4.9538-4.9457z" color="#000000" color-rendering="auto" dominant-baseline="auto" fill="#fff" image-rendering="auto" shape-rendering="auto" solid-color="#000000" style="font-feature-settings:normal;font-variant-alternates:normal;font-variant-caps:normal;font-variant-ligatures:normal;font-variant-numeric:normal;font-variant-position:normal;isolation:auto;mix-blend-mode:normal;shape-padding:0;text-decoration-color:#000000;text-decoration-line:none;text-decoration-style:solid;text-indent:0;text-orientation:mixed;text-transform:none;white-space:normal"/><path d="m12.557 6.61-4.1187 4.113-1.9963-1.9928-0.83505 0.83425 2.8313 2.8255 4.9538-4.9457z" color="#000000" color-rendering="auto" dominant-baseline="auto" fill="#fff" image-rendering="auto" shape-rendering="auto" solid-color="#000000" style="font-feature-settings:normal;font-variant-alternates:normal;font-variant-caps:normal;font-variant-ligatures:normal;font-variant-numeric:normal;font-variant-position:normal;isolation:auto;mix-blend-mode:normal;shape-padding:0;text-decoration-color:#000000;text-decoration-line:none;text-decoration-style:solid;text-indent:0;text-orientation:mixed;text-transform:none;white-space:normal"/><circle cx="26.5" cy="26.5" r="4.5" fill="#46a926"/><path d="m26 24v2h-2v1h2v2h1v-2h2v-1h-2v-2z" color="#000000" fill="#fff" font-weight="400" overflow="visible" style="isolation:auto;mix-blend-mode:normal;text-decoration-color:#000000;text-decoration-line:none;text-decoration-style:solid;text-indent:0;text-transform:none;white-space:normal"/></g></svg>
