<svg xmlns="http://www.w3.org/2000/svg" viewBox="0 0 24 24"><path d="M12 1C8.676 1 6 4.122 6 8v3c0 3.878 2.676 7 6 7s6-3.122 6-7V8c0-3.878-2.676-7-6-7zm.5 2h1C14.885 3 16 5.23 16 8v3c0 2.77-1.115 5-2.5 5h-1c-1.385 0-2.5-2.23-2.5-5V8c0-2.77 1.115-5 2.5-5zM4 20v1h16v-1H4zm0 2v1h16v-1H4z" opacity=".6" stroke="#000" stroke-width="2" stroke-linejoin="round"/><path d="M4 20h16v1H4zM12 1C8.676 1 6 4.122 6 8v3c0 3.878 2.676 7 6 7s6-3.122 6-7V8c0-3.878-2.676-7-6-7zm.5 2h1C14.885 3 16 5.23 16 8v3c0 2.77-1.115 5-2.5 5h-1c-1.385 0-2.5-2.23-2.5-5V8c0-2.77 1.115-5 2.5-5zM4 22h16v1H4z" fill="#fff"/></svg>