<svg xmlns="http://www.w3.org/2000/svg" viewBox="0 0 24 24"><path d="M5 20v1h14v-1zm0 2v1h14v-1z" opacity=".6" stroke="#000" stroke-width="2" stroke-linejoin="round"/><path d="M5 20h14v1H5zM5 22h14v1H5z" fill="#fff"/><path d="M12 1C8.676 1 6 3.676 6 7v5c0 3.324 2.676 6 6 6s6-2.676 6-6V7c0-3.324-2.676-6-6-6zm0 3c1.662 0 3 1.732 3 3.883v3.234C15 13.268 13.662 15 12 15s-3-1.732-3-3.883V7.883C9 5.732 10.338 4 12 4z" opacity=".6" fill-rule="evenodd" stroke="#000" stroke-width="2" stroke-linecap="round" stroke-linejoin="round"/><path d="M12 1C8.676 1 6 3.676 6 7v5c0 3.324 2.676 6 6 6s6-2.676 6-6V7c0-3.324-2.676-6-6-6zm0 3c1.662 0 3 1.732 3 3.883v3.234C15 13.268 13.662 15 12 15s-3-1.732-3-3.883V7.883C9 5.732 10.338 4 12 4z" fill="#fff" fill-rule="evenodd"/></svg>