<svg xmlns="http://www.w3.org/2000/svg" viewBox="0 0 24 24"><path d="M12 2C8.676 2 6 4.676 6 8v5c0 3.324 2.676 6 6 6s6-2.676 6-6V8c0-3.324-2.676-6-6-6zm0 3c1.662 0 3 1.732 3 3.883v3.234C15 14.268 13.662 16 12 16s-3-1.732-3-3.883V8.883C9 6.732 10.338 5 12 5z" opacity=".7" fill-rule="evenodd" stroke="#000" stroke-width="2" stroke-linecap="round" stroke-linejoin="round"/><path d="M5 21v1h14v-1z" opacity=".7" stroke="#000" stroke-width="2" stroke-linejoin="round"/><path d="M5 21h14v1H5z" fill="#fff"/><path d="M12 2C8.676 2 6 4.676 6 8v5c0 3.324 2.676 6 6 6s6-2.676 6-6V8c0-3.324-2.676-6-6-6zm0 3c1.662 0 3 1.732 3 3.883v3.234C15 14.268 13.662 16 12 16s-3-1.732-3-3.883V8.883C9 6.732 10.338 5 12 5z" fill="#fff" fill-rule="evenodd"/></svg>