<svg xmlns="http://www.w3.org/2000/svg" viewBox="0 0 16 16"><path d="M2 15v-1h12v1zm6-2c-2.216 0-4-1.784-4-4V5c0-2.216 1.784-4 4-4s4 1.784 4 4v4c0 2.216-1.784 4-4 4zm-.5-2h1c.831 0 1.5-.892 1.5-2V5c0-1.108-.669-2-1.5-2h-1C6.669 3 6 3.892 6 5v4c0 1.108.669 2 1.5 2z" opacity=".7" stroke="#000" stroke-width="2" stroke-linejoin="round"/><path fill="#fff" d="M2 15h12v-1H2zM8 13c-2.216 0-4-1.784-4-4V5c0-2.216 1.784-4 4-4s4 1.784 4 4v4c0 2.216-1.784 4-4 4zm-.5-2h1c.831 0 1.5-.892 1.5-2V5c0-1.108-.669-2-1.5-2h-1C6.669 3 6 3.892 6 5v4c0 1.108.669 2 1.5 2z"/></svg>