<svg xmlns="http://www.w3.org/2000/svg" viewBox="0 0 24 24"><path d="M6.996 4L5 20h5.559c1.216 0 2.341-.22 3.377-.658a7.715 7.715 0 002.673-1.863c.748-.804 1.331-1.765 1.75-2.885.428-1.129.641-2.375.641-3.739 0-1.006-.151-1.93-.455-2.775a6.102 6.102 0 00-1.283-2.168 5.776 5.776 0 00-2.033-1.4C14.439 4.17 13.549 4 12.555 4zM8.97 5.729h3.377c.69 0 1.305.121 1.847.365.55.235 1.015.577 1.393 1.023.386.447.678.99.875 1.631.205.641.309 1.36.309 2.156 0 1.153-.148 2.183-.444 3.092-.287.91-.695 1.681-1.22 2.315s-1.16 1.12-1.899 1.46c-.74.333-1.552.5-2.44.5H7.403z" stroke="#000" opacity=".7" stroke-width="2" stroke-linejoin="round"/><path d="M6.996 4L5 20h5.559c1.216 0 2.341-.22 3.377-.658a7.715 7.715 0 002.673-1.863c.748-.804 1.331-1.765 1.75-2.885.428-1.129.641-2.375.641-3.739 0-1.006-.151-1.93-.455-2.775a6.102 6.102 0 00-1.283-2.168 5.776 5.776 0 00-2.033-1.4C14.439 4.17 13.549 4 12.555 4zM8.97 5.729h3.377c.69 0 1.305.121 1.847.365.55.235 1.015.577 1.393 1.023.386.447.678.99.875 1.631.205.641.309 1.36.309 2.156 0 1.153-.148 2.183-.444 3.092-.287.91-.695 1.681-1.22 2.315s-1.16 1.12-1.899 1.46c-.74.333-1.552.5-2.44.5H7.403z" fill="#fff"/></svg>