<svg xmlns="http://www.w3.org/2000/svg" xmlns:xlink="http://www.w3.org/1999/xlink" viewBox="0 0 24 24"><defs><linearGradient id="a"><stop offset="0" stop-color="#151515"/><stop offset="1" stop-color="#4d4d4d"/></linearGradient><linearGradient xlink:href="#a" id="b" x1="12" y1="3" x2="12" y2="22" gradientUnits="userSpaceOnUse"/></defs><path d="M10 3L5 17h3l1.455-4h5.09L16 17h3L14 3h-4zm2 3l1.818 5h-3.636L12 6zM4 19v1h16v-1H4zm0 2v1h16v-1H4z" stroke="#fff" stroke-width="2" stroke-linejoin="round"/><path d="M10 3L5 17h3l1.455-4h5.09L16 17h3L14 3h-4zm2 3l1.818 5h-3.636L12 6zM4 19v1h16v-1H4zm0 2v1h16v-1H4z" fill="url(#b)"/></svg>