<svg xmlns="http://www.w3.org/2000/svg" width="22" height="22" viewBox="0 0 5.821 5.821"><path style="color:#000;font-style:normal;font-variant:normal;font-weight:400;font-stretch:normal;font-size:medium;line-height:normal;font-family:sans-serif;font-variant-ligatures:normal;font-variant-position:normal;font-variant-caps:normal;font-variant-numeric:normal;font-variant-alternates:normal;font-feature-settings:normal;text-indent:0;text-align:start;text-decoration:none;text-decoration-line:none;text-decoration-style:solid;text-decoration-color:#000;letter-spacing:normal;word-spacing:normal;text-transform:none;writing-mode:lr-tb;direction:ltr;text-orientation:mixed;dominant-baseline:auto;baseline-shift:baseline;text-anchor:start;white-space:normal;shape-padding:0;clip-rule:nonzero;display:inline;overflow:visible;visibility:visible;opacity:1;isolation:auto;mix-blend-mode:normal;color-interpolation:sRGB;color-interpolation-filters:linearRGB;solid-color:#000;solid-opacity:1;vector-effect:none;fill:#1463a5;fill-opacity:1;fill-rule:nonzero;stroke:none;stroke-width:2;stroke-linecap:butt;stroke-linejoin:round;stroke-miterlimit:4;stroke-dasharray:none;stroke-dashoffset:0;stroke-opacity:1;color-rendering:auto;image-rendering:auto;shape-rendering:auto;text-rendering:auto;enable-background:accumulate" d="M10.498-.002a1 1 0 0 0-.098.004 1 1 0 0 0-.287.074L.627 4.07l-.014.006a1 1 0 0 0-.092.043 1 1 0 0 0-.084.053 1 1 0 0 0-.08.06 1 1 0 0 0-.044.041 1 1 0 0 0-.04.038 1 1 0 0 0-.066.076 1 1 0 0 0-.049.068 1 1 0 0 0-.008.014 1 1 0 0 0-.048.088 1 1 0 0 0-.04.091A1 1 0 0 0 0 5.074v10.924a1 1 0 0 0 .531.887l9.5 4.998a1 1 0 0 0 .16.064 1 1 0 0 0 .83-.095l9.442-4.967a1 1 0 0 0 .539-.887V5a1 1 0 0 0-.008-.111 1 1 0 0 0-.014-.088 1 1 0 0 0-.001-.01 1 1 0 0 0-.59-.715l-9.5-4a1 1 0 0 0-.391-.078zm-.002 2.086 7.162 3.02-7.162 3.763-7.152-3.763 7.152-3.02zm8.506 4.783v8.526l-7.412 3.906.383-7.744 7.029-4.688zM2 6.875l7.027 4.68.385 7.744L2 15.393V6.875z" transform="scale(.26458)"/><path style="fill:#fff;stroke:none;stroke-width:.26458332px;stroke-linecap:butt;stroke-linejoin:miter;stroke-opacity:1;fill-opacity:1" d="m.265 295.412 2.38 1.323v-2.645l-2.38-1.323z" transform="translate(0 -291.18)"/><path d="m5.292 295.412-2.382 1.323v-2.645l2.382-1.323z" style="fill:#b6b6b6;stroke:none;stroke-width:.26458332px;stroke-linecap:butt;stroke-linejoin:miter;stroke-opacity:1;fill-opacity:1" transform="translate(0 -291.18)"/><path style="fill:#fff;fill-opacity:1;stroke:none;stroke-width:.26458332px;stroke-linecap:butt;stroke-linejoin:miter;stroke-opacity:1" d="m.397 292.502 2.381 1.323 2.381-1.323-2.38-1.058z" transform="translate(0 -291.18)"/></svg>