<?xml version="1.0" encoding="UTF-8" standalone="no"?>
<svg
   xmlns:dc="http://purl.org/dc/elements/1.1/"
   xmlns:cc="http://creativecommons.org/ns#"
   xmlns:rdf="http://www.w3.org/1999/02/22-rdf-syntax-ns#"
   xmlns:svg="http://www.w3.org/2000/svg"
   xmlns="http://www.w3.org/2000/svg"
   xmlns:xlink="http://www.w3.org/1999/xlink"
   xmlns:sodipodi="http://sodipodi.sourceforge.net/DTD/sodipodi-0.dtd"
   xmlns:inkscape="http://www.inkscape.org/namespaces/inkscape"
   height="52"
   viewBox="0 0 60 52"
   width="60"
   version="1.1"
   id="svg50"
   sodipodi:docname="pyramindhoripercent_52x60.svg"
   inkscape:version="1.0.1 (3bc2e813f5, 2020-09-07)">
  <metadata
     id="metadata56">
    <rdf:RDF>
      <cc:Work
         rdf:about="">
        <dc:format>image/svg+xml</dc:format>
        <dc:type
           rdf:resource="http://purl.org/dc/dcmitype/StillImage" />
      </cc:Work>
    </rdf:RDF>
  </metadata>
  <defs
     id="defs54" />
  <sodipodi:namedview
     pagecolor="#ffffff"
     bordercolor="#666666"
     borderopacity="1"
     objecttolerance="10"
     gridtolerance="10"
     guidetolerance="10"
     inkscape:pageopacity="0"
     inkscape:pageshadow="2"
     inkscape:window-width="1920"
     inkscape:window-height="1016"
     id="namedview52"
     showgrid="false"
     inkscape:zoom="16.923077"
     inkscape:cx="30"
     inkscape:cy="26"
     inkscape:window-x="0"
     inkscape:window-y="27"
     inkscape:window-maximized="1"
     inkscape:current-layer="svg50"
     inkscape:document-rotation="0" />
  <linearGradient
     id="a">
    <stop
       offset="0"
       stop-color="#e95420"
       id="stop2" />
    <stop
       offset="1"
       stop-color="#fe865c"
       id="stop4" />
  </linearGradient>
  <linearGradient
     id="b"
     gradientTransform="matrix(0,1.6666667,-1.4,0,1469.9069,-45)"
     gradientUnits="userSpaceOnUse"
     x1="49.5"
     x2="49.5"
     xlink:href="#c"
     y1="1046.3621"
     y2="1016.3621" />
  <linearGradient
     id="c">
    <stop
       offset="0"
       stop-color="#77216F"
       id="stop8" />
    <stop
       offset="1"
       stop-color="#a25f9e"
       id="stop10" />
  </linearGradient>
  <linearGradient
     id="d"
     gradientTransform="matrix(0,2,-1.5,0,1574.5433,2.9996)"
     gradientUnits="userSpaceOnUse"
     x1="16.500004"
     x2="16.500004"
     xlink:href="#a"
     y1="1046.3622"
     y2="1028.3622" />
  <linearGradient
     id="e"
     gradientTransform="matrix(0,1.6666667,-1.4,0,1469.9069,-65)"
     gradientUnits="userSpaceOnUse"
     x1="49.5"
     x2="49.5"
     xlink:href="#c"
     y1="1046.3621"
     y2="1016.3621" />
  <linearGradient
     id="f"
     gradientTransform="matrix(0,2,-0.94444444,0,993.23097,-17.0004)"
     gradientUnits="userSpaceOnUse"
     x1="16.500004"
     x2="16.500004"
     xlink:href="#a"
     y1="1046.3622"
     y2="1028.3622" />
  <path
     d="m 0,0 h 60 v 52 h -60 z"
     fill="#ffffff"
     id="path16" />
  <path
     d="m 12,40 -9,9"
     fill="none"
     stroke="#232629"
     id="path18" />
  <path
     d="m 11,40.0062 h 46 v 0.9874 h -46 z"
     fill="#232629"
     id="path20" />
  <path
     d="m 11,1 h 1 v 40 h -1 z"
     fill="#232629"
     id="path22" />
  <path
     d="m 53,37 -48,8 v -15 z"
     fill="url(#b)"
     id="path24"
     style="fill:#607142;fill-opacity:1" />
  <path
     d="m 53,37 -48,-7 3,-3 z"
     fill="#987197"
     fill-rule="evenodd"
     id="path26"
     style="fill:#8da465;fill-opacity:1" />
  <path
     d="m 5,30 v 15 l 27,-4.5 v -6.5625 z"
     fill="url(#d)"
     id="path28"
     style="fill:#95a96f;fill-opacity:1" />
  <path
     d="m 8,27 -3,3 27.054688,3.945312 1.308593,-1.308593 z"
     fill="#fe865c"
     fill-rule="evenodd"
     id="path30"
     style="fill:#bdcaa5;fill-opacity:1" />
  <path
     d="m 53,17 -48,8 v -15 z"
     fill="url(#e)"
     id="path32"
     style="fill:#607142;fill-opacity:1" />
  <path
     d="m 53,17 -48,-7 3,-3 z"
     fill="#987197"
     fill-rule="evenodd"
     id="path34"
     style="fill:#8da465;fill-opacity:1" />
  <path
     d="m 8,7 -3,3 14,2 2.091797,-2.0917969 z"
     fill="#fe865c"
     fill-rule="evenodd"
     id="path36"
     style="fill:#bdcaa5;fill-opacity:1" />
  <path
     d="m 5,10 v 15 l 14,-2.333984 v -10.625 z"
     fill="url(#f)"
     id="path38"
     style="fill:#95a96f;fill-opacity:1" />
  <g
     fill="#ffffff"
     transform="translate(-29,-738.3622)"
     id="g46">
    <path
       d="m 38,771.8621 a 2,2 0 0 0 -2,2 2,2 0 0 0 2,2 2,2 0 0 0 2,-2 2,2 0 0 0 -2,-2 z m 0,1 a 1,1 0 0 1 1,1 1,1 0 0 1 -1,1 1,1 0 0 1 -1,-1 1,1 0 0 1 1,-1 z"
       id="path40" />
    <path
       d="m 42,775.8621 a 2,2 0 0 0 -2,2 2,2 0 0 0 2,2 2,2 0 0 0 2,-2 2,2 0 0 0 -2,-2 z m 0,1 a 1,1 0 0 1 1,1 1,1 0 0 1 -1,1 1,1 0 0 1 -1,-1 1,1 0 0 1 1,-1 z"
       id="path42" />
    <path
       d="m 42.59961,771.5624 -6,8 0.80078,0.5996 6,-8 z"
       fill-rule="evenodd"
       id="path44" />
  </g>
</svg>
