<?xml version="1.0" encoding="UTF-8" standalone="no"?>
<svg
   xmlns:dc="http://purl.org/dc/elements/1.1/"
   xmlns:cc="http://creativecommons.org/ns#"
   xmlns:rdf="http://www.w3.org/1999/02/22-rdf-syntax-ns#"
   xmlns:svg="http://www.w3.org/2000/svg"
   xmlns="http://www.w3.org/2000/svg"
   xmlns:sodipodi="http://sodipodi.sourceforge.net/DTD/sodipodi-0.dtd"
   xmlns:inkscape="http://www.inkscape.org/namespaces/inkscape"
   height="52"
   viewBox="0 0 60 52"
   width="60"
   version="1.1"
   id="svg132"
   sodipodi:docname="stackdirect3d_52x60.svg"
   inkscape:version="1.0.1 (3bc2e813f5, 2020-09-07)">
  <metadata
     id="metadata138">
    <rdf:RDF>
      <cc:Work
         rdf:about="">
        <dc:format>image/svg+xml</dc:format>
        <dc:type
           rdf:resource="http://purl.org/dc/dcmitype/StillImage" />
      </cc:Work>
    </rdf:RDF>
  </metadata>
  <defs
     id="defs136" />
  <sodipodi:namedview
     pagecolor="#ffffff"
     bordercolor="#666666"
     borderopacity="1"
     objecttolerance="10"
     gridtolerance="10"
     guidetolerance="10"
     inkscape:pageopacity="0"
     inkscape:pageshadow="2"
     inkscape:window-width="1920"
     inkscape:window-height="1016"
     id="namedview134"
     showgrid="false"
     inkscape:zoom="11.313709"
     inkscape:cx="45.792438"
     inkscape:cy="13.627791"
     inkscape:window-x="0"
     inkscape:window-y="27"
     inkscape:window-maximized="1"
     inkscape:current-layer="svg132" />
  <path
     d="m 0,0 h 60 v 52 h -60 z"
     fill="#ffffff"
     id="path2" />
  <path
     d="m 24,12 -12,11 v -1 l 14,-14 z"
     fill="#945c93"
     id="path4"
     style="fill-rule:evenodd;fill:#94ab6e;fill-opacity:1" />
  <path
     d="m 36,15 -13,-4 3,-3 13,4 z"
     fill="#987197"
     id="path6"
     style="fill-rule:evenodd;fill:#94ab6e;fill-opacity:1" />
  <path
     d="m 50,7 -13,8 h -1 l 3,-3 14,-9 z"
     fill="#945c93"
     id="path8"
     style="fill-rule:evenodd;fill:#94ab6e;fill-opacity:1" />
  <path
     d="m 50,25 h -14 l 3,-3 h 14 z"
     fill="#fe865c"
     id="path10"
     style="fill-rule:evenodd;fill:#c4d0ae;fill-opacity:1" />
  <path
     d="m 36,26 -12,3 3,-3 12,-4 z"
     fill="#fe865c"
     id="path12"
     style="fill-rule:evenodd;fill:#c4d0ae;fill-opacity:1" />
  <path
     d="m 24,29 -12,8 3,-3 12,-8 z"
     fill="#fe865c"
     id="path14"
     style="fill-rule:evenodd;fill:#c4d0ae;fill-opacity:1" />
  <path
     d="m 36.425781,24.9991 -13.142578,4.0449 -12.060547,8.0391 0.554688,0.832 11.939453,-7.9589 12.859375,-3.9571 h 12.923828 v -1 z"
     fill="#e95420"
     id="path16"
     style="fill-rule:evenodd;fill:#95a96f;fill-opacity:1" />
  <path
     d="m 3,45 h 52 v 1 h -52 z"
     fill="#232629"
     id="path20" />
  <path
     d="m 6,3 h 1 v 46 h -1 z"
     fill="#232629"
     id="path22" />
  <g
     fill="#e95420"
     id="g32"
     transform="translate(0,-1000.3622)"
     style="fill:#95a96f;fill-opacity:1">
    <path
       d="m 48,1025.3622 h 1 v 1 h -1 z"
       id="path24"
       style="fill:#95a96f;fill-opacity:1" />
    <path
       d="m 49,1024.3622 h 1 v 1 h -1 z"
       id="path26"
       style="fill:#95a96f;fill-opacity:1" />
    <path
       d="m 49,1026.3622 h 1 v 1 h -1 z"
       id="path28"
       style="fill:#95a96f;fill-opacity:1" />
    <path
       d="m 50,1025.3622 h 1 v 1 h -1 z"
       id="path30"
       style="fill:#95a96f;fill-opacity:1" />
  </g>
  <path
     d="m 49,25 h 1 v 1 h -1 z"
     fill="#ffffff"
     id="path34" />
  <g
     fill="#e95420"
     id="g44"
     transform="translate(0,-1000.3622)"
     style="fill:#95a96f;fill-opacity:1">
    <path
       d="m 35,1025.3622 h 1 v 1 h -1 z"
       id="path36"
       style="fill:#95a96f;fill-opacity:1" />
    <path
       d="m 36,1024.3622 h 1 v 1 h -1 z"
       id="path38"
       style="fill:#95a96f;fill-opacity:1" />
    <path
       d="m 36,1026.3622 h 1 v 1 h -1 z"
       id="path40"
       style="fill:#95a96f;fill-opacity:1" />
    <path
       d="m 37,1025.3622 h 1 v 1 h -1 z"
       id="path42"
       style="fill:#95a96f;fill-opacity:1" />
  </g>
  <path
     d="m 36,25 h 1 v 1 h -1 z"
     fill="#ffffff"
     id="path46" />
  <g
     fill="#e95420"
     id="g56"
     transform="translate(0,-1000.3622)"
     style="fill:#95a96f;fill-opacity:1">
    <path
       d="m 10,1037.3622 h 1 v 1 h -1 z"
       id="path48"
       style="fill:#95a96f;fill-opacity:1" />
    <path
       d="m 11,1036.3622 h 1 v 1 h -1 z"
       id="path50"
       style="fill:#95a96f;fill-opacity:1" />
    <path
       d="m 11,1038.3622 h 1 v 1 h -1 z"
       id="path52"
       style="fill:#95a96f;fill-opacity:1" />
    <path
       d="m 12,1037.3622 h 1 v 1 h -1 z"
       id="path54"
       style="fill:#95a96f;fill-opacity:1" />
  </g>
  <path
     d="m 11,37 h 1 v 1 h -1 z"
     fill="#ffffff"
     id="path58" />
  <g
     fill="#e95420"
     id="g68"
     transform="translate(0,-1000.3622)"
     style="fill:#95a96f;fill-opacity:1">
    <path
       d="m 22,1029.3622 h 1 v 1 h -1 z"
       id="path60"
       style="fill:#95a96f;fill-opacity:1" />
    <path
       d="m 23,1028.3622 h 1 v 1 h -1 z"
       id="path62"
       style="fill:#95a96f;fill-opacity:1" />
    <path
       d="m 23,1030.3622 h 1 v 1 h -1 z"
       id="path64"
       style="fill:#95a96f;fill-opacity:1" />
    <path
       d="m 24,1029.3622 h 1 v 1 h -1 z"
       id="path66"
       style="fill:#95a96f;fill-opacity:1" />
  </g>
  <path
     d="m 23,29 h 1 v 1 h -1 z"
     fill="#ffffff"
     id="path70" />
  <path
     d="m 49.214844,6.089 -12.800782,8.8613 -13.054687,-4.0156 -12.212891,12.2129 0.707032,0.707 11.787109,-11.7871 12.943359,3.9824 13.199219,-9.1387 z"
     fill="#77216f"
     fill-rule="evenodd"
     id="path72"
     style="fill:#607142;fill-opacity:1" />
  <g
     fill="#77216f"
     id="g82"
     transform="translate(-5,-1001.3622)"
     style="fill:#607142;fill-opacity:1">
    <path
       d="m 27,1011.3622 h 1 v 1 h -1 z"
       id="path74"
       style="fill:#607142;fill-opacity:1" />
    <path
       d="m 29,1011.3622 h 1 v 1 h -1 z"
       id="path76"
       style="fill:#607142;fill-opacity:1" />
    <path
       d="m 27,1013.3622 h 1 v 1 h -1 z"
       id="path78"
       style="fill:#607142;fill-opacity:1" />
    <path
       d="m 29,1013.3622 h 1 v 1 h -1 z"
       id="path80"
       style="fill:#607142;fill-opacity:1" />
  </g>
  <path
     d="m 23,10 v 1 h -1 v 1 h 1 v 1 h 1 v -1 h 1 v -1 h -1 v -1 z"
     fill="#ffffff"
     id="path84" />
  <g
     fill="#77216f"
     id="g96"
     transform="translate(0,-1014.3622)"
     style="fill:#607142;fill-opacity:1">
    <path
       d="m 48,1019.3622 h 1 v 1 h -1 z"
       id="path88"
       style="fill:#607142;fill-opacity:1" />
    <path
       d="m 50,1019.3622 h 1 v 1 h -1 z"
       id="path90"
       style="fill:#607142;fill-opacity:1" />
    <path
       d="m 48,1021.3622 h 1 v 1 h -1 z"
       id="path92"
       style="fill:#607142;fill-opacity:1" />
    <path
       d="m 50,1021.3622 h 1 v 1 h -1 z"
       id="path94"
       style="fill:#607142;fill-opacity:1" />
  </g>
  <path
     d="m 49,5 v 1 h -1 v 1 h 1 v 1 h 1 v -1 h 1 v -1 h -1 v -1 z"
     fill="#ffffff"
     id="path98" />
  <g
     fill="#77216f"
     id="g110"
     transform="translate(-4,-1021.3622)"
     style="fill:#607142;fill-opacity:1">
    <path
       d="m 39,1035.3622 h 1 v 1 h -1 z"
       id="path102"
       style="fill:#607142;fill-opacity:1" />
    <path
       d="m 41,1035.3622 h 1 v 1 h -1 z"
       id="path104"
       style="fill:#607142;fill-opacity:1" />
    <path
       d="m 39,1037.3622 h 1 v 1 h -1 z"
       id="path106"
       style="fill:#607142;fill-opacity:1" />
    <path
       d="m 41,1037.3622 h 1 v 1 h -1 z"
       id="path108"
       style="fill:#607142;fill-opacity:1" />
  </g>
  <path
     d="m 36,14 v 1 h -1 v 1 h 1 v 1 h 1 v -1 h 1 v -1 h -1 v -1 z"
     fill="#ffffff"
     id="path112"
     style="fill:#ffffff;fill-opacity:1" />
  <g
     fill="#77216f"
     id="g124"
     transform="translate(0,-1012.3622)"
     style="fill:#607142;fill-opacity:1">
    <path
       d="m 10,1034.3622 h 1 v 1 h -1 z"
       id="path116"
       style="fill:#607142;fill-opacity:1" />
    <path
       d="m 12,1034.3622 h 1 v 1 h -1 z"
       id="path118"
       style="fill:#607142;fill-opacity:1" />
    <path
       d="m 10,1036.3622 h 1 v 1 h -1 z"
       id="path120"
       style="fill:#607142;fill-opacity:1" />
    <path
       d="m 12,1036.3622 h 1 v 1 h -1 z"
       id="path122"
       style="fill:#607142;fill-opacity:1" />
  </g>
  <path
     d="m 11,22 v 1 h -1 v 1 h 1 v 1 h 1 v -1 h 1 v -1 h -1 v -1 z"
     fill="#ffffff"
     id="path126" />
</svg>
