<?xml version="1.0" encoding="UTF-8" standalone="no"?>
<svg
   xmlns:dc="http://purl.org/dc/elements/1.1/"
   xmlns:cc="http://creativecommons.org/ns#"
   xmlns:rdf="http://www.w3.org/1999/02/22-rdf-syntax-ns#"
   xmlns:svg="http://www.w3.org/2000/svg"
   xmlns="http://www.w3.org/2000/svg"
   xmlns:sodipodi="http://sodipodi.sourceforge.net/DTD/sodipodi-0.dtd"
   xmlns:inkscape="http://www.inkscape.org/namespaces/inkscape"
   height="52"
   viewBox="0 0 60 52"
   width="60"
   version="1.1"
   id="svg114"
   sodipodi:docname="stackdirectpoints_52x60.svg"
   inkscape:version="1.0.1 (3bc2e813f5, 2020-09-07)">
  <metadata
     id="metadata120">
    <rdf:RDF>
      <cc:Work
         rdf:about="">
        <dc:format>image/svg+xml</dc:format>
        <dc:type
           rdf:resource="http://purl.org/dc/dcmitype/StillImage" />
      </cc:Work>
    </rdf:RDF>
  </metadata>
  <defs
     id="defs118" />
  <sodipodi:namedview
     pagecolor="#ffffff"
     bordercolor="#666666"
     borderopacity="1"
     objecttolerance="10"
     gridtolerance="10"
     guidetolerance="10"
     inkscape:pageopacity="0"
     inkscape:pageshadow="2"
     inkscape:window-width="1920"
     inkscape:window-height="1016"
     id="namedview116"
     showgrid="false"
     inkscape:zoom="16.923077"
     inkscape:cx="42.789778"
     inkscape:cy="20.326469"
     inkscape:window-x="1920"
     inkscape:window-y="27"
     inkscape:window-maximized="1"
     inkscape:current-layer="svg114" />
  <path
     d="m 0,0 h 60 v 52 h -60 z"
     fill="#ffffff"
     id="path2" />
  <path
     d="m 3,45 h 52 v 1 h -52 z"
     fill="#232629"
     id="path4" />
  <path
     d="m 6,3 h 1 v 46 h -1 z"
     fill="#232629"
     id="path6" />
  <g
     fill="#e95420"
     id="g16"
     transform="translate(0,-1000.3622)"
     style="fill:#95a96f;fill-opacity:1">
    <path
       d="m 48,1025.3622 h 1 v 1 h -1 z"
       id="path8"
       style="fill:#95a96f;fill-opacity:1" />
    <path
       d="m 49,1024.3622 h 1 v 1 h -1 z"
       id="path10"
       style="fill:#95a96f;fill-opacity:1" />
    <path
       d="m 49,1026.3622 h 1 v 1 h -1 z"
       id="path12"
       style="fill:#95a96f;fill-opacity:1" />
    <path
       d="m 50,1025.3622 h 1 v 1 h -1 z"
       id="path14"
       style="fill:#95a96f;fill-opacity:1" />
  </g>
  <path
     d="m 49,25 h 1 v 1 h -1 z"
     fill="#ffffff"
     id="path18" />
  <g
     fill="#e95420"
     id="g28"
     transform="translate(0,-1000.3622)"
     style="fill:#95a96f;fill-opacity:1">
    <path
       d="m 35,1025.3622 h 1 v 1 h -1 z"
       id="path20"
       style="fill:#95a96f;fill-opacity:1" />
    <path
       d="m 36,1024.3622 h 1 v 1 h -1 z"
       id="path22"
       style="fill:#95a96f;fill-opacity:1" />
    <path
       d="m 36,1026.3622 h 1 v 1 h -1 z"
       id="path24"
       style="fill:#95a96f;fill-opacity:1" />
    <path
       d="m 37,1025.3622 h 1 v 1 h -1 z"
       id="path26"
       style="fill:#95a96f;fill-opacity:1" />
  </g>
  <path
     d="m 36,25 h 1 v 1 h -1 z"
     fill="#ffffff"
     id="path30" />
  <g
     fill="#e95420"
     id="g40"
     transform="translate(0,-1000.3622)"
     style="fill:#95a96f;fill-opacity:1">
    <path
       d="m 10,1037.3622 h 1 v 1.0001 h -1 z"
       id="path32"
       style="fill:#95a96f;fill-opacity:1" />
    <path
       d="m 11,1036.3622 h 1 v 1 h -1 z"
       id="path34"
       style="fill:#95a96f;fill-opacity:1" />
    <path
       d="m 11,1038.3622 h 1 v 1.0001 h -1 z"
       id="path36"
       style="fill:#95a96f;fill-opacity:1" />
    <path
       d="m 12,1037.3622 h 1 v 1 h -1 z"
       id="path38"
       style="fill:#95a96f;fill-opacity:1" />
  </g>
  <path
     d="m 11,37 h 1 v 1 h -1 z"
     fill="#ffffff"
     id="path42" />
  <g
     fill="#e95420"
     id="g52"
     transform="translate(0,-1000.3622)"
     style="fill:#95a96f;fill-opacity:1">
    <path
       d="m 22,1029.3623 h 1 v 1 h -1 z"
       id="path44"
       style="fill:#95a96f;fill-opacity:1" />
    <path
       d="m 23,1028.3623 h 1 v 1 h -1 z"
       id="path46"
       style="fill:#95a96f;fill-opacity:1" />
    <path
       d="m 23,1030.3623 h 1 v 1 h -1 z"
       id="path48"
       style="fill:#95a96f;fill-opacity:1" />
    <path
       d="m 24,1029.3623 h 1 v 1 h -1 z"
       id="path50"
       style="fill:#95a96f;fill-opacity:1" />
  </g>
  <path
     d="m 23,29.0001 h 1 v 1 h -1 z"
     fill="#ffffff"
     id="path54" />
  <g
     fill="#77216f"
     id="g64"
     transform="translate(-5,-1001.3622)"
     style="fill:#607142;fill-opacity:1">
    <path
       d="m 27,1011.3622 h 1 v 1 h -1 z"
       id="path56"
       style="fill:#607142;fill-opacity:1" />
    <path
       d="m 29,1011.3622 h 1 v 1 h -1 z"
       id="path58"
       style="fill:#607142;fill-opacity:1" />
    <path
       d="m 27,1013.3622 h 1 v 1 h -1 z"
       id="path60"
       style="fill:#607142;fill-opacity:1" />
    <path
       d="m 29,1013.3622 h 1 v 1 h -1 z"
       id="path62"
       style="fill:#607142;fill-opacity:1" />
  </g>
  <path
     d="m 23,10 v 1 h -1 v 1 h 1 v 1 h 1 v -1 h 1 v -1 h -1 v -1 z"
     fill="#ffffff"
     id="path66" />
  <g
     fill="#77216f"
     id="g78"
     transform="translate(0,-1014.3622)"
     style="fill:#607142;fill-opacity:1">
    <path
       d="m 48,1019.3622 h 1 v 1 h -1 z"
       id="path70"
       style="fill:#607142;fill-opacity:1" />
    <path
       d="m 50,1019.3622 h 1 v 1 h -1 z"
       id="path72"
       style="fill:#607142;fill-opacity:1" />
    <path
       d="m 48,1021.3622 h 1 v 1 h -1 z"
       id="path74"
       style="fill:#607142;fill-opacity:1" />
    <path
       d="m 50,1021.3622 h 1 v 1 h -1 z"
       id="path76"
       style="fill:#607142;fill-opacity:1" />
  </g>
  <path
     d="m 49,5 v 1 h -1 v 1 h 1 v 1 h 1 v -1 h 1 v -1 h -1 v -1 z"
     fill="#ffffff"
     id="path80" />
  <g
     fill="#77216f"
     id="g92"
     transform="translate(-4,-1021.3622)"
     style="fill:#607142;fill-opacity:1">
    <path
       d="m 39,1035.3622 h 1 v 1 h -1 z"
       id="path84"
       style="fill:#607142;fill-opacity:1" />
    <path
       d="m 41,1035.3622 h 1 v 1 h -1 z"
       id="path86"
       style="fill:#607142;fill-opacity:1" />
    <path
       d="m 39,1037.3622 h 1 v 1 h -1 z"
       id="path88"
       style="fill:#607142;fill-opacity:1" />
    <path
       d="m 41,1037.3622 h 1 v 1 h -1 z"
       id="path90"
       style="fill:#607142;fill-opacity:1" />
  </g>
  <path
     d="m 36,14 v 1 h -1 v 1 h 1 v 1 h 1 v -1 h 1 v -1 h -1 v -1 z"
     fill="#ffffff"
     id="path94" />
  <g
     fill="#77216f"
     id="g106"
     transform="translate(0,-1012.3622)"
     style="fill:#607142;fill-opacity:1">
    <path
       d="m 10,1034.3622 h 1 v 1 h -1 z"
       id="path98"
       style="fill:#607142;fill-opacity:1" />
    <path
       d="m 12,1034.3622 h 1 v 1 h -1 z"
       id="path100"
       style="fill:#607142;fill-opacity:1" />
    <path
       d="m 10,1036.3622 h 1 v 1 h -1 z"
       id="path102"
       style="fill:#607142;fill-opacity:1" />
    <path
       d="m 12,1036.3622 h 1 v 1 h -1 z"
       id="path104"
       style="fill:#607142;fill-opacity:1" />
  </g>
  <path
     d="m 11,22 v 1 h -1 v 1 h 1 v 1 h 1 v -1 h 1 v -1 h -1 v -1 z"
     fill="#ffffff"
     id="path108" />
</svg>
