<?xml version="1.0" encoding="UTF-8" standalone="no"?>
<svg
   xmlns:dc="http://purl.org/dc/elements/1.1/"
   xmlns:cc="http://creativecommons.org/ns#"
   xmlns:rdf="http://www.w3.org/1999/02/22-rdf-syntax-ns#"
   xmlns:svg="http://www.w3.org/2000/svg"
   xmlns="http://www.w3.org/2000/svg"
   xmlns:sodipodi="http://sodipodi.sourceforge.net/DTD/sodipodi-0.dtd"
   xmlns:inkscape="http://www.inkscape.org/namespaces/inkscape"
   height="52"
   viewBox="0 0 60 52"
   width="60"
   version="1.1"
   id="svg52"
   sodipodi:docname="valueaxissteppedboth_52x60.svg"
   inkscape:version="1.0.1 (3bc2e813f5, 2020-09-07)">
  <metadata
     id="metadata58">
    <rdf:RDF>
      <cc:Work
         rdf:about="">
        <dc:format>image/svg+xml</dc:format>
        <dc:type
           rdf:resource="http://purl.org/dc/dcmitype/StillImage" />
      </cc:Work>
    </rdf:RDF>
  </metadata>
  <defs
     id="defs56" />
  <sodipodi:namedview
     pagecolor="#ffffff"
     bordercolor="#666666"
     borderopacity="1"
     objecttolerance="10"
     gridtolerance="10"
     guidetolerance="10"
     inkscape:pageopacity="0"
     inkscape:pageshadow="2"
     inkscape:window-width="1920"
     inkscape:window-height="1016"
     id="namedview54"
     showgrid="false"
     inkscape:zoom="16.923077"
     inkscape:cx="30"
     inkscape:cy="26"
     inkscape:window-x="0"
     inkscape:window-y="27"
     inkscape:window-maximized="1"
     inkscape:current-layer="svg52" />
  <path
     d="m0 0h60v52h-60z"
     fill="#fff"
     id="path2" />
  <path
     d="m3 45h52v1h-52z"
     fill="#232629"
     id="path4" />
  <path
     d="m6 3h1v45.999962h-1z"
     fill="#232629"
     id="path6" />
  <g
     fill="#e95420"
     id="g28"
     style="fill:#95a96f;fill-opacity:1">
    <path
       d="m19 7h3v3h-3z"
       id="path8"
       style="fill:#95a96f;fill-opacity:1" />
    <path
       d="m10 20h3v3h-3z"
       id="path10"
       style="fill:#95a96f;fill-opacity:1" />
    <path
       d="m33 32h3v3h-3z"
       id="path12"
       style="fill:#95a96f;fill-opacity:1" />
    <path
       d="m48 28h3v3h-3z"
       id="path14"
       style="fill:#95a96f;fill-opacity:1" />
    <path
       d="m11 8h10v1h-10z"
       id="path16"
       style="fill:#95a96f;fill-opacity:1" />
    <path
       d="m11 8h1v14h-1z"
       id="path18"
       style="fill:#95a96f;fill-opacity:1" />
    <path
       d="m11 21h24v1h-24z"
       id="path20"
       style="fill:#95a96f;fill-opacity:1" />
    <path
       d="m34 21h1v13h-1z"
       id="path22"
       style="fill:#95a96f;fill-opacity:1" />
    <path
       d="m34 33h16v1h-16z"
       id="path24"
       style="fill:#95a96f;fill-opacity:1" />
    <path
       d="m49 29h1v5h-1z"
       id="path26"
       style="fill:#95a96f;fill-opacity:1" />
  </g>
  <g
     fill="#77216F"
     id="g50"
     style="fill:#607142;fill-opacity:1">
    <path
       d="m48 19h3v3h-3z"
       id="path30"
       style="fill:#607142;fill-opacity:1" />
    <path
       d="m39 35h3v3h-3z"
       id="path32"
       style="fill:#607142;fill-opacity:1" />
    <path
       d="m27 11h3v3h-3z"
       id="path34"
       style="fill:#607142;fill-opacity:1" />
    <path
       d="m10 34h3v3h-3z"
       id="path36"
       style="fill:#607142;fill-opacity:1" />
    <path
       d="m11 35h17v1h-17z"
       id="path38"
       style="fill:#607142;fill-opacity:1" />
    <path
       d="m28 12h1v24h-1z"
       id="path40"
       style="fill:#607142;fill-opacity:1" />
    <path
       d="m28 12h22v1h-22z"
       id="path42"
       style="fill:#607142;fill-opacity:1" />
    <path
       d="m49 12h1v9h-1z"
       id="path44"
       style="fill:#607142;fill-opacity:1" />
    <path
       d="m40 20h10v1h-10z"
       id="path46"
       style="fill:#607142;fill-opacity:1" />
    <path
       d="m40 20h1v17h-1z"
       id="path48"
       style="fill:#607142;fill-opacity:1" />
  </g>
</svg>
