<?xml version="1.0" encoding="UTF-8" standalone="no"?>
<svg
   xmlns:dc="http://purl.org/dc/elements/1.1/"
   xmlns:cc="http://creativecommons.org/ns#"
   xmlns:rdf="http://www.w3.org/1999/02/22-rdf-syntax-ns#"
   xmlns:svg="http://www.w3.org/2000/svg"
   xmlns="http://www.w3.org/2000/svg"
   xmlns:sodipodi="http://sodipodi.sourceforge.net/DTD/sodipodi-0.dtd"
   xmlns:inkscape="http://www.inkscape.org/namespaces/inkscape"
   height="52"
   viewBox="0 0 60 52"
   width="60"
   version="1.1"
   id="svg66"
   sodipodi:docname="valueaxisstepped3d_52x60.svg"
   inkscape:version="1.0.1 (3bc2e813f5, 2020-09-07)">
  <metadata
     id="metadata72">
    <rdf:RDF>
      <cc:Work
         rdf:about="">
        <dc:format>image/svg+xml</dc:format>
        <dc:type
           rdf:resource="http://purl.org/dc/dcmitype/StillImage" />
      </cc:Work>
    </rdf:RDF>
  </metadata>
  <defs
     id="defs70" />
  <sodipodi:namedview
     pagecolor="#ffffff"
     bordercolor="#666666"
     borderopacity="1"
     objecttolerance="10"
     gridtolerance="10"
     guidetolerance="10"
     inkscape:pageopacity="0"
     inkscape:pageshadow="2"
     inkscape:window-width="1920"
     inkscape:window-height="1016"
     id="namedview68"
     showgrid="false"
     inkscape:zoom="33.846154"
     inkscape:cx="36.755294"
     inkscape:cy="31.226332"
     inkscape:window-x="0"
     inkscape:window-y="27"
     inkscape:window-maximized="1"
     inkscape:current-layer="svg66"
     inkscape:document-rotation="0" />
  <path
     d="m 0,0 h 60 v 52 h -60 z"
     fill="#ffffff"
     id="path2" />
  <path
     d="m 3,45 h 52 v 1 h -52 z"
     fill="#232629"
     id="path4" />
  <path
     d="m 6,3 h 1 v 46 h -1 z"
     fill="#232629"
     id="path6" />
  <path
     d="m 11,8 h 10 v 1 h -10 z"
     id="path8"
     style="fill:#95a96f;fill-opacity:1" />
  <path
     d="m 11,8 h 1 v 14 h -1 z"
     id="path10"
     style="fill:#95a96f;fill-opacity:1" />
  <path
     d="m 34,21 h 1 v 13 h -1 z"
     id="path12"
     style="fill:#95a96f;fill-opacity:1" />
  <path
     d="m 49,29 h 1 v 5 h -1 z"
     id="path14"
     style="fill:#95a96f;fill-opacity:1" />
  <path
     id="path18"
     style="fill:#607142;fill-opacity:1"
     d="M 28 12 L 28 13 L 28 35 L 11 35 L 11 36 L 28 36 L 29 36 L 29 13 L 49 13 L 49 20 L 40 20 L 40 21 L 40 37 L 41 37 L 41 21 L 50 21 L 50 20 L 50 12 L 28 12 z " />
  <path
     d="m 28,35 h -17 l 4,-3 h 13 z"
     fill="#987197"
     id="path32"
     style="fill-rule:evenodd;fill:#94ab6e;fill-opacity:1" />
  <path
     d="m 35,21 v 12 l 3,-3 v -12 z"
     fill="#fe865c"
     id="path34"
     style="fill-rule:evenodd;fill:#bdcaa5;fill-opacity:1" />
  <path
     d="m 29,13 v 23 l 3,-3 v -20 z"
     fill="#945c93"
     id="path36"
     style="fill-rule:evenodd;fill:#8da465;fill-opacity:1" />
  <path
     d="m 35,21 h -23 l 3,-3 h 23 z"
     fill="#fe865c"
     id="path38"
     style="fill-rule:evenodd;fill:#c4d0ae;fill-opacity:1" />
  <path
     d="m 50,29 v 5 l 3,-3 v -5 z"
     fill="#fe865c"
     id="path40"
     style="fill-rule:evenodd;fill:#bdcaa5;fill-opacity:1" />
  <path
     d="m 12,9 v 12 l 3,-3 v -9 z"
     fill="#fe865c"
     id="path42"
     style="fill-rule:evenodd;fill:#bdcaa5;fill-opacity:1" />
  <path
     d="m 14,5 -3,3 h 10 v -3 z"
     fill="#fe865c"
     id="path44"
     style="fill-rule:evenodd;fill:#c4d0ae;fill-opacity:1" />
  <path
     d="m 50,12 h -22 l 4,-3 h 21 z"
     fill="#987197"
     id="path46"
     style="fill-rule:evenodd;fill:#94ab6e;fill-opacity:1" />
  <path
     d="m 49,20 h -9 l 4,-3 h 5 z"
     fill="#987197"
     id="path48"
     style="fill-rule:evenodd;fill:#94ab6e;fill-opacity:1" />
  <path
     d="m 50,12 v 9 l 3,-3 v -9 z"
     id="path50"
     style="fill:#8da465;fill-rule:evenodd;fill-opacity:1" />
  <path
     d="m 41,21 v 16 l 3,-3 v -13 z"
     id="path52"
     style="fill:#8da465;fill-rule:evenodd;fill-opacity:1" />
  <path
     d="m 11,21 h 24 v 1 h -24 z"
     fill="#e95420"
     id="path58"
     style="fill:#95a96f;fill-opacity:1" />
  <path
     d="m 34,33 h 16 v 1 h -16 z"
     fill="#e95420"
     id="path60"
     style="fill:#95a96f;fill-opacity:1" />
  <path
     d="m 49,33 h -14 l 3,-3 h 11 z"
     fill="#fe865c"
     fill-rule="evenodd"
     id="path62"
     style="fill:#c4d0ae;fill-opacity:1" />
</svg>
