<?xml version="1.0" encoding="UTF-8" standalone="no"?>
<svg
   xmlns:dc="http://purl.org/dc/elements/1.1/"
   xmlns:cc="http://creativecommons.org/ns#"
   xmlns:rdf="http://www.w3.org/1999/02/22-rdf-syntax-ns#"
   xmlns:svg="http://www.w3.org/2000/svg"
   xmlns="http://www.w3.org/2000/svg"
   xmlns:sodipodi="http://sodipodi.sourceforge.net/DTD/sodipodi-0.dtd"
   xmlns:inkscape="http://www.inkscape.org/namespaces/inkscape"
   height="52"
   viewBox="0 0 60 52"
   width="60"
   version="1.1"
   id="svg24"
   sodipodi:docname="valueaxissmooth3d_52x60.svg"
   inkscape:version="1.0.1 (3bc2e813f5, 2020-09-07)">
  <metadata
     id="metadata30">
    <rdf:RDF>
      <cc:Work
         rdf:about="">
        <dc:format>image/svg+xml</dc:format>
        <dc:type
           rdf:resource="http://purl.org/dc/dcmitype/StillImage" />
      </cc:Work>
    </rdf:RDF>
  </metadata>
  <defs
     id="defs28" />
  <sodipodi:namedview
     pagecolor="#ffffff"
     bordercolor="#666666"
     borderopacity="1"
     objecttolerance="10"
     gridtolerance="10"
     guidetolerance="10"
     inkscape:pageopacity="0"
     inkscape:pageshadow="2"
     inkscape:window-width="1920"
     inkscape:window-height="1016"
     id="namedview26"
     showgrid="false"
     inkscape:zoom="16.923077"
     inkscape:cx="30"
     inkscape:cy="26"
     inkscape:window-x="0"
     inkscape:window-y="27"
     inkscape:window-maximized="1"
     inkscape:current-layer="svg24"
     inkscape:document-rotation="0" />
  <path
     d="m 0,0 h 60 v 52 h -60 z"
     fill="#ffffff"
     id="path2" />
  <path
     d="m 3,45 h 52 v 1 h -52 z"
     fill="#232629"
     id="path4" />
  <path
     d="m 6,3 h 1 v 46 h -1 z"
     fill="#232629"
     id="path6" />
  <path
     d="m 26.572394,12.825607 2.275262,-0.690841 -0.04687,0.04297 0.96875,0.419922 0.04297,-0.0625 c 14.358443,-1.5231 16.228283,3.648791 19.464844,8.087891 h 0.002 l 2.910016,-2.023467 c -1.178174,-6.85029 -18.423057,-10.9894266 -25.616972,-5.773975 z"
     fill="#945c93"
     fill-rule="evenodd"
     id="path8"
     style="fill:#8da465;fill-opacity:1" />
  <path
     d="m 28.31055,11.9102 h -0.002 l 0.53711,0.2246 h 0.002 z m 0.49218,0.2675 -0.3789,0.3536 c -11.038336,6.9488 -12.077352,15.1638 -16.60742,22.4277 l -0.002,0.8848 2.883929,-2.4196 c 4.002853,-8.3157 9.759405,-17.7357 15.071151,-20.8265 l -0.9668,-0.42 z m 1.00977,0.3575 c 21.962161,-2.268 19.061285,11.672 11.11523,24.1796 l 3.454912,-3.78 c 3.040567,-4.4695 8.311154,-9.1053 7.790413,-14.3944 -3.115459,1.6625 -3.201885,1.212 -5.516158,-1.8002 -4.691589,-3.2679 -9.200101,-4.8768 -16.844757,-4.2051 z"
     fill="#987197"
     fill-rule="evenodd"
     id="path10"
     style="fill:#8da465;fill-opacity:1" />
  <path
     d="m 11.5,35.5 c 0,0 8.831585,-20.6055 17,-23 8.168415,-2.3945 18.684412,1.6011 21,8 2.315588,6.3989 -9,16 -9,16"
     fill="none"
     stroke="#77216f"
     id="path12"
     style="stroke:#607142;stroke-opacity:1" />
  <path
     d="m 20.08984,8.2168 c -4.530888,3.2646 -8.341628,7.1021 -9.20117,13.2871 l -0.043,0.043 0.01,0.01 -0.0898,0.1289 23.60547,12.3144 -0.0137,0.014 0.0254,-0.01 0.0586,0.031 c 4.559693,-0.696 9.79363,-2.2685 15.1875,-4.0489 l -0.008,-0.027 0.0449,-0.012 2.6914,-3.1328 c -5.162442,1.7786 -10.775405,4.4929 -14.92969,4.1777 -9.385119,-2.718 -18.32609,-5.9143 -23.862496,-11.979 -0.894732,-3.6213 4.154796,-6.7202 6.434746,-10.0132 l 0.08986,-0.7812 z"
     fill="#fe865c"
     fill-rule="evenodd"
     id="path14"
     style="fill:#c4d0ae;fill-opacity:1" />
  <path
     d="m 14.88281,17.4941 -0.008,0.01 -0.79411,1.1845 z m -1.14997,1.6197 -2.03167,3.06 c 3.864703,5.9293 13.168652,8.9308 22.66992,11.8262 l -0.0137,0.014 0.0254,-0.01 0.0586,0.031 0.15039,-0.041 3.01172,-3.0508 -0.17579,0.049 c -9.100273,-2.9388 -18.23744,-5.7107 -23.69487,-11.8784 z"
     fill="#fe865c"
     fill-rule="evenodd"
     id="path16"
     style="fill:#c4d0ae;fill-opacity:1" />
  <path
     d="m 20.5,8.5 c 0,0 -10.6689045,6.2441 -9,13 1.668905,6.7559 16.130808,11.2403 23,12 6.869192,0.7597 15,-4 15,-4"
     fill="none"
     stroke="#e95420"
     id="path18"
     style="stroke:#95a96f;stroke-opacity:1" />
  <path
     d="m 60,0 h 60 v 52 h -60 z"
     fill="#ffffff"
     id="path20" />
</svg>
