<svg height="52" width="60" xmlns="http://www.w3.org/2000/svg" xmlns:xlink="http://www.w3.org/1999/xlink"><linearGradient id="b"><stop offset="0" stop-color="#88a05d"/><stop offset="1" stop-color="#fe865c"/></linearGradient><linearGradient id="c" gradientTransform="matrix(0 1.33333 -1.1 0 1158.998 969.362)" gradientUnits="userSpaceOnUse" x1="49.5" x2="49.5" xlink:href="#a" y1="1046.362" y2="1016.362"/><linearGradient id="a"><stop offset="0" stop-color="#77216F"/><stop offset="1" stop-color="#a25f9e"/></linearGradient><linearGradient id="d" gradientTransform="matrix(0 1.33333 -1.16667 0 1224.756 1017.362)" gradientUnits="userSpaceOnUse" x1="16.5" x2="16.5" xlink:href="#b" y1="1046.362" y2="1028.362"/><linearGradient id="e" gradientTransform="matrix(0 1.33333 -.9 0 949.726 951.362)" gradientUnits="userSpaceOnUse" x1="49.5" x2="49.5" xlink:href="#a" y1="1046.362" y2="1016.362"/><linearGradient id="f" gradientTransform="matrix(0 1.33333 -.5 0 527.181 999.362)" gradientUnits="userSpaceOnUse" x1="16.5" x2="16.5" xlink:href="#b" y1="1046.362" y2="1028.362"/><path d="M0 0h60v52H0z" fill="#fff"/><path d="M0 0h60v52H0z" fill="#fff"/><path d="M14 37L2 49" fill="none" stroke="#232629"/><path d="M13 37h46v.987H13z" fill="#232629"/><path d="M13 2h1v36h-1z" fill="#232629"/><path d="M41 1029.362v12H8v-12z" fill="url(#c)" transform="translate(0 -1000.362)"/><path d="M25 1033.362v12H4v-12z" fill="url(#d)" transform="translate(0 -1000.362)"/><path d="M35 1011.362v12H8v-12z" fill="url(#e)" transform="translate(0 -1000.362)"/><path d="M41 29H8l3-3h33z" fill="#987197" fill-rule="evenodd"/><path d="M13 1015.362v12H4v-12z" fill="url(#f)" transform="translate(0 -1000.362)"/><g fill-rule="evenodd"><path d="M25 33H4l3-3h21z" fill="#fe865c"/><path d="M41 29v12l3-3V26z" fill="#945c93"/><path d="M25 33v12l3-3V30zM13 15H4l3-3h9z" fill="#fe865c"/><path d="M13 15v12l3-3V12z" fill="#fe865c"/><path d="M35 11H8l3-3h27z" fill="#987197"/><path d="M35 11v12l3-3V8z" fill="#945c93"/></g></svg>