<svg height="52" width="60" xmlns="http://www.w3.org/2000/svg" xmlns:xlink="http://www.w3.org/1999/xlink"><linearGradient id="a"><stop offset="0" stop-color="#88a05d"/><stop offset="1" stop-color="#fe865c"/></linearGradient><linearGradient id="c" gradientTransform="matrix(0 1.66667 -1.44444 0 1516.412 989.362)" gradientUnits="userSpaceOnUse" x1="16.5" x2="16.5" xlink:href="#a" y1="1046.362" y2="1028.362"/><linearGradient id="d" gradientTransform="matrix(0 1.77778 -1.1 0 1164.998 949.362)" gradientUnits="userSpaceOnUse" x1="49.5" x2="49.5" xlink:href="#b" y1="1046.362" y2="1016.362"/><linearGradient id="b"><stop offset="0" stop-color="#77216F"/><stop offset="1" stop-color="#a25f9e"/></linearGradient><linearGradient id="e" gradientTransform="matrix(0 1.77778 -.5 0 528.181 1008.029)" gradientUnits="userSpaceOnUse" x1="16.5" x2="16.5" xlink:href="#a" y1="1046.362" y2="1028.362"/><linearGradient id="f" gradientTransform="matrix(0 1.66667 -.53333 0 589.06 934.362)" gradientUnits="userSpaceOnUse" x1="49.5" x2="49.5" xlink:href="#b" y1="1046.362" y2="1016.362"/><path d="M0 0h60v52H0z" fill="#fff"/><path d="M12 40l-9 9" fill="none" stroke="#232629"/><path d="M11 40.006h46v.988H11z" fill="#232629"/><path d="M11 1h1v40h-1z" fill="#232629"/><path d="M31 9H5l3-3h26z" fill="#fe865c" fill-rule="evenodd"/><path d="M31 1009.362v15H5v-15z" fill="url(#c)" transform="translate(0 -1000.362)"/><path d="M47 1029.362v16H14v-16z" fill="url(#d)" transform="translate(0 -1000.362)"/><path d="M14 29H5l3-3h9z" fill="#fe865c" fill-rule="evenodd"/><path d="M47 29v16l3-3V26z" fill="#945c93" fill-rule="evenodd"/><path d="M14 1029.362v16H5v-16z" fill="url(#e)" transform="translate(0 -1000.362)"/><path d="M47 9v15l3-3V6z" fill="#945c93" fill-rule="evenodd"/><path d="M47 1009.362v15H31v-15z" fill="url(#f)" transform="translate(0 -1000.362)"/><path d="M47 9H31l3-3h16zM47 29H14l3-3h33z" fill="#987197" fill-rule="evenodd"/><g fill="#fff"><path d="M39 12.5a2 2 0 00-2 2 2 2 0 002 2 2 2 0 002-2 2 2 0 00-2-2zm0 1a1 1 0 011 1 1 1 0 01-1 1 1 1 0 01-1-1 1 1 0 011-1zM43 16.5a2 2 0 00-2 2 2 2 0 002 2 2 2 0 002-2 2 2 0 00-2-2zm0 1a1 1 0 011 1 1 1 0 01-1 1 1 1 0 01-1-1 1 1 0 011-1z"/><path d="M43.6 12.2l-6 8 .8.6 6-8z" fill-rule="evenodd"/></g></svg>