<svg height="52" width="60" xmlns="http://www.w3.org/2000/svg" xmlns:xlink="http://www.w3.org/1999/xlink"><linearGradient id="a"><stop offset="0" stop-color="#e95420"/><stop offset="1" stop-color="#fe865c"/></linearGradient><linearGradient id="c" gradientTransform="matrix(0 1.66667 -1.44444 0 1516.412 1010.362)" gradientUnits="userSpaceOnUse" x1="16.5" x2="16.5" xlink:href="#a" y1="1046.362" y2="1028.362"/><linearGradient id="d" gradientTransform="matrix(0 1.66667 -.53333 0 589.06 955.362)" gradientUnits="userSpaceOnUse" x1="49.5" x2="49.5" xlink:href="#b" y1="1046.362" y2="1016.362"/><linearGradient id="b"><stop offset="0" stop-color="#762572"/><stop offset="1" stop-color="#a25f9e"/></linearGradient><linearGradient id="e" gradientTransform="matrix(0 1.66667 -.5 0 528.181 990.362)" gradientUnits="userSpaceOnUse" x1="16.5" x2="16.5" xlink:href="#a" y1="1046.362" y2="1028.362"/><linearGradient id="f" gradientTransform="matrix(0 1.66667 -.53333 0 572.06 935.362)" gradientUnits="userSpaceOnUse" x1="49.5" x2="49.5" xlink:href="#b" y1="1046.362" y2="1016.362"/><path d="M0 0h60v52H0z" fill="#fff"/><path d="M12 40l-9 9" fill="none" stroke="#232629"/><path d="M11 40.006h46v.988H11z" fill="#232629"/><path d="M11 1h1v40h-1z" fill="#232629"/><path d="M14 10H5l3-3h9z" fill="#fe865c" fill-rule="evenodd"/><path d="M31 1030.362v15H5v-15z" fill="url(#c)" transform="translate(0 -1000.362)"/><path d="M47 1030.362v15H31v-15z" fill="url(#d)" transform="translate(0 -1000.362)"/><path d="M31 30H5l3-3h26z" fill="#fe865c" fill-rule="evenodd"/><path d="M47 30v15l3-3V27z" fill="#945c93" fill-rule="evenodd"/><path d="M14 1010.362v15H5v-15z" fill="url(#e)" transform="translate(0 -1000.362)"/><path d="M30 10v15l3-3V7z" fill="#945c93" fill-rule="evenodd"/><path d="M30 1010.362v15H14v-15z" fill="url(#f)" transform="translate(0 -1000.362)"/><g fill="#987197" fill-rule="evenodd"><path d="M30 10H14l3-3h16zM47 30H31l3-3h16z"/></g></svg>