<svg height="52" width="60" xmlns="http://www.w3.org/2000/svg" xmlns:xlink="http://www.w3.org/1999/xlink"><linearGradient id="a"><stop offset="0" stop-color="#88a05d"/><stop offset="1" stop-color="#fe865c"/></linearGradient><linearGradient id="c" gradientTransform="matrix(0 -1.77778 -1.16667 0 1227.756 1063.695)" gradientUnits="userSpaceOnUse" x1="16.5" x2="16.5" xlink:href="#a" y1="1046.362" y2="1005.219"/><linearGradient id="d" gradientTransform="matrix(0 -1.77778 -.63333 0 690.696 1122.362)" gradientUnits="userSpaceOnUse" x1="49.5" x2="49.5" xlink:href="#b" y1="1079.52" y2="1003.731"/><linearGradient id="b"><stop offset="0" stop-color="#77216F"/><stop offset="1" stop-color="#a25f9e"/></linearGradient><linearGradient id="e" gradientTransform="matrix(0 -1.77778 -.66667 0 704.575 1043.696)" gradientUnits="userSpaceOnUse" x1="16.5" x2="16.5" xlink:href="#a" y1="1046.362" y2="974.362"/><linearGradient id="f" gradientTransform="matrix(0 -1.77778 -.5 0 542.181 1102.362)" gradientUnits="userSpaceOnUse" x1="49.5" x2="49.5" xlink:href="#b" y1="1070.362" y2="974.362"/><path d="M0 0h60v52H0z" fill="#fff"/><path d="M28 1042.362v-16H7v16z" fill="url(#c)" transform="translate(0 -1000.362)"/><path d="M47 1042.362v-16H28v16z" fill="url(#d)" transform="translate(0 -1000.362)"/><path d="M19 1022.362v-16H7v16z" fill="url(#e)" transform="translate(0 -1000.362)"/><path d="M34 1022.362v-16H19v16z" fill="url(#f)" transform="translate(0 -1000.362)"/><g fill="#232629"><path d="M3 45h52v1H3z"/><path d="M6 3h1v46H6z"/></g></svg>