<svg height="52" width="60" xmlns="http://www.w3.org/2000/svg" xmlns:xlink="http://www.w3.org/1999/xlink"><linearGradient id="a"><stop offset="0" stop-color="#88a05d"/><stop offset="1" stop-color="#fe865c"/></linearGradient><linearGradient id="c" gradientTransform="matrix(1.77778 0 0 .83333 -11.333 174.394)" gradientUnits="userSpaceOnUse" x1="15.938" x2="15.938" xlink:href="#a" y1="1046.362" y2="1028.362"/><linearGradient id="d" gradientTransform="matrix(1.77778 0 0 1.22222 10.667 -233.525)" gradientUnits="userSpaceOnUse" x1="15.938" x2="15.938" xlink:href="#a" y1="1046.362" y2="1028.362"/><linearGradient id="e" gradientTransform="matrix(1.77778 0 0 .5 -48 500.181)" gradientUnits="userSpaceOnUse" x1="50" x2="50.063" xlink:href="#b" y1="1046.362" y2="1016.362"/><linearGradient id="b"><stop offset="0" stop-color="#77216F"/><stop offset="1" stop-color="#a25f9e"/></linearGradient><linearGradient id="f" gradientTransform="matrix(1.77778 0 0 .76667 -70 229.151)" gradientUnits="userSpaceOnUse" x1="50.063" x2="50.063" xlink:href="#b" y1="1046.362" y2="1016.362"/><path d="M0 0h60v52H0z" fill="#fff"/><path d="M12 40l-9 9" fill="none" stroke="#232629"/><path d="M11 40.006h46v.988H11z" fill="#232629"/><path d="M11 3h1v38h-1z" fill="#232629"/><path d="M10 1031.362h16v15H10z" fill="url(#c)" transform="translate(0 -1000.362)"/><path d="M32 1023.362h16v22H32z" fill="url(#d)" transform="translate(0 -1000.362)"/><path d="M32 1008.362h16v15H32z" fill="url(#e)" transform="translate(0 -1000.362)"/><path d="M10 1008.362h16v23H10z" fill="url(#f)" transform="translate(0 -1000.362)"/><g fill-rule="evenodd"><path d="M26 8H10l4-3h15zM48 8H32l3-3h16z" fill="#987197"/><path d="M26 8v23l3-3V5zM48 8v15l3-3V5z" fill="#945c93"/><g fill="#fe865c"><path d="M48 23v22l3-3V20zM26 31v15l3-3V28z"/></g></g><g fill="#fff"><path d="M38 11.5a2 2 0 00-2 2 2 2 0 002 2 2 2 0 002-2 2 2 0 00-2-2zm0 1a1 1 0 011 1 1 1 0 01-1 1 1 1 0 01-1-1 1 1 0 011-1zM42 15.5a2 2 0 00-2 2 2 2 0 002 2 2 2 0 002-2 2 2 0 00-2-2zm0 1a1 1 0 011 1 1 1 0 01-1 1 1 1 0 01-1-1 1 1 0 011-1z"/><path d="M42.6 11.2l-6 8 .8.6 6-8z" fill-rule="evenodd"/></g></svg>