<svg xmlns="http://www.w3.org/2000/svg" height="52" width="60"><linearGradient id="a"><stop offset="0" stop-color="#e95420"/><stop offset="1" stop-color="#fe865c"/></linearGradient><linearGradient id="b"><stop offset="0" stop-color="#77216F"/><stop offset="1" stop-color="#945c93"/></linearGradient><path d="M0 0h60v52H0z" fill="#fff"/><path d="M12 40l-9 9" fill="none" stroke="#232629"/><path d="M11 40.006h46v.988H11z" fill="#232629"/><path d="M11 3h1v38h-1z" fill="#232629"/><path d="M16 24l-4.955 18.75A.837.837 0 0011 43c0 1.105 2.239 2 5 2s5-.895 5-2a.837.837 0 00-.045-.248zM41 14l-4.955 28.75A.837.837 0 0036 43c0 1.105 2.239 2 5 2s5-.895 5-2a.837.837 0 00-.045-.248z" fill="#95a96f"/><path d="M51 5l-4.955 37.75A.837.837 0 0046 43c0 1.105 2.239 2 5 2s5-.895 5-2a.837.837 0 00-.045-.248zM26 17l-4.955 25.75A.837.837 0 0021 43c0 1.105 2.239 2 5 2s5-.895 5-2a.837.837 0 00-.045-.248z" fill="#607142"/></svg>