<svg height="52" width="60" xmlns="http://www.w3.org/2000/svg" xmlns:xlink="http://www.w3.org/1999/xlink"><linearGradient id="b"><stop offset="0" stop-color="#88a05d"/><stop offset="1" stop-color="#945c93"/></linearGradient><linearGradient id="a"><stop offset="0" stop-color="#88a05d"/><stop offset="1" stop-color="#fe865c"/></linearGradient><linearGradient id="d" gradientUnits="userSpaceOnUse" x1="12" x2="12" xlink:href="#a" y1="1022.362" y2="1010.362"/><linearGradient id="f" gradientUnits="userSpaceOnUse" x1="12" x2="12" xlink:href="#a" y1="1040.362" y2="1028.362"/><linearGradient id="e" gradientUnits="userSpaceOnUse" x1="16" x2="16" xlink:href="#b" y1="1035.362" y2="1023.362"/><linearGradient id="c" gradientUnits="userSpaceOnUse" x1="16" x2="16" xlink:href="#b" y1="1017.362" y2="1005.362"/><g transform="translate(0 -1000.362)"><path d="M0 1000.362h60v52H0z" fill="#fff"/><path d="M0 1000.362h60v52H0z" fill="#fff"/><path d="M14 1037.362l-12 12" fill="none" stroke="#232629"/><path d="M13 1037.362h46v.988H13z" fill="#232629"/><path d="M13 1002.362h1v36h-1z" fill="#232629"/><path d="M11 1005.362c-1.657 0-3 2.687-3 6s1.343 6 3 6h32v-12z" fill="url(#c)"/><path d="M7 1010.362a3 6 0 00-3 6 3 6 0 003 6h12v-12z" fill="url(#d)"/><ellipse cx="1011.362" cy="-43" fill="#987197" rx="6" ry="3" transform="rotate(90)"/><ellipse cx="1016.362" cy="-19" fill="#fe865c" rx="6" ry="3" transform="rotate(90)"/><path d="M11 1023.362c-1.657 0-3 2.687-3 6s1.343 6 3 6h40v-12z" fill="url(#e)"/><path d="M7 1028.362c-1.657 0-3 2.686-3 6s1.343 6 3 6h26v-12z" fill="url(#f)"/><g transform="rotate(90)"><ellipse cx="1029.362" cy="-51" fill="#987197" rx="6" ry="3"/><ellipse cx="1034.362" cy="-33" fill="#fe865c" rx="6" ry="3"/></g></g></svg>