<svg xmlns="http://www.w3.org/2000/svg" height="52" width="60"><linearGradient id="b"><stop offset="0" stop-color="#77216F"/><stop offset="1" stop-color="#945c93"/></linearGradient><linearGradient id="a"><stop offset="0" stop-color="#e95420"/><stop offset="1" stop-color="#fe865c"/></linearGradient><path d="M0 0h60v52H0z" fill="#fff"/><path d="M0 0h60v52H0z" fill="#fff"/><path d="M14 37L2 49" fill="none" stroke="#232629"/><path d="M13 37h46v.987H13z" fill="#232629"/><path d="M13 2h1v36h-1z" fill="#232629"/><path d="M11 5c-1.657 0-3 2.686-3 6s1.343 6 3 6h32V5z" fill="#607142"/><path d="M7 10a3 6 0 00-3 6 3 6 0 003 6h12V10z" fill="#95a96f"/><ellipse cx="11" cy="-43" fill="#8da465" rx="6" ry="3" transform="rotate(90)"/><ellipse cx="16" cy="-19" fill="#bdcaa5" rx="6" ry="3" transform="rotate(90)"/><path d="M11 23c-1.657 0-3 2.686-3 6s1.343 6 3 6h40V23z" fill="#607142"/><path d="M7 28c-1.657 0-3 2.686-3 6s1.343 6 3 6h26V28z" fill="#95a96f"/><ellipse cx="29" cy="-51" fill="#8da465" rx="6" ry="3" transform="rotate(90)"/><ellipse cx="34" cy="-33" fill="#bdcaa5" rx="6" ry="3" transform="rotate(90)"/></svg>