<svg xmlns="http://www.w3.org/2000/svg" height="52" width="60"><path d="M0 0h60v52H0z" fill="#fff"/><path d="M3 45h52v1H3z" fill="#232629"/><path d="M6 3h1v46H6z" fill="#232629"/><path d="M11.5 11.4s6.514-8.008 14-5c7.486 3.008 7.232 28.316 15 30 7.768 1.684 11-8.9 11-8.9" fill="none" stroke="#607142"/><path d="M11.5 21.5s1.928 9 9 9c7.07 0 14.158-20.158 21-21 6.842-.842 10 6 10 6" fill="none" stroke="#95a96f"/><g fill="#607142"><path d="M10 10h3v3h-3zM24 5h3v3h-3zM39 35h3v3h-3zM50 26h3v3h-3z"/></g><g fill="#95a96f"><path d="M50 14h3v3h-3zM40 8h3v3h-3zM19 29h3v3h-3zM10 20h3v3h-3z"/></g></svg>