<svg height="52" width="60" xmlns="http://www.w3.org/2000/svg"><radialGradient id="a" cx="30" cy="1026.362" gradientTransform="matrix(1 0 0 .93478 0 65.437)" gradientUnits="userSpaceOnUse" r="23"><stop offset="0" stop-color="#762572"/><stop offset="1" stop-color="#a25f9e"/></radialGradient><radialGradient id="b" cx="30" cy="21.246" gradientTransform="matrix(-1.41504 0 0 -1.32276 72.451 1052.966)" gradientUnits="userSpaceOnUse" r="16.254"><stop offset="0" stop-color="#e95420"/><stop offset="1" stop-color="#fe865c"/></radialGradient><path d="M0 0h60v52H0z" fill="#fff"/><path d="M7.031 25.084A23 23 0 007 26a23 23 0 006.75 16.256V39.69h-.004a23 21.5 0 01-6.715-14.606zm45.932.193a23 21.5 0 01-6.71 14.416h-.003v2.567A23 23 0 0053 26.004a23 23 0 00-.037-.727z" fill="#987197"/><path d="M13.75 38.564v3.692A23 23 0 0030 49a23 23 0 0016.25-6.744v-3.692z" fill="#fe865c"/><path d="M30 1003.362a23 21.5 0 00-23 21.5 23 21.5 0 006.746 15.194L30 1024.862l16.254 15.194A23 21.5 0 0053 1024.862a23 21.5 0 00-23-21.5zm16.246 36.701a23 21.5 0 01-1.062.913 23 21.5 0 001.062-.913zm-32.453.033a23 21.5 0 001.635 1.384 23 21.5 0 01-1.635-1.384zm30.889 1.291a23 21.5 0 01-1.325.944 23 21.5 0 001.325-.944zm-29.084.214a23 21.5 0 001.662 1.146 23 21.5 0 01-1.662-1.146zm27.213 1.095a23 21.5 0 01-1.354.778 23 21.5 0 001.354-.778zm-25.249.227a23 21.5 0 001.641.91 23 21.5 0 01-1.64-.91zm23.27.887a23 21.5 0 01-1.38.624 23 21.5 0 001.38-.624zm-21.088.268a23 21.5 0 001.522.663 23 21.5 0 01-1.522-.663zm18.99.656a23 21.5 0 01-1.377.47 23 21.5 0 001.377-.47zm-16.798.235a23 21.5 0 001.488.486 23 21.5 0 01-1.488-.486zm14.615.486a23 21.5 0 01-1.373.329 23 21.5 0 001.373-.33zm-12.348.186a23 21.5 0 001.432.321 23 21.5 0 01-1.432-.32zm10.104.325a23 21.5 0 01-1.307.186 23 21.5 0 001.307-.186zm-7.752.126a23 21.5 0 001.345.172 23 21.5 0 01-1.345-.172zm5.424.175a23 21.5 0 01-1.979.095 23 21.5 0 001.979-.095z" fill="url(#a)" transform="translate(0 -1000.362)"/><path d="M30 1024.862l-16.254 15.194A23 21.5 0 0030 1046.362a23 21.5 0 0016.254-6.306z" fill="url(#b)" fill-rule="evenodd" transform="translate(0 -1000.362)"/></svg>