<svg height="52" width="60" xmlns="http://www.w3.org/2000/svg" xmlns:xlink="http://www.w3.org/1999/xlink"><linearGradient id="b"><stop offset="0" stop-color="#88a05d"/><stop offset="1" stop-color="#fe865c"/></linearGradient><linearGradient id="c" gradientTransform="matrix(1.88889 0 0 1 -51 -3)" gradientUnits="userSpaceOnUse" x1="50" x2="50.063" xlink:href="#a" y1="1046.362" y2="1016.362"/><linearGradient id="a"><stop offset="0" stop-color="#88a05d"/><stop offset="1" stop-color="#a25f9e"/></linearGradient><linearGradient id="d" gradientTransform="matrix(1.77778 0 0 .8 -68 206.273)" gradientUnits="userSpaceOnUse" x1="50.063" x2="50.063" xlink:href="#a" y1="1046.362" y2="1016.362"/><linearGradient id="e" gradientTransform="matrix(1.66667 0 0 .83333 -12 175.394)" gradientUnits="userSpaceOnUse" x1="15.938" x2="15.938" xlink:href="#b" y1="1046.362" y2="1028.362"/><linearGradient id="f" gradientTransform="matrix(1.66667 0 0 .66667 11 349.788)" gradientUnits="userSpaceOnUse" x1="15.938" x2="15.938" xlink:href="#b" y1="1046.362" y2="1028.362"/><path d="M0 0h60v52H0z" fill="#fff"/><path d="M14 37L2 49" fill="none" stroke="#232629"/><path d="M13 37h46v.987H13z" fill="#232629"/><path d="M43 1011.362l8 32H34z" fill="url(#c)" transform="translate(0 -1000.362)"/><path d="M13 2h1v36h-1z" fill="#232629"/><path d="M21 1012.362l7 31H12z" fill="url(#d)" transform="translate(0 -1000.362)"/><g fill-rule="evenodd"><path d="M21 12l7 31 3-3zM43 11l8 32 3-3z" fill="#945c93"/><g fill="#fe865c"><path d="M39 32l7 15 3-3zM16 26l7 21 3-3z"/></g></g><path d="M16 1026.362l7 21H8z" fill="url(#e)" transform="translate(0 -1000.362)"/><path d="M39 1032.362l7 15H31z" fill="url(#f)" transform="translate(0 -1000.362)"/></svg>