<svg height="52" width="60" xmlns="http://www.w3.org/2000/svg" xmlns:xlink="http://www.w3.org/1999/xlink"><linearGradient id="b"><stop offset="0" stop-color="#88a05d"/><stop offset="1" stop-color="#fe865c"/></linearGradient><linearGradient id="f" gradientTransform="matrix(.88889 0 0 .7 0 312.909)" gradientUnits="userSpaceOnUse" x1="49.5" x2="50.625" xlink:href="#a" y1="1046.362" y2="1016.362"/><linearGradient id="a"><stop offset="0" stop-color="#762572"/><stop offset="1" stop-color="#a25f9e"/></linearGradient><linearGradient id="e" gradientTransform="matrix(.88889 0 0 1.2 -22 -210.272)" gradientUnits="userSpaceOnUse" x1="49.5" x2="50.625" xlink:href="#a" y1="1046.362" y2="1016.362"/><linearGradient id="d" gradientTransform="matrix(.88889 0 0 1.66667 21.333 -698.575)" gradientUnits="userSpaceOnUse" x1="16.5" x2="17.625" xlink:href="#b" y1="1046.362" y2="1028.362"/><linearGradient id="c" gradientTransform="matrix(.88889 0 0 1.5 -.667 -524.181)" gradientUnits="userSpaceOnUse" x1="16.5" x2="16.5" xlink:href="#b" y1="1046.362" y2="1028.362"/><path d="M0 0h60v52H0z" fill="#fff"/><path d="M12 40l-9 9" fill="none" stroke="#232629"/><path d="M11 40.006h46v.988H11z" fill="#232629"/><path d="M11 3h1v38h-1z" fill="#232629"/><path d="M15 1016.362l3 29h-8z" fill="url(#c)" transform="translate(0 -1000.362)"/><path d="M37 1015.362l3 30h-8z" fill="url(#d)" transform="translate(0 -1000.362)"/><g fill-rule="evenodd"><path d="M23 9l3 36 3-3zM45 24l3 21 3-3z" fill="#945c93"/><g fill="#fe865c"><path d="M37 15l3 30 3-3zM15 16l3 29 3-3z"/></g></g><path d="M23 1009.362l3 36h-8z" fill="url(#e)" transform="translate(0 -1000.362)"/><path d="M45 1024.362l3 21h-8z" fill="url(#f)" transform="translate(0 -1000.362)"/></svg>