<svg xmlns="http://www.w3.org/2000/svg" xmlns:xlink="http://www.w3.org/1999/xlink" height="52" width="60"><linearGradient id="f" gradientTransform="matrix(1.77778 0 0 .83333 12.667 -825.968)" gradientUnits="userSpaceOnUse" x1="15.938" x2="15.938" xlink:href="#a" y1="1046.362" y2="1028.362"/><linearGradient id="a"><stop offset="0" stop-color="#e95420"/><stop offset="1" stop-color="#fe865c"/></linearGradient><linearGradient id="e" gradientTransform="matrix(1.77778 0 0 .6 -46 -596.817)" gradientUnits="userSpaceOnUse" x1="50.063" x2="50.063" xlink:href="#b" y1="1046.362" y2="1016.362"/><linearGradient id="b"><stop offset="0" stop-color="#77216F"/><stop offset="1" stop-color="#a25f9e"/></linearGradient><linearGradient id="d" gradientTransform="matrix(1.77778 0 0 .83333 -11.333 -825.968)" gradientUnits="userSpaceOnUse" x1="15.938" x2="15.938" xlink:href="#a" y1="1046.362" y2="1028.362"/><linearGradient id="c" gradientTransform="matrix(1.77778 0 0 .6 -70 -596.817)" gradientUnits="userSpaceOnUse" x1="50.063" x2="50.063" xlink:href="#b" y1="1046.362" y2="1016.362"/><path d="M0 0h60v52H0z" fill="#fff"/><path d="m12 40-9 9" fill="none" stroke="#232629"/><path d="M11 40.006h46v.988H11z" fill="#232629"/><path d="M11 3h1v38h-1z" fill="#232629"/><path d="m20 6 6 40H10z" fill="url(#c)" style="fill:#607142;fill-opacity:1"/><path d="m20 6 6 40 3-3z" fill="#945c93" fill-rule="evenodd" style="fill:#8da465;fill-opacity:1"/><path d="M24.5 24.5 23 26l3 20 3-3z" fill="#fe865c" fill-rule="evenodd" style="fill:#bdcaa5;fill-opacity:1"/><path d="m15 26-5 20h16l-3-20z" fill="url(#d)" style="fill:#95a96f;fill-opacity:1"/><path d="m44 6 6 40H34z" fill="url(#e)" style="fill:#607142;fill-opacity:1"/><path d="m44 6 6 40 3-3z" fill="#945c93" fill-rule="evenodd" style="fill:#8da465;fill-opacity:1"/><path d="M48.5 24.5 47 26l3 20 3-3z" fill="#fe865c" fill-rule="evenodd" style="fill:#bdcaa5;fill-opacity:1"/><path d="m39 26-5 20h16l-3-20z" fill="url(#f)" style="fill:#95a96f;fill-opacity:1"/><g fill="#fff"><path d="M41 35.7a2 2 0 0 0-2 2 2 2 0 0 0 2 2 2 2 0 0 0 2-2 2 2 0 0 0-2-2zm0 1a1 1 0 0 1 1 1 1 1 0 0 1-1 1 1 1 0 0 1-1-1 1 1 0 0 1 1-1zM45 39.7a2 2 0 0 0-2 2 2 2 0 0 0 2 2 2 2 0 0 0 2-2 2 2 0 0 0-2-2zm0 1a1 1 0 0 1 1 1 1 1 0 0 1-1 1 1 1 0 0 1-1-1 1 1 0 0 1 1-1z"/><path d="m45.6 35.4-6 8 .8.6 6-8z" fill-rule="evenodd"/></g></svg>