<svg xmlns="http://www.w3.org/2000/svg" height="52" width="60"><linearGradient id="a"><stop offset="0" stop-color="#e95420"/><stop offset="1" stop-color="#fe865c"/></linearGradient><linearGradient id="b"><stop offset="0" stop-color="#77216F"/><stop offset="1" stop-color="#a25f9e"/></linearGradient><path d="M0 0h60v52H0z" fill="#fff"/><path d="M12 40l-9 9" fill="none" stroke="#232629"/><path d="M11 40.006h46v.988H11z" fill="#232629"/><path d="M11 3h1v38h-1z" fill="#232629"/><path d="M20 6l6 40H10z" fill="#607142"/><path d="M20 6l6 40 3-3z" fill="#8da465" fill-rule="evenodd"/><path d="M24.5 24.5L23 26l3 20 3-3z" fill="#bdcaa5" fill-rule="evenodd"/><path d="M15 26l-5 20h16l-3-20z" fill="#95a96f"/><path d="M44 6l6 40H34z" fill="#607142"/><path d="M44 6l6 40 3-3z" fill="#8da465" fill-rule="evenodd"/><path d="M48.5 24.5L47 26l3 20 3-3z" fill="#bdcaa5" fill-rule="evenodd"/><path d="M39 26l-5 20h16l-3-20z" fill="#95a96f"/><g fill="#fff"><path d="M41 35.7a2 2 0 00-2 2 2 2 0 002 2 2 2 0 002-2 2 2 0 00-2-2zm0 1a1 1 0 011 1 1 1 0 01-1 1 1 1 0 01-1-1 1 1 0 011-1zM45 39.7a2 2 0 00-2 2 2 2 0 002 2 2 2 0 002-2 2 2 0 00-2-2zm0 1a1 1 0 011 1 1 1 0 01-1 1 1 1 0 01-1-1 1 1 0 011-1z"/><path d="M45.6 35.4l-6 8 .8.6 6-8z" fill-rule="evenodd"/></g></svg>