<svg height="52" width="60" xmlns="http://www.w3.org/2000/svg" xmlns:xlink="http://www.w3.org/1999/xlink"><linearGradient id="a"><stop offset="0" stop-color="#88a05d"/><stop offset="1" stop-color="#fe865c"/></linearGradient><linearGradient id="f" gradientTransform="matrix(0 .88889 -.83333 0 876.968 997.696)" gradientUnits="userSpaceOnUse" x1="16.5" x2="16.5" xlink:href="#a" y1="1046.362" y2="1028.362"/><linearGradient id="e" gradientTransform="matrix(0 .88889 -1.66667 0 1748.937 1018.696)" gradientUnits="userSpaceOnUse" x1="16.5" x2="16.5" xlink:href="#a" y1="1046.362" y2="1028.362"/><linearGradient id="d" gradientTransform="matrix(0 .88889 -1.2 0 1260.634 997.362)" gradientUnits="userSpaceOnUse" x1="49.5" x2="49.5" xlink:href="#b" y1="1046.362" y2="1016.362"/><linearGradient id="b"><stop offset="0" stop-color="#88a05d"/><stop offset="1" stop-color="#a25f9e"/></linearGradient><linearGradient id="c" gradientTransform="matrix(0 .88889 -.8 0 842.09 976.362)" gradientUnits="userSpaceOnUse" x1="49.5" x2="49.5" xlink:href="#b" y1="1046.362" y2="1016.362"/><path d="M0 0h60v52H0z" fill="#fff"/><g fill="#232629"><path d="M11.646 39.646l-9 9 .708.707 9-9z" fill-rule="evenodd"/><path d="M11 40.006h46v.988H11zM9 3h1v38H9z"/></g><path d="M22 11L5 8l3-3z" fill="#fe865c" fill-rule="evenodd"/><path d="M39 1020.362l-34 4v-8z" fill="url(#c)" transform="translate(0 -1000.362)"/><path d="M41 41L5 37l3-3z" fill="#987197" fill-rule="evenodd"/><path d="M41 1041.362l-36 4v-8z" fill="url(#d)" transform="translate(0 -1000.362)"/><path d="M35 1033.362l-30 4v-8z" fill="url(#e)" transform="translate(0 -1000.362)"/><path d="M35 33L5 29l3-3z" fill="#fe865c" fill-rule="evenodd"/><path d="M39 20L5 16l3-3z" fill="#987197" fill-rule="evenodd"/><path d="M22 1011.362l-17 5v-8z" fill="url(#f)" transform="translate(0 -1000.362)"/></svg>