<svg xmlns="http://www.w3.org/2000/svg" xmlns:xlink="http://www.w3.org/1999/xlink" height="52" width="60"><linearGradient id="b"><stop offset="0" stop-color="#e95420"/><stop offset="1" stop-color="#fe865c"/></linearGradient><linearGradient id="c" gradientTransform="matrix(0 1.33333 -1.1 0 1158.998 -31)" gradientUnits="userSpaceOnUse" x1="49.5" x2="49.5" xlink:href="#a" y1="1046.362" y2="1016.362"/><linearGradient id="a"><stop offset="0" stop-color="#77216F"/><stop offset="1" stop-color="#a25f9e"/></linearGradient><linearGradient id="d" gradientTransform="matrix(0 1.33333 -1.16667 0 1224.756 17)" gradientUnits="userSpaceOnUse" x1="16.5" x2="16.5" xlink:href="#b" y1="1046.362" y2="1028.362"/><linearGradient id="e" gradientTransform="matrix(0 1.33333 -.9 0 949.726 -49)" gradientUnits="userSpaceOnUse" x1="49.5" x2="49.5" xlink:href="#a" y1="1046.362" y2="1016.362"/><linearGradient id="f" gradientTransform="matrix(0 1.33333 -.5 0 527.181 -1)" gradientUnits="userSpaceOnUse" x1="16.5" x2="16.5" xlink:href="#b" y1="1046.362" y2="1028.362"/><path d="M0 0h60v52H0z" fill="#fff"/><path d="M0 0h60v52H0z" fill="#fff"/><path d="M14 37 2 49" fill="none" stroke="#232629"/><path d="M13 37h46v.987H13z" fill="#232629"/><path d="M13 2h1v36h-1z" fill="#232629"/><path d="M50 34 8 41V29z" fill="url(#c)" style="fill:#607142;fill-opacity:1"/><path d="M30 39 4 45V33z" fill="url(#d)" style="fill:#95a96f;fill-opacity:1"/><path d="M41 16 8 23V11z" fill="url(#e)" style="fill:#607142;fill-opacity:1"/><path d="M50 34 8 29l3-3z" fill="#987197" fill-rule="evenodd" style="fill:#8da465;fill-opacity:1"/><path d="M31 20 4 27V15z" fill="url(#f)" style="fill:#95a96f;fill-opacity:1"/><path d="M30 39 4 33l3-3zM31 20 4 15l3-3z" fill="#fe865c" style="fill-rule:evenodd;fill:#bdcaa5;fill-opacity:1"/><path d="M41 16 8 11l3-3z" fill="#987197" style="fill-rule:evenodd;fill:#8da465;fill-opacity:1"/></svg>