<svg xmlns="http://www.w3.org/2000/svg" height="30" viewBox="0 0 15 17.308" width="30"><path d="M0 16.154h15v-15H0z" fill="#fff"/><g fill="#77216F" style="fill:#607142;fill-opacity:1"><path d="M.577 14.423H1.73V13.27H.577zM4.038 4.615h1.154V3.462H4.038zM2.942 11.538h1.154v-1.153H2.942zM6.346 12.692H7.5v-1.154H6.346zM8.654 8.077h1.154V6.923H8.654zM12.692 15h1.154v-1.154h-1.154zM11.538 11.538h1.154v-1.153h-1.154z" style="fill:#607142;fill-opacity:1"/></g><path d="M.865 16.154c-.01-1.154.289-4.324.866-4.327.577-.003.577.581 1.442.577.865-.005.865-6.907 1.73-6.923.866-.017 1.13 5.195 2.02 5.192.89-.003 1.154-2.302 1.73-2.308.578-.006 1.155 4.03 2.02 4.039.865.009 1.203-1.727 2.02-1.73.815-.004 1.414 4.326 1.442 5.48" fill="none" stroke="#e95420" stroke-linecap="square" stroke-linejoin="round" stroke-width=".577" style="stroke:#95a96f;stroke-opacity:1"/><path d="M-.577 16.73V.578h16.154V16.73zM0 16.155h15v-15H0z" fill="#232629"/></svg>