<svg xmlns="http://www.w3.org/2000/svg" height="52" width="60"><path d="M0 0h60v52H0z" fill="#fff"/><path d="M3 45h52v1H3z" fill="#232629"/><path d="M6 3h1v46H6z" fill="#232629"/><g fill="#e95420" style="fill:#95a96f;fill-opacity:1"><path d="M48 1025.362h1v1h-1zM49 1024.362h1v1h-1zM49 1026.362h1v1h-1zM50 1025.362h1v1h-1z" style="fill:#95a96f;fill-opacity:1" transform="translate(0 -1000.362)"/></g><path d="M49 25h1v1h-1z" fill="#fff"/><g fill="#e95420" style="fill:#95a96f;fill-opacity:1"><path d="M35 1025.362h1v1h-1zM36 1024.362h1v1h-1zM36 1026.362h1v1h-1zM37 1025.362h1v1h-1z" style="fill:#95a96f;fill-opacity:1" transform="translate(0 -1000.362)"/></g><path d="M36 25h1v1h-1z" fill="#fff"/><g fill="#e95420" style="fill:#95a96f;fill-opacity:1"><path d="M10 1037.362h1v1h-1zM11 1036.362h1v1h-1zM11 1038.362h1v1h-1zM12 1037.362h1v1h-1z" style="fill:#95a96f;fill-opacity:1" transform="translate(0 -1000.362)"/></g><path d="M11 37h1v1h-1z" fill="#fff"/><g fill="#e95420" style="fill:#95a96f;fill-opacity:1"><path d="M22 1029.362h1v1h-1zM23 1028.362h1v1h-1zM23 1030.362h1v1h-1zM24 1029.362h1v1h-1z" style="fill:#95a96f;fill-opacity:1" transform="translate(0 -1000.362)"/></g><path d="M23 29h1v1h-1z" fill="#fff"/><g fill="#77216f" style="fill:#607142;fill-opacity:1"><path d="M27 1011.362h1v1h-1zM29 1011.362h1v1h-1zM27 1013.362h1v1h-1zM29 1013.362h1v1h-1z" style="fill:#607142;fill-opacity:1" transform="translate(-5 -1001.362)"/></g><path d="M23 10v1h-1v1h1v1h1v-1h1v-1h-1v-1z" fill="#fff"/><g fill="#77216f" style="fill:#607142;fill-opacity:1"><path d="M48 1019.362h1v1h-1zM50 1019.362h1v1h-1zM48 1021.362h1v1h-1zM50 1021.362h1v1h-1z" style="fill:#607142;fill-opacity:1" transform="translate(0 -1014.362)"/></g><path d="M49 5v1h-1v1h1v1h1V7h1V6h-1V5z" fill="#fff"/><g fill="#77216f" style="fill:#607142;fill-opacity:1"><path d="M39 1035.362h1v1h-1zM41 1035.362h1v1h-1zM39 1037.362h1v1h-1zM41 1037.362h1v1h-1z" style="fill:#607142;fill-opacity:1" transform="translate(-4 -1021.362)"/></g><path d="M36 14v1h-1v1h1v1h1v-1h1v-1h-1v-1z" fill="#fff"/><g fill="#77216f" style="fill:#607142;fill-opacity:1"><path d="M10 1034.362h1v1h-1zM12 1034.362h1v1h-1zM10 1036.362h1v1h-1zM12 1036.362h1v1h-1z" style="fill:#607142;fill-opacity:1" transform="translate(0 -1012.362)"/></g><path d="M11 22v1h-1v1h1v1h1v-1h1v-1h-1v-1z" fill="#fff"/></svg>