<svg height="52" width="60" xmlns="http://www.w3.org/2000/svg"><path d="M0 0h60v52H0z" fill="#fff"/><g fill-rule="evenodd"><path d="M24 12L12 23v-1L26 8z" fill="#945c93"/><path d="M36 15l-13-4 3-3 13 4z" fill="#987197"/><path d="M50 7l-13 8h-1l3-3 14-9z" fill="#945c93"/><path d="M50 25H36l3-3h14z" fill="#fe865c"/><path d="M36 26l-12 3 3-3 12-4z" fill="#fe865c"/><path d="M24 29l-12 8 3-3 12-8z" fill="#fe865c"/><path d="M36.426 25l-13.143 4.044-12.06 8.04.554.831 11.94-7.959L36.577 26H49.5v-1z" fill="#e95420"/></g><path d="M3 45h52v1H3z" fill="#232629"/><path d="M6 3h1v46H6z" fill="#232629"/><g fill="#e95420"><path d="M48 25h1v1h-1zM49 24h1v1h-1zM49 26h1v1h-1zM50 25h1v1h-1z"/></g><path d="M49 25h1v1h-1z" fill="#fff"/><g fill="#e95420"><path d="M35 25h1v1h-1zM36 24h1v1h-1zM36 26h1v1h-1zM37 25h1v1h-1z"/></g><path d="M36 25h1v1h-1z" fill="#fff"/><g fill="#e95420"><path d="M10 37h1v1h-1zM11 36h1v1h-1zM11 38h1v1h-1zM12 37h1v1h-1z"/></g><path d="M11 37h1v1h-1z" fill="#fff"/><g fill="#e95420"><path d="M22 29h1v1h-1zM23 28h1v1h-1zM23 30h1v1h-1zM24 29h1v1h-1z"/></g><path d="M23 29h1v1h-1z" fill="#fff"/><path d="M49.215 6.089l-12.8 8.861-13.056-4.015-12.213 12.213.708.707L23.64 12.067l12.943 3.983 13.2-9.139z" fill="#762572" fill-rule="evenodd"/><g fill="#762572"><path d="M22 10h1v1h-1zM24 10h1v1h-1zM22 12h1v1h-1zM24 12h1v1h-1z"/></g><path d="M23 10v1h-1v1h1v1h1v-1h1v-1h-1v-1z" fill="#fff"/><g fill="#762572"><path d="M48 5h1v1h-1zM50 5h1v1h-1zM48 7h1v1h-1zM50 7h1v1h-1z"/></g><path d="M49 5v1h-1v1h1v1h1V7h1V6h-1V5z" fill="#fff"/><g><g fill="#762572"><path d="M35 14h1v1h-1zM37 14h1v1h-1zM35 16h1v1h-1zM37 16h1v1h-1z"/></g><path d="M36 14v1h-1v1h1v1h1v-1h1v-1h-1v-1z" fill="#fff"/></g><g><g fill="#762572"><path d="M10 22h1v1h-1zM12 22h1v1h-1zM10 24h1v1h-1zM12 24h1v1h-1z"/></g><path d="M11 22v1h-1v1h1v1h1v-1h1v-1h-1v-1z" fill="#fff"/></g></svg>