<svg xmlns="http://www.w3.org/2000/svg" height="52" width="60"><path d="M0 0h60v52H0z" fill="#fff"/><path d="M24 12c-4.267 2.954-8.062 7.167-12 11v-1L24.438 9.518z" fill="#94ab6e" fill-rule="evenodd"/><path d="M35.643 15.893C30.348 14.295 25.513 9.248 20 13c9.01-9.854 9.67-2.105 19-1z" fill="#94ab6e" fill-rule="evenodd"/><path d="M49.777 6.777C45.408 9.56 40.735 14.327 37 15h-1l3-3 12.705-8.554z" fill="#94ab6e" fill-rule="evenodd"/><path d="M49.464 25.09L36 25l3-3h14z" fill="#c4d0ae" fill-rule="evenodd"/><path d="M36 26l-12 3 3-3c4.514-2.459 8.425-3.597 12-4z" fill="#c4d0ae" fill-rule="evenodd"/><path d="M24 29l-12 8c4.337-4.475 9.952-8.281 15-11z" fill="#c4d0ae" fill-rule="evenodd"/><path d="M3 45h52v1H3z" fill="#232629"/><path d="M6 3h1v46H6z" fill="#232629"/><path d="M11 37h1v1h-1zM11 22v1h-1v1h1v1h1v-1h1v-1h-1v-1z" fill="#fff"/><path d="M11.5 23.5s7.055-10.772 12-12c4.945-1.228 8.156 4.75 13 4 4.845-.75 13-9 13-9" stroke="#607142" fill="none"/><path d="M11.5 37.5s7.78-5.997 12-8c4.219-2.003 8.516-3.326 13-4 4.285-.645 13 0 13 0" stroke="#95a96f" fill="none"/></svg>