<svg xmlns="http://www.w3.org/2000/svg" viewBox="0 0 16 16"><rect width="16" height="16" ry="1.5" rx="2" fill="#fff" fill-rule="evenodd"/><path d="M9 3.875L7.687 5.156 6.875 6l-2 2H3v3H5.594L8 9h2l2 2h2V4h-.875l-2 2zM8 10l-2 2H3v1h11v-1h-2.406l-2-2z" fill="#b3b3b3"/><path d="M2 2v11H1v1h1v1h1v-1h11v-1H3v-1h3l2-2h1.594l2 2H14v-1h-2l-2-2H7.594l-2 2H3V9h1.875l2-2 .844-.813L9 4.875 11.125 7l2-2 .844-.813.031-.062-.688-.688-.062.032-.813.812-1.312 1.313L9 3.469 7.469 5 7 5.469l-.844.812L4.47 8H3V2z" fill="#232629"/></svg>