<svg xmlns="http://www.w3.org/2000/svg" height="52" width="60"><path d="M0 0h60v52H0z" fill="#fff"/><path d="M3 45h52v1H3z" fill="#232629"/><path d="M6 3h1v46H6z" fill="#232629"/><path d="M11 8h10v1H11z" fill="#95a96f"/><path d="M11 8h1v14h-1zM34 21h1v13h-1zM49 29h1v5h-1z" fill="#95a96f"/><path d="M28 12v23H11v1h18V13h20v7h-9v17h1V21h9v-9H28z" fill="#607142"/><path d="M28 35H11l4-3h13z" fill="#94ab6e" fill-rule="evenodd"/><path d="M35 21v12l3-3V18z" fill="#bdcaa5" fill-rule="evenodd"/><path d="M29 13v23l3-3V13z" fill="#8da465" fill-rule="evenodd"/><path d="M35 21H12l3-3h23z" fill="#c4d0ae" fill-rule="evenodd"/><path d="M50 29v5l3-3v-5zM12 9v12l3-3V9z" fill="#bdcaa5" fill-rule="evenodd"/><path d="M14 5l-3 3h10V5z" fill="#c4d0ae" fill-rule="evenodd"/><path d="M50 12H28l4-3h21zM49 20h-9l4-3h5z" fill="#94ab6e" fill-rule="evenodd"/><path d="M50 12v9l3-3V9zM41 21v16l3-3V21z" fill="#8da465" fill-rule="evenodd"/><path d="M11 21h24v1H11zM34 33h16v1H34z" fill="#95a96f"/><path d="M49 33H35l3-3h11z" fill="#c4d0ae" fill-rule="evenodd"/></svg>