<svg height="52" width="60" xmlns="http://www.w3.org/2000/svg"><path d="M0 0h60v52H0z" fill="#fff"/><path d="M3 45h52v1H3z" fill="#232629"/><path d="M6 3h1v46H6z" fill="#232629"/><g fill="#e95420" style="fill:#88a05d"><path d="M19 7h3v3h-3zM10 20h3v3h-3zM33 32h3v3h-3zM48 28h3v3h-3z" style="fill:#88a05d"/><path d="M11 8h10v1H11z" style="fill:#88a05d"/><path d="M11 8h1v14h-1z" style="fill:#88a05d"/><path d="M11 21h24v1H11z" style="fill:#88a05d"/><path d="M34 21h1v13h-1z" style="fill:#88a05d"/><path d="M34 33h16v1H34z" style="fill:#88a05d"/><path d="M49 29h1v5h-1z" style="fill:#88a05d"/></g><g fill="#e95420" style="fill:#fff;opacity:.4"><path d="M19 7h3v3h-3zM10 20h3v3h-3zM33 32h3v3h-3zM48 28h3v3h-3z" style="fill:#fff"/><path d="M11 8h10v1H11z" style="fill:#fff"/><path d="M11 8h1v14h-1z" style="fill:#fff"/><path d="M11 21h24v1H11z" style="fill:#fff"/><path d="M34 21h1v13h-1z" style="fill:#fff"/><path d="M34 33h16v1H34z" style="fill:#fff"/><path d="M49 29h1v5h-1z" style="fill:#fff"/></g><g fill="#77216f" style="fill:#88a05d"><path d="M48 19h3v3h-3zM39 35h3v3h-3zM27 11h3v3h-3zM10 34h3v3h-3z" style="fill:#88a05d"/><path d="M11 35h17v1H11zM28 12h1v24h-1z" style="fill:#88a05d"/><path d="M28 12h22v1H28z" style="fill:#88a05d"/><path d="M49 12h1v9h-1z" style="fill:#88a05d"/><path d="M40 20h10v1H40z" style="fill:#88a05d"/><path d="M40 20h1v17h-1z" style="fill:#88a05d"/></g></svg>