<svg xmlns="http://www.w3.org/2000/svg" viewBox="0 0 24 24"><path d="M6.65 3l-.945 1.307-.465.654c-.16.213-.24.425-.24.639 0 .222.087.445.264.668l.506.666.628.826v6.933c0 2.871 2.1 4.307 6.301 4.307C16.9 19 19 17.564 19 14.693V7.801l-3.756-2.295H19V3h-4.385l-.945 1.307-.467.654a.893.893 0 00-.201.545c0 .249.13.504.39.762l.655.666 1.324 1.32v6.44c0 1.2-.89 1.8-2.672 1.8-1.78 0-2.672-.6-2.672-1.8V7.8L7.281 5.506h3.502V3zM5 21v1h15v-1z" opacity=".6" stroke="#000" stroke-width="2" stroke-linejoin="round"/><path d="M6.65 3l-.945 1.307-.465.654c-.16.213-.24.425-.24.639 0 .222.087.445.264.668l.506.666.628.826v6.933c0 2.871 2.1 4.307 6.301 4.307C16.9 19 19 17.564 19 14.693V7.801l-3.756-2.295H19V3h-4.385l-.945 1.307-.467.654a.893.893 0 00-.201.545c0 .249.13.504.39.762l.655.666 1.324 1.32v6.44c0 1.2-.89 1.8-2.672 1.8-1.78 0-2.672-.6-2.672-1.8V7.8L7.281 5.506h3.502V3zM5 21v1h15v-1z" fill="#fff"/></svg>