<svg xmlns="http://www.w3.org/2000/svg" width="22" height="22"><path style="line-height:normal;font-variant-ligatures:normal;font-variant-position:normal;font-variant-caps:normal;font-variant-numeric:normal;font-variant-alternates:normal;font-feature-settings:normal;text-indent:0;text-align:start;text-decoration-line:none;text-decoration-style:solid;text-decoration-color:#000;text-transform:none;text-orientation:mixed;white-space:normal;shape-padding:0;isolation:auto;mix-blend-mode:normal;solid-color:#000;solid-opacity:1" d="M21 2v6a1 1 0 01-.105.447l-6 12A.994.994 0 0114 21H2a1 1 0 01-1-1V8c.001-.363.203-.719.553-.895l12-6A1 1 0 0114 1h6c.5 0 1 .5 1 1zm-4.414 1h-2.35l-8 4h6.35zM19 5.414l-4 4v6.35l4-8zM12 10H3v9h9z" color="#000" font-weight="400" font-family="sans-serif" overflow="visible" fill="#1463a5" fill-rule="evenodd"/><path fill="#fff" fill-rule="evenodd" d="M13 9v11H2V9z"/><path d="M20 2.75V8l-6 12V8.75zM19.25 2l-6 6H2l12-6z" fill="#b6b6b6"/></svg>