<svg xmlns="http://www.w3.org/2000/svg" width="22" height="22"><path style="line-height:normal;font-variant-ligatures:normal;font-variant-position:normal;font-variant-caps:normal;font-variant-numeric:normal;font-variant-alternates:normal;font-feature-settings:normal;text-indent:0;text-align:start;text-decoration-line:none;text-decoration-style:solid;text-decoration-color:#000;text-transform:none;text-orientation:mixed;white-space:normal;shape-padding:0;isolation:auto;mix-blend-mode:normal;solid-color:#000;solid-opacity:1" d="M4 7.97a1 1 0 01.05-.286l2-6A1 1 0 017 1h7a1 1 0 01.95.684l2 6A.977.977 0 0117 8v12a1 1 0 01-1 1H5a1 1 0 01-1-1zM6 10v9h9v-9zm.389-3h8.222L13.28 3H7.721z" color="#000" font-weight="400" font-family="sans-serif" overflow="visible" fill="#1463a5" fill-rule="evenodd"/><path fill="#fff" fill-rule="evenodd" d="M5 9v11h11V9z"/><path d="M5 8l2-6h7l2 6H5" fill="#b6b6b6"/></svg>