<svg xmlns="http://www.w3.org/2000/svg" xmlns:xlink="http://www.w3.org/1999/xlink" viewBox="0 0 22 10"><defs><linearGradient id="a"><stop offset="0" stop-color="#151515"/><stop offset="1" stop-color="#4d4d4d"/></linearGradient><linearGradient xlink:href="#a" id="b" x1="6" y1="1" x2="6" y2="9" gradientUnits="userSpaceOnUse" gradientTransform="translate(12)"/></defs><path style="line-height:normal;font-variant-ligatures:normal;font-variant-position:normal;font-variant-caps:normal;font-variant-numeric:normal;font-variant-alternates:normal;font-variant-east-asian:normal;font-feature-settings:normal;font-variation-settings:normal;text-indent:0;text-align:start;text-decoration-line:none;text-decoration-style:solid;text-decoration-color:#000;text-transform:none;text-orientation:mixed;white-space:normal;shape-padding:0;shape-margin:0;inline-size:0;isolation:auto;mix-blend-mode:normal;solid-color:#000;solid-opacity:1" d="M5 2v6h5V2zm1 1h3v4H6z" color="#000" font-weight="400" font-family="sans-serif" overflow="visible" fill="#e95420" fill-rule="evenodd"/><path d="M15 1v1h2v6h-2v1h5V8h-2V2h2V1h-3z" fill="#fff" fill-rule="evenodd" stroke="#fff" stroke-width="2" stroke-linecap="round" stroke-linejoin="round"/><path d="M15 1v1h2v6h-2v1h5V8h-2V2h2V1h-3z" fill="url(#b)" fill-rule="evenodd"/><path style="line-height:normal;font-variant-ligatures:normal;font-variant-position:normal;font-variant-caps:normal;font-variant-numeric:normal;font-variant-alternates:normal;font-variant-east-asian:normal;font-feature-settings:normal;font-variation-settings:normal;text-indent:0;text-align:start;text-decoration-line:none;text-decoration-style:solid;text-decoration-color:#000;text-transform:none;text-orientation:mixed;white-space:normal;shape-padding:0;shape-margin:0;inline-size:0;isolation:auto;mix-blend-mode:normal;solid-color:#000;solid-opacity:1" d="M11 2v1.5L12.75 5 11 6.5V8l3.5-3zM4 2v1.5L2.25 5 4 6.5V8L.5 5z" color="#000" font-weight="400" font-family="sans-serif" overflow="visible" fill="#e95420"/></svg>