<svg xmlns="http://www.w3.org/2000/svg" width="16" height="16" viewBox="0 0 4.233 4.233"><path style="line-height:normal;font-variant-ligatures:normal;font-variant-position:normal;font-variant-caps:normal;font-variant-numeric:normal;font-variant-alternates:normal;font-feature-settings:normal;text-indent:0;text-align:start;text-decoration-line:none;text-decoration-style:solid;text-decoration-color:#000;text-transform:none;text-orientation:mixed;white-space:normal;shape-padding:0;isolation:auto;mix-blend-mode:normal;solid-color:#000;solid-opacity:1" d="M2.619.001A.265.265 0 002.5.044L.117 1.632A.265.265 0 000 1.857v2.112c0 .264 0 .264.265.264H2.38a.265.265 0 00.22-.117L4.19 1.733a.265.265 0 00.043-.146L4.233.265A.285.285 0 003.97 0L2.646.001H2.62zm.107.527h.407l-1.06 1.059H1.14zm.98.573v.406l-1.06 1.586V2.16zM.528 2.38h1.323v1.323H.529z" color="#000" font-weight="400" font-family="sans-serif" overflow="visible" fill="#1463a5" fill-rule="evenodd"/><path fill="#fff" fill-rule="evenodd" d="M.265 2.116h1.852v1.852H.265z"/><path d="M.265 1.852L2.645.265H3.77L2.183 1.852zM3.969.463L2.38 2.051v1.918L3.97 1.588z" fill="#b6b6b6"/></svg>