<svg xmlns="http://www.w3.org/2000/svg" viewBox="0 0 16 16">/&amp;amp;gt;<path d="m3.05 11.536 1.414-1.415 1.415 1.415-1.415 1.414zm7.071 0 1.415-1.415 1.414 1.415-1.414 1.414zm0-7.072 1.415-1.414 1.414 1.414-1.414 1.415zm-7.07 0L4.463 3.05 5.88 4.464 4.464 5.88zM2 7h2v2H2zm5 5h2v2H7zm5-5h2v2h-2zM7 2h2v2H7zm4 6a3 3 0 0 1-3 3 3 3 0 0 1-3-3 3 3 0 0 1 3-3 3 3 0 0 1 3 3z" style="opacity:.7;fill:#000;fill-opacity:1;stroke:#000;stroke-width:2;stroke-linejoin:round;stroke-miterlimit:4;stroke-dasharray:none;stroke-opacity:1"/><path style="opacity:1;fill:#e6e6e6;fill-opacity:1;stroke:none;stroke-width:2;stroke-linejoin:round;stroke-miterlimit:4;stroke-dasharray:none;stroke-opacity:1" d="m3.05 11.536 1.414-1.415 1.415 1.415-1.415 1.414zm7.071 0 1.415-1.415 1.414 1.415-1.414 1.414zm0-7.072 1.415-1.414 1.414 1.414-1.414 1.415zm-7.07 0L4.463 3.05 5.88 4.464 4.464 5.88zM2 7h2v2H2zm5 5h2v2H7zm5-5h2v2h-2zM7 2h2v2H7zm4 6a3 3 0 0 1-3 3 3 3 0 0 1-3-3 3 3 0 0 1 3-3 3 3 0 0 1 3 3z"/></svg>