<svg xmlns="http://www.w3.org/2000/svg" viewBox="0 0 117 92"><g fill="#232629"><path d="M99 67h11v11H99z" opacity=".8"/><path d="M25 68h22v22H25z" opacity=".2"/><path d="M36 71a2 2 0 00-.5 3.938V77H33v1h2.5v7.969a7.968 7.968 0 01-6.094-3.5l.188-.094.906-.5L30 81l-3 1.625.5.875 1.031-.563C30.135 85.373 32.867 87 36 87s5.864-1.627 7.469-4.063l1.031.563.5-.875L42 81l-.5.875.906.5.188.094a7.968 7.968 0 01-6.094 3.5V78H39v-1h-2.5v-2.062A2.001 2.001 0 0036 71zm0 1a1 1 0 110 2 1 1 0 010-2z" opacity=".8" fill-rule="evenodd"/></g><g fill="#2ecc71"><path d="M0 22h7v7H0zM8 23h7v7H8zM17 23h9v9h-9zM34 25.5a3.5 3.5 0 01-3.5 3.5 3.5 3.5 0 01-3.5-3.5 3.5 3.5 0 013.5-3.5 3.5 3.5 0 013.5 3.5zM42 26.5a3.5 3.5 0 01-3.5 3.5 3.5 3.5 0 01-3.5-3.5 3.5 3.5 0 013.5-3.5 3.5 3.5 0 013.5 3.5zM53 27.5a4.5 4.5 0 01-4.5 4.5 4.5 4.5 0 01-4.5-4.5 4.5 4.5 0 014.5-4.5 4.5 4.5 0 014.5 4.5zM61 27a3.5 5 0 01-3.5 5 3.5 5 0 01-3.5-5 3.5 5 0 013.5-5 3.5 5 0 013.5 5zM69 27.5a3.5 4.5 0 01-3.5 4.5 3.5 4.5 0 01-3.5-4.5 3.5 4.5 0 013.5-4.5 3.5 4.5 0 013.5 4.5zM79 25.5a4.5 3.5 0 01-4.5 3.5 4.5 3.5 0 01-4.5-3.5 4.5 3.5 0 014.5-3.5 4.5 3.5 0 014.5 3.5zM89 26.5a4.5 3.5 0 01-4.5 3.5 4.5 3.5 0 01-4.5-3.5 4.5 3.5 0 014.5-3.5 4.5 3.5 0 014.5 3.5zM90 22v7h7v-7zm3 1h1v2h2v1h-2v2h-1v-2h-2v-1h2v-1zM97 22v9h9v-9zm4 1h1v3h3v1h-3v3h-1v-3h-3v-1h3v-2zM106 22v11h11V22zm5 1h1v4h4v1h-4v4h-1v-4h-4v-1h4v-3z" opacity=".8"/></g><g fill="#80a3fa"><path d="M97 0v9h9V0zm4 1h1v3h3v1h-3v3h-1V5h-3V4h3V2zM106 0v11h11V0zm5 1h1v4h4v1h-4v4h-1V6h-4V5h4V2zM90 0v7h7V0zm3 1h1v2h2v1h-2v2h-1V4h-2V3h2V2zM0 0v7h7V0zM8 1v7h7V1zM17 1v9h9V1zM30.5 0a3.5 3.5 0 100 7 3.5 3.5 0 000-7zM38.5 1a3.5 3.5 0 100 7 3.5 3.5 0 000-7zM48.5 1a4.5 4.5 0 100 9 4.5 4.5 0 000-9zM57.5 0C55.567 0 54 2.239 54 5s1.567 5 3.5 5S61 7.761 61 5s-1.567-5-3.5-5zM65.5 1C63.567 1 62 3.015 62 5.5s1.567 4.5 3.5 4.5S69 7.985 69 5.5 67.433 1 65.5 1z" opacity=".8"/><g><path d="M84.5 1C82.015 1 80 2.567 80 4.5S82.015 8 84.5 8 89 6.433 89 4.5 86.985 1 84.5 1zM74.5 0C72.015 0 70 1.567 70 3.5S72.015 7 74.5 7 79 5.433 79 3.5 76.985 0 74.5 0z" opacity=".8"/></g></g><g fill="#fff"><path d="M93 1v2h-2v1h2v2h1V4h2V3h-2V1zM101 1v3h-3v1h3v3h1V5h3V4h-3V1zM111 1v4h-4v1h4v4h1V6h4V5h-4V1z" opacity=".8"/></g><g fill="#fdbc4b"><path d="M0 11h7v7H0zM8 12h7v7H8zM17 12h9v9h-9zM34 14.5a3.5 3.5 0 01-3.5 3.5 3.5 3.5 0 01-3.5-3.5 3.5 3.5 0 013.5-3.5 3.5 3.5 0 013.5 3.5zM42 15.5a3.5 3.5 0 01-3.5 3.5 3.5 3.5 0 01-3.5-3.5 3.5 3.5 0 013.5-3.5 3.5 3.5 0 013.5 3.5zM53 16.5a4.5 4.5 0 01-4.5 4.5 4.5 4.5 0 01-4.5-4.5 4.5 4.5 0 014.5-4.5 4.5 4.5 0 014.5 4.5zM61 16a3.5 5 0 01-3.5 5 3.5 5 0 01-3.5-5 3.5 5 0 013.5-5 3.5 5 0 013.5 5z" opacity=".8"/></g><path d="M65.5 11c-2.485 0-4.5 2.462-4.5 5.5s2.015 5.5 4.5 5.5 4.5-2.462 4.5-5.5-2.015-5.5-4.5-5.5zm0 1c1.933 0 3.5 2.015 3.5 4.5S67.433 21 65.5 21 62 18.985 62 16.5s1.567-4.5 3.5-4.5z" opacity=".8" fill="#232629"/><g fill="#fdbc4b"><path d="M69 16.5a3.5 4.5 0 01-3.5 4.5 3.5 4.5 0 01-3.5-4.5 3.5 4.5 0 013.5-4.5 3.5 4.5 0 013.5 4.5zM79 14.5a4.5 3.5 0 01-4.5 3.5 4.5 3.5 0 01-4.5-3.5 4.5 3.5 0 014.5-3.5 4.5 3.5 0 014.5 3.5zM89 15.5a4.5 3.5 0 01-4.5 3.5 4.5 3.5 0 01-4.5-3.5 4.5 3.5 0 014.5-3.5 4.5 3.5 0 014.5 3.5zM90 11v7h7v-7zm3 1h1v2h2v1h-2v2h-1v-2h-2v-1h2v-1zM97 11v9h9v-9zm4 1h1v3h3v1h-3v3h-1v-3h-3v-1h3v-2zM106 11v11h11V11zm5 1h1v4h4v1h-4v4h-1v-4h-4v-1h4v-3z" opacity=".8"/></g><g fill="#232629"><path d="M0 55h7v7H0zM8 56h7v7H8zM17 56h9v9h-9zM34 58.5a3.5 3.5 0 01-3.5 3.5 3.5 3.5 0 01-3.5-3.5 3.5 3.5 0 013.5-3.5 3.5 3.5 0 013.5 3.5zM42 59.5a3.5 3.5 0 01-3.5 3.5 3.5 3.5 0 01-3.5-3.5 3.5 3.5 0 013.5-3.5 3.5 3.5 0 013.5 3.5zM53 60.5a4.5 4.5 0 01-4.5 4.5 4.5 4.5 0 01-4.5-4.5 4.5 4.5 0 014.5-4.5 4.5 4.5 0 014.5 4.5zM61 60a3.5 5 0 01-3.5 5 3.5 5 0 01-3.5-5 3.5 5 0 013.5-5 3.5 5 0 013.5 5zM69 60.5a3.5 4.5 0 01-3.5 4.5 3.5 4.5 0 01-3.5-4.5 3.5 4.5 0 013.5-4.5 3.5 4.5 0 013.5 4.5zM79 58.5a4.5 3.5 0 01-4.5 3.5 4.5 3.5 0 01-4.5-3.5 4.5 3.5 0 014.5-3.5 4.5 3.5 0 014.5 3.5zM89 59.5a4.5 3.5 0 01-4.5 3.5 4.5 3.5 0 01-4.5-3.5 4.5 3.5 0 014.5-3.5 4.5 3.5 0 014.5 3.5zM90 55v7h7v-7zm3 1h1v2h2v1h-2v2h-1v-2h-2v-1h2v-1zM97 55v9h9v-9zm4 1h1v3h3v1h-3v3h-1v-3h-3v-1h3v-2zM106 55v11h11V55zm5 1h1v4h4v1h-4v4h-1v-4h-4v-1h4v-3z" opacity=".8"/></g><g fill="#e95420"><path d="M0 44h7v7H0zM8 45h7v7H8zM17 45h9v9h-9zM34 47.5a3.5 3.5 0 01-3.5 3.5 3.5 3.5 0 01-3.5-3.5 3.5 3.5 0 013.5-3.5 3.5 3.5 0 013.5 3.5zM42 48.5a3.5 3.5 0 01-3.5 3.5 3.5 3.5 0 01-3.5-3.5 3.5 3.5 0 013.5-3.5 3.5 3.5 0 013.5 3.5zM53 49.5a4.5 4.5 0 01-4.5 4.5 4.5 4.5 0 01-4.5-4.5 4.5 4.5 0 014.5-4.5 4.5 4.5 0 014.5 4.5zM61 49a3.5 5 0 01-3.5 5 3.5 5 0 01-3.5-5 3.5 5 0 013.5-5 3.5 5 0 013.5 5z" opacity=".8"/></g><path d="M65.5 44c-2.485 0-4.5 2.462-4.5 5.5s2.015 5.5 4.5 5.5 4.5-2.462 4.5-5.5-2.015-5.5-4.5-5.5zm0 1c1.933 0 3.5 2.015 3.5 4.5S67.433 54 65.5 54 62 51.985 62 49.5s1.567-4.5 3.5-4.5z" opacity=".8" fill="#fff"/><g fill="#e95420"><path d="M69 49.5a3.5 4.5 0 01-3.5 4.5 3.5 4.5 0 01-3.5-4.5 3.5 4.5 0 013.5-4.5 3.5 4.5 0 013.5 4.5zM79 47.5a4.5 3.5 0 01-4.5 3.5 4.5 3.5 0 01-4.5-3.5 4.5 3.5 0 014.5-3.5 4.5 3.5 0 014.5 3.5zM89 48.5a4.5 3.5 0 01-4.5 3.5 4.5 3.5 0 01-4.5-3.5 4.5 3.5 0 014.5-3.5 4.5 3.5 0 014.5 3.5zM90 44v7h7v-7zm3 1h1v2h2v1h-2v2h-1v-2h-2v-1h2v-1zM97 44v9h9v-9zm4 1h1v3h3v1h-3v3h-1v-3h-3v-1h3v-2zM106 44v11h11V44zm5 1h1v4h4v1h-4v4h-1v-4h-4v-1h4v-3z" opacity=".8"/></g><g fill="#fff"><path d="M93 45v2h-2v1h2v2h1v-2h2v-1h-2v-2zM101 45v3h-3v1h3v3h1v-3h3v-1h-3v-3zM111 45v4h-4v1h4v4h1v-4h4v-1h-4v-4z" opacity=".8"/></g><g fill="#c7162b"><path d="M0 33h7v7H0zM8 34h7v7H8zM17 34h9v9h-9zM34 36.5a3.5 3.5 0 01-3.5 3.5 3.5 3.5 0 01-3.5-3.5 3.5 3.5 0 013.5-3.5 3.5 3.5 0 013.5 3.5zM42 37.5a3.5 3.5 0 01-3.5 3.5 3.5 3.5 0 01-3.5-3.5 3.5 3.5 0 013.5-3.5 3.5 3.5 0 013.5 3.5zM53 38.5a4.5 4.5 0 01-4.5 4.5 4.5 4.5 0 01-4.5-4.5 4.5 4.5 0 014.5-4.5 4.5 4.5 0 014.5 4.5zM61 38a3.5 5 0 01-3.5 5 3.5 5 0 01-3.5-5 3.5 5 0 013.5-5 3.5 5 0 013.5 5zM69 38.5a3.5 4.5 0 01-3.5 4.5 3.5 4.5 0 01-3.5-4.5 3.5 4.5 0 013.5-4.5 3.5 4.5 0 013.5 4.5zM79 36.5a4.5 3.5 0 01-4.5 3.5 4.5 3.5 0 01-4.5-3.5 4.5 3.5 0 014.5-3.5 4.5 3.5 0 014.5 3.5zM89 37.5a4.5 3.5 0 01-4.5 3.5 4.5 3.5 0 01-4.5-3.5 4.5 3.5 0 014.5-3.5 4.5 3.5 0 014.5 3.5zM90 33v7h7v-7zm3 1h1v2h2v1h-2v2h-1v-2h-2v-1h2v-1zM97 33v9h9v-9zm4 1h1v3h3v1h-3v3h-1v-3h-3v-1h3v-2zM106 33v11h11V33zm5 1h1v4h4v1h-4v4h-1v-4h-4v-1h4v-3z" opacity=".8"/></g><g fill="#fff"><path d="M16 33v11h11V33zm1 1h9v9h-9zM7 33v9h9v-9zm1 1h7v7H8zM38.5 33a4.5 4.5 0 100 9 4.5 4.5 0 000-9zm0 1a3.5 3.5 0 110 7 3.5 3.5 0 010-7z" opacity=".8"/><path d="M48.5 33a5.5 5.5 0 100 11 5.5 5.5 0 000-11zm0 1a4.5 4.5 0 110 9 4.5 4.5 0 010-9zM84.5 33c-3.038 0-5.5 2.015-5.5 4.5s2.462 4.5 5.5 4.5 5.5-2.015 5.5-4.5-2.462-4.5-5.5-4.5zm0 1c2.485 0 4.5 1.567 4.5 3.5S86.985 41 84.5 41 80 39.433 80 37.5s2.015-3.5 4.5-3.5zM93 34v2h-2v1h2v2h1v-2h2v-1h-2v-2zM101 34v3h-3v1h3v3h1v-3h3v-1h-3v-3zM111 34v4h-4v1h4v4h1v-4h4v-1h-4v-4z" opacity=".8"/></g><path d="M73 67h11v11H73z" opacity=".8" fill="#80a3fa"/><path d="M86 67h11v11H86z" opacity=".8" fill="#c7162b"/><path d="M73 80h11v11H73z" opacity=".8" fill="#2ecc71"/><path d="M86 80h11v11H86z" opacity=".8" fill="#e95420"/><path d="M99 80h11v11H99z" opacity=".8" fill="#fdbc4b"/><path d="M7 71.063A4.45 4.45 0 003.062 75H4v1h-.938A4.45 4.45 0 007 79.938V79h1v.938A4.45 4.45 0 0011.938 76H11v-1h.938A4.45 4.45 0 008 71.062V72H7z" opacity=".8" fill="#e95420"/><path d="M49 68v22h22V68zm11 3a2 2 0 01.5 3.938V77H63v1h-2.5v7.969a7.968 7.968 0 006.094-3.5l-.188-.094-.906-.5L66 81l3 1.625-.5.875-1.031-.563C65.864 85.373 63.133 87 60 87s-5.865-1.627-7.469-4.063L51.5 83.5l-.5-.875L54 81l.5.875-.906.5-.188.094a7.968 7.968 0 006.094 3.5V78H57v-1h2.5v-2.062A2.001 2.001 0 0160 71zm0 1a1 1 0 100 2 1 1 0 000-2z" opacity=".64" fill="#232629"/><g fill="#fff"><path d="M7 0v9h9V0H8zm1 1h7v7H8zM16 0v11h11V0zm1 1h9v9h-9zM38.5 0a4.5 4.5 0 100 9 4.5 4.5 0 000-9zm0 1a3.5 3.5 0 110 7 3.5 3.5 0 010-7z" opacity=".8"/><path d="M48.5 0a5.5 5.5 0 100 11 5.5 5.5 0 000-11zm0 1a4.5 4.5 0 110 9 4.5 4.5 0 010-9zM84.5 0C81.462 0 79 2.015 79 4.5S81.462 9 84.5 9 90 6.985 90 4.5 87.538 0 84.5 0zm0 1C86.985 1 89 2.567 89 4.5S86.985 8 84.5 8 80 6.433 80 4.5 82.015 1 84.5 1zM93 23v2h-2v1h2v2h1v-2h2v-1h-2v-2zM101 23v3h-3v1h3v3h1v-3h3v-1h-3v-3zM111 23v4h-4v1h4v4h1v-4h4v-1h-4v-4zM93 56v2h-2v1h2v2h1v-2h2v-1h-2v-2zM101 56v3h-3v1h3v3h1v-3h3v-1h-3v-3zM111 56v4h-4v1h4v4h1v-4h4v-1h-4v-4zM7 68v2.031A5.486 5.486 0 002.031 75H0v1h2.031A5.486 5.486 0 007 80.969V83h1v-2.031A5.486 5.486 0 0012.969 76H15v-1h-2.031A5.486 5.486 0 008 70.031V68zm0 3.063V72h1v-.938A4.45 4.45 0 0111.938 75H11v1h.938A4.45 4.45 0 018 79.938V79H7v.938A4.45 4.45 0 013.062 76H4v-1h-.938A4.45 4.45 0 017 71.062zM93 45v2h-2v1h2v2h1v-2h2v-1h-2v-2zM101 45v3h-3v1h3v3h1v-3h3v-1h-3v-3zM111 45v4h-4v1h4v4h1v-4h4v-1h-4v-4zM7 44v9h9v-9H8zm1 1h7v7H8zM16 44v11h11V44zm1 1h9v9h-9zM38.5 44a4.5 4.5 0 100 9 4.5 4.5 0 000-9zm0 1a3.5 3.5 0 110 7 3.5 3.5 0 010-7z" opacity=".8"/><path d="M48.5 44a5.5 5.5 0 100 11 5.5 5.5 0 000-11zm0 1a4.5 4.5 0 110 9 4.5 4.5 0 010-9zM84.5 44c-3.038 0-5.5 2.015-5.5 4.5s2.462 4.5 5.5 4.5 5.5-2.015 5.5-4.5-2.462-4.5-5.5-4.5zm0 1c2.485 0 4.5 1.567 4.5 3.5S86.985 52 84.5 52 80 50.433 80 48.5s2.015-3.5 4.5-3.5z" opacity=".8"/></g><g fill="#232629"><path d="M93 12v2h-2v1h2v2h1v-2h2v-1h-2v-2zM101 12v3h-3v1h3v3h1v-3h3v-1h-3v-3zM111 12v4h-4v1h4v4h1v-4h4v-1h-4v-4zM7 11v9h9v-9H8zm1 1h7v7H8zM16 11v11h11V11zm1 1h9v9h-9zM38.5 11a4.5 4.5 0 100 9 4.5 4.5 0 000-9zm0 1a3.5 3.5 0 110 7 3.5 3.5 0 010-7z" opacity=".8"/><path d="M48.5 11a5.5 5.5 0 100 11 5.5 5.5 0 000-11zm0 1a4.5 4.5 0 110 9 4.5 4.5 0 010-9zM84.5 11c-3.038 0-5.5 2.015-5.5 4.5s2.462 4.5 5.5 4.5 5.5-2.015 5.5-4.5-2.462-4.5-5.5-4.5zm0 1c2.485 0 4.5 1.567 4.5 3.5S86.985 19 84.5 19 80 17.433 80 15.5s2.015-3.5 4.5-3.5z" opacity=".8"/></g><g fill="#fff"><path d="M65.5 33c-2.485 0-4.5 2.462-4.5 5.5s2.015 5.5 4.5 5.5 4.5-2.462 4.5-5.5-2.015-5.5-4.5-5.5zm0 1c1.933 0 3.5 2.015 3.5 4.5S67.433 43 65.5 43 62 40.985 62 38.5s1.567-4.5 3.5-4.5zM65.5 0C63.015 0 61 2.462 61 5.5s2.015 5.5 4.5 5.5S70 8.538 70 5.5 67.985 0 65.5 0zm0 1C67.433 1 69 3.015 69 5.5S67.433 10 65.5 10 62 7.985 62 5.5 63.567 1 65.5 1zM16 22v11h11V22zm1 1h9v9h-9zM7 22v9h9v-9zm1 1h7v7H8zM38.5 22a4.5 4.5 0 100 9 4.5 4.5 0 000-9zm0 1a3.5 3.5 0 110 7 3.5 3.5 0 010-7z" opacity=".8"/><path d="M48.5 22a5.5 5.5 0 100 11 5.5 5.5 0 000-11zm0 1a4.5 4.5 0 110 9 4.5 4.5 0 010-9zM84.5 22c-3.038 0-5.5 2.015-5.5 4.5s2.462 4.5 5.5 4.5 5.5-2.015 5.5-4.5-2.462-4.5-5.5-4.5zm0 1c2.485 0 4.5 1.567 4.5 3.5S86.985 30 84.5 30 80 28.433 80 26.5s2.015-3.5 4.5-3.5zM65.5 22c-2.485 0-4.5 2.462-4.5 5.5s2.015 5.5 4.5 5.5 4.5-2.462 4.5-5.5-2.015-5.5-4.5-5.5zm0 1c1.933 0 3.5 2.015 3.5 4.5S67.433 32 65.5 32 62 29.985 62 27.5s1.567-4.5 3.5-4.5zM16 55v11h11V55zm1 1h9v9h-9zM7 55v9h9v-9zm1 1h7v7H8zM38.5 55a4.5 4.5 0 100 9 4.5 4.5 0 000-9zm0 1a3.5 3.5 0 110 7 3.5 3.5 0 010-7z" opacity=".8"/><path d="M48.5 55a5.5 5.5 0 100 11 5.5 5.5 0 000-11zm0 1a4.5 4.5 0 110 9 4.5 4.5 0 010-9zM84.5 55c-3.038 0-5.5 2.015-5.5 4.5s2.462 4.5 5.5 4.5 5.5-2.015 5.5-4.5-2.462-4.5-5.5-4.5zm0 1c2.485 0 4.5 1.567 4.5 3.5S86.985 63 84.5 63 80 61.433 80 59.5s2.015-3.5 4.5-3.5zM65.5 55c-2.485 0-4.5 2.462-4.5 5.5s2.015 5.5 4.5 5.5 4.5-2.462 4.5-5.5-2.015-5.5-4.5-5.5zm0 1c1.933 0 3.5 2.015 3.5 4.5S67.433 65 65.5 65 62 62.985 62 60.5s1.567-4.5 3.5-4.5zM24 71.5a4.5 4.5 0 01-4.5 4.5 4.5 4.5 0 01-4.5-4.5 4.5 4.5 0 014.5-4.5 4.5 4.5 0 014.5 4.5z" opacity=".8"/></g><path d="M23 71.5a3.5 3.5 0 01-3.5 3.5 3.5 3.5 0 01-3.5-3.5 3.5 3.5 0 013.5-3.5 3.5 3.5 0 013.5 3.5z" opacity=".8" fill="#c7162b"/><path d="M19 69v2h-2v1h2v2h1v-2h2v-1h-2v-2zM24 80.5a4.5 4.5 0 01-4.5 4.5 4.5 4.5 0 01-4.5-4.5 4.5 4.5 0 014.5-4.5 4.5 4.5 0 014.5 4.5z" opacity=".8" fill="#fff"/><path d="M23 80.5a3.5 3.5 0 01-3.5 3.5 3.5 3.5 0 01-3.5-3.5 3.5 3.5 0 013.5-3.5 3.5 3.5 0 013.5 3.5z" fill="#2ecc71"/><g fill="#fff"><path d="M19 78v2h-2v1h2v2h1v-2h2v-1h-2v-2z" opacity=".8"/><path d="M60 71a2 2 0 00-.5 3.938V77H57v1h2.5v7.969a7.968 7.968 0 01-6.094-3.5l.188-.094.906-.5L54 81l-3 1.625.5.875 1.031-.563C54.135 85.373 56.867 87 60 87s5.864-1.627 7.469-4.063l1.031.563.5-.875L66 81l-.5.875.906.5.188.094a7.968 7.968 0 01-6.094 3.5V78H63v-1h-2.5v-2.062A2.001 2.001 0 0060 71zm0 1a1 1 0 110 2 1 1 0 010-2z" opacity=".8" fill-rule="evenodd"/></g></svg>