<?xml version="1.0" encoding="UTF-8" standalone="no"?>
<svg
   xmlns:dc="http://purl.org/dc/elements/1.1/"
   xmlns:cc="http://creativecommons.org/ns#"
   xmlns:rdf="http://www.w3.org/1999/02/22-rdf-syntax-ns#"
   xmlns:svg="http://www.w3.org/2000/svg"
   xmlns="http://www.w3.org/2000/svg"
   xmlns:xlink="http://www.w3.org/1999/xlink"
   xmlns:sodipodi="http://sodipodi.sourceforge.net/DTD/sodipodi-0.dtd"
   xmlns:inkscape="http://www.inkscape.org/namespaces/inkscape"
   viewBox="0 0 32 32"
   version="1.1"
   id="svg4"
   sodipodi:docname="underline.svg"
   inkscape:export-filename="/home/jupiter007/Libreoffice yaru theme fullcolor/build/cmd/32/ca/underline.png"
   inkscape:export-xdpi="95"
   inkscape:export-ydpi="95"
   inkscape:version="1.0.1 (3bc2e813f5, 2020-09-07)">
  <metadata
     id="metadata10">
    <rdf:RDF>
      <cc:Work
         rdf:about="">
        <dc:format>image/svg+xml</dc:format>
        <dc:type
           rdf:resource="http://purl.org/dc/dcmitype/StillImage" />
      </cc:Work>
    </rdf:RDF>
  </metadata>
  <defs
     id="defs8">
    <radialGradient
       id="a"
       cx="10.903473"
       cy="14.502974"
       gradientTransform="matrix(-1.709666,0.09708959,-0.15502467,-2.8523761,39.32894,44.039639)"
       gradientUnits="userSpaceOnUse"
       r="6.2253389"
       xlink:href="#b" />
    <linearGradient
       id="b">
      <stop
         offset="0"
         stop-color="#555"
         id="stop3" />
      <stop
         offset="1"
         stop-color="#666"
         id="stop5" />
    </linearGradient>
  </defs>
  <sodipodi:namedview
     pagecolor="#ffffff"
     bordercolor="#666666"
     borderopacity="1"
     objecttolerance="10"
     gridtolerance="10"
     guidetolerance="10"
     inkscape:pageopacity="0"
     inkscape:pageshadow="2"
     inkscape:window-width="1920"
     inkscape:window-height="1011"
     id="namedview6"
     showgrid="true"
     inkscape:zoom="16.000001"
     inkscape:cx="-1.2638179"
     inkscape:cy="20.873964"
     inkscape:window-x="0"
     inkscape:window-y="0"
     inkscape:window-maximized="1"
     inkscape:current-layer="svg4"
     inkscape:document-rotation="0">
    <inkscape:grid
       type="xygrid"
       id="grid830" />
  </sodipodi:namedview>
  <rect
     style="opacity:0.6;fill:#000000;fill-opacity:1;stroke:#000000;stroke-width:2;stroke-linejoin:round;stroke-miterlimit:4;stroke-dasharray:none;stroke-opacity:1"
     id="rect844"
     width="18"
     height="1"
     x="7"
     y="27" />
  <path
     d="m 22.036511,19.533937 c 0,0.861093 -0.180341,1.633414 -0.541024,2.316963 -0.350378,0.674671 -0.855334,1.247254 -1.514867,1.717747 -0.659534,0.470495 -1.463341,0.830024 -2.411421,1.078587 -0.948079,0.239685 -1.68017,0.359528 -2.865271,0.359528 -1.143879,0 -2.215622,-0.0799 -3.215228,-0.239685 -0.989301,-0.150913 -1.8188708,-0.377283 -2.4887103,-0.67911 l -0.00781,-2.226409 c 0.3503774,0.142037 0.7471285,0.284073 1.1902523,0.426108 0.45343,0.13316 0.927469,0.253003 1.422119,0.359529 0.494651,0.106528 1.004759,0.1953 1.530325,0.266318 0.525567,0.06214 1.045981,0.09321 1.561241,0.09321 1.648835,0 2.530354,-0.266318 3.31355,-0.798954 0.793502,-0.532634 1.198066,-1.439896 1.198066,-2.434148 0,-0.479371 -0.07729,-0.896602 -0.231868,-1.251693 -0.144276,-0.355088 -0.40706,-0.679106 -0.788353,-0.972055 -0.370988,-0.301827 -0.870791,-0.590337 -1.499409,-0.865532 -0.628619,-0.284073 -1.355514,-0.590338 -2.313899,-0.918796 -0.917164,-0.310704 -1.715818,-0.64804 -2.395963,-1.012007 -0.669839,-0.372845 -1.22632,-0.790076 -1.669444,-1.251693 C 9.8759768,13.040229 9.5513624,12.516471 9.3349527,11.930572 9.1288484,11.344673 9.0257962,10.678879 9.0257962,9.9331902 c 0,-0.781198 0.1648833,-1.478062 0.49465,-2.0905929 C 9.8502138,7.2300672 10.313949,6.7151867 10.911652,6.2979558 11.509354,5.8718479 12.220414,5.5478281 13.044831,5.3258963 13.879554,5.1039654 15.064611,4.993 16.064217,4.993 c 1.226321,0 2.328979,0.1020881 3.307974,0.3062642 0.978995,0.1953 1.849786,0.448302 2.612373,0.7590059 L 20.94889,7.9714847 C 20.279051,7.714043 19.516466,7.492111 18.661133,7.3056888 c -0.845029,-0.1953 -1.720973,-0.29295 -2.627832,-0.29295 -1.257237,0 -2.498972,0.253002 -3.189421,0.7590059 -0.69045,0.4971263 -1.035675,1.3358595 -1.035675,2.1880755 0,0.5060028 0.07729,0.9454268 0.231868,1.3182718 0.154578,0.363968 0.412208,0.696865 0.772891,0.998691 0.360683,0.292949 0.834723,0.572583 1.42212,0.8389 0.597703,0.25744 1.262767,0.532635 2.128404,0.825584 0.937775,0.319581 1.75704,0.64804 2.457794,0.985375 0.711061,0.337335 1.303611,0.719058 1.77765,1.145167 0.474041,0.426108 0.829572,0.918795 1.066591,1.478062 0.247325,0.559267 0.370988,1.220622 0.370988,1.984066 z"
     id="path832"
     style="opacity:0.6;fill:#000000;stroke:#000000;stroke-width:2;stroke-linejoin:round;stroke-miterlimit:4;stroke-dasharray:none;stroke-opacity:1"
     inkscape:connector-curvature="0"
     sodipodi:nodetypes="scscsccccccscscccccccscccsccccscscccccccs" />
  <path
     inkscape:connector-curvature="0"
     style="fill:#ffffff;stroke:none;stroke-width:0;stroke-miterlimit:4;stroke-dasharray:none;stroke-opacity:0.6"
     id="path9"
     d="m 22.036511,19.533937 c 0,0.861093 -0.180341,1.633414 -0.541024,2.316963 -0.350378,0.674671 -0.855334,1.247254 -1.514867,1.717747 -0.659534,0.470495 -1.463341,0.830024 -2.411421,1.078587 -0.948079,0.239685 -1.68017,0.359528 -2.865271,0.359528 -1.143879,0 -2.215622,-0.0799 -3.215228,-0.239685 -0.989301,-0.150913 -1.8188708,-0.377283 -2.4887103,-0.67911 l -0.00781,-2.226409 c 0.3503774,0.142037 0.7471285,0.284073 1.1902523,0.426108 0.45343,0.13316 0.927469,0.253003 1.422119,0.359529 0.494651,0.106528 1.004759,0.1953 1.530325,0.266318 0.525567,0.06214 1.045981,0.09321 1.561241,0.09321 1.648835,0 2.530354,-0.266318 3.31355,-0.798954 0.793502,-0.532634 1.198066,-1.439896 1.198066,-2.434148 0,-0.479371 -0.07729,-0.896602 -0.231868,-1.251693 -0.144276,-0.355088 -0.40706,-0.679106 -0.788353,-0.972055 -0.370988,-0.301827 -0.870791,-0.590337 -1.499409,-0.865532 -0.628619,-0.284073 -1.355514,-0.590338 -2.313899,-0.918796 -0.917164,-0.310704 -1.715818,-0.64804 -2.395963,-1.012007 -0.669839,-0.372845 -1.22632,-0.790076 -1.669444,-1.251693 C 9.8759768,13.040229 9.5513624,12.516471 9.3349527,11.930572 9.1288484,11.344673 9.0257962,10.678879 9.0257962,9.9331902 c 0,-0.781198 0.1648833,-1.478062 0.49465,-2.0905929 C 9.8502138,7.2300672 10.313949,6.7151867 10.911652,6.2979558 11.509354,5.8718479 12.220414,5.5478281 13.044831,5.3258963 13.879554,5.1039654 15.064611,4.993 16.064217,4.993 c 1.226321,0 2.328979,0.1020881 3.307974,0.3062642 0.978995,0.1953 1.849786,0.448302 2.612373,0.7590059 L 20.94889,7.9714847 C 20.279051,7.714043 19.516466,7.492111 18.661133,7.3056888 c -0.845029,-0.1953 -1.720973,-0.29295 -2.627832,-0.29295 -1.257237,0 -2.498972,0.253002 -3.189421,0.7590059 -0.69045,0.4971263 -1.035675,1.3358595 -1.035675,2.1880755 0,0.5060028 0.07729,0.9454268 0.231868,1.3182718 0.154578,0.363968 0.412208,0.696865 0.772891,0.998691 0.360683,0.292949 0.834723,0.572583 1.42212,0.8389 0.597703,0.25744 1.262767,0.532635 2.128404,0.825584 0.937775,0.319581 1.75704,0.64804 2.457794,0.985375 0.711061,0.337335 1.303611,0.719058 1.77765,1.145167 0.474041,0.426108 0.829572,0.918795 1.066591,1.478062 0.247325,0.559267 0.370988,1.220622 0.370988,1.984066 z"
     sodipodi:nodetypes="scscsccccccscscccccccscccsccccscscccccccs" />
  <rect
     style="opacity:1;fill:#ffffff;fill-opacity:1;stroke:none;stroke-width:2;stroke-linejoin:round;stroke-miterlimit:4;stroke-dasharray:none;stroke-opacity:1"
     id="rect834"
     width="18"
     height="1"
     x="7"
     y="27" />
</svg>
