<?xml version="1.0" encoding="UTF-8" standalone="no"?>
<svg
   xmlns:dc="http://purl.org/dc/elements/1.1/"
   xmlns:cc="http://creativecommons.org/ns#"
   xmlns:rdf="http://www.w3.org/1999/02/22-rdf-syntax-ns#"
   xmlns:svg="http://www.w3.org/2000/svg"
   xmlns="http://www.w3.org/2000/svg"
   xmlns:sodipodi="http://sodipodi.sourceforge.net/DTD/sodipodi-0.dtd"
   xmlns:inkscape="http://www.inkscape.org/namespaces/inkscape"
   viewBox="0 0 32 32"
   version="1.1"
   id="svg4"
   sodipodi:docname="underlinedouble.svg"
   inkscape:export-filename="/home/jupiter007/Libreoffice yaru theme fullcolor/build/cmd/32/ca/underlinedouble.png"
   inkscape:export-xdpi="96"
   inkscape:export-ydpi="96"
   inkscape:version="1.0.1 (3bc2e813f5, 2020-09-07)">
  <metadata
     id="metadata10">
    <rdf:RDF>
      <cc:Work
         rdf:about="">
        <dc:format>image/svg+xml</dc:format>
        <dc:type
           rdf:resource="http://purl.org/dc/dcmitype/StillImage" />
      </cc:Work>
    </rdf:RDF>
  </metadata>
  <defs
     id="defs8" />
  <sodipodi:namedview
     pagecolor="#ffffff"
     bordercolor="#666666"
     borderopacity="1"
     objecttolerance="10"
     gridtolerance="10"
     guidetolerance="10"
     inkscape:pageopacity="0"
     inkscape:pageshadow="2"
     inkscape:window-width="1920"
     inkscape:window-height="1011"
     id="namedview6"
     showgrid="true"
     inkscape:zoom="20.85965"
     inkscape:cx="14.892531"
     inkscape:cy="16.142005"
     inkscape:window-x="0"
     inkscape:window-y="0"
     inkscape:window-maximized="1"
     inkscape:current-layer="svg4"
     inkscape:document-rotation="0">
    <inkscape:grid
       type="xygrid"
       id="grid833" />
  </sodipodi:namedview>
  <path
     id="rect836"
     style="opacity:0.7;fill:#000000;fill-opacity:1;stroke:#000000;stroke-width:2;stroke-linejoin:round;stroke-miterlimit:4;stroke-dasharray:none;stroke-opacity:1"
     d="m 7,26 v 1 h 18 v -1 z m 0,2 v 1 h 18 v -1 z"
     sodipodi:nodetypes="cccccccccc" />
  <rect
     style="opacity:1;fill:#ffffff;fill-opacity:1;stroke:none;stroke-width:2;stroke-linejoin:round;stroke-miterlimit:4;stroke-dasharray:none;stroke-opacity:1"
     id="rect834"
     width="18"
     height="1"
     x="7"
     y="26" />
  <rect
     y="28"
     x="7"
     height="1"
     width="18"
     id="rect859"
     style="opacity:1;fill:#ffffff;fill-opacity:1;stroke:none;stroke-width:2;stroke-linejoin:round;stroke-miterlimit:4;stroke-dasharray:none;stroke-opacity:1" />
  <path
     d="m 22.049542,18.526937 c 0,0.861093 -0.180341,1.633414 -0.541024,2.316963 -0.350378,0.674671 -0.855334,1.247254 -1.514867,1.717747 -0.659534,0.470495 -1.463341,0.830024 -2.411421,1.078587 -0.948079,0.239685 -1.68017,0.359528 -2.865271,0.359528 -1.143879,0 -2.215622,-0.0799 -3.215228,-0.239685 -0.989301,-0.150913 -1.8188711,-0.377283 -2.4887106,-0.67911 l -0.00781,-2.226409 c 0.3503774,0.142037 0.7471285,0.284073 1.1902526,0.426108 0.45343,0.13316 0.927469,0.253003 1.422119,0.359529 0.494651,0.106528 1.004759,0.1953 1.530325,0.266318 0.525567,0.06214 1.045981,0.09321 1.561241,0.09321 1.648835,0 2.530354,-0.266318 3.31355,-0.798954 0.793502,-0.532634 1.198066,-1.439896 1.198066,-2.434148 0,-0.479371 -0.07729,-0.896602 -0.231868,-1.251693 C 18.84462,17.15984 18.581836,16.835822 18.200543,16.542873 17.829555,16.241046 17.329752,15.952536 16.701134,15.677341 16.072515,15.393268 15.34562,15.087003 14.387235,14.758545 13.470071,14.447841 12.671417,14.110505 11.991272,13.746538 11.321433,13.373693 10.764952,12.956462 10.321828,12.494845 9.8890075,12.033229 9.5643931,11.509471 9.3479834,10.923572 9.1418791,10.337673 9.0388269,9.671879 9.0388269,8.92619 c 0,-0.781198 0.1648833,-1.478062 0.49465,-2.090593 C 9.8632445,6.223067 10.32698,5.708186 10.924683,5.290955 11.522385,4.864848 12.233445,4.540828 13.057862,4.318896 13.892585,4.096965 15.077642,3.986 16.077248,3.986 c 1.226321,0 2.328979,0.102088 3.307974,0.306264 0.978995,0.1953 1.849786,0.448302 2.612373,0.759006 L 20.961921,6.964484 C 20.292082,6.707043 19.529497,6.485111 18.674164,6.298688 c -0.845029,-0.1953 -1.720973,-0.29295 -2.627832,-0.29295 -1.257237,0 -2.498972,0.253002 -3.189421,0.759006 -0.69045,0.497127 -1.035675,1.33586 -1.035675,2.188076 0,0.506003 0.07729,0.945427 0.231868,1.318272 0.154578,0.363968 0.412208,0.696865 0.772891,0.998691 0.360683,0.292949 0.834723,0.572583 1.42212,0.8389 0.597703,0.25744 1.262767,0.532635 2.128404,0.825584 0.937775,0.319581 1.75704,0.64804 2.457794,0.985375 0.711061,0.337335 1.303611,0.719058 1.77765,1.145167 0.474041,0.426108 0.829572,0.918795 1.066591,1.478062 0.247325,0.559267 0.370988,1.220622 0.370988,1.984066 z"
     id="path832"
     style="opacity:0.7;fill:#000000;stroke:#000000;stroke-width:2;stroke-linejoin:round;stroke-miterlimit:4;stroke-dasharray:none;stroke-opacity:1"
     inkscape:connector-curvature="0"
     sodipodi:nodetypes="scscsccccccscscccccccscccsccccscscccccccs" />
  <path
     inkscape:connector-curvature="0"
     style="fill:#ffffff;stroke:none;stroke-width:0;stroke-miterlimit:4;stroke-dasharray:none;stroke-opacity:0.7"
     id="path9"
     d="m 22.049542,18.526937 c 0,0.861093 -0.180341,1.633414 -0.541024,2.316963 -0.350378,0.674671 -0.855334,1.247254 -1.514867,1.717747 -0.659534,0.470495 -1.463341,0.830024 -2.411421,1.078587 -0.948079,0.239685 -1.68017,0.359528 -2.865271,0.359528 -1.143879,0 -2.215622,-0.0799 -3.215228,-0.239685 -0.989301,-0.150913 -1.8188711,-0.377283 -2.4887106,-0.67911 l -0.00781,-2.226409 c 0.3503774,0.142037 0.7471285,0.284073 1.1902526,0.426108 0.45343,0.13316 0.927469,0.253003 1.422119,0.359529 0.494651,0.106528 1.004759,0.1953 1.530325,0.266318 0.525567,0.06214 1.045981,0.09321 1.561241,0.09321 1.648835,0 2.530354,-0.266318 3.31355,-0.798954 0.793502,-0.532634 1.198066,-1.439896 1.198066,-2.434148 0,-0.479371 -0.07729,-0.896602 -0.231868,-1.251693 C 18.84462,17.15984 18.581836,16.835822 18.200543,16.542873 17.829555,16.241046 17.329752,15.952536 16.701134,15.677341 16.072515,15.393268 15.34562,15.087003 14.387235,14.758545 13.470071,14.447841 12.671417,14.110505 11.991272,13.746538 11.321433,13.373693 10.764952,12.956462 10.321828,12.494845 9.8890075,12.033229 9.5643931,11.509471 9.3479834,10.923572 9.1418791,10.337673 9.0388269,9.671879 9.0388269,8.92619 c 0,-0.781198 0.1648833,-1.478062 0.49465,-2.090593 C 9.8632445,6.223067 10.32698,5.708186 10.924683,5.290955 11.522385,4.864848 12.233445,4.540828 13.057862,4.318896 13.892585,4.096965 15.077642,3.986 16.077248,3.986 c 1.226321,0 2.328979,0.102088 3.307974,0.306264 0.978995,0.1953 1.849786,0.448302 2.612373,0.759006 L 20.961921,6.964484 C 20.292082,6.707043 19.529497,6.485111 18.674164,6.298688 c -0.845029,-0.1953 -1.720973,-0.29295 -2.627832,-0.29295 -1.257237,0 -2.498972,0.253002 -3.189421,0.759006 -0.69045,0.497127 -1.035675,1.33586 -1.035675,2.188076 0,0.506003 0.07729,0.945427 0.231868,1.318272 0.154578,0.363968 0.412208,0.696865 0.772891,0.998691 0.360683,0.292949 0.834723,0.572583 1.42212,0.8389 0.597703,0.25744 1.262767,0.532635 2.128404,0.825584 0.937775,0.319581 1.75704,0.64804 2.457794,0.985375 0.711061,0.337335 1.303611,0.719058 1.77765,1.145167 0.474041,0.426108 0.829572,0.918795 1.066591,1.478062 0.247325,0.559267 0.370988,1.220622 0.370988,1.984066 z"
     sodipodi:nodetypes="scscsccccccscscccccccscccsccccscscccccccs" />
</svg>
