<svg viewBox="0 0 24 24" xmlns:xlink="http://www.w3.org/1999/xlink" xmlns="http://www.w3.org/2000/svg"><defs><linearGradient id="c" x1="0" y1="0" x2="1" y2="0" gradientUnits="userSpaceOnUse" gradientTransform="matrix(0 20 -20 0 753 483)"><stop offset="0" style="stop-color:#0369a3;stop-opacity:1"/><stop offset="1" style="stop-color:#047fc6;stop-opacity:1"/></linearGradient><linearGradient id="d" x1="0" y1="0" x2="1" y2="0" gradientUnits="userSpaceOnUse" gradientTransform="rotate(90 134 624) scale(1.5)"><stop offset="0" style="stop-color:#aadcf7;stop-opacity:1"/><stop offset="1" style="stop-color:#aadcf7;stop-opacity:1"/></linearGradient><linearGradient gradientTransform="translate(-320.5 -189)" xlink:href="#a" id="b" x1="328" y1="188" x2="336" y2="212" gradientUnits="userSpaceOnUse"/><linearGradient id="a"><stop style="stop-color:#f2f2f2;stop-opacity:1" offset="0"/><stop style="stop-color:#fff;stop-opacity:1" offset="1"/></linearGradient></defs><path style="color:#000;fill:#0369a3;stroke-width:2;-inkscape-stroke:none;fill-opacity:1" d="M8.865 2c-1.107 0-1.946.025-2.625.139-.66.11-1.143.314-1.472.642-.33.329-.528.812-.637 1.467-.113.676-.136 1.513-.131 2.621V17.131c-.005 1.108.019 1.946.13 2.621.11.655.308 1.138.638 1.467v.002c.329.328.813.53 1.472.64.68.114 1.518.139 2.625.139h6.27c1.107 0 1.946-.025 2.625-.139.66-.11 1.143-.314 1.472-.642.33-.329.528-.812.637-1.467.113-.676.136-1.513.131-2.621V6.87c.001-.313 0-.603-.004-.875l-3.988-3.988c-.272-.006-.56-.008-.873-.008H12z"/><path style="color:#000;font-style:normal;font-variant:normal;font-weight:400;font-stretch:normal;font-size:medium;line-height:normal;font-family:sans-serif;font-variant-ligatures:normal;font-variant-position:normal;font-variant-caps:normal;font-variant-numeric:normal;font-variant-alternates:normal;font-feature-settings:normal;text-indent:0;text-align:start;text-decoration:none;text-decoration-line:none;text-decoration-style:solid;text-decoration-color:#000;letter-spacing:normal;word-spacing:normal;text-transform:none;writing-mode:lr-tb;direction:ltr;text-orientation:mixed;dominant-baseline:auto;baseline-shift:baseline;text-anchor:start;white-space:normal;shape-padding:0;clip-rule:nonzero;display:inline;overflow:visible;visibility:visible;isolation:auto;mix-blend-mode:normal;color-interpolation:sRGB;color-interpolation-filters:linearRGB;solid-color:#000;solid-opacity:1;vector-effect:none;fill:url(#b);fill-opacity:1;fill-rule:nonzero;stroke:none;stroke-width:3;stroke-linecap:butt;stroke-linejoin:miter;stroke-miterlimit:4;stroke-dasharray:none;stroke-dashoffset:0;stroke-opacity:1;marker:none;color-rendering:auto;image-rendering:auto;shape-rendering:auto;text-rendering:auto;enable-background:accumulate" d="M8.866 3c-1.089 0-1.9.031-2.46.125-.548.092-.796.229-.931.363-.134.134-.266.377-.357.924C5.025 4.968 4.995 5.78 5 6.87V17.131c-.005 1.09.025 1.902.118 2.457.09.547.223.79.357.924.135.134.383.271.932.363.558.094 1.37.125 2.459.125h6.27c1.088 0 1.9-.031 2.456-.125.547-.092.788-.227.922-.361.134-.135.27-.377.362-.926.093-.558.105-1.373.125-2.463V11L19 7c-4 0-4 0-4-4z"/><rect style="opacity:1;fill:#0369a3;fill-opacity:1;fill-rule:evenodd;stroke-width:1.00157;stroke-linecap:square" width="3" height="1" x="7" y="8" ry=".5" rx=".5"/><rect style="opacity:1;fill:#0369a3;fill-opacity:1;fill-rule:evenodd;stroke-width:1.00157;stroke-linecap:square" width="3" height="1" x="7" y="10" ry=".5" rx=".5"/><rect style="opacity:1;fill:#0369a3;fill-opacity:1;fill-rule:evenodd;stroke-width:1.00157;stroke-linecap:square" width="10" height="1" x="7" y="14" ry=".469" rx=".5"/><rect style="opacity:1;fill:#0369a3;fill-opacity:1;fill-rule:evenodd;stroke-width:1.00157;stroke-linecap:square" width="3" height="1" x="7" y="12" ry=".5" rx=".5"/><rect style="opacity:1;fill:#0369a3;fill-opacity:1;fill-rule:evenodd;stroke-width:1.00157;stroke-linecap:square" width="10" height="1" x="7" y="16" ry=".469" rx=".5"/><rect style="opacity:1;fill:#0369a3;fill-opacity:1;fill-rule:evenodd;stroke-width:1.00157;stroke-linecap:square" width="5" height="1" x="7" y="18" ry=".439" rx=".5"/><g style="clip-rule:evenodd;display:inline;fill-rule:evenodd;enable-background:new"><path d="M753.198 489c-.662 0-1.198.536-1.198 1.198v2.604c0 .662.536 1.198 1.198 1.198h3.604c.662 0 1.198-.536 1.198-1.198v-2.604c0-.662-.536-1.198-1.198-1.198z" style="fill:url(#c);fill-rule:nonzero" transform="translate(-741 -481)"/></g><g style="clip-rule:evenodd;display:inline;fill-rule:evenodd;enable-background:new"><path d="M756.456 490h-2.912c-.3 0-.544.244-.544.544v1.912c0 .3.244.544.544.544h2.912c.3 0 .544-.244.544-.544v-1.912c0-.3-.244-.544-.544-.544z" style="fill:url(#d);fill-rule:nonzero" transform="translate(-741 -481)"/></g><g style="clip-rule:evenodd;display:inline;fill-rule:evenodd;enable-background:new"><path d="m756.993 492.829-.499-.762c-.24-.368-.69-.373-.936-.011l-.155.228c-.036.054-.104.05-.136-.007l-.558-.962c-.257-.444-.794-.413-1.018.059l-.688 1.452c.033.26.213.458.43.458h3.13c.217 0 .396-.197.43-.455z" style="fill:#0474b4;stroke-width:.999996" transform="translate(-741 -481)"/></g></svg>