<svg height="32" width="32" xmlns:xlink="http://www.w3.org/1999/xlink" xmlns="http://www.w3.org/2000/svg"><defs><linearGradient gradientTransform="matrix(.67266 0 0 .64266 -215.452 -37.943)" xlink:href="#a" id="c" x1="352.897" y1="106.506" x2="334.864" y2="61.5" gradientUnits="userSpaceOnUse"/><linearGradient id="a"><stop offset="0" style="stop-color:#626262;stop-opacity:1"/><stop offset="1" style="stop-color:#4e4e4e;stop-opacity:1"/></linearGradient><linearGradient xlink:href="#b" id="d" x1="372" y1="134" x2="372" y2="162" gradientUnits="userSpaceOnUse" gradientTransform="translate(-357.002 -132)"/><linearGradient id="b"><stop style="stop-color:#fff;stop-opacity:1" offset="0"/><stop offset=".125" style="stop-color:#fff;stop-opacity:.09803922"/><stop offset=".925" style="stop-color:#fff;stop-opacity:.09803922"/><stop style="stop-color:#fff;stop-opacity:.49803922" offset="1"/></linearGradient></defs><path style="color:#000;font-style:normal;font-variant:normal;font-weight:400;font-stretch:normal;font-size:medium;line-height:normal;font-family:sans-serif;font-variant-ligatures:normal;font-variant-position:normal;font-variant-caps:normal;font-variant-numeric:normal;font-variant-alternates:normal;font-feature-settings:normal;text-indent:0;text-align:start;text-decoration:none;text-decoration-line:none;text-decoration-style:solid;text-decoration-color:#000;letter-spacing:normal;word-spacing:normal;text-transform:none;writing-mode:lr-tb;direction:ltr;text-orientation:mixed;dominant-baseline:auto;baseline-shift:baseline;text-anchor:start;white-space:normal;shape-padding:0;clip-rule:nonzero;display:inline;overflow:visible;visibility:visible;opacity:.1;isolation:auto;mix-blend-mode:normal;color-interpolation:sRGB;color-interpolation-filters:linearRGB;solid-color:#000;solid-opacity:1;fill:#000;fill-opacity:1;fill-rule:nonzero;stroke:none;stroke-width:.991584;stroke-linecap:butt;stroke-linejoin:miter;stroke-miterlimit:4;stroke-dasharray:none;stroke-dashoffset:0;stroke-opacity:1;marker:none;color-rendering:auto;image-rendering:auto;shape-rendering:auto;text-rendering:auto;enable-background:accumulate" d="M22.286 1.996c-.083 0-.155.007-.217.016l-.037.006-.037.011c-1.02.305-1.354 1.668-.547 2.37V4.4l5.09 4.766.006.004c.442.392 1.036.398 1.508.219.472-.18.917-.595.941-1.19V6.834c.006-1.037.025-1.822-.017-2.455-.043-.634-.144-1.149-.473-1.553-.33-.405-.828-.593-1.43-.686-.601-.093-1.352-.111-2.361-.132h-2.276c-.047-.005-.095-.012-.15-.012zm-7.258.002L10.073 2c-2.8 0-4.575.102-5.719 1.133-.242.219-.43.475-.587.744-.012.02-.057.078-.112.187-.09.18-.17.373-.238.577a5.97 5.97 0 0 0-.174.65c-.048.23-.087.471-.119.728v.002c-.065.516-.1 1.09-.115 1.737a38.86 38.86 0 0 0-.01 1.023V25.22c-.002.36.002.7.01 1.022.015.646.05 1.222.115 1.738.032.258.07.499.12.729.096.46.23.867.411 1.226.182.36.413.676.7.934.143.13.3.243.466.344.333.202.71.35 1.13.46v.003C7 31.95 8.323 32 10.072 32H21.93c.695 0 1.322-.01 1.89-.037h.002a18 18 0 0 0 .67-.047h.004l.09-.006h.014l.033-.002h.002a8.828 8.828 0 0 0 1.389-.23c.205-.054.405-.116.595-.192.19-.075.365-.163.53-.262.165-.1.321-.212.464-.34.13-.114.241-.239.342-.365l.006-.006.022-.021.015-.02.006-.008.002-.004.008-.008.008-.013.012-.024.012-.011-.008.004.025-.047-.012.027c.095-.132.188-.269.266-.42.092-.179.172-.369.24-.568.07-.201.126-.413.176-.639.05-.227.091-.466.125-.719.03-.229.055-.471.074-.719l.002-.002v-.004c0 .019.005-.009.01-.082v-.002a.236.236 0 0 0 0-.006v-.004c.041-.564.057-1.19.059-1.89V14.14c-.007-1.561-1.321-2.69-2.268-3.504l-.01-.008-.002-.002-6.71-6.474-.009-.006c-1.543-1.391-2.794-2.15-4.974-2.15z"/><path style="color:#000;display:inline;overflow:visible;visibility:visible;fill:url(#c);fill-opacity:1;fill-rule:nonzero;stroke:none;stroke-width:.135116;marker:none;enable-background:accumulate" d="M22.433 1.5c-.05 0-.1.005-.149.011-.632.193-.847 1.109-.36 1.54l5.155 4.828c.529.48 1.382.07 1.41-.626V5.892c.023-4.214.33-4.294-3.664-4.38h-2.242c-.05-.008-.1-.012-.15-.012zm-12.636.08c-5.537 0-6.328.583-6.299 6.265v16.39C3.47 29.918 4.507 30.5 10.044 30.5H21.84c5.498 0 6.529-.58 6.543-6.153v-11.15c-.006-1.256-1.155-2.317-2.086-3.118l-.008-.006-6.702-6.475c-1.51-1.364-2.553-2.017-4.619-2.017z"/><path style="display:inline;opacity:.1;fill:#fff;fill-opacity:1;stroke:none;stroke-width:1;stroke-linecap:round;stroke-linejoin:round;stroke-miterlimit:4;stroke-dasharray:none;stroke-dashoffset:0;stroke-opacity:1;enable-background:new" d="M3.498 16v8.236c-.03 5.683 1.008 6.264 6.545 6.264h11.799c5.497 0 6.528-.58 6.542-6.152V16z"/><path style="display:inline;opacity:.1;fill:#fff;stroke-linecap:round;stroke-linejoin:round;stroke-dasharray:3,3;enable-background:new" d="M22.432 1.5c-.05 0-.1.005-.149.012-.632.192-.847 1.108-.359 1.539l5.154 4.828c.53.48 1.383.07 1.41-.627v-1.36c.023-4.214.33-4.294-3.664-4.38h-2.242c-.05-.007-.1-.012-.15-.012zm-6.434.154V30.5h5.844c5.497 0 6.529-.58 6.543-6.152v-11.15c-.006-1.257-1.157-2.319-2.088-3.12l-.008-.006-6.701-6.474c-1.235-1.115-2.166-1.747-3.59-1.944z"/><path style="color:#000;display:inline;overflow:visible;visibility:visible;opacity:.4;fill:none;fill-opacity:1;fill-rule:nonzero;stroke:#000;stroke-width:.991584;stroke-miterlimit:4;stroke-dasharray:none;marker:none;enable-background:accumulate" d="M22.285 1.492c-.05 0-.1.005-.15.012-.639.19-.856 1.096-.364 1.521l5.1 4.774c.533.474 1.597.07 1.625-.62V5.835c.023-4.167.232-4.245-3.797-4.33h-2.264c-.05-.007-.1-.012-.15-.012zm-12.213.004c-2.782 0-4.434.146-5.387 1.004a2.586 2.586 0 0 0-.492.627c-.032.054-.069.103-.098.16a3.79 3.79 0 0 0-.209.51 5.464 5.464 0 0 0-.16.596 8.408 8.408 0 0 0-.113.69 16.93 16.93 0 0 0-.111 1.687c-.007.317-.01.653-.008 1.01v16.44c-.002.357 0 .693.008 1.01.015.635.05 1.195.111 1.688.03.246.068.475.113.69.09.428.212.792.37 1.105.157.312.351.572.59.787.118.107.248.203.39.29.283.171.614.304.998.405.96.252 2.26.309 3.998.309h11.855c.691 0 1.31-.01 1.868-.037.23-.011.443-.027.652-.045.044-.004.094-.004.137-.008h.002a8.353 8.353 0 0 0 1.31-.217c.191-.05.37-.106.535-.172a3.19 3.19 0 0 0 .46-.226 2.473 2.473 0 0 0 .68-.594c.01-.014.025-.026.036-.041l.002-.004c.097-.128.185-.266.264-.418.08-.154.149-.321.21-.502a5.38 5.38 0 0 0 .163-.586c.046-.21.085-.436.117-.678.029-.215.051-.449.07-.691.002-.03.008-.054.01-.084v-.012c.04-.548.057-1.163.059-1.857V13.146c-.006-1.26-1.16-2.325-2.096-3.129l-.008-.006-6.73-6.492c-1.517-1.368-2.566-2.023-4.642-2.023z"/><path style="display:inline;opacity:.2;fill:url(#d);fill-opacity:1;stroke:none;stroke-width:.125;stroke-linecap:round;stroke-linejoin:round;stroke-miterlimit:4;stroke-dasharray:none;stroke-dashoffset:0;stroke-opacity:1;enable-background:new" d="M23.166 2.075c-.991.035-1.027.046-1.027.336 0 .102.152.31.459.646h2.879c.16 0 .31.03.453.076.323.02.645.05.965.104.026.321.03.648.037.975.026.111.045.226.045.345v2.618c.255.212.453.368.49.369.452.012.506-.289.463-2.55-.053-2.804.043-2.677-2.156-2.839-.87-.064-2.042-.1-2.608-.08zm-10.84.037c-5.166.002-5.892.063-6.902.576-.603.307-1.038 1.065-1.246 2.172-.244 1.3-.239 21.425.006 22.5.411 1.808 1.06 2.331 3.186 2.564.491.054 4.635.087 9.207.073 7.44-.023 8.39-.048 9.062-.24 1.208-.347 1.676-.802 2.025-1.963.179-.594.213-1.685.254-8.284.048-7.556.047-6.603-.218-7.152-.074-.152-.339-.463-.723-.875v4.074c0 .124-.02.242-.049.358.025 3.831-.043 6.675-.123 10.472.094.99-.264 2.21-1.373 2.43-4.178.213-8.398.16-12.605.19-2.094-.072-4.22.133-6.291-.202-1.208-.09-1.372-1.432-1.467-2.377-.175-6.578-.131-13.282-.041-19.888.085-1.092-.038-2.658 1.181-3.164 2.366-.423 4.785-.222 7.176-.313.611.035.29.015.942.012.06-.007.117-.018.178-.018h3.592c-.427-.309-.79-.528-1.168-.683-.61-.251.126-.264-4.602-.262z"/></svg>