<svg xmlns="http://www.w3.org/2000/svg" height="32" width="32"><path d="M2 4l4.003 8.845c.34.628.688 1.137 1.043 1.523a3.88 3.88 0 001.286.92c-.695.242-1.264.596-1.708 1.064-.429.45-.814 1.03-1.154 1.74L2 28h2.76c.503 0 .94-.04 1.31-.12a3.1 3.1 0 00.952-.363c.281-.178.526-.396.733-.654.207-.274.391-.586.554-.94l2.572-6.454c.236-.58.556-1.007.955-1.28.4-.274.647-.414 1.164-.414V28h6V17.775c.517 0 .832.14 1.231.414.414.273.73.692.953 1.256l2.595 6.501c.326.71.748 1.232 1.266 1.57.517.323 1.262.484 2.238.484H30l-3.382-9.908c-.34-.71-.731-1.29-1.175-1.74-.428-.468-.99-.822-1.684-1.064a3.88 3.88 0 001.286-.92c.355-.386.7-.895 1.04-1.523L30 4h-3.78c-.518 0-.992.144-1.421.434-.414.29-.745.687-.996 1.186l-3.106 6.718c-.222.5-.503.872-.843 1.113-.34.226-.292.337-.854.337V4h-6v9.788c-.562 0-.5-.111-.81-.337-.31-.241-.583-.614-.82-1.113L8.288 5.594c-.251-.5-.59-.886-1.02-1.16-.413-.29-.88-.44-1.397-.434z" opacity=".7" stroke="#000" stroke-width="2" stroke-linejoin="round"/><path d="M2 4l4.003 8.845c.34.628.688 1.137 1.043 1.523a3.88 3.88 0 001.286.92c-.695.242-1.264.596-1.708 1.064-.429.45-.814 1.03-1.154 1.74L2 28h2.76c.503 0 .94-.04 1.31-.12a3.1 3.1 0 00.952-.363c.281-.178.526-.396.733-.654.207-.274.391-.586.554-.94l2.572-6.454c.236-.58.556-1.007.955-1.28.4-.274.647-.414 1.164-.414V28h6V17.775c.517 0 .832.14 1.231.414.414.273.73.692.953 1.256l2.595 6.501c.326.71.748 1.232 1.266 1.57.517.323 1.262.484 2.238.484H30l-3.382-9.908c-.34-.71-.731-1.29-1.175-1.74-.428-.468-.99-.822-1.684-1.064a3.88 3.88 0 001.286-.92c.355-.386.7-.895 1.04-1.523L30 4h-3.78c-.518 0-.992.144-1.421.434-.414.29-.745.687-.996 1.186l-3.106 6.718c-.222.5-.503.872-.843 1.113-.34.226-.292.337-.854.337V4h-6v9.788c-.562 0-.5-.111-.81-.337-.31-.241-.583-.614-.82-1.113L8.288 5.594c-.251-.5-.59-.886-1.02-1.16-.413-.29-.88-.44-1.397-.434z" fill="#fff"/></svg>