<?xml version="1.0" encoding="UTF-8" standalone="no"?>
<svg
   xmlns:dc="http://purl.org/dc/elements/1.1/"
   xmlns:cc="http://creativecommons.org/ns#"
   xmlns:rdf="http://www.w3.org/1999/02/22-rdf-syntax-ns#"
   xmlns:svg="http://www.w3.org/2000/svg"
   xmlns="http://www.w3.org/2000/svg"
   xmlns:xlink="http://www.w3.org/1999/xlink"
   xmlns:sodipodi="http://sodipodi.sourceforge.net/DTD/sodipodi-0.dtd"
   xmlns:inkscape="http://www.inkscape.org/namespaces/inkscape"
   viewBox="0 0 24 24"
   version="1.1"
   id="svg6"
   sodipodi:docname="lc_numberformatincdecimals.svg"
   inkscape:export-filename="/home/jupiter007/Libreoffice yaru theme fullcolor/build/cmd/lc_numberformatincdecimals.png"
   inkscape:export-xdpi="95"
   inkscape:export-ydpi="95"
   inkscape:version="1.0.1 (3bc2e813f5, 2020-09-07)">
  <metadata
     id="metadata12">
    <rdf:RDF>
      <cc:Work
         rdf:about="">
        <dc:format>image/svg+xml</dc:format>
        <dc:type
           rdf:resource="http://purl.org/dc/dcmitype/StillImage" />
        <dc:title></dc:title>
      </cc:Work>
    </rdf:RDF>
  </metadata>
  <defs
     id="defs10">
    <linearGradient
       inkscape:collect="always"
       id="linearGradient843">
      <stop
         style="stop-color:#151515;stop-opacity:1"
         offset="0"
         id="stop839" />
      <stop
         style="stop-color:#4d4d4d;stop-opacity:1"
         offset="1"
         id="stop841" />
    </linearGradient>
    <linearGradient
       inkscape:collect="always"
       xlink:href="#linearGradient843"
       id="linearGradient845"
       x1="10"
       y1="7"
       x2="10"
       y2="19"
       gradientUnits="userSpaceOnUse"
       gradientTransform="translate(0,-1.0011896)" />
  </defs>
  <sodipodi:namedview
     pagecolor="#ffffff"
     bordercolor="#666666"
     borderopacity="1"
     objecttolerance="10"
     gridtolerance="10"
     guidetolerance="10"
     inkscape:pageopacity="0"
     inkscape:pageshadow="2"
     inkscape:window-width="1920"
     inkscape:window-height="1016"
     id="namedview8"
     showgrid="true"
     inkscape:zoom="27.812867"
     inkscape:cx="3.5246198"
     inkscape:cy="12.402915"
     inkscape:window-x="0"
     inkscape:window-y="27"
     inkscape:window-maximized="1"
     inkscape:current-layer="svg6"
     inkscape:document-rotation="0">
    <inkscape:grid
       type="xygrid"
       id="grid838" />
  </sodipodi:namedview>
  <path
     inkscape:connector-curvature="0"
     id="path862"
     d="m 18,5.99881 c -1.656852,0 -3,1.1192901 -3,2.5000001 V 13.49881 c 0,1.38071 1.343148,2.5 3,2.5 1.656852,0 3,-1.11929 3,-2.5 V 8.4988101 C 21,7.1181001 19.656852,5.99881 18,5.99881 Z m 0,2.0000001 c 0.552287,0 1,0.447713 1,1 v 3.6660159 0.333984 c 0,0.552287 -0.447713,1 -1,1 -0.552287,0 -1,-0.447713 -1,-1 V 8.9988101 c 0,-0.552287 0.447713,-1 1,-1 z"
     style="opacity:1;fill:#000000;stroke:#ffffff;stroke-width:2;stroke-miterlimit:4;stroke-dasharray:none;stroke-opacity:1"
     sodipodi:nodetypes="ssssssssscsssss" />
  <path
     inkscape:connector-curvature="0"
     style="opacity:1;fill:#000000;stroke:#ffffff;stroke-width:2;stroke-miterlimit:4;stroke-dasharray:none;stroke-opacity:1"
     d="m 9.9999998,5.99881 c -1.656852,0 -3.0000001,1.1192901 -3.0000001,2.5000001 V 13.49881 c 0,1.38071 1.3431481,2.5 3.0000001,2.5 C 11.656852,15.99881 13,14.87952 13,13.49881 V 8.4988101 C 13,7.1181001 11.656852,5.99881 9.9999998,5.99881 Z m 0,2.0000001 c 0.5522872,0 1.0000002,0.447713 1.0000002,1 v 3.6660159 0.333984 c 0,0.552287 -0.447713,1 -1.0000002,1 -0.552287,0 -1,-0.447713 -1,-1 V 8.9988101 c 0,-0.552287 0.447713,-1 1,-1 z"
     id="path864"
     sodipodi:nodetypes="ssssssssscsssss" />
  <path
     id="path842"
     style="opacity:1;fill:#000000;fill-opacity:1;fill-rule:evenodd;stroke:#ffffff;stroke-width:2;stroke-linecap:butt;stroke-linejoin:round;stroke-miterlimit:4;stroke-dasharray:none;stroke-opacity:1"
     d="m 3,13.99881 v 2 h 1 c 0,1 0,1 -1,2 1,0 2,0 2,-2 v -2 z" />
  <path
     id="path847"
     style="fill:url(#linearGradient845);fill-opacity:1;stroke-width:1.09545"
     d="m 10,5.9988104 c -1.656852,0 -3,1.11929 -3,2.5 V 13.49881 c 0,1.38071 1.343148,2.5 3,2.5 1.656852,0 3,-1.11929 3,-2.5 V 8.4988104 c 0,-1.38071 -1.343148,-2.5 -3,-2.5 z m 8,0 c -1.656852,0 -3,1.11929 -3,2.5 V 13.49881 c 0,1.38071 1.343148,2.5 3,2.5 1.656852,0 3,-1.11929 3,-2.5 V 8.4988104 c 0,-1.38071 -1.343148,-2.5 -3,-2.5 z m -8,2 c 0.552287,0 1,0.447713 1,1 v 3.6660156 0.333984 c 0,0.552287 -0.447713,1 -1,1 -0.552287,0 -1,-0.447713 -1,-1 V 8.9988104 c 0,-0.552287 0.447713,-1 1,-1 z m 8,0 c 0.552287,0 1,0.447713 1,1 v 3.6660156 0.333984 c 0,0.552287 -0.447713,1 -1,1 -0.552287,0 -1,-0.447713 -1,-1 V 8.9988104 c 0,-0.552287 0.447713,-1 1,-1 z M 3,13.99881 v 2 h 1 c 0,1 0,1 -1,2 1,0 2,0 2,-2 v -2 z" />
  <circle
     style="opacity:1;vector-effect:none;fill:#46a926;fill-opacity:1;stroke:none;stroke-width:3.5;stroke-linecap:butt;stroke-linejoin:round;stroke-miterlimit:4;stroke-dasharray:none;stroke-dashoffset:0;stroke-opacity:1"
     id="path2644"
     cy="16.499998"
     cx="20.499998"
     r="3.5" />
  <path
     inkscape:connector-curvature="0"
     id="path1063"
     overflow="visible"
     font-weight="400"
     style="color:#000000;font-weight:400;line-height:normal;font-family:sans-serif;text-indent:0;text-align:start;text-decoration:none;text-decoration-line:none;text-decoration-style:solid;text-decoration-color:#000000;text-transform:none;white-space:normal;overflow:visible;isolation:auto;mix-blend-mode:normal;fill:#ffffff;fill-opacity:1;marker:none"
     d="m 20,14 v 2 h -2.000001 v 1 H 20 v 2 h 1 v -2 h 2 v -1 h -2 v -2 z" />
</svg>
