<svg xmlns="http://www.w3.org/2000/svg" viewBox="0 0 24 24"><path d="M18.5 4a2.5 2.5 0 100 5 2.5 2.5 0 001.5-.504V9h1V4h-1v.502A2.5 2.5 0 0018.5 4zm0 1a1.5 1.5 0 110 3 1.5 1.5 0 010-3zM16 12v7h1v-.502A2.5 2.5 0 1018.5 14a2.5 2.5 0 00-1.5.504V12zm2.5 3a1.5 1.5 0 110 3 1.5 1.5 0 010-3z" opacity=".7" stroke="#000" stroke-width="2" stroke-linejoin="round"/><path d="M18.5 4a2.5 2.5 0 100 5 2.5 2.5 0 001.5-.504V9h1V4h-1v.502A2.5 2.5 0 0018.5 4zm0 1a1.5 1.5 0 110 3 1.5 1.5 0 010-3zM16 12v7h1v-.502A2.5 2.5 0 1018.5 14a2.5 2.5 0 00-1.5.504V12zm2.5 3a1.5 1.5 0 110 3 1.5 1.5 0 010-3z" fill="#fff"/><path fill="#924d8b" d="M2 6h11v2H2zM2 16h11v2H2z"/><circle cx="18.5" cy="6.5" r=".5" opacity=".7"/><circle r=".5" cy="16.5" cx="18.5" opacity=".7"/></svg>