<svg xmlns="http://www.w3.org/2000/svg" viewBox="0 0 24 24"><path d="M20 8c.554 0 1 .446 1 1v4h1c.554 0 1 .446 1 1v4c0 .554-.446 1-1 1h-5c-.554 0-1-.446-1-1v-4c0-.186.064-.35.152-.5A.975.975 0 0116 13V9c0-.554.446-1 1-1z" opacity=".6"/><path d="M20 9v1h-1v2h1v1h-3v-1h1v-2h-1V9zM22 14v1h-1v2h1v1h-5v-1h1v-2h-1v-1zm-2 1h-1v2h1z" fill="#fff"/><path d="M5 20c-2 0-3 0-3-2V6c0-2 1-2 3-2h5l1 1 2 2 1 1v10c0 2-1 2-3 2z" opacity=".6" stroke="#000" stroke-width="2" stroke-linejoin="round"/><path d="M5 20c-2 0-3 0-3-2V6c0-2 1-2 3-2h5l1 1 2 2 1 1v10c0 2-1 2-3 2z" fill="#fff"/><path d="M10 8V4l4 4z" fill="#6d6d6d"/><path fill="#924d8b" d="M12 10H4v2h8zM12 15H4v2h8z"/></svg>