<svg xmlns="http://www.w3.org/2000/svg" viewBox="0 0 24 24"><path d="M20.977 4l-1.414 1.414.707.707.707-.707V8h1V4zM20.374 9.977a1.97 1.97 0 00-1.397.523l1 .5c.515-.37 2.467 0-1 2v1h3v-1h-1.5c2.625-1.5 1.362-3-.103-3.023z" fill="#e95420"/><path fill="#fff" fill-rule="evenodd" d="M17 8H7V7h10z"/><path fill="#232629" fill-rule="evenodd" d="M17 7H7V6h10z"/><path fill="#fff" fill-rule="evenodd" d="M17 6H3V5h14z"/><path fill="#232629" fill-rule="evenodd" d="M17 5H3V4h14z"/><path fill="#fff" fill-rule="evenodd" d="M17 14H7v-1h10z"/><path fill="#232629" fill-rule="evenodd" d="M17 13H7v-1h10z"/><path fill="#fff" fill-rule="evenodd" d="M17 12H3v-1h14z"/><path fill="#232629" fill-rule="evenodd" d="M17 11H3v-1h14z"/><path fill="#fff" fill-rule="evenodd" d="M17 20H7v-1h10z"/><path fill="#232629" fill-rule="evenodd" d="M17 19H7v-1h10z"/><path fill="#fff" fill-rule="evenodd" d="M17 18H3v-1h14z"/><path fill="#232629" fill-rule="evenodd" d="M17 17H3v-1h14z"/></svg>