<svg xmlns="http://www.w3.org/2000/svg" viewBox="0 0 24 24"><rect width="5" height="4" x="-20" y="10" ry="1" transform="scale(-1 1)" opacity=".6"/><rect width="3" height="4" x="-18" y="4" ry="1" transform="scale(-1 1)" opacity=".6" fill="#030001"/><path fill="#924d8b" d="M13 5H2v2h11z"/><rect y="16" x="-22" height="4" width="7" ry="1" transform="scale(-1 1)" opacity=".6"/><path fill="#fff" d="M17 17h-1v2h1zM17 5h-1v2h1zM17 11h-1v2h1zM19 11h-1v2h1zM19 17h-1v2h1zM21 17h-1v2h1z"/><path fill="#924d8b" d="M13 11H2v2h11zM13 17H2v2h11z"/></svg>