<svg xmlns="http://www.w3.org/2000/svg" viewBox="0 0 24 24"><rect width="7" height="6" x="-21" y="9" ry="1" transform="scale(-1 1)" opacity=".6"/><rect width="5" height="6" x="-19" y="3" ry="1" transform="scale(-1 1)" opacity=".6" fill="#030001"/><path fill="#924d8b" d="M13 5H2v2h11z"/><rect y="15" x="-23" height="6" width="9" ry="1" transform="scale(-1 1)" opacity=".6"/><path d="M22 16v1h-1v2h1v1h-7v-1h1v-2h-1v-1zm-2 1h-1v2h1zm-2 0h-1v2h1zM18 4v1h-1v2h1v1h-3V7h1V5h-1V4zM20 10v1h-1v2h1v1h-5v-1h1v-2h-1v-1zm-2 1h-1v2h1z" fill="#fff"/><path fill="#924d8b" d="M13 11H2v2h11zM13 17H2v2h11z"/></svg>