<svg xmlns="http://www.w3.org/2000/svg" viewBox="0 0 16 16"><path fill="#924d8b" d="M9 4H1v2h8z"/><rect y="3" x="-13" height="4" width="3" ry="1" transform="scale(-1 1)" opacity=".7"/><path fill="#fff" d="M12 4h-1v2h1z"/><rect width="5" height="4" x="-15" y="9" ry="1" transform="scale(-1 1)" opacity=".7"/><path fill="#fff" d="M12 10h-1v2h1z"/><path fill="#924d8b" d="M9 10H1v2h8z"/><path fill="#fff" d="M14 10h-1v2h1z"/><circle cx="-4.5" cy="12.5" r="1.5" transform="scale(-1 1)" fill="#fff"/><path d="M6.424 8.612c.138.05.204.192.154.33l-.25.686c.277.188.505.415.712.667l.68-.315a.248.248 0 01.341.124l.525 1.125a.248.248 0 01-.124.34l-.679.32c.06.32.087.641.055.973l.686.25c.138.05.204.192.154.33l-.424 1.166a.252.252 0 01-.33.154l-.686-.25a3.372 3.372 0 01-.667.712l.317.68a.248.248 0 01-.124.34l-1.125.525a.248.248 0 01-.341-.124l-.319-.679c-.32.06-.642.087-.974.055l-.25.687a.252.252 0 01-.33.154l-1.166-.424a.252.252 0 01-.154-.33l.25-.686a3.372 3.372 0 01-.711-.667l-.68.317a.248.248 0 01-.34-.124l-.526-1.125a.248.248 0 01.124-.341l.679-.319a3.428 3.428 0 01-.055-.974l-.687-.25a.252.252 0 01-.154-.33l.424-1.166a.252.252 0 01.33-.154l.686.25c.188-.277.415-.504.668-.711l-.318-.68a.248.248 0 01.124-.34l1.125-.526a.248.248 0 01.341.124l.32.679c.32-.06.64-.087.973-.055l.25-.688a.252.252 0 01.33-.154zm-1.683 2.813a1.17 1.17 0 10-.8 2.201 1.17 1.17 0 00.8-2.201z" display="block" fill="#b3b3b3" stroke="#6d6d6d" stroke-width=".617" stroke-linejoin="round"/></svg>