<svg xmlns="http://www.w3.org/2000/svg" viewBox="0 0 16 16"><path fill="#924d8b" d="M9 1H1v2h8z"/><rect x="-13" height="4" width="3" ry="1" rx="1" transform="scale(-1 1)" opacity=".7"/><path fill="#fff" d="M12 1h-1v2h1z"/><rect width="5" height="4" x="-15" y="6" ry="1" rx="1" transform="scale(-1 1)" opacity=".7"/><path fill="#fff" d="M12 7h-1v2h1z"/><path d="M9 7v1.305a1.69 1.69 0 00-.969-.326A1.65 1.65 0 007.693 7zM1.297 7A1.545 1.545 0 001 7.709V7z" fill="#924d8b"/><path fill="#fff" d="M14 7h-1v2h1z"/><g transform="matrix(-1 0 0 1 16 0)"><circle cx="11.5" cy="11.5" r="1.5" fill="#fff" fill-rule="evenodd"/><path d="M9.311 7.792a.244.244 0 00-.135.325l.273.657c-.26.195-.472.424-.662.678l-.674-.279a.248.248 0 00-.329.136l-.462 1.115a.248.248 0 00.137.329l.673.279a3.312 3.312 0 00-.011.948l-.657.272a.244.244 0 00-.135.325l.463 1.117c.054.13.194.189.325.135l.657-.272c.195.26.424.471.678.662l-.279.673a.248.248 0 00.136.329l1.115.462a.248.248 0 00.329-.136l.279-.674c.314.045.626.057.948.012l.272.657c.054.13.195.188.325.134l1.117-.462a.244.244 0 00.135-.326l-.272-.657c.26-.195.471-.424.662-.678l.673.28a.248.248 0 00.329-.137l.462-1.115a.248.248 0 00-.136-.329l-.674-.279c.045-.314.057-.625.012-.947l.657-.273a.244.244 0 00.134-.325l-.462-1.117a.244.244 0 00-.326-.135l-.657.273a3.312 3.312 0 00-.678-.662l.28-.674a.248.248 0 00-.137-.329l-1.115-.462a.248.248 0 00-.329.137l-.279.673a3.312 3.312 0 00-.947-.011l-.273-.657a.244.244 0 00-.325-.135zm1.756 2.66a1.138 1.138 0 11.87 2.103 1.138 1.138 0 01-.87-2.104z" display="block" fill="#d3d3d3" stroke="#4d4d4d" stroke-linejoin="round" stroke-width=".6"/></g></svg>