<svg xmlns="http://www.w3.org/2000/svg" viewBox="0 0 16 16"><rect width="3" height="3" x="-15.058" y="2.022" ry="1.5" rx="1.5" transform="scale(-1 1)" fill="#e95420" fill-rule="evenodd"/><rect width="3" height="3" x="-15" y="9" ry="1.5" rx="1.5" transform="scale(-1 1)" fill="#e95420" fill-rule="evenodd"/><path fill="#232629" fill-rule="evenodd" d="M10 7H3V6h7z"/><path fill="#fff" fill-rule="evenodd" d="M10 8H3V7h7zM10 6H5V5h5z"/><path fill="#232629" fill-rule="evenodd" d="M10 5H5V4h5z"/><path fill="#fff" fill-rule="evenodd" d="M10 4H1V3h9z"/><path fill="#232629" fill-rule="evenodd" d="M10 3H1V2h9zM10 14H3v-1h7z"/><path fill="#fff" fill-rule="evenodd" d="M10 15H3v-1h7zM10 13H5v-1h5z"/><path fill="#232629" fill-rule="evenodd" d="M10 12H5v-1h5z"/><path fill="#fff" fill-rule="evenodd" d="M10 11H1v-1h9z"/><path fill="#232629" fill-rule="evenodd" d="M10 10H1V9h9z"/><circle cy="12.5" cx="-3.5" r="3.5" transform="scale(-1 1)" fill="#c7162b"/><path overflow="visible" font-weight="400" style="line-height:normal;text-indent:0;text-align:start;text-decoration-line:none;text-decoration-style:solid;text-decoration-color:#000;text-transform:none;white-space:normal;isolation:auto;mix-blend-mode:normal;marker:none" d="M2.086 10.379L3.5 11.793l1.414-1.414.707.707L4.207 12.5l1.414 1.414-.707.707L3.5 13.207l-1.414 1.414-.707-.707L2.793 12.5l-1.414-1.414z" color="#000" font-family="sans-serif" fill="#fff"/></svg>