<svg xmlns="http://www.w3.org/2000/svg" viewBox="0 0 16 16"><path fill="#6d6d6d" d="M10 4H1v2h9z"/><rect y="3" x="-15" height="4" width="4" ry="1" transform="scale(-1 1)" opacity=".6"/><path fill="#fff" d="M14 4h-2v2h2z"/><rect width="4" height="4" x="-15" y="9" ry="1" transform="scale(-1 1)" opacity=".6"/><path fill="#fff" d="M14 10h-2v2h2z"/><path fill="#6d6d6d" d="M10 10H1v2h9z"/><circle cy="12.5" cx="-3.5" r="3.5" transform="scale(-1 1)" fill="#c7162b"/><path overflow="visible" font-weight="400" style="line-height:normal;text-indent:0;text-align:start;text-decoration-line:none;text-decoration-style:solid;text-decoration-color:#000;text-transform:none;white-space:normal;isolation:auto;mix-blend-mode:normal;marker:none" d="M2.086 10.379L3.5 11.793l1.414-1.414.707.707L4.207 12.5l1.414 1.414-.707.707L3.5 13.207l-1.414 1.414-.707-.707L2.793 12.5l-1.414-1.414z" color="#000" font-family="sans-serif" fill="#fff"/></svg>