<svg xmlns="http://www.w3.org/2000/svg" viewBox="0 0 32 32"><path d="M6.994 3c-1.258.014-2.179-.031-2.932.384a1.88 1.88 0 00-.837.998C3.06 4.821 3 5.342 3 6V25c0 .658.06 1.179.225 1.617.164.439.461.789.837.996.753.415 1.674.372 2.932.387h18.012c1.258-.015 2.179.03 2.932-.385a1.88 1.88 0 00.837-.998c.165-.438.225-.96.225-1.617V5.999c0-.657-.06-1.178-.225-1.617a1.875 1.875 0 00-.837-.996c-.753-.415-1.674-.372-2.932-.387H6.998z" style="line-height:125%;-inkscape-font-specification:Ubuntu;text-align:center" font-weight="400" font-size="15" font-family="Ubuntu" letter-spacing="0" word-spacing="0" text-anchor="middle" opacity=".6"/><path d="M11.983 4.027c-1.556.01-5.11-.012-6.66.038-.46.043-1.016.207-1.155.71-.219.636-.108 1.334-.146 1.982-.008 2.297-.023 16.597.022 18.886.039.462.202 1.013.699 1.164.632.225 1.284.122 1.936.154 1.424.007 12.85.011 14.276.011 1.704 0 3.408-.005 5.107-.018.512-.012 1.184.02 1.585-.405.421-.54.287-1.268.323-1.904.011-2.444.027-16.911-.022-19.357-.05-.402-.17-.863-.575-1.044-.669-.295-1.427-.168-2.126-.206-1.755-.012-11.51-.012-13.264-.011z" fill="#fff"/><path d="M9 10v1h17v-1zM6 13v1h8v-1zM17 17v1h9v-1z" fill="#232629"/><path d="M26 7v1h-7V7zM6 10v1h2v-1zM15 13v1h11v-1zM6 17v1h10v-1z" fill="#c7162b"/><path d="M18 7v1H6V7zM9 23v1h17v-1z" fill="#232629"/><path d="M26 20v1h-7v-1zM6 23v1h2v-1z" fill="#c7162b"/><path d="M18 20v1H6v-1z" fill="#232629"/><circle cx="-23" cy="23" r="2" transform="scale(-1 1)" fill="#fff"/><path d="M24 14.5c.554 0 1 .446 1 1v1.887a5.966 5.966 0 01.557.228l1.332-1.332a.998.998 0 011.414 0l1.414 1.414a.998.998 0 010 1.414l-1.334 1.334a5.966 5.966 0 01.23.555H30.5c.554 0 1 .446 1 1v2c0 .554-.446 1-1 1h-1.887a5.966 5.966 0 01-.228.557l1.332 1.332a.998.998 0 010 1.414l-1.414 1.414a.998.998 0 01-1.414 0l-1.334-1.334a5.966 5.966 0 01-.555.23V30.5c0 .554-.446 1-1 1h-2c-.554 0-1-.446-1-1v-1.887a5.966 5.966 0 01-.557-.228l-1.332 1.332a.998.998 0 01-1.414 0l-1.414-1.414a.998.998 0 010-1.414l1.334-1.334a5.966 5.966 0 01-.23-.555H15.5c-.554 0-1-.446-1-1v-2c0-.554.446-1 1-1h1.887a5.966 5.966 0 01.228-.557l-1.332-1.332a.998.998 0 010-1.414l1.414-1.414a.998.998 0 011.414 0l1.334 1.334a5.966 5.966 0 01.555-.23V15.5c0-.554.446-1 1-1zm-1 6.504A1.995 1.995 0 0021.004 23 1.995 1.995 0 0023 24.996 1.995 1.995 0 0024.996 23 1.995 1.995 0 0023 21.004z" fill="#b3b3b3" stroke="#6d6d6d" stroke-linecap="square" stroke-linejoin="round"/></svg>