<svg xmlns="http://www.w3.org/2000/svg" viewBox="0 0 32 32"><path d="M11.656 7C10.74 7 10 7.892 10 9v3H9c-.338.053-.655.131-.937.287a1.874 1.874 0 00-.838.998c-.165.438-.225.96-.225 1.617V18.098c0 .658.06 1.179.225 1.617.164.439.46.79.838.998.282.156.6.234.937.287h1v2c0 1.108.739 2 1.656 2h8.687c.918 0 1.656-.892 1.657-2v-2h1c.338-.053.654-.131.937-.287.39-.222.687-.576.838-.998.165-.438.225-.96.225-1.617V14.902c0-.657-.06-1.179-.225-1.617a1.882 1.882 0 00-.838-.998c-.283-.156-.6-.234-.937-.287h-1V9c0-1.108-.739-2-1.656-2zM10 13.04V16h12v-2.96c.666.031 1.204.084 1.453.222.184.1.29.212.387.472.097.26.16.674.16 1.266v3c0 .592-.063 1.006-.16 1.266s-.203.372-.387.472c-.249.138-.787.19-1.453.223V17H10v2.96c-.667-.031-1.206-.084-1.455-.222-.183-.1-.287-.212-.385-.472C8.063 19.006 8 18.592 8 18v-3c0-.592.063-1.006.16-1.266.098-.26.202-.371.385-.472.249-.138.788-.19 1.455-.223z" style="line-height:normal;font-variant-ligatures:normal;font-variant-position:normal;font-variant-caps:normal;font-variant-numeric:normal;font-variant-alternates:normal;font-feature-settings:normal;text-indent:0;text-align:start;text-decoration-line:none;text-decoration-style:solid;text-decoration-color:#000;text-transform:none;text-orientation:mixed;white-space:normal;shape-padding:0;isolation:auto;mix-blend-mode:normal;marker:none" color="#000" font-weight="400" font-family="sans-serif" overflow="visible" opacity=".6"/><path d="M12.205 12.93c-1.023.017-2.052-.032-3.072.078-.39.048-.842.18-1 .584-.271.536-.174 1.16-.205 1.738.006 1.166-.026 2.335.023 3.5.05.423.182.934.621 1.108.447.207.955.159 1.428.144V18h12v2.082c.118.047.292-.016.418.008.46-.006 1-.002 1.326-.385.398-.517.292-1.208.316-1.816-.006-1.234.025-2.47-.023-3.703-.05-.426-.234-.916-.682-1.057-.73-.255-1.519-.15-2.277-.184-2.291-.01-6.582-.015-8.873-.015z" fill="#b3b3b3"/><path fill="#666" d="M10 17h12v4H10z"/><path d="M11 18h10v5c-.032.981-1 1-1 1h-8s-1 0-1-1z" fill="#fff"/><path d="M12 20v1h8v-1zM12 22v1h8v-1z" style="line-height:normal;font-variant-ligatures:normal;font-variant-position:normal;font-variant-caps:normal;font-variant-numeric:normal;font-variant-alternates:normal;font-feature-settings:normal;text-indent:0;text-align:start;text-decoration-line:none;text-decoration-style:solid;text-decoration-color:#000;text-transform:none;text-orientation:mixed;white-space:normal;shape-padding:0;isolation:auto;mix-blend-mode:normal;marker:none" color="#000" font-weight="400" font-family="sans-serif" overflow="visible" fill="#a7a7f1"/><path d="M11 12h10V9c-.032-.981-1-1-1-1h-8s-1 0-1 1z" fill="#fff"/><path fill="#666" d="M9 12h14v1H9z"/><g fill="#1a7fd4"><path d="M5 9V5h4V4H4v5zM5 23v4h4v1H4v-5zM4 11h1v4H4zM4 17h1v4H4zM11 4v1h4V4zM17 4v1h4V4zM11 27v1h4v-1zM17 27v1h4v-1z"/><g><path d="M27 9V5h-4V4h5v5zM27 23v4h-4v1h5v-5zM28 11h-1v4h1zM28 17h-1v4h1z"/></g></g><circle cy="26.5" cx="26.5" r="4.5" fill="#46a926"/><path overflow="visible" font-weight="400" style="line-height:normal;text-indent:0;text-align:start;text-decoration-line:none;text-decoration-style:solid;text-decoration-color:#000;text-transform:none;white-space:normal;isolation:auto;mix-blend-mode:normal;marker:none" d="M26 24v2h-2v1h2v2h1v-2h2v-1h-2v-2z" color="#000" font-family="sans-serif" fill="#fff"/></svg>