<svg xmlns="http://www.w3.org/2000/svg" viewBox="0 0 32 32"><path d="M22 4c2 0 4 1 4 3v18c0 2-2 3-4 3H10c-2 0-4-1-4-3V7c0-2 2-3 4-3z" opacity=".6" stroke="#000" stroke-width="2"/><path d="M22 4c2 0 4 1 4 3v18c0 2-2 3-4 3H10c-2 0-4-1-4-3V7c0-2 2-3 4-3z" fill="#80a3fa"/><path d="M23 4.096V10h3V7c0-1.662-1.385-2.624-3-2.904z" fill="#f22c42" fill-rule="evenodd"/><path fill="#76c22b" fill-rule="evenodd" d="M23 10h3v6h-3z"/><path fill="#fdc92b" fill-rule="evenodd" d="M23 16h3v6h-3z"/><path d="M23 22v5.904c1.615-.28 3-1.242 3-2.904v-3h-3z" fill="#f1f0e9" fill-rule="evenodd"/><path d="M9.5 21.5c0-3 1-4 5-4s5 1 5 4z" fill="none" stroke="#fff" stroke-width=".993" stroke-linejoin="round" stroke-dashoffset="1"/><path d="M14.5 9a3.5 3.5 0 00-3.5 3.5 3.5 3.5 0 003.5 3.5 3.5 3.5 0 003.5-3.5A3.5 3.5 0 0014.5 9zm0 1a2.5 2.5 0 012.5 2.5 2.5 2.5 0 01-2.5 2.5 2.5 2.5 0 01-2.5-2.5 2.5 2.5 0 012.5-2.5z" fill="#fff" fill-rule="evenodd"/><path d="M23 4.096v23.808c.348-.06.685-.15 1-.275V4.37a5.075 5.075 0 00-1-.275z" opacity=".3" fill-rule="evenodd"/></svg>