<svg xmlns="http://www.w3.org/2000/svg" viewBox="0 0 32 32"><path d="M16 10c6.627 0 12 6 12 7s-5.373 7-12 7-12-6-12-7 5.373-7 12-7z" opacity=".6" stroke="#000" stroke-width="2" stroke-linecap="round" stroke-linejoin="round"/><path d="M16 10c6.627 0 12 6 12 7s-5.373 7-12 7-12-6-12-7 5.373-7 12-7z" fill="#fff"/><path d="M16 11a6 6 0 00-6 6 6 6 0 006 6 6 6 0 006-6 6 6 0 00-6-6zm0 1a5 5 0 015 5 5 5 0 01-5 5 5 5 0 01-5-5 5 5 0 015-5zm0 2a3 3 0 102.865 2.117A1.5 1.5 0 0116 15.5a1.5 1.5 0 01.885-1.365A3 3 0 0016 14z" fill="#232629"/></svg>