<svg xmlns="http://www.w3.org/2000/svg" viewBox="0 0 32 32"><path fill="#232629" fill-rule="evenodd" d="M4 5h24v1H4z"/><path fill="#fff" fill-rule="evenodd" d="M4 6h24v1H4z"/><path fill="#232629" fill-rule="evenodd" d="M4 9h18v1H4z"/><path fill="#fff" fill-rule="evenodd" d="M4 10h18v1H4z"/><path fill="#232629" fill-rule="evenodd" d="M4 13h12v1H4z"/><path fill="#fff" fill-rule="evenodd" d="M4 14h12v1H4z"/><path fill="#232629" fill-rule="evenodd" d="M4 17h24v1H4z"/><path fill="#fff" fill-rule="evenodd" d="M4 18h24v1H4z"/><path fill="#232629" fill-rule="evenodd" d="M4 21h14v1H4z"/><path fill="#fff" fill-rule="evenodd" d="M4 22h14v1H4z"/><path fill="#232629" fill-rule="evenodd" d="M4 25h20v1H4z"/><path fill="#fff" fill-rule="evenodd" d="M4 26h20v1H4z"/></svg>