<svg xmlns="http://www.w3.org/2000/svg" viewBox="0 0 32 32"><path fill="#232629" fill-rule="evenodd" d="M28 5H4v1h24z"/><path fill="#fff" fill-rule="evenodd" d="M28 6H4v1h24z"/><path fill="#232629" fill-rule="evenodd" d="M28 9H10v1h18z"/><path fill="#fff" fill-rule="evenodd" d="M28 10H10v1h18z"/><path fill="#232629" fill-rule="evenodd" d="M28 13H16v1h12z"/><path fill="#fff" fill-rule="evenodd" d="M28 14H16v1h12z"/><path fill="#232629" fill-rule="evenodd" d="M28 17H4v1h24z"/><path fill="#fff" fill-rule="evenodd" d="M28 18H4v1h24z"/><path fill="#232629" fill-rule="evenodd" d="M28 21H14v1h14z"/><path fill="#fff" fill-rule="evenodd" d="M28 22H14v1h14z"/><path fill="#232629" fill-rule="evenodd" d="M28 25H8v1h20z"/><path fill="#fff" fill-rule="evenodd" d="M28 26H8v1h20z"/></svg>