<svg xmlns="http://www.w3.org/2000/svg" viewBox="0 0 32 32"><path d="M10 28c-2 0-4-1-4-3V7c0-2 2-3 4-3h9l7 7v14c0 2-2 3-4 3z" opacity=".7" stroke="#000" stroke-width="2"/><path d="M10 28c-2 0-4-1-4-3V7c0-2 2-3 4-3h9l7 7v14c0 2-2 3-4 3z" fill="#fff"/><path d="M19 11V4l7 7z" fill="#6d6d6d"/><path opacity=".7" stroke="#000" stroke-width="2" stroke-linejoin="round" d="M3 16h26v6H3z"/><path fill="#aee3f8" d="M3 16h26v6H3z"/><path opacity=".7" d="M11 16h1v2h-1zM14 16h1v2h-1zM17 16h1v2h-1zM20 16h1v2h-1zM8 16h1v2H8zM5 16h1v2H5zM23 16h1v2h-1zM26 16h1v2h-1z"/></svg>