<svg xmlns="http://www.w3.org/2000/svg" viewBox="0 0 32 32"><path d="M10 28c-2 0-4-1-4-3V7c0-2 2-3 4-3h9l7 7v14c0 2-2 3-4 3z" opacity=".7" stroke="#000" stroke-width="2"/><path d="M10 28c-2 0-4-1-4-3V7c0-2 2-3 4-3h9l7 7v14c0 2-2 3-4 3z" fill="#fff"/><path d="M19 11V4l7 7z" fill="#6d6d6d"/><path opacity=".7" stroke="#000" stroke-width="2" stroke-linejoin="round" d="M3 18h26v6H3z"/><path fill="#fec589" d="M3 18h26v6H3z"/><path fill="#333" d="M11 18h1v2h-1z"/><path fill="#f22c42" d="M14 18h1v3h-1z"/><path fill="#333" d="M17 18h1v2h-1z"/><path fill="#f22c42" d="M20 18h1v3h-1zM8 18h1v3H8z"/><path fill="#333" d="M5 18h1v2H5zM23 18h1v2h-1z"/><path fill="#f22c42" d="M26 18h1v3h-1z"/></svg>