<svg xmlns="http://www.w3.org/2000/svg" viewBox="0 0 32 32"><path d="M23.777 3.979L3.98 23.777l4.244 4.244L28.02 8.223z" opacity=".6"/><path d="M6.25 4l-.797 1.453L4 6.25l1.453.797L6.25 8.5l.797-1.453L8.5 6.25l-1.453-.797zM13.75 4l-.797 1.453-1.453.797 1.453.797.797 1.453.797-1.453L16 6.25l-1.453-.797z" fill="gray"/><path d="M23.777 5.393l2.83 2.83-5.658 5.656-2.828-2.828z" fill="#fff"/><path d="M9.25 10l-.797 1.453L7 12.25l1.453.797.797 1.453.797-1.453 1.453-.797-1.453-.797z" fill="gray"/><path fill="#fa9381" d="M5.393 23.778l12.02-12.02 2.83 2.827L8.221 26.606z"/></svg>