<svg xmlns="http://www.w3.org/2000/svg" viewBox="0 0 32 32"><path fill="#2daaaa" d="M0 24h8v8H0z"/><path fill="#46a926" d="M8 24h8v8H8z"/><path fill="#fdc92b" d="M16 24h8v8h-8z"/><path fill="#f34f17" d="M24 24h8v8h-8z"/><path fill="#31c6b7" d="M0 16h8v8H0z"/><path fill="#76c22b" d="M8 16h8v8H8z"/><path fill="#ffda64" d="M16 16h8v8h-8z"/><path fill="#fb7c38" d="M24 16h8v8h-8z"/><path fill="#5bdbc1" d="M0 8h8v8H0z"/><path fill="#a6d74f" d="M8 8h8v8H8z"/><path fill="#fee581" d="M16 8h8v8h-8z"/><path fill="#fda463" d="M24 8h8v8h-8z"/><path fill="#81e9c0" d="M0 0h8v8H0z"/><path fill="#cbe667" d="M8 0h8v8H8z"/><path fill="#fff4c9" d="M16 0h8v8h-8z"/><path fill="#fec589" d="M24 0h8v8h-8z"/><path d="M22.082 11c.68 2.34 2.347 4.353 3.082 5.965.257.479.418 1.017.418 1.597 0 1.905-1.56 3.438-3.5 3.438s-3.5-1.532-3.5-3.438c0-.58.161-1.117.418-1.597.735-1.612 2.402-3.625 3.082-5.965z"/></svg>