<svg xmlns="http://www.w3.org/2000/svg" width="32" height="32"><path d="M20 5c-1.93 0-3.77.463-5.104 1.746C13.563 8.03 13 9.916 13 12a2 2 0 002 2 2 2 0 002-2c0-1.416.315-2.03.67-2.371C18.025 9.287 18.686 9 20 9c.896 0 1.887.53 2.227 1.31.34.781.409 2.273-1.77 4.919l-7 8.5a2 2 0 00-.455 1.207l-.002.002V27h14v-4h-7.764l4.307-5.229c2.736-3.321 3.43-6.579 2.352-9.056C24.817 6.237 22.348 5 20 5z" opacity=".6" fill-rule="evenodd" stroke="#000" stroke-width="2" stroke-linejoin="round"/><path d="M2 15h8v2H2z" fill="#c7162b"/><path d="M20 5c-1.93 0-3.77.463-5.104 1.746C13.563 8.03 13 9.916 13 12a2 2 0 002 2 2 2 0 002-2c0-1.416.315-2.03.67-2.371C18.025 9.287 18.686 9 20 9c.896 0 1.887.53 2.227 1.31.34.781.409 2.273-1.77 4.919l-7 8.5a2 2 0 00-.455 1.207l-.002.002V27h14v-4h-7.764l4.307-5.229c2.736-3.321 3.43-6.579 2.352-9.056C24.817 6.237 22.348 5 20 5z" fill="#fff" fill-rule="evenodd"/></svg>