<svg xmlns="http://www.w3.org/2000/svg" xmlns:xlink="http://www.w3.org/1999/xlink" viewBox="0 0 32 32"><defs><linearGradient y2="316.932" x2="702.214" y1="316.932" x1="609.786" gradientUnits="userSpaceOnUse" id="b" xlink:href="#a"/><linearGradient id="a"><stop offset="0" stop-color="#5884f4"/><stop offset=".308" stop-color="#5884f4"/><stop offset=".308" stop-color="#2f5fdd"/><stop offset=".692" stop-color="#2f5fdd"/><stop offset=".692" stop-color="#234db8"/><stop offset="1" stop-color="#234db8"/></linearGradient></defs><circle r="12" cy="16" cx="16" opacity=".7" stroke="#000" stroke-width="2" stroke-linejoin="round"/><circle cx="16" cy="16" r="12" fill="#fff"/><path d="M13 11v10l9-5z" fill="#1a7fd4"/><g stroke-width="9.714"><path d="M23.912 28.264L18 32l.28-6.987 1.12-1.877 5.631 3.252z" fill="#fee1c2"/><path style="marker:none" d="M18.09 29.777L18 32l1.88-1.189s.174-.143 0-.244c-.174-.1-.488.043-.488.043s.085-.357-.264-.559c-.35-.202-.617.05-.617.05s-.036-.345-.212-.447c-.176-.101-.21.123-.21.123z" color="#000" overflow="visible" fill="#5d5d5d"/><path d="M609.786 306.25c0-7.376 28.428-3.688 28.428 7.377 0-18.44 35.534-18.44 35.534 0 0-11.065 28.47-14.753 28.47-7.377V67.93h-92.432z" fill="url(#b)" transform="matrix(.06093 .03518 -.03815 .06608 -6.69 -17.541)"/></g></svg>