<svg xmlns="http://www.w3.org/2000/svg" viewBox="0 0 32 32"><path d="M11.117 22.012l-.015-2.016 3-.008c2-.005 2 0 2-2v-3h-3l4-5 4 5h-3v4c0 2-1 3-3 3z" opacity=".6" fill="#e97cc8" stroke="#000" stroke-width="2" stroke-linejoin="round"/><path d="M8.825 4c-1.777 0-2.723.706-2.723 2.51V8.95L6.1 9h.002v3.596C6.102 13.71 6.068 15 5.086 15h-.984v2h.984c.982 0 1.016 1.29 1.016 2.404V23H6.1l.002.049v2.441c0 1.804.946 2.51 2.723 2.51h.277v-2c-1.185 0-1-.478-1-2.21v-5.384c0-.83-.205-2.067-1.204-2.58.999-.513 1.204-1.75 1.204-2.582V8.211c0-1.733-.185-2.211 1-2.211V4z" opacity=".6" stroke="#000" stroke-width="2" stroke-linejoin="round"/><path d="M8.825 4c-1.777 0-2.723.706-2.723 2.51V8.95L6.1 9h.002v3.596C6.102 13.71 6.068 15 5.086 15h-.984v2h.984c.982 0 1.016 1.29 1.016 2.404V23H6.1l.002.049v2.441c0 1.804.946 2.51 2.723 2.51h.277v-2c-1.185 0-1-.478-1-2.21v-5.384c0-.83-.205-2.067-1.204-2.58.999-.513 1.204-1.75 1.204-2.582V8.211c0-1.733-.185-2.211 1-2.211V4z" fill="#fff"/><path d="M23.175 4c1.777 0 2.723.706 2.723 2.51V8.95L25.9 9h-.002v3.596c0 1.114.034 2.404 1.016 2.404h.984v2h-.984c-.982 0-1.016 1.29-1.016 2.404V23h.002l-.002.049v2.441c0 1.804-.946 2.51-2.723 2.51h-.277v-2c1.185 0 1-.478 1-2.21v-5.384c0-.83.205-2.067 1.204-2.58-.999-.513-1.204-1.75-1.204-2.582V8.211c0-1.733.185-2.211-1-2.211V4z" opacity=".6" stroke="#000" stroke-width="2" stroke-linejoin="round"/><path d="M23.175 4c1.777 0 2.723.706 2.723 2.51V8.95L25.9 9h-.002v3.596c0 1.114.034 2.404 1.016 2.404h.984v2h-.984c-.982 0-1.016 1.29-1.016 2.404V23h.002l-.002.049v2.441c0 1.804-.946 2.51-2.723 2.51h-.277v-2c1.185 0 1-.478 1-2.21v-5.384c0-.83.205-2.067 1.204-2.58-.999-.513-1.204-1.75-1.204-2.582V8.211c0-1.733.185-2.211-1-2.211V4z" fill="#fff"/><path d="M11.117 22.012l-.015-2.016 3-.008c2-.005 2 0 2-2v-3h-3l4-5 4 5h-3v4c0 2-1 3-3 3z" fill="#aee3f8"/></svg>