<svg xmlns="http://www.w3.org/2000/svg" viewBox="0 0 32 32"><path d="M27 6A21 21 0 006 27h21z" fill="#b3b3b3"/><path d="M26.5 4.5c-12.15 0-22 9.85-22 22h1c0-11.046 9.954-21 21-21z" fill="#1463a5" stroke="#1463a5"/><path d="M3 3v4h4V6h20V4H7V3zm1 1h2v2H4z" opacity=".8" fill="gray"/><path opacity=".7" d="M26 3h4v4h-4z"/><path fill="#aee3f8" d="M27 4h2v2h-2z"/><path opacity=".7" d="M3 26h4v4H3z"/><path fill="#aee3f8" d="M4 27h2v2H4z"/><rect width="2" height="2" x="4" y="4" ry="0" fill="#fff"/></svg>