<svg xmlns="http://www.w3.org/2000/svg" viewBox="0 0 32 32"><path d="M7 4v24h11c4.418 0 8-3.358 8-7.5-.003-3.042-1.966-5.781-4.969-6.934C22.283 12.526 22.998 11.05 23 9.5 23 6.462 20.314 4 17 4h-4zm4 4h5c.353 0 .686.058 1 .15v-.004c1.197.353 1.998 1.296 2 2.354-.001 1.059-.802 2.003-2 2.355v-.005c-.314.092-.647.15-1 .15h-5zm0 9h5.5c2.485 0 4.5 1.567 4.5 3.5-.003 1.78-1.724 3.302-4 3.5h-6z" opacity=".7" stroke="#000" stroke-width="2" stroke-linejoin="round"/><path d="M7 4v24h11c4.418 0 8-3.358 8-7.5-.003-3.042-1.966-5.781-4.969-6.934C22.283 12.526 22.998 11.05 23 9.5 23 6.462 20.314 4 17 4h-4zm4 4h5c.353 0 .686.058 1 .15v-.004c1.197.353 1.998 1.296 2 2.354-.001 1.059-.802 2.003-2 2.355v-.005c-.314.092-.647.15-1 .15h-5zm0 9h5.5c2.485 0 4.5 1.567 4.5 3.5-.003 1.78-1.724 3.302-4 3.5h-6z" fill="#fff"/></svg>