<svg xmlns="http://www.w3.org/2000/svg" viewBox="0 0 32 32"><rect y="4" x="7" height="5" width="3" ry="1" rx="1" opacity=".7"/><path fill="#fff" d="M8 5h1v3H8z"/><rect width="5" height="5" x="5" y="13" ry="1" rx="1" opacity=".7"/><path fill="#fff" d="M8 14h1v3H8z"/><rect y="22" x="3" height="5" width="7" ry="1" rx="1" opacity=".7"/><path fill="#fff" d="M8 23h1v3H8zM6 14h1v3H6zM6 23h1v3H6zM4 23h1v3H4z"/><path fill="#924d8b" d="M29 16H13v2h16zM29 13H13v2h16zM29 7H13v2h16zM29 4H13v2h16zM20.041 25c-.096.586.197 1.142.684 1.506-.185.137-.328.31-.448.494H13v-2zM22.408 22c-.01.14-.017.28.004.422-.71-.102-1.42.172-1.71.873L20.41 24H13v-2z"/><g transform="matrix(-1.23872 0 0 1.23872 50.658 2.342)" stroke-width=".807"><circle cx="19.5" cy="19.5" r="1.5" fill="#fff" fill-rule="evenodd"/><g transform="translate(8 8)"><circle cx="11.5" cy="11.5" r="1.5" fill="#fff" fill-rule="evenodd"/><path d="M9.311 7.792a.244.244 0 00-.135.325l.273.657c-.26.195-.472.424-.662.678l-.674-.279a.248.248 0 00-.329.136l-.462 1.115a.248.248 0 00.137.329l.673.279a3.312 3.312 0 00-.011.948l-.657.272a.244.244 0 00-.135.325l.463 1.117c.054.13.194.189.325.135l.657-.272c.195.26.424.471.678.662l-.279.673a.248.248 0 00.136.329l1.115.462a.248.248 0 00.329-.136l.279-.674c.314.045.626.057.948.012l.272.657c.054.13.195.188.325.134l1.117-.462a.244.244 0 00.135-.326l-.272-.657c.26-.195.471-.424.662-.678l.673.28a.248.248 0 00.329-.137l.462-1.115a.248.248 0 00-.136-.329l-.674-.279c.045-.314.057-.625.012-.947l.657-.273a.244.244 0 00.134-.325l-.462-1.117a.244.244 0 00-.326-.135l-.657.273a3.312 3.312 0 00-.678-.662l.28-.674a.248.248 0 00-.137-.329l-1.115-.462a.248.248 0 00-.329.137l-.279.673a3.312 3.312 0 00-.947-.011l-.273-.657a.244.244 0 00-.325-.135zm1.756 2.66a1.138 1.138 0 11.87 2.103 1.138 1.138 0 01-.87-2.104z" display="block" fill="#d3d3d3" stroke="#4d4d4d" stroke-linejoin="round" stroke-width=".484"/></g></g></svg>