<svg xmlns="http://www.w3.org/2000/svg" viewBox="0 0 32 32"><path d="M16 4a12 7.5 0 00-12 7.5A12 7.5 0 0016 19a12 7.5 0 0012-7.5A12 7.5 0 0016 4zm-4.5 15A4.5 2.25 0 007 21.25a4.5 2.25 0 004.5 2.25 4.5 2.25 0 004.5-2.25A4.5 2.25 0 0011.5 19zm-3 4.5a3 1.5 0 00-3 1.5 3 1.5 0 003 1.5 3 1.5 0 003-1.5 3 1.5 0 00-3-1.5zm-3 3a1.5.75 0 00-1.5.75 1.5.75 0 001.5.75 1.5.75 0 001.5-.75 1.5.75 0 00-1.5-.75z" stroke="#000" opacity=".7" stroke-width="2" stroke-linejoin="round"/><path d="M16 4a12 7.5 0 00-12 7.5A12 7.5 0 0016 19a12 7.5 0 0012-7.5A12 7.5 0 0016 4zm-4.5 15A4.5 2.25 0 007 21.25a4.5 2.25 0 004.5 2.25 4.5 2.25 0 004.5-2.25A4.5 2.25 0 0011.5 19zm-3 4.5a3 1.5 0 00-3 1.5 3 1.5 0 003 1.5 3 1.5 0 003-1.5 3 1.5 0 00-3-1.5zm-3 3a1.5.75 0 00-1.5.75 1.5.75 0 001.5.75 1.5.75 0 001.5-.75 1.5.75 0 00-1.5-.75z" fill="#fff"/></svg>