<svg xmlns="http://www.w3.org/2000/svg" viewBox="0 0 32 32"><path d="M24 3l-4 5h8z" opacity=".6" stroke="#000" stroke-width="2" stroke-linejoin="round"/><path style="line-height:normal;font-variant-ligatures:normal;font-variant-position:normal;font-variant-caps:normal;font-variant-numeric:normal;font-variant-alternates:normal;font-feature-settings:normal;text-indent:0;text-align:start;text-decoration-line:none;text-decoration-style:solid;text-decoration-color:#000;text-transform:none;text-orientation:mixed;white-space:normal;shape-padding:0;isolation:auto;mix-blend-mode:normal;solid-color:#000;solid-opacity:1" d="M7.973 12l-.118.336-3.793 10.973-.138.462L2 29h2.453l2.238-5.986h5.641L14.604 29h9.974C27.59 29 30 26.424 30 23.334v-.002c-.002-2.002-1.046-3.318-2.658-4.332.446-.772.762-1.587.763-2.5 0-2.721-2.105-4.5-4.789-4.5H17v16.602l-1.777-4.83-.139-.463L11.174 12H8zM19 14h4.424C24.847 14 26 15.273 26 16.5S24.847 19 23.424 19H19zm-9.4.752l2.088 6.25-4.352.006zM19 21h5.756C26.546 21 28 22.28 28 23.857 28 25.435 26.547 27 24.756 27H19z" color="#000" font-weight="400" font-family="sans-serif" overflow="visible" opacity=".6" stroke="#000" stroke-width="2"/><path style="line-height:normal;font-variant-ligatures:normal;font-variant-position:normal;font-variant-caps:normal;font-variant-numeric:normal;font-variant-alternates:normal;font-feature-settings:normal;text-indent:0;text-align:start;text-decoration-line:none;text-decoration-style:solid;text-decoration-color:#000;text-transform:none;text-orientation:mixed;white-space:normal;shape-padding:0;isolation:auto;mix-blend-mode:normal;solid-color:#000;solid-opacity:1" d="M17 12v17H24.578C27.59 29 30 26.424 30 23.334v-.002c-.002-2.002-1.046-3.318-2.658-4.332.446-.772.762-1.587.763-2.5 0-2.721-2.105-4.5-4.789-4.5h-4.052zm2 2h4.424C24.847 14 26 15.273 26 16.5S24.847 19 23.424 19H19zm0 7h5.756C26.546 21 28 22.28 28 23.857 28 25.435 26.547 27 24.756 27H19z" color="#000" font-weight="400" font-family="sans-serif" overflow="visible" fill="#fff"/><path d="M24 3l-4 5h8z" fill="#aee3f8"/><path style="line-height:normal;font-variant-ligatures:normal;font-variant-position:normal;font-variant-caps:normal;font-variant-numeric:normal;font-variant-alternates:normal;font-feature-settings:normal;text-indent:0;text-align:start;text-decoration-line:none;text-decoration-style:solid;text-decoration-color:#000;text-transform:none;text-orientation:mixed;white-space:normal;shape-padding:0;isolation:auto;mix-blend-mode:normal;solid-color:#000;solid-opacity:1" d="M7.973 12l-.118.336-3.793 10.973-.138.462L2 29h2.453l2.238-5.986h5.641L14.604 29h2.542l-1.923-5.229-.139-.462L11.174 12H8zM9.6 14.752l2.088 6.25-4.352.006z" color="#000" font-weight="400" font-family="sans-serif" overflow="visible" fill="#fff"/></svg>