<svg xmlns="http://www.w3.org/2000/svg" viewBox="0 0 32 32"><path d="M20 4l4 5 4-5zM17 12v17h2v-1.27A5.5 5.5 0 0022.5 29a5.5 5.5 0 005.5-5.5 5.5 5.5 0 00-5.5-5.5 5.5 5.5 0 00-3.5 1.268V12h-1zm-7.5 6A5.5 5.5 0 004 23.5 5.5 5.5 0 009.5 29a5.5 5.5 0 003.5-1.268V29h2V18h-2v1.27A5.5 5.5 0 009.5 18zm0 1a4.5 4.5 0 00-.389.02A4.5 4.5 0 019.5 19zm13 0a4.5 4.5 0 00-.389.02A4.5 4.5 0 0122.5 19zm-12.611.02a4.5 4.5 0 01.22.027 4.5 4.5 0 00-.22-.027zm13 0a4.5 4.5 0 01.22.027 4.5 4.5 0 00-.22-.027zm-13.998.027a4.5 4.5 0 00-.213.033 4.5 4.5 0 01.213-.033zm13 0a4.5 4.5 0 00-.213.033 4.5 4.5 0 01.213-.033zm-11.569.033a4.5 4.5 0 01.237.053 4.5 4.5 0 00-.237-.053zm13 0a4.5 4.5 0 01.237.053 4.5 4.5 0 00-.237-.053zm-14.88.053a4.5 4.5 0 00-.206.05 4.5 4.5 0 01.205-.05zm13 0a4.5 4.5 0 00-.206.05 4.5 4.5 0 01.205-.05zm-10.678.05a4.5 4.5 0 01.226.077 4.5 4.5 0 00-.226-.076zm13 0a4.5 4.5 0 01.226.077 4.5 4.5 0 00-.226-.076zM8.01 19.26a4.5 4.5 0 00-.196.072 4.5 4.5 0 01.196-.072zm13 0a4.5 4.5 0 00-.196.072 4.5 4.5 0 01.196-.072zm-9.824.072a4.5 4.5 0 01.228.102 4.5 4.5 0 00-.228-.102zm13 0a4.5 4.5 0 01.228.102 4.5 4.5 0 00-.228-.102zm-16.6.102a4.5 4.5 0 00-.174.084 4.5 4.5 0 01.174-.084zm13 0a4.5 4.5 0 00-.174.084 4.5 4.5 0 01.174-.084zm-8.998.084a4.5 4.5 0 01.219.123 4.5 4.5 0 00-.22-.123zm13 0a4.5 4.5 0 01.219.123 4.5 4.5 0 00-.22-.123zm-17.395.123a4.5 4.5 0 00-.175.109 4.5 4.5 0 01.175-.11zm13 0a4.5 4.5 0 00-.175.109 4.5 4.5 0 01.175-.11zm-8.21.109a4.5 4.5 0 01.185.13 4.5 4.5 0 00-.186-.13zm13 0a4.5 4.5 0 01.185.13 4.5 4.5 0 00-.186-.13zm-18.151.13a4.5 4.5 0 00-.184.143 4.5 4.5 0 01.184-.142zm13 0a4.5 4.5 0 00-.184.143 4.5 4.5 0 01.184-.142zM9.5 20a3.5 3.5 0 013.5 3.5A3.5 3.5 0 019.5 27 3.5 3.5 0 016 23.5 3.5 3.5 0 019.5 20zm13 0a3.5 3.5 0 013.5 3.5 3.5 3.5 0 01-3.5 3.5 3.5 3.5 0 01-3.5-3.5 3.5 3.5 0 013.5-3.5zm-10.148.023a4.5 4.5 0 01.15.133 4.5 4.5 0 00-.15-.133zm13 0a4.5 4.5 0 01.15.133 4.5 4.5 0 00-.15-.133zm-18.854.133a4.5 4.5 0 00-.178.164 4.5 4.5 0 01.178-.164zm13 0a4.5 4.5 0 00-.178.164 4.5 4.5 0 01.178-.164zm-6.818.164a4.5 4.5 0 01.164.178 4.5 4.5 0 00-.164-.178zm13 0a4.5 4.5 0 01.164.178 4.5 4.5 0 00-.164-.178zm-19.524.178a4.5 4.5 0 00-.133.15 4.5 4.5 0 01.133-.15zm12.996.002a4.5 4.5 0 00-.127.145 4.5 4.5 0 01.127-.145zm6.825.148a4.5 4.5 0 01.142.184 4.5 4.5 0 00-.142-.184zm-12.998.002a4.5 4.5 0 01.021.024v.004a4.5 4.5 0 00-.021-.028zm-7.098.182a4.5 4.5 0 00-.131.186 4.5 4.5 0 01.13-.186zm20.369.186a4.5 4.5 0 01.11.175 4.5 4.5 0 00-.11-.175zm-20.61.175a4.5 4.5 0 00-.122.22 4.5 4.5 0 01.123-.22zm20.842.22a4.5 4.5 0 01.084.173 4.5 4.5 0 00-.084-.174zm-21.048.173a4.5 4.5 0 00-.102.228 4.5 4.5 0 01.102-.228zm21.234.228a4.5 4.5 0 01.072.196 4.5 4.5 0 00-.072-.196zM5.26 22.01a4.5 4.5 0 00-.076.226 4.5 4.5 0 01.076-.226zm21.556.226a4.5 4.5 0 01.051.205 4.5 4.5 0 00-.05-.205zm-21.683.205a4.5 4.5 0 00-.053.237 4.5 4.5 0 01.053-.237zm21.787.237a4.5 4.5 0 01.033.213 4.5 4.5 0 00-.033-.213zm-21.873.213a4.5 4.5 0 00-.027.22 4.5 4.5 0 01.027-.22zm21.933.22a4.5 4.5 0 01.02.389 4.5 4.5 0 00-.02-.389zM5 23.5a4.5 4.5 0 00.02.389A4.5 4.5 0 015 23.5zm21.98.389a4.5 4.5 0 01-.027.22 4.5 4.5 0 00.027-.22zm-21.933.22a4.5 4.5 0 00.033.213 4.5 4.5 0 01-.033-.213zm21.873.213a4.5 4.5 0 01-.053.237 4.5 4.5 0 00.053-.237zm-21.787.237a4.5 4.5 0 00.05.205 4.5 4.5 0 01-.05-.205zm21.683.205a4.5 4.5 0 01-.076.226 4.5 4.5 0 00.076-.226zM5.26 24.99a4.5 4.5 0 00.072.196 4.5 4.5 0 01-.072-.196zm21.408.196a4.5 4.5 0 01-.102.228 4.5 4.5 0 00.102-.228zm-21.234.228a4.5 4.5 0 00.084.174 4.5 4.5 0 01-.084-.174zm21.048.174a4.5 4.5 0 01-.123.219 4.5 4.5 0 00.123-.22zm-20.841.219a4.5 4.5 0 00.109.175 4.5 4.5 0 01-.11-.175zm20.609.175a4.5 4.5 0 01-.13.186 4.5 4.5 0 00.13-.186zm-20.37.186a4.5 4.5 0 00.143.184 4.5 4.5 0 01-.142-.184zm13.12.154a4.5 4.5 0 00.021.028 4.5 4.5 0 01-.021-.024zm6.977.03a4.5 4.5 0 01-.133.15 4.5 4.5 0 00.133-.15zm-13.002.003a4.5 4.5 0 01-.127.145 4.5 4.5 0 00.127-.145zm-6.819.147a4.5 4.5 0 00.164.178 4.5 4.5 0 01-.164-.178zm13 0a4.5 4.5 0 00.164.178 4.5 4.5 0 01-.164-.178zm-6.476.178a4.5 4.5 0 01-.178.164 4.5 4.5 0 00.178-.164zm13 0a4.5 4.5 0 01-.178.164 4.5 4.5 0 00.178-.164zm-19.182.164a4.5 4.5 0 00.15.133 4.5 4.5 0 01-.15-.133zm13 0a4.5 4.5 0 00.15.133 4.5 4.5 0 01-.15-.133zm-7.146.133a4.5 4.5 0 01-.184.142 4.5 4.5 0 00.184-.142zm13 0a4.5 4.5 0 01-.184.142 4.5 4.5 0 00.184-.142zm-18.52.142a4.5 4.5 0 00.186.131 4.5 4.5 0 01-.186-.13zm13 0a4.5 4.5 0 00.186.131 4.5 4.5 0 01-.186-.13zm-7.85.131a4.5 4.5 0 01-.175.11 4.5 4.5 0 00.175-.11zm13 0a4.5 4.5 0 01-.175.11 4.5 4.5 0 00.175-.11zm-17.789.11a4.5 4.5 0 00.22.122 4.5 4.5 0 01-.22-.123zm13 0a4.5 4.5 0 00.22.122 4.5 4.5 0 01-.22-.123zm-8.605.122a4.5 4.5 0 01-.174.084 4.5 4.5 0 00.174-.084zm13 0a4.5 4.5 0 01-.174.084 4.5 4.5 0 00.174-.084zm-17.002.084a4.5 4.5 0 00.228.102 4.5 4.5 0 01-.228-.102zm13 0a4.5 4.5 0 00.228.102 4.5 4.5 0 01-.228-.102zm-9.4.102a4.5 4.5 0 01-.196.072 4.5 4.5 0 00.196-.072zm13 0a4.5 4.5 0 01-.196.072 4.5 4.5 0 00.196-.072zM8.01 27.74a4.5 4.5 0 00.226.076 4.5 4.5 0 01-.226-.076zm13 0a4.5 4.5 0 00.226.076 4.5 4.5 0 01-.226-.076zm-10.246.076a4.5 4.5 0 01-.205.051 4.5 4.5 0 00.205-.05zm13 0a4.5 4.5 0 01-.205.051 4.5 4.5 0 00.205-.05zm-15.323.051a4.5 4.5 0 00.237.053 4.5 4.5 0 01-.237-.053zm13 0a4.5 4.5 0 00.237.053 4.5 4.5 0 01-.237-.053zm-11.119.053a4.5 4.5 0 01-.213.033 4.5 4.5 0 00.213-.033zm13 0a4.5 4.5 0 01-.213.033 4.5 4.5 0 00.213-.033zm-14.431.033a4.5 4.5 0 00.22.027 4.5 4.5 0 01-.22-.027zm13 0a4.5 4.5 0 00.22.027 4.5 4.5 0 01-.22-.027zm-12.002.027A4.5 4.5 0 019.5 28a4.5 4.5 0 00.389-.02zm13 0a4.5 4.5 0 01-.389.02 4.5 4.5 0 00.389-.02z" stroke="#000" opacity=".6" stroke-width="2" stroke-linejoin="round"/><path d="M17 12v17h2v-1.27A5.5 5.5 0 0022.5 29a5.5 5.5 0 005.5-5.5 5.5 5.5 0 00-5.5-5.5 5.5 5.5 0 00-3.5 1.268V12h-1zm-7.5 6A5.5 5.5 0 004 23.5 5.5 5.5 0 009.5 29a5.5 5.5 0 003.5-1.268V29h2V18h-2v1.27A5.5 5.5 0 009.5 18zm0 1a4.5 4.5 0 00-.389.02A4.5 4.5 0 019.5 19zm13 0a4.5 4.5 0 00-.389.02A4.5 4.5 0 0122.5 19zm-12.611.02a4.5 4.5 0 01.22.027 4.5 4.5 0 00-.22-.027zm13 0a4.5 4.5 0 01.22.027 4.5 4.5 0 00-.22-.027zm-13.998.027a4.5 4.5 0 00-.213.033 4.5 4.5 0 01.213-.033zm13 0a4.5 4.5 0 00-.213.033 4.5 4.5 0 01.213-.033zm-11.569.033a4.5 4.5 0 01.237.053 4.5 4.5 0 00-.237-.053zm13 0a4.5 4.5 0 01.237.053 4.5 4.5 0 00-.237-.053zm-14.88.053a4.5 4.5 0 00-.206.05 4.5 4.5 0 01.205-.05zm13 0a4.5 4.5 0 00-.206.05 4.5 4.5 0 01.205-.05zm-10.678.05a4.5 4.5 0 01.226.077 4.5 4.5 0 00-.226-.076zm13 0a4.5 4.5 0 01.226.077 4.5 4.5 0 00-.226-.076zM8.01 19.26a4.5 4.5 0 00-.196.072 4.5 4.5 0 01.196-.072zm13 0a4.5 4.5 0 00-.196.072 4.5 4.5 0 01.196-.072zm-9.824.072a4.5 4.5 0 01.228.102 4.5 4.5 0 00-.228-.102zm13 0a4.5 4.5 0 01.228.102 4.5 4.5 0 00-.228-.102zm-16.6.102a4.5 4.5 0 00-.174.084 4.5 4.5 0 01.174-.084zm13 0a4.5 4.5 0 00-.174.084 4.5 4.5 0 01.174-.084zm-8.998.084a4.5 4.5 0 01.219.123 4.5 4.5 0 00-.22-.123zm13 0a4.5 4.5 0 01.219.123 4.5 4.5 0 00-.22-.123zm-17.395.123a4.5 4.5 0 00-.175.109 4.5 4.5 0 01.175-.11zm13 0a4.5 4.5 0 00-.175.109 4.5 4.5 0 01.175-.11zm-8.21.109a4.5 4.5 0 01.185.13 4.5 4.5 0 00-.186-.13zm13 0a4.5 4.5 0 01.185.13 4.5 4.5 0 00-.186-.13zm-18.151.13a4.5 4.5 0 00-.184.143 4.5 4.5 0 01.184-.142zm13 0a4.5 4.5 0 00-.184.143 4.5 4.5 0 01.184-.142zM9.5 20a3.5 3.5 0 013.5 3.5A3.5 3.5 0 019.5 27 3.5 3.5 0 016 23.5 3.5 3.5 0 019.5 20zm13 0a3.5 3.5 0 013.5 3.5 3.5 3.5 0 01-3.5 3.5 3.5 3.5 0 01-3.5-3.5 3.5 3.5 0 013.5-3.5zm-10.148.023a4.5 4.5 0 01.15.133 4.5 4.5 0 00-.15-.133zm13 0a4.5 4.5 0 01.15.133 4.5 4.5 0 00-.15-.133zm-18.854.133a4.5 4.5 0 00-.178.164 4.5 4.5 0 01.178-.164zm13 0a4.5 4.5 0 00-.178.164 4.5 4.5 0 01.178-.164zm-6.818.164a4.5 4.5 0 01.164.178 4.5 4.5 0 00-.164-.178zm13 0a4.5 4.5 0 01.164.178 4.5 4.5 0 00-.164-.178zm-19.524.178a4.5 4.5 0 00-.133.15 4.5 4.5 0 01.133-.15zm12.996.002a4.5 4.5 0 00-.127.145 4.5 4.5 0 01.127-.145zm6.825.148a4.5 4.5 0 01.142.184 4.5 4.5 0 00-.142-.184zm-12.998.002a4.5 4.5 0 01.021.024v.004a4.5 4.5 0 00-.021-.028zm-7.098.182a4.5 4.5 0 00-.131.186 4.5 4.5 0 01.13-.186zm20.369.186a4.5 4.5 0 01.11.175 4.5 4.5 0 00-.11-.175zm-20.61.175a4.5 4.5 0 00-.122.22 4.5 4.5 0 01.123-.22zm20.842.22a4.5 4.5 0 01.084.173 4.5 4.5 0 00-.084-.174zm-21.048.173a4.5 4.5 0 00-.102.228 4.5 4.5 0 01.102-.228zm21.234.228a4.5 4.5 0 01.072.196 4.5 4.5 0 00-.072-.196zM5.26 22.01a4.5 4.5 0 00-.076.226 4.5 4.5 0 01.076-.226zm21.556.226a4.5 4.5 0 01.051.205 4.5 4.5 0 00-.05-.205zm-21.683.205a4.5 4.5 0 00-.053.237 4.5 4.5 0 01.053-.237zm21.787.237a4.5 4.5 0 01.033.213 4.5 4.5 0 00-.033-.213zm-21.873.213a4.5 4.5 0 00-.027.22 4.5 4.5 0 01.027-.22zm21.933.22a4.5 4.5 0 01.02.389 4.5 4.5 0 00-.02-.389zM5 23.5a4.5 4.5 0 00.02.389A4.5 4.5 0 015 23.5zm21.98.389a4.5 4.5 0 01-.027.22 4.5 4.5 0 00.027-.22zm-21.933.22a4.5 4.5 0 00.033.213 4.5 4.5 0 01-.033-.213zm21.873.213a4.5 4.5 0 01-.053.237 4.5 4.5 0 00.053-.237zm-21.787.237a4.5 4.5 0 00.05.205 4.5 4.5 0 01-.05-.205zm21.683.205a4.5 4.5 0 01-.076.226 4.5 4.5 0 00.076-.226zM5.26 24.99a4.5 4.5 0 00.072.196 4.5 4.5 0 01-.072-.196zm21.408.196a4.5 4.5 0 01-.102.228 4.5 4.5 0 00.102-.228zm-21.234.228a4.5 4.5 0 00.084.174 4.5 4.5 0 01-.084-.174zm21.048.174a4.5 4.5 0 01-.123.219 4.5 4.5 0 00.123-.22zm-20.841.219a4.5 4.5 0 00.109.175 4.5 4.5 0 01-.11-.175zm20.609.175a4.5 4.5 0 01-.13.186 4.5 4.5 0 00.13-.186zm-20.37.186a4.5 4.5 0 00.143.184 4.5 4.5 0 01-.142-.184zm13.12.154a4.5 4.5 0 00.021.028 4.5 4.5 0 01-.021-.024zm6.977.03a4.5 4.5 0 01-.133.15 4.5 4.5 0 00.133-.15zm-13.002.003a4.5 4.5 0 01-.127.145 4.5 4.5 0 00.127-.145zm-6.819.147a4.5 4.5 0 00.164.178 4.5 4.5 0 01-.164-.178zm13 0a4.5 4.5 0 00.164.178 4.5 4.5 0 01-.164-.178zm-6.476.178a4.5 4.5 0 01-.178.164 4.5 4.5 0 00.178-.164zm13 0a4.5 4.5 0 01-.178.164 4.5 4.5 0 00.178-.164zm-19.182.164a4.5 4.5 0 00.15.133 4.5 4.5 0 01-.15-.133zm13 0a4.5 4.5 0 00.15.133 4.5 4.5 0 01-.15-.133zm-7.146.133a4.5 4.5 0 01-.184.142 4.5 4.5 0 00.184-.142zm13 0a4.5 4.5 0 01-.184.142 4.5 4.5 0 00.184-.142zm-18.52.142a4.5 4.5 0 00.186.131 4.5 4.5 0 01-.186-.13zm13 0a4.5 4.5 0 00.186.131 4.5 4.5 0 01-.186-.13zm-7.85.131a4.5 4.5 0 01-.175.11 4.5 4.5 0 00.175-.11zm13 0a4.5 4.5 0 01-.175.11 4.5 4.5 0 00.175-.11zm-17.789.11a4.5 4.5 0 00.22.122 4.5 4.5 0 01-.22-.123zm13 0a4.5 4.5 0 00.22.122 4.5 4.5 0 01-.22-.123zm-8.605.122a4.5 4.5 0 01-.174.084 4.5 4.5 0 00.174-.084zm13 0a4.5 4.5 0 01-.174.084 4.5 4.5 0 00.174-.084zm-17.002.084a4.5 4.5 0 00.228.102 4.5 4.5 0 01-.228-.102zm13 0a4.5 4.5 0 00.228.102 4.5 4.5 0 01-.228-.102zm-9.4.102a4.5 4.5 0 01-.196.072 4.5 4.5 0 00.196-.072zm13 0a4.5 4.5 0 01-.196.072 4.5 4.5 0 00.196-.072zM8.01 27.74a4.5 4.5 0 00.226.076 4.5 4.5 0 01-.226-.076zm13 0a4.5 4.5 0 00.226.076 4.5 4.5 0 01-.226-.076zm-10.246.076a4.5 4.5 0 01-.205.051 4.5 4.5 0 00.205-.05zm13 0a4.5 4.5 0 01-.205.051 4.5 4.5 0 00.205-.05zm-15.323.051a4.5 4.5 0 00.237.053 4.5 4.5 0 01-.237-.053zm13 0a4.5 4.5 0 00.237.053 4.5 4.5 0 01-.237-.053zm-11.119.053a4.5 4.5 0 01-.213.033 4.5 4.5 0 00.213-.033zm13 0a4.5 4.5 0 01-.213.033 4.5 4.5 0 00.213-.033zm-14.431.033a4.5 4.5 0 00.22.027 4.5 4.5 0 01-.22-.027zm13 0a4.5 4.5 0 00.22.027 4.5 4.5 0 01-.22-.027zm-12.002.027A4.5 4.5 0 019.5 28a4.5 4.5 0 00.389-.02zm13 0a4.5 4.5 0 01-.389.02 4.5 4.5 0 00.389-.02z" fill="#fff"/><path d="M20 4l4 5 4-5z" fill="#aee3f8"/></svg>