<svg xmlns="http://www.w3.org/2000/svg" viewBox="0 0 32 32"><rect y="3" x="3" height="26" width="26" ry="1" fill="#7c436f"/><path d="M22.01 10.697l-7.778 7.78-4.241-4.245-1.416 1.415 5.657 5.656 9.193-9.192z" style="line-height:normal;font-variant-ligatures:normal;font-variant-position:normal;font-variant-caps:normal;font-variant-numeric:normal;font-variant-alternates:normal;font-feature-settings:normal;text-indent:0;text-align:start;text-decoration-line:none;text-decoration-style:solid;text-decoration-color:#000;text-transform:none;text-orientation:mixed;white-space:normal;shape-padding:0;isolation:auto;mix-blend-mode:normal;solid-color:#000;solid-opacity:1;marker:none" color="#000" font-weight="400" font-family="sans-serif" overflow="visible" fill="#fff"/><path d="M4 3c-.554 0-1 .446-1 1v24c0 .554.446 1 1 1h24c.554 0 1-.446 1-1V4c0-.554-.446-1-1-1H4zm1 1h22c.554 0 1 .446 1 1v22c0 .554-.446 1-1 1H5c-.554 0-1-.446-1-1V5c0-.554.446-1 1-1z" opacity=".6"/></svg>