<svg xmlns="http://www.w3.org/2000/svg" viewBox="0 0 32 32"><path d="M16 3A13 13 0 003 16a13 13 0 0013 13 13 13 0 0013-13A13 13 0 0016 3z" fill="#e95420"/><path style="line-height:normal;font-variant-ligatures:normal;font-variant-position:normal;font-variant-caps:normal;font-variant-numeric:normal;font-variant-alternates:normal;font-variant-east-asian:normal;font-feature-settings:normal;font-variation-settings:normal;text-indent:0;text-align:start;text-decoration-line:none;text-decoration-style:solid;text-decoration-color:#000;text-transform:none;text-orientation:mixed;white-space:normal;shape-padding:0;shape-margin:0;inline-size:0;isolation:auto;mix-blend-mode:normal;solid-color:#000;solid-opacity:1" d="M16 3C8.832 3 3 8.832 3 16s5.832 13 13 13 13-5.832 13-13S23.168 3 16 3zm0 1a12 12 0 0112 12 12 12 0 01-12 12A12 12 0 014 16 12 12 0 0116 4z" color="#000" font-weight="400" font-family="sans-serif" overflow="visible" opacity=".6"/><path d="M10.707 10L16 15.293 21.293 10s.726.716.707.707L16.707 16 22 21.293s-.7.706-.707.707L16 16.707 10.707 22c.001-.005-.707-.707-.707-.707L15.293 16 10 10.707c.02.001.707-.707.707-.707z" fill="#fff"/></svg>