<svg xmlns="http://www.w3.org/2000/svg" viewBox="0 0 32 32"><rect ry="1" y="8" x="4" height="16" width="24" opacity=".6" stroke="#000" stroke-width="2" stroke-linecap="round" stroke-linejoin="round" stroke-opacity=".984"/><path d="M15 1v4H3v1h26V5H17V1z" opacity=".6" stroke="#000" stroke-width="2" stroke-linecap="round" stroke-linejoin="round" stroke-opacity=".984"/><rect width="24" height="16" x="4" y="8" ry="1" fill="#d85eca"/><path style="marker:none" d="M12 15l-5.006 6.974h18L19 17l-3.006 2z" color="#000" overflow="visible" fill="#fff"/><path d="M24.02 11.48a2.014 1.498 0 01-1.91 1.571 2.014 1.498 0 01-2.113-1.42 2.014 1.498 0 011.909-1.571 2.014 1.498 0 012.114 1.419M15 1v4H3v1h26V5H17V1z" fill="#fff"/><path d="M15 31v-4H3v-1h26v1H17v4z" opacity=".6" stroke="#000" stroke-width="2" stroke-linecap="round" stroke-linejoin="round" stroke-opacity=".984"/><path d="M15 31v-4H3v-1h26v1H17v4z" fill="#fff"/></svg>