<svg xmlns="http://www.w3.org/2000/svg" viewBox="0 0 32 32"><path d="M6.994 4.973c-1.258.014-2.179-.03-2.931.385a1.88 1.88 0 00-.838.998C3.06 6.794 3 7.316 3 7.973v16.055c0 .657.06 1.178.225 1.617.164.438.461.788.838.996.752.415 1.673.372 2.931.387h18.012c1.258-.015 2.179.03 2.931-.385a1.88 1.88 0 00.838-.998c.165-.439.224-.96.225-1.617V7.973c0-.658-.06-1.179-.225-1.617a1.875 1.875 0 00-.837-.996c-.753-.416-1.674-.372-2.932-.387H6.998z" style="line-height:125%;-inkscape-font-specification:Ubuntu;text-align:center" font-weight="400" font-size="15" font-family="Ubuntu" letter-spacing="0" word-spacing="0" text-anchor="middle" opacity=".7"/><path d="M11.983 6c-1.556.01-5.11-.012-6.66.039-.46.042-1.016.206-1.155.71-.219.635-.108 1.334-.146 1.982-.008 2.297-.023 13.65.022 15.94.039.462.202 1.012.699 1.163.632.225 1.284.123 1.936.155 1.424.006 4.85.01 6.276.011 1.704 0 11.408-.005 13.107-.019.512-.012 1.184.02 1.585-.405.42-.54.287-1.268.323-1.903.011-2.445.027-13.966-.022-16.412-.05-.402-.17-.863-.575-1.044-.669-.294-1.427-.168-2.126-.206A4549.11 4549.11 0 0011.983 6z" fill="#d85eca"/><path d="M22 10a2 2 0 100 4 2 2 0 000-4zM13.002 13.5l-5 9.5h14l-4.5-8-2 2.5z" style="marker:none" color="#000" overflow="visible" fill="#fff"/><path d="M7 3v5H5l3 5 3-5H9V3z" opacity=".7" stroke="#000" stroke-width="2" stroke-linejoin="round"/><path d="M7 3v5H5l3 5 3-5H9V3z" fill="#fff"/></svg>