<svg xmlns="http://www.w3.org/2000/svg" height="32" width="32"><defs><linearGradient gradientTransform="translate(0 .183)" id="a" gradientUnits="userSpaceOnUse" x1="4" x2="28" y1="22" y2="22"><stop offset="0" stop-color="#fff"/><stop stop-color="#fff" offset=".292"/><stop offset="1" stop-color="#b6b6b6"/></linearGradient></defs><path d="M16 4.183L4.562 20.355C4.2 20.928 4 21.55 4 22.183c0 3.314 5.373 6 12 6s12-2.686 12-6c0-.725-.279-1.419-.75-2.062z" opacity=".6" stroke="#000"/><path d="M16 4.183L4.562 20.355C4.2 20.928 4 21.55 4 22.183c0 3.314 5.373 6 12 6s12-2.686 12-6c0-.725-.279-1.419-.75-2.062z" fill="url(#a)"/><circle cx="25.5" cy="25.5" r="4.5" fill="#762572"/><path d="M27.688 24.313l-.75.75c.04.137.062.286.062.437 0 .831-.669 1.5-1.5 1.5-.15 0-.3-.021-.438-.063l-.75.75c.355.193.755.313 1.188.313 1.385 0 2.5-1.115 2.5-2.5 0-.433-.12-.833-.313-1.188zM25.5 23a2.495 2.495 0 00-2.5 2.5c0 .433.12.833.313 1.188l.75-.75A1.539 1.539 0 0124 25.5c0-.831.669-1.5 1.5-1.5.15 0 .3.021.438.063l.75-.75A2.475 2.475 0 0025.5 23z" fill="#fff"/></svg>