<svg xmlns="http://www.w3.org/2000/svg" viewBox="0 0 32 32"><path d="M8 4L5 7h19.293l3-3zm20 .707l-3 3V27l3-3zM4 8v20h20V8z" opacity=".7" stroke="#000" stroke-width="2" stroke-linejoin="round"/><path d="M8 4L5 7h19.293l3-3zM28 4.707l-3 3V27l3-3z" fill="#b6b6b6"/><path d="M4 8v20h20V8z" fill="#fff"/><circle cx="25.5" cy="25.5" r="4.5" fill="#762572"/><path d="M27.688 24.313l-.75.75c.04.137.062.286.062.437 0 .831-.669 1.5-1.5 1.5-.15 0-.3-.021-.438-.063l-.75.75c.355.193.755.313 1.188.313 1.385 0 2.5-1.115 2.5-2.5 0-.433-.12-.833-.313-1.188zM25.5 23a2.495 2.495 0 00-2.5 2.5c0 .433.12.833.313 1.188l.75-.75A1.539 1.539 0 0124 25.5c0-.831.669-1.5 1.5-1.5.15 0 .3.021.438.063l.75-.75A2.475 2.475 0 0025.5 23z" fill="#fff"/></svg>