<svg xmlns="http://www.w3.org/2000/svg" viewBox="0 0 32 32"><g font-weight="500" font-size="33.109" letter-spacing="0" word-spacing="0" font-family="Ubuntu" text-anchor="middle" fill="#a08f65" stroke="#3d3d3d" stroke-width="1.391" stroke-linejoin="round"><path d="M6.156.487l-.004.002c-.054 0-.125.005-.213.014a1.78 1.78 0 00-.295.056.632.632 0 00-.233.108.373.373 0 00-.123.158.447.447 0 00-.036.2c.003.074.022.151.038.237.369 2.056.71 4.119 1.053 6.18l.838-3.128zM7.5 5.502l-.913 3.406.038.23 1.35 2.165.654 2.443c.088.329.216.616.384.861s.365.44.591.584c.227.144.479.236.757.275.272.041.557.021.855-.058.297-.08.553-.206.769-.377a1.9 1.9 0 00.51-.615c.123-.238.2-.505.228-.803a2.788 2.788 0 00-.098-.938 2.712 2.712 0 00-.383-.853 2.164 2.164 0 00-.599-.582 1.888 1.888 0 00-.754-.267 1.945 1.945 0 00-.847.056c-.214.064-.42.163-.666.14a.52.52 0 01-.236-.08.588.588 0 01-.167-.187 1.656 1.656 0 01-.107-.301zm0 2.485a.525.525 0 01.525.524.525.525 0 01-.525.525.525.525 0 01-.525-.525.525.525 0 01.525-.524zm2.998 3.84a.888.888 0 01.615.204c.239.192.414.495.525.909.112.419.113.774.004 1.065a.91.91 0 01-.65.567c-.319.085-.598.03-.839-.168-.246-.196-.425-.503-.537-.923-.11-.414-.108-.764.008-1.051.11-.291.324-.48.642-.565.08-.021.157-.034.232-.038z" style="line-height:125%;-inkscape-font-specification:'Ubuntu Medium';text-align:center" transform="matrix(1.40881 0 0 1.4667 4.933 4.286)"/><path d="M8.844.487v.002h-.001L8.52 1.688h.001L6.134 10.6a1.66 1.66 0 01-.107.301.588.588 0 01-.167.187.514.514 0 01-.236.08c-.245.023-.452-.077-.667-.14a1.945 1.945 0 00-.846-.056 1.887 1.887 0 00-.754.267 2.164 2.164 0 00-.6.582c-.166.24-.294.524-.382.853a2.784 2.784 0 00-.098.938c.029.298.105.565.229.803a1.9 1.9 0 00.51.615c.215.171.471.297.768.376.298.08.583.1.855.059.278-.04.53-.131.757-.276.226-.144.423-.338.59-.583.169-.245.297-.532.385-.861l.655-2.443 1.349-2.166c.479-2.618.825-5.262 1.33-7.875.016-.085.034-.163.037-.237a.515.515 0 00-.035-.2.375.375 0 00-.123-.158A.63.63 0 009.35.56a1.802 1.802 0 00-.296-.056A2.842 2.842 0 008.85.489zM7.5 7.987a.525.525 0 01.525.524.525.525 0 01-.525.525.525.525 0 01-.525-.525.525.525 0 01.525-.524zm-2.998 3.84c.075.004.152.017.232.038.318.085.532.274.642.565.116.287.119.637.008 1.051-.112.42-.291.727-.537.923-.24.197-.52.253-.839.168a.91.91 0 01-.65-.567c-.11-.29-.108-.646.004-1.065.111-.414.286-.717.525-.91a.888.888 0 01.615-.203z" style="line-height:125%;-inkscape-font-specification:'Ubuntu Medium';text-align:center" transform="matrix(1.40881 0 0 1.4667 4.933 4.286)"/></g><g word-spacing="0" letter-spacing="0" font-size="33.109" font-weight="500" font-family="Ubuntu" text-anchor="middle" fill="#e3dfd5"><path style="line-height:125%;-inkscape-font-specification:'Ubuntu Medium';text-align:center" d="M13.605 5l-.005.003c-.076 0-.176.007-.3.02a2.508 2.61 0 00-.416.083.89.927 0 00-.328.158.525.547 0 00-.173.232.63.656 0 00-.051.293c.004.109.03.222.053.348.52 3.015 1 6.041 1.484 9.064l1.18-4.588zm1.894 7.355l-1.286 4.996.053.337 1.902 3.176.921 3.583c.124.482.305.903.541 1.263.237.359.515.645.833.856.32.211.675.346 1.066.404.384.06.785.03 1.205-.085.418-.118.78-.303 1.083-.553a2.677 2.787 0 00.719-.902c.173-.35.282-.741.321-1.178a4.25 4.25 0 00-.138-1.376 3.82 3.978 0 00-.54-1.251 3.049 3.174 0 00-.843-.854 2.66 2.77 0 00-1.063-.391 2.74 2.853 0 00-1.193.082c-.301.094-.592.239-.938.205a.733.763 0 01-.333-.117.828.862 0 01-.235-.274 2.333 2.429 0 01-.15-.442zm0 3.645a.74.77 0 01.74.769.74.77 0 01-.74.77.74.77 0 01-.74-.77.74.77 0 01.74-.769zm4.223 5.632a1.251 1.302 0 01.867.3c.337.281.583.726.74 1.333.157.614.159 1.135.005 1.562a1.282 1.335 0 01-.916.831c-.449.125-.842.044-1.182-.246-.346-.288-.598-.738-.756-1.354-.155-.607-.152-1.12.011-1.541.155-.427.457-.704.905-.829.112-.03.22-.05.326-.056z"/><path style="line-height:125%;-inkscape-font-specification:'Ubuntu Medium';text-align:center" d="M17.392 5v.003h-.001l-.455 1.758h.001l-3.363 13.072a2.339 2.435 0 01-.15.441.828.862 0 01-.236.274.724.754 0 01-.332.118c-.345.033-.637-.113-.94-.206a2.74 2.853 0 00-1.192-.082 2.658 2.768 0 00-1.062.392 3.049 3.174 0 00-.845.853 4.075 4.075 0 00-.538 1.252 3.922 4.083 0 00-.138 1.375c.04.437.148.829.322 1.178a2.677 2.787 0 00.719.902c.303.25.663.436 1.082.552.42.117.821.146 1.204.086a2.59 2.59 0 001.067-.405c.318-.21.596-.495.83-.855.239-.36.42-.78.543-1.263l.923-3.583 1.9-3.177c.675-3.84 1.163-7.717 1.874-11.55.023-.124.048-.239.052-.347a.726.755 0 00-.049-.294.528.55 0 00-.173-.231.888.924 0 00-.33-.156 2.539 2.643 0 00-.417-.082 4.004 4.168 0 00-.287-.022zM15.5 16a.74.77 0 01.74.769.74.77 0 01-.74.77.74.77 0 01-.74-.77.74.77 0 01.74-.769zm-4.224 5.632c.106.006.214.025.327.056.448.125.75.402.905.829.163.42.167.934.01 1.541-.157.616-.41 1.066-.756 1.354-.338.289-.732.371-1.182.246a1.282 1.335 0 01-.915-.831c-.155-.426-.153-.948.005-1.562.157-.607.403-1.052.74-1.335a1.251 1.302 0 01.866-.298z"/></g></svg>