<svg xmlns="http://www.w3.org/2000/svg" viewBox="0 0 32 32"><path fill="#fff" fill-rule="evenodd" d="M5 5h5v23H5z"/><path fill="#a6d74f" fill-rule="evenodd" d="M28 5v5H5V5z"/><path d="M4 6v21c0 2 1 2 3 2h4V11h18V6c0-2-1-2-3-2H7C5 4 4 4 4 6zm3-1h3v5H5V6c0-1 1-1 2-1zm4 0h5v5h-5zm6 0h5v5h-5zm6 0h3c1 0 2 0 2 1v4h-5zM5 11h5v5H5zm0 6h5v5H5zm0 6h5v5H7c-1 0-2 0-2-1z" fill="#6d6d6d" fill-rule="evenodd"/><path d="M14.015 20l5 4v-8z" fill="#e95420"/><path d="M27.015 14L27 17.983c0 2-1 3-3 3L19.015 21 19 18.983h4c2 0 2 0 2-2L25.015 14z" fill="#e95420"/></svg>