<svg xmlns="http://www.w3.org/2000/svg" viewBox="0 0 32 32"><path d="M6.994 4c-1.258.014-2.179-.031-2.932.384a1.88 1.88 0 00-.837.998C3.06 5.822 3 6.342 3 7v18c0 .658.06 1.179.225 1.618.164.438.461.788.837.996.753.415 1.674.371 2.932.386h18.012c1.258-.014 2.179.031 2.932-.384a1.88 1.88 0 00.837-.998c.165-.44.225-.96.225-1.618V7c0-.658-.06-1.179-.225-1.618a1.875 1.875 0 00-.837-.996c-.753-.415-1.674-.371-2.932-.386H6.998z" style="line-height:125%;-inkscape-font-specification:Ubuntu;text-align:center" font-weight="400" font-size="15" font-family="Ubuntu" letter-spacing="0" word-spacing="0" text-anchor="middle" opacity=".6"/><path d="M11.983 5.027c-1.556.01-5.11-.012-6.66.039-.46.042-1.016.206-1.155.71-.219.635-.108 1.333-.146 1.981-.008 2.297-.023 15.597.022 17.886.039.462.202 1.013.699 1.164.632.225 1.284.123 1.936.154 1.424.007 4.85.011 6.276.012 1.704 0 11.408-.005 13.107-.019.512-.012 1.184.02 1.585-.405.421-.54.287-1.268.323-1.904.011-2.444.027-15.911-.022-18.357-.05-.402-.17-.863-.575-1.044-.669-.294-1.427-.168-2.126-.206-1.755-.012-11.51-.012-13.264-.011z" fill="#80a3fa"/><path d="M7.994 7v2h-2v1h2v12h-2v1h2v2h1v-2h14v2h1v-2h2v-1h-2V10h2V9h-2V7h-1v2h-14V7zm1 3h14v12h-3v-5h-3v5h-3V12h-3v10h-2z" fill="#fff"/><path fill="#fff" fill-rule="evenodd" d="M19 23h11v7H19z"/><path d="M18 24v5c0 2 1 2 3 2h7c2 0 3 0 3-2v-5c0-2-1-2-3-2h-7c-2 0-3 0-3 2zm3-1h3v3h-5v-2c0-1 1-1 2-1zm4 0h3c1 0 2 0 2 1v2h-5zm-6 4h5v3h-3c-1 0-2 0-2-1zm6 0h5v2c0 1-1 1-2 1h-3z" fill="#6d6d6d"/></svg>