<svg xmlns="http://www.w3.org/2000/svg" viewBox="0 0 32 32"><path d="M6.293 3.995L5 5.288v2.54c.055.039 8 10.667 8 10.667v5.008l6 4.502v-9.51l8-10.668V5.288l-1.293-1.293z" stroke="#000" opacity=".6" stroke-width="2" stroke-linejoin="round"/><path d="M6.293 3.995L5 5.288v2.54c.055.039 8 10.667 8 10.667v5.008l6 4.502v-9.51l8-10.668V5.288l-1.293-1.293z" fill="#fff"/><path d="M12.201 5.957L32 25.756 27.756 30 7.957 10.201z" opacity=".6"/><path d="M12.201 7.371l-2.83 2.83 5.658 5.656 2.828-2.828z" fill="#fff"/><path fill="#fa9381" d="M30.585 25.757l-12.02-12.02-2.829 2.828 12.02 12.02z"/></svg>