<svg xmlns="http://www.w3.org/2000/svg" viewBox="0 0 32 32"><path d="M20 5v4H7c-.556.013-1 .457-1 1 0 .542.445.985 1 .998V11h2v3h2v-3h3v3h2v-3h4v4h6V5zm2 2h2v6h-2z" stroke="#000" opacity=".7" stroke-width="2" stroke-linejoin="round"/><path d="M20 5v4H7c-.556.013-1 .457-1 1 0 .542.445.985 1 .998V11h2v3h2v-3h3v3h2v-3h4v4h6V5zm2 2h2v6h-2z" fill="#aee3f8"/><path d="M27 27H5V16l22 11" opacity=".7" stroke="#000" stroke-width="2" stroke-linecap="round" stroke-linejoin="round"/><path d="M27 27H5V16l22 11" fill="#fff"/></svg>