<svg xmlns="http://www.w3.org/2000/svg" viewBox="0 0 32 32"><path d="M16 4.5C9.649 4.5 4.5 5.787 4.5 7.375v17.25C4.5 26.213 9.649 27.5 16 27.5s11.5-1.287 11.5-2.875V7.375C27.5 5.787 22.351 4.5 16 4.5z" fill="#f2cbf8"/><path d="M16 4A12 3 0 004 7v18a12 3 0 0012 3 12 3 0 0012-3V7a12 3 0 00-12-3zm0 1a11 2 0 0111 2 11 2 0 01-11 2A11 2 0 015 7a11 2 0 0111-2zm11 3.191V13a11 2 0 01-11 2 11 2 0 01-11-2V8.195A12 3 0 0016 10a12 3 0 0011-1.809zm0 6V19a11 2 0 01-11 2 11 2 0 01-11-2v-4.805A12 3 0 0016 16a12 3 0 0011-1.809zm0 6V25a11 2 0 01-11 2 11 2 0 01-11-2v-4.805A12 3 0 0016 22a12 3 0 0011-1.809z" fill="#8e03a3"/><circle cx="23" cy="23" r="2" fill="#fff"/><path d="M22 14.5c-.554 0-1 .446-1 1v1.887a5.966 5.966 0 00-.557.228l-1.332-1.332a.998.998 0 00-1.414 0l-1.414 1.414a.998.998 0 000 1.414l1.334 1.334a5.966 5.966 0 00-.23.555H15.5c-.554 0-1 .446-1 1v2c0 .554.446 1 1 1h1.887a5.966 5.966 0 00.228.557l-1.332 1.332a.998.998 0 000 1.414l1.414 1.414a.998.998 0 001.414 0l1.334-1.334a5.966 5.966 0 00.555.23V30.5c0 .554.446 1 1 1h2c.554 0 1-.446 1-1v-1.887a5.966 5.966 0 00.557-.228l1.332 1.332a.998.998 0 001.414 0l1.414-1.414a.998.998 0 000-1.414l-1.334-1.334a5.966 5.966 0 00.23-.555H30.5c.554 0 1-.446 1-1v-2c0-.554-.446-1-1-1h-1.887a5.966 5.966 0 00-.228-.557l1.332-1.332a.998.998 0 000-1.414l-1.414-1.414a.998.998 0 00-1.414 0l-1.334 1.334a5.966 5.966 0 00-.555-.23V15.5c0-.554-.446-1-1-1zm1 6.504A1.995 1.995 0 0124.996 23 1.995 1.995 0 0123 24.996 1.995 1.995 0 0121.004 23 1.995 1.995 0 0123 21.004z" fill="#b3b3b3" stroke="#6d6d6d" stroke-linecap="square" stroke-linejoin="round"/></svg>