<svg xmlns="http://www.w3.org/2000/svg" viewBox="0 0 32 32"><path d="M17.101 17.614c-.025.013-1.453 1.453-1.453 1.453l3.9 3.9-3.932 3.933 1.453 1.453 3.932-3.932 3.932 3.932 1.453-1.453-3.931-3.932 3.9-3.9-1.453-1.454-3.9 3.9z" opacity=".6" stroke="#000" stroke-width="2" stroke-linejoin="round"/><path d="M17.101 17.614c-.025.013-1.453 1.453-1.453 1.453l3.9 3.9-3.932 3.933 1.453 1.453 3.932-3.932 3.932 3.932 1.453-1.453-3.931-3.932 3.9-3.9-1.453-1.454-3.9 3.9z" fill="#fff"/><path d="M12 4C9 4 8 5 8 8v6H4v2h4v12h2V16h4v-2h-4V8c0-1.499.504-2 2-2h4V4z" opacity=".6" stroke="#000" stroke-width="2" stroke-linecap="round" stroke-linejoin="round"/><path d="M12 4C9 4 8 5 8 8v6H4v2h4v12h2V16h4v-2h-4V8c0-1.499.532-2.29 2-2h4V4z" fill="#fff"/></svg>