<svg xmlns="http://www.w3.org/2000/svg" viewBox="0 0 32 32"><path fill="#fff" fill-rule="evenodd" d="M4 4h5v23H4z"/><path fill="#a6d74f" fill-rule="evenodd" d="M27 4v5H4V4z"/><path d="M3 5v21c0 2 1 2 3 2h4V10h18V5c0-2-1-2-3-2H6C4 3 3 3 3 5zm3-1h3v5H4V5c0-1 1-1 2-1zm4 0h5v5h-5zm6 0h5v5h-5zm6 0h3c1 0 2 0 2 1v4h-5zM4 10h5v5H4zm0 6h5v5H4zm0 6h5v5H6c-1 0-2 0-2-1z" fill="#6d6d6d" fill-rule="evenodd"/><path d="M12 13h2l4 17h-2z" fill="#6d6d6d"/><path d="M14 14c-.12-.4 1.549-.894 3.41-.83 1.863.063 2.52.677 4.63.762 1.958.077 3.863-1.34 3.96-.932l2 8c.162.54-1.594 1.342-3.686 1.337-2.092-.006-2.674-.73-4.652-.765-1.977-.033-3.511 1.182-3.662.428z" fill="#fa9381" fill-rule="evenodd"/></svg>