<svg xmlns="http://www.w3.org/2000/svg" viewBox="0 0 32 32"><path fill="#fff" fill-rule="evenodd" d="M5 5h22v22H5z"/><path d="M4 6v20c0 2 1 2 3 2h18c2 0 3 0 3-2V6c0-2-1-2-3-2H7C5 4 4 4 4 6zm1 0c0-1 1-1 2-1h5v2H5zm8-1h6v2h-6zm7 0h5c1 0 2 0 2 1v1h-7zM5 8h7v3H5zm8 0h6v15h-6V11zm7 0h7v3h-7zM5 12h7v3H5zm15 0h7v3h-7zM5 16h7v3H5zm15 0h7v3h-7zM5 20h7v3H5zm15 0h7v3h-7zM5 24h7v3H7c-1 0-2 0-2-1zm8 0h6v3h-6zm7 0h7v2c0 1-1 1-2 1h-5z" fill="#6d6d6d"/><path d="M12 11v9h8v-9h-6.232z" fill="#c7162b"/><circle cy="26.5" cx="26.5" r="4.5" fill="#c7162b"/><path overflow="visible" font-weight="400" style="line-height:normal;text-indent:0;text-align:start;text-decoration-line:none;text-decoration-style:solid;text-decoration-color:#000;text-transform:none;white-space:normal;isolation:auto;mix-blend-mode:normal;marker:none" d="M27.914 24.379L26.5 25.793l-1.414-1.414-.707.707 1.414 1.414-1.414 1.414.707.707 1.414-1.414 1.414 1.414.707-.707-1.414-1.414 1.414-1.414z" color="#000" font-family="sans-serif" fill="#fff"/><path fill="#fad1d6" fill-rule="evenodd" d="M13 12h6v7h-6z"/></svg>