<svg xmlns="http://www.w3.org/2000/svg" viewBox="0 0 32 32"><path fill="#fff" d="M5 5h22v22H5z"/><path d="M4 6v5h1V8h7v3h1V8h6v3h1V8h7v3h1V6c0-2-1-2-3-2H7C5 4 4 4 4 6zm1 0c0-1 1-1 2-1h5v2H5zm8-1h6v2h-6zm7 0h5c1 0 2 0 2 1v1h-7zM4 20v6c0 2 1 2 3 2h18c2 0 3 0 3-2v-6h-1v3h-7v-3h-1v3h-6v-3h-1v3H5v-3zm1 4h7v3H7c-1 0-2 0-2-1zm8 0h6v3h-6zm7 0h7v2c0 1-1 1-2 1h-5z" fill="#6d6d6d"/><path d="M4 11v9h24v-9H14z" fill="#c7162b"/><circle cy="26" cx="26" r="5" fill="#c7162b"/><path overflow="visible" font-weight="400" style="line-height:normal;text-indent:0;text-align:start;text-decoration-line:none;text-decoration-style:solid;text-decoration-color:#000;text-transform:none;white-space:normal;isolation:auto;mix-blend-mode:normal;marker:none" d="M23.172 23.879L25.292 26l-2.12 2.121.707.707L26 26.708l2.121 2.12.707-.707L26.708 26l2.12-2.121-.707-.707L26 25.292l-2.121-2.12z" color="#000" font-family="sans-serif" fill="#fff"/><path fill="#fad1d6" fill-rule="evenodd" d="M5 12h22v7H5z"/><path fill="#c7162b" fill-rule="evenodd" d="M12 12h1v7h-1zM19 12h1v7h-1z"/></svg>