<svg xmlns="http://www.w3.org/2000/svg" viewBox="0 0 32 32"><path fill="#fff" d="M5 5h22v22H5z"/><path d="M4 6v5h1V8h7v3h1V8h6v3h1V8h7v3h1V6c0-2-1-2-3-2H7C5 4 4 4 4 6zm1 0c0-1 1-1 2-1h5v2H5zm8-1h6v2h-6zm7 0h5c1 0 2 0 2 1v1h-7zM4 20v6c0 2 1 2 3 2h18c2 0 3 0 3-2v-6h-1v3h-7v-3h-1v3h-6v-3h-1v3H5v-3zm1 4h7v3H7c-1 0-2 0-2-1zm8 0h6v3h-6zm7 0h7v2c0 1-1 1-2 1h-5z" fill="#6d6d6d"/><path d="M4 11v9h24v-9H14zm1 1h1.342L5 13.566zm2.658 0h2.684L5 18.232v-3.13l2.38-2.778zm4 0h2.684l-.342.398-5.379 6.276L8.34 19H5.658l5.723-6.676zm4 0h2.684L15 15.898l-1 1.166-1.379 1.61-.281.326H9.658L14 13.936l1-1.166.38-.446zm4 0h2.684l-5.72 6.674-.282.326h-2.682l.342-.398.115-.135.885-1.031 4.38-5.112zm4 0h2.684l-5.72 6.674-.282.326h-2.682l5.723-6.676zm3.342.77v3.128l-2.379 2.776-.281.326h-2.682zm0 4.666V19h-1.342z" fill="#c7162b"/><circle cy="26" cx="25" r="5" fill="#c7162b"/><path overflow="visible" font-weight="400" style="line-height:normal;text-indent:0;text-align:start;text-decoration-line:none;text-decoration-style:solid;text-decoration-color:#000;text-transform:none;white-space:normal;isolation:auto;mix-blend-mode:normal;marker:none" d="M22.172 23.879L24.292 26l-2.12 2.121.707.707L25 26.708l2.121 2.12.707-.707L25.708 26l2.12-2.121-.707-.707L25 25.292l-2.121-2.12z" color="#000" font-family="sans-serif" fill="#fff"/></svg>