<svg xmlns="http://www.w3.org/2000/svg" viewBox="0 0 32 32"><path fill="#fff" d="M5 27V5h22v22z"/><path d="M6 28h7v-1h-3v-7h3v-1h-3v-6h3v-1h-3V5h3V4H6C4 4 4 5 4 7v18c0 2 0 3 2 3zm0-1c-1 0-1-1-1-2v-5h4v7zm-1-8v-6h4v6zm0-7V7c0-1 0-2 1-2h3v7zm15 16h6c2 0 2-1 2-3V7c0-2 0-3-2-3h-6v1h3v7h-3v1h3v6h-3v1h3v7h-3zm4-1v-7h3v5c0 1 0 2-1 2zm0-8v-6h3v6zm0-7V5h2c1 0 1 1 1 2v5z" fill="#6d6d6d"/><path d="M13 28h7V4H13v11zm1-1V5h5v22z" fill="#c7162b"/><path d="M14 27V5h5v22z" fill="#fad1d6" fill-rule="evenodd"/><path d="M14 20v-1h5v1zM14 13v-1h5v1z" fill="#c7162b" fill-rule="evenodd"/><circle cy="26" cx="26" r="5" fill="#c7162b"/><path overflow="visible" font-weight="400" style="line-height:normal;text-indent:0;text-align:start;text-decoration-line:none;text-decoration-style:solid;text-decoration-color:#000;text-transform:none;white-space:normal;isolation:auto;mix-blend-mode:normal;marker:none" d="M23.172 23.879L25.292 26l-2.12 2.121.707.707L26 26.708l2.121 2.12.707-.707L26.708 26l2.12-2.121-.707-.707L26 25.292l-2.121-2.12z" color="#000" font-family="sans-serif" fill="#fff"/></svg>