<svg xmlns="http://www.w3.org/2000/svg" viewBox="0 0 32 32"><path fill="#fff" d="M27 5v22H5V5z"/><path d="M26 4h-5v1h3v7h-3v1h3v6h-3v1h3v7h-3v1h5c2 0 2-1 2-3V7c0-2 0-3-2-3zm0 1c1 0 1 1 1 2v5h-2V5zm1 8v6h-2v-6zm0 7v5c0 1 0 2-1 2h-1v-7zM12 4H6C4 4 4 5 4 7v18c0 2 0 3 2 3h6v-1H9v-7h3v-1H9v-6h3v-1H9V5h3zM8 5v7H5V7c0-1 0-2 1-2zm0 8v6H5v-6zm0 7v7H6c-1 0-1-1-1-2v-5z" fill="#6d6d6d"/><path d="M21 4h-9v24h9V14z" fill="#c7162b"/><path fill="#fad1d6" fill-rule="evenodd" d="M20 5v22h-7V5z"/><path fill="#c7162b" fill-rule="evenodd" d="M20 12v1h-7v-1zM20 19v1h-7v-1z"/><circle cy="26" cx="26" r="5" fill="#c7162b"/><path overflow="visible" font-weight="400" style="line-height:normal;text-indent:0;text-align:start;text-decoration-line:none;text-decoration-style:solid;text-decoration-color:#000;text-transform:none;white-space:normal;isolation:auto;mix-blend-mode:normal;marker:none" d="M23.172 23.879L25.292 26l-2.12 2.121.707.707L26 26.708l2.121 2.12.707-.707L26.708 26l2.12-2.121-.707-.707L26 25.292l-2.121-2.12z" color="#000" font-family="sans-serif" fill="#fff"/></svg>