<svg xmlns="http://www.w3.org/2000/svg" viewBox="0 0 32 32"><path d="M6.994 4.973c-1.258.014-2.179-.031-2.931.384a1.88 1.88 0 00-.838.998C3.06 6.795 3 7.315 3 7.973V24.027c0 .658.06 1.179.225 1.618.164.438.461.788.838.996.752.415 1.673.371 2.931.386h18.012c1.258-.014 2.179.031 2.931-.384a1.88 1.88 0 00.838-.998c.165-.44.223-.96.225-1.618V7.973c0-.658-.06-1.179-.225-1.618a1.875 1.875 0 00-.837-.996c-.753-.415-1.674-.371-2.932-.386H6.998z" style="line-height:125%;-inkscape-font-specification:Ubuntu;text-align:center" font-weight="400" font-size="15" font-family="Ubuntu" letter-spacing="0" word-spacing="0" text-anchor="middle" opacity=".7"/><path d="M11.983 6c-1.556.01-5.11-.012-6.66.039-.46.042-1.016.206-1.155.71-.219.635-.108 1.333-.146 1.981-.008 2.297-.023 13.651.022 15.94.039.462.202 1.013.699 1.164.632.225 1.284.123 1.936.154 1.424.007 4.85.011 6.276.012 1.704 0 11.408-.005 13.107-.019.512-.012 1.184.02 1.585-.405.42-.54.287-1.268.323-1.904.011-2.444.027-13.965-.022-16.41-.05-.403-.17-.864-.575-1.045-.669-.294-1.427-.168-2.126-.206A4549.11 4549.11 0 0011.983 6z" fill="#80a3fa"/><path d="M8 8v2H6v1h2v10H6v1h2v2h1v-2h14v2h1v-2h2v-1h-2V11h2v-1h-2V8h-1v2H9V8zm1 3h14v10h-2v-6h-2v6h-2v-4h-2v4h-2v-8h-2v8H9z" fill="#fff"/><path d="M10 29l21-11v11z" opacity=".7" stroke="#000" stroke-width="2" stroke-linejoin="round"/><path d="M10 29l21-11v11z" fill="#fff"/></svg>