<svg xmlns="http://www.w3.org/2000/svg" viewBox="0 0 32 32"><path d="M25.006 7c1.258.014 2.18-.03 2.932.384.376.208.673.56.838.999.164.438.224.96.224 1.617v12c0 .658-.06 1.179-.224 1.617a1.875 1.875 0 01-.838.997c-.753.415-1.674.371-2.932.386H6.994c-1.258-.014-2.18.03-2.932-.384a1.88 1.88 0 01-.838-.999C3.06 23.18 3 22.657 3 22V10c0-.658.06-1.179.224-1.617.165-.44.462-.789.838-.997.753-.415 1.674-.371 2.932-.386h18.008z" style="line-height:125%;-inkscape-font-specification:Ubuntu;text-align:center" font-weight="400" font-size="15" font-family="Ubuntu" letter-spacing="0" word-spacing="0" text-anchor="middle" opacity=".6"/><path d="M20.017 8.027c1.557.01 5.11-.012 6.66.039.461.042 1.016.206 1.155.71.22.635.109 1.333.146 1.982.008 2.297.023 9.596-.021 11.885-.04.462-.203 1.013-.7 1.164-.632.225-1.283.123-1.935.154-1.424.007-10.851.011-12.277.012-1.705 0-5.409-.005-7.107-.019-.512-.012-1.184.02-1.585-.405-.421-.54-.287-1.268-.323-1.904-.012-2.444-.028-9.911.022-12.357.05-.402.17-.863.575-1.044.668-.294 1.426-.168 2.126-.206 1.754-.012 11.51-.012 13.264-.011z" fill="#aee3f8"/><path d="M22.998 19.93A10 10 0 0014.312 25a10 10 0 008.686 5.07 10 10 0 008.69-5.064L31.683 25l.003-.006a10 10 0 00-8.689-5.064z" opacity=".6" fill="#090909" stroke="#140c0c" stroke-width="2" stroke-linejoin="round"/><path d="M22.998 19.93A10 10 0 0014.312 25a10 10 0 008.686 5.07 10 10 0 008.69-5.064L31.683 25l.003-.006a10 10 0 00-8.689-5.064z" fill="#fff"/><path d="M23 21a4 4 0 00-4 4 4 4 0 004 4 4 4 0 004-4 4 4 0 00-4-4zm0 1a3 3 0 013 3 3 3 0 01-3 3 3 3 0 01-3-3 3 3 0 013-3z" fill="#232629"/><path d="M23 23a2 2 0 00-2 2 2 2 0 002 2 2 2 0 002-2 2 2 0 00-.09-.588A1 1 0 0124 25a1 1 0 01-1-1 1 1 0 01.59-.91A2 2 0 0023 23z" fill="#232629"/></svg>