<svg xmlns="http://www.w3.org/2000/svg" viewBox="0 0 32 32"><path style="line-height:125%;-inkscape-font-specification:Ubuntu;text-align:center" d="M20.007 6c1.258.014 2.179-.031 2.931.384.377.208.674.56.838.998.165.439.225.96.225 1.617V17c0 .658-.06 1.179-.225 1.617a1.875 1.875 0 01-.838.996c-.752.415-1.673.372-2.931.387H6.994c-1.258-.015-2.179.03-2.931-.385a1.88 1.88 0 01-.838-.998C3.06 18.18 3 17.657 3 17V8.999c0-.657.06-1.178.225-1.617.164-.438.461-.788.838-.996.752-.415 1.673-.372 2.931-.387h13.009z" font-weight="400" font-size="15" font-family="Ubuntu" letter-spacing="0" word-spacing="0" text-anchor="middle" opacity=".6"/><path d="M15.018 7.027c1.556.01 5.11-.012 6.66.038.46.043 1.016.207 1.155.71.219.636.108 1.334.146 1.982.007 2.297.023 5.597-.022 7.886-.039.462-.202 1.013-.699 1.164-.632.225-1.284.122-1.936.154-1.424.007-5.851.011-7.277.011-1.704 0-5.408-.005-7.107-.018-.512-.012-1.184.02-1.585-.405-.42-.54-.287-1.268-.323-1.904-.011-2.444-.027-5.911.022-8.357.05-.402.17-.863.575-1.044.669-.295 1.427-.168 2.126-.206 1.755-.012 6.51-.012 8.265-.011z" fill="#fff"/><path d="M25.006 11c1.258.014 2.18-.03 2.932.384.376.208.673.56.838.999.164.438.224.96.224 1.617v8c0 .658-.06 1.179-.224 1.617a1.875 1.875 0 01-.838.997c-.753.415-1.674.371-2.932.386H11.994c-1.259-.014-2.18.03-2.932-.384a1.88 1.88 0 01-.838-.999C8.06 23.18 8 22.657 8 22v-8c0-.658.06-1.179.225-1.617.165-.44.462-.789.838-.997.753-.415 1.674-.371 2.932-.386H25.002z" style="line-height:125%;-inkscape-font-specification:Ubuntu;text-align:center" font-weight="400" font-size="15" font-family="Ubuntu" letter-spacing="0" word-spacing="0" text-anchor="middle" opacity=".6"/><path d="M20.017 12.027c1.557.01 5.11-.012 6.66.039.461.042 1.016.206 1.155.71.22.635.109 1.333.146 1.982.008 2.297.023 5.596-.021 7.885-.04.462-.203 1.013-.7 1.164-.632.225-1.283.123-1.935.154-1.424.007-5.852.011-7.277.012-1.705 0-5.409-.005-7.108-.019-.512-.012-1.183.02-1.584-.405-.421-.54-.287-1.268-.323-1.904-.012-2.444-.028-5.911.022-8.357.049-.402.17-.863.575-1.044.668-.294 1.426-.168 2.126-.206 1.754-.012 6.51-.012 8.264-.011z" fill="#fff"/></svg>