<svg xmlns="http://www.w3.org/2000/svg" viewBox="0 0 32 32"><path d="M14 6L5 26h3l2.908-6h10.184L24 26h3L18 6h-2zm2 2.402L19.85 17h-7.7z" opacity=".6" stroke="#000" stroke-width="2" stroke-linejoin="round"/><path d="M14 6L5 26h3l2.908-6h10.184L24 26h3L18 6h-2zm2 2.402L19.85 17h-7.7z" fill="#fff"/><g color="#000" font-weight="400" font-family="sans-serif" fill-rule="evenodd"><path d="M23 12v3h1.992a.451.451 0 00.008.025v10.95l-.008.025H23v3h2c.599 0 1.086-.2 1.5-.46.414.26.901.46 1.5.46h2v-3h-1.992L28 25.975v-10.95l.008-.025H30v-3h-2c-.599 0-1.086.2-1.5.46-.414-.26-.901-.46-1.5-.46z" style="line-height:normal;font-variant-ligatures:normal;font-variant-position:normal;font-variant-caps:normal;font-variant-numeric:normal;font-variant-alternates:normal;font-feature-settings:normal;text-indent:0;text-align:start;text-decoration-line:none;text-decoration-style:solid;text-decoration-color:#000;text-transform:none;text-orientation:mixed;white-space:normal;shape-padding:0;isolation:auto;mix-blend-mode:normal;solid-color:#000;solid-opacity:1" overflow="visible" fill="#fff"/><path style="line-height:normal;font-variant-ligatures:normal;font-variant-position:normal;font-variant-caps:normal;font-variant-numeric:normal;font-variant-alternates:normal;font-feature-settings:normal;text-indent:0;text-align:start;text-decoration-line:none;text-decoration-style:solid;text-decoration-color:#000;text-transform:none;text-orientation:mixed;white-space:normal;shape-padding:0;isolation:auto;mix-blend-mode:normal;solid-color:#000;solid-opacity:1" d="M24 13v1h1c.583 0 .737.217.865.473.128.255.135.527.135.527v11s-.007.272-.135.527c-.128.256-.403.473-.865.473h-1v1h1c.727 0 1.19-.353 1.5-.738.31.385.773.738 1.5.738h1v-1h-1c-.583 0-.737-.217-.865-.473A1.404 1.404 0 0127 26V15s.007-.272.135-.527c.128-.256.282-.473.865-.473h1v-1h-1c-.727 0-1.19.353-1.5.738-.31-.385-.773-.738-1.5-.738z" overflow="visible" fill="#111"/></g></svg>