<svg xmlns="http://www.w3.org/2000/svg" height="32" width="32"><linearGradient id="a" gradientTransform="matrix(2.22221 0 0 1.25925 -686.219 -1123.561)" gradientUnits="userSpaceOnUse" x1="318.42" x2="318.42" y1="906.384" y2="912.357"><stop offset="0" stop-color="#60170a"/><stop offset="1" stop-color="#29140a"/></linearGradient><linearGradient id="b" gradientUnits="userSpaceOnUse" spreadMethod="reflect" x1="8.02" x2="13.243" y1="10.286" y2="10.286" gradientTransform="matrix(1.77777 0 0 1.77777 1.778 1.778)"><stop offset="0" stop-color="#fff"/><stop offset=".5" stop-color="#fff"/><stop offset="1" stop-color="#fff" stop-opacity="0"/></linearGradient><linearGradient id="c" gradientTransform="matrix(2.6667 0 0 1.77777 -826.676 -1594.858)" gradientUnits="userSpaceOnUse" x1="316" x2="316" y1="911.362" y2="909.362"><stop offset="0" stop-color="#e84b00"/><stop offset="1" stop-color="#e44a00" stop-opacity=".799"/></linearGradient><path d="M29.333 16a13.333 13.333 0 11-26.666 0 13.333 13.333 0 1126.666 0z" stroke-width="2" stroke="#000" opacity=".6" stroke-linejoin="round"/><path d="M29.333 16a13.333 13.333 0 11-26.666 0 13.333 13.333 0 1126.666 0z" fill="#ffda64"/><path d="M13.778 12.913a1.333 3.556 0 11-2.667 0 1.333 3.556 0 112.667 0zM18.222 12.913a1.333 3.556 0 102.667 0 1.333 3.556 0 10-2.667 0z" fill="#43340d"/><path d="M7.167 17.778c-.018.18-.056.355-.056.54 0 3.874 3.98 7.015 8.89 7.015 4.908 0 8.888-3.14 8.888-7.016 0-.184-.038-.358-.055-.54 0 0-2.475.86-8.834.756-6.359-.104-8.833-.755-8.833-.755z" fill="url(#a)"/><path d="M7.518 19.683s1.616.761 8.482.761 8.432-.761 8.432-.761" fill="none" stroke="url(#b)" stroke-width="2"/><path d="M10.7 21.778c-.01.085-.033.167-.033.254 0 1.823 2.387 3.301 5.333 3.301s5.333-1.478 5.333-3.301c0-.087-.024-.169-.033-.254z" opacity=".6" fill="url(#c)"/></svg>