<svg xmlns="http://www.w3.org/2000/svg" viewBox="0 0 32 32"><path fill="#fff" d="M5 5h22v22H5z"/><path d="M4 6v20c0 2 1 2 3 2h5v-1H9v-7h3v-1H9v-6h3v-1H9V5h3V4H7C5 4 4 4 4 6zm17-2v1h3v7h-3v1h3v6h-3v1h3v7h-3v1h4c2 0 3 0 3-2V6c0-2-1-2-3-2zM5 6c0-1 1-1 2-1h1v7H5zm20-1c1 0 2 0 2 1v6h-2zM5 13h3v6H5zm20 0h2v6h-2zM5 20h3v7H7c-1 0-2 0-2-1zm20 0h2v6c0 1-1 1-2 1z" fill="#6d6d6d"/><path d="M12 4v24h9V4h-8zm1 1h1.566L13 6.342zm3.102 0h3.13L13 10.342V7.658l.324-.277zM20 5.658V8.34l-.326.281L13.398 14l-.398.342v-2.684l.324-.277zm0 4v2.682l-.326.281L18.064 14l-1.166 1L13 18.342v-2.684l.324-.277.446-.381 1.166-1zm0 4V16.34l-.326.281L13 22.341v-2.683l.324-.277L18.436 15l1.03-.885.136-.115zm0 4v2.682l-.326.281L13 26.341v-2.683l.324-.277zm0 4v2.682l-.326.281L16.898 27H13.77zm0 4V27h-1.564z" fill="#762572"/></svg>