<svg xmlns="http://www.w3.org/2000/svg" height="32" width="32"><path d="M10 28c-2 0-4-1-4-3V7c0-2 2-3 4-3h9l7 7v14c0 2-2 3-4 3z" opacity=".6" stroke="#000" stroke-width="2"/><path d="M10 28c-2 0-4-1-4-3V7c0-2 2-3 4-3h9l7 7v14c0 2-2 3-4 3z" fill="#fff"/><path d="M19 11V4l7 7z" fill="#6d6d6d"/><path d="M16.003 21.77L12.232 18l3.77-3.77 1.258 1.256L14.746 18l1.257 1.257 3.77-3.77L16.49 12.2a.687.687 0 00-.972 0l-5.313 5.313a.687.687 0 000 .972l5.313 5.313a.687.687 0 00.972 0l5.313-5.313a.687.687 0 000-.972l-.772-.77z" fill="#579120"/></svg>