<svg xmlns="http://www.w3.org/2000/svg" viewBox="0 0 32 32"><path d="M10 28c-2 0-4-1-4-3V7c0-2 2-3 4-3h9l7 7v14c0 2-2 3-4 3z" opacity=".7" stroke="#000" stroke-width="2"/><path d="M10 28c-2 0-4-1-4-3V7c0-2 2-3 4-3h9l7 7v14c0 2-2 3-4 3z" fill="#fff"/><path d="M19 11V4l7 7z" fill="#6d6d6d"/><g stroke-width="10.667"><path style="marker:none" overflow="visible" fill="none" d="M4 4h24v24H4z"/><path d="M13.839 19.004c.374-.733.798-1.558 1.138-2.387l.135-.327c-.444-1.69-.71-3.046-.473-3.923.064-.228.33-.367.612-.367l.173.003h.031c.388-.006.57.487.591.678.034.32-.113.86-.113.86 0-.218.008-.57-.13-.875-.16-.352-.313-.562-.45-.596-.07.047-.137.142-.16.327a4.701 4.701 0 00-.062.753c0 .594.117 1.379.347 2.188.043-.125.082-.246.112-.358.047-.178.347-1.356.347-1.356s-.076 1.568-.181 2.042c-.023.1-.048.2-.074.301.38 1.06.99 2.006 1.72 2.686.287.27.65.486.994.683.75-.107 1.441-.158 2.018-.151.764.01 1.326.123 1.553.347.111.109.156.24.17.387.004.058-.024.192-.032.226.008-.04.008-.242-.606-.438-.483-.154-1.388-.15-2.474-.034 1.256.614 2.48.92 2.867.737.095-.047.21-.204.21-.204s-.069.31-.118.388a.611.611 0 01-.302.206c-.612.164-2.206-.214-3.595-1.008a29.377 29.377 0 00-4.624 1.1c-1.343 2.353-2.353 3.434-3.175 3.022l-.302-.151c-.122-.07-.141-.242-.113-.38.096-.47.684-1.175 1.864-1.88.127-.076.693-.376.693-.376s-.42.406-.517.485c-.942.772-1.638 1.743-1.62 2.12l.003.033c.8-.114 2-1.743 3.543-4.761m.489.25c-.258.485-.51.935-.742 1.348 1.286-.539 2.67-.884 3.988-1.129a6.574 6.574 0 01-.51-.388c-.726-.615-1.28-1.381-1.68-2.188a18.738 18.738 0 01-1.056 2.357" fill="#da1636"/></g></svg>