<svg xmlns="http://www.w3.org/2000/svg" viewBox="0 0 32 32"><path d="M17 28V4h-1v24z" opacity=".6" stroke="#000" stroke-width="2" stroke-linejoin="round"/><path d="M17 28V4h-1v24z" fill="#fff"/><path d="M18 27c5.523 0 10-4.253 10-9.5S23.523 8 18 8H9V5L4 9l5 4v-3h9c4.418 0 8 3.358 8 7.5 0 4.142-3.582 7.5-8 7.5z" opacity=".6" stroke="#000" stroke-width="2" stroke-linejoin="round"/><path d="M18 27c5.523 0 10-4.253 10-9.5S23.523 8 18 8H9V5L4 9l5 4v-3h9c4.418 0 8 3.358 8 7.5 0 4.142-3.582 7.5-8 7.5z" fill="#e97cc8"/></svg>