<svg xmlns="http://www.w3.org/2000/svg" viewBox="0 0 32 32"><path d="M15 4v24h1V4z" stroke="#000" opacity=".6" stroke-width="2" stroke-linejoin="round"/><path d="M15 4v24h1V4z" fill="#fff"/><path d="M14 5C8.477 5 4 9.253 4 14.5S8.477 24 14 24h9v3l5-4-5-4v3h-9c-4.418 0-8-3.358-8-7.5C6 10.358 9.582 7 14 7z" opacity=".6" stroke="#000" stroke-width="2" stroke-linejoin="round"/><path d="M14 5C8.477 5 4 9.253 4 14.5S8.477 24 14 24h9v3l5-4-5-4v3h-9c-4.418 0-8-3.358-8-7.5C6 10.358 9.582 7 14 7z" fill="#e97cc8"/></svg>