<svg xmlns="http://www.w3.org/2000/svg" viewBox="0 0 32 32"><path d="M4 17h24v-1H4z" opacity=".6" stroke="#000" stroke-width="2" stroke-linejoin="round"/><path d="M4 17h24v-1H4z" fill="#fff"/><path d="M5 18c0 5.523 4.253 10 9.5 10S24 23.523 24 18V9h3l-4-5-4 5h3v9c0 4.418-3.358 8-7.5 8-4.142 0-7.5-3.582-7.5-8z" opacity=".6" stroke="#000" stroke-width="2" stroke-linejoin="round"/><path d="M5 18c0 5.523 4.253 10 9.5 10S24 23.523 24 18V9h3l-4-5-4 5h3v9c0 4.418-3.358 8-7.5 8-4.142 0-7.5-3.582-7.5-8z" fill="#e97cc8"/></svg>