<svg xmlns="http://www.w3.org/2000/svg" viewBox="0 0 32 32"><path d="M24.59 10.076c-1.976 4.956-5.761 7.387-9.399 6.975-3.559-.404-6.555-3.162-7.796-6.965L4 12.174C6.235 17.413 10.753 21 15.998 21h.004c1.252 0 2.461-.21 3.61-.592 2.867-1.04 5.475-3.22 7.304-6.12.03-.05.061-.096.09-.145.039-.063.073-.13.111-.194.324-.567.62-1.16.883-1.775z" stroke="#000" opacity=".7" stroke-width="2" stroke-linejoin="round"/><path d="M24.59 10.076c-1.976 4.956-5.761 7.387-9.399 6.975-3.559-.404-6.555-3.162-7.796-6.965L4 12.174C6.235 17.413 10.753 21 15.998 21h.004c1.252 0 2.461-.21 3.61-.592 2.867-1.04 5.475-3.22 7.304-6.12.03-.05.061-.096.09-.145.039-.063.073-.13.111-.194.324-.567.62-1.16.883-1.775z" fill="#fff"/></svg>