<svg xmlns="http://www.w3.org/2000/svg" viewBox="0 0 32 32"><path d="M15.998 5.076c-5.245 0-9.763 3.587-11.998 8.826l3.395 2.088c1.241-3.803 4.237-6.561 7.796-6.965 3.638-.412 7.423 2.019 9.399 6.975L28 13.902a17.253 17.253 0 00-.883-1.775c-.038-.064-.072-.13-.111-.193-.029-.05-.06-.096-.09-.145-1.829-2.9-4.437-5.08-7.305-6.121a11.382 11.382 0 00-3.609-.592zm8.592 11.076c-1.976 4.956-5.761 7.387-9.399 6.975-3.559-.403-6.555-3.162-7.796-6.965L4 18.25c2.235 5.239 6.753 8.826 11.998 8.826h.004c1.252 0 2.461-.21 3.61-.592 2.867-1.04 5.475-3.22 7.304-6.12.03-.05.061-.096.09-.145.039-.063.073-.13.111-.194.324-.567.62-1.159.883-1.775z" stroke="#000" opacity=".6" stroke-width="2" stroke-linejoin="round"/><path d="M15.998 5.076c-5.245 0-9.763 3.587-11.998 8.826l3.395 2.088c1.241-3.803 4.237-6.561 7.796-6.965 3.638-.412 7.423 2.019 9.399 6.975L28 13.902a17.253 17.253 0 00-.883-1.775c-.038-.064-.072-.13-.111-.193-.029-.05-.06-.096-.09-.145-1.829-2.9-4.437-5.08-7.305-6.121a11.382 11.382 0 00-3.609-.592zm8.592 11.076c-1.976 4.956-5.761 7.387-9.399 6.975-3.559-.403-6.555-3.162-7.796-6.965L4 18.25c2.235 5.239 6.753 8.826 11.998 8.826h.004c1.252 0 2.461-.21 3.61-.592 2.867-1.04 5.475-3.22 7.304-6.12.03-.05.061-.096.09-.145.039-.063.073-.13.111-.194.324-.567.62-1.159.883-1.775z" fill="#fff"/></svg>