<svg xmlns="http://www.w3.org/2000/svg" viewBox="0 0 32 32"><path d="M18.826 4c-.616.263-1.208.56-1.775.883-.064.038-.13.072-.194.111-.049.029-.095.06-.144.09-2.9 1.829-5.08 4.437-6.121 7.305A11.383 11.383 0 0010 15.998v.004c0 5.245 3.587 9.763 8.826 11.998l2.088-3.395c-3.803-1.241-6.561-4.237-6.965-7.796-.412-3.638 2.019-7.423 6.975-9.399z" stroke="#000" opacity=".6" stroke-width="2" stroke-linejoin="round"/><path d="M18.826 4c-.616.263-1.208.56-1.775.883-.064.038-.13.072-.194.111-.049.029-.095.06-.144.09-2.9 1.829-5.08 4.437-6.121 7.305A11.383 11.383 0 0010 15.998v.004c0 5.245 3.587 9.763 8.826 11.998l2.088-3.395c-3.803-1.241-6.561-4.237-6.965-7.796-.412-3.638 2.019-7.423 6.975-9.399z" fill="#fff"/></svg>