<svg xmlns="http://www.w3.org/2000/svg" viewBox="0 0 32 32"><path d="M23.5 15a5.5 5.5 0 000 11 5.5 5.5 0 003.5-1.268V26h2V15h-2v1.27A5.5 5.5 0 0023.5 15zm0 1a4.493 4.493 0 000 0zm.389.02a4.508 4.508 0 010 0zm-.998.027a4.55 4.55 0 000 0zm1.431.033a4.498 4.498 0 010 0zm-1.88.053a4.5 4.5 0 000 0zm2.322.05a4.503 4.503 0 010 0zm-2.754.077a4.506 4.506 0 000 0zm3.176.072a4.5 4.5 0 010 0zm-3.6.102a4.506 4.506 0 000 0zm4.002.084a4.49 4.49 0 010 0zm-4.395.123a4.505 4.505 0 000 0zm4.79.109a4.502 4.502 0 010 0zm-5.151.13a4.5 4.5 0 000 0zM23.5 17a3.5 3.5 0 110 7 3.5 3.5 0 010-7zm2.852.023a4.505 4.505 0 010 0zm-5.854.133a4.507 4.507 0 000 0zm6.182.164a4.497 4.497 0 010 0zm-6.524.178a4.501 4.501 0 000 0zm6.823.152l.021.024v.004a5.237 5.237 0 00-.021-.028zm-7.098.182a4.497 4.497 0 000 0zm-.24.361a4.504 4.504 0 000 0zm-.207.393a4.499 4.499 0 000 0zm-.174.424a4.501 4.501 0 000 0zm-.127.431a4.5 4.5 0 000 0zm-.086.45a4.495 4.495 0 000 0zM19 20.5a4.493 4.493 0 000 0zm.047.61a4.55 4.55 0 000 0zm.086.449a4.5 4.5 0 000 0zm.127.431a4.506 4.506 0 000 0zm.174.424a4.507 4.507 0 000 0zm.207.393a4.493 4.493 0 000 0zm.24.361a4.507 4.507 0 000 0zm7.094.187a4.489 4.489 0 010 0zm-6.819.147a4.5 4.5 0 000 0zm6.524.178a4.497 4.497 0 010 0zm-6.182.164a4.501 4.501 0 000 0zm5.854.133a4.501 4.501 0 010 0zm-5.52.142a4.5 4.5 0 000 0zm5.15.131a4.503 4.503 0 010 0zm-4.789.11a4.504 4.504 0 000 0zm4.395.122a4.512 4.512 0 010 0zm-4.002.084a4.499 4.499 0 000 0zm3.6.102a4.505 4.505 0 010 0zm-3.176.072a4.501 4.501 0 000 0zm2.754.076a4.5 4.5 0 010 0zm-2.323.051a4.5 4.5 0 000 0zm1.881.053a4.511 4.511 0 010 0zm-1.431.033a4.495 4.495 0 000 0zm.998.027a4.5 4.5 0 010 0z" opacity=".7" stroke="#000" stroke-width="2" stroke-linejoin="round"/><path d="M23.5 15a5.5 5.5 0 000 11 5.5 5.5 0 003.5-1.268V26h2V15h-2v1.27A5.5 5.5 0 0023.5 15zm0 1zm.389.02zm-.998.027zm1.431.033zm-1.88.053zm2.322.05zm-2.754.077zm3.176.072zm-3.6.102zm4.002.084zm-4.395.123zm4.79.109zm-5.151.13zM23.5 17a3.5 3.5 0 110 7 3.5 3.5 0 010-7zm2.852.023zm-5.854.133zm6.182.164zm-6.524.178zm6.823.152l.021.024v.004a5.237 5.237 0 00-.021-.028zm-7.098.182zm-.24.361zm-.207.393zm-.174.424zm-.127.431zm-.086.45zM19 20.5zm.047.61zm.086.449zm.127.431zm.174.424zm.207.393zm.24.361zm7.094.187zm-6.819.147zm6.524.178zm-6.182.164zm5.854.133zm-5.52.142zm5.15.131zm-4.789.11zm4.395.122zm-4.002.084zm3.6.102zm-3.176.072zm2.754.076zm-2.323.051zm1.881.053zm-1.431.033zm.998.027z" fill="#fff"/><path d="M8.373 9l-.117.336-3.793 10.973-.139.462L2.4 26h2.454l2.238-5.986h5.64L15.004 26h2.543l-1.924-5.229-.139-.462L11.574 9H8.4zM10 11.752l2.088 6.25-4.352.006z" style="line-height:normal;font-variant-ligatures:normal;font-variant-position:normal;font-variant-caps:normal;font-variant-numeric:normal;font-variant-alternates:normal;font-feature-settings:normal;text-indent:0;text-align:start;text-decoration-line:none;text-decoration-style:solid;text-decoration-color:#000;text-transform:none;text-orientation:mixed;white-space:normal;shape-padding:0;isolation:auto;mix-blend-mode:normal;solid-color:#000;solid-opacity:1" color="#000" font-weight="400" font-family="sans-serif" overflow="visible" opacity=".7" stroke="#000" stroke-width="2" stroke-linejoin="round"/><path style="line-height:normal;font-variant-ligatures:normal;font-variant-position:normal;font-variant-caps:normal;font-variant-numeric:normal;font-variant-alternates:normal;font-feature-settings:normal;text-indent:0;text-align:start;text-decoration-line:none;text-decoration-style:solid;text-decoration-color:#000;text-transform:none;text-orientation:mixed;white-space:normal;shape-padding:0;isolation:auto;mix-blend-mode:normal;solid-color:#000;solid-opacity:1" d="M8.373 9l-.117.336-3.793 10.973-.139.462L2.4 26h2.454l2.238-5.986h5.64L15.004 26h2.543l-1.924-5.229-.139-.462L11.574 9H8.4zM10 11.752l2.088 6.25-4.352.006z" color="#000" font-weight="400" font-family="sans-serif" overflow="visible" fill="#fff"/><path fill="#1463a5" d="M2 4h28v2H2z"/></svg>