<svg xmlns="http://www.w3.org/2000/svg" viewBox="0 0 32 32"><path d="M14 6L5 26h3l2.908-6h10.184L24 26h3L18 6h-2zm2 2.402L19.85 17h-7.7z" opacity=".7" stroke="#000" stroke-width="2" stroke-linejoin="round"/><path d="M14 6L5 26h3l2.908-6h10.184L24 26h3L18 6h-2zm2 2.402L19.85 17h-7.7z" fill="#fff"/><circle cx="23" cy="23" r="2" fill="#fff"/><path d="M22 14.5c-.554 0-1 .446-1 1v1.887a5.966 5.966 0 00-.557.228l-1.332-1.332a.998.998 0 00-1.414 0l-1.414 1.414a.998.998 0 000 1.414l1.334 1.334a5.966 5.966 0 00-.23.555H15.5c-.554 0-1 .446-1 1v2c0 .554.446 1 1 1h1.887a5.966 5.966 0 00.228.557l-1.332 1.332a.998.998 0 000 1.414l1.414 1.414a.998.998 0 001.414 0l1.334-1.334a5.966 5.966 0 00.555.23V30.5c0 .554.446 1 1 1h2c.554 0 1-.446 1-1v-1.887a5.966 5.966 0 00.557-.228l1.332 1.332a.998.998 0 001.414 0l1.414-1.414a.998.998 0 000-1.414l-1.334-1.334a5.966 5.966 0 00.23-.555H30.5c.554 0 1-.446 1-1v-2c0-.554-.446-1-1-1h-1.887a5.966 5.966 0 00-.228-.557l1.332-1.332a.998.998 0 000-1.414l-1.414-1.414a.998.998 0 00-1.414 0l-1.334 1.334a5.966 5.966 0 00-.555-.23V15.5c0-.554-.446-1-1-1zm1 6.504A1.995 1.995 0 0124.996 23 1.995 1.995 0 0123 24.996 1.995 1.995 0 0121.004 23 1.995 1.995 0 0123 21.004z" fill="#b3b3b3" stroke="#6d6d6d" stroke-linecap="square" stroke-linejoin="round"/></svg>