<svg xmlns="http://www.w3.org/2000/svg" xmlns:xlink="http://www.w3.org/1999/xlink" viewBox="0 0 32 32"><defs><linearGradient xlink:href="#a" id="b" gradientUnits="userSpaceOnUse" gradientTransform="matrix(.42186 0 0 .42186 12.508 -91.8)" x1="13.735" y1="249.694" x2="38.1" y2="292.767"/><linearGradient id="a"><stop offset="0" stop-color="#325fd1"/><stop offset="1" stop-color="#6e98ff"/></linearGradient></defs><path d="M6.293 3.995L5 5.288v2.54c.055.04 8 10.667 8 10.667v5.008l6 4.502v-9.51l8-10.668V5.288l-1.293-1.293z" opacity=".7" stroke="#000" stroke-width="2" stroke-linejoin="round"/><path d="M6.293 3.995L5 5.288v2.54c.055.04 8 10.667 8 10.667v5.008l6 4.502v-9.51l8-10.668V5.288l-1.293-1.293z" fill="#fff"/><circle cx="23" cy="23" r="6.5" fill="url(#b)"/><circle cx="23" cy="23" r="6.417" opacity=".4" fill="none" stroke="#000" stroke-width="1.167" stroke-linejoin="round" stroke-dashoffset="6.6"/><path d="M22 22l-3 5 5-3z" style="marker:none" color="#000" overflow="visible" fill="#dfdfdf"/><path style="marker:none" d="M22 22l5-3-3 5z" color="#000" overflow="visible" fill="#e93549"/><circle style="marker:none" cx="23" cy="23" transform="matrix(0 1 1 0 0 0)" r="1" color="#000" overflow="visible" fill="#f2f2f2"/></svg>