<svg xmlns="http://www.w3.org/2000/svg" viewBox="0 0 32 32"><path d="M5.994 3c-1.258.014-2.179-.03-2.931.385a1.88 1.88 0 00-.838.998C2.06 4.82 2 5.343 2 6v15.055c0 .657.06 1.178.225 1.617.164.439.461.789.838.996.752.415 1.673.372 2.931.387h16.012c1.258-.015 2.179.03 2.931-.385a1.88 1.88 0 00.838-.998c.165-.439.225-.96.225-1.617V6c0-.658-.06-1.179-.225-1.617a1.875 1.875 0 00-.837-.996c-.753-.415-1.674-.372-2.932-.387H5.998z" style="line-height:125%;-inkscape-font-specification:Ubuntu;text-align:center" font-weight="400" font-size="15" font-family="Ubuntu" letter-spacing="0" word-spacing="0" text-anchor="middle" opacity=".6"/><path d="M10.983 4.027c-1.556.011-5.11-.012-6.66.039-.46.043-1.016.206-1.155.71-.219.635-.108 1.334-.146 1.982-.008 2.297-.023 12.65.022 14.94.039.462.202 1.013.699 1.164.632.225 1.284.122 1.936.154 1.424.007 4.85.01 6.276.011 1.704 0 9.408-.005 11.107-.018.512-.012 1.184.02 1.585-.406.42-.54.287-1.268.323-1.903.011-2.445.027-12.966-.022-15.411-.05-.402-.17-.863-.575-1.045-.669-.294-1.427-.168-2.126-.205-1.755-.012-9.51-.013-11.264-.012z" fill="#d85eca"/><path d="M9.994 8c-1.258.014-2.179-.03-2.931.385a1.88 1.88 0 00-.838.998C6.06 9.82 6 10.343 6 11v15.055c0 .657.06 1.178.225 1.617.164.439.461.789.838.996.752.415 1.673.372 2.931.387h16.012c1.258-.015 2.179.03 2.931-.385a1.88 1.88 0 00.838-.998c.165-.439.225-.96.225-1.617V11c0-.658-.06-1.179-.225-1.617a1.875 1.875 0 00-.837-.996c-.753-.415-1.674-.372-2.932-.387H9.998z" style="line-height:125%;-inkscape-font-specification:Ubuntu;text-align:center" font-weight="400" font-size="15" font-family="Ubuntu" letter-spacing="0" word-spacing="0" text-anchor="middle" opacity=".6"/><path d="M14.983 9.027c-1.556.011-5.11-.012-6.66.039-.46.043-1.016.206-1.155.71-.219.635-.108 1.334-.146 1.982-.008 2.297-.023 12.65.022 14.94.039.462.202 1.013.699 1.164.632.225 1.284.122 1.936.154 1.424.007 4.85.01 6.276.011 1.704 0 9.408-.005 11.107-.018.512-.012 1.184.02 1.585-.406.42-.54.287-1.268.323-1.903.011-2.445.027-12.966-.022-15.411-.05-.402-.17-.863-.575-1.045-.669-.294-1.427-.168-2.126-.205-1.755-.012-9.51-.013-11.264-.012z" fill="#d85eca"/><path d="M23 12c-1.105 0-2 .914-2 2.042 0 1.128.895 2.042 2 2.042s2-.914 2-2.042C25 12.914 24.105 12 23 12zM15.285 16.688L11 25h11.998l-3.856-7-1.714 2.188z" style="marker:none" color="#000" overflow="visible" fill="#fff"/></svg>