<svg xmlns="http://www.w3.org/2000/svg" viewBox="0 0 32 32"><path d="M6.994 4c-1.258.014-2.179-.031-2.931.384a1.88 1.88 0 00-.838.998C3.06 5.82 3 6.342 3 6.999V25c0 .658.06 1.179.225 1.617.164.439.461.789.838.996.752.415 1.673.372 2.931.387h18.012c1.258-.015 2.179.03 2.932-.385a1.88 1.88 0 00.837-.998c.165-.438.225-.96.225-1.617V6.999c0-.657-.06-1.178-.225-1.617a1.875 1.875 0 00-.837-.996c-.753-.415-1.674-.372-2.932-.387H6.998z" style="line-height:125%;-inkscape-font-specification:Ubuntu;text-align:center" font-weight="400" font-size="15" font-family="Ubuntu" letter-spacing="0" word-spacing="0" text-anchor="middle" opacity=".6"/><path d="M11.983 5.026c-1.556.011-5.11-.011-6.66.04-.46.042-1.016.206-1.155.71-.219.634-.108 1.333-.146 1.981-.008 2.297-.023 15.597.022 17.886.039.462.202 1.013.699 1.164.632.225 1.284.122 1.936.154 1.424.007 4.85.011 6.276.011 1.704 0 11.408-.005 13.107-.018.512-.012 1.184.02 1.585-.405.421-.54.287-1.268.323-1.904.012-2.444.027-15.912-.022-18.357-.05-.402-.17-.863-.575-1.045-.669-.294-1.427-.168-2.126-.205-1.755-.012-11.51-.013-13.264-.012z" fill="#d85eca"/><path style="marker:none" d="M11.994 14l-5 10h18l-6-7-3 3z" color="#000" overflow="visible" fill="#fff"/><path d="M24.02 9.883a2.014 2.014 0 01-1.91 2.114 2.014 2.014 0 01-2.113-1.91 2.014 2.014 0 011.909-2.114 2.014 2.014 0 012.114 1.909" fill="#fff"/></svg>