<svg xmlns="http://www.w3.org/2000/svg" height="32" width="32"><path d="M6.994 4c-1.258.014-2.179-.031-2.932.384a1.88 1.88 0 00-.837.998C3.06 5.821 3 6.342 3 7V26c0 .658.06 1.179.225 1.617.164.439.461.789.837.996.753.415 1.674.372 2.932.387h18.012c1.258-.015 2.179.03 2.932-.385a1.88 1.88 0 00.837-.998c.165-.438.225-.96.225-1.617V6.999c0-.657-.06-1.178-.225-1.617a1.875 1.875 0 00-.837-.996c-.753-.415-1.674-.372-2.932-.387H6.998z" style="line-height:125%;-inkscape-font-specification:Ubuntu;text-align:center" font-weight="400" font-size="15" font-family="Ubuntu" letter-spacing="0" word-spacing="0" text-anchor="middle" opacity=".7"/><path d="M11.983 5.027c-1.556.01-5.11-.012-6.66.038-.46.043-1.016.207-1.155.71-.219.636-.108 1.334-.146 1.982-.008 2.297-.023 16.597.022 18.886.039.462.202 1.013.699 1.164.632.225 1.284.122 1.936.154 1.424.007 12.85.011 14.276.011 1.704 0 3.408-.005 5.107-.018.512-.012 1.184.02 1.585-.405.421-.54.287-1.268.323-1.904.011-2.444.027-16.911-.022-19.357-.05-.402-.17-.863-.575-1.044-.669-.295-1.427-.168-2.126-.206-1.755-.012-11.51-.012-13.264-.011z" fill="#fff"/><path d="M18.166 3.025l-.848.532 2.422 3.879v2.855h1V7.434l2.426-3.877-.848-.532-2.078 3.323zM9.646 3l-.812.582 2.293 3.209L8.834 10l.812.582L11.74 7.65l2.094 2.932.812-.582-2.293-3.209 2.293-3.209L13.834 3 11.74 5.932z" style="line-height:normal;font-variant-ligatures:normal;font-variant-position:normal;font-variant-caps:normal;font-variant-numeric:normal;font-variant-alternates:normal;font-feature-settings:normal;text-indent:0;text-align:start;text-decoration-line:none;text-decoration-style:solid;text-decoration-color:#000;text-transform:none;text-orientation:mixed;white-space:normal;shape-padding:0;isolation:auto;mix-blend-mode:normal;solid-color:#000;solid-opacity:1" color="#000" font-weight="400" font-family="sans-serif" overflow="visible" opacity=".8" fill="#fff" stroke="#fff" stroke-width="2" stroke-linejoin="round"/><path style="line-height:normal;font-variant-ligatures:normal;font-variant-position:normal;font-variant-caps:normal;font-variant-numeric:normal;font-variant-alternates:normal;font-feature-settings:normal;text-indent:0;text-align:start;text-decoration-line:none;text-decoration-style:solid;text-decoration-color:#000;text-transform:none;text-orientation:mixed;white-space:normal;shape-padding:0;isolation:auto;mix-blend-mode:normal;solid-color:#000;solid-opacity:1" d="M18.166 3.025l-.848.532 2.422 3.879v2.855h1V7.434l2.426-3.877-.848-.532-2.078 3.323zM9.646 3l-.812.582 2.293 3.209L8.834 10l.812.582L11.74 7.65l2.094 2.932.812-.582-2.293-3.209 2.293-3.209L13.834 3 11.74 5.932z" color="#000" font-weight="400" font-family="sans-serif" overflow="visible"/></svg>