<svg xmlns="http://www.w3.org/2000/svg" height="32" width="32"><path d="M16 7a12 6 0 00-12 6 12 6 0 001.46 2.87c-.749-.685-1.248-1.448-1.413-2.26C4.369 19.95 9.58 25 16 25c6.42 0 11.631-5.05 11.953-11.39-.236 1.163-1.145 2.228-2.521 3.099A12 6 0 0028 13a12 6 0 00-12-6zM5.488 15.893a12 6 0 00.56.457c-.2-.148-.386-.3-.56-.457zm.692.55a12 6 0 00.55.362 9.17 9.17 0 01-.55-.362zm19.105.354c-.2.121-.406.238-.623.351a12 6 0 00.623-.351zm-18.367.121a12 6 0 00.56.3 11.17 11.17 0 01-.56-.3zm17.555.324a12.67 12.67 0 01-.614.287 12 6 0 00.614-.287zm-16.721.113a12 6 0 00.637.278c-.218-.09-.432-.18-.637-.278zm15.797.303c-.203.082-.41.161-.623.237a12 6 0 00.623-.237zm-14.95.063a12 6 0 00.713.256 15.519 15.519 0 01-.712-.256zm14.024.277c-.212.07-.43.136-.65.2a12 6 0 00.65-.2zm-13.049.068a12 6 0 00.983.282 12 6 0 002.191.427 20.395 20.395 0 01-2.191-.427c-.338-.086-.664-.18-.983-.282zm12.047.23c-.26.07-.526.135-.797.194a12 6 0 00.797-.193zm-1.006.24c-.279.057-.564.11-.853.157a12 6 0 00.853-.158zm-1.136.206c-.271.041-.548.074-.827.106a12 6 0 00.827-.106zm-6.477.063a12 6 0 00.887.1c-.3-.027-.595-.063-.887-.1zm5.34.08c-.276.027-.556.045-.838.062a12 6 0 00.838-.062zm-4.112.043a12 6 0 00.797.049c-.269-.011-.533-.03-.797-.05z" fill-rule="evenodd" stroke="#000" opacity=".6" stroke-width="2" stroke-linejoin="round"/><path d="M4.047 13.61C4.369 19.95 9.58 25 16 25c6.42 0 11.631-5.05 11.953-11.39C27.34 16.634 22.213 19 16 19c-6.213 0-11.339-2.365-11.953-5.39z" fill="#b6b6b6" fill-rule="evenodd"/><path d="M16 7a12 6 0 00-12 6 12 6 0 0012 6 12 6 0 0012-6 12 6 0 00-12-6z" fill="#fff"/></svg>