<svg xmlns="http://www.w3.org/2000/svg" height="32" width="32"><path d="M21 22.294q0-3.187 1.42-4.744 1.427-1.557 4.266-1.557.97 0 1.52.11v1.814q-.69-.147-1.365-.147-1.233 0-2.017.353-.775.352-1.163 1.042-.388.69-.458 1.961h.101q.768-1.248 2.46-1.248 1.52 0 2.38.903.862.903.862 2.497 0 1.718-1.024 2.724-1.024.999-2.84.999-1.256 0-2.195-.55-.93-.552-1.443-1.61Q21 23.785 21 22.295zm4.096 2.893q.768 0 1.18-.485.41-.492.41-1.395 0-.786-.388-1.234-.38-.455-1.155-.455-.73 0-1.25.448-.511.448-.511 1.043 0 .874.48 1.476.49.602 1.234.602zM4 5v22h2V17h10v10h2V5h-2v10H6V5z" opacity=".6" stroke="#000" stroke-width="2" stroke-linejoin="round"/><path d="M21 22.294q0-3.187 1.42-4.744 1.427-1.557 4.266-1.557.97 0 1.52.11v1.814q-.69-.147-1.365-.147-1.233 0-2.017.353-.775.352-1.163 1.042-.388.69-.458 1.961h.101q.768-1.248 2.46-1.248 1.52 0 2.38.903.862.903.862 2.497 0 1.718-1.024 2.724-1.024.999-2.84.999-1.256 0-2.195-.55-.93-.552-1.443-1.61Q21 23.785 21 22.295zm4.096 2.893q.768 0 1.18-.485.41-.492.41-1.395 0-.786-.388-1.234-.38-.455-1.155-.455-.73 0-1.25.448-.511.448-.511 1.043 0 .874.48 1.476.49.602 1.234.602z" fill="#aee3f8"/><path d="M4 5v22h2V17h10v10h2V5h-2v10H6V5z" fill="#fff"/></svg>