<svg xmlns="http://www.w3.org/2000/svg" viewBox="0 0 32 32"><path fill="#1463a5" d="M28 23v2H4v-2z"/><path fill="#1463a5" d="M7 4h2v24H7z"/><path d="M24.951 20A2 2 0 0023 22v2h-1v4h6v-4h-1v-2a2 2 0 00-2-2 2 2 0 00-.049 0zM25 21a1 1 0 011 1v2h-2v-2a1 1 0 011-1z" opacity=".6" fill-rule="evenodd" stroke="#000" stroke-width="2" stroke-linecap="round" stroke-linejoin="round"/><path d="M24.951 20A2 2 0 0023 22v2h-1v4h6v-4h-1v-2a2 2 0 00-2-2 2 2 0 00-.049 0zM25 21a1 1 0 011 1v2h-2v-2a1 1 0 011-1z" fill="#fee581" fill-rule="evenodd"/></svg>