<svg xmlns="http://www.w3.org/2000/svg" height="32" width="32"><circle cx="16" cy="16" r="13" fill="#1a7fd4"/><path d="M16.23 9.002h.001c-.643 0-1.25.072-1.824.214-.52.132-.981.312-1.407.52l.435 1.164c.83-.407 1.68-.63 2.551-.63.732 0 1.313.187 1.713.573.394.369.594.86.594 1.442 0 .363-.087.703-.262 1.013-.156.3-.36.587-.612.858-.247.265-.507.53-.78.796h-.002l-.003.002c-.267.245-.52.517-.762.815l-.001.001v.001c-.238.28-.435.586-.593.918a2.696 2.696 0 00-.214 1.09c0 .243.03.47.069.693h1.31c0-.027-.007-.051-.007-.08v-.217c0-.452.092-.863.28-1.226.181-.365.405-.697.671-.996l.002-.001v-.003c.263-.307.553-.6.87-.88a8.56 8.56 0 00.845-.857c.251-.295.463-.608.634-.94.167-.336.252-.716.252-1.146 0-.341-.058-.696-.177-1.067l-.001-.003v-.003a2.363 2.363 0 00-.58-1.01c-.284-.299-.666-.545-1.155-.736l-.003-.001-.003-.001c-.465-.2-1.08-.305-1.842-.305zm-.325 11.623c-.392 0-.678.116-.896.35-.224.241-.33.512-.33.838 0 .325.107.597.33.838.218.234.504.349.896.349.391 0 .677-.115.895-.35.224-.24.332-.512.332-.837 0-.326-.108-.597-.332-.837-.218-.235-.504-.35-.895-.35z" style="line-height:125%;-inkscape-font-specification:'Ubuntu Medium';text-align:center" font-weight="500" font-size="72.036" font-family="Ubuntu" letter-spacing="0" word-spacing="0" text-anchor="middle" fill="#fff"/><path d="M15.893 3A13 13 0 003 16a13 13 0 0013 13 13 13 0 0013-13A13 13 0 0016 3a13 13 0 00-.107 0zM16 4a12 12 0 0112 12 12 12 0 01-12 12A12 12 0 014 16 12 12 0 0116 4z" opacity=".6"/></svg>