<svg xmlns="http://www.w3.org/2000/svg" viewBox="0 0 32 32"><path d="M28 23c0-2-1-4-3-4H7c-2 0-3 2-3 4v8c0 2 1 4 3 4h18c2 0 3-2 3-4z" opacity=".6" stroke="#000" stroke-width="2"/><path d="M28 23c0-2-1-4-3-4H7c-2 0-3 2-3 4v8c0 2 1 4 3 4h18c2 0 3-2 3-4z" fill="#fff"/><path d="M28 1c0-2-1-4-3-4H7C5-3 4-1 4 1v8c0 2 1 4 3 4h18c2 0 3-2 3-4z" opacity=".6" stroke="#000" stroke-width="2"/><path d="M28 1c0-2-1-4-3-4H7C5-3 4-1 4 1v8c0 2 1 4 3 4h18c2 0 3-2 3-4z" fill="#fff"/><path d="M12 6l4 5 4-5zM12 26l4-5 4 5z" fill="#e95420" stroke="#e95420" stroke-width="2" stroke-linejoin="round"/></svg>