<svg xmlns="http://www.w3.org/2000/svg" viewBox="0 0 32 32"><path d="M28 16V6c0-2-1-2-3-2H7C5 4 4 4 4 6v13c0 2 1 2 3 2l6 6v-6h12c2 0 3 0 3-2z" opacity=".6" stroke="#000" stroke-width="2" stroke-linejoin="round"/><path d="M28 16V6c0-2-1-2-3-2H7C5 4 4 4 4 6v13c0 2 1 2 3 2l6 6v-6h12c2 0 3 0 3-2z" fill="#fa9381"/><rect width="14" height="1" x="9" y="9" ry=".5" fill="#fff"/><rect ry=".5" y="12" x="9" height="1" width="14" fill="#fff"/><rect width="14" height="1" x="9" y="15" ry=".5" fill="#fff"/><path d="M22.31 20.86a10 10 0 00-8.685 5.07A10 10 0 0022.311 31 10 10 0 0031 25.936l-.004-.006.004-.006a10 10 0 00-8.69-5.065z" opacity=".6" fill="#090909" stroke="#140c0c" stroke-width="2" stroke-linejoin="round"/><path d="M22.31 20.86a10 10 0 00-8.685 5.07A10 10 0 0022.311 31 10 10 0 0031 25.936l-.004-.006.004-.006a10 10 0 00-8.69-5.065z" fill="#fff"/><path d="M22.313 21.93a4 4 0 00-4 4 4 4 0 004 4 4 4 0 004-4 4 4 0 00-4-4zm0 1a3 3 0 013 3 3 3 0 01-3 3 3 3 0 01-3-3 3 3 0 013-3z" fill="#232629"/><path d="M22.313 23.93a2 2 0 00-2 2 2 2 0 002 2 2 2 0 002-2 2 2 0 00-.09-.588 1 1 0 01-.91.588 1 1 0 01-1-1 1 1 0 01.59-.91 2 2 0 00-.59-.09z" fill="#232629"/></svg>