<svg xmlns="http://www.w3.org/2000/svg" xmlns:xlink="http://www.w3.org/1999/xlink" viewBox="0 0 32 32"><defs><linearGradient y2="316.932" x2="702.214" y1="316.932" x1="609.786" gradientUnits="userSpaceOnUse" id="b" xlink:href="#a"/><linearGradient id="a"><stop offset="0" stop-color="#5884f4"/><stop offset=".308" stop-color="#5884f4"/><stop offset=".308" stop-color="#2f5fdd"/><stop offset=".692" stop-color="#2f5fdd"/><stop offset=".692" stop-color="#234db8"/><stop offset="1" stop-color="#234db8"/></linearGradient></defs><path d="M6.994 4c-1.258.014-2.179-.031-2.932.384a1.88 1.88 0 00-.837.998C3.06 5.822 3 6.342 3 7v18c0 .658.06 1.179.225 1.618.164.438.461.788.837.996.753.415 1.674.371 2.932.386h18.012c1.258-.014 2.179.031 2.932-.384a1.88 1.88 0 00.837-.998c.165-.44.225-.96.225-1.618V7c0-.658-.06-1.179-.225-1.618a1.875 1.875 0 00-.837-.996c-.753-.415-1.674-.371-2.932-.386H6.998z" style="line-height:125%;-inkscape-font-specification:Ubuntu;text-align:center" font-weight="400" font-size="15" font-family="Ubuntu" letter-spacing="0" word-spacing="0" text-anchor="middle" opacity=".6"/><path d="M11.983 5.027c-1.556.01-5.11-.012-6.66.039-.46.042-1.016.206-1.155.71-.219.635-.108 1.333-.146 1.981-.008 2.297-.023 15.597.022 17.886.039.462.202 1.013.699 1.164.632.225 1.284.123 1.936.154 1.424.007 4.85.011 6.276.012 1.704 0 11.408-.005 13.107-.019.512-.012 1.184.02 1.585-.405.421-.54.287-1.268.323-1.904.011-2.444.027-15.911-.022-18.357-.05-.402-.17-.863-.575-1.044-.669-.294-1.427-.168-2.126-.206-1.755-.012-11.51-.012-13.264-.011z" fill="#d85eca"/><path style="marker:none" d="M12 13L7 23h18l-6-7-3 3z" color="#000" overflow="visible" fill="#fff"/><path d="M24.02 10.884a2.014 2.014 0 01-1.91 2.113 2.014 2.014 0 01-2.113-1.909 2.014 2.014 0 011.909-2.114 2.014 2.014 0 012.114 1.908" fill="#fff"/><g stroke-width="9.714"><path d="M22.912 28.264L17 32l.28-6.987 1.12-1.877 5.631 3.252z" fill="#fee1c2"/><path style="marker:none" d="M17.09 29.777L17 32l1.88-1.189s.174-.143 0-.244c-.174-.1-.488.043-.488.043s.085-.357-.264-.559c-.35-.202-.617.05-.617.05s-.036-.345-.212-.447c-.176-.101-.21.123-.21.123z" color="#000" overflow="visible" fill="#5d5d5d"/><path d="M609.786 306.25c0-7.376 28.428-3.688 28.428 7.377 0-18.44 35.534-18.44 35.534 0 0-11.065 28.47-14.753 28.47-7.377V67.93h-92.432z" fill="url(#b)" transform="matrix(.06093 .03518 -.03815 .06608 -7.69 -17.541)"/></g></svg>