<svg xmlns="http://www.w3.org/2000/svg" height="32" width="32"><circle cx="16" cy="16" r="13" fill="#fa9381"/><path d="M16 9c-3.866 0-7 2.742-7 6.125.005 2.193 1.907 4.454 4.083 5.542v1.166h-2.916c-.695-.186-1.138-1.16-1.167-1.349V23h5.25v-2.251l-.11-.046c-1.533-.936-3.388-3.084-3.39-5.286 0-3.141 2.834-5.834 5.25-5.834s5.25 2.693 5.25 5.834c-.002 2.202-1.857 4.35-3.39 5.286l-.11.046V23H23v-2.516c-.029.188-.472 1.163-1.167 1.35h-2.916v-1.167c2.176-1.088 4.078-3.349 4.083-5.542C23 11.742 19.866 9 16 9z" fill="#fff"/><path d="M15.893 3A13 13 0 003 16a13 13 0 0013 13 13 13 0 0013-13A13 13 0 0016 3a13 13 0 00-.107 0zM16 4a12 12 0 0112 12 12 12 0 01-12 12A12 12 0 014 16 12 12 0 0116 4z" opacity=".6" fill-rule="evenodd"/></svg>