<svg xmlns="http://www.w3.org/2000/svg" viewBox="0 0 32 32"><path style="line-height:normal;font-variant-ligatures:normal;font-variant-position:normal;font-variant-caps:normal;font-variant-numeric:normal;font-variant-alternates:normal;font-variant-east-asian:normal;font-feature-settings:normal;font-variation-settings:normal;text-indent:0;text-align:start;text-decoration-line:none;text-decoration-style:solid;text-decoration-color:#000;text-transform:none;text-orientation:mixed;white-space:normal;shape-padding:0;shape-margin:0;inline-size:0;isolation:auto;mix-blend-mode:normal;solid-color:#000;solid-opacity:1" d="M8 18c-1.645 0-3 1.355-3 3v11h2V21c0-.571.429-1 1-1h16a.87.87 0 01.52.139l.119-.05c.7-.29 1.429.058 1.859.632.125-.169.246-.346.398-.475A3.008 3.008 0 0024 18z" color="#000" font-weight="400" font-family="sans-serif" overflow="visible" opacity=".7"/><path d="M8 19c-1.108 0-2 .892-2 2v11h16.826c-.358-.358-.491-.888-.414-1.416-.71.102-1.42-.17-1.71-.871l-.573-1.385c-.29-.7.018-1.396.592-1.826-.579-.431-.89-1.138-.6-1.836l.572-1.38c.29-.7 1.01-.978 1.723-.874-.102-.71.17-1.42.871-1.71l1.385-.573c.406-.168.804-.119 1.156.05A2 2 0 0024 19H8z" fill="#fff"/><path d="M24 12H8c-1.108 0-2-.892-2-2V0h20v10c0 1.108-.892 2-2 2z" opacity=".7" stroke="#000" stroke-width="2" stroke-linecap="round" stroke-linejoin="round"/><path d="M24 12H8c-1.108 0-1.934-.894-2-2V0h20v10c0 1.108-.892 2-2 2z" fill="#fff"/><path fill="#e97cc8" d="M24 15h4v1h-4zM19 15h4v1h-4zM14 15h4v1h-4zM9 15h4v1H9zM4 15h4v1H4z"/><g transform="matrix(1.23872 0 0 1.23872 2.342 2.342)" stroke-width=".807"><circle cx="19.5" cy="19.5" r="1.5" fill="#fff" fill-rule="evenodd"/><g transform="translate(8 8)"><circle cx="11.5" cy="11.5" r="1.5" fill="#fff" fill-rule="evenodd"/><path d="M9.311 7.792a.244.244 0 00-.135.325l.273.657c-.26.195-.472.424-.662.678l-.674-.279a.248.248 0 00-.329.136l-.462 1.115a.248.248 0 00.137.329l.673.279a3.312 3.312 0 00-.011.948l-.657.272a.244.244 0 00-.135.325l.463 1.117c.054.13.194.189.325.135l.657-.272c.195.26.424.471.678.662l-.279.673a.248.248 0 00.136.329l1.115.462a.248.248 0 00.329-.136l.279-.674c.314.045.626.057.948.012l.272.657c.054.13.195.188.325.134l1.117-.462a.244.244 0 00.135-.326l-.272-.657c.26-.195.471-.424.662-.678l.673.28a.248.248 0 00.329-.137l.462-1.115a.248.248 0 00-.136-.329l-.674-.279c.045-.314.057-.625.012-.947l.657-.273a.244.244 0 00.134-.325l-.462-1.117a.244.244 0 00-.326-.135l-.657.273a3.312 3.312 0 00-.678-.662l.28-.674a.248.248 0 00-.137-.329l-1.115-.462a.248.248 0 00-.329.137l-.279.673a3.312 3.312 0 00-.947-.011l-.273-.657a.244.244 0 00-.325-.135zm1.756 2.66a1.138 1.138 0 11.87 2.103 1.138 1.138 0 01-.87-2.104z" display="block" fill="#d3d3d3" stroke="#4d4d4d" stroke-linejoin="round" stroke-width=".484"/></g></g></svg>