<svg xmlns="http://www.w3.org/2000/svg" viewBox="0 0 32 32"><path d="M7 4c-1.258.014-2.179-.03-2.932.385a1.88 1.88 0 00-.838.998c-.164.438-.224.96-.224 1.617V25c0 .657.06 1.178.224 1.617.165.439.462.788.838.996.753.415 1.674.372 2.932.387h18.012c1.258-.015 2.179.03 2.931-.385a1.88 1.88 0 00.838-.998c.165-.439.225-.96.225-1.617V7c0-.658-.06-1.179-.225-1.617a1.875 1.875 0 00-.838-.996c-.752-.416-1.673-.372-2.931-.387H7.004z" style="line-height:125%;-inkscape-font-specification:Ubuntu;text-align:center" font-weight="400" font-size="15" font-family="Ubuntu" letter-spacing="0" word-spacing="0" text-anchor="middle" opacity=".6"/><path d="M11.99 5.027c-1.557.01-5.11-.012-6.66.039-.462.042-1.017.206-1.156.71-.219.635-.108 1.334-.146 1.982-.008 2.297-.023 15.596.022 17.886.039.462.202 1.012.698 1.163.633.226 1.285.123 1.936.155 1.425.007 4.851.01 6.277.011 1.704 0 11.408-.005 13.107-.018.512-.012 1.184.02 1.585-.406.42-.54.287-1.268.323-1.903.011-2.445.027-15.912-.022-18.358-.05-.402-.17-.862-.576-1.044-.668-.294-1.426-.168-2.125-.206-1.755-.011-11.51-.012-13.264-.011z" fill="#a6d74f"/><circle cy="26.5" cx="26.5" r="4.5" fill="#46a926"/><path overflow="visible" font-weight="400" style="line-height:normal;text-indent:0;text-align:start;text-decoration-line:none;text-decoration-style:solid;text-decoration-color:#000;text-transform:none;white-space:normal;isolation:auto;mix-blend-mode:normal;marker:none" d="M26 24v2h-2v1h2v2h1v-2h2v-1h-2v-2z" color="#000" font-family="sans-serif" fill="#fff"/><path d="M16 9v.006L9.5 21l-2.205-4H5v1h1.4l3.1 5.541L17 10h10V9z" fill="#4d4d4d"/><path d="M21.5 12a4.5 4.5 0 00-4.5 4.5 4.5 4.5 0 004.5 4.5 4.5 4.5 0 003.5-1.674V21h1v-9h-1v1.678A4.5 4.5 0 0021.5 12zm0 1a3.5 3.5 0 013.5 3.5 3.5 3.5 0 01-3.5 3.5 3.5 3.5 0 01-3.5-3.5 3.5 3.5 0 013.5-3.5z" fill="#4d4d4d"/></svg>