<svg xmlns="http://www.w3.org/2000/svg" viewBox="0 0 32 32"><path fill="#fff" d="M5 5h22v22H5z"/><path d="M12 28h13c2 0 3 0 3-2V6c0-2-1-2-3-2H12zm0-23v2zm1 0h6v2h-6zm7 0h5c1 0 2 0 2 1v1h-7zm-8 3v3zm1 0h6v3h-6zm7 0h7v3h-7zm-8 4v3zm1 0h6v3h-6zm7 0h7v3h-7zm-8 4v3zm1 0h6v3h-6zm7 0h7v3h-7zm-8 4v3zm1 0h6v3h-6zm7 0h7v3h-7zm-8 4v3zm1 0h6v3h-6zm7 0h7v2c0 1-1 1-2 1h-5z" fill="#6d6d6d"/><circle cy="26.5" cx="26.5" r="4.5" fill="#46a926"/><path overflow="visible" font-weight="400" style="line-height:normal;text-indent:0;text-align:start;text-decoration-line:none;text-decoration-style:solid;text-decoration-color:#000;text-transform:none;white-space:normal;isolation:auto;mix-blend-mode:normal;marker:none" d="M26 24v2h-2v1h2v2h1v-2h2v-1h-2v-2z" color="#000" font-family="sans-serif" fill="#fff"/><path d="M4 6v20c0 2 1 2 3 2h6V4H7C5 4 4 4 4 6zm1.77-1h3.128l2.776 2.379.326.281v2.682zm4.666 0H12v1.342zM5 5.658l6.674 5.72.326.282v2.682l-7-6zm0 4c2.333 2.001 4.668 4 7 6.002v2.682l-6.676-5.723L5 12.342zm0 4c2.225 1.907 4.449 3.815 6.674 5.72l.326.282v2.682c-2.334-1.999-4.665-4.003-7-6zm0 4l6.674 5.72.326.282v2.682l-7-6zm0 4L11.232 27h-3.13L5 24.342zm0 4L6.566 27C6 27 5 27 5 26z" fill="#46a926"/></svg>