<svg xmlns="http://www.w3.org/2000/svg" viewBox="0 0 32 32"><path d="M5.996 4c-1.258.014-2.18-.031-2.932.384a1.88 1.88 0 00-.838.998c-.164.44-.247.96-.224 1.618v18c0 .658.06 1.179.224 1.618.165.438.462.788.838.996.753.415 1.674.371 2.932.386h20.012c1.258-.014 2.178.031 2.931-.384a1.88 1.88 0 00.838-.998c.165-.44.231-.96.225-1.618V7c0-.658-.06-1.179-.225-1.618a1.875 1.875 0 00-.838-.996c-.753-.415-1.673-.371-2.932-.386H6z" style="line-height:125%;-inkscape-font-specification:Ubuntu;text-align:center" font-weight="400" font-size="15" font-family="Ubuntu" letter-spacing="0" word-spacing="0" text-anchor="middle" opacity=".6"/><path d="M10.985 5.027c-1.557.01-5.11-.012-6.66.039-.461.042-1.016.206-1.155.71-.22.635-.109 1.333-.146 1.981-.008 2.297-.023 15.597.021 17.886.04.462.203 1.013.7 1.164.632.225 1.283.123 1.935.154 1.424.007 4.85.011 6.277.012 1.704 0 13.408-.005 15.107-.019.512-.012 1.183.02 1.585-.405.42-.54.287-1.268.322-1.904.012-2.444.028-15.911-.022-18.357-.049-.402-.17-.863-.575-1.044-.668-.294-1.426-.168-2.126-.206a6024.49 6024.49 0 00-15.263-.011z" fill="#a6d74f"/><path d="M7.5 16.5h2l2 5 4-11h9" fill="none" stroke="#4d4d4d" stroke-linecap="round" stroke-linejoin="round"/><path d="M20.94 13A4 4 0 0017 17a4 4 0 004 4 4 4 0 003-1.355V21h1v-3.94a4 4 0 000-.06v-4h-1v1.355A4 4 0 0021 13a4 4 0 00-.06 0zm.007 1a3 3 0 01.002 0A3 3 0 0121 14a3 3 0 013 2.95 3 3 0 010 .05 3 3 0 01-3 3 3 3 0 01-3-3 3 3 0 012.947-3z" fill="#4d4d4d" fill-rule="evenodd"/></svg>