<svg xmlns="http://www.w3.org/2000/svg" viewBox="0 0 32 32"><path d="M4 9c0-2 1-2 3-2h6c1 0 2 1 3 2 1-1 2-2 3-2h6c2 0 3 0 3 2v14c0 2-1 2-3 2h-6c-1 0-2 1-3 2-1-1-2-2-3-2H7c-2 0-3 0-3-2z" opacity=".6" stroke="#000" stroke-width="2" stroke-linecap="round" stroke-linejoin="round"/><path d="M4 9c0-2 1-2 3-2h6c1 0 2 1 3 2 1-1 2-2 3-2h6c2 0 3 0 3 2v14c0 2-1 2-3 2h-6c-1 0-2 1-3 2-1-1-2-2-3-2H7c-2 0-3 0-3-2z" fill="#fff"/><path style="white-space:normal" d="M21 7h4v8l-4 2z" color="#000" font-weight="400" font-family="sans-serif" opacity=".6" fill="#090000"/><path fill="#fa9381" d="M7 10h5v1H7zM7 12h5v1H7zM7 14h5v1H7zM7 16h5v1H7zM7 18h5v1H7z"/><circle cy="25.5" cx="25.5" r="4.5" fill="#46a926"/><path overflow="visible" font-weight="400" style="line-height:normal;text-indent:0;text-align:start;text-decoration-line:none;text-decoration-style:solid;text-decoration-color:#000;text-transform:none;white-space:normal;isolation:auto;mix-blend-mode:normal;marker:none" d="M25 23v2h-2v1h2v2h1v-2h2v-1h-2v-2z" color="#000" font-family="sans-serif" fill="#fff"/></svg>