<svg xmlns="http://www.w3.org/2000/svg" viewBox="0 0 32 32"><path style="line-height:125%;-inkscape-font-specification:Ubuntu;text-align:center" d="M10.994 8c-1.258.014-2.179-.031-2.931.384a1.88 1.88 0 00-.838.998C7.06 9.821 7 10.342 7 11V26c0 .658.06 1.179.225 1.617.164.439.461.789.838.996.752.415 1.673.372 2.931.387h14.012c1.258-.015 2.179.03 2.932-.385a1.88 1.88 0 00.837-.998c.165-.438.225-.96.225-1.617V10.999c0-.657-.06-1.178-.225-1.617a1.875 1.875 0 00-.837-.996c-.753-.415-1.674-.372-2.932-.387H10.998z" font-weight="400" font-size="15" font-family="Ubuntu" letter-spacing="0" word-spacing="0" text-anchor="middle" opacity=".6"/><path d="M15.983 9.027c-1.556.01-5.11-.012-6.66.038-.46.043-1.016.207-1.155.71-.219.636-.108 1.334-.146 1.982-.008 2.297-.023 12.597.022 14.886.039.462.202 1.013.699 1.164.632.225 1.284.122 1.936.154 1.424.007 8.85.011 10.276.011 1.704 0 3.408-.005 5.107-.018.512-.012 1.184.02 1.585-.405.421-.54.287-1.268.323-1.904.012-2.444.027-12.911-.022-15.357-.05-.402-.17-.863-.575-1.044-.669-.295-1.427-.168-2.126-.206-1.755-.012-7.51-.012-9.264-.011z" fill="#fff"/><path d="M26 20v1h1v-1zm0 2v4h1v-4z" fill="#fa9381"/><path d="M7.01 3.973c-1.257.014-2.178-.03-2.93.385a1.88 1.88 0 00-.839.998c-.164.438-.224.96-.224 1.617v15c0 .658.06 1.179.224 1.618.165.438.462.788.838.996.753.415 1.674.371 2.932.386h14.012c1.258-.014 2.178.031 2.931-.384a1.88 1.88 0 00.838-.998c.165-.44.225-.96.225-1.618v-15c0-.658-.06-1.179-.225-1.617a1.875 1.875 0 00-.838-.996c-.753-.416-1.673-.372-2.932-.387H7.015z" style="line-height:125%;-inkscape-font-specification:Ubuntu;text-align:center" font-weight="400" font-size="15" font-family="Ubuntu" letter-spacing="0" word-spacing="0" text-anchor="middle" opacity=".6"/><path d="M12 5c-1.557.01-5.11-.012-6.66.039-.461.042-1.016.206-1.155.71-.22.635-.109 1.334-.146 1.982-.008 2.297-.023 12.596.021 14.885.04.462.203 1.013.7 1.164.632.225 1.283.123 1.935.154 1.424.007 8.85.011 10.277.012 1.704 0 3.408-.005 5.107-.019.512-.012 1.183.02 1.585-.405.42-.54.287-1.268.322-1.904.012-2.444.028-12.91-.022-15.357-.049-.402-.17-.863-.575-1.044-.668-.294-1.426-.168-2.126-.206C19.51 5 13.754 5 12 5z" fill="#fff"/><path d="M6 8v1h16V8zm0 4v1h16v-1zm0 4v1h16v-1z" fill="#232629"/><path fill="#fa9381" d="M6 20h16v1H6z"/></svg>