<svg xmlns="http://www.w3.org/2000/svg" viewBox="0 0 32 32"><path d="M5.994 4c-1.258.014-2.179-.03-2.931.385a1.88 1.88 0 00-.838.998C2.06 5.82 1.977 6.343 2 7V25c0 .657.06 1.178.225 1.617.164.439.461.788.838.996.752.415 1.673.372 2.931.387h20.012c1.258-.015 2.179.03 2.931-.385a1.88 1.88 0 00.838-.998c.165-.439.232-.96.225-1.617V7c0-.658-.06-1.179-.225-1.617a1.875 1.875 0 00-.837-.996c-.753-.416-1.674-.372-2.932-.387H5.998z" style="line-height:125%;-inkscape-font-specification:Ubuntu;text-align:center" font-weight="400" font-size="15" font-family="Ubuntu" letter-spacing="0" word-spacing="0" text-anchor="middle" opacity=".6"/><path d="M10.983 5.027c-1.556.01-5.11-.012-6.66.039-.46.042-1.016.206-1.155.71-.219.635-.108 1.334-.146 1.982-.008 2.297-.023 15.596.022 17.886.039.462.202 1.012.699 1.163.632.226 1.284.123 1.936.155 1.424.007 4.85.01 6.276.011 1.704 0 13.408-.005 15.107-.018.512-.012 1.184.02 1.585-.406.42-.54.287-1.268.323-1.903.011-2.445.027-15.912-.022-18.358-.05-.402-.17-.862-.575-1.044-.669-.294-1.427-.168-2.126-.206a6024.49 6024.49 0 00-15.264-.011z" fill="#d85eca"/><path d="M22 9a2 2 0 100 4 2 2 0 000-4zM13 13.5L8 23h14l-4.5-8-2 2.5z" style="marker:none" color="#000" overflow="visible" fill="#fff"/></svg>