<svg xmlns="http://www.w3.org/2000/svg" viewBox="0 0 32 32"><rect height="24" rx="1.2" width="24" x="4" y="4" fill="#f4843f"/><path d="M16.436 8.004c-.54-.078-.453.422-.445.773-.006 4.17.012 6.34-.008 10.508-.145.325-.553.01-.802.073-1.734-.054-3.601 1.194-3.847 3.03-.253 1.379 1.033 2.593 2.322 2.615 1.918.052 3.578-1.879 3.334-3.815.007-3.328-.013-4.66.01-7.986.131-.316.486-.018.651.095 1.521.92 2.85 2.446 2.945 4.328.081 1.088-.147 2.173-.46 3.207 1.398-2.3 1.322-5.504-.406-7.606-1.33-1.388-2.58-3.045-2.833-5.03-.05-.187-.307-.185-.46-.192z" opacity=".3" fill="#a62100"/><path d="M16.436 7.004c-.54-.077-.453.422-.445.773-.006 4.17.012 6.341-.008 10.509-.145.324-.553.01-.802.072-1.734-.054-3.601 1.195-3.847 3.03-.253 1.38 1.033 2.593 2.322 2.615 1.918.053 3.578-1.879 3.334-3.814.007-3.329-.013-4.66.01-7.986.131-.317.486-.019.651.094 1.521.92 2.85 2.446 2.945 4.328.081 1.089-.147 2.173-.46 3.207 1.398-2.3 1.322-5.503-.406-7.605-1.33-1.388-2.58-3.045-2.833-5.031-.05-.187-.307-.184-.46-.192z" fill="#fff5ef"/></svg>