<svg xmlns="http://www.w3.org/2000/svg" xmlns:xlink="http://www.w3.org/1999/xlink" height="32" width="32"><defs><linearGradient id="a"><stop offset="0" stop-color="#151515"/><stop offset="1" stop-color="#4d4d4d"/></linearGradient><linearGradient xlink:href="#a" id="b" x1="16" y1="4" x2="16" y2="28" gradientUnits="userSpaceOnUse"/></defs><path d="M15.928 4C9.88 4.038 5 8.728 5 14.5c0 4.325 2.779 8.208 7 9.781V26H7c-1 0-2 0-3-2v4h10v-5.271c-3.532-.97-6-4.354-6-8.229C8 9.806 11.582 6 16 6s8 3.806 8 8.5c0 3.876-2.468 7.261-6 8.23V28h10v-4c-1 2-2 2-3 2h-5v-1.719c4.221-1.573 7-5.456 7-9.781C27 8.701 22.075 4 16 4h-.072z" fill-rule="evenodd" stroke-width="2" stroke-linecap="round" stroke-linejoin="round" stroke="#fff"/><path d="M15.928 4C9.88 4.038 5 8.728 5 14.5c0 4.325 2.779 8.208 7 9.781V26H7c-1 0-2 0-3-2v4h10v-5.271c-3.532-.97-6-4.354-6-8.229C8 9.806 11.582 6 16 6s8 3.806 8 8.5c0 3.876-2.468 7.261-6 8.23V28h10v-4c-1 2-2 2-3 2h-5v-1.719c4.221-1.573 7-5.456 7-9.781C27 8.701 22.075 4 16 4h-.072z" fill="url(#b)" fill-rule="evenodd"/></svg>