<svg xmlns="http://www.w3.org/2000/svg" xmlns:xlink="http://www.w3.org/1999/xlink" viewBox="0 0 32 32"><defs><linearGradient xlink:href="#a" id="b" x1="17" y1="5" x2="17" y2="27" gradientUnits="userSpaceOnUse"/><linearGradient id="a"><stop offset="0" stop-color="#151515"/><stop offset="1" stop-color="#4d4d4d"/></linearGradient></defs><path d="M6.728 17.854a5.245 5.245 0 107.418 7.418l4.636-4.636a5.245 5.245 0 000-7.418 5.233 5.233 0 00-2.35-1.36l-1.144 1.145c.936.05 1.852.428 2.566 1.143a3.934 3.934 0 010 5.563l-4.636 4.636a3.934 3.934 0 11-5.563-5.563L10.437 16v-1.854zm6.49-6.49a5.245 5.245 0 000 7.418 5.193 5.193 0 002.355 1.354L16.71 19a3.934 3.934 0 01-2.564-6.708l4.636-4.636a3.934 3.934 0 015.563 5.563L21.563 16v1.854l3.71-3.708a5.245 5.245 0 00-7.419-7.418z" fill="#100000" stroke="#fff" stroke-width="2.623" stroke-linecap="round" stroke-linejoin="round"/><path d="M21.563 5.191a5.23 5.23 0 00-3.71 1.538l-4.634 4.634a5.245 5.245 0 000 7.418 5.193 5.193 0 002.353 1.356l1.139-1.139a3.933 3.933 0 01-2.564-6.707l4.634-4.637a3.935 3.935 0 015.565 5.565L21.562 16v1.854l3.71-3.708a5.245 5.245 0 00-3.71-8.955zm-5.131 6.668l-1.145 1.145c.936.05 1.852.428 2.567 1.142a3.933 3.933 0 010 5.563l-4.635 4.637a3.935 3.935 0 01-5.565-5.565L10.438 16v-1.854l-3.71 3.708a5.245 5.245 0 007.418 7.417l4.635-4.634a5.245 5.245 0 00-2.35-8.778z" fill="url(#b)"/><g transform="matrix(1.23872 0 0 1.23872 1.342 1.342)" stroke-width=".807"><circle cx="19.5" cy="19.5" r="1.5" fill="#fff" fill-rule="evenodd"/><g transform="translate(8 8)"><circle cx="11.5" cy="11.5" r="1.5" fill="#fff" fill-rule="evenodd"/><path d="M9.311 7.792a.244.244 0 00-.135.325l.273.657c-.26.195-.472.424-.662.678l-.674-.279a.248.248 0 00-.329.136l-.462 1.115a.248.248 0 00.137.329l.673.279a3.312 3.312 0 00-.011.948l-.657.272a.244.244 0 00-.135.325l.463 1.117c.054.13.194.189.325.135l.657-.272c.195.26.424.471.678.662l-.279.673a.248.248 0 00.136.329l1.115.462a.248.248 0 00.329-.136l.279-.674c.314.045.626.057.948.012l.272.657c.054.13.195.188.325.134l1.117-.462a.244.244 0 00.135-.326l-.272-.657c.26-.195.471-.424.662-.678l.673.28a.248.248 0 00.329-.137l.462-1.115a.248.248 0 00-.136-.329l-.674-.279c.045-.314.057-.625.012-.947l.657-.273a.244.244 0 00.134-.325l-.462-1.117a.244.244 0 00-.326-.135l-.657.273a3.312 3.312 0 00-.678-.662l.28-.674a.248.248 0 00-.137-.329l-1.115-.462a.248.248 0 00-.329.137l-.279.673a3.312 3.312 0 00-.947-.011l-.273-.657a.244.244 0 00-.325-.135zm1.756 2.66a1.138 1.138 0 11.87 2.103 1.138 1.138 0 01-.87-2.104z" display="block" fill="#d3d3d3" stroke="#4d4d4d" stroke-linejoin="round" stroke-width=".484"/></g></g></svg>