<svg xmlns="http://www.w3.org/2000/svg" xmlns:xlink="http://www.w3.org/1999/xlink" viewBox="0 0 32 32"><path style="line-height:normal;font-variant-ligatures:normal;font-variant-position:normal;font-variant-caps:normal;font-variant-numeric:normal;font-variant-alternates:normal;font-variant-east-asian:normal;font-feature-settings:normal;font-variation-settings:normal;text-indent:0;text-align:start;text-decoration-line:none;text-decoration-style:solid;text-decoration-color:#000;text-transform:none;text-orientation:mixed;white-space:normal;shape-padding:0;shape-margin:0;inline-size:0;isolation:auto;mix-blend-mode:normal;solid-color:#000;solid-opacity:1" d="M20 3a1 1 0 00-.928.629l-6 15A1 1 0 0014 20h1.072a7 7 0 01.604-2h-.2l5.202-13h1.644l4.3 10.742A7 7 0 0128.927 20H29a1 1 0 00.928-1.371l-6-15A1 1 0 0023 3h-3zm1.465 3.002a1 1 0 00-.906.662l-2.5 7a1 1 0 00.507 1.236A7 7 0 0122 14a7 7 0 012.807.588 1 1 0 00.134-.924l-2.5-7a1 1 0 00-.976-.662zm.035 3.97L22.582 13h-2.164L21.5 9.973zM18.25 15a1 1 0 00-.924.615l-.117.283A7 7 0 0118.396 15h-.146z" color="#000" font-weight="400" font-family="sans-serif" overflow="visible" fill="#fff"/><path d="M20 4l-6 15h1.293a7 7 0 016.613-5H19l2.5-7 2.5 7h-2a7 7 0 016.707 5H29L23 4h-3z" fill="url(#a)"/><path style="line-height:normal;font-variant-ligatures:normal;font-variant-position:normal;font-variant-caps:normal;font-variant-numeric:normal;font-variant-alternates:normal;font-variant-east-asian:normal;font-feature-settings:normal;font-variation-settings:normal;text-indent:0;text-align:start;text-decoration-line:none;text-decoration-style:solid;text-decoration-color:#000;text-transform:none;text-orientation:mixed;white-space:normal;shape-padding:0;shape-margin:0;inline-size:0;isolation:auto;mix-blend-mode:normal;solid-color:#000;solid-opacity:1" d="M11.416 10c-.77 0-1.54.29-2.121.871L7.88 12.285a3.018 3.018 0 000 4.244l7.07 7.07c.238.239.513.415.801.555A7 7 0 0115 21a7 7 0 01.004-.176l-5.71-5.709a.979.979 0 010-1.416l1.415-1.414a.976.976 0 011.414 0l4.38 4.381a7 7 0 011.45-1.379l-4.416-4.416A2.99 2.99 0 0011.416 10z" color="#000" font-weight="400" font-family="sans-serif" overflow="visible" fill-rule="evenodd" opacity=".7"/><path d="M10.086 20.672c-.615-.076-1.056.365-1.498.807l-.707.707L9.295 23.6c.707-.707.707-.707 1.414 0l4.95 4.95c1.413 1.415 2.12.708 2.827 0l1.014-1.013a7 7 0 01-1.81-1.023c-.602.597-.656.583-1.325-.086l-4.949-4.95c-.53-.53-.961-.76-1.33-.806z" fill="#6d6d6d"/><path d="M7.88 22.186L9.295 23.6c.707.707.707.707-1.415 2.829l-3.535 3.535c-1.414 1.414-1.414 1.414-2.828 0-1.415-1.414-1.415-1.414 0-2.828L5.052 23.6c2.121-2.121 2.121-2.121 2.828-1.414z" fill="#fa9381"/><path d="M11.416 10.992c-.511 0-1.022.196-1.414.588l-1.414 1.414a1.995 1.995 0 000 2.828l6.547 6.547A7 7 0 0115 21a7 7 0 012.178-5.072L12.83 11.58a1.994 1.994 0 00-1.414-.588z" fill="#fff" fill-rule="evenodd"/><defs><linearGradient xlink:href="#b" id="a" x1="23" y1="4" x2="23" y2="19" gradientUnits="userSpaceOnUse"/><linearGradient id="b"><stop offset="0" stop-color="#151515"/><stop offset="1" stop-color="#4d4d4d"/></linearGradient></defs><g color="#000" stroke="#6d6d6d" transform="rotate(-45 21.505 19.79)"><circle style="marker:none" cx="29.698" transform="rotate(45)" r="5.503" overflow="visible" fill="#fff" fill-opacity=".97"/><path style="marker:none" d="M21 33v-5.262" overflow="visible" fill="none" stroke-width="1.939" stroke-linecap="round"/></g></svg>