<svg xmlns="http://www.w3.org/2000/svg" viewBox="0 0 32 32"><rect y="11" x="4" height="7" width="5" ry="1" opacity=".6"/><path fill="#fff" d="M6 13h1v3H6z"/><rect width="7" height="7" x="2" y="19" ry="1" opacity=".6"/><path d="M3 20v1h1v3H3v1h5v-1H7v-3h1v-1zm2 1h1v3H5z" fill="#fff"/><rect width="3" height="1" x="5" y="12" ry="0" fill="#fff"/><path fill="#fff" d="M5 16h3v1H5z"/><path d="M16 28c-2 0-4-1-4-3V7c0-2 2-3 4-3h6l7 7v14c0 2-2 3-4 3z" opacity=".6" stroke="#000" stroke-width="2"/><path d="M16 28c-2 0-4-1-4-3V7c0-2 2-3 4-3h6l7 7v14c0 2-2 3-4 3z" fill="#fff"/><path d="M22 11V4l7 7z" fill="#6d6d6d"/><path fill="#924d8b" d="M27 13H14v2h13zM27 21H14v2h13z"/></svg>