<svg xmlns="http://www.w3.org/2000/svg" viewBox="0 0 32 32"><path d="M6 5v1h1V5zm20.293 0l-20 20H6v1h1v-.293l20-20L26.293 5zM6 7v1h1V7zm0 2v1h1V9zm0 2v1h1v-1zm0 2v1h1v-1zm0 2v1h1v-1zm0 2v1h1v-1zm0 2v1h1v-1zm0 2v1h1v-1zm0 2v1h1v-1zm-2 2v1h1v-1zm4 0v1h1v-1zm2 0v1h1v-1zm2 0v1h1v-1zm2 0v1h1v-1zm2 0v1h1v-1zm2 0v1h1v-1zm2 0v1h1v-1zm2 0v1h1v-1zm2 0v1h1v-1zm2 0v1h1v-1zM6 27v1h1v-1z" stroke="#000" opacity=".6" stroke-width="2" stroke-linejoin="round"/><path d="M6 5v1h1V5zm20.293 0l-20 20H6v1h1v-.293l20-20L26.293 5zM6 7v1h1V7zm0 2v1h1V9zm0 2v1h1v-1zm0 2v1h1v-1zm0 2v1h1v-1zm0 2v1h1v-1zm0 2v1h1v-1zm0 2v1h1v-1zm0 2v1h1v-1zm-2 2v1h1v-1zm4 0v1h1v-1zm2 0v1h1v-1zm2 0v1h1v-1zm2 0v1h1v-1zm2 0v1h1v-1zm2 0v1h1v-1zm2 0v1h1v-1zm2 0v1h1v-1zm2 0v1h1v-1zm2 0v1h1v-1zM6 27v1h1v-1z" fill="#fff"/></svg>