<svg xmlns="http://www.w3.org/2000/svg" viewBox="0 0 32 32"><path d="M11.723 4C9.946 4 9 4.706 9 6.51V8.95L8.998 9H9v3.596C9 13.71 8.966 15 7.985 15H7v2h.985C8.966 17 9 18.29 9 19.404V23h-.002l.002.049v2.441c0 1.804.946 2.51 2.723 2.51H12v-2c-1.185 0-1-.478-1-2.21v-5.384c0-.83-.205-2.067-1.203-2.58.998-.513 1.203-1.75 1.203-2.582V8.211C11 6.478 10.815 6 12 6V4z" opacity=".7" stroke="#000" stroke-width="2" stroke-linejoin="round"/><path d="M11.723 4C9.946 4 9 4.706 9 6.51V8.95L8.998 9H9v3.596C9 13.71 8.966 15 7.985 15H7v2h.985C8.966 17 9 18.29 9 19.404V23h-.002l.002.049v2.441c0 1.804.946 2.51 2.723 2.51H12v-2c-1.185 0-1-.478-1-2.21v-5.384c0-.83-.205-2.067-1.203-2.58.998-.513 1.203-1.75 1.203-2.582V8.211C11 6.478 10.815 6 12 6V4z" fill="#fff"/><path d="M20.277 4C22.054 4 23 4.706 23 6.51V8.95l.002.049H23v3.596C23 13.71 23.034 15 24.015 15H25v2h-.985C23.034 17 23 18.29 23 19.404V23h.002l-.002.049v2.441c0 1.804-.946 2.51-2.723 2.51H20v-2c1.185 0 1-.478 1-2.21v-5.384c0-.83.205-2.067 1.203-2.58-.998-.513-1.203-1.75-1.203-2.582V8.211C21 6.478 21.185 6 20 6V4z" opacity=".7" stroke="#000" stroke-width="2" stroke-linejoin="round"/><path d="M20.277 4C22.054 4 23 4.706 23 6.51V8.95l.002.049H23v3.596C23 13.71 23.034 15 24.015 15H25v2h-.985C23.034 17 23 18.29 23 19.404V23h.002l-.002.049v2.441c0 1.804-.946 2.51-2.723 2.51H20v-2c1.185 0 1-.478 1-2.21v-5.384c0-.83.205-2.067 1.203-2.58-.998-.513-1.203-1.75-1.203-2.582V8.211C21 6.478 21.185 6 20 6V4z" fill="#fff"/></svg>