<svg xmlns="http://www.w3.org/2000/svg" height="32" width="32"><linearGradient id="a"><stop offset="0"/><stop offset="1" stop-opacity="0"/></linearGradient><path d="M6.212 2.526a2.664 2.664 0 00-2.666 2.667L3.51 27.518l24.977-.013V5.177c0-1.478-1.22-2.677-2.697-2.675z" fill="#fff" stroke="#8c8c8c"/><path d="M27.37 8.008l.13-2.828c.035-.738-.813-1.553-1.552-1.552L6.306 3.64c-.74 0-1.708.94-1.708 2.334V8.64" fill="none" opacity=".8" stroke="#fff"/><path d="M4.036 10.008h24L28 27H4z" fill="#fff"/><path d="M4 9.498h24" fill="none" stroke="#a0a0a0"/><path d="M18 5h2v2h-2zM21 5h2v2h-2z" opacity=".7"/><path d="M24 5h2v2h-2z" fill="red"/><path d="M4 10.513h24" fill="none" opacity=".05" stroke="#000"/><path d="M1 10v6h30v-6h-1zm1 1h28v4H2z" fill="#d85eca"/><path d="M2 11h28v4H2z" fill="#ebaee4"/></svg>