<svg xmlns="http://www.w3.org/2000/svg" viewBox="0 0 32 32"><path style="line-height:normal;font-variant-ligatures:normal;font-variant-position:normal;font-variant-caps:normal;font-variant-numeric:normal;font-variant-alternates:normal;font-variant-east-asian:normal;font-feature-settings:normal;font-variation-settings:normal;text-indent:0;text-align:start;text-decoration-line:none;text-decoration-style:solid;text-decoration-color:#000;text-transform:none;text-orientation:mixed;white-space:normal;shape-padding:0;shape-margin:0;inline-size:0;isolation:auto;mix-blend-mode:normal;solid-color:#000;solid-opacity:1" d="M10 3c-1.167 0-2.341.276-3.305.918C5.732 4.56 5 5.667 5 7v13.283c.185.12.357.262.496.447.176-.237.342-.495.606-.603.279-.115.59-.152.898-.096V7c0-.667.268-1.06.805-1.418C8.34 5.224 9.167 5 10 5h8.586L25 11.414V25c0 .667-.268 1.06-.805 1.418-.536.358-1.362.582-2.195.582H11.723c.255.392.353.864.156 1.34l-.274.66H22c1.167 0 2.341-.276 3.305-.918C26.268 27.44 27 26.333 27 25V10.586L19.414 3H10z" color="#000" font-weight="400" font-family="sans-serif" overflow="visible" opacity=".7"/><path d="M10 4C8 4 6 5 6 7v13.186c.033-.021.065-.044.102-.059.38-.157.818-.169 1.23.002l1.383.57c.698.29.977 1.01.873 1.723.71-.102 1.42.172 1.71.873l.573 1.385c.29.699-.02 1.396-.596 1.826.484.36.78.913.694 1.494H22c2 0 4-1 4-3V11l-7-7h-9z" fill="#fff"/><path d="M19 11V4l7 7z" fill="#6d6d6d"/><path style="line-height:125%;-inkscape-font-specification:Ubuntu;text-align:center" d="M14.037 13.96c-1.258.016-2.179-.027-2.932.388a1.875 1.875 0 00-.837.996c-.165.438-.225.96-.225 1.617V22.418c.54.05 1.028.328 1.256.877l.572 1.385c.29.699-.02 1.396-.596 1.826.578.43.894 1.134.604 1.834l-.572 1.38-.006.01c.717.316 1.58.296 2.736.31H26.05c1.258-.016 2.179.027 2.931-.388.377-.207.674-.557.838-.996.165-.438.225-.96.225-1.617V16.961c0-.658-.06-1.179-.225-1.617a1.88 1.88 0 00-.838-.998c-.752-.416-1.673-.37-2.931-.385H14.037z" font-weight="400" font-size="15" font-family="Ubuntu" letter-spacing="0" word-spacing="0" text-anchor="middle" opacity=".7"/><path d="M21.06 14.988c-1.754 0-5.509 0-7.263.012-.7.038-1.457-.089-2.125.205-.405.182-.527.643-.576 1.045-.032 1.564-.033 4.195-.03 6.672.092.108.173.229.233.373l.572 1.385c.29.699-.02 1.396-.596 1.826.578.43.894 1.134.604 1.834l-.188.453c.391.199.889.19 1.291.2 3.12.024 10.256.022 13.383.007.652-.032 1.303.07 1.936-.154.496-.151.66-.702.699-1.164.044-2.29.03-7.666.021-9.963-.037-.648.073-1.345-.146-1.98-.14-.504-.693-.669-1.154-.712-1.55-.05-5.104-.028-6.66-.039z" fill="#aee3f8"/><path style="line-height:125%;-inkscape-font-specification:Ubuntu;text-align:center" d="M23.908 16c.81.009 1.423.012 1.937.07.513.06.98.182 1.333.533.352.35.475.822.53 1.333.039.362.046.854.048 1.536l1.288-.778v1.213l-7.714 5.522L23.9 28s-3.502-1.58-5.143-2.571c-2.55-1.54-6.147-4.288-7.714-5.495v-1.24l1.288.778c.002-.682.01-1.174.048-1.536.054-.51.177-.982.53-1.333.352-.351.82-.474 1.333-.533.513-.059 2.413-.06 3.222-.07h6.439zm-.007 1h-6.429c-.806.01-2.69.018-3.08.063-.394.045-.527.12-.573.166-.046.045-.12.17-.161.557-.04.38-.043 1.655-.043 2.46l6.431 3.88 6.426-3.88c0-.805-.002-2.08-.042-2.46-.042-.387-.115-.512-.161-.557-.046-.046-.177-.121-.57-.166-.392-.045-.991-.054-1.798-.063z" font-weight="400" font-size="15" font-family="Ubuntu" letter-spacing="0" word-spacing="0" text-anchor="middle" opacity=".7"/><path d="M22.105 16.938c1.322.04 2.661-.048 3.973.108.603.151.375.675.457 1.122-.015.624.116 1.574-.016 2.172-2.154 1.247-4.223 2.649-6.437 3.787-.426-.009-.77-.417-1.16-.573-1.784-1.051-3.55-2.131-5.325-3.198-.131-.746-.026-1.63-.032-2.403-.025-.397.118-.94.611-.929 2.64-.11 5.287-.08 7.93-.086z" fill="#fff"/><path style="line-height:normal;font-variant-ligatures:normal;font-variant-position:normal;font-variant-caps:normal;font-variant-numeric:normal;font-variant-alternates:normal;font-feature-settings:normal;text-indent:0;text-align:start;text-decoration-line:none;text-decoration-style:solid;text-decoration-color:#000;text-transform:none;text-orientation:mixed;white-space:normal;shape-padding:0;isolation:auto;mix-blend-mode:normal;marker:none" d="M24.044 19v1h-8v-1z" color="#000" font-weight="400" font-family="sans-serif" overflow="visible" fill="#a7a7f1"/><g transform="matrix(1.23872 0 0 1.23872 -18.658 2.342)" stroke-width=".807"><circle cx="19.5" cy="19.5" r="1.5" fill="#fff" fill-rule="evenodd"/><g transform="translate(8 8)"><circle cx="11.5" cy="11.5" r="1.5" fill="#fff" fill-rule="evenodd"/><path d="M9.311 7.792a.244.244 0 00-.135.325l.273.657c-.26.195-.472.424-.662.678l-.674-.279a.248.248 0 00-.329.136l-.462 1.115a.248.248 0 00.137.329l.673.279a3.312 3.312 0 00-.011.948l-.657.272a.244.244 0 00-.135.325l.463 1.117c.054.13.194.189.325.135l.657-.272c.195.26.424.471.678.662l-.279.673a.248.248 0 00.136.329l1.115.462a.248.248 0 00.329-.136l.279-.674c.314.045.626.057.948.012l.272.657c.054.13.195.188.325.134l1.117-.462a.244.244 0 00.135-.326l-.272-.657c.26-.195.471-.424.662-.678l.673.28a.248.248 0 00.329-.137l.462-1.115a.248.248 0 00-.136-.329l-.674-.279c.045-.314.057-.625.012-.947l.657-.273a.244.244 0 00.134-.325l-.462-1.117a.244.244 0 00-.326-.135l-.657.273a3.312 3.312 0 00-.678-.662l.28-.674a.248.248 0 00-.137-.329l-1.115-.462a.248.248 0 00-.329.137l-.279.673a3.312 3.312 0 00-.947-.011l-.273-.657a.244.244 0 00-.325-.135zm1.756 2.66a1.138 1.138 0 11.87 2.103 1.138 1.138 0 01-.87-2.104z" display="block" fill="#d3d3d3" stroke="#4d4d4d" stroke-linejoin="round" stroke-width=".484"/></g></g></svg>