<svg xmlns="http://www.w3.org/2000/svg" viewBox="0 0 32 32"><path d="M6.994 3c-1.258.014-2.179-.03-2.932.384a1.88 1.88 0 00-.837.999C3.06 4.82 3 5.343 3 6v20c0 .658.06 1.179.225 1.617.164.44.461.789.837.997.753.415 1.674.371 2.932.386h18.012c1.258-.014 2.179.03 2.932-.384a1.88 1.88 0 00.837-.999c.165-.438.225-.96.225-1.617V6c0-.658-.06-1.179-.225-1.617a1.875 1.875 0 00-.837-.997c-.753-.415-1.674-.371-2.932-.386H6.998z" style="line-height:125%;-inkscape-font-specification:Ubuntu;text-align:center" font-weight="400" font-size="15" font-family="Ubuntu" letter-spacing="0" word-spacing="0" text-anchor="middle" opacity=".6"/><path d="M19.983 4.027c-1.556.01-13.11-.012-14.66.039-.46.042-1.016.206-1.155.71-.219.635-.108 1.333-.146 1.982-.008 2.297-.023 17.596.022 19.885.039.462.202 1.013.699 1.164.632.225 1.284.123 1.936.154 1.424.007 12.85.011 14.276.012 1.704 0 3.408-.005 5.107-.019.512-.012 1.184.02 1.585-.405.421-.54.287-1.268.323-1.904.011-2.444.027-17.911-.022-20.357-.05-.402-.17-.863-.575-1.044-.669-.294-1.427-.168-2.126-.206a715.985 715.985 0 00-5.264-.011z" fill="#d85eca"/><path d="M11 9c-1.662 0-3 1.338-3 3v1c0 1.662 1.338 3 3 3h1c1.662 0 3-1.338 3-3v-1c0-1.662-1.338-3-3-3h-1zm.285 2h.43c.712 0 1.285.573 1.285 1.285v.43c0 .712-.573 1.285-1.285 1.285h-.43A1.282 1.282 0 0110 12.715v-.43c0-.712.573-1.285 1.285-1.285zM20 16c-1.662 0-3 1.338-3 3v1c0 1.662 1.338 3 3 3h1c1.662 0 3-1.338 3-3v-1c0-1.662-1.338-3-3-3zm.285 2h.43c.712 0 1.285.573 1.285 1.285v.43c0 .712-.573 1.285-1.285 1.285h-.43A1.282 1.282 0 0119 19.715v-.43c0-.712.573-1.285 1.285-1.285z" fill="#fff"/><rect width="2" height="16" x="21.627" y="-8" ry="1.143" transform="rotate(45)" fill="#fff"/></svg>