<svg xmlns="http://www.w3.org/2000/svg" viewBox="0 0 32 32"><circle cx="16" cy="16" r="13" fill="#46a926"/><path style="line-height:normal;font-variant-ligatures:normal;font-variant-position:normal;font-variant-caps:normal;font-variant-numeric:normal;font-variant-alternates:normal;font-feature-settings:normal;text-indent:0;text-align:start;text-decoration-line:none;text-decoration-style:solid;text-decoration-color:#000;text-transform:none;text-orientation:mixed;white-space:normal;shape-padding:0;isolation:auto;mix-blend-mode:normal;solid-color:#000;solid-opacity:1;marker:none" d="M22.488 10.518L14 19l-4.951-4.948-1.416 1.415L14 21.828l9.904-9.895z" color="#000" font-weight="400" font-family="sans-serif" overflow="visible" fill="#fff"/><path d="M15.893 3A13 13 0 003 16a13 13 0 0013 13 13 13 0 0013-13A13 13 0 0016 3a13 13 0 00-.107 0zM16 4a12 12 0 0112 12 12 12 0 01-12 12A12 12 0 014 16 12 12 0 0116 4z" fill-rule="evenodd" opacity=".6"/></svg>