<svg xmlns="http://www.w3.org/2000/svg" viewBox="0 0 32 32"><path d="M5 8c0-.592.062-1.006.16-1.266s.203-.371.386-.472c.366-.203 1.195-.247 2.459-.262h6.531l3.086 3h6.371c1.264.015 2.092.06 2.46.262.182.1.287.212.385.472.098.26.162.674.162 1.266v11c0 .592-.063 1.006-.16 1.266-.098.26-.203.371-.386.472-.366.202-1.193.247-2.453.262H8c-1.26-.015-2.087-.06-2.453-.262-.183-.1-.29-.212-.386-.472C5.063 23.006 5 22.592 5 22v-8z" style="line-height:normal;font-variant-ligatures:none;font-variant-position:normal;font-variant-caps:normal;font-variant-numeric:normal;font-variant-alternates:normal;font-feature-settings:normal;text-indent:0;text-align:start;text-decoration-line:none;text-decoration-style:solid;text-decoration-color:#000;text-transform:none;white-space:normal;shape-padding:0;isolation:auto;mix-blend-mode:normal;marker:none" color="#000" font-weight="400" font-family="sans-serif" overflow="visible" opacity=".6" stroke="#000" stroke-width="2" stroke-linejoin="round"/><path style="line-height:normal;font-variant-ligatures:none;font-variant-position:normal;font-variant-caps:normal;font-variant-numeric:normal;font-variant-alternates:normal;font-feature-settings:normal;text-indent:0;text-align:start;text-decoration-line:none;text-decoration-style:solid;text-decoration-color:#000;text-transform:none;white-space:normal;shape-padding:0;isolation:auto;mix-blend-mode:normal;marker:none" d="M5 8c0-.592.062-1.006.16-1.266s.203-.371.386-.472c.366-.203 1.195-.247 2.459-.262h6.531l3.086 3h6.371c1.264.015 2.092.06 2.46.262.182.1.287.212.385.472.098.26.162.674.162 1.266v11c0 .592-.063 1.006-.16 1.266-.098.26-.203.371-.386.472-.366.202-1.193.247-2.453.262H8c-1.26-.015-2.087-.06-2.453-.262-.183-.1-.29-.212-.386-.472C5.063 23.006 5 22.592 5 22v-8z" color="#000" font-weight="400" font-family="sans-serif" overflow="visible" fill="#b3b3b3"/><rect width="12" height="13" x="13" y="14" ry="2" rx="2" opacity=".4"/><rect width="10" height="11" x="14" y="15" rx="0" ry="1" fill="#fff"/><path fill="#a7a7f1" d="M15 17h8v1h-8zM15 19h8v1h-8zM15 21h4v1h-4z"/></svg>