<svg xmlns="http://www.w3.org/2000/svg" viewBox="0 0 32 32"><path d="M18 25v1h2.27c-.192-.3-.292-.641-.237-1H18z" fill="#fff" fill-rule="evenodd"/><path d="M18 24v1h2.033c.017-.11.042-.222.088-.334l.275-.666H18z" fill="#232629" fill-rule="evenodd"/><path d="M18 23v1h2.396l.297-.715c.044-.106.1-.198.162-.285H18z" fill="#fff" fill-rule="evenodd"/><path d="M18 22v1h2.855c.348-.487.956-.677 1.561-.588a1.948 1.948 0 01-.004-.412z" fill="#232629" fill-rule="evenodd"/><path d="M18 27v1h2.04c-.058-.36.044-.701.235-1H18z" fill="#fff" fill-rule="evenodd"/><path d="M18 26v1h2.275c.119-.185.26-.36.446-.498A1.866 1.866 0 0120.27 26H18z" fill="#232629" fill-rule="evenodd"/><g transform="matrix(1.23872 0 0 1.23872 2.342 2.342)" stroke-width=".807"><circle cx="19.5" cy="19.5" r="1.5" fill="#fff" fill-rule="evenodd"/><g transform="translate(8 8)"><circle cx="11.5" cy="11.5" r="1.5" fill="#fff" fill-rule="evenodd"/><path d="M9.311 7.792a.244.244 0 00-.135.325l.273.657c-.26.195-.472.424-.662.678l-.674-.279a.248.248 0 00-.329.136l-.462 1.115a.248.248 0 00.137.329l.673.279a3.312 3.312 0 00-.011.948l-.657.272a.244.244 0 00-.135.325l.463 1.117c.054.13.194.189.325.135l.657-.272c.195.26.424.471.678.662l-.279.673a.248.248 0 00.136.329l1.115.462a.248.248 0 00.329-.136l.279-.674c.314.045.626.057.948.012l.272.657c.054.13.195.188.325.134l1.117-.462a.244.244 0 00.135-.326l-.272-.657c.26-.195.471-.424.662-.678l.673.28a.248.248 0 00.329-.137l.462-1.115a.248.248 0 00-.136-.329l-.674-.279c.045-.314.057-.625.012-.947l.657-.273a.244.244 0 00.134-.325l-.462-1.117a.244.244 0 00-.326-.135l-.657.273a3.312 3.312 0 00-.678-.662l.28-.674a.248.248 0 00-.137-.329l-1.115-.462a.248.248 0 00-.329.137l-.279.673a3.312 3.312 0 00-.947-.011l-.273-.657a.244.244 0 00-.325-.135zm1.756 2.66a1.138 1.138 0 11.87 2.103 1.138 1.138 0 01-.87-2.104z" display="block" fill="#d3d3d3" stroke="#4d4d4d" stroke-linejoin="round" stroke-width=".484"/></g></g><path fill="#fff" fill-rule="evenodd" d="M11 8h12V7H11z"/><path fill="#232629" fill-rule="evenodd" d="M11 7h12V6H11z"/><path fill="#fff" fill-rule="evenodd" d="M11 6h16V5H11z"/><path fill="#232629" fill-rule="evenodd" d="M11 5h16V4H11z"/><path fill="#fff" fill-rule="evenodd" d="M11 10h14V9H11z"/><path fill="#232629" fill-rule="evenodd" d="M11 9h14V8H11z"/><path fill="#fff" fill-rule="evenodd" d="M11 17h12v-1H11z"/><path fill="#232629" fill-rule="evenodd" d="M11 16h12v-1H11z"/><path fill="#fff" fill-rule="evenodd" d="M11 15h16v-1H11z"/><path fill="#232629" fill-rule="evenodd" d="M11 14h16v-1H11z"/><path fill="#fff" fill-rule="evenodd" d="M11 19h14v-1H11z"/><path fill="#232629" fill-rule="evenodd" d="M11 18h14v-1H11z"/><circle cx="6.5" cy="5.5" r="1.5" fill="#e95420" fill-rule="evenodd"/><path fill="#e95420" d="M7 13h1v4H7zM5 13h1v4H5zM8 22v1h1v3H8v1h7v-1h-1v-3h1v-1zm2 1h1v3h-1zm2 0h1v3h-1z"/></svg>