<svg xmlns="http://www.w3.org/2000/svg" viewBox="0 0 32 32"><path d="M6.994 4c-1.258.014-2.179-.031-2.932.384a1.88 1.88 0 00-.837.998C3.06 5.822 3 6.342 3 7v18c0 .658.06 1.179.225 1.618.164.438.461.788.837.996.753.415 1.674.371 2.932.386h18.012c1.258-.014 2.179.031 2.932-.384a1.88 1.88 0 00.837-.998c.165-.44.225-.96.225-1.618V7c0-.658-.06-1.179-.225-1.618a1.875 1.875 0 00-.837-.996c-.753-.415-1.674-.371-2.932-.386H6.998z" style="line-height:125%;-inkscape-font-specification:Ubuntu;text-align:center" font-weight="400" font-size="15" font-family="Ubuntu" letter-spacing="0" word-spacing="0" text-anchor="middle" opacity=".6"/><path d="M4.037 24c.003.38.002 1.432.006 1.643.04.462.203 1.013.7 1.164.632.225 1.283.122 1.935.154.3.001.882 0 1.322.002V24H4.037z" fill="#2daaaa"/><path d="M8 24v2.963c1.65.004 3.83.01 4.955.01.396 0 1.986-.004 3.045-.004V24H8z" fill="#46a926"/><path d="M16 24v2.969c2.782-.002 5.667-.005 8-.012V24h-8z" fill="#fdc92b"/><path d="M24 24v2.957c.601-.002 1.795 0 2.063-.002.511-.012 1.182.019 1.583-.406.422-.54.287-1.269.323-1.904V24H24z" fill="#f34f17"/><path d="M4.014 16c0 3.473.008 6.154.023 8H8v-8H4.014z" fill="#31c6b7"/><path fill="#76c22b" d="M8 16h8v8H8z"/><path fill="#ffda64" d="M16 16h8v8h-8z"/><path d="M24 16v8h3.969c.005-1.39.013-4.54.013-8H24z" fill="#fb7c38"/><path d="M4.021 8c-.003 1.159-.007 4.529-.007 8H8V8H4.021z" fill="#5bdbc1"/><path fill="#a6d74f" d="M8 8h8v8H8z"/><path fill="#fee581" d="M16 8h8v8h-8z"/><path d="M24 8v8h3.982c0-3.46-.012-6.122-.029-8H24z" fill="#fda463"/><path d="M8 5.04c-1.011.003-2.052.006-2.676.026-.461.043-1.017.206-1.156.71-.219.635-.11 1.334-.147 1.982V8H8V5.04z" fill="#81e9c0"/><path d="M11.982 5.027c-.93.007-2.479.007-3.982.012V8h8V5.031c-1.555 0-3.486-.004-4.018-.004z" fill="#cbe667"/><path d="M16 5.031V8h8V5.037c-1.88-.006-4.904-.005-8-.006z" fill="#fff4c9"/><path d="M24 5.037V8h3.953c-.003-.402-.001-1.483-.006-1.71-.049-.403-.169-.864-.574-1.046-.668-.294-1.427-.167-2.127-.205L24 5.037z" fill="#fec589"/><path style="marker:none" d="M11.994 14l-5 10h18l-6-7-3 3z" color="#000" overflow="visible" fill="#232629"/><path d="M24.02 9.883a2.014 2.014 0 01-1.91 2.114 2.014 2.014 0 01-2.113-1.91 2.014 2.014 0 011.909-2.114 2.014 2.014 0 012.114 1.909" fill="#232629"/></svg>