<svg xmlns="http://www.w3.org/2000/svg" viewBox="0 0 32 32"><path d="M16 8c-3.878 0-7 2.676-7 6v8c0 3.324 3.122 6 7 6s7-2.676 7-6v-8c0-3.324-3.122-6-7-6zm1 2c2.216 0 4 1.784 4 4v8c0 2.216-1.784 4-4 4s-4-1.784-4-4v-8c0-2.216 1.784-4 4-4z" opacity=".6" stroke="#000" stroke-width="2" stroke-linejoin="round"/><path d="M16 8c-3.878 0-7 2.676-7 6v8c0 3.324 3.122 6 7 6s7-2.676 7-6v-8c0-3.324-3.122-6-7-6zm1 2c2.216 0 4 1.784 4 4v8c0 2.216-1.784 4-4 4s-4-1.784-4-4v-8c0-2.216 1.784-4 4-4z" fill="#fff"/><path opacity=".6" stroke="#000" stroke-width="2" stroke-linejoin="round" d="M4 4.993h24v-1H4z"/><path fill="#fff" d="M4 4.993h24v-1H4z"/></svg>