<svg xmlns="http://www.w3.org/2000/svg" viewBox="0 0 32 32"><path style="line-height:125%;-inkscape-font-specification:Ubuntu;text-align:center" d="M6.994 7c-1.258.015-2.179-.028-2.931.387a1.875 1.875 0 00-.838.996C3.06 8.82 3 9.343 3 10v12c0 .658.06 1.179.225 1.617.164.439.461.79.837.998.753.416 1.674.37 2.932.385h13.039a1.42 1.42 0 01.088-.326l.297-.72c-1.526-3.15 5.014-6.212 7.914-3.825l.668.275V10c0-.658-.06-1.179-.225-1.617a1.88 1.88 0 00-.837-.998c-.753-.416-1.674-.37-2.932-.385H6.996z" font-weight="400" font-size="15" font-family="Ubuntu" letter-spacing="0" word-spacing="0" text-anchor="middle" opacity=".7"/><path d="M20.018 8.027c-1.755 0-11.51 0-13.264.012-.7.038-1.459-.089-2.127.205-.405.182-.525.643-.574 1.045-.05 2.446-.034 9.911-.022 12.356.036.635-.099 1.364.323 1.904.4.425 1.072.392 1.583.404 1.7.014 5.403.02 7.108.02l7.37-.008.276-.672c.29-.699 1.01-.977 1.723-.873-.101-.71.177-1.422.875-1.711l1.383-.574c.699-.29 1.394.022 1.824.595.176-.237.342-.495.606-.603a1.6 1.6 0 01.869-.098c.016-3.127.014-7.48.008-9.271-.038-.648.072-1.347-.147-1.983-.14-.503-.693-.666-1.154-.709-1.55-.05-5.104-.028-6.66-.039z" fill="#fff"/><g transform="matrix(1.23872 0 0 1.23872 2.342 2.342)" stroke-width=".807"><circle cx="19.5" cy="19.5" r="1.5" fill="#fff" fill-rule="evenodd"/><g transform="translate(8 8)"><circle cx="11.5" cy="11.5" r="1.5" fill="#fff" fill-rule="evenodd"/><path d="M9.311 7.792a.244.244 0 00-.135.325l.273.657c-.26.195-.472.424-.662.678l-.674-.279a.248.248 0 00-.329.136l-.462 1.115a.248.248 0 00.137.329l.673.279a3.312 3.312 0 00-.011.948l-.657.272a.244.244 0 00-.135.325l.463 1.117c.054.13.194.189.325.135l.657-.272c.195.26.424.471.678.662l-.279.673a.248.248 0 00.136.329l1.115.462a.248.248 0 00.329-.136l.279-.674c.314.045.626.057.948.012l.272.657c.054.13.195.188.325.134l1.117-.462a.244.244 0 00.135-.326l-.272-.657c.26-.195.471-.424.662-.678l.673.28a.248.248 0 00.329-.137l.462-1.115a.248.248 0 00-.136-.329l-.674-.279c.045-.314.057-.625.012-.947l.657-.273a.244.244 0 00.134-.325l-.462-1.117a.244.244 0 00-.326-.135l-.657.273a3.312 3.312 0 00-.678-.662l.28-.674a.248.248 0 00-.137-.329l-1.115-.462a.248.248 0 00-.329.137l-.279.673a3.312 3.312 0 00-.947-.011l-.273-.657a.244.244 0 00-.325-.135zm1.756 2.66a1.138 1.138 0 11.87 2.103 1.138 1.138 0 01-.87-2.104z" display="block" fill="#d3d3d3" stroke="#4d4d4d" stroke-linejoin="round" stroke-width=".484"/></g></g></svg>