<svg xmlns="http://www.w3.org/2000/svg" viewBox="0 0 32 32"><path d="M23.007 4c1.258.014 2.179-.031 2.931.384.377.208.674.56.838.998.165.439.225.96.225 1.617V23c0 .658-.06 1.179-.225 1.617a1.875 1.875 0 01-.838.996c-.752.415-1.673.372-2.931.387H8.994c-1.258-.015-2.179.03-2.931-.385a1.88 1.88 0 01-.838-.998C5.06 24.18 5.079 23.653 5 23V6.999c0-.657.06-1.178.225-1.617.164-.438.461-.788.838-.996.752-.415 1.673-.372 2.931-.387h14.009z" style="line-height:125%;-inkscape-font-specification:Ubuntu;text-align:center" font-weight="400" font-size="15" font-family="Ubuntu" letter-spacing="0" word-spacing="0" text-anchor="middle" opacity=".6"/><path d="M18.017 5.027c1.557.01 5.11-.012 6.66.038.462.043 1.017.207 1.156.71.219.636.108 1.334.146 1.982.007 2.297.022 13.597-.022 15.886-.04.462-.203 1.013-.699 1.164-.632.225-1.284.122-1.936.154-1.424.007-8.851.011-10.277.011-1.704 0-3.408-.005-5.107-.018-.512-.012-1.184.02-1.585-.405-.42-.54-.287-1.268-.323-1.904-.011-2.444-.027-13.911.022-16.357.05-.402.17-.863.575-1.044.669-.295 1.427-.168 2.126-.206 1.755-.012 7.51-.012 9.264-.011z" fill="#fff"/><circle cx="-23" cy="23" r="2" transform="scale(-1 1)" fill="#fff"/><path d="M24 14.5c.554 0 1 .446 1 1v1.887a5.966 5.966 0 01.557.228l1.332-1.332a.998.998 0 011.414 0l1.414 1.414a.998.998 0 010 1.414l-1.334 1.334a5.966 5.966 0 01.23.555H30.5c.554 0 1 .446 1 1v2c0 .554-.446 1-1 1h-1.887a5.966 5.966 0 01-.228.557l1.332 1.332a.998.998 0 010 1.414l-1.414 1.414a.998.998 0 01-1.414 0l-1.334-1.334a5.966 5.966 0 01-.555.23V30.5c0 .554-.446 1-1 1h-2c-.554 0-1-.446-1-1v-1.887a5.966 5.966 0 01-.557-.228l-1.332 1.332a.998.998 0 01-1.414 0l-1.414-1.414a.998.998 0 010-1.414l1.334-1.334a5.966 5.966 0 01-.23-.555H15.5c-.554 0-1-.446-1-1v-2c0-.554.446-1 1-1h1.887a5.966 5.966 0 01.228-.557l-1.332-1.332a.998.998 0 010-1.414l1.414-1.414a.998.998 0 011.414 0l1.334 1.334a5.966 5.966 0 01.555-.23V15.5c0-.554.446-1 1-1zm-1 6.504A1.995 1.995 0 0021.004 23 1.995 1.995 0 0023 24.996 1.995 1.995 0 0024.996 23 1.995 1.995 0 0023 21.004z" fill="#b3b3b3" stroke="#6d6d6d" stroke-linecap="square" stroke-linejoin="round"/></svg>