<svg xmlns="http://www.w3.org/2000/svg" viewBox="0 0 32 32"><path fill="#fff" fill-rule="evenodd" d="M4 9h18V8H4z"/><path fill="#232629" fill-rule="evenodd" d="M4 8h18V7H4z"/><path fill="#fff" fill-rule="evenodd" d="M4 6h24V5H4z"/><path fill="#232629" fill-rule="evenodd" d="M4 5h24V4H4z"/><path fill="#fff" fill-rule="evenodd" d="M4 12h21v-1H4z"/><path fill="#232629" fill-rule="evenodd" d="M4 11h21v-1H4z"/><path fill="#fff" fill-rule="evenodd" d="M4 19h18v-1H4z"/><path fill="#232629" fill-rule="evenodd" d="M4 18h18v-1H4z"/><path fill="#fff" fill-rule="evenodd" d="M4 16h24v-1H4z"/><path fill="#232629" fill-rule="evenodd" d="M4 15h24v-1H4z"/><path fill="#fff" fill-rule="evenodd" d="M4 22h21v-1H4z"/><path fill="#232629" fill-rule="evenodd" d="M4 21h21v-1H4z"/><path fill="#fff" fill-rule="evenodd" d="M4 27h10v1H4z"/><path fill="#232629" fill-rule="evenodd" d="M4 28h10v1H4z"/><path fill="#fff" fill-rule="evenodd" d="M4 24h13v1H4z"/><path fill="#232629" fill-rule="evenodd" d="M4 25h13v1H4z"/><path d="M25 24l5 3-5 3z" fill="#e95420"/><path fill="#e95420" fill-rule="evenodd" d="M19 26h7v2h-7z"/></svg>