<svg xmlns="http://www.w3.org/2000/svg" viewBox="0 0 32 32"><path style="line-height:125%;-inkscape-font-specification:Ubuntu;text-align:center" d="M5.01 1.973c-1.257.014-2.178-.03-2.93.385a1.88 1.88 0 00-.839.998c-.164.438-.224.96-.224 1.617v18.001c0 .657.06 1.178.224 1.617.165.438.462.788.838.996.753.415 1.674.372 2.932.387h18.012c1.258-.015 2.178.03 2.931-.385a1.88 1.88 0 00.838-.998c.165-.439.225-.96.225-1.617V4.973c0-.658-.06-1.179-.225-1.617a1.875 1.875 0 00-.838-.996c-.753-.416-1.673-.372-2.932-.387H5.015z" font-weight="400" font-size="15" font-family="Ubuntu" letter-spacing="0" word-spacing="0" text-anchor="middle" opacity=".6"/><path d="M10 3c-1.557.01-5.11-.012-6.66.039-.461.042-1.016.206-1.155.71-.22.635-.109 1.334-.146 1.982-.008 2.297-.023 15.596.021 17.886.04.462.203 1.012.7 1.163.632.225 1.283.123 1.935.155 1.424.006 4.85.01 6.277.011 1.704 0 11.408-.005 13.107-.019.512-.012 1.183.02 1.585-.405.42-.54.287-1.268.322-1.903.012-2.445.028-15.912-.022-18.358-.049-.402-.17-.863-.575-1.044-.668-.294-1.426-.168-2.126-.206C21.51 3 11.754 3 10 3z" fill="#d85eca"/><path d="M9 6c-1.258.014-2.179-.03-2.932.385a1.88 1.88 0 00-.838.998c-.164.438-.224.96-.224 1.617V27c0 .657.06 1.178.224 1.617.165.439.462.788.838.996.753.415 1.674.372 2.932.387h18.012c1.258-.015 2.179.03 2.931-.385a1.88 1.88 0 00.838-.998c.165-.439.225-.96.225-1.617V9c0-.658-.06-1.179-.225-1.617a1.875 1.875 0 00-.838-.996c-.752-.416-1.673-.372-2.931-.387H9.004z" style="line-height:125%;-inkscape-font-specification:Ubuntu;text-align:center" font-weight="400" font-size="15" font-family="Ubuntu" letter-spacing="0" word-spacing="0" text-anchor="middle" opacity=".6"/><path d="M13.99 7.027c-1.557.01-5.11-.012-6.66.039-.462.042-1.017.206-1.156.71-.219.635-.108 1.334-.146 1.982-.008 2.297-.023 15.596.022 17.886.039.462.202 1.012.698 1.163.633.226 1.285.123 1.936.155 1.425.007 4.851.01 6.277.011 1.704 0 11.408-.005 13.107-.018.512-.012 1.184.02 1.585-.406.42-.54.287-1.268.323-1.903.011-2.445.027-15.912-.022-18.358-.05-.402-.17-.862-.576-1.044-.668-.294-1.426-.168-2.125-.206-1.755-.011-11.51-.012-13.264-.011z" fill="#d85eca"/><path style="marker:none" d="M14 16L9 26h18l-6-7-3 3z" color="#000" overflow="visible" fill="#fff"/><path d="M26.026 11.884a2.014 2.014 0 01-1.91 2.113 2.014 2.014 0 01-2.113-1.909 2.014 2.014 0 011.909-2.114 2.014 2.014 0 012.114 1.908" fill="#fff"/></svg>