<svg xmlns="http://www.w3.org/2000/svg" height="32" width="32"><path d="M25 15a4 4 0 100 8v4h1V16h1v11h1V15h-2zM17.472 4.992l-5.091 19h1.795l5.151-18.986zM9.679 8.447l-5.115 5.431-.56.6.56.598 5.084 5.462 1.235-1.198-4.527-4.861 4.557-4.831z" stroke="#000" opacity=".6" stroke-width="2" stroke-linejoin="round"/><path d="M25 15a4 4 0 100 8v4h1V16h1v11h1V15h-2z" fill="#aee3f8"/><path d="M17.472 4.992l-5.091 19h1.795l5.151-18.986zM9.679 8.447l-5.115 5.431-.56.6.56.598 5.084 5.462 1.235-1.198-4.527-4.861 4.557-4.831z" fill="#fff"/></svg>