<svg xmlns="http://www.w3.org/2000/svg" viewBox="0 0 32 32"><path d="M3 7v16c0 2.216 1.784 4 4 4h18c2.216 0 4-1.784 4-4V7z" opacity=".6" fill-rule="evenodd" stroke="#000" stroke-width="2" stroke-linejoin="round"/><path fill="#6d6d6d" fill-rule="evenodd" d="M0 3h32v4H0z"/><path d="M3 7v16c0 2.216 1.784 4 4 4h18c2.216 0 4-1.784 4-4V7z" fill="#fff" fill-rule="evenodd"/><path d="M27 17a6 6 0 01-3.704 5.543 6 6 0 01-6.539-1.3 6 6 0 01-1.3-6.54A6 6 0 0121 11v6z" fill="#46a926" fill-rule="evenodd"/><path d="M21 11a6 6 0 016 6h-6z" fill="#c7162b" fill-rule="evenodd"/><path fill="#1a7fd4" fill-rule="evenodd" d="M6 12h6v2H6z"/><path fill="#c7162b" fill-rule="evenodd" d="M6 16h6v2H6z"/><path fill="#46a926" fill-rule="evenodd" d="M6 20h6v2H6z"/><path d="M12.201 7.957L32 27.756 27.756 32 7.957 12.201z" opacity=".6"/><path d="M12.201 9.371l-2.83 2.83 5.658 5.656 2.828-2.828z" fill="#fff"/><path fill="#fa9381" d="M30.585 27.757l-12.02-12.021-2.829 2.828 12.02 12.021z"/></svg>