<svg xmlns="http://www.w3.org/2000/svg" viewBox="0 0 32 32"><path d="M3 8v16c0 2.216 1.784 4 4 4h18c2.216 0 4-1.784 4-4V8z" opacity=".6" fill-rule="evenodd" stroke="#000" stroke-width="2" stroke-linejoin="round"/><path fill="#6d6d6d" fill-rule="evenodd" d="M0 4h32v4H0z"/><path d="M3 8v16c0 2.216 1.784 4 4 4h18c2.216 0 4-1.784 4-4V8z" fill="#fff" fill-rule="evenodd"/><path d="M27 18a6 6 0 01-3.704 5.543 6 6 0 01-6.539-1.3 6 6 0 01-1.3-6.54A6 6 0 0121 12v6z" fill="#46a926" fill-rule="evenodd"/><path d="M21 12a6 6 0 016 6h-6z" fill="#c7162b" fill-rule="evenodd"/><path fill="#1a7fd4" fill-rule="evenodd" d="M6 13h6v2H6z"/><path fill="#c7162b" fill-rule="evenodd" d="M6 17h6v2H6z"/><path fill="#46a926" fill-rule="evenodd" d="M6 21h6v2H6z"/><circle cx="-23" cy="23" r="2" transform="scale(-1 1)" fill="#fff"/><path d="M24 14.5c.554 0 1 .446 1 1v1.887a5.966 5.966 0 01.557.228l1.332-1.332a.998.998 0 011.414 0l1.414 1.414a.998.998 0 010 1.414l-1.334 1.334a5.966 5.966 0 01.23.555H30.5c.554 0 1 .446 1 1v2c0 .554-.446 1-1 1h-1.887a5.966 5.966 0 01-.228.557l1.332 1.332a.998.998 0 010 1.414l-1.414 1.414a.998.998 0 01-1.414 0l-1.334-1.334a5.966 5.966 0 01-.555.23V30.5c0 .554-.446 1-1 1h-2c-.554 0-1-.446-1-1v-1.887a5.966 5.966 0 01-.557-.228l-1.332 1.332a.998.998 0 01-1.414 0l-1.414-1.414a.998.998 0 010-1.414l1.334-1.334a5.966 5.966 0 01-.23-.555H15.5c-.554 0-1-.446-1-1v-2c0-.554.446-1 1-1h1.887a5.966 5.966 0 01.228-.557l-1.332-1.332a.998.998 0 010-1.414l1.414-1.414a.998.998 0 011.414 0l1.334 1.334a5.966 5.966 0 01.555-.23V15.5c0-.554.446-1 1-1zm-1 6.504A1.995 1.995 0 0021.004 23 1.995 1.995 0 0023 24.996 1.995 1.995 0 0024.996 23 1.995 1.995 0 0023 21.004z" fill="#b3b3b3" stroke="#6d6d6d" stroke-linecap="square" stroke-linejoin="round"/></svg>