<svg xmlns="http://www.w3.org/2000/svg" viewBox="0 0 32 32"><circle cx="16" cy="16" r="12" opacity=".7" fill-rule="evenodd" stroke="#000" stroke-width="2" stroke-linejoin="round"/><circle cx="16" cy="16" r="12" fill="#762572" fill-rule="evenodd"/><path d="M16 8a8 8 0 00-4.496 1.383l1.453 1.453A6 6 0 0116 10a6 6 0 016 6 6 6 0 01-.836 3.043l1.447 1.447A8 8 0 0024 16a8 8 0 00-8-8zm-6.611 3.51A8 8 0 008 16a8 8 0 008 8 8 8 0 004.496-1.383l-1.453-1.453A6 6 0 0116 22a6 6 0 01-6-6 6 6 0 01.836-3.043L9.389 11.51z" fill="#fff" fill-rule="evenodd"/></svg>