<svg xmlns="http://www.w3.org/2000/svg" viewBox="0 0 32 32"><path d="M6.293 3.995L5 5.288v2.54c.055.04 8 10.667 8 10.667v5.008l6 4.502v-9.51l8-10.668V5.288l-1.293-1.293z" opacity=".6" stroke="#000" stroke-width="2" stroke-linejoin="round"/><path d="M6.293 3.995L5 5.288v2.54c.055.04 8 10.667 8 10.667v5.008l6 4.502v-9.51l8-10.668V5.288l-1.293-1.293z" fill="#fff"/><circle cy="25.5" cx="20.5" r="4.5" fill="#c7162b"/><path overflow="visible" font-weight="400" style="line-height:normal;text-indent:0;text-align:start;text-decoration-line:none;text-decoration-style:solid;text-decoration-color:#000;text-transform:none;white-space:normal;isolation:auto;mix-blend-mode:normal;marker:none" d="M18.379 24.086l1.414 1.414-1.414 1.414.707.707 1.414-1.414 1.414 1.414.707-.707-1.414-1.414 1.414-1.414-.707-.707-1.414 1.414-1.414-1.414z" color="#000" font-family="sans-serif" fill="#fff"/></svg>