<svg xmlns="http://www.w3.org/2000/svg" viewBox="0 0 32 32"><path d="M12 4c-.604 0-1 .398-1 1H7c-1.108 0-2 .892-2 2v13c0 1.108.892 2 2 2h4V12c0-1.108.892-2 2-2h8V7c0-1.108-.892-2-2-2h-4c0-.598-.4-1-1-1z" opacity=".7"/><rect width="14" height="15" x="6" y="6" ry="1" rx="1" fill="#ccc"/><path fill="#ccc" d="M12 5h2v2h-2z"/><path fill="#fff" d="M11 6h4v1h-4zM12 5h2v1h-2z"/><path d="M12 9c-1.108 0-2 .892-2 2v15c0 1.108.892 2 2 2h6.648l-1.389-1.122 6.116-5.58L25 20v4.982h2V11c0-1.108-.892-2-2-2z" opacity=".7"/><path d="M12 10c-.554 0-1 .446-1 1v15c0 .554.446 1 1 1h5.398l5.977-4.781 1.625-1.3v4.063h1V11c0-.554-.446-1-1-1H12z" fill="#fff"/><path fill="#a7a7f1" d="M13 12h11v1H13zM13 15h11v1H13zM13 18h5v1h-5z"/><path d="M24 23l-5 4 5 4v-3.004l3.984-.014c2 0 3-1 3-3L31 23h-2l-.016.982c0 2 0 2-2 2H24V23z" fill="#e95420"/></svg>