<svg xmlns="http://www.w3.org/2000/svg" viewBox="0 0 32 32"><path d="M16 4.5C9.649 4.5 4.5 5.787 4.5 7.375v17.25C4.5 26.213 9.649 27.5 16 27.5s11.5-1.287 11.5-2.875V7.375C27.5 5.787 22.351 4.5 16 4.5z" fill="#f2cbf8"/><path d="M16 4A12 3 0 004 7v18a12 3 0 0012 3 12 3 0 0012-3V7a12 3 0 00-12-3zm0 1a11 2 0 0111 2 11 2 0 01-11 2A11 2 0 015 7a11 2 0 0111-2zm11 3.191V13a11 2 0 01-11 2 11 2 0 01-11-2V8.195A12 3 0 0016 10a12 3 0 0011-1.809zm0 6V19a11 2 0 01-11 2 11 2 0 01-11-2v-4.805A12 3 0 0016 16a12 3 0 0011-1.809zm0 6V25a11 2 0 01-11 2 11 2 0 01-11-2v-4.805A12 3 0 0016 22a12 3 0 0011-1.809z" fill="#8e03a3"/><path d="M5.05 15.343l-1.414 1.414L7.879 21l-4.243 4.243 1.414 1.414 4.243-4.243L10.707 21l-1.414-1.414zM11 27h7v2h-7z" opacity=".7" stroke="#000" stroke-width="2" stroke-linejoin="round"/><path d="M5.05 15.343l-1.414 1.414L7.879 21l-4.243 4.243 1.414 1.414 4.243-4.243L10.707 21l-1.414-1.414zM11 27h7v2h-7z" fill="#fff"/></svg>