<svg xmlns="http://www.w3.org/2000/svg" viewBox="0 0 32 32"><path d="M14 6L5 26h3l2.908-6h10.184L24 26h3L18 6h-2zm2 2.402L19.85 17h-7.7z" opacity=".6" stroke="#000" stroke-width="2" stroke-linejoin="round"/><path d="M14 6L5 26h3l2.908-6h10.184L24 26h3L18 6h-2zm2 2.402L19.85 17h-7.7z" fill="#fff"/><path d="M24 29l-4-5h3v-5h2v5h3z" opacity=".6" stroke="#000" stroke-width="2" stroke-linejoin="round"/><path d="M24 29l-4-5h3v-5h2v5h3z" fill="#aee3f8"/><path d="M24 3l-4 5h3v5h2V8h3z" opacity=".6" stroke="#000" stroke-width="2" stroke-linejoin="round"/><path d="M24 3l-4 5h3v5h2V8h3z" fill="#aee3f8"/></svg>