<svg xmlns="http://www.w3.org/2000/svg" xmlns:xlink="http://www.w3.org/1999/xlink" viewBox="0 0 32 32"><defs><linearGradient y2="369.239" x2="688" y1="369.239" x1="624" gradientUnits="userSpaceOnUse" id="b" xlink:href="#a"/><linearGradient id="a"><stop offset="0" stop-color="#5884f4"/><stop offset=".278" stop-color="#5884f4"/><stop offset=".278" stop-color="#2f5fdd"/><stop offset=".707" stop-color="#2f5fdd"/><stop offset=".709" stop-color="#234db8"/><stop offset="1" stop-color="#234db8"/></linearGradient></defs><path d="M7.776 7.776a9.5 9.5 0 000 13.435 9.5 9.5 0 0013.072.344l5.667 5.667.707-.707-5.667-5.667a9.5 9.5 0 00-.344-13.072 9.5 9.5 0 00-13.435 0z" opacity=".7" fill-rule="evenodd" stroke="#000" stroke-width="2" stroke-linecap="round" stroke-linejoin="round"/><path d="M7.776 7.776a9.5 9.5 0 000 13.435 9.5 9.5 0 0013.072.344l5.667 5.667.707-.707-5.667-5.667a9.5 9.5 0 00-.344-13.072 9.5 9.5 0 00-13.435 0z" fill="#c8c4b7" fill-rule="evenodd"/><circle cy="20.497" r="8.5" transform="rotate(-45)" fill="#fff" fill-rule="evenodd"/><g stroke-width="9.714"><path d="M17.97 17.214L12 20l2.786-5.97.597-.597 3.184 3.184z" fill="#fee1c2"/><path style="marker:none" d="M12.886 18.1L12 20l1.9-.886s.188-.11.089-.21c-.099-.098-.395.003-.395.003s.197-.3-.001-.498-.498 0-.498 0 .099-.3 0-.399c-.1-.1-.209.09-.209.09z" color="#000" overflow="visible" fill="#5d5d5d"/><path d="M624 319.356c0-7.376 18-3.688 18 7.376 0-18.44 28-18.44 28 0 0-11.064 18-14.752 18-7.376v-185.9h-64z" fill="url(#b)" transform="matrix(.04975 .04975 -.05396 .05396 .974 -34.243)"/></g></svg>