<svg xmlns="http://www.w3.org/2000/svg" xmlns:xlink="http://www.w3.org/1999/xlink" viewBox="0 0 32 32"><defs><linearGradient xlink:href="#a" id="d" x1="22.245" y1="-345.069" x2="38.245" y2="-345.069" gradientUnits="userSpaceOnUse" gradientTransform="rotate(-90 31.657 -357.412)"/><linearGradient id="a"><stop offset="0" stop-color="#4d4d4d"/><stop offset="1" stop-color="#151515"/></linearGradient><filter id="c" x="-.324" width="1.647" y="-.191" height="1.382" color-interpolation-filters="sRGB"><feGaussianBlur stdDeviation="1.256"/></filter><filter id="b" x="-.162" width="1.324" y="-.095" height="1.191" color-interpolation-filters="sRGB"><feGaussianBlur stdDeviation=".628"/></filter></defs><path style="line-height:normal;font-variant-ligatures:normal;font-variant-position:normal;font-variant-caps:normal;font-variant-numeric:normal;font-variant-alternates:normal;font-feature-settings:normal;text-indent:0;text-align:start;text-decoration-line:none;text-decoration-style:solid;text-decoration-color:#000;text-transform:none;text-orientation:mixed;white-space:normal;shape-padding:0;isolation:auto;mix-blend-mode:normal;solid-color:#000;solid-opacity:1" d="M9.52 8.597V25.203l3.49-4.258 1.746 4.213a1.5 1.5 0 00.872.869c.37.13.759.098 1.095-.041.336-.14.634-.392.803-.746.17-.354.183-.807 0-1.233l.004.006-1.824-4.402 4.838.012zm1 2.414l7.606 7.606-3.92-.01 2.4 5.793.002.002c.084.195.065.305.016.408a.547.547 0 01-.284.252.548.548 0 01-.378.021c-.107-.037-.2-.101-.278-.299l-.002-.002-2.387-5.761-2.775 3.384z" color="#000" font-weight="400" font-family="sans-serif" overflow="visible" opacity=".6" fill-rule="evenodd" filter="url(#b)" enable-background="accumulate"/><path style="line-height:normal;font-variant-ligatures:normal;font-variant-position:normal;font-variant-caps:normal;font-variant-numeric:normal;font-variant-alternates:normal;font-feature-settings:normal;text-indent:0;text-align:start;text-decoration-line:none;text-decoration-style:solid;text-decoration-color:#000;text-transform:none;text-orientation:mixed;white-space:normal;shape-padding:0;isolation:auto;mix-blend-mode:normal;solid-color:#000;solid-opacity:1" d="M10.02 6.39V25.601l3.847-4.691 1.422 3.43c.218.547.67.98 1.172 1.157a2.019 2.019 0 001.453-.048c.44-.182.833-.513 1.063-.993.23-.48.24-1.107.007-1.648l-1.53-3.695 5.3.011zm2 4.828l5.894 5.895-3.457-.008-.02-.045-2.417 2.947z" color="#000" font-weight="400" font-family="sans-serif" overflow="visible" opacity=".2" fill-rule="evenodd" filter="url(#c)" enable-background="accumulate"/><path d="M10.02 8.804v14l3.133-3.82 2.066 4.986c.5 1.257 2.383.476 1.848-.765l-2.111-5.096 4.379.01z" fill="none" stroke="#fff" stroke-width="2"/><path d="M27-365.314v14l3.133-3.82 2.066 4.986c.5 1.256 2.383.476 1.848-.766l-2.111-5.096 4.378.01z" fill="url(#d)" fill-rule="evenodd" transform="translate(-16.98 374.119)"/></svg>