<svg xmlns="http://www.w3.org/2000/svg" viewBox="0 0 32 32"><path fill="#fff" d="M5 5h22v22H5z"/><path d="M7 4C5 4 4 4 4 6v20c0 2 1 2 3 2h18c2 0 3 0 3-2V6c0-2-1-2-3-2H7zm0 1h5v4H5V6c0-1 1-1 2-1zm6 0h6v4h-6V5zm7 0h5c1 0 2 0 2 1v3h-7V5zM5 10h7v3H5v-3zm8 0h6v3h-6v-3zm7 0h7v3h-7v-3zM5 14h22v5H5v-5zm0 6h7v3H5v-3zm8 0h6v3h-6v-3zm7 0h7v3h-7v-3zM5 24h7v3H7c-1 0-2 0-2-1v-2zm8 0h6v3h-6v-3zm7 0h7v2c0 1-1 1-2 1h-5v-3z" fill="#6d6d6d"/><path d="M12 14h8v5h-8z" fill="#f3d8f2" fill-rule="evenodd"/><path d="M12 14h1v5h-1zM19 14h1v5h-1zM12 13h8v1h-8zM12 19h8v1h-8z" fill="#762572" fill-rule="evenodd"/></svg>