<svg xmlns="http://www.w3.org/2000/svg" viewBox="0 0 32 32"><path d="M21 28c-2 0-4-1-4-3V7c0-2 2-3 4-3h3l7 7v14c0 2-2 3-4 3z" opacity=".7" stroke="#000" stroke-width="2"/><path d="M21 28c-2 0-4-1-4-3V7c0-2 2-3 4-3h3l7 7v14c0 2-2 3-4 3z" fill="#fff"/><path d="M24 11V4l7 7z" fill="#6d6d6d"/><path d="M11 28c2 0 4-1 4-3V7c0-2-2-3-4-3H8l-7 7v14c0 2 2 3 4 3z" opacity=".7" stroke="#000" stroke-width="2"/><path d="M11 28c2 0 4-1 4-3V7c0-2-2-3-4-3H8l-7 7v14c0 2 2 3 4 3z" fill="#fff"/><path d="M8 11V4l-7 7z" fill="#6d6d6d"/></svg>