<svg xmlns="http://www.w3.org/2000/svg" viewBox="0 0 32 32"><path d="M24 12V6c0-2-1-2-3-2H7C5 4 4 4 4 6v9c0 2 1 2 3 2l6 6v-6h8c2 0 3 0 3-2z" opacity=".6" stroke="#000" stroke-width="2" stroke-linejoin="round"/><path d="M24 12V6c0-2-1-2-3-2H7C5 4 4 4 4 6v9c0 2 1 2 3 2l6 6v-6h8c2 0 3 0 3-2z" fill="#fa9381"/><path d="M28 17v-6c0-2-1-2-3-2H11c-2 0-3 0-3 2v9c0 2 1 2 3 2l6 6v-6h8c2 0 3 0 3-2z" opacity=".6" stroke="#000" stroke-width="2" stroke-linejoin="round"/><path d="M28 17v-6c0-2-1-2-3-2H11c-2 0-3 0-3 2v9c0 2 1 2 3 2l6 6v-6h8c2 0 3 0 3-2z" fill="#fa9381"/><rect width="14" height="1" x="11" y="12" ry=".5" fill="#fff"/><rect ry=".5" y="15" x="11" height="1" width="14" fill="#fff"/><rect width="14" height="1" x="11" y="18" ry=".5" fill="#fff"/></svg>