<svg xmlns="http://www.w3.org/2000/svg" viewBox="0 0 32 32"><path d="M28 25V4H4v24h24zm-11 2H5V5h22v22z" fill="#e95420"/><path d="M17 26H6V6h20v20zm10-1V5H5v22h22z" fill="#232629"/><path fill="#fff" d="M6 6h20v20H6z"/><path d="M25.951 21A2 2 0 0024 23v2h-1v4h6v-4h-1v-2a2 2 0 00-2-2 2 2 0 00-.049 0zM26 22a1 1 0 011 1v2h-2v-2a1 1 0 011-1z" opacity=".6" fill-rule="evenodd" stroke="#000" stroke-width="2" stroke-linecap="round" stroke-linejoin="round"/><path d="M25.951 21A2 2 0 0024 23v2h-1v4h6v-4h-1v-2a2 2 0 00-2-2 2 2 0 00-.049 0zM26 22a1 1 0 011 1v2h-2v-2a1 1 0 011-1z" fill="#fee581" fill-rule="evenodd"/></svg>