<svg xmlns="http://www.w3.org/2000/svg" viewBox="0 0 32 32"><path fill="#b3b3b3" d="M6 6h20v20H6z"/><path opacity=".7" d="M4 4v4h4V4z"/><path fill="#aee3f8" d="M5 5v2h2V5z"/><path opacity=".7" d="M24 4v4h4V4z"/><path fill="#aee3f8" d="M25 5v2h2V5z"/><path opacity=".7" d="M4 24v4h4v-4z"/><path fill="#aee3f8" d="M5 25v2h2v-2z"/><path opacity=".7" d="M24 24v4h4v-4z"/><path fill="#aee3f8" d="M25 25v2h2v-2z"/><path fill="#1463a5" d="M5 8h2v16H5zM8 5h16v2H8zM25 8h2v16h-2zM8 25h16v2H8z"/><path d="M24.951 20A2 2 0 0023 22v2h-1v4h6v-4h-1v-2a2 2 0 00-2-2 2 2 0 00-.049 0zM25 21a1 1 0 011 1v2h-2v-2a1 1 0 011-1z" opacity=".6" fill-rule="evenodd" stroke="#000" stroke-width="2" stroke-linecap="round" stroke-linejoin="round"/><path d="M24.951 20A2 2 0 0023 22v2h-1v4h6v-4h-1v-2a2 2 0 00-2-2 2 2 0 00-.049 0zM25 21a1 1 0 011 1v2h-2v-2a1 1 0 011-1z" fill="#fee581" fill-rule="evenodd"/></svg>