<svg xmlns="http://www.w3.org/2000/svg" viewBox="0 0 32 32"><path d="M14 3L5 23h3l2.908-6h10.184L24 23h3L18 3h-4zm2 2.402L19.85 14h-7.7L16 5.402z" stroke="#000" opacity=".7" stroke-width="2" stroke-linejoin="round"/><path d="M14 3L5 23h3l2.908-6h10.184L24 23h3L18 3h-4zm2 2.402L19.85 14h-7.7L16 5.402z" fill="#fff"/><path d="M19.903 24.585l8.618-8.43 2.488 2.495-11.458 12.282L12 23l3.231-2.873z" opacity=".8" fill="#fff" stroke="#fff" stroke-width="2" stroke-linejoin="round"/><path d="M19.903 24.585l8.618-8.43 2.488 2.495-11.458 12.282L12 23l3.231-2.873z" fill="#0e8420"/></svg>