<svg xmlns="http://www.w3.org/2000/svg" xmlns:xlink="http://www.w3.org/1999/xlink" viewBox="0 0 32 32"><defs><linearGradient xlink:href="#a" id="b" x1="16" y1="6" x2="16" y2="26" gradientUnits="userSpaceOnUse" gradientTransform="translate(0 -3)"/><linearGradient id="a"><stop offset="0" stop-color="#151515"/><stop offset="1" stop-color="#4d4d4d"/></linearGradient></defs><path style="line-height:normal;font-variant-ligatures:normal;font-variant-position:normal;font-variant-caps:normal;font-variant-numeric:normal;font-variant-alternates:normal;font-variant-east-asian:normal;font-feature-settings:normal;font-variation-settings:normal;text-indent:0;text-align:start;text-decoration-line:none;text-decoration-style:solid;text-decoration-color:#000;text-transform:none;text-orientation:mixed;white-space:normal;shape-padding:0;shape-margin:0;inline-size:0;isolation:auto;mix-blend-mode:normal;solid-color:#000;solid-opacity:1" d="M14 2a1 1 0 00-.912.59l-9 20A1 1 0 005 24h3a1 1 0 00.9-.564L11.535 18h8.93l1.525 3.146 1.508-1.474-1.506-3.108a1 1 0 00-.9-.564H10.908a1 1 0 00-.9.564L7.373 22h-.826l8.1-18h2.707l6.773 15.055 1.523-1.49L18.912 2.59A1 1 0 0018 2h-4zm1.973 2.402a1 1 0 00-.885.592l-3.85 8.598A1 1 0 0012.15 15h7.7a1 1 0 00.912-1.408l-3.85-8.598a1 1 0 00-.94-.592zM16 7.848L18.307 13h-4.614L16 7.848zm11.885 15.617l-.358.385a1 1 0 00.358-.385z" color="#000" font-weight="400" font-family="sans-serif" overflow="visible" fill="#fff"/><path d="M14 3L5 23h3l2.908-6h10.184l1.652 3.408 2.145-2.097L18 3h-4zm2 2.402L19.85 14h-7.7L16 5.402z" fill="url(#b)"/><path d="M19.903 24.585l8.618-8.43 2.488 2.495-11.458 12.282L12 23l3.231-2.873z" fill="#0e8420"/></svg>