<svg xmlns="http://www.w3.org/2000/svg" viewBox="0 0 32 32"><path d="M22.044 20.534c0 .861-.18 1.633-.54 2.317a4.833 4.833 0 01-1.516 1.718c-.66.47-1.463.83-2.411 1.078-.948.24-1.68.36-2.865.36-1.144 0-2.216-.08-3.215-.24-.99-.15-1.82-.377-2.49-.679L9 22.862c.35.142.747.284 1.19.426a19.966 19.966 0 002.953.626c.525.062 1.046.093 1.56.093 1.65 0 2.531-.266 3.314-.8.794-.532 1.199-1.439 1.199-2.433 0-.48-.078-.897-.232-1.252-.145-.355-.407-.68-.789-.972-.37-.302-.87-.59-1.5-.866a25.455 25.455 0 00-2.313-.918 15.935 15.935 0 01-2.396-1.012c-.67-.373-1.226-.79-1.67-1.252a4.614 4.614 0 01-.973-1.571c-.206-.586-.31-1.252-.31-1.998 0-.78.165-1.478.495-2.09a4.429 4.429 0 011.391-1.545c.598-.426 1.31-.75 2.134-.972.834-.222 2.02-.333 3.019-.333 1.226 0 2.329.102 3.308.306.979.196 1.85.449 2.612.76l-1.035 1.913a15.75 15.75 0 00-2.288-.666 11.633 11.633 0 00-2.628-.293c-1.257 0-2.499.253-3.19.759-.69.497-1.035 1.336-1.035 2.188 0 .506.077.945.232 1.318.154.364.412.697.773.999.36.293.835.572 1.422.839.598.257 1.263.532 2.128.825.938.32 1.757.648 2.458.986.711.337 1.304.719 1.778 1.145.474.426.83.919 1.066 1.478.248.56.371 1.22.371 1.984z" opacity=".7" stroke="#000" stroke-width="2" stroke-linejoin="round"/><path d="M22.044 20.534c0 .861-.18 1.633-.54 2.317a4.833 4.833 0 01-1.516 1.718c-.66.47-1.463.83-2.411 1.078-.948.24-1.68.36-2.865.36-1.144 0-2.216-.08-3.215-.24-.99-.15-1.82-.377-2.49-.679L9 22.862c.35.142.747.284 1.19.426a19.966 19.966 0 002.953.626c.525.062 1.046.093 1.56.093 1.65 0 2.531-.266 3.314-.8.794-.532 1.199-1.439 1.199-2.433 0-.48-.078-.897-.232-1.252-.145-.355-.407-.68-.789-.972-.37-.302-.87-.59-1.5-.866a25.455 25.455 0 00-2.313-.918 15.935 15.935 0 01-2.396-1.012c-.67-.373-1.226-.79-1.67-1.252a4.614 4.614 0 01-.973-1.571c-.206-.586-.31-1.252-.31-1.998 0-.78.165-1.478.495-2.09a4.429 4.429 0 011.391-1.545c.598-.426 1.31-.75 2.134-.972.834-.222 2.02-.333 3.019-.333 1.226 0 2.329.102 3.308.306.979.196 1.85.449 2.612.76l-1.035 1.913a15.75 15.75 0 00-2.288-.666 11.633 11.633 0 00-2.628-.293c-1.257 0-2.499.253-3.19.759-.69.497-1.035 1.336-1.035 2.188 0 .506.077.945.232 1.318.154.364.412.697.773.999.36.293.835.572 1.422.839.598.257 1.263.532 2.128.825.938.32 1.757.648 2.458.986.711.337 1.304.719 1.778 1.145.474.426.83.919 1.066 1.478.248.56.371 1.22.371 1.984z" fill="#fff"/><path opacity=".7" stroke="#000" stroke-width="2" stroke-linejoin="round" d="M4 15h24v1H4z"/><path fill="#fff" d="M4 15h24v1H4z"/></svg>