<svg xmlns="http://www.w3.org/2000/svg" viewBox="0 0 32 32"><path d="M10.75 4A6.75 6.75 0 004 10.75c0 .796.086 1.607.422 2.25 3.422 6.387 7.557 6.97 11.531 14.906v.047c.01.02.037.027.047.047l.047-.094C20.02 19.97 24.156 19.387 27.578 13c.336-.643.422-1.454.422-2.25A6.75 6.75 0 0021.25 4c-2.11 0-3.966.968-5.203 2.484-.014.017-.034.03-.047.047-.013-.017-.033-.03-.047-.047C14.716 4.968 12.86 4 10.75 4z" stroke="#000" opacity=".7" stroke-width="2" stroke-linejoin="round"/><path d="M10.75 4A6.75 6.75 0 004 10.75c0 .796.086 1.607.422 2.25 3.422 6.387 7.557 6.97 11.531 14.906v.047c.01.02.037.027.047.047l.047-.094C20.02 19.97 24.156 19.387 27.578 13c.336-.643.422-1.454.422-2.25A6.75 6.75 0 0021.25 4c-2.11 0-3.966.968-5.203 2.484-.014.017-.034.03-.047.047-.013-.017-.033-.03-.047-.047C14.716 4.968 12.86 4 10.75 4z" fill="#fff"/></svg>