<svg xmlns="http://www.w3.org/2000/svg" xmlns:xlink="http://www.w3.org/1999/xlink" height="32" width="32"><defs><linearGradient xlink:href="#a" id="b" x1="16" y1="6" x2="16" y2="26" gradientUnits="userSpaceOnUse"/><linearGradient id="a"><stop offset="0" stop-color="#151515"/><stop offset="1" stop-color="#4d4d4d"/></linearGradient></defs><path d="M14 6L5 26h3l2.908-6h10.184L24 26h3L18 6h-2zm2 2.402L19.85 17h-7.7z" stroke="#fff" stroke-width="2" stroke-linejoin="round"/><path d="M14 6L5 26h3l2.908-6h10.184L24 26h3L18 6h-2zm2 2.402L19.85 17h-7.7z" fill="url(#b)"/><path d="M26 13a5 5 0 100 10v6h1V14h1v15h1V13h-2z" opacity=".7" stroke="#000" stroke-width="2" stroke-linejoin="round"/><path d="M26 13a5 5 0 100 10v6h1V14h1v15h1V13h-2z" fill="#aee3f8"/></svg>