<svg xmlns="http://www.w3.org/2000/svg" viewBox="0 0 32 32"><path d="M28 5.996c-.014-1.258.031-2.18-.384-2.932a1.88 1.88 0 00-.998-.838c-.44-.164-.96-.247-1.618-.224H7c-.658 0-1.179.06-1.618.224a1.875 1.875 0 00-.996.838c-.415.753-.371 1.674-.386 2.932v20.012c.014 1.258-.031 2.178.384 2.931.208.377.56.673.998.838.44.165.96.231 1.618.225h18c.658 0 1.179-.06 1.618-.225.438-.165.788-.461.996-.838.415-.753.371-1.673.386-2.932V6z" style="line-height:125%;-inkscape-font-specification:Ubuntu;text-align:center" font-weight="400" font-size="15" font-family="Ubuntu" letter-spacing="0" word-spacing="0" text-anchor="middle" opacity=".6"/><path d="M26.973 10.985c-.01-1.557.012-5.11-.039-6.66-.042-.461-.206-1.016-.71-1.155-.635-.22-1.333-.109-1.981-.146-2.297-.008-15.597-.023-17.886.021-.462.04-1.013.203-1.164.7-.225.632-.123 1.283-.154 1.935-.007 1.424-.011 4.85-.012 6.277 0 1.704.005 13.408.019 15.107.012.512-.02 1.183.405 1.585.54.42 1.268.287 1.904.322 2.444.012 15.911.028 18.357-.022.402-.049.863-.17 1.044-.575.294-.668.168-1.426.206-2.126.012-1.754.012-13.509.011-15.263z" fill="#fa9381"/><path d="M22 9h-2v6H10v2h10v6h2z" fill="#fff"/></svg>