<svg xmlns="http://www.w3.org/2000/svg" viewBox="0 0 32 32"><path style="line-height:125%;-inkscape-font-specification:Ubuntu;text-align:center" d="M28.006 6.994c-.014-1.258.03-2.178-.384-2.931a1.88 1.88 0 00-.998-.838c-.44-.165-.96-.225-1.618-.225H7.005c-.657 0-1.178.06-1.617.225a1.875 1.875 0 00-.996.838c-.415.752-.371 1.673-.387 2.931v18.012c.015 1.258-.03 2.18.385 2.932.208.376.56.673.998.838.439.164.96.224 1.617.224h18.001c.658 0 1.179-.06 1.618-.224.438-.165.788-.462.996-.838.415-.753.371-1.674.386-2.932V6.998z" font-weight="400" font-size="15" font-family="Ubuntu" letter-spacing="0" word-spacing="0" text-anchor="middle" opacity=".6"/><path d="M26.98 11.984c-.012-1.557.01-5.11-.04-6.66-.042-.462-.206-1.016-.71-1.156-.635-.219-1.333-.108-1.982-.145C21.951 4.015 8.652 4 6.362 4.044c-.462.04-1.012.203-1.163.699-.225.632-.123 1.284-.155 1.936-.006 1.424-.01 4.85-.01 6.276-.001 1.705.004 11.409.018 13.107.012.512-.02 1.184.405 1.585.54.421 1.268.287 1.904.323 2.444.012 15.911.028 18.357-.022.402-.05.863-.17 1.044-.575.294-.668.168-1.426.206-2.126.012-1.754.012-11.509.011-13.263z" fill="#fa9381"/><path d="M23.006 7.994h-2v7h-12v2h12v7h2z" fill="#fff"/><circle cy="26.5" cx="26.5" r="4.5" fill="#46a926"/><path overflow="visible" font-weight="400" style="line-height:normal;text-indent:0;text-align:start;text-decoration-line:none;text-decoration-style:solid;text-decoration-color:#000;text-transform:none;white-space:normal;isolation:auto;mix-blend-mode:normal;marker:none" d="M26 24v2h-2v1h2v2h1v-2h2v-1h-2v-2z" color="#000" font-family="sans-serif" fill="#fff"/></svg>