<svg xmlns="http://www.w3.org/2000/svg" viewBox="0 0 32 32"><path d="M7.776 7.776a9.5 9.5 0 000 13.435 9.5 9.5 0 0013.072.344l5.667 5.667.707-.707-5.667-5.667a9.5 9.5 0 00-.344-13.072 9.5 9.5 0 00-13.435 0z" opacity=".7" fill-rule="evenodd" stroke="#000" stroke-width="2" stroke-linecap="round" stroke-linejoin="round"/><path d="M14.44 4.994a9.5 9.5 0 00-6.665 2.781 9.5 9.5 0 000 13.436 9.5 9.5 0 0013.073.344l5.666 5.666.707-.707-5.666-5.666a9.5 9.5 0 00-.344-13.073 9.5 9.5 0 00-6.772-2.78z" fill="#fff" fill-rule="evenodd"/><text style="line-height:1.25;-inkscape-font-specification:'Ubuntu Mono, Bold';font-variant-ligatures:normal;font-variant-caps:normal;font-variant-numeric:normal;font-feature-settings:normal;text-align:start" x="10.656" y="19" font-weight="700" font-size="16" font-family="Ubuntu Mono" letter-spacing="0" word-spacing="0" fill="#232629"><tspan x="10.656" y="19">1</tspan></text></svg>