<svg xmlns="http://www.w3.org/2000/svg" viewBox="0 0 32 32"><path fill="#2daaaa" d="M0 24h8v8H0z"/><path fill="#46a926" d="M8 24h8v8H8z"/><path fill="#fdc92b" d="M16 24h8v8h-8z"/><path fill="#f34f17" d="M24 24h8v8h-8z"/><path fill="#31c6b7" d="M0 16h8v8H0z"/><path fill="#76c22b" d="M8 16h8v8H8z"/><path fill="#ffda64" d="M16 16h8v8h-8z"/><path fill="#fb7c38" d="M24 16h8v8h-8z"/><path fill="#5bdbc1" d="M0 8h8v8H0z"/><path fill="#a6d74f" d="M8 8h8v8H8z"/><path fill="#fee581" d="M16 8h8v8h-8z"/><path fill="#fda463" d="M24 8h8v8h-8z"/><path fill="#81e9c0" d="M0 0h8v8H0z"/><path fill="#cbe667" d="M8 0h8v8H8z"/><path fill="#fff4c9" d="M16 0h8v8h-8z"/><path fill="#fec589" d="M24 0h8v8h-8z"/><path d="M4 4v2h24V4zM4 9v1h24V9zM5 13v2h2v-2zM9 13v2h2v-2zM13 13v2h2v-2zM17 13v2h2v-2zM21 13v2h2v-2zM4 18v1h24v-1zM5 22v1h1v-1zM8 22v1h1v-1zM11 22v1h1v-1zM14 22v1h1v-1zM17 22v1h1v-1zM20 22v1h1v-1zM4 26v2h24v-2zM25 13v2h2v-2zM23 22v1h1v-1zM26 22v1h1v-1z" fill="#232629"/></svg>