<svg xmlns="http://www.w3.org/2000/svg" viewBox="0 0 32 32"><path d="M7 3c-1.258.014-2.179-.03-2.932.385a1.88 1.88 0 00-.838.998c-.164.438-.224.96-.224 1.617v19.001c0 .657.06 1.178.224 1.617.165.438.462.788.838.996.753.415 1.674.372 2.932.387h18.012c1.258-.015 2.179.03 2.931-.385a1.88 1.88 0 00.838-.998c.165-.439.225-.96.225-1.617V6c0-.658-.06-1.179-.225-1.617a1.875 1.875 0 00-.838-.996c-.752-.415-1.673-.372-2.931-.387H7.004z" style="line-height:125%;-inkscape-font-specification:Ubuntu;text-align:center" font-weight="400" font-size="15" font-family="Ubuntu" letter-spacing="0" word-spacing="0" text-anchor="middle" opacity=".7"/><path d="M11.99 4.027c-1.557.011-5.11-.012-6.66.039-.462.043-1.017.206-1.156.71-.219.635-.108 1.334-.146 1.982-.008 2.297-.023 16.596.022 18.886.039.462.202 1.012.698 1.163.633.225 1.285.123 1.936.155 1.425.006 12.851.01 14.277.01 1.704.001 3.408-.004 5.107-.018.512-.012 1.184.02 1.585-.405.42-.54.287-1.268.323-1.904.011-2.444.027-16.91-.022-19.356-.05-.402-.17-.863-.576-1.045-.668-.294-1.426-.168-2.125-.205-1.755-.012-11.51-.013-13.264-.012z" fill="#fff"/><path style="line-height:normal;font-variant-ligatures:normal;font-variant-position:normal;font-variant-caps:normal;font-variant-numeric:normal;font-variant-alternates:normal;font-feature-settings:normal;text-indent:0;text-align:start;text-decoration-line:none;text-decoration-style:solid;text-decoration-color:#000;text-transform:none;text-orientation:mixed;white-space:normal;shape-padding:0;isolation:auto;mix-blend-mode:normal" d="M16.164 16.217a7.5 7.5 0 0010.267 10.921l4.261 4.261.707-.707-4.26-4.26a7.5 7.5 0 00-10.975-10.216z" color="#000" font-weight="400" font-family="sans-serif" overflow="visible" opacity=".7" fill-rule="evenodd" stroke="#000" stroke-width="2" stroke-linejoin="round"/><path style="line-height:normal;font-variant-ligatures:normal;font-variant-position:normal;font-variant-caps:normal;font-variant-numeric:normal;font-variant-alternates:normal;font-feature-settings:normal;text-indent:0;text-align:start;text-decoration-line:none;text-decoration-style:solid;text-decoration-color:#000;text-transform:none;text-orientation:mixed;white-space:normal;shape-padding:0;isolation:auto;mix-blend-mode:normal" d="M16.164 16.217a7.5 7.5 0 0010.267 10.921l4.261 4.261.707-.707-4.26-4.26a7.5 7.5 0 00-10.975-10.216z" color="#000" font-weight="400" font-family="sans-serif" overflow="visible" fill="#c8c4b7" fill-rule="evenodd"/><circle cx="21.494" cy="21.494" r="6.5" fill="#fff" fill-rule="evenodd"/></svg>