<svg xmlns="http://www.w3.org/2000/svg" viewBox="0 0 32 32"><path d="M7.216 7.215a11 11 0 000 15.557 11 11 0 0015.184.335l4.968 4.968.707-.707-4.962-4.962a11 11 0 00-.341-15.19 11 11 0 00-15.556 0z" opacity=".6" stroke="#000" stroke-width="2" stroke-linejoin="round"/><path d="M7.216 7.215a11 11 0 000 15.557 11 11 0 0015.184.335l4.968 4.968.707-.707-4.962-4.962a11 11 0 00-.341-15.19 11 11 0 00-15.556 0z" fill="#c8c4b7"/><circle cy="21.204" r="10" transform="rotate(-45)" fill="#fffffe"/><path d="M2 25.5L8 30v-3h5v-3H8v-3z" opacity=".6" stroke="#000" stroke-width="2" stroke-linejoin="round"/><path d="M2 25.5L8 30v-3h5v-3H8v-3z" fill="#aee3f8"/></svg>