<svg height="32" width="32" xmlns:xlink="http://www.w3.org/1999/xlink" xmlns="http://www.w3.org/2000/svg"><defs><linearGradient id="a"><stop style="stop-color:#2e851b;stop-opacity:1" offset="0"/><stop style="stop-color:#18a003;stop-opacity:1" offset="1"/></linearGradient><linearGradient xlink:href="#a" id="d" gradientUnits="userSpaceOnUse" gradientTransform="matrix(0 -.07466 .07509 0 -8.093 34.455)" x1="441.379" y1="240.303" x2="52.965" y2="401.43"/><linearGradient xlink:href="#b" id="e" gradientUnits="userSpaceOnUse" gradientTransform="matrix(0 -.06179 .06007 0 -3.274 31.273)" x1="441.379" y1="240.309" x2="52.965" y2="401.439"/><linearGradient id="b"><stop style="stop-color:#f2f2f2;stop-opacity:1" offset="0"/><stop style="stop-color:#f9f9f9;stop-opacity:1" offset="1"/></linearGradient><linearGradient xlink:href="#c" id="f" x1="336" y1="134" x2="336" y2="162" gradientUnits="userSpaceOnUse" gradientTransform="translate(-320 -132)"/><linearGradient id="c"><stop style="stop-color:#fff;stop-opacity:1" offset="0"/><stop offset=".125" style="stop-color:#fff;stop-opacity:.09803922"/><stop offset=".925" style="stop-color:#fff;stop-opacity:.09803922"/><stop style="stop-color:#fff;stop-opacity:.49803922" offset="1"/></linearGradient></defs><path style="color:#000;font-style:normal;font-variant:normal;font-weight:400;font-stretch:normal;font-size:medium;line-height:normal;font-family:sans-serif;font-variant-ligatures:normal;font-variant-position:normal;font-variant-caps:normal;font-variant-numeric:normal;font-variant-alternates:normal;font-feature-settings:normal;text-indent:0;text-align:start;text-decoration:none;text-decoration-line:none;text-decoration-style:solid;text-decoration-color:#000;letter-spacing:normal;word-spacing:normal;text-transform:none;writing-mode:lr-tb;direction:ltr;text-orientation:mixed;dominant-baseline:auto;baseline-shift:baseline;text-anchor:start;white-space:normal;shape-padding:0;clip-rule:nonzero;display:inline;overflow:visible;visibility:visible;opacity:.1;isolation:auto;mix-blend-mode:normal;color-interpolation:sRGB;color-interpolation-filters:linearRGB;solid-color:#000;solid-opacity:1;fill:#000;fill-opacity:1;fill-rule:nonzero;stroke:none;stroke-width:2;stroke-linecap:butt;stroke-linejoin:miter;stroke-miterlimit:4;stroke-dasharray:none;stroke-dashoffset:0;stroke-opacity:1;marker:none;color-rendering:auto;image-rendering:auto;shape-rendering:auto;text-rendering:auto;enable-background:accumulate" d="M10.194 2c-1.421 0-2.549.03-3.506.191-.957.161-1.791.473-2.412 1.092-.62.62-.937 1.456-1.096 2.414-.16.958-.186 2.087-.18 3.512V24.797c-.007 1.421.021 2.55.18 3.506.16.958.475 1.795 1.096 2.414.62.619 1.455.931 2.412 1.092.957.16 2.085.191 3.506.191h11.615c1.421 0 2.547-.03 3.502-.191.955-.161 1.788-.475 2.406-1.094.619-.62.932-1.454 1.092-2.41.16-.957.191-2.084.191-3.508V9l-7-7z"/><path d="M9.951 1.5c-5.849 0-6.478.597-6.45 6.425v16.15c-.028 5.828.601 6.425 6.45 6.425h12.1c5.849 0 6.45-.597 6.45-6.425V7.714L22.25 1.5z" style="color:#000;display:inline;overflow:visible;visibility:visible;fill:url(#d);fill-opacity:1;fill-rule:nonzero;stroke:none;stroke-width:1;marker:none;enable-background:accumulate"/><path d="M11.161 4c-5.16 0-5.16 0-5.16 5.317v13.366c0 5.317 0 5.317 5.16 5.317h9.68C26 28 26 28 26 22.683V8l-4-4z" style="color:#000;display:inline;overflow:visible;visibility:visible;fill:url(#e);fill-opacity:1;fill-rule:nonzero;stroke:none;stroke-width:1;marker:none;enable-background:accumulate"/><g style="clip-rule:evenodd;display:inline;fill-rule:evenodd;enable-background:new"><path d="M356 138h-12a2 2 0 0 0-2 2v9a2 2 0 0 0 2 2h12a2 2 0 0 0 2-2v-9a2 2 0 0 0-2-2z" style="fill:#ccf4c6;fill-rule:nonzero" transform="translate(-334.005 -125.998)"/></g><g style="clip-rule:evenodd;display:inline;fill-rule:evenodd;enable-background:new"><path d="M356 138h-12a2 2 0 0 0 0 4h12a2 2 0 1 0 0-4z" style="fill:#92e285;fill-rule:nonzero" transform="translate(-334.005 -125.998)"/></g><g style="clip-rule:evenodd;display:inline;fill-rule:evenodd;enable-background:new"><path d="M344 138a2 2 0 0 0-2 2v9a2 2 0 0 0 2 2h12a2 2 0 0 0 2-2v-9a2 2 0 0 0-2-2zm-1 2a1 1 0 0 1 1-1h3v2h-4zm5-1h4v2h-4zm5 0h3a1 1 0 0 1 1 1v1h-4zm-10 3h4v2h-4zm5 0h4v2h-4zm5 0h4v2h-4zm-10 3h4v2h-4zm5 0h4v2h-4zm5 0h4v2h-4zm-10 3h4v2h-3a1 1 0 0 1-1-1zm5 0h4v2h-4zm5 0h4v1a1 1 0 0 1-1 1h-3z" style="fill:#148203;fill-rule:nonzero" transform="translate(-334.005 -125.998)"/></g><g style="clip-rule:evenodd;display:inline;fill-rule:evenodd;enable-background:new"><path d="M358 144h-6a1 1 0 0 0-1 1v6a1 1 0 0 0 1 1h6a1 1 0 0 0 1-1v-6a1 1 0 0 0-1-1z" style="fill:#148403;fill-rule:nonzero" transform="translate(-334.005 -125.998)"/></g><g style="clip-rule:evenodd;display:inline;fill-rule:evenodd;enable-background:new"><path d="M357.5 145h-5a.5.5 0 0 0-.5.5v5a.5.5 0 0 0 .5.5h5a.5.5 0 0 0 .5-.5v-5a.5.5 0 0 0-.5-.5z" style="fill:#ccc;fill-rule:nonzero" transform="translate(-334.005 -125.998)"/></g><g style="clip-rule:evenodd;display:inline;fill-rule:evenodd;enable-background:new"><path d="M357.5 145h-5a.5.5 0 0 0-.5.5v5a.5.5 0 0 0 .5.5h5a.5.5 0 0 0 .5-.5v-5a.5.5 0 0 0-.5-.5z" style="fill:#ccf4c6;fill-rule:nonzero" transform="translate(-334.005 -125.998)"/></g><g style="clip-rule:evenodd;display:inline;fill-rule:evenodd;enable-background:new"><path d="M355 148h-1a1 1 0 0 0-1 1v2h2z" style="fill:#41b02f;fill-rule:nonzero" transform="translate(-334.005 -125.998)"/></g><g style="clip-rule:evenodd;display:inline;fill-rule:evenodd;enable-background:new"><path d="M357 151v-4a1 1 0 0 0-2 0v4z" style="fill:#148503;fill-rule:nonzero" transform="translate(-334.005 -125.998)"/></g><g style="clip-rule:evenodd;display:inline;fill-rule:evenodd;enable-background:new"><path style="fill:#92e285;fill-rule:nonzero" d="M354 148h1v2h-1z" transform="translate(-334.005 -125.998)"/></g><g style="clip-rule:evenodd;display:inline;fill-rule:evenodd;enable-background:new"><path d="M357 150v-3a1 1 0 0 0-1-1v4z" style="fill:#41b02f;fill-rule:nonzero" transform="translate(-334.005 -125.998)"/></g><path style="color:#000;display:inline;overflow:visible;visibility:visible;opacity:.2;fill:#fff;fill-opacity:1;fill-rule:nonzero;stroke:none;stroke-width:1;marker:none;enable-background:accumulate" d="M4 16v7.797C3.973 29.424 4.578 30 10.194 30h11.615C27.424 30 28 29.424 28 23.797V16z"/><path style="color:#000;display:inline;overflow:visible;visibility:visible;opacity:.2;fill:#fff;fill-opacity:1;fill-rule:nonzero;stroke:none;stroke-width:1;marker:none;enable-background:accumulate" d="M16 2v28h5.81c5.614 0 6.19-.576 6.19-6.203V8l-6-6z"/><path style="color:#000;font-style:normal;font-variant:normal;font-weight:400;font-stretch:normal;font-size:medium;line-height:normal;font-family:sans-serif;font-variant-ligatures:normal;font-variant-position:normal;font-variant-caps:normal;font-variant-numeric:normal;font-variant-alternates:normal;font-feature-settings:normal;text-indent:0;text-align:start;text-decoration:none;text-decoration-line:none;text-decoration-style:solid;text-decoration-color:#000;letter-spacing:normal;word-spacing:normal;text-transform:none;writing-mode:lr-tb;direction:ltr;text-orientation:mixed;dominant-baseline:auto;baseline-shift:baseline;text-anchor:start;white-space:normal;shape-padding:0;clip-rule:nonzero;display:inline;overflow:visible;visibility:visible;opacity:.4;isolation:auto;mix-blend-mode:normal;color-interpolation:sRGB;color-interpolation-filters:linearRGB;solid-color:#000;solid-opacity:1;fill:#000;fill-opacity:1;fill-rule:nonzero;stroke:none;stroke-width:2;stroke-linecap:butt;stroke-linejoin:miter;stroke-miterlimit:4;stroke-dasharray:none;stroke-dashoffset:0;stroke-opacity:1;marker:none;color-rendering:auto;image-rendering:auto;shape-rendering:auto;text-rendering:auto;enable-background:accumulate" d="M10.194 1c-1.421 0-2.549.03-3.506.191-.957.161-1.791.473-2.412 1.092-.62.62-.937 1.456-1.096 2.414-.16.958-.186 2.087-.18 3.512V23.797c-.007 1.421.021 2.55.18 3.506.16.958.475 1.795 1.096 2.414.62.619 1.455.931 2.412 1.092.957.16 2.085.191 3.506.191h11.615c1.421 0 2.547-.03 3.502-.191.955-.161 1.788-.475 2.406-1.094.619-.62.932-1.454 1.092-2.41.16-.957.191-2.084.191-3.508V7.79L22.223 1zm0 1h11.615L28 8.203v15.594C28 29.424 27.424 30 21.81 30H10.193C4.578 30 3.973 29.424 4 23.797V8.203C3.973 2.576 4.578 2 10.194 2z"/><path style="color:#000;font-style:normal;font-variant:normal;font-weight:400;font-stretch:normal;font-size:medium;line-height:normal;font-family:sans-serif;font-variant-ligatures:normal;font-variant-position:normal;font-variant-caps:normal;font-variant-numeric:normal;font-variant-alternates:normal;font-feature-settings:normal;text-indent:0;text-align:start;text-decoration:none;text-decoration-line:none;text-decoration-style:solid;text-decoration-color:#000;letter-spacing:normal;word-spacing:normal;text-transform:none;writing-mode:lr-tb;direction:ltr;text-orientation:mixed;dominant-baseline:auto;baseline-shift:baseline;text-anchor:start;white-space:normal;shape-padding:0;clip-rule:nonzero;display:inline;overflow:visible;visibility:visible;opacity:.4;isolation:auto;mix-blend-mode:normal;color-interpolation:sRGB;color-interpolation-filters:linearRGB;solid-color:#000;solid-opacity:1;fill:url(#f);fill-opacity:1;fill-rule:nonzero;stroke:none;stroke-width:2;stroke-linecap:butt;stroke-linejoin:miter;stroke-miterlimit:4;stroke-dasharray:none;stroke-dashoffset:0;stroke-opacity:1;marker:none;color-rendering:auto;image-rendering:auto;shape-rendering:auto;text-rendering:auto;enable-background:accumulate" d="M10.194 2C4.578 2 3.973 2.576 4 8.203v15.594C3.973 29.424 4.578 30 10.194 30h11.615C27.424 30 28 29.424 28 23.797V8.203L21.81 2zm0 1h11.615L27 8.203v15.594c0 1.39-.04 2.443-.164 3.178-.123.734-.305 1.1-.533 1.328-.227.228-.592.41-1.324.533-.732.123-1.783.164-3.17.164H10.194c-1.387 0-2.441-.04-3.176-.164-.735-.123-1.101-.307-1.33-.535-.229-.229-.411-.594-.533-1.326-.122-.733-.161-1.786-.155-3.174V8.199c-.007-1.389.033-2.443.155-3.176.122-.732.304-1.095.533-1.324.229-.228.595-.412 1.33-.535C7.753 3.041 8.808 3 10.194 3z"/><path style="color:#000;display:inline;overflow:visible;visibility:visible;opacity:.6;fill:#1a510f;fill-opacity:1;fill-rule:nonzero;stroke:none;stroke-width:.250023;marker:none;enable-background:accumulate" d="M28 9V8l-6-6h-1V4.836c0 3.622.485 4.18 4.116 4.163z"/><path style="color:#000;display:inline;overflow:visible;visibility:visible;fill:#54ad45;fill-opacity:1;fill-rule:nonzero;stroke:none;stroke-width:.250023;marker:none;enable-background:accumulate" d="m28 8-6-6v2.374c0 3.415.158 3.642 3.58 3.625z"/></svg>