<svg xmlns="http://www.w3.org/2000/svg" viewBox="0 0 16 16">/&gt;<path style="opacity:1;fill:#4B8501;fill-opacity:1;fill-rule:nonzero;stroke:none;stroke-width:2.61862;stroke-linecap:round;stroke-linejoin:round;stroke-miterlimit:4;stroke-dasharray:none;stroke-opacity:1" d="M3 1h1v14H3z"/><path style="opacity:1;fill:#4B8501;fill-opacity:1;fill-rule:nonzero;stroke:none;stroke-width:2.61861;stroke-linecap:round;stroke-linejoin:round;stroke-miterlimit:4;stroke-dasharray:none;stroke-opacity:1" transform="rotate(90)" d="M12-15h1v14h-1z"/><path style="opacity:.7;fill:#000;stroke:#000;stroke-width:2;stroke-linejoin:round;stroke-miterlimit:4;stroke-dasharray:none" d="M12 8c-1 0-2 0-2 1.5V11H9v4h6v-4h-1V9.5C14 8 13 8 12 8zm0 1c1 0 1 .5 1 1v1h-2v-1c0-.5 0-1 1-1z"/><path d="M12 8c-1 0-2 0-2 1.5V11H9v4h6v-4h-1V9.5C14 8 13 8 12 8zm0 1c1 0 1 .5 1 1v1h-2v-1c0-.5 0-1 1-1z" style="fill:#fee581;fill-opacity:1"/></svg>