<svg xmlns="http://www.w3.org/2000/svg" viewBox="0 0 16 16">/&gt;<path d="M4.994 1c-1.258.014-2.179-.03-2.932.384a1.88 1.88 0 0 0-.837.999C1.06 2.82 1 3.343 1 4v8c0 .658.06 1.179.225 1.617.164.44.461.789.837.997.753.415 1.674.371 2.932.386h6.012c1.258-.014 2.179.03 2.932-.384a1.88 1.88 0 0 0 .837-.999c.165-.438.225-.96.225-1.617V4c0-.658-.06-1.179-.225-1.617a1.875 1.875 0 0 0-.837-.997c-.753-.415-1.674-.371-2.932-.386H4.998z" style="font-style:normal;font-variant:normal;font-weight:400;font-stretch:normal;font-size:15px;line-height:125%;font-family:Ubuntu;-inkscape-font-specification:Ubuntu;text-align:center;letter-spacing:0;word-spacing:0;writing-mode:lr-tb;text-anchor:middle;display:inline;opacity:.7;fill:#000;fill-opacity:1;stroke:none;stroke-width:.99980211"/><path d="M7.983 2.027c-1.556.01-3.11-.012-4.66.039-.46.042-1.016.206-1.155.71-.219.635-.108 1.333-.146 1.982-.008 2.297-.023 5.596.022 7.885.039.462.202 1.013.699 1.164.632.225 1.284.123 1.936.154 1.424.007 2.85.011 4.276.012 1.704 0 1.408-.005 3.107-.019.512-.012 1.184.02 1.585-.405.421-.54.287-1.268.323-1.904.011-2.444.027-5.911-.022-8.357-.05-.402-.17-.863-.575-1.044-.669-.294-1.427-.168-2.126-.206-1.755-.012-1.51-.012-3.264-.011z" style="opacity:1;vector-effect:none;fill:#d85eca;fill-opacity:1;stroke:none;stroke-width:1;stroke-linecap:round;stroke-linejoin:bevel;stroke-miterlimit:4;stroke-dasharray:none;stroke-dashoffset:0;stroke-opacity:1"/><path style="opacity:1;fill:#fff;fill-opacity:1;stroke:none;stroke-width:8.77999973;stroke-linecap:round;stroke-linejoin:round;stroke-miterlimit:4;stroke-dasharray:none;stroke-opacity:1" d="M5.5 4C4.669 4 4 4.669 4 5.5v1C4 7.331 4.669 8 5.5 8S7 7.331 7 6.5v-1C7 4.669 6.331 4 5.5 4zm0 1c.277 0 .5.335.5.75v.5c0 .415-.223.75-.5.75S5 6.665 5 6.25v-.5c0-.415.223-.75.5-.75zM10.5 8C9.669 8 9 8.669 9 9.5v1c0 .831.669 1.5 1.5 1.5s1.5-.669 1.5-1.5v-1c0-.831-.669-1.5-1.5-1.5zm0 1c.277 0 .5.335.5.75v.5c0 .415-.223.75-.5.75s-.5-.335-.5-.75v-.5c0-.415.223-.75.5-.75z"/><rect style="opacity:1;fill:#fff;fill-opacity:1;stroke:none;stroke-width:8.77999973;stroke-linecap:round;stroke-linejoin:round;stroke-miterlimit:4;stroke-dasharray:none;stroke-opacity:1" width="1" height="9" x="10.814" y="-4.5" ry=".5" transform="rotate(45)"/></svg>