<svg xmlns="http://www.w3.org/2000/svg" viewBox="0 0 16 16"><path style="opacity:.7;vector-effect:none;fill:#000;fill-opacity:1;stroke:none;stroke-width:2;stroke-linecap:round;stroke-linejoin:round;stroke-miterlimit:4;stroke-dasharray:none;stroke-dashoffset:0;stroke-opacity:1" d="M7 1c-.554 0-1 .446-1 1H4c-1.108 0-2 .892-2 2v9c0 1.108.892 2 2 2h8c1.106 0 2-.89 2-2V4c0-1.108-.892-2-2-2h-2c0-.554-.446-1-1-1z"/><rect style="opacity:1;vector-effect:none;fill:#ccc;fill-opacity:1;stroke:none;stroke-width:2;stroke-linecap:round;stroke-linejoin:round;stroke-miterlimit:4;stroke-dasharray:none;stroke-dashoffset:0;stroke-opacity:1" width="10" height="11" x="3" y="3" ry="1" rx="1"/><path style="opacity:1;vector-effect:none;fill:#fff;fill-opacity:1;stroke:none;stroke-width:2;stroke-linecap:round;stroke-linejoin:round;stroke-miterlimit:4;stroke-dasharray:none;stroke-dashoffset:0;stroke-opacity:1" d="M7 2h2v1H7z"/><path style="fill:#fff;fill-rule:evenodd;stroke:none;stroke-width:3;stroke-linecap:round;stroke-linejoin:round" d="M6 3h4v1H6z"/><path d="m8.293 5-1.94 1.94L6 7.292 6.707 8l.354-.354L8 6.707V12h1V5h-.348z" style="fill:#232629"/></svg>