<svg viewBox="0 0 24 24" xmlns="http://www.w3.org/2000/svg"><path d="M6.994 3c-1.258.014-2.179-.03-2.932.384a1.88 1.88 0 0 0-.837.999C3.06 4.82 3 5.343 3 6v12c0 .658.06 1.179.225 1.617.164.44.461.789.837.997.753.415 1.674.371 2.932.386h10.012c1.258-.014 2.179.03 2.932-.384a1.88 1.88 0 0 0 .837-.999c.165-.438.225-.96.225-1.617V6c0-.658-.06-1.179-.225-1.617a1.875 1.875 0 0 0-.837-.997c-.753-.415-1.674-.371-2.932-.386H6.998z" style="font-style:normal;font-variant:normal;font-weight:400;font-stretch:normal;font-size:15px;line-height:125%;font-family:Ubuntu;-inkscape-font-specification:Ubuntu;text-align:center;letter-spacing:0;word-spacing:0;writing-mode:lr-tb;text-anchor:middle;display:inline;opacity:.7;fill:#000;fill-opacity:1;stroke:none;stroke-width:.99980211"/><path d="M11.983 4.027c-1.556.01-5.11-.012-6.66.039-.46.042-1.016.206-1.155.71-.219.635-.108 1.333-.146 1.982-.008 2.297-.023 9.596.022 11.885.039.462.202 1.013.699 1.164.632.225 1.284.123 1.936.154 1.424.007 4.85.011 6.276.012 1.704 0 3.408-.005 5.107-.019.512-.012 1.184.02 1.585-.405.421-.54.287-1.268.323-1.904.011-2.444.027-9.911-.022-12.357-.05-.402-.17-.863-.575-1.044-.669-.294-1.427-.168-2.126-.206a715.985 715.985 0 0 0-5.264-.011z" style="opacity:1;vector-effect:none;fill:#fff;fill-opacity:1;stroke:none;stroke-width:1;stroke-linecap:round;stroke-linejoin:bevel;stroke-miterlimit:4;stroke-dasharray:none;stroke-dashoffset:0;stroke-opacity:1"/><path style="fill:#03875B;fill-opacity:1;stroke-width:1.18322" d="M11 17v-1h6v1z"/><path d="M7.5 17c-.831 0-1.5-.669-1.5-1.5S6.669 14 7.5 14s1.5.669 1.5 1.5S8.331 17 7.5 17z" style="fill:#03875B;fill-opacity:1;stroke-width:1"/><path style="fill:#232629;stroke-width:1.18322" d="M11 16v1h7v-1zM11 14v1h5v-1z" transform="matrix(1 0 0 -1 0 24)"/><path style="fill:#232629;stroke-width:1" d="M7.5 14c-.831 0-1.5.669-1.5 1.5S6.669 17 7.5 17 9 16.331 9 15.5 8.331 14 7.5 14z" transform="matrix(1 0 0 -1 0 24)"/><path d="M11 15v-1h7v1z" style="fill:#03875B;fill-opacity:1;stroke-width:1.18322"/></svg>