<svg xmlns="http://www.w3.org/2000/svg" xmlns:xlink="http://www.w3.org/1999/xlink" viewBox="0 0 16 16"><defs><linearGradient id="a"><stop style="stop-color:#151515;stop-opacity:1" offset="0"/><stop style="stop-color:#4d4d4d;stop-opacity:1" offset="1"/></linearGradient><linearGradient xlink:href="#a" id="b" x1="8" y1="3" x2="8" y2="15" gradientUnits="userSpaceOnUse"/><linearGradient xlink:href="#a" id="c" gradientUnits="userSpaceOnUse" x1="8" y1="3" x2="8" y2="15" gradientTransform="matrix(-1 0 0 1 16.006 0)"/></defs><path style="fill:url(#b);fill-opacity:1;stroke:#fff;stroke-width:2;stroke-linejoin:round" d="M4.006 3.016c-1.105.017-2 .895-2 2v2.5a.503.503 0 0 1-.5.5h-.5v2h.5c.276 0 .5.225.5.502v2.5a2 2 0 0 0 2 2L5 15v-1H4c-.552 0-.99-.448-1-1v-3a1.5 1.5 0 0 0-.375-1c.236-.265.382-.618.375-1V5c0-.552.452-1.07 1-1h1V3z"/><path style="fill:url(#b);fill-opacity:1" d="M4.006 3.016c-1.105.017-2 .895-2 2v2.5a.503.503 0 0 1-.5.5h-.5v2h.5c.276 0 .5.225.5.502v2.5a2 2 0 0 0 2 2L5 15v-1H4c-.552 0-.99-.448-1-1v-3a1.5 1.5 0 0 0-.375-1c.236-.265.382-.618.375-1V5c0-.552.452-1.07 1-1h1V3z"/><path style="color:#000;font-style:normal;font-variant:normal;font-weight:400;font-stretch:normal;font-size:medium;line-height:normal;font-family:sans-serif;font-variant-ligatures:normal;font-variant-position:normal;font-variant-caps:normal;font-variant-numeric:normal;font-variant-alternates:normal;font-variant-east-asian:normal;font-feature-settings:normal;font-variation-settings:normal;text-indent:0;text-align:start;text-decoration:none;text-decoration-line:none;text-decoration-style:solid;text-decoration-color:#000;letter-spacing:normal;word-spacing:normal;text-transform:none;writing-mode:lr-tb;direction:ltr;text-orientation:mixed;dominant-baseline:auto;baseline-shift:baseline;text-anchor:start;white-space:normal;shape-padding:0;shape-margin:0;inline-size:0;clip-rule:nonzero;display:inline;overflow:visible;visibility:visible;isolation:auto;mix-blend-mode:normal;color-interpolation:sRGB;color-interpolation-filters:linearRGB;solid-color:#000;solid-opacity:1;vector-effect:none;fill:#fff;fill-opacity:1;fill-rule:nonzero;stroke:none;stroke-width:2;stroke-linecap:butt;stroke-linejoin:round;stroke-miterlimit:4;stroke-dasharray:none;stroke-dashoffset:0;stroke-opacity:1;color-rendering:auto;image-rendering:auto;shape-rendering:auto;text-rendering:auto;enable-background:accumulate;stop-color:#000;stop-opacity:1;opacity:1" d="m14.402 3.25-2.396 2.02V7.982c-.007.39.223.685.379 1.014-.154.329-.38.627-.38 1.004v3h-1a1 1 0 0 0-1 1v1a1 1 0 0 0 .983 1l.994.018a1 1 0 0 0 .018 0c1.645 0 3-1.355 3-3v-2.002a1 1 0 0 0 1-1v-2a1 1 0 0 0-1-1v-2c0-.664-.228-1.27-.598-1.766z"/><path style="fill:url(#c);fill-opacity:1" d="m13.637 3.895-.752.634a.99.99 0 0 1 .12.471v3c-.006.382.14.735.376 1a1.5 1.5 0 0 0-.375 1v3c-.01.552-.448 1-1 1h-1v1l.994.018a2 2 0 0 0 2-2v-2.5c0-.277.224-.502.5-.502h.5v-2h-.5a.503.503 0 0 1-.5-.5v-2.5c0-.421-.14-.803-.363-1.121z"/><path style="fill:#03875B;fill-opacity:1;stroke:none;stroke-width:1px;stroke-linecap:butt;stroke-linejoin:miter;stroke-opacity:1" d="m12.983 2.485-3-2.5L10 5z"/><path style="color:#000;font-style:normal;font-variant:normal;font-weight:400;font-stretch:normal;font-size:medium;line-height:normal;font-family:sans-serif;font-variant-ligatures:normal;font-variant-position:normal;font-variant-caps:normal;font-variant-numeric:normal;font-variant-alternates:normal;font-variant-east-asian:normal;font-feature-settings:normal;font-variation-settings:normal;text-indent:0;text-align:start;text-decoration:none;text-decoration-line:none;text-decoration-style:solid;text-decoration-color:#000;letter-spacing:normal;word-spacing:normal;text-transform:none;writing-mode:lr-tb;direction:ltr;text-orientation:mixed;dominant-baseline:auto;baseline-shift:baseline;text-anchor:start;white-space:normal;shape-padding:0;shape-margin:0;inline-size:0;clip-rule:nonzero;display:inline;overflow:visible;visibility:visible;isolation:auto;mix-blend-mode:normal;color-interpolation:sRGB;color-interpolation-filters:linearRGB;solid-color:#000;solid-opacity:1;vector-effect:none;fill:#03875B;fill-opacity:1;fill-rule:nonzero;stroke:none;stroke-width:1px;stroke-linecap:square;stroke-linejoin:miter;stroke-miterlimit:4;stroke-dasharray:none;stroke-dashoffset:0;stroke-opacity:1;color-rendering:auto;image-rendering:auto;shape-rendering:auto;text-rendering:auto;enable-background:accumulate;stop-color:#000" d="M7 8h1c.002-.732.01-3.346.045-3.771.044-.526.139-.806.23-.928.092-.122.207-.191.565-.244C9.198 3.004 9.75 3 10.5 3h.5V2h-.5c-.75 0-1.323-.004-1.809.068-.485.072-.933.253-1.216.631-.284.378-.376.848-.426 1.447C7.009 4.633 7 7.261 7 8z"/></svg>