<svg xmlns="http://www.w3.org/2000/svg" xmlns:xlink="http://www.w3.org/1999/xlink" viewBox="0 0 16 16"><defs><linearGradient id="a"><stop style="stop-color:#151515;stop-opacity:1" offset="0"/><stop style="stop-color:#4d4d4d;stop-opacity:1" offset="1"/></linearGradient><linearGradient xlink:href="#a" id="b" x1="10" y1="3" x2="10" y2="14" gradientUnits="userSpaceOnUse"/></defs><path d="M4 8a3 3 0 0 0-3 3 3 3 0 0 0 3 3 3 3 0 0 0 1-.176V14h2V8H5v.176A3 3 0 0 0 4 8zm0 2a1 1 0 0 1 1 1 1 1 0 0 1-1 1 1 1 0 0 1-1-1 1 1 0 0 1 1-1z" style="opacity:1;fill:#000;fill-opacity:1;fill-rule:evenodd;stroke:#fff;stroke-width:2;stroke-linecap:butt;stroke-linejoin:round;stroke-miterlimit:4;stroke-dasharray:none;stroke-opacity:1"/><path d="M9 3v11h2v-.176A3 3 0 0 0 12 14a3 3 0 0 0 3-3 3 3 0 0 0-3-3 3 3 0 0 0-1 .176V3h-1zm3 6a2 2 0 0 0-.156.008A2 2 0 0 1 12 9zm.156.008a2 2 0 0 1 .14.015 2 2 0 0 0-.14-.015zm-.453.015a2 2 0 0 0-.062.01 2 2 0 0 1 .062-.01zm.656.01a2 2 0 0 1 .106.024 2 2 0 0 0-.106-.024zm-.824.024a2 2 0 0 0-.105.027 2 2 0 0 1 .105-.027zm1.035.027a2 2 0 0 1 .092.031 2 2 0 0 0-.092-.031zm-1.232.031a2 2 0 0 0-.082.031 2 2 0 0 1 .082-.03zm1.406.031a2 2 0 0 1 .106.045 2 2 0 0 0-.106-.045zm-1.594.045a2 2 0 0 0-.076.038 2 2 0 0 1 .076-.038zm1.778.04a2 2 0 0 1 .092.05 2 2 0 0 0-.092-.05zm.342.224a2 2 0 0 1 .068.06 2 2 0 0 0-.068-.06zm.144.13a2 2 0 0 1 .07.077 2 2 0 0 0-.07-.076zm.13.145a2 2 0 0 1 .077.102 2 2 0 0 0-.076-.102zm.118.159a2 2 0 0 1 .057.091 2 2 0 0 0-.057-.091zM12 10a1 1 0 0 1 1 1 1 1 0 0 1-1 1 1 1 0 0 1-1-1 1 1 0 0 1 1-1zm1.77.072a2 2 0 0 1 .039.078 2 2 0 0 0-.04-.078zm.084.184a2 2 0 0 1 .03.082 2 2 0 0 0-.03-.082zm.062.174a2 2 0 0 1 .027.105 2 2 0 0 0-.027-.105zm.05.21a2 2 0 0 1 .01.063 2 2 0 0 0-.01-.062zm.026.204A2 2 0 0 1 14 11a2 2 0 0 0-.008-.156zm0 .312a2 2 0 0 1-.015.14 2 2 0 0 0 .015-.14zm-.025.203a2 2 0 0 1-.024.106 2 2 0 0 0 .024-.106zm-.051.211a2 2 0 0 1-.031.092 2 2 0 0 0 .031-.092zm-.062.174a2 2 0 0 1-.045.106 2 2 0 0 0 .045-.106zm-.084.184a2 2 0 0 1-.051.092 2 2 0 0 0 .05-.092zm-.225.342a2 2 0 0 1-.06.068 2 2 0 0 0 .06-.068zm-.13.144a2 2 0 0 1-.077.07 2 2 0 0 0 .076-.07zm-.145.13a2 2 0 0 1-.102.077 2 2 0 0 0 .102-.076zm-.159.118a2 2 0 0 1-.091.057 2 2 0 0 0 .091-.057zM11 12.73a2 2 0 0 0 .072.04 2 2 0 0 1-.072-.04zm1.928.04a2 2 0 0 1-.078.039 2 2 0 0 0 .078-.04zm-1.778.039a2 2 0 0 0 .106.045 2 2 0 0 1-.106-.045zm1.594.045a2 2 0 0 1-.082.03 2 2 0 0 0 .082-.03zm-1.406.03a2 2 0 0 0 .092.032 2 2 0 0 1-.092-.031zm1.232.032a2 2 0 0 1-.105.027 2 2 0 0 0 .105-.027zm-1.035.027a2 2 0 0 0 .106.024 2 2 0 0 1-.106-.024zm.824.024a2 2 0 0 1-.062.01 2 2 0 0 0 .062-.01zm-.656.01a2 2 0 0 0 .14.015 2 2 0 0 1-.14-.015zm.453.015A2 2 0 0 1 12 13a2 2 0 0 0 .156-.008z" style="opacity:1;fill:#000;stroke:#fff;stroke-width:2;stroke-miterlimit:4;stroke-dasharray:none;stroke-linejoin:round"/><path d="m1 2 2.5 3L6 2z" style="fill:#03875B;fill-opacity:1"/><path style="opacity:1;fill:url(#b);fill-opacity:1;fill-rule:evenodd;stroke:none;stroke-width:2;stroke-linecap:butt;stroke-linejoin:round;stroke-miterlimit:4;stroke-dasharray:none;stroke-opacity:1" d="M9 3v11h2v-.176A3 3 0 0 0 12 14a3 3 0 0 0 3-3 3 3 0 0 0-3-3 3 3 0 0 0-1 .176V3H9zM4 8a3 3 0 0 0-3 3 3 3 0 0 0 3 3 3 3 0 0 0 1-.176V14h2V8H5v.176A3 3 0 0 0 4 8zm8.2 1.012a2 2 0 0 1 .097.011 2 2 0 0 0-.098-.011zM4 10a1 1 0 0 1 1 1 1 1 0 0 1-1 1 1 1 0 0 1-1-1 1 1 0 0 1 1-1zm8 0a1 1 0 0 1 1 1 1 1 0 0 1-1 1 1 1 0 0 1-1-1 1 1 0 0 1 1-1zm1.992.844a2 2 0 0 1 .006.082 2 2 0 0 0-.006-.082zm-.004.355a2 2 0 0 1-.011.098 2 2 0 0 0 .011-.098zm-2.285 1.778a2 2 0 0 0 .098.011 2 2 0 0 1-.098-.011zm.453.015a2 2 0 0 1-.082.006 2 2 0 0 0 .082-.006z"/></svg>