<svg xmlns="http://www.w3.org/2000/svg" viewBox="0 0 16 16">/&gt;<path d="m16 8-4 3V9h-2V7h2V5z" style="fill:#03875B;fill-opacity:1;stroke:none;stroke-width:1px;stroke-linecap:butt;stroke-linejoin:miter;stroke-opacity:1"/><path style="fill:#fff;fill-opacity:1;stroke:none;stroke-width:2;stroke-linejoin:round;stroke-miterlimit:4;stroke-dasharray:none" transform="rotate(-90)" d="M-14 7h12v2h-12z"/><path style="fill:#6d6d6d;fill-opacity:1" d="M6 15h4V1H6v9zm1-1v-3h2v3zm0-4V6h2v4zm0-5V2h2v3z"/><path style="fill:#fff;fill-opacity:1;stroke:none;stroke-width:2;stroke-linejoin:round;stroke-miterlimit:4;stroke-dasharray:none" transform="rotate(-90)" d="M-14 2h12v2h-12z"/><path d="M1 15h4V1H1v9zm1-1v-3h2v3zm0-4V6h2v4zm0-5V2h2v3z" style="fill:#6d6d6d;fill-opacity:1"/></svg>