<svg viewBox="0 0 16 16" xmlns="http://www.w3.org/2000/svg">/&gt;<rect rx="1" ry="1" y="4" x="4" height="5" width="5" style="opacity:.7;vector-effect:none;fill:#000;fill-opacity:1;stroke:#000;stroke-width:2;stroke-linecap:round;stroke-linejoin:round;stroke-miterlimit:4;stroke-dasharray:none;stroke-dashoffset:0;stroke-opacity:1"/><rect style="opacity:1;vector-effect:none;fill:#fee581;fill-opacity:1;stroke:none;stroke-width:2;stroke-linecap:round;stroke-linejoin:round;stroke-miterlimit:4;stroke-dasharray:none;stroke-dashoffset:0;stroke-opacity:1" width="5" height="5" x="4" y="4" ry="1" rx="1"/><rect style="opacity:.7;vector-effect:none;fill:#000;fill-opacity:1;stroke:none;stroke-width:2;stroke-linecap:round;stroke-linejoin:round;stroke-miterlimit:4;stroke-dasharray:none;stroke-dashoffset:0;stroke-opacity:1" width="7" height="7" x="6" y="6" ry="2" rx="2"/><rect style="opacity:1;vector-effect:none;fill:#c5c9f5;fill-opacity:1;stroke:none;stroke-width:2;stroke-linecap:round;stroke-linejoin:round;stroke-miterlimit:4;stroke-dasharray:none;stroke-dashoffset:0;stroke-opacity:1" width="5" height="5" x="7" y="7" ry="1" rx="1"/><path style="opacity:1;vector-effect:none;fill:#f22c42;fill-opacity:1;stroke:none;stroke-width:2;stroke-linecap:round;stroke-linejoin:miter;stroke-miterlimit:4;stroke-dasharray:none;stroke-dashoffset:0;stroke-opacity:1" d="M1 1h2v2H1zM13 1h2v2h-2zM13 13h2v2h-2zM1 13h2v2H1z"/><path d="M5 8h5V6l5 3-5 3v-2H5z" style="display:inline;opacity:.8;fill:#fff;fill-opacity:1;stroke:#fff;stroke-width:2;stroke-linecap:round;stroke-linejoin:round;stroke-miterlimit:4;stroke-dasharray:none;stroke-dashoffset:0;stroke-opacity:.88059698;enable-background:new"/><path style="display:inline;opacity:1;fill:#f22c42;fill-opacity:1;stroke:none;stroke-width:1;stroke-linecap:round;stroke-linejoin:round;stroke-miterlimit:4;stroke-dasharray:none;stroke-dashoffset:0;stroke-opacity:.88059698;enable-background:new" d="M5 8h5V6l5 3-5 3v-2H5z"/></svg>