<svg height="16" width="16" xmlns="http://www.w3.org/2000/svg"><path style="font-style:normal;font-variant:normal;font-weight:400;font-stretch:normal;font-size:15px;line-height:125%;font-family:Ubuntu;-inkscape-font-specification:Ubuntu;text-align:center;letter-spacing:0;word-spacing:0;writing-mode:lr-tb;text-anchor:middle;display:inline;opacity:.7;fill:#000;fill-opacity:1;stroke:none;stroke-width:.999802" d="M11.994.027c.185.003.347.003.518.004.17 0 .332-.002.515-.004h-1.033zm.518.004c-.994.007-1.773.026-2.416.381a1.88 1.88 0 0 0-.838.998c-.165.439-.225.96-.225 1.617v3c0 .658.06 1.179.225 1.618.057.153.133.294.22.423l2.274-2.695a1 1 0 0 1 .768-.355 1 1 0 0 1 .763.359l2.254 2.705c.091-.132.168-.28.227-.437.164-.44.224-.96.224-1.618v-3c0-.657-.06-1.178-.224-1.617a1.875 1.875 0 0 0-.838-.996C14.283.06 13.504.04 12.512.031z"/><path style="opacity:1;vector-effect:none;fill:#fff;fill-opacity:1;stroke:none;stroke-width:1;stroke-linecap:round;stroke-linejoin:bevel;stroke-miterlimit:4;stroke-dasharray:none;stroke-dashoffset:0;stroke-opacity:1" d="M10.695 1.055c.175 0 .598.003.994.006-.043-.002-.037-.004-.021-.004a43.1 43.1 0 0 0-.639-.002h-.334zm1.01.006c.075 0 .244.004.6.005l.039.002c-.047.002-.165.003-.377.004-.512.012-1.183-.019-1.584.407-.421.54-.289 1.266-.324 1.902-.012 2.444-.029.912.021 3.357.02.161.053.33.11.489l1.562-1.854a1 1 0 0 1 .768-.355 1 1 0 0 1 .763.359l1.54 1.848c.206-.629.101-1.316.138-1.955.008-2.298.023-.598-.022-2.887-.039-.462-.203-1.011-.699-1.162-.616-.22-1.251-.128-1.886-.153a18.72 18.72 0 0 0-.649-.007z"/><path style="font-style:normal;font-variant:normal;font-weight:400;font-stretch:normal;font-size:15px;line-height:125%;font-family:Ubuntu;-inkscape-font-specification:Ubuntu;text-align:center;letter-spacing:0;word-spacing:0;writing-mode:lr-tb;text-anchor:middle;display:inline;opacity:.7;fill:#000;fill-opacity:1;stroke:none;stroke-width:.999802" d="m4.96 5 .517.004L5.994 5H4.961zm.517.004c-.993.007-1.772.026-2.415.38a1.88 1.88 0 0 0-.837.999C2.06 6.82 2 7.343 2 8v3c0 .658.06 1.179.225 1.617.164.439.461.789.837.996.643.355 1.422.375 2.415.383.993-.007 1.773-.026 2.416-.38.26-.144.48-.356.646-.618L8.002 13A1 1 0 0 1 7 12v-1a1 1 0 0 1 .998-1c.27 0 .607-.004.957-.01V8c0-.658-.06-1.179-.225-1.617a1.875 1.875 0 0 0-.837-.996c-.643-.355-1.423-.375-2.416-.383zm0 8.992L4.96 14h1.033l-.517-.004z"/><path style="opacity:1;vector-effect:none;fill:#fff;fill-opacity:1;stroke:none;stroke-width:1;stroke-linecap:round;stroke-linejoin:bevel;stroke-miterlimit:4;stroke-dasharray:none;stroke-dashoffset:0;stroke-opacity:1" d="M5.592 6.027c-.58.002-1.1.005-.53.01.144-.009-.115-.002.92-.01h-.39zm-.53.01c-.072.005-.22.013-.738.03-.461.042-1.017.205-1.156.708-.219.636-.11 1.335-.147 1.983-.007 2.297-.023.597.022 2.887.04.461.203 1.01.7 1.162.616.22 1.252.127 1.888.152a43.692 43.692 0 0 0 .047.002l-.04-.002.378-.004c.414-.01.932.008 1.328-.209A1 1 0 0 1 7 12v-1a1 1 0 0 1 .928-.99c.009-.991.015-.739-.026-2.72-.049-.403-.17-.864-.576-1.046-.668-.294-1.425-.167-2.125-.205-.076 0-.084-.001-.138-.002zm1.229 6.93c.046 0 .042.003.025.004.03 0 .162.002.64.002.956 0 .05-.002-.665-.006z"/><path d="m32-2.988 3.992 5.986.002.002H33v1.006s.004 1.006.602 2.002c.29.485.707 1.015 1.402 1.392S36.646 8 38 8h1v2h-1c-2.899 0-4.587-1.198-5.603-2.523L32 6.959l-.396.518C30.587 8.802 28.899 10 26 10h-1V8h1c1.355 0 2.301-.223 2.996-.6.695-.377 1.111-.907 1.402-1.392A4.345 4.345 0 0 0 31 4.006V3h-2.994l.002-.002z" style="color:#000;font-style:normal;font-variant:normal;font-weight:400;font-stretch:normal;font-size:medium;line-height:normal;font-family:sans-serif;font-variant-ligatures:normal;font-variant-position:normal;font-variant-caps:normal;font-variant-numeric:normal;font-variant-alternates:normal;font-feature-settings:normal;text-indent:0;text-align:start;text-decoration:none;text-decoration-line:none;text-decoration-style:solid;text-decoration-color:#000;letter-spacing:normal;word-spacing:normal;text-transform:none;writing-mode:lr-tb;direction:ltr;text-orientation:mixed;dominant-baseline:auto;baseline-shift:baseline;text-anchor:start;white-space:normal;shape-padding:0;clip-rule:nonzero;display:inline;overflow:visible;visibility:visible;opacity:.7;isolation:auto;mix-blend-mode:normal;color-interpolation:sRGB;color-interpolation-filters:linearRGB;solid-color:#000;solid-opacity:1;vector-effect:none;fill:#000;fill-opacity:1;fill-rule:nonzero;stroke:#000;stroke-width:2;stroke-linecap:butt;stroke-linejoin:round;stroke-miterlimit:4;stroke-dasharray:none;stroke-dashoffset:0;stroke-opacity:1;color-rendering:auto;image-rendering:auto;shape-rendering:auto;text-rendering:auto;enable-background:accumulate"/><path style="color:#000;font-style:normal;font-variant:normal;font-weight:400;font-stretch:normal;font-size:medium;line-height:normal;font-family:sans-serif;font-variant-ligatures:normal;font-variant-position:normal;font-variant-caps:normal;font-variant-numeric:normal;font-variant-alternates:normal;font-feature-settings:normal;text-indent:0;text-align:start;text-decoration:none;text-decoration-line:none;text-decoration-style:solid;text-decoration-color:#000;letter-spacing:normal;word-spacing:normal;text-transform:none;writing-mode:lr-tb;direction:ltr;text-orientation:mixed;dominant-baseline:auto;baseline-shift:baseline;text-anchor:start;white-space:normal;shape-padding:0;clip-rule:nonzero;display:inline;overflow:visible;visibility:visible;opacity:1;isolation:auto;mix-blend-mode:normal;color-interpolation:sRGB;color-interpolation-filters:linearRGB;solid-color:#000;solid-opacity:1;vector-effect:none;fill:#fee581;fill-opacity:1;fill-rule:nonzero;stroke:none;stroke-width:1;stroke-linecap:butt;stroke-linejoin:miter;stroke-miterlimit:4;stroke-dasharray:none;stroke-dashoffset:0;stroke-opacity:1;color-rendering:auto;image-rendering:auto;shape-rendering:auto;text-rendering:auto;enable-background:accumulate" d="m32-2.988 3.992 5.986.002.002H33v1.006s.004 1.006.602 2.002c.29.485.707 1.015 1.402 1.392S36.646 8 38 8h1v2h-1c-2.899 0-4.587-1.198-5.603-2.523L32 6.959l-.396.518C30.587 8.802 28.899 10 26 10h-1V8h1c1.355 0 2.301-.223 2.996-.6.695-.377 1.111-.907 1.402-1.392A4.345 4.345 0 0 0 31 4.006V3h-2.994l.002-.002z"/><path style="fill:#03875B;fill-opacity:1;stroke:none;stroke-width:1px;stroke-linecap:butt;stroke-linejoin:miter;stroke-opacity:1" d="m12.515 6.017 2.5 3L10 9z"/><path style="color:#000;font-style:normal;font-variant:normal;font-weight:400;font-stretch:normal;font-size:medium;line-height:normal;font-family:sans-serif;font-variant-ligatures:normal;font-variant-position:normal;font-variant-caps:normal;font-variant-numeric:normal;font-variant-alternates:normal;font-variant-east-asian:normal;font-feature-settings:normal;font-variation-settings:normal;text-indent:0;text-align:start;text-decoration:none;text-decoration-line:none;text-decoration-style:solid;text-decoration-color:#000;letter-spacing:normal;word-spacing:normal;text-transform:none;writing-mode:lr-tb;direction:ltr;text-orientation:mixed;dominant-baseline:auto;baseline-shift:baseline;text-anchor:start;white-space:normal;shape-padding:0;shape-margin:0;inline-size:0;clip-rule:nonzero;display:inline;overflow:visible;visibility:visible;isolation:auto;mix-blend-mode:normal;color-interpolation:sRGB;color-interpolation-filters:linearRGB;solid-color:#000;solid-opacity:1;vector-effect:none;fill:#03875B;fill-opacity:1;fill-rule:nonzero;stroke:none;stroke-width:1px;stroke-linecap:square;stroke-linejoin:miter;stroke-miterlimit:4;stroke-dasharray:none;stroke-dashoffset:0;stroke-opacity:1;color-rendering:auto;image-rendering:auto;shape-rendering:auto;text-rendering:auto;enable-background:accumulate;stop-color:#000" d="M8 11c.732-.002 2.346-.007 2.771-.043.526-.044.806-.139.928-.23.122-.092.191-.207.244-.565.053-.358.057-.91.057-1.66V8h1v.502c0 .75.004 1.323-.068 1.809-.072.485-.253.933-.631 1.216-.378.284-.848.376-1.447.426-.487.04-2.485.046-2.854.047z"/><path d="M3.994 7c-1.258.015-2.179-.03-2.932.385a1.88 1.88 0 0 0-.837.998C.06 8.82 0 9.343 0 10v3.001c0 .657.06 1.178.225 1.617.164.439.461.788.837.996.753.415 1.674.372 2.932.387h.002-1.04.004c1.258-.015 2.179.03 2.932-.385a1.88 1.88 0 0 0 .838-.998c.164-.439.224-.96.224-1.617V10c0-.658-.06-1.179-.224-1.617a1.875 1.875 0 0 0-.838-.996C5.139 6.972 4.218 7.015 2.96 7h-.002 1.04z" style="font-style:normal;font-variant:normal;font-weight:400;font-stretch:normal;font-size:15px;line-height:125%;font-family:Ubuntu;-inkscape-font-specification:Ubuntu;text-align:center;letter-spacing:0;word-spacing:0;writing-mode:lr-tb;text-anchor:middle;display:inline;opacity:.7;fill:#000;fill-opacity:1;stroke:none;stroke-width:.999802"/><path d="M3.983 8.027c-1.557.011-.11-.012-1.66.039-.46.043-1.016.206-1.155.71-.219.635-.108 1.334-.146 1.982-.008 2.297-.023.596.022 2.886.039.462.202 1.012.699 1.163.632.226 1.284.123 1.936.155 1.424.007-.15.01 1.276.011 1.704 0-2.637-.005-.939-.018.512-.012 1.184.02 1.585-.406.421-.54.287-1.268.323-1.903.012-2.445.028-.912-.022-3.357-.05-.402-.17-.863-.575-1.045C4.659 7.95 3.9 8.076 3.2 8.04c-1.755-.012 2.536-.013.782-.012z" style="opacity:1;vector-effect:none;fill:#fff;fill-opacity:1;stroke:none;stroke-width:1;stroke-linecap:round;stroke-linejoin:bevel;stroke-miterlimit:4;stroke-dasharray:none;stroke-dashoffset:0;stroke-opacity:1"/></svg>