<svg xmlns="http://www.w3.org/2000/svg" viewBox="0 0 32 32"><defs><linearGradient id="a" gradientTransform="matrix(3.54885 0 0 1 -822.227 -30.258)" gradientUnits="userSpaceOnUse" x1="235.915" x2="235.888" y1="35.258" y2="57.14"><stop offset="0" stop-color="#f4f4f4" stop-opacity=".746"/><stop offset=".5" stop-color="#f7f7f7"/><stop offset="1" stop-color="#dcdcdc"/></linearGradient><linearGradient id="b" gradientTransform="matrix(1 0 0 1 -79.013 -278.258)" gradientUnits="userSpaceOnUse" x1="105.472" x2="105.472" y1="283.477" y2="303.339"><stop offset="0" stop-color="#fff"/><stop offset=".063" stop-color="#fff" stop-opacity=".235"/><stop offset=".951" stop-color="#fff" stop-opacity=".157"/><stop offset="1" stop-color="#fff" stop-opacity=".392"/></linearGradient></defs><path d="M3.998 4.033c-1.108 0-2 .892-2 2l.001 11.013c0 1.108.892 2 2 2h24.49c1.109 0 2-.892 2-2V6.033c0-1.108-.893-2-2-2z" fill="url(#a)" transform="translate(0 -1.546)"/><g fill="none" stroke-linecap="round" stroke-linejoin="round"><path d="M28.496 5.035L3.51 5.043c-.554 0-1 .446-1 1l.001 11.013c0 .537.422.964.951.99H28.49c.554 0 1-.446 1-1l-.002-11.013a.997.997 0 00-.992-.998z" stroke="url(#b)" transform="translate(0 -1.546)"/><path d="M3.5 2.5c-1.108 0-2 .891-2 2l.001 11.012a1.99 1.99 0 001.885 1.989H28.49c1.108 0 2-.892 2-2l-.002-11.013a1.99 1.99 0 00-1.879-1.989z" opacity=".2" stroke="#000"/></g><path d="M16 10v19l5.852-6.548L31 22z" fill="#fff" stroke="#fff" stroke-width="2" stroke-linejoin="round"/><path d="M16 10v19l5.852-6.548L31 22z" fill="#232629"/></svg>