<svg xmlns="http://www.w3.org/2000/svg" viewBox="0 0 32 32"><path style="fill:#000;stroke:#000;opacity:.7;stroke-width:2;stroke-miterlimit:4;stroke-dasharray:none;stroke-linejoin:round" d="M21 4v5h7V4h-6zm0 6v5h7v-5zm0 6v5h7v-5zm0 6v5h7v-5z"/><path d="M21 4v5h7V4h-6zm0 6v5h7v-5zm0 6v5h7v-5zm0 6v5h7v-5z" style="fill:#fff"/><path d="M19.799 5.957 0 25.756 4.244 30l19.799-19.799z" style="opacity:.7;fill:#000;fill-opacity:1"/><path d="m19.799 7.371 2.83 2.83-5.658 5.656-2.828-2.828z" style="fill:#fff"/><path style="opacity:1;fill:#fa9381;fill-opacity:1;stroke:none;stroke-width:2;stroke-linecap:round;stroke-linejoin:round;stroke-miterlimit:4;stroke-dasharray:none;stroke-opacity:1" transform="rotate(-45)" d="M-17.212 19.213h17v4h-17z"/></svg>