<svg xmlns="http://www.w3.org/2000/svg" viewBox="0 0 32 32"><path d="M13.5 5.994C7.963 8.157 3.503 17.12 3.5 27.5h1c.007-9.75 4.027-18.208 9-20.424zm5 .016v1.062c4.974 2.216 8.995 10.677 9 20.428h1c-.007-10.374-4.466-19.329-10-21.49z" style="fill:#232629;stroke:#1463a5;stroke-opacity:1"/><path style="opacity:.8;fill:gray;fill-opacity:1" d="M29 4v4h-4V7h-7V5h7V4zm-1 1h-2v2h2zM3 4v4h4V7h7V5H7V4zm1 1h2v2H4z"/><path style="opacity:.7;vector-effect:none;fill:#000;fill-opacity:1;stroke:none;stroke-width:1.5;stroke-linecap:round;stroke-linejoin:round;stroke-miterlimit:4;stroke-dasharray:none;stroke-dashoffset:0;stroke-opacity:1" transform="matrix(0 1 1 0 0 0)" d="M3 13h6v6H3z"/><path d="M28 5h-2v2h2z" style="opacity:1;fill:#fff;fill-opacity:1;fill-rule:nonzero;stroke:none;stroke-width:.5;stroke-linecap:round;stroke-linejoin:round;stroke-miterlimit:4;stroke-dasharray:none;stroke-opacity:1"/><path style="opacity:1;vector-effect:none;fill:#aee3f8;fill-opacity:1;stroke:none;stroke-width:2;stroke-linecap:round;stroke-linejoin:round;stroke-miterlimit:4;stroke-dasharray:none;stroke-dashoffset:0;stroke-opacity:1" transform="matrix(0 1 1 0 0 0)" d="M4 14h4v4H4z"/><path style="opacity:1;fill:#fff;fill-opacity:1;fill-rule:nonzero;stroke:none;stroke-width:.5;stroke-linecap:round;stroke-linejoin:round;stroke-miterlimit:4;stroke-dasharray:none;stroke-opacity:1" d="M4 5h2v2H4z"/></svg>