<svg xmlns="http://www.w3.org/2000/svg" viewBox="0 0 32 32"><path style="opacity:.7;fill:#000;stroke:#000;stroke-width:2;stroke-linejoin:round;stroke-miterlimit:4;stroke-dasharray:none" d="M25 4 4 10l10 18h1.195l-9.71-17.385 18.124-5.18-2.67 10.68L26.883 28H28l-6-12z"/><path d="M25 4 4 10l10 18h1.195l-9.71-17.385 18.124-5.18-2.67 10.68L26.883 28H28l-6-12z" style="fill:#fff"/><circle style="opacity:1;fill:#77216f;fill-opacity:1;stroke:none;stroke-width:2.57142854;stroke-linecap:round;stroke-linejoin:round;stroke-miterlimit:4;stroke-dasharray:none;stroke-opacity:1" cx="25.5" cy="25.5" r="4.5"/><path style="fill:#fff;fill-opacity:1" d="m27.688 24.313-.75.75c.04.137.062.286.062.437 0 .831-.669 1.5-1.5 1.5-.15 0-.3-.021-.438-.063l-.75.75c.355.193.755.313 1.188.313 1.385 0 2.5-1.115 2.5-2.5 0-.433-.12-.833-.313-1.188ZM25.5 23a2.495 2.495 0 0 0-2.5 2.5c0 .433.12.833.313 1.188l.75-.75A1.539 1.539 0 0 1 24 25.5c0-.831.669-1.5 1.5-1.5.15 0 .3.021.438.063l.75-.75A2.475 2.475 0 0 0 25.5 23Z"/></svg>