<svg xmlns="http://www.w3.org/2000/svg" height="32" width="32"><linearGradient id="d" gradientUnits="userSpaceOnUse" x1="3.538" x2="10.308" y1="1038.67" y2="1035.285" gradientTransform="translate(0 -1371.146) scale(1.33333)"><stop offset="0" stop-color="#f01e14"/><stop offset="1" stop-color="#f5d21e"/></linearGradient><linearGradient id="c" gradientUnits="userSpaceOnUse" x1="13.692" x2="17.077" y1="1031.901" y2="1038.67" gradientTransform="translate(0 -1371.146) scale(1.33333)"><stop offset="0" stop-color="#f5d21e"/><stop offset="1" stop-color="#64e10f"/></linearGradient><linearGradient id="b" gradientUnits="userSpaceOnUse" x1="20.462" x2="13.692" y1="1042.054" y2="1045.439" gradientTransform="translate(0 -1371.146) scale(1.33333)"><stop offset="0" stop-color="#64e10f"/><stop offset="1" stop-color="#3c73af"/></linearGradient><linearGradient id="a" gradientUnits="userSpaceOnUse" x1="10.308" x2="5.231" y1="1048.823" y2="1042.054" gradientTransform="translate(0 -1371.146) scale(1.33333)"><stop offset="0" stop-color="#3c73af"/><stop offset="1" stop-color="#f01e14"/></linearGradient><path d="M16 30.667A14.667 14.667 0 015.63 26.37 14.667 14.667 0 011.332 16H16z" fill="url(#a)"/><path d="M30.667 16A14.667 14.667 0 0116 30.667V16z" fill="url(#b)"/><path d="M16 1.333A14.667 14.667 0 0130.667 16H16z" fill="url(#c)"/><path d="M1.333 16A14.667 14.667 0 0116 1.333V16z" fill="url(#d)"/><path d="M20.889 16A4.889 4.889 0 0116 20.889 4.889 4.889 0 0111.111 16 4.889 4.889 0 0116 11.111 4.889 4.889 0 0120.889 16z" fill="#fff"/><g opacity=".7" fill="none" stroke="#000"><path d="M20.889 16A4.889 4.889 0 0116 20.889 4.889 4.889 0 0111.111 16 4.889 4.889 0 0116 11.111 4.889 4.889 0 0120.889 16z" stroke-linejoin="round"/><path d="M30.667 16A14.667 14.667 0 0116 30.667 14.667 14.667 0 011.333 16 14.667 14.667 0 0116 1.333 14.667 14.667 0 0130.667 16z"/></g></svg>