<svg xmlns="http://www.w3.org/2000/svg" viewBox="0 0 32 32"><path d="M7 4a3 3 0 00-3 3 3 3 0 003 3 3 3 0 001.736-.557l14.41 14.41-.34.34L21 26l7 2-2-7-1.78 1.78-.366.366L9.44 8.734A3 3 0 0010 7a3 3 0 00-3-3zm0 1a2 2 0 012 2 2 2 0 01-2 2 2 2 0 01-2-2 2 2 0 012-2z" stroke="#000" opacity=".7" stroke-width="2" stroke-linejoin="round"/><path d="M7 4a3 3 0 00-3 3 3 3 0 003 3 3 3 0 001.736-.557l14.41 14.41-.34.34L21 26l7 2-2-7-1.78 1.78-.366.366L9.44 8.734A3 3 0 0010 7a3 3 0 00-3-3zm0 1a2 2 0 012 2 2 2 0 01-2 2 2 2 0 01-2-2 2 2 0 012-2z" fill="#fff"/></svg>