<svg xmlns="http://www.w3.org/2000/svg" viewBox="0 0 32 32"><path d="M9 4L4 7l5 3V8h14v.008c1.72.248 2.997 1.785 3 3.523a3.5 3.5 0 01-3 3.461L9 15c-2.276.254-3.997 2.21-4 4.5.002 2.29 1.724 4.245 4 4.5h14v3l5-3-5-3v2H9c-1.72-.248-2.998-1.761-3-3.5.003-1.738 1.28-3.244 3-3.492L23 16a4.5 4.5 0 004-4.469c-.003-2.29-1.724-4.277-4-4.531H9V6z" stroke="#000" opacity=".7" stroke-width="2" stroke-linejoin="round"/><path d="M9 4L4 7l5 3V8h14v.008c1.72.248 2.997 1.785 3 3.523a3.5 3.5 0 01-3 3.461L9 15c-2.276.254-3.997 2.21-4 4.5.002 2.29 1.724 4.245 4 4.5h14v3l5-3-5-3v2H9c-1.72-.248-2.998-1.761-3-3.5.003-1.738 1.28-3.244 3-3.492L23 16a4.5 4.5 0 004-4.469c-.003-2.29-1.724-4.277-4-4.531H9V6z" fill="#fff"/></svg>