<svg xmlns="http://www.w3.org/2000/svg" xmlns:xlink="http://www.w3.org/1999/xlink" viewBox="0 0 32 32"><defs><linearGradient id="a"><stop offset="0" stop-color="#151515"/><stop offset="1" stop-color="#4d4d4d"/></linearGradient><linearGradient xlink:href="#a" id="b" gradientUnits="userSpaceOnUse" x1="26" y1="16.6" x2="20" y2="29.444"/></defs><path d="M6.293 3.995L5 5.288v2.54c.055.04 8 10.667 8 10.667v5.008l6 4.502v-9.51l8-10.668V5.288l-1.293-1.293z" opacity=".7" stroke="#000" stroke-width="2" stroke-linejoin="round"/><path d="M6.293 3.995L5 5.288v2.54c.055.04 8 10.667 8 10.667v5.008l6 4.502v-9.51l8-10.668V5.288l-1.293-1.293z" fill="#fff"/><path d="M26.078 17.273l-2.08 3.27H17.5v1h5.861l-1.91 3H17.5v1h3.316l-1.738 2.73.844.537 2.08-3.268H28.5v-1h-5.863l1.91-3H28.5v-1h-3.316l1.738-2.732z" stroke="#fff" stroke-width="3" stroke-linejoin="round"/><path d="M26.078 17.273l-2.08 3.27H17.5v1h5.861l-1.91 3H17.5v1h3.316l-1.738 2.73.844.537 2.08-3.268H28.5v-1h-5.863l1.91-3H28.5v-1h-3.316l1.738-2.732z" fill="#aee3f8" stroke="url(#b)"/></svg>