<svg xmlns="http://www.w3.org/2000/svg" viewBox="0 0 32 32"><path style="opacity:.7;fill:#000;fill-opacity:1;stroke:#000;stroke-width:2;stroke-linejoin:round;stroke-miterlimit:4;stroke-dasharray:none;stroke-opacity:1" d="M4 4h9v9H4zM19 4h9v9h-9zM19 19h9v9h-9z" transform="matrix(0 1 1 0 0 0)"/><path style="opacity:1;fill:#fff;fill-opacity:1;stroke:none;stroke-width:2;stroke-linejoin:round;stroke-miterlimit:4;stroke-dasharray:none;stroke-opacity:1" d="M4 4h9v9H4zM19 4h9v9h-9zM19 19h9v9h-9z" transform="matrix(0 1 1 0 0 0)"/><path d="M13 8v1h6V8Zm-4 5v10h10v-1h-9v-9z" style="opacity:1;fill:#6d6d6d;fill-opacity:1;stroke:none;stroke-width:2;stroke-linejoin:round;stroke-miterlimit:4;stroke-dasharray:none;stroke-opacity:1" transform="matrix(0 1 1 0 0 0)"/></svg>