<svg xmlns="http://www.w3.org/2000/svg" viewBox="0 0 32 32"><path style="opacity:.7;fill:#000;fill-opacity:1;stroke:#000;stroke-width:2;stroke-linejoin:round;stroke-miterlimit:4;stroke-dasharray:none" d="M6 4h20v24H6z"/><path style="opacity:1;fill:#fff;fill-opacity:1;stroke:none;stroke-width:2;stroke-linejoin:round;stroke-miterlimit:4;stroke-dasharray:none" d="M6 4h20v24H6z"/><path style="opacity:1;fill:#232629;fill-opacity:1;stroke:none;stroke-width:2.19089031;stroke-linejoin:round;stroke-miterlimit:4;stroke-dasharray:none" d="M10 14h12v1H10zM10 17h12v1H10zM10 20h12v1H10zM10 23h12v1H10z"/><path style="opacity:1;fill:#232629;fill-opacity:1;stroke:none;stroke-width:2.30940127;stroke-linejoin:round;stroke-miterlimit:4;stroke-dasharray:none" d="M10 8h12v1H10zM10 11h12v1H10z"/><path style="opacity:1;fill:#6d6d6d;fill-opacity:1;stroke:none;stroke-width:2;stroke-linejoin:round;stroke-miterlimit:4;stroke-dasharray:none" d="M7 8h1v1H7zM7 5h1v1H7zM24 8h1v1h-1zM24 5h1v1h-1zM24 14h1v1h-1zM24 11h1v1h-1zM24 20h1v1h-1zM24 17h1v1h-1zM24 26h1v1h-1zM24 23h1v1h-1zM7 26h1v1H7zM7 23h1v1H7zM7 20h1v1H7zM7 17h1v1H7zM7 14h1v1H7zM7 11h1v1H7z"/><g style="display:inline"><path d="M127-173v3h1.992a.451.451 0 0 0 .008.025v10.95l-.008.025H127v3h2c.599 0 1.086-.2 1.5-.46.414.26.901.46 1.5.46h2v-3h-1.992l-.008-.025v-10.95l.008-.025H134v-3h-2c-.599 0-1.086.2-1.5.46-.414-.26-.901-.46-1.5-.46z" style="color:#000;font-style:normal;font-variant:normal;font-weight:400;font-stretch:normal;font-size:medium;line-height:normal;font-family:sans-serif;font-variant-ligatures:normal;font-variant-position:normal;font-variant-caps:normal;font-variant-numeric:normal;font-variant-alternates:normal;font-feature-settings:normal;text-indent:0;text-align:start;text-decoration:none;text-decoration-line:none;text-decoration-style:solid;text-decoration-color:#000;letter-spacing:normal;word-spacing:normal;text-transform:none;writing-mode:lr-tb;direction:ltr;text-orientation:mixed;dominant-baseline:auto;baseline-shift:baseline;text-anchor:start;white-space:normal;shape-padding:0;clip-rule:nonzero;display:inline;overflow:visible;visibility:visible;opacity:1;isolation:auto;mix-blend-mode:normal;color-interpolation:sRGB;color-interpolation-filters:linearRGB;solid-color:#000;solid-opacity:1;vector-effect:none;fill:#fff;fill-opacity:1;fill-rule:evenodd;stroke:none;stroke-width:2;stroke-linecap:butt;stroke-linejoin:miter;stroke-miterlimit:4;stroke-dasharray:none;stroke-dashoffset:0;stroke-opacity:1;color-rendering:auto;image-rendering:auto;shape-rendering:auto;text-rendering:auto;enable-background:accumulate" transform="translate(-104.008 187)"/><path style="color:#000;font-style:normal;font-variant:normal;font-weight:400;font-stretch:normal;font-size:medium;line-height:normal;font-family:sans-serif;font-variant-ligatures:normal;font-variant-position:normal;font-variant-caps:normal;font-variant-numeric:normal;font-variant-alternates:normal;font-feature-settings:normal;text-indent:0;text-align:start;text-decoration:none;text-decoration-line:none;text-decoration-style:solid;text-decoration-color:#000;letter-spacing:normal;word-spacing:normal;text-transform:none;writing-mode:lr-tb;direction:ltr;text-orientation:mixed;dominant-baseline:auto;baseline-shift:baseline;text-anchor:start;white-space:normal;shape-padding:0;clip-rule:nonzero;display:inline;overflow:visible;visibility:visible;opacity:1;isolation:auto;mix-blend-mode:normal;color-interpolation:sRGB;color-interpolation-filters:linearRGB;solid-color:#000;solid-opacity:1;vector-effect:none;fill:#111;fill-opacity:1;fill-rule:evenodd;stroke:none;stroke-width:1px;stroke-linecap:butt;stroke-linejoin:miter;stroke-miterlimit:4;stroke-dasharray:none;stroke-dashoffset:0;stroke-opacity:1;color-rendering:auto;image-rendering:auto;shape-rendering:auto;text-rendering:auto;enable-background:accumulate" d="M128-172v1h1c.583 0 .737.217.865.473.128.255.135.527.135.527v11s-.007.272-.135.527c-.128.256-.403.473-.865.473h-1v1h1c.727 0 1.19-.353 1.5-.738.31.385.773.738 1.5.738h1v-1h-1c-.583 0-.737-.217-.865-.473A1.404 1.404 0 0 1 131-159v-11s.007-.272.135-.527c.128-.256.282-.473.865-.473h1v-1h-1c-.727 0-1.19.353-1.5.738-.31-.385-.773-.738-1.5-.738z" transform="translate(-104.008 187)"/></g></svg>