<svg xmlns="http://www.w3.org/2000/svg" viewBox="0 0 32 32"><path d="M28 16V6c0-2-1-2-3-2H7C5 4 4 4 4 6v13c0 2 1 2 3 2l6 6v-6h12c2 0 3 0 3-2z" opacity=".7" stroke="#000" stroke-width="2" stroke-linejoin="round"/><path d="M28 16V6c0-2-1-2-3-2H7C5 4 4 4 4 6v13c0 2 1 2 3 2l6 6v-6h12c2 0 3 0 3-2z" fill="#fa9381"/><rect width="14" height="1" x="9" y="9" ry=".5" fill="#fff"/><rect ry=".5" y="12" x="9" height="1" width="14" fill="#fff"/><rect width="14" height="1" x="9" y="15" ry=".5" fill="#fff"/><circle cy="19.5" cx="26.5" r="4.5" fill="#c7162b"/><path overflow="visible" font-weight="400" style="line-height:normal;text-indent:0;text-align:start;text-decoration-line:none;text-decoration-style:solid;text-decoration-color:#000;text-transform:none;white-space:normal;isolation:auto;mix-blend-mode:normal;marker:none" d="M24.379 18.086l1.414 1.414-1.414 1.414.707.707 1.414-1.414 1.414 1.414.707-.707-1.414-1.414 1.414-1.414-.707-.707-1.414 1.414-1.414-1.414z" color="#000" font-family="sans-serif" fill="#fff"/></svg>