<svg xmlns="http://www.w3.org/2000/svg" viewBox="0 0 32 32"><path d="M3 8v16c0 2.216 1.784 4 4 4h18c2.216 0 4-1.784 4-4V8z" style="opacity:.7;fill:#000;fill-opacity:1;fill-rule:evenodd;stroke:#000;stroke-width:2;stroke-linecap:butt;stroke-linejoin:round;stroke-miterlimit:4;stroke-dasharray:none;stroke-opacity:1"/><path style="opacity:1;fill:#6d6d6d;fill-opacity:1;fill-rule:evenodd;stroke:none;stroke-width:2;stroke-linecap:butt;stroke-linejoin:round;stroke-miterlimit:4;stroke-dasharray:none;stroke-opacity:1" d="M0 4h32v4H0z"/><path style="opacity:1;fill:#fff;fill-opacity:1;fill-rule:evenodd;stroke:none;stroke-width:2;stroke-linecap:butt;stroke-linejoin:round;stroke-miterlimit:4;stroke-dasharray:none;stroke-opacity:1" d="M3 8v16c0 2.216 1.784 4 4 4h18c2.216 0 4-1.784 4-4V8z"/><path style="opacity:1;fill:#46a926;fill-opacity:1;fill-rule:evenodd;stroke:none;stroke-width:2;stroke-linecap:butt;stroke-linejoin:round;stroke-miterlimit:4;stroke-dasharray:none;stroke-opacity:1" d="M27 18a6 6 0 0 1-3.704 5.543 6 6 0 0 1-6.539-1.3 6 6 0 0 1-1.3-6.54A6 6 0 0 1 21 12v6z"/><path d="M12-21a6 6 0 0 1 6-6v6z" style="opacity:1;fill:#c7162b;fill-opacity:1;fill-rule:evenodd;stroke:none;stroke-width:2;stroke-linecap:butt;stroke-linejoin:round;stroke-miterlimit:4;stroke-dasharray:none;stroke-opacity:1" transform="rotate(90)"/><path style="opacity:1;fill:#1a7fd4;fill-opacity:1;fill-rule:evenodd;stroke:none;stroke-width:4;stroke-linecap:butt;stroke-linejoin:round;stroke-miterlimit:4;stroke-dasharray:none;stroke-opacity:1" d="M6 13h6v2H6z"/><path style="opacity:1;fill:#c7162b;fill-opacity:1;fill-rule:evenodd;stroke:none;stroke-width:3.99999976;stroke-linecap:butt;stroke-linejoin:round;stroke-miterlimit:4;stroke-dasharray:none;stroke-opacity:1" d="M6 17h6v2H6z"/><path style="opacity:1;fill:#46a926;fill-opacity:1;fill-rule:evenodd;stroke:none;stroke-width:3.99999976;stroke-linecap:butt;stroke-linejoin:round;stroke-miterlimit:4;stroke-dasharray:none;stroke-opacity:1" d="M6 21h6v2H6z"/><path style="opacity:.7;fill:#000;stroke:#000;stroke-width:2;stroke-linecap:butt;stroke-linejoin:round;stroke-miterlimit:4;stroke-dasharray:none" d="M25 19a6 6 0 1 0 0 12 6 6 0 0 0 0-12z"/><path d="M25 19a6 6 0 1 0 0 12 6 6 0 0 0 0-12z" style="fill:#fff"/><path style="fill:#232629" d="m21.78 23.275 2.227 2.227.495.495 4.136-4.136-.495-.495-3.641 3.641-2.228-2.227z"/><path style="opacity:1;fill:#f22c42;fill-opacity:1;fill-rule:nonzero;stroke:none;stroke-width:1.67332006;stroke-linecap:butt;stroke-linejoin:round;stroke-miterlimit:4;stroke-dasharray:none;stroke-opacity:1" d="M24.15 24h.7v6h-.7z"/><circle style="color:#000;display:inline;overflow:visible;visibility:visible;opacity:1;fill:#f22c42;fill-opacity:1;fill-rule:nonzero;stroke:none;stroke-width:.80000001;stroke-linecap:butt;stroke-linejoin:miter;stroke-miterlimit:4;stroke-dasharray:none;stroke-dashoffset:0;stroke-opacity:1;marker:none;enable-background:accumulate" cx="24.5" cy="25.5" r=".727"/></svg>