<svg xmlns="http://www.w3.org/2000/svg" viewBox="0 0 32 32"><path d="M28 16V6c0-2-1-2-3-2H7C5 4 4 4 4 6v13c0 2 1 2 3 2l6 6v-6h12c2 0 3 0 3-2z" opacity=".7" stroke="#000" stroke-width="2" stroke-linejoin="round"/><path d="M28 16V6c0-2-1-2-3-2H7C5 4 4 4 4 6v13c0 2 1 2 3 2l6 6v-6h12c2 0 3 0 3-2z" fill="#fa9381"/><rect width="14" height="1" x="9" y="9" ry=".5" fill="#fff"/><rect ry=".5" y="12" x="9" height="1" width="14" fill="#fff"/><rect width="14" height="1" x="9" y="15" ry=".5" fill="#fff"/><g stroke-width="27.2"><path d="M24.3 23.553L20 27l.835-5.447.264-.456 3.464 2z" fill="#fec589"/><path style="marker:none" d="M20.204 25.696L20 27l1.027-.829c-.004.008-.823-.475-.823-.475z" color="#000" overflow="visible" fill="#5d5d5d"/><path d="M20.835 21.553s3.465 2.088 3.464 2l6.433-11.141-3.464-2z" fill="#2f5fdd"/></g></svg>