<svg xmlns="http://www.w3.org/2000/svg" viewBox="0 0 32 32"><rect rx="1" ry="1" y="7" x="7" height="11" width="11" style="opacity:.7;vector-effect:none;fill:#000;fill-opacity:1;stroke:#000;stroke-width:2;stroke-linecap:round;stroke-linejoin:round;stroke-miterlimit:4;stroke-dasharray:none;stroke-dashoffset:0;stroke-opacity:1"/><rect style="opacity:1;vector-effect:none;fill:#fee581;fill-opacity:1;stroke:none;stroke-width:2;stroke-linecap:round;stroke-linejoin:round;stroke-miterlimit:4;stroke-dasharray:none;stroke-dashoffset:0;stroke-opacity:1" width="11" height="11" x="7" y="7" ry="1" rx="1"/><rect style="opacity:.7;vector-effect:none;fill:#000;fill-opacity:1;stroke:none;stroke-width:2;stroke-linecap:round;stroke-linejoin:round;stroke-miterlimit:4;stroke-dasharray:none;stroke-dashoffset:0;stroke-opacity:1" width="13" height="13" x="13" y="13" ry="2" rx="2"/><rect style="opacity:1;vector-effect:none;fill:#c5c9f5;fill-opacity:1;stroke:none;stroke-width:2;stroke-linecap:round;stroke-linejoin:round;stroke-miterlimit:4;stroke-dasharray:none;stroke-dashoffset:0;stroke-opacity:1" width="11" height="11" x="14" y="14" ry="1" rx="1"/><path style="opacity:1;vector-effect:none;fill:#f22c42;fill-opacity:1;stroke:none;stroke-width:2;stroke-linecap:round;stroke-linejoin:miter;stroke-miterlimit:4;stroke-dasharray:none;stroke-dashoffset:0;stroke-opacity:1" d="M4 4h2v2H4zM26 4h2v2h-2zM26 26h2v2h-2zM4 26h2v2H4z"/><path d="M30 18h-6v-3l-7 4.5 7 4.5v-3h6z" style="display:inline;opacity:.8;fill:#fff;fill-opacity:1;stroke:#fff;stroke-width:2;stroke-linecap:round;stroke-linejoin:round;stroke-miterlimit:4;stroke-dasharray:none;stroke-dashoffset:0;stroke-opacity:.88059698;enable-background:new"/><path style="display:inline;opacity:1;fill:#45a925;fill-opacity:1;stroke:none;stroke-width:1;stroke-linecap:round;stroke-linejoin:round;stroke-miterlimit:4;stroke-dasharray:none;stroke-dashoffset:0;stroke-opacity:.88059698;enable-background:new" d="M30 18h-6v-3l-7 4.5 7 4.5v-3h6z"/></svg>