<svg xmlns="http://www.w3.org/2000/svg" viewBox="0 0 32 32"><path d="M7.994 5c-1.258.014-2.179-.03-2.931.384a1.88 1.88 0 00-.838.999C4.06 6.82 4 7.343 4 8v16c0 .658.06 1.179.225 1.617.164.44.461.789.838.997.752.415 1.673.371 2.931.386h14.013c1.258-.014 2.179.03 2.931-.384a1.88 1.88 0 00.838-.999c.165-.438.146-.964.225-1.617V8c0-.658-.06-1.179-.225-1.617a1.875 1.875 0 00-.838-.997c-.752-.415-1.673-.371-2.931-.386H7.998z" style="line-height:125%;-inkscape-font-specification:Ubuntu;text-align:center" font-weight="400" font-size="15" font-family="Ubuntu" letter-spacing="0" word-spacing="0" text-anchor="middle" opacity=".7"/><path d="M12.983 6.027c-1.556.01-5.11-.012-6.66.039-.46.042-1.016.206-1.155.71-.219.635-.108 1.333-.146 1.982-.008 2.297-.023 13.596.022 15.885.039.462.202 1.013.699 1.164.632.225 1.284.123 1.936.154 1.424.007 8.85.011 10.277.012 1.704 0 3.408-.005 5.107-.019.512-.012 1.184.02 1.585-.405.42-.54.287-1.268.322-1.904.012-2.444.028-13.911-.021-16.357-.05-.402-.17-.863-.576-1.044-.668-.294-1.426-.168-2.126-.206-1.754-.012-7.51-.012-9.264-.011z" fill="#fff"/><path d="M12 18h8v4s4-2 9-6c-5-4-9-6-9-6v4h-8z" opacity=".7" stroke="#000" stroke-width="2" stroke-linecap="round" stroke-linejoin="round"/><path d="M12 18h8v4s4-2 9-6c-5-4-9-6-9-6v4h-8z" fill="#e97cc8"/></svg>