<svg xmlns="http://www.w3.org/2000/svg" viewBox="0 0 32 32"><path style="fill:#000;stroke:#000;opacity:.7;stroke-width:2;stroke-miterlimit:4;stroke-dasharray:none;stroke-linejoin:round" fill="#232629" d="M12.098 4 10 7.41c4.956 1.976 7.387 5.761 6.975 9.399-.404 3.559-3.162 6.555-6.965 7.796L12.098 28c5.239-2.235 8.826-6.753 8.826-11.998v-.004c0-1.252-.21-2.461-.592-3.61-1.04-2.867-3.22-5.475-6.121-7.304-.049-.03-.095-.061-.145-.09-.063-.039-.13-.073-.193-.111-.567-.324-1.16-.62-1.775-.883z"/><path d="M12.098 4 10 7.41c4.956 1.976 7.387 5.761 6.975 9.399-.404 3.559-3.162 6.555-6.965 7.796L12.098 28c5.239-2.235 8.826-6.753 8.826-11.998v-.004c0-1.252-.21-2.461-.592-3.61-1.04-2.867-3.22-5.475-6.121-7.304-.049-.03-.095-.061-.145-.09-.063-.039-.13-.073-.193-.111-.567-.324-1.16-.62-1.775-.883z" fill="#232629" style="fill:#fff"/></svg>