<svg xmlns="http://www.w3.org/2000/svg" xmlns:xlink="http://www.w3.org/1999/xlink" viewBox="0 0 32 32"><defs><linearGradient y2="316.932" x2="702.214" y1="316.932" x1="609.786" gradientUnits="userSpaceOnUse" id="b" xlink:href="#a"/><linearGradient id="a"><stop offset="0" style="stop-color:#5884f4;stop-opacity:1"/><stop style="stop-color:#5884f4;stop-opacity:1" offset=".308"/><stop offset=".308" style="stop-color:#2f5fdd;stop-opacity:1"/><stop style="stop-color:#2f5fdd;stop-opacity:1" offset=".692"/><stop style="stop-color:#234db8;stop-opacity:1" offset=".692"/><stop offset="1" style="stop-color:#234db8;stop-opacity:1"/></linearGradient></defs><path style="fill:#000;stroke:#000;opacity:.7;stroke-width:2;stroke-miterlimit:4;stroke-dasharray:none;stroke-linejoin:round" d="M24.248 20.5c-.392.001-1.432.069-3.094.844-.52.242-.953.516-1.547.843-.316.175-1.452.742-1.875.938-1.238.575-1.65.72-2.718 1.125-1.035.392-2.148.748-2.905 1.031C8.925 26.473 4 26.5 4 26.5V28s4.991.048 8.625-1.313c.482-.18 1.322-.476 2.11-.75a72.653 72.653 0 0 0 3.607-1.453 45.77 45.77 0 0 0 1.969-.984c.66-.364 1.1-.633 1.453-.797.77-.453 1.625-.723 2.484-.703-.067 0 .26.015.563.14.301.127.637.351.89.563.491.498.697.878.797 1.547-.038 1.023-.39 1.344-1.125 1.922-.486.322-1.169.38-1.871.334v1.453c1.176.002 2.116-.232 2.668-.521a3.58 3.58 0 0 0 1.828-3.235c-.007-.432-.116-.787-.328-1.265-.212-.478-.516-1.015-.984-1.407-.723-.635-1.086-.914-2.438-1.031z"/><path d="M24.248 20.5c-.392.001-1.432.069-3.094.844-.52.242-.953.516-1.547.843-.316.175-1.452.742-1.875.938-1.238.575-1.65.72-2.718 1.125-1.035.392-2.148.748-2.905 1.031C8.925 26.473 4 26.5 4 26.5V28s4.991.048 8.625-1.313c.482-.18 1.322-.476 2.11-.75a72.653 72.653 0 0 0 3.607-1.453 45.77 45.77 0 0 0 1.969-.984c.66-.364 1.1-.633 1.453-.797.77-.453 1.625-.723 2.484-.703-.067 0 .26.015.563.14.301.127.637.351.89.563.491.498.697.878.797 1.547-.038 1.023-.39 1.344-1.125 1.922-.486.322-1.169.38-1.871.334v1.453c1.176.002 2.116-.232 2.668-.521a3.58 3.58 0 0 0 1.828-3.235c-.007-.432-.116-.787-.328-1.265-.212-.478-.516-1.015-.984-1.407-.723-.635-1.086-.914-2.438-1.031z" style="fill:#fff"/><g style="display:inline;stroke-width:9.7142868;enable-background:new"><path style="fill:#fee1c2;fill-opacity:1;stroke:none;stroke-width:9.7142868" d="M702.219 319.356 656 400.493l-46.214-81.137.444-28.635h92.433z" transform="rotate(44.997 32.495 -24.807) scale(.07035 .07631)"/><path style="color:#000;display:inline;overflow:visible;visibility:visible;fill:#5d5d5d;fill-opacity:1;fill-rule:nonzero;stroke:none;stroke-width:11.66852188;marker:none;enable-background:accumulate" d="M641.301 374.677 656 400.493l14.699-25.816s1.12-2.766-1.74-2.766c-2.86 0-5.694 3.688-5.694 3.688s-1.494-4.61-7.234-4.61-7.234 4.61-7.234 4.61-2.897-3.688-5.782-3.688c-2.886 0-1.714 2.766-1.714 2.766z" transform="rotate(44.997 32.495 -24.807) scale(.07035 .07631)"/><path style="fill:url(#b);fill-opacity:1;stroke:none;stroke-width:9.7142868" d="M609.786 306.25c0-7.376 28.428-3.688 28.428 7.377 0-18.44 35.534-18.44 35.534 0 0-11.065 28.47-14.753 28.47-7.377V67.93h-92.432z" transform="rotate(44.997 32.495 -24.807) scale(.07035 .07631)"/></g></svg>