<svg xmlns="http://www.w3.org/2000/svg" xmlns:xlink="http://www.w3.org/1999/xlink" viewBox="0 0 32 32"><defs><linearGradient y2="316.932" x2="702.214" y1="316.932" x1="609.786" gradientUnits="userSpaceOnUse" id="b" xlink:href="#a"/><linearGradient id="a"><stop offset="0" style="stop-color:#5884f4;stop-opacity:1"/><stop style="stop-color:#5884f4;stop-opacity:1" offset=".308"/><stop offset=".308" style="stop-color:#2f5fdd;stop-opacity:1"/><stop style="stop-color:#2f5fdd;stop-opacity:1" offset=".692"/><stop style="stop-color:#234db8;stop-opacity:1" offset=".692"/><stop offset="1" style="stop-color:#234db8;stop-opacity:1"/></linearGradient></defs><path style="fill:#000;stroke:#000;opacity:.7;stroke-width:2;stroke-miterlimit:4;stroke-dasharray:none;stroke-linejoin:round" d="M24.248 20.5c-.392.002-1.432.069-3.094.844-.52.242-.953.516-1.547.843a52.19 52.19 0 0 1-1.875.938c-1.238.575-1.65.72-2.718 1.125-1.035.392-2.008.736-3.508.736h-7.5L4 28s4.991.048 8.625-1.313c.482-.18 1.322-.476 2.11-.75 0 0 3.719 1.145 6.513 1.735 2.288.618 4.05.223 4.922-.235a3.58 3.58 0 0 0 1.828-3.234c-.007-.432-.116-.788-.328-1.265-.212-.479-.516-1.015-.984-1.407-.723-.635-1.086-.914-2.438-1.031z"/><path d="M24.248 20.5c-.392.002-1.432.069-3.094.844-.52.242-.953.516-1.547.843a52.19 52.19 0 0 1-1.875.938c-1.238.575-1.65.72-2.718 1.125-1.035.392-2.008.736-3.508.736h-7.5L4 28s4.991.048 8.625-1.313c.482-.18 1.322-.476 2.11-.75 0 0 3.719 1.145 6.513 1.735 2.288.618 4.05.223 4.922-.235a3.58 3.58 0 0 0 1.828-3.234c-.007-.432-.116-.788-.328-1.265-.212-.479-.516-1.015-.984-1.407-.723-.635-1.086-.914-2.438-1.031z" style="fill:#fff"/><g style="display:inline;stroke-width:9.7142868;enable-background:new"><path style="fill:#fee1c2;fill-opacity:1;stroke:none;stroke-width:9.7142868" d="M702.219 319.356 656 400.493l-46.214-81.137.444-28.635h92.433z" transform="rotate(44.997 34.909 -25.807) scale(.07035 .07631)"/><path style="color:#000;display:inline;overflow:visible;visibility:visible;fill:#5d5d5d;fill-opacity:1;fill-rule:nonzero;stroke:none;stroke-width:11.66852188;marker:none;enable-background:accumulate" d="M641.301 374.677 656 400.493l14.699-25.816s1.12-2.766-1.74-2.766c-2.86 0-5.694 3.688-5.694 3.688s-1.494-4.61-7.234-4.61-7.234 4.61-7.234 4.61-2.897-3.688-5.782-3.688c-2.886 0-1.714 2.766-1.714 2.766z" transform="rotate(44.997 34.909 -25.807) scale(.07035 .07631)"/><path style="fill:url(#b);fill-opacity:1;stroke:none;stroke-width:9.7142868" d="M609.786 306.25c0-7.376 28.428-3.688 28.428 7.377 0-18.44 35.534-18.44 35.534 0 0-11.065 28.47-14.753 28.47-7.377V67.93h-92.432z" transform="rotate(44.997 34.909 -25.807) scale(.07035 .07631)"/></g></svg>