<svg xmlns="http://www.w3.org/2000/svg" xmlns:xlink="http://www.w3.org/1999/xlink" viewBox="0 0 32 32"><defs><linearGradient id="a"><stop style="stop-color:#151515;stop-opacity:1" offset="0"/><stop style="stop-color:#4d4d4d;stop-opacity:1" offset="1"/></linearGradient><linearGradient xlink:href="#a" id="c" x1="21" y1="3" x2="21" y2="14" gradientUnits="userSpaceOnUse"/><linearGradient xlink:href="#a" id="b" x1="9" y1="18" x2="9" y2="29" gradientUnits="userSpaceOnUse" gradientTransform="translate(1)"/></defs><path d="M9.5 18A5.508 5.508 0 0 0 4 23.5C4 26.532 6.468 29 9.5 29H12v-2H9.5A3.492 3.492 0 0 1 6 23.5C6 21.561 7.561 20 9.5 20H12v-2z" style="color:#000;font-style:normal;font-variant:normal;font-weight:400;font-stretch:normal;font-size:medium;line-height:normal;font-family:sans-serif;font-variant-ligatures:normal;font-variant-position:normal;font-variant-caps:normal;font-variant-numeric:normal;font-variant-alternates:normal;font-feature-settings:normal;text-indent:0;text-align:start;text-decoration:none;text-decoration-line:none;text-decoration-style:solid;text-decoration-color:#000;letter-spacing:normal;word-spacing:normal;text-transform:none;writing-mode:lr-tb;direction:ltr;text-orientation:mixed;dominant-baseline:auto;baseline-shift:baseline;text-anchor:start;white-space:normal;shape-padding:0;clip-rule:nonzero;display:inline;overflow:visible;visibility:visible;opacity:1;isolation:auto;mix-blend-mode:normal;color-interpolation:sRGB;color-interpolation-filters:linearRGB;solid-color:#000;solid-opacity:1;vector-effect:none;fill:#000;fill-opacity:1;fill-rule:nonzero;stroke:#fff;stroke-width:2;stroke-linecap:butt;stroke-linejoin:round;stroke-miterlimit:4;stroke-dasharray:none;stroke-dashoffset:0;stroke-opacity:1;color-rendering:auto;image-rendering:auto;shape-rendering:auto;text-rendering:auto;enable-background:accumulate"/><path style="color:#000;font-style:normal;font-variant:normal;font-weight:400;font-stretch:normal;font-size:medium;line-height:normal;font-family:sans-serif;font-variant-ligatures:normal;font-variant-position:normal;font-variant-caps:normal;font-variant-numeric:normal;font-variant-alternates:normal;font-feature-settings:normal;text-indent:0;text-align:start;text-decoration:none;text-decoration-line:none;text-decoration-style:solid;text-decoration-color:#000;letter-spacing:normal;word-spacing:normal;text-transform:none;writing-mode:lr-tb;direction:ltr;text-orientation:mixed;dominant-baseline:auto;baseline-shift:baseline;text-anchor:start;white-space:normal;shape-padding:0;clip-rule:nonzero;display:inline;overflow:visible;visibility:visible;opacity:1;isolation:auto;mix-blend-mode:normal;color-interpolation:sRGB;color-interpolation-filters:linearRGB;solid-color:#000;solid-opacity:1;vector-effect:none;fill:url(#b);fill-opacity:1;fill-rule:nonzero;stroke:none;stroke-width:1;stroke-linecap:butt;stroke-linejoin:miter;stroke-miterlimit:4;stroke-dasharray:none;stroke-dashoffset:0;stroke-opacity:1;color-rendering:auto;image-rendering:auto;shape-rendering:auto;text-rendering:auto;enable-background:accumulate" d="M9.5 18A5.508 5.508 0 0 0 4 23.5C4 26.532 6.468 29 9.5 29H12v-2H9.5A3.492 3.492 0 0 1 6 23.5C6 21.561 7.561 20 9.5 20H12v-2z"/><path style="opacity:1;fill:#000;fill-opacity:1;stroke:#fff;stroke-width:2;stroke-linejoin:round;stroke-miterlimit:4;stroke-dasharray:none" d="M7.383 3 3 14h2.357l1.19-3h4.906l1.19 3H15L10.617 3H9ZM9 4.496 10.686 9H7.314Z"/><path d="M20 3v11h6a3 3 0 0 0 1.047-5.81A3 3 0 0 0 28 6a3 3 0 0 0-3-3h-4zm2 2h2.666C25.402 5 26 5.56 26 6.25s-.598 1.25-1.334 1.25H22Zm0 4.5h3.572c.79 0 1.428.56 1.428 1.25S26.361 12 25.572 12H22Z" style="opacity:1;fill:#000;stroke:#fff;stroke-width:2;stroke-linejoin:round;stroke-miterlimit:4;stroke-dasharray:none"/><path style="fill:url(#c);fill-opacity:1;stroke-width:1" d="M7.383 3 3 14h2.357l1.19-3h4.906l1.19 3H15L10.617 3H7.383zM20 3v11h6a3 3 0 0 0 1.047-5.81A3 3 0 0 0 28 6a3 3 0 0 0-3-3h-5zM9 4.496 10.686 9H7.314L9 4.496zM22 5h2.666C25.402 5 26 5.56 26 6.25s-.598 1.25-1.334 1.25H22V5zm0 4.5h3.572c.79 0 1.428.56 1.428 1.25S26.361 12 25.572 12H22V9.5z"/><path style="fill:#e95420;fill-opacity:1;stroke:none;stroke-width:1px;stroke-linecap:butt;stroke-linejoin:miter;stroke-opacity:1" d="m16 24 5 4v-8z"/><path style="fill:#e95420;fill-opacity:1;stroke:none;stroke-width:1px;stroke-linecap:butt;stroke-linejoin:miter;stroke-opacity:1" d="m29 20-.015 1.983c0 2-1 3-3 3L21 25l-.015-2.017h4c2 0 2 0 2-2L27 20Z"/></svg>