<svg xmlns="http://www.w3.org/2000/svg" height="32" width="32"><path d="M23.006 5c1.258.014 2.18-.03 2.932.384.376.208.673.56.838.999.164.438.224.96.224 1.617v16c0 .658-.06 1.179-.224 1.617a1.875 1.875 0 01-.838.997c-.753.415-1.674.371-2.932.386H8.994c-1.259-.014-2.18.03-2.932-.384a1.88 1.88 0 01-.838-.999C5.06 25.18 5.08 24.653 5 24V8c0-.658.06-1.179.224-1.617.165-.44.462-.789.838-.997.753-.415 1.674-.371 2.932-.386H23.002z" style="line-height:125%;-inkscape-font-specification:Ubuntu;text-align:center" font-weight="400" font-size="15" font-family="Ubuntu" letter-spacing="0" word-spacing="0" text-anchor="middle" opacity=".7"/><path d="M18.017 6.027c1.557.01 5.11-.012 6.66.039.461.042 1.016.206 1.155.71.22.635.109 1.333.146 1.982.008 2.297.023 13.596-.021 15.885-.04.462-.203 1.013-.7 1.164-.632.225-1.283.123-1.935.154-1.424.007-8.851.011-10.277.012-1.705 0-3.409-.005-5.107-.019-.512-.012-1.184.02-1.585-.405-.421-.54-.287-1.268-.323-1.904-.012-2.444-.028-13.91.022-16.357.05-.402.17-.863.575-1.044.668-.294 1.426-.168 2.126-.206 1.754-.011 7.51-.012 9.264-.011z" fill="#fff"/><path d="M16.75 11L14 20h1.25L18 11h-1.25zm-4.016 1.576L8.057 15.5l4.677 2.924.532-.848L9.943 15.5l3.323-2.076-.532-.848zm6.532 0l-.532.848 3.323 2.076-3.323 2.076.532.848 4.677-2.924-4.677-2.924z" fill="#232629"/></svg>