<svg xmlns="http://www.w3.org/2000/svg" viewBox="0 0 32 32"><path d="M5 5v22h22V9.48l-2 1.6V7h-7V5H5z" fill="#fff"/><path d="M7 4C5 4 4 4 4 6v20c0 2 1 2 3 2h18c2 0 3 0 3-2V8.68l-1 .8V11h-1.9l-.1.08V11h-5V8h5V7H13V5h5V4H7zm0 1h5v2H5V6c0-1 1-1 2-1zM5 8h7v3H5V8zm8 0h6v3h-6V8zm-8 4h7v3H5v-3zm8 0h6v3h-6v-3zm7 0h7v3h-7v-3zM5 16h7v3H5v-3zm8 0h6v3h-6v-3zm7 0h7v3h-7v-3zM5 20h7v3H5v-3zm8 0h6v3h-6v-3zm7 0h7v3h-7v-3zM5 24h7v3H7c-1 0-2 0-2-1v-2zm8 0h6v3h-6v-3zm7 0h7v2c0 1-1 1-2 1h-5v-3z" fill="#6d6d6d"/><circle cy="26.5" cx="26.5" r="4.5" fill="#46a926"/><path overflow="visible" font-weight="400" style="line-height:normal;text-indent:0;text-align:start;text-decoration-line:none;text-decoration-style:solid;text-decoration-color:#000;text-transform:none;white-space:normal;isolation:auto;mix-blend-mode:normal;marker:none" d="M26 24v2h-2v1h2v2h1v-2h2v-1h-2v-2z" color="#000" font-family="sans-serif" fill="#fff"/><path fill="#46a926" fill-rule="evenodd" d="M12 11h8v9h-8z"/><path fill="#ddf6d5" fill-rule="evenodd" d="M13 12h6v7h-6z"/><path d="M31 5l-5 4V6h-7V4h7V1z" fill="#e95420"/></svg>