<svg xmlns="http://www.w3.org/2000/svg" viewBox="0 0 32 32"><path style="line-height:normal;font-variant-ligatures:normal;font-variant-position:normal;font-variant-caps:normal;font-variant-numeric:normal;font-variant-alternates:normal;font-variant-east-asian:normal;font-feature-settings:normal;font-variation-settings:normal;text-indent:0;text-align:start;text-decoration-line:none;text-decoration-style:solid;text-decoration-color:#000;text-transform:none;text-orientation:mixed;white-space:normal;shape-padding:0;shape-margin:0;inline-size:0;isolation:auto;mix-blend-mode:normal;solid-color:#000;solid-opacity:1" d="M16 4C9.384 4 4 9.384 4 16s5.384 12 12 12c1.457 0 2.848-.274 4.14-.752.12-.284.317-.542.58-.74-.442-.331-.725-.824-.704-1.35A9.983 9.983 0 0116 26c-5.535 0-10-4.465-10-10S10.465 6 16 6s10 4.465 10 10a9.98 9.98 0 01-.85 4.03c.526-.025 1.015.259 1.346.7.176-.237.342-.495.606-.603.054-.023.112-.036.17-.053C27.733 18.8 28 17.432 28 16c0-6.616-5.384-12-12-12z" color="#000" font-weight="400" font-family="sans-serif" overflow="visible" opacity=".7"/><path d="M16 5A11 11 0 005 16a11 11 0 0011 11 11 11 0 004.328-.889c-.303-.409-.419-.926-.207-1.437l.57-1.381c.29-.699 1.01-.977 1.723-.873-.101-.71.177-1.422.875-1.711l1.383-.574c.515-.214 1.029-.096 1.435.209A11 11 0 0027 16 11 11 0 0016 5z" fill="#fee581"/><g transform="matrix(1.23872 0 0 1.23872 2.342 2.342)" stroke-width=".807"><circle cx="19.5" cy="19.5" r="1.5" fill="#fff" fill-rule="evenodd"/><g transform="translate(8 8)"><circle cx="11.5" cy="11.5" r="1.5" fill="#fff" fill-rule="evenodd"/><path d="M9.311 7.792a.244.244 0 00-.135.325l.273.657c-.26.195-.472.424-.662.678l-.674-.279a.248.248 0 00-.329.136l-.462 1.115a.248.248 0 00.137.329l.673.279a3.312 3.312 0 00-.011.948l-.657.272a.244.244 0 00-.135.325l.463 1.117c.054.13.194.189.325.135l.657-.272c.195.26.424.471.678.662l-.279.673a.248.248 0 00.136.329l1.115.462a.248.248 0 00.329-.136l.279-.674c.314.045.626.057.948.012l.272.657c.054.13.195.188.325.134l1.117-.462a.244.244 0 00.135-.326l-.272-.657c.26-.195.471-.424.662-.678l.673.28a.248.248 0 00.329-.137l.462-1.115a.248.248 0 00-.136-.329l-.674-.279c.045-.314.057-.625.012-.947l.657-.273a.244.244 0 00.134-.325l-.462-1.117a.244.244 0 00-.326-.135l-.657.273a3.312 3.312 0 00-.678-.662l.28-.674a.248.248 0 00-.137-.329l-1.115-.462a.248.248 0 00-.329.137l-.279.673a3.312 3.312 0 00-.947-.011l-.273-.657a.244.244 0 00-.325-.135zm1.756 2.66a1.138 1.138 0 11.87 2.103 1.138 1.138 0 01-.87-2.104z" display="block" fill="#d3d3d3" stroke="#4d4d4d" stroke-linejoin="round" stroke-width=".484"/></g></g></svg>