<svg xmlns="http://www.w3.org/2000/svg" viewBox="0 0 32 32"><path style="opacity:.7;fill:#000;fill-opacity:1;stroke:#000;stroke-width:2;stroke-linecap:round;stroke-linejoin:round;stroke-miterlimit:4;stroke-dasharray:none;stroke-opacity:1" d="M4 9c0-2 1-2 3-2h6c1 0 2 1 3 2 1-1 2-2 3-2h6c2 0 3 0 3 2v14c0 2-1 2-3 2h-6c-1 0-2 1-3 2-1-1-2-2-3-2H7c-2 0-3 0-3-2z"/><path style="opacity:1;fill:#fff;fill-opacity:1;stroke:none;stroke-width:2;stroke-linecap:round;stroke-linejoin:round;stroke-miterlimit:4;stroke-dasharray:none;stroke-opacity:1" d="M4 9c0-2 1-2 3-2h6c1 0 2 1 3 2 1-1 2-2 3-2h6c2 0 3 0 3 2v14c0 2-1 2-3 2h-6c-1 0-2 1-3 2-1-1-2-2-3-2H7c-2 0-3 0-3-2z"/><path style="color:#000;font-weight:400;font-family:sans-serif;white-space:normal;opacity:.7;fill:#090000;fill-opacity:1;stroke:none;stroke-width:1px;stroke-linecap:butt;stroke-linejoin:miter;stroke-opacity:1" d="M21 7h4v8l-4 2z"/><path style="opacity:1;fill:#fa9381;fill-opacity:1;stroke:none;stroke-width:2.23606801;stroke-linecap:round;stroke-linejoin:round;stroke-miterlimit:4;stroke-dasharray:none;stroke-opacity:1" d="M7 10h5v1H7zM7 12h5v1H7zM7 14h5v1H7zM7 16h5v1H7zM7 18h5v1H7z"/></svg>