<svg xmlns="http://www.w3.org/2000/svg" viewBox="0 0 32 32"><path d="M6.994 3c-1.258.014-2.179-.031-2.932.384a1.88 1.88 0 00-.837.998C3.06 4.821 3 5.342 3 6V26c0 .657.06 1.178.225 1.617.164.438.461.788.837.996.753.415 1.674.372 2.932.387h18.012c1.258-.015 2.179.03 2.932-.385a1.88 1.88 0 00.837-.998c.165-.439.225-.96.225-1.617V5.999c0-.657-.06-1.178-.225-1.617a1.875 1.875 0 00-.837-.996c-.753-.415-1.674-.372-2.932-.387H6.998z" style="line-height:125%;-inkscape-font-specification:Ubuntu;text-align:center" font-weight="400" font-size="15" font-family="Ubuntu" letter-spacing="0" word-spacing="0" text-anchor="middle" opacity=".7"/><path d="M11.983 4.027c-1.556.01-5.11-.012-6.66.038-.46.043-1.016.207-1.155.71-.219.636-.108 1.334-.146 1.982-.008 2.297-.023 17.596.022 19.886.039.462.202 1.012.699 1.163.632.225 1.284.123 1.936.155 1.424.006 12.85.01 14.276.01 1.704.001 3.408-.004 5.107-.018.512-.012 1.184.02 1.585-.405.421-.54.287-1.268.323-1.904.011-2.444.027-17.91-.022-20.356-.05-.402-.17-.863-.575-1.044-.669-.295-1.427-.168-2.126-.206-1.755-.012-11.51-.012-13.264-.011z" fill="#fff"/><path d="M6 7v1h20V7zM6 10v1h20v-1z" fill="#232629"/><path fill="#fa9381" d="M6 13h9v2H6zM6 17h9v2H6z"/><path d="M6 21v1h20v-1zM6 24v1h20v-1z" fill="#232629"/><path fill="#fa9381" d="M17 13h9v2h-9zM17 17h9v2h-9z"/></svg>