<svg xmlns="http://www.w3.org/2000/svg" viewBox="0 0 32 32"><path fill="#fff" d="M27 5H5v22h22z"/><path d="M20 28H7c-2 0-3 0-3-2V6c0-2 1-2 3-2h13zm0-23v2zm-1 0h-6v2h6zm-7 0H7C6 5 5 5 5 6v1h7zm8 3v3zm-1 0h-6v3h6zm-7 0H5v3h7zm8 4v3zm-1 0h-6v3h6zm-7 0H5v3h7zm8 4v3zm-1 0h-6v3h6zm-7 0H5v3h7zm8 4v3zm-1 0h-6v3h6zm-7 0H5v3h7zm8 4v3zm-1 0h-6v3h6zm-7 0H5v2c0 1 1 1 2 1h5z" fill="#6d6d6d"/><circle cy="26.5" cx="-5.5" r="4.5" transform="scale(-1 1)" fill="#46a926"/><path overflow="visible" font-weight="400" style="line-height:normal;text-indent:0;text-align:start;text-decoration-line:none;text-decoration-style:solid;text-decoration-color:#000;text-transform:none;white-space:normal;isolation:auto;mix-blend-mode:normal;marker:none" d="M6 24v2h2v1H6v2H5v-2H3v-1h2v-2z" color="#000" font-family="sans-serif" fill="#fff"/><path fill="#ddf6d5" fill-rule="evenodd" d="M20 5h7v22h-7z"/><path d="M19 4v24h6c2 0 3 0 3-2V6c0-2-1-2-3-2h-6zm1 1h5c1 0 2 0 2 1v1h-7V5zm0 3h7v3h-7V8zm0 4h7v3h-7v-3zm0 4h7v3h-7v-3zm0 4h7v3h-7v-3zm0 4h7v2c0 1-1 1-2 1h-5v-3z" fill="#46a926"/></svg>