<svg xmlns="http://www.w3.org/2000/svg" xmlns:xlink="http://www.w3.org/1999/xlink" width="32" height="32"><defs><linearGradient id="a"><stop style="stop-color:#151515;stop-opacity:1" offset="0"/><stop style="stop-color:#4d4d4d;stop-opacity:1" offset="1"/></linearGradient><linearGradient xlink:href="#a" id="b" x1="20" y1="9" x2="20" y2="23" gradientUnits="userSpaceOnUse"/></defs>/&gt;<path style="opacity:1;fill:#000;fill-rule:evenodd;stroke:#fff;stroke-width:2;stroke-linecap:round;stroke-linejoin:round" d="M19 9v4a4 4 0 0 0 0 .06V23h6a4 4 0 0 0 4-4 4 4 0 0 0-2.678-3.775A4 4 0 0 0 27 13a4 4 0 0 0-4-4h-.06zm3 3h1a1 1 0 0 1 1 1 1 1 0 0 1-1 1h-1v-1zm0 5h2a2 1.5 0 0 1 2 1.5 2 1.5 0 0 1-2 1.5h-2v-1.5z"/><path d="M8 9 3 23h3l1.455-4h5.09L14 23h3L12 9zm2 3 1.818 5H8.182z" style="opacity:1;fill:#000;fill-opacity:1;stroke:#fff;stroke-width:2;stroke-linecap:butt;stroke-linejoin:round;stroke-miterlimit:4;stroke-dasharray:none;stroke-opacity:1"/><path style="opacity:1;fill:url(#b);fill-rule:evenodd;stroke:none;stroke-width:2;stroke-linecap:round;stroke-linejoin:round;fill-opacity:1" d="M8 9 3 23h3l1.455-4h5.09L14 23h3L12 9H8zm11 0v4a4 4 0 0 0 0 .06V23h6a4 4 0 0 0 4-4 4 4 0 0 0-2.678-3.775A4 4 0 0 0 27 13a4 4 0 0 0-4-4h-4zm-9 3 1.818 5H8.182L10 12zm12 0h1a1 1 0 0 1 1 1 1 1 0 0 1-1 1h-1v-2zm0 5h2a2 1.5 0 0 1 2 1.5 2 1.5 0 0 1-2 1.5h-2v-3z"/></svg>