<svg xmlns="http://www.w3.org/2000/svg" viewBox="0 0 32 32"><path d="M8.5 4.5h15v23h-15z" style="fill:#d85eca;fill-opacity:1"/><path style="opacity:.7" d="M3.5 3a.5.5 0 0 0-.5.5v25a.5.5 0 0 0 .5.5h25a.5.5 0 0 0 .5-.5v-25a.5.5 0 0 0-.5-.5H6zM9 5h14v22H9Z"/><path display="block" d="M9.5 15.5h13" style="display:block;opacity:.7;fill:none;stroke:#000;stroke-linecap:square;stroke-linejoin:round"/><path style="fill:#fff" d="M5 5h2v1H5ZM5 8h2v1H5ZM5 11h2v1H5ZM5 14h2v1H5ZM5 17h2v1H5ZM5 20h2v1H5ZM5 23h2v1H5ZM25 17h2v1h-2zM25 20h2v1h-2zM25 23h2v1h-2zM25 8h2v1h-2zM25 11h2v1h-2zM25 14h2v1h-2zM25 5h2v1h-2zM5 26h2v1H5ZM25 26h2v1h-2z"/></svg>