<svg xmlns="http://www.w3.org/2000/svg" viewBox="0 0 32 32"><path d="M6.994 4c-1.258.014-2.179-.03-2.932.385a1.88 1.88 0 0 0-.837.998C3.06 5.82 3 6.343 3 7v18c0 .658.06 1.179.225 1.617.164.439.461.789.837.996.753.415 1.674.372 2.932.387h18.012c1.258-.014 2.179.03 2.932-.385a1.88 1.88 0 0 0 .837-.998c.165-.438.225-.96.225-1.617V7c0-.658-.06-1.179-.225-1.617a1.875 1.875 0 0 0-.837-.996c-.753-.415-1.674-.372-2.932-.387H6.998z" style="font-style:normal;font-variant:normal;font-weight:400;font-stretch:normal;font-size:15px;line-height:125%;font-family:Ubuntu;-inkscape-font-specification:Ubuntu;text-align:center;letter-spacing:0;word-spacing:0;writing-mode:lr-tb;text-anchor:middle;display:inline;opacity:.7;fill:#000;fill-opacity:1;stroke:none;stroke-width:.99980211"/><path d="M11.983 5.027c-1.556.01-5.11-.012-6.66.039-.46.043-1.016.206-1.155.71-.219.635-.108 1.334-.146 1.982-.008 2.297-.023 15.596.022 17.885.039.462.202 1.013.699 1.164.632.225 1.284.123 1.936.154 1.424.007 12.85.011 14.276.011 1.704 0 3.408-.005 5.107-.018.512-.012 1.184.02 1.585-.405.421-.54.287-1.268.323-1.904.011-2.444.027-15.91-.022-18.356-.05-.402-.17-.863-.575-1.045-.669-.294-1.427-.168-2.126-.205-1.755-.012-11.51-.013-13.264-.012z" style="opacity:1;vector-effect:none;fill:#fff;fill-opacity:1;stroke:none;stroke-width:1;stroke-linecap:round;stroke-linejoin:bevel;stroke-miterlimit:4;stroke-dasharray:none;stroke-dashoffset:0;stroke-opacity:1"/><path style="fill:#77216f;fill-opacity:1;stroke:none;stroke-width:1px;stroke-linecap:butt;stroke-linejoin:miter;stroke-opacity:1" d="m23.5 7 2.5 5h-5M23.5 25l2.5-5h-5"/><path style="opacity:.7;fill:#000;fill-opacity:1;stroke:none;stroke-width:2;stroke-linejoin:round;stroke-miterlimit:4;stroke-dasharray:none;stroke-opacity:1" d="M18 5h1v22h-1z"/><path style="fill:#232629" d="M6 8v1h10V8ZM6 12v1h10v-1zM6 16v1h10v-1zM6 24v1h10v-1zM6 20v1h10v-1z"/></svg>