<svg xmlns="http://www.w3.org/2000/svg" viewBox="0 0 32 32"><path d="M10 28c-2 0-4-1-4-3V7c0-2 2-3 4-3h9l7 7v14c0 2-2 3-4 3z" opacity=".7" stroke="#000" stroke-width="2"/><path d="M10 28c-2 0-4-1-4-3V7c0-2 2-3 4-3h9l7 7v14c0 2-2 3-4 3z" fill="#fff"/><path d="M19 11V4l7 7z" fill="#6d6d6d"/><path style="line-height:125%;-inkscape-font-specification:Ubuntu;text-align:center" d="M13.994 13.961c-1.258.015-2.179-.03-2.931.385a1.88 1.88 0 00-.838.998c-.165.439-.225.96-.225 1.617V27.04c0 .658.06 1.179.225 1.617.164.439.461.789.837.996.753.415 1.674.372 2.932.387h12.012c1.258-.015 2.179.03 2.932-.385a1.88 1.88 0 00.837-.998c.165-.438.225-.96.225-1.617V16.961c0-.657-.06-1.178-.225-1.617a1.875 1.875 0 00-.837-.996c-.753-.415-1.674-.371-2.932-.387H13.998z" font-weight="400" font-size="15" font-family="Ubuntu" letter-spacing="0" word-spacing="0" text-anchor="middle" opacity=".7"/><path d="M18.983 14.989c-1.556.01-5.11-.012-6.66.038-.46.043-1.016.207-1.155.71-.219.636-.108 1.334-.146 1.982-.007 2.297-.023 7.674.022 9.963.039.462.202 1.013.699 1.164.632.225 1.284.122 1.936.154a1504.2 1504.2 0 0013.383-.007c.512-.012 1.184.02 1.585-.405.421-.54.287-1.268.323-1.904.012-2.445.027-7.988-.022-10.434-.05-.402-.17-.863-.575-1.044-.669-.295-1.427-.168-2.126-.206-1.755-.012-5.51-.012-7.264-.011z" fill="#aee3f8"/><path style="line-height:125%;-inkscape-font-specification:Ubuntu;text-align:center" d="M16.135 16c-.809.009-1.422.012-1.936.07-.513.06-.981.182-1.333.533-.352.35-.475.822-.53 1.333-.039.362-.046.854-.048 1.536L11 18.694v1.213l7.714 5.522L16.143 28s3.502-1.58 5.143-2.571c2.549-1.54 6.147-4.288 7.714-5.495v-1.24l-1.288.778c-.002-.682-.01-1.174-.048-1.536-.055-.51-.178-.982-.53-1.333-.352-.351-.82-.474-1.333-.533-.514-.059-2.413-.06-3.222-.07H16.14zm.008 1h6.428c.807.01 2.69.018 3.082.063.393.045.526.12.572.166.046.045.12.17.16.557.041.38.043 1.655.044 2.46l-6.432 3.88-6.426-3.88c0-.805.002-2.08.043-2.46.042-.387.115-.512.16-.557.047-.046.178-.121.57-.166.392-.045.992-.054 1.799-.063z" font-weight="400" font-size="15" font-family="Ubuntu" letter-spacing="0" word-spacing="0" text-anchor="middle" opacity=".7"/><path d="M17.939 16.938c-1.322.04-2.661-.048-3.973.108-.603.151-.375.675-.457 1.122.015.624-.117 1.574.016 2.172 2.154 1.247 4.223 2.649 6.437 3.787.426-.009.77-.417 1.16-.573 1.783-1.051 3.55-2.131 5.325-3.198.13-.746.026-1.63.032-2.403.025-.397-.119-.94-.611-.929-2.641-.11-5.287-.08-7.93-.086z" fill="#fff"/><path style="line-height:normal;font-variant-ligatures:normal;font-variant-position:normal;font-variant-caps:normal;font-variant-numeric:normal;font-variant-alternates:normal;font-feature-settings:normal;text-indent:0;text-align:start;text-decoration-line:none;text-decoration-style:solid;text-decoration-color:#000;text-transform:none;text-orientation:mixed;white-space:normal;shape-padding:0;isolation:auto;mix-blend-mode:normal;marker:none" d="M16 19v1h8v-1z" color="#000" font-weight="400" font-family="sans-serif" overflow="visible" fill="#a7a7f1"/><path d="M25 19a3 3 0 00-3 3 3 3 0 003 3 3 3 0 003-3 3 3 0 00-3-3zm0 6a5 6 0 00-5 6h10a5 6 0 00-5-6z" opacity=".7" fill-rule="evenodd" stroke="#000" stroke-width="2" stroke-linejoin="round"/><path d="M25 19a3 3 0 00-3 3 3 3 0 003 3 3 3 0 003-3 3 3 0 00-3-3zm0 6a5 6 0 00-5 6h10a5 6 0 00-5-6z" fill="#fff" fill-rule="evenodd"/><circle cy="28.5" cx="-28.5" r="3.5" transform="scale(-1 1)" fill="#c7162b"/><path overflow="visible" font-weight="400" style="line-height:normal;text-indent:0;text-align:start;text-decoration-line:none;text-decoration-style:solid;text-decoration-color:#000;text-transform:none;white-space:normal;isolation:auto;mix-blend-mode:normal;marker:none" d="M27.086 26.379l1.414 1.414 1.414-1.414.707.707-1.414 1.414 1.414 1.414-.707.707-1.414-1.414-1.414 1.414-.707-.707 1.414-1.414-1.414-1.414z" color="#000" font-family="sans-serif" fill="#fff"/></svg>