<svg xmlns="http://www.w3.org/2000/svg" viewBox="0 0 32 32"><path style="line-height:normal;font-variant-ligatures:normal;font-variant-position:normal;font-variant-caps:normal;font-variant-numeric:normal;font-variant-alternates:normal;font-variant-east-asian:normal;font-feature-settings:normal;font-variation-settings:normal;text-indent:0;text-align:start;text-decoration-line:none;text-decoration-style:solid;text-decoration-color:#000;text-transform:none;text-orientation:mixed;white-space:normal;shape-padding:0;shape-margin:0;inline-size:0;isolation:auto;mix-blend-mode:normal;solid-color:#000;solid-opacity:1" d="M16 3C8.832 3 3 8.832 3 16s5.832 13 13 13c1.442 0 2.826-.246 4.123-.682a1.39 1.39 0 010-1.053C18.33 24.353 16.992 26.992 16 27 9.913 27 5 22.087 5 16S9.913 5 16 5s11 4.913 11 11c.076 1.483-1.846 2.954.323 4.054.32-.08.665-.062.995.071.436-1.298.682-2.682.682-4.125 0-7.168-5.832-13-13-13z" color="#000" font-weight="400" font-family="sans-serif" overflow="visible" opacity=".7"/><path d="M16 4A12 12 0 004 16a12 12 0 0012 12 12 12 0 004.13-.734c.119-.292.321-.556.59-.758-.577-.432-.887-1.138-.599-1.834l.57-1.381c.29-.699 1.01-.977 1.723-.873-.101-.71.177-1.422.875-1.711l1.383-.574c.699-.29 1.394.022 1.824.595.176-.237.342-.495.606-.603.06-.025.124-.04.187-.057A12 12 0 0028 16 12 12 0 0016 4z" fill="#fff"/><circle cx="16" cy="16" r="5" fill="#c7162b"/><g transform="matrix(1.23872 0 0 1.23872 2.342 2.342)" stroke-width=".807"><circle cx="19.5" cy="19.5" r="1.5" fill="#fff" fill-rule="evenodd"/><g transform="translate(8 8)"><circle cx="11.5" cy="11.5" r="1.5" fill="#fff" fill-rule="evenodd"/><path d="M9.311 7.792a.244.244 0 00-.135.325l.273.657c-.26.195-.472.424-.662.678l-.674-.279a.248.248 0 00-.329.136l-.462 1.115a.248.248 0 00.137.329l.673.279a3.312 3.312 0 00-.011.948l-.657.272a.244.244 0 00-.135.325l.463 1.117c.054.13.194.189.325.135l.657-.272c.195.26.424.471.678.662l-.279.673a.248.248 0 00.136.329l1.115.462a.248.248 0 00.329-.136l.279-.674c.314.045.626.057.948.012l.272.657c.054.13.195.188.325.134l1.117-.462a.244.244 0 00.135-.326l-.272-.657c.26-.195.471-.424.662-.678l.673.28a.248.248 0 00.329-.137l.462-1.115a.248.248 0 00-.136-.329l-.674-.279c.045-.314.057-.625.012-.947l.657-.273a.244.244 0 00.134-.325l-.462-1.117a.244.244 0 00-.326-.135l-.657.273a3.312 3.312 0 00-.678-.662l.28-.674a.248.248 0 00-.137-.329l-1.115-.462a.248.248 0 00-.329.137l-.279.673a3.312 3.312 0 00-.947-.011l-.273-.657a.244.244 0 00-.325-.135zm1.756 2.66a1.138 1.138 0 11.87 2.103 1.138 1.138 0 01-.87-2.104z" display="block" fill="#d3d3d3" stroke="#4d4d4d" stroke-linejoin="round" stroke-width=".484"/></g></g></svg>