<svg xmlns="http://www.w3.org/2000/svg" xmlns:xlink="http://www.w3.org/1999/xlink" width="32" height="32"><path style="opacity:1;fill:#fff;fill-rule:evenodd;stroke:#fff;stroke-width:2" d="M19.932 5A7 7.5 0 0 0 13 12.5a7 7.5 0 0 0 0 .072V19.5a7 7.5 0 0 0 7 7.5 7 7.5 0 0 0 7-7.5 7 7.5 0 0 0 0-.072V12.5A7 7.5 0 0 0 20 5a7 7.5 0 0 0-.068 0zM20 9a3 3.5 0 0 1 3 3.5v7a3 3.5 0 0 1-3 3.5 3 3.5 0 0 1-3-3.5v-7A3 3.5 0 0 1 20 9z"/><path style="opacity:1;fill:url(#a);fill-rule:evenodd;stroke:none;stroke-width:2;fill-opacity:1" d="M19.932 5A7 7.5 0 0 0 13 12.5a7 7.5 0 0 0 0 .072V19.5a7 7.5 0 0 0 7 7.5 7 7.5 0 0 0 7-7.5 7 7.5 0 0 0 0-.072V12.5A7 7.5 0 0 0 20 5a7 7.5 0 0 0-.068 0zM20 9a3 3.5 0 0 1 3 3.5v7a3 3.5 0 0 1-3 3.5 3 3.5 0 0 1-3-3.5v-7A3 3.5 0 0 1 20 9z"/><defs><linearGradient id="b"><stop style="stop-color:#151515;stop-opacity:1" offset="0"/><stop style="stop-color:#4d4d4d;stop-opacity:1" offset="1"/></linearGradient><linearGradient xlink:href="#b" id="a" x1="20" y1="5" x2="20" y2="27" gradientUnits="userSpaceOnUse"/></defs><path d="M5 10v3H2v2h3v3h2v-3h3v-2H7v-3z" style="fill:#0e8420"/><path d="M2 20h8v2H2z" style="fill:#c7162b;stroke-width:1.54919"/></svg>