<svg xmlns="http://www.w3.org/2000/svg" xmlns:xlink="http://www.w3.org/1999/xlink" viewBox="0 0 32 32"><defs><linearGradient id="a"><stop offset="0" stop-color="#151515"/><stop offset="1" stop-color="#4d4d4d"/></linearGradient><linearGradient xlink:href="#a" id="b" x1="13" y1="9" x2="13" y2="21" gradientUnits="userSpaceOnUse"/></defs><path d="M13 9c-2.21 0-4 1.994-4 3.5v5c0 1.506 1.79 3.5 4 3.5s4-1.994 4-3.5v-5c0-1.506-1.79-3.5-4-3.5zm0 2c1.105 0 2 .869 2 1.5v5.191c0 .632-.895 1.309-2 1.309s-2-.677-2-1.309V12.5c0-.631.895-1.5 2-1.5z" fill="#fff" stroke="#fff" stroke-width="2"/><path fill="#fff" fill-rule="evenodd" stroke="#fff" stroke-width="2" stroke-linejoin="round" d="M5 19h2v2H5z"/><path d="M23 9c-2.21 0-4 1.994-4 3.5v5c0 1.506 1.79 3.5 4 3.5s4-1.994 4-3.5v-5c0-1.506-1.79-3.5-4-3.5zm0 2c1.105 0 2 .869 2 1.5v5.191c0 .632-.895 1.309-2 1.309s-2-.677-2-1.309V12.5c0-.631.895-1.5 2-1.5z" fill="#fff" stroke="#fff" stroke-width="2"/><path d="M13 9c-2.21 0-4 1.994-4 3.5v5c0 1.506 1.79 3.5 4 3.5s4-1.994 4-3.5v-5c0-1.506-1.79-3.5-4-3.5zm10 0c-2.21 0-4 1.994-4 3.5v5c0 1.506 1.79 3.5 4 3.5s4-1.994 4-3.5v-5c0-1.506-1.79-3.5-4-3.5zm-10 2c1.105 0 2 .869 2 1.5v5.191c0 .632-.895 1.309-2 1.309s-2-.677-2-1.309V12.5c0-.631.895-1.5 2-1.5zm10 0c1.105 0 2 .869 2 1.5v5.191c0 .632-.895 1.309-2 1.309s-2-.677-2-1.309V12.5c0-.631.895-1.5 2-1.5zM5 19v2h2v-2H5z" fill="url(#b)"/><circle cy="21.5" cx="26.5" r="4.5" fill="#c7162b"/><path overflow="visible" font-weight="400" style="line-height:normal;text-indent:0;text-align:start;text-decoration-line:none;text-decoration-style:solid;text-decoration-color:#000;text-transform:none;white-space:normal;isolation:auto;mix-blend-mode:normal;marker:none" d="M24.379 20.086l1.414 1.414-1.414 1.414.707.707 1.414-1.414 1.414 1.414.707-.707-1.414-1.414 1.414-1.414-.707-.707-1.414 1.414-1.414-1.414z" color="#000" font-family="sans-serif" fill="#fff"/></svg>