<svg xmlns="http://www.w3.org/2000/svg" viewBox="0 0 32 32"><path fill="#1a1a1a" d="M7 4C5.338 4 4 5.338 4 7v18c0 1.662 1.338 3 3 3h18c1.662 0 3-1.338 3-3V7c0-1.662-1.338-3-3-3zm0 1h18c1.108 0 2 .892 2 2v18c0 1.108-.892 2-2 2H7c-1.108 0-2-.892-2-2V7c0-1.108.892-2 2-2z" stroke="#1a1a1a" opacity=".7" stroke-width="2" stroke-linejoin="round"/><path d="M7 4C5.338 4 4 5.338 4 7v18c0 1.662 1.338 3 3 3h18c1.662 0 3-1.338 3-3V7c0-1.662-1.338-3-3-3zm0 1h18c1.108 0 2 .892 2 2v18c0 1.108-.892 2-2 2H7c-1.108 0-2-.892-2-2V7c0-1.108.892-2 2-2z" fill="#fff"/></svg>