<svg xmlns="http://www.w3.org/2000/svg" xmlns:xlink="http://www.w3.org/1999/xlink" viewBox="0 0 32 32"><defs><linearGradient xlink:href="#a" id="b" x1="16" y1="6" x2="16" y2="26" gradientUnits="userSpaceOnUse"/><linearGradient id="a"><stop style="stop-color:#151515;stop-opacity:1" offset="0"/><stop style="stop-color:#4d4d4d;stop-opacity:1" offset="1"/></linearGradient></defs><path d="M24 1v10h4a3 3 0 0 0 1.254-5.723A2.5 2.5 0 0 0 30 3.5a2.5 2.5 0 0 0-2.4-2.496V1H25zm1 1h2.5a1.5 1.5 0 0 1 0 3H25zm0 4h3a2 2 0 0 1 0 4h-3z" fill="#77216f" style="fill:#e95420;fill-opacity:1"/><path d="M14 6 5 26h3l2.908-6h10.184L24 26h3L18 6h-2zm2 2.402L19.85 17h-7.7z" style="opacity:1;fill:#000;fill-opacity:1;stroke:#fff;stroke-width:2;stroke-linejoin:round;stroke-miterlimit:4;stroke-dasharray:none"/><path style="fill:url(#b);fill-opacity:1" d="M14 6 5 26h3l2.908-6h10.184L24 26h3L18 6h-2zm2 2.402L19.85 17h-7.7z"/></svg>