<svg xmlns="http://www.w3.org/2000/svg" xmlns:xlink="http://www.w3.org/1999/xlink" viewBox="0 0 32 32"><defs><linearGradient id="a"><stop style="stop-color:#151515;stop-opacity:1" offset="0"/><stop style="stop-color:#4d4d4d;stop-opacity:1" offset="1"/></linearGradient><linearGradient xlink:href="#a" id="b" x1="14" y1="4" x2="14" y2="28" gradientUnits="userSpaceOnUse"/></defs><path d="M12 4C9 4 8 5 8 8v6H4v2h4v12h2V16h4v-2h-4V8c0-1.499.504-2 2-2h4V4z" style="opacity:1;fill:#000;fill-opacity:1;stroke:#fff;stroke-width:2;stroke-linecap:round;stroke-linejoin:round;stroke-miterlimit:4;stroke-dasharray:none;stroke-opacity:1"/><path style="opacity:1;fill:#000;stroke:#fff;stroke-width:2;stroke-linejoin:round;stroke-miterlimit:4;stroke-dasharray:none" d="M17.101 17.614c-.025.013-1.453 1.453-1.453 1.453l3.9 3.9-3.932 3.933 1.453 1.453 3.932-3.932 3.932 3.932 1.453-1.453-3.931-3.932 3.9-3.9-1.453-1.454-3.9 3.9z"/><path style="fill:url(#b);fill-opacity:1" d="M12 4C9 4 8 5 8 8v6H4v2h4v12h2V16h4v-2h-4V8c0-1.499.532-2.29 2-2h4V4h-4zm5.102 13.615a154.78 154.78 0 0 0-1.454 1.453l3.9 3.899-3.93 3.933 1.452 1.454 3.932-3.934 3.932 3.934 1.453-1.454-3.932-3.933 3.9-3.899-1.453-1.453-3.9 3.899-3.9-3.899z"/></svg>