<svg xmlns="http://www.w3.org/2000/svg" height="32" width="32"><path style="fill:none;stroke-width:1.33333004" d="M0 0h32v32H0z"/><path style="fill:#1463a5;fill-opacity:1;stroke-width:.97701973" d="M0 6h26v2H0z"/><rect ry="0" y="5" x="7" height="4" width="4" style="opacity:.7;fill:#000;fill-opacity:1;fill-rule:nonzero;stroke:#000;stroke-width:1.99473238;stroke-linecap:round;stroke-linejoin:round;stroke-miterlimit:4;stroke-dasharray:none;stroke-opacity:1"/><rect style="opacity:1;fill:#aee3f8;fill-opacity:1;fill-rule:nonzero;stroke:none;stroke-width:3.41954112;stroke-linecap:round;stroke-linejoin:round;stroke-miterlimit:4;stroke-dasharray:none;stroke-opacity:1" width="4" height="4" x="7" y="5" ry="0"/><path d="M9.643 8.5A.667.667 0 0 0 9 9.167L9.013 30.5a.667.667 0 0 0 1.065.534l6.862-5.107 8.784-.753a.667.667 0 0 0 .404-1.146l-16-15.343a.667.667 0 0 0-.485-.185z" style="opacity:.15;fill-opacity:.991565;fill-rule:evenodd;stroke-width:1.33333004"/><path d="m25.5 23.177-8.972.77-7.014 5.22L9.5 7.832z" style="fill:#333;fill-rule:evenodd;stroke:#fafafa;stroke-width:1.00000024;stroke-linecap:round;stroke-linejoin:round"/><path style="opacity:1;fill:#1463a5;fill-opacity:1;fill-rule:nonzero;stroke:none;stroke-width:4;stroke-linecap:round;stroke-linejoin:round;stroke-miterlimit:4;stroke-dasharray:none;stroke-opacity:1" d="M11.122 2.805h.24v.048h-.24z"/></svg>