<svg xmlns="http://www.w3.org/2000/svg" viewBox="0 0 32 32"><path style="opacity:.7;fill:#000;fill-opacity:1;stroke:#000;stroke-width:2;stroke-linejoin:round;stroke-miterlimit:4;stroke-dasharray:none" d="M10 10v13h12V10Z"/><path d="M10 10v13h12V10Z" style="fill:#d85eca;fill-opacity:1;stroke-width:.857143"/><path style="fill:#232629;fill-opacity:1;fill-rule:evenodd;stroke:none;stroke-width:2;stroke-linecap:round;stroke-linejoin:round" d="M3 7h26v1H3z"/><path style="fill:#fff;fill-rule:evenodd;stroke:none;stroke-width:2;stroke-linecap:round;stroke-linejoin:round" d="M4 8h24v1H4z"/><path style="fill:#232629;fill-opacity:1;fill-rule:evenodd;stroke:none;stroke-width:2;stroke-linecap:round;stroke-linejoin:round" d="M3 5h26v1H3z"/><path style="fill:#fff;fill-rule:evenodd;stroke:none;stroke-width:2;stroke-linecap:round;stroke-linejoin:round" d="M4 6h24v1H4z"/><path style="fill:#232629;fill-opacity:1;fill-rule:evenodd;stroke:none;stroke-width:2;stroke-linecap:round;stroke-linejoin:round" transform="scale(1 -1)" d="M3-26h26v1H3z"/><path style="fill:#fff;fill-rule:evenodd;stroke:none;stroke-width:2;stroke-linecap:round;stroke-linejoin:round" transform="scale(1 -1)" d="M4-25h24v1H4z"/><path style="fill:#232629;fill-opacity:1;fill-rule:evenodd;stroke:none;stroke-width:2;stroke-linecap:round;stroke-linejoin:round" transform="scale(1 -1)" d="M3-28h26v1H3z"/><path style="fill:#fff;fill-rule:evenodd;stroke:none;stroke-width:2;stroke-linecap:round;stroke-linejoin:round" transform="scale(1 -1)" d="M4-27h24v1H4z"/><path style="fill:#232629;fill-opacity:1;fill-rule:evenodd;stroke:none;stroke-width:1.99999;stroke-linecap:round;stroke-linejoin:round" d="M3 9h5v1H3zM3 11h5v1H3zM3 13h5v1H3zM3 15h5v1H3zM3 17h5v1H3zM3 19h5v1H3z"/><path style="fill:#fff;fill-opacity:1;fill-rule:evenodd;stroke:none;stroke-width:1.99999;stroke-linecap:round;stroke-linejoin:round" d="M4 10h5v1H4zM4 12h5v1H4zM4 14h5v1H4zM4 16h5v1H4zM4 18h5v1H4z"/><path style="fill:#232629;fill-opacity:1;fill-rule:evenodd;stroke:none;stroke-width:1.99999;stroke-linecap:round;stroke-linejoin:round" d="M3 21h5v1H3zM3 23h5v1H3z"/><path style="fill:#fff;fill-opacity:1;fill-rule:evenodd;stroke:none;stroke-width:1.99999;stroke-linecap:round;stroke-linejoin:round" d="M4 20h5v1H4zM4 22h5v1H4z"/><path style="fill:#232629;fill-opacity:1;fill-rule:evenodd;stroke:none;stroke-width:1.99999;stroke-linecap:round;stroke-linejoin:round" transform="scale(-1)" d="M-29-24h5v1h-5zM-29-22h5v1h-5zM-29-20h5v1h-5zM-29-18h5v1h-5zM-29-16h5v1h-5zM-29-14h5v1h-5z"/><path style="fill:#fff;fill-opacity:1;fill-rule:evenodd;stroke:none;stroke-width:1.99999;stroke-linecap:round;stroke-linejoin:round" transform="scale(-1)" d="M-28-23h5v1h-5zM-28-21h5v1h-5zM-28-19h5v1h-5zM-28-17h5v1h-5zM-28-15h5v1h-5z"/><path style="fill:#232629;fill-opacity:1;fill-rule:evenodd;stroke:none;stroke-width:1.99999;stroke-linecap:round;stroke-linejoin:round" transform="scale(-1)" d="M-29-12h5v1h-5zM-29-10h5v1h-5z"/><path style="fill:#fff;fill-opacity:1;fill-rule:evenodd;stroke:none;stroke-width:1.99999;stroke-linecap:round;stroke-linejoin:round" transform="scale(-1)" d="M-28-13h5v1h-5zM-28-11h5v1h-5z"/></svg>