<svg xmlns="http://www.w3.org/2000/svg" viewBox="0 0 32 32"><path style="line-height:normal;font-variant-ligatures:normal;font-variant-position:normal;font-variant-caps:normal;font-variant-numeric:normal;font-variant-alternates:normal;font-variant-east-asian:normal;font-feature-settings:normal;font-variation-settings:normal;text-indent:0;text-align:start;text-decoration-line:none;text-decoration-style:solid;text-decoration-color:#000;text-transform:none;text-orientation:mixed;white-space:normal;shape-padding:0;shape-margin:0;inline-size:0;isolation:auto;mix-blend-mode:normal;solid-color:#000;solid-opacity:1" d="M15 4.025v1.987a8.457 8.457 0 015.504 2.47 8.488 8.488 0 01.308 11.698 1 1 0 00-.222.41 1 1 0 00-.41.223 8.488 8.488 0 01-11.698-.31 8.478 8.478 0 01-1.76-9.444L5.12 9.775c-1.975 3.936-1.33 8.864 1.95 12.143 3.702 3.702 9.482 3.941 13.61.883l5.128 5.129a1 1 0 001.414 0l.709-.71a1 1 0 000-1.413L22.8 20.68c3.06-4.13 2.82-9.91-.882-13.612C20 5.151 17.518 4.146 15 4.025zM8 8v1.016c.154-.182.311-.362.482-.534A8.59 8.59 0 019.016 8H8z" color="#000" font-weight="400" font-family="sans-serif" overflow="visible" fill-rule="evenodd" opacity=".7"/><path d="M15 5.008V8H8v4.08l-2.084-1.668a9.5 9.5 0 001.86 10.799 9.5 9.5 0 0013.072.344l5.666 5.666.707-.707-5.666-5.666a9.5 9.5 0 00-.344-13.073A9.5 9.5 0 0015 5.008z" fill="#fff" fill-rule="evenodd"/><path d="M2 6l5-4v3h7v2H7v3z" fill="#e95420"/></svg>