<svg xmlns="http://www.w3.org/2000/svg" viewBox="0 0 32 32"><path d="M7.909 7.936a10 10 0 00.014 14.129 10 10 0 0013.78.345l4.951 4.951.707-.707-4.952-4.952a10 10 0 00-.344-13.78 10 10 0 00-14.142 0 10 10 0 00-.014.014z" opacity=".7" fill-rule="evenodd" stroke="#000" stroke-width="2" stroke-linecap="round" stroke-linejoin="round"/><path d="M14.871 4.994a10 10 0 00-6.95 2.928 10 10 0 00-.013.014 10 10 0 00.014 14.128 10 10 0 0013.781.346l4.951 4.951.707-.707-4.953-4.953a10 10 0 00-.344-13.78 10 10 0 00-7.193-2.927z" fill="#fff" fill-rule="evenodd"/><path d="M14 10v4h-4v2h4v4h2v-4h4v-2h-4v-4z" fill="#46a926"/></svg>