<svg xmlns="http://www.w3.org/2000/svg" viewBox="0 0 32 32"><path style="opacity:.7;fill:#000;fill-opacity:1;fill-rule:evenodd;stroke:#000;stroke-width:2;stroke-linecap:round;stroke-linejoin:round;stroke-miterlimit:4;stroke-dasharray:none" d="M7.909 7.936a10 10 0 0 0 .014 14.129 10 10 0 0 0 13.78.345l4.951 4.951.707-.707-4.952-4.952a10 10 0 0 0-.344-13.78 10 10 0 0 0-14.142 0 10 10 0 0 0-.014.014z"/><path style="opacity:1;fill:#fff;fill-opacity:1;fill-rule:evenodd;stroke-width:4.70588;stroke-linecap:round;stroke-linejoin:round" d="M14.871 4.994a10 10 0 0 0-6.95 2.928 10 10 0 0 0-.013.014 10 10 0 0 0 .014 14.128 10 10 0 0 0 13.781.346l4.951 4.951.707-.707-4.953-4.953a10 10 0 0 0-.344-13.78 10 10 0 0 0-7.193-2.927z"/><path style="opacity:1;fill:#46a926;fill-opacity:1;stroke:none;stroke-width:2;stroke-linejoin:round;stroke-miterlimit:4;stroke-dasharray:none;stroke-opacity:1" d="M14 10v4h-4v2h4v4h2v-4h4v-2h-4v-4z"/></svg>