<svg xmlns="http://www.w3.org/2000/svg" viewBox="0 0 32 32"><path style="opacity:.7;fill:#000;stroke:#000;stroke-width:2;stroke-linejoin:round;stroke-miterlimit:4;stroke-dasharray:none" d="M1 13v5h10v-5z"/><path d="M1 13v5h10v-5z" style="fill:#fff"/><path d="M6 1H1v9h5z" style="opacity:.7;fill:#000;stroke:#000;stroke-width:2;stroke-linejoin:round;stroke-miterlimit:4;stroke-dasharray:none"/><path style="fill:#d85eca;fill-opacity:1" d="M6 1H1v9h5z"/><path style="opacity:.7;fill:#000;stroke:#000;stroke-width:2;stroke-linejoin:round;stroke-miterlimit:4;stroke-dasharray:none" d="M18 10V5H9v5z"/><path d="M18 10V5H9v5z" style="fill:#80a3fa;fill-opacity:1"/><path d="M10.433 10.433a11 11 0 0 0 0 15.557 11 11 0 0 0 15.185.335l4.968 4.968.707-.707-4.962-4.962a11 11 0 0 0-.341-15.19 11 11 0 0 0-15.557 0z" style="opacity:.7;fill:#000;fill-opacity:1;fill-rule:nonzero;stroke:#000;stroke-width:2;stroke-linecap:butt;stroke-linejoin:bevel;stroke-miterlimit:4;stroke-dasharray:none;stroke-dashoffset:0;stroke-opacity:1"/><path style="opacity:1;fill:#fff;fill-opacity:1;fill-rule:nonzero;stroke:none;stroke-width:1.18786657;stroke-linecap:butt;stroke-linejoin:bevel;stroke-miterlimit:4;stroke-dasharray:none;stroke-dashoffset:0;stroke-opacity:1" d="M18.205 7.21a11 11 0 0 0-7.771 3.224 11 11 0 0 0 0 15.556 11 11 0 0 0 15.183.334l4.969 4.969.707-.707-4.963-4.963a11 11 0 0 0-.34-15.19 11 11 0 0 0-7.785-3.222z"/><path style="opacity:1;fill:#46a926;fill-opacity:1;stroke:none;stroke-width:2;stroke-linejoin:round;stroke-miterlimit:4;stroke-dasharray:none;stroke-opacity:1" d="M17 13v4h-4v2h4v4h2v-4h4v-2h-4v-4z"/></svg>