<svg xmlns="http://www.w3.org/2000/svg" xmlns:xlink="http://www.w3.org/1999/xlink" viewBox="0 0 32 32"><defs><linearGradient y2="316.932" x2="702.214" y1="316.932" x1="609.786" gradientUnits="userSpaceOnUse" id="b" xlink:href="#a"/><linearGradient id="a"><stop offset="0" style="stop-color:#5884f4;stop-opacity:1"/><stop style="stop-color:#5884f4;stop-opacity:1" offset=".308"/><stop offset=".308" style="stop-color:#2f5fdd;stop-opacity:1"/><stop style="stop-color:#2f5fdd;stop-opacity:1" offset=".692"/><stop style="stop-color:#234db8;stop-opacity:1" offset=".692"/><stop offset="1" style="stop-color:#234db8;stop-opacity:1"/></linearGradient></defs><path style="fill:#b549b5;fill-opacity:1" d="M8.415.712h13v20h-13Z" transform="rotate(90 12.814 13.898)"/><path d="M4.415-.788a.5.5 0 0 0-.5.5v22a.5.5 0 0 0 .5.5h21a.5.5 0 0 0 .5-.5v-22a.5.5 0 0 0-.5-.5h-18.5zm1.5 2h2v1h-2zm3 0h12v19h-12Zm13 0h2v1h-2zm-16 3h2v1h-2zm16 0h2v1h-2zm-16 3h2v1h-2zm16 0h2v1h-2zm-16 3h2v1h-2zm16 0h2v1h-2zm-16 3h2v1h-2zm16 0h2v1h-2zm-16 3h2v1h-2zm16 0h2v1h-2zm-16 3h2v1h-2zm16 0h2v1h-2z" style="opacity:.7" transform="rotate(90 12.814 13.898)"/><path style="opacity:1;fill:#fff" d="M21.915 19.212h2v1h-2zm0-3h2v1h-2zm0-3h2v1h-2zm-16 6h2v1h-2zm0-3h2v1h-2zm0-3h2v1h-2zm0-3h2v1h-2zm0-3h2v1h-2zm0-3h2v1h-2zm0-3h2v1h-2z" transform="rotate(90 12.814 13.898)"/><path style="display:block;opacity:.7;fill:none;stroke:#000;stroke-linecap:square;stroke-linejoin:round" d="M9.415 10.712h11" display="block" transform="rotate(90 12.814 13.898)"/><path style="opacity:1;fill:#fff;fill-opacity:1;fill-rule:evenodd;stroke:none;stroke-width:2;stroke-linecap:butt;stroke-linejoin:round;stroke-miterlimit:4;stroke-dasharray:none;stroke-opacity:1" d="M21.915 10.212h2v1h-2zM21.915 7.212h2v1h-2zM21.915 4.212h2v1h-2zM21.915 1.212h2v1h-2z" transform="rotate(90 12.814 13.898)"/><g style="display:inline;stroke-width:9.7142868;enable-background:new"><path style="fill:#fee1c2;fill-opacity:1;stroke:none;stroke-width:9.7142868" d="M702.219 319.356 656 400.493l-46.214-81.137.444-28.635h92.433z" transform="matrix(.06093 .03518 -.03815 .06608 -9.69 -17.541)"/><path style="color:#000;display:inline;overflow:visible;visibility:visible;fill:#5d5d5d;fill-opacity:1;fill-rule:nonzero;stroke:none;stroke-width:11.66852188;marker:none;enable-background:accumulate" d="M641.301 374.677 656 400.493l14.699-25.816s1.12-2.766-1.74-2.766c-2.86 0-5.694 3.688-5.694 3.688s-1.494-4.61-7.234-4.61-7.234 4.61-7.234 4.61-2.897-3.688-5.782-3.688c-2.886 0-1.714 2.766-1.714 2.766z" transform="matrix(.06093 .03518 -.03815 .06608 -9.69 -17.541)"/><path style="fill:url(#b);fill-opacity:1;stroke:none;stroke-width:9.7142868" d="M609.786 306.25c0-7.376 28.428-3.688 28.428 7.377 0-18.44 35.534-18.44 35.534 0 0-11.065 28.47-14.753 28.47-7.377V67.93h-92.432Z" transform="matrix(.06093 .03518 -.03815 .06608 -9.69 -17.541)"/></g></svg>