<svg xmlns="http://www.w3.org/2000/svg" viewBox="0 0 32 32"><path d="M25.007 7c1.258.014 2.178-.03 2.931.384.377.208.673.56.838.999.165.438.225.96.225 1.617v12c0 .658-.06 1.179-.225 1.617a1.875 1.875 0 0 1-.838.997c-.753.415-1.673.371-2.931.386H6.994c-1.258-.014-2.179.03-2.931-.384a1.88 1.88 0 0 1-.838-.999C3.06 23.18 3 22.657 3 22V10c0-.658.06-1.179.225-1.617.164-.44.461-.789.838-.997.752-.415 1.673-.371 2.931-.386h18.009z" style="font-style:normal;font-variant:normal;font-weight:400;font-stretch:normal;font-size:15px;line-height:125%;font-family:Ubuntu;-inkscape-font-specification:Ubuntu;text-align:center;letter-spacing:0;word-spacing:0;writing-mode:lr-tb;text-anchor:middle;display:inline;opacity:.7;fill:#000;fill-opacity:1;stroke:none;stroke-width:.99980211"/><path d="M20.017 8.027c1.557.01 5.11-.012 6.66.039.461.042 1.016.206 1.156.71.219.635.108 1.333.145 1.982.008 2.297.023 9.596-.021 11.885-.04.462-.203 1.013-.699 1.164-.632.225-1.284.123-1.936.154-1.424.007-10.851.011-12.277.012-1.704 0-5.408-.005-7.107-.019-.512-.012-1.184.02-1.585-.405-.42-.54-.287-1.268-.323-1.904-.011-2.444-.027-9.911.022-12.357.05-.402.17-.863.575-1.044.669-.294 1.427-.168 2.126-.206 1.755-.012 11.51-.012 13.264-.011z" style="opacity:1;vector-effect:none;fill:#fff;fill-opacity:1;stroke:none;stroke-width:1;stroke-linecap:round;stroke-linejoin:bevel;stroke-miterlimit:4;stroke-dasharray:none;stroke-dashoffset:0;stroke-opacity:1"/><path d="m9 27 21-11v11Z" style="opacity:.7;fill:#000;fill-opacity:1;stroke:#000;stroke-width:2;stroke-linecap:butt;stroke-linejoin:round;stroke-miterlimit:4;stroke-dasharray:none;stroke-opacity:1"/><path style="fill:#fff;fill-opacity:1;stroke:none;stroke-width:1px;stroke-linecap:butt;stroke-linejoin:miter;stroke-opacity:1" d="m9 27 21-11v11Z"/></svg>