<svg xmlns="http://www.w3.org/2000/svg" xmlns:xlink="http://www.w3.org/1999/xlink" viewBox="0 0 32 32"><defs><linearGradient xlink:href="#a" id="b" x1="17" y1="4" x2="17" y2="28" gradientUnits="userSpaceOnUse" gradientTransform="translate(.015 1.983)"/><linearGradient id="a"><stop style="stop-color:#151515;stop-opacity:1" offset="0"/><stop style="stop-color:#4d4d4d;stop-opacity:1" offset="1"/></linearGradient></defs><path style="opacity:1;fill:#000;stroke:#fff;stroke-width:2;stroke-linejoin:round;stroke-miterlimit:4;stroke-dasharray:none" d="M8.738 5.983c-1.777 0-2.722.706-2.722 2.51v2.441l-.002.05h.002v3.595c0 1.114-.035 2.404-1.016 2.404h-.985v2H5c.982 0 1 1.29 1.016 2.404v3.596h-.002l.002.049v2.441c0 1.804.945 2.51 2.722 2.51h.277v-2c-1.184 0-1-.478-1-2.21v-5.384c0-.83-.204-2.067-1.203-2.58.999-.512 1.203-1.75 1.203-2.582v-5.033c0-1.733-.184-2.21 1-2.21v-2zM16.277 6C18.054 6 19 6.706 19 8.51v2.441l.002.049H19v3.596c0 1.114.036 2.344 1.015 2.404H21v2h-.985c-.981 0-1.081 1.292-1.015 2.404V25h.002l-.002.049v2.441c0 1.804-.946 2.51-2.723 2.51H16v-2c1.185 0 1-.478 1-2.21v-5.384c0-.83.205-2.067 1.203-2.58-.998-.513-1.203-1.75-1.203-2.582v-5.033C17 8.478 17.185 8 16 8V6Z"/><path style="fill:url(#b);fill-opacity:1" d="M8.738 5.983c-1.777 0-2.723.706-2.723 2.51v2.441l-.002.05h.002v3.595c0 1.114-.034 2.404-1.015 2.404h-.985v2H5c.981 0 1 1.29 1.015 2.404v3.596h-.002l.002.049v2.441c0 1.804.946 2.51 2.723 2.51h.277v-2c-1.184 0-1-.478-1-2.21v-5.384c0-.83-.204-2.067-1.203-2.58.999-.512 1.203-1.75 1.203-2.582v-5.033c0-1.733-.184-2.21 1-2.21v-2zM16 6v2c1.185 0 1 .478 1 2.21v5.034c0 .831.205 2.07 1.203 2.582-.998.513-1.203 1.75-1.203 2.58v5.383c0 1.733.185 2.211-1 2.211v2h.277C18.054 30 19 29.294 19 27.49V25.05l.002-.049H19v-3.596c0-1.114.034-2.38 1.016-2.404H21v-2h-.984c-.982 0-1.014-1.29-1.016-2.404V11h.002L19 10.951V8.51C19 6.706 18.054 6 16.277 6Z"/><path style="fill:#9141ac;fill-opacity:1;stroke:none;stroke-width:1px;stroke-linecap:butt;stroke-linejoin:miter;stroke-opacity:1" d="m25.983 15.998 4-5h-8zM27 10.983v-7c0-2-1-3-3-3h-8L15.985 3 23 2.983c2 0 2 0 2 2v6z"/></svg>