<svg xmlns="http://www.w3.org/2000/svg" viewBox="0 0 32 32"><path style="fill:#000;stroke:#000;opacity:.7;stroke-linejoin:round;stroke-width:2;stroke-miterlimit:4;stroke-dasharray:none" fill="#232629" d="M9 7v1h2.717l7.928 17H22a3 3 0 0 0 3 3 3 3 0 0 0 3-3 3 3 0 0 0-3-3 3 3 0 0 0-2.826 2h-1.89L12.354 7h-1.103zm16 16a2 2 0 0 1 2 2 2 2 0 0 1-2 2 2 2 0 0 1-2-2 2 2 0 0 1 2-2z"/><path d="M9 7v1h2.717l7.928 17H22a3 3 0 0 0 3 3 3 3 0 0 0 3-3 3 3 0 0 0-3-3 3 3 0 0 0-2.826 2h-1.89L12.354 7h-1.103zm16 16a2 2 0 0 1 2 2 2 2 0 0 1-2 2 2 2 0 0 1-2-2 2 2 0 0 1 2-2z" fill="#232629" style="fill:#fff"/></svg>