<svg xmlns="http://www.w3.org/2000/svg" viewBox="0 0 32 32"><path style="opacity:1;fill:#fff;fill-opacity:1;stroke:none;stroke-width:2;stroke-linecap:round;stroke-linejoin:round;stroke-miterlimit:4;stroke-dasharray:none;stroke-opacity:1" d="M5 5h22v22H5z"/><path style="fill:#232629" d="M4 4v24h24V4zm1 1h22v22H5z"/><path style="fill:#7764D8" d="M3 3v26h26V3zm1 1h24v24H4z"/><path d="M21.5 14c-.68 2.34-2.347 4.353-3.082 5.965A3.366 3.366 0 0 0 18 21.563C18 23.468 19.56 25 21.5 25s3.5-1.532 3.5-3.438c0-.58-.161-1.118-.418-1.597C23.847 18.353 22.18 16.34 21.5 14z" style="fill:#232629;fill-opacity:1"/></svg>