<svg xmlns="http://www.w3.org/2000/svg" viewBox="0 0 32 32"><path style="opacity:.7;fill:#000;fill-opacity:1;stroke:#000;stroke-width:2;stroke-linecap:round;stroke-linejoin:round;stroke-miterlimit:4;stroke-dasharray:none;stroke-opacity:1" d="M7 4c-1.108 0-2 .892-2 2v15c0 1.108.892 2 2 2h18c1.108 0 2-.892 2-2V6c0-1.108-.892-2-2-2H7z"/><path overflow="visible" style="color:#bebebe;overflow:visible;fill:#7764D8;fill-opacity:1;stroke-width:1.82574177;marker:none" d="M6 26h20v2H6z"/><path style="opacity:1;fill:#fff;fill-opacity:1;stroke:none;stroke-width:1;stroke-linecap:round;stroke-linejoin:round;stroke-miterlimit:4;stroke-dasharray:none;stroke-opacity:1" d="M7 4c-1.108 0-2 .892-2 2v15c0 1.108.892 2 2 2h18c1.108 0 2-.892 2-2V6c0-1.108-.892-2-2-2H7z"/></svg>