<svg viewBox="0 0 32 32" xmlns="http://www.w3.org/2000/svg"><path style="opacity:.7;fill:#000;fill-opacity:1;stroke:#000;stroke-width:2;stroke-linecap:round;stroke-linejoin:round;stroke-miterlimit:4;stroke-dasharray:none;stroke-opacity:1" d="M7 5c-1.108 0-2 .892-2 2v15c0 1.108.892 2 2 2h18c1.108 0 2-.892 2-2V7c0-1.108-.892-2-2-2z"/><path style="opacity:1;fill:#fff;fill-opacity:1;stroke:none;stroke-width:1;stroke-linecap:round;stroke-linejoin:round;stroke-miterlimit:4;stroke-dasharray:none;stroke-opacity:1" d="M7 5c-1.108 0-2 .892-2 2v15c0 1.108.892 2 2 2h18c1.108 0 2-.892 2-2V7c0-1.108-.892-2-2-2z"/><path style="opacity:.7;fill:#fff;fill-opacity:1;stroke:#000;stroke-width:2;stroke-linecap:round;stroke-linejoin:round;stroke-miterlimit:4;stroke-dasharray:none;stroke-opacity:1" d="M15 21c-1.92 0-2 0-2 2v3c0 2 0 2 2 2h12c2 0 2 0 2-2v-3c0-2 0-2-2-2z"/><path style="opacity:1;fill:#fff;fill-opacity:1;stroke:none;stroke-width:1;stroke-linecap:round;stroke-linejoin:round;stroke-miterlimit:4;stroke-dasharray:none;stroke-opacity:1" d="M15 21c-1.92 0-2 0-2 2v3c0 2 0 2 2 2h12c2 0 2 0 2-2v-3c0-2 0-2-2-2z"/><path overflow="visible" style="color:#bebebe;overflow:visible;fill:#9141ac;fill-opacity:1;stroke-width:1.82091;marker:none" d="M15 23h12v1H15zM15 25h12v1H15z"/></svg>