<svg viewBox="0 0 32 32" xmlns="http://www.w3.org/2000/svg"><path style="opacity:1;fill:#666;fill-opacity:1;fill-rule:nonzero;stroke:none;stroke-width:2;stroke-linecap:butt;stroke-linejoin:round;stroke-miterlimit:4;stroke-dasharray:none;stroke-dashoffset:0;stroke-opacity:1" d="M11 4c-1.108 0-2 .892-2 2v4H7c-1.108 0-2 .892-2 2v9c0 1.108.892 2 2 2h2v3c0 1.108.892 2 2 2h8v-8a1 1 0 0 1 .08-.373 1 1 0 0 1 .06-.111 1 1 0 0 1 .157-.21 1 1 0 0 1 .1-.09 1 1 0 0 1 .236-.132 1 1 0 0 1 .11-.043 1 1 0 0 1 .382-.033 1 1 0 0 1 .322.097l6.162 3.082A1.99 1.99 0 0 0 27 21v-9c0-1.108-.892-2-2-2h-2V6c0-1.108-.892-2-2-2H11z"/><path style="opacity:1;fill:#fff;fill-opacity:1;fill-rule:nonzero;stroke:none;stroke-width:2;stroke-linecap:butt;stroke-linejoin:round;stroke-miterlimit:4;stroke-dasharray:none;stroke-dashoffset:0;stroke-opacity:1" d="M11 5h10c.554 0 1 .446 1 1v4H10V6c0-.554.446-1 1-1z"/><path style="opacity:1;fill:#b3b3b3;fill-opacity:1;fill-rule:nonzero;stroke:none;stroke-width:2;stroke-linecap:butt;stroke-linejoin:round;stroke-miterlimit:4;stroke-dasharray:none;stroke-dashoffset:0;stroke-opacity:1" d="M7 11c-.554 0-1 .446-1 1v9c0 .554.446 1 1 1h12v-2a1 1 0 0 1 1.125-.992 1 1 0 0 1 .322.097l5.239 2.62A.993.993 0 0 0 26 21v-9c0-.554-.446-1-1-1H7z"/><path style="opacity:1;fill:#666;fill-opacity:1;fill-rule:nonzero;stroke:none;stroke-width:2;stroke-linecap:butt;stroke-linejoin:round;stroke-miterlimit:4;stroke-dasharray:none;stroke-dashoffset:0;stroke-opacity:1" d="M9 19v4h10v-3a1 1 0 0 1 1.125-.992 1 1 0 0 1 .322.097L23 20.383V19H9z"/><path style="opacity:1;vector-effect:none;fill:#fff;fill-opacity:1;stroke:none;stroke-width:4;stroke-linecap:butt;stroke-linejoin:round;stroke-miterlimit:4;stroke-dasharray:none;stroke-dashoffset:0;stroke-opacity:1" d="M10 20v6c0 1 1 1 1 1h8v-7h-9z"/><path style="color:#000;font-weight:400;line-height:normal;font-family:sans-serif;font-variant-ligatures:normal;font-variant-position:normal;font-variant-caps:normal;font-variant-numeric:normal;font-variant-alternates:normal;font-feature-settings:normal;text-indent:0;text-align:start;text-decoration:none;text-decoration-line:none;text-decoration-style:solid;text-decoration-color:#000;text-transform:none;text-orientation:mixed;white-space:normal;shape-padding:0;overflow:visible;isolation:auto;mix-blend-mode:normal;fill:#a7a7f1;fill-opacity:1;marker:none" d="M11 25v1h8v-1h-8zM11 23v1h8v-1h-8z"/><path style="fill:#7764D8;fill-opacity:1;stroke:none;stroke-width:1px;stroke-linecap:butt;stroke-linejoin:miter;stroke-opacity:1" d="M20 30V20l10 5z"/></svg>