<svg xmlns="http://www.w3.org/2000/svg" xmlns:xlink="http://www.w3.org/1999/xlink" viewBox="0 0 32 32"><defs><linearGradient id="a"><stop style="stop-color:#151515;stop-opacity:1" offset="0"/><stop style="stop-color:#4d4d4d;stop-opacity:1" offset="1"/></linearGradient><linearGradient xlink:href="#a" id="b" x1="11" y1="15" x2="11" y2="29" gradientUnits="userSpaceOnUse" gradientTransform="translate(-2)"/></defs><path style="fill:#f2cbf8;fill-opacity:1;stroke-width:.95833331" d="M16 4.5C9.649 4.5 4.5 5.787 4.5 7.375v17.25C4.5 26.213 9.649 27.5 16 27.5s11.5-1.287 11.5-2.875V7.375C27.5 5.787 22.351 4.5 16 4.5z"/><path d="M16 4A12 3 0 0 0 4 7v18a12 3 0 0 0 12 3 12 3 0 0 0 12-3V7a12 3 0 0 0-12-3zm0 1a11 2 0 0 1 11 2 11 2 0 0 1-11 2A11 2 0 0 1 5 7a11 2 0 0 1 11-2zm11 3.191V13a11 2 0 0 1-11 2 11 2 0 0 1-11-2V8.195A12 3 0 0 0 16 10a12 3 0 0 0 11-1.809Zm0 6V19a11 2 0 0 1-11 2 11 2 0 0 1-11-2v-4.805A12 3 0 0 0 16 16a12 3 0 0 0 11-1.809Zm0 6V25a11 2 0 0 1-11 2 11 2 0 0 1-11-2v-4.805A12 3 0 0 0 16 22a12 3 0 0 0 11-1.809Z" style="fill:#8e03a3;fill-opacity:1"/><path d="m3.05 15.343-1.414 1.414L5.879 21l-4.243 4.243 1.414 1.414 4.243-4.243L8.707 21l-1.414-1.414ZM9 27h7v2H9z" style="opacity:1;fill:#000;fill-opacity:1;stroke:#fff;stroke-width:2;stroke-linejoin:round;stroke-miterlimit:4;stroke-dasharray:none"/><path style="opacity:1;fill:url(#b);fill-opacity:1;stroke:none;stroke-width:2;stroke-linejoin:round;stroke-miterlimit:4;stroke-dasharray:none" d="m3.05 15.344-1.413 1.414L5.879 21l-4.242 4.242 1.414 1.414 4.242-4.242L8.707 21l-1.414-1.414ZM9 27v2h7v-2z"/></svg>