<svg xmlns="http://www.w3.org/2000/svg" xmlns:xlink="http://www.w3.org/1999/xlink" viewBox="0 0 32 32"><defs><linearGradient xlink:href="#a" id="b" x1="16" y1="6" x2="16" y2="26" gradientUnits="userSpaceOnUse" gradientTransform="translate(0 -3)"/><linearGradient id="a"><stop style="stop-color:#151515;stop-opacity:1" offset="0"/><stop style="stop-color:#4d4d4d;stop-opacity:1" offset="1"/></linearGradient></defs><path style="color:#000;font-style:normal;font-variant:normal;font-weight:400;font-stretch:normal;font-size:medium;line-height:normal;font-family:sans-serif;font-variant-ligatures:normal;font-variant-position:normal;font-variant-caps:normal;font-variant-numeric:normal;font-variant-alternates:normal;font-feature-settings:normal;text-indent:0;text-align:start;text-decoration:none;text-decoration-line:none;text-decoration-style:solid;text-decoration-color:#000;letter-spacing:normal;word-spacing:normal;text-transform:none;writing-mode:lr-tb;direction:ltr;text-orientation:mixed;dominant-baseline:auto;baseline-shift:baseline;text-anchor:start;white-space:normal;shape-padding:0;clip-rule:nonzero;display:inline;overflow:visible;visibility:visible;opacity:1;isolation:auto;mix-blend-mode:normal;color-interpolation:sRGB;color-interpolation-filters:linearRGB;solid-color:#000;solid-opacity:1;vector-effect:none;fill:#c7162b;fill-opacity:1;fill-rule:nonzero;stroke:none;stroke-width:1px;stroke-linecap:butt;stroke-linejoin:miter;stroke-miterlimit:4;stroke-dasharray:none;stroke-dashoffset:0;stroke-opacity:1;color-rendering:auto;image-rendering:auto;shape-rendering:auto;text-rendering:auto;enable-background:accumulate" d="M7 25c-.417 0-.766.238-.979.492-.212.255-.343.535-.468.785s-.244.47-.344.59c-.1.12-.126.133-.209.133v1c.417 0 .766-.238.979-.492.212-.255.343-.535.468-.785s.244-.47.344-.59c.1-.12.126-.133.209-.133.083 0 .109.012.209.133.1.12.219.34.344.59.125.25.256.53.468.785.213.254.562.492.979.492.417 0 .766-.238.979-.492.212-.255.343-.535.468-.785s.244-.47.344-.59c.1-.12.126-.133.209-.133.083 0 .109.012.209.133.1.12.219.34.344.59.125.25.256.53.468.785.213.254.562.492.979.492.417 0 .766-.238.979-.492.212-.255.343-.535.468-.785s.244-.47.344-.59c.1-.12.126-.133.209-.133.083 0 .109.012.209.133.1.12.219.34.344.59.125.25.256.53.468.785.213.254.562.492.979.492.417 0 .766-.238.979-.492.212-.255.343-.535.468-.785s.244-.47.344-.59c.1-.12.126-.133.209-.133.083 0 .109.012.209.133.1.12.219.34.344.59.125.25.256.53.468.785.213.254.562.492.979.492.417 0 .766-.238.979-.492.212-.255.343-.535.468-.785s.244-.47.344-.59c.1-.12.126-.133.209-.133.083 0 .109.012.209.133.1.12.219.34.344.59.125.25.256.53.468.785.213.254.562.492.979.492.417 0 .766-.238.979-.492.212-.255.343-.535.468-.785s.244-.47.344-.59c.1-.12.126-.133.209-.133v-1c-.417 0-.766.238-.979.492-.212.255-.343.535-.468.785s-.244.47-.344.59c-.1.12-.126.133-.209.133-.083 0-.109-.012-.209-.133-.1-.12-.219-.34-.344-.59-.125-.25-.256-.53-.468-.785-.213-.254-.562-.492-.979-.492-.417 0-.766.238-.979.492-.212.255-.343.535-.468.785s-.244.47-.344.59c-.1.12-.126.133-.209.133-.083 0-.109-.012-.209-.133-.1-.12-.219-.34-.344-.59-.125-.25-.256-.53-.468-.785-.213-.254-.562-.492-.979-.492-.417 0-.766.238-.979.492-.212.255-.343.535-.468.785s-.244.47-.344.59c-.1.12-.126.133-.209.133-.083 0-.109-.012-.209-.133-.1-.12-.219-.34-.344-.59-.125-.25-.256-.53-.468-.785-.213-.254-.562-.492-.979-.492-.417 0-.766.238-.979.492-.212.255-.343.535-.468.785s-.244.47-.344.59c-.1.12-.126.133-.209.133-.083 0-.109-.012-.209-.133-.1-.12-.219-.34-.344-.59-.125-.25-.256-.53-.468-.785-.213-.254-.562-.492-.979-.492-.417 0-.766.238-.979.492-.212.255-.343.535-.468.785s-.244.47-.344.59c-.1.12-.126.133-.209.133-.083 0-.109-.012-.209-.133-.1-.12-.219-.34-.344-.59-.125-.25-.256-.53-.468-.785C7.766 25.238 7.417 25 7 25z"/><path d="M14 3 5 23h3l2.908-6h10.184L24 23h3L18 3h-2zm2 2.402L19.85 14h-7.7z" style="opacity:1;fill:#000;fill-opacity:1;stroke:#fff;stroke-width:2;stroke-linejoin:round;stroke-miterlimit:4;stroke-dasharray:none"/><path style="fill:url(#b);fill-opacity:1" d="M14 3 5 23h3l2.908-6h10.184L24 23h3L18 3h-2zm2 2.402L19.85 14h-7.7z"/></svg>