<svg xmlns="http://www.w3.org/2000/svg" viewBox="0 0 32 32"><path style="fill:#000;stroke:#000;opacity:.7;stroke-width:2;stroke-miterlimit:4;stroke-dasharray:none;stroke-linejoin:round" fill="#232629" d="m16 4-.797 6.047-2.297-5.625.797 6.047L10 5.594l2.344 5.625-4.828-3.703 3.703 4.828L5.594 10l4.875 3.703-6.047-.797 5.625 2.297L4 16l6.047.797-5.625 2.297 6.047-.797L5.594 22l5.625-2.344-3.703 4.828 3.984-3.056V17.5L13 16h15l-6.047-.797 5.625-2.297-6.047.797L26.406 10l-5.625 2.344 3.703-4.828-4.828 3.703L22 5.594l-3.703 4.875.797-6.047-2.297 5.625zm-.266 13.5c-.37 0-.78.056-1.228.172a9.958 9.958 0 0 0-1.461.531v1.58c.506-.308 1.057-.483 1.5-.635.447-.151.794-.17 1.195-.17.566 0 .91.06 1.26.405.354.345.512.583.512 1.13 0 .337-.119.623-.283.973-.16.346-.314.541-.723 1.043-.33.362-.8.957-1.639 1.883-.835.921-1.362 1.562-1.847 2.11L13 28h6v-1.555l-4.139.057c1.03-1.147 1.503-1.714 2.069-2.35.565-.64.902-1.026 1.007-1.16.384-.516.648-.962.792-1.34.147-.382.22-.785.22-1.209 0-.893-.29-1.608-.873-2.142-.582-.534-1.363-.801-2.342-.801zm9.266 0-4.5 6.357V25H25v3h1.5v-3H28v-1.5h-1.5v-6zm0 2.215V23.5h-2.555z"/><path d="m16 4-.797 6.047-2.297-5.625.797 6.047L10 5.594l2.344 5.625-4.828-3.703 3.703 4.828L5.594 10l4.875 3.703-6.047-.797 5.625 2.297L4 16l6.047.797-5.625 2.297 6.047-.797L5.594 22l5.625-2.344-3.703 4.828 3.984-3.056V17.5L13 16h15l-6.047-.797 5.625-2.297-6.047.797L26.406 10l-5.625 2.344 3.703-4.828-4.828 3.703L22 5.594l-3.703 4.875.797-6.047-2.297 5.625zm-.266 13.5c-.37 0-.78.056-1.228.172a9.958 9.958 0 0 0-1.461.531v1.58c.506-.308 1.057-.483 1.5-.635.447-.151.794-.17 1.195-.17.566 0 .91.06 1.26.405.354.345.512.583.512 1.13 0 .337-.119.623-.283.973-.16.346-.314.541-.723 1.043-.33.362-.8.957-1.639 1.883-.835.921-1.362 1.562-1.847 2.11L13 28h6v-1.555l-4.139.057c1.03-1.147 1.503-1.714 2.069-2.35.565-.64.902-1.026 1.007-1.16.384-.516.648-.962.792-1.34.147-.382.22-.785.22-1.209 0-.893-.29-1.608-.873-2.142-.582-.534-1.363-.801-2.342-.801zm9.266 0-4.5 6.357V25H25v3h1.5v-3H28v-1.5h-1.5v-6zm0 2.215V23.5h-2.555z" fill="#232629" style="fill:#fff"/></svg>