<svg xmlns="http://www.w3.org/2000/svg" xmlns:xlink="http://www.w3.org/1999/xlink" viewBox="0 0 16 16"><defs><linearGradient id="a"><stop offset="0" stop-color="#151515"/><stop offset="1" stop-color="#4d4d4d"/></linearGradient><linearGradient xlink:href="#a" id="b" x1="8" y1="1" x2="8" y2="15" gradientUnits="userSpaceOnUse"/></defs><path d="M4 1v11a3 3 0 003 3h2a3 3 0 003-3V3a2 2 0 00-2-2H8a2 2 0 00-2 2v8a2 2 0 104 0V3H9v8a1 1 0 01-2 0V3a1 1 0 011-1h2a1 1 0 011 1v9a2 2 0 01-2 2H7a2 2 0 01-2-2V1z" stroke="#fff" stroke-width="2" stroke-linejoin="round"/><path d="M4 1v11a3 3 0 003 3h2a3 3 0 003-3V3a2 2 0 00-2-2H8a2 2 0 00-2 2v8a2 2 0 104 0V3H9v8a1 1 0 01-2 0V3a1 1 0 011-1h2a1 1 0 011 1v9a2 2 0 01-2 2H7a2 2 0 01-2-2V1z" fill="url(#b)"/></svg>