<svg xmlns="http://www.w3.org/2000/svg" viewBox="0 0 16 16"><path d="M4.994 15c-1.258-.014-2.179.031-2.931-.384a1.88 1.88 0 01-.838-.998C1.06 13.178 1 12.658 1 12V4c0-.658.06-1.179.225-1.618.164-.438.461-.788.838-.996C2.815.971 3.736 1.015 4.994 1h6.012c1.258.014 2.179-.031 2.931.384.377.208.674.56.838.998.165.44.225.96.225 1.618v8c0 .658-.06 1.179-.225 1.618a1.875 1.875 0 01-.838.996c-.752.415-1.673.371-2.931.386H4.998z" style="line-height:125%;-inkscape-font-specification:Ubuntu;text-align:center" font-weight="400" font-size="15" font-family="Ubuntu" letter-spacing="0" word-spacing="0" text-anchor="middle" opacity=".7"/><path d="M4.983 13.973c-1.557-.01-.11.012-1.66-.039-.46-.042-1.016-.206-1.155-.71-.219-.635-.108-1.333-.146-1.981-.007-2.298-.023-5.597.022-7.886.039-.462.202-1.013.699-1.164.632-.225 1.284-.123 1.936-.154 1.424-.007-.15-.011 1.276-.012 1.704 0 4.408.005 6.107.019.512.012 1.184-.02 1.585.405.42.54.287 1.268.323 1.904.011 2.444.027 5.911-.022 8.357-.05.402-.17.863-.575 1.044-.669.294-1.427.168-2.126.206-1.755.012-4.51.012-6.264.011z" fill="#fff"/><rect width="10" height="2" x="2.983" y="-12" ry="0" transform="scale(1 -1)" fill="#fa9381"/></svg>