<svg viewBox="0 0 24 24" xmlns="http://www.w3.org/2000/svg"><path style="opacity:.7;fill:#000;stroke:#000;stroke-width:2;stroke-linejoin:round;stroke-miterlimit:4;stroke-dasharray:none" d="M16 3.998c2 0 3 0 3 2v12.004c0 2-1 2-3 2H8c-2 0-3 0-3-2V5.998c0-2 1-2 3-2z"/><path d="M16 3.998c2 0 3 0 3 2v12.004c0 2-1 2-3 2H8c-2 0-3 0-3-2V5.998c0-2 1-2 3-2z" style="fill:#fff;stroke-width:1"/><g aria-label="B5" style="font-size:10.6681px;line-height:1.25;letter-spacing:0;word-spacing:0"><path d="M8.403 15.72q-.224 0-.49-.011-.257-.01-.523-.032-.256-.022-.512-.054t-.47-.085V8.37q.214-.053.47-.085.256-.032.512-.054.266-.02.523-.032.256-.01.48-.01.64 0 1.194.096.566.096.971.33.416.225.651.598.235.373.235.917 0 .608-.288 1.003-.288.384-.768.576.65.192 1.034.608t.384 1.174q0 1.11-.821 1.675-.81.554-2.582.554zm-.97-3.51v2.603q.117.01.277.021l.32.021h.437q.459 0 .864-.053.416-.064.726-.213.31-.15.49-.416.193-.267.193-.673 0-.362-.14-.608-.138-.256-.404-.405-.257-.15-.62-.213-.362-.064-.81-.064zm0-.832H8.52q.384 0 .725-.054.341-.053.587-.192.256-.139.395-.363.149-.224.149-.565 0-.32-.15-.533-.149-.224-.416-.352-.256-.14-.608-.203-.352-.064-.746-.064-.395 0-.62.01-.223.011-.405.033zM14.473 11.11q1.611.065 2.358.705.757.64.757 1.739 0 .49-.17.907-.16.416-.502.714-.33.3-.842.47-.512.17-1.217.17-.277 0-.565-.042-.288-.043-.533-.107-.246-.064-.438-.128t-.277-.107l.192-.864q.181.086.587.224.416.139 1.013.139.48 0 .8-.107.33-.106.534-.288.202-.181.288-.416.096-.245.096-.512 0-.405-.139-.715-.139-.32-.49-.533-.353-.213-.94-.32-.586-.117-1.482-.117.064-.523.096-.982.042-.459.074-.896.032-.437.054-.864l.042-.918h3.563v.843h-2.699q-.01.16-.032.438l-.042.565-.043.565q-.021.278-.043.438z" style="font-family:Ubuntu;-inkscape-font-specification:Ubuntu" transform="scale(1.00013 .99987)"/></g></svg>