<?xml version="1.0" encoding="UTF-8" standalone="no"?>
<svg
   viewBox="0 0 32 32"
   version="1.1"
   id="svg6"
   sodipodi:docname="insertneutralparagraph.svg"
   inkscape:version="1.4.2 (ebf0e940d0, 2025-05-08)"
   inkscape:export-filename="/home/jupiter007/Libreoffice yaru theme fullcolor/build/cmd/32/ar/insertneutralparagraph.png"
   inkscape:export-xdpi="96"
   inkscape:export-ydpi="96"
   xmlns:inkscape="http://www.inkscape.org/namespaces/inkscape"
   xmlns:sodipodi="http://sodipodi.sourceforge.net/DTD/sodipodi-0.dtd"
   xmlns="http://www.w3.org/2000/svg"
   xmlns:svg="http://www.w3.org/2000/svg"
   xmlns:rdf="http://www.w3.org/1999/02/22-rdf-syntax-ns#"
   xmlns:cc="http://creativecommons.org/ns#"
   xmlns:dc="http://purl.org/dc/elements/1.1/">
  <metadata
     id="metadata12">
    <rdf:RDF>
      <cc:Work
         rdf:about="">
        <dc:format>image/svg+xml</dc:format>
        <dc:type
           rdf:resource="http://purl.org/dc/dcmitype/StillImage" />
        <dc:title />
      </cc:Work>
    </rdf:RDF>
  </metadata>
  <defs
     id="defs10" />
  <sodipodi:namedview
     pagecolor="#ffffff"
     bordercolor="#666666"
     borderopacity="1"
     objecttolerance="10"
     gridtolerance="10"
     guidetolerance="10"
     inkscape:pageopacity="0"
     inkscape:pageshadow="2"
     inkscape:window-width="1920"
     inkscape:window-height="1011"
     id="namedview8"
     showgrid="true"
     inkscape:zoom="20.85965"
     inkscape:cx="15.172834"
     inkscape:cy="19.439444"
     inkscape:window-x="0"
     inkscape:window-y="0"
     inkscape:window-maximized="1"
     inkscape:current-layer="svg6"
     inkscape:document-rotation="0"
     inkscape:showpageshadow="2"
     inkscape:pagecheckerboard="0"
     inkscape:deskcolor="#d1d1d1">
    <inkscape:grid
       type="xygrid"
       id="grid822"
       originx="0"
       originy="0"
       spacingy="1"
       spacingx="1"
       units="px" />
  </sodipodi:namedview>
  <path
     id="rect832"
     style="opacity:1;vector-effect:none;fill:#00ff00;fill-opacity:1;stroke:none;stroke-width:2.15385;stroke-linecap:round;stroke-linejoin:round;stroke-miterlimit:4;stroke-dasharray:none;stroke-dashoffset:0;stroke-opacity:1"
     d="M -22 4 L -22 5 L -23 5 L -23 8 L -22 8 L -22 9 L -25 9 L -25 8 L -24 8 L -24 5 L -25 5 L -25 4 L -22 4 z M -22 22 L -22 23 L -23 23 L -23 26 L -22 26 L -22 27 L -27 27 L -27 26 L -26 26 L -26 23 L -27 23 L -27 22 L -22 22 z M -24 23 L -25 23 L -25 26 L -24 26 L -24 23 z "
     transform="scale(-1,1)" />
  <path
     id="rect861"
     style="fill:#0000ff;fill-rule:evenodd;stroke-width:3;stroke-linecap:round;stroke-linejoin:round"
     d="M -3 -4 L -3 -5 L -19 -5 L -19 -4 L -3 -4 z M -7 -6 L -7 -7 L -19 -7 L -19 -6 L -7 -6 z M -5 -8 L -5 -9 L -19 -9 L -19 -8 L -5 -8 z M -3 -13 L -3 -14 L -19 -14 L -19 -13 L -3 -13 z M -7 -15 L -7 -16 L -19 -16 L -19 -15 L -7 -15 z M -5 -17 L -5 -18 L -19 -18 L -19 -17 L -5 -17 z M -3 -22 L -3 -23 L -19 -23 L -19 -22 L -3 -22 z M -7 -24 L -7 -25 L -19 -25 L -19 -24 L -7 -24 z M -5 -26 L -5 -27 L -19 -27 L -19 -26 L -5 -26 z "
     transform="scale(-1)" />
</svg>
