<?xml version="1.0" encoding="UTF-8" standalone="no"?>
<svg
   viewBox="0 0 32 32"
   version="1.1"
   id="svg6"
   sodipodi:docname="numberliststyle.svg"
   inkscape:version="1.4.2 (ebf0e940d0, 2025-05-08)"
   inkscape:export-filename="/home/jupiter007/Libreoffice yaru theme fullcolor/build/cmd/32/ar/defaultnumbering.png"
   inkscape:export-xdpi="96"
   inkscape:export-ydpi="96"
   xmlns:inkscape="http://www.inkscape.org/namespaces/inkscape"
   xmlns:sodipodi="http://sodipodi.sourceforge.net/DTD/sodipodi-0.dtd"
   xmlns="http://www.w3.org/2000/svg"
   xmlns:svg="http://www.w3.org/2000/svg"
   xmlns:rdf="http://www.w3.org/1999/02/22-rdf-syntax-ns#"
   xmlns:cc="http://creativecommons.org/ns#"
   xmlns:dc="http://purl.org/dc/elements/1.1/">
  <metadata
     id="metadata12">
    <rdf:RDF>
      <cc:Work
         rdf:about="">
        <dc:format>image/svg+xml</dc:format>
        <dc:type
           rdf:resource="http://purl.org/dc/dcmitype/StillImage" />
        <dc:title />
      </cc:Work>
    </rdf:RDF>
  </metadata>
  <defs
     id="defs10" />
  <sodipodi:namedview
     pagecolor="#ffffff"
     bordercolor="#666666"
     borderopacity="1"
     objecttolerance="10"
     gridtolerance="10"
     guidetolerance="10"
     inkscape:pageopacity="0"
     inkscape:pageshadow="2"
     inkscape:window-width="1920"
     inkscape:window-height="1011"
     id="namedview8"
     showgrid="true"
     inkscape:zoom="20.85965"
     inkscape:cx="11.337678"
     inkscape:cy="12.440285"
     inkscape:window-x="0"
     inkscape:window-y="0"
     inkscape:window-maximized="1"
     inkscape:current-layer="svg6"
     inkscape:document-rotation="0"
     inkscape:showpageshadow="2"
     inkscape:pagecheckerboard="0"
     inkscape:deskcolor="#d1d1d1">
    <inkscape:grid
       type="xygrid"
       id="grid822"
       originx="0"
       originy="0"
       spacingy="1"
       spacingx="1"
       units="px" />
  </sodipodi:namedview>
  <path
     id="rect828"
     style="opacity:1;fill:#00ff00;fill-opacity:1;stroke:none;stroke-width:2;stroke-linejoin:round;stroke-miterlimit:4;stroke-dasharray:none;stroke-opacity:1"
     d="M 25 4 L 23.552734 5.4472656 L 24.275391 6.1699219 L 25 5.4453125 L 25 9 L 26 9 L 26 4 L 25 4 z M 24.974609 13.005859 C 24.413783 13.028052 23.75 13.161525 23 13.429688 L 24 14 C 26.46741 13.508621 26.73828 14.839765 23 17 L 23 18 L 27 18 L 27 17 L 25 17 C 27.893377 14.896944 27.404855 12.90969 24.974609 13.005859 z M 24.867188 22.001953 C 24.305958 22.021293 23.741786 22.150592 23.277344 22.382812 L 23.722656 23.277344 C 24.103399 23.086972 24.806258 22.963634 25.326172 23.015625 C 25.586129 23.041625 25.797079 23.111465 25.898438 23.177734 C 25.999796 23.244007 26 23.246745 26 23.330078 C 26 23.496745 25.967414 23.55809 25.933594 23.601562 C 25.899784 23.645032 25.841054 23.689052 25.716797 23.730469 C 25.468292 23.813305 25 23.830078 24.5 23.830078 L 24.5 24.830078 C 25 24.830078 25.468288 24.846847 25.716797 24.929688 C 25.841051 24.971107 25.899781 25.015118 25.933594 25.058594 C 25.967404 25.102064 26 25.163411 26 25.330078 C 26 25.413408 25.999797 25.416148 25.898438 25.482422 C 25.797079 25.548692 25.586129 25.618536 25.326172 25.644531 C 24.806258 25.696521 24.103399 25.573182 23.722656 25.382812 L 23.277344 26.277344 C 23.896601 26.586972 24.693742 26.713634 25.423828 26.640625 C 25.788871 26.604125 26.140422 26.517711 26.445312 26.318359 C 26.7502 26.119007 27 25.746745 27 25.330078 C 27 24.996745 26.90759 24.68309 26.722656 24.445312 C 26.686026 24.398212 26.637176 24.370042 26.595703 24.330078 C 26.637183 24.290108 26.686023 24.261948 26.722656 24.214844 C 26.907593 23.977068 27 23.663411 27 23.330078 C 27 22.913411 26.750204 22.541149 26.445312 22.341797 C 26.140421 22.142445 25.788871 22.056036 25.423828 22.019531 C 25.241306 22.001281 25.054264 21.995513 24.867188 22.001953 z " />
  <path
     id="rect861"
     style="fill:#0000ff;fill-rule:evenodd;stroke-width:3;stroke-linecap:round;stroke-linejoin:round"
     d="M -3 -4 L -3 -5 L -19 -5 L -19 -4 L -3 -4 z M -7 -6 L -7 -7 L -19 -7 L -19 -6 L -7 -6 z M -5 -8 L -5 -9 L -19 -9 L -19 -8 L -5 -8 z M -3 -13 L -3 -14 L -19 -14 L -19 -13 L -3 -13 z M -7 -15 L -7 -16 L -19 -16 L -19 -15 L -7 -15 z M -5 -17 L -5 -18 L -19 -18 L -19 -17 L -5 -17 z M -3 -22 L -3 -23 L -19 -23 L -19 -22 L -3 -22 z M -7 -24 L -7 -25 L -19 -25 L -19 -24 L -7 -24 z M -5 -26 L -5 -27 L -19 -27 L -19 -26 L -5 -26 z "
     transform="scale(-1)" />
</svg>
