<?xml version="1.0" encoding="UTF-8" standalone="no"?>
<svg
   xmlns:dc="http://purl.org/dc/elements/1.1/"
   xmlns:cc="http://creativecommons.org/ns#"
   xmlns:rdf="http://www.w3.org/1999/02/22-rdf-syntax-ns#"
   xmlns:svg="http://www.w3.org/2000/svg"
   xmlns="http://www.w3.org/2000/svg"
   xmlns:sodipodi="http://sodipodi.sourceforge.net/DTD/sodipodi-0.dtd"
   xmlns:inkscape="http://www.inkscape.org/namespaces/inkscape"
   viewBox="0 0 32 32"
   version="1.1"
   id="svg10"
   sodipodi:docname="alphalowliststyle.svg"
   inkscape:version="0.92.4 (5da689c313, 2019-01-14)">
  <metadata
     id="metadata16">
    <rdf:RDF>
      <cc:Work
         rdf:about="">
        <dc:format>image/svg+xml</dc:format>
        <dc:type
           rdf:resource="http://purl.org/dc/dcmitype/StillImage" />
      </cc:Work>
    </rdf:RDF>
  </metadata>
  <defs
     id="defs14" />
  <sodipodi:namedview
     pagecolor="#ffffff"
     bordercolor="#666666"
     borderopacity="1"
     objecttolerance="10"
     gridtolerance="10"
     guidetolerance="10"
     inkscape:pageopacity="0"
     inkscape:pageshadow="2"
     inkscape:window-width="1920"
     inkscape:window-height="1011"
     id="namedview12"
     showgrid="true"
     inkscape:zoom="29.5"
     inkscape:cx="25.315288"
     inkscape:cy="13.662824"
     inkscape:window-x="0"
     inkscape:window-y="32"
     inkscape:window-maximized="1"
     inkscape:current-layer="svg10">
    <inkscape:grid
       type="xygrid"
       id="grid823" />
  </sodipodi:namedview>
  <path
     d="M 11,4 V 5 H 28 V 4 Z m 0,3 V 8 H 28 V 7 Z m 0,7 v 1 h 17 v -1 z m 0,3 v 1 h 17 v -1 z m 0,7 v 1 h 17 v -1 z m 0,3 v 1 h 17 v -1 z"
     id="path2"
     inkscape:connector-curvature="0"
     style="fill:#232629"
     sodipodi:nodetypes="cccccccccccccccccccccccccccccc" />
  <g
     fill="#762572"
     transform="translate(1 1)"
     id="g8">
    <path
       d="m5.5 3c-1.3807119 0-2.5 1.1192881-2.5 2.5s1.1192881 2.5 2.5 2.5c.5413714-.0011264 1.067749-.1779563 1.5-.5039062v.5039062h1v-2.5-2.5h-1v.5019531c-.4324959-.3252525-.9588516-.5013898-1.5-.5019531zm0 1c.8284271 0 1.5.6715729 1.5 1.5s-.6715729 1.5-1.5 1.5-1.5-.6715729-1.5-1.5.6715729-1.5 1.5-1.5z"
       id="path4" />
    <path
       d="m3 11v7h1v-.501953c.4324959.325252.9588516.50139 1.5.501953 1.3807119 0 2.5-1.119288 2.5-2.5s-1.1192881-2.5-2.5-2.5c-.5413714.001126-1.067749.177956-1.5.503906v-2.503906zm2.5 3c.8284271 0 1.5.671573 1.5 1.5s-.6715729 1.5-1.5 1.5-1.5-.671573-1.5-1.5.6715729-1.5 1.5-1.5z"
       id="path6" />
  </g>
</svg>
