<?xml version="1.0" encoding="UTF-8" standalone="no"?>
<svg
   xmlns:dc="http://purl.org/dc/elements/1.1/"
   xmlns:cc="http://creativecommons.org/ns#"
   xmlns:rdf="http://www.w3.org/1999/02/22-rdf-syntax-ns#"
   xmlns:svg="http://www.w3.org/2000/svg"
   xmlns="http://www.w3.org/2000/svg"
   xmlns:sodipodi="http://sodipodi.sourceforge.net/DTD/sodipodi-0.dtd"
   xmlns:inkscape="http://www.inkscape.org/namespaces/inkscape"
   viewBox="0 0 32 32"
   version="1.1"
   id="svg4"
   sodipodi:docname="dataranges.svg"
   inkscape:version="1.0.1 (3bc2e813f5, 2020-09-07)"
   inkscape:export-filename="/home/jupiter007/Libreoffice yaru theme fullcolor/build/cmd/32/dataranges.png"
   inkscape:export-xdpi="95"
   inkscape:export-ydpi="95">
  <metadata
     id="metadata10">
    <rdf:RDF>
      <cc:Work
         rdf:about="">
        <dc:format>image/svg+xml</dc:format>
        <dc:type
           rdf:resource="http://purl.org/dc/dcmitype/StillImage" />
      </cc:Work>
    </rdf:RDF>
  </metadata>
  <defs
     id="defs8" />
  <sodipodi:namedview
     pagecolor="#ffffff"
     bordercolor="#666666"
     borderopacity="1"
     objecttolerance="10"
     gridtolerance="10"
     guidetolerance="10"
     inkscape:pageopacity="0"
     inkscape:pageshadow="2"
     inkscape:window-width="1920"
     inkscape:window-height="1011"
     id="namedview6"
     showgrid="true"
     inkscape:zoom="29.5"
     inkscape:cx="14.518443"
     inkscape:cy="13.663303"
     inkscape:window-x="0"
     inkscape:window-y="0"
     inkscape:window-maximized="1"
     inkscape:current-layer="svg4"
     inkscape:document-rotation="0">
    <inkscape:grid
       type="xygrid"
       id="grid817" />
  </sodipodi:namedview>
  <path
     sodipodi:nodetypes="cccscsccccccccscscccccc"
     inkscape:connector-curvature="0"
     id="path4237-1-3"
     d="M 6.994141,4.972569 C 5.735941,4.987069 4.81525,4.941969 4.0625,5.357335 3.68613,5.564995 3.389269,5.916722 3.224609,6.355382 3.059939,6.794052 3,7.3149692 3,7.972569 v 1.488282 14.566582 c 0,0.65761 0.0599,1.178576 0.224609,1.617187 0.16468,0.438612 0.461531,0.788523 0.837891,0.996092 0.75272,0.415131 1.673541,0.37165 2.931641,0.386719 h 0.002 18.005809 0.0039 c 1.25819,-0.0145 2.178891,0.0306 2.931641,-0.384766 0.37637,-0.207659 0.673221,-0.559385 0.837891,-0.998045 C 28.939921,25.20595 28.998286,24.68504 29,24.027433 V 9.439367 7.972569 C 29,7.314969 28.9401,6.793992 28.775391,6.355382 28.610711,5.916782 28.31386,5.566848 27.9375,5.359288 27.18473,4.944158 26.263899,4.987649 25.005809,4.972569 h -0.002 H 6.998 Z"
     style="font-style:normal;font-variant:normal;font-weight:normal;font-stretch:normal;font-size:15px;line-height:125%;font-family:Ubuntu;-inkscape-font-specification:Ubuntu;text-align:center;letter-spacing:0px;word-spacing:0px;writing-mode:lr-tb;text-anchor:middle;display:inline;opacity:0.6;fill:#000000;fill-opacity:1;stroke:none;stroke-width:0.999802" />
  <path
     inkscape:connector-curvature="0"
     id="path1993-1"
     d="m 11.983369,5.999754 c -1.556581,0.0108 -5.10999,-0.01175 -6.659941,0.03877 -0.461229,0.04267 -1.016188,0.20642 -1.15534,0.709967 -0.218994,0.635346 -0.108414,1.333787 -0.145796,1.981924 -0.0078,2.297085 -0.02297,13.650708 0.02152,15.940061 0.0391,0.461928 0.202551,1.012665 0.698756,1.163665 0.632456,0.225083 1.284144,0.122741 1.935974,0.154298 1.424235,0.0068 4.850563,0.01102 6.27642,0.01131 1.704531,3.51e-4 11.408338,-0.005 13.10714,-0.01851 0.511911,-0.01201 1.183699,0.01993 1.584745,-0.40519 0.421097,-0.539783 0.287073,-1.268021 0.322745,-1.903787 0.01187,-2.444324 0.02769,-13.965375 -0.0219,-16.411075 C 27.898412,6.859147 27.7777,6.398235 27.372553,6.216712 26.704384,5.922614 25.946348,6.048693 25.246632,6.011139 23.492225,5.999339 13.737808,5.998659 11.983369,5.999749 Z"
     style="opacity:1;vector-effect:none;fill:#80a3fa;fill-opacity:1;stroke:none;stroke-width:1;stroke-linecap:round;stroke-linejoin:bevel;stroke-miterlimit:4;stroke-dasharray:none;stroke-dashoffset:0;stroke-opacity:1"
     sodipodi:nodetypes="cccccccscccccccc" />
  <path
     style="opacity:1;fill:#ffffff;fill-opacity:1;stroke:none;stroke-width:2;stroke-linecap:round;stroke-linejoin:round;stroke-miterlimit:4;stroke-dasharray:none;stroke-opacity:1"
     d="m 8,7.999749 v 2 H 6 v 1 h 2 v 10 H 6 v 1 h 2 v 2 h 1 v -2 h 14 v 2 h 1 v -2 L 26,22 v -1 l -2,-2.51e-4 v -10 L 26,11 v -1 l -2,-2.51e-4 v -2 h -1 v 2 H 9 v -2 z m 1,3 h 14 v 10 H 21 V 14.99975 h -2 v 5.999999 H 17 V 16.99975 h -2 v 3.999999 h -2 v -8 h -2 v 8 H 9 Z"
     id="rect830"
     inkscape:connector-curvature="0"
     sodipodi:nodetypes="cccccccccccccccccccccccccccccccccccccccccccccc" />
  <rect
     style="opacity:1;fill:#ffffff;fill-opacity:1;fill-rule:evenodd;stroke:none;stroke-width:2;stroke-linecap:butt;stroke-linejoin:round;stroke-miterlimit:4;stroke-dasharray:none;stroke-opacity:1"
     id="rect826"
     width="11"
     height="7"
     x="19"
     y="21" />
  <path
     d="m 18,22 v 5 c 0,2 1,2 3,2 h 3 1 3 c 2,0 3,0 3,-2 v -5 c 0,-2 -1,-2 -3,-2 h -7 c -2,0 -3,0 -3,2 z m 3,-1 h 3 v 3 h -5 v -2 c 0,-1 1,-1 2,-1 z m 4,0 h 3 c 1,0 2,0 2,1 v 2 h -5 z m -6,4 h 5 v 3 h -3 c -1,0 -2,0 -2,-1 z m 6,0 h 5 v 2 c 0,1 -1,1 -2,1 h -3 z"
     id="path2"
     inkscape:connector-curvature="0"
     style="fill:#6d6d6d;fill-opacity:1"
     sodipodi:nodetypes="ccccccccccccccccccccccccccccccccccc" />
</svg>
