<?xml version="1.0" encoding="UTF-8" standalone="no"?>
<svg
   xmlns:dc="http://purl.org/dc/elements/1.1/"
   xmlns:cc="http://creativecommons.org/ns#"
   xmlns:rdf="http://www.w3.org/1999/02/22-rdf-syntax-ns#"
   xmlns:svg="http://www.w3.org/2000/svg"
   xmlns="http://www.w3.org/2000/svg"
   xmlns:xlink="http://www.w3.org/1999/xlink"
   xmlns:sodipodi="http://sodipodi.sourceforge.net/DTD/sodipodi-0.dtd"
   xmlns:inkscape="http://www.inkscape.org/namespaces/inkscape"
   viewBox="0 0 32 32"
   version="1.1"
   id="svg6"
   sodipodi:docname="dbdistinctvalues.svg"
   inkscape:export-filename="/home/jupiter007/Libreoffice yaru theme fullcolor/build/cmd/32/dbdistinctvalues.png"
   inkscape:export-xdpi="96"
   inkscape:export-ydpi="96"
   inkscape:version="1.0.1 (3bc2e813f5, 2020-09-07)">
  <metadata
     id="metadata12">
    <rdf:RDF>
      <cc:Work
         rdf:about="">
        <dc:format>image/svg+xml</dc:format>
        <dc:type
           rdf:resource="http://purl.org/dc/dcmitype/StillImage" />
      </cc:Work>
    </rdf:RDF>
  </metadata>
  <defs
     id="defs10">
    <linearGradient
       inkscape:collect="always"
       id="linearGradient838">
      <stop
         style="stop-color:#151515;stop-opacity:1"
         offset="0"
         id="stop834" />
      <stop
         style="stop-color:#4d4d4d;stop-opacity:1"
         offset="1"
         id="stop836" />
    </linearGradient>
    <linearGradient
       inkscape:collect="always"
       xlink:href="#linearGradient838"
       id="linearGradient842"
       gradientUnits="userSpaceOnUse"
       x1="26"
       y1="16.600275"
       x2="20"
       y2="29.443758" />
  </defs>
  <sodipodi:namedview
     pagecolor="#ffffff"
     bordercolor="#666666"
     borderopacity="1"
     objecttolerance="10"
     gridtolerance="10"
     guidetolerance="10"
     inkscape:pageopacity="0"
     inkscape:pageshadow="2"
     inkscape:window-width="1920"
     inkscape:window-height="1043"
     id="namedview8"
     showgrid="true"
     inkscape:zoom="41.7193"
     inkscape:cx="19.032375"
     inkscape:cy="21.706222"
     inkscape:window-x="1920"
     inkscape:window-y="0"
     inkscape:window-maximized="1"
     inkscape:current-layer="svg6"
     inkscape:document-rotation="0">
    <inkscape:grid
       type="xygrid"
       id="grid832" />
  </sodipodi:namedview>
  <path
     sodipodi:nodetypes="ccccccccccc"
     id="path842"
     d="M 6.292969,3.9951669 5,5.2881358 v 2.5390624 c 0.05476,0.039897 8,10.6679688 8,10.6679688 v 5.007812 l 6,4.501954 V 18.495167 L 27,7.8271982 V 5.2881358 L 25.707031,3.9951669 Z"
     style="opacity:0.7;fill:#000000;stroke:#000000;stroke-width:2;stroke-linejoin:round;stroke-miterlimit:4;stroke-dasharray:none"
     inkscape:connector-curvature="0" />
  <path
     inkscape:connector-curvature="0"
     style="fill:#ffffff"
     d="M 6.292969,3.9951669 5,5.2881358 v 2.5390624 c 0.05476,0.039897 8,10.6679688 8,10.6679688 v 5.007812 l 6,4.501954 V 18.495167 L 27,7.8271982 V 5.2881358 L 25.707031,3.9951669 Z"
     id="path2"
     sodipodi:nodetypes="ccccccccccc" />
  <path
     inkscape:connector-curvature="0"
     style="opacity:1;fill:#000000;fill-opacity:1;stroke:#ffffff;stroke-width:3;stroke-linejoin:round;stroke-opacity:1"
     id="path834"
     d="m 26.078125,17.272948 -2.080078,3.269531 H 17.5 v 1 h 5.861328 l -1.910156,3 H 17.5 v 1 h 3.316406 l -1.738281,2.730469 0.84375,0.537109 2.080078,-3.267578 H 28.5 v -1 h -5.863281 l 1.910156,-3 H 28.5 v -1 h -3.316406 l 1.738281,-2.732422 z" />
  <path
     d="m 26.078125,17.272948 -2.080078,3.269531 H 17.5 v 1 h 5.861328 l -1.910156,3 H 17.5 v 1 h 3.316406 l -1.738281,2.730469 0.84375,0.537109 2.080078,-3.267578 H 28.5 v -1 h -5.863281 l 1.910156,-3 H 28.5 v -1 h -3.316406 l 1.738281,-2.732422 z"
     id="path4"
     style="fill:#aee3f8;fill-opacity:1;stroke:url(#linearGradient842);stroke-opacity:1"
     inkscape:connector-curvature="0" />
</svg>
