<?xml version="1.0" encoding="UTF-8" standalone="no"?>
<svg
   xmlns:dc="http://purl.org/dc/elements/1.1/"
   xmlns:cc="http://creativecommons.org/ns#"
   xmlns:rdf="http://www.w3.org/1999/02/22-rdf-syntax-ns#"
   xmlns:svg="http://www.w3.org/2000/svg"
   xmlns="http://www.w3.org/2000/svg"
   xmlns:sodipodi="http://sodipodi.sourceforge.net/DTD/sodipodi-0.dtd"
   xmlns:inkscape="http://www.inkscape.org/namespaces/inkscape"
   viewBox="0 0 32 32"
   version="1.1"
   id="svg6"
   sodipodi:docname="dbformedit.svg"
   inkscape:version="0.92.4 (5da689c313, 2019-01-14)">
  <metadata
     id="metadata12">
    <rdf:RDF>
      <cc:Work
         rdf:about="">
        <dc:format>image/svg+xml</dc:format>
        <dc:type
           rdf:resource="http://purl.org/dc/dcmitype/StillImage" />
      </cc:Work>
    </rdf:RDF>
  </metadata>
  <defs
     id="defs10" />
  <sodipodi:namedview
     pagecolor="#ffffff"
     bordercolor="#666666"
     borderopacity="1"
     objecttolerance="10"
     gridtolerance="10"
     guidetolerance="10"
     inkscape:pageopacity="0"
     inkscape:pageshadow="2"
     inkscape:window-width="1920"
     inkscape:window-height="1011"
     id="namedview8"
     showgrid="true"
     inkscape:zoom="14.75"
     inkscape:cx="13.693295"
     inkscape:cy="22.0842"
     inkscape:window-x="1920"
     inkscape:window-y="32"
     inkscape:window-maximized="1"
     inkscape:current-layer="svg6">
    <inkscape:grid
       type="xygrid"
       id="grid828" />
  </sodipodi:namedview>
  <path
     d="M 4,4 V 28 H 16 V 27 H 5 V 9 h 22 v 8 l 1,1 V 4 Z M 20.566406,5 21.037109,5.2792969 23.501953,6.7363281 25.962891,5.2792969 26.433594,5 27,5.9296875 26.527344,6.2089844 23.501953,8 20.472656,6.2089844 20,5.9296875 Z M 10,11 c -1.6568542,0 -3,1.343146 -3,3 0,1.656854 1.3431458,3 3,3 1.656854,0 3,-1.343146 3,-3 0,-1.656854 -1.343146,-3 -3,-3 z m 0,1 c 1.104569,0 2,0.895431 2,2 0,1.104569 -0.895431,2 -2,2 -1.1045695,0 -2,-0.895431 -2,-2 0,-1.104569 0.8954305,-2 2,-2 z m 6,0 v 1 h 9 v -1 z m 0,3 v 1 h 7 v -1 z m -9,4 v 6 h 6 v -6 z m 1,1 h 4 v 4 H 8 Z m 8,0 v 1 h 4 l 1,-1 z m 0,3 v 1 h 1 l 1,-1 z"
     id="path2"
     inkscape:connector-curvature="0"
     style="fill:#232629"
     sodipodi:nodetypes="ccccccccccccccccccccccsssssssssscccccccccccccccccccccccccccccc" />
  <path
     inkscape:connector-curvature="0"
     d="M 25.398438,17 20.287109,22.111328 17,25.398438 V 29 h 3.601562 L 29,20.601562 Z m -2.048829,3.490234 2.160157,2.160157 -3.173828,3.173828 v -0.673828 l -1.013672,0.02344 h -1.035157 v -1.037109 -0.583985 z m -4.076171,4.074219 v 1.621094 h 2.027343 l 0.02148,0.654297 -1.082032,1.080078 h -1.439453 l -0.720703,-0.720703 v -1.441407 z"
     id="path821"
     style="fill:#e95420;fill-opacity:1" />
</svg>
