<?xml version="1.0" encoding="UTF-8" standalone="no"?>
<svg
   xmlns:dc="http://purl.org/dc/elements/1.1/"
   xmlns:cc="http://creativecommons.org/ns#"
   xmlns:rdf="http://www.w3.org/1999/02/22-rdf-syntax-ns#"
   xmlns:svg="http://www.w3.org/2000/svg"
   xmlns="http://www.w3.org/2000/svg"
   xmlns:sodipodi="http://sodipodi.sourceforge.net/DTD/sodipodi-0.dtd"
   xmlns:inkscape="http://www.inkscape.org/namespaces/inkscape"
   viewBox="0 0 32 32"
   version="1.1"
   id="svg6"
   sodipodi:docname="dbreportedit.svg"
   inkscape:version="0.92.4 (5da689c313, 2019-01-14)">
  <metadata
     id="metadata12">
    <rdf:RDF>
      <cc:Work
         rdf:about="">
        <dc:format>image/svg+xml</dc:format>
        <dc:type
           rdf:resource="http://purl.org/dc/dcmitype/StillImage" />
      </cc:Work>
    </rdf:RDF>
  </metadata>
  <defs
     id="defs10" />
  <sodipodi:namedview
     pagecolor="#ffffff"
     bordercolor="#666666"
     borderopacity="1"
     objecttolerance="10"
     gridtolerance="10"
     guidetolerance="10"
     inkscape:pageopacity="0"
     inkscape:pageshadow="2"
     inkscape:window-width="1920"
     inkscape:window-height="1011"
     id="namedview8"
     showgrid="true"
     inkscape:zoom="29.5"
     inkscape:cx="23.913953"
     inkscape:cy="12.854171"
     inkscape:window-x="1920"
     inkscape:window-y="32"
     inkscape:window-maximized="1"
     inkscape:current-layer="svg6">
    <inkscape:grid
       type="xygrid"
       id="grid828" />
  </sodipodi:namedview>
  <path
     d="m 6,4 v 24 h 8 V 27 H 7 V 5 h 18 v 12 l 1,1 V 4 Z m 3,3 v 6 h 6 V 7 Z m 7,1 v 1 h 7 V 8 Z m 0,3 v 1 h 7 v -1 z m -7,4 v 1 h 14 v -1 z m 0,4 v 1 h 10 l 1,-1 z m 0,4 v 1 h 6 l 1,-1 z"
     id="path2"
     inkscape:connector-curvature="0"
     style="fill:#232629"
     sodipodi:nodetypes="ccccccccccccccccccccccccccccccccccccccccc" />
  <path
     inkscape:connector-curvature="0"
     d="M 23.398438,17 18.287109,22.111328 15,25.398438 V 29 h 3.601562 L 27,20.601562 Z m -2.048829,3.490234 2.160157,2.160157 -3.173828,3.173828 v -0.673828 l -1.013672,0.02344 h -1.035157 v -1.037109 -0.583985 z m -4.076171,4.074219 v 1.621094 h 2.027343 l 0.02148,0.654297 -1.082032,1.080078 h -1.439453 l -0.720703,-0.720703 v -1.441407 z"
     id="path821"
     style="fill:#e95420;fill-opacity:1" />
</svg>
