<?xml version="1.0" encoding="UTF-8" standalone="no"?>
<svg
   xmlns:dc="http://purl.org/dc/elements/1.1/"
   xmlns:cc="http://creativecommons.org/ns#"
   xmlns:rdf="http://www.w3.org/1999/02/22-rdf-syntax-ns#"
   xmlns:svg="http://www.w3.org/2000/svg"
   xmlns="http://www.w3.org/2000/svg"
   xmlns:sodipodi="http://sodipodi.sourceforge.net/DTD/sodipodi-0.dtd"
   xmlns:inkscape="http://www.inkscape.org/namespaces/inkscape"
   viewBox="0 0 32 32"
   version="1.1"
   id="svg4"
   sodipodi:docname="deletemasterpage.svg"
   inkscape:version="0.92.4 (5da689c313, 2019-01-14)">
  <metadata
     id="metadata10">
    <rdf:RDF>
      <cc:Work
         rdf:about="">
        <dc:format>image/svg+xml</dc:format>
        <dc:type
           rdf:resource="http://purl.org/dc/dcmitype/StillImage" />
      </cc:Work>
    </rdf:RDF>
  </metadata>
  <defs
     id="defs8" />
  <sodipodi:namedview
     pagecolor="#ffffff"
     bordercolor="#666666"
     borderopacity="1"
     objecttolerance="10"
     gridtolerance="10"
     guidetolerance="10"
     inkscape:pageopacity="0"
     inkscape:pageshadow="2"
     inkscape:window-width="1920"
     inkscape:window-height="1011"
     id="namedview6"
     showgrid="true"
     inkscape:zoom="5.2149125"
     inkscape:cx="-38.870706"
     inkscape:cy="28.761915"
     inkscape:window-x="0"
     inkscape:window-y="32"
     inkscape:window-maximized="1"
     inkscape:current-layer="svg4">
    <inkscape:grid
       type="xygrid"
       id="grid827" />
  </sodipodi:namedview>
  <path
     d="M 20.707031,18 20,18.707031 23.292969,22 20,25.292969 C 20.0126,25.318169 20.707031,26 20.707031,26 L 24,22.707031 27.292969,26 28,25.292969 24.707031,22 28,18.707031 27.292969,18 24,21.292969 Z"
     id="path2"
     style="fill:#762572;fill-opacity:1"
     inkscape:connector-curvature="0" />
  <path
     d="m 19,26 -8,-2.73e-4 -7,-7 v -9.0021496 -0.004 C 4.0145,8.7351878 3.9694,7.8143578 4.38477,7.0614878 4.59243,6.6850578 4.94415,6.3881478 5.38281,6.2234578 5.82148,6.0587328 6.34239,5.9986428 7,5.9987728 l 18,0.004 c 0.65761,1.4e-4 1.17858,0.0599 1.61719,0.22465 0.43861,0.16471 0.78852,0.4616 0.99609,0.83801 0.41514,0.75285 0.37165,1.6738 0.38672,2.9320896 v 0.002 V 17 l -1,-0.0012 10e-6,-6.989301 v -0.006 c -0.0152,-1.2588192 -0.0599,-2.0894192 -0.26172,-2.4554592 -0.10116,-0.18345 -0.21286,-0.28727 -0.47266,-0.38482 -0.25979,-0.0976 -0.67323,-0.16005 -1.26562,-0.16018 l -18,-0.004 c -0.59239,-1.3e-4 -1.00572,0.0626 -1.26562,0.1602 -0.25991,0.0976 -0.37147,0.20334 -0.47266,0.38678 -0.20191,0.366 -0.24702,1.19478 -0.26172,2.4534796 l -10e-6,6e-5 v 7.9999996 h 7 l 10e-6,6.99997 L 19,24.999775 Z"
     id="path2732-8-9"
     style="color:#000000;font-style:normal;font-variant:normal;font-weight:normal;font-stretch:normal;font-size:medium;line-height:normal;font-family:sans-serif;font-variant-ligatures:normal;font-variant-position:normal;font-variant-caps:normal;font-variant-numeric:normal;font-variant-alternates:normal;font-feature-settings:normal;text-indent:0;text-align:start;text-decoration:none;text-decoration-line:none;text-decoration-style:solid;text-decoration-color:#000000;letter-spacing:normal;word-spacing:normal;text-transform:none;writing-mode:lr-tb;direction:ltr;text-orientation:mixed;dominant-baseline:auto;baseline-shift:baseline;text-anchor:start;white-space:normal;shape-padding:0;clip-rule:nonzero;display:inline;overflow:visible;visibility:visible;opacity:1;isolation:auto;mix-blend-mode:normal;color-interpolation:sRGB;color-interpolation-filters:linearRGB;solid-color:#000000;solid-opacity:1;vector-effect:none;fill:#762572;fill-opacity:1;fill-rule:nonzero;stroke:none;stroke-width:1.00007653;stroke-linecap:butt;stroke-linejoin:miter;stroke-miterlimit:4;stroke-dasharray:none;stroke-dashoffset:0;stroke-opacity:1;marker:none;color-rendering:auto;image-rendering:auto;shape-rendering:auto;text-rendering:auto;enable-background:accumulate"
     inkscape:connector-curvature="0"
     sodipodi:nodetypes="cccccccsscsccccccccssccccccccc" />
</svg>
