<?xml version="1.0" encoding="UTF-8" standalone="no"?>
<svg
   xmlns:dc="http://purl.org/dc/elements/1.1/"
   xmlns:cc="http://creativecommons.org/ns#"
   xmlns:rdf="http://www.w3.org/1999/02/22-rdf-syntax-ns#"
   xmlns:svg="http://www.w3.org/2000/svg"
   xmlns="http://www.w3.org/2000/svg"
   xmlns:sodipodi="http://sodipodi.sourceforge.net/DTD/sodipodi-0.dtd"
   xmlns:inkscape="http://www.inkscape.org/namespaces/inkscape"
   viewBox="0 0 32 32"
   version="1.1"
   id="svg4"
   sodipodi:docname="diagramwall.svg"
   inkscape:export-filename="/home/jupiter007/Libreoffice yaru theme fullcolor/build/cmd/32/diagramwall.png"
   inkscape:export-xdpi="96"
   inkscape:export-ydpi="96"
   inkscape:version="1.0.1 (3bc2e813f5, 2020-09-07)">
  <metadata
     id="metadata10">
    <rdf:RDF>
      <cc:Work
         rdf:about="">
        <dc:format>image/svg+xml</dc:format>
        <dc:type
           rdf:resource="http://purl.org/dc/dcmitype/StillImage" />
      </cc:Work>
    </rdf:RDF>
  </metadata>
  <defs
     id="defs8" />
  <sodipodi:namedview
     pagecolor="#ffffff"
     bordercolor="#666666"
     borderopacity="1"
     objecttolerance="10"
     gridtolerance="10"
     guidetolerance="10"
     inkscape:pageopacity="0"
     inkscape:pageshadow="2"
     inkscape:window-width="1920"
     inkscape:window-height="1011"
     id="namedview6"
     showgrid="true"
     inkscape:zoom="20.85965"
     inkscape:cx="26.458641"
     inkscape:cy="17.838434"
     inkscape:window-x="0"
     inkscape:window-y="0"
     inkscape:window-maximized="1"
     inkscape:current-layer="svg4"
     inkscape:document-rotation="0">
    <inkscape:grid
       type="xygrid"
       id="grid855" />
  </sodipodi:namedview>
  <path
     sodipodi:nodetypes="cccscsccccccccscscccccc"
     inkscape:connector-curvature="0"
     id="path4237-1-3"
     d="m 6.994141,4.9725685 c -1.2582,0.0145 -2.178891,-0.0306 -2.931641,0.384766 -0.37637,0.20766 -0.673231,0.559387 -0.837891,0.998047 C 3.059939,6.7940515 3,7.3149687 3,7.9725685 v 1.488282 14.5665815 c 0,0.65761 0.0599,1.178577 0.224609,1.617187 0.16468,0.438612 0.461531,0.788524 0.837891,0.996093 0.75272,0.41513 1.673541,0.371649 2.931641,0.386719 h 0.002 18.005809 0.0039 c 1.25819,-0.0145 2.178891,0.0306 2.931641,-0.384766 0.37637,-0.20766 0.673221,-0.559386 0.837891,-0.998046 C 28.939921,25.205949 28.998286,24.68504 29,24.027432 V 9.4393665 7.9725685 c 0,-0.6576 -0.0599,-1.178577 -0.224609,-1.617187 -0.16468,-0.4386 -0.461531,-0.788534 -0.837891,-0.996094 -0.75277,-0.41513 -1.673601,-0.371639 -2.931691,-0.386719 h -0.002 H 6.998 Z"
     style="font-style:normal;font-variant:normal;font-weight:normal;font-stretch:normal;font-size:15px;line-height:125%;font-family:Ubuntu;-inkscape-font-specification:Ubuntu;text-align:center;letter-spacing:0px;word-spacing:0px;writing-mode:lr-tb;text-anchor:middle;display:inline;opacity:0.7;fill:#000000;fill-opacity:1;stroke:none;stroke-width:0.999802" />
  <path
     id="rect3830-9"
     style="opacity:1;vector-effect:none;fill:#31c6b7;fill-opacity:1;stroke:none;stroke-width:4;stroke-linecap:round;stroke-linejoin:round;stroke-miterlimit:4;stroke-dasharray:none;stroke-dashoffset:0;stroke-opacity:1"
     d="m 3.982422,20 c 0.00448,1.772003 0.00454,3.998944 0.017578,4.669922 0.0391,0.461929 0.203014,1.013062 0.699219,1.164062 0.632456,0.225082 1.283717,0.122739 1.935547,0.154297 0.309751,0.0015 0.90726,7.32e-4 1.365234,0.002 V 20 Z" />
  <path
     id="rect3830-0-7"
     style="opacity:1;vector-effect:none;fill:#76c22b;fill-opacity:1;stroke:none;stroke-width:4;stroke-linecap:round;stroke-linejoin:round;stroke-miterlimit:4;stroke-dasharray:none;stroke-dashoffset:0;stroke-opacity:1"
     d="m 8,20 v 5.990234 c 1.647793,0.0044 3.796356,0.0095 4.912109,0.0098 0.401619,8.3e-5 2.007441,-0.0033 3.087891,-0.0039 V 20 Z" />
  <path
     id="rect3830-2-3"
     style="opacity:1;vector-effect:none;fill:#ffda64;fill-opacity:1;stroke:none;stroke-width:4;stroke-linecap:round;stroke-linejoin:round;stroke-miterlimit:4;stroke-dasharray:none;stroke-dashoffset:0;stroke-opacity:1"
     d="m 16,20 v 5.996094 c 2.799193,-0.0015 5.689988,-0.005 8,-0.01172 V 20 Z" />
  <path
     id="rect3830-3-6"
     style="opacity:1;vector-effect:none;fill:#fb7c38;fill-opacity:1;stroke:none;stroke-width:4;stroke-linecap:round;stroke-linejoin:round;stroke-miterlimit:4;stroke-dasharray:none;stroke-dashoffset:0;stroke-opacity:1"
     d="m 24,20 v 5.984375 c 0.582578,-0.0017 1.756049,1.27e-4 2.017578,-0.002 0.511911,-0.01201 1.184892,0.01887 1.585938,-0.40625 0.421097,-0.539783 0.286593,-1.268531 0.322265,-1.904297 0.0027,-0.546933 0.0036,-2.419409 0.0059,-3.671875 z" />
  <path
     id="rect3830-29"
     style="opacity:1;vector-effect:none;fill:#5bdbc1;fill-opacity:1;stroke:none;stroke-width:4;stroke-linecap:round;stroke-linejoin:round;stroke-miterlimit:4;stroke-dasharray:none;stroke-dashoffset:0;stroke-opacity:1"
     d="m 3.974609,12 c -0.00402,2.634419 1.46e-4,4.965707 0.00781,8 H 8 v -8 z" />
  <rect
     style="opacity:1;vector-effect:none;fill:#a6d74f;fill-opacity:1;stroke:none;stroke-width:4;stroke-linecap:round;stroke-linejoin:round;stroke-miterlimit:4;stroke-dasharray:none;stroke-dashoffset:0;stroke-opacity:1"
     id="rect3830-0-3"
     width="8"
     height="8"
     x="8"
     y="12" />
  <rect
     style="opacity:1;vector-effect:none;fill:#fee581;fill-opacity:1;stroke:none;stroke-width:4;stroke-linecap:round;stroke-linejoin:round;stroke-miterlimit:4;stroke-dasharray:none;stroke-dashoffset:0;stroke-opacity:1"
     id="rect3830-2-1"
     width="8"
     height="8"
     x="16"
     y="12" />
  <path
     id="rect3830-3-9"
     style="opacity:1;vector-effect:none;fill:#fda463;fill-opacity:1;stroke:none;stroke-width:4;stroke-linecap:round;stroke-linejoin:round;stroke-miterlimit:4;stroke-dasharray:none;stroke-dashoffset:0;stroke-opacity:1"
     d="m 24,12 v 8 h 3.931641 c 0.005,-2.728775 7.67e-4,-4.990554 -0.0078,-8 z" />
  <path
     id="rect3830-78"
     style="opacity:1;vector-effect:none;fill:#81e9c0;fill-opacity:1;stroke:none;stroke-width:4;stroke-linecap:round;stroke-linejoin:round;stroke-miterlimit:4;stroke-dasharray:none;stroke-dashoffset:0;stroke-opacity:1"
     d="m 8,6.0097656 c -1.0298,0.0035 -2.087168,0.00865 -2.720703,0.029297 C 4.818068,6.0817325 4.264152,6.2444999 4.125,6.7480469 3.906006,7.3833929 4.015898,8.0823318 3.978516,8.7304688 3.976916,9.2014782 3.976251,10.923662 3.974609,12 H 8 Z" />
  <path
     id="rect3830-0-4"
     style="opacity:1;vector-effect:none;fill:#cbe667;fill-opacity:1;stroke:none;stroke-width:4;stroke-linecap:round;stroke-linejoin:round;stroke-miterlimit:4;stroke-dasharray:none;stroke-dashoffset:0;stroke-opacity:1"
     d="M 11.939453,6 C 11.019117,6.0063856 9.48962,6.004701 8,6.0097656 V 12 h 8 V 6.0039062 C 14.42242,6.0036399 12.476558,5.9996663 11.939453,6 Z" />
  <path
     id="rect3830-2-5"
     style="opacity:1;vector-effect:none;fill:#fff4c9;fill-opacity:1;stroke:none;stroke-width:4;stroke-linecap:round;stroke-linejoin:round;stroke-miterlimit:4;stroke-dasharray:none;stroke-dashoffset:0;stroke-opacity:1"
     d="M 16,6.0039062 V 12 h 8 V 6.0097656 c -1.854144,-0.00595 -4.891888,-0.00533 -8,-0.00586 z" />
  <path
     id="rect3830-3-0"
     style="opacity:1;vector-effect:none;fill:#fec589;fill-opacity:1;stroke:none;stroke-width:4;stroke-linecap:round;stroke-linejoin:round;stroke-miterlimit:4;stroke-dasharray:none;stroke-dashoffset:0;stroke-opacity:1"
     d="M 24,6.0097656 V 12 h 3.923828 c -0.0051,-1.782451 -0.0052,-4.0321077 -0.01953,-4.7382812 -0.04928,-0.40204 -0.171025,-0.8633989 -0.576172,-1.0449219 -0.668169,-0.294098 -1.425284,-0.1675241 -2.125,-0.2050781 C 25.043986,6.0106484 24.278846,6.01066 24,6.0097656 Z" />
  <path
     style="opacity:1;fill:#232629;fill-opacity:1;stroke:none;stroke-width:2;stroke-linecap:round;stroke-linejoin:round;stroke-miterlimit:4;stroke-dasharray:none;stroke-opacity:1"
     d="m 8,7.9997485 v 2 H 6 v 1.0000005 h 2 v 10 H 6 v 1 h 2 v 2 h 1 v -2 h 14 v 2 h 1 v -2 L 26,22 v -1 l -2,-2.51e-4 v -10 l 2,2.52e-4 V 10 l -2,-2.515e-4 v -2 h -1 v 2 H 9 v -2 z m 1,3.0000005 h 14 v 10 h -2 v -6 h -2 v 6 h -2 v -4 h -2 v 4 h -2 v -8 h -2 v 8 H 9 Z"
     id="rect830"
     inkscape:connector-curvature="0"
     sodipodi:nodetypes="cccccccccccccccccccccccccccccccccccccccccccccc" />
</svg>
