<?xml version="1.0" encoding="UTF-8" standalone="no"?>
<svg
   xmlns:dc="http://purl.org/dc/elements/1.1/"
   xmlns:cc="http://creativecommons.org/ns#"
   xmlns:rdf="http://www.w3.org/1999/02/22-rdf-syntax-ns#"
   xmlns:svg="http://www.w3.org/2000/svg"
   xmlns="http://www.w3.org/2000/svg"
   xmlns:sodipodi="http://sodipodi.sourceforge.net/DTD/sodipodi-0.dtd"
   xmlns:inkscape="http://www.inkscape.org/namespaces/inkscape"
   viewBox="0 0 32 32"
   version="1.1"
   id="svg4"
   sodipodi:docname="displaymasterobjects.svg"
   inkscape:version="0.92.4 (5da689c313, 2019-01-14)">
  <metadata
     id="metadata10">
    <rdf:RDF>
      <cc:Work
         rdf:about="">
        <dc:format>image/svg+xml</dc:format>
        <dc:type
           rdf:resource="http://purl.org/dc/dcmitype/StillImage" />
      </cc:Work>
    </rdf:RDF>
  </metadata>
  <defs
     id="defs8" />
  <sodipodi:namedview
     pagecolor="#ffffff"
     bordercolor="#666666"
     borderopacity="1"
     objecttolerance="10"
     gridtolerance="10"
     guidetolerance="10"
     inkscape:pageopacity="0"
     inkscape:pageshadow="2"
     inkscape:window-width="1920"
     inkscape:window-height="1011"
     id="namedview6"
     showgrid="true"
     inkscape:zoom="29.5"
     inkscape:cx="12.521102"
     inkscape:cy="11.947284"
     inkscape:window-x="0"
     inkscape:window-y="32"
     inkscape:window-maximized="1"
     inkscape:current-layer="svg4">
    <inkscape:grid
       type="xygrid"
       id="grid825" />
  </sodipodi:namedview>
  <g
     id="g1833"
     style="display:inline;fill:#762572;fill-opacity:1"
     transform="matrix(0,1,1,0,-232.99999,-505.9931)">
    <path
       id="path2732-8-9"
       style="color:#000000;font-style:normal;font-variant:normal;font-weight:normal;font-stretch:normal;font-size:medium;line-height:normal;font-family:sans-serif;font-variant-ligatures:normal;font-variant-position:normal;font-variant-caps:normal;font-variant-numeric:normal;font-variant-alternates:normal;font-feature-settings:normal;text-indent:0;text-align:start;text-decoration:none;text-decoration-line:none;text-decoration-style:solid;text-decoration-color:#000000;letter-spacing:normal;word-spacing:normal;text-transform:none;writing-mode:lr-tb;direction:ltr;text-orientation:mixed;dominant-baseline:auto;baseline-shift:baseline;text-anchor:start;white-space:normal;shape-padding:0;clip-rule:nonzero;display:inline;overflow:visible;visibility:visible;opacity:1;isolation:auto;mix-blend-mode:normal;color-interpolation:sRGB;color-interpolation-filters:linearRGB;solid-color:#000000;solid-opacity:1;vector-effect:none;fill:#762572;fill-opacity:1;fill-rule:nonzero;stroke:none;stroke-width:1.00007653;stroke-linecap:butt;stroke-linejoin:miter;stroke-miterlimit:4;stroke-dasharray:none;stroke-dashoffset:0;stroke-opacity:1;marker:none;color-rendering:auto;image-rendering:auto;shape-rendering:auto;text-rendering:auto;enable-background:accumulate"
       d="m 531.99428,247.99999 -0.003,-4 -7,-7 h -9.00215 -0.004 c -1.25839,0.0145 -2.17922,-0.0306 -2.93209,0.38477 -0.37643,0.20766 -0.67334,0.55938 -0.83803,0.99804 -0.16468,0.43867 -0.22477,0.95958 -0.22464,1.61719 l 0.004,18 c 1.4e-4,0.65761 0.0599,1.17858 0.22465,1.61719 0.16471,0.43861 0.4616,0.78852 0.83801,0.99609 0.75285,0.41514 1.6738,0.37165 2.93209,0.38672 h 0.002 7.0022 l -1,-1 -5.99225,10e-6 h -0.006 c -1.25882,-0.0152 -2.08942,-0.0599 -2.45546,-0.26172 -0.18345,-0.10116 -0.28727,-0.21286 -0.38482,-0.47266 -0.0976,-0.25979 -0.16005,-0.67323 -0.16018,-1.26562 l -0.004,-18 c -1.3e-4,-0.59239 0.0626,-1.00572 0.1602,-1.26562 0.0976,-0.25991 0.20334,-0.37147 0.38678,-0.47266 0.366,-0.20191 1.19478,-0.24702 2.45348,-0.26172 l 6e-5,-1e-5 h 8 v 7 l 6.99997,1e-5 0.002,1.99999 z m -9.00118,8.11914 c 0.004,-3.28011 1.79283,-6.29812 4.66797,-7.87695 0.36373,0.12894 0.67659,0.35744 0.9082,0.65625 -2.79131,1.32179 -4.57246,4.13225 -4.57617,7.2207 0,-2.20914 1.79086,-4 4,-4 2.20914,0 4,1.79086 4,4 0,2.20914 -1.79086,4 -4,4 -2.07951,0.008 -3.81826,-1.57882 -4,-3.65039 0.13455,2.96131 1.89557,5.60546 4.57617,6.87109 -0.23371,0.30152 -0.55005,0.53191 -0.91797,0.66016 -2.87259,-1.58207 -4.65725,-4.60142 -4.6582,-7.88086 z m 2,0 c 0,1.65685 1.34315,3 3,3 1.65685,0 3,-1.34315 3,-3 0,-1.65685 -1.34315,-3 -3,-3 -1.65685,0 -3,1.34315 -3,3 z m 0.98047,0.19141 c 0.003,-0.0641 0.01,-0.12796 0.0195,-0.19141 0,-1.10457 0.89543,-2 2,-2 1.10457,0 2,0.89543 2,2 0,1.10457 -0.89543,2 -2,2 -0.19489,0.029 -0.393,0.029 -0.58789,0 0.38903,-0.17401 0.62503,-0.57545 0.58789,-1 0,-0.55228 -0.44772,-1 -1,-1 -0.42503,-0.0368 -0.82661,0.20005 -1,0.58984 -0.0198,-0.13183 -0.0263,-0.2653 -0.0195,-0.39843 z" />
  </g>
</svg>
