<?xml version="1.0" encoding="UTF-8" standalone="no"?>
<svg
   xmlns:dc="http://purl.org/dc/elements/1.1/"
   xmlns:cc="http://creativecommons.org/ns#"
   xmlns:rdf="http://www.w3.org/1999/02/22-rdf-syntax-ns#"
   xmlns:svg="http://www.w3.org/2000/svg"
   xmlns="http://www.w3.org/2000/svg"
   xmlns:sodipodi="http://sodipodi.sourceforge.net/DTD/sodipodi-0.dtd"
   xmlns:inkscape="http://www.inkscape.org/namespaces/inkscape"
   viewBox="0 0 32 32"
   version="1.1"
   id="svg6"
   sodipodi:docname="glueeditmode.svg"
   inkscape:version="0.92.4 (5da689c313, 2019-01-14)">
  <metadata
     id="metadata12">
    <rdf:RDF>
      <cc:Work
         rdf:about="">
        <dc:format>image/svg+xml</dc:format>
        <dc:type
           rdf:resource="http://purl.org/dc/dcmitype/StillImage" />
      </cc:Work>
    </rdf:RDF>
  </metadata>
  <defs
     id="defs10" />
  <sodipodi:namedview
     pagecolor="#ffffff"
     bordercolor="#666666"
     borderopacity="1"
     objecttolerance="10"
     gridtolerance="10"
     guidetolerance="10"
     inkscape:pageopacity="0"
     inkscape:pageshadow="2"
     inkscape:window-width="1920"
     inkscape:window-height="1011"
     id="namedview8"
     showgrid="true"
     inkscape:zoom="11.313708"
     inkscape:cx="47.787467"
     inkscape:cy="14.359628"
     inkscape:window-x="1920"
     inkscape:window-y="32"
     inkscape:window-maximized="1"
     inkscape:current-layer="svg6">
    <inkscape:grid
       type="xygrid"
       id="grid822" />
  </sodipodi:namedview>
  <path
     d="m16 11a5 5 0 0 0 -5 5 5 5 0 0 0 5 5 5 5 0 0 0 5-5 5 5 0 0 0 -5-5zm0 1a4 4 0 0 1 4 4 4 4 0 0 1 -4 4 4 4 0 0 1 -4-4 4 4 0 0 1 4-4z"
     fill="#762572"
     id="path2" />
  <path
     style="fill:#232629"
     d="M 4 4 L 4 28 L 16 28 L 16 27 L 5 27 L 5 5 L 27 5 L 27 17 L 28 18 L 28 4 L 4 4 z M 25.398438 17 L 20.287109 22.111328 L 17 25.398438 L 17 29 L 20.601562 29 L 29 20.601562 L 25.398438 17 z M 23.349609 20.490234 L 25.509766 22.650391 L 22.335938 25.824219 L 22.335938 25.150391 L 21.322266 25.173828 L 20.287109 25.173828 L 20.287109 24.136719 L 20.287109 23.552734 L 23.349609 20.490234 z M 19.273438 24.564453 L 19.273438 26.185547 L 21.300781 26.185547 L 21.322266 26.839844 L 20.240234 27.919922 L 18.800781 27.919922 L 18.080078 27.199219 L 18.080078 25.757812 L 19.273438 24.564453 z "
     id="path4" />
</svg>
