<?xml version="1.0" encoding="UTF-8" standalone="no"?>
<svg
   xmlns:dc="http://purl.org/dc/elements/1.1/"
   xmlns:cc="http://creativecommons.org/ns#"
   xmlns:rdf="http://www.w3.org/1999/02/22-rdf-syntax-ns#"
   xmlns:svg="http://www.w3.org/2000/svg"
   xmlns="http://www.w3.org/2000/svg"
   xmlns:sodipodi="http://sodipodi.sourceforge.net/DTD/sodipodi-0.dtd"
   xmlns:inkscape="http://www.inkscape.org/namespaces/inkscape"
   viewBox="0 0 32 32"
   version="1.1"
   id="svg4"
   sodipodi:docname="importdialog.svg"
   inkscape:version="1.0.1 (3bc2e813f5, 2020-09-07)"
   inkscape:export-filename="/home/jupiter007/Libreoffice yaru theme fullcolor/build/cmd/32/importdialog.png"
   inkscape:export-xdpi="95"
   inkscape:export-ydpi="95">
  <metadata
     id="metadata10">
    <rdf:RDF>
      <cc:Work
         rdf:about="">
        <dc:format>image/svg+xml</dc:format>
        <dc:type
           rdf:resource="http://purl.org/dc/dcmitype/StillImage" />
        <dc:title />
      </cc:Work>
    </rdf:RDF>
  </metadata>
  <defs
     id="defs8" />
  <sodipodi:namedview
     pagecolor="#ffffff"
     bordercolor="#666666"
     borderopacity="1"
     objecttolerance="10"
     gridtolerance="10"
     guidetolerance="10"
     inkscape:pageopacity="0"
     inkscape:pageshadow="2"
     inkscape:window-width="1920"
     inkscape:window-height="1011"
     id="namedview6"
     showgrid="true"
     inkscape:zoom="11.313709"
     inkscape:cx="8.5860644"
     inkscape:cy="15.859116"
     inkscape:window-x="1920"
     inkscape:window-y="32"
     inkscape:window-maximized="1"
     inkscape:current-layer="svg4"
     showguides="false"
     inkscape:document-rotation="0">
    <inkscape:grid
       type="xygrid"
       id="grid817" />
  </sodipodi:namedview>
  <path
     id="path4237-1"
     style="font-style:normal;font-variant:normal;font-weight:normal;font-stretch:normal;font-size:15px;line-height:125%;font-family:Ubuntu;-inkscape-font-specification:Ubuntu;text-align:center;letter-spacing:0px;word-spacing:0px;writing-mode:lr-tb;text-anchor:middle;display:inline;opacity:0.7;fill:#000000;fill-opacity:1;stroke:none;stroke-width:0.999802"
     d="M 7.9941398,5 C 6.7359398,5.0145 5.8152492,4.9694 5.0624992,5.384766 4.6861292,5.592426 4.3892686,5.944153 4.2246086,6.382813 4.0599386,6.821483 3.9999992,7.3424 3.9999992,8 v 1.488281 10.558594 c 0.3653672,-0.05763 0.7183537,0.03571 1.0201982,0.232629 C 7.9999992,18 15,22 11.766712,25.968863 c -0.12198,0.204063 -0.290527,0.386822 -0.491321,0.536996 0.18468,0.137511 0.327511,0.309799 0.447265,0.494141 h 10.279297 0.0039 c 1.25819,-0.0145 2.178891,0.0306 2.931641,-0.384766 0.37637,-0.20766 0.673221,-0.559388 0.837891,-0.998046 C 25.93993,25.178517 25.921028,24.65285 26,24 V 9.466797 8 C 26,7.3424 25.9401,6.821424 25.775391,6.382813 25.610711,5.944213 25.31386,5.594279 24.9375,5.386719 24.18473,4.971589 23.263949,5.01508 22.005859,5 h -0.002 -14.0058599 z"
     sodipodi:nodetypes="cccsccccccccccccscccccc" />
  <path
     id="path1993"
     style="opacity:1;vector-effect:none;fill:#ffffff;fill-opacity:1;stroke:none;stroke-width:1;stroke-linecap:round;stroke-linejoin:bevel;stroke-miterlimit:4;stroke-dasharray:none;stroke-dashoffset:0;stroke-opacity:1"
     d="M 12.982422,6.027344 C 11.425841,6.038144 7.874169,6.013934 6.324218,6.064454 5.862989,6.107124 5.3071199,6.271843 5.167968,6.775391 4.9489739,7.410737 5.0588656,8.109676 5.0214836,8.757813 c -0.00567,1.668707 -0.00639,7.276123 0.00586,11.541016 0.1746924,0.116874 0.3365638,0.255299 0.46875,0.431641 0.176302,-0.237168 0.3421017,-0.495006 0.6054687,-0.603516 0.380303,-0.156707 0.8182874,-0.16878 1.2304687,0.002 l 1.3828126,0.570313 c 0.698645,0.289381 0.977318,1.00899 0.873047,1.722656 0.7104014,-0.101645 1.4205734,0.172064 1.7109374,0.873047 l 0.572266,1.384766 c 0.18915,0.456658 0.105982,0.904079 -0.123047,1.285156 2.594692,0.0027 5.345881,0.0076 6.207031,0.0078 1.704531,3.49e-4 3.40862,-0.006 5.107422,-0.01953 0.511911,-0.01201 1.184891,0.02082 1.585938,-0.404297 0.421096,-0.539783 0.286593,-1.26853 0.322265,-1.904297 0.01187,-2.444322 0.02811,-13.911722 -0.02148,-16.357422 C 24.899943,6.885105 24.778198,6.4257 24.373051,6.244177 23.704882,5.95008 22.947767,6.074699 22.248051,6.037146 c -1.754407,-0.0118 -7.511186,-0.01086 -9.265625,-0.0098 z" />
  <g
     id="g915"
     transform="matrix(1.2387196,0,0,1.2387196,-18.658293,2.3417)"
     style="stroke-width:0.807285">
    <circle
       style="fill:#ffffff;fill-rule:evenodd;stroke:none;stroke-width:1.61457;stroke-linecap:round;stroke-linejoin:round"
       id="path909"
       cx="19.5"
       cy="19.5"
       r="1.5" />
    <g
       id="g1425"
       transform="translate(8.0000004,8)"
       style="stroke-width:0.807285">
      <circle
         style="fill:#ffffff;fill-opacity:1;fill-rule:evenodd;stroke:none;stroke-width:1.61457;stroke-linecap:round;stroke-linejoin:round;stroke-miterlimit:4;stroke-dasharray:none;stroke-opacity:1"
         id="path1328"
         cx="11.5"
         cy="11.5"
         r="1.5" />
      <path
         d="m 9.3111344,7.791575 c -0.13058,0.05409 -0.188804,0.19465 -0.134715,0.325232 l 0.272166,0.657066 c -0.260199,0.195351 -0.471578,0.424352 -0.66202,0.678364 L 8.1128724,9.173184 c -0.130581,-0.05409 -0.274445,0.0055 -0.328533,0.136083 l -0.461881,1.115078 c -0.05409,0.130582 0.0055,0.274445 0.136083,0.328534 l 0.673693,0.279053 c -0.04495,0.314275 -0.05741,0.62567 -0.01156,0.947793 l -0.657066,0.272166 c -0.130581,0.05409 -0.188804,0.19465 -0.134715,0.325232 l 0.462682,1.117013 c 0.05409,0.130581 0.19465,0.188803 0.325231,0.134715 l 0.657067,-0.272166 c 0.195351,0.260198 0.424352,0.471578 0.678363,0.66202 l -0.279053,0.673693 c -0.05409,0.130583 0.0055,0.274445 0.136083,0.328533 l 1.1150786,0.461881 c 0.130582,0.05409 0.274445,-0.0055 0.328533,-0.136083 l 0.279053,-0.673693 c 0.314276,0.04495 0.625672,0.05741 0.947794,0.01156 l 0.272166,0.657067 c 0.05409,0.130582 0.19465,0.188803 0.325231,0.134715 l 1.117013,-0.462682 c 0.130582,-0.05409 0.188804,-0.19465 0.134716,-0.325231 l -0.272166,-0.657067 c 0.260198,-0.19535 0.471577,-0.424351 0.662019,-0.678363 l 0.673694,0.279053 c 0.130583,0.05409 0.274445,-0.0055 0.328533,-0.136083 l 0.461881,-1.115079 c 0.05409,-0.130583 -0.0055,-0.274445 -0.136083,-0.328533 L 14.873035,11.97334 c 0.04495,-0.314276 0.05741,-0.625672 0.01156,-0.947794 l 0.657066,-0.272166 c 0.130582,-0.05409 0.188804,-0.194649 0.134716,-0.325231 L 15.213692,9.311132 C 15.159602,9.18055 15.019042,9.122328 14.88846,9.176417 L 14.231394,9.448582 C 14.036043,9.188383 13.807042,8.977005 13.553031,8.786563 l 0.279053,-0.673694 c 0.05409,-0.130582 -0.0055,-0.274445 -0.136083,-0.328533 L 12.580922,7.322455 c -0.130583,-0.05409 -0.274445,0.0055 -0.328534,0.136083 L 11.973335,8.132232 C 11.65906,8.087282 11.347664,8.074822 11.025542,8.120672 L 10.753376,7.463606 C 10.699286,7.333024 10.558726,7.274802 10.428144,7.32889 Z m 1.7560366,2.659752 c 0.580321,-0.240377 1.246395,0.03552 1.486772,0.615841 0.240377,0.580322 -0.03552,1.246395 -0.615841,1.486772 -0.580321,0.240377 -1.246395,-0.03552 -1.486772,-0.615841 -0.240377,-0.580321 0.03552,-1.246395 0.615841,-1.486772 z"
         display="block"
         fill="url(#d)"
         stroke="url(#e)"
         stroke-linejoin="round"
         stroke-width="0.484372"
         id="path42"
         style="fill:#d3d3d3;fill-opacity:1;stroke:#4d4d4d;stroke-opacity:1" />
    </g>
  </g>
  <path
     inkscape:export-ydpi="96"
     inkscape:export-xdpi="96"
     inkscape:export-filename="/home/stuart/yaru/icons/Suru/32x32/legacy/document-export.png"
     sodipodi:nodetypes="cccccccc"
     id="path829"
     d="m 28.99994,17.999709 h -8 v 4 c 0,0 -4,-2 -9,-6 5,-4 9,-6 9,-6 v 4 h 8 z"
     style="display:inline;opacity:0.7;fill:#000000;fill-opacity:1;stroke:#000000;stroke-width:2;stroke-linecap:round;stroke-linejoin:round;stroke-miterlimit:4;stroke-dasharray:none;stroke-dashoffset:0;stroke-opacity:1;enable-background:new"
     inkscape:connector-curvature="0" />
  <path
     inkscape:connector-curvature="0"
     style="display:inline;opacity:1;fill:#aee3f8;fill-opacity:1;stroke:none;stroke-width:1;stroke-linecap:round;stroke-linejoin:round;stroke-miterlimit:4;stroke-dasharray:none;stroke-dashoffset:0;stroke-opacity:0.88059698;enable-background:new"
     d="m 28.99994,17.999709 h -8 v 4 c 0,0 -4,-2 -9,-6 5,-4 9,-6 9,-6 v 4 h 8 z"
     id="rect11148-3-5"
     sodipodi:nodetypes="cccccccc"
     inkscape:export-filename="/home/stuart/yaru/icons/Suru/32x32/legacy/document-export.png"
     inkscape:export-xdpi="96"
     inkscape:export-ydpi="96" />
</svg>
