<?xml version="1.0" encoding="UTF-8" standalone="no"?>
<svg
   xmlns:dc="http://purl.org/dc/elements/1.1/"
   xmlns:cc="http://creativecommons.org/ns#"
   xmlns:rdf="http://www.w3.org/1999/02/22-rdf-syntax-ns#"
   xmlns:svg="http://www.w3.org/2000/svg"
   xmlns="http://www.w3.org/2000/svg"
   xmlns:sodipodi="http://sodipodi.sourceforge.net/DTD/sodipodi-0.dtd"
   xmlns:inkscape="http://www.inkscape.org/namespaces/inkscape"
   viewBox="0 0 32 32"
   version="1.1"
   id="svg6"
   sodipodi:docname="insertgraphic.svg"
   inkscape:export-filename="/home/jupiter007/Libreoffice yaru theme fullcolor/build/cmd/32/insertgraphic.png"
   inkscape:export-xdpi="96"
   inkscape:export-ydpi="96"
   inkscape:version="1.0.1 (3bc2e813f5, 2020-09-07)">
  <metadata
     id="metadata12">
    <rdf:RDF>
      <cc:Work
         rdf:about="">
        <dc:format>image/svg+xml</dc:format>
        <dc:type
           rdf:resource="http://purl.org/dc/dcmitype/StillImage" />
        <dc:title></dc:title>
      </cc:Work>
    </rdf:RDF>
  </metadata>
  <defs
     id="defs10" />
  <sodipodi:namedview
     pagecolor="#ffffff"
     bordercolor="#666666"
     borderopacity="1"
     objecttolerance="10"
     gridtolerance="10"
     guidetolerance="10"
     inkscape:pageopacity="0"
     inkscape:pageshadow="2"
     inkscape:window-width="1920"
     inkscape:window-height="1011"
     id="namedview8"
     showgrid="true"
     inkscape:zoom="20.85965"
     inkscape:cx="14.009338"
     inkscape:cy="15.656381"
     inkscape:window-x="0"
     inkscape:window-y="0"
     inkscape:window-maximized="1"
     inkscape:current-layer="svg6"
     inkscape:document-rotation="0">
    <inkscape:grid
       type="xygrid"
       id="grid838"
       spacingx="1" />
    <inkscape:grid
       type="xygrid"
       id="grid851"
       spacingx="0.5"
       spacingy="0.5"
       empspacing="10"
       snapvisiblegridlinesonly="true"
       dotted="true" />
  </sodipodi:namedview>
  <path
     sodipodi:nodetypes="cccscsccccccccscscccccc"
     inkscape:connector-curvature="0"
     id="path4237-1"
     d="M 5.994141,3.999859 C 4.735941,4.014359 3.81525,3.969259 3.0625,4.384625 2.68613,4.592285 2.389269,4.944012 2.224609,5.382672 2.059939,5.821342 1.9768169,6.3426678 2,6.999859 v 1.488282 16.512582 c 0,0.65761 0.0599,1.178577 0.224609,1.617188 0.16468,0.438611 0.461531,0.788524 0.837891,0.996093 0.75272,0.41513 1.673541,0.371649 2.931641,0.386719 h 0.002 20.005809 0.0039 c 1.25819,-0.0145 2.178891,0.0306 2.931641,-0.384766 0.37637,-0.20766 0.673221,-0.559386 0.837891,-0.998046 C 29.939921,26.17924 30.006707,25.658299 30,25.000723 V 8.466657 6.999859 C 30,6.342259 29.9401,5.821282 29.775391,5.382672 29.610711,4.944072 29.31386,4.594138 28.9375,4.386578 28.18473,3.971448 27.263899,4.014939 26.005809,3.999859 h -0.002 l -20.005809,0 z"
     style="font-style:normal;font-variant:normal;font-weight:normal;font-stretch:normal;font-size:15px;line-height:125%;font-family:Ubuntu;-inkscape-font-specification:Ubuntu;text-align:center;letter-spacing:0px;word-spacing:0px;writing-mode:lr-tb;text-anchor:middle;display:inline;opacity:0.6;fill:#000000;fill-opacity:1;stroke:none;stroke-width:0.999802" />
  <path
     inkscape:connector-curvature="0"
     id="path1993"
     d="M 10.983369,5.027044 C 9.426788,5.037844 5.873379,5.015294 4.323428,5.065814 3.862199,5.108484 3.30724,5.272234 3.168088,5.775781 2.949094,6.411127 3.059674,7.109568 3.022292,7.757705 c -0.0078,2.297085 -0.02297,15.596709 0.02152,17.886061 0.0391,0.461929 0.202551,1.012666 0.698756,1.163666 0.632456,0.225082 1.284144,0.12274 1.935974,0.154298 1.424235,0.0068 4.850563,0.01102 6.27642,0.01131 1.704531,3.5e-4 13.408338,-0.005 15.10714,-0.01851 0.511911,-0.01201 1.183699,0.01993 1.584745,-0.405191 0.421097,-0.539783 0.287073,-1.268021 0.322745,-1.903787 0.01187,-2.444323 0.02769,-15.911375 -0.0219,-18.357075 C 28.898412,5.886437 28.7777,5.425525 28.372553,5.244002 27.704384,4.949904 26.946348,5.075983 26.246632,5.038429 24.492225,5.026629 12.737808,5.025949 10.983369,5.027039 Z"
     style="opacity:1;vector-effect:none;fill:#d85eca;fill-opacity:1;stroke:none;stroke-width:1;stroke-linecap:round;stroke-linejoin:bevel;stroke-miterlimit:4;stroke-dasharray:none;stroke-dashoffset:0;stroke-opacity:1"
     sodipodi:nodetypes="cccccccscccccccc" />
  <path
     d="m 22,9 c -1.104574,0 -2,0.8954272 -2,2 0,1.104574 0.895426,2.000001 2,2.000001 1.104574,0 2,-0.895427 2,-2.000001 0,-1.1045728 -0.895426,-2 -2,-2 z"
     id="path4527-0"
     style="color:#000000;display:inline;overflow:visible;visibility:visible;fill:#ffffff;fill-opacity:1;fill-rule:nonzero;stroke:none;stroke-width:7.99841;marker:none;enable-background:accumulate"
     sodipodi:nodetypes="sssss" />
  <path
     d="M 13,13.5 8,23 H 12.703778 22 l -4.5,-8 -2,2.5 z"
     id="path4156-2"
     style="color:#000000;display:inline;overflow:visible;visibility:visible;fill:#ffffff;fill-opacity:1;fill-rule:nonzero;stroke:none;stroke-width:10.3809;marker:none;enable-background:accumulate"
     sodipodi:nodetypes="ccccccc" />
</svg>
