<?xml version="1.0" encoding="UTF-8" standalone="no"?>
<svg
   xmlns:dc="http://purl.org/dc/elements/1.1/"
   xmlns:cc="http://creativecommons.org/ns#"
   xmlns:rdf="http://www.w3.org/1999/02/22-rdf-syntax-ns#"
   xmlns:svg="http://www.w3.org/2000/svg"
   xmlns="http://www.w3.org/2000/svg"
   xmlns:sodipodi="http://sodipodi.sourceforge.net/DTD/sodipodi-0.dtd"
   xmlns:inkscape="http://www.inkscape.org/namespaces/inkscape"
   viewBox="0 0 32 32"
   version="1.1"
   id="svg4"
   sodipodi:docname="insertannotation.svg"
   inkscape:version="0.92.4 (5da689c313, 2019-01-14)">
  <metadata
     id="metadata10">
    <rdf:RDF>
      <cc:Work
         rdf:about="">
        <dc:format>image/svg+xml</dc:format>
        <dc:type
           rdf:resource="http://purl.org/dc/dcmitype/StillImage" />
      </cc:Work>
    </rdf:RDF>
  </metadata>
  <defs
     id="defs8" />
  <sodipodi:namedview
     pagecolor="#ffffff"
     bordercolor="#666666"
     borderopacity="1"
     objecttolerance="10"
     gridtolerance="10"
     guidetolerance="10"
     inkscape:pageopacity="0"
     inkscape:pageshadow="2"
     inkscape:window-width="1920"
     inkscape:window-height="1011"
     id="namedview6"
     showgrid="true"
     inkscape:snap-global="true"
     inkscape:zoom="11.313708"
     inkscape:cx="7.194593"
     inkscape:cy="12.430159"
     inkscape:window-x="0"
     inkscape:window-y="32"
     inkscape:window-maximized="1"
     inkscape:current-layer="svg4">
    <inkscape:grid
       type="xygrid"
       id="grid825" />
  </sodipodi:namedview>
  <path
     id="rect841"
     style="opacity:1;fill:#e95420;fill-opacity:1;fill-rule:nonzero;stroke:none;stroke-width:0.00119524;stroke-linecap:butt;stroke-linejoin:round;stroke-miterlimit:4;stroke-dasharray:none;stroke-dashoffset:0;stroke-opacity:1"
     d="m 9.5,12 h 13 c 0.277,0 0.5,0.223 0.5,0.5 0,0.277 -0.223,0.5 -0.5,0.5 H 9.5 C 9.223,13 9,12.777 9,12.5 9,12.223 9.223,12 9.5,12 Z m 0,3 h 13 c 0.277,0 0.5,0.223 0.5,0.5 0,0.277 -0.223,0.5 -0.5,0.5 H 9.5 C 9.223,16 9,15.777 9,15.5 9,15.223 9.223,15 9.5,15 Z m 0,-6 h 13 C 22.777,9 23,9.223 23,9.5 23,9.777 22.777,10 22.5,10 H 9.5 C 9.223,10 9,9.777 9,9.5 9,9.223 9.223,9 9.5,9 Z M 28,16 V 6 C 28,4 27,4 25,4 H 7 C 5,4 4,4 4,6 v 13 c 0,2 1,2 3,2 l 6,6 v -6 h 3 v -1 h -4 v 4.6 L 7.5,20 H 7 C 6,20 5,20 5,19 V 6 C 5,5 6,5 7,5 h 18 c 1,0 2,0 2,1 v 10 z m -6,1 v 5 h -5 v 1 h 5 v 5 h 1 v -5 h 5 v -1 h -5 v -5 z" />
</svg>
