<?xml version="1.0" encoding="UTF-8" standalone="no"?>
<svg
   xmlns:dc="http://purl.org/dc/elements/1.1/"
   xmlns:cc="http://creativecommons.org/ns#"
   xmlns:rdf="http://www.w3.org/1999/02/22-rdf-syntax-ns#"
   xmlns:svg="http://www.w3.org/2000/svg"
   xmlns="http://www.w3.org/2000/svg"
   xmlns:sodipodi="http://sodipodi.sourceforge.net/DTD/sodipodi-0.dtd"
   xmlns:inkscape="http://www.inkscape.org/namespaces/inkscape"
   viewBox="0 0 32 32"
   version="1.1"
   id="svg4"
   sodipodi:docname="lastrecord.svg"
   inkscape:export-filename="/home/jupiter007/Libreoffice yaru theme fullcolor/build/cmd/32/lastrecord.png"
   inkscape:export-xdpi="95"
   inkscape:export-ydpi="95"
   inkscape:version="0.92.4 (5da689c313, 2019-01-14)">
  <metadata
     id="metadata10">
    <rdf:RDF>
      <cc:Work
         rdf:about="">
        <dc:format>image/svg+xml</dc:format>
        <dc:type
           rdf:resource="http://purl.org/dc/dcmitype/StillImage" />
      </cc:Work>
    </rdf:RDF>
  </metadata>
  <defs
     id="defs8" />
  <sodipodi:namedview
     pagecolor="#ffffff"
     bordercolor="#666666"
     borderopacity="1"
     objecttolerance="10"
     gridtolerance="10"
     guidetolerance="10"
     inkscape:pageopacity="0"
     inkscape:pageshadow="2"
     inkscape:window-width="1920"
     inkscape:window-height="1011"
     id="namedview6"
     showgrid="false"
     inkscape:zoom="11.752115"
     inkscape:cx="-3.6745724"
     inkscape:cy="15.621866"
     inkscape:window-x="0"
     inkscape:window-y="32"
     inkscape:window-maximized="1"
     inkscape:current-layer="svg4" />
  <path
     d="m9.6679688 4c-.014-.003-.6679688.7070312-.6679688.7070312l10.664062 11.2929688-10.664062 11.292969.6679688.707031 11.3320312-12zm13.3320312 0v24h1v-24z"
     fill="#232629"
     id="path819"
     style="fill:#000000;stroke:#000000;stroke-linejoin:round;stroke-width:3;stroke-miterlimit:4;stroke-dasharray:none;opacity:0.6" />
  <path
     d="m9.6679688 4c-.014-.003-.6679688.7070312-.6679688.7070312l10.664062 11.2929688-10.664062 11.292969.6679688.707031 11.3320312-12zm13.3320312 0v24h1v-24z"
     fill="#232629"
     id="path2"
     style="fill:#ffffff;stroke:#ffffff" />
  <path
     style="fill:#ffffff;stroke:#ffffff;stroke-linejoin:round"
     id="path817"
     fill="#232629"
     d="m9.6679688 4c-.014-.003-.6679688.7070312-.6679688.7070312l10.664062 11.2929688-10.664062 11.292969.6679688.707031 11.3320312-12zm13.3320312 0v24h1v-24z" />
</svg>
