<?xml version="1.0" encoding="UTF-8" standalone="no"?>
<svg
   xmlns:dc="http://purl.org/dc/elements/1.1/"
   xmlns:cc="http://creativecommons.org/ns#"
   xmlns:rdf="http://www.w3.org/1999/02/22-rdf-syntax-ns#"
   xmlns:svg="http://www.w3.org/2000/svg"
   xmlns="http://www.w3.org/2000/svg"
   xmlns:sodipodi="http://sodipodi.sourceforge.net/DTD/sodipodi-0.dtd"
   xmlns:inkscape="http://www.inkscape.org/namespaces/inkscape"
   viewBox="0 0 32 32"
   version="1.1"
   id="svg8"
   sodipodi:docname="mergedialog.svg"
   inkscape:export-filename="/home/jupiter007/Libreoffice yaru theme fullcolor/build/cmd/32/mergedialog.png"
   inkscape:export-xdpi="96"
   inkscape:export-ydpi="96"
   inkscape:version="1.0.1 (3bc2e813f5, 2020-09-07)">
  <metadata
     id="metadata14">
    <rdf:RDF>
      <cc:Work
         rdf:about="">
        <dc:format>image/svg+xml</dc:format>
        <dc:type
           rdf:resource="http://purl.org/dc/dcmitype/StillImage" />
      </cc:Work>
    </rdf:RDF>
  </metadata>
  <defs
     id="defs12" />
  <sodipodi:namedview
     pagecolor="#ffffff"
     bordercolor="#666666"
     borderopacity="1"
     objecttolerance="10"
     gridtolerance="10"
     guidetolerance="10"
     inkscape:pageopacity="0"
     inkscape:pageshadow="2"
     inkscape:window-width="1920"
     inkscape:window-height="1011"
     id="namedview10"
     showgrid="true"
     inkscape:zoom="20.85965"
     inkscape:cx="11.431525"
     inkscape:cy="20.075575"
     inkscape:window-x="1920"
     inkscape:window-y="32"
     inkscape:window-maximized="1"
     inkscape:current-layer="svg8"
     inkscape:document-rotation="0">
    <inkscape:grid
       type="xygrid"
       id="grid849" />
  </sodipodi:namedview>
  <path
     id="path868"
     style="color:#000000;font-style:normal;font-variant:normal;font-weight:normal;font-stretch:normal;font-size:medium;line-height:normal;font-family:sans-serif;font-variant-ligatures:normal;font-variant-position:normal;font-variant-caps:normal;font-variant-numeric:normal;font-variant-alternates:normal;font-variant-east-asian:normal;font-feature-settings:normal;font-variation-settings:normal;text-indent:0;text-align:start;text-decoration:none;text-decoration-line:none;text-decoration-style:solid;text-decoration-color:#000000;letter-spacing:normal;word-spacing:normal;text-transform:none;writing-mode:lr-tb;direction:ltr;text-orientation:mixed;dominant-baseline:auto;baseline-shift:baseline;text-anchor:start;white-space:normal;shape-padding:0;shape-margin:0;inline-size:0;clip-rule:nonzero;display:inline;overflow:visible;visibility:visible;isolation:auto;mix-blend-mode:normal;color-interpolation:sRGB;color-interpolation-filters:linearRGB;solid-color:#000000;solid-opacity:1;vector-effect:none;fill:#000000;fill-opacity:1;fill-rule:nonzero;stroke:none;stroke-width:2;stroke-linecap:butt;stroke-linejoin:miter;stroke-miterlimit:4;stroke-dasharray:none;stroke-dashoffset:0;stroke-opacity:1;color-rendering:auto;image-rendering:auto;shape-rendering:auto;text-rendering:auto;enable-background:accumulate;stop-color:#000000;stop-opacity:1;opacity:0.7"
     d="M 10 3 C 8.8333335 3 7.6586587 3.2757379 6.6953125 3.9179688 C 5.7319663 4.5601996 5 5.6666666 5 7 L 5 20.283203 C 5.1853494 20.40228 5.3572299 20.545218 5.4960938 20.730469 C 5.6723958 20.493301 5.8381955 20.235463 6.1015625 20.126953 C 6.3808807 20.011858 6.6912427 19.975053 7 20.03125 L 7 7 C 7 6.3333334 7.2680337 5.9398004 7.8046875 5.5820312 C 8.3413413 5.2242621 9.1666668 5 10 5 L 18.585938 5 L 25 11.414062 L 25 25 C 25 25.666667 24.731966 26.0602 24.195312 26.417969 C 23.658659 26.775738 22.833333 27 22 27 L 11.722656 27 C 11.977556 27.392375 12.076179 27.863594 11.878906 28.339844 L 11.605469 29 L 22 29 C 23.166667 29 24.34134 28.724262 25.304688 28.082031 C 26.268034 27.4398 27 26.333333 27 25 L 27 10.585938 L 19.414062 3 L 10 3 z " />
  <path
     id="path2"
     style="fill:#ffffff"
     d="M 10 4 C 8.0000003 4 6 5 6 7 L 6 20.185547 C 6.0332275 20.165004 6.0648073 20.142097 6.1015625 20.126953 C 6.4818655 19.970246 6.9198502 19.958173 7.3320312 20.128906 L 8.7148438 20.699219 C 9.4134888 20.9886 9.6921616 21.708209 9.5878906 22.421875 C 10.298292 22.32023 11.008464 22.593939 11.298828 23.294922 L 11.871094 24.679688 C 12.160752 25.378998 11.850211 26.075952 11.275391 26.505859 C 11.759192 26.866092 12.054435 27.418989 11.96875 28 L 22 28 C 24 28 26 27 26 25 L 26 11 L 19 4 L 10 4 z " />
  <path
     inkscape:connector-curvature="0"
     d="M 19,11 V 3.9999998 L 26,11 Z"
     id="path4"
     style="fill:#6d6d6d;fill-opacity:1" />
  <path
     id="path4237-1"
     style="font-style:normal;font-variant:normal;font-weight:normal;font-stretch:normal;font-size:15px;line-height:125%;font-family:Ubuntu;-inkscape-font-specification:Ubuntu;text-align:center;letter-spacing:0px;word-spacing:0px;writing-mode:lr-tb;text-anchor:middle;display:inline;opacity:0.7;fill:#000000;fill-opacity:1;stroke:none;stroke-width:0.99980211"
     d="M 14.037109 13.960938 C 12.779019 13.976017 11.858189 13.932526 11.105469 14.347656 C 10.729109 14.555216 10.432258 14.90515 10.267578 15.34375 C 10.102869 15.78236 10.042969 16.303338 10.042969 16.960938 L 10.042969 18.427734 L 10.042969 22.417969 C 10.583928 22.467694 11.071341 22.745733 11.298828 23.294922 L 11.871094 24.679688 C 12.160752 25.378998 11.850211 26.075952 11.275391 26.505859 C 11.853165 26.936062 12.168859 27.639847 11.878906 28.339844 L 11.306641 29.720703 C 11.30514 29.724326 11.302305 29.726868 11.300781 29.730469 C 12.018362 30.046218 12.88146 30.025744 14.037109 30.039062 L 14.041016 30.039062 L 26.046875 30.039062 L 26.048828 30.039062 C 27.306928 30.023993 28.227749 30.067474 28.980469 29.652344 C 29.356829 29.444774 29.653679 29.09486 29.818359 28.65625 C 29.983068 28.217639 30.042969 27.696672 30.042969 27.039062 L 30.042969 18.449219 L 30.042969 16.960938 C 30.042969 16.303337 29.983029 15.78242 29.818359 15.34375 C 29.653699 14.90509 29.356839 14.553363 28.980469 14.345703 C 28.227719 13.930337 27.307028 13.975437 26.048828 13.960938 L 26.044922 13.960938 L 14.039062 13.960938 L 14.037109 13.960938 z " />
  <path
     id="path1993"
     style="opacity:1;vector-effect:none;fill:#aee3f8;fill-opacity:1;stroke:none;stroke-width:1;stroke-linecap:round;stroke-linejoin:bevel;stroke-miterlimit:4;stroke-dasharray:none;stroke-dashoffset:0;stroke-opacity:1"
     d="M 21.060547 14.988281 C 19.306107 14.987191 15.551282 14.9882 13.796875 15 C 13.097159 15.037554 12.340044 14.91098 11.671875 15.205078 C 11.266728 15.386601 11.144983 15.847959 11.095703 16.25 C 11.063992 17.81393 11.06276 20.444826 11.066406 22.921875 C 11.157719 23.030225 11.23923 23.151043 11.298828 23.294922 L 11.871094 24.679688 C 12.160752 25.378998 11.850211 26.075952 11.275391 26.505859 C 11.853165 26.936062 12.168859 27.639847 11.878906 28.339844 L 11.691406 28.792969 C 12.082354 28.991934 12.579713 28.982739 12.982422 28.992188 C 16.102287 29.017048 23.238406 29.01483 26.365234 29 C 27.017064 28.968442 27.668324 29.070785 28.300781 28.845703 C 28.796986 28.694703 28.9609 28.14357 29 27.681641 C 29.04449 25.392289 29.029184 20.015836 29.021484 17.71875 C 28.984102 17.070613 29.093994 16.373628 28.875 15.738281 C 28.735848 15.234734 28.181932 15.070014 27.720703 15.027344 C 26.170752 14.976824 22.617129 14.999081 21.060547 14.988281 z " />
  <path
     style="font-style:normal;font-variant:normal;font-weight:normal;font-stretch:normal;font-size:15px;line-height:125%;font-family:Ubuntu;-inkscape-font-specification:Ubuntu;text-align:center;letter-spacing:0px;word-spacing:0px;writing-mode:lr-tb;text-anchor:middle;display:inline;opacity:0.7;fill:#000000;fill-opacity:1;stroke:none;stroke-width:1.28545988"
     d="m 23.908489,16 c 0.809253,0.009 1.422693,0.01156 1.936105,0.07031 0.513411,0.05889 0.981191,0.181198 1.333426,0.532366 0.352221,0.351167 0.475186,0.822445 0.529854,1.333426 0.03866,0.361543 0.04568,0.854316 0.04771,1.535994 l 1.288225,-0.778459 v 1.21289 l -7.714287,5.522042 2.571429,2.571429 c 0,0 -3.50244,-1.58022 -5.142857,-2.571429 -2.549262,-1.540371 -6.147308,-4.287112 -7.714286,-5.494418 v -1.240514 l 1.288225,0.77846 c 0.0022,-0.6817 0.0094,-1.174506 0.04771,-1.535994 0.05465,-0.510892 0.177599,-0.982375 0.529859,-1.333427 0.35226,-0.351038 0.820091,-0.473429 1.333426,-0.532366 0.513334,-0.05889 2.41254,-0.06054 3.22182,-0.07031 h 0.0026 6.436104 z m -0.0075,1 h -6.428572 c -0.80667,0.01029 -2.689539,0.01791 -3.081194,0.06278 -0.393313,0.04513 -0.526504,0.119849 -0.572545,0.165737 -0.04603,0.0459 -0.119314,0.1704 -0.160714,0.557477 -0.04059,0.3807 -0.04264,1.654602 -0.04269,2.459543 l 6.431048,3.879743 6.42606,-3.879743 c -5.1e-5,-0.804937 -0.0019,-2.078754 -0.04269,-2.459543 -0.0414,-0.387205 -0.114685,-0.511539 -0.160714,-0.557477 -0.04603,-0.0459 -0.17681,-0.120621 -0.570033,-0.165737 C 25.30735,17.01791 24.707581,17.00926 23.900949,17 Z"
     id="path4237-1-5"
     inkscape:connector-curvature="0"
     sodipodi:nodetypes="cccccccccsccccccccccccccccccccccc" />
  <path
     style="opacity:1;vector-effect:none;fill:#ffffff;fill-opacity:1;stroke:none;stroke-width:1.28571427;stroke-linecap:round;stroke-linejoin:bevel;stroke-miterlimit:4;stroke-dasharray:none;stroke-dashoffset:0;stroke-opacity:1"
     d="m 22.105191,16.9381 c 1.321998,0.03924 2.660954,-0.04836 3.972972,0.108294 0.602995,0.150757 0.375045,0.674556 0.456466,1.121124 -0.01505,0.624764 0.116832,1.574679 -0.01576,2.172281 -2.153719,1.247529 -4.223289,2.648709 -6.437361,3.787302 -0.425329,-0.0091 -0.769188,-0.417105 -1.15937,-0.573016 -1.783805,-1.051265 -3.550555,-2.131118 -5.325072,-3.197962 -0.131193,-0.746031 -0.02623,-1.630329 -0.03196,-2.40325 -0.02488,-0.397359 0.11835,-0.939719 0.611097,-0.928765 2.640586,-0.109737 5.286542,-0.08066 7.928988,-0.08601 z"
     id="path2311"
     inkscape:connector-curvature="0"
     sodipodi:nodetypes="cccccccccc" />
  <path
     style="color:#000000;font-weight:400;line-height:normal;font-family:sans-serif;font-variant-ligatures:normal;font-variant-position:normal;font-variant-caps:normal;font-variant-numeric:normal;font-variant-alternates:normal;font-feature-settings:normal;text-indent:0;text-align:start;text-decoration:none;text-decoration-line:none;text-decoration-style:solid;text-decoration-color:#000000;text-transform:none;text-orientation:mixed;white-space:normal;shape-padding:0;overflow:visible;isolation:auto;mix-blend-mode:normal;fill:#a7a7f1;fill-opacity:1;stroke-width:1.15470064;marker:none"
     d="m 24.043812,19 v 1 h -8 v -1 z"
     id="path2005"
     inkscape:connector-curvature="0"
     sodipodi:nodetypes="ccccc" />
  <g
     id="g915"
     transform="matrix(1.2387196,0,0,1.2387196,-18.658293,2.3417)"
     style="stroke-width:0.807285">
    <circle
       style="fill:#ffffff;fill-rule:evenodd;stroke:none;stroke-width:1.61457;stroke-linecap:round;stroke-linejoin:round"
       id="path909"
       cx="19.5"
       cy="19.5"
       r="1.5" />
    <g
       id="g1425"
       transform="translate(8.0000004,8)"
       style="stroke-width:0.807285">
      <circle
         style="fill:#ffffff;fill-opacity:1;fill-rule:evenodd;stroke:none;stroke-width:1.61457;stroke-linecap:round;stroke-linejoin:round;stroke-miterlimit:4;stroke-dasharray:none;stroke-opacity:1"
         id="path1328"
         cx="11.5"
         cy="11.5"
         r="1.5" />
      <path
         d="m 9.3111344,7.791575 c -0.13058,0.05409 -0.188804,0.19465 -0.134715,0.325232 l 0.272166,0.657066 c -0.260199,0.195351 -0.471578,0.424352 -0.66202,0.678364 L 8.1128724,9.173184 c -0.130581,-0.05409 -0.274445,0.0055 -0.328533,0.136083 l -0.461881,1.115078 c -0.05409,0.130582 0.0055,0.274445 0.136083,0.328534 l 0.673693,0.279053 c -0.04495,0.314275 -0.05741,0.62567 -0.01156,0.947793 l -0.657066,0.272166 c -0.130581,0.05409 -0.188804,0.19465 -0.134715,0.325232 l 0.462682,1.117013 c 0.05409,0.130581 0.19465,0.188803 0.325231,0.134715 l 0.657067,-0.272166 c 0.195351,0.260198 0.424352,0.471578 0.678363,0.66202 l -0.279053,0.673693 c -0.05409,0.130583 0.0055,0.274445 0.136083,0.328533 l 1.1150786,0.461881 c 0.130582,0.05409 0.274445,-0.0055 0.328533,-0.136083 l 0.279053,-0.673693 c 0.314276,0.04495 0.625672,0.05741 0.947794,0.01156 l 0.272166,0.657067 c 0.05409,0.130582 0.19465,0.188803 0.325231,0.134715 l 1.117013,-0.462682 c 0.130582,-0.05409 0.188804,-0.19465 0.134716,-0.325231 l -0.272166,-0.657067 c 0.260198,-0.19535 0.471577,-0.424351 0.662019,-0.678363 l 0.673694,0.279053 c 0.130583,0.05409 0.274445,-0.0055 0.328533,-0.136083 l 0.461881,-1.115079 c 0.05409,-0.130583 -0.0055,-0.274445 -0.136083,-0.328533 L 14.873035,11.97334 c 0.04495,-0.314276 0.05741,-0.625672 0.01156,-0.947794 l 0.657066,-0.272166 c 0.130582,-0.05409 0.188804,-0.194649 0.134716,-0.325231 L 15.213692,9.311132 C 15.159602,9.18055 15.019042,9.122328 14.88846,9.176417 L 14.231394,9.448582 C 14.036043,9.188383 13.807042,8.977005 13.553031,8.786563 l 0.279053,-0.673694 c 0.05409,-0.130582 -0.0055,-0.274445 -0.136083,-0.328533 L 12.580922,7.322455 c -0.130583,-0.05409 -0.274445,0.0055 -0.328534,0.136083 L 11.973335,8.132232 C 11.65906,8.087282 11.347664,8.074822 11.025542,8.120672 L 10.753376,7.463606 C 10.699286,7.333024 10.558726,7.274802 10.428144,7.32889 Z m 1.7560366,2.659752 c 0.580321,-0.240377 1.246395,0.03552 1.486772,0.615841 0.240377,0.580322 -0.03552,1.246395 -0.615841,1.486772 -0.580321,0.240377 -1.246395,-0.03552 -1.486772,-0.615841 -0.240377,-0.580321 0.03552,-1.246395 0.615841,-1.486772 z"
         display="block"
         fill="url(#d)"
         stroke="url(#e)"
         stroke-linejoin="round"
         stroke-width="0.484372"
         id="path42"
         style="fill:#d3d3d3;fill-opacity:1;stroke:#4d4d4d;stroke-opacity:1" />
    </g>
  </g>
</svg>
