<?xml version="1.0" encoding="UTF-8" standalone="no"?>
<svg
   viewBox="0 0 32 32"
   version="1.1"
   id="svg4"
   sodipodi:docname="numberformatstandard.svg"
   inkscape:version="1.1.2 (76b9e6a115, 2022-02-25)"
   inkscape:export-filename="/home/jupiter007/Libreoffice yaru theme fullcolor/build/cmd/32/numberformatstandard.png"
   inkscape:export-xdpi="95"
   inkscape:export-ydpi="95"
   xmlns:inkscape="http://www.inkscape.org/namespaces/inkscape"
   xmlns:sodipodi="http://sodipodi.sourceforge.net/DTD/sodipodi-0.dtd"
   xmlns="http://www.w3.org/2000/svg"
   xmlns:svg="http://www.w3.org/2000/svg"
   xmlns:rdf="http://www.w3.org/1999/02/22-rdf-syntax-ns#"
   xmlns:cc="http://creativecommons.org/ns#"
   xmlns:dc="http://purl.org/dc/elements/1.1/">
  <metadata
     id="metadata10">
    <rdf:RDF>
      <cc:Work
         rdf:about="">
        <dc:format>image/svg+xml</dc:format>
        <dc:type
           rdf:resource="http://purl.org/dc/dcmitype/StillImage" />
      </cc:Work>
    </rdf:RDF>
  </metadata>
  <defs
     id="defs8" />
  <sodipodi:namedview
     pagecolor="#ffffff"
     bordercolor="#666666"
     borderopacity="1"
     objecttolerance="10"
     gridtolerance="10"
     guidetolerance="10"
     inkscape:pageopacity="0"
     inkscape:pageshadow="2"
     inkscape:window-width="1920"
     inkscape:window-height="1016"
     id="namedview6"
     showgrid="true"
     inkscape:zoom="1.84375"
     inkscape:cx="-244.88136"
     inkscape:cy="-33.898305"
     inkscape:window-x="0"
     inkscape:window-y="27"
     inkscape:window-maximized="1"
     inkscape:current-layer="svg4"
     inkscape:pagecheckerboard="0">
    <inkscape:grid
       type="xygrid"
       id="grid815" />
  </sodipodi:namedview>
  <path
     sodipodi:nodetypes="cccscsccccccccscscccccc"
     inkscape:connector-curvature="0"
     id="path4237-1"
     d="m 6.994116,2.9997082 c -1.2582,0.0145 -2.178891,-0.030604 -2.931641,0.3847656 -0.37637,0.20766 -0.673231,0.5593869 -0.837891,0.9980469 -0.16467,0.43867 -0.224609,0.9595875 -0.224609,1.6171875 V 7.4879889 26.000293 c 0,0.657609 0.0599,1.178576 0.224609,1.617188 0.16468,0.438611 0.461531,0.788523 0.837891,0.996092 0.75272,0.415131 1.673541,0.37165 2.931641,0.386719 h 0.002 18.005859 0.0039 c 1.25819,-0.0145 2.178891,0.0306 2.931641,-0.384766 0.37637,-0.20766 0.673221,-0.559386 0.837891,-0.998045 0.164539,-0.438671 0.224618,-0.959579 0.224618,-1.617188 V 7.4665049 5.9997082 c 0,-0.6576 -0.0599,-1.1785775 -0.224609,-1.6171875 -0.16468,-0.4386 -0.461531,-0.7885338 -0.837891,-0.9960937 -0.75277,-0.41513 -1.673601,-0.3716388 -2.931691,-0.3867188 h -0.002 -18.005859 z"
     style="font-style:normal;font-variant:normal;font-weight:normal;font-stretch:normal;font-size:15px;line-height:125%;font-family:Ubuntu;-inkscape-font-specification:Ubuntu;text-align:center;letter-spacing:0px;word-spacing:0px;writing-mode:lr-tb;text-anchor:middle;display:inline;opacity:0.7;fill:#000000;fill-opacity:1;stroke:none;stroke-width:0.99980211" />
  <path
     inkscape:connector-curvature="0"
     id="path1993"
     d="M 19.983344,4.026893 C 18.426763,4.037689 6.873354,4.015141 5.323403,4.065668 4.862174,4.108336 4.307215,4.2720874 4.168063,4.7756348 3.949069,5.4109812 4.059649,6.1094219 4.022267,6.7575589 c -0.0078,2.297085 -0.02297,17.5964301 0.02152,19.8857811 0.0391,0.461929 0.202551,1.012665 0.698756,1.163665 0.632456,0.225082 1.284144,0.12274 1.935974,0.154298 1.424235,0.0068 12.850563,0.01102 14.27642,0.01131 1.704531,3.5e-4 3.408388,-0.005 5.10719,-0.01851 0.511911,-0.01201 1.183699,0.01993 1.584745,-0.405191 0.421097,-0.539783 0.287073,-1.268021 0.322745,-1.903787 0.01187,-2.444323 0.02769,-17.9110971 -0.0219,-20.3567963 C 27.898437,4.8862904 27.777725,4.4253786 27.372578,4.2438555 26.704409,3.9497581 25.946373,4.0758366 25.246657,4.0382828 23.49225,4.0264798 21.737783,4.0257988 19.983344,4.026893 Z"
     style="opacity:1;vector-effect:none;fill:#ffffff;fill-opacity:1;stroke:none;stroke-width:1;stroke-linecap:round;stroke-linejoin:bevel;stroke-miterlimit:4;stroke-dasharray:none;stroke-dashoffset:0;stroke-opacity:1"
     sodipodi:nodetypes="cccccccsccccccc" />
  <path
     id="rect835"
     style="fill:#4d4d4d;fill-opacity:1;fill-rule:evenodd;stroke:none;stroke-width:2;stroke-linejoin:round"
     d="m 12,10 -0.707031,0.707031 -0.292969,0.292969 -3.2421877,3.242188 c -0.3917372,0.391736 -0.3917372,1.022325 0,1.414062 0.3917372,0.391737 1.0223253,0.391737 1.4140625,0 l 1.8281252,-1.828125 1,-1 v 2.171875 6 c 0,0.554 0.446,1 1,1 0.554,0 1,-0.446 1,-1 v -6 -3 c 0,-2 0,-2 -2,-2 z"
     sodipodi:nodetypes="ccccsscccsssccc" />
  <path
     style="fill:none;stroke:#4d4d4d;stroke-width:2;stroke-linecap:round;stroke-linejoin:round"
     d="m 16.724228,12.933449 c 1.637886,-3.0665503 6.005581,-2.044365 6.551544,0 0.545961,2.044367 -1.091924,3.066551 -3.275772,3.066551 2.183848,0 3.821733,1.022183 3.275772,3.06655 -0.545963,2.044367 -4.913658,3.06655 -6.551544,0"
     id="path1362"
     sodipodi:nodetypes="ccccc" />
</svg>
