<?xml version="1.0" encoding="UTF-8" standalone="no"?>
<svg
   xmlns:dc="http://purl.org/dc/elements/1.1/"
   xmlns:cc="http://creativecommons.org/ns#"
   xmlns:rdf="http://www.w3.org/1999/02/22-rdf-syntax-ns#"
   xmlns:svg="http://www.w3.org/2000/svg"
   xmlns="http://www.w3.org/2000/svg"
   xmlns:sodipodi="http://sodipodi.sourceforge.net/DTD/sodipodi-0.dtd"
   xmlns:inkscape="http://www.inkscape.org/namespaces/inkscape"
   viewBox="0 0 32 32"
   version="1.1"
   id="svg4"
   sodipodi:docname="openreadonly.svg"
   inkscape:version="0.92.4 (5da689c313, 2019-01-14)"
   inkscape:export-filename="/home/jupiter007/Libreoffice yaru theme/build/cmd/32/openreadonly.png"
   inkscape:export-xdpi="96"
   inkscape:export-ydpi="96">
  <metadata
     id="metadata10">
    <rdf:RDF>
      <cc:Work
         rdf:about="">
        <dc:format>image/svg+xml</dc:format>
        <dc:type
           rdf:resource="http://purl.org/dc/dcmitype/StillImage" />
        <dc:title></dc:title>
      </cc:Work>
    </rdf:RDF>
  </metadata>
  <defs
     id="defs8" />
  <sodipodi:namedview
     pagecolor="#ffffff"
     bordercolor="#666666"
     borderopacity="1"
     objecttolerance="10"
     gridtolerance="10"
     guidetolerance="10"
     inkscape:pageopacity="0"
     inkscape:pageshadow="2"
     inkscape:window-width="1920"
     inkscape:window-height="1011"
     id="namedview6"
     showgrid="true"
     inkscape:zoom="29.5"
     inkscape:cx="10.494218"
     inkscape:cy="16.751591"
     inkscape:window-x="0"
     inkscape:window-y="32"
     inkscape:window-maximized="1"
     inkscape:current-layer="svg4">
    <inkscape:grid
       type="xygrid"
       id="grid829" />
  </sodipodi:namedview>
  <path
     inkscape:connector-curvature="0"
     d="M 7.9926693,6 C 6.7350885,6.015 5.8143955,5.971 5.0616464,6.387 4.6718898,6.60812 4.3740454,6.961396 4.2219263,7.383 4.057981,7.821 4,8.343 4,9 v 14 c 0,0.658 0.057981,1.179 0.222926,1.617 0.1639453,0.439 0.4628457,0.79 0.8397201,0.998 0.7517495,0.416 1.6724424,0.37 2.9300232,0.385 H 24.007331 c 1.257581,-0.015 2.178274,0.03 2.931023,-0.385 0.375874,-0.207 0.674775,-0.56 0.83972,-0.998 C 27.942019,24.179 28,23.657 28,23 V 12 c 0,-0.658 -0.05798,-1.179 -0.222926,-1.617 -0.01999,-0.055 -0.04798,-0.104 -0.07398,-0.154 l -0.02699,-0.057 C 27.514428,9.8417474 27.257436,9.5676008 26.938354,9.385 26.185605,8.969 25.264912,9.015 24.007331,9 H 17.999333 L 14.945352,6 H 7.9946686 Z m 0.011996,1 H 14.536488 L 17.333555,9.746 15.033322,12 H 7.9926693 c -1.2575808,0.015 -2.1782737,-0.03 -2.9310229,0.385 -0.021993,0.012 -0.039987,0.03 -0.061979,0.043 V 9 c 0,-0.592 0.061979,-1.006 0.1599467,-1.266 C 5.2575811,7.474 5.3625461,7.363 5.5464848,7.262 5.9123628,7.059 6.7410865,7.015 8.0046653,7 Z m 10.4925027,3 h 5.496167 c 1.263579,0.015 2.091303,0.06 2.459181,0.262 0.182939,0.1 0.287904,0.212 0.385871,0.472 0.09797,0.26 0.161946,0.674 0.161946,1.266 v 11 c 0,0.592 -0.06298,1.006 -0.159947,1.266 -0.09797,0.26 -0.202932,0.371 -0.386871,0.472 C 26.087637,24.94 25.260913,24.985 24.001333,25 H 7.9986673 C 6.7390872,24.985 5.9123628,24.94 5.5464848,24.738 5.3625462,24.638 5.2565815,24.526 5.1596138,24.266 5.0626461,24.006 4.9996671,23.592 4.9996671,23 v -8 c 0,-0.592 0.063979,-1.006 0.161946,-1.266 0.097967,-0.26 0.2029323,-0.371 0.3868711,-0.472 C 5.9153618,13.059 6.7430858,13.015 8.0066646,13 h 7.4365214 z"
     font-weight="400"
     overflow="visible"
     style="color:#000000;font-weight:400;line-height:normal;font-family:sans-serif;font-variant-ligatures:none;font-variant-position:normal;font-variant-caps:normal;font-variant-numeric:normal;font-variant-alternates:normal;font-feature-settings:normal;text-indent:0;text-align:start;text-decoration:none;text-decoration-line:none;text-decoration-style:solid;text-decoration-color:#000000;text-transform:none;white-space:normal;shape-padding:0;overflow:visible;isolation:auto;mix-blend-mode:normal;fill:#b3b3b3;fill-opacity:1;stroke-width:0.99983335;marker:none"
     id="path2"
     sodipodi:nodetypes="cccssccccccssccccccccccccccccsscccccssscccccsssscccc" />
</svg>
