<?xml version="1.0" encoding="UTF-8" standalone="no"?>
<svg
   xmlns:dc="http://purl.org/dc/elements/1.1/"
   xmlns:cc="http://creativecommons.org/ns#"
   xmlns:rdf="http://www.w3.org/1999/02/22-rdf-syntax-ns#"
   xmlns:svg="http://www.w3.org/2000/svg"
   xmlns="http://www.w3.org/2000/svg"
   xmlns:sodipodi="http://sodipodi.sourceforge.net/DTD/sodipodi-0.dtd"
   xmlns:inkscape="http://www.inkscape.org/namespaces/inkscape"
   viewBox="0 0 32 32"
   version="1.1"
   id="svg4"
   sodipodi:docname="printersetup.svg"
   inkscape:version="1.0.1 (3bc2e813f5, 2020-09-07)"
   inkscape:export-filename="/home/jupiter007/Libreoffice yaru theme fullcolor/build/cmd/32/printersetup.png"
   inkscape:export-xdpi="95"
   inkscape:export-ydpi="95">
  <metadata
     id="metadata10">
    <rdf:RDF>
      <cc:Work
         rdf:about="">
        <dc:format>image/svg+xml</dc:format>
        <dc:type
           rdf:resource="http://purl.org/dc/dcmitype/StillImage" />
        <dc:title />
      </cc:Work>
    </rdf:RDF>
  </metadata>
  <defs
     id="defs8" />
  <sodipodi:namedview
     pagecolor="#ffffff"
     bordercolor="#666666"
     borderopacity="1"
     objecttolerance="10"
     gridtolerance="10"
     guidetolerance="10"
     inkscape:pageopacity="0"
     inkscape:pageshadow="2"
     inkscape:window-width="1920"
     inkscape:window-height="1011"
     id="namedview6"
     showgrid="true"
     inkscape:zoom="45.254834"
     inkscape:cx="22.153898"
     inkscape:cy="25.887708"
     inkscape:window-x="1920"
     inkscape:window-y="32"
     inkscape:window-maximized="1"
     inkscape:current-layer="svg4"
     inkscape:document-rotation="0">
    <inkscape:grid
       type="xygrid"
       id="grid825" />
  </sodipodi:namedview>
  <path
     id="rect867"
     style="opacity:1;fill:#666666;fill-opacity:1;fill-rule:nonzero;stroke:none;stroke-width:2;stroke-linecap:butt;stroke-linejoin:round;stroke-miterlimit:4;stroke-dasharray:none;stroke-dashoffset:0;stroke-opacity:1"
     d="M 11,4 C 9.892116,4 9,4.8921164 9,6 v 4 H 7 c -1.107882,0 -2,0.892118 -2,2 v 9 c 0,1.107882 0.892118,2 2,2 h 2 v 3 c 0,1.107884 0.892116,2 2,2 h 9.039062 c -1.05e-4,-6.63e-4 1.05e-4,-0.0013 0,-0.002 -0.01703,-0.10805 -0.0083,-0.211588 0,-0.316406 0.0064,-0.08403 0.01995,-0.165259 0.04102,-0.246094 0.01726,-0.06529 0.03439,-0.128816 0.06055,-0.191406 0.03941,-0.09554 0.09229,-0.183787 0.150391,-0.271485 C 18,24 23,18 26.128906,20.345703 c 0.136663,0.105026 0.261552,0.231626 0.369141,0.375 0.07573,-0.101621 0.150543,-0.20452 0.230469,-0.300781 0.0792,-0.09539 0.166822,-0.179088 0.267578,-0.242188 0.0012,-7.34e-4 0.0027,-0.0012 0.0039,-0.002 V 12 c 0,-1.107882 -0.892118,-2 -2,-2 H 23 V 6 C 23,4.8921164 22.107884,4 21,4 Z"
     sodipodi:nodetypes="sscsssscssccccccccsscsscsss" />
  <path
     style="opacity:1;fill:#ffffff;fill-opacity:1;fill-rule:nonzero;stroke:none;stroke-width:2;stroke-linecap:butt;stroke-linejoin:round;stroke-miterlimit:4;stroke-dasharray:none;stroke-dashoffset:0;stroke-opacity:1"
     d="m 11,5 h 10 c 0.554,0 1,0.446 1,1 v 4 H 10 V 6 c 0,-0.554 0.446,-1 1,-1 z"
     id="rect875"
     inkscape:connector-curvature="0"
     sodipodi:nodetypes="sssccss" />
  <path
     id="rect878"
     style="opacity:1;fill:#b3b3b3;fill-opacity:1;fill-rule:nonzero;stroke:none;stroke-width:2;stroke-linecap:butt;stroke-linejoin:round;stroke-miterlimit:4;stroke-dasharray:none;stroke-dashoffset:0;stroke-opacity:1"
     d="M 7 11 C 6.446 11 6 11.446 6 12 L 6 21 C 6 21.554 6.446 22 7 22 L 22.412109 22 C 22.449992 21.442068 22.724145 20.93436 23.287109 20.701172 L 24.671875 20.128906 C 25.14633 19.932384 25.610925 20.026212 26 20.275391 L 26 12 C 26 11.446 25.554 11 25 11 L 7 11 z " />
  <path
     id="rect880"
     style="opacity:1;fill:#666666;fill-opacity:1;fill-rule:nonzero;stroke:none;stroke-width:2;stroke-linecap:butt;stroke-linejoin:round;stroke-miterlimit:4;stroke-dasharray:none;stroke-dashoffset:0;stroke-opacity:1"
     d="M 9 19 L 9 23 L 20.855469 23 C 21.203422 22.5132 21.810917 22.323479 22.416016 22.412109 C 22.329828 21.810596 22.515947 21.209623 23 20.863281 L 23 19 L 9 19 z " />
  <path
     id="path882"
     style="opacity:1;vector-effect:none;fill:#ffffff;fill-opacity:1;stroke:none;stroke-width:4;stroke-linecap:butt;stroke-linejoin:round;stroke-miterlimit:4;stroke-dasharray:none;stroke-dashoffset:0;stroke-opacity:1"
     d="M 10 20 L 10 26 C 10 27 11 27 11 27 L 20.275391 27 C 20.394019 26.814772 20.535736 26.640755 20.720703 26.501953 C 20.142424 26.071024 19.831809 25.364422 20.121094 24.666016 L 20.693359 23.285156 C 20.926321 22.722679 21.438598 22.44615 22 22.408203 L 22 20 L 10 20 z " />
  <path
     id="path884"
     style="color:#000000;font-weight:400;line-height:normal;font-family:sans-serif;font-variant-ligatures:normal;font-variant-position:normal;font-variant-caps:normal;font-variant-numeric:normal;font-variant-alternates:normal;font-feature-settings:normal;text-indent:0;text-align:start;text-decoration:none;text-decoration-line:none;text-decoration-style:solid;text-decoration-color:#000000;text-transform:none;text-orientation:mixed;white-space:normal;shape-padding:0;overflow:visible;isolation:auto;mix-blend-mode:normal;fill:#a7a7f1;fill-opacity:1;marker:none"
     d="M 11 25 L 11 26 L 20.269531 26 C 20.077942 25.70039 19.978351 25.35871 20.033203 25 L 11 25 z " />
  <path
     id="path886"
     style="color:#000000;font-weight:400;line-height:normal;font-family:sans-serif;font-variant-ligatures:normal;font-variant-position:normal;font-variant-caps:normal;font-variant-numeric:normal;font-variant-alternates:normal;font-feature-settings:normal;text-indent:0;text-align:start;text-decoration:none;text-decoration-line:none;text-decoration-style:solid;text-decoration-color:#000000;text-transform:none;text-orientation:mixed;white-space:normal;shape-padding:0;overflow:visible;isolation:auto;mix-blend-mode:normal;fill:#a7a7f1;fill-opacity:1;marker:none"
     d="M 11 23 L 11 24 L 20.396484 24 L 20.693359 23.285156 C 20.737128 23.179477 20.7936 23.086556 20.855469 23 L 11 23 z " />
  <g
     id="g915"
     transform="matrix(1.2387196,0,0,1.2387196,2.3416999,2.3417)"
     style="stroke-width:0.807285">
    <circle
       style="fill:#ffffff;fill-rule:evenodd;stroke:none;stroke-width:1.61457;stroke-linecap:round;stroke-linejoin:round"
       id="path909"
       cx="19.5"
       cy="19.5"
       r="1.5" />
    <g
       id="g1425"
       transform="translate(8.0000004,8)"
       style="stroke-width:0.807285">
      <circle
         style="fill:#ffffff;fill-opacity:1;fill-rule:evenodd;stroke:none;stroke-width:1.61457;stroke-linecap:round;stroke-linejoin:round;stroke-miterlimit:4;stroke-dasharray:none;stroke-opacity:1"
         id="path1328"
         cx="11.5"
         cy="11.5"
         r="1.5" />
      <path
         d="m 9.3111344,7.791575 c -0.13058,0.05409 -0.188804,0.19465 -0.134715,0.325232 l 0.272166,0.657066 c -0.260199,0.195351 -0.471578,0.424352 -0.66202,0.678364 L 8.1128724,9.173184 c -0.130581,-0.05409 -0.274445,0.0055 -0.328533,0.136083 l -0.461881,1.115078 c -0.05409,0.130582 0.0055,0.274445 0.136083,0.328534 l 0.673693,0.279053 c -0.04495,0.314275 -0.05741,0.62567 -0.01156,0.947793 l -0.657066,0.272166 c -0.130581,0.05409 -0.188804,0.19465 -0.134715,0.325232 l 0.462682,1.117013 c 0.05409,0.130581 0.19465,0.188803 0.325231,0.134715 l 0.657067,-0.272166 c 0.195351,0.260198 0.424352,0.471578 0.678363,0.66202 l -0.279053,0.673693 c -0.05409,0.130583 0.0055,0.274445 0.136083,0.328533 l 1.1150786,0.461881 c 0.130582,0.05409 0.274445,-0.0055 0.328533,-0.136083 l 0.279053,-0.673693 c 0.314276,0.04495 0.625672,0.05741 0.947794,0.01156 l 0.272166,0.657067 c 0.05409,0.130582 0.19465,0.188803 0.325231,0.134715 l 1.117013,-0.462682 c 0.130582,-0.05409 0.188804,-0.19465 0.134716,-0.325231 l -0.272166,-0.657067 c 0.260198,-0.19535 0.471577,-0.424351 0.662019,-0.678363 l 0.673694,0.279053 c 0.130583,0.05409 0.274445,-0.0055 0.328533,-0.136083 l 0.461881,-1.115079 c 0.05409,-0.130583 -0.0055,-0.274445 -0.136083,-0.328533 L 14.873035,11.97334 c 0.04495,-0.314276 0.05741,-0.625672 0.01156,-0.947794 l 0.657066,-0.272166 c 0.130582,-0.05409 0.188804,-0.194649 0.134716,-0.325231 L 15.213692,9.311132 C 15.159602,9.18055 15.019042,9.122328 14.88846,9.176417 L 14.231394,9.448582 C 14.036043,9.188383 13.807042,8.977005 13.553031,8.786563 l 0.279053,-0.673694 c 0.05409,-0.130582 -0.0055,-0.274445 -0.136083,-0.328533 L 12.580922,7.322455 c -0.130583,-0.05409 -0.274445,0.0055 -0.328534,0.136083 L 11.973335,8.132232 C 11.65906,8.087282 11.347664,8.074822 11.025542,8.120672 L 10.753376,7.463606 C 10.699286,7.333024 10.558726,7.274802 10.428144,7.32889 Z m 1.7560366,2.659752 c 0.580321,-0.240377 1.246395,0.03552 1.486772,0.615841 0.240377,0.580322 -0.03552,1.246395 -0.615841,1.486772 -0.580321,0.240377 -1.246395,-0.03552 -1.486772,-0.615841 -0.240377,-0.580321 0.03552,-1.246395 0.615841,-1.486772 z"
         display="block"
         fill="url(#d)"
         stroke="url(#e)"
         stroke-linejoin="round"
         stroke-width="0.484372"
         id="path42"
         style="fill:#d3d3d3;fill-opacity:1;stroke:#4d4d4d;stroke-opacity:1" />
    </g>
  </g>
</svg>
