<?xml version="1.0" encoding="UTF-8" standalone="no"?>
<svg
   xmlns:dc="http://purl.org/dc/elements/1.1/"
   xmlns:cc="http://creativecommons.org/ns#"
   xmlns:rdf="http://www.w3.org/1999/02/22-rdf-syntax-ns#"
   xmlns:svg="http://www.w3.org/2000/svg"
   xmlns="http://www.w3.org/2000/svg"
   xmlns:sodipodi="http://sodipodi.sourceforge.net/DTD/sodipodi-0.dtd"
   xmlns:inkscape="http://www.inkscape.org/namespaces/inkscape"
   viewBox="0 0 32 32"
   version="1.1"
   id="svg4"
   sodipodi:docname="printersetup.svg"
   inkscape:version="0.92.4 (5da689c313, 2019-01-14)">
  <metadata
     id="metadata10">
    <rdf:RDF>
      <cc:Work
         rdf:about="">
        <dc:format>image/svg+xml</dc:format>
        <dc:type
           rdf:resource="http://purl.org/dc/dcmitype/StillImage" />
        <dc:title></dc:title>
      </cc:Work>
    </rdf:RDF>
  </metadata>
  <defs
     id="defs8" />
  <sodipodi:namedview
     pagecolor="#ffffff"
     bordercolor="#666666"
     borderopacity="1"
     objecttolerance="10"
     gridtolerance="10"
     guidetolerance="10"
     inkscape:pageopacity="0"
     inkscape:pageshadow="2"
     inkscape:window-width="1920"
     inkscape:window-height="1011"
     id="namedview6"
     showgrid="true"
     inkscape:zoom="8"
     inkscape:cx="30.268341"
     inkscape:cy="19.804843"
     inkscape:window-x="0"
     inkscape:window-y="32"
     inkscape:window-maximized="1"
     inkscape:current-layer="svg4">
    <inkscape:grid
       type="xygrid"
       id="grid825" />
  </sodipodi:namedview>
  <path
     inkscape:connector-curvature="0"
     d="m 9,4 v 6 H 8 C 7.25,10.018 6.59,10.07 6.062,10.36 5.6729907,10.5823 5.3761633,10.936224 5.225,11.358 5.06,11.796 5,12.318 5,12.975 v 7.123 c 0,0.658 0.06,1.179 0.225,1.617 0.164,0.439 0.461,0.79 0.838,0.998 C 6.345,22.869 6.662,22.947 7,23 V 21.975 C 6.8423418,21.951212 6.6890365,21.904378 6.545,21.836 6.362,21.736 6.258,21.624 6.16,21.364 6.063,21.104 6,20.69 6,20.098 V 12.975 C 6,12.383 6.063,11.969 6.16,11.709 6.258,11.449 6.362,11.338 6.545,11.237 6.911,11.035 7.741,10.99 9,10.975 h 14 c 1.259,0.015 2.087,0.06 2.453,0.262 0.184,0.1 0.29,0.212 0.387,0.472 0.097,0.26 0.16,0.674 0.16,1.266 V 19 l 1,0.902 V 12.975 C 27,12.317 26.94,11.796 26.775,11.358 26.623586,10.936063 26.326385,10.582117 25.937,10.36 25.411,10.07 24.749,10.018 24,10 H 23 V 4 Z m 1,1 H 22 V 9.975 H 10 Z M 9,19 v 9 h 9 l -1,-1 h -7 v -8 z m 3,2 v 1 h 4 v -1 z m 0,3 v 1 h 4 v -1 z"
     font-weight="400"
     overflow="visible"
     style="color:#000000;font-weight:400;line-height:normal;font-family:sans-serif;font-variant-ligatures:normal;font-variant-position:normal;font-variant-caps:normal;font-variant-numeric:normal;font-variant-alternates:normal;font-feature-settings:normal;text-indent:0;text-align:start;text-decoration:none;text-decoration-line:none;text-decoration-style:solid;text-decoration-color:#000000;text-transform:none;text-orientation:mixed;white-space:normal;shape-padding:0;overflow:visible;isolation:auto;mix-blend-mode:normal;fill:#232629;fill-opacity:1;marker:none"
     id="path2-5"
     sodipodi:nodetypes="cccccssccccccsscscccssccscccccccccccccccccccccccccccc" />
  <circle
     style="opacity:1;fill:#232629;fill-opacity:1;fill-rule:nonzero;stroke:none;stroke-width:1;stroke-linecap:round;stroke-linejoin:round;stroke-miterlimit:4;stroke-dasharray:none;stroke-dashoffset:0;stroke-opacity:1"
     id="path829"
     cx="22.5"
     cy="13.5"
     r="0.5" />
  <g
     id="g1833"
     style="display:inline;fill:#762572;fill-opacity:1"
     transform="matrix(0.56438186,0,0,0.57296667,-259.68414,-164.41925)">
    <path
       inkscape:connector-curvature="0"
       d="m 500.18165,321.00391 c -2.48304,-0.0657 -4.92247,1.19408 -6.24805,3.49218 -1.9281,3.3427 -0.77551,7.62899 2.57032,9.5625 3.34581,1.93352 7.63439,0.79191 9.5625,-2.55078 1.9281,-3.34269 0.77551,-7.63289 -2.57032,-9.5664 -1.04556,-0.60423 -2.1858,-0.90763 -3.31445,-0.9375 z M 500.00001,322 a 6,6 0 0 1 6,6 6,6 0 0 1 -6,6 6,6 0 0 1 -6,-6 6,6 0 0 1 6,-6 z"
       id="path2760-7"
       style="color:#000000;font-style:normal;font-variant:normal;font-weight:normal;font-stretch:normal;font-size:medium;line-height:normal;font-family:sans-serif;font-variant-ligatures:none;font-variant-position:normal;font-variant-caps:normal;font-variant-numeric:normal;font-variant-alternates:normal;font-feature-settings:normal;text-indent:0;text-align:start;text-decoration:none;text-decoration-line:none;text-decoration-style:solid;text-decoration-color:#000000;letter-spacing:normal;word-spacing:normal;text-transform:none;writing-mode:lr-tb;direction:ltr;baseline-shift:baseline;text-anchor:start;white-space:normal;shape-padding:0;clip-rule:nonzero;display:inline;overflow:visible;visibility:visible;opacity:1;isolation:auto;mix-blend-mode:normal;color-interpolation:sRGB;color-interpolation-filters:linearRGB;solid-color:#000000;solid-opacity:1;fill:#762572;fill-opacity:1;fill-rule:nonzero;stroke:none;stroke-width:0.66666687;stroke-linecap:butt;stroke-linejoin:miter;stroke-miterlimit:4;stroke-dasharray:none;stroke-dashoffset:0;stroke-opacity:1;marker:none;color-rendering:auto;image-rendering:auto;shape-rendering:auto;text-rendering:auto;enable-background:accumulate" />
    <path
       d="m 498.69016,320.122 v 1.54513 c 0.86819,-0.1783 1.76406,-0.1766 2.63222,0.005 V 320.122 Z m -2.75363,0.98912 -2.00544,1.70491 0.98801,1.17757 c 0.54939,-0.69591 1.23601,-1.27137 2.01736,-1.69076 z m 8.12867,0.0127 -0.99285,1.18353 c 0.0573,0.0293 0.11416,0.0595 0.17056,0.0905 0.71061,0.41285 1.33657,0.95679 1.84457,1.60287 l 1.00514,-1.19769 z m -11.60999,4.21684 -0.44056,2.59535 1.51535,0.26739 c -0.0273,-0.8866 0.12755,-1.76904 0.45509,-2.59274 z m 15.08573,0.003 -1.5228,0.26851 c 0.32999,0.82318 0.48779,1.70497 0.46365,2.59088 l 1.53286,-0.27 z m -13.68247,4.69464 -1.35149,0.78058 h -3.4e-4 l 1.33101,2.27098 1.33808,-0.77238 c -0.59006,-0.66203 -1.03836,-1.43772 -1.31723,-2.27918 z m 12.30081,0.003 c -0.13616,0.42225 -0.31536,0.82932 -0.53478,1.21481 -0.22083,0.38188 -0.48014,0.74014 -0.77388,1.0692 l 1.33883,0.77313 1.30158,-2.28811 z m -9.55687,3.47164 -0.53479,1.4688 2.47953,0.88448 0.52585,-1.44534 c -0.81119,-0.11877 -1.59279,-0.39022 -2.30338,-0.79995 -0.0563,-0.0351 -0.11203,-0.0711 -0.16721,-0.10799 z m 6.8133,0.0153 c -0.75448,0.46543 -1.59675,0.77091 -2.47468,0.89752 l 0.53031,1.45651 2.46761,-0.91651 z"
       id="path2762-5"
       style="color:#000000;display:inline;overflow:visible;visibility:visible;fill:#762572;fill-opacity:1;fill-rule:nonzero;stroke:none;stroke-width:0.33333337;marker:none;enable-background:accumulate"
       inkscape:connector-curvature="0"
       sodipodi:nodetypes="cccccccccccccccccccccccccccccccccccccccccccccccccc" />
    <path
       inkscape:connector-curvature="0"
       d="m 499.64845,323.01367 c -1.60235,0.11249 -3.12186,0.99052 -3.98242,2.48242 -1.37689,2.38706 -0.55308,5.45342 1.83593,6.83399 2.38903,1.38058 5.45319,0.56088 6.83008,-1.82617 1.37689,-2.38706 0.55308,-5.45145 -1.83594,-6.83203 -0.89588,-0.51773 -1.88625,-0.72569 -2.84765,-0.65821 z M 500.00001,324 a 4,4 0 0 1 4,4 4,4 0 0 1 -4,4 4,4 0 0 1 -4,-4 4,4 0 0 1 4,-4 z"
       id="path2764-3"
       style="color:#000000;font-style:normal;font-variant:normal;font-weight:normal;font-stretch:normal;font-size:medium;line-height:normal;font-family:sans-serif;font-variant-ligatures:none;font-variant-position:normal;font-variant-caps:normal;font-variant-numeric:normal;font-variant-alternates:normal;font-feature-settings:normal;text-indent:0;text-align:start;text-decoration:none;text-decoration-line:none;text-decoration-style:solid;text-decoration-color:#000000;letter-spacing:normal;word-spacing:normal;text-transform:none;writing-mode:lr-tb;direction:ltr;baseline-shift:baseline;text-anchor:start;white-space:normal;shape-padding:0;clip-rule:nonzero;display:inline;overflow:visible;visibility:visible;opacity:1;isolation:auto;mix-blend-mode:normal;color-interpolation:sRGB;color-interpolation-filters:linearRGB;solid-color:#000000;solid-opacity:1;fill:#762572;fill-opacity:1;fill-rule:nonzero;stroke:none;stroke-width:0.66666681;stroke-linecap:butt;stroke-linejoin:miter;stroke-miterlimit:4;stroke-dasharray:none;stroke-dashoffset:0;stroke-opacity:1;marker:none;color-rendering:auto;image-rendering:auto;shape-rendering:auto;text-rendering:auto;enable-background:accumulate" />
  </g>
</svg>
