<?xml version="1.0" encoding="UTF-8" standalone="no"?>
<svg
   xmlns:dc="http://purl.org/dc/elements/1.1/"
   xmlns:cc="http://creativecommons.org/ns#"
   xmlns:rdf="http://www.w3.org/1999/02/22-rdf-syntax-ns#"
   xmlns:svg="http://www.w3.org/2000/svg"
   xmlns="http://www.w3.org/2000/svg"
   xmlns:sodipodi="http://sodipodi.sourceforge.net/DTD/sodipodi-0.dtd"
   xmlns:inkscape="http://www.inkscape.org/namespaces/inkscape"
   viewBox="0 0 32 32"
   version="1.1"
   id="svg6"
   sodipodi:docname="renamepage.svg"
   inkscape:version="1.0.1 (3bc2e813f5, 2020-09-07)"
   inkscape:export-filename="/home/jupiter007/Libreoffice yaru theme fullcolor/build/cmd/32/renamepage.png"
   inkscape:export-xdpi="95"
   inkscape:export-ydpi="95">
  <metadata
     id="metadata12">
    <rdf:RDF>
      <cc:Work
         rdf:about="">
        <dc:format>image/svg+xml</dc:format>
        <dc:type
           rdf:resource="http://purl.org/dc/dcmitype/StillImage" />
      </cc:Work>
    </rdf:RDF>
  </metadata>
  <defs
     id="defs10" />
  <sodipodi:namedview
     pagecolor="#ffffff"
     bordercolor="#666666"
     borderopacity="1"
     objecttolerance="10"
     gridtolerance="10"
     guidetolerance="10"
     inkscape:pageopacity="0"
     inkscape:pageshadow="2"
     inkscape:window-width="1920"
     inkscape:window-height="1011"
     id="namedview8"
     showgrid="true"
     inkscape:zoom="20.859649"
     inkscape:cx="26.307415"
     inkscape:cy="21.760352"
     inkscape:window-x="0"
     inkscape:window-y="0"
     inkscape:window-maximized="1"
     inkscape:current-layer="svg6"
     inkscape:document-rotation="0">
    <inkscape:grid
       type="xygrid"
       id="grid828" />
  </sodipodi:namedview>
  <path
     sodipodi:nodetypes="cccscsccccccccscscccccc"
     inkscape:connector-curvature="0"
     id="path4237-1"
     d="m 23.00627,4.99971 c 1.2582,0.0145 2.17889,-0.0306 2.93164,0.38476 0.37637,0.20766 0.67323,0.55939 0.83789,0.99805 0.16467,0.43867 0.22461,0.95959 0.22461,1.61719 v 1.48828 14.5123 c 0,0.65761 -0.0599,1.17858 -0.22461,1.61719 -0.16468,0.43861 -0.46153,0.78852 -0.83789,0.99609 -0.75272,0.41513 -1.67355,0.37165 -2.93164,0.38672 h -0.002 -14.00663 -0.004 C 7.73545,26.98579 6.81475,27.03089 6.062,26.61552 5.68563,26.40786 5.38878,26.05614 5.22411,25.61748 5.05967,25.17881 5.07856,24.65314 4.99959,24.00029 V 9.46651 7.99971 c 0,-0.6576 0.0599,-1.17858 0.22461,-1.61719 C 5.38888,5.94392 5.68573,5.59399 6.06209,5.38643 6.81486,4.9713 7.73569,5.01479 8.99378,4.99971 h 0.002 14.00663 z"
     style="font-style:normal;font-variant:normal;font-weight:normal;font-stretch:normal;font-size:15px;line-height:125%;font-family:Ubuntu;-inkscape-font-specification:Ubuntu;text-align:center;letter-spacing:0px;word-spacing:0px;writing-mode:lr-tb;text-anchor:middle;display:inline;opacity:0.6;fill:#000000;fill-opacity:1;stroke:none;stroke-width:0.99980211" />
  <path
     inkscape:connector-curvature="0"
     id="path1993"
     d="m 18.01704,6.02689 c 1.55658,0.0108 5.10999,-0.0118 6.65994,0.0388 0.46123,0.0427 1.01619,0.20642 1.15534,0.70997 0.21899,0.63535 0.10841,1.33379 0.14579,1.98192 0.008,2.29709 0.023,13.59643 -0.0215,15.88578 -0.0391,0.46193 -0.20255,1.01267 -0.69875,1.16367 -0.63246,0.22508 -1.28415,0.12274 -1.93598,0.1543 -1.42423,0.007 -8.85132,0.011 -10.27718,0.0113 -1.70453,3.5e-4 -3.40839,-0.005 -5.10719,-0.0185 -0.51191,-0.012 -1.1837,0.0199 -1.58475,-0.40519 C 5.93167,25.00915 6.06569,24.28092 6.03002,23.64515 6.01812,21.20083 6.00232,9.73406 6.05192,7.28836 6.10122,6.88631 6.22191,6.4254 6.62706,6.24388 7.29523,5.94978 8.05326,6.07586 8.75298,6.03831 c 1.75441,-0.0118 7.50964,-0.0125 9.26408,-0.0114 z"
     style="opacity:1;vector-effect:none;fill:#ffffff;fill-opacity:1;stroke:none;stroke-width:1;stroke-linecap:round;stroke-linejoin:bevel;stroke-miterlimit:4;stroke-dasharray:none;stroke-dashoffset:0;stroke-opacity:1"
     sodipodi:nodetypes="cccccccsccccccc" />
  <g
     id="g12435"
     style="display:inline"
     transform="translate(-104.00019,185.02538)">
    <path
       sodipodi:nodetypes="cccccccccscsccccccccscsc"
       inkscape:connector-curvature="0"
       id="path3543"
       d="m 127,-173 v 1 2 h 1.99219 c 0.002,0.008 0.008,0.0254 0.008,0.0254 v 10.94922 c 0,0 -0.006,0.0171 -0.008,0.0254 H 127 v 3 h 2 c 0.59893,0 1.08626,-0.20045 1.5,-0.46094 0.41374,0.26049 0.90107,0.46094 1.5,0.46094 h 2 v -3 h -1.99219 c -0.002,-0.008 -0.008,-0.0254 -0.008,-0.0254 v -10.94922 c 0,0 0.006,-0.0171 0.008,-0.0254 H 134 v -3 h -2 c -0.59893,0 -1.08626,0.20045 -1.5,0.46094 C 130.08626,-172.79955 129.59893,-173 129,-173 Z"
       style="color:#000000;font-style:normal;font-variant:normal;font-weight:normal;font-stretch:normal;font-size:medium;line-height:normal;font-family:sans-serif;font-variant-ligatures:normal;font-variant-position:normal;font-variant-caps:normal;font-variant-numeric:normal;font-variant-alternates:normal;font-feature-settings:normal;text-indent:0;text-align:start;text-decoration:none;text-decoration-line:none;text-decoration-style:solid;text-decoration-color:#000000;letter-spacing:normal;word-spacing:normal;text-transform:none;writing-mode:lr-tb;direction:ltr;text-orientation:mixed;dominant-baseline:auto;baseline-shift:baseline;text-anchor:start;white-space:normal;shape-padding:0;clip-rule:nonzero;display:inline;overflow:visible;visibility:visible;opacity:1;isolation:auto;mix-blend-mode:normal;color-interpolation:sRGB;color-interpolation-filters:linearRGB;solid-color:#000000;solid-opacity:1;vector-effect:none;fill:#ffffff;fill-opacity:1;fill-rule:evenodd;stroke:none;stroke-width:2;stroke-linecap:butt;stroke-linejoin:miter;stroke-miterlimit:4;stroke-dasharray:none;stroke-dashoffset:0;stroke-opacity:1;color-rendering:auto;image-rendering:auto;shape-rendering:auto;text-rendering:auto;enable-background:accumulate" />
    <path
       sodipodi:nodetypes="ccsccccsccscsccsccccsccscsc"
       inkscape:connector-curvature="0"
       style="color:#000000;font-style:normal;font-variant:normal;font-weight:normal;font-stretch:normal;font-size:medium;line-height:normal;font-family:sans-serif;font-variant-ligatures:normal;font-variant-position:normal;font-variant-caps:normal;font-variant-numeric:normal;font-variant-alternates:normal;font-feature-settings:normal;text-indent:0;text-align:start;text-decoration:none;text-decoration-line:none;text-decoration-style:solid;text-decoration-color:#000000;letter-spacing:normal;word-spacing:normal;text-transform:none;writing-mode:lr-tb;direction:ltr;text-orientation:mixed;dominant-baseline:auto;baseline-shift:baseline;text-anchor:start;white-space:normal;shape-padding:0;clip-rule:nonzero;display:inline;overflow:visible;visibility:visible;opacity:1;isolation:auto;mix-blend-mode:normal;color-interpolation:sRGB;color-interpolation-filters:linearRGB;solid-color:#000000;solid-opacity:1;vector-effect:none;fill:#111111;fill-opacity:1;fill-rule:evenodd;stroke:none;stroke-width:1px;stroke-linecap:butt;stroke-linejoin:miter;stroke-miterlimit:4;stroke-dasharray:none;stroke-dashoffset:0;stroke-opacity:1;color-rendering:auto;image-rendering:auto;shape-rendering:auto;text-rendering:auto;enable-background:accumulate"
       d="m 128,-172 v 1 h 1 c 0.58333,0 0.73736,0.21691 0.86523,0.47266 C 129.99311,-170.2716 130,-170 130,-170 v 11 c 0,0 -0.007,0.2716 -0.13477,0.52734 C 129.73736,-158.21691 129.46199,-158 129,-158 h -1 v 1 h 1 c 0.72726,0 1.19053,-0.35304 1.5,-0.73828 0.30947,0.38524 0.77274,0.73828 1.5,0.73828 h 1 v -1 h -1 c -0.58333,0 -0.73736,-0.21691 -0.86523,-0.47266 C 131.00689,-158.7284 131,-159 131,-159 v -11 c 0,0 0.007,-0.2716 0.13477,-0.52734 C 131.26264,-170.78309 131.41667,-171 132,-171 h 1 v -1 h -1 c -0.72726,0 -1.19053,0.35304 -1.5,0.73828 C 130.19053,-171.64696 129.72726,-172 129,-172 Z"
       id="path7092" />
  </g>
</svg>
