<?xml version="1.0" encoding="UTF-8" standalone="no"?>
<svg
   xmlns:dc="http://purl.org/dc/elements/1.1/"
   xmlns:cc="http://creativecommons.org/ns#"
   xmlns:rdf="http://www.w3.org/1999/02/22-rdf-syntax-ns#"
   xmlns:svg="http://www.w3.org/2000/svg"
   xmlns="http://www.w3.org/2000/svg"
   xmlns:sodipodi="http://sodipodi.sourceforge.net/DTD/sodipodi-0.dtd"
   xmlns:inkscape="http://www.inkscape.org/namespaces/inkscape"
   viewBox="0 0 32 32"
   version="1.1"
   id="svg6"
   sodipodi:docname="searchdialog.svg"
   inkscape:version="0.92.4 (5da689c313, 2019-01-14)"
   inkscape:export-filename="/home/jupiter007/Libreoffice yaru theme fullcolor/build/cmd/32/searchdialog.png"
   inkscape:export-xdpi="95"
   inkscape:export-ydpi="95">
  <metadata
     id="metadata12">
    <rdf:RDF>
      <cc:Work
         rdf:about="">
        <dc:format>image/svg+xml</dc:format>
        <dc:type
           rdf:resource="http://purl.org/dc/dcmitype/StillImage" />
      </cc:Work>
    </rdf:RDF>
  </metadata>
  <defs
     id="defs10" />
  <sodipodi:namedview
     pagecolor="#ffffff"
     bordercolor="#666666"
     borderopacity="1"
     objecttolerance="10"
     gridtolerance="10"
     guidetolerance="10"
     inkscape:pageopacity="0"
     inkscape:pageshadow="2"
     inkscape:window-width="1920"
     inkscape:window-height="1011"
     id="namedview8"
     showgrid="true"
     inkscape:zoom="4"
     inkscape:cx="-50.584669"
     inkscape:cy="13.638681"
     inkscape:window-x="1920"
     inkscape:window-y="32"
     inkscape:window-maximized="1"
     inkscape:current-layer="svg6">
    <inkscape:grid
       type="xygrid"
       id="grid822" />
  </sodipodi:namedview>
  <path
     style="opacity:0.7;fill:#090900;fill-opacity:1;fill-rule:nonzero;stroke:none;stroke-width:1.10000002;stroke-linecap:butt;stroke-linejoin:bevel;stroke-miterlimit:4;stroke-dasharray:none;stroke-dashoffset:0;stroke-opacity:1"
     d="m 6.5147187,6.3621042 a 12,12 0 0 0 0,16.9705628 12,12 0 0 0 15.8353253,0.986082 l 4.437371,4.437371 c 0.325172,0.325173 0.848735,0.325173 1.173908,0 l 0.947412,-0.947412 c 0.325173,-0.325173 0.325173,-0.848736 0,-1.173908 l -4.438752,-4.438752 a 12,12 0 0 0 -0.984701,-15.8339437 12,12 0 0 0 -16.9705633,-1e-7 z"
     id="path838"
     inkscape:connector-curvature="0" />
  <path
     style="opacity:1;fill:#c8c4b7;fill-opacity:1;fill-rule:nonzero;stroke:none;stroke-width:1.18786657;stroke-linecap:butt;stroke-linejoin:bevel;stroke-miterlimit:4;stroke-dasharray:none;stroke-dashoffset:0;stroke-opacity:1"
     d="m 7.2218257,7.0692113 a 11,11 0 0 0 0,15.5563487 11,11 0 0 0 15.1848413,0.335599 l 4.967702,4.967702 0.707107,-0.707107 -4.962177,-4.962177 a 11,11 0 0 0 -0.341124,-15.1903657 11,11 0 0 0 -15.5563493,0 z"
     id="circle843"
     inkscape:connector-curvature="0" />
  <circle
     style="opacity:1;fill:#fffffe;fill-opacity:1;fill-rule:nonzero;stroke:none;stroke-width:1.07987869;stroke-linecap:butt;stroke-linejoin:bevel;stroke-miterlimit:4;stroke-dasharray:none;stroke-dashoffset:0;stroke-opacity:1"
     id="path826"
     cx="0.10791372"
     cy="21.105286"
     r="10"
     transform="rotate(-45)" />
  <path
     style="opacity:1;vector-effect:none;fill:#4d4d4d;fill-opacity:1;stroke:none;stroke-width:3.18430686;stroke-linecap:round;stroke-linejoin:round;stroke-miterlimit:4;stroke-dasharray:none;stroke-dashoffset:0;stroke-opacity:1"
     d="M 14.203923,9.0000002 9.9999997,20 h 2.0395893 l 0.939122,-2.243155 h 3.936848 L 17.820474,20 H 20 L 15.796076,9.0000002 Z M 14.984451,12.65387 16.4,16 h -2.8 z"
     id="rect1528"
     inkscape:connector-curvature="0"
     sodipodi:nodetypes="ccccccccccccc" />
</svg>
