<?xml version="1.0" encoding="UTF-8" standalone="no"?>
<svg
   viewBox="0 0 32 32"
   version="1.1"
   id="svg4"
   sodipodi:docname="showbookview.svg"
   inkscape:version="1.1 (ce6663b3b7, 2021-05-25)"
   inkscape:export-filename="/home/jupiter007/Libreoffice yaru theme fullcolor/build/cmd/32/showbookview.png"
   inkscape:export-xdpi="95"
   inkscape:export-ydpi="95"
   xmlns:inkscape="http://www.inkscape.org/namespaces/inkscape"
   xmlns:sodipodi="http://sodipodi.sourceforge.net/DTD/sodipodi-0.dtd"
   xmlns="http://www.w3.org/2000/svg"
   xmlns:svg="http://www.w3.org/2000/svg"
   xmlns:rdf="http://www.w3.org/1999/02/22-rdf-syntax-ns#"
   xmlns:cc="http://creativecommons.org/ns#"
   xmlns:dc="http://purl.org/dc/elements/1.1/">
  <metadata
     id="metadata10">
    <rdf:RDF>
      <cc:Work
         rdf:about="">
        <dc:format>image/svg+xml</dc:format>
        <dc:type
           rdf:resource="http://purl.org/dc/dcmitype/StillImage" />
      </cc:Work>
    </rdf:RDF>
  </metadata>
  <defs
     id="defs8" />
  <sodipodi:namedview
     pagecolor="#ffffff"
     bordercolor="#666666"
     borderopacity="1"
     objecttolerance="10"
     gridtolerance="10"
     guidetolerance="10"
     inkscape:pageopacity="0"
     inkscape:pageshadow="2"
     inkscape:window-width="1920"
     inkscape:window-height="1016"
     id="namedview6"
     showgrid="true"
     inkscape:zoom="20.85965"
     inkscape:cx="10.570647"
     inkscape:cy="13.974348"
     inkscape:window-x="0"
     inkscape:window-y="27"
     inkscape:window-maximized="1"
     inkscape:current-layer="svg4"
     inkscape:pagecheckerboard="0">
    <inkscape:grid
       type="xygrid"
       id="grid825" />
  </sodipodi:namedview>
  <path
     style="opacity:0.7;fill:#000000;fill-opacity:1;stroke:#000000;stroke-width:2;stroke-linecap:round;stroke-linejoin:round;stroke-miterlimit:4;stroke-dasharray:none;stroke-opacity:1"
     d="m 4,9.0047587 c 0,-2 1,-2 3,-2 h 6 c 1,0 2,1 3,2 1,-1 2,-2 3,-2 h 6 c 2,0 3,0 3,2 v 13.9999993 c 0,2 -1,2 -3,2 h -6 c -1,0 -2,1 -3,2 -1,-1 -2,-2 -3,-2 h -6 c -2,0 -3,0 -3,-2 z"
     id="path840"
     inkscape:connector-curvature="0"
     sodipodi:nodetypes="ccccccccccccccc" />
  <path
     style="fill:#ffffff;fill-opacity:1;stroke:none;stroke-width:2;stroke-linecap:round;stroke-linejoin:round;stroke-miterlimit:4;stroke-dasharray:none;stroke-opacity:1"
     d="m 4,9.0047587 c 0,-2 1,-2 3,-2 h 6 c 1,0 2,1 3,2 1,-1 2,-2 3,-2 h 6 c 2,0 3,0 3,2 v 13.9999993 c 0,2 -1,2 -3,2 h -6 c -1,0 -2,1 -3,2 -1,-1 -2,-2 -3,-2 h -6 c -2,0 -3,0 -3,-2 z"
     id="rect824"
     inkscape:connector-curvature="0"
     sodipodi:nodetypes="ccccccccccccccc" />
  <rect
     style="fill:#fa9381;fill-opacity:1;stroke:none;stroke-width:2.23607;stroke-linecap:round;stroke-linejoin:round;stroke-miterlimit:4;stroke-dasharray:none;stroke-opacity:1"
     id="rect842"
     width="5"
     height="1"
     x="7"
     y="10.999999" />
  <rect
     style="fill:#fa9381;fill-opacity:1;stroke:none;stroke-width:2.23607;stroke-linecap:round;stroke-linejoin:round;stroke-miterlimit:4;stroke-dasharray:none;stroke-opacity:1"
     id="rect844"
     width="5"
     height="1"
     x="7"
     y="12.999999" />
  <rect
     style="fill:#fa9381;fill-opacity:1;stroke:none;stroke-width:2.23607;stroke-linecap:round;stroke-linejoin:round;stroke-miterlimit:4;stroke-dasharray:none;stroke-opacity:1"
     id="rect846"
     width="5"
     height="1"
     x="7"
     y="14.999999" />
  <rect
     style="fill:#fa9381;fill-opacity:1;stroke:none;stroke-width:2.23607;stroke-linecap:round;stroke-linejoin:round;stroke-miterlimit:4;stroke-dasharray:none;stroke-opacity:1"
     id="rect848"
     width="5"
     height="1"
     x="7"
     y="17" />
  <rect
     y="19"
     x="7"
     height="1"
     width="5"
     id="rect849"
     style="fill:#fa9381;fill-opacity:1;stroke:none;stroke-width:2.23607;stroke-linecap:round;stroke-linejoin:round;stroke-miterlimit:4;stroke-dasharray:none;stroke-opacity:1" />
  <rect
     style="fill:#fa9381;fill-opacity:1;stroke:none;stroke-width:2.23607;stroke-linecap:round;stroke-linejoin:round;stroke-miterlimit:4;stroke-dasharray:none;stroke-opacity:1"
     id="rect119"
     width="5"
     height="1"
     x="20"
     y="10.999999" />
  <rect
     style="fill:#fa9381;fill-opacity:1;stroke:none;stroke-width:2.23607;stroke-linecap:round;stroke-linejoin:round;stroke-miterlimit:4;stroke-dasharray:none;stroke-opacity:1"
     id="rect121"
     width="5"
     height="1"
     x="20"
     y="12.999999" />
  <rect
     style="fill:#fa9381;fill-opacity:1;stroke:none;stroke-width:2.23607;stroke-linecap:round;stroke-linejoin:round;stroke-miterlimit:4;stroke-dasharray:none;stroke-opacity:1"
     id="rect123"
     width="5"
     height="1"
     x="20"
     y="14.999999" />
  <rect
     style="fill:#fa9381;fill-opacity:1;stroke:none;stroke-width:2.23607;stroke-linecap:round;stroke-linejoin:round;stroke-miterlimit:4;stroke-dasharray:none;stroke-opacity:1"
     id="rect125"
     width="5"
     height="1"
     x="20"
     y="17" />
  <rect
     y="19"
     x="20"
     height="1"
     width="5"
     id="rect127"
     style="fill:#fa9381;fill-opacity:1;stroke:none;stroke-width:2.23607;stroke-linecap:round;stroke-linejoin:round;stroke-miterlimit:4;stroke-dasharray:none;stroke-opacity:1" />
</svg>
