<?xml version="1.0" encoding="UTF-8" standalone="no"?>
<svg
   xmlns:dc="http://purl.org/dc/elements/1.1/"
   xmlns:cc="http://creativecommons.org/ns#"
   xmlns:rdf="http://www.w3.org/1999/02/22-rdf-syntax-ns#"
   xmlns:svg="http://www.w3.org/2000/svg"
   xmlns="http://www.w3.org/2000/svg"
   xmlns:sodipodi="http://sodipodi.sourceforge.net/DTD/sodipodi-0.dtd"
   xmlns:inkscape="http://www.inkscape.org/namespaces/inkscape"
   viewBox="0 0 32 32"
   version="1.1"
   id="svg4"
   sodipodi:docname="signpdf.svg"
   inkscape:version="0.92.4 (5da689c313, 2019-01-14)"
   inkscape:export-filename="/home/jupiter007/Libreoffice yaru theme/build/cmd/32/signpdf.png"
   inkscape:export-xdpi="95"
   inkscape:export-ydpi="95">
  <metadata
     id="metadata10">
    <rdf:RDF>
      <cc:Work
         rdf:about="">
        <dc:format>image/svg+xml</dc:format>
        <dc:type
           rdf:resource="http://purl.org/dc/dcmitype/StillImage" />
        <dc:title></dc:title>
      </cc:Work>
    </rdf:RDF>
  </metadata>
  <defs
     id="defs8" />
  <sodipodi:namedview
     pagecolor="#ffffff"
     bordercolor="#666666"
     borderopacity="1"
     objecttolerance="10"
     gridtolerance="10"
     guidetolerance="10"
     inkscape:pageopacity="0"
     inkscape:pageshadow="2"
     inkscape:window-width="1920"
     inkscape:window-height="1011"
     id="namedview6"
     showgrid="true"
     inkscape:zoom="11.313708"
     inkscape:cx="-18.775735"
     inkscape:cy="16.781637"
     inkscape:window-x="0"
     inkscape:window-y="32"
     inkscape:window-maximized="1"
     inkscape:current-layer="svg4">
    <inkscape:grid
       type="xygrid"
       id="grid841" />
  </sodipodi:namedview>
  <g
     id="g1833"
     style="display:inline"
     transform="translate(-503.99618,-231)">
    <path
       d="m 529.99715,250 -0.003,-12 c -1.5e-4,-0.65761 -0.0599,-1.17858 -0.22466,-1.61719 -0.1647,-0.43861 -0.46159,-0.78852 -0.838,-0.99609 -0.75285,-0.41513 -1.67381,-0.37165 -2.93209,-0.38672 h -0.002 -12.00811 -0.004 c -1.25839,0.0145 -2.17922,-0.0306 -2.93209,0.38477 -0.37643,0.20766 -0.67334,0.55938 -0.83803,0.99804 -0.16468,0.43867 -0.22477,0.95958 -0.22464,1.61719 l 0.004,18 c 1.4e-4,0.65761 0.0599,1.17858 0.22465,1.61719 0.16471,0.43861 0.4616,0.78852 0.83801,0.99609 0.75285,0.41514 1.6738,0.37165 2.93209,0.38672 h 0.002 8.0044 v -1 h -7.99484 -0.006 c -1.25882,-0.0152 -2.08942,-0.0599 -2.45546,-0.26172 -0.18345,-0.10116 -0.28727,-0.21286 -0.38482,-0.47266 -0.0976,-0.25979 -0.16005,-0.67323 -0.16018,-1.26562 l -0.004,-18 c -1.3e-4,-0.59239 0.0626,-1.00572 0.1602,-1.26562 0.0976,-0.25991 0.20334,-0.37147 0.38678,-0.47266 0.366,-0.20191 1.19478,-0.24702 2.45348,-0.26172 h 4.5e-4 12.00225 c 1.25881,0.0152 2.08942,0.0599 2.45546,0.26172 0.18345,0.10116 0.28727,0.21286 0.38482,0.47266 0.0974,0.25979 0.15991,0.67323 0.16005,1.26562 l 0.003,12"
       id="path2732-8-9"
       style="color:#000000;font-style:normal;font-variant:normal;font-weight:normal;font-stretch:normal;font-size:medium;line-height:normal;font-family:sans-serif;font-variant-ligatures:normal;font-variant-position:normal;font-variant-caps:normal;font-variant-numeric:normal;font-variant-alternates:normal;font-feature-settings:normal;text-indent:0;text-align:start;text-decoration:none;text-decoration-line:none;text-decoration-style:solid;text-decoration-color:#000000;letter-spacing:normal;word-spacing:normal;text-transform:none;writing-mode:lr-tb;direction:ltr;text-orientation:mixed;dominant-baseline:auto;baseline-shift:baseline;text-anchor:start;white-space:normal;shape-padding:0;clip-rule:nonzero;display:inline;overflow:visible;visibility:visible;opacity:1;isolation:auto;mix-blend-mode:normal;color-interpolation:sRGB;color-interpolation-filters:linearRGB;solid-color:#000000;solid-opacity:1;vector-effect:none;fill:#232629;fill-opacity:1;fill-rule:nonzero;stroke:none;stroke-width:1.00007653;stroke-linecap:butt;stroke-linejoin:miter;stroke-miterlimit:4;stroke-dasharray:none;stroke-dashoffset:0;stroke-opacity:1;marker:none;color-rendering:auto;image-rendering:auto;shape-rendering:auto;text-rendering:auto;enable-background:accumulate"
       inkscape:connector-curvature="0"
       sodipodi:nodetypes="csccccccccsscsccccccccsscccccccsc" />
  </g>
  <path
     style="color:#000000;overflow:visible;fill:#232629;fill-opacity:1;stroke-width:1.57501161;marker:none"
     d="m 15.146587,8.0010817 c -0.322882,0 -0.624243,0.162555 -0.69727,0.4293 -0.271267,1.02314 0.0323,2.6034163 0.538676,4.5746433 l -0.153126,0.382814 c -0.38768,0.966636 -0.872648,1.929057 -1.29884,2.783615 -1.759311,3.521502 -3.128907,5.423246 -4.0414336,5.556292 l -0.00279,-0.03827 c -0.019767,-0.439222 0.7714766,-1.574083 1.8457156,-2.474628 0.111921,-0.09282 0.590629,-0.56602 0.590629,-0.56602 0,0 -0.645371,0.350568 -0.79024,0.440238 -1.3458819,0.822139 -2.0154042,1.643626 -2.1246239,2.19025 -0.032382,0.162388 -0.011403,0.363805 0.1285196,0.445706 l 0.3445335,0.175001 c 0.9367568,0.479752 2.0887108,-0.778739 3.6203408,-3.524636 1.558596,-0.522968 3.501402,-1.015682 5.271912,-1.282429 1.584692,0.926301 3.40326,1.36639 4.101593,1.175787 0.132833,-0.03593 0.273118,-0.142217 0.344533,-0.240625 0.05595,-0.09057 0.133974,-0.453913 0.133974,-0.453913 0,0 -0.129783,0.184007 -0.237893,0.237892 -0.44219,0.213513 -1.838131,-0.141797 -3.270337,-0.858602 1.23823,-0.134833 2.27054,-0.142028 2.821896,0.03828 0.700132,0.228594 0.698447,0.46359 0.689067,0.511331 0.0095,-0.03945 0.04205,-0.195623 0.03827,-0.262502 -0.016,-0.171893 -0.06719,-0.324222 -0.194142,-0.451176 -0.259223,-0.26121 -0.899774,-0.395664 -1.771887,-0.407424 -0.657342,-0.0073 -1.44659,0.05263 -2.30236,0.177736 -0.39187,-0.230349 -0.804206,-0.482281 -1.132041,-0.795709 -0.831466,-0.794197 -1.528011,-1.897235 -1.960559,-3.133616 0.02964,-0.118385 0.05624,-0.235783 0.08203,-0.352738 0.12037,-0.553404 0.207813,-2.3816583 0.207813,-2.3816583 0,0 -0.342693,1.3732013 -0.396484,1.5804803 -0.03462,0.131517 -0.07904,0.272267 -0.128521,0.418362 -0.262314,-0.943605 -0.393754,-1.85769 -0.393754,-2.5511893 0,-0.19629 0.01657,-0.578814 0.07109,-0.880477 0.02639,-0.21515 0.101497,-0.326067 0.180535,-0.380079 0.156566,0.0389 0.331255,0.283833 0.514066,0.694536 0.157095,0.354931 0.147658,0.76538 0.147658,1.019929 0,0 0.167526,-0.628323 0.128522,-1.000789 -0.02362,-0.223647 -0.23062,-0.799892 -0.672656,-0.792976 h -0.03555 z m 0.150392,5.7148853 c 0.457351,0.940994 1.089231,1.83443 1.916812,2.551191 0.18449,0.159695 0.380453,0.311243 0.582425,0.453912 -1.502829,0.285801 -3.083202,0.68655 -4.550034,1.315243 0.265169,-0.481972 0.553811,-1.006129 0.847663,-1.572278 0.568813,-1.100376 0.913091,-1.948691 1.203134,-2.748068 z"
     id="path2-4"
     inkscape:connector-curvature="0"
     sodipodi:nodetypes="ccccccccccccccccccccccccccccccccscccccccccccccc" />
  <path
     inkscape:connector-curvature="0"
     id="path850"
     style="color:#000000;font-style:normal;font-variant:normal;font-weight:normal;font-stretch:normal;font-size:medium;line-height:normal;font-family:sans-serif;font-variant-ligatures:normal;font-variant-position:normal;font-variant-caps:normal;font-variant-numeric:normal;font-variant-alternates:normal;font-feature-settings:normal;text-indent:0;text-align:start;text-decoration:none;text-decoration-line:none;text-decoration-style:solid;text-decoration-color:#000000;letter-spacing:normal;word-spacing:normal;text-transform:none;writing-mode:lr-tb;direction:ltr;text-orientation:mixed;dominant-baseline:auto;baseline-shift:baseline;text-anchor:start;white-space:normal;shape-padding:0;clip-rule:nonzero;display:inline;overflow:visible;visibility:visible;opacity:1;isolation:auto;mix-blend-mode:normal;color-interpolation:sRGB;color-interpolation-filters:linearRGB;solid-color:#000000;solid-opacity:1;vector-effect:none;fill:#232629;fill-opacity:1;fill-rule:nonzero;stroke:none;stroke-width:1px;stroke-linecap:butt;stroke-linejoin:miter;stroke-miterlimit:4;stroke-dasharray:none;stroke-dashoffset:0;stroke-opacity:1;color-rendering:auto;image-rendering:auto;shape-rendering:auto;text-rendering:auto;enable-background:accumulate"
     d="m 22.996094,20.5 c -1.124561,0.0097 -1.85026,0.492587 -2.181641,1.070312 C 20.483073,22.148038 20.5,22.750767 20.5,23 v 1 h 1 v -1 c 0,-0.250767 0.01555,-0.638673 0.183594,-0.931641 0.168044,-0.292967 0.442573,-0.560807 1.320312,-0.568359 0.874728,-0.0075 1.14396,0.255877 1.3125,0.552734 C 24.484947,22.349591 24.5,22.749983 24.5,23 v 1 h 1 v -1 c 0,-0.248508 0.01644,-0.856634 -0.314453,-1.439453 C 24.854652,20.977728 24.123623,20.490297 22.996094,20.5 Z M 20,24 h 6 v 4 h -6 z" />
</svg>
