<?xml version="1.0" encoding="UTF-8" standalone="no"?>
<svg
   xmlns:dc="http://purl.org/dc/elements/1.1/"
   xmlns:cc="http://creativecommons.org/ns#"
   xmlns:rdf="http://www.w3.org/1999/02/22-rdf-syntax-ns#"
   xmlns:svg="http://www.w3.org/2000/svg"
   xmlns="http://www.w3.org/2000/svg"
   xmlns:sodipodi="http://sodipodi.sourceforge.net/DTD/sodipodi-0.dtd"
   xmlns:inkscape="http://www.inkscape.org/namespaces/inkscape"
   viewBox="0 0 32 32"
   version="1.1"
   id="svg6"
   sodipodi:docname="sortascending.svg"
   inkscape:version="0.92.4 (5da689c313, 2019-01-14)"
   inkscape:export-filename="/home/jupiter007/Libreoffice yaru theme fullcolor/build/cmd/32/sortascending.png"
   inkscape:export-xdpi="95"
   inkscape:export-ydpi="95">
  <metadata
     id="metadata12">
    <rdf:RDF>
      <cc:Work
         rdf:about="">
        <dc:format>image/svg+xml</dc:format>
        <dc:type
           rdf:resource="http://purl.org/dc/dcmitype/StillImage" />
      </cc:Work>
    </rdf:RDF>
  </metadata>
  <defs
     id="defs10" />
  <sodipodi:namedview
     pagecolor="#ffffff"
     bordercolor="#666666"
     borderopacity="1"
     objecttolerance="10"
     gridtolerance="10"
     guidetolerance="10"
     inkscape:pageopacity="0"
     inkscape:pageshadow="2"
     inkscape:window-width="1920"
     inkscape:window-height="1011"
     id="namedview8"
     showgrid="true"
     inkscape:zoom="20.85965"
     inkscape:cx="14.18094"
     inkscape:cy="14.16682"
     inkscape:window-x="1920"
     inkscape:window-y="32"
     inkscape:window-maximized="1"
     inkscape:current-layer="svg6">
    <inkscape:grid
       type="xygrid"
       id="grid830" />
  </sodipodi:namedview>
  <path
     sodipodi:nodetypes="ccccccccccc"
     style="fill:#ffffff;stroke:#ffffff;stroke-width:2;stroke-miterlimit:4;stroke-dasharray:none;stroke-linejoin:round"
     inkscape:connector-curvature="0"
     id="path832"
     d="m 8.1757812,14 0.048828,0.900391 H 12.482422 L 8,21.191406 V 22 h 6 L 13.9668,21.0625 H 9.5253906 L 13.925781,14.861328 V 14 Z" />
  <path
     id="path835"
     fill="#762572"
     d="m11.091797 4c-1.032887 0-1.9647119.1911907-2.7929689.5742188l.3300781.8867187c.3556633-.1696938.7597842-.3004556 1.2128907-.3925781.4531061-.0969708.8768461-.1445313 1.2714841-.1445313.584653 0 1.011333.1377016 1.279297.4140625.272842.2763676.408203.6953876.408203 1.2578125v.7578125h-1.234375c-1.242389 0-2.1487128.1951662-2.7187498.5878906-.565165.387883-.8476562 1.0000468-.8476562 1.8339844 0 .6981814.2138308 1.2420344.6425781 1.6347654.4336125.392725 1.0074168.589844 1.7187499.589844 1.062118 0 1.923329-.405147 2.585938-1.214844l.132812 1.0625h.919922v-5.0761716c0-.9793971-.253062-1.6856708-.759766-2.1171875-.501824-.4363583-1.217865-.6542969-2.148437-.6542969zm.78125 4.1523438h.927734v1.6953124c-.57978.8484888-1.368403 1.2714848-2.367187 1.2714848-.365407 0-.6704581-.11493-.9140628-.347657-.2436046-.232727-.3652343-.563565-.3652343-.990234 0-.2375753.0225665-.4357057.0664062-.5957031.0438464-.1648523.1233039-.3154155.2402344-.4511719.1169305-.1406046.2777919-.248594.4824219-.3261719.2046296-.0824327.4665146-.1458259.7832026-.1894531.316682-.0436272.69825-.0664062 1.146485-.0664062z"
     style="fill:#ffffff;stroke:#ffffff;stroke-width:2;stroke-miterlimit:4;stroke-dasharray:none;stroke-linejoin:round" />
  <path
     d="m 8.1757812,14 0.048828,0.900391 H 12.482422 L 8,21.191406 V 22 h 6 L 13.9668,21.0625 H 9.5253906 L 13.925781,14.861328 V 14 Z"
     id="path2"
     inkscape:connector-curvature="0"
     style="fill:#232629"
     sodipodi:nodetypes="ccccccccccc" />
  <path
     d="m11.091797 4c-1.032887 0-1.9647119.1911907-2.7929689.5742188l.3300781.8867187c.3556633-.1696938.7597842-.3004556 1.2128907-.3925781.4531061-.0969708.8768461-.1445313 1.2714841-.1445313.584653 0 1.011333.1377016 1.279297.4140625.272842.2763676.408203.6953876.408203 1.2578125v.7578125h-1.234375c-1.242389 0-2.1487128.1951662-2.7187498.5878906-.565165.387883-.8476562 1.0000468-.8476562 1.8339844 0 .6981814.2138308 1.2420344.6425781 1.6347654.4336125.392725 1.0074168.589844 1.7187499.589844 1.062118 0 1.923329-.405147 2.585938-1.214844l.132812 1.0625h.919922v-5.0761716c0-.9793971-.253062-1.6856708-.759766-2.1171875-.501824-.4363583-1.217865-.6542969-2.148437-.6542969zm.78125 4.1523438h.927734v1.6953124c-.57978.8484888-1.368403 1.2714848-2.367187 1.2714848-.365407 0-.6704581-.11493-.9140628-.347657-.2436046-.232727-.3652343-.563565-.3652343-.990234 0-.2375753.0225665-.4357057.0664062-.5957031.0438464-.1648523.1233039-.3154155.2402344-.4511719.1169305-.1406046.2777919-.248594.4824219-.3261719.2046296-.0824327.4665146-.1458259.7832026-.1894531.316682-.0436272.69825-.0664062 1.146485-.0664062z"
     fill="#762572"
     id="path4" />
  <path
     inkscape:connector-curvature="0"
     id="path856"
     d="M 22,28 18.5,23 H 21 v -9 h 2 v 9 h 2.5 z"
     style="opacity:0.6;fill:#000000;fill-opacity:1;stroke:#000000;stroke-width:2;stroke-linecap:butt;stroke-linejoin:round;stroke-miterlimit:4;stroke-dasharray:none;stroke-opacity:1"
     sodipodi:nodetypes="cccccccc" />
  <path
     inkscape:connector-curvature="0"
     style="fill:#ffffff;fill-opacity:1;stroke:none;stroke-width:1px;stroke-linecap:butt;stroke-linejoin:miter;stroke-opacity:1"
     d="M 22,28 18.5,23 H 21 v -9 h 2 v 9 h 2.5 z"
     id="path834"
     sodipodi:nodetypes="cccccccc" />
</svg>
