<?xml version="1.0" encoding="UTF-8" standalone="no"?>
<svg
   xmlns:dc="http://purl.org/dc/elements/1.1/"
   xmlns:cc="http://creativecommons.org/ns#"
   xmlns:rdf="http://www.w3.org/1999/02/22-rdf-syntax-ns#"
   xmlns:svg="http://www.w3.org/2000/svg"
   xmlns="http://www.w3.org/2000/svg"
   xmlns:xlink="http://www.w3.org/1999/xlink"
   xmlns:sodipodi="http://sodipodi.sourceforge.net/DTD/sodipodi-0.dtd"
   xmlns:inkscape="http://www.inkscape.org/namespaces/inkscape"
   viewBox="0 0 32 32"
   version="1.1"
   id="svg6"
   sodipodi:docname="subscript.svg"
   inkscape:version="1.0.1 (3bc2e813f5, 2020-09-07)"
   inkscape:export-filename="/home/jupiter007/Libreoffice yaru theme fullcolor/build/cmd/32/subscript.png"
   inkscape:export-xdpi="96"
   inkscape:export-ydpi="96">
  <metadata
     id="metadata12">
    <rdf:RDF>
      <cc:Work
         rdf:about="">
        <dc:format>image/svg+xml</dc:format>
        <dc:type
           rdf:resource="http://purl.org/dc/dcmitype/StillImage" />
        <dc:title></dc:title>
      </cc:Work>
    </rdf:RDF>
  </metadata>
  <defs
     id="defs10">
    <linearGradient
       inkscape:collect="always"
       xlink:href="#linearGradient837"
       id="linearGradient839"
       x1="16"
       y1="6"
       x2="16"
       y2="26"
       gradientUnits="userSpaceOnUse" />
    <linearGradient
       inkscape:collect="always"
       id="linearGradient837">
      <stop
         style="stop-color:#151515;stop-opacity:1"
         offset="0"
         id="stop833" />
      <stop
         style="stop-color:#4d4d4d;stop-opacity:1"
         offset="1"
         id="stop835" />
    </linearGradient>
  </defs>
  <sodipodi:namedview
     pagecolor="#808080"
     bordercolor="#666666"
     borderopacity="1"
     objecttolerance="10"
     gridtolerance="10"
     guidetolerance="10"
     inkscape:pageopacity="0"
     inkscape:pageshadow="2"
     inkscape:window-width="1920"
     inkscape:window-height="1016"
     id="namedview8"
     showgrid="true"
     inkscape:zoom="29.5"
     inkscape:cx="19.773903"
     inkscape:cy="21.780892"
     inkscape:window-x="0"
     inkscape:window-y="27"
     inkscape:window-maximized="1"
     inkscape:current-layer="svg6"
     inkscape:document-rotation="0">
    <inkscape:grid
       type="xygrid"
       id="grid827" />
  </sodipodi:namedview>
  <path
     id="path860"
     style="color:#000000;font-style:normal;font-variant:normal;font-weight:normal;font-stretch:normal;font-size:medium;line-height:normal;font-family:sans-serif;font-variant-ligatures:normal;font-variant-position:normal;font-variant-caps:normal;font-variant-numeric:normal;font-variant-alternates:normal;font-variant-east-asian:normal;font-feature-settings:normal;font-variation-settings:normal;text-indent:0;text-align:start;text-decoration:none;text-decoration-line:none;text-decoration-style:solid;text-decoration-color:#000000;letter-spacing:normal;word-spacing:normal;text-transform:none;writing-mode:lr-tb;direction:ltr;text-orientation:mixed;dominant-baseline:auto;baseline-shift:baseline;text-anchor:start;white-space:normal;shape-padding:0;shape-margin:0;inline-size:0;clip-rule:nonzero;display:inline;overflow:visible;visibility:visible;isolation:auto;mix-blend-mode:normal;color-interpolation:sRGB;color-interpolation-filters:linearRGB;solid-color:#000000;solid-opacity:1;vector-effect:none;fill:#ffffff;fill-opacity:1;fill-rule:nonzero;stroke:none;stroke-width:2;stroke-linecap:butt;stroke-linejoin:round;stroke-miterlimit:4;stroke-dasharray:none;stroke-dashoffset:0;stroke-opacity:1;color-rendering:auto;image-rendering:auto;shape-rendering:auto;text-rendering:auto;enable-background:accumulate;stop-color:#000000;stop-opacity:1;opacity:1"
     d="M 14 5 A 1.0001 1.0001 0 0 0 13.087891 5.5898438 L 4.0878906 25.589844 A 1.0001 1.0001 0 0 0 5 27 L 8 27 A 1.0001 1.0001 0 0 0 8.9003906 26.435547 L 11.535156 21 L 20.464844 21 L 23 26.230469 L 23 21.644531 L 21.992188 19.564453 A 1.0001 1.0001 0 0 0 21.091797 19 L 10.908203 19 A 1.0001 1.0001 0 0 0 10.007812 19.564453 L 7.3730469 25 L 6.546875 25 L 14.646484 7 L 16 7 L 17.353516 7 L 23.203125 20 L 25.396484 20 L 18.912109 5.5898438 A 1.0001 1.0001 0 0 0 18 5 L 16 5 L 14 5 z M 15.972656 7.4023438 A 1.0001 1.0001 0 0 0 15.087891 7.9941406 L 11.238281 16.591797 A 1.0001 1.0001 0 0 0 12.150391 18 L 16 18 L 19.849609 18 A 1.0001 1.0001 0 0 0 20.761719 16.591797 L 16.912109 7.9941406 A 1.0001 1.0001 0 0 0 15.972656 7.4023438 z M 16 10.847656 L 18.306641 16 L 16 16 L 13.693359 16 L 16 10.847656 z " />
  <path
     id="path2-3"
     style="fill:url(#linearGradient839);fill-opacity:1"
     d="M 14 6 L 5 26 L 8 26 L 10.908203 20 L 21.091797 20 L 23 23.9375 L 23 20 L 24.300781 20 L 18 6 L 16 6 L 14 6 z M 16 8.4023438 L 19.849609 17 L 16 17 L 12.150391 17 L 16 8.4023438 z " />
  <path
     d="m 24,21 v 10 h 1 3 c 1.656854,0 3,-1.343146 3,-3 C 30.9989,26.829532 30.317231,25.766562 29.253906,25.277344 29.730187,24.808447 29.998883,24.168362 30,23.5 29.999,22.158784 28.939761,21.057345 27.599609,21.003906 V 21 H 25 Z m 1,1 h 2.5 c 0.828427,0 1.5,0.671573 1.5,1.5 0,0.828427 -0.671573,1.5 -1.5,1.5 H 25 Z m 0,4 h 3 c 1.104569,0 2,0.89543 2,2 0,1.104569 -0.895431,2 -2,2 h -3 z"
     fill="#762572"
     id="path4"
     style="fill:#e95420;fill-opacity:1"
     sodipodi:nodetypes="cccsccccccccssscccssscc" />
</svg>
