<?xml version="1.0" encoding="UTF-8" standalone="no"?>
<svg
   xmlns:dc="http://purl.org/dc/elements/1.1/"
   xmlns:cc="http://creativecommons.org/ns#"
   xmlns:rdf="http://www.w3.org/1999/02/22-rdf-syntax-ns#"
   xmlns:svg="http://www.w3.org/2000/svg"
   xmlns="http://www.w3.org/2000/svg"
   xmlns:sodipodi="http://sodipodi.sourceforge.net/DTD/sodipodi-0.dtd"
   xmlns:inkscape="http://www.inkscape.org/namespaces/inkscape"
   viewBox="0 0 32 32"
   version="1.1"
   id="svg6"
   sodipodi:docname="superscript.svg"
   inkscape:export-filename="/home/jupiter007/Libreoffice yaru theme fullcolor/build/cmd/32/superscript.png"
   inkscape:export-xdpi="96"
   inkscape:export-ydpi="96"
   inkscape:version="0.92.4 (5da689c313, 2019-01-14)">
  <metadata
     id="metadata12">
    <rdf:RDF>
      <cc:Work
         rdf:about="">
        <dc:format>image/svg+xml</dc:format>
        <dc:type
           rdf:resource="http://purl.org/dc/dcmitype/StillImage" />
      </cc:Work>
    </rdf:RDF>
  </metadata>
  <defs
     id="defs10" />
  <sodipodi:namedview
     pagecolor="#ffffff"
     bordercolor="#666666"
     borderopacity="1"
     objecttolerance="10"
     gridtolerance="10"
     guidetolerance="10"
     inkscape:pageopacity="0"
     inkscape:pageshadow="2"
     inkscape:window-width="1920"
     inkscape:window-height="1011"
     id="namedview8"
     showgrid="false"
     inkscape:zoom="14.75"
     inkscape:cx="-5.5668498"
     inkscape:cy="16.658978"
     inkscape:window-x="0"
     inkscape:window-y="32"
     inkscape:window-maximized="1"
     inkscape:current-layer="svg6" />
  <path
     style="fill:#ffffff;fill-opacity:1;stroke:#ffffff;stroke-width:2;stroke-miterlimit:4;stroke-dasharray:none;stroke-linejoin:round"
     id="path822"
     fill="#232629"
     d="m13 4-8.9296875 23.824219-.0703125.175781h2l3.3925781-9h4.6074219 4.607422l3.392578 9h2l-.070312-.175781-8.929688-23.824219h-1zm1 2.4023438 3.849609 10.5976562h-3.849609-3.849609z" />
  <path
     id="path824"
     fill="#762572"
     d="m20 2v10h1 4a3 3 0 0 0 3-3 3 3 0 0 0 -1.746094-2.7226562 2.5 2.5 0 0 0 .746094-1.7773438 2.5 2.5 0 0 0 -2.400391-2.4960938v-.0039062h-3.599609zm1 1h3.5a1.5 1.5 0 0 1 1.5 1.5 1.5 1.5 0 0 1 -1.5 1.5h-3.5zm0 4h4a2 2 0 0 1 2 2 2 2 0 0 1 -2 2h-4z"
     style="fill:#ffffff;stroke:#ffffff;stroke-width:2;stroke-miterlimit:4;stroke-dasharray:none;stroke-linejoin:round" />
  <path
     d="m13 4-8.9296875 23.824219-.0703125.175781h2l3.3925781-9h4.6074219 4.607422l3.392578 9h2l-.070312-.175781-8.929688-23.824219h-1zm1 2.4023438 3.849609 10.5976562h-3.849609-3.849609z"
     fill="#232629"
     id="path2"
     style="fill:#232629;fill-opacity:1" />
  <path
     d="m20 2v10h1 4a3 3 0 0 0 3-3 3 3 0 0 0 -1.746094-2.7226562 2.5 2.5 0 0 0 .746094-1.7773438 2.5 2.5 0 0 0 -2.400391-2.4960938v-.0039062h-3.599609zm1 1h3.5a1.5 1.5 0 0 1 1.5 1.5 1.5 1.5 0 0 1 -1.5 1.5h-3.5zm0 4h4a2 2 0 0 1 2 2 2 2 0 0 1 -2 2h-4z"
     fill="#762572"
     id="path4" />
</svg>
