<?xml version="1.0" encoding="UTF-8" standalone="no"?>
<svg
   xmlns:dc="http://purl.org/dc/elements/1.1/"
   xmlns:cc="http://creativecommons.org/ns#"
   xmlns:rdf="http://www.w3.org/1999/02/22-rdf-syntax-ns#"
   xmlns:svg="http://www.w3.org/2000/svg"
   xmlns="http://www.w3.org/2000/svg"
   xmlns:sodipodi="http://sodipodi.sourceforge.net/DTD/sodipodi-0.dtd"
   xmlns:inkscape="http://www.inkscape.org/namespaces/inkscape"
   viewBox="0 0 32 32"
   version="1.1"
   id="svg6"
   sodipodi:docname="tablenumberformatdialog.svg"
   inkscape:version="0.92.4 (5da689c313, 2019-01-14)">
  <metadata
     id="metadata12">
    <rdf:RDF>
      <cc:Work
         rdf:about="">
        <dc:format>image/svg+xml</dc:format>
        <dc:type
           rdf:resource="http://purl.org/dc/dcmitype/StillImage" />
      </cc:Work>
    </rdf:RDF>
  </metadata>
  <defs
     id="defs10" />
  <sodipodi:namedview
     pagecolor="#ffffff"
     bordercolor="#666666"
     borderopacity="1"
     objecttolerance="10"
     gridtolerance="10"
     guidetolerance="10"
     inkscape:pageopacity="0"
     inkscape:pageshadow="2"
     inkscape:window-width="1920"
     inkscape:window-height="1011"
     id="namedview8"
     showgrid="true"
     inkscape:zoom="32"
     inkscape:cx="16.754008"
     inkscape:cy="14.337744"
     inkscape:window-x="0"
     inkscape:window-y="32"
     inkscape:window-maximized="1"
     inkscape:current-layer="svg6">
    <inkscape:grid
       type="xygrid"
       id="grid822" />
  </sodipodi:namedview>
  <path
     style="fill:#232629"
     d="M 16 4 C 9.3726576 4.0000015 4.0000005 9.3726597 4 16 L 3.9980469 16 C 3.9980469 19.105435 5.2025319 22.172925 7.5136719 24.484375 C 11.354179 28.32536 17.296346 29.108712 22 26.392578 L 21.5 25.525391 C 17.188695 28.014673 11.743034 27.297513 8.2226562 23.777344 C 6.1069052 21.661414 5.0244521 18.854463 5.0214844 16.011719 C 5.0273865 10.217495 9.3905806 5 16 5 C 22.126968 5.00553 27 10.223588 27 15 C 27 19.052859 24.647003 20.316548 22 21 L 22 10 L 21 10 L 21 12.953125 C 20.270444 11.25021 17.723657 10.002686 16 10 C 12.686329 10 10 12.686329 10 16 C 10 19.31367 12.686329 22 16 22 C 17.723657 21.9973 19.982808 20.964995 21 19.597656 L 21 22 L 22 22 C 25.491594 21.287278 28 19.044752 28 15 C 28 9.0053367 22.043039 4.0057168 16 4 z M 16 11 C 18.485252 11 21 13.059322 21 16 C 21 19.180374 18.485252 21 16 21 C 13.514747 21 11 19.180374 11 16 C 11 13.29902 12.915504 11 16 11 z "
     id="path2" />
</svg>
