<?xml version="1.0" encoding="UTF-8" standalone="no"?>
<svg
   height="32"
   viewBox="0 0 32 32"
   width="32"
   version="1.1"
   id="svg6"
   sodipodi:docname="textbodyparastyle.svg"
   inkscape:export-filename="/home/jupiter007/Libreoffice yaru theme fullcolor/build/cmd/32/textbodyparastyle.png"
   inkscape:export-xdpi="96"
   inkscape:export-ydpi="96"
   inkscape:version="1.1 (ce6663b3b7, 2021-05-25)"
   xmlns:inkscape="http://www.inkscape.org/namespaces/inkscape"
   xmlns:sodipodi="http://sodipodi.sourceforge.net/DTD/sodipodi-0.dtd"
   xmlns:xlink="http://www.w3.org/1999/xlink"
   xmlns="http://www.w3.org/2000/svg"
   xmlns:svg="http://www.w3.org/2000/svg"
   xmlns:rdf="http://www.w3.org/1999/02/22-rdf-syntax-ns#"
   xmlns:cc="http://creativecommons.org/ns#"
   xmlns:dc="http://purl.org/dc/elements/1.1/">
  <metadata
     id="metadata12">
    <rdf:RDF>
      <cc:Work
         rdf:about="">
        <dc:format>image/svg+xml</dc:format>
        <dc:type
           rdf:resource="http://purl.org/dc/dcmitype/StillImage" />
      </cc:Work>
    </rdf:RDF>
  </metadata>
  <defs
     id="defs10">
    <linearGradient
       inkscape:collect="always"
       xlink:href="#linearGradient837"
       id="linearGradient839"
       x1="16"
       y1="6"
       x2="16"
       y2="26"
       gradientUnits="userSpaceOnUse" />
    <linearGradient
       inkscape:collect="always"
       id="linearGradient837">
      <stop
         style="stop-color:#151515;stop-opacity:1"
         offset="0"
         id="stop833" />
      <stop
         style="stop-color:#4d4d4d;stop-opacity:1"
         offset="1"
         id="stop835" />
    </linearGradient>
  </defs>
  <sodipodi:namedview
     pagecolor="#ffffff"
     bordercolor="#666666"
     borderopacity="1"
     objecttolerance="10"
     gridtolerance="10"
     guidetolerance="10"
     inkscape:pageopacity="0"
     inkscape:pageshadow="2"
     inkscape:window-width="1920"
     inkscape:window-height="1016"
     id="namedview8"
     showgrid="true"
     inkscape:zoom="20.85965"
     inkscape:cx="21.404961"
     inkscape:cy="16.515138"
     inkscape:window-x="0"
     inkscape:window-y="27"
     inkscape:window-maximized="1"
     inkscape:current-layer="svg6"
     inkscape:document-rotation="0"
     inkscape:pagecheckerboard="0">
    <inkscape:grid
       type="xygrid"
       id="grid838" />
  </sodipodi:namedview>
  <path
     id="path833"
     style="color:#000000;fill:#ffffff;stroke-linejoin:round;-inkscape-stroke:none"
     d="M 14 5 A 1.0001 1.0001 0 0 0 13.087891 5.5898438 L 4.0878906 25.589844 A 1.0001 1.0001 0 0 0 5 27 L 8 27 A 1.0001 1.0001 0 0 0 8.9003906 26.435547 L 11.535156 21 L 20.464844 21 L 23.099609 26.435547 A 1.0001 1.0001 0 0 0 24 27 L 25 27 L 25 25 L 24.626953 25 L 23.898438 23.496094 C 21.941842 22.766198 20.452801 21.090499 20.087891 19 L 10.908203 19 A 1.0001 1.0001 0 0 0 10.007812 19.564453 L 7.3730469 25 L 6.546875 25 L 14.646484 7 L 16 7 L 17.353516 7 L 20.890625 14.863281 C 21.276553 14.238261 21.774976 13.688459 22.355469 13.242188 L 18.912109 5.5898438 A 1.0001 1.0001 0 0 0 18 5 L 16 5 L 14 5 z M 16 7.4023438 A 1.0001 1.0001 0 0 0 15.087891 7.9941406 L 11.238281 16.591797 A 1.0001 1.0001 0 0 0 12.150391 18 L 16 18 L 19.849609 18 A 1.0001 1.0001 0 0 0 20 17.982422 C 20.002219 17.219084 20.149385 16.488798 20.414062 15.816406 L 16.912109 7.9941406 A 1.0001 1.0001 0 0 0 16 7.4023438 z M 16 10.847656 L 18.306641 16 L 16 16 L 13.693359 16 L 16 10.847656 z M 24.902344 23.777344 L 25 23.992188 L 25 23.796875 C 24.967239 23.791101 24.934934 23.783621 24.902344 23.777344 z " />
  <path
     id="path2-3-3"
     style="fill:url(#linearGradient839);fill-opacity:1"
     d="M 14 6 L 5 26 L 8 26 L 10.908203 20 L 20.357422 20 C 20.127359 19.379036 20 18.706625 20 18 C 20 16.44385 20.598763 15.021827 21.578125 13.953125 L 18 6 L 16 6 L 14 6 z M 16 8.4023438 L 19.849609 17 L 16 17 L 12.150391 17 L 16 8.4023438 z M 22.392578 22.683594 L 24 26 L 25 26 L 25 23.796875 C 24.037251 23.627182 23.146557 23.238653 22.392578 22.683594 z " />
  <path
     inkscape:connector-curvature="0"
     d="m 26,13 c -2.76142,0 -5,2.23857 -5,5 0,2.76142 2.23858,5 4.999999,5 v 6 h 1 V 14 H 28 v 15 h 1 V 13 h -2.000001 z"
     id="path2-3"
     style="opacity:1;fill:#e95420;fill-opacity:1" />
</svg>
