<?xml version="1.0" encoding="UTF-8" standalone="no"?>
<svg
   xmlns:dc="http://purl.org/dc/elements/1.1/"
   xmlns:cc="http://creativecommons.org/ns#"
   xmlns:rdf="http://www.w3.org/1999/02/22-rdf-syntax-ns#"
   xmlns:svg="http://www.w3.org/2000/svg"
   xmlns="http://www.w3.org/2000/svg"
   xmlns:sodipodi="http://sodipodi.sourceforge.net/DTD/sodipodi-0.dtd"
   xmlns:inkscape="http://www.inkscape.org/namespaces/inkscape"
   viewBox="0 0 32 32"
   version="1.1"
   id="svg6"
   sodipodi:docname="verticaltext.svg"
   inkscape:export-filename="/home/jupiter007/Libreoffice yaru theme fullcolor/build/cmd/32/verticaltext.png"
   inkscape:export-xdpi="95"
   inkscape:export-ydpi="95"
   inkscape:version="1.0.1 (3bc2e813f5, 2020-09-07)">
  <metadata
     id="metadata12">
    <rdf:RDF>
      <cc:Work
         rdf:about="">
        <dc:format>image/svg+xml</dc:format>
        <dc:type
           rdf:resource="http://purl.org/dc/dcmitype/StillImage" />
      </cc:Work>
    </rdf:RDF>
  </metadata>
  <defs
     id="defs10" />
  <sodipodi:namedview
     pagecolor="#ffffff"
     bordercolor="#666666"
     borderopacity="1"
     objecttolerance="10"
     gridtolerance="10"
     guidetolerance="10"
     inkscape:pageopacity="0"
     inkscape:pageshadow="2"
     inkscape:window-width="1920"
     inkscape:window-height="1011"
     id="namedview8"
     showgrid="true"
     inkscape:zoom="14.75"
     inkscape:cx="14.678392"
     inkscape:cy="10.976721"
     inkscape:window-x="0"
     inkscape:window-y="0"
     inkscape:window-maximized="1"
     inkscape:current-layer="svg6"
     inkscape:document-rotation="0"
     inkscape:snap-bbox="true"
     inkscape:bbox-paths="true"
     inkscape:bbox-nodes="true"
     inkscape:snap-bbox-edge-midpoints="true"
     inkscape:snap-bbox-midpoints="true">
    <inkscape:grid
       type="xygrid"
       id="grid822" />
  </sodipodi:namedview>
  <path
     sodipodi:nodetypes="cccsccsccccccccsccscccccc"
     inkscape:connector-curvature="0"
     id="path4237-1-3"
     d="M 27.02718,6.994141 C 27.01268,5.735941 27.05778,4.81525 26.642414,4.0625 26.434754,3.68613 26.083027,3.389269 25.644367,3.224609 25.205697,3.059939 24.68478,3 24.02718,3 H 22.538898 15.462924 7.9994145 c -0.65761,0 -1.178577,0.0599 -1.617188,0.224609 -0.438611,0.16468 -0.788524,0.461531 -0.996093,0.837891 -0.41513,0.75272 -0.371649,1.673541 -0.386719,2.931641 v 0.002 18.005809 0.0039 c 0.0145,1.25819 -0.0306,2.178891 0.384766,2.931641 0.20766,0.37637 0.559386,0.673221 0.998046,0.837891 C 6.8208975,28.939921 7.3418043,29 7.9994145,29 h 7.6878205 6.873147 1.466798 c 0.6576,0 1.178577,-0.0599 1.617187,-0.224609 0.4386,-0.16468 0.788534,-0.461531 0.996094,-0.837891 0.41513,-0.75277 0.371639,-1.673601 0.386719,-2.931691 v -0.002 V 6.998 Z"
     style="font-style:normal;font-variant:normal;font-weight:normal;font-stretch:normal;font-size:15px;line-height:125%;font-family:Ubuntu;-inkscape-font-specification:Ubuntu;text-align:center;letter-spacing:0px;word-spacing:0px;writing-mode:lr-tb;text-anchor:middle;display:inline;opacity:0.6;fill:#000000;fill-opacity:1;stroke:none;stroke-width:0.999802" />
  <path
     inkscape:connector-curvature="0"
     id="path1993-1"
     d="M 25.999995,10.985053 C 25.989195,9.4284719 26.011745,6.873379 25.961225,5.323428 25.918555,4.862199 25.754805,4.30724 25.251258,4.168088 24.615912,3.949094 23.917471,4.059674 23.269334,4.022292 20.972249,4.014492 9.6457235,3.999322 7.3563715,4.043812 c -0.461929,0.0391 -1.012666,0.202551 -1.163666,0.698756 -0.225082,0.632456 -0.12274,1.284144 -0.154298,1.935974 -0.0068,1.424235 -0.01102,3.852247 -0.01131,5.278104 -3.5e-4,1.704531 0.005,12.406654 0.01851,14.105456 0.01201,0.511911 -0.01993,1.183699 0.405191,1.584745 0.539783,0.421097 1.268021,0.287073 1.903787,0.322745 2.4443235,0.01187 13.9382765,0.02769 16.3839765,-0.0219 0.40204,-0.04928 0.862952,-0.169992 1.044475,-0.575139 0.294098,-0.668169 0.168019,-1.426205 0.205573,-2.125921 C 26.00041,23.492225 26.00109,12.739492 26,10.985053 Z"
     style="vector-effect:none;fill:#fa9381;fill-opacity:1;stroke:none;stroke-width:1;stroke-linecap:round;stroke-linejoin:bevel;stroke-miterlimit:4;stroke-dasharray:none;stroke-dashoffset:0;stroke-opacity:1"
     sodipodi:nodetypes="cccccccscccccccc" />
  <path
     style="fill:#ffffff;fill-opacity:1;stroke:none;stroke-width:2;stroke-linecap:round;stroke-linejoin:round;stroke-miterlimit:4;stroke-dasharray:none;stroke-opacity:1"
     d="m 22,9 h -2 v 6 H 10 v 2 h 10 v 6 h 2 z"
     id="rect840"
     sodipodi:nodetypes="ccccccccc" />
</svg>
