<?xml version="1.0" encoding="UTF-8" standalone="no"?>
<svg
   xmlns:dc="http://purl.org/dc/elements/1.1/"
   xmlns:cc="http://creativecommons.org/ns#"
   xmlns:rdf="http://www.w3.org/1999/02/22-rdf-syntax-ns#"
   xmlns:svg="http://www.w3.org/2000/svg"
   xmlns="http://www.w3.org/2000/svg"
   xmlns:sodipodi="http://sodipodi.sourceforge.net/DTD/sodipodi-0.dtd"
   xmlns:inkscape="http://www.inkscape.org/namespaces/inkscape"
   viewBox="0 0 32 32"
   version="1.1"
   id="svg4"
   sodipodi:docname="xlinecolor.svg"
   inkscape:version="1.0.1 (3bc2e813f5, 2020-09-07)"
   inkscape:export-filename="/home/jupiter007/Libreoffice yaru theme fullcolor/build/cmd/32/xlinecolor.png"
   inkscape:export-xdpi="95"
   inkscape:export-ydpi="95">
  <metadata
     id="metadata10">
    <rdf:RDF>
      <cc:Work
         rdf:about="">
        <dc:format>image/svg+xml</dc:format>
        <dc:type
           rdf:resource="http://purl.org/dc/dcmitype/StillImage" />
        <dc:title></dc:title>
      </cc:Work>
    </rdf:RDF>
  </metadata>
  <defs
     id="defs8" />
  <sodipodi:namedview
     pagecolor="#ffffff"
     bordercolor="#666666"
     borderopacity="1"
     objecttolerance="10"
     gridtolerance="10"
     guidetolerance="10"
     inkscape:pageopacity="0"
     inkscape:pageshadow="2"
     inkscape:window-width="1920"
     inkscape:window-height="1011"
     id="namedview6"
     showgrid="true"
     inkscape:zoom="20.85965"
     inkscape:cx="9.9674414"
     inkscape:cy="13.424196"
     inkscape:window-x="0"
     inkscape:window-y="0"
     inkscape:window-maximized="1"
     inkscape:current-layer="svg4"
     inkscape:document-rotation="0">
    <inkscape:grid
       type="xygrid"
       id="grid891" />
    <inkscape:grid
       type="xygrid"
       id="grid865"
       dotted="true"
       spacingx="0.5"
       spacingy="0.5"
       empspacing="10" />
  </sodipodi:namedview>
  <path
     style="color:#000000;font-style:normal;font-variant:normal;font-weight:normal;font-stretch:normal;font-size:medium;line-height:normal;font-family:sans-serif;font-variant-ligatures:normal;font-variant-position:normal;font-variant-caps:normal;font-variant-numeric:normal;font-variant-alternates:normal;font-variant-east-asian:normal;font-feature-settings:normal;font-variation-settings:normal;text-indent:0;text-align:start;text-decoration:none;text-decoration-line:none;text-decoration-style:solid;text-decoration-color:#000000;letter-spacing:normal;word-spacing:normal;text-transform:none;writing-mode:lr-tb;direction:ltr;text-orientation:mixed;dominant-baseline:auto;baseline-shift:baseline;text-anchor:start;white-space:normal;shape-padding:0;shape-margin:0;inline-size:0;clip-rule:nonzero;display:inline;overflow:visible;visibility:visible;isolation:auto;mix-blend-mode:normal;color-interpolation:sRGB;color-interpolation-filters:linearRGB;solid-color:#000000;solid-opacity:1;vector-effect:none;fill:#000000;fill-opacity:1;fill-rule:nonzero;stroke:#000000;stroke-width:2;stroke-linecap:butt;stroke-linejoin:round;stroke-miterlimit:4;stroke-dasharray:none;stroke-dashoffset:0;stroke-opacity:1;color-rendering:auto;image-rendering:auto;shape-rendering:auto;text-rendering:auto;enable-background:accumulate;stop-color:#000000;stop-opacity:1;opacity:0.7"
     d="M 2.8535156 4.1464844 L 2.1464844 4.8535156 L 27.146484 29.853516 L 27.853516 29.146484 L 2.8535156 4.1464844 z "
     id="path889" />
  <path
     style="fill:none;stroke:#ffffff;stroke-width:1px;stroke-linecap:butt;stroke-linejoin:miter"
     d="m 2.5,4.5 25,25"
     id="path883"
     sodipodi:nodetypes="cc" />
  <path
     id="path836"
     style="opacity:0.7;fill:#000000;fill-opacity:1;fill-rule:evenodd;stroke:#000000;stroke-width:2;stroke-linecap:round;stroke-linejoin:round;stroke-miterlimit:4;stroke-dasharray:none;stroke-opacity:1"
     d="m 23.207026,3.8437501 -6.363281,6.3632809 6.363281,6.363281 c 1.414213,1.414214 2.120943,0.707183 3.535157,-0.707031 l 2.121093,-2.121093 c 1.414214,-1.414215 2.121245,-2.120943 0.707031,-3.535157 z m -8.207031,3.15625 c -0.554,0 -1,0.445999 -1,1 v 1 V 12 15 c 0,0.554 0.446,1 1,1 0.554,0 1,-0.446 1,-1 V 12 10.742188 C 15.749416,10.347114 15.806208,9.8311171 16.136714,9.5000001 l 2.5,-2.5 h -0.414063 z" />
  <path
     style="opacity:1;fill:#ffffff;fill-opacity:1;fill-rule:evenodd;stroke:none;stroke-width:1;stroke-linecap:round;stroke-linejoin:round;stroke-miterlimit:4;stroke-dasharray:none;stroke-opacity:1"
     d="m 16.843145,10.207107 6.363963,-6.3639609 6.363961,6.3639609 c 1.414213,1.414214 0.707106,2.12132 -0.707108,3.535535 l -2.121319,2.121319 c -1.414214,1.414214 -2.121321,2.121321 -3.535534,0.707107 z"
     id="rect830"
     inkscape:connector-curvature="0"
     sodipodi:nodetypes="ccccccc" />
  <circle
     style="opacity:0.7;fill:#000000;fill-opacity:1;fill-rule:evenodd;stroke:#000000;stroke-width:2;stroke-linecap:round;stroke-linejoin:round;stroke-miterlimit:4;stroke-dasharray:none;stroke-opacity:1"
     id="path837"
     cx="9.1923876"
     cy="22.627415"
     r="0.5"
     transform="rotate(-45)" />
  <circle
     style="opacity:1;fill:#ffffff;fill-opacity:1;fill-rule:evenodd;stroke:none;stroke-width:2;stroke-linecap:round;stroke-linejoin:round;stroke-miterlimit:4;stroke-dasharray:none;stroke-opacity:1"
     id="path839"
     cx="9.1923876"
     cy="22.627415"
     r="0.5"
     transform="rotate(-45)" />
  <path
     style="opacity:1;fill:#6d6d6d;fill-opacity:1;fill-rule:evenodd;stroke:none;stroke-width:2;stroke-linecap:round;stroke-linejoin:round;stroke-miterlimit:4;stroke-dasharray:none;stroke-opacity:1"
     d="m 25,0 c -1.656854,0 -3,1.3431458 -3,3 v 5.5429691 h 1 V 3 h 0.0059 c 0.05906,-1.1210092 0.933899,-1.9984315 1.994101,-2 1.060972,4.493e-4 1.936986,0.8781776 1.996094,2 h 0.0039 v 3.3945311 l 1,1 V 3 c 0,-1.6568542 -1.343146,-3 -3,-3 z"
     id="rect841"
     inkscape:connector-curvature="0"
     sodipodi:nodetypes="sscccccccccss" />
  <path
     style="opacity:1;fill:#aee3f8;fill-opacity:1;fill-rule:evenodd;stroke:none;stroke-width:2;stroke-linecap:round;stroke-linejoin:round;stroke-miterlimit:4;stroke-dasharray:none;stroke-opacity:1"
     d="m 14.999999,7.0000001 c -0.554,0 -1,0.445999 -1,1 v 1 V 12 15 c 10e-7,0.554 0.446,1 1,1 0.554001,0 1.000001,-0.446 1,-1 V 12 10.742188 C 15.74942,10.347115 15.806212,9.8311171 16.136718,9.5000001 l 2.5,-2.5 h -0.414063 z"
     id="rect862"
     inkscape:connector-curvature="0"
     sodipodi:nodetypes="ssccssscccccs" />
</svg>
