<?xml version="1.0" encoding="UTF-8" standalone="no"?>
<svg
   xmlns:dc="http://purl.org/dc/elements/1.1/"
   xmlns:cc="http://creativecommons.org/ns#"
   xmlns:rdf="http://www.w3.org/1999/02/22-rdf-syntax-ns#"
   xmlns:svg="http://www.w3.org/2000/svg"
   xmlns="http://www.w3.org/2000/svg"
   xmlns:sodipodi="http://sodipodi.sourceforge.net/DTD/sodipodi-0.dtd"
   xmlns:inkscape="http://www.inkscape.org/namespaces/inkscape"
   viewBox="0 0 32 32"
   version="1.1"
   id="svg4"
   sodipodi:docname="zoomout.svg"
   inkscape:version="1.0.1 (3bc2e813f5, 2020-09-07)"
   inkscape:export-filename="/home/jupiter007/Libreoffice yaru theme fullcolor/build/cmd/32/zoomout.png"
   inkscape:export-xdpi="95"
   inkscape:export-ydpi="95">
  <metadata
     id="metadata10">
    <rdf:RDF>
      <cc:Work
         rdf:about="">
        <dc:format>image/svg+xml</dc:format>
        <dc:type
           rdf:resource="http://purl.org/dc/dcmitype/StillImage" />
      </cc:Work>
    </rdf:RDF>
  </metadata>
  <defs
     id="defs8" />
  <sodipodi:namedview
     pagecolor="#ffffff"
     bordercolor="#666666"
     borderopacity="1"
     objecttolerance="10"
     gridtolerance="10"
     guidetolerance="10"
     inkscape:pageopacity="0"
     inkscape:pageshadow="2"
     inkscape:window-width="1920"
     inkscape:window-height="1011"
     id="namedview6"
     showgrid="true"
     inkscape:zoom="14.75"
     inkscape:cx="0.81047253"
     inkscape:cy="8.9698465"
     inkscape:window-x="0"
     inkscape:window-y="0"
     inkscape:window-maximized="1"
     inkscape:current-layer="svg4"
     inkscape:document-rotation="0">
    <inkscape:grid
       type="xygrid"
       id="grid827" />
  </sodipodi:namedview>
  <path
     id="path853"
     style="opacity:0.6;fill:#000000;fill-opacity:1;fill-rule:evenodd;stroke:#000000;stroke-width:2;stroke-linecap:round;stroke-linejoin:round;stroke-miterlimit:4;stroke-dasharray:none"
     inkscape:transform-center-y="1.1837315"
     d="m 7.9088944,7.9364584 a 10,10 0 0 0 0.01381,14.1283236 10,10 0 0 0 13.7802946,0.345267 l 4.951129,4.951128 0.707107,-0.707107 -4.952509,-4.952509 A 10,10 0 0 0 22.06484,7.9226474 a 10,10 0 0 0 -14.1421356,0 10,10 0 0 0 -0.01381,0.01381 z"
     inkscape:transform-center-x="-1.1837244" />
  <path
     id="circle848"
     style="opacity:1;fill:#c8c4b7;fill-opacity:1;fill-rule:evenodd;stroke-width:4.70588;stroke-linecap:round;stroke-linejoin:round"
     inkscape:transform-center-y="1.1837315"
     d="m 7.9088944,7.9364584 a 10,10 0 0 0 0.01381,14.1283236 10,10 0 0 0 13.7802946,0.345267 l 4.951129,4.951128 0.707107,-0.707107 -4.952509,-4.952509 A 10,10 0 0 0 22.06484,7.9226474 a 10,10 0 0 0 -14.1421356,0 10,10 0 0 0 -0.01381,0.01381 z"
     inkscape:transform-center-x="-1.1837244" />
  <circle
     style="opacity:1;fill:#ffffff;fill-rule:evenodd;stroke-width:4.23529;stroke-linecap:round;stroke-linejoin:round"
     id="path844"
     cx="4.0678322e-05"
     cy="21.204355"
     r="9"
     transform="rotate(-45)" />
  <rect
     style="opacity:1;fill:#c7162b;fill-opacity:1;stroke:none;stroke-width:2;stroke-linejoin:round;stroke-miterlimit:4;stroke-dasharray:none;stroke-opacity:1"
     id="rect829"
     width="10"
     height="2"
     x="10"
     y="14" />
</svg>
