<?xml version="1.0" encoding="UTF-8" standalone="no"?>
<svg
   xmlns:dc="http://purl.org/dc/elements/1.1/"
   xmlns:cc="http://creativecommons.org/ns#"
   xmlns:rdf="http://www.w3.org/1999/02/22-rdf-syntax-ns#"
   xmlns:svg="http://www.w3.org/2000/svg"
   xmlns="http://www.w3.org/2000/svg"
   xmlns:sodipodi="http://sodipodi.sourceforge.net/DTD/sodipodi-0.dtd"
   xmlns:inkscape="http://www.inkscape.org/namespaces/inkscape"
   viewBox="0 0 32 32"
   version="1.1"
   id="svg4"
   sodipodi:docname="zoomprevious.svg"
   inkscape:export-filename="/home/jupiter007/Libreoffice yaru theme fullcolor/build/cmd/32/zoomprevious.png"
   inkscape:export-xdpi="96"
   inkscape:export-ydpi="96"
   inkscape:version="1.0.1 (3bc2e813f5, 2020-09-07)">
  <metadata
     id="metadata10">
    <rdf:RDF>
      <cc:Work
         rdf:about="">
        <dc:format>image/svg+xml</dc:format>
        <dc:type
           rdf:resource="http://purl.org/dc/dcmitype/StillImage" />
      </cc:Work>
    </rdf:RDF>
  </metadata>
  <defs
     id="defs8" />
  <sodipodi:namedview
     pagecolor="#ffffff"
     bordercolor="#666666"
     borderopacity="1"
     objecttolerance="10"
     gridtolerance="10"
     guidetolerance="10"
     inkscape:pageopacity="0"
     inkscape:pageshadow="2"
     inkscape:window-width="1920"
     inkscape:window-height="1011"
     id="namedview6"
     showgrid="true"
     inkscape:zoom="14.75"
     inkscape:cx="11.9075"
     inkscape:cy="5.1491739"
     inkscape:window-x="0"
     inkscape:window-y="0"
     inkscape:window-maximized="1"
     inkscape:current-layer="svg4"
     inkscape:document-rotation="0">
    <inkscape:grid
       type="xygrid"
       id="grid835" />
  </sodipodi:namedview>
  <path
     id="path855"
     style="opacity:0.6;fill:#000000;fill-opacity:1;fill-rule:evenodd;stroke:#000000;stroke-width:2;stroke-linecap:round;stroke-linejoin:round;stroke-miterlimit:4;stroke-dasharray:none"
     d="m 7.7762005,7.7762008 a 9.5,9.5 0 0 0 0,13.4350282 9.5,9.5 0 0 0 13.0718075,0.343886 l 5.666522,5.666522 0.707107,-0.707107 -5.666522,-5.666522 a 9.5,9.5 0 0 0 -0.343886,-13.0718072 9.5,9.5 0 0 0 -13.4350285,0 z"
     inkscape:transform-center-y="1.6139611"
     inkscape:transform-center-x="-1.6139611" />
  <path
     id="circle846"
     style="opacity:1;fill:#c8c4b7;fill-opacity:1;fill-rule:evenodd;stroke-width:4.47059;stroke-linecap:round;stroke-linejoin:round"
     d="m 7.7762005,7.7762008 a 9.5,9.5 0 0 0 0,13.4350282 9.5,9.5 0 0 0 13.0718075,0.343886 l 5.666522,5.666522 0.707107,-0.707107 -5.666522,-5.666522 a 9.5,9.5 0 0 0 -0.343886,-13.0718072 9.5,9.5 0 0 0 -13.4350285,0 z"
     inkscape:transform-center-y="1.6139611"
     inkscape:transform-center-x="-1.6139611" />
  <circle
     style="opacity:1;fill:#ffffff;fill-rule:evenodd;stroke-width:4;stroke-linecap:round;stroke-linejoin:round"
     id="path844"
     cx="-4.3688951e-07"
     cy="20.497206"
     r="8.5"
     transform="rotate(-45)" />
  <path
     sodipodi:nodetypes="cccccccc"
     style="opacity:0.6;fill:#000000;fill-opacity:1;stroke:#000000;stroke-width:2;stroke-linecap:butt;stroke-linejoin:round;stroke-miterlimit:4;stroke-dasharray:none;stroke-opacity:1"
     d="m 2.9999333,7.4999 6,4.5 v -3 h 4.9999997 v -3 H 8.9999333 v -3 z"
     id="path839"
     inkscape:connector-curvature="0" />
  <path
     sodipodi:nodetypes="cccccccc"
     id="path841"
     d="m 2.9999333,7.4999 6,4.5 v -3 h 4.9999997 v -3 H 8.9999333 v -3 z"
     style="fill:#aee3f8;fill-opacity:1;stroke:none;stroke-width:1px;stroke-linecap:butt;stroke-linejoin:miter;stroke-opacity:1"
     inkscape:connector-curvature="0" />
</svg>
