<svg xmlns="http://www.w3.org/2000/svg" viewBox="0 0 16 16"><g style="line-height:1.25;-inkscape-font-specification:'Ubuntu, Bold';font-variant-ligatures:normal;font-variant-caps:normal;font-variant-numeric:normal;font-feature-settings:normal;text-align:start"><path style="-inkscape-font-specification:'Ubuntu, Bold';font-variant-ligatures:normal;font-variant-caps:normal;font-variant-numeric:normal;font-feature-settings:normal;text-align:start" d="M8.848 4.57c-1.356 0-2.34.38-2.949 1.14-1.037 1.298-.998 2.008-.672 3.384.15.51.373.952.672 1.325.299.373.672.666 1.12.877.448.2.97.299 1.568.299.324 0 .597-.006.821-.019.237-.012.442-.037.616-.074L10 8h3v5.328c-.348.137-.972.28-1.744.43-.771.161-1.723.242-2.856.242-.97 0-1.854-.149-2.65-.448a5.537 5.537 0 01-2.016-1.306c-.56-.573-.996-1.276-1.307-2.11C2.128 9.303 2 8.864 2 7.787 2 6 3.05 4.61 3.864 3.805 4.678 3 5.127 2.778 5.918 2.48a7.145 7.145 0 012.538-.448c.61 0 1.158.043 1.643.13.498.075.92.168 1.27.28.36.1.653.206.877.318.236.112.404.199.504.261l-.84 2.333a7.104 7.104 0 00-1.382-.54 5.535 5.535 0 00-1.68-.244z" aria-label="G" font-weight="700" font-size="18.667" font-family="Ubuntu" letter-spacing="0" word-spacing="0" stroke="#000" opacity=".7" stroke-width="2" stroke-linejoin="round"/></g><g style="line-height:1.25;-inkscape-font-specification:'Ubuntu, Bold';font-variant-ligatures:normal;font-variant-caps:normal;font-variant-numeric:normal;font-feature-settings:normal;text-align:start"><path d="M8.848 4.57c-1.356 0-2.34.38-2.949 1.14-1.037 1.298-.998 2.008-.672 3.384.15.51.373.952.672 1.325.299.373.672.666 1.12.877.448.2.97.299 1.568.299.324 0 .597-.006.821-.019.237-.012.442-.037.616-.074L10 8h3v5.328c-.348.137-.972.28-1.744.43-.771.161-1.723.242-2.856.242-.97 0-1.854-.149-2.65-.448a5.537 5.537 0 01-2.016-1.306c-.56-.573-.996-1.276-1.307-2.11C2.128 9.303 2 8.864 2 7.787 2 6 3.05 4.61 3.864 3.805 4.678 3 5.127 2.778 5.918 2.48a7.145 7.145 0 012.538-.448c.61 0 1.158.043 1.643.13.498.075.92.168 1.27.28.36.1.653.206.877.318.236.112.404.199.504.261l-.84 2.333a7.104 7.104 0 00-1.382-.54 5.535 5.535 0 00-1.68-.244z" style="-inkscape-font-specification:'Ubuntu, Bold';font-variant-ligatures:normal;font-variant-caps:normal;font-variant-numeric:normal;font-feature-settings:normal;text-align:start" aria-label="G" font-weight="700" font-size="18.667" font-family="Ubuntu" letter-spacing="0" word-spacing="0" fill="#fff"/></g></svg>