<?xml version="1.0" encoding="UTF-8" standalone="no"?>
<svg
   height="18"
   viewBox="0 0 140 18"
   width="140"
   version="1.1"
   id="svg48"
   sodipodi:docname="line9.svg"
   inkscape:version="1.4.2 (ebf0e940d0, 2025-05-08)"
   xmlns:inkscape="http://www.inkscape.org/namespaces/inkscape"
   xmlns:sodipodi="http://sodipodi.sourceforge.net/DTD/sodipodi-0.dtd"
   xmlns="http://www.w3.org/2000/svg"
   xmlns:svg="http://www.w3.org/2000/svg"
   xmlns:rdf="http://www.w3.org/1999/02/22-rdf-syntax-ns#"
   xmlns:cc="http://creativecommons.org/ns#"
   xmlns:dc="http://purl.org/dc/elements/1.1/">
  <metadata
     id="metadata54">
    <rdf:RDF>
      <cc:Work
         rdf:about="">
        <dc:format>image/svg+xml</dc:format>
        <dc:type
           rdf:resource="http://purl.org/dc/dcmitype/StillImage" />
        <dc:title />
      </cc:Work>
    </rdf:RDF>
  </metadata>
  <defs
     id="defs52" />
  <sodipodi:namedview
     pagecolor="#ffffff"
     bordercolor="#666666"
     borderopacity="1"
     objecttolerance="10"
     gridtolerance="10"
     guidetolerance="10"
     inkscape:pageopacity="0"
     inkscape:pageshadow="2"
     inkscape:window-width="1920"
     inkscape:window-height="1011"
     id="namedview50"
     showgrid="true"
     inkscape:zoom="15.061374"
     inkscape:cx="24.864929"
     inkscape:cy="9.1957082"
     inkscape:window-x="0"
     inkscape:window-y="0"
     inkscape:window-maximized="1"
     inkscape:current-layer="svg48"
     inkscape:showpageshadow="2"
     inkscape:pagecheckerboard="0"
     inkscape:deskcolor="#d1d1d1">
    <inkscape:grid
       type="xygrid"
       id="grid879"
       originx="0"
       originy="0"
       spacingy="1"
       spacingx="1"
       units="px" />
  </sodipodi:namedview>
  <path
     id="path2"
     style="fill:#0000ff;fill-opacity:1"
     d="m 5,8 v 2 H 7 V 8 Z m 4,0 v 2 h 8 V 8 Z m 10,0 v 2 h 2 V 8 Z m 4,0 v 2 h 2 V 8 Z m 4,0 v 2 h 8 V 8 Z m 10,0 v 2 h 2 V 8 Z m 4,0 v 2 h 2 V 8 Z m 4,0 v 2 h 8 V 8 Z m 10,0 v 2 h 2 V 8 Z m 4,0 v 2 h 2 V 8 Z m 4,0 v 2 h 8 V 8 Z m 10,0 v 2 h 2 V 8 Z m 4,0 v 2 h 2 V 8 Z m 4,0 v 2 h 8 V 8 Z m 10,0 v 2 h 2 V 8 Z m 4,0 v 2 h 2 V 8 Z m 4,0 v 2 h 8 V 8 Z m 10,0 v 2 h 2 V 8 Z m 4,0 v 2 h 2 V 8 Z m 4,0 v 2 h 8 V 8 Z m 10,0 v 2 h 2 V 8 Z m 4,0 v 2 h 2 V 8 Z" />
</svg>
