<?xml version="1.0" encoding="UTF-8" standalone="no"?>
<svg
   height="18"
   viewBox="0 0 140 18"
   width="140"
   version="1.1"
   id="svg38"
   sodipodi:docname="line5.svg"
   inkscape:version="1.4.2 (ebf0e940d0, 2025-05-08)"
   xmlns:inkscape="http://www.inkscape.org/namespaces/inkscape"
   xmlns:sodipodi="http://sodipodi.sourceforge.net/DTD/sodipodi-0.dtd"
   xmlns="http://www.w3.org/2000/svg"
   xmlns:svg="http://www.w3.org/2000/svg"
   xmlns:rdf="http://www.w3.org/1999/02/22-rdf-syntax-ns#"
   xmlns:cc="http://creativecommons.org/ns#"
   xmlns:dc="http://purl.org/dc/elements/1.1/">
  <metadata
     id="metadata44">
    <rdf:RDF>
      <cc:Work
         rdf:about="">
        <dc:format>image/svg+xml</dc:format>
        <dc:type
           rdf:resource="http://purl.org/dc/dcmitype/StillImage" />
        <dc:title />
      </cc:Work>
    </rdf:RDF>
  </metadata>
  <defs
     id="defs42" />
  <sodipodi:namedview
     pagecolor="#ffffff"
     bordercolor="#666666"
     borderopacity="1"
     objecttolerance="10"
     gridtolerance="10"
     guidetolerance="10"
     inkscape:pageopacity="0"
     inkscape:pageshadow="2"
     inkscape:window-width="1920"
     inkscape:window-height="1011"
     id="namedview40"
     showgrid="true"
     inkscape:zoom="10.65"
     inkscape:cx="45.586856"
     inkscape:cy="9.3427233"
     inkscape:window-x="0"
     inkscape:window-y="0"
     inkscape:window-maximized="1"
     inkscape:current-layer="svg38"
     inkscape:showpageshadow="2"
     inkscape:pagecheckerboard="0"
     inkscape:deskcolor="#d1d1d1">
    <inkscape:grid
       type="xygrid"
       id="grid905"
       originx="0"
       originy="0"
       spacingy="1"
       spacingx="1"
       units="px" />
  </sodipodi:namedview>
  <path
     id="path2"
     style="fill:#0000ff;fill-opacity:1"
     d="M 5 7 L 5 11 L 9 11 L 9 7 L 5 7 z M 13 7 L 13 11 L 17 11 L 17 7 L 13 7 z M 21 7 L 21 11 L 25 11 L 25 7 L 21 7 z M 29 7 L 29 11 L 33 11 L 33 7 L 29 7 z M 37 7 L 37 11 L 41 11 L 41 7 L 37 7 z M 45 7 L 45 11 L 49 11 L 49 7 L 45 7 z M 53 7 L 53 11 L 57 11 L 57 7 L 53 7 z M 61 7 L 61 11 L 65 11 L 65 7 L 61 7 z M 69 7 L 69 11 L 73 11 L 73 7 L 69 7 z M 77 7 L 77 11 L 81 11 L 81 7 L 77 7 z M 85 7 L 85 11 L 89 11 L 89 7 L 85 7 z M 93 7 L 93 11 L 97 11 L 97 7 L 93 7 z M 101 7 L 101 11 L 105 11 L 105 7 L 101 7 z M 109 7 L 109 11 L 113 11 L 113 7 L 109 7 z M 117 7 L 117 11 L 121 11 L 121 7 L 117 7 z M 125 7 L 125 11 L 129 11 L 129 7 L 125 7 z M 133 7 L 133 11 L 137 11 L 137 7 L 133 7 z " />
</svg>
