<?xml version="1.0" encoding="UTF-8" standalone="no"?>
<svg
   height="18"
   viewBox="0 0 140 18"
   width="140"
   version="1.1"
   id="svg22"
   sodipodi:docname="line7.svg"
   inkscape:version="1.4.2 (ebf0e940d0, 2025-05-08)"
   xmlns:inkscape="http://www.inkscape.org/namespaces/inkscape"
   xmlns:sodipodi="http://sodipodi.sourceforge.net/DTD/sodipodi-0.dtd"
   xmlns="http://www.w3.org/2000/svg"
   xmlns:svg="http://www.w3.org/2000/svg"
   xmlns:rdf="http://www.w3.org/1999/02/22-rdf-syntax-ns#"
   xmlns:cc="http://creativecommons.org/ns#"
   xmlns:dc="http://purl.org/dc/elements/1.1/">
  <metadata
     id="metadata28">
    <rdf:RDF>
      <cc:Work
         rdf:about="">
        <dc:format>image/svg+xml</dc:format>
        <dc:type
           rdf:resource="http://purl.org/dc/dcmitype/StillImage" />
        <dc:title />
      </cc:Work>
    </rdf:RDF>
  </metadata>
  <defs
     id="defs26" />
  <sodipodi:namedview
     pagecolor="#ffffff"
     bordercolor="#666666"
     borderopacity="1"
     objecttolerance="10"
     gridtolerance="10"
     guidetolerance="10"
     inkscape:pageopacity="0"
     inkscape:pageshadow="2"
     inkscape:window-width="1920"
     inkscape:window-height="1011"
     id="namedview24"
     showgrid="true"
     inkscape:zoom="10.65"
     inkscape:cx="26.807512"
     inkscape:cy="8.4037559"
     inkscape:window-x="0"
     inkscape:window-y="0"
     inkscape:window-maximized="1"
     inkscape:current-layer="svg22"
     inkscape:showpageshadow="2"
     inkscape:pagecheckerboard="0"
     inkscape:deskcolor="#d1d1d1">
    <inkscape:grid
       id="grid1"
       units="px"
       originx="0"
       originy="0"
       spacingx="1"
       spacingy="1"
       empcolor="#0099e5"
       empopacity="0.30196078"
       color="#0099e5"
       opacity="0.14901961"
       empspacing="5"
       enabled="true"
       visible="true" />
  </sodipodi:namedview>
  <path
     id="path2"
     style="fill:#0000ff;fill-opacity:1"
     d="M 5 8 L 5 10 L 17 10 L 17 8 L 5 8 z M 21 8 L 21 10 L 33 10 L 33 8 L 21 8 z M 37 8 L 37 10 L 49 10 L 49 8 L 37 8 z M 53 8 L 53 10 L 65 10 L 65 8 L 53 8 z M 69 8 L 69 10 L 81 10 L 81 8 L 69 8 z M 85 8 L 85 10 L 97 10 L 97 8 L 85 8 z M 101 8 L 101 10 L 113 10 L 113 8 L 101 8 z M 117 8 L 117 10 L 129 10 L 129 8 L 117 8 z M 133 8 L 133 10 L 135 10 L 135 8 L 133 8 z " />
</svg>
