<svg viewBox="0 0 16 16" xmlns="http://www.w3.org/2000/svg"><path style="opacity:.6;fill:#000;fill-opacity:1;fill-rule:evenodd;stroke-width:.75;stroke-linecap:square;stroke-linejoin:round" d="M3 1a1.989 1.989 0 0 0-2 2v11h9.072l-.92-1.47A1 1 0 0 1 10 11h1V8a1 1 0 0 1 1-1h1a1 1 0 0 1 1 1v3h1V3c0-1.108-.892-2-2-2H3zm12 12.885-.072.115H15v-.115z"/><path style="fill:#fff;fill-opacity:1;fill-rule:evenodd;stroke:none;stroke-width:.75;stroke-linecap:square;stroke-linejoin:round;stroke-opacity:1" d="M2 6v7h7.447l-.295-.47A1 1 0 0 1 10 11h1V8a1 1 0 0 1 1-1h1a1 1 0 0 1 1 1V6H2zM3 2c-.554 0-1 .446-1 1v2h12V3c0-.554-.446-1-1-1z"/><path style="fill:#232629;fill-opacity:1;fill-rule:evenodd;stroke:none;stroke-width:.75;stroke-linecap:square;stroke-linejoin:round;stroke-opacity:1" d="M12 3h1v1h-1zM10 3h1v1h-1zM8 3h1v1H8z"/><path style="fill:#308280;fill-opacity:1;stroke:none;stroke-width:1px;stroke-linecap:butt;stroke-linejoin:miter;stroke-opacity:1" d="M12.5 16 10 12h2V8h1v4h2z"/></svg>