<?xml version="1.0" encoding="UTF-8" standalone="no"?>
<svg
   viewBox="0 0 22 10"
   version="1.1"
   id="svg4"
   sodipodi:docname="doublepage_10x22.svg"
   inkscape:version="1.2 (1:1.2.1+202207142221+cd75a1ee6d)"
   inkscape:export-filename="/home/jupiter007/Libreoffice yaru theme fullcolor/build/sw/res/doublepage_10x22.png"
   inkscape:export-xdpi="95"
   inkscape:export-ydpi="95"
   xmlns:inkscape="http://www.inkscape.org/namespaces/inkscape"
   xmlns:sodipodi="http://sodipodi.sourceforge.net/DTD/sodipodi-0.dtd"
   xmlns="http://www.w3.org/2000/svg"
   xmlns:svg="http://www.w3.org/2000/svg"
   xmlns:rdf="http://www.w3.org/1999/02/22-rdf-syntax-ns#"
   xmlns:cc="http://creativecommons.org/ns#"
   xmlns:dc="http://purl.org/dc/elements/1.1/">
  <metadata
     id="metadata10">
    <rdf:RDF>
      <cc:Work
         rdf:about="">
        <dc:format>image/svg+xml</dc:format>
        <dc:type
           rdf:resource="http://purl.org/dc/dcmitype/StillImage" />
      </cc:Work>
    </rdf:RDF>
  </metadata>
  <defs
     id="defs8" />
  <sodipodi:namedview
     pagecolor="#ffffff"
     bordercolor="#666666"
     borderopacity="1"
     objecttolerance="10"
     gridtolerance="10"
     guidetolerance="10"
     inkscape:pageopacity="0"
     inkscape:pageshadow="2"
     inkscape:window-width="1920"
     inkscape:window-height="1043"
     id="namedview6"
     showgrid="true"
     inkscape:zoom="28.927096"
     inkscape:cx="3.6470996"
     inkscape:cy="6.0496913"
     inkscape:window-x="0"
     inkscape:window-y="0"
     inkscape:window-maximized="1"
     inkscape:current-layer="svg4"
     inkscape:showpageshadow="2"
     inkscape:pagecheckerboard="0"
     inkscape:deskcolor="#d1d1d1">
    <inkscape:grid
       type="xygrid"
       id="grid814" />
  </sodipodi:namedview>
  <path
     id="path2-7"
     style="fill:#6d6d6d;fill-opacity:1"
     d="m 7,0 -3,3 v 1 3 c 0,2.999997 1.000003,3 4,3 1.403382,0 2.369576,4.63e-4 3,-0.306641 0.630424,0.307104 1.596618,0.306641 3,0.306641 2.999997,0 4,-3e-6 4,-3 v -3 -1 l -3,-3 h -1 c -1.403382,0 -2.369576,-4.6349999e-4 -3,0.3066406 -0.630424,-0.30710409999 -1.596618,-0.3066406 -3,-0.3066406 z m 1,1 c 0.9776319,0 1.715094,7.782e-4 2.214844,0.234375 -0.148359,0.4253305 -0.214844,0.9963749 -0.214844,1.765625 v 4 c 0,0.76925 0.06649,1.340295 0.214844,1.765625 -0.49975,0.233597 -1.2372121,0.234375 -2.214844,0.234375 -1.999998,0 -3,-2e-6 -3,-2 v -3 h 2 1 v -1 z m 6,0 v 2 1 h 1 2 v 3 c 0,1.999998 -1.000002,2 -3,2 -0.977632,0 -1.715094,-7.78e-4 -2.214844,-0.234375 0.148359,-0.42533 0.214844,-0.996375 0.214844,-1.765625 v -4 c 0,-0.7692501 -0.06649,-1.3402945 -0.214844,-1.765625 0.49975,-0.2335968 1.237212,-0.234375 2.214844,-0.234375 z" />
  <path
     id="path828"
     style="fill:#ffffff;fill-opacity:1;stroke:none;stroke-width:1px;stroke-linecap:butt;stroke-linejoin:miter;stroke-opacity:1"
     d="m 8,1 v 2 1 h -1 -2 v 3 c 0,1.999996 1.000004,2 3,2 1.999996,0 3,-4e-6 3,-2 0,1.999996 1.000004,2 3,2 1.999996,0 3,-4e-6 3,-2 v -3 h -2 -1 v -1 -2 c -1.999996,0 -3,4e-6 -3,2 0,-1.999996 -1.000004,-2 -3,-2 z" />
</svg>
