<?xml version="1.0" encoding="UTF-8" standalone="no"?>
<svg
   viewBox="0 0 22 10"
   version="1.1"
   id="svg4"
   sodipodi:docname="doublepage_a_10x22.svg"
   inkscape:version="1.2 (1:1.2.1+202207142221+cd75a1ee6d)"
   inkscape:export-filename="/home/jupiter007/Libreoffice yaru theme fullcolor/build/sw/res/doublepage_a_10x22.png"
   inkscape:export-xdpi="95"
   inkscape:export-ydpi="95"
   xmlns:inkscape="http://www.inkscape.org/namespaces/inkscape"
   xmlns:sodipodi="http://sodipodi.sourceforge.net/DTD/sodipodi-0.dtd"
   xmlns="http://www.w3.org/2000/svg"
   xmlns:svg="http://www.w3.org/2000/svg"
   xmlns:rdf="http://www.w3.org/1999/02/22-rdf-syntax-ns#"
   xmlns:cc="http://creativecommons.org/ns#"
   xmlns:dc="http://purl.org/dc/elements/1.1/">
  <metadata
     id="metadata10">
    <rdf:RDF>
      <cc:Work
         rdf:about="">
        <dc:format>image/svg+xml</dc:format>
        <dc:type
           rdf:resource="http://purl.org/dc/dcmitype/StillImage" />
      </cc:Work>
    </rdf:RDF>
  </metadata>
  <defs
     id="defs8" />
  <sodipodi:namedview
     pagecolor="#ffffff"
     bordercolor="#666666"
     borderopacity="1"
     objecttolerance="10"
     gridtolerance="10"
     guidetolerance="10"
     inkscape:pageopacity="0"
     inkscape:pageshadow="2"
     inkscape:window-width="1920"
     inkscape:window-height="1043"
     id="namedview6"
     showgrid="true"
     inkscape:zoom="40.909091"
     inkscape:cx="11.281111"
     inkscape:cy="3.7888888"
     inkscape:window-x="0"
     inkscape:window-y="0"
     inkscape:window-maximized="1"
     inkscape:current-layer="svg4"
     inkscape:showpageshadow="2"
     inkscape:pagecheckerboard="0"
     inkscape:deskcolor="#d1d1d1">
    <inkscape:grid
       type="xygrid"
       id="grid817" />
  </sodipodi:namedview>
  <path
     id="path2-7"
     style="fill:#00ffff;fill-opacity:1"
     d="M 7 0 L 4 3 L 4 4 L 4 7 C 4 9.9999966 5.000003 10 8 10 C 9.4033816 10 10.369576 10.000463 11 9.6933594 C 11.630424 10.000463 12.596618 10 14 10 C 16.999997 10 18 9.9999966 18 7 L 18 4 L 18 3 L 15 0 L 14 0 C 12.596618 0 11.630424 -0.00046351136 11 0.30664062 C 10.369576 -0.00046351136 9.4033816 0 8 0 L 7 0 z M 8 1 C 8.9776319 1 9.7150944 1.0007782 10.214844 1.234375 C 10.066485 1.6597055 10 2.2307499 10 3 L 10 7 C 10 7.76925 10.066485 8.3402946 10.214844 8.765625 C 9.7150944 8.9992218 8.9776319 9 8 9 C 6.000002 9 5 8.999998 5 7 L 5 4 L 7 4 L 8 4 L 8 3 L 8 1 z M 14 1 L 14 3 L 14 4 L 15 4 L 17 4 L 17 7 C 17 8.999998 15.999998 9 14 9 C 13.022368 9 12.284906 8.9992218 11.785156 8.765625 C 11.933515 8.3402946 12 7.76925 12 7 L 12 3 C 12 2.2307499 11.933515 1.6597055 11.785156 1.234375 C 12.284906 1.0007782 13.022368 1 14 1 z " />
  <path
     id="path828"
     style="fill:#ffffff;fill-opacity:1;stroke:none;stroke-width:1px;stroke-linecap:butt;stroke-linejoin:miter;stroke-opacity:1"
     d="M 8 1 L 8 3 L 8 4 L 7 4 L 5 4 L 5 7 C 5 8.999996 6.000004 9 8 9 C 9.999996 9 11 8.999996 11 7 C 11 8.999996 12.000004 9 14 9 C 15.999996 9 17 8.999996 17 7 L 17 4 L 15 4 L 14 4 L 14 3 L 14 1 C 12.000004 1 11 1.000004 11 3 C 11 1.000004 9.999996 1 8 1 z " />
</svg>
