<?xml version="1.0" encoding="UTF-8" standalone="no"?>
<svg
   viewBox="0 0 24 16"
   version="1.1"
   id="svg4"
   sodipodi:docname="doublepage_a.svg"
   inkscape:version="1.2 (1:1.2.1+202207142221+cd75a1ee6d)"
   inkscape:export-filename="/home/jupiter007/Libreoffice yaru theme fullcolor/build/sw/res/doublepage_a_10x22.png"
   inkscape:export-xdpi="95"
   inkscape:export-ydpi="95"
   width="24"
   height="16"
   xmlns:inkscape="http://www.inkscape.org/namespaces/inkscape"
   xmlns:sodipodi="http://sodipodi.sourceforge.net/DTD/sodipodi-0.dtd"
   xmlns="http://www.w3.org/2000/svg"
   xmlns:svg="http://www.w3.org/2000/svg"
   xmlns:rdf="http://www.w3.org/1999/02/22-rdf-syntax-ns#"
   xmlns:cc="http://creativecommons.org/ns#"
   xmlns:dc="http://purl.org/dc/elements/1.1/">
  <metadata
     id="metadata10">
    <rdf:RDF>
      <cc:Work
         rdf:about="">
        <dc:format>image/svg+xml</dc:format>
        <dc:type
           rdf:resource="http://purl.org/dc/dcmitype/StillImage" />
      </cc:Work>
    </rdf:RDF>
  </metadata>
  <defs
     id="defs8" />
  <sodipodi:namedview
     pagecolor="#ffffff"
     bordercolor="#666666"
     borderopacity="1"
     objecttolerance="10"
     gridtolerance="10"
     guidetolerance="10"
     inkscape:pageopacity="0"
     inkscape:pageshadow="2"
     inkscape:window-width="1920"
     inkscape:window-height="1043"
     id="namedview6"
     showgrid="false"
     inkscape:zoom="28.927096"
     inkscape:cx="7.0694964"
     inkscape:cy="9.3338094"
     inkscape:window-x="0"
     inkscape:window-y="0"
     inkscape:window-maximized="1"
     inkscape:current-layer="svg4"
     inkscape:showpageshadow="2"
     inkscape:pagecheckerboard="0"
     inkscape:deskcolor="#d1d1d1">
    <inkscape:grid
       type="xygrid"
       id="grid817"
       originx="0"
       originy="0" />
  </sodipodi:namedview>
  <path
     sodipodi:nodetypes="ccccccccc"
     style="opacity:1;fill:#00ffff;stroke:#00ffff;stroke-width:2;stroke-linejoin:round;stroke-miterlimit:4;stroke-dasharray:none"
     id="path815"
     d="m 12,12 v -8 c 0,-2 1,-2 3,-2 h 4 l 3,3 v 7 c 0,2 -1,2 -3,2 h -4 c -2,0 -3,0 -3,-2 z"
     inkscape:connector-curvature="0" />
  <path
     sodipodi:nodetypes="ccccccccc"
     style="opacity:1;fill:#00ffff;stroke:#00ffff;stroke-width:2;stroke-linejoin:round;stroke-miterlimit:4;stroke-dasharray:none"
     id="path455"
     d="m 12,12 v -8.0000004 c 0,-2 -1,-2 -3,-2 h -4 l -3,3 v 7.0000004 c 0,2 1,2 3,2 h 4 c 2,0 3,0 3,-2 z"
     inkscape:connector-curvature="0" />
  <path
     id="path457"
     style="fill:#ffffff"
     d="M 5 2 L 2 5 L 2 12 C 2 13.999998 3.000002 14 5 14 L 9 14 C 10.999998 14 12 13.999998 12 12 C 12 13.999998 13.000002 14 15 14 L 19 14 C 20.999998 14 22 13.999998 22 12 L 22 5 L 19 2 L 15 2 C 13.000002 2 12 2.000002 12 4 C 12 2.000002 10.999998 2 9 2 L 5 2 z " />
  <path
     inkscape:connector-curvature="0"
     d="m 19,5 v -3 l 3,3 z"
     id="path4"
     style="fill:#00ffff;fill-opacity:1"
     sodipodi:nodetypes="cccc" />
  <path
     inkscape:connector-curvature="0"
     d="m 5,4.9999996 v -3 l -3,3 z"
     id="path459"
     style="fill:#00ffff;fill-opacity:1"
     sodipodi:nodetypes="cccc" />
</svg>
