<?xml version="1.0" encoding="UTF-8" standalone="no"?>
<svg
   viewBox="0 0 17 15"
   version="1.1"
   id="svg4"
   sodipodi:docname="re01.svg"
   inkscape:version="1.2 (1:1.2.1+202207142221+cd75a1ee6d)"
   inkscape:export-filename="/home/jupiter007/Libreoffice yaru theme fullcolor/build/sw/res/doublepage_a_10x22.png"
   inkscape:export-xdpi="95"
   inkscape:export-ydpi="95"
   width="17"
   height="15"
   xmlns:inkscape="http://www.inkscape.org/namespaces/inkscape"
   xmlns:sodipodi="http://sodipodi.sourceforge.net/DTD/sodipodi-0.dtd"
   xmlns="http://www.w3.org/2000/svg"
   xmlns:svg="http://www.w3.org/2000/svg"
   xmlns:rdf="http://www.w3.org/1999/02/22-rdf-syntax-ns#"
   xmlns:cc="http://creativecommons.org/ns#"
   xmlns:dc="http://purl.org/dc/elements/1.1/">
  <metadata
     id="metadata10">
    <rdf:RDF>
      <cc:Work
         rdf:about="">
        <dc:format>image/svg+xml</dc:format>
        <dc:type
           rdf:resource="http://purl.org/dc/dcmitype/StillImage" />
      </cc:Work>
    </rdf:RDF>
  </metadata>
  <defs
     id="defs8" />
  <sodipodi:namedview
     pagecolor="#ffffff"
     bordercolor="#666666"
     borderopacity="1"
     objecttolerance="10"
     gridtolerance="10"
     guidetolerance="10"
     inkscape:pageopacity="0"
     inkscape:pageshadow="2"
     inkscape:window-width="1920"
     inkscape:window-height="1043"
     id="namedview6"
     showgrid="true"
     inkscape:zoom="90.509668"
     inkscape:cx="5.7562912"
     inkscape:cy="6.9053397"
     inkscape:window-x="0"
     inkscape:window-y="0"
     inkscape:window-maximized="1"
     inkscape:current-layer="svg4"
     inkscape:showpageshadow="2"
     inkscape:pagecheckerboard="0"
     inkscape:deskcolor="#d1d1d1">
    <inkscape:grid
       type="xygrid"
       id="grid817"
       originx="0"
       originy="0" />
  </sodipodi:namedview>
  <path
     id="path1474"
     style="fill:#fee581;fill-opacity:1;fill-rule:evenodd;stroke:#000000;stroke-width:2;stroke-linecap:round;stroke-linejoin:round;opacity:0.7"
     d="M 8.9511719 3 A 2 2 0 0 0 7 5 L 7 7 L 3 7 L 3 11 L 9 11 L 9 7 L 8 7 L 8 5 A 1 1 0 0 1 9 4 A 1 1 0 0 1 10 5 L 10 7 L 11 7 L 11 5 A 2 2 0 0 0 9 3 A 2 2 0 0 0 8.9511719 3 z " />
  <path
     id="path874"
     style="fill:#fee581;fill-opacity:1;fill-rule:evenodd;stroke:none;stroke-width:2;stroke-linecap:round;stroke-linejoin:round"
     d="m 8.9511719,3 a 2,2 0 0 0 -1.9511719,2 v 2 h -4 v 4 h 6 v -4 h -1 v -2 a 1,1 0 0 1 1,-1 1,1 0 0 1 1,1 v 2 h 1 v -2 a 2,2 0 0 0 -2,-2 2,2 0 0 0 -0.048828,0 z" />
</svg>
