<?xml version="1.0" encoding="UTF-8" standalone="no"?>
<svg
   viewBox="0 0 24 16"
   version="1.1"
   id="svg4"
   sodipodi:docname="twopages_a.svg"
   inkscape:version="1.2 (1:1.2.1+202207142221+cd75a1ee6d)"
   inkscape:export-filename="/home/jupiter007/Libreoffice yaru theme fullcolor/build/sw/res/doublepage_a_10x22.png"
   inkscape:export-xdpi="95"
   inkscape:export-ydpi="95"
   width="24"
   height="16"
   xmlns:inkscape="http://www.inkscape.org/namespaces/inkscape"
   xmlns:sodipodi="http://sodipodi.sourceforge.net/DTD/sodipodi-0.dtd"
   xmlns="http://www.w3.org/2000/svg"
   xmlns:svg="http://www.w3.org/2000/svg"
   xmlns:rdf="http://www.w3.org/1999/02/22-rdf-syntax-ns#"
   xmlns:cc="http://creativecommons.org/ns#"
   xmlns:dc="http://purl.org/dc/elements/1.1/">
  <metadata
     id="metadata10">
    <rdf:RDF>
      <cc:Work
         rdf:about="">
        <dc:format>image/svg+xml</dc:format>
        <dc:type
           rdf:resource="http://purl.org/dc/dcmitype/StillImage" />
      </cc:Work>
    </rdf:RDF>
  </metadata>
  <defs
     id="defs8" />
  <sodipodi:namedview
     pagecolor="#ffffff"
     bordercolor="#666666"
     borderopacity="1"
     objecttolerance="10"
     gridtolerance="10"
     guidetolerance="10"
     inkscape:pageopacity="0"
     inkscape:pageshadow="2"
     inkscape:window-width="1920"
     inkscape:window-height="1043"
     id="namedview6"
     showgrid="true"
     inkscape:zoom="14.463548"
     inkscape:cx="2.5927248"
     inkscape:cy="8.9189733"
     inkscape:window-x="0"
     inkscape:window-y="0"
     inkscape:window-maximized="1"
     inkscape:current-layer="svg4"
     inkscape:showpageshadow="2"
     inkscape:pagecheckerboard="0"
     inkscape:deskcolor="#d1d1d1">
    <inkscape:grid
       type="xygrid"
       id="grid817"
       originx="0"
       originy="0" />
  </sodipodi:namedview>
  <path
     sodipodi:nodetypes="ccccccccc"
     style="opacity:1;fill:#00ffff;stroke:#00ffff;stroke-width:2;stroke-linejoin:round;stroke-miterlimit:4;stroke-dasharray:none"
     id="path815"
     d="m 1,12 v -8 c 0,-2 1,-2 3,-2 h 4 l 3,3 v 7 c 0,2 -1,2 -3,2 h -4 c -2,0 -3,0 -3,-2 z"
     inkscape:connector-curvature="0" />
  <path
     inkscape:connector-curvature="0"
     d="m 1,12 v -8 c 0,-2 1,-2 3,-2 h 4 l 3,3 v 7 c 0,2 -1,2 -3,2 h -4 c -2,0 -3,0 -3,-2 z"
     id="path2"
     style="fill:#ffffff"
     sodipodi:nodetypes="ccccccccc" />
  <path
     inkscape:connector-curvature="0"
     d="m 8,5 v -3 l 3,3 z"
     id="path4"
     style="fill:#00ffff;fill-opacity:1" />
  <path
     sodipodi:nodetypes="ccccccccc"
     style="opacity:1;fill:#00ffff;stroke:#00ffff;stroke-width:2;stroke-linejoin:round;stroke-miterlimit:4;stroke-dasharray:none"
     id="path291"
     d="m 13,12 v -8 c 0,-2 1,-2 3,-2 h 4 l 3,3 v 7 c 0,2 -1,2 -3,2 h -4 c -2,0 -3,0 -3,-2 z"
     inkscape:connector-curvature="0" />
  <path
     inkscape:connector-curvature="0"
     d="m 13,12 v -8 c 0,-2 1,-2 3,-2 h 4 l 3,3 v 7 c 0,2 -1,2 -3,2 h -4 c -2,0 -3,0 -3,-2 z"
     id="path293"
     style="fill:#ffffff"
     sodipodi:nodetypes="ccccccccc" />
  <path
     inkscape:connector-curvature="0"
     d="m 20,5 v -3 l 3,3 z"
     id="path295"
     style="fill:#00ffff;fill-opacity:1" />
</svg>
