<?xml version="1.0" encoding="UTF-8" standalone="no"?>
<svg
   viewBox="0 0 32 32"
   version="1.1"
   id="svg6"
   sodipodi:docname="wr08.svg"
   width="32"
   height="32"
   inkscape:export-filename="/home/jupiter007/Libreoffice yaru theme fullcolor/build/sw/res/wr08.png"
   inkscape:export-xdpi="96"
   inkscape:export-ydpi="96"
   inkscape:version="1.4.2 (ebf0e940d0, 2025-05-08)"
   xmlns:inkscape="http://www.inkscape.org/namespaces/inkscape"
   xmlns:sodipodi="http://sodipodi.sourceforge.net/DTD/sodipodi-0.dtd"
   xmlns="http://www.w3.org/2000/svg"
   xmlns:svg="http://www.w3.org/2000/svg"
   xmlns:rdf="http://www.w3.org/1999/02/22-rdf-syntax-ns#"
   xmlns:cc="http://creativecommons.org/ns#"
   xmlns:dc="http://purl.org/dc/elements/1.1/">
  <metadata
     id="metadata12">
    <rdf:RDF>
      <cc:Work
         rdf:about="">
        <dc:format>image/svg+xml</dc:format>
        <dc:type
           rdf:resource="http://purl.org/dc/dcmitype/StillImage" />
        <dc:title />
      </cc:Work>
    </rdf:RDF>
  </metadata>
  <defs
     id="defs10" />
  <sodipodi:namedview
     pagecolor="#ffffff"
     bordercolor="#666666"
     borderopacity="1"
     objecttolerance="10"
     gridtolerance="10"
     guidetolerance="10"
     inkscape:pageopacity="0"
     inkscape:pageshadow="2"
     inkscape:window-width="1920"
     inkscape:window-height="1011"
     id="namedview8"
     showgrid="true"
     inkscape:zoom="21.532542"
     inkscape:cx="13.723415"
     inkscape:cy="13.166119"
     inkscape:window-x="0"
     inkscape:window-y="0"
     inkscape:window-maximized="1"
     inkscape:current-layer="svg6"
     inkscape:document-rotation="0"
     inkscape:showpageshadow="2"
     inkscape:pagecheckerboard="0"
     inkscape:deskcolor="#d1d1d1">
    <inkscape:grid
       type="xygrid"
       id="grid842"
       originx="0"
       originy="0"
       spacingy="1"
       spacingx="1"
       units="px" />
  </sodipodi:namedview>
  <path
     d="M 23.5,8.928932 16,16.5 23.5,24 31.000041,16.5 Z"
     id="path2"
     inkscape:connector-curvature="0"
     style="fill:#00ff00;fill-opacity:1;stroke-width:0.857143"
     sodipodi:nodetypes="ccccc" />
  <path
     id="rect850"
     style="fill:#0000ff;fill-opacity:1;fill-rule:evenodd;stroke:none;stroke-width:2;stroke-linecap:round;stroke-linejoin:round"
     d="M 3 6 L 3 7 L 23 7 L 23 6 L 3 6 z M 3 8 L 3 9 L 21 9 L 21 8 L 3 8 z M 3 10 L 3 11 L 19 11 L 19 10 L 3 10 z M 3 12 L 3 13 L 17 13 L 17 12 L 3 12 z M 3 14 L 3 15 L 15 15 L 15 14 L 3 14 z M 3 16 L 3 17 L 14 17 L 14 16 L 3 16 z M 3 18 L 3 19 L 15 19 L 15 18 L 3 18 z M 3 20 L 3 21 L 17 21 L 17 20 L 3 20 z M 3 22 L 3 23 L 19 23 L 19 22 L 3 22 z M 3 24 L 3 25 L 21 25 L 21 24 L 3 24 z M 3 26 L 3 27 L 23 27 L 23 26 L 3 26 z " />
</svg>
