<svg xmlns="http://www.w3.org/2000/svg" viewBox="0 0 24 24"><path style="opacity:1;fill:#3584e4;fill-opacity:1;stroke:none;stroke-width:2;stroke-linecap:round;stroke-linejoin:round;stroke-miterlimit:4;stroke-dasharray:none;stroke-opacity:1" d="M20 9v1h-1v2h1v1h-3v-1h1v-2h-1V9ZM22 14v1h-1v2h1v1h-5v-1h1v-2h-1v-1zm-2 1h-1v2h1z"/><path style="opacity:.7;fill:#000;stroke:#000;stroke-width:2;stroke-linejoin:round;stroke-miterlimit:4;stroke-dasharray:none" d="M5 20c-2 0-3 0-3-2V6c0-2 1-2 3-2h5l1 1 2 2 1 1v10c0 2-1 2-3 2z"/><path d="M5 20c-2 0-3 0-3-2V6c0-2 1-2 3-2h5l1 1 2 2 1 1v10c0 2-1 2-3 2z" style="fill:#fff"/><path d="M10 8V4l4 4z" style="fill:#6d6d6d;fill-opacity:1"/><path style="fill:#232629;fill-opacity:1;fill-rule:evenodd;stroke-width:2;stroke-linecap:round;stroke-linejoin:round" d="M4 10h8v1H4zM4 12h8v1H4zM4 14h8v1H4zM4 16h8v1H4z"/></svg>