<?xml version="1.0" encoding="UTF-8" standalone="no"?>
<svg
   xmlns:dc="http://purl.org/dc/elements/1.1/"
   xmlns:cc="http://creativecommons.org/ns#"
   xmlns:rdf="http://www.w3.org/1999/02/22-rdf-syntax-ns#"
   xmlns:svg="http://www.w3.org/2000/svg"
   xmlns="http://www.w3.org/2000/svg"
   xmlns:sodipodi="http://sodipodi.sourceforge.net/DTD/sodipodi-0.dtd"
   xmlns:inkscape="http://www.inkscape.org/namespaces/inkscape"
   viewBox="0 0 16 16"
   version="1.1"
   id="svg4"
   sodipodi:docname="sc_underlinedouble.svg"
   inkscape:version="1.0.1 (3bc2e813f5, 2020-09-07)"
   inkscape:export-filename="/home/jupiter007/Libreoffice yaru theme fullcolor/build/cmd/pl/sc_underlinedouble.png"
   inkscape:export-xdpi="96"
   inkscape:export-ydpi="96">
  <metadata
     id="metadata10">
    <rdf:RDF>
      <cc:Work
         rdf:about="">
        <dc:format>image/svg+xml</dc:format>
        <dc:type
           rdf:resource="http://purl.org/dc/dcmitype/StillImage" />
      </cc:Work>
    </rdf:RDF>
  </metadata>
  <defs
     id="defs8" />
  <sodipodi:namedview
     pagecolor="#ffffff"
     bordercolor="#666666"
     borderopacity="1"
     objecttolerance="10"
     gridtolerance="10"
     guidetolerance="10"
     inkscape:pageopacity="0"
     inkscape:pageshadow="2"
     inkscape:window-width="1920"
     inkscape:window-height="1011"
     id="namedview6"
     showgrid="true"
     inkscape:zoom="41.7193"
     inkscape:cx="5.856716"
     inkscape:cy="8.2767557"
     inkscape:window-x="0"
     inkscape:window-y="0"
     inkscape:window-maximized="1"
     inkscape:current-layer="svg4"
     inkscape:document-rotation="0">
    <inkscape:grid
       type="xygrid"
       id="grid827" />
  </sodipodi:namedview>
  <path
     id="path860"
     style="opacity:0.7;fill:#000000;stroke:#000000;stroke-width:2;stroke-linejoin:round;stroke-miterlimit:4;stroke-dasharray:none"
     d="M 4,1 V 12 H 6 V 8 H 9 C 10.65685,8 12,6.433 12,4.5 12,2.567 10.65685,1 9,1 H 6 5 Z M 6,3 H 8 A 2,1.5 0 0 1 10,4.5 2,1.5 0 0 1 8,6 H 6 Z" />
  <path
     id="path821"
     style="fill:#ffffff"
     d="M 4,1 V 12 H 6 V 8 H 9 C 10.65685,8 12,6.433 12,4.5 12,2.567 10.65685,1 9,1 H 6 5 Z M 6,3 H 8 A 2,1.5 0 0 1 10,4.5 2,1.5 0 0 1 8,6 H 6 Z" />
  <path
     style="opacity:0.7;fill:#000000;stroke:#000000;stroke-width:2;stroke-linejoin:round;stroke-miterlimit:4;stroke-dasharray:none"
     d="M 2 12 L 2 13 L 14 13 L 14 12 L 2 12 z M 2 14 L 2 15 L 14 15 L 14 14 L 2 14 z "
     id="path826" />
  <path
     d="m 2,14 v 1 h 12 v -1 z"
     id="path2"
     inkscape:connector-curvature="0"
     style="fill:#ffffff" />
  <path
     style="fill:#ffffff"
     inkscape:connector-curvature="0"
     id="path829"
     d="m 2,12 v 1 h 12 v -1 z" />
</svg>
