<svg xmlns="http://www.w3.org/2000/svg" viewBox="0 0 32 32"><circle cx="16" cy="16" r="12" fill="#fff" fill-rule="evenodd"/><path d="M16 4C9.373 4 4 9.373 4 16s5.373 12 12 12 12-5.373 12-12S22.627 4 16 4zm0 2c.345 0 .664.028 1 .063.08.008.17-.01.25 0 .105.013.208.045.313.062.287.045.534.118.812.188a10.07 10.07 0 011.5.5c.264.111.498.241.75.375 0 .018.002.04 0 .062.058.026.09.134.188.188.035.02.028.044.062.062.058.032.137.067.125.125-.016.08-.132.063-.188.125.008.116-.095.11-.125.188.018.05.118.065.125.125-.01.063-.149.058-.125.124.109.085.211.02.313 0 .224-.027.425-.01.563-.124-.018-.107.199-.092.187-.188.057.042.13.083.188.125-.022.02-.039.052-.063.063-.042.02-.087.038-.125.062-.056.036-.123.083-.188.125-.045.032-.139.188-.187.188-.058 0-.145-.075-.188-.063-.06.02-.057.101-.125.125-.131.048-.391-.073-.437.125.056.114.275.061.375.125.062.04.172.182.188.25.016.056.023.315 0 .375-.063.16-.254.127-.438.125h-.125c-.31-.02-.61-.16-.75.063.01.17.038.289 0 .437-.028.108-.194.22-.188.313.003.047.114.119.125.187.008.036-.016.091 0 .125.053.098.158-.02.25 0 .088.02.188.152.188.25 0 .07-.018.182-.063.25-.088.132-.249.116-.375.188-.103.06-.125.209-.187.312-.066.112-.151.152-.125.313a.73.73 0 01-.375.374c-.054.025-.138.027-.188.063-.04.028-.068.123-.125.188-.07.077-.149.127-.187.187-.028.046-.033.123-.063.188-.044.083-.131.103-.187.187-.026.04-.035.136-.063.188-.064.115-.137.21-.125.312.01.096.12.1.125.188.006.047-.064.07-.062.124.002.077.057.128.063.188.014.148-.098.211-.125.313-.014.047.012.084 0 .124-.024.075-.123.162-.125.25-.003.063.119.1.125.188.004.058-.075.132-.063.188.022.107.229.228.313.312.114.114.262.193.312.313.042.101.047.298.125.374.058.056.176.065.25.125.07.054.114.065.188.125.121.096.306.327.5.313.101-.02.198-.105.312-.125.118-.02.255-.072.375-.063.092.02.217.069.313.063.1-.02.198-.013.312-.063.198-.086.525-.228.813-.187.22.032.22.277.375.375.175.02.297-.034.437 0 .106.026.24.167.25.25.01.086-.113.196-.125.25-.028.116.02.238 0 .313-.016.058-.064.129-.063.187 0 .052.071.182.125.25.066.084.17.16.25.25.146.168.211.34.313.563.026.056-.024.115 0 .187-.044.336-.155.566-.375.938-.104.12-.252.225-.25.375-.008.36.203.589.188.937-.036.468.036.5 0 .75.158.08.045.334 0 .5-.068.198-.15.243-.188.375.106.046.257.027.375 0-.06.063-.126.126-.188.188-.452.452-.967.89-1.5 1.25-1.032.697-2.18 1.226-3.437 1.5-.687.149-1.393.187-2.125.187-.38 0-.756-.02-1.125-.063-.294-.033-.59-.066-.875-.125-.566-.115-1.098-.355-1.625-.562-.019-.034-.067-.085-.063-.125.104-.044.3.148.376 0 .038-.07-.05-.242 0-.313.035-.048.238-.048.312-.062.106-.02.253-.035.313-.063.065-.042.136-.189.124-.312-.005-.058-.079-.073-.124-.125-.038-.044.025-.083 0-.125-.048-.07-.168-.086-.188-.188.144-.028.355.121.563.063.098-.028.266-.22.312-.313.014-.028-.016-.089 0-.125.018-.036.056-.105.063-.125.013-.054-.013-.026 0-.062.035-.102.127-.177.187-.25.046-.056.145-.13.188-.188.047-.062.03-.069.062-.125.03-.182-.106-.34-.063-.5.048-.18.327-.293.5-.375.06-.028.138-.044.188-.062.12-.042.263-.085.375-.125.188-.068.22-.203.313-.375.043-.08.116-.191.124-.25.008-.052-.01-.063 0-.125.01-.058-.015-.12 0-.188a2.07 2.07 0 00.063-.375c0-.08-.06-.115-.063-.187-.013-.26.092-.233.188-.375.048-.07.091-.2.125-.25.162-.24.457-.324.438-.688-.008-.12-.1-.399-.188-.437-.05-.022-.113-.037-.188-.063-.235-.088-.441-.355-.687-.375H15.5c-.096 0-.205-.048-.313-.062-.067-.02-.21.02-.25 0-.062-.03-.075-.153-.124-.188-.04-.028-.126-.04-.188-.062-.098-.036-.136-.117-.25-.125-.036 0-.085.02-.125 0-.062-.02-.13-.026-.188-.063-.071-.044-.157-.063-.187-.125.066-.215-.143-.249-.188-.375-.02-.058.02-.198 0-.25-.025-.074-.105-.125-.187-.187a.747.747 0 00-.438-.188c-.091-.02-.202.02-.312 0-.116-.02-.287-.087-.375-.187-.084-.098-.114-.204-.188-.25-.07-.044-.139-.079-.187-.125-.022-.02-.042-.017-.063-.063-.035-.073-.106-.097-.062-.187-.08-.04-.039.076-.125.063-.078-.11-.137-.22-.313-.188-.08.02-.155.185-.25.188-.077 0-.147-.172-.25-.188-.077-.02-.195.072-.25.063-.086-.02-.11-.074-.187-.126-.058-.037-.155-.126-.188-.124-.1 0-.174.197-.312.124-.068-.085.143-.107.063-.187-.06-.058-.077.034-.126.063-.055.035-.125.04-.187.062-.138.052-.267.067-.375.125a.37.37 0 00-.188.188c-.045.083-.117.245-.187.25-.084 0-.112-.092-.188-.126-.23-.1-.372.059-.562.063-.176 0-.445-.272-.438-.438.006-.101.051-.248.063-.374.01-.1.123-.222.125-.313.002-.124-.233-.173-.313-.188-.187-.033-.41.085-.625 0-.04-.067.039-.119.063-.187.014-.036-.014-.083 0-.125.024-.064.158-.12.188-.188.022-.051-.022-.121 0-.187.025-.072.118-.136.125-.188.007-.067-.072-.143-.125-.187-.167.02-.28.014-.375.063-.216.098-.158.369-.375.437a1.828 1.828 0 01-.25.063c-.037.02-.084-.005-.125 0 .004-.02-.004-.043 0-.063.009-.046.052-.08.062-.125A9.99 9.99 0 016.875 12h.063c.076.02.121.119.187.125.184.02.223-.17.375-.25.156.022.233-.02.375 0 .096.02.237.117.313.125.064 0 .064-.07.124-.063.06.02.178.116.188.188.01.09-.089.213-.063.313.095.095.304.131.438.187.088-.074.014-.208 0-.313-.002-.045.005-.145 0-.187-.01-.072-.063-.126-.063-.188 0-.285.246-.388.438-.5.082-.047.178-.151.25-.187.102-.05.166-.014.25-.063.152-.085.257-.215.375-.312.054-.13-.005-.31 0-.438.054-.033.13 0 .188 0 .091-.02.135-.135.187-.187.03-.03.089-.033.125-.063.092-.071.107-.155.188-.187a.52.52 0 01.124-.063c.06-.02.155-.026.25-.062.063-.022.226-.036.25-.063.03-.03-.007-.141 0-.187.048-.226.361-.236.563-.313.14-.051.282-.215.438-.187-.03.108-.152.12-.126.25.035.182.249-.036.313-.063.122-.051.34-.127.5-.187.14-.05.382-.089.25-.25-.11-.02-.154.085-.25.125-.066.02-.069-.056-.125-.063-.054 0-.07.073-.125.063-.054-.02-.117-.121-.125-.188-.022-.167.12-.188.188-.312-.046-.152-.248-.065-.376-.125a.226.226 0 01.188-.188c.086-.02.323.017.375.063.03.026-.046.083 0 .125.052.046.12.02.188 0 .023-.114-.146-.051-.126-.125.136-.088.397-.04.563-.063a1.36 1.36 0 00.313-.124c.08-.046.103-.139.187-.063.024.082-.017.143-.063.188-.153.135-.317.28-.437.437.074.072.189.049.313.063.047.02.137-.01.187 0 .06.02.14-.02.188 0 .084.02.103.187.187.187.136 0 .078-.16 0-.25.024-.094.097-.184.063-.25-.063-.124-.301.037-.313-.125-.008-.1.089-.111.125-.188-.016-.191.145-.2.125-.374-.01-.072-.075-.058-.125-.125-.026-.036-.033-.16-.063-.188-.103-.088-.3-.02-.312-.188-.005-.1.014-.205 0-.312-.014-.102-.1-.418-.188-.438-.111-.024-.178.188-.312.25a.752.752 0 01-.313.063c-.047-.02-.118-.031-.124-.125-.009-.085.093-.123.124-.188.008-.016-.003-.04 0-.062.146-.04.29-.09.438-.125.084-.02.165-.045.25-.063.06-.012.127.012.188 0A10.02 10.02 0 0116 6zm-4.063.938c-.063.365-.405.51-.812.5-.092.088-.013.253-.063.375-.042.102-.21.195-.312.187-.074 0-.188-.117-.188-.188 0-.086.137-.089.063-.187.003-.02.042-.043.063-.063.04-.025.084-.037.124-.062.363-.223.734-.386 1.126-.563zM9.376 8.563c.095.076.228.24.063.312-.02.02-.265.07-.313.063-.02 0-.046-.049-.063-.063.104-.1.205-.216.313-.313zm.375.374c.048 0 .069.122.125.126.054 0 .093-.071.125-.063.084.022.143.188.063.25-.067.02-.078-.07-.126-.063-.135.024-.21.321-.312.313-.096-.02-.16-.242-.063-.313.003-.06-.003-.062 0-.124.03-.037.108-.132.188-.126zM9.25 9c.028 0 .052-.02.063 0-.014.106-.044.137-.126.188-.141.085-.266.191-.312.374-.014.055-.182.201-.25.188-.158-.034.089-.33.125-.375.04-.05.08-.067.125-.125.046-.056.081-.155.125-.188A.491.491 0 019.25 9zm13.563.313c.157-.02.24.154.312.25.06.077.214.195.313.25.056.03.125.096.187.124.13.059.369.248.375.376.002.063-.073.127-.063.187.099.02.186-.152.188-.25.184.26.341.535.5.813.075.13.18.24.25.374-.088.027-.11.04-.125.126-.02.111.043.292-.125.312-.106.02-.229-.091-.375-.125-.06-.02-.14.02-.188 0-.11-.036-.093-.183-.187-.25a1.002 1.002 0 00-.313-.125c-.054 0-.069.02-.125 0-.067-.02-.194.028-.25 0-.054-.034-.173-.142-.187-.188-.022-.073.183-.124.188-.187.004-.048-.053-.114-.063-.188-.008-.043.01-.094 0-.124-.014-.053-.106-.061-.188-.063h-.187c-.088 0-.265-.008-.375 0-.066 0-.126-.006-.188 0-.173.02-.301-.02-.437 0-.098 0-.283.083-.375.125-.046.022-.065.033-.125.063-.028.02-.089.046-.125.062-.056.026-.134.109-.188.125-.077.02-.17-.02-.312 0-.102 0-.248-.066-.25-.188-.002-.185.324-.09.5-.124.066-.02.107-.078.188-.126.038-.021.026-.038.062-.062.06-.042.177-.14.188-.188.007-.043-.006-.09 0-.124.007-.043.07-.07.125-.126.084-.083.146-.195.25-.25.07-.035.155-.066.187-.124.008-.065-.002-.066 0-.126A.261.261 0 0122 9.5c.108-.024.187.006.313 0 .054 0 .129.026.187 0 .048-.032.077-.101.125-.125a.495.495 0 01.188-.063zm-12.563.062h.188c.05 0 .104-.02.124 0-.031.132-.333.11-.437.063.005-.05.06-.055.125-.063zm-.438.25c-.087.064-.173.144-.312.188-.076.023-.174.021-.188-.063-.015-.104.12-.053.188-.063.088-.02.21-.058.313-.062zM10 15.688c.096-.045.078.11 0 .124-.074.02-.072-.088 0-.124z" opacity=".7"/></svg>