<svg xmlns="http://www.w3.org/2000/svg" xmlns:xlink="http://www.w3.org/1999/xlink" width="32" height="32"><defs><linearGradient id="a"><stop style="stop-color:#f2f2f2;stop-opacity:1" offset="0"/><stop style="stop-color:#fff;stop-opacity:1" offset="1"/></linearGradient><linearGradient id="b"><stop style="stop-color:#dc85e9;stop-opacity:1" offset="0"/><stop style="stop-color:#f2cbf8;stop-opacity:1" offset="1"/></linearGradient><linearGradient gradientTransform="translate(-320 -132)" xlink:href="#a" id="c" x1="340" y1="132" x2="328" y2="164" gradientUnits="userSpaceOnUse"/><linearGradient xlink:href="#b" id="d" gradientUnits="userSpaceOnUse" gradientTransform="matrix(.97893 0 0 1.00073 -171.406 -740)" x1="525.438" y1="836.188" x2="516.656" y2="828.5"/><linearGradient xlink:href="#b" id="e" gradientUnits="userSpaceOnUse" gradientTransform="matrix(.97893 0 0 1.00073 755.595 -1698.677)" x1="525.438" y1="836.188" x2="516.656" y2="828.5"/><linearGradient xlink:href="#b" id="f" gradientUnits="userSpaceOnUse" gradientTransform="translate(-125.5 -1702.459)" x1="525.438" y1="836.188" x2="516.656" y2="828.5"/><linearGradient xlink:href="#b" id="g" gradientUnits="userSpaceOnUse" x1="520.585" y1="735.052" x2="516.152" y2="720.863"/></defs><path d="M20.306 3c1.413 0 2.523.035 3.424.186.901.151 1.62.432 2.143.953.522.522.803 1.24.953 2.14.15.902.18 2.01.174 3.427v12.59c.007 1.415-.024 2.523-.174 3.424-.15.902-.43 1.62-.953 2.14-.523.522-1.242.803-2.143.954-.901.151-2.011.186-3.424.186h-8.615c-1.412 0-2.519-.035-3.418-.186-.9-.151-1.616-.431-2.137-.953-.52-.522-.8-1.238-.95-2.139-.152-.9-.186-2.01-.186-3.426V9.704c0-1.416.034-2.525.185-3.426.151-.901.43-1.617.951-2.139.521-.521 1.237-.802 2.137-.953.9-.151 2.006-.186 3.418-.186z" style="color:#000;display:inline;overflow:visible;visibility:visible;fill:#91a;fill-opacity:1;fill-rule:nonzero;stroke:none;stroke-width:1;marker:none;enable-background:accumulate"/><path d="M11.193 5c-1.372 0-2.378.045-3.01.15-.618.104-.762.23-.79.258-.028.028-.15.166-.253.781-.104.63-.147 1.631-.14 3.004V22.81c-.007 1.371.036 2.373.14 3.002.102.615.225.753.252.78.03.03.173.155.791.259.632.106 1.638.15 3.01.15h9.615c1.372 0 2.374-.044 3.004-.15.616-.104.754-.227.781-.254.029-.028.152-.169.256-.787.106-.632.15-1.638.15-3.012V10l-6-5z" style="color:#000;font-style:normal;font-variant:normal;font-weight:400;font-stretch:normal;font-size:medium;line-height:normal;font-family:sans-serif;font-variant-ligatures:normal;font-variant-position:normal;font-variant-caps:normal;font-variant-numeric:normal;font-variant-alternates:normal;font-feature-settings:normal;text-indent:0;text-align:start;text-decoration:none;text-decoration-line:none;text-decoration-style:solid;text-decoration-color:#000;letter-spacing:normal;word-spacing:normal;text-transform:none;writing-mode:lr-tb;direction:ltr;text-orientation:mixed;dominant-baseline:auto;baseline-shift:baseline;text-anchor:start;white-space:normal;shape-padding:0;clip-rule:nonzero;display:inline;overflow:visible;visibility:visible;isolation:auto;mix-blend-mode:normal;color-interpolation:sRGB;color-interpolation-filters:linearRGB;solid-color:#000;solid-opacity:1;vector-effect:none;fill:url(#c);fill-opacity:1;fill-rule:nonzero;stroke:none;stroke-width:5;stroke-linecap:butt;stroke-linejoin:miter;stroke-miterlimit:4;stroke-dasharray:none;stroke-dashoffset:0;stroke-opacity:1;marker:none;color-rendering:auto;image-rendering:auto;shape-rendering:auto;text-rendering:auto;enable-background:accumulate"/><g style="display:inline;stroke-width:1.73539;enable-background:new"><path d="M332.742 90.105v4.003c0 1.935 5.04 3.503 11.257 3.503 6.218 0 11.258-1.568 11.258-3.503v-4.003z" style="color:#000;display:inline;overflow:visible;visibility:visible;fill:url(#d);fill-opacity:1;fill-rule:nonzero;stroke:#8e03a3;stroke-width:1.73539;stroke-linecap:butt;stroke-linejoin:miter;stroke-miterlimit:4;stroke-dasharray:none;stroke-dashoffset:0;stroke-opacity:1;marker:none" transform="matrix(.57733 0 0 .57515 -182.605 -32.824)"/><g style="stroke-width:1.73539;stroke-miterlimit:4;stroke-dasharray:none"><path d="M1259.742-868.572v4.002c0 1.935 5.04 3.503 11.258 3.503 6.217 0 11.258-1.568 11.258-3.502v-4.003z" style="color:#000;display:inline;overflow:visible;visibility:visible;fill:url(#e);fill-opacity:1;fill-rule:nonzero;stroke:#8e03a3;stroke-width:1.73539;stroke-linecap:butt;stroke-linejoin:miter;stroke-miterlimit:4;stroke-dasharray:none;stroke-dashoffset:0;stroke-opacity:1;marker:none" transform="matrix(.57733 0 0 .57515 -717.789 515.866)"/><g style="stroke-width:1.75334;stroke-miterlimit:4;stroke-dasharray:none" transform="matrix(.56516 0 0 .57557 -210.635 516.083)"><path d="M389.5-872.957v4c0 1.933 5.149 3.5 11.5 3.5s11.5-1.567 11.5-3.5v-4z" style="color:#000;display:inline;overflow:visible;visibility:visible;fill:url(#f);fill-opacity:1;fill-rule:nonzero;stroke:#8e03a3;stroke-width:1.75334;stroke-linecap:butt;stroke-linejoin:miter;stroke-miterlimit:4;stroke-dasharray:none;stroke-dashoffset:0;stroke-opacity:1;marker:none"/><ellipse ry="5.688" rx="22.438" cy="730.313" cx="519.688" transform="matrix(.51253 0 0 .61538 134.642 -1323.187)" style="color:#000;display:inline;overflow:visible;visibility:visible;fill:url(#g);fill-opacity:1;fill-rule:nonzero;stroke:#8e03a3;stroke-width:3.12198;stroke-miterlimit:4;stroke-dasharray:none;marker:none"/></g></g></g></svg>