<svg xmlns="http://www.w3.org/2000/svg" xmlns:xlink="http://www.w3.org/1999/xlink" viewBox="0 0 32 32"><defs><linearGradient xlink:href="#a" id="f" gradientUnits="userSpaceOnUse" gradientTransform="matrix(0 -.07209 -.07209 0 80.35 64.733)" x1="459.034" y1="419.233" x2="35.31" y2="207.365"/><linearGradient id="a"><stop offset="0" stop-color="#2e851b"/><stop offset="1" stop-color="#18a003"/></linearGradient><linearGradient gradientTransform="translate(-278.78 -101.085)" xlink:href="#b" id="g" x1="340" y1="132" x2="328" y2="164" gradientUnits="userSpaceOnUse"/><linearGradient id="b"><stop offset="0" stop-color="#f2f2f2"/><stop offset="1" stop-color="#fff"/></linearGradient><linearGradient xlink:href="#c" id="h" gradientUnits="userSpaceOnUse" gradientTransform="translate(-545.78 -939.087)" x1="592.202" y1="968.769" x2="592.644" y2="1000.147"/><linearGradient id="c"><stop offset="0" stop-color="#18a303"/><stop offset="1" stop-color="#106802"/></linearGradient><linearGradient xlink:href="#d" id="i" gradientUnits="userSpaceOnUse" gradientTransform="matrix(1 0 0 1.2 -422.78 966.478)" x1="481" y1="-759.638" x2="481" y2="-764.638"/><linearGradient id="d"><stop offset="0" stop-color="#fff" stop-opacity=".588"/><stop offset="1" stop-color="#fff" stop-opacity=".863"/></linearGradient><linearGradient xlink:href="#e" id="k" x1="336" y1="134" x2="336" y2="162" gradientUnits="userSpaceOnUse"/><linearGradient id="e"><stop offset="0" stop-color="#fff"/><stop offset=".125" stop-color="#fff" stop-opacity=".098"/><stop offset=".925" stop-color="#fff" stop-opacity=".098"/><stop offset="1" stop-color="#fff" stop-opacity=".498"/></linearGradient><clipPath clipPathUnits="userSpaceOnUse" id="j"><path style="marker:none" d="M330.193 134c-5.615 0-6.22.577-6.192 6.204v15.592c-.028 5.627.577 6.204 6.192 6.204h11.615c5.615 0 6.192-.577 6.192-6.204v-15.592c0-5.627-.577-6.204-6.192-6.204z" color="#000" overflow="visible" fill="#46a926" stroke-width="2"/></clipPath></defs><path d="M63.027 32.415c1.412 0 2.522.034 3.423.186.902.151 1.62.431 2.143.953.523.521.803 1.239.953 2.14.15.902.18 2.01.174 3.426V54.712c.007 1.415-.024 2.523-.174 3.424-.15.902-.43 1.62-.953 2.14-.523.522-1.241.802-2.143.954-.901.151-2.011.185-3.423.185H51.41c-1.412 0-2.518-.034-3.418-.185-.9-.152-1.616-.432-2.136-.953-.521-.522-.8-1.238-.952-2.14-.15-.9-.185-2.01-.185-3.425V39.118c0-1.415.034-2.524.185-3.425.152-.901.43-1.617.952-2.14.52-.52 1.237-.8 2.136-.952.9-.152 2.006-.186 3.418-.186z" style="marker:none" color="#000" overflow="visible" fill="url(#f)" transform="translate(-41.22 -31.915)"/><path d="M51.414 34.915c-1.372 0-2.378.045-3.01.15-.618.104-.762.23-.79.258-.028.028-.15.166-.253.782-.104.63-.147 1.63-.14 3.004v15.615c-.007 1.372.036 2.373.14 3.002.103.616.225.754.252.781.03.03.173.154.791.258.632.106 1.638.15 3.01.15H63.03c1.372 0 2.375-.044 3.004-.15.616-.104.755-.227.782-.254.028-.028.152-.168.255-.787.106-.632.15-1.637.15-3.012V40.915l-6-6z" style="line-height:normal;font-variant-ligatures:normal;font-variant-position:normal;font-variant-caps:normal;font-variant-numeric:normal;font-variant-alternates:normal;font-feature-settings:normal;text-indent:0;text-align:start;text-decoration-line:none;text-decoration-style:solid;text-decoration-color:#000;text-transform:none;text-orientation:mixed;white-space:normal;shape-padding:0;isolation:auto;mix-blend-mode:normal;solid-color:#000;solid-opacity:1;marker:none" color="#000" font-weight="400" font-family="sans-serif" overflow="visible" fill="url(#g)" transform="translate(-41.22 -31.915)"/><path style="marker:none" overflow="visible" fill="#ccf4c6" d="M8 10h16v13H8z"/><path style="marker:none" overflow="visible" fill="#92e285" d="M8 10h16v4H8z"/><path d="M49.22 41.915v13h16v-13h-15zm1 1h4v2h-4zm5 0h4v2h-4zm5 0h4v2h-4zm-10 3h4v2h-4zm5 0h4v2h-4zm5 0h4v2h-4zm-10 3h4v2h-4zm5 0h4v2h-4zm5 0h4v2h-4zm-10 3h4v2h-4zm5 0h4v2h-4zm5 0h4v2h-4z" style="marker:none" overflow="visible" fill="url(#h)" transform="translate(-41.22 -31.915)"/><path style="marker:none" overflow="visible" fill="gray" d="M16 16h8v8h-8z"/><path style="marker:none" overflow="visible" fill="#ccc" d="M17 17h6v6h-6z"/><path style="marker:none" overflow="visible" fill="url(#i)" d="M58.221 48.915h6v6h-6z" transform="translate(-41.22 -31.915)"/><path style="marker:none" overflow="visible" fill="#1c99e0" d="M18 20h2v3h-2z"/><path style="marker:none" overflow="visible" fill="#d36118" d="M20 18h2v5h-2z"/><path style="marker:none" overflow="visible" fill="#63bbee" d="M18 20h1v2h-1z"/><path style="marker:none" overflow="visible" fill="#f09e6f" d="M20 18h1v4h-1z"/><path style="marker:none" d="M10.194.5C8.78.5 7.67.534 6.77.686c-.901.15-1.62.431-2.143.953-.522.521-.803 1.239-.953 2.14-.15.902-.18 2.01-.174 3.426V22.797c-.007 1.414.024 2.523.174 3.424.15.901.43 1.619.953 2.14.523.522 1.242.802 2.143.953.901.152 2.011.186 3.424.186h11.615c1.412 0 2.519-.034 3.418-.186.9-.15 1.616-.431 2.137-.953.52-.521.8-1.237.95-2.138.152-.901.186-2.01.186-3.426V7.203c0-1.415-.034-2.525-.185-3.426-.151-.9-.43-1.617-.951-2.138-.521-.522-1.237-.802-2.137-.953C24.327.534 23.221.5 21.809.5z" color="#000" overflow="visible" opacity=".3" fill="none" stroke="#000"/><path clip-path="url(#j)" style="marker:none" d="M330.193 134c-5.615 0-6.22.577-6.192 6.204v15.592c-.028 5.627.577 6.204 6.192 6.204h11.615c5.615 0 6.192-.577 6.192-6.204v-15.592c0-5.627-.577-6.204-6.192-6.204z" transform="translate(-320 -133)" color="#000" overflow="visible" opacity=".2" fill="none" stroke="url(#k)" stroke-width="2"/><path d="M10 31l21-11v11z" opacity=".7" stroke="#000" stroke-width="2" stroke-linejoin="round"/><path d="M10 31l21-11v11z" fill="#fff"/></svg>