<svg xmlns="http://www.w3.org/2000/svg" xmlns:xlink="http://www.w3.org/1999/xlink" viewBox="0 0 24 24"><defs><linearGradient gradientTransform="translate(-320.5 -189)" xlink:href="#a" id="e" x1="328" y1="188" x2="336" y2="212" gradientUnits="userSpaceOnUse"/><linearGradient id="a"><stop offset="0" stop-color="#f2f2f2"/><stop offset="1" stop-color="#fff"/></linearGradient><linearGradient xlink:href="#b" id="f" gradientUnits="userSpaceOnUse" gradientTransform="matrix(.31818 0 0 .375 -226.817 341.237)" x1="756" y1="-860.638" x2="756" y2="-876.638"/><linearGradient id="b"><stop offset="0" stop-color="#d36118"/><stop offset="1" stop-color="#f09e6f"/></linearGradient><linearGradient xlink:href="#c" id="g" gradientUnits="userSpaceOnUse" gradientTransform="matrix(.11667 0 0 .15 -80.433 179.845)" x1="812" y1="-1075.638" x2="812" y2="-1115.638"/><linearGradient id="c"><stop offset="0" stop-color="#fff" stop-opacity=".588"/><stop offset="1" stop-color="#fff" stop-opacity=".863"/></linearGradient><linearGradient xlink:href="#d" id="h" gradientUnits="userSpaceOnUse" gradientTransform="matrix(.33333 0 0 .25 -113.332 259.408)" x1="370" y1="-1048.672" x2="370" y2="-918.602"/><linearGradient id="d"><stop offset="0" stop-color="#a33e03"/><stop offset="1" stop-color="#622502"/></linearGradient><linearGradient xlink:href="#d" id="i" gradientUnits="userSpaceOnUse" gradientTransform="matrix(.33333 0 0 .25 -113.332 261.407)" x1="370" y1="-1048.672" x2="370" y2="-918.602"/></defs><path style="line-height:normal;font-variant-ligatures:normal;font-variant-position:normal;font-variant-caps:normal;font-variant-numeric:normal;font-variant-alternates:normal;font-feature-settings:normal;text-indent:0;text-align:start;text-decoration-line:none;text-decoration-style:solid;text-decoration-color:#000;text-transform:none;text-orientation:mixed;white-space:normal;shape-padding:0;isolation:auto;mix-blend-mode:normal;solid-color:#000;solid-opacity:1;marker:none" d="M8.865 3c-1.088 0-1.9.031-2.459.125-.549.092-.797.229-.931.363-.135.134-.267.377-.358.924C5.025 4.968 4.995 5.78 5 6.87V17.131c-.005 1.09.025 1.902.117 2.457.091.547.223.79.358.924.134.134.382.27.931.363.559.094 1.37.125 2.46.125h6.269c1.088 0 1.9-.031 2.459-.125.549-.092.797-.229.931-.363.135-.134.267-.377.358-.924.092-.556.122-1.367.117-2.457V6.869c.005-1.09-.025-1.902-.117-2.457-.091-.547-.223-.79-.358-.924-.134-.134-.382-.27-.931-.363-.559-.094-1.37-.125-2.46-.125H12z" color="#000" font-weight="400" font-family="sans-serif" overflow="visible" fill="#993a03" stroke="#993a03" stroke-width="2"/><path style="line-height:normal;font-variant-ligatures:normal;font-variant-position:normal;font-variant-caps:normal;font-variant-numeric:normal;font-variant-alternates:normal;font-feature-settings:normal;text-indent:0;text-align:start;text-decoration-line:none;text-decoration-style:solid;text-decoration-color:#000;text-transform:none;text-orientation:mixed;white-space:normal;shape-padding:0;isolation:auto;mix-blend-mode:normal;solid-color:#000;solid-opacity:1;marker:none" d="M8.866 3c-1.089 0-1.9.031-2.46.125-.548.092-.796.229-.931.363-.134.134-.266.377-.357.924C5.025 4.968 4.995 5.78 5 6.87V17.131c-.005 1.09.025 1.902.118 2.457.09.547.223.79.357.924.135.134.383.271.932.363.558.094 1.37.125 2.459.125h6.27c1.088 0 1.9-.031 2.456-.125.547-.092.788-.227.922-.361.134-.135.27-.377.362-.926.093-.558.105-1.372.125-2.463V8L12 3z" color="#000" font-weight="400" font-family="sans-serif" overflow="visible" fill="url(#e)"/><path style="marker:none" d="M9 9h6c1.108 0 2 .892 2 2v5c0 1.108-.892 2-2 2H9c-1.108 0-2-.892-2-2v-5c0-1.108.892-2 2-2z" overflow="visible" fill="#a33e03"/><path style="marker:none" d="M9 10h6c.554 0 1 .446 1 1v5c0 .554-.446 1-1 1H9c-.554 0-1-.446-1-1v-5c0-.554.446-1 1-1z" overflow="visible" fill="url(#f)"/><path style="marker:none" d="M9 10h6c.554 0 1 .446 1 1v5c0 .554-.446 1-1 1H9c-.554 0-1-.446-1-1v-5c0-.554.446-1 1-1z" overflow="visible" fill="url(#g)"/><path style="marker:none" d="M9 11h6v1H9z" overflow="visible" fill="#d36118"/><path style="marker:none" d="M11 13h4v1h-4z" overflow="visible" fill="url(#h)"/><path style="marker:none" d="M10 13.5a.5.5 0 11-1 0 .5.5 0 011 0z" overflow="visible" fill="#d36118"/><path style="marker:none" d="M11 15h4v1h-4z" overflow="visible" fill="url(#i)"/><path style="marker:none" d="M10 15.5a.5.5 0 11-1 0 .5.5 0 011 0z" overflow="visible" fill="#d36118"/></svg>