<svg xmlns="http://www.w3.org/2000/svg" xmlns:xlink="http://www.w3.org/1999/xlink" viewBox="0 0 32 32"><defs><linearGradient xlink:href="#a" id="g" gradientUnits="userSpaceOnUse" gradientTransform="matrix(0 -.07209 -.07209 0 49.57 39.784)" x1="459.034" y1="419.233" x2="35.31" y2="207.365"/><linearGradient id="a"><stop offset="0" stop-color="#993a03"/><stop offset="1" stop-color="#f0692c"/></linearGradient><linearGradient gradientTransform="translate(-309.559 -126.034)" xlink:href="#b" id="h" x1="340" y1="132" x2="328" y2="164" gradientUnits="userSpaceOnUse"/><linearGradient id="b"><stop offset="0" stop-color="#f2f2f2"/><stop offset="1" stop-color="#fff"/></linearGradient><linearGradient xlink:href="#c" id="i" gradientUnits="userSpaceOnUse" gradientTransform="matrix(.63636 0 0 .75 264.362 -114.158)" x1="756" y1="-860.638" x2="756" y2="-876.638"/><linearGradient id="c"><stop offset="0" stop-color="#d36118"/><stop offset="1" stop-color="#f09e6f"/></linearGradient><linearGradient xlink:href="#d" id="j" gradientUnits="userSpaceOnUse" gradientTransform="matrix(.23333 0 0 .3 557.132 -436.946)" x1="812" y1="-1075.638" x2="812" y2="-1115.638"/><linearGradient id="d"><stop offset="0" stop-color="#fff" stop-opacity=".588"/><stop offset="1" stop-color="#fff" stop-opacity=".863"/></linearGradient><linearGradient xlink:href="#e" id="k" gradientUnits="userSpaceOnUse" gradientTransform="matrix(.38889 0 0 .5 595.11 -273.819)" x1="370" y1="-1048.672" x2="370" y2="-918.602"/><linearGradient id="e"><stop offset="0" stop-color="#a33e03"/><stop offset="1" stop-color="#622502"/></linearGradient><linearGradient xlink:href="#e" id="l" gradientUnits="userSpaceOnUse" gradientTransform="matrix(.38889 0 0 .5 595.11 -270.819)" x1="370" y1="-1048.672" x2="370" y2="-918.602"/><linearGradient xlink:href="#f" id="n" x1="336" y1="134" x2="336" y2="162" gradientUnits="userSpaceOnUse"/><linearGradient id="f"><stop offset="0" stop-color="#fff"/><stop offset=".125" stop-color="#fff" stop-opacity=".098"/><stop offset=".925" stop-color="#fff" stop-opacity=".098"/><stop offset="1" stop-color="#fff" stop-opacity=".498"/></linearGradient><clipPath clipPathUnits="userSpaceOnUse" id="m"><path style="marker:none" d="M330.193 134c-5.615 0-6.22.577-6.192 6.204v15.592c-.028 5.627.577 6.204 6.192 6.204h11.615c5.615 0 6.192-.577 6.192-6.204v-15.592c0-5.627-.577-6.204-6.192-6.204z" color="#000" overflow="visible" fill="#46a926" stroke-width="2"/></clipPath></defs><path d="M32.247 7.466c1.412 0 2.522.034 3.424.186.901.151 1.62.431 2.142.953.523.521.804 1.239.953 2.14.15.902.181 2.01.174 3.426V29.763c.007 1.415-.024 2.523-.174 3.424-.15.901-.43 1.619-.953 2.14-.522.522-1.24.802-2.142.954-.902.15-2.012.185-3.424.185H20.632c-1.413 0-2.519-.034-3.418-.185-.9-.152-1.616-.432-2.137-.954-.52-.521-.8-1.237-.951-2.138-.151-.901-.186-2.01-.186-3.426V14.169c0-1.415.035-2.525.186-3.426.15-.9.43-1.617.951-2.138.52-.522 1.237-.802 2.137-.953.9-.152 2.005-.186 3.418-.186z" style="marker:none" color="#000" overflow="visible" fill="url(#g)" transform="translate(-10.44 -5.966)"/><path d="M20.635 9.966c-1.373 0-2.379.045-3.01.15-.618.104-.762.23-.791.258-.028.028-.15.166-.252.782-.105.629-.148 1.63-.14 3.003v15.616c-.008 1.372.035 2.373.14 3.002.102.615.224.754.252.781.029.03.173.154.79.258.632.106 1.638.15 3.01.15H32.25c1.372 0 2.374-.044 3.004-.15.616-.104.754-.227.78-.254.03-.028.153-.169.257-.787.106-.632.15-1.637.15-3.012V15.966l-6-6z" style="line-height:normal;font-variant-ligatures:normal;font-variant-position:normal;font-variant-caps:normal;font-variant-numeric:normal;font-variant-alternates:normal;font-feature-settings:normal;text-indent:0;text-align:start;text-decoration-line:none;text-decoration-style:solid;text-decoration-color:#000;text-transform:none;text-orientation:mixed;white-space:normal;shape-padding:0;isolation:auto;mix-blend-mode:normal;solid-color:#000;solid-opacity:1;marker:none" color="#000" font-weight="400" font-family="sans-serif" overflow="visible" fill="url(#h)" transform="translate(-10.44 -5.966)"/><g transform="translate(-724.998 783.638)"><rect y="-772.638" x="732.999" height="14" width="16" style="marker:none" ry="2" rx="2" overflow="visible" fill="#a33e03"/><rect ry="1" rx="1" style="marker:none" width="14" height="12" x="733.999" y="-771.638" overflow="visible" fill="url(#i)"/><rect ry="1" rx="1" style="marker:none" width="14" height="12" x="733.999" y="-771.638" overflow="visible" fill="url(#j)"/><path style="marker:none" overflow="visible" fill="#d36118" d="M735.999-769.638h10v2h-10z"/><path style="marker:none" overflow="visible" fill="url(#k)" d="M738.999-766.638h7v2h-7z"/><ellipse transform="matrix(.18182 0 0 .19048 574.181 -889.781)" style="marker:none" cx="895.5" cy="651.75" rx="5.5" ry="5.25" overflow="visible" fill="#d36118"/><path style="marker:none" overflow="visible" fill="url(#l)" d="M738.999-763.638h7v2h-7z"/><ellipse style="marker:none" transform="matrix(.18182 0 0 .19048 574.181 -886.781)" cx="895.5" cy="651.75" rx="5.5" ry="5.25" overflow="visible" fill="#d36118"/></g><path style="marker:none" d="M10.194 1.5c-1.413 0-2.523.034-3.424.186-.901.15-1.62.431-2.143.953-.522.521-.803 1.239-.953 2.14-.15.902-.18 2.01-.174 3.426V23.797c-.007 1.414.024 2.523.174 3.424.15.901.43 1.619.953 2.14.523.522 1.242.802 2.143.953.901.152 2.011.186 3.424.186h11.615c1.412 0 2.519-.034 3.418-.186.9-.15 1.616-.431 2.137-.953.52-.521.8-1.237.95-2.138.152-.901.186-2.01.186-3.426V8.203c0-1.415-.034-2.525-.185-3.426-.151-.9-.43-1.617-.951-2.138-.521-.522-1.237-.802-2.137-.953-.9-.152-2.006-.186-3.418-.186z" color="#000" overflow="visible" opacity=".3" fill="none" stroke="#000"/><path clip-path="url(#m)" style="marker:none" d="M330.193 134c-5.615 0-6.22.577-6.192 6.204v15.592c-.028 5.627.577 6.204 6.192 6.204h11.615c5.615 0 6.192-.577 6.192-6.204v-15.592c0-5.627-.577-6.204-6.192-6.204z" transform="translate(-320 -132)" color="#000" overflow="visible" opacity=".2" fill="none" stroke="url(#n)" stroke-width="2"/><path d="M10 31l21-11v11z" opacity=".7" stroke="#000" stroke-width="2" stroke-linejoin="round"/><path d="M10 31l21-11v11z" fill="#fff"/></svg>