<svg xmlns="http://www.w3.org/2000/svg" xmlns:xlink="http://www.w3.org/1999/xlink" width="32" height="32"><defs><linearGradient id="d"><stop offset="0" stop-color="#f2f2f2"/><stop offset="1" stop-color="#fff"/></linearGradient><linearGradient xlink:href="#a" id="f" gradientUnits="userSpaceOnUse" gradientTransform="matrix(.31818 0 0 .375 -223.817 345.237)" x1="756" y1="-860.638" x2="756" y2="-876.638"/><linearGradient id="a"><stop offset="0" stop-color="#d36118"/><stop offset="1" stop-color="#f09e6f"/></linearGradient><linearGradient xlink:href="#b" id="g" gradientUnits="userSpaceOnUse" gradientTransform="matrix(.11667 0 0 .15 -77.433 183.845)" x1="812" y1="-1075.638" x2="812" y2="-1115.638"/><linearGradient id="b"><stop offset="0" stop-color="#fff" stop-opacity=".588"/><stop offset="1" stop-color="#fff" stop-opacity=".863"/></linearGradient><linearGradient xlink:href="#c" id="h" gradientUnits="userSpaceOnUse" gradientTransform="matrix(.33333 0 0 .25 -110.332 264.408)" x1="370" y1="-1048.672" x2="370" y2="-918.602"/><linearGradient id="c"><stop offset="0" stop-color="#a33e03"/><stop offset="1" stop-color="#622502"/></linearGradient><linearGradient xlink:href="#c" id="i" gradientUnits="userSpaceOnUse" gradientTransform="matrix(.33333 0 0 .25 -110.332 266.408)" x1="370" y1="-1048.672" x2="370" y2="-918.602"/><linearGradient gradientTransform="translate(-320 -132)" xlink:href="#d" id="e" x1="340" y1="132" x2="328" y2="164" gradientUnits="userSpaceOnUse"/></defs><path d="M20.306 3c1.413 0 2.523.035 3.424.186.901.151 1.62.432 2.143.953.522.522.803 1.24.953 2.14.15.902.18 2.01.174 3.427v12.59c.007 1.415-.024 2.523-.174 3.424-.15.902-.43 1.62-.953 2.14-.523.522-1.242.803-2.143.954-.901.151-2.011.186-3.424.186h-8.615c-1.412 0-2.519-.035-3.418-.186-.9-.151-1.616-.431-2.137-.953-.52-.522-.8-1.238-.95-2.139-.152-.9-.186-2.01-.186-3.426V9.704c0-1.416.034-2.525.185-3.426.151-.901.43-1.617.951-2.139.521-.522 1.237-.802 2.137-.953.9-.151 2.006-.186 3.418-.186z" style="marker:none" color="#000" overflow="visible" fill="#993a03"/><path d="M11.193 5c-1.372 0-2.378.044-3.01.15-.618.104-.762.23-.79.258-.028.028-.15.166-.253.781-.104.63-.147 1.631-.14 3.004V22.81c-.007 1.371.036 2.373.14 3.002.102.615.225.753.252.78.03.03.173.155.791.259.632.106 1.638.15 3.01.15h9.615c1.372 0 2.374-.044 3.004-.15.616-.104.754-.227.781-.254.029-.028.152-.169.256-.787.106-.632.15-1.638.15-3.012V10l-6-5z" style="line-height:normal;font-variant-ligatures:normal;font-variant-position:normal;font-variant-caps:normal;font-variant-numeric:normal;font-variant-alternates:normal;font-feature-settings:normal;text-indent:0;text-align:start;text-decoration-line:none;text-decoration-style:solid;text-decoration-color:#000;text-transform:none;text-orientation:mixed;white-space:normal;shape-padding:0;isolation:auto;mix-blend-mode:normal;solid-color:#000;solid-opacity:1;marker:none" color="#000" font-weight="400" font-family="sans-serif" overflow="visible" fill="url(#e)"/><path style="marker:none" d="M11 13h10c1.108 0 2 .892 2 2v7c0 1.108-.892 2-2 2H11c-1.108 0-2-.892-2-2v-7c0-1.108.892-2 2-2z" overflow="visible" fill="#a33e03"/><path style="marker:none" d="M11 14h10c.554 0 1 .446 1 1v7c0 .554-.446 1-1 1H11c-.554 0-1-.446-1-1v-7c0-.554.446-1 1-1z" overflow="visible" fill="url(#f)"/><path style="marker:none" d="M11 14h10c.554 0 1 .446 1 1v7c0 .554-.446 1-1 1H11c-.554 0-1-.446-1-1v-7c0-.554.446-1 1-1z" overflow="visible" fill="url(#g)"/><path style="marker:none" d="M12 16h8v1h-8z" overflow="visible" fill="#d36118"/><path style="marker:none" d="M14 18h6v1h-6z" overflow="visible" fill="url(#h)"/><path style="marker:none" d="M13 18.5a.5.5 0 11-1 0 .5.5 0 011 0z" overflow="visible" fill="#d36118"/><path style="marker:none" d="M14 20h6v1h-6z" overflow="visible" fill="url(#i)"/><path style="marker:none" d="M13 20.5a.5.5 0 11-1 0 .5.5 0 011 0z" overflow="visible" fill="#d36118"/></svg>