<svg xmlns="http://www.w3.org/2000/svg" xmlns:xlink="http://www.w3.org/1999/xlink" height="128" width="128"><defs><linearGradient gradientTransform="matrix(.5 0 0 .5 -12 -14.5)" xlink:href="#a" id="f" x1="201.078" y1="270" x2="102.922" y2="46" gradientUnits="userSpaceOnUse"/><linearGradient id="a"><stop offset="0" stop-color="#626262"/><stop offset="1" stop-color="#4e4e4e"/></linearGradient><linearGradient gradientUnits="userSpaceOnUse" y2="169.669" x2="4.414" y1="386.308" x1="494.345" id="e" xlink:href="#b" gradientTransform="matrix(0 -.22656 -.22656 0 126.98 119.5)"/><linearGradient id="b"><stop offset="0" stop-color="#f2f2f2"/><stop offset="1" stop-color="#fff"/></linearGradient><filter id="d" x="-.014" width="1.027" y="-.011" height="1.021" color-interpolation-filters="sRGB"><feGaussianBlur stdDeviation="1"/></filter><filter id="c" x="-.055" width="1.109" y="-.043" height="1.086" color-interpolation-filters="sRGB"><feGaussianBlur stdDeviation="4"/></filter></defs><path style="marker:none" d="M61.564-22.593c-35.297 0-38.922 3.625-38.922 38.994v144.012c0 15.473.694 24.872 4.43 30.548.534.811 1.13 1.545 1.795 2.211 5.318 5.328 15.049 6.235 32.697 6.235h98.156c2.055 0 3.988-.015 5.834-.045.66-.01 1.262-.035 1.895-.05 1.15-.03 2.292-.06 3.36-.106 1.27-.056 2.509-.12 3.667-.205.474-.035.935-.075 1.39-.116.221-.02.45-.037.667-.058.727-.071 1.436-.147 2.117-.235.668-.085 1.31-.182 1.936-.285.222-.037.431-.08.648-.119.396-.071.79-.143 1.17-.223.248-.052.487-.108.728-.164a29.755 29.755 0 002.54-.7 22.103 22.103 0 001.506-.547c.196-.078.394-.157.583-.241.275-.121.538-.25.8-.38.174-.088.354-.171.523-.263.41-.221.805-.453 1.181-.7.407-.268.795-.55 1.164-.848.34-.276.66-.57.97-.873.074-.074.145-.15.218-.225.23-.236.45-.481.664-.734.077-.092.155-.182.23-.276a15.125 15.125 0 001.465-2.22 18.282 18.282 0 00.617-1.258c.062-.138.125-.274.184-.414.182-.434.357-.88.518-1.346a26.525 26.525 0 00.566-1.897c.064-.243.123-.5.184-.752.143-.601.275-1.227.396-1.876.032-.172.067-.339.098-.514.14-.811.267-1.655.377-2.541.022-.178.04-.37.06-.55a74.704 74.704 0 00.293-3.147c.057-.769.106-1.563.149-2.381.013-.255.03-.499.043-.758.007-.148.009-.312.015-.461.062-1.463.103-3.02.13-4.64l.017-1.276c.02-1.774.029-3.606.02-5.57V59.647c-.045-9.733-8.18-17.956-14.763-24.162l-.048-.05-40.524-42.41c-10.677-10.56-18.058-15.618-32.666-15.618zm96.983.09c-2.17 2.776-2.386 7.403.208 9.912l28.497 30.386c3.723 3.696 11.118.569 11.38-4.779-.002-.42.001-.861-.002-1.271 0-.492-.009-.954-.011-1.432-.362-27.254-4.96-32.19-31.346-32.816z" transform="matrix(.5 0 0 .5 8.678 19.797)" color="#000" overflow="visible" opacity=".3" filter="url(#c)" enable-background="accumulate"/><path style="marker:none" d="M61.564-23.593c-35.297 0-38.922 3.625-38.922 38.994v145.012c0 15.473.694 24.872 4.43 30.548.534.811 1.13 1.545 1.795 2.211 5.318 5.328 15.049 6.235 32.697 6.235h98.156c2.055 0 3.988-.015 5.834-.045.66-.01 1.262-.035 1.895-.05 1.15-.03 2.292-.06 3.36-.106 1.27-.056 2.509-.12 3.667-.205.474-.035.935-.075 1.39-.116.221-.02.45-.037.667-.058.727-.071 1.436-.147 2.117-.235.668-.085 1.31-.182 1.936-.285.222-.037.431-.08.648-.119.396-.071.79-.143 1.17-.223.248-.052.487-.108.728-.164a29.755 29.755 0 002.54-.7 22.103 22.103 0 001.506-.547c.196-.078.394-.157.583-.241.275-.121.538-.25.8-.38.174-.088.354-.171.523-.263.41-.221.805-.453 1.181-.7.407-.268.795-.55 1.164-.848.34-.276.66-.57.97-.873.074-.074.145-.15.218-.225.23-.236.45-.481.664-.734.077-.092.155-.182.23-.276a15.125 15.125 0 001.465-2.22 18.282 18.282 0 00.617-1.258c.062-.138.125-.274.184-.414.182-.434.357-.88.518-1.346a26.525 26.525 0 00.566-1.897c.064-.243.123-.5.184-.752.143-.601.275-1.227.396-1.876.032-.172.067-.339.098-.514.14-.811.267-1.655.377-2.541.022-.178.04-.37.06-.55a74.704 74.704 0 00.293-3.147c.057-.769.106-1.563.149-2.381.013-.255.03-.499.043-.758.007-.148.009-.312.015-.461.062-1.463.103-3.02.13-4.64l.017-1.276c.02-1.774.029-3.606.02-5.57V58.647c-.045-9.733-8.18-17.956-14.763-24.162l-.048-.05-40.524-42.41c-10.677-10.56-18.058-15.618-32.666-15.618zm97.969.09c-3.04 2.502-3.72 8.066-.778 10.912l28.497 30.386c3.728 3.701 11.141.56 11.384-4.8 0-.211 0-.419-.002-.627 0-1.199-.012-2.329-.025-3.451-.403-26.89-5.085-31.798-31.336-32.42z" transform="matrix(.5 0 0 .5 8.678 19.797)" color="#000" overflow="visible" opacity=".1" filter="url(#d)" enable-background="accumulate"/><path style="marker:none" d="M39.46 7.5c-1.088 0-2.113.007-3.084.024-14.74.264-16.334 2.894-16.334 19.473v73.006c0 16.579 1.593 19.209 16.334 19.473.97.017 1.996.024 3.084.024H88.538c1.027 0 1.994-.007 2.917-.022.33-.005.63-.018.947-.026a92.45 92.45 0 001.68-.053 45.897 45.897 0 002.53-.16c.11-.01.224-.018.332-.029a27.2 27.2 0 002.026-.26c.112-.018.217-.04.325-.06.198-.035.395-.07.585-.11.124-.027.244-.055.364-.083a16.539 16.539 0 00.853-.22 13.203 13.203 0 001.17-.403c.098-.04.197-.079.292-.12.137-.061.268-.126.399-.191.087-.044.177-.085.262-.131a7.245 7.245 0 001.173-.774c.17-.138.33-.285.484-.437l.11-.112c.114-.118.225-.24.331-.368.039-.045.078-.09.116-.137.27-.34.513-.709.732-1.11.028-.051.054-.104.081-.156.08-.153.155-.31.228-.473.03-.07.062-.137.091-.208a10.987 10.987 0 00.543-1.62c.032-.123.061-.25.091-.377.072-.3.138-.613.199-.938.016-.086.033-.17.048-.257.07-.405.134-.827.189-1.27l.03-.276a37.435 37.435 0 00.146-1.573c.029-.384.053-.782.075-1.19.007-.128.015-.25.021-.38.004-.073.005-.155.008-.23.031-.731.051-1.51.065-2.32.004-.21.006-.423.009-.638.01-.887.014-1.803.01-2.785V48.62c-.022-4.866-4.09-8.978-7.381-12.08l-.025-.026L80.333 15.31C74.994 10.029 71.303 7.5 64 7.5zm49.866.045c-2.237.746-2.995 4.288-1.27 5.956l14.248 15.193c1.867 1.853 5.58.277 5.693-2.41.024-15.664-1.777-18.41-15.683-18.74z" color="#000" overflow="visible" opacity=".1" fill="none" stroke="#000" stroke-width="2" enable-background="accumulate"/><path style="marker:none" d="M39.46 7.5C21.812 7.5 20 9.313 20 26.997v73.006c0 17.684 1.812 19.497 19.46 19.497h49.078c17.648 0 19.548-1.813 19.461-19.497V48.62c-.022-4.866-4.09-8.978-7.38-12.08l-.025-.026L80.332 15.31C74.994 10.029 71.303 7.5 64 7.5z" color="#000" overflow="visible" fill="url(#e)" enable-background="accumulate"/><path style="marker:none" d="M39.46 7.5c-6.067 0-10.262.214-13.156 1.214-1.052.363-1.932.83-2.667 1.429h-.001a6.922 6.922 0 00-1.422 1.58 8 8 0 00-.36.61c-.03.053-.056.11-.083.165-.08.157-.159.317-.232.484-.036.084-.07.17-.105.256a10.976 10.976 0 00-.422 1.225 14.778 14.778 0 00-.221.861c-.024.105-.048.207-.07.315-.04.193-.078.395-.115.598-.019.106-.04.208-.058.317-.052.312-.099.634-.142.968v.001c-.042.329-.08.67-.114 1.02-.014.142-.025.291-.038.437-.02.217-.037.436-.054.662-.04.558-.072 1.151-.098 1.761a90.864 90.864 0 00-.058 1.805c-.007.29-.018.562-.022.863-.016.927-.023 1.894-.023 2.926v73.006c0 1.032.007 1.999.023 2.926.004.3.015.573.022.863.015.62.032 1.231.058 1.805a45.885 45.885 0 00.152 2.424c.013.145.024.294.038.436.034.35.072.691.114 1.02.043.335.09.657.142.97.018.108.04.21.058.316.037.203.074.405.115.598.022.108.046.21.07.315a16.678 16.678 0 00.22.861 13.417 13.417 0 00.247.77c.056.156.115.306.176.455.035.085.069.172.105.256.074.167.151.327.232.484.027.055.054.112.083.165a7.016 7.016 0 001.783 2.19c.735.599 1.615 1.066 2.667 1.43 2.894.999 7.09 1.213 13.156 1.213h49.078c1.029 0 1.993-.007 2.917-.022h.017c.322-.006.62-.018.93-.026l.668-.02c.337-.01.69-.018 1.012-.032l.01-.002a61.586 61.586 0 001.81-.1l.014-.001c.237-.018.468-.037.696-.058h.016l.317-.029a26.985 26.985 0 002.026-.26h.003l.321-.06c.199-.035.396-.071.585-.11.12-.026.234-.053.35-.08.005 0 .01-.002.014-.003a16.573 16.573 0 00.843-.218c.004 0 .006-.002.01-.003a13.72 13.72 0 00.753-.243c.075-.027.146-.056.219-.084.066-.025.133-.049.198-.075l.017-.007c.092-.037.186-.075.275-.114.084-.037.163-.077.243-.116l.157-.075.01-.006c.084-.041.17-.081.25-.125h.001a7.04 7.04 0 001.657-1.21l.003-.003.104-.107.003-.003c.115-.118.226-.24.332-.367.039-.046.078-.09.115-.138.27-.339.514-.708.733-1.11.028-.051.054-.104.08-.155.08-.154.156-.311.228-.474.03-.068.062-.136.091-.205l.001-.002a10.923 10.923 0 00.483-1.4v-.004l.06-.217.05-.21.041-.166.001-.004c.072-.3.137-.612.197-.935l.04-.208c.002-.016.006-.032.01-.049.07-.406.133-.828.188-1.27l.008-.074.022-.202.003-.03c.04-.347.075-.704.107-1.074v-.01l.037-.459c.028-.384.053-.781.074-1.19l.014-.233.008-.146v-.014l.007-.198v-.019c.032-.731.052-1.51.065-2.32v-.017l.01-.62c.01-.888.014-1.804.01-2.786V48.62a9.372 9.372 0 00-.408-2.656 11.742 11.742 0 00-.651-1.677c-1.43-3.004-4.06-5.614-6.323-7.748l-.024-.025L80.334 15.31c-5.339-5.281-9.029-7.81-16.333-7.81zm49.866.045c-2.237.746-2.995 4.288-1.27 5.956l14.248 15.193c1.867 1.853 5.58.277 5.693-2.41.002-.957-.005-1.863-.02-2.726l-.005-.243a83.805 83.805 0 00-.069-2.228 56.697 56.697 0 00-.087-1.49c-.576-7.973-2.774-10.769-9.83-11.681a38.604 38.604 0 00-2.071-.206 55.58 55.58 0 00-1.097-.07l-.013-.001a82.098 82.098 0 00-2.49-.094zm-41.544 5.928c5.687.002 11.316.02 16.95.123 3.618-.193 6.933 1.727 9.427 4.204 8.053 7.981 15.704 16.357 23.639 24.455 1.708 1.938 4.131 3.881 4.087 6.7.18 14.929.077 29.86.053 44.79-.133 5.124.197 10.347-.455 15.482-.273 1.178-.266 3.017-1.78 3.325-3.795.925-7.756.735-11.635.848-17.773.09-35.714.15-53.488-.068-2.352-.207-4.94.003-7.06-1.192-1.413-1.91-1.054-4.502-1.222-6.743-.291-24.322-.351-48.653-.292-72.986.141-5.358-.247-10.884.784-16.219.154-1.636 1.928-2.004 3.248-2.205 5.894-.564 11.89-.434 17.744-.514z" color="#000" overflow="visible" fill="url(#f)" enable-background="accumulate"/><path style="marker:none" d="M20 63.5v36.503c-.087 17.684 1.812 19.497 19.46 19.497h49.078c17.649 0 19.002-1.818 19.461-19.497V63.5z" color="#000" overflow="visible" opacity=".1" fill="#fff" enable-background="accumulate"/><path style="marker:none" d="M20 99.003v1c-.087 17.684 1.812 19.497 19.46 19.497h49.078c17.649 0 19.002-1.819 19.461-19.497v-1c-.459 17.678-1.812 19.497-19.46 19.497H39.46c-17.648 0-19.547-1.813-19.46-19.497z" color="#000" overflow="visible" opacity=".2" enable-background="accumulate"/><path style="marker:none" d="M78 119.5l30-30v11.242c-.027 16.998-1.902 18.758-19.088 18.758z" color="#000" overflow="visible" opacity=".08" fill="#fff" enable-background="accumulate"/><path style="marker:none" d="M39.46 7.5c-1.254 0-2.406.013-3.506.036-.784.017-1.543.038-2.253.071-.446.021-.88.044-1.299.073l-.114.007c-.02 0-.037.003-.057.004-.558.04-1.084.09-1.593.146-.141.015-.283.03-.42.047a30.28 30.28 0 00-.976.136c-.122.019-.247.037-.366.058-.193.034-.378.071-.563.109-.254.05-.5.105-.74.164-.095.023-.193.045-.286.07a14.322 14.322 0 00-1.213.382l-.144.055a8.56 8.56 0 00-2.023 1.087l-.022.016c-2.421 1.807-3.37 4.898-3.71 10.12-.009.131-.015.272-.023.406-.033.57-.063 1.153-.084 1.774v.046c-.024.72-.04 1.472-.05 2.262C20.254 10.088 23.032 8.5 39.46 8.5h31.265c-.43-.148-.873-.277-1.327-.392l-.236-.06a17.813 17.813 0 00-1.02-.208c-.166-.03-.331-.061-.501-.087a20.915 20.915 0 00-.944-.12c-.127-.013-.26-.022-.39-.033-.246-.022-.497-.04-.752-.054-.13-.007-.261-.015-.394-.02A28.85 28.85 0 0064 7.5z" color="#000" overflow="visible" opacity=".3" fill="#fff" enable-background="accumulate"/><path style="marker:none" d="M89.326 7.545c-.535.179-.983.52-1.336.955h.548c17.076 0 19.32 1.742 19.448 17.87.001-.018.006-.036.007-.055-.026-8.835-.579-13.589-3.54-16.088a7.156 7.156 0 00-.495-.38c-.671-.47-1.456-.845-2.36-1.149-.07-.024-.137-.05-.21-.072-.16-.05-.328-.096-.495-.143-.13-.035-.257-.072-.39-.105a17.568 17.568 0 00-.992-.216c-.16-.03-.32-.062-.486-.09a26.29 26.29 0 00-.714-.108c-.108-.015-.211-.033-.322-.047l-.004-.001a35.077 35.077 0 00-1.1-.122c-.154-.015-.315-.028-.473-.041-.26-.022-.524-.044-.796-.063l-.52-.032-.563-.03a82.538 82.538 0 00-2.21-.083h-.011z" color="#000" overflow="visible" opacity=".4" fill="#fff" enable-background="accumulate"/><path style="marker:none" d="M20.005 26.21c-.001.27-.006.51-.006.787v1c-.003-.63.003-1.196.006-1.786z" color="#000" overflow="visible" opacity=".3" fill="#fff" enable-background="accumulate"/><path style="marker:none" d="M20.002 99.003v1c-.001.221.002.41.002.627 0 .23.003.442.005.666-.006-.744-.011-1.484-.007-2.293zm87.997.376c-.028 17.316-1.942 19.121-19.458 19.121H39.463c-16.467 0-19.22-1.59-19.445-16.167.152 12.437 1.744 15.983 11.088 16.883h.004c.381.036.775.07 1.181.097h.003c.407.029.828.054 1.262.075.29.014.624.018.926.029.605.022 1.196.047 1.851.059h.002c.982.017 2.023.024 3.125.024h49.078c1.839 0 3.469-.028 4.98-.083a58.493 58.493 0 003.377-.201c9.748-.94 11.061-4.75 11.102-18.542 0-.231.003-.434.002-.671z" color="#000" overflow="visible" opacity=".2" enable-background="accumulate"/></svg>