<svg xmlns="http://www.w3.org/2000/svg" xmlns:xlink="http://www.w3.org/1999/xlink" viewBox="0 0 48 48"><defs><linearGradient gradientTransform="translate(-319.388 -64.271)" xlink:href="#a" id="aJ" x1="344" y1="61" x2="344" y2="107" gradientUnits="userSpaceOnUse"/><linearGradient id="a"><stop style="stop-color:#fff;stop-opacity:1" offset="0"/><stop offset=".125" style="stop-color:#fff;stop-opacity:.09803922"/><stop offset=".925" style="stop-color:#fff;stop-opacity:.09803922"/><stop style="stop-color:#000;stop-opacity:.49803922" offset="1"/></linearGradient><linearGradient xlink:href="#b" id="aA" gradientUnits="userSpaceOnUse" x1="116.481" y1="982.361" x2="116.481" y2="986.861"/><linearGradient id="b"><stop style="stop-color:#0369a3;stop-opacity:1" offset="0"/><stop style="stop-color:#023f62;stop-opacity:1" offset="1"/></linearGradient><linearGradient xlink:href="#b" id="aB" gradientUnits="userSpaceOnUse" gradientTransform="matrix(.21429 0 0 .50002 90.858 491.165)" x1="117.719" y1="976.304" x2="117.719" y2="992.238"/><linearGradient xlink:href="#b" id="aC" gradientUnits="userSpaceOnUse" gradientTransform="matrix(.25 0 0 .50002 86.75 491.165)" x1="117.719" y1="982.362" x2="117.719" y2="989.409"/><linearGradient xlink:href="#b" id="aD" gradientUnits="userSpaceOnUse" gradientTransform="matrix(.21429 0 0 .50002 90.858 492.165)" x1="117.719" y1="976.304" x2="117.719" y2="992.238"/><linearGradient xlink:href="#b" id="aE" gradientUnits="userSpaceOnUse" gradientTransform="matrix(.78573 0 0 .50002 25.141 493.165)" x1="117.719" y1="976.304" x2="117.719" y2="992.238"/><linearGradient xlink:href="#b" id="aF" gradientUnits="userSpaceOnUse" gradientTransform="matrix(.57144 0 0 .50002 49.785 494.165)" x1="117.719" y1="976.304" x2="117.719" y2="992.238"/><linearGradient xlink:href="#b" id="aG" gradientUnits="userSpaceOnUse" gradientTransform="matrix(.77779 0 0 .83334 49.998 -130.099)" x1="208.969" y1="-780.607" x2="208.969" y2="-769.823"/><linearGradient xlink:href="#c" id="aH" gradientUnits="userSpaceOnUse" gradientTransform="matrix(.625 0 0 .5 80.248 -488.819)" x1="230" y1="-581.638" x2="230" y2="-578.638"/><linearGradient id="c"><stop style="stop-color:#63bbee;stop-opacity:1" offset="0"/><stop style="stop-color:#aadcf7;stop-opacity:1" offset="1"/></linearGradient><linearGradient xlink:href="#d" id="aI" gradientUnits="userSpaceOnUse" gradientTransform="matrix(.875 0 0 .8 -84.875 -1719.04)" x1="345" y1="1173" x2="345" y2="1178"/><linearGradient id="d"><stop offset="0" style="stop-color:#666;stop-opacity:1"/><stop offset="1" style="stop-color:#333;stop-opacity:1"/></linearGradient><linearGradient xlink:href="#c" id="Y" gradientUnits="userSpaceOnUse" gradientTransform="matrix(.37932 0 0 .34615 -1267.954 411.95)" x1="3404.999" y1="-1092.638" x2="3404.999" y2="-1117.658"/><linearGradient xlink:href="#c" id="X" gradientUnits="userSpaceOnUse" gradientTransform="matrix(.37932 0 0 .34615 -1254.954 411.95)" x1="3404.999" y1="-1092.638" x2="3404.999" y2="-1117.658"/><linearGradient xlink:href="#c" id="W" gradientUnits="userSpaceOnUse" gradientTransform="matrix(.37932 0 0 .34615 -1254.954 400.95)" x1="3404.999" y1="-1092.638" x2="3404.999" y2="-1117.658"/><linearGradient xlink:href="#c" id="V" gradientUnits="userSpaceOnUse" gradientTransform="matrix(.37932 0 0 .34615 -1267.954 400.95)" x1="3404.999" y1="-1092.638" x2="3404.999" y2="-1117.658"/><linearGradient gradientTransform="translate(-319.39 -64.271)" xlink:href="#e" id="g" x1="352" y1="60" x2="332" y2="108" gradientUnits="userSpaceOnUse"/><linearGradient id="e"><stop style="stop-color:#f2f2f2;stop-opacity:1" offset="0"/><stop style="stop-color:#f9f9f9;stop-opacity:1" offset="1"/></linearGradient><linearGradient xlink:href="#d" id="f" gradientUnits="userSpaceOnUse" gradientTransform="matrix(0 -.11328 -.11328 0 60.099 47.729)" x1="512" y1="397.994" x2="0" y2="125.994"/><linearGradient xlink:href="#c" id="h" gradientUnits="userSpaceOnUse" gradientTransform="matrix(.37932 0 0 .34615 -1267.954 400.95)" x1="3404.999" y1="-1092.638" x2="3404.999" y2="-1117.658"/><linearGradient xlink:href="#c" id="i" gradientUnits="userSpaceOnUse" gradientTransform="matrix(.37932 0 0 .34615 -1254.954 400.95)" x1="3404.999" y1="-1092.638" x2="3404.999" y2="-1117.658"/><linearGradient xlink:href="#c" id="j" gradientUnits="userSpaceOnUse" gradientTransform="matrix(.37932 0 0 .34615 -1254.954 411.95)" x1="3404.999" y1="-1092.638" x2="3404.999" y2="-1117.658"/><linearGradient xlink:href="#c" id="k" gradientUnits="userSpaceOnUse" gradientTransform="matrix(.37932 0 0 .34615 -1267.954 411.95)" x1="3404.999" y1="-1092.638" x2="3404.999" y2="-1117.658"/><linearGradient xlink:href="#b" id="m" gradientUnits="userSpaceOnUse" gradientTransform="matrix(.21429 0 0 .50002 90.858 491.165)" x1="117.719" y1="976.304" x2="117.719" y2="992.238"/><linearGradient xlink:href="#b" id="n" gradientUnits="userSpaceOnUse" gradientTransform="matrix(.25 0 0 .50002 86.75 491.165)" x1="117.719" y1="982.362" x2="117.719" y2="989.409"/><linearGradient xlink:href="#b" id="o" gradientUnits="userSpaceOnUse" gradientTransform="matrix(.21429 0 0 .50002 90.858 492.165)" x1="117.719" y1="976.304" x2="117.719" y2="992.238"/><linearGradient xlink:href="#b" id="p" gradientUnits="userSpaceOnUse" gradientTransform="matrix(.78573 0 0 .50002 25.141 493.165)" x1="117.719" y1="976.304" x2="117.719" y2="992.238"/><linearGradient xlink:href="#b" id="q" gradientUnits="userSpaceOnUse" gradientTransform="matrix(.57144 0 0 .50002 49.785 494.165)" x1="117.719" y1="976.304" x2="117.719" y2="992.238"/><linearGradient xlink:href="#b" id="l" gradientUnits="userSpaceOnUse" x1="116.481" y1="982.361" x2="116.481" y2="986.861"/><linearGradient xlink:href="#b" id="r" gradientUnits="userSpaceOnUse" gradientTransform="matrix(.77779 0 0 .83334 49.998 -130.099)" x1="208.969" y1="-780.607" x2="208.969" y2="-769.823"/><linearGradient xlink:href="#c" id="s" gradientUnits="userSpaceOnUse" gradientTransform="matrix(.625 0 0 .5 80.248 -488.819)" x1="230" y1="-581.638" x2="230" y2="-578.638"/><linearGradient xlink:href="#d" id="t" gradientUnits="userSpaceOnUse" gradientTransform="matrix(.875 0 0 .8 -84.875 -1719.04)" x1="345" y1="1173" x2="345" y2="1178"/><linearGradient xlink:href="#b" id="v" gradientUnits="userSpaceOnUse" gradientTransform="matrix(.21429 0 0 .50002 90.858 491.165)" x1="117.719" y1="976.304" x2="117.719" y2="992.238"/><linearGradient xlink:href="#b" id="w" gradientUnits="userSpaceOnUse" gradientTransform="matrix(.25 0 0 .50002 86.75 491.165)" x1="117.719" y1="982.362" x2="117.719" y2="989.409"/><linearGradient xlink:href="#b" id="x" gradientUnits="userSpaceOnUse" gradientTransform="matrix(.21429 0 0 .50002 90.858 492.165)" x1="117.719" y1="976.304" x2="117.719" y2="992.238"/><linearGradient xlink:href="#b" id="y" gradientUnits="userSpaceOnUse" gradientTransform="matrix(.78573 0 0 .50002 25.141 493.165)" x1="117.719" y1="976.304" x2="117.719" y2="992.238"/><linearGradient xlink:href="#b" id="z" gradientUnits="userSpaceOnUse" gradientTransform="matrix(.57144 0 0 .50002 49.785 494.165)" x1="117.719" y1="976.304" x2="117.719" y2="992.238"/><linearGradient xlink:href="#b" id="u" gradientUnits="userSpaceOnUse" x1="116.481" y1="982.361" x2="116.481" y2="986.861"/><linearGradient xlink:href="#b" id="A" gradientUnits="userSpaceOnUse" gradientTransform="matrix(.77779 0 0 .83334 49.998 -130.099)" x1="208.969" y1="-780.607" x2="208.969" y2="-769.823"/><linearGradient xlink:href="#c" id="B" gradientUnits="userSpaceOnUse" gradientTransform="matrix(.625 0 0 .5 80.248 -488.819)" x1="230" y1="-581.638" x2="230" y2="-578.638"/><linearGradient xlink:href="#d" id="C" gradientUnits="userSpaceOnUse" gradientTransform="matrix(.875 0 0 .8 -84.875 -1719.04)" x1="345" y1="1173" x2="345" y2="1178"/><linearGradient xlink:href="#b" id="E" gradientUnits="userSpaceOnUse" gradientTransform="matrix(.21429 0 0 .50002 90.858 491.165)" x1="117.719" y1="976.304" x2="117.719" y2="992.238"/><linearGradient xlink:href="#b" id="F" gradientUnits="userSpaceOnUse" gradientTransform="matrix(.25 0 0 .50002 86.75 491.165)" x1="117.719" y1="982.362" x2="117.719" y2="989.409"/><linearGradient xlink:href="#b" id="G" gradientUnits="userSpaceOnUse" gradientTransform="matrix(.21429 0 0 .50002 90.858 492.165)" x1="117.719" y1="976.304" x2="117.719" y2="992.238"/><linearGradient xlink:href="#b" id="H" gradientUnits="userSpaceOnUse" gradientTransform="matrix(.78573 0 0 .50002 25.141 493.165)" x1="117.719" y1="976.304" x2="117.719" y2="992.238"/><linearGradient xlink:href="#b" id="I" gradientUnits="userSpaceOnUse" gradientTransform="matrix(.57144 0 0 .50002 49.785 494.165)" x1="117.719" y1="976.304" x2="117.719" y2="992.238"/><linearGradient xlink:href="#b" id="D" gradientUnits="userSpaceOnUse" x1="116.481" y1="982.361" x2="116.481" y2="986.861"/><linearGradient xlink:href="#b" id="J" gradientUnits="userSpaceOnUse" gradientTransform="matrix(.77779 0 0 .83334 49.998 -130.099)" x1="208.969" y1="-780.607" x2="208.969" y2="-769.823"/><linearGradient xlink:href="#c" id="K" gradientUnits="userSpaceOnUse" gradientTransform="matrix(.625 0 0 .5 80.248 -488.819)" x1="230" y1="-581.638" x2="230" y2="-578.638"/><linearGradient xlink:href="#d" id="L" gradientUnits="userSpaceOnUse" gradientTransform="matrix(.875 0 0 .8 -84.875 -1719.04)" x1="345" y1="1173" x2="345" y2="1178"/><linearGradient xlink:href="#b" id="N" gradientUnits="userSpaceOnUse" gradientTransform="matrix(.21429 0 0 .50002 90.858 491.165)" x1="117.719" y1="976.304" x2="117.719" y2="992.238"/><linearGradient xlink:href="#b" id="O" gradientUnits="userSpaceOnUse" gradientTransform="matrix(.25 0 0 .50002 86.75 491.165)" x1="117.719" y1="982.362" x2="117.719" y2="989.409"/><linearGradient xlink:href="#b" id="P" gradientUnits="userSpaceOnUse" gradientTransform="matrix(.21429 0 0 .50002 90.858 492.165)" x1="117.719" y1="976.304" x2="117.719" y2="992.238"/><linearGradient xlink:href="#b" id="Q" gradientUnits="userSpaceOnUse" gradientTransform="matrix(.78573 0 0 .50002 25.141 493.165)" x1="117.719" y1="976.304" x2="117.719" y2="992.238"/><linearGradient xlink:href="#b" id="R" gradientUnits="userSpaceOnUse" gradientTransform="matrix(.57144 0 0 .50002 49.785 494.165)" x1="117.719" y1="976.304" x2="117.719" y2="992.238"/><linearGradient xlink:href="#b" id="M" gradientUnits="userSpaceOnUse" x1="116.481" y1="982.361" x2="116.481" y2="986.861"/><linearGradient xlink:href="#b" id="S" gradientUnits="userSpaceOnUse" gradientTransform="matrix(.77779 0 0 .83334 49.998 -130.099)" x1="208.969" y1="-780.607" x2="208.969" y2="-769.823"/><linearGradient xlink:href="#c" id="T" gradientUnits="userSpaceOnUse" gradientTransform="matrix(.625 0 0 .5 80.248 -488.819)" x1="230" y1="-581.638" x2="230" y2="-578.638"/><linearGradient xlink:href="#d" id="U" gradientUnits="userSpaceOnUse" gradientTransform="matrix(.875 0 0 .8 -84.875 -1719.04)" x1="345" y1="1173" x2="345" y2="1178"/><linearGradient xlink:href="#b" id="aa" gradientUnits="userSpaceOnUse" gradientTransform="matrix(.21429 0 0 .50002 90.858 491.165)" x1="117.719" y1="976.304" x2="117.719" y2="992.238"/><linearGradient xlink:href="#b" id="ab" gradientUnits="userSpaceOnUse" gradientTransform="matrix(.25 0 0 .50002 86.75 491.165)" x1="117.719" y1="982.362" x2="117.719" y2="989.409"/><linearGradient xlink:href="#b" id="ac" gradientUnits="userSpaceOnUse" gradientTransform="matrix(.21429 0 0 .50002 90.858 492.165)" x1="117.719" y1="976.304" x2="117.719" y2="992.238"/><linearGradient xlink:href="#b" id="ad" gradientUnits="userSpaceOnUse" gradientTransform="matrix(.78573 0 0 .50002 25.141 493.165)" x1="117.719" y1="976.304" x2="117.719" y2="992.238"/><linearGradient xlink:href="#b" id="ae" gradientUnits="userSpaceOnUse" gradientTransform="matrix(.57144 0 0 .50002 49.785 494.165)" x1="117.719" y1="976.304" x2="117.719" y2="992.238"/><linearGradient xlink:href="#b" id="Z" gradientUnits="userSpaceOnUse" x1="116.481" y1="982.361" x2="116.481" y2="986.861"/><linearGradient xlink:href="#b" id="af" gradientUnits="userSpaceOnUse" gradientTransform="matrix(.77779 0 0 .83334 49.998 -130.099)" x1="208.969" y1="-780.607" x2="208.969" y2="-769.823"/><linearGradient xlink:href="#c" id="ag" gradientUnits="userSpaceOnUse" gradientTransform="matrix(.625 0 0 .5 80.248 -488.819)" x1="230" y1="-581.638" x2="230" y2="-578.638"/><linearGradient xlink:href="#d" id="ah" gradientUnits="userSpaceOnUse" gradientTransform="matrix(.875 0 0 .8 -84.875 -1719.04)" x1="345" y1="1173" x2="345" y2="1178"/><linearGradient xlink:href="#b" id="aj" gradientUnits="userSpaceOnUse" gradientTransform="matrix(.21429 0 0 .50002 90.858 491.165)" x1="117.719" y1="976.304" x2="117.719" y2="992.238"/><linearGradient xlink:href="#b" id="ak" gradientUnits="userSpaceOnUse" gradientTransform="matrix(.25 0 0 .50002 86.75 491.165)" x1="117.719" y1="982.362" x2="117.719" y2="989.409"/><linearGradient xlink:href="#b" id="al" gradientUnits="userSpaceOnUse" gradientTransform="matrix(.21429 0 0 .50002 90.858 492.165)" x1="117.719" y1="976.304" x2="117.719" y2="992.238"/><linearGradient xlink:href="#b" id="am" gradientUnits="userSpaceOnUse" gradientTransform="matrix(.78573 0 0 .50002 25.141 493.165)" x1="117.719" y1="976.304" x2="117.719" y2="992.238"/><linearGradient xlink:href="#b" id="an" gradientUnits="userSpaceOnUse" gradientTransform="matrix(.57144 0 0 .50002 49.785 494.165)" x1="117.719" y1="976.304" x2="117.719" y2="992.238"/><linearGradient xlink:href="#b" id="ai" gradientUnits="userSpaceOnUse" x1="116.481" y1="982.361" x2="116.481" y2="986.861"/><linearGradient xlink:href="#b" id="ao" gradientUnits="userSpaceOnUse" gradientTransform="matrix(.77779 0 0 .83334 49.998 -130.099)" x1="208.969" y1="-780.607" x2="208.969" y2="-769.823"/><linearGradient xlink:href="#c" id="ap" gradientUnits="userSpaceOnUse" gradientTransform="matrix(.625 0 0 .5 80.248 -488.819)" x1="230" y1="-581.638" x2="230" y2="-578.638"/><linearGradient xlink:href="#d" id="aq" gradientUnits="userSpaceOnUse" gradientTransform="matrix(.875 0 0 .8 -84.875 -1719.04)" x1="345" y1="1173" x2="345" y2="1178"/><linearGradient xlink:href="#b" id="as" gradientUnits="userSpaceOnUse" gradientTransform="matrix(.21429 0 0 .50002 90.858 491.165)" x1="117.719" y1="976.304" x2="117.719" y2="992.238"/><linearGradient xlink:href="#b" id="at" gradientUnits="userSpaceOnUse" gradientTransform="matrix(.25 0 0 .50002 86.75 491.165)" x1="117.719" y1="982.362" x2="117.719" y2="989.409"/><linearGradient xlink:href="#b" id="au" gradientUnits="userSpaceOnUse" gradientTransform="matrix(.21429 0 0 .50002 90.858 492.165)" x1="117.719" y1="976.304" x2="117.719" y2="992.238"/><linearGradient xlink:href="#b" id="av" gradientUnits="userSpaceOnUse" gradientTransform="matrix(.78573 0 0 .50002 25.141 493.165)" x1="117.719" y1="976.304" x2="117.719" y2="992.238"/><linearGradient xlink:href="#b" id="aw" gradientUnits="userSpaceOnUse" gradientTransform="matrix(.57144 0 0 .50002 49.785 494.165)" x1="117.719" y1="976.304" x2="117.719" y2="992.238"/><linearGradient xlink:href="#b" id="ar" gradientUnits="userSpaceOnUse" x1="116.481" y1="982.361" x2="116.481" y2="986.861"/><linearGradient xlink:href="#b" id="ax" gradientUnits="userSpaceOnUse" gradientTransform="matrix(.77779 0 0 .83334 49.998 -130.099)" x1="208.969" y1="-780.607" x2="208.969" y2="-769.823"/><linearGradient xlink:href="#c" id="ay" gradientUnits="userSpaceOnUse" gradientTransform="matrix(.625 0 0 .5 80.248 -488.819)" x1="230" y1="-581.638" x2="230" y2="-578.638"/><linearGradient xlink:href="#d" id="az" gradientUnits="userSpaceOnUse" gradientTransform="matrix(.875 0 0 .8 -84.875 -1719.04)" x1="345" y1="1173" x2="345" y2="1178"/></defs><path d="M16.34-3.271c-2.222 0-3.974.053-5.413.295-1.442.242-2.62.695-3.483 1.556C6.58-.558 6.125.617 5.886 2.06c-.24 1.44-.287 3.193-.276 5.422v24.5c-.01 2.226.036 3.98.276 5.418.24 1.441.694 2.616 1.558 3.478.864.862 2.041 1.315 3.483 1.557 1.439.242 3.19.295 5.414.295H32.88c2.223 0 3.972-.053 5.408-.295 1.438-.242 2.614-.694 3.475-1.557.86-.862 1.313-2.038 1.554-3.478.242-1.44.293-3.191.293-5.418V7.477c0-2.227-.051-3.98-.293-5.418-.241-1.44-.694-2.616-1.554-3.479-.861-.862-2.037-1.314-3.475-1.556-1.436-.242-3.185-.295-5.408-.295z" style="color:#000;display:inline;overflow:visible;visibility:visible;fill:url(#f);fill-opacity:1;fill-rule:nonzero;stroke:none;stroke-width:1;marker:none;enable-background:accumulate" transform="translate(-.61 4.271)"/><path d="M16.34-.271c-2.173 0-3.805.065-4.917.252-1.104.185-1.586.45-1.86.722-.273.273-.534.748-.716 1.848-.185 1.11-.247 2.74-.237 4.916v24.526c-.01 2.174.052 3.804.237 4.914.182 1.1.443 1.575.716 1.847.274.273.756.538 1.86.723 1.112.187 2.744.252 4.918.252H32.88c2.173 0 3.804-.066 4.912-.252 1.1-.185 1.578-.449 1.847-.719.272-.272.536-.753.721-1.855.186-1.11.25-2.743.25-4.922V9.729l-10-10z" style="color:#000;font-style:normal;font-variant:normal;font-weight:400;font-stretch:normal;font-size:medium;line-height:normal;font-family:sans-serif;font-variant-ligatures:normal;font-variant-position:normal;font-variant-caps:normal;font-variant-numeric:normal;font-variant-alternates:normal;font-feature-settings:normal;text-indent:0;text-align:start;text-decoration:none;text-decoration-line:none;text-decoration-style:solid;text-decoration-color:#000;letter-spacing:normal;word-spacing:normal;text-transform:none;writing-mode:lr-tb;direction:ltr;text-orientation:mixed;dominant-baseline:auto;baseline-shift:baseline;text-anchor:start;white-space:normal;shape-padding:0;clip-rule:nonzero;display:inline;overflow:visible;visibility:visible;opacity:1;isolation:auto;mix-blend-mode:normal;color-interpolation:sRGB;color-interpolation-filters:linearRGB;solid-color:#000;solid-opacity:1;vector-effect:none;fill:url(#g);fill-opacity:1;fill-rule:nonzero;stroke:none;stroke-width:5;stroke-linecap:butt;stroke-linejoin:miter;stroke-miterlimit:4;stroke-dasharray:none;stroke-dashoffset:0;stroke-opacity:1;marker:none;color-rendering:auto;image-rendering:auto;shape-rendering:auto;text-rendering:auto;enable-background:accumulate" transform="translate(-.61 4.271)"/><path style="display:inline;overflow:visible;visibility:visible;opacity:.5;fill:url(#h);fill-opacity:1;fill-rule:nonzero;stroke:none;stroke-width:1;marker:none;enable-background:new" d="M12.614 13.729h11v9h-11z" transform="translate(-.61 4.271)"/><path style="display:inline;overflow:visible;visibility:visible;opacity:.5;fill:url(#i);fill-opacity:1;fill-rule:nonzero;stroke:none;stroke-width:1;marker:none;enable-background:new" d="M25.614 13.729h11v9h-11z" transform="translate(-.61 4.271)"/><path style="display:inline;overflow:visible;visibility:visible;opacity:.5;fill:url(#j);fill-opacity:1;fill-rule:nonzero;stroke:none;stroke-width:1;marker:none;enable-background:new" d="M25.614 24.729h11v9h-11z" transform="translate(-.61 4.271)"/><path style="display:inline;overflow:visible;visibility:visible;opacity:.5;fill:url(#k);fill-opacity:1;fill-rule:nonzero;stroke:none;stroke-width:1;marker:none;enable-background:new" d="M12.614 24.729h11v9h-11z" transform="translate(-.61 4.271)"/><g style="display:inline;enable-background:new"><g style="display:inline;fill:url(#l);fill-opacity:1" transform="matrix(1.99996 0 0 2 -218.996 -1946.722)"><path style="display:inline;overflow:visible;visibility:visible;fill:url(#m);fill-opacity:1;fill-rule:nonzero;stroke:none;stroke-width:5.01121998;marker:none" d="M115.501 983.361h1.5v.5h-1.5z"/><path style="display:inline;overflow:visible;visibility:visible;fill:url(#n);fill-opacity:1;fill-rule:nonzero;stroke:none;stroke-width:5.01121998;marker:none" d="M115.501 982.361h1.5v.5h-1.5z"/><path style="display:inline;overflow:visible;visibility:visible;fill:url(#o);fill-opacity:1;fill-rule:nonzero;stroke:none;stroke-width:5.01121998;marker:none" d="M115.501 984.361h1.5v.5h-1.5z"/><path style="display:inline;overflow:visible;visibility:visible;fill:url(#p);fill-opacity:1;fill-rule:nonzero;stroke:none;stroke-width:5.01121998;marker:none" d="M115.501 985.361h5.5v.5h-5.5z"/><path style="display:inline;overflow:visible;visibility:visible;fill:url(#q);fill-opacity:1;fill-rule:nonzero;stroke:none;stroke-width:5.01121998;marker:none" d="M115.501 986.361h4v.5h-4z"/></g><path style="display:inline;overflow:visible;visibility:visible;fill:url(#r);fill-opacity:1;fill-rule:nonzero;stroke:none;stroke-width:2;marker:none" d="M218-780.638h7v5h-7z" transform="matrix(.99998 0 0 1 -201.996 798.638)"/><path style="display:inline;overflow:visible;visibility:visible;fill:url(#s);fill-opacity:1;fill-rule:nonzero;stroke:none;stroke-width:2;marker:none" d="M219-779.638h5v3h-5z" transform="matrix(.99998 0 0 1 -201.996 798.638)"/><path d="m221-779.138-2 2v.5h5v-.5z" style="display:inline;overflow:visible;visibility:visible;fill:url(#t);fill-opacity:1;fill-rule:nonzero;stroke:none;stroke-width:2;marker:none" transform="matrix(.99998 0 0 1 -201.996 798.638)"/></g><g style="display:inline;enable-background:new"><g transform="matrix(1.99996 0 0 2 -205.996 -1946.722)" style="display:inline;fill:url(#u);fill-opacity:1"><path style="display:inline;overflow:visible;visibility:visible;fill:url(#v);fill-opacity:1;fill-rule:nonzero;stroke:none;stroke-width:5.01121998;marker:none" d="M115.501 983.361h1.5v.5h-1.5z"/><path style="display:inline;overflow:visible;visibility:visible;fill:url(#w);fill-opacity:1;fill-rule:nonzero;stroke:none;stroke-width:5.01121998;marker:none" d="M115.501 982.361h1.5v.5h-1.5z"/><path style="display:inline;overflow:visible;visibility:visible;fill:url(#x);fill-opacity:1;fill-rule:nonzero;stroke:none;stroke-width:5.01121998;marker:none" d="M115.501 984.361h1.5v.5h-1.5z"/><path style="display:inline;overflow:visible;visibility:visible;fill:url(#y);fill-opacity:1;fill-rule:nonzero;stroke:none;stroke-width:5.01121998;marker:none" d="M115.501 985.361h5.5v.5h-5.5z"/><path style="display:inline;overflow:visible;visibility:visible;fill:url(#z);fill-opacity:1;fill-rule:nonzero;stroke:none;stroke-width:5.01121998;marker:none" d="M115.501 986.361h4v.5h-4z"/></g><path style="display:inline;overflow:visible;visibility:visible;fill:url(#A);fill-opacity:1;fill-rule:nonzero;stroke:none;stroke-width:2;marker:none" d="M218-780.638h7v5h-7z" transform="matrix(.99998 0 0 1 -188.996 798.638)"/><path style="display:inline;overflow:visible;visibility:visible;fill:url(#B);fill-opacity:1;fill-rule:nonzero;stroke:none;stroke-width:2;marker:none" d="M219-779.638h5v3h-5z" transform="matrix(.99998 0 0 1 -188.996 798.638)"/><path style="display:inline;overflow:visible;visibility:visible;fill:url(#C);fill-opacity:1;fill-rule:nonzero;stroke:none;stroke-width:2;marker:none" d="m221-779.138-2 2v.5h5v-.5z" transform="matrix(.99998 0 0 1 -188.996 798.638)"/></g><g style="display:inline;enable-background:new"><g style="display:inline;fill:url(#D);fill-opacity:1" transform="matrix(1.99996 0 0 2 -205.996 -1935.722)"><path style="display:inline;overflow:visible;visibility:visible;fill:url(#E);fill-opacity:1;fill-rule:nonzero;stroke:none;stroke-width:5.01121998;marker:none" d="M115.501 983.361h1.5v.5h-1.5z"/><path style="display:inline;overflow:visible;visibility:visible;fill:url(#F);fill-opacity:1;fill-rule:nonzero;stroke:none;stroke-width:5.01121998;marker:none" d="M115.501 982.361h1.5v.5h-1.5z"/><path style="display:inline;overflow:visible;visibility:visible;fill:url(#G);fill-opacity:1;fill-rule:nonzero;stroke:none;stroke-width:5.01121998;marker:none" d="M115.501 984.361h1.5v.5h-1.5z"/><path style="display:inline;overflow:visible;visibility:visible;fill:url(#H);fill-opacity:1;fill-rule:nonzero;stroke:none;stroke-width:5.01121998;marker:none" d="M115.501 985.361h5.5v.5h-5.5z"/><path style="display:inline;overflow:visible;visibility:visible;fill:url(#I);fill-opacity:1;fill-rule:nonzero;stroke:none;stroke-width:5.01121998;marker:none" d="M115.501 986.361h4v.5h-4z"/></g><path style="display:inline;overflow:visible;visibility:visible;fill:url(#J);fill-opacity:1;fill-rule:nonzero;stroke:none;stroke-width:2;marker:none" d="M218-780.638h7v5h-7z" transform="matrix(.99998 0 0 1 -188.996 809.638)"/><path style="display:inline;overflow:visible;visibility:visible;fill:url(#K);fill-opacity:1;fill-rule:nonzero;stroke:none;stroke-width:2;marker:none" d="M219-779.638h5v3h-5z" transform="matrix(.99998 0 0 1 -188.996 809.638)"/><path d="m221-779.138-2 2v.5h5v-.5z" style="display:inline;overflow:visible;visibility:visible;fill:url(#L);fill-opacity:1;fill-rule:nonzero;stroke:none;stroke-width:2;marker:none" transform="matrix(.99998 0 0 1 -188.996 809.638)"/></g><g style="display:inline;enable-background:new"><g transform="matrix(1.99996 0 0 2 -218.996 -1935.722)" style="display:inline;fill:url(#M);fill-opacity:1"><path style="display:inline;overflow:visible;visibility:visible;fill:url(#N);fill-opacity:1;fill-rule:nonzero;stroke:none;stroke-width:5.01121998;marker:none" d="M115.501 983.361h1.5v.5h-1.5z"/><path style="display:inline;overflow:visible;visibility:visible;fill:url(#O);fill-opacity:1;fill-rule:nonzero;stroke:none;stroke-width:5.01121998;marker:none" d="M115.501 982.361h1.5v.5h-1.5z"/><path style="display:inline;overflow:visible;visibility:visible;fill:url(#P);fill-opacity:1;fill-rule:nonzero;stroke:none;stroke-width:5.01121998;marker:none" d="M115.501 984.361h1.5v.5h-1.5z"/><path style="display:inline;overflow:visible;visibility:visible;fill:url(#Q);fill-opacity:1;fill-rule:nonzero;stroke:none;stroke-width:5.01121998;marker:none" d="M115.501 985.361h5.5v.5h-5.5z"/><path style="display:inline;overflow:visible;visibility:visible;fill:url(#R);fill-opacity:1;fill-rule:nonzero;stroke:none;stroke-width:5.01121998;marker:none" d="M115.501 986.361h4v.5h-4z"/></g><path style="display:inline;overflow:visible;visibility:visible;fill:url(#S);fill-opacity:1;fill-rule:nonzero;stroke:none;stroke-width:2;marker:none" d="M218-780.638h7v5h-7z" transform="matrix(.99998 0 0 1 -201.996 809.638)"/><path style="display:inline;overflow:visible;visibility:visible;fill:url(#T);fill-opacity:1;fill-rule:nonzero;stroke:none;stroke-width:2;marker:none" d="M219-779.638h5v3h-5z" transform="matrix(.99998 0 0 1 -201.996 809.638)"/><path style="display:inline;overflow:visible;visibility:visible;fill:url(#U);fill-opacity:1;fill-rule:nonzero;stroke:none;stroke-width:2;marker:none" d="m221-779.138-2 2v.5h5v-.5z" transform="matrix(.99998 0 0 1 -201.996 809.638)"/></g><path style="display:inline;overflow:visible;visibility:visible;opacity:.5;fill:url(#V);fill-opacity:1;fill-rule:nonzero;stroke:none;stroke-width:1;marker:none;enable-background:new" d="M12.614 13.729h11v9h-11z" transform="translate(-.61 4.271)"/><path style="display:inline;overflow:visible;visibility:visible;opacity:.5;fill:url(#W);fill-opacity:1;fill-rule:nonzero;stroke:none;stroke-width:1;marker:none;enable-background:new" d="M25.614 13.729h11v9h-11z" transform="translate(-.61 4.271)"/><path style="display:inline;overflow:visible;visibility:visible;opacity:.5;fill:url(#X);fill-opacity:1;fill-rule:nonzero;stroke:none;stroke-width:1;marker:none;enable-background:new" d="M25.614 24.729h11v9h-11z" transform="translate(-.61 4.271)"/><path style="display:inline;overflow:visible;visibility:visible;opacity:.5;fill:url(#Y);fill-opacity:1;fill-rule:nonzero;stroke:none;stroke-width:1;marker:none;enable-background:new" d="M12.614 24.729h11v9h-11z" transform="translate(-.61 4.271)"/><g style="display:inline;enable-background:new"><g transform="matrix(1.99996 0 0 2 -218.996 -1946.722)" style="display:inline;fill:url(#Z);fill-opacity:1"><path style="display:inline;overflow:visible;visibility:visible;fill:url(#aa);fill-opacity:1;fill-rule:nonzero;stroke:none;stroke-width:5.01121998;marker:none" d="M115.501 983.361h1.5v.5h-1.5z"/><path style="display:inline;overflow:visible;visibility:visible;fill:url(#ab);fill-opacity:1;fill-rule:nonzero;stroke:none;stroke-width:5.01121998;marker:none" d="M115.501 982.361h1.5v.5h-1.5z"/><path style="display:inline;overflow:visible;visibility:visible;fill:url(#ac);fill-opacity:1;fill-rule:nonzero;stroke:none;stroke-width:5.01121998;marker:none" d="M115.501 984.361h1.5v.5h-1.5z"/><path style="display:inline;overflow:visible;visibility:visible;fill:url(#ad);fill-opacity:1;fill-rule:nonzero;stroke:none;stroke-width:5.01121998;marker:none" d="M115.501 985.361h5.5v.5h-5.5z"/><path style="display:inline;overflow:visible;visibility:visible;fill:url(#ae);fill-opacity:1;fill-rule:nonzero;stroke:none;stroke-width:5.01121998;marker:none" d="M115.501 986.361h4v.5h-4z"/></g><path style="display:inline;overflow:visible;visibility:visible;fill:url(#af);fill-opacity:1;fill-rule:nonzero;stroke:none;stroke-width:2;marker:none" d="M218-780.638h7v5h-7z" transform="matrix(.99998 0 0 1 -201.996 798.638)"/><path style="display:inline;overflow:visible;visibility:visible;fill:url(#ag);fill-opacity:1;fill-rule:nonzero;stroke:none;stroke-width:2;marker:none" d="M219-779.638h5v3h-5z" transform="matrix(.99998 0 0 1 -201.996 798.638)"/><path style="display:inline;overflow:visible;visibility:visible;fill:url(#ah);fill-opacity:1;fill-rule:nonzero;stroke:none;stroke-width:2;marker:none" d="m221-779.138-2 2v.5h5v-.5z" transform="matrix(.99998 0 0 1 -201.996 798.638)"/></g><g style="display:inline;enable-background:new"><g style="display:inline;fill:url(#ai);fill-opacity:1" transform="matrix(1.99996 0 0 2 -205.996 -1946.722)"><path style="display:inline;overflow:visible;visibility:visible;fill:url(#aj);fill-opacity:1;fill-rule:nonzero;stroke:none;stroke-width:5.01121998;marker:none" d="M115.501 983.361h1.5v.5h-1.5z"/><path style="display:inline;overflow:visible;visibility:visible;fill:url(#ak);fill-opacity:1;fill-rule:nonzero;stroke:none;stroke-width:5.01121998;marker:none" d="M115.501 982.361h1.5v.5h-1.5z"/><path style="display:inline;overflow:visible;visibility:visible;fill:url(#al);fill-opacity:1;fill-rule:nonzero;stroke:none;stroke-width:5.01121998;marker:none" d="M115.501 984.361h1.5v.5h-1.5z"/><path style="display:inline;overflow:visible;visibility:visible;fill:url(#am);fill-opacity:1;fill-rule:nonzero;stroke:none;stroke-width:5.01121998;marker:none" d="M115.501 985.361h5.5v.5h-5.5z"/><path style="display:inline;overflow:visible;visibility:visible;fill:url(#an);fill-opacity:1;fill-rule:nonzero;stroke:none;stroke-width:5.01121998;marker:none" d="M115.501 986.361h4v.5h-4z"/></g><path style="display:inline;overflow:visible;visibility:visible;fill:url(#ao);fill-opacity:1;fill-rule:nonzero;stroke:none;stroke-width:2;marker:none" d="M218-780.638h7v5h-7z" transform="matrix(.99998 0 0 1 -188.996 798.638)"/><path style="display:inline;overflow:visible;visibility:visible;fill:url(#ap);fill-opacity:1;fill-rule:nonzero;stroke:none;stroke-width:2;marker:none" d="M219-779.638h5v3h-5z" transform="matrix(.99998 0 0 1 -188.996 798.638)"/><path d="m221-779.138-2 2v.5h5v-.5z" style="display:inline;overflow:visible;visibility:visible;fill:url(#aq);fill-opacity:1;fill-rule:nonzero;stroke:none;stroke-width:2;marker:none" transform="matrix(.99998 0 0 1 -188.996 798.638)"/></g><g style="display:inline;enable-background:new"><g transform="matrix(1.99996 0 0 2 -205.996 -1935.722)" style="display:inline;fill:url(#ar);fill-opacity:1"><path style="display:inline;overflow:visible;visibility:visible;fill:url(#as);fill-opacity:1;fill-rule:nonzero;stroke:none;stroke-width:5.01121998;marker:none" d="M115.501 983.361h1.5v.5h-1.5z"/><path style="display:inline;overflow:visible;visibility:visible;fill:url(#at);fill-opacity:1;fill-rule:nonzero;stroke:none;stroke-width:5.01121998;marker:none" d="M115.501 982.361h1.5v.5h-1.5z"/><path style="display:inline;overflow:visible;visibility:visible;fill:url(#au);fill-opacity:1;fill-rule:nonzero;stroke:none;stroke-width:5.01121998;marker:none" d="M115.501 984.361h1.5v.5h-1.5z"/><path style="display:inline;overflow:visible;visibility:visible;fill:url(#av);fill-opacity:1;fill-rule:nonzero;stroke:none;stroke-width:5.01121998;marker:none" d="M115.501 985.361h5.5v.5h-5.5z"/><path style="display:inline;overflow:visible;visibility:visible;fill:url(#aw);fill-opacity:1;fill-rule:nonzero;stroke:none;stroke-width:5.01121998;marker:none" d="M115.501 986.361h4v.5h-4z"/></g><path style="display:inline;overflow:visible;visibility:visible;fill:url(#ax);fill-opacity:1;fill-rule:nonzero;stroke:none;stroke-width:2;marker:none" d="M218-780.638h7v5h-7z" transform="matrix(.99998 0 0 1 -188.996 809.638)"/><path style="display:inline;overflow:visible;visibility:visible;fill:url(#ay);fill-opacity:1;fill-rule:nonzero;stroke:none;stroke-width:2;marker:none" d="M219-779.638h5v3h-5z" transform="matrix(.99998 0 0 1 -188.996 809.638)"/><path style="display:inline;overflow:visible;visibility:visible;fill:url(#az);fill-opacity:1;fill-rule:nonzero;stroke:none;stroke-width:2;marker:none" d="m221-779.138-2 2v.5h5v-.5z" transform="matrix(.99998 0 0 1 -188.996 809.638)"/></g><g style="display:inline;enable-background:new"><g style="display:inline;fill:url(#aA);fill-opacity:1" transform="matrix(1.99996 0 0 2 -218.996 -1935.722)"><path style="display:inline;overflow:visible;visibility:visible;fill:url(#aB);fill-opacity:1;fill-rule:nonzero;stroke:none;stroke-width:5.01121998;marker:none" d="M115.501 983.361h1.5v.5h-1.5z"/><path style="display:inline;overflow:visible;visibility:visible;fill:url(#aC);fill-opacity:1;fill-rule:nonzero;stroke:none;stroke-width:5.01121998;marker:none" d="M115.501 982.361h1.5v.5h-1.5z"/><path style="display:inline;overflow:visible;visibility:visible;fill:url(#aD);fill-opacity:1;fill-rule:nonzero;stroke:none;stroke-width:5.01121998;marker:none" d="M115.501 984.361h1.5v.5h-1.5z"/><path style="display:inline;overflow:visible;visibility:visible;fill:url(#aE);fill-opacity:1;fill-rule:nonzero;stroke:none;stroke-width:5.01121998;marker:none" d="M115.501 985.361h5.5v.5h-5.5z"/><path style="display:inline;overflow:visible;visibility:visible;fill:url(#aF);fill-opacity:1;fill-rule:nonzero;stroke:none;stroke-width:5.01121998;marker:none" d="M115.501 986.361h4v.5h-4z"/></g><path style="display:inline;overflow:visible;visibility:visible;fill:url(#aG);fill-opacity:1;fill-rule:nonzero;stroke:none;stroke-width:2;marker:none" d="M218-780.638h7v5h-7z" transform="matrix(.99998 0 0 1 -201.996 809.638)"/><path style="display:inline;overflow:visible;visibility:visible;fill:url(#aH);fill-opacity:1;fill-rule:nonzero;stroke:none;stroke-width:2;marker:none" d="M219-779.638h5v3h-5z" transform="matrix(.99998 0 0 1 -201.996 809.638)"/><path d="m221-779.138-2 2v.5h5v-.5z" style="display:inline;overflow:visible;visibility:visible;fill:url(#aI);fill-opacity:1;fill-rule:nonzero;stroke:none;stroke-width:2;marker:none" transform="matrix(.99998 0 0 1 -201.996 809.638)"/></g><path style="color:#000;display:inline;overflow:visible;visibility:visible;opacity:.3;fill:none;fill-opacity:1;fill-rule:nonzero;stroke:url(#aJ);stroke-width:1;stroke-opacity:1;marker:none;enable-background:accumulate" d="M16.342-2.771c-2.215 0-3.947.054-5.332.287-1.385.232-2.445.654-3.21 1.418C7.033-.302 6.61.756 6.38 2.14c-.23 1.385-.28 3.118-.27 5.338V31.98c-.01 2.218.04 3.952.27 5.336.23 1.384.653 2.443 1.418 3.207.766.763 1.826 1.185 3.211 1.418 1.385.232 3.117.287 5.332.287h16.54c2.214 0 3.944-.055 5.325-.287 1.382-.233 2.44-.654 3.203-1.418.763-.764 1.184-1.823 1.416-3.207.233-1.384.286-3.117.286-5.336V7.477c0-2.22-.053-3.952-.286-5.336-.232-1.384-.653-2.443-1.416-3.207-.762-.764-1.821-1.186-3.203-1.418-1.381-.233-3.111-.287-5.326-.287z" transform="translate(-.61 4.271)"/></svg>