<svg xmlns="http://www.w3.org/2000/svg" height="32" width="32"><path stroke-width="2" d="M5 4v24h5V13.776c0-.638-.038-1.33-.114-2.077l12.799 15.487c.253.289.508.5.761.632.266.12.595.182.988.182H27V4h-5v14.06c0 .71.035 1.463.111 2.258L9.295 4.741a3.895 3.895 0 00-.38-.38 1.008 1.008 0 00-.34-.217 1.03 1.03 0 00-.402-.109A3.595 3.595 0 007.623 4z" stroke="#000" opacity=".7" stroke-linejoin="round"/><path d="M5 4v24h5V13.776c0-.638-.038-1.33-.114-2.077l12.799 15.487c.253.289.508.5.761.632.266.12.595.182.988.182H27V4h-5v14.06c0 .71.035 1.463.111 2.258L9.295 4.741a3.895 3.895 0 00-.38-.38 1.008 1.008 0 00-.34-.217 1.03 1.03 0 00-.402-.109A3.595 3.595 0 007.623 4z" fill="#fff"/></svg>