<svg xmlns="http://www.w3.org/2000/svg" viewBox="0 0 32 32"><defs><linearGradient id="a"><stop offset="0" stop-color="#555"/><stop offset="1" stop-color="#666"/></linearGradient></defs><path opacity=".7" stroke="#000" stroke-width="2" stroke-linejoin="round" d="M7 27h18v1H7zM22.037 19.534c0 .861-.18 1.633-.542 2.317a4.833 4.833 0 01-1.514 1.718c-.66.47-1.464.83-2.412 1.078-.948.24-1.68.36-2.865.36-1.144 0-2.216-.08-3.215-.24-.99-.15-1.82-.377-2.489-.679l-.008-2.226c.35.142.747.284 1.19.426a19.966 19.966 0 002.953.626c.525.062 1.046.093 1.561.093 1.649 0 2.53-.267 3.314-.8.793-.532 1.198-1.44 1.198-2.433 0-.48-.078-.897-.232-1.252-.144-.355-.407-.68-.788-.972-.371-.302-.871-.59-1.5-.866a25.455 25.455 0 00-2.314-.918 15.935 15.935 0 01-2.396-1.012c-.67-.373-1.226-.79-1.67-1.252a4.614 4.614 0 01-.973-1.571c-.206-.586-.31-1.252-.31-1.998 0-.781.166-1.478.495-2.09a4.429 4.429 0 011.392-1.545c.597-.426 1.308-.75 2.133-.972.835-.222 2.02-.333 3.02-.333 1.226 0 2.328.102 3.307.306.98.196 1.85.449 2.613.76L20.949 7.97a15.75 15.75 0 00-2.288-.665 11.633 11.633 0 00-2.628-.293c-1.257 0-2.499.253-3.19.759-.69.497-1.035 1.336-1.035 2.188 0 .506.077.945.232 1.318.155.364.412.697.773.999.36.293.835.572 1.422.839.598.257 1.263.532 2.128.825.938.32 1.758.648 2.458.986.711.337 1.304.719 1.778 1.145.474.426.83.919 1.067 1.478.247.56.37 1.22.37 1.984z"/><path d="M22.037 19.534c0 .861-.18 1.633-.542 2.317a4.833 4.833 0 01-1.514 1.718c-.66.47-1.464.83-2.412 1.078-.948.24-1.68.36-2.865.36-1.144 0-2.216-.08-3.215-.24-.99-.15-1.82-.377-2.489-.679l-.008-2.226c.35.142.747.284 1.19.426a19.966 19.966 0 002.953.626c.525.062 1.046.093 1.561.093 1.649 0 2.53-.267 3.314-.8.793-.532 1.198-1.44 1.198-2.433 0-.48-.078-.897-.232-1.252-.144-.355-.407-.68-.788-.972-.371-.302-.871-.59-1.5-.866a25.455 25.455 0 00-2.314-.918 15.935 15.935 0 01-2.396-1.012c-.67-.373-1.226-.79-1.67-1.252a4.614 4.614 0 01-.973-1.571c-.206-.586-.31-1.252-.31-1.998 0-.781.166-1.478.495-2.09a4.429 4.429 0 011.392-1.545c.597-.426 1.308-.75 2.133-.972.835-.222 2.02-.333 3.02-.333 1.226 0 2.328.102 3.307.306.98.196 1.85.449 2.613.76L20.949 7.97a15.75 15.75 0 00-2.288-.665 11.633 11.633 0 00-2.628-.293c-1.257 0-2.499.253-3.19.759-.69.497-1.035 1.336-1.035 2.188 0 .506.077.945.232 1.318.155.364.412.697.773.999.36.293.835.572 1.422.839.598.257 1.263.532 2.128.825.938.32 1.758.648 2.458.986.711.337 1.304.719 1.778 1.145.474.426.83.919 1.067 1.478.247.56.37 1.22.37 1.984zM7 27h18v1H7z" fill="#fff"/></svg>