<svg xmlns="http://www.w3.org/2000/svg" viewBox="0 0 24 24"><path style="opacity:.7;fill:#000;stroke:#000;stroke-width:2;stroke-linejoin:round;stroke-miterlimit:4;stroke-dasharray:none" d="M8 20c-2 0-3 0-3-2V6c0-2 1-2 3-2h8c2 0 3 0 3 2v12c0 2-1 2-3 2z"/><path d="M8 20c-2 0-3 0-3-2V6c0-2 1-2 3-2h8c2 0 3 0 3 2v12c0 2-1 2-3 2z" style="fill:#ffd9b2;fill-opacity:1"/><path style="opacity:1;fill:#6d6d6d;fill-opacity:1;stroke:none;stroke-width:2;stroke-linejoin:round;stroke-miterlimit:4;stroke-dasharray:none;stroke-opacity:1" d="M9 4h1v16H9z"/><circle style="opacity:1;fill:#6d6d6d;fill-opacity:1;stroke:none;stroke-width:4;stroke-linejoin:round;stroke-miterlimit:4;stroke-dasharray:none;stroke-opacity:1" cx="7" cy="8" r="1"/><circle style="opacity:1;fill:#6d6d6d;fill-opacity:1;stroke:none;stroke-width:4;stroke-linejoin:round;stroke-miterlimit:4;stroke-dasharray:none;stroke-opacity:1" cx="7" cy="16" r="1"/><path style="fill:#6d6d6d;fill-opacity:1;stroke:none;stroke-width:1px;stroke-linecap:butt;stroke-linejoin:miter;stroke-opacity:1" d="m13 10 1.5-2 1.5 2V4h-3z"/></svg>