<svg viewBox="0 0 24 24" xmlns="http://www.w3.org/2000/svg"><path style="font-style:normal;font-variant:normal;font-weight:400;font-stretch:normal;font-size:15px;line-height:125%;font-family:Ubuntu;-inkscape-font-specification:Ubuntu;text-align:center;letter-spacing:0;word-spacing:0;writing-mode:lr-tb;text-anchor:middle;display:inline;opacity:.7;fill:#000;fill-opacity:1;stroke:none;stroke-width:.99980211" d="M4.994 1c-1.258.014-2.179-.03-2.931.385a1.88 1.88 0 0 0-.838.998C1.06 2.82 1 3.343 1 4v4h6V7a1 1 0 0 1 .553-.895 1 1 0 0 1 .537-.101 1 1 0 0 1 .51.195l4 3a1 1 0 0 1 0 1.602l-4 3A1 1 0 0 1 7 13v-1H1v4c0 .658.06 1.179.225 1.617.164.439.461.789.837.996.753.415 1.674.372 2.932.387h8.012c.99-.011 1.769.01 2.424-.182a1 1 0 0 1-.03-.017l-4-3a1 1 0 0 1 0-1.602l4-3a1 1 0 0 1 .51-.195 1 1 0 0 1 .537.101A1 1 0 0 1 17 12V4c0-.658-.06-1.179-.225-1.617a1.875 1.875 0 0 0-.837-.996c-.753-.415-1.674-.372-2.932-.387H4.994z"/><path style="opacity:1;vector-effect:none;fill:#fff;fill-opacity:1;stroke:none;stroke-width:1;stroke-linecap:round;stroke-linejoin:bevel;stroke-miterlimit:4;stroke-dasharray:none;stroke-dashoffset:0;stroke-opacity:1" d="M8 2c-1.557.01-3.11-.011-4.66.04-.461.042-1.015.204-1.154.708-.22.635-.11 1.334-.147 1.982L2.033 8H7V7a1 1 0 0 1 .553-.895 1 1 0 0 1 .537-.101 1 1 0 0 1 .51.195l4 3a1 1 0 0 1 0 1.602l-4 3A1 1 0 0 1 7 13v-1H2.033c.003 1.899.01 3.693.028 4.617.039.462.203 1.011.699 1.162.632.225 1.283.123 1.935.155 1.425.006 2.85.011 4.276.011 1.704 0 3.408-.004 5.107-.017l.154-.004L11.4 15.8a1 1 0 0 1 0-1.602l4-3a1 1 0 0 1 .51-.195 1 1 0 0 1 .084.004c.003-3.005.002-6.213-.03-7.746-.048-.402-.17-.864-.575-1.045-.668-.294-1.426-.168-2.125-.205C11.509 2 9.754 1.999 8 2z"/><path style="font-style:normal;font-variant:normal;font-weight:400;font-stretch:normal;font-size:15px;line-height:125%;font-family:Ubuntu;-inkscape-font-specification:Ubuntu;text-align:center;letter-spacing:0;word-spacing:0;writing-mode:lr-tb;text-anchor:middle;display:inline;opacity:.7;fill:#000;fill-opacity:1;stroke:none;stroke-width:.99980211" d="M10.994 5c-1.258.014-2.179-.03-2.931.385a1.88 1.88 0 0 0-.838.998 1 1 0 0 1 .328-.278 1 1 0 0 1 .537-.101 1 1 0 0 1 .51.195l4 3a1 1 0 0 1 0 1.602l-4 3A1 1 0 0 1 7 13v7c0 .658.06 1.179.225 1.617.164.439.461.789.838.996.752.415 1.673.372 2.931.387h8.012c1.258-.015 2.179.03 2.931-.385a1.88 1.88 0 0 0 .838-.998c.165-.438.225-.96.225-1.617v-3h-6v1a1 1 0 0 1-1.6.8l-4-3a1 1 0 0 1 0-1.6l4-3a1 1 0 0 1 .51-.196 1 1 0 0 1 .537.101A1 1 0 0 1 17 12v1h6V8c0-.658-.06-1.179-.225-1.617a1.875 1.875 0 0 0-.837-.996c-.753-.415-1.674-.372-2.932-.387h-8.012z"/><path style="opacity:1;vector-effect:none;fill:#fff;fill-opacity:1;stroke:none;stroke-width:1;stroke-linecap:round;stroke-linejoin:bevel;stroke-miterlimit:4;stroke-dasharray:none;stroke-dashoffset:0;stroke-opacity:1" d="M14 6c-1.557.01-3.11-.011-4.66.04-.234.02-.49.073-.705.185L12.6 9.199a1 1 0 0 1 0 1.602l-4 3a1 1 0 0 1-.569.195c0 2.654.005 5.346.03 6.621.039.462.203 1.011.699 1.162.632.225 1.283.123 1.935.155 1.425.006 2.85.011 4.276.011 1.704 0 3.408-.004 5.107-.017.512-.012 1.185.019 1.586-.407.421-.54.287-1.266.322-1.902.003-.611.006-1.536.008-2.619H17v1a1 1 0 0 1-1.6.8l-4-3a1 1 0 0 1 0-1.6l4-3a1 1 0 0 1 .51-.196 1 1 0 0 1 .537.101A1 1 0 0 1 17 12v1h4.998c-.001-2.32-.01-4.591-.033-5.738-.05-.402-.171-.864-.576-1.045-.668-.294-1.426-.168-2.125-.205C17.509 6 15.754 5.999 14 6z"/><path d="m12 10-4 3v-2H0V9h8V7ZM12 15l4 3v-2h8v-2h-8v-2z" style="fill:#7764D8;fill-opacity:1;stroke:none;stroke-width:1px;stroke-linecap:butt;stroke-linejoin:miter;stroke-opacity:1"/></svg>