<svg viewBox="0 0 24 24" xmlns="http://www.w3.org/2000/svg"><path style="fill:#f2cbf8;fill-opacity:1" d="M12 4c-4.418 0-8 .895-8 2v12c0 1.105 3.582 2 8 2v-5a1 1 0 0 1 1-1h3a1 1 0 0 1 1 1v1h1v-1a1 1 0 0 1 1-1h1V6c0-1.105-3.582-2-8-2zm4 14v1h2.922l.078-.033V18h-3z"/><path style="fill:#8e03a3;fill-opacity:1" d="M12 4c-4.418 0-8 .895-8 2v12c0 1.105 3.582 2 8 2v-1c-3.866 0-7-.448-7-1v-3.063C6.353 15.563 8.958 16 12 16v-1c-3.866 0-7-.448-7-1v-3.063C6.353 11.563 8.958 12 12 12s5.647-.438 7-1.063V14h1V6c0-1.105-3.582-2-8-2zm0 1c3.866 0 7 .448 7 1s-3.134 1-7 1-7-.448-7-1 3.134-1 7-1zM5 6.938C6.353 7.561 8.958 8 12 8s5.647-.438 7-1.063V10c0 .552-3.134 1-7 1s-7-.448-7-1V6.938zm13.174 7.533c-.328.087-.744.166-1.233.236A1 1 0 0 1 17 15v.547c.362-.075.694-.159 1-.248V15a1 1 0 0 1 .174-.53zM19 18c0 .34-1.188.64-3 .82V19h2.928c.024-.01.049-.02.072-.031V18z"/><path d="M15 17v3h5v-3z" style="fill:#7764D8;fill-opacity:1"/><path style="fill:#7764D8;fill-opacity:1;stroke:none;stroke-width:1px;stroke-linecap:butt;stroke-linejoin:miter;stroke-opacity:1" d="M19 15h3v7h-3v-1h2v-5h-2zM16 15h-3v7h3v-1h-2v-5h2z"/></svg>