<svg xmlns="http://www.w3.org/2000/svg" viewBox="0 0 24 24"><path style="fill:#7764D8;fill-opacity:1;stroke:none;stroke-width:1px;stroke-linecap:butt;stroke-linejoin:miter;stroke-opacity:1" d="m21 11-5-2.5L21 6z"/><path style="fill:#fff;fill-rule:evenodd;stroke-width:3;stroke-linecap:round;stroke-linejoin:round" transform="scale(1 -1)" d="M3-7h10v1H3z"/><path style="fill:#232629;fill-rule:evenodd;stroke-width:3;stroke-linecap:round;stroke-linejoin:round" transform="scale(1 -1)" d="M3-6h10v1H3z"/><path style="fill:#fff;fill-rule:evenodd;stroke-width:3;stroke-linecap:round;stroke-linejoin:round" transform="scale(1 -1)" d="M3-9h10v1H3z"/><path style="fill:#232629;fill-rule:evenodd;stroke-width:3;stroke-linecap:round;stroke-linejoin:round" transform="scale(1 -1)" d="M3-8h10v1H3z"/><path style="fill:#fff;fill-rule:evenodd;stroke-width:3;stroke-linecap:round;stroke-linejoin:round" transform="scale(1 -1)" d="M3-11h10v1H3z"/><path style="fill:#232629;fill-rule:evenodd;stroke-width:3;stroke-linecap:round;stroke-linejoin:round" transform="scale(1 -1)" d="M3-10h10v1H3z"/><path style="fill:#fff;fill-rule:evenodd;stroke-width:3;stroke-linecap:round;stroke-linejoin:round" transform="scale(1 -1)" d="M3-16h18v1H3z"/><path style="fill:#232629;fill-rule:evenodd;stroke-width:3;stroke-linecap:round;stroke-linejoin:round" transform="scale(1 -1)" d="M3-15h18v1H3z"/><path style="fill:#fff;fill-rule:evenodd;stroke-width:3;stroke-linecap:round;stroke-linejoin:round" transform="scale(1 -1)" d="M3-13h10v1H3z"/><path style="fill:#232629;fill-rule:evenodd;stroke-width:3;stroke-linecap:round;stroke-linejoin:round" transform="scale(1 -1)" d="M3-12h10v1H3z"/><path style="fill:#fff;fill-rule:evenodd;stroke-width:2.99999;stroke-linecap:round;stroke-linejoin:round" transform="scale(1 -1)" d="M3-20h18v1H3z"/><path style="fill:#232629;fill-rule:evenodd;stroke-width:2.99999;stroke-linecap:round;stroke-linejoin:round" transform="scale(1 -1)" d="M3-19h18v1H3z"/><path style="fill:#fff;fill-rule:evenodd;stroke-width:2.99999;stroke-linecap:round;stroke-linejoin:round" transform="scale(1 -1)" d="M3-18h18v1H3z"/><path style="fill:#232629;fill-rule:evenodd;stroke-width:2.99999;stroke-linecap:round;stroke-linejoin:round" transform="scale(1 -1)" d="M3-17h18v1H3z"/></svg>