<svg xmlns="http://www.w3.org/2000/svg" viewBox="0 0 24 24"><path style="opacity:.7;fill:#000;fill-opacity:1;fill-rule:evenodd;stroke:#000;stroke-width:2;stroke-linecap:butt;stroke-linejoin:round;stroke-miterlimit:4;stroke-dasharray:none;stroke-opacity:1" d="M15 10h5v9h-5z"/><path style="opacity:1;fill:#fff;fill-opacity:1;fill-rule:evenodd;stroke:none;stroke-width:2;stroke-linecap:butt;stroke-linejoin:round;stroke-miterlimit:4;stroke-dasharray:none;stroke-opacity:1" d="M15 10h5v9h-5z"/><path style="opacity:.7;fill:#000;fill-opacity:1;fill-rule:evenodd;stroke:#000;stroke-width:2;stroke-linecap:butt;stroke-linejoin:round;stroke-miterlimit:4;stroke-dasharray:none;stroke-opacity:1" d="M4 5h5v14H4z"/><path style="opacity:1;fill:#fff;fill-opacity:1;fill-rule:evenodd;stroke:none;stroke-width:2;stroke-linecap:butt;stroke-linejoin:round;stroke-miterlimit:4;stroke-dasharray:none;stroke-opacity:1" d="M4 5h5v14H4z"/><path style="fill:#7764D8;fill-opacity:1;stroke:none;stroke-width:1.41421;stroke-linecap:butt;stroke-linejoin:round;stroke-miterlimit:0;stroke-dasharray:none;stroke-dashoffset:0;stroke-opacity:1" transform="rotate(90)" d="M2-18h2v1H2zM5-18h2v1H5zM8-18h2v1H8zM11-18h2v1h-2zM14-18h2v1h-2zM17-18h2v1h-2zM20-18h2v1h-2zM2-7h2v1H2zM5-7h2v1H5zM8-7h2v1H8zM11-7h2v1h-2zM14-7h2v1h-2zM17-7h2v1h-2zM20-7h2v1h-2z"/></svg>