<svg viewBox="0 0 24 24" xmlns="http://www.w3.org/2000/svg"><path style="color:#000;opacity:.7;fill:#000;fill-rule:evenodd;stroke-linejoin:round;-inkscape-stroke:none" d="M2 5a1 1 0 0 0-1 1v12c0 2.199 1.801 4 4 4h5v-1l-1-2-4 1c-1.092.273-2-.875-2-2V7h18v8.883l2 2V6a1 1 0 0 0-1-1z"/><path style="opacity:1;fill:#6d6d6d;fill-opacity:1;fill-rule:evenodd;stroke:none;stroke-width:2;stroke-linecap:butt;stroke-linejoin:round;stroke-miterlimit:4;stroke-dasharray:none;stroke-opacity:1" d="M0 3h24v3H0z"/><path style="opacity:1;fill:#fff;fill-opacity:1;fill-rule:evenodd;stroke:none;stroke-width:2;stroke-linecap:butt;stroke-linejoin:round;stroke-miterlimit:4;stroke-dasharray:none;stroke-opacity:1" d="M2 6v12c0 1.662 1.338 3 3 3h5v-5a1 1 0 0 1 1.125-.992 1 1 0 0 1 .322.097L16 17.383V16a1 1 0 0 1 1.447-.895L22 17.383V6H2z"/><path style="opacity:1;fill:#1a7fd4;fill-opacity:1;fill-rule:evenodd;stroke:none;stroke-width:3.65148377;stroke-linecap:butt;stroke-linejoin:round;stroke-miterlimit:4;stroke-dasharray:none;stroke-opacity:1" d="M4 9h5v2H4z"/><path style="opacity:1;fill:#c7162b;fill-opacity:1;fill-rule:evenodd;stroke:none;stroke-width:3.65148354;stroke-linecap:butt;stroke-linejoin:round;stroke-miterlimit:4;stroke-dasharray:none;stroke-opacity:1" d="M4 12h5v2H4z"/><path style="opacity:1;fill:#46a926;fill-opacity:1;fill-rule:evenodd;stroke:none;stroke-width:3.65148354;stroke-linecap:butt;stroke-linejoin:round;stroke-miterlimit:4;stroke-dasharray:none;stroke-opacity:1" d="M4 15h5v2H4z"/><path style="opacity:1;fill:#46a926;fill-opacity:1;fill-rule:evenodd;stroke:none;stroke-width:2;stroke-linecap:butt;stroke-linejoin:round;stroke-miterlimit:4;stroke-dasharray:none;stroke-opacity:1" d="M15.5 9a4.5 4.5 0 0 0-4.158 2.777 4.5 4.5 0 0 0-.06 3.278 1 1 0 0 1 .165.05L16 17.383V16a1 1 0 0 1 1.447-.895l1.793.897A4.5 4.5 0 0 0 20 13.5h-4.5V9z"/><path d="M9-15.5a4.5 4.5 0 0 1 4.5-4.5v4.5z" style="opacity:1;fill:#c7162b;fill-opacity:1;fill-rule:evenodd;stroke:none;stroke-width:2;stroke-linecap:butt;stroke-linejoin:round;stroke-miterlimit:4;stroke-dasharray:none;stroke-opacity:1" transform="rotate(90)"/><path style="fill:#9141ac;fill-opacity:1;stroke:none;stroke-width:1px;stroke-linecap:butt;stroke-linejoin:miter;stroke-opacity:1" d="M11 16v7l6-3v3l7-3.5-7-3.5v3l-6-3z"/></svg>