<svg xmlns="http://www.w3.org/2000/svg" viewBox="0 0 24 24"><path style="fill:#000;stroke:#000;opacity:.7;stroke-width:2;stroke-miterlimit:4;stroke-dasharray:none;stroke-linejoin:round" fill="#7764D8" d="M4 12v1h16v-1z"/><path d="M4 12v1h16v-1z" fill="#7764D8" style="fill:#fff"/><path style="opacity:.7;fill:#000;fill-opacity:1;stroke:#000;stroke-width:2;stroke-linejoin:round;stroke-miterlimit:4;stroke-dasharray:none;stroke-opacity:1" d="m16 4-3 4h2v7c0 1.657-1.567 3-3.5 3S8 16.657 8 15v-1H6v1c0 2.761 2.462 5 5.5 5s5.5-2.239 5.5-5V8h2z"/><path style="opacity:1;fill:#e97cc8;fill-opacity:1;stroke:none;stroke-width:2;stroke-linejoin:round;stroke-miterlimit:4;stroke-dasharray:none;stroke-opacity:1" d="M6 14v1c0 2.761 2.462 5 5.5 5s5.5-2.239 5.5-5h-2c0 1.657-1.567 3-3.5 3S8 16.657 8 15v-1z"/><path style="fill:#e97cc8;fill-opacity:1;stroke:none;stroke-width:1px;stroke-linecap:butt;stroke-linejoin:miter;stroke-opacity:1" d="m16 4-3 4h2v7h2V8h2l-3-4z"/></svg>