<svg xmlns="http://www.w3.org/2000/svg" viewBox="0 0 24 24"><path d="M5 4v4h2V6h6V4Zm0 12v4h8v-2H7v-2z" style="fill:#6d6d6d;fill-opacity:1"/><path d="M5 9v2H3v2h2v2h2v-2h2v-2H7V9Z" style="fill:#0e8420"/><rect style="opacity:1;fill:#fff;fill-opacity:1;fill-rule:evenodd;stroke:none;stroke-width:2;stroke-linecap:butt;stroke-linejoin:round;stroke-miterlimit:4;stroke-dasharray:none;stroke-opacity:1" width="4" height="2" x="16" y="11" ry="0"/><rect ry="0" y="17" x="16" height="2" width="4" style="opacity:1;fill:#fff;fill-opacity:1;fill-rule:evenodd;stroke:none;stroke-width:2;stroke-linecap:butt;stroke-linejoin:round;stroke-miterlimit:4;stroke-dasharray:none;stroke-opacity:1"/><path style="fill:#232629;fill-opacity:1" d="M15 4v4.094h6V4zm1 1h4v2h-4zM15 16v4.094h6V16zm1 1h4v2h-4z"/><path d="M15 10v4.094h6V10Zm1 1h4v2h-4z" style="fill:#232629"/><rect ry="0" y="5" x="16" height="2" width="4" style="opacity:1;fill:#fff;fill-opacity:1;fill-rule:evenodd;stroke:none;stroke-width:2;stroke-linecap:butt;stroke-linejoin:round;stroke-miterlimit:4;stroke-dasharray:none;stroke-opacity:1"/></svg>