<svg xmlns="http://www.w3.org/2000/svg" xmlns:xlink="http://www.w3.org/1999/xlink" viewBox="0 0 24 24"><defs><linearGradient xlink:href="#a" id="b" x1="3" y1="4" x2="3" y2="20" gradientUnits="userSpaceOnUse" gradientTransform="translate(0 -2)"/><linearGradient id="a"><stop style="stop-color:#151515;stop-opacity:1" offset="0"/><stop style="stop-color:#4d4d4d;stop-opacity:1" offset="1"/></linearGradient></defs><path style="color:#000;font-style:normal;font-variant:normal;font-weight:400;font-stretch:normal;font-size:medium;line-height:normal;font-family:sans-serif;font-variant-ligatures:normal;font-variant-position:normal;font-variant-caps:normal;font-variant-numeric:normal;font-variant-alternates:normal;font-variant-east-asian:normal;font-feature-settings:normal;font-variation-settings:normal;text-indent:0;text-align:start;text-decoration:none;text-decoration-line:none;text-decoration-style:solid;text-decoration-color:#000;letter-spacing:normal;word-spacing:normal;text-transform:none;writing-mode:lr-tb;direction:ltr;text-orientation:mixed;dominant-baseline:auto;baseline-shift:baseline;text-anchor:start;white-space:normal;shape-padding:0;shape-margin:0;inline-size:0;clip-rule:nonzero;display:inline;overflow:visible;visibility:visible;isolation:auto;mix-blend-mode:normal;color-interpolation:sRGB;color-interpolation-filters:linearRGB;solid-color:#000;solid-opacity:1;vector-effect:none;fill:#fff;fill-opacity:1;fill-rule:nonzero;stroke:none;stroke-width:2;stroke-linecap:butt;stroke-linejoin:round;stroke-miterlimit:4;stroke-dasharray:none;stroke-dashoffset:0;stroke-opacity:1;color-rendering:auto;image-rendering:auto;shape-rendering:auto;text-rendering:auto;enable-background:accumulate;stop-color:#000;stop-opacity:1;opacity:1" d="M2 1a1 1 0 0 0-1 1v16a1 1 0 0 0 1 1h2a1 1 0 0 0 1-1v-6h10V2a1 1 0 0 0-1-1h-2a1 1 0 0 0-1 1v6H5V2a1 1 0 0 0-1-1H2zm1 8a1 1 0 0 0 1 1 1 1 0 0 0-1 1V9zm10 0v2a1 1 0 0 0-1-1 1 1 0 0 0 1-1z"/><path style="fill:url(#b);fill-opacity:1" d="M2 2v16h2v-7h8v1h2V2h-2v7H4V2H2z"/><path style="opacity:1;fill:#7764D8;fill-opacity:1;fill-rule:evenodd;stroke:none;stroke-width:2;stroke-linejoin:round" d="M18 14h1v6h-1zM13 13h11v1H13zM13 20h11v1H13zM15 14h1v6h-1zM21 14h1v6h-1z"/></svg>