<svg height="24" width="24" xmlns:xlink="http://www.w3.org/1999/xlink" xmlns="http://www.w3.org/2000/svg"><defs><linearGradient id="a"><stop style="stop-color:#7764D8;stop-opacity:1" offset="0"/><stop style="stop-color:#7764D8;stop-opacity:0" offset="1"/></linearGradient><linearGradient xlink:href="#a" id="b" x1="18" y1="6" x2="6" y2="18" gradientUnits="userSpaceOnUse"/></defs><path style="opacity:.7;fill:#000;fill-opacity:1;fill-rule:nonzero;stroke:#000;stroke-width:2;stroke-linecap:round;stroke-linejoin:round;stroke-miterlimit:4;stroke-dasharray:none;stroke-opacity:1" d="M6 6h12v12H6z"/><path style="opacity:1;fill:#fff;fill-opacity:1;fill-rule:nonzero;stroke:none;stroke-width:4;stroke-linecap:round;stroke-linejoin:round;stroke-miterlimit:4;stroke-dasharray:none;stroke-opacity:1" d="M6 6h12v12H6z"/><path style="fill:#797774;fill-rule:evenodd;stroke-width:2;stroke-linecap:square;stroke-linejoin:round;fill-opacity:1" d="M8 6v2h2V6H8zm2 2v2h2V8h-2zm2 0h2V6h-2v2zm2 0v2h2V8h-2zm2 0h2V6h-2v2zm0 2v2h2v-2h-2zm0 2h-2v2h2v-2zm0 2v2h2v-2h-2zm0 2h-2v2h2v-2zm-2 0v-2h-2v2h2zm-2 0h-2v2h2v-2zm-2 0v-2H8v2h2zm-2 0H6v2h2v-2zm0-2v-2H6v2h2zm0-2h2v-2H8v2zm0-2V8H6v2h2zm2 2v2h2v-2h-2zm2 0h2v-2h-2v2z"/><path style="fill:#c8c6c4;fill-rule:evenodd;stroke-width:2;stroke-linecap:square;stroke-linejoin:round;fill-opacity:1" d="M18 8h-2v2h2zm-2 2h-2v2h2zm0 2v2h2v-2zm0 2h-2v2h2zm0 2v2h2v-2zm-2 0h-2v2h2zm-2 0v-2h-2v2zm-2 0H8v2h2zm-2 0v-2H6v2zm0-2h2v-2H8zm0-2v-2H6v2zm0-2h2V8H8zm0-2V6H6v2zm2 0h2V6h-2zm2 0v2h2V8zm2 0h2V6h-2zm-2 2h-2v2h2zm0 2v2h2v-2z"/><path style="fill:url(#b);fill-opacity:1;fill-rule:evenodd;stroke-width:2;stroke-linecap:square;stroke-linejoin:round" d="M6 6h12v12H6z"/><path style="opacity:1;fill:#1463a5;fill-opacity:1;fill-rule:nonzero;stroke:none;stroke-width:5.29150295;stroke-linecap:round;stroke-linejoin:round;stroke-miterlimit:4;stroke-dasharray:none;stroke-opacity:1" transform="rotate(45)" d="M15.971-7h2V7h-2z"/><path transform="matrix(0 1 1 0 0 0)" style="opacity:.7;vector-effect:none;fill:#000;fill-opacity:1;stroke:none;stroke-width:1;stroke-linecap:round;stroke-linejoin:round;stroke-miterlimit:4;stroke-dasharray:none;stroke-dashoffset:0;stroke-opacity:1" d="M4 16h4v4H4z"/><path transform="matrix(0 1 1 0 0 0)" style="opacity:1;vector-effect:none;fill:#aee3f8;fill-opacity:1;stroke:none;stroke-width:1;stroke-linecap:round;stroke-linejoin:round;stroke-miterlimit:4;stroke-dasharray:none;stroke-dashoffset:0;stroke-opacity:1" d="M5 17h2v2H5z"/><path transform="matrix(0 1 1 0 0 0)" style="opacity:.7;vector-effect:none;fill:#000;fill-opacity:1;stroke:none;stroke-width:1;stroke-linecap:round;stroke-linejoin:round;stroke-miterlimit:4;stroke-dasharray:none;stroke-dashoffset:0;stroke-opacity:1" d="M16 4h4v4h-4z"/><path transform="matrix(0 1 1 0 0 0)" style="opacity:1;vector-effect:none;fill:#aee3f8;fill-opacity:1;stroke:none;stroke-width:1;stroke-linecap:round;stroke-linejoin:round;stroke-miterlimit:4;stroke-dasharray:none;stroke-dashoffset:0;stroke-opacity:1" d="M17 5h2v2h-2z"/></svg>