<svg xmlns="http://www.w3.org/2000/svg" viewBox="0 0 16 16"><path style="font-style:normal;font-variant:normal;font-weight:400;font-stretch:normal;font-size:15px;line-height:125%;font-family:Ubuntu;-inkscape-font-specification:Ubuntu;text-align:center;letter-spacing:0;word-spacing:0;writing-mode:lr-tb;text-anchor:middle;display:inline;opacity:.7;fill:#000;fill-opacity:1;stroke:none;stroke-width:.99980211" d="M5.012.973c-1.258.014-2.18-.03-2.932.385a1.88 1.88 0 0 0-.838.998c-.164.438-.224.96-.224 1.617v5c0 .657.06 1.178.224 1.617.165.438.462.788.838.996.753.415 1.674.372 2.932.387h3.01c1.258-.015 2.18.03 2.932-.385a1.88 1.88 0 0 0 .838-.998c.164-.439.403-.985.224-1.617v-5c0-.658-.06-1.179-.224-1.617a1.875 1.875 0 0 0-.838-.996C10.2.944 9.28.988 8.022.973H5.016z"/><path style="opacity:1;vector-effect:none;fill:#fff;fill-opacity:1;stroke:none;stroke-width:1;stroke-linecap:round;stroke-linejoin:bevel;stroke-miterlimit:4;stroke-dasharray:none;stroke-dashoffset:0;stroke-opacity:1" d="M7 2c-1.557.01-2.109-.012-3.659.039-.461.042-1.016.206-1.155.71-.22.635-.109 1.334-.146 1.982-.008 2.297-.023 2.595.021 4.885.04.462.203 1.012.7 1.163.632.225 1.283.123 1.935.155 1.424.006 1.85.01 3.275.01 1.705.001-.591-.004 1.107-.018.512-.012 1.184.02 1.585-.405.421-.54.287-1.268.323-1.904.012-2.444.028-2.91-.022-5.356-.05-.402-.17-.863-.575-1.044-.668-.294-1.426-.168-2.126-.206C6.509 2 8.754 2 7 2Z"/><path d="M8.012 3.973c-1.258.014-2.179-.03-2.932.385a1.88 1.88 0 0 0-.837.998c-.165.438-.225.96-.225 1.617v5c0 .657.06 1.178.225 1.617.164.438.461.788.837.996.753.415 1.674.372 2.932.387H11.023c1.258-.015 2.178.03 2.931-.385a1.88 1.88 0 0 0 .838-.998c.165-.439.404-.985.225-1.617v-5c0-.658-.06-1.179-.225-1.617a1.875 1.875 0 0 0-.838-.996c-.753-.416-1.673-.372-2.932-.387H8.016z" style="font-style:normal;font-variant:normal;font-weight:400;font-stretch:normal;font-size:15px;line-height:125%;font-family:Ubuntu;-inkscape-font-specification:Ubuntu;text-align:center;letter-spacing:0;word-spacing:0;writing-mode:lr-tb;text-anchor:middle;display:inline;opacity:.7;fill:#000;fill-opacity:1;stroke:none;stroke-width:.99980211"/><path d="M10 5c-1.557.01-2.109-.012-3.659.039-.46.042-1.016.206-1.155.71-.219.635-.108 1.334-.146 1.982-.008 2.297-.023 2.595.022 4.885.039.462.202 1.012.699 1.163.632.225 1.284.123 1.936.155 1.424.006 1.849.01 3.275.01 1.704.001-.592-.004 1.107-.018.512-.012 1.183.02 1.585-.405.42-.54.287-1.268.322-1.904.012-2.444.028-2.91-.022-5.356-.049-.402-.17-.863-.575-1.044-.668-.294-1.426-.168-2.126-.206C9.51 5 11.754 5 10 5Z" style="opacity:1;vector-effect:none;fill:#fff;fill-opacity:1;stroke:none;stroke-width:1;stroke-linecap:round;stroke-linejoin:bevel;stroke-miterlimit:4;stroke-dasharray:none;stroke-dashoffset:0;stroke-opacity:1"/><circle style="opacity:1;vector-effect:none;fill:#9141ac;fill-opacity:1;stroke:none;stroke-width:3.49999976;stroke-linecap:butt;stroke-linejoin:round;stroke-miterlimit:4;stroke-dasharray:none;stroke-dashoffset:0;stroke-opacity:1" cy="12.5" cx="12.5" r="3.5"/><path d="M12.5 10c-.433 0-.833.12-1.188.313l.75.75c.138-.042.287-.063.438-.063.831 0 1.5.669 1.5 1.5 0 .15-.021.3-.063.438l.75.75c.193-.355.313-.755.313-1.188 0-1.385-1.115-2.5-2.5-2.5zm-2.188 1.313A2.476 2.476 0 0 0 10 12.5c0 1.385 1.115 2.5 2.5 2.5.433 0 .833-.12 1.187-.313l-.75-.75A1.539 1.539 0 0 1 12.5 14c-.831 0-1.5-.669-1.5-1.5 0-.15.021-.3.062-.438z" style="fill:#fff;fill-opacity:1"/></svg>