<svg xmlns="http://www.w3.org/2000/svg" xmlns:xlink="http://www.w3.org/1999/xlink" viewBox="0 0 16 16"><defs><linearGradient id="a"><stop style="stop-color:#151515;stop-opacity:1" offset="0"/><stop style="stop-color:#4d4d4d;stop-opacity:1" offset="1"/></linearGradient><linearGradient xlink:href="#a" id="b" x1="10" y1="2" x2="10" y2="14" gradientUnits="userSpaceOnUse"/></defs>/&gt;<path d="M10 2a6 6 0 0 0-5.65 4H3v1h1.086A6 6 0 0 0 4 8c.002.335.032.67.09 1H3v1h1.352A6 6 0 0 0 10 14a6 6 0 0 0 2.996-.809l-1-1.732A4 4 0 0 1 10 12a4 4 0 0 1-3.459-2H10V9H6.13A4 4 0 0 1 6 8a4 4 0 0 1 .133-1H10V6H6.541A4 4 0 0 1 10 4a4 4 0 0 1 2.002.541L13 2.812A6 6 0 0 0 10 2Z" style="opacity:1;fill:#000;fill-opacity:1;stroke:#fff;stroke-width:2;stroke-linejoin:round;stroke-miterlimit:4;stroke-dasharray:none;stroke-opacity:1"/><path style="opacity:1;fill:url(#b);fill-opacity:1;stroke:none;stroke-width:2.19089007;stroke-linejoin:round;stroke-miterlimit:4;stroke-dasharray:none;stroke-opacity:1" d="M10 2a6 6 0 0 0-5.65 4H3v1h1.086A6 6 0 0 0 4 8c.002.335.032.67.09 1H3v1h1.352A6 6 0 0 0 10 14a6 6 0 0 0 2.996-.809l-1-1.732A4 4 0 0 1 10 12a4 4 0 0 1-3.459-2H10V9H6.13A4 4 0 0 1 6 8a4 4 0 0 1 .133-1H10V6H6.541A4 4 0 0 1 10 4a4 4 0 0 1 2.002.541L13 2.812A6 6 0 0 0 10 2Z"/></svg>