<svg xmlns="http://www.w3.org/2000/svg" viewBox="0 0 16 16"><path style="opacity:.7;fill:#000;stroke:#000;stroke-width:2;stroke-linejoin:round;stroke-miterlimit:4;stroke-dasharray:none" d="M7 14V2H6v12z"/><path d="M7 14V2H6v12z" style="fill:#fff"/><path d="m11 14 3-3-3-3v2H4c-.552 0-1-.895-1-2s.448-2 1-2h1V4H4C2.343 4 1 5.79 1 8s1.343 4 3 4h7z" style="opacity:.7;fill:#000;fill-opacity:1;stroke:#000;stroke-width:2;stroke-linecap:butt;stroke-linejoin:round;stroke-miterlimit:4;stroke-dasharray:none;stroke-opacity:1"/><path style="fill:#e97cc8;fill-opacity:1;stroke:none;stroke-width:1px;stroke-linecap:butt;stroke-linejoin:miter;stroke-opacity:1" d="m11 14 3-3-3-3v2H4c-.552 0-1-.895-1-2s.448-2 1-2h1V4H4C2.343 4 1 5.79 1 8s1.343 4 3 4h7z"/></svg>