<svg xmlns="http://www.w3.org/2000/svg" height="16" width="16"><linearGradient id="a" gradientTransform="matrix(.6 0 0 .5625 2.2 -576.266)" gradientUnits="userSpaceOnUse" x1="3" x2="19" y1="1049.362" y2="1033.362"><stop offset="0" stop-color="#7764D8"/><stop offset=".417" stop-color="#48acf5" stop-opacity=".761"/><stop offset=".667" stop-color="#73c0f7" stop-opacity="0"/><stop offset="1" stop-color="#cae7fc" stop-opacity="0"/></linearGradient><path style="fill:#b3b3b3" d="M8 2c-.778 2.554-2.354 4.813-3.36 6.516-.293.522-.64 1.1-.64 1.734C4 12.327 5.784 14 8 14s4-1.673 4-3.75c0-.634-.347-1.123-.64-1.646C10.242 6.88 8.777 4.554 8 2z"/><path style="fill:#777" d="M8 2c-.24.786-.236 1.283-.625 2H8zm0 2v3h2c-.564-.91-.786-1.916-1.375-3zm0 3H6c-.134.216-.914.795-1.031 1L4 10h4zm0 3v3h2c.305-.214.96-.214 1.188-.5L12 10zm0 3H6.469v.438H8z"/><path style="fill:url(#a)" d="M8 2c-.778 2.554-2.386 4.691-3.502 6.537-.294.523-.32 1.079-.32 1.713 0 2.078 1.585 3.541 3.8 3.541 2.217 0 3.877-1.464 3.877-3.541 0-.634-.29-1.057-.584-1.58C10.365 6.934 8.778 4.554 8 2z"/><g style="fill:#000;opacity:.7"><text y="547.548" x="420.15" style="fill:#000" transform="translate(-421.714 -531.79)">
      
    </text><text y="541.685" x="420.887" style="fill:#000" transform="translate(-421.714 -531.79)">
      
    </text><text y="548.548" x="414.15" style="fill:#000" transform="translate(-421.714 -531.79)">
      
    </text><path d="M8 2c-1.072 3.818-4 6.079-4 8.188C4 12.296 5.79 14 8 14s4-1.704 4-3.813C12 8.08 9.072 5.819 8 2zm-.031 1.438c.862 3.137 3.218 4.986 3.218 6.718 0 1.733-1.44 3.125-3.218 3.125S4.78 11.89 4.78 10.156c0-1.732 2.325-3.581 3.188-6.719z" style="fill:#000"/></g></svg>