<svg viewBox="0 0 16 16" xmlns="http://www.w3.org/2000/svg"><path d="M5.011.973c-1.258.014-2.179-.03-2.932.385a1.88 1.88 0 0 0-.837.998c-.165.438-.225.96-.225 1.617v8.055c0 .657.06 1.178.225 1.617.164.438.461.788.837.996.753.415 1.674.372 2.932.387h6.012c1.258-.015 2.179.03 2.931-.385a1.88 1.88 0 0 0 .838-.998c.165-.439.225-.96.225-1.617V3.973c0-.658-.06-1.179-.225-1.617a1.875 1.875 0 0 0-.838-.996c-.752-.416-1.673-.372-2.931-.387H5.015z" style="font-style:normal;font-variant:normal;font-weight:400;font-stretch:normal;font-size:15px;line-height:125%;font-family:Ubuntu;-inkscape-font-specification:Ubuntu;text-align:center;letter-spacing:0;word-spacing:0;writing-mode:lr-tb;text-anchor:middle;display:inline;opacity:.7;fill:#000;fill-opacity:1;stroke:none;stroke-width:.999802"/><path d="M5 2c-1.557.01-.11-.012-1.66.039-.46.042-1.016.206-1.155.71-.219.635-.108 1.334-.146 1.982-.008 2.297-.023 5.65.022 7.94.039.462.202 1.012.699 1.163.632.225 1.284.123 1.936.155 1.424.006-.15.01 1.276.011 1.704 0 4.408-.005 6.107-.019.512-.012 1.184.02 1.585-.405.42-.54.287-1.268.323-1.903.011-2.445.027-5.966-.022-8.412-.05-.402-.17-.863-.575-1.044-.669-.294-1.427-.168-2.126-.206C9.509 2 6.754 2 5 2z" style="opacity:1;fill:#fff;fill-opacity:1;stroke:none;stroke-width:1;stroke-linecap:round;stroke-linejoin:bevel;stroke-miterlimit:4;stroke-dasharray:none;stroke-dashoffset:0;stroke-opacity:1"/><path style="opacity:1;fill:#7764D8;fill-opacity:1" d="M6 9v1h7V9zm0 2v1h5v-1z"/><path style="fill:#7764D8;fill-rule:evenodd;stroke-width:2;stroke-linecap:square;stroke-linejoin:round" d="M4 9h1v3H4zM4 7h1v1H4z"/></svg>