<svg xmlns="http://www.w3.org/2000/svg" viewBox="0 0 16 16">/&gt;<path style="fill:#f2cbf8;fill-opacity:1;stroke-width:.916667" d="M7 1.5c-3.038 0-5.5.821-5.5 1.834v7.332C1.5 11.679 3.962 12.5 7 12.5V12h3.754c.085-.027.166-.054.246-.082V9.195l1.5.938V3.334C12.5 2.321 10.038 1.5 7 1.5z"/><path style="fill:#8e03a3;fill-opacity:1" d="M7 1a6 2 0 0 0-6 2v8a6 2 0 0 0 6 2v-1a5 1 0 0 1-5-1V8.102A6 2 0 0 0 7 9a6 2 0 0 0 5-.896V9.82l1 .625V3a6 2 0 0 0-6-2zm-.104 1A5 1 0 0 1 7 2a5 1 0 0 1 5 1 5 1 0 0 1-5 1 5 1 0 0 1-5-1 5 1 0 0 1 4.896-1zM2 4.102A6 2 0 0 0 7 5a6 2 0 0 0 5-.896V7a5 1 0 0 1-5 1 5 1 0 0 1-5-1V4.102zm9 7.498a5 1 0 0 1-3.896.4H11v-.4z"/><path d="M16 13.5 12 16v-2H8v-1h4v-2z" style="fill:#9141ac;fill-opacity:1;stroke:none;stroke-width:1px;stroke-linecap:butt;stroke-linejoin:miter;stroke-opacity:1"/></svg>