<svg viewBox="0 0 24 24" xmlns="http://www.w3.org/2000/svg"><path style="opacity:.7;fill:#000;stroke:#000;stroke-width:2;stroke-linejoin:round;stroke-miterlimit:4;stroke-dasharray:none" d="M16 4c2 0 3 0 3 2v12c0 2-1 2-3 2H8c-2 0-3 0-3-2V6c0-2 1-2 3-2z"/><path d="M16 4c2 0 3 0 3 2v12c0 2-1 2-3 2H8c-2 0-3 0-3-2V6c0-2 1-2 3-2z" style="fill:#fff"/><g aria-label="A4" style="font-size:10.6667px;line-height:1.25;letter-spacing:0;word-spacing:0"><path d="M11.493 15.701q-.181-.48-.341-.938-.16-.47-.33-.95h-3.35L6.8 15.701H5.723q.426-1.173.8-2.165.373-1.003.725-1.899.363-.896.715-1.706.352-.822.736-1.622h.949q.384.8.736 1.622.352.81.704 1.706.363.896.736 1.899.373.992.8 2.165zm-.97-2.741q-.342-.928-.683-1.792-.33-.875-.693-1.675-.374.8-.715 1.675-.33.864-.661 1.792zM13.136 13.141q.203-.469.555-1.088.352-.629.789-1.29.448-.662.95-1.302.511-.64 1.023-1.152h.95v4.694h.874v.81h-.874v1.888h-.96v-1.888h-3.307zm3.307-3.658q-.32.341-.651.768-.32.416-.63.874-.309.459-.586.939-.267.48-.48.939h2.347z" style="font-family:Ubuntu;-inkscape-font-specification:Ubuntu"/></g></svg>