<?xml version="1.0" encoding="UTF-8" standalone="no"?>
<svg
   xmlns:dc="http://purl.org/dc/elements/1.1/"
   xmlns:cc="http://creativecommons.org/ns#"
   xmlns:rdf="http://www.w3.org/1999/02/22-rdf-syntax-ns#"
   xmlns:svg="http://www.w3.org/2000/svg"
   xmlns="http://www.w3.org/2000/svg"
   xmlns:sodipodi="http://sodipodi.sourceforge.net/DTD/sodipodi-0.dtd"
   xmlns:inkscape="http://www.inkscape.org/namespaces/inkscape"
   viewBox="0 0 32 32"
   version="1.1"
   id="svg16"
   sodipodi:docname="placeholder_image_large_hover.svg"
   inkscape:version="1.0.1 (3bc2e813f5, 2020-09-07)">
  <metadata
     id="metadata22">
    <rdf:RDF>
      <cc:Work
         rdf:about="">
        <dc:format>image/svg+xml</dc:format>
        <dc:type
           rdf:resource="http://purl.org/dc/dcmitype/StillImage" />
      </cc:Work>
    </rdf:RDF>
  </metadata>
  <defs
     id="defs20" />
  <sodipodi:namedview
     pagecolor="#ffffff"
     bordercolor="#666666"
     borderopacity="1"
     objecttolerance="10"
     gridtolerance="10"
     guidetolerance="10"
     inkscape:pageopacity="0"
     inkscape:pageshadow="2"
     inkscape:window-width="1920"
     inkscape:window-height="1016"
     id="namedview18"
     showgrid="false"
     inkscape:zoom="27.5"
     inkscape:cx="16"
     inkscape:cy="16"
     inkscape:window-x="0"
     inkscape:window-y="27"
     inkscape:window-maximized="1"
     inkscape:current-layer="svg16" />
  <path
     sodipodi:nodetypes="cccscsccccccccscscccccc"
     inkscape:connector-curvature="0"
     id="path4237-1"
     d="M 6.994141,4.979956 C 5.735941,4.994456 4.81525,4.949356 4.0625,5.364722 3.68613,5.572382 3.389269,5.924109 3.224609,6.362769 3.059939,6.801439 3,7.322356 3,7.979956 v 1.488282 14.551806 c 0,0.65761 0.0599,1.178577 0.224609,1.617188 0.16468,0.438611 0.461531,0.788524 0.837891,0.996093 0.75272,0.41513 1.673541,0.371649 2.931641,0.386719 h 0.002 18.005809 0.0039 c 1.25819,-0.0145 2.178891,0.0306 2.931641,-0.384766 0.37637,-0.20766 0.673221,-0.559386 0.837891,-0.998046 C 28.939921,25.198561 29,24.677655 29,24.020044 V 9.446754 7.979956 C 29,7.322356 28.9401,6.801379 28.775391,6.362769 28.610711,5.924169 28.31386,5.574235 27.9375,5.366675 27.18473,4.951545 26.263899,4.995036 25.005809,4.979956 h -0.002 H 6.998 Z"
     style="font-style:normal;font-variant:normal;font-weight:normal;font-stretch:normal;font-size:15px;line-height:125%;font-family:Ubuntu;-inkscape-font-specification:Ubuntu;text-align:center;letter-spacing:0px;word-spacing:0px;writing-mode:lr-tb;text-anchor:middle;display:inline;opacity:0.7;fill:#000000;fill-opacity:1;stroke:none;stroke-width:0.999802" />
  <path
     inkscape:connector-curvature="0"
     id="path1993"
     d="m 11.983369,6.007141 c -1.556581,0.0108 -5.10999,-0.01175 -6.659941,0.03877 -0.461229,0.04267 -1.016188,0.20642 -1.15534,0.709967 -0.218994,0.635346 -0.108414,1.333787 -0.145796,1.981924 -0.0078,2.297085 -0.02297,13.635933 0.02152,15.925285 0.0391,0.461929 0.202551,1.012666 0.698756,1.163666 0.632456,0.225082 1.284144,0.12274 1.935974,0.154298 1.424235,0.0068 4.850563,0.01102 6.27642,0.01131 1.704531,3.5e-4 11.408338,-0.005 13.10714,-0.01851 0.511911,-0.01201 1.183699,0.01993 1.584745,-0.405191 0.421097,-0.539783 0.287073,-1.268021 0.322745,-1.903787 0.01187,-2.444323 0.02769,-13.950599 -0.0219,-16.396299 C 27.898412,6.866534 27.7777,6.405622 27.372553,6.224099 26.704384,5.930001 25.946348,6.05608 25.246632,6.018526 23.492225,6.006726 13.737808,6.006046 11.983369,6.007136 Z"
     style="vector-effect:none;fill:#d85eca;fill-opacity:1;stroke:none;stroke-width:1;stroke-linecap:round;stroke-linejoin:bevel;stroke-miterlimit:4;stroke-dasharray:none;stroke-dashoffset:0;stroke-opacity:1"
     sodipodi:nodetypes="cccccccscccccccc" />
  <path
     d="m 22,10.007136 c -1.104574,0 -2,0.895427 -2,2 0,1.104574 0.895426,2.000001 2,2.000001 1.104574,0 2,-0.895427 2,-2.000001 0,-1.104573 -0.895426,-2 -2,-2 z"
     id="path4527-0"
     style="color:#000000;display:inline;overflow:visible;visibility:visible;fill:#ffffff;fill-opacity:1;fill-rule:nonzero;stroke:none;stroke-width:7.99841;marker:none;enable-background:accumulate"
     sodipodi:nodetypes="sssss" />
  <path
     d="m 13,13.507136 -5,9.5 H 12.703778 22 l -4.5,-8 -2,2.5 z"
     id="path4156-2"
     style="color:#000000;display:inline;overflow:visible;visibility:visible;fill:#ffffff;fill-opacity:1;fill-rule:nonzero;stroke:none;stroke-width:10.3809;marker:none;enable-background:accumulate"
     sodipodi:nodetypes="ccccccc" />
</svg>
