<?xml version="1.0" encoding="UTF-8" standalone="no"?>
<svg
   xmlns:dc="http://purl.org/dc/elements/1.1/"
   xmlns:cc="http://creativecommons.org/ns#"
   xmlns:rdf="http://www.w3.org/1999/02/22-rdf-syntax-ns#"
   xmlns:svg="http://www.w3.org/2000/svg"
   xmlns="http://www.w3.org/2000/svg"
   xmlns:sodipodi="http://sodipodi.sourceforge.net/DTD/sodipodi-0.dtd"
   xmlns:inkscape="http://www.inkscape.org/namespaces/inkscape"
   viewBox="0 0 32 32"
   version="1.1"
   id="svg6"
   sodipodi:docname="placeholder_movie_large_hover.svg"
   inkscape:version="1.0.1 (3bc2e813f5, 2020-09-07)">
  <metadata
     id="metadata12">
    <rdf:RDF>
      <cc:Work
         rdf:about="">
        <dc:format>image/svg+xml</dc:format>
        <dc:type
           rdf:resource="http://purl.org/dc/dcmitype/StillImage" />
      </cc:Work>
    </rdf:RDF>
  </metadata>
  <defs
     id="defs10" />
  <sodipodi:namedview
     pagecolor="#ffffff"
     bordercolor="#666666"
     borderopacity="1"
     objecttolerance="10"
     gridtolerance="10"
     guidetolerance="10"
     inkscape:pageopacity="0"
     inkscape:pageshadow="2"
     inkscape:window-width="1920"
     inkscape:window-height="1016"
     id="namedview8"
     showgrid="false"
     inkscape:zoom="27.5"
     inkscape:cx="16"
     inkscape:cy="16"
     inkscape:window-x="0"
     inkscape:window-y="27"
     inkscape:window-maximized="1"
     inkscape:current-layer="svg6" />
  <g
     style="color:#000000"
     transform="matrix(1.6,0,0,1.6153846,-503.29989,-252.38464)"
     id="g4" />
  <path
     inkscape:connector-curvature="0"
     d="m 8.50013,4.4999701 h 15 V 27.49997 h -15 z"
     id="path42"
     style="fill:#d85eca;fill-opacity:1"
     sodipodi:nodetypes="ccccc" />
  <path
     inkscape:connector-curvature="0"
     style="opacity:0.7"
     d="m 3.50012,3.0000001 c -0.276131,2.8e-5 -0.499972,0.223869 -0.5,0.5 V 28.5 c 2.8e-5,0.27613 0.223869,0.499971 0.5,0.5 h 2.5 19.99976 2.5 c 0.276131,-2.9e-5 0.499972,-0.22387 0.5,-0.5 V 3.5000001 c -2.8e-5,-0.276131 -0.223869,-0.499972 -0.5,-0.5 h -2.5 -19.99976 z m 5.499979,1.999999 h 14 V 27 h -14 z"
     id="path50"
     sodipodi:nodetypes="cccccccccccccccccc" />
  <path
     id="path52"
     display="block"
     d="M 9.500241,15.5 H 22.499759"
     inkscape:connector-curvature="0"
     style="display:block;opacity:0.7;fill:none;stroke:#000000;stroke-linecap:square;stroke-linejoin:round"
     sodipodi:nodetypes="cc" />
  <path
     style="fill:#ffffff"
     d="m 5.000099,5.0000001 h 2 v 1.000001 h -2 z"
     id="path861" />
  <path
     style="fill:#ffffff"
     d="m 5.000099,8.0000011 h 2 v 1 h -2 z"
     id="path859" />
  <path
     style="fill:#ffffff"
     d="m 5.000099,11.000001 h 2 v 1 h -2 z"
     id="path857" />
  <path
     style="fill:#ffffff"
     d="m 5.000099,14.000001 h 2 v 1 h -2 z"
     id="path855" />
  <path
     style="fill:#ffffff"
     d="m 5.000099,17.000001 h 2 v 1 h -2 z"
     id="path853" />
  <path
     style="fill:#ffffff"
     d="m 5.000099,20.000001 h 2 v 1 h -2 z"
     id="path851" />
  <path
     style="fill:#ffffff"
     d="m 5.000099,23.000001 h 2 v 1 h -2 z"
     id="path849" />
  <path
     style="fill:#ffffff"
     d="m 25.000099,17.000001 h 2 v 1 h -2 z"
     id="path847" />
  <path
     style="fill:#ffffff"
     d="m 25.000099,20.000001 h 2 v 1 h -2 z"
     id="path845" />
  <path
     style="fill:#ffffff"
     d="m 25.000099,23.000001 h 2 v 1 h -2 z"
     id="path60" />
  <path
     style="fill:#ffffff"
     d="m 25.000099,8.0000011 h 2 v 1 h -2 z"
     id="path863" />
  <path
     style="fill:#ffffff"
     d="m 25.000099,11.000001 h 2 v 1 h -2 z"
     id="path865" />
  <path
     style="fill:#ffffff"
     d="m 25.000099,14.000001 h 2 v 1 h -2 z"
     id="path867" />
  <path
     style="fill:#ffffff"
     d="m 25.000099,5.0000011 h 2 v 1 h -2 z"
     id="path869" />
  <path
     style="fill:#ffffff"
     d="m 5.000099,26 h 2 v 1 h -2 z"
     id="path864" />
  <path
     style="fill:#ffffff"
     d="m 25.000099,26 h 2 v 1 h -2 z"
     id="path866" />
</svg>
