<?xml version="1.0" encoding="UTF-8" standalone="no"?>
<svg
   xmlns:dc="http://purl.org/dc/elements/1.1/"
   xmlns:cc="http://creativecommons.org/ns#"
   xmlns:rdf="http://www.w3.org/1999/02/22-rdf-syntax-ns#"
   xmlns:svg="http://www.w3.org/2000/svg"
   xmlns="http://www.w3.org/2000/svg"
   xmlns:sodipodi="http://sodipodi.sourceforge.net/DTD/sodipodi-0.dtd"
   xmlns:inkscape="http://www.inkscape.org/namespaces/inkscape"
   viewBox="0 0 16 16"
   version="1.1"
   id="svg16"
   sodipodi:docname="placeholder_chart_small.svg"
   inkscape:version="1.0.1 (3bc2e813f5, 2020-09-07)"><metadata
   id="metadata22">
  <rdf:RDF>
    <cc:Work
       rdf:about="">
      <dc:format>image/svg+xml</dc:format>
      <dc:type
         rdf:resource="http://purl.org/dc/dcmitype/StillImage" />
    </cc:Work>
  </rdf:RDF>
</metadata>
<defs
   id="defs20" />
<sodipodi:namedview
   pagecolor="#ffffff"
   bordercolor="#666666"
   borderopacity="1"
   objecttolerance="10"
   gridtolerance="10"
   guidetolerance="10"
   inkscape:pageopacity="0"
   inkscape:pageshadow="2"
   inkscape:window-width="1920"
   inkscape:window-height="1016"
   id="namedview18"
   showgrid="false"
   inkscape:zoom="55"
   inkscape:cx="8"
   inkscape:cy="8"
   inkscape:window-x="0"
   inkscape:window-y="27"
   inkscape:window-maximized="1"
   inkscape:current-layer="svg16" />

/&amp;amp;gt;<g
   id="g860"
   style="opacity:0.5">
  <path
     sodipodi:nodetypes="cccscsccccccccscscccccc"
     inkscape:connector-curvature="0"
     id="path4237-1-7"
     d="m 3.9965708,0.98042087 c -1.2582,0.0145 -2.178891,-0.030604 -2.931641,0.38476563 -0.37637009,0.20766 -0.67323109,0.5593869 -0.83789109,0.9980468 -0.16467,0.43867 -0.2516058,0.9601419 -0.224609,1.6171875 v 1.488281 6.5508772 c 0,0.65761 0.0599,1.178578 0.224609,1.617189 0.16468,0.438611 0.461531,0.788524 0.83789109,0.996093 0.75272,0.41513 1.673541,0.371649 2.931641,0.386718 h 0.002 8.0058092 0.0039 c 1.25819,-0.0145 2.178891,0.0306 2.931641,-0.384767 0.37637,-0.20766 0.673221,-0.559386 0.837891,-0.998046 0.164539,-0.43867 0.224618,-0.959577 0.224618,-1.617187 V 5.4472178 3.9804208 c 0,-0.6576 -0.0599,-1.1785775 -0.224609,-1.6171875 C 15.613141,1.9246334 15.31629,1.5746996 14.93993,1.3671397 14.18716,0.95200966 13.266329,0.99550086 12.008239,0.98042086 h -0.002 -8.0058092 z"
     style="font-style:normal;font-variant:normal;font-weight:normal;font-stretch:normal;font-size:15px;line-height:125%;font-family:Ubuntu;-inkscape-font-specification:Ubuntu;text-align:center;letter-spacing:0px;word-spacing:0px;writing-mode:lr-tb;text-anchor:middle;display:inline;opacity:0.7;fill:#000000;fill-opacity:1;stroke:none;stroke-width:0.999802" />
  <path
     inkscape:connector-curvature="0"
     id="path1993-8"
     d="m 7.9857738,2.0076057 c -1.556581,0.010796 -4.109965,-0.011752 -5.659916,0.038775 -0.461229,0.042668 -1.016188,0.2064193 -1.15534,0.7099667 -0.21899409,0.6353464 -0.108414,1.3337872 -0.145796,1.9819243 -0.0078,2.2970841 -0.02297,5.6350033 0.02152,7.9243553 0.0391,0.461928 0.202551,1.012665 0.698756,1.163665 0.632456,0.225082 1.284144,0.12274 1.935974,0.154299 1.424235,0.0068 3.850538,0.01102 5.276395,0.01131 1.7045312,3.49e-4 2.4083632,-0.005 4.1071652,-0.01851 0.511911,-0.01201 1.183699,0.01993 1.584745,-0.405191 0.421097,-0.539783 0.287073,-1.268022 0.322745,-1.903787 0.01187,-2.4443232 0.02769,-5.9496702 -0.0219,-8.3953697 C 14.900846,2.867003 14.78013,2.4060912 14.374983,2.2245681 13.706814,1.9304708 12.948778,2.0565493 12.249062,2.0189955 10.494655,2.0071929 9.7402128,2.0065111 7.9857738,2.0076057 Z"
     style="opacity:1;vector-effect:none;fill:#80a3fa;fill-opacity:1;stroke:none;stroke-width:1;stroke-linecap:round;stroke-linejoin:bevel;stroke-miterlimit:4;stroke-dasharray:none;stroke-dashoffset:0;stroke-opacity:1"
     sodipodi:nodetypes="cccccccsccccccc" />
  <path
     d="m 2.9999999,12 h 1 3 H 13 V 11 H 12 V 6.9999998 H 10 V 11 H 8.9999999 V 8.9999998 h -2 V 11 h -1 V 4.9999998 h -2 V 11 h -1 z"
     id="path2"
     inkscape:connector-curvature="0"
     style="fill:#ffffff;fill-opacity:1"
     sodipodi:nodetypes="ccccccccccccccccccc" />
</g>
</svg>
