<?xml version="1.0" encoding="UTF-8" standalone="no"?>
<svg
   xmlns:dc="http://purl.org/dc/elements/1.1/"
   xmlns:cc="http://creativecommons.org/ns#"
   xmlns:rdf="http://www.w3.org/1999/02/22-rdf-syntax-ns#"
   xmlns:svg="http://www.w3.org/2000/svg"
   xmlns="http://www.w3.org/2000/svg"
   xmlns:sodipodi="http://sodipodi.sourceforge.net/DTD/sodipodi-0.dtd"
   xmlns:inkscape="http://www.inkscape.org/namespaces/inkscape"
   viewBox="0 0 32 32"
   version="1.1"
   id="svg836"
   sodipodi:docname="underlinedouble.svg"
   inkscape:version="1.0.1 (3bc2e813f5, 2020-09-07)">
  <metadata
     id="metadata842">
    <rdf:RDF>
      <cc:Work
         rdf:about="">
        <dc:format>image/svg+xml</dc:format>
        <dc:type
           rdf:resource="http://purl.org/dc/dcmitype/StillImage" />
      </cc:Work>
    </rdf:RDF>
  </metadata>
  <defs
     id="defs840" />
  <sodipodi:namedview
     pagecolor="#ffffff"
     bordercolor="#666666"
     borderopacity="1"
     objecttolerance="10"
     gridtolerance="10"
     guidetolerance="10"
     inkscape:pageopacity="0"
     inkscape:pageshadow="2"
     inkscape:window-width="1920"
     inkscape:window-height="1011"
     id="namedview838"
     showgrid="true"
     inkscape:zoom="20.85965"
     inkscape:cx="16.937358"
     inkscape:cy="15.638916"
     inkscape:window-x="0"
     inkscape:window-y="0"
     inkscape:window-maximized="1"
     inkscape:current-layer="svg836"
     inkscape:document-rotation="0">
    <inkscape:grid
       type="xygrid"
       id="grid1930" />
  </sodipodi:namedview>
  <path
     id="path846"
     style="opacity:0.6;fill:#000000;fill-rule:evenodd;stroke:#000000;stroke-width:2;stroke-linecap:round;stroke-linejoin:round;stroke-miterlimit:4;stroke-dasharray:none"
     d="m 8,3 v 6.5957031 c 0,1.7402849 0.3381749,3.1118219 1.013672,4.1152349 0.675496,1.003408 1.598665,1.709552 2.769531,2.117187 1.185871,0.391994 2.566419,0.525818 4.142578,0.400391 C 17.209523,16.127324 18.569677,15.897077 20,15.550781 V 24 h 3 V 3 h -3 v 9.402344 c -1.469957,0.370621 -2.771563,0.611923 -3.902344,0.720703 -1.125827,0.09407 -2.072327,0.02424 -2.83789,-0.210938 C 12.509214,12.661257 11.939115,12.222833 11.548828,11.595703 11.158541,10.952895 11,10.081853 11,8.984375 V 3 Z"
     sodipodi:nodetypes="csscccccccccccscc" />
  <path
     id="rect840"
     style="opacity:1;fill:#ffffff;fill-rule:evenodd;stroke:none;stroke-width:2;stroke-linecap:round;stroke-linejoin:round;stroke-miterlimit:4;stroke-dasharray:none"
     d="m 8,3 v 6.5957031 c 0,1.7402849 0.3381749,3.1118219 1.013672,4.1152349 0.675496,1.003408 1.598665,1.709552 2.769531,2.117187 1.185871,0.391994 2.566419,0.525818 4.142578,0.400391 C 17.209523,16.127324 18.569677,15.897077 20,15.550781 V 24 h 3 V 3 h -3 v 9.402344 c -1.469957,0.370621 -2.771563,0.611923 -3.902344,0.720703 -1.125827,0.09407 -2.072327,0.02424 -2.83789,-0.210938 C 12.509214,12.661257 11.939115,12.222833 11.548828,11.595703 11.158541,10.952895 11,10.081853 11,8.984375 V 3 Z"
     sodipodi:nodetypes="csscccccccccccscc" />
  <path
     id="rect829"
     style="opacity:0.6;fill:#000000;fill-opacity:1;fill-rule:nonzero;stroke:#000000;stroke-width:2;stroke-linecap:butt;stroke-linejoin:round;stroke-miterlimit:4;stroke-dasharray:none;stroke-opacity:1"
     d="m 6,26 v 1 h 20 v -1 z m 0,2 v 1 h 20 v -1 z"
     sodipodi:nodetypes="cccccccccc" />
  <rect
     y="26"
     x="6"
     height="1"
     width="20"
     id="rect827"
     style="opacity:1;fill:#ffffff;fill-opacity:1;fill-rule:nonzero;stroke:none;stroke-width:2;stroke-linecap:butt;stroke-linejoin:round;stroke-miterlimit:4;stroke-dasharray:none;stroke-opacity:1" />
  <rect
     style="opacity:1;fill:#ffffff;fill-opacity:1;fill-rule:nonzero;stroke:none;stroke-width:2;stroke-linecap:butt;stroke-linejoin:round;stroke-miterlimit:4;stroke-dasharray:none;stroke-opacity:1"
     id="rect833"
     width="20"
     height="1"
     x="6"
     y="28" />
</svg>
