<svg xmlns="http://www.w3.org/2000/svg" viewBox="0 0 16 16"><path d="M0 2v1h6V2ZM0 4v1h4V4zM0 9v1h2V9ZM0 11v1h3v-1zM0 13v1h2v-1z" style="fill:#6d6d6d;fill-opacity:1"/><path d="m8 2 2 4 4 1-3 3 1 4-4-2-4 2 1-4-3-3 4-1z" style="opacity:.7;fill:#000;fill-opacity:1;stroke:#000;stroke-width:2;stroke-linecap:butt;stroke-linejoin:round;stroke-miterlimit:4;stroke-dasharray:none;stroke-opacity:1"/><path style="fill:#fee581;fill-opacity:1;stroke:none;stroke-width:1px;stroke-linecap:butt;stroke-linejoin:miter;stroke-opacity:1" d="m8 2 2 4 4 1-3 3 1 4-4-2-4 2 1-4-3-3 4-1z"/></svg>