<svg xmlns="http://www.w3.org/2000/svg" height="52" width="60"><linearGradient id="b"><stop offset="0" stop-color="#e95420"/><stop offset="1" stop-color="#fe865c"/></linearGradient><linearGradient id="a"><stop offset="0" stop-color="#77216F"/><stop offset="1" stop-color="#a25f9e"/></linearGradient><path d="M0 0h60v52H0z" fill="#fff"/><g fill="#232629"><path d="M11.646 39.646l-9 9 .708.707 9-9z" fill-rule="evenodd"/><path d="M11 40.006h46v.988H11zM9 3h1v38H9z"/></g><path d="M20 8H5l3-3h15z" fill="#f39472" fill-rule="evenodd"/><path d="M29 16v8H5v-8z" fill="#77216f"/><path d="M41 37h-9l3-3h9z" fill="#b87ab2" fill-rule="evenodd"/><path d="M29 16v8l3-3v-8z" fill="#a6599f" fill-rule="evenodd"/><path d="M20 8v8H5V8z" fill="#e95420"/><path d="M41 37v8H5v-8z" fill="#77216f"/><path d="M41 37v8l3-3v-8z" fill="#a6599f" fill-rule="evenodd"/><path d="M35 29v8H5v-8z" fill="#e95420"/><path d="M20 8v8l3-3V5zM35 29v8l3-3v-8z" fill="#f08966" fill-rule="evenodd"/><path d="M35 29H5l3-3h30z" fill="#f39472" fill-rule="evenodd"/><path d="M29 16h-9l3-3h9z" fill="#b87ab2" fill-rule="evenodd"/></svg>