<svg xmlns="http://www.w3.org/2000/svg" height="52" width="60"><linearGradient id="b"><stop offset="0" stop-color="#e95420"/><stop offset="1" stop-color="#fe865c"/></linearGradient><linearGradient id="a"><stop offset="0" stop-color="#77216F"/><stop offset="1" stop-color="#a25f9e"/></linearGradient><path d="M0 0h60v52H0z" fill="#fff"/><path d="M14 37L2 49" fill="none" stroke="#232629"/><path d="M13 37h46v.987H13z" fill="#232629"/><path d="M35 13h16v30H35z" fill="#77216f"/><path d="M13 2h1v36h-1z" fill="#232629"/><path d="M12 19h16v24H12z" fill="#77216f"/><path d="M28 19H12l3-3h16zM51 13H35l3-3h16z" fill="#b87ab2" fill-rule="evenodd"/><path d="M28 19v24l3-3V16zM51 13v30l3-3V10z" fill="#a6599f" fill-rule="evenodd"/><g fill="#f08966" fill-rule="evenodd"><path d="M46 35v12l3-3V32zM23 32v15l3-3V29z"/></g><path d="M8 32h15v15H8zM31 35h15v12H31z" fill="#e95420"/><g fill="#f39472" fill-rule="evenodd"><path d="M23 32H8l3-3h15zM46 35H31l3-3h15z"/></g></svg>