<svg xmlns="http://www.w3.org/2000/svg" height="52" width="60"><radialGradient id="a" cx="30" cy="1029.775" gradientTransform="matrix(1 0 0 1.17466 0 -1180.64)" gradientUnits="userSpaceOnUse" r="19.58"><stop offset="0" stop-color="#77216f"/><stop offset="1" stop-color="#a25f9e"/></radialGradient><radialGradient id="b" cx="30" cy="1029.362" gradientTransform="matrix(1.43139 0 0 1.66995 -12.939 -1689.986)" gradientUnits="userSpaceOnUse" r="12.575"><stop offset="0" stop-color="#e95420"/><stop offset="1" stop-color="#fe865c"/></radialGradient><path d="M0 0h60v52H0z" fill="#fff"/><path d="M29.5 7.935 9.92 18.239l.096.381L16.109 43h26.782l6.19-24.76z" fill="url(#a)" fill-rule="evenodd" style="fill:#77216f;stroke-width:.999998;fill-opacity:1"/><path d="m29.418 13.902-10.47 9.423.066.287 3.078 13.34 16.767 2.098 5.239-17.81z" fill="url(#b)" fill-rule="evenodd" style="fill:#e95420;fill-opacity:1"/><path d="M29 6v22.633L9.832 17.566l-.5.868L28.5 29.5v.293L12.883 45.41l.707.707 15.91-15.91 15.91 15.91.707-.707L30.5 29.793V29.5l19.168-11.066-.5-.868L30 28.633V6z" fill="#232629"/><g fill="#e95420"><path d="M19 24h1v1h-1zM20 23h1v1h-1zM19 22h1v1h-1zM18 23h1v1h-1z"/></g><path d="M19 23h1v1h-1z" fill="#fff"/><path d="M47 17h3v3h-3z" fill="#77216f"/><path d="M48 18h1v1h-1z" fill="#fff"/><path d="M41 41h3v3h-3z" fill="#77216f"/><path d="M42 42h1v1h-1z" fill="#fff"/><path d="M15 41h3v3h-3z" fill="#77216f"/><path d="M16 42h1v1h-1z" fill="#fff"/><path d="M9 17h3v3H9z" fill="#77216f"/><path d="M10 18h1v1h-1z" fill="#fff"/><path d="M28 7h3v3h-3z" fill="#77216f"/><path d="M29 8h1v1h-1z" fill="#fff"/><g fill="#e95420"><path d="M29 15h1v1h-1zM30 14h1v1h-1zM29 13h1v1h-1zM28 14h1v1h-1z"/></g><path d="M29 14h1v1h-1z" fill="#fff"/><g fill="#e95420"><path d="M43 22h1v1h-1zM44 21h1v1h-1zM43 20h1v1h-1zM42 21h1v1h-1z"/></g><path d="M43 21h1v1h-1z" fill="#fff"/><g fill="#e95420"><path d="M38 39h1v1h-1zM39 38h1v1h-1zM38 37h1v1h-1zM37 38h1v1h-1z"/></g><path d="M38 38h1v1h-1z" fill="#fff"/><g fill="#e95420"><path d="M22 37h1v1h-1zM23 36h1v1h-1zM22 35h1v1h-1zM21 36h1v1h-1z"/></g><path d="M22 36h1v1h-1z" fill="#fff"/></svg>