<svg xmlns="http://www.w3.org/2000/svg" height="52" width="60"><path d="M0 0h60v52H0z" fill="#fff"/><path d="M7.031 25.363c-.011.213-.025.426-.03.639A22.877 22.877 0 0013 41.455V38.62c-3.59-3.653-5.696-8.34-5.969-13.256zM13 41.455h.004l16.22-14.963.708-.635.707.635 16.367 14.944c.44-.444.702-.82 1.098-1.293a23.004 23.004 0 004.814-12.524c.004-.157.013-.314.014-.472 0-.332-.01-.66-.026-.987-.447 4.619-2.513 8.992-5.906 12.444v2.822L30.64 26.488l-.707-.634-.707.634-16.221 14.963H13z" fill="#a6599f"/><path d="M14.5 40v2.934A23 23 0 0030 49a23 23 0 0015.5-6.055V40z" fill="#f39472"/><path d="M30 3C17.297 3 7 12.543 7 24.315c.012 5.327 2.177 10.458 6.068 14.38l16.225-15.036.707-.635.707.635 16.219 15.03c3.892-3.92 6.059-9.048 6.074-14.374C53 12.543 42.703 3 30 3z" fill="#77216f"/><path d="M30 25.625L14.488 40A23 21.315 0 0030 45.63a23 21.315 0 0015.518-5.625z" fill="#e95420" fill-rule="evenodd"/><path d="M30 23.025l-.707.635-16.225 15.035c-.024-.024-.044-.052-.068-.076v2.836h.004l16.22-14.963.708-.634.707.634L47 41.43v-2.826c-.026.027-.048.056-.074.082L30.707 23.66z" fill="#b87ab2"/></svg>