<svg xmlns="http://www.w3.org/2000/svg" xmlns:xlink="http://www.w3.org/1999/xlink" width="32" height="32" viewBox="0 0 8.467 8.467"><defs><linearGradient id="a"><stop offset="0" style="stop-color:#4d4d4d;stop-opacity:1"/><stop offset="1" style="stop-color:#151515;stop-opacity:1"/></linearGradient><linearGradient xlink:href="#a" id="d" gradientUnits="userSpaceOnUse" gradientTransform="matrix(-.06775 -.33234 .33234 .06775 53.119 332.392)" x1="79" y1="-165" x2="95" y2="-165"/><filter style="color-interpolation-filters:sRGB" id="c" x="-.108" width="1.216" y="-.108" height="1.216"><feGaussianBlur stdDeviation=".175"/></filter><filter style="color-interpolation-filters:sRGB" id="b" x="-.216" width="1.432" y="-.216" height="1.432"><feGaussianBlur stdDeviation=".421"/></filter></defs><path d="m-5.946 290.484-.187.19-.093.096-2.386 2.431-.021.038-.002.002a4.473 4.473 0 0 0-.356 1.102l-.147.814.814-.147a4.465 4.465 0 0 0 1.102-.356l.003-.002.038-.02 2.717-2.666z" style="color:#000;font-style:normal;font-variant:normal;font-weight:400;font-stretch:normal;font-size:15px;line-height:125%;font-family:Ubuntu;-inkscape-font-specification:Ubuntu;font-variant-ligatures:normal;font-variant-position:normal;font-variant-caps:normal;font-variant-numeric:normal;font-variant-alternates:normal;font-feature-settings:normal;text-indent:0;text-align:center;text-decoration:none;text-decoration-line:none;text-decoration-style:solid;text-decoration-color:#000;letter-spacing:0;word-spacing:0;text-transform:none;writing-mode:lr-tb;direction:ltr;text-orientation:mixed;dominant-baseline:auto;baseline-shift:baseline;text-anchor:middle;white-space:normal;shape-padding:0;clip-rule:nonzero;display:inline;overflow:visible;visibility:visible;opacity:.2;isolation:auto;mix-blend-mode:normal;color-interpolation:sRGB;color-interpolation-filters:linearRGB;solid-color:#000;solid-opacity:1;vector-effect:none;fill:#000;fill-opacity:1;fill-rule:nonzero;stroke:none;stroke-width:.61203307;stroke-linecap:butt;stroke-linejoin:miter;stroke-miterlimit:4;stroke-dasharray:none;stroke-dashoffset:0;stroke-opacity:1;filter:url(#b);color-rendering:auto;image-rendering:auto;shape-rendering:auto;text-rendering:auto;enable-background:accumulate" transform="translate(11.113 -288.533)"/><path d="m-5.918 291.15-.094.096-2.364 2.415-.007.013a4.15 4.15 0 0 0-.288 1.082l-.034.286.286-.034a4.146 4.146 0 0 0 1.082-.288l.013-.007 2.51-2.458zm-2.105 2.722.488.488-.047.046c.002 0-.11.05-.285.106-.064.02-.163.037-.254.055l-.11-.109c.019-.091.036-.19.056-.254.056-.174.107-.286.106-.285z" style="font-style:normal;font-variant:normal;font-weight:400;font-stretch:normal;font-size:15px;line-height:125%;font-family:Ubuntu;-inkscape-font-specification:Ubuntu;text-align:center;letter-spacing:0;word-spacing:0;writing-mode:lr-tb;text-anchor:middle;opacity:.7;fill:#000;fill-opacity:1;stroke:none;stroke-width:.08132329;filter:url(#c)" transform="translate(11.113 -288.533)"/><path style="color:#000;font-style:normal;font-variant:normal;font-weight:400;font-stretch:normal;font-size:15px;line-height:125%;font-family:Ubuntu;-inkscape-font-specification:Ubuntu;font-variant-ligatures:normal;font-variant-position:normal;font-variant-caps:normal;font-variant-numeric:normal;font-variant-alternates:normal;font-feature-settings:normal;text-indent:0;text-align:center;text-decoration:none;text-decoration-line:none;text-decoration-style:solid;text-decoration-color:#000;letter-spacing:0;word-spacing:0;text-transform:none;writing-mode:lr-tb;direction:ltr;text-orientation:mixed;dominant-baseline:auto;baseline-shift:baseline;text-anchor:middle;white-space:normal;shape-padding:0;clip-rule:nonzero;display:inline;overflow:visible;visibility:visible;opacity:1;isolation:auto;mix-blend-mode:normal;color-interpolation:sRGB;color-interpolation-filters:linearRGB;solid-color:#000;solid-opacity:1;vector-effect:none;fill:#fff;fill-opacity:1;fill-rule:nonzero;stroke:none;stroke-width:.61203307;stroke-linecap:butt;stroke-linejoin:miter;stroke-miterlimit:4;stroke-dasharray:none;stroke-dashoffset:0;stroke-opacity:1;color-rendering:auto;image-rendering:auto;shape-rendering:auto;text-rendering:auto;enable-background:accumulate" d="m-5.946 290.352-.187.19-.093.096-2.386 2.43-.021.04-.002.001a4.473 4.473 0 0 0-.356 1.102l-.147.814.814-.147a4.465 4.465 0 0 0 1.102-.356l.002-.002.039-.021 2.717-2.666z" transform="translate(11.113 -288.533)"/><path style="font-style:normal;font-variant:normal;font-weight:400;font-stretch:normal;font-size:15px;line-height:125%;font-family:Ubuntu;-inkscape-font-specification:Ubuntu;text-align:center;letter-spacing:0;word-spacing:0;writing-mode:lr-tb;text-anchor:middle;fill:url(#d);fill-opacity:1;stroke:none;stroke-width:.08132329" d="m-5.945 290.727-.093.096-2.364 2.415-.007.013a4.15 4.15 0 0 0-.288 1.082l-.034.286.286-.035a4.146 4.146 0 0 0 1.081-.287l.013-.007 2.511-2.458zm-2.104 2.722.488.487-.048.047c.002-.001-.11.05-.284.105-.064.02-.163.038-.254.056l-.11-.11c.018-.09.036-.19.056-.254.056-.174.107-.285.106-.284z" transform="translate(11.113 -288.533)"/></svg>