<svg xmlns="http://www.w3.org/2000/svg" xmlns:xlink="http://www.w3.org/1999/xlink" height="16" width="24"><defs><linearGradient xlink:href="#a" id="b" x1="3" y1="3" x2="3" y2="8" gradientUnits="userSpaceOnUse"/><linearGradient id="a"><stop offset="0" stop-color="#151515"/><stop offset="1" stop-color="#4d4d4d"/></linearGradient></defs><path d="M2 3v5h2.5A1.5 1.5 0 006 6.5c0-.533-.268-1.015-.687-1.281.115-.213.187-.46.187-.719A1.5 1.5 0 004 3H2.5zm1 1h1a.5.5 0 010 1H3zm0 2h1.5a.5.5 0 010 1H3zM13 3v5h2.5A1.5 1.5 0 0017 6.5v-2A1.5 1.5 0 0015.5 3H14zm1 1h1.5a.5.5 0 01.5.5v2a.5.5 0 01-.5.5H14z" stroke="#fff" stroke-width="2" stroke-linejoin="round"/><path d="M2 10l4 2-4 2zM17 10l-4 2 4 2z" fill="#88a05d"/><path d="M2 3v5h2.5A1.5 1.5 0 006 6.5c0-.533-.268-1.015-.688-1.281.116-.213.188-.46.188-.719A1.5 1.5 0 004 3H2.5zm11 0v5h2.5A1.5 1.5 0 0017 6.5v-2A1.5 1.5 0 0015.5 3H14zM3 4h1a.5.5 0 010 1H3zm11 0h1.5c.276 0 .43.233.5.5v2a.5.5 0 01-.5.5H14zM3 6h1.5a.5.5 0 010 1H3z" fill="url(#b)"/></svg>