<svg xmlns="http://www.w3.org/2000/svg" xmlns:xlink="http://www.w3.org/1999/xlink" height="16" width="24"><defs><linearGradient id="a"><stop offset="0" stop-color="#151515"/><stop offset="1" stop-color="#4d4d4d"/></linearGradient><linearGradient xlink:href="#a" id="b" x1="3" y1="3" x2="3" y2="8" gradientUnits="userSpaceOnUse"/></defs><path d="M2 3v5h2.5A1.5 1.5 0 006 6.5c0-.533-.268-1.015-.688-1.281.116-.213.188-.46.188-.719A1.5 1.5 0 004 3H2zm5 0v5h2.5A1.5 1.5 0 0011 6.5v-2A1.5 1.5 0 009.5 3H7zM3 4h1a.5.5 0 010 1H3V4zm5 0h1.5a.5.5 0 01.5.5v2a.5.5 0 01-.5.5H8V4zM3 6h1.5a.5.5 0 010 1H3V6z" stroke="#fff" stroke-width="2" stroke-linejoin="round"/><path d="M2 10l4 2-4 2z" fill="#88a05d"/><path d="M2 3v5h2.5A1.5 1.5 0 006 6.5c0-.533-.268-1.015-.688-1.281.116-.213.188-.46.188-.719A1.5 1.5 0 004 3H2zm5 0v5h2.5A1.5 1.5 0 0011 6.5v-2A1.5 1.5 0 009.5 3H7zM3 4h1a.5.5 0 010 1H3V4zm5 0h1.5a.5.5 0 01.5.5v2a.5.5 0 01-.5.5H8V4zM3 6h1.5a.5.5 0 010 1H3V6z" fill="url(#b)"/><path d="M11 10l-4 2 4 2z" fill="#88a05d"/></svg>