<svg xmlns="http://www.w3.org/2000/svg" xmlns:xlink="http://www.w3.org/1999/xlink" height="52" width="60"><linearGradient id="b"><stop offset="0" stop-color="#4B8501"/><stop offset="1" stop-color="#fe865c"/></linearGradient><linearGradient id="c" gradientTransform="matrix(0 .88889 -.8 0 842.09 -24)" gradientUnits="userSpaceOnUse" x1="49.5" x2="49.5" xlink:href="#a" y1="1046.362" y2="1016.362"/><linearGradient id="a"><stop offset="0" stop-color="#4B8501"/><stop offset="1" stop-color="#a25f9e"/></linearGradient><linearGradient id="d" gradientTransform="matrix(0 .88889 -.83333 0 876.968 -2.667)" gradientUnits="userSpaceOnUse" x1="16.5" x2="16.5" xlink:href="#b" y1="1046.362" y2="1028.362"/><linearGradient id="e" gradientTransform="matrix(0 .88889 -1.2 0 1260.634 -3)" gradientUnits="userSpaceOnUse" x1="49.5" x2="49.5" xlink:href="#a" y1="1046.362" y2="1016.362"/><linearGradient id="f" gradientTransform="matrix(0 .88889 -1.66667 0 1748.937 18.333)" gradientUnits="userSpaceOnUse" x1="16.5" x2="16.5" xlink:href="#b" y1="1046.362" y2="1028.362"/><path d="M0 0h60v52H0z" fill="#fff"/><g fill="#232629"><path d="m11.646 39.646-9 9 .708.707 9-9z" fill-rule="evenodd"/><path d="M11 40.006h46v.988H11zM9 3h1v38H9z"/></g><path d="M20 8H5l3-3h15z" fill="#fe865c" fill-rule="evenodd" style="fill:#f39472;fill-opacity:1"/><path d="M29 16v8H5v-8z" fill="url(#c)" style="fill:#4B8501;fill-opacity:1"/><path d="M41 37h-9l3-3h9z" fill="#987197" fill-rule="evenodd" style="fill:#b87ab2;fill-opacity:1"/><path d="M29 16v8l3-3v-8z" fill="#945c93" fill-rule="evenodd" style="fill:#a6599f;fill-opacity:1"/><path d="M20 8v8H5V8z" fill="url(#d)" style="fill:#4B8501;fill-opacity:1"/><path d="M41 37v8H5v-8z" fill="url(#e)" style="fill:#4B8501;fill-opacity:1"/><path d="M41 37v8l3-3v-8z" fill="#945c93" fill-rule="evenodd" style="fill:#a6599f;fill-opacity:1"/><path d="M35 29v8H5v-8z" fill="url(#f)" style="fill:#4B8501;fill-opacity:1"/><path d="M20 8v8l3-3V5zM35 29v8l3-3v-8z" fill="#fe865c" style="fill-rule:evenodd;fill:#f08966;fill-opacity:1"/><path d="M35 29H5l3-3h30z" fill="#fe865c" style="fill-rule:evenodd;fill:#f39472;fill-opacity:1"/><path d="M29 16h-9l3-3h9z" fill="#987197" style="fill-rule:evenodd;fill:#b87ab2;fill-opacity:1"/></svg>