<svg xmlns="http://www.w3.org/2000/svg" xmlns:xlink="http://www.w3.org/1999/xlink" height="52" width="60"><linearGradient id="a"><stop offset="0" stop-color="#4B8501"/><stop offset="1" stop-color="#fe865c"/></linearGradient><linearGradient id="c" gradientTransform="matrix(.88889 0 0 1.5 -.667 -1524.543)" gradientUnits="userSpaceOnUse" x1="16.5" x2="16.5" xlink:href="#a" y1="1046.362" y2="1028.362"/><linearGradient id="d" gradientTransform="matrix(.88889 0 0 1.66667 21.333 -1698.937)" gradientUnits="userSpaceOnUse" x1="16.5" x2="16.5" xlink:href="#a" y1="1046.362" y2="1028.362"/><linearGradient id="e" gradientTransform="matrix(.88889 0 0 .7 0 -687.453)" gradientUnits="userSpaceOnUse" x1="49.5" x2="49.5" xlink:href="#b" y1="1046.362" y2="1016.362"/><linearGradient id="b"><stop offset="0" stop-color="#4B8501"/><stop offset="1" stop-color="#a25f9e"/></linearGradient><linearGradient id="f" gradientTransform="matrix(.88889 0 0 1.2 -22 -1210.634)" gradientUnits="userSpaceOnUse" x1="49.5" x2="49.5" xlink:href="#b" y1="1046.362" y2="1016.362"/><path d="M0 0h60v52H0z" fill="#fff"/><path d="m12 40-9 9" fill="none" stroke="#232629"/><path d="M11 40.006h46v.988H11z" fill="#232629"/><path d="M11 3h1v38h-1z" fill="#232629"/><path d="M10 18h8v27h-8z" fill="url(#c)" style="fill:#4B8501;fill-opacity:1"/><path d="M32 15h8v30h-8z" fill="url(#d)" style="fill:#4B8501;fill-opacity:1"/><path d="M40 24h8v21h-8z" fill="url(#e)" style="fill:#4B8501;fill-opacity:1"/><path d="M18 18h-8l3-3h8z" fill="#fe865c" fill-rule="evenodd" style="fill:#f39472;fill-opacity:1"/><path d="M18 9h8v36h-8z" fill="url(#f)" style="fill:#4B8501;fill-opacity:1"/><path d="M40 15h-8l3-3h8z" fill="#fe865c" style="fill-rule:evenodd;fill:#f39472;fill-opacity:1"/><path d="M26 9h-8l3-3h8zM48 24h-8l3-3h8z" fill="#987197" style="fill-rule:evenodd;fill:#b87ab2;fill-opacity:1"/><path d="M26 9v36l3-3V6zM48 24v21l3-3V21z" fill="#945c93" style="fill-rule:evenodd;fill:#a6599f;fill-opacity:1"/><path d="M40 15v9l3-3v-9z" fill="#fe865c" style="fill-rule:evenodd;fill:#f08966;fill-opacity:1"/></svg>