<svg height="52" width="60" xmlns="http://www.w3.org/2000/svg"><path d="M0 0h60v52H0z" fill="#fff"/><path d="M3 45h52v1H3z" fill="#232629"/><path d="M6 3h1v46H6z" fill="#232629"/><path d="m14.286 7.955 14.41-4.977-2.977 2.955-14.433 5.022z" fill="#987197" style="fill:#4B8501;fill-opacity:1"/><path d="m28.67 2.933 14.946 29.732-3.045 3.134L25.67 5.933z" fill="#945c93" style="fill:#4B8501;fill-opacity:1"/><path d="m28.67 2.933 14.946 29.732-3.045 3.134L25.67 5.933z" fill="#945c93" style="fill:#fff;fill-opacity:1;opacity:.2"/><path d="m43.58 32.643 10.773-8.66-3.201 3.29-10.616 8.548z" fill="#987197" style="fill:#4B8501;fill-opacity:1"/><path d="m44.295 5.947 10.58 6.155-3.159 3.095-10.421-6.25z" fill="#fe865c" style="fill:#4B8501;fill-opacity:1"/><path d="m23.446 26.795 20.84-20.866-2.843 3.063-20.997 20.803z" fill="#fe865c" style="fill:#4B8501"/><path d="m14.82 18.19 8.75 8.649-3.127 3.252-8.622-8.902z" fill="#fe865c" style="fill:#4B8501;fill-opacity:1"/><path d="m44.295 5.947 10.58 6.155-3.159 3.095-10.421-6.25z" fill="#fe865c" style="fill:#fff;fill-opacity:1;opacity:.6"/><path d="m23.446 26.795 20.84-20.866-2.843 3.063-20.997 20.803z" fill="#fe865c" style="fill:#fff;opacity:.6"/><path d="m14.82 18.19 8.75 8.649-3.127 3.252-8.622-8.902z" fill="#fe865c" style="fill:#fff;fill-opacity:1;opacity:.6"/><path d="m14.286 7.955 14.41-4.977-2.977 2.955-14.433 5.022z" fill="#987197" style="fill:#fff;fill-opacity:1;opacity:.3"/><path d="m11.5 11.4 14-5 15 30 11-8.9" stroke="#77216f" style="fill:none;stroke:#4B8501"/><path d="m11.5 21.5 9 9 21-21 10 6" stroke="#e95420" style="fill:none;stroke:#4B8501"/><path d="m11.5 21.5 9 9 21-21 10 6" stroke="#e95420" style="fill:none;stroke:#fff;opacity:.4"/><path d="m43.58 32.643 10.773-8.66-3.201 3.29-10.616 8.548z" fill="#987197" style="fill:#fff;fill-opacity:1;opacity:.3"/></svg>