<svg xmlns="http://www.w3.org/2000/svg" viewBox="0 0 16 16"><path d="m5 9 3-3 3 3z" style="fill:#657B69;fill-opacity:1"/><path style="fill:#fff;fill-rule:evenodd;stroke-width:3;stroke-linecap:round;stroke-linejoin:round" transform="scale(1 -1)" d="M2-4h12v1H2z"/><path style="fill:#232629;fill-rule:evenodd;stroke-width:3;stroke-linecap:round;stroke-linejoin:round" transform="scale(1 -1)" d="M2-3h12v1H2z"/><path style="fill:#fff;fill-rule:evenodd;stroke-width:3;stroke-linecap:round;stroke-linejoin:round" transform="scale(1 -1)" d="M2-4h12v1H2z"/><path style="fill:#232629;fill-rule:evenodd;stroke-width:3;stroke-linecap:round;stroke-linejoin:round" transform="scale(1 -1)" d="M2-3h12v1H2z"/><path style="fill:#fff;fill-rule:evenodd;stroke-width:3;stroke-linecap:round;stroke-linejoin:round" transform="scale(1 -1)" d="M2-12h12v1H2z"/><path style="fill:#232629;fill-rule:evenodd;stroke-width:3;stroke-linecap:round;stroke-linejoin:round" transform="scale(1 -1)" d="M2-11h12v1H2z"/><path style="fill:#fff;fill-rule:evenodd;stroke-width:3;stroke-linecap:round;stroke-linejoin:round" transform="scale(1 -1)" d="M2-12h12v1H2z"/><path style="fill:#232629;fill-rule:evenodd;stroke-width:3;stroke-linecap:round;stroke-linejoin:round" transform="scale(1 -1)" d="M2-11h12v1H2z"/><path style="fill:#fff;fill-rule:evenodd;stroke-width:3;stroke-linecap:round;stroke-linejoin:round" transform="scale(1 -1)" d="M2-14h12v1H2z"/><path style="fill:#232629;fill-rule:evenodd;stroke-width:3;stroke-linecap:round;stroke-linejoin:round" transform="scale(1 -1)" d="M2-13h12v1H2z"/><path style="fill:#fff;fill-rule:evenodd;stroke-width:3;stroke-linecap:round;stroke-linejoin:round" transform="scale(1 -1)" d="M2-14h12v1H2z"/><path style="fill:#232629;fill-rule:evenodd;stroke-width:3;stroke-linecap:round;stroke-linejoin:round" transform="scale(1 -1)" d="M2-13h12v1H2z"/><path style="fill:#fff;fill-rule:evenodd;stroke-width:3;stroke-linecap:round;stroke-linejoin:round" transform="scale(1 -1)" d="M2-16h12v1H2z"/><path style="fill:#232629;fill-rule:evenodd;stroke-width:3;stroke-linecap:round;stroke-linejoin:round" transform="scale(1 -1)" d="M2-15h12v1H2z"/><path style="fill:#fff;fill-rule:evenodd;stroke-width:3;stroke-linecap:round;stroke-linejoin:round" transform="scale(1 -1)" d="M2-16h12v1H2z"/><path style="fill:#232629;fill-rule:evenodd;stroke-width:3;stroke-linecap:round;stroke-linejoin:round" transform="scale(1 -1)" d="M2-15h12v1H2z"/><path style="fill:#fff;fill-rule:evenodd;stroke-width:3;stroke-linecap:round;stroke-linejoin:round" transform="scale(1 -1)" d="M2-2h12v1H2z"/><path style="fill:#232629;fill-rule:evenodd;stroke-width:3;stroke-linecap:round;stroke-linejoin:round" transform="scale(1 -1)" d="M2-1h12v1H2z"/><path style="fill:#fff;fill-rule:evenodd;stroke-width:3;stroke-linecap:round;stroke-linejoin:round" transform="scale(1 -1)" d="M2-2h12v1H2z"/><path style="fill:#232629;fill-rule:evenodd;stroke-width:3;stroke-linecap:round;stroke-linejoin:round" transform="scale(1 -1)" d="M2-1h12v1H2z"/></svg>