<svg xmlns="http://www.w3.org/2000/svg" xmlns:xlink="http://www.w3.org/1999/xlink" viewBox="0 0 32 32"><defs><linearGradient xlink:href="#a" id="b" x1="17" y1="4" x2="17" y2="28" gradientUnits="userSpaceOnUse" gradientTransform="translate(0 3)"/><linearGradient id="a"><stop style="stop-color:#151515;stop-opacity:1" offset="0"/><stop style="stop-color:#4d4d4d;stop-opacity:1" offset="1"/></linearGradient></defs><path style="opacity:1;fill:#000;stroke:#fff;stroke-width:2;stroke-linejoin:round;stroke-miterlimit:4;stroke-dasharray:none" d="M8.723 7C6.946 7 6 7.706 6 9.51v2.441L5.998 12H6v3.596C6 16.71 5.966 18 4.985 18H4v2h.985c.981 0 1 1.29 1.015 2.404V26h-.002l.002.049v2.441C6 30.294 6.946 31 8.723 31H9v-2c-1.185 0-1-.478-1-2.21v-5.384c0-.83-.205-2.067-1.203-2.58C7.795 18.313 8 17.076 8 16.244v-5.033C8 9.478 7.815 9 9 9V7zM19.277 7C21.054 7 22 7.706 22 9.51v2.441l.002.049H22v3.596c0 1.114.034 2.398 1.015 2.404H24v2h-.985c-.981 0-1.003 1.29-1.015 2.404V26h.002l-.002.049v2.441c0 1.804-.946 2.51-2.723 2.51H19v-2c1.185 0 1-.478 1-2.21v-5.384c0-.83.205-2.067 1.203-2.58-.998-.513-1.203-1.75-1.203-2.582v-5.033C20 9.478 20.185 9 19 9V7Z"/><path style="fill:url(#b);fill-opacity:1" d="M8.723 7C6.946 7 6 7.706 6 9.51v2.441L5.998 12H6v3.596C6 16.71 5.966 18 4.984 18H4v2h.984c.982 0 1.001 1.29 1.016 2.404V26h-.002l.002.049v2.441C6 30.294 6.946 31 8.723 31H9v-2c-1.185 0-1-.478-1-2.21v-5.384c0-.83-.205-2.067-1.203-2.58C7.795 18.313 8 17.076 8 16.244v-5.033C8 9.478 7.815 9 9 9V7zM19 7v2c1.185 0 1 .478 1 2.21v5.034c0 .831.205 2.07 1.203 2.582-.998.513-1.203 1.75-1.203 2.58v5.383c0 1.733.185 2.211-1 2.211v2h.277C21.054 31 22 30.294 22 28.49V26.05l.002-.049H22v-3.596C22 21.29 22.034 20 23.016 20H24v-2h-.984c-.982 0-1.021-1.29-1.016-2.404V12h.002L22 11.951V9.51C22 7.706 21.054 7 19.277 7Z"/><path style="fill:#d56199;fill-opacity:1;stroke:none;stroke-width:1px;stroke-linecap:butt;stroke-linejoin:miter;stroke-opacity:1" d="m15.983 16.015 4-5h-8zM16.983 11.015l.015-8.017c0-2-1-3-3-3h-8l-.015 2.017 7.015-.017c2 0 2 0 2 2l-.015 7.017z" transform="rotate(-90 16.484 3.5)"/></svg>