<svg xmlns="http://www.w3.org/2000/svg" viewBox="0 0 32 32"><path style="fill:#000;stroke:#000;opacity:.7;stroke-width:2;stroke-miterlimit:4;stroke-dasharray:none;stroke-linejoin:round" fill="#232629" d="M7 4a3 3 0 0 0-3 3 3 3 0 0 0 3 3 3 3 0 0 0 2.826-2h1.89l7.929 17H22a3 3 0 0 0 3 3 3 3 0 0 0 3-3 3 3 0 0 0-3-3 3 3 0 0 0-2.826 2h-1.89L12.354 7H10a3 3 0 0 0-3-3zm0 1a2 2 0 0 1 2 2l-.115.66A2 2 0 0 1 7 9a2 2 0 0 1-2-2 2 2 0 0 1 2-2zm18 18a2 2 0 0 1 2 2 2 2 0 0 1-2 2 2 2 0 0 1-2-2 2 2 0 0 1 2-2z"/><path d="M7 4a3 3 0 0 0-3 3 3 3 0 0 0 3 3 3 3 0 0 0 2.826-2h1.89l7.929 17H22a3 3 0 0 0 3 3 3 3 0 0 0 3-3 3 3 0 0 0-3-3 3 3 0 0 0-2.826 2h-1.89L12.354 7H10a3 3 0 0 0-3-3zm0 1a2 2 0 0 1 2 2l-.115.66A2 2 0 0 1 7 9a2 2 0 0 1-2-2 2 2 0 0 1 2-2zm18 18a2 2 0 0 1 2 2 2 2 0 0 1-2 2 2 2 0 0 1-2-2 2 2 0 0 1 2-2z" fill="#232629" style="fill:#fff"/></svg>