<svg xmlns="http://www.w3.org/2000/svg" viewBox="0 0 32 32"><path style="opacity:.7;fill:#000;stroke:#000;stroke-width:2;stroke-miterlimit:4;stroke-dasharray:none" d="M10 28c-2 0-4-1-4-3V7c0-2 2-3 4-3h9l7 7v14c0 2-2 3-4 3z"/><path d="M10 28c-2 0-4-1-4-3V7c0-2 2-3 4-3h9l7 7v14c0 2-2 3-4 3z" style="fill:#fff"/><path d="M19 11V4l7 7z" style="fill:#6d6d6d;fill-opacity:1"/><g style="display:inline;stroke-width:10.6667;enable-background:new"><path style="display:inline;overflow:visible;visibility:visible;fill:none;fill-opacity:1;fill-rule:nonzero;stroke:none;stroke-width:21.3333;marker:none;enable-background:accumulate" d="M24 28h256v256H24z" transform="translate(1.75 1.375) scale(.09375)"/><path d="M128.949 188.038c3.986-7.813 8.516-16.616 12.142-25.454l1.434-3.489c-4.736-18.022-7.576-32.489-5.04-41.843.684-2.439 3.508-3.919 6.528-3.919l1.84.027h.338c4.135-.063 6.081 5.196 6.302 7.24.365 3.406-1.21 9.17-1.21 9.17 0-2.328.09-6.088-1.378-9.333-1.71-3.755-3.343-5.998-4.807-6.354-.74.494-1.458 1.516-1.705 3.483-.51 2.758-.662 6.24-.662 8.034 0 6.34 1.248 14.71 3.702 23.337.462-1.336.87-2.62 1.193-3.822.504-1.895 3.702-14.457 3.702-14.457s-.806 16.722-1.932 21.782c-.241 1.07-.507 2.127-.784 3.21 4.045 11.303 10.564 21.392 18.341 28.653 3.066 2.866 6.939 5.176 10.604 7.282 8.004-1.143 15.373-1.683 21.522-1.615 8.156.107 14.144 1.314 16.568 3.702 1.188 1.16 1.67 2.563 1.819 4.134.035.612-.262 2.048-.35 2.409.088-.437.088-2.583-6.46-4.673-5.157-1.649-14.809-1.597-26.39-.364 13.396 6.553 26.446 9.81 30.581 7.857 1.012-.493 2.238-2.173 2.238-2.173s-.729 3.312-1.252 4.14c-.668.9-1.979 1.874-3.221 2.203-6.532 1.742-23.533-2.29-38.355-10.76-16.56 2.44-34.746 6.945-49.323 11.726-14.326 25.106-25.096 36.636-33.857 32.25l-3.221-1.62c-1.31-.75-1.51-2.572-1.207-4.057 1.022-4.998 7.289-12.525 19.877-20.041 1.355-.82 7.39-4.012 7.39-4.012s-4.468 4.325-5.515 5.174c-10.047 8.233-17.463 18.592-17.278 22.607l.037.35c8.535-1.216 21.334-18.588 37.789-50.784m5.214 2.67c-2.748 5.176-5.434 9.975-7.915 14.382 13.72-5.748 28.486-9.426 42.542-12.04a70.125 70.125 0 0 1-5.449-4.145c-7.74-6.554-13.641-14.73-17.919-23.333-2.713 7.309-5.939 15.075-11.259 25.136" style="fill:#da1636;fill-opacity:1;stroke-width:4.17937" transform="translate(1.75 1.375) scale(.09375)"/></g></svg>