<svg xmlns="http://www.w3.org/2000/svg" viewBox="0 0 32 32"><path d="M15 4v3h2V4zM8.223 6.807 6.807 8.223l2.123 2.12 1.414-1.413Zm15.554 0-2.12 2.123 1.413 1.414 2.123-2.121zM16 8a8 8 0 0 0-8 8 8 8 0 0 0 8 8 8 8 0 0 0 8-8 8 8 0 0 0-8-8ZM4 15v2h3v-2Zm21 0v2h3v-2ZM8.93 21.656l-2.123 2.121 1.416 1.414 2.12-2.12Zm14.14 0-1.414 1.414 2.121 2.121 1.416-1.414zM15 25v3h2v-3z" style="opacity:.7;fill:#000;fill-opacity:1;stroke:#000;stroke-width:2;stroke-linejoin:round;stroke-miterlimit:4;stroke-dasharray:none"/><path style="fill:#fee581;fill-opacity:1" d="M15 4v3h2V4zM8.223 6.807 6.807 8.223l2.123 2.12 1.414-1.413Zm15.554 0-2.12 2.123 1.413 1.414 2.123-2.121zM16 8a8 8 0 0 0-8 8 8 8 0 0 0 8 8 8 8 0 0 0 8-8 8 8 0 0 0-8-8ZM4 15v2h3v-2Zm21 0v2h3v-2ZM8.93 21.656l-2.123 2.121 1.416 1.414 2.12-2.12Zm14.14 0-1.414 1.414 2.121 2.121 1.416-1.414zM15 25v3h2v-3z"/></svg>