<svg xmlns="http://www.w3.org/2000/svg" viewBox="0 0 32 32"><circle style="opacity:1;fill:#232629;fill-opacity:1;fill-rule:nonzero;stroke:none;stroke-width:1;stroke-linecap:round;stroke-linejoin:round;stroke-miterlimit:4;stroke-dasharray:none;stroke-dashoffset:0;stroke-opacity:1" cx="22.5" cy="13.5" r=".5"/><path style="opacity:1;fill:#666;fill-opacity:1;fill-rule:nonzero;stroke:none;stroke-width:2;stroke-linecap:butt;stroke-linejoin:round;stroke-miterlimit:4;stroke-dasharray:none;stroke-dashoffset:0;stroke-opacity:1" d="M11 4c-1.108 0-2 .892-2 2v4H7c-1.108 0-2 .892-2 2v9c0 1.108.892 2 2 2h2v3c0 1.108.892 2 2 2h10c1.108 0 2-.892 2-2v-3h2c1.108 0 2-.892 2-2v-9c0-1.108-.892-2-2-2h-2V6c0-1.108-.892-2-2-2Z"/><path style="opacity:1;fill:#fff;fill-opacity:1;fill-rule:nonzero;stroke:none;stroke-width:2;stroke-linecap:butt;stroke-linejoin:round;stroke-miterlimit:4;stroke-dasharray:none;stroke-dashoffset:0;stroke-opacity:1" d="M11 5h10c.554 0 1 .446 1 1v4H10V6c0-.554.446-1 1-1z"/><rect style="opacity:1;fill:#b3b3b3;fill-opacity:1;fill-rule:nonzero;stroke:none;stroke-width:2;stroke-linecap:butt;stroke-linejoin:round;stroke-miterlimit:4;stroke-dasharray:none;stroke-dashoffset:0;stroke-opacity:1" width="20" height="11" x="6" y="11" ry="1"/><path style="opacity:1;fill:#666;fill-opacity:1;fill-rule:nonzero;stroke:none;stroke-width:2;stroke-linecap:butt;stroke-linejoin:round;stroke-miterlimit:4;stroke-dasharray:none;stroke-dashoffset:0;stroke-opacity:1" d="M9 19h14v4H9z"/><path d="M10 20h12v6c-.032.981-1 1-1 1H11s-1 0-1-1z" style="opacity:1;vector-effect:none;fill:#fff;fill-opacity:1;stroke:none;stroke-width:4;stroke-linecap:butt;stroke-linejoin:round;stroke-miterlimit:4;stroke-dasharray:none;stroke-dashoffset:0;stroke-opacity:1"/><path d="M11 25v1h10v-1zM11 23v1h10v-1z" style="color:#000;font-weight:400;line-height:normal;font-family:sans-serif;font-variant-ligatures:normal;font-variant-position:normal;font-variant-caps:normal;font-variant-numeric:normal;font-variant-alternates:normal;font-feature-settings:normal;text-indent:0;text-align:start;text-decoration:none;text-decoration-line:none;text-decoration-style:solid;text-decoration-color:#000;text-transform:none;text-orientation:mixed;white-space:normal;shape-padding:0;overflow:visible;isolation:auto;mix-blend-mode:normal;fill:#a7a7f1;fill-opacity:1;marker:none"/></svg>