<svg xmlns="http://www.w3.org/2000/svg" xmlns:xlink="http://www.w3.org/1999/xlink" viewBox="0 0 16 16"><defs><linearGradient id="b"><stop offset="0" stop-color="#151515"/><stop offset="1" stop-color="#4d4d4d"/></linearGradient><linearGradient id="a"><stop offset="0" stop-color="#151515"/><stop offset="1" stop-color="#4d4d4d"/></linearGradient><linearGradient xlink:href="#a" id="d" x1="9" y1="1" x2="9" y2="15" gradientUnits="userSpaceOnUse"/><linearGradient xlink:href="#b" id="c" x1="7" y1="1" x2="7" y2="15" gradientUnits="userSpaceOnUse"/></defs><path d="M6.383 1L2 12h2.357l1.19-3h4.906l1.19 3H14L9.617 1H8zM8 2.496L9.686 7H6.314z" stroke="#fff" stroke-width="2" stroke-linejoin="round"/><path d="M6.383 1L2 12h2.357l1.19-3h4.906l1.19 3H14L9.617 1H8zM8 2.496L9.686 7H6.314z" fill="url(#c)"/><path d="M1 12v1h14v-1zm0 2v1h14v-1z" stroke="#fff" stroke-width="2" stroke-linejoin="round"/><path d="M1 12v1h14v-1H1zm0 2v1h14v-1H1z" fill="url(#d)"/></svg>