<svg viewBox="0 0 24 24" xmlns:xlink="http://www.w3.org/1999/xlink" xmlns="http://www.w3.org/2000/svg"><defs><linearGradient id="a"><stop style="stop-color:#4d4d4d;stop-opacity:1" offset="0"/><stop style="stop-color:#151515;stop-opacity:1" offset="1"/></linearGradient><linearGradient xlink:href="#a" id="b" x1="-3.581" y1="23.99" x2="12.419" y2="23.99" gradientUnits="userSpaceOnUse"/></defs><path style="opacity:.7;fill:#000;fill-opacity:1;fill-rule:evenodd;stroke-width:.75;stroke-linecap:square;stroke-linejoin:round" d="M4 2c-1.108 0-2 .892-2 2v18h20V4c0-1.108-.892-2-2-2Z"/><rect style="opacity:1;fill:#fff;fill-rule:evenodd;stroke-width:.75;stroke-linecap:square;stroke-linejoin:round" width="18" height="14" x="3" y="7" ry="0" rx="0"/><path style="opacity:1;fill:#fff;fill-opacity:1;fill-rule:evenodd;stroke-width:.75;stroke-linecap:square;stroke-linejoin:round" d="M4 3c-.554 0-1 .446-1 1v2h18V4c0-.554-.446-1-1-1Z"/><path d="M18 4h1v1h-1zM16 4h1v1h-1zM14 4h1v1h-1z" style="fill:#232629;fill-opacity:1;stroke-width:2"/><path style="fill:#c88800;fill-opacity:1;fill-rule:evenodd;stroke:none;stroke-width:.75;stroke-linecap:square;stroke-linejoin:round;stroke-opacity:1" d="M7 7v14H3V7Z"/><path d="M16 13c3.866 0 7 2.79 7 5s-3.134 5-7 5-7-2.79-7-5 3.134-5 7-5z" style="opacity:.7;fill:#000;fill-opacity:1;stroke:#000;stroke-width:2;stroke-linecap:round;stroke-linejoin:round;stroke-miterlimit:4;stroke-dasharray:none;stroke-opacity:1"/><path style="opacity:1;fill:#fff;fill-opacity:1;stroke:none;stroke-width:2;stroke-linecap:round;stroke-linejoin:round;stroke-miterlimit:4;stroke-dasharray:none;stroke-opacity:1" d="M16 13c3.866 0 7 2.79 7 5s-3.134 5-7 5-7-2.79-7-5 3.134-5 7-5z"/><path d="M16 16a2 2 0 1 0 2 2 2 2 0 0 0 0-.588A1 1 0 0 1 17 18a1 1 0 0 1-1-1 1 1 0 0 1 .59-1 2 2 0 0 0-.59 0Z" style="fill:#232629"/><path style="opacity:1;fill:#232629;fill-opacity:1;stroke:none;stroke-width:2;stroke-linecap:round;stroke-linejoin:round;stroke-miterlimit:4;stroke-dasharray:none;stroke-opacity:1" d="M16 14a4 4 0 0 0-4 4 4 4 0 0 0 4 4 4 4 0 0 0 4-4 4 4 0 0 0-4-4Zm0 1a3 3 0 0 1 3 3 3 3 0 0 1-3 3 3 3 0 0 1-3-3 3 3 0 0 1 3-3Z"/><path style="opacity:1;fill:#000;fill-opacity:1;fill-rule:evenodd;stroke:#fff;stroke-width:2;stroke-linecap:butt;stroke-linejoin:round;stroke-miterlimit:4;stroke-dasharray:none;stroke-opacity:1" transform="rotate(-30)" d="M-3.581 23.49h16v1h-16z"/><path style="opacity:1;fill:url(#b);fill-opacity:1;fill-rule:evenodd;stroke:none;stroke-width:2;stroke-linecap:butt;stroke-linejoin:round;stroke-miterlimit:4;stroke-dasharray:none;stroke-opacity:1" transform="rotate(-30)" d="M-3.581 23.49h16v1h-16z"/></svg>