<svg xmlns="http://www.w3.org/2000/svg" viewBox="0 0 32 32"><path d="m29 16-5 4v-3h-5v-2h5v-3z" style="fill:#4B8501;fill-opacity:1;stroke:none;stroke-width:1px;stroke-linecap:butt;stroke-linejoin:miter;stroke-opacity:1"/><path style="opacity:1;fill:#fff;fill-opacity:1;stroke:none;stroke-width:2;stroke-linejoin:round;stroke-miterlimit:4;stroke-dasharray:none" transform="rotate(-90)" d="M-28 14h24v4h-24z"/><path d="M13 29h6V3h-6zm1-1v-4h4v4zm0-5v-4h4v4zm0-5v-4h4v4zm0-5V9h4v4zm0-5V4h4v4z" style="fill:#6d6d6d;fill-opacity:1"/><path style="opacity:1;fill:#fff;fill-opacity:1;stroke:none;stroke-width:2;stroke-linejoin:round;stroke-miterlimit:4;stroke-dasharray:none" transform="rotate(-90)" d="M-28 7h24v4h-24z"/><path style="fill:#6d6d6d;fill-opacity:1" d="M6 29h6V3H6zm1-1v-4h4v4zm0-5v-4h4v4zm0-5v-4h4v4zm0-5V9h4v4zm0-5V4h4v4z"/></svg>