<svg viewBox="0 0 32 32" xmlns="http://www.w3.org/2000/svg"><path style="font-style:normal;font-variant:normal;font-weight:400;font-stretch:normal;font-size:15px;line-height:125%;font-family:Ubuntu;-inkscape-font-specification:Ubuntu;text-align:center;letter-spacing:0;word-spacing:0;writing-mode:lr-tb;text-anchor:middle;display:inline;opacity:.7;fill:#000;fill-opacity:1;stroke:none;stroke-width:.999802" d="M5.994 2c-1.258.015-2.179-.03-2.931.385a1.88 1.88 0 0 0-.838.998C2.06 3.82 2 4.343 2 5v13c0 .658.06 1.179.225 1.617.164.439.461.789.838.996.752.415 1.673.372 2.931.387h12.012c1.258-.015 2.179.03 2.932-.385a1.88 1.88 0 0 0 .837-.998c.165-.438.225-.96.225-1.617V5c0-.658-.06-1.179-.225-1.617a1.875 1.875 0 0 0-.837-.996c-.753-.415-1.674-.372-2.932-.387H5.998z"/><path style="opacity:1;vector-effect:none;fill:#fff;fill-opacity:1;stroke:none;stroke-width:1;stroke-linecap:round;stroke-linejoin:bevel;stroke-miterlimit:4;stroke-dasharray:none;stroke-dashoffset:0;stroke-opacity:1" d="M8.983 3.027c-1.556.011-3.11-.012-4.66.039-.46.043-1.016.206-1.155.71-.219.635-.108 1.334-.146 1.982-.008 2.297-.023 10.596.022 12.885.039.462.202 1.013.699 1.164.632.225 1.284.122 1.936.154 1.424.007 6.85.011 8.276.011 1.704 0 3.408-.005 5.107-.018.512-.012 1.184.02 1.585-.405.421-.54.287-1.268.323-1.904.012-2.444.027-10.91-.022-13.356-.05-.402-.17-.863-.575-1.045-.669-.294-1.427-.168-2.126-.205-1.755-.012-7.51-.013-9.264-.012z"/><path style="font-style:normal;font-variant:normal;font-weight:400;font-stretch:normal;font-size:15px;line-height:125%;font-family:Ubuntu;-inkscape-font-specification:Ubuntu;text-align:center;letter-spacing:0;word-spacing:0;writing-mode:lr-tb;text-anchor:middle;display:inline;opacity:.7;fill:#000;fill-opacity:1;stroke:none;stroke-width:.999802" d="M13.994 9.99c-1.258.014-2.179-.031-2.931.384a1.88 1.88 0 0 0-.838.998c-.165.439-.225.96-.225 1.618v13c0 .657.06 1.178.225 1.617.164.438.461.788.837.996.753.415 1.674.371 2.932.387h12.012c1.258-.015 2.179.03 2.932-.385a1.88 1.88 0 0 0 .837-.998c.165-.439.225-.96.225-1.617v-13c0-.658-.06-1.179-.225-1.618a1.875 1.875 0 0 0-.837-.996c-.753-.415-1.674-.371-2.932-.386H13.998z"/><path style="opacity:1;vector-effect:none;fill:#fff;fill-opacity:1;stroke:none;stroke-width:1;stroke-linecap:round;stroke-linejoin:bevel;stroke-miterlimit:4;stroke-dasharray:none;stroke-dashoffset:0;stroke-opacity:1" d="M16.983 11.017c-1.556.01-3.11-.012-4.66.038-.46.043-1.016.207-1.155.71-.219.636-.108 1.334-.146 1.982-.008 2.297-.023 10.596.022 12.886.039.462.202 1.012.699 1.163.632.225 1.284.123 1.936.155 1.424.006 6.85.01 8.276.01 1.704.001 3.408-.004 5.107-.018.512-.012 1.184.02 1.585-.405.421-.54.287-1.268.323-1.904.012-2.444.027-10.91-.022-13.356-.05-.402-.17-.863-.575-1.044-.669-.294-1.427-.168-2.126-.206-1.755-.012-7.51-.012-9.264-.011z"/><path style="fill:#4B8501;fill-rule:evenodd;stroke:none;stroke-width:2;stroke-linecap:square;stroke-linejoin:round" d="M10 22.01h1V26h-1zM10 20.01h1v1h-1z" transform="translate(3 -.01)"/><path style="fill:#4B8501;fill-rule:evenodd;stroke:none;stroke-width:2;stroke-linecap:square;stroke-linejoin:round" d="M16 21.99h11v1H16zM16 23.99h7v1h-7z"/><path style="fill:#4B8501;fill-rule:evenodd;stroke:none;stroke-width:2;stroke-linecap:square;stroke-linejoin:round" d="M10 22.01h1V26h-1zM10 20.01h1v1h-1z" transform="translate(-5 -15.01)"/><path style="fill:#232629;fill-opacity:1;fill-rule:evenodd;stroke:none;stroke-width:2;stroke-linecap:square;stroke-linejoin:round" d="M8 6h11v1H8zM8 8h7v1H8z"/></svg>