<svg xmlns="http://www.w3.org/2000/svg" viewBox="0 0 32 32"><path d="M6.994 4c-1.258.014-2.179-.031-2.932.384a1.88 1.88 0 0 0-.837.998C3.06 5.822 3 6.342 3 7v18c0 .658.06 1.179.225 1.618.164.438.461.788.837.996.753.415 1.674.371 2.932.386h18.012c1.258-.014 2.179.031 2.932-.384a1.88 1.88 0 0 0 .837-.998c.165-.44.225-.96.225-1.618V7c0-.658-.06-1.179-.225-1.618a1.875 1.875 0 0 0-.837-.996c-.753-.415-1.674-.371-2.932-.386H6.998z" style="font-style:normal;font-variant:normal;font-weight:400;font-stretch:normal;font-size:15px;line-height:125%;font-family:Ubuntu;-inkscape-font-specification:Ubuntu;text-align:center;letter-spacing:0;word-spacing:0;writing-mode:lr-tb;text-anchor:middle;display:inline;opacity:.7;fill:#000;fill-opacity:1;stroke:none;stroke-width:.99980211"/><path d="M11.983 5.027c-1.556.01-5.11-.012-6.66.039-.46.042-1.016.206-1.155.71-.219.635-.108 1.333-.146 1.981-.008 2.297-.023 15.597.022 17.886.039.462.202 1.013.699 1.164.632.225 1.284.123 1.936.154 1.424.007 4.85.011 6.276.012 1.704 0 11.408-.005 13.107-.019.512-.012 1.184.02 1.585-.405.421-.54.287-1.268.323-1.904.011-2.444.027-15.911-.022-18.357-.05-.402-.17-.863-.575-1.044-.669-.294-1.427-.168-2.126-.206-1.755-.012-11.51-.012-13.264-.011z" style="opacity:1;vector-effect:none;fill:#d85eca;fill-opacity:1;stroke:none;stroke-width:1;stroke-linecap:round;stroke-linejoin:bevel;stroke-miterlimit:4;stroke-dasharray:none;stroke-dashoffset:0;stroke-opacity:1"/><path style="color:#000;display:inline;overflow:visible;visibility:visible;opacity:1;fill:#fff;fill-opacity:1;fill-rule:nonzero;stroke:none;stroke-width:18.28524208;marker:none;enable-background:accumulate" d="m11.994 13-5 10h18l-6-7-3 3z"/><path style="opacity:1;vector-effect:none;fill:#fff;fill-opacity:1;stroke:none;stroke-width:4.02895594;stroke-linecap:round;stroke-linejoin:bevel;stroke-miterlimit:4;stroke-dasharray:none;stroke-dashoffset:0;stroke-opacity:1" d="M24.02 10.883a2.014 2.014 0 0 1-1.91 2.114 2.014 2.014 0 0 1-2.113-1.91 2.014 2.014 0 0 1 1.909-2.114 2.014 2.014 0 0 1 2.114 1.909"/></svg>