<svg xmlns="http://www.w3.org/2000/svg" height="32" width="32"><path d="M2 6.996c0-2 1-2 3.001-2h22c1.998 0 2.999 0 2.999 2v18.008c0 2-1 2-3 2H5.002c-1.998 0-3 0-3-2z" opacity=".7" stroke="#000" stroke-width="2"/><path d="M2 6.996c0-2 1-2 3.001-2h22c1.998 0 2.999 0 2.999 2v18.008c0 2-1 2-3 2H5.002c-1.998 0-3 0-3-2z" fill="#fff"/><g fill="#77216F"><circle cx="16" cy="16" r="2"/><path d="M16 6a6 10 0 00-6 10 6 10 0 006 10 6 10 0 006-10 6 10 0 00-6-10zm0 1a5 9 0 015 9 5 9 0 01-5 9 5 9 0 01-5-9 5 9 0 015-9z"/><path d="M16 10a12 6 0 00-12 6 12 6 0 0012 6 12 6 0 0012-6 12 6 0 00-12-6zm0 1a11 5 0 0111 5 11 5 0 01-11 5 11 5 0 01-11-5 11 5 0 0111-5z"/><path d="M12.464 12.464a5 12 45 00-4.95 12.021 5 12 45 0012.022-4.95 5 12 45 004.95-12.02 5 12 45 00-12.022 4.95zm.708.708a4 11 45 0110.606-4.95 4 11 45 01-4.95 10.606 4 11 45 01-10.606 4.95 4 11 45 014.95-10.606z"/><path d="M18.828 13.172A12 4 45 007.515 7.515a12 4 45 005.657 11.313 12 4 45 0011.313 5.657 12 4 45 00-5.657-11.313zm-.707.707a11 3 45 015.657 9.9 11 3 45 01-9.9-5.658 11 3 45 01-5.656-9.9 11 3 45 019.9 5.658z"/></g></svg>