<svg xmlns="http://www.w3.org/2000/svg" viewBox="0 0 24 24"><path style="fill:#000;stroke:#000;opacity:.7;stroke-width:2;stroke-miterlimit:4;stroke-dasharray:none;stroke-linejoin:round" d="M6 4a2 2 0 1 0 0 4 2 2 0 0 0 1.729-1H17a2 2 0 0 1 0 4H7a3 3 0 0 0 0 6h10v-1H7a2 2 0 0 1 0-4h10a3 3 0 0 0 0-6H8a2 2 0 0 0-2-2Zm0 1a1 1 0 1 1 0 2 1 1 0 0 1 0-2Z"/><path d="M6 4a2 2 0 1 0 0 4 2 2 0 0 0 1.729-1H17a2 2 0 0 1 0 4H7a3 3 0 0 0 0 6h10v-1H7a2 2 0 0 1 0-4h10a3 3 0 0 0 0-6H8a2 2 0 0 0-2-2Zm0 1a1 1 0 1 1 0 2 1 1 0 0 1 0-2Z" style="fill:#fff"/></svg>