<svg viewBox="0 0 24 24" xmlns="http://www.w3.org/2000/svg"><path style="fill:#e95420;fill-opacity:1" d="M13 14v3h3v-3Zm-6-3v3h3v-3zm6-3v3h3V8ZM7 5v3h3V5Z"/><path style="fill:#77216f;fill-opacity:1" d="M4 17v3h3v-3zm9-3h-3v3h3zm0-3v3h3v-3ZM7 8v3h3V8ZM4 5v3h3V5Z"/><path style="fill:#2ecc71;fill-opacity:1" d="M10 17v3h3v-3zm6-3v3h3v-3ZM4 11v3h3v-3Zm12-3v3h3V8Zm-6-3v3h3V5Z"/><path style="fill:#c7162b;fill-opacity:1" d="M16 17v3h3v-3Zm-6-3H7v3h3zm0-3v3h3v-3ZM4 8v3h3V8Zm9-3v3h3V5Z"/><path style="fill:#fdbc4b;fill-opacity:1" d="M13 17v3h3v-3zm-6 0v3h3v-3Zm-3-3v3h3v-3zm12-3v3h3v-3Zm-6-3v3h3V8Zm6-3v3h3V5Z"/></svg>