<svg xmlns="http://www.w3.org/2000/svg" xmlns:xlink="http://www.w3.org/1999/xlink" width="24" height="24"><defs><linearGradient id="a"><stop style="stop-color:#151515;stop-opacity:1" offset="0"/><stop style="stop-color:#4d4d4d;stop-opacity:1" offset="1"/></linearGradient><linearGradient xlink:href="#a" id="b" x1="16" y1="4" x2="16" y2="20" gradientUnits="userSpaceOnUse"/></defs><path style="opacity:1;fill:#000;fill-rule:evenodd;stroke:#fff;stroke-width:2;stroke-linejoin:round" d="M16 4c-2.761 0-5 2.462-5 5.5 0 .167.007.334.021.5H11v5h.021c.235 2.832 2.394 5 4.979 5s4.744-2.168 4.979-5H21v-5h-.021c.014-.166.02-.333.021-.5C21 6.462 18.761 4 16 4Zm0 3c1.105 0 2 1.343 2 3v4c0 1.657-.895 3-2 3s-2-1.343-2-3v-4c0-1.657.895-3 2-3z"/><path d="M2 15h6v2H2Z" style="fill:#c7162b;stroke-width:1.54919"/><path d="M4 7v2H2v2h2v2h2v-2h2V9H6V7Z" style="fill:#0e8420"/><path style="opacity:1;fill:url(#b);fill-rule:evenodd;stroke:none;stroke-width:1.82574;stroke-linejoin:round;fill-opacity:1" d="M16 4c-2.761 0-5 2.462-5 5.5 0 .167.007.334.021.5H11v5h.021c.235 2.832 2.394 5 4.979 5s4.744-2.168 4.979-5H21v-5h-.021c.014-.166.02-.333.021-.5C21 6.462 18.761 4 16 4Zm0 3c1.105 0 2 1.343 2 3v4c0 1.657-.895 3-2 3s-2-1.343-2-3v-4c0-1.657.895-3 2-3z"/></svg>