<svg xmlns="http://www.w3.org/2000/svg" viewBox="0 0 24 24"><path style="fill:#000;stroke:#000;opacity:.7;stroke-width:2;stroke-miterlimit:4;stroke-dasharray:none;stroke-linejoin:round" fill="#232629" d="m12 4-1.031 4.125L8 5.062l1.156 4.094L5.062 8l3.063 2.969L4 12l4.125 1.031L5.062 16l4.094-1.156L8 18.938l2.969-3.063L11 16v-3l1-1h8l-4.125-1.031L18.938 8l-4.094 1.156L16 5.062l-2.969 3.063zm1.295 9-1.596.49v.711l.008.485 1.307-.393.004 5.707h1.177s-.04-4.707.004-7zm4.527 0c-.247 0-.52.038-.818.115a6.637 6.637 0 0 0-.975.354v1.052c.338-.205.705-.32 1-.421.298-.101.53-.114.797-.114.377 0 .607.04.84.27.236.23.342.388.342.754 0 .224-.08.413-.19.646-.107.23-.207.363-.48.698-.22.24-.534.638-1.094 1.255-.557.614-.909 1.04-1.232 1.405L16 20h4v-1.037l-2.76.039c.687-.764 1.004-1.143 1.381-1.566.377-.427.6-.685.67-.774.256-.344.432-.643.527-.894a2.22 2.22 0 0 0 .149-.807c0-.596-.194-1.07-.582-1.426S18.475 13 17.822 13z"/><path d="m12 4-1.031 4.125L8 5.062l1.156 4.094L5.062 8l3.063 2.969L4 12l4.125 1.031L5.062 16l4.094-1.156L8 18.938l2.969-3.063L11 16v-3l1-1h8l-4.125-1.031L18.938 8l-4.094 1.156L16 5.062l-2.969 3.063zm1.295 9-1.596.49v.711l.008.485 1.307-.393.004 5.707h1.177s-.04-4.707.004-7zm4.527 0c-.247 0-.52.038-.818.115a6.637 6.637 0 0 0-.975.354v1.052c.338-.205.705-.32 1-.421.298-.101.53-.114.797-.114.377 0 .607.04.84.27.236.23.342.388.342.754 0 .224-.08.413-.19.646-.107.23-.207.363-.48.698-.22.24-.534.638-1.094 1.255-.557.614-.909 1.04-1.232 1.405L16 20h4v-1.037l-2.76.039c.687-.764 1.004-1.143 1.381-1.566.377-.427.6-.685.67-.774.256-.344.432-.643.527-.894a2.22 2.22 0 0 0 .149-.807c0-.596-.194-1.07-.582-1.426S18.475 13 17.822 13z" fill="#232629" style="fill:#fff"/></svg>