<svg xmlns="http://www.w3.org/2000/svg" viewBox="0 0 24 24"><path style="fill:#f2cbf8;fill-opacity:1" d="M12 4c-4.418 0-8 .895-8 2v12c0 1.105 3.582 2 8 2s8-.895 8-2V6c0-1.105-3.582-2-8-2z"/><path d="M12 4c-4.418 0-8 .895-8 2v12c0 1.105 3.582 2 8 2s8-.895 8-2V6c0-1.105-3.582-2-8-2zm0 1c3.866 0 7 .448 7 1s-3.134 1-7 1-7-.448-7-1 3.134-1 7-1zM5 6.938C6.353 7.561 8.958 8 12 8s5.647-.438 7-1.063V10c0 .552-3.134 1-7 1s-7-.448-7-1v-.938Zm0 4C6.353 11.562 8.958 12 12 12s5.647-.438 7-1.063V14c0 .552-3.134 1-7 1s-7-.448-7-1zm0 4C6.353 15.562 8.958 16 12 16s5.647-.438 7-1.063V18c0 .552-3.134 1-7 1s-7-.448-7-1z" style="fill:#8e03a3;fill-opacity:1"/><path style="opacity:1;fill:#fff;fill-opacity:1;stroke:#fff;stroke-width:2;stroke-linejoin:round;stroke-miterlimit:4;stroke-dasharray:none" d="M15 13v10l3.2-4H23Z"/><path d="M15 13v10l3.2-4H23Z" style="fill:#232629;fill-opacity:1"/></svg>