<svg xmlns="http://www.w3.org/2000/svg" viewBox="0 0 24 24"><path style="opacity:.7;fill:#000;fill-opacity:1;stroke:#000;stroke-width:2;stroke-linejoin:round;stroke-miterlimit:4;stroke-dasharray:none" d="M11 7v9H3V7Z"/><path d="M11 7v9H3V7Z" style="fill:#d85eca;fill-opacity:1;stroke-width:.8"/><path style="fill:#232629;fill-opacity:1;fill-rule:evenodd;stroke-width:2;stroke-linecap:round;stroke-linejoin:round" transform="scale(-1 1)" d="M-22 4h20v1h-20z"/><path style="fill:#fff;fill-opacity:1;fill-rule:evenodd;stroke-width:2;stroke-linecap:round;stroke-linejoin:round" transform="scale(-1 1)" d="M-21 5h18v1h-18z"/><path style="fill:#232629;fill-opacity:1;fill-rule:evenodd;stroke-width:2;stroke-linecap:round;stroke-linejoin:round" transform="scale(-1)" d="M-22-19h20v1h-20z"/><path style="fill:#fff;fill-opacity:1;fill-rule:evenodd;stroke-width:2;stroke-linecap:round;stroke-linejoin:round" transform="scale(-1)" d="M-21-18h18v1h-18z"/><path style="fill:#232629;fill-opacity:1;fill-rule:evenodd;stroke:none;stroke-width:2;stroke-linecap:round;stroke-linejoin:round" d="M22 6v1h-9V6h4.5zM22 8v1h-9V8h4.5zM22 10v1h-9v-1h4.5zM22 12v1h-9v-1h4.5zM22 14v1h-9v-1h4.5zM22 16v1h-9v-1h4.5z"/><path style="fill:#fff;fill-opacity:1;fill-rule:evenodd;stroke:none;stroke-width:2;stroke-linecap:round;stroke-linejoin:round" d="M21 7v1h-9V7h4.5zM21 9v1h-9V9h4.5zM21 11v1h-9v-1h4.5zM21 13v1h-9v-1h4.5zM21 15v1h-9v-1h4.5z"/><path style="fill:#232629;fill-opacity:1;fill-rule:evenodd;stroke-width:2;stroke-linecap:round;stroke-linejoin:round" transform="scale(-1 1)" d="M-22 2h20v1h-20z"/><path style="fill:#fff;fill-opacity:1;fill-rule:evenodd;stroke-width:2;stroke-linecap:round;stroke-linejoin:round" transform="scale(-1 1)" d="M-21 3h18v1h-18z"/><path style="fill:#232629;fill-opacity:1;fill-rule:evenodd;stroke-width:2;stroke-linecap:round;stroke-linejoin:round" transform="scale(-1)" d="M-22-21h20v1h-20z"/><path style="fill:#fff;fill-opacity:1;fill-rule:evenodd;stroke-width:2;stroke-linecap:round;stroke-linejoin:round" transform="scale(-1)" d="M-21-20h18v1h-18z"/></svg>