<svg xmlns="http://www.w3.org/2000/svg" viewBox="0 0 16 16"><path style="font-style:normal;font-variant:normal;font-weight:400;font-stretch:normal;font-size:15px;line-height:125%;font-family:Ubuntu;-inkscape-font-specification:Ubuntu;text-align:center;letter-spacing:0;word-spacing:0;writing-mode:lr-tb;text-anchor:middle;display:inline;opacity:1;fill:#6d6d6d;fill-opacity:1;stroke:none;stroke-width:.999802" d="M4.994 1c-1.258.015-2.179-.03-2.931.385-.377.207-.674.56-.838.998C1.06 2.82 1 3.343 1 4v8c0 .658.06 1.179.225 1.617.164.439.461.789.838.996.752.415 1.673.372 2.931.387h6.012c1.258-.015 2.179.03 2.931-.385.377-.207.674-.56.838-.998C14.94 13.178 15 13 15 12V4c0-.658-.06-1.179-.225-1.617a1.875 1.875 0 0 0-.838-.996c-.752-.415-1.673-.372-2.931-.387H11v1h-1V1H6v1H5V1h-.002z"/><path style="fill:#fff;fill-rule:evenodd;stroke:none;stroke-width:4;stroke-linecap:round;stroke-linejoin:round" d="M2 7c0-2 1-2 2-2h8c2 0 2 1 2 2v5c0 2-1 2-2 2H4c-2 0-2-1-2-2Z"/><path style="fill:#6d6d6d;fill-opacity:1;fill-rule:evenodd;stroke:none;stroke-width:4;stroke-linecap:round;stroke-linejoin:round" d="M5 0h1v1H5zM10 0h1v1h-1z"/><path style="opacity:1;fill:#46a926;fill-opacity:1;stroke:none;stroke-width:2;stroke-linejoin:round;stroke-miterlimit:4;stroke-dasharray:none;stroke-opacity:1" d="M4 7h2v2H4zM7 7h2v2H7z"/><path style="opacity:1;fill:#f22c42;fill-opacity:1;stroke:none;stroke-width:2;stroke-linejoin:round;stroke-miterlimit:4;stroke-dasharray:none;stroke-opacity:1" d="M10 7h2v2h-2z"/><path style="opacity:1;fill:#46a926;fill-opacity:1;stroke:none;stroke-width:2;stroke-linejoin:round;stroke-miterlimit:4;stroke-dasharray:none;stroke-opacity:1" d="M7 10.254h2v2H7z"/><path style="opacity:1;fill:#f22c42;fill-opacity:1;stroke:none;stroke-width:2;stroke-linejoin:round;stroke-miterlimit:4;stroke-dasharray:none;stroke-opacity:1" d="M10 10.254h2v2h-2z"/></svg>