<svg viewBox="0 0 16 16" xmlns="http://www.w3.org/2000/svg"><path style="fill:#6f8396" d="M7 8v3h5V8Z"/><path d="M5.01 1c-1.257.014-2.178-.03-2.93.385a1.88 1.88 0 0 0-.839.998c-.164.438-.224.96-.224 1.617V11c0 .657.06 1.178.224 1.617.165.438.462.788.838.996.753.415 1.674.372 2.932.387h6.012c1.258-.015 2.178.03 2.931-.385a1.88 1.88 0 0 0 .838-.998c.165-.439.225-.96.225-1.617V4c0-.658-.06-1.179-.225-1.617a1.875 1.875 0 0 0-.838-.996C13.201.97 12.281 1.015 11.022 1H5.015z" style="font-style:normal;font-variant:normal;font-weight:400;font-stretch:normal;font-size:15px;line-height:125%;font-family:Ubuntu;-inkscape-font-specification:Ubuntu;text-align:center;letter-spacing:0;word-spacing:0;writing-mode:lr-tb;text-anchor:middle;display:inline;opacity:.7;fill:#000;fill-opacity:1;stroke:none;stroke-width:.99980211"/><path d="M5 2c-1.557.01-.11-.012-1.66.039-.46.042-1.016.206-1.155.71-.219.635-.108 1.334-.146 1.982-.008 2.297-.023 4.596.022 6.886.039.462.202 1.012.699 1.163.632.225 1.284.123 1.936.155 1.424.006-.15.01 1.276.01 1.704.001 4.408-.004 6.107-.018.512-.012 1.184.02 1.585-.405.42-.54.287-1.268.323-1.904.011-2.444.027-4.91-.022-7.357-.05-.402-.17-.863-.575-1.044-.669-.294-1.427-.168-2.126-.206C9.509 2 6.754 2 5 2Z" style="opacity:1;vector-effect:none;fill:#fff;fill-opacity:1;stroke:none;stroke-width:1;stroke-linecap:round;stroke-linejoin:bevel;stroke-miterlimit:4;stroke-dasharray:none;stroke-dashoffset:0;stroke-opacity:1"/><path style="opacity:1;fill:#232629;fill-opacity:1;stroke:none;stroke-width:1.87083;stroke-linecap:round;stroke-linejoin:round;stroke-miterlimit:4;stroke-dasharray:none;stroke-opacity:1" d="M6 10h5v1H6z"/><path style="opacity:1;fill:#232629;fill-opacity:1;stroke:none;stroke-width:1.87082875;stroke-linecap:round;stroke-linejoin:round;stroke-miterlimit:4;stroke-dasharray:none;stroke-opacity:1" d="M6 8h7v1H6z"/><circle style="opacity:1;fill:#232629;fill-opacity:1;stroke:none;stroke-width:4;stroke-linecap:round;stroke-linejoin:round;stroke-miterlimit:4;stroke-dasharray:none;stroke-opacity:1" cx="4" cy="9" r="1"/><g style="fill:#232629;fill-opacity:1"><path style="opacity:1;fill:#232629;fill-opacity:1;stroke:none;stroke-width:1.87082875;stroke-linecap:round;stroke-linejoin:round;stroke-miterlimit:4;stroke-dasharray:none;stroke-opacity:1" d="M6 4h7v1H6z"/><circle r="1" cy="5" cx="4" style="opacity:1;fill:#232629;fill-opacity:1;stroke:none;stroke-width:4;stroke-linecap:round;stroke-linejoin:round;stroke-miterlimit:4;stroke-dasharray:none;stroke-opacity:1"/><path style="opacity:1;fill:#232629;fill-opacity:1;stroke:none;stroke-width:1.87083;stroke-linecap:round;stroke-linejoin:round;stroke-miterlimit:4;stroke-dasharray:none;stroke-opacity:1" d="M6 6h5v1H6z"/></g><g style="display:inline;stroke-width:27.2;enable-background:new"><path style="fill:#fec589;fill-opacity:1;stroke:none;stroke-width:27.2" d="m688 319.356-32 81.137-32-81.137v-11.064h64z" transform="matrix(.03808 .02199 -.02385 .0413 -7.43 -14.963)"/><path style="color:#000;display:inline;overflow:visible;visibility:visible;fill:#5d5d5d;fill-opacity:1;fill-rule:nonzero;stroke:none;stroke-width:27.2;marker:none;enable-background:accumulate" d="M645.813 374.677 656 400.493l10.188-25.816c.01.175-20.375 0-20.375 0z" transform="matrix(.03808 .02199 -.02385 .0413 -7.43 -14.963)"/><path style="fill:#2f5fdd;fill-opacity:1;stroke:none;stroke-width:27.2" d="M624 319.356s65.02 1.586 64 0V127.9h-64z" transform="matrix(.03808 .02199 -.02385 .0413 -7.43 -14.963)"/></g></svg>