<svg viewBox="0 0 16 16" xmlns="http://www.w3.org/2000/svg"><path style="opacity:.7;fill:#000;stroke:#000;stroke-width:2;stroke-linejoin:round;stroke-miterlimit:4;stroke-dasharray:none" d="M2 11.005v-8c0-2 1-2 3-2h4l3 3v7c0 2-1 2-3 2H5c-2 0-3 0-3-2z"/><path d="M2 11.005v-8c0-2 1-2 3-2h4l3 3v7c0 2-1 2-3 2H5c-2 0-3 0-3-2z" style="fill:#fff"/><path d="M9 4.005v-3l3 3z" style="fill:#6d6d6d;fill-opacity:1"/><path style="fill:#6d6d6d;fill-opacity:1;fill-rule:evenodd;stroke:none;stroke-width:1.6;stroke-linecap:square;stroke-linejoin:round" d="M3 3.005h1v1H3zM0 3.005h2v1H0zM3 5.005h1v1H3zM0 5.005h2v1H0zM3 7.005h1v1H3zM0 7.005h2v1H0zM3 9.005h1v1H3zM0 9.005h2v1H0zM3 11.005h1v1H3zM0 11.005h2v1H0z"/><path d="M5 9.006c0-.592.062-1.006.16-1.266s.203-.371.387-.472c.365-.203 1.183-.262 2.457-.262h.534L10.762 9h1.233c1.263.015 2.09.06 2.459.262.183.1.288.212.385.472.098.26.162.674.162 1.266v2.006c0 .592-.063 1.006-.16 1.266-.098.26-.202.37-.386.472-.366.202-1.193.247-2.452.262H7.998c-1.26-.015-2.086-.06-2.451-.262-.184-.1-.29-.212-.387-.472-.097-.26-.16-.674-.16-1.266v-1z" style="color:#000;font-weight:400;line-height:normal;font-family:sans-serif;font-variant-ligatures:none;font-variant-position:normal;font-variant-caps:normal;font-variant-numeric:normal;font-variant-alternates:normal;font-feature-settings:normal;text-indent:0;text-align:start;text-decoration:none;text-decoration-line:none;text-decoration-style:solid;text-decoration-color:#000;text-transform:none;white-space:normal;shape-padding:0;overflow:visible;opacity:.7;isolation:auto;mix-blend-mode:normal;fill:#000;fill-opacity:1;stroke:#000;stroke-width:2;stroke-miterlimit:4;stroke-dasharray:none;stroke-opacity:1;marker:none"/><path style="color:#000;font-weight:400;line-height:normal;font-family:sans-serif;font-variant-ligatures:none;font-variant-position:normal;font-variant-caps:normal;font-variant-numeric:normal;font-variant-alternates:normal;font-feature-settings:normal;text-indent:0;text-align:start;text-decoration:none;text-decoration-line:none;text-decoration-style:solid;text-decoration-color:#000;text-transform:none;white-space:normal;shape-padding:0;overflow:visible;isolation:auto;mix-blend-mode:normal;fill:#b3b3b3;fill-opacity:1;stroke-width:.999667;marker:none" d="M5 9.006c0-.592.062-1.006.16-1.266s.203-.371.387-.472c.365-.203 1.183-.262 2.457-.262h.534L10.762 9h1.233c1.263.015 2.09.06 2.459.262.183.1.288.212.385.472.098.26.162.674.162 1.266v2.006c0 .592-.063 1.006-.16 1.266-.098.26-.202.37-.386.472-.366.202-1.193.247-2.452.262H7.998c-1.26-.015-2.086-.06-2.451-.262-.184-.1-.29-.212-.387-.472-.097-.26-.16-.674-.16-1.266v-1z"/></svg>