<svg xmlns="http://www.w3.org/2000/svg" viewBox="0 0 16 16">/&gt;<path style="opacity:.7;vector-effect:none;fill:#000;fill-opacity:1;stroke:none;stroke-width:2;stroke-linecap:round;stroke-linejoin:round;stroke-miterlimit:4;stroke-dasharray:none;stroke-dashoffset:0;stroke-opacity:1" d="M5 0c-.554 0-1 .446-1 1H3c-1.108 0-2 .892-2 2v7c0 1.108.892 2 2 2h6c1.106 0 2-.89 2-2V3c0-1.108-.892-2-2-2H8c0-.554-.446-1-1-1z"/><rect style="opacity:1;vector-effect:none;fill:#ccc;fill-opacity:1;stroke:none;stroke-width:2;stroke-linecap:round;stroke-linejoin:round;stroke-miterlimit:4;stroke-dasharray:none;stroke-dashoffset:0;stroke-opacity:1" width="8" height="9" x="2" y="2" ry="1" rx="1"/><path style="opacity:1;vector-effect:none;fill:#ccc;fill-opacity:1;stroke:none;stroke-width:2;stroke-linecap:round;stroke-linejoin:round;stroke-miterlimit:4;stroke-dasharray:none;stroke-dashoffset:0;stroke-opacity:1" d="M5 1h2v2H5z"/><path style="opacity:1;vector-effect:none;fill:#fff;fill-opacity:1;stroke:none;stroke-width:2;stroke-linecap:round;stroke-linejoin:round;stroke-miterlimit:4;stroke-dasharray:none;stroke-dashoffset:0;stroke-opacity:1" d="M4 2h4v1H4zM5 1h2v1H5z"/><rect style="opacity:.2;vector-effect:none;fill:#000;fill-opacity:1;stroke:none;stroke-width:2;stroke-linecap:round;stroke-linejoin:round;stroke-miterlimit:4;stroke-dasharray:none;stroke-dashoffset:0;stroke-opacity:1" width="10" height="11" x="5" y="4" ry="2" rx="2"/><rect style="opacity:.7;vector-effect:none;fill:#000;fill-opacity:1;stroke:none;stroke-width:2;stroke-linecap:round;stroke-linejoin:round;stroke-miterlimit:4;stroke-dasharray:none;stroke-dashoffset:0;stroke-opacity:1" width="10" height="11" x="5" y="4" ry="2" rx="2"/><rect style="opacity:1;vector-effect:none;fill:#fff;fill-opacity:1;stroke:none;stroke-width:2;stroke-linecap:round;stroke-linejoin:round;stroke-miterlimit:4;stroke-dasharray:none;stroke-dashoffset:0;stroke-opacity:1" width="8" height="9" x="6" y="5" ry="1" rx="1"/><path style="opacity:1;vector-effect:none;fill:#a7a7f1;fill-opacity:1;stroke:none;stroke-width:2.19089;stroke-linecap:round;stroke-linejoin:round;stroke-miterlimit:4;stroke-dasharray:none;stroke-dashoffset:0;stroke-opacity:1" d="M7 7h6v1H7zM7 9h6v1H7z"/><path style="opacity:1;vector-effect:none;fill:#a7a7f1;fill-opacity:1;stroke:none;stroke-width:2.44949;stroke-linecap:round;stroke-linejoin:round;stroke-miterlimit:4;stroke-dasharray:none;stroke-dashoffset:0;stroke-opacity:1" d="M7 11h3v1H7z"/></svg>