<svg viewBox="0 0 16 16" xmlns="http://www.w3.org/2000/svg"><path style="color:#000;fill:#fff;stroke-width:1px;stroke-linejoin:round;-inkscape-stroke:none" d="M8 8.559 3.117 11 8 13.441 12.883 11 8 8.559z"/><path style="color:#000;fill:#000;stroke-linejoin:round;-inkscape-stroke:none;opacity:.7" d="m7.777 7.553-6 3a.5.5 0 0 0 0 .894l6 3a.5.5 0 0 0 .446 0l6-3a.5.5 0 0 0 0-.894l-6-3a.5.5 0 0 0-.446 0zM8 8.559 12.883 11 8 13.441 3.117 11z"/><path style="color:#000;fill:#fff;stroke-width:1px;stroke-linejoin:round;-inkscape-stroke:none" d="M8 5.559 3.117 8 8 10.441 12.883 8 8 5.559z"/><path style="color:#000;fill:#000;stroke-linejoin:round;-inkscape-stroke:none;opacity:.7" d="m7.777 4.553-6 3a.5.5 0 0 0 0 .894l6 3a.5.5 0 0 0 .446 0l6-3a.5.5 0 0 0 0-.894l-6-3a.5.5 0 0 0-.446 0zM8 5.559 12.883 8 8 10.441 3.117 8z"/><path style="color:#000;fill:#fff;stroke-width:1px;stroke-linejoin:round;-inkscape-stroke:none" d="M8 2.559 3.117 5 8 7.441 12.883 5 8 2.559z"/><path style="color:#000;fill:#000;stroke-linejoin:round;-inkscape-stroke:none;opacity:.7" d="m7.777 1.553-6 3a.5.5 0 0 0 0 .894l6 3a.5.5 0 0 0 .446 0l6-3a.5.5 0 0 0 0-.894l-6-3a.5.5 0 0 0-.446 0zM8 2.559 12.883 5 8 7.441 3.117 5z"/></svg>