<svg xmlns="http://www.w3.org/2000/svg" xmlns:xlink="http://www.w3.org/1999/xlink" width="16" height="16" viewBox="0 0 4.233 4.233"><defs><linearGradient xlink:href="#a" id="b" x1="8" y1="2" x2="8" y2="13.5" gradientUnits="userSpaceOnUse" gradientTransform="translate(-1.09 -1)"/><linearGradient id="a"><stop style="stop-color:#151515;stop-opacity:1" offset="0"/><stop style="stop-color:#4d4d4d;stop-opacity:1" offset="1"/></linearGradient></defs><path style="color:#000;font-style:normal;font-variant:normal;font-weight:400;font-stretch:normal;font-size:medium;line-height:normal;font-family:sans-serif;font-variant-ligatures:normal;font-variant-position:normal;font-variant-caps:normal;font-variant-numeric:normal;font-variant-alternates:normal;font-variant-east-asian:normal;font-feature-settings:normal;font-variation-settings:normal;text-indent:0;text-align:start;text-decoration:none;text-decoration-line:none;text-decoration-style:solid;text-decoration-color:#000;letter-spacing:normal;word-spacing:normal;text-transform:none;writing-mode:lr-tb;direction:ltr;text-orientation:mixed;dominant-baseline:auto;baseline-shift:baseline;text-anchor:start;white-space:normal;shape-padding:0;shape-margin:0;inline-size:0;clip-rule:nonzero;display:inline;overflow:visible;visibility:visible;opacity:1;isolation:auto;mix-blend-mode:normal;color-interpolation:sRGB;color-interpolation-filters:linearRGB;solid-color:#000;solid-opacity:1;vector-effect:none;fill:#fff;fill-opacity:1;fill-rule:nonzero;stroke:none;stroke-width:2;stroke-linecap:butt;stroke-linejoin:round;stroke-miterlimit:4;stroke-dasharray:none;stroke-dashoffset:0;stroke-opacity:1;color-rendering:auto;image-rendering:auto;shape-rendering:auto;text-rendering:auto;enable-background:accumulate;stop-color:#000;stop-opacity:1" d="M5.809.004a1 1 0 0 0-.907.582L.088 11.172a1 1 0 0 0 .496 1.322l1.822.834a1 1 0 0 0 1.323-.502l.064-.142a1.425 1.425 0 0 1-.05-1.99l1.43-1.522c.529-.556 1.446-.568 1.995-.045h.008l.916.871h.715l.318.701 2.969-3.127L8.918.586A1 1 0 0 0 8.01.004H5.809zm.65 1.992h.908L7.818 3a1 1 0 0 0-1.802-.03l.443-.974zm.451 3.84.072.162h-.146l.074-.162zm-2.547.773a1 1 0 0 0 .885 1.389h-.879a1 1 0 0 0-.883.547l.877-1.936zm5.11.032.884 1.947a1 1 0 0 0-.908-.59h-.908a1 1 0 0 0 .932-1.357z" transform="scale(.26458)"/><path style="color:#000;font-style:normal;font-variant:normal;font-weight:400;font-stretch:normal;font-size:medium;line-height:normal;font-family:sans-serif;font-variant-ligatures:normal;font-variant-position:normal;font-variant-caps:normal;font-variant-numeric:normal;font-variant-alternates:normal;font-variant-east-asian:normal;font-feature-settings:normal;font-variation-settings:normal;text-indent:0;text-align:start;text-decoration:none;text-decoration-line:none;text-decoration-style:solid;text-decoration-color:#000;letter-spacing:normal;word-spacing:normal;text-transform:none;writing-mode:lr-tb;direction:ltr;text-orientation:mixed;dominant-baseline:auto;baseline-shift:baseline;text-anchor:start;white-space:normal;shape-padding:0;shape-margin:0;inline-size:0;clip-rule:nonzero;display:inline;overflow:visible;visibility:visible;opacity:1;isolation:auto;mix-blend-mode:normal;color-interpolation:sRGB;color-interpolation-filters:linearRGB;solid-color:#000;solid-opacity:1;vector-effect:none;fill:url(#b);fill-opacity:1;fill-rule:nonzero;stroke:none;stroke-width:2;stroke-linecap:butt;stroke-linejoin:miter;stroke-miterlimit:4;stroke-dasharray:none;stroke-dashoffset:0;stroke-opacity:1;color-rendering:auto;image-rendering:auto;shape-rendering:auto;text-rendering:auto;enable-background:accumulate;stop-color:#000;stop-opacity:1" d="M5.813 1 1 11.586l1.82.828L4.373 9h1.002a1.438 1.438 0 0 1 1.627 0h2.445l.418.92 1.487-1.565L8.008 1H5.812zM6.91 3.416 8.54 7H5.28l1.63-3.584z" transform="scale(.26458)"/><path style="fill:#0e8420;fill-opacity:1;stroke:none;stroke-width:.182298;stroke-linecap:round;stroke-linejoin:round;stroke-opacity:1" d="M3.834 294.583a.109.109 0 0 0-.116.027l-1.331 1.401-.672-.638a.108.108 0 0 0-.154.003l-.379.402a.11.11 0 0 0 .004.154l1.069 1.038a.108.108 0 0 0 .154-.004l1.794-1.89a.109.109 0 0 0-.003-.154l-.329-.316a.098.098 0 0 0-.037-.023z" transform="translate(0 -292.767)"/></svg>