<svg xmlns="http://www.w3.org/2000/svg" viewBox="0 0 16 16"><path style="opacity:1;fill:#fff;fill-opacity:1;stroke:none;stroke-width:2;stroke-linecap:round;stroke-linejoin:round;stroke-miterlimit:4;stroke-dasharray:none;stroke-opacity:1" d="M2 2h12v12H2z"/><path d="M1 3v10c0 2 1 2 3 2h8c2 0 3 0 3-2V3c0-2-1-2-3-2H4C2 1 1 1 1 3Zm3-1h1v3H2V3c0-1 1-1 2-1zm2 0h4v3H6Zm5 0h1c1 0 2 0 2 1v2h-3ZM2 6h3v4H2Zm4 0h4v4H6Zm5 0h3v4h-3zm-9 5h3v3H4c-1 0-2 0-2-1zm4 0h4v3H6Zm5 0h3v2c0 1-1 1-2 1h-1z" style="fill:#6d6d6d;fill-opacity:1"/><path style="opacity:1;fill:#fff;fill-rule:evenodd;stroke:none;stroke-width:2;stroke-linejoin:round" d="M2 6h12v4H2z"/><path d="M1 5v6h14V5Zm1 1h12l-2 2 2 2H2l2-2Z" fill="#c7162b"/></svg>