<svg viewBox="0 0 16 16" xmlns="http://www.w3.org/2000/svg">/&amp;amp;amp;amp;amp;gt;<path style="opacity:.7;fill:#000;stroke:#000;stroke-width:2;stroke-linejoin:round;stroke-miterlimit:4;stroke-dasharray:none" d="M1 11.005v-8c0-2 1-2 3-2h4l3 3v7c0 2-1 2-3 2H4c-2 0-3 0-3-2z"/><path d="M1 11.005v-8c0-2 1-2 3-2h4l3 3v7c0 2-1 2-3 2H4c-2 0-3 0-3-2z" style="fill:#fff"/><path d="M8 4.005v-3l3 3z" style="fill:#6d6d6d;fill-opacity:1"/><path d="M10 6h2v4h2l-3 5-3-5h2z" style="color:#000;overflow:visible;opacity:.7;fill:#020400;fill-opacity:1;stroke:#000;stroke-width:2;stroke-linecap:round;stroke-linejoin:round;stroke-miterlimit:4;stroke-dasharray:none;stroke-opacity:1;marker:none"/><path style="color:#000;overflow:visible;fill:#a6d74f;fill-opacity:1;stroke-width:.833333;marker:none" d="M10 6h2v4h2c-.392.832-1.833 3.244-3 5-1.167-1.756-2.608-4.168-3-5h2z"/><path style="color:#000;overflow:visible;fill:#6d6d6d;fill-opacity:1;stroke-width:.833333;marker:none" d="M6 15v1h10v-1z"/></svg>