<?xml version="1.0" encoding="UTF-8" standalone="no"?>
<svg
   height="128"
   width="128"
   version="1.1"
   id="svg29"
   sodipodi:docname="impress128.svg"
   inkscape:version="1.2 (1:1.2.1+202207142221+cd75a1ee6d)"
   inkscape:export-filename="/home/jupiter007/Libreoffice yaru theme/build/res/impress128.png"
   inkscape:export-xdpi="96"
   inkscape:export-ydpi="96"
   xmlns:inkscape="http://www.inkscape.org/namespaces/inkscape"
   xmlns:sodipodi="http://sodipodi.sourceforge.net/DTD/sodipodi-0.dtd"
   xmlns:xlink="http://www.w3.org/1999/xlink"
   xmlns="http://www.w3.org/2000/svg"
   xmlns:svg="http://www.w3.org/2000/svg"
   xmlns:rdf="http://www.w3.org/1999/02/22-rdf-syntax-ns#"
   xmlns:cc="http://creativecommons.org/ns#"
   xmlns:dc="http://purl.org/dc/elements/1.1/">
  <metadata
     id="metadata35">
    <rdf:RDF>
      <cc:Work
         rdf:about="">
        <dc:format>image/svg+xml</dc:format>
        <dc:type
           rdf:resource="http://purl.org/dc/dcmitype/StillImage" />
      </cc:Work>
    </rdf:RDF>
  </metadata>
  <defs
     id="defs33">
    <linearGradient
       id="linearGradient13791">
      <stop
         id="stop13793"
         style="stop-color:#d36118;stop-opacity:1"
         offset="0" />
      <stop
         id="stop13795"
         style="stop-color:#f09e6f;stop-opacity:1"
         offset="1" />
    </linearGradient>
    <linearGradient
       id="linearGradient16134-3-1-8">
      <stop
         id="stop16136-6-3-7"
         style="stop-color:#000000;stop-opacity:0.50196099"
         offset="0" />
      <stop
         id="stop16138-4-6-2"
         style="stop-color:#000000;stop-opacity:0"
         offset="1" />
    </linearGradient>
    <linearGradient
       id="linearGradient15606-6">
      <stop
         style="stop-color: rgb(255, 255, 255); stop-opacity: 0.588235;"
         offset="0"
         id="stop15608-8" />
      <stop
         style="stop-color: rgb(255, 255, 255); stop-opacity: 0.862745;"
         offset="1"
         id="stop15610-7" />
    </linearGradient>
    <linearGradient
       id="linearGradient10286-8">
      <stop
         id="stop10288-2-1"
         offset="0"
         style="stop-color: rgb(179, 179, 179); stop-opacity: 1;" />
      <stop
         id="stop10290-6"
         offset="1"
         style="stop-color: rgb(230, 230, 230); stop-opacity: 1;" />
    </linearGradient>
    <linearGradient
       id="linearGradient13214">
      <stop
         id="stop13216"
         style="stop-color:#18a303;stop-opacity:1"
         offset="0" />
      <stop
         id="stop13218"
         style="stop-color:#106802;stop-opacity:1"
         offset="1" />
    </linearGradient>
    <linearGradient
       id="linearGradient5578">
      <stop
         id="stop5574"
         style="stop-color:#e76428;stop-opacity:1"
         offset="0" />
      <stop
         id="stop5576"
         style="stop-color:#9f3d06;stop-opacity:1"
         offset="1" />
    </linearGradient>
    <linearGradient
       id="_Linear28"
       x1="0"
       y1="0"
       x2="1"
       y2="0"
       gradientUnits="userSpaceOnUse"
       gradientTransform="matrix(0,-80,80,0,201.005,501)">
      <stop
         offset="0"
         style="stop-color:rgb(211,97,24);stop-opacity:1"
         id="stop534" />
      <stop
         offset="1"
         style="stop-color:rgb(240,158,111);stop-opacity:1"
         id="stop536" />
    </linearGradient>
    <linearGradient
       id="_Linear29"
       x1="0"
       y1="0"
       x2="1"
       y2="0"
       gradientUnits="userSpaceOnUse"
       gradientTransform="matrix(0,-80,80,0,210.004,501.003)">
      <stop
         offset="0"
         style="stop-color:white;stop-opacity:0.58"
         id="stop539" />
      <stop
         offset="1"
         style="stop-color:white;stop-opacity:0.86"
         id="stop541" />
    </linearGradient>
    <linearGradient
       id="_Linear30"
       x1="0"
       y1="0"
       x2="1"
       y2="0"
       gradientUnits="userSpaceOnUse"
       gradientTransform="matrix(0,-30,30,0,176.007,486.001)">
      <stop
         offset="0"
         style="stop-color:rgb(179,179,179);stop-opacity:1"
         id="stop544" />
      <stop
         offset="1"
         style="stop-color:rgb(230,230,230);stop-opacity:1"
         id="stop546" />
    </linearGradient>
    <linearGradient
       id="_Linear31"
       x1="0"
       y1="0"
       x2="1"
       y2="0"
       gradientUnits="userSpaceOnUse"
       gradientTransform="matrix(0,-30,30,0,176.006,485.997)">
      <stop
         offset="0"
         style="stop-color:white;stop-opacity:0.58"
         id="stop549" />
      <stop
         offset="1"
         style="stop-color:white;stop-opacity:0.86"
         id="stop551" />
    </linearGradient>
    <filter
       inkscape:collect="always"
       style="color-interpolation-filters:sRGB"
       id="filter6668"
       x="-0.054544517"
       width="1.109089"
       y="-0.043243821"
       height="1.0864876">
      <feGaussianBlur
         inkscape:collect="always"
         stdDeviation="4.000054"
         id="feGaussianBlur6670" />
    </filter>
    <filter
       inkscape:collect="always"
       style="color-interpolation-filters:sRGB"
       id="filter6646"
       x="-0.013636129"
       width="1.0272723"
       y="-0.010762476"
       height="1.021525">
      <feGaussianBlur
         inkscape:collect="always"
         stdDeviation="1.0000135"
         id="feGaussianBlur6648" />
    </filter>
    <linearGradient
       gradientUnits="userSpaceOnUse"
       y2="169.66859"
       x2="4.4137931"
       y1="386.30838"
       x1="494.34482"
       id="linearGradient4226-1"
       xlink:href="#linearGradient4338"
       inkscape:collect="always"
       gradientTransform="matrix(0,-0.2265625,-0.22655602,0,126.9815,120.00007)" />
    <linearGradient
       inkscape:collect="always"
       id="linearGradient4338">
      <stop
         style="stop-color:#f2f2f2;stop-opacity:1"
         offset="0"
         id="stop4340" />
      <stop
         style="stop-color:#ffffff;stop-opacity:1"
         offset="1"
         id="stop4342" />
    </linearGradient>
    <linearGradient
       inkscape:collect="always"
       xlink:href="#linearGradient5578"
       id="linearGradient18820-3"
       x1="201.07812"
       y1="269.99988"
       x2="102.92188"
       y2="45.999878"
       gradientUnits="userSpaceOnUse"
       gradientTransform="matrix(0.5,0,0,0.5,-11.999936,-13.999925)" />
  </defs>
  <sodipodi:namedview
     pagecolor="#ffffff"
     bordercolor="#666666"
     borderopacity="1"
     objecttolerance="10"
     gridtolerance="10"
     guidetolerance="10"
     inkscape:pageopacity="0"
     inkscape:pageshadow="2"
     inkscape:window-width="1920"
     inkscape:window-height="1016"
     id="namedview31"
     showgrid="false"
     inkscape:zoom="1.3037281"
     inkscape:cx="-288.02018"
     inkscape:cy="181.40286"
     inkscape:window-x="0"
     inkscape:window-y="0"
     inkscape:window-maximized="1"
     inkscape:current-layer="svg29"
     inkscape:pagecheckerboard="0"
     inkscape:showpageshadow="2"
     inkscape:deskcolor="#d1d1d1" />
  <linearGradient
     id="a"
     gradientUnits="userSpaceOnUse"
     x1="16.00001"
     x2="32.00001"
     y1="15.99997"
     y2="31.99997">
    <stop
       offset="0"
       stop-color="#383e51"
       id="stop2" />
    <stop
       offset="1"
       stop-color="#655c6f"
       stop-opacity="0"
       id="stop4" />
  </linearGradient>
  <linearGradient
     id="b"
     gradientUnits="userSpaceOnUse"
     x1="408.57144"
     x2="408.57144"
     y1="531.79797"
     y2="515.79797">
    <stop
       offset="0"
       stop-color="#f5955f"
       id="stop7" />
    <stop
       offset="1"
       stop-color="#facebe"
       id="stop9" />
  </linearGradient>
  <linearGradient
     id="c"
     gradientTransform="matrix(.7272726 0 0 .68965569 .72726 1.93103)"
     gradientUnits="userSpaceOnUse"
     x1="560.78583"
     x2="560.78583"
     y1="785.70648"
     y2="727.70654">
    <stop
       offset="0"
       stop-color="#f27935"
       id="stop12" />
    <stop
       offset="1"
       stop-color="#f2784b"
       id="stop14" />
  </linearGradient>
  <path
     style="color:#000000;display:inline;overflow:visible;visibility:visible;opacity:0.3;fill:#000000;fill-opacity:1;fill-rule:nonzero;stroke:none;stroke-width:1;marker:none;filter:url(#filter6668);enable-background:accumulate"
     d="m 19.954809,49.542618 c -35.296731,0 -38.921881,3.625611 -38.921881,38.994141 v 71.005861 2 71.00586 c 0,35.36853 3.62514,38.99414 38.921881,38.99414 h 98.156241 c 35.29673,0 39.09487,-3.62602 38.92188,-38.99414 v -100.76563 c -0.044,-9.7329 -8.17907,-17.95562 -14.76172,-24.16211 l -0.0488,-0.0508 -40.52343,-42.408201 c -10.676891,-10.56116 -18.057821,-15.619141 -32.666021,-15.619141 z m 96.982421,0.08984 c -2.16918,2.775877 -2.38539,7.403545 0.20898,9.912109 l 28.4961,30.386722 c 3.72332,3.69548 11.11677,0.56904 11.38085,-4.77735 -0.11515,-29.584529 -4.14219,-34.875859 -31.35937,-35.521481 z"
     id="path5316-1"
     transform="matrix(0.5,0,0,0.5,29.4836,-15.771234)" />
  <path
     style="color:#000000;display:inline;overflow:visible;visibility:visible;opacity:0.1;fill:#000000;fill-opacity:1;fill-rule:nonzero;stroke:none;stroke-width:1;marker:none;filter:url(#filter6646);enable-background:accumulate"
     d="m 19.954809,48.542618 c -35.296731,0 -38.921881,3.625611 -38.921881,38.994141 v 72.005861 1 72.00586 c 0,35.36853 3.62514,38.99414 38.921881,38.99414 h 98.156241 c 35.29673,0 39.09487,-3.62602 38.92188,-38.99414 v -101.76563 c -0.044,-9.7329 -8.17907,-17.95561 -14.76172,-24.16211 l -0.0488,-0.0508 -40.52343,-42.408201 c -10.676891,-10.56116 -18.057821,-15.619141 -32.666021,-15.619141 z m 97.968741,0.08984 c -3.03973,2.502305 -3.72055,8.066242 -0.77734,10.912109 l 28.4961,30.386722 c 3.72846,3.70058 11.14006,0.56108 11.38476,-4.79883 -0.032,-30.448517 -3.84872,-35.847324 -31.36328,-36.500001 z"
     id="path5316-84"
     transform="matrix(0.5,0,0,0.5,29.4836,-15.771234)" />
  <path
     style="color:#000000;display:inline;overflow:visible;visibility:visible;opacity:0.1;fill:none;fill-opacity:1;fill-rule:nonzero;stroke:#000000;stroke-width:2;stroke-miterlimit:4;stroke-dasharray:none;marker:none;enable-background:accumulate"
     d="m 39.461005,8.000075 c -1.08787,0 -2.113176,0.0073 -3.083986,0.02441 -14.740935,0.263922 -16.333985,2.893658 -16.333985,19.472655 v 36.502931 36.502919 c 0,16.57901 1.59305,19.20875 16.333985,19.47266 0.97081,0.017 1.996116,0.0244 3.083986,0.0244 0.01515,0 0.0278,0 0.04295,0 h 49.035155 c 1.103025,0 2.14459,-0.007 3.12793,-0.0244 14.75013,-0.26395 16.4141,-2.89385 16.33301,-19.47266 v -51.382804 c -0.022,-4.86645 -4.08953,-8.97781 -7.38086,-12.081055 l -0.0244,-0.0254 -20.261715,-21.2041 c -5.338475,-5.280565 -9.02891,-7.80957 -16.33301,-7.80957 z m 49.86621,0.04492 c -2.237305,0.7462 -2.99531,4.288299 -1.27051,5.956054 l 14.248055,15.193361 c 1.87049,1.8565 5.59675,0.270615 5.69531,-2.425785 v -3.5957 c -0.31901,-12.477522 -2.88303,-14.825282 -15.641605,-15.12793 h -1.976565 z"
     id="path5316-3" />
  <path
     style="color:#000000;display:inline;overflow:visible;visibility:visible;fill:url(#linearGradient4226-1);fill-opacity:1;fill-rule:nonzero;stroke:none;stroke-width:0.5;marker:none;enable-background:accumulate"
     d="m 39.461005,8.000075 c -17.648361,0 -19.460941,1.812805 -19.460941,19.49707 v 36.502931 36.502924 c 0,17.68427 1.81258,19.49707 19.460941,19.49707 h 49.078125 c 17.64837,0 19.54743,-1.81301 19.46094,-19.49707 v -51.382809 c -0.022,-4.86645 -4.08954,-8.97781 -7.38086,-12.081055 l -0.0244,-0.0254 -20.26172,-21.204101 c -5.33843,-5.28059 -9.028925,-7.80956 -16.333025,-7.80956 z"
     id="path5316"
     inkscape:connector-curvature="0" />
  <path
     style="color:#000000;display:inline;overflow:visible;visibility:visible;fill:url(#linearGradient18820-3);fill-opacity:1;fill-rule:nonzero;stroke:none;stroke-width:0.5;marker:none;enable-background:accumulate"
     d="m 39.461005,8.000075 c -17.648371,0 -19.460941,1.812805 -19.460941,19.49707 v 36.502931 36.502924 c 0,17.68427 1.81257,19.49707 19.460941,19.49707 h 49.07812 c 7.72116,0 12.427755,-0.34748 15.272465,-2.21875 0.20319,-0.13366 0.39742,-0.27418 0.58203,-0.42383 1.10769,-0.89786 1.88794,-2.0915 2.43262,-3.67285 0.99858,-2.89914 1.20356,-7.10274 1.17383,-13.18164 v -51.382809 c -0.022,-4.86645 -4.08954,-8.97781 -7.38086,-12.081055 l -0.0244,-0.0254 -20.26172,-21.204101 c -5.338475,-5.280565 -9.02891,-7.80957 -16.33301,-7.80957 z m 49.86621,0.04492 c -2.237305,0.7462 -2.99531,4.288299 -1.27051,5.956054 l 14.248055,15.193361 c 1.86677,1.852815 5.58064,0.27648 5.69335,-2.41016 0.0241,-15.664505 -1.77664,-18.409389 -15.682615,-18.739255 h -1.933595 z"
     id="rect4158-92-3"
     sodipodi:nodetypes="sscsssssscccccssccccccc" />
  <path
     id="rect4396"
     style="display:inline;opacity:0.1;fill:#ffffff;fill-opacity:1;stroke-width:1;stroke-linejoin:round;stroke-dasharray:1.5, 1.5;enable-background:new"
     d="m 64.000065,8.000075 v 111.999995 h 24.53906 c 7.72116,0 12.427755,-0.34748 15.272465,-2.21875 0.20319,-0.13366 0.39742,-0.27418 0.58203,-0.42383 1.10769,-0.89786 1.88794,-2.0915 2.43262,-3.67285 0.99858,-2.89914 1.20356,-7.10274 1.17383,-13.18164 v -51.382809 c -0.022,-4.86645 -4.08954,-8.977805 -7.38086,-12.081055 l -0.0244,-0.0254 -20.26172,-21.204101 c -5.338475,-5.280565 -9.02891,-7.80957 -16.33301,-7.80957 z m 25.32715,0.04492 c -2.237305,0.7462 -2.99531,4.288299 -1.27051,5.956054 l 14.248055,15.193361 c 1.86677,1.852815 5.58064,0.27648 5.69335,-2.41016 0.0241,-15.664505 -1.77664,-18.409389 -15.682615,-18.739255 h -1.933595 z" />
  <path
     inkscape:connector-curvature="0"
     style="color:#000000;display:inline;overflow:visible;visibility:visible;opacity:0.1;fill:#ffffff;fill-opacity:1;fill-rule:nonzero;stroke:none;stroke-width:0.5;marker:none;enable-background:accumulate"
     d="m 20.000259,64.000076 v 36.503414 c -0.08649,17.68406 1.812575,19.49658 19.460946,19.49658 h 49.07812 c 17.648365,0 19.001805,-1.81827 19.460945,-19.49658 v -36.503414 z"
     id="path4255"
     sodipodi:nodetypes="ccssscc" />
  <path
     id="path2426"
     style="clip-rule:evenodd;display:inline;opacity:0.25;fill:#000000;fill-rule:nonzero;stroke-width:0.5;enable-background:new"
     d="m 42.5,49.000001 c -4.691491,0 -8.5,3.80851 -8.5,8.5 v 28 c 0,4.69149 3.808509,8.5 8.5,8.5 h 16.5 v 0.91211 l -9.521485,7.293939 c -0.7585,0.581 -0.3471,1.79395 0.6084,1.79395 h 2.09668 c 1.46349,0 2.87664,-0.53589 3.97363,-1.50489 l 6.78418,-5.996089 h 2.11719 l 6.7832,5.996089 c 1.097,0.969 2.51062,1.50489 3.97461,1.50489 h 2.095705 c 0.9555,0 1.36739,-1.21295 0.6084,-1.79395 l -9.521485,-7.293939 v -0.91211 h 16.500975 c 4.69149,0 8.5,-3.80851 8.5,-8.5 v -28 c 0,-4.69149 -3.80851,-8.5 -8.5,-8.5 z" />
  <path
     id="path2419"
     style="clip-rule:evenodd;display:inline;fill:#ffffff;fill-rule:nonzero;stroke-width:0.5;enable-background:new"
     d="m 42.5,48.000001 c -4.691491,0 -8.5,3.80851 -8.5,8.5 v 28 c 0,4.69149 3.808509,8.5 8.5,8.5 h 16.5 v 0.91211 l -9.521485,7.293939 c -0.7585,0.581 -0.3471,1.79395 0.6084,1.79395 h 2.09668 c 1.46349,0 2.87664,-0.53589 3.97363,-1.50489 l 6.78418,-5.996089 h 2.11719 l 6.7832,5.996089 c 1.097,0.969 2.51062,1.50489 3.97461,1.50489 h 2.095705 c 0.9555,0 1.36739,-1.21295 0.6084,-1.79395 l -9.521485,-7.293939 v -0.91211 h 16.500975 c 4.69149,0 8.5,-3.80851 8.5,-8.5 v -28 c 0,-4.69149 -3.80851,-8.5 -8.5,-8.5 z" />
  <g
     transform="matrix(0.5,0,0,0.5,-19.0025,-160)"
     id="g268"
     style="clip-rule:evenodd;display:inline;fill-rule:evenodd;enable-background:new">
    <path
       d="m 221.005,434 c 0,-7.175 -5.825,-13 -13,-13 h -84 c -7.175,0 -13,5.825 -13,13 v 54 c 0,7.175 5.825,13 13,13 h 84 c 7.175,0 13,-5.825 13,-13 z"
       style="fill:url(#_Linear28)"
       id="path266" />
  </g>
  <g
     transform="matrix(0.5,0,0,0.5,-19.0025,-160)"
     id="g272"
     style="clip-rule:evenodd;display:inline;fill:#e88d59;fill-opacity:1;fill-rule:evenodd;enable-background:new">
    <path
       d="m 221.005,434 c 0,-7.175 -5.825,-13 -13,-13 h -84 c -7.175,0 -13,5.825 -13,13 v 54 c 0,7.175 5.825,13 13,13 h 84 c 7.175,0 13,-5.825 13,-13 z"
       style="fill:#e88d59;fill-opacity:1"
       id="path270" />
  </g>
  <g
     transform="matrix(0.5,0,0,0.5,-19.0025,-160)"
     id="g276"
     style="clip-rule:evenodd;display:inline;fill-rule:evenodd;enable-background:new">
    <path
       d="m 206.004,431 h -79.999 c -2.762,0 -5,2.239 -5,5 0,2.761 2.238,5 5,5 h 79.999 c 2.762,0 5,-2.239 5,-5 0,-2.761 -2.238,-5 -5,-5 z"
       style="fill:#ffffff;fill-rule:nonzero"
       id="path274" />
  </g>
  <g
     transform="matrix(0.5,0,0,0.5,-19.0025,-160)"
     id="g284"
     style="clip-rule:evenodd;display:inline;fill:#ffffff;fill-rule:evenodd;enable-background:new">
    <path
       d="m 126.006,460.997 c 2.761,0 5,-2.238 5,-4.999 0,-2.762 -2.239,-5 -5,-5 -2.761,0 -5,2.238 -5,5 0,2.761 2.239,4.999 5,4.999 z"
       style="fill:#ffffff;fill-rule:nonzero"
       id="path282" />
  </g>
  <g
     transform="matrix(0.5,0,0,0.5,-19.0025,-160)"
     id="g292"
     style="clip-rule:evenodd;display:inline;fill:#ffffff;fill-rule:evenodd;enable-background:new">
    <path
       d="m 126.006,475.997 c 2.761,0 5,-2.238 5,-4.999 0,-2.762 -2.239,-5 -5,-5 -2.761,0 -5,2.238 -5,5 0,2.761 2.239,4.999 5,4.999 z"
       style="fill:#ffffff;fill-rule:nonzero"
       id="path290" />
  </g>
  <g
     transform="matrix(0.5,0,0,0.5,-19.0025,-160)"
     id="g300"
     style="clip-rule:evenodd;display:inline;fill:#ffffff;fill-rule:evenodd;enable-background:new">
    <path
       d="m 126.006,490.997 c 2.761,0 5,-2.238 5,-4.999 0,-2.762 -2.239,-5 -5,-5 -2.761,0 -5,2.238 -5,5 0,2.761 2.239,4.999 5,4.999 z"
       style="fill:#ffffff;fill-rule:nonzero"
       id="path298" />
  </g>
  <path
     id="path2388"
     style="clip-rule:evenodd;display:inline;fill:#ffffff;fill-rule:nonzero;stroke-width:0.5;enable-background:new"
     d="m 71,65.500001 c -2.4855,0 -4.5,2.0145 -4.5,4.5 v 11 c 0,2.485 2.0145,4.5 4.5,4.5 h 10.999025 c 2.48549,0 4.5,-2.015 4.5,-4.5 v -11 c 0,-2.4855 -2.01451,-4.5 -4.5,-4.5 z m 11.674805,2.50293 a 1.25,1.25 0 0 1 0.63379,0.128905 1.25,1.25 0 0 1 0.558595,1.676755 l -3.75,7.5 a 1.250125,1.250125 0 0 1 -1.67676,0.55957 l -3.881835,-1.9414 -3.19043,6.38183 a 1.25,1.25 0 0 1 -1.67676,0.55957 1.25,1.25 0 0 1 -0.55957,-1.67676 l 3.75,-7.5 a 1.250125,1.250125 0 0 1 1.67676,-0.55957 l 3.88281,1.94141 3.19043,-6.38184 a 1.25,1.25 0 0 1 0.722655,-0.626945 1.25,1.25 0 0 1 0.320315,-0.06153 z" />
  <rect
     style="display:inline;fill:#ffffff;fill-opacity:1;fill-rule:evenodd;stroke-width:1;stroke-linecap:round;stroke-linejoin:round;enable-background:new"
     id="rect1097"
     width="12.5"
     height="3"
     x="50"
     y="66.5"
     ry="1.5" />
  <rect
     style="display:inline;fill:#ffffff;fill-opacity:1;fill-rule:evenodd;stroke-width:1;stroke-linecap:round;stroke-linejoin:round;enable-background:new"
     id="rect1151"
     width="12.5"
     height="3"
     x="50"
     y="74"
     ry="1.5" />
  <rect
     style="display:inline;fill:#ffffff;fill-opacity:1;fill-rule:evenodd;stroke-width:1;stroke-linecap:round;stroke-linejoin:round;enable-background:new"
     id="rect1153"
     width="12.5"
     height="3"
     x="50"
     y="81.5"
     ry="1.5" />
  <path
     style="color:#000000;display:inline;overflow:visible;visibility:visible;opacity:0.3;fill:#ffffff;fill-opacity:1;fill-rule:nonzero;stroke:none;stroke-width:0.5;marker:none;enable-background:accumulate"
     d="m 39.460945,8 c -1.254075,0 -2.405858,0.01275 -3.505868,0.03615 -0.78456,0.01665 -1.54288,0.03835 -2.25293,0.07129 -0.44636,0.02065 -0.88056,0.044 -1.298825,0.07227 -0.0368,0.0025 -0.07767,0.0045 -0.11426,0.0069 -0.0199,0.0015 -0.0368,0.0035 -0.05664,0.005 -0.55802,0.03965 -1.08486,0.0897 -1.59375,0.145505 -0.1407,0.0154 -0.282865,0.03015 -0.41992,0.04685 -0.13785,0.01685 -0.273995,0.03445 -0.408205,0.05274 -0.193225,0.0262 -0.381585,0.0538 -0.56738,0.08301 -0.12254,0.01935 -0.246855,0.03785 -0.366215,0.0586 -0.193355,0.0334 -0.37832,0.07128 -0.563475,0.108395 -0.253935,0.05114 -0.500365,0.10551 -0.739255,0.164065 -0.09547,0.0233 -0.19302,0.0458 -0.286135,0.07031 -0.1626,0.043 -0.31906,0.08885 -0.47461,0.135745 -0.08706,0.02615 -0.173905,0.0527 -0.25879,0.08008 -0.16578,0.05369 -0.328675,0.109355 -0.486325,0.16797 -0.04035,0.01495 -0.07932,0.03065 -0.11914,0.0459 -0.78001,0.30027 -1.46174,0.66235 -2.053715,1.10254 -5e-4,5e-4 -10e-4,0.0015 -0.002,0.002 -2.69675,2.006875 -3.56861,5.611045 -3.807615,11.95996 -0.0114,0.302815 -0.0207,0.6161 -0.0293,0.93164 -0.01515,0.55236 -0.02935,1.104955 -0.0371,1.697265 0.239225,-14.45681 3.023135,-16.04396 19.441408,-16.04396 h 31.264645 c -0.429945,-0.14773 -0.87291,-0.27657 -1.327145,-0.3916 -0.0785,-0.0198 -0.156025,-0.04075 -0.235355,-0.05957 -0.193855,-0.0462 -0.39078,-0.08854 -0.589845,-0.12891 -0.14181,-0.02855 -0.286025,-0.0545 -0.43066,-0.08008 -0.166085,-0.0296 -0.33096,-0.06121 -0.50098,-0.08691 -0.307735,-0.0461 -0.62172,-0.08582 -0.94336,-0.11914 -0.127655,-0.0134 -0.259645,-0.0228 -0.389645,-0.0342 -0.24672,-0.0213 -0.49738,-0.03965 -0.75293,-0.05371 -0.130435,-0.0073 -0.26069,-0.0151 -0.393555,-0.0205 -0.37869,-0.01515 -0.76267,-0.0254 -1.16211,-0.0254 z"
     id="path7814" />
  <path
     style="color:#000000;display:inline;overflow:visible;visibility:visible;opacity:0.4;fill:#ffffff;fill-opacity:1;fill-rule:nonzero;stroke:none;stroke-width:0.5;marker:none;enable-background:accumulate"
     d="m 89.327155,8.04492 c -0.53561,0.17864 -0.98366,0.52004 -1.33594,0.95508 h 0.54785 c 17.076575,0 19.320355,1.742595 19.448245,17.873045 0.002,-0.0192 0.006,-0.03735 0.007,-0.05664 -0.0269,-8.89596 -0.58368,-13.655945 -3.59765,-16.142575 -0.0306,-0.02495 -0.0617,-0.0497 -0.0928,-0.07422 -0.13474,-0.10738 -0.27545,-0.20965 -0.41992,-0.308595 -0.0756,-0.0513 -0.15212,-0.101295 -0.23047,-0.15039 -0.10173,-0.06436 -0.20704,-0.12585 -0.31348,-0.186525 -0.11899,-0.06722 -0.23933,-0.134455 -0.36426,-0.197265 -0.071,-0.036 -0.14481,-0.06991 -0.21777,-0.10449 -0.16572,-0.07793 -0.33278,-0.153635 -0.50879,-0.22461 -0.0237,-0.0096 -0.0484,-0.0188 -0.0723,-0.0283 -2.298785,-0.907825 -5.47567,-1.25031 -9.85352,-1.354495 h -0.0098 -1.93164 z"
     id="path7812" />
  <path
     style="color:#000000;display:inline;overflow:visible;visibility:visible;opacity:0.3;fill:#ffffff;fill-opacity:1;fill-rule:nonzero;stroke:none;stroke-width:0.5;marker:none;enable-background:accumulate"
     d="m 20.005862,26.77051 c -0.0015,0.24527 -0.0058,0.470225 -0.0058,0.72656 v 1 c -0.003,-0.60913 0.003,-1.15729 0.0058,-1.72656 z"
     id="rect4158-92-3-3" />
  <path
     style="color:#000000;display:inline;overflow:visible;visibility:visible;opacity:0.2;fill:#000000;fill-opacity:1;fill-rule:nonzero;stroke:none;stroke-width:0.5;marker:none;enable-background:accumulate"
     d="m 20.000197,99.502931 v 0.999999 c -0.08649,17.68406 1.812575,19.49707 19.460948,19.49707 h 49.07812 c 17.648365,0 19.001805,-1.81876 19.460945,-19.49707 v -0.999999 c -0.45914,17.678309 -1.81258,19.497069 -19.460945,19.497069 h -49.07812 c -17.648373,0 -19.547443,-1.81301 -19.460948,-19.497069 z"
     id="path945"
     inkscape:connector-curvature="0" />
  <path
     style="color:#000000;display:inline;overflow:visible;visibility:visible;opacity:0.08;fill:#ffffff;fill-opacity:1;fill-rule:nonzero;stroke:none;stroke-width:4;stroke-linecap:butt;stroke-linejoin:miter;stroke-miterlimit:4;stroke-dasharray:none;stroke-dashoffset:0;stroke-opacity:1;marker:none;enable-background:accumulate"
     d="m 78.000205,120 30.000005,-29.999999 v 11.241939 c -0.0262,16.9979 -1.90134,18.75806 -19.087055,18.75806 z"
     id="path4254"
     inkscape:connector-curvature="0"
     sodipodi:nodetypes="cccsc" />
</svg>
