<?xml version="1.0" encoding="UTF-8" standalone="no"?>
<svg
   viewBox="0 0 24 24"
   version="1.1"
   id="svg14"
   sodipodi:docname="lx03247.svg"
   inkscape:version="1.2 (1:1.2.1+202207142221+cd75a1ee6d)"
   xmlns:inkscape="http://www.inkscape.org/namespaces/inkscape"
   xmlns:sodipodi="http://sodipodi.sourceforge.net/DTD/sodipodi-0.dtd"
   xmlns:xlink="http://www.w3.org/1999/xlink"
   xmlns="http://www.w3.org/2000/svg"
   xmlns:svg="http://www.w3.org/2000/svg"
   xmlns:rdf="http://www.w3.org/1999/02/22-rdf-syntax-ns#"
   xmlns:cc="http://creativecommons.org/ns#"
   xmlns:dc="http://purl.org/dc/elements/1.1/">
  <metadata
     id="metadata20">
    <rdf:RDF>
      <cc:Work
         rdf:about="">
        <dc:format>image/svg+xml</dc:format>
        <dc:type
           rdf:resource="http://purl.org/dc/dcmitype/StillImage" />
      </cc:Work>
    </rdf:RDF>
  </metadata>
  <defs
     id="defs18">
    <linearGradient
       id="linearGradient30640">
      <stop
         id="stop30636"
         style="stop-color:#b61629;stop-opacity:1;"
         offset="0" />
      <stop
         id="stop30638"
         style="stop-color:#333333;stop-opacity:1"
         offset="1" />
    </linearGradient>
    <linearGradient
       id="linearGradient15606-6">
      <stop
         style="stop-color: rgb(255, 255, 255); stop-opacity: 0.588235;"
         offset="0"
         id="stop15608-8" />
      <stop
         style="stop-color: rgb(255, 255, 255); stop-opacity: 0.862745;"
         offset="1"
         id="stop15610-7" />
    </linearGradient>
    <linearGradient
       id="linearGradient10292">
      <stop
         id="stop10294"
         style="stop-color:#666666;stop-opacity:1"
         offset="0" />
      <stop
         id="stop10296"
         style="stop-color:#333333;stop-opacity:1"
         offset="1" />
    </linearGradient>
    <linearGradient
       gradientTransform="translate(-320.49979,-189.00005)"
       inkscape:collect="always"
       xlink:href="#linearGradient4338"
       id="linearGradient1311"
       x1="327.99951"
       y1="188"
       x2="335.99951"
       y2="212"
       gradientUnits="userSpaceOnUse" />
    <linearGradient
       inkscape:collect="always"
       id="linearGradient4338">
      <stop
         style="stop-color:#f2f2f2;stop-opacity:1"
         offset="0"
         id="stop4340" />
      <stop
         style="stop-color:#ffffff;stop-opacity:1"
         offset="1"
         id="stop4342" />
    </linearGradient>
  </defs>
  <sodipodi:namedview
     pagecolor="#ffffff"
     bordercolor="#666666"
     borderopacity="1"
     objecttolerance="10"
     gridtolerance="10"
     guidetolerance="10"
     inkscape:pageopacity="0"
     inkscape:pageshadow="2"
     inkscape:window-width="1920"
     inkscape:window-height="1016"
     id="namedview16"
     showgrid="true"
     inkscape:zoom="16.833334"
     inkscape:cx="1.3960396"
     inkscape:cy="7.5148514"
     inkscape:window-x="0"
     inkscape:window-y="0"
     inkscape:window-maximized="1"
     inkscape:current-layer="svg14"
     inkscape:showpageshadow="2"
     inkscape:pagecheckerboard="0"
     inkscape:deskcolor="#d1d1d1">
    <inkscape:grid
       type="xygrid"
       id="grid909" />
  </sodipodi:namedview>
  <path
     id="path19177"
     style="color:#000000;fill:#b61629;stroke-width:2;fill-opacity:1"
     d="m 8.8652344,1.999951 c -1.107655,0 -1.946054,0.024671 -2.625,0.1386719 -0.6596351,0.1106863 -1.143614,0.3142925 -1.4726563,0.6425781 -0.3291808,0.3283973 -0.5278839,0.8121373 -0.6367187,1.4667969 -0.1124347,0.6761513 -0.1358616,1.5128399 -0.1308594,2.6210937 v 0.00391 4.1269534 6.128906 0.002 c -0.005,1.107912 0.01859,1.945794 0.1308594,2.621094 0.1088345,0.654681 0.3075729,1.138434 0.6367187,1.466797 v 0.002 c 0.3289513,0.328057 0.8130388,0.529942 1.4726563,0.640625 0.6789393,0.114004 1.517345,0.138672 2.625,0.138672 h 3.1347656 3.134766 c 1.107655,0 1.946053,-0.02467 2.625,-0.138672 0.659634,-0.110686 1.143612,-0.314291 1.472656,-0.642578 0.329183,-0.328399 0.527884,-0.812139 0.636719,-1.466797 0.112434,-0.67615 0.135861,-1.512839 0.130859,-2.621094 v -0.0039 -4.126953 -6.1269534 -0.00195 c 0.0014,-0.3130876 5.83e-4,-0.6026595 -0.0039,-0.875 l -3.988282,-3.9882813 c -0.272082,-0.00538 -0.560573,-0.00781 -0.873046,-0.00781 h -3.134766 z" />
  <path
     inkscape:connector-curvature="0"
     style="color:#000000;font-style:normal;font-variant:normal;font-weight:normal;font-stretch:normal;font-size:medium;line-height:normal;font-family:sans-serif;font-variant-ligatures:normal;font-variant-position:normal;font-variant-caps:normal;font-variant-numeric:normal;font-variant-alternates:normal;font-feature-settings:normal;text-indent:0;text-align:start;text-decoration:none;text-decoration-line:none;text-decoration-style:solid;text-decoration-color:#000000;letter-spacing:normal;word-spacing:normal;text-transform:none;writing-mode:lr-tb;direction:ltr;text-orientation:mixed;dominant-baseline:auto;baseline-shift:baseline;text-anchor:start;white-space:normal;shape-padding:0;clip-rule:nonzero;display:inline;overflow:visible;visibility:visible;isolation:auto;mix-blend-mode:normal;color-interpolation:sRGB;color-interpolation-filters:linearRGB;solid-color:#000000;solid-opacity:1;fill:url(#linearGradient1311);fill-opacity:1;fill-rule:nonzero;stroke:none;stroke-width:3;stroke-linecap:butt;stroke-linejoin:miter;stroke-miterlimit:4;stroke-dasharray:none;stroke-dashoffset:0;stroke-opacity:1;marker:none;color-rendering:auto;image-rendering:auto;shape-rendering:auto;text-rendering:auto;enable-background:accumulate"
     d="m 8.8656149,2.999949 c -1.0885498,-4e-7 -1.9003398,0.0312 -2.4589796,0.1250001 -0.54887,0.0921 -0.79683,0.22878 -0.93164,0.36328 -0.13436,0.13404 -0.26642,0.37645 -0.35742,0.92383 -0.0925,0.55627 -0.1221901,1.36674 -0.11719,2.45703 v 0.004 4.1269499 6.12891 0.002 c -0.005,1.0898 0.0249,1.9019 0.11719,2.45703 0.091,0.5474 0.22306,0.78979 0.35742,0.92383 0.13484,0.13452 0.38277,0.27118 0.93164,0.36328 0.5586198,0.0938 1.3704298,0.125 2.4589796,0.125 h 6.2696561 c 1.08864,0 1.90078,-0.0314 2.45703,-0.125 0.54703,-0.0921 0.78777,-0.227 0.92187,-0.36133 0.13429,-0.13451 0.26913,-0.37646 0.36133,-0.92578 0.0936,-0.55811 0.105238,-1.372509 0.125,-2.46303 v -6.125 l -5.01e-4,-3.999998 c -4,0 -4,0 -4,-4 z"
     id="path1293"
     sodipodi:nodetypes="scccccccccccsscccscccs" />
  <path
     id="path1966"
     style="color:#000000;fill:#b61629;stroke-linecap:square;stroke-linejoin:round;-inkscape-stroke:none;fill-opacity:1"
     d="M 10.5 10 A 0.50005 0.50005 0 0 0 10.005859 10.429688 L 9.3183594 15.244141 L 8.7265625 13.351562 A 0.50005 0.50005 0 0 0 8.25 13 L 7.5 13 L 7 13 L 7 14 L 7.5 14 L 7.8828125 14 L 9.0234375 17.648438 A 0.50005 0.50005 0 0 0 9.9941406 17.570312 L 10.933594 11 L 16 11 L 16 11.5 L 17 11.5 L 17 11 L 17 10.5 A 0.50005 0.50005 0 0 0 16.5 10 L 10.5 10 z M 12.5 12.792969 L 11.792969 13.5 L 12.146484 13.853516 L 13.292969 15 L 12.146484 16.146484 L 11.792969 16.5 L 12.5 17.207031 L 12.853516 16.853516 L 14 15.707031 L 15.146484 16.853516 L 15.5 17.207031 L 16.207031 16.5 L 15.853516 16.146484 L 14.707031 15 L 15.853516 13.853516 L 16.207031 13.5 L 15.5 12.792969 L 15.146484 13.146484 L 14 14.292969 L 12.853516 13.146484 L 12.5 12.792969 z " />
</svg>
