<?xml version="1.0" encoding="UTF-8" standalone="no"?>
<svg
   viewBox="0 0 32 32"
   version="1.1"
   id="svg18"
   sodipodi:docname="lx03246_32.svg"
   inkscape:version="1.2 (1:1.2.1+202207142221+cd75a1ee6d)"
   width="32"
   height="32"
   xmlns:inkscape="http://www.inkscape.org/namespaces/inkscape"
   xmlns:sodipodi="http://sodipodi.sourceforge.net/DTD/sodipodi-0.dtd"
   xmlns:xlink="http://www.w3.org/1999/xlink"
   xmlns="http://www.w3.org/2000/svg"
   xmlns:svg="http://www.w3.org/2000/svg"
   xmlns:rdf="http://www.w3.org/1999/02/22-rdf-syntax-ns#"
   xmlns:cc="http://creativecommons.org/ns#"
   xmlns:dc="http://purl.org/dc/elements/1.1/">
  <metadata
     id="metadata24">
    <rdf:RDF>
      <cc:Work
         rdf:about="">
        <dc:format>image/svg+xml</dc:format>
        <dc:type
           rdf:resource="http://purl.org/dc/dcmitype/StillImage" />
        <dc:title />
      </cc:Work>
    </rdf:RDF>
  </metadata>
  <defs
     id="defs22">
    <linearGradient
       id="linearGradient6989-5">
      <stop
         id="stop6991-5"
         offset="0"
         style="stop-color: rgb(240, 158, 111); stop-opacity: 1;" />
      <stop
         id="stop6993-1"
         offset="1"
         style="stop-color: rgb(249, 207, 181); stop-opacity: 1;" />
    </linearGradient>
    <linearGradient
       id="linearGradient6975-88">
      <stop
         id="stop6977-8"
         offset="0"
         style="stop-color: rgb(245, 206, 83); stop-opacity: 1;" />
      <stop
         id="stop6979-6"
         offset="1"
         style="stop-color: rgb(253, 233, 169); stop-opacity: 1;" />
    </linearGradient>
    <linearGradient
       id="_Linear14"
       x1="0"
       y1="0"
       x2="1"
       y2="0"
       gradientUnits="userSpaceOnUse"
       gradientTransform="matrix(0,-8.29,8.29,0,743.808,196.553)">
      <stop
         offset="0"
         style="stop-color:rgb(240,188,111);stop-opacity:1"
         id="stop324" />
      <stop
         offset="1"
         style="stop-color:rgb(249,234,181);stop-opacity:1"
         id="stop326" />
    </linearGradient>
    <linearGradient
       id="_Linear15"
       x1="0"
       y1="0"
       x2="1"
       y2="0"
       gradientUnits="userSpaceOnUse"
       gradientTransform="matrix(0,-8.85,8.85,0,746.051,200.5)">
      <stop
         offset="0"
         style="stop-color:rgb(245,206,83);stop-opacity:1"
         id="stop329" />
      <stop
         offset="1"
         style="stop-color:rgb(253,233,169);stop-opacity:1"
         id="stop331" />
    </linearGradient>
    <linearGradient
       gradientTransform="translate(-320.00044,-132)"
       inkscape:collect="always"
       xlink:href="#linearGradient4338"
       id="linearGradient1313"
       x1="340"
       y1="132"
       x2="328"
       y2="164"
       gradientUnits="userSpaceOnUse" />
    <linearGradient
       inkscape:collect="always"
       id="linearGradient4338">
      <stop
         style="stop-color:#f2f2f2;stop-opacity:1"
         offset="0"
         id="stop4340" />
      <stop
         style="stop-color:#ffffff;stop-opacity:1"
         offset="1"
         id="stop4342" />
    </linearGradient>
  </defs>
  <sodipodi:namedview
     pagecolor="#ffffff"
     bordercolor="#666666"
     borderopacity="1"
     objecttolerance="10"
     gridtolerance="10"
     guidetolerance="10"
     inkscape:pageopacity="0"
     inkscape:pageshadow="2"
     inkscape:window-width="1920"
     inkscape:window-height="1016"
     id="namedview20"
     showgrid="true"
     inkscape:zoom="4.2083333"
     inkscape:cx="-28.871288"
     inkscape:cy="-6.059406"
     inkscape:window-x="0"
     inkscape:window-y="0"
     inkscape:window-maximized="1"
     inkscape:current-layer="svg18"
     inkscape:document-rotation="0"
     inkscape:pagecheckerboard="0"
     inkscape:showpageshadow="2"
     inkscape:deskcolor="#d1d1d1">
    <inkscape:grid
       type="xygrid"
       id="grid901" />
  </sodipodi:namedview>
  <path
     id="path922"
     style="color:#000000;display:inline;overflow:visible;visibility:visible;fill:#e0a200;fill-opacity:1.0;fill-rule:nonzero;stroke:none;stroke-width:1;marker:none;enable-background:accumulate"
     d="m 11.69095,3.0000001 c -1.412408,0 -2.5184693,0.034177 -3.4179684,0.1855469 -0.8994991,0.1513698 -1.6159693,0.4314955 -2.1367187,0.953125 -0.5207495,0.5216395 -0.8000421,1.2377428 -0.9511719,2.1386719 -0.1511499,0.900939 -0.1855469,2.0105426 -0.1855469,3.4257812 v 6.2968749 6.296875 c 0,1.415229 0.034417,2.524842 0.1855469,3.425781 0.1511298,0.900929 0.4304224,1.617043 0.9511719,2.138672 0.5207494,0.52163 1.2372196,0.801755 2.1367187,0.953125 0.8994991,0.15135 2.0055604,0.185547 3.4179684,0.185547 h 8.615235 c 1.412408,0 2.522369,-0.03423 3.423828,-0.185547 0.901459,-0.15132 1.619858,-0.431645 2.142578,-0.953125 0.522709,-0.521479 0.803255,-1.238976 0.953125,-2.140625 0.14983,-0.901129 0.180828,-2.009309 0.173828,-3.423828 v -6.296875 -6.2949218 c 0.0031,-0.636427 -0.0039,-1.2071453 -0.02344,-1.7285156 l -4.947265,-4.9472656 c -0.520195,-0.021234 -1.089298,-0.029297 -1.722656,-0.029297 z" />
  <path
     id="path1295"
     d="m 11.192448,5.0000001 c -1.3720497,0 -2.3781497,0.0445 -3.0097697,0.15039 -0.61819,0.1037699 -0.76201,0.22891 -0.79101,0.25781 -0.0276,0.0276 -0.14965,0.1658 -0.25196,0.78125 -0.10462,0.62946 -0.14762,1.6309499 -0.14062,3.00391 v 0.006 5.80064 7.80273 0.006 c -0.007,1.37154 0.036,2.37291 0.14062,3.00196 0.10231,0.61547 0.22436,0.75365 0.25196,0.78125 0.029,0.029 0.17281,0.15404 0.79101,0.25781 0.63175,0.10609 1.63775,0.15039 3.0097697,0.15039 h 9.61523 c 1.37206,0 2.37433,-0.0445 3.00391,-0.15039 0.616,-0.10366 0.75435,-0.22701 0.78125,-0.25391 0.0283,-0.0283 0.15211,-0.16861 0.25586,-0.78711 0.10599,-0.632 0.15039,-1.63731 0.15039,-3.01199 v -7.79688 l 4.56e-4,-4.99986 c -5,0 -5.170159,0.241849 -5,-4.9999999 z"
     style="color:#000000;font-style:normal;font-variant:normal;font-weight:normal;font-stretch:normal;font-size:medium;line-height:normal;font-family:sans-serif;font-variant-ligatures:normal;font-variant-position:normal;font-variant-caps:normal;font-variant-numeric:normal;font-variant-alternates:normal;font-feature-settings:normal;text-indent:0;text-align:start;text-decoration:none;text-decoration-line:none;text-decoration-style:solid;text-decoration-color:#000000;letter-spacing:normal;word-spacing:normal;text-transform:none;writing-mode:lr-tb;direction:ltr;text-orientation:mixed;dominant-baseline:auto;baseline-shift:baseline;text-anchor:start;white-space:normal;shape-padding:0;clip-rule:nonzero;display:inline;overflow:visible;visibility:visible;isolation:auto;mix-blend-mode:normal;color-interpolation:sRGB;color-interpolation-filters:linearRGB;solid-color:#000000;solid-opacity:1;fill:url(#linearGradient1313);fill-opacity:1;fill-rule:nonzero;stroke:none;stroke-width:5;stroke-linecap:butt;stroke-linejoin:miter;stroke-miterlimit:4;stroke-dasharray:none;stroke-dashoffset:0;stroke-opacity:1;marker:none;color-rendering:auto;image-rendering:auto;shape-rendering:auto;text-rendering:auto;enable-background:accumulate"
     inkscape:connector-curvature="0"
     sodipodi:nodetypes="scccccccccscsscscscccs" />
  <g
     transform="translate(-729.9928,-177)"
     id="g128"
     style="clip-rule:evenodd;display:inline;fill-rule:evenodd;enable-background:new">
    <path
       d="m 744.992,197.5 c 2.485,0 4.5,-2.015 4.5,-4.5 0,-2.485 -2.015,-4.5 -4.5,-4.5 -2.485,0 -4.5,2.015 -4.5,4.5 0,2.485 2.015,4.5 4.5,4.5 z"
       style="fill:url(#_Linear14);fill-rule:nonzero;stroke:#cb851d;stroke-width:1px"
       id="path126" />
  </g>
  <g
     transform="translate(-729.9928,-177)"
     id="g132"
     style="clip-rule:evenodd;display:inline;fill-rule:evenodd;enable-background:new">
    <path
       d="m 744.991,196 c 1.657,0 3,-1.343 3,-3 0,-1.657 -1.343,-3 -3,-3 -1.656,0 -3,1.343 -3,3 0,1.657 1.344,3 3,3 z"
       style="fill:#f0c46f;fill-opacity:0.6;fill-rule:nonzero"
       id="path130" />
  </g>
  <g
     transform="translate(-729.9928,-177)"
     id="g136"
     style="clip-rule:evenodd;display:inline;fill-rule:evenodd;enable-background:new">
    <path
       d="m 751.492,200.5 h -11 l 5,-9 z"
       style="fill:url(#_Linear15);fill-rule:nonzero;stroke:#c99c00;stroke-width:1px;stroke-linecap:round;stroke-linejoin:round"
       id="path134" />
  </g>
  <g
     transform="translate(-729.9928,-177)"
     id="g140"
     style="clip-rule:evenodd;display:inline;fill-rule:evenodd;enable-background:new">
    <path
       d="m 748.992,199 h -6 l 2.5,-5 z"
       style="fill:#f5ce53;fill-opacity:0.6;fill-rule:nonzero"
       id="path138" />
  </g>
</svg>
