<?xml version="1.0" encoding="UTF-8" standalone="no"?>
<svg
   xmlns:dc="http://purl.org/dc/elements/1.1/"
   xmlns:cc="http://creativecommons.org/ns#"
   xmlns:rdf="http://www.w3.org/1999/02/22-rdf-syntax-ns#"
   xmlns:svg="http://www.w3.org/2000/svg"
   xmlns="http://www.w3.org/2000/svg"
   xmlns:xlink="http://www.w3.org/1999/xlink"
   xmlns:sodipodi="http://sodipodi.sourceforge.net/DTD/sodipodi-0.dtd"
   xmlns:inkscape="http://www.inkscape.org/namespaces/inkscape"
   viewBox="0 0 24 24"
   version="1.1"
   id="svg12"
   sodipodi:docname="lx03245.svg"
   inkscape:version="1.0.1 (3bc2e813f5, 2020-09-07)">
  <metadata
     id="metadata18">
    <rdf:RDF>
      <cc:Work
         rdf:about="">
        <dc:format>image/svg+xml</dc:format>
        <dc:type
           rdf:resource="http://purl.org/dc/dcmitype/StillImage" />
      </cc:Work>
    </rdf:RDF>
  </metadata>
  <defs
     id="defs16">
    <linearGradient
       gradientTransform="translate(-320.49979,-189)"
       inkscape:collect="always"
       xlink:href="#linearGradient4338"
       id="linearGradient1311"
       x1="327.99951"
       y1="188"
       x2="335.99951"
       y2="212"
       gradientUnits="userSpaceOnUse" />
    <linearGradient
       inkscape:collect="always"
       id="linearGradient4338">
      <stop
         style="stop-color:#f2f2f2;stop-opacity:1"
         offset="0"
         id="stop4340" />
      <stop
         style="stop-color:#ffffff;stop-opacity:1"
         offset="1"
         id="stop4342" />
    </linearGradient>
    <linearGradient
       inkscape:collect="always"
       xlink:href="#linearGradient14494"
       id="linearGradient9348"
       gradientUnits="userSpaceOnUse"
       gradientTransform="matrix(0.24507959,0,0,0.2569291,-115.36415,-172.23072)"
       x1="520.58502"
       y1="735.05206"
       x2="516.15179"
       y2="720.86298" />
    <linearGradient
       id="linearGradient14494">
      <stop
         id="stop14496"
         style="stop-color:#dc85e9;stop-opacity:1"
         offset="0" />
      <stop
         id="stop14498"
         style="stop-color:#f2cbf8;stop-opacity:1"
         offset="1" />
    </linearGradient>
    <linearGradient
       inkscape:collect="always"
       xlink:href="#linearGradient14494"
       id="linearGradient9339"
       gradientUnits="userSpaceOnUse"
       gradientTransform="matrix(0.24507959,0,0,0.2569291,-115.36415,-175.29763)"
       x1="520.58502"
       y1="735.05206"
       x2="516.15179"
       y2="720.86298" />
    <linearGradient
       inkscape:collect="always"
       xlink:href="#linearGradient14494"
       id="linearGradient9342"
       gradientUnits="userSpaceOnUse"
       x1="520.58502"
       y1="735.05206"
       x2="516.15179"
       y2="720.86298"
       gradientTransform="matrix(0.24507959,0,0,0.2569291,-115.36415,-177.67809)" />
  </defs>
  <sodipodi:namedview
     pagecolor="#ffffff"
     bordercolor="#666666"
     borderopacity="1"
     objecttolerance="10"
     gridtolerance="10"
     guidetolerance="10"
     inkscape:pageopacity="0"
     inkscape:pageshadow="2"
     inkscape:window-width="1920"
     inkscape:window-height="1011"
     id="namedview14"
     showgrid="true"
     inkscape:zoom="33.666667"
     inkscape:cx="12"
     inkscape:cy="12"
     inkscape:window-x="0"
     inkscape:window-y="0"
     inkscape:window-maximized="1"
     inkscape:current-layer="svg12">
    <inkscape:grid
       type="xygrid"
       id="grid889" />
  </sodipodi:namedview>
  <path
     id="path1141"
     style="color:#000000;font-style:normal;font-variant:normal;font-weight:normal;font-stretch:normal;font-size:medium;line-height:normal;font-family:sans-serif;font-variant-ligatures:normal;font-variant-position:normal;font-variant-caps:normal;font-variant-numeric:normal;font-variant-alternates:normal;font-feature-settings:normal;text-indent:0;text-align:start;text-decoration:none;text-decoration-line:none;text-decoration-style:solid;text-decoration-color:#000000;letter-spacing:normal;word-spacing:normal;text-transform:none;writing-mode:lr-tb;direction:ltr;text-orientation:mixed;dominant-baseline:auto;baseline-shift:baseline;text-anchor:start;white-space:normal;shape-padding:0;clip-rule:nonzero;display:inline;overflow:visible;visibility:visible;opacity:1;isolation:auto;mix-blend-mode:normal;color-interpolation:sRGB;color-interpolation-filters:linearRGB;solid-color:#000000;solid-opacity:1;vector-effect:none;fill:#9911aa;fill-opacity:1;fill-rule:nonzero;stroke:#9911aa;stroke-width:2;stroke-linecap:butt;stroke-linejoin:miter;stroke-miterlimit:4;stroke-dasharray:none;stroke-dashoffset:0;stroke-opacity:1;marker:none;color-rendering:auto;image-rendering:auto;shape-rendering:auto;text-rendering:auto;enable-background:accumulate"
     d="m 8.8652349,2.999998 c -1.0885503,0 -1.9003449,0.0312 -2.4589847,0.1250001 -0.54887,0.0921 -0.7968306,0.2287812 -0.9316406,0.3632812 -0.13436,0.1340401 -0.2664219,0.3764482 -0.3574219,0.9238282 -0.0925,0.55627 -0.1221876,1.3667412 -0.1171875,2.4570312 v 0.00391 4.1269533 6.128906 0.002 c -0.005,1.0898 0.024897,1.901902 0.1171875,2.457032 0.091,0.5474 0.2230619,0.789788 0.3574219,0.923828 0.13484,0.134473 0.3827706,0.271134 0.9316406,0.363234 0.5586198,0.0938 1.3704344,0.125 2.4589847,0.125 H 12 15.134766 c 1.08855,0 1.900345,-0.0312 2.458984,-0.125 0.54887,-0.0921 0.796831,-0.228781 0.931641,-0.363281 0.13436,-0.13404 0.266421,-0.376448 0.357421,-0.923828 C 18.975312,19.031623 19.005,18.221151 19,17.130861 v -0.0039 -4.126953 -6.1289064 -0.00195 c 0.005,-1.0898 -0.0249,-1.9019012 -0.117188,-2.4570312 -0.091,-0.5474 -0.223061,-0.7897882 -0.357421,-0.9238282 C 18.390551,3.3537722 18.14262,3.217111 17.59375,3.125011 17.035131,3.031211 16.223316,3.0000109 15.134766,3.0000109 H 12 Z" />
  <path
     inkscape:connector-curvature="0"
     style="color:#000000;font-style:normal;font-variant:normal;font-weight:normal;font-stretch:normal;font-size:medium;line-height:normal;font-family:sans-serif;font-variant-ligatures:normal;font-variant-position:normal;font-variant-caps:normal;font-variant-numeric:normal;font-variant-alternates:normal;font-feature-settings:normal;text-indent:0;text-align:start;text-decoration:none;text-decoration-line:none;text-decoration-style:solid;text-decoration-color:#000000;letter-spacing:normal;word-spacing:normal;text-transform:none;writing-mode:lr-tb;direction:ltr;text-orientation:mixed;dominant-baseline:auto;baseline-shift:baseline;text-anchor:start;white-space:normal;shape-padding:0;clip-rule:nonzero;display:inline;overflow:visible;visibility:visible;opacity:1;isolation:auto;mix-blend-mode:normal;color-interpolation:sRGB;color-interpolation-filters:linearRGB;solid-color:#000000;solid-opacity:1;vector-effect:none;fill:url(#linearGradient1311);fill-opacity:1;fill-rule:nonzero;stroke:none;stroke-width:3;stroke-linecap:butt;stroke-linejoin:miter;stroke-miterlimit:4;stroke-dasharray:none;stroke-dashoffset:0;stroke-opacity:1;marker:none;color-rendering:auto;image-rendering:auto;shape-rendering:auto;text-rendering:auto;enable-background:accumulate"
     d="m 8.8656149,2.999998 c -1.0885498,0 -1.9003398,0.0312 -2.4589796,0.1250001 -0.54887,0.0921 -0.79683,0.22878 -0.93164,0.36328 -0.13436,0.13404 -0.26642,0.37645 -0.35742,0.92383 -0.0925,0.55627 -0.1221901,1.36674 -0.11719,2.45703 v 0.004 4.1269499 6.12891 0.002 c -0.005,1.0898 0.0249,1.9019 0.11719,2.45703 0.091,0.5474 0.22306,0.78979 0.35742,0.92383 0.13484,0.13452 0.38277,0.27118 0.93164,0.36328 0.5586198,0.0938 1.3704298,0.125 2.4589796,0.125 h 6.2696561 c 1.08864,0 1.90078,-0.0314 2.45703,-0.125 0.54703,-0.0921 0.78777,-0.227 0.92187,-0.36133 0.13429,-0.13451 0.26913,-0.37646 0.36133,-0.92578 0.0936,-0.55811 0.105238,-1.372509 0.125,-2.46303 v -6.125 -2.9999999 L 12,2.999998 Z"
     id="path1293"
     sodipodi:nodetypes="scccccccccccsscccscccs" />
  <path
     inkscape:connector-curvature="0"
     sodipodi:nodetypes="ccsccc"
     id="path9344"
     d="m 7.5,13.215355 v 2.922571 c 0,0.807046 1.4623728,1.461286 4.499344,1.461286 3.036972,0 4.500656,-0.65424 4.500656,-1.461286 v -2.922571 z"
     style="color:#000000;display:inline;overflow:visible;visibility:visible;fill:url(#linearGradient9348);fill-opacity:1;fill-rule:nonzero;stroke:#8e03a3;stroke-width:0.999998;marker:none" />
  <path
     inkscape:connector-curvature="0"
     style="color:#000000;display:inline;overflow:visible;visibility:visible;fill:url(#linearGradient9339);fill-opacity:1;fill-rule:nonzero;stroke:#8e03a3;stroke-width:0.999998;marker:none"
     d="m 7.5,10.148445 v 2.922571 c 0,0.807046 1.4623728,1.461286 4.499344,1.461286 3.036972,0 4.500656,-0.65424 4.500656,-1.461286 v -2.922571 z"
     id="path9335"
     sodipodi:nodetypes="ccsccc" />
  <ellipse
     ry="1.4612843"
     rx="4.500658"
     cy="9.960412"
     cx="12.000658"
     style="color:#000000;display:inline;overflow:visible;visibility:visible;fill:url(#linearGradient9342);fill-opacity:1;fill-rule:nonzero;stroke:#8e03a3;stroke-width:0.999998;marker:none"
     id="path9337" />
</svg>
