<?xml version="1.0" encoding="UTF-8" standalone="no"?>
<svg
   viewBox="0 0 32 32"
   version="1.1"
   id="svg4"
   sodipodi:docname="lx03254.svg"
   inkscape:export-filename="/home/jupiter007/Libreoffice yaru theme fullcolor/build/res/lx03254.png"
   inkscape:export-xdpi="96"
   inkscape:export-ydpi="96"
   inkscape:version="1.2 (1:1.2.1+202207142221+cd75a1ee6d)"
   xmlns:inkscape="http://www.inkscape.org/namespaces/inkscape"
   xmlns:sodipodi="http://sodipodi.sourceforge.net/DTD/sodipodi-0.dtd"
   xmlns:xlink="http://www.w3.org/1999/xlink"
   xmlns="http://www.w3.org/2000/svg"
   xmlns:svg="http://www.w3.org/2000/svg"
   xmlns:rdf="http://www.w3.org/1999/02/22-rdf-syntax-ns#"
   xmlns:cc="http://creativecommons.org/ns#"
   xmlns:dc="http://purl.org/dc/elements/1.1/">
  <metadata
     id="metadata10">
    <rdf:RDF>
      <cc:Work
         rdf:about="">
        <dc:format>image/svg+xml</dc:format>
        <dc:type
           rdf:resource="http://purl.org/dc/dcmitype/StillImage" />
      </cc:Work>
    </rdf:RDF>
  </metadata>
  <defs
     id="defs8">
    <linearGradient
       id="linearGradient7723">
      <stop
         id="stop7721"
         style="stop-color:#2e851b;stop-opacity:1"
         offset="0" />
      <stop
         id="stop7715"
         style="stop-color:#18a003;stop-opacity:1"
         offset="1" />
    </linearGradient>
    <linearGradient
       id="linearGradient13214">
      <stop
         id="stop13216"
         style="stop-color:#18a303;stop-opacity:1"
         offset="0" />
      <stop
         id="stop13218"
         style="stop-color:#106802;stop-opacity:1"
         offset="1" />
    </linearGradient>
    <linearGradient
       id="linearGradient15606-6">
      <stop
         style="stop-color: rgb(255, 255, 255); stop-opacity: 0.588235;"
         offset="0"
         id="stop15608-8" />
      <stop
         style="stop-color: rgb(255, 255, 255); stop-opacity: 0.862745;"
         offset="1"
         id="stop15610-7" />
    </linearGradient>
    <clipPath
       clipPathUnits="userSpaceOnUse"
       id="clipPath959">
      <path
         style="color:#000000;display:inline;overflow:visible;visibility:visible;opacity:1;fill:#46a926;fill-opacity:1;fill-rule:nonzero;stroke:none;stroke-width:2;stroke-miterlimit:4;stroke-dasharray:none;stroke-opacity:1;marker:none;enable-background:accumulate"
         d="m 330.1929,133.99999 c -5.61538,0 -6.21958,0.57678 -6.19206,6.20352 v 7.79648 7.79648 c -0.0276,5.62673 0.57668,6.20351 6.19206,6.20351 h 11.615 c 5.6154,0 6.19208,-0.5767 6.19208,-6.20351 v -7.79648 -7.79648 c 0,-5.6268 -0.5767,-6.20352 -6.19208,-6.20352 z"
         id="path961"
         inkscape:connector-curvature="0"
         sodipodi:nodetypes="scccssscsss" />
    </clipPath>
    <linearGradient
       gradientTransform="translate(-320.00044,-132)"
       inkscape:collect="always"
       xlink:href="#linearGradient4338"
       id="linearGradient1313"
       x1="340"
       y1="132"
       x2="328"
       y2="164"
       gradientUnits="userSpaceOnUse" />
    <linearGradient
       inkscape:collect="always"
       id="linearGradient4338">
      <stop
         style="stop-color:#f2f2f2;stop-opacity:1"
         offset="0"
         id="stop4340" />
      <stop
         style="stop-color:#ffffff;stop-opacity:1"
         offset="1"
         id="stop4342" />
    </linearGradient>
  </defs>
  <sodipodi:namedview
     pagecolor="#ffffff"
     bordercolor="#666666"
     borderopacity="1"
     objecttolerance="10"
     gridtolerance="10"
     guidetolerance="10"
     inkscape:pageopacity="0"
     inkscape:pageshadow="2"
     inkscape:window-width="1920"
     inkscape:window-height="1016"
     id="namedview6"
     showgrid="true"
     inkscape:zoom="14.75"
     inkscape:cx="3.7627119"
     inkscape:cy="14.813559"
     inkscape:window-x="0"
     inkscape:window-y="0"
     inkscape:window-maximized="1"
     inkscape:current-layer="svg4"
     inkscape:pagecheckerboard="0"
     inkscape:showpageshadow="2"
     inkscape:deskcolor="#d1d1d1">
    <inkscape:grid
       type="xygrid"
       id="grid2515" />
  </sodipodi:namedview>
  <rect
     style="fill:#808080;fill-opacity:1;fill-rule:evenodd;stroke-width:3;stroke-linecap:square"
     id="rect1862"
     width="3"
     height="1"
     x="3"
     y="8" />
  <rect
     style="fill:#808080;fill-opacity:1;fill-rule:evenodd;stroke-width:3;stroke-linecap:square"
     id="rect2076"
     width="3"
     height="1"
     x="3"
     y="10" />
  <rect
     style="fill:#808080;fill-opacity:1;fill-rule:evenodd;stroke-width:3;stroke-linecap:square"
     id="rect2078"
     width="3"
     height="1"
     x="3"
     y="12" />
  <rect
     style="fill:#808080;fill-opacity:1;fill-rule:evenodd;stroke-width:3;stroke-linecap:square"
     id="rect2080"
     width="3"
     height="1"
     x="3"
     y="14" />
  <rect
     style="fill:#808080;fill-opacity:1;fill-rule:evenodd;stroke-width:3;stroke-linecap:square"
     id="rect2082"
     width="3"
     height="1"
     x="3"
     y="16" />
  <rect
     style="fill:#808080;fill-opacity:1;fill-rule:evenodd;stroke-width:3;stroke-linecap:square"
     id="rect2084"
     width="3"
     height="1"
     x="3"
     y="18" />
  <rect
     style="fill:#808080;fill-opacity:1;fill-rule:evenodd;stroke-width:3;stroke-linecap:square"
     id="rect2086"
     width="3"
     height="1"
     x="3"
     y="20" />
  <rect
     style="fill:#808080;fill-opacity:1;fill-rule:evenodd;stroke-width:3;stroke-linecap:square"
     id="rect2088"
     width="3"
     height="1"
     x="3"
     y="22" />
  <rect
     style="fill:#808080;fill-opacity:1;fill-rule:evenodd;stroke-width:3;stroke-linecap:square"
     id="rect2090"
     width="3"
     height="1"
     x="3"
     y="24" />
  <path
     id="path922"
     style="color:#000000;display:inline;overflow:visible;visibility:visible;fill:#2e851b;fill-opacity:1;fill-rule:nonzero;stroke:none;stroke-width:1;marker:none;enable-background:accumulate"
     d="m 11.69095,3.0000001 c -1.412408,0 -2.5184692,0.034177 -3.4179683,0.1855469 -0.8994991,0.1513698 -1.6159693,0.4314955 -2.1367187,0.953125 -0.5207495,0.5216395 -0.8000421,1.2377428 -0.9511719,2.1386719 -0.1511499,0.900939 -0.1855469,2.0105426 -0.1855469,3.4257812 v 6.2968749 6.296875 c 0,1.415229 0.034417,2.524842 0.1855469,3.425781 0.1511298,0.900929 0.4304224,1.617043 0.9511719,2.138672 0.5207494,0.52163 1.2372196,0.801755 2.1367187,0.953125 0.8994991,0.15135 2.0055603,0.185547 3.4179683,0.185547 h 8.615235 c 1.412408,0 2.522369,-0.03423 3.423828,-0.185547 0.901459,-0.15132 1.619858,-0.431645 2.142578,-0.953125 0.522709,-0.521479 0.803255,-1.238976 0.953125,-2.140625 0.14983,-0.901129 0.180828,-2.009309 0.173828,-3.423828 v -6.296875 -6.2949218 c 0.0031,-0.636427 -0.0039,-1.2071453 -0.02344,-1.7285156 l -4.947265,-4.9472656 c -0.520195,-0.021234 -1.089298,-0.029297 -1.722656,-0.029297 z" />
  <path
     id="path1295"
     style="color:#000000;font-style:normal;font-variant:normal;font-weight:normal;font-stretch:normal;font-size:medium;line-height:normal;font-family:sans-serif;font-variant-ligatures:normal;font-variant-position:normal;font-variant-caps:normal;font-variant-numeric:normal;font-variant-alternates:normal;font-feature-settings:normal;text-indent:0;text-align:start;text-decoration:none;text-decoration-line:none;text-decoration-style:solid;text-decoration-color:#000000;letter-spacing:normal;word-spacing:normal;text-transform:none;writing-mode:lr-tb;direction:ltr;text-orientation:mixed;dominant-baseline:auto;baseline-shift:baseline;text-anchor:start;white-space:normal;shape-padding:0;clip-rule:nonzero;display:inline;overflow:visible;visibility:visible;isolation:auto;mix-blend-mode:normal;color-interpolation:sRGB;color-interpolation-filters:linearRGB;solid-color:#000000;solid-opacity:1;fill:url(#linearGradient1313);fill-opacity:1;fill-rule:nonzero;stroke:none;stroke-width:5;stroke-linecap:butt;stroke-linejoin:miter;stroke-miterlimit:4;stroke-dasharray:none;stroke-dashoffset:0;stroke-opacity:1;marker:none;color-rendering:auto;image-rendering:auto;shape-rendering:auto;text-rendering:auto;enable-background:accumulate"
     d="M 11.193359 5 C 9.8213111 5 8.8152131 5.0445007 8.1835938 5.1503906 C 8.1090564 5.1629025 8.0613749 5.176526 8 5.1894531 L 8 26.810547 C 8.0613755 26.823472 8.1090552 26.837097 8.1835938 26.849609 C 8.8153431 26.955699 9.8213411 27 11.193359 27 L 20.808594 27 C 22.180652 27 23.182921 26.955499 23.8125 26.849609 C 24.428499 26.745949 24.56685 26.622603 24.59375 26.595703 C 24.62205 26.567403 24.745859 26.427093 24.849609 25.808594 C 24.955599 25.176594 25 24.171554 25 22.796875 L 25 15 L 25 10 C 20.000005 10 19.829841 10.241844 20 5 L 11.193359 5 z " />
  <g
     transform="translate(-335.00045,-127.00001)"
     id="g68"
     style="clip-rule:evenodd;display:inline;fill-rule:evenodd;enable-background:new">
    <path
       d="m 356,138 h -10 c -1.105,0 -2,0.896 -2,2 v 9 c 0,1.105 0.895,2 2,2 h 10 c 1.105,0 2,-0.895 2,-2 v -9 c 0,-1.104 -0.895,-2 -2,-2 z"
       style="fill:#ccf4c6;fill-rule:nonzero"
       id="path66"
       sodipodi:nodetypes="sssssssss" />
  </g>
  <g
     transform="translate(-335.00045,-127.00001)"
     id="g72"
     style="clip-rule:evenodd;display:inline;fill-rule:evenodd;enable-background:new">
    <path
       d="m 356,138 h -10 c -1.105,0 -2,0.896 -2,2 0,1.105 0.895,2 2,2 h 10 c 1.105,0 2,-0.895 2,-2 0,-1.104 -0.895,-2 -2,-2 z"
       style="fill:#92e285;fill-rule:nonzero"
       id="path70"
       sodipodi:nodetypes="sssssss" />
  </g>
  <g
     transform="translate(-335.00045,-127.00001)"
     id="g76"
     style="clip-rule:evenodd;display:inline;fill-rule:evenodd;enable-background:new">
    <path
       d="m 346,138 c -1.105,0 -2,0.896 -2,2 v 9 c 0,1.105 0.895,2 2,2 h 10 c 1.105,0 2,-0.895 2,-2 v -9 c 0,-1.104 -0.895,-2 -2,-2 z m -1,2 c 0,-0.552 0.448,-1 1,-1 h 2 v 2 h -3 z m 4,-1 h 4 v 2 h -4 z m 5,0 h 2 c 0.552,0 1,0.448 1,1 v 1 h -3 z m -9,3 h 3 v 2 h -3 z m 4,0 h 4 v 2 h -4 z m 5,0 h 3 v 2 h -3 z m -9,3 h 3 v 2 h -3 z m 4,0 h 4 v 2 h -4 z m 5,0 h 3 v 2 h -3 z m -9,3 h 3 v 2 h -2 c -0.552,0 -0.95801,-0.4486 -1,-1 z m 4,0 h 4 v 2 h -4 z m 5,0 h 3 v 1 c 0,0.553 -0.448,1 -1,1 h -2 z"
       style="fill:#148203;fill-rule:nonzero"
       id="path74"
       sodipodi:nodetypes="ssssssssssscccsccccccssccccccccccccccccccccccccccccccccccccssccccccccsscc" />
  </g>
  <g
     transform="translate(-335.00045,-127.00001)"
     id="g80"
     style="clip-rule:evenodd;display:inline;fill-rule:evenodd;enable-background:new">
    <path
       d="m 358,144 h -6 c -0.552,0 -1,0.448 -1,1 v 6 c 0,0.552 0.448,1 1,1 h 6 c 0.552,0 1,-0.448 1,-1 v -6 c 0,-0.552 -0.448,-1 -1,-1 z"
       style="fill:#148403;fill-rule:nonzero"
       id="path78" />
  </g>
  <g
     transform="translate(-335.00045,-127.00001)"
     id="g84"
     style="clip-rule:evenodd;display:inline;fill-rule:evenodd;enable-background:new">
    <path
       d="m 357.5,145 h -5 c -0.276,0 -0.5,0.224 -0.5,0.5 v 5 c 0,0.276 0.224,0.5 0.5,0.5 h 5 c 0.276,0 0.5,-0.224 0.5,-0.5 v -5 c 0,-0.276 -0.224,-0.5 -0.5,-0.5 z"
       style="fill:#cccccc;fill-rule:nonzero"
       id="path82" />
  </g>
  <g
     transform="translate(-335.00045,-127.00001)"
     id="g88"
     style="clip-rule:evenodd;display:inline;fill-rule:evenodd;enable-background:new">
    <path
       d="m 357.5,145 h -5 c -0.276,0 -0.5,0.224 -0.5,0.5 v 5 c 0,0.276 0.224,0.5 0.5,0.5 h 5 c 0.276,0 0.5,-0.224 0.5,-0.5 v -5 c 0,-0.276 -0.224,-0.5 -0.5,-0.5 z"
       style="fill:#ccf4c6;fill-rule:nonzero"
       id="path86" />
  </g>
  <g
     transform="translate(-335.00045,-127.00001)"
     id="g92"
     style="clip-rule:evenodd;display:inline;fill-rule:evenodd;enable-background:new">
    <path
       d="m 355,148 h -1 c -0.552,0 -1,0.448 -1,1 v 2 h 2 z"
       style="fill:#41b02f;fill-rule:nonzero"
       id="path90" />
  </g>
  <g
     transform="translate(-335.00045,-127.00001)"
     id="g96"
     style="clip-rule:evenodd;display:inline;fill-rule:evenodd;enable-background:new">
    <path
       d="m 357,151 v -4 c 0,-0.552 -0.448,-1 -1,-1 -0.552,0 -1,0.448 -1,1 v 4 z"
       style="fill:#148503;fill-rule:nonzero"
       id="path94" />
  </g>
  <g
     transform="translate(-335.00045,-127.00001)"
     id="g100"
     style="clip-rule:evenodd;display:inline;fill-rule:evenodd;enable-background:new">
    <rect
       x="354"
       y="148"
       width="1"
       height="2"
       style="fill:#92e285;fill-rule:nonzero"
       id="rect98" />
  </g>
  <g
     transform="translate(-335.00045,-127.00001)"
     id="g104"
     style="clip-rule:evenodd;display:inline;fill-rule:evenodd;enable-background:new">
    <path
       d="m 357,150 v -3 c 0,-0.552 -0.448,-1 -1,-1 v 4 z"
       style="fill:#41b02f;fill-rule:nonzero"
       id="path102" />
  </g>
  <rect
     style="fill:#ffffff;fill-rule:evenodd;stroke-width:3;stroke-linecap:square"
     id="rect1656"
     width="1"
     height="1"
     x="6"
     y="8" />
  <rect
     style="fill:#ffffff;fill-rule:evenodd;stroke-width:3;stroke-linecap:square"
     id="rect1658"
     width="1"
     height="1"
     x="6"
     y="10" />
  <rect
     style="fill:#ffffff;fill-rule:evenodd;stroke-width:3;stroke-linecap:square"
     id="rect1740"
     width="1"
     height="1"
     x="6"
     y="12" />
  <rect
     style="fill:#ffffff;fill-rule:evenodd;stroke-width:3;stroke-linecap:square"
     id="rect1742"
     width="1"
     height="1"
     x="6"
     y="14" />
  <rect
     style="fill:#ffffff;fill-rule:evenodd;stroke-width:3;stroke-linecap:square"
     id="rect1744"
     width="1"
     height="1"
     x="6"
     y="16" />
  <rect
     style="fill:#ffffff;fill-rule:evenodd;stroke-width:3;stroke-linecap:square"
     id="rect1746"
     width="1"
     height="1"
     x="6"
     y="18" />
  <rect
     style="fill:#ffffff;fill-rule:evenodd;stroke-width:3;stroke-linecap:square"
     id="rect1748"
     width="1"
     height="1"
     x="6"
     y="20" />
  <rect
     style="fill:#ffffff;fill-rule:evenodd;stroke-width:3;stroke-linecap:square"
     id="rect1750"
     width="1"
     height="1"
     x="6"
     y="22" />
  <rect
     style="fill:#ffffff;fill-rule:evenodd;stroke-width:3;stroke-linecap:square"
     id="rect1752"
     width="1"
     height="1"
     x="6"
     y="24" />
</svg>
