<?xml version="1.0" encoding="UTF-8" standalone="no"?>
<svg
   viewBox="0 0 48 48"
   version="1.1"
   id="svg4"
   sodipodi:docname="odf_48_8.svg"
   inkscape:version="1.2 (1:1.2.1+202207142221+cd75a1ee6d)"
   inkscape:export-filename="/home/jupiter007/Libreoffice yaru theme/build/res/odf_48_8.png"
   inkscape:export-xdpi="96"
   inkscape:export-ydpi="96"
   xmlns:inkscape="http://www.inkscape.org/namespaces/inkscape"
   xmlns:sodipodi="http://sodipodi.sourceforge.net/DTD/sodipodi-0.dtd"
   xmlns:xlink="http://www.w3.org/1999/xlink"
   xmlns="http://www.w3.org/2000/svg"
   xmlns:svg="http://www.w3.org/2000/svg"
   xmlns:rdf="http://www.w3.org/1999/02/22-rdf-syntax-ns#"
   xmlns:cc="http://creativecommons.org/ns#"
   xmlns:dc="http://purl.org/dc/elements/1.1/">
  <metadata
     id="metadata10">
    <rdf:RDF>
      <cc:Work
         rdf:about="">
        <dc:format>image/svg+xml</dc:format>
        <dc:type
           rdf:resource="http://purl.org/dc/dcmitype/StillImage" />
      </cc:Work>
    </rdf:RDF>
  </metadata>
  <defs
     id="defs8">
    <linearGradient
       id="linearGradient15606-5">
      <stop
         style="stop-color: rgb(255, 255, 255); stop-opacity: 0.588235;"
         offset="0"
         id="stop15608-1" />
      <stop
         style="stop-color: rgb(255, 255, 255); stop-opacity: 0.862745;"
         offset="1"
         id="stop15610-5-7" />
    </linearGradient>
    <linearGradient
       inkscape:collect="always"
       xlink:href="#linearGradient2129"
       id="linearGradient1024"
       gradientUnits="userSpaceOnUse"
       gradientTransform="matrix(0,-0.11585583,0.11642029,0,-12.473657,52.63637)"
       x1="57.281277"
       y1="384.33087"
       x2="437.06363"
       y2="242.26747" />
    <linearGradient
       id="linearGradient2129">
      <stop
         offset="0"
         style="stop-color:#dc195b;stop-opacity:1;"
         id="stop2125" />
      <stop
         offset="1"
         style="stop-color:#a91326;stop-opacity:1;"
         id="stop2127" />
    </linearGradient>
    <linearGradient
       inkscape:collect="always"
       xlink:href="#linearGradient4338"
       id="linearGradient1024-1"
       gradientUnits="userSpaceOnUse"
       gradientTransform="matrix(0,-0.10298295,0.10068782,0,-7.5446965,49.45454)"
       x1="459.03448"
       y1="419.23337"
       x2="35.310345"
       y2="207.36522" />
    <linearGradient
       inkscape:collect="always"
       id="linearGradient4338">
      <stop
         style="stop-color:#f2f2f2;stop-opacity:1"
         offset="0"
         id="stop4340" />
      <stop
         style="stop-color:#f9f9f9;stop-opacity:1"
         offset="1"
         id="stop4342" />
    </linearGradient>
    <linearGradient
       inkscape:collect="always"
       xlink:href="#linearGradient15606-5"
       id="linearGradient41471"
       gradientUnits="userSpaceOnUse"
       gradientTransform="matrix(1.5,0,0,1.57143,-5408.9984,1231.1458)"
       x1="3618.4375"
       y1="-758.63782"
       x2="3618.4375"
       y2="-772.63782" />
    <linearGradient
       inkscape:collect="always"
       xlink:href="#linearGradient4416"
       id="linearGradient1924"
       x1="340.49219"
       y1="80.996094"
       x2="340.0918"
       y2="94.996094"
       gradientUnits="userSpaceOnUse"
       gradientTransform="translate(-319.99928,-60)" />
    <linearGradient
       id="linearGradient4416">
      <stop
         offset="0"
         style="stop-color:#d21b58;stop-opacity:1;"
         id="stop4412" />
      <stop
         offset="1"
         style="stop-color:#a91326;stop-opacity:1;"
         id="stop4414" />
    </linearGradient>
    <linearGradient
       inkscape:collect="always"
       xlink:href="#linearGradient927"
       id="linearGradient1004"
       x1="344"
       y1="62"
       x2="344"
       y2="106"
       gradientUnits="userSpaceOnUse"
       gradientTransform="translate(-319.99928,-60)" />
    <linearGradient
       inkscape:collect="always"
       id="linearGradient927">
      <stop
         style="stop-color:#ffffff;stop-opacity:1;"
         offset="0"
         id="stop923" />
      <stop
         id="stop933"
         offset="0.125"
         style="stop-color:#ffffff;stop-opacity:0.09803922" />
      <stop
         id="stop931"
         offset="0.92500001"
         style="stop-color:#ffffff;stop-opacity:0.09803922" />
      <stop
         style="stop-color:#ffffff;stop-opacity:0.49803922"
         offset="1"
         id="stop925" />
    </linearGradient>
    <linearGradient
       inkscape:collect="always"
       xlink:href="#linearGradient2086"
       id="linearGradient9069"
       x1="352.86063"
       y1="71.139366"
       x2="357"
       y2="67"
       gradientUnits="userSpaceOnUse"
       gradientTransform="translate(-319.99928,-60)" />
    <linearGradient
       id="linearGradient2086">
      <stop
         offset="0"
         style="stop-color:#eb4780;stop-opacity:1;"
         id="stop2082" />
      <stop
         offset="1"
         style="stop-color:#ae1327;stop-opacity:1;"
         id="stop2084" />
    </linearGradient>
    <linearGradient
       inkscape:collect="always"
       xlink:href="#linearGradient2086"
       id="linearGradient9061"
       x1="352.86063"
       y1="71.139366"
       x2="357.37354"
       y2="66.626472"
       gradientUnits="userSpaceOnUse"
       gradientTransform="translate(-319.99928,-60)" />
  </defs>
  <sodipodi:namedview
     pagecolor="#ffffff"
     bordercolor="#666666"
     borderopacity="1"
     objecttolerance="10"
     gridtolerance="10"
     guidetolerance="10"
     inkscape:pageopacity="0"
     inkscape:pageshadow="2"
     inkscape:window-width="1920"
     inkscape:window-height="1016"
     id="namedview6"
     showgrid="false"
     inkscape:zoom="4.9166667"
     inkscape:cx="-23.694915"
     inkscape:cy="24.305085"
     inkscape:window-x="0"
     inkscape:window-y="0"
     inkscape:window-maximized="1"
     inkscape:current-layer="svg4"
     inkscape:showpageshadow="2"
     inkscape:pagecheckerboard="0"
     inkscape:deskcolor="#d1d1d1" />
  <path
     style="color:#000000;font-style:normal;font-variant:normal;font-weight:normal;font-stretch:normal;font-size:medium;line-height:normal;font-family:sans-serif;font-variant-ligatures:normal;font-variant-position:normal;font-variant-caps:normal;font-variant-numeric:normal;font-variant-alternates:normal;font-feature-settings:normal;text-indent:0;text-align:start;text-decoration:none;text-decoration-line:none;text-decoration-style:solid;text-decoration-color:#000000;letter-spacing:normal;word-spacing:normal;text-transform:none;writing-mode:lr-tb;direction:ltr;text-orientation:mixed;dominant-baseline:auto;baseline-shift:baseline;text-anchor:start;white-space:normal;shape-padding:0;clip-rule:nonzero;display:inline;overflow:visible;visibility:visible;opacity:0.1;isolation:auto;mix-blend-mode:normal;color-interpolation:sRGB;color-interpolation-filters:linearRGB;solid-color:#000000;solid-opacity:1;vector-effect:none;fill:#000000;fill-opacity:1;fill-rule:nonzero;stroke:none;stroke-width:2;stroke-linecap:butt;stroke-linejoin:miter;stroke-miterlimit:4;stroke-dasharray:none;stroke-dashoffset:0;stroke-opacity:1;marker:none;color-rendering:auto;image-rendering:auto;shape-rendering:auto;text-rendering:auto;enable-background:accumulate"
     d="m 15.731193,2 c -2.2229,-0.03386 -3.97368,0.05118 -5.41406,0.292969 -1.4403895,0.241784 -2.6190495,0.695299 -3.4824295,1.55664 -0.86337,0.861342 -1.31906,2.039471 -1.55859,3.480469 -0.23953,1.440999 -0.28629,3.195341 -0.27539,5.423828 v 12.246094 12.251953 c -0.0108,2.225063 0.0361,3.978517 0.27539,5.417967 0.23953,1.441 0.69522,2.61913 1.55859,3.48047 0.86338,0.86134 2.04204,1.31486 3.4824295,1.55664 1.44039,0.24179 3.1909,0.29297 5.41406,0.29297 h 16.53906 c 2.22316,0 3.97276,-0.0511 5.41016,-0.29297 1.4374,-0.24189 2.61246,-0.69694 3.47265,-1.55859 0.8602,-0.86165 1.3132,-2.03894 1.55469,-3.47852 0.24149,-1.43957 0.29297,-3.190353 0.29297,-5.417967 v -12.251953 -12 l -10.73047,-10.748047 z"
     id="path1020"
     inkscape:connector-curvature="0"
     sodipodi:nodetypes="sccsccccccsscccscccs" />
  <path
     style="color:#000000;display:inline;overflow:visible;visibility:visible;fill:url(#linearGradient1024);fill-opacity:1;fill-rule:nonzero;stroke:none;stroke-width:1;marker:none;enable-background:accumulate"
     d="m 15.502443,1.500002 c -9.0689595,0 -10.0447695,0.926949 -10.0003195,9.969934 v 12.530066 12.530067 c -0.0445,9.042981 0.93136,9.969931 10.0003195,9.969931 h 16.99797 c 9.06896,0 10.00032,-0.92684 10.00032,-9.969931 v -12.530067 l -6.9e-4,-12.272727 -10.27739,-10.227273 z"
     id="path964"
     inkscape:connector-curvature="0"
     sodipodi:nodetypes="scccssscccs" />
  <path
     style="color:#000000;display:inline;overflow:visible;visibility:visible;fill:url(#linearGradient1024-1);fill-opacity:1;fill-rule:nonzero;stroke:none;stroke-width:1;marker:none;enable-background:accumulate"
     d="m 16.650853,4 c -8.6501295,0 -8.6501295,0 -8.6489195,8.862164 v 11.137836 11.137836 c -10e-4,8.862164 -10e-4,8.862164 8.6489195,8.862164 h 14.70095 c 8.64892,0 8.64892,0 8.64892,-8.862164 v -11.137836 -12 l -8,-8 z"
     id="path964-4"
     inkscape:connector-curvature="0"
     sodipodi:nodetypes="scccssscccs" />
  <rect
     style="display:inline;overflow:visible;visibility:visible;fill:url(#linearGradient41471);fill-opacity:1;fill-rule:nonzero;stroke:none;stroke-width:1;marker:none;enable-background:new"
     id="rect8463"
     width="24"
     height="22.000021"
     x="12.000388"
     y="16.999985" />
  <path
     id="rect8465"
     style="display:inline;overflow:visible;visibility:visible;fill:#f2b5b5;fill-opacity:1;fill-rule:nonzero;stroke:none;stroke-width:1;marker:none;enable-background:new"
     d="m 13.000723,17 v 2 h -1 v 1 h 1 v 16 h -1 v 1 h 1 v 2 h 1 v -2 h 20 v 2 h 1 v -2 h 1 v -1 h -1 v -16 h 1 v -1 h -1 v -2 h -1 v 2 h -20 v -2 z m 1,3 h 20 v 16 h -20 z" />
  <path
     id="path8475"
     style="font-style:normal;font-variant:normal;font-weight:normal;font-stretch:normal;font-size:8px;font-family:Symbol;display:inline;fill:url(#linearGradient1924);fill-opacity:1;stroke:none;stroke-width:1.50411;enable-background:new"
     d="m 20.492913,20.996094 -1.75,11 -1.75,-5 h -2.5 v 1.701172 h 1.19922 l 2,6.298828 h 2.40039 l 2.09961,-12.400391 h 9.30078 v 1.400391 h 1.5 v -3 z m 3.50781,5.003906 a 1,1 0 0 0 -0.70703,0.292969 1,1 0 0 0 0,1.414062 l 2.79297,2.792969 -2.79297,2.792969 a 1,1 0 0 0 0,1.414062 1,1 0 0 0 1.41406,0 l 2.79297,-2.792969 2.79297,2.792969 a 1,1 0 0 0 1.41406,0 1,1 0 0 0 0,-1.414062 l -2.79297,-2.792969 2.79297,-2.792969 a 1,1 0 0 0 0,-1.414062 1,1 0 0 0 -0.70703,-0.292969 1,1 0 0 0 -0.70703,0.292969 l -2.79297,2.792969 -2.79297,-2.792969 a 1,1 0 0 0 -0.70703,-0.292969 z" />
  <path
     style="color:#000000;font-style:normal;font-variant:normal;font-weight:normal;font-stretch:normal;font-size:medium;line-height:normal;font-family:sans-serif;font-variant-ligatures:normal;font-variant-position:normal;font-variant-caps:normal;font-variant-numeric:normal;font-variant-alternates:normal;font-feature-settings:normal;text-indent:0;text-align:start;text-decoration:none;text-decoration-line:none;text-decoration-style:solid;text-decoration-color:#000000;letter-spacing:normal;word-spacing:normal;text-transform:none;writing-mode:lr-tb;direction:ltr;text-orientation:mixed;dominant-baseline:auto;baseline-shift:baseline;text-anchor:start;white-space:normal;shape-padding:0;clip-rule:nonzero;display:inline;overflow:visible;visibility:visible;opacity:0.4;isolation:auto;mix-blend-mode:normal;color-interpolation:sRGB;color-interpolation-filters:linearRGB;solid-color:#000000;solid-opacity:1;vector-effect:none;fill:#000000;fill-opacity:1;fill-rule:nonzero;stroke:none;stroke-width:2;stroke-linecap:butt;stroke-linejoin:miter;stroke-miterlimit:4;stroke-dasharray:none;stroke-dashoffset:0;stroke-opacity:1;marker:none;color-rendering:auto;image-rendering:auto;shape-rendering:auto;text-rendering:auto;enable-background:accumulate"
     d="m 15.731193,1 c -2.22316,0 -3.97368,0.05118 -5.41406,0.292969 -1.4403895,0.241784 -2.6190495,0.695299 -3.4824295,1.55664 -0.86337,0.861342 -1.31906,2.039471 -1.55859,3.480469 -0.23953,1.440999 -0.28629,3.195341 -0.27539,5.423828 v 12.246094 12.251953 c -0.0108,2.225063 0.0361,3.978517 0.27539,5.417967 0.23953,1.441 0.69522,2.61913 1.55859,3.48047 0.86338,0.86134 2.04204,1.31486 3.4824295,1.55664 1.44039,0.24179 3.1909,0.29297 5.41406,0.29297 h 16.53906 c 2.22316,0 3.97276,-0.0511 5.41016,-0.29297 1.4374,-0.24189 2.61246,-0.69694 3.47265,-1.55859 0.8602,-0.86165 1.3132,-2.03894 1.55469,-3.47852 0.24149,-1.43957 0.29297,-3.190353 0.29297,-5.417967 v -12.251953 -12.414062 l -10.58594,-10.585938 z m 0,1 h 16.26953 l 10,10 v 12 12.251953 c 0,8.842127 -0.90629,9.748047 -9.73047,9.748047 h -16.53906 c -8.8241795,0 -9.7737695,-0.90602 -9.7304695,-9.748047 v -12.251953 -12.251953 c -0.0433,-8.84203 0.90629,-9.748047 9.7304695,-9.748047 z"
     id="path958"
     inkscape:connector-curvature="0"
     sodipodi:nodetypes="sccsccccccsscccscccsscccssscccs" />
  <path
     style="color:#000000;font-style:normal;font-variant:normal;font-weight:normal;font-stretch:normal;font-size:medium;line-height:normal;font-family:sans-serif;font-variant-ligatures:normal;font-variant-position:normal;font-variant-caps:normal;font-variant-numeric:normal;font-variant-alternates:normal;font-feature-settings:normal;text-indent:0;text-align:start;text-decoration:none;text-decoration-line:none;text-decoration-style:solid;text-decoration-color:#000000;letter-spacing:normal;word-spacing:normal;text-transform:none;writing-mode:lr-tb;direction:ltr;text-orientation:mixed;dominant-baseline:auto;baseline-shift:baseline;text-anchor:start;white-space:normal;shape-padding:0;clip-rule:nonzero;display:inline;overflow:visible;visibility:visible;opacity:0.4;isolation:auto;mix-blend-mode:normal;color-interpolation:sRGB;color-interpolation-filters:linearRGB;solid-color:#000000;solid-opacity:1;vector-effect:none;fill:url(#linearGradient1004);fill-opacity:1;fill-rule:nonzero;stroke:none;stroke-width:2;stroke-linecap:butt;stroke-linejoin:miter;stroke-miterlimit:4;stroke-dasharray:none;stroke-dashoffset:0;stroke-opacity:1;marker:none;color-rendering:auto;image-rendering:auto;shape-rendering:auto;text-rendering:auto;enable-background:accumulate"
     clip-path="none"
     d="m 15.731193,2 c -8.8241795,0 -9.7737195,0.906017 -9.7304695,9.748047 v 12.251953 12.251953 c -0.0433,8.842027 0.90629,9.748047 9.7304695,9.748047 h 16.53906 c 8.82418,0 9.73047,-0.90592 9.73047,-9.748047 v -12.251953 -12 h -1 v 12 12.251953 c 0,2.193451 -0.0614,3.870697 -0.26562,5.087887 -0.20419,1.2172 -0.52867,1.92434 -0.99805,2.39454 -0.46938,0.47015 -1.17436,0.79563 -2.38867,1 -1.21432,0.20434 -2.8892,0.26562 -5.07813,0.26562 h -16.53906 c -2.18893,0 -3.86589,-0.0612 -5.08399,-0.26562 -1.2180895,-0.20449 -1.9287695,-0.5295 -2.4003895,-1 -0.47161,-0.47053 -0.79596,-1.17682 -0.99804,-2.39258 -0.20209,-1.21576 -0.25879,-2.893414 -0.24805,-5.085941 v -0.002 -12.253859 -12.253906 -0.002 c -0.0107,-2.192528 0.046,-3.870175 0.24805,-5.085938 0.20209,-1.215763 0.52643,-1.922078 0.99804,-2.392578 0.47161,-0.4705 1.18426,-0.79553 2.4023495,-1 1.21809,-0.204376 2.8931,-0.265578 5.08203,-0.265578 h 16.26953 v -1 z"
     id="path990"
     inkscape:connector-curvature="0" />
  <path
     inkscape:connector-curvature="0"
     style="color:#000000;display:inline;overflow:visible;visibility:visible;opacity:0.6;fill:url(#linearGradient9069);fill-opacity:1;fill-rule:nonzero;stroke:none;stroke-width:0.250023;marker:none;enable-background:accumulate"
     d="m 42.000723,13 v -1 l -10,-10 h -1 v 4.209054 0.161272 0.08662 c 0,5.69198 0.76196,6.56967 6.467,6.541773 z"
     id="rect4158-0-3-62-2"
     sodipodi:nodetypes="ccccccscc" />
  <path
     inkscape:connector-curvature="0"
     style="color:#000000;display:inline;overflow:visible;visibility:visible;fill:url(#linearGradient9061);fill-opacity:1;fill-rule:nonzero;stroke:none;stroke-width:0.250023;marker:none;enable-background:accumulate"
     d="m 42.000723,11.99872 -10,-9.998722 v 3.708942 0.161272 0.08662 c 0,5.69198 0.26232,6.069784 5.96736,6.041887 z"
     id="rect4158-0-3-62"
     sodipodi:nodetypes="ccccscc" />
</svg>
