<?xml version="1.0" encoding="UTF-8" standalone="no"?>
<svg
   height="32"
   width="32"
   version="1.1"
   id="svg31"
   sodipodi:docname="odf_32_8.svg"
   inkscape:version="1.2 (1:1.2.1+202207142221+cd75a1ee6d)"
   inkscape:export-filename="/home/jupiter007/Libreoffice yaru theme/build/res/odf_32_8.png"
   inkscape:export-xdpi="96"
   inkscape:export-ydpi="96"
   xmlns:inkscape="http://www.inkscape.org/namespaces/inkscape"
   xmlns:sodipodi="http://sodipodi.sourceforge.net/DTD/sodipodi-0.dtd"
   xmlns:xlink="http://www.w3.org/1999/xlink"
   xmlns="http://www.w3.org/2000/svg"
   xmlns:svg="http://www.w3.org/2000/svg"
   xmlns:rdf="http://www.w3.org/1999/02/22-rdf-syntax-ns#"
   xmlns:cc="http://creativecommons.org/ns#"
   xmlns:dc="http://purl.org/dc/elements/1.1/">
  <metadata
     id="metadata37">
    <rdf:RDF>
      <cc:Work
         rdf:about="">
        <dc:format>image/svg+xml</dc:format>
        <dc:type
           rdf:resource="http://purl.org/dc/dcmitype/StillImage" />
        <dc:title />
      </cc:Work>
    </rdf:RDF>
  </metadata>
  <defs
     id="defs35">
    <clipPath
       clipPathUnits="userSpaceOnUse"
       id="clipPath959">
      <path
         style="color:#000000;display:inline;overflow:visible;visibility:visible;opacity:1;fill:#46a926;fill-opacity:1;fill-rule:nonzero;stroke:none;stroke-width:2;stroke-miterlimit:4;stroke-dasharray:none;stroke-opacity:1;marker:none;enable-background:accumulate"
         d="m 330.1929,133.99999 c -5.61538,0 -6.21958,0.57678 -6.19206,6.20352 v 7.79648 7.79648 c -0.0276,5.62673 0.57668,6.20351 6.19206,6.20351 h 11.615 c 5.6154,0 6.19208,-0.5767 6.19208,-6.20351 v -7.79648 -7.79648 c 0,-5.6268 -0.5767,-6.20352 -6.19208,-6.20352 z"
         id="path961"
         inkscape:connector-curvature="0"
         sodipodi:nodetypes="scccssscsss" />
    </clipPath>
    <linearGradient
       id="linearGradient15606-5">
      <stop
         style="stop-color: rgb(255, 255, 255); stop-opacity: 0.588235;"
         offset="0"
         id="stop15608-1" />
      <stop
         style="stop-color: rgb(255, 255, 255); stop-opacity: 0.862745;"
         offset="1"
         id="stop15610-5-7" />
    </linearGradient>
    <linearGradient
       id="linearGradient2129">
      <stop
         offset="0"
         style="stop-color:#dc195b;stop-opacity:1;"
         id="stop2125" />
      <stop
         offset="1"
         style="stop-color:#a91326;stop-opacity:1;"
         id="stop2127" />
    </linearGradient>
    <linearGradient
       id="linearGradient4416">
      <stop
         offset="0"
         style="stop-color:#d21b58;stop-opacity:1;"
         id="stop4412" />
      <stop
         offset="1"
         style="stop-color:#a91326;stop-opacity:1;"
         id="stop4414" />
    </linearGradient>
    <linearGradient
       id="linearGradient2086">
      <stop
         offset="0"
         style="stop-color:#eb4780;stop-opacity:1;"
         id="stop2082" />
      <stop
         offset="1"
         style="stop-color:#ae1327;stop-opacity:1;"
         id="stop2084" />
    </linearGradient>
    <linearGradient
       inkscape:collect="always"
       xlink:href="#linearGradient2129"
       id="linearGradient924"
       gradientUnits="userSpaceOnUse"
       gradientTransform="matrix(0,-0.07466265,0.07508952,0,-8.0927518,34.45455)"
       x1="52.965439"
       y1="401.42953"
       x2="441.37918"
       y2="240.30251" />
    <linearGradient
       inkscape:collect="always"
       xlink:href="#linearGradient4338"
       id="linearGradient924-3"
       gradientUnits="userSpaceOnUse"
       gradientTransform="matrix(0,-0.06178978,0.06007161,0,-3.2741118,31.27272)"
       x1="441.37912"
       y1="240.3089"
       x2="52.965229"
       y2="401.43906" />
    <linearGradient
       inkscape:collect="always"
       id="linearGradient4338">
      <stop
         style="stop-color:#f2f2f2;stop-opacity:1"
         offset="0"
         id="stop4340" />
      <stop
         style="stop-color:#f9f9f9;stop-opacity:1"
         offset="1"
         id="stop4342" />
    </linearGradient>
    <linearGradient
       inkscape:collect="always"
       xlink:href="#linearGradient15606-5"
       id="linearGradient54821"
       gradientUnits="userSpaceOnUse"
       x1="3618.4375"
       y1="-758.63782"
       x2="3618.4375"
       y2="-772.63782"
       gradientTransform="translate(-3605.9998,784.63782)" />
    <linearGradient
       inkscape:collect="always"
       xlink:href="#linearGradient4416"
       id="linearGradient8363"
       gradientUnits="userSpaceOnUse"
       x1="3716.1616"
       y1="694.4494"
       x2="3716.1616"
       y2="700.5351"
       gradientTransform="matrix(1.50411,0,0,1.50411,-5574.8986,-1030.5322)" />
    <linearGradient
       inkscape:collect="always"
       xlink:href="#linearGradient927"
       id="linearGradient969"
       x1="336"
       y1="134"
       x2="336"
       y2="162"
       gradientUnits="userSpaceOnUse"
       gradientTransform="translate(-319.99951,-132)" />
    <linearGradient
       inkscape:collect="always"
       id="linearGradient927">
      <stop
         style="stop-color:#ffffff;stop-opacity:1;"
         offset="0"
         id="stop923" />
      <stop
         id="stop933"
         offset="0.125"
         style="stop-color:#ffffff;stop-opacity:0.09803922" />
      <stop
         id="stop931"
         offset="0.92500001"
         style="stop-color:#ffffff;stop-opacity:0.09803922" />
      <stop
         style="stop-color:#ffffff;stop-opacity:0.49803922"
         offset="1"
         id="stop925" />
    </linearGradient>
    <linearGradient
       inkscape:collect="always"
       xlink:href="#linearGradient2086"
       id="linearGradient9085"
       x1="342.51642"
       y1="139.4836"
       x2="345"
       y2="137"
       gradientUnits="userSpaceOnUse"
       gradientTransform="translate(-319.99951,-132)" />
    <linearGradient
       inkscape:collect="always"
       xlink:href="#linearGradient2086"
       id="linearGradient9077"
       x1="342.51639"
       y1="139.48357"
       x2="344.99997"
       y2="136.99997"
       gradientUnits="userSpaceOnUse"
       gradientTransform="translate(-319.99951,-132)" />
  </defs>
  <sodipodi:namedview
     pagecolor="#ffffff"
     bordercolor="#666666"
     borderopacity="1"
     objecttolerance="10"
     gridtolerance="10"
     guidetolerance="10"
     inkscape:pageopacity="0"
     inkscape:pageshadow="2"
     inkscape:window-width="1920"
     inkscape:window-height="1016"
     id="namedview33"
     showgrid="false"
     inkscape:zoom="7.375"
     inkscape:cx="16.067797"
     inkscape:cy="16.067797"
     inkscape:window-x="0"
     inkscape:window-y="0"
     inkscape:window-maximized="1"
     inkscape:current-layer="svg31"
     inkscape:showpageshadow="2"
     inkscape:pagecheckerboard="0"
     inkscape:deskcolor="#d1d1d1" />
  <linearGradient
     id="a"
     gradientTransform="matrix(.49999977 0 0 .48275841 384.57144 516.34974)"
     gradientUnits="userSpaceOnUse"
     x1="32"
     x2="32"
     y1="61"
     y2="3">
    <stop
       offset="0"
       stop-color="#5e6b78"
       id="stop2" />
    <stop
       offset="1"
       stop-color="#768492"
       id="stop4" />
  </linearGradient>
  <linearGradient
     id="b"
     gradientUnits="userSpaceOnUse"
     x1="407.950735"
     x2="407.950735"
     y1="545.556623"
     y2="538.798005">
    <stop
       offset="0"
       stop-color="#dedede"
       id="stop7" />
    <stop
       offset="1"
       stop-color="#fbfbfb"
       id="stop9" />
  </linearGradient>
  <linearGradient
     id="c"
     gradientTransform="matrix(.48275841 0 0 -.48275841 378.50247 553.76351)"
     gradientUnits="userSpaceOnUse"
     x1="54"
     x2="39.500008"
     y1="31"
     y2="16.500048">
    <stop
       offset="0"
       stop-color="#383e51"
       id="stop12" />
    <stop
       offset="1"
       stop-color="#655c6f"
       stop-opacity="0"
       id="stop14" />
  </linearGradient>
  <path
     style="color:#000000;font-style:normal;font-variant:normal;font-weight:normal;font-stretch:normal;font-size:medium;line-height:normal;font-family:sans-serif;font-variant-ligatures:normal;font-variant-position:normal;font-variant-caps:normal;font-variant-numeric:normal;font-variant-alternates:normal;font-feature-settings:normal;text-indent:0;text-align:start;text-decoration:none;text-decoration-line:none;text-decoration-style:solid;text-decoration-color:#000000;letter-spacing:normal;word-spacing:normal;text-transform:none;writing-mode:lr-tb;direction:ltr;text-orientation:mixed;dominant-baseline:auto;baseline-shift:baseline;text-anchor:start;white-space:normal;shape-padding:0;clip-rule:nonzero;display:inline;overflow:visible;visibility:visible;opacity:0.1;isolation:auto;mix-blend-mode:normal;color-interpolation:sRGB;color-interpolation-filters:linearRGB;solid-color:#000000;solid-opacity:1;vector-effect:none;fill:#000000;fill-opacity:1;fill-rule:nonzero;stroke:none;stroke-width:2;stroke-linecap:butt;stroke-linejoin:miter;stroke-miterlimit:4;stroke-dasharray:none;stroke-dashoffset:0;stroke-opacity:1;marker:none;color-rendering:auto;image-rendering:auto;shape-rendering:auto;text-rendering:auto;enable-background:accumulate"
     d="m 10.193848,2 c -1.4209598,0 -2.5488298,0.0308 -3.5058598,0.19141 -0.95703,0.16064 -1.79146,0.4726 -2.41211,1.09179 -0.62065,0.61919 -0.93647,1.45612 -1.0957,2.41407 -0.15924,0.95795 -0.18666,2.08705 -0.17969,3.51171 v 7.79102 7.79688 c -0.007,1.42131 0.0207,2.5495 0.17969,3.50585 0.15923,0.95796 0.47505,1.79488 1.0957,2.41407 0.62065,0.61919 1.45508,0.93115 2.41211,1.09179 0.95703,0.16065 2.0849,0.19141 3.5058598,0.19141 h 11.61523 c 1.42097,0 2.54669,-0.0307 3.50196,-0.19141 0.95527,-0.16075 1.78779,-0.47425 2.40625,-1.09375 0.61845,-0.6195 0.93134,-1.45363 1.09179,-2.41015 0.16046,-0.95653 0.19141,-2.08403 0.19141,-3.50781 v -7.79688 -8 l -7,-7 z"
     id="path999"
     inkscape:connector-curvature="0"
     sodipodi:nodetypes="scscccccscsscccscccs" />
  <path
     sodipodi:nodetypes="scccssscccs"
     inkscape:connector-curvature="0"
     id="path922"
     d="m 9.9514482,1.50001 c -5.84935,0 -6.47872,0.59738 -6.45005,6.42507 v 8.07493 8.07493 c -0.0288,5.82769 0.6007,6.42507 6.45005,6.42507 h 12.0989498 c 5.84937,0 6.45008,-0.5973 6.45008,-6.42507 v -8.07493 l 2e-5,-8.28571 -6.25,-6.21428 z"
     style="color:#000000;display:inline;overflow:visible;visibility:visible;fill:url(#linearGradient924);fill-opacity:1;fill-rule:nonzero;stroke:none;stroke-width:1;marker:none;enable-background:accumulate" />
  <path
     sodipodi:nodetypes="scccssscccs"
     inkscape:connector-curvature="0"
     id="path922-5"
     d="m 11.161238,4 c -5.1607498,0 -5.1607498,0 -5.1600298,5.3173 v 6.6827 6.6827 c -7.2e-4,5.3173 -7.2e-4,5.3173 5.1600298,5.3173 h 9.67917 c 5.16008,0 5.16006,0 5.16006,-5.3173 v -6.6827 l 2e-5,-8 -4,-4 z"
     style="color:#000000;display:inline;overflow:visible;visibility:visible;fill:url(#linearGradient924-3);fill-opacity:1;fill-rule:nonzero;stroke:none;stroke-width:1;marker:none;enable-background:accumulate" />
  <rect
     y="12.000001"
     x="8.0001526"
     height="14.000002"
     width="16"
     id="rect8291"
     style="display:inline;overflow:visible;visibility:visible;fill:url(#linearGradient54821);fill-opacity:1;fill-rule:nonzero;stroke:none;stroke-width:1;marker:none;enable-background:new" />
  <path
     id="rect8297"
     style="display:inline;overflow:visible;visibility:visible;fill:#f2b5b5;fill-opacity:1;fill-rule:nonzero;stroke:none;stroke-width:1;marker:none;enable-background:new"
     d="m 8.0004882,12 v 1 11 1 h 1 14.9999998 v -1 -12 h -14.9999998 z m 1,1 h 13.9999998 v 11 h -13.9999998 z" />
  <path
     id="path8333"
     style="font-style:normal;font-variant:normal;font-weight:normal;font-stretch:normal;font-size:8px;font-family:Symbol;display:inline;fill:url(#linearGradient8363);fill-opacity:1;stroke:none;stroke-width:1.50411;enable-background:new"
     d="m 14.492678,13.99609 -1.90039,7 -1.59961,-4 h -1.9999998 v 1 h 1 l 1.9999998,5 h 1.40039 l 2.09961,-7.90039 h 5.5 v 0.90039 h 1 v -2 z m 2.50586,3.85352 a 0.64999998,0.64999998 0 0 0 -0.45899,0.19141 0.64999998,0.64999998 0 0 0 0,0.91992 l 1.54102,1.53906 -1.54102,1.54102 a 0.64999998,0.64999998 0 0 0 0,0.91796 0.64999998,0.64999998 0 0 0 0.91992,0 l 1.54102,-1.53906 1.53906,1.53906 a 0.64999998,0.64999998 0 0 0 0.91992,0 0.64999998,0.64999998 0 0 0 0,-0.91796 l -1.54101,-1.54102 1.54101,-1.53906 a 0.64999998,0.64999998 0 0 0 0,-0.91992 0.64999998,0.64999998 0 0 0 -0.91992,0 l -1.53906,1.54101 -1.54102,-1.54101 a 0.64999998,0.64999998 0 0 0 -0.46093,-0.19141 z" />
  <path
     style="color:#000000;font-style:normal;font-variant:normal;font-weight:normal;font-stretch:normal;font-size:medium;line-height:normal;font-family:sans-serif;font-variant-ligatures:normal;font-variant-position:normal;font-variant-caps:normal;font-variant-numeric:normal;font-variant-alternates:normal;font-feature-settings:normal;text-indent:0;text-align:start;text-decoration:none;text-decoration-line:none;text-decoration-style:solid;text-decoration-color:#000000;letter-spacing:normal;word-spacing:normal;text-transform:none;writing-mode:lr-tb;direction:ltr;text-orientation:mixed;dominant-baseline:auto;baseline-shift:baseline;text-anchor:start;white-space:normal;shape-padding:0;clip-rule:nonzero;display:inline;overflow:visible;visibility:visible;opacity:0.4;isolation:auto;mix-blend-mode:normal;color-interpolation:sRGB;color-interpolation-filters:linearRGB;solid-color:#000000;solid-opacity:1;vector-effect:none;fill:#000000;fill-opacity:1;fill-rule:nonzero;stroke:none;stroke-width:2;stroke-linecap:butt;stroke-linejoin:miter;stroke-miterlimit:4;stroke-dasharray:none;stroke-dashoffset:0;stroke-opacity:1;marker:none;color-rendering:auto;image-rendering:auto;shape-rendering:auto;text-rendering:auto;enable-background:accumulate"
     d="m 10.193848,1 c -1.4209598,0 -2.5488298,0.0308 -3.5058598,0.19141 -0.95703,0.16064 -1.79146,0.4726 -2.41211,1.09179 -0.62065,0.61919 -0.93647,1.45612 -1.0957,2.41407 -0.15924,0.95795 -0.18666,2.08705 -0.17969,3.51171 v 7.79102 7.79688 c -0.007,1.42131 0.0207,2.5495 0.17969,3.50585 0.15923,0.95796 0.47505,1.79488 1.0957,2.41407 0.62065,0.61919 1.45508,0.93115 2.41211,1.09179 0.95703,0.16065 2.0849,0.19141 3.5058598,0.19141 h 11.61523 c 1.42097,0 2.54669,-0.0307 3.50196,-0.19141 0.95527,-0.16075 1.78779,-0.47425 2.40625,-1.09375 0.61845,-0.6195 0.93134,-1.45363 1.09179,-2.41015 0.16046,-0.95653 0.19141,-2.08404 0.19141,-3.50781 v -7.79688 -8.21094 l -6.77734,-6.78906 z m 0,1 h 11.61523 l 6.19141,6.20312 v 7.79688 7.79688 c 0,5.62681 -0.57601,6.20312 -6.19141,6.20312 h -11.61523 c -5.6153798,0 -6.2209598,-0.57639 -6.1933598,-6.20312 v -7.79688 -7.79688 c -0.0275,-5.62674 0.57798,-6.20312 6.1933598,-6.20312 z"
     id="path930"
     inkscape:connector-curvature="0"
     sodipodi:nodetypes="scscccccscsscccscccsscccssscccs" />
  <path
     style="color:#000000;font-style:normal;font-variant:normal;font-weight:normal;font-stretch:normal;font-size:medium;line-height:normal;font-family:sans-serif;font-variant-ligatures:normal;font-variant-position:normal;font-variant-caps:normal;font-variant-numeric:normal;font-variant-alternates:normal;font-feature-settings:normal;text-indent:0;text-align:start;text-decoration:none;text-decoration-line:none;text-decoration-style:solid;text-decoration-color:#000000;letter-spacing:normal;word-spacing:normal;text-transform:none;writing-mode:lr-tb;direction:ltr;text-orientation:mixed;dominant-baseline:auto;baseline-shift:baseline;text-anchor:start;white-space:normal;shape-padding:0;clip-rule:nonzero;display:inline;overflow:visible;visibility:visible;opacity:0.4;isolation:auto;mix-blend-mode:normal;color-interpolation:sRGB;color-interpolation-filters:linearRGB;solid-color:#000000;solid-opacity:1;vector-effect:none;fill:url(#linearGradient969);fill-opacity:1;fill-rule:nonzero;stroke:none;stroke-width:2;stroke-linecap:butt;stroke-linejoin:miter;stroke-miterlimit:4;stroke-dasharray:none;stroke-dashoffset:0;stroke-opacity:1;marker:none;color-rendering:auto;image-rendering:auto;shape-rendering:auto;text-rendering:auto;enable-background:accumulate"
     clip-path="none"
     d="m 10.193848,2 c -5.6153798,0 -6.2208798,0.57638 -6.1933598,6.20312 v 7.79688 7.79688 c -0.0276,5.62673 0.57798,6.20312 6.1933598,6.20312 h 11.61523 c 5.6154,0 6.19141,-0.57631 6.19141,-6.20312 v -7.79688 -7.79688 l -6.19141,-6.20312 z m 0,1 h 11.61523 l 5.19141,5.20312 v 7.79688 7.79688 c 0,1.38962 -0.0409,2.44358 -0.16406,3.17773 -0.12315,0.73414 -0.30557,1.1001 -0.53321,1.32812 -0.22764,0.22803 -0.59203,0.40999 -1.32421,0.53321 -0.73219,0.12321 -1.78319,0.16406 -3.16993,0.16406 h -11.61523 c -1.3867298,0 -2.4410498,-0.0407 -3.1757798,-0.16406 -0.73474,-0.12334 -1.10119,-0.30681 -1.33008,-0.53516 -0.22889,-0.22835 -0.41141,-0.59346 -0.5332,-1.32617 -0.12179,-0.73271 -0.16111,-1.78513 -0.1543,-3.17383 v -0.002 -7.79878 -7.79883 -0.002 c -0.007,-1.38871 0.0325,-2.44307 0.1543,-3.17578 0.12179,-0.73272 0.30431,-1.09587 0.5332,-1.32422 0.22889,-0.22835 0.59535,-0.41182 1.33008,-0.53516 0.73473,-0.12323 1.78905,-0.16401 3.1757798,-0.16401 z"
     id="path939"
     inkscape:connector-curvature="0"
     sodipodi:nodetypes="scccssscccsscccscccsscssccccccscs" />
  <path
     inkscape:connector-curvature="0"
     style="color:#000000;display:inline;overflow:visible;visibility:visible;opacity:0.6;fill:url(#linearGradient9085);fill-opacity:1;fill-rule:nonzero;stroke:none;stroke-width:0.250023;marker:none;enable-background:accumulate"
     d="m 28.000488,9 v -1 l -6,-6 h -1 v 2.67849 0.10263 0.0551 c 0,3.62217 0.48488,4.1807 4.11536,4.16294 z"
     id="rect4158-0-3-62-2-3"
     sodipodi:nodetypes="ccccccscc" />
  <path
     inkscape:connector-curvature="0"
     style="color:#000000;display:inline;overflow:visible;visibility:visible;fill:url(#linearGradient9077);fill-opacity:1;fill-rule:nonzero;stroke:none;stroke-width:0.250023;marker:none;enable-background:accumulate"
     d="m 28.000488,7.99922 -6,-5.99923 v 2.22536 0.0968 0.0519 c 0,3.41519 0.15739,3.64187 3.58042,3.62513 z"
     id="rect4158-0-3-62-6"
     sodipodi:nodetypes="ccccscc" />
</svg>
