<?xml version="1.0" encoding="UTF-8" standalone="no"?>
<svg
   viewBox="0 0 16 16"
   version="1.1"
   id="svg4"
   sodipodi:docname="odg_16_8.svg"
   inkscape:version="1.1 (ce6663b3b7, 2021-05-25)"
   inkscape:export-filename="/home/jupiter007/Libreoffice yaru theme/build/res/odg_16_8.png"
   inkscape:export-xdpi="95"
   inkscape:export-ydpi="95"
   xmlns:inkscape="http://www.inkscape.org/namespaces/inkscape"
   xmlns:sodipodi="http://sodipodi.sourceforge.net/DTD/sodipodi-0.dtd"
   xmlns:xlink="http://www.w3.org/1999/xlink"
   xmlns="http://www.w3.org/2000/svg"
   xmlns:svg="http://www.w3.org/2000/svg"
   xmlns:rdf="http://www.w3.org/1999/02/22-rdf-syntax-ns#"
   xmlns:cc="http://creativecommons.org/ns#"
   xmlns:dc="http://purl.org/dc/elements/1.1/">
  <metadata
     id="metadata10">
    <rdf:RDF>
      <cc:Work
         rdf:about="">
        <dc:format>image/svg+xml</dc:format>
        <dc:type
           rdf:resource="http://purl.org/dc/dcmitype/StillImage" />
      </cc:Work>
    </rdf:RDF>
  </metadata>
  <defs
     id="defs8">
    <clipPath
       clipPathUnits="userSpaceOnUse"
       id="clipPath983-6">
      <path
         sodipodi:nodetypes="scccssscsss"
         inkscape:connector-curvature="0"
         id="path985-0"
         d="m 325.09646,237 c -2.80769,0 -3.10979,0.28839 -3.09603,3.10176 V 244 v 3.89824 c -0.0138,2.81337 0.28834,3.10176 3.09603,3.10176 h 5.8075 C 333.71166,251 334,250.71165 334,247.89824 V 244 240.10176 C 334,237.28836 333.71165,237 330.90396,237 Z"
         style="color:#000000;display:inline;overflow:visible;visibility:visible;opacity:1;fill:#46a926;fill-opacity:1;fill-rule:nonzero;stroke:none;stroke-width:2;stroke-miterlimit:4;stroke-dasharray:none;stroke-opacity:1;marker:none;enable-background:accumulate" />
    </clipPath>
    <linearGradient
       id="linearGradient13214">
      <stop
         id="stop13216"
         style="stop-color:#18a303;stop-opacity:1"
         offset="0" />
      <stop
         id="stop13218"
         style="stop-color:#106802;stop-opacity:1"
         offset="1" />
    </linearGradient>
    <linearGradient
       inkscape:collect="always"
       xlink:href="#linearGradient927"
       id="linearGradient993"
       x1="328"
       y1="237"
       x2="328"
       y2="251"
       gradientUnits="userSpaceOnUse" />
    <linearGradient
       inkscape:collect="always"
       id="linearGradient927">
      <stop
         style="stop-color:#ffffff;stop-opacity:1;"
         offset="0"
         id="stop923" />
      <stop
         id="stop933"
         offset="0.125"
         style="stop-color:#ffffff;stop-opacity:0.09803922" />
      <stop
         id="stop931"
         offset="0.92500001"
         style="stop-color:#ffffff;stop-opacity:0.09803922" />
      <stop
         style="stop-color:#ffffff;stop-opacity:0.49803922"
         offset="1"
         id="stop925" />
    </linearGradient>
    <clipPath
       clipPathUnits="userSpaceOnUse"
       id="clipPath983-6-9">
      <path
         sodipodi:nodetypes="scccssscsss"
         inkscape:connector-curvature="0"
         id="path985-0-2"
         d="m 325.09646,237 c -2.80769,0 -3.10979,0.28839 -3.09603,3.10176 V 244 v 3.89824 c -0.0138,2.81337 0.28834,3.10176 3.09603,3.10176 h 5.8075 C 333.71166,251 334,250.71165 334,247.89824 V 244 240.10176 C 334,237.28836 333.71165,237 330.90396,237 Z"
         style="color:#000000;display:inline;overflow:visible;visibility:visible;opacity:1;fill:#46a926;fill-opacity:1;fill-rule:nonzero;stroke:none;stroke-width:2;stroke-miterlimit:4;stroke-dasharray:none;stroke-opacity:1;marker:none;enable-background:accumulate" />
    </clipPath>
    <linearGradient
       id="linearGradient10125-8">
      <stop
         style="stop-color: rgb(201, 156, 0); stop-opacity: 1;"
         offset="0"
         id="stop10127-5" />
      <stop
         style="stop-color: rgb(135, 105, 0); stop-opacity: 1;"
         offset="1"
         id="stop10129-5" />
    </linearGradient>
    <linearGradient
       gradientTransform="translate(-319.99947,-236)"
       inkscape:collect="always"
       xlink:href="#linearGradient4338"
       id="linearGradient1309"
       x1="332"
       y1="236"
       x2="324"
       y2="252"
       gradientUnits="userSpaceOnUse" />
    <linearGradient
       inkscape:collect="always"
       id="linearGradient4338">
      <stop
         style="stop-color:#f2f2f2;stop-opacity:1"
         offset="0"
         id="stop4340" />
      <stop
         style="stop-color:#ffffff;stop-opacity:1"
         offset="1"
         id="stop4342" />
    </linearGradient>
    <linearGradient
       inkscape:collect="always"
       xlink:href="#linearGradient7707"
       id="linearGradient920"
       gradientUnits="userSpaceOnUse"
       gradientTransform="matrix(0,-0.03604403,-0.03604301,0,19.564848,16.90909)"
       x1="39.093575"
       y1="240.26906"
       x2="455.25125"
       y2="401.58029" />
    <linearGradient
       id="linearGradient7707">
      <stop
         offset="0"
         style="stop-color:#d98027;stop-opacity:1"
         id="stop7703" />
      <stop
         offset="1"
         style="stop-color:#be5e0f;stop-opacity:1"
         id="stop7705" />
    </linearGradient>
  </defs>
  <sodipodi:namedview
     pagecolor="#ffffff"
     bordercolor="#666666"
     borderopacity="1"
     objecttolerance="10"
     gridtolerance="10"
     guidetolerance="10"
     inkscape:pageopacity="0"
     inkscape:pageshadow="2"
     inkscape:window-width="1920"
     inkscape:window-height="1016"
     id="namedview6"
     showgrid="true"
     inkscape:zoom="29.5"
     inkscape:cx="0.40677966"
     inkscape:cy="9.1016949"
     inkscape:window-x="0"
     inkscape:window-y="27"
     inkscape:window-maximized="1"
     inkscape:current-layer="svg4"
     inkscape:pagecheckerboard="0">
    <inkscape:grid
       type="xygrid"
       id="grid426" />
  </sodipodi:namedview>
  <path
     sodipodi:nodetypes="scscccccccsscscscscscss"
     inkscape:connector-curvature="0"
     id="path997"
     d="m 5.0957288,1 c -0.71904,0 -1.30185,0.0139 -1.83593,0.10352 -0.53409,0.0897 -1.0683,0.27628 -1.4765701,0.68359 -0.40826,0.4073001 -0.59657,0.9432301 -0.68554,1.4785101 -0.089,0.53529 -0.10119,1.12048 -0.0977,1.8418 v 2.89258 3.8984399 c -0.003,0.71816 0.009,1.30235 0.0977,1.83594 0.089,0.53528 0.27727,1.07121 0.68554,1.47851 0.4082701,0.40731 0.9424801,0.59394 1.4765701,0.68359 0.53408,0.0897 1.11689,0.10352 1.83593,0.10352 h 5.8086002 c 0.71904,0 1.30058,-0.0137 1.83398,-0.10352 0.53341,-0.0898 1.06768,-0.27792 1.47461,-0.68554 0.40693,-0.40762 0.59404,-0.94271 0.68359,-1.47656 0.08956,-0.53386 0.10352,-1.11551 0.10352,-1.83594 v -3.8984399 -2.89844 c 0,-0.72043 -0.014,-1.30208 -0.10352,-1.83594 -0.0895,-0.53385 -0.27666,-1.06894 -0.68359,-1.4765601 -0.40693,-0.40762 -0.9412,-0.59578 -1.47461,-0.68554 -0.5334,-0.08977 -1.11494,-0.10352 -1.83398,-0.10352 z"
     style="color:#000000;font-style:normal;font-variant:normal;font-weight:normal;font-stretch:normal;font-size:medium;line-height:normal;font-family:sans-serif;font-variant-ligatures:normal;font-variant-position:normal;font-variant-caps:normal;font-variant-numeric:normal;font-variant-alternates:normal;font-feature-settings:normal;text-indent:0;text-align:start;text-decoration:none;text-decoration-line:none;text-decoration-style:solid;text-decoration-color:#000000;letter-spacing:normal;word-spacing:normal;text-transform:none;writing-mode:lr-tb;direction:ltr;text-orientation:mixed;dominant-baseline:auto;baseline-shift:baseline;text-anchor:start;white-space:normal;shape-padding:0;clip-rule:nonzero;display:inline;overflow:visible;visibility:visible;opacity:0.1;isolation:auto;mix-blend-mode:normal;color-interpolation:sRGB;color-interpolation-filters:linearRGB;solid-color:#000000;solid-opacity:1;vector-effect:none;fill:#000000;fill-opacity:1;fill-rule:nonzero;stroke:none;stroke-width:2;stroke-linecap:butt;stroke-linejoin:miter;stroke-miterlimit:4;stroke-dasharray:none;stroke-dashoffset:0;stroke-opacity:1;marker:none;color-rendering:auto;image-rendering:auto;shape-rendering:auto;text-rendering:auto;enable-background:accumulate" />
  <path
     inkscape:connector-curvature="0"
     id="path918"
     d="m 10.904379,0.50000004 c 0.71048,0 1.27344,0.0154 1.75195,0.0957 0.47851,0.0803 0.89671,0.23728 1.20703,0.54687996 0.31032,0.30959 0.46726,0.7261 0.54688,1.2050801 0.0796,0.47897 0.0933,1.04352 0.0898,1.75586 v 3.89648 3.8984399 c 0.003,0.71121 -0.0103,1.27546 -0.0898,1.7539 -0.0796,0.47898 -0.23655,0.89549 -0.54688,1.20508 -0.31033,0.3096 -0.72851,0.46655 -1.20703,0.54688 -0.47852,0.0803 -1.04147,0.0957 -1.75195,0.0957 h -5.8086002 c -0.71048,0 -1.27236,-0.0153 -1.75,-0.0957 -0.47763,-0.0804 -0.89584,-0.23713 -1.20508,-0.54688 -0.3092101,-0.30975 -0.4646901,-0.72681 -0.5449201,-1.20508 -0.0802,-0.47826 -0.0957,-1.04201 -0.0957,-1.7539 v -3.8984399 -3.89844 c 0,-0.71189 0.0155,-1.27564 0.0957,-1.7539 0.0802,-0.4782701 0.2357,-0.8953301 0.5449201,-1.2050801 0.30924,-0.30974996 0.72745,-0.46649996 1.20508,-0.54687996 0.47764,-0.0804 1.03952,-0.0957 1.75,-0.0957 z"
     style="color:#000000;display:inline;overflow:visible;visibility:visible;fill:url(#linearGradient920);fill-opacity:1;fill-rule:nonzero;stroke:none;stroke-width:1;marker:none;enable-background:accumulate" />
  <path
     id="path1291"
     d="m 5.0962288,2.0000001 c -0.6888,0 -1.1839,0.0205 -1.5039,0.0742 -0.30449,0.0511 -0.38369,0.11806 -0.39649,0.13086 -0.0131,0.0131 -0.0746,0.0855 -0.125,0.38867 -0.0529,0.31839 -0.0733,0.81274 -0.0703,1.50195 v 0.004 3.90039 3.9023399 0.002 c -0.003,0.68916 0.0176,1.18495 0.0703,1.50195 0.0504,0.30317 0.1119,0.37557 0.125,0.38867 0.0128,0.0128 0.0918,0.0798 0.39649,0.13086 0.32002,0.0537 0.8151,0.0742 1.5039,0.0742 h 5.8086002 c 0.68894,0 1.18348,-0.0206 1.50195,-0.0742 0.30433,-0.0512 0.38043,-0.1186 0.39063,-0.1289 0.0112,-0.0112 0.0774,-0.0858 0.1289,-0.39258 0.0536,-0.31974 0.0742,-0.81575 0.0742,-1.50586 v -3.8985499 -3 l -3,-3 z"
     style="color:#000000;font-style:normal;font-variant:normal;font-weight:normal;font-stretch:normal;font-size:medium;line-height:normal;font-family:sans-serif;font-variant-ligatures:normal;font-variant-position:normal;font-variant-caps:normal;font-variant-numeric:normal;font-variant-alternates:normal;font-feature-settings:normal;text-indent:0;text-align:start;text-decoration:none;text-decoration-line:none;text-decoration-style:solid;text-decoration-color:#000000;letter-spacing:normal;word-spacing:normal;text-transform:none;writing-mode:lr-tb;direction:ltr;text-orientation:mixed;dominant-baseline:auto;baseline-shift:baseline;text-anchor:start;white-space:normal;shape-padding:0;clip-rule:nonzero;display:inline;overflow:visible;visibility:visible;isolation:auto;mix-blend-mode:normal;color-interpolation:sRGB;color-interpolation-filters:linearRGB;solid-color:#000000;solid-opacity:1;vector-effect:none;fill:url(#linearGradient1309);fill-opacity:1;fill-rule:nonzero;stroke:none;stroke-width:3;stroke-linecap:butt;stroke-linejoin:miter;stroke-miterlimit:4;stroke-dasharray:none;stroke-dashoffset:0;stroke-opacity:1;marker:none;color-rendering:auto;image-rendering:auto;shape-rendering:auto;text-rendering:auto;enable-background:accumulate"
     inkscape:connector-curvature="0" />
  <path
     inkscape:connector-curvature="0"
     id="path1016"
     d="m 2.0005288,8.0000001 v 3.8984399 c -0.0138,2.81337 0.28801,3.10156 3.0957,3.10156 h 5.8086002 c 2.8077,0 3.0957,-0.28815 3.0957,-3.10156 v -3.8984399 z"
     style="color:#000000;display:inline;overflow:visible;visibility:visible;opacity:0.1;fill:#ffffff;fill-opacity:1;fill-rule:nonzero;stroke:none;stroke-width:1;marker:none;enable-background:accumulate" />
  <path
     inkscape:connector-curvature="0"
     style="color:#000000;display:inline;overflow:visible;visibility:visible;opacity:0.3;fill:none;fill-opacity:1;fill-rule:nonzero;stroke:#000000;stroke-width:1;stroke-opacity:1;marker:none;enable-background:accumulate"
     d="m 5.0962288,0.50000004 c -0.71048,0 -1.27344,0.0154 -1.75195,0.0957 -0.47851,0.0803 -0.89671,0.23728 -1.20703,0.54687996 -0.3103201,0.30959 -0.4672601,0.7261 -0.5468801,1.2050801 -0.0796,0.47897 -0.0933,1.04352 -0.0898,1.75586 v 3.89648 3.8984399 c -0.003,0.71121 0.0103,1.27546 0.0898,1.7539 0.0796,0.47898 0.23655,0.89549 0.5468801,1.20508 0.31033,0.3096 0.72851,0.46655 1.20703,0.54688 0.47852,0.0803 1.04147,0.0957 1.75195,0.0957 h 5.8086002 c 0.71048,0 1.27236,-0.0153 1.75,-0.0957 0.47763,-0.0804 0.89584,-0.23713 1.20508,-0.54688 0.30921,-0.30975 0.46469,-0.72681 0.54492,-1.20508 0.0802,-0.47826 0.0957,-1.04201 0.0957,-1.7539 v -3.8984399 -3.89844 c 0,-0.71189 -0.0155,-1.27564 -0.0957,-1.7539 -0.0802,-0.4782701 -0.2357,-0.8953301 -0.54492,-1.2050801 -0.30924,-0.30974996 -0.72745,-0.46649996 -1.20508,-0.54687996 -0.47764,-0.0804 -1.03952,-0.0957 -1.75,-0.0957 z"
     id="path1087" />
  <path
     clip-path="url(#clipPath983-6-9)"
     sodipodi:nodetypes="scccssscsss"
     inkscape:connector-curvature="0"
     id="path937"
     d="m 325.09646,237 c -2.80769,0 -3.10979,0.28839 -3.09603,3.10176 v 3.89824 3.89824 c -0.0138,2.81337 0.28834,3.10176 3.09603,3.10176 h 5.8075 c 2.8077,0 3.09604,-0.28835 3.09604,-3.10176 v -3.89824 -3.89824 c 0,-2.8134 -0.28835,-3.10176 -3.09604,-3.10176 z"
     style="color:#000000;display:inline;overflow:visible;visibility:visible;opacity:0.3;fill:none;fill-opacity:1;fill-rule:nonzero;stroke:url(#linearGradient993);stroke-width:2;stroke-miterlimit:4;stroke-dasharray:none;stroke-opacity:1;marker:none;enable-background:accumulate"
     transform="translate(-319.99947,-236)" />
  <g
     transform="translate(-733.992,-230)"
     id="g92"
     style="clip-rule:evenodd;display:inline;fill-rule:evenodd;enable-background:new">
    <path
       d="m 745.492,237.487 -5.5,5 h 5.5 z"
       style="fill:#f7d260;fill-rule:nonzero;stroke:#e9b913;stroke-width:1px;stroke-linejoin:round"
       id="path90" />
  </g>
  <g
     transform="translate(-733.992,-230)"
     id="g96"
     style="clip-rule:evenodd;display:inline;fill-rule:evenodd;enable-background:new">
    <path
       d="m 745.336,237 c -0.071,0.027 -0.136,0.069 -0.188,0.125 l -5.5,5 c -0.158,0.139 -0.211,0.362 -0.134,0.558 0.076,0.196 0.268,0.322 0.478,0.317 h 5.5 c 0.276,0 0.5,-0.224 0.5,-0.5 v -5 c 0.008,-0.165 -0.065,-0.323 -0.196,-0.423 -0.132,-0.1 -0.304,-0.129 -0.46,-0.077 z m -0.344,1.625 v 3.375 h -3.719 z"
       style="fill:#c99c00;fill-rule:nonzero"
       id="path94" />
  </g>
  <g
     transform="translate(-733.992,-230)"
     id="g100"
     style="clip-rule:evenodd;display:inline;fill-rule:evenodd;enable-background:new">
    <path
       d="m 739.36,240.845 c -0.36,-0.314 -0.623,-0.723 -0.758,-1.181 -0.135,-0.458 -0.136,-0.945 -0.004,-1.404 0.132,-0.459 0.393,-0.87 0.751,-1.186 0.357,-0.316 0.798,-0.523 1.27,-0.597 0.471,-0.074 0.954,-0.012 1.392,0.179 0.437,0.191 0.811,0.503 1.078,0.899"
       style="fill:#f0c46f;fill-rule:nonzero"
       id="path98" />
  </g>
  <g
     transform="translate(-733.992,-230)"
     id="g104"
     style="clip-rule:evenodd;display:inline;fill-rule:evenodd;enable-background:new">
    <path
       d="m 739.36,240.845 c -0.36,-0.314 -0.623,-0.723 -0.758,-1.181 -0.135,-0.458 -0.136,-0.945 -0.004,-1.404 0.132,-0.459 0.393,-0.87 0.751,-1.186 0.357,-0.316 0.798,-0.523 1.27,-0.597 0.471,-0.074 0.954,-0.012 1.392,0.179 0.437,0.191 0.811,0.503 1.078,0.899"
       style="fill:none;fill-rule:nonzero;stroke:#cb851d;stroke-width:1px;stroke-linecap:round;stroke-linejoin:round"
       id="path102" />
  </g>
</svg>
