<?xml version="1.0" encoding="UTF-8" standalone="no"?>
<svg
   viewBox="0 0 32 32"
   version="1.1"
   id="svg4"
   sodipodi:docname="ots_32.svg"
   inkscape:export-filename="/home/jupiter007/Libreoffice yaru theme fullcolor/build/res/ots_32_8.png"
   inkscape:export-xdpi="96"
   inkscape:export-ydpi="96"
   inkscape:version="1.2 (1:1.2.1+202207142221+cd75a1ee6d)"
   xmlns:inkscape="http://www.inkscape.org/namespaces/inkscape"
   xmlns:sodipodi="http://sodipodi.sourceforge.net/DTD/sodipodi-0.dtd"
   xmlns:xlink="http://www.w3.org/1999/xlink"
   xmlns="http://www.w3.org/2000/svg"
   xmlns:svg="http://www.w3.org/2000/svg"
   xmlns:rdf="http://www.w3.org/1999/02/22-rdf-syntax-ns#"
   xmlns:cc="http://creativecommons.org/ns#"
   xmlns:dc="http://purl.org/dc/elements/1.1/">
  <metadata
     id="metadata10">
    <rdf:RDF>
      <cc:Work
         rdf:about="">
        <dc:format>image/svg+xml</dc:format>
        <dc:type
           rdf:resource="http://purl.org/dc/dcmitype/StillImage" />
      </cc:Work>
    </rdf:RDF>
  </metadata>
  <defs
     id="defs8">
    <linearGradient
       id="linearGradient7723">
      <stop
         id="stop7721"
         style="stop-color:#2e851b;stop-opacity:1"
         offset="0" />
      <stop
         id="stop7715"
         style="stop-color:#18a003;stop-opacity:1"
         offset="1" />
    </linearGradient>
    <linearGradient
       id="linearGradient13214">
      <stop
         id="stop13216"
         style="stop-color:#18a303;stop-opacity:1"
         offset="0" />
      <stop
         id="stop13218"
         style="stop-color:#106802;stop-opacity:1"
         offset="1" />
    </linearGradient>
    <linearGradient
       id="linearGradient15606-6">
      <stop
         style="stop-color: rgb(255, 255, 255); stop-opacity: 0.588235;"
         offset="0"
         id="stop15608-8" />
      <stop
         style="stop-color: rgb(255, 255, 255); stop-opacity: 0.862745;"
         offset="1"
         id="stop15610-7" />
    </linearGradient>
    <clipPath
       clipPathUnits="userSpaceOnUse"
       id="clipPath959">
      <path
         style="color:#000000;display:inline;overflow:visible;visibility:visible;opacity:1;fill:#46a926;fill-opacity:1;fill-rule:nonzero;stroke:none;stroke-width:2;stroke-miterlimit:4;stroke-dasharray:none;stroke-opacity:1;marker:none;enable-background:accumulate"
         d="m 330.1929,133.99999 c -5.61538,0 -6.21958,0.57678 -6.19206,6.20352 v 7.79648 7.79648 c -0.0276,5.62673 0.57668,6.20351 6.19206,6.20351 h 11.615 c 5.6154,0 6.19208,-0.5767 6.19208,-6.20351 v -7.79648 -7.79648 c 0,-5.6268 -0.5767,-6.20352 -6.19208,-6.20352 z"
         id="path961"
         inkscape:connector-curvature="0"
         sodipodi:nodetypes="scccssscsss" />
    </clipPath>
    <linearGradient
       inkscape:collect="always"
       xlink:href="#linearGradient927"
       id="linearGradient969"
       x1="336"
       y1="134"
       x2="336"
       y2="162"
       gradientUnits="userSpaceOnUse"
       gradientTransform="translate(-319.99951,-132)" />
    <linearGradient
       inkscape:collect="always"
       id="linearGradient927">
      <stop
         style="stop-color:#ffffff;stop-opacity:1;"
         offset="0"
         id="stop923" />
      <stop
         id="stop933"
         offset="0.125"
         style="stop-color:#ffffff;stop-opacity:0.09803922" />
      <stop
         id="stop931"
         offset="0.92500001"
         style="stop-color:#ffffff;stop-opacity:0.09803922" />
      <stop
         style="stop-color:#ffffff;stop-opacity:0.49803922"
         offset="1"
         id="stop925" />
    </linearGradient>
    <linearGradient
       inkscape:collect="always"
       xlink:href="#linearGradient4338"
       id="linearGradient924-3"
       gradientUnits="userSpaceOnUse"
       gradientTransform="matrix(0,-0.06178978,0.06007161,0,-3.2741118,31.27272)"
       x1="441.37912"
       y1="240.3089"
       x2="52.965229"
       y2="401.43906" />
    <linearGradient
       inkscape:collect="always"
       id="linearGradient4338">
      <stop
         style="stop-color:#f2f2f2;stop-opacity:1"
         offset="0"
         id="stop4340" />
      <stop
         style="stop-color:#f9f9f9;stop-opacity:1"
         offset="1"
         id="stop4342" />
    </linearGradient>
    <linearGradient
       inkscape:collect="always"
       xlink:href="#linearGradient7723"
       id="linearGradient924"
       gradientUnits="userSpaceOnUse"
       gradientTransform="matrix(0,-0.07466265,0.07508952,0,-8.0927516,34.45455)"
       x1="441.37918"
       y1="240.30251"
       x2="52.965439"
       y2="401.42953" />
  </defs>
  <sodipodi:namedview
     pagecolor="#ffffff"
     bordercolor="#666666"
     borderopacity="1"
     objecttolerance="10"
     gridtolerance="10"
     guidetolerance="10"
     inkscape:pageopacity="0"
     inkscape:pageshadow="2"
     inkscape:window-width="1920"
     inkscape:window-height="1016"
     id="namedview6"
     showgrid="true"
     inkscape:zoom="14.75"
     inkscape:cx="19.152542"
     inkscape:cy="20.169492"
     inkscape:window-x="0"
     inkscape:window-y="0"
     inkscape:window-maximized="1"
     inkscape:current-layer="svg4"
     inkscape:pagecheckerboard="0"
     inkscape:showpageshadow="2"
     inkscape:deskcolor="#d1d1d1">
    <inkscape:grid
       type="xygrid"
       id="grid1587" />
  </sodipodi:namedview>
  <rect
     style="fill:#808080;fill-opacity:1;fill-rule:evenodd;stroke-width:3.4641;stroke-linecap:square"
     id="rect1862"
     width="4"
     height="1"
     x="1"
     y="8"
     ry="0.5" />
  <rect
     style="fill:#808080;fill-opacity:1;fill-rule:evenodd;stroke-width:3.4641;stroke-linecap:square"
     id="rect2076"
     width="4"
     height="1"
     x="1"
     y="10"
     ry="0.5" />
  <rect
     style="fill:#808080;fill-opacity:1;fill-rule:evenodd;stroke-width:3.4641;stroke-linecap:square"
     id="rect2078"
     width="4"
     height="1"
     x="1"
     y="12"
     ry="0.5" />
  <rect
     style="fill:#808080;fill-opacity:1;fill-rule:evenodd;stroke-width:3.4641;stroke-linecap:square"
     id="rect2080"
     width="4"
     height="1"
     x="1"
     y="14"
     ry="0.5" />
  <rect
     style="fill:#808080;fill-opacity:1;fill-rule:evenodd;stroke-width:3.4641;stroke-linecap:square"
     id="rect2082"
     width="4"
     height="1"
     x="1"
     y="16"
     ry="0.5" />
  <rect
     style="fill:#808080;fill-opacity:1;fill-rule:evenodd;stroke-width:3.4641;stroke-linecap:square"
     id="rect2084"
     width="4"
     height="1"
     x="1"
     y="18"
     ry="0.5" />
  <rect
     style="fill:#808080;fill-opacity:1;fill-rule:evenodd;stroke-width:3.4641;stroke-linecap:square"
     id="rect2086"
     width="4"
     height="1"
     x="1"
     y="20"
     ry="0.5" />
  <rect
     style="fill:#808080;fill-opacity:1;fill-rule:evenodd;stroke-width:3.4641;stroke-linecap:square"
     id="rect2088"
     width="4"
     height="1"
     x="1"
     y="22"
     ry="0.5" />
  <rect
     style="fill:#808080;fill-opacity:1;fill-rule:evenodd;stroke-width:3.4641;stroke-linecap:square"
     id="rect2090"
     width="4"
     height="1"
     x="1"
     y="24"
     ry="0.5" />
  <path
     style="color:#000000;font-style:normal;font-variant:normal;font-weight:normal;font-stretch:normal;font-size:medium;line-height:normal;font-family:sans-serif;font-variant-ligatures:normal;font-variant-position:normal;font-variant-caps:normal;font-variant-numeric:normal;font-variant-alternates:normal;font-feature-settings:normal;text-indent:0;text-align:start;text-decoration:none;text-decoration-line:none;text-decoration-style:solid;text-decoration-color:#000000;letter-spacing:normal;word-spacing:normal;text-transform:none;writing-mode:lr-tb;direction:ltr;text-orientation:mixed;dominant-baseline:auto;baseline-shift:baseline;text-anchor:start;white-space:normal;shape-padding:0;clip-rule:nonzero;display:inline;overflow:visible;visibility:visible;opacity:0.1;isolation:auto;mix-blend-mode:normal;color-interpolation:sRGB;color-interpolation-filters:linearRGB;solid-color:#000000;solid-opacity:1;fill:#000000;fill-opacity:1;fill-rule:nonzero;stroke:none;stroke-width:2;stroke-linecap:butt;stroke-linejoin:miter;stroke-miterlimit:4;stroke-dasharray:none;stroke-dashoffset:0;stroke-opacity:1;marker:none;color-rendering:auto;image-rendering:auto;shape-rendering:auto;text-rendering:auto;enable-background:accumulate"
     d="m 10.193848,2 c -1.4209598,0 -2.5488298,0.0308 -3.5058598,0.19141 -0.95703,0.16064 -1.79146,0.4726 -2.41211,1.09179 -0.62065,0.61919 -0.93647,1.45612 -1.0957,2.41407 -0.15924,0.95795 -0.18666,2.08705 -0.17969,3.51171 v 7.79102 7.79688 c -0.007,1.42131 0.0207,2.5495 0.17969,3.50585 0.15923,0.95796 0.47505,1.79488 1.0957,2.41407 0.62065,0.61919 1.45508,0.93115 2.41211,1.09179 0.95703,0.16065 2.0849,0.19141 3.5058598,0.19141 h 11.61523 c 1.42097,0 2.54669,-0.0307 3.50196,-0.19141 0.95527,-0.16075 1.78779,-0.47425 2.40625,-1.09375 0.61845,-0.6195 0.93134,-1.45363 1.09179,-2.41015 0.16046,-0.95653 0.19141,-2.08403 0.19141,-3.50781 v -7.79688 -8 l -7,-7 z"
     id="path999"
     inkscape:connector-curvature="0"
     sodipodi:nodetypes="scscccccscsscccscccs" />
  <path
     sodipodi:nodetypes="scccssscccs"
     inkscape:connector-curvature="0"
     id="path922"
     d="m 9.9514482,1.50001 c -5.84935,0 -6.47872,0.59738 -6.45005,6.42507 v 8.07493 8.07493 c -0.0288,5.82769 0.6007,6.42507 6.45005,6.42507 h 12.0989498 c 5.84937,0 6.45008,-0.5973 6.45008,-6.42507 v -8.07493 l 2e-5,-8.28571 -6.25,-6.21428 z"
     style="color:#000000;display:inline;overflow:visible;visibility:visible;fill:url(#linearGradient924);fill-opacity:1;fill-rule:nonzero;stroke:none;stroke-width:1;marker:none;enable-background:accumulate" />
  <path
     id="path922-5"
     style="color:#000000;display:inline;overflow:visible;visibility:visible;fill:url(#linearGradient924-3);fill-opacity:1;fill-rule:nonzero;stroke:none;stroke-width:1;marker:none;enable-background:accumulate"
     d="M 11.162109 4 C 8.9845055 4 7.7275609 4.0028681 7 4.4023438 L 7 27.597656 C 7.7275609 27.997132 8.9845055 28 11.162109 28 L 20.839844 28 C 25.999919 28 26 28.000888 26 22.683594 L 26 16 L 26 8 L 22 4 L 11.162109 4 z " />
  <g
     transform="translate(-334.00451,-125.998)"
     id="g68"
     style="clip-rule:evenodd;display:inline;fill-rule:evenodd;enable-background:new">
    <path
       d="m 356,138 h -12 c -1.105,0 -2,0.896 -2,2 v 9 c 0,1.105 0.895,2 2,2 h 12 c 1.105,0 2,-0.895 2,-2 v -9 c 0,-1.104 -0.895,-2 -2,-2 z"
       style="fill:#ccf4c6;fill-rule:nonzero"
       id="path66" />
  </g>
  <g
     transform="translate(-334.00451,-125.998)"
     id="g72"
     style="clip-rule:evenodd;display:inline;fill-rule:evenodd;enable-background:new">
    <path
       d="m 356,138 h -12 c -1.105,0 -2,0.896 -2,2 0,1.105 0.895,2 2,2 h 12 c 1.105,0 2,-0.895 2,-2 0,-1.104 -0.895,-2 -2,-2 z"
       style="fill:#92e285;fill-rule:nonzero"
       id="path70" />
  </g>
  <g
     transform="translate(-334.00451,-125.998)"
     id="g76"
     style="clip-rule:evenodd;display:inline;fill-rule:evenodd;enable-background:new">
    <path
       d="m 344,138 c -1.105,0 -2,0.896 -2,2 v 9 c 0,1.105 0.895,2 2,2 h 12 c 1.105,0 2,-0.895 2,-2 v -9 c 0,-1.104 -0.895,-2 -2,-2 z m -1,2 c 0,-0.552 0.448,-1 1,-1 h 3 v 2 h -4 z m 5,-1 h 4 v 2 h -4 z m 5,0 h 3 c 0.552,0 1,0.448 1,1 v 1 h -4 z m -10,3 h 4 v 2 h -4 z m 5,0 h 4 v 2 h -4 z m 5,0 h 4 v 2 h -4 z m -10,3 h 4 v 2 h -4 z m 5,0 h 4 v 2 h -4 z m 5,0 h 4 v 2 h -4 z m -10,3 h 4 v 2 h -3 c -0.552,0 -1,-0.447 -1,-1 z m 5,0 h 4 v 2 h -4 z m 5,0 h 4 v 1 c 0,0.553 -0.448,1 -1,1 h -3 z"
       style="fill:#148203;fill-rule:nonzero"
       id="path74" />
  </g>
  <g
     transform="translate(-334.00451,-125.998)"
     id="g80"
     style="clip-rule:evenodd;display:inline;fill-rule:evenodd;enable-background:new">
    <path
       d="m 358,144 h -6 c -0.552,0 -1,0.448 -1,1 v 6 c 0,0.552 0.448,1 1,1 h 6 c 0.552,0 1,-0.448 1,-1 v -6 c 0,-0.552 -0.448,-1 -1,-1 z"
       style="fill:#148403;fill-rule:nonzero"
       id="path78" />
  </g>
  <g
     transform="translate(-334.00451,-125.998)"
     id="g84"
     style="clip-rule:evenodd;display:inline;fill-rule:evenodd;enable-background:new">
    <path
       d="m 357.5,145 h -5 c -0.276,0 -0.5,0.224 -0.5,0.5 v 5 c 0,0.276 0.224,0.5 0.5,0.5 h 5 c 0.276,0 0.5,-0.224 0.5,-0.5 v -5 c 0,-0.276 -0.224,-0.5 -0.5,-0.5 z"
       style="fill:#cccccc;fill-rule:nonzero"
       id="path82" />
  </g>
  <g
     transform="translate(-334.00451,-125.998)"
     id="g88"
     style="clip-rule:evenodd;display:inline;fill-rule:evenodd;enable-background:new">
    <path
       d="m 357.5,145 h -5 c -0.276,0 -0.5,0.224 -0.5,0.5 v 5 c 0,0.276 0.224,0.5 0.5,0.5 h 5 c 0.276,0 0.5,-0.224 0.5,-0.5 v -5 c 0,-0.276 -0.224,-0.5 -0.5,-0.5 z"
       style="fill:#ccf4c6;fill-rule:nonzero"
       id="path86" />
  </g>
  <g
     transform="translate(-334.00451,-125.998)"
     id="g92"
     style="clip-rule:evenodd;display:inline;fill-rule:evenodd;enable-background:new">
    <path
       d="m 355,148 h -1 c -0.552,0 -1,0.448 -1,1 v 2 h 2 z"
       style="fill:#41b02f;fill-rule:nonzero"
       id="path90" />
  </g>
  <g
     transform="translate(-334.00451,-125.998)"
     id="g96"
     style="clip-rule:evenodd;display:inline;fill-rule:evenodd;enable-background:new">
    <path
       d="m 357,151 v -4 c 0,-0.552 -0.448,-1 -1,-1 -0.552,0 -1,0.448 -1,1 v 4 z"
       style="fill:#148503;fill-rule:nonzero"
       id="path94" />
  </g>
  <g
     transform="translate(-334.00451,-125.998)"
     id="g100"
     style="clip-rule:evenodd;display:inline;fill-rule:evenodd;enable-background:new">
    <rect
       x="354"
       y="148"
       width="1"
       height="2"
       style="fill:#92e285;fill-rule:nonzero"
       id="rect98" />
  </g>
  <g
     transform="translate(-334.00451,-125.998)"
     id="g104"
     style="clip-rule:evenodd;display:inline;fill-rule:evenodd;enable-background:new">
    <path
       d="m 357,150 v -3 c 0,-0.552 -0.448,-1 -1,-1 v 4 z"
       style="fill:#41b02f;fill-rule:nonzero"
       id="path102" />
  </g>
  <path
     style="color:#000000;display:inline;overflow:visible;visibility:visible;opacity:0.2;fill:#ffffff;fill-opacity:1;fill-rule:nonzero;stroke:none;stroke-width:1;marker:none;enable-background:accumulate"
     d="m 4.0004882,16 v 7.79688 c -0.0276,5.62673 0.57798,6.20312 6.1933598,6.20312 h 11.61523 c 5.6154,0 6.19141,-0.57631 6.19141,-6.20312 v -7.79688 z"
     id="path1011"
     inkscape:connector-curvature="0" />
  <path
     style="color:#000000;display:inline;overflow:visible;visibility:visible;opacity:0.2;fill:#ffffff;fill-opacity:1;fill-rule:nonzero;stroke:none;stroke-width:1;marker:none;enable-background:accumulate"
     d="m 16.000488,2 v 28 h 5.80859 c 5.6154,0 6.19141,-0.57631 6.19141,-6.20312 v -7.79688 -8 l -6,-6 z"
     id="path1018"
     inkscape:connector-curvature="0"
     sodipodi:nodetypes="ccsscccc" />
  <path
     style="color:#000000;font-style:normal;font-variant:normal;font-weight:normal;font-stretch:normal;font-size:medium;line-height:normal;font-family:sans-serif;font-variant-ligatures:normal;font-variant-position:normal;font-variant-caps:normal;font-variant-numeric:normal;font-variant-alternates:normal;font-feature-settings:normal;text-indent:0;text-align:start;text-decoration:none;text-decoration-line:none;text-decoration-style:solid;text-decoration-color:#000000;letter-spacing:normal;word-spacing:normal;text-transform:none;writing-mode:lr-tb;direction:ltr;text-orientation:mixed;dominant-baseline:auto;baseline-shift:baseline;text-anchor:start;white-space:normal;shape-padding:0;clip-rule:nonzero;display:inline;overflow:visible;visibility:visible;opacity:0.4;isolation:auto;mix-blend-mode:normal;color-interpolation:sRGB;color-interpolation-filters:linearRGB;solid-color:#000000;solid-opacity:1;fill:#000000;fill-opacity:1;fill-rule:nonzero;stroke:none;stroke-width:2;stroke-linecap:butt;stroke-linejoin:miter;stroke-miterlimit:4;stroke-dasharray:none;stroke-dashoffset:0;stroke-opacity:1;marker:none;color-rendering:auto;image-rendering:auto;shape-rendering:auto;text-rendering:auto;enable-background:accumulate"
     d="m 10.193848,1 c -1.4209598,0 -2.5488298,0.0308 -3.5058598,0.19141 -0.95703,0.16064 -1.79146,0.4726 -2.41211,1.09179 -0.62065,0.61919 -0.93647,1.45612 -1.0957,2.41407 -0.15924,0.95795 -0.18666,2.08705 -0.17969,3.51171 v 7.79102 7.79688 c -0.007,1.42131 0.0207,2.5495 0.17969,3.50585 0.15923,0.95796 0.47505,1.79488 1.0957,2.41407 0.62065,0.61919 1.45508,0.93115 2.41211,1.09179 0.95703,0.16065 2.0849,0.19141 3.5058598,0.19141 h 11.61523 c 1.42097,0 2.54669,-0.0307 3.50196,-0.19141 0.95527,-0.16075 1.78779,-0.47425 2.40625,-1.09375 0.61845,-0.6195 0.93134,-1.45363 1.09179,-2.41015 0.16046,-0.95653 0.19141,-2.08404 0.19141,-3.50781 v -7.79688 -8.21094 l -6.77734,-6.78906 z m 0,1 h 11.61523 l 6.19141,6.20312 v 7.79688 7.79688 c 0,5.62681 -0.57601,6.20312 -6.19141,6.20312 h -11.61523 c -5.6153798,0 -6.2209598,-0.57639 -6.1933598,-6.20312 v -7.79688 -7.79688 c -0.0275,-5.62674 0.57798,-6.20312 6.1933598,-6.20312 z"
     id="path930"
     inkscape:connector-curvature="0"
     sodipodi:nodetypes="scscccccscsscccscccsscccssscccs" />
  <path
     style="color:#000000;font-style:normal;font-variant:normal;font-weight:normal;font-stretch:normal;font-size:medium;line-height:normal;font-family:sans-serif;font-variant-ligatures:normal;font-variant-position:normal;font-variant-caps:normal;font-variant-numeric:normal;font-variant-alternates:normal;font-feature-settings:normal;text-indent:0;text-align:start;text-decoration:none;text-decoration-line:none;text-decoration-style:solid;text-decoration-color:#000000;letter-spacing:normal;word-spacing:normal;text-transform:none;writing-mode:lr-tb;direction:ltr;text-orientation:mixed;dominant-baseline:auto;baseline-shift:baseline;text-anchor:start;white-space:normal;shape-padding:0;clip-rule:nonzero;display:inline;overflow:visible;visibility:visible;opacity:0.4;isolation:auto;mix-blend-mode:normal;color-interpolation:sRGB;color-interpolation-filters:linearRGB;solid-color:#000000;solid-opacity:1;fill:url(#linearGradient969);fill-opacity:1;fill-rule:nonzero;stroke:none;stroke-width:2;stroke-linecap:butt;stroke-linejoin:miter;stroke-miterlimit:4;stroke-dasharray:none;stroke-dashoffset:0;stroke-opacity:1;marker:none;color-rendering:auto;image-rendering:auto;shape-rendering:auto;text-rendering:auto;enable-background:accumulate"
     clip-path="none"
     d="m 10.193848,2 c -5.6153798,0 -6.2208798,0.57638 -6.1933598,6.20312 v 7.79688 7.79688 c -0.0276,5.62673 0.57798,6.20312 6.1933598,6.20312 h 11.61523 c 5.6154,0 6.19141,-0.57631 6.19141,-6.20312 v -7.79688 -7.79688 l -6.19141,-6.20312 z m 0,1 h 11.61523 l 5.19141,5.20312 v 7.79688 7.79688 c 0,1.38962 -0.0409,2.44358 -0.16406,3.17773 -0.12315,0.73414 -0.30557,1.1001 -0.53321,1.32812 -0.22764,0.22803 -0.59203,0.40999 -1.32421,0.53321 -0.73219,0.12321 -1.78319,0.16406 -3.16993,0.16406 h -11.61523 c -1.3867298,0 -2.4410498,-0.0407 -3.1757798,-0.16406 -0.73474,-0.12334 -1.10119,-0.30681 -1.33008,-0.53516 -0.22889,-0.22835 -0.41141,-0.59346 -0.5332,-1.32617 -0.12179,-0.73271 -0.16111,-1.78513 -0.1543,-3.17383 v -0.002 -7.79878 -7.79883 -0.002 c -0.007,-1.38871 0.0325,-2.44307 0.1543,-3.17578 0.12179,-0.73272 0.30431,-1.09587 0.5332,-1.32422 0.22889,-0.22835 0.59535,-0.41182 1.33008,-0.53516 0.73473,-0.12323 1.78905,-0.16401 3.1757798,-0.16401 z"
     id="path939"
     inkscape:connector-curvature="0"
     sodipodi:nodetypes="scccssscccsscccscccsscssccccccscs" />
  <path
     inkscape:connector-curvature="0"
     style="color:#000000;display:inline;overflow:visible;visibility:visible;opacity:0.6;fill:#1a510f;fill-opacity:1;fill-rule:nonzero;stroke:none;stroke-width:0.250023;marker:none;enable-background:accumulate"
     d="m 28.000488,9 v -1 l -6,-6 h -1 v 2.67849 0.10263 0.0551 c 0,3.62217 0.48488,4.1807 4.11536,4.16294 z"
     id="rect4158-0-3-62-2-3"
     sodipodi:nodetypes="ccccccscc" />
  <path
     inkscape:connector-curvature="0"
     style="color:#000000;display:inline;overflow:visible;visibility:visible;fill:#54ad45;fill-opacity:1;fill-rule:nonzero;stroke:none;stroke-width:0.250023;marker:none;enable-background:accumulate"
     d="m 28.000488,7.99922 -6,-5.99923 v 2.22536 0.0968 0.0519 c 0,3.41519 0.15739,3.64187 3.58042,3.62513 z"
     id="rect4158-0-3-62-6"
     sodipodi:nodetypes="ccccscc" />
  <rect
     style="fill:#ffffff;fill-rule:evenodd;stroke-width:3;stroke-linecap:square"
     id="rect1656"
     width="1"
     height="1"
     x="5"
     y="8" />
  <rect
     style="fill:#ffffff;fill-rule:evenodd;stroke-width:3;stroke-linecap:square"
     id="rect1658"
     width="1"
     height="1"
     x="5"
     y="10" />
  <rect
     style="fill:#ffffff;fill-rule:evenodd;stroke-width:3;stroke-linecap:square"
     id="rect1740"
     width="1"
     height="1"
     x="5"
     y="12" />
  <rect
     style="fill:#ffffff;fill-rule:evenodd;stroke-width:3;stroke-linecap:square"
     id="rect1742"
     width="1"
     height="1"
     x="5"
     y="14" />
  <rect
     style="fill:#ffffff;fill-rule:evenodd;stroke-width:3;stroke-linecap:square"
     id="rect1744"
     width="1"
     height="1"
     x="5"
     y="16" />
  <rect
     style="fill:#ffffff;fill-rule:evenodd;stroke-width:3;stroke-linecap:square"
     id="rect1746"
     width="1"
     height="1"
     x="5"
     y="18" />
  <rect
     style="fill:#ffffff;fill-rule:evenodd;stroke-width:3;stroke-linecap:square"
     id="rect1748"
     width="1"
     height="1"
     x="5"
     y="20" />
  <rect
     style="fill:#ffffff;fill-rule:evenodd;stroke-width:3;stroke-linecap:square"
     id="rect1750"
     width="1"
     height="1"
     x="5"
     y="22" />
  <rect
     style="fill:#ffffff;fill-rule:evenodd;stroke-width:3;stroke-linecap:square"
     id="rect1752"
     width="1"
     height="1"
     x="5"
     y="24" />
</svg>
