<?xml version="1.0" encoding="UTF-8" standalone="no"?>
<svg
   viewBox="0 0 16 16"
   version="1.1"
   id="svg4"
   sodipodi:docname="ott_16.svg"
   inkscape:export-filename="/home/jupiter007/Libreoffice yaru theme fullcolor/build/res/ott_16_8.png"
   inkscape:export-xdpi="96"
   inkscape:export-ydpi="96"
   inkscape:version="1.2 (1:1.2.1+202207142221+cd75a1ee6d)"
   xmlns:inkscape="http://www.inkscape.org/namespaces/inkscape"
   xmlns:sodipodi="http://sodipodi.sourceforge.net/DTD/sodipodi-0.dtd"
   xmlns:xlink="http://www.w3.org/1999/xlink"
   xmlns="http://www.w3.org/2000/svg"
   xmlns:svg="http://www.w3.org/2000/svg"
   xmlns:rdf="http://www.w3.org/1999/02/22-rdf-syntax-ns#"
   xmlns:cc="http://creativecommons.org/ns#"
   xmlns:dc="http://purl.org/dc/elements/1.1/">
  <metadata
     id="metadata10">
    <rdf:RDF>
      <cc:Work
         rdf:about="">
        <dc:format>image/svg+xml</dc:format>
        <dc:type
           rdf:resource="http://purl.org/dc/dcmitype/StillImage" />
      </cc:Work>
    </rdf:RDF>
  </metadata>
  <defs
     id="defs8">
    <linearGradient
       id="linearGradient9153">
      <stop
         id="stop9155"
         style="stop-color:#0369a3;stop-opacity:1"
         offset="0" />
      <stop
         id="stop9157"
         style="stop-color:#047fc6;stop-opacity:1"
         offset="1" />
    </linearGradient>
    <clipPath
       clipPathUnits="userSpaceOnUse"
       id="clipPath983-6">
      <path
         sodipodi:nodetypes="scccssscsss"
         inkscape:connector-curvature="0"
         id="path985-0"
         d="m 325.09646,237 c -2.80769,0 -3.10979,0.28839 -3.09603,3.10176 V 244 v 3.89824 c -0.0138,2.81337 0.28834,3.10176 3.09603,3.10176 h 5.8075 C 333.71166,251 334,250.71165 334,247.89824 V 244 240.10176 C 334,237.28836 333.71165,237 330.90396,237 Z"
         style="color:#000000;display:inline;overflow:visible;visibility:visible;opacity:1;fill:#46a926;fill-opacity:1;fill-rule:nonzero;stroke:none;stroke-width:2;stroke-miterlimit:4;stroke-dasharray:none;stroke-opacity:1;marker:none;enable-background:accumulate" />
    </clipPath>
    <linearGradient
       id="_Linear12"
       x1="0"
       y1="0"
       x2="1"
       y2="0"
       gradientUnits="userSpaceOnUse"
       gradientTransform="matrix(0,12,-12,0,749,530)">
      <stop
         offset="0"
         style="stop-color:rgb(3,105,163);stop-opacity:1"
         id="stop282" />
      <stop
         offset="1"
         style="stop-color:rgb(4,127,198);stop-opacity:1"
         id="stop284" />
    </linearGradient>
    <linearGradient
       inkscape:collect="always"
       xlink:href="#linearGradient927"
       id="linearGradient993"
       x1="328"
       y1="237"
       x2="328"
       y2="251"
       gradientUnits="userSpaceOnUse"
       gradientTransform="translate(-319.99972,-236)" />
    <linearGradient
       inkscape:collect="always"
       id="linearGradient927">
      <stop
         style="stop-color:#ffffff;stop-opacity:1;"
         offset="0"
         id="stop923" />
      <stop
         id="stop933"
         offset="0.125"
         style="stop-color:#ffffff;stop-opacity:0.09803922" />
      <stop
         id="stop931"
         offset="0.92500001"
         style="stop-color:#ffffff;stop-opacity:0.09803922" />
      <stop
         style="stop-color:#ffffff;stop-opacity:0.49803922"
         offset="1"
         id="stop925" />
    </linearGradient>
    <linearGradient
       inkscape:collect="always"
       xlink:href="#linearGradient4338"
       id="linearGradient920-7"
       gradientUnits="userSpaceOnUse"
       gradientTransform="matrix(0,-0.03089488,0.03003587,0,-1.6370312,15.63636)"
       x1="441.37933"
       y1="240.30263"
       x2="52.9655"
       y2="401.439" />
    <linearGradient
       inkscape:collect="always"
       id="linearGradient4338">
      <stop
         style="stop-color:#f2f2f2;stop-opacity:1"
         offset="0"
         id="stop4340" />
      <stop
         style="stop-color:#f9f9f9;stop-opacity:1"
         offset="1"
         id="stop4342" />
    </linearGradient>
    <linearGradient
       inkscape:collect="always"
       xlink:href="#linearGradient19846"
       id="linearGradient920"
       gradientUnits="userSpaceOnUse"
       gradientTransform="matrix(0,-0.0386186,0.03904659,0,-4.5282212,17.54546)"
       x1="52.965412"
       y1="401.42969"
       x2="441.37927"
       y2="240.30267" />
    <linearGradient
       id="linearGradient19846">
      <stop
         id="stop19848"
         style="stop-color:#259dd2;stop-opacity:1"
         offset="0" />
      <stop
         id="stop19850"
         style="stop-color:#065d8d;stop-opacity:1"
         offset="1" />
    </linearGradient>
  </defs>
  <sodipodi:namedview
     pagecolor="#ffffff"
     bordercolor="#666666"
     borderopacity="1"
     objecttolerance="10"
     gridtolerance="10"
     guidetolerance="10"
     inkscape:pageopacity="0"
     inkscape:pageshadow="2"
     inkscape:window-width="1920"
     inkscape:window-height="1016"
     id="namedview6"
     showgrid="true"
     inkscape:zoom="29.5"
     inkscape:cx="11.271186"
     inkscape:cy="7.9152543"
     inkscape:window-x="0"
     inkscape:window-y="0"
     inkscape:window-maximized="1"
     inkscape:current-layer="svg4"
     inkscape:pagecheckerboard="0"
     inkscape:showpageshadow="2"
     inkscape:deskcolor="#d1d1d1">
    <inkscape:grid
       type="xygrid"
       id="grid931" />
  </sodipodi:namedview>
  <rect
     style="fill:#808080;fill-opacity:1;fill-rule:evenodd;stroke-width:3;stroke-linecap:square"
     id="rect1182"
     width="2"
     height="1"
     x="0"
     y="3"
     ry="0.5" />
  <rect
     style="fill:#808080;fill-opacity:1;fill-rule:evenodd;stroke-width:3;stroke-linecap:square"
     id="rect1184"
     width="2"
     height="1"
     x="0"
     y="5"
     ry="0.5" />
  <rect
     style="fill:#808080;fill-opacity:1;fill-rule:evenodd;stroke-width:3;stroke-linecap:square"
     id="rect1186"
     width="2"
     height="1"
     x="0"
     y="7"
     ry="0.5" />
  <rect
     style="fill:#808080;fill-opacity:1;fill-rule:evenodd;stroke-width:3;stroke-linecap:square"
     id="rect1188"
     width="2"
     height="1"
     x="0"
     y="9"
     ry="0.5" />
  <rect
     style="fill:#808080;fill-opacity:1;fill-rule:evenodd;stroke-width:3;stroke-linecap:square"
     id="rect1190"
     width="2"
     height="1"
     x="0"
     y="11"
     ry="0.5" />
  <path
     style="color:#000000;font-style:normal;font-variant:normal;font-weight:normal;font-stretch:normal;font-size:medium;line-height:normal;font-family:sans-serif;font-variant-ligatures:normal;font-variant-position:normal;font-variant-caps:normal;font-variant-numeric:normal;font-variant-alternates:normal;font-feature-settings:normal;text-indent:0;text-align:start;text-decoration:none;text-decoration-line:none;text-decoration-style:solid;text-decoration-color:#000000;letter-spacing:normal;word-spacing:normal;text-transform:none;writing-mode:lr-tb;direction:ltr;text-orientation:mixed;dominant-baseline:auto;baseline-shift:baseline;text-anchor:start;white-space:normal;shape-padding:0;clip-rule:nonzero;display:inline;overflow:visible;visibility:visible;opacity:0.1;isolation:auto;mix-blend-mode:normal;color-interpolation:sRGB;color-interpolation-filters:linearRGB;solid-color:#000000;solid-opacity:1;fill:#000000;fill-opacity:1;fill-rule:nonzero;stroke:none;stroke-width:2;stroke-linecap:butt;stroke-linejoin:miter;stroke-miterlimit:4;stroke-dasharray:none;stroke-dashoffset:0;stroke-opacity:1;marker:none;color-rendering:auto;image-rendering:auto;shape-rendering:auto;text-rendering:auto;enable-background:accumulate"
     d="m 5.0959788,1 c -0.71904,0 -1.30185,0.0139 -1.83593,0.10352 -0.53409,0.0897 -1.0683,0.27628 -1.47657,0.68359 -0.40826,0.4073 -0.59657,0.94323 -0.68554,1.47851 -0.089,0.53529 -0.10118997,1.12048 -0.0977,1.8418 v 2.89258 3.89844 c -0.003,0.71816 0.009,1.30235 0.0977,1.83594 0.089,0.53528 0.27727,1.07121 0.68554,1.47851 0.40827,0.40731 0.94248,0.59394 1.47657,0.68359 0.53408,0.0897 1.11689,0.10352 1.83593,0.10352 h 5.8086002 c 0.71904,0 1.30058,-0.0137 1.83398,-0.10352 0.53341,-0.0898 1.06768,-0.27792 1.47461,-0.68554 0.40693,-0.40762 0.59404,-0.94271 0.68359,-1.47656 0.0896,-0.53386 0.10352,-1.11551 0.10352,-1.83594 v -3.89844 -3 l -4,-4 z"
     id="path997"
     inkscape:connector-curvature="0"
     sodipodi:nodetypes="scscccccccsscscscccs" />
  <path
     style="color:#000000;display:inline;overflow:visible;visibility:visible;fill:url(#linearGradient920);fill-opacity:1;fill-rule:nonzero;stroke:none;stroke-width:1;marker:none;enable-background:accumulate"
     d="m 4.8547788,0.50001 c -3.04166,0 -3.36894,0.30899 -3.35403,3.32331 v 4.17669 4.17668 c -0.0149,3.01433 0.31237,3.32332 3.35403,3.32332 h 6.2914602 c 3.04167,0 3.35404,-0.30895 3.35404,-3.32332 v -4.17668 -4.28572 l -3.25,-3.21428 z"
     id="path918"
     inkscape:connector-curvature="0"
     sodipodi:nodetypes="scccssscccs" />
  <path
     id="path918-8"
     style="color:#000000;display:inline;overflow:visible;visibility:visible;fill:url(#linearGradient920-7);fill-opacity:1;fill-rule:nonzero;stroke:none;stroke-width:1;marker:none;enable-background:accumulate"
     d="M 5.5800781 2 C 4.8775695 2 4.3720561 2.0010386 4 2.0546875 L 4 13.945312 C 4.3720561 13.998962 4.8775695 14 5.5800781 14 L 10.419922 14 C 12.999939 14 13 14.000454 13 11.341797 L 13 8 L 13 4 L 11 2 L 5.5800781 2 z " />
  <g
     transform="translate(-741.00472,-527)"
     id="g88"
     style="clip-rule:evenodd;display:inline;fill-rule:evenodd;enable-background:new">
    <path
       d="m 746.49972,533 c -0.276,0 -0.5,0.224 -0.5,0.5 0,0.276 0.224,0.5 0.5,0.5 h 4.00028 c 0.277,0 0.5,-0.224 0.5,-0.5 0,-0.276 -0.223,-0.5 -0.5,-0.5 z m 0,2 c -0.276,0 -0.5,0.224 -0.5,0.5 0,0.276 0.224,0.5 0.5,0.5 h 6.00028 c 0.277,0 0.5,-0.224 0.5,-0.5 0,-0.276 -0.223,-0.5 -0.5,-0.5 z m 0,2 c -0.276,0 -0.5,0.224 -0.5,0.5 0,0.276 0.224,0.5 0.5,0.5 h 6.00028 c 0.277,0 0.5,-0.224 0.5,-0.5 0,-0.276 -0.223,-0.5 -0.5,-0.5 z m 0,2 c -0.276,0 -0.5,0.224 -0.5,0.5 0,0.276 0.224,0.5 0.5,0.5 h 4.00028 c 0.277,0 0.5,-0.224 0.5,-0.5 0,-0.276 -0.223,-0.5 -0.5,-0.5 z"
       style="fill:url(#_Linear12);fill-rule:nonzero"
       id="path86"
       sodipodi:nodetypes="ssssssssssssssssssssssssssss" />
  </g>
  <path
     style="color:#000000;display:inline;overflow:visible;visibility:visible;opacity:0.2;fill:#ffffff;fill-opacity:1;fill-rule:nonzero;stroke:none;stroke-width:1;marker:none;enable-background:accumulate"
     d="m 8.0002788,1 v 14 h 2.9043002 c 2.8077,0 3.0957,-0.28815 3.0957,-3.10156 v -3.89844 -4 l -3,-3 z"
     id="path1009"
     inkscape:connector-curvature="0"
     sodipodi:nodetypes="ccsscccc" />
  <path
     style="color:#000000;display:inline;overflow:visible;visibility:visible;opacity:0.2;fill:#ffffff;fill-opacity:1;fill-rule:nonzero;stroke:none;stroke-width:1;marker:none;enable-background:accumulate"
     d="m 2.0002788,8 v 3.89844 c -0.0138,2.81337 0.28801,3.10156 3.0957,3.10156 h 5.8086002 c 2.8077,0 3.0957,-0.28815 3.0957,-3.10156 v -3.89844 z"
     id="path1016"
     inkscape:connector-curvature="0" />
  <path
     style="color:#000000;font-style:normal;font-variant:normal;font-weight:normal;font-stretch:normal;font-size:medium;line-height:normal;font-family:sans-serif;font-variant-ligatures:normal;font-variant-position:normal;font-variant-caps:normal;font-variant-numeric:normal;font-variant-alternates:normal;font-feature-settings:normal;text-indent:0;text-align:start;text-decoration:none;text-decoration-line:none;text-decoration-style:solid;text-decoration-color:#000000;letter-spacing:normal;word-spacing:normal;text-transform:none;writing-mode:lr-tb;direction:ltr;text-orientation:mixed;dominant-baseline:auto;baseline-shift:baseline;text-anchor:start;white-space:normal;shape-padding:0;clip-rule:nonzero;display:inline;overflow:visible;visibility:visible;opacity:0.4;isolation:auto;mix-blend-mode:normal;color-interpolation:sRGB;color-interpolation-filters:linearRGB;solid-color:#000000;solid-opacity:1;fill:#000000;fill-opacity:1;fill-rule:nonzero;stroke:none;stroke-width:2;stroke-linecap:butt;stroke-linejoin:miter;stroke-miterlimit:4;stroke-dasharray:none;stroke-dashoffset:0;stroke-opacity:1;marker:none;color-rendering:auto;image-rendering:auto;shape-rendering:auto;text-rendering:auto;enable-background:accumulate"
     d="m 5.0959788,0 c -0.71904,0 -1.30185,0.0139 -1.83593,0.10352 -0.53409,0.0897 -1.0683,0.27628 -1.47657,0.68359 -0.40826,0.4073 -0.59657,0.94324 -0.68554,1.47851 -0.089,0.5353 -0.10114997,1.12048 -0.0977,1.8418 v 3.89258 3.89844 c -0.003,0.71816 0.009,1.30235 0.0977,1.83594 0.089,0.53528 0.27727,1.07121 0.68554,1.47851 0.40827,0.40731 0.94248,0.59394 1.47657,0.68359 0.53408,0.0897 1.11689,0.10352 1.83593,0.10352 h 5.8086002 c 0.71904,0 1.30058,-0.0137 1.83398,-0.10352 0.53341,-0.0898 1.06768,-0.27792 1.47461,-0.68554 0.40693,-0.40762 0.59404,-0.94271 0.68359,-1.47656 0.0896,-0.53386 0.10352,-1.11551 0.10352,-1.83594 v -3.89844 -4.41406 l -3.58594,-3.58594 z m 0,1 h 5.9043002 l 3,3 v 4 3.89844 c 0,2.81341 -0.288,3.10156 -3.0957,3.10156 h -5.8086002 c -2.80769,0 -3.1095,-0.28819 -3.0957,-3.10156 v -3.89844 -3.89844 c -0.0138,-2.81337 0.28801,-3.10156 3.0957,-3.10156 z"
     id="path928"
     inkscape:connector-curvature="0"
     sodipodi:nodetypes="scscccccccsscscscccsscccssscccs" />
  <path
     style="color:#000000;font-style:normal;font-variant:normal;font-weight:normal;font-stretch:normal;font-size:medium;line-height:normal;font-family:sans-serif;font-variant-ligatures:normal;font-variant-position:normal;font-variant-caps:normal;font-variant-numeric:normal;font-variant-alternates:normal;font-feature-settings:normal;text-indent:0;text-align:start;text-decoration:none;text-decoration-line:none;text-decoration-style:solid;text-decoration-color:#000000;letter-spacing:normal;word-spacing:normal;text-transform:none;writing-mode:lr-tb;direction:ltr;text-orientation:mixed;dominant-baseline:auto;baseline-shift:baseline;text-anchor:start;white-space:normal;shape-padding:0;clip-rule:nonzero;display:inline;overflow:visible;visibility:visible;opacity:0.4;isolation:auto;mix-blend-mode:normal;color-interpolation:sRGB;color-interpolation-filters:linearRGB;solid-color:#000000;solid-opacity:1;fill:url(#linearGradient993);fill-opacity:1;fill-rule:nonzero;stroke:none;stroke-width:2;stroke-linecap:butt;stroke-linejoin:miter;stroke-miterlimit:4;stroke-dasharray:none;stroke-dashoffset:0;stroke-opacity:1;marker:none;color-rendering:auto;image-rendering:auto;shape-rendering:auto;text-rendering:auto;enable-background:accumulate"
     clip-path="none"
     d="m 5.0959788,1 c -2.80769,0 -3.10946,0.28819 -3.0957,3.10156 v 3.89844 3.89844 c -0.0138,2.81337 0.28801,3.10156 3.0957,3.10156 h 5.8086002 c 2.8077,0 3.0957,-0.28815 3.0957,-3.10156 v -3.89844 -4 l -3,-3 z m 0,1 h 5.9043002 l 2,2 v 4 3.89844 c 0,0.68627 -0.022,1.19438 -0.0742,1.50586 -0.0522,0.31147 -0.11279,0.37642 -0.1289,0.39258 -0.0161,0.0161 -0.0803,0.0767 -0.39063,0.1289 -0.31036,0.0522 -0.81716,0.0742 -1.50197,0.0742 h -5.8086002 c -0.6848,0 -1.19211,-0.0238 -1.5039,-0.0762 -0.3118,-0.0523 -0.37803,-0.1105 -0.39453,-0.12695 -0.0165,-0.0165 -0.0754,-0.0806 -0.12696,-0.39063 -0.0515,-0.31005 -0.0737,-0.81855 -0.0703,-1.50391 v -0.002 -3.90031 -3.90039 -0.002 c -0.003,-0.68537 0.0188,-1.19386 0.0703,-1.50391 0.0515,-0.31005 0.11045,-0.37416 0.12696,-0.39063 0.0165,-0.0165 0.0827,-0.0746 0.39453,-0.12695 0.31179,-0.0523 0.8191,-0.0762 1.5039,-0.0762 z"
     id="path937"
     inkscape:connector-curvature="0"
     sodipodi:nodetypes="scccssscccsscccscccssccccccccsccs" />
  <path
     inkscape:connector-curvature="0"
     style="color:#000000;display:inline;overflow:visible;visibility:visible;opacity:0.6;fill:#165d7c;fill-opacity:1;fill-rule:nonzero;stroke:none;stroke-width:0.250023;marker:none;enable-background:accumulate"
     d="m 14.000279,5 v -1 l -3,-3 h -1 v 1.53057 0.0587 0.0315 c 0,2.06981 0.27707,2.38897 2.35163,2.37882 z"
     id="rect4158-0-3-62-2-3-7-3"
     sodipodi:nodetypes="ccccccscc" />
  <path
     inkscape:connector-curvature="0"
     style="color:#000000;display:inline;overflow:visible;visibility:visible;fill:#259dd1;fill-opacity:1;fill-rule:nonzero;stroke:none;stroke-width:0.250023;marker:none;enable-background:accumulate"
     d="m 14.000279,3.99962 -3,-2.99962 v 1.11269 0.0485 0.026 c 0,1.70759 0.0787,1.82093 1.79021,1.81256 z"
     id="rect4158-0-3-62-6-5-5"
     sodipodi:nodetypes="ccccscc" />
  <rect
     style="fill:#ffffff;fill-rule:evenodd;stroke-width:3;stroke-linecap:square"
     id="rect1012"
     width="1"
     height="1"
     x="2"
     y="3" />
  <rect
     style="fill:#ffffff;fill-rule:evenodd;stroke-width:3;stroke-linecap:square"
     id="rect1014"
     width="1"
     height="1"
     x="2"
     y="5" />
  <rect
     style="fill:#ffffff;fill-rule:evenodd;stroke-width:3;stroke-linecap:square"
     id="rect1016"
     width="1"
     height="1"
     x="2"
     y="7" />
  <rect
     style="fill:#ffffff;fill-rule:evenodd;stroke-width:3;stroke-linecap:square"
     id="rect1018"
     width="1"
     height="1"
     x="2"
     y="9" />
  <rect
     style="fill:#ffffff;fill-rule:evenodd;stroke-width:3;stroke-linecap:square"
     id="rect1020"
     width="1"
     height="1"
     x="2"
     y="11" />
</svg>
