<?xml version="1.0" encoding="UTF-8" standalone="no"?>
<svg
   viewBox="0 0 16 16"
   version="1.1"
   id="svg4"
   sodipodi:docname="sx03253.svg"
   inkscape:export-filename="/home/jupiter007/Libreoffice yaru theme fullcolor/build/res/sx03253.png"
   inkscape:export-xdpi="96"
   inkscape:export-ydpi="96"
   inkscape:version="1.2 (1:1.2.1+202207142221+cd75a1ee6d)"
   xmlns:inkscape="http://www.inkscape.org/namespaces/inkscape"
   xmlns:sodipodi="http://sodipodi.sourceforge.net/DTD/sodipodi-0.dtd"
   xmlns:xlink="http://www.w3.org/1999/xlink"
   xmlns="http://www.w3.org/2000/svg"
   xmlns:svg="http://www.w3.org/2000/svg"
   xmlns:rdf="http://www.w3.org/1999/02/22-rdf-syntax-ns#"
   xmlns:cc="http://creativecommons.org/ns#"
   xmlns:dc="http://purl.org/dc/elements/1.1/">
  <metadata
     id="metadata10">
    <rdf:RDF>
      <cc:Work
         rdf:about="">
        <dc:format>image/svg+xml</dc:format>
        <dc:type
           rdf:resource="http://purl.org/dc/dcmitype/StillImage" />
      </cc:Work>
    </rdf:RDF>
  </metadata>
  <defs
     id="defs8">
    <linearGradient
       id="linearGradient12112">
      <stop
         offset="0"
         style="stop-color:#9f3d06;stop-opacity:1"
         id="stop12108" />
      <stop
         offset="1"
         style="stop-color:#e76428;stop-opacity:1"
         id="stop12110" />
    </linearGradient>
    <clipPath
       clipPathUnits="userSpaceOnUse"
       id="clipPath983-6">
      <path
         sodipodi:nodetypes="scccssscsss"
         inkscape:connector-curvature="0"
         id="path985-0"
         d="m 325.09646,237 c -2.80769,0 -3.10979,0.28839 -3.09603,3.10176 V 244 v 3.89824 c -0.0138,2.81337 0.28834,3.10176 3.09603,3.10176 h 5.8075 C 333.71166,251 334,250.71165 334,247.89824 V 244 240.10176 C 334,237.28836 333.71165,237 330.90396,237 Z"
         style="color:#000000;display:inline;overflow:visible;visibility:visible;opacity:1;fill:#46a926;fill-opacity:1;fill-rule:nonzero;stroke:none;stroke-width:2;stroke-miterlimit:4;stroke-dasharray:none;stroke-opacity:1;marker:none;enable-background:accumulate" />
    </clipPath>
    <linearGradient
       id="_Linear13"
       x1="0"
       y1="0"
       x2="1"
       y2="0"
       gradientUnits="userSpaceOnUse"
       gradientTransform="matrix(0,16.032,-16.032,0,342.254,529.005)">
      <stop
         offset="0"
         style="stop-color:rgb(163,62,3);stop-opacity:1"
         id="stop443" />
      <stop
         offset="1"
         style="stop-color:rgb(98,37,2);stop-opacity:1"
         id="stop445" />
    </linearGradient>
    <linearGradient
       inkscape:collect="always"
       xlink:href="#_Linear14"
       id="linearGradient1537"
       gradientUnits="userSpaceOnUse"
       gradientTransform="matrix(0,16.032,-16.032,0,340.502,528.001)"
       x1="0"
       y1="0"
       x2="1"
       y2="0" />
    <linearGradient
       id="_Linear14"
       x1="0"
       y1="0"
       x2="1"
       y2="0"
       gradientUnits="userSpaceOnUse"
       gradientTransform="matrix(0,16.032,-16.032,0,340.502,528.001)">
      <stop
         offset="0"
         style="stop-color:rgb(163,62,3);stop-opacity:1"
         id="stop448" />
      <stop
         offset="1"
         style="stop-color:rgb(98,37,2);stop-opacity:1"
         id="stop450" />
    </linearGradient>
    <linearGradient
       inkscape:collect="always"
       xlink:href="#_Linear16"
       id="linearGradient1533"
       gradientUnits="userSpaceOnUse"
       gradientTransform="matrix(0,16.032,-16.032,0,339.752,528.001)"
       x1="0"
       y1="0"
       x2="1"
       y2="0" />
    <linearGradient
       id="_Linear16"
       x1="0"
       y1="0"
       x2="1"
       y2="0"
       gradientUnits="userSpaceOnUse"
       gradientTransform="matrix(0,16.032,-16.032,0,339.752,528.001)">
      <stop
         offset="0"
         style="stop-color:rgb(163,62,3);stop-opacity:1"
         id="stop458" />
      <stop
         offset="1"
         style="stop-color:rgb(98,37,2);stop-opacity:1"
         id="stop460" />
    </linearGradient>
    <linearGradient
       inkscape:collect="always"
       xlink:href="#_Linear14"
       id="linearGradient2006"
       gradientUnits="userSpaceOnUse"
       gradientTransform="matrix(0,16.032,-16.032,0,340.502,528.001)"
       x1="0"
       y1="0"
       x2="1"
       y2="0" />
    <linearGradient
       inkscape:collect="always"
       xlink:href="#_Linear16"
       id="linearGradient2008"
       gradientUnits="userSpaceOnUse"
       gradientTransform="matrix(0,16.032,-16.032,0,339.752,528.001)"
       x1="0"
       y1="0"
       x2="1"
       y2="0" />
    <linearGradient
       gradientTransform="translate(-319.99966,-236)"
       inkscape:collect="always"
       xlink:href="#linearGradient4338"
       id="linearGradient1309"
       x1="332"
       y1="236"
       x2="324"
       y2="252"
       gradientUnits="userSpaceOnUse" />
    <linearGradient
       inkscape:collect="always"
       id="linearGradient4338">
      <stop
         style="stop-color:#f2f2f2;stop-opacity:1"
         offset="0"
         id="stop4340" />
      <stop
         style="stop-color:#ffffff;stop-opacity:1"
         offset="1"
         id="stop4342" />
    </linearGradient>
  </defs>
  <sodipodi:namedview
     pagecolor="#ffffff"
     bordercolor="#666666"
     borderopacity="1"
     objecttolerance="10"
     gridtolerance="10"
     guidetolerance="10"
     inkscape:pageopacity="0"
     inkscape:pageshadow="2"
     inkscape:window-width="1920"
     inkscape:window-height="1016"
     id="namedview6"
     showgrid="true"
     inkscape:zoom="29.5"
     inkscape:cx="3.7457627"
     inkscape:cy="6.6949153"
     inkscape:window-x="0"
     inkscape:window-y="0"
     inkscape:window-maximized="1"
     inkscape:current-layer="svg4"
     inkscape:document-rotation="0"
     inkscape:pagecheckerboard="0"
     inkscape:showpageshadow="2"
     inkscape:deskcolor="#d1d1d1">
    <inkscape:grid
       type="xygrid"
       id="grid1332" />
  </sodipodi:namedview>
  <rect
     style="fill:#808080;fill-opacity:1;fill-rule:evenodd;stroke-width:3;stroke-linecap:square"
     id="rect1182"
     width="2"
     height="1"
     x="1"
     y="3" />
  <rect
     style="fill:#808080;fill-opacity:1;fill-rule:evenodd;stroke-width:3;stroke-linecap:square"
     id="rect1184"
     width="2"
     height="1"
     x="1"
     y="5" />
  <rect
     style="fill:#808080;fill-opacity:1;fill-rule:evenodd;stroke-width:3;stroke-linecap:square"
     id="rect1186"
     width="2"
     height="1"
     x="1"
     y="7" />
  <rect
     style="fill:#808080;fill-opacity:1;fill-rule:evenodd;stroke-width:3;stroke-linecap:square"
     id="rect1188"
     width="2"
     height="1"
     x="1"
     y="9" />
  <rect
     style="fill:#808080;fill-opacity:1;fill-rule:evenodd;stroke-width:3;stroke-linecap:square"
     id="rect1190"
     width="2"
     height="1"
     x="1"
     y="11" />
  <path
     id="path918"
     style="color:#000000;display:inline;overflow:visible;visibility:visible;fill:#a33e03;fill-opacity:1;fill-rule:nonzero;stroke:none;stroke-width:1;marker:none;enable-background:accumulate"
     d="m 5.5955143,1.0000018 c -0.7104793,0 -1.2723605,0.015303 -1.75,0.095703 -0.4776295,0.08038 -0.8958384,0.2371253 -1.2050781,0.546875 -0.3092195,0.3097497 -0.464722,0.7268086 -0.5449219,1.2050781 -0.0802,0.4782596 -0.095703,1.042017 -0.095703,1.7539062 v 3.3984375 3.3984384 c 0.1036399,0.704304 0.015503,1.275646 0.095703,1.753906 0.08023,0.478269 0.2357124,0.895328 0.5449219,1.205078 0.3092397,0.30975 0.7274486,0.466475 1.2050781,0.546875 0.4776395,0.0804 1.0395207,0.0957 1.75,0.0957 h 4.8085947 c 0.710479,0 1.273433,-0.0154 1.751953,-0.0957 0.47852,-0.08033 0.896702,-0.237275 1.207031,-0.546875 0.31033,-0.30959 0.467275,-0.726099 0.546875,-1.205078 0.0795,-0.47844 0.09284,-1.042697 0.08984,-1.753906 v -3.3984384 -3.3964843 c 0.0011,-0.2168922 -4.08e-4,-0.416176 -0.0039,-0.6074218 l -2.990235,-2.9902344 c -0.189577,-0.00418 -0.386759,-0.00586 -0.601562,-0.00586 z" />
  <path
     id="path1291"
     style="color:#000000;font-style:normal;font-variant:normal;font-weight:normal;font-stretch:normal;font-size:medium;line-height:normal;font-family:sans-serif;font-variant-ligatures:normal;font-variant-position:normal;font-variant-caps:normal;font-variant-numeric:normal;font-variant-alternates:normal;font-feature-settings:normal;text-indent:0;text-align:start;text-decoration:none;text-decoration-line:none;text-decoration-style:solid;text-decoration-color:#000000;letter-spacing:normal;word-spacing:normal;text-transform:none;writing-mode:lr-tb;direction:ltr;text-orientation:mixed;dominant-baseline:auto;baseline-shift:baseline;text-anchor:start;white-space:normal;shape-padding:0;clip-rule:nonzero;display:inline;overflow:visible;visibility:visible;isolation:auto;mix-blend-mode:normal;color-interpolation:sRGB;color-interpolation-filters:linearRGB;solid-color:#000000;solid-opacity:1;fill:url(#linearGradient1309);fill-opacity:1;fill-rule:nonzero;stroke:none;stroke-width:3;stroke-linecap:butt;stroke-linejoin:miter;stroke-miterlimit:4;stroke-dasharray:none;stroke-dashoffset:0;stroke-opacity:1;marker:none;color-rendering:auto;image-rendering:auto;shape-rendering:auto;text-rendering:auto;enable-background:accumulate"
     d="M 5 2 L 5 14 C 5.0333394 14.000103 5.0614054 14 5.0957031 14 L 10.904297 14 C 11.593236 14 12.08778 13.979381 12.40625 13.925781 C 12.71058 13.874581 12.786675 13.807175 12.796875 13.796875 C 12.808075 13.785675 12.874281 13.711077 12.925781 13.404297 C 12.979381 13.084557 13 12.588547 13 11.898438 L 13 8 L 13 5 C 9.9881185 4.970653 9.9994902 4.999997 10 2 L 5.0957031 2 C 5.0614054 2 5.0333395 1.9998968 5 2 z " />
  <g
     transform="translate(-334,-527.99973)"
     id="g96"
     style="clip-rule:evenodd;display:inline;fill-rule:evenodd;enable-background:new">
    <path
       d="m 344,534 h -2 c -1.105,0 -2,0.896 -2,2 v 3 c 0,1.105 0.895,2 2,2 h 2 c 1.105,0 2,-0.895 2,-2 v -3 c 0,-1.104 -0.895,-2 -2,-2 z"
       style="fill:#f9cfb5;fill-rule:nonzero"
       id="path94"
       sodipodi:nodetypes="sssssssss" />
  </g>
  <g
     transform="translate(-334,-527.99973)"
     id="g100"
     style="clip-rule:evenodd;display:inline;fill-rule:evenodd;enable-background:new">
    <path
       d="m 341.0035,534.006 c -0.554,0 -1.004,0.448 -1.004,1.002 v 4.996 c 0,0.552 0.448,1 1,1 h 4.0005 c 0.552,0 1,-0.447 1,-1 10e-4,-1.26 10e-4,-3.452 0.002,-5.007 0,-0.55 -0.444,-0.996 -0.995,-0.997 -1.867,-0.002 -2.1355,0.008 -4.0035,0.006 z m -0.002,1.499 c -0.001,-0.277 0.224,-0.501 0.501,-0.5 l 3.0005,0.011 c 0.276,0.001 0.499,0.225 0.499,0.5 v 4.001 c 0,0.277 -0.224,0.5 -0.5,0.5 h -2.9975 c -0.277,0 -0.502,-0.225 -0.501,-0.502 0.004,-1.295 0,-3.134 -0.002,-4.01 z"
       style="fill:url(#_Linear13);fill-rule:nonzero"
       id="path98"
       sodipodi:nodetypes="csssscccccccsssscc" />
  </g>
  <g
     transform="translate(-334,-527.99973)"
     id="g104"
     style="clip-rule:evenodd;display:inline;fill-rule:evenodd;enable-background:new">
    <rect
       x="342.00201"
       y="536.00098"
       width="2"
       height="1"
       style="fill:url(#linearGradient2006);fill-rule:nonzero"
       id="rect102" />
  </g>
  <g
     transform="translate(-334,-527.99973)"
     id="g108"
     style="clip-rule:evenodd;display:inline;fill-rule:evenodd;enable-background:new">
    <rect
       x="342.00201"
       y="538.00098"
       width="2"
       height="1"
       style="fill:url(#linearGradient1537);fill-rule:nonzero"
       id="rect106" />
  </g>
  <g
     transform="translate(-334,-527.99973)"
     id="g112"
     style="clip-rule:evenodd;display:inline;fill-rule:evenodd;enable-background:new">
    <rect
       x="340.00201"
       y="536.00098"
       width="1"
       height="1"
       style="fill:url(#linearGradient2008);fill-rule:nonzero"
       id="rect110" />
  </g>
  <g
     transform="translate(-334,-527.99973)"
     id="g116"
     style="clip-rule:evenodd;display:inline;fill-rule:evenodd;enable-background:new">
    <rect
       x="340.00201"
       y="538.00098"
       width="1"
       height="1"
       style="fill:url(#linearGradient1533);fill-rule:nonzero"
       id="rect114" />
  </g>
  <g
     transform="translate(-334,-527.99973)"
     id="g120"
     style="clip-rule:evenodd;display:inline;fill-rule:evenodd;enable-background:new">
    <rect
       x="344.00201"
       y="536.00098"
       width="1"
       height="1"
       style="fill:#f09e6f;fill-rule:nonzero"
       id="rect118" />
  </g>
  <g
     transform="translate(-334,-527.99973)"
     id="g124"
     style="clip-rule:evenodd;display:inline;fill-rule:evenodd;enable-background:new">
    <rect
       x="344.00201"
       y="538.00098"
       width="1"
       height="1"
       style="fill:#f09e6f;fill-rule:nonzero"
       id="rect122" />
  </g>
  <rect
     style="fill:#ffffff;fill-rule:evenodd;stroke-width:3;stroke-linecap:square"
     id="rect1012"
     width="1"
     height="1"
     x="3"
     y="3" />
  <rect
     style="fill:#ffffff;fill-rule:evenodd;stroke-width:3;stroke-linecap:square"
     id="rect1014"
     width="1"
     height="1"
     x="3"
     y="5" />
  <rect
     style="fill:#ffffff;fill-rule:evenodd;stroke-width:3;stroke-linecap:square"
     id="rect1016"
     width="1"
     height="1"
     x="3"
     y="7" />
  <rect
     style="fill:#ffffff;fill-rule:evenodd;stroke-width:3;stroke-linecap:square"
     id="rect1018"
     width="1"
     height="1"
     x="3"
     y="9" />
  <rect
     style="fill:#ffffff;fill-rule:evenodd;stroke-width:3;stroke-linecap:square"
     id="rect1020"
     width="1"
     height="1"
     x="3"
     y="11" />
</svg>
