<?xml version="1.0" encoding="UTF-8" standalone="no"?>
<svg
   viewBox="0 0 16 16"
   version="1.1"
   id="svg4"
   sodipodi:docname="sx03251.svg"
   inkscape:version="1.2 (1:1.2.1+202207142221+cd75a1ee6d)"
   xmlns:inkscape="http://www.inkscape.org/namespaces/inkscape"
   xmlns:sodipodi="http://sodipodi.sourceforge.net/DTD/sodipodi-0.dtd"
   xmlns:xlink="http://www.w3.org/1999/xlink"
   xmlns="http://www.w3.org/2000/svg"
   xmlns:svg="http://www.w3.org/2000/svg"
   xmlns:rdf="http://www.w3.org/1999/02/22-rdf-syntax-ns#"
   xmlns:cc="http://creativecommons.org/ns#"
   xmlns:dc="http://purl.org/dc/elements/1.1/">
  <metadata
     id="metadata10">
    <rdf:RDF>
      <cc:Work
         rdf:about="">
        <dc:format>image/svg+xml</dc:format>
        <dc:type
           rdf:resource="http://purl.org/dc/dcmitype/StillImage" />
      </cc:Work>
    </rdf:RDF>
  </metadata>
  <defs
     id="defs8">
    <clipPath
       clipPathUnits="userSpaceOnUse"
       id="clipPath983-6">
      <path
         sodipodi:nodetypes="scccssscsss"
         inkscape:connector-curvature="0"
         id="path985-0"
         d="m 325.09646,237 c -2.80769,0 -3.10979,0.28839 -3.09603,3.10176 V 244 v 3.89824 c -0.0138,2.81337 0.28834,3.10176 3.09603,3.10176 h 5.8075 C 333.71166,251 334,250.71165 334,247.89824 V 244 240.10176 C 334,237.28836 333.71165,237 330.90396,237 Z"
         style="color:#000000;display:inline;overflow:visible;visibility:visible;opacity:1;fill:#46a926;fill-opacity:1;fill-rule:nonzero;stroke:none;stroke-width:2;stroke-miterlimit:4;stroke-dasharray:none;stroke-opacity:1;marker:none;enable-background:accumulate" />
    </clipPath>
    <linearGradient
       id="linearGradient9153">
      <stop
         id="stop9155"
         style="stop-color:#0369a3;stop-opacity:1"
         offset="0" />
      <stop
         id="stop9157"
         style="stop-color:#047fc6;stop-opacity:1"
         offset="1" />
    </linearGradient>
    <linearGradient
       inkscape:collect="always"
       id="linearGradient4338">
      <stop
         style="stop-color:#f2f2f2;stop-opacity:1"
         offset="0"
         id="stop4340" />
      <stop
         style="stop-color:#ffffff;stop-opacity:1"
         offset="1"
         id="stop4342" />
    </linearGradient>
    <linearGradient
       id="_Linear12"
       x1="0"
       y1="0"
       x2="1"
       y2="0"
       gradientUnits="userSpaceOnUse"
       gradientTransform="matrix(0,12,-12,0,749,530)">
      <stop
         offset="0"
         style="stop-color:rgb(3,105,163);stop-opacity:1"
         id="stop282" />
      <stop
         offset="1"
         style="stop-color:rgb(4,127,198);stop-opacity:1"
         id="stop284" />
    </linearGradient>
    <linearGradient
       gradientTransform="translate(-319.99966,-236)"
       inkscape:collect="always"
       xlink:href="#linearGradient4338"
       id="linearGradient1309-8"
       x1="332"
       y1="236"
       x2="324"
       y2="252"
       gradientUnits="userSpaceOnUse" />
  </defs>
  <sodipodi:namedview
     pagecolor="#ffffff"
     bordercolor="#666666"
     borderopacity="1"
     objecttolerance="10"
     gridtolerance="10"
     guidetolerance="10"
     inkscape:pageopacity="0"
     inkscape:pageshadow="2"
     inkscape:window-width="1920"
     inkscape:window-height="1016"
     id="namedview6"
     showgrid="true"
     inkscape:zoom="20.85965"
     inkscape:cx="11.529436"
     inkscape:cy="6.0643395"
     inkscape:window-x="0"
     inkscape:window-y="0"
     inkscape:window-maximized="1"
     inkscape:current-layer="svg4"
     inkscape:document-rotation="0"
     inkscape:pagecheckerboard="0"
     inkscape:showpageshadow="2"
     inkscape:deskcolor="#d1d1d1">
    <inkscape:grid
       type="xygrid"
       id="grid855" />
  </sodipodi:namedview>
  <path
     id="path918-3"
     style="color:#000000;display:inline;overflow:visible;visibility:visible;fill:#0369a3;fill-opacity:1.0;fill-rule:nonzero;stroke:none;stroke-width:1;marker:none;enable-background:accumulate"
     d="m 5.5955145,1.0000019 c -0.7104793,0 -1.2723605,0.015303 -1.75,0.095703 -0.4776295,0.08038 -0.8958384,0.2371253 -1.2050781,0.546875 -0.3092195,0.3097497 -0.464722,0.7268086 -0.5449219,1.2050781 -0.0802,0.4782596 -0.095703,1.042017 -0.095703,1.7539062 v 3.3984375 3.3984383 c 0.1036399,0.704304 0.015503,1.275646 0.095703,1.753906 0.08023,0.478269 0.2357124,0.895328 0.5449219,1.205078 0.3092397,0.30975 0.7274486,0.466475 1.2050781,0.546875 0.4776395,0.0804 1.0395207,0.0957 1.75,0.0957 h 4.8085945 c 0.710479,0 1.273433,-0.0154 1.751953,-0.0957 0.47852,-0.08033 0.896702,-0.237275 1.207031,-0.546875 0.31033,-0.30959 0.467275,-0.726099 0.546875,-1.205078 0.0795,-0.47844 0.09284,-1.042697 0.08984,-1.753906 v -3.3984383 -3.3964843 c 0.0011,-0.2168922 -4.08e-4,-0.416176 -0.0039,-0.6074218 l -2.990235,-2.9902344 c -0.189577,-0.00418 -0.386759,-0.00586 -0.601562,-0.00586 z" />
  <path
     id="path1291-1"
     d="m 5.0960402,2.0000019 c -0.6888,0 -1.1839,0.0205 -1.5039,0.0742 -0.30449,0.0511 -0.38369,0.11806 -0.39649,0.13086 -0.0131,0.0131 -0.0746,0.0855 -0.125,0.38867 -0.0529,0.31839 -0.0733,0.81274 -0.0703,1.5019499 v 0.004 3.90039 3.9023401 0.002 c -0.003,0.68916 0.0176,1.18495 0.0703,1.50195 0.0504,0.30317 0.1119,0.37557 0.125,0.38867 0.0128,0.0128 0.0918,0.0798 0.39649,0.13086 0.32002,0.0537 0.8151,0.0742 1.5039,0.0742 h 5.8086008 c 0.68894,0 1.18348,-0.0206 1.50195,-0.0742 0.30433,-0.0512 0.38043,-0.1186 0.39063,-0.1289 0.0112,-0.0112 0.0774,-0.0858 0.1289,-0.39258 0.0536,-0.31974 0.0742,-0.81575 0.0742,-1.50586 v -3.8985502 -3 c -3.0118845,-0.029347 -3.0005095,0 -3,-3 z"
     style="color:#000000;font-style:normal;font-variant:normal;font-weight:normal;font-stretch:normal;font-size:medium;line-height:normal;font-family:sans-serif;font-variant-ligatures:normal;font-variant-position:normal;font-variant-caps:normal;font-variant-numeric:normal;font-variant-alternates:normal;font-feature-settings:normal;text-indent:0;text-align:start;text-decoration:none;text-decoration-line:none;text-decoration-style:solid;text-decoration-color:#000000;letter-spacing:normal;word-spacing:normal;text-transform:none;writing-mode:lr-tb;direction:ltr;text-orientation:mixed;dominant-baseline:auto;baseline-shift:baseline;text-anchor:start;white-space:normal;shape-padding:0;clip-rule:nonzero;display:inline;overflow:visible;visibility:visible;isolation:auto;mix-blend-mode:normal;color-interpolation:sRGB;color-interpolation-filters:linearRGB;solid-color:#000000;solid-opacity:1;fill:url(#linearGradient1309-8);fill-opacity:1;fill-rule:nonzero;stroke:none;stroke-width:3;stroke-linecap:butt;stroke-linejoin:miter;stroke-miterlimit:4;stroke-dasharray:none;stroke-dashoffset:0;stroke-opacity:1;marker:none;color-rendering:auto;image-rendering:auto;shape-rendering:auto;text-rendering:auto;enable-background:accumulate"
     inkscape:connector-curvature="0"
     sodipodi:nodetypes="scsccccccsscsscccscccs" />
  <g
     transform="translate(-741,-527)"
     id="g88"
     style="clip-rule:evenodd;display:inline;fill-rule:evenodd;enable-background:new">
    <path
       d="m 745.5,533 c -0.276,0 -0.5,0.224 -0.5,0.5 0,0.276 0.224,0.5 0.5,0.5 h 5 c 0.277,0 0.5,-0.224 0.5,-0.5 0,-0.276 -0.223,-0.5 -0.5,-0.5 z m 0,2 c -0.276,0 -0.5,0.224 -0.5,0.5 0,0.276 0.224,0.5 0.5,0.5 h 7 c 0.277,0 0.5,-0.224 0.5,-0.5 0,-0.276 -0.223,-0.5 -0.5,-0.5 z m 0,2 c -0.276,0 -0.5,0.224 -0.5,0.5 0,0.276 0.224,0.5 0.5,0.5 h 7 c 0.277,0 0.5,-0.224 0.5,-0.5 0,-0.276 -0.223,-0.5 -0.5,-0.5 z m 0,2 c -0.276,0 -0.5,0.224 -0.5,0.5 0,0.276 0.224,0.5 0.5,0.5 h 5 c 0.277,0 0.5,-0.224 0.5,-0.5 0,-0.276 -0.223,-0.5 -0.5,-0.5 z"
       style="fill:url(#_Linear12);fill-rule:nonzero"
       id="path86" />
  </g>
</svg>
