<?xml version="1.0" encoding="UTF-8" standalone="no"?>
<svg
   viewBox="0 0 16 16"
   version="1.1"
   id="svg4"
   sodipodi:docname="sx03246.svg"
   inkscape:version="1.2 (1:1.2.1+202207142221+cd75a1ee6d)"
   inkscape:export-filename="/home/jupiter007/Libreoffice yaru theme/build/res/odg_16_8.png"
   inkscape:export-xdpi="95"
   inkscape:export-ydpi="95"
   xmlns:inkscape="http://www.inkscape.org/namespaces/inkscape"
   xmlns:sodipodi="http://sodipodi.sourceforge.net/DTD/sodipodi-0.dtd"
   xmlns:xlink="http://www.w3.org/1999/xlink"
   xmlns="http://www.w3.org/2000/svg"
   xmlns:svg="http://www.w3.org/2000/svg"
   xmlns:rdf="http://www.w3.org/1999/02/22-rdf-syntax-ns#"
   xmlns:cc="http://creativecommons.org/ns#"
   xmlns:dc="http://purl.org/dc/elements/1.1/">
  <metadata
     id="metadata10">
    <rdf:RDF>
      <cc:Work
         rdf:about="">
        <dc:format>image/svg+xml</dc:format>
        <dc:type
           rdf:resource="http://purl.org/dc/dcmitype/StillImage" />
      </cc:Work>
    </rdf:RDF>
  </metadata>
  <defs
     id="defs8">
    <clipPath
       clipPathUnits="userSpaceOnUse"
       id="clipPath983-6">
      <path
         sodipodi:nodetypes="scccssscsss"
         inkscape:connector-curvature="0"
         id="path985-0"
         d="m 325.09646,237 c -2.80769,0 -3.10979,0.28839 -3.09603,3.10176 V 244 v 3.89824 c -0.0138,2.81337 0.28834,3.10176 3.09603,3.10176 h 5.8075 C 333.71166,251 334,250.71165 334,247.89824 V 244 240.10176 C 334,237.28836 333.71165,237 330.90396,237 Z"
         style="color:#000000;display:inline;overflow:visible;visibility:visible;opacity:1;fill:#46a926;fill-opacity:1;fill-rule:nonzero;stroke:none;stroke-width:2;stroke-miterlimit:4;stroke-dasharray:none;stroke-opacity:1;marker:none;enable-background:accumulate" />
    </clipPath>
    <linearGradient
       id="linearGradient13214">
      <stop
         id="stop13216"
         style="stop-color:#18a303;stop-opacity:1"
         offset="0" />
      <stop
         id="stop13218"
         style="stop-color:#106802;stop-opacity:1"
         offset="1" />
    </linearGradient>
    <clipPath
       clipPathUnits="userSpaceOnUse"
       id="clipPath983-6-9">
      <path
         sodipodi:nodetypes="scccssscsss"
         inkscape:connector-curvature="0"
         id="path985-0-2"
         d="m 325.09646,237 c -2.80769,0 -3.10979,0.28839 -3.09603,3.10176 V 244 v 3.89824 c -0.0138,2.81337 0.28834,3.10176 3.09603,3.10176 h 5.8075 C 333.71166,251 334,250.71165 334,247.89824 V 244 240.10176 C 334,237.28836 333.71165,237 330.90396,237 Z"
         style="color:#000000;display:inline;overflow:visible;visibility:visible;opacity:1;fill:#46a926;fill-opacity:1;fill-rule:nonzero;stroke:none;stroke-width:2;stroke-miterlimit:4;stroke-dasharray:none;stroke-opacity:1;marker:none;enable-background:accumulate" />
    </clipPath>
    <linearGradient
       id="linearGradient10125-8">
      <stop
         style="stop-color: rgb(201, 156, 0); stop-opacity: 1;"
         offset="0"
         id="stop10127-5" />
      <stop
         style="stop-color: rgb(135, 105, 0); stop-opacity: 1;"
         offset="1"
         id="stop10129-5" />
    </linearGradient>
    <linearGradient
       id="linearGradient7707">
      <stop
         offset="0"
         style="stop-color:#d98027;stop-opacity:1"
         id="stop7703" />
      <stop
         offset="1"
         style="stop-color:#be5e0f;stop-opacity:1"
         id="stop7705" />
    </linearGradient>
    <linearGradient
       gradientTransform="translate(-319.99966,-236)"
       inkscape:collect="always"
       xlink:href="#linearGradient4338"
       id="linearGradient1309"
       x1="332"
       y1="236"
       x2="324"
       y2="252"
       gradientUnits="userSpaceOnUse" />
    <linearGradient
       inkscape:collect="always"
       id="linearGradient4338">
      <stop
         style="stop-color:#f2f2f2;stop-opacity:1"
         offset="0"
         id="stop4340" />
      <stop
         style="stop-color:#ffffff;stop-opacity:1"
         offset="1"
         id="stop4342" />
    </linearGradient>
  </defs>
  <sodipodi:namedview
     pagecolor="#ffffff"
     bordercolor="#666666"
     borderopacity="1"
     objecttolerance="10"
     gridtolerance="10"
     guidetolerance="10"
     inkscape:pageopacity="0"
     inkscape:pageshadow="2"
     inkscape:window-width="1920"
     inkscape:window-height="1016"
     id="namedview6"
     showgrid="true"
     inkscape:zoom="29.5"
     inkscape:cx="8.6610169"
     inkscape:cy="5.7118644"
     inkscape:window-x="0"
     inkscape:window-y="0"
     inkscape:window-maximized="1"
     inkscape:current-layer="svg4"
     inkscape:document-rotation="0"
     inkscape:pagecheckerboard="0"
     inkscape:showpageshadow="2"
     inkscape:deskcolor="#d1d1d1">
    <inkscape:grid
       type="xygrid"
       id="grid865" />
  </sodipodi:namedview>
  <path
     id="path918"
     style="color:#000000;display:inline;overflow:visible;visibility:visible;fill:#e0a200;fill-opacity:1.0;fill-rule:nonzero;stroke:none;stroke-width:1;marker:none;enable-background:accumulate"
     d="m 5.5955145,1.0000019 c -0.7104793,0 -1.2723605,0.015303 -1.75,0.095703 -0.4776295,0.08038 -0.8958384,0.2371253 -1.2050781,0.546875 -0.3092195,0.3097497 -0.464722,0.7268086 -0.5449219,1.2050781 -0.0802,0.4782596 -0.095703,1.042017 -0.095703,1.7539062 v 3.3984375 3.3984383 c 0.1036399,0.704304 0.015503,1.275646 0.095703,1.753906 0.08023,0.478269 0.2357124,0.895328 0.5449219,1.205078 0.3092397,0.30975 0.7274486,0.466475 1.2050781,0.546875 0.4776395,0.0804 1.0395207,0.0957 1.75,0.0957 h 4.8085945 c 0.710479,0 1.273433,-0.0154 1.751953,-0.0957 0.47852,-0.08033 0.896702,-0.237275 1.207031,-0.546875 0.31033,-0.30959 0.467275,-0.726099 0.546875,-1.205078 0.0795,-0.47844 0.09284,-1.042697 0.08984,-1.753906 v -3.3984383 -3.3964843 c 0.0011,-0.2168922 -4.08e-4,-0.416176 -0.0039,-0.6074218 l -2.990235,-2.9902344 c -0.189577,-0.00418 -0.386759,-0.00586 -0.601562,-0.00586 z" />
  <path
     id="path1291"
     d="m 5.0960402,2.0000019 c -0.6888,0 -1.1839,0.0205 -1.5039,0.0742 -0.30449,0.0511 -0.38369,0.11806 -0.39649,0.13086 -0.0131,0.0131 -0.0746,0.0855 -0.125,0.38867 -0.0529,0.31839 -0.0733,0.81274 -0.0703,1.50195 v 0.004 3.90039 3.9023401 0.002 c -0.003,0.68916 0.0176,1.18495 0.0703,1.50195 0.0504,0.30317 0.1119,0.37557 0.125,0.38867 0.0128,0.0128 0.0918,0.0798 0.39649,0.13086 0.32002,0.0537 0.8151,0.0742 1.5039,0.0742 h 5.8086008 c 0.68894,0 1.18348,-0.0206 1.50195,-0.0742 0.30433,-0.0512 0.38043,-0.1186 0.39063,-0.1289 0.0112,-0.0112 0.0774,-0.0858 0.1289,-0.39258 0.0536,-0.31974 0.0742,-0.81575 0.0742,-1.50586 v -3.8985501 -3 c -3.0118843,-0.029347 -3.0005096,0 -3,-3 z"
     style="color:#000000;font-style:normal;font-variant:normal;font-weight:normal;font-stretch:normal;font-size:medium;line-height:normal;font-family:sans-serif;font-variant-ligatures:normal;font-variant-position:normal;font-variant-caps:normal;font-variant-numeric:normal;font-variant-alternates:normal;font-feature-settings:normal;text-indent:0;text-align:start;text-decoration:none;text-decoration-line:none;text-decoration-style:solid;text-decoration-color:#000000;letter-spacing:normal;word-spacing:normal;text-transform:none;writing-mode:lr-tb;direction:ltr;text-orientation:mixed;dominant-baseline:auto;baseline-shift:baseline;text-anchor:start;white-space:normal;shape-padding:0;clip-rule:nonzero;display:inline;overflow:visible;visibility:visible;isolation:auto;mix-blend-mode:normal;color-interpolation:sRGB;color-interpolation-filters:linearRGB;solid-color:#000000;solid-opacity:1;fill:url(#linearGradient1309);fill-opacity:1;fill-rule:nonzero;stroke:none;stroke-width:3;stroke-linecap:butt;stroke-linejoin:miter;stroke-miterlimit:4;stroke-dasharray:none;stroke-dashoffset:0;stroke-opacity:1;marker:none;color-rendering:auto;image-rendering:auto;shape-rendering:auto;text-rendering:auto;enable-background:accumulate"
     inkscape:connector-curvature="0"
     sodipodi:nodetypes="scsccccccsscsscccscccs" />
  <g
     transform="translate(-733.992,-230)"
     id="g92"
     style="clip-rule:evenodd;display:inline;fill-rule:evenodd;enable-background:new">
    <path
       d="m 745.492,237.487 -5.5,5 h 5.5 z"
       style="fill:#f7d260;fill-rule:nonzero;stroke:#e9b913;stroke-width:1px;stroke-linejoin:round"
       id="path90" />
  </g>
  <g
     transform="translate(-733.992,-230)"
     id="g96"
     style="clip-rule:evenodd;display:inline;fill-rule:evenodd;enable-background:new">
    <path
       d="m 745.336,237 c -0.071,0.027 -0.136,0.069 -0.188,0.125 l -5.5,5 c -0.158,0.139 -0.211,0.362 -0.134,0.558 0.076,0.196 0.268,0.322 0.478,0.317 h 5.5 c 0.276,0 0.5,-0.224 0.5,-0.5 v -5 c 0.008,-0.165 -0.065,-0.323 -0.196,-0.423 -0.132,-0.1 -0.304,-0.129 -0.46,-0.077 z m -0.344,1.625 v 3.375 h -3.719 z"
       style="fill:#c99c00;fill-rule:nonzero"
       id="path94" />
  </g>
  <g
     transform="translate(-733.992,-230)"
     id="g100"
     style="clip-rule:evenodd;display:inline;fill-rule:evenodd;enable-background:new">
    <path
       d="m 739.36,240.845 c -0.36,-0.314 -0.623,-0.723 -0.758,-1.181 -0.135,-0.458 -0.136,-0.945 -0.004,-1.404 0.132,-0.459 0.393,-0.87 0.751,-1.186 0.357,-0.316 0.798,-0.523 1.27,-0.597 0.471,-0.074 0.954,-0.012 1.392,0.179 0.437,0.191 0.811,0.503 1.078,0.899"
       style="fill:#f0c46f;fill-rule:nonzero"
       id="path98" />
  </g>
  <g
     transform="translate(-733.992,-230)"
     id="g104"
     style="clip-rule:evenodd;display:inline;fill-rule:evenodd;enable-background:new">
    <path
       d="m 739.36,240.845 c -0.36,-0.314 -0.623,-0.723 -0.758,-1.181 -0.135,-0.458 -0.136,-0.945 -0.004,-1.404 0.132,-0.459 0.393,-0.87 0.751,-1.186 0.357,-0.316 0.798,-0.523 1.27,-0.597 0.471,-0.074 0.954,-0.012 1.392,0.179 0.437,0.191 0.811,0.503 1.078,0.899"
       style="fill:none;fill-rule:nonzero;stroke:#cb851d;stroke-width:1px;stroke-linecap:round;stroke-linejoin:round"
       id="path102" />
  </g>
</svg>
