<?xml version="1.0" encoding="UTF-8" standalone="no"?>
<svg
   viewBox="0 0 16 16"
   version="1.1"
   id="svg4"
   sodipodi:docname="sx03245.svg"
   inkscape:version="1.2 (1:1.2.1+202207142221+cd75a1ee6d)"
   inkscape:export-filename="/home/jupiter007/Libreoffice yaru theme/build/res/odb_16_8.png"
   inkscape:export-xdpi="96"
   inkscape:export-ydpi="96"
   xmlns:inkscape="http://www.inkscape.org/namespaces/inkscape"
   xmlns:sodipodi="http://sodipodi.sourceforge.net/DTD/sodipodi-0.dtd"
   xmlns:xlink="http://www.w3.org/1999/xlink"
   xmlns="http://www.w3.org/2000/svg"
   xmlns:svg="http://www.w3.org/2000/svg"
   xmlns:rdf="http://www.w3.org/1999/02/22-rdf-syntax-ns#"
   xmlns:cc="http://creativecommons.org/ns#"
   xmlns:dc="http://purl.org/dc/elements/1.1/">
  <metadata
     id="metadata10">
    <rdf:RDF>
      <cc:Work
         rdf:about="">
        <dc:format>image/svg+xml</dc:format>
        <dc:type
           rdf:resource="http://purl.org/dc/dcmitype/StillImage" />
      </cc:Work>
    </rdf:RDF>
  </metadata>
  <defs
     id="defs8">
    <clipPath
       clipPathUnits="userSpaceOnUse"
       id="clipPath983-6">
      <path
         sodipodi:nodetypes="scccssscsss"
         inkscape:connector-curvature="0"
         id="path985-0"
         d="m 325.09646,237 c -2.80769,0 -3.10979,0.28839 -3.09603,3.10176 V 244 v 3.89824 c -0.0138,2.81337 0.28834,3.10176 3.09603,3.10176 h 5.8075 C 333.71166,251 334,250.71165 334,247.89824 V 244 240.10176 C 334,237.28836 333.71165,237 330.90396,237 Z"
         style="color:#000000;display:inline;overflow:visible;visibility:visible;opacity:1;fill:#46a926;fill-opacity:1;fill-rule:nonzero;stroke:none;stroke-width:2;stroke-miterlimit:4;stroke-dasharray:none;stroke-opacity:1;marker:none;enable-background:accumulate" />
    </clipPath>
    <linearGradient
       gradientTransform="translate(-319.99947,-236)"
       inkscape:collect="always"
       xlink:href="#linearGradient4338"
       id="linearGradient1309"
       x1="332"
       y1="236"
       x2="324"
       y2="252"
       gradientUnits="userSpaceOnUse" />
    <linearGradient
       inkscape:collect="always"
       id="linearGradient4338">
      <stop
         style="stop-color:#f2f2f2;stop-opacity:1"
         offset="0"
         id="stop4340" />
      <stop
         style="stop-color:#ffffff;stop-opacity:1"
         offset="1"
         id="stop4342" />
    </linearGradient>
    <linearGradient
       id="linearGradient19927">
      <stop
         offset="0"
         style="stop-color:#c04fba;stop-opacity:1"
         id="stop19923" />
      <stop
         offset="1"
         style="stop-color:#9911aa;stop-opacity:1"
         id="stop19925" />
    </linearGradient>
  </defs>
  <sodipodi:namedview
     pagecolor="#ffffff"
     bordercolor="#666666"
     borderopacity="1"
     objecttolerance="10"
     gridtolerance="10"
     guidetolerance="10"
     inkscape:pageopacity="0"
     inkscape:pageshadow="2"
     inkscape:window-width="1920"
     inkscape:window-height="1016"
     id="namedview6"
     showgrid="true"
     inkscape:zoom="10.429825"
     inkscape:cx="-26.222875"
     inkscape:cy="0.23969721"
     inkscape:window-x="0"
     inkscape:window-y="0"
     inkscape:window-maximized="1"
     inkscape:current-layer="svg4"
     inkscape:document-rotation="0"
     inkscape:showpageshadow="2"
     inkscape:pagecheckerboard="0"
     inkscape:deskcolor="#d1d1d1">
    <inkscape:grid
       type="xygrid"
       id="grid855" />
  </sodipodi:namedview>
  <path
     id="path918"
     style="color:#000000;display:inline;overflow:visible;visibility:visible;fill:#9911aa;fill-opacity:1;fill-rule:nonzero;stroke:none;stroke-width:1;marker:none;enable-background:accumulate"
     d="M 5.5957031 1 C 4.8852238 1 4.3233426 1.0153032 3.8457031 1.0957031 C 3.3680736 1.176083 2.9498647 1.3328284 2.640625 1.6425781 C 2.3314055 1.9523278 2.175903 2.3693867 2.0957031 2.8476562 C 2.0155032 3.3259158 2 3.8896732 2 4.6015625 L 2 8 L 2 11.398438 C 2.1036399 12.102742 2.0155032 12.674084 2.0957031 13.152344 C 2.175933 13.630613 2.3314155 14.047672 2.640625 14.357422 C 2.9498647 14.667172 3.3680736 14.823897 3.8457031 14.904297 C 4.3233426 14.984697 4.8852238 15 5.5957031 15 L 10.404297 15 C 11.114776 15 11.67773 14.984597 12.15625 14.904297 C 12.63477 14.823967 13.052952 14.667022 13.363281 14.357422 C 13.673611 14.047832 13.830556 13.631323 13.910156 13.152344 C 13.989656 12.673904 14.003 12.109647 14 11.398438 L 14 8 L 14 4.6035156 C 14.001066 4.3866234 13.999592 4.1873396 13.996094 3.9960938 L 11.005859 1.0058594 C 10.816282 1.0016761 10.6191 1 10.404297 1 L 5.5957031 1 z " />
  <path
     id="path1291"
     d="m 5.0962288,2 c -0.6888,0 -1.1839,0.0205 -1.5039,0.0742 -0.30449,0.0511 -0.38369,0.11806 -0.39649,0.13086 -0.0131,0.0131 -0.0746,0.0855 -0.125,0.38867 -0.0529,0.31839 -0.0733,0.81274 -0.0703,1.50195 v 0.004 3.90039 3.90234 0.002 c -0.003,0.68916 0.0176,1.18495 0.0703,1.50195 0.0504,0.30317 0.1119,0.37557 0.125,0.38867 0.0128,0.0128 0.0918,0.0798 0.39649,0.13086 0.32002,0.0537 0.8151,0.0742 1.5039,0.0742 h 5.8086002 c 0.68894,0 1.18348,-0.0206 1.50195,-0.0742 0.30433,-0.0512 0.38043,-0.1186 0.39063,-0.1289 0.0112,-0.0112 0.0774,-0.0858 0.1289,-0.39258 0.0536,-0.31974 0.0742,-0.81575 0.0742,-1.50586 v -3.89855 -3 c -3.0118837,-0.029347 -3.000509,0 -3,-3 z"
     style="color:#000000;font-style:normal;font-variant:normal;font-weight:normal;font-stretch:normal;font-size:medium;line-height:normal;font-family:sans-serif;font-variant-ligatures:normal;font-variant-position:normal;font-variant-caps:normal;font-variant-numeric:normal;font-variant-alternates:normal;font-feature-settings:normal;text-indent:0;text-align:start;text-decoration:none;text-decoration-line:none;text-decoration-style:solid;text-decoration-color:#000000;letter-spacing:normal;word-spacing:normal;text-transform:none;writing-mode:lr-tb;direction:ltr;text-orientation:mixed;dominant-baseline:auto;baseline-shift:baseline;text-anchor:start;white-space:normal;shape-padding:0;clip-rule:nonzero;display:inline;overflow:visible;visibility:visible;isolation:auto;mix-blend-mode:normal;color-interpolation:sRGB;color-interpolation-filters:linearRGB;solid-color:#000000;solid-opacity:1;vector-effect:none;fill:url(#linearGradient1309);fill-opacity:1;fill-rule:nonzero;stroke:none;stroke-width:3;stroke-linecap:butt;stroke-linejoin:miter;stroke-miterlimit:4;stroke-dasharray:none;stroke-dashoffset:0;stroke-opacity:1;marker:none;color-rendering:auto;image-rendering:auto;shape-rendering:auto;text-rendering:auto;enable-background:accumulate"
     inkscape:connector-curvature="0"
     sodipodi:nodetypes="scsccccccsscsscccscccs" />
  <g
     transform="translate(-319.99997,-234.57489)"
     id="g1373"
     style="display:inline;enable-background:new">
    <path
       style="color:#000000;display:inline;overflow:visible;visibility:visible;fill:#f2cbf8;fill-opacity:1;fill-rule:nonzero;stroke:#8e03a3;stroke-width:1;stroke-linecap:butt;stroke-linejoin:miter;stroke-miterlimit:4;stroke-dasharray:none;stroke-dashoffset:0pt;stroke-opacity:1;marker:none"
       d="m 324.5,243.0752 v 2 c 0,0 0,0.29921 0,0.5 0,0.82843 1.567,1.5 3.5,1.5 1.933,0 3.5,-0.67157 3.5,-1.5 v -0.5 -2 z"
       id="rect6392"
       sodipodi:nodetypes="cccscccc"
       inkscape:connector-curvature="0" />
    <ellipse
       id="path6390"
       style="color:#000000;display:inline;overflow:visible;visibility:visible;fill:#f2cbf8;fill-opacity:1;fill-rule:nonzero;stroke:#8e03a3;stroke-width:1;stroke-miterlimit:4;stroke-dasharray:none;marker:none"
       cx="328.00052"
       cy="242.57489"
       rx="3.5000031"
       ry="1.4999985" />
  </g>
</svg>
