<?xml version="1.0" encoding="UTF-8" standalone="no"?>
<svg
   height="150"
   viewBox="0 0 39.6875 39.687501"
   width="150"
   version="1.1"
   id="svg52"
   sodipodi:docname="tipoftheday.svg"
   xml:space="preserve"
   inkscape:version="1.2 (1:1.2.1+202207142221+cd75a1ee6d)"
   xmlns:inkscape="http://www.inkscape.org/namespaces/inkscape"
   xmlns:sodipodi="http://sodipodi.sourceforge.net/DTD/sodipodi-0.dtd"
   xmlns:xlink="http://www.w3.org/1999/xlink"
   xmlns="http://www.w3.org/2000/svg"
   xmlns:svg="http://www.w3.org/2000/svg"><defs
     id="defs56"><linearGradient
       inkscape:collect="always"
       id="linearGradient13533"><stop
         style="stop-color:#f0b100;stop-opacity:1;"
         offset="0"
         id="stop13529" /><stop
         style="stop-color:#ffd66f;stop-opacity:1;"
         offset="1"
         id="stop13531" /></linearGradient><linearGradient
       inkscape:collect="always"
       id="linearGradient5100"><stop
         style="stop-color:#191b1c;stop-opacity:1;"
         offset="0"
         id="stop5096" /><stop
         style="stop-color:#26262c;stop-opacity:1;"
         offset="1"
         id="stop5098" /></linearGradient><linearGradient
       inkscape:collect="always"
       id="linearGradient5083"><stop
         style="stop-color:#a6a6a6;stop-opacity:1;"
         offset="0"
         id="stop5079" /><stop
         style="stop-color:#bfbfbf;stop-opacity:1;"
         offset="1"
         id="stop5081" /></linearGradient><linearGradient
       inkscape:collect="always"
       id="linearGradient5075"><stop
         style="stop-color:#919191;stop-opacity:1;"
         offset="0"
         id="stop5071" /><stop
         style="stop-color:#a1a1a1;stop-opacity:1;"
         offset="1"
         id="stop5073" /></linearGradient><linearGradient
       inkscape:collect="always"
       xlink:href="#linearGradient5075"
       id="linearGradient5077"
       x1="17.197916"
       y1="25.796875"
       x2="21.166666"
       y2="27.648958"
       gradientUnits="userSpaceOnUse"
       gradientTransform="translate(0.52917235,-0.26374794)" /><linearGradient
       inkscape:collect="always"
       xlink:href="#linearGradient5083"
       id="linearGradient5085"
       x1="17.991667"
       y1="27.648958"
       x2="20.637501"
       y2="30.823959"
       gradientUnits="userSpaceOnUse"
       gradientTransform="translate(0.52917235,-0.26374794)" /><linearGradient
       inkscape:collect="always"
       xlink:href="#linearGradient5100"
       id="linearGradient5102"
       x1="17.991667"
       y1="30.823959"
       x2="20.637501"
       y2="32.014584"
       gradientUnits="userSpaceOnUse"
       gradientTransform="translate(0.52917235,-0.26374794)" /><linearGradient
       id="_Linear22-4"
       x1="0"
       y1="0"
       x2="1"
       y2="0"
       gradientUnits="userSpaceOnUse"
       gradientTransform="matrix(0,1.0583334,-1.0583334,0,32.807556,27.474597)"><stop
         offset="0"
         style="stop-color:rgb(170,220,247);stop-opacity:1"
         id="stop348-7" /><stop
         offset="1"
         style="stop-color:rgb(170,220,247);stop-opacity:1"
         id="stop350-8" /></linearGradient><linearGradient
       id="_Linear9"
       x1="0"
       y1="0"
       x2="1"
       y2="0"
       gradientUnits="userSpaceOnUse"
       gradientTransform="matrix(0,40,-40,0,765,358)"><stop
         offset="0"
         style="stop-color:rgb(3,105,163);stop-opacity:1"
         id="stop267" /><stop
         offset="1"
         style="stop-color:rgb(4,127,198);stop-opacity:1"
         id="stop269" /></linearGradient><linearGradient
       id="linearGradient19846"><stop
         id="stop19848"
         style="stop-color:#259dd2;stop-opacity:1"
         offset="0" /><stop
         id="stop19850"
         style="stop-color:#065d8d;stop-opacity:1"
         offset="1" /></linearGradient><linearGradient
       inkscape:collect="always"
       xlink:href="#linearGradient13533"
       id="linearGradient13535"
       x1="14.552084"
       y1="6.0854168"
       x2="25.135416"
       y2="24.077084"
       gradientUnits="userSpaceOnUse"
       gradientTransform="translate(6.1016099e-6,1.6298748)" /><linearGradient
       inkscape:collect="always"
       xlink:href="#linearGradient5100"
       id="linearGradient15088"
       gradientUnits="userSpaceOnUse"
       gradientTransform="translate(0.52917235,-0.26374794)"
       x1="17.991667"
       y1="30.823959"
       x2="20.637501"
       y2="32.014584" /><linearGradient
       id="_Linear10"
       x1="0"
       y1="0"
       x2="1"
       y2="0"
       gradientUnits="userSpaceOnUse"
       gradientTransform="matrix(0,16.223,-16.223,0,338,228.912)"><stop
         offset="0"
         style="stop-color:rgb(24,163,3);stop-opacity:1"
         id="stop376" /><stop
         offset="1"
         style="stop-color:rgb(16,104,2);stop-opacity:1"
         id="stop378" /></linearGradient><clipPath
       clipPathUnits="userSpaceOnUse"
       id="clipPath994-5-5"><path
         style="color:#000000;display:inline;overflow:visible;visibility:visible;fill:#cdcdcd;fill-opacity:1;fill-rule:nonzero;stroke:none;stroke-width:2;stroke-miterlimit:4;stroke-dasharray:none;stroke-opacity:1;marker:none;enable-background:accumulate"
         d="m 335.73108,62 c -8.82418,0 -9.77365,0.90635 -9.7304,9.74838 v 12.25162 12.25162 c -0.0433,8.84203 0.90622,9.74838 9.7304,9.74838 h 16.53919 c 8.82418,0 9.7304,-0.90625 9.7304,-9.74838 v -12.25162 -12.25162 c 0,-8.84213 -0.90622,-9.74838 -9.7304,-9.74838 z"
         id="path996-9-3"
         inkscape:connector-curvature="0"
         sodipodi:nodetypes="scccssscsss" /></clipPath></defs><sodipodi:namedview
     id="namedview54"
     pagecolor="#ffffff"
     bordercolor="#666666"
     borderopacity="1.0"
     inkscape:showpageshadow="2"
     inkscape:pageopacity="0.0"
     inkscape:pagecheckerboard="0"
     inkscape:deskcolor="#d1d1d1"
     showgrid="false"
     inkscape:zoom="2.8284271"
     inkscape:cx="34.471456"
     inkscape:cy="61.518291"
     inkscape:window-width="1920"
     inkscape:window-height="1043"
     inkscape:window-x="0"
     inkscape:window-y="0"
     inkscape:window-maximized="1"
     inkscape:current-layer="svg52"><inkscape:grid
       type="xygrid"
       id="grid374" /><inkscape:grid
       type="xygrid"
       id="grid648"
       dotted="true"
       spacingx="0.13229167"
       spacingy="0.13229167"
       empspacing="10" /></sodipodi:namedview><linearGradient
     id="a"
     gradientUnits="userSpaceOnUse"
     x1="20.108334"
     x2="19.84375"
     y1="27.516668"
     y2="8.20518"
     gradientTransform="translate(-45.114511)"><stop
       offset="0"
       stop-color="#faae2a"
       id="stop2" /><stop
       offset="1"
       stop-color="#ffc35a"
       id="stop4" /></linearGradient><linearGradient
     id="b"
     gradientUnits="userSpaceOnUse"
     x1="11.641667"
     x2="11.641667"
     y1="15.875001"
     y2="27.516668"><stop
       offset="0"
       stop-color="#fcd994"
       id="stop7" /><stop
       offset="1"
       stop-color="#fff6e1"
       id="stop9" /></linearGradient><linearGradient
     id="c"
     gradientUnits="userSpaceOnUse"
     x1="19.314584"
     x2="26.722917"
     y1="16.139583"
     y2="23.547917"><stop
       offset="0"
       stop-color="#292c2f"
       id="stop12" /><stop
       offset="1"
       stop-opacity="0"
       id="stop14" /></linearGradient><linearGradient
     id="d"
     gradientTransform="matrix(0.49999977,0,0,-0.48275841,434.07135,553.24632)"
     gradientUnits="userSpaceOnUse"
     x1="409.07135"
     x2="408.07135"
     y1="544.79803"
     y2="502.79807"><stop
       offset="0"
       stop-color="#26c226"
       id="stop17" /><stop
       offset="1"
       stop-color="#3fc33f"
       id="stop19" /></linearGradient><path
     id="path15054"
     style="color:#000000;opacity:0.1;fill:url(#linearGradient5102);fill-opacity:1;stroke:#000000;stroke-width:0.529167"
     d="m 19.843756,7.6729169 c -3.796279,-4e-7 -6.878649,3.0218611 -6.87865,6.7479091 a 0.13230472,0.13230472 0 0 0 0,0.0021 c 0.02927,2.279505 0.843229,3.444541 1.626774,4.745963 0.783546,1.301424 1.546676,2.749549 1.546676,5.703011 0,0.237178 0.109347,0.444411 0.27957,0.582394 0.139399,0.112997 0.318812,0.181148 0.51573,0.202571 v 1.199411 c 0,0.227835 0.09015,0.419758 0.259416,0.525549 0.141128,0.08821 0.318547,0.122641 0.533301,0.131775 v 2.516642 c 0,0.198437 -0.0083,0.33516 0.04289,0.463021 0.02557,0.06393 0.07737,0.125503 0.142627,0.15813 0.02657,0.01328 0.05364,0.02262 0.08165,0.02894 0.0057,0.163625 0.03124,0.331475 0.144694,0.493509 0.141241,0.20173 0.396236,0.375699 0.861446,0.566374 l 0.02325,0.0098 h 1.644861 l 0.02532,-0.01137 c 0.474992,-0.223066 0.726363,-0.394509 0.865063,-0.588078 0.112084,-0.156424 0.132739,-0.31618 0.136426,-0.47594 0.02569,-0.007 0.05071,-0.01612 0.07493,-0.02894 0.06156,-0.03258 0.111116,-0.09039 0.138493,-0.152445 0.05475,-0.124104 0.05271,-0.262121 0.05271,-0.463021 v -2.517159 c 0.216295,-0.01074 0.393747,-0.05039 0.5333,-0.141077 0.167158,-0.108635 0.257958,-0.298727 0.259416,-0.51573 v -1.19631 c 0.169403,-0.01201 0.336236,-0.04859 0.478524,-0.127641 0.179375,-0.09965 0.316776,-0.285082 0.316776,-0.527616 0,-2.94664 0.77728,-4.428975 1.56838,-5.76554 0.791101,-1.336564 1.60507,-2.538232 1.60507,-4.81831 -1e-6,-3.726048 -3.082373,-6.7479084 -6.87865,-6.7479091 z" /><path
     id="path5089"
     style="color:#000000;fill:url(#linearGradient15088);fill-opacity:1;stroke-width:0.264583px"
     d="m 18.123964,30.560211 v 5.16e-4 h -0.131775 c 0,0.200358 0.005,0.411153 0.146244,0.612883 0.141241,0.20173 0.396235,0.375699 0.861446,0.566374 l 0.02325,0.0098 h 1.644861 l 0.02532,-0.01137 c 0.474993,-0.223066 0.726364,-0.394508 0.865064,-0.588077 0.138699,-0.193569 0.136942,-0.39209 0.136942,-0.589629 h -0.131775 v -5.16e-4 z" /><path
     style="fill:url(#linearGradient5085);fill-opacity:1;stroke:#666666;stroke-width:0.264583px;stroke-linecap:butt;stroke-linejoin:miter"
     d="m 21.828131,27.385211 v 2.645833 c 0,0.396875 -0.02217,0.517664 -0.264583,0.529167 h -3.439584 c -0.264583,0 -0.264583,-0.132292 -0.264583,-0.529167 v -2.645833"
     id="path654"
     sodipodi:nodetypes="cccccc" /><path
     style="fill:url(#linearGradient5077);fill-opacity:1;stroke:#666666;stroke-width:0.264583px;stroke-linecap:butt;stroke-linejoin:miter"
     d="m 17.065631,25.533128 v 1.322916 c 0,0.396875 0.264583,0.529167 0.79375,0.529167 h 3.96875 c 0.529167,0 0.79125,-0.157016 0.79375,-0.529167 v -1.322916"
     id="path652"
     sodipodi:nodetypes="cccccc" /><path
     id="path430"
     style="opacity:1;fill:url(#linearGradient13535);fill-opacity:1;fill-rule:evenodd;stroke:#808080;stroke-width:0.264583;stroke-linecap:square;stroke-linejoin:round"
     d="m 19.843756,7.806044 c -3.726193,-4e-7 -6.746875,2.961454 -6.746876,6.614583 0.05776,4.497913 3.175001,4.497923 3.175001,10.451042 0,0.396875 0.348663,0.661458 0.79375,0.661458 h 5.55625 c 0.396874,0 0.79375,-0.132292 0.79375,-0.529166 0,-5.94043 3.175,-6.085421 3.175,-10.583334 -10e-7,-3.653129 -3.020684,-6.6145824 -6.746875,-6.614583 z" /><path
     id="rect15169"
     style="opacity:0.15;fill:#000000;fill-opacity:1;fill-rule:evenodd;stroke:none;stroke-width:0.264583;stroke-linecap:round;stroke-linejoin:round;stroke-opacity:1"
     d="m 19.84375,9.9493918 a 0.5291667,0.39687502 0 0 0 -0.329179,0.0863 c -0.297605,0.03506 -0.594218,0.117991 -0.887801,0.250114 l 0.02635,0.06046 h -0.03411 v 0.523999 l -0.09767,-0.0124 -1.189074,9.392708 0.09715,0.0124 c -0.07214,0.332144 -0.104398,0.563858 -0.09353,0.723987 0.0054,0.08028 0.02175,0.142415 0.05271,0.191203 0.03096,0.04879 0.07762,0.0816 0.132808,0.09767 0.110377,0.03214 0.255975,0.0084 0.447518,-0.03514 0.191543,-0.04355 0.42835,-0.108658 0.714685,-0.170016 l -0.01395,-0.06408 c -0.08714,0.01867 -0.168874,0.03723 -0.247014,0.05581 l 0.130225,-0.788582 -0.03204,-0.0057 0.131258,0.01189 0.7953,-9.129159 -0.09922,-0.0088 0.09043,-0.540535 a 0.5291667,0.39687502 0 0 0 0.14056,0.08837 v 9.84281 h 0.529167 v -9.84281 a 0.5291667,0.39687502 0 0 0 0.141593,-0.0894 l 0.0894,0.541569 -0.09922,0.0088 0.795301,9.129159 0.131258,-0.01189 -0.03204,0.0057 0.130741,0.788582 c -0.07828,-0.01861 -0.160205,-0.0371 -0.24753,-0.05581 l -0.01395,0.06408 c 0.286336,0.06136 0.523142,0.126469 0.714685,0.170016 0.191543,0.04355 0.337141,0.06727 0.447518,0.03514 0.05519,-0.01607 0.101849,-0.04888 0.132809,-0.09767 0.03096,-0.04879 0.04727,-0.110928 0.05271,-0.191203 0.01086,-0.160128 -0.02088,-0.391845 -0.09302,-0.723987 l 0.09663,-0.0124 -1.189075,-9.392708 -0.09767,0.0124 v -0.523999 h -0.03411 l 0.02635,-0.06046 c -0.291835,-0.13076 -0.588588,-0.214034 -0.886767,-0.249597 a 0.5291667,0.39687502 0 0 0 -0.330213,-0.086819 z m -0.487309,0.2428792 a 0.5291667,0.39687502 0 0 0 -0.04186,0.153996 0.5291667,0.39687502 0 0 0 0.06666,0.192753 l -0.100252,0.596346 0.01395,0.0021 -0.111105,-0.0098 -0.7953,9.128642 0.09922,0.0088 -0.132292,0.792199 0.05529,0.0083 c -0.175482,0.04187 -0.328859,0.08178 -0.457853,0.111105 -0.189017,0.04297 -0.328392,0.06004 -0.413929,0.03514 -0.04277,-0.01245 -0.07297,-0.03306 -0.0956,-0.06873 -0.02263,-0.03567 -0.03583,-0.08827 -0.04082,-0.161747 -0.01,-0.146958 0.01941,-0.376114 0.09147,-0.70745 l -0.03359,-0.0072 0.133325,0.01705 1.191142,-9.392708 -0.123507,-0.0155 h 0.02429 v -0.471289 c 0.222657,-0.09966 0.446554,-0.170313 0.67076,-0.211874 z m 0.975135,5.17e-4 c 0.224542,0.04178 0.44835,0.11247 0.670243,0.211357 v 0.471289 h 0.02429 l -0.123507,0.0155 1.191142,9.392708 0.133325,-0.01705 -0.03359,0.0072 c 0.07206,0.331336 0.101435,0.560492 0.09147,0.70745 -0.005,0.07348 -0.01818,0.12608 -0.04082,0.161747 -0.02263,0.03567 -0.05283,0.05628 -0.0956,0.06873 -0.08554,0.0249 -0.224911,0.0073 -0.413928,-0.03566 -0.128995,-0.02933 -0.282372,-0.06872 -0.457853,-0.110588 l 0.05529,-0.0083 -0.132292,-0.792199 0.09922,-0.0088 -0.795301,-9.128642 -0.111104,0.0098 0.01395,-0.0021 -0.100253,-0.596346 a 0.5291667,0.39687502 0 0 0 0.06666,-0.192753 0.5291667,0.39687502 0 0 0 -0.04134,-0.153479 z" /><rect
     style="opacity:1;fill:#999999;fill-opacity:1;fill-rule:evenodd;stroke:none;stroke-width:0.264583;stroke-linecap:round;stroke-linejoin:round;stroke-opacity:1"
     id="rect2056"
     width="0.52916592"
     height="10.054167"
     x="19.579174"
     y="10.319586" /><path
     style="fill:none;stroke:#ffffff;stroke-width:0.264583px;stroke-linecap:butt;stroke-linejoin:miter;stroke-opacity:1"
     d="m 19.314589,10.981044 -0.79375,9.128125"
     id="path2112"
     sodipodi:nodetypes="cc" /><path
     style="fill:none;stroke:#ffffff;stroke-width:0.264583px;stroke-linecap:butt;stroke-linejoin:miter;stroke-opacity:1"
     d="m 18.653131,10.716461 -1.190625,9.392708"
     id="path2114"
     sodipodi:nodetypes="cc" /><path
     style="fill:none;stroke:#ffffff;stroke-width:0.264583px;stroke-linecap:butt;stroke-linejoin:miter;stroke-opacity:1"
     d="m 20.372922,10.981044 0.793751,9.128125"
     id="path2116"
     sodipodi:nodetypes="cc" /><path
     style="fill:none;stroke:#ffffff;stroke-width:0.264583px;stroke-linecap:butt;stroke-linejoin:miter;stroke-opacity:1"
     d="m 21.03438,10.716461 1.190626,9.392708"
     id="path2118"
     sodipodi:nodetypes="cc" /><path
     id="path2352"
     style="color:#000000;fill:#ffffff;fill-opacity:0.5;fill-rule:evenodd;stroke-width:0.264583;stroke-linecap:round;stroke-linejoin:round"
     d="m 19.182297,20.506044 c -0.293157,0 -0.529166,0.236009 -0.529166,0.529167 v 4.365625 h 2.38125 v -4.365625 c 0,-0.293158 -0.236009,-0.529167 -0.529167,-0.529167 z" /><path
     style="opacity:0.3;fill:none;stroke:#000000;stroke-width:0.0661458;stroke-linecap:butt;stroke-linejoin:miter;stroke-opacity:1"
     d="m 17.462506,20.109169 c -0.289181,1.329762 0.06426,1.016216 1.213868,0.769871"
     id="path2120"
     sodipodi:nodetypes="cc" /><path
     style="opacity:0.3;fill:none;stroke:#000000;stroke-width:0.0661458;stroke-linecap:butt;stroke-linejoin:miter;stroke-opacity:1"
     d="m 18.520839,20.109169 -0.132292,0.793751"
     id="path2122"
     sodipodi:nodetypes="cc" /><path
     style="opacity:0.3;fill:none;stroke:#000000;stroke-width:0.0661458;stroke-linecap:butt;stroke-linejoin:miter;stroke-opacity:1"
     d="m 22.225006,20.109169 c 0.289181,1.329762 -0.06426,1.016216 -1.213868,0.769871"
     id="path2124"
     sodipodi:nodetypes="cc" /><path
     style="opacity:0.3;fill:none;stroke:#000000;stroke-width:0.0661458;stroke-linecap:butt;stroke-linejoin:miter;stroke-opacity:1"
     d="m 21.166673,20.109169 0.132291,0.793751"
     id="path2126"
     sodipodi:nodetypes="cc" /><path
     style="opacity:0.3;fill:none;stroke:#000000;stroke-width:0.0661458;stroke-linecap:butt;stroke-linejoin:miter;stroke-opacity:1"
     d="m 18.653131,10.716461 v -0.529167"
     id="path2288" /><path
     style="opacity:0.3;fill:none;stroke:#000000;stroke-width:0.0661458;stroke-linecap:butt;stroke-linejoin:miter;stroke-opacity:1"
     d="m 19.314589,10.981044 0.132292,-0.79375"
     id="path2290" /><path
     style="opacity:0.3;fill:none;stroke:#000000;stroke-width:0.0661458;stroke-linecap:butt;stroke-linejoin:miter;stroke-opacity:1"
     d="m 20.372922,10.981044 -0.132291,-0.79375"
     id="path2292" /><path
     style="opacity:0.3;fill:none;stroke:#000000;stroke-width:0.0661458;stroke-linecap:butt;stroke-linejoin:miter;stroke-opacity:1"
     d="m 21.034381,10.716461 v -0.529167"
     id="path2294" /><ellipse
     style="opacity:1;fill:#999999;fill-opacity:1;fill-rule:evenodd;stroke:none;stroke-width:0.264583;stroke-linecap:round;stroke-linejoin:round;stroke-opacity:1"
     id="path2110"
     cx="19.843758"
     cy="10.187294"
     rx="0.5291667"
     ry="0.39687502" /><path
     style="fill:none;stroke:#999999;stroke-width:0.132292;stroke-linecap:butt;stroke-linejoin:miter"
     d="m 18.653131,10.187294 c 0.788998,-0.3550771 1.599047,-0.3504731 2.38125,0"
     id="path2286"
     sodipodi:nodetypes="cc" /><path
     id="path2354"
     style="color:#000000;fill:#cccccc;fill-opacity:1;fill-rule:evenodd;stroke-linecap:round;stroke-linejoin:round"
     d="m 19.181264,20.372719 c -0.364159,0 -0.659908,0.298333 -0.659908,0.662492 v 4.365625 h 0.263549 v -4.365625 c 0,-0.222157 0.174202,-0.396359 0.396359,-0.396359 h 1.324467 c 0.222156,0 0.396358,0.174202 0.396358,0.396359 v 4.365625 h 0.26355 v -4.365625 c 0,-0.364159 -0.295749,-0.662492 -0.659908,-0.662492 z" /><path
     style="opacity:0.3;fill:none;stroke:#666666;stroke-width:0.264583px;stroke-linecap:round;stroke-linejoin:miter"
     d="m 21.828131,28.077796 -3.96875,0.466912"
     id="path4749"
     sodipodi:nodetypes="cc" /><path
     style="opacity:0.3;fill:none;stroke:#666666;stroke-width:0.264583px;stroke-linecap:round;stroke-linejoin:miter"
     d="m 21.828131,28.606962 -3.96875,0.466912"
     id="path4751"
     sodipodi:nodetypes="cc" /><path
     style="opacity:0.3;fill:none;stroke:#666666;stroke-width:0.264583px;stroke-linecap:round;stroke-linejoin:miter"
     d="m 21.828131,29.136129 -3.96875,0.466912"
     id="path4753"
     sodipodi:nodetypes="cc" /><path
     style="opacity:0.3;fill:none;stroke:#666666;stroke-width:0.264583px;stroke-linecap:round;stroke-linejoin:miter"
     d="m 21.828131,29.665296 -3.968555,0.466889"
     id="path4755"
     sodipodi:nodetypes="cc" /><path
     style="fill:none;stroke:#666666;stroke-width:0.264583px;stroke-linecap:round;stroke-linejoin:miter"
     d="m 22.092714,27.914378 -4.497917,0.529166"
     id="path661"
     sodipodi:nodetypes="cc" /><path
     style="fill:none;stroke:#666666;stroke-width:0.264583px;stroke-linecap:round;stroke-linejoin:miter"
     d="m 22.092714,28.443544 -4.497917,0.529166"
     id="path1218"
     sodipodi:nodetypes="cc" /><path
     style="fill:none;stroke:#666666;stroke-width:0.264583px;stroke-linecap:round;stroke-linejoin:miter"
     d="m 22.092714,28.972711 -4.497917,0.529166"
     id="path1220"
     sodipodi:nodetypes="cc" /><path
     style="fill:none;stroke:#666666;stroke-width:0.264583px;stroke-linecap:round;stroke-linejoin:miter"
     d="m 22.092714,29.501878 -4.497917,0.529166"
     id="path1222"
     sodipodi:nodetypes="cc" /><rect
     style="opacity:0.06;fill:#000000;fill-opacity:1;fill-rule:evenodd;stroke:none;stroke-width:0.529167;stroke-linecap:round;stroke-linejoin:round;stroke-opacity:1"
     id="rect5156"
     width="5.8208332"
     height="0.26458353"
     x="16.93334"
     y="25.665421"
     ry="0.11709312" /><rect
     style="opacity:0.06;fill:#000000;fill-opacity:1;fill-rule:evenodd;stroke:none;stroke-width:0.529167;stroke-linecap:round;stroke-linejoin:round;stroke-opacity:1"
     id="rect7810"
     width="4.2333336"
     height="0.26458335"
     x="17.727091"
     y="27.517504"
     ry="0.11709312" /><g
     inkscape:groupmode="layer"
     id="layer1"
     inkscape:label="Bulb" /><g
     inkscape:groupmode="layer"
     id="layer2"
     inkscape:label="fold"
     style="display:inline"><path
       id="path3160"
       style="color:#000000;opacity:0.15;fill:#ffffff;stroke-width:0.264583px"
       d="m 19.844271,7.6737525 v 24.0760505 h 0.824239 l 0.02532,-0.01137 c 0.474993,-0.223065 0.726364,-0.394509 0.865064,-0.588077 0.112092,-0.156436 0.13228,-0.316116 0.135909,-0.47594 0.02572,-0.0073 0.05069,-0.01714 0.07493,-0.02997 0.06156,-0.03258 0.111634,-0.08833 0.13901,-0.150378 0.05475,-0.124104 0.05271,-0.26212 0.05271,-0.463021 v -2.517159 c 0.216144,-0.01121 0.393818,-0.05198 0.533301,-0.142627 0.167158,-0.108636 0.257959,-0.296661 0.259416,-0.513664 v -1.196826 c 0.169286,-0.01203 0.336329,-0.04865 0.478523,-0.127641 0.179375,-0.09965 0.316777,-0.286634 0.316777,-0.529166 0,-2.946637 0.776763,-4.428976 1.567863,-5.76554 0.791099,-1.336564 1.605587,-2.538234 1.605587,-4.818311 -10e-7,-3.726044 -3.082377,-6.7463579 -6.87865,-6.7463585 z"
       sodipodi:nodetypes="ccccsccsscsccssssc" /></g><path
     id="path15073"
     style="color:#000000;opacity:0.5;fill:#ffffff;fill-rule:evenodd;stroke-width:0.259444;stroke-linecap:square;stroke-linejoin:round"
     d="m 19.843756,7.9375002 c -3.650245,-4e-7 -6.614065,3.0218638 -6.614066,6.7479088 a 0.12721542,0.13230472 0 0 0 0,0.0021 c 3.69e-4,0.02993 0.0014,0.05882 0.0021,0.08837 0.09063,-3.645606 3.018789,-6.5737599 6.611999,-6.5737595 3.61098,7e-7 6.5497,2.9573075 6.612517,6.6280195 7.12e-4,-0.04792 0.0016,-0.09579 0.0016,-0.144694 -1e-6,-3.726045 -2.963822,-6.7479081 -6.614067,-6.7479088 z" /></svg>
