<svg xmlns="http://www.w3.org/2000/svg" viewBox="0 0 16 16"><path d="M9.5 5L8 8l-3 .75L7.25 11l-.75 3 3-1.5 3 1.5-.75-3L14 8.75 11 8z" stroke="#000" opacity=".7" stroke-width="2" stroke-linejoin="round"/><path d="M9.5 5L8 8l-3 .75L7.25 11l-.75 3 3-1.5 3 1.5-.75-3L14 8.75 11 8z" fill="#fee581"/><path opacity=".7" d="M0 0v4h4V0z"/><path fill="#aee3f8" d="M1 1v2h2V1z"/><path opacity=".7" d="M10 0v4h4V0z"/><path fill="#aee3f8" d="M11 1v2h2V1z"/><path opacity=".7" d="M0 10v4h4v-4z"/><path fill="#aee3f8" d="M1 11v2h2v-2z"/><path fill="#1463a5" d="M4 1h6v2H4zM1 4h2v6H1z"/></svg>