<svg xmlns="http://www.w3.org/2000/svg" xmlns:xlink="http://www.w3.org/1999/xlink" height="57" width="71"><defs><linearGradient xlink:href="#a" id="b" x1="168" y1="234" x2="168" y2="284" gradientUnits="userSpaceOnUse" gradientTransform="matrix(-1 0 0 1 203 -231)"/><linearGradient id="a"><stop offset="0" stop-color="#fff"/><stop offset=".125" stop-color="#fff" stop-opacity=".098"/><stop offset=".925" stop-color="#fff" stop-opacity=".098"/><stop offset="1" stop-color="#fff" stop-opacity=".498"/></linearGradient></defs><path style="line-height:normal;font-variant-ligatures:normal;font-variant-position:normal;font-variant-caps:normal;font-variant-numeric:normal;font-variant-alternates:normal;font-feature-settings:normal;text-indent:0;text-align:start;text-decoration-line:none;text-decoration-style:solid;text-decoration-color:#000;text-transform:none;text-orientation:mixed;white-space:normal;shape-padding:0;isolation:auto;mix-blend-mode:normal;solid-color:#000;solid-opacity:1" d="M51.932 3c6.834 0 10.873.448 13.246 2.818C67.55 8.188 68 12.222 68 19.05v19.9c0 6.828-.45 10.862-2.822 13.232C62.805 54.552 58.766 55 51.932 55H19.068c-6.834 0-10.873-.448-13.246-2.818C3.45 49.812 3 45.778 3 38.95v-19.9c0-6.828.45-10.862 2.822-13.232C8.195 3.448 12.234 3 19.068 3z" color="#000" font-weight="400" font-family="sans-serif" overflow="visible" opacity=".2"/><path d="M51.932 2.5C65.553 2.5 67.5 4.44 67.5 18.05v19.9c0 13.608-1.947 15.55-15.568 15.55H19.068C5.447 53.5 3.5 51.558 3.5 37.95v-19.9C3.5 4.441 5.447 2.5 19.068 2.5z" fill="#e7e7e7"/><path style="line-height:normal;font-variant-ligatures:normal;font-variant-position:normal;font-variant-caps:normal;font-variant-numeric:normal;font-variant-alternates:normal;font-feature-settings:normal;text-indent:0;text-align:start;text-decoration-line:none;text-decoration-style:solid;text-decoration-color:#000;text-transform:none;text-orientation:mixed;white-space:normal;shape-padding:0;isolation:auto;mix-blend-mode:normal;solid-color:#000;solid-opacity:1" d="M51.932 3.5H19.068c-6.763 0-10.363.558-12.185 2.379C5.06 7.699 4.5 11.294 4.5 18.05v19.9c0 6.756.56 10.351 2.383 12.171 1.822 1.82 5.422 2.38 12.185 2.38h32.864c6.763 0 10.363-.56 12.185-2.38 1.823-1.82 2.383-5.415 2.383-12.171v-19.9c0-6.756-.56-10.351-2.383-12.171-1.822-1.82-5.422-2.38-12.185-2.38z" color="#000" font-weight="400" font-family="sans-serif" overflow="visible" opacity=".5" fill="none" stroke="url(#b)" stroke-linecap="round" stroke-linejoin="round"/><path d="M51.932 2.5C65.553 2.5 67.5 4.44 67.5 18.05v19.9c0 13.608-1.947 15.55-15.568 15.55H19.068C5.447 53.5 3.5 51.558 3.5 37.95v-19.9C3.5 4.441 5.447 2.5 19.068 2.5z" opacity=".4" fill="none" stroke="#000" stroke-linecap="round" stroke-linejoin="round"/><path d="M10 37h11c1.662 0 3 1.338 3 3v7c0 1.662-1.338 3-3 3H10c-1.662 0-3-1.338-3-3v-7c0-1.662 1.338-3 3-3zm0-30h11c1.662 0 3 1.338 3 3v7c0 1.662-1.338 3-3 3H10c-1.662 0-3-1.338-3-3v-7c0-1.662 1.338-3 3-3zm0 15h11c1.662 0 3 1.338 3 3v7c0 1.662-1.338 3-3 3H10c-1.662 0-3-1.338-3-3v-7c0-1.662 1.338-3 3-3zm20 0h11c1.662 0 3 1.338 3 3v7c0 1.662-1.338 3-3 3H30c-1.662 0-3-1.338-3-3v-7c0-1.662 1.338-3 3-3zm0 15h11c1.662 0 3 1.338 3 3v7c0 1.662-1.338 3-3 3H30c-1.662 0-3-1.338-3-3v-7c0-1.662 1.338-3 3-3zm20 0h11c1.662 0 3 1.338 3 3v7c0 1.662-1.338 3-3 3H50c-1.662 0-3-1.338-3-3v-7c0-1.662 1.338-3 3-3zm0-15h11c1.662 0 3 1.338 3 3v7c0 1.662-1.338 3-3 3H50c-1.662 0-3-1.338-3-3v-7c0-1.662 1.338-3 3-3zm0-15h11c1.662 0 3 1.338 3 3v7c0 1.662-1.338 3-3 3H50c-1.662 0-3-1.338-3-3v-7c0-1.662 1.338-3 3-3zM30 7h11c1.662 0 3 1.338 3 3v7c0 1.662-1.338 3-3 3H30c-1.662 0-3-1.338-3-3v-7c0-1.662 1.338-3 3-3z" opacity=".988" fill="gray"/></svg>