<svg xmlns="http://www.w3.org/2000/svg" xmlns:xlink="http://www.w3.org/1999/xlink" height="128" width="128"><defs><linearGradient id="a"><stop offset="0" stop-color="#dc85e9"/><stop offset="1" stop-color="#f2cbf8"/></linearGradient><linearGradient id="b"><stop offset="0" stop-color="#c04fba"/><stop offset="1" stop-color="#91a"/></linearGradient><linearGradient xlink:href="#a" id="h" gradientUnits="userSpaceOnUse" gradientTransform="matrix(.97893 0 0 1.00073 -171.406 -740)" x1="525.438" y1="836.188" x2="516.656" y2="828.5"/><linearGradient xlink:href="#a" id="i" gradientUnits="userSpaceOnUse" gradientTransform="matrix(.97893 0 0 1.00073 755.595 -1698.677)" x1="525.438" y1="836.188" x2="516.656" y2="828.5"/><linearGradient xlink:href="#a" id="j" gradientUnits="userSpaceOnUse" gradientTransform="translate(-125.5 -1702.459)" x1="525.438" y1="836.188" x2="516.656" y2="828.5"/><linearGradient xlink:href="#a" id="k" gradientUnits="userSpaceOnUse" x1="520.585" y1="735.052" x2="516.152" y2="720.863"/><linearGradient gradientTransform="translate(-75 -99.375)" xlink:href="#b" id="g" x1="201.078" y1="270" x2="102.922" y2="46" gradientUnits="userSpaceOnUse"/><linearGradient gradientUnits="userSpaceOnUse" y2="169.669" x2="4.414" y1="386.308" x1="494.345" id="f" xlink:href="#c" gradientTransform="matrix(0 -.45313 -.45311 0 202.963 168.625)"/><linearGradient id="c"><stop offset="0" stop-color="#f2f2f2"/><stop offset="1" stop-color="#fff"/></linearGradient><filter id="e" x="-.014" width="1.027" y="-.011" height="1.021" color-interpolation-filters="sRGB"><feGaussianBlur stdDeviation="1"/></filter><filter id="d" x="-.055" width="1.109" y="-.043" height="1.086" color-interpolation-filters="sRGB"><feGaussianBlur stdDeviation="4"/></filter></defs><g color="#000"><path d="M27.922-53.375C-7.375-53.375-11-49.75-11-14.381v144.012c0 15.473.693 24.872 4.43 30.549.533.81 1.13 1.545 1.795 2.21 5.318 5.328 15.049 6.235 32.697 6.235h98.156c2.055 0 3.988-.015 5.834-.045.659-.01 1.261-.035 1.895-.05 1.149-.03 2.292-.06 3.359-.106 1.27-.055 2.51-.12 3.668-.205.474-.035.935-.075 1.39-.116.221-.02.45-.037.667-.058.727-.071 1.435-.147 2.117-.235.668-.085 1.31-.181 1.935-.285.222-.036.432-.08.649-.119.396-.071.79-.143 1.17-.223.248-.052.487-.108.728-.164a29.755 29.755 0 002.54-.7 22.103 22.103 0 001.506-.547c.195-.078.393-.157.583-.24.275-.122.537-.251.799-.382.174-.087.355-.17.523-.261.41-.222.806-.454 1.182-.702.406-.267.795-.548 1.164-.847.34-.276.66-.57.969-.873.074-.073.146-.15.219-.225.23-.236.45-.481.664-.734.077-.092.155-.182.23-.276a15.125 15.125 0 001.465-2.22c.055-.102.108-.207.162-.31.159-.307.31-.623.455-.948.062-.137.125-.274.184-.414.182-.434.357-.88.517-1.346a26.525 26.525 0 00.567-1.896c.064-.244.123-.5.183-.752.144-.602.276-1.228.397-1.877.032-.172.067-.339.097-.514.141-.811.268-1.655.377-2.541.022-.178.04-.37.06-.55a74.704 74.704 0 00.294-3.147c.057-.769.106-1.563.148-2.381.014-.255.031-.499.043-.758.007-.147.01-.312.016-.46.062-1.464.102-3.02.129-4.642a346.056 346.056 0 00.037-6.846V28.866c-.044-9.733-8.18-17.955-14.762-24.162l-.049-.05-40.523-42.409C98.989-48.317 91.608-53.376 77-53.376zm96.982.09c-2.169 2.776-2.385 7.403.21 9.912l28.495 30.387c3.724 3.695 11.119.568 11.381-4.78-.002-.42.001-.861-.002-1.271 0-.492-.009-.954-.011-1.432-.362-27.254-4.96-32.19-31.346-32.816z" style="marker:none" overflow="visible" opacity=".3" filter="url(#d)" enable-background="accumulate" transform="matrix(.5 0 0 .5 25.5 35.188)"/><path d="M27.922-54.375C-7.375-54.375-11-50.75-11-15.381v145.012c0 15.473.693 24.872 4.43 30.549.533.81 1.13 1.545 1.795 2.21 5.318 5.328 15.049 6.235 32.697 6.235h98.156c2.055 0 3.988-.015 5.834-.045.659-.01 1.261-.035 1.895-.05 1.149-.03 2.292-.06 3.359-.106 1.27-.055 2.51-.12 3.668-.205.474-.035.935-.075 1.39-.116.221-.02.45-.037.667-.058.727-.071 1.435-.147 2.117-.235.668-.085 1.31-.181 1.935-.285.222-.036.432-.08.649-.119.396-.071.79-.143 1.17-.223.248-.052.487-.108.728-.164a29.755 29.755 0 002.54-.7 22.103 22.103 0 001.506-.547c.195-.078.393-.157.583-.24.275-.122.537-.251.799-.382.174-.087.355-.17.523-.261.41-.222.806-.454 1.182-.702.406-.267.795-.548 1.164-.847.34-.276.66-.57.969-.873.074-.073.146-.15.219-.225.23-.236.45-.481.664-.734.077-.092.155-.182.23-.276a15.125 15.125 0 001.465-2.22c.055-.102.108-.207.162-.31.159-.307.31-.623.455-.948.062-.137.125-.274.184-.414.182-.434.357-.88.517-1.346a26.525 26.525 0 00.567-1.896c.064-.244.123-.5.183-.752.144-.602.276-1.228.397-1.877.032-.172.067-.339.097-.514.141-.811.268-1.655.377-2.541.022-.178.04-.37.06-.55a74.704 74.704 0 00.294-3.147c.057-.769.106-1.563.148-2.381.014-.255.031-.499.043-.758.007-.147.01-.312.016-.46.062-1.464.102-3.02.129-4.642a346.056 346.056 0 00.037-6.846V27.866c-.044-9.733-8.18-17.955-14.762-24.162l-.049-.05-40.523-42.409C98.989-49.317 91.608-54.376 77-54.376zm97.969.09c-3.04 2.502-3.72 8.066-.778 10.912l28.496 30.387c3.73 3.7 11.142.56 11.385-4.801 0-.211 0-.419-.002-.627 0-1.198-.013-2.329-.025-3.451-.404-26.89-5.085-31.798-31.336-32.42z" style="marker:none" overflow="visible" opacity=".1" filter="url(#e)" enable-background="accumulate" transform="matrix(.5 0 0 .5 25.5 35.188)"/><path d="M39.46 7.5c-1.088 0-2.113.007-3.084.024-14.74.264-16.334 2.894-16.334 19.473v73.006c0 16.579 1.593 19.209 16.334 19.473.97.017 1.996.024 3.084.024H88.538c1.027 0 1.994-.007 2.917-.022.33-.006.63-.018.947-.026.575-.014 1.146-.03 1.68-.053a45.068 45.068 0 002.53-.16c.11-.01.224-.019.332-.03a27.143 27.143 0 002.026-.26c.112-.017.217-.039.325-.058.198-.036.395-.072.585-.112.124-.026.244-.054.364-.082a16.67 16.67 0 00.853-.22 13.443 13.443 0 001.17-.403l.292-.12c.137-.061.268-.126.399-.191.087-.044.177-.086.262-.131a7.247 7.247 0 001.173-.774c.17-.138.33-.285.484-.437l.11-.112a6.86 6.86 0 00.331-.368c.039-.045.078-.09.116-.137.27-.34.513-.709.732-1.11.028-.051.054-.104.081-.156.08-.153.155-.311.228-.474.03-.068.062-.136.091-.207a10.955 10.955 0 00.542-1.62c.033-.123.062-.25.092-.377.072-.3.138-.614.198-.938l.05-.257c.07-.406.133-.827.188-1.27l.03-.276a37.352 37.352 0 00.147-1.573c.028-.384.053-.782.074-1.19.006-.128.015-.25.021-.38.004-.073.005-.155.008-.23a89.42 89.42 0 00.073-2.958c.01-.887.015-1.803.01-2.785V48.62c-.022-4.866-4.09-8.978-7.38-12.08l-.025-.026L80.332 15.31C74.994 10.029 71.303 7.5 64 7.5zm49.866.045c-2.237.746-2.995 4.288-1.27 5.956l14.248 15.193c1.867 1.853 5.58.277 5.693-2.41.024-15.664-1.777-18.41-15.682-18.74z" style="marker:none" overflow="visible" opacity=".1" fill="none" stroke="#000" stroke-width="2" enable-background="accumulate"/><path d="M27.922-55.375C-7.375-55.375-11-51.75-11-16.381v146.012c0 35.368 3.625 38.994 38.922 38.994h98.156c35.297 0 39.095-3.626 38.922-38.994V26.865c-.044-9.733-8.18-17.955-14.762-24.162l-.049-.05-40.523-42.409C98.99-50.317 91.608-55.376 77-55.376z" style="marker:none" overflow="visible" fill="url(#f)" enable-background="accumulate" transform="matrix(.5 0 0 .5 25.5 35.188)"/><path d="M27.922-55.375c-12.133 0-20.525.429-26.313 2.428-2.103.726-3.863 1.66-5.334 2.857l-.002.002A13.845 13.845 0 00-6.57-46.93c-.256.388-.493.797-.721 1.221-.057.107-.11.22-.166.33-.16.314-.316.635-.463.969-.073.166-.141.34-.21.512-.122.296-.241.598-.352.91a26.826 26.826 0 00-.668 2.174c-.094.353-.182.717-.266 1.087-.048.21-.096.415-.14.63-.082.387-.156.79-.23 1.197-.037.211-.08.416-.116.632a54.303 54.303 0 00-.284 1.938v.002a69.51 69.51 0 00-.228 2.039c-.028.283-.05.582-.076.873-.038.435-.075.872-.108 1.324a122.743 122.743 0 00-.197 3.524c-.05 1.146-.086 2.367-.115 3.609-.014.58-.035 1.124-.045 1.727-.03 1.853-.045 3.787-.045 5.851v146.012c0 2.064.015 3.998.045 5.851.01.603.031 1.146.045 1.727.03 1.242.065 2.463.115 3.61.054 1.22.116 2.406.197 3.523.033.451.07.889.108 1.324.025.29.048.59.076.873.069.7.144 1.382.228 2.039v.002c.086.669.18 1.312.284 1.938.035.216.079.42.117.632.073.406.147.81.228 1.198.045.214.093.42.141.629a29.573 29.573 0 00.934 3.262c.111.311.23.612.351.91.07.17.138.345.211.511.147.334.302.655.463.969.056.109.109.223.166.33.228.423.465.833.72 1.22.534.812 1.13 1.546 1.796 2.212a13.688 13.688 0 001.05.949c1.47 1.196 3.23 2.13 5.334 2.857 5.788 2 14.18 2.428 26.313 2.428h98.156c2.057 0 3.985-.015 5.834-.045h.033c.646-.011 1.24-.036 1.862-.05.457-.012.885-.029 1.336-.042.673-.021 1.379-.036 2.023-.064l.02-.002c1.252-.055 2.474-.117 3.619-.201l.029-.002c.474-.035.935-.075 1.39-.116.012 0 .023 0 .034-.002.21-.018.427-.036.633-.056.727-.071 1.435-.147 2.117-.235.668-.085 1.31-.181 1.935-.285l.006-.002c.22-.036.428-.078.643-.117.396-.071.79-.143 1.17-.223.238-.05.468-.104.7-.158l.028-.006a29.815 29.815 0 001.686-.436l.02-.005a26.886 26.886 0 001.505-.487c.15-.053.292-.112.438-.168.132-.05.267-.098.396-.15l.033-.014c.186-.075.372-.15.551-.228.168-.074.326-.154.487-.233.104-.05.21-.097.312-.148a.49.49 0 01.022-.012c.167-.083.338-.163.5-.25h.002c.41-.221.805-.453 1.181-.701a14.08 14.08 0 002.133-1.72l.004-.005c.071-.07.14-.143.209-.215l.006-.006c.23-.236.451-.48.664-.734.077-.091.156-.181.23-.275a15.125 15.125 0 001.465-2.221c.056-.102.109-.207.162-.31.16-.307.31-.623.456-.948.06-.136.123-.27.181-.41l.002-.004c.182-.434.357-.879.518-1.346.16-.466.306-.955.447-1.455l.002-.006c.04-.143.079-.29.117-.435.036-.136.068-.28.102-.42l.082-.332c0-.003 0-.005.002-.008a37.8 37.8 0 00.394-1.87c.026-.138.053-.276.078-.415l.02-.098v-.002c.14-.81.267-1.654.377-2.539.006-.048.01-.099.015-.148.016-.131.03-.27.045-.403l.006-.062c.08-.693.15-1.407.213-2.147l.002-.02a107.38 107.38 0 00.22-3.299c.009-.155.02-.31.028-.464l.016-.293v-.027c.006-.129.009-.267.014-.397 0-.011 0-.025.002-.037.062-1.463.102-3.02.129-4.64v-.034a346.056 346.056 0 00.037-6.813V26.866a18.745 18.745 0 00-.815-5.312 23.484 23.484 0 00-1.303-3.354c-2.859-6.008-8.119-11.229-12.644-15.496l-.049-.05-40.523-42.409C98.989-50.317 91.608-55.376 77-55.376zm99.732.09c-4.474 1.492-5.99 8.576-2.54 11.912l28.495 30.387c3.734 3.705 11.162.553 11.387-4.82a296.16 296.16 0 00-.039-5.454c-.003-.167-.009-.32-.012-.484-.03-1.557-.072-3.048-.136-4.457a112.875 112.875 0 00-.174-2.98c-1.153-15.946-5.549-21.538-19.662-23.362a77.201 77.201 0 00-4.141-.412c-.71-.053-1.442-.1-2.193-.14l-.028-.003a164.219 164.219 0 00-4.98-.187zM44.566-43.43c11.374.004 22.63.04 33.899.246 7.238-.385 13.866 3.454 18.855 8.409 16.106 15.962 31.408 32.714 47.278 48.91 3.416 3.876 8.263 7.763 8.173 13.4.362 29.857.155 59.72.106 89.578-.265 10.25.396 20.696-.908 30.965-.547 2.358-.533 6.036-3.563 6.65-7.589 1.85-15.51 1.47-23.267 1.698-35.546.178-71.429.298-106.977-.137-4.705-.415-9.88.006-14.119-2.385-2.827-3.819-2.109-9.003-2.445-13.484C1.015 91.774.895 43.114 1.014-5.553 1.297-16.27.52-27.32 2.582-37.99c.308-3.274 3.856-4.008 6.496-4.41 11.788-1.128 23.781-.868 35.488-1.03z" style="marker:none" overflow="visible" fill="url(#g)" enable-background="accumulate" transform="matrix(.5 0 0 .5 25.5 35.188)"/><path d="M20 63.5v36.503c-.087 17.684 1.812 19.497 19.46 19.497h49.078c17.649 0 19.002-1.818 19.461-19.497V63.5z" style="marker:none" overflow="visible" opacity=".1" fill="#fff" enable-background="accumulate"/><path d="M20 99.003v1c-.087 17.684 1.812 19.497 19.46 19.497h49.078c17.649 0 19.002-1.819 19.461-19.497v-1c-.459 17.678-1.812 19.497-19.46 19.497H39.46c-17.648 0-19.547-1.813-19.46-19.497z" style="marker:none" overflow="visible" opacity=".2" enable-background="accumulate"/><path d="M78 119.5l30-30v11.242c-.027 16.998-1.902 18.758-19.088 18.758z" style="marker:none" overflow="visible" opacity=".08" fill="#fff" enable-background="accumulate"/><g stroke-width="1.072" stroke="#8e03a3"><path style="marker:none" d="M332.742 90.105v4.003c0 1.935 5.04 3.503 11.257 3.503 6.218 0 11.258-1.568 11.258-3.503v-4.003z" overflow="visible" fill="url(#h)" transform="matrix(2.25692 0 0 2.24756 -712.378 -123.062)"/><path style="marker:none" d="M1259.742-868.572v4.002c0 1.935 5.04 3.503 11.258 3.503 6.217 0 11.258-1.568 11.258-3.502v-4.003z" overflow="visible" fill="url(#i)" transform="matrix(2.25692 0 0 2.24756 -2804.542 2021.09)"/><g transform="matrix(2.20936 0 0 2.24919 -821.952 2021.939)" stroke-width="1.083"><path style="marker:none" d="M389.5-872.957v4c0 1.933 5.149 3.5 11.5 3.5s11.5-1.567 11.5-3.5v-4z" overflow="visible" fill="url(#j)"/><ellipse style="marker:none" transform="matrix(.51253 0 0 .61538 134.642 -1323.187)" cx="519.688" cy="730.313" rx="22.438" ry="5.688" overflow="visible" fill="url(#k)" stroke-width="1.929"/></g></g><path d="M39.46 7.5c-1.254 0-2.406.013-3.506.036a90.77 90.77 0 00-2.253.071c-.446.021-.88.044-1.299.073l-.114.007c-.02 0-.037.003-.057.004-.558.04-1.084.09-1.593.146-.141.015-.283.03-.42.047a30.367 30.367 0 00-.976.136c-.122.019-.247.037-.366.058-.193.034-.378.071-.563.109-.254.05-.5.105-.74.164-.095.023-.193.045-.286.07a14.334 14.334 0 00-1.213.382l-.144.055a8.56 8.56 0 00-2.023 1.087l-.022.016c-2.421 1.807-3.37 4.898-3.71 10.12-.009.131-.015.272-.023.406-.033.57-.063 1.153-.084 1.774v.046c-.024.72-.04 1.472-.05 2.262C20.254 10.088 23.032 8.5 39.46 8.5h31.265c-.43-.148-.873-.277-1.327-.392l-.236-.06a17.826 17.826 0 00-1.02-.208c-.166-.03-.331-.061-.501-.087a20.92 20.92 0 00-.944-.12c-.127-.013-.26-.022-.39-.033-.246-.022-.497-.04-.752-.054-.13-.007-.261-.015-.394-.02A28.85 28.85 0 0064 7.5z" style="marker:none" overflow="visible" opacity=".3" fill="#fff" enable-background="accumulate"/><path d="M89.326 7.545c-.535.179-.983.52-1.336.955h.548c17.076 0 19.32 1.742 19.448 17.87.002-.018.006-.036.007-.055-.027-8.835-.579-13.589-3.54-16.088a7.157 7.157 0 00-.495-.38c-.672-.47-1.456-.845-2.36-1.149-.07-.024-.138-.05-.21-.072-.16-.05-.328-.096-.495-.143-.13-.035-.257-.072-.391-.105a17.587 17.587 0 00-.991-.216c-.16-.03-.32-.062-.487-.09a26.282 26.282 0 00-.713-.108c-.108-.015-.211-.033-.322-.047l-.004-.001a35.061 35.061 0 00-1.1-.122c-.154-.015-.315-.028-.473-.041a47.62 47.62 0 00-.796-.063l-.52-.032-.563-.03a82.492 82.492 0 00-2.21-.083h-.011z" style="marker:none" overflow="visible" opacity=".4" fill="#fff" enable-background="accumulate"/><path d="M20.005 26.21c-.001.27-.006.51-.006.787v1c-.003-.63.003-1.196.006-1.786z" style="marker:none" overflow="visible" opacity=".3" fill="#fff" enable-background="accumulate"/><path d="M20.002 99.003v1c-.001.221.002.41.002.627 0 .23.003.442.005.666a178.32 178.32 0 01-.007-2.293zm87.997.376c-.028 17.316-1.942 19.121-19.458 19.121H39.463c-16.467 0-19.22-1.59-19.445-16.167.152 12.437 1.744 15.983 11.088 16.883h.004c.381.036.775.07 1.181.097h.003c.407.029.828.054 1.262.075.29.014.624.018.927.029.604.022 1.195.047 1.85.059h.002c.982.017 2.023.024 3.125.024h49.078c1.839 0 3.469-.028 4.98-.083a58.444 58.444 0 003.377-.201c9.748-.939 11.061-4.75 11.102-18.542 0-.231.003-.434.002-.671z" style="marker:none" overflow="visible" opacity=".2" enable-background="accumulate"/></g></svg>