<svg xmlns="http://www.w3.org/2000/svg" xmlns:xlink="http://www.w3.org/1999/xlink" viewBox="0 0 16 16"><defs><linearGradient xlink:href="#a" id="d" x1="1120" y1="-121" x2="1136" y2="-109" gradientUnits="userSpaceOnUse" gradientTransform="translate(-1120 123.999)"/><linearGradient id="a"><stop offset="0" stop-color="#666"/><stop offset="1" stop-color="#7a7a7a"/></linearGradient><linearGradient xlink:href="#b" id="c" gradientUnits="userSpaceOnUse" gradientTransform="translate(-320 -236.001)" x1="320.093" y1="252.063" x2="336" y2="236"/><linearGradient id="b"><stop offset="0" stop-color="#2c001e"/><stop offset=".109" stop-color="#2c001e"/><stop offset=".187" stop-color="#370626"/><stop offset=".298" stop-color="#55163b"/><stop offset=".372" stop-color="#772953"/><stop offset=".447" stop-color="#7c2b51"/><stop offset=".524" stop-color="#8b314b"/><stop offset=".596" stop-color="#8b314b"/><stop offset=".669" stop-color="#a33a41"/><stop offset=".798" stop-color="#c44732"/><stop offset=".913" stop-color="#e65524"/><stop offset="1" stop-color="#e65524"/></linearGradient></defs><path style="line-height:normal;font-variant-ligatures:normal;font-variant-position:normal;font-variant-caps:normal;font-variant-numeric:normal;font-variant-alternates:normal;font-feature-settings:normal;text-indent:0;text-align:start;text-decoration-line:none;text-decoration-style:solid;text-decoration-color:#000;text-transform:none;text-orientation:mixed;white-space:normal;shape-padding:0;isolation:auto;mix-blend-mode:normal;solid-color:#000;solid-opacity:1;marker:none" d="M4 .999c-.804 0-1.455.063-2.019.23-.572.17-1.07.47-1.406.918C-.071 3.01.001 4.014.001 5v7.092c0 .783.06 1.418.228 1.97.17.562.471 1.047.912 1.375.848.631 1.829.563 2.768.563h8.182c.783 0 1.418-.062 1.97-.229.562-.17 1.048-.47 1.377-.912.632-.848.562-1.83.56-2.77v-6.09c0-.771-.048-1.4-.194-1.952-.15-.561-.423-1.062-.858-1.414-.837-.678-1.855-.633-2.947-.633H8.413l-1-1z" color="#000" font-weight="400" font-family="sans-serif" overflow="visible" opacity=".1"/><path style="line-height:normal;font-variant-ligatures:normal;font-variant-position:normal;font-variant-caps:normal;font-variant-numeric:normal;font-variant-alternates:normal;font-feature-settings:normal;text-indent:0;text-align:start;text-decoration-line:none;text-decoration-style:solid;text-decoration-color:#000;text-transform:none;text-orientation:mixed;white-space:normal;shape-padding:0;isolation:auto;mix-blend-mode:normal;solid-color:#000;solid-opacity:1;marker:none" d="M4 .499c-.777 0-1.382.062-1.876.209-.495.146-.89.394-1.149.74-.519.692-.474 1.55-.474 2.55v7.093c0 .756.06 1.344.207 1.826.146.482.393.866.732 1.119.68.505 1.515.463 2.469.463h8.182c.756 0 1.344-.061 1.826-.207s.868-.393 1.12-.733c.507-.679.463-1.516.462-2.47v-6.09c0-.75-.05-1.338-.178-1.824-.129-.486-.355-.884-.69-1.155C13.964 1.48 13.098 1.5 12 1.5H8.206l-1-1z" color="#000" font-weight="400" font-family="sans-serif" overflow="visible" fill="url(#c)"/><path d="M8 2.999l-1 1H3.5c-2.17 0-2.989.095-2.997 2.959.01 1.028.015 2.057.01 3.084.048 1.016-.082 2.073.24 3.055a2.097 2.097 0 002.06 1.375c3.381.05 6.763.025 10.143-.026.807.04 1.69-.267 2.16-.945.297-.433.438-.932.37-1.455-.012-2.364.01-4.73-.013-7.094-.092-1.294-.557-1.953-2.97-1.953z" style="marker:none" color="#000" overflow="visible" fill="url(#d)"/><path d="M4 .499c-.777 0-1.382.062-1.876.209-.495.146-.89.394-1.149.74-.519.692-.474 1.55-.474 2.55v7.093c0 .756.06 1.344.207 1.826.146.482.393.866.732 1.119.68.505 1.515.463 2.469.463h8.182c.756 0 1.344-.061 1.826-.207s.868-.393 1.12-.733c.507-.679.463-1.516.462-2.47v-6.09c0-.75-.05-1.338-.178-1.824-.129-.486-.355-.884-.69-1.155C13.964 1.48 13.098 1.5 12 1.5H8.206l-1-1z" style="line-height:normal;font-variant-ligatures:normal;font-variant-position:normal;font-variant-caps:normal;font-variant-numeric:normal;font-variant-alternates:normal;font-feature-settings:normal;text-indent:0;text-align:start;text-decoration-line:none;text-decoration-style:solid;text-decoration-color:#000;text-transform:none;text-orientation:mixed;white-space:normal;shape-padding:0;isolation:auto;mix-blend-mode:normal;solid-color:#000;solid-opacity:1;marker:none" color="#000" font-weight="400" font-family="sans-serif" overflow="visible" opacity=".4" fill="none" stroke="#000"/><path style="marker:none" d="M8 2.999l-1 1H3.502c-2.182 0-3 .091-3 3v1c0-2.909.818-3 3-3h3.5l1-1h4.5c3 0 3 1 3 3v-1c0-2 0-3-3-3z" color="#000" overflow="visible" opacity=".3" fill="#fff"/><path d="M8 1.999l-1 1H3.502c-2.182 0-3 .091-3 3v1c0-2.909.818-3 3-3h3.5l1-1h4.5c3 0 3 1 3 3v-1c0-2 0-3-3-3z" style="marker:none" color="#000" overflow="visible" opacity=".2" fill="#491706"/><path style="marker:none" d="M4 .999c-3 0-3 1-3 3v1c0-2 0-3 3-3h3l.5.5.5-.5-1-1z" color="#000" overflow="visible" opacity=".4" fill="#fec589"/><path style="marker:none" d="M15 9.999l-4 4h1.093c1.908 0 2.908 0 2.908-2.908z" color="#000" overflow="visible" opacity=".05" fill="#fff"/></svg>