<svg xmlns="http://www.w3.org/2000/svg" xmlns:xlink="http://www.w3.org/1999/xlink" viewBox="0 0 24 24"><defs><linearGradient gradientTransform="translate(-320.5 -189)" xlink:href="#a" id="c" x1="328" y1="188" x2="336" y2="212" gradientUnits="userSpaceOnUse"/><linearGradient id="a"><stop offset="0" stop-color="#f2f2f2"/><stop offset="1" stop-color="#fff"/></linearGradient><linearGradient xlink:href="#b" id="d" gradientUnits="userSpaceOnUse" gradientTransform="translate(-182.999 -1011.862)" x1="195.75" y1="1016.237" x2="195.75" y2="1032.238"/><linearGradient id="b"><stop offset="0" stop-color="#666"/><stop offset="1" stop-color="#333"/></linearGradient><linearGradient xlink:href="#b" id="e" gradientUnits="userSpaceOnUse" gradientTransform="translate(-184.499 -1012.362)" x1="195.75" y1="1016.237" x2="195.75" y2="1032.238"/><linearGradient xlink:href="#b" id="f" gradientUnits="userSpaceOnUse" gradientTransform="matrix(-1 0 0 1 211.501 -1011.862)" x1="195.75" y1="1016.237" x2="195.75" y2="1032.238"/></defs><path style="line-height:normal;font-variant-ligatures:normal;font-variant-position:normal;font-variant-caps:normal;font-variant-numeric:normal;font-variant-alternates:normal;font-feature-settings:normal;text-indent:0;text-align:start;text-decoration-line:none;text-decoration-style:solid;text-decoration-color:#000;text-transform:none;text-orientation:mixed;white-space:normal;shape-padding:0;isolation:auto;mix-blend-mode:normal;solid-color:#000;solid-opacity:1;marker:none" d="M8.865 3c-1.088 0-1.9.031-2.459.125-.549.092-.797.229-.931.363-.135.134-.267.377-.358.924C5.025 4.968 4.995 5.78 5 6.87V17.131c-.005 1.09.025 1.902.117 2.457.091.547.223.79.358.924.134.134.382.27.931.363.559.094 1.37.125 2.46.125h6.269c1.088 0 1.9-.031 2.459-.125.549-.092.797-.229.931-.363.135-.134.267-.377.358-.924.092-.556.122-1.367.117-2.457V6.869c.005-1.09-.025-1.902-.117-2.457-.091-.547-.223-.79-.358-.924-.134-.134-.382-.27-.931-.363-.559-.094-1.37-.125-2.46-.125H12z" color="#000" font-weight="400" font-family="sans-serif" overflow="visible" fill="#4c4c4c" stroke="#4c4c4c" stroke-width="2"/><path style="line-height:normal;font-variant-ligatures:normal;font-variant-position:normal;font-variant-caps:normal;font-variant-numeric:normal;font-variant-alternates:normal;font-feature-settings:normal;text-indent:0;text-align:start;text-decoration-line:none;text-decoration-style:solid;text-decoration-color:#000;text-transform:none;text-orientation:mixed;white-space:normal;shape-padding:0;isolation:auto;mix-blend-mode:normal;solid-color:#000;solid-opacity:1;marker:none" d="M8.866 3c-1.089 0-1.9.031-2.46.125-.548.092-.796.229-.931.363-.134.134-.266.377-.357.924C5.025 4.968 4.995 5.78 5 6.87V17.131c-.005 1.09.025 1.902.118 2.457.09.547.223.79.357.924.135.134.383.271.932.363.558.094 1.37.125 2.459.125h6.27c1.088 0 1.9-.031 2.456-.125.547-.092.788-.227.922-.361.134-.135.27-.377.362-.926.093-.558.105-1.372.125-2.463V8L12 3z" color="#000" font-weight="400" font-family="sans-serif" overflow="visible" fill="url(#c)"/><path d="M15.5 13.5l-3 3" fill="none" stroke="url(#d)" stroke-linecap="square" stroke-linejoin="round"/><path d="M16.5 11v-.5h-6l-1 7-1.25-4H7.5" fill="none" stroke="url(#e)" stroke-linecap="square" stroke-linejoin="round"/><path d="M12.5 13.5l3 3" fill="none" stroke="url(#f)" stroke-linecap="square" stroke-linejoin="round"/></svg>