<svg xmlns="http://www.w3.org/2000/svg" xmlns:xlink="http://www.w3.org/1999/xlink" viewBox="0 0 32 32"><defs><linearGradient xlink:href="#a" id="c" gradientUnits="userSpaceOnUse" gradientTransform="matrix(0 -.07209 -.07209 0 39.13 33.818)" x1="459.034" y1="419.233" x2="35.31" y2="207.365"/><linearGradient id="a"><stop style="stop-color:#2a6dcf;stop-opacity:1" offset="0"/><stop style="stop-color:#3979d7;stop-opacity:1" offset="1"/></linearGradient><linearGradient xlink:href="#b" id="d" x1="336" y1="134" x2="336" y2="162" gradientUnits="userSpaceOnUse"/><linearGradient id="b"><stop style="stop-color:#fff;stop-opacity:1" offset="0"/><stop offset=".125" style="stop-color:#fff;stop-opacity:.09803922"/><stop offset=".925" style="stop-color:#fff;stop-opacity:.09803922"/><stop style="stop-color:#fff;stop-opacity:.49803922" offset="1"/></linearGradient><clipPath clipPathUnits="userSpaceOnUse" id="e"><path style="color:#000;display:inline;overflow:visible;visibility:visible;opacity:1;fill:#46a926;fill-opacity:1;fill-rule:nonzero;stroke:none;stroke-width:2;stroke-miterlimit:4;stroke-dasharray:none;stroke-opacity:1;marker:none;enable-background:accumulate" d="M330.193 134c-5.615 0-6.22.577-6.192 6.204v15.592c-.028 5.627.577 6.204 6.192 6.204h11.615c5.615 0 6.192-.577 6.192-6.204v-15.592c0-5.627-.577-6.204-6.192-6.204z"/></clipPath></defs><path style="color:#000;display:inline;overflow:visible;visibility:visible;fill:url(#c);fill-opacity:1;fill-rule:nonzero;stroke:none;stroke-width:1;marker:none;enable-background:accumulate" d="M21.806 1.5c1.413 0 2.523.034 3.424.186.901.15 1.62.431 2.143.953.522.521.803 1.239.953 2.14.15.902.18 2.01.174 3.426V23.797c.007 1.414-.024 2.523-.174 3.424-.15.901-.43 1.619-.953 2.14-.523.522-1.242.802-2.143.953-.901.152-2.011.186-3.424.186H10.191c-1.412 0-2.518-.034-3.418-.186-.9-.15-1.616-.431-2.137-.953-.52-.521-.8-1.237-.95-2.138-.152-.901-.186-2.01-.186-3.426V8.203c0-1.415.034-2.525.185-3.426.151-.9.43-1.617.951-2.138.521-.522 1.238-.802 2.137-.953.9-.152 2.006-.186 3.418-.186z"/><g style="display:inline;stroke-width:1.5;enable-background:new"><path style="fill:#fff;stroke-width:2;enable-background:new" d="m344.133 72-12.135 1.873v19.26L344.047 95h1.453s-.009-23 0-23zm-1.535 8.303-1.772 7.433-1.453-.113c-.333-1.66-.723-3.31-1.021-4.978-.294 1.62-.674 3.223-1.01 4.834a95.286 95.286 0 0 1-1.45-.088c-.416-2.207-.906-4.398-1.294-6.61.429-.02.86-.037 1.289-.052.258 1.597.551 3.187.777 4.787.354-1.64.715-3.28 1.066-4.92.477-.028.954-.047 1.43-.073a312.35 312.35 0 0 0 1.035 5.067c.284-1.74.597-3.475.9-5.213a59.977 59.977 0 0 0 1.503-.074zM346.999 74.5h9v18H347l-.002-2.934h7v-1h-7v-2h7v-1h-7v-2h7v-1h-7V80.57h7v-1.004h-7v-2h7v-1h-7z" transform="matrix(.66667 0 0 .66667 -213.332 -39.667)"/></g><path d="M10.194 1.5c-1.413 0-2.523.034-3.424.186-.901.15-1.62.431-2.143.953-.522.521-.803 1.239-.953 2.14-.15.902-.18 2.01-.174 3.426V23.797c-.007 1.414.024 2.523.174 3.424.15.901.43 1.619.953 2.14.523.522 1.242.802 2.143.953.901.152 2.011.186 3.424.186h11.615c1.412 0 2.519-.034 3.418-.186.9-.15 1.616-.431 2.137-.953.52-.521.8-1.237.95-2.138.152-.901.186-2.01.186-3.426V8.203c0-1.415-.034-2.525-.185-3.426-.151-.9-.43-1.617-.951-2.138-.521-.522-1.237-.802-2.137-.953-.9-.152-2.006-.186-3.418-.186z" style="color:#000;display:inline;overflow:visible;visibility:visible;opacity:.4;fill:none;fill-opacity:1;fill-rule:nonzero;stroke:#000;stroke-width:1;stroke-opacity:1;marker:none;enable-background:accumulate"/><path transform="translate(-320 -132)" d="M330.193 134c-5.615 0-6.22.577-6.192 6.204v15.592c-.028 5.627.577 6.204 6.192 6.204h11.615c5.615 0 6.192-.577 6.192-6.204v-15.592c0-5.627-.577-6.204-6.192-6.204z" style="color:#000;display:inline;overflow:visible;visibility:visible;opacity:.4;fill:none;fill-opacity:1;fill-rule:nonzero;stroke:url(#d);stroke-width:2;stroke-miterlimit:4;stroke-dasharray:none;stroke-opacity:1;marker:none;enable-background:accumulate" clip-path="url(#e)"/></svg>