<svg width="32" height="32" xmlns:xlink="http://www.w3.org/1999/xlink" xmlns="http://www.w3.org/2000/svg"><defs><linearGradient id="c"><stop style="stop-color:#f2f2f2;stop-opacity:1" offset="0"/><stop style="stop-color:#fff;stop-opacity:1" offset="1"/></linearGradient><linearGradient xlink:href="#a" id="f" gradientUnits="userSpaceOnUse" gradientTransform="matrix(.31818 0 0 .375 -223.817 345.237)" x1="756" y1="-860.638" x2="756" y2="-876.638"/><linearGradient id="a"><stop style="stop-color:#d36118;stop-opacity:1" offset="0"/><stop style="stop-color:#f09e6f;stop-opacity:1" offset="1"/></linearGradient><linearGradient xlink:href="#b" id="g" gradientUnits="userSpaceOnUse" gradientTransform="matrix(.11667 0 0 .15 -77.433 183.845)" x1="812" y1="-1075.638" x2="812" y2="-1115.638"/><linearGradient id="b"><stop style="stop-color:#fff;stop-opacity:.588235" offset="0"/><stop style="stop-color:#fff;stop-opacity:.862745" offset="1"/></linearGradient><linearGradient id="d"><stop offset="0" style="stop-color:#a33e03;stop-opacity:1"/><stop offset="1" style="stop-color:#622502;stop-opacity:1"/></linearGradient><linearGradient gradientTransform="translate(-320 -132)" xlink:href="#c" id="e" x1="340" y1="132" x2="328" y2="164" gradientUnits="userSpaceOnUse"/><linearGradient xlink:href="#d" id="h" x1="15" y1="4" x2="15" y2="35" gradientUnits="userSpaceOnUse"/><linearGradient xlink:href="#d" id="i" gradientUnits="userSpaceOnUse" x1="15" y1="4" x2="15" y2="35" gradientTransform="translate(0 2)"/></defs><path d="M20.306 3c1.413 0 2.523.035 3.424.186.901.151 1.62.432 2.143.953.522.522.803 1.24.953 2.14.15.902.18 2.01.174 3.427v12.59c.007 1.415-.024 2.523-.174 3.424-.15.902-.43 1.62-.953 2.14-.523.522-1.242.803-2.143.954-.901.151-2.011.186-3.424.186h-8.615c-1.412 0-2.519-.035-3.418-.186-.9-.151-1.616-.431-2.137-.953-.52-.522-.8-1.238-.95-2.139-.152-.9-.186-2.01-.186-3.426V9.704c0-1.416.034-2.525.185-3.426.151-.901.43-1.617.951-2.139.521-.522 1.237-.802 2.137-.953.9-.151 2.006-.186 3.418-.186z" style="color:#000;display:inline;overflow:visible;visibility:visible;fill:#993a03;fill-opacity:1;fill-rule:nonzero;stroke:none;stroke-width:1;marker:none;enable-background:accumulate"/><path d="M11.193 5c-1.372 0-2.378.044-3.01.15-.618.104-.762.23-.79.258-.028.028-.15.166-.253.781-.104.63-.147 1.631-.14 3.004V22.81c-.007 1.371.036 2.373.14 3.002.102.615.225.753.252.78.03.03.173.155.791.259.632.106 1.638.15 3.01.15h9.615c1.372 0 2.374-.044 3.004-.15.616-.104.754-.227.781-.254.029-.028.152-.169.256-.787.106-.632.15-1.638.15-3.012V10l-6-5z" style="color:#000;font-style:normal;font-variant:normal;font-weight:400;font-stretch:normal;font-size:medium;line-height:normal;font-family:sans-serif;font-variant-ligatures:normal;font-variant-position:normal;font-variant-caps:normal;font-variant-numeric:normal;font-variant-alternates:normal;font-feature-settings:normal;text-indent:0;text-align:start;text-decoration:none;text-decoration-line:none;text-decoration-style:solid;text-decoration-color:#000;letter-spacing:normal;word-spacing:normal;text-transform:none;writing-mode:lr-tb;direction:ltr;text-orientation:mixed;dominant-baseline:auto;baseline-shift:baseline;text-anchor:start;white-space:normal;shape-padding:0;clip-rule:nonzero;display:inline;overflow:visible;visibility:visible;isolation:auto;mix-blend-mode:normal;color-interpolation:sRGB;color-interpolation-filters:linearRGB;solid-color:#000;solid-opacity:1;vector-effect:none;fill:url(#e);fill-opacity:1;fill-rule:nonzero;stroke:none;stroke-width:5;stroke-linecap:butt;stroke-linejoin:miter;stroke-miterlimit:4;stroke-dasharray:none;stroke-dashoffset:0;stroke-opacity:1;marker:none;color-rendering:auto;image-rendering:auto;shape-rendering:auto;text-rendering:auto;enable-background:accumulate"/><path style="display:inline;overflow:visible;visibility:visible;fill:#a33e03;fill-opacity:1;fill-rule:nonzero;stroke:none;stroke-width:.999993;marker:none;enable-background:new" d="M11 13h10c1.108 0 2 .892 2 2v7c0 1.108-.892 2-2 2H11c-1.108 0-2-.892-2-2v-7c0-1.108.892-2 2-2z"/><path style="display:inline;overflow:visible;visibility:visible;fill:url(#f);fill-opacity:1;fill-rule:nonzero;stroke:none;stroke-width:.999993;marker:none;enable-background:new" d="M11 14h10c.554 0 1 .446 1 1v7c0 .554-.446 1-1 1H11c-.554 0-1-.446-1-1v-7c0-.554.446-1 1-1z"/><path style="display:inline;overflow:visible;visibility:visible;fill:url(#g);fill-opacity:1;fill-rule:nonzero;stroke:none;stroke-width:.999993;marker:none;enable-background:new" d="M11 14h10c.554 0 1 .446 1 1v7c0 .554-.446 1-1 1H11c-.554 0-1-.446-1-1v-7c0-.554.446-1 1-1z"/><path style="display:inline;overflow:visible;visibility:visible;fill:#d36118;fill-opacity:1;fill-rule:nonzero;stroke:none;stroke-width:.186095;marker:none;enable-background:new" d="M13 18.5a.5.5 0 1 1-1 0 .5.5 0 0 1 1 0zM13 20.5a.5.5 0 1 1-1 0 .5.5 0 0 1 1 0z"/><rect style="opacity:1;fill:#d36118;fill-rule:evenodd;stroke:none;stroke-width:1.00157;stroke-linecap:square;fill-opacity:1" width="8" height="1" x="12" y="16" ry=".5" rx=".5"/><rect style="opacity:1;fill:url(#h);fill-opacity:1;fill-rule:evenodd;stroke:none;stroke-width:1.00157;stroke-linecap:square" width="6" height="1" x="14" y="18" rx=".5" ry=".5"/><rect style="opacity:1;fill:url(#i);fill-opacity:1;fill-rule:evenodd;stroke:none;stroke-width:1.00157;stroke-linecap:square" width="6" height="1" x="14" y="20" rx=".5" ry=".5"/></svg>