<svg viewBox="0 0 16 16" xmlns:xlink="http://www.w3.org/1999/xlink" xmlns="http://www.w3.org/2000/svg"><defs><linearGradient xlink:href="#a" id="g" x1="328" y1="237" x2="328" y2="251" gradientUnits="userSpaceOnUse"/><linearGradient id="a"><stop style="stop-color:#fff;stop-opacity:1" offset="0"/><stop offset=".125" style="stop-color:#fff;stop-opacity:.09803922"/><stop offset=".925" style="stop-color:#fff;stop-opacity:.09803922"/><stop style="stop-color:#fff;stop-opacity:.49803922" offset="1"/></linearGradient><linearGradient id="c"><stop style="stop-color:#18a303;stop-opacity:1" offset="0"/><stop style="stop-color:#106802;stop-opacity:1" offset="1"/></linearGradient><linearGradient gradientTransform="translate(-320 -236)" xlink:href="#b" id="e" x1="332" y1="236" x2="324" y2="252" gradientUnits="userSpaceOnUse"/><linearGradient id="b"><stop style="stop-color:#f2f2f2;stop-opacity:1" offset="0"/><stop style="stop-color:#fff;stop-opacity:1" offset="1"/></linearGradient><linearGradient xlink:href="#c" id="d" gradientUnits="userSpaceOnUse" gradientTransform="matrix(0 -.03604 -.03604 0 19.565 16.91)" x1="25.222" y1="209.883" x2="469.123" y2="404.096"/><linearGradient id="h" x1="0" y1="0" x2="1" y2="0" gradientUnits="userSpaceOnUse" gradientTransform="matrix(0 16.223 -16.223 0 338 228.912)"><stop offset="0" style="stop-color:#18a303;stop-opacity:1"/><stop offset="1" style="stop-color:#106802;stop-opacity:1"/></linearGradient><clipPath clipPathUnits="userSpaceOnUse" id="f"><path d="M325.096 237c-2.807 0-3.11.288-3.096 3.102v7.796c-.013 2.814.289 3.102 3.096 3.102h5.808c2.808 0 3.096-.288 3.096-3.102v-7.796c0-2.814-.288-3.102-3.096-3.102z" style="color:#000;display:inline;overflow:visible;visibility:visible;opacity:1;fill:#46a926;fill-opacity:1;fill-rule:nonzero;stroke:none;stroke-width:2;stroke-miterlimit:4;stroke-dasharray:none;stroke-opacity:1;marker:none;enable-background:accumulate"/></clipPath></defs><path d="M5.096 1c-.72 0-1.302.014-1.836.104s-1.069.276-1.477.683c-.408.407-.596.943-.685 1.479C1.008 3.8.996 4.386 1 5.107v6.791c-.003.719.009 1.303.098 1.836.089.536.277 1.072.685 1.479.408.407.943.594 1.477.683.534.09 1.117.104 1.836.104h5.808c.72 0 1.3-.014 1.834-.104s1.068-.277 1.475-.685c.407-.408.594-.943.684-1.477.09-.533.103-1.115.103-1.836V5.102c0-.72-.014-1.303-.103-1.836-.09-.534-.277-1.07-.684-1.477-.407-.408-.941-.596-1.475-.685-.533-.09-1.115-.104-1.834-.104z" style="color:#000;font-style:normal;font-variant:normal;font-weight:400;font-stretch:normal;font-size:medium;line-height:normal;font-family:sans-serif;font-variant-ligatures:normal;font-variant-position:normal;font-variant-caps:normal;font-variant-numeric:normal;font-variant-alternates:normal;font-feature-settings:normal;text-indent:0;text-align:start;text-decoration:none;text-decoration-line:none;text-decoration-style:solid;text-decoration-color:#000;letter-spacing:normal;word-spacing:normal;text-transform:none;writing-mode:lr-tb;direction:ltr;text-orientation:mixed;dominant-baseline:auto;baseline-shift:baseline;text-anchor:start;white-space:normal;shape-padding:0;clip-rule:nonzero;display:inline;overflow:visible;visibility:visible;opacity:.1;isolation:auto;mix-blend-mode:normal;color-interpolation:sRGB;color-interpolation-filters:linearRGB;solid-color:#000;solid-opacity:1;vector-effect:none;fill:#000;fill-opacity:1;fill-rule:nonzero;stroke:none;stroke-width:2;stroke-linecap:butt;stroke-linejoin:miter;stroke-miterlimit:4;stroke-dasharray:none;stroke-dashoffset:0;stroke-opacity:1;marker:none;color-rendering:auto;image-rendering:auto;shape-rendering:auto;text-rendering:auto;enable-background:accumulate"/><path d="M10.904.5c.71 0 1.274.015 1.752.096.479.08.897.237 1.207.547.31.31.468.726.547 1.205.08.479.094 1.043.09 1.756V11.898c.003.712-.01 1.276-.09 1.754-.08.48-.236.896-.547 1.205-.31.31-.728.467-1.207.547-.478.08-1.041.096-1.752.096H5.096c-.71 0-1.273-.015-1.75-.096-.478-.08-.896-.237-1.205-.547-.31-.31-.465-.726-.545-1.205-.08-.478-.096-1.042-.096-1.754V4.102c0-.712.016-1.276.096-1.754.08-.479.235-.896.545-1.205.309-.31.727-.467 1.205-.547C3.823.516 4.386.5 5.096.5z" style="color:#000;display:inline;overflow:visible;visibility:visible;fill:url(#d);fill-opacity:1;fill-rule:nonzero;stroke:none;stroke-width:1;marker:none;enable-background:accumulate"/><path d="M5.096 2c-.689 0-1.184.02-1.504.074-.304.051-.383.118-.396.131-.013.013-.075.086-.125.389-.053.318-.073.812-.07 1.502v7.808c-.003.69.017 1.185.07 1.502.05.304.112.376.125.389.013.013.092.08.396.13.32.055.815.075 1.504.075h5.809c.689 0 1.183-.02 1.502-.074.304-.051.38-.119.39-.129.012-.011.078-.086.13-.393.053-.32.074-.815.074-1.505V5l-3-3z" style="color:#000;font-style:normal;font-variant:normal;font-weight:400;font-stretch:normal;font-size:medium;line-height:normal;font-family:sans-serif;font-variant-ligatures:normal;font-variant-position:normal;font-variant-caps:normal;font-variant-numeric:normal;font-variant-alternates:normal;font-feature-settings:normal;text-indent:0;text-align:start;text-decoration:none;text-decoration-line:none;text-decoration-style:solid;text-decoration-color:#000;letter-spacing:normal;word-spacing:normal;text-transform:none;writing-mode:lr-tb;direction:ltr;text-orientation:mixed;dominant-baseline:auto;baseline-shift:baseline;text-anchor:start;white-space:normal;shape-padding:0;clip-rule:nonzero;display:inline;overflow:visible;visibility:visible;isolation:auto;mix-blend-mode:normal;color-interpolation:sRGB;color-interpolation-filters:linearRGB;solid-color:#000;solid-opacity:1;vector-effect:none;fill:url(#e);fill-opacity:1;fill-rule:nonzero;stroke:none;stroke-width:3;stroke-linecap:butt;stroke-linejoin:miter;stroke-miterlimit:4;stroke-dasharray:none;stroke-dashoffset:0;stroke-opacity:1;marker:none;color-rendering:auto;image-rendering:auto;shape-rendering:auto;text-rendering:auto;enable-background:accumulate"/><path d="M2 8v3.898C1.988 14.712 2.29 15 5.097 15h5.809C13.713 15 14 14.712 14 11.898V8z" style="color:#000;display:inline;overflow:visible;visibility:visible;opacity:.1;fill:#fff;fill-opacity:1;fill-rule:nonzero;stroke:none;stroke-width:1;marker:none;enable-background:accumulate"/><path style="color:#000;display:inline;overflow:visible;visibility:visible;opacity:.3;fill:none;fill-opacity:1;fill-rule:nonzero;stroke:#000;stroke-width:1;stroke-opacity:1;marker:none;enable-background:accumulate" d="M5.096.5c-.71 0-1.273.015-1.752.096-.478.08-.896.237-1.207.547-.31.31-.467.726-.547 1.205-.08.479-.093 1.043-.09 1.756V11.898c-.002.712.01 1.276.09 1.754.08.48.237.896.547 1.205.31.31.729.467 1.207.547.479.08 1.042.096 1.752.096h5.809c.71 0 1.272-.015 1.75-.096.477-.08.896-.237 1.205-.547.31-.31.465-.726.545-1.205.08-.478.096-1.042.096-1.754V4.102c0-.712-.016-1.276-.096-1.754-.08-.479-.236-.896-.545-1.205-.31-.31-.728-.467-1.205-.547-.478-.08-1.04-.096-1.75-.096z"/><path clip-path="url(#f)" d="M325.096 237c-2.807 0-3.11.288-3.096 3.102v7.796c-.013 2.814.289 3.102 3.096 3.102h5.808c2.808 0 3.096-.288 3.096-3.102v-7.796c0-2.814-.288-3.102-3.096-3.102z" style="color:#000;display:inline;overflow:visible;visibility:visible;opacity:.3;fill:none;fill-opacity:1;fill-rule:nonzero;stroke:url(#g);stroke-width:2;stroke-miterlimit:4;stroke-dasharray:none;stroke-opacity:1;marker:none;enable-background:accumulate" transform="translate(-320 -236)"/><g style="clip-rule:evenodd;display:inline;fill-rule:evenodd;enable-background:new"><path d="M344 235h-5a1 1 0 0 0-1 1v5a1 1 0 0 0 1 1h5a1 1 0 0 0 1-1v-5a1 1 0 0 0-1-1z" style="fill:#ccf4c6;fill-rule:nonzero" transform="translate(-334 -230)"/></g><g style="clip-rule:evenodd;display:inline;fill-rule:evenodd;enable-background:new"><path d="M339 235a1 1 0 0 0-1 1v5a1 1 0 0 0 1 1h6a1 1 0 0 0 1-1v-5a1 1 0 0 0-1-1zm0 1.5a.5.5 0 0 1 .5-.5h1.5v1h-2zm3-.5h2.5a.5.5 0 0 1 .5.5v.5h-3zm-3 2h2v1h-2zm3 0h3v1h-3zm-3 2h2v1h-1.5a.5.5 0 0 1-.5-.5zm3 0h3v.5a.5.5 0 0 1-.5.5H342z" style="fill:url(#h);fill-rule:nonzero" transform="translate(-334 -230)"/></g></svg>