<svg viewBox="0 0 32 32" xmlns:xlink="http://www.w3.org/1999/xlink" xmlns="http://www.w3.org/2000/svg"><defs><linearGradient xlink:href="#a" id="d" gradientUnits="userSpaceOnUse" gradientTransform="matrix(0 -.07209 -.07209 0 39.13 33.818)" x1="459.034" y1="419.233" x2="35.31" y2="207.365"/><linearGradient id="a"><stop style="stop-color:#0369a3;stop-opacity:1" offset="0"/><stop style="stop-color:#047fc6;stop-opacity:1" offset="1"/></linearGradient><linearGradient gradientTransform="translate(-320 -132)" xlink:href="#b" id="e" x1="340" y1="132" x2="328" y2="164" gradientUnits="userSpaceOnUse"/><linearGradient id="b"><stop style="stop-color:#f2f2f2;stop-opacity:1" offset="0"/><stop style="stop-color:#fff;stop-opacity:1" offset="1"/></linearGradient><linearGradient xlink:href="#c" id="g" x1="336" y1="134" x2="336" y2="162" gradientUnits="userSpaceOnUse"/><linearGradient id="c"><stop style="stop-color:#fff;stop-opacity:1" offset="0"/><stop offset=".125" style="stop-color:#fff;stop-opacity:.09803922"/><stop offset=".925" style="stop-color:#fff;stop-opacity:.09803922"/><stop style="stop-color:#fff;stop-opacity:.49803922" offset="1"/></linearGradient><linearGradient id="h" x1="0" y1="0" x2="1" y2="0" gradientUnits="userSpaceOnUse" gradientTransform="rotate(90 163.221 588.107) scale(31.867)"><stop offset="0" style="stop-color:#0369a3;stop-opacity:1"/><stop offset="1" style="stop-color:#047fc6;stop-opacity:1"/></linearGradient><linearGradient id="i" x1="0" y1="0" x2="1" y2="0" gradientUnits="userSpaceOnUse" gradientTransform="matrix(0 28 -28 0 757.286 428.6)"><stop offset="0" style="stop-color:#0369a3;stop-opacity:1"/><stop offset="1" style="stop-color:#047fc6;stop-opacity:1"/></linearGradient><linearGradient id="j" x1="0" y1="0" x2="1" y2="0" gradientUnits="userSpaceOnUse" gradientTransform="rotate(90 163 601) scale(2.5)"><stop offset="0" style="stop-color:#aadcf7;stop-opacity:1"/><stop offset="1" style="stop-color:#aadcf7;stop-opacity:1"/></linearGradient><clipPath clipPathUnits="userSpaceOnUse" id="f"><path style="color:#000;display:inline;overflow:visible;visibility:visible;opacity:1;fill:#46a926;fill-opacity:1;fill-rule:nonzero;stroke:none;stroke-width:2;stroke-miterlimit:4;stroke-dasharray:none;stroke-opacity:1;marker:none;enable-background:accumulate" d="M330.193 134c-5.615 0-6.22.577-6.192 6.204v15.592c-.028 5.627.577 6.204 6.192 6.204h11.615c5.615 0 6.192-.577 6.192-6.204v-15.592c0-5.627-.577-6.204-6.192-6.204z"/></clipPath></defs><path style="fill:gray;fill-opacity:1;fill-rule:evenodd;stroke-width:3;stroke-linecap:square" d="M1 8h3v1H1zM1 10h3v1H1zM1 12h3v1H1zM1 14h3v1H1zM1 16h3v1H1zM1 18h3v1H1zM1 20h3v1H1zM1 22h3v1H1zM1 24h3v1H1z"/><path d="M21.806 1.5c1.413 0 2.523.034 3.424.186.901.15 1.62.431 2.143.953.522.521.803 1.239.953 2.14.15.902.18 2.01.174 3.426V23.797c.007 1.414-.024 2.523-.174 3.424-.15.901-.43 1.619-.953 2.14-.523.522-1.242.802-2.143.953-.901.152-2.011.186-3.424.186H10.191c-1.412 0-2.518-.034-3.418-.186-.9-.15-1.616-.431-2.137-.953-.52-.521-.8-1.237-.95-2.138-.152-.901-.186-2.01-.186-3.426V8.203c0-1.415.034-2.525.185-3.426.151-.9.43-1.617.951-2.138.521-.522 1.238-.802 2.137-.953.9-.152 2.006-.186 3.418-.186z" style="color:#000;display:inline;overflow:visible;visibility:visible;fill:url(#d);fill-opacity:1;fill-rule:nonzero;stroke:none;stroke-width:1;marker:none;enable-background:accumulate"/><path style="color:#000;font-style:normal;font-variant:normal;font-weight:400;font-stretch:normal;font-size:medium;line-height:normal;font-family:sans-serif;font-variant-ligatures:normal;font-variant-position:normal;font-variant-caps:normal;font-variant-numeric:normal;font-variant-alternates:normal;font-feature-settings:normal;text-indent:0;text-align:start;text-decoration:none;text-decoration-line:none;text-decoration-style:solid;text-decoration-color:#000;letter-spacing:normal;word-spacing:normal;text-transform:none;writing-mode:lr-tb;direction:ltr;text-orientation:mixed;dominant-baseline:auto;baseline-shift:baseline;text-anchor:start;white-space:normal;shape-padding:0;clip-rule:nonzero;display:inline;overflow:visible;visibility:visible;isolation:auto;mix-blend-mode:normal;color-interpolation:sRGB;color-interpolation-filters:linearRGB;solid-color:#000;solid-opacity:1;vector-effect:none;fill:url(#e);fill-opacity:1;fill-rule:nonzero;stroke:none;stroke-width:5;stroke-linecap:butt;stroke-linejoin:miter;stroke-miterlimit:4;stroke-dasharray:none;stroke-dashoffset:0;stroke-opacity:1;marker:none;color-rendering:auto;image-rendering:auto;shape-rendering:auto;text-rendering:auto;enable-background:accumulate" d="M10.193 4c-1.372 0-2.378.045-3.01.15-.074.013-.121.026-.183.04v23.62c.062.014.109.027.184.04.631.106 1.637.15 3.01.15h11.615c1.372 0 2.374-.045 3.003-.15.616-.104.755-.227.782-.254.028-.029.152-.169.256-.787.106-.632.15-1.637.15-3.012V10l-6-6h-9.807z"/><path d="M4 16v7.797C3.973 29.424 4.578 30 10.194 30h11.615C27.424 30 28 29.424 28 23.797V16z" style="color:#000;display:inline;overflow:visible;visibility:visible;opacity:.1;fill:#fff;fill-opacity:1;fill-rule:nonzero;stroke:none;stroke-width:1;marker:none;enable-background:accumulate"/><path d="M16 2v28h5.81c5.614 0 6.19-.576 6.19-6.203V8.203C28 2.576 27.424 2 21.81 2z" style="color:#000;display:inline;overflow:visible;visibility:visible;opacity:.1;fill:#fff;fill-opacity:1;fill-rule:nonzero;stroke:none;stroke-width:1;marker:none;enable-background:accumulate"/><path style="color:#000;display:inline;overflow:visible;visibility:visible;opacity:.3;fill:none;fill-opacity:1;fill-rule:nonzero;stroke:#000;stroke-width:1;stroke-opacity:1;marker:none;enable-background:accumulate" d="M10.194 1.5c-1.413 0-2.523.034-3.424.186-.901.15-1.62.431-2.143.953-.522.521-.803 1.239-.953 2.14-.15.902-.18 2.01-.174 3.426V23.797c-.007 1.414.024 2.523.174 3.424.15.901.43 1.619.953 2.14.523.522 1.242.802 2.143.953.901.152 2.011.186 3.424.186h11.615c1.412 0 2.519-.034 3.418-.186.9-.15 1.616-.431 2.137-.953.52-.521.8-1.237.95-2.138.152-.901.186-2.01.186-3.426V8.203c0-1.415-.034-2.525-.185-3.426-.151-.9-.43-1.617-.951-2.138-.521-.522-1.237-.802-2.137-.953-.9-.152-2.006-.186-3.418-.186z"/><path clip-path="url(#f)" style="color:#000;display:inline;overflow:visible;visibility:visible;opacity:.2;fill:none;fill-opacity:1;fill-rule:nonzero;stroke:url(#g);stroke-width:2;stroke-miterlimit:4;stroke-dasharray:none;stroke-opacity:1;marker:none;enable-background:accumulate" d="M330.193 134c-5.615 0-6.22.577-6.192 6.204v15.592c-.028 5.627.577 6.204 6.192 6.204h11.615c5.615 0 6.192-.577 6.192-6.204v-15.592c0-5.627-.577-6.204-6.192-6.204z" transform="translate(-320 -132)"/><g style="clip-rule:evenodd;display:inline;fill-rule:evenodd;enable-background:new"><path d="M749.5 437a.5.5 0 1 0 0 1h5a.5.5 0 0 0 0-1zm0 2a.5.5 0 1 0 0 1h5a.5.5 0 0 0 0-1zm0 2a.5.5 0 1 0 0 1h5a.5.5 0 0 0 0-1zm0 2a.5.5 0 1 0 0 1h5a.5.5 0 0 0 0-1zm0 2a.5.5 0 1 0 0 1h15a.5.5 0 0 0 0-1zm0 2a.5.5 0 1 0 0 1h15a.5.5 0 0 0 0-1zm0 2a.5.5 0 1 0 0 1h11a.5.5 0 0 0 0-1z" style="fill:url(#h);fill-rule:nonzero" transform="translate(-741 -426)"/></g><g style="clip-rule:evenodd;display:inline;fill-rule:evenodd;enable-background:new"><path d="M757.54 437a1.54 1.54 0 0 0-1.54 1.54v3.92c0 .851.689 1.54 1.54 1.54h5.92a1.54 1.54 0 0 0 1.54-1.54v-3.92a1.54 1.54 0 0 0-1.54-1.54z" style="fill:url(#i);fill-rule:nonzero" transform="translate(-741 -426)"/></g><g style="clip-rule:evenodd;display:inline;fill-rule:evenodd;enable-background:new"><path d="M763.3 438h-5.6a.7.7 0 0 0-.7.7v3.6a.7.7 0 0 0 .7.7h5.6a.7.7 0 0 0 .7-.7v-3.6a.7.7 0 0 0-.7-.7z" style="fill:url(#j);fill-rule:nonzero" transform="translate(-741 -426)"/></g><g style="clip-rule:evenodd;display:inline;fill-rule:evenodd;enable-background:new"><path d="M764.357 442.618v-.018l-1.117-1.383a.98.98 0 0 0-1.513-.014l-.468.558a.14.14 0 0 1-.221-.008l-1.265-1.771a.98.98 0 0 0-1.644.075l-1.486 2.543a.7.7 0 0 0 .7.7h6.314a.7.7 0 0 0 .7-.682z" style="fill:#0474b4" transform="translate(-741 -426)"/></g><path style="fill:#fff;fill-rule:evenodd;stroke-width:3;stroke-linecap:square" d="M5 8h1v1H5zM5 10h1v1H5zM5 12h1v1H5zM5 14h1v1H5zM5 16h1v1H5zM5 18h1v1H5zM5 20h1v1H5zM5 22h1v1H5zM5 24h1v1H5z"/></svg>