<svg xmlns="http://www.w3.org/2000/svg" xmlns:xlink="http://www.w3.org/1999/xlink" viewBox="0 0 16 16"><defs><linearGradient gradientTransform="translate(-320 -236)" xlink:href="#a" id="b" x1="332" y1="236" x2="324" y2="252" gradientUnits="userSpaceOnUse"/><linearGradient id="a"><stop offset="0" stop-color="#f2f2f2"/><stop offset="1" stop-color="#f9f9f9"/></linearGradient></defs><path d="M10.404 1c.71 0 1.274.016 1.752.096.479.08.897.237 1.207.547.31.31.467.726.547 1.205.08.479.093 1.043.09 1.756V11.398c.003.711-.01 1.276-.09 1.754-.08.48-.237.896-.547 1.205-.31.31-.728.467-1.207.547-.478.08-1.041.096-1.752.096H5.596c-.71 0-1.273-.016-1.75-.096-.478-.08-.896-.237-1.205-.547-.31-.31-.465-.727-.545-1.205-.08-.478.008-1.05-.096-1.754V4.602c0-.712.016-1.276.096-1.754s.236-.895.545-1.205c.309-.31.727-.467 1.205-.547.477-.08 1.04-.096 1.75-.096z" style="marker:none" color="#000" overflow="visible" fill="#545454"/><path d="M5.096 2c-.689 0-1.184.02-1.504.074-.304.051-.384.118-.396.131-.014.013-.075.086-.125.389-.053.318-.074.812-.07 1.502v7.808c-.004.69.017 1.185.07 1.502.05.304.111.376.125.389.012.013.091.08.396.13.32.055.815.075 1.504.075h5.809c.688 0 1.183-.02 1.502-.074.304-.051.38-.119.39-.129.011-.011.078-.086.129-.393.054-.32.074-.815.074-1.505V5l-3-3z" style="line-height:normal;font-variant-ligatures:normal;font-variant-position:normal;font-variant-caps:normal;font-variant-numeric:normal;font-variant-alternates:normal;font-feature-settings:normal;text-indent:0;text-align:start;text-decoration-line:none;text-decoration-style:solid;text-decoration-color:#000;text-transform:none;text-orientation:mixed;white-space:normal;shape-padding:0;isolation:auto;mix-blend-mode:normal;solid-color:#000;solid-opacity:1;marker:none" color="#000" font-weight="400" font-family="sans-serif" overflow="visible" fill="url(#b)"/><path style="marker:none" overflow="visible" fill="#63bbee" d="M4.004 4.987h7v7h-7z"/><path style="marker:none" d="M7.005 5v3h-3v1h3v3h1V9h3V8h-3V5z" overflow="visible" fill="#023f62"/></svg>