<svg xmlns="http://www.w3.org/2000/svg" xmlns:xlink="http://www.w3.org/1999/xlink" viewBox="0 0 16 16"><defs><linearGradient xlink:href="#a" id="e" gradientUnits="userSpaceOnUse" gradientTransform="translate(132.501 -780.362)" x1="195.75" y1="1016.237" x2="195.75" y2="1032.238"/><linearGradient id="a"><stop offset="0" stop-color="#666"/><stop offset="1" stop-color="#333"/></linearGradient><linearGradient xlink:href="#a" id="f" gradientUnits="userSpaceOnUse" gradientTransform="matrix(-1 0 0 1 527.001 -780.362)" x1="195.75" y1="1016.237" x2="195.75" y2="1032.238"/><linearGradient xlink:href="#a" id="d" gradientUnits="userSpaceOnUse" gradientTransform="translate(-187.499 -1016.362)" x1="195.75" y1="1016.237" x2="195.75" y2="1032.238"/><linearGradient gradientTransform="translate(-320 -236)" xlink:href="#b" id="c" x1="332" y1="236" x2="324" y2="252" gradientUnits="userSpaceOnUse"/><linearGradient id="b"><stop offset="0" stop-color="#f2f2f2"/><stop offset="1" stop-color="#fff"/></linearGradient></defs><path d="M10.304 1c.71 0 1.274.016 1.752.096.479.08.897.237 1.207.547.31.31.467.726.547 1.205.08.479.093 1.043.09 1.756V11.398c.003.711-.01 1.276-.09 1.754-.08.48-.237.896-.547 1.205-.31.31-.728.467-1.207.547-.478.08-1.041.096-1.752.096H5.596c-.71 0-1.273-.016-1.75-.096-.478-.08-.896-.237-1.205-.547-.31-.31-.465-.727-.545-1.205C2.016 12.674 2 12.11 2 11.398V4.602c0-.712.016-1.276.096-1.754s.236-.895.545-1.205c.309-.31.727-.467 1.205-.547.477-.08 1.04-.096 1.75-.096z" style="marker:none" color="#000" overflow="visible" fill="#4c4c4c"/><path d="M5.096 2c-.689 0-1.184.02-1.504.074-.304.051-.383.118-.396.131-.013.013-.075.086-.125.389-.053.318-.073.812-.07 1.502v7.808c-.003.69.017 1.185.07 1.502.05.304.112.376.125.389.013.013.092.08.396.13.32.055.815.075 1.504.075h5.809c.689 0 1.183-.02 1.502-.074.304-.051.38-.119.39-.129.012-.011.078-.086.13-.393.053-.32.074-.815.074-1.505V5l-3-3z" style="line-height:normal;font-variant-ligatures:normal;font-variant-position:normal;font-variant-caps:normal;font-variant-numeric:normal;font-variant-alternates:normal;font-feature-settings:normal;text-indent:0;text-align:start;text-decoration-line:none;text-decoration-style:solid;text-decoration-color:#000;text-transform:none;text-orientation:mixed;white-space:normal;shape-padding:0;isolation:auto;mix-blend-mode:normal;solid-color:#000;solid-opacity:1;marker:none" color="#000" font-weight="400" font-family="sans-serif" overflow="visible" fill="url(#c)"/><path d="M11 9l-3 3" fill="none" stroke="url(#d)" stroke-linecap="square" stroke-linejoin="round"/><g fill="none" stroke-linecap="square" stroke-linejoin="round"><path d="M331.5 243v-.5h-5l-1 6-.25-3h-.75" stroke="url(#e)" transform="translate(-320 -236)"/><path d="M328 245l3 3" stroke="url(#f)" transform="translate(-320 -236)"/></g></svg>