<svg height="128" width="128" xmlns:xlink="http://www.w3.org/1999/xlink" xmlns="http://www.w3.org/2000/svg"><defs><linearGradient gradientTransform="matrix(.5 0 0 .5 -12.001 -14.097)" xlink:href="#a" id="e" x1="201.078" y1="270" x2="102.922" y2="46" gradientUnits="userSpaceOnUse"/><linearGradient id="a"><stop style="stop-color:#259dd2;stop-opacity:1" offset="0"/><stop style="stop-color:#065d8d;stop-opacity:1" offset="1"/></linearGradient><linearGradient gradientUnits="userSpaceOnUse" y2="169.669" x2="4.414" y1="386.308" x1="494.345" id="d" xlink:href="#b" gradientTransform="matrix(0 -.22656 -.22656 0 126.98 119.903)"/><linearGradient id="b"><stop style="stop-color:#f2f2f2;stop-opacity:1" offset="0"/><stop style="stop-color:#fff;stop-opacity:1" offset="1"/></linearGradient><linearGradient id="f" x1="0" y1="0" x2="1" y2="0" gradientUnits="userSpaceOnUse" gradientTransform="matrix(0 100 -100 0 64 18)"><stop offset="0" style="stop-color:#0369a3;stop-opacity:1"/><stop offset="1" style="stop-color:#047fc6;stop-opacity:1"/></linearGradient><linearGradient id="g" x1="0" y1="0" x2="1" y2="0" gradientUnits="userSpaceOnUse" gradientTransform="rotate(90 20.501 70.996) scale(10.0005)"><stop offset="0" style="stop-color:#aadcf7;stop-opacity:1"/><stop offset="1" style="stop-color:#aadcf7;stop-opacity:1"/></linearGradient><filter style="color-interpolation-filters:sRGB" id="c" x="-.014" width="1.027" y="-.011" height="1.022"><feGaussianBlur stdDeviation="1"/></filter></defs><path d="M22.512-32.008c-35.296 0-38.921 3.625-38.921 38.994v145.012c0 35.368 3.625 38.994 38.921 38.994h98.157c35.296 0 39.094-3.626 38.922-38.994V50.232c-.044-9.733-8.18-17.956-14.762-24.162l-.049-.05-40.523-42.41C93.58-26.95 86.199-32.007 71.59-32.007zm97.97.09c-3.04 2.502-3.721 8.066-.778 10.912L148.2 9.38c3.728 3.701 11.14.562 11.385-4.798-.032-30.449-3.85-35.848-31.364-36.5z" style="color:#000;display:inline;overflow:visible;visibility:visible;opacity:.1;fill:#000;fill-opacity:1;fill-rule:nonzero;stroke:none;stroke-width:1;marker:none;filter:url(#c);enable-background:accumulate" transform="matrix(.5 0 0 .5 28.203 24.407)"/><path d="M39.46 7.903c-1.088 0-2.114.007-3.084.024-14.741.264-16.334 2.894-16.334 19.473v73.006c0 16.579 1.593 19.208 16.334 19.472.97.017 1.996.025 3.084.025H88.538c1.103 0 2.144-.007 3.128-.025 14.75-.264 16.414-2.894 16.333-19.472V49.023c-.022-4.867-4.09-8.978-7.381-12.081l-.025-.026-20.261-21.204c-5.339-5.28-9.03-7.81-16.333-7.81zm49.866.045c-2.238.746-2.996 4.288-1.27 5.956l14.247 15.193c1.87 1.857 5.597.27 5.696-2.426v-3.595c-.32-12.478-2.883-14.826-15.642-15.128H90.38z" style="color:#000;display:inline;overflow:visible;visibility:visible;opacity:.1;fill:none;fill-opacity:1;fill-rule:nonzero;stroke:#000;stroke-width:2;stroke-miterlimit:4;stroke-dasharray:none;marker:none;enable-background:accumulate"/><path d="M39.46 7.903c-17.649 0-19.461 1.812-19.461 19.497v73.006c0 17.684 1.812 19.497 19.46 19.497h49.079c17.648 0 19.547-1.813 19.46-19.497V49.023c-.021-4.867-4.089-8.978-7.38-12.081l-.025-.026-20.261-21.204c-5.339-5.28-9.03-7.81-16.333-7.81z" style="color:#000;display:inline;overflow:visible;visibility:visible;fill:url(#d);fill-opacity:1;fill-rule:nonzero;stroke:none;stroke-width:.5;marker:none;enable-background:accumulate"/><path d="M39.46 7.903c-17.649 0-19.461 1.812-19.461 19.497v73.006c0 17.684 1.812 19.497 19.46 19.497h49.079c7.72 0 12.427-.348 15.272-2.22.203-.133.398-.273.582-.423 1.108-.898 1.888-2.091 2.433-3.673.998-2.899 1.203-7.103 1.174-13.181V49.023c-.022-4.867-4.09-8.978-7.381-12.081l-.025-.026-20.261-21.204c-5.339-5.28-9.03-7.81-16.333-7.81zm49.866.045c-2.238.746-2.996 4.288-1.27 5.956l14.247 15.193c1.867 1.853 5.581.276 5.694-2.41.024-15.665-1.777-18.41-15.683-18.74H90.38zm-41.544 5.927c5.687.002 11.315.02 16.95.123 3.618-.192 6.932 1.727 9.427 4.204 8.052 7.982 15.704 16.357 23.638 24.456 1.709 1.938 4.132 3.881 4.087 6.7.181 14.928.077 29.86.053 44.789-.132 5.125.198 10.348-.454 15.482-.273 1.179-.266 3.018-1.781 3.325-3.795.925-7.756.735-11.634.85-17.773.088-35.714.148-53.488-.07-2.353-.207-4.94.004-7.06-1.192-1.414-1.91-1.054-4.502-1.223-6.742-.29-24.323-.35-48.653-.292-72.986.142-5.359-.246-10.884.785-16.219.154-1.637 1.927-2.004 3.248-2.205 5.893-.564 11.89-.434 17.744-.515z" style="color:#000;display:inline;overflow:visible;visibility:visible;fill:url(#e);fill-opacity:1;fill-rule:nonzero;stroke:none;stroke-width:.5;marker:none;enable-background:accumulate"/><path d="M19.999 63.903v36.503c-.087 17.684 1.812 19.497 19.46 19.497h49.079c17.648 0 19.002-1.819 19.46-19.497V63.903z" style="color:#000;display:inline;overflow:visible;visibility:visible;opacity:.1;fill:#fff;fill-opacity:1;fill-rule:nonzero;stroke:none;stroke-width:.5;marker:none;enable-background:accumulate"/><path d="M19.999 99.406v1c-.087 17.684 1.812 19.497 19.46 19.497h49.079c17.648 0 19.002-1.82 19.46-19.497v-1c-.458 17.678-1.812 19.497-19.46 19.497H39.46c-17.649 0-19.548-1.813-19.461-19.497z" style="color:#000;display:inline;overflow:visible;visibility:visible;opacity:.2;fill:#000;fill-opacity:1;fill-rule:nonzero;stroke:none;stroke-width:.5;marker:none;enable-background:accumulate"/><path d="m77.999 119.903 30-30v11.242c-.026 16.998-1.901 18.758-19.087 18.758z" style="color:#000;display:inline;overflow:visible;visibility:visible;opacity:.08;fill:#fff;fill-opacity:1;fill-rule:nonzero;stroke:none;stroke-width:4;stroke-linecap:butt;stroke-linejoin:miter;stroke-miterlimit:4;stroke-dasharray:none;stroke-dashoffset:0;stroke-opacity:1;marker:none;enable-background:accumulate"/><path d="M20.002 99.406v1c-.002.22.002.41.002.627 0 .23.003.441.004.666-.005-.744-.01-1.484-.006-2.293zm87.997.376c-.028 17.316-1.942 19.12-19.458 19.12H39.463c-16.468 0-19.221-1.59-19.446-16.166.152 12.437 1.745 15.982 11.088 16.882h.005c.38.037.774.07 1.18.098h.004c.407.029.827.053 1.261.074h.001c.29.014.624.019.926.03.604.022 1.196.047 1.85.058h.003c.982.018 2.022.025 3.125.025h49.078c1.838 0 3.468-.028 4.98-.083a58.484 58.484 0 0 0 3.376-.201c9.748-.94 11.062-4.75 11.103-18.542 0-.232.003-.435.002-.671z" style="color:#000;display:inline;overflow:visible;visibility:visible;opacity:.2;fill:#000;fill-opacity:1;fill-rule:nonzero;stroke:none;stroke-width:.5;marker:none;enable-background:accumulate"/><path d="M39.46 7.903c-1.254 0-2.406.012-3.506.036-.785.016-1.543.038-2.253.071-.447.02-.88.044-1.299.072l-.114.007-.057.005c-.558.04-1.085.09-1.594.146l-.42.046a30.373 30.373 0 0 0-.975.136c-.123.02-.247.038-.366.059-.194.033-.379.071-.564.108-.254.051-.5.106-.74.164-.095.024-.192.046-.285.07a14.334 14.334 0 0 0-1.22.384l-.12.046c-.78.3-1.46.663-2.053 1.103l-.002.002c-2.697 2.007-3.568 5.61-3.807 11.96a116.249 116.249 0 0 0-.066 2.629c.238-14.457 3.022-16.044 19.44-16.044h31.265c-.43-.148-.873-.277-1.327-.392l-.235-.06a17.826 17.826 0 0 0-1.02-.209c-.167-.03-.332-.06-.502-.086a20.92 20.92 0 0 0-.943-.12c-.128-.013-.26-.022-.39-.034-.247-.021-.497-.04-.753-.053a28.85 28.85 0 0 0-1.556-.046z" style="color:#000;display:inline;overflow:visible;visibility:visible;opacity:.3;fill:#fff;fill-opacity:1;fill-rule:nonzero;stroke:none;stroke-width:.5;marker:none;enable-background:accumulate"/><path d="M89.326 7.948c-.536.178-.984.52-1.336.955h.548c17.076 0 19.32 1.742 19.448 17.873 0-.02.006-.038.007-.057-.027-8.896-.584-13.656-3.598-16.143a7.092 7.092 0 0 0-.512-.382 7.65 7.65 0 0 0-.544-.337 8.537 8.537 0 0 0-.365-.197c-.07-.036-.144-.07-.217-.105a9.811 9.811 0 0 0-.51-.225l-.071-.028c-2.3-.908-5.476-1.25-9.854-1.354h-1.941z" style="color:#000;display:inline;overflow:visible;visibility:visible;opacity:.4;fill:#fff;fill-opacity:1;fill-rule:nonzero;stroke:none;stroke-width:.5;marker:none;enable-background:accumulate"/><path d="M20.005 26.673c-.002.245-.006.47-.006.727v1c-.003-.61.003-1.158.006-1.727z" style="color:#000;display:inline;overflow:visible;visibility:visible;opacity:.3;fill:#fff;fill-opacity:1;fill-rule:nonzero;stroke:none;stroke-width:.5;marker:none;enable-background:accumulate"/><path d="M36.5 48a2.5 2.5 0 0 0 0 5h15a2.5 2.5 0 0 0 0-5zm28 0a5.5 5.5 0 0 0-5.5 5.5v14a5.5 5.5 0 0 0 5.5 5.5h24a5.5 5.5 0 0 0 5.5-5.5v-14a5.5 5.5 0 0 0-5.5-5.5zm-28 10a2.5 2.5 0 0 0 0 5h15a2.5 2.5 0 0 0 0-5zm0 10a2.5 2.5 0 0 0 0 5h15a2.5 2.5 0 0 0 0-5zm0 10a2.5 2.5 0 0 0 0 5h55a2.5 2.5 0 0 0 0-5zm0 10a2.5 2.5 0 0 0 0 5h55a2.5 2.5 0 0 0 0-5zm0 10a2.5 2.5 0 0 0 0 5h40a2.5 2.5 0 0 0 0-5z" style="clip-rule:evenodd;display:inline;fill:url(#f);fill-rule:nonzero;stroke-width:1;enable-background:new"/><path style="clip-rule:evenodd;display:inline;fill:url(#g);fill-rule:nonzero;stroke-width:1;enable-background:new" d="M63.997 50.5a2.5 2.5 0 0 0-2.5 2.5v15c0 1.208.858 2.216 1.997 2.45A2.501 2.501 0 0 1 61.5 68l6.084-9.56c1.3-2.042 4.229-2.18 5.715-.27l5.337 6.862a.5.5 0 0 0 .764.03l2.213-2.425a3.5 3.5 0 0 1 5.214.048l4.67 5.313V53a2.5 2.5 0 0 0-2.5-2.5zM91.49 68.138zm-.164.753c-.011.03-.017.063-.03.092.013-.03.019-.062.03-.092zm-.236.47c-.008.013-.014.027-.023.04l.023-.04zm-.282.355c-.017.017-.03.038-.047.055.017-.017.03-.038.047-.055zm-.34.297c-.027.02-.05.044-.078.063.028-.019.051-.043.079-.063zm-.406.242c-.033.015-.062.036-.095.05.033-.014.062-.035.095-.05z"/></svg>