<svg xmlns="http://www.w3.org/2000/svg" height="32" width="32"><path stroke-width="2" d="M22.177 18.66l-.515 2.88Q20.467 28 13.22 28q-7.246 0-6.05-6.46l.57-3.14h3.457l-.57 3.14q-.68 3.7 3.108 3.7 3.789 0 4.47-3.7l.57-3.18-2.06-.34q-9.546-1.52-8.442-7.56.515-2.76 2.703-4.62Q13.146 4 17.745 4q4.598 0 6.106 1.84 1.49 1.86 1.048 4.22l-.184 1h-3.457l.184-1q.275-1.44-.644-2.38-.901-.92-3.568-.92t-3.918.92q-1.232.94-1.582 2.78-.698 3.8 5.665 4.82l2.042.32q.257-.48.699-.88.79-.72 1.747-.72.956 0 1.49.74.533.72.35 1.76-.185 1.04-.994 1.76-.258.24-.552.4z" stroke="#000" opacity=".7" stroke-linejoin="round"/><path d="M22.177 18.66l-.515 2.88Q20.467 28 13.22 28q-7.246 0-6.05-6.46l.57-3.14h3.457l-.57 3.14q-.68 3.7 3.108 3.7 3.789 0 4.47-3.7l.57-3.18-2.06-.34q-9.546-1.52-8.442-7.56.515-2.76 2.703-4.62Q13.146 4 17.745 4q4.598 0 6.106 1.84 1.49 1.86 1.048 4.22l-.184 1h-3.457l.184-1q.275-1.44-.644-2.38-.901-.92-3.568-.92t-3.918.92q-1.232.94-1.582 2.78-.698 3.8 5.665 4.82l2.042.32q.257-.48.699-.88.79-.72 1.747-.72.956 0 1.49.74.533.72.35 1.76-.185 1.04-.994 1.76-.258.24-.552.4z" fill="#fff"/></svg>