<svg xmlns="http://www.w3.org/2000/svg" viewBox="0 0 32 32"><path d="M7.477 1l-1.42 2.201-.696.983c-.24.32-.361.637-.361.957 0 .333.132.426.396.76l.758 1 .944 1.24v10.398c0 4.307 3.15 6.461 9.45 6.461C22.85 25 26 22.846 26 18.54V8.2l-6.176-3.168L26 5V1l-7.12.033-1.417 2.201-.701.983c-.202.266-.301.536-.301.816 0 .374.195.516.586.903l.98.998 1.987 1.98v9.66c0 1.8-.794 2.668-3.465 2.668-2.672 0-3.547-.885-3.547-2.685V8.219L8.422 5H14V1zM6 28v1h20v-1zm0 2v1h20v-1z" opacity=".6" stroke="#000" stroke-width="2" stroke-linejoin="round"/><path d="M7.477 1l-1.42 2.201-.696.983c-.24.32-.361.637-.361.957 0 .333.132.426.396.76l.758 1 .944 1.24v10.398c0 4.307 3.15 6.461 9.45 6.461C22.85 25 26 22.846 26 18.54V8.2l-6.176-3.168L26 5V1l-7.12.033-1.417 2.201-.701.983c-.202.266-.301.536-.301.816 0 .374.195.516.586.903l.98.998 1.987 1.98v9.66c0 1.8-.794 2.668-3.465 2.668-2.672 0-3.547-.885-3.547-2.685V8.219L8.422 5H14V1zM6 28v1h20v-1zm0 2v1h20v-1z" fill="#fff"/></svg>