<svg xmlns="http://www.w3.org/2000/svg" viewBox="0 0 24 24"><path style="font-style:normal;font-variant:normal;font-weight:400;font-stretch:normal;font-size:15px;line-height:125%;font-family:Ubuntu;-inkscape-font-specification:Ubuntu;text-align:center;letter-spacing:0;word-spacing:0;writing-mode:lr-tb;text-anchor:middle;display:inline;opacity:.7;fill:#000;fill-opacity:1;stroke:none;stroke-width:.999802" d="M6.994 3c-1.258.014-2.179-.03-2.931.385a1.88 1.88 0 0 0-.838.998C3.06 4.82 3 5.343 3 6v12c0 .658.06 1.179.225 1.617.164.439.461.789.837.996.753.415 1.674.372 2.932.387H14.107a1.312 1.312 0 0 1 .08-1.029c-2.726-4.383 1.594-8.483 5.797-5.878A1.55 1.55 0 0 1 21 14.11V6c0-.658-.06-1.179-.225-1.617a1.875 1.875 0 0 0-.837-.996c-.753-.415-1.674-.372-2.932-.387H6.998z"/><path style="opacity:1;vector-effect:none;fill:#fff;fill-opacity:1;stroke:none;stroke-width:1;stroke-linecap:round;stroke-linejoin:bevel;stroke-miterlimit:4;stroke-dasharray:none;stroke-dashoffset:0;stroke-opacity:1" d="M11.982 4.027c-1.556.011-5.108-.011-6.658.04-.461.042-1.017.205-1.156.708-.219.636-.11 1.335-.147 1.983-.007 2.297-.023 9.595.022 11.885.04.462.203 1.013.7 1.164.632.225 1.283.122 1.935.154 1.424.007 4.851.011 6.277.012.415 0 .828-.004 1.242-.004.083-.161.182-.316.31-.453-.401-.429-.628-.99-.386-1.577l.461-1.113a1 1 0 0 0 0-.002c.243-.586.8-.822 1.387-.842.018-.585.253-1.136.844-1.38l1.117-.463c.59-.245 1.146-.02 1.572.38.136-.127.218-.32.387-.39.028-.012.059-.017.088-.027.006-3.21.006-7.069-.03-8.813-.049-.402-.169-.863-.574-1.045-.668-.294-1.427-.167-2.127-.205-1.754-.012-3.51-.013-5.264-.012zm7.457 15.338c-.062.026-.113.15-.087.211.017.042.08.07.14.08.05-.036.108-.058.153-.105.01-.035.018-.073.007-.098-.025-.06-.152-.113-.213-.088z"/><path style="fill:#232629" d="M6 10v1h5v-1zM8 13v1h5v-1z"/><path style="fill:#c7162b" d="M6 7v1h4V7zM12 10v1h2v-1zM6 13v1h1v-1z"/><path d="M11 7v1h7V7z" style="fill:#232629;stroke-width:1.18321598"/><path style="fill:#232629;stroke-width:.77459669" d="M15 10v1h3v-1z"/><path d="M14 13v1h4v-1zM6 16v1h4v-1z" style="fill:#c7162b"/><path style="fill:#232629;stroke-width:1.18321598" d="M11 16v1h3.51l.072-.174a1 1 0 0 0 0-.002c.224-.54.718-.774 1.254-.824H11z"/><circle style="fill:#fff;fill-rule:evenodd;stroke:none;stroke-width:2;stroke-linecap:round;stroke-linejoin:round" cx="19.5" cy="19.5" r="1.5"/><g transform="translate(8 8)"><circle style="fill:#fff;fill-opacity:1;fill-rule:evenodd;stroke:none;stroke-width:2;stroke-linecap:round;stroke-linejoin:round;stroke-miterlimit:4;stroke-dasharray:none;stroke-opacity:1" cx="11.5" cy="11.5" r="1.5"/><path d="M9.311 7.792a.244.244 0 0 0-.135.325l.273.657c-.26.195-.472.424-.662.678l-.674-.279a.248.248 0 0 0-.329.136l-.462 1.115a.248.248 0 0 0 .137.329l.673.279a3.312 3.312 0 0 0-.011.948l-.657.272a.244.244 0 0 0-.135.325l.463 1.117c.054.13.194.189.325.135l.657-.272c.195.26.424.471.678.662l-.279.673a.248.248 0 0 0 .136.329l1.115.462a.248.248 0 0 0 .329-.136l.279-.674c.314.045.626.057.948.012l.272.657c.054.13.195.188.325.134l1.117-.462a.244.244 0 0 0 .135-.326l-.272-.657c.26-.195.471-.424.662-.678l.673.28a.248.248 0 0 0 .329-.137l.462-1.115a.248.248 0 0 0-.136-.329l-.674-.279c.045-.314.057-.625.012-.947l.657-.273a.244.244 0 0 0 .134-.325l-.462-1.117a.244.244 0 0 0-.326-.135l-.657.273a3.312 3.312 0 0 0-.678-.662l.28-.674a.248.248 0 0 0-.137-.329l-1.115-.462a.248.248 0 0 0-.329.137l-.279.673a3.312 3.312 0 0 0-.947-.011l-.273-.657a.244.244 0 0 0-.325-.135zm1.756 2.66a1.138 1.138 0 1 1 .87 2.103 1.138 1.138 0 0 1-.87-2.104z" display="block" fill="url(#d)" stroke="url(#e)" stroke-linejoin="round" stroke-width=".6" style="fill:#d3d3d3;fill-opacity:1;stroke:#4d4d4d;stroke-opacity:1"/></g></svg>