<svg xmlns="http://www.w3.org/2000/svg" viewBox="0 0 24 24"><path style="opacity:1;fill:#657B69;fill-opacity:1;fill-rule:nonzero;stroke:none;stroke-width:2.61861;stroke-linecap:round;stroke-linejoin:round;stroke-miterlimit:4;stroke-dasharray:none;stroke-opacity:1" d="M6 3h1v18H6z"/><path style="opacity:1;fill:#657B69;fill-opacity:1;fill-rule:nonzero;stroke:none;stroke-width:2.61861;stroke-linecap:round;stroke-linejoin:round;stroke-miterlimit:4;stroke-dasharray:none;stroke-opacity:1" transform="rotate(90)" d="M17-21h1v18h-1z"/><path style="opacity:.7;fill:#000;fill-rule:evenodd;stroke:#000;stroke-width:2;stroke-linecap:round;stroke-linejoin:round;stroke-miterlimit:4;stroke-dasharray:none" d="M17.951 13A2 2 0 0 0 16 15v2h-1v4h6v-4h-1v-2a2 2 0 0 0-2-2 2 2 0 0 0-.049 0zM18 14a1 1 0 0 1 1 1v2h-2v-2a1 1 0 0 1 1-1z"/><path style="opacity:1;fill:#fee581;fill-opacity:1;fill-rule:evenodd;stroke-width:1.88562;stroke-linecap:round;stroke-linejoin:round" d="M17.951 13A2 2 0 0 0 16 15v2h-1v4h6v-4h-1v-2a2 2 0 0 0-2-2 2 2 0 0 0-.049 0zM18 14a1 1 0 0 1 1 1v2h-2v-2a1 1 0 0 1 1-1z"/></svg>