<svg xmlns="http://www.w3.org/2000/svg" xmlns:xlink="http://www.w3.org/1999/xlink" viewBox="0 0 16 16"><defs><linearGradient xlink:href="#a" id="d" x1="22.245" y1="-345.069" x2="38.245" y2="-345.069" gradientUnits="userSpaceOnUse" gradientTransform="matrix(0 -.83245 .83245 0 309.406 37.931)"/><linearGradient id="a"><stop offset="0" style="stop-color:#4d4d4d;stop-opacity:1"/><stop offset="1" style="stop-color:#151515;stop-opacity:1"/></linearGradient><linearGradient gradientTransform="translate(-.001 .23) scale(.50003)" id="c" gradientUnits="userSpaceOnUse" x1="26.459" x2="26.459" y1="5.219" y2="25.081"><stop offset="0" stop-color="#fff"/><stop offset=".063" stop-color="#fff" stop-opacity=".235"/><stop offset=".951" stop-color="#fff" stop-opacity=".157"/><stop offset="1" stop-color="#fff" stop-opacity=".392"/></linearGradient><linearGradient id="b" gradientTransform="matrix(1.77454 0 0 .50003 -411.14 -14.9)" gradientUnits="userSpaceOnUse" x1="236.195" x2="236.195" y1="35.804" y2="53.804"><stop offset="0" stop-color="#f4f4f4" stop-opacity=".746"/><stop offset=".5" stop-color="#f7f7f7"/><stop offset="1" stop-color="#dcdcdc"/></linearGradient></defs>/&gt;<path d="M1.526 2.51a1 1 0 0 0-1.002.997l-.026 4.99c0 .528.415.963.945.993L14.5 9.471a1 1 0 0 0 1.001-1.001l.023-4.99c0-.529-.416-.96-.945-.993z" style="opacity:.2;fill:none;stroke:#000;stroke-width:.99998742;stroke-linecap:round;stroke-linejoin:round"/><path style="fill:url(#b);stroke-width:.50003147" d="M2.004 3.01a.992.992 0 0 0-1 1l.06 3.948c.01.554.447 1 1 1h12.048a.993.993 0 0 0 1-1l-.061-3.949c-.01-.554-.446-1-1-1z"/><path style="fill:none;stroke:url(#c);stroke-width:.50003147;stroke-linecap:round;stroke-linejoin:round" d="M14.27 3.256 1.776 3.26a.5.5 0 0 0-.5.5l-.022 4.468c0 .269.212.482.476.495h12.515a.5.5 0 0 0 .5-.5l.02-4.468a.497.497 0 0 0-.495-.499z"/><g style="fill:#fbfbfb"><path d="M5 6.002h.997v.997h-.998zM5.996 5h1.001v1.002H5.997zm1.001 1.002H8v.997H6.998z"/><path d="M5 6.996h.997V8h-.998zm1.998 0L8 8H6.998zM5.997 8h1.001v.998H5.997zM8.994 5h1.005v1.002H8.994zm0 1.002 1.005 1.001V7H8.994z"/><path d="M8.994 6.996h1.005V8H8.994zm0 1.005 1.005 1.005V9H8.994zM10.997 5H12v1.002h-1.002zM10 6.002h.998v.997H10zm.998.994H12V8h-1.002zm0 1.005L12 9.006V9h-1.002z"/></g><g style="fill:#7c7c7c"><path d="M5 5h.997v1.002h-.998zm.997-.998h1.001V5H5.997zM6.998 5H8v1.002H6.998zM5 6.002h.998v.997h-.998zm2 0L8 6.999H6.998z"/><path d="M5.997 6.996h1.001V8H5.997zm2.997-2.994h1.005V5H8.994zm0 .998 1.005.998v.004H8.994zm0 1.002 1.005 1.001V7H8.994z"/><path d="M8.994 6.996h1.005V8H8.994zm2.003-2.994H12V5h-1.002zM10 5h.998v1.002H10zm.998 1.002H12v.997h-1.002z"/><path d="M10.997 6.996H12V8h-1.002z"/></g><path d="M8 7v8l2-2h3z" style="display:inline;fill:#fff;fill-opacity:1;fill-rule:evenodd;stroke:#fff;stroke-width:2;stroke-linecap:butt;stroke-linejoin:round;stroke-miterlimit:4;stroke-dasharray:none;stroke-opacity:1"/><path style="display:inline;fill:url(#d);fill-opacity:1;fill-rule:evenodd;stroke:none;stroke-width:1.66490638;stroke-linecap:butt;stroke-linejoin:miter;stroke-miterlimit:4;stroke-dasharray:none;stroke-opacity:1" d="M8 7v8l2-2h3z"/></svg>