<svg xmlns="http://www.w3.org/2000/svg" viewBox="0 0 16 16"><g transform="matrix(0 1 1 0 -6.373 -7.432)"><path style="fill:#1463a5;fill-opacity:1;stroke:#1463a5;stroke-opacity:1" d="M20.932 7.873a10.917 10.917 0 0 0-7.076 2.592c-.038.031-.076.061-.113.093-.117.102-.23.209-.342.315-.08.076-.162.15-.24.228-.078.079-.153.16-.229.24-.106.113-.213.225-.314.342l-.094.114a10.917 10.917 0 0 0-2.592 7.076h1c0-.345.017-.685.051-1.022.512-5.042 4.772-8.978 9.95-8.978z"/><path d="M9.432 6.373c-.554 0-1 .446-1 1v2c0 .554.446 1 1 1h2c.554 0 1-.446 1-1v.043h9V7.373h-9c0-.554-.446-1-1-1z" style="opacity:.8;fill:gray;fill-opacity:1"/><path style="opacity:.7;vector-effect:none;fill:#000;fill-opacity:1;stroke:none;stroke-width:1;stroke-linecap:round;stroke-linejoin:round;stroke-miterlimit:4;stroke-dasharray:none;stroke-dashoffset:0;stroke-opacity:1" d="M19.432 6.373h4v4h-4z"/><path style="opacity:1;vector-effect:none;fill:#aee3f8;fill-opacity:1;stroke:none;stroke-width:1;stroke-linecap:round;stroke-linejoin:round;stroke-miterlimit:4;stroke-dasharray:none;stroke-dashoffset:0;stroke-opacity:1" d="M20.432 7.373h2v2h-2z"/><path style="opacity:.7;vector-effect:none;fill:#000;fill-opacity:1;stroke:none;stroke-width:1;stroke-linecap:round;stroke-linejoin:round;stroke-miterlimit:4;stroke-dasharray:none;stroke-dashoffset:0;stroke-opacity:1" d="M8.432 18.373h4v4h-4z"/><path style="opacity:1;vector-effect:none;fill:#aee3f8;fill-opacity:1;stroke:none;stroke-width:1;stroke-linecap:round;stroke-linejoin:round;stroke-miterlimit:4;stroke-dasharray:none;stroke-dashoffset:0;stroke-opacity:1" d="M9.432 19.373h2v2h-2z"/><rect ry="0" y="7.373" x="9.432" height="2" width="2" style="opacity:1;fill:#fff;fill-opacity:1;fill-rule:nonzero;stroke:none;stroke-width:4;stroke-linecap:round;stroke-linejoin:round;stroke-miterlimit:4;stroke-dasharray:none;stroke-opacity:1"/></g></svg>