<svg xmlns="http://www.w3.org/2000/svg" viewBox="0 0 16 16">/&gt;<path style="fill:#000;stroke:#000;opacity:.7;stroke-width:2;stroke-miterlimit:4;stroke-dasharray:none;stroke-linejoin:round;stroke-linecap:butt" d="M3.5 2a1.5 1.5 0 1 0 0 3 1.48 1.48 0 0 0 1.406-1H11.5a1.5 1.5 0 0 1 0 3h-7a2.5 2.5 0 0 0 0 5h6.594c.204.586.75 1 1.406 1a1.5 1.5 0 1 0 0-3 1.48 1.48 0 0 0-1.406 1H4.5a1.5 1.5 0 1 1 0-3h7a2.5 2.5 0 1 0 0-5H4.906A1.48 1.48 0 0 0 3.5 2zm0 1a.5.5 0 1 1 0 1 .5.5 0 0 1 0-1zm9 8a.5.5 0 1 1 0 1 .5.5 0 0 1 0-1z" fill="#232629"/><path d="M3.5 2a1.5 1.5 0 1 0 0 3 1.48 1.48 0 0 0 1.406-1H11.5a1.5 1.5 0 0 1 0 3h-7a2.5 2.5 0 0 0 0 5h6.594c.204.586.75 1 1.406 1a1.5 1.5 0 1 0 0-3 1.48 1.48 0 0 0-1.406 1H4.5a1.5 1.5 0 1 1 0-3h7a2.5 2.5 0 1 0 0-5H4.906A1.48 1.48 0 0 0 3.5 2zm0 1a.5.5 0 1 1 0 1 .5.5 0 0 1 0-1zm9 8a.5.5 0 1 1 0 1 .5.5 0 0 1 0-1z" fill="#232629" style="fill:#fff"/><circle style="opacity:.7;fill:#000;fill-opacity:1;fill-rule:evenodd;stroke:none;stroke-width:2;stroke-linecap:butt;stroke-linejoin:round;stroke-miterlimit:4;stroke-dasharray:none;stroke-opacity:1" cx="3.5" cy="3.5" r=".5"/><circle style="opacity:.7;fill:#000;fill-opacity:1;fill-rule:evenodd;stroke:none;stroke-width:2;stroke-linecap:butt;stroke-linejoin:round;stroke-miterlimit:4;stroke-dasharray:none;stroke-opacity:1" cx="12.5" cy="11.5" r=".5"/></svg>