<svg xmlns="http://www.w3.org/2000/svg" viewBox="0 0 16 16"><path style="fill:#000;stroke:#000;opacity:.7;stroke-width:2;stroke-miterlimit:4;stroke-dasharray:none;stroke-linejoin:round" d="M9 2v12h1V2z" fill="#657B69"/><path d="M9 2v12h1V2z" style="fill:#fff" fill="#657B69"/><path d="M5 2 2 5l3 3V6h7c.552 0 1 .895 1 2s-.448 2-1 2h-1v2h1c1.657 0 3-1.79 3-4s-1.343-4-3-4H5V2z" style="fill:#000;fill-opacity:1;stroke:#000;stroke-width:2;stroke-linecap:butt;stroke-linejoin:round;stroke-opacity:1;opacity:.7;stroke-miterlimit:4;stroke-dasharray:none"/><path style="fill:#e97cc8;fill-opacity:1;stroke:none;stroke-width:1px;stroke-linecap:butt;stroke-linejoin:miter;stroke-opacity:1" d="M5 2 2 5l3 3V6h7c.552 0 1 .895 1 2s-.448 2-1 2h-1v2h1c1.657 0 3-1.79 3-4s-1.343-4-3-4H5V2z"/></svg>