<svg xmlns="http://www.w3.org/2000/svg" viewBox="0 0 16 16">/&gt;<path style="color:#000;font-style:normal;font-variant:normal;font-weight:400;font-stretch:normal;font-size:medium;line-height:normal;font-family:sans-serif;font-variant-ligatures:normal;font-variant-position:normal;font-variant-caps:normal;font-variant-numeric:normal;font-variant-alternates:normal;font-variant-east-asian:normal;font-feature-settings:normal;font-variation-settings:normal;text-indent:0;text-align:start;text-decoration:none;text-decoration-line:none;text-decoration-style:solid;text-decoration-color:#000;letter-spacing:normal;word-spacing:normal;text-transform:none;writing-mode:lr-tb;direction:ltr;text-orientation:mixed;dominant-baseline:auto;baseline-shift:baseline;text-anchor:start;white-space:normal;shape-padding:0;shape-margin:0;inline-size:0;clip-rule:nonzero;display:inline;overflow:visible;visibility:visible;opacity:.7;isolation:auto;mix-blend-mode:normal;color-interpolation:sRGB;color-interpolation-filters:linearRGB;solid-color:#000;solid-opacity:1;vector-effect:none;fill:#000;fill-opacity:1;fill-rule:evenodd;stroke:none;stroke-width:2;stroke-linecap:butt;stroke-linejoin:round;stroke-miterlimit:4;stroke-dasharray:none;stroke-dashoffset:0;stroke-opacity:1;color-rendering:auto;image-rendering:auto;shape-rendering:auto;text-rendering:auto;enable-background:accumulate;stop-color:#000" d="M8.477 0c-.515 0-1.029.193-1.415.578L4.942 2.7a2.018 2.018 0 0 0 0 2.828l2.25 2.25a4 4 0 0 1 1.103-1.724l-1.94-1.94 2.122-2.12 3.043 3.04A4 4 0 0 1 15 9a4 4 0 0 1-.057.666l.606-.604c.208-.208.355-.455.451-.718v-1.39a1.95 1.95 0 0 0-.451-.72L9.89.578A1.994 1.994 0 0 0 8.477 0z"/><path style="fill:#6d6d6d;fill-opacity:1;stroke:none;stroke-width:1px;stroke-linecap:butt;stroke-linejoin:miter;stroke-opacity:1" d="m7.062 1.992-.707-.707c-1.414-1.414-2.12-.707-2.828 0L2.113 2.7c-.707.707-1.414 1.415 0 2.829L4.94 8.356c.707.707.707.707 0 1.414l.707.707c.707-.707 1.415-1.414 0-2.828L2.82 4.821c-.707-.707-.707-.707 0-1.415l1.414-1.414c.707-.707.707-.707 1.414 0l.707.707.707-.707"/><path style="fill:#fa9381;fill-opacity:1;stroke:none;stroke-width:1px;stroke-linecap:butt;stroke-linejoin:miter;stroke-opacity:1" d="m5.648 10.477-.707-.707c-.707-.707-.707-.707-2.828 1.415l-.707.707C-.01 13.306-.01 13.306.698 14.012l.708.708c.707.707.707.707 2.121-.707l.707-.707c2.121-2.121 2.121-2.121 1.414-2.829z"/><path style="opacity:1;fill:#fff;fill-opacity:1;fill-rule:evenodd;stroke:none;stroke-width:2;stroke-linecap:butt;stroke-linejoin:round;stroke-miterlimit:4;stroke-dasharray:none;stroke-opacity:1" d="M8.477.992a.996.996 0 0 0-.707.293L5.648 3.406a.998.998 0 0 0 0 1.414L7.68 6.852A4 4.185 0 0 1 11 5a4 4.185 0 0 1 3.9 3.264.987.987 0 0 0-.06-1.323L9.184 1.285a.996.996 0 0 0-.707-.293z"/><g transform="translate(3 1)"><path style="color:#000;display:inline;overflow:visible;visibility:visible;fill:none;fill-opacity:0;fill-rule:nonzero;stroke:#6d6d6d;stroke-width:1.6;stroke-linecap:round;stroke-linejoin:miter;stroke-miterlimit:4;stroke-dasharray:none;stroke-dashoffset:0;stroke-opacity:1;marker:none;enable-background:accumulate" d="m11.207 13.555-1.414-2.45"/><circle style="fill:#6d6d6d;fill-opacity:1;fill-rule:evenodd;stroke:none;stroke-width:2;stroke-linecap:round;stroke-linejoin:round;stroke-miterlimit:4;stroke-dasharray:none;stroke-opacity:1" cx="2.928" cy="10.928" r="3" transform="rotate(-30)"/><circle style="fill:#fff;fill-opacity:1;fill-rule:evenodd;stroke:none;stroke-width:2;stroke-linecap:round;stroke-linejoin:round;stroke-miterlimit:4;stroke-dasharray:none;stroke-opacity:1" cx="2.928" cy="10.928" r="2" transform="rotate(-30)"/></g></svg>