<svg xmlns="http://www.w3.org/2000/svg" viewBox="0 0 16 16">/&gt;<path style="opacity:.7;fill:#000;fill-opacity:1;fill-rule:nonzero;stroke:#000;stroke-width:2;stroke-linecap:butt;stroke-linejoin:round;stroke-miterlimit:4;stroke-dasharray:none;stroke-dashoffset:0;stroke-opacity:1" d="M3.61 3.61a5.5 5.5 0 0 0 0 7.78 5.5 5.5 0 0 0 7.409.336l2.845 2.845.707-.707-2.845-2.845a5.5 5.5 0 0 0-.337-7.408 5.5 5.5 0 0 0-7.778 0z"/><path style="opacity:1;fill:#fff;fill-opacity:1;fill-rule:nonzero;stroke:none;stroke-width:1.72858;stroke-linecap:butt;stroke-linejoin:bevel;stroke-miterlimit:4;stroke-dasharray:none;stroke-dashoffset:0;stroke-opacity:1" d="M7.5 2A5.5 5.5 0 0 0 2 7.5 5.5 5.5 0 0 0 7.5 13a5.5 5.5 0 0 0 3.518-1.275l2.845 2.845.707-.707-2.843-2.843A5.5 5.5 0 0 0 13 7.5 5.5 5.5 0 0 0 7.5 2z"/></svg>