<svg viewBox="0 0 16 16" xmlns="http://www.w3.org/2000/svg"><path style="opacity:.7;fill:#000;stroke:#000;stroke-width:2;stroke-linejoin:round;stroke-miterlimit:4;stroke-dasharray:none" d="M3 12V4c0-2 1-2 3-2h4l3 3v7c0 2-1 2-3 2H6c-2 0-3 0-3-2z"/><path d="M3 12V4c0-2 1-2 3-2h4l3 3v7c0 2-1 2-3 2H6c-2 0-3 0-3-2z" style="fill:#fff"/><path d="M10 5V2l3 3z" style="fill:#6d6d6d;fill-opacity:1"/><path style="opacity:1;fill:#6d6d6d;fill-rule:evenodd;stroke:none;stroke-width:1.6;stroke-linecap:square;stroke-linejoin:round;fill-opacity:1" d="M4 4h1v1H4z"/><path style="opacity:1;fill:#6d6d6d;fill-opacity:1;fill-rule:evenodd;stroke:none;stroke-width:1.6;stroke-linecap:square;stroke-linejoin:round" d="M1 4h2v1H1zM4 6h1v1H4zM1 6h2v1H1zM4 8h1v1H4zM1 8h2v1H1zM4 10h1v1H4zM1 10h2v1H1zM4 12h1v1H4zM1 12h2v1H1z"/></svg>