<svg xmlns="http://www.w3.org/2000/svg" viewBox="0 0 24 24"><path style="fill:#1463a5;fill-opacity:1;stroke:#1463a5;stroke-opacity:1" d="M15.983 6.534a13 13 0 0 0-13 13h1a12 12 0 0 1 12-12 12 12 0 0 1 1 .05V6.578a13 13 0 0 0-1-.043z" transform="matrix(0 1 1 0 -1.034 1.517)"/><path d="M2.483 5.034c-.554 0-1 .446-1 1v2c0 .554.446 1 1 1h2c.554 0 1-.446 1-1h12v-2h-12c0-.554-.446-1-1-1z" style="opacity:1;fill:gray;fill-opacity:1;fill-rule:nonzero;stroke:none;stroke-width:2;stroke-linecap:round;stroke-linejoin:round;stroke-miterlimit:4;stroke-dasharray:none;stroke-opacity:1" transform="matrix(0 1 1 0 -1.034 1.517)"/><path style="opacity:.7;vector-effect:none;fill:#000;fill-opacity:1;stroke:none;stroke-width:1;stroke-linecap:round;stroke-linejoin:round;stroke-miterlimit:4;stroke-dasharray:none;stroke-dashoffset:0;stroke-opacity:1" d="M16.483 5.034h4v4h-4z" transform="matrix(0 1 1 0 -1.034 1.517)"/><path style="opacity:1;vector-effect:none;fill:#aee3f8;fill-opacity:1;stroke:none;stroke-width:1;stroke-linecap:round;stroke-linejoin:round;stroke-miterlimit:4;stroke-dasharray:none;stroke-dashoffset:0;stroke-opacity:1" d="M17.483 6.034h2v2h-2z" transform="matrix(0 1 1 0 -1.034 1.517)"/><path style="opacity:1;fill:#fff;fill-opacity:1;fill-rule:nonzero;stroke:none;stroke-width:2;stroke-linecap:round;stroke-linejoin:round;stroke-miterlimit:4;stroke-dasharray:none;stroke-opacity:1" d="M2.483 6.077h2v1.957h-2z" transform="matrix(0 1 1 0 -1.034 1.517)"/><path style="opacity:.7;vector-effect:none;fill:#000;fill-opacity:1;stroke:none;stroke-width:1;stroke-linecap:round;stroke-linejoin:round;stroke-miterlimit:4;stroke-dasharray:none;stroke-dashoffset:0;stroke-opacity:1" d="M1.483 19.034h4v4h-4z" transform="matrix(0 1 1 0 -1.034 1.517)"/><path style="opacity:1;vector-effect:none;fill:#aee3f8;fill-opacity:1;stroke:none;stroke-width:1;stroke-linecap:round;stroke-linejoin:round;stroke-miterlimit:4;stroke-dasharray:none;stroke-dashoffset:0;stroke-opacity:1" d="M2.483 20.034h2v2h-2z" transform="matrix(0 1 1 0 -1.034 1.517)"/></svg>