<svg viewBox="0 0 24 24" xmlns="http://www.w3.org/2000/svg"><path style="fill:#B39169;fill-rule:evenodd;stroke-width:3;stroke-linecap:round;stroke-linejoin:round" transform="scale(1 -1)" d="M8-7h10v1H8zM8-5h8v1H8z"/><path style="fill:#fff;fill-rule:evenodd;stroke-width:3;stroke-linecap:round;stroke-linejoin:round" transform="scale(1 -1)" d="M8-15h10v1H8z"/><path style="fill:#232629;fill-rule:evenodd;stroke-width:3;stroke-linecap:round;stroke-linejoin:round" transform="scale(1 -1)" d="M8-14h10v1H8z"/><path style="fill:#fff;fill-rule:evenodd;stroke-width:3;stroke-linecap:round;stroke-linejoin:round" transform="scale(1 -1)" d="M8-11h14v1H8z"/><path style="fill:#232629;fill-rule:evenodd;stroke-width:3;stroke-linecap:round;stroke-linejoin:round" transform="scale(1 -1)" d="M8-10h14v1H8z"/><path style="fill:#fff;fill-rule:evenodd;stroke-width:3;stroke-linecap:round;stroke-linejoin:round" transform="scale(1 -1)" d="M8-13h8v1H8z"/><path style="fill:#232629;fill-rule:evenodd;stroke-width:3;stroke-linecap:round;stroke-linejoin:round" transform="scale(1 -1)" d="M8-12h8v1H8z"/><path style="fill:#B39169;fill-rule:evenodd;stroke-width:3;stroke-linecap:round;stroke-linejoin:round" transform="scale(1 -1)" d="M8-3h14v1H8zM8-22h10v1H8zM8-20h8v1H8zM8-18h14v1H8z"/><path style="fill:none;stroke:#B39169;stroke-width:1px;stroke-linecap:butt;stroke-linejoin:miter" d="M7 4.5H5C2.946 4.526 2.5 5 2.5 7v10c0 2 .5 2.5 2.5 2.5"/><path style="fill:#B39169;stroke:none;stroke-width:1px;stroke-linecap:butt;stroke-linejoin:miter" d="M4 22v-5l3 2.5z"/></svg>