<svg viewBox="0 0 24 24" xmlns:xlink="http://www.w3.org/1999/xlink" xmlns="http://www.w3.org/2000/svg"><defs><linearGradient id="a"><stop style="stop-color:#151515;stop-opacity:1" offset="0"/><stop style="stop-color:#4d4d4d;stop-opacity:1" offset="1"/></linearGradient><linearGradient xlink:href="#a" id="b" x1="13" y1="3" x2="10" y2="20" gradientUnits="userSpaceOnUse" gradientTransform="translate(2)"/><linearGradient xlink:href="#a" id="c" gradientUnits="userSpaceOnUse" x1="13" y1="3" x2="10" y2="20" gradientTransform="translate(2)"/></defs><path style="color:#000;fill:url(#b);fill-opacity:1;stroke:#fff;stroke-width:2;stroke-linejoin:round;-inkscape-stroke:none" d="M13.273 3 4.922 17h3.26l2.386-4h4.957l.524 4h2.824l-1.83-14zm1.362 3.184.63 4.816h-3.503zM5 19v1h14v-1z"/><path style="color:#000;fill:url(#c);fill-opacity:1;-inkscape-stroke:none" d="M13.273 3 4.922 17h3.26l2.386-4h4.957l.524 4h2.824l-1.83-14zm1.362 3.184.63 4.816h-3.503zM5 19v1h14v-1z"/><circle style="opacity:1;vector-effect:none;fill:#c7162b;fill-opacity:1;stroke:none;stroke-width:3.5;stroke-linecap:butt;stroke-linejoin:round;stroke-miterlimit:4;stroke-dasharray:none;stroke-dashoffset:0;stroke-opacity:1" cy="19.5" cx="18.5" r="3.5"/><path overflow="visible" font-weight="400" style="color:#000;font-weight:400;line-height:normal;font-family:sans-serif;text-indent:0;text-align:start;text-decoration:none;text-decoration-line:none;text-decoration-style:solid;text-decoration-color:#000;text-transform:none;white-space:normal;overflow:visible;isolation:auto;mix-blend-mode:normal;fill:#fff;fill-opacity:1;marker:none" d="m16.379 18.086 1.414 1.414-1.414 1.414.707.707 1.414-1.414 1.414 1.414.707-.707-1.414-1.414 1.414-1.414-.707-.707-1.414 1.414-1.414-1.414z"/></svg>