<svg xmlns="http://www.w3.org/2000/svg" viewBox="0 0 24 24"><path d="M6.994 12c-1.258.015-2.179-.03-2.932.385a1.88 1.88 0 0 0-.837.998C3.06 13.82 3 14.343 3 15v12.001c0 .657.06 1.178.225 1.617.164.438.461.788.837.996.753.415 1.674.372 2.932.387h10.012c1.258-.015 2.179.03 2.932-.385a1.88 1.88 0 0 0 .837-.998c.165-.439.225-.96.225-1.617V15c0-.658-.06-1.179-.225-1.617a1.875 1.875 0 0 0-.837-.996c-.753-.415-1.674-.372-2.932-.387H6.998z" style="font-style:normal;font-variant:normal;font-weight:400;font-stretch:normal;font-size:15px;line-height:125%;font-family:Ubuntu;-inkscape-font-specification:Ubuntu;text-align:center;letter-spacing:0;word-spacing:0;writing-mode:lr-tb;text-anchor:middle;display:inline;opacity:.7;fill:#000;fill-opacity:1;stroke:none;stroke-width:.999802"/><path d="M11.983 13.027c-1.556.011-5.11-.012-6.66.039-.46.043-1.016.206-1.155.71-.219.635-.108 1.334-.146 1.982-.008 2.297-.023 9.596.022 11.886.039.462.202 1.012.699 1.163.632.225 1.284.123 1.936.155 1.424.006 4.85.01 6.276.01 1.704.001 3.408-.004 5.107-.018.512-.012 1.184.02 1.585-.405.421-.54.287-1.268.323-1.904.011-2.444.027-9.91-.022-12.356-.05-.402-.17-.863-.575-1.045-.669-.294-1.427-.168-2.126-.205a716.385 716.385 0 0 0-5.264-.012z" style="opacity:1;vector-effect:none;fill:#fff;fill-opacity:1;stroke:none;stroke-width:1;stroke-linecap:round;stroke-linejoin:bevel;stroke-miterlimit:4;stroke-dasharray:none;stroke-dashoffset:0;stroke-opacity:1"/><path style="font-style:normal;font-variant:normal;font-weight:400;font-stretch:normal;font-size:15px;line-height:125%;font-family:Ubuntu;-inkscape-font-specification:Ubuntu;text-align:center;letter-spacing:0;word-spacing:0;writing-mode:lr-tb;text-anchor:middle;display:inline;opacity:.7;fill:#000;fill-opacity:1;stroke:none;stroke-width:.999802" d="M6.994-6c-1.258.015-2.179-.03-2.932.385a1.88 1.88 0 0 0-.837.998C3.06-4.18 3-3.657 3-3V9.001c0 .657.06 1.178.225 1.617.164.438.461.788.837.996.753.415 1.674.372 2.932.387h10.012c1.258-.015 2.179.03 2.932-.385a1.88 1.88 0 0 0 .837-.998C20.94 10.179 21 9.658 21 9V-3c0-.658-.06-1.179-.225-1.617a1.875 1.875 0 0 0-.837-.996c-.753-.415-1.674-.372-2.932-.387H6.998z"/><path style="opacity:1;vector-effect:none;fill:#fff;fill-opacity:1;stroke:none;stroke-width:1;stroke-linecap:round;stroke-linejoin:bevel;stroke-miterlimit:4;stroke-dasharray:none;stroke-dashoffset:0;stroke-opacity:1" d="M11.983-4.973c-1.556.011-5.11-.012-6.66.039-.46.043-1.016.206-1.155.71-.219.635-.108 1.334-.146 1.982C4.014.055 4 7.354 4.044 9.644c.039.462.202 1.012.699 1.163.632.225 1.284.123 1.936.155 1.424.006 4.85.01 6.276.01 1.704.001 3.408-.004 5.107-.018.512-.012 1.184.02 1.585-.405.421-.54.287-1.268.323-1.904.011-2.444.027-9.91-.022-12.356-.05-.402-.17-.863-.575-1.045-.669-.294-1.427-.168-2.126-.205a716.385 716.385 0 0 0-5.264-.012z"/><path style="fill:#B39169;fill-opacity:1;stroke:none;stroke-linecap:round;stroke-linejoin:round;stroke-opacity:1" d="M11.983 19 15 15.027H9zM11.983 5 15 8.973H9z"/></svg>