<svg xmlns="http://www.w3.org/2000/svg" xmlns:xlink="http://www.w3.org/1999/xlink" viewBox="0 0 24 24"><defs><linearGradient xlink:href="#a" id="d" x1="22.245" y1="-345.069" x2="38.245" y2="-345.069" gradientUnits="userSpaceOnUse" gradientTransform="rotate(-90 31.657 -357.412)"/><linearGradient id="a"><stop offset="0" style="stop-color:#4d4d4d;stop-opacity:1"/><stop offset="1" style="stop-color:#151515;stop-opacity:1"/></linearGradient><filter style="color-interpolation-filters:sRGB" id="c" x="-.324" width="1.647" y="-.191" height="1.382"><feGaussianBlur stdDeviation="1.256"/></filter><filter style="color-interpolation-filters:sRGB" id="b" x="-.162" width="1.324" y="-.095" height="1.191"><feGaussianBlur stdDeviation=".628"/></filter></defs><path style="color:#000;font-style:normal;font-variant:normal;font-weight:400;font-stretch:normal;font-size:medium;line-height:normal;font-family:sans-serif;font-variant-ligatures:normal;font-variant-position:normal;font-variant-caps:normal;font-variant-numeric:normal;font-variant-alternates:normal;font-feature-settings:normal;text-indent:0;text-align:start;text-decoration:none;text-decoration-line:none;text-decoration-style:solid;text-decoration-color:#000;letter-spacing:normal;word-spacing:normal;text-transform:none;writing-mode:lr-tb;direction:ltr;text-orientation:mixed;dominant-baseline:auto;baseline-shift:baseline;text-anchor:start;white-space:normal;shape-padding:0;clip-rule:nonzero;display:inline;overflow:visible;visibility:visible;opacity:.7;isolation:auto;mix-blend-mode:normal;color-interpolation:sRGB;color-interpolation-filters:linearRGB;solid-color:#000;solid-opacity:1;vector-effect:none;fill:#000;fill-opacity:1;fill-rule:evenodd;stroke:none;stroke-width:1;stroke-linecap:butt;stroke-linejoin:miter;stroke-miterlimit:4;stroke-dasharray:none;stroke-dashoffset:0;stroke-opacity:1;filter:url(#b);color-rendering:auto;image-rendering:auto;shape-rendering:auto;text-rendering:auto;enable-background:accumulate" d="M6.5 3.479v16.605l3.49-4.258 1.746 4.213a1.5 1.5 0 0 0 .872.87c.37.13.759.098 1.095-.042.336-.139.634-.392.803-.746.17-.354.183-.806 0-1.232l.004.006-1.824-4.402 4.838.011zm1 2.414 7.606 7.605-3.92-.01 2.4 5.793.002.002c.084.195.065.306.016.408a.547.547 0 0 1-.284.252.548.548 0 0 1-.378.022c-.107-.038-.2-.101-.278-.299l-.002-.002-2.387-5.762L7.5 17.287z"/><path style="color:#000;font-style:normal;font-variant:normal;font-weight:400;font-stretch:normal;font-size:medium;line-height:normal;font-family:sans-serif;font-variant-ligatures:normal;font-variant-position:normal;font-variant-caps:normal;font-variant-numeric:normal;font-variant-alternates:normal;font-feature-settings:normal;text-indent:0;text-align:start;text-decoration:none;text-decoration-line:none;text-decoration-style:solid;text-decoration-color:#000;letter-spacing:normal;word-spacing:normal;text-transform:none;writing-mode:lr-tb;direction:ltr;text-orientation:mixed;dominant-baseline:auto;baseline-shift:baseline;text-anchor:start;white-space:normal;shape-padding:0;clip-rule:nonzero;display:inline;overflow:visible;visibility:visible;opacity:.2;isolation:auto;mix-blend-mode:normal;color-interpolation:sRGB;color-interpolation-filters:linearRGB;solid-color:#000;solid-opacity:1;vector-effect:none;fill:#000;fill-opacity:1;fill-rule:evenodd;stroke:none;stroke-width:2;stroke-linecap:butt;stroke-linejoin:miter;stroke-miterlimit:4;stroke-dasharray:none;stroke-dashoffset:0;stroke-opacity:1;filter:url(#c);color-rendering:auto;image-rendering:auto;shape-rendering:auto;text-rendering:auto;enable-background:accumulate" d="M7 1.272V20.483l3.847-4.692 1.422 3.43c.218.547.67.981 1.172 1.158a2.019 2.019 0 0 0 1.453-.049c.44-.182.833-.512 1.063-.992.23-.48.24-1.107.007-1.648l-1.53-3.696 5.3.012zM9 6.1l5.894 5.894-3.457-.008-.02-.044L9 14.889z"/><g style="display:inline"><path style="display:inline;fill:none;fill-opacity:1;fill-rule:evenodd;stroke:#fff;stroke-width:2;stroke-linecap:butt;stroke-linejoin:miter;stroke-miterlimit:4;stroke-dasharray:none;stroke-opacity:1" d="M27-365.314v14l3.133-3.82 2.066 4.986c.5 1.256 2.383.476 1.848-.766l-2.111-5.096 4.378.01z" transform="translate(-20 369)"/><path d="M27-365.314v14l3.133-3.82 2.066 4.986c.5 1.256 2.383.476 1.848-.766l-2.111-5.096 4.378.01z" style="display:inline;fill:url(#d);fill-opacity:1;fill-rule:evenodd;stroke:none;stroke-width:2;stroke-linecap:butt;stroke-linejoin:miter;stroke-miterlimit:4;stroke-dasharray:none;stroke-opacity:1" transform="translate(-20 369)"/></g></svg>