<svg xmlns="http://www.w3.org/2000/svg" viewBox="0 0 16 16">/&gt;<path style="opacity:.7;fill:#000;stroke:#000;stroke-width:2;stroke-linejoin:round;stroke-miterlimit:4;stroke-dasharray:none" d="M5.002 2c-1.035 0-2.035.032-3 .094V13a54.65 54.65 0 0 1 3-.094c2.474 0 4.71.172 6.594.438.309.047.66.12.955.172.003-.006.977-7.045 1.447-10.528C10.81 2.331 7.671 2.011 5.002 2z"/><path d="M5.002 2c-1.035 0-2.035.032-3 .094V13a54.65 54.65 0 0 1 3-.094c2.474 0 4.71.172 6.594.438.309.047.66.12.955.172.003-.006.977-7.045 1.447-10.528C10.81 2.331 7.671 2.011 5.002 2z" style="fill:#fff"/><path d="M5.426 5.5 4.002 7.207l1.424 1.707v-.853c1.86 0 3.145.268 4.472.666l-.177.773 1.734-1.2-1.002-2.08-.178.8a18.018 18.018 0 0 0-4.85-.666z" style="fill:#232629;fill-opacity:1"/></svg>