<svg xmlns="http://www.w3.org/2000/svg" viewBox="0 0 16 16">/&gt;<rect style="opacity:.7;fill:#000;fill-opacity:1;fill-rule:evenodd;stroke:#000;stroke-width:2;stroke-linecap:butt;stroke-linejoin:round;stroke-miterlimit:4;stroke-dasharray:none;stroke-opacity:1" width="10" height="5" x="2" y="1" ry="1"/><path style="fill:#6d6d6d;fill-opacity:1;stroke:none;stroke-width:1px;stroke-linecap:butt;stroke-linejoin:miter;stroke-opacity:1" d="M12 3h1c2 0 2 1 2 2v2c0 1 0 2-2 2H9c-1 0-1 0-1 1H7c0-1 0-2 2-2h4c1 0 1 0 1-1V5c0-1 0-1-1-1h-1V3"/><path style="fill:#fa9381;fill-opacity:1;stroke:none;stroke-width:1px;stroke-linecap:butt;stroke-linejoin:miter;stroke-opacity:1" d="M7 10h1c1 0 1 0 1 3v1c0 2 0 2-1 2H7c-1 0-1 0-1-2v-1c0-3 0-3 1-3z"/><rect ry="1" y="1" x="2" height="5" width="10" style="opacity:1;fill:#fff;fill-opacity:1;fill-rule:evenodd;stroke:none;stroke-width:2;stroke-linecap:butt;stroke-linejoin:round;stroke-miterlimit:4;stroke-dasharray:none;stroke-opacity:1"/></svg>