<svg viewBox="0 0 16 16" xmlns="http://www.w3.org/2000/svg">/&amp;gt;<path style="fill:#fff;fill-opacity:1;stroke:none;stroke-width:2;stroke-linecap:round;stroke-linejoin:round;stroke-miterlimit:4;stroke-dasharray:none;stroke-opacity:1" transform="matrix(0 1 1 0 0 0)" d="M2 2h12v12H2z"/><path style="fill:#6d6d6d;fill-opacity:1" d="M1 4c0-2 0-3 2-3h10c2 0 2 1 2 3v8c0 2 0 3-2 3H3c-2 0-2-1-2-3zm4-2v12h8c1 0 1-1 1-2V4c0-1 0-2-1-2z"/><path d="M11.5 8 8 5v2H5v2h3v2z" style="fill:#B39169;fill-opacity:1;stroke:none;stroke-width:1px;stroke-linecap:butt;stroke-linejoin:miter;stroke-opacity:1"/></svg>