<svg xmlns="http://www.w3.org/2000/svg" viewBox="0 0 16 16"><path style="fill:#B39169;fill-opacity:1;stroke:none;stroke-width:1px;stroke-linecap:butt;stroke-linejoin:miter;stroke-opacity:1" d="m1 8 4 2.5L1 13z"/><path style="fill:#fff;fill-rule:evenodd;stroke-width:3;stroke-linecap:round;stroke-linejoin:round" transform="scale(-1)" d="M-15-9h7v1h-7z"/><path style="fill:#232629;fill-rule:evenodd;stroke-width:3;stroke-linecap:round;stroke-linejoin:round" transform="scale(-1)" d="M-15-8h7v1h-7z"/><path style="fill:#fff;fill-rule:evenodd;stroke-width:3;stroke-linecap:round;stroke-linejoin:round" transform="scale(-1)" d="M-15-11h7v1h-7z"/><path style="fill:#232629;fill-rule:evenodd;stroke-width:3;stroke-linecap:round;stroke-linejoin:round" transform="scale(-1)" d="M-15-10h7v1h-7z"/><path style="fill:#fff;fill-rule:evenodd;stroke-width:3;stroke-linecap:round;stroke-linejoin:round" transform="scale(-1)" d="M-15-13h7v1h-7z"/><path style="fill:#232629;fill-rule:evenodd;stroke-width:3;stroke-linecap:round;stroke-linejoin:round" transform="scale(-1)" d="M-15-12h7v1h-7z"/><path style="fill:#fff;fill-rule:evenodd;stroke-width:3;stroke-linecap:round;stroke-linejoin:round" transform="scale(-1)" d="M-15-6h12v1h-12z"/><path style="fill:#232629;fill-rule:evenodd;stroke-width:3;stroke-linecap:round;stroke-linejoin:round" transform="scale(-1)" d="M-15-5h12v1h-12z"/><path style="fill:#fff;fill-rule:evenodd;stroke-width:3;stroke-linecap:round;stroke-linejoin:round" transform="scale(-1)" d="M-15-4h12v1h-12z"/><path style="fill:#232629;fill-rule:evenodd;stroke-width:3;stroke-linecap:round;stroke-linejoin:round" transform="scale(-1)" d="M-15-3h12v1h-12z"/></svg>