<svg xmlns="http://www.w3.org/2000/svg" height="16" viewBox="0 0 4.233 4.233" width="16"><linearGradient id="b" gradientUnits="userSpaceOnUse" x1="26.459" x2="26.459" y1="5.219" y2="25.081"><stop offset="0" stop-color="#fff"/><stop offset=".063" stop-color="#fff" stop-opacity=".235"/><stop offset=".951" stop-color="#fff" stop-opacity=".157"/><stop offset="1" stop-color="#fff" stop-opacity=".392"/></linearGradient><linearGradient id="a" gradientTransform="matrix(3.54885 0 0 1 -822.227 -30.258)" gradientUnits="userSpaceOnUse" x1="236.195" x2="236.195" y1="35.804" y2="53.804"><stop offset="0" stop-color="#f4f4f4" stop-opacity=".746"/><stop offset=".5" stop-color="#f7f7f7"/><stop offset="1" stop-color="#dcdcdc"/></linearGradient><path d="M.404 1.193a.265.265 0 0 0-.265.264l-.007 1.32c0 .14.11.255.25.263l3.455-.005a.265.265 0 0 0 .265-.265l.006-1.32c0-.14-.11-.254-.25-.263z" style="opacity:.2;fill:none;stroke:#000;stroke-width:.26458;stroke-linecap:round;stroke-linejoin:round"/><path d="M4.01 5.558c-1.11 0-2.018.892-2 2l.122 7.897c.017 1.108.892 2 2 2h24.093c1.108 0 2.017-.892 2-2l-.123-7.897c-.018-1.108-.892-2-2-2z" fill="url(#a)" transform="translate(0 .59) scale(.1323)"/><path d="M28.54 6.052 3.554 6.06a1 1 0 0 0-1 1l-.043 8.935c0 .537.423.964.952.99H28.49a1 1 0 0 0 1-1l.042-8.935a.994.994 0 0 0-.992-.998z" fill="none" stroke="url(#b)" stroke-linecap="round" stroke-linejoin="round" transform="translate(0 .59) scale(.1323)"/><g fill="#fbfbfb"><path d="M1.323 2.117h.264v.264h-.264zm.264-.265h.265v.265h-.265zm.265.265h.265v.264h-.265z"/><path d="M1.323 2.38h.264v.266h-.264zm.529 0h.265v.266h-.265zm-.265.266h.265v.264h-.265zm.793-.794h.266v.265H2.38zm0 .265h.266v.264H2.38z"/><path d="M2.38 2.38h.266v.266H2.38zm0 .266h.266v.264H2.38zm.53-.794h.265v.265H2.91zm-.264.265h.264v.264h-.264zm.264.263h.265v.266H2.91zm0 .266h.265v.264H2.91z"/></g><g fill="#7c7c7c"><path d="M1.323 1.852h.264v.265h-.264zm.264-.264h.265v.264h-.265zm.265.264h.265v.265h-.265zm-.529.265h.264v.264h-.264zm.529 0h.265v.264h-.265z"/><path d="M1.587 2.38h.265v.266h-.265zm.793-.792h.266v.264H2.38zm0 .264h.266v.265H2.38zm0 .265h.266v.264H2.38z"/><path d="M2.38 2.38h.266v.266H2.38zm.53-.792h.265v.264H2.91zm-.264.264h.264v.265h-.264zm.264.265h.265v.264H2.91z"/><path d="M2.91 2.38h.265v.266H2.91z"/></g></svg>