<svg viewBox="0 0 16 16" xmlns:xlink="http://www.w3.org/1999/xlink" xmlns="http://www.w3.org/2000/svg"><defs><linearGradient id="a"><stop style="stop-color:#151515;stop-opacity:1" offset="0"/><stop style="stop-color:#4d4d4d;stop-opacity:1" offset="1"/></linearGradient><linearGradient xlink:href="#a" id="b" x1="9" y1="1" x2="7.5" y2="12.5" gradientUnits="userSpaceOnUse" gradientTransform="translate(1.074)"/><linearGradient xlink:href="#a" id="c" gradientUnits="userSpaceOnUse" x1="9" y1="1" x2="7.426" y2="14" gradientTransform="translate(1.074)"/></defs><path style="color:#000;fill:url(#b);fill-opacity:1;stroke:#fff;stroke-width:2;stroke-linejoin:round;-inkscape-stroke:none" d="M8.879 1 2.037 11.453l1.674 1.094L6.03 9h5.047l.826 3.246 1.94-.492L11.105 1H8.88zm.787 2.447L10.57 7H7.342l2.324-3.553zM2 13v1h12v-1H2z"/><path style="color:#000;fill:url(#c);fill-opacity:1;-inkscape-stroke:none" d="M8.879 1 2.037 11.453l1.674 1.094L6.03 9h5.047l.826 3.246 1.94-.492L11.105 1H8.88zm.787 2.447L10.57 7H7.342l2.324-3.553zM2 13v1h12v-1H2z"/><circle style="opacity:1;vector-effect:none;fill:#c7162b;fill-opacity:1;stroke:none;stroke-width:3.5;stroke-linecap:butt;stroke-linejoin:round;stroke-miterlimit:4;stroke-dasharray:none;stroke-dashoffset:0;stroke-opacity:1" cy="12.5" cx="12.5" r="3.5"/><path overflow="visible" font-weight="400" style="color:#000;font-weight:400;line-height:normal;font-family:sans-serif;text-indent:0;text-align:start;text-decoration:none;text-decoration-line:none;text-decoration-style:solid;text-decoration-color:#000;text-transform:none;white-space:normal;overflow:visible;isolation:auto;mix-blend-mode:normal;fill:#fff;fill-opacity:1;marker:none" d="m10.379 11.086 1.414 1.414-1.414 1.414.707.707 1.414-1.414 1.414 1.414.707-.707-1.414-1.414 1.414-1.414-.707-.707-1.414 1.414-1.414-1.414z"/></svg>