<?xml version="1.0" encoding="UTF-8" standalone="no"?>
<svg
   xmlns:dc="http://purl.org/dc/elements/1.1/"
   xmlns:cc="http://creativecommons.org/ns#"
   xmlns:rdf="http://www.w3.org/1999/02/22-rdf-syntax-ns#"
   xmlns:svg="http://www.w3.org/2000/svg"
   xmlns="http://www.w3.org/2000/svg"
   xmlns:sodipodi="http://sodipodi.sourceforge.net/DTD/sodipodi-0.dtd"
   xmlns:inkscape="http://www.inkscape.org/namespaces/inkscape"
   viewBox="0 0 32 32"
   version="1.1"
   id="svg8"
   sodipodi:docname="romanlowliststyle.svg"
   inkscape:version="0.92.4 (5da689c313, 2019-01-14)">
  <metadata
     id="metadata14">
    <rdf:RDF>
      <cc:Work
         rdf:about="">
        <dc:format>image/svg+xml</dc:format>
        <dc:type
           rdf:resource="http://purl.org/dc/dcmitype/StillImage" />
      </cc:Work>
    </rdf:RDF>
  </metadata>
  <defs
     id="defs12" />
  <sodipodi:namedview
     pagecolor="#ffffff"
     bordercolor="#666666"
     borderopacity="1"
     objecttolerance="10"
     gridtolerance="10"
     guidetolerance="10"
     inkscape:pageopacity="0"
     inkscape:pageshadow="2"
     inkscape:window-width="1920"
     inkscape:window-height="1011"
     id="namedview10"
     showgrid="true"
     inkscape:zoom="29.5"
     inkscape:cx="12.037533"
     inkscape:cy="13.484281"
     inkscape:window-x="0"
     inkscape:window-y="32"
     inkscape:window-maximized="1"
     inkscape:current-layer="svg8">
    <inkscape:grid
       type="xygrid"
       id="grid821" />
  </sodipodi:namedview>
  <g
     transform="matrix(-1 0 0 1 33 0)"
     id="g6">
    <path
       d="M 11,4 V 5 H 28 V 4 Z m 0,3 V 8 H 28 V 7 Z m 0,7 v 1 h 17 v -1 z m 0,3 v 1 h 17 v -1 z m 0,7 v 1 h 17 v -1 z m 0,3 v 1 h 17 v -1 z"
       id="path2"
       inkscape:connector-curvature="0"
       style="fill:#232629"
       sodipodi:nodetypes="cccccccccccccccccccccccccccccc" />
    <path
       d="m7 4v1h-1v-1zm0 2v3h-1v-3zm2 8v1h-1v-1zm-2 0v1h-1v-1zm2 2v3h-1v-3zm-2 0v3h-1v-3z"
       fill="#762572"
       id="path4" />
  </g>
</svg>
