<svg height="52" width="60" xmlns="http://www.w3.org/2000/svg"><path d="M0 0h60v52H0z" fill="#fff"/><path d="M29 6v22.633L9.832 17.566l-.5.868L28.5 29.5v.293L12.883 45.41l.707.707 15.91-15.91 15.91 15.91.707-.707L30.5 29.793V29.5l19.168-11.066-.5-.868L30 28.633V6z" fill="#232629"/><g fill="#e95420" style="fill:#B39169"><path d="M19 1024.362h1v1h-1zM20 1023.362h1v1h-1zM19 1022.362h1v1h-1zM18 1023.362h1v1h-1z" style="fill:#B39169" transform="translate(0 -1000.362)"/></g><path d="M19 23h1v1h-1z" fill="#fff"/><path d="M47 17h3v3h-3z" fill="#77216f" style="fill:#B39169"/><path d="M48 18h1v1h-1z" fill="#fff"/><path d="M41 41h3v3h-3z" fill="#77216f" style="fill:#B39169"/><path d="M42 42h1v1h-1z" fill="#fff"/><path d="M18 38h3v3h-3z" fill="#77216f" style="fill:#B39169"/><path d="M19 39h1v1h-1z" fill="#fff"/><path d="M9 17h3v3H9z" fill="#77216f" style="fill:#B39169"/><path d="M10 18h1v1h-1z" fill="#fff"/><path d="M28 7h3v3h-3z" fill="#77216f" style="fill:#B39169"/><path d="M29 8h1v1h-1z" fill="#fff"/><g fill="#e95420" style="fill:#B39169"><path d="M29 1015.362h1v1h-1zM30 1014.362h1v1h-1zM29 1013.362h1v1h-1zM28 1014.362h1v1h-1z" style="fill:#B39169" transform="translate(0 -1000.362)"/></g><path d="M29 14h1v1h-1z" fill="#fff"/><g fill="#e95420" style="fill:#B39169"><path d="M43 1022.362h1v1h-1zM44 1021.362h1v1h-1zM43 1020.362h1v1h-1zM42 1021.362h1v1h-1z" style="fill:#B39169" transform="translate(0 -1000.362)"/></g><path d="M43 21h1v1h-1z" fill="#fff"/><g fill="#e95420" style="fill:#B39169"><path d="M38 1039.362h1v1h-1zM39 1038.362h1v1h-1zM38 1037.362h1v1h-1zM37 1038.362h1v1h-1z" style="fill:#B39169" transform="translate(0 -1000.362)"/></g><path d="M38 38h1v1h-1z" fill="#fff"/><g fill="#e95420" style="fill:#B39169"><path d="M22 1037.362h1v1h-1zM23 1036.362h1v1h-1zM22 1035.362h1v1h-1zM21 1036.362h1v1h-1z" style="fill:#B39169" transform="translate(0 -1000.362)"/></g><path d="M22 36h1v1h-1z" fill="#fff"/><g fill="#e95420" style="fill:#fff;opacity:.4"><path d="M19 1024.362h1v1h-1zM20 1023.362h1v1h-1zM19 1022.362h1v1h-1zM18 1023.362h1v1h-1z" style="fill:#fff" transform="translate(0 -1000.362)"/></g><g fill="#e95420" style="fill:#fff;opacity:.4"><path d="M29 1015.362h1v1h-1zM30 1014.362h1v1h-1zM29 1013.362h1v1h-1zM28 1014.362h1v1h-1z" style="fill:#fff" transform="translate(0 -1000.362)"/></g><g fill="#e95420" style="fill:#fff;opacity:.4"><path d="M43 1022.362h1v1h-1zM44 1021.362h1v1h-1zM43 1020.362h1v1h-1zM42 1021.362h1v1h-1z" style="fill:#fff" transform="translate(0 -1000.362)"/></g><g fill="#e95420" style="fill:#fff;opacity:.4"><path d="M38 1039.362h1v1h-1zM39 1038.362h1v1h-1zM38 1037.362h1v1h-1zM37 1038.362h1v1h-1z" style="fill:#fff" transform="translate(0 -1000.362)"/></g><g fill="#e95420" style="fill:#fff;opacity:.4"><path d="M22 1037.362h1v1h-1zM23 1036.362h1v1h-1zM22 1035.362h1v1h-1zM21 1036.362h1v1h-1z" style="fill:#fff" transform="translate(0 -1000.362)"/></g></svg>