<svg xmlns="http://www.w3.org/2000/svg" xmlns:xlink="http://www.w3.org/1999/xlink" viewBox="0 0 24 24"><defs><linearGradient id="a"><stop offset="0" stop-color="#151515"/><stop offset="1" stop-color="#4d4d4d"/></linearGradient><linearGradient xlink:href="#a" id="b" x1="13.816" y1="3.025" x2="13.816" y2="21.248" gradientUnits="userSpaceOnUse"/></defs><g style="line-height:1.25;-inkscape-font-specification:'Ubuntu, Bold';font-variant-ligatures:normal;font-variant-caps:normal;font-variant-numeric:normal;font-feature-settings:normal;text-align:start"><path d="M14.227 6.47c-1.834 0-3.163.513-3.988 1.54-.808 1.01-1.211 2.397-1.211 4.164 0 .858.1 1.64.302 2.348.202.69.505 1.287.91 1.792.403.504.908.9 1.514 1.186.605.27 1.312.404 2.12.404.437 0 .807-.009 1.11-.025.32-.017.598-.05.833-.101v-5.629h3.938v8.203c-.471.185-1.229.379-2.272.58-1.043.22-2.33.329-3.862.329-1.312 0-2.507-.202-3.584-.606a7.487 7.487 0 01-2.726-1.767c-.757-.774-1.346-1.725-1.767-2.852-.403-1.127-.605-2.415-.605-3.862 0-1.464.227-2.76.681-3.887.454-1.127 1.077-2.078 1.868-2.852a7.814 7.814 0 012.776-1.792 9.695 9.695 0 013.433-.606c.825 0 1.565.06 2.221.177.673.1 1.245.227 1.717.379.488.134.883.277 1.186.429.32.151.547.269.681.353L18.367 7.53a9.605 9.605 0 00-1.868-.732 7.485 7.485 0 00-2.272-.328z" style="-inkscape-font-specification:'Ubuntu, Bold';font-variant-ligatures:normal;font-variant-caps:normal;font-variant-numeric:normal;font-feature-settings:normal;text-align:start" fill="#fff" stroke="#fff" transform="matrix(1.01242 0 0 .98774 -.988 .012)" aria-label="G" font-weight="700" font-size="25.24" font-family="Ubuntu" letter-spacing="0" word-spacing="0" stroke-width="2" stroke-linejoin="round"/></g><g style="line-height:1.25;-inkscape-font-specification:'Ubuntu, Bold';font-variant-ligatures:normal;font-variant-caps:normal;font-variant-numeric:normal;font-feature-settings:normal;text-align:start"><path d="M14.227 6.47c-1.834 0-3.163.513-3.988 1.54-.808 1.01-1.211 2.397-1.211 4.164 0 .858.1 1.64.302 2.348.202.69.505 1.287.91 1.792.403.504.908.9 1.514 1.186.605.27 1.312.404 2.12.404.437 0 .807-.009 1.11-.025.32-.017.598-.05.833-.101v-5.629h3.938v8.203c-.471.185-1.229.379-2.272.58-1.043.22-2.33.329-3.862.329-1.312 0-2.507-.202-3.584-.606a7.487 7.487 0 01-2.726-1.767c-.757-.774-1.346-1.725-1.767-2.852-.403-1.127-.605-2.415-.605-3.862 0-1.464.227-2.76.681-3.887.454-1.127 1.077-2.078 1.868-2.852a7.814 7.814 0 012.776-1.792 9.695 9.695 0 013.433-.606c.825 0 1.565.06 2.221.177.673.1 1.245.227 1.717.379.488.134.883.277 1.186.429.32.151.547.269.681.353L18.367 7.53a9.605 9.605 0 00-1.868-.732 7.485 7.485 0 00-2.272-.328z" style="-inkscape-font-specification:'Ubuntu, Bold';font-variant-ligatures:normal;font-variant-caps:normal;font-variant-numeric:normal;font-feature-settings:normal;text-align:start" aria-label="G" transform="matrix(1.01242 0 0 .98774 -.988 .012)" font-weight="700" font-size="25.24" font-family="Ubuntu" letter-spacing="0" word-spacing="0" fill="url(#b)" stroke-width=".996"/></g></svg>