<svg xmlns="http://www.w3.org/2000/svg" viewBox="0 0 24 24"><path d="M6.5 2.5h11v18h-11z" fill="#b549b5"/><path d="M3.45 1.998a.451.451 0 00-.45.453v18.097c0 .25.202.452.45.452h17.1c.249 0 .45-.203.45-.452V2.45c0-.25-.308-.453-.556-.453H5.994zM4 3h2v1H4zm3 0h10l-.006 17.095h-10zm11 0h2v1h-2zM4 6h2v1H4zm14 0h2v1h-2zM4 9h2v1H4zm14 0h2v1h-2zM4 12h2v1H4zm14 0h2v1h-2zM4 15h2v1H4zm14 0h2v1h-2zM4 18h2v1H4zm14 0h2v1h-2z" opacity=".7"/><path d="M7.495 12.452h9.01" display="block" opacity=".7" fill="none" stroke="#000" stroke-width=".995" stroke-linecap="square" stroke-linejoin="round"/><path fill="#fff" fill-rule="evenodd" d="M4 3h2v1H4zM4 6h2v1H4zM4 9h2v1H4zM4 12h2v1H4zM4 15h2v1H4zM4 18h2v1H4zM18 3h2v1h-2zM18 6h2v1h-2zM18 9h2v1h-2zM18 12h2v1h-2zM18 15h2v1h-2zM18 18h2v1h-2z"/></svg>