<svg xmlns="http://www.w3.org/2000/svg" viewBox="0 0 24 24"><defs><linearGradient id="b" gradientUnits="userSpaceOnUse" x1="12.685" x2="12.685" y1="5.028" y2="19.187" gradientTransform="translate(5.442 -1.687) scale(.84354)"><stop offset="0" stop-color="#fff5ef"/><stop offset="1" stop-color="#fef8dd"/></linearGradient><linearGradient id="a"><stop offset="0" stop-color="#fff"/><stop offset="0" stop-color="#fff" stop-opacity=".235"/><stop offset="1" stop-color="#fff" stop-opacity=".157"/><stop offset="1" stop-color="#fff" stop-opacity=".392"/></linearGradient></defs><path d="M4.5 4.5h11v18h-11z" fill="#b549b5"/><path d="M1.45 3.998a.451.451 0 00-.45.453v18.097c0 .25.201.452.45.452h17.1c.249 0 .45-.203.45-.452V4.45c0-.25-.308-.453-.556-.453H3.994zM2 5h2v1H2zm3 0h10l-.006 17.095h-10zm11 0h2v1h-2zM2 8h2v1H2zm14 0h2v1h-2zM2 11h2v1H2zm14 0h2v1h-2zM2 14h2v1H2zm14 0h2v1h-2zM2 17h2v1H2zm14 0h2v1h-2zM2 20h2v1H2zm14 0h2v1h-2z" opacity=".7"/><path d="M5.45 14.452h9.1" display="block" opacity=".7" fill="none" stroke="#000" stroke-linecap="square" stroke-linejoin="round"/><rect y="1" x="8" width="15" ry=".376" rx=".261" height="15" fill="#f4843f"/><path d="M15.919 3.378c-.382-.045-.435.278-.395.534-.003 2.553.008 5.108-.005 7.659-.093.088-.272-.057-.391-.02-1.295-.07-2.71.775-2.839 1.996-.152.97.986 1.769 2 1.618 1.28-.122 2.279-1.285 2.112-2.433.003-2.021-.008-4.044.005-6.064.087-.09.217.101.309.11 1.028.55 1.938 1.453 2 2.579.067.88-.229 1.74-.561 2.556 1.114-1.236 1.47-3.04.696-4.5-.396-.847-1.29-1.37-1.79-2.157-.368-.526-.65-1.113-.737-1.734-.073-.13-.263-.145-.404-.144z" opacity=".3" fill="#a62100"/><path d="M15.465 2.466c-.39-.046-.5.27-.46.532-.003 2.601.008 5.206-.005 7.806-.095.09-.277-.058-.399-.02-1.32-.072-2.703.803-2.835 2.047-.156.989 1.004 1.803 2.039 1.649C15.108 14.355 16.17 13.17 16 12c.004-2.06-.008-4.123.005-6.181.089-.092.222.104.315.113 1.048.559 1.932 1.48 1.994 2.628.07.897-.232 1.774-.571 2.605 1.136-1.26 1.5-3.098.71-4.586-.403-.864-1.314-1.396-1.824-2.199-.376-.536-.662-1.134-.752-1.767-.073-.132-.267-.148-.412-.147z" fill="url(#b)"/><path fill="#fff" d="M2 5h2v1H2zM2 8h2v1H2zM2 11h2v1H2zM2 14h2v1H2zM2 17h2v1H2zM2 20h2v1H2zM16 17h2v1h-2zM16 20h2v1h-2z"/></svg>