<svg xmlns="http://www.w3.org/2000/svg" viewBox="0 0 24 24"><path d="M8 20c-2 0-3 0-3-2V6c0-2 1-2 3-2h7l1 1 2 2 1 1v10c0 2-1 2-3 2z" opacity=".7" stroke="#000" stroke-width="2" stroke-linejoin="round"/><path d="M8 20c-2 0-3 0-3-2V6c0-2 1-2 3-2h7l1 1 2 2 1 1v10c0 2-1 2-3 2z" fill="#fff"/><path d="M15 8V4l4 4z" fill="#6d6d6d"/><path opacity=".7" stroke="#000" stroke-width="2" stroke-linejoin="round" d="M3 12h18v4H3z"/><path fill="#aee3f8" d="M3 12h18v4H3z"/><path opacity=".7" d="M7 12h1v2H7zM10 12h1v2h-1zM13 12h1v2h-1zM16 12h1v2h-1zM4 12h1v2H4zM19 12h1v2h-1z"/></svg>