<svg xmlns="http://www.w3.org/2000/svg" viewBox="0 0 24 24"><path fill="#2daaaa" d="M0 18h6v6H0z"/><path fill="#46a926" d="M6 18h6v6H6z"/><path fill="#fdc92b" d="M12 18h6v6h-6z"/><path fill="#f34f17" d="M18 18h6v6h-6z"/><path fill="#31c6b7" d="M0 12h6v6H0z"/><path fill="#76c22b" d="M6 12h6v6H6z"/><path fill="#ffda64" d="M12 12h6v6h-6z"/><path fill="#fb7c38" d="M18 12h6v6h-6z"/><path fill="#5bdbc1" d="M0 6h6v6H0z"/><path fill="#a6d74f" d="M6 6h6v6H6z"/><path fill="#fee581" d="M12 6h6v6h-6z"/><path fill="#fda463" d="M18 6h6v6h-6z"/><path fill="#81e9c0" d="M0 0h6v6H0z"/><path fill="#cbe667" d="M6 0h6v6H6z"/><path fill="#fff4c9" d="M12 0h6v6h-6z"/><path fill="#fec589" d="M18 0h6v6h-6z"/><path d="M14.996 3.002c-2.911 2.92-5.832 5.826-8.742 8.736l.002.004-.25.25H6V16h4.008c2.905-2.902 6-6.003 8.99-8.996l-3.998-4zm-.584 1.996L17 7.588l-4.268 4.267-2.587-2.59zM9.438 9.973l2.587 2.59-.707.707-2.59-2.59c.238-.235.473-.471.71-.707zM8.02 11.387l2.59 2.59.004.002-.707.707-.004-.002-2.59-2.59z"/></svg>