<svg xmlns="http://www.w3.org/2000/svg" viewBox="0 0 24 24"><path d="M5.596 3l-.236.666L2.059 13h2.217l.975-2.285h3.374L9.5 13h2.205L8.465 3H6.754zM7 5.24L5.817 8.572h2.256z" style="line-height:normal;font-variant-ligatures:normal;font-variant-position:normal;font-variant-caps:normal;font-variant-numeric:normal;font-variant-alternates:normal;font-feature-settings:normal;text-indent:0;text-align:start;text-decoration-line:none;text-decoration-style:solid;text-decoration-color:#000;text-transform:none;text-orientation:mixed;white-space:normal;shape-padding:0;isolation:auto;mix-blend-mode:normal;solid-color:#000;solid-opacity:1" color="#000" font-weight="400" font-family="sans-serif" overflow="visible" opacity=".7" fill-rule="evenodd" stroke="#000" stroke-width="2" stroke-linejoin="round"/><path style="line-height:normal;font-variant-ligatures:normal;font-variant-position:normal;font-variant-caps:normal;font-variant-numeric:normal;font-variant-alternates:normal;font-feature-settings:normal;text-indent:0;text-align:start;text-decoration-line:none;text-decoration-style:solid;text-decoration-color:#000;text-transform:none;text-orientation:mixed;white-space:normal;shape-padding:0;isolation:auto;mix-blend-mode:normal;solid-color:#000;solid-opacity:1" d="M5.596 3l-.236.666L2.059 13h2.217l.975-2.285h3.374L9.5 13h2.205L8.465 3H6.754zM7 5.24L5.817 8.572h2.256z" color="#000" font-weight="400" font-family="sans-serif" overflow="visible" fill="#fff" fill-rule="evenodd"/><path style="line-height:normal;font-variant-ligatures:normal;font-variant-position:normal;font-variant-caps:normal;font-variant-numeric:normal;font-variant-alternates:normal;font-feature-settings:normal;text-indent:0;text-align:start;text-decoration-line:none;text-decoration-style:solid;text-decoration-color:#000;text-transform:none;text-orientation:mixed;white-space:normal;shape-padding:0;isolation:auto;mix-blend-mode:normal;solid-color:#000;solid-opacity:1" d="M7.158 17.865A.5.5 0 007.5 18h3a.5.5 0 00.353-.146l1.474-1.477a.5.5 0 00.026-.023l.647-.647.146.147a.5.5 0 00.574.096l1.69-.832-4.028-4.027-.832 1.689a.5.5 0 00.096.574l.147.146-.62.623a.5.5 0 00-.027.024l-3 3a.5.5 0 00.012.718zm9.058-3.355l6.611-6.608a.5.5 0 000-.707l-3.521-3.522a.5.5 0 00-.36-.147.5.5 0 00-.348.147l-6.608 6.611z" color="#000" font-weight="400" font-family="sans-serif" overflow="visible" opacity=".7" stroke="#000" stroke-width="2" stroke-linejoin="round"/><path style="line-height:normal;font-variant-ligatures:normal;font-variant-position:normal;font-variant-caps:normal;font-variant-numeric:normal;font-variant-alternates:normal;font-feature-settings:normal;text-indent:0;text-align:start;text-decoration-line:none;text-decoration-style:solid;text-decoration-color:#000;text-transform:none;text-orientation:mixed;white-space:normal;shape-padding:0;isolation:auto;mix-blend-mode:normal;solid-color:#000;solid-opacity:1" d="M16.216 14.51l6.611-6.608a.5.5 0 000-.707l-3.521-3.522a.5.5 0 00-.36-.147.5.5 0 00-.348.147l-6.608 6.611z" color="#000" font-weight="400" font-family="sans-serif" overflow="visible" fill="#fff"/><path style="line-height:normal;font-variant-ligatures:normal;font-variant-position:normal;font-variant-caps:normal;font-variant-numeric:normal;font-variant-alternates:normal;font-feature-settings:normal;text-indent:0;text-align:start;text-decoration-line:none;text-decoration-style:solid;text-decoration-color:#000;text-transform:none;text-orientation:mixed;white-space:normal;shape-padding:0;isolation:auto;mix-blend-mode:normal;solid-color:#000;solid-opacity:1" d="M7.158 17.865A.5.5 0 007.5 18h3a.5.5 0 00.353-.146l1.474-1.477a.5.5 0 00.026-.023l.647-.647.146.147a.5.5 0 00.574.096l1.69-.832-4.028-4.027-.832 1.689a.5.5 0 00.096.574l.147.146-.62.623a.5.5 0 00-.027.024l-3 3a.5.5 0 00.012.718z" color="#000" font-weight="400" font-family="sans-serif" overflow="visible" fill="#76c22b"/><path fill="#76c22b" fill-rule="evenodd" d="M0 20h24v4H0z"/></svg>