<svg xmlns="http://www.w3.org/2000/svg" viewBox="0 0 24 24"><path d="M7 3.5a3.5 3.5 0 000 7h2.5v3H7a3.5 3.5 0 103.5 3.5v-2.5h3V17a3.5 3.5 0 103.5-3.5h-2.5v-3H17A3.5 3.5 0 1013.5 7v2.5h-3V7A3.5 3.5 0 007 3.5zm0 1A2.5 2.5 0 019.5 7v2.5H7a2.5 2.5 0 110-5zm10 0a2.5 2.5 0 110 5h-2.5V7A2.5 2.5 0 0117 4.5zm-6.5 6h3v3h-3zm-3.5 4h2.5V17A2.5 2.5 0 117 14.5zm7.5 0H17a2.5 2.5 0 11-2.5 2.5z" stroke="#000" stroke-width="3" opacity=".6"/><path d="M7 3.5a3.5 3.5 0 000 7h2.5v3H7a3.5 3.5 0 103.5 3.5v-2.5h3V17a3.5 3.5 0 103.5-3.5h-2.5v-3H17A3.5 3.5 0 1013.5 7v2.5h-3V7A3.5 3.5 0 007 3.5zm0 1A2.5 2.5 0 019.5 7v2.5H7a2.5 2.5 0 110-5zm10 0a2.5 2.5 0 110 5h-2.5V7A2.5 2.5 0 0117 4.5zm-6.5 6h3v3h-3zm-3.5 4h2.5V17A2.5 2.5 0 117 14.5zm7.5 0H17a2.5 2.5 0 11-2.5 2.5z" fill="#aee3f8" stroke="#aee3f8"/></svg>