<svg xmlns="http://www.w3.org/2000/svg" viewBox="0 0 24 24"><path d="M0 18v4c0 2 1 2 3 2h3v-6z" fill="#2daaaa"/><path fill="#46a926" d="M6 18h6v6H6z"/><path fill="#fdc92b" d="M12 18h6v6h-6z"/><path d="M18 18v6h3c2 0 3 0 3-2v-4z" fill="#f34f17"/><path fill="#31c6b7" d="M0 12h6v6H0z"/><path fill="#76c22b" d="M6 12h6v6H6z"/><path fill="#ffda64" d="M12 12h6v6h-6z"/><path fill="#fb7c38" d="M18 12h6v6h-6z"/><path fill="#5bdbc1" d="M0 6h6v6H0z"/><path fill="#a6d74f" d="M6 6h6v6H6z"/><path fill="#fee581" d="M12 6h6v6h-6z"/><path fill="#fda463" d="M18 6h6v6h-6z"/><path d="M3 0C1 0 0 0 0 2v4h6V0z" fill="#81e9c0"/><path fill="#cbe667" d="M6 0h6v6H6z"/><path fill="#fff4c9" d="M12 0h6v6h-6z"/><path d="M18 0v6h6V2c0-2-1-2-3-2z" fill="#fec589"/><path style="line-height:normal;font-variant-ligatures:normal;font-variant-position:normal;font-variant-caps:normal;font-variant-numeric:normal;font-variant-alternates:normal;font-feature-settings:normal;text-indent:0;text-align:start;text-decoration-line:none;text-decoration-style:solid;text-decoration-color:#000;text-transform:none;text-orientation:mixed;white-space:normal;shape-padding:0;isolation:auto;mix-blend-mode:normal;solid-color:#000;solid-opacity:1" d="M4.158 16.865A.5.5 0 004.5 17h3a.5.5 0 00.353-.146l1.474-1.477a.5.5 0 00.026-.023l.647-.647.146.147a.5.5 0 00.574.096l1.69-.832-4.028-4.027-.832 1.689a.5.5 0 00.096.574l.147.146-.62.623a.5.5 0 00-.027.024l-3 3a.5.5 0 00.012.718zm9.058-3.355l6.611-6.608a.5.5 0 000-.707l-3.521-3.522a.5.5 0 00-.36-.147.5.5 0 00-.348.147L8.99 9.284z" color="#000" font-weight="400" font-family="sans-serif" overflow="visible" fill="#232629"/></svg>