<svg xmlns="http://www.w3.org/2000/svg" viewBox="0 0 24 24"><path d="M11 5.625c-3.944.927-7.5 7.229-7.5 14.875h1c0-7.05 3.11-12.87 6.5-13.844zm2 0v1.031c3.39.974 6.5 6.794 6.5 13.844h1c0-7.646-3.556-13.948-7.5-14.875z" fill="#1463a5" stroke="#1463a5" stroke-linecap="round"/><path d="M2 4c-.554 0-1 .446-1 1v2c0 .554.446 1 1 1h2c.554 0 1-.446 1-1h5V5H5c0-.554-.446-1-1-1zM22 4c.554 0 1 .446 1 1v2c0 .554-.446 1-1 1h-2c-.554 0-1-.446-1-1h-5V5h5c0-.554.446-1 1-1z" fill="gray"/><path opacity=".7" d="M9 3v6h6V3z"/><path d="M2 5.043h2V7H2zM22 5.043h-2V7h2z" fill="#fff"/><path fill="#aee3f8" d="M10 4v4h4V4z"/></svg>