<svg xmlns="http://www.w3.org/2000/svg" viewBox="0 0 24 24"><defs><linearGradient id="a"><stop offset="0" stop-opacity=".661"/><stop offset=".5" stop-opacity="0"/><stop offset="1" stop-opacity=".67"/></linearGradient></defs><path d="M4.716 17.269c-.788 1.441-2.858 4.506 0 4.48 2.813-.024.56-3.09 0-4.48z" stroke="#000" stroke-width="2" opacity=".6" stroke-linejoin="round"/><path d="M12.202 7.875s-6.182 5.671-6.47 6.248c-.294.59-.053 1.219-.699 2.536 1.385-.631 2.067-.38 2.574-.661.519-.289 6.323-6.322 6.323-6.322z" fill-rule="evenodd" stroke="#000" stroke-width="2" stroke-linejoin="round" opacity=".6"/><path d="M12.202 7.875s-6.182 5.671-6.47 6.248c-.294.59-.053 1.219-.699 2.536 1.385-.631 2.067-.38 2.574-.661.519-.289 6.323-6.322 6.323-6.322z" fill="#fff" fill-rule="evenodd"/><path d="M4.716 17.269c-.788 1.441-2.858 4.506 0 4.48 2.813-.024.56-3.09 0-4.48z" fill="#fff"/><path d="M15.328 10.975l.625-.625-.676-1.915s-.034-.259.289-.28c1.735-.11 3.513-2.158 3.599-3.552.074-1.214-1.106-1.994-2.177-1.91-1.07.085-2.828 1.51-3.267 3.31a.41.41 0 01-.305.304l-2.027-.543-.6.6z" fill="#6d6d6d" fill-rule="evenodd" stroke="#6d6d6d" stroke-width=".5"/></svg>