<svg xmlns="http://www.w3.org/2000/svg" width="24" height="24"><path style="line-height:normal;font-variant-ligatures:normal;font-variant-position:normal;font-variant-caps:normal;font-variant-numeric:normal;font-variant-alternates:normal;font-variant-east-asian:normal;font-feature-settings:normal;font-variation-settings:normal;text-indent:0;text-align:start;text-decoration-line:none;text-decoration-style:solid;text-decoration-color:#000;text-transform:none;text-orientation:mixed;white-space:normal;shape-padding:0;shape-margin:0;inline-size:0;isolation:auto;mix-blend-mode:normal;solid-color:#000;solid-opacity:1" d="M15 4c-2.215 0-3.75 1.238-4.385 2.42C9.98 7.602 10 8.758 10 8.758a1.5 1.5 0 001.5 1.5 1.5 1.5 0 001.5-1.5s.02-.473.26-.92C13.5 7.39 13.715 7 15 7c1.293 0 1.643.359 1.799.953.155.594-.057 1.913-1.451 3.586l-5 6A1.5 1.5 0 0010 18.5V20h10v-3h-5.297l2.95-3.54c1.774-2.129 2.56-4.311 2.048-6.267C19.19 5.238 17.207 4 15 4z" color="#000" font-weight="400" font-family="sans-serif" overflow="visible" stroke="#000" stroke-width="2" stroke-linecap="round" stroke-linejoin="round" opacity=".6"/><path d="M2 11h6v2H2z" fill="#c7162b"/><path style="line-height:normal;font-variant-ligatures:normal;font-variant-position:normal;font-variant-caps:normal;font-variant-numeric:normal;font-variant-alternates:normal;font-variant-east-asian:normal;font-feature-settings:normal;font-variation-settings:normal;text-indent:0;text-align:start;text-decoration-line:none;text-decoration-style:solid;text-decoration-color:#000;text-transform:none;text-orientation:mixed;white-space:normal;shape-padding:0;shape-margin:0;inline-size:0;isolation:auto;mix-blend-mode:normal;solid-color:#000;solid-opacity:1" d="M15 4c-2.215 0-3.75 1.238-4.385 2.42C9.98 7.602 10 8.758 10 8.758a1.5 1.5 0 001.5 1.5 1.5 1.5 0 001.5-1.5s.02-.473.26-.92C13.5 7.39 13.715 7 15 7c1.293 0 1.643.359 1.799.953.155.594-.057 1.913-1.451 3.586l-5 6A1.5 1.5 0 0010 18.5V20h10v-3h-5.297l2.95-3.54c1.774-2.129 2.56-4.311 2.048-6.267C19.19 5.238 17.207 4 15 4z" color="#000" font-weight="400" font-family="sans-serif" overflow="visible" fill="#fff"/></svg>