<svg xmlns="http://www.w3.org/2000/svg" viewBox="0 0 24 24"><path d="M3 11h18v2H3z" fill="#1463a5"/><rect y="9" x="9" height="6" width="6" ry="0" opacity=".7"/><rect y="10" x="10" height="4" width="4" ry="0" fill="#aee3f8"/><circle cy="19.5" cx="18.5" r="3.5" fill="#c7162b"/><path overflow="visible" font-weight="400" style="line-height:normal;text-indent:0;text-align:start;text-decoration-line:none;text-decoration-style:solid;text-decoration-color:#000;text-transform:none;white-space:normal;isolation:auto;mix-blend-mode:normal;marker:none" d="M19.914 17.379L18.5 18.793l-1.414-1.414-.707.707 1.414 1.414-1.414 1.414.707.707 1.414-1.414 1.414 1.414.707-.707-1.414-1.414 1.414-1.414z" color="#000" font-family="sans-serif" fill="#fff"/><rect ry="0" width="6" height="6" x="1" y="9" opacity=".7"/><rect ry="0" width="4" height="4" x="2" y="10" fill="#aee3f8"/><rect y="9" x="17" height="6" width="6" ry="0" opacity=".7"/><rect y="10" x="18" height="4" width="4" ry="0" fill="#aee3f8"/></svg>