<svg xmlns="http://www.w3.org/2000/svg" viewBox="0 0 24 24"><path d="M6.994 4c-1.258.014-2.179-.03-2.932.384a1.88 1.88 0 00-.837.999C3.06 5.82 3 6.343 3 7v10c0 .658.06 1.179.225 1.617.164.44.461.789.837.997.753.415 1.674.371 2.932.386h10.012c1.258-.014 2.179.03 2.932-.384a1.88 1.88 0 00.837-.999c.165-.438.225-.96.225-1.617V7c0-.658-.06-1.179-.225-1.617a1.875 1.875 0 00-.837-.997c-.753-.415-1.674-.371-2.932-.386H6.998z" style="line-height:125%;-inkscape-font-specification:Ubuntu;text-align:center" font-weight="400" font-size="15" font-family="Ubuntu" letter-spacing="0" word-spacing="0" text-anchor="middle" opacity=".6"/><path d="M11.983 5.027c-1.556.01-5.11-.012-6.66.039-.46.042-1.016.206-1.155.71-.219.635-.108 1.333-.146 1.982-.008 2.297-.023 7.596.022 9.885.039.462.202 1.013.699 1.164.632.225 1.284.123 1.936.154 1.424.007 4.85.011 6.276.012 1.704 0 3.408-.005 5.107-.019.512-.012 1.184.02 1.585-.405.421-.54.287-1.268.323-1.904.011-2.444.027-7.911-.022-10.357-.05-.402-.17-.863-.575-1.044-.669-.294-1.427-.168-2.126-.206a715.985 715.985 0 00-5.264-.011z" fill="#d85eca"/><path style="marker:none" d="M8.983 10l-3 6h11l-3.5-4-1.5 2z" color="#000" overflow="visible" fill="#fff"/><path d="M16.983 9.415a1.5 1.5 0 01-1.422 1.574 1.5 1.5 0 01-1.574-1.421 1.5 1.5 0 011.422-1.575 1.5 1.5 0 011.574 1.421l-1.498.077z" fill="#fff"/><path d="M19 2v4h-2l2.5 4L22 6h-2V2h-1z" opacity=".6" stroke="#000" stroke-width="2" stroke-linejoin="round"/><path d="M19 2v4h-2l2.5 4L22 6h-2V2h-1z" fill="#fff"/></svg>