<svg xmlns="http://www.w3.org/2000/svg" viewBox="0 0 24 24"><rect y="2" x="2" height="20" width="20" ry="1" fill="#7c436f"/><path d="M16.595 7.934l-6.009 6.012-3.181-3.183-1.062 1.06 4.243 4.243 7.07-7.071z" style="line-height:normal;font-variant-ligatures:normal;font-variant-position:normal;font-variant-caps:normal;font-variant-numeric:normal;font-variant-alternates:normal;font-feature-settings:normal;text-indent:0;text-align:start;text-decoration-line:none;text-decoration-style:solid;text-decoration-color:#000;text-transform:none;text-orientation:mixed;white-space:normal;shape-padding:0;isolation:auto;mix-blend-mode:normal;solid-color:#000;solid-opacity:1;marker:none" color="#000" font-weight="400" font-family="sans-serif" overflow="visible" fill="#fff"/><path d="M3 2c-.554 0-1 .446-1 1v18c0 .554.446 1 1 1h18c.554 0 1-.446 1-1V3c0-.554-.446-1-1-1H3zm1 1h16c.554 0 1 .446 1 1v16c0 .554-.446 1-1 1H4c-.554 0-1-.446-1-1V4c0-.554.446-1 1-1z" opacity=".6"/></svg>