<svg xmlns="http://www.w3.org/2000/svg" viewBox="0 0 24 24"><path d="M2 6v12c0 1.662 1.338 3 3 3h14c1.662 0 3-1.338 3-3V6z" opacity=".7" fill-rule="evenodd" stroke="#000" stroke-width="2" stroke-linejoin="round"/><path fill="#6d6d6d" fill-rule="evenodd" d="M0 3h24v3H0z"/><path d="M2 6v12c0 1.662 1.338 3 3 3h14c1.662 0 3-1.338 3-3V6z" fill="#fff" fill-rule="evenodd"/><path fill="#1a7fd4" fill-rule="evenodd" d="M4 9h5v2H4z"/><path fill="#c7162b" fill-rule="evenodd" d="M4 12h5v2H4z"/><path fill="#46a926" fill-rule="evenodd" d="M4 15h5v2H4zM20 13.5a4.5 4.5 0 01-2.778 4.158 4.5 4.5 0 01-4.904-.976 4.5 4.5 0 01-.975-4.904A4.5 4.5 0 0115.5 9v4.5z"/><path d="M15.5 9a4.5 4.5 0 014.5 4.5h-4.5z" fill="#c7162b" fill-rule="evenodd"/><path d="M19.5 14a2.5 2.5 0 00-2.5 2.5 2.5 2.5 0 002.5 2.5 2.5 2.5 0 002.5-2.5 2.5 2.5 0 00-2.5-2.5zm0 5a3.5 4 0 00-3.5 4h7a3.5 4 0 00-3.5-4z" opacity=".7" fill-rule="evenodd" stroke="#000" stroke-width="2" stroke-linejoin="round"/><path d="M19.5 14a2.5 2.5 0 00-2.5 2.5 2.5 2.5 0 002.5 2.5 2.5 2.5 0 002.5-2.5 2.5 2.5 0 00-2.5-2.5zm0 5a3.5 4 0 00-3.5 4h7a3.5 4 0 00-3.5-4z" fill="#aee3f8" fill-rule="evenodd"/></svg>