<svg xmlns="http://www.w3.org/2000/svg" viewBox="0 0 24 24"><path style="line-height:125%;-inkscape-font-specification:Ubuntu;text-align:center" d="M4.994 1c-1.258.014-2.179-.031-2.931.384a1.88 1.88 0 00-.838.998C1.06 2.821 1 3.342 1 4V16c0 .658.06 1.179.225 1.617.164.439.461.789.838.996.752.415 1.673.372 2.931.387h8.012c1.258-.014 2.179.03 2.932-.385a1.88 1.88 0 00.837-.998c.165-.438.225-.96.225-1.617V3.999c0-.657-.06-1.178-.225-1.617a1.875 1.875 0 00-.837-.996c-.753-.415-1.674-.371-2.932-.387H4.998z" font-weight="400" font-size="15" font-family="Ubuntu" letter-spacing="0" word-spacing="0" text-anchor="middle" opacity=".6"/><path d="M8 2c-1.557.01-3.11-.012-4.66.039-.461.042-1.016.206-1.155.71-.22.635-.109 1.334-.146 1.982-.008 2.297-.023 9.596.021 11.885.04.462.203 1.013.7 1.164.632.225 1.283.123 1.935.154 1.424.007 2.85.011 4.277.012 1.704 0 3.408-.005 5.107-.019.512-.012 1.183.02 1.585-.405.42-.54.287-1.268.322-1.904.012-2.444.028-9.91-.022-12.357-.049-.402-.17-.863-.575-1.044-.668-.294-1.426-.168-2.126-.206A715.83 715.83 0 008 2z" fill="#fff"/><path d="M10.994 5c-1.258.014-2.179-.031-2.931.384a1.88 1.88 0 00-.838.998C7.06 6.821 7 7.342 7 8V20c0 .658.06 1.179.225 1.617.164.439.461.789.838.996.752.415 1.673.372 2.931.387h8.012c1.258-.015 2.179.03 2.932-.385a1.88 1.88 0 00.837-.998c.165-.438.225-.96.225-1.617V7.999c0-.657-.06-1.178-.225-1.617a1.875 1.875 0 00-.837-.996c-.753-.415-1.674-.372-2.932-.387H10.998z" style="line-height:125%;-inkscape-font-specification:Ubuntu;text-align:center" font-weight="400" font-size="15" font-family="Ubuntu" letter-spacing="0" word-spacing="0" text-anchor="middle" opacity=".6"/><path d="M14 6c-1.557.01-3.11-.012-4.66.039-.461.042-1.016.206-1.155.71-.22.635-.109 1.334-.146 1.982-.008 2.297-.023 9.596.021 11.885.04.462.203 1.013.7 1.164.632.225 1.283.123 1.935.154 1.424.007 2.85.011 4.277.012 1.704 0 3.408-.005 5.107-.019.512-.012 1.183.02 1.585-.405.42-.54.287-1.268.322-1.904.012-2.444.028-9.91-.022-12.357-.049-.402-.17-.863-.575-1.044-.668-.294-1.426-.168-2.126-.206A715.83 715.83 0 0014 6z" fill="#fff"/><path d="M13 8.5L9 12v-2H5V7h4V5z" opacity=".6" stroke="#000" stroke-width="2" stroke-linejoin="round"/><path d="M13 8.5L9 12v-2H5V7h4V5z" fill="#e97cc8"/><path d="M11 15.5l4 3.5v-2h4v-3h-4v-2z" opacity=".6" stroke="#000" stroke-width="2" stroke-linejoin="round"/><path d="M11 15.5l4 3.5v-2h4v-3h-4v-2z" fill="#aee3f8"/></svg>