<svg xmlns="http://www.w3.org/2000/svg" viewBox="0 0 24 24"><rect ry="1" y="7" x="4" height="10" width="16" opacity=".6" stroke="#000" stroke-width="2" stroke-linecap="round" stroke-linejoin="round" stroke-opacity=".984"/><rect width="16" height="10" x="4" y="7" ry="1" fill="#d85eca"/><path style="marker:none" d="M9 10l-3 5h11l-3-3-2.017 1z" color="#000" overflow="visible" fill="#fff"/><path d="M16.998 9.95a1.5 1 0 01-1.422 1.049 1.5 1 0 01-1.574-.948A1.5 1 0 0115.423 9a1.5 1 0 011.575.948" fill="#fff"/><path d="M11 1v3H3v1h18V4h-8V1z" opacity=".6" stroke="#000" stroke-width="2" stroke-linecap="round" stroke-linejoin="round" stroke-opacity=".984"/><path d="M11 1v3H3v1h18V4h-8V1z" fill="#fff"/><path d="M10.541 23v-3H3v-1h18v1h-8.459v3z" opacity=".6" stroke="#000" stroke-width="2" stroke-linecap="round" stroke-linejoin="round" stroke-opacity=".984"/><path d="M10.541 23v-3H3v-1h18v1h-8.459v3z" fill="#fff"/></svg>