<svg xmlns="http://www.w3.org/2000/svg" viewBox="0 0 24 24"><path d="M-3.006 2.973c-1.258.014-2.179-.03-2.932.385a1.88 1.88 0 00-.837.998C-6.94 4.794-7 5.316-7 5.973v11.001c0 .657.06 1.178.225 1.617.164.438.461.788.837.996.753.415 1.674.371 2.932.387H7.006c1.258-.015 2.179.03 2.932-.385a1.88 1.88 0 00.837-.998c.165-.439.225-.96.225-1.617V5.973c0-.658-.06-1.179-.225-1.617a1.875 1.875 0 00-.837-.996c-.753-.416-1.674-.372-2.932-.387H-3.002z" style="line-height:125%;-inkscape-font-specification:Ubuntu;text-align:center" font-weight="400" font-size="15" font-family="Ubuntu" letter-spacing="0" word-spacing="0" text-anchor="middle" opacity=".6"/><path d="M1.983 4c-1.556.01-5.11-.012-6.66.039-.46.042-1.016.206-1.155.71-.219.635-.108 1.334-.146 1.982-.008 2.297-.023 8.596.022 10.886.039.462.202 1.012.699 1.163.632.225 1.284.123 1.936.155 1.424.006 4.85.01 6.276.01 1.704.001 3.408-.004 5.107-.018.512-.012 1.184.02 1.585-.405.421-.54.287-1.268.323-1.904.011-2.444.027-8.91-.022-11.357-.05-.402-.17-.863-.575-1.044-.669-.294-1.427-.168-2.126-.206A715.985 715.985 0 001.983 4z" fill="#d85eca"/><path style="marker:none" d="M-1.017 8.973l-3 6h11l-3.5-4-1.5 2z" color="#000" overflow="visible" fill="#fff"/><path d="M6.983 8.388a1.5 1.5 0 01-1.422 1.574 1.5 1.5 0 01-1.574-1.421A1.5 1.5 0 015.41 6.966a1.5 1.5 0 011.574 1.422" fill="#fff"/><path style="line-height:125%;-inkscape-font-specification:Ubuntu;text-align:center" d="M16.994 2.973c-1.258.014-2.179-.03-2.932.385a1.88 1.88 0 00-.837.998c-.165.438-.225.96-.225 1.617v11.001c0 .657.06 1.178.225 1.617.164.438.461.788.837.996.753.415 1.674.371 2.932.387h10.012c1.258-.015 2.179.03 2.932-.385a1.88 1.88 0 00.837-.998c.165-.439.225-.96.225-1.617V5.973c0-.658-.06-1.179-.225-1.617a1.875 1.875 0 00-.837-.996c-.753-.416-1.674-.372-2.932-.387H16.998z" font-weight="400" font-size="15" font-family="Ubuntu" letter-spacing="0" word-spacing="0" text-anchor="middle" opacity=".6"/><path d="M21.983 4c-1.556.01-5.11-.012-6.66.039-.46.042-1.016.206-1.155.71-.219.635-.108 1.334-.146 1.982-.008 2.297-.023 8.596.022 10.886.039.462.202 1.012.699 1.163.632.225 1.284.123 1.936.155 1.424.006 4.85.01 6.276.01 1.704.001 3.408-.004 5.107-.018.512-.012 1.184.02 1.585-.405.421-.54.287-1.268.323-1.904.011-2.444.027-8.91-.022-11.357-.05-.402-.17-.863-.575-1.044-.669-.294-1.427-.168-2.126-.206A715.985 715.985 0 0021.983 4z" fill="#d85eca"/><path d="M18.983 8.973l-3 6h11l-3.5-4-1.5 2z" style="marker:none" color="#000" overflow="visible" fill="#fff"/><path d="M26.983 8.388a1.5 1.5 0 01-1.422 1.574 1.5 1.5 0 01-1.574-1.421 1.5 1.5 0 011.422-1.575 1.5 1.5 0 011.574 1.422" fill="#fff"/><path d="M7 13v-2h5V9l5 3-5 3v-2z" style="marker:none" color="#000" overflow="visible" opacity=".6" fill="#020400" stroke="#000" stroke-width="2" stroke-linecap="round" stroke-linejoin="round"/><path style="marker:none" d="M7 13v-2h5V9c.832.392 3.244 1.833 5 3-1.756 1.167-4.168 2.608-5 3v-2z" color="#000" overflow="visible" fill="#fff"/></svg>