<svg xmlns="http://www.w3.org/2000/svg" viewBox="0 0 24 24"><path d="M0 18v4c0 2 1 2 3 2h3v-6z" fill="#2daaaa"/><path fill="#46a926" d="M6 18h6v6H6z"/><path fill="#fdc92b" d="M12 18h6v6h-6z"/><path d="M18 18v6h3c2 0 3 0 3-2v-4z" fill="#f34f17"/><path fill="#31c6b7" d="M0 12h6v6H0z"/><path fill="#76c22b" d="M6 12h6v6H6z"/><path fill="#ffda64" d="M12 12h6v6h-6z"/><path fill="#fb7c38" d="M18 12h6v6h-6z"/><path fill="#5bdbc1" d="M0 6h6v6H0z"/><path fill="#a6d74f" d="M6 6h6v6H6z"/><path fill="#fee581" d="M12 6h6v6h-6z"/><path fill="#fda463" d="M18 6h6v6h-6z"/><path d="M3 0C1 0 0 0 0 2v4h6V0z" fill="#81e9c0"/><path fill="#cbe667" d="M6 0h6v6H6z"/><path fill="#fff4c9" d="M12 0h6v6h-6z"/><path d="M18 0v6h6V2c0-2-1-2-3-2z" fill="#fec589"/><path d="M6 4v2h5v11h2V6h5V4z" fill="#232629"/></svg>