<svg xmlns="http://www.w3.org/2000/svg" xmlns:xlink="http://www.w3.org/1999/xlink" viewBox="0 0 24 24"><defs><linearGradient id="a" gradientUnits="userSpaceOnUse" spreadMethod="pad" x1="63.999" x2="63.999" y1="21.941" y2="104.059"><stop offset="0" stop-color="#dadada"/><stop offset="1" stop-color="#ccc"/></linearGradient><linearGradient id="b" gradientUnits="userSpaceOnUse" spreadMethod="pad" x1="64" x2="64" xlink:href="#a" y1="21.523" y2="103.067"><stop offset="0" stop-color="#d9d9d9"/><stop offset="1" stop-color="#ccc"/></linearGradient></defs><path d="M21.785 9.653h-.828a.642.642 0 01-.554-.398L19.89 8.01c-.105-.21-.054-.525.104-.683l.586-.586a.711.711 0 00.209-.506.711.711 0 00-.21-.506l-2.306-2.306a.71.71 0 00-.506-.21.71.71 0 00-.506.21l-.585.586a.64.64 0 01-.672.108l-1.247-.515c-.223-.075-.409-.333-.409-.557v-.829a.717.717 0 00-.716-.716H10.37a.717.717 0 00-.715.716v.829a.642.642 0 01-.398.553l-1.247.514c-.21.105-.525.054-.683-.103l-.586-.586a.71.71 0 00-.506-.21.71.71 0 00-.506.21L3.422 5.728a.716.716 0 000 1.012l.586.586a.64.64 0 01.108.672l-.515 1.247c-.075.223-.334.409-.557.409H2.43c-.395 0-.93.32-.93.715v3.262c0 .395.32.716.715.716h.829c.224 0 .482.186.553.398l.514 1.246c.105.21.055.525-.103.683l-.586.586a.716.716 0 000 1.012l2.307 2.306a.71.71 0 00.506.21.71.71 0 00.506-.21l.585-.585a.64.64 0 01.672-.11c.011.006 1.247.516 1.247.516.223.075.409.333.409.557v.829c0 .395.32.716.715.716h3.262a.716.716 0 00.716-.716v-.829c0-.224.186-.482.398-.553l1.246-.514c.211-.105.525-.054.683.103l.586.586a.71.71 0 00.506.21.71.71 0 00.506-.21l2.306-2.306a.71.71 0 00.21-.506.71.71 0 00-.21-.506l-.586-.586a.64.64 0 01-.108-.672l.515-1.246c.075-.223.334-.41.557-.41h.829a.716.716 0 00.715-.715v-3.262a.716.716 0 00-.715-.716z" fill="#b3b3b3" stroke="#6d6d6d" stroke-width=".999" stroke-linecap="round" stroke-linejoin="round"/><circle cx="12" cy="12" r="3" fill="#6d6d6d" fill-rule="evenodd"/><circle cx="12" cy="12" r="2" fill="#fff" fill-rule="evenodd"/></svg>