<svg xmlns="http://www.w3.org/2000/svg" viewBox="0 0 24 24"><path d="M6.059 9L1.885 21h2.008l1-3H9.23l1 3h2L8 9H6.23zm7 0v12h6a3.5 3.5 0 003.5-3.5 3.5 3.5 0 00-2.434-3.33 3 3 0 00.934-2.17 3 3 0 00-3-3h-4zm2 2h2.666a1.333 1.5 0 011.334 1.5 1.333 1.5 0 01-1.334 1.5h-2.666zm-7.996.492L8.563 16H5.561zM15.059 16h3.666a1.833 1.5 0 011.834 1.5 1.833 1.5 0 01-1.834 1.5h-3.666z" opacity=".6" stroke="#000" stroke-width="2" stroke-linejoin="round"/><path d="M6.059 9L1.885 21h2.008l1-3H9.23l1 3h2L8 9H6.23zm1.003 2.492L8.565 16H5.561zM13.059 9v12h6a3.5 3.5 0 003.5-3.5 3.5 3.5 0 00-2.434-3.33 3 3 0 00.934-2.17 3 3 0 00-3-3h-4zm2 2h2.666a1.333 1.5 0 011.334 1.5 1.333 1.5 0 01-1.334 1.5h-2.666zm0 5h3.666a1.833 1.5 0 011.834 1.5 1.833 1.5 0 01-1.834 1.5h-3.666z" fill="#fff"/><path d="M15 6l3-4 3 4z" opacity=".6" stroke="#000" stroke-width="2" stroke-linejoin="round"/><path d="M15 6l3-4 3 4z" fill="#aee3f8"/></svg>