<svg xmlns="http://www.w3.org/2000/svg" viewBox="0 0 24 24"><circle cx="12" cy="12" r="9" fill="#fa9381"/><path d="M12 7c-2.761 0-5 1.959-5 4.375.004 1.567.965 3.012 2.52 3.79l.195.585h-2.09c-.496-.133-.604-.413-.625-.547V17h4.004v-1.504l-.332-.137c-1.095-.668-1.795-2.099-1.797-3.671 0-2.244 1.4-4.063 3.125-4.063 1.726 0 3.125 1.819 3.125 4.063-.002 1.572-.702 3.003-1.797 3.671l-.332.137V17H17v-1.797c-.02.134-.129.414-.625.547h-2.09l.195-.586c1.555-.777 2.516-2.222 2.52-3.789C17 8.959 14.761 7 12 7z" fill="#fff"/><circle cy="18.5" cx="18.5" r="3.5" fill="#46a926"/><path overflow="visible" font-weight="400" style="line-height:normal;text-indent:0;text-align:start;text-decoration-line:none;text-decoration-style:solid;text-decoration-color:#000;text-transform:none;white-space:normal;isolation:auto;mix-blend-mode:normal;marker:none" d="M18 16v2h-2v1h2v2h1v-2h2v-1h-2v-2z" color="#000" font-family="sans-serif" fill="#fff"/></svg>