<svg xmlns="http://www.w3.org/2000/svg" viewBox="0 0 24 24"><rect ry="0" y="11" x="10" height="2" width="4" fill="#fff" fill-rule="evenodd"/><rect width="4" height="2" x="17" y="11" ry="0" fill="#fff" fill-rule="evenodd"/><rect width="4" height="2" x="10" y="17" ry="0" fill="#fff" fill-rule="evenodd"/><rect ry="0" y="17" x="17" height="2" width="4" fill="#fff" fill-rule="evenodd"/><path d="M9 4v4.094h6V4zm1 1h4v2h-4zM9 16v4.094h6V16zm1 1h4v2h-4z" fill="#c7162b"/><path d="M9 10v4.094h6V10zm1 1h4v2h-4z" fill="#232629"/><path d="M16 4v4.094h6V4zm1 1h4v2h-4zM16 16v4.094h6V16zm1 1h4v2h-4z" fill="#c7162b"/><path d="M16 10v4.094h6V10zm1 1h4v2h-4z" fill="#232629"/><rect width="4" height="2" x="10" y="5" ry="0" fill="#fff" fill-rule="evenodd"/><rect ry="0" y="5" x="17" height="2" width="4" fill="#fff" fill-rule="evenodd"/><circle cy="11.5" cx="4.5" r="3.5" fill="#46a926"/><path overflow="visible" font-weight="400" style="line-height:normal;text-indent:0;text-align:start;text-decoration-line:none;text-decoration-style:solid;text-decoration-color:#000;text-transform:none;white-space:normal;isolation:auto;mix-blend-mode:normal;marker:none" d="M4 9v2H2v1h2v2h1v-2h2v-1H5V9z" color="#000" font-family="sans-serif" fill="#fff"/><circle r="3.5" cx="4.5" cy="17.5" fill="#46a926"/><path d="M4 15v2H2v1h2v2h1v-2h2v-1H5v-2z" style="line-height:normal;text-indent:0;text-align:start;text-decoration-line:none;text-decoration-style:solid;text-decoration-color:#000;text-transform:none;white-space:normal;isolation:auto;mix-blend-mode:normal;marker:none" font-weight="400" overflow="visible" color="#000" font-family="sans-serif" fill="#fff"/></svg>