<svg xmlns="http://www.w3.org/2000/svg" viewBox="0 0 24 24"><path d="M6.003 3c-1.259.014-2.18-.03-2.932.385a1.88 1.88 0 00-.838.998c-.165.438-.225.96-.225 1.617v12c0 .658.06 1.179.225 1.617.165.439.462.789.838.996.753.415 1.674.372 2.932.387h11.994c1.259-.015 2.18.03 2.932-.385a1.88 1.88 0 00.838-.998c.164-.438.224-.96.224-1.617V6c0-.658-.06-1.179-.224-1.617a1.875 1.875 0 00-.838-.996c-.753-.415-1.674-.372-2.932-.387H6.006z" style="line-height:125%;-inkscape-font-specification:Ubuntu;text-align:center" font-weight="400" font-size="15" font-family="Ubuntu" letter-spacing="0" word-spacing="0" text-anchor="middle" opacity=".6"/><path d="M9 4c-1.557.01-3.11-.012-4.66.039-.461.042-1.016.206-1.155.71-.22.635-.109 1.334-.146 1.982-.008 2.297-.023 9.596.021 11.885.04.462.203 1.013.7 1.164.632.225 1.283.123 1.935.154 1.424.007 4.85.011 6.277.012 1.704 0 5.408-.005 7.107-.019.512-.012 1.183.02 1.585-.405.42-.54.287-2.268.322-2.904.012-2.444.028-8.91-.022-11.357-.049-.402-.17-.863-.575-1.044-.668-.294-1.426-.168-2.126-.206A2217.75 2217.75 0 009 4z" fill="#80a3fa"/><path d="M6 6v1H5v1h1v8H5v1h1v1h1v-1h10v1h1v-1h1v-1h-1V8h1V7h-1V6h-1v1H7V6zm1 2h10v8h-1v-4h-2v4h-1v-2h-2v2h-1v-6H8v6H7z" fill="#fff"/><path fill="#fff" fill-rule="evenodd" d="M14 15h9v7h-9z"/><path d="M13 16v5c0 2 1 2 3 2h5c2 0 3 0 3-2v-5c0-2-1-2-3-2h-5c-2 0-3 0-3 2zm3-1h2v3h-4v-2c0-1 1-1 2-1zm3 0h2c1 0 2 0 2 1v2h-4zm-5 4h4v3h-2c-1 0-2 0-2-1zm5 0h4v2c0 .858-1 1-2 1h-2z" fill="#6d6d6d"/></svg>