<svg xmlns="http://www.w3.org/2000/svg" viewBox="0 0 24 24"><rect width="10" height="10" x="12" y="12" ry="0" fill="#fff" fill-rule="evenodd"/><path d="M6.994 3c-1.258.014-2.179-.03-2.932.384a1.88 1.88 0 00-.837.999C3.06 4.82 3 5.343 3 6v12c0 .658.06 1.179.225 1.617.164.44.461.789.837.997.753.415 1.674.371 2.932.386h10.012c1.258-.014 2.179.03 2.932-.384a1.88 1.88 0 00.837-.999c.165-.438.225-.96.225-1.617V6c0-.658-.06-1.179-.225-1.617a1.875 1.875 0 00-.837-.997c-.753-.415-1.674-.371-2.932-.386H6.998z" style="line-height:125%;-inkscape-font-specification:Ubuntu;text-align:center" font-weight="400" font-size="15" font-family="Ubuntu" letter-spacing="0" word-spacing="0" text-anchor="middle" opacity=".6"/><path d="M11.983 4.027c-1.556.01-5.11-.012-6.66.039-.46.042-1.016.206-1.155.71-.219.635-.108 1.333-.146 1.982-.008 2.297-.023 9.596.022 11.885.039.462.202 1.013.699 1.164.632.225 1.284.123 1.936.154 1.424.007 4.85.011 6.276.012 1.704 0 3.408-.005 5.107-.019.512-.012 1.184.02 1.585-.405.421-.54.287-1.268.323-1.904.011-2.444.027-9.911-.022-12.357-.05-.402-.17-.863-.575-1.044-.669-.294-1.427-.168-2.126-.206a715.985 715.985 0 00-5.264-.011z" fill="#fff"/><path fill="#fff" fill-rule="evenodd" d="M12 12h10v10H12z"/><path fill="#a6d74f" fill-rule="evenodd" d="M12 12h10v2H12z"/><path d="M11 13v8c0 2 1 2 3 2h6c2 0 3 0 3-2v-8c0-2-1-2-3-2h-6c-2 0-3 0-3 2zm1 0c0-1 1-1 2-1h1v2h-3zm4-1h2v2h-2zm3 0h1c1 0 2 0 2 1v1h-3zm-7 3h3v3h-3zm4 0h2v3h-2zm3 0h3v3h-3zm-7 4h3v3h-1c-1 0-2 0-2-1zm4 0h2v3h-2zm3 0h3v2c0 1-1 1-2 1h-1z" fill="#6d6d6d"/></svg>