<svg xmlns="http://www.w3.org/2000/svg" viewBox="0 0 24 24"><path d="M11 4v2h4v9h2V6h4V4z" opacity=".7" stroke="#000" stroke-width="2" stroke-linejoin="round"/><path d="M11 4v2h4v9h2V6h4V4z" fill="#fff"/><path style="line-height:normal;font-variant-ligatures:normal;font-variant-position:normal;font-variant-caps:normal;font-variant-numeric:normal;font-variant-alternates:normal;font-variant-east-asian:normal;font-feature-settings:normal;font-variation-settings:normal;text-indent:0;text-align:start;text-decoration-line:none;text-decoration-style:solid;text-decoration-color:#000;text-transform:none;text-orientation:mixed;white-space:normal;shape-padding:0;shape-margin:0;inline-size:0;isolation:auto;mix-blend-mode:normal;solid-color:#000;solid-opacity:1" d="M8.929 8c-.515 0-1.029.193-1.414.578L5.394 10.7a2.018 2.018 0 000 2.828l5.656 5.657a2.018 2.018 0 002.828 0l2.123-2.122c.209-.208.355-.455.451-.718v-1.39a1.95 1.95 0 00-.451-.72l-5.658-5.656A1.994 1.994 0 008.929 8zm0 1.992l5.658 5.656-2.123 2.122-5.656-5.657z" color="#000" font-weight="400" font-family="sans-serif" overflow="visible" opacity=".7" fill-rule="evenodd"/><path d="M7.515 9.992l-.707-.707c-1.415-1.414-2.122-.707-2.829 0L2.565 10.7c-.707.707-1.414 1.415 0 2.829l2.828 2.828c.708.707.708.707 0 1.414l.708.707c.707-.707 1.414-1.414 0-2.828l-2.829-2.828c-.707-.707-.707-.707 0-1.415l1.414-1.414c.707-.707.707-.707 1.415 0l.707.707.707-.707" fill="#6d6d6d"/><path d="M6.1 18.477l-.707-.707c-.707-.707-.707-.707-2.828 1.415l-.707.707c-1.415 1.414-1.415 1.414-.707 2.12l.707.708c.707.707.707.707 2.121-.707l.707-.707c2.122-2.121 2.122-2.121 1.415-2.829z" fill="#fa9381"/><rect ry="1" y="-.248" x="-22.379" height="5" width="10" rx="1" transform="scale(-1 1) rotate(-45)" fill="#fff" fill-rule="evenodd"/></svg>