<svg xmlns="http://www.w3.org/2000/svg" viewBox="0 0 24 24"><path fill="#fff" d="M19 5H5v14h14z"/><path d="M20 6c0-2-1-2-3-2H7C5 4 4 4 4 6v12c0 2 1 2 3 2h10c2 0 3 0 3-2V9zm-1 0v3h-2V5c1 0 2 .056 2 1zm0 4v4h-2v-4zm0 5v3c0 .944-1 1-2 1v-4zM16 5v4h-2V5zm0 5v4h-2v-4zm0 5v4h-2v-4zM13 5v4h-2V5zm0 5v4h-2v-4zm0 5v4h-2v-4zM10 5v4H8V5zm0 5v4H8v-4zm0 5v4H8v-4zM7 5v4H5V6c0-1 1-1 2-1zm0 5v4H5v-4zm0 5v4c-1 0-2 0-2-1v-3z" fill="#6d6d6d"/><path fill="#fad1d6" fill-rule="evenodd" d="M19 10v4H5v-4z"/><path d="M20 9H4v6h16zm-1 1v4h-2v-4zm-3 0v4h-2v-4zm-3 0v4h-2v-4zm-3 0v4H8v-4zm-3 0v4H5v-4z" fill="#c7162b" fill-rule="evenodd"/><circle cy="18.5" cx="18.5" r="3.5" fill="#c7162b"/><path overflow="visible" font-weight="400" style="line-height:normal;text-indent:0;text-align:start;text-decoration-line:none;text-decoration-style:solid;text-decoration-color:#000;text-transform:none;white-space:normal;isolation:auto;mix-blend-mode:normal;marker:none" d="M19.914 16.379L18.5 17.793l-1.414-1.414-.707.707 1.414 1.414-1.414 1.414.707.707 1.414-1.414 1.414 1.414.707-.707-1.414-1.414 1.414-1.414z" color="#000" font-family="sans-serif" fill="#fff"/></svg>