<svg xmlns="http://www.w3.org/2000/svg" viewBox="0 0 24 24"><path fill="#fff" d="M19 19H5V5h14z"/><path d="M18 4H6C4 4 4 5 4 7v10c0 2 0 3 2 3h12c2 0 2-1 2-3V7c0-2 0-3-2-3zm1 3v2h-2V5h1c1 0 1 1 1 2zm0 3v4h-2v-4zm0 5v2c0 1 0 2-1 2h-1v-4h1.1zM16 5v4h-1v1h1v4h-1v1h1v4H8v-4h1v-1H8v-4h1V9H8V5h7zM7 5v4H5V7c0-1 0-2 1-2zm0 5v4H5v-4h1zm0 5v4H6c-1 0-1-1-1-2v-2h1z" fill="#6d6d6d"/><path d="M15 5h-1v.293l-4 4V5H9v14h1v-.293l4-4V19h1zm-1 1.707v2.586l-4 4v-2.586zm0 4v2.586l-4 4v-2.586z" fill="#c7162b"/><circle cy="18.5" cx="18.5" r="3.5" fill="#c7162b"/><path overflow="visible" font-weight="400" style="line-height:normal;text-indent:0;text-align:start;text-decoration-line:none;text-decoration-style:solid;text-decoration-color:#000;text-transform:none;white-space:normal;isolation:auto;mix-blend-mode:normal;marker:none" d="M19.914 16.379L18.5 17.793l-1.414-1.414-.707.707 1.414 1.414-1.414 1.414.707.707 1.414-1.414 1.414 1.414.707-.707-1.414-1.414 1.414-1.414z" color="#000" font-family="sans-serif" fill="#fff"/></svg>