<svg xmlns="http://www.w3.org/2000/svg" viewBox="0 0 24 24"><path d="M19 4v4h-2V6h-6V4zm0 12v4h-8v-2h6v-2z" fill="#6d6d6d"/><rect width="4" height="2" x="-8" y="11" ry="0" transform="scale(-1 1)" fill="#fff" fill-rule="evenodd"/><rect ry="0" y="17" x="-8" height="2" width="4" transform="scale(-1 1)" fill="#fff" fill-rule="evenodd"/><path d="M9 4v4.094H3V4zM8 5H4v2h4zM9 16v4.094H3V16zm-1 1H4v2h4zM9 10v4.094H3V10zm-1 1H4v2h4z" fill="#232629"/><rect ry="0" y="5" x="-8" height="2" width="4" transform="scale(-1 1)" fill="#fff" fill-rule="evenodd"/><rect transform="scale(-1 1)" ry="0" y="11" x="-20" height="2" width="4" fill="#fff" fill-rule="evenodd"/><path d="M21 10v4.094h-6V10zm-1 1h-4v2h4z" fill="#c7162b"/></svg>