<svg xmlns="http://www.w3.org/2000/svg" viewBox="0 0 24 24"><path d="M2 6v12c0 1.662 1.338 3 3 3h14c1.662 0 3-1.338 3-3V6z" opacity=".6" fill-rule="evenodd" stroke="#000" stroke-width="2" stroke-linejoin="round"/><path fill="#6d6d6d" fill-rule="evenodd" d="M0 3h24v3H0z"/><path d="M2 6v12c0 1.662 1.338 3 3 3h14c1.662 0 3-1.338 3-3V6z" fill="#fff" fill-rule="evenodd"/><path fill="#1a7fd4" fill-rule="evenodd" d="M4 9h5v2H4z"/><path fill="#c7162b" fill-rule="evenodd" d="M4 12h5v2H4z"/><path fill="#46a926" fill-rule="evenodd" d="M4 15h5v2H4zM20 13.5a4.5 4.5 0 01-2.778 4.158 4.5 4.5 0 01-4.904-.976 4.5 4.5 0 01-.975-4.904A4.5 4.5 0 0115.5 9v4.5z"/><path d="M15.5 9a4.5 4.5 0 014.5 4.5h-4.5z" fill="#c7162b" fill-rule="evenodd"/><path d="M10.486 1l-.1 2.48-1.597.834-.5-.28-.02-1.477-1.043.963-1.411-.44.593 1.293-.855 1.205 1.414-.164L7.85 6.6l.28-1.397.737-.25 1.563.58.43 2.54 1.54-1.946 2.547.375-1.375-2.066 1.143-2.306-2.387.67zM4.963 5.367l-.813.75-1.093-.344.46 1.006-.663.933 1.097-.127.685.92.217-1.084 1.087-.365-.963-.54-.014-1.15zm3.713.893L7.492 7.35l-1.596-.498.672 1.462-.964 1.362L7.2 9.49l.997 1.34.317-1.578 1.584-.533-1.405-.79-.017-1.67zm-6.22 1.586l-.298 1.12L1 9.275l.97.628-.06 1.2.897-.73 1.123.43-.418-1.08.754-.935-1.155.064-.655-1.008z" opacity=".6" stroke="#000" stroke-width="2" stroke-linejoin="round"/><path d="M10.486 1l-.1 2.48-1.597.834-.5-.28-.02-1.477-1.043.963-1.411-.44.593 1.293-.855 1.205 1.414-.164L7.85 6.6l.28-1.397.737-.25 1.563.58.43 2.54 1.54-1.946 2.547.375-1.375-2.066 1.143-2.306-2.387.67zM4.963 5.367l-.813.75-1.093-.344.46 1.006-.663.933 1.097-.127.685.92.217-1.084 1.087-.365-.963-.54-.014-1.15zm3.713.893L7.492 7.35l-1.596-.498.672 1.462-.964 1.362L7.2 9.49l.997 1.34.317-1.578 1.584-.533-1.405-.79-.017-1.67zm-6.22 1.586l-.298 1.12L1 9.275l.97.628-.06 1.2.897-.73 1.123.43-.418-1.08.754-.935-1.155.064-.655-1.008z" fill="#fa9381"/></svg>