<svg xmlns="http://www.w3.org/2000/svg" viewBox="0 0 24 24"><path fill="#fad1d6" d="M5 5h14v14H5z"/><path d="M7 4C5 4 4 4 4 6v12c0 2 1 2 3 2h10c2 0 3 0 3-2V6c0-2-1-2-3-2zM5 6c0-1 1-1 2-1h2v2H5zm5-1h4v2h-4V6zm5 0h2c1 0 2 0 2 1v1h-4V6zM5 8h4v2H5zm5 0h4v2h-4zm5 0h4v2h-4zM5 11h4v2H5zm5 0h4v2h-4zm5 0h4v2h-4zM5 14h4v2H5zm5 0h4v2h-4zm5 0h4v2h-4zM5 17h4v2H7c-1 0-2 0-2-1zm5 0h4v2h-4zm5 0h4v1c0 1-1 1-2 1h-2z" fill="#c7162b"/><circle cy="18.5" cx="18.5" r="3.5" fill="#c7162b"/><path overflow="visible" font-weight="400" style="line-height:normal;text-indent:0;text-align:start;text-decoration-line:none;text-decoration-style:solid;text-decoration-color:#000;text-transform:none;white-space:normal;isolation:auto;mix-blend-mode:normal;marker:none" d="M19.914 16.379L18.5 17.793l-1.414-1.414-.707.707 1.414 1.414-1.414 1.414.707.707 1.414-1.414 1.414 1.414.707-.707-1.414-1.414 1.414-1.414z" color="#000" font-family="sans-serif" fill="#fff"/></svg>