<svg xmlns="http://www.w3.org/2000/svg" viewBox="0 0 24 24"><path d="M12 4c-4.418 0-8 .895-8 2v12c0 1.105 3.582 2 8 2s8-.895 8-2V6c0-1.105-3.582-2-8-2z" fill="#f2cbf8"/><path d="M12 4c-4.418 0-8 .895-8 2v12c0 1.105 3.582 2 8 2s8-.895 8-2V6c0-1.105-3.582-2-8-2zm0 1c3.866 0 7 .448 7 1s-3.134 1-7 1-7-.448-7-1 3.134-1 7-1zM5 6.937C6.353 7.562 8.958 8 12 8s5.647-.438 7-1.063V10c0 .552-3.134 1-7 1s-7-.448-7-1v-.938zm0 4C6.353 11.563 8.958 12 12 12s5.647-.438 7-1.063V14c0 .552-3.134 1-7 1s-7-.448-7-1zm0 4C6.353 15.563 8.958 16 12 16s5.647-.438 7-1.063V18c0 .552-3.134 1-7 1s-7-.448-7-1z" fill="#8e03a3"/><circle cy="18.5" cx="18.5" r="3.5" fill="#46a926"/><path overflow="visible" font-weight="400" style="line-height:normal;text-indent:0;text-align:start;text-decoration-line:none;text-decoration-style:solid;text-decoration-color:#000;text-transform:none;white-space:normal;isolation:auto;mix-blend-mode:normal;marker:none" d="M18 16v2h-2v1h2v2h1v-2h2v-1h-2v-2z" color="#000" font-family="sans-serif" fill="#fff"/></svg>