<svg xmlns="http://www.w3.org/2000/svg" viewBox="0 0 24 24"><rect width="3" height="3" x="1.942" y="4.022" ry="1.5" rx="1.5" fill="#e95420" fill-rule="evenodd"/><rect width="3" height="3" x="2" y="10" ry="1.5" rx="1.5" fill="#e95420" fill-rule="evenodd"/><path fill="#fff" fill-rule="evenodd" d="M7 8h10V7H7z"/><path fill="#232629" fill-rule="evenodd" d="M7 7h10V6H7z"/><path fill="#fff" fill-rule="evenodd" d="M7 6h14V5H7z"/><path fill="#232629" fill-rule="evenodd" d="M7 5h14V4H7z"/><path fill="#fff" fill-rule="evenodd" d="M7 14h10v-1H7z"/><path fill="#232629" fill-rule="evenodd" d="M7 13h10v-1H7z"/><path fill="#fff" fill-rule="evenodd" d="M7 12h14v-1H7z"/><path fill="#232629" fill-rule="evenodd" d="M7 11h14v-1H7z"/><rect width="3" height="3" x="2" y="16" ry="1.5" rx="1.5" fill="#e95420" fill-rule="evenodd"/><path fill="#fff" fill-rule="evenodd" d="M7 20h10v-1H7z"/><path fill="#232629" fill-rule="evenodd" d="M7 19h10v-1H7z"/><path fill="#fff" fill-rule="evenodd" d="M7 18h14v-1H7z"/><path fill="#232629" fill-rule="evenodd" d="M7 17h14v-1H7z"/></svg>