<svg xmlns="http://www.w3.org/2000/svg" viewBox="0 0 24 24"><path opacity=".6" stroke="#000" stroke-width="2" stroke-linejoin="round" d="M4 3h16v18H4z"/><path fill="#fff" d="M4 3h16v18H4z"/><path opacity=".6" d="M5 4h1v1H5zM5 7h1v1H5zM5 10h1v1H5zM5 13h1v1H5zM5 16h1v1H5zM5 19h1v1H5zM18 4h1v1h-1zM18 7h1v1h-1zM18 10h1v1h-1zM18 13h1v1h-1zM18 16h1v1h-1zM18 19h1v1h-1z"/><path fill="#232629" d="M7 7h10v1H7zM7 10h10v1H7zM7 13h10v1H7zM7 16h10v1H7z"/><g stroke-width="27.2"><path d="M17.567 20.553L13.267 24l.836-5.447.264-.456 3.464 2z" fill="#fec589"/><path style="marker:none" d="M13.472 22.696L13.268 24l1.027-.829c-.004.008-.823-.475-.823-.475z" color="#000" overflow="visible" fill="#5d5d5d"/><path d="M14.103 18.553s3.465 2.088 3.464 2L24 9.412l-3.464-2z" fill="#2f5fdd"/></g></svg>