<svg xmlns="http://www.w3.org/2000/svg" viewBox="0 0 24 24"><path d="M6 4L5 5v1.305l5 7.062v3.673L13.99 20H14v-6.633l5-7.062V5l-1-1z" opacity=".7" stroke="#000" stroke-width="2" stroke-linejoin="round"/><path d="M6 4L5 5v1.305l5 7.062v3.673L13.99 20H14v-6.633l5-7.062V5l-1-1z" fill="#fff"/><path d="M16.563 14.719L15.78 16H13v1h2.188l-.594 1H13v1h1l-.438.719.876.531.75-1.25H18v-1h-2.219l.594-1H18v-1h-1l.438-.75z" opacity=".7" stroke="#000" stroke-width="2" stroke-linejoin="round"/><path d="M16.563 14.719L15.78 16H13v1h2.188l-.594 1H13v1h1l-.438.719.876.531.75-1.25H18v-1h-2.219l.594-1H18v-1h-1l.438-.75z" fill="#aee3f8"/></svg>