<svg xmlns="http://www.w3.org/2000/svg" viewBox="0 0 24 24"><path opacity=".6" fill-rule="evenodd" stroke="#000" stroke-width="2" stroke-linejoin="round" d="M15 10h5v9h-5z"/><path fill="#fff" fill-rule="evenodd" d="M15 10h5v9h-5z"/><path opacity=".6" fill-rule="evenodd" stroke="#000" stroke-width="2" stroke-linejoin="round" d="M4 5h5v14H4z"/><path fill="#fff" fill-rule="evenodd" d="M4 5h5v14H4z"/><path fill="#e95420" d="M18 2v2h-1V2zM18 5v2h-1V5zM18 8v2h-1V8zM18 11v2h-1v-2zM18 14v2h-1v-2zM18 17v2h-1v-2zM18 20v2h-1v-2zM7 2v2H6V2zM7 5v2H6V5zM7 8v2H6V8zM7 11v2H6v-2zM7 14v2H6v-2zM7 17v2H6v-2zM7 20v2H6v-2z"/></svg>