<svg xmlns="http://www.w3.org/2000/svg" viewBox="0 0 24 24"><path d="M15.5 5a8.5 7.5 0 00-8.318 6H5v1h2.02a8.5 7.5 0 00-.02.5 8.5 7.5 0 00.03.5H5v1h2.172a8.5 7.5 0 008.328 6 8.5 7.5 0 002.756-.414l-.735-1.865A6.5 5.5 0 0115.5 18a6.5 5.5 0 01-6.252-4H14v-1H9.031A6.5 5.5 0 019 12.5a6.5 5.5 0 01.03-.5H15v-1H9.254A6.5 5.5 0 0115.5 7a6.5 5.5 0 011.455.145l.518-1.93A8.5 7.5 0 0015.5 5z" opacity=".6" stroke="#000" stroke-width="2" stroke-linejoin="round"/><path d="M15.5 5a8.5 7.5 0 00-8.318 6H5v1h2.02a8.5 7.5 0 00-.02.5 8.5 7.5 0 00.03.5H5v1h2.172a8.5 7.5 0 008.328 6 8.5 7.5 0 002.756-.414l-.735-1.865A6.5 5.5 0 0115.5 18a6.5 5.5 0 01-6.252-4H14v-1H9.031A6.5 5.5 0 019 12.5a6.5 5.5 0 01.03-.5H15v-1H9.254A6.5 5.5 0 0115.5 7a6.5 5.5 0 011.455.145l.518-1.93A8.5 7.5 0 0015.5 5z" fill="#fff"/></svg>