<svg xmlns="http://www.w3.org/2000/svg" viewBox="0 0 24 24"><path d="M4 12v1h16v-1z" stroke="#000" opacity=".7" stroke-width="2" stroke-linejoin="round"/><path d="M4 12v1h16v-1z" fill="#fff"/><path d="M16 4l-3 4h2v7c0 1.657-1.567 3-3.5 3S8 16.657 8 15v-1H6v1c0 2.761 2.462 5 5.5 5s5.5-2.239 5.5-5V8h2z" opacity=".7" stroke="#000" stroke-width="2" stroke-linejoin="round"/><path d="M6 14v1c0 2.761 2.462 5 5.5 5s5.5-2.239 5.5-5h-2c0 1.657-1.567 3-3.5 3S8 16.657 8 15v-1z" fill="#e97cc8"/><path d="M16 4l-3 4h2v7h2V8h2l-3-4z" fill="#e97cc8"/></svg>