<svg xmlns="http://www.w3.org/2000/svg" viewBox="0 0 24 24"><path d="M12 4h-1v16h1z" opacity=".6" stroke="#000" stroke-width="2" stroke-linejoin="round"/><path d="M12 4h-1v16h1z" fill="#fff"/><path d="M20 16l-4-3v2H9c-1.657 0-3-1.567-3-3.5S7.343 8 9 8h1V6H9c-2.761 0-5 2.462-5 5.5S6.239 17 9 17h7v2z" opacity=".6" stroke="#000" stroke-width="2" stroke-linejoin="round"/><path d="M10 6H9c-2.761 0-5 2.462-5 5.5S6.239 17 9 17v-2c-1.657 0-3-1.567-3-3.5S7.343 8 9 8h1z" fill="#e97cc8"/><path d="M20 16l-4-3v2H9v2h7v2z" fill="#e97cc8"/></svg>