<svg xmlns="http://www.w3.org/2000/svg" height="24" width="24"><path d="M6.994 3c-1.258.014-2.179-.031-2.931.384a1.88 1.88 0 00-.838.998C3.06 4.821 3 5.342 3 6V18c0 .658.06 1.179.225 1.617.164.439.461.789.838.996.752.415 1.673.372 2.931.387h10.012c1.258-.015 2.179.03 2.932-.385a1.88 1.88 0 00.837-.998c.165-.438.225-.96.225-1.617V5.999c0-.657-.06-1.178-.225-1.617a1.875 1.875 0 00-.837-.996c-.753-.415-1.674-.372-2.932-.387H6.998z" style="line-height:125%;-inkscape-font-specification:Ubuntu;text-align:center" font-weight="400" font-size="15" font-family="Ubuntu" letter-spacing="0" word-spacing="0" text-anchor="middle" opacity=".6"/><path d="M11.983 4.027c-1.556.01-5.11-.012-6.66.038-.46.043-1.016.207-1.155.71-.219.636-.108 1.334-.146 1.982-.008 2.297-.023 9.597.022 11.886.039.462.202 1.013.699 1.164.632.225 1.284.122 1.936.154 1.424.007 4.85.011 6.276.011 1.704 0 3.408-.005 5.107-.018.512-.012 1.184.02 1.585-.405.421-.54.287-1.268.323-1.904.012-2.444.027-9.911-.022-12.357-.05-.402-.17-.863-.575-1.044-.669-.295-1.427-.168-2.126-.206a715.83 715.83 0 00-5.264-.011z" fill="#fff"/><path d="M10 11h5V8s3 1 7 4c-4 3-7 4-7 4v-3h-5z" opacity=".6" stroke="#000" stroke-width="2" stroke-linecap="round" stroke-linejoin="round"/><path d="M10 11h5V8s3 1 7 4c-4 3-7 4-7 4v-3h-5z" fill="#e97cc8"/><path d="M5.299 12.5c-.165 0-.299.211-.299.475v.763h-.098l-1.123.48-.072.075-.553-.553c-.186-.186-.43-.242-.547-.125l-.992.992c-.117.117-.06.361.125.547l.553.553-.074.072-.48 1.123V17H.974c-.264 0-.475.134-.475.299V18.7c0 .165.211.299.475.299h.763v.105l.48 1.124.071.068-.549.549c-.186.186-.242.43-.125.547l.992.992c.117.117.361.06.547-.125l.55-.55.075.08 1.123.481H5v.754c0 .264.134.475.299.475H6.7c.165 0 .299-.211.299-.475v-.754h.105l1.124-.482.072-.074.545.545c.186.186.43.242.547.125l.992-.992c.117-.117.06-.361-.125-.547l-.545-.545.074-.072.482-1.124V19h.754c.264 0 .475-.134.475-.299V17.3c0-.165-.211-.299-.475-.299h-.754v-.098L9.79 15.78l-.078-.076.549-.549c.186-.186.242-.43.125-.547l-.992-.992c-.117-.117-.361-.06-.547.125l-.55.55-.067-.071-1.124-.48H7v-.764c0-.264-.134-.475-.299-.475zm.705 4c.83 0 1.504.674 1.504 1.504s-.675 1.504-1.504 1.504c-.83 0-1.504-.675-1.504-1.504 0-.83.674-1.504 1.504-1.504z" display="block" stroke-width=".999708" stroke-linejoin="round" fill="#b3b3b3" stroke="#6d6d6d"/><circle cx="6" cy="18" r="1" fill="#fff"/></svg>