<svg xmlns="http://www.w3.org/2000/svg" viewBox="0 0 24 24"><path d="M12 20h1V4h-1z" opacity=".6" stroke="#000" stroke-width="2" stroke-linejoin="round"/><path d="M12 20h1V4h-1z" fill="#fff"/><path d="M4 8l4 3V9h7c1.657 0 3 1.567 3 3.5S16.657 16 15 16h-1v2h1c2.761 0 5-2.462 5-5.5S17.761 7 15 7H8V5z" opacity=".6" stroke="#000" stroke-width="2" stroke-linejoin="round"/><path d="M14 18h1c2.761 0 5-2.462 5-5.5S17.761 7 15 7v2c1.657 0 3 1.567 3 3.5S16.657 16 15 16h-1z" fill="#e97cc8"/><path d="M4 8l4 3V9h7V7H8V5z" fill="#e97cc8"/></svg>