<svg xmlns="http://www.w3.org/2000/svg" viewBox="0 0 24 24"><path d="M10 5L5 19h3l1.455-4h5.09L16 19h3L14 5zm2 3l1.818 5h-3.636z" opacity=".6" stroke="#000" stroke-width="2" stroke-linejoin="round"/><path d="M10 5L5 19h3l1.455-4h5.09L16 19h3L14 5zm2 3l1.818 5h-3.636z" fill="#fff"/><g color="#000" font-weight="400" font-family="sans-serif" fill-rule="evenodd"><path d="M17 9v3h1.992a.451.451 0 00.008.025V19l-.008.025H17v3h2c.599 0 1.086-.2 1.5-.46.414.26.9.46 1.5.46h2v-3h-1.992L22 19v-6.975l.008-.025H24V9h-2c-.599 0-1.086.2-1.5.46A2.976 2.976 0 0019 9z" style="line-height:normal;font-variant-ligatures:normal;font-variant-position:normal;font-variant-caps:normal;font-variant-numeric:normal;font-variant-alternates:normal;font-feature-settings:normal;text-indent:0;text-align:start;text-decoration-line:none;text-decoration-style:solid;text-decoration-color:#000;text-transform:none;text-orientation:mixed;white-space:normal;shape-padding:0;isolation:auto;mix-blend-mode:normal;solid-color:#000;solid-opacity:1" overflow="visible" fill="#fff"/><path style="line-height:normal;font-variant-ligatures:normal;font-variant-position:normal;font-variant-caps:normal;font-variant-numeric:normal;font-variant-alternates:normal;font-feature-settings:normal;text-indent:0;text-align:start;text-decoration-line:none;text-decoration-style:solid;text-decoration-color:#000;text-transform:none;text-orientation:mixed;white-space:normal;shape-padding:0;isolation:auto;mix-blend-mode:normal;solid-color:#000;solid-opacity:1" d="M18 10v1h1c.583 0 .737.217.865.473.128.255.135.527.135.527v7.025s-.007.272-.135.528c-.128.255-.412.56-.865.472h-1v1h1c.727 0 1.19-.353 1.5-.738.31.385.773.738 1.5.738h1v-1h-1c-.584 0-.738-.217-.865-.472-.128-.256-.135-.528-.135-.528V12s.007-.272.135-.527c.128-.256.283-.428.865-.473h1v-1h-1c-.727 0-1.19.353-1.5.738-.31-.385-.775-.678-1.5-.738z" overflow="visible" fill="#111"/></g></svg>