<svg xmlns="http://www.w3.org/2000/svg" viewBox="0 0 24 24"><path style="line-height:normal;font-variant-ligatures:normal;font-variant-position:normal;font-variant-caps:normal;font-variant-numeric:normal;font-variant-alternates:normal;font-variant-east-asian:normal;font-feature-settings:normal;font-variation-settings:normal;text-indent:0;text-align:start;text-decoration-line:none;text-decoration-style:solid;text-decoration-color:#000;text-transform:none;text-orientation:mixed;white-space:normal;shape-padding:0;shape-margin:0;inline-size:0;isolation:auto;mix-blend-mode:normal;solid-color:#000;solid-opacity:1" d="M10 4a1 1 0 00-.941.664l-5 14A1 1 0 005 20h3a1 1 0 00.94-.658L10.155 16h3.688l.506 1.389.232-.563a1 1 0 000-.002c.242-.585.798-.822 1.385-.842l-.483-1.324a1 1 0 00-.94-.658h-.726a1 1 0 00.94-1.342l-1.819-5a1 1 0 00-1.878 0l-1.819 5a1 1 0 00.94 1.342h-.727a1 1 0 00-.94.658L7.3 18h-.881l4.287-12h2.59l3.154 8.828a1.3 1.3 0 01.363-.226l1.118-.463c.124-.052.245-.074.365-.086L14.94 4.664A1 1 0 0014 4h-4zm2 6.926L12.39 12h-.78l.39-1.074zm7.44 8.44c-.063.025-.114.148-.088.21.025.06.152.113.212.088.063-.026.114-.15.088-.21-.025-.061-.152-.114-.213-.089z" color="#000" font-weight="400" font-family="sans-serif" overflow="visible" opacity=".7"/><path d="M10 5L5 19h3l1.455-4h5.09l.47 1.293c.27-.197.601-.299.954-.31.018-.586.253-1.137.844-1.381l.537-.223L14 5h-4zm2 3l1.818 5h-3.636L12 8z" fill="#fff"/><circle cx="19.5" cy="19.5" r="1.5" fill="#fff" fill-rule="evenodd"/><g transform="translate(8 8)"><circle cx="11.5" cy="11.5" r="1.5" fill="#fff" fill-rule="evenodd"/><path d="M9.311 7.792a.244.244 0 00-.135.325l.273.657c-.26.195-.472.424-.662.678l-.674-.279a.248.248 0 00-.329.136l-.462 1.115a.248.248 0 00.137.329l.673.279a3.312 3.312 0 00-.011.948l-.657.272a.244.244 0 00-.135.325l.463 1.117c.054.13.194.189.325.135l.657-.272c.195.26.424.471.678.662l-.279.673a.248.248 0 00.136.329l1.115.462a.248.248 0 00.329-.136l.279-.674c.314.045.626.057.948.012l.272.657c.054.13.195.188.325.134l1.117-.462a.244.244 0 00.135-.326l-.272-.657c.26-.195.471-.424.662-.678l.673.28a.248.248 0 00.329-.137l.462-1.115a.248.248 0 00-.136-.329l-.674-.279c.045-.314.057-.625.012-.947l.657-.273a.244.244 0 00.134-.325l-.462-1.117a.244.244 0 00-.326-.135l-.657.273a3.312 3.312 0 00-.678-.662l.28-.674a.248.248 0 00-.137-.329l-1.115-.462a.248.248 0 00-.329.137l-.279.673a3.312 3.312 0 00-.947-.011l-.273-.657a.244.244 0 00-.325-.135zm1.756 2.66a1.138 1.138 0 11.87 2.103 1.138 1.138 0 01-.87-2.104z" display="block" fill="#d3d3d3" stroke="#4d4d4d" stroke-linejoin="round" stroke-width=".6"/></g></svg>