<svg xmlns="http://www.w3.org/2000/svg" width="24" height="24"><linearGradient y2="19.729" y1="4.678" x2="12.257" x1="12.392" gradientUnits="userSpaceOnUse" id="a"><stop stop-color="#fff" offset="0"/><stop stop-opacity=".235" stop-color="#fff" offset=".179"/><stop stop-opacity=".157" stop-color="#fff" offset="1"/><stop stop-opacity=".392" stop-color="#fff" offset="1"/></linearGradient><path d="M10.668 4.4L4.332 19.6h.416l5.92-14.2h2.877l5.707 14.2h.402l-6.11-15.2zm-.88 10l-.407 1h5.045l-.328-1z" fill="url(#a)"/><path d="M10 5L5 19h3l1.455-4h5.09L16 19h3L14 5zm2 3l1.818 5h-3.636z" opacity=".6" stroke="#000" stroke-width="2" stroke-linejoin="round"/><path d="M10 5L5 19h3l1.455-4h5.09L16 19h3L14 5zm2 3l1.818 5h-3.636z" fill="#fff"/><path d="M10.486 1l-.1 2.48-1.597.834-.5-.28-.02-1.477-1.043.963-1.411-.44.593 1.293-.855 1.205 1.414-.164L7.85 6.6l.28-1.397.737-.25 1.563.58.43 2.54 1.54-1.946 2.547.375-1.375-2.066 1.143-2.306-2.387.67zM4.963 5.367l-.813.75-1.093-.344.46 1.006-.663.933 1.097-.127.685.92.217-1.084 1.087-.365-.963-.54-.014-1.15zm3.713.893L7.492 7.35l-1.596-.498.672 1.462-.964 1.362L7.2 9.49l.997 1.34.317-1.578 1.584-.533-1.405-.79-.017-1.67zm-6.22 1.586l-.298 1.12L1 9.275l.97.628-.06 1.2.897-.73 1.123.43-.418-1.08.754-.935-1.155.064-.655-1.008z" opacity=".6" stroke="#000" stroke-width="2" stroke-linejoin="round"/><path d="M10.486 1l-.1 2.48-1.597.834-.5-.28-.02-1.477-1.043.963-1.411-.44.593 1.293-.855 1.205 1.414-.164L7.85 6.6l.28-1.397.737-.25 1.563.58.43 2.54 1.54-1.946 2.547.375-1.375-2.066 1.143-2.306-2.387.67zM4.963 5.367l-.813.75-1.093-.344.46 1.006-.663.933 1.097-.127.685.92.217-1.084 1.087-.365-.963-.54-.014-1.15zm3.713.893L7.492 7.35l-1.596-.498.672 1.462-.964 1.362L7.2 9.49l.997 1.34.317-1.578 1.584-.533-1.405-.79-.017-1.67zm-6.22 1.586l-.298 1.12L1 9.275l.97.628-.06 1.2.897-.73 1.123.43-.418-1.08.754-.935-1.155.064-.655-1.008z" fill="#fa9381"/></svg>