<svg xmlns="http://www.w3.org/2000/svg" xmlns:xlink="http://www.w3.org/1999/xlink" viewBox="0 0 24 24"><defs><linearGradient xlink:href="#a" id="b" gradientUnits="userSpaceOnUse" gradientTransform="matrix(.3245 0 0 .3245 8.93 -71.307)" x1="15.626" y1="259.802" x2="34.116" y2="284.455"/><linearGradient id="a"><stop offset="0" stop-color="#325fd1"/><stop offset="1" stop-color="#6e98ff"/></linearGradient></defs><path d="M7 6L6 7v1.313l4 5.656V16l4 2v-4.031l4-5.656V7l-1-1z" opacity=".7" stroke="#000" stroke-width="2" stroke-linejoin="round"/><path d="M7 6L6 7v1.313l4 5.656V16l4 2v-4.031l4-5.656V7l-1-1z" fill="#fff"/><path d="M20 14l-3 1c-1.047 0-2 .953-2 2l-1 3 3-1c1.047 0 2-.953 2-2zm-3 2c.524 0 1 .476 1 1s-.476 1-1 1-1-.476-1-1 .476-1 1-1z" fill="#762572"/><circle cx="17" cy="17" r="5" fill="url(#b)"/><path d="M16 16l-2 4 4-2z" style="marker:none" color="#000" overflow="visible" fill="#dfdfdf"/><path style="marker:none" d="M16 16l4-2-2 4z" color="#000" overflow="visible" fill="#e93549"/><circle style="marker:none" cx="17" cy="17" transform="matrix(0 1 1 0 0 0)" r="1" color="#000" overflow="visible" fill="#f2f2f2"/></svg>