<svg xmlns="http://www.w3.org/2000/svg" viewBox="0 0 24 24"><path d="M16.5 11c-2.48 0-4.5 2.02-4.5 4.5s2.02 4.5 4.5 4.5c.921-.001 1.756-.368 2.5-.883V20h2v-9h-2v.883c-.744-.515-1.579-.882-2.5-.883zm0 2c1.387 0 2.5 1.113 2.5 2.5S17.887 18 16.5 18a2.492 2.492 0 01-2.5-2.5c0-1.387 1.113-2.5 2.5-2.5z" style="line-height:normal;font-variant-ligatures:normal;font-variant-position:normal;font-variant-caps:normal;font-variant-numeric:normal;font-variant-alternates:normal;font-feature-settings:normal;text-indent:0;text-align:start;text-decoration-line:none;text-decoration-style:solid;text-decoration-color:#000;text-transform:none;text-orientation:mixed;white-space:normal;shape-padding:0;isolation:auto;mix-blend-mode:normal;solid-color:#000;solid-opacity:1" color="#000" font-weight="400" font-family="sans-serif" overflow="visible" opacity=".7" stroke="#000" stroke-width="2" stroke-linejoin="round"/><path style="line-height:normal;font-variant-ligatures:normal;font-variant-position:normal;font-variant-caps:normal;font-variant-numeric:normal;font-variant-alternates:normal;font-feature-settings:normal;text-indent:0;text-align:start;text-decoration-line:none;text-decoration-style:solid;text-decoration-color:#000;text-transform:none;text-orientation:mixed;white-space:normal;shape-padding:0;isolation:auto;mix-blend-mode:normal;solid-color:#000;solid-opacity:1" d="M16.5 11c-2.48 0-4.5 2.02-4.5 4.5s2.02 4.5 4.5 4.5c.921-.001 1.756-.368 2.5-.883V20h2v-9h-2v.883c-.744-.515-1.579-.882-2.5-.883zm0 2c1.387 0 2.5 1.113 2.5 2.5S17.887 18 16.5 18a2.492 2.492 0 01-2.5-2.5c0-1.387 1.113-2.5 2.5-2.5z" color="#000" font-weight="400" font-family="sans-serif" overflow="visible" fill="#fff"/><path d="M7.059 8L2.885 20h2.008l1-3h4.338l1 3h2L9 8H7.23zm1.004 2.492L9.565 15H6.56z" opacity=".7" stroke="#000" stroke-width="2" stroke-linejoin="round"/><path d="M7.059 8L2.885 20h2.008l1-3h4.338l1 3h2L9 8H7.23zm1.004 2.492L9.565 15H6.56z" fill="#fff"/><path fill="#1463a5" d="M3 3h18v2H3z"/></svg>