<svg xmlns="http://www.w3.org/2000/svg" width="24" height="24"><path d="M7.01 3c-1.257.014-2.178-.03-2.93.385a1.88 1.88 0 00-.839.998c-.164.438-.224.96-.224 1.617v12.001c0 .657.06 1.178.224 1.617.165.438.462.788.838.996.753.415 1.674.372 2.932.387h10.012c1.258-.015 2.178.03 2.931-.385a1.88 1.88 0 00.838-.998c.165-.439.225-.96.225-1.617V6c0-.658-.06-1.179-.225-1.617a1.875 1.875 0 00-.838-.996c-.753-.415-1.673-.372-2.932-.387H7.015z" style="line-height:125%;-inkscape-font-specification:Ubuntu;text-align:center" font-weight="400" font-size="15" font-family="Ubuntu" letter-spacing="0" word-spacing="0" text-anchor="middle" opacity=".6"/><path d="M12 4.027c-1.557.011-5.11-.012-6.66.039-.461.043-1.016.206-1.155.71-.22.635-.109 1.334-.146 1.982-.008 2.297-.023 9.596.021 11.886.04.462.203 1.012.7 1.163.632.225 1.283.123 1.935.155 1.424.006 4.85.01 6.277.01 1.704.001 3.408-.004 5.107-.018.512-.012 1.183.02 1.585-.405.42-.54.287-1.268.322-1.904.012-2.444.028-9.91-.022-12.356-.049-.402-.17-.863-.575-1.045-.668-.294-1.426-.168-2.126-.205A715.985 715.985 0 0012 4.027z" fill="#fff"/><path d="M6 7v1h12V7zM6 10v1h12v-1z"/><path d="M9.01 16v1H18v-1z" fill="#fa9381"/><path d="M6.01 13v1h12v-1z"/><path d="M7.01 15l-1 2h1v2h1v-4z" fill="#fa9381"/><path d="M17.299.5C17.134.5 17 .711 17 .975v.763h-.098l-1.123.48-.072.075-.553-.553c-.186-.186-.43-.242-.547-.125l-.992.992c-.117.117-.06.361.125.547l.553.553-.074.072-.48 1.123V5h-.764c-.264 0-.475.134-.475.299V6.7c0 .165.211.299.475.299h.763v.105l.48 1.124.071.068-.549.549c-.186.186-.242.43-.125.547l.992.992c.117.117.361.06.547-.125l.55-.55.075.08 1.123.481H17v.754c0 .264.134.475.299.475H18.7c.165 0 .299-.211.299-.475v-.754h.105l1.124-.482.072-.074.545.545c.186.186.43.242.547.125l.992-.992c.117-.117.06-.361-.125-.547l-.545-.545.074-.072.482-1.124V7h.754c.264 0 .475-.134.475-.299V5.3c0-.165-.211-.299-.475-.299h-.754v-.098L21.79 3.78l-.078-.076.549-.549c.186-.186.242-.43.125-.547l-.992-.992c-.117-.117-.361-.06-.547.125l-.55.55-.067-.071-1.124-.48H19V.974C19 .71 18.866.5 18.701.5zm.705 4c.83 0 1.504.674 1.504 1.504s-.675 1.504-1.504 1.504c-.83 0-1.504-.675-1.504-1.504 0-.83.674-1.504 1.504-1.504z" display="block" stroke-width=".999708" stroke-linejoin="round" fill="#b3b3b3" stroke="#6d6d6d"/><circle cx="18" cy="6" r="1" fill="#fff"/></svg>