<svg xmlns="http://www.w3.org/2000/svg" viewBox="0 0 24 24"><path d="M17.498 15c-.262.001-.954.046-2.062.563-.347.161-.636.344-1.032.562a34.79 34.79 0 01-1.25.625c-1.392.607-2.808 1.23-4.152 1.242h-5L3.998 20s3.327.032 5.75-.875c.321-.12.881-.318 1.406-.5 0 0 2.48.763 4.344 1.156 1.525.412 2.7.149 3.281-.156a2.387 2.387 0 001.219-2.156c-.005-.288-.077-.525-.219-.844-.141-.319-.344-.676-.656-.938-.482-.423-.724-.609-1.625-.687z" stroke="#000" opacity=".6" stroke-width="2" stroke-linejoin="round"/><path d="M17.498 15c-.262.001-.954.046-2.062.563-.347.161-.636.344-1.032.562a34.79 34.79 0 01-1.25.625c-1.392.607-2.808 1.23-4.152 1.242h-5L3.998 20s3.327.032 5.75-.875c.321-.12.881-.318 1.406-.5 0 0 2.48.763 4.344 1.156 1.525.412 2.7.149 3.281-.156a2.387 2.387 0 001.219-2.156c-.005-.288-.077-.525-.219-.844-.141-.319-.344-.676-.656-.938-.482-.423-.724-.609-1.625-.687z" fill="#fff"/><g stroke-width="27.2"><path d="M8.045 13.784L3 16l2.216-5.045.373-.373 2.829 2.829z" fill="#fec589"/><path style="marker:none" d="M3.535 14.794L3 16l1.206-.535c-.005.007-.671-.671-.671-.671z" color="#000" overflow="visible" fill="#5d5d5d"/><path d="M5.216 10.955s2.807 2.914 2.829 2.829l9.097-9.098-2.828-2.828z" fill="#2f5fdd"/></g></svg>