<svg xmlns="http://www.w3.org/2000/svg" viewBox="0 0 24 24"><path d="M12 4C8.503 4 5.49 6.392 4 9.885L7.438 12c.779-2.4 2.526-4.076 4.564-4.076 2.037 0 3.782 1.676 4.562 4.076l3.438-2.115C18.512 6.392 15.499 4 12.002 4zm4.564 8c-.78 2.4-2.525 4.076-4.562 4.076-2.038 0-3.786-1.676-4.565-4.076L4 14.115C5.49 17.608 8.503 20 12 20h.002c3.497 0 6.51-2.392 8-5.885z" stroke="#000" opacity=".6" stroke-width="2" stroke-linejoin="round"/><path d="M12 4C8.503 4 5.49 6.392 4 9.885L7.438 12c.779-2.4 2.526-4.076 4.564-4.076 2.037 0 3.782 1.676 4.562 4.076l3.438-2.115C18.512 6.392 15.499 4 12.002 4zm4.564 8c-.78 2.4-2.525 4.076-4.562 4.076-2.038 0-3.786-1.676-4.565-4.076L4 14.115C5.49 17.608 8.503 20 12 20h.002c3.497 0 6.51-2.392 8-5.885z" fill="#fff"/></svg>