<svg xmlns="http://www.w3.org/2000/svg" viewBox="0 0 24 24"><path d="M7.5 4A3.492 3.492 0 004 7.5C4 9.439 5.561 11 7.5 11h9c1.939 0 3.5-1.561 3.5-3.5S18.439 4 16.5 4zm9 1C17.885 5 19 6.115 19 7.5S17.885 10 16.5 10A2.495 2.495 0 0114 7.5C14 6.115 15.115 5 16.5 5zM16.5 13c1.939 0 3.5 1.561 3.5 3.5S18.439 20 16.5 20h-9A3.492 3.492 0 014 16.5C4 14.561 5.561 13 7.5 13zm-9 1A2.495 2.495 0 005 16.5C5 17.885 6.115 19 7.5 19s2.5-1.115 2.5-2.5S8.885 14 7.5 14z" fill="#924d8b"/><circle cx="16.5" cy="7.5" r="2.5" fill="#fff"/><circle r="2.5" cy="16.5" cx="7.5" fill="#fff"/></svg>