<svg xmlns="http://www.w3.org/2000/svg" viewBox="0 0 24 24"><path opacity=".6" stroke="#000" stroke-width="2" stroke-linecap="round" stroke-linejoin="round" d="M3 3h18v18H3z"/><path fill="#fff" d="M3 3h18v18H3z"/><path d="M17 5v2h2V5zM13 5v2h2V5zM9 5v2h2V5zM5 5v2h2V5zM17 9v2h2V9zM13 9v2h2V9zM9 9v2h2V9zM5 9v2h2V9zM17 13v2h2v-2zM13 13v2h2v-2zM9 13v2h2v-2zM5 13v2h2v-2zM17 17v2h2v-2zM13 17v2h2v-2zM9 17v2h2v-2zM5 17v2h2v-2z" fill="#232629"/><path d="M19.951 15A2 2 0 0018 17v2h-1v4h6v-4h-1v-2a2 2 0 00-2-2 2 2 0 00-.049 0zM20 16a1 1 0 011 1v2h-2v-2a1 1 0 011-1z" opacity=".6" fill-rule="evenodd" stroke="#000" stroke-width="2" stroke-linecap="round" stroke-linejoin="round"/><path d="M19.951 15A2 2 0 0018 17v2h-1v4h6v-4h-1v-2a2 2 0 00-2-2 2 2 0 00-.049 0zM20 16a1 1 0 011 1v2h-2v-2a1 1 0 011-1z" fill="#fee581" fill-rule="evenodd"/></svg>