<svg xmlns="http://www.w3.org/2000/svg" viewBox="0 0 24 24"><path opacity=".7" fill-rule="evenodd" stroke="#000" stroke-width="2" stroke-linejoin="round" d="M4 4h16v16H4z"/><path fill="#fff" fill-rule="evenodd" d="M4 4h16v16H4z"/><path d="M12 9a3 3 0 100 6 3 3 0 000-6zm0 2a1 1 0 110 2 1 1 0 010-2z" fill="#77216F"/><g stroke-width="27.2"><path d="M17.567 20.553L13.267 24l.836-5.447.264-.456 3.464 2z" fill="#fec589"/><path style="marker:none" d="M13.472 22.696L13.268 24l1.027-.829c-.004.008-.823-.475-.823-.475z" color="#000" overflow="visible" fill="#5d5d5d"/><path d="M14.103 18.553s3.465 2.088 3.464 2L24 9.412l-3.464-2z" fill="#2f5fdd"/></g></svg>