<svg xmlns="http://www.w3.org/2000/svg" viewBox="0 0 24 24"><path d="M6.994 4c-1.258.014-2.179-.03-2.931.385a1.88 1.88 0 00-.838.998C3.06 5.82 3 6.343 3 7v10c0 .658.06 1.179.225 1.617.164.439.461.789.838.996.752.416 1.673.372 2.931.387h10.012c1.258-.014 2.179.03 2.932-.385a1.88 1.88 0 00.837-.998c.165-.438.225-.96.225-1.617V7c0-.658-.06-1.179-.225-1.617a1.875 1.875 0 00-.837-.996c-.753-.416-1.674-.372-2.932-.387H6.998z" style="line-height:125%;-inkscape-font-specification:Ubuntu;text-align:center" font-weight="400" font-size="15" font-family="Ubuntu" letter-spacing="0" word-spacing="0" text-anchor="middle" opacity=".6"/><path d="M11.983 5.027c-1.556.01-5.11-.012-6.66.039-.46.042-1.016.206-1.155.71-.219.635-.108 1.334-.146 1.982-.008 2.297-.023 7.596.022 9.885.039.462.202 1.013.699 1.164.632.225 1.284.123 1.936.154 1.424.007 4.85.011 6.276.011 1.704 0 3.408-.005 5.107-.018.512-.012 1.184.02 1.585-.405.421-.54.287-1.268.323-1.904.012-2.444.027-7.91-.022-10.357-.05-.402-.17-.862-.575-1.044-.669-.294-1.427-.168-2.126-.206a715.985 715.985 0 00-5.264-.011z" fill="#d85eca"/><path style="marker:none" d="M8.983 10l-3 6h11l-3.5-4-1.5 2z" color="#000" overflow="visible" fill="#fff"/><path d="M16.983 9.416a1.5 1.5 0 01-1.422 1.573 1.5 1.5 0 01-1.574-1.421 1.5 1.5 0 011.422-1.575 1.5 1.5 0 011.574 1.422" fill="#fff"/><path d="M17.299 12.5c-.165 0-.299.211-.299.475v.763h-.098l-1.123.48-.072.075-.553-.553c-.186-.186-.43-.242-.547-.125l-.992.992c-.117.117-.06.361.125.547l.553.553-.074.072-.48 1.123V17h-.764c-.264 0-.475.134-.475.299V18.7c0 .165.211.299.475.299h.763v.105l.48 1.124.071.068-.549.549c-.186.186-.242.43-.125.547l.992.992c.117.117.361.06.547-.125l.55-.55.075.08 1.123.481H17v.754c0 .264.134.475.299.475H18.7c.165 0 .299-.211.299-.475v-.754h.105l1.124-.482.072-.074.545.545c.186.186.43.242.547.125l.992-.992c.117-.117.06-.361-.125-.547l-.545-.545.074-.072.482-1.124V19h.754c.264 0 .475-.134.475-.299V17.3c0-.165-.211-.299-.475-.299h-.754v-.098l-.482-1.123-.078-.076.549-.549c.186-.186.242-.43.125-.547l-.992-.992c-.117-.117-.361-.06-.547.125l-.55.55-.067-.071-1.124-.48H19v-.764c0-.264-.134-.475-.299-.475zm.705 4c.83 0 1.504.674 1.504 1.504s-.675 1.504-1.504 1.504c-.83 0-1.504-.675-1.504-1.504 0-.83.674-1.504 1.504-1.504z" display="block" stroke-width=".999708" stroke-linejoin="round" fill="#b3b3b3" stroke="#6d6d6d"/><circle cx="18" cy="18" r="1" fill="#fff"/></svg>