<svg xmlns="http://www.w3.org/2000/svg" viewBox="0 0 24 24"><path opacity=".6" stroke="#000" stroke-width="2" stroke-linecap="round" stroke-linejoin="round" d="M3 3h18v18H3z"/><path fill="#fff" d="M3 3h18v18H3z"/><path d="M17 5v2h2V5zM13 5v2h2V5zM9 5v2h2V5zM5 5v2h2V5zM17 9v2h2V9zM13 9v2h2V9zM9 9v2h2V9zM5 9v2h2V9zM17 13v2h2v-2zM13 13v2h2v-2zM9 13v2h2v-2zM5 13v2h2v-2zM17 17v2h2v-2zM13 17v2h2v-2zM9 17v2h2v-2zM5 17v2h2v-2z" fill="#232629"/><path d="M18 11a3 3 0 00-3 3v2h-2v7h10v-7h-2v-2a3 3 0 00-3-3zm0 1a2 2 0 012 2v2h-4v-2a2 2 0 012-2z" opacity=".6" stroke="#000" stroke-width="2" stroke-linejoin="round"/><path d="M18 11a3 3 0 00-3 3v2h-2v7h10v-7h-2v-2a3 3 0 00-3-3zm0 1a2 2 0 012 2v2h-4v-2a2 2 0 012-2z" fill="#fff"/></svg>