<svg xmlns="http://www.w3.org/2000/svg" viewBox="0 0 24 24"><defs><linearGradient y2="15.574" x2="11.853" y1="12.067" x1="8.369" gradientUnits="userSpaceOnUse" id="a"><stop stop-color="#fff"/><stop offset="1" stop-color="#b3b3b3"/></linearGradient></defs><path d="M16.406 4l-4 4-1.094 1.094L8 12.375v.031l-.688.688L4 16.375V18l2 2h1.625l3.969-4 1.125-1.125L16 11.594l.719-.719L20 7.594V6l-2-2h-1.594" stroke="#000" opacity=".6" stroke-width="2" stroke-linejoin="round" stroke-linecap="round"/><path d="M16.406 4l-4 4-1.094 1.094L8 12.375v.031l-.688.688L4 16.375V18l2 2h1.625l3.969-4 1.125-1.125L16 11.594l.719-.719L20 7.594V6l-2-2h-1.594" fill="url(#a)"/></svg>