<svg xmlns="http://www.w3.org/2000/svg" viewBox="0 0 24 24"><path d="M5.995 4c-1.258.014-2.179-.03-2.932.385a1.88 1.88 0 00-.837.998C2.06 5.82 2 6.343 2 7v8c0 .658.06 1.179.225 1.617.164.44.461.789.838.997.752.415 1.673.371 2.931.386h9.028c1.258-.014 2.178.03 2.931-.384a1.88 1.88 0 00.838-.999c.165-.438.225-.96.225-1.617V7c0-.658-.06-1.179-.225-1.617a1.875 1.875 0 00-.838-.996c-.753-.415-1.673-.372-2.932-.387H6z" style="line-height:125%;-inkscape-font-specification:Ubuntu;text-align:center" font-weight="400" font-size="15" font-family="Ubuntu" letter-spacing="0" word-spacing="0" text-anchor="middle" opacity=".6"/><path d="M10 5.027c-1.557.011-4.126-.012-5.676.039-.46.043-1.016.206-1.155.71-.219.635-.108 1.334-.146 1.982-.008 2.297-.023 5.596.022 7.885.039.462.202 1.013.699 1.164.632.225 1.284.123 1.936.154 1.424.007 3.866.011 5.292.012 1.704 0 3.408-.005 5.107-.019.512-.012 1.183.02 1.585-.405.42-.54.287-1.268.322-1.904.012-2.444.028-5.91-.022-8.356-.049-.402-.17-.863-.575-1.045-.668-.294-1.426-.168-2.126-.205A715.985 715.985 0 0010 5.027z" fill="#d85eca"/><path d="M8.995 7c-1.258.015-2.179-.03-2.931.385a1.88 1.88 0 00-.838.998C5.06 8.82 5 9.343 5 10v8c0 .658.06 1.179.225 1.617.164.44.461.789.838.997.752.415 1.673.371 2.931.386h9.028c1.258-.014 2.178.03 2.931-.384a1.88 1.88 0 00.838-.999c.165-.438.225-.96.225-1.617v-8c0-.658-.06-1.179-.225-1.617a1.875 1.875 0 00-.838-.996c-.753-.415-1.673-.372-2.932-.387H9z" style="line-height:125%;-inkscape-font-specification:Ubuntu;text-align:center" font-weight="400" font-size="15" font-family="Ubuntu" letter-spacing="0" word-spacing="0" text-anchor="middle" opacity=".6"/><path d="M13 8.027c-1.557.011-4.126-.012-5.676.039-.46.043-1.016.206-1.155.71-.219.635-.108 1.334-.146 1.982-.008 2.297-.023 5.596.022 7.885.039.462.202 1.013.699 1.164.632.225 1.284.123 1.936.154 1.424.007 3.866.011 5.292.012 1.704 0 3.408-.005 5.107-.019.512-.012 1.183.02 1.585-.405.42-.54.287-1.268.322-1.904.012-2.444.028-5.91-.022-8.356-.049-.402-.17-.863-.575-1.045-.668-.294-1.426-.168-2.126-.205A715.985 715.985 0 0013 8.027z" fill="#d85eca"/><path style="marker:none" d="M11 12l-3 6h11l-3.5-4-1.5 2z" color="#000" overflow="visible" fill="#fff"/><path d="M17.999 10.95a1 1 0 01-.948 1.049A1 1 0 0116 11.05 1 1 0 0116.95 10a1 1 0 011.05.948L17 11z" fill="#fff"/></svg>