<svg xmlns="http://www.w3.org/2000/svg" height="24" width="24"><path d="M15 4c-1.662 0-3 1.338-3 3s1.338 3 3 3 3-1.338 3-3-1.338-3-3-3zm0 7c-2.77 0-5 2.23-5 5v1h10v-1c0-2.77-2.23-5-5-5z" opacity=".7" stroke="#000" stroke-width="2" stroke-linejoin="round"/><path d="M15 4c-1.662 0-3 1.338-3 3s1.338 3 3 3 3-1.338 3-3-1.338-3-3-3zm0 7c-2.77 0-5 2.23-5 5v1h10v-1c0-2.77-2.23-5-5-5z" fill="#aee3f8"/><path d="M8 8c-1.662 0-3 1.338-3 3s1.338 3 3 3 3-1.338 3-3-1.338-3-3-3zm0 7c-2.77 0-5 2.23-5 5v1h10v-1c0-2.77-2.23-5-5-5z" stroke="#000" opacity=".7" stroke-width="2" stroke-linejoin="round"/><path d="M8 8c-1.662 0-3 1.338-3 3s1.338 3 3 3 3-1.338 3-3-1.338-3-3-3zm0 7c-2.77 0-5 2.23-5 5v1h10v-1c0-2.77-2.23-5-5-5z" fill="#aee3f8"/></svg>