<svg xmlns="http://www.w3.org/2000/svg" viewBox="0 0 24 24"><path d="M5.996 5.001h12c1 0 2.14.01 2 1v9c0 1-1 1-2 1h-8v3l-2.5-3h-1.5c-1 0-2 0-2-1v-9c0-1 1-1 2-1z" opacity=".6" fill="#fff" stroke="#000" stroke-width="2" stroke-linejoin="round"/><path d="M5.996 5.001h12c1 0 2.14.01 2 1v9c0 1-1 1-2 1h-8v3l-2.5-3h-1.5c-1 0-2 0-2-1v-9c0-1 1-1 2-1z" fill="#fa9381"/><path d="M6.496 10.001h11a.499.499 0 110 1h-11a.499.499 0 110-1zM6.496 12.001h11a.499.499 0 110 1h-11a.499.499 0 110-1zM6.496 8.001h11a.499.499 0 110 1h-11a.499.499 0 110-1z" fill="#fff"/><path d="M16 13c3.866 0 7 2.79 7 5s-3.134 5-7 5-7-2.79-7-5 3.134-5 7-5z" opacity=".6" stroke="#000" stroke-width="2" stroke-linecap="round" stroke-linejoin="round"/><path d="M16 13c3.866 0 7 2.79 7 5s-3.134 5-7 5-7-2.79-7-5 3.134-5 7-5z" fill="#fff"/><path d="M16 16a2 2 0 102 2 2 2 0 000-.588A1 1 0 0117 18a1 1 0 01-1-1 1 1 0 01.59-1 2 2 0 00-.59 0z" fill="#232629"/><path d="M16 14a4 4 0 00-4 4 4 4 0 004 4 4 4 0 004-4 4 4 0 00-4-4zm0 1a3 3 0 013 3 3 3 0 01-3 3 3 3 0 01-3-3 3 3 0 013-3z" fill="#232629"/><path opacity=".6" fill-rule="evenodd" stroke="#000" stroke-width="2" stroke-linejoin="round" d="M8.644 22.133l13.856-8L23 15 9.144 23z"/><path fill="#aee3f8" fill-rule="evenodd" d="M8.644 22.133l13.856-8L23 15 9.144 23z"/></svg>