<svg xmlns="http://www.w3.org/2000/svg" viewBox="0 0 24 24"><path d="M12.234 6.002A8 4 0 004 10a8 4 0 00.232.957 8 4 0 00.23.383 8 4 0 00.306.369 8 4 0 00.207.195c-.07-.064-.144-.128-.207-.195a3.416 3.416 0 01-.305-.37 2.76 2.76 0 01-.432-.933C4.246 14.633 7.72 18 12 18s7.754-3.367 7.969-7.594c-.083.406-.293.792-.6 1.153a3.91 3.91 0 01-.3.31 8 4 0 00.3-.31A8 4 0 0020 10a8 4 0 00-7.766-3.998zm6.211 6.36c-.06.04-.121.082-.185.122a8 4 0 00.185-.123zm-12.836.044a8 4 0 00.131.078c-.042-.026-.09-.05-.13-.078zm.932.512a8 4 0 00.105.053c-.037-.017-.069-.036-.105-.053zm10.908.006c-.058.027-.118.052-.178.078a8 4 0 00.178-.078zm-9.783.433a8 4 0 00.17.055l-.17-.055zm8.613.02c-.052.017-.108.03-.162.047a8 4 0 00.162-.047zm-7.351.31a8 4 0 00.267.055c-.09-.017-.178-.036-.267-.055zm6.095.014l-.119.026a8 4 0 00.12-.026zm-1.384.21l-.184.019a8 4 0 00.184-.02zm-3.258.001a8 4 0 00.226.022 15.252 15.252 0 01-.226-.022zm1.73.082c-.038 0-.073.006-.111.006-.025 0-.049-.004-.074-.004a8 4 0 00.185-.002z" color="#000" fill-rule="evenodd" stroke="#000" opacity=".7" stroke-width="2" stroke-linejoin="round"/><path d="M4.031 10.406C4.246 14.633 7.72 18 12 18s7.754-3.367 7.969-7.594C19.559 12.423 16.142 14 12 14s-7.56-1.577-7.969-3.594" color="#000" fill="#b6b6b6" fill-rule="evenodd"/><path d="M20 10a8 4 0 11-16 0 8 4 0 1116 0" color="#000" fill="#fff"/></svg>