<svg xmlns="http://www.w3.org/2000/svg" xmlns:xlink="http://www.w3.org/1999/xlink" viewBox="0 0 24 24"><defs><linearGradient id="a"><stop offset="0" stop-color="#151515"/><stop offset="1" stop-color="#4d4d4d"/></linearGradient><linearGradient xlink:href="#a" id="b" x1="13" y1="4" x2="13" y2="20" gradientUnits="userSpaceOnUse"/></defs><path d="M11.998 6.93A10 10 0 003.313 12a10 10 0 008.685 5.07 10 10 0 008.69-5.064L20.683 12l.003-.006a10 10 0 00-8.689-5.064z" opacity=".7" fill="#090909" stroke="#140c0c" stroke-width="2" stroke-linejoin="round"/><path d="M11.998 6.93A10 10 0 003.313 12a10 10 0 008.685 5.07 10 10 0 008.69-5.064L20.683 12l.003-.006a10 10 0 00-8.689-5.064z" fill="#fff"/><path d="M12 8a4 4 0 00-4 4 4 4 0 004 4 4 4 0 004-4 4 4 0 00-4-4zm0 1a3 3 0 013 3 3 3 0 01-3 3 3 3 0 01-3-3 3 3 0 013-3z" fill="#232629"/><path d="M12 10a2 2 0 00-2 2 2 2 0 002 2 2 2 0 002-2 2 2 0 00-.09-.588A1 1 0 0113 12a1 1 0 01-1-1 1 1 0 01.59-.91A2 2 0 0012 10z" fill="#232629"/><path d="M18.718 4.575l.707.707L5.282 19.425l-.707-.707z" fill-rule="evenodd" stroke="#fff" stroke-width="2" stroke-linejoin="round"/><path d="M18.718 4.575l.707.707L5.282 19.425l-.707-.707z" fill="url(#b)" fill-rule="evenodd"/></svg>