<svg xmlns="http://www.w3.org/2000/svg" viewBox="0 0 24 24"><path d="M6 5h12c1 0 2.141.01 2 1v9c0 1-1 1-2 1h-8v3l-2.5-3H6c-1 0-2 0-2-1V6c0-1 1-1 2-1z" opacity=".7" fill="#fff" stroke="#000" stroke-width="2" stroke-linejoin="round"/><path d="M6 5h12c1 0 2.141.01 2 1v9c0 1-1 1-2 1h-8v3l-2.5-3H6c-1 0-2 0-2-1V6c0-1 1-1 2-1z" fill="#fa9381"/><path d="M6.5 10h11a.499.499 0 110 1h-11a.499.499 0 110-1zM6.5 12h11a.499.499 0 110 1h-11a.499.499 0 110-1zM6.5 8h11a.499.499 0 110 1h-11a.499.499 0 110-1z" fill="#fff"/></svg>