<svg xmlns="http://www.w3.org/2000/svg" viewBox="0 0 24 24"><path style="marker:none" d="M6.833 3C3.357 3 2.983 3.309 3 6.323v11.354C2.983 20.69 3.357 21 6.833 21h10.334C20.643 21 21 20.691 21 17.677V6.323C21 3.31 20.643 3 17.167 3z" color="#000" overflow="visible" fill="#aea795"/><path d="M12 3v3h-2v3h2v8h2v1h-2v3h1v-2h2v-3h-2V8h-2V7h2V3z" fill="#faf8f6"/><path d="M3 13h3v2h3v-2h8v-2h1v2h3v-1h-2v-2h-3v2H8v2H7v-2H3z" fill="#faf8f6"/><path style="marker:none" d="M17 11v2h-4v3h2v3h-2v2h4.168C20.644 21 21 20.69 21 17.676V13h-3v-2z" color="#000" overflow="visible" fill="#46a926"/><path style="marker:none" d="M6.834 3C3.358 3 2.983 3.31 3 6.324v11.352C2.983 20.69 3.358 21 6.834 21h10.332C20.642 21 21 20.69 21 17.676V6.324C21 3.31 20.642 3 17.166 3H6.834zM7 4h10c2.5 0 3 0 3 2v12c0 2-.5 2-3 2H7c-2.5 0-3 0-3-2V6c0-2 .5-2 3-2z" color="#000" overflow="visible" opacity=".2"/></svg>