<svg xmlns="http://www.w3.org/2000/svg" viewBox="0 0 24 24"><path fill="#fff" d="M4 4h16v16H4z"/><path d="M6 3C4 3 3 3 3 5v14c0 2 1 2 3 2h12c2 0 3 0 3-2V5c0-2-1-2-3-2zm0 1h3v5H4V5c0-1 1-1 2-1zm4 0h4v5h-4V5zm5 0h3c1 0 2 0 2 1v4h-5V5zM4 10h5v4H4zm6 0h4v4h-4zm5 0h5v4h-5zM4 15h5v5H6c-1 0-2 0-2-1zm6 0h4v5h-4zm5 0h5v4c0 1-1 1-2 1h-3z" fill="#6d6d6d"/><path d="M9 9v6h6V9zm1 1h4v4h-4z" fill="#46a926"/><path fill="#ddf6d5" fill-rule="evenodd" d="M10 10h4v4h-4z"/><circle cy="19.5" cx="19.5" r="3.5" fill="#46a926"/><path overflow="visible" font-weight="400" style="line-height:normal;text-indent:0;text-align:start;text-decoration-line:none;text-decoration-style:solid;text-decoration-color:#000;text-transform:none;white-space:normal;isolation:auto;mix-blend-mode:normal;marker:none" d="M19 17v2h-2v1h2v2h1v-2h2v-1h-2v-2z" color="#000" font-family="sans-serif" fill="#fff"/><path d="M23 4l-4-3v2h-4v2h4v2z" opacity=".7" stroke="#000" stroke-width="2" stroke-linejoin="round"/><path d="M23 4l-4-3v2h-4v2h4v2z" fill="#aee3f8"/></svg>