<svg xmlns="http://www.w3.org/2000/svg" viewBox="0 0 24 24"><path d="M4 4h16v15H4z" fill="#fff"/><path d="M6 3C4 3 3 3 3 5v13c0 2 1 2 3 2h12c2 0 3 0 3-2V5c0-2-1-2-3-2zM4 5c0-1 1-1 2-1h12c1 0 2 0 2 1v13c0 1-1 1-2 1H6c-1 0-2 0-2-1z" fill="#6d6d6d"/><circle r="3.5" cx="17.5" cy="20.5" fill="#c7162b"/><path d="M9 4h1v15H9z" fill="#6d6d6d"/><path d="M4 7h16v1H4zM4 11h16v1H4zM4 15h16v1H4z" fill="#6d6d6d"/><path d="M5 5h3v1H5z" fill="#c7162b"/><path d="M6 8v1H5v1h1v1h1v-1h1V9H7V8zM6 12v1H5v1h1v1h1v-1h1v-1H7v-1z" fill="#46a926"/><path d="M5 17h3v1H5z" fill="#c7162b"/><path d="M15 20v1h5v-1z" style="line-height:normal;text-indent:0;text-align:start;text-decoration-line:none;text-decoration-style:solid;text-decoration-color:#000;text-transform:none;white-space:normal;isolation:auto;mix-blend-mode:normal;marker:none" font-weight="400" overflow="visible" color="#000" font-family="sans-serif" fill="#fff"/><circle cy="17.5" cx="20.5" r="3.5" fill="#46a926"/><path overflow="visible" font-weight="400" style="line-height:normal;text-indent:0;text-align:start;text-decoration-line:none;text-decoration-style:solid;text-decoration-color:#000;text-transform:none;white-space:normal;isolation:auto;mix-blend-mode:normal;marker:none" d="M20 15v2h-2v1h2v2h1v-2h2v-1h-2v-2z" color="#000" font-family="sans-serif" fill="#fff"/></svg>