<svg xmlns="http://www.w3.org/2000/svg" viewBox="0 0 24 24"><path fill="#fff" d="M19 5v14H5V5z"/><path fill="#ddf6d5" fill-rule="evenodd" d="M15 5h4v14h-4z"/><path d="M14 4v16h4c2 0 2-1 2-3V7c0-2 0-3-2-3h-4zm1 1h2c1 0 2 0 2 1v1h-4V5zm0 3h4v2h-4V8zm0 3h4v2h-4v-2zm0 3h4v2h-4v-2zm0 3h4v1c0 1-1 1-2 1h-2v-2z" fill="#46a926"/><path d="M6 4h8v1h-4v2h4v1h-4v2h4v1h-4v2h4v1h-4v2h4v1h-4v2h4v1H6c-2 0-2-1-2-3V7c0-2 0-3 2-3zm0 1c-.944 0-1 1-1 2h4V5zM5 8v2h4V8zm0 3v2h4v-2zm0 3v2h4v-2zm0 3c0 1 0 2 1 2h3v-2z" fill="#6d6d6d"/><circle cy="18.5" cx="5.5" r="3.5" fill="#46a926"/><path overflow="visible" font-weight="400" style="line-height:normal;text-indent:0;text-align:start;text-decoration-line:none;text-decoration-style:solid;text-decoration-color:#000;text-transform:none;white-space:normal;isolation:auto;mix-blend-mode:normal;marker:none" d="M5 16v2H3v1h2v2h1v-2h2v-1H6v-2z" color="#000" font-family="sans-serif" fill="#fff"/></svg>