<svg xmlns="http://www.w3.org/2000/svg" viewBox="0 0 24 24"><path d="M5.5 2.5h13v19h-13z" fill="#d85eca"/><path d="M2.45 1.998a.451.451 0 00-.45.453v19.097c0 .25.201.452.45.452h19.1c.249 0 .45-.202.45-.452V2.451c0-.25-.308-.453-.556-.453H4.994zM6 3h12l-.006 18.096h-12z" opacity=".7"/><path d="M6.495 12.452h11.01" display="block" opacity=".7" fill="none" stroke="#000" stroke-width=".995" stroke-linecap="square" stroke-linejoin="round"/><path d="M3 4h2v1H3zM3 7h2v1H3zM3 10h2v1H3zM3 13h2v1H3zM3 16h2v1H3zM3 19h2v1H3zM19 4h2v1h-2zM19 7h2v1h-2zM19 10h2v1h-2zM19 13h2v1h-2zM19 16h2v1h-2zM19 19h2v1h-2z" fill="#fff" fill-rule="evenodd"/></svg>