<svg xmlns="http://www.w3.org/2000/svg" viewBox="0 0 24 24"><g style="white-space:normal"><path overflow="visible" style="line-height:normal;font-variant-ligatures:none;font-variant-position:normal;font-variant-caps:normal;font-variant-numeric:normal;font-variant-alternates:normal;font-feature-settings:normal;text-indent:0;text-align:start;text-decoration-line:none;text-decoration-style:solid;text-decoration-color:#000;text-transform:none;shape-padding:0;isolation:auto;mix-blend-mode:normal;marker:none" d="M21 14V7c0-2-1-2-3-2h-4c-1.036 0-1.635 1.145-2 1.5-.365-.355-.964-1.5-2-1.5H6C4 5 3 5 3 7v9c0 2 1 2 3 2h4c.975 0 1.602.8 1.602.8l.39.518.4-.51s.65-.79 1.608-.808h4c2 0 3 0 3-2z" font-weight="400" color="#000" font-family="sans-serif" opacity=".6" stroke="#000" stroke-width="2"/></g><g style="white-space:normal"><path overflow="visible" style="line-height:normal;font-variant-ligatures:none;font-variant-position:normal;font-variant-caps:normal;font-variant-numeric:normal;font-variant-alternates:normal;font-feature-settings:normal;text-indent:0;text-align:start;text-decoration-line:none;text-decoration-style:solid;text-decoration-color:#000;text-transform:none;shape-padding:0;isolation:auto;mix-blend-mode:normal;marker:none" d="M21 14V7c0-2-1-2-3-2h-4c-1.036 0-1.635 1.145-2 1.5-.365-.355-.964-1.5-2-1.5H6C4 5 3 5 3 7v9c0 2 1 2 3 2h4c.975 0 1.602.8 1.602.8l.39.518.4-.51s.65-.79 1.608-.808h4c2 0 3 0 3-2z" font-weight="400" color="#000" font-family="sans-serif" fill="#fff"/></g><path d="M15 5h3v6l-3 1z" font-weight="400" color="#000" font-family="sans-serif" opacity=".6" fill="#090000"/><path fill="#fa9381" d="M6 8h4v1H6zM6 10h4v1H6zM6 12h4v1H6zM6 14h4v1H6z"/><circle cy="18.5" cx="18.5" r="3.5" fill="#46a926"/><path overflow="visible" font-weight="400" style="line-height:normal;text-indent:0;text-align:start;text-decoration-line:none;text-decoration-style:solid;text-decoration-color:#000;text-transform:none;white-space:normal;isolation:auto;mix-blend-mode:normal;marker:none" d="M18 16v2h-2v1h2v2h1v-2h2v-1h-2v-2z" color="#000" font-family="sans-serif" fill="#fff"/></svg>