<svg xmlns="http://www.w3.org/2000/svg" viewBox="0 0 24 24"><path d="M7 3c-1.258.014-2.179-.03-2.932.385a1.88 1.88 0 00-.838.998c-.164.438-.224.96-.224 1.617v11.001c0 .657.06 1.178.224 1.617.165.439.462.788.838.996.753.415 1.674.372 2.932.387h10.012c1.258-.015 2.179.03 2.931-.385a1.88 1.88 0 00.838-.998c.165-.439.225-.96.225-1.617V6c0-.658-.06-1.179-.225-1.617a1.875 1.875 0 00-.838-.996c-.752-.415-1.673-.372-2.931-.387H7.004z" style="line-height:125%;-inkscape-font-specification:Ubuntu;text-align:center" font-weight="400" font-size="15" font-family="Ubuntu" letter-spacing="0" word-spacing="0" text-anchor="middle" opacity=".6"/><path d="M11.99 4.027c-1.557.011-5.11-.012-6.66.039-.462.043-1.017.206-1.156.71-.219.635-.108 1.334-.146 1.982-.008 2.297-.023 8.596.022 10.886.039.462.202 1.012.698 1.163.633.226 1.285.123 1.936.155 1.425.007 4.851.01 6.277.011 1.704 0 3.408-.005 5.107-.018.512-.012 1.184.02 1.585-.406.42-.54.287-1.268.323-1.903.011-2.445.027-8.912-.022-11.357-.05-.402-.17-.863-.576-1.045-.668-.294-1.426-.168-2.125-.205a716.385 716.385 0 00-5.264-.012z" fill="#a6d74f"/><path d="M11.656 7l-.125.344-2.625 7.468-1.469-2.562-.156-.25H6v1h.719l1.843 3.25.532.938.375-1.032L12.344 8H18V7h-6zM15 10c-1.662 0-3 1.338-3 3s1.338 3 3 3c.773 0 1.47-.304 2-.781V16h1v-6h-1v.781A2.984 2.984 0 0015 10zm0 1c1.108 0 2 .892 2 2s-.892 2-2 2-2-.892-2-2 .892-2 2-2z" fill="#4d4d4d"/><circle cy="17.551" cx="18.489" r="3.5" fill="#46a926"/><path overflow="visible" font-weight="400" style="line-height:normal;text-indent:0;text-align:start;text-decoration-line:none;text-decoration-style:solid;text-decoration-color:#000;text-transform:none;white-space:normal;isolation:auto;mix-blend-mode:normal;marker:none" d="M17.99 15.051v2h-2v1h2v2h1v-2h2v-1h-2v-2z" color="#000" font-family="sans-serif" fill="#fff"/></svg>