<svg xmlns="http://www.w3.org/2000/svg" viewBox="0 0 24 24"><defs><linearGradient id="a" gradientUnits="userSpaceOnUse" x1="13.2" x2="13.2" y1="5.106" y2="18.997"><stop offset="0" stop-color="#fff5ef"/><stop offset="1" stop-color="#fef8dd"/></linearGradient></defs><rect y="3" x="3" width="18" ry=".451" rx=".314" height="18" fill="#f4843f"/><path d="M12.42 6.005c-.452-.053-.515.33-.468.633-.004 3.026.009 6.055-.006 9.08-.11.103-.323-.068-.464-.023-1.534-.085-3.211.918-3.365 2.365-.18 1.15 1.169 2.097 2.372 1.918 1.516-.145 2.7-1.523 2.502-2.884.004-2.396-.009-4.795.006-7.189.104-.107.258.12.367.132 1.219.65 2.297 1.721 2.37 3.056.08 1.043-.27 2.063-.665 3.03 1.322-1.465 1.745-3.603.826-5.334-.47-1.005-1.528-1.624-2.121-2.557-.438-.624-.77-1.32-.875-2.056-.086-.154-.312-.173-.479-.171z" opacity=".3" fill="#a62100"/><path d="M12.42 5.005c-.452-.053-.515.33-.468.634-.004 3.026.009 6.054-.006 9.079-.11.104-.323-.067-.464-.023-1.534-.084-3.211.918-3.365 2.365-.18 1.15 1.169 2.097 2.372 1.919 1.516-.145 2.7-1.524 2.502-2.885.004-2.396-.009-4.794.006-7.189.104-.106.258.12.367.132 1.219.65 2.297 1.722 2.37 3.056.08 1.043-.27 2.064-.665 3.03 1.322-1.465 1.745-3.603.826-5.334-.47-1.004-1.528-1.624-2.121-2.557-.438-.624-.77-1.32-.875-2.056-.086-.154-.312-.172-.479-.17z" fill="url(#a)"/><circle cy="19.5" cx="19.5" r="3.5" fill="#46a926"/><path overflow="visible" font-weight="400" style="line-height:normal;text-indent:0;text-align:start;text-decoration-line:none;text-decoration-style:solid;text-decoration-color:#000;text-transform:none;white-space:normal;isolation:auto;mix-blend-mode:normal;marker:none" d="M19 17v2h-2v1h2v2h1v-2h2v-1h-2v-2z" color="#000" font-family="sans-serif" fill="#fff"/></svg>