<svg xmlns="http://www.w3.org/2000/svg" viewBox="0 0 24 24"><path fill="#fff" d="M5 5v14h14V5z"/><path fill="#ddf6d5" fill-rule="evenodd" d="M9 5H5v14h4z"/><path d="M10 4v16H6c-2 0-2-1-2-3V7c0-2 0-3 2-3h3zM9 5H7C6 5 5 5 5 6v1h4zm0 3H5v2h4zm0 3H5v2h4zm0 3H5v2h4zm0 3H5v1c0 1 1 1 2 1h2z" fill="#46a926"/><path d="M18 4h-8v1h4v2h-4v1h4v2h-4v1h4v2h-4v1h4v2h-4v1h4v2h-4v1h8c2 0 2-1 2-3V7c0-2 0-3-2-3zm0 1c.944 0 1 1 1 2h-4V5zm1 3v2h-4V8zm0 3v2h-4v-2zm0 3v2h-4v-2zm0 3c0 1 0 2-1 2h-3v-2z" fill="#6d6d6d"/><circle cy="18.5" cx="-18.5" r="3.5" transform="scale(-1 1)" fill="#46a926"/><path overflow="visible" font-weight="400" style="line-height:normal;text-indent:0;text-align:start;text-decoration-line:none;text-decoration-style:solid;text-decoration-color:#000;text-transform:none;white-space:normal;isolation:auto;mix-blend-mode:normal;marker:none" d="M19 16v2h2v1h-2v2h-1v-2h-2v-1h2v-2z" color="#000" font-family="sans-serif" fill="#fff"/></svg>