<svg xmlns="http://www.w3.org/2000/svg" viewBox="0 0 24 24"><path d="M6 5h12c1 0 2.141.01 2 1v9c0 1-1 1-2 1h-8v3l-2.5-3H6c-1 0-2 0-2-1V6c0-1 1-1 2-1z" opacity=".6" fill="#fff" stroke="#000" stroke-width="2" stroke-linejoin="round"/><path d="M6 5h12c1 0 2.141.01 2 1v9c0 1-1 1-2 1h-8v3l-2.5-3H6c-1 0-2 0-2-1V6c0-1 1-1 2-1z" fill="#fa9381"/><path d="M6.5 10h11a.499.499 0 110 1h-11a.499.499 0 110-1zM6.5 12h11a.499.499 0 110 1h-11a.499.499 0 110-1zM6.5 8h11a.499.499 0 110 1h-11a.499.499 0 110-1z" fill="#fff"/><circle cy="16.5" cx="19.5" r="3.5" fill="#46a926"/><path overflow="visible" font-weight="400" style="line-height:normal;text-indent:0;text-align:start;text-decoration-line:none;text-decoration-style:solid;text-decoration-color:#000;text-transform:none;white-space:normal;isolation:auto;mix-blend-mode:normal;marker:none" d="M19 14v2h-2v1h2v2h1v-2h2v-1h-2v-2z" color="#000" font-family="sans-serif" fill="#fff"/></svg>