<svg xmlns="http://www.w3.org/2000/svg" height="24" width="24"><path d="M17.006 3c1.258.014 2.179-.03 2.932.384.376.208.673.56.837.999.165.438.225.96.225 1.617v12c0 .658-.06 1.179-.225 1.617a1.875 1.875 0 01-.837.997c-.753.415-1.674.371-2.932.386H6.994c-1.258-.014-2.179.03-2.932-.384a1.88 1.88 0 01-.837-.999C3.06 19.18 3 18.657 3 18V6c0-.658.06-1.179.225-1.617.164-.44.461-.789.837-.997.753-.415 1.674-.371 2.932-.386H17.002z" style="line-height:125%;-inkscape-font-specification:Ubuntu;text-align:center" font-weight="400" font-size="15" font-family="Ubuntu" letter-spacing="0" word-spacing="0" text-anchor="middle" opacity=".6"/><path d="M12.017 4.027c1.556.01 5.11-.012 6.66.039.46.042 1.016.206 1.155.71.219.635.108 1.333.146 1.982.008 2.297.023 9.596-.022 11.885-.039.462-.202 1.013-.699 1.164-.632.225-1.284.123-1.936.154-1.424.007-4.85.011-6.276.012-1.704 0-3.408-.005-5.107-.019-.512-.012-1.184.02-1.585-.405-.421-.54-.287-1.268-.323-1.904-.011-2.444-.027-9.911.022-12.357.05-.402.17-.863.575-1.044.669-.294 1.427-.168 2.126-.206a715.83 715.83 0 015.264-.011z" fill="#fff"/><path d="M14 8l-3 8h-1l3-8z"/><path d="M9 15l-3-3 3-3M15 15l3-3-3-3" fill="none" stroke="#000"/></svg>