<svg xmlns="http://www.w3.org/2000/svg" viewBox="0 0 24 24"><path d="M18 3v4c0 1.108-.892 2-2 2H8c-1.108 0-2-.892-2-2V3z" opacity=".7" stroke="#000" stroke-width="2" stroke-linejoin="round"/><path d="M18 3v4c0 1.108-.892 2-2 2H8c-1.108 0-2-.892-2-2V3z" fill="#fff"/><path d="M8 14h8c1.108 0 2 .892 2 2v5H6v-5c0-1.108.892-2 2-2z" opacity=".7" stroke="#000" stroke-width="2" stroke-linejoin="round"/><path d="M8 14h8c1.108 0 2 .892 2 2v5H6v-5c0-1.108.892-2 2-2z" fill="#fff"/><path fill="#e97cc8" d="M8 11h2v1H8zM14 11h2v1h-2zM11 11h2v1h-2zM5 11h2v1H5zM17 11h2v1h-2z"/></svg>