<svg xmlns="http://www.w3.org/2000/svg" viewBox="0 0 24 24"><path d="M4 9v1h1v2H4v1h3v-1H6v-2h1V9zM2 14v1h1v2H2v1h5v-1H6v-2h1v-1zm2 1h1v2H4z" fill="#e95420"/><path d="M13 20c-2 0-3 0-3-2V6c0-2 1-2 3-2h5l1 1 2 2 1 1v10c0 2-1 2-3 2z" opacity=".7" stroke="#000" stroke-width="2" stroke-linejoin="round"/><path d="M13 20c-2 0-3 0-3-2V6c0-2 1-2 3-2h5l1 1 2 2 1 1v10c0 2-1 2-3 2z" fill="#fff"/><path d="M18 8V4l4 4z" fill="#6d6d6d"/><path fill="#232629" fill-rule="evenodd" d="M12 10h8v1h-8zM12 12h8v1h-8zM12 14h8v1h-8zM12 16h8v1h-8z"/></svg>