<svg xmlns="http://www.w3.org/2000/svg" viewBox="0 0 24 24"><path d="M4 8c-.554 0-1 .446-1 1v4H2c-.554 0-1 .446-1 1v4c0 .554.446 1 1 1h5c.554 0 1-.446 1-1v-4a.975.975 0 00-.152-.5A.975.975 0 008 13V9c0-.554-.446-1-1-1H4z" opacity=".7"/><path d="M4 9v1h1v2H4v1h3v-1H6v-2h1V9zM2 14v1h1v2H2v1h5v-1H6v-2h1v-1zm2 1h1v2H4z" fill="#fff"/><path d="M13 20c-2 0-3 0-3-2V6c0-2 1-2 3-2h5l1 1 2 2 1 1v10c0 2-1 2-3 2z" opacity=".7" stroke="#000" stroke-width="2" stroke-linejoin="round"/><path d="M13 20c-2 0-3 0-3-2V6c0-2 1-2 3-2h5l1 1 2 2 1 1v10c0 2-1 2-3 2z" fill="#fff"/><path d="M18 8V4l4 4z" fill="#6d6d6d"/><path fill="#924d8b" d="M12 10h8v2h-8zM12 15h8v2h-8z"/></svg>