<svg xmlns="http://www.w3.org/2000/svg" viewBox="0 0 24 24"><path style="line-height:normal;font-variant-ligatures:normal;font-variant-position:normal;font-variant-caps:normal;font-variant-numeric:normal;font-variant-alternates:normal;font-variant-east-asian:normal;font-feature-settings:normal;font-variation-settings:normal;text-indent:0;text-align:start;text-decoration-line:none;text-decoration-style:solid;text-decoration-color:#000;text-transform:none;text-orientation:mixed;white-space:normal;shape-padding:0;shape-margin:0;inline-size:0;isolation:auto;mix-blend-mode:normal;solid-color:#000;solid-opacity:1" d="M16.242 2.764a4.985 4.985 0 00-3.535 1.459L9.172 7.758c-.542.542-.897 1.186-1.137 1.867a1 1 0 00-.984.254l-2.828 2.828a5.014 5.014 0 000 7.07 5.014 5.014 0 007.07 0l1.846-1.845c-.126-.309-.162-.644-.018-.993l.461-1.113a1 1 0 000-.002c.243-.586.8-.822 1.387-.842.018-.585.253-1.136.844-1.38l1.117-.463c.35-.145.684-.113.99.011l1.857-1.857a5.014 5.014 0 000-7.07 4.985 4.985 0 00-3.535-1.46zm0 2.988c.51 0 1.02.197 1.414.592.79.79.79 2.038 0 2.828l-1.72 1.72a4.93 4.93 0 00-1.108-1.72c-.512-.512-1.151-.792-1.79-1.037l1.79-1.791a1.993 1.993 0 011.414-.592zm-5.25 4.848a1 1 0 00.412.113c.48.025.935.212 1.303.58.589.589.59 1.39.3 2.11a1 1 0 00-.411-.114 1.97 1.97 0 01-1.303-.582c-.588-.588-.59-1.389-.3-2.107zm-2.928 2.507a4.93 4.93 0 001.108 1.721c.514.515 1.155.79 1.795 1.033l-1.795 1.795c-.79.79-2.039.79-2.828 0a1.985 1.985 0 010-2.828l1.72-1.72z" color="#000" font-weight="400" font-family="sans-serif" overflow="visible" opacity=".7"/><path d="M12.33 8.842l-.873.873a2.976 2.976 0 011.957.87 3 3 0 010 4.243L9.88 18.363a3 3 0 11-4.242-4.242L7.757 12v-1.414L4.93 13.414a4 4 0 105.656 5.656l2.82-2.82.176-.424a1 1 0 000-.002c.18-.433.532-.674.94-.78a3.99 3.99 0 00-2.192-6.202z" fill="#fff"/><path d="M16.243 13.414l2.828-2.828a4 4 0 00-5.657-5.657L9.88 8.464a4 4 0 001.795 6.69l.868-.867a3 3 0 01-1.956-5.115l3.535-3.536a3 3 0 114.243 4.243L16.243 12z" fill="#fff"/><g transform="translate(-1 -1)"><circle cx="19.5" cy="19.5" r="1.5" fill="#fff" fill-rule="evenodd"/><g transform="translate(8 8)"><circle cx="11.5" cy="11.5" r="1.5" fill="#fff" fill-rule="evenodd"/><path d="M9.311 7.792a.244.244 0 00-.135.325l.273.657c-.26.195-.472.424-.662.678l-.674-.279a.248.248 0 00-.329.136l-.462 1.115a.248.248 0 00.137.329l.673.279a3.312 3.312 0 00-.011.948l-.657.272a.244.244 0 00-.135.325l.463 1.117c.054.13.194.189.325.135l.657-.272c.195.26.424.471.678.662l-.279.673a.248.248 0 00.136.329l1.115.462a.248.248 0 00.329-.136l.279-.674c.314.045.626.057.948.012l.272.657c.054.13.195.188.325.134l1.117-.462a.244.244 0 00.135-.326l-.272-.657c.26-.195.471-.424.662-.678l.673.28a.248.248 0 00.329-.137l.462-1.115a.248.248 0 00-.136-.329l-.674-.279c.045-.314.057-.625.012-.947l.657-.273a.244.244 0 00.134-.325l-.462-1.117a.244.244 0 00-.326-.135l-.657.273a3.312 3.312 0 00-.678-.662l.28-.674a.248.248 0 00-.137-.329l-1.115-.462a.248.248 0 00-.329.137l-.279.673a3.312 3.312 0 00-.947-.011l-.273-.657a.244.244 0 00-.325-.135zm1.756 2.66a1.138 1.138 0 11.87 2.103 1.138 1.138 0 01-.87-2.104z" display="block" fill="#d3d3d3" stroke="#4d4d4d" stroke-linejoin="round" stroke-width=".6"/></g></g></svg>