<svg xmlns="http://www.w3.org/2000/svg" viewBox="0 0 24 24"><path d="M8 20c-2 0-3 0-3-2V6c0-2 1-2 3-2h7l1 1 2 2 1 1v10c0 2-1 2-3 2z" opacity=".6" stroke="#000" stroke-width="2" stroke-linejoin="round"/><path d="M8 20c-2 0-3 0-3-2V6c0-2 1-2 3-2h7l1 1 2 2 1 1v10c0 2-1 2-3 2z" fill="#fff"/><path d="M15 8V4l4 4z" fill="#6d6d6d"/><rect ry="2" y="11" x="9" height="10" width="12" rx="2" opacity=".6" fill="#000609" stroke="#000" stroke-width="2" stroke-linecap="round" stroke-linejoin="round"/><rect width="12" height="10" x="9" y="11" ry="2" fill="#aee3f8"/><path d="M15 18l4.857-3.238v-1.05c0-.714 0-.714-.714-.714h-8.286c-.714 0-.714 0-.714.715v1.049z" fill="#fff"/><path d="M11.571 12.143c-1.714 0-1.714.857-1.714 1.714l.002.743L9 14.081v.81l5.143 3.68-1.714 1.629s2.335-.968 3.428-1.629c1.7-1.026 4.098-2.858 5.143-3.663v-.827l-.859.52.002-.744c0-.857 0-1.714-1.714-1.714zM18.43 13c.857 0 .857 0 .857.857v1.26l-4.288 2.586-4.284-2.587v-1.259c0-.857 0-.857.857-.857z" style="line-height:125%;-inkscape-font-specification:Ubuntu;text-align:center" font-weight="400" font-size="15" font-family="Ubuntu" letter-spacing="0" word-spacing="0" text-anchor="middle" fill="#465b63"/><path style="line-height:normal;font-variant-ligatures:normal;font-variant-position:normal;font-variant-caps:normal;font-variant-numeric:normal;font-variant-alternates:normal;font-feature-settings:normal;text-indent:0;text-align:start;text-decoration-line:none;text-decoration-style:solid;text-decoration-color:#000;text-transform:none;text-orientation:mixed;white-space:normal;shape-padding:0;isolation:auto;mix-blend-mode:normal;marker:none" d="M12 14v1h6v-1z" color="#000" font-weight="400" font-family="sans-serif" overflow="visible" fill="#a7a7f1"/><path d="M5.299 12.5c-.165 0-.299.211-.299.475v.763h-.098l-1.123.48-.072.075-.553-.553c-.186-.186-.43-.242-.547-.125l-.992.992c-.117.117-.06.361.125.547l.553.553-.074.072-.48 1.123V17H.974c-.264 0-.475.134-.475.299V18.7c0 .165.211.299.475.299h.763v.105l.48 1.124.071.068-.549.549c-.186.186-.242.43-.125.547l.992.992c.117.117.361.06.547-.125l.55-.55.075.08 1.123.481H5v.754c0 .264.134.475.299.475H6.7c.165 0 .299-.211.299-.475v-.754h.105l1.124-.482.072-.074.545.545c.186.186.43.242.547.125l.992-.992c.117-.117.06-.361-.125-.547l-.545-.545.074-.072.482-1.124V19h.754c.264 0 .475-.134.475-.299V17.3c0-.165-.211-.299-.475-.299h-.754v-.098L9.79 15.78l-.078-.076.549-.549c.186-.186.242-.43.125-.547l-.992-.992c-.117-.117-.361-.06-.547.125l-.55.55-.067-.071-1.124-.48H7v-.764c0-.264-.134-.475-.299-.475zm.705 4c.83 0 1.504.674 1.504 1.504s-.675 1.504-1.504 1.504c-.83 0-1.504-.675-1.504-1.504 0-.83.674-1.504 1.504-1.504z" display="block" stroke-width=".999708" stroke-linejoin="round" fill="#b3b3b3" stroke="#6d6d6d"/><circle cx="6" cy="18" r="1" fill="#fff"/></svg>