<svg xmlns="http://www.w3.org/2000/svg" viewBox="0 0 24 24"><path d="M8 20c-2 0-3 0-3-2V6c0-2 1-2 3-2h7l1 1 2 2 1 1v10c0 2-1 2-3 2z" opacity=".7" stroke="#000" stroke-width="2" stroke-linejoin="round"/><path d="M8 20c-2 0-3 0-3-2V6c0-2 1-2 3-2h7l1 1 2 2 1 1v10c0 2-1 2-3 2z" fill="#fff"/><path d="M15 8V4l4 4z" fill="#6d6d6d"/><rect ry="2" y="11" x="9" height="10" width="12" rx="2" opacity=".7" fill="#000609" stroke="#000" stroke-width="2" stroke-linecap="round" stroke-linejoin="round"/><rect width="12" height="10" x="9" y="11" ry="2" fill="#aee3f8"/><path d="M15 18l4.857-3.238v-1.05c0-.714 0-.714-.714-.714h-8.286c-.714 0-.714 0-.714.715v1.049z" fill="#fff"/><path d="M11.571 12.143c-1.714 0-1.714.857-1.714 1.714l.002.743L9 14.081v.81l5.143 3.68-1.714 1.629s2.335-.968 3.428-1.629c1.7-1.026 4.098-2.858 5.143-3.663v-.827l-.859.52.002-.744c0-.857 0-1.714-1.714-1.714zM18.43 13c.857 0 .857 0 .857.857v1.26l-4.288 2.586-4.284-2.587v-1.259c0-.857 0-.857.857-.857z" style="line-height:125%;-inkscape-font-specification:Ubuntu;text-align:center" font-weight="400" font-size="15" font-family="Ubuntu" letter-spacing="0" word-spacing="0" text-anchor="middle" fill="#465b63"/><path style="line-height:normal;font-variant-ligatures:normal;font-variant-position:normal;font-variant-caps:normal;font-variant-numeric:normal;font-variant-alternates:normal;font-feature-settings:normal;text-indent:0;text-align:start;text-decoration-line:none;text-decoration-style:solid;text-decoration-color:#000;text-transform:none;text-orientation:mixed;white-space:normal;shape-padding:0;isolation:auto;mix-blend-mode:normal;marker:none" d="M12 14v1h6v-1z" color="#000" font-weight="400" font-family="sans-serif" overflow="visible" fill="#a7a7f1"/><path d="M9.5 14A2.5 2.5 0 007 16.5 2.5 2.5 0 009.5 19a2.5 2.5 0 002.5-2.5A2.5 2.5 0 009.5 14zm0 5A3.5 4 0 006 23h7a3.5 4 0 00-3.5-4z" opacity=".7" fill-rule="evenodd" stroke="#000" stroke-width="2" stroke-linejoin="round"/><path d="M9.5 14A2.5 2.5 0 007 16.5 2.5 2.5 0 009.5 19a2.5 2.5 0 002.5-2.5A2.5 2.5 0 009.5 14zm0 5A3.5 4 0 006 23h7a3.5 4 0 00-3.5-4z" fill="#fff" fill-rule="evenodd"/><circle cy="20.5" cx="20.5" r="3.5" fill="#c7162b"/><path overflow="visible" font-weight="400" style="line-height:normal;text-indent:0;text-align:start;text-decoration-line:none;text-decoration-style:solid;text-decoration-color:#000;text-transform:none;white-space:normal;isolation:auto;mix-blend-mode:normal;marker:none" d="M21.914 18.379L20.5 19.793l-1.414-1.414-.707.707 1.414 1.414-1.414 1.414.707.707 1.414-1.414 1.414 1.414.707-.707-1.414-1.414 1.414-1.414z" color="#000" font-family="sans-serif" fill="#fff"/></svg>