<svg xmlns="http://www.w3.org/2000/svg" viewBox="0 0 24 24"><path d="M18 7c-1.657 0-3 1.12-3 2.5v5c0 1.38 1.343 2.5 3 2.5s3-1.12 3-2.5v-5C21 8.12 19.657 7 18 7zm0 2a1 1 0 011 1v4a1 1 0 11-2 0v-4a1 1 0 011-1zM10 7C8.343 7 7 8.12 7 9.5v5c0 1.38 1.343 2.5 3 2.5s3-1.12 3-2.5v-5C13 8.12 11.657 7 10 7zm0 2a1 1 0 011 1v4a1 1 0 11-2 0v-4a1 1 0 011-1z" opacity=".6" stroke="#000" stroke-width="2"/><path opacity=".6" fill-rule="evenodd" stroke="#000" stroke-width="2" stroke-linejoin="round" d="M3 15h2v2H3z"/><path d="M18 7c-1.657 0-3 1.12-3 2.5v5c0 1.38 1.343 2.5 3 2.5s3-1.12 3-2.5v-5C21 8.12 19.657 7 18 7zm0 2a1 1 0 011 1v4a1 1 0 11-2 0v-4a1 1 0 011-1zM10 7C8.343 7 7 8.12 7 9.5v5c0 1.38 1.343 2.5 3 2.5s3-1.12 3-2.5v-5C13 8.12 11.657 7 10 7zm0 2a1 1 0 011 1v4a1 1 0 11-2 0v-4a1 1 0 011-1z" fill="#fff"/><path fill="#fff" fill-rule="evenodd" d="M3 15h2v2H3z"/><circle cy="18.5" cx="19.5" r="3.5" fill="#c7162b"/><path overflow="visible" font-weight="400" style="line-height:normal;text-indent:0;text-align:start;text-decoration-line:none;text-decoration-style:solid;text-decoration-color:#000;text-transform:none;white-space:normal;isolation:auto;mix-blend-mode:normal;marker:none" d="M20.914 16.379L19.5 17.793l-1.414-1.414-.707.707 1.414 1.414-1.414 1.414.707.707 1.414-1.414 1.414 1.414.707-.707-1.414-1.414 1.414-1.414z" color="#000" font-family="sans-serif" fill="#fff"/></svg>