<svg xmlns="http://www.w3.org/2000/svg" width="24" height="24"><path d="M16 4c-2.761 0-5 2.462-5 5.5 0 .167.007.334.021.5H11v5h.021c.235 2.832 2.394 5 4.979 5s4.744-2.168 4.979-5H21v-5h-.021c.014-.166.02-.333.021-.5C21 6.462 18.761 4 16 4zm0 3c1.105 0 2 1.343 2 3v4c0 1.657-.895 3-2 3s-2-1.343-2-3v-4c0-1.657.895-3 2-3z" opacity=".7" fill-rule="evenodd" stroke="#000" stroke-width="2" stroke-linejoin="round"/><path d="M2 15h6v2H2z" fill="#c7162b"/><path d="M4 7v2H2v2h2v2h2v-2h2V9H6V7z" fill="#0e8420"/><path d="M16 4c-2.761 0-5 2.462-5 5.5 0 .167.007.334.021.5H11v5h.021c.235 2.832 2.394 5 4.979 5s4.744-2.168 4.979-5H21v-5h-.021c.014-.166.02-.333.021-.5C21 6.462 18.761 4 16 4zm0 3c1.105 0 2 1.343 2 3v4c0 1.657-.895 3-2 3s-2-1.343-2-3v-4c0-1.657.895-3 2-3z" fill="#fff" fill-rule="evenodd"/></svg>