<svg xmlns="http://www.w3.org/2000/svg" viewBox="0 0 24 24"><path d="M6.994 3c-1.258.014-2.179-.03-2.932.384a1.88 1.88 0 00-.837.999C3.06 4.82 3 5.343 3 6v12c0 .658.06 1.179.225 1.617.164.44.461.789.837.997.753.415 1.674.371 2.932.386h10.012c1.258-.014 2.179.03 2.932-.384a1.88 1.88 0 00.837-.999c.165-.438.225-.96.225-1.617V6c0-.658-.06-1.179-.225-1.617a1.875 1.875 0 00-.837-.997c-.753-.415-1.674-.371-2.932-.386H6.998z" style="line-height:125%;-inkscape-font-specification:Ubuntu;text-align:center" font-weight="400" font-size="15" font-family="Ubuntu" letter-spacing="0" word-spacing="0" text-anchor="middle" opacity=".7"/><path d="M11.983 4.027c-1.556.01-5.11-.012-6.66.039-.46.042-1.016.206-1.155.71-.219.635-.108 1.333-.146 1.982-.008 2.297-.023 9.596.022 11.885.039.462.202 1.013.699 1.164.632.225 1.284.123 1.936.154 1.424.007 4.85.011 6.276.012 1.704 0 3.408-.005 5.107-.019.512-.012 1.184.02 1.585-.405.421-.54.287-1.268.323-1.904.011-2.444.027-9.911-.022-12.357-.05-.402-.17-.863-.575-1.044-.669-.294-1.427-.168-2.126-.206a716.385 716.385 0 00-5.264-.011z" fill="#a6d74f"/><path d="M16.5 8a2.495 2.495 0 00-2.5 2.5v3c0 1.385 1.115 2.5 2.5 2.5s2.5-1.115 2.5-2.5v-3C19 9.115 17.885 8 16.5 8zm0 1c.831 0 1.5.669 1.5 1.5v3c0 .831-.669 1.5-1.5 1.5s-1.5-.669-1.5-1.5v-3c0-.831.669-1.5 1.5-1.5zM8.5 8H8l-.354.354-2.474 2.474a.499.499 0 10.707.707L8 9.415V15.5a.499.499 0 101 0v-7c0-.277-.223-.5-.5-.5z" fill="#4d4d4d"/><circle cx="12" cy="16" r="1" fill="#4d4d4d"/></svg>