<svg xmlns="http://www.w3.org/2000/svg" viewBox="0 0 24 24"><path d="M7 4L5.586 5.414l.707.707L7 5.414V8h1V4zM6.396 13.977A1.97 1.97 0 005 14.5l1 .5c.515-.37 2.467 0-1 2v1h3v-1H6.5c2.625-1.5 1.362-3-.104-3.023z" opacity=".6" stroke="#000" stroke-width="2" stroke-linejoin="round"/><path fill="#924d8b" d="M11 5h11v2H11z"/><path d="M7 4L5.586 5.414l.707.707L7 5.414V8h1V4zM6.396 13.977A1.97 1.97 0 005 14.5l1 .5c.515-.37 2.467 0-1 2v1h3v-1H6.5c2.625-1.5 1.362-3-.104-3.023z" fill="#fff"/><path fill="#924d8b" d="M11 15h11v2H11z"/></svg>