<svg xmlns="http://www.w3.org/2000/svg" height="24" width="24"><path d="M9.002 2.986c-1.258.015-2.178-.03-2.931.385a1.88 1.88 0 00-.838.998c-.165.439-.225.96-.225 1.617V15.987c0 .658.06 1.179.225 1.617.165.439.461.789.838.996.753.415 1.673.372 2.931.387h8.012c1.258-.015 2.18.03 2.932-.385a1.88 1.88 0 00.838-.998c.164-.438.102-.97.224-1.617V5.986c0-.657-.06-1.178-.224-1.617a1.875 1.875 0 00-.838-.996c-.753-.415-1.674-.372-2.932-.387H9.006z" style="line-height:125%;-inkscape-font-specification:Ubuntu;text-align:center" font-weight="400" font-size="15" font-family="Ubuntu" letter-spacing="0" word-spacing="0" text-anchor="middle" opacity=".6"/><path d="M13.992 4.014c-1.557.01-5.11-.012-6.66.038-.462.043-1.016.207-1.156.71-.219.636-.108 1.334-.145 1.982-.008 2.297-.023 7.597.021 9.886.04.462.203 1.013.699 1.164.632.225 1.284.122 1.936.154 1.424.007 4.85.011 6.276.011 1.705 0 1.409-.005 3.107-.018.512-.012 1.184.02 1.585-.405.421-.54.287-1.268.323-1.904.012-2.444.028-7.911-.022-10.357-.05-.402-.17-.863-.575-1.044-.668-.295-1.426-.168-2.126-.206-1.754-.012-1.509-.013-3.263-.011z" fill="#fff"/><path d="M17.992 20.014l-14-7v7z" opacity=".6" stroke="#000" stroke-width="2" stroke-linejoin="round"/><path d="M17.992 20.014l-14-7v7z" fill="#fff"/></svg>