<svg xmlns="http://www.w3.org/2000/svg" viewBox="0 0 24 24"><path d="M6.994 3c-1.258.014-2.179-.03-2.932.384a1.88 1.88 0 00-.837.999C3.06 4.82 3 5.343 3 6v12c0 .658.06 1.179.225 1.617.164.44.461.789.837.997.753.415 1.674.371 2.932.386h10.012c1.258-.014 2.179.03 2.932-.384a1.88 1.88 0 00.837-.999c.165-.438.225-.96.225-1.617V6c0-.658-.06-1.179-.225-1.617a1.875 1.875 0 00-.837-.997c-.753-.415-1.674-.371-2.932-.386H6.998z" style="line-height:125%;-inkscape-font-specification:Ubuntu;text-align:center" font-weight="400" font-size="15" font-family="Ubuntu" letter-spacing="0" word-spacing="0" text-anchor="middle" opacity=".6"/><path d="M11.983 4.027c-1.556.01-5.11-.012-6.66.039-.46.042-1.016.206-1.155.71-.219.635-.108 1.333-.146 1.982-.008 2.297-.023 9.596.022 11.885.039.462.202 1.013.699 1.164.632.225 1.284.123 1.936.154 1.424.007 4.85.011 6.276.012 1.704 0 3.408-.005 5.107-.019.512-.012 1.184.02 1.585-.405.421-.54.287-1.268.323-1.904.011-2.444.027-9.911-.022-12.357-.05-.402-.17-.863-.575-1.044-.669-.294-1.427-.168-2.126-.206a715.985 715.985 0 00-5.264-.011z" fill="#fff"/><path d="M15.5 7A2.495 2.495 0 0013 9.5v5c0 1.385 1.115 2.5 2.5 2.5s2.5-1.115 2.5-2.5v-5C18 8.115 16.885 7 15.5 7zm0 1c.831 0 1.5.669 1.5 1.5v5c0 .831-.669 1.5-1.5 1.5s-1.5-.669-1.5-1.5v-5c0-.831.669-1.5 1.5-1.5z" fill="#4d4d4d"/><path style="line-height:normal;font-variant-ligatures:normal;font-variant-position:normal;font-variant-caps:normal;font-variant-numeric:normal;font-variant-alternates:normal;font-feature-settings:normal;text-indent:0;text-align:start;text-decoration-line:none;text-decoration-style:solid;text-decoration-color:#000;text-transform:none;text-orientation:mixed;white-space:normal;shape-padding:0;isolation:auto;mix-blend-mode:normal;solid-color:#000;solid-opacity:1" d="M8.5 6c-.277 0-.5.223-.5.5v.535c-.587.074-1.062.276-1.398.611-.43.43-.584 1.02-.584 1.604 0 .715.412 1.302.855 1.813.383.44.8.82 1.127 1.134v3.744a1.744 1.744 0 01-.732-.332c-.237-.189-.303-.332-.303-.332a.5.5 0 10-.895.446s.184.357.573.668c.305.244.76.476 1.357.566v.543a.499.499 0 101 0v-.533c.603-.07 1.091-.271 1.434-.613.43-.43.584-1.02.584-1.604 0-.715-.415-1.302-.858-1.813-.396-.455-.83-.848-1.16-1.167V8.049c.355.07.6.207.768.342.236.189.302.332.302.332a.5.5 0 10.895-.446s-.184-.357-.572-.668c-.311-.248-.78-.481-1.393-.568V6.5c0-.277-.223-.5-.5-.5zM8 8.045v2.744c-.126-.127-.258-.252-.371-.383-.38-.437-.611-.871-.611-1.156 0-.417.096-.702.29-.896.136-.136.353-.25.692-.31zm1 5.129c.14.139.282.277.406.42.38.437.612.871.612 1.156 0 .417-.097.702-.291.896-.14.14-.365.26-.727.317v-2.79z" color="#000" font-weight="400" font-family="sans-serif" overflow="visible" fill="#4d4d4d"/></svg>