<svg xmlns="http://www.w3.org/2000/svg" viewBox="0 0 24 24"><circle cx="12" cy="12" r="10" fill="#46a926"/><path style="line-height:normal;font-variant-ligatures:normal;font-variant-position:normal;font-variant-caps:normal;font-variant-numeric:normal;font-variant-alternates:normal;font-feature-settings:normal;text-indent:0;text-align:start;text-decoration-line:none;text-decoration-style:solid;text-decoration-color:#000;text-transform:none;text-orientation:mixed;white-space:normal;shape-padding:0;isolation:auto;mix-blend-mode:normal;solid-color:#000;solid-opacity:1;marker:none" d="M16.952 7.81l-6.367 6.362-3.537-3.534-1.415 1.415L10.585 17l7.782-7.774z" color="#000" font-weight="400" font-family="sans-serif" overflow="visible" fill="#fff"/><path d="M11.98 2A10 10 0 002 12a10 10 0 0010 10 10 10 0 0010-10A10 10 0 0012 2a10 10 0 00-.02 0zm.01 1A9 9 0 0112 3a9 9 0 019 9 9 9 0 01-9 9 9 9 0 01-9-9 9 9 0 018.99-9z" fill-rule="evenodd" opacity=".6"/></svg>