<svg xmlns="http://www.w3.org/2000/svg" viewBox="0 0 24 24"><path d="M10 5L5 19h3l1.455-4h5.09L16 19h3L14 5zm2 3l1.818 5h-3.636z" opacity=".6" stroke="#000" stroke-width="2" stroke-linejoin="round"/><path d="M10 5L5 19h3l1.455-4h5.09L16 19h3L14 5zm2 3l1.818 5h-3.636z" fill="#fff"/><g stroke-width="27.2"><path d="M17.3 20.553L13 24l.835-5.447.264-.456 3.464 2z" fill="#fec589"/><path style="marker:none" d="M13.204 22.696L13 24l1.027-.829c-.004.008-.823-.475-.823-.475z" color="#000" overflow="visible" fill="#5d5d5d"/><path d="M13.835 18.553s3.465 2.088 3.464 2l6.433-11.141-3.464-2z" fill="#2f5fdd"/></g></svg>