<svg xmlns="http://www.w3.org/2000/svg" viewBox="0 0 24 24"><path d="M12 22c-3.324 0-6-2.676-6-6v-5c0-3.324 2.676-6 6-6s6 2.676 6 6v5c0 3.324-2.676 6-6 6zm0-3c1.662 0 3-1.732 3-3.883v-3.234C15 9.732 13.662 8 12 8s-3 1.732-3 3.883v3.234C9 17.268 10.338 19 12 19z" opacity=".6" fill-rule="evenodd" stroke="#000" stroke-width="2" stroke-linecap="round" stroke-linejoin="round"/><path d="M5 3V2h14v1z" opacity=".6" stroke="#000" stroke-width="2" stroke-linejoin="round"/><path d="M5 3h14V2H5z" fill="#fff"/><path d="M12 22c-3.324 0-6-2.676-6-6v-5c0-3.324 2.676-6 6-6s6 2.676 6 6v5c0 3.324-2.676 6-6 6zm0-3c1.662 0 3-1.732 3-3.883v-3.234C15 9.732 13.662 8 12 8s-3 1.732-3 3.883v3.234C9 17.268 10.338 19 12 19z" fill="#fff" fill-rule="evenodd"/></svg>