<svg xmlns="http://www.w3.org/2000/svg" width="24" height="24"><path d="M7 5h2l3 2h5c2 0 3 0 3 2v8c0 2-1 2-3 2H7c-2 0-3 0-3-2V7c0-2 1-2 3-2z" stroke="#000" stroke-width="2" stroke-linejoin="round" opacity=".6"/><path d="M7 5h2l3 2h5c2 0 3 0 3 2v8c0 2-1 2-3 2H7c-2 0-3 0-3-2V7c0-2 1-2 3-2z" fill="#b3b3b3"/><rect width="10" height="11" x="9.011" y="10" ry="2" rx="2" opacity=".4"/><rect width="8" height="9" x="10.011" y="11" rx="0" ry="1" fill="#fff"/><path fill="#a7a7f1" d="M11.011 12h6v1h-6zM11.011 14h6v1h-6zM11.011 16h3v1h-3z"/></svg>