<svg xmlns="http://www.w3.org/2000/svg" viewBox="0 0 24 24"><path fill="#924d8b" d="M9 5h12v2H9z"/><rect y="4" x="3" height="4" width="4" ry="1" opacity=".7"/><path fill="#fff" d="M4 5h2v2H4z"/><rect y="16" x="9" height="4" width="4" ry="1" opacity=".7"/><path fill="#fff" d="M10 17h2v2h-2z"/><path fill="#924d8b" d="M15 17h6v2h-6z"/><rect width="5" height="4" x="3" y="10" ry="1" opacity=".7"/><path fill="#fff" d="M6 11h1v2H6zM4 11h1v2H4z"/><path fill="#924d8b" d="M10 11h11v2H10z"/><path d="M18.701 12.5c.165 0 .299.211.299.475v.763h.098l1.123.48.072.075.553-.553c.186-.186.43-.242.547-.125l.992.992c.117.117.06.361-.125.547l-.553.553.074.072.48 1.123V17h.764c.264 0 .475.134.475.299V18.7c0 .165-.211.299-.475.299h-.763v.105l-.48 1.124-.071.068.549.549c.186.186.242.43.125.547l-.992.992c-.117.117-.361.06-.547-.125l-.55-.55-.075.08-1.123.481H19v.754c0 .264-.134.475-.299.475H17.3c-.165 0-.299-.211-.299-.475v-.754h-.105l-1.124-.482-.072-.074-.545.545c-.186.186-.43.242-.547.125l-.992-.992c-.117-.117-.06-.361.125-.547l.545-.545-.074-.072-.482-1.124V19h-.754c-.264 0-.475-.134-.475-.299V17.3c0-.165.211-.299.475-.299h.754v-.098l.482-1.123.078-.076-.549-.549c-.186-.186-.242-.43-.125-.547l.992-.992c.117-.117.361-.06.547.125l.55.55.067-.071 1.124-.48H17v-.764c0-.264.134-.475.299-.475zm-.705 4c-.83 0-1.504.674-1.504 1.504s.675 1.504 1.504 1.504c.83 0 1.504-.675 1.504-1.504 0-.83-.674-1.504-1.504-1.504z" display="block" stroke-width=".999708" stroke-linejoin="round" fill="#b3b3b3" stroke="#6d6d6d"/><circle cx="-18" cy="18" r="1" transform="scale(-1 1)" fill="#fff"/></svg>