<svg xmlns="http://www.w3.org/2000/svg" viewBox="0 0 24 24"><path d="M6.994 4c-1.258.014-2.179-.03-2.932.384a1.88 1.88 0 00-.837.999C3.06 5.82 3 6.343 3 7v10c0 .658.06 1.179.225 1.617.164.44.461.789.837.997.753.415 1.674.371 2.932.386h10.012c1.258-.014 2.179.03 2.932-.384a1.88 1.88 0 00.837-.999c.165-.438.225-.96.225-1.617V7c0-.658-.06-1.179-.225-1.617a1.875 1.875 0 00-.837-.997c-.753-.415-1.674-.371-2.932-.386H6.998z" style="line-height:125%;-inkscape-font-specification:Ubuntu;text-align:center" font-weight="400" font-size="15" font-family="Ubuntu" letter-spacing="0" word-spacing="0" text-anchor="middle" opacity=".6"/><path d="M4.102 18c.085.357.27.693.642.807.412.146.833.156 1.256.152V18H4.102z" fill="#2daaaa"/><path d="M6 18v.959c.227-.002.454-.01.682.002 1.207.006 3.671.008 5.318.01V18H6z" fill="#46a926"/><path d="M12 18v.97l.957.003c1.683 0 3.366-.005 5.043-.018V18h-6z" fill="#fdc92b"/><path d="M18 18v.955h.064c.512-.012 1.183.019 1.584-.406.13-.167.2-.355.245-.549H18z" fill="#f34f17"/><path d="M4.018 12c-.001 2.151.003 4.337.029 5.645.01.115.026.236.055.355H6v-6H4.018z" fill="#31c6b7"/><path fill="#76c22b" d="M6 12h6v6H6z"/><path fill="#ffda64" d="M12 12h6v6h-6z"/><path d="M18 12v6h1.893c.101-.435.055-.914.08-1.354.005-1.096.009-2.879.01-4.646H18z" fill="#fb7c38"/><path d="M4.12 6c-.133.574-.062 1.185-.095 1.758-.003.985-.007 2.627-.007 4.242H6V6H4.12z" fill="#5bdbc1"/><path fill="#a6d74f" d="M6 6h6v6H6z"/><path fill="#fee581" d="M12 6h6v6h-6z"/><path d="M18 6v6h1.982c.001-2.173-.005-4.362-.033-5.71A2.808 2.808 0 0019.9 6H18z" fill="#fda463"/><path d="M6 5.059c-.194.003-.517.002-.674.007-.461.043-1.017.206-1.156.71-.025.073-.034.15-.05.224H6v-.941z" fill="#81e9c0"/><path d="M11.986 5.027c-1.399.01-4.265-.002-5.986.032V6h6v-.973h-.014z" fill="#cbe667"/><path d="M12 5.027V6h6v-.957c-.252.002-.506.01-.75-.004-1.75-.012-3.5-.013-5.25-.012z" fill="#fff4c9"/><path d="M18 5.043V6h1.9c-.072-.314-.215-.617-.525-.756-.435-.191-.905-.205-1.375-.201z" fill="#fec589"/><path style="marker:none" d="M9 10l-3 6h11l-3.5-4-1.5 2z" color="#000" overflow="visible" fill="#232629"/><path d="M17 9.416a1.5 1.5 0 01-1.422 1.574 1.5 1.5 0 01-1.574-1.422 1.5 1.5 0 011.421-1.575A1.5 1.5 0 0117 9.415" fill="#232629"/></svg>