<svg xmlns="http://www.w3.org/2000/svg" width="24" height="24"><path d="M7 2.995h2l3 2h5c2 0 3 0 3 2v8c0 2-1 2-3 2H7c-2 0-3 0-3-2v-10c0-2 1-2 3-2z" opacity=".6" stroke="#000" stroke-width="2" stroke-linejoin="round"/><path d="M7 2.995h2l3 2h5c2 0 3 0 3 2v8c0 2-1 2-3 2H7c-2 0-3 0-3-2v-10c0-2 1-2 3-2z" fill="#b3b3b3"/><path d="M4 21h6v-1h4v1h6v1h-6v1h-4v-1H4z" fill="#6d6d6d"/><rect width="2" height="1" x="11" y="21" ry="0" fill="#fff"/><rect width="10" height="11" x="9.011" y="8" ry="2" rx="2" opacity=".4"/><rect width="8" height="9" x="10.011" y="9" rx="0" ry="1" fill="#fff"/><path fill="#a7a7f1" d="M11.011 10h6v1h-6zM11.011 12h6v1h-6zM11.011 14h3v1h-3z"/></svg>