<svg xmlns="http://www.w3.org/2000/svg" viewBox="0 0 24 24"><path d="M17 12a2.5 2.5 0 00-2.5 2.5A2.5 2.5 0 0017 17v3h1v-8zm2 0v8h1v-8z" stroke="#000" opacity=".7" stroke-width="2" stroke-linejoin="round"/><path d="M12.75 4l-4 15.754 1 .246 4-15.754zM7.504 7l-3.975 4.645L3.25 12l.28.355L7.503 17l.746-.709L4.586 12 8.25 7.709z" opacity=".7" stroke="#000" stroke-width="2.5" stroke-linejoin="round"/><path d="M12.75 4l-4 15.754 1 .246 4-15.754zM7.504 7l-3.975 4.645L3.25 12l.28.355L7.503 17l.746-.709L4.586 12 8.25 7.709z" fill="#fff" stroke="#fff" stroke-width=".5"/><path d="M17 12a2.5 2.5 0 00-2.5 2.5A2.5 2.5 0 0017 17v3h1v-8zm2 0v8h1v-8z" fill="#aee3f8"/></svg>