<svg xmlns="http://www.w3.org/2000/svg" height="24" width="24"><path d="M8 2c-.554 0-1 .446-1 1H5a1.993 1.993 0 00-2 2l.034 8.983c.004 1.108.892 2 2 2L9 16v-4c0-1.108.892-1.995 2-2l4.034-.017L15 5a2 2 0 00-2-2h-2c0-.554-.446-1-1-1z" opacity=".7"/><rect width="10" height="11" x="4" y="4" ry="1" rx="1" fill="#ccc"/><path fill="#ccc" d="M9 4h2v2H9z"/><path d="M8 3v1H7v1h4V4h-1V3z" fill="#fff"/><rect width="12" height="13" x="8" y="8" ry="2" rx="2" opacity=".7"/><rect width="10" height="11" x="9" y="9" ry="1" rx="1" fill="#fff"/><path d="M14.5 11c-1.381 0-2.5 1.138-2.5 2.4v.6h1v-.6c0-.66.529-1.4 1.6-1.4 1.074 0 1.4.55 1.4 1 0 1.212-2 1.737-2 3h1c0-.495 2-1.47 2-3 0-1.326-1-2-2.5-2zm-.5 6v1h1v-1z" fill="#232629"/></svg>