<svg xmlns="http://www.w3.org/2000/svg" viewBox="0 0 24 24"><path d="M6 5.001h12c1 0 2.141.01 2 1v9c0 1-1 1-2 1h-8v3l-2.5-3H6c-1 0-2 0-2-1v-9c0-1 1-1 2-1z" opacity=".7" fill="#fff" stroke="#000" stroke-width="2" stroke-linejoin="round"/><path d="M6 5.001h12c1 0 2.141.01 2 1v9c0 1-1 1-2 1h-8v3l-2.5-3H6c-1 0-2 0-2-1v-9c0-1 1-1 2-1z" fill="#fa9381"/><path d="M6.5 10.001h11a.499.499 0 110 1h-11a.499.499 0 110-1zM6.5 12.001h11a.499.499 0 110 1h-11a.499.499 0 110-1zM6.5 8.001h11a.499.499 0 110 1h-11a.499.499 0 110-1z" fill="#fff"/><path d="M2 16.5L6 20v-2h4v-3H6v-2z" opacity=".7" stroke="#000" stroke-width="2" stroke-linejoin="round"/><path d="M2 16.5L6 20v-2h4v-3H6v-2z" fill="#fff"/></svg>