<svg xmlns="http://www.w3.org/2000/svg" xmlns:xlink="http://www.w3.org/1999/xlink" viewBox="0 0 24 24"><defs><linearGradient id="a"><stop offset="0" stop-color="#151515"/><stop offset="1" stop-color="#4d4d4d"/></linearGradient><linearGradient xlink:href="#a" id="b" x1="10" y1="4" x2="9.75" y2="20" gradientUnits="userSpaceOnUse"/></defs><path d="M17 12a2.5 2.5 0 100 5v5h1V12zm2 0v10h1V12z" opacity=".7" stroke="#000" stroke-width="2" stroke-linejoin="round"/><path d="M12.75 4l-4 15.754 1 .246 4-15.754zM7.504 7l-3.975 4.645L3.25 12l.28.355L7.503 17l.746-.709L4.586 12 8.25 7.709z" stroke="#fff" stroke-width="2" stroke-linejoin="round"/><path d="M12.75 4l-4 15.754 1 .246 4-15.754zM7.504 7l-3.975 4.645L3.25 12l.28.355L7.503 17l.746-.709L4.586 12 8.25 7.709z" fill="url(#b)"/><path d="M17 12a2.5 2.5 0 100 5v5h1V12zm2 0v10h1V12z" fill="#aee3f8"/></svg>