<svg xmlns="http://www.w3.org/2000/svg" viewBox="0 0 24 24"><path d="M18.005 5c1.259.014 2.18-.031 2.932.384.376.208.673.56.838.998.165.439.225.96.225 1.617V16c0 .658-.06 1.179-.225 1.617a1.875 1.875 0 01-.838.996c-.753.415-1.674.372-2.932.387H5.995c-1.259-.015-2.18.03-2.932-.385a1.88 1.88 0 01-.838-.998C2.061 17.18 2 16.657 2 16V7.999c0-.657.06-1.178.225-1.617.165-.438.462-.788.838-.996.753-.415 1.674-.372 2.932-.387H18.002z" style="line-height:125%;-inkscape-font-specification:Ubuntu;text-align:center" font-weight="400" font-size="15" font-family="Ubuntu" letter-spacing="0" word-spacing="0" text-anchor="middle" opacity=".6"/><path d="M13.016 6.027c1.557.01 5.11-.012 6.66.038.461.043 1.016.207 1.155.71.22.636.109 1.334.146 1.982.008 2.297.023 5.597-.021 7.886-.04.462-.203 1.013-.699 1.164-.632.225-1.284.122-1.936.154-1.424.007-4.85.011-6.276.011-1.705 0-5.408-.005-7.107-.018-.512-.012-1.183.02-1.584-.405-.421-.54-.287-1.268-.323-1.904-.012-2.444-.028-5.911.022-8.357.05-.402.17-.863.575-1.044.668-.295 1.426-.168 2.126-.206 1.754-.012 5.508-.013 7.262-.011z" fill="#fff"/><path d="M18.701 12.5c.165 0 .299.211.299.475v.763h.098l1.123.48.072.075.553-.553c.186-.186.43-.242.547-.125l.992.992c.117.117.06.361-.125.547l-.553.553.074.072.48 1.123V17h.764c.264 0 .475.134.475.299V18.7c0 .165-.211.299-.475.299h-.763v.105l-.48 1.124-.071.068.549.549c.186.186.242.43.125.547l-.992.992c-.117.117-.361.06-.547-.125l-.55-.55-.075.08-1.123.481H19v.754c0 .264-.134.475-.299.475H17.3c-.165 0-.299-.211-.299-.475v-.754h-.105l-1.124-.482-.072-.074-.545.545c-.186.186-.43.242-.547.125l-.992-.992c-.117-.117-.06-.361.125-.547l.545-.545-.074-.072-.482-1.124V19h-.754c-.264 0-.475-.134-.475-.299V17.3c0-.165.211-.299.475-.299h.754v-.098l.482-1.123.078-.076-.549-.549c-.186-.186-.242-.43-.125-.547l.992-.992c.117-.117.361-.06.547.125l.55.55.067-.071 1.124-.48H17v-.764c0-.264.134-.475.299-.475zm-.705 4c-.83 0-1.504.674-1.504 1.504s.675 1.504 1.504 1.504c.83 0 1.504-.675 1.504-1.504 0-.83-.674-1.504-1.504-1.504z" display="block" stroke-width=".999708" stroke-linejoin="round" fill="#b3b3b3" stroke="#6d6d6d"/><circle cx="-18" cy="18" transform="scale(-1 1)" r="1" fill="#fff"/></svg>