<svg xmlns="http://www.w3.org/2000/svg" xmlns:xlink="http://www.w3.org/1999/xlink" viewBox="0 0 24 24"><defs><linearGradient xlink:href="#a" id="b" x1="15" y1="3" x2="15" y2="21" gradientUnits="userSpaceOnUse" gradientTransform="translate(.423)"/><linearGradient id="a"><stop offset="0" stop-color="#151515"/><stop offset="1" stop-color="#4d4d4d"/></linearGradient></defs><path d="M13 3a6.31 7.725 24.543 00-7.5 7.5A6.31 7.725 24.543 0011 18a6.31 7.725 24.543 00.883-.076L13.422 21h3l-2-4h-.057a6.31 7.725 24.543 004.135-6.5A6.31 7.725 24.543 0013 3zm-.4 3a3.428 4.594 17.626 012.9 4.5 3.428 4.594 17.626 01-4.102 4.5A3.428 4.594 17.626 018.5 10.5 3.428 4.594 17.626 0112.6 6z" fill-rule="evenodd" stroke="#fff" stroke-width="2" stroke-linejoin="round"/><path d="M13 3a6.31 7.725 24.543 00-7.5 7.5A6.31 7.725 24.543 0011 18a6.31 7.725 24.543 00.883-.076L13.422 21h3l-2-4h-.057a6.31 7.725 24.543 004.135-6.5A6.31 7.725 24.543 0013 3zm-.4 3a3.428 4.594 17.626 012.9 4.5 3.428 4.594 17.626 01-4.102 4.5A3.428 4.594 17.626 018.5 10.5 3.428 4.594 17.626 0112.6 6z" fill="url(#b)" fill-rule="evenodd"/><path d="M16 15v2h1v2a1 1 0 01-1 1v1a2 2 0 002-2v-4zm3 0v2h1v2a1 1 0 01-1 1v1a2 2 0 002-2v-4z" opacity=".7" stroke="#000" stroke-width="2" stroke-linejoin="round"/><path d="M16 15v2h1v2a1 1 0 01-1 1v1a2 2 0 002-2v-4zm3 0v2h1v2a1 1 0 01-1 1v1a2 2 0 002-2v-4z" fill="#aee3f8"/></svg>