<svg xmlns="http://www.w3.org/2000/svg" viewBox="0 0 24 24"><rect y="16" x="3" height="4" width="4" ry="1" opacity=".6"/><path fill="#6d6d6d" d="M9 5h12v2H9z"/><rect y="4" x="3" height="4" width="4" ry="1" opacity=".6"/><path fill="#fff" d="M4 5h2v2H4z"/><rect width="4" height="4" x="3" y="10" ry="1" opacity=".6"/><path fill="#fff" d="M4 11h2v2H4zM4 17h2v2H4z"/><path fill="#6d6d6d" d="M9 11h12v2H9zM9 17h12v2H9z"/><circle cy="19.5" cx="19.5" r="3.5" fill="#c7162b"/><path overflow="visible" font-weight="400" style="line-height:normal;text-indent:0;text-align:start;text-decoration-line:none;text-decoration-style:solid;text-decoration-color:#000;text-transform:none;white-space:normal;isolation:auto;mix-blend-mode:normal;marker:none" d="M20.914 17.379L19.5 18.793l-1.414-1.414-.707.707 1.414 1.414-1.414 1.414.707.707 1.414-1.414 1.414 1.414.707-.707-1.414-1.414 1.414-1.414z" color="#000" font-family="sans-serif" fill="#fff"/></svg>