<svg xmlns="http://www.w3.org/2000/svg" viewBox="0 0 24 24"><path style="line-height:normal;font-variant-ligatures:normal;font-variant-position:normal;font-variant-caps:normal;font-variant-numeric:normal;font-variant-alternates:normal;font-feature-settings:normal;text-indent:0;text-align:start;text-decoration-line:none;text-decoration-style:solid;text-decoration-color:#000;text-transform:none;text-orientation:mixed;white-space:normal;shape-padding:0;isolation:auto;mix-blend-mode:normal" d="M11.47 4.97a6.508 6.508 0 00-6.5 6.5c0 3.584 2.916 6.5 6.5 6.5a6.47 6.47 0 004.224-1.569l2.922 2.922.707-.707-2.922-2.922a6.47 6.47 0 001.569-4.224c0-3.584-2.916-6.5-6.5-6.5zm0 1.039a5.453 5.453 0 015.46 5.46 5.453 5.453 0 01-5.46 5.462 5.454 5.454 0 01-5.461-5.461c0-3.022 2.44-5.461 5.46-5.461z" color="#000" font-weight="400" font-family="sans-serif" overflow="visible" opacity=".7" stroke="#000" stroke-width="2" stroke-linejoin="round"/><path overflow="visible" style="line-height:normal;font-variant-ligatures:normal;font-variant-position:normal;font-variant-caps:normal;font-variant-numeric:normal;font-variant-alternates:normal;font-feature-settings:normal;text-indent:0;text-align:start;text-decoration-line:none;text-decoration-style:solid;text-decoration-color:#000;text-transform:none;text-orientation:mixed;white-space:normal;shape-padding:0;isolation:auto;mix-blend-mode:normal" d="M11.47 4.97a6.508 6.508 0 00-6.5 6.5c0 3.584 2.916 6.5 6.5 6.5s6.5-2.916 6.5-6.5-2.916-6.5-6.5-6.5zm0 1.04a5.452 5.452 0 015.46 5.46 5.452 5.452 0 01-5.46 5.46 5.454 5.454 0 01-5.461-5.46c0-3.022 2.44-5.46 5.46-5.46z" color="#000" font-weight="400" font-family="sans-serif" fill="#c8c4b7"/><path overflow="visible" style="line-height:normal;font-variant-ligatures:normal;font-variant-position:normal;font-variant-caps:normal;font-variant-numeric:normal;font-variant-alternates:normal;font-feature-settings:normal;text-indent:0;text-align:start;text-decoration-line:none;text-decoration-style:solid;text-decoration-color:#000;text-transform:none;text-orientation:mixed;white-space:normal;shape-padding:0;isolation:auto;mix-blend-mode:normal" d="M15.823 15.116l-.707.708 3.5 3.5.707-.708z" color="#000" font-weight="400" font-family="sans-serif" fill="#c8c4b7" fill-rule="evenodd"/><path d="M16.97 11.47a5.5 5.5 0 01-5.43 5.5 5.5 5.5 0 01-5.569-5.36 5.5 5.5 0 015.287-5.636 5.5 5.5 0 015.704 5.214" fill="#fff"/></svg>