<svg xmlns="http://www.w3.org/2000/svg" viewBox="0 0 24 24"><rect width="7" height="6" x="3" y="9" ry="1" opacity=".6"/><rect width="5" height="6" x="5" y="3" ry="1" opacity=".6" fill="#030001"/><path fill="#924d8b" d="M11 5h11v2H11z"/><rect y="15" x="1" height="6" width="9" ry="1" opacity=".6"/><path d="M2 16v1h1v2H2v1h7v-1H8v-2h1v-1H2zm2 1h1v2H4v-2zm2 0h1v2H6v-2zM6 4v1h1v2H6v1h3V7H8V5h1V4H6zM4 10v1h1v2H4v1h5v-1H8v-2h1v-1H4zm2 1h1v2H6v-2z" fill="#fff"/><path fill="#924d8b" d="M11 11h11v2H11zM11 17h11v2H11z"/></svg>