<svg xmlns="http://www.w3.org/2000/svg" viewBox="0 0 24 24"><path d="M12 4l-1.656 3.313C10.867 7.127 11.414 7 12 7s1.133.127 1.656.313zM6.344 6.344l1.156 3.5a4.9 4.9 0 01.969-1.375A4.9 4.9 0 019.844 7.5zm11.312 0l-3.5 1.156c.501.239.96.554 1.375.969a4.9 4.9 0 01.969 1.375zM12 8a4 4 0 100 8 4 4 0 000-8zm-4.688 2.344L4 12l3.313 1.656C7.127 13.133 7 12.586 7 12c0-.587.127-1.133.313-1.656zm9.375 0c.186.523.313 1.07.313 1.656 0 .587-.127 1.133-.313 1.656L20 12zM7.5 14.156l-1.156 3.5 3.5-1.156a4.9 4.9 0 01-1.375-.969 4.9 4.9 0 01-.969-1.375zm9 0a4.9 4.9 0 01-.969 1.375 4.9 4.9 0 01-1.375.969l3.5 1.156zm-6.156 2.531L12 20l1.656-3.313c-.523.186-1.07.313-1.656.313-.587 0-1.133-.127-1.656-.313z" stroke="#000" opacity=".7" stroke-width="2" stroke-linejoin="round"/><path d="M12 4l-1.656 3.313C10.867 7.127 11.414 7 12 7s1.133.127 1.656.313zM6.344 6.344l1.156 3.5a4.9 4.9 0 01.969-1.375A4.9 4.9 0 019.844 7.5zm11.312 0l-3.5 1.156c.501.239.96.554 1.375.969a4.9 4.9 0 01.969 1.375zM12 8a4 4 0 100 8 4 4 0 000-8zm-4.688 2.344L4 12l3.313 1.656C7.127 13.133 7 12.586 7 12c0-.587.127-1.133.313-1.656zm9.375 0c.186.523.313 1.07.313 1.656 0 .587-.127 1.133-.313 1.656L20 12zM7.5 14.156l-1.156 3.5 3.5-1.156a4.9 4.9 0 01-1.375-.969 4.9 4.9 0 01-.969-1.375zm9 0a4.9 4.9 0 01-.969 1.375 4.9 4.9 0 01-1.375.969l3.5 1.156zm-6.156 2.531L12 20l1.656-3.313c-.523.186-1.07.313-1.656.313-.587 0-1.133-.127-1.656-.313z" fill="#fff"/></svg>