<svg xmlns="http://www.w3.org/2000/svg" viewBox="0 0 24 24"><path d="M8 4s.745 3.51 0 5c-.745 1.49-4 3-4 3s3.255 1.51 4 3c.745 1.49 0 5 0 5s2.333-3 4-3 4 3 4 3-.745-3.51 0-5c.745-1.49 4-3 4-3s-3.255-1.51-4-3c-.745-1.49 0-5 0-5s-2.333 3-4 3-4-3-4-3z" stroke="#000" opacity=".6" stroke-width="2" stroke-linejoin="round"/><path d="M8 4s.745 3.51 0 5c-.745 1.49-4 3-4 3s3.255 1.51 4 3c.745 1.49 0 5 0 5s2.333-3 4-3 4 3 4 3-.745-3.51 0-5c.745-1.49 4-3 4-3s-3.255-1.51-4-3c-.745-1.49 0-5 0-5s-2.333 3-4 3-4-3-4-3z" fill="#fff"/></svg>