<svg xmlns="http://www.w3.org/2000/svg" viewBox="0 0 24 24"><path d="M10 5L5 19h3l1.455-4h5.09L16 19h3L14 5h-4zm2 3l1.818 5h-3.636L12 8z" stroke="#000" stroke-width="2" stroke-linejoin="round" opacity=".6"/><path d="M10 5L5 19h3l1.455-4h5.09L16 19h3L14 5h-4zm2 3l1.818 5h-3.636L12 8z" fill="#fff"/><path d="M16 3v6h3c1.108 0 2-.892 2-2 0-.81-.481-1.502-1.172-1.816.106-.206.172-.436.172-.684 0-.831-.669-1.5-1.5-1.5H17zm1 1h1.5a.499.499 0 110 1H17zm0 2h2c.554 0 1 .446 1 1s-.446 1-1 1h-2z" stroke-width="2" stroke="#000" stroke-linejoin="round" opacity=".6"/><path d="M16 3v6h3c1.108 0 2-.892 2-2 0-.81-.481-1.502-1.172-1.816.106-.206.172-.436.172-.684 0-.831-.669-1.5-1.5-1.5H17zm1 1h1.5a.499.499 0 110 1H17zm0 2h2c.554 0 1 .446 1 1s-.446 1-1 1h-2z" fill="#aee3f8"/></svg>