<svg xmlns="http://www.w3.org/2000/svg" viewBox="0 0 24 24"><path fill="#fff" fill-rule="evenodd" d="M4 8h15v11H4z"/><path fill="#a6d74f" fill-rule="evenodd" d="M4 4h15v3H4z"/><path d="M6 3C4 3 3 3 3 5v13c0 2 1 2 3 2h11c2 0 3 0 3-2V5c0-.25-.016-.469-.047-.66C19.734 3 18.75 3 17 3H8zm0 1h1v3H4V5c0-1 1-1 2-1zm2 0h3v3H8zm4 0h3v3h-3zm4 0h1c1 0 2 0 2 1v2h-3zM4 8h3v3H4zm4 0h3v3H8zm4 0h3v3h-3zm4 0h3v3h-3zM4 12h3v3H4zm4 0h3v3H8zm4 0h3v3h-3zm4 0h3v3h-3zM4 16h3v3H6c-1 0-2 0-2-1zm4 0h3v3H8zm4 0h3v3h-3zm4 0h3v2c0 1-1 1-2 1h-1z" fill="#6d6d6d" fill-rule="evenodd"/><path d="M15 13v10l3.2-4H23z" fill="#fff" stroke="#fff" stroke-width="2" stroke-linejoin="round"/><path d="M15 13v10l3.2-4H23z" fill="#232629"/></svg>