<svg xmlns="http://www.w3.org/2000/svg" viewBox="0 0 24 24"><path d="M4 4v2h6v14h2V6h6V4z" stroke="#000" opacity=".7" stroke-width="2" stroke-linejoin="round"/><path d="M4 4v2h6v14h2V6h6V4z" fill="#fff"/><path d="M19 11c-.833 0-1.47.361-1.93.668-.46.307-.777.625-.777.625a1 1 0 000 1.414 1 1 0 001.414 0s.183-.182.473-.375S18.833 13 19 13c.745 0 .838.207.92.629.082.422-.094 1.131-.627 1.664l-3 3a1 1 0 00-.293.719V20h6v-2h-2.586l1.293-1.293c.967-.967 1.41-2.258 1.176-3.46C21.649 12.042 20.49 11 19 11z" opacity=".7" fill-rule="evenodd" stroke="#000" stroke-width="2" stroke-linecap="round" stroke-linejoin="round"/><path d="M19 11c-.833 0-1.47.361-1.93.668-.46.307-.777.625-.777.625a1 1 0 000 1.414 1 1 0 001.414 0s.183-.182.473-.375S18.833 13 19 13c.745 0 .838.207.92.629.082.422-.094 1.131-.627 1.664l-3 3a1 1 0 00-.293.719V20h6v-2h-2.586l1.293-1.293c.967-.967 1.41-2.258 1.176-3.46C21.649 12.042 20.49 11 19 11z" fill="#aee3f8" fill-rule="evenodd"/></svg>