<svg xmlns="http://www.w3.org/2000/svg" viewBox="0 0 24 24"><path d="M10 5L5 19h3l1.455-4h5.09L16 19h3L14 5zm2 3l1.818 5h-3.636z" opacity=".7" stroke="#000" stroke-width="2" stroke-linejoin="round"/><path d="M10 5L5 19h3l1.455-4h5.09L16 19h3L14 5zm2 3l1.818 5h-3.636z" fill="#fff"/><path d="M19 22l-3-4h2v-4h2v4h2z" opacity=".7" stroke="#000" stroke-width="2" stroke-linejoin="round"/><path d="M19 22l-3-4h2v-4h2v4h2z" fill="#aee3f8"/><path d="M19 2l-3 4h2v4h2V6h2z" opacity=".7" stroke="#000" stroke-width="2" stroke-linejoin="round"/><path d="M19 2l-3 4h2v4h2V6h2z" fill="#aee3f8"/></svg>