<svg xmlns="http://www.w3.org/2000/svg" viewBox="0 0 24 24"><path d="M6 19c-.417 0-.766.238-.979.492-.212.255-.343.535-.468.785s-.244.47-.344.59c-.1.12-.126.133-.209.133v1c.417 0 .766-.238.979-.492.212-.255.343-.535.468-.785s.244-.47.344-.59c.1-.12.126-.133.209-.133.083 0 .109.012.209.133.1.12.219.34.344.59.125.25.256.53.468.785.213.254.562.492.979.492.417 0 .766-.238.979-.492.212-.255.343-.535.468-.785s.244-.47.344-.59c.1-.12.126-.133.209-.133.083 0 .109.012.209.133.1.12.219.34.344.59.125.25.256.53.468.785.213.254.562.492.979.492.417 0 .766-.238.979-.492.212-.255.343-.535.468-.785s.244-.47.344-.59c.1-.12.126-.133.209-.133.083 0 .109.012.209.133.1.12.219.34.344.59.125.25.256.53.468.785.213.254.562.492.979.492.417 0 .766-.238.979-.492.212-.255.343-.535.468-.785s.244-.47.344-.59c.1-.12.126-.133.209-.133.083 0 .109.012.209.133.1.12.219.34.344.59.125.25.256.53.468.785.213.254.562.492.979.492v-1c-.083 0-.109-.012-.209-.133-.1-.12-.219-.34-.344-.59-.125-.25-.256-.53-.468-.785-.213-.254-.562-.492-.979-.492-.417 0-.766.238-.979.492-.212.255-.343.535-.468.785s-.244.47-.344.59c-.1.12-.126.133-.209.133-.083 0-.109-.012-.209-.133-.1-.12-.219-.34-.344-.59-.125-.25-.256-.53-.468-.785-.213-.254-.562-.492-.979-.492-.417 0-.766.238-.979.492-.212.255-.343.535-.468.785s-.244.47-.344.59c-.1.12-.126.133-.209.133-.083 0-.109-.012-.209-.133-.1-.12-.219-.34-.344-.59-.125-.25-.256-.53-.468-.785-.213-.254-.562-.492-.979-.492-.417 0-.766.238-.979.492-.212.255-.343.535-.468.785s-.244.47-.344.59c-.1.12-.126.133-.209.133-.083 0-.109-.012-.209-.133-.1-.12-.219-.34-.344-.59-.125-.25-.256-.53-.468-.785C6.766 19.238 6.417 19 6 19z" style="line-height:normal;font-variant-ligatures:normal;font-variant-position:normal;font-variant-caps:normal;font-variant-numeric:normal;font-variant-alternates:normal;font-feature-settings:normal;text-indent:0;text-align:start;text-decoration-line:none;text-decoration-style:solid;text-decoration-color:#000;text-transform:none;text-orientation:mixed;white-space:normal;shape-padding:0;isolation:auto;mix-blend-mode:normal;solid-color:#000;solid-opacity:1" color="#000" font-weight="400" font-family="sans-serif" overflow="visible" opacity=".8" fill="#fff" stroke="#fff" stroke-width="2" stroke-linejoin="round"/><path d="M10 3L5 17h3l1.455-4h5.09L16 17h3L14 3zm2 3l1.818 5h-3.636z" opacity=".7" stroke="#000" stroke-width="2" stroke-linejoin="round"/><path d="M10 3L5 17h3l1.455-4h5.09L16 17h3L14 3zm2 3l1.818 5h-3.636z" fill="#fff"/><path style="line-height:normal;font-variant-ligatures:normal;font-variant-position:normal;font-variant-caps:normal;font-variant-numeric:normal;font-variant-alternates:normal;font-feature-settings:normal;text-indent:0;text-align:start;text-decoration-line:none;text-decoration-style:solid;text-decoration-color:#000;text-transform:none;text-orientation:mixed;white-space:normal;shape-padding:0;isolation:auto;mix-blend-mode:normal;solid-color:#000;solid-opacity:1" d="M6 19c-.417 0-.766.238-.979.492-.212.255-.343.535-.468.785s-.244.47-.344.59c-.1.12-.126.133-.209.133v1c.417 0 .766-.238.979-.492.212-.255.343-.535.468-.785s.244-.47.344-.59c.1-.12.126-.133.209-.133.083 0 .109.012.209.133.1.12.219.34.344.59.125.25.256.53.468.785.213.254.562.492.979.492.417 0 .766-.238.979-.492.212-.255.343-.535.468-.785s.244-.47.344-.59c.1-.12.126-.133.209-.133.083 0 .109.012.209.133.1.12.219.34.344.59.125.25.256.53.468.785.213.254.562.492.979.492.417 0 .766-.238.979-.492.212-.255.343-.535.468-.785s.244-.47.344-.59c.1-.12.126-.133.209-.133.083 0 .109.012.209.133.1.12.219.34.344.59.125.25.256.53.468.785.213.254.562.492.979.492.417 0 .766-.238.979-.492.212-.255.343-.535.468-.785s.244-.47.344-.59c.1-.12.126-.133.209-.133.083 0 .109.012.209.133.1.12.219.34.344.59.125.25.256.53.468.785.213.254.562.492.979.492v-1c-.083 0-.109-.012-.209-.133-.1-.12-.219-.34-.344-.59-.125-.25-.256-.53-.468-.785-.213-.254-.562-.492-.979-.492-.417 0-.766.238-.979.492-.212.255-.343.535-.468.785s-.244.47-.344.59c-.1.12-.126.133-.209.133-.083 0-.109-.012-.209-.133-.1-.12-.219-.34-.344-.59-.125-.25-.256-.53-.468-.785-.213-.254-.562-.492-.979-.492-.417 0-.766.238-.979.492-.212.255-.343.535-.468.785s-.244.47-.344.59c-.1.12-.126.133-.209.133-.083 0-.109-.012-.209-.133-.1-.12-.219-.34-.344-.59-.125-.25-.256-.53-.468-.785-.213-.254-.562-.492-.979-.492-.417 0-.766.238-.979.492-.212.255-.343.535-.468.785s-.244.47-.344.59c-.1.12-.126.133-.209.133-.083 0-.109-.012-.209-.133-.1-.12-.219-.34-.344-.59-.125-.25-.256-.53-.468-.785C6.766 19.238 6.417 19 6 19z" color="#000" font-weight="400" font-family="sans-serif" overflow="visible" fill="#c7162b"/></svg>