<svg xmlns="http://www.w3.org/2000/svg" viewBox="0 0 24 24"><path d="M9 19H5V5h14v14zm11-2V4H4v16h16z" fill="#e95420"/><path d="M9 18H6V6h12v12zm10-1V5H5v14h14z" fill="#232629"/><rect width="12" height="12" x="6" y="6" ry="0" fill="#fff"/><path d="M17.951 13A2 2 0 0016 15v2h-1v4h6v-4h-1v-2a2 2 0 00-2-2 2 2 0 00-.049 0zM18 14a1 1 0 011 1v2h-2v-2a1 1 0 011-1z" opacity=".6" fill-rule="evenodd" stroke="#000" stroke-width="2" stroke-linecap="round" stroke-linejoin="round"/><path d="M17.951 13A2 2 0 0016 15v2h-1v4h6v-4h-1v-2a2 2 0 00-2-2 2 2 0 00-.049 0zM18 14a1 1 0 011 1v2h-2v-2a1 1 0 011-1z" fill="#fee581" fill-rule="evenodd"/></svg>