<svg xmlns="http://www.w3.org/2000/svg" viewBox="0 0 24 24"><path style="line-height:normal;font-variant-ligatures:normal;font-variant-position:normal;font-variant-caps:normal;font-variant-numeric:normal;font-variant-alternates:normal;font-feature-settings:normal;text-indent:0;text-align:start;text-decoration-line:none;text-decoration-style:solid;text-decoration-color:#000;text-transform:none;text-orientation:mixed;white-space:normal;shape-padding:0;isolation:auto;mix-blend-mode:normal;solid-color:#000;solid-opacity:1" d="M6 9L1.826 21h2.008l1-3h4.338l1 3h2L7.942 9H6zm1.004 2.492L8.506 16H5.502l1.502-4.508zM14 12v9h5.5a2.5 2.5 0 002.5-2.5 2.5 2.5 0 00-1.633-2.342A2.5 2.5 0 0021 14.5a2.5 2.5 0 00-2.5-2.5H14z" color="#000" font-weight="400" font-family="sans-serif" overflow="visible" opacity=".7" fill-rule="evenodd" stroke="#000" stroke-width="2" stroke-linejoin="round"/><path style="line-height:normal;font-variant-ligatures:normal;font-variant-position:normal;font-variant-caps:normal;font-variant-numeric:normal;font-variant-alternates:normal;font-feature-settings:normal;text-indent:0;text-align:start;text-decoration-line:none;text-decoration-style:solid;text-decoration-color:#000;text-transform:none;text-orientation:mixed;white-space:normal;shape-padding:0;isolation:auto;mix-blend-mode:normal;solid-color:#000;solid-opacity:1" d="M14 12h4.5a2.5 2.5 0 012.5 2.5 2.5 2.5 0 01-.633 1.658A2.5 2.5 0 0122 18.5a2.5 2.5 0 01-2.5 2.5H14zm2 2h2.5c.288 0 .5.318.5.75s-.212.75-.5.75H16zm0 3.5h3.5c.288 0 .5.318.5.75s-.212.75-.5.75H16z" color="#000" font-weight="400" font-family="sans-serif" overflow="visible" fill="#fff" fill-rule="evenodd"/><path d="M6 9L1.826 21h2.008l1-3h4.338l1 3h2L7.942 9h-1.77zm1.004 2.492L8.506 16H5.502z" fill="#fff"/><path d="M15 3l3 4 3-4z" opacity=".7" stroke="#000" stroke-width="2" stroke-linejoin="round"/><path d="M15 3l3 4 3-4z" fill="#aee3f8"/></svg>