<svg xmlns="http://www.w3.org/2000/svg" viewBox="0 0 24 24"><path d="M12 4c-1.105 0-2.344 2.344-2.344 2.344s-2.531-.781-3.312 0 0 3.312 0 3.312S4 10.896 4 12s2.344 2.344 2.344 2.344-.781 2.531 0 3.312 3.312 0 3.312 0S10.896 20 12 20s2.344-2.344 2.344-2.344 2.531.781 3.312 0 0-3.312 0-3.312S20 13.104 20 12s-2.344-2.344-2.344-2.344.781-2.531 0-3.312-3.312 0-3.312 0S13.104 4 12 4zm0 4a4 4 0 110 8 4 4 0 010-8z" stroke="#000" opacity=".6" stroke-width="2" stroke-linejoin="round"/><path d="M12 4c-1.105 0-2.344 2.344-2.344 2.344s-2.531-.781-3.312 0 0 3.312 0 3.312S4 10.896 4 12s2.344 2.344 2.344 2.344-.781 2.531 0 3.312 3.312 0 3.312 0S10.896 20 12 20s2.344-2.344 2.344-2.344 2.531.781 3.312 0 0-3.312 0-3.312S20 13.104 20 12s-2.344-2.344-2.344-2.344.781-2.531 0-3.312-3.312 0-3.312 0S13.104 4 12 4zm0 4a4 4 0 110 8 4 4 0 010-8z" fill="#fff"/></svg>