<svg xmlns="http://www.w3.org/2000/svg" viewBox="0 0 24 24"><path d="M16 20c-2 0-3 0-3-2V6c0-2 1-2 3-2h3l1 1 2 2 1 1v10c0 2-1 2-3 2z" opacity=".7" stroke="#000" stroke-width="2" stroke-linejoin="round"/><path d="M16 20c-2 0-3 0-3-2V6c0-2 1-2 3-2h3l1 1 2 2 1 1v10c0 2-1 2-3 2z" fill="#fff"/><path d="M19 8V4l4 4z" fill="#6d6d6d"/><path d="M8 20c2 0 3 0 3-2V6c0-2-1-2-3-2H5L4 5 2 7 1 8v10c0 2 1 2 3 2z" opacity=".7" stroke="#000" stroke-width="2" stroke-linejoin="round"/><path d="M8 20c2 0 3 0 3-2V6c0-2-1-2-3-2H5L4 5 2 7 1 8v10c0 2 1 2 3 2z" fill="#fff"/><path d="M5 8V4L1 8z" fill="#6d6d6d"/></svg>