<svg xmlns="http://www.w3.org/2000/svg" viewBox="0 0 24 24"><path fill="#fff" d="M6 6h12v12H6z"/><path opacity=".7" d="M4 4v4h4V4z"/><path fill="#aee3f8" d="M5 5v2h2V5z"/><path opacity=".7" d="M16 4v4h4V4z"/><path fill="#aee3f8" d="M17 5v2h2V5z"/><path opacity=".7" d="M16 16v4h4v-4z"/><path fill="#aee3f8" d="M17 17v2h2v-2z"/><path opacity=".7" d="M4 16v4h4v-4z"/><path fill="#aee3f8" d="M5 17v2h2v-2z"/><path fill="#1463a5" d="M8 5h8v2H8zM17 8h2v8h-2zM5 8h2v8H5zM8 17h8v2H8z"/><path d="M17.951 13A2 2 0 0016 15v2h-1v4h6v-4h-1v-2a2 2 0 00-2-2 2 2 0 00-.049 0zM18 14a1 1 0 011 1v2h-2v-2a1 1 0 011-1z" opacity=".6" fill-rule="evenodd" stroke="#000" stroke-width="2" stroke-linecap="round" stroke-linejoin="round"/><path d="M17.951 13A2 2 0 0016 15v2h-1v4h6v-4h-1v-2a2 2 0 00-2-2 2 2 0 00-.049 0zM18 14a1 1 0 011 1v2h-2v-2a1 1 0 011-1z" fill="#fee581" fill-rule="evenodd"/></svg>