<svg xmlns="http://www.w3.org/2000/svg" viewBox="0 0 24 24"><path d="M9 4L4 9v6l5 5h6l5-5V9l-5-5z" stroke="#000" opacity=".6" stroke-width="2" stroke-linejoin="round"/><path d="M9 4L4 9v6l5 5h6l5-5V9l-5-5z" fill="#6d6d6d"/><path d="M9.531 4l1.5 4h1.938l1.5-4zm-.937.406L4.406 8.594l4 1.5 1.688-1.688zm6.812 0l-1.5 4 1.688 1.688 4-1.5zM4 9.531v4.938l4-1.5V11.03zm16 0l-4 1.5v1.938l4 1.5zM8.406 13.906l-4 1.5 4.188 4.188 1.5-4zm7.188 0l-1.688 1.688 1.5 4 4.188-4.188zM11.03 16l-1.5 4h4.938l-1.5-4z" fill="#fff"/></svg>