<svg xmlns="http://www.w3.org/2000/svg" viewBox="0 0 24 24"><path opacity=".6" stroke="#000" stroke-width="2" stroke-linecap="round" stroke-linejoin="round" d="M3 3h18v18H3z"/><path fill="#fff" d="M3 3h18v18H3z"/><path d="M10.481 19.52c1.777-.502 6.218-5.076 4.442-2.87-1.777 2.204-.202 2.91 1.091 2.351 1.293-.559 4.238-3.542 3.35-2.527-.888 1.015-.888 1.015-1.777 3.045" fill="none" stroke="#000" stroke-width=".949" stroke-linecap="round" stroke-linejoin="round"/><g stroke-width="27.2"><path d="M13.3 13.553L9 17l.835-5.447.264-.456 3.464 2z" fill="#fec589"/><path style="marker:none" d="M9.204 15.696L9 17l1.027-.829c-.004.008-.823-.475-.823-.475z" color="#000" overflow="visible" fill="#5d5d5d"/><path d="M9.835 11.553s3.465 2.088 3.464 2l6.433-11.141-3.464-2z" fill="#2f5fdd"/></g></svg>