<svg xmlns="http://www.w3.org/2000/svg" viewBox="0 0 24 24"><path d="M4 14v5h1v-2h14v2h1v-5h-1v2H5v-2z" opacity=".6" stroke="#000" stroke-width="2" stroke-linejoin="round"/><path d="M4 14v5h1v-2h14v2h1v-5h-1v2H5v-2z" fill="#aee3f8"/><path d="M5 4v8h14V4z" fill="#fff"/><path d="M7 3C5 3 4 3 4 5v7h1v-2h4v2h1v-2h4v2h1v-2h4v2h1V5c0-2-1-2-3-2zm0 1h2v2H5V5c0-1 1-1 2-1zm3 0h4v2h-4V5zm5 0h2c1 0 2 0 2 1v1h-4V5zM5 7h4v2H5zm5 0h4v2h-4zm5 0h4v2h-4z" fill="#6d6d6d"/><path d="M10.5 13a1.5 1.5 0 100 3 1.5 1.5 0 000-3zm3.828 0L9 19.402l.672.598L15 13.598zM10.5 14a.5.5 0 110 1 .5.5 0 010-1zm3 3a1.5 1.5 0 100 3 1.5 1.5 0 000-3zm0 1a.5.5 0 110 1 .5.5 0 010-1z" stroke="#000" opacity=".6" stroke-width="2" stroke-linejoin="round"/><path d="M10.5 13a1.5 1.5 0 100 3 1.5 1.5 0 000-3zm3.828 0L9 19.402l.672.598L15 13.598zM10.5 14a.5.5 0 110 1 .5.5 0 010-1zm3 3a1.5 1.5 0 100 3 1.5 1.5 0 000-3zm0 1a.5.5 0 110 1 .5.5 0 010-1z" fill="#aee3f8"/><circle cx="10.5" cy="14.5" r=".5" opacity=".6"/><circle cx="13.5" cy="18.5" r=".5" opacity=".6"/></svg>