<svg xmlns="http://www.w3.org/2000/svg" viewBox="0 0 24 24"><path d="M-16 6v6h1v-1h4v1h1v-1h4v1h1v-1h4v1h1V6c0-2-1-2-2.993-2H-13c-2 0-3 0-3 2zm3-1h2v2h-4V6c0-1 1-1 2-1zm3 0h4v2h-4zm5 0h2c1 0 2 0 2 1v1h-4zm-10 3h4v2h-4zm5 0h4v2h-4zm5 0h4v2h-4z" fill="#232629"/><path d="M5 4v8h14V4z" fill="#fff"/><path d="M7 3C5 3 4 3 4 5v7h1v-2h4v2h1v-2h4v2h1v-2h4v2h1V5c0-2-1-2-3-2zm0 1h2v2H5V5c0-1 1-1 2-1zm3 0h4v2h-4V5zm5 0h2c1 0 2 0 2 1v1h-4V5zM5 7h4v2H5zm5 0h4v2h-4zm5 0h4v2h-4z" fill="#6d6d6d"/><path d="M7.297 13.996L5 16v-2H4v5h1v-2l2.297 2.004.707-.707L6.707 17h10.59L16 18.297l.707.707L19 17v2h1v-5h-1v2l-2.293-2.004-.707.707L17.297 16H6.707l1.297-1.297z" opacity=".6" stroke="#000" stroke-width="2" stroke-linejoin="round"/><path d="M7.297 13.996L5 16v-2H4v5h1v-2l2.297 2.004.707-.707L6.707 17h10.59L16 18.297l.707.707L19 17v2h1v-5h-1v2l-2.293-2.004-.707.707L17.297 16H6.707l1.297-1.297z" fill="#aee3f8"/></svg>