<svg xmlns="http://www.w3.org/2000/svg" width="24" height="24" viewBox="0 0 6.35 6.35"><g transform="translate(72.307 -147.888)"><path d="M-70.456 148.682c-.333.004-.577-.008-.776.102a.497.497 0 00-.222.264c-.043.116-.06.254-.06.428v2.91c0 .174.017.312.06.428a.496.496 0 00.222.264c.2.11.443.098.776.102h2.648c.333-.004.577.008.776-.102a.497.497 0 00.222-.264c.043-.116.06-.254.06-.428V149.476c0-.174-.016-.312-.06-.428a.496.496 0 00-.222-.264c-.199-.11-.443-.098-.775-.102h-2.648z" style="line-height:125%;-inkscape-font-specification:Ubuntu;text-align:center" font-weight="400" font-size="15" font-family="Ubuntu" letter-spacing="0" word-spacing="0" text-anchor="middle" opacity=".6"/><path d="M-69.665 148.954c-.412.003-.823-.003-1.233.01-.122.011-.27.055-.306.188-.058.168-.029.353-.039.524-.002.608-.006 2.275.006 2.88.01.123.054.269.185.308.167.06.34.033.512.041.377.002 1.284.003 1.66.003.452 0 .903 0 1.352-.005.136-.003.313.005.42-.107.11-.143.075-.335.085-.504.003-.646.007-2.357-.006-3.005-.013-.106-.045-.228-.152-.276-.177-.078-.378-.044-.563-.054-.464-.003-1.457-.003-1.921-.003z" fill="#fa9381"/><circle cy="152.526" cx="-67.412" r=".926" fill="#46a926"/><path overflow="visible" font-weight="400" style="line-height:normal;text-indent:0;text-align:start;text-decoration-line:none;text-decoration-style:solid;text-decoration-color:#000;text-transform:none;white-space:normal;isolation:auto;mix-blend-mode:normal;marker:none" d="M-67.544 151.864v.53h-.53v.264h.53v.53h.264v-.53h.53v-.265h-.53v-.529z" color="#000" font-family="sans-serif" fill="#fff"/><path d="M-70.19 150.005v.53h.794v1.587h.529v-1.588h.793v-.529z" fill="#fff"/></g></svg>