<svg xmlns="http://www.w3.org/2000/svg" viewBox="0 0 24 24"><path d="M6 6C4.338 6 3 7.338 3 9v6H1v3h22v-3h-2V9c0-1.662-1.338-3-3-3z" opacity=".6" fill-rule="evenodd" stroke="#000" stroke-width="2" stroke-linejoin="round"/><path d="M6 6C4.338 6 3 7.338 3 9v6H1v3h22v-3h-2V9c0-1.662-1.338-3-3-3z" fill="#fff" fill-rule="evenodd"/><path fill="#e95420" fill-rule="evenodd" d="M3 13h18v2H3z"/><circle cy="19.5" cx="20.5" r="3.5" fill="#46a926"/><path overflow="visible" font-weight="400" style="line-height:normal;text-indent:0;text-align:start;text-decoration-line:none;text-decoration-style:solid;text-decoration-color:#000;text-transform:none;white-space:normal;isolation:auto;mix-blend-mode:normal;marker:none" d="M20 17v2h-2v1h2v2h1v-2h2v-1h-2v-2z" color="#000" font-family="sans-serif" fill="#fff"/></svg>