<svg xmlns="http://www.w3.org/2000/svg" viewBox="0 0 24 24"><path d="M18.598 12L16 14.053l.822 1.017.926-.74c.11-.087.309-.27.592-.55l-.028.83-.017.761V20H20v-8z" fill="#1a1a1a" stroke="#1a1a1a" opacity=".6" stroke-width="2" stroke-linejoin="round"/><path d="M4 4v2h6v14h2V6h6V4z" stroke="#000" opacity=".6" stroke-width="2" stroke-linejoin="round"/><path d="M4 4v2h6v14h2V6h6V4z" fill="#fff"/><path d="M18.598 12L16 14.053l.822 1.017.926-.74c.11-.087.309-.27.592-.55l-.028.83-.017.761V20H20v-8z" fill="#aee3f8"/></svg>