<svg xmlns="http://www.w3.org/2000/svg" width="24" height="24" viewBox="0 0 6.35 6.35"><path d="M1.85.794c-.332.004-.576-.008-.775.101a.497.497 0 00-.222.265c-.043.116-.06.253-.06.427v2.911c0 .174.017.312.06.428a.496.496 0 00.222.263c.199.11.443.099.776.103H4.5c.333-.004.577.008.776-.102a.497.497 0 00.222-.264c.043-.116.06-.254.06-.428V1.587c0-.174-.017-.311-.06-.427a.496.496 0 00-.222-.264c-.2-.11-.443-.098-.776-.102H1.852z" style="line-height:125%;-inkscape-font-specification:Ubuntu;text-align:center" font-weight="400" font-size="15" font-family="Ubuntu" letter-spacing="0" word-spacing="0" text-anchor="middle" opacity=".6"/><path d="M2.641 1.065c-.411.003-.822-.003-1.233.01-.122.012-.268.055-.305.189-.058.168-.029.352-.039.524-.002.608-.006 2.274.006 2.88.01.122.054.268.185.308.167.06.34.033.512.04.377.003 1.283.004 1.66.004.452 0 .902-.001 1.352-.005.135-.003.313.005.42-.107.11-.143.075-.336.085-.504.003-.647.007-2.358-.006-3.005-.013-.106-.045-.228-.152-.276-.177-.078-.378-.045-.563-.055-.464-.003-1.457-.003-1.922-.003z" fill="#fa9381"/><path d="M2.117 2.117v.529h.793v1.587h.53V2.646h.793v-.53z" fill="#fff"/></svg>