<svg xmlns="http://www.w3.org/2000/svg" viewBox="0 0 24 24"><path fill="#fff" d="M4 4h16v16H4z"/><path d="M6 3C4 3 3 3 3 5v14c0 2 1 2 3 2h12c2 0 3 0 3-2V5c0-2-1-2-3-2zM4 5c0-1 1-1 2-1h3v3H4zm6-1h4v3h-4V5zm5 0h3c1 0 2 0 2 1v2h-5V5zM4 8h5v2H4zm6 0h4v2h-4zm5 0h5v2h-5zM4 11h5v2H4zm6 0h4v2h-4zm5 0h5v2h-5zM4 14h5v2H4zm6 0h4v2h-4zm5 0h5v2h-5zM4 17h5v3H6c-1 0-2 0-2-1zm6 0h4v3h-4zm5 0h5v2c0 1-1 1-2 1h-3z" fill="#6d6d6d"/><path d="M17.299 12.5c-.165 0-.299.211-.299.475v.763h-.098l-1.123.48-.072.075-.553-.553c-.186-.186-.43-.242-.547-.125l-.992.992c-.117.117-.06.361.125.547l.553.553-.074.072-.48 1.123V17h-.764c-.264 0-.475.134-.475.299V18.7c0 .165.211.299.475.299h.763v.105l.48 1.124.071.068-.549.549c-.186.186-.242.43-.125.547l.992.992c.117.117.361.06.547-.125l.55-.55.075.08 1.123.481H17v.754c0 .264.134.475.299.475H18.7c.165 0 .299-.211.299-.475v-.754h.105l1.124-.482.072-.074.545.545c.186.186.43.242.547.125l.992-.992c.117-.117.06-.361-.125-.547l-.545-.545.074-.072.482-1.124V19h.754c.264 0 .475-.134.475-.299V17.3c0-.165-.211-.299-.475-.299h-.754v-.098l-.482-1.123-.078-.076.549-.549c.186-.186.242-.43.125-.547l-.992-.992c-.117-.117-.361-.06-.547.125l-.55.55-.067-.071-1.124-.48H19v-.764c0-.264-.134-.475-.299-.475zm.705 4c.83 0 1.504.674 1.504 1.504s-.675 1.504-1.504 1.504c-.83 0-1.504-.675-1.504-1.504 0-.83.674-1.504 1.504-1.504z" display="block" stroke-width=".999708" stroke-linejoin="round" fill="#b3b3b3" stroke="#6d6d6d"/><circle cx="18" cy="18" r="1" fill="#fff"/></svg>