<svg xmlns="http://www.w3.org/2000/svg" viewBox="0 0 24 24"><path d="M4 4v16h10.178c.084-.177.19-.347.33-.496-.402-.428-.629-.99-.387-1.576l.461-1.114a1 1 0 000-.002c.243-.585.8-.822 1.387-.841.018-.585.253-1.137.844-1.381l1.117-.463c.59-.245 1.146-.02 1.572.38.136-.126.218-.32.387-.39.035-.015.074-.02.111-.033V4H4zm15.44 15.354c-.063.026-.114.149-.088.21.025.061.152.113.212.088.063-.026.114-.149.088-.21-.025-.061-.152-.114-.213-.088z" fill="#fff"/><path d="M6 3C4 3 3 3 3 5v14c0 2 1 2 3 2h8.11c-.196-.56.015-1.087.398-1.496-.402-.428-.629-.99-.387-1.576l.461-1.114a1 1 0 000-.002c.211-.51.664-.744 1.164-.812H15v-2h5v.084a1.533 1.533 0 011 .014V5c0-2-1-2-3-2H6zm0 1h3v3H4V5c0-1 1-1 2-1zm4 0h4v3h-4V4zm5 0h3c1 0 2 0 2 1v2h-5V4zM4 8h5v2H4V8zm6 0h4v2h-4V8zm5 0h5v2h-5V8zM4 11h5v2H4v-2zm6 0h4v2h-4v-2zm5 0h5v2h-5v-2zM4 14h5v2H4v-2zm6 0h4v2h-4v-2zm-6 3h5v3H6c-1 0-2 0-2-1v-2zm6 0h4v3h-4v-3z" fill="#6d6d6d"/><circle cx="19.5" cy="19.5" r="1.5" fill="#fff" fill-rule="evenodd"/><g transform="translate(8 8)"><circle cx="11.5" cy="11.5" r="1.5" fill="#fff" fill-rule="evenodd"/><path d="M9.311 7.792a.244.244 0 00-.135.325l.273.657c-.26.195-.472.424-.662.678l-.674-.279a.248.248 0 00-.329.136l-.462 1.115a.248.248 0 00.137.329l.673.279a3.312 3.312 0 00-.011.948l-.657.272a.244.244 0 00-.135.325l.463 1.117c.054.13.194.189.325.135l.657-.272c.195.26.424.471.678.662l-.279.673a.248.248 0 00.136.329l1.115.462a.248.248 0 00.329-.136l.279-.674c.314.045.626.057.948.012l.272.657c.054.13.195.188.325.134l1.117-.462a.244.244 0 00.135-.326l-.272-.657c.26-.195.471-.424.662-.678l.673.28a.248.248 0 00.329-.137l.462-1.115a.248.248 0 00-.136-.329l-.674-.279c.045-.314.057-.625.012-.947l.657-.273a.244.244 0 00.134-.325l-.462-1.117a.244.244 0 00-.326-.135l-.657.273a3.312 3.312 0 00-.678-.662l.28-.674a.248.248 0 00-.137-.329l-1.115-.462a.248.248 0 00-.329.137l-.279.673a3.312 3.312 0 00-.947-.011l-.273-.657a.244.244 0 00-.325-.135zm1.756 2.66a1.138 1.138 0 11.87 2.103 1.138 1.138 0 01-.87-2.104z" display="block" fill="#d3d3d3" stroke="#4d4d4d" stroke-linejoin="round" stroke-width=".6"/></g></svg>