<svg xmlns="http://www.w3.org/2000/svg" viewBox="0 0 24 24"><path d="M8 11H6v8h12v-8h-2V9a4 4 0 10-8 0h1a3 3 0 016 0v2H9z" opacity=".6" stroke="#000" stroke-width="2" stroke-linecap="round" stroke-linejoin="round" stroke-miterlimit="1.7"/><path d="M8 11H6v8h12v-8h-2V9a4 4 0 10-8 0h1a3 3 0 016 0v2H9z" fill="#fee581"/><circle cy="18.5" cx="17.5" r="3.5" fill="#c7162b"/><path overflow="visible" font-weight="400" style="line-height:normal;text-indent:0;text-align:start;text-decoration-line:none;text-decoration-style:solid;text-decoration-color:#000;text-transform:none;white-space:normal;isolation:auto;mix-blend-mode:normal;marker:none" d="M18.914 16.379L17.5 17.793l-1.414-1.414-.707.707 1.414 1.414-1.414 1.414.707.707 1.414-1.414 1.414 1.414.707-.707-1.414-1.414 1.414-1.414z" color="#000" font-family="sans-serif" fill="#fff"/></svg>