<svg xmlns="http://www.w3.org/2000/svg" viewBox="0 0 24 24"><path opacity=".6" stroke="#000" stroke-width="2" stroke-linejoin="round" d="M4 4h16v16H4z"/><path fill="#fff" d="M4 4h16v16H4z"/><path fill="#6d6d6d" d="M4 4h16v5H4z"/><path fill="#924d8b" d="M10 11h9v2h-9z"/><rect y="10" x="5" height="4" width="4" ry="1" opacity=".6"/><path fill="#fff" d="M6 11h2v2H6z"/><path fill="#924d8b" d="M10 16h9v2h-9z"/><rect ry="1" width="4" height="4" x="5" y="15" opacity=".6"/><path fill="#fff" d="M6 16h2v2H6z"/><path fill="#fff" fill-rule="evenodd" d="M13 15h9v7h-9z"/><path fill="#6d6d6d" d="M13 15h9v2h-9z"/><path d="M12 16v5c0 2 1 2 3 2h5c2 0 3 0 3-2v-5c0-2-1-2-3-2h-5c-2 0-3 0-3 2zm3-1h2v4h-4v-3c0-1 1-1 2-1zm3 0h2c1 0 2 0 2 1v3h-4zm-5 5h4v2h-2c-1 0-2 0-2-1zm5 0h4v1c0 .858-1 1-2 1h-2z" fill="#6d6d6d"/></svg>