<svg xmlns="http://www.w3.org/2000/svg" viewBox="0 0 24 24"><path style="line-height:125%;-inkscape-font-specification:Ubuntu;text-align:center" d="M20 5.994c-.015-1.258.03-2.179-.384-2.932a1.879 1.879 0 00-.998-.837C18.178 2.06 17.658 2 17 2H6c-.658 0-1.179.06-1.618.225a1.875 1.875 0 00-.996.837c-.415.753-.371 1.674-.386 2.932v10.012c.015 1.258-.03 2.179.384 2.931.208.377.56.674.998.838.44.165.96.225 1.618.225h11c.658 0 1.179-.06 1.618-.225.438-.164.788-.461.996-.838.415-.752.371-1.673.386-2.931V5.998z" font-weight="400" font-size="15" font-family="Ubuntu" letter-spacing="0" word-spacing="0" text-anchor="middle" opacity=".6"/><path d="M18.973 8.983c-.011-1.556.012-3.11-.039-4.66-.042-.46-.206-1.016-.71-1.155-.635-.219-1.334-.108-1.982-.146-2.297-.008-8.596-.023-10.886.022-.461.039-1.012.202-1.163.699-.225.632-.123 1.284-.154 1.936-.008 1.424-.012 4.85-.012 6.276 0 1.704.004 3.408.02 5.107.01.512-.02 1.184.404 1.585.54.421 1.268.287 1.904.323 2.444.011 8.911.027 11.357-.022.402-.05.863-.17 1.045-.575.294-.669.167-1.427.205-2.126.011-1.755.011-5.51.011-7.264z" fill="#fa9381"/><path d="M15 7h-2v3H7v2h6v3h2z" fill="#fff"/></svg>