<svg xmlns="http://www.w3.org/2000/svg" viewBox="0 0 24 24"><path d="M13 8v9h8V8z" opacity=".7" stroke="#000" stroke-width="2" stroke-linejoin="round"/><path d="M13 8v9h8V8z" fill="#d85eca"/><path fill="#232629" fill-rule="evenodd" d="M2 5h20v1H2z"/><path fill="#fff" fill-rule="evenodd" d="M3 6h18v1H3z"/><path fill="#232629" fill-rule="evenodd" d="M2 20h20v-1H2z"/><path fill="#fff" fill-rule="evenodd" d="M3 19h18v-1H3z"/><path d="M2 7v1h9V7H6.5zM2 9v1h9V9H6.5zM2 11v1h9v-1H6.5zM2 13v1h9v-1H6.5zM2 15v1h9v-1H6.5zM2 17v1h9v-1H6.5z" fill="#232629" fill-rule="evenodd"/><path d="M3 8v1h9V8H7.5zM3 10v1h9v-1H7.5zM3 12v1h9v-1H7.5zM3 14v1h9v-1H7.5zM3 16v1h9v-1H7.5z" fill="#fff" fill-rule="evenodd"/><path fill="#232629" fill-rule="evenodd" d="M2 3h20v1H2z"/><path fill="#fff" fill-rule="evenodd" d="M3 4h18v1H3z"/><path fill="#232629" fill-rule="evenodd" d="M2 22h20v-1H2z"/><path fill="#fff" fill-rule="evenodd" d="M3 21h18v-1H3z"/></svg>