<svg xmlns="http://www.w3.org/2000/svg" viewBox="0 0 24 24"><path fill="#232629" fill-rule="evenodd" d="M2 5h20v1H2z"/><path fill="#fff" fill-rule="evenodd" d="M3 6h18v1H3z"/><path fill="#232629" fill-rule="evenodd" d="M2 20h20v-1H2z"/><path fill="#fff" fill-rule="evenodd" d="M3 19h18v-1H3z"/><path fill="#232629" fill-rule="evenodd" d="M2 3h20v1H2z"/><path fill="#fff" fill-rule="evenodd" d="M3 4h18v1H3z"/><path fill="#232629" fill-rule="evenodd" d="M2 22h20v-1H2z"/><path fill="#fff" fill-rule="evenodd" d="M3 21h18v-1H3z"/><path d="M2 9v1h5V9H2zm15 0v1h5V9h-5z" fill="#232629" fill-rule="evenodd"/><path d="M3 10v1h4v-1H3zm14 0v1h4v-1h-4z" fill="#fff" fill-rule="evenodd"/><path d="M2 7v1h5V7H2zm15 0v1h5V7h-5z" fill="#232629" fill-rule="evenodd"/><path d="M3 8v1h4V8H3zm14 0v1h4V8h-4z" fill="#fff" fill-rule="evenodd"/><path d="M2 13v1h5v-1H2zm15 0v1h5v-1h-5z" fill="#232629" fill-rule="evenodd"/><path d="M3 14v1h4v-1H3zm14 0v1h4v-1h-4z" fill="#fff" fill-rule="evenodd"/><path d="M2 11v1h5v-1H2zm15 0v1h5v-1h-5z" fill="#232629" fill-rule="evenodd"/><path d="M3 12v1h4v-1H3zm14 0v1h4v-1h-4z" fill="#fff" fill-rule="evenodd"/><path d="M2 15v1h5v-1H2zm15 0v1h5v-1h-5z" fill="#232629" fill-rule="evenodd"/><path d="M3 16v1h4v-1H3zm14 0v1h4v-1h-4z" fill="#fff" fill-rule="evenodd"/><path d="M2 17v1h5v-1H2zm15 0v1h5v-1h-5z" fill="#232629" fill-rule="evenodd"/><path d="M8 8v9h8V8z" opacity=".7" stroke="#000" stroke-width="2" stroke-linejoin="round"/><path d="M8 8v9h8V8z" fill="#d85eca"/><path d="M7 9v1h10V9z" fill="#232629" fill-rule="evenodd" opacity=".5"/><path d="M7 10v1h10v-1z" fill="#fff" fill-rule="evenodd" opacity=".5"/><path d="M7 7v1h10V7z" fill="#232629" fill-rule="evenodd" opacity=".5"/><path d="M7 8v1h10V8z" fill="#fff" fill-rule="evenodd" opacity=".5"/><path d="M7 13v1h10v-1z" opacity=".5" fill="#232629" fill-rule="evenodd"/><path d="M7 14v1h10v-1z" opacity=".5" fill="#fff" fill-rule="evenodd"/><path d="M7 11v1h10v-1z" opacity=".5" fill="#232629" fill-rule="evenodd"/><path d="M7 12v1h10v-1z" opacity=".5" fill="#fff" fill-rule="evenodd"/><path d="M7 17v1h10v-1zM7 15v1h10v-1z" opacity=".5" fill="#232629" fill-rule="evenodd"/><path d="M7 16v1h10v-1z" opacity=".5" fill="#fff" fill-rule="evenodd"/></svg>