<svg xmlns="http://www.w3.org/2000/svg" viewBox="0 0 24 24"><path style="line-height:normal;font-variant-ligatures:normal;font-variant-position:normal;font-variant-caps:normal;font-variant-numeric:normal;font-variant-alternates:normal;font-variant-east-asian:normal;font-feature-settings:normal;font-variation-settings:normal;text-indent:0;text-align:start;text-decoration-line:none;text-decoration-style:solid;text-decoration-color:#000;text-transform:none;text-orientation:mixed;white-space:normal;shape-padding:0;shape-margin:0;inline-size:0;isolation:auto;mix-blend-mode:normal;solid-color:#000;solid-opacity:1" d="M10 4a1 1 0 00-.941.664l-5 14A1 1 0 005 20h3a1 1 0 00.94-.658L10.155 16H12v-1a1 1 0 011-1h.818a1 1 0 00.182-.016V13a1 1 0 01.557-.895l-1.618-4.447a1 1 0 00-1.878 0l-1.819 5a1 1 0 00.94 1.342h-.727a1 1 0 00-.94.658L7.3 18h-.881l4.287-12h2.59l2.143 6H17a1 1 0 01.646.238l-2.705-7.574A1 1 0 0014 4h-4zm2 6.926L12.39 12h-.78l.39-1.074zm3.818 4.648A1 1 0 0115 16a1 1 0 011 1 1 1 0 01.146-.521l-.328-.905zm1.045.416l.008.02A1 1 0 0117 16a1 1 0 01-.137-.01zM16 19a1 1 0 01-.5.865A1 1 0 0016 20h1a1 1 0 01-1-1z" color="#000" font-weight="400" font-family="sans-serif" overflow="visible" opacity=".7"/><path d="M10 5L5 19h3l1.455-4H12a1 1 0 011-1h1v-1a1 1 0 011-1h1.5L14 5h-4zm2 3l1.818 5h-3.636L12 8zm4 7a1 1 0 01-1 1 1 1 0 011 1 1 1 0 011-1 1 1 0 01-1-1z" fill="#fff"/><path d="M15 13v2h-2v2h2v2h-2v2h2v2h2v-2h2v2h2v-2h2v-2h-2v-2h2v-2h-2v-2h-2v2h-2v-2zm2 4h2v2h-2z" style="line-height:normal;font-variant-ligatures:normal;font-variant-position:normal;font-variant-caps:normal;font-variant-numeric:normal;font-variant-alternates:normal;font-feature-settings:normal;text-indent:0;text-align:start;text-decoration-line:none;text-decoration-style:solid;text-decoration-color:#000;text-transform:none;text-orientation:mixed;white-space:normal;shape-padding:0;isolation:auto;mix-blend-mode:normal;solid-color:#000;solid-opacity:1;marker:none" color="#000" font-weight="400" font-family="sans-serif" overflow="visible" fill="#1a7fd4"/></svg>