<svg xmlns="http://www.w3.org/2000/svg" viewBox="0 0 24 24"><g opacity=".7" stroke="#000" stroke-width="2" stroke-linejoin="round" color="#000" font-weight="400" font-family="sans-serif"><path style="line-height:normal;font-variant-ligatures:normal;font-variant-position:normal;font-variant-caps:normal;font-variant-numeric:normal;font-variant-alternates:normal;font-variant-east-asian:normal;font-feature-settings:normal;font-variation-settings:normal;text-indent:0;text-align:start;text-decoration-line:none;text-decoration-style:solid;text-decoration-color:#000;text-transform:none;text-orientation:mixed;white-space:normal;shape-padding:0;shape-margin:0;inline-size:0;isolation:auto;mix-blend-mode:normal;solid-color:#000;solid-opacity:1" d="M2.5 4.5l17 17M2.854 4.146l-.708.708 17 17 .708-.708-17-17z" overflow="visible"/></g><path d="M2.5 4.5l17 17" fill="#fff" stroke="#fff"/><path d="M17.494 2.545l-4.95 4.95 4.243 4.241c1.414 1.415 2.121.708 3.535-.707l.707-.707c1.415-1.414 2.122-2.12.707-3.535l-4.242-4.242zM11 4c-.554 0-1 .446-1 1v6c0 .554.446 1 1 1s1-.446 1-1V7.742a1 1 0 01.137-1.242l2.5-2.5H11z" opacity=".7" fill-rule="evenodd" stroke="#000" stroke-width="2" stroke-linecap="round" stroke-linejoin="round"/><path d="M12.544 7.494l4.95-4.95 4.242 4.243c1.415 1.414.707 2.12-.707 3.535l-.707.707c-1.414 1.414-2.121 2.122-3.535.707z" fill="#fff" fill-rule="evenodd"/><circle cx="7.071" cy="17.669" r=".5" transform="rotate(-45)" opacity=".7" fill-rule="evenodd" stroke="#000" stroke-width="2" stroke-linecap="round" stroke-linejoin="round"/><circle cx="7.071" cy="17.669" r=".5" transform="rotate(-45)" fill="#fff" fill-rule="evenodd"/><path d="M11 4c-.554 0-1 .446-1 1v6c0 .554.446 1 1 1s1-.446 1-1V7.742a1 1 0 01.137-1.242l2.5-2.5h-.414z" fill="#aee3f8" fill-rule="evenodd"/><path d="M19.5 0A2.5 2 0 0017 2v4.086c.324-.11.677-.11 1 .004V2a1.5 1 0 011.5-1A1.5 1 0 0121 2v2.635l1 1.002V2a2.5 2 0 00-2.5-2z" fill="#6d6d6d" fill-rule="evenodd"/></svg>