<svg xmlns="http://www.w3.org/2000/svg" viewBox="0 0 24 24"><path fill="#2daaaa" d="M0 18h6v6H0z"/><path fill="#46a926" d="M6 18h6v6H6z"/><path fill="#fdc92b" d="M12 18h6v6h-6z"/><path fill="#f34f17" d="M18 18h6v6h-6z"/><path fill="#31c6b7" d="M0 12h6v6H0z"/><path fill="#76c22b" d="M6 12h6v6H6z"/><path fill="#ffda64" d="M12 12h6v6h-6z"/><path fill="#fb7c38" d="M18 12h6v6h-6z"/><path fill="#5bdbc1" d="M0 6h6v6H0z"/><path fill="#a6d74f" d="M6 6h6v6H6z"/><path fill="#fee581" d="M12 6h6v6h-6z"/><path fill="#fda463" d="M18 6h6v6h-6z"/><path fill="#81e9c0" d="M0 0h6v6H0z"/><path fill="#cbe667" d="M6 0h6v6H6z"/><path fill="#fff4c9" d="M12 0h6v6h-6z"/><path fill="#fec589" d="M18 0h6v6h-6z"/><path d="M4 4v2h16V4zM4 8v1h16V8h-7zM5 11v2h2v-2zM4 15v1h16v-1zM4 18v1h1v-1zM9 11v2h2v-2zM13 11v2h2v-2zM17 11v2h2v-2zM7 18v1h1v-1zM10 18v1h1v-1zM13 18v1h1v-1zM16 18v1h1v-1zM19 18v1h1v-1z" fill="#232629"/></svg>