<svg xmlns="http://www.w3.org/2000/svg" viewBox="0 0 24 24"><path d="M1 11v4h8v-4z" opacity=".7" stroke="#000" stroke-width="2" stroke-linejoin="round"/><path d="M1 11v4h8v-4z" fill="#fff"/><path d="M5 1H1v7h4z" opacity=".7" stroke="#000" stroke-width="2" stroke-linejoin="round"/><path d="M5 1H1v7h4z" fill="#d85eca"/><path d="M15 8V4H8v4z" opacity=".7" stroke="#000" stroke-width="2" stroke-linejoin="round"/><path d="M15 8V4H8v4z" fill="#80a3fa"/><path style="line-height:normal;font-variant-ligatures:normal;font-variant-position:normal;font-variant-caps:normal;font-variant-numeric:normal;font-variant-alternates:normal;font-feature-settings:normal;text-indent:0;text-align:start;text-decoration-line:none;text-decoration-style:solid;text-decoration-color:#000;text-transform:none;text-orientation:mixed;white-space:normal;shape-padding:0;isolation:auto;mix-blend-mode:normal" d="M15.44 8.94a6.508 6.508 0 00-6.5 6.5c0 3.583 2.915 6.5 6.5 6.5a6.47 6.47 0 004.224-1.569l2.922 2.922.707-.707-2.922-2.922a6.47 6.47 0 001.568-4.225c0-3.584-2.916-6.5-6.5-6.5zm0 1.038a5.453 5.453 0 015.46 5.461 5.453 5.453 0 01-5.46 5.461 5.454 5.454 0 01-5.462-5.46c0-3.023 2.44-5.462 5.461-5.462z" color="#000" font-weight="400" font-family="sans-serif" overflow="visible" opacity=".7" stroke="#000" stroke-width="2" stroke-linejoin="bevel"/><path overflow="visible" style="line-height:normal;font-variant-ligatures:normal;font-variant-position:normal;font-variant-caps:normal;font-variant-numeric:normal;font-variant-alternates:normal;font-feature-settings:normal;text-indent:0;text-align:start;text-decoration-line:none;text-decoration-style:solid;text-decoration-color:#000;text-transform:none;text-orientation:mixed;white-space:normal;shape-padding:0;isolation:auto;mix-blend-mode:normal" d="M15.44 8.94a6.508 6.508 0 00-6.5 6.5c0 3.583 2.915 6.5 6.5 6.5 3.583 0 6.5-2.917 6.5-6.5 0-3.585-2.917-6.5-6.5-6.5zm0 1.04a5.452 5.452 0 015.46 5.46 5.452 5.452 0 01-5.46 5.46 5.454 5.454 0 01-5.462-5.46c0-3.023 2.44-5.46 5.461-5.46z" color="#000" font-weight="400" font-family="sans-serif" fill="#c8c4b7"/><path overflow="visible" style="line-height:normal;font-variant-ligatures:normal;font-variant-position:normal;font-variant-caps:normal;font-variant-numeric:normal;font-variant-alternates:normal;font-feature-settings:normal;text-indent:0;text-align:start;text-decoration-line:none;text-decoration-style:solid;text-decoration-color:#000;text-transform:none;text-orientation:mixed;white-space:normal;shape-padding:0;isolation:auto;mix-blend-mode:normal" d="M19.792 19.085l-.707.708 3.5 3.5.707-.708z" color="#000" font-weight="400" font-family="sans-serif" fill="#c8c4b7" fill-rule="evenodd"/><path d="M20.94 15.44a5.5 5.5 0 01-5.43 5.499A5.5 5.5 0 019.94 15.58a5.5 5.5 0 015.287-5.637 5.5 5.5 0 015.704 5.215" fill="#fff"/><path d="M15 13v2h-2v1h2v2h1v-2h2v-1h-2v-2z" fill="#46a926"/></svg>