<svg xmlns="http://www.w3.org/2000/svg" viewBox="0 0 16 16"><path d="M10 14c2 0 3 0 3-2V4c0-2-1-2-3-2H6C4 2 3 2 3 4v8c0 2 1 2 3 2z" opacity=".6" stroke="#000" stroke-width="2" stroke-linejoin="round"/><path d="M10 14c2 0 3 0 3-2V4c0-2-1-2-3-2H6C4 2 3 2 3 4v8c0 2 1 2 3 2z" fill="#ffd9b2"/><path fill="#6d6d6d" d="M10 2H9v12h1z"/><circle cx="-11.5" cy="10.5" r=".5" transform="scale(-1 1)" fill="#6d6d6d"/><circle cx="-11.5" cy="5.5" r=".5" transform="scale(-1 1)" fill="#6d6d6d"/><path d="M8 11H4a2 2 0 114 0" fill="#232629"/><ellipse cx="6" cy="6.5" rx="1" ry="1.5" fill="#232629"/></svg>