<svg xmlns="http://www.w3.org/2000/svg" viewBox="0 0 16 16"><defs><linearGradient id="b" gradientUnits="userSpaceOnUse" x1="8.238" x2="8.238" y1="2.635" y2="13.501" gradientTransform="matrix(.85 0 0 .85 3.263 -.863)"><stop offset="0" stop-color="#fff5ef"/><stop offset="1" stop-color="#fef8dd"/></linearGradient><linearGradient id="a"><stop offset="0" stop-color="#fff"/><stop offset="0" stop-color="#fff" stop-opacity=".235"/><stop offset="1" stop-color="#fff" stop-opacity=".157"/><stop offset="1" stop-color="#fff" stop-opacity=".392"/></linearGradient></defs>/&amp;gt;<path d="M2.013 3.759h8v12.228h-8z" fill="#b549b5"/><path d="M.442 2.994a.43.43 0 00-.429.433v12.127c0 .239.192.433.429.433h11.143a.43.43 0 00.428-.433V3.427c0-.239-.335-.433-.571-.433H1.996zm.571.993h.983l.017 1H1.03zm2 0l6 .07v11.93l-6-.07zm7 0h1l.017 1h-1zm-9 2h.983v1h-.983zm9 0h1v1h-1zm-9 2h.983v1h-.983zm9 0h1v1h-1zm-9 2h.983v1h-.983zm9 0h1v1h-1zm-9 2h.983v1h-.983zm9 0h1v1h-1zm-9 2h.983v1h-.983zm9 0h1v1h-1z" opacity=".7"/><path d="M3.173 10.498l5.412.07" display="block" fill="none" stroke="#000" stroke-linecap="square" stroke-linejoin="round" stroke-opacity=".588"/><rect y=".412" x="4.538" width="11.05" rx=".85" height="11.05" fill="#f4843f"/><path d="M10.442 2.528c-.361-.02-.417.371-.379.632V8.27a1.658 1.658 0 00-.761.048c-.752.2-1.42.88-1.358 1.662.087.733.955 1.211 1.671.993.811-.192 1.281-.896 1.281-1.806V5.121c.674.356 1.281 1.022 1.267 1.807.008.567-.151 1.133-.376 1.65-.03.062.036.123.084.147.13.036.198-.135.271-.215.783-1.05.834-2.592-.011-3.623-.3-.366-.69-.678-.895-1.103a2.947 2.947 0 01-.398-1.07c-.082-.136-.24-.187-.396-.186z" opacity=".3" fill="#a62100"/><path d="M10.478 1.335c-.395-.022-.456.405-.414.69v5.581a1.81 1.81 0 00-.832.051c-.82.219-1.55.96-1.482 1.816.094.8 1.043 1.322 1.825 1.085.885-.21 1.399-.98 1.399-1.973V4.166c.736.39 1.398 1.116 1.383 1.973.008.619-.166 1.238-.41 1.801-.034.068.038.135.091.16.142.04.216-.146.296-.233.855-1.146.91-2.83-.012-3.956-.328-.4-.754-.74-.978-1.205a3.218 3.218 0 01-.434-1.17c-.09-.146-.262-.203-.432-.201z" fill="url(#b)"/><path fill="#fff" d="M1 4h1.013v.987H1zM1.013 6h1.013v.987H1.013zM1 8.013h1.013V9H1zM1.013 10h1.013v.987H1.013zM1 12.013h1.013V13H1zM1 14.013h1.013V15H1zM9.987 12.013H11V13H9.987zM9.987 14.013H11V15H9.987z"/></svg>