<svg xmlns="http://www.w3.org/2000/svg" viewBox="0 0 16 16"><path d="M7.102 8.789v3h5v-3z" fill="#762572"/><path d="M4.994 1c-1.258.014-2.179-.03-2.931.385a1.88 1.88 0 00-.838.998C1.06 2.82 1 3.343 1 4V11c0 .657.06 1.178.225 1.617.164.438.461.788.838.996.752.415 1.673.372 2.931.387h6.012c1.258-.015 2.179.03 2.931-.385a1.88 1.88 0 00.838-.998c.165-.439.225-.96.225-1.617V4c0-.658-.06-1.179-.225-1.617a1.875 1.875 0 00-.838-.996C13.185.97 12.264 1.015 11.006 1H4.998z" style="line-height:125%;-inkscape-font-specification:Ubuntu;text-align:center" font-weight="400" font-size="15" font-family="Ubuntu" letter-spacing="0" word-spacing="0" text-anchor="middle" opacity=".7"/><path d="M4.983 2.027c-1.557.01-.11-.012-1.66.039-.46.042-1.016.206-1.155.71-.219.635-.108 1.334-.146 1.982-.007 2.297-.023 4.596.022 6.886.039.462.202 1.012.699 1.163.632.225 1.284.123 1.936.155 1.424.006-.15.01 1.276.01 1.704.001 4.408-.004 6.107-.018.512-.012 1.184.02 1.585-.405.42-.54.287-1.268.323-1.904.011-2.444.027-4.91-.022-7.357-.05-.402-.17-.862-.575-1.044-.669-.294-1.427-.168-2.126-.206-1.755-.011-4.51-.012-6.264-.011z" fill="#fff"/><path fill="#232629" d="M7 10h5.983v1H7z"/><path fill="#c7162b" d="M3 10.001h3v1H3z"/><path fill="#232629" d="M5 7H3v1h2z"/><path fill="#c7162b" d="M12.983 7.001H6v1h6.983z"/><path fill="#232629" d="M9 4h3.983v1H9z"/><path fill="#c7162b" d="M3 4.001h5v1H3z"/><circle cy="12.5" cx="12.5" r="3.5" fill="#46a926"/><circle r="3.5" cx="6.5" cy="12.5" fill="#46a926"/><path d="M8.497 10.634l-2.705 2.7-1.289-1.287-.835.835L5.792 15l3.54-3.532zM14.497 10.634l-2.705 2.7-1.289-1.287-.835.835L11.792 15l3.54-3.532z" style="line-height:normal;font-variant-ligatures:normal;font-variant-position:normal;font-variant-caps:normal;font-variant-numeric:normal;font-variant-alternates:normal;font-feature-settings:normal;text-indent:0;text-align:start;text-decoration-line:none;text-decoration-style:solid;text-decoration-color:#000;text-transform:none;text-orientation:mixed;white-space:normal;shape-padding:0;isolation:auto;mix-blend-mode:normal;solid-color:#000;solid-opacity:1;marker:none" color="#000" font-weight="400" font-family="sans-serif" overflow="visible" fill="#fff"/></svg>