<svg xmlns="http://www.w3.org/2000/svg" viewBox="0 0 16 16"><path d="M13.504 4v8L2.49 11.974V4z" fill="#b549b5"/><path d="M14.496 2.429A.43.43 0 0014.063 2H1.937a.43.43 0 00-.433.429V13.57a.43.43 0 00.433.429h12.126c.24 0 .433-.335.433-.571V3.983zM13.504 3v.983l-1 .017v-.983zm0 2v6h-11V5zm0 7v1l-1 .017v-1zm-2-9v.983h-1V3zm0 9v1h-1v-1zm-2-9v.983h-1V3zm0 9v1h-1v-1zm-2-9v.983h-1V3zm0 9v1h-1v-1zm-2-9v.983h-1V3zm0 9v1h-1v-1zm-2-9v.983h-1V3zm0 9v1h-1v-1z" opacity=".7"/><path display="block" d="M8.004 5.5v5" fill="none" stroke="#000" stroke-linecap="square" stroke-linejoin="round" stroke-opacity=".588"/><path fill="#fff" fill-rule="evenodd" d="M13.504 3v1h-1V3zM11.504 3v1h-1V3zM9.504 3v1h-1V3zM7.504 3v1h-1V3zM5.504 3v1h-1V3zM3.504 3v1h-1V3zM13.504 12v1h-1v-1zM11.504 12v1h-1v-1zM9.504 12v1h-1v-1zM7.504 12v1h-1v-1zM5.504 12v1h-1v-1zM3.504 12v1h-1v-1z"/><g stroke-width="27.2"><path d="M11.435 13.352L8.28 16l.717-4.055.263-.457 2.438 1.408z" fill="#fec589"/><path style="marker:none" d="M8.51 14.71L8.28 16l1.004-.842c-.004.007-.776-.448-.776-.448z" color="#000" overflow="visible" fill="#5d5d5d"/><path d="M8.998 11.945s2.438 1.495 2.437 1.407L16 5.445l-2.437-1.407z" fill="#2f5fdd"/></g></svg>