<svg xmlns="http://www.w3.org/2000/svg" viewBox="0 0 16 16"><path d="M7.011 3.656c-2.758.881-5.378 5.366-5.5 10.844h1c.11-4.84 2.302-8.826 4.5-9.781zm2 0V4.72c2.199.955 4.39 4.941 4.5 9.781h1c-.122-5.478-2.741-9.963-5.5-10.844z" fill="#1463a5" stroke="#1463a5"/><path d="M15 2c.554 0 1 .446 1 1v2c0 .554-.446 1-1 1h-2c-.554 0-1-.446-1-1h-2V3h2c0-.554.446-1 1-1zM1 2c-.554 0-1 .446-1 1v2c0 .554.446 1 1 1h2c.554 0 1-.446 1-1h2V3H4c0-.554-.446-1-1-1z" fill="gray"/><path opacity=".7" d="M5 1v6h6V1z"/><path d="M1 3h2v1.957H1z" fill="#fff"/><path fill="#aee3f8" d="M6 2v4h4V2z"/><path d="M15 3.043h-2V5h2z" fill="#fff"/></svg>