<svg xmlns="http://www.w3.org/2000/svg" xmlns:xlink="http://www.w3.org/1999/xlink" viewBox="0 0 16 16"><defs><linearGradient id="a"><stop offset="0" stop-color="#151515"/><stop offset="1" stop-color="#4d4d4d"/></linearGradient><linearGradient xlink:href="#a" id="b" x1="8" y1="3" x2="8" y2="15" gradientUnits="userSpaceOnUse" gradientTransform="translate(-.006 -.016)"/><linearGradient xlink:href="#a" id="c" gradientUnits="userSpaceOnUse" gradientTransform="translate(-.006 -.016)" x1="8" y1="3" x2="8" y2="15"/><linearGradient xlink:href="#a" id="d" gradientUnits="userSpaceOnUse" gradientTransform="matrix(-1 0 0 1 13.006 -.016)" x1="8" y1="3" x2="8" y2="15"/></defs><path d="M4 3c-1.104.017-2 .895-2 2v2.5a.503.503 0 01-.5.5H1v2h.5c.276 0 .5.226.5.502v2.5a2 2 0 002 2l.994-.018v-1h-1c-.552 0-.99-.447-1-1v-3a1.5 1.5 0 00-.375-1c.236-.265.382-.617.375-1v-3c0-.552.452-1.069 1-1h1v-1z" fill="url(#b)" stroke="#fff" stroke-width="2" stroke-linejoin="round"/><path d="M4 3c-1.104.017-2 .895-2 2v2.5a.503.503 0 01-.5.5H1v2h.5c.276 0 .5.226.5.502v2.5a2 2 0 002 2l.994-.018v-1h-1c-.552 0-.99-.447-1-1v-3a1.5 1.5 0 00-.375-1c.236-.265.382-.617.375-1v-3c0-.552.452-1.069 1-1h1v-1z" fill="url(#c)"/><g fill="#e95420"><path d="M13.515 6.983l2.5-3L11 4z"/><path style="line-height:normal;font-variant-ligatures:normal;font-variant-position:normal;font-variant-caps:normal;font-variant-numeric:normal;font-variant-alternates:normal;font-variant-east-asian:normal;font-feature-settings:normal;font-variation-settings:normal;text-indent:0;text-align:start;text-decoration-line:none;text-decoration-style:solid;text-decoration-color:#000;text-transform:none;text-orientation:mixed;white-space:normal;shape-padding:0;shape-margin:0;inline-size:0;isolation:auto;mix-blend-mode:normal;solid-color:#000;solid-opacity:1" d="M8 1v1c.732.002 3.346.01 3.771.045.526.044.806.139.928.23.122.092.191.207.244.565.053.358.057.91.057 1.66V5h1v-.5c0-.75.004-1.323-.068-1.809-.072-.485-.253-.933-.631-1.216-.378-.284-.848-.376-1.447-.426C11.367 1.009 8.739 1 8 1z" color="#000" font-weight="400" font-family="sans-serif" overflow="visible"/></g><path style="line-height:normal;font-variant-ligatures:normal;font-variant-position:normal;font-variant-caps:normal;font-variant-numeric:normal;font-variant-alternates:normal;font-variant-east-asian:normal;font-feature-settings:normal;font-variation-settings:normal;text-indent:0;text-align:start;text-decoration-line:none;text-decoration-style:solid;text-decoration-color:#000;text-transform:none;text-orientation:mixed;white-space:normal;shape-padding:0;shape-margin:0;inline-size:0;isolation:auto;mix-blend-mode:normal;solid-color:#000;solid-opacity:1" d="M7.006 3.498v.486a1 1 0 001 1h1v2.983c-.007.39.223.684.379 1.013-.154.329-.38.627-.38 1.004v3h-1a1 1 0 00-1 1v1a1 1 0 00.983 1l.994.018a1 1 0 00.018 0c1.645 0 3-1.355 3-3V11a1 1 0 001-1V8.695L8.62 3.504c-.191 0-.51-.004-.624-.004l-.99-.002z" color="#000" font-weight="400" font-family="sans-serif" overflow="visible" fill="#fff"/><path d="M8.006 3.5v.484h1.02l-.407-.48c-.187 0-.495-.004-.613-.004zm2 1.646v2.838c-.007.383.14.735.375 1a1.5 1.5 0 00-.375 1v3c-.01.553-.448 1-1 1h-1v1l.994.018a2 2 0 002-2v-2.5c0-.276.224-.502.5-.502h.5V8h-.5a.503.503 0 01-.5-.5V6.326l-.994-1.18z" fill="url(#d)"/></svg>