<svg xmlns="http://www.w3.org/2000/svg" viewBox="0 0 16 16"><defs><linearGradient id="a"><stop offset="0" stop-opacity=".661"/><stop offset=".5" stop-opacity="0"/><stop offset="1" stop-opacity=".67"/></linearGradient></defs>/&gt;<path d="M8.084 6.202S1.9 11.873 1.614 12.45c-.295.59-.054 1.218-.699 2.536 1.384-.631 2.066-.38 2.573-.661.52-.289 6.324-6.322 6.324-6.322z" fill-rule="evenodd" stroke="#000" stroke-width="2" stroke-linejoin="round" stroke-opacity=".659" opacity=".6"/><path d="M13.605 10.506c-.788 1.442-2.857 4.506 0 4.481 2.814-.024.56-3.091 0-4.48z" opacity=".6" fill-rule="evenodd" stroke="#000" stroke-width="2" stroke-linejoin="round"/><path d="M13.605 10.506c-.788 1.442-2.857 4.506 0 4.481 2.814-.024.56-3.091 0-4.48zM8.084 6.202S1.9 11.873 1.614 12.45c-.295.59-.054 1.218-.699 2.536 1.384-.631 2.066-.38 2.573-.661.52-.289 6.324-6.322 6.324-6.322z" fill="#fff" fill-rule="evenodd"/><path d="M11.21 9.302l.625-.625-.676-1.915s-.035-.259.288-.28c1.736-.11 3.514-2.158 3.6-3.552.074-1.214-1.106-1.994-2.177-1.91-1.07.084-2.828 1.51-3.267 3.31-.063.26-.305.304-.305.304L7.27 4.091l-.6.6z" fill="#6d6d6d" fill-rule="evenodd" stroke="#6d6d6d" stroke-width=".5"/></svg>