<svg xmlns="http://www.w3.org/2000/svg" viewBox="0 0 16 16"><path d="M4.01 3.017a2 2 0 00-2 2v2.5a.503.503 0 01-.5.5h-.5v2h.5a.5.5 0 01.5.5v2.5a2 2 0 002 2h2v-2h-1c-.551 0-.99-.448-1-1v-2a1.5 1.5 0 00-.374-1c.236-.265.381-.618.375-1v-2c0-.553.452-1.07 1-1h1v-2z" opacity=".7" stroke="#000" stroke-width="2" stroke-linejoin="round"/><path d="M4.01 3.017a2 2 0 00-2 2v2.5a.503.503 0 01-.5.5h-.5v2h.5a.5.5 0 01.5.5v2.5a2 2 0 002 2h2v-2h-1c-.551 0-.99-.448-1-1v-2a1.5 1.5 0 00-.374-1c.236-.265.381-.618.375-1v-2c0-.553.452-1.07 1-1h1v-2z" fill="#fff"/><path d="M12 3.017a2 2 0 012 2v2.5c0 .276.224.495.5.5h.5v2h-.5a.5.5 0 00-.5.5v2.5a2 2 0 01-2 2h-2v-2h1c.552 0 .99-.448 1-1v-2c0-.383.14-.735.375-1a1.468 1.468 0 01-.375-1v-2c0-.553-.452-1.07-1-1h-1v-2z" opacity=".7" stroke="#000" stroke-width="2" stroke-linejoin="round"/><path d="M12 3.017a2 2 0 012 2v2.5c0 .276.224.495.5.5h.5v2h-.5a.5.5 0 00-.5.5v2.5a2 2 0 01-2 2h-2v-2h1c.552 0 .99-.448 1-1v-2c0-.383.14-.735.375-1a1.468 1.468 0 01-.375-1v-2c0-.553-.452-1.07-1-1h-1v-2z" fill="#fff"/><path d="M3.016.983L3 3h2c2 0 2 0 2 2l-.021 1.006L5 5.999l2.979 4.018 3-4-2-.006L9 3.999c0-2-1-3-3-3z" opacity=".7" stroke="#000" stroke-width="2" stroke-linejoin="round"/><path d="M3.016.983L3 3h2c2 0 2 0 2 2l-.021 1.006L5 5.999l2.979 4.018 3-4-2-.006L9 3.999c0-2-1-3-3-3z" fill="#e97cc8"/></svg>