<svg xmlns="http://www.w3.org/2000/svg" viewBox="0 0 16 16">/&gt;<path d="M0 12v2c0 2 1 2 3 2h1v-4z" fill="#2daaaa"/><path fill="#46a926" d="M4 12h4v4H4z"/><path fill="#fdc92b" d="M8 12h4v4H8z"/><path d="M12 12v4h1c2 0 3 0 3-2v-2z" fill="#f34f17"/><path fill="#31c6b7" d="M0 8h4v4H0z"/><path fill="#76c22b" d="M4 8h4v4H4z"/><path fill="#ffda64" d="M8 8h4v4H8z"/><path fill="#fb7c38" d="M12 8h4v4h-4z"/><path fill="#5bdbc1" d="M0 4h4v4H0z"/><path fill="#a6d74f" d="M4 4h4v4H4z"/><path fill="#fee581" d="M8 4h4v4H8z"/><path fill="#fda463" d="M12 4h4v4h-4z"/><path d="M3 0C1 0 0 0 0 2v2h4V0z" fill="#81e9c0"/><path fill="#cbe667" d="M4 0h4v4H4z"/><path fill="#fff4c9" d="M8 0h4v4H8z"/><path d="M12 0v4h4V2c0-2-1-2-3-2z" fill="#fec589"/><path style="line-height:normal;font-variant-ligatures:normal;font-variant-position:normal;font-variant-caps:normal;font-variant-numeric:normal;font-variant-alternates:normal;font-feature-settings:normal;text-indent:0;text-align:start;text-decoration-line:none;text-decoration-style:solid;text-decoration-color:#000;text-transform:none;text-orientation:mixed;white-space:normal;shape-padding:0;isolation:auto;mix-blend-mode:normal;solid-color:#000;solid-opacity:1" d="M3.156 11.862A.5.5 0 003.5 12h1.56a.5.5 0 00.354-.146l.755-.759a.5.5 0 00.027-.023l.167-.167-.043-.043a.5.5 0 00.003-.005.5.5 0 00.447.08l1.084-.336-2.678-2.678-.332 1.087a.5.5 0 00.044.395l-.155.155a.5.5 0 00-.026.026l-1.56 1.56a.5.5 0 00.01.716zm5.483-1.89l4.995-4.992a.5.5 0 000-.707l-2.128-2.128a.5.5 0 00-.36-.145.5.5 0 00-.347.145L5.805 7.139z" color="#000" font-weight="400" font-family="sans-serif" overflow="visible" fill="#232629"/></svg>