<svg xmlns="http://www.w3.org/2000/svg" viewBox="0 0 16 16">/&gt;<path style="line-height:normal;font-variant-ligatures:normal;font-variant-position:normal;font-variant-caps:normal;font-variant-numeric:normal;font-variant-alternates:normal;font-variant-east-asian:normal;font-feature-settings:normal;font-variation-settings:normal;text-indent:0;text-align:start;text-decoration-line:none;text-decoration-style:solid;text-decoration-color:#000;text-transform:none;text-orientation:mixed;white-space:normal;shape-padding:0;shape-margin:0;inline-size:0;isolation:auto;mix-blend-mode:normal;solid-color:#000;solid-opacity:1" d="M4.984.5a1 1 0 00-.246.033l-.004.002a1 1 0 00-.076.024L4.654.56a1 1 0 00-.574.544l-3 7a1 1 0 101.84.79L3.732 7h2.536l.812 1.895a1 1 0 101.84-.79l-3-7A1 1 0 005.475.62.995.995 0 005.32.553 1 1 0 004.984.5zM5 4.041L5.84 6H4.16z" color="#000" font-weight="400" font-family="sans-serif" overflow="visible" opacity=".7" stroke="#000" stroke-width="2" stroke-linecap="round" stroke-linejoin="round"/><path style="line-height:normal;font-variant-ligatures:normal;font-variant-position:normal;font-variant-caps:normal;font-variant-numeric:normal;font-variant-alternates:normal;font-variant-east-asian:normal;font-feature-settings:normal;font-variation-settings:normal;text-indent:0;text-align:start;text-decoration-line:none;text-decoration-style:solid;text-decoration-color:#000;text-transform:none;text-orientation:mixed;white-space:normal;shape-padding:0;shape-margin:0;inline-size:0;isolation:auto;mix-blend-mode:normal;solid-color:#000;solid-opacity:1" d="M4.984.5a1 1 0 00-.246.033l-.004.002a1 1 0 00-.076.024L4.654.56a1 1 0 00-.574.544l-3 7a1 1 0 101.84.79L3.732 7h2.536l.812 1.895a1 1 0 101.84-.79l-3-7A1 1 0 005.475.62.995.995 0 005.32.553 1 1 0 004.984.5zM5 3l1 3H4z" color="#000" font-weight="400" font-family="sans-serif" overflow="visible" fill="#fff"/><path style="line-height:normal;font-variant-ligatures:normal;font-variant-position:normal;font-variant-caps:normal;font-variant-numeric:normal;font-variant-alternates:normal;font-feature-settings:normal;text-indent:0;text-align:start;text-decoration-line:none;text-decoration-style:solid;text-decoration-color:#000;text-transform:none;text-orientation:mixed;white-space:normal;shape-padding:0;isolation:auto;mix-blend-mode:normal;solid-color:#000;solid-opacity:1" d="M4.15 11.862a.5.5 0 00.342.138h1.56a.5.5 0 00.354-.146l.756-.759a.5.5 0 00.026-.023l.167-.167-.043-.043a.5.5 0 00.003-.005.5.5 0 00.447.08l1.084-.336L6.17 7.923 5.836 9.01a.5.5 0 00.044.395l-.155.155a.5.5 0 00-.026.026l-1.56 1.56a.5.5 0 00.01.716zm5.482-1.89l4.996-4.992a.5.5 0 000-.707l-2.129-2.128A.5.5 0 0012.14 2a.5.5 0 00-.347.145L6.798 7.139z" color="#000" font-weight="400" font-family="sans-serif" overflow="visible" opacity=".7" stroke="#000" stroke-width="2" stroke-linejoin="round"/><path style="line-height:normal;font-variant-ligatures:normal;font-variant-position:normal;font-variant-caps:normal;font-variant-numeric:normal;font-variant-alternates:normal;font-feature-settings:normal;text-indent:0;text-align:start;text-decoration-line:none;text-decoration-style:solid;text-decoration-color:#000;text-transform:none;text-orientation:mixed;white-space:normal;shape-padding:0;isolation:auto;mix-blend-mode:normal;solid-color:#000;solid-opacity:1" d="M9.632 9.973l4.996-4.993a.5.5 0 000-.707l-2.129-2.128A.5.5 0 0012.14 2a.5.5 0 00-.347.145L6.798 7.139z" color="#000" font-weight="400" font-family="sans-serif" overflow="visible" fill="#fff"/><path style="line-height:normal;font-variant-ligatures:normal;font-variant-position:normal;font-variant-caps:normal;font-variant-numeric:normal;font-variant-alternates:normal;font-feature-settings:normal;text-indent:0;text-align:start;text-decoration-line:none;text-decoration-style:solid;text-decoration-color:#000;text-transform:none;text-orientation:mixed;white-space:normal;shape-padding:0;isolation:auto;mix-blend-mode:normal;solid-color:#000;solid-opacity:1" d="M4.15 11.862a.5.5 0 00.342.138h1.56a.5.5 0 00.354-.146l.756-.759a.5.5 0 00.026-.023l.167-.167-.043-.043a.5.5 0 00.003-.005.5.5 0 00.447.08l1.084-.336L6.17 7.923 5.836 9.01a.5.5 0 00.044.395l-.155.155a.5.5 0 00-.026.026l-1.56 1.56a.5.5 0 00.01.716z" color="#000" font-weight="400" font-family="sans-serif" overflow="visible" fill="#76c22b"/><path d="M0 13h16v3H0z" fill="#76c22b"/></svg>