<svg xmlns="http://www.w3.org/2000/svg" viewBox="0 0 16 16">/&gt;<path d="M8 2C4.686 2 2 3.567 2 5.5S4.686 9 8 9s6-1.567 6-3.5S11.314 2 8 2zM6.5 9C5.12 9 4 9.448 4 10s1.12 1 2.5 1S9 10.552 9 10 7.88 9 6.5 9zm-2 2.25c-.828 0-1.5.336-1.5.75s.672.75 1.5.75S6 12.414 6 12s-.672-.75-1.5-.75zM3 13c-.552 0-1 .224-1 .5s.448.5 1 .5 1-.224 1-.5-.448-.5-1-.5z" stroke="#000" opacity=".6" stroke-width="2"/><path d="M8 2C4.686 2 2 3.567 2 5.5S4.686 9 8 9s6-1.567 6-3.5S11.314 2 8 2zM6.5 9C5.12 9 4 9.448 4 10s1.12 1 2.5 1S9 10.552 9 10 7.88 9 6.5 9zm-2 2.25c-.828 0-1.5.336-1.5.75s.672.75 1.5.75S6 12.414 6 12s-.672-.75-1.5-.75zM3 13c-.552 0-1 .224-1 .5s.448.5 1 .5 1-.224 1-.5-.448-.5-1-.5z" fill="#fff"/></svg>