<svg xmlns="http://www.w3.org/2000/svg" viewBox="0 0 16 16">/&gt;<path d="M11.44 2.065a2.49 2.49 0 00-1.769.729L6.574 5.893a2.505 2.505 0 000 3.535c.121.12.253.225.39.316L7.7 9.01a1.486 1.486 0 01-.418-2.41l3.098-3.097a1.486 1.486 0 012.12 0 1.486 1.486 0 010 2.121l-1.312 1.312c.137.39-.057 1.066-.062 1.476l2.082-2.08a2.508 2.508 0 000-3.538 2.49 2.49 0 00-1.768-.729zM9.013 6.281l-.735.735a1.486 1.486 0 01.418 2.412l-3.076 3.074a1.486 1.486 0 01-2.121 0 1.486 1.486 0 010-2.121l1.559-1.559a3.532 3.532 0 01-.205-1.209l-2.061 2.06a2.505 2.505 0 000 3.536 2.505 2.505 0 003.535 0l3.076-3.074a2.505 2.505 0 00-.39-3.854z" style="line-height:normal;text-indent:0;text-align:start;text-decoration-line:none;text-decoration-style:solid;text-decoration-color:#000;text-transform:none;white-space:normal;isolation:auto;mix-blend-mode:normal;solid-color:#000;solid-opacity:1" color="#000" font-weight="400" font-family="sans-serif" overflow="visible" opacity=".7" stroke="#000" stroke-width="2" stroke-linecap="round" stroke-linejoin="round"/><path style="line-height:normal;text-indent:0;text-align:start;text-decoration-line:none;text-decoration-style:solid;text-decoration-color:#000;text-transform:none;white-space:normal;isolation:auto;mix-blend-mode:normal;solid-color:#000;solid-opacity:1" d="M11.44 2.065a2.49 2.49 0 00-1.769.729L6.574 5.893a2.505 2.505 0 000 3.535c.121.12.253.225.39.316L7.7 9.01a1.486 1.486 0 01-.418-2.41l3.098-3.097a1.486 1.486 0 012.12 0 1.486 1.486 0 010 2.121l-1.312 1.312c.137.39-.057 1.066-.062 1.476l2.082-2.08a2.508 2.508 0 000-3.538 2.49 2.49 0 00-1.768-.729zM9.013 6.281l-.735.735a1.486 1.486 0 01.418 2.412l-3.076 3.074a1.486 1.486 0 01-2.121 0 1.486 1.486 0 010-2.121l1.559-1.559a3.532 3.532 0 01-.205-1.209l-2.061 2.06a2.505 2.505 0 000 3.536 2.505 2.505 0 003.535 0l3.076-3.074a2.505 2.505 0 00-.39-3.854z" color="#000" font-weight="400" font-family="sans-serif" overflow="visible" fill="#fff"/></svg>