<svg xmlns="http://www.w3.org/2000/svg" xmlns:xlink="http://www.w3.org/1999/xlink" viewBox="0 0 16 16"><defs><linearGradient xlink:href="#a" id="b" x1="8" y1="2" x2="8" y2="14" gradientUnits="userSpaceOnUse" gradientTransform="translate(0 -1)"/><linearGradient id="a"><stop offset="0" stop-color="#151515"/><stop offset="1" stop-color="#4d4d4d"/></linearGradient></defs>/&gt;<path style="line-height:normal;font-variant-ligatures:normal;font-variant-position:normal;font-variant-caps:normal;font-variant-numeric:normal;font-variant-alternates:normal;font-variant-east-asian:normal;font-feature-settings:normal;font-variation-settings:normal;text-indent:0;text-align:start;text-decoration-line:none;text-decoration-style:solid;text-decoration-color:#000;text-transform:none;text-orientation:mixed;white-space:normal;shape-padding:0;shape-margin:0;inline-size:0;isolation:auto;mix-blend-mode:normal;solid-color:#000;solid-opacity:1" d="M7.178 1l-.133.293-5 11-.207.455.91.414.207-.455L5.094 8h5.812l2.139 4.707.207.455.91-.414-.207-.455-5-11L8.822 1zM8 1.607l.045.1L10.45 7H5.55l2.406-5.293z" color="#000" font-weight="400" font-family="sans-serif" overflow="visible" fill="#fff" stroke="#fff" stroke-width="2" stroke-linecap="square" stroke-linejoin="round"/><path style="line-height:normal;font-variant-ligatures:normal;font-variant-position:normal;font-variant-caps:normal;font-variant-numeric:normal;font-variant-alternates:normal;font-variant-east-asian:normal;font-feature-settings:normal;font-variation-settings:normal;text-indent:0;text-align:start;text-decoration-line:none;text-decoration-style:solid;text-decoration-color:#000;text-transform:none;text-orientation:mixed;white-space:normal;shape-padding:0;shape-margin:0;inline-size:0;isolation:auto;mix-blend-mode:normal;solid-color:#000;solid-opacity:1" d="M7.178 1l-.133.293-5 11-.207.455.91.414.207-.455L5.094 8h5.812l2.139 4.707.207.455.91-.414-.207-.455-5-11L8.822 1zM8 1.607l.045.1L10.45 7H5.55l2.406-5.293z" color="#000" font-weight="400" font-family="sans-serif" overflow="visible" fill="url(#b)"/><path d="M0 13h16v3H0z" fill="#ed3d3b"/></svg>