<svg xmlns="http://www.w3.org/2000/svg" viewBox="0 0 16 16">/&gt;<path d="M3.5 2a1.5 1.5 0 100 3 1.48 1.48 0 001.406-1H7v9h4.094c.204.586.75 1 1.406 1a1.5 1.5 0 000-3 1.48 1.48 0 00-1.406 1H8V3H4.906A1.48 1.48 0 003.5 2zm0 1a.5.5 0 110 1 .5.5 0 010-1zm9 9a.5.5 0 110 1 .5.5 0 010-1z" stroke="#000" opacity=".7" stroke-width="2" stroke-linejoin="round"/><path d="M3.5 2a1.5 1.5 0 100 3 1.48 1.48 0 001.406-1H7v9h4.094c.204.586.75 1 1.406 1a1.5 1.5 0 000-3 1.48 1.48 0 00-1.406 1H8V3H4.906A1.48 1.48 0 003.5 2zm0 1a.5.5 0 110 1 .5.5 0 010-1zm9 9a.5.5 0 110 1 .5.5 0 010-1z" fill="#fff"/><circle cx="3.5" cy="3.5" r=".5" opacity=".7"/><circle cx="12.5" cy="12.5" r=".5" opacity=".7"/></svg>