<svg xmlns="http://www.w3.org/2000/svg" viewBox="0 0 16 16"><path style="line-height:125%;-inkscape-font-specification:Ubuntu;text-align:center" d="M10.015-.014c1.258.015 2.179-.028 2.931.387.377.208.674.558.838.996.165.439.225.96.225 1.617v3.555l-.942-.39c-.59-.246-1.146-.022-1.572.378-.135-.127-.218-.32-.387-.39a1.545 1.545 0 00-1.19.006l-1.114.462c-.586.243-.825.8-.844 1.387-.585.02-1.134.258-1.377.844L6.12 9.953c-.244.589-.023 1.145.377 1.572-.402.43-.628.99-.385 1.577l.38.912H4.002c-1.258-.015-2.179.028-2.932-.387a1.875 1.875 0 01-.838-.996C.07 12.192.01 11.67.01 11.014V2.986c0-.657.06-1.178.224-1.617a1.88 1.88 0 01.838-.998c.753-.415 1.674-.37 2.932-.385h6.01zm1.54 11.391c.064.026.114.15.089.21-.027.064-.15.114-.211.089-.063-.026-.114-.15-.088-.211.026-.063.149-.114.21-.088z" font-weight="400" font-size="15" font-family="Ubuntu" letter-spacing="0" word-spacing="0" text-anchor="middle" opacity=".7"/><path d="M3.991 1.014c1.755-.001 4.51 0 6.264.011.7.038 1.457-.089 2.125.205.405.182.527.643.576 1.045.023 1.126.03 2.493.031 3.858-.56-.193-1.085.014-1.492.396-.135-.127-.218-.32-.387-.39a1.545 1.545 0 00-1.19.006l-1.114.462c-.586.243-.825.8-.844 1.387-.585.02-1.134.258-1.377.844L6.12 9.953c-.244.589-.023 1.145.377 1.572-.374.4-.58.915-.412 1.457-.369 0-.81.004-1.123.004-1.426 0 .149-.005-1.275-.011-.652-.032-1.304.07-1.936-.155-.496-.15-.66-.702-.7-1.164-.044-2.29-.029-5.615-.02-7.912.037-.648-.073-1.347.146-1.982.139-.504.693-.667 1.154-.71 1.55-.05.104-.028 1.66-.038zm7.565 10.363c.063.026.113.15.088.21-.027.064-.15.114-.211.089-.063-.026-.114-.15-.088-.211.026-.063.149-.114.21-.088z" fill="#fff"/><path d="M6.991 3.014v1h-1v1h1v1h-3v-1h1v-1h-1v-1zm0 5v.312c-.167.13-.315.287-.408.512l-.072.176h-.52v1h.115c-.128.354-.086.693.055 1h-4.17v-1h1v-1h-1v-1h3zm-2 1h-1v1h1z" fill="#77216f"/><path fill="#232629" d="M7.991 3.014h4v1h-4zM7.991 5.014h4v1h-4z"/><g transform="matrix(-1 0 0 1 22.996 .014)"><circle cx="11.5" cy="11.5" r="1.5" fill="#fff" fill-rule="evenodd"/><path d="M9.311 7.792a.244.244 0 00-.135.325l.273.657c-.26.195-.472.424-.662.678l-.674-.279a.248.248 0 00-.329.136l-.462 1.115a.248.248 0 00.137.329l.673.279a3.312 3.312 0 00-.011.948l-.657.272a.244.244 0 00-.135.325l.463 1.117c.054.13.194.189.325.135l.657-.272c.195.26.424.471.678.662l-.279.673a.248.248 0 00.136.329l1.115.462a.248.248 0 00.329-.136l.279-.674c.314.045.626.057.948.012l.272.657c.054.13.195.188.325.134l1.117-.462a.244.244 0 00.135-.326l-.272-.657c.26-.195.471-.424.662-.678l.673.28a.248.248 0 00.329-.137l.462-1.115a.248.248 0 00-.136-.329l-.674-.279c.045-.314.057-.625.012-.947l.657-.273a.244.244 0 00.134-.325l-.462-1.117a.244.244 0 00-.326-.135l-.657.273a3.312 3.312 0 00-.678-.662l.28-.674a.248.248 0 00-.137-.329l-1.115-.462a.248.248 0 00-.329.137l-.279.673a3.312 3.312 0 00-.947-.011l-.273-.657a.244.244 0 00-.325-.135zm1.756 2.66a1.138 1.138 0 11.87 2.103 1.138 1.138 0 01-.87-2.104z" display="block" fill="#d3d3d3" stroke="#4d4d4d" stroke-linejoin="round" stroke-width=".6"/></g></svg>