<svg xmlns="http://www.w3.org/2000/svg" viewBox="0 0 16 16"><path d="M14 2.185C7.925 2.185 3 7.027 3 13h11z" fill="#b3b3b3"/><path d="M13.5 1.5a10.917 10.917 0 00-7.076 2.592l-.113.094c-.117.101-.23.208-.342.314-.08.076-.162.15-.24.229-.079.078-.153.16-.229.24-.106.112-.213.225-.314.342l-.094.113A10.917 10.917 0 002.5 12.5h1c0-.345.017-.685.05-1.021C4.064 6.436 8.323 2.5 13.5 2.5z" fill="#1463a5" stroke="#1463a5"/><path d="M2 0c-.554 0-1 .446-1 1v2c0 .554.446 1 1 1h2c.554 0 1-.446 1-1v.043h9V1H5c0-.554-.446-1-1-1z" opacity=".8" fill="gray"/><path opacity=".7" d="M12 0h4v4h-4z"/><path fill="#aee3f8" d="M13 1h2v2h-2z"/><path opacity=".7" d="M1 12h4v4H1z"/><path fill="#aee3f8" d="M2 13h2v2H2z"/><rect width="2" height="2" x="2" y="1" ry="0" fill="#fff"/><circle cy="12.5" cx="12.5" r="3.5" fill="#77216f"/><path d="M12.5 10c-.433 0-.833.12-1.188.313l.75.75c.138-.042.287-.063.438-.063.831 0 1.5.669 1.5 1.5 0 .15-.021.3-.063.438l.75.75c.193-.355.313-.755.313-1.188 0-1.385-1.115-2.5-2.5-2.5zm-2.188 1.313A2.476 2.476 0 0010 12.5c0 1.385 1.115 2.5 2.5 2.5.433 0 .833-.12 1.188-.313l-.75-.75A1.539 1.539 0 0112.5 14c-.831 0-1.5-.669-1.5-1.5 0-.15.021-.3.063-.438z" fill="#fff"/></svg>