<svg xmlns="http://www.w3.org/2000/svg" viewBox="0 0 16 16">/&gt;<path d="M3.5 3a1.5 1.5 0 100 3 1.48 1.48 0 001.406-1H11.5a1.5 1.5 0 110 3h-7a2.5 2.5 0 100 5H12v-1H4.5a1.5 1.5 0 010-3h7a2.5 2.5 0 000-5H4.906A1.48 1.48 0 003.5 3zm0 1a.5.5 0 110 1 .5.5 0 010-1z" stroke="#000" opacity=".6" stroke-width="2" stroke-linejoin="round"/><path d="M3.5 3a1.5 1.5 0 100 3 1.48 1.48 0 001.406-1H11.5a1.5 1.5 0 110 3h-7a2.5 2.5 0 100 5H12v-1H4.5a1.5 1.5 0 010-3h7a2.5 2.5 0 000-5H4.906A1.48 1.48 0 003.5 3zm0 1a.5.5 0 110 1 .5.5 0 010-1z" fill="#fff"/><circle cx="3.5" cy="4.5" r=".5" opacity=".6" fill-rule="evenodd"/></svg>