<svg xmlns="http://www.w3.org/2000/svg" viewBox="0 0 16 16">/&gt;<path d="M3.5 2a1.5 1.5 0 100 3 1.48 1.48 0 001.406-1h.957l3.598 9H12v-1h-1.861l-3.6-9H4.906A1.48 1.48 0 003.5 2zm0 1a.5.5 0 110 1 .5.5 0 010-1z" stroke="#000" opacity=".6" stroke-width="2" stroke-linejoin="round"/><path d="M3.5 2a1.5 1.5 0 100 3 1.48 1.48 0 001.406-1h.957l3.598 9H12v-1h-1.861l-3.6-9H4.906A1.48 1.48 0 003.5 2zm0 1a.5.5 0 110 1 .5.5 0 010-1z" fill="#fff"/><circle cx="3.5" cy="3.5" r=".5" opacity=".6" fill-rule="evenodd"/></svg>