<svg xmlns="http://www.w3.org/2000/svg" viewBox="0 0 16 16"><path d="M1 2l2.5 3L6 2z" stroke="#000" opacity=".7" stroke-width="2" stroke-linejoin="round"/><path d="M4 8a3 3 0 00-3 3 3 3 0 003 3 3 3 0 001-.176V14h2V8H5v.176A3 3 0 004 8zm0 2a1 1 0 011 1 1 1 0 01-1 1 1 1 0 01-1-1 1 1 0 011-1z" opacity=".7" fill-rule="evenodd" stroke="#000" stroke-width="2" stroke-linejoin="round"/><path d="M9 3v11h2v-.176A3 3 0 0012 14a3 3 0 003-3 3 3 0 00-3-3 3 3 0 00-1 .176V3h-1zm3 6a2 2 0 00-.156.008A2 2 0 0112 9zm.156.008a2 2 0 01.14.015 2 2 0 00-.14-.015zm-.453.015a2 2 0 00-.062.01 2 2 0 01.062-.01zm.656.01a2 2 0 01.106.024 2 2 0 00-.106-.024zm-.824.024a2 2 0 00-.105.027 2 2 0 01.105-.027zm1.035.027a2 2 0 01.092.031 2 2 0 00-.092-.031zm-1.232.031a2 2 0 00-.082.031 2 2 0 01.082-.03zm1.406.031a2 2 0 01.106.045 2 2 0 00-.106-.045zm-1.594.045a2 2 0 00-.076.038 2 2 0 01.076-.038zm1.778.04a2 2 0 01.092.05 2 2 0 00-.092-.05zm.342.224a2 2 0 01.068.06 2 2 0 00-.068-.06zm.144.13a2 2 0 01.07.077 2 2 0 00-.07-.076zm.13.145a2 2 0 01.077.102 2 2 0 00-.076-.102zm.118.159a2 2 0 01.057.091 2 2 0 00-.057-.091zM12 10a1 1 0 011 1 1 1 0 01-1 1 1 1 0 01-1-1 1 1 0 011-1zm1.77.072a2 2 0 01.039.078 2 2 0 00-.04-.078zm.084.184a2 2 0 01.03.082 2 2 0 00-.03-.082zm.062.174a2 2 0 01.027.105 2 2 0 00-.027-.105zm.05.21a2 2 0 01.01.063 2 2 0 00-.01-.062zm.026.204A2 2 0 0114 11a2 2 0 00-.008-.156zm0 .312a2 2 0 01-.015.14 2 2 0 00.015-.14zm-.025.203a2 2 0 01-.024.106 2 2 0 00.024-.106zm-.051.211a2 2 0 01-.031.092 2 2 0 00.031-.092zm-.062.174a2 2 0 01-.045.106 2 2 0 00.045-.106zm-.084.184a2 2 0 01-.051.092 2 2 0 00.05-.092zm-.225.342a2 2 0 01-.06.068 2 2 0 00.06-.068zm-.13.144a2 2 0 01-.077.07 2 2 0 00.076-.07zm-.145.13a2 2 0 01-.102.077 2 2 0 00.102-.076zm-.159.118a2 2 0 01-.091.057 2 2 0 00.091-.057zM11 12.73a2 2 0 00.072.04 2 2 0 01-.072-.04zm1.928.04a2 2 0 01-.078.039 2 2 0 00.078-.04zm-1.778.039a2 2 0 00.106.045 2 2 0 01-.106-.045zm1.594.045a2 2 0 01-.082.03 2 2 0 00.082-.03zm-1.406.03a2 2 0 00.092.032 2 2 0 01-.092-.031zm1.232.032a2 2 0 01-.105.027 2 2 0 00.105-.027zm-1.035.027a2 2 0 00.106.024 2 2 0 01-.106-.024zm.824.024a2 2 0 01-.062.01 2 2 0 00.062-.01zm-.656.01a2 2 0 00.14.015 2 2 0 01-.14-.015zm.453.015A2 2 0 0112 13a2 2 0 00.156-.008z" opacity=".7" stroke="#000" stroke-width="2" stroke-linejoin="round"/><path d="M4 8a3 3 0 00-3 3 3 3 0 003 3 3 3 0 001-.176V14h2V8H5v.176A3 3 0 004 8zm0 2a1 1 0 011 1 1 1 0 01-1 1 1 1 0 01-1-1 1 1 0 011-1z" fill="#fff" fill-rule="evenodd"/><path d="M9 3v11h2v-.176A3 3 0 0012 14a3 3 0 003-3 3 3 0 00-3-3 3 3 0 00-1 .176V3h-1zm3 6a2 2 0 00-.156.008A2 2 0 0112 9zm.156.008a2 2 0 01.14.015 2 2 0 00-.14-.015zm-.453.015a2 2 0 00-.062.01 2 2 0 01.062-.01zm.656.01a2 2 0 01.106.024 2 2 0 00-.106-.024zm-.824.024a2 2 0 00-.105.027 2 2 0 01.105-.027zm1.035.027a2 2 0 01.092.031 2 2 0 00-.092-.031zm-1.232.031a2 2 0 00-.082.031 2 2 0 01.082-.03zm1.406.031a2 2 0 01.106.045 2 2 0 00-.106-.045zm-1.594.045a2 2 0 00-.076.038 2 2 0 01.076-.038zm1.778.04a2 2 0 01.092.05 2 2 0 00-.092-.05zm.342.224a2 2 0 01.068.06 2 2 0 00-.068-.06zm.144.13a2 2 0 01.07.077 2 2 0 00-.07-.076zm.13.145a2 2 0 01.077.102 2 2 0 00-.076-.102zm.118.159a2 2 0 01.057.091 2 2 0 00-.057-.091zM12 10a1 1 0 011 1 1 1 0 01-1 1 1 1 0 01-1-1 1 1 0 011-1zm1.77.072a2 2 0 01.039.078 2 2 0 00-.04-.078zm.084.184a2 2 0 01.03.082 2 2 0 00-.03-.082zm.062.174a2 2 0 01.027.105 2 2 0 00-.027-.105zm.05.21a2 2 0 01.01.063 2 2 0 00-.01-.062zm.026.204A2 2 0 0114 11a2 2 0 00-.008-.156zm0 .312a2 2 0 01-.015.14 2 2 0 00.015-.14zm-.025.203a2 2 0 01-.024.106 2 2 0 00.024-.106zm-.051.211a2 2 0 01-.031.092 2 2 0 00.031-.092zm-.062.174a2 2 0 01-.045.106 2 2 0 00.045-.106zm-.084.184a2 2 0 01-.051.092 2 2 0 00.05-.092zm-.225.342a2 2 0 01-.06.068 2 2 0 00.06-.068zm-.13.144a2 2 0 01-.077.07 2 2 0 00.076-.07zm-.145.13a2 2 0 01-.102.077 2 2 0 00.102-.076zm-.159.118a2 2 0 01-.091.057 2 2 0 00.091-.057zM11 12.73a2 2 0 00.072.04 2 2 0 01-.072-.04zm1.928.04a2 2 0 01-.078.039 2 2 0 00.078-.04zm-1.778.039a2 2 0 00.106.045 2 2 0 01-.106-.045zm1.594.045a2 2 0 01-.082.03 2 2 0 00.082-.03zm-1.406.03a2 2 0 00.092.032 2 2 0 01-.092-.031zm1.232.032a2 2 0 01-.105.027 2 2 0 00.105-.027zm-1.035.027a2 2 0 00.106.024 2 2 0 01-.106-.024zm.824.024a2 2 0 01-.062.01 2 2 0 00.062-.01zm-.656.01a2 2 0 00.14.015 2 2 0 01-.14-.015zm.453.015A2 2 0 0112 13a2 2 0 00.156-.008z" fill="#fff"/><path d="M1 2l2.5 3L6 2z" fill="#aee3f8"/></svg>