<svg xmlns="http://www.w3.org/2000/svg" viewBox="0 0 16 16">/&gt;<path d="M3.5 2a1.5 1.5 0 100 3c.233 0 .46-.061.656-.156l7 7A1.526 1.526 0 0011 12.5a1.5 1.5 0 101.5-1.5c-.233 0-.46.061-.656.156l-7-7C4.939 3.96 5 3.733 5 3.5A1.5 1.5 0 003.5 2zm0 1a.5.5 0 110 1 .5.5 0 010-1zm9 9a.5.5 0 110 1 .5.5 0 010-1z" stroke="#000" opacity=".6" stroke-width="2" stroke-linejoin="round"/><path d="M3.5 2a1.5 1.5 0 100 3c.233 0 .46-.061.656-.156l7 7A1.526 1.526 0 0011 12.5a1.5 1.5 0 101.5-1.5c-.233 0-.46.061-.656.156l-7-7C4.939 3.96 5 3.733 5 3.5A1.5 1.5 0 003.5 2zm0 1a.5.5 0 110 1 .5.5 0 010-1zm9 9a.5.5 0 110 1 .5.5 0 010-1z" fill="#fff"/><circle cx="3.5" cy="3.5" r=".5" opacity=".6" fill-rule="evenodd"/><circle cx="12.5" cy="12.5" r=".5" opacity=".6" fill-rule="evenodd"/></svg>