<svg xmlns="http://www.w3.org/2000/svg" viewBox="0 0 16 16">/&gt;<path d="M7 2C4 2 3 3 3 6v1H2v2h1v5h2V9h1V7H5V6c0-1.499.504-2 2-2h1V2z" opacity=".6" stroke="#000" stroke-width="2" stroke-linecap="round" stroke-linejoin="round"/><path d="M7 2C4 2 3 3 3 6v1H2v2h1v5h2V9h1V7H5V6c0-1.499.504-2 2-2h1V2z" fill="#fff"/><path d="M9.465 9.758l-.707.707 1.414 1.414-1.414 1.414.707.707 1.414-1.414L12.293 14l.707-.707-1.414-1.414L13 10.465l-.707-.707-1.414 1.414z" opacity=".6" stroke="#000" stroke-width="2" stroke-linejoin="round"/><path d="M9.465 9.758l-.707.707 1.414 1.414-1.414 1.414.707.707 1.414-1.414L12.293 14l.707-.707-1.414-1.414L13 10.465l-.707-.707-1.414 1.414z" fill="#fff"/></svg>