<svg xmlns="http://www.w3.org/2000/svg" viewBox="0 0 16 16">/&gt;<path opacity=".6" stroke="#000" stroke-width="2" stroke-linejoin="round" d="M2 2h12v12H2z"/><path fill="#fff" d="M2 2h12v12H2z"/><path fill="#6d6d6d" d="M2 2h12v2H2z"/><path fill="#924d8b" d="M8 6h5v2H8z"/><rect y="5" x="3" height="4" width="4" ry="1" opacity=".6"/><path fill="#fff" d="M4 6h2v2H4z"/><path fill="#924d8b" d="M8 10h5v2H8z"/><rect ry="1" width="4" height="4" x="3" y="9" opacity=".6"/><path fill="#fff" d="M4 10h2v2H4z"/><g stroke-width="27.2"><path d="M11.435 13.352L8.28 16l.717-4.055.263-.457 2.438 1.408z" fill="#fec589"/><path style="marker:none" d="M8.51 14.71L8.28 16l1.004-.842c-.004.007-.776-.448-.776-.448z" color="#000" overflow="visible" fill="#5d5d5d"/><path d="M8.998 11.945s2.438 1.495 2.437 1.407L16 5.445l-2.437-1.407z" fill="#2f5fdd"/></g></svg>