<svg xmlns="http://www.w3.org/2000/svg" viewBox="0 0 16 16"><path d="M8 2.5c-3.038 0-5.5.82-5.5 1.833v7.334C2.5 12.679 4.962 13.5 8 13.5s5.5-.82 5.5-1.833V4.333C13.5 3.321 11.038 2.5 8 2.5z" fill="#f2cbf8"/><path d="M8 2a6 2 0 00-6 2v8a6 2 0 006 2 6 2 0 006-2V4a6 2 0 00-6-2zm0 1a5 1 0 015 1 5 1 0 01-5 1 5 1 0 01-5-1 5 1 0 015-1zM3 5.102A6 2 0 008 6a6 2 0 005-.896V8a5 1 0 01-5 1 5 1 0 01-5-1zm0 4A6 2 0 008 10a6 2 0 005-.896V12a5 1 0 01-5 1 5 1 0 01-5-1z" fill="#8e03a3"/><g stroke-width="27.2"><path d="M11.435 13.352L8.28 16l.717-4.055.263-.457 2.438 1.408z" fill="#fec589"/><path style="marker:none" d="M8.51 14.71L8.28 16l1.004-.842c-.004.007-.776-.448-.776-.448z" color="#000" overflow="visible" fill="#5d5d5d"/><path d="M8.998 11.945s2.438 1.495 2.437 1.407L16 5.445l-2.437-1.407z" fill="#2f5fdd"/></g></svg>