<svg xmlns="http://www.w3.org/2000/svg" viewBox="0 0 16 16"><path d="M3.997.98c-1.259.015-2.18-.03-2.932.385a1.88 1.88 0 00-.838.998c-.165.439-.252.96-.225 1.617v8.039c0 .658.06 1.18.225 1.618.165.438.462.788.838.996.753.415 1.673.372 2.932.387H12.008c1.258-.015 2.18.03 2.932-.385a1.88 1.88 0 00.838-.998c.164-.439.224-.96.224-1.617V3.98c0-.657-.06-1.178-.224-1.617a1.875 1.875 0 00-.838-.996C14.187.952 13.266.996 12.008.98H4z" style="line-height:125%;-inkscape-font-specification:Ubuntu;text-align:center" font-weight="400" font-size="15" font-family="Ubuntu" letter-spacing="0" word-spacing="0" text-anchor="middle" opacity=".6"/><path d="M3.986 2.025c-.577.005-1.205.007-1.66.022-.461.043-1.015.205-1.154.709-.139.402-.149.828-.145 1.252h2.96z" fill="#81e9c0"/>/&gt;<path d="M1.041 12.008c.003.202.002.465.006.654.039.462.203 1.013.7 1.164.632.225 1.283.123 1.935.155h.304v-1.973z" fill="#2daaaa"/><path d="M3.986 12.008v1.973c1.163.004 2.691.008 4 .01v-1.983z" fill="#46a926"/><path d="M7.986 12.008v1.982l.971.002c1.257 0 2.06-.006 3.03-.013v-1.971z" fill="#fdc92b"/><path d="M11.986 12.008v1.97l1.078-.005c.512-.012 1.185.02 1.586-.405.348-.445.318-1.015.317-1.56z" fill="#f34f17"/><path d="M1.018 8.008c-.002 1.414.005 2.763.023 4h2.945v-4z" fill="#31c6b7"/><path fill="#76c22b" d="M3.986 8.008h4v4h-4z"/><path fill="#ffda64" d="M7.986 8.008h4v4h-4z"/><path d="M11.986 8.008v4h2.98c0-.115 0-.233.007-.344.005-1.064.009-2.364.01-3.656z" fill="#fb7c38"/><path d="M1.027 4.008c.003.245.012.493-.002.73-.003.947-.006 2.115-.007 3.27h2.968v-4z" fill="#5bdbc1"/><path fill="#a6d74f" d="M3.986 4.008h4v4h-4z"/><path fill="#fee581" d="M7.986 4.008h4v4h-4z"/><path d="M11.986 4.008v4h2.996c.001-1.414-.007-2.754-.025-4z" fill="#fda463"/><path d="M7.986 2.008c-1.1.008-2.61.006-4 .017v1.983h4z" fill="#cbe667"/><path d="M7.986 2.008v2h4V2.02c-1.537-.01-2.354-.013-4-.012z" fill="#fff4c9"/><path d="M11.986 2.02v1.988h2.971c-.003-.23-.001-.523-.006-.738-.05-.402-.17-.864-.576-1.045-.668-.294-1.425-.168-2.125-.205h-.264z" fill="#fec589"/><path d="M3 12h10v-1h-1V7h-2v4H9V9H7v2H6V5H4v6H3z" fill="#232629"/></svg>