<svg xmlns="http://www.w3.org/2000/svg" viewBox="0 0 16 16"><path d="M13 1v4h-2V3H8V1z" fill="#6d6d6d"/><rect width="4" height="2" x="-6" y="7" ry="0" transform="scale(-1 1)" fill="#fff" fill-rule="evenodd"/><rect ry="0" y="12" x="-6" height="2" width="4" transform="scale(-1 1)" fill="#fff" fill-rule="evenodd"/><path d="M7 11v4.094H1V11zm-1 1H2v2h4zM7 6v4.094H1V6zM6 7H2v2h4z" fill="#232629"/><rect transform="scale(-1 1)" ry="0" y="7" x="-14" height="2" width="4" fill="#fff" fill-rule="evenodd"/><path d="M15 6v4.094H9V6zm-1 1h-4v2h4z" fill="#c7162b"/><path d="M13 15v-4h-2v2H8v2z" fill="#6d6d6d"/><rect transform="scale(-1 1)" ry="0" y="2" x="-6" height="2" width="4" fill="#fff" fill-rule="evenodd"/><path d="M7 1v4.094H1V1zM6 2H2v2h4z" fill="#232629"/></svg>