<svg xmlns="http://www.w3.org/2000/svg" viewBox="0 0 16 16"><path fill="#fff" d="M13 3v10H3V3z"/><path d="M12 2H4C2 2 2 3 2 5v6c0 2 0 3 2 3h8c2 0 2-1 2-3V5c0-2 0-3-2-3zm0 1c1 0 1 1 1 2v6c0 1 0 2-1 2h-2v-2H9v2H7v-2H6v2H4c-1 0-1-1-1-2V5c0-1 0-2 1-2h2v2h1V3h2v2h1V3z" fill="#6d6d6d"/><path d="M14 5H2v6h12zm-1 1v4H3V6z" fill="#c7162b" fill-rule="evenodd"/><path fill="#fad1d6" fill-rule="evenodd" d="M13 6v4H3V6z"/><path fill="#c7162b" fill-rule="evenodd" d="M10 5.72v4.699H9V5.72zM7 6v4H6V6z"/><circle cy="12.5" cx="12.5" r="3.5" fill="#c7162b"/><path overflow="visible" font-weight="400" style="line-height:normal;text-indent:0;text-align:start;text-decoration-line:none;text-decoration-style:solid;text-decoration-color:#000;text-transform:none;white-space:normal;isolation:auto;mix-blend-mode:normal;marker:none" d="M13.914 10.379L12.5 11.793l-1.414-1.414-.707.707 1.414 1.414-1.414 1.414.707.707 1.414-1.414 1.414 1.414.707-.707-1.414-1.414 1.414-1.414z" color="#000" font-family="sans-serif" fill="#fff"/></svg>