<svg xmlns="http://www.w3.org/2000/svg" viewBox="0 0 16 16">/&gt;<path fill="#fff" d="M2 2h12v12H2z"/><path d="M4 1C2 1 1 1 1 3v10c0 2 1 2 3 2h8c2 0 3 0 3-2V3c0-2-1-2-3-2zM2 6h3v3H2zm4 0h4v3H6zm5 0h3v3h-3zm-9 4h3v4H4c-1 0-2 0-2-1zm4 0h4v4H6zm5 0h3v3c0 1-1 1-2 1h-1z" fill="#6d6d6d"/><g stroke-width="27.2"><path d="M11.435 13.352L8.28 16l.717-4.055.263-.457 2.438 1.408z" fill="#fec589"/><path style="marker:none" d="M8.51 14.71L8.28 16l1.004-.842c-.004.007-.776-.448-.776-.448z" color="#000" overflow="visible" fill="#5d5d5d"/><path d="M8.998 11.945s2.438 1.495 2.437 1.407L16 5.445l-2.437-1.407z" fill="#2f5fdd"/></g></svg>