<svg xmlns="http://www.w3.org/2000/svg" viewBox="0 0 16 16">/&amp;gt;<path d="M3 2L2 3v1.313l4 5.656V12l4 2V9.969l4-5.656V3l-1-1z" opacity=".7" stroke="#000" stroke-width="2" stroke-linejoin="round"/><path d="M3 2L2 3v1.313l4 5.656V12l4 2V9.969l4-5.656V3l-1-1z" fill="#fff"/><path d="M12.563 8.719L11.78 10H9v1h2.188l-.594 1H9v1h1l-.438.719.876.531.75-1.25H14v-1h-2.219l.594-1H14v-1h-1l.438-.75z" stroke="#000" opacity=".7" stroke-width="2" stroke-linejoin="round"/><path d="M12.563 8.719L11.78 10H9v1h2.188l-.594 1H9v1h1l-.438.719.876.531.75-1.25H14v-1h-2.219l.594-1H14v-1h-1l.438-.75z" fill="#aee3f8"/></svg>