<svg xmlns="http://www.w3.org/2000/svg" viewBox="0 0 16 16">/&gt;<g fill="#1a7fd4"><path d="M3 5V3h2V2H2v3zM3 9v2h2v1H2V9zM2 6h1v2H2zM6 2v1h2V2zM6 11v1h2v-1zM11 5V3H9V2h3v3zM11 9v2H9v1h3V9zM12 6h-1v2h1z"/></g><circle cy="11.5" cx="11.5" r="3.5" fill="#c7162b"/><path overflow="visible" font-weight="400" style="line-height:normal;text-indent:0;text-align:start;text-decoration-line:none;text-decoration-style:solid;text-decoration-color:#000;text-transform:none;white-space:normal;isolation:auto;mix-blend-mode:normal;marker:none" d="M12.914 9.379L11.5 10.793l-1.414-1.414-.707.707 1.414 1.414-1.414 1.414.707.707 1.414-1.414 1.414 1.414.707-.707-1.414-1.414 1.414-1.414z" color="#000" font-family="sans-serif" fill="#fff"/></svg>