<svg xmlns="http://www.w3.org/2000/svg" viewBox="0 0 16 16"><path fill="#fff" fill-rule="evenodd" d="M3 13h10V3H3z"/><path d="M2 12V4c0-2 1-2 3-2h6c2 0 3 0 3 2v8c0 2-1 2-3 2H5c-2 0-3 0-3-2zm1 0c0 1 1 1 2 1v-3h1v3h4v-3h1v3c1 0 2 0 2-1v-2h-2V9h2V6h-2V5h2V4c0-1-1-1-2-1v2h-1V3H6v2H5V3C4 3 3 3 3 4v1h2v1H3v3h2v1H3z" fill="#6d6d6d"/><path d="M10 6.281V6h-.281zM8.719 9H10V7.719L8.281 6H6v.281zM6 9h1.281L6 7.719z" fill="#c7162b"/><path d="M5 10V5H11v5H6z" fill="#c7162b"/><circle cx="17.678" r="3.5" transform="rotate(45)" fill="#c7162b"/><path overflow="visible" font-weight="400" style="line-height:normal;text-indent:0;text-align:start;text-decoration-line:none;text-decoration-style:solid;text-decoration-color:#000;text-transform:none;white-space:normal;isolation:auto;mix-blend-mode:normal;marker:none" d="M13.914 10.379L12.5 11.793l-1.414-1.414-.707.707 1.414 1.414-1.414 1.414.707.707 1.414-1.414 1.414 1.414.707-.707-1.414-1.414 1.414-1.414z" color="#000" font-family="sans-serif" fill="#fff"/><path fill="#fad1d6" fill-rule="evenodd" d="M6 6h4v3H6z"/></svg>