<svg xmlns="http://www.w3.org/2000/svg" viewBox="0 0 16 16"><path fill="#fff" fill-rule="evenodd" d="M2 5h2v8H2z"/><path fill="#a6d74f" fill-rule="evenodd" d="M2 2h11v2H2z"/><path d="M1 3v9c0 2 1 2 3 2h1V5h9V3c0-2-1-2-3-2H4C2 1 1 1 1 3zm1 0c0-1 1-1 2-1v2H2zm3-1h2v2H5zm3 0h2v2H8zm3 0c1 0 2 0 2 1v1h-2zM2 5h2v2H2zm0 3h2v2H2zm0 3h2v2c-1 0-2 0-2-1z" fill="#6d6d6d" fill-rule="evenodd"/><path d="M9 7c-.007-.235.848-.32 1.727-.074.88.243 1.115.655 2.11.938.92.262 2.169-.03 2.163.206v4.587c.01.315-1.129.326-2.126.087-.994-.238-1.18-.7-2.12-.943-.936-.24-1.776.168-1.754-.263z" fill="#fa9381" fill-rule="evenodd"/><rect width="2" height="10" x="7" y="6" ry="1" fill="#6d6d6d" fill-rule="evenodd"/></svg>