<svg xmlns="http://www.w3.org/2000/svg" viewBox="0 0 16 16">/&gt;<path d="M3.05 11.536l1.414-1.415 1.415 1.415-1.415 1.414zm7.071 0l1.415-1.415 1.414 1.415-1.414 1.414zm0-7.072l1.415-1.414 1.414 1.414-1.414 1.415zm-7.07 0L4.463 3.05 5.88 4.464 4.464 5.88zM2 7h2v2H2zm5 5h2v2H7zm5-5h2v2h-2zM7 2h2v2H7zm4 6a3 3 0 01-3 3 3 3 0 01-3-3 3 3 0 013-3 3 3 0 013 3z" opacity=".6" stroke="#000" stroke-width="2" stroke-linejoin="round"/><path d="M3.05 11.536l1.414-1.415 1.415 1.415-1.415 1.414zm7.071 0l1.415-1.415 1.414 1.415-1.414 1.414zm0-7.072l1.415-1.414 1.414 1.414-1.414 1.415zm-7.07 0L4.463 3.05 5.88 4.464 4.464 5.88zM2 7h2v2H2zm5 5h2v2H7zm5-5h2v2h-2zM7 2h2v2H7zm4 6a3 3 0 01-3 3 3 3 0 01-3-3 3 3 0 013-3 3 3 0 013 3z" fill="#fee581"/></svg>