<svg xmlns="http://www.w3.org/2000/svg" viewBox="0 0 16 16"><path d="M14.996 5c0-2 0-3-2-3h-6c-2 0-2 1-2 3v4c0 2 0 3 2 3h6c2 0 2-1 2-3z" opacity=".7" stroke="#000" stroke-width="2" stroke-linejoin="round"/><path d="M14.996 5c0-2 0-3-2-3h-6c-2 0-2 1-2 3v4c0 2 0 3 2 3h6c2 0 2-1 2-3z" fill="#fff"/><path opacity=".7" stroke="#000" stroke-width="2" stroke-linejoin="round" d="M12.987 1v12h-4V1z"/><path fill="#aee3f8" d="M12.987 1v12h-4V1z"/><path opacity=".7" d="M12.992 2v1h-2V2zM12.992 5v1h-2V5zM12.992 8v1h-2V8zM12.992 11v1h-2v-1z"/><path d="M11.005 7c0-2 0-3-2-3h-6c-2 0-2 1-2 3v4c0 2 0 3 2 3h6c2 0 2-1 2-3z" opacity=".7" stroke="#000" stroke-width="2" stroke-linejoin="round"/><path d="M11.005 7c0-2 0-3-2-3h-6c-2 0-2 1-2 3v4c0 2 0 3 2 3h6c2 0 2-1 2-3z" fill="#fff"/><path opacity=".7" stroke="#000" stroke-width="2" stroke-linejoin="round" d="M6.996 3v12h-4V3z"/><path fill="#aee3f8" d="M6.996 3v12h-4V3z"/><path opacity=".7" d="M7.001 4v1h-2V4zM7.001 7v1h-2V7zM7.001 10v1h-2v-1zM7.001 13v1h-2v-1z"/></svg>