<svg xmlns="http://www.w3.org/2000/svg" viewBox="0 0 16 16"><path d="M3 12V4c0-2 1-2 3-2h4l3 3v7c0 2-1 2-3 2H6c-2 0-3 0-3-2z" opacity=".6" stroke="#000" stroke-width="2" stroke-linejoin="round"/><path d="M3 12V4c0-2 1-2 3-2h4l3 3v7c0 2-1 2-3 2H6c-2 0-3 0-3-2z" fill="#fff"/><path d="M10 5V2l3 3z" fill="#6d6d6d"/><path d="M8 11.514L5.486 9 8 6.486l.838.838L7.162 9 8 9.838l2.514-2.514-2.19-2.19a.458.458 0 00-.648 0L4.134 8.676a.458.458 0 000 .648l3.542 3.542a.458.458 0 00.648 0l3.542-3.542a.458.458 0 000-.648l-.514-.514z" fill="#579120"/></svg>