<svg xmlns="http://www.w3.org/2000/svg" viewBox="0 0 16 16"><path d="M5 1.005c-2 0-3 0-3 2v6c0 2 1 2 3 2h4c2 0 3 0 3-2v-6c0-2-1-2-3-2z" opacity=".7" stroke="#000" stroke-width="2" stroke-linejoin="round"/><path d="M5 1.005c-2 0-3 0-3 2v6c0 2 1 2 3 2h4c2 0 3 0 3-2v-6c0-2-1-2-3-2z" fill="#fff"/><path opacity=".7" stroke="#000" stroke-width="2" stroke-linejoin="round" d="M1 3.013h12v4H1z"/><path fill="#fec589" d="M1 3.013h12v4H1z"/><path fill="#333" d="M2 3.008h1v2H2z"/><path fill="#f22c42" d="M5 3.008h1v2H5z"/><path fill="#333" d="M8 3.008h1v2H8z"/><path fill="#f22c42" d="M11 3.008h1v2h-1z"/><path d="M7 4.995c-2 0-3 0-3 2v6c0 2 1 2 3 2h4c2 0 3 0 3-2v-6c0-2-1-2-3-2z" opacity=".7" stroke="#000" stroke-width="2" stroke-linejoin="round"/><path d="M7 4.995c-2 0-3 0-3 2v6c0 2 1 2 3 2h4c2 0 3 0 3-2v-6c0-2-1-2-3-2z" fill="#fff"/><path opacity=".7" stroke="#000" stroke-width="2" stroke-linejoin="round" d="M3 9.004h12v4H3z"/><path fill="#fec589" d="M3 9.004h12v4H3z"/><path fill="#333" d="M4 9h1v2H4z"/><path fill="#f22c42" d="M7 9h1v2H7z"/><path fill="#333" d="M10 9h1v2h-1z"/><path fill="#f22c42" d="M13 9h1v2h-1z"/></svg>