<svg xmlns="http://www.w3.org/2000/svg" xmlns:xlink="http://www.w3.org/1999/xlink" viewBox="0 0 16 16"><defs><linearGradient id="a"><stop offset="0" stop-color="#76c22b"/><stop offset="1" stop-color="#a6d74f"/></linearGradient><linearGradient xlink:href="#a" id="b" gradientUnits="userSpaceOnUse" gradientTransform="matrix(1.1 0 0 1.08333 12.04 -.667)" x1="-8.673" y1="2" x2="1.327" y2="14"/></defs><rect width="11" height="13" x="2.5" y="1.5" ry="3.25" fill="url(#b)"/><path d="M5 1C3.338 1 2 2.338 2 4v8c0 1.662 1.338 3 3 3h6c1.662 0 3-1.338 3-3V4c0-1.662-1.338-3-3-3zm1 1h4c1.662 0 3 1.338 3 3v6c0 1.662-1.338 3-3 3H6c-1.662 0-3-1.338-3-3V5c0-1.662 1.338-3 3-3z" opacity=".4"/><path d="M8 10.514L5.486 8 8 5.486l.838.838L7.162 8 8 8.838l2.514-2.514-2.19-2.19a.458.458 0 00-.648 0L4.134 7.676a.458.458 0 000 .648l3.542 3.542a.458.458 0 00.648 0l3.542-3.542a.458.458 0 000-.648l-.514-.514z" fill="#fff"/></svg>