<svg xmlns="http://www.w3.org/2000/svg" viewBox="0 0 16 16"><path d="M7 1.005c-2 0-3 0-3 2v6c0 2 1 2 3 2h4c2 0 3 0 3-2v-6c0-2-1-2-3-2z" opacity=".6" stroke="#000" stroke-width="2" stroke-linejoin="round"/><path d="M7 1.005c-2 0-3 0-3 2v6c0 2 1 2 3 2h4c2 0 3 0 3-2v-6c0-2-1-2-3-2z" fill="#fff"/><path opacity=".6" stroke="#000" stroke-width="2" stroke-linejoin="round" d="M3 3.014h12v4H3z"/><path fill="#aee3f8" d="M3 3.014h12v4H3z"/><path opacity=".6" d="M4 3.009h1v2H4zM7 3.009h1v2H7zM10 3.009h1v2h-1zM13 3.009h1v2h-1z"/><path d="M5 4.996c-2 0-3 0-3 2v6c0 2 1 2 3 2h4c2 0 3 0 3-2v-6c0-2-1-2-3-2z" opacity=".6" stroke="#000" stroke-width="2" stroke-linejoin="round"/><path d="M5 4.996c-2 0-3 0-3 2v6c0 2 1 2 3 2h4c2 0 3 0 3-2v-6c0-2-1-2-3-2z" fill="#fff"/><path opacity=".6" stroke="#000" stroke-width="2" stroke-linejoin="round" d="M1 9.005h12v4H1z"/><path fill="#aee3f8" d="M1 9.005h12v4H1z"/><path opacity=".6" d="M2 9h1v2H2zM5 9h1v2H5zM8 9h1v2H8zM11 9h1v2h-1z"/></svg>