<svg xmlns="http://www.w3.org/2000/svg" height="16" width="16"><linearGradient id="a" gradientTransform="matrix(1.25 0 0 .70833 -387 -633.006)" gradientUnits="userSpaceOnUse" x1="318.42" x2="318.42" y1="906.384" y2="912.357"><stop offset="0" stop-color="#60170a"/><stop offset="1" stop-color="#29140a"/></linearGradient><linearGradient id="b" gradientUnits="userSpaceOnUse" spreadMethod="reflect" x1="8.02" x2="13.243" y1="10.286" y2="10.286"><stop offset="0" stop-color="#fff"/><stop offset=".762" stop-color="#fff"/><stop offset="1" stop-color="#fff" stop-opacity="0"/></linearGradient><linearGradient id="c" gradientTransform="matrix(1.50002 0 0 1 -466.008 -898.112)" gradientUnits="userSpaceOnUse" x1="316" x2="316" y1="911.362" y2="909.362"><stop offset="0" stop-color="#e84b00"/><stop offset="1" stop-color="#e44a00" stop-opacity=".799"/></linearGradient><path d="M15 8A7 6.999 0 111 8a7 6.999 0 1114 0z" stroke-width="2" stroke="#000" opacity=".7" stroke-linejoin="round"/><path d="M15 8A7 6.999 0 111 8a7 6.999 0 1114 0z" fill="#ffda64"/><path d="M6.75 6.263a.75 2 0 11-1.5 0 .75 2 0 111.5 0zM9.25 6.263a.75 2 0 101.5 0 .75 2 0 10-1.5 0z" fill="#43340d"/><path d="M3.031 9c-.01.102-.031.2-.031.304 0 2.18 2.239 3.946 5 3.946s5-1.767 5-3.946c0-.104-.021-.202-.031-.304 0 0-1.392.483-4.969.425C4.423 9.367 3.031 9 3.031 9z" fill="url(#a)"/><path d="M3.229 10.071s.91.429 4.771.429c3.862 0 4.743-.429 4.743-.429" stroke="url(#b)" fill="none"/><path d="M5.019 11.25c-.006.048-.019.094-.019.143 0 1.026 1.343 1.857 3 1.857s3-.831 3-1.857c0-.049-.013-.095-.019-.143z" fill="url(#c)" opacity=".6"/></svg>