<svg xmlns="http://www.w3.org/2000/svg" viewBox="0 0 16 16">/&gt;<path fill="#fff" d="M1 1h12v12H1z"/><path fill="#f3d8f2" fill-rule="evenodd" d="M1 1h8v8H1z"/><path d="M0 2v10c0 2 1 2 3 2h8c2 0 3 0 3-2V2c0-2-1-2-3-2H3C1 0 0 0 0 2zm3-1h1v3H1V2c0-1 1-1 2-1zm2 0h4v3H5zm5 0h1c1 0 2 0 2 1v2h-3zM1 5h3v4H1zm4 0h4v4H5zm5 0h3v4h-3zm-9 5h3v3H3c-1 0-2 0-2-1zm4 0h4v3H5zm5 0h3v2c0 1-1 1-2 1h-1z" fill="#6d6d6d"/><path d="M3 0C1 0 0 0 0 2v8h10V0zm0 1h1v3H1V2c0-1 1-1 2-1zm2 0h4v3H5zM1 5h3v4H1zm4 0h4v4H5z" fill="#762572"/><g stroke-width="27.2"><path d="M11.435 13.352L8.28 16l.717-4.055.263-.457 2.438 1.408z" fill="#fec589"/><path style="marker:none" d="M8.51 14.71L8.28 16l1.004-.842c-.004.007-.776-.448-.776-.448z" color="#000" overflow="visible" fill="#5d5d5d"/><path d="M8.998 11.945s2.438 1.495 2.437 1.407L16 5.445l-2.437-1.407z" fill="#2f5fdd"/></g></svg>