<svg xmlns="http://www.w3.org/2000/svg" viewBox="0 0 16 16"><path d="M5.01 2c-1.257.014-2.178-.03-2.93.385a1.88 1.88 0 00-.839.998c-.164.438-.224.96-.224 1.617V12c0 .657.06 1.178.224 1.617.165.438.462.788.838.996.753.415 1.674.372 2.932.387h6.012c1.258-.015 2.178.03 2.931-.385a1.88 1.88 0 00.838-.998c.165-.439.225-.96.225-1.617V5c0-.658-.06-1.179-.225-1.617a1.875 1.875 0 00-.838-.996c-.753-.416-1.673-.372-2.932-.387H5.015z" style="line-height:125%;-inkscape-font-specification:Ubuntu;text-align:center" font-weight="400" font-size="15" font-family="Ubuntu" letter-spacing="0" word-spacing="0" text-anchor="middle" opacity=".7"/><path d="M5 3.027c-1.557.01-.11-.012-1.66.039-.461.042-1.016.206-1.155.71-.22.635-.109 1.334-.146 1.982-.008 2.297-.023 4.596.022 6.886.039.462.202 1.012.698 1.163.633.225 1.284.123 1.936.155 1.424.006-.15.01 1.276.01 1.705.001 4.409-.004 6.108-.018.512-.012 1.183.02 1.585-.405.42-.54.287-1.268.322-1.904.012-2.444.028-4.91-.022-7.357-.049-.402-.17-.862-.575-1.044-.668-.294-1.426-.168-2.126-.206C9.51 3.027 6.754 3.026 5 3.027z" fill="#fff"/><path d="M3 5v1h10V5zm0 3v1h10V8z"/><path d="M4 10l-1 2h1v1h1v-3z" fill="#fa9381"/><rect width="7" height="1" x="6" y="11" ry="0" fill="#fa9381"/><circle cx="11.5" cy="4.316" r="1.5" fill="#fff"/><circle cx="11.5" cy="6.316" r="1.5" fill="#fff"/><path d="M9.576.428a.252.252 0 00-.154.33l.25.686a3.372 3.372 0 00-.712.667l-.68-.315a.248.248 0 00-.341.124l-.525 1.125a.248.248 0 00.124.34l.679.32c-.06.32-.087.641-.055.973l-.686.25a.252.252 0 00-.154.33l.424 1.166c.05.137.192.204.33.154l.686-.25c.188.277.415.504.667.712l-.317.68a.248.248 0 00.124.34l1.125.525c.132.064.282.01.341-.124l.319-.679c.32.06.642.087.974.055l.25.687c.05.138.192.204.33.154l1.166-.424a.252.252 0 00.154-.33l-.25-.686c.277-.188.504-.415.711-.667l.68.317c.132.064.281.01.34-.124l.526-1.125a.248.248 0 00-.124-.341l-.679-.319c.06-.32.087-.642.055-.974l.687-.25a.252.252 0 00.154-.33l-.424-1.166a.252.252 0 00-.33-.154l-.686.25a3.372 3.372 0 00-.668-.711l.318-.68a.248.248 0 00-.124-.34L12.956.097a.248.248 0 00-.341.124l-.32.679a3.428 3.428 0 00-.973-.055l-.25-.688a.252.252 0 00-.33-.154zm1.683 2.813a1.17 1.17 0 11.8 2.201 1.17 1.17 0 01-.8-2.201z" display="block" fill="#b3b3b3" stroke="#6d6d6d" stroke-width=".617" stroke-linejoin="round"/></svg>