<svg xmlns="http://www.w3.org/2000/svg" viewBox="0 0 16 16">/&amp;amp;gt;<path d="M6.383 4L2 15h2.357l1.19-3h4.906l1.19 3H14L9.617 4H8zM8 5.496L9.686 10H6.314z" opacity=".7" stroke="#000" stroke-width="2" stroke-linejoin="round"/><path d="M6.383 4L2 15h2.357l1.19-3h4.906l1.19 3H14L9.617 4H8zM8 5.496L9.686 10H6.314z" fill="#fff"/><path d="M8.608 1l-.08 1.989-1.281.669-.401-.225L6.83 2.25l-.838.773-1.131-.353.475 1.037-.685.966 1.134-.131.709.95.224-1.12.591-.2 1.254.465.345 2.037 1.235-1.561 2.043.3-1.103-1.656L12 1.907l-1.915.537zm-4.43 3.502l-.652.602-.876-.276.369.807-.532.748.88-.102.55.738.173-.87.872-.292-.772-.433-.012-.922zm2.978.717l-.95.874-1.28-.4.54 1.173-.774 1.092 1.28-.149.8 1.075.254-1.266 1.27-.427-1.126-.634-.014-1.34zM2.168 6.49l-.24.898L1 7.637l.778.503-.048.963.72-.586.9.345-.335-.866.604-.75-.926.051-.525-.808z" opacity=".7" stroke="#000" stroke-width="2" stroke-linejoin="round"/><path d="M8.608 1l-.08 1.989-1.281.669-.401-.225L6.83 2.25l-.838.773-1.131-.353.475 1.037-.685.966 1.134-.131.709.95.224-1.12.591-.2 1.254.465.345 2.037 1.235-1.561 2.043.3-1.103-1.656L12 1.907l-1.915.537zm-4.43 3.502l-.652.602-.876-.276.369.807-.532.748.88-.102.55.738.173-.87.872-.292-.772-.433-.012-.922zm2.978.717l-.95.874-1.28-.4.54 1.173-.774 1.092 1.28-.149.8 1.075.254-1.266 1.27-.427-1.126-.634-.014-1.34zM2.168 6.49l-.24.898L1 7.637l.778.503-.048.963.72-.586.9.345-.335-.866.604-.75-.926.051-.525-.808z" fill="#fa9381"/></svg>