<svg xmlns="http://www.w3.org/2000/svg" viewBox="0 0 16 16">/&gt;<path d="M12.125 9c-.196.001-.731.046-1.563.563-.26.161-.453.344-.75.562a24.2 24.2 0 01-.937.625c-.62.383-.84.48-1.375.75-.517.261-1.06.499-1.438.688C4.47 12.982 2 13 2 13v1s2.496.032 4.313-.875c.24-.12.668-.318 1.062-.5 0 0 1.853.763 3.25 1.156 1.144.412 2.033.149 2.469-.156.627-.477.928-1.336.906-2.156a2.601 2.601 0 00-.156-.844c-.106-.319-.266-.676-.5-.938-.362-.423-.543-.609-1.219-.687z" stroke="#000" opacity=".6" stroke-width="2" stroke-linejoin="round"/><path d="M12.125 9c-.196.001-.731.046-1.563.563-.26.161-.453.344-.75.562a24.2 24.2 0 01-.937.625c-.62.383-.84.48-1.375.75-.517.261-1.06.499-1.438.688C4.47 12.982 2 13 2 13v1s2.496.032 4.313-.875c.24-.12.668-.318 1.062-.5 0 0 1.853.763 3.25 1.156 1.144.412 2.033.149 2.469-.156.627-.477.928-1.336.906-2.156a2.601 2.601 0 00-.156-.844c-.106-.319-.266-.676-.5-.938-.362-.423-.543-.609-1.219-.687z" fill="#fff"/><g stroke-width="27.2"><path d="M4.731 9.259L1 11l1.741-3.731.373-.373 1.99 1.99z" fill="#fec589"/><path style="marker:none" d="M1.554 9.813L1 11l1.187-.554c-.005.006-.633-.633-.633-.633z" color="#000" overflow="visible" fill="#5d5d5d"/><path d="M2.741 7.269s1.968 2.075 1.99 1.99l6.456-6.456-1.99-1.99z" fill="#2f5fdd"/></g></svg>