<svg xmlns="http://www.w3.org/2000/svg" viewBox="0 0 16 16">/&gt;<rect width="10" height="5" x="-16.408" y="-5.58" ry="1" rx="1" transform="scale(-1 1) rotate(-45)" opacity=".7" fill-rule="evenodd" stroke="#000" stroke-width="2" stroke-linejoin="round"/><path d="M7.063 2l-.707-.707c-1.415-1.415-2.122-.708-2.829 0L2.113 2.707c-.707.707-1.414 1.414 0 2.828L4.94 8.364c.707.707.707.707 0 1.414l.707.707c.708-.707 1.415-1.414 0-2.829L2.82 4.828c-.707-.707-.707-.707 0-1.414L4.234 2c.707-.707.707-.707 1.414 0l.708.707L7.063 2" fill="#6d6d6d"/><path d="M5.648 10.485l-.707-.707c-.707-.707-.707-.707-2.828 1.414l-.707.707C-.01 13.313-.01 13.313.698 14.02l.708.708c.707.707.707.707 2.121-.708l.707-.707c2.122-2.121 2.122-2.121 1.414-2.828z" fill="#fa9381"/><rect ry="1" y="-5.58" x="-16.408" height="5" width="10" rx="1" transform="scale(-1 1) rotate(-45)" fill="#fff" fill-rule="evenodd"/></svg>