<svg xmlns="http://www.w3.org/2000/svg" viewBox="0 0 16 16"><path d="M13 7.5v1h1v-1zM7.5 13v1h1v-1zm4.344-1.844c-.204.247-.44.484-.688.688l.719.719c.248-.211.477-.44.688-.688zm-7.688 0l-.718.719c.21.248.44.477.687.688l.719-.72a5.175 5.175 0 01-.688-.687zM2 7.5v1h1v-1zM8 4a4 4 0 100 8 4 4 0 000-8zm3.875-.563l-.719.72c.247.203.484.44.688.687l.719-.719a6.007 6.007 0 00-.688-.688zm-7.75 0c-.248.211-.477.44-.688.688l.72.719c.203-.247.44-.484.687-.688zM7.5 2v1h1V2z" stroke="#000" opacity=".6" stroke-linejoin="round" stroke-width="2"/><path d="M13 7.5v1h1v-1zM7.5 13v1h1v-1zm4.344-1.844c-.204.247-.44.484-.688.688l.719.719c.248-.211.477-.44.688-.688zm-7.688 0l-.718.719c.21.248.44.477.687.688l.719-.72a5.175 5.175 0 01-.688-.687zM2 7.5v1h1v-1zM8 4a4 4 0 100 8 4 4 0 000-8zm3.875-.563l-.719.72c.247.203.484.44.688.687l.719-.719a6.007 6.007 0 00-.688-.688zm-7.75 0c-.248.211-.477.44-.688.688l.72.719c.203-.247.44-.484.687-.688zM7.5 2v1h1V2z" fill="#fff"/></svg>