<svg xmlns="http://www.w3.org/2000/svg" viewBox="0 0 16 16"><path style="line-height:normal;font-variant-ligatures:normal;font-variant-position:normal;font-variant-caps:normal;font-variant-numeric:normal;font-variant-alternates:normal;font-variant-east-asian:normal;font-feature-settings:normal;font-variation-settings:normal;text-indent:0;text-align:start;text-decoration-line:none;text-decoration-style:solid;text-decoration-color:#000;text-transform:none;text-orientation:mixed;white-space:normal;shape-padding:0;shape-margin:0;inline-size:0;isolation:auto;mix-blend-mode:normal;solid-color:#000;solid-opacity:1" d="M2 2v12h2V9h4V7H4V2zm7 0v4h2V2zm3 4c-.833 0-1.47.361-1.93.668-.46.307-.777.625-.777.625a1 1 0 001.414 1.414s.183-.182.473-.375S11.833 8 12 8c.745 0 .838.207.92.629.082.422-.094 1.131-.627 1.664l-3 3a1 1 0 00-.293.719V15h6v-2h-2.586l1.293-1.293c.967-.967 1.41-2.258 1.176-3.46C14.649 7.042 13.49 6 12 6z" color="#000" font-weight="400" font-family="sans-serif" overflow="visible" opacity=".6" stroke="#000" stroke-width="2" stroke-linecap="round" stroke-linejoin="round"/><path d="M2 2v12h2V9h4V7H4V2zm7 0v4l2-1V2z" fill="#fff"/><path d="M12 6c-.833 0-1.47.361-1.93.668-.46.307-.777.625-.777.625a1 1 0 000 1.414 1 1 0 001.414 0s.183-.182.473-.375S11.833 8 12 8c.745 0 .838.207.92.629.082.422-.094 1.131-.627 1.664l-3 3a1 1 0 00-.293.719V15h6v-2h-2.586l1.293-1.293c.967-.967 1.41-2.258 1.176-3.46C14.649 7.042 13.49 6 12 6z" fill="#aee3f8" fill-rule="evenodd"/></svg>