<svg xmlns="http://www.w3.org/2000/svg" viewBox="0 0 16 16"><path fill="#fff" d="M14 2v12H2V2z"/><path d="M15 4c0-2 0-3-2-3H3C1 1 1 2 1 4v8c0 2 0 3 2 3h10c2 0 2-1 2-3zm-2-2c1 0 1 1 1 2v1h-3v1h3v4h-3v1h3v1c0 1 0 2-1 2H3c-1 0-1-1-1-2v-1h3v-1H2V6h3V5H2V4c0-1 0-2 1-2h9z" fill="#6d6d6d"/><path fill="#762572" fill-rule="evenodd" d="M11 1v14H5V1z"/><path fill="#f3d8f2" fill-rule="evenodd" d="M10 2v12H6V2z"/><path fill="#762572" fill-rule="evenodd" d="M10 5v1H6V5zM10 10v1H6v-1z"/><circle cx="12" cy="12" r="3" opacity=".6" fill-rule="evenodd" stroke="#000" stroke-width="2" stroke-linejoin="round"/><circle r="3" cy="12" cx="12" fill="#fff" fill-rule="evenodd"/><path d="M12 10a2 2 0 102 2 2 2 0 000-.588A1 1 0 0113 12a1 1 0 01-1-1 1 1 0 01.59-1 2 2 0 00-.59 0z" fill="#232629"/><path opacity=".6" fill="#aee3f8" fill-rule="evenodd" stroke="#000" stroke-width="2" stroke-linejoin="round" d="M15.293 8.929l.707.707L9.636 16l-.707-.707z"/><path fill="#aee3f8" fill-rule="evenodd" d="M15.293 8.929l.707.707L9.636 16l-.707-.707z"/></svg>