<svg xmlns="http://www.w3.org/2000/svg" viewBox="0 0 16 16"><path d="M7 12l3-2v1h2c1 0 1 0 1-2h2v1c0 2 0 3-2 3h-3v1zM4 9a2.5 2.5 0 000 5h1v-1H4a1.5 1.5 0 110-3h1V9zM9 2v5h2.27C12.292 7 13 6.343 13 5.525c0-.598-.343-1.106-.98-1.338a1.61 1.61 0 00.171-.687c0-.831-.615-1.5-1.382-1.5h-.885zm1 1h.885c.255 0 .46.223.46.5s-.205.5-.46.5H10zm0 2h1.168c.462 0 .832.223.832.5s-.37.5-.832.5H10z" opacity=".6" stroke="#000" stroke-width="2" stroke-linejoin="round"/><path d="M3.273 2L1.646 7h1.051l.326-1h1.954l.326 1h1.05L4.728 2zM4 3l.652 2H3.348z" opacity=".6" fill-rule="evenodd" stroke="#000" stroke-width="2" stroke-linejoin="round"/><path d="M4 9a2.5 2.5 0 000 5h1v-1H4a1.5 1.5 0 110-3h1V9zM9 2v5h2.27C12.292 7 13 6.343 13 5.525c0-.598-.343-1.106-.98-1.338a1.61 1.61 0 00.171-.687c0-.831-.615-1.5-1.382-1.5h-.885zm1 1h.885c.255 0 .46.223.46.5s-.205.5-.46.5H10zm0 2h1.168c.462 0 .832.223.832.5s-.37.5-.832.5H10z" fill="#fff"/><path d="M3.273 2L1.646 7h1.051l.326-1h1.954l.326 1h1.05L4.728 2zM4 3l.652 2H3.348z" fill="#fff" fill-rule="evenodd"/><path d="M7 12l3-2v1h2c1 0 1 0 1-2h2v1c0 2 0 3-2 3h-3v1z" fill="#aee3f8"/></svg>