<svg xmlns="http://www.w3.org/2000/svg" viewBox="0 0 16 16"><path fill="#fff" d="M3 3h10v10H3z"/><path d="M2 4v8c0 2 1 2 3 2h6c2 0 3 0 3-2V4c0-2-1-2-3-2H5C3 2 2 2 2 4zm1 0c0-1 1-1 2-1h6c1 0 2 0 2 1v2h-2v1h2v2h-2v1h2v2c0 1-1 1-2 1H5c-1 0-2 0-2-1v-2h2V9H3V7h2V6H3z" fill="#6d6d6d"/><path d="M5 3v10h1.719L10 9.719V13h1V3h-1v1.281l-4 4V5.72L8.719 3H7.28L6 4.281V3zm5 2.719V8.28l-4 4V9.72z" fill="#762572"/><circle cx="12" cy="12" r="3" opacity=".6" fill-rule="evenodd" stroke="#000" stroke-width="2" stroke-linejoin="round"/><circle r="3" cy="12" cx="12" fill="#fff" fill-rule="evenodd"/><path d="M12 10a2 2 0 102 2 2 2 0 000-.588A1 1 0 0113 12a1 1 0 01-1-1 1 1 0 01.59-1 2 2 0 00-.59 0z" fill="#232629"/><path opacity=".6" fill="#aee3f8" fill-rule="evenodd" stroke="#000" stroke-width="2" stroke-linejoin="round" d="M15.293 8.929l.707.707L9.636 16l-.707-.707z"/><path fill="#aee3f8" fill-rule="evenodd" d="M15.293 8.929l.707.707L9.636 16l-.707-.707z"/></svg>