<svg xmlns="http://www.w3.org/2000/svg" xmlns:xlink="http://www.w3.org/1999/xlink" viewBox="0 0 16 16"><defs><linearGradient id="a"><stop offset="0" stop-color="#151515"/><stop offset="1" stop-color="#4d4d4d"/></linearGradient><linearGradient xlink:href="#a" id="b" x1="14.849" y1="-2.121" x2="20.506" y2="3.536" gradientUnits="userSpaceOnUse"/></defs><path d="M2 4v7c0 1.108.892 2 2 2h8c1.108 0 2.014-.892 2-2V4z" opacity=".7" fill-rule="evenodd" stroke="#000" stroke-width="2" stroke-linejoin="round"/><path fill="#6d6d6d" fill-rule="evenodd" d="M0 2h16v2H0z"/><path d="M2 4v7c0 1.108.892 2 2 2h8c1.108 0 2.014-.892 2-2V4z" fill="#fff" fill-rule="evenodd"/><path d="M13 8.5a2.5 2.5 0 01-1.543 2.31 2.5 2.5 0 01-2.725-.542 2.5 2.5 0 01-.542-2.725A2.5 2.5 0 0110.5 6v2.5z" fill="#46a926" fill-rule="evenodd"/><path fill="#1a7fd4" fill-rule="evenodd" d="M3 6h4v1H3z"/><path fill="#c7162b" fill-rule="evenodd" d="M3 8h4v1H3z"/><path fill="#46a926" fill-rule="evenodd" d="M3 10h4v1H3z"/><path d="M10.5 6A2.5 2.5 0 0113 8.5h-2.5z" fill="#c7162b" fill-rule="evenodd"/><circle cx="12" cy="12" r="3" opacity=".7" fill-rule="evenodd" stroke="#000" stroke-width="2" stroke-linejoin="round"/><circle r="3" cy="12" cx="12" fill="#fff" fill-rule="evenodd"/><path d="M12 10a2 2 0 102 2 2 2 0 000-.588A1 1 0 0113 12a1 1 0 01-1-1 1 1 0 01.59-1 2 2 0 00-.59 0z" fill="#232629"/><path fill="#aee3f8" fill-rule="evenodd" stroke="#fff" stroke-width="2" stroke-linejoin="round" d="M15.293 8.929l.707.707L9.636 16l-.707-.707z"/><path transform="rotate(45)" fill="url(#b)" fill-rule="evenodd" d="M17.127-4.5h1v9h-1z"/></svg>