<svg xmlns="http://www.w3.org/2000/svg" viewBox="0 0 16 16"><path d="M2 2v12h2V9h7V2H9v5H4V2H2zm6 8v5h1v-5H8zm2.518 0a.5.5 0 00-.24.053.5.5 0 00-.225.67l2 4a.5.5 0 00.894 0l2-4a.5.5 0 00-.224-.67.5.5 0 00-.67.224L12.5 13.383l-1.553-3.106a.5.5 0 00-.43-.277z" opacity=".7" fill-rule="evenodd" stroke="#000" stroke-width="2" stroke-linecap="round" stroke-linejoin="round"/><path d="M2 2v12h2V9h7V2H9v5H4V2z" fill="#fff"/><path fill="#aee3f8" fill-rule="evenodd" d="M8 10h1v5H8z"/><path d="M10.5 10.5l2 4 2-4" fill="none" stroke="#aee3f8" stroke-linecap="round" stroke-linejoin="round"/></svg>