<svg xmlns="http://www.w3.org/2000/svg" viewBox="0 0 16 16"><path d="M1 2v12h2V9h4v5h2V2H7v5H3V2zM13.035 8c-.27 0-.514.03-.732.086-.219.054-.421.132-.606.234a4.271 4.271 0 00-.697.526l.654.804c.226-.194.445-.344.653-.449.208-.105.421-.158.642-.158.21 0 .38.06.504.176.127.116.19.292.19.529 0 .16-.03.313-.086.461-.058.148-.15.311-.28.486-.13.173-.406.483-.83.934l-1.431 1.502V14H15v-1.053h-2.484v-.056l.734-.715c.489-.464.83-.822 1.021-1.072.195-.251.337-.496.428-.733.094-.24.14-.497.14-.77 0-.312-.075-.589-.226-.831a1.52 1.52 0 00-.634-.567A2.103 2.103 0 0013.035 8z" stroke="#000" opacity=".6" stroke-width="2" stroke-linejoin="round"/><path d="M1 2v12h2V9h4v5h2V2H7v5H3V2z" fill="#fff"/><path d="M13.035 8c-.27 0-.514.03-.732.086-.219.054-.421.132-.606.234a4.271 4.271 0 00-.697.526l.654.804c.226-.194.445-.344.653-.449.208-.105.421-.158.642-.158.21 0 .38.06.504.176.127.116.19.292.19.529 0 .16-.03.313-.086.461-.058.148-.15.311-.28.486-.13.173-.406.483-.83.934l-1.431 1.502V14H15v-1.053h-2.484v-.056l.734-.715c.489-.464.83-.822 1.021-1.072.195-.251.337-.496.428-.733.094-.24.14-.497.14-.77 0-.312-.075-.589-.226-.831a1.52 1.52 0 00-.634-.567A2.103 2.103 0 0013.035 8z" fill="#aee3f8"/></svg>