<svg xmlns="http://www.w3.org/2000/svg" viewBox="0 0 16 16"><path d="M2 2v12h2V9h4V7H4V2H2zm7 0v3h2V2H9zm2.402 4A3.5 2.5 0 009 6.75V9h1a1.5 1 0 011.49-1 1.5 1 0 01.01 0A1.5 1 0 0113 9a1.5 1 0 01-1.49 1 1.5 1 0 01-.01 0 1.5 1 0 01-.5-.059v1.118a1.5 1 0 01.49-.059 3.5 2.5 0 00.01 0 1.5 1 0 011.5 1 1.5 1 0 01-1.5 1 1.5 1 0 01-.01 0A1.5 1 0 0110 12H9v2.25a3.5 2.5 0 002.402.75 3.5 2.5 0 00.098 0 3.5 2.5 0 003.5-2.5 3.5 2.5 0 00-1.402-2A3.5 2.5 0 0015 8.5 3.5 2.5 0 0011.5 6a3.5 2.5 0 00-.098 0z" opacity=".7" stroke="#000" stroke-width="2" stroke-linejoin="round"/><path d="M2 2v12h2V9h4V7H4V2H2zm7 0v3h2V2H9z" fill="#fff"/><path d="M11.402 6c-.906.018-1.768.287-2.402.75V9h1c0-.55.666-.996 1.49-1h.01c.828 0 1.5.448 1.5 1 0 .55-.666.996-1.49 1H11v1h.5c.828 0 1.5.448 1.5 1s-.672 1-1.5 1h-.01c-.824-.004-1.49-.45-1.49-1H9v2.25c.634.463 1.496.732 2.402.75h.098c1.933 0 3.5-1.12 3.5-2.5 0-.787-.52-1.528-1.402-2 .882-.472 1.401-1.213 1.402-2C15 7.12 13.433 6 11.5 6a4.9 4.9 0 00-.098 0z" fill="#aee3f8" fill-rule="evenodd"/></svg>