<svg xmlns="http://www.w3.org/2000/svg" xmlns:xlink="http://www.w3.org/1999/xlink" viewBox="0 0 16 16"><defs><linearGradient xlink:href="#a" id="b" x1="7" y1="2" x2="7" y2="13" gradientUnits="userSpaceOnUse" gradientTransform="translate(-1.992)"/><linearGradient id="a"><stop offset="0" stop-color="#151515"/><stop offset="1" stop-color="#4d4d4d"/></linearGradient></defs><path d="M9 9v6h3.47a.52.52 0 00.06 0h3.472v-1H13.24l1.602-4h1.16V9H9zm.002 1h1.16l1.602 4H9.002v-4zm2.238 0h2.524l-1.262 3.152L11.24 10z" fill="#e95420" fill-rule="evenodd"/><g color="#000" font-weight="400" font-family="sans-serif" fill="#fff"><path style="line-height:normal;font-variant-ligatures:normal;font-variant-position:normal;font-variant-caps:normal;font-variant-numeric:normal;font-variant-alternates:normal;font-variant-east-asian:normal;font-feature-settings:normal;font-variation-settings:normal;text-indent:0;text-align:start;text-decoration-line:none;text-decoration-style:solid;text-decoration-color:#000;text-transform:none;text-orientation:mixed;white-space:normal;shape-padding:0;shape-margin:0;inline-size:0;isolation:auto;mix-blend-mode:normal;solid-color:#000;solid-opacity:1" d="M1.008 2l-.004 11h1.004V8h6-.004 1l.004-6h-.995v5h-6V2z" overflow="visible"/><path style="line-height:normal;font-variant-ligatures:normal;font-variant-position:normal;font-variant-caps:normal;font-variant-numeric:normal;font-variant-alternates:normal;font-variant-east-asian:normal;font-feature-settings:normal;font-variation-settings:normal;text-indent:0;text-align:start;text-decoration-line:none;text-decoration-style:solid;text-decoration-color:#000;text-transform:none;text-orientation:mixed;white-space:normal;shape-padding:0;shape-margin:0;inline-size:0;isolation:auto;mix-blend-mode:normal;solid-color:#000;solid-opacity:1" d="M1.004 0a1 1 0 00-1 1v12a1 1 0 001 1h2a1 1 0 001-1V9H8V8h3.004L11 1a1 1 0 00-1-1H8.008a1 1 0 00-1 1l-.004 4H4l.004-4a1 1 0 00-1-1z" overflow="visible"/></g><path d="M1.004 1v12h2V8h7L10 1H8.008l-.004 5H3l.004-5z" fill="url(#b)"/></svg>