<svg xmlns="http://www.w3.org/2000/svg" viewBox="0 0 16 16">/&gt;<path d="M8 2a6 6 0 00-6 6 6 6 0 002.684 5H2v1h5v-1.16A4 5 0 014 8a4 5 0 01.006-.252 4 4.5 0 010-.004A4 4.5 0 014 7.5a4 4.5 0 013.725-4.488 4 4.5 0 01.056-.004 4 5 0 01.131-.006A4 5 0 018 3a4 5 0 01.158.004 4 4.5 0 01.004 0 4 5 0 01.154.012A4 4.5 0 0112 7.5a4 4.5 0 01-.006.234A4 5 0 0112 8a4 5 0 01-3 4.842V14h5v-1h-2.684A6 6 0 0014 8a6 6 0 00-6-6z" opacity=".6" fill-rule="evenodd" stroke="#000" stroke-width="2" stroke-linecap="round" stroke-linejoin="round"/><path d="M8 2a6 6 0 00-6 6 6 6 0 002.684 5H2v1h5v-1.16A4 5 0 014 8a4 5 0 01.006-.252 4 4.5 0 010-.004A4 4.5 0 014 7.5a4 4.5 0 013.725-4.488 4 4.5 0 01.056-.004 4 5 0 01.131-.006A4 5 0 018 3a4 5 0 01.158.004 4 4.5 0 01.004 0 4 5 0 01.154.012A4 4.5 0 0112 7.5a4 4.5 0 01-.006.234A4 5 0 0112 8a4 5 0 01-3 4.842V14h5v-1h-2.684A6 6 0 0014 8a6 6 0 00-6-6z" fill="#fff" fill-rule="evenodd"/></svg>