<svg xmlns="http://www.w3.org/2000/svg" viewBox="0 0 16 16"><path fill="#fff" d="M13 13V3H3v10z"/><path d="M2 10V5c0-2 0-3 2-3h8c2 0 2 1 2 3v5zm11 0h-2zm0-1V7h-2v2zm0-3V5c0-1 0-2-1-2h-1v3zm-3 4H7zm0-1V7H7v2zm0-3V3H7v3zm-4 4H3zm0-1V7H3v2zm0-3V3H4C3 3 3 4 3 5v1z" fill="#6d6d6d"/><path fill="#ddf6d5" fill-rule="evenodd" d="M13 10v3H3v-3z"/><path d="M14 9H2v2c0 2 0 3 2 3H12c2 0 2-1 2-3v-1zm-1 1v1c0 1 0 2-1 2h-1v-3zm-3 0v3H7v-3zm-4 0v3H4c-1 0-1-1-1-2v-1z" fill="#46a926"/><circle cy="3.5" cx="12.5" r="3.5" fill="#46a926"/><path overflow="visible" font-weight="400" style="line-height:normal;text-indent:0;text-align:start;text-decoration-line:none;text-decoration-style:solid;text-decoration-color:#000;text-transform:none;white-space:normal;isolation:auto;mix-blend-mode:normal;marker:none" d="M12 1v2h-2v1h2v2h1V4h2V3h-2V1z" color="#000" font-family="sans-serif" fill="#fff"/></svg>