<svg xmlns="http://www.w3.org/2000/svg" viewBox="0 0 16 16"><path fill="#fff" d="M13 3H3v10h10z"/><path d="M10 14H5c-2 0-3 0-3-2V4c0-2 1-2 3-2h5zm0-11v2zM9 3H7v2h2zM6 3H5C4 3 3 3 3 4v1h3zm4 3v3zM9 6H7v3h2zM6 6H3v3h3zm4 4v3zm-1 0H7v3h2zm-3 0H3v2c0 1 1 1 2 1h1z" fill="#6d6d6d"/><path fill="#ddf6d5" fill-rule="evenodd" d="M10 3h3v10h-3z"/><path d="M9 2v12h2c2 0 3 0 3-2V4c0-2-1-2-3-2H9zm1 1h1c1 0 2 0 2 1v1h-3V3zm0 3h3v3h-3V6zm0 4h3v2c0 1-1 1-2 1h-1v-3z" fill="#46a926"/><circle cy="12.5" cx="3.5" r="3.5" fill="#46a926"/><path overflow="visible" font-weight="400" style="line-height:normal;text-indent:0;text-align:start;text-decoration-line:none;text-decoration-style:solid;text-decoration-color:#000;text-transform:none;white-space:normal;isolation:auto;mix-blend-mode:normal;marker:none" d="M3 10v2H1v1h2v2h1v-2h2v-1H4v-2z" color="#000" font-family="sans-serif" fill="#fff"/></svg>