<svg xmlns="http://www.w3.org/2000/svg" viewBox="0 0 16 16"><path d="M5 2C3 2 2 2 2 4v5c0 2 1 2 3 2l4 3v-3h2c2 0 3 0 3-2V4c0-2-1-2-3-2z" opacity=".6" stroke="#000" stroke-width="2" stroke-linejoin="round"/><path d="M5 2C3 2 2 2 2 4v5c0 2 1 2 3 2l4 3v-3h2c2 0 3 0 3-2V4c0-2-1-2-3-2z" fill="#fa9381"/><path d="M4.333 5h7.334c.184 0 .333.223.333.5s-.149.5-.333.5H4.333C4.15 6 4 5.777 4 5.5s.149-.5.333-.5zM4.333 7h7.334c.184 0 .333.223.333.5s-.149.5-.333.5H4.333C4.15 8 4 7.777 4 7.5s.149-.5.333-.5z" fill="#fff"/></svg>