<svg xmlns="http://www.w3.org/2000/svg" viewBox="0 0 16 16"><path d="M4 5h8c.554 0 1-.446 1-1V2H3v2c0 .554.446 1 1 1z" opacity=".6" stroke="#000" stroke-width="2" stroke-linecap="round" stroke-linejoin="round"/><path d="M2 7v1h3V7zm4 0v1h4V7zm5 0v1h3V7z" fill="#e97cc8"/><path d="M4 5h8c.554 0 1-.446 1-1V2H3v2c0 .554.446 1 1 1z" fill="#fff"/><path d="M4 10h8c.554 0 1 .446 1 1v3H3v-3c0-.554.446-1 1-1z" opacity=".6" stroke="#000" stroke-width="2" stroke-linecap="round" stroke-linejoin="round"/><path d="M4 10h8c.554 0 1 .446 1 1v3H3v-3c0-.554.446-1 1-1z" fill="#fff"/></svg>