<svg xmlns="http://www.w3.org/2000/svg" viewBox="0 0 16 16"><path d="M5 1c-1.258.014-2.179-.03-2.932.385a1.88 1.88 0 00-.838.998c-.164.438-.224.96-.224 1.617V11.001c0 .657.06 1.178.224 1.617.165.439.462.788.838.996.753.415 1.674.372 2.932.387h6.012c1.258-.015 2.179.03 2.931-.385a1.88 1.88 0 00.838-.998c.165-.439.225-.96.225-1.617V4c0-.658-.06-1.179-.225-1.617a1.875 1.875 0 00-.838-.996C13.191.972 12.27 1.015 11.012 1H5.004z" style="line-height:125%;-inkscape-font-specification:Ubuntu;text-align:center" font-weight="400" font-size="15" font-family="Ubuntu" letter-spacing="0" word-spacing="0" text-anchor="middle" opacity=".6"/><path d="M4.989 2.027c-1.557.011-.11-.012-1.66.039-.46.043-1.016.206-1.155.71-.219.635-.108 1.334-.146 1.982-.008 2.297-.023 4.596.022 6.886.039.462.202 1.012.698 1.163.633.226 1.285.123 1.936.155 1.425.007-.15.01 1.276.011 1.705 0 4.41-.005 6.108-.018.512-.012 1.184.02 1.585-.406.42-.54.287-1.268.322-1.903.012-2.445.028-4.912-.021-7.357-.05-.402-.17-.863-.576-1.045-.668-.294-1.426-.168-2.126-.205-1.754-.012-4.509-.013-6.263-.012z" fill="#fff"/><path d="M5 6v1h8V6z"/><circle cy="12.5" cx="12.5" r="3.5" fill="#46a926"/><path overflow="visible" font-weight="400" style="line-height:normal;text-indent:0;text-align:start;text-decoration-line:none;text-decoration-style:solid;text-decoration-color:#000;text-transform:none;white-space:normal;isolation:auto;mix-blend-mode:normal;marker:none" d="M12 10v2h-2v1h2v2h1v-2h2v-1h-2v-2z" color="#000" font-family="sans-serif" fill="#fff"/><path d="M2.988 4v1H3v6h5v-1H4V5h3.988V4h-5z" fill="#fa9381"/><path d="M5 8v1h8V8z"/></svg>