<svg xmlns="http://www.w3.org/2000/svg" viewBox="0 0 16 16"><path fill="#fff" d="M14 14H2V2h12z"/><path d="M15 13V3c0-2-1-2-3-2H4C2 1 1 1 1 3v10c0 2 1 2 3 2h8c2 0 3 0 3-2zm-3 1h-1v-3h3v2c0 1-1 1-2 1zm-2 0H6v-3h4zm-5 0H4c-1 0-2 0-2-1v-2h3zm9-4h-3V7h3zm-4 0H6V7h4zm-5 0H2V7h3zm9-4h-3V2h1c1 0 2 0 2 1zm-4 0H6V2h4zM5 6H2V3c0-1 1-1 2-1h1z" fill="#6d6d6d"/><path fill="#ddf6d5" fill-rule="evenodd" d="M2 6V2h12v4z"/><path d="M15 7V3c0-2-1-2-3-2H4C2 1 1 1 1 3v4h13zm-1-1h-3V2h1c1 0 2 0 2 1zm-4 0H6V2h4zM5 6H2V3c0-1 1-1 2-1h1z" fill="#46a926"/><circle cy="12.5" cx="12.5" r="3.5" fill="#46a926"/><path overflow="visible" font-weight="400" style="line-height:normal;text-indent:0;text-align:start;text-decoration-line:none;text-decoration-style:solid;text-decoration-color:#000;text-transform:none;white-space:normal;isolation:auto;mix-blend-mode:normal;marker:none" d="M12 10v2h-2v1h2v2h1v-2h2v-1h-2v-2z" color="#000" font-family="sans-serif" fill="#fff"/></svg>