<svg xmlns="http://www.w3.org/2000/svg" viewBox="0 0 16 16"><path fill="#fff" d="M13 13V3H3v10z"/><path d="M2 10V5c0-2 0-3 2-3h8c2 0 2 1 2 3v5zm11 0h-2zm0-1V7h-2v2zm0-3V5c0-1 0-2-1-2h-1v3zm-3 4H7zm0-1V7H7v2zm0-3V3H7v3zm-4 4H3zm0-1V7H3v2zm0-3V3H4C3 3 3 4 3 5v1z" fill="#6d6d6d"/><path d="M12 14H4c-2 0-2-1-2-3V9h12v2c0 2 0 3-2 3zm0-1c1 0 1-1 1-2v1.719l-.19-.19-.81-.81L10.281 10H7.72l.281.281 1 1 1 1 .719.719zm1-1.719V10H11.719l.281.281zM9.281 13L9 12.719l-1-1L6.281 10H3.72l.281.281 1 1 1 1 .719.719H9zm-4 0L5 12.719l-1-1-1-1V11c0 1 0 2 1 2z" fill="#46a926"/><circle cy="3.5" cx="12.5" r="3.5" fill="#46a926"/><path overflow="visible" font-weight="400" style="line-height:normal;text-indent:0;text-align:start;text-decoration-line:none;text-decoration-style:solid;text-decoration-color:#000;text-transform:none;white-space:normal;isolation:auto;mix-blend-mode:normal;marker:none" d="M12 1v2h-2v1h2v2h1V4h2V3h-2V1z" color="#000" font-family="sans-serif" fill="#fff"/></svg>