<svg xmlns="http://www.w3.org/2000/svg" viewBox="0 0 16 16"><path fill="#fff" d="M3 3v10h10V3z"/><path d="M14 6v5c0 2 0 3-2 3H4c-2 0-2-1-2-3V6zM3 6h2zm0 1v2h2V7zm0 3v1c0 1 0 2 1 2h1v-3zm3-4h3zm0 1v2h3V7zm0 3v3h3v-3zm4-4h3zm0 1v2h3V7zm0 3v3h2c1 0 1-1 1-2v-1z" fill="#6d6d6d"/><path fill="#ddf6d5" fill-rule="evenodd" d="M3 6V3h10v3z"/><path d="M2 7h12V5c0-2 0-3-2-3H4C2 2 2 3 2 5v1zm1-1V5c0-1 0-2 1-2h1v3zm3 0V3h3v3zm4 0V3h2c1 0 1 1 1 2v1z" fill="#46a926"/><circle cy="12.5" cx="12.5" r="3.5" fill="#46a926"/><path overflow="visible" font-weight="400" style="line-height:normal;text-indent:0;text-align:start;text-decoration-line:none;text-decoration-style:solid;text-decoration-color:#000;text-transform:none;white-space:normal;isolation:auto;mix-blend-mode:normal;marker:none" d="M12 10v2h-2v1h2v2h1v-2h2v-1h-2v-2z" color="#000" font-family="sans-serif" fill="#fff"/></svg>