<svg xmlns="http://www.w3.org/2000/svg" viewBox="0 0 16 16">/&gt;<path d="M3 12V4c0-2 1-2 3-2h4l3 3v7c0 2-1 2-3 2H6c-2 0-3 0-3-2z" opacity=".7" stroke="#000" stroke-width="2" stroke-linejoin="round"/><path d="M3 12V4c0-2 1-2 3-2h4l3 3v7c0 2-1 2-3 2H6c-2 0-3 0-3-2z" fill="#fff"/><path d="M10 5V2l3 3z" fill="#6d6d6d"/><path d="M8 8v1H7v1h1v2H7v1h1v1h1v-1h2v1h1v-1h1v-1h-1v-2h1V9h-1V8h-1v1H9V8zm1 2h2v2H9z" fill="#fff" stroke="#fff" stroke-width="2" stroke-linejoin="round" opacity=".8"/><path d="M8 8v1H7v1h1v2H7v1h1v1h1v-1h2v1h1v-1h1v-1h-1v-2h1V9h-1V8h-1v1H9V8zm1 2h2v2H9z" fill="#1a7fd4"/></svg>