<svg xmlns="http://www.w3.org/2000/svg" viewBox="0 0 16 16"><path fill="#fff" d="M3 3h10v10H3z"/><path d="M6 14h5c2 0 3 0 3-2V4c0-2-1-2-3-2H6zM6 3v2zm1 0h2v2H7zm3 0h1c1 0 2 0 2 1v1h-3zM6 6v3zm1 0h2v3H7zm3 0h3v3h-3zm-4 4v3zm1 0h2v3H7zm3 0h3v2c0 1-1 1-2 1h-1z" fill="#6d6d6d"/><path fill="#ddf6d5" fill-rule="evenodd" d="M6 3H3v10h3z"/><path d="M7 2v12H5c-2 0-3 0-3-2V4c0-2 1-2 3-2h1zM6 3H5C4 3 3 3 3 4v1h3zm0 3H3v3h3zm0 4H3v2c0 1 1 1 2 1h1z" fill="#46a926"/><circle cy="12.5" cx="12.5" r="3.5" fill="#46a926"/><path overflow="visible" font-weight="400" style="line-height:normal;text-indent:0;text-align:start;text-decoration-line:none;text-decoration-style:solid;text-decoration-color:#000;text-transform:none;white-space:normal;isolation:auto;mix-blend-mode:normal;marker:none" d="M12 10v2h-2v1h2v2h1v-2h2v-1h-2v-2z" color="#000" font-family="sans-serif" fill="#fff"/></svg>