<svg xmlns="http://www.w3.org/2000/svg" viewBox="0 0 16 16"><path fill="#fff" d="M13 3H3v10h10z"/><path d="M10 14H5c-2 0-3 0-3-2V4c0-2 1-2 3-2h5zm0-11v2zM9 3H7v2h2zM6 3H5C4 3 3 3 3 4v1h3zm4 3v3zM9 6H7v3h2zM6 6H3v3h3zm4 4v3zm-1 0H7v3h2zm-3 0H3v2c0 1 1 1 2 1h1z" fill="#6d6d6d"/><path d="M14 4V12c0 2-1 2-3 2H9V2h2c2 0 3 0 3 2zm-1 0c0-1-1-1-2-1h1.719l-.19.19-.81.81L10 5.719V8.28L10.281 8l1-1 1-1L13 5.281zm-1.719-1H10V4.281L10.281 4zM13 6.719L12.719 7l-1 1L10 9.719V12.28l.281-.281 1-1 1-1L13 9.281V7zm0 4l-.281.281-1 1-1 1H11c1 0 2 0 2-1z" fill="#46a926"/><circle cy="12.5" cx="3.5" r="3.5" fill="#46a926"/><path overflow="visible" font-weight="400" style="line-height:normal;text-indent:0;text-align:start;text-decoration-line:none;text-decoration-style:solid;text-decoration-color:#000;text-transform:none;white-space:normal;isolation:auto;mix-blend-mode:normal;marker:none" d="M3 10v2H1v1h2v2h1v-2h2v-1H4v-2z" color="#000" font-family="sans-serif" fill="#fff"/></svg>