<svg xmlns="http://www.w3.org/2000/svg" viewBox="0 0 16 16"><path d="M1 11.005v-8c0-2 1-2 3-2h4l3 3v7c0 2-1 2-3 2H4c-2 0-3 0-3-2z" opacity=".6" stroke="#000" stroke-width="2" stroke-linejoin="round"/><path d="M1 11.005v-8c0-2 1-2 3-2h4l3 3v7c0 2-1 2-3 2H4c-2 0-3 0-3-2z" fill="#fff"/><path d="M8 4.005v-3l3 3z" fill="#6d6d6d"/><rect ry="2" y="6" x="3" height="9" width="12" rx="2" opacity=".6" fill="#000609" stroke="#000" stroke-width="2" stroke-linecap="round" stroke-linejoin="round"/><rect width="12" height="9" x="3" y="6" ry="2" fill="#aee3f8"/><path d="M9 13l4.857-3.238v-1.05c0-.714 0-.714-.714-.714H4.857c-.714 0-.714 0-.714.715v1.049z" fill="#fff"/><path d="M5.571 7.143c-1.714 0-1.714.857-1.714 1.714l.002.743L3 9.081v.81l5.143 3.68C9 14 9 14 9.857 13.571c1.7-1.026 4.098-2.858 5.143-3.663v-.827l-.859.52.002-.744c0-.857 0-1.714-1.714-1.714zM12.43 8c.857 0 .857 0 .857.857v1.26l-4.288 2.586-4.284-2.587V8.857c0-.857 0-.857.857-.857z" style="line-height:125%;-inkscape-font-specification:Ubuntu;text-align:center" font-weight="400" font-size="15" font-family="Ubuntu" letter-spacing="0" word-spacing="0" text-anchor="middle" fill="#465b63"/><path style="line-height:normal;font-variant-ligatures:normal;font-variant-position:normal;font-variant-caps:normal;font-variant-numeric:normal;font-variant-alternates:normal;font-feature-settings:normal;text-indent:0;text-align:start;text-decoration-line:none;text-decoration-style:solid;text-decoration-color:#000;text-transform:none;text-orientation:mixed;white-space:normal;shape-padding:0;isolation:auto;mix-blend-mode:normal;marker:none" d="M6 9v1h6V9z" color="#000" font-weight="400" font-family="sans-serif" overflow="visible" fill="#a7a7f1"/></svg>