<svg xmlns="http://www.w3.org/2000/svg" viewBox="0 0 16 16">/&gt;<path d="M4.994 1c-1.258.014-2.179-.03-2.932.384a1.88 1.88 0 00-.837.999C1.06 2.82 1 3.343 1 4v8c0 .658.06 1.179.225 1.617.164.44.461.789.837.997.753.415 1.674.371 2.932.386h6.012c1.258-.014 2.179.03 2.932-.384a1.88 1.88 0 00.837-.999c.165-.438.225-.96.225-1.617V4c0-.658-.06-1.179-.225-1.617a1.875 1.875 0 00-.837-.997c-.753-.415-1.674-.371-2.932-.386H4.998z" style="line-height:125%;-inkscape-font-specification:Ubuntu;text-align:center" font-weight="400" font-size="15" font-family="Ubuntu" letter-spacing="0" word-spacing="0" text-anchor="middle" opacity=".6"/><path d="M7.983 2.027c-1.556.01-3.11-.012-4.66.039-.46.042-1.016.206-1.155.71-.219.635-.108 1.333-.146 1.982-.008 2.297-.023 5.596.022 7.885.039.462.202 1.013.699 1.164.632.225 1.284.123 1.936.154 1.424.007 2.85.011 4.276.012 1.704 0 1.408-.005 3.107-.019.512-.012 1.184.02 1.585-.405.421-.54.287-1.268.323-1.904.011-2.444.027-5.911-.022-8.357-.05-.402-.17-.863-.575-1.044-.669-.294-1.427-.168-2.126-.206-1.755-.012-1.51-.012-3.264-.011z" fill="#a6d74f"/><circle cx="8" cy="11" r="1" fill="#4d4d4d"/><path d="M11 5c-1.108 0-2 .892-2 2v2c0 1.108.892 2 2 2s2-.892 2-2V7c0-1.108-.892-2-2-2zm0 1c.554 0 1 .446 1 1v2c0 .554-.446 1-1 1s-1-.446-1-1V7c0-.554.446-1 1-1zM5 5c-1.108 0-2 .892-2 2v2c0 1.108.892 2 2 2s2-.892 2-2V7c0-1.108-.892-2-2-2zm0 1c.554 0 1 .446 1 1v2c0 .554-.446 1-1 1s-1-.446-1-1V7c0-.554.446-1 1-1z" fill="#4d4d4d"/></svg>