<svg xmlns="http://www.w3.org/2000/svg" viewBox="0 0 16 16"><path d="M11 3a3 3 0 00-3 3v4a3 3 0 006 0V6a3 3 0 00-3-3zm0 2c.552 0 1 .672 1 1.5v3c0 .828-.448 1.5-1 1.5s-1-.672-1-1.5v-3c0-.828.448-1.5 1-1.5z" stroke="#000" opacity=".7" stroke-width="2" stroke-linejoin="round"/><path d="M11 3a3 3 0 00-3 3v4a3 3 0 006 0V6a3 3 0 00-3-3zm0 2c.552 0 1 .672 1 1.5v3c0 .828-.448 1.5-1 1.5s-1-.672-1-1.5v-3c0-.828.448-1.5 1-1.5z" fill="#fff"/><path d="M0 10h6v2H0z" fill="#c7162b"/><path d="M2 3v2H0v2h2v2h2V7h2V5H4V3z" fill="#0e8420"/></svg>