<svg xmlns="http://www.w3.org/2000/svg" viewBox="0 0 16 16"><rect width="1" height="3" x="3" y="2" ry="0" rx="0" fill="#e95420" fill-rule="evenodd"/><rect width="1" height="3" x="5" y="9" ry="0" rx="0" fill="#e95420" fill-rule="evenodd"/><rect width="1" height="3" x="1" y="2" ry="0" rx="0" fill="#e95420" fill-rule="evenodd"/><path fill="#232629" fill-rule="evenodd" d="M8 7h7V6H8z"/><path fill="#fff" fill-rule="evenodd" d="M8 8h7V7H8zM8 6h5V5H8z"/><path fill="#232629" fill-rule="evenodd" d="M8 5h5V4H8z"/><path fill="#fff" fill-rule="evenodd" d="M8 4h8V3H8z"/><path fill="#232629" fill-rule="evenodd" d="M8 3h8V2H8z"/><path fill="#e95420" fill-rule="evenodd" d="M4 9h3v1H4zM4 12h3v1H4zM0 2h7v1H0zM0 5h7v1H0z"/><rect width="1" height="3" x="5" y="2" ry="0" rx="0" fill="#e95420" fill-rule="evenodd"/><path fill="#232629" fill-rule="evenodd" d="M8 14h7v-1H8z"/><path fill="#fff" fill-rule="evenodd" d="M8 15h7v-1H8zM8 13h5v-1H8z"/><path fill="#232629" fill-rule="evenodd" d="M8 12h5v-1H8z"/><path fill="#fff" fill-rule="evenodd" d="M8 11h8v-1H8z"/><path fill="#232629" fill-rule="evenodd" d="M8 10h8V9H8z"/></svg>