<svg xmlns="http://www.w3.org/2000/svg" xmlns:xlink="http://www.w3.org/1999/xlink" viewBox="0 0 16 16"><defs><linearGradient id="a"><stop offset="0" stop-color="#151515"/><stop offset="1" stop-color="#4d4d4d"/></linearGradient><linearGradient xlink:href="#a" id="b" x1="8" y1="1" x2="8" y2="15" gradientUnits="userSpaceOnUse"/></defs>/&gt;<path d="M2 1v1h12V1H2zm6 2C5.784 3 4 4.784 4 7v4c0 2.216 1.784 4 4 4s4-1.784 4-4V7c0-2.216-1.784-4-4-4zm-.5 2h1c.831 0 1.5.892 1.5 2v4c0 1.108-.669 2-1.5 2h-1c-.831 0-1.5-.892-1.5-2V7c0-1.108.669-2 1.5-2z" stroke="#fff" stroke-width="2" stroke-linejoin="round"/><path d="M2 1v1h12V1H2zm6 2C5.784 3 4 4.784 4 7v4c0 2.216 1.784 4 4 4s4-1.784 4-4V7c0-2.216-1.784-4-4-4zm-.5 2h1c.831 0 1.5.892 1.5 2v4c0 1.108-.669 2-1.5 2h-1c-.831 0-1.5-.892-1.5-2V7c0-1.108.669-2 1.5-2z" fill="url(#b)"/></svg>