<svg xmlns="http://www.w3.org/2000/svg" viewBox="0 0 16 16"><path d="M6.383 2L2 13h2.357l1.19-3h4.906l1.19 3H14L9.617 2H8zM8 3.496L9.686 8H6.314z" opacity=".7" stroke="#000" stroke-width="2" stroke-linejoin="round"/><path d="M6.383 2L2 13h2.357l1.19-3h4.906l1.19 3H14L9.617 2H8zM8 3.496L9.686 8H6.314z" fill="#fff"/><g stroke-width="27.2"><path d="M12.153 13.352L9 16l.716-4.055.264-.457 2.437 1.408z" fill="#fec589"/><path style="marker:none" d="M9.228 14.71L9 16l1.004-.842c-.004.007-.776-.448-.776-.448z" color="#000" overflow="visible" fill="#5d5d5d"/><path d="M9.716 11.945s2.438 1.495 2.437 1.407l4.566-7.907-2.438-1.407z" fill="#2f5fdd"/></g></svg>