<svg xmlns="http://www.w3.org/2000/svg" viewBox="0 0 16 16">/&gt;<path d="M2 1v1h12V1H2zm6 2C5.784 3 4 4.784 4 7v4c0 2.216 1.784 4 4 4s4-1.784 4-4V7c0-2.216-1.784-4-4-4zm-.5 2h1c.831 0 1.5.892 1.5 2v4c0 1.108-.669 2-1.5 2h-1c-.831 0-1.5-.892-1.5-2V7c0-1.108.669-2 1.5-2z" opacity=".6" stroke="#000" stroke-width="2" stroke-linejoin="round"/><path fill="#fff" d="M2 1h12v1H2zM8 3C5.784 3 4 4.784 4 7v4c0 2.216 1.784 4 4 4s4-1.784 4-4V7c0-2.216-1.784-4-4-4zm-.5 2h1c.831 0 1.5.892 1.5 2v4c0 1.108-.669 2-1.5 2h-1c-.831 0-1.5-.892-1.5-2V7c0-1.108.669-2 1.5-2z"/></svg>