<svg xmlns="http://www.w3.org/2000/svg" viewBox="0 0 16 16"><path d="M4.994.962c-1.258.014-2.179-.03-2.932.385a1.88 1.88 0 00-.837.998C1.06 2.783 1 3.305 1 3.962V9c0 .658.06 1.18.225 1.618.164.438.461.788.837.996.753.415 1.674.372 2.932.387h6.012c1.258-.015 2.179.03 2.932-.385a1.88 1.88 0 00.837-.998C14.94 10.179 15 9.658 15 9V3.962c0-.658-.06-1.179-.225-1.617a1.875 1.875 0 00-.837-.996c-.753-.416-1.674-.372-2.932-.387H4.998z" style="line-height:125%;-inkscape-font-specification:Ubuntu;text-align:center" font-weight="400" font-size="15" font-family="Ubuntu" letter-spacing="0" word-spacing="0" text-anchor="middle" fill="#6d6d6d"/><path d="M2.04 8c.003.475.006.879.02 1.645.04.461.204 1.01.7 1.162.407.144.822.155 1.24.152V8z" fill="#31c6b7"/><path d="M4 8v2.959c.232-.002.463-.01.695.002 1.101.005 2.203.008 3.305.01V8z" fill="#76c22b"/><path d="M8 8v2.97l.97.003c1.662 0 1.47-.005 3.03-.018V8z" fill="#ffda64"/><path d="M12 8v2.955h.078c.512-.012 1.185.019 1.586-.406.421-.54.287-1.269.322-1.904.002-.293 0-.402.002-.645z" fill="#fb7c38"/><path d="M2.041 4c.003.242.012.484-.002.719-.005 1.529-.008 2.335 0 3.281H4V4z" fill="#5bdbc1"/><path fill="#a6d74f" d="M4 4h4v4H4z"/><path fill="#fee581" d="M8 4h4v4H8z"/><path d="M12 4v4h1.988c.01-1.51.01-2.53-.013-4z" fill="#fda463"/><path d="M4 2.018c-.22.004-.44.002-.66.01-.461.042-1.015.207-1.154.71-.14.406-.15.834-.145 1.262H4z" fill="#81e9c0"/><path d="M8 1.988c-1.336.01-2.669.002-4 .03V4h4z" fill="#cbe667"/><path d="M8 1.988V4h4V2.006c-.248.002-.497.007-.736-.006-1.755-.012-1.51-.013-3.264-.012z" fill="#fff4c9"/><path d="M12 2.006V4h1.975c-.005-.275-.003-.41-.01-.75-.05-.402-.171-.863-.576-1.045-.44-.193-.914-.203-1.389-.2z" fill="#fec589"/><path style="marker:none" d="M6 12v.5C6 14 5.5 14 4.5 14H4v1h8v-1h-.5c-1 0-1.5 0-1.5-1.5V12z" color="#000" overflow="visible" fill="#6d6d6d"/><path d="M11 4a1 1 0 100 2 1 1 0 000-2zM6.5 5L4 10h7L9 6 8 7.5z" style="marker:none" color="#000" overflow="visible" fill="#232629"/></svg>