<svg xmlns="http://www.w3.org/2000/svg" viewBox="0 0 16 16"><path style="line-height:125%;-inkscape-font-specification:Ubuntu;text-align:center" d="M3.994 0C2.736.015 1.815-.03 1.062.385a1.88 1.88 0 00-.837.998C.06 1.82 0 2.343 0 3V9.001c0 .657.06 1.178.225 1.617.164.438.461.788.838.996.752.415 1.673.372 2.931.387h6.012c1.258-.015 2.179.03 2.932-.385a1.88 1.88 0 00.837-.998C13.94 10.179 14 9.658 14 9V3c0-.658-.06-1.179-.225-1.617a1.875 1.875 0 00-.837-.996C12.185-.028 11.264.015 10.006 0H3.998z" font-weight="400" font-size="15" font-family="Ubuntu" letter-spacing="0" word-spacing="0" text-anchor="middle" opacity=".6"/><path d="M6.983 1.027c-1.556.011-3.11-.012-4.66.039-.46.043-1.016.206-1.155.71-.219.635-.108 1.334-.146 1.982-.008 2.297-.023 3.596.022 5.886.039.462.202 1.012.699 1.163.632.225 1.284.123 1.936.155 1.424.006 2.85.01 4.276.01 1.704.001 1.408-.004 3.107-.018.512-.012 1.184.02 1.585-.405.421-.54.287-1.268.323-1.904.012-2.444.027-3.91-.022-6.356-.05-.402-.17-.863-.575-1.045-.669-.294-1.427-.168-2.126-.205-1.755-.012-1.51-.013-3.264-.012z" fill="#d85eca"/><path d="M5.994 3c-1.258.014-2.179-.031-2.932.384a1.88 1.88 0 00-.837.998C2.06 4.821 2 5.342 2 6V12c0 .658.06 1.179.225 1.617.164.439.461.789.837.996.753.415 1.674.372 2.932.387h6.012c1.258-.015 2.179.03 2.931-.385a1.88 1.88 0 00.838-.998c.165-.438.225-.96.225-1.617V5.999c0-.657-.06-1.178-.225-1.617a1.875 1.875 0 00-.838-.996c-.752-.415-1.673-.372-2.931-.387H5.998z" style="line-height:125%;-inkscape-font-specification:Ubuntu;text-align:center" font-weight="400" font-size="15" font-family="Ubuntu" letter-spacing="0" word-spacing="0" text-anchor="middle" opacity=".6"/><path d="M8.983 4.027c-1.556.01-3.11-.012-4.66.038-.46.043-1.016.207-1.155.71-.219.636-.108 1.334-.146 1.982-.008 2.297-.023 3.597.022 5.886.039.462.202 1.013.699 1.164.632.225 1.284.122 1.935.154 1.425.007 2.851.011 4.277.011 1.704 0 1.408-.005 3.107-.018.512-.012 1.184.02 1.585-.405.42-.54.287-1.268.323-1.904.011-2.444.027-3.911-.022-6.357-.05-.402-.17-.863-.575-1.044-.669-.295-1.427-.168-2.126-.206-1.755-.012-1.51-.012-3.264-.011z" fill="#d85eca"/><path style="marker:none" d="M6.994 8l-2 4h8l-2.51-3-1.5 2z" color="#000" overflow="visible" fill="#fff"/><path d="M11.881 7a.943.943 0 01-.894.99.943.943 0 01-.99-.894.943.943 0 01.894-.99.943.943 0 01.99.893" fill="#fff"/></svg>