<svg xmlns="http://www.w3.org/2000/svg" viewBox="0 0 16 16"><path d="M13 8a2 2 0 00-2 2 2 2 0 002 2v2h1V8zM9.09 2L5.943 13.74l.967.26 3.147-11.74zM5.285 4l-2.96 3.145L2 7.492l.324.348 2.944 3.162.714-.695-2.62-2.815L6 4.695z" stroke="#000" opacity=".7" stroke-width="2" stroke-linejoin="round"/><path d="M9.09 2L5.943 13.74l.967.26 3.147-11.74zM5.285 4l-2.96 3.145L2 7.492l.324.348 2.944 3.162.714-.695-2.62-2.815L6 4.695z" fill="#fff"/><path d="M13 8a2 2 0 00-2 2 2 2 0 002 2v2h1V8z" fill="#aee3f8"/></svg>