<svg xmlns="http://www.w3.org/2000/svg" viewBox="0 0 16 16"><path d="M7 8v3h5V8z" fill="#762572"/><path d="M5.01 1c-1.257.014-2.178-.03-2.93.385a1.88 1.88 0 00-.839.998c-.164.438-.224.96-.224 1.617V11c0 .657.06 1.178.224 1.617.165.438.462.788.838.996.753.415 1.674.372 2.932.387h6.012c1.258-.015 2.178.03 2.931-.385a1.88 1.88 0 00.838-.998c.165-.439.225-.96.225-1.617V4c0-.658-.06-1.179-.225-1.617a1.875 1.875 0 00-.838-.996C13.201.97 12.281 1.015 11.022 1H5.015z" style="line-height:125%;-inkscape-font-specification:Ubuntu;text-align:center" font-weight="400" font-size="15" font-family="Ubuntu" letter-spacing="0" word-spacing="0" text-anchor="middle" opacity=".7"/><path d="M5 2.027c-1.557.01-.11-.012-1.66.039-.461.042-1.016.206-1.155.71-.22.635-.109 1.334-.146 1.982-.008 2.297-.023 4.596.022 6.886.039.462.202 1.012.698 1.163.633.225 1.284.123 1.936.155 1.424.006-.15.01 1.276.01 1.705.001 4.409-.004 6.108-.018.512-.012 1.183.02 1.585-.405.42-.54.287-1.268.322-1.904.012-2.444.028-4.91-.022-7.357-.049-.402-.17-.862-.575-1.044-.668-.294-1.426-.168-2.126-.206C9.51 2.027 6.754 2.026 5 2.027z" fill="#fff"/><path d="M3 4v1h10V4zm0 3v1h1V7zm8 0v1h2V7zm-8 3v1h10v-1z"/><path d="M5 6v3h5V6z" fill="#d85eca"/><path d="M13.025 9.3c-.762.009-1.255.404-1.464.839-.21.434-.2.882-.2 1.078V12h.698v-.783c0-.197.01-.528.13-.776.12-.247.287-.44.844-.445.555-.006.716.185.836.436.12.25.129.589.129.785V12h.697v-.783c0-.195.012-.648-.197-1.086-.21-.439-.708-.838-1.473-.83zM11 12h4v3h-4z" style="line-height:normal;font-variant-ligatures:normal;font-variant-position:normal;font-variant-caps:normal;font-variant-numeric:normal;font-variant-alternates:normal;font-feature-settings:normal;text-indent:0;text-align:start;text-decoration-line:none;text-decoration-style:solid;text-decoration-color:#000;text-transform:none;text-orientation:mixed;white-space:normal;shape-padding:0;isolation:auto;mix-blend-mode:normal;solid-color:#000;solid-opacity:1" color="#000" font-weight="400" font-family="sans-serif" overflow="visible" opacity=".7" stroke="#030303" stroke-width="2" stroke-linejoin="round"/><path style="line-height:normal;font-variant-ligatures:normal;font-variant-position:normal;font-variant-caps:normal;font-variant-numeric:normal;font-variant-alternates:normal;font-feature-settings:normal;text-indent:0;text-align:start;text-decoration-line:none;text-decoration-style:solid;text-decoration-color:#000;text-transform:none;text-orientation:mixed;white-space:normal;shape-padding:0;isolation:auto;mix-blend-mode:normal;solid-color:#000;solid-opacity:1" d="M13.025 9.3c-.762.009-1.255.404-1.464.839-.21.434-.2.882-.2 1.078V12h.698v-.783c0-.197.01-.528.13-.776.12-.247.287-.44.844-.445.555-.006.716.185.836.436.12.25.129.589.129.785V12h.697v-.783c0-.195.012-.648-.197-1.086-.21-.439-.708-.838-1.473-.83zM11 12h4v3h-4z" color="#000" font-weight="400" font-family="sans-serif" overflow="visible" fill="#fee581"/></svg>