<svg xmlns="http://www.w3.org/2000/svg" viewBox="0 0 16 16">/&gt;<path d="M4 2v11.594L8 12l4 1.594V2H5z" stroke="#000" stroke-width="2" stroke-linejoin="round" opacity=".6"/><path d="M4 2v11.594L8 12l4 1.594V2H5z" fill="#fff"/><path d="M13.025 1.3c-.762.009-1.255.404-1.464.839-.21.434-.2.882-.2 1.078V4h.698v-.783c0-.197.01-.528.13-.776.12-.247.287-.44.844-.445.555-.006.716.185.836.436.12.25.129.589.129.785V4h.697v-.783c0-.195.012-.648-.197-1.086-.21-.439-.708-.838-1.473-.83zM11 4h4v3h-4z" style="line-height:normal;font-variant-ligatures:normal;font-variant-position:normal;font-variant-caps:normal;font-variant-numeric:normal;font-variant-alternates:normal;font-feature-settings:normal;text-indent:0;text-align:start;text-decoration-line:none;text-decoration-style:solid;text-decoration-color:#000;text-transform:none;text-orientation:mixed;white-space:normal;shape-padding:0;isolation:auto;mix-blend-mode:normal;solid-color:#000;solid-opacity:1" color="#000" font-weight="400" font-family="sans-serif" overflow="visible" opacity=".6" stroke="#030303" stroke-width="2" stroke-linejoin="round"/><path style="line-height:normal;font-variant-ligatures:normal;font-variant-position:normal;font-variant-caps:normal;font-variant-numeric:normal;font-variant-alternates:normal;font-feature-settings:normal;text-indent:0;text-align:start;text-decoration-line:none;text-decoration-style:solid;text-decoration-color:#000;text-transform:none;text-orientation:mixed;white-space:normal;shape-padding:0;isolation:auto;mix-blend-mode:normal;solid-color:#000;solid-opacity:1" d="M13.025 1.3c-.762.009-1.255.404-1.464.839-.21.434-.2.882-.2 1.078V4h.698v-.783c0-.197.01-.528.13-.776.12-.247.287-.44.844-.445.555-.006.716.185.836.436.12.25.129.589.129.785V4h.697v-.783c0-.195.012-.648-.197-1.086-.21-.439-.708-.838-1.473-.83zM11 4h4v3h-4z" color="#000" font-weight="400" font-family="sans-serif" overflow="visible" fill="#fee581"/></svg>