<svg xmlns="http://www.w3.org/2000/svg" viewBox="0 0 16 16"><path d="M11.5 13l2-4 2 4H13zM13.5 7l2-4h-4z" fill="#e95420"/><path fill="#fff" fill-rule="evenodd" d="M10 3H1V2h9z"/><path fill="#232629" fill-rule="evenodd" d="M10 2H1V1h9z"/><path fill="#fff" fill-rule="evenodd" d="M10 5H1V4h9z"/><path fill="#232629" fill-rule="evenodd" d="M10 4H1V3h9z"/><path fill="#fff" fill-rule="evenodd" d="M10 7H1V6h9z"/><path fill="#232629" fill-rule="evenodd" d="M10 6H1V5h9z"/><path fill="#fff" fill-rule="evenodd" d="M10 11H1v-1h9z"/><path fill="#232629" fill-rule="evenodd" d="M10 10H1V9h9z"/><path fill="#fff" fill-rule="evenodd" d="M10 13H1v-1h9z"/><path fill="#232629" fill-rule="evenodd" d="M10 12H1v-1h9z"/><path fill="#fff" fill-rule="evenodd" d="M10 15H1v-1h9z"/><path fill="#232629" fill-rule="evenodd" d="M10 14H1v-1h9z"/></svg>