<svg xmlns="http://www.w3.org/2000/svg" viewBox="0 0 16 16"><path d="M8.5 2a4.403 5.11 24.006 00-5 5 4.403 5.11 24.006 004 5 4.403 5.11 24.006 00.63-.055L9.5 14h2l-1.754-2.629A4.403 5.11 24.006 0012.5 7a4.403 5.11 24.006 00-4-5zm-.2 2a2.463 3.046 17.043 012.2 3 2.463 3.046 17.043 01-2.8 3 2.463 3.046 17.043 01-2.2-3 2.463 3.046 17.043 012.8-3z" opacity=".6" fill-rule="evenodd" stroke="#000" stroke-width="2" stroke-linejoin="round"/><path d="M8.5 2a4.403 5.11 24.006 00-5 5 4.403 5.11 24.006 004 5 4.403 5.11 24.006 00.63-.055L9.5 14h2l-1.754-2.629A4.403 5.11 24.006 0012.5 7a4.403 5.11 24.006 00-4-5zm-.2 2a2.463 3.046 17.043 012.2 3 2.463 3.046 17.043 01-2.8 3 2.463 3.046 17.043 01-2.2-3 2.463 3.046 17.043 012.8-3z" fill="#fff" fill-rule="evenodd"/><path d="M10 9v2h1v1a1 1 0 01-1 1v1a2 2 0 002-2V9zm3 0v2h1v1a1 1 0 01-1 1v1a2 2 0 002-2V9z" stroke="#000" opacity=".6" stroke-width="2" stroke-linejoin="round"/><path d="M10 9v2h1v1a1 1 0 01-1 1v1a2 2 0 002-2V9zm3 0v2h1v1a1 1 0 01-1 1v1a2 2 0 002-2V9z" fill="#aee3f8"/></svg>