<svg xmlns="http://www.w3.org/2000/svg" viewBox="0 0 16 16"><path d="M8 2a4.403 5.11 24.006 00-5 5 4.403 5.11 24.006 004 5 4.403 5.11 24.006 00.63-.055L9 14h2l-1.754-2.629A4.403 5.11 24.006 0012 7a4.403 5.11 24.006 00-4-5zm-.2 2A2.463 3.046 17.043 0110 7a2.463 3.046 17.043 01-2.8 3A2.463 3.046 17.043 015 7a2.463 3.046 17.043 012.8-3z" opacity=".6" fill-rule="evenodd" stroke="#000" stroke-width="2" stroke-linejoin="round"/><path d="M8 2a4.403 5.11 24.006 00-5 5 4.403 5.11 24.006 004 5 4.403 5.11 24.006 00.63-.055L9 14h2l-1.754-2.629A4.403 5.11 24.006 0012 7a4.403 5.11 24.006 00-4-5zm-.2 2A2.463 3.046 17.043 0110 7a2.463 3.046 17.043 01-2.8 3A2.463 3.046 17.043 015 7a2.463 3.046 17.043 012.8-3z" fill="#fff" fill-rule="evenodd"/></svg>