<svg viewBox="0 0 16 16" xmlns:xlink="http://www.w3.org/1999/xlink" xmlns="http://www.w3.org/2000/svg"><defs><linearGradient xlink:href="#a" id="b" x1="9" y1="2" x2="9" y2="14" gradientUnits="userSpaceOnUse" gradientTransform="translate(-.5)"/><linearGradient id="a"><stop style="stop-color:#151515;stop-opacity:1" offset="0"/><stop style="stop-color:#4d4d4d;stop-opacity:1" offset="1"/></linearGradient></defs><path style="color:#000;fill:#fff;fill-rule:evenodd;stroke-linejoin:round;-inkscape-stroke:none" d="M7.5 1C4.414 1 1.83 3.66 1.506 6.9 1.182 10.141 3.414 13 6.5 13a1 1 0 0 0 .01 0c.038 0 .077-.008.115-.01l1.043 1.565A1 1 0 0 0 8.5 15H10a1 1 0 0 1-1-1v-1a1 1 0 0 1 1-1 1 1 0 0 1-1-1V9a1 1 0 0 1 1-1h.133c.03-.094.061-.187.09-.283a4.92 4.92 0 0 1-.08.283H12a1 1 0 0 1 .275.191c.106-.351.183-.715.221-1.091C12.82 3.859 10.586 1 7.5 1zM10 15h.5a1 1 0 0 0 .625-.223A2.956 2.956 0 0 1 10 15zM7.5 3c1.885 0 3.234 1.618 3.006 3.9-.002.02-.017.037-.02.057.068-.995-.164-1.94-.699-2.67a3.109 3.109 0 0 0-2.39-1.264c.035 0 .068-.023.103-.023zM4.422 4.834c-.155.233-.3.472-.426.723-.157.327-.279.675-.36 1.047.065-.378.196-.722.36-1.047.122-.254.263-.495.426-.723zM7.3 5c.366 0 .638.15.873.47.235.321.393.824.332 1.43C8.385 8.114 7.43 9 6.699 9c-.366 0-.638-.15-.873-.47-.235-.321-.39-.824-.33-1.43C5.617 5.886 6.57 5 7.301 5zM3.516 7.033c-.07 1 .16 1.948.697 2.68a3.109 3.109 0 0 0 2.433 1.273c-.048.003-.098.013-.146.014h-.002c-1.884-.001-3.23-1.619-3.002-3.9.002-.024.017-.043.02-.067zm4.593 3.654a1 1 0 0 0-.304.635A1 1 0 0 0 7 10.961c.39-.031.767-.116 1.11-.274zm-1.138.272a1 1 0 0 1 .027.002 4.385 4.385 0 0 1-.168.01c.047-.006.093-.004.14-.012z"/><path style="opacity:1;fill:url(#b);fill-opacity:1;fill-rule:evenodd;stroke:none;stroke-width:2;stroke-linecap:butt;stroke-linejoin:round;stroke-miterlimit:4;stroke-dasharray:none;stroke-opacity:1" d="M7.5 2a4.403 5.11 24.006 0 0-5 5 4.403 5.11 24.006 0 0 4 5 4.403 5.11 24.006 0 0 .63-.055L8.5 14H9v-1a1 1 0 0 1 .338-.742l-.592-.887a4.403 5.11 24.006 0 0 .28-.176A1 1 0 0 1 9 11V9a1 1 0 0 1 1-1h1.309a4.403 5.11 24.006 0 0 .191-1 4.403 5.11 24.006 0 0-4-5zm-.2 2a2.463 3.046 17.043 0 1 2.2 3 2.463 3.046 17.043 0 1-2.8 3 2.463 3.046 17.043 0 1-2.2-3 2.463 3.046 17.043 0 1 2.8-3z"/><path d="M10 9v2h1v1a1 1 0 0 1-1 1v1a2 2 0 0 0 2-2V9zm3 0v2h1v1a1 1 0 0 1-1 1v1a2 2 0 0 0 2-2V9z" fill="#77216F" style="fill:#e95420;fill-opacity:1"/></svg>