<svg xmlns="http://www.w3.org/2000/svg" viewBox="0 0 16 16"><path d="M4.995 2c-1.259.015-2.18-.03-2.932.385a1.88 1.88 0 00-.838.998C1.06 3.82 1 5.658 1 5v6c0 .658.06 1.179.225 1.617.165.439.462.789.838.996.753.415 1.674.372 2.932.387H11.005c1.259-.015 2.18.03 2.932-.385a1.88 1.88 0 00.838-.998c.164-.438.225-.96.225-1.617V5c0-.658-.06-1.179-.225-1.617a1.875 1.875 0 00-.838-.996c-.753-.415-1.674-.372-2.932-.387H4.998z" style="line-height:125%;-inkscape-font-specification:Ubuntu;text-align:center" font-weight="400" font-size="15" font-family="Ubuntu" letter-spacing="0" word-spacing="0" text-anchor="middle" opacity=".6"/><path d="M5.983 3.027c-1.557.011-1.11-.012-2.66.039-.46.043-1.015.206-1.154.71-.22.635-.109 1.334-.146 1.982-.008 2.297-.023 3.596.021 5.885.04.462.203 1.013.699 1.164.632.225 1.284.122 1.936.154 1.424.007.85.011 2.275.011 1.705 0 3.409-.005 5.108-.018.512-.012 1.183.02 1.584-.405.421-.54.287-1.268.323-1.904.012-2.444.028-3.91-.022-6.356-.05-.402-.17-.863-.575-1.045-.668-.294-1.426-.168-2.126-.205a715.829 715.829 0 00-5.263-.012z" fill="#aee3f8"/><g color="#000" font-weight="400" font-family="sans-serif" fill-rule="evenodd"><path d="M8.992 4v3h1.992a.451.451 0 00.008.025l.008 5.95-.008.025H9v3h2c.599 0 1.086-.2 1.5-.46.414.26.901.46 1.5.46h2v-3h-1.992L14 12.975l-.008-5.95L14 7h1.992V4h-2c-.599 0-1.086.2-1.5.46-.414-.26-.902-.489-1.5-.46z" style="line-height:normal;font-variant-ligatures:normal;font-variant-position:normal;font-variant-caps:normal;font-variant-numeric:normal;font-variant-alternates:normal;font-feature-settings:normal;text-indent:0;text-align:start;text-decoration-line:none;text-decoration-style:solid;text-decoration-color:#000;text-transform:none;text-orientation:mixed;white-space:normal;shape-padding:0;isolation:auto;mix-blend-mode:normal;solid-color:#000;solid-opacity:1" overflow="visible" fill="#fff"/><path style="line-height:normal;font-variant-ligatures:normal;font-variant-position:normal;font-variant-caps:normal;font-variant-numeric:normal;font-variant-alternates:normal;font-feature-settings:normal;text-indent:0;text-align:start;text-decoration-line:none;text-decoration-style:solid;text-decoration-color:#000;text-transform:none;text-orientation:mixed;white-space:normal;shape-padding:0;isolation:auto;mix-blend-mode:normal;solid-color:#000;solid-opacity:1" d="M9.992 5v1h1c.584 0 .738.217.865.473.128.255.135.527.135.527L12 13s-.007.272-.135.527c-.128.256-.403.473-.865.473h-1v1h1c.727 0 1.19-.353 1.5-.738.31.385.773.738 1.5.738h1v-1h-1c-.583 0-.737-.217-.865-.473A1.404 1.404 0 0113 13l-.008-6s.007-.272.135-.527c.128-.256.284-.53.865-.473h1V5h-1c-.727 0-1.19.353-1.5.738-.31-.385-.773-.738-1.5-.738z" overflow="visible" fill="#111"/></g></svg>