<svg xmlns="http://www.w3.org/2000/svg" viewBox="0 0 16 16">/&gt;<rect width="11" height="13" x="2.5" y="1.5" ry="3.25" fill="#fff"/><path d="M5 1C3.338 1 2 2.338 2 4v8c0 1.662 1.338 3 3 3h6c1.662 0 3-1.338 3-3V4c0-1.662-1.338-3-3-3zm1 1h4c1.662 0 3 1.338 3 3v6c0 1.662-1.338 3-3 3H6c-1.662 0-3-1.338-3-3V5c0-1.662 1.338-3 3-3z" opacity=".4"/><path d="M6.92 8.502c.186-.366.399-.78.569-1.193v0l.067-.164c-.222-.845-.355-1.523-.236-1.961v0c.032-.115.164-.184.306-.184v0l.086.001h.016c.194-.003.285.244.295.34v0c.017.16-.056.43-.056.43v0c0-.11.004-.286-.065-.438v0c-.08-.176-.157-.281-.225-.298v0c-.035.023-.069.071-.08.163v0a2.35 2.35 0 00-.031.377v0c0 .297.058.69.173 1.094v0c.022-.063.04-.123.056-.18v0c.024-.088.174-.677.174-.677v0s-.038.784-.09 1.021v0l-.038.15v0c.19.53.496 1.003.86 1.344v0c.144.134.325.242.497.341v0c.375-.054.72-.079 1.009-.076v0c.382.005.663.062.777.174v0c.055.054.078.12.085.194v0a.583.583 0 01-.017.113v0c.005-.02.005-.121-.302-.22v0c-.242-.077-.695-.074-1.237-.017v0c.628.308 1.24.46 1.433.369v0c.048-.023.105-.102.105-.102v0s-.034.155-.059.194v0a.306.306 0 01-.15.103v0c-.307.082-1.104-.107-1.799-.504v0c-.776.114-1.628.325-2.312.55v0c-.671 1.176-1.176 1.717-1.587 1.511v0l-.15-.076c-.062-.035-.071-.12-.057-.19v0c.048-.234.341-.587.932-.94v0c.063-.038.346-.187.346-.187v0s-.21.202-.259.242v0c-.47.386-.818.872-.81 1.06v0l.002.016c.4-.057 1-.871 1.772-2.38m.244.125a30.92 30.92 0 01-.371.674v0c.643-.27 1.335-.442 1.994-.564v0a3.287 3.287 0 01-.255-.195v0a3.42 3.42 0 01-.84-1.093v0a9.369 9.369 0 01-.528 1.178" fill="#232629" stroke="#232629" stroke-width=".4" stroke-linejoin="round"/></svg>