<svg xmlns="http://www.w3.org/2000/svg" viewBox="0 0 16 16"><path d="M5 2.002c-2 0-3 0-3 2v5c0 2 1 2 3 2l4 3v-3h2c2 0 3 0 3-2v-5c0-2-1-2-3-2z" opacity=".7" stroke="#000" stroke-width="2" stroke-linejoin="round"/><path d="M5 2.002c-2 0-3 0-3 2v5c0 2 1 2 3 2l4 3v-3h2c2 0 3 0 3-2v-5c0-2-1-2-3-2z" fill="#fa9381"/><path d="M4.333 5.002h7.334c.184 0 .333.223.333.5s-.149.5-.333.5H4.333c-.184 0-.333-.223-.333-.5s.149-.5.333-.5zM4.333 7.002h7.334c.184 0 .333.223.333.5s-.149.5-.333.5H4.333c-.184 0-.333-.223-.333-.5s.149-.5.333-.5z" fill="#fff"/><path d="M11 13h1c1 0 2 0 2-1v-2h1v2c0 2-1 2-3 2h-1v-1m0-1v3l-3-1.5z" opacity=".7" stroke="#000" stroke-width="2" stroke-linejoin="round"/><path d="M11 13h1c1 0 2 0 2-1v-2h1v2c0 2-1 2-3 2h-1v-1m0-1v3l-3-1.5z" fill="#fff"/></svg>