<svg xmlns="http://www.w3.org/2000/svg" viewBox="0 0 16 16">/&gt;<rect width="11" height="13" x="2.5" y="1.5" ry="3.25" fill="#232629"/><path d="M5 1C3.338 1 2 2.338 2 4v8c0 1.662 1.338 3 3 3h6c1.662 0 3-1.338 3-3V4c0-1.662-1.338-3-3-3zm1 1h4c1.662 0 3 1.338 3 3v6c0 1.662-1.338 3-3 3H6c-1.662 0-3-1.338-3-3V5c0-1.662 1.338-3 3-3z" opacity=".4"/><g stroke-width="16"><path style="marker:none" overflow="visible" fill="none" d="M0 0h16v16H0z"/><path d="M6.92 8.502c.186-.366.399-.78.569-1.193h0l.067-.164c-.222-.845-.355-1.523-.236-1.961h0c.032-.115.164-.184.306-.184h0l.086.001h.016c.194-.003.285.244.295.34h0c.017.16-.056.43-.056.43h0c0-.11.004-.286-.065-.438h0c-.08-.176-.157-.281-.225-.298h0c-.035.023-.069.071-.08.163h0a2.35 2.35 0 00-.031.377h0c0 .297.058.69.173 1.094h0c.022-.063.04-.123.056-.18h0c.024-.088.174-.677.174-.677h0s-.038.784-.09 1.021h0l-.038.15h0c.19.53.496 1.003.86 1.344h0c.144.134.325.242.497.341h0c.375-.054.72-.079 1.009-.076h0c.382.005.663.062.777.174h0c.055.054.078.12.085.194h0a.586.586 0 01-.017.113h0c.005-.02.005-.121-.302-.22h0c-.242-.077-.695-.074-1.237-.017h0c.628.308 1.24.46 1.433.369h0a.408.408 0 00.105-.102h0s-.034.155-.059.194h0a.306.306 0 01-.15.103h0c-.307.082-1.104-.107-1.799-.504h0c-.776.114-1.628.325-2.312.55h0c-.671 1.176-1.176 1.717-1.587 1.511h0l-.15-.076c-.062-.035-.071-.12-.057-.19h0c.048-.234.341-.587.932-.94h0c.063-.038.346-.187.346-.187h0s-.21.202-.259.242h0c-.47.386-.818.872-.81 1.06h0l.002.016c.4-.057 1-.871 1.772-2.38m.244.125a30.92 30.92 0 01-.371.674h0c.643-.27 1.335-.442 1.994-.564h0a3.287 3.287 0 01-.255-.195h0a3.42 3.42 0 01-.84-1.093h0a9.369 9.369 0 01-.528 1.178" fill="#fff" stroke="#fdfdfd" stroke-width=".4" stroke-linejoin="round"/></g></svg>