<svg xmlns="http://www.w3.org/2000/svg" viewBox="0 0 16 16">/&gt;<path d="M2 2v12h12V2zm1 1h10v10H3z" fill="#232629"/><path d="M1 1v14h14V1zm1 1h12v12H2z" fill="#e95420"/><path d="M3 3h10v10H3z" fill="#fff"/><path d="M12 8c-1 0-2 0-2 1.5V11H9v4h6v-4h-1V9.5C14 8 13 8 12 8zm0 1c1 0 1 .5 1 1v1h-2v-1c0-.5 0-1 1-1z" opacity=".6" stroke="#000" stroke-width="2" stroke-linejoin="round"/><path d="M12 8c-1 0-2 0-2 1.5V11H9v4h6v-4h-1V9.5C14 8 13 8 12 8zm0 1c1 0 1 .5 1 1v1h-2v-1c0-.5 0-1 1-1z" fill="#fee581"/></svg>