<svg xmlns="http://www.w3.org/2000/svg" viewBox="0 0 16 16">/&gt;<path d="M8 2l-.781 3.094L5 2.78l.875 3.094L2.812 5l2.282 2.219L2 8l3.094.781L2.812 11l3.063-.875L5 13.188 7 11c.571-.74 1.321-1.45 3-2l.906-.219L14 8l-3.094-.781L13.22 5l-3.094.875L11 2.781 8.781 5.094z" stroke="#000" opacity=".6" stroke-linejoin="round" stroke-width="2"/><path d="M8 2l-.781 3.094L5 2.78l.875 3.094L2.812 5l2.282 2.219L2 8l3.094.781L2.812 11l3.063-.875L5 13.188 7 11c.571-.74 1.321-1.45 3-2l.906-.219L14 8l-3.094-.781L13.22 5l-3.094.875L11 2.781 8.781 5.094z" fill="#fff"/><g aria-label="12" style="line-height:1.25" font-weight="700" font-size="8" font-family="sans-serif" letter-spacing="0" word-spacing="0" opacity=".6" stroke="#000" stroke-width="2" stroke-linejoin="round"><path d="M5.504 13.96h1.328v-3.769l-1.363.282V9.449l1.355-.281h1.43v4.793h1.328V15H5.504zM12.434 13.895H15V15h-4.238v-1.105l2.129-1.88q.285-.257.421-.503.137-.246.137-.512 0-.41-.277-.66-.274-.25-.73-.25-.352 0-.77.152-.418.149-.895.445v-1.28q.508-.169 1.004-.255.496-.09.973-.09 1.047 0 1.625.461.582.461.582 1.286 0 .476-.246.89-.246.41-1.035 1.102z" style="-inkscape-font-specification:'sans-serif, Bold';font-variant-ligatures:normal;font-variant-caps:normal;font-variant-numeric:normal;font-feature-settings:normal;text-align:start"/></g><g aria-label="12" style="line-height:1.25" font-weight="700" font-size="8" font-family="sans-serif" letter-spacing="0" word-spacing="0" fill="#fff"><path d="M5.504 13.96h1.328v-3.769l-1.363.282V9.449l1.355-.281h1.43v4.793h1.328V15H5.504zM12.434 13.895H15V15h-4.238v-1.105l2.129-1.88q.285-.257.421-.503.137-.246.137-.512 0-.41-.277-.66-.274-.25-.73-.25-.352 0-.77.152-.418.149-.895.445v-1.28q.508-.169 1.004-.255.496-.09.973-.09 1.047 0 1.625.461.582.461.582 1.286 0 .476-.246.89-.246.41-1.035 1.102z" style="-inkscape-font-specification:'sans-serif, Bold';font-variant-ligatures:normal;font-variant-caps:normal;font-variant-numeric:normal;font-feature-settings:normal;text-align:start"/></g></svg>