<svg xmlns="http://www.w3.org/2000/svg" viewBox="0 0 16 16">/&amp;gt;<rect width="10" height="5" x="-16.198" y="-5.369" ry="1" rx="1" transform="scale(-1 1) rotate(-45)" opacity=".7" fill-rule="evenodd" stroke="#000" stroke-width="2" stroke-linejoin="round"/><path d="M6.765 2l-.707-.707c-1.414-1.414-2.122-.707-2.829 0L1.815 2.707c-.707.707-1.414 1.414 0 2.829l2.829 2.828c.707.707.707.707 0 1.414l.707.707c.707-.707 1.414-1.414 0-2.828L2.522 4.828c-.707-.707-.707-.707 0-1.414L3.936 2c.708-.707.708-.707 1.415 0l.707.707L6.765 2" fill="#6d6d6d"/><path d="M5.35 10.485l-.706-.707c-.708-.707-.708-.707-2.829 1.414l-.707.707c-1.414 1.414-1.414 1.414-.707 2.122l.707.707c.707.707.707.707 2.121-.707l.707-.707c2.122-2.122 2.122-2.122 1.415-2.829z" fill="#fa9381"/><rect ry="1" y="-5.369" x="-16.198" height="5" width="10" rx="1" transform="scale(-1 1) rotate(-45)" fill="#fff" fill-rule="evenodd"/><circle cy="12.5" cx="-12.265" r="3.5" transform="scale(-1 1)" fill="#762572"/><path d="M12.265 10c.433 0 .833.12 1.187.313l-.75.75a1.539 1.539 0 00-.437-.063c-.831 0-1.5.669-1.5 1.5 0 .15.021.3.062.438l-.75.75a2.476 2.476 0 01-.312-1.188c0-1.385 1.115-2.5 2.5-2.5zm2.187 1.313c.193.354.313.754.313 1.187 0 1.385-1.115 2.5-2.5 2.5-.434 0-.833-.12-1.188-.313l.75-.75c.138.042.287.063.438.063.83 0 1.5-.669 1.5-1.5 0-.15-.022-.3-.063-.438z" fill="#fff"/></svg>