<svg xmlns="http://www.w3.org/2000/svg" viewBox="0 0 16 16">/&gt;<path d="M2 4l12-2-2 12H2z" fill="#fff"/><path d="M0 2v4h4V2z" opacity=".7"/><path d="M1 3v2h2V3z" fill="#aee3f8"/><path d="M12 0v4h4V0z" opacity=".7"/><path d="M13 1v2h2V1z" fill="#aee3f8"/><path d="M10 12v4h4v-4z" opacity=".7"/><path d="M11 13v2h2v-2z" fill="#aee3f8"/><path d="M0 12v4h4v-4z" opacity=".7"/><path d="M1 13v2h2v-2z" fill="#aee3f8"/><path d="M4 3l8-2v2L4 5zM13 4h2l-2 8h-2zM1 6h2v6H1zM4 13h6v2H4z" fill="#1463a5"/></svg>