<svg xmlns="http://www.w3.org/2000/svg" viewBox="0 0 16 16"><path d="M7 14H5V4H1V2h10v2H7z" opacity=".6" stroke="#000" stroke-width="2" stroke-linejoin="round"/><path d="M7 14H5V4H1V2h10v2H7z" fill="#fff"/><path d="M12 6c-.833 0-1.47.361-1.93.668-.46.307-.777.625-.777.625a1 1 0 000 1.414 1 1 0 001.414 0s.183-.182.473-.375S11.833 8 12 8c.745 0 .838.207.92.629.082.422-.094 1.131-.627 1.664l-3 3a1 1 0 00-.293.719V15h6v-2h-2.586l1.293-1.293c.967-.967 1.41-2.258 1.176-3.46C14.649 7.042 13.49 6 12 6z" opacity=".6" fill-rule="evenodd" stroke="#000" stroke-width="2" stroke-linecap="round" stroke-linejoin="round"/><path d="M12 6c-.833 0-1.47.361-1.93.668-.46.307-.777.625-.777.625a1 1 0 000 1.414 1 1 0 001.414 0s.183-.182.473-.375S11.833 8 12 8c.745 0 .838.207.92.629.082.422-.094 1.131-.627 1.664l-3 3a1 1 0 00-.293.719V15h6v-2h-2.586l1.293-1.293c.967-.967 1.41-2.258 1.176-3.46C14.649 7.042 13.49 6 12 6z" fill="#aee3f8" fill-rule="evenodd"/></svg>