<svg xmlns="http://www.w3.org/2000/svg" viewBox="0 0 16 16"><path d="M5.383 1.5L1 12.5h2.357l1.19-3h4.906l1.19 3H13l-4.383-11H7zM7 2.996L8.686 7.5H5.314z" opacity=".7" stroke="#000" stroke-width="2" stroke-linejoin="round"/><path d="M5.383 1.5L1 12.5h2.357l1.19-3h4.906l1.19 3H13l-4.383-11H7zM7 2.996L8.686 7.5H5.314z" fill="#fff"/><path d="M12 1L9 5h2v5.5H9l3 4 3-4h-2V5h2l-3-4z" opacity=".7" stroke="#000" stroke-width="2" stroke-linejoin="round"/><path d="M12 1L9 5h2v5.5H9l3 4 3-4h-2V5h2l-3-4z" fill="#aee3f8"/></svg>