<svg xmlns="http://www.w3.org/2000/svg" viewBox="0 0 16 16"><path d="M5.383 2L1 13h2.357l1.19-3h4.906l1.19 3H13L8.617 2H7zM7 3.496L8.685 8H5.314z" opacity=".6" stroke="#000" stroke-width="2" stroke-linejoin="round"/><path d="M5.383 2L1 13h2.357l1.19-3h4.906l1.19 3H13L8.617 2H7zM7 3.496L8.685 8H5.314z" fill="#fff"/><path d="M11 9v5h2.5a1.5 1.5 0 001.5-1.5c0-.533-.268-1.015-.688-1.281.116-.213.188-.46.188-.719A1.5 1.5 0 0013 9h-1zm1 1h1a.5.5 0 010 1h-1zm0 2h1.5a.5.5 0 110 1H12z" opacity=".6" stroke="#000" stroke-width="2" stroke-linejoin="round"/><path d="M11 9v5h2.5a1.5 1.5 0 001.5-1.5c0-.533-.268-1.015-.688-1.281.116-.213.188-.46.188-.719A1.5 1.5 0 0013 9h-1zm1 1h1a.5.5 0 010 1h-1zm0 2h1.5a.5.5 0 110 1H12z" fill="#aee3f8"/></svg>