<svg xmlns="http://www.w3.org/2000/svg" viewBox="0 0 16 16"><path d="M4 15c.417 0 .766-.238.979-.492.212-.255.343-.535.468-.785s.244-.47.344-.59c.1-.12.126-.133.209-.133.083 0 .109.012.209.133.1.12.219.34.344.59.125.25.256.53.468.785.213.254.562.492.979.492.417 0 .766-.238.979-.492.212-.255.343-.535.468-.785s.244-.47.344-.59c.1-.12.126-.133.209-.133.083 0 .109.012.209.133.1.12.219.34.344.59.125.25.256.53.468.785.213.254.562.492.979.492.417 0 .766-.238.979-.492.212-.255.343-.535.468-.785s.244-.47.344-.59c.1-.12.126-.133.209-.133v-1c-.417 0-.766.238-.979.492-.212.255-.343.535-.468.785s-.244.47-.344.59c-.1.12-.126.133-.209.133-.083 0-.109-.012-.209-.133-.1-.12-.219-.34-.344-.59-.125-.25-.256-.53-.468-.785-.213-.254-.562-.492-.979-.492-.417 0-.766.238-.979.492-.212.255-.343.535-.468.785s-.244.47-.344.59c-.1.12-.126.133-.209.133-.083 0-.109-.012-.209-.133-.1-.12-.219-.34-.344-.59-.125-.25-.256-.53-.468-.785C6.766 12.238 6.417 12 6 12c-.417 0-.766.238-.979.492-.212.255-.343.535-.468.785s-.244.47-.344.59c-.1.12-.126.133-.209.133z" style="line-height:normal;font-variant-ligatures:normal;font-variant-position:normal;font-variant-caps:normal;font-variant-numeric:normal;font-variant-alternates:normal;font-feature-settings:normal;text-indent:0;text-align:start;text-decoration-line:none;text-decoration-style:solid;text-decoration-color:#000;text-transform:none;text-orientation:mixed;white-space:normal;shape-padding:0;isolation:auto;mix-blend-mode:normal;solid-color:#000;solid-opacity:1" color="#000" font-weight="400" font-family="sans-serif" overflow="visible" opacity=".8" fill="#fff" stroke="#fff" stroke-width="2" stroke-linejoin="round"/><path style="line-height:normal;font-variant-ligatures:normal;font-variant-position:normal;font-variant-caps:normal;font-variant-numeric:normal;font-variant-alternates:normal;font-feature-settings:normal;text-indent:0;text-align:start;text-decoration-line:none;text-decoration-style:solid;text-decoration-color:#000;text-transform:none;text-orientation:mixed;white-space:normal;shape-padding:0;isolation:auto;mix-blend-mode:normal;solid-color:#000;solid-opacity:1" d="M4 15c.417 0 .766-.238.979-.492.212-.255.343-.535.468-.785s.244-.47.344-.59c.1-.12.126-.133.209-.133.083 0 .109.012.209.133.1.12.219.34.344.59.125.25.256.53.468.785.213.254.562.492.979.492.417 0 .766-.238.979-.492.212-.255.343-.535.468-.785s.244-.47.344-.59c.1-.12.126-.133.209-.133.083 0 .109.012.209.133.1.12.219.34.344.59.125.25.256.53.468.785.213.254.562.492.979.492.417 0 .766-.238.979-.492.212-.255.343-.535.468-.785s.244-.47.344-.59c.1-.12.126-.133.209-.133v-1c-.417 0-.766.238-.979.492-.212.255-.343.535-.468.785s-.244.47-.344.59c-.1.12-.126.133-.209.133-.083 0-.109-.012-.209-.133-.1-.12-.219-.34-.344-.59-.125-.25-.256-.53-.468-.785-.213-.254-.562-.492-.979-.492-.417 0-.766.238-.979.492-.212.255-.343.535-.468.785s-.244.47-.344.59c-.1.12-.126.133-.209.133-.083 0-.109-.012-.209-.133-.1-.12-.219-.34-.344-.59-.125-.25-.256-.53-.468-.785C6.766 12.238 6.417 12 6 12c-.417 0-.766.238-.979.492-.212.255-.343.535-.468.785s-.244.47-.344.59c-.1.12-.126.133-.209.133z" color="#000" font-weight="400" font-family="sans-serif" overflow="visible" fill="#c7162b"/><path d="M5.383 1L1 12h2.357l1.19-3h4.928l.384 1h2.368L8.748 1zm1.68 1.328L8.727 7H5.314z" opacity=".6" stroke="#000" stroke-width="2" stroke-linejoin="round"/><path d="M5.383 1L1 12h2.357l1.19-3h4.928l.384 1h2.368L8.748 1zm1.68 1.328L8.727 7H5.314z" fill="#fff"/></svg>