<svg xmlns="http://www.w3.org/2000/svg" viewBox="0 0 16 16"><path d="M11.03 2.002a2 2 0 00-2 2 2 2 0 002 2 2 2 0 002-2 2 2 0 00-2-2zm0 1a1 1 0 011 1 1 1 0 01-1 1 1 1 0 01-1-1 1 1 0 011-1zM8.103 5.066L5.447 6.6a2 2 0 00-2.424-.332A2 2 0 002.291 9a2 2 0 002.732.732 2 2 0 00.436-.343l-.006.011 2.654 1.532.5-.866-2.656-1.533-.008.016a2 2 0 00.006-1.084l2.655-1.533zM4 7a1 1 0 01.889.5 1 1 0 01-.366 1.365A1 1 0 013.156 8.5a1 1 0 01.367-1.367A1 1 0 014 7zm7.03 3.002a2 2 0 00-2 2 2 2 0 002 2 2 2 0 002-2 2 2 0 00-2-2zm0 1a1 1 0 011 1 1 1 0 01-1 1 1 1 0 01-1-1 1 1 0 011-1z" opacity=".7" fill-rule="evenodd" stroke="#000" stroke-width="2" stroke-linejoin="round"/><path d="M8.104 5.066L5.447 6.6a2 2 0 00-2.424-.332A2 2 0 002.291 9a2 2 0 002.732.732 2 2 0 00.436-.343l-.006.011 2.654 1.532.5-.866-2.656-1.533-.008.016a2 2 0 00.006-1.084l2.655-1.533zM4 7a1 1 0 01.889.5 1 1 0 01-.366 1.365A1 1 0 013.156 8.5a1 1 0 01.367-1.367A1 1 0 014 7zM11.03 2.002a2 2 0 00-2 2 2 2 0 002 2 2 2 0 002-2 2 2 0 00-2-2zm0 1a1 1 0 011 1 1 1 0 01-1 1 1 1 0 01-1-1 1 1 0 011-1zM11.03 10.002a2 2 0 00-2 2 2 2 0 002 2 2 2 0 002-2 2 2 0 00-2-2zm0 1a1 1 0 011 1 1 1 0 01-1 1 1 1 0 01-1-1 1 1 0 011-1z" fill="#fff" fill-rule="evenodd"/></svg>