<svg xmlns="http://www.w3.org/2000/svg" xmlns:xlink="http://www.w3.org/1999/xlink" viewBox="0 0 16 16"><defs><linearGradient id="a"><stop offset="0" stop-color="#151515"/><stop offset="1" stop-color="#4d4d4d"/></linearGradient><linearGradient xlink:href="#a" id="b" x1="7" y1="2" x2="7" y2="13" gradientUnits="userSpaceOnUse"/></defs><path d="M7.383 4L3 15h2.357l1.19-3h4.906l1.19 3H15L10.617 4H9zM9 5.496L10.686 10H7.315z" fill="#6d6d6d" stroke="#6d6d6d" stroke-width="2" stroke-linejoin="round"/><path d="M5.383 2L1 13h2.357l1.19-3h4.906l1.19 3H13L8.617 2H7zM7 3.496L8.686 8H5.314z" stroke="#fff" stroke-width="2" stroke-linejoin="round"/><path d="M5.383 2L1 13h2.357l1.19-3h4.906l1.19 3H13L8.617 2H7zM7 3.496L8.686 8H5.314z" fill="url(#b)"/></svg>