<svg xmlns="http://www.w3.org/2000/svg" xmlns:xlink="http://www.w3.org/1999/xlink" viewBox="0 0 16 16"><defs><linearGradient xlink:href="#a" id="b" x1="8" y1="2" x2="8" y2="13.5" gradientUnits="userSpaceOnUse"/><linearGradient id="a"><stop offset="0" stop-color="#151515"/><stop offset="1" stop-color="#4d4d4d"/></linearGradient></defs><path style="line-height:normal;font-variant-ligatures:normal;font-variant-position:normal;font-variant-caps:normal;font-variant-numeric:normal;font-variant-alternates:normal;font-variant-east-asian:normal;font-feature-settings:normal;font-variation-settings:normal;text-indent:0;text-align:start;text-decoration-line:none;text-decoration-style:solid;text-decoration-color:#000;text-transform:none;text-orientation:mixed;white-space:normal;shape-padding:0;shape-margin:0;inline-size:0;isolation:auto;mix-blend-mode:normal;solid-color:#000;solid-opacity:1" d="M6.902 1a1 1 0 00-.91.586L1.18 12.172a1 1 0 00.496 1.324l1.82.828a1 1 0 001.324-.496L6.107 11h3.786L11 13.434V10h2.832l-3.824-8.414A1 1 0 009.098 1H6.902zm.645 2h.906l.442.969a1 1 0 00-1.797.015L7.547 3zM8 6.832L8.076 7h-.152L8 6.832zm-2.543.764A1 1 0 006.371 9h-.908a1 1 0 00-.889.541l.883-1.945zm5.107.049l.883 1.94a1 1 0 00-.91-.585H9.63a1 1 0 00.935-1.355z" color="#000" font-weight="400" font-family="sans-serif" overflow="visible" fill="#fff"/><path style="line-height:normal;font-variant-ligatures:normal;font-variant-position:normal;font-variant-caps:normal;font-variant-numeric:normal;font-variant-alternates:normal;font-variant-east-asian:normal;font-feature-settings:normal;font-variation-settings:normal;text-indent:0;text-align:start;text-decoration-line:none;text-decoration-style:solid;text-decoration-color:#000;text-transform:none;text-orientation:mixed;white-space:normal;shape-padding:0;shape-margin:0;inline-size:0;isolation:auto;mix-blend-mode:normal;solid-color:#000;solid-opacity:1" d="M6.902 2L2.09 12.586l1.82.828L5.463 10h5.074L11 11.018V10h1.734L9.098 2H6.902zM8 4.416L9.629 8H6.37L8 4.416z" color="#000" font-weight="400" font-family="sans-serif" overflow="visible" fill="url(#b)"/><path d="M12 11v5h2.5a1.5 1.5 0 001.5-1.5c0-.533-.268-1.015-.688-1.281.116-.213.188-.46.188-.719A1.5 1.5 0 0014 11h-1zm1 1h1a.5.5 0 010 1h-1zm0 2h1.5a.5.5 0 110 1H13z" fill="#e95420"/></svg>