<svg xmlns="http://www.w3.org/2000/svg" viewBox="0 0 16 16">/&gt;<path d="M11.671 10.526q0 .72-.297 1.29-.288.564-.832.957-.543.393-1.324.6-.78.201-1.757.201-.942 0-1.766-.133-.815-.126-1.366-.379v-1.32q.288.119.653.237.374.112.781.2.408.09.84.149.434.052.858.052 1.358 0 2.003-.445.654-.445.654-1.276 0-.4-.127-.697-.12-.297-.433-.542-.306-.252-.824-.482-.518-.237-1.307-.512-.755-.26-1.316-.563-.552-.312-.917-.697-.356-.386-.534-.876-.17-.49-.17-1.112 0-.653.272-1.165.271-.512.764-.86.492-.356 1.171-.542.688-.185 1.511-.185 1.01 0 1.817.17.806.164 1.434.423l-.569 1.157q-.551-.215-1.256-.37-.696-.164-1.443-.164-1.036 0-1.604.423-.57.415-.57 1.128 0 .422.128.734.128.304.425.556.297.245.78.467.493.216 1.206.46.772.267 1.35.55.585.281.976.637.39.356.586.823.203.468.203 1.106z" opacity=".6" stroke="#000" stroke-width="3" stroke-linejoin="round"/><path d="M11.671 10.526q0 .72-.297 1.29-.288.564-.832.957-.543.393-1.324.6-.78.201-1.757.201-.942 0-1.766-.133-.815-.126-1.366-.379v-1.32q.288.119.653.237.374.112.781.2.408.09.84.149.434.052.858.052 1.358 0 2.003-.445.654-.445.654-1.276 0-.4-.127-.697-.12-.297-.433-.542-.306-.252-.824-.482-.518-.237-1.307-.512-.755-.26-1.316-.563-.552-.312-.917-.697-.356-.386-.534-.876-.17-.49-.17-1.112 0-.653.272-1.165.271-.512.764-.86.492-.356 1.171-.542.688-.185 1.511-.185 1.01 0 1.817.17.806.164 1.434.423l-.569 1.157q-.551-.215-1.256-.37-.696-.164-1.443-.164-1.036 0-1.604.423-.57.415-.57 1.128 0 .422.128.734.128.304.425.556.297.245.78.467.493.216 1.206.46.772.267 1.35.55.585.281.976.637.39.356.586.823.203.468.203 1.106z" fill="#fff" stroke="#fff" stroke-linejoin="round"/><path opacity=".6" stroke="#000" stroke-width="2" stroke-linejoin="round" d="M2 7h12v1H2z"/><path fill="#fff" d="M2 7h12v1H2z"/></svg>