<svg xmlns="http://www.w3.org/2000/svg" height="16" width="16"><path d="M16 2H0v2h16z" fill="#1463a5"/><path opacity=".7" d="M2 0h6v6H2z"/><path fill="#aee3f8" d="M3 1h4v4H3z"/><g fill-rule="evenodd"><path d="M5.489 3.475a1 1 0 00-.965.999L4.53 15.14a1 1 0 001.598.802l3.279-2.44 4.203-.361a1 1 0 00.606-1.718l-8-7.671a1 1 0 00-.727-.278z" opacity=".05" fill-opacity=".992"/><path d="M5.512 4.14a.334.334 0 00-.322.334l.007 10.667a.334.334 0 00.532.266l3.431-2.553 4.392-.376a.334.334 0 00.202-.573l-8-7.672a.334.334 0 00-.242-.092z" opacity=".15" fill-opacity=".992"/><path d="M13.524 11.48l-4.486.384-3.507 2.61-.007-10.667z" fill="#333" stroke="#fafafa" stroke-width="1" stroke-linecap="round" stroke-linejoin="round"/></g></svg>