<svg xmlns="http://www.w3.org/2000/svg" viewBox="0 0 16 16"><path fill="#fff" d="M2 2h12v12H2z"/><path d="M1 3v10c0 2 1 2 3 2h8c2 0 3 0 3-2V3c0-2-1-2-3-2H4C2 1 1 1 1 3zm3-1h1v3H2V3c0-1 1-1 2-1zm2 0h4v3H6zm5 0h1c1 0 2 0 2 1v2h-3zM2 6h3v4H2zm4 0h4v4H6zm5 0h3v4h-3zm-9 5h3v3H4c-1 0-2 0-2-1zm4 0h4v3H6zm5 0h3v2c0 1-1 1-2 1h-1z" fill="#6d6d6d"/><circle cx="11.5" cy="12.5" r="1.5" fill="#fff"/><circle cx="11.5" cy="14.5" r="1.5" fill="#fff"/><path d="M9.576 8.612a.252.252 0 00-.154.33l.25.686a3.372 3.372 0 00-.712.667l-.68-.315a.248.248 0 00-.341.124l-.525 1.125a.248.248 0 00.124.34l.679.32c-.06.32-.087.641-.055.973l-.686.25a.252.252 0 00-.154.33l.424 1.166c.05.137.192.204.33.154l.686-.25c.188.277.415.504.667.712l-.317.68a.248.248 0 00.124.34l1.125.525c.132.064.282.01.341-.124l.319-.679c.32.06.642.087.974.055l.25.687c.05.138.192.204.33.154l1.166-.424a.252.252 0 00.154-.33l-.25-.686c.277-.188.504-.415.711-.667l.68.317c.132.064.281.01.34-.124l.526-1.125a.248.248 0 00-.124-.341l-.679-.319c.06-.32.087-.642.055-.974l.687-.25a.252.252 0 00.154-.33l-.424-1.166a.252.252 0 00-.33-.154l-.686.25a3.372 3.372 0 00-.668-.711l.318-.68a.248.248 0 00-.124-.34l-1.125-.526a.248.248 0 00-.341.124l-.32.679a3.428 3.428 0 00-.973-.055l-.25-.688a.252.252 0 00-.33-.154zm1.683 2.813a1.17 1.17 0 11.8 2.201 1.17 1.17 0 01-.8-2.201z" display="block" fill="#b3b3b3" stroke="#6d6d6d" stroke-width=".617" stroke-linejoin="round"/></svg>