<svg xmlns="http://www.w3.org/2000/svg" viewBox="0 0 16 16">/&amp;gt;<path d="M8 1c-1.1 0-2 .9-2 2 0 .798.518 1.42 1.2 1.74V5.8H5.6a.402.402 0 00-.401.4V7c0 .22.18.4.4.4h1.6v5.448a5.883 5.883 0 01-3.804-2.177l.398-.22a.4.4 0 00.153-.548l-.4-.7a.397.397 0 00-.537-.153l-2.4 1.3a.4.4 0 00-.157.55l.4.7c.11.188.35.257.54.152l.54-.295C3.308 13.34 5.49 14.6 8 14.6s4.69-1.26 6.067-3.143l.54.295a.4.4 0 00.54-.153l.4-.7c.204-.38.03-.465-.26-.607l-.272-.147-.825-.447-1.2-.65a.397.397 0 00-.537.152l-.4.7a.4.4 0 00.153.548l.398.22A5.872 5.872 0 018.8 12.846V7.4h1.6c.22 0 .4-.18.4-.4v-.8c0-.22-.18-.4-.4-.4H8.8V4.74C9.48 4.42 10 3.798 10 3c0-1.1-.9-2-2-2zm0 1.6c.226 0 .4.174.4.4 0 .226-.174.4-.4.4a.394.394 0 01-.4-.4c0-.225.174-.4.4-.4z" opacity=".7" stroke="#000" stroke-width="2" stroke-linejoin="round"/><path d="M8 1c-1.1 0-2 .9-2 2 0 .798.518 1.42 1.2 1.74V5.8H5.6a.402.402 0 00-.401.4V7c0 .22.18.4.4.4h1.6v5.448a5.883 5.883 0 01-3.804-2.177l.398-.22a.4.4 0 00.153-.548l-.4-.7a.397.397 0 00-.537-.153l-2.4 1.3a.4.4 0 00-.157.55l.4.7c.11.188.35.257.54.152l.54-.295C3.308 13.34 5.49 14.6 8 14.6s4.69-1.26 6.067-3.143l.54.295a.4.4 0 00.54-.153l.4-.7c.204-.38.03-.465-.26-.607l-.272-.147-.825-.447-1.2-.65a.397.397 0 00-.537.152l-.4.7a.4.4 0 00.153.548l.398.22A5.872 5.872 0 018.8 12.846V7.4h1.6c.22 0 .4-.18.4-.4v-.8c0-.22-.18-.4-.4-.4H8.8V4.74C9.48 4.42 10 3.798 10 3c0-1.1-.9-2-2-2zm0 1.6c.226 0 .4.174.4.4 0 .226-.174.4-.4.4a.394.394 0 01-.4-.4c0-.225.174-.4.4-.4z" fill="#fff"/><circle cx="8" cy="3" r="1" fill="#6d6d6d"/></svg>