<svg xmlns="http://www.w3.org/2000/svg" viewBox="0 0 16 16">/&amp;gt;<path d="M3 12v-2H2v5h1v-2h10v2h1v-5h-1v2z" opacity=".7" stroke="#000" stroke-width="2" stroke-linejoin="round"/><path d="M3 12v-2H2v5h1v-2h10v2h1v-5h-1v2z" fill="#aee3f8"/><g stroke="#000" opacity=".7" stroke-width="2" stroke-linejoin="round"><rect y="10" x="6" width="2" ry="1" height="2"/><circle r="1" cy="14" cx="10"/><path fill-rule="evenodd" d="M10.3 10L6 14.3l.7.7 4.3-4.3z"/></g><g fill="#aee3f8"><rect height="2" ry="1" width="2" x="6" y="10"/><circle cx="10" cy="14" r="1"/><path d="M10.3 10L6 14.3l.7.7 4.3-4.3z" fill-rule="evenodd"/></g><path fill="#fff" d="M2 2h12v5H2z"/><path d="M4 1C2 1 1 1 1 3v5h14V3c0-2-1-2-3-2zm0 1h1v2H2V3c0-1 1-1 2-1zm2 0h4v2H6zm5 0h1c1 0 2 0 2 1v1h-3zM2 5h3v2H2zm4 0h4v2H6zm5 0h3v2h-3z" fill="#6d6d6d"/></svg>