<svg xmlns="http://www.w3.org/2000/svg" xmlns:xlink="http://www.w3.org/1999/xlink" height="16" width="16"><defs><radialGradient xlink:href="#a" id="b" cx="8" cy="8" fx="8" fy="8" r="6" gradientUnits="userSpaceOnUse"/><linearGradient id="a"><stop offset="0" stop-color="#232629"/><stop offset=".333" stop-color="#fff"/><stop offset=".76" stop-color="#d4d4d4"/><stop offset="1" stop-color="#fff"/></linearGradient></defs><path d="M8 2a6 6 0 00-6 6 6 6 0 006 6 6 6 0 006-6 6 6 0 00-6-6zm0 3a3 3 0 013 3 3 3 0 01-3 3 3 3 0 01-3-3 3 3 0 013-3z" fill-opacity=".835" stroke-width="2" stroke="#000" opacity=".7" stroke-linejoin="round"/><path d="M8 2a6 6 0 00-6 6 6 6 0 006 6 6 6 0 006-6 6 6 0 00-6-6zm0 3a3 3 0 013 3 3 3 0 01-3 3 3 3 0 01-3-3 3 3 0 013-3z" fill="url(#b)"/></svg>