<svg xmlns="http://www.w3.org/2000/svg" viewBox="0 0 16 16">/&gt;<path d="M5 7H3v7h10V7h-2V5a3 3 0 10-6 0h1a2 2 0 014 0v2H6z" stroke="#000" opacity=".6" stroke-width="2" stroke-linejoin="round"/><path d="M5 7H3v7h10V7h-2V5a3 3 0 10-6 0h1a2 2 0 014 0v2H6z" fill="#fff"/><circle cy="12.5" cx="12.5" r="3.5" fill="#c7162b"/><path overflow="visible" font-weight="400" style="line-height:normal;text-indent:0;text-align:start;text-decoration-line:none;text-decoration-style:solid;text-decoration-color:#000;text-transform:none;white-space:normal;isolation:auto;mix-blend-mode:normal;marker:none" d="M13.914 10.379L12.5 11.793l-1.414-1.414-.707.707 1.414 1.414-1.414 1.414.707.707 1.414-1.414 1.414 1.414.707-.707-1.414-1.414 1.414-1.414z" color="#000" font-family="sans-serif" fill="#fff"/></svg>