<svg xmlns="http://www.w3.org/2000/svg" viewBox="0 0 16 16"><path d="M2 11V4h6v7z" opacity=".7" stroke="#000" stroke-width="2" stroke-linejoin="round"/><path d="M2 11V4h6v7z" fill="#d85eca"/><path d="M16 3v1h-6V3h3z" fill="#232629" fill-rule="evenodd"/><path d="M15 4v1H9V4h3z" fill="#fff" fill-rule="evenodd"/><path d="M16 11v1h-6v-1h3z" fill="#232629" fill-rule="evenodd"/><path d="M15 10v1H9v-1h3z" fill="#fff" fill-rule="evenodd"/><path d="M16 5v1h-6V5h3z" fill="#232629" fill-rule="evenodd"/><path d="M15 6v1H9V6h3z" fill="#fff" fill-rule="evenodd"/><path d="M16 9v1h-6V9h3z" fill="#232629" fill-rule="evenodd"/><path d="M15 8v1H9V8h3z" fill="#fff" fill-rule="evenodd"/><path fill="#232629" fill-rule="evenodd" d="M16 14H0v-1h16z"/><path fill="#fff" fill-rule="evenodd" d="M15 13H1v-1h14z"/><path fill="#232629" fill-rule="evenodd" d="M16 1H0v1h16z"/><path fill="#fff" fill-rule="evenodd" d="M15 2H1v1h14z"/><path d="M16 7v1h-6V7h3z" fill="#232629" fill-rule="evenodd"/></svg>