<svg xmlns="http://www.w3.org/2000/svg" viewBox="0 0 16 16">/&gt;<path d="M0 12v2c0 2 1 2 3 2h1v-4z" fill="#2daaaa"/><path fill="#46a926" d="M4 12h4v4H4z"/><path fill="#fdc92b" d="M8 12h4v4H8z"/><path d="M12 12v4h1c2 0 3 0 3-2v-2z" fill="#f34f17"/><path fill="#31c6b7" d="M0 8h4v4H0z"/><path fill="#76c22b" d="M4 8h4v4H4z"/><path fill="#ffda64" d="M8 8h4v4H8z"/><path fill="#fb7c38" d="M12 8h4v4h-4z"/><path fill="#5bdbc1" d="M0 4h4v4H0z"/><path fill="#a6d74f" d="M4 4h4v4H4z"/><path fill="#fee581" d="M8 4h4v4H8z"/><path fill="#fda463" d="M12 4h4v4h-4z"/><path d="M3 0C1 0 0 0 0 2v2h4V0z" fill="#81e9c0"/><path fill="#cbe667" d="M4 0h4v4H4z"/><path fill="#fff4c9" d="M8 0h4v4H8z"/><path d="M12 0v4h4V2c0-2-1-2-3-2z" fill="#fec589"/><g fill="#232629"><path d="M2 2v2h12V2h-1zM2 6v2h2V6zM5 6v2h2V6zM12 6v2h2V6zM2 10v1h12v-1zM2 13v1h1v-1zM4 13v1h1v-1zM6 13v1h1v-1zM8 13v1h1v-1zM10 13v1h1v-1zM12 13v1h1v-1zM9 6v2h2V6z"/></g></svg>