<svg xmlns="http://www.w3.org/2000/svg" viewBox="0 0 16 16">/&gt;<path style="line-height:normal;font-variant-ligatures:normal;font-variant-position:normal;font-variant-caps:normal;font-variant-numeric:normal;font-variant-alternates:normal;font-feature-settings:normal;text-indent:0;text-align:start;text-decoration-line:none;text-decoration-style:solid;text-decoration-color:#000;text-transform:none;text-orientation:mixed;white-space:normal;shape-padding:0;isolation:auto;mix-blend-mode:normal;solid-color:#000;solid-opacity:1" d="M2.904 2.904a6.5 6.5 0 000 9.192 6.5 6.5 0 008.002.931l1.544 1.544a1 1 0 001.414 0l.707-.707a1 1 0 000-1.414l-1.544-1.544a6.5 6.5 0 00-.93-8.002 6.5 6.5 0 00-9.193 0z" color="#000" font-weight="400" font-family="sans-serif" overflow="visible" opacity=".6"/><path d="M3.61 3.611a5.5 5.5 0 000 7.778 5.5 5.5 0 007.408.336l2.139 2.139.707-.707-2.14-2.14a5.5 5.5 0 00-.335-7.406 5.5 5.5 0 00-7.778 0z" fill="#c8c4b7"/><circle cy="10.607" r="4.5" transform="rotate(-45)" fill="#fff"/><path fill="#c7162b" d="M5 7h5v1H5z"/></svg>