<svg xmlns="http://www.w3.org/2000/svg" viewBox="0 0 16 16">/&amp;gt;<path d="M14 5.994c-.014-1.258.03-2.179-.385-2.931a1.88 1.88 0 00-.998-.838C12.18 2.06 10.343 2 11 2H5c-.658 0-1.179.06-1.617.225a1.875 1.875 0 00-.997.838c-.415.752-.371 1.673-.386 2.931v4.012c.014 1.258-.03 2.179.385 2.931.207.377.559.674.998.838.438.165.96.225 1.617.225h6c.658 0 1.179-.06 1.617-.225.439-.164.789-.461.997-.838.415-.752.371-1.673.386-2.931V5.998z" style="line-height:125%;-inkscape-font-specification:Ubuntu;text-align:center" font-weight="400" font-size="15" font-family="Ubuntu" letter-spacing="0" word-spacing="0" text-anchor="middle" opacity=".7"/><path d="M12.973 5.983c-.01-1.557.012-.11-.039-1.66-.042-.46-.206-1.016-.71-1.155-.635-.219-1.333-.108-1.982-.146-2.297-.007-3.596-.023-5.885.022-.462.039-1.013.202-1.164.699-.225.632-.123 1.284-.154 1.936-.007 1.424-.011-.15-.012 1.276 0 1.704.005 2.408.019 4.107.012.512-.02 1.184.405 1.585.54.42 1.268.287 1.904.323 2.444.011 3.91.027 6.357-.022.402-.05.863-.17 1.044-.575.294-.669.168-1.427.206-2.126.011-1.755.012-2.51.011-4.264z" fill="#fff"/><g fill="#fff" stroke="#fff" opacity=".8" stroke-width="3" stroke-linejoin="round" stroke-linecap="round"><path d="M1.5 8l2-2v4zM14.5 8l-2-2v4z"/></g><g fill="#e95420" stroke="#e95420" stroke-linecap="round" stroke-linejoin="round"><path d="M1.5 8l2-2v4zM14.5 8l-2-2v4z"/></g><g opacity=".8" fill="#fff" stroke="#fff" stroke-width="3" stroke-linejoin="round" stroke-linecap="round"><path d="M8 1.5l2 2H6zM8 14.5l2-2H6z"/></g><g fill="#e95420" stroke="#e95420" stroke-linecap="round" stroke-linejoin="round"><path d="M8 1.5l2 2H6zM8 14.5l2-2H6z"/></g></svg>