<svg xmlns="http://www.w3.org/2000/svg" viewBox="0 0 16 16">/&gt;<path d="M14 4.995c-.014-1.259.03-2.18-.385-2.932a1.88 1.88 0 00-.998-.838C12.18 1.06 11.657 1 11 1H5c-.658 0-1.179.06-1.617.225a1.875 1.875 0 00-.997.838c-.415.753-.371 1.674-.386 2.932V11.005c.014 1.259-.03 2.18.385 2.932.207.376.559.673.998.838.438.164.96.225 1.617.225h6c.658 0 1.179-.06 1.617-.225.439-.165.789-.462.997-.838.415-.753.371-1.674.386-2.932V4.998z" style="line-height:125%;-inkscape-font-specification:Ubuntu;text-align:center" font-weight="400" font-size="15" font-family="Ubuntu" letter-spacing="0" word-spacing="0" text-anchor="middle" opacity=".7"/><path d="M13 5c-.01-1.557.012-.11-.039-1.66-.042-.46-.206-1.016-.71-1.155-.635-.219-1.334-.108-1.982-.146-2.297-.008-3.596-.023-5.885.022-.462.039-1.013.202-1.164.699-.225.632-.123 1.284-.154 1.936-.007 1.424-.011.849-.012 2.275 0 1.704.005 3.408.019 5.107.012.512-.02 1.184.405 1.585.54.421 1.268.287 1.904.323 2.444.011 3.91.027 6.357-.022.402-.05.863-.17 1.044-.575.294-.669.168-1.427.206-2.126C13 9.508 13 6.754 13 5z" fill="#fff"/><path d="M13 8l-3-2v4zM3 8l3-2v4z" fill="#e95420"/></svg>