<svg xmlns="http://www.w3.org/2000/svg" height="16" viewBox="0 0 4.233 4.233" width="16"><linearGradient id="a"><stop offset="0" stop-color="#fff"/><stop offset=".106" stop-color="#fff" stop-opacity=".099"/><stop offset="1" stop-color="#fff" stop-opacity="0"/><stop offset="1" stop-color="#fff" stop-opacity=".551"/></linearGradient><rect x="2.117" height="2.117" width="2.117" ry=".265" opacity=".6"/><path fill="#fff" d="M2.381.265h1.588v1.588H2.381z"/><rect ry=".265" width="2.117" height="2.117" x="2.117" y="2.117" opacity=".6"/><path fill="#fff" d="M2.381 2.381h1.588v1.588H2.381z"/><path d="M2.646 1.587L3.175.53l.53 1.058h-1.06M2.646 2.646l.529 1.058.53-1.058h-1.06" fill="#7c436f"/><circle cx="1.058" cy="1.058" fill="#7c436f" r="1.058"/><path style="line-height:normal;font-variant-ligatures:normal;font-variant-position:normal;font-variant-caps:normal;font-variant-numeric:normal;font-variant-alternates:normal;font-feature-settings:normal;text-indent:0;text-align:start;text-decoration-line:none;text-decoration-style:solid;text-decoration-color:#000;text-transform:none;text-orientation:mixed;white-space:normal;shape-padding:0;isolation:auto;mix-blend-mode:normal;solid-color:#000;solid-opacity:1;marker:none" d="M1.68.387l-.902.901-.342-.34-.22.22.562.561L1.9.608z" color="#000" font-weight="400" font-family="sans-serif" overflow="visible" fill="#fff"/><rect y="2.117" height="2.117" width="2.117" ry=".265" fill="#7c436f"/><path d="M1.68 2.504l-.902.901-.342-.34-.22.22.562.561L1.9 2.725z" style="line-height:normal;font-variant-ligatures:normal;font-variant-position:normal;font-variant-caps:normal;font-variant-numeric:normal;font-variant-alternates:normal;font-feature-settings:normal;text-indent:0;text-align:start;text-decoration-line:none;text-decoration-style:solid;text-decoration-color:#000;text-transform:none;text-orientation:mixed;white-space:normal;shape-padding:0;isolation:auto;mix-blend-mode:normal;solid-color:#000;solid-opacity:1;marker:none" color="#000" font-weight="400" font-family="sans-serif" overflow="visible" fill="#fff"/></svg>