<?xml version="1.0" encoding="UTF-8" standalone="no"?>
<svg
   xmlns:dc="http://purl.org/dc/elements/1.1/"
   xmlns:cc="http://creativecommons.org/ns#"
   xmlns:rdf="http://www.w3.org/1999/02/22-rdf-syntax-ns#"
   xmlns:svg="http://www.w3.org/2000/svg"
   xmlns="http://www.w3.org/2000/svg"
   xmlns:sodipodi="http://sodipodi.sourceforge.net/DTD/sodipodi-0.dtd"
   xmlns:inkscape="http://www.inkscape.org/namespaces/inkscape"
   height="32"
   viewBox="0 0 32 32"
   width="32"
   version="1.1"
   id="svg26"
   sodipodi:docname="transition-box.svg"
   inkscape:version="1.0.1 (3bc2e813f5, 2020-09-07)">
  <metadata
     id="metadata32">
    <rdf:RDF>
      <cc:Work
         rdf:about="">
        <dc:format>image/svg+xml</dc:format>
        <dc:type
           rdf:resource="http://purl.org/dc/dcmitype/StillImage" />
        <dc:title></dc:title>
      </cc:Work>
    </rdf:RDF>
  </metadata>
  <defs
     id="defs30" />
  <sodipodi:namedview
     pagecolor="#ffffff"
     bordercolor="#666666"
     borderopacity="1"
     objecttolerance="10"
     gridtolerance="10"
     guidetolerance="10"
     inkscape:pageopacity="0"
     inkscape:pageshadow="2"
     inkscape:window-width="1920"
     inkscape:window-height="1011"
     id="namedview28"
     showgrid="true"
     inkscape:zoom="25.25"
     inkscape:cx="12.664141"
     inkscape:cy="15.837142"
     inkscape:window-x="0"
     inkscape:window-y="0"
     inkscape:window-maximized="1"
     inkscape:current-layer="svg26">
    <inkscape:grid
       type="xygrid"
       id="grid857" />
    <inkscape:grid
       type="xygrid"
       id="grid859"
       spacingx="0.5"
       spacingy="0.5"
       empspacing="10"
       dotted="true" />
  </sodipodi:namedview>
  <path
     style="fill:#000000;stroke:#000000;stroke-width:2;stroke-linecap:butt;stroke-linejoin:miter;stroke-opacity:1;opacity:0.7;stroke-miterlimit:4;stroke-dasharray:none"
     d="M 2,7 C 2,5 3,5 5,5 h 22 c 2,0 3,0 3,2 v 18 c 0,2 -1,2 -3,2 H 5 C 3,27 2,27 2,25 Z"
     id="path865"
     sodipodi:nodetypes="ccccccccc" />
  <path
     style="fill:#ffffff;stroke:none;stroke-width:1px;stroke-linecap:butt;stroke-linejoin:miter;stroke-opacity:1"
     d="M 2,7 C 2,5 3,5 5,5 h 22 c 2,0 3,0 3,2 v 18 c 0,2 -1,2 -3,2 H 5 C 3,27 2,27 2,25 Z"
     id="path863"
     sodipodi:nodetypes="ccccccccc" />
  <g
     fill="#00ff00"
     id="g24">
    <path
       d="M 8,11 H 24 V 21 H 8 Z"
       id="path6"
       sodipodi:nodetypes="ccccc" />
    <path
       d="M 4,11.24265 8.24264,7 H 4 Z"
       fill-rule="evenodd"
       id="path8"
       sodipodi:nodetypes="cccc" />
    <path
       d="m10.53563 14.949843 1.41422-1.414214-6.36398-6.3639818-1.41422 1.4142135z"
       id="path10" />
    <path
       d="M 28,11.24265 23.75736,7 H 28 Z"
       fill-rule="evenodd"
       id="path12"
       sodipodi:nodetypes="cccc" />
    <path
       d="m21.46452 14.949861-1.41422-1.414214 6.36398-6.36398 1.41422 1.4142135z"
       id="path14" />
    <path
       d="M 28,20.75735 23.75736,25 H 28 Z"
       fill-rule="evenodd"
       id="path16"
       sodipodi:nodetypes="cccc" />
    <path
       d="m21.46455 17.050346-1.41421 1.414214 6.36398 6.363982 1.41421-1.414214z"
       id="path18" />
    <path
       d="M 4,20.75735 8.24264,25 H 4 Z"
       fill-rule="evenodd"
       id="path20"
       sodipodi:nodetypes="cccc" />
    <path
       d="m10.53566 17.050333 1.41422 1.414214-6.36398 6.36398-1.41422-1.414214z"
       id="path22" />
  </g>
</svg>
