<?xml version="1.0" encoding="UTF-8" standalone="no"?>
<svg
   xmlns:dc="http://purl.org/dc/elements/1.1/"
   xmlns:cc="http://creativecommons.org/ns#"
   xmlns:rdf="http://www.w3.org/1999/02/22-rdf-syntax-ns#"
   xmlns:svg="http://www.w3.org/2000/svg"
   xmlns="http://www.w3.org/2000/svg"
   xmlns:sodipodi="http://sodipodi.sourceforge.net/DTD/sodipodi-0.dtd"
   xmlns:inkscape="http://www.inkscape.org/namespaces/inkscape"
   height="32"
   viewBox="0 0 32 32"
   width="32"
   version="1.1"
   id="svg92"
   sodipodi:docname="transition-tile-flip.svg"
   inkscape:version="1.0.1 (3bc2e813f5, 2020-09-07)">
  <metadata
     id="metadata98">
    <rdf:RDF>
      <cc:Work
         rdf:about="">
        <dc:format>image/svg+xml</dc:format>
        <dc:type
           rdf:resource="http://purl.org/dc/dcmitype/StillImage" />
      </cc:Work>
    </rdf:RDF>
  </metadata>
  <defs
     id="defs96" />
  <sodipodi:namedview
     pagecolor="#ffffff"
     bordercolor="#666666"
     borderopacity="1"
     objecttolerance="10"
     gridtolerance="10"
     guidetolerance="10"
     inkscape:pageopacity="0"
     inkscape:pageshadow="2"
     inkscape:window-width="1920"
     inkscape:window-height="1011"
     id="namedview94"
     showgrid="false"
     inkscape:zoom="25.25"
     inkscape:cx="15.198136"
     inkscape:cy="16.936729"
     inkscape:window-x="0"
     inkscape:window-y="0"
     inkscape:window-maximized="1"
     inkscape:current-layer="svg92" />
  <path
     style="opacity:0.7;fill:#000000;stroke:#000000;stroke-width:2.0004;stroke-linecap:butt;stroke-linejoin:miter;stroke-miterlimit:4;stroke-dasharray:none;stroke-opacity:1"
     d="m 2.000201,6.9962721 c 0,-2.0008287 0.998981,-2.0008287 3.00102,-2.0008287 h 21.999597 c 1.997961,0 2.998981,0 2.998981,2.0008287 V 25.003729 c 0,2.000828 -0.998981,2.000828 -2.998981,2.000828 H 5.001221 c -1.997962,0 -3.00102,0 -3.00102,-2.000828 z"
     id="path865"
     sodipodi:nodetypes="ccccccccc" />
  <path
     style="fill:#ffffff;stroke:none;stroke-width:1.0002px;stroke-linecap:butt;stroke-linejoin:miter;stroke-opacity:1"
     d="m 2.000201,6.9962721 c 0,-2.0008287 0.998981,-2.0008287 3.00102,-2.0008287 h 21.999597 c 1.997961,0 2.998981,0 2.998981,2.0008287 V 25.003729 c 0,2.000828 -0.998981,2.000828 -2.998981,2.000828 H 5.001221 c -1.997962,0 -3.00102,0 -3.00102,-2.000828 z"
     id="path863"
     sodipodi:nodetypes="ccccccccc" />
  <path
     id="path4"
     style="fill:#77216F"
     d="M 5.0019531 4.9960938 C 2.9999141 4.9960937 2 4.995265 2 6.9960938 L 2 7.828125 L 5.9140625 7.828125 L 5.9785156 4.9960938 L 5.0019531 4.9960938 z M 6.1113281 4.9960938 L 6.1992188 7.9140625 L 10.085938 7.8574219 L 10.130859 4.9960938 L 6.1113281 4.9960938 z M 10.365234 4.9960938 L 10.34375 7.8574219 L 14 8 L 14.089844 4.9960938 L 10.365234 4.9960938 z M 14.382812 4.9960938 L 14.199219 7.9707031 L 17.384766 7.8574219 L 17.841797 4.9960938 L 14.382812 4.9960938 z M 18.289062 4.9960938 L 17.642578 7.8574219 L 20.771484 7.5566406 L 21.382812 4.9960938 L 18.289062 4.9960938 z M 21.701172 4.9960938 L 21.085938 7.4726562 L 24 7 L 24.457031 4.9960938 L 21.701172 4.9960938 z M 24.699219 5 L 24.257812 6.8730469 L 27 6 L 27.328125 5.0039062 C 27.269584 5.003662 27.224552 5.0000611 27.164062 5 L 24.699219 5 z M 26.873047 6.4355469 L 24.1875 7.2070312 L 23.386719 9.8789062 L 25.873047 8.7207031 L 26.873047 6.4355469 z M 23.884766 7.2851562 L 20.970703 7.8574219 L 20.142578 10.785156 L 23 10 L 23.884766 7.2851562 z M 20.714844 7.828125 L 17.599609 8.171875 L 17.115234 11.443359 L 19.884766 10.884766 L 20.714844 7.828125 z M 6.2285156 8.0292969 L 6.2578125 11.685547 L 9.9707031 11.742188 L 10.029297 8.1425781 L 6.2285156 8.0292969 z M 2 8.0566406 L 2.0566406 11.771484 L 5.9433594 11.714844 L 6 8.0859375 L 2 8.0566406 z M 10.501953 8.1425781 L 10.371094 11.742188 L 13.527344 11.742188 L 13.857422 8.1425781 L 10.501953 8.1425781 z M 17.300781 8.171875 L 14.228516 8.2714844 L 13.871094 11.685547 L 16.800781 11.5 L 17.300781 8.171875 z M 25.730469 9.1777344 L 23.244141 10.234375 L 22.1875 12.677734 L 24.671875 11.378906 L 25.730469 9.1777344 z M 22.828125 10.371094 L 20.142578 11.142578 L 19.34375 13.814453 L 21.828125 12.714844 L 22.828125 10.371094 z M 19.800781 11.199219 L 17.085938 11.742188 L 16.257812 14.927734 L 19 14 L 19.800781 11.199219 z M 16.742188 11.742188 L 13.828125 12.056641 L 12.943359 15.556641 L 16 15 L 16.742188 11.742188 z M 24.501953 11.863281 L 22.044922 13.064453 L 21.158203 15.421875 L 23.472656 14.207031 L 24.501953 11.863281 z M 2 12 L 2 15.857422 L 5.8847656 15.828125 L 6 12 L 2 12 z M 10 12 L 6.3300781 12.056641 L 6.171875 15.914062 L 9.4707031 15.857422 L 10 12 z M 13.5 12.085938 L 10.34375 12.099609 L 9.8144531 15.828125 L 12.771484 15.642578 L 13.5 12.085938 z M 21.685547 13.171875 L 19.199219 14.171875 L 18.314453 16.529297 L 20.742188 15.513672 L 21.685547 13.171875 z M 18.800781 14.314453 L 16.199219 15.171875 L 15.34375 17.814453 L 17.943359 16.65625 L 18.800781 14.314453 z M 23.15625 14.75 L 20.841797 15.892578 L 19.869141 17.994141 L 22.470703 16.693359 L 23.15625 14.75 z M 15.857422 15.285156 L 12.914062 15.857422 L 12.142578 18.84375 L 15 18 L 15.857422 15.285156 z M 12.65625 15.884766 L 9.7714844 16.171875 L 9.1152344 19.357422 L 11.943359 18.857422 L 12.65625 15.884766 z M 20.486328 16 L 18 17 L 17.115234 19.357422 L 19.427734 18.142578 L 20.486328 16 z M 2.0722656 16.085938 L 2.0292969 19.943359 L 5.4414062 19.884766 L 5.9433594 16.142578 L 2.0722656 16.085938 z M 9.4707031 16.171875 L 6.2578125 16.242188 L 5.6992188 19.914062 L 8.8007812 19.5 L 9.4707031 16.171875 z M 22.242188 17.150391 L 19.785156 18.378906 L 18.957031 20.392578 L 21.556641 19.09375 L 22.242188 17.150391 z M 17.685547 17.171875 L 15.199219 18.171875 L 14.314453 20.529297 L 16.742188 19.427734 L 17.685547 17.171875 z M 14.828125 18.371094 L 12.199219 19.171875 L 11.34375 21.814453 L 13.828125 20.65625 L 14.828125 18.371094 z M 19.339844 18.542969 L 17.025391 19.6875 L 16.226562 21.728516 L 18.654297 20.486328 L 19.339844 18.542969 z M 11.857422 19.228516 L 9 19.714844 L 8.2578125 22.728516 L 11 22 L 11.857422 19.228516 z M 16.619141 19.779297 L 14.248047 20.865234 L 13.361328 23.25 L 15.791016 21.951172 L 16.619141 19.779297 z M 8.65625 19.800781 L 5.7421875 20.199219 L 5.1425781 23.529297 L 8 22.771484 L 8.65625 19.800781 z M 5.4433594 20.257812 L 2.0566406 20.300781 L 2 20.677734 L 2 23.923828 L 4.8007812 23.5 L 5.4433594 20.257812 z M 13.761719 21.089844 L 11.361328 22.089844 L 10.503906 24.734375 L 12.933594 23.433594 L 13.761719 21.089844 z M 10.933594 22.292969 L 8.1621094 23.121094 L 7.3046875 25.964844 L 10.162109 24.806641 L 10.933594 22.292969 z M 7.9433594 23.142578 L 5.0566406 23.857422 L 4.2578125 26.871094 L 7 26 L 7.9433594 23.142578 z M 4.7128906 23.828125 L 2 24.300781 L 2 25.003906 C 2 26.624371 2.692359 26.921907 4.0039062 26.980469 L 4.7128906 23.828125 z " />
</svg>
