<?xml version="1.0" encoding="UTF-8" standalone="no"?>
<svg
   xmlns:dc="http://purl.org/dc/elements/1.1/"
   xmlns:cc="http://creativecommons.org/ns#"
   xmlns:rdf="http://www.w3.org/1999/02/22-rdf-syntax-ns#"
   xmlns:svg="http://www.w3.org/2000/svg"
   xmlns="http://www.w3.org/2000/svg"
   xmlns:sodipodi="http://sodipodi.sourceforge.net/DTD/sodipodi-0.dtd"
   xmlns:inkscape="http://www.inkscape.org/namespaces/inkscape"
   height="32"
   viewBox="0 0 32 32"
   width="32"
   version="1.1"
   id="svg8"
   sodipodi:docname="transition-fall.svg"
   inkscape:version="1.0.1 (3bc2e813f5, 2020-09-07)">
  <metadata
     id="metadata14">
    <rdf:RDF>
      <cc:Work
         rdf:about="">
        <dc:format>image/svg+xml</dc:format>
        <dc:type
           rdf:resource="http://purl.org/dc/dcmitype/StillImage" />
      </cc:Work>
    </rdf:RDF>
  </metadata>
  <defs
     id="defs12">
    <inkscape:perspective
       sodipodi:type="inkscape:persp3d"
       inkscape:vp_x="0 : 16 : 1"
       inkscape:vp_y="0 : 1000 : 0"
       inkscape:vp_z="32 : 16 : 1"
       inkscape:persp3d-origin="16 : 10.666667 : 1"
       id="perspective841" />
  </defs>
  <sodipodi:namedview
     pagecolor="#ffffff"
     bordercolor="#666666"
     borderopacity="1"
     objecttolerance="10"
     gridtolerance="10"
     guidetolerance="10"
     inkscape:pageopacity="0"
     inkscape:pageshadow="2"
     inkscape:window-width="1920"
     inkscape:window-height="1011"
     id="namedview10"
     showgrid="true"
     inkscape:zoom="17.854446"
     inkscape:cx="13.463636"
     inkscape:cy="20.157071"
     inkscape:window-x="0"
     inkscape:window-y="0"
     inkscape:window-maximized="1"
     inkscape:current-layer="svg8">
    <inkscape:grid
       type="xygrid"
       id="grid839" />
  </sodipodi:namedview>
  <path
     d="m 5,2 h 22 c 2,0 3,0 3,2 V 18 H 2.00001 L 2,4 C 2,2 3,2 5,2 Z"
     fill="#00ff00"
     id="path4"
     sodipodi:nodetypes="ccccccc" />
  <path
     style="fill:#000000;stroke:#000000;stroke-width:2;stroke-linecap:butt;stroke-linejoin:miter;stroke-opacity:1;opacity:0.7;stroke-miterlimit:4;stroke-dasharray:none"
     d="m 2,18 c 0,-2 1,-2 3,-2 h 22 c 2,0 3,0 3,2 l -2,11 c -0.357771,1.96774 -1,2 -3,2 H 7 C 5,31 4.3577709,30.96774 4,29 Z"
     id="path861"
     sodipodi:nodetypes="ccccssssc" />
  <path
     style="fill:#ffffff;stroke:none;stroke-width:1px;stroke-linecap:butt;stroke-linejoin:miter;stroke-opacity:1"
     d="m 2,18 c 0,-2 1,-2 3,-2 h 22 c 2,0 3,0 3,2 l -2,11 c -0.357771,1.96774 -1,2 -3,2 H 7 C 5,31 4.3577709,30.96774 4,29 Z"
     id="path859"
     sodipodi:nodetypes="ccccssssc" />
  <path
     d="m14 16v6h-3l5 5 5-5h-3v-6z"
     fill="#3a3a38"
     fill-rule="evenodd"
     id="path6" />
</svg>
