<?xml version="1.0" encoding="UTF-8" standalone="no"?>
<svg
   xmlns:dc="http://purl.org/dc/elements/1.1/"
   xmlns:cc="http://creativecommons.org/ns#"
   xmlns:rdf="http://www.w3.org/1999/02/22-rdf-syntax-ns#"
   xmlns:svg="http://www.w3.org/2000/svg"
   xmlns="http://www.w3.org/2000/svg"
   xmlns:sodipodi="http://sodipodi.sourceforge.net/DTD/sodipodi-0.dtd"
   xmlns:inkscape="http://www.inkscape.org/namespaces/inkscape"
   height="32"
   viewBox="0 0 32 32"
   width="32"
   version="1.1"
   id="svg14"
   sodipodi:docname="transition-push.svg"
   inkscape:version="1.0.1 (3bc2e813f5, 2020-09-07)">
  <metadata
     id="metadata20">
    <rdf:RDF>
      <cc:Work
         rdf:about="">
        <dc:format>image/svg+xml</dc:format>
        <dc:type
           rdf:resource="http://purl.org/dc/dcmitype/StillImage" />
      </cc:Work>
    </rdf:RDF>
  </metadata>
  <defs
     id="defs18" />
  <sodipodi:namedview
     pagecolor="#ffffff"
     bordercolor="#666666"
     borderopacity="1"
     objecttolerance="10"
     gridtolerance="10"
     guidetolerance="10"
     inkscape:pageopacity="0"
     inkscape:pageshadow="2"
     inkscape:window-width="1920"
     inkscape:window-height="1011"
     id="namedview16"
     showgrid="true"
     inkscape:zoom="17.854446"
     inkscape:cx="13.768208"
     inkscape:cy="16.886194"
     inkscape:window-x="0"
     inkscape:window-y="0"
     inkscape:window-maximized="1"
     inkscape:current-layer="svg14">
    <inkscape:grid
       type="xygrid"
       id="grid875" />
  </sodipodi:namedview>
  <path
     style="opacity:0.7;fill:#000000;stroke:#000000;stroke-width:2;stroke-linecap:butt;stroke-linejoin:miter;stroke-miterlimit:4;stroke-dasharray:none;stroke-opacity:1"
     d="m 2.0000197,24.99997 c 0,2 1,2 3,2 H 27.00002 c 2,0 3,0 3,-2 v -18 c 0,-2.0000004 -1,-2.0000004 -3,-2.0000004 H 5.0000197 c -2,0 -3,0 -3,2.0000004 z"
     id="path865"
     sodipodi:nodetypes="ccccccccc" />
  <path
     style="fill:#ffffff;stroke:none;stroke-width:1px;stroke-linecap:butt;stroke-linejoin:miter;stroke-opacity:1"
     d="m 2.0000197,24.99997 c 0,2 1,2 3,2 H 27.00002 c 2,0 3,0 3,-2 v -18 c 0,-2.0000004 -1,-2.0000004 -3,-2.0000004 H 5.0000197 c -2,0 -3,0 -3,2.0000004 z"
     id="path863"
     sodipodi:nodetypes="ccccccccc" />
  <path
     id="path877"
     style="fill:#00ff00"
     d="m 5.0000197,26.99997 c -2,0 -3,0 -3,-2 v -10 H 30.00002 v 10 c 0,2 -1,2 -3,2 z" />
  <path
     style="fill:#00ff00"
     d="m 2.0000197,30.99997 v -2 H 30.00002 v 2 z"
     id="path6" />
  <path
     style="fill:#00ff00"
     d="m 11.00002,11.99997 h 10 l -5,-5 z"
     id="path8" />
  <path
     style="fill:#00ff00"
     d="m 14,19 h 4 V 9.99997 h -4 z"
     id="path10" />
</svg>
