<?xml version="1.0" encoding="UTF-8" standalone="no"?>
<svg
   xmlns:dc="http://purl.org/dc/elements/1.1/"
   xmlns:cc="http://creativecommons.org/ns#"
   xmlns:rdf="http://www.w3.org/1999/02/22-rdf-syntax-ns#"
   xmlns:svg="http://www.w3.org/2000/svg"
   xmlns="http://www.w3.org/2000/svg"
   xmlns:sodipodi="http://sodipodi.sourceforge.net/DTD/sodipodi-0.dtd"
   xmlns:inkscape="http://www.inkscape.org/namespaces/inkscape"
   height="32"
   viewBox="0 0 32 32"
   width="32"
   version="1.1"
   id="svg10"
   sodipodi:docname="transition-split.svg"
   inkscape:version="1.0.1 (3bc2e813f5, 2020-09-07)">
  <metadata
     id="metadata16">
    <rdf:RDF>
      <cc:Work
         rdf:about="">
        <dc:format>image/svg+xml</dc:format>
        <dc:type
           rdf:resource="http://purl.org/dc/dcmitype/StillImage" />
      </cc:Work>
    </rdf:RDF>
  </metadata>
  <defs
     id="defs14" />
  <sodipodi:namedview
     pagecolor="#ffffff"
     bordercolor="#666666"
     borderopacity="1"
     objecttolerance="10"
     gridtolerance="10"
     guidetolerance="10"
     inkscape:pageopacity="0"
     inkscape:pageshadow="2"
     inkscape:window-width="1920"
     inkscape:window-height="1011"
     id="namedview12"
     showgrid="false"
     inkscape:zoom="25.25"
     inkscape:cx="16"
     inkscape:cy="16"
     inkscape:window-x="0"
     inkscape:window-y="0"
     inkscape:window-maximized="1"
     inkscape:current-layer="svg10" />
  <path
     style="opacity:0.7;fill:#000000;stroke:#000000;stroke-width:2.0004;stroke-linecap:butt;stroke-linejoin:miter;stroke-miterlimit:4;stroke-dasharray:none;stroke-opacity:1"
     d="m 2.000201,6.9962721 c 0,-2.0008287 0.998981,-2.0008287 3.00102,-2.0008287 h 21.999597 c 1.997961,0 2.998981,0 2.998981,2.0008287 V 25.003729 c 0,2.000828 -0.998981,2.000828 -2.998981,2.000828 H 5.001221 c -1.997962,0 -3.00102,0 -3.00102,-2.000828 z"
     id="path865"
     sodipodi:nodetypes="ccccccccc" />
  <path
     style="fill:#ffffff;stroke:none;stroke-width:1.0002px;stroke-linecap:butt;stroke-linejoin:miter;stroke-opacity:1"
     d="m 2.000201,6.9962721 c 0,-2.0008287 0.998981,-2.0008287 3.00102,-2.0008287 h 21.999597 c 1.997961,0 2.998981,0 2.998981,2.0008287 V 25.003729 c 0,2.000828 -0.998981,2.000828 -2.998981,2.000828 H 5.001221 c -1.997962,0 -3.00102,0 -3.00102,-2.000828 z"
     id="path863"
     sodipodi:nodetypes="ccccccccc" />
  <path
     id="path4"
     style="fill:#00ff00;fill-opacity:1"
     d="M 5.0019531 4.9960938 C 2.9999141 4.9960937 2 4.995265 2 6.9960938 L 2 8 L 14 8 L 14 10 L 11 10 L 16 15 L 21 10 L 18 10 L 18 8 L 30 8 L 30 6.9960938 C 30 4.9952651 28.997961 4.9960938 27 4.9960938 L 5.0019531 4.9960938 z M 16 17 L 11 22 L 14 22 L 14 24 L 2 24 L 2 25.003906 C 2 26.942208 2.962611 26.998107 4.8378906 27 L 27.164062 27 C 29.040956 26.998107 30 26.942208 30 25.003906 L 30 24 L 18 24 L 18 22 L 21 22 L 16 17 z " />
</svg>
