<?xml version="1.0" encoding="UTF-8" standalone="no"?>
<svg
   xmlns:dc="http://purl.org/dc/elements/1.1/"
   xmlns:cc="http://creativecommons.org/ns#"
   xmlns:rdf="http://www.w3.org/1999/02/22-rdf-syntax-ns#"
   xmlns:svg="http://www.w3.org/2000/svg"
   xmlns="http://www.w3.org/2000/svg"
   xmlns:sodipodi="http://sodipodi.sourceforge.net/DTD/sodipodi-0.dtd"
   xmlns:inkscape="http://www.inkscape.org/namespaces/inkscape"
   height="32"
   viewBox="0 0 32 32"
   width="32"
   version="1.1"
   id="svg12"
   sodipodi:docname="transition-iris.svg"
   inkscape:version="1.0.1 (3bc2e813f5, 2020-09-07)">
  <metadata
     id="metadata18">
    <rdf:RDF>
      <cc:Work
         rdf:about="">
        <dc:format>image/svg+xml</dc:format>
        <dc:type
           rdf:resource="http://purl.org/dc/dcmitype/StillImage" />
      </cc:Work>
    </rdf:RDF>
  </metadata>
  <defs
     id="defs16" />
  <sodipodi:namedview
     pagecolor="#ffffff"
     bordercolor="#666666"
     borderopacity="1"
     objecttolerance="10"
     gridtolerance="10"
     guidetolerance="10"
     inkscape:pageopacity="0"
     inkscape:pageshadow="2"
     inkscape:window-width="1920"
     inkscape:window-height="1011"
     id="namedview14"
     showgrid="false"
     inkscape:zoom="8.9272231"
     inkscape:cx="22.026915"
     inkscape:cy="10.000948"
     inkscape:window-x="0"
     inkscape:window-y="0"
     inkscape:window-maximized="1"
     inkscape:current-layer="svg12" />
  <path
     style="opacity:0.7;fill:#000000;stroke:#000000;stroke-width:2.0004;stroke-linecap:butt;stroke-linejoin:miter;stroke-miterlimit:4;stroke-dasharray:none;stroke-opacity:1"
     d="m 2.000201,6.9962718 c 0,-2.0008287 0.9989808,-2.0008287 3.0010199,-2.0008287 H 27.000818 c 1.997961,0 2.998981,0 2.998981,2.0008287 V 25.00373 c 0,2.000828 -0.998981,2.000828 -2.998981,2.000828 H 5.0012209 c -1.9979616,0 -3.0010199,0 -3.0010199,-2.000828 z"
     id="path865"
     sodipodi:nodetypes="ccccccccc" />
  <path
     style="fill:#ffffff;stroke:none;stroke-width:1.0002px;stroke-linecap:butt;stroke-linejoin:miter;stroke-opacity:1"
     d="m 2.000201,6.9962718 c 0,-2.0008287 0.9989808,-2.0008287 3.0010199,-2.0008287 H 27.000818 c 1.997961,0 2.998981,0 2.998981,2.0008287 V 25.00373 c 0,2.000828 -0.998981,2.000828 -2.998981,2.000828 H 5.0012209 c -1.9979616,0 -3.0010199,0 -3.0010199,-2.000828 z"
     id="path863"
     sodipodi:nodetypes="ccccccccc" />
  <path
     id="path6"
     style="fill:#77216F;opacity:0.4"
     d="M 4.8378906 5 C 2.9589633 5.0018873 2 5.0576981 2 6.9960938 L 2 10 L 18.308594 10 L 15.421875 5 L 4.8378906 5 z M 16.576172 5 C 16.576172 5 22.362709 15.007953 22.349609 15.001953 L 28.111328 5.0234375 C 27.827015 5.0072599 27.513322 5.0003526 27.164062 5 L 16.576172 5 z M 29.15625 5.2128906 L 20.041016 21 L 30 21 L 30 6.9960938 C 30 5.9399036 29.713525 5.4483162 29.15625 5.2128906 z M 2 11 L 2 25.003906 C 2 26.058705 2.2874053 26.549348 2.84375 26.785156 L 11.958984 11 L 2 11 z M 9.6503906 16.998047 L 3.8886719 26.976562 C 4.1735595 26.99283 4.4878888 26.999647 4.8378906 27 L 15.423828 27 L 9.6503906 16.998047 z M 13.691406 22 L 16.578125 27 L 27.164062 27 C 29.040956 26.998107 30 26.942208 30 25.003906 L 30 22 L 13.691406 22 z " />
  <path
     d="m 15.42188,5 2.88671,5 H 2 v 1 h 9.95898 L 2.7207,27 H 3.875 L 9.65039,16.99805 15.42383,27 h 1.1543 L 13.69141,22 H 30 V 21 H 20.04102 L 29.2793,5 H 28.125 L 22.34961,15.00195 C 22.36271,15.00795 16.57617,5 16.57617,5 Z m -2.3086,6 h 5.77344 l 2.88672,5 -2.88672,5 h -5.77344 l -2.88672,-5 z"
     id="path8"
     style="fill:#77216F" />
</svg>
