<?xml version="1.0" encoding="UTF-8" standalone="no"?>
<svg
   xmlns:dc="http://purl.org/dc/elements/1.1/"
   xmlns:cc="http://creativecommons.org/ns#"
   xmlns:rdf="http://www.w3.org/1999/02/22-rdf-syntax-ns#"
   xmlns:svg="http://www.w3.org/2000/svg"
   xmlns="http://www.w3.org/2000/svg"
   xmlns:sodipodi="http://sodipodi.sourceforge.net/DTD/sodipodi-0.dtd"
   xmlns:inkscape="http://www.inkscape.org/namespaces/inkscape"
   height="32"
   viewBox="0 0 32 32"
   width="32"
   version="1.1"
   id="svg20"
   sodipodi:docname="transition-turning-helix.svg"
   inkscape:version="1.0.1 (3bc2e813f5, 2020-09-07)">
  <metadata
     id="metadata26">
    <rdf:RDF>
      <cc:Work
         rdf:about="">
        <dc:format>image/svg+xml</dc:format>
        <dc:type
           rdf:resource="http://purl.org/dc/dcmitype/StillImage" />
      </cc:Work>
    </rdf:RDF>
  </metadata>
  <defs
     id="defs24" />
  <sodipodi:namedview
     pagecolor="#ffffff"
     bordercolor="#666666"
     borderopacity="1"
     objecttolerance="10"
     gridtolerance="10"
     guidetolerance="10"
     inkscape:pageopacity="0"
     inkscape:pageshadow="2"
     inkscape:window-width="1920"
     inkscape:window-height="1011"
     id="namedview22"
     showgrid="false"
     inkscape:zoom="25.25"
     inkscape:cx="16"
     inkscape:cy="16"
     inkscape:window-x="0"
     inkscape:window-y="0"
     inkscape:window-maximized="1"
     inkscape:current-layer="svg20" />
  <path
     style="opacity:0.7;fill:#000000;stroke:#000000;stroke-width:2.0004;stroke-linecap:butt;stroke-linejoin:miter;stroke-miterlimit:4;stroke-dasharray:none;stroke-opacity:1"
     d="m 2.000201,6.996272 c 0,-2.0008287 0.99898,-2.0008287 3.0010195,-2.0008287 H 27.000818 c 1.997961,0 2.998981,0 2.998981,2.0008287 v 18.007457 c 0,2.000828 -0.998981,2.000828 -2.998981,2.000828 H 5.0012205 c -1.9979615,0 -3.0010195,0 -3.0010195,-2.000828 z"
     id="path865"
     sodipodi:nodetypes="ccccccccc" />
  <path
     style="fill:#ffffff;stroke:none;stroke-width:1.0002px;stroke-linecap:butt;stroke-linejoin:miter;stroke-opacity:1"
     d="m 2.000201,6.996272 c 0,-2.0008287 0.99898,-2.0008287 3.0010195,-2.0008287 H 27.000818 c 1.997961,0 2.998981,0 2.998981,2.0008287 v 18.007457 c 0,2.000828 -0.998981,2.000828 -2.998981,2.000828 H 5.0012205 c -1.9979615,0 -3.0010195,0 -3.0010195,-2.000828 z"
     id="path863"
     sodipodi:nodetypes="ccccccccc" />
  <path
     id="path4"
     style="fill:#77216F"
     d="M 5.0019531 4.9960938 C 2.9999136 4.9960937 2 4.995265 2 6.9960938 L 2 8 L 4 8.1425781 L 4 12 L 6 12.166016 L 6 16 L 8 16.199219 L 8 20 L 10 20.25 L 10 24 L 12 24.333984 L 12 26 L 16.015625 27.003906 L 20 27.003906 L 20 26 L 16 25 L 22 26 L 22 22 L 16 21 L 24 22 L 24 18 L 16 17 L 26 18 L 26 14 L 16 13 L 28 14 L 28 10 L 16 9 L 30 10 L 30 6.9960938 C 30 6.5717501 29.945481 6.2536719 29.855469 5.9902344 L 15.945312 4.9960938 L 5.0019531 4.9960938 z " />
</svg>
