<?xml version="1.0" encoding="UTF-8" standalone="no"?>
<svg
   xmlns:dc="http://purl.org/dc/elements/1.1/"
   xmlns:cc="http://creativecommons.org/ns#"
   xmlns:rdf="http://www.w3.org/1999/02/22-rdf-syntax-ns#"
   xmlns:svg="http://www.w3.org/2000/svg"
   xmlns="http://www.w3.org/2000/svg"
   xmlns:sodipodi="http://sodipodi.sourceforge.net/DTD/sodipodi-0.dtd"
   xmlns:inkscape="http://www.inkscape.org/namespaces/inkscape"
   height="32"
   viewBox="0 0 32 32"
   width="32"
   version="1.1"
   id="svg78"
   sodipodi:docname="transition-glitter.svg"
   inkscape:version="1.0.1 (3bc2e813f5, 2020-09-07)">
  <metadata
     id="metadata84">
    <rdf:RDF>
      <cc:Work
         rdf:about="">
        <dc:format>image/svg+xml</dc:format>
        <dc:type
           rdf:resource="http://purl.org/dc/dcmitype/StillImage" />
      </cc:Work>
    </rdf:RDF>
  </metadata>
  <defs
     id="defs82" />
  <sodipodi:namedview
     pagecolor="#ffffff"
     bordercolor="#666666"
     borderopacity="1"
     objecttolerance="10"
     gridtolerance="10"
     guidetolerance="10"
     inkscape:pageopacity="0"
     inkscape:pageshadow="2"
     inkscape:window-width="1920"
     inkscape:window-height="1011"
     id="namedview80"
     showgrid="true"
     inkscape:zoom="17.854446"
     inkscape:cx="21.003372"
     inkscape:cy="17.033483"
     inkscape:window-x="0"
     inkscape:window-y="0"
     inkscape:window-maximized="1"
     inkscape:current-layer="svg78">
    <inkscape:grid
       type="xygrid"
       id="grid953" />
  </sodipodi:namedview>
  <path
     style="opacity:0.7;fill:#000000;stroke:#000000;stroke-width:2.0004;stroke-linecap:butt;stroke-linejoin:miter;stroke-miterlimit:4;stroke-dasharray:none;stroke-opacity:1"
     d="m 2.000201,6.9962716 c 0,-2.0008287 0.998981,-2.0008287 3.00102,-2.0008287 h 21.999597 c 1.997961,0 2.998981,0 2.998981,2.0008287 V 25.00373 c 0,2.000828 -0.998981,2.000828 -2.998981,2.000828 H 5.001221 c -1.997962,0 -3.00102,0 -3.00102,-2.000828 z"
     id="path865"
     sodipodi:nodetypes="ccccccccc" />
  <path
     style="fill:#ffffff;stroke:none;stroke-width:1.0002px;stroke-linecap:butt;stroke-linejoin:miter;stroke-opacity:1"
     d="m 2.000201,6.9962716 c 0,-2.0008287 0.998981,-2.0008287 3.00102,-2.0008287 h 21.999597 c 1.997961,0 2.998981,0 2.998981,2.0008287 V 25.00373 c 0,2.000828 -0.998981,2.000828 -2.998981,2.000828 H 5.001221 c -1.997962,0 -3.00102,0 -3.00102,-2.000828 z"
     id="path863"
     sodipodi:nodetypes="ccccccccc" />
  <path
     id="path6"
     style="fill:#77216F;fill-rule:evenodd"
     d="M 8 5 L 6 6 L 4.0371094 5.0195312 C 4.0128288 5.0205325 3.9828224 5.0203145 3.9589844 5.0214844 L 2.1660156 5.9179688 C 2.0599437 6.1909867 2 6.5351855 2 6.9960938 L 2 8 L 2 12 L 2 14 L 2 18 L 2 20 L 2 24 L 2 25.003906 C 2 25.464814 2.0596605 25.809013 2.1660156 26.082031 L 3.9589844 26.978516 C 3.9834251 26.97972 4.0141581 26.979442 4.0390625 26.980469 L 6 26 L 8 27 L 10 26 L 12 27 L 14 26 L 16 27 L 18 26 L 20 27 L 22 26 L 24 27 L 26 26 L 26 24 L 28 23 L 28 21 L 26 20 L 24 21 L 24 23 L 22 24 L 20 23 L 20 21 L 22 20 L 22 18 L 20 17 L 20 15 L 22 14 L 24 15 L 26 14 L 26 12 L 24 11 L 22 12 L 20 11 L 18 12 L 16 11 L 16 9 L 18 8 L 18 6 L 16 5 L 14 6 L 12 5 L 10 6 L 8 5 z M 16 17 L 18 18 L 18 20 L 16 21 L 14 20 L 14 18 L 16 17 z " />
</svg>
