<svg viewBox="0 0 24 24" xmlns:xlink="http://www.w3.org/1999/xlink" xmlns="http://www.w3.org/2000/svg"><defs><linearGradient gradientTransform="translate(-320.5 -189)" xlink:href="#a" id="b" x1="328" y1="188" x2="336" y2="212" gradientUnits="userSpaceOnUse"/><linearGradient id="a"><stop style="stop-color:#f2f2f2;stop-opacity:1" offset="0"/><stop style="stop-color:#fff;stop-opacity:1" offset="1"/></linearGradient></defs><path style="color:#000;font-style:normal;font-variant:normal;font-weight:400;font-stretch:normal;font-size:medium;line-height:normal;font-family:sans-serif;font-variant-ligatures:normal;font-variant-position:normal;font-variant-caps:normal;font-variant-numeric:normal;font-variant-alternates:normal;font-feature-settings:normal;text-indent:0;text-align:start;text-decoration:none;text-decoration-line:none;text-decoration-style:solid;text-decoration-color:#000;letter-spacing:normal;word-spacing:normal;text-transform:none;writing-mode:lr-tb;direction:ltr;text-orientation:mixed;dominant-baseline:auto;baseline-shift:baseline;text-anchor:start;white-space:normal;shape-padding:0;clip-rule:nonzero;display:inline;overflow:visible;visibility:visible;opacity:1;isolation:auto;mix-blend-mode:normal;color-interpolation:sRGB;color-interpolation-filters:linearRGB;solid-color:#000;solid-opacity:1;vector-effect:none;fill:#2e851b;fill-opacity:1;fill-rule:nonzero;stroke:#2e851b;stroke-width:2;stroke-linecap:butt;stroke-linejoin:miter;stroke-miterlimit:4;stroke-dasharray:none;stroke-dashoffset:0;stroke-opacity:1;marker:none;color-rendering:auto;image-rendering:auto;shape-rendering:auto;text-rendering:auto;enable-background:accumulate" d="M8.865 3c-1.088 0-1.9.031-2.459.125-.549.092-.797.229-.931.363-.135.134-.267.377-.358.924C5.025 4.968 4.995 5.78 5 6.87V17.131c-.005 1.09.025 1.902.117 2.457.091.547.223.79.358.924.134.134.382.27.931.363.559.094 1.37.125 2.46.125h6.269c1.088 0 1.9-.031 2.459-.125.549-.092.797-.229.931-.363.135-.134.267-.377.358-.924.092-.556.122-1.367.117-2.457V6.869c.005-1.09-.025-1.902-.117-2.457-.091-.547-.223-.79-.358-.924-.134-.134-.382-.27-.931-.363-.559-.094-1.37-.125-2.46-.125H12z"/><path style="color:#000;font-style:normal;font-variant:normal;font-weight:400;font-stretch:normal;font-size:medium;line-height:normal;font-family:sans-serif;font-variant-ligatures:normal;font-variant-position:normal;font-variant-caps:normal;font-variant-numeric:normal;font-variant-alternates:normal;font-feature-settings:normal;text-indent:0;text-align:start;text-decoration:none;text-decoration-line:none;text-decoration-style:solid;text-decoration-color:#000;letter-spacing:normal;word-spacing:normal;text-transform:none;writing-mode:lr-tb;direction:ltr;text-orientation:mixed;dominant-baseline:auto;baseline-shift:baseline;text-anchor:start;white-space:normal;shape-padding:0;clip-rule:nonzero;display:inline;overflow:visible;visibility:visible;opacity:1;isolation:auto;mix-blend-mode:normal;color-interpolation:sRGB;color-interpolation-filters:linearRGB;solid-color:#000;solid-opacity:1;vector-effect:none;fill:url(#b);fill-opacity:1;fill-rule:nonzero;stroke:none;stroke-width:3;stroke-linecap:butt;stroke-linejoin:miter;stroke-miterlimit:4;stroke-dasharray:none;stroke-dashoffset:0;stroke-opacity:1;marker:none;color-rendering:auto;image-rendering:auto;shape-rendering:auto;text-rendering:auto;enable-background:accumulate" d="M8.866 3c-1.089 0-1.9.031-2.46.125-.548.092-.796.229-.931.363-.134.134-.266.377-.357.924C5.025 4.968 4.995 5.78 5 6.87V17.131c-.005 1.09.025 1.902.118 2.457.09.547.223.79.357.924.135.134.383.271.932.363.558.094 1.37.125 2.459.125h6.27c1.088 0 1.9-.031 2.456-.125.547-.092.788-.227.922-.361.134-.135.27-.377.362-.926.093-.558.105-1.372.125-2.463V8L12 3z"/><g style="clip-rule:evenodd;display:inline;fill-rule:evenodd;enable-background:new"><path d="M349 191h-8a1 1 0 0 0-1 1v1a1 1 0 0 0 1 1h8a1 1 0 0 0 1-1v-1a1 1 0 0 0-1-1z" style="fill:#92e285;fill-rule:nonzero" transform="translate(-333 -182)"/></g><g style="clip-rule:evenodd;display:inline;fill-rule:evenodd;enable-background:new"><path d="M350 194h-10v5a1 1 0 0 0 1 1h8a1 1 0 0 0 1-1z" style="fill:#ccf4c6;fill-rule:nonzero" transform="translate(-333 -182)"/></g><g style="clip-rule:evenodd;display:inline;fill-rule:evenodd;enable-background:new"><path d="M341 191a1 1 0 0 0-1 1v7a1 1 0 0 0 1 1h8a1 1 0 0 0 1-1v-7a1 1 0 0 0-1-1zm0 1h2v1h-2zm3 0h2v1h-2zm3 0h2v1h-2zm-6 2h2v1h-2zm3 0h2v1h-2zm3 0h2v1h-2zm-6 2h2v1h-2zm3 0h2v1h-2zm3 0h2v1h-2zm-6 2h2v1h-2zm3 0h2v1h-2zm3 0h2v1h-2z" style="fill:#148003;fill-rule:nonzero" transform="translate(-333 -182)"/></g><g style="clip-rule:evenodd;display:inline;fill-rule:evenodd;enable-background:new"><path d="M351 195h-5a1 1 0 0 0-1 1v5a1 1 0 0 0 1 1h5a1 1 0 0 0 1-1v-5a1 1 0 0 0-1-1z" style="fill:#148003;fill-rule:nonzero" transform="translate(-334 -182)"/></g><g style="clip-rule:evenodd;display:inline;fill-rule:evenodd;enable-background:new"><path style="fill:#ccc;fill-rule:nonzero" d="M346 196h5v5h-5z" transform="translate(-334 -182)"/></g><g style="clip-rule:evenodd;display:inline;fill-rule:evenodd;enable-background:new"><path style="fill:#ccf4c6;fill-rule:nonzero" d="M346 196h5v5h-5z" transform="translate(-334 -182)"/></g><g style="clip-rule:evenodd;display:inline;fill-rule:evenodd;enable-background:new"><path d="M348 201v-2.5a.5.5 0 0 0-1 0v2.5z" style="fill:#41b02f;fill-rule:nonzero" transform="translate(-334 -182)"/></g><g style="clip-rule:evenodd;display:inline;fill-rule:evenodd;enable-background:new"><path d="M349 201v-3.5a.5.5 0 0 0-1 0v3.5z" style="fill:#239310;fill-rule:nonzero" transform="translate(-334 -182)"/></g><g style="clip-rule:evenodd;display:inline;fill-rule:evenodd;enable-background:new"><path d="M350 201v-1.5a.5.5 0 0 0-1 0v1.5z" style="fill:#41b02f;fill-rule:nonzero" transform="translate(-334 -182)"/></g></svg>