<svg viewBox="0 0 48 48" xmlns:xlink="http://www.w3.org/1999/xlink" xmlns="http://www.w3.org/2000/svg"><defs><linearGradient id="g" x1="0" y1="0" x2="1" y2="0" gradientUnits="userSpaceOnUse" gradientTransform="matrix(0 -12.8947 12.8947 0 751.658 85.03)"><stop offset="0" style="stop-color:#f0bc6f;stop-opacity:1"/><stop offset="1" style="stop-color:#f9eab5;stop-opacity:1"/></linearGradient><linearGradient id="i" x1="0" y1="0" x2="1" y2="0" gradientUnits="userSpaceOnUse" gradientTransform="matrix(0 -12.783 12.783 0 755.585 92.501)"><stop offset="0" style="stop-color:#f5ce53;stop-opacity:1"/><stop offset="1" style="stop-color:#fde9a9;stop-opacity:1"/></linearGradient><linearGradient xlink:href="#a" id="e" gradientUnits="userSpaceOnUse" gradientTransform="matrix(0 -.11586 .11642 0 -12.474 52.636)" x1="52.966" y1="386.308" x2="437.064" y2="242.267"/><linearGradient id="a"><stop offset="0" style="stop-color:#edaa00;stop-opacity:1"/><stop offset="1" style="stop-color:#cf8b2c;stop-opacity:1"/></linearGradient><linearGradient xlink:href="#b" id="f" gradientUnits="userSpaceOnUse" gradientTransform="matrix(0 -.10298 .10069 0 -7.545 49.455)" x1="459.034" y1="419.233" x2="35.31" y2="207.365"/><linearGradient id="b"><stop style="stop-color:#f2f2f2;stop-opacity:1" offset="0"/><stop style="stop-color:#f9f9f9;stop-opacity:1" offset="1"/></linearGradient><linearGradient xlink:href="#c" id="h" x1="349.993" y1="82.497" x2="349.993" y2="99.184" gradientUnits="userSpaceOnUse" gradientTransform="translate(-320 -60)"/><linearGradient id="c" x1="0" y1="0" x2="1" y2="0" gradientUnits="userSpaceOnUse" gradientTransform="rotate(90 11.734 158.236) scale(82.553)"><stop offset="0" style="stop-color:#f4dd79;stop-opacity:1"/><stop offset="1" style="stop-color:#e6b100;stop-opacity:1"/></linearGradient><linearGradient xlink:href="#d" id="j" x1="344" y1="62" x2="344" y2="106" gradientUnits="userSpaceOnUse" gradientTransform="translate(-320 -60)"/><linearGradient id="d"><stop style="stop-color:#fff;stop-opacity:1" offset="0"/><stop offset=".125" style="stop-color:#fff;stop-opacity:.09803922"/><stop offset=".925" style="stop-color:#fff;stop-opacity:.09803922"/><stop style="stop-color:#fff;stop-opacity:.49803922" offset="1"/></linearGradient><linearGradient xlink:href="#a" id="k" x1="352.861" y1="71.139" x2="357" y2="67" gradientUnits="userSpaceOnUse" gradientTransform="translate(-320 -60)"/></defs><path style="color:#000;font-style:normal;font-variant:normal;font-weight:400;font-stretch:normal;font-size:medium;line-height:normal;font-family:sans-serif;font-variant-ligatures:normal;font-variant-position:normal;font-variant-caps:normal;font-variant-numeric:normal;font-variant-alternates:normal;font-feature-settings:normal;text-indent:0;text-align:start;text-decoration:none;text-decoration-line:none;text-decoration-style:solid;text-decoration-color:#000;letter-spacing:normal;word-spacing:normal;text-transform:none;writing-mode:lr-tb;direction:ltr;text-orientation:mixed;dominant-baseline:auto;baseline-shift:baseline;text-anchor:start;white-space:normal;shape-padding:0;clip-rule:nonzero;display:inline;overflow:visible;visibility:visible;opacity:.1;isolation:auto;mix-blend-mode:normal;color-interpolation:sRGB;color-interpolation-filters:linearRGB;solid-color:#000;solid-opacity:1;fill:#000;fill-opacity:1;fill-rule:nonzero;stroke:none;stroke-width:2;stroke-linecap:butt;stroke-linejoin:miter;stroke-miterlimit:4;stroke-dasharray:none;stroke-dashoffset:0;stroke-opacity:1;marker:none;color-rendering:auto;image-rendering:auto;shape-rendering:auto;text-rendering:auto;enable-background:accumulate" d="M15.731 2c-2.223-.034-3.973.051-5.414.293-1.44.242-2.619.695-3.482 1.557-.864.861-1.32 2.04-1.559 3.48-.24 1.441-.286 3.195-.275 5.424v24.498c-.011 2.225.036 3.978.275 5.418.24 1.44.695 2.619 1.559 3.48.863.862 2.042 1.315 3.482 1.557 1.44.242 3.191.293 5.414.293h16.54c2.222 0 3.972-.051 5.41-.293 1.437-.242 2.612-.697 3.472-1.559.86-.861 1.313-2.039 1.555-3.478.241-1.44.293-3.19.293-5.418V13L32.27 2.252z"/><path style="color:#000;display:inline;overflow:visible;visibility:visible;fill:url(#e);fill-opacity:1;fill-rule:nonzero;stroke:none;stroke-width:1;marker:none;enable-background:accumulate" d="M15.502 1.5c-9.069 0-10.044.927-10 9.97v25.06c-.044 9.043.931 9.97 10 9.97H32.5c9.07 0 10-.927 10-9.97V11.727L32.223 1.5z"/><path style="color:#000;display:inline;overflow:visible;visibility:visible;fill:url(#f);fill-opacity:1;fill-rule:nonzero;stroke:none;stroke-width:1;marker:none;enable-background:accumulate" d="M16.65 4C8 4 8 4 8.003 12.862v22.276C8 44 8 44 16.65 44h14.7c8.65 0 8.65 0 8.65-8.862V12l-8-8z"/><g style="clip-rule:evenodd;display:inline;fill-rule:evenodd;enable-background:new"><path d="M753.5 86.503a7 7 0 1 0 0-14 7 7 0 0 0 0 14z" style="fill:url(#g);fill-rule:nonzero;stroke:#cb851d;stroke-width:1px" transform="translate(-734.006 -54.003)"/></g><g style="clip-rule:evenodd;display:inline;fill-rule:evenodd;enable-background:new"><path d="M753.5 85.004a5.5 5.5 0 1 0 0-11 5.5 5.5 0 0 0 0 11z" style="fill:#f0c46f;fill-opacity:.6;fill-rule:nonzero" transform="translate(-734.006 -54.003)"/></g><path style="clip-rule:evenodd;display:inline;fill:url(#h);fill-opacity:1;fill-rule:nonzero;stroke:#876900;stroke-width:1px;stroke-linecap:round;stroke-linejoin:round;enable-background:new" d="M24.494 22.497h11v11h-11z"/><g style="clip-rule:evenodd;display:inline;fill-rule:evenodd;enable-background:new"><path style="fill:#ecba14;fill-opacity:.6;fill-rule:nonzero" d="M760 78h8v8h-8z" transform="translate(-734.006 -54.003)"/></g><g style="clip-rule:evenodd;display:inline;fill-rule:evenodd;enable-background:new"><path d="M761.624 89.452c.82 1.332-.138 3.048-1.703 3.048h-8.842c-1.564 0-2.523-1.716-1.703-3.048l4.421-7.184a2 2 0 0 1 3.406 0z" style="fill:url(#i);fill-rule:nonzero;stroke:#c99c00;stroke-width:1px;stroke-linecap:round;stroke-linejoin:round" transform="translate(-734.006 -54.003)"/></g><g style="clip-rule:evenodd;display:inline;fill-rule:evenodd;enable-background:new"><path d="M761.331 91.5h-11.662L755.5 82z" style="fill:#f5ce53;fill-opacity:.6;fill-rule:nonzero" transform="translate(-734.006 -54.003)"/></g><path d="M26.424 33.497h9.07v-11h-11l.07 8z" style="clip-rule:evenodd;display:inline;fill:none;fill-rule:nonzero;stroke:#b28a00;stroke-width:1px;stroke-linecap:round;stroke-linejoin:round;stroke-opacity:1;enable-background:new"/><path style="color:#000;display:inline;overflow:visible;visibility:visible;opacity:.2;fill:#fff;fill-opacity:1;fill-rule:nonzero;stroke:none;stroke-width:1;marker:none;enable-background:accumulate" d="M6 24v12.252C5.958 45.094 6.908 46 15.732 46h16.54c8.823 0 9.73-.906 9.73-9.748V24z"/><path style="color:#000;display:inline;overflow:visible;visibility:visible;opacity:.1;fill:#fff;fill-opacity:1;fill-rule:nonzero;stroke:none;stroke-width:1;marker:none;enable-background:accumulate" d="M24 2v44h8.27c8.824 0 9.73-.906 9.73-9.748V12L32 2z"/><path style="color:#000;font-style:normal;font-variant:normal;font-weight:400;font-stretch:normal;font-size:medium;line-height:normal;font-family:sans-serif;font-variant-ligatures:normal;font-variant-position:normal;font-variant-caps:normal;font-variant-numeric:normal;font-variant-alternates:normal;font-feature-settings:normal;text-indent:0;text-align:start;text-decoration:none;text-decoration-line:none;text-decoration-style:solid;text-decoration-color:#000;letter-spacing:normal;word-spacing:normal;text-transform:none;writing-mode:lr-tb;direction:ltr;text-orientation:mixed;dominant-baseline:auto;baseline-shift:baseline;text-anchor:start;white-space:normal;shape-padding:0;clip-rule:nonzero;display:inline;overflow:visible;visibility:visible;opacity:.4;isolation:auto;mix-blend-mode:normal;color-interpolation:sRGB;color-interpolation-filters:linearRGB;solid-color:#000;solid-opacity:1;fill:#000;fill-opacity:1;fill-rule:nonzero;stroke:none;stroke-width:2;stroke-linecap:butt;stroke-linejoin:miter;stroke-miterlimit:4;stroke-dasharray:none;stroke-dashoffset:0;stroke-opacity:1;marker:none;color-rendering:auto;image-rendering:auto;shape-rendering:auto;text-rendering:auto;enable-background:accumulate" d="M15.731 1c-2.223 0-3.973.051-5.414.293-1.44.242-2.619.695-3.482 1.557-.864.861-1.32 2.04-1.559 3.48-.24 1.441-.286 3.195-.275 5.424v24.498c-.011 2.225.036 3.978.275 5.418.24 1.44.695 2.619 1.559 3.48.863.862 2.042 1.315 3.482 1.557 1.44.242 3.191.293 5.414.293h16.54c2.222 0 3.972-.051 5.41-.293 1.437-.242 2.612-.697 3.472-1.559.86-.861 1.313-2.039 1.555-3.478.241-1.44.293-3.19.293-5.418V11.586L32.415 1zm0 1h16.27l10 10V36.252C42 45.094 41.094 46 32.27 46H15.73c-8.824 0-9.774-.906-9.73-9.748V11.748C5.957 2.906 6.907 2 15.73 2z"/><path style="color:#000;font-style:normal;font-variant:normal;font-weight:400;font-stretch:normal;font-size:medium;line-height:normal;font-family:sans-serif;font-variant-ligatures:normal;font-variant-position:normal;font-variant-caps:normal;font-variant-numeric:normal;font-variant-alternates:normal;font-feature-settings:normal;text-indent:0;text-align:start;text-decoration:none;text-decoration-line:none;text-decoration-style:solid;text-decoration-color:#000;letter-spacing:normal;word-spacing:normal;text-transform:none;writing-mode:lr-tb;direction:ltr;text-orientation:mixed;dominant-baseline:auto;baseline-shift:baseline;text-anchor:start;white-space:normal;shape-padding:0;clip-rule:nonzero;display:inline;overflow:visible;visibility:visible;opacity:.4;isolation:auto;mix-blend-mode:normal;color-interpolation:sRGB;color-interpolation-filters:linearRGB;solid-color:#000;solid-opacity:1;fill:url(#j);fill-opacity:1;fill-rule:nonzero;stroke:none;stroke-width:2;stroke-linecap:butt;stroke-linejoin:miter;stroke-miterlimit:4;stroke-dasharray:none;stroke-dashoffset:0;stroke-opacity:1;marker:none;color-rendering:auto;image-rendering:auto;shape-rendering:auto;text-rendering:auto;enable-background:accumulate" d="M15.731 2c-8.824 0-9.774.906-9.73 9.748v24.504C5.957 45.094 6.907 46 15.73 46h16.54c8.823 0 9.73-.906 9.73-9.748V12h-1V36.252c0 2.193-.062 3.87-.266 5.088-.204 1.217-.529 1.924-.998 2.394-.47.47-1.174.796-2.389 1-1.214.205-2.889.266-5.078.266H15.731c-2.189 0-3.866-.061-5.084-.266-1.218-.204-1.929-.53-2.4-1-.472-.47-.796-1.176-.998-2.392-.202-1.216-.259-2.894-.248-5.086V11.744c-.011-2.192.046-3.87.248-5.086.202-1.216.526-1.922.998-2.392.471-.47 1.184-.796 2.402-1C11.867 3.06 13.542 3 15.731 3h16.27V2z"/><path style="color:#000;display:inline;overflow:visible;visibility:visible;opacity:.6;fill:#7c5616;fill-opacity:1;fill-rule:nonzero;stroke:none;stroke-width:.250023;marker:none;enable-background:accumulate" d="M42 13v-1L32 2h-1v4.457c0 5.692.763 6.57 6.468 6.542z"/><path style="color:#000;display:inline;overflow:visible;visibility:visible;fill:url(#k);fill-opacity:1;fill-rule:nonzero;stroke:none;stroke-width:.250023;marker:none;enable-background:accumulate" d="M42 11.999 32 2V5.957c0 5.692.263 6.07 5.968 6.042z"/></svg>