<svg xmlns="http://www.w3.org/2000/svg" height="16" viewBox="0 0 4.233 4.233" width="16"><path style="opacity:.7;fill:#000;stroke:#000;stroke-width:.529167;stroke-linejoin:round;stroke-miterlimit:4;stroke-dasharray:none" d="M.794 3.175V1.058c0-.529.264-.529.793-.529h1.059l.794.794v1.852c0 .53-.265.53-.794.53H1.588c-.53 0-.794 0-.794-.53z"/><path d="M.794 3.175V1.058c0-.529.264-.529.793-.529h1.059l.794.794v1.852c0 .53-.265.53-.794.53H1.588c-.53 0-.794 0-.794-.53z" style="fill:#fff;stroke-width:.264583"/><path d="M2.646 1.323V.529l.794.794z" style="fill:#6d6d6d;fill-opacity:1;stroke-width:.264583"/><path d="M2.91 1.587a.265.265 0 1 0 0 .53.265.265 0 0 0 0-.53z" style="color:#000;display:inline;overflow:visible;visibility:visible;fill:#232629;fill-opacity:1;fill-rule:nonzero;stroke:none;stroke-width:1.05813;marker:none;enable-background:accumulate"/><path d="m1.753 1.902-.695 1.273H2.91l-.578-1.042-.232.347z" style="color:#000;display:inline;overflow:visible;visibility:visible;fill:#232629;fill-opacity:1;fill-rule:nonzero;stroke:none;stroke-width:1.38879;marker:none;enable-background:accumulate"/></svg>