<svg viewBox="0 0 24 24" xmlns="http://www.w3.org/2000/svg"><path style="opacity:.7;fill:#000;stroke:#000;stroke-width:2;stroke-linejoin:round;stroke-miterlimit:4;stroke-dasharray:none" d="M16 3.998c2 0 3 0 3 2v12.004c0 2-1 2-3 2H8c-2 0-3 0-3-2V5.998c0-2 1-2 3-2z"/><path d="M16 3.998c2 0 3 0 3 2v12.004c0 2-1 2-3 2H8c-2 0-3 0-3-2V5.998c0-2 1-2 3-2z" style="fill:#fff;stroke-width:1"/><g aria-label="C5" style="font-size:10.6681px;line-height:1.25;letter-spacing:0;word-spacing:0"><path d="M9.86 15.863q-.78 0-1.42-.256-.64-.256-1.098-.746-.459-.491-.715-1.206-.245-.725-.245-1.653 0-.929.277-1.643.288-.726.768-1.216.48-.491 1.12-.747.64-.256 1.366-.256.459 0 .821.064.374.064.64.15.278.084.448.17.171.085.235.128l-.299.853q-.096-.064-.277-.138-.181-.075-.416-.15-.224-.074-.501-.117-.267-.053-.545-.053-.586 0-1.056.202-.47.203-.8.587-.33.384-.512.939-.17.544-.17 1.227 0 .661.149 1.205.16.544.47.939.309.384.767.597.47.214 1.088.214.715 0 1.185-.15.469-.15.704-.266l.266.853q-.074.053-.266.139-.192.074-.48.15-.288.074-.672.127-.384.053-.833.053zM14.5 11.159q1.611.064 2.358.704.757.64.757 1.739 0 .49-.17.907-.16.416-.502.714-.33.3-.843.47-.512.17-1.216.17-.277 0-.565-.042-.288-.043-.534-.107-.245-.064-.437-.128t-.277-.107l.192-.864q.18.086.586.224.416.139 1.014.139.48 0 .8-.107.33-.106.533-.288.203-.181.288-.416.096-.245.096-.512 0-.405-.138-.715-.139-.32-.491-.533-.352-.213-.939-.32-.587-.117-1.483-.117.064-.523.096-.982.043-.459.075-.896t.053-.864q.022-.438.043-.918h3.563v.843H14.66q-.01.16-.032.438l-.043.565q-.02.288-.042.565-.022.278-.043.438z" style="font-family:Ubuntu;-inkscape-font-specification:Ubuntu" transform="scale(1.00013 .99987)"/></g></svg>