<?xml version="1.0" encoding="UTF-8" standalone="no"?>
<svg
   height="52"
   viewBox="0 0 60 52"
   width="60"
   version="1.1"
   id="svg56"
   sodipodi:docname="columns3ddeep_52x60.svg"
   inkscape:version="1.1.2 (76b9e6a115, 2022-02-25)"
   xmlns:inkscape="http://www.inkscape.org/namespaces/inkscape"
   xmlns:sodipodi="http://sodipodi.sourceforge.net/DTD/sodipodi-0.dtd"
   xmlns:xlink="http://www.w3.org/1999/xlink"
   xmlns="http://www.w3.org/2000/svg"
   xmlns:svg="http://www.w3.org/2000/svg"
   xmlns:rdf="http://www.w3.org/1999/02/22-rdf-syntax-ns#"
   xmlns:cc="http://creativecommons.org/ns#"
   xmlns:dc="http://purl.org/dc/elements/1.1/">
  <metadata
     id="metadata62">
    <rdf:RDF>
      <cc:Work
         rdf:about="">
        <dc:format>image/svg+xml</dc:format>
        <dc:type
           rdf:resource="http://purl.org/dc/dcmitype/StillImage" />
      </cc:Work>
    </rdf:RDF>
  </metadata>
  <defs
     id="defs60" />
  <sodipodi:namedview
     pagecolor="#ffffff"
     bordercolor="#666666"
     borderopacity="1"
     objecttolerance="10"
     gridtolerance="10"
     guidetolerance="10"
     inkscape:pageopacity="0"
     inkscape:pageshadow="2"
     inkscape:window-width="1852"
     inkscape:window-height="1016"
     id="namedview58"
     showgrid="false"
     inkscape:zoom="16.923077"
     inkscape:cx="30.018182"
     inkscape:cy="26.029545"
     inkscape:window-x="0"
     inkscape:window-y="0"
     inkscape:window-maximized="1"
     inkscape:current-layer="svg56"
     inkscape:pagecheckerboard="0" />
  <linearGradient
     id="a">
    <stop
       offset="0"
       stop-color="#e95420"
       id="stop2" />
    <stop
       offset="1"
       stop-color="#fe865c"
       id="stop4" />
  </linearGradient>
  <linearGradient
     id="b"
     gradientTransform="matrix(1.7777778,0,0,1,-45,-1003.3621)"
     gradientUnits="userSpaceOnUse"
     x1="50"
     x2="50.0625"
     xlink:href="#c"
     y1="1046.3622"
     y2="1016.3621" />
  <linearGradient
     id="c">
    <stop
       offset="0"
       stop-color="#77216f"
       id="stop8" />
    <stop
       offset="1"
       stop-color="#a25f9e"
       id="stop10" />
  </linearGradient>
  <linearGradient
     id="d"
     gradientTransform="matrix(1.7777778,0,0,0.8,-68,-794.08965)"
     gradientUnits="userSpaceOnUse"
     x1="50.0625"
     x2="50.0625"
     xlink:href="#c"
     y1="1046.3621"
     y2="1016.3621" />
  <linearGradient
     id="e"
     gradientTransform="matrix(1.6666667,0,0,0.83333333,-12,-824.96848)"
     gradientUnits="userSpaceOnUse"
     x1="15.9375"
     x2="15.9375"
     xlink:href="#a"
     y1="1046.3622"
     y2="1028.3622" />
  <linearGradient
     id="f"
     gradientTransform="matrix(1.6666667,0,0,0.66666664,11,-650.5747)"
     gradientUnits="userSpaceOnUse"
     x1="15.9375"
     x2="15.9375"
     xlink:href="#a"
     y1="1046.3622"
     y2="1028.3621" />
  <path
     d="m 0,0 h 60 v 52 h -60 z"
     fill="#ffffff"
     id="path16" />
  <path
     d="m 14,37 -12,12"
     fill="none"
     stroke="#232629"
     id="path18" />
  <path
     d="m 13,37 h 46 v 0.9874 h -46 z"
     fill="#232629"
     id="path20" />
  <path
     d="m 35,13 h 16 v 30 h -16 z"
     fill="url(#b)"
     id="path22"
     style="fill:#00ff00;fill-opacity:1" />
  <path
     d="m 13,2 h 1 v 36 h -1 z"
     fill="#232629"
     id="path24" />
  <path
     d="m 12,19 h 16 v 24 h -16 z"
     fill="url(#d)"
     id="path26"
     style="fill:#00ff00;fill-opacity:1" />
  <path
     d="m 28,19 h -16 l 3,-3 h 16 z"
     fill="#987197"
     id="path28"
     style="fill-rule:evenodd;fill:#00ff00;fill-opacity:1" />
  <path
     d="m 51,13 h -16 l 3,-3 h 16 z"
     fill="#987197"
     id="path30"
     style="fill-rule:evenodd;fill:#00ff00;fill-opacity:1" />
  <path
     d="m 28,19 v 24 l 3,-3 v -24 z"
     fill="#945c93"
     id="path32"
     style="fill-rule:evenodd;fill:#00ff00;fill-opacity:1" />
  <path
     d="m 51,13 v 30 l 3,-3 v -30 z"
     fill="#945c93"
     id="path34"
     style="fill-rule:evenodd;fill:#00ff00;fill-opacity:1" />
  <g
     fill="#fe865c"
     id="g40"
     style="fill-rule:evenodd;fill:#00ff00;fill-opacity:1"
     transform="translate(0,-1000.3622)">
    <path
       d="m 46,1035.3622 v 12 l 3,-3 v -12 z"
       id="path36"
       style="fill:#00ff00;fill-opacity:1" />
    <path
       d="m 23,1032.3622 v 15 l 3,-3 v -15 z"
       id="path38"
       style="fill:#00ff00;fill-opacity:1" />
  </g>
  <path
     d="m 8,32 h 15 v 15 h -15 z"
     fill="url(#e)"
     id="path44"
     style="fill:#00ff00;fill-opacity:1" />
  <path
     d="m 31,35 h 15 v 12 h -15 z"
     fill="url(#f)"
     id="path46"
     style="fill:#00ff00;fill-opacity:1" />
  <g
     fill="#fe865c"
     fill-rule="evenodd"
     id="g52"
     transform="translate(0,-1000.3622)"
     style="fill:#00ff00;fill-opacity:1">
    <path
       d="m 23,1032.3622 h -15 l 3,-3 h 15 z"
       id="path48"
       style="fill:#00ff00;fill-opacity:1" />
    <path
       d="m 46,1035.3622 h -15 l 3,-3 h 15 z"
       id="path50"
       style="fill:#00ff00;fill-opacity:1" />
  </g>
  <path
     d="m 8,32 h 15 v 15 h -15 z"
     fill="url(#e)"
     id="path867"
     style="fill:#ffffff;fill-opacity:1;opacity:0.4" />
  <path
     d="m 31,35 h 15 v 12 h -15 z"
     fill="url(#f)"
     id="path869"
     style="fill:#ffffff;fill-opacity:1;opacity:0.4" />
  <g
     fill="#fe865c"
     id="g929"
     style="fill-rule:evenodd;fill:#ffffff;fill-opacity:1;opacity:0.5"
     transform="translate(0,-1000.3622)">
    <path
       d="m 46,1035.3622 v 12 l 3,-3 v -12 z"
       id="path925"
       style="fill:#ffffff;fill-opacity:1" />
    <path
       d="m 23,1032.3622 v 15 l 3,-3 v -15 z"
       id="path927"
       style="fill:#ffffff;fill-opacity:1" />
  </g>
  <g
     fill="#fe865c"
     fill-rule="evenodd"
     id="g989"
     transform="translate(0,-1000.3622)"
     style="fill:#ffffff;fill-opacity:1;opacity:0.6">
    <path
       d="m 23,1032.3622 h -15 l 3,-3 h 15 z"
       id="path985"
       style="fill:#ffffff;fill-opacity:1" />
    <path
       d="m 46,1035.3622 h -15 l 3,-3 h 15 z"
       id="path987"
       style="fill:#ffffff;fill-opacity:1" />
  </g>
  <path
     d="m 28,19 v 24 l 3,-3 v -24 z"
     fill="#945c93"
     id="path1063"
     style="fill-rule:evenodd;fill:#ffffff;fill-opacity:1;opacity:0.2" />
  <path
     d="m 51,13 v 30 l 3,-3 v -30 z"
     fill="#945c93"
     id="path1065"
     style="fill-rule:evenodd;fill:#ffffff;fill-opacity:1;opacity:0.2" />
  <path
     d="m 28,19 h -16 l 3,-3 h 16 z"
     fill="#987197"
     id="path1121"
     style="fill-rule:evenodd;fill:#ffffff;fill-opacity:1;opacity:0.3" />
  <path
     d="m 51,13 h -16 l 3,-3 h 16 z"
     fill="#987197"
     id="path1123"
     style="fill-rule:evenodd;fill:#ffffff;fill-opacity:1;opacity:0.3" />
</svg>
