<?xml version="1.0" encoding="UTF-8" standalone="no"?>
<svg
   xmlns:dc="http://purl.org/dc/elements/1.1/"
   xmlns:cc="http://creativecommons.org/ns#"
   xmlns:rdf="http://www.w3.org/1999/02/22-rdf-syntax-ns#"
   xmlns:svg="http://www.w3.org/2000/svg"
   xmlns="http://www.w3.org/2000/svg"
   xmlns:xlink="http://www.w3.org/1999/xlink"
   xmlns:sodipodi="http://sodipodi.sourceforge.net/DTD/sodipodi-0.dtd"
   xmlns:inkscape="http://www.inkscape.org/namespaces/inkscape"
   height="52"
   viewBox="0 0 60 52"
   width="60"
   version="1.1"
   id="svg44"
   sodipodi:docname="conehoripercent_52x60.svg"
   inkscape:version="1.0.1 (3bc2e813f5, 2020-09-07)">
  <metadata
     id="metadata50">
    <rdf:RDF>
      <cc:Work
         rdf:about="">
        <dc:format>image/svg+xml</dc:format>
        <dc:type
           rdf:resource="http://purl.org/dc/dcmitype/StillImage" />
      </cc:Work>
    </rdf:RDF>
  </metadata>
  <defs
     id="defs48" />
  <sodipodi:namedview
     pagecolor="#ffffff"
     bordercolor="#666666"
     borderopacity="1"
     objecttolerance="10"
     gridtolerance="10"
     guidetolerance="10"
     inkscape:pageopacity="0"
     inkscape:pageshadow="2"
     inkscape:window-width="1920"
     inkscape:window-height="1016"
     id="namedview46"
     showgrid="false"
     inkscape:zoom="16.923077"
     inkscape:cx="30"
     inkscape:cy="26"
     inkscape:window-x="0"
     inkscape:window-y="27"
     inkscape:window-maximized="1"
     inkscape:current-layer="svg44" />
  <linearGradient
     id="a">
    <stop
       offset="0"
       stop-color="#e95420"
       id="stop2" />
    <stop
       offset="1"
       stop-color="#fe865c"
       id="stop4" />
  </linearGradient>
  <linearGradient
     id="b">
    <stop
       offset="0"
       stop-color="#77216f"
       id="stop7" />
    <stop
       offset="1"
       stop-color="#945c93"
       id="stop9" />
  </linearGradient>
  <linearGradient
     id="c"
     gradientTransform="matrix(0,0.92590163,-1,0,51,-5.14688)"
     gradientUnits="userSpaceOnUse"
     x1="11"
     x2="30"
     xlink:href="#a"
     y1="34"
     y2="34" />
  <linearGradient
     id="d"
     gradientTransform="matrix(0,0.92590163,-1,0,51,-5.14688)"
     gradientUnits="userSpaceOnUse"
     x1="11"
     x2="30"
     xlink:href="#b"
     y1="34"
     y2="34" />
  <linearGradient
     id="e"
     gradientTransform="matrix(0,0.92590163,-1,0,51,15.223)"
     gradientUnits="userSpaceOnUse"
     x1="11"
     x2="30"
     xlink:href="#b"
     y1="34"
     y2="34" />
  <linearGradient
     id="f"
     gradientTransform="matrix(0,0.92590163,-1,0,51,15.223)"
     gradientUnits="userSpaceOnUse"
     x1="11"
     x2="30"
     xlink:href="#a"
     y1="34"
     y2="34" />
  <path
     d="m 0,0 h 60 v 52 h -60 z"
     fill="#ffffff"
     id="path16" />
  <g
     fill="#232629"
     id="g24"
     transform="translate(0,-1000.3622)">
    <path
       d="m 11.646484,1040.0078 -8.9999996,9 0.7070312,0.707 9.0000004,-9 z"
       fill-rule="evenodd"
       id="path18" />
    <path
       d="m 11,1040.3684 h 46 v 0.9874 h -46 z"
       id="path20" />
    <path
       d="m 11,1003.3622 h 1 v 38 h -1 z"
       id="path22" />
  </g>
  <path
     d="m 32,14.5 -24,-9.462 c -2.0465375,-0.8068 -4,3.9382 -4,8.7961 0,4.8579 1.7909,8.7961 4,8.7961 z"
     fill="url(#c)"
     id="path26"
     style="fill:#e95420;fill-opacity:1" />
  <path
     d="m 43,34.6669 -35,-9.259 c -2.1267061,-0.5626 -4,3.9381 -4,8.796 0,4.858 1.7909,8.7961 4,8.7961 z"
     fill="url(#f)"
     id="path28"
     style="fill:#e95420;fill-opacity:1" />
  <path
     d="m 53,34.6669 -32,-5.8394 v -0.01 c -1.656877,0 -3.000032,2.2556 -3,5.5345 -3.2e-5,3.2789 1.343123,5.5898 3,5.5898 z"
     fill="url(#e)"
     id="path30"
     style="fill:#77216f;fill-opacity:1" />
  <path
     d="m 53,14.5 -39,-7.1356 v -0.022 c -0.02465,0 -0.04932,-0.032 -0.074,-0.032 -1.656999,0 -3.000204,2.4633 -3,6.6031 1.85e-4,4.1389 1.432562,6.7128 3.089286,6.7128 0.02468,-0.8036 -0.01762,-0.01 -0.03761,-0.01 l 0.02232,0.02 39.000004,-6.1367 z"
     fill="url(#d)"
     id="path32"
     style="fill:#77216f;fill-opacity:1" />
  <g
     fill="#ffffff"
     transform="translate(-40,-914.3622)"
     id="g40">
    <path
       d="m 49.5,945.36232 a 2,2 0 0 0 -2,2 2,2 0 0 0 2,2 2,2 0 0 0 2,-2 2,2 0 0 0 -2,-2 z m 0,1 a 1,1 0 0 1 1,1 1,1 0 0 1 -1,1 1,1 0 0 1 -1,-1 1,1 0 0 1 1,-1 z"
       id="path34" />
    <path
       d="m 53.5,949.36232 a 2,2 0 0 0 -2,2 2,2 0 0 0 2,2 2,2 0 0 0 2,-2 2,2 0 0 0 -2,-2 z m 0,1 a 1,1 0 0 1 1,1 1,1 0 0 1 -1,1 1,1 0 0 1 -1,-1 1,1 0 0 1 1,-1 z"
       id="path36" />
    <path
       d="m 54.09961,945.06262 -6,8 0.80078,0.5996 6,-8 z"
       fill-rule="evenodd"
       id="path38" />
  </g>
</svg>
