<?xml version="1.0" encoding="UTF-8" standalone="no"?>
<svg
   height="52"
   viewBox="0 0 60 52"
   width="60"
   version="1.1"
   id="svg42"
   sodipodi:docname="cylinderdeep_52x60.svg"
   inkscape:version="1.1.2 (76b9e6a115, 2022-02-25)"
   xmlns:inkscape="http://www.inkscape.org/namespaces/inkscape"
   xmlns:sodipodi="http://sodipodi.sourceforge.net/DTD/sodipodi-0.dtd"
   xmlns:xlink="http://www.w3.org/1999/xlink"
   xmlns="http://www.w3.org/2000/svg"
   xmlns:svg="http://www.w3.org/2000/svg"
   xmlns:rdf="http://www.w3.org/1999/02/22-rdf-syntax-ns#"
   xmlns:cc="http://creativecommons.org/ns#"
   xmlns:dc="http://purl.org/dc/elements/1.1/">
  <metadata
     id="metadata48">
    <rdf:RDF>
      <cc:Work
         rdf:about="">
        <dc:format>image/svg+xml</dc:format>
        <dc:type
           rdf:resource="http://purl.org/dc/dcmitype/StillImage" />
      </cc:Work>
    </rdf:RDF>
  </metadata>
  <defs
     id="defs46" />
  <sodipodi:namedview
     pagecolor="#ffffff"
     bordercolor="#666666"
     borderopacity="1"
     objecttolerance="10"
     gridtolerance="10"
     guidetolerance="10"
     inkscape:pageopacity="0"
     inkscape:pageshadow="2"
     inkscape:window-width="1852"
     inkscape:window-height="1016"
     id="namedview44"
     showgrid="false"
     inkscape:zoom="16.923077"
     inkscape:cx="30.018182"
     inkscape:cy="26.029545"
     inkscape:window-x="0"
     inkscape:window-y="0"
     inkscape:window-maximized="1"
     inkscape:current-layer="svg42"
     inkscape:pagecheckerboard="0" />
  <linearGradient
     id="a">
    <stop
       offset="0"
       stop-color="#77216f"
       id="stop2" />
    <stop
       offset="1"
       stop-color="#945c93"
       id="stop4" />
  </linearGradient>
  <linearGradient
     id="b">
    <stop
       offset="0"
       stop-color="#e95420"
       id="stop7" />
    <stop
       offset="1"
       stop-color="#fe865c"
       id="stop9" />
  </linearGradient>
  <linearGradient
     id="c"
     gradientTransform="matrix(0.88888889,0,0,0.52120695,4.888901,-504.01919)"
     gradientUnits="userSpaceOnUse"
     x1="8"
     x2="26"
     xlink:href="#b"
     y1="1043.8622"
     y2="1043.8622" />
  <linearGradient
     id="d"
     gradientTransform="matrix(0.88888889,0,0,0.52120695,27.886888,-504.04517)"
     gradientUnits="userSpaceOnUse"
     x1="8"
     x2="26"
     xlink:href="#b"
     y1="1043.8622"
     y2="1043.8622" />
  <linearGradient
     id="e"
     gradientTransform="matrix(0.88888889,0,0,0.52120695,31.888747,-510.02075)"
     gradientUnits="userSpaceOnUse"
     x1="8"
     x2="26"
     xlink:href="#a"
     y1="1043.8622"
     y2="1043.8622" />
  <linearGradient
     id="f"
     gradientTransform="matrix(0.88888889,0,0,0.52120695,8.888904,-510.02074)"
     gradientUnits="userSpaceOnUse"
     x1="8"
     x2="26"
     xlink:href="#a"
     y1="1043.8622"
     y2="1043.8622" />
  <path
     d="m 0,0 h 60 v 52 h -60 z"
     fill="#ffffff"
     id="path16" />
  <path
     d="m 14,37 -12,12"
     fill="none"
     stroke="#232629"
     id="path18" />
  <path
     d="m 13,37 h 46 v 0.9874 h -46 z"
     fill="#232629"
     id="path20" />
  <path
     d="m 13,2 h 1 v 36 h -1 z"
     fill="#232629"
     id="path22" />
  <path
     d="m 16,17 a 8,4 0 0 0 0,0.01367 8,4.5123385 0 0 0 0,0.01172 v 5.974609 1.998047 0.002 a 8,4 0 0 0 0,0.01367 8,4.5123385 0 0 0 0,0.01172 8,4.5123385 0 0 0 0,0.002 v 5.972656 a 8,4 0 0 0 0,0.01563 8,4.5123385 0 0 0 0,0.01172 v 1.972656 a 8,4 0 0 0 0,0.01367 8,4.5123385 0 0 0 0,0.01367 v 5.972656 0.002 a 8,4 0 0 0 0,0.01367 8,4.5123385 0 0 0 0,0.01172 h 0.002 a 8,4 0 0 0 7.998047,3.972656 8,4 0 0 0 7.998047,-3.974609 h 0.002 a 8,4.5123385 0 0 0 -0.002,-0.01367 8,4 0 0 0 0.002,-0.01172 v -5.974609 -0.02539 -1.974609 -0.02539 -5.974609 -0.02539 -2 -6 z"
     fill="url(#f)"
     id="path24"
     style="fill:#00ff00;fill-opacity:1" />
  <path
     d="m 12.000012,37 v 8 a 8,4 0 0 0 0,0.014 8,4.5123385 0 0 0 0,0.012 h 0.002 a 8,4 0 0 0 7.998,3.974 8,4 0 0 0 7.998047,-3.9746 h 0.002 a 8,4.5123385 0 0 0 -0.002,-0.014 8,4 0 0 0 0.002,-0.012 v -8 h -16 z"
     fill="url(#c)"
     id="path26"
     style="fill:#00ff00;fill-opacity:1" />
  <ellipse
     cx="24.000011"
     cy="16.998396"
     fill="#987197"
     rx="8"
     ry="4"
     id="ellipse28"
     style="fill:#00ff00;fill-opacity:1" />
  <path
     d="m 39,9 v 7.998 a 8,4 0 0 0 0,0.016 8,4.5123385 0 0 0 0,0.012 v 5.9746 2 a 8,4 0 0 0 0,0.014 8,4.5123385 0 0 0 0,0.012 v 5.9726 a 8,4 0 0 0 0,0.016 8,4.5123385 0 0 0 0,0.012 v 7.9746 a 8,4 0 0 0 0,0.014 8,4.5123385 0 0 0 0,0.012 h 0.002 a 8,4 0 0 0 7.998,3.9722 8,4 0 0 0 7.998047,-3.9746 h 0.002 a 8,4.5123385 0 0 0 -0.002,-0.014 8,4 0 0 0 0.002,-0.012 v -7.9746 -0.025 -5.9746 -0.025 -2 -5.9746 -0.025 -8 h -16 z"
     fill="url(#e)"
     id="path32"
     style="fill:#00ff00;fill-opacity:1" />
  <path
     d="m 34.998047,28.9746 v 8 a 8,4 0 0 0 0,0.014 8,4.5123385 0 0 0 0,0.012 v 7.9746 a 8,4 0 0 0 0,0.014 8,4.5123385 0 0 0 0,0.012 h 0.002 a 8,4 0 0 0 7.998047,3.9746 8,4 0 0 0 7.998047,-3.9746 h 0.002 a 8,4.5123385 0 0 0 -0.002,-0.014 8,4 0 0 0 0.002,-0.012 v -7.9746 -0.025 -8 h -16 z"
     fill="url(#d)"
     id="path34"
     style="fill:#00ff00;fill-opacity:1" />
  <ellipse
     cx="46.999855"
     cy="8.9983959"
     fill="#987197"
     rx="8"
     ry="4"
     id="ellipse36"
     style="fill:#00ff00;fill-opacity:1" />
  <path
     d="m 12.000012,37 v 8 a 8,4 0 0 0 0,0.014 8,4.5123385 0 0 0 0,0.012 h 0.002 a 8,4 0 0 0 7.998,3.974 8,4 0 0 0 7.998047,-3.9746 h 0.002 a 8,4.5123385 0 0 0 -0.002,-0.014 8,4 0 0 0 0.002,-0.012 v -8 h -16 z"
     fill="url(#c)"
     id="path861"
     style="fill:#ffffff;fill-opacity:1;opacity:0.4" />
  <path
     d="m 34.998047,28.9746 v 8 a 8,4 0 0 0 0,0.014 8,4.5123385 0 0 0 0,0.012 v 7.9746 a 8,4 0 0 0 0,0.014 8,4.5123385 0 0 0 0,0.012 h 0.002 a 8,4 0 0 0 7.998047,3.9746 8,4 0 0 0 7.998047,-3.9746 h 0.002 a 8,4.5123385 0 0 0 -0.002,-0.014 8,4 0 0 0 0.002,-0.012 v -7.9746 -0.025 -8 h -16 z"
     fill="url(#d)"
     id="path863"
     style="fill:#ffffff;fill-opacity:1;opacity:0.4" />
  <ellipse
     cx="20.000011"
     cy="36.999981"
     fill="#fe865c"
     rx="8"
     ry="4"
     id="ellipse30"
     style="fill:#00ff00;fill-opacity:1" />
  <ellipse
     cx="42.997997"
     cy="28.973982"
     fill="#fe865c"
     rx="8"
     ry="4"
     id="ellipse38"
     style="fill:#00ff00;fill-opacity:1" />
  <ellipse
     cx="20.000011"
     cy="36.999981"
     fill="#fe865c"
     rx="8"
     ry="4"
     id="ellipse919"
     style="fill:#ffffff;fill-opacity:1;opacity:0.6" />
  <ellipse
     cx="42.997997"
     cy="28.973982"
     fill="#fe865c"
     rx="8"
     ry="4"
     id="ellipse921"
     style="fill:#ffffff;fill-opacity:1;opacity:0.6" />
  <ellipse
     cx="24.000011"
     cy="16.998396"
     fill="#987197"
     rx="8"
     ry="4"
     id="ellipse995"
     style="fill:#ffffff;fill-opacity:1;opacity:0.3" />
  <ellipse
     cx="46.999855"
     cy="8.9983959"
     fill="#987197"
     rx="8"
     ry="4"
     id="ellipse997"
     style="fill:#ffffff;fill-opacity:1;opacity:0.3" />
</svg>
