<?xml version="1.0" encoding="UTF-8" standalone="no"?>
<svg
   height="52"
   viewBox="0 0 60 52"
   width="60"
   version="1.1"
   id="svg92"
   sodipodi:docname="netfill_52x60.svg"
   inkscape:version="1.1.2 (76b9e6a115, 2022-02-25)"
   xmlns:inkscape="http://www.inkscape.org/namespaces/inkscape"
   xmlns:sodipodi="http://sodipodi.sourceforge.net/DTD/sodipodi-0.dtd"
   xmlns="http://www.w3.org/2000/svg"
   xmlns:svg="http://www.w3.org/2000/svg">
  <defs
     id="defs96" />
  <sodipodi:namedview
     id="namedview94"
     pagecolor="#ffffff"
     bordercolor="#666666"
     borderopacity="1.0"
     inkscape:pageshadow="2"
     inkscape:pageopacity="0.0"
     inkscape:pagecheckerboard="0"
     showgrid="false"
     inkscape:zoom="15.038462"
     inkscape:cx="30.023017"
     inkscape:cy="25.966751"
     inkscape:window-width="1852"
     inkscape:window-height="1016"
     inkscape:window-x="0"
     inkscape:window-y="0"
     inkscape:window-maximized="1"
     inkscape:current-layer="svg92" />
  <path
     d="M 0,0 H 60 V 52 H 0 Z"
     fill="#ffffff"
     id="path2" />
  <path
     d="M 29.5,7.9347 9.7753906,18.3155 10.083984,18.7765 22.210938,36.9679 38.789062,39.0401 49.166016,18.2862 Z"
     fill="#77216f"
     fill-rule="evenodd"
     id="path4"
     style="fill:#00ff00" />
  <path
     d="m 37,37 h 3 v 3 h -3 z"
     fill="#77216f"
     id="path6" />
  <path
     d="m 38,38 h 1 v 1 h -1 z"
     fill="#ffffff"
     id="path8" />
  <path
     d="m 21,35 h 3 v 3 h -3 z"
     fill="#77216f"
     id="path10" />
  <path
     d="m 22,36 h 1 v 1 h -1 z"
     fill="#ffffff"
     id="path12" />
  <path
     d="m 29.417969,13.9015 -10.384766,9.3457 -0.02734,0.1758 -3.091797,19.5761 h 27.0625 l 1.03711,-21.8008 z"
     fill="#e95420"
     fill-rule="evenodd"
     id="path14"
     style="fill:#00ff00" />
  <path
     d="m 29.417969,13.9015 -10.384766,9.3457 -0.02734,0.1758 -3.091797,19.5761 h 27.0625 l 1.03711,-21.8008 z"
     fill="#e95420"
     fill-rule="evenodd"
     id="path178"
     style="fill:#ffffff;opacity:0.4" />
  <path
     d="M 29,6 V 28.6328 L 9.83203,17.5664 9.33203,18.4336 28.5,29.5 v 0.293 L 12.88281,45.4102 13.58984,46.1172 29.5,30.207 45.41016,46.1172 46.11719,45.4102 30.5,29.793 V 29.5 l 19.16797,-11.0664 -0.5,-0.8672 L 30,28.6328 V 6 Z"
     fill="#232629"
     id="path16" />
  <g
     fill="#e95420"
     id="g26"
     transform="translate(0,-1000.3622)"
     style="fill:#00ff00">
    <path
       d="m 19,1024.3622 h 1 v 1 h -1 z"
       id="path18"
       style="fill:#00ff00" />
    <path
       d="m 20,1023.3622 h 1 v 1 h -1 z"
       id="path20"
       style="fill:#00ff00" />
    <path
       d="m 19,1022.3622 h 1 v 1 h -1 z"
       id="path22"
       style="fill:#00ff00" />
    <path
       d="m 18,1023.3622 h 1 v 1 h -1 z"
       id="path24"
       style="fill:#00ff00" />
  </g>
  <path
     d="m 19,23 h 1 v 1 h -1 z"
     fill="#ffffff"
     id="path28" />
  <path
     d="m 47,17 h 3 v 3 h -3 z"
     fill="#77216f"
     id="path30"
     style="fill:#00ff00" />
  <path
     d="m 48,18 h 1 v 1 h -1 z"
     fill="#ffffff"
     id="path32" />
  <path
     d="m 9,17 h 3 v 3 H 9 Z"
     fill="#77216f"
     id="path34"
     style="fill:#00ff00" />
  <path
     d="m 10,18 h 1 v 1 h -1 z"
     fill="#ffffff"
     id="path36" />
  <path
     d="m 28,7 h 3 v 3 h -3 z"
     fill="#77216f"
     id="path38"
     style="fill:#00ff00" />
  <path
     d="m 29,8 h 1 v 1 h -1 z"
     fill="#ffffff"
     id="path40" />
  <g
     fill="#e95420"
     id="g50"
     transform="translate(0,-1000.3622)"
     style="fill:#00ff00">
    <path
       d="m 29,1015.3622 h 1 v 1 h -1 z"
       id="path42"
       style="fill:#00ff00" />
    <path
       d="m 30,1014.3622 h 1 v 1 h -1 z"
       id="path44"
       style="fill:#00ff00" />
    <path
       d="m 29,1013.3622 h 1 v 1 h -1 z"
       id="path46"
       style="fill:#00ff00" />
    <path
       d="m 28,1014.3622 h 1 v 1 h -1 z"
       id="path48"
       style="fill:#00ff00" />
  </g>
  <path
     d="m 29,14 h 1 v 1 h -1 z"
     fill="#ffffff"
     id="path52" />
  <g
     fill="#e95420"
     id="g62"
     transform="translate(0,-1000.3622)"
     style="fill:#00ff00">
    <path
       d="m 43,1022.3622 h 1 v 1 h -1 z"
       id="path54"
       style="fill:#00ff00" />
    <path
       d="m 44,1021.3622 h 1 v 1 h -1 z"
       id="path56"
       style="fill:#00ff00" />
    <path
       d="m 43,1020.3622 h 1 v 1 h -1 z"
       id="path58"
       style="fill:#00ff00" />
    <path
       d="m 42,1021.3622 h 1 v 1 h -1 z"
       id="path60"
       style="fill:#00ff00" />
  </g>
  <path
     d="m 43,21 h 1 v 1 h -1 z"
     fill="#ffffff"
     id="path64" />
  <g
     fill="#e95420"
     id="g74"
     transform="translate(0,-1000.3622)"
     style="fill:#00ff00">
    <path
       d="m 42,1043.3622 h 1 v 1 h -1 z"
       id="path66"
       style="fill:#00ff00" />
    <path
       d="m 43,1042.3622 h 1 v 1 h -1 z"
       id="path68"
       style="fill:#00ff00" />
    <path
       d="m 42,1041.3622 h 1 v 1 h -1 z"
       id="path70"
       style="fill:#00ff00" />
    <path
       d="m 41,1042.3622 h 1 v 1 h -1 z"
       id="path72"
       style="fill:#00ff00" />
  </g>
  <path
     d="m 42,42 h 1 v 1 h -1 z"
     fill="#ffffff"
     id="path76" />
  <g
     fill="#e95420"
     id="g86"
     transform="translate(0,-1000.3622)"
     style="fill:#00ff00">
    <path
       d="m 16,1043.3622 h 1 v 1 h -1 z"
       id="path78"
       style="fill:#00ff00" />
    <path
       d="m 17,1042.3622 h 1 v 1 h -1 z"
       id="path80"
       style="fill:#00ff00" />
    <path
       d="m 16,1041.3622 h 1 v 1 h -1 z"
       id="path82"
       style="fill:#00ff00" />
    <path
       d="m 15,1042.3622 h 1 v 1 h -1 z"
       id="path84"
       style="fill:#00ff00" />
  </g>
  <path
     d="m 16,42 h 1 v 1 h -1 z"
     fill="#ffffff"
     id="path88" />
  <g
     fill="#e95420"
     id="g224"
     transform="translate(0,-1000.3622)"
     style="fill:#ffffff;opacity:0.4">
    <path
       d="m 19,1024.3622 h 1 v 1 h -1 z"
       id="path216"
       style="fill:#ffffff" />
    <path
       d="m 20,1023.3622 h 1 v 1 h -1 z"
       id="path218"
       style="fill:#ffffff" />
    <path
       d="m 19,1022.3622 h 1 v 1 h -1 z"
       id="path220"
       style="fill:#ffffff" />
    <path
       d="m 18,1023.3622 h 1 v 1 h -1 z"
       id="path222"
       style="fill:#ffffff" />
  </g>
  <g
     fill="#e95420"
     id="g234"
     transform="translate(0,-1000.3622)"
     style="fill:#ffffff;opacity:0.4">
    <path
       d="m 29,1015.3622 h 1 v 1 h -1 z"
       id="path226"
       style="fill:#ffffff" />
    <path
       d="m 30,1014.3622 h 1 v 1 h -1 z"
       id="path228"
       style="fill:#ffffff" />
    <path
       d="m 29,1013.3622 h 1 v 1 h -1 z"
       id="path230"
       style="fill:#ffffff" />
    <path
       d="m 28,1014.3622 h 1 v 1 h -1 z"
       id="path232"
       style="fill:#ffffff" />
  </g>
  <g
     fill="#e95420"
     id="g244"
     transform="translate(0,-1000.3622)"
     style="fill:#ffffff;opacity:0.4">
    <path
       d="m 43,1022.3622 h 1 v 1 h -1 z"
       id="path236"
       style="fill:#ffffff" />
    <path
       d="m 44,1021.3622 h 1 v 1 h -1 z"
       id="path238"
       style="fill:#ffffff" />
    <path
       d="m 43,1020.3622 h 1 v 1 h -1 z"
       id="path240"
       style="fill:#ffffff" />
    <path
       d="m 42,1021.3622 h 1 v 1 h -1 z"
       id="path242"
       style="fill:#ffffff" />
  </g>
  <g
     fill="#e95420"
     id="g254"
     transform="translate(0,-1000.3622)"
     style="fill:#ffffff;opacity:0.4">
    <path
       d="m 42,1043.3622 h 1 v 1 h -1 z"
       id="path246"
       style="fill:#ffffff" />
    <path
       d="m 43,1042.3622 h 1 v 1 h -1 z"
       id="path248"
       style="fill:#ffffff" />
    <path
       d="m 42,1041.3622 h 1 v 1 h -1 z"
       id="path250"
       style="fill:#ffffff" />
    <path
       d="m 41,1042.3622 h 1 v 1 h -1 z"
       id="path252"
       style="fill:#ffffff" />
  </g>
  <g
     fill="#e95420"
     id="g264"
     transform="translate(0,-1000.3622)"
     style="fill:#ffffff;opacity:0.4">
    <path
       d="m 16,1043.3622 h 1 v 1 h -1 z"
       id="path256"
       style="fill:#ffffff" />
    <path
       d="m 17,1042.3622 h 1 v 1 h -1 z"
       id="path258"
       style="fill:#ffffff" />
    <path
       d="m 16,1041.3622 h 1 v 1 h -1 z"
       id="path260"
       style="fill:#ffffff" />
    <path
       d="m 15,1042.3622 h 1 v 1 h -1 z"
       id="path262"
       style="fill:#ffffff" />
  </g>
</svg>
