<?xml version="1.0" encoding="UTF-8" standalone="no"?>
<svg
   height="52"
   viewBox="0 0 60 52"
   width="60"
   version="1.1"
   id="svg102"
   sodipodi:docname="netstackfill_52x60.svg"
   inkscape:version="1.1.2 (76b9e6a115, 2022-02-25)"
   xmlns:inkscape="http://www.inkscape.org/namespaces/inkscape"
   xmlns:sodipodi="http://sodipodi.sourceforge.net/DTD/sodipodi-0.dtd"
   xmlns="http://www.w3.org/2000/svg"
   xmlns:svg="http://www.w3.org/2000/svg"
   xmlns:rdf="http://www.w3.org/1999/02/22-rdf-syntax-ns#"
   xmlns:cc="http://creativecommons.org/ns#"
   xmlns:dc="http://purl.org/dc/elements/1.1/">
  <metadata
     id="metadata108">
    <rdf:RDF>
      <cc:Work
         rdf:about="">
        <dc:format>image/svg+xml</dc:format>
        <dc:type
           rdf:resource="http://purl.org/dc/dcmitype/StillImage" />
      </cc:Work>
    </rdf:RDF>
  </metadata>
  <defs
     id="defs106" />
  <sodipodi:namedview
     pagecolor="#ffffff"
     bordercolor="#666666"
     borderopacity="1"
     objecttolerance="10"
     gridtolerance="10"
     guidetolerance="10"
     inkscape:pageopacity="0"
     inkscape:pageshadow="2"
     inkscape:window-width="1852"
     inkscape:window-height="1016"
     id="namedview104"
     showgrid="false"
     inkscape:zoom="17.351824"
     inkscape:cx="29.362907"
     inkscape:cy="26.884782"
     inkscape:window-x="0"
     inkscape:window-y="0"
     inkscape:window-maximized="1"
     inkscape:current-layer="svg102"
     inkscape:pagecheckerboard="0" />
  <radialGradient
     id="a"
     cx="30"
     cy="1029.7749"
     gradientTransform="matrix(1,0,0,1.1746638,-3.6556603e-7,-1180.6393)"
     gradientUnits="userSpaceOnUse"
     r="19.580078">
    <stop
       offset="0"
       stop-color="#77216f"
       id="stop2" />
    <stop
       offset="1"
       stop-color="#a25f9e"
       id="stop4" />
  </radialGradient>
  <radialGradient
     id="b"
     cx="30"
     cy="1029.3624"
     gradientTransform="matrix(1.4313889,2.5e-6,-2.92e-6,1.6699521,-12.938661,-1689.9861)"
     gradientUnits="userSpaceOnUse"
     r="12.575197">
    <stop
       offset="0"
       stop-color="#e95420"
       id="stop7" />
    <stop
       offset="1"
       stop-color="#fe865c"
       id="stop9" />
  </radialGradient>
  <path
     d="m 0,0 h 60 v 52 h -60 z"
     fill="#ffffff"
     id="path12" />
  <path
     d="m 29.500001,7.9347 -19.5800791,10.3047 0.095703,0.3808 6.09375,24.3789 h 26.781251 l 6.189452,-24.7597 z"
     fill="url(#a)"
     fill-rule="evenodd"
     id="path14"
     style="fill:#00ff00;stroke-width:0.999998;fill-opacity:1" />
  <path
     d="m 29.417969,13.9015 -10.470703,9.4238 0.06641,0.2871 3.078125,13.3399 16.767578,2.0976 5.238281,-17.8105 z"
     fill="url(#b)"
     fill-rule="evenodd"
     id="path16"
     style="fill:#00ff00;fill-opacity:1" />
  <path
     d="m 29.417969,13.9015 -10.470703,9.4238 0.06641,0.2871 3.078125,13.3399 16.767578,2.0976 5.238281,-17.8105 z"
     fill="url(#b)"
     fill-rule="evenodd"
     id="path110"
     style="fill:#ffffff;fill-opacity:1;opacity:0.4" />
  <path
     d="m 29,6 v 22.6328 l -19.167969,-11.0664 -0.4999999,0.8672 19.1679689,11.0664 v 0.293 l -15.617188,15.6172 0.707032,0.707 15.910156,-15.9102 15.910156,15.9102 0.707032,-0.707 -15.617188,-15.6172 v -0.293 l 19.167969,-11.0664 -0.5,-0.8672 -19.167969,11.0664 v -22.6328 z"
     fill="#232629"
     id="path18" />
  <g
     fill="#e95420"
     id="g28"
     transform="translate(0,-1000.3622)"
     style="fill:#00ff00">
    <path
       d="m 19,1024.3622 h 1 v 1 h -1 z"
       id="path20"
       style="fill:#00ff00" />
    <path
       d="m 20,1023.3622 h 1 v 1 h -1 z"
       id="path22"
       style="fill:#00ff00" />
    <path
       d="m 19,1022.3622 h 1 v 1 h -1 z"
       id="path24"
       style="fill:#00ff00" />
    <path
       d="m 18,1023.3622 h 1 v 1 h -1 z"
       id="path26"
       style="fill:#00ff00" />
  </g>
  <path
     d="m 19,23 h 1 v 1 h -1 z"
     fill="#ffffff"
     id="path30" />
  <path
     d="m 47,17 h 3 v 3 h -3 z"
     fill="#77216f"
     id="path32"
     style="fill:#00ff00" />
  <path
     d="m 48,18 h 1 v 1 h -1 z"
     fill="#ffffff"
     id="path34" />
  <path
     d="m 41,41 h 3 v 3 h -3 z"
     fill="#77216f"
     id="path36"
     style="fill:#00ff00" />
  <path
     d="m 42,42 h 1 v 1 h -1 z"
     fill="#ffffff"
     id="path38" />
  <path
     d="m 15,41 h 3 v 3 h -3 z"
     fill="#77216f"
     id="path40"
     style="fill:#00ff00" />
  <path
     d="m 16,42 h 1 v 1 h -1 z"
     fill="#ffffff"
     id="path42" />
  <path
     d="m 9,17 h 3 v 3 h -3 z"
     fill="#77216f"
     id="path44"
     style="fill:#00ff00" />
  <path
     d="m 10,18 h 1 v 1 h -1 z"
     fill="#ffffff"
     id="path46" />
  <path
     d="m 28,7 h 3 v 3 h -3 z"
     fill="#77216f"
     id="path48"
     style="fill:#00ff00" />
  <path
     d="m 29,8 h 1 v 1 h -1 z"
     fill="#ffffff"
     id="path50" />
  <g
     fill="#e95420"
     id="g60"
     transform="translate(0,-1000.3622)"
     style="fill:#00ff00">
    <path
       d="m 29,1015.3622 h 1 v 1 h -1 z"
       id="path52"
       style="fill:#00ff00" />
    <path
       d="m 30,1014.3622 h 1 v 1 h -1 z"
       id="path54"
       style="fill:#00ff00" />
    <path
       d="m 29,1013.3622 h 1 v 1 h -1 z"
       id="path56"
       style="fill:#00ff00" />
    <path
       d="m 28,1014.3622 h 1 v 1 h -1 z"
       id="path58"
       style="fill:#00ff00" />
  </g>
  <path
     d="m 29,14 h 1 v 1 h -1 z"
     fill="#ffffff"
     id="path62" />
  <g
     fill="#e95420"
     id="g72"
     transform="translate(0,-1000.3622)"
     style="fill:#00ff00">
    <path
       d="m 43,1022.3622 h 1 v 1 h -1 z"
       id="path64"
       style="fill:#00ff00" />
    <path
       d="m 44,1021.3622 h 1 v 1 h -1 z"
       id="path66"
       style="fill:#00ff00" />
    <path
       d="m 43,1020.3622 h 1 v 1 h -1 z"
       id="path68"
       style="fill:#00ff00" />
    <path
       d="m 42,1021.3622 h 1 v 1 h -1 z"
       id="path70"
       style="fill:#00ff00" />
  </g>
  <path
     d="m 43,21 h 1 v 1 h -1 z"
     fill="#ffffff"
     id="path74" />
  <g
     fill="#e95420"
     id="g84"
     transform="translate(0,-1000.3622)"
     style="fill:#00ff00">
    <path
       d="m 38,1039.3622 h 1 v 1 h -1 z"
       id="path76"
       style="fill:#00ff00" />
    <path
       d="m 39,1038.3622 h 1 v 1 h -1 z"
       id="path78"
       style="fill:#00ff00" />
    <path
       d="m 38,1037.3622 h 1 v 1 h -1 z"
       id="path80"
       style="fill:#00ff00" />
    <path
       d="m 37,1038.3622 h 1 v 1 h -1 z"
       id="path82"
       style="fill:#00ff00" />
  </g>
  <path
     d="m 38,38 h 1 v 1 h -1 z"
     fill="#ffffff"
     id="path86" />
  <g
     fill="#e95420"
     id="g96"
     transform="translate(0,-1000.3622)"
     style="fill:#00ff00">
    <path
       d="m 22,1037.3622 h 1 v 1 h -1 z"
       id="path88"
       style="fill:#00ff00" />
    <path
       d="m 23,1036.3622 h 1 v 1 h -1 z"
       id="path90"
       style="fill:#00ff00" />
    <path
       d="m 22,1035.3622 h 1 v 1 h -1 z"
       id="path92"
       style="fill:#00ff00" />
    <path
       d="m 21,1036.3622 h 1 v 1 h -1 z"
       id="path94"
       style="fill:#00ff00" />
  </g>
  <path
     d="m 22,36 h 1 v 1 h -1 z"
     fill="#ffffff"
     id="path98" />
  <g
     fill="#e95420"
     id="g174"
     transform="translate(0,-1000.3622)"
     style="fill:#ffffff;opacity:0.4">
    <path
       d="m 19,1024.3622 h 1 v 1 h -1 z"
       id="path166"
       style="fill:#ffffff" />
    <path
       d="m 20,1023.3622 h 1 v 1 h -1 z"
       id="path168"
       style="fill:#ffffff" />
    <path
       d="m 19,1022.3622 h 1 v 1 h -1 z"
       id="path170"
       style="fill:#ffffff" />
    <path
       d="m 18,1023.3622 h 1 v 1 h -1 z"
       id="path172"
       style="fill:#ffffff" />
  </g>
  <g
     fill="#e95420"
     id="g184"
     transform="translate(0,-1000.3622)"
     style="fill:#ffffff;opacity:0.4">
    <path
       d="m 29,1015.3622 h 1 v 1 h -1 z"
       id="path176"
       style="fill:#ffffff" />
    <path
       d="m 30,1014.3622 h 1 v 1 h -1 z"
       id="path178"
       style="fill:#ffffff" />
    <path
       d="m 29,1013.3622 h 1 v 1 h -1 z"
       id="path180"
       style="fill:#ffffff" />
    <path
       d="m 28,1014.3622 h 1 v 1 h -1 z"
       id="path182"
       style="fill:#ffffff" />
  </g>
  <g
     fill="#e95420"
     id="g194"
     transform="translate(0,-1000.3622)"
     style="fill:#ffffff;opacity:0.4">
    <path
       d="m 43,1022.3622 h 1 v 1 h -1 z"
       id="path186"
       style="fill:#ffffff" />
    <path
       d="m 44,1021.3622 h 1 v 1 h -1 z"
       id="path188"
       style="fill:#ffffff" />
    <path
       d="m 43,1020.3622 h 1 v 1 h -1 z"
       id="path190"
       style="fill:#ffffff" />
    <path
       d="m 42,1021.3622 h 1 v 1 h -1 z"
       id="path192"
       style="fill:#ffffff" />
  </g>
  <g
     fill="#e95420"
     id="g204"
     transform="translate(0,-1000.3622)"
     style="fill:#ffffff;opacity:0.4">
    <path
       d="m 38,1039.3622 h 1 v 1 h -1 z"
       id="path196"
       style="fill:#ffffff" />
    <path
       d="m 39,1038.3622 h 1 v 1 h -1 z"
       id="path198"
       style="fill:#ffffff" />
    <path
       d="m 38,1037.3622 h 1 v 1 h -1 z"
       id="path200"
       style="fill:#ffffff" />
    <path
       d="m 37,1038.3622 h 1 v 1 h -1 z"
       id="path202"
       style="fill:#ffffff" />
  </g>
  <g
     fill="#e95420"
     id="g214"
     transform="translate(0,-1000.3622)"
     style="fill:#ffffff;opacity:0.4">
    <path
       d="m 22,1037.3622 h 1 v 1 h -1 z"
       id="path206"
       style="fill:#ffffff" />
    <path
       d="m 23,1036.3622 h 1 v 1 h -1 z"
       id="path208"
       style="fill:#ffffff" />
    <path
       d="m 22,1035.3622 h 1 v 1 h -1 z"
       id="path210"
       style="fill:#ffffff" />
    <path
       d="m 21,1036.3622 h 1 v 1 h -1 z"
       id="path212"
       style="fill:#ffffff" />
  </g>
</svg>
