<?xml version="1.0" encoding="UTF-8" standalone="no"?>
<svg
   height="52"
   viewBox="0 0 60 52"
   width="60"
   version="1.1"
   id="svg34"
   sodipodi:docname="nostackdirectboth_52x60.svg"
   inkscape:version="1.1.2 (76b9e6a115, 2022-02-25)"
   xmlns:inkscape="http://www.inkscape.org/namespaces/inkscape"
   xmlns:sodipodi="http://sodipodi.sourceforge.net/DTD/sodipodi-0.dtd"
   xmlns="http://www.w3.org/2000/svg"
   xmlns:svg="http://www.w3.org/2000/svg">
  <defs
     id="defs38" />
  <sodipodi:namedview
     id="namedview36"
     pagecolor="#ffffff"
     bordercolor="#666666"
     borderopacity="1.0"
     inkscape:pageshadow="2"
     inkscape:pageopacity="0.0"
     inkscape:pagecheckerboard="0"
     showgrid="false"
     inkscape:zoom="15.038462"
     inkscape:cx="30.023017"
     inkscape:cy="25.966751"
     inkscape:window-width="1852"
     inkscape:window-height="1016"
     inkscape:window-x="0"
     inkscape:window-y="0"
     inkscape:window-maximized="1"
     inkscape:current-layer="svg34" />
  <path
     d="M 0,0 H 60 V 52 H 0 Z"
     fill="#ffffff"
     id="path2" />
  <path
     style="color:#000000;fill:#00ff00;-inkscape-stroke:none"
     d="M 41.421875,8.8710938 20.5,29.792969 11.853516,21.146484 11.146484,21.853516 20.5,31.207031 41.578125,10.128906 l 9.664062,5.798828 0.513672,-0.857421 z"
     id="path4" />
  <path
     d="m 19,29 h 3 v 3 h -3 z"
     id="path26"
     style="fill:#00ff00" />
  <path
     d="m 10,20 h 3 v 3 h -3 z"
     id="path28"
     style="fill:#00ff00" />
  <path
     d="m 40,8 h 3 v 3 h -3 z"
     id="path24"
     style="fill:#00ff00" />
  <path
     d="m 50,14 h 3 v 3 h -3 z"
     id="path22"
     style="fill:#00ff00" />
  <path
     id="path117"
     style="color:#000000;fill:#ffffff;-inkscape-stroke:none;opacity:0.4"
     d="M 40 8 L 40 10.292969 L 21.292969 29 L 19.707031 29 L 13 22.292969 L 13 20 L 10 20 L 10 23 L 12.292969 23 L 19 29.707031 L 19 32 L 22 32 L 22 29.707031 L 40.707031 11 L 43 11 L 43 10.982422 L 50 15.181641 L 50 17 L 53 17 L 53 14 L 50 14 L 50 14.017578 L 43 9.8183594 L 43 8 L 40 8 z " />
  <path
     d="m 11.49996,11.4 14,-4.9998 15,30 L 51.5,27.5"
     fill="none"
     stroke="#77216f"
     id="path6"
     style="stroke:#00ff00" />
  <path
     d="m 3,45 h 52 v 1 H 3 Z"
     fill="#232629"
     id="path8" />
  <path
     d="M 6,3 H 7 V 49 H 6 Z"
     fill="#232629"
     id="path10" />
  <path
     d="m 10,10 h 3 v 3 h -3 z"
     id="path12"
     style="fill:#00ff00" />
  <path
     d="m 24,5 h 3 v 3 h -3 z"
     id="path14"
     style="fill:#00ff00" />
  <path
     d="m 39,35 h 3 v 3 h -3 z"
     id="path16"
     style="fill:#00ff00" />
  <path
     d="m 50,26 h 3 v 3 h -3 z"
     id="path18"
     style="fill:#00ff00" />
</svg>
