<?xml version="1.0" encoding="UTF-8" standalone="no"?>
<svg
   xmlns:dc="http://purl.org/dc/elements/1.1/"
   xmlns:cc="http://creativecommons.org/ns#"
   xmlns:rdf="http://www.w3.org/1999/02/22-rdf-syntax-ns#"
   xmlns:svg="http://www.w3.org/2000/svg"
   xmlns="http://www.w3.org/2000/svg"
   xmlns:sodipodi="http://sodipodi.sourceforge.net/DTD/sodipodi-0.dtd"
   xmlns:inkscape="http://www.inkscape.org/namespaces/inkscape"
   height="52"
   viewBox="0 0 60 52"
   width="60"
   version="1.1"
   id="svg28"
   sodipodi:docname="nostackdirect3d_52x60.svg"
   inkscape:version="1.0.1 (3bc2e813f5, 2020-09-07)">
  <metadata
     id="metadata34">
    <rdf:RDF>
      <cc:Work
         rdf:about="">
        <dc:format>image/svg+xml</dc:format>
        <dc:type
           rdf:resource="http://purl.org/dc/dcmitype/StillImage" />
      </cc:Work>
    </rdf:RDF>
  </metadata>
  <defs
     id="defs32" />
  <sodipodi:namedview
     pagecolor="#ffffff"
     bordercolor="#666666"
     borderopacity="1"
     objecttolerance="10"
     gridtolerance="10"
     guidetolerance="10"
     inkscape:pageopacity="0"
     inkscape:pageshadow="2"
     inkscape:window-width="1920"
     inkscape:window-height="1016"
     id="namedview30"
     showgrid="false"
     inkscape:zoom="11.966422"
     inkscape:cx="22.457913"
     inkscape:cy="17.126513"
     inkscape:window-x="1920"
     inkscape:window-y="27"
     inkscape:window-maximized="1"
     inkscape:current-layer="svg28" />
  <path
     d="m 0,0 h 60 v 52 h -60 z"
     fill="#ffffff"
     id="path2" />
  <path
     d="m 3,45 h 52 v 1 h -52 z"
     fill="#232629"
     id="path4" />
  <path
     d="m 6,3 h 1 v 46 h -1 z"
     fill="#232629"
     id="path6" />
  <path
     d="m 14.285714,7.9554 14.410714,-4.9777 -2.977678,2.9554 -14.433036,5.0223 z"
     fill="#987197"
     id="path8"
     style="fill:#b87ab2;fill-opacity:1" />
  <path
     d="m 28.669643,2.933 14.946429,29.7321 -3.044643,3.134 -14.901786,-29.8661 z"
     fill="#945c93"
     id="path10"
     style="fill:#a6599f;fill-opacity:1" />
  <path
     d="m 43.580357,32.6429 10.772321,-8.6607 -3.200892,3.2902 -10.616072,8.5491 z"
     fill="#987197"
     id="path12"
     style="fill:#b87ab2;fill-opacity:1" />
  <path
     d="m 44.294643,5.9465 10.579473,6.1556 -3.157836,3.0947 -10.421637,-6.2503 z"
     fill="#fe865c"
     id="path14"
     style="fill:#f08966;fill-opacity:1" />
  <path
     d="m 23.446429,26.7946 20.838835,-20.866 -2.842164,3.0632 -20.996671,20.8028 z"
     fill="#fe865c"
     id="path16" />
  <path
     d="m 14.820749,18.1894 8.748572,8.6494 -3.12627,3.2526 -8.622302,-8.902 z"
     fill="#fe865c"
     id="path18"
     style="fill:#f08966;fill-opacity:1" />
  <g
     fill="none"
     id="g24"
     transform="translate(0,-1000.3622)">
    <path
       d="m 11.49996,1011.7622 14,-4.9998 15,30 11.00004,-8.9002"
       stroke="#77216f"
       id="path20" />
    <path
       d="m 11.499553,1021.8618 9,9 21.000447,-20.9996 9.999553,5.9996"
       stroke="#e95420"
       id="path22" />
  </g>
</svg>
