<?xml version="1.0" encoding="UTF-8" standalone="no"?>
<svg
   height="52"
   viewBox="0 0 60 52"
   width="60"
   version="1.1"
   id="svg28"
   sodipodi:docname="nostackdirectpoints_52x60.svg"
   inkscape:version="1.1.2 (76b9e6a115, 2022-02-25)"
   xmlns:inkscape="http://www.inkscape.org/namespaces/inkscape"
   xmlns:sodipodi="http://sodipodi.sourceforge.net/DTD/sodipodi-0.dtd"
   xmlns="http://www.w3.org/2000/svg"
   xmlns:svg="http://www.w3.org/2000/svg">
  <defs
     id="defs32" />
  <sodipodi:namedview
     id="namedview30"
     pagecolor="#ffffff"
     bordercolor="#666666"
     borderopacity="1.0"
     inkscape:pageshadow="2"
     inkscape:pageopacity="0.0"
     inkscape:pagecheckerboard="0"
     showgrid="false"
     inkscape:zoom="15.038462"
     inkscape:cx="30.023018"
     inkscape:cy="25.966752"
     inkscape:window-width="1852"
     inkscape:window-height="1016"
     inkscape:window-x="0"
     inkscape:window-y="0"
     inkscape:window-maximized="1"
     inkscape:current-layer="svg28" />
  <path
     d="m0 0h60v52h-60z"
     fill="#fff"
     id="path2" />
  <path
     d="m3 45h52v1h-52z"
     fill="#232629"
     id="path4" />
  <path
     d="m6 3h1v45.999962h-1z"
     fill="#232629"
     id="path6" />
  <g
     fill="#77216f"
     id="g16"
     style="fill:#00ff00">
    <path
       d="m10 10h3v3h-3z"
       id="path8"
       style="fill:#00ff00" />
    <path
       d="m24 5h3v3h-3z"
       id="path10"
       style="fill:#00ff00" />
    <path
       d="m39 35h3v3h-3z"
       id="path12"
       style="fill:#00ff00" />
    <path
       d="m50 26h3v3h-3z"
       id="path14"
       style="fill:#00ff00" />
  </g>
  <g
     fill="#e95420"
     id="g26"
     style="fill:#00ff00">
    <path
       d="m50 14h3v3h-3z"
       id="path18"
       style="fill:#00ff00" />
    <path
       d="m40 8h3v3h-3z"
       id="path20"
       style="fill:#00ff00" />
    <path
       d="m19 29h3v3h-3z"
       id="path22"
       style="fill:#00ff00" />
    <path
       d="m10 20h3v3h-3z"
       id="path24"
       style="fill:#00ff00" />
  </g>
  <g
     fill="#e95420"
     id="g78"
     style="fill:#ffffff;opacity:0.4">
    <path
       d="m50 14h3v3h-3z"
       id="path70"
       style="fill:#ffffff" />
    <path
       d="m40 8h3v3h-3z"
       id="path72"
       style="fill:#ffffff" />
    <path
       d="m19 29h3v3h-3z"
       id="path74"
       style="fill:#ffffff" />
    <path
       d="m10 20h3v3h-3z"
       id="path76"
       style="fill:#ffffff" />
  </g>
</svg>
