<?xml version="1.0" encoding="UTF-8" standalone="no"?>
<svg
   height="52"
   viewBox="0 0 60 52"
   width="60"
   version="1.1"
   id="svg68"
   sodipodi:docname="nostackstepped3d_52x60.svg"
   inkscape:version="1.1.2 (76b9e6a115, 2022-02-25)"
   xmlns:inkscape="http://www.inkscape.org/namespaces/inkscape"
   xmlns:sodipodi="http://sodipodi.sourceforge.net/DTD/sodipodi-0.dtd"
   xmlns="http://www.w3.org/2000/svg"
   xmlns:svg="http://www.w3.org/2000/svg"
   xmlns:rdf="http://www.w3.org/1999/02/22-rdf-syntax-ns#"
   xmlns:cc="http://creativecommons.org/ns#"
   xmlns:dc="http://purl.org/dc/elements/1.1/">
  <metadata
     id="metadata74">
    <rdf:RDF>
      <cc:Work
         rdf:about="">
        <dc:format>image/svg+xml</dc:format>
        <dc:type
           rdf:resource="http://purl.org/dc/dcmitype/StillImage" />
      </cc:Work>
    </rdf:RDF>
  </metadata>
  <defs
     id="defs72" />
  <sodipodi:namedview
     pagecolor="#ffffff"
     bordercolor="#666666"
     borderopacity="1"
     objecttolerance="10"
     gridtolerance="10"
     guidetolerance="10"
     inkscape:pageopacity="0"
     inkscape:pageshadow="2"
     inkscape:window-width="1852"
     inkscape:window-height="1016"
     id="namedview70"
     showgrid="false"
     inkscape:zoom="13.419471"
     inkscape:cx="51.119749"
     inkscape:cy="10.469861"
     inkscape:window-x="0"
     inkscape:window-y="0"
     inkscape:window-maximized="1"
     inkscape:current-layer="svg68"
     inkscape:pagecheckerboard="0" />
  <path
     d="m 0,0 h 60 v 52 h -60 z"
     fill="#ffffff"
     id="path2" />
  <path
     d="m 3,45 h 52 v 1 h -52 z"
     fill="#232629"
     id="path4" />
  <path
     d="m 6,3 h 1 v 46 h -1 z"
     fill="#232629"
     id="path6" />
  <g
     fill="#77216f"
     id="g20"
     transform="translate(0,-1000.3622)"
     style="fill:#00ff00">
    <path
       d="m 11,1011.3622 h 15 v 1 h -15 z"
       id="path8"
       style="fill:#00ff00" />
    <path
       d="m 25,1006.3622 h 1 v 5 h -1 z"
       id="path10"
       style="fill:#00ff00" />
    <path
       d="m 36,1006.3622 h 1 v 31 h -1 z"
       id="path12"
       style="fill:#00ff00" />
    <path
       d="m 26,1006.3622 h 12 v 1 h -12 z"
       id="path14"
       style="fill:#00ff00" />
    <path
       d="m 37,1036.3622 h 15 v 1 h -15 z"
       id="path16"
       style="fill:#00ff00" />
    <path
       d="m 51,1027.3622 h 1 v 9 h -1 z"
       id="path18"
       style="fill:#00ff00" />
  </g>
  <path
     d="m 51,36 h -14 l 3,-3 h 11 z"
     fill="#987197"
     id="path32"
     style="fill-rule:evenodd;fill:#00ff00;fill-opacity:1" />
  <path
     d="m 42,10 v 21 l 3,-3 v -18 z"
     fill="#fe865c"
     id="path34"
     style="fill-rule:evenodd;fill:#00ff00;fill-opacity:1" />
  <path
     d="m 37,6 v 30 l 3,-3 v -30 z"
     fill="#945c93"
     id="path36"
     style="fill-rule:evenodd;fill:#00ff00;fill-opacity:1" />
  <path
     d="m 37,6 v 30 l 3,-3 v -30 z"
     fill="#945c93"
     id="path1169"
     style="fill-rule:evenodd;fill:#ffffff;fill-opacity:1;opacity:0.2" />
  <path
     d="m 41,30 h -20 l 3,-3 h 17 z"
     fill="#fe865c"
     id="path38"
     style="fill-rule:evenodd;fill:#00ff00;fill-opacity:1" />
  <path
     d="m 21,21 v 9 l 3,-3 v -9 z"
     fill="#fe865c"
     id="path40"
     style="fill-rule:evenodd;fill:#00ff00;fill-opacity:1" />
  <path
     id="path22"
     style="fill:#00ff00"
     d="M 41 9 L 41 10 L 41 30 L 21 30 L 21 22 L 21 21 L 11 21 L 11 22 L 20 22 L 20 31 L 21 31 L 41 31 L 42 31 L 42 30 L 42 10 L 51 10 L 51 16 L 52 16 L 52 9 L 41 9 z " />
  <path
     d="m 52,9 v 7 l 3,-3 v -7 z"
     fill="#fe865c"
     id="path42"
     style="fill-rule:evenodd;fill:#00ff00;fill-opacity:1" />
  <path
     d="m 37,6 h -12 l 3,-3 h 12 z"
     fill="#987197"
     id="path44"
     style="fill-rule:evenodd;fill:#00ff00;fill-opacity:1" />
  <path
     d="m 25,11 h -14 l 3,-3 h 11 z"
     fill="#987197"
     id="path46"
     style="fill-rule:evenodd;fill:#00ff00;fill-opacity:1" />
  <path
     d="m 26,7 v 5 l 3,-3 v -2 z"
     fill="#945c93"
     id="path48"
     style="fill-rule:evenodd;fill:#00ff00" />
  <path
     d="m 52,27 v 10 l 3,-3 v -7 z"
     fill="#945c93"
     id="path50"
     style="fill-rule:evenodd;fill:#00ff00;fill-opacity:1" />
  <g
     fill="#fe865c"
     id="g56"
     style="fill-rule:evenodd;fill:#00ff00;fill-opacity:1"
     transform="translate(0,-1000.3622)">
    <path
       d="m 21,1021.3622 h -10 l 3,-3 h 10 z"
       id="path52"
       style="fill:#00ff00;fill-opacity:1" />
    <path
       d="m 52,1009.3622 h -11 l 3,-3 h 11 z"
       id="path54"
       style="fill:#00ff00;fill-opacity:1" />
  </g>
  <path
     d="m 41,30 h -20 l 3,-3 h 17 z"
     fill="#fe865c"
     id="path888"
     style="fill-rule:evenodd;fill:#ffffff;fill-opacity:1;opacity:0.6" />
  <g
     fill="#fe865c"
     id="g894"
     style="fill-rule:evenodd;fill:#ffffff;fill-opacity:1;opacity:0.6"
     transform="translate(0,-1000.3622)">
    <path
       d="m 21,1021.3622 h -10 l 3,-3 h 10 z"
       id="path890"
       style="fill:#ffffff;fill-opacity:1" />
    <path
       d="m 52,1009.3622 h -11 l 3,-3 h 11 z"
       id="path892"
       style="fill:#ffffff;fill-opacity:1" />
  </g>
  <path
     d="m 42,10 v 21 l 3,-3 v -18 z"
     fill="#fe865c"
     id="path950"
     style="fill-rule:evenodd;fill:#ffffff;fill-opacity:1;opacity:0.5" />
  <path
     d="m 21,21 v 9 l 3,-3 v -9 z"
     fill="#fe865c"
     id="path952"
     style="fill-rule:evenodd;fill:#ffffff;fill-opacity:1;opacity:0.5" />
  <path
     d="m 52,9 v 7 l 3,-3 v -7 z"
     fill="#fe865c"
     id="path954"
     style="fill-rule:evenodd;fill:#ffffff;fill-opacity:1;opacity:0.5" />
  <path
     id="path1053"
     style="fill:#ffffff;opacity:0.4"
     d="M 41 9 L 41 10 L 41 30 L 21 30 L 21 22 L 21 21 L 11 21 L 11 22 L 20 22 L 20 31 L 21 31 L 41 31 L 42 31 L 42 30 L 42 10 L 51 10 L 51 16 L 52 16 L 52 9 L 41 9 z " />
  <path
     d="m 51,36 h -14 l 3,-3 h 11 z"
     fill="#987197"
     id="path1109"
     style="fill-rule:evenodd;fill:#ffffff;fill-opacity:1;opacity:0.3" />
  <path
     d="m 37,6 h -12 l 3,-3 h 12 z"
     fill="#987197"
     id="path1111"
     style="fill-rule:evenodd;fill:#ffffff;fill-opacity:1;opacity:0.3" />
  <path
     d="m 25,11 h -14 l 3,-3 h 11 z"
     fill="#987197"
     id="path1113"
     style="fill-rule:evenodd;fill:#ffffff;fill-opacity:1;opacity:0.3" />
  <path
     d="m 26,7 v 5 l 3,-3 v -2 z"
     fill="#945c93"
     id="path1171"
     style="fill-rule:evenodd;fill:#ffffff;opacity:0.2" />
  <path
     d="m 52,27 v 10 l 3,-3 v -7 z"
     fill="#945c93"
     id="path1173"
     style="fill-rule:evenodd;fill:#ffffff;fill-opacity:1;opacity:0.2" />
</svg>
