<?xml version="1.0" encoding="UTF-8" standalone="no"?>
<svg
   height="52"
   viewBox="0 0 60 52"
   width="60"
   version="1.1"
   id="svg28"
   sodipodi:docname="nostackdirect3d_52x60.svg"
   inkscape:version="1.1.2 (76b9e6a115, 2022-02-25)"
   xmlns:inkscape="http://www.inkscape.org/namespaces/inkscape"
   xmlns:sodipodi="http://sodipodi.sourceforge.net/DTD/sodipodi-0.dtd"
   xmlns="http://www.w3.org/2000/svg"
   xmlns:svg="http://www.w3.org/2000/svg"
   xmlns:rdf="http://www.w3.org/1999/02/22-rdf-syntax-ns#"
   xmlns:cc="http://creativecommons.org/ns#"
   xmlns:dc="http://purl.org/dc/elements/1.1/">
  <metadata
     id="metadata34">
    <rdf:RDF>
      <cc:Work
         rdf:about="">
        <dc:format>image/svg+xml</dc:format>
        <dc:type
           rdf:resource="http://purl.org/dc/dcmitype/StillImage" />
      </cc:Work>
    </rdf:RDF>
  </metadata>
  <defs
     id="defs32" />
  <sodipodi:namedview
     pagecolor="#ffffff"
     bordercolor="#666666"
     borderopacity="1"
     objecttolerance="10"
     gridtolerance="10"
     guidetolerance="10"
     inkscape:pageopacity="0"
     inkscape:pageshadow="2"
     inkscape:window-width="1852"
     inkscape:window-height="1016"
     id="namedview30"
     showgrid="false"
     inkscape:zoom="23.50816"
     inkscape:cx="34.838967"
     inkscape:cy="19.206097"
     inkscape:window-x="0"
     inkscape:window-y="0"
     inkscape:window-maximized="1"
     inkscape:current-layer="svg28"
     inkscape:pagecheckerboard="0" />
  <path
     d="m 0,0 h 60 v 52 h -60 z"
     fill="#ffffff"
     id="path2" />
  <path
     d="m 3,45 h 52 v 1 h -52 z"
     fill="#232629"
     id="path4" />
  <path
     d="m 6,3 h 1 v 46 h -1 z"
     fill="#232629"
     id="path6" />
  <path
     d="m 14.285714,7.9554 14.410714,-4.9777 -2.977678,2.9554 -14.433036,5.0223 z"
     fill="#987197"
     id="path8"
     style="fill:#00ff00;fill-opacity:1" />
  <path
     d="m 28.669643,2.933 14.946429,29.7321 -3.044643,3.134 -14.901786,-29.8661 z"
     fill="#945c93"
     id="path10"
     style="fill:#00ff00;fill-opacity:1" />
  <path
     d="m 28.669643,2.933 14.946429,29.7321 -3.044643,3.134 -14.901786,-29.8661 z"
     fill="#945c93"
     id="path1245"
     style="fill:#ffffff;fill-opacity:1;opacity:0.2" />
  <path
     d="m 43.580357,32.6429 10.772321,-8.6607 -3.200892,3.2902 -10.616072,8.5491 z"
     fill="#987197"
     id="path12"
     style="fill:#00ff00;fill-opacity:1" />
  <path
     d="m 44.294643,5.9465 10.579473,6.1556 -3.157836,3.0947 -10.421637,-6.2503 z"
     fill="#fe865c"
     id="path14"
     style="fill:#00ff00;fill-opacity:1" />
  <path
     d="m 23.446429,26.7946 20.838835,-20.866 -2.842164,3.0632 -20.996671,20.8028 z"
     fill="#fe865c"
     id="path16"
     style="fill:#00ff00" />
  <path
     d="m 14.820749,18.1894 8.748572,8.6494 -3.12627,3.2526 -8.622302,-8.902 z"
     fill="#fe865c"
     id="path18"
     style="fill:#00ff00;fill-opacity:1" />
  <path
     d="m 44.294643,5.9465 10.579473,6.1556 -3.157836,3.0947 -10.421637,-6.2503 z"
     fill="#fe865c"
     id="path851"
     style="fill:#ffffff;fill-opacity:1;opacity:0.6" />
  <path
     d="m 23.446429,26.7946 20.838835,-20.866 -2.842164,3.0632 -20.996671,20.8028 z"
     fill="#fe865c"
     id="path853"
     style="fill:#ffffff;opacity:0.6" />
  <path
     d="m 14.820749,18.1894 8.748572,8.6494 -3.12627,3.2526 -8.622302,-8.902 z"
     fill="#fe865c"
     id="path855"
     style="fill:#ffffff;fill-opacity:1;opacity:0.6" />
  <path
     d="m 14.285714,7.9554 14.410714,-4.9777 -2.977678,2.9554 -14.433036,5.0223 z"
     fill="#987197"
     id="path1151"
     style="fill:#ffffff;fill-opacity:1;opacity:0.3" />
  <path
     d="m 11.49996,11.4 14,-4.9998 15,30 L 51.5,27.5"
     stroke="#77216f"
     id="path20"
     style="fill:none;stroke:#00ff00" />
  <path
     d="m 11.499553,21.4996 9,9 L 41.5,9.5 l 9.999553,5.9996"
     stroke="#e95420"
     id="path22"
     style="fill:none;stroke:#00ff00" />
  <path
     d="m 11.499553,21.4996 9,9 L 41.5,9.5 l 9.999553,5.9996"
     stroke="#e95420"
     id="path1095"
     style="fill:none;stroke:#ffffff;opacity:0.4" />
  <path
     d="m 43.580357,32.6429 10.772321,-8.6607 -3.200892,3.2902 -10.616072,8.5491 z"
     fill="#987197"
     id="path1153"
     style="fill:#ffffff;fill-opacity:1;opacity:0.3" />
</svg>
