<?xml version="1.0" encoding="UTF-8" standalone="no"?>
<svg
   height="30"
   viewBox="0 0 15 17.307692"
   width="30"
   version="1.1"
   id="svg22"
   sodipodi:docname="regpow.svg"
   inkscape:version="1.1.2 (76b9e6a115, 2022-02-25)"
   xmlns:inkscape="http://www.inkscape.org/namespaces/inkscape"
   xmlns:sodipodi="http://sodipodi.sourceforge.net/DTD/sodipodi-0.dtd"
   xmlns="http://www.w3.org/2000/svg"
   xmlns:svg="http://www.w3.org/2000/svg">
  <defs
     id="defs26" />
  <sodipodi:namedview
     id="namedview24"
     pagecolor="#ffffff"
     bordercolor="#666666"
     borderopacity="1.0"
     inkscape:pageshadow="2"
     inkscape:pageopacity="0.0"
     inkscape:pagecheckerboard="0"
     showgrid="false"
     inkscape:zoom="26.066667"
     inkscape:cx="14.980818"
     inkscape:cy="14.980818"
     inkscape:window-width="1852"
     inkscape:window-height="1016"
     inkscape:window-x="0"
     inkscape:window-y="0"
     inkscape:window-maximized="1"
     inkscape:current-layer="svg22" />
  <path
     d="m.0000011 16.153846h14.9999989v-15h-14.9999989z"
     fill="#fff"
     id="path2" />
  <path
     d="m-.57692287 16.730769v-16.15384603h16.15384487v16.15384603zm.57692303-.576923h14.99999884v-15h-14.99999884z"
     fill="#232629"
     id="path4" />
  <g
     fill="#77216f"
     id="g18"
     style="fill:#00ff00">
    <path
       d="m.5769241 4.038461h1.153846v-1.153846h-1.153846z"
       id="path6"
       style="fill:#00ff00" />
    <path
       d="m2.8846158 6.923077h1.153846v-1.153846h-1.153846z"
       id="path8"
       style="fill:#00ff00" />
    <path
       d="m3.4615388 10.961538h1.153846v-1.1538457h-1.153846z"
       id="path10"
       style="fill:#00ff00" />
    <path
       d="m7.5 10.961538h1.1538459v-1.1538457h-1.1538459z"
       id="path12"
       style="fill:#00ff00" />
    <path
       d="m8.6538461 14.423076h1.1538459v-1.153846h-1.1538459z"
       id="path14"
       style="fill:#00ff00" />
    <path
       d="m12.692307 13.846154h1.153846v-1.153846h-1.153846z"
       id="path16"
       style="fill:#00ff00" />
  </g>
  <path
     d="m1.4423082 1.153846c.00423 6.3461538 6.0576919 13.057717 13.5576908 12.980769"
     fill="none"
     stroke="#e95420"
     stroke-width=".576923"
     id="path20"
     style="stroke:#00ff00" />
  <path
     d="m1.4423082 1.153846c.00423 6.3461538 6.0576919 13.057717 13.5576908 12.980769"
     fill="none"
     stroke="#e95420"
     stroke-width=".576923"
     id="path64"
     style="stroke:#ffffff;opacity:0.4" />
</svg>
