<?xml version="1.0" encoding="UTF-8" standalone="no"?>
<svg
   height="52"
   viewBox="0 0 60 52"
   width="60"
   version="1.1"
   id="svg36"
   sodipodi:docname="stacksmooth3d_52x60.svg"
   inkscape:version="1.1.2 (76b9e6a115, 2022-02-25)"
   xmlns:inkscape="http://www.inkscape.org/namespaces/inkscape"
   xmlns:sodipodi="http://sodipodi.sourceforge.net/DTD/sodipodi-0.dtd"
   xmlns="http://www.w3.org/2000/svg"
   xmlns:svg="http://www.w3.org/2000/svg">
  <defs
     id="defs40" />
  <sodipodi:namedview
     id="namedview38"
     pagecolor="#ffffff"
     bordercolor="#666666"
     borderopacity="1.0"
     inkscape:pageshadow="2"
     inkscape:pageopacity="0.0"
     inkscape:pagecheckerboard="0"
     showgrid="false"
     inkscape:zoom="21.089093"
     inkscape:cx="30.916456"
     inkscape:cy="23.637812"
     inkscape:window-width="1852"
     inkscape:window-height="1016"
     inkscape:window-x="0"
     inkscape:window-y="0"
     inkscape:window-maximized="1"
     inkscape:current-layer="svg36" />
  <path
     d="M 0,0 H 60 V 52 H 0 Z"
     fill="#ffffff"
     id="path2" />
  <path
     d="m 24,12 c -4.267414,2.9536 -8.062249,7.1673 -12,11 V 22 L 24.4375,9.5179 Z"
     fill="#945c93"
     id="path4"
     style="fill-rule:evenodd;fill:#00ff00" />
  <path
     d="m 24,12 c -4.267414,2.9536 -8.062249,7.1673 -12,11 V 22 L 24.4375,9.5179 Z"
     fill="#945c93"
     id="path1107"
     style="fill-rule:evenodd;fill:#ffffff;opacity:0.2" />
  <path
     d="M 35.642857,15.8929 C 30.347543,14.2947 25.513678,9.2482 20,13 29.010543,3.1465 29.669684,10.8951 39,12 Z"
     fill="#987197"
     id="path6"
     style="fill-rule:evenodd;fill:#00ff00" />
  <path
     d="M 35.642857,15.8929 C 30.347543,14.2947 25.513678,9.2482 20,13 29.010543,3.1465 29.669684,10.8951 39,12 Z"
     fill="#987197"
     id="path1051"
     style="fill-rule:evenodd;fill:#ffffff;opacity:0.3" />
  <path
     d="M 49.776786,6.7768 C 45.408181,9.561 40.735226,14.327 37,15 h -1 l 3,-3 12.705357,-8.5536 z"
     fill="#945c93"
     id="path8"
     style="fill-rule:evenodd;fill:#00ff00" />
  <path
     d="M 49.776786,6.7768 C 45.408181,9.561 40.735226,14.327 37,15 h -1 l 3,-3 12.705357,-8.5536 z"
     fill="#945c93"
     id="path1109"
     style="fill-rule:evenodd;fill:#ffffff;opacity:0.2" />
  <path
     id="path10"
     style="fill-rule:evenodd;fill:#00ff00"
     d="M 39 22 C 35.424807 22.4031 31.513892 23.5413 27 26 C 21.952388 28.719 16.3366 32.5252 12 37 L 24 29 L 36 26 L 36.746094 25.005859 L 49.464844 25.089844 L 53 22 L 39 22 z " />
  <path
     d="m 3,45 h 52 v 1 H 3 Z"
     fill="#232629"
     id="path20" />
  <path
     d="M 6,3 H 7 V 49 H 6 Z"
     fill="#232629"
     id="path22" />
  <path
     d="m 11,37 h 1 v 1 h -1 z"
     fill="#ffffff"
     id="path24" />
  <path
     d="m 11,22 v 1 h -1 v 1 h 1 v 1 h 1 v -1 h 1 v -1 h -1 v -1 z"
     fill="#ffffff"
     id="path26" />
  <path
     d="m 11.500402,23.5 c 0,0 7.054903,-10.7718 12,-12.0001 4.945097,-1.2283 8.155513,4.7496 13,4 4.844487,-0.7496 13,-9 13,-9"
     stroke="#77216f"
     id="path28"
     style="fill:none;stroke:#00ff00" />
  <path
     id="path903"
     style="fill-rule:evenodd;fill:#ffffff;opacity:0.6"
     d="M 39 22 C 35.424807 22.4031 31.513892 23.5413 27 26 C 21.952388 28.719 16.3366 32.5252 12 37 L 24 29 L 36 26 L 36.746094 25.005859 L 49.464844 25.089844 L 53 22 L 39 22 z " />
  <path
     d="m 11.5,37.4999 c 0,0 7.78042,-5.9968 11.999605,-7.9999 4.219185,-2.0031 8.516572,-3.3259 13,-4.0001 4.285157,-0.6444 13,0 13,0"
     stroke="#e95420"
     id="path30"
     style="fill:none;stroke:#00ff00" />
  <path
     d="m 11.5,37.4999 c 0,0 7.78042,-5.9968 11.999605,-7.9999 4.219185,-2.0031 8.516572,-3.3259 13,-4.0001 4.285157,-0.6444 13,0 13,0"
     stroke="#e95420"
     id="path959"
     style="fill:none;stroke:#ffffff;opacity:0.4" />
</svg>
