<?xml version="1.0" encoding="UTF-8" standalone="no"?>
<svg
   height="52"
   viewBox="0 0 60 52"
   width="60"
   version="1.1"
   id="svg132"
   sodipodi:docname="stackdirect3d_52x60.svg"
   inkscape:version="1.1.2 (76b9e6a115, 2022-02-25)"
   xmlns:inkscape="http://www.inkscape.org/namespaces/inkscape"
   xmlns:sodipodi="http://sodipodi.sourceforge.net/DTD/sodipodi-0.dtd"
   xmlns="http://www.w3.org/2000/svg"
   xmlns:svg="http://www.w3.org/2000/svg">
  <defs
     id="defs136" />
  <sodipodi:namedview
     id="namedview134"
     pagecolor="#ffffff"
     bordercolor="#666666"
     borderopacity="1.0"
     inkscape:pageshadow="2"
     inkscape:pageopacity="0.0"
     inkscape:pagecheckerboard="0"
     showgrid="false"
     inkscape:zoom="24.966196"
     inkscape:cx="27.036558"
     inkscape:cy="22.570519"
     inkscape:window-width="1852"
     inkscape:window-height="1016"
     inkscape:window-x="0"
     inkscape:window-y="0"
     inkscape:window-maximized="1"
     inkscape:current-layer="svg132" />
  <path
     d="M 0,0 H 60 V 52 H 0 Z"
     fill="#ffffff"
     id="path2" />
  <path
     d="M 24,12 12,23 V 22 L 26,8 Z"
     fill="#945c93"
     id="path4"
     style="fill-rule:evenodd;fill:#00ff00" />
  <path
     d="M 36,15 23,11 26,8 39,12 Z"
     fill="#987197"
     id="path6"
     style="fill-rule:evenodd;fill:#00ff00" />
  <path
     d="M 36,15 23,11 26,8 39,12 Z"
     fill="#987197"
     id="path1457"
     style="fill-rule:evenodd;fill:#ffffff;opacity:0.3" />
  <path
     d="M 24,12 12,23 V 22 L 26,8 Z"
     fill="#945c93"
     id="path1513"
     style="fill-rule:evenodd;fill:#ffffff;opacity:0.2" />
  <path
     d="M 50,7 37,15 H 36 L 39,12 53,3 Z"
     fill="#945c93"
     id="path8"
     style="fill-rule:evenodd;fill:#00ff00" />
  <path
     d="M 50,7 37,15 H 36 L 39,12 53,3 Z"
     fill="#945c93"
     id="path1515"
     style="fill-rule:evenodd;fill:#ffffff;opacity:0.2" />
  <path
     d="M 50,25 H 36 l 3,-3 h 14 z"
     fill="#fe865c"
     id="path10"
     style="fill-rule:evenodd;fill:#00ff00" />
  <path
     d="m 36,26 -12,3 3,-3 12,-4 z"
     fill="#fe865c"
     id="path12"
     style="fill-rule:evenodd;fill:#00ff00" />
  <path
     d="m 24,29 -12,8 3,-3 12,-8 z"
     fill="#fe865c"
     id="path14"
     style="fill-rule:evenodd;fill:#00ff00" />
  <path
     id="path1336"
     style="fill-rule:evenodd;fill:#ffffff;opacity:0.6"
     d="M 39 22 L 27 26 L 15 34 L 12 37 L 24 29 L 36 26 L 36.75 25 L 50 25 L 53 22 L 39 22 z " />
  <path
     d="m 36.425781,24.9991 -13.142578,4.0449 -12.060547,8.0391 0.554688,0.832 11.939453,-7.9589 12.859375,-3.9571 H 49.5 v -1 z"
     fill="#e95420"
     id="path16"
     style="fill-rule:evenodd;fill:#00ff00" />
  <path
     d="m 3,45 h 52 v 1 H 3 Z"
     fill="#232629"
     id="path20" />
  <path
     d="M 6,3 H 7 V 49 H 6 Z"
     fill="#232629"
     id="path22" />
  <g
     fill="#e95420"
     id="g32"
     transform="translate(0,-1000.3622)"
     style="fill:#00ff00">
    <path
       d="m 48,1025.3622 h 1 v 1 h -1 z"
       id="path24"
       style="fill:#00ff00" />
    <path
       d="m 49,1024.3622 h 1 v 1 h -1 z"
       id="path26"
       style="fill:#00ff00" />
    <path
       d="m 49,1026.3622 h 1 v 1 h -1 z"
       id="path28"
       style="fill:#00ff00" />
    <path
       d="m 50,1025.3622 h 1 v 1 h -1 z"
       id="path30"
       style="fill:#00ff00" />
  </g>
  <path
     d="m 49,25 h 1 v 1 h -1 z"
     fill="#ffffff"
     id="path34" />
  <g
     fill="#e95420"
     id="g44"
     transform="translate(0,-1000.3622)"
     style="fill:#00ff00">
    <path
       d="m 35,1025.3622 h 1 v 1 h -1 z"
       id="path36"
       style="fill:#00ff00" />
    <path
       d="m 36,1024.3622 h 1 v 1 h -1 z"
       id="path38"
       style="fill:#00ff00" />
    <path
       d="m 36,1026.3622 h 1 v 1 h -1 z"
       id="path40"
       style="fill:#00ff00" />
    <path
       d="m 37,1025.3622 h 1 v 1 h -1 z"
       id="path42"
       style="fill:#00ff00" />
  </g>
  <path
     d="m 36,25 h 1 v 1 h -1 z"
     fill="#ffffff"
     id="path46" />
  <g
     fill="#e95420"
     id="g56"
     transform="translate(0,-1000.3622)"
     style="fill:#00ff00">
    <path
       d="m 10,1037.3622 h 1 v 1 h -1 z"
       id="path48"
       style="fill:#00ff00" />
    <path
       d="m 11,1036.3622 h 1 v 1 h -1 z"
       id="path50"
       style="fill:#00ff00" />
    <path
       d="m 11,1038.3622 h 1 v 1 h -1 z"
       id="path52"
       style="fill:#00ff00" />
    <path
       d="m 12,1037.3622 h 1 v 1 h -1 z"
       id="path54"
       style="fill:#00ff00" />
  </g>
  <path
     d="m 11,37 h 1 v 1 h -1 z"
     fill="#ffffff"
     id="path58" />
  <g
     fill="#e95420"
     id="g68"
     transform="translate(0,-1000.3622)"
     style="fill:#00ff00">
    <path
       d="m 22,1029.3622 h 1 v 1 h -1 z"
       id="path60"
       style="fill:#00ff00" />
    <path
       d="m 23,1028.3622 h 1 v 1 h -1 z"
       id="path62"
       style="fill:#00ff00" />
    <path
       d="m 23,1030.3622 h 1 v 1 h -1 z"
       id="path64"
       style="fill:#00ff00" />
    <path
       d="m 24,1029.3622 h 1 v 1 h -1 z"
       id="path66"
       style="fill:#00ff00" />
  </g>
  <path
     d="m 23,29 h 1 v 1 h -1 z"
     fill="#ffffff"
     id="path70" />
  <path
     d="M 49.214844,6.089 36.414062,14.9503 23.359375,10.9347 11.146484,23.1476 11.853516,23.8546 23.640625,12.0675 36.583984,16.0499 49.783203,6.9112 Z"
     fill="#77216f"
     fill-rule="evenodd"
     id="path72"
     style="fill:#00ff00" />
  <g
     fill="#77216f"
     id="g82"
     transform="translate(-5,-1001.3622)"
     style="fill:#00ff00">
    <path
       d="m 27,1011.3622 h 1 v 1 h -1 z"
       id="path74"
       style="fill:#00ff00" />
    <path
       d="m 29,1011.3622 h 1 v 1 h -1 z"
       id="path76"
       style="fill:#00ff00" />
    <path
       d="m 27,1013.3622 h 1 v 1 h -1 z"
       id="path78"
       style="fill:#00ff00" />
    <path
       d="m 29,1013.3622 h 1 v 1 h -1 z"
       id="path80"
       style="fill:#00ff00" />
  </g>
  <path
     d="m 23,10 v 1 h -1 v 1 h 1 v 1 h 1 v -1 h 1 v -1 h -1 v -1 z"
     fill="#ffffff"
     id="path84" />
  <g
     fill="#77216f"
     id="g96"
     transform="translate(0,-1014.3622)"
     style="fill:#00ff00">
    <path
       d="m 48,1019.3622 h 1 v 1 h -1 z"
       id="path88"
       style="fill:#00ff00" />
    <path
       d="m 50,1019.3622 h 1 v 1 h -1 z"
       id="path90"
       style="fill:#00ff00" />
    <path
       d="m 48,1021.3622 h 1 v 1 h -1 z"
       id="path92"
       style="fill:#00ff00" />
    <path
       d="m 50,1021.3622 h 1 v 1 h -1 z"
       id="path94"
       style="fill:#00ff00" />
  </g>
  <path
     d="m 49,5 v 1 h -1 v 1 h 1 v 1 h 1 V 7 h 1 V 6 H 50 V 5 Z"
     fill="#ffffff"
     id="path98" />
  <g
     fill="#77216f"
     id="g110"
     transform="translate(-4,-1021.3622)"
     style="fill:#00ff00">
    <path
       d="m 39,1035.3622 h 1 v 1 h -1 z"
       id="path102"
       style="fill:#00ff00" />
    <path
       d="m 41,1035.3622 h 1 v 1 h -1 z"
       id="path104"
       style="fill:#00ff00" />
    <path
       d="m 39,1037.3622 h 1 v 1 h -1 z"
       id="path106"
       style="fill:#00ff00" />
    <path
       d="m 41,1037.3622 h 1 v 1 h -1 z"
       id="path108"
       style="fill:#00ff00" />
  </g>
  <path
     d="m 36,14 v 1 h -1 v 1 h 1 v 1 h 1 v -1 h 1 v -1 h -1 v -1 z"
     fill="#ffffff"
     id="path112" />
  <g
     fill="#77216f"
     id="g124"
     transform="translate(0,-1012.3622)"
     style="fill:#00ff00">
    <path
       d="m 10,1034.3622 h 1 v 1 h -1 z"
       id="path116"
       style="fill:#00ff00" />
    <path
       d="m 12,1034.3622 h 1 v 1 h -1 z"
       id="path118"
       style="fill:#00ff00" />
    <path
       d="m 10,1036.3622 h 1 v 1 h -1 z"
       id="path120"
       style="fill:#00ff00" />
    <path
       d="m 12,1036.3622 h 1 v 1 h -1 z"
       id="path122"
       style="fill:#00ff00" />
  </g>
  <path
     d="m 11,22 v 1 h -1 v 1 h 1 v 1 h 1 v -1 h 1 v -1 h -1 v -1 z"
     fill="#ffffff"
     id="path126" />
  <path
     id="path1223"
     style="fill-rule:evenodd;fill:#ffffff;opacity:0.4"
     d="M 36 24 L 36 25 L 36.425781 25 L 36 25.130859 L 36 25 L 35 25 L 35 25.439453 L 24 28.824219 L 24 28 L 23 28 L 23 29 L 23.429688 29 L 23.283203 29.044922 L 23 29.234375 L 23 29 L 22 29 L 22 29.900391 L 12 36.566406 L 12 36 L 11 36 L 11 37 L 11.349609 37 L 11.222656 37.083984 L 11.777344 37.916016 L 12 37.767578 L 12 38 L 13 38 L 13 37.101562 L 23 30.435547 L 23 31 L 24 31 L 24 30 L 23.652344 30 L 23.716797 29.957031 L 24 29.869141 L 24 30 L 25 30 L 25 29.5625 L 36 26.177734 L 36 27 L 37 27 L 37 26 L 49 26 L 49 27 L 50 27 L 50 26 L 49.5 26 L 49.5 25 L 50 25 L 50 24 L 49 24 L 49 25 L 37 25 L 37 24 L 36 24 z M 50 25 L 50 26 L 51 26 L 51 25 L 50 25 z M 12 38 L 11 38 L 11 39 L 12 39 L 12 38 z M 11 38 L 11 37 L 10 37 L 10 38 L 11 38 z " />
</svg>
