<?xml version="1.0" encoding="UTF-8" standalone="no"?>
<svg
   height="52"
   viewBox="0 0 60 52"
   width="60"
   version="1.1"
   id="svg14"
   sodipodi:docname="stackdirectlines_52x60.svg"
   inkscape:version="1.1.2 (76b9e6a115, 2022-02-25)"
   xmlns:inkscape="http://www.inkscape.org/namespaces/inkscape"
   xmlns:sodipodi="http://sodipodi.sourceforge.net/DTD/sodipodi-0.dtd"
   xmlns="http://www.w3.org/2000/svg"
   xmlns:svg="http://www.w3.org/2000/svg">
  <defs
     id="defs18" />
  <sodipodi:namedview
     id="namedview16"
     pagecolor="#ffffff"
     bordercolor="#666666"
     borderopacity="1.0"
     inkscape:pageshadow="2"
     inkscape:pageopacity="0.0"
     inkscape:pagecheckerboard="0"
     showgrid="false"
     inkscape:zoom="15.038462"
     inkscape:cx="30.023018"
     inkscape:cy="25.966752"
     inkscape:window-width="1852"
     inkscape:window-height="1016"
     inkscape:window-x="0"
     inkscape:window-y="0"
     inkscape:window-maximized="1"
     inkscape:current-layer="svg14" />
  <path
     d="M 0,0 H 60 V 52 H 0 Z"
     fill="#ffffff"
     id="path2" />
  <path
     d="m 36.425781,24.9991 -13.142578,4.0449 -12.060547,8.0391 0.554688,0.832 11.939453,-7.9589 12.859375,-3.9571 H 49.5 v -1 z"
     fill="#e95420"
     fill-rule="evenodd"
     id="path4"
     style="fill:#00ff00" />
  <path
     d="m 3,45 h 52 v 1 H 3 Z"
     fill="#232629"
     id="path6" />
  <path
     d="M 6,3 H 7 V 49 H 6 Z"
     fill="#232629"
     id="path8" />
  <path
     d="M 49.21484,6.089 36.414062,14.9503 23.359375,10.9347 11.146484,23.1476 11.853516,23.8546 23.640625,12.0675 36.583984,16.0499 49.7832,6.9112 Z"
     fill="#77216f"
     fill-rule="evenodd"
     id="path10"
     style="fill:#00ff00" />
  <path
     d="m 36.425781,24.9991 -13.142578,4.0449 -12.060547,8.0391 0.554688,0.832 11.939453,-7.9589 12.859375,-3.9571 H 49.5 v -1 z"
     fill="#e95420"
     fill-rule="evenodd"
     id="path43"
     style="fill:#ffffff;opacity:0.4" />
</svg>
