<?xml version="1.0" encoding="UTF-8" standalone="no"?>
<svg
   height="52"
   viewBox="0 0 60 52"
   width="60"
   version="1.1"
   id="svg38"
   sodipodi:docname="stacksmoothboth_52x60.svg"
   inkscape:version="1.1.2 (76b9e6a115, 2022-02-25)"
   xmlns:inkscape="http://www.inkscape.org/namespaces/inkscape"
   xmlns:sodipodi="http://sodipodi.sourceforge.net/DTD/sodipodi-0.dtd"
   xmlns="http://www.w3.org/2000/svg"
   xmlns:svg="http://www.w3.org/2000/svg">
  <defs
     id="defs42" />
  <sodipodi:namedview
     id="namedview40"
     pagecolor="#ffffff"
     bordercolor="#666666"
     borderopacity="1.0"
     inkscape:pageshadow="2"
     inkscape:pageopacity="0.0"
     inkscape:pagecheckerboard="0"
     showgrid="false"
     inkscape:zoom="15.038462"
     inkscape:cx="30.056265"
     inkscape:cy="32.882352"
     inkscape:window-width="1852"
     inkscape:window-height="1016"
     inkscape:window-x="0"
     inkscape:window-y="0"
     inkscape:window-maximized="1"
     inkscape:current-layer="svg38" />
  <path
     d="M 0,0 H 60 V 52 H 0 Z"
     fill="#ffffff"
     id="path2" />
  <path
     d="m 3,45 h 52 v 1 H 3 Z"
     fill="#232629"
     id="path4" />
  <path
     d="M 6,3 H 7 V 49 H 6 Z"
     fill="#232629"
     id="path6" />
  <path
     d="m 11,37 h 1 v 1 h -1 z"
     fill="#ffffff"
     id="path8" />
  <path
     d="m 11,22 v 1 h -1 v 1 h 1 v 1 h 1 v -1 h 1 v -1 h -1 v -1 z"
     fill="#ffffff"
     id="path10" />
  <path
     d="m 11.500402,23.5 c 0,0 7.054903,-10.7718 12,-12.0001 4.945097,-1.2283 8.155513,4.7496 13,4 4.844487,-0.7496 13,-9 13,-9"
     fill="none"
     stroke="#77216f"
     id="path12"
     style="stroke:#00ff00" />
  <g
     fill="#77216f"
     id="g20"
     transform="translate(0,-1000.3622)"
     style="fill:#00ff00">
    <path
       d="m 10,1022.3622 h 3 v 3 h -3 z"
       id="path14"
       style="fill:#00ff00" />
    <path
       d="m 35,1014.3622 h 3 v 3 h -3 z"
       id="path16"
       style="fill:#00ff00" />
    <path
       d="m 48,1005.3622 h 3 v 3 h -3 z"
       id="path18"
       style="fill:#00ff00" />
  </g>
  <g
     fill="#e95420"
     id="g30"
     transform="translate(0,-1000.3622)"
     style="fill:#00ff00">
    <path
       d="m 10,1036.3622 h 3 v 3 h -3 z"
       id="path22"
       style="fill:#00ff00" />
    <path
       d="m 22,1028.3622 h 3 v 3 h -3 z"
       id="path24"
       style="fill:#00ff00" />
    <path
       d="m 35,1024.3622 h 3 v 3 h -3 z"
       id="path26"
       style="fill:#00ff00" />
    <path
       d="m 48,1024.3622 h 3 v 3 h -3 z"
       id="path28"
       style="fill:#00ff00" />
  </g>
  <path
     d="m 11.5,37.4999 c 0,0 7.78042,-5.9968 11.999605,-7.9999 4.219185,-2.0031 8.516572,-3.3259 13,-4.0001 4.285157,-0.6444 13,0 13,0"
     fill="none"
     stroke="#e95420"
     id="path32"
     style="stroke:#00ff00" />
  <path
     d="m 23.122469,9.7151 h 3 v 3 h -3 z"
     fill="#77216f"
     id="path34"
     style="fill:#00ff00" />
  <path
     id="path133"
     style="fill:#ffffff;opacity:0.4"
     d="M 35 24 L 35 25.248047 C 31.580612 25.87214 28.260847 26.875247 25 28.275391 L 25 28 L 22 28 L 22 29.720703 C 18.867051 31.456265 14.792275 34.404507 12.654297 36 L 10 36 L 10 39 L 13 39 L 13 36.996094 C 14.929298 35.556659 18.893219 32.667608 22 30.867188 L 22 31 L 25 31 L 25 29.367188 C 28.265169 27.93024 31.579933 26.898057 35 26.259766 L 35 27 L 38 27 L 38 25.841797 C 41.187624 25.594404 45.702468 25.78151 48 25.908203 L 48 27 L 51 27 L 51 24 L 48 24 L 48 24.902344 C 47.125203 24.851796 45.955703 24.793566 44.642578 24.753906 C 42.506854 24.689406 40.037828 24.678034 38 24.835938 L 38 24 L 35 24 z " />
</svg>
