<?xml version="1.0" encoding="UTF-8" standalone="no"?>
<svg
   height="52"
   viewBox="0 0 60 52"
   width="60"
   version="1.1"
   id="svg42"
   sodipodi:docname="stackstepped3d_52x60.svg"
   inkscape:version="1.1.2 (76b9e6a115, 2022-02-25)"
   xmlns:inkscape="http://www.inkscape.org/namespaces/inkscape"
   xmlns:sodipodi="http://sodipodi.sourceforge.net/DTD/sodipodi-0.dtd"
   xmlns="http://www.w3.org/2000/svg"
   xmlns:svg="http://www.w3.org/2000/svg">
  <defs
     id="defs46" />
  <sodipodi:namedview
     id="namedview44"
     pagecolor="#ffffff"
     bordercolor="#666666"
     borderopacity="1.0"
     inkscape:pageshadow="2"
     inkscape:pageopacity="0.0"
     inkscape:pagecheckerboard="0"
     showgrid="false"
     inkscape:zoom="15.038462"
     inkscape:cx="29.98977"
     inkscape:cy="25.966752"
     inkscape:window-width="1852"
     inkscape:window-height="1016"
     inkscape:window-x="0"
     inkscape:window-y="0"
     inkscape:window-maximized="1"
     inkscape:current-layer="svg42" />
  <path
     d="M 0,0 H 60 V 52 H 0 Z"
     fill="#ffffff"
     id="path2" />
  <path
     d="m 3,45 h 52 v 1 H 3 Z"
     fill="#232629"
     id="path4" />
  <path
     d="M 6,3 H 7 V 49 H 6 Z"
     fill="#232629"
     id="path6" />
  <path
     d="m 36,24.9991 v 4 H 23 v 8 L 11,37 v 1 l 13,-9e-4 v -8 h 13 v -4 L 50,26 v -1 z"
     fill="#e95420"
     id="path8"
     style="fill-rule:evenodd;fill:#00ff00" />
  <path
     d="M 23,23 H 11 l 3,-3 h 9 z"
     fill="#987197"
     id="path10"
     style="fill-rule:evenodd;fill:#00ff00" />
  <path
     d="m 50,6 v 10 l 3,-3 V 3 Z"
     fill="#945c93"
     id="path12"
     style="fill-rule:evenodd;fill:#00ff00" />
  <path
     d="m 24,30 v 8 l 3,-3 v -5 z"
     fill="#fe865c"
     id="path14"
     style="fill-rule:evenodd;fill:#00ff00" />
  <path
     d="M 23,37 H 11 l 3,-3 h 9 z"
     fill="#fe865c"
     id="path16"
     style="fill-rule:evenodd;fill:#00ff00" />
  <path
     d="m 49,6 v 9 H 37 V 12 11 H 24 23 V 23 H 11 v 1 H 24 V 23 12 h 12 v 4 h 1 12 1 V 15 6 Z"
     fill="#77216f"
     id="path20"
     style="fill:#00ff00" />
  <path
     d="M 36,29 H 23 l 3,-3 h 10 z"
     fill="#fe865c"
     id="path22"
     style="fill-rule:evenodd;fill:#00ff00" />
  <path
     d="M 50,25 H 36 l 3,-3 h 14 z"
     fill="#fe865c"
     id="path24"
     style="fill-rule:evenodd;fill:#00ff00" />
  <path
     d="m 37,26 v 4 l 3,-3 v -1 z"
     fill="#fe865c"
     id="path26"
     style="fill-rule:evenodd;fill:#00ff00" />
  <path
     d="M 37,11 H 23 l 3,-3 h 14 z"
     fill="#987197"
     id="path28"
     style="fill-rule:evenodd;fill:#00ff00" />
  <path
     d="M 49,15 H 37 l 3,-3 h 9 z"
     fill="#987197"
     id="path30"
     style="fill-rule:evenodd;fill:#00ff00" />
  <g
     fill="#945c93"
     id="g36"
     transform="translate(0,-1000.3622)"
     style="fill-rule:evenodd;fill:#00ff00">
    <path
       d="m 24,1012.3622 v 12 l 3,-3 v -9 z"
       id="path32"
       style="fill:#00ff00" />
    <path
       d="m 37,1011.3622 v 4 l 3,-3 v -4 z"
       id="path34"
       style="fill:#00ff00" />
  </g>
  <path
     d="m 36,24.9991 v 4 H 23 v 8 L 11,37 v 1 l 13,-9e-4 v -8 h 13 v -4 L 50,26 v -1 z"
     fill="#e95420"
     id="path913"
     style="fill-rule:evenodd;fill:#ffffff;opacity:0.4" />
  <path
     d="M 23,37 H 11 l 3,-3 h 9 z"
     fill="#fe865c"
     id="path969"
     style="fill-rule:evenodd;fill:#ffffff;opacity:0.6" />
  <path
     d="M 36,29 H 23 l 3,-3 h 10 z"
     fill="#fe865c"
     id="path971"
     style="fill-rule:evenodd;fill:#ffffff;opacity:0.6" />
  <path
     d="M 50,25 H 36 l 3,-3 h 14 z"
     fill="#fe865c"
     id="path973"
     style="fill-rule:evenodd;fill:#ffffff;opacity:0.6" />
  <path
     d="m 24,30 v 8 l 3,-3 v -5 z"
     fill="#fe865c"
     id="path1029"
     style="fill-rule:evenodd;fill:#ffffff;opacity:0.5" />
  <path
     d="m 37,26 v 4 l 3,-3 v -1 z"
     fill="#fe865c"
     id="path1031"
     style="fill-rule:evenodd;fill:#ffffff;opacity:0.5" />
  <path
     d="M 23,23 H 11 l 3,-3 h 9 z"
     fill="#987197"
     id="path1105"
     style="fill-rule:evenodd;fill:#ffffff;opacity:0.3" />
  <path
     d="M 37,11 H 23 l 3,-3 h 14 z"
     fill="#987197"
     id="path1107"
     style="fill-rule:evenodd;fill:#ffffff;opacity:0.3" />
  <path
     d="M 49,15 H 37 l 3,-3 h 9 z"
     fill="#987197"
     id="path1109"
     style="fill-rule:evenodd;fill:#ffffff;opacity:0.3" />
  <path
     d="m 50,6 v 10 l 3,-3 V 3 Z"
     fill="#945c93"
     id="path1165"
     style="fill-rule:evenodd;fill:#ffffff;opacity:0.2" />
  <g
     fill="#945c93"
     id="g1171"
     transform="translate(0,-1000.3622)"
     style="fill-rule:evenodd;fill:#ffffff;opacity:0.2">
    <path
       d="m 24,1012.3622 v 12 l 3,-3 v -9 z"
       id="path1167"
       style="fill:#ffffff" />
    <path
       d="m 37,1011.3622 v 4 l 3,-3 v -4 z"
       id="path1169"
       style="fill:#ffffff" />
  </g>
</svg>
