<?xml version="1.0" encoding="UTF-8" standalone="no"?>
<svg
   height="52"
   viewBox="0 0 60 52"
   width="60"
   version="1.1"
   id="svg44"
   sodipodi:docname="stock_52x60.svg"
   inkscape:version="1.1.2 (76b9e6a115, 2022-02-25)"
   xmlns:inkscape="http://www.inkscape.org/namespaces/inkscape"
   xmlns:sodipodi="http://sodipodi.sourceforge.net/DTD/sodipodi-0.dtd"
   xmlns="http://www.w3.org/2000/svg"
   xmlns:svg="http://www.w3.org/2000/svg">
  <defs
     id="defs48" />
  <sodipodi:namedview
     id="namedview46"
     pagecolor="#ffffff"
     bordercolor="#666666"
     borderopacity="1.0"
     inkscape:pageshadow="2"
     inkscape:pageopacity="0.0"
     inkscape:pagecheckerboard="0"
     showgrid="false"
     inkscape:zoom="15.038462"
     inkscape:cx="30.023018"
     inkscape:cy="25.966752"
     inkscape:window-width="1852"
     inkscape:window-height="1016"
     inkscape:window-x="0"
     inkscape:window-y="0"
     inkscape:window-maximized="1"
     inkscape:current-layer="svg44" />
  <path
     d="m0 0h60v52h-60z"
     fill="#fff"
     id="path2" />
  <path
     d="m3 45h52v1h-52z"
     fill="#232629"
     id="path4" />
  <path
     d="m6 3h1v45.999962h-1z"
     fill="#232629"
     id="path6" />
  <g
     fill="#77216f"
     id="g24"
     style="fill:#00ff00">
    <path
       d="m51 20h1v8.999983h-1z"
       id="path8"
       style="fill:#00ff00" />
    <path
       d="m51 24h3v1h-3z"
       id="path10"
       style="fill:#00ff00" />
    <path
       d="m42 31h1v8.999983h-1z"
       id="path12"
       style="fill:#00ff00" />
    <path
       d="m42 35h3v1h-3z"
       id="path14"
       style="fill:#00ff00" />
    <path
       d="m33 21h1v8.999983h-1z"
       id="path16"
       style="fill:#00ff00" />
    <path
       d="m33 25h3v1h-3z"
       id="path18"
       style="fill:#00ff00" />
    <path
       d="m23 26h1v8.999983h-1z"
       id="path20"
       style="fill:#00ff00" />
    <path
       d="m23 30h3v1h-3z"
       id="path22"
       style="fill:#00ff00" />
  </g>
  <g
     fill="#e95420"
     id="g42"
     style="fill:#00ff00">
    <path
       d="m45 13h1v8.999983h-1z"
       id="path26"
       style="fill:#00ff00" />
    <path
       d="m45 17h3v1h-3z"
       id="path28"
       style="fill:#00ff00" />
    <path
       d="m30 7.000017h1v8.999983h-1z"
       id="path30"
       style="fill:#00ff00" />
    <path
       d="m30 11.000017h3v1h-3z"
       id="path32"
       style="fill:#00ff00" />
    <path
       d="m18 14.000017h1v8.999983h-1z"
       id="path34"
       style="fill:#00ff00" />
    <path
       d="m18 18.000017h3v1h-3z"
       id="path36"
       style="fill:#00ff00" />
    <path
       d="m11 25.000017h1v8.999983h-1z"
       id="path38"
       style="fill:#00ff00" />
    <path
       d="m11 29.000017h3v1h-3z"
       id="path40"
       style="fill:#00ff00" />
  </g>
  <g
     fill="#e95420"
     id="g102"
     style="fill:#ffffff;opacity:0.4">
    <path
       d="m45 13h1v8.999983h-1z"
       id="path86"
       style="fill:#ffffff" />
    <path
       d="m45 17h3v1h-3z"
       id="path88"
       style="fill:#ffffff" />
    <path
       d="m30 7.000017h1v8.999983h-1z"
       id="path90"
       style="fill:#ffffff" />
    <path
       d="m30 11.000017h3v1h-3z"
       id="path92"
       style="fill:#ffffff" />
    <path
       d="m18 14.000017h1v8.999983h-1z"
       id="path94"
       style="fill:#ffffff" />
    <path
       d="m18 18.000017h3v1h-3z"
       id="path96"
       style="fill:#ffffff" />
    <path
       d="m11 25.000017h1v8.999983h-1z"
       id="path98"
       style="fill:#ffffff" />
    <path
       d="m11 29.000017h3v1h-3z"
       id="path100"
       style="fill:#ffffff" />
  </g>
</svg>
