<?xml version="1.0" encoding="UTF-8" standalone="no"?>
<svg
   height="52"
   viewBox="0 0 60 52"
   width="60"
   version="1.1"
   id="svg50"
   sodipodi:docname="stockcolumns_52x60.svg"
   inkscape:version="1.1.2 (76b9e6a115, 2022-02-25)"
   xmlns:inkscape="http://www.inkscape.org/namespaces/inkscape"
   xmlns:sodipodi="http://sodipodi.sourceforge.net/DTD/sodipodi-0.dtd"
   xmlns:xlink="http://www.w3.org/1999/xlink"
   xmlns="http://www.w3.org/2000/svg"
   xmlns:svg="http://www.w3.org/2000/svg"
   xmlns:rdf="http://www.w3.org/1999/02/22-rdf-syntax-ns#"
   xmlns:cc="http://creativecommons.org/ns#"
   xmlns:dc="http://purl.org/dc/elements/1.1/">
  <metadata
     id="metadata56">
    <rdf:RDF>
      <cc:Work
         rdf:about="">
        <dc:format>image/svg+xml</dc:format>
        <dc:type
           rdf:resource="http://purl.org/dc/dcmitype/StillImage" />
      </cc:Work>
    </rdf:RDF>
  </metadata>
  <defs
     id="defs54" />
  <sodipodi:namedview
     pagecolor="#ffffff"
     bordercolor="#666666"
     borderopacity="1"
     objecttolerance="10"
     gridtolerance="10"
     guidetolerance="10"
     inkscape:pageopacity="0"
     inkscape:pageshadow="2"
     inkscape:window-width="1852"
     inkscape:window-height="1016"
     id="namedview52"
     showgrid="false"
     inkscape:zoom="16.923077"
     inkscape:cx="29.988636"
     inkscape:cy="26.029545"
     inkscape:window-x="0"
     inkscape:window-y="0"
     inkscape:window-maximized="1"
     inkscape:current-layer="svg50"
     inkscape:pagecheckerboard="0" />
  <linearGradient
     id="a">
    <stop
       offset="0"
       stop-color="#e95420"
       id="stop2" />
    <stop
       offset="1"
       stop-color="#fe865c"
       id="stop4" />
  </linearGradient>
  <linearGradient
     id="b"
     gradientTransform="matrix(1,0,0,1.5,-2,-1523.5433)"
     gradientUnits="userSpaceOnUse"
     x1="16"
     x2="16"
     xlink:href="#a"
     y1="1046.3622"
     y2="1017.6956" />
  <linearGradient
     id="c"
     gradientTransform="matrix(1,0,0,0.83333331,-26,-825.9684)"
     gradientUnits="userSpaceOnUse"
     x1="101"
     x2="36"
     xlink:href="#d"
     y1="959.69543"
     y2="947.19543" />
  <linearGradient
     id="d">
    <stop
       offset="0"
       stop-color="#77216f"
       id="stop9" />
    <stop
       offset="1"
       stop-color="#a25f9e"
       id="stop11" />
  </linearGradient>
  <linearGradient
     id="e"
     gradientTransform="matrix(1,0,0,1.6666666,22,-1697.9368)"
     gradientUnits="userSpaceOnUse"
     x1="16"
     x2="16"
     xlink:href="#a"
     y1="1046.3622"
     y2="1020.5621" />
  <linearGradient
     id="f"
     gradientTransform="matrix(1,0,0,0.7,-2,-686.45346)"
     gradientUnits="userSpaceOnUse"
     x1="50"
     x2="50"
     xlink:href="#d"
     y1="1046.3622"
     y2="984.93353" />
  <path
     d="m 0,0 h 60 v 52 h -60 z"
     fill="#ffffff"
     id="path16" />
  <path
     d="m 10,19 h 9 v 27 h -9 z"
     fill="url(#b)"
     id="path18"
     style="fill:#00ff00;fill-opacity:1" />
  <path
     d="m 19,21 h 9 v 25 h -9 z"
     fill="url(#c)"
     id="path20"
     style="fill:#00ff00;fill-opacity:1" />
  <path
     d="m 34,16 h 9 v 30 h -9 z"
     fill="url(#e)"
     id="path22"
     style="fill:#00ff00;fill-opacity:1" />
  <path
     d="m 43,25 h 9 v 21 h -9 z"
     fill="url(#f)"
     id="path24"
     style="fill:#00ff00;fill-opacity:1" />
  <path
     d="m 47,13 h 1 v 9 h -1 z"
     fill="#77216f"
     id="path30"
     style="fill:#00ff00" />
  <path
     d="m 47,17 h 3 v 1 h -3 z"
     fill="#77216f"
     id="path32"
     style="fill:#00ff00" />
  <path
     d="m 38,4 h 1 v 9 h -1 z"
     fill="#e95420"
     id="path34"
     style="fill:#00ff00" />
  <path
     d="m 38,8 h 3 v 1 h -3 z"
     fill="#e95420"
     id="path36"
     style="fill:#00ff00" />
  <path
     d="m 23,9 h 1 v 9 h -1 z"
     fill="#77216f"
     id="path38"
     style="fill:#00ff00" />
  <path
     d="m 23,13 h 3 v 1 h -3 z"
     fill="#77216f"
     id="path40"
     style="fill:#00ff00" />
  <g
     fill="#e95420"
     id="g46"
     transform="translate(0,-1000.3622)"
     style="fill:#00ff00">
    <path
       d="m 14,1007.3622 h 1 v 9 h -1 z"
       id="path42"
       style="fill:#00ff00" />
    <path
       d="m 14,1011.3622 h 3 v 1 h -3 z"
       id="path44"
       style="fill:#00ff00" />
  </g>
  <path
     id="path86"
     style="fill:#ffffff;fill-opacity:1;opacity:0.4"
     d="M 38 4 L 38 8 L 38 9 L 38 13 L 39 13 L 39 9 L 41 9 L 41 8 L 39 8 L 39 4 L 38 4 z M 14 7 L 14 11 L 14 12 L 14 16 L 15 16 L 15 12 L 17 12 L 17 11 L 15 11 L 15 7 L 14 7 z M 34 16 L 34 46 L 43 46 L 43 16 L 34 16 z M 10 19 L 10 46 L 19 46 L 19 19 L 10 19 z " />
  <path
     d="m 6,3 h 1 v 46 h -1 z"
     fill="#232629"
     id="path28" />
  <path
     d="m 3,45 h 52 v 1 h -52 z"
     fill="#232629"
     id="path26" />
</svg>
