<?xml version="1.0" encoding="UTF-8" standalone="no"?>
<svg
   height="52"
   viewBox="0 0 60 52"
   width="60"
   version="1.1"
   id="svg16"
   sodipodi:docname="valueaxissmoothlines_52x60.svg"
   inkscape:version="1.1.2 (76b9e6a115, 2022-02-25)"
   xmlns:inkscape="http://www.inkscape.org/namespaces/inkscape"
   xmlns:sodipodi="http://sodipodi.sourceforge.net/DTD/sodipodi-0.dtd"
   xmlns="http://www.w3.org/2000/svg"
   xmlns:svg="http://www.w3.org/2000/svg">
  <defs
     id="defs20" />
  <sodipodi:namedview
     id="namedview18"
     pagecolor="#ffffff"
     bordercolor="#666666"
     borderopacity="1.0"
     inkscape:pageshadow="2"
     inkscape:pageopacity="0.0"
     inkscape:pagecheckerboard="0"
     showgrid="false"
     inkscape:zoom="15.038462"
     inkscape:cx="30.023018"
     inkscape:cy="25.966752"
     inkscape:window-width="1852"
     inkscape:window-height="1016"
     inkscape:window-x="0"
     inkscape:window-y="0"
     inkscape:window-maximized="1"
     inkscape:current-layer="svg16" />
  <path
     d="M 0,0 H 60 V 52 H 0 Z"
     fill="#ffffff"
     id="path2" />
  <path
     d="m 3,45 h 52 v 1 H 3 Z"
     fill="#232629"
     id="path4" />
  <path
     d="M 6,3 H 7 V 49 H 6 Z"
     fill="#232629"
     id="path6" />
  <path
     d="m 11.5,35.5 c 0,0 8.831585,-20.6055 17,-23 8.168415,-2.3945 18.684412,1.6011 21,8 2.315588,6.3989 -9,16 -9,16"
     stroke="#77216f"
     id="path8"
     style="fill:none;stroke:#00ff00" />
  <path
     d="m 20.5,8.5 c 0,0 -10.6689045,6.2441 -9,13 1.668905,6.7559 16.130808,11.2403 23,12 6.869192,0.7597 15,-4 15,-4"
     stroke="#e95420"
     id="path10"
     style="fill:none;stroke:#00ff00" />
  <path
     d="m 20.5,8.5 c 0,0 -10.6689045,6.2441 -9,13 1.668905,6.7559 16.130808,11.2403 23,12 6.869192,0.7597 15,-4 15,-4"
     stroke="#e95420"
     id="path84"
     style="fill:none;stroke:#ffffff;opacity:0.4" />
</svg>
