<?xml version="1.0" encoding="UTF-8" standalone="no"?>
<svg
   height="52"
   viewBox="0 0 60 52"
   width="60"
   version="1.1"
   id="svg116"
   sodipodi:docname="valueaxisdirectboth_52x60.svg"
   inkscape:version="1.1.2 (76b9e6a115, 2022-02-25)"
   xmlns:inkscape="http://www.inkscape.org/namespaces/inkscape"
   xmlns:sodipodi="http://sodipodi.sourceforge.net/DTD/sodipodi-0.dtd"
   xmlns="http://www.w3.org/2000/svg"
   xmlns:svg="http://www.w3.org/2000/svg">
  <defs
     id="defs120" />
  <sodipodi:namedview
     id="namedview118"
     pagecolor="#ffffff"
     bordercolor="#666666"
     borderopacity="1.0"
     inkscape:pageshadow="2"
     inkscape:pageopacity="0.0"
     inkscape:pagecheckerboard="0"
     showgrid="false"
     inkscape:zoom="15.038462"
     inkscape:cx="30.023018"
     inkscape:cy="25.966752"
     inkscape:window-width="1852"
     inkscape:window-height="1016"
     inkscape:window-x="0"
     inkscape:window-y="0"
     inkscape:window-maximized="1"
     inkscape:current-layer="svg116" />
  <path
     d="M 0,0 H 60 V 52 H 0 Z"
     fill="#ffffff"
     id="path2" />
  <path
     d="m 28.324219,11.8976 -17.226563,23.3047 0.804688,0.5957 16.773437,-22.6954 20.103516,7.6582 -8.714844,15.4942 0.871094,0.4902 9.285156,-16.5058 z"
     fill="#77216f"
     fill-rule="evenodd"
     id="path4"
     style="fill:#00ff00" />
  <path
     d="m 3,45 h 52 v 1 H 3 Z"
     fill="#232629"
     id="path6" />
  <path
     d="M 6,3 H 7 V 49 H 6 Z"
     fill="#232629"
     id="path8" />
  <g
     fill="#e95420"
     id="g20"
     transform="translate(0,-1000.3622)"
     style="fill:#00ff00">
    <path
       d="m 20.089844,1008.5781 -9.324219,13.4649 23.675781,12.3515 15.1875,-4.0488 -0.257812,-0.9668 -14.8125,3.9492 -22.326172,-11.6484 8.677734,-12.5332 z"
       fill-rule="evenodd"
       id="path10"
       style="fill:#00ff00" />
    <path
       d="m 48,1029.3622 h 1 v 1 h -1 z"
       id="path12"
       style="fill:#00ff00" />
    <path
       d="m 49,1028.3622 h 1 v 1 h -1 z"
       id="path14"
       style="fill:#00ff00" />
    <path
       d="m 49,1030.3622 h 1 v 1 h -1 z"
       id="path16"
       style="fill:#00ff00" />
    <path
       d="m 50,1029.3622 h 1 v 1 h -1 z"
       id="path18"
       style="fill:#00ff00" />
  </g>
  <path
     d="m 49,29 h 1 v 1 h -1 z"
     fill="#ffffff"
     id="path22" />
  <g
     fill="#e95420"
     id="g32"
     transform="translate(0,-1000.3622)"
     style="fill:#00ff00">
    <path
       d="m 33,1033.3622 h 1 v 1 h -1 z"
       id="path24"
       style="fill:#00ff00" />
    <path
       d="m 34,1032.3622 h 1 v 1 h -1 z"
       id="path26"
       style="fill:#00ff00" />
    <path
       d="m 34,1034.3622 h 1 v 1 h -1 z"
       id="path28"
       style="fill:#00ff00" />
    <path
       d="m 35,1033.3622 h 1 v 1 h -1 z"
       id="path30"
       style="fill:#00ff00" />
  </g>
  <path
     d="m 34,33 h 1 v 1 h -1 z"
     fill="#ffffff"
     id="path34" />
  <g
     fill="#e95420"
     id="g44"
     transform="translate(0,-1000.3622)"
     style="fill:#00ff00">
    <path
       d="m 10,1021.3622 h 1 v 1 h -1 z"
       id="path36"
       style="fill:#00ff00" />
    <path
       d="m 11,1020.3622 h 1 v 1 h -1 z"
       id="path38"
       style="fill:#00ff00" />
    <path
       d="m 11,1022.3622 h 1 v 1 h -1 z"
       id="path40"
       style="fill:#00ff00" />
    <path
       d="m 12,1021.3622 h 1 v 1 h -1 z"
       id="path42"
       style="fill:#00ff00" />
  </g>
  <path
     d="m 11,21 h 1 v 1 h -1 z"
     fill="#ffffff"
     id="path46" />
  <g
     fill="#e95420"
     id="g56"
     transform="translate(0,-1000.3622)"
     style="fill:#00ff00">
    <path
       d="m 19,1008.3622 h 1 v 1 h -1 z"
       id="path48"
       style="fill:#00ff00" />
    <path
       d="m 20,1007.3622 h 1 v 1 h -1 z"
       id="path50"
       style="fill:#00ff00" />
    <path
       d="m 20,1009.3622 h 1 v 1 h -1 z"
       id="path52"
       style="fill:#00ff00" />
    <path
       d="m 21,1008.3622 h 1 v 1 h -1 z"
       id="path54"
       style="fill:#00ff00" />
  </g>
  <path
     d="m 20,8 h 1 v 1 h -1 z"
     fill="#ffffff"
     id="path58" />
  <g
     fill="#77216f"
     id="g68"
     transform="translate(0,-1000.3622)"
     style="fill:#00ff00">
    <path
       d="m 27,1011.3622 h 1 v 1 h -1 z"
       id="path60"
       style="fill:#00ff00" />
    <path
       d="m 29,1011.3622 h 1 v 1 h -1 z"
       id="path62"
       style="fill:#00ff00" />
    <path
       d="m 27,1013.3622 h 1 v 1 h -1 z"
       id="path64"
       style="fill:#00ff00" />
    <path
       d="m 29,1013.3622 h 1 v 1 h -1 z"
       id="path66"
       style="fill:#00ff00" />
  </g>
  <path
     d="m 28,11 v 1 h -1 v 1 h 1 v 1 h 1 v -1 h 1 v -1 h -1 v -1 z"
     fill="#ffffff"
     id="path70" />
  <g
     fill="#77216f"
     id="g80"
     transform="translate(21,-992.36218)"
     style="fill:#00ff00">
    <path
       d="m 27,1011.3622 h 1 v 1 h -1 z"
       id="path72"
       style="fill:#00ff00" />
    <path
       d="m 29,1011.3622 h 1 v 1 h -1 z"
       id="path74"
       style="fill:#00ff00" />
    <path
       d="m 27,1013.3622 h 1 v 1 h -1 z"
       id="path76"
       style="fill:#00ff00" />
    <path
       d="m 29,1013.3622 h 1 v 1 h -1 z"
       id="path78"
       style="fill:#00ff00" />
  </g>
  <path
     d="m 49,19.00002 v 1 h -1 v 1 h 1 v 1 h 1 v -1 h 1 v -1 h -1 v -1 z"
     fill="#ffffff"
     id="path82" />
  <g
     fill="#77216f"
     id="g94"
     transform="translate(12,-976.36218)"
     style="fill:#00ff00">
    <path
       d="m 27,1011.3622 h 1 v 1 h -1 z"
       id="path86"
       style="fill:#00ff00" />
    <path
       d="m 29,1011.3622 h 1 v 1 h -1 z"
       id="path88"
       style="fill:#00ff00" />
    <path
       d="m 27,1013.3622 h 1 v 1 h -1 z"
       id="path90"
       style="fill:#00ff00" />
    <path
       d="m 29,1013.3622 h 1 v 1 h -1 z"
       id="path92"
       style="fill:#00ff00" />
  </g>
  <path
     d="m 40,35.00002 v 1 h -1 v 1 h 1 v 1 h 1 v -1 h 1 v -1 h -1 v -1 z"
     fill="#ffffff"
     id="path96" />
  <g
     fill="#77216f"
     id="g108"
     transform="translate(-17,-977.36218)"
     style="fill:#00ff00">
    <path
       d="m 27,1011.3622 h 1 v 1 h -1 z"
       id="path100"
       style="fill:#00ff00" />
    <path
       d="m 29,1011.3622 h 1 v 1 h -1 z"
       id="path102"
       style="fill:#00ff00" />
    <path
       d="m 27,1013.3622 h 1 v 1 h -1 z"
       id="path104"
       style="fill:#00ff00" />
    <path
       d="m 29,1013.3622 h 1 v 1 h -1 z"
       id="path106"
       style="fill:#00ff00" />
  </g>
  <path
     d="m 11,34.00002 v 1 h -1 v 1 h 1 v 1 h 1 v -1 h 1 v -1 h -1 v -1 z"
     fill="#ffffff"
     id="path110" />
  <path
     id="path232"
     style="fill:#ffffff;opacity:0.4"
     d="M 20 7 L 20 8 L 21 8 L 21 7 L 20 7 z M 21 8 L 21 9 L 22 9 L 22 8 L 21 8 z M 21 9 L 20.761719 9 L 20.910156 8.7851562 L 20.089844 8.2167969 L 20 8.3457031 L 20 8 L 19 8 L 19 9 L 19.546875 9 L 11.929688 20 L 11 20 L 11 21 L 11.238281 21 L 11 21.34375 L 11 21 L 10 21 L 10 22 L 11 22 L 11 21.804688 L 11.375 22 L 11 22 L 11 23 L 12 23 L 12 22.326172 L 33 33.28125 L 33 34 L 34 34 L 34 33.802734 L 34.376953 34 L 34 34 L 34 35 L 35 35 L 35 34 L 34.566406 34 L 35 33.884766 L 35 34 L 36 34 L 36 33.617188 L 49 30.152344 L 49 31 L 50 31 L 50 30 L 49.570312 30 L 49.628906 29.984375 L 49.371094 29.017578 L 49 29.117188 L 49 29 L 48 29 L 48 29.382812 L 35 32.849609 L 35 32 L 34 32 L 34 32.675781 L 13 21.71875 L 13 21 L 12.453125 21 L 20.068359 10 L 21 10 L 21 9 z M 49 29 L 50 29 L 50 28 L 49 28 L 49 29 z M 50 29 L 50 30 L 51 30 L 51 29 L 50 29 z " />
</svg>
