<?xml version="1.0" encoding="UTF-8" standalone="no"?>
<svg
   height="52"
   viewBox="0 0 60 52"
   width="60"
   version="1.1"
   id="svg22"
   sodipodi:docname="valueaxisdirect3d_52x60.svg"
   inkscape:version="1.1.2 (76b9e6a115, 2022-02-25)"
   xmlns:inkscape="http://www.inkscape.org/namespaces/inkscape"
   xmlns:sodipodi="http://sodipodi.sourceforge.net/DTD/sodipodi-0.dtd"
   xmlns="http://www.w3.org/2000/svg"
   xmlns:svg="http://www.w3.org/2000/svg">
  <defs
     id="defs26" />
  <sodipodi:namedview
     id="namedview24"
     pagecolor="#ffffff"
     bordercolor="#666666"
     borderopacity="1.0"
     inkscape:pageshadow="2"
     inkscape:pageopacity="0.0"
     inkscape:pagecheckerboard="0"
     showgrid="false"
     inkscape:zoom="15.038462"
     inkscape:cx="29.98977"
     inkscape:cy="25.966752"
     inkscape:window-width="1852"
     inkscape:window-height="1016"
     inkscape:window-x="0"
     inkscape:window-y="0"
     inkscape:window-maximized="1"
     inkscape:current-layer="svg22" />
  <path
     d="M 0,0 H 60 V 52 H 0 Z"
     fill="#ffffff"
     id="path2" />
  <path
     d="m 3,45 h 52 v 1 H 3 Z"
     fill="#232629"
     id="path4" />
  <path
     d="M 6,3 H 7 V 49 H 6 Z"
     fill="#232629"
     id="path6" />
  <path
     d="m 32.30664,8.9121 -3.99805,2.9981 0.53907,0.2246 -0.0469,0.043 0.96875,0.42 0.043,-0.062 19.46484,8.0878 h 0.002 L 54.14653,17.2428 32.3106,8.9127 h -0.002 -0.002 z"
     fill="#945c93"
     fill-rule="evenodd"
     id="path8"
     style="fill:#00ff00" />
  <path
     d="m 32.30664,8.9121 -3.99805,2.9981 0.53907,0.2246 -0.0469,0.043 0.96875,0.42 0.043,-0.062 19.46484,8.0878 h 0.002 L 54.14653,17.2428 32.3106,8.9127 h -0.002 -0.002 z"
     fill="#945c93"
     fill-rule="evenodd"
     id="path1174"
     style="fill:#ffffff;opacity:0.3" />
  <path
     d="m 28.31055,11.9102 h -0.002 l 0.53711,0.2246 h 0.002 z m 0.49218,0.2675 -0.3789,0.3536 -16.60742,22.4277 -0.002,0.8848 4,-3 13.95508,-20.2461 -0.9668,-0.42 z m 1.00977,0.3575 19.54492,8.121 -8.42969,16.0586 4.05469,-3.1171 9.21094,-16.3516 -0.01,0.01 h -0.002 l -0.0352,-0.014 -4.86718,3.3809 h -0.002 L 29.81214,12.5351 Z"
     fill="#987197"
     fill-rule="evenodd"
     id="path10"
     style="fill:#00ff00" />
  <path
     d="m 28.31055,11.9102 h -0.002 l 0.53711,0.2246 h 0.002 z m 0.49218,0.2675 -0.3789,0.3536 -16.60742,22.4277 -0.002,0.8848 4,-3 13.95508,-20.2461 -0.9668,-0.42 z m 1.00977,0.3575 19.54492,8.121 -8.42969,16.0586 4.05469,-3.1171 9.21094,-16.3516 -0.01,0.01 h -0.002 l -0.0352,-0.014 -4.86718,3.3809 h -0.002 L 29.81214,12.5351 Z"
     fill="#987197"
     fill-rule="evenodd"
     id="path1118"
     style="fill:#ffffff;opacity:0.2" />
  <path
     d="m 11.5,35.5 17,-23 21,8 -9,16"
     fill="none"
     stroke="#77216f"
     id="path12"
     style="stroke:#00ff00" />
  <path
     d="m 20.08984,8.2168 -9.20117,13.2871 -0.043,0.043 0.01,0.01 -0.0898,0.1289 23.60547,12.3144 -0.0137,0.014 0.0254,-0.01 0.0586,0.031 15.1875,-4.0489 -0.008,-0.027 0.0449,-0.012 2.6914,-3.1328 L 37.42775,30.9922 14.07033,18.666 20.91018,8.7871 20.08986,8.2188 Z"
     fill="#fe865c"
     fill-rule="evenodd"
     id="path14"
     style="fill:#00ff00" />
  <path
     d="m 20.08984,8.2168 -9.20117,13.2871 -0.043,0.043 0.01,0.01 -0.0898,0.1289 23.60547,12.3144 -0.0137,0.014 0.0254,-0.01 0.0586,0.031 15.1875,-4.0489 -0.008,-0.027 0.0449,-0.012 2.6914,-3.1328 L 37.42775,30.9922 14.07033,18.666 20.91018,8.7871 20.08986,8.2188 Z"
     fill="#fe865c"
     fill-rule="evenodd"
     id="path950"
     style="fill:#ffffff;opacity:0.6" />
  <path
     d="m 20.5,8.5 -9,13 23,12 15,-4"
     fill="none"
     stroke="#e95420"
     id="path18"
     style="stroke:#00ff00" />
  <path
     d="m 20.5,8.5 -9,13 23,12 15,-4"
     fill="none"
     stroke="#e95420"
     id="path1026"
     style="stroke:#ffffff;opacity:0.4" />
</svg>
