<svg xmlns="http://www.w3.org/2000/svg" xmlns:xlink="http://www.w3.org/1999/xlink" viewBox="0 0 16 16"><defs><linearGradient xlink:href="#a" id="b" x1="5" y1="4" x2="5" y2="14" gradientUnits="userSpaceOnUse" gradientTransform="translate(0 -1)"/><linearGradient id="a"><stop style="stop-color:#151515;stop-opacity:1" offset="0"/><stop style="stop-color:#4d4d4d;stop-opacity:1" offset="1"/></linearGradient></defs><path style="opacity:1;fill:#000;fill-opacity:1;fill-rule:evenodd;stroke:#fff;stroke-width:2;stroke-linecap:butt;stroke-linejoin:round;stroke-miterlimit:4;stroke-dasharray:none;stroke-opacity:1" d="M6 3C4.343 3 3 4.12 3 5.5v3C3 9.88 4.343 11 6 11s3-1.12 3-2.5c0 1.38 1.343 2.5 3 2.5s3-1.12 3-2.5v-3C15 4.12 13.657 3 12 3S9 4.12 9 5.5C9 4.12 7.657 3 6 3Zm0 2a1 1 0 0 1 1 1v2a1 1 0 1 1-2 0V6a1 1 0 0 1 1-1Zm6 0a1 1 0 0 1 1 1v2a1 1 0 1 1-2 0V6a1 1 0 0 1 1-1ZM1 9v2h1c0 1 0 1-1 2 1 0 2 0 2-2V9Z"/><path style="fill:url(#b);fill-opacity:1;stroke-width:1.09545" d="M6 3C4.343 3 3 4.12 3 5.5v3C3 9.88 4.343 11 6 11s3-1.12 3-2.5c0 1.38 1.343 2.5 3 2.5s3-1.12 3-2.5v-3C15 4.12 13.657 3 12 3S9 4.12 9 5.5C9 4.12 7.657 3 6 3Zm0 2a1 1 0 0 1 1 1v2a1 1 0 1 1-2 0V6a1 1 0 0 1 1-1Zm6 0a1 1 0 0 1 1 1v2a1 1 0 1 1-2 0V6a1 1 0 0 1 1-1ZM1 9v2h1c0 1 0 1-1 2 1 0 2 0 2-2V9Z"/><circle style="opacity:1;vector-effect:none;fill:#46a926;fill-opacity:1;stroke:none;stroke-width:3.5;stroke-linecap:butt;stroke-linejoin:round;stroke-miterlimit:4;stroke-dasharray:none;stroke-dashoffset:0;stroke-opacity:1" cy="12.5" cx="12.5" r="3.5"/><path overflow="visible" font-weight="400" style="color:#000;font-weight:400;line-height:normal;font-family:sans-serif;text-indent:0;text-align:start;text-decoration:none;text-decoration-line:none;text-decoration-style:solid;text-decoration-color:#000;text-transform:none;white-space:normal;overflow:visible;isolation:auto;mix-blend-mode:normal;fill:#fff;fill-opacity:1;marker:none" d="M12 10v2h-2v1h2v2h1v-2h2v-1h-2v-2z"/></svg>