<svg xmlns="http://www.w3.org/2000/svg" viewBox="0 0 24 24"><path style="opacity:.7;fill:#000;stroke:#000;stroke-width:2;stroke-linejoin:round;stroke-miterlimit:4;stroke-dasharray:none" d="M16 20c2 0 3 0 3-2V6c0-2-1-2-3-2H8C6 4 5 4 5 6v12c0 2 1 2 3 2z"/><path d="M16 20c2 0 3 0 3-2V6c0-2-1-2-3-2H8C6 4 5 4 5 6v12c0 2 1 2 3 2z" style="fill:#fff"/><path style="opacity:1;fill:#232629;fill-opacity:1;stroke:none;stroke-width:1.54919326;stroke-linejoin:round;stroke-miterlimit:4;stroke-dasharray:none;stroke-opacity:1" transform="scale(-1 1)" d="M-17 7h6v2h-6zM-17 11h6v2h-6zM-17 15h6v2h-6z"/><path style="opacity:1;fill:#232629;fill-opacity:1;stroke:none;stroke-width:.89442712;stroke-linejoin:round;stroke-miterlimit:4;stroke-dasharray:none;stroke-opacity:1" transform="scale(-1 1)" d="M-9 7h2v2h-2zM-9 11h2v2h-2zM-9 15h2v2h-2z"/></svg>