<svg xmlns="http://www.w3.org/2000/svg" viewBox="0 0 32 32"><path d="M6.994 3c-1.258.014-2.179-.03-2.932.384a1.88 1.88 0 00-.837.999C3.06 4.82 3 5.343 3 6v20c0 .658.06 1.179.225 1.617.164.44.461.789.837.997.753.415 1.674.371 2.932.386h18.012c1.258-.014 2.179.03 2.932-.384a1.88 1.88 0 00.837-.999c.165-.438.296-.963.225-1.617V6c0-.658-.06-1.179-.225-1.617a1.875 1.875 0 00-.837-.997c-.753-.415-1.674-.371-2.932-.386H6.998z" style="line-height:125%;-inkscape-font-specification:Ubuntu;text-align:center" font-weight="400" font-size="15" font-family="Ubuntu" letter-spacing="0" word-spacing="0" text-anchor="middle" opacity=".6"/><path d="M11.983 4.027c-1.556.01-5.11-.012-6.66.039-.46.042-1.016.206-1.155.71-.219.635-.108 1.333-.146 1.982-.008 2.297-.023 17.596.022 19.885.039.462.202 1.013.699 1.164.632.225 1.284.123 1.936.154 1.424.007 12.85.011 14.276.012 1.704 0 3.408-.005 5.107-.019.512-.012 1.184.02 1.585-.405.421-.54.287-1.268.323-1.904.011-2.444.027-17.911-.022-20.357-.05-.402-.17-.863-.575-1.044-.669-.294-1.427-.168-2.126-.206-1.755-.012-11.51-.012-13.264-.011z" fill="#a6d74f"/><path d="M22 10c-2.216 0-4 1.784-4 4v4c0 2.216 1.784 4 4 4s4-1.784 4-4v-4c0-2.216-1.784-4-4-4zm0 2c1.108 0 2 1.189 2 2.666v2.668C24 18.811 23.108 20 22 20s-2-1.189-2-2.666v-2.668c0-1.477.892-2.666 2-2.666z" fill="#4d4d4d"/><rect width="1.5" height="4" x="20.658" y="16.075" ry=".5" transform="rotate(15)" fill="#4d4d4d"/><path d="M11 10l-.707.707L10 11l-3.242 3.242a.998.998 0 000 1.414.998.998 0 001.414 0L10 13.828l1-1V21c0 .554.446 1 1 1s1-.446 1-1V10h-2z" fill="#4d4d4d" fill-rule="evenodd"/></svg>