<svg xmlns="http://www.w3.org/2000/svg" xmlns:xlink="http://www.w3.org/1999/xlink" viewBox="0 0 16 16"><defs><linearGradient id="a"><stop style="stop-color:#151515;stop-opacity:1" offset="0"/><stop style="stop-color:#4d4d4d;stop-opacity:1" offset="1"/></linearGradient><linearGradient xlink:href="#a" id="b" x1="9" y1="2" x2="9" y2="14" gradientUnits="userSpaceOnUse"/></defs><path style="opacity:1;fill:#000;stroke:#fff;stroke-width:3;stroke-linejoin:round;stroke-miterlimit:4;stroke-dasharray:none;stroke-opacity:1" d="M9.583 2.48c-.988 0-1.913.157-2.78.47a7.003 7.003 0 0 0-2.265 1.315 6.141 6.141 0 0 0-1.514 2.021c-.365.784-.547 1.646-.547 2.589 0 .68.114 1.304.343 1.874a4.21 4.21 0 0 0 1.01 1.471 4.6 4.6 0 0 0 1.599.962c.637.224 1.356.337 2.157.337 1.016 0 1.912-.139 2.685-.418a6.401 6.401 0 0 0 2.05-1.2l-.677-.626c-.036-.054-.114-.082-.235-.082-.108 0-.236.057-.387.172a5.25 5.25 0 0 1-.612.37 5.182 5.182 0 0 1-.988.38c-.4.109-.906.163-1.514.163-.508 0-.977-.078-1.406-.237a3.3 3.3 0 0 1-1.116-.7 3.224 3.224 0 0 1-.718-1.11 4.023 4.023 0 0 1-.26-1.478c0-.767.13-1.462.387-2.08A4.742 4.742 0 0 1 5.87 5.094a4.661 4.661 0 0 1 1.61-1.003 5.594 5.594 0 0 1 1.997-.354c.35 0 .657.025.922.074.265.044.495.101.688.172a4.06 4.06 0 0 1 .847.453c.108.071.2.13.279.18a.543.543 0 0 0 .484.018.923.923 0 0 0 .183-.124l.643-.6a4.415 4.415 0 0 0-.72-.591 3.859 3.859 0 0 0-.869-.453 5.148 5.148 0 0 0-1.05-.288 7.8 7.8 0 0 0-1.301-.098z"/><path style="color:#000;font-style:normal;font-variant:normal;font-weight:400;font-stretch:normal;font-size:medium;line-height:normal;font-family:sans-serif;font-variant-ligatures:normal;font-variant-position:normal;font-variant-caps:normal;font-variant-numeric:normal;font-variant-alternates:normal;font-variant-east-asian:normal;font-feature-settings:normal;font-variation-settings:normal;text-indent:0;text-align:start;text-decoration:none;text-decoration-line:none;text-decoration-style:solid;text-decoration-color:#000;letter-spacing:normal;word-spacing:normal;text-transform:none;writing-mode:lr-tb;direction:ltr;text-orientation:mixed;dominant-baseline:auto;baseline-shift:baseline;text-anchor:start;white-space:normal;shape-padding:0;shape-margin:0;inline-size:0;clip-rule:nonzero;display:inline;overflow:visible;visibility:visible;isolation:auto;mix-blend-mode:normal;color-interpolation:sRGB;color-interpolation-filters:linearRGB;solid-color:#000;solid-opacity:1;vector-effect:none;fill:url(#b);fill-opacity:1;fill-rule:nonzero;stroke:none;stroke-width:1;stroke-linecap:butt;stroke-linejoin:miter;stroke-miterlimit:4;stroke-dasharray:none;stroke-dashoffset:0;stroke-opacity:1;color-rendering:auto;image-rendering:auto;shape-rendering:auto;text-rendering:auto;enable-background:accumulate;stop-color:#000" d="M9.582 1.98c-1.04 0-2.024.166-2.947.499a7.518 7.518 0 0 0-2.426 1.41 6.656 6.656 0 0 0-1.637 2.183v.002H2.57c-.397.853-.593 1.794-.593 2.801 0 .736.124 1.427.378 2.06l.002.002v.002a4.73 4.73 0 0 0 1.131 1.645c.49.461 1.085.816 1.77 1.066l.002.002h.002c.698.247 1.475.368 2.324.368 1.062 0 2.016-.146 2.855-.45h.002a6.906 6.906 0 0 0 2.207-1.293l.418-.367-1.084-1.002.079.094c-.176-.268-.457-.309-.655-.309-.285 0-.493.126-.69.276l.01-.008c-.12.088-.308.202-.552.332a4.735 4.735 0 0 1-.885.34h-.004c-.338.092-.802.144-1.379.144-.456 0-.862-.069-1.23-.205h-.002a2.79 2.79 0 0 1-.942-.59 2.713 2.713 0 0 1-.601-.933v-.002a3.521 3.521 0 0 1-.225-1.295c0-.71.12-1.334.35-1.885v-.002c.24-.56.56-1.026.959-1.41.408-.39.884-.687 1.44-.894h.001a5.077 5.077 0 0 1 1.819-.323c.327 0 .604.023.83.065l.005.002h.004c.242.04.444.091.598.148.17.063.304.128.406.19l.008.003.006.004c.123.07.228.135.31.194l.006.006.008.004c.112.073.207.136.29.187l.011.006.01.006c.14.078.308.13.482.13.152 0 .312-.02.473-.103.104-.053.2-.117.283-.19l.006-.007 1.025-.955-.357-.367a4.921 4.921 0 0 0-.791-.65 4.36 4.36 0 0 0-.979-.51 5.655 5.655 0 0 0-1.144-.315 8.291 8.291 0 0 0-1.385-.106z"/></svg>