<svg xmlns="http://www.w3.org/2000/svg" xmlns:xlink="http://www.w3.org/1999/xlink" viewBox="0 0 16 16"><defs><linearGradient xlink:href="#a" id="d" x1="328" y1="237" x2="328" y2="251" gradientUnits="userSpaceOnUse"/><linearGradient id="a"><stop style="stop-color:#fff;stop-opacity:1" offset="0"/><stop offset=".125" style="stop-color:#fff;stop-opacity:.09803922"/><stop offset=".925" style="stop-color:#fff;stop-opacity:.09803922"/><stop style="stop-color:#fff;stop-opacity:.49803922" offset="1"/></linearGradient><linearGradient xlink:href="#b" id="c" gradientUnits="userSpaceOnUse" gradientTransform="matrix(0 -.03604 -.03604 0 19.565 16.91)" x1="469.123" y1="320.848" x2="25.222" y2="320.848"/><linearGradient id="b"><stop offset="0" style="stop-color:#999;stop-opacity:1"/><stop style="stop-color:#b7b7b7;stop-opacity:1" offset=".613"/><stop offset="1" style="stop-color:#dbdbdb;stop-opacity:1"/></linearGradient><clipPath clipPathUnits="userSpaceOnUse" id="e"><path d="M325.096 237c-2.807 0-3.11.288-3.096 3.102v7.796c-.013 2.814.289 3.102 3.096 3.102h5.808c2.808 0 3.096-.288 3.096-3.102v-7.796c0-2.814-.288-3.102-3.096-3.102Z" style="color:#000;display:inline;overflow:visible;visibility:visible;opacity:1;fill:#46a926;fill-opacity:1;fill-rule:nonzero;stroke:none;stroke-width:2;stroke-miterlimit:4;stroke-dasharray:none;stroke-opacity:1;marker:none;enable-background:accumulate"/></clipPath></defs><path style="color:#000;display:inline;overflow:visible;visibility:visible;fill:url(#c);fill-opacity:1;fill-rule:nonzero;stroke:none;stroke-width:1;marker:none;enable-background:accumulate" d="M10.904.5c.71 0 1.274.015 1.752.096.479.08.897.237 1.207.547.31.31.467.726.547 1.205.08.479.093 1.043.09 1.756V11.898c.003.712-.01 1.276-.09 1.754-.08.48-.237.896-.547 1.205-.31.31-.728.467-1.207.547-.478.08-1.041.096-1.752.096H5.095c-.71 0-1.272-.015-1.75-.096-.477-.08-.895-.237-1.205-.547-.309-.31-.464-.726-.545-1.205-.08-.478-.095-1.042-.095-1.754V4.102c0-.712.015-1.276.095-1.754.08-.479.236-.896.545-1.205.31-.31.728-.467 1.205-.547C3.823.516 4.385.5 5.095.5z"/><g style="display:inline;opacity:.2;stroke:#fff;stroke-width:1.8888129;stroke-opacity:1;enable-background:new" transform="matrix(.52941 0 0 .52945 -169.883 -69.418)"><path d="M344.21 147.8a8.5 8.5 0 0 1-4.958 10.053 8.5 8.5 0 0 1-10.614-3.603 8.5 8.5 0 0 1 2.187-10.994 8.5 8.5 0 0 1 11.185.733l-1.76 1.76" style="display:inline;opacity:1;fill:none;fill-opacity:1;stroke:#fff;stroke-width:1.8888129;stroke-linecap:square;stroke-linejoin:round;stroke-miterlimit:4;stroke-dasharray:none;stroke-dashoffset:0;stroke-opacity:1;enable-background:new"/><circle r="2.833" cy="150" cx="336.001" style="display:inline;opacity:1;fill:none;fill-opacity:1;stroke:#fff;stroke-width:1.8888129;stroke-linecap:square;stroke-linejoin:round;stroke-miterlimit:4;stroke-dasharray:none;stroke-dashoffset:0;stroke-opacity:1;enable-background:new"/></g><g transform="matrix(.52941 0 0 .52945 -169.883 -70.418)" style="display:inline;stroke-width:1.8888129;enable-background:new"><path style="display:inline;opacity:1;fill:none;fill-opacity:1;stroke:gray;stroke-width:1.8888129;stroke-linecap:square;stroke-linejoin:round;stroke-miterlimit:4;stroke-dasharray:none;stroke-dashoffset:0;stroke-opacity:1;enable-background:new" d="M344.21 147.8a8.5 8.5 0 0 1-4.958 10.053 8.5 8.5 0 0 1-10.614-3.603 8.5 8.5 0 0 1 2.187-10.994 8.5 8.5 0 0 1 11.185.733l-1.76 1.76"/><circle style="display:inline;opacity:1;fill:none;fill-opacity:1;stroke:gray;stroke-width:1.8888129;stroke-linecap:square;stroke-linejoin:round;stroke-miterlimit:4;stroke-dasharray:none;stroke-dashoffset:0;stroke-opacity:1;enable-background:new" cx="336.001" cy="150" r="2.833"/></g><path d="M5.096.5c-.71 0-1.273.015-1.752.096-.479.08-.897.237-1.207.547-.31.31-.467.726-.547 1.205-.08.479-.093 1.043-.09 1.756V11.898c-.003.712.01 1.276.09 1.754.08.48.237.896.547 1.205.31.31.728.467 1.207.547.479.08 1.041.096 1.752.096h5.809c.71 0 1.272-.015 1.75-.096.477-.08.895-.237 1.205-.547.309-.31.464-.726.545-1.205.08-.478.095-1.042.095-1.754V4.102c0-.712-.015-1.276-.095-1.754-.08-.479-.236-.896-.545-1.205-.31-.31-.728-.467-1.205-.547-.478-.08-1.04-.096-1.75-.096Z" style="color:#000;display:inline;overflow:visible;visibility:visible;opacity:.4;fill:none;fill-opacity:1;fill-rule:nonzero;stroke:#000;stroke-width:1;stroke-opacity:1;marker:none;enable-background:accumulate"/><path transform="translate(-320 -236)" style="color:#000;display:inline;overflow:visible;visibility:visible;opacity:.4;fill:none;fill-opacity:1;fill-rule:nonzero;stroke:url(#d);stroke-width:2;stroke-miterlimit:4;stroke-dasharray:none;stroke-opacity:1;marker:none;enable-background:accumulate" d="M325.096 237c-2.807 0-3.11.288-3.096 3.102v7.796c-.013 2.814.289 3.102 3.096 3.102h5.808c2.808 0 3.096-.288 3.096-3.102v-7.796c0-2.814-.288-3.102-3.096-3.102Z" clip-path="url(#e)"/></svg>