<svg viewBox="0 0 32 32" xmlns:xlink="http://www.w3.org/1999/xlink" xmlns="http://www.w3.org/2000/svg"><defs><linearGradient gradientTransform="translate(-320 -132)" xlink:href="#a" id="b" x1="340" y1="132" x2="328" y2="164" gradientUnits="userSpaceOnUse"/><linearGradient id="a"><stop style="stop-color:#f2f2f2;stop-opacity:1" offset="0"/><stop style="stop-color:#fff;stop-opacity:1" offset="1"/></linearGradient></defs><path style="fill:gray;fill-opacity:1;fill-rule:evenodd;stroke-width:3;stroke-linecap:square" d="M3 8h3v1H3zM3 10h3v1H3zM3 12h3v1H3zM3 14h3v1H3zM3 16h3v1H3zM3 18h3v1H3zM3 20h3v1H3zM3 22h3v1H3zM3 24h3v1H3z"/><path style="color:#000;display:inline;overflow:visible;visibility:visible;fill:#2e851b;fill-opacity:1;fill-rule:nonzero;stroke:none;stroke-width:1;marker:none;enable-background:accumulate" d="M11.691 3c-1.412 0-2.519.034-3.418.186-.9.15-1.616.431-2.137.953-.52.521-.8 1.237-.95 2.138C5.033 7.178 5 8.287 5 9.703v12.594c0 1.415.034 2.525.185 3.426.151.9.43 1.617.951 2.138.521.522 1.237.802 2.137.953.9.152 2.006.186 3.418.186h8.615c1.413 0 2.523-.034 3.424-.186.901-.15 1.62-.431 2.143-.953.522-.521.803-1.239.953-2.14.15-.901.18-2.01.174-3.424V9.705a41.067 41.067 0 0 0-.024-1.728L22.03 3.029c-.52-.02-1.09-.029-1.723-.029z"/><path style="color:#000;font-style:normal;font-variant:normal;font-weight:400;font-stretch:normal;font-size:medium;line-height:normal;font-family:sans-serif;font-variant-ligatures:normal;font-variant-position:normal;font-variant-caps:normal;font-variant-numeric:normal;font-variant-alternates:normal;font-feature-settings:normal;text-indent:0;text-align:start;text-decoration:none;text-decoration-line:none;text-decoration-style:solid;text-decoration-color:#000;letter-spacing:normal;word-spacing:normal;text-transform:none;writing-mode:lr-tb;direction:ltr;text-orientation:mixed;dominant-baseline:auto;baseline-shift:baseline;text-anchor:start;white-space:normal;shape-padding:0;clip-rule:nonzero;display:inline;overflow:visible;visibility:visible;isolation:auto;mix-blend-mode:normal;color-interpolation:sRGB;color-interpolation-filters:linearRGB;solid-color:#000;solid-opacity:1;fill:url(#b);fill-opacity:1;fill-rule:nonzero;stroke:none;stroke-width:5;stroke-linecap:butt;stroke-linejoin:miter;stroke-miterlimit:4;stroke-dasharray:none;stroke-dashoffset:0;stroke-opacity:1;marker:none;color-rendering:auto;image-rendering:auto;shape-rendering:auto;text-rendering:auto;enable-background:accumulate" d="M11.193 5c-1.372 0-2.378.045-3.01.15-.074.013-.122.027-.183.04v21.62c.061.013.11.027.184.04.631.106 1.637.15 3.01.15h9.615c1.372 0 2.374-.045 3.003-.15.616-.104.755-.227.782-.254.028-.029.152-.169.256-.787.106-.632.15-1.637.15-3.012V10c-5 0-5.17.242-5-5h-8.807z"/><g style="clip-rule:evenodd;display:inline;fill-rule:evenodd;enable-background:new"><path d="M356 138h-10a2 2 0 0 0-2 2v9a2 2 0 0 0 2 2h10a2 2 0 0 0 2-2v-9a2 2 0 0 0-2-2z" style="fill:#ccf4c6;fill-rule:nonzero" transform="translate(-335 -127)"/></g><g style="clip-rule:evenodd;display:inline;fill-rule:evenodd;enable-background:new"><path d="M356 138h-10a2 2 0 0 0 0 4h10a2 2 0 1 0 0-4z" style="fill:#92e285;fill-rule:nonzero" transform="translate(-335 -127)"/></g><g style="clip-rule:evenodd;display:inline;fill-rule:evenodd;enable-background:new"><path d="M346 138a2 2 0 0 0-2 2v9a2 2 0 0 0 2 2h10a2 2 0 0 0 2-2v-9a2 2 0 0 0-2-2zm-1 2a1 1 0 0 1 1-1h2v2h-3zm4-1h4v2h-4zm5 0h2a1 1 0 0 1 1 1v1h-3zm-9 3h3v2h-3zm4 0h4v2h-4zm5 0h3v2h-3zm-9 3h3v2h-3zm4 0h4v2h-4zm5 0h3v2h-3zm-9 3h3v2h-2c-.552 0-.958-.449-1-1zm4 0h4v2h-4zm5 0h3v1a1 1 0 0 1-1 1h-2z" style="fill:#148203;fill-rule:nonzero" transform="translate(-335 -127)"/></g><g style="clip-rule:evenodd;display:inline;fill-rule:evenodd;enable-background:new"><path d="M358 144h-6a1 1 0 0 0-1 1v6a1 1 0 0 0 1 1h6a1 1 0 0 0 1-1v-6a1 1 0 0 0-1-1z" style="fill:#148403;fill-rule:nonzero" transform="translate(-335 -127)"/></g><g style="clip-rule:evenodd;display:inline;fill-rule:evenodd;enable-background:new"><path d="M357.5 145h-5a.5.5 0 0 0-.5.5v5a.5.5 0 0 0 .5.5h5a.5.5 0 0 0 .5-.5v-5a.5.5 0 0 0-.5-.5z" style="fill:#ccc;fill-rule:nonzero" transform="translate(-335 -127)"/></g><g style="clip-rule:evenodd;display:inline;fill-rule:evenodd;enable-background:new"><path d="M357.5 145h-5a.5.5 0 0 0-.5.5v5a.5.5 0 0 0 .5.5h5a.5.5 0 0 0 .5-.5v-5a.5.5 0 0 0-.5-.5z" style="fill:#ccf4c6;fill-rule:nonzero" transform="translate(-335 -127)"/></g><g style="clip-rule:evenodd;display:inline;fill-rule:evenodd;enable-background:new"><path d="M355 148h-1a1 1 0 0 0-1 1v2h2z" style="fill:#41b02f;fill-rule:nonzero" transform="translate(-335 -127)"/></g><g style="clip-rule:evenodd;display:inline;fill-rule:evenodd;enable-background:new"><path d="M357 151v-4a1 1 0 0 0-2 0v4z" style="fill:#148503;fill-rule:nonzero" transform="translate(-335 -127)"/></g><g style="clip-rule:evenodd;display:inline;fill-rule:evenodd;enable-background:new"><path style="fill:#92e285;fill-rule:nonzero" d="M354 148h1v2h-1z" transform="translate(-335 -127)"/></g><g style="clip-rule:evenodd;display:inline;fill-rule:evenodd;enable-background:new"><path d="M357 150v-3a1 1 0 0 0-1-1v4z" style="fill:#41b02f;fill-rule:nonzero" transform="translate(-335 -127)"/></g><path style="fill:#fff;fill-rule:evenodd;stroke-width:3;stroke-linecap:square" d="M6 8h1v1H6zM6 10h1v1H6zM6 12h1v1H6zM6 14h1v1H6zM6 16h1v1H6zM6 18h1v1H6zM6 20h1v1H6zM6 22h1v1H6zM6 24h1v1H6z"/></svg>