<svg viewBox="0 0 32 32" xmlns:xlink="http://www.w3.org/1999/xlink" xmlns="http://www.w3.org/2000/svg"><defs><linearGradient id="d"><stop style="stop-color:#0369a3;stop-opacity:1" offset="0"/><stop style="stop-color:#023f62;stop-opacity:1" offset="1"/></linearGradient><linearGradient id="c"><stop style="stop-color:#63bbee;stop-opacity:1" offset="0"/><stop style="stop-color:#aadcf7;stop-opacity:1" offset="1"/></linearGradient><linearGradient xlink:href="#a" id="f" gradientUnits="userSpaceOnUse" gradientTransform="matrix(0 -.07466 .07509 0 -8.093 34.455)" x1="52.965" y1="401.43" x2="441.379" y2="240.303"/><linearGradient id="a"><stop offset="0" style="stop-color:#666;stop-opacity:1"/><stop offset="1" style="stop-color:#333;stop-opacity:1"/></linearGradient><linearGradient xlink:href="#b" id="g" gradientUnits="userSpaceOnUse" gradientTransform="matrix(0 -.06179 .06007 0 -3.274 31.273)" x1="441.379" y1="240.309" x2="52.965" y2="401.439"/><linearGradient id="b"><stop style="stop-color:#f2f2f2;stop-opacity:1" offset="0"/><stop style="stop-color:#f9f9f9;stop-opacity:1" offset="1"/></linearGradient><linearGradient xlink:href="#c" id="h" gradientUnits="userSpaceOnUse" gradientTransform="matrix(.24138 0 0 .23077 -486.908 401.15)" x1="3404.999" y1="-1092.638" x2="3404.999" y2="-1117.658"/><linearGradient xlink:href="#c" id="i" gradientUnits="userSpaceOnUse" gradientTransform="matrix(.24138 0 0 .23077 -477.908 401.15)" x1="3404.999" y1="-1092.638" x2="3404.999" y2="-1117.658"/><linearGradient xlink:href="#c" id="j" gradientUnits="userSpaceOnUse" gradientTransform="matrix(.24138 0 0 .23077 -477.908 408.149)" x1="3404.999" y1="-1092.638" x2="3404.999" y2="-1117.658"/><linearGradient xlink:href="#c" id="k" gradientUnits="userSpaceOnUse" gradientTransform="matrix(.24138 0 0 .23077 -486.908 408.15)" x1="3404.999" y1="-1092.638" x2="3404.999" y2="-1117.658"/><linearGradient xlink:href="#d" id="l" gradientUnits="userSpaceOnUse" gradientTransform="matrix(.66668 0 0 3 42.332 -1964.72)" x1="117.719" y1="982.362" x2="117.719" y2="984.72"/><linearGradient xlink:href="#d" id="m" gradientUnits="userSpaceOnUse" gradientTransform="matrix(.77768 0 0 3 30.234 -1963.72)" x1="117.719" y1="982.362" x2="117.719" y2="984.72"/><linearGradient xlink:href="#d" id="n" gradientUnits="userSpaceOnUse" gradientTransform="matrix(.58326 0 0 3 51.425 -1965.72)" x1="117.719" y1="982.362" x2="117.719" y2="984.72"/><linearGradient xlink:href="#d" id="o" gradientUnits="userSpaceOnUse" gradientTransform="matrix(.55544 0 0 3 54.457 -1965.72)" x1="117.719" y1="982.362" x2="117.719" y2="984.72"/><linearGradient xlink:href="#d" id="p" gradientUnits="userSpaceOnUse" gradientTransform="matrix(.77768 0 0 3 39.234 -1963.72)" x1="117.719" y1="982.362" x2="117.719" y2="984.72"/><linearGradient xlink:href="#d" id="q" gradientUnits="userSpaceOnUse" gradientTransform="matrix(.58326 0 0 3 60.426 -1965.72)" x1="117.719" y1="982.362" x2="117.719" y2="984.72"/><linearGradient xlink:href="#d" id="r" gradientUnits="userSpaceOnUse" gradientTransform="matrix(.55544 0 0 3 63.457 -1965.72)" x1="117.719" y1="982.362" x2="117.719" y2="984.72"/><linearGradient xlink:href="#d" id="s" gradientUnits="userSpaceOnUse" gradientTransform="matrix(.77768 0 0 3 30.234 -1956.72)" x1="117.719" y1="982.362" x2="117.719" y2="984.72"/><linearGradient xlink:href="#d" id="t" gradientUnits="userSpaceOnUse" gradientTransform="matrix(.58326 0 0 3 51.425 -1958.72)" x1="117.719" y1="982.362" x2="117.719" y2="984.72"/><linearGradient xlink:href="#d" id="u" gradientUnits="userSpaceOnUse" gradientTransform="matrix(.55544 0 0 3 54.457 -1958.72)" x1="117.719" y1="982.362" x2="117.719" y2="984.72"/><linearGradient xlink:href="#d" id="v" gradientUnits="userSpaceOnUse" gradientTransform="matrix(.77768 0 0 3 39.234 -1956.72)" x1="117.719" y1="982.362" x2="117.719" y2="984.72"/><linearGradient xlink:href="#d" id="w" gradientUnits="userSpaceOnUse" gradientTransform="matrix(.58326 0 0 3 60.426 -1958.72)" x1="117.719" y1="982.362" x2="117.719" y2="984.72"/><linearGradient xlink:href="#d" id="x" gradientUnits="userSpaceOnUse" gradientTransform="matrix(.55544 0 0 3 63.457 -1958.72)" x1="117.719" y1="982.362" x2="117.719" y2="984.72"/><linearGradient xlink:href="#e" id="y" x1="336" y1="134" x2="336" y2="162" gradientUnits="userSpaceOnUse" gradientTransform="translate(-320 -132)"/><linearGradient id="e"><stop style="stop-color:#fff;stop-opacity:1" offset="0"/><stop offset=".125" style="stop-color:#fff;stop-opacity:.09803922"/><stop offset=".925" style="stop-color:#fff;stop-opacity:.09803922"/><stop style="stop-color:#fff;stop-opacity:.49803922" offset="1"/></linearGradient></defs><path style="color:#000;font-style:normal;font-variant:normal;font-weight:400;font-stretch:normal;font-size:medium;line-height:normal;font-family:sans-serif;font-variant-ligatures:normal;font-variant-position:normal;font-variant-caps:normal;font-variant-numeric:normal;font-variant-alternates:normal;font-feature-settings:normal;text-indent:0;text-align:start;text-decoration:none;text-decoration-line:none;text-decoration-style:solid;text-decoration-color:#000;letter-spacing:normal;word-spacing:normal;text-transform:none;writing-mode:lr-tb;direction:ltr;text-orientation:mixed;dominant-baseline:auto;baseline-shift:baseline;text-anchor:start;white-space:normal;shape-padding:0;clip-rule:nonzero;display:inline;overflow:visible;visibility:visible;opacity:.1;isolation:auto;mix-blend-mode:normal;color-interpolation:sRGB;color-interpolation-filters:linearRGB;solid-color:#000;solid-opacity:1;vector-effect:none;fill:#000;fill-opacity:1;fill-rule:nonzero;stroke:none;stroke-width:2;stroke-linecap:butt;stroke-linejoin:miter;stroke-miterlimit:4;stroke-dasharray:none;stroke-dashoffset:0;stroke-opacity:1;marker:none;color-rendering:auto;image-rendering:auto;shape-rendering:auto;text-rendering:auto;enable-background:accumulate" d="M10.194 2c-1.421 0-2.549.03-3.506.191-.957.161-1.791.473-2.412 1.092-.62.62-.937 1.456-1.096 2.414-.16.958-.186 2.087-.18 3.512V24.797c-.007 1.421.021 2.55.18 3.506.16.958.475 1.795 1.096 2.414.62.619 1.455.931 2.412 1.092.957.16 2.085.191 3.506.191h11.615c1.421 0 2.547-.03 3.502-.191.955-.161 1.788-.475 2.406-1.094.619-.62.932-1.454 1.092-2.41.16-.957.191-2.084.191-3.508V9l-7-7z"/><path d="M9.951 1.5c-5.849 0-6.478.597-6.45 6.425v16.15c-.028 5.828.601 6.425 6.45 6.425h12.1c5.849 0 6.45-.597 6.45-6.425V7.714L22.25 1.5z" style="color:#000;display:inline;overflow:visible;visibility:visible;fill:url(#f);fill-opacity:1;fill-rule:nonzero;stroke:none;stroke-width:1;marker:none;enable-background:accumulate"/><path d="M11.161 4c-5.16 0-5.16 0-5.16 5.317v13.366c0 5.317 0 5.317 5.16 5.317h9.68C26 28 26 28 26 22.683V8l-4-4z" style="color:#000;display:inline;overflow:visible;visibility:visible;fill:url(#g);fill-opacity:1;fill-rule:nonzero;stroke:none;stroke-width:1;marker:none;enable-background:accumulate"/><g style="display:inline;enable-background:new"><path style="display:inline;overflow:visible;visibility:visible;opacity:.5;fill:url(#h);fill-opacity:1;fill-rule:nonzero;stroke:none;stroke-width:1;marker:none" d="M328.001 143.001h7v6h-7z" transform="translate(-320 -131.001)"/><path style="display:inline;overflow:visible;visibility:visible;opacity:.5;fill:url(#i);fill-opacity:1;fill-rule:nonzero;stroke:none;stroke-width:1;marker:none" d="M337.001 143.001h7v6h-7z" transform="translate(-320 -131.001)"/><path style="display:inline;overflow:visible;visibility:visible;opacity:.5;fill:url(#j);fill-opacity:1;fill-rule:nonzero;stroke:none;stroke-width:1;marker:none" d="M337.001 150.001h7v6h-7z" transform="translate(-320 -131.001)"/><path style="display:inline;overflow:visible;visibility:visible;opacity:.5;fill:url(#k);fill-opacity:1;fill-rule:nonzero;stroke:none;stroke-width:1;marker:none" d="M328.001 150.001h7v6h-7z" transform="translate(-320 -131.001)"/><g transform="matrix(.99998 0 0 1 -106.997 -971.362)" style="display:inline;overflow:visible;visibility:visible;fill:url(#l);fill-opacity:1;fill-rule:nonzero;stroke:none;stroke-width:5.01122;marker:none"><path style="display:inline;overflow:visible;visibility:visible;fill:url(#m);fill-opacity:1;fill-rule:nonzero;stroke:none;stroke-width:5.01122;marker:none" d="M115.001 983.361H122v1h-6.999z"/><path style="display:inline;overflow:visible;visibility:visible;fill:url(#n);fill-opacity:1;fill-rule:nonzero;stroke:none;stroke-width:5.01122;marker:none" d="M115.001 985.361H122v1h-6.999z"/><path style="display:inline;overflow:visible;visibility:visible;fill:url(#o);fill-opacity:1;fill-rule:nonzero;stroke:none;stroke-width:5.01122;marker:none" d="M115.001 987.361H120v1h-4.999z"/><path style="display:inline;overflow:visible;visibility:visible;fill:url(#p);fill-opacity:1;fill-rule:nonzero;stroke:none;stroke-width:5.01122;marker:none" d="M124.001 983.361H131v1h-6.999z"/><path style="display:inline;overflow:visible;visibility:visible;fill:url(#q);fill-opacity:1;fill-rule:nonzero;stroke:none;stroke-width:5.01122;marker:none" d="M124.001 985.361H131v1h-6.999z"/><path style="display:inline;overflow:visible;visibility:visible;fill:url(#r);fill-opacity:1;fill-rule:nonzero;stroke:none;stroke-width:5.01122;marker:none" d="M124.001 987.361H129v1h-4.999z"/><path style="display:inline;overflow:visible;visibility:visible;fill:url(#s);fill-opacity:1;fill-rule:nonzero;stroke:none;stroke-width:5.01122;marker:none" d="M115.001 990.361H122v1h-6.999z"/><path style="display:inline;overflow:visible;visibility:visible;fill:url(#t);fill-opacity:1;fill-rule:nonzero;stroke:none;stroke-width:5.01122;marker:none" d="M115.001 992.361H122v1h-6.999z"/><path style="display:inline;overflow:visible;visibility:visible;fill:url(#u);fill-opacity:1;fill-rule:nonzero;stroke:none;stroke-width:5.01122;marker:none" d="M115.001 994.361H120v1h-4.999z"/><path style="display:inline;overflow:visible;visibility:visible;fill:url(#v);fill-opacity:1;fill-rule:nonzero;stroke:none;stroke-width:5.01122;marker:none" d="M124.001 990.361H131v1h-6.999z"/><path style="display:inline;overflow:visible;visibility:visible;fill:url(#w);fill-opacity:1;fill-rule:nonzero;stroke:none;stroke-width:5.01122;marker:none" d="M124.001 992.361H131v1h-6.999z"/><path style="display:inline;overflow:visible;visibility:visible;fill:url(#x);fill-opacity:1;fill-rule:nonzero;stroke:none;stroke-width:5.01122;marker:none" d="M124.001 994.361H129v1h-4.999z"/></g></g><path style="color:#000;display:inline;overflow:visible;visibility:visible;opacity:.2;fill:#fff;fill-opacity:1;fill-rule:nonzero;stroke:none;stroke-width:1;marker:none;enable-background:accumulate" d="M4 16v7.797C3.973 29.424 4.578 30 10.194 30h11.615C27.424 30 28 29.424 28 23.797V16z"/><path style="color:#000;display:inline;overflow:visible;visibility:visible;opacity:.2;fill:#fff;fill-opacity:1;fill-rule:nonzero;stroke:none;stroke-width:1;marker:none;enable-background:accumulate" d="M16 2v28h5.81c5.614 0 6.19-.576 6.19-6.203V8l-6-6z"/><path style="color:#000;font-style:normal;font-variant:normal;font-weight:400;font-stretch:normal;font-size:medium;line-height:normal;font-family:sans-serif;font-variant-ligatures:normal;font-variant-position:normal;font-variant-caps:normal;font-variant-numeric:normal;font-variant-alternates:normal;font-feature-settings:normal;text-indent:0;text-align:start;text-decoration:none;text-decoration-line:none;text-decoration-style:solid;text-decoration-color:#000;letter-spacing:normal;word-spacing:normal;text-transform:none;writing-mode:lr-tb;direction:ltr;text-orientation:mixed;dominant-baseline:auto;baseline-shift:baseline;text-anchor:start;white-space:normal;shape-padding:0;clip-rule:nonzero;display:inline;overflow:visible;visibility:visible;opacity:.4;isolation:auto;mix-blend-mode:normal;color-interpolation:sRGB;color-interpolation-filters:linearRGB;solid-color:#000;solid-opacity:1;vector-effect:none;fill:#000;fill-opacity:1;fill-rule:nonzero;stroke:none;stroke-width:2;stroke-linecap:butt;stroke-linejoin:miter;stroke-miterlimit:4;stroke-dasharray:none;stroke-dashoffset:0;stroke-opacity:1;marker:none;color-rendering:auto;image-rendering:auto;shape-rendering:auto;text-rendering:auto;enable-background:accumulate" d="M10.194 1c-1.421 0-2.549.03-3.506.191-.957.161-1.791.473-2.412 1.092-.62.62-.937 1.456-1.096 2.414-.16.958-.186 2.087-.18 3.512V23.797c-.007 1.421.021 2.55.18 3.506.16.958.475 1.795 1.096 2.414.62.619 1.455.931 2.412 1.092.957.16 2.085.191 3.506.191h11.615c1.421 0 2.547-.03 3.502-.191.955-.161 1.788-.475 2.406-1.094.619-.62.932-1.454 1.092-2.41.16-.957.191-2.084.191-3.508V7.79L22.223 1zm0 1h11.615L28 8.203v15.594C28 29.424 27.424 30 21.81 30H10.193C4.578 30 3.973 29.424 4 23.797V8.203C3.973 2.576 4.578 2 10.194 2z"/><path style="color:#000;font-style:normal;font-variant:normal;font-weight:400;font-stretch:normal;font-size:medium;line-height:normal;font-family:sans-serif;font-variant-ligatures:normal;font-variant-position:normal;font-variant-caps:normal;font-variant-numeric:normal;font-variant-alternates:normal;font-feature-settings:normal;text-indent:0;text-align:start;text-decoration:none;text-decoration-line:none;text-decoration-style:solid;text-decoration-color:#000;letter-spacing:normal;word-spacing:normal;text-transform:none;writing-mode:lr-tb;direction:ltr;text-orientation:mixed;dominant-baseline:auto;baseline-shift:baseline;text-anchor:start;white-space:normal;shape-padding:0;clip-rule:nonzero;display:inline;overflow:visible;visibility:visible;opacity:.4;isolation:auto;mix-blend-mode:normal;color-interpolation:sRGB;color-interpolation-filters:linearRGB;solid-color:#000;solid-opacity:1;vector-effect:none;fill:url(#y);fill-opacity:1;fill-rule:nonzero;stroke:none;stroke-width:2;stroke-linecap:butt;stroke-linejoin:miter;stroke-miterlimit:4;stroke-dasharray:none;stroke-dashoffset:0;stroke-opacity:1;marker:none;color-rendering:auto;image-rendering:auto;shape-rendering:auto;text-rendering:auto;enable-background:accumulate" d="M10.194 2C4.578 2 3.973 2.576 4 8.203v15.594C3.973 29.424 4.578 30 10.194 30h11.615C27.424 30 28 29.424 28 23.797V8.203L21.81 2zm0 1h11.615L27 8.203v15.594c0 1.39-.04 2.443-.164 3.178-.123.734-.305 1.1-.533 1.328-.227.228-.592.41-1.324.533-.732.123-1.783.164-3.17.164H10.194c-1.387 0-2.441-.04-3.176-.164-.735-.123-1.101-.307-1.33-.535-.229-.229-.411-.594-.533-1.326-.122-.733-.161-1.786-.155-3.174V8.199c-.007-1.389.033-2.443.155-3.176.122-.732.304-1.095.533-1.324.229-.228.595-.412 1.33-.535C7.753 3.041 8.808 3 10.194 3z"/><path style="color:#000;display:inline;overflow:visible;visibility:visible;opacity:.6;fill:#000;fill-opacity:1;fill-rule:nonzero;stroke:none;stroke-width:.250023;marker:none;enable-background:accumulate" d="M28 9V8l-6-6h-1V4.836c0 3.622.485 4.18 4.116 4.163z"/><path style="color:#000;display:inline;overflow:visible;visibility:visible;fill:#888;fill-opacity:1;fill-rule:nonzero;stroke:none;stroke-width:.250023;marker:none;enable-background:accumulate" d="m28 8-6-6v2.374c0 3.415.158 3.642 3.58 3.625z"/></svg>