<svg viewBox="0 0 16 16" xmlns="http://www.w3.org/2000/svg"><path d="M8.03 2 6.155 5.939l-4.15.621 2.982 3.08-.732 4.336 3.719-2.037L11.671 14l-.684-4.34 3.02-3.062-4.143-.645zm-.008 2 1.221 2.73 2.762.433-2.01 1.945.455 3.049-2.463-1.373-2.48 1.357.488-3.047-1.988-1.96 2.766-.411z" style="fill:#000;opacity:.7"/><path d="m5.196 12.69.277-1.704.256-1.636-1.1-1.112-1.1-1.112.345-.058 1.514-.23 1.207-.21L7.84 3.933 8 3.578v7.701l-1.435.74-1.364.74-.005-.068z" fill-opacity=".502" style="fill:#fee581;fill-opacity:1"/><path d="m10.804 12.69-.277-1.704-.256-1.636 1.1-1.112 1.1-1.112-.345-.058-1.514-.23-1.207-.21L8.16 3.933 8 3.578v7.701l1.435.74 1.364.74.005-.068z" fill-opacity=".502" style="fill:#fff;fill-opacity:1"/></svg>