<svg xmlns="http://www.w3.org/2000/svg" xmlns:xlink="http://www.w3.org/1999/xlink" viewBox="0 0 24 24"><defs><linearGradient id="a"><stop style="stop-color:#151515;stop-opacity:1" offset="0"/><stop style="stop-color:#4d4d4d;stop-opacity:1" offset="1"/></linearGradient><linearGradient xlink:href="#a" id="b" x1="12" y1="3" x2="12" y2="22" gradientUnits="userSpaceOnUse"/></defs><path d="M6 3v5.285c0 1.21.238 2.267.715 2.965a3.79 3.79 0 0 0 1.955 1.473c.837.272 1.811.364 2.924.277 1.123-.087 2.124-.407 3.406-.756V19h3V3h-3v7.23c-1.049.262-1.773.432-2.578.508-.795.066-1.26.017-1.8-.146-.53-.175-.932-.48-1.208-.916C9.14 9.229 9 8.623 9 7.859V3zM5 21v1h14v-1z" style="opacity:1;fill:#000;stroke:#fff;stroke-width:2;stroke-linejoin:round;stroke-miterlimit:4;stroke-dasharray:none"/><path style="fill:url(#b);fill-opacity:1" d="M6 3v5.285c0 1.21.238 2.267.715 2.965a3.79 3.79 0 0 0 1.955 1.473c.837.272 1.811.364 2.924.277 1.123-.087 2.124-.407 3.406-.756V19h3V3h-3v7.23c-1.049.262-1.773.432-2.578.508-.795.066-1.26.017-1.8-.146-.53-.175-.932-.48-1.208-.916C9.14 9.229 9 8.623 9 7.859V3H6zM5 21v1h14v-1H5z"/></svg>