<svg xmlns="http://www.w3.org/2000/svg" xmlns:xlink="http://www.w3.org/1999/xlink" viewBox="0 0 16 16"><defs><linearGradient id="a"><stop style="stop-color:#151515;stop-opacity:1" offset="0"/><stop style="stop-color:#4d4d4d;stop-opacity:1" offset="1"/></linearGradient><linearGradient xlink:href="#a" id="b" x1="8" y1="1" x2="8" y2="15" gradientUnits="userSpaceOnUse"/></defs><path style="opacity:1;fill:#000;stroke:#fff;stroke-width:2;stroke-linejoin:round;stroke-miterlimit:4;stroke-dasharray:none" d="M3 1v3.963c0 .908.198 1.625.596 2.148.397.524.94.891 1.629 1.104.697.204 1.51.274 2.437.209.936-.066 2.27-.23 3.338-.492V13h2V1h-2v5.424c-.874.196-1.977.321-2.648.379-.663.049-1.22.013-1.67-.11-.442-.13-1.109-.36-1.338-.687C5.114 5.67 5 5.217 5 4.645V1zM2 14v1h12v-1z"/><path d="M3 1v3.963c0 .908.198 1.625.596 2.148.397.524.94.891 1.629 1.104.697.204 1.51.274 2.437.209.936-.066 2.27-.23 3.338-.492V13h2V1h-2v5.424c-.874.196-1.977.321-2.648.379-.663.049-1.22.013-1.67-.11-.442-.13-1.109-.36-1.338-.687C5.114 5.67 5 5.217 5 4.645V1zM2 14v1h12v-1z" style="fill:url(#b);fill-opacity:1"/></svg>