<svg xmlns="http://www.w3.org/2000/svg" viewBox="0 0 32 32"><path d="M25.5 4a2.5 2.5 0 100 5 2.5 2.5 0 001.5-.504V9h1V4h-1v.502A2.5 2.5 0 0025.5 4zm0 1a1.5 1.5 0 110 3 1.5 1.5 0 010-3zM23 13v7h1v-.502A2.5 2.5 0 1025.5 15a2.5 2.5 0 00-1.5.504V13zm2.5 3a1.5 1.5 0 110 3 1.5 1.5 0 010-3z" opacity=".7" stroke="#000" stroke-width="2" stroke-linejoin="round"/><path d="M25.5 4a2.5 2.5 0 100 5 2.5 2.5 0 001.5-.504V9h1V4h-1v.502A2.5 2.5 0 0025.5 4zm0 1a1.5 1.5 0 110 3 1.5 1.5 0 010-3zM23 13v7h1v-.502A2.5 2.5 0 1025.5 15a2.5 2.5 0 00-1.5.504V13zm2.5 3a1.5 1.5 0 110 3 1.5 1.5 0 010-3z" fill="#fff"/><path fill="#924d8b" d="M19 7H3v2h16zM19 4H3v2h16zM19 17H3v2h16zM19 14H3v2h16zM19 27H3v2h16zM19 24H3v2h16z"/><circle cx="25.5" cy="6.5" r=".5" opacity=".7"/><circle cx="25.5" cy="17.5" r=".5" opacity=".7"/></svg>