<svg xmlns="http://www.w3.org/2000/svg" viewBox="0 0 32 32"><path d="M24 4v6h3c1.108 0 2-.892 2-2 0-.81-.497-1.498-1.188-1.813.106-.205.188-.439.188-.687 0-.831-.669-1.5-1.5-1.5H25zm1 1h1.5a.499.499 0 110 1H25zm0 2h2c.554 0 1 .446 1 1s-.446 1-1 1h-2zM27 14a3 3 0 00-3 3c0 1.657 1.35 2.853 3 3h1v-1h-1a2 2 0 01-2-2c0-1.105.9-2.098 2-2h1v-1z" opacity=".7" stroke="#000" stroke-width="2" stroke-linejoin="round"/><path d="M24 4v6h3c1.108 0 2-.892 2-2 0-.81-.497-1.498-1.188-1.813.106-.205.188-.439.188-.687 0-.831-.669-1.5-1.5-1.5H25zm1 1h1.5a.499.499 0 110 1H25zm0 2h2c.554 0 1 .446 1 1s-.446 1-1 1h-2zM27 14a3 3 0 00-3 3c0 1.657 1.35 2.853 3 3h1v-1h-1a2 2 0 01-2-2c0-1.105.9-2.098 2-2h1v-1z" fill="#fff"/><path fill="#924d8b" d="M19 7H3v2h16zM19 4H3v2h16zM19 17H3v2h16zM19 14H3v2h16zM19 27H3v2h16zM19 24H3v2h16z"/></svg>