<svg xmlns="http://www.w3.org/2000/svg" viewBox="0 0 32 32"><rect y="4" x="-25" height="5" width="3" ry="1" transform="scale(-1 1)" opacity=".7"/><path fill="#fff" d="M24 5h-1v3h1z"/><rect width="5" height="5" x="-27" y="13" ry="1" transform="scale(-1 1)" opacity=".7"/><path fill="#fff" d="M24 14h-1v3h1z"/><rect y="22" x="-29" height="5" width="7" ry="1" transform="scale(-1 1)" opacity=".7"/><path fill="#fff" d="M24 23h-1v3h1zM26 14h-1v3h1zM26 23h-1v3h1zM28 23h-1v3h1z"/><path fill="#924d8b" d="M3 16h16v2H3zM3 13h16v2H3zM3 7h16v2H3zM3 4h16v2H3zM3 25h16v2H3zM3 22h16v2H3z"/><circle cx="-9" cy="23" r="2" transform="scale(-1 1)" fill="#fff" fill-rule="evenodd"/><path d="M10 14.5c.554 0 1 .446 1 1v1.887a5.966 5.966 0 01.557.228l1.332-1.332a.998.998 0 011.414 0l1.414 1.414a.998.998 0 010 1.414l-1.334 1.334a5.966 5.966 0 01.23.555H16.5c.554 0 1 .446 1 1v2c0 .554-.446 1-1 1h-1.887a5.966 5.966 0 01-.228.557l1.332 1.332a.998.998 0 010 1.414l-1.414 1.414a.998.998 0 01-1.414 0l-1.334-1.334a5.966 5.966 0 01-.555.23V30.5c0 .554-.446 1-1 1H8c-.554 0-1-.446-1-1v-1.887a5.966 5.966 0 01-.557-.228l-1.332 1.332a.998.998 0 01-1.414 0l-1.414-1.414a.998.998 0 010-1.414l1.334-1.334a5.966 5.966 0 01-.23-.555H1.5c-.554 0-1-.446-1-1v-2c0-.554.446-1 1-1h1.887a5.966 5.966 0 01.228-.557l-1.332-1.332a.998.998 0 010-1.414l1.414-1.414a.998.998 0 011.414 0l1.334 1.334a5.966 5.966 0 01.555-.23V15.5c0-.554.446-1 1-1zm-1 6.504A1.995 1.995 0 007.004 23 1.995 1.995 0 009 24.996 1.995 1.995 0 0010.996 23 1.995 1.995 0 009 21.004z" fill="#b3b3b3" stroke="#6d6d6d" stroke-linecap="square" stroke-linejoin="round"/></svg>