<svg xmlns="http://www.w3.org/2000/svg" viewBox="0 0 32 32"><path d="M24.99 2.973c1.257.014 2.178-.03 2.93.385.377.207.674.559.839.998.164.438.224.96.224 1.617v19c0 .658-.06 1.179-.224 1.618a1.875 1.875 0 01-.838.996c-.753.415-1.674.371-2.932.386H6.977c-1.258-.014-2.178.031-2.931-.384a1.88 1.88 0 01-.838-.998c-.165-.44-.225-.96-.225-1.618v-19c0-.658.06-1.179.225-1.617.165-.439.461-.789.838-.996.753-.416 1.673-.372 2.932-.387H24.985z" style="line-height:125%;-inkscape-font-specification:Ubuntu;text-align:center" font-weight="400" font-size="15" font-family="Ubuntu" letter-spacing="0" word-spacing="0" text-anchor="middle" opacity=".7"/><path d="M20 4c1.557.01 5.11-.012 6.66.039.461.042 1.016.206 1.155.71.22.635.109 1.334.146 1.982.008 2.297.023 16.596-.021 18.885-.04.462-.203 1.013-.7 1.164-.632.225-1.283.123-1.935.154-1.424.007-12.85.011-14.277.012-1.704 0-3.408-.005-5.107-.019-.512-.012-1.183.02-1.585-.405-.42-.54-.287-1.268-.322-1.904-.012-2.444-.028-16.91.022-19.357.049-.402.17-.863.575-1.044.668-.294 1.426-.168 2.126-.206C8.49 4 18.246 4 20 4z" fill="#fff"/><path d="M17 6.973v1H5.99v-1zM17 9v1H5.99V9zM17 21v1H5.99v-1zM17 12.973v1H5.99v-1zM17 15v1H5.99v-1zM17 18.973v1H5.99v-1z" fill="#232629"/><path d="M22 7v1h-1v2h1v1h-3v-1h1V8h-1V7h2zm2 6v1h-1v2h1v1h-5v-1h1v-2h-1v-1h2zm-2 1h-1v2h1zm4 5v1h-1v2h1v1h-7v-1h1v-2h-1v-1h6zm-2 1h-1v2h1zm-2 0h-1v2h1z" fill="#762572"/><circle cx="-9" cy="23" r="2" transform="scale(-1 1)" fill="#fff"/><path d="M10 14.5c.554 0 1 .446 1 1v1.887a5.966 5.966 0 01.557.228l1.332-1.332a.998.998 0 011.414 0l1.414 1.414a.998.998 0 010 1.414l-1.334 1.334a5.966 5.966 0 01.23.555H16.5c.554 0 1 .446 1 1v2c0 .554-.446 1-1 1h-1.887a5.966 5.966 0 01-.228.557l1.332 1.332a.998.998 0 010 1.414l-1.414 1.414a.998.998 0 01-1.414 0l-1.334-1.334a5.966 5.966 0 01-.555.23V30.5c0 .554-.446 1-1 1H8c-.554 0-1-.446-1-1v-1.887a5.966 5.966 0 01-.557-.228l-1.332 1.332a.998.998 0 01-1.414 0l-1.414-1.414a.998.998 0 010-1.414l1.334-1.334a5.966 5.966 0 01-.23-.555H1.5c-.554 0-1-.446-1-1v-2c0-.554.446-1 1-1h1.887a5.966 5.966 0 01.228-.557l-1.332-1.332a.998.998 0 010-1.414l1.414-1.414a.998.998 0 011.414 0l1.334 1.334a5.966 5.966 0 01.555-.23V15.5c0-.554.446-1 1-1zm-1 6.504A1.995 1.995 0 007.004 23 1.995 1.995 0 009 24.996 1.995 1.995 0 0010.996 23 1.995 1.995 0 009 21.004z" fill="#b3b3b3" stroke="#6d6d6d" stroke-linecap="square" stroke-linejoin="round"/></svg>