<svg xmlns="http://www.w3.org/2000/svg" viewBox="0 0 32 32"><rect y="4" x="-29" height="5" width="5" ry="1" transform="scale(-1 1)" opacity=".6"/><path fill="#fff" d="M28 5h-3v3h3z"/><rect width="5" height="5" x="-29" y="13" ry="1" transform="scale(-1 1)" opacity=".6"/><path fill="#fff" d="M28 14h-3v3h3z"/><rect y="22" x="-29" height="5" width="5" ry="1" transform="scale(-1 1)" opacity=".6"/><path fill="#fff" d="M28 23h-3v3h3z"/><path fill="#6d6d6d" d="M3 16h18v2H3zM3 13h18v2H3zM3 7h18v2H3zM3 4h18v2H3zM3 25h18v2H3zM3 22h18v2H3z"/><circle cy="26.5" cx="-4.5" r="3.5" transform="scale(-1 1)" fill="#c7162b"/><path overflow="visible" font-weight="400" style="line-height:normal;text-indent:0;text-align:start;text-decoration-line:none;text-decoration-style:solid;text-decoration-color:#000;text-transform:none;white-space:normal;isolation:auto;mix-blend-mode:normal;marker:none" d="M3.086 24.379L4.5 25.793l1.414-1.414.707.707L5.207 26.5l1.414 1.414-.707.707L4.5 27.207l-1.414 1.414-.707-.707L3.793 26.5l-1.414-1.414z" color="#000" font-family="sans-serif" fill="#fff"/></svg>