<svg xmlns="http://www.w3.org/2000/svg" viewBox="0 0 32 32"><rect y="3" x="-26" height="7" width="5" ry="1" transform="scale(-1 1)" opacity=".7"/><path fill="#fff" d="M24 5h-1v3h1z"/><rect width="7" height="7" x="-28" y="12" ry="1" transform="scale(-1 1)" opacity=".7"/><path d="M27 13v1h-1v3h1v1h-5v-1h1v-3h-1v-1zm-2 1h-1v3h1z" fill="#fff"/><rect y="21" x="-30" height="7" width="9" ry="1" transform="scale(-1 1)" opacity=".7"/><path d="M29 22v1h-1v3h1v1h-7v-1h1v-3h-1v-1zm-2 1h-1v3h1zm-2 0h-1v3h1z" fill="#fff"/><path fill="#924d8b" d="M3 16h16v2H3zM3 13h16v2H3zM3 7h16v2H3zM3 4h16v2H3zM3 25h16v2H3zM3 22h16v2H3z"/><rect width="3" height="1" x="-25" y="4" ry="0" transform="scale(-1 1)" fill="#fff"/><path fill="#fff" d="M25 8h-3v1h3z"/></svg>