<svg xmlns="http://www.w3.org/2000/svg" viewBox="0 0 32 32"><rect y="4" x="-25" height="5" width="3" ry="1" transform="scale(-1 1)" opacity=".6"/><path fill="#fff" d="M24 5h-1v3h1z"/><rect width="5" height="5" x="-27" y="13" ry="1" transform="scale(-1 1)" opacity=".6"/><path fill="#fff" d="M24 14h-1v3h1z"/><rect y="22" x="-29" height="5" width="7" ry="1" transform="scale(-1 1)" opacity=".6"/><path fill="#fff" d="M24 23h-1v3h1zM26 14h-1v3h1zM26 23h-1v3h1zM28 23h-1v3h1z"/><path fill="#924d8b" d="M3 16h16v2H3zM3 13h16v2H3zM3 7h16v2H3zM3 4h16v2H3zM3 25h16v2H3zM3 22h16v2H3z"/></svg>