<svg height="128" width="128" xmlns:xlink="http://www.w3.org/1999/xlink" xmlns="http://www.w3.org/2000/svg"><defs><linearGradient id="a"><stop offset="0" style="stop-color:#d98027;stop-opacity:1"/><stop offset="1" style="stop-color:#be5e0f;stop-opacity:1"/></linearGradient><linearGradient id="g" x1="0" y1="0" x2="1" y2="0" gradientUnits="userSpaceOnUse" gradientTransform="rotate(-90 358.723 -175.575) scale(64.473)"><stop offset="0" style="stop-color:#f0bc6f;stop-opacity:1"/><stop offset="1" style="stop-color:#f9eab5;stop-opacity:1"/></linearGradient><linearGradient id="h" x1="0" y1="0" x2="1" y2="0" gradientUnits="userSpaceOnUse" gradientTransform="rotate(90 221.736 362.24) scale(82.553)"><stop offset="0" style="stop-color:#c99c00;stop-opacity:1"/><stop offset="1" style="stop-color:#876900;stop-opacity:1"/></linearGradient><linearGradient id="i" x1="0" y1="0" x2="1" y2="0" gradientUnits="userSpaceOnUse" gradientTransform="rotate(-90 387.22 -166.714) scale(63.914)"><stop offset="0" style="stop-color:#f5ce53;stop-opacity:1"/><stop offset="1" style="stop-color:#fde9a9;stop-opacity:1"/></linearGradient><linearGradient gradientTransform="matrix(.5 0 0 .5 -12 -14.5)" xlink:href="#a" id="f" x1="201.078" y1="270" x2="102.922" y2="46" gradientUnits="userSpaceOnUse"/><linearGradient gradientUnits="userSpaceOnUse" y2="169.669" x2="4.414" y1="386.308" x1="494.345" id="e" xlink:href="#b" gradientTransform="matrix(0 -.22656 -.22656 0 126.98 119.5)"/><linearGradient id="b"><stop style="stop-color:#f2f2f2;stop-opacity:1" offset="0"/><stop style="stop-color:#fff;stop-opacity:1" offset="1"/></linearGradient><filter style="color-interpolation-filters:sRGB" id="d" x="-.014" width="1.027" y="-.011" height="1.022"><feGaussianBlur stdDeviation="1"/></filter><filter style="color-interpolation-filters:sRGB" id="c" x="-.055" width="1.109" y="-.043" height="1.086"><feGaussianBlur stdDeviation="4"/></filter></defs><path d="M58.852-36.695c-35.297 0-38.922 3.626-38.922 38.994v144.012c0 15.474.694 24.872 4.43 30.549.534.81 1.13 1.545 1.795 2.21 5.318 5.328 15.049 6.235 32.697 6.235h98.156c2.055 0 3.988-.015 5.834-.045.66-.01 1.262-.035 1.895-.05 1.15-.029 2.292-.06 3.36-.106 1.27-.055 2.509-.12 3.667-.205.474-.035.935-.075 1.39-.115.222-.02.45-.038.667-.059.728-.07 1.436-.147 2.117-.234.668-.086 1.31-.182 1.936-.286.222-.036.431-.08.648-.119.397-.071.791-.143 1.17-.222.249-.052.487-.109.729-.164a29.755 29.755 0 0 0 2.54-.7 22.103 22.103 0 0 0 1.506-.547c.195-.079.393-.158.582-.242.275-.12.538-.25.8-.38.174-.088.354-.171.523-.262.41-.222.805-.454 1.181-.701.407-.268.795-.549 1.164-.848.34-.275.66-.57.97-.873.074-.073.145-.15.218-.225.23-.236.45-.48.664-.734.077-.092.156-.182.23-.275a15.125 15.125 0 0 0 1.465-2.221c.056-.102.109-.207.162-.31.159-.307.31-.623.456-.948.06-.137.124-.273.183-.414.182-.434.357-.879.518-1.346a26.525 26.525 0 0 0 .566-1.896c.065-.244.123-.5.184-.752.144-.602.275-1.228.396-1.877.032-.172.068-.339.098-.514.14-.81.267-1.655.377-2.54.022-.179.04-.37.06-.552a74.704 74.704 0 0 0 .293-3.146c.057-.769.106-1.563.149-2.381.013-.254.03-.499.043-.758.007-.147.009-.312.015-.46.062-1.464.103-3.02.13-4.641l.017-1.276c.02-1.773.029-3.605.02-5.57V45.545c-.045-9.733-8.18-17.955-14.762-24.162l-.05-.05-40.523-42.409c-10.677-10.56-18.057-15.619-32.666-15.619zm96.983.09c-2.17 2.776-2.386 7.403.209 9.912L184.54 3.694c3.723 3.696 11.118.568 11.38-4.78-.001-.42.002-.86-.001-1.271-.001-.491-.01-.953-.012-1.432-.362-27.254-4.96-32.19-31.346-32.816z" style="color:#000;display:inline;overflow:visible;visibility:visible;opacity:.3;fill:#000;fill-opacity:1;fill-rule:nonzero;stroke:none;stroke-width:1;marker:none;filter:url(#c);enable-background:accumulate" transform="matrix(.5 0 0 .5 10.034 26.847)"/><path d="M58.852-37.695c-35.297 0-38.922 3.626-38.922 38.994v145.012c0 15.474.694 24.872 4.43 30.549.534.81 1.13 1.545 1.795 2.21 5.318 5.328 15.049 6.235 32.697 6.235h98.156c2.055 0 3.988-.015 5.834-.045.66-.01 1.262-.035 1.895-.05 1.15-.029 2.292-.06 3.36-.106 1.27-.055 2.509-.12 3.667-.205.474-.035.935-.075 1.39-.115.222-.02.45-.038.667-.059.728-.07 1.436-.147 2.117-.234.668-.086 1.31-.182 1.936-.286.222-.036.431-.08.648-.119.397-.071.791-.143 1.17-.222.249-.052.487-.109.729-.164a29.755 29.755 0 0 0 2.54-.7 22.103 22.103 0 0 0 1.506-.547c.195-.079.393-.158.582-.242.275-.12.538-.25.8-.38.174-.088.354-.171.523-.262.41-.222.805-.454 1.181-.701.407-.268.795-.549 1.164-.848.34-.275.66-.57.97-.873.074-.073.145-.15.218-.225.23-.236.45-.48.664-.734.077-.092.156-.182.23-.275a15.125 15.125 0 0 0 1.465-2.221c.056-.102.109-.207.162-.31.159-.307.31-.623.456-.948.06-.137.124-.273.183-.414.182-.434.357-.879.518-1.346a26.525 26.525 0 0 0 .566-1.896c.065-.244.123-.5.184-.752.144-.602.275-1.228.396-1.877.032-.172.068-.339.098-.514.14-.81.267-1.655.377-2.54.022-.179.04-.37.06-.552a74.704 74.704 0 0 0 .293-3.146c.057-.769.106-1.563.149-2.381.013-.254.03-.499.043-.758.007-.147.009-.312.015-.46.062-1.464.103-3.02.13-4.641l.017-1.276c.02-1.773.029-3.605.02-5.57V44.545c-.045-9.733-8.18-17.955-14.762-24.162l-.05-.05-40.523-42.409c-10.677-10.56-18.057-15.619-32.666-15.619zm97.969.09c-3.04 2.502-3.72 8.066-.777 10.912L184.54 3.694c3.729 3.7 11.141.56 11.384-4.801 0-.21 0-.419-.002-.627 0-1.198-.012-2.329-.025-3.451-.403-26.89-5.085-31.797-31.336-32.42z" style="color:#000;display:inline;overflow:visible;visibility:visible;opacity:.1;fill:#000;fill-opacity:1;fill-rule:nonzero;stroke:none;stroke-width:1;marker:none;filter:url(#d);enable-background:accumulate" transform="matrix(.5 0 0 .5 10.034 26.847)"/><path d="M39.46 7.5c-1.088 0-2.113.007-3.084.024-14.74.264-16.334 2.894-16.334 19.473v73.006c0 16.579 1.593 19.209 16.334 19.473.97.017 1.996.024 3.084.024H88.538c1.027 0 1.994-.007 2.917-.022.33-.005.63-.018.947-.026.575-.014 1.146-.03 1.68-.053a45.896 45.896 0 0 0 2.53-.16c.11-.01.224-.018.332-.029a27.246 27.246 0 0 0 2.026-.26c.112-.018.217-.04.325-.06.198-.035.395-.07.585-.11.124-.027.244-.055.364-.083a16.92 16.92 0 0 0 .853-.22 13.72 13.72 0 0 0 .753-.243c.142-.052.28-.105.417-.16.098-.04.197-.079.292-.12.137-.061.268-.126.399-.191.087-.044.177-.085.262-.131a7.25 7.25 0 0 0 1.173-.774c.17-.138.33-.285.484-.437l.11-.112c.114-.118.225-.24.331-.367.039-.046.078-.091.116-.138.27-.339.513-.709.732-1.11.028-.051.054-.104.081-.156.08-.153.155-.31.228-.473.03-.07.062-.137.091-.207a10.923 10.923 0 0 0 .542-1.622c.033-.121.062-.25.092-.376.072-.3.138-.613.199-.938.016-.086.033-.17.048-.257.07-.405.134-.827.189-1.27l.03-.276a37.105 37.105 0 0 0 .147-1.573c.028-.384.053-.781.074-1.19.007-.128.015-.25.021-.38.004-.073.004-.155.008-.23.031-.731.051-1.51.065-2.32.004-.21.006-.423.009-.638.01-.887.014-1.803.01-2.785V48.62c-.022-4.866-4.09-8.978-7.381-12.08l-.024-.026L80.333 15.31C74.994 10.03 71.303 7.5 64 7.5zm49.866.045c-2.237.746-2.995 4.288-1.27 5.956l14.248 15.193c1.867 1.853 5.58.277 5.693-2.41.024-15.664-1.777-18.41-15.683-18.74z" style="color:#000;display:inline;overflow:visible;visibility:visible;opacity:.1;fill:none;fill-opacity:1;fill-rule:nonzero;stroke:#000;stroke-width:2;stroke-miterlimit:4;stroke-dasharray:none;marker:none;enable-background:accumulate"/><path d="M39.46 7.5C21.812 7.5 20 9.313 20 26.997v73.006c0 17.684 1.812 19.497 19.46 19.497h49.078c17.648 0 19.548-1.813 19.461-19.497V48.62c-.022-4.866-4.09-8.978-7.38-12.08l-.025-.026L80.332 15.31C74.994 10.029 71.303 7.5 64 7.5z" style="color:#000;display:inline;overflow:visible;visibility:visible;fill:url(#e);fill-opacity:1;fill-rule:nonzero;stroke:none;stroke-width:.5;marker:none;enable-background:accumulate"/><path d="M39.46 7.5c-6.067 0-10.262.214-13.156 1.214-1.052.363-1.932.83-2.667 1.429h-.001a6.922 6.922 0 0 0-1.422 1.58 8 8 0 0 0-.36.61c-.03.053-.056.11-.083.165a9.22 9.22 0 0 0-.232.484c-.036.084-.07.17-.105.256a10.976 10.976 0 0 0-.422 1.225 14.778 14.778 0 0 0-.221.861c-.024.105-.048.207-.07.315-.04.193-.078.395-.115.598-.019.106-.04.208-.058.317-.052.312-.099.634-.142.968v.001c-.042.329-.08.67-.114 1.02-.014.142-.025.291-.038.437-.02.217-.037.436-.054.662-.04.558-.072 1.151-.098 1.761a90.788 90.788 0 0 0-.058 1.805c-.007.29-.018.562-.022.863-.016.927-.023 1.894-.023 2.926v73.006c0 1.032.007 1.999.023 2.926.004.3.015.573.022.863.015.62.032 1.231.058 1.805a45.885 45.885 0 0 0 .152 2.424c.013.145.024.294.038.436.034.35.072.691.114 1.02.043.335.09.657.142.97.018.108.04.21.058.316.037.203.074.405.115.598.022.108.046.21.07.315a16.672 16.672 0 0 0 .22.861 13.41 13.41 0 0 0 .247.77c.056.156.115.306.176.455.035.085.069.172.105.256.074.167.151.327.232.484.027.054.054.112.083.165a7.016 7.016 0 0 0 1.783 2.19c.735.599 1.615 1.066 2.667 1.43 2.894.999 7.09 1.213 13.156 1.213h49.078c1.029 0 1.993-.007 2.917-.023h.017c.322-.006.62-.017.93-.025l.668-.02c.337-.011.69-.019 1.012-.033h.01a61.584 61.584 0 0 0 1.81-.101l.014-.001c.237-.018.467-.037.695-.058h.017l.316-.03a26.987 26.987 0 0 0 2.026-.26h.004c.11-.018.214-.04.321-.058.198-.036.396-.072.585-.112.12-.025.234-.052.35-.079.005 0 .01-.002.014-.003a16.884 16.884 0 0 0 .843-.218c.004 0 .006-.002.01-.003a13.47 13.47 0 0 0 .753-.243c.075-.027.146-.056.219-.084.066-.025.133-.049.198-.075a.1.1 0 0 0 .017-.007c.092-.037.185-.075.275-.114.084-.037.163-.077.243-.117.052-.024.105-.048.156-.074l.011-.006c.084-.041.17-.081.25-.125h.001a7.04 7.04 0 0 0 1.657-1.21l.002-.003c.036-.035.07-.071.105-.107l.003-.003c.115-.118.225-.24.332-.367.038-.046.078-.091.115-.138.27-.339.514-.708.733-1.11l.08-.156c.08-.153.156-.31.228-.473.03-.068.062-.136.091-.205l.001-.002a10.987 10.987 0 0 0 .482-1.4l.001-.004.059-.217c.018-.068.034-.14.05-.21.015-.055.029-.11.042-.166v-.004c.072-.3.138-.612.198-.935l.04-.208c.002-.017.006-.032.01-.049.07-.406.133-.828.188-1.27l.008-.075.022-.2.003-.032c.04-.346.075-.703.107-1.073v-.01a46.965 46.965 0 0 0 .11-1.65l.015-.232.008-.146v-.014l.007-.198v-.019c.032-.731.052-1.51.065-2.32v-.017c.004-.204.006-.412.009-.62.01-.888.015-1.804.01-2.786V48.62a9.372 9.372 0 0 0-.407-2.657 11.742 11.742 0 0 0-.652-1.676c-1.43-3.005-4.06-5.615-6.322-7.748l-.024-.026L80.334 15.31c-5.339-5.28-9.03-7.81-16.333-7.81zm49.866.045c-2.237.746-2.995 4.288-1.27 5.956l14.248 15.193c1.867 1.853 5.58.277 5.693-2.41.001-.957-.005-1.863-.02-2.726 0-.084-.003-.16-.005-.243a84.231 84.231 0 0 0-.069-2.228 56.697 56.697 0 0 0-.087-1.49c-.576-7.973-2.774-10.769-9.83-11.681a38.604 38.604 0 0 0-2.071-.206c-.355-.027-.721-.05-1.097-.07l-.013-.001a82.098 82.098 0 0 0-2.49-.094zm-41.544 5.928c5.687.002 11.316.02 16.95.123 3.618-.193 6.933 1.727 9.427 4.204 8.053 7.981 15.704 16.357 23.639 24.455 1.708 1.938 4.131 3.881 4.087 6.7.18 14.929.077 29.86.053 44.79-.133 5.124.197 10.347-.455 15.482-.273 1.178-.266 3.017-1.78 3.325-3.795.925-7.756.735-11.635.848-17.773.09-35.714.15-53.488-.068-2.352-.207-4.94.003-7.06-1.192-1.413-1.91-1.054-4.502-1.222-6.743-.291-24.322-.351-48.653-.292-72.986.141-5.358-.247-10.884.784-16.219.154-1.636 1.928-2.004 3.248-2.205 5.894-.564 11.89-.434 17.744-.514z" style="color:#000;display:inline;overflow:visible;visibility:visible;fill:url(#f);fill-opacity:1;fill-rule:nonzero;stroke:none;stroke-width:.5;marker:none;enable-background:accumulate"/><path d="M20 63.5v36.503c-.087 17.684 1.812 19.497 19.46 19.497h49.078c17.649 0 19.002-1.818 19.461-19.497V63.5z" style="color:#000;display:inline;overflow:visible;visibility:visible;opacity:.1;fill:#fff;fill-opacity:1;fill-rule:nonzero;stroke:none;stroke-width:.5;marker:none;enable-background:accumulate"/><path d="M20 99.003v1c-.087 17.684 1.812 19.497 19.46 19.497h49.078c17.649 0 19.002-1.819 19.461-19.497v-1c-.459 17.678-1.812 19.497-19.46 19.497H39.46c-17.648 0-19.547-1.813-19.46-19.497z" style="color:#000;display:inline;overflow:visible;visibility:visible;opacity:.2;fill:#000;fill-opacity:1;fill-rule:nonzero;stroke:none;stroke-width:.5;marker:none;enable-background:accumulate"/><path d="m78 119.5 30-30v11.242c-.027 16.998-1.902 18.758-19.088 18.758z" style="color:#000;display:inline;overflow:visible;visibility:visible;opacity:.08;fill:#fff;fill-opacity:1;fill-rule:nonzero;stroke:none;stroke-width:4;stroke-linecap:butt;stroke-linejoin:miter;stroke-miterlimit:4;stroke-dasharray:none;stroke-dashoffset:0;stroke-opacity:1;marker:none;enable-background:accumulate"/><path d="M39.46 7.5c-1.254 0-2.406.013-3.506.036-.784.017-1.543.038-2.253.071-.446.021-.88.044-1.299.073l-.114.006-.057.005c-.558.04-1.084.09-1.593.146-.141.015-.283.03-.42.047a30.277 30.277 0 0 0-.976.135c-.122.02-.247.038-.366.06-.193.032-.378.07-.563.107-.254.052-.5.106-.74.165-.095.023-.193.045-.286.07a14.345 14.345 0 0 0-1.213.382l-.144.055a8.56 8.56 0 0 0-2.023 1.087l-.022.016c-2.421 1.807-3.37 4.898-3.71 10.119-.009.132-.015.272-.023.407-.033.57-.063 1.153-.084 1.774v.046c-.024.72-.04 1.472-.05 2.262C20.254 10.088 23.032 8.5 39.46 8.5h31.265c-.43-.147-.873-.276-1.327-.39-.079-.02-.157-.041-.236-.06a17.84 17.84 0 0 0-1.02-.21c-.166-.029-.331-.06-.501-.086a20.914 20.914 0 0 0-.944-.12c-.127-.013-.26-.022-.39-.033-.246-.022-.497-.04-.752-.054-.13-.007-.26-.015-.394-.02A28.85 28.85 0 0 0 64 7.5z" style="color:#000;display:inline;overflow:visible;visibility:visible;opacity:.3;fill:#fff;fill-opacity:1;fill-rule:nonzero;stroke:none;stroke-width:.5;marker:none;enable-background:accumulate"/><path d="M89.326 7.545c-.535.179-.983.52-1.336.955h.548c17.076 0 19.32 1.742 19.448 17.87.002-.018.006-.036.007-.055-.026-8.835-.579-13.589-3.54-16.088a7.157 7.157 0 0 0-.495-.38c-.671-.47-1.456-.845-2.36-1.149-.07-.024-.137-.05-.21-.072-.16-.05-.328-.096-.495-.143-.13-.035-.257-.072-.39-.105a17.568 17.568 0 0 0-.992-.216c-.16-.03-.32-.062-.486-.09a26.288 26.288 0 0 0-.714-.108c-.108-.015-.211-.033-.322-.047l-.004-.001a35.073 35.073 0 0 0-1.1-.122c-.154-.015-.315-.028-.473-.041-.26-.022-.524-.044-.796-.063l-.52-.032-.563-.03a82.538 82.538 0 0 0-2.21-.083h-.01z" style="color:#000;display:inline;overflow:visible;visibility:visible;opacity:.4;fill:#fff;fill-opacity:1;fill-rule:nonzero;stroke:none;stroke-width:.5;marker:none;enable-background:accumulate"/><path d="M20.002 99.003v1c-.001.221.002.41.002.627 0 .23.003.442.005.666-.006-.744-.01-1.484-.007-2.293zm87.997.376c-.028 17.316-1.942 19.121-19.458 19.121H39.463c-16.467 0-19.22-1.59-19.445-16.167.152 12.437 1.744 15.983 11.088 16.883h.004c.381.036.775.07 1.181.098h.003c.407.028.828.053 1.262.074.29.014.624.018.926.029.605.022 1.196.047 1.851.059h.002c.982.017 2.023.024 3.125.024h49.078c1.839 0 3.469-.028 4.98-.083a58.395 58.395 0 0 0 3.377-.201c9.748-.939 11.061-4.75 11.102-18.542 0-.231.003-.434.002-.671z" style="color:#000;display:inline;overflow:visible;visibility:visible;opacity:.2;fill:#000;fill-opacity:1;fill-rule:nonzero;stroke:none;stroke-width:.5;marker:none;enable-background:accumulate"/><path d="M20.005 26.21c-.001.27-.006.51-.006.787v1c-.003-.63.003-1.196.006-1.786z" style="color:#000;display:inline;overflow:visible;visibility:visible;opacity:.3;fill:#fff;fill-opacity:1;fill-rule:nonzero;stroke:none;stroke-width:.5;marker:none;enable-background:accumulate" transform="translate(29.616 29.937)"/><g style="clip-rule:evenodd;display:inline;fill-rule:evenodd;stroke-width:2.0981;enable-background:new"><path d="M543.507 190.517c19.33 0 35-15.67 35-35s-15.67-35-35-35-35 15.67-35 35 15.67 35 35 35z" style="fill:url(#g);fill-rule:nonzero;stroke:#cb851d;stroke-width:10.4905px" transform="matrix(.47826 0 0 .475 -206.696 -6.753)"/></g><g style="clip-rule:evenodd;display:inline;fill-rule:evenodd;stroke-width:2.0981;enable-background:new"><path d="M543.508 183.021c15.188 0 27.5-12.312 27.5-27.5 0-15.187-12.312-27.5-27.5-27.5-15.187 0-27.5 12.313-27.5 27.5 0 15.188 12.313 27.5 27.5 27.5z" style="fill:#f0c46f;fill-opacity:.6;fill-rule:nonzero;stroke-width:2.0981" transform="matrix(.47826 0 0 .475 -206.696 -6.753)"/></g><g style="clip-rule:evenodd;display:inline;fill-rule:evenodd;stroke-width:2.0981;enable-background:new"><path d="M614.508 195.5h-37a9 9 0 0 1-9-9v-37a9 9 0 0 1 9-9h37a9 9 0 0 1 9 9v37a9 9 0 0 1-9 9z" style="fill:url(#h);fill-rule:nonzero;stroke:#876900;stroke-width:10.4905px;stroke-linecap:round;stroke-linejoin:round" transform="matrix(.47826 0 0 .475 -206.696 -6.753)"/></g><g style="clip-rule:evenodd;display:inline;fill-rule:evenodd;stroke-width:2.0981;enable-background:new"><path d="M609.008 148h-26a7 7 0 0 0-7 7v26a7 7 0 0 0 7 7h26a7 7 0 0 0 7-7v-26a7 7 0 0 0-7-7z" style="fill:#c99c00;fill-opacity:.6;fill-rule:nonzero;stroke-width:2.0981" transform="matrix(.47826 0 0 .475 -206.696 -6.753)"/></g><g style="clip-rule:evenodd;display:inline;fill-rule:evenodd;stroke-width:2.0981;enable-background:new"><path d="M585.067 206.783c3.69 5.997-.624 13.717-7.665 13.717h-47.787c-7.041 0-11.356-7.72-7.665-13.717l23.894-38.828c3.514-5.71 11.815-5.71 15.329.001z" style="fill:url(#i);fill-rule:nonzero;stroke:#c99c00;stroke-width:10.4905px;stroke-linecap:round;stroke-linejoin:round" transform="matrix(.47826 0 0 .475 -206.696 -6.753)"/></g><g style="clip-rule:evenodd;display:inline;fill-rule:evenodd;stroke-width:2.0981;enable-background:new"><path d="M578.923 209.408c1.636 2.665-.281 6.092-3.409 6.092h-44.011c-3.128 0-5.045-3.427-3.409-6.092l22.005-35.854c1.562-2.543 5.257-2.543 6.819 0z" style="fill:#f5ce53;fill-opacity:.6;fill-rule:nonzero;stroke-width:2.0981" transform="matrix(.47826 0 0 .475 -206.696 -6.753)"/></g><g style="clip-rule:evenodd;display:inline;fill-rule:evenodd;stroke-width:2.0981;enable-background:new"><path d="M575.519 191.242a8.998 8.998 0 0 0 7.649 4.258h31.34a9 9 0 0 0 9-9v-37a9 9 0 0 0-9-9h-36.92a9 9 0 0 0-9 9.079l.248 28.4a9.007 9.007 0 0 0 1.351 4.664z" style="fill:none;fill-rule:nonzero;stroke:#876900;stroke-width:10.4905px;stroke-linecap:round;stroke-linejoin:round" transform="matrix(.47826 0 0 .475 -206.696 -6.753)"/></g><rect transform="matrix(0 -1 -1 0 0 0)" style="display:inline;opacity:.2;fill:#000;fill-opacity:1;stroke:none;stroke-width:1.03448;stroke-opacity:.25098;enable-background:new" width="30" height="30" x="-128" y="-120" rx="15" ry="15"/><rect ry="15" rx="15" y="-120" x="-127" height="30" width="30" style="display:inline;fill:#e95420;fill-opacity:1;stroke:none;stroke-width:1.03448;stroke-opacity:.25098;enable-background:new" transform="matrix(0 -1 -1 0 0 0)"/><g style="display:inline;enable-background:new" transform="translate(-231 -36)"><path style="opacity:1;fill:#fff;fill-opacity:1;stroke:none;stroke-width:1;stroke-linecap:butt;stroke-linejoin:round;stroke-miterlimit:4;stroke-dasharray:none;stroke-dashoffset:1;stroke-opacity:1" d="M329 146h14v10h-14z"/><rect ry="4.5" y="138.5" x="331.5" height="14" width="9" style="opacity:1;fill:none;fill-opacity:1;stroke:#fff;stroke-width:1;stroke-linecap:butt;stroke-linejoin:round;stroke-miterlimit:4;stroke-dasharray:none;stroke-dashoffset:1;stroke-opacity:1" rx="4.5"/><path style="color:#000;font-style:normal;font-variant:normal;font-weight:400;font-stretch:normal;font-size:medium;line-height:normal;font-family:sans-serif;font-variant-ligatures:none;font-variant-position:normal;font-variant-caps:normal;font-variant-numeric:normal;font-variant-alternates:normal;font-feature-settings:normal;text-indent:0;text-align:start;text-decoration:none;text-decoration-line:none;text-decoration-style:solid;text-decoration-color:#000;letter-spacing:normal;word-spacing:normal;text-transform:none;writing-mode:lr-tb;direction:ltr;baseline-shift:baseline;text-anchor:start;white-space:normal;shape-padding:0;clip-rule:nonzero;display:inline;overflow:visible;visibility:visible;opacity:1;isolation:auto;mix-blend-mode:normal;color-interpolation:sRGB;color-interpolation-filters:linearRGB;solid-color:#000;solid-opacity:1;fill:#e95420;fill-opacity:1;fill-rule:nonzero;stroke:none;stroke-width:4.89898;stroke-linecap:butt;stroke-linejoin:miter;stroke-miterlimit:4;stroke-dasharray:none;stroke-dashoffset:0;stroke-opacity:1;marker:none;color-rendering:auto;image-rendering:auto;shape-rendering:auto;text-rendering:auto;enable-background:accumulate" d="M337 149v4h-2v-4z"/></g></svg>