<svg xmlns="http://www.w3.org/2000/svg" xmlns:xlink="http://www.w3.org/1999/xlink" height="128" width="128"><defs><linearGradient gradientUnits="userSpaceOnUse" y2="169.669" x2="4.414" y1="386.308" x1="494.345" id="k" xlink:href="#a" gradientTransform="matrix(0 -.45313 -.45311 0 212.74 191.814)"/><linearGradient id="a"><stop offset="0" stop-color="#f2f2f2"/><stop offset="1" stop-color="#fff"/></linearGradient><linearGradient gradientTransform="translate(-65.222 -76.186)" xlink:href="#b" id="l" x1="201.078" y1="270" x2="102.922" y2="46" gradientUnits="userSpaceOnUse"/><linearGradient id="b"><stop offset="0" stop-color="#e76428"/><stop offset="1" stop-color="#9f3d06"/></linearGradient><linearGradient xlink:href="#c" id="m" gradientUnits="userSpaceOnUse" gradientTransform="translate(-.001)" x1="756" y1="-860.638" x2="756" y2="-876.638"/><linearGradient id="c"><stop offset="0" stop-color="#d36118"/><stop offset="1" stop-color="#f09e6f"/></linearGradient><linearGradient id="d"><stop offset="0" stop-opacity=".502"/><stop offset="1" stop-opacity="0"/></linearGradient><linearGradient xlink:href="#e" id="o" gradientUnits="userSpaceOnUse" gradientTransform="matrix(.36667 0 0 .4 460.065 -430.382)" x1="812" y1="-1075.638" x2="812" y2="-1115.638"/><linearGradient id="e"><stop offset="0" stop-color="#fff" stop-opacity=".588"/><stop offset="1" stop-color="#fff" stop-opacity=".863"/></linearGradient><linearGradient xlink:href="#f" id="p" gradientUnits="userSpaceOnUse" gradientTransform="matrix(.27778 0 0 .5 641.221 -377.819)" x1="370" y1="-1048.672" x2="370" y2="-918.602"/><linearGradient id="f"><stop offset="0" stop-color="#a33e03"/><stop offset="1" stop-color="#622502"/></linearGradient><linearGradient xlink:href="#f" id="q" gradientUnits="userSpaceOnUse" gradientTransform="matrix(.27778 0 0 .5 641.221 -374.819)" x1="370" y1="-1048.672" x2="370" y2="-918.602"/><linearGradient xlink:href="#f" id="r" gradientUnits="userSpaceOnUse" gradientTransform="matrix(.27778 0 0 .5 641.221 -371.819)" x1="370" y1="-1048.672" x2="370" y2="-918.602"/><linearGradient xlink:href="#g" id="s" gradientUnits="userSpaceOnUse" gradientTransform="matrix(.17143 0 0 .25 661.342 -597.477)" x1="523" y1="-1064.638" x2="523" y2="-1088.638"/><linearGradient id="g"><stop offset="0" stop-color="#b3b3b3"/><stop offset="1" stop-color="#e6e6e6"/></linearGradient><linearGradient xlink:href="#e" id="t" gradientUnits="userSpaceOnUse" gradientTransform="matrix(.15385 0 0 .3 641.153 -544.546)" x1="714" y1="-1063.638" x2="714" y2="-1083.638"/><linearGradient xlink:href="#h" id="u" gradientUnits="userSpaceOnUse" gradientTransform="matrix(.48178 0 0 .47907 326.177 -363.226)" x1="889" y1="-1054.638" x2="881.773" y2="-1044.551"/><linearGradient id="h"><stop offset="0" stop-color="#18a303"/><stop offset="1" stop-color="#106802"/></linearGradient><filter id="i" x="-.055" width="1.109" y="-.043" height="1.086" color-interpolation-filters="sRGB"><feGaussianBlur stdDeviation="4"/></filter><filter id="j" x="-.014" width="1.027" y="-.011" height="1.021" color-interpolation-filters="sRGB"><feGaussianBlur stdDeviation="1"/></filter><radialGradient xlink:href="#d" id="n" gradientUnits="userSpaceOnUse" gradientTransform="matrix(0 .06769 -.802 0 143.747 -866.963)" cx="152.333" cy="-754.638" fx="152.333" fy="-754.638" r="15"/></defs><path d="M37.7-30.186c-35.297 0-38.922 3.625-38.922 38.994v144.011c0 15.474.693 24.873 4.43 30.55.533.81 1.13 1.544 1.794 2.21 5.319 5.328 15.05 6.235 32.698 6.235h98.156c2.055 0 3.987-.015 5.834-.045.659-.011 1.261-.036 1.894-.051 1.15-.028 2.292-.06 3.36-.106 1.27-.055 2.51-.12 3.668-.205.474-.035.935-.074 1.39-.115.221-.02.45-.037.666-.059.728-.07 1.436-.146 2.118-.234.668-.086 1.31-.182 1.935-.285.222-.037.432-.08.649-.12.396-.07.79-.142 1.17-.222.248-.052.487-.108.728-.164a29.755 29.755 0 002.54-.7 22.103 22.103 0 001.506-.547c.195-.078.393-.158.583-.241.275-.121.537-.25.799-.381.174-.087.355-.17.523-.262.41-.221.805-.453 1.182-.7.406-.268.795-.55 1.164-.849.34-.275.66-.569.969-.873.074-.073.146-.15.218-.224.23-.236.451-.481.664-.735.077-.091.156-.181.23-.275a15.125 15.125 0 001.466-2.22c.055-.102.108-.208.162-.311.158-.307.31-.622.455-.948.061-.137.125-.273.184-.414.181-.433.356-.879.517-1.345a26.525 26.525 0 00.567-1.897c.064-.244.123-.5.183-.752.144-.601.276-1.228.397-1.877.032-.171.067-.338.097-.513.14-.811.268-1.655.377-2.541.022-.178.04-.37.06-.551a74.704 74.704 0 00.294-3.147c.057-.768.106-1.563.148-2.38.013-.255.031-.5.043-.758.007-.148.01-.312.016-.461.062-1.463.102-3.02.129-4.64a346.056 346.056 0 00.037-6.846V52.053c-.044-9.733-8.18-17.956-14.762-24.162l-.049-.051-40.523-42.408c-10.677-10.561-18.058-15.62-32.666-15.62zm96.982.09c-2.17 2.775-2.385 7.403.21 9.912l28.495 30.386c3.724 3.696 11.119.568 11.381-4.78-.002-.42.001-.86-.002-1.27 0-.492-.009-.954-.012-1.432-.361-27.254-4.96-32.19-31.345-32.817z" style="marker:none" color="#000" overflow="visible" opacity=".3" filter="url(#i)" enable-background="accumulate" transform="matrix(.5 0 0 .5 20.61 23.593)"/><path d="M37.7-31.186c-35.297 0-38.922 3.625-38.922 38.994v145.011c0 15.474.693 24.873 4.43 30.55.533.81 1.13 1.544 1.794 2.21 5.319 5.328 15.05 6.235 32.698 6.235h98.156c2.055 0 3.987-.015 5.834-.045.659-.011 1.261-.036 1.894-.051 1.15-.028 2.292-.06 3.36-.106 1.27-.055 2.51-.12 3.668-.205.474-.035.935-.074 1.39-.115.221-.02.45-.037.666-.059.728-.07 1.436-.146 2.118-.234.668-.086 1.31-.182 1.935-.285.222-.037.432-.08.649-.12.396-.07.79-.142 1.17-.222.248-.052.487-.108.728-.164a29.755 29.755 0 002.54-.7 22.103 22.103 0 001.506-.547c.195-.078.393-.158.583-.241.275-.121.537-.25.799-.381.174-.087.355-.17.523-.262.41-.221.805-.453 1.182-.7.406-.268.795-.55 1.164-.849.34-.275.66-.569.969-.873.074-.073.146-.15.218-.224.23-.236.451-.481.664-.735.077-.091.156-.181.23-.275a15.125 15.125 0 001.466-2.22c.055-.102.108-.208.162-.311.158-.307.31-.622.455-.948.061-.137.125-.273.184-.414.181-.433.356-.879.517-1.345a26.525 26.525 0 00.567-1.897c.064-.244.123-.5.183-.752.144-.601.276-1.228.397-1.877.032-.171.067-.338.097-.513.14-.811.268-1.655.377-2.541.022-.178.04-.37.06-.551a74.704 74.704 0 00.294-3.147c.057-.768.106-1.563.148-2.38.013-.255.031-.5.043-.758.007-.148.01-.312.016-.461.062-1.463.102-3.02.129-4.64a346.056 346.056 0 00.037-6.846V51.053c-.044-9.733-8.18-17.956-14.762-24.162l-.049-.051-40.523-42.408c-10.677-10.561-18.058-15.62-32.666-15.62zm97.968.09c-3.04 2.502-3.72 8.066-.777 10.912l28.496 30.386c3.73 3.701 11.142.56 11.385-4.8l-.002-.628c0-1.198-.013-2.328-.025-3.45-.404-26.89-5.086-31.798-31.336-32.42z" style="marker:none" color="#000" overflow="visible" opacity=".1" filter="url(#j)" enable-background="accumulate" transform="matrix(.5 0 0 .5 20.61 23.593)"/><path d="M39.46 7.5c-1.088 0-2.113.007-3.084.024-14.74.264-16.334 2.894-16.334 19.473v73.006c0 16.579 1.593 19.209 16.334 19.473.97.017 1.996.024 3.084.024H88.538c1.027 0 1.994-.007 2.917-.022.33-.006.63-.018.947-.026.575-.014 1.146-.03 1.68-.053a45.068 45.068 0 002.53-.16c.11-.01.224-.019.332-.03a27.143 27.143 0 002.026-.26c.112-.017.217-.039.325-.058.198-.036.395-.072.585-.112.124-.026.244-.054.364-.082a16.67 16.67 0 00.853-.22 13.443 13.443 0 001.17-.403l.292-.12c.137-.061.268-.126.399-.191.087-.044.177-.086.262-.131a7.247 7.247 0 001.173-.774c.17-.138.33-.285.484-.437l.11-.112a6.86 6.86 0 00.331-.368c.039-.045.078-.09.116-.137.27-.34.513-.709.732-1.11.028-.051.054-.104.081-.156.08-.153.155-.311.228-.474.03-.068.062-.136.091-.207a10.955 10.955 0 00.542-1.62c.033-.123.062-.25.092-.377.072-.3.138-.614.198-.938l.05-.257c.07-.406.133-.827.188-1.27l.03-.276a37.352 37.352 0 00.147-1.573c.028-.384.053-.782.074-1.19.006-.128.015-.25.021-.38.004-.073.005-.155.008-.23a89.42 89.42 0 00.073-2.958c.01-.887.015-1.803.01-2.785V48.62c-.022-4.866-4.09-8.978-7.38-12.08l-.025-.026L80.332 15.31C74.994 10.029 71.303 7.5 64 7.5zm49.866.045c-2.237.746-2.995 4.288-1.27 5.956l14.248 15.193c1.867 1.853 5.58.277 5.693-2.41.024-15.664-1.777-18.41-15.683-18.74z" style="marker:none" color="#000" overflow="visible" opacity=".1" fill="none" stroke="#000" stroke-width="2" enable-background="accumulate"/><path d="M37.7-32.186c-35.297 0-38.922 3.625-38.922 38.994v146.011c0 35.369 3.625 38.995 38.922 38.995h98.156c35.297 0 39.095-3.626 38.922-38.995V50.054c-.044-9.733-8.18-17.956-14.762-24.162l-.049-.051-40.523-42.408c-10.677-10.561-18.058-15.62-32.666-15.62z" style="marker:none" color="#000" overflow="visible" fill="url(#k)" enable-background="accumulate" transform="matrix(.5 0 0 .5 20.61 23.593)"/><path d="M37.7-32.186c-12.134 0-20.525.428-26.313 2.427-2.103.727-3.863 1.661-5.334 2.858l-.002.002a13.845 13.845 0 00-2.844 3.158c-.255.388-.493.797-.72 1.22-.058.107-.11.222-.166.33-.16.315-.316.635-.463.97-.073.166-.141.34-.211.511-.121.297-.24.598-.352.91a26.826 26.826 0 00-.668 2.174c-.093.353-.18.718-.265 1.088-.048.209-.096.414-.14.629-.082.387-.157.791-.23 1.197-.037.212-.08.416-.117.633a54.302 54.302 0 00-.283 1.938v.002A69.51 69.51 0 00-.636-10.1c-.028.283-.051.582-.076.873-.039.435-.075.872-.108 1.324a122.743 122.743 0 00-.197 3.523c-.05 1.147-.086 2.368-.115 3.61-.014.58-.036 1.124-.045 1.726-.03 1.854-.045 3.787-.045 5.852v146.011c0 2.065.014 3.998.045 5.852.01.602.03 1.146.045 1.727.03 1.241.064 2.462.115 3.609.053 1.22.115 2.406.197 3.523.033.452.07.89.108 1.325.025.29.048.59.076.873.068.7.144 1.382.228 2.039v.002c.086.668.18 1.312.283 1.937.036.217.08.421.118.633.072.406.147.81.228 1.197.045.215.093.42.14.63a29.573 29.573 0 00.934 3.262c.112.311.23.612.352.909.07.171.138.345.21.512.148.334.303.654.464.969.055.109.108.223.166.33.227.423.465.832.72 1.22.534.811 1.13 1.545 1.795 2.211a13.688 13.688 0 001.051.95c1.47 1.196 3.23 2.13 5.334 2.857 5.788 1.999 14.18 2.428 26.313 2.428h98.156c2.057 0 3.985-.015 5.834-.045h.033c.646-.011 1.24-.036 1.861-.051.457-.011.886-.028 1.336-.041.674-.021 1.38-.037 2.024-.065l.02-.002c1.252-.054 2.474-.117 3.618-.2l.03-.003c.474-.035.935-.074 1.39-.115.011 0 .023 0 .034-.002.21-.019.427-.037.632-.057.728-.07 1.436-.146 2.118-.234.668-.086 1.31-.182 1.935-.285l.006-.002c.22-.037.428-.079.643-.117.396-.072.79-.144 1.17-.223.238-.05.468-.105.699-.158l.03-.006a29.815 29.815 0 001.686-.436l.018-.006a26.886 26.886 0 001.506-.486c.15-.054.292-.112.438-.168.132-.05.267-.098.396-.15l.033-.014c.185-.075.372-.15.551-.229.167-.073.326-.154.486-.232.105-.05.21-.098.313-.148a.49.49 0 01.021-.012c.167-.083.34-.163.5-.25h.002c.41-.222.806-.454 1.182-.701a14.08 14.08 0 002.133-1.721l.004-.004c.07-.07.14-.143.209-.215l.006-.006c.23-.236.45-.481.664-.734.077-.092.155-.182.23-.276a15.125 15.125 0 001.465-2.22c.055-.102.109-.207.162-.31.159-.307.31-.623.455-.948.061-.136.123-.271.182-.41l.002-.004c.182-.434.357-.88.518-1.346.16-.466.306-.955.447-1.455 0-.002 0-.004.002-.006.04-.143.078-.29.117-.436.036-.136.068-.279.102-.42l.082-.332c0-.003 0-.005.002-.008a37.8 37.8 0 00.394-1.869l.078-.416.02-.097v-.002c.14-.81.267-1.654.377-2.54.006-.047.01-.098.015-.148.016-.13.03-.27.045-.402l.006-.063c.08-.693.15-1.407.213-2.146l.002-.02a107.38 107.38 0 00.22-3.299l.028-.464.016-.293v-.028c.006-.128.009-.266.013-.396l.002-.037c.063-1.463.103-3.02.13-4.64v-.034l.017-1.242c.02-1.774.029-3.606.02-5.57V50.053a18.745 18.745 0 00-.815-5.313 23.484 23.484 0 00-1.303-3.353c-2.86-6.009-8.119-11.23-12.644-15.496l-.05-.051-40.523-42.408c-10.677-10.561-18.058-15.62-32.666-15.62zm99.732.09c-4.475 1.492-5.99 8.576-2.54 11.912l28.495 30.386c3.734 3.706 11.161.553 11.387-4.82a296.16 296.16 0 00-.04-5.453c-.002-.167-.008-.32-.01-.485-.03-1.557-.073-3.047-.138-4.457a112.875 112.875 0 00-.173-2.98c-1.153-15.946-5.549-21.537-19.663-23.361a77.201 77.201 0 00-4.14-.413c-.71-.052-1.443-.1-2.194-.14l-.027-.002a164.219 164.219 0 00-4.98-.188zM54.344-20.242c11.374.004 22.63.04 33.899.246 7.237-.385 13.866 3.454 18.855 8.408 16.105 15.963 31.408 32.714 47.277 48.91 3.417 3.877 8.263 7.764 8.174 13.4.362 29.858.155 59.72.106 89.579-.265 10.25.395 20.696-.908 30.965-.547 2.357-.533 6.035-3.563 6.65-7.589 1.85-15.51 1.47-23.268 1.697-35.546.178-71.428.3-106.976-.136-4.705-.415-9.88.006-14.12-2.385-2.827-3.819-2.108-9.004-2.445-13.485-.582-48.645-.702-97.305-.584-145.972.284-10.717-.493-21.769 1.569-32.438.308-3.273 3.855-4.008 6.496-4.41 11.787-1.128 23.78-.867 35.488-1.03z" style="marker:none" color="#000" overflow="visible" fill="url(#l)" enable-background="accumulate" transform="matrix(.5 0 0 .5 20.61 23.593)"/><path d="M20 63.5v36.503c-.087 17.684 1.812 19.497 19.46 19.497h49.078c17.649 0 19.002-1.818 19.461-19.497V63.5z" style="marker:none" color="#000" overflow="visible" opacity=".1" fill="#fff" enable-background="accumulate"/><path d="M20 99.003v1c-.087 17.684 1.812 19.497 19.46 19.497h49.078c17.649 0 19.002-1.819 19.461-19.497v-1c-.459 17.678-1.812 19.497-19.46 19.497H39.46c-17.648 0-19.547-1.813-19.46-19.497z" style="marker:none" color="#000" overflow="visible" opacity=".2" enable-background="accumulate"/><path d="M78 119.5l30-30v11.242c-.027 16.998-1.902 18.758-19.088 18.758z" style="marker:none" color="#000" overflow="visible" opacity=".08" fill="#fff" enable-background="accumulate"/><g transform="translate(-1808.485 2241.579) scale(2.49998)"><path d="M749.758-861.387l-7.504 5.75h2.927l6.504-5.75z" opacity=".8" fill="gray"/><path d="M748.24-861.387l7.504 5.75h-2.927l-6.504-5.75z" opacity=".8" fill="gray"/><rect ry="1.5" rx="1.5" style="marker:none" width="24" height="18" x="736.999" y="-877.638" overflow="visible" fill="#a33e03"/><rect y="-876.638" x="737.999" height="16" width="22" style="marker:none" rx="1" ry="1" overflow="visible" fill="url(#m)"/><path d="M737.684-857.638h22.63a.68.68 0 01.685.677v.647a.68.68 0 01-.686.676h-22.629a.68.68 0 01-.685-.676v-.647a.68.68 0 01.685-.677z" style="marker:none" overflow="visible" opacity=".4" fill="url(#n)"/><rect y="-876.638" x="737.999" height="16" width="22" style="marker:none" rx="1" ry="1" overflow="visible" fill="url(#o)"/><path style="marker:none" overflow="visible" fill="#d36118" d="M739.999-874.638h18v2h-18z"/><path style="marker:none" overflow="visible" fill="url(#p)" d="M743.999-870.638h5v2h-5z"/><ellipse style="marker:none" transform="matrix(.18182 0 0 .19048 578.181 -993.781)" cx="895.5" cy="651.75" rx="5.5" ry="5.25" overflow="visible" fill="#d36118"/><path style="marker:none" overflow="visible" fill="url(#q)" d="M743.999-867.638h5v2h-5z"/><ellipse transform="matrix(.18182 0 0 .19048 578.181 -990.781)" style="marker:none" cx="895.5" cy="651.75" rx="5.5" ry="5.25" overflow="visible" fill="#d36118"/><path style="marker:none" overflow="visible" fill="url(#r)" d="M743.999-864.638h5v2h-5z"/><ellipse style="marker:none" transform="matrix(.18182 0 0 .19048 578.181 -987.781)" cx="895.5" cy="651.75" rx="5.5" ry="5.25" overflow="visible" fill="#d36118"/><path style="marker:none" overflow="visible" fill="gray" d="M749.999-870.638h8v8h-8z"/><path style="marker:none" overflow="visible" fill="url(#s)" d="M750.999-869.638h6v6h-6z"/><path style="marker:none" overflow="visible" fill="url(#t)" d="M750.999-869.638h6v6h-6z"/><path d="M751.499-864.138l1.5-3 2 1 1.5-3" fill="none" stroke="url(#u)" stroke-linecap="round" stroke-linejoin="round"/><path style="marker:none" overflow="visible" fill="gray" d="M746.999-859.638h4v1h-4z"/></g><path d="M39.46 7.5c-1.254 0-2.406.013-3.506.036a90.77 90.77 0 00-2.253.071c-.446.021-.88.044-1.299.073l-.114.007c-.02 0-.037.003-.057.004-.558.04-1.084.09-1.593.146-.141.015-.283.03-.42.047a30.367 30.367 0 00-.976.136c-.122.019-.247.037-.366.058-.193.034-.378.071-.563.109-.254.05-.5.105-.74.164-.095.023-.193.045-.286.07a14.334 14.334 0 00-1.213.382l-.144.055a8.56 8.56 0 00-2.023 1.087l-.022.016c-2.421 1.807-3.37 4.898-3.71 10.12-.009.131-.015.272-.023.406-.033.57-.063 1.153-.084 1.774v.046c-.024.72-.04 1.472-.05 2.262C20.254 10.088 23.032 8.5 39.46 8.5h31.265c-.43-.148-.873-.277-1.327-.392l-.236-.06a17.826 17.826 0 00-1.02-.208c-.166-.03-.331-.061-.501-.087a20.92 20.92 0 00-.944-.12c-.127-.013-.26-.022-.39-.033-.246-.022-.497-.04-.752-.054-.13-.007-.261-.015-.394-.02A28.85 28.85 0 0064 7.5z" style="marker:none" color="#000" overflow="visible" opacity=".3" fill="#fff" enable-background="accumulate"/><path d="M89.326 7.545c-.535.179-.983.52-1.336.955h.548c17.076 0 19.32 1.742 19.448 17.87.002-.018.006-.036.007-.055-.027-8.835-.579-13.589-3.54-16.088a7.157 7.157 0 00-.495-.38c-.672-.47-1.456-.845-2.36-1.149-.07-.024-.138-.05-.21-.072-.16-.05-.328-.096-.495-.143-.13-.035-.257-.072-.391-.105a17.587 17.587 0 00-.991-.216c-.16-.03-.32-.062-.487-.09a26.282 26.282 0 00-.713-.108c-.109-.015-.211-.033-.322-.047l-.004-.001a35.061 35.061 0 00-1.1-.122c-.154-.015-.315-.028-.473-.041a47.62 47.62 0 00-.796-.063l-.52-.032-.563-.03a82.492 82.492 0 00-2.21-.083h-.011z" style="marker:none" color="#000" overflow="visible" opacity=".4" fill="#fff" enable-background="accumulate"/><path d="M20.005 26.21c-.001.27-.006.51-.006.787v1c-.003-.63.003-1.196.006-1.786z" style="marker:none" color="#000" overflow="visible" opacity=".3" fill="#fff" enable-background="accumulate"/><path d="M20.002 99.003v1c-.001.221.002.41.002.627 0 .23.003.442.005.666a178.32 178.32 0 01-.007-2.293zm87.997.376c-.028 17.316-1.942 19.121-19.458 19.121H39.463c-16.467 0-19.22-1.59-19.445-16.167.152 12.437 1.744 15.983 11.088 16.883h.004c.381.036.775.07 1.181.097h.003c.407.029.828.054 1.262.075.29.014.624.018.927.029.604.022 1.195.047 1.85.059h.002c.982.017 2.023.024 3.125.024h49.078c1.839 0 3.469-.028 4.98-.083a58.444 58.444 0 003.377-.201c9.748-.939 11.061-4.75 11.102-18.542 0-.231.003-.434.002-.671z" style="marker:none" color="#000" overflow="visible" opacity=".2" enable-background="accumulate"/><path d="M101 97a6 6 0 00-6 6v5h-3v13h18v-13h-3v-5a6 6 0 00-6-6zm0 1a5 5 0 015 5v5H96v-5a5 5 0 015-5z" opacity=".7" stroke="#000" stroke-width="2" stroke-linejoin="round"/><path d="M101 97a6 6 0 00-6 6v5h-3v13h18v-13h-3v-5a6 6 0 00-6-6zm0 1a5 5 0 015 5v5H96v-5a5 5 0 015-5z" fill="#fee581"/></svg>