<svg xmlns="http://www.w3.org/2000/svg" xmlns:xlink="http://www.w3.org/1999/xlink" height="128" width="128"><defs><linearGradient gradientUnits="userSpaceOnUse" y2="169.669" x2="4.414" y1="386.308" x1="494.345" id="g" xlink:href="#a" gradientTransform="matrix(0 -.45313 -.45311 0 213.283 251.475)"/><linearGradient id="a"><stop offset="0" stop-color="#f2f2f2"/><stop offset="1" stop-color="#fff"/></linearGradient><linearGradient gradientTransform="translate(-64.68 -16.525)" xlink:href="#b" id="h" x1="201.078" y1="270" x2="102.922" y2="46" gradientUnits="userSpaceOnUse"/><linearGradient id="b"><stop offset="0" stop-color="#18a003"/><stop offset="1" stop-color="#2e851b"/></linearGradient><linearGradient xlink:href="#c" id="i" gradientUnits="userSpaceOnUse" x1="476" y1="-867.138" x2="498" y2="-867.138"/><linearGradient id="c"><stop offset="0" stop-color="#18a303"/><stop offset="1" stop-color="#106802"/></linearGradient><linearGradient xlink:href="#c" id="j" gradientUnits="userSpaceOnUse" gradientTransform="translate(123 1753.64)" x1="475" y1="-895.638" x2="475" y2="-848.638"/><linearGradient xlink:href="#d" id="k" gradientUnits="userSpaceOnUse" gradientTransform="matrix(1.5 0 0 1.80001 -231.5 510.715)" x1="481" y1="-759.638" x2="481" y2="-764.638"/><linearGradient id="d"><stop offset="0" stop-color="#fff" stop-opacity=".588"/><stop offset="1" stop-color="#fff" stop-opacity=".863"/></linearGradient><filter id="e" x="-.055" width="1.109" y="-.043" height="1.086" color-interpolation-filters="sRGB"><feGaussianBlur stdDeviation="4"/></filter><filter id="f" x="-.014" width="1.027" y="-.011" height="1.021" color-interpolation-filters="sRGB"><feGaussianBlur stdDeviation="1"/></filter></defs><path d="M38.242 29.475C2.945 29.475-.68 33.1-.68 68.469V212.48c0 15.474.693 24.873 4.43 30.55.534.81 1.13 1.544 1.795 2.21 5.318 5.328 15.049 6.235 32.697 6.235h98.156c2.055 0 3.988-.015 5.834-.045.66-.011 1.261-.036 1.895-.051 1.15-.028 2.292-.06 3.36-.106 1.27-.055 2.509-.12 3.667-.205.474-.035.935-.074 1.39-.115.221-.02.45-.037.667-.059.727-.07 1.436-.146 2.117-.234.668-.086 1.31-.182 1.936-.285.221-.037.431-.08.648-.12.396-.07.79-.142 1.17-.222.248-.052.487-.108.728-.164a29.755 29.755 0 002.54-.7 22.103 22.103 0 001.506-.547c.195-.078.394-.158.583-.241.275-.121.538-.25.8-.381.174-.087.354-.17.523-.262.41-.221.805-.453 1.181-.7.407-.268.795-.55 1.164-.849.34-.275.66-.569.969-.873.075-.073.146-.15.219-.224.23-.236.45-.481.664-.735.077-.091.155-.181.23-.275a15.125 15.125 0 001.465-2.22c.055-.102.109-.208.162-.311.159-.307.31-.622.455-.948.062-.137.125-.273.184-.414.182-.433.357-.878.518-1.345a26.525 26.525 0 00.566-1.897c.064-.244.123-.5.184-.752.143-.601.275-1.228.396-1.877.032-.171.067-.338.098-.513.14-.811.267-1.655.377-2.541.022-.178.04-.37.06-.551a74.704 74.704 0 00.293-3.147c.057-.768.106-1.563.149-2.38.013-.255.03-.5.043-.758.007-.148.009-.312.015-.461.062-1.463.103-3.02.129-4.64a346.056 346.056 0 00.037-6.846V111.714c-.044-9.733-8.179-17.956-14.762-24.162l-.048-.051-40.524-42.408c-10.677-10.561-18.058-15.62-32.666-15.62zm96.982.09c-2.169 2.775-2.385 7.403.21 9.912l28.496 30.386c3.723 3.696 11.118.569 11.38-4.779-.002-.42.001-.861-.002-1.272 0-.49-.009-.953-.011-1.431-.362-27.254-4.96-32.19-31.346-32.817z" style="marker:none" color="#000" overflow="visible" opacity=".3" filter="url(#e)" enable-background="accumulate" transform="matrix(.5 0 0 .5 20.339 -6.237)"/><path d="M38.242 28.475C2.945 28.475-.68 32.1-.68 67.469V212.48c0 15.474.693 24.873 4.43 30.55.534.81 1.13 1.544 1.795 2.21 5.318 5.328 15.049 6.235 32.697 6.235h98.156c2.055 0 3.988-.015 5.834-.045.66-.011 1.261-.036 1.895-.051 1.15-.028 2.292-.06 3.36-.106 1.27-.055 2.509-.12 3.667-.205.474-.035.935-.074 1.39-.115.221-.02.45-.037.667-.059.727-.07 1.436-.146 2.117-.234.668-.086 1.31-.182 1.936-.285.221-.037.431-.08.648-.12.396-.07.79-.142 1.17-.222.248-.052.487-.108.728-.164a29.755 29.755 0 002.54-.7 22.103 22.103 0 001.506-.547c.195-.078.394-.158.583-.241.275-.121.538-.25.8-.381.174-.087.354-.17.523-.262.41-.221.805-.453 1.181-.7.407-.268.795-.55 1.164-.849.34-.275.66-.569.969-.873.075-.073.146-.15.219-.224.23-.236.45-.481.664-.735.077-.091.155-.181.23-.275a15.125 15.125 0 001.465-2.22c.055-.102.109-.208.162-.311.159-.307.31-.622.455-.948.062-.137.125-.273.184-.414.182-.433.357-.878.518-1.345a26.525 26.525 0 00.566-1.897c.064-.244.123-.5.184-.752.143-.601.275-1.228.396-1.877.032-.171.067-.338.098-.513.14-.811.267-1.655.377-2.541.022-.178.04-.37.06-.551a74.704 74.704 0 00.293-3.147c.057-.768.106-1.563.149-2.38.013-.255.03-.5.043-.758.007-.148.009-.312.015-.461.062-1.463.103-3.02.129-4.64a346.056 346.056 0 00.037-6.846V110.714c-.044-9.733-8.179-17.956-14.762-24.162l-.048-.051-40.524-42.408c-10.677-10.561-18.058-15.62-32.666-15.62zm97.969.09c-3.04 2.502-3.72 8.066-.778 10.912l28.497 30.386c3.728 3.701 11.141.56 11.384-4.8 0-.211 0-.419-.002-.627 0-1.199-.012-2.329-.025-3.452-.403-26.889-5.085-31.797-31.336-32.42z" style="marker:none" color="#000" overflow="visible" opacity=".1" filter="url(#f)" enable-background="accumulate" transform="matrix(.5 0 0 .5 20.339 -6.237)"/><path d="M39.46 7.5c-1.088 0-2.113.007-3.084.024-14.74.264-16.334 2.894-16.334 19.473v73.006c0 16.579 1.593 19.209 16.334 19.473.97.017 1.996.024 3.084.024H88.538c1.027 0 1.994-.007 2.917-.022.33-.006.63-.018.947-.026.575-.014 1.146-.03 1.68-.053a45.068 45.068 0 002.53-.16c.11-.01.224-.019.332-.03a27.143 27.143 0 002.026-.26c.112-.017.217-.039.325-.058.198-.036.395-.072.585-.112.124-.026.244-.054.364-.082a16.67 16.67 0 00.853-.22 13.443 13.443 0 001.17-.403l.292-.12c.137-.061.268-.126.399-.191.087-.044.177-.086.262-.131a7.247 7.247 0 001.173-.774c.17-.138.33-.285.484-.437l.11-.112a6.86 6.86 0 00.331-.368c.039-.045.078-.09.116-.137.27-.34.513-.709.732-1.11.028-.051.054-.104.081-.156.08-.153.155-.311.228-.474.03-.068.062-.136.091-.207a10.955 10.955 0 00.542-1.62c.033-.123.062-.25.092-.377.072-.3.138-.614.198-.938l.05-.257c.07-.406.133-.827.188-1.27l.03-.276a37.352 37.352 0 00.147-1.573c.028-.384.053-.782.074-1.19.006-.128.015-.25.021-.38.004-.073.005-.155.008-.23a89.42 89.42 0 00.073-2.958c.01-.887.015-1.803.01-2.785V48.62c-.022-4.866-4.09-8.978-7.38-12.08l-.025-.026L80.332 15.31C74.994 10.029 71.303 7.5 64 7.5zm49.866.045c-2.237.746-2.995 4.288-1.27 5.956l14.248 15.193c1.867 1.853 5.58.277 5.693-2.41.024-15.664-1.777-18.41-15.683-18.74z" style="marker:none" color="#000" overflow="visible" opacity=".1" fill="none" stroke="#000" stroke-width="2" enable-background="accumulate"/><path d="M38.242 27.475C2.945 27.475-.68 31.1-.68 66.469V212.48c0 35.369 3.625 38.995 38.922 38.995h98.156c35.297 0 39.095-3.626 38.922-38.995V109.715c-.044-9.733-8.179-17.956-14.762-24.162l-.048-.051-40.524-42.408c-10.677-10.561-18.058-15.62-32.666-15.62z" style="marker:none" color="#000" overflow="visible" fill="url(#g)" enable-background="accumulate" transform="matrix(.5 0 0 .5 20.339 -6.237)"/><path d="M38.242 27.475c-12.133 0-20.525.428-26.312 2.427-2.104.727-3.864 1.661-5.334 2.858l-.002.002A13.845 13.845 0 003.75 35.92c-.256.388-.493.797-.72 1.22-.058.107-.111.222-.167.33-.16.315-.316.635-.463.97-.073.166-.14.34-.21.511-.122.297-.24.598-.352.91a26.826 26.826 0 00-.668 2.174c-.093.353-.181.718-.266 1.088-.048.209-.096.415-.14.629-.082.388-.156.791-.229 1.197-.038.212-.081.416-.117.633a54.302 54.302 0 00-.283 1.938v.002a69.51 69.51 0 00-.229 2.039c-.028.283-.05.582-.076.873-.038.435-.075.872-.108 1.324a122.743 122.743 0 00-.197 3.523c-.05 1.147-.086 2.368-.115 3.61-.014.58-.035 1.124-.045 1.726-.03 1.854-.045 3.787-.045 5.852V212.48c0 2.065.015 3.998.045 5.852.01.602.031 1.146.045 1.727.03 1.241.065 2.462.115 3.609.054 1.22.116 2.406.198 3.523.033.452.069.89.107 1.325.025.29.048.59.076.873.069.7.144 1.382.229 2.039v.002c.085.668.18 1.312.283 1.937.036.217.079.421.117.633.073.406.147.81.229 1.197.045.215.092.42.14.63a29.573 29.573 0 00.934 3.262c.111.311.23.612.351.91.07.17.138.344.211.51.147.335.303.655.463.97.056.109.109.223.166.33.228.423.465.832.72 1.22.535.811 1.131 1.545 1.796 2.211a13.688 13.688 0 001.05.95c1.471 1.196 3.231 2.13 5.335 2.857 5.787 1.999 14.179 2.428 26.312 2.428h98.156c2.058 0 3.986-.015 5.834-.045h.033c.646-.011 1.24-.036 1.862-.051.457-.011.885-.028 1.336-.041.674-.021 1.379-.037 2.023-.065l.02-.002c1.252-.054 2.474-.117 3.619-.2l.03-.003c.473-.035.934-.074 1.39-.115.01 0 .022 0 .033-.002.21-.019.427-.037.633-.057.727-.07 1.435-.146 2.117-.234.668-.086 1.31-.182 1.936-.285l.006-.002c.22-.037.427-.079.642-.117.397-.072.791-.144 1.17-.223.239-.05.468-.105.7-.158l.029-.006a29.815 29.815 0 001.686-.436l.019-.006a26.886 26.886 0 001.505-.486c.15-.054.292-.112.438-.168.132-.05.267-.098.396-.15l.034-.014c.185-.075.371-.15.55-.229.168-.073.326-.154.487-.232.104-.05.21-.097.312-.148a.49.49 0 01.022-.012c.167-.083.339-.163.5-.25h.002c.41-.222.805-.454 1.181-.701a14.08 14.08 0 002.133-1.721l.004-.004c.071-.07.14-.143.21-.215l.005-.006c.23-.236.451-.481.664-.734.077-.092.156-.182.23-.276a15.125 15.125 0 001.466-2.22c.055-.102.108-.207.162-.31.158-.307.31-.623.455-.948.06-.136.123-.271.181-.41l.002-.004c.182-.434.357-.88.518-1.346.16-.466.307-.955.447-1.455l.002-.006c.04-.143.079-.29.117-.436.036-.136.068-.279.102-.42l.082-.332.002-.008a37.8 37.8 0 00.394-1.869l.079-.416.02-.097v-.002c.14-.81.267-1.654.376-2.54l.016-.148c.016-.13.03-.27.045-.402l.006-.063c.079-.693.15-1.407.212-2.146l.002-.02a107.38 107.38 0 00.22-3.299c.01-.155.02-.31.028-.464l.016-.293v-.028c.006-.128.01-.266.014-.396 0-.012 0-.025.002-.037.062-1.463.102-3.02.129-4.64v-.034a346.056 346.056 0 00.037-6.813V109.716a18.745 18.745 0 00-.815-5.313 23.484 23.484 0 00-1.302-3.353c-2.86-6.009-8.12-11.23-12.645-15.496l-.049-.051-40.523-42.408c-10.678-10.561-18.059-15.62-32.667-15.62zm99.732.09c-4.474 1.492-5.99 8.576-2.54 11.912l28.496 30.386c3.733 3.706 11.16.553 11.386-4.82a296.16 296.16 0 00-.039-5.453c-.003-.167-.009-.32-.012-.485-.03-1.557-.072-3.047-.136-4.457a112.875 112.875 0 00-.174-2.98c-1.153-15.946-5.548-21.537-19.662-23.361a77.201 77.201 0 00-4.14-.413c-.71-.052-1.443-.1-2.194-.14l-.027-.002a164.219 164.219 0 00-4.98-.188zM54.887 39.42c11.374.004 22.63.04 33.898.246 7.238-.385 13.866 3.454 18.855 8.408 16.106 15.963 31.408 32.714 47.278 48.91 3.416 3.877 8.263 7.764 8.174 13.4.362 29.858.154 59.72.105 89.579-.265 10.25.396 20.696-.908 30.965-.547 2.357-.533 6.036-3.563 6.65-7.588 1.85-15.51 1.47-23.267 1.697-35.546.178-71.429.3-106.977-.136-4.705-.415-9.88.006-14.119-2.385-2.827-3.819-2.109-9.004-2.445-13.485-.583-48.645-.702-97.305-.584-145.972.283-10.717-.494-21.769 1.568-32.438.309-3.273 3.856-4.008 6.496-4.41 11.788-1.128 23.781-.867 35.489-1.03z" style="marker:none" color="#000" overflow="visible" fill="url(#h)" enable-background="accumulate" transform="matrix(.5 0 0 .5 20.339 -6.237)"/><path d="M20 63.5v36.503c-.087 17.684 1.812 19.497 19.46 19.497h49.078c17.649 0 19.002-1.818 19.461-19.497V63.5z" style="marker:none" color="#000" overflow="visible" opacity=".1" fill="#fff" enable-background="accumulate"/><path d="M20 99.003v1c-.087 17.684 1.812 19.497 19.46 19.497h49.078c17.649 0 19.002-1.819 19.461-19.497v-1c-.459 17.678-1.812 19.497-19.46 19.497H39.46c-17.648 0-19.547-1.813-19.46-19.497z" style="marker:none" color="#000" overflow="visible" opacity=".2" enable-background="accumulate"/><path d="M78 119.5l30-30v11.242c-.027 16.998-1.902 18.758-19.088 18.758z" style="marker:none" color="#000" overflow="visible" opacity=".08" fill="#fff" enable-background="accumulate"/><path style="marker:none" overflow="visible" fill="#ccf4c6" d="M36.499 47.5h55V100h-55z"/><path style="marker:none" overflow="visible" fill="#92e285" d="M36.499 47.5h55V60h-55z"/><path style="marker:none" d="M599 876v21h22v-21h-1zm1 1h6v3h-6zm7 0h6v3h-6zm7 0h6v3h-6zm-14 4h6v3h-6zm7 0h6v3h-6zm7 0h6v3h-6zm-14 4h6v3h-6zm7 0h6v3h-6zm7 0h6v3h-6zm-14 4h6v3h-6zm7 0h6v3h-6zm7 0h6v3h-6zm-14 4h6v3h-6zm7 0h6v3h-6zm7 0h6v3h-6z" transform="matrix(2.5 0 0 2.5 -1461.001 -2142.505)" overflow="visible" fill="url(#j)"/><path style="marker:none" overflow="visible" fill="gray" d="M68.999 75h27.5v27.5h-27.5z"/><path style="marker:none" overflow="visible" fill="#ccc" d="M71.499 77.5h22.5V100h-22.5z"/><path style="marker:none" overflow="visible" fill="url(#k)" d="M490-865.638h9v9h-9z" transform="matrix(2.5 0 0 2.5 -1153.501 2241.595)"/><path style="marker:none" overflow="visible" fill="#1c99e0" d="M71.499 87.5h7.5V100h-7.5z"/><path style="marker:none" overflow="visible" fill="#d36118" d="M78.999 80h7.5v20h-7.5z"/><path style="marker:none" overflow="visible" fill="#e9b913" d="M86.499 92.5h7.5v7.5h-7.5z"/><path style="marker:none" overflow="visible" fill="#63bbee" d="M73.999 90h2.5v10h-2.5z"/><path style="marker:none" overflow="visible" fill="#f09e6f" d="M81.499 82.5h2.5V100h-2.5z"/><path style="marker:none" overflow="visible" fill="#f5ce53" d="M88.999 95h2.5v5h-2.5z"/><path d="M39.46 7.5c-1.254 0-2.406.013-3.506.036a90.77 90.77 0 00-2.253.071c-.446.021-.88.044-1.299.073l-.114.007c-.02 0-.037.003-.057.004-.558.04-1.084.09-1.593.146-.141.015-.283.03-.42.047a30.367 30.367 0 00-.976.136c-.122.019-.247.037-.366.058-.193.034-.378.071-.563.109-.254.05-.5.105-.74.164-.095.023-.193.045-.286.07a14.334 14.334 0 00-1.213.382l-.144.055a8.56 8.56 0 00-2.023 1.087l-.022.016c-2.421 1.807-3.37 4.898-3.71 10.12-.009.131-.015.272-.023.406-.033.57-.063 1.153-.084 1.774v.046c-.024.72-.04 1.472-.05 2.262C20.254 10.088 23.032 8.5 39.46 8.5h31.265c-.43-.148-.873-.277-1.327-.392l-.236-.06a17.826 17.826 0 00-1.02-.208c-.166-.03-.331-.061-.501-.087a20.92 20.92 0 00-.944-.12c-.127-.013-.26-.022-.39-.033-.246-.022-.497-.04-.752-.054-.13-.007-.261-.015-.394-.02A28.85 28.85 0 0064 7.5z" style="marker:none" color="#000" overflow="visible" opacity=".3" fill="#fff" enable-background="accumulate"/><path d="M89.326 7.545c-.535.179-.983.52-1.336.955h.548c17.076 0 19.32 1.742 19.448 17.87.002-.018.006-.036.007-.055-.027-8.835-.579-13.589-3.54-16.088a7.157 7.157 0 00-.495-.38c-.672-.47-1.456-.845-2.36-1.149-.07-.024-.138-.05-.21-.072-.16-.05-.328-.096-.495-.143-.13-.035-.257-.072-.391-.105a17.587 17.587 0 00-.991-.216c-.16-.03-.32-.062-.487-.09a26.282 26.282 0 00-.713-.108c-.109-.015-.211-.033-.322-.047l-.004-.001a35.061 35.061 0 00-1.1-.122c-.154-.015-.315-.028-.473-.041a47.62 47.62 0 00-.796-.063l-.52-.032-.563-.03a82.492 82.492 0 00-2.21-.083h-.011z" style="marker:none" color="#000" overflow="visible" opacity=".4" fill="#fff" enable-background="accumulate"/><path d="M20.005 26.21c-.001.27-.006.51-.006.787v1c-.003-.63.003-1.196.006-1.786z" style="marker:none" color="#000" overflow="visible" opacity=".3" fill="#fff" enable-background="accumulate"/><path d="M20.002 99.003v1c-.001.221.002.41.002.627 0 .23.003.442.005.666a178.32 178.32 0 01-.007-2.293zm87.997.376c-.028 17.316-1.942 19.121-19.458 19.121H39.463c-16.467 0-19.22-1.59-19.445-16.167.152 12.437 1.744 15.983 11.088 16.883h.004c.381.036.775.07 1.181.097h.003c.407.029.828.054 1.262.075.29.014.624.018.927.029.604.022 1.195.047 1.85.059h.002c.982.017 2.023.024 3.125.024h49.078c1.839 0 3.469-.028 4.98-.083a58.444 58.444 0 003.377-.201c9.748-.939 11.061-4.75 11.102-18.542 0-.231.003-.434.002-.671z" style="marker:none" color="#000" overflow="visible" opacity=".2" enable-background="accumulate"/><path d="M101 97a6 6 0 00-6 6v5h-3v13h18v-13h-3v-5a6 6 0 00-6-6zm0 1a5 5 0 015 5v5H96v-5a5 5 0 015-5z" opacity=".6" stroke="#000" stroke-width="2" stroke-linejoin="round"/><path d="M101 97a6 6 0 00-6 6v5h-3v13h18v-13h-3v-5a6 6 0 00-6-6zm0 1a5 5 0 015 5v5H96v-5a5 5 0 015-5z" fill="#fff"/></svg>