<svg xmlns="http://www.w3.org/2000/svg" height="16" width="16"><circle cx="8" cy="8" r="6" fill="#1a7fd4"/><path d="M8.148 4.001h0c-.367 0-.715.041-1.043.122a4.127 4.127 0 00-.805.298l.249.665c.475-.233.961-.36 1.46-.36.419 0 .751.107.98.327.226.21.34.492.34.824 0 .208-.05.402-.15.579-.09.172-.206.335-.35.49-.141.152-.29.304-.447.455h0l-.003.001c-.152.14-.298.296-.436.466h0v.001a2.43 2.43 0 00-.34.525c-.08.185-.122.391-.122.623 0 .138.017.269.04.396h.75c-.001-.016-.005-.03-.005-.046v-.124c0-.259.053-.493.16-.7.104-.21.232-.4.385-.57h0V7.97a5.05 5.05 0 01.499-.503c.176-.156.337-.32.483-.49.144-.168.265-.347.363-.537v0c.095-.192.144-.41.144-.655 0-.195-.033-.398-.101-.61l-.001-.001v-.002a1.35 1.35 0 00-.332-.577 1.795 1.795 0 00-.66-.42l-.002-.001-.002-.001C8.936 4.06 8.584 4 8.148 4zm-.186 6.642c-.224 0-.387.066-.512.2a.67.67 0 00-.19.479c0 .185.062.34.19.478.125.134.288.2.512.2.224 0 .388-.066.513-.2a.671.671 0 00.19-.478.67.67 0 00-.19-.479c-.125-.134-.289-.2-.513-.2z" style="line-height:125%;-inkscape-font-specification:'Ubuntu Medium';text-align:center" font-weight="500" font-size="72.036" font-family="Ubuntu" letter-spacing="0" word-spacing="0" text-anchor="middle" fill="#fff" stroke="#fff" stroke-width=".5"/></svg>