<svg xmlns="http://www.w3.org/2000/svg" viewBox="0 0 24 24"><path d="M4.5 2.5c-1.108 0-2 .892-2 2v17h19v-17c0-1.108-.892-2-2-2z" fill="#fff" stroke="#8c8c8c"/><path d="M3 8h18v13H3z" fill="#fff"/><path d="M3 7.5h18" fill="none" stroke="#a0a0a0"/><path d="M12 4h2v2h-2zM15 4h2v2h-2z" opacity=".7"/><path d="M18 4h2v2h-2z" fill="red"/><path d="M3 8.5h18" opacity=".05" fill="none" stroke="#000"/><path d="M8 7H3v15h5V8zM7 8v13H4V8z" fill="#d85eca"/><path d="M7 8v13H4V8z" fill="#ebaee4"/><path d="M16 13c3.866 0 7 2.79 7 5s-3.134 5-7 5-7-2.79-7-5 3.134-5 7-5z" opacity=".7" stroke="#000" stroke-width="2" stroke-linecap="round" stroke-linejoin="round"/><path d="M16 13c3.866 0 7 2.79 7 5s-3.134 5-7 5-7-2.79-7-5 3.134-5 7-5z" fill="#fff"/><path d="M16 16a2 2 0 102 2 2 2 0 000-.588A1 1 0 0117 18a1 1 0 01-1-1 1 1 0 01.59-1 2 2 0 00-.59 0z" fill="#232629"/><path d="M16 14a4 4 0 00-4 4 4 4 0 004 4 4 4 0 004-4 4 4 0 00-4-4zm0 1a3 3 0 013 3 3 3 0 01-3 3 3 3 0 01-3-3 3 3 0 013-3z" fill="#232629"/></svg>