<svg viewBox="0 0 24 24" xmlns="http://www.w3.org/2000/svg"><path style="opacity:.7;fill:#000;stroke:#000;stroke-width:2;stroke-linejoin:round;stroke-miterlimit:4;stroke-dasharray:none" d="M16 3.998c2 0 3 0 3 2v12.004c0 2-1 2-3 2H8c-2 0-3 0-3-2V5.998c0-2 1-2 3-2z"/><path d="M16 3.998c2 0 3 0 3 2v12.004c0 2-1 2-3 2H8c-2 0-3 0-3-2V5.998c0-2 1-2 3-2z" style="fill:#fff;stroke-width:1"/><g aria-label="B4" style="font-size:10.6681px;line-height:1.25;letter-spacing:0;word-spacing:0"><path d="M8.238 15.767q-.224 0-.49-.01-.257-.01-.523-.032-.256-.022-.512-.054t-.47-.085V8.417q.214-.053.47-.085.256-.032.512-.054.266-.02.522-.032.256-.01.48-.01.64 0 1.195.096.566.096.971.33.416.225.65.598.236.373.236.917 0 .608-.289 1.003-.288.384-.768.576.651.192 1.035.608.384.416.384 1.174 0 1.11-.821 1.675-.811.554-2.582.554zm-.97-3.51v2.604q.117.01.277.021l.32.021h.437q.459 0 .864-.053.416-.064.726-.213.309-.15.49-.416.192-.267.192-.673 0-.362-.138-.608-.139-.256-.406-.405-.256-.15-.618-.213-.363-.064-.811-.064zm0-.831h1.087q.385 0 .726-.054.341-.053.587-.192.256-.139.394-.363.15-.224.15-.565 0-.32-.15-.533-.149-.224-.416-.352-.256-.14-.608-.203-.352-.064-.747-.064-.394 0-.618.01-.224.011-.406.033zM12.612 13.143q.203-.47.555-1.088.352-.63.79-1.29.447-.662.949-1.302.512-.64 1.024-1.153h.95v4.694h.874v.811h-.875v1.888h-.96v-1.888h-3.307zm3.307-3.66q-.32.342-.65.769-.32.416-.63.875t-.587.939q-.266.48-.48.938h2.347z" style="font-family:Ubuntu;-inkscape-font-specification:Ubuntu" transform="scale(1.00013 .99987)"/></g></svg>