<svg xmlns="http://www.w3.org/2000/svg" xmlns:xlink="http://www.w3.org/1999/xlink" viewBox="0 0 24 24"><path style="opacity:1;fill:#000;stroke:#fff;stroke-width:2;stroke-linejoin:round;stroke-miterlimit:4;stroke-dasharray:none" d="M5 20v1h14v-1H5zm0 2v1h14v-1H5z"/><defs><linearGradient id="a"><stop style="stop-color:#151515;stop-opacity:1" offset="0"/><stop style="stop-color:#4d4d4d;stop-opacity:1" offset="1"/></linearGradient><linearGradient xlink:href="#a" id="b" x1="12" y1="2" x2="12" y2="23" gradientUnits="userSpaceOnUse"/></defs><path style="opacity:1;fill:#000;fill-opacity:1;stroke:#fff;stroke-width:2;stroke-linejoin:round;stroke-miterlimit:4;stroke-dasharray:none" d="M6 2 4.5 4 7 6v7c0 2.77 2.23 5 5 5s5-2.23 5-5V6l-3-2h3V2h-4l-1.5 2L14 6v7c0 1.108-.892 2-2 2s-2.157-.903-2-2V6L7 4h3V2z"/><path style="fill:url(#b);fill-opacity:1" d="M6 2 4.5 4 7 6v7c0 2.77 2.23 5 5 5s5-2.23 5-5V6l-3-2h3V2h-4l-1.5 2L14 6v7c0 1.108-.892 2-2 2s-2.157-.903-2-2V6L7 4h3V2H6zM5 20v1h14v-1H5zm0 2v1h14v-1H5z"/></svg>