<svg xmlns="http://www.w3.org/2000/svg" xmlns:xlink="http://www.w3.org/1999/xlink" viewBox="0 0 16 16"><defs><linearGradient id="a"><stop style="stop-color:#151515;stop-opacity:1" offset="0"/><stop style="stop-color:#4d4d4d;stop-opacity:1" offset="1"/></linearGradient><linearGradient xlink:href="#a" id="b" x1="8" y1="1" x2="8" y2="15" gradientUnits="userSpaceOnUse"/></defs><path style="opacity:1;fill:#000;stroke:#fff;stroke-width:2;stroke-linejoin:round;stroke-miterlimit:4;stroke-dasharray:none" fill="#232629" d="M4 1v11a3 3 0 0 0 3 3h2a3 3 0 0 0 3-3V3a2 2 0 0 0-2-2H8a2 2 0 0 0-2 2v8a2 2 0 1 0 4 0V3H9v8a1 1 0 0 1-2 0V3a1 1 0 0 1 1-1h2a1 1 0 0 1 1 1v9a2 2 0 0 1-2 2H7a2 2 0 0 1-2-2V1z"/><path d="M4 1v11a3 3 0 0 0 3 3h2a3 3 0 0 0 3-3V3a2 2 0 0 0-2-2H8a2 2 0 0 0-2 2v8a2 2 0 1 0 4 0V3H9v8a1 1 0 0 1-2 0V3a1 1 0 0 1 1-1h2a1 1 0 0 1 1 1v9a2 2 0 0 1-2 2H7a2 2 0 0 1-2-2V1z" fill="#232629" style="fill:url(#b);fill-opacity:1"/></svg>