<svg xmlns="http://www.w3.org/2000/svg" width="32" height="32"><path d="M16 8.929L8.5 16.5 16 24l7.5-7.5z" opacity=".7" stroke="#000" stroke-width="2" stroke-linejoin="round"/><path d="M16 8.929L8.5 16.5 16 24l7.5-7.5z" fill="#d85eca"/><path fill="#232629" fill-rule="evenodd" d="M3 6h26v1H3z"/><path fill="#fff" fill-rule="evenodd" d="M4 7h24v1H4z"/><path fill="#232629" fill-rule="evenodd" d="M3 27h26v-1H3z"/><path fill="#fff" fill-rule="evenodd" d="M4 26h24v-1H4z"/><path fill="#232629" fill-rule="evenodd" d="M29 25H19v-1h10z"/><path fill="#fff" fill-rule="evenodd" d="M28 24h-9v-1h9z"/><path fill="#232629" fill-rule="evenodd" d="M29 23h-8v-1h8z"/><path fill="#fff" fill-rule="evenodd" d="M28 22h-7v-1h7z"/><path fill="#232629" fill-rule="evenodd" d="M29 21h-6v-1h6z"/><path fill="#fff" fill-rule="evenodd" d="M28 20h-5v-1h5z"/><path fill="#232629" fill-rule="evenodd" d="M29 19h-4v-1h4z"/><path fill="#fff" fill-rule="evenodd" d="M28 18h-3v-1h3z"/><path fill="#232629" fill-rule="evenodd" d="M29 17h-3v-1h3z"/><path fill="#fff" fill-rule="evenodd" d="M28 16h-3v-1h3z"/><path fill="#232629" fill-rule="evenodd" d="M29 8H19v1h10z"/><path fill="#fff" fill-rule="evenodd" d="M28 9h-9v1h9z"/><path fill="#232629" fill-rule="evenodd" d="M29 10h-8v1h8z"/><path fill="#fff" fill-rule="evenodd" d="M28 11h-7v1h7z"/><path fill="#232629" fill-rule="evenodd" d="M29 12h-6v1h6z"/><path fill="#fff" fill-rule="evenodd" d="M28 13h-5v1h5z"/><path fill="#232629" fill-rule="evenodd" d="M29 15h-4v-1h4zM3 25h10v-1H3z"/><path fill="#fff" fill-rule="evenodd" d="M4 24h9v-1H4z"/><path fill="#232629" fill-rule="evenodd" d="M3 23h8v-1H3z"/><path fill="#fff" fill-rule="evenodd" d="M4 22h7v-1H4z"/><path fill="#232629" fill-rule="evenodd" d="M3 21h6v-1H3z"/><path fill="#fff" fill-rule="evenodd" d="M4 20h5v-1H4z"/><path fill="#232629" fill-rule="evenodd" d="M3 19h4v-1H3z"/><path fill="#fff" fill-rule="evenodd" d="M4 18h3v-1H4z"/><path fill="#232629" fill-rule="evenodd" d="M3 17h3v-1H3z"/><path fill="#fff" fill-rule="evenodd" d="M4 16h3v-1H4z"/><path fill="#232629" fill-rule="evenodd" d="M3 8h10v1H3z"/><path fill="#fff" fill-rule="evenodd" d="M4 9h9v1H4z"/><path fill="#232629" fill-rule="evenodd" d="M3 10h8v1H3z"/><path fill="#fff" fill-rule="evenodd" d="M4 11h7v1H4z"/><path fill="#232629" fill-rule="evenodd" d="M3 12h6v1H3z"/><path fill="#fff" fill-rule="evenodd" d="M4 13h5v1H4z"/><path fill="#232629" fill-rule="evenodd" d="M3 15h4v-1H3z"/></svg>