<svg xmlns="http://www.w3.org/2000/svg" width="32" height="32"><path d="M23.5 8.929L16 16.5l7.5 7.5 7.5-7.5z" opacity=".7" stroke="#000" stroke-width="2" stroke-linejoin="round"/><path d="M23.5 8.929L16 16.5l7.5 7.5 7.5-7.5z" fill="#d85eca"/><path fill="#232629" fill-rule="evenodd" d="M3 6h26v1H3z"/><path fill="#fff" fill-rule="evenodd" d="M4 7h24v1H4z"/><path fill="#232629" fill-rule="evenodd" d="M3 27h26v-1H3z"/><path fill="#fff" fill-rule="evenodd" d="M4 26h24v-1H4z"/><path fill="#232629" fill-rule="evenodd" d="M3 25h18v-1H3z"/><path fill="#fff" fill-rule="evenodd" d="M4 24h17v-1H4z"/><path fill="#232629" fill-rule="evenodd" d="M3 23h16v-1H3z"/><path fill="#fff" fill-rule="evenodd" d="M4 22h15v-1H4z"/><path fill="#232629" fill-rule="evenodd" d="M3 21h14v-1H3z"/><path fill="#fff" fill-rule="evenodd" d="M4 20h13v-1H4z"/><path fill="#232629" fill-rule="evenodd" d="M3 19h12v-1H3z"/><path fill="#fff" fill-rule="evenodd" d="M4 18h11v-1H4z"/><path fill="#232629" fill-rule="evenodd" d="M3 17h11v-1H3z"/><path fill="#fff" fill-rule="evenodd" d="M4 16h11v-1H4z"/><path fill="#232629" fill-rule="evenodd" d="M3 8h18v1H3z"/><path fill="#fff" fill-rule="evenodd" d="M4 9h17v1H4z"/><path fill="#232629" fill-rule="evenodd" d="M3 10h16v1H3z"/><path fill="#fff" fill-rule="evenodd" d="M4 11h15v1H4z"/><path fill="#232629" fill-rule="evenodd" d="M3 12h14v1H3z"/><path fill="#fff" fill-rule="evenodd" d="M4 13h13v1H4z"/><path fill="#232629" fill-rule="evenodd" d="M3 15h12v-1H3z"/></svg>