<svg xmlns="http://www.w3.org/2000/svg" xmlns:xlink="http://www.w3.org/1999/xlink" height="57" width="71"><defs><linearGradient xlink:href="#a" id="b" x1="168" y1="234" x2="168" y2="284" gradientUnits="userSpaceOnUse" gradientTransform="matrix(-1 0 0 1 203 -231)"/><linearGradient id="a"><stop offset="0" stop-color="#fff"/><stop offset=".125" stop-color="#fff" stop-opacity=".098"/><stop offset=".925" stop-color="#fff" stop-opacity=".098"/><stop offset="1" stop-color="#fff" stop-opacity=".498"/></linearGradient></defs><path style="line-height:normal;font-variant-ligatures:normal;font-variant-position:normal;font-variant-caps:normal;font-variant-numeric:normal;font-variant-alternates:normal;font-feature-settings:normal;text-indent:0;text-align:start;text-decoration-line:none;text-decoration-style:solid;text-decoration-color:#000;text-transform:none;text-orientation:mixed;white-space:normal;shape-padding:0;isolation:auto;mix-blend-mode:normal;solid-color:#000;solid-opacity:1" d="M47.932 3c6.834 0 10.873.448 13.246 2.818C63.55 8.188 64 12.222 64 19.05v19.9c0 6.828-.45 10.862-2.822 13.232C58.805 54.552 54.766 55 47.932 55H23.068c-6.834 0-10.873-.448-13.246-2.818C7.45 49.812 7 45.778 7 38.95v-19.9c0-6.828.45-10.862 2.822-13.232C12.195 3.448 16.234 3 23.068 3z" color="#000" font-weight="400" font-family="sans-serif" overflow="visible" opacity=".2"/><path d="M47.932 2.5C61.553 2.5 63.5 4.44 63.5 18.05v19.9c0 13.608-1.947 15.55-15.568 15.55H23.068C9.447 53.5 7.5 51.558 7.5 37.95v-19.9C7.5 4.441 9.447 2.5 23.068 2.5z" fill="#e7e7e7"/><path style="line-height:normal;font-variant-ligatures:normal;font-variant-position:normal;font-variant-caps:normal;font-variant-numeric:normal;font-variant-alternates:normal;font-feature-settings:normal;text-indent:0;text-align:start;text-decoration-line:none;text-decoration-style:solid;text-decoration-color:#000;text-transform:none;text-orientation:mixed;white-space:normal;shape-padding:0;isolation:auto;mix-blend-mode:normal;solid-color:#000;solid-opacity:1" d="M47.932 3.5H23.068c-6.763 0-10.363.558-12.185 2.379C9.06 7.699 8.5 11.294 8.5 18.05v19.9c0 6.756.56 10.351 2.383 12.171 1.822 1.82 5.422 2.38 12.185 2.38h24.864c6.763 0 10.363-.56 12.185-2.38 1.823-1.82 2.383-5.415 2.383-12.171v-19.9c0-6.756-.56-10.351-2.383-12.171-1.822-1.82-5.422-2.38-12.185-2.38z" color="#000" font-weight="400" font-family="sans-serif" overflow="visible" opacity=".5" fill="none" stroke="url(#b)" stroke-linecap="round" stroke-linejoin="round"/><path d="M47.932 2.5C61.553 2.5 63.5 4.44 63.5 18.05v19.9c0 13.608-1.947 15.55-15.568 15.55H23.068C9.447 53.5 7.5 51.558 7.5 37.95v-19.9C7.5 4.441 9.447 2.5 23.068 2.5z" opacity=".4" fill="none" stroke="#000" stroke-linecap="round" stroke-linejoin="round"/><path d="M16 9h14c1.662 0 3 1.338 3 3v11c0 1.662-1.338 3-3 3H16c-1.662 0-3-1.338-3-3V12c0-1.662 1.338-3 3-3zm0 22h14c1.662 0 3 1.338 3 3v11c0 1.662-1.338 3-3 3H16c-1.662 0-3-1.338-3-3V34c0-1.662 1.338-3 3-3z" opacity=".988" fill="gray"/><path d="M39 43h18c.554 0 1 .446 1 1s-.446 1-1 1H39c-.554 0-1-.446-1-1s.446-1 1-1zm0-5h18c.554 0 1 .446 1 1s-.446 1-1 1H39c-.554 0-1-.446-1-1s.446-1 1-1zm.046-5.008h17.95c.556 0 1.004.448 1.004 1.004S57.552 35 56.996 35h-17.95a1.002 1.002 0 01-1.004-1.004c0-.556.448-1.004 1.004-1.004zM39 21h18c.554 0 1 .446 1 1s-.446 1-1 1H39c-.554 0-1-.446-1-1s.446-1 1-1zm0-5h18c.554 0 1 .446 1 1s-.446 1-1 1H39c-.554 0-1-.446-1-1s.446-1 1-1zm.046-5.008h17.95c.556 0 1.004.448 1.004 1.004S57.552 13 56.996 13h-17.95a1.002 1.002 0 01-1.004-1.004c0-.556.448-1.004 1.004-1.004z" opacity=".988" fill="#8c59d9"/></svg>