<svg xmlns="http://www.w3.org/2000/svg" xmlns:xlink="http://www.w3.org/1999/xlink" height="54" viewBox="0 0 63.75 50.625" width="68"><defs><linearGradient xlink:href="#a" id="b" x1="168" y1="234" x2="168" y2="283" gradientUnits="userSpaceOnUse" gradientTransform="matrix(-.9375 0 0 .9375 189.375 -217.5)"/><linearGradient id="a"><stop style="stop-color:#fff;stop-opacity:1" offset="0"/><stop offset=".125" style="stop-color:#fff;stop-opacity:.09803922"/><stop offset=".925" style="stop-color:#fff;stop-opacity:.09803922"/><stop style="stop-color:#fff;stop-opacity:.49803922" offset="1"/></linearGradient></defs><path style="color:#000;font-style:normal;font-variant:normal;font-weight:400;font-stretch:normal;font-size:medium;line-height:normal;font-family:sans-serif;font-variant-ligatures:normal;font-variant-position:normal;font-variant-caps:normal;font-variant-numeric:normal;font-variant-alternates:normal;font-feature-settings:normal;text-indent:0;text-align:start;text-decoration:none;text-decoration-line:none;text-decoration-style:solid;text-decoration-color:#000;letter-spacing:normal;word-spacing:normal;text-transform:none;writing-mode:lr-tb;direction:ltr;text-orientation:mixed;dominant-baseline:auto;baseline-shift:baseline;text-anchor:start;white-space:normal;shape-padding:0;clip-rule:nonzero;display:inline;overflow:visible;visibility:visible;opacity:.2;isolation:auto;mix-blend-mode:normal;color-interpolation:sRGB;color-interpolation-filters:linearRGB;solid-color:#000;solid-opacity:1;vector-effect:none;fill:#000;fill-opacity:1;fill-rule:nonzero;stroke:none;stroke-width:.9375;stroke-linecap:round;stroke-linejoin:round;stroke-miterlimit:4;stroke-dasharray:none;stroke-dashoffset:0;stroke-opacity:1;color-rendering:auto;image-rendering:auto;shape-rendering:auto;text-rendering:auto;enable-background:accumulate" d="M46.81 1.875c6.408 0 10.195.42 12.42 2.642 2.224 2.222 2.645 6.004 2.645 12.405V34.64c0 6.402-.421 10.184-2.646 12.406-2.224 2.221-6.01 2.642-12.418 2.642H16.939c-6.407 0-10.194-.42-12.418-2.642-2.225-2.222-2.646-6.004-2.646-12.406V16.922c0-6.401.421-10.183 2.646-12.405 2.224-2.222 6.01-2.642 12.418-2.642Z"/><path d="M46.81 1.406c12.771 0 14.596 1.82 14.596 14.579v17.718c0 12.758-1.825 14.579-14.595 14.579H16.939c-12.77 0-14.595-1.82-14.595-14.58V15.986c0-12.759 1.825-14.58 14.595-14.58z" style="display:inline;opacity:1;fill:#e7e7e7;fill-opacity:1;stroke:none;stroke-width:1.875;stroke-linecap:round;stroke-linejoin:round;stroke-miterlimit:4;stroke-dasharray:none;stroke-dashoffset:0;stroke-opacity:1;enable-background:new"/><path style="color:#000;font-style:normal;font-variant:normal;font-weight:400;font-stretch:normal;font-size:medium;line-height:normal;font-family:sans-serif;font-variant-ligatures:normal;font-variant-position:normal;font-variant-caps:normal;font-variant-numeric:normal;font-variant-alternates:normal;font-feature-settings:normal;text-indent:0;text-align:start;text-decoration:none;text-decoration-line:none;text-decoration-style:solid;text-decoration-color:#000;letter-spacing:normal;word-spacing:normal;text-transform:none;writing-mode:lr-tb;direction:ltr;text-orientation:mixed;dominant-baseline:auto;baseline-shift:baseline;text-anchor:start;white-space:normal;shape-padding:0;clip-rule:nonzero;display:inline;overflow:visible;visibility:visible;opacity:.5;isolation:auto;mix-blend-mode:normal;color-interpolation:sRGB;color-interpolation-filters:linearRGB;solid-color:#000;solid-opacity:1;vector-effect:none;fill:none;fill-opacity:1;fill-rule:nonzero;stroke:url(#b);stroke-width:.9375;stroke-linecap:round;stroke-linejoin:round;stroke-miterlimit:4;stroke-dasharray:none;stroke-dashoffset:0;stroke-opacity:1;color-rendering:auto;image-rendering:auto;shape-rendering:auto;text-rendering:auto;enable-background:accumulate" d="M46.81 2.343H16.94c-6.342 0-9.716.524-11.425 2.23C3.807 6.28 3.281 9.65 3.281 15.986v17.718c0 6.334.526 9.705 2.234 11.41 1.709 1.707 5.083 2.231 11.424 2.231h29.872c6.34 0 9.715-.524 11.424-2.23 1.708-1.706 2.234-5.077 2.234-11.411V15.985c0-6.335-.526-9.705-2.234-11.411-1.709-1.707-5.084-2.23-11.424-2.23Z"/><path style="display:inline;opacity:.4;fill:none;fill-opacity:1;stroke:#000;stroke-width:.9375;stroke-linecap:round;stroke-linejoin:round;stroke-miterlimit:4;stroke-dasharray:none;stroke-dashoffset:0;stroke-opacity:1;enable-background:new" d="M46.81 1.406c12.771 0 14.596 1.82 14.596 14.579v17.718c0 12.758-1.825 14.579-14.595 14.579H16.939c-12.77 0-14.595-1.82-14.595-14.58V15.986c0-12.759 1.825-14.58 14.595-14.58z"/><rect style="opacity:.98799995;fill:#8c59d9;fill-opacity:1;fill-rule:nonzero;stroke:none;stroke-width:1.03125;stroke-linecap:butt;stroke-linejoin:round;stroke-miterlimit:4;stroke-dasharray:none;stroke-dashoffset:0;stroke-opacity:1" width="48.75" height="7.5" x="7.5" y="7.5" ry="2.813"/><rect style="opacity:.98799995;fill:gray;fill-opacity:1;fill-rule:nonzero;stroke:none;stroke-width:1.03125;stroke-linecap:butt;stroke-linejoin:round;stroke-miterlimit:4;stroke-dasharray:none;stroke-dashoffset:0;stroke-opacity:1" width="48.75" height="9.375" x="7.5" y="19.688" ry="2.813"/><rect style="opacity:.98799995;fill:gray;fill-opacity:1;fill-rule:nonzero;stroke:none;stroke-width:1.03125;stroke-linecap:butt;stroke-linejoin:round;stroke-miterlimit:4;stroke-dasharray:none;stroke-dashoffset:0;stroke-opacity:1" width="48.75" height="9.375" x="7.5" y="32.813" ry="2.813"/></svg>