<svg xmlns="http://www.w3.org/2000/svg" height="18" width="140"><path d="M0 2h140v14H0z" fill="#1e8bcd" style="fill:#6f8396;fill-opacity:1"/><g fill="#fafafa"><path d="M5 8h2v2H5zM9 8h2v2H9zM13 8h2v2h-2zM17 8h2v2h-2zM21 8h2v2h-2zM25 8h2v2h-2zM29 8h2v2h-2zM33 8h2v2h-2zM37 8h2v2h-2zM41 8h2v2h-2zM45 8h2v2h-2zM49 8h2v2h-2zM53 8h2v2h-2zM57 8h2v2h-2zM61 8h2v2h-2zM65 8h2v2h-2zM69 8h2v2h-2zM73 8h2v2h-2zM77 8h2v2h-2zM81 8h2v2h-2zM85 8h2v2h-2zM89 8h2v2h-2zM93 8h2v2h-2zM97 8h2v2h-2zM101 8h2v2h-2zM105 8h2v2h-2zM109 8h2v2h-2zM113 8h2v2h-2zM117 8h2v2h-2zM121 8h2v2h-2zM125 8h2v2h-2zM129 8h2v2h-2zM133 8h2v2h-2z"/></g></svg>