<svg xmlns="http://www.w3.org/2000/svg" xmlns:xlink="http://www.w3.org/1999/xlink" viewBox="0 0 24 24"><defs><linearGradient id="a"><stop style="stop-color:#151515;stop-opacity:1" offset="0"/><stop style="stop-color:#4d4d4d;stop-opacity:1" offset="1"/></linearGradient><linearGradient xlink:href="#a" id="b" x1="12" y1="4" x2="12" y2="20" gradientUnits="userSpaceOnUse"/></defs><path style="fill:#fff;stroke:#fff;opacity:1;stroke-width:2;stroke-miterlimit:4;stroke-dasharray:none;stroke-linejoin:round" fill="#232629" d="M1.355 4 4.4 9.896c.227.42.46.758.696 1.016.236.258.522.463.857.613a2.81 2.81 0 0 0-1.139.71c-.285.3-.542.687-.77 1.16L1 20h2.572c.335 0 .627-.026.873-.08.247-.054.458-.135.635-.242.187-.118.35-.264.488-.436.138-.182.261-.39.37-.627l1.714-4.302c.158-.387.37-.671.637-.854a1.58 1.58 0 0 1 .916-.275h.961V20h3.639v-6.816h.96c.346 0 .65.092.917.275.276.183.487.462.634.838l1.73 4.334c.218.473.5.821.845 1.047.345.215.841.322 1.492.322H23l-3.06-6.605c-.227-.473-.488-.86-.784-1.16-.286-.312-.66-.548-1.123-.71.335-.15.621-.355.858-.613a5.08 5.08 0 0 0 .693-1.016L22.631 4h-2.957c-.345 0-.662.096-.947.29a2.088 2.088 0 0 0-.665.79l-2.07 4.479c-.148.333-.336.58-.562.742-.227.15-.528.224-.903.224h-.722V4h-3.639v6.525h-.768c-.374 0-.666-.074-.873-.224-.207-.161-.389-.41-.546-.742L5.924 5.063a1.913 1.913 0 0 0-.68-.774A1.585 1.585 0 0 0 4.312 4z"/><path d="M1.355 4 4.4 9.896c.227.42.46.758.696 1.016.236.258.522.463.857.613a2.81 2.81 0 0 0-1.139.71c-.285.3-.542.687-.77 1.16L1 20h2.572c.335 0 .627-.026.873-.08.247-.054.458-.135.635-.242.187-.118.35-.264.488-.436.138-.182.261-.39.37-.627l1.714-4.302c.158-.387.37-.671.637-.854a1.58 1.58 0 0 1 .916-.275H10V20h4v-6.816h.766c.345 0 .65.092.916.275.276.183.487.462.634.838l1.73 4.334c.218.473.5.821.845 1.047.345.215.841.322 1.492.322H23l-3.06-6.605c-.227-.473-.488-.86-.784-1.16-.286-.312-.66-.548-1.123-.71.335-.15.621-.355.858-.613a5.08 5.08 0 0 0 .693-1.016L22.631 4h-2.957c-.345 0-.662.096-.947.29a2.088 2.088 0 0 0-.665.79l-2.07 4.479c-.148.333-.336.58-.562.742-.227.15-.528.224-.903.224H14V4h-4v6.525h-.602c-.374 0-.666-.074-.873-.224-.207-.161-.389-.41-.546-.742L5.924 5.063a1.913 1.913 0 0 0-.68-.774A1.585 1.585 0 0 0 4.313 4Z" fill="#232629" style="fill:url(#b);fill-opacity:1"/></svg>