<?xml version="1.0" encoding="UTF-8" standalone="no"?>
<svg
   viewBox="0 0 24 24"
   version="1.1"
   id="svg6"
   sodipodi:docname="lc_insertneutralparagraph.svg"
   inkscape:version="1.4.2 (ebf0e940d0, 2025-05-08)"
   inkscape:export-filename="/home/jupiter007/Libreoffice yaru theme fullcolor/build/cmd/ar/lc_insertneutralparagraph.png"
   inkscape:export-xdpi="96"
   inkscape:export-ydpi="96"
   xmlns:inkscape="http://www.inkscape.org/namespaces/inkscape"
   xmlns:sodipodi="http://sodipodi.sourceforge.net/DTD/sodipodi-0.dtd"
   xmlns="http://www.w3.org/2000/svg"
   xmlns:svg="http://www.w3.org/2000/svg"
   xmlns:rdf="http://www.w3.org/1999/02/22-rdf-syntax-ns#"
   xmlns:cc="http://creativecommons.org/ns#"
   xmlns:dc="http://purl.org/dc/elements/1.1/">
  <metadata
     id="metadata12">
    <rdf:RDF>
      <cc:Work
         rdf:about="">
        <dc:format>image/svg+xml</dc:format>
        <dc:type
           rdf:resource="http://purl.org/dc/dcmitype/StillImage" />
        <dc:title />
      </cc:Work>
    </rdf:RDF>
  </metadata>
  <defs
     id="defs10" />
  <sodipodi:namedview
     pagecolor="#ffffff"
     bordercolor="#666666"
     borderopacity="1"
     objecttolerance="10"
     gridtolerance="10"
     guidetolerance="10"
     inkscape:pageopacity="0"
     inkscape:pageshadow="2"
     inkscape:window-width="1920"
     inkscape:window-height="1043"
     id="namedview8"
     showgrid="true"
     inkscape:zoom="19.666667"
     inkscape:cx="6.6355931"
     inkscape:cy="13.855932"
     inkscape:window-x="0"
     inkscape:window-y="0"
     inkscape:window-maximized="1"
     inkscape:current-layer="svg6"
     inkscape:document-rotation="0"
     inkscape:showpageshadow="2"
     inkscape:pagecheckerboard="0"
     inkscape:deskcolor="#d1d1d1">
    <inkscape:grid
       type="xygrid"
       id="grid822"
       originx="0"
       originy="0"
       spacingy="1"
       spacingx="1"
       units="px" />
  </sodipodi:namedview>
  <path
     id="rect846"
     style="opacity:1;fill:#00ff00;fill-opacity:1;stroke:none;stroke-width:2;stroke-linecap:round;stroke-linejoin:round;stroke-miterlimit:4;stroke-dasharray:none;stroke-opacity:1"
     d="M 17 4 L 17 5 L 18 5 L 18 7 L 17 7 L 17 8 L 20 8 L 20 7 L 19 7 L 19 5 L 20 5 L 20 4 L 17 4 z M 17 16 L 17 17 L 18 17 L 18 19 L 17 19 L 17 20 L 22 20 L 22 19 L 21 19 L 21 17 L 22 17 L 22 16 L 17 16 z M 19 17 L 20 17 L 20 19 L 19 19 L 19 17 z " />
  <path
     id="rect861"
     style="fill:#0000ff;fill-rule:evenodd;stroke-width:3;stroke-linecap:round;stroke-linejoin:round"
     d="M -1 -4 L -1 -5 L -15 -5 L -15 -4 L -1 -4 z M -5 -6 L -5 -7 L -15 -7 L -15 -6 L -5 -6 z M -1 -10 L -1 -11 L -15 -11 L -15 -10 L -1 -10 z M -5 -12 L -5 -13 L -15 -13 L -15 -12 L -5 -12 z M -1 -16 L -1 -17 L -15 -17 L -15 -16 L -1 -16 z M -5 -18 L -5 -19 L -15 -19 L -15 -18 L -5 -18 z "
     transform="scale(-1)" />
</svg>
