<?xml version="1.0" encoding="UTF-8" standalone="no"?>
<svg
   viewBox="0 0 24 24"
   version="1.1"
   id="svg6"
   sodipodi:docname="lc_jumpdownthislevel.svg"
   inkscape:version="1.4.2 (ebf0e940d0, 2025-05-08)"
   inkscape:export-filename="/home/jupiter007/Libreoffice yaru theme fullcolor/build/cmd/lc_removebullets.png"
   inkscape:export-xdpi="96"
   inkscape:export-ydpi="96"
   xmlns:inkscape="http://www.inkscape.org/namespaces/inkscape"
   xmlns:sodipodi="http://sodipodi.sourceforge.net/DTD/sodipodi-0.dtd"
   xmlns="http://www.w3.org/2000/svg"
   xmlns:svg="http://www.w3.org/2000/svg"
   xmlns:rdf="http://www.w3.org/1999/02/22-rdf-syntax-ns#"
   xmlns:cc="http://creativecommons.org/ns#"
   xmlns:dc="http://purl.org/dc/elements/1.1/">
  <metadata
     id="metadata12">
    <rdf:RDF>
      <cc:Work
         rdf:about="">
        <dc:format>image/svg+xml</dc:format>
        <dc:type
           rdf:resource="http://purl.org/dc/dcmitype/StillImage" />
      </cc:Work>
    </rdf:RDF>
  </metadata>
  <defs
     id="defs10" />
  <sodipodi:namedview
     pagecolor="#ffffff"
     bordercolor="#666666"
     borderopacity="1"
     objecttolerance="10"
     gridtolerance="10"
     guidetolerance="10"
     inkscape:pageopacity="0"
     inkscape:pageshadow="2"
     inkscape:window-width="1920"
     inkscape:window-height="1011"
     id="namedview8"
     showgrid="true"
     inkscape:zoom="22.627416"
     inkscape:cx="10.098369"
     inkscape:cy="14.385204"
     inkscape:window-x="0"
     inkscape:window-y="0"
     inkscape:window-maximized="1"
     inkscape:current-layer="svg6"
     inkscape:document-rotation="0"
     inkscape:pagecheckerboard="0"
     inkscape:showpageshadow="2"
     inkscape:deskcolor="#bfbfbf">
    <inkscape:grid
       type="xygrid"
       id="grid822"
       originx="0"
       originy="0"
       spacingy="1"
       spacingx="1"
       units="px" />
    <inkscape:grid
       type="xygrid"
       id="grid919"
       dotted="true"
       spacingx="0.5"
       spacingy="0.5"
       empspacing="10"
       originx="0"
       originy="0"
       units="px" />
  </sodipodi:namedview>
  <path
     id="rect843-2"
     style="fill:#00ff00;fill-rule:evenodd;stroke-width:3;stroke-linecap:round;stroke-linejoin:round"
     d="M -2 -2 L -2 -3 L -16 -3 L -16 -2 L -2 -2 z M -8 -4 L -8 -5 L -16 -5 L -16 -4 L -8 -4 z M -17 -4 L -17 -5 L -18.994141 -5 C -19.983099 -5.012402 -20.455427 -5.1506945 -20.664062 -5.3613281 C -20.8727 -5.5719618 -21 -6.0371704 -21 -7 L -21 -17 C -21 -17.958333 -20.86435 -18.428619 -20.646484 -18.646484 C -20.524276 -18.768693 -20.322644 -18.864742 -20 -18.925781 L -20 -17 L -17 -19.5 L -20 -22 L -20 -19.945312 C -20.55816 -19.868998 -21.00802 -19.699011 -21.353516 -19.353516 C -21.88565 -18.821381 -22 -18.041667 -22 -17 L -22 -7 C -22 -5.9628296 -21.902875 -5.1911302 -21.375 -4.6582031 C -20.847125 -4.125276 -20.070856 -4.0133553 -19.005859 -4 L -19.003906 -4 L -17 -4 z M -6 -6 L -6 -7 L -16 -7 L -16 -6 L -6 -6 z M -2 -17 L -2 -18 L -16 -18 L -16 -17 L -2 -17 z M -8 -19 L -8 -20 L -16 -20 L -16 -19 L -8 -19 z M -6 -21 L -6 -22 L -16 -22 L -16 -21 L -6 -21 z "
     transform="scale(-1)" />
  <path
     id="rect866"
     style="fill:#0000ff;fill-rule:evenodd;stroke-width:3;stroke-linecap:round;stroke-linejoin:round"
     d="M -2 -9 L -2 -10 L -16 -10 L -16 -9 L -2 -9 z M -8 -11 L -8 -12 L -16 -12 L -16 -11 L -8 -11 z M -6 -13 L -6 -14 L -16 -14 L -16 -13 L -6 -13 z "
     transform="scale(-1)" />
</svg>
