<?xml version="1.0" encoding="UTF-8" standalone="no"?>
<svg
   viewBox="0 0 24 24"
   version="1.1"
   id="svg6"
   sodipodi:docname="lc_romanlowliststyle.svg"
   inkscape:version="1.4.2 (ebf0e940d0, 2025-05-08)"
   inkscape:export-filename="/home/jupiter007/Libreoffice yaru theme fullcolor/build/cmd/lc_romanlowliststyle.png"
   inkscape:export-xdpi="96"
   inkscape:export-ydpi="96"
   xmlns:inkscape="http://www.inkscape.org/namespaces/inkscape"
   xmlns:sodipodi="http://sodipodi.sourceforge.net/DTD/sodipodi-0.dtd"
   xmlns="http://www.w3.org/2000/svg"
   xmlns:svg="http://www.w3.org/2000/svg"
   xmlns:rdf="http://www.w3.org/1999/02/22-rdf-syntax-ns#"
   xmlns:cc="http://creativecommons.org/ns#"
   xmlns:dc="http://purl.org/dc/elements/1.1/">
  <metadata
     id="metadata12">
    <rdf:RDF>
      <cc:Work
         rdf:about="">
        <dc:format>image/svg+xml</dc:format>
        <dc:type
           rdf:resource="http://purl.org/dc/dcmitype/StillImage" />
        <dc:title />
      </cc:Work>
    </rdf:RDF>
  </metadata>
  <defs
     id="defs10" />
  <sodipodi:namedview
     pagecolor="#ffffff"
     bordercolor="#666666"
     borderopacity="1"
     objecttolerance="10"
     gridtolerance="10"
     guidetolerance="10"
     inkscape:pageopacity="0"
     inkscape:pageshadow="2"
     inkscape:window-width="1920"
     inkscape:window-height="1011"
     id="namedview8"
     showgrid="true"
     inkscape:zoom="19.666667"
     inkscape:cx="5.1101694"
     inkscape:cy="14.059322"
     inkscape:window-x="0"
     inkscape:window-y="0"
     inkscape:window-maximized="1"
     inkscape:current-layer="svg6"
     inkscape:document-rotation="0"
     inkscape:showpageshadow="2"
     inkscape:pagecheckerboard="0"
     inkscape:deskcolor="#d1d1d1">
    <inkscape:grid
       type="xygrid"
       id="grid822"
       originx="0"
       originy="0"
       spacingy="1"
       spacingx="1"
       units="px" />
  </sodipodi:namedview>
  <path
     id="rect861"
     style="fill:#0000ff;fill-rule:evenodd;stroke-width:3;stroke-linecap:round;stroke-linejoin:round"
     d="M -2 -4 L -2 -5 L -16 -5 L -16 -4 L -2 -4 z M -6 -6 L -6 -7 L -16 -7 L -16 -6 L -6 -6 z M -2 -10 L -2 -11 L -16 -11 L -16 -10 L -2 -10 z M -6 -12 L -6 -13 L -16 -13 L -16 -12 L -6 -12 z M -2 -16 L -2 -17 L -16 -17 L -16 -16 L -2 -16 z M -6 -18 L -6 -19 L -16 -19 L -16 -18 L -6 -18 z "
     transform="scale(-1)" />
  <path
     id="rect876"
     style="fill:#00ff00;fill-rule:evenodd;stroke:none;stroke-width:2;stroke-linecap:round;stroke-linejoin:round"
     d="M -18 4 L -18 7 L -19 7 L -19 4 L -18 4 z M -18 10 L -18 13 L -19 13 L -19 10 L -18 10 z M -20 10 L -20 13 L -21 13 L -21 10 L -20 10 z M -18 16 L -18 19 L -19 19 L -19 16 L -18 16 z M -20 16 L -20 19 L -21 19 L -21 16 L -20 16 z M -22 16 L -22 19 L -23 19 L -23 16 L -22 16 z "
     transform="scale(-1,1)" />
</svg>
