<?xml version="1.0" encoding="UTF-8" standalone="no"?>
<svg
   viewBox="0 0 16 16"
   version="1.1"
   id="svg6"
   sodipodi:docname="sc_alphaliststyle.svg"
   inkscape:version="1.4.2 (ebf0e940d0, 2025-05-08)"
   inkscape:export-filename="/home/jupiter007/Libreoffice yaru theme fullcolor/build/cmd/ar/sc_alphaliststyle.png"
   inkscape:export-xdpi="96"
   inkscape:export-ydpi="96"
   xmlns:inkscape="http://www.inkscape.org/namespaces/inkscape"
   xmlns:sodipodi="http://sodipodi.sourceforge.net/DTD/sodipodi-0.dtd"
   xmlns="http://www.w3.org/2000/svg"
   xmlns:svg="http://www.w3.org/2000/svg"
   xmlns:rdf="http://www.w3.org/1999/02/22-rdf-syntax-ns#"
   xmlns:cc="http://creativecommons.org/ns#"
   xmlns:dc="http://purl.org/dc/elements/1.1/">
  <metadata
     id="metadata12">
    <rdf:RDF>
      <cc:Work
         rdf:about="">
        <dc:format>image/svg+xml</dc:format>
        <dc:type
           rdf:resource="http://purl.org/dc/dcmitype/StillImage" />
      </cc:Work>
    </rdf:RDF>
  </metadata>
  <defs
     id="defs10" />
  <sodipodi:namedview
     pagecolor="#ffffff"
     bordercolor="#666666"
     borderopacity="1"
     objecttolerance="10"
     gridtolerance="10"
     guidetolerance="10"
     inkscape:pageopacity="0"
     inkscape:pageshadow="2"
     inkscape:window-width="1920"
     inkscape:window-height="1011"
     id="namedview8"
     showgrid="true"
     inkscape:zoom="29.5"
     inkscape:cx="3.9491525"
     inkscape:cy="7.9830508"
     inkscape:window-x="0"
     inkscape:window-y="0"
     inkscape:window-maximized="1"
     inkscape:current-layer="svg6"
     inkscape:document-rotation="0"
     inkscape:showpageshadow="2"
     inkscape:pagecheckerboard="0"
     inkscape:deskcolor="#d1d1d1">
    <inkscape:grid
       type="xygrid"
       id="grid822"
       originx="0"
       originy="0"
       spacingy="1"
       spacingx="1"
       units="px" />
  </sodipodi:namedview>
  <path
     id="path4"
     style="fill:#00ff00;fill-opacity:1"
     d="M 13 2 A 2 2 0 0 0 11 4 A 2 2 0 0 0 13 6 L 14 6 L 14 5 L 13 5 A 1 1 0 0 1 12 4 A 1 1 0 0 1 13 3 L 14 3 L 14 2 L 13 2 z M 11 9 L 11 13 L 12 13 L 13 13 C 14.104569 13 15 12.104569 15 11 C 15 9.895431 14.104569 9 13 9 L 12 9 L 11 9 z M 12 10 L 13 10 C 13.552285 10 14 10.447715 14 11 C 14 11.552285 13.552285 12 13 12 L 12 12 L 12 10 z " />
  <path
     id="rect837"
     style="fill:#0000ff;fill-rule:evenodd;stroke-width:3;stroke-linecap:round;stroke-linejoin:round"
     d="M -1 -2 L -1 -3 L -10 -3 L -10 -2 L -1 -2 z M -5 -4 L -5 -5 L -10 -5 L -10 -4 L -5 -4 z M -3 -6 L -3 -7 L -10 -7 L -10 -6 L -3 -6 z M -1 -9 L -1 -10 L -10 -10 L -10 -9 L -1 -9 z M -5 -11 L -5 -12 L -10 -12 L -10 -11 L -5 -11 z M -3 -13 L -3 -14 L -10 -14 L -10 -13 L -3 -13 z "
     transform="scale(-1)" />
</svg>
