<?xml version="1.0" encoding="UTF-8" standalone="no"?>
<svg
   xmlns:dc="http://purl.org/dc/elements/1.1/"
   xmlns:cc="http://creativecommons.org/ns#"
   xmlns:rdf="http://www.w3.org/1999/02/22-rdf-syntax-ns#"
   xmlns:svg="http://www.w3.org/2000/svg"
   xmlns="http://www.w3.org/2000/svg"
   xmlns:sodipodi="http://sodipodi.sourceforge.net/DTD/sodipodi-0.dtd"
   xmlns:inkscape="http://www.inkscape.org/namespaces/inkscape"
   viewBox="0 0 16 16"
   version="1.1"
   id="svg6"
   sodipodi:docname="sc_chapternumberingdialog.svg"
   inkscape:version="1.0.1 (3bc2e813f5, 2020-09-07)"
   inkscape:export-filename="/home/jupiter007/Libreoffice yaru theme fullcolor/build/cmd/sc_insertmultiindex.png"
   inkscape:export-xdpi="95"
   inkscape:export-ydpi="95">
  <metadata
     id="metadata12">
    <rdf:RDF>
      <cc:Work
         rdf:about="">
        <dc:format>image/svg+xml</dc:format>
        <dc:type
           rdf:resource="http://purl.org/dc/dcmitype/StillImage" />
        <dc:title />
      </cc:Work>
    </rdf:RDF>
  </metadata>
  <defs
     id="defs10" />
  <sodipodi:namedview
     pagecolor="#ffffff"
     bordercolor="#666666"
     borderopacity="1"
     objecttolerance="10"
     gridtolerance="10"
     guidetolerance="10"
     inkscape:pageopacity="0"
     inkscape:pageshadow="2"
     inkscape:window-width="1920"
     inkscape:window-height="1011"
     id="namedview8"
     showgrid="true"
     inkscape:zoom="29.5"
     inkscape:cx="6.5565548"
     inkscape:cy="8.0342482"
     inkscape:window-x="1920"
     inkscape:window-y="32"
     inkscape:window-maximized="1"
     inkscape:current-layer="svg6"
     inkscape:document-rotation="0">
    <inkscape:grid
       type="xygrid"
       id="grid830" />
  </sodipodi:namedview>
  <path
     id="path4237-1"
     style="font-style:normal;font-variant:normal;font-weight:normal;font-stretch:normal;font-size:15px;line-height:125%;font-family:Ubuntu;-inkscape-font-specification:Ubuntu;text-align:center;letter-spacing:0px;word-spacing:0px;writing-mode:lr-tb;text-anchor:middle;display:inline;opacity:0.7;fill:#000000;fill-opacity:1;stroke:none;stroke-width:0.999802"
     d="M 5.9765625 -0.02734375 C 4.7184725 -0.01226365 3.7976919 -0.0557551 3.0449219 0.359375 C 2.6685619 0.5669348 2.3717113 0.91686885 2.2070312 1.3554688 C 2.0423223 1.7940787 1.9824219 2.3150563 1.9824219 2.9726562 L 1.9824219 4.4394531 L 1.9824219 6.5273438 L 2.9238281 6.1367188 C 3.5151151 5.8917999 4.0697757 6.1150728 4.4960938 6.515625 C 4.6315358 6.3886503 4.7142915 6.194877 4.8828125 6.125 C 5.2477985 5.9736576 5.6709956 5.9646514 6.0722656 6.1308594 L 7.1875 6.59375 C 7.773326 6.8364028 8.01185 7.3930647 8.03125 7.9804688 C 8.616098 8.0006428 9.1652971 8.2377908 9.4082031 8.8242188 L 9.8710938 9.9394531 C 10.114866 10.527981 9.8939086 11.084452 9.4941406 11.511719 C 9.8961236 11.940508 10.121819 12.501344 9.8789062 13.087891 L 9.5 14 L 11.986328 14 L 11.988281 14 C 13.246381 13.98493 14.167202 14.028411 14.919922 13.613281 C 15.296281 13.405712 15.593132 13.055798 15.757812 12.617188 C 15.922522 12.178576 15.982422 11.65761 15.982422 11 L 15.982422 4.4609375 L 15.982422 2.9726562 C 15.982422 2.3150562 15.922482 1.7941387 15.757812 1.3554688 C 15.593153 0.91680895 15.296291 0.56508178 14.919922 0.35742188 C 14.167172 -0.057947825 13.246481 -0.01284375 11.988281 -0.02734375 L 11.984375 -0.02734375 L 5.9785156 -0.02734375 L 5.9765625 -0.02734375 z M 4.4355469 11.363281 C 4.3726069 11.389351 4.3221063 11.512539 4.3476562 11.574219 C 4.3737283 11.637159 4.4969038 11.687659 4.5585938 11.662109 C 4.6215338 11.636037 4.6720344 11.512852 4.6464844 11.451172 C 4.6204124 11.388232 4.4972269 11.337731 4.4355469 11.363281 z " />
  <path
     id="path1993"
     style="opacity:1;vector-effect:none;fill:#ffffff;fill-opacity:1;stroke:none;stroke-width:1;stroke-linecap:round;stroke-linejoin:bevel;stroke-miterlimit:4;stroke-dasharray:none;stroke-dashoffset:0;stroke-opacity:1"
     d="M 12 1 C 10.245561 0.9989054 7.4907354 0.99991625 5.7363281 1.0117188 C 5.0366121 1.0492726 4.2794971 0.92269937 3.6113281 1.2167969 C 3.2061811 1.39832 3.0844362 1.8596785 3.0351562 2.2617188 C 3.012337 3.3871296 3.0057831 4.754346 3.0039062 6.1191406 C 3.5646793 5.9258564 4.089332 6.1334471 4.4960938 6.515625 C 4.6315358 6.3886503 4.7142915 6.194877 4.8828125 6.125 C 5.2477985 5.9736576 5.6709956 5.9646514 6.0722656 6.1308594 L 7.1875 6.59375 C 7.773326 6.8364028 8.01185 7.3930647 8.03125 7.9804688 C 8.616098 8.0006428 9.1652971 8.2377908 9.4082031 8.8242188 L 9.8710938 9.9394531 C 10.114866 10.527981 9.8939086 11.084452 9.4941406 11.511719 C 9.8685113 11.911054 10.0738 12.42625 9.90625 12.96875 C 10.274817 12.969086 10.715863 12.972721 11.029297 12.972656 C 12.455154 12.972366 10.880453 12.967738 12.304688 12.960938 C 12.956518 12.929379 13.607778 13.031723 14.240234 12.806641 C 14.736439 12.655641 14.900353 12.104507 14.939453 11.642578 C 14.983943 9.3532261 14.968737 6.0275533 14.960938 3.7304688 C 14.923556 3.0823315 15.033447 2.3833933 14.814453 1.7480469 C 14.675301 1.2444996 14.121385 1.0817305 13.660156 1.0390625 C 12.110205 0.9885355 13.556581 1.010796 12 1 z M 4.4355469 11.363281 C 4.3726069 11.389351 4.3221063 11.512539 4.3476562 11.574219 C 4.3737283 11.637159 4.4969038 11.687659 4.5585938 11.662109 C 4.6215338 11.636037 4.6720344 11.512852 4.6464844 11.451172 C 4.6204124 11.388232 4.4972269 11.337731 4.4355469 11.363281 z " />
  <path
     id="path4"
     style="fill:#00ff00"
     d="M 9 3 L 9 4 L 10 4 L 10 5 L 9 5 L 9 6 L 12 6 L 12 5 L 11 5 L 11 4 L 12 4 L 12 3 L 9 3 z M 9 8 L 9 8.3125 C 9.1676758 8.4420619 9.3151748 8.5996282 9.4082031 8.8242188 L 9.4804688 9 L 10 9 L 10 10 L 9.8847656 10 C 10.012795 10.354278 9.971182 10.693053 9.8300781 11 L 11 11 L 12 11 L 14 11 L 14 10 L 13 10 L 13 9 L 14 9 L 14 8 L 12 8 L 11 8 L 9 8 z M 11 9 L 12 9 L 12 10 L 11 10 L 11 9 z " />
  <rect
     y="2.9999998"
     x="-7.9999995"
     height="1"
     width="4"
     id="rect836"
     style="opacity:1;fill:#232629;fill-opacity:1;stroke:none;stroke-width:1.41421;stroke-linecap:round;stroke-linejoin:round;stroke-miterlimit:4;stroke-dasharray:none;stroke-opacity:1"
     transform="scale(-1,1)" />
  <rect
     style="opacity:1;fill:#232629;fill-opacity:1;stroke:none;stroke-width:1.41421;stroke-linecap:round;stroke-linejoin:round;stroke-miterlimit:4;stroke-dasharray:none;stroke-opacity:1"
     id="rect838"
     width="4"
     height="1"
     x="-7.9999995"
     y="5.0000005"
     transform="scale(-1,1)" />
  <g
     id="g1425"
     transform="translate(-7.0052704)">
    <circle
       style="fill:#ffffff;fill-opacity:1;fill-rule:evenodd;stroke:none;stroke-width:2;stroke-linecap:round;stroke-linejoin:round;stroke-miterlimit:4;stroke-dasharray:none;stroke-opacity:1"
       id="path1328"
       cx="11.5"
       cy="11.5"
       r="1.5" />
    <path
       d="m 9.3111344,7.791575 c -0.13058,0.05409 -0.188804,0.19465 -0.134715,0.325232 l 0.272166,0.657066 c -0.260199,0.195351 -0.471578,0.424352 -0.66202,0.678364 L 8.1128724,9.173184 c -0.130581,-0.05409 -0.274445,0.0055 -0.328533,0.136083 l -0.461881,1.115078 c -0.05409,0.130582 0.0055,0.274445 0.136083,0.328534 l 0.673693,0.279053 c -0.04495,0.314275 -0.05741,0.62567 -0.01156,0.947793 l -0.657066,0.272166 c -0.130581,0.05409 -0.188804,0.19465 -0.134715,0.325232 l 0.462682,1.117013 c 0.05409,0.130581 0.19465,0.188803 0.325231,0.134715 l 0.657067,-0.272166 c 0.195351,0.260198 0.424352,0.471578 0.678363,0.66202 l -0.279053,0.673693 c -0.05409,0.130583 0.0055,0.274445 0.136083,0.328533 l 1.1150786,0.461881 c 0.130582,0.05409 0.274445,-0.0055 0.328533,-0.136083 l 0.279053,-0.673693 c 0.314276,0.04495 0.625672,0.05741 0.947794,0.01156 l 0.272166,0.657067 c 0.05409,0.130582 0.19465,0.188803 0.325231,0.134715 l 1.117013,-0.462682 c 0.130582,-0.05409 0.188804,-0.19465 0.134716,-0.325231 l -0.272166,-0.657067 c 0.260198,-0.19535 0.471577,-0.424351 0.662019,-0.678363 l 0.673694,0.279053 c 0.130583,0.05409 0.274445,-0.0055 0.328533,-0.136083 l 0.461881,-1.115079 c 0.05409,-0.130583 -0.0055,-0.274445 -0.136083,-0.328533 L 14.873035,11.97334 c 0.04495,-0.314276 0.05741,-0.625672 0.01156,-0.947794 l 0.657066,-0.272166 c 0.130582,-0.05409 0.188804,-0.194649 0.134716,-0.325231 L 15.213692,9.311132 C 15.159602,9.18055 15.019042,9.122328 14.88846,9.176417 L 14.231394,9.448582 C 14.036043,9.188383 13.807042,8.977005 13.553031,8.786563 l 0.279053,-0.673694 c 0.05409,-0.130582 -0.0055,-0.274445 -0.136083,-0.328533 L 12.580922,7.322455 c -0.130583,-0.05409 -0.274445,0.0055 -0.328534,0.136083 L 11.973335,8.132232 C 11.65906,8.087282 11.347664,8.074822 11.025542,8.120672 L 10.753376,7.463606 C 10.699286,7.333024 10.558726,7.274802 10.428144,7.32889 Z m 1.7560366,2.659752 c 0.580321,-0.240377 1.246395,0.03552 1.486772,0.615841 0.240377,0.580322 -0.03552,1.246395 -0.615841,1.486772 -0.580321,0.240377 -1.246395,-0.03552 -1.486772,-0.615841 -0.240377,-0.580321 0.03552,-1.246395 0.615841,-1.486772 z"
       display="block"
       fill="url(#d)"
       stroke="url(#e)"
       stroke-linejoin="round"
       stroke-width="0.6"
       id="path42"
       style="fill:#d3d3d3;fill-opacity:1;stroke:#4d4d4d;stroke-opacity:1" />
  </g>
</svg>
