<?xml version="1.0" encoding="UTF-8" standalone="no"?>
<svg
   viewBox="0 0 16 16"
   version="1.1"
   id="svg6"
   sodipodi:docname="sc_removebullets.svg"
   inkscape:version="1.4.2 (ebf0e940d0, 2025-05-08)"
   inkscape:export-filename="/home/jupiter007/Libreoffice yaru theme fullcolor/build/cmd/ar/sc_removebullets.png"
   inkscape:export-xdpi="96"
   inkscape:export-ydpi="96"
   xmlns:inkscape="http://www.inkscape.org/namespaces/inkscape"
   xmlns:sodipodi="http://sodipodi.sourceforge.net/DTD/sodipodi-0.dtd"
   xmlns="http://www.w3.org/2000/svg"
   xmlns:svg="http://www.w3.org/2000/svg"
   xmlns:rdf="http://www.w3.org/1999/02/22-rdf-syntax-ns#"
   xmlns:cc="http://creativecommons.org/ns#"
   xmlns:dc="http://purl.org/dc/elements/1.1/">
  <metadata
     id="metadata12">
    <rdf:RDF>
      <cc:Work
         rdf:about="">
        <dc:format>image/svg+xml</dc:format>
        <dc:type
           rdf:resource="http://purl.org/dc/dcmitype/StillImage" />
        <dc:title />
      </cc:Work>
    </rdf:RDF>
  </metadata>
  <defs
     id="defs10" />
  <sodipodi:namedview
     pagecolor="#ffffff"
     bordercolor="#666666"
     borderopacity="1"
     objecttolerance="10"
     gridtolerance="10"
     guidetolerance="10"
     inkscape:pageopacity="0"
     inkscape:pageshadow="2"
     inkscape:window-width="1920"
     inkscape:window-height="1011"
     id="namedview8"
     showgrid="true"
     inkscape:zoom="41.7193"
     inkscape:cx="10.318965"
     inkscape:cy="8.0178718"
     inkscape:window-x="0"
     inkscape:window-y="0"
     inkscape:window-maximized="1"
     inkscape:current-layer="svg6"
     inkscape:document-rotation="0"
     inkscape:pagecheckerboard="0"
     inkscape:showpageshadow="2"
     inkscape:deskcolor="#d1d1d1">
    <inkscape:grid
       type="xygrid"
       id="grid822"
       originx="0"
       originy="0"
       spacingy="1"
       spacingx="1"
       units="px" />
  </sodipodi:namedview>
  <path
     id="rect837"
     style="fill:#0000ff;fill-rule:evenodd;stroke-width:3;stroke-linecap:round;stroke-linejoin:round"
     d="M -1 -2 L -1 -3 L -10 -3 L -10 -2 L -1 -2 z M -5 -4 L -5 -5 L -10 -5 L -10 -4 L -5 -4 z M -3 -6 L -3 -7 L -10 -7 L -10 -6 L -3 -6 z M -1 -9 L -1 -10 L -10 -10 L -10 -9 L -1 -9 z M -5 -11 L -5 -12 L -10 -12 L -10 -11 L -5 -11 z M -3 -13 L -3 -14 L -10 -14 L -10 -13 L -3 -13 z "
     transform="scale(-1)" />
  <path
     id="path2644"
     style="vector-effect:none;fill:#c7162b;fill-opacity:1;stroke:none;stroke-width:3.5;stroke-linecap:butt;stroke-linejoin:round;stroke-miterlimit:4;stroke-dasharray:none;stroke-dashoffset:0;stroke-opacity:1"
     d="M -13.5 2 A 2.5 2.5 0 0 1 -11 4.5 A 2.5 2.5 0 0 1 -13.5 7 A 2.5 2.5 0 0 1 -16 4.5 A 2.5 2.5 0 0 1 -13.5 2 z M -13.5 9 A 2.5 2.5 0 0 1 -11 11.5 A 2.5 2.5 0 0 1 -13.5 14 A 2.5 2.5 0 0 1 -16 11.5 A 2.5 2.5 0 0 1 -13.5 9 z "
     transform="scale(-1,1)" />
  <path
     id="path1090"
     style="baseline-shift:baseline;display:inline;overflow:visible;vector-effect:none;fill:#ffffff;enable-background:accumulate;stop-color:#000000;stop-opacity:1;opacity:1"
     d="M 12.353516 2.6464844 L 11.646484 3.3535156 L 12.792969 4.5 L 11.646484 5.6464844 L 12.353516 6.3535156 L 13.5 5.2070312 L 14.646484 6.3535156 L 15.353516 5.6464844 L 14.207031 4.5 L 15.353516 3.3535156 L 14.646484 2.6464844 L 13.5 3.7929688 L 12.353516 2.6464844 z M 12.353516 9.6464844 L 11.646484 10.353516 L 12.792969 11.5 L 11.646484 12.646484 L 12.353516 13.353516 L 13.5 12.207031 L 14.646484 13.353516 L 15.353516 12.646484 L 14.207031 11.5 L 15.353516 10.353516 L 14.646484 9.6464844 L 13.5 10.792969 L 12.353516 9.6464844 z " />
</svg>
