<svg xmlns="http://www.w3.org/2000/svg" xmlns:xlink="http://www.w3.org/1999/xlink" viewBox="0 0 24 24"><defs><linearGradient id="a"><stop style="stop-color:#151515;stop-opacity:1" offset="0"/><stop style="stop-color:#4d4d4d;stop-opacity:1" offset="1"/></linearGradient><linearGradient xlink:href="#a" id="b" x1="12" y1="3" x2="12" y2="22" gradientUnits="userSpaceOnUse"/></defs><path style="fill:#fff;fill-opacity:1;stroke:#fff;opacity:1;stroke-width:2;stroke-miterlimit:4;stroke-dasharray:none;stroke-linejoin:round" d="M6 3 4.5 5 7 7v7c0 2.77 2.23 5 5 5s5-2.23 5-5V7l-3-2h3V3h-4l-1.5 2L14 7v7c0 1.108-.892 2-2 2s-2.157-.903-2-2V7L7 5h3V3z"/><path style="opacity:1;fill:#000;stroke:#fff;stroke-width:2;stroke-linejoin:round;stroke-miterlimit:4;stroke-dasharray:none" d="M5 21v1h14v-1z"/><path style="fill:url(#b);fill-opacity:1" d="M6 3 4.5 5 7 7v7c0 2.77 2.23 5 5 5s5-2.23 5-5V7l-3-2h3V3h-4l-1.5 2L14 7v7c0 1.108-.892 2-2 2s-2.157-.903-2-2V7L7 5h3V3H6zM5 21v1h14v-1H5z"/></svg>