<?xml version="1.0" encoding="UTF-8" standalone="no"?>
<svg
   viewBox="0 0 24 24"
   version="1.1"
   id="svg8"
   sodipodi:docname="documentsizeA4_24x24.svg"
   inkscape:version="1.1 (ce6663b3b7, 2021-05-25)"
   xmlns:inkscape="http://www.inkscape.org/namespaces/inkscape"
   xmlns:sodipodi="http://sodipodi.sourceforge.net/DTD/sodipodi-0.dtd"
   xmlns="http://www.w3.org/2000/svg"
   xmlns:svg="http://www.w3.org/2000/svg">
  <defs
     id="defs12" />
  <sodipodi:namedview
     id="namedview10"
     pagecolor="#ffffff"
     bordercolor="#666666"
     borderopacity="1.0"
     inkscape:pageshadow="2"
     inkscape:pageopacity="0.0"
     inkscape:pagecheckerboard="0"
     showgrid="false"
     inkscape:zoom="9.3333333"
     inkscape:cx="-16.232143"
     inkscape:cy="10.232143"
     inkscape:window-width="1920"
     inkscape:window-height="1016"
     inkscape:window-x="0"
     inkscape:window-y="27"
     inkscape:window-maximized="1"
     inkscape:current-layer="svg8" />
  <path
     sodipodi:nodetypes="cccccccccc"
     style="opacity:0.7;fill:#000000;stroke:#000000;stroke-width:2;stroke-linejoin:round;stroke-miterlimit:4;stroke-dasharray:none"
     id="path829"
     d="m 4,7.9999998 c 0,-2 0,-2.9999997 2,-2.9999997 h 12 c 2,0 2,0.9999997 2,2.9999997 v 8.0000002 c 0,2 0,3 -2,3 h -3.40625 -8.59375 c -2,0 -2,-1 -2,-3 z"
     inkscape:connector-curvature="0" />
  <path
     inkscape:connector-curvature="0"
     d="m 4,7.9999998 c 0,-2 0,-2.9999997 2,-2.9999997 h 12 c 2,0 2,0.9999997 2,2.9999997 v 8.0000002 c 0,2 0,3 -2,3 h -3.40625 -8.59375 c -2,0 -2,-1 -2,-3 z"
     id="path2-3"
     style="fill:#ffffff"
     sodipodi:nodetypes="cccccccccc" />
  <g
     aria-label="A4"
     id="text2890"
     style="font-size:10.6667px;line-height:1.25;letter-spacing:0px;word-spacing:0px">
    <path
       d="m 11.493341,15.701346 q -0.181334,-0.480001 -0.341334,-0.938669 -0.160001,-0.469335 -0.330668,-0.949337 h -3.3493436 l -0.6720022,1.888006 h -1.0773367 q 0.426668,-1.173337 0.8000025,-2.16534 0.3733345,-1.00267 0.7253357,-1.898672 0.3626678,-0.896003 0.7146689,-1.7066725 0.3520011,-0.8213359 0.7360023,-1.6213385 h 0.9493363 q 0.3840008,0.8000026 0.7360028,1.6213385 0.352001,0.8106695 0.704002,1.7066725 0.362668,0.896002 0.736002,1.898672 0.373335,0.992003 0.800003,2.16534 z m -0.970669,-2.741342 q -0.341335,-0.928003 -0.6826692,-1.792005 -0.3306677,-0.87467 -0.6933355,-1.6746722 -0.3733345,0.8000022 -0.7146689,1.6746722 -0.3306677,0.864002 -0.6613354,1.792005 z"
       style="font-family:Ubuntu;-inkscape-font-specification:Ubuntu"
       id="path2001" />
    <path
       d="m 13.135994,13.141338 q 0.202668,-0.469335 0.554669,-1.088003 0.352001,-0.629335 0.789336,-1.290671 0.448001,-0.661335 0.949336,-1.3013373 0.512001,-0.640002 1.024003,-1.1520037 h 0.949336 v 4.693348 h 0.87467 v 0.810669 h -0.87467 v 1.888006 h -0.960003 v -1.888006 h -3.306677 z m 3.306677,-3.6586779 q -0.320001,0.3413344 -0.650668,0.7680029 -0.320001,0.416001 -0.629336,0.874669 -0.309334,0.458668 -0.586668,0.93867 -0.266668,0.480001 -0.480002,0.938669 h 2.346674 z"
       style="font-family:Ubuntu;-inkscape-font-specification:Ubuntu"
       id="path2003" />
  </g>
</svg>
