<?xml version="1.0" encoding="UTF-8" standalone="no"?>
<svg
   viewBox="0 0 24 24"
   version="1.1"
   id="svg12"
   sodipodi:docname="documentsize_L_copy_24x24.svg"
   inkscape:version="1.1 (ce6663b3b7, 2021-05-25)"
   xmlns:inkscape="http://www.inkscape.org/namespaces/inkscape"
   xmlns:sodipodi="http://sodipodi.sourceforge.net/DTD/sodipodi-0.dtd"
   xmlns="http://www.w3.org/2000/svg"
   xmlns:svg="http://www.w3.org/2000/svg">
  <defs
     id="defs16" />
  <sodipodi:namedview
     id="namedview14"
     pagecolor="#ffffff"
     bordercolor="#666666"
     borderopacity="1.0"
     inkscape:pageshadow="2"
     inkscape:pageopacity="0.0"
     inkscape:pagecheckerboard="0"
     showgrid="false"
     inkscape:zoom="37.333333"
     inkscape:cx="11.986607"
     inkscape:cy="11.986607"
     inkscape:window-width="1920"
     inkscape:window-height="1016"
     inkscape:window-x="0"
     inkscape:window-y="27"
     inkscape:window-maximized="1"
     inkscape:current-layer="svg12" />
  <path
     id="path829"
     style="color:#000000;opacity:0.7;fill:#000000;stroke-linejoin:round;-inkscape-stroke:none"
     d="m 3.9999995,5.9980475 c 0,-0.583443 0.06473,-1.092787 0.273437,-1.5625 0.208706,-0.469714 0.600393,-0.867523 1.029297,-1.082031 0.857808,-0.429018 1.697266,-0.355469 2.697265,-0.355469 h 8.0000005 c 0.388808,0 0.752731,-0.0097 1.103516,0.002 h -1.103516 v 1.998047 h -8.0000005 c -0.999999,0 -1.660543,0.07342 -1.802734,0.144531 -0.07109,0.03556 -0.05441,0.01253 -0.0957,0.105469 -0.04129,0.09294 -0.101562,0.333179 -0.101562,0.75 v 11.0019525 h -2 z m 2,12.0039055 c 0,0.416821 0.06027,0.657065 0.101562,0.75 0.04129,0.09294 0.02461,0.06991 0.0957,0.105469 0.1363,0.06816 0.758139,0.136871 1.689453,0.142578 h -1.886719 z m 0.896485,2.998047 h 1.103514 v -1.998047 h 8.0000005 c 0.999999,0 1.660543,-0.07342 1.802734,-0.144531 0.0711,-0.03556 0.05441,-0.01253 0.0957,-0.105469 0.04129,-0.09294 0.101562,-0.333179 0.101562,-0.75 v -3.408203 -7.5937495 h 2 v 7.5937495 3.408203 c 0,0.583444 -0.06473,1.092786 -0.273438,1.5625 -0.208705,0.469714 -0.600392,0.867522 -1.029296,1.082031 -0.857808,0.429018 -1.697267,0.355469 -2.697266,0.355469 h -7.9999995 c -0.388808,0 -0.752731,0.0097 -1.103515,-0.002 z m 9.2167955,-15.9999995 h 1.886719 v 0.998047 c 0,-0.416821 -0.06027,-0.657065 -0.101562,-0.75 -0.04129,-0.09293 -0.02461,-0.06991 -0.0957,-0.105469 -0.1363,-0.06817 -0.758138,-0.136871 -1.689453,-0.142578 z" />
  <path
     id="path2-3"
     style="fill:#ffffff;stroke-width:1"
     d="m 4.9999995,5.9980475 c 0,-2.000529 1,-2 2.999999,-2 h 8.0000005 v 1.001953 h 2 v 2 h 1 v 7.5937495 3.408203 c 0,2.000531 -1,2 -3,2 h -8.0000005 v -1.001953 h -1.999999 v -2 h -1 z" />
  <path
     id="rect1034"
     style="fill:#e95420;fill-opacity:1;fill-rule:evenodd;stroke-width:2;stroke-linecap:round;stroke-linejoin:round"
     d="m 1.9999995,20 h 2 v -2 h 1 v 2 h 1.999999 v 1 h -1.999999 v 2 h -1 v -2 h -2 z" />
  <path
     id="path1201"
     style="fill:#e95420;fill-opacity:1;fill-rule:evenodd;stroke-width:2;stroke-linecap:round;stroke-linejoin:round"
     d="m 16.999999,3.0000005 h 2 v -2 h 1 v 2 h 2 v 1 h -2 v 2 h -1 v -2 h -2 z" />
</svg>
