<?xml version="1.0" encoding="UTF-8" standalone="no"?>
<svg
   viewBox="0 0 24 24"
   version="1.1"
   id="svg832"
   sodipodi:docname="documentsize_L_B4_24x24.svg"
   inkscape:version="1.1 (ce6663b3b7, 2021-05-25)"
   xmlns:inkscape="http://www.inkscape.org/namespaces/inkscape"
   xmlns:sodipodi="http://sodipodi.sourceforge.net/DTD/sodipodi-0.dtd"
   xmlns="http://www.w3.org/2000/svg"
   xmlns:svg="http://www.w3.org/2000/svg">
  <defs
     id="defs836" />
  <sodipodi:namedview
     id="namedview834"
     pagecolor="#ffffff"
     bordercolor="#666666"
     borderopacity="1.0"
     inkscape:pageshadow="2"
     inkscape:pageopacity="0.0"
     inkscape:pagecheckerboard="0"
     showgrid="false"
     inkscape:zoom="37.333333"
     inkscape:cx="13.165179"
     inkscape:cy="11.544643"
     inkscape:window-width="1920"
     inkscape:window-height="1043"
     inkscape:window-x="1920"
     inkscape:window-y="0"
     inkscape:window-maximized="1"
     inkscape:current-layer="svg832" />
  <path
     sodipodi:nodetypes="cccccccccc"
     style="opacity:0.7;fill:#000000;stroke:#000000;stroke-width:2;stroke-linejoin:round;stroke-miterlimit:4;stroke-dasharray:none"
     id="path829"
     d="m 16,3.9978821 c 2,0 3,0 3,2.000529 v 12.0031759 c 0,2.000531 -1,2.000531 -3,2.000531 h -7.9999999 c -2,0 -3,0 -3,-2.000531 v -3.40715 -8.5960259 c 0,-2.000529 1,-2.000529 3,-2.000529 z"
     inkscape:connector-curvature="0" />
  <path
     inkscape:connector-curvature="0"
     d="m 16,3.9978821 c 2,0 3,0 3,2.000529 v 12.0031759 c 0,2.000531 -1,2.000531 -3,2.000531 h -7.9999999 c -2,0 -3,0 -3,-2.000531 v -3.40715 -8.5960259 c 0,-2.000529 1,-2.000529 3,-2.000529 z"
     id="path2-3"
     style="fill:#ffffff;stroke-width:1"
     sodipodi:nodetypes="cccccccccc" />
  <g
     aria-label="B4"
     transform="scale(1.0001324,0.99986762)"
     id="text2890"
     style="font-size:10.6681px;line-height:1.25;letter-spacing:0px;word-spacing:0px">
    <path
       d="m 8.2381084,15.767428 q -0.2240301,0 -0.4907326,-0.01067 -0.2560345,-0.01067 -0.522737,-0.032 -0.2560344,-0.02134 -0.5120688,-0.05334 -0.2560344,-0.032 -0.4693964,-0.08534 v -7.1689639 q 0.213362,-0.053341 0.4693964,-0.085345 0.2560344,-0.032004 0.5120688,-0.05334 0.2667025,-0.021336 0.522737,-0.032004 0.2560344,-0.010668 0.4800645,-0.010668 0.640086,0 1.1948272,0.096013 0.5654093,0.096013 0.9707975,0.3307111 0.416056,0.2240302 0.650754,0.5974137 0.234698,0.3733835 0.234698,0.9174571 0,0.608081 -0.288039,1.002801 -0.288038,0.384052 -0.768103,0.576078 0.650754,0.192025 1.034806,0.608081 0.384051,0.416056 0.384051,1.173491 0,1.109483 -0.821443,1.674892 -0.810776,0.554741 -2.5816806,0.554741 z m -0.9707972,-3.509805 v 2.603017 q 0.1173491,0.01067 0.2773706,0.02134 0.1386854,0.01067 0.3200431,0.02134 0.1920258,0 0.4373921,0 0.4587283,0 0.8641161,-0.05334 0.4160559,-0.06401 0.7254308,-0.213362 0.3093751,-0.149354 0.4907331,-0.416056 0.192025,-0.266703 0.192025,-0.672091 0,-0.362715 -0.138685,-0.608081 -0.138685,-0.256035 -0.405388,-0.405388 -0.2560342,-0.149354 -0.6187496,-0.213362 -0.3627154,-0.06401 -0.8107756,-0.06401 z m 0,-0.832112 h 1.0881463 q 0.3840516,0 0.7254308,-0.05334 0.3413792,-0.05334 0.5867455,-0.192026 0.2560344,-0.138685 0.3947202,-0.362715 0.149353,-0.22403 0.149353,-0.56541 0,-0.3200426 -0.149353,-0.5334046 -0.1493539,-0.2240301 -0.4160564,-0.3520473 -0.2560344,-0.1386853 -0.6080817,-0.2026939 -0.3520473,-0.064009 -0.746767,-0.064009 -0.3947197,0 -0.6187498,0.010668 -0.2240302,0.010668 -0.4053879,0.032004 z"
       style="font-family:Ubuntu;-inkscape-font-specification:Ubuntu"
       id="path3407" />
    <path
       d="m 12.612026,13.143076 q 0.202694,-0.469397 0.554741,-1.088147 0.352047,-0.629418 0.789439,-1.29084 0.448061,-0.661422 0.949461,-1.301508 0.512069,-0.640086 1.024138,-1.1521549 h 0.949461 v 4.6939639 h 0.874784 v 0.810776 h -0.874784 v 1.888254 h -0.960129 v -1.888254 h -3.307111 z m 3.307111,-3.6591588 q -0.320043,0.3413792 -0.650754,0.7681028 -0.320043,0.416056 -0.629418,0.874785 -0.309375,0.458728 -0.586746,0.938792 -0.266702,0.480065 -0.480064,0.938793 h 2.346982 z"
       style="font-family:Ubuntu;-inkscape-font-specification:Ubuntu"
       id="path3409" />
  </g>
</svg>
