<svg xmlns="http://www.w3.org/2000/svg" viewBox="0 0 32 32"><path style="fill:#C88800;fill-opacity:1" d="M25.5 4a2.5 2.5 0 1 0 0 5 2.5 2.5 0 0 0 1.5-.504V9h1V4h-1v.502A2.5 2.5 0 0 0 25.5 4zm0 1a1.5 1.5 0 1 1 0 3 1.5 1.5 0 0 1 0-3zM23 11v7h1v-.502A2.5 2.5 0 1 0 25.5 13a2.5 2.5 0 0 0-1.5.504V11zm2.5 3a1.5 1.5 0 1 1 0 3 1.5 1.5 0 0 1 0-3z"/><path style="fill:#fff;fill-rule:evenodd;stroke-width:3;stroke-linecap:round;stroke-linejoin:round" transform="scale(-1)" d="M-19-8h12v1h-12z"/><path style="fill:#232629;fill-rule:evenodd;stroke-width:3;stroke-linecap:round;stroke-linejoin:round" transform="scale(-1)" d="M-19-7h12v1h-12z"/><path style="fill:#fff;fill-rule:evenodd;stroke-width:3;stroke-linecap:round;stroke-linejoin:round" transform="scale(-1)" d="M-19-6h16v1h-16z"/><path style="fill:#232629;fill-rule:evenodd;stroke-width:3;stroke-linecap:round;stroke-linejoin:round" transform="scale(-1)" d="M-19-5h16v1h-16z"/><path style="fill:#fff;fill-rule:evenodd;stroke-width:3;stroke-linecap:round;stroke-linejoin:round" transform="scale(-1)" d="M-19-10h14v1h-14z"/><path style="fill:#232629;fill-rule:evenodd;stroke-width:3;stroke-linecap:round;stroke-linejoin:round" transform="scale(-1)" d="M-19-9h14v1h-14z"/><path style="fill:#fff;fill-rule:evenodd;stroke-width:3;stroke-linecap:round;stroke-linejoin:round" transform="scale(-1)" d="M-19-17h12v1h-12z"/><path style="fill:#232629;fill-rule:evenodd;stroke-width:3;stroke-linecap:round;stroke-linejoin:round" transform="scale(-1)" d="M-19-16h12v1h-12z"/><path style="fill:#fff;fill-rule:evenodd;stroke-width:3;stroke-linecap:round;stroke-linejoin:round" transform="scale(-1)" d="M-19-15h16v1h-16z"/><path style="fill:#232629;fill-rule:evenodd;stroke-width:3;stroke-linecap:round;stroke-linejoin:round" transform="scale(-1)" d="M-19-14h16v1h-16z"/><path style="fill:#fff;fill-rule:evenodd;stroke-width:3;stroke-linecap:round;stroke-linejoin:round" transform="scale(-1)" d="M-19-19h14v1h-14z"/><path style="fill:#232629;fill-rule:evenodd;stroke-width:3;stroke-linecap:round;stroke-linejoin:round" transform="scale(-1)" d="M-19-18h14v1h-14z"/><path style="fill:#fff;fill-rule:evenodd;stroke-width:3;stroke-linecap:round;stroke-linejoin:round" transform="scale(-1)" d="M-19-26h12v1h-12z"/><path style="fill:#232629;fill-rule:evenodd;stroke-width:3;stroke-linecap:round;stroke-linejoin:round" transform="scale(-1)" d="M-19-25h12v1h-12z"/><path style="fill:#fff;fill-rule:evenodd;stroke-width:3;stroke-linecap:round;stroke-linejoin:round" transform="scale(-1)" d="M-19-24h16v1h-16z"/><path style="fill:#232629;fill-rule:evenodd;stroke-width:3;stroke-linecap:round;stroke-linejoin:round" transform="scale(-1)" d="M-19-23h16v1h-16z"/><path style="fill:#fff;fill-rule:evenodd;stroke-width:3;stroke-linecap:round;stroke-linejoin:round" transform="scale(-1)" d="M-19-28h14v1h-14z"/><path style="fill:#232629;fill-rule:evenodd;stroke-width:3;stroke-linecap:round;stroke-linejoin:round" transform="scale(-1)" d="M-19-27h14v1h-14z"/><path style="fill:#C88800;fill-opacity:1" d="M25.5 22a2.5 2.5 0 1 0 0 5 2.5 2.5 0 0 0 1.5-.504V26h-1.47v-.004c-.01 0-.02.004-.03.004a1.5 1.5 0 0 1 0-3c.01 0 .02.004.03.004V23H27v-.498A2.5 2.5 0 0 0 25.5 22z"/></svg>