<svg height="52" width="60" xmlns:xlink="http://www.w3.org/1999/xlink" xmlns="http://www.w3.org/2000/svg"><linearGradient id="a"><stop offset="0" stop-color="#e95420"/><stop offset="1" stop-color="#fe865c"/></linearGradient><linearGradient id="c" gradientTransform="matrix(0 -.88889 -1.5 0 1576.543 44.667)" gradientUnits="userSpaceOnUse" x1="16.5" x2="16.5" xlink:href="#a" y1="1046.362" y2="1014.362"/><linearGradient id="d" gradientTransform="matrix(0 -.88889 -1.2 0 1262.634 82)" gradientUnits="userSpaceOnUse" x1="49.5" x2="49.5" xlink:href="#b" y1="1046.362" y2="1006.362"/><linearGradient id="b"><stop offset="0" stop-color="#77216f"/><stop offset="1" stop-color="#a25f9e"/></linearGradient><linearGradient id="e" gradientTransform="matrix(0 -.88889 -1.33333 0 1402.15 24.667)" gradientUnits="userSpaceOnUse" x1="16.5" x2="16.5" xlink:href="#a" y1="1046.362" y2="1010.362"/><linearGradient id="f" gradientTransform="matrix(0 -.88889 -1 0 1053.362 62)" gradientUnits="userSpaceOnUse" x1="49.5" x2="49.5" xlink:href="#b" y1="1046.362" y2="998.362"/><path d="M0 0h60v52H0z" fill="#fff"/><path d="M34 34v-8H7v8z" fill="url(#c)" style="fill:#c88800;fill-opacity:1"/><path d="M43 42v-8H7v8z" fill="url(#d)" style="fill:#c88800;fill-opacity:1"/><path d="M31 14V6H7v8z" fill="url(#e)" style="fill:#c88800;fill-opacity:1"/><path d="M37 22v-8H7v8z" fill="url(#f)" style="fill:#c88800;fill-opacity:1"/><path d="M3 45h52v1H3z" fill="#232629"/><path d="M6 3h1v46H6z" fill="#232629"/><g fill="#fff"><path d="M10 34a2 2 0 0 0-2 2 2 2 0 0 0 2 2 2 2 0 0 0 2-2 2 2 0 0 0-2-2zm0 1a1 1 0 0 1 1 1 1 1 0 0 1-1 1 1 1 0 0 1-1-1 1 1 0 0 1 1-1zM14 38a2 2 0 0 0-2 2 2 2 0 0 0 2 2 2 2 0 0 0 2-2 2 2 0 0 0-2-2zm0 1a1 1 0 0 1 1 1 1 1 0 0 1-1 1 1 1 0 0 1-1-1 1 1 0 0 1 1-1z"/><path d="m14.6 33.7-6 8 .8.6 6-8z" fill-rule="evenodd"/></g><path d="M34 34v-8H7v8z" fill="url(#c)" style="fill:#fff;fill-opacity:1;opacity:.4"/><path d="M31 14V6H7v8z" fill="url(#e)" style="fill:#fff;fill-opacity:1;opacity:.4"/></svg>