<svg height="52" width="60" xmlns="http://www.w3.org/2000/svg"><radialGradient id="a" cx="30" cy="1026.362" gradientTransform="matrix(1 0 0 .92672 0 -926.835)" gradientUnits="userSpaceOnUse" r="23"><stop offset="0" stop-color="#77216f"/><stop offset="1" stop-color="#a25f9e"/></radialGradient><radialGradient id="b" cx="30" cy="21.246" gradientTransform="matrix(-1.41504 0 0 -1.31135 72.451 52.176)" gradientUnits="userSpaceOnUse" r="16.254"><stop offset="0" stop-color="#e95420"/><stop offset="1" stop-color="#fe865c"/></radialGradient><path d="M0 0h60v52H0z" fill="#fff"/><path d="M7.031 25.363c-.011.213-.025.426-.03.639A22.877 22.877 0 0 0 13 41.455V38.62c-3.59-3.653-5.696-8.34-5.969-13.256zM13 41.455h.004l16.22-14.963.708-.635.707.635 16.367 14.944c.44-.444.702-.82 1.098-1.293a23.004 23.004 0 0 0 4.814-12.524c.004-.157.013-.314.014-.472 0-.332-.01-.66-.026-.987-.447 4.619-2.513 8.992-5.906 12.444v2.822L30.64 26.488l-.707-.634-.707.634-16.221 14.963H13z" fill="#987197" style="fill:#c88800;fill-opacity:1"/><path d="M14.5 40v2.934A23 23 0 0 0 30 49a23 23 0 0 0 15.5-6.055V40z" fill="#fe865c" style="fill:#c88800;fill-opacity:1"/><path d="M30 3C17.297 3 7 12.543 7 24.315c.012 5.327 2.177 10.458 6.068 14.38l16.225-15.036.707-.635.707.635 16.219 15.03c3.892-3.92 6.059-9.048 6.074-14.374C53 12.543 42.703 3 30 3z" fill="url(#a)" style="fill:#c88800;fill-opacity:1"/><path d="M14.5 40v2.934A23 23 0 0 0 30 49a23 23 0 0 0 15.5-6.055V40z" fill="#fe865c" style="fill:#fff;fill-opacity:1;opacity:.6"/><path d="M30 25.625 14.488 40A23 21.315 0 0 0 30 45.63a23 21.315 0 0 0 15.518-5.625z" fill="url(#b)" fill-rule="evenodd" style="fill:#c88800;fill-opacity:1"/><path d="m30 23.025-.707.635-16.225 15.035c-.024-.024-.044-.052-.068-.076v2.836h.004l16.22-14.963.708-.634.707.634L47 41.43v-2.826c-.026.027-.048.056-.074.082L30.707 23.66z" fill="#945c93" style="fill:#c88800;fill-opacity:1"/><path d="M30 25.625 14.488 40A23 21.315 0 0 0 30 45.63a23 21.315 0 0 0 15.518-5.625z" fill="url(#b)" fill-rule="evenodd" style="fill:#fff;fill-opacity:1;opacity:.4"/><path d="M7.031 25.363c-.011.213-.025.426-.03.639A22.877 22.877 0 0 0 13 41.455V38.62c-3.59-3.653-5.696-8.34-5.969-13.256zM13 41.455h.004l16.22-14.963.708-.635.707.635 16.367 14.944c.44-.444.702-.82 1.098-1.293a23.004 23.004 0 0 0 4.814-12.524c.004-.157.013-.314.014-.472 0-.332-.01-.66-.026-.987-.447 4.619-2.513 8.992-5.906 12.444v2.822L30.64 26.488l-.707-.634-.707.634-16.221 14.963H13z" fill="#987197" style="fill:#fff;fill-opacity:1;opacity:.3"/><path d="m30 23.025-.707.635-16.225 15.035c-.024-.024-.044-.052-.068-.076v2.836h.004l16.22-14.963.708-.634.707.634L47 41.43v-2.826c-.026.027-.048.056-.074.082L30.707 23.66z" fill="#945c93" style="fill:#fff;fill-opacity:1;opacity:.2"/></svg>