<svg height="52" width="60" xmlns="http://www.w3.org/2000/svg"><path d="M0 0h60v52H0z" fill="#fff"/><path d="M28.324 11.898 11.098 35.202l.804.596 16.774-22.695 20.103 7.658-8.715 15.494.872.49L50.22 20.24z" fill="#77216f" fill-rule="evenodd" style="fill:#C88800"/><path d="M3 45h52v1H3z" fill="#232629"/><path d="M6 3h1v46H6z" fill="#232629"/><g fill="#e95420" style="fill:#C88800"><path d="m20.09 1008.578-9.324 13.465 23.675 12.351 15.188-4.048-.258-.967-14.812 3.95-22.327-11.65 8.678-12.533z" fill-rule="evenodd" style="fill:#C88800" transform="translate(0 -1000.362)"/><path d="M48 1029.362h1v1h-1zM49 1028.362h1v1h-1zM49 1030.362h1v1h-1zM50 1029.362h1v1h-1z" style="fill:#C88800" transform="translate(0 -1000.362)"/></g><path d="M49 29h1v1h-1z" fill="#fff"/><g fill="#e95420" style="fill:#C88800"><path d="M33 1033.362h1v1h-1zM34 1032.362h1v1h-1zM34 1034.362h1v1h-1zM35 1033.362h1v1h-1z" style="fill:#C88800" transform="translate(0 -1000.362)"/></g><path d="M34 33h1v1h-1z" fill="#fff"/><g fill="#e95420" style="fill:#C88800"><path d="M10 1021.362h1v1h-1zM11 1020.362h1v1h-1zM11 1022.362h1v1h-1zM12 1021.362h1v1h-1z" style="fill:#C88800" transform="translate(0 -1000.362)"/></g><path d="M11 21h1v1h-1z" fill="#fff"/><g fill="#e95420" style="fill:#C88800"><path d="M19 1008.362h1v1h-1zM20 1007.362h1v1h-1zM20 1009.362h1v1h-1zM21 1008.362h1v1h-1z" style="fill:#C88800" transform="translate(0 -1000.362)"/></g><path d="M20 8h1v1h-1z" fill="#fff"/><g fill="#77216f" style="fill:#C88800"><path d="M27 1011.362h1v1h-1zM29 1011.362h1v1h-1zM27 1013.362h1v1h-1zM29 1013.362h1v1h-1z" style="fill:#C88800" transform="translate(0 -1000.362)"/></g><path d="M28 11v1h-1v1h1v1h1v-1h1v-1h-1v-1z" fill="#fff"/><g fill="#77216f" style="fill:#C88800"><path d="M27 1011.362h1v1h-1zM29 1011.362h1v1h-1zM27 1013.362h1v1h-1zM29 1013.362h1v1h-1z" style="fill:#C88800" transform="translate(21 -992.362)"/></g><path d="M49 19v1h-1v1h1v1h1v-1h1v-1h-1v-1z" fill="#fff"/><g fill="#77216f" style="fill:#C88800"><path d="M27 1011.362h1v1h-1zM29 1011.362h1v1h-1zM27 1013.362h1v1h-1zM29 1013.362h1v1h-1z" style="fill:#C88800" transform="translate(12 -976.362)"/></g><path d="M40 35v1h-1v1h1v1h1v-1h1v-1h-1v-1z" fill="#fff"/><g fill="#77216f" style="fill:#C88800"><path d="M27 1011.362h1v1h-1zM29 1011.362h1v1h-1zM27 1013.362h1v1h-1zM29 1013.362h1v1h-1z" style="fill:#C88800" transform="translate(-17 -977.362)"/></g><path d="M11 34v1h-1v1h1v1h1v-1h1v-1h-1v-1z" fill="#fff"/><path style="fill:#fff;opacity:.4" d="M20 7v1h1V7h-1zm1 1v1h1V8h-1zm0 1h-.238l.148-.215-.82-.568-.09.129V8h-1v1h.547L11.93 20H11v1h.238l-.238.344V21h-1v1h1v-.195l.375.195H11v1h1v-.674l21 10.955V34h1v-.197l.377.197H34v1h1v-1h-.434l.434-.115V34h1v-.383l13-3.465V31h1v-1h-.43l.059-.016-.258-.966-.371.1V29h-1v.383L35 32.85V32h-1v.676L13 21.719V21h-.547l7.615-11H21V9zm28 20h1v-1h-1v1zm1 0v1h1v-1h-1z"/></svg>