<svg xmlns="http://www.w3.org/2000/svg" xmlns:xlink="http://www.w3.org/1999/xlink" height="32" width="32"><defs><linearGradient id="b"><stop offset="0"/><stop offset="1" stop-opacity="0"/></linearGradient><linearGradient id="a"><stop offset="0" stop-color="#151515"/><stop offset="1" stop-color="#4d4d4d"/></linearGradient><linearGradient xlink:href="#a" id="d" x1="12" y1="3" x2="12" y2="29" gradientUnits="userSpaceOnUse"/><linearGradient xlink:href="#b" id="c" x1="7" y1="16.07" x2="25" y2="16.07" gradientUnits="userSpaceOnUse"/></defs><path stroke-width="2" fill="url(#c)" d="M14.013 3.14c-3.52 0-5.279 1.235-5.279 3.704 0 1.481.489 2.224 1.467 2.224H20v3.406c0 .494-.548.737-1.643.74H12v-1.925H8V16h12.703c2.347 0 3.272-1.176 3.297-3.526V9.068h-.734V6.844c-1.076-.988-2.074-1.85-3.443-2.591-1.379-.741-4.353-1.112-5.81-1.112zm0 2.667c1.819 0 4.832.445 5.927 1.334h-7.763c0-.89.76-1.334 1.836-1.334zM8 17v12h3.945l3.404-3.112L20.07 29H24V17h-4v8.104l-4.651-2.844L12 25.133V17z" stroke="#fff" stroke-linejoin="round"/><path d="M14.013 3.14c-3.52 0-5.279 1.235-5.279 3.704 0 1.481.489 2.224 1.467 2.224H20v3.406c0 .494-.548.737-1.643.74H12v-1.925H8V16h12.703c2.347 0 3.272-1.176 3.297-3.526V9.068h-.734V6.844c-1.076-.988-2.074-1.85-3.443-2.591-1.379-.741-4.353-1.112-5.81-1.112zm0 2.667c1.819 0 4.832.445 5.927 1.334h-7.763c0-.89.76-1.334 1.836-1.334zM8 17v12h3.945l3.404-3.112L20.07 29H24V17h-4v8.104l-4.651-2.844L12 25.133V17z" fill="url(#d)"/></svg>