<svg xmlns="http://www.w3.org/2000/svg" xmlns:xlink="http://www.w3.org/1999/xlink" viewBox="0 0 32 32"><defs><linearGradient id="a"><stop style="stop-color:#151515;stop-opacity:1" offset="0"/><stop style="stop-color:#4d4d4d;stop-opacity:1" offset="1"/></linearGradient><linearGradient xlink:href="#a" id="b" x1="13" y1="4" x2="13" y2="29" gradientUnits="userSpaceOnUse"/></defs><path style="opacity:1;fill:#000;fill-opacity:1;stroke:#fff;stroke-width:2;stroke-linejoin:round;stroke-miterlimit:4;stroke-dasharray:none" d="M8 4 6 6l3 3v8c0 5 3 7 7 7s7-3 7-7V8l-4-2h5V4h-5l-2 2 3 3v8a4 4 0 0 1-4 4c-2.21 0-4.13-1.795-4-4V8L8 6h5V4ZM7 26v1h18v-1zm0 2v1h18v-1z"/><path style="fill:url(#b);fill-opacity:1" d="M8 4 6 6l3 3v8c0 5 3 7 7 7s7-3 7-7V8l-4-2h5V4h-5l-2 2 3 3v8a4 4 0 0 1-4 4c-2.21 0-4.13-1.795-4-4V8L8 6h5V4H8zM7 26v1h18v-1H7zm0 2v1h18v-1H7z"/></svg>