<?xml version="1.0" encoding="UTF-8" standalone="no"?>
<svg
   xmlns:dc="http://purl.org/dc/elements/1.1/"
   xmlns:cc="http://creativecommons.org/ns#"
   xmlns:rdf="http://www.w3.org/1999/02/22-rdf-syntax-ns#"
   xmlns:svg="http://www.w3.org/2000/svg"
   xmlns="http://www.w3.org/2000/svg"
   xmlns:xlink="http://www.w3.org/1999/xlink"
   xmlns:sodipodi="http://sodipodi.sourceforge.net/DTD/sodipodi-0.dtd"
   xmlns:inkscape="http://www.inkscape.org/namespaces/inkscape"
   height="52"
   viewBox="0 0 60 52"
   width="60"
   version="1.1"
   id="svg34"
   sodipodi:docname="conestack_52x60.svg"
   inkscape:version="1.0.1 (3bc2e813f5, 2020-09-07)">
  <metadata
     id="metadata40">
    <rdf:RDF>
      <cc:Work
         rdf:about="">
        <dc:format>image/svg+xml</dc:format>
        <dc:type
           rdf:resource="http://purl.org/dc/dcmitype/StillImage" />
      </cc:Work>
    </rdf:RDF>
  </metadata>
  <defs
     id="defs38" />
  <sodipodi:namedview
     pagecolor="#ffffff"
     bordercolor="#666666"
     borderopacity="1"
     objecttolerance="10"
     gridtolerance="10"
     guidetolerance="10"
     inkscape:pageopacity="0"
     inkscape:pageshadow="2"
     inkscape:window-width="1920"
     inkscape:window-height="1016"
     id="namedview36"
     showgrid="false"
     inkscape:zoom="16.923077"
     inkscape:cx="30"
     inkscape:cy="26"
     inkscape:window-x="0"
     inkscape:window-y="27"
     inkscape:window-maximized="1"
     inkscape:current-layer="svg34"
     inkscape:document-rotation="0" />
  <linearGradient
     id="a">
    <stop
       offset="0"
       stop-color="#e95420"
       id="stop2" />
    <stop
       offset="1"
       stop-color="#fe865c"
       id="stop4" />
  </linearGradient>
  <linearGradient
     id="b">
    <stop
       offset="0"
       stop-color="#77216F"
       id="stop7" />
    <stop
       offset="1"
       stop-color="#945c93"
       id="stop9" />
  </linearGradient>
  <linearGradient
     id="c"
     gradientUnits="userSpaceOnUse"
     x1="11"
     x2="30"
     xlink:href="#a"
     y1="34"
     y2="34" />
  <linearGradient
     id="d"
     gradientUnits="userSpaceOnUse"
     x1="33"
     x2="52"
     xlink:href="#b"
     y1="1034.3622"
     y2="1034.3622"
     gradientTransform="translate(0,-1000.3622)" />
  <linearGradient
     id="e"
     gradientUnits="userSpaceOnUse"
     x1="33"
     x2="52"
     xlink:href="#a"
     y1="1034.3622"
     y2="1034.3622"
     gradientTransform="translate(0,-1000.3622)" />
  <linearGradient
     id="f"
     gradientUnits="userSpaceOnUse"
     x1="11"
     x2="30"
     xlink:href="#b"
     y1="34"
     y2="34" />
  <path
     d="m 0,0 h 60 v 52 h -60 z"
     fill="#ffffff"
     id="path16" />
  <path
     d="m 11,40.0062 h 46 v 0.9874 h -46 z"
     fill="#232629"
     id="path18" />
  <path
     d="m 12,40 -9,9"
     fill="none"
     stroke="#232629"
     id="path20" />
  <path
     d="m 11,3 h 1 v 38 h -1 z"
     fill="#232629"
     id="path22" />
  <path
     d="m 21,19 -10,24 c -0.849669,2.039206 4.253295,4 9.5,4 5.246705,0 9.5,-1.790861 9.5,-4 z"
     fill="url(#c)"
     id="path24"
     style="fill:#95a96f;fill-opacity:1" />
  <path
     d="m 43,3 -10,40 c -0.535795,2.1432 4.253295,4 9.5,4 5.246705,0 9.5,-1.7909 9.5,-4 z"
     fill="url(#e)"
     id="path26"
     style="fill:#95a96f;fill-opacity:1" />
  <path
     d="m 43,3 -6.75,27 h -0.002 a 6.4119763,3 0 0 0 6.412109,3 6.4119763,3 0 0 0 6.41211,-3 h 0.002 z"
     fill="url(#d)"
     id="path28"
     style="fill:#607142;fill-opacity:1" />
  <path
     d="m 21,19 -7.916016,19 h 0.01367 a 7.521306,3 0 0 0 -0.01758,0.140625 7.521306,3 0 0 0 7.521484,3 7.521306,3 0 0 0 7.521485,-3 7.521306,3 0 0 0 -0.01367,-0.140625 h 0.01563 z"
     fill="url(#f)"
     id="path30"
     style="fill:#607142;fill-opacity:1" />
</svg>
