<?xml version="1.0" encoding="UTF-8" standalone="no"?>
<svg
   xmlns:dc="http://purl.org/dc/elements/1.1/"
   xmlns:cc="http://creativecommons.org/ns#"
   xmlns:rdf="http://www.w3.org/1999/02/22-rdf-syntax-ns#"
   xmlns:svg="http://www.w3.org/2000/svg"
   xmlns="http://www.w3.org/2000/svg"
   xmlns:sodipodi="http://sodipodi.sourceforge.net/DTD/sodipodi-0.dtd"
   xmlns:inkscape="http://www.inkscape.org/namespaces/inkscape"
   height="52"
   viewBox="0 0 60 52"
   width="60"
   version="1.1"
   id="svg42"
   sodipodi:docname="stackstepped3d_52x60.svg"
   inkscape:version="1.0.1 (3bc2e813f5, 2020-09-07)">
  <metadata
     id="metadata48">
    <rdf:RDF>
      <cc:Work
         rdf:about="">
        <dc:format>image/svg+xml</dc:format>
        <dc:type
           rdf:resource="http://purl.org/dc/dcmitype/StillImage" />
      </cc:Work>
    </rdf:RDF>
  </metadata>
  <defs
     id="defs46" />
  <sodipodi:namedview
     pagecolor="#ffffff"
     bordercolor="#666666"
     borderopacity="1"
     objecttolerance="10"
     gridtolerance="10"
     guidetolerance="10"
     inkscape:pageopacity="0"
     inkscape:pageshadow="2"
     inkscape:window-width="1920"
     inkscape:window-height="1016"
     id="namedview44"
     showgrid="false"
     inkscape:zoom="16.923077"
     inkscape:cx="21.24083"
     inkscape:cy="21.004691"
     inkscape:window-x="0"
     inkscape:window-y="27"
     inkscape:window-maximized="1"
     inkscape:current-layer="svg42"
     inkscape:document-rotation="0" />
  <path
     d="m 0,0 h 60 v 52 h -60 z"
     fill="#ffffff"
     id="path2" />
  <path
     d="m 3,45 h 52 v 1 h -52 z"
     fill="#232629"
     id="path4" />
  <path
     d="m 6,3 h 1 v 46 h -1 z"
     fill="#232629"
     id="path6" />
  <path
     d="m 36,24.9991 v 4 h -13 v 8 l -12,9e-4 v 1 l 13,-9e-4 v -8 h 13 v -4 l 13,9e-4 v -1 z"
     fill="#e95420"
     id="path8"
     style="fill-rule:evenodd;fill:#95a96f;fill-opacity:1" />
  <path
     d="m 23,23 h -12 l 3,-3 h 9 z"
     fill="#987197"
     id="path10"
     style="fill-rule:evenodd;fill:#94ab6e;fill-opacity:1" />
  <path
     d="m 50,6 v 10 l 3,-3 v -10 z"
     fill="#945c93"
     id="path12"
     style="fill-rule:evenodd;fill:#8da465;fill-opacity:1" />
  <path
     d="m 24,30 v 8 l 3,-3 v -5 z"
     fill="#fe865c"
     id="path14"
     style="fill-rule:evenodd;fill:#bdcaa5;fill-opacity:1" />
  <path
     d="m 23,37 h -12 l 3,-3 h 9 z"
     fill="#fe865c"
     id="path16"
     style="fill-rule:evenodd;fill:#c4d0ae;fill-opacity:1" />
  <path
     d="m 49,6 v 9 h -12 v -3 -1 h -13 -1 v 12 h -12 v 1 h 13 v -1 -11 h 12 v 4 h 1 12 1 v -1 -9 z"
     fill="#77216f"
     id="path20"
     style="fill:#607142;fill-opacity:1" />
  <path
     d="m 36,29 h -13 l 3,-3 h 10 z"
     fill="#fe865c"
     id="path22"
     style="fill-rule:evenodd;fill:#c4d0ae;fill-opacity:1" />
  <path
     d="m 50,25 h -14 l 3,-3 h 14 z"
     fill="#fe865c"
     id="path24"
     style="fill-rule:evenodd;fill:#c4d0ae;fill-opacity:1" />
  <path
     d="m 37,26 v 4 l 3,-3 v -1 z"
     fill="#fe865c"
     id="path26"
     style="fill-rule:evenodd;fill:#bdcaa5;fill-opacity:1" />
  <path
     d="m 37,11 h -14 l 3,-3 h 14 z"
     fill="#987197"
     id="path28"
     style="fill-rule:evenodd;fill:#94ab6e;fill-opacity:1" />
  <path
     d="m 49,15 h -12 l 3,-3 h 9 z"
     fill="#987197"
     id="path30"
     style="fill-rule:evenodd;fill:#94ab6e;fill-opacity:1" />
  <g
     fill="#945c93"
     id="g36"
     style="fill-rule:evenodd;fill:#8da465;fill-opacity:1"
     transform="translate(0,-1000.3622)">
    <path
       d="m 24,1012.3622 v 12 l 3,-3 v -9 z"
       id="path32"
       style="fill:#8da465;fill-opacity:1" />
    <path
       d="m 37,1011.3622 v 4 l 3,-3 v -4 z"
       id="path34"
       style="fill:#8da465;fill-opacity:1" />
  </g>
</svg>
