<?xml version="1.0" encoding="UTF-8" standalone="no"?>
<svg
   xmlns:dc="http://purl.org/dc/elements/1.1/"
   xmlns:cc="http://creativecommons.org/ns#"
   xmlns:rdf="http://www.w3.org/1999/02/22-rdf-syntax-ns#"
   xmlns:svg="http://www.w3.org/2000/svg"
   xmlns="http://www.w3.org/2000/svg"
   xmlns:sodipodi="http://sodipodi.sourceforge.net/DTD/sodipodi-0.dtd"
   xmlns:inkscape="http://www.inkscape.org/namespaces/inkscape"
   height="52"
   viewBox="0 0 60 52"
   width="60"
   version="1.1"
   id="svg36"
   sodipodi:docname="stacksmooth3d_52x60.svg"
   inkscape:version="1.0.1 (3bc2e813f5, 2020-09-07)">
  <metadata
     id="metadata42">
    <rdf:RDF>
      <cc:Work
         rdf:about="">
        <dc:format>image/svg+xml</dc:format>
        <dc:type
           rdf:resource="http://purl.org/dc/dcmitype/StillImage" />
      </cc:Work>
    </rdf:RDF>
  </metadata>
  <defs
     id="defs40" />
  <sodipodi:namedview
     pagecolor="#ffffff"
     bordercolor="#666666"
     borderopacity="1"
     objecttolerance="10"
     gridtolerance="10"
     guidetolerance="10"
     inkscape:pageopacity="0"
     inkscape:pageshadow="2"
     inkscape:window-width="1920"
     inkscape:window-height="1016"
     id="namedview38"
     showgrid="false"
     inkscape:zoom="5.9832113"
     inkscape:cx="-23.410066"
     inkscape:cy="-3.6874776"
     inkscape:window-x="0"
     inkscape:window-y="27"
     inkscape:window-maximized="1"
     inkscape:current-layer="svg36"
     inkscape:document-rotation="0" />
  <path
     d="m 0,0 h 60 v 52 h -60 z"
     fill="#ffffff"
     id="path2" />
  <path
     d="m 24,12 c -4.267414,2.9536 -8.062249,7.1673 -12,11 v -1 l 12.4375,-12.4821 z"
     fill="#945c93"
     id="path4"
     style="fill-rule:evenodd;fill:#94ab6e;fill-opacity:1" />
  <path
     d="m 35.642857,15.8929 c -5.295314,-1.5982 -10.129179,-6.6447 -15.642857,-2.8929 9.010543,-9.8535 9.669684,-2.1049 19,-1 z"
     fill="#987197"
     id="path6"
     style="fill-rule:evenodd;fill:#94ab6e;fill-opacity:1" />
  <path
     d="m 49.776786,6.7768 c -4.368605,2.7842 -9.04156,7.5502 -12.776786,8.2232 h -1 l 3,-3 12.705357,-8.5536 z"
     fill="#945c93"
     id="path8"
     style="fill-rule:evenodd;fill:#94ab6e;fill-opacity:1" />
  <path
     d="m 49.464286,25.0893 -13.464286,-0.089 3,-3 h 14 z"
     fill="#fe865c"
     id="path10"
     style="fill-rule:evenodd;fill:#c4d0ae;fill-opacity:1" />
  <path
     d="m 36,26 -12,3 3,-3 c 4.513892,-2.4587 8.424807,-3.5969 12,-4 z"
     id="path12"
     style="fill:#c4d0ae;fill-rule:evenodd;fill-opacity:1" />
  <path
     d="m 24,29 -12,8 c 4.3366,-4.4748 9.952388,-8.281 15,-11 z"
     id="path14"
     style="fill:#c4d0ae;fill-rule:evenodd;fill-opacity:1" />
  <path
     d="m 3,45 h 52 v 1 h -52 z"
     fill="#232629"
     id="path20" />
  <path
     d="m 6,3 h 1 v 46 h -1 z"
     fill="#232629"
     id="path22" />
  <path
     d="m 11,37 h 1 v 1 h -1 z"
     fill="#ffffff"
     id="path24" />
  <path
     d="m 11,22 v 1 h -1 v 1 h 1 v 1 h 1 v -1 h 1 v -1 h -1 v -1 z"
     fill="#ffffff"
     id="path26" />
  <path
     d="m 11.500402,23.5 c 0,0 7.054903,-10.7718 12,-12.0001 4.945097,-1.2283 8.155513,4.7496 13,4 4.844487,-0.7496 13,-9 13,-9"
     stroke="#77216f"
     id="path28"
     style="fill:none;stroke:#607142;stroke-opacity:1" />
  <path
     d="m 11.5,37.4999 c 0,0 7.78042,-5.9968 11.999605,-7.9999 4.219185,-2.0031 8.516572,-3.3259 13,-4.0001 4.285157,-0.6444 13,0 13,0"
     stroke="#e95420"
     id="path30"
     style="fill:none;stroke:#95a96f;stroke-opacity:1" />
</svg>
