<?xml version="1.0" encoding="UTF-8" standalone="no"?>
<svg
   xmlns:dc="http://purl.org/dc/elements/1.1/"
   xmlns:cc="http://creativecommons.org/ns#"
   xmlns:rdf="http://www.w3.org/1999/02/22-rdf-syntax-ns#"
   xmlns:svg="http://www.w3.org/2000/svg"
   xmlns="http://www.w3.org/2000/svg"
   xmlns:sodipodi="http://sodipodi.sourceforge.net/DTD/sodipodi-0.dtd"
   xmlns:inkscape="http://www.inkscape.org/namespaces/inkscape"
   height="52"
   viewBox="0 0 60 52"
   width="60"
   version="1.1"
   id="svg44"
   sodipodi:docname="stockblock_52x60.svg"
   inkscape:version="1.0.1 (3bc2e813f5, 2020-09-07)">
  <metadata
     id="metadata50">
    <rdf:RDF>
      <cc:Work
         rdf:about="">
        <dc:format>image/svg+xml</dc:format>
        <dc:type
           rdf:resource="http://purl.org/dc/dcmitype/StillImage" />
      </cc:Work>
    </rdf:RDF>
  </metadata>
  <defs
     id="defs48" />
  <sodipodi:namedview
     pagecolor="#ffffff"
     bordercolor="#666666"
     borderopacity="1"
     objecttolerance="10"
     gridtolerance="10"
     guidetolerance="10"
     inkscape:pageopacity="0"
     inkscape:pageshadow="2"
     inkscape:window-width="1920"
     inkscape:window-height="1016"
     id="namedview46"
     showgrid="false"
     inkscape:zoom="11.966422"
     inkscape:cx="38.069633"
     inkscape:cy="26.954574"
     inkscape:window-x="0"
     inkscape:window-y="27"
     inkscape:window-maximized="1"
     inkscape:current-layer="svg44" />
  <path
     d="m0 0h60v52h-60z"
     fill="#fff"
     id="path2" />
  <path
     d="m3 45h52v1h-52z"
     fill="#232629"
     id="path4" />
  <path
     d="m6 3h1v45.999962h-1z"
     fill="#232629"
     id="path6" />
  <path
     d="m10 27.000017h3v5h-3z"
     fill="#e95420"
     id="path8"
     style="fill:#95a96f;fill-opacity:1" />
  <path
     d="m11 25.000017h1v8.999983h-1z"
     fill="#e95420"
     id="path10"
     style="fill:#95a96f;fill-opacity:1" />
  <path
     d="m22 28.000017h3v4.999996h-3z"
     fill="#77216F"
     id="path12"
     style="fill:#607142;fill-opacity:1" />
  <path
     d="m23 26.000017h1v8.999983h-1z"
     fill="#77216F"
     id="path14"
     style="fill:#607142;fill-opacity:1" />
  <g
     fill="#e95420"
     id="g28"
     style="fill:#95a96f;fill-opacity:1">
    <path
       d="m17 16.000017h3v5h-3z"
       id="path16"
       style="fill:#95a96f;fill-opacity:1" />
    <path
       d="m18 14.000017h1v8.999983h-1z"
       id="path18"
       style="fill:#95a96f;fill-opacity:1" />
    <path
       d="m29 9.000017h3v5h-3z"
       id="path20"
       style="fill:#95a96f;fill-opacity:1" />
    <path
       d="m30 7.000017h1v8.999983h-1z"
       id="path22"
       style="fill:#95a96f;fill-opacity:1" />
    <path
       d="m44 15.000017h3v5h-3z"
       id="path24"
       style="fill:#95a96f;fill-opacity:1" />
    <path
       d="m45 13.000017h1v8.999983h-1z"
       id="path26"
       style="fill:#95a96f;fill-opacity:1" />
  </g>
  <g
     fill="#77216F"
     id="g42"
     style="fill:#607142;fill-opacity:1">
    <path
       d="m32 23.000017h3v4.999996h-3z"
       id="path30"
       style="fill:#607142;fill-opacity:1" />
    <path
       d="m33 21.000017h1v8.999983h-1z"
       id="path32"
       style="fill:#607142;fill-opacity:1" />
    <path
       d="m41 33.000017h3v4.999996h-3z"
       id="path34"
       style="fill:#607142;fill-opacity:1" />
    <path
       d="m42 31.000017h1v8.999983h-1z"
       id="path36"
       style="fill:#607142;fill-opacity:1" />
    <path
       d="m50 22.000017h3v4.999996h-3z"
       id="path38"
       style="fill:#607142;fill-opacity:1" />
    <path
       d="m51 20.000017h1v8.999983h-1z"
       id="path40"
       style="fill:#607142;fill-opacity:1" />
  </g>
</svg>
