<?xml version="1.0" encoding="UTF-8" standalone="no"?>
<svg
   xmlns:dc="http://purl.org/dc/elements/1.1/"
   xmlns:cc="http://creativecommons.org/ns#"
   xmlns:rdf="http://www.w3.org/1999/02/22-rdf-syntax-ns#"
   xmlns:svg="http://www.w3.org/2000/svg"
   xmlns="http://www.w3.org/2000/svg"
   xmlns:sodipodi="http://sodipodi.sourceforge.net/DTD/sodipodi-0.dtd"
   xmlns:inkscape="http://www.inkscape.org/namespaces/inkscape"
   height="52"
   viewBox="0 0 60 52"
   width="60"
   version="1.1"
   id="svg22"
   sodipodi:docname="valueaxisdirect3d_52x60.svg"
   inkscape:version="1.0.1 (3bc2e813f5, 2020-09-07)">
  <metadata
     id="metadata28">
    <rdf:RDF>
      <cc:Work
         rdf:about="">
        <dc:format>image/svg+xml</dc:format>
        <dc:type
           rdf:resource="http://purl.org/dc/dcmitype/StillImage" />
      </cc:Work>
    </rdf:RDF>
  </metadata>
  <defs
     id="defs26" />
  <sodipodi:namedview
     pagecolor="#ffffff"
     bordercolor="#666666"
     borderopacity="1"
     objecttolerance="10"
     gridtolerance="10"
     guidetolerance="10"
     inkscape:pageopacity="0"
     inkscape:pageshadow="2"
     inkscape:window-width="1920"
     inkscape:window-height="1016"
     id="namedview24"
     showgrid="false"
     inkscape:zoom="16.923077"
     inkscape:cx="30"
     inkscape:cy="26"
     inkscape:window-x="0"
     inkscape:window-y="27"
     inkscape:window-maximized="1"
     inkscape:current-layer="svg22"
     inkscape:document-rotation="0" />
  <path
     d="m 0,0 h 60 v 52 h -60 z"
     fill="#ffffff"
     id="path2" />
  <path
     d="m 3,45 h 52 v 1 h -52 z"
     fill="#232629"
     id="path4" />
  <path
     d="m 6,3 h 1 v 46 h -1 z"
     fill="#232629"
     id="path6" />
  <path
     d="m 32.30664,8.9121 -3.99805,2.9981 0.53907,0.2246 -0.0469,0.043 0.96875,0.42 0.043,-0.062 19.46484,8.0878 h 0.002 l 4.86718,-3.3808 -21.83593,-8.3301 h -0.002 -0.002 z"
     fill="#945c93"
     fill-rule="evenodd"
     id="path8"
     style="fill:#8da465;fill-opacity:1" />
  <path
     d="m 28.31055,11.9102 h -0.002 l 0.53711,0.2246 h 0.002 z m 0.49218,0.2675 -0.3789,0.3536 -16.60742,22.4277 -0.002,0.8848 4,-3 13.95508,-20.2461 -0.9668,-0.42 z m 1.00977,0.3575 19.54492,8.121 -8.42969,16.0586 4.05469,-3.1171 9.21094,-16.3516 -0.01,0.01 h -0.002 l -0.0352,-0.014 -4.86718,3.3809 h -0.002 l -19.46484,-8.0879 z"
     fill="#987197"
     fill-rule="evenodd"
     id="path10"
     style="fill:#8da465;fill-opacity:1" />
  <path
     d="m 11.5,35.5 17,-23 21,8 -9,16"
     fill="none"
     stroke="#77216f"
     id="path12"
     style="stroke:#607142;stroke-opacity:1" />
  <path
     d="m 20.08984,8.2168 -9.20117,13.2871 -0.043,0.043 0.01,0.01 -0.0898,0.1289 23.60547,12.3144 -0.0137,0.014 0.0254,-0.01 0.0586,0.031 15.1875,-4.0489 -0.008,-0.027 0.0449,-0.012 2.6914,-3.1328 -14.92969,4.1777 -23.35742,-12.3262 6.83985,-9.8789 -0.82032,-0.5683 z"
     fill="#fe865c"
     fill-rule="evenodd"
     id="path14"
     style="fill:#bdcaa5;fill-opacity:1" />
  <path
     d="m 14.88281,17.4941 -0.008,0.01 -0.79411,1.1845 z m -0.80273,1.1778 -2.37891,3.5019 22.66992,11.8262 -0.0137,0.014 0.0254,-0.01 0.0586,0.031 0.15039,-0.041 3.01172,-3.0508 -0.17579,0.049 z"
     fill="#fe865c"
     fill-rule="evenodd"
     id="path16"
     style="fill:#bdcaa5;fill-opacity:1" />
  <path
     d="m 20.5,8.5 -9,13 23,12 15,-4"
     fill="none"
     stroke="#e95420"
     id="path18"
     style="fill-opacity:1;fill:none;stroke:#95a96f;stroke-opacity:1" />
</svg>
