<svg xmlns="http://www.w3.org/2000/svg" xmlns:xlink="http://www.w3.org/1999/xlink" width="32" height="32" viewBox="0 0 8.467 8.467"><defs><linearGradient xlink:href="#a" id="b" x1="74" y1="-64" x2="90" y2="-64" gradientUnits="userSpaceOnUse" gradientTransform="matrix(0 -.26458 .26458 0 26.103 315.543)"/><linearGradient id="a"><stop offset="0" style="stop-color:#4d4d4d;stop-opacity:1"/><stop offset="1" style="stop-color:#151515;stop-opacity:1"/></linearGradient></defs><path transform="scale(.26458)" d="M19 17a5 5 0 0 0-5 5 5 5 0 0 0 5 5 5 5 0 0 0 5-5 5 5 0 0 0-5-5zm0 1a4 4 0 0 1 4 4 4 4 0 0 1-4 4 4 4 0 0 1-4-4 4 4 0 0 1 4-4z" style="opacity:1;fill:#fff;fill-opacity:1;stroke:#fff;stroke-width:2;stroke-linecap:butt;stroke-linejoin:round;stroke-miterlimit:4;stroke-dasharray:none;stroke-opacity:1"/><path style="color:#000;font-style:normal;font-variant:normal;font-weight:400;font-stretch:normal;font-size:medium;line-height:normal;font-family:sans-serif;font-variant-ligatures:normal;font-variant-position:normal;font-variant-caps:normal;font-variant-numeric:normal;font-variant-alternates:normal;font-feature-settings:normal;text-indent:0;text-align:start;text-decoration:none;text-decoration-line:none;text-decoration-style:solid;text-decoration-color:#000;letter-spacing:normal;word-spacing:normal;text-transform:none;writing-mode:lr-tb;direction:ltr;text-orientation:mixed;dominant-baseline:auto;baseline-shift:baseline;text-anchor:start;white-space:normal;shape-padding:0;clip-rule:nonzero;display:inline;overflow:visible;visibility:visible;opacity:.15;isolation:auto;mix-blend-mode:normal;color-interpolation:sRGB;color-interpolation-filters:linearRGB;solid-color:#000;solid-opacity:1;vector-effect:none;fill:#000;fill-opacity:1;fill-rule:evenodd;stroke:none;stroke-width:.52916664;stroke-linecap:butt;stroke-linejoin:round;stroke-miterlimit:4;stroke-dasharray:none;stroke-dashoffset:0;stroke-opacity:1;color-rendering:auto;image-rendering:auto;shape-rendering:auto;text-rendering:auto;enable-background:accumulate" d="M7.318 291.216a.265.265 0 0 0-.265.265v1.19a.265.265 0 0 0 .029.119l.13.264a.265.265 0 0 0 .018.029.265.265 0 0 0-.162.162.265.265 0 0 0-.029-.017l-.264-.131a.265.265 0 0 0-.119-.03H5.465a.265.265 0 0 0-.264.266v.264a.265.265 0 0 0 .264.265h1.191a.265.265 0 0 0 .12-.029l.263-.13a.265.265 0 0 0 .03-.018.265.265 0 0 0 .161.162.265.265 0 0 0-.017.029l-.131.264a.265.265 0 0 0-.03.119v1.191a.265.265 0 0 0 .266.264h.264a.265.265 0 0 0 .266-.266v-1.19a.265.265 0 0 0-.03-.118l-.13-.264a.265.265 0 0 0-.018-.03.265.265 0 0 0 .162-.161.265.265 0 0 0 .03.017l.263.131a.265.265 0 0 0 .12.03h1.189a.265.265 0 0 0 .265-.266v-.264a.265.265 0 0 0-.265-.266h-1.19a.265.265 0 0 0-.12.03l-.263.13a.265.265 0 0 0-.029.018.265.265 0 0 0-.162-.162.265.265 0 0 0 .017-.03l.131-.263a.265.265 0 0 0 .03-.12v-1.189a.265.265 0 0 0-.266-.265z" transform="translate(-5.201 -290.936)"/><path d="M7.318 290.936a.265.265 0 0 0-.265.266v1.19a.265.265 0 0 0 .029.118l.13.264a.265.265 0 0 0 .018.03.265.265 0 0 0-.162.162.265.265 0 0 0-.029-.018l-.264-.13a.265.265 0 0 0-.119-.03H5.465a.265.265 0 0 0-.264.265v.264a.265.265 0 0 0 .264.266h1.191a.265.265 0 0 0 .12-.03l.263-.13a.265.265 0 0 0 .03-.018.265.265 0 0 0 .161.162.265.265 0 0 0-.017.03l-.131.263a.265.265 0 0 0-.03.12v1.19a.265.265 0 0 0 .266.264h.264a.265.265 0 0 0 .266-.265v-1.19a.265.265 0 0 0-.03-.119l-.13-.264a.265.265 0 0 0-.018-.029.265.265 0 0 0 .162-.162.265.265 0 0 0 .03.018l.263.13a.265.265 0 0 0 .12.03h1.189a.265.265 0 0 0 .265-.266v-.264a.265.265 0 0 0-.265-.265h-1.19a.265.265 0 0 0-.12.03l-.263.13a.265.265 0 0 0-.029.018.265.265 0 0 0-.162-.163.265.265 0 0 0 .017-.029l.131-.264a.265.265 0 0 0 .03-.119v-1.19a.265.265 0 0 0-.266-.265z" style="color:#000;font-style:normal;font-variant:normal;font-weight:400;font-stretch:normal;font-size:medium;line-height:normal;font-family:sans-serif;font-variant-ligatures:normal;font-variant-position:normal;font-variant-caps:normal;font-variant-numeric:normal;font-variant-alternates:normal;font-feature-settings:normal;text-indent:0;text-align:start;text-decoration:none;text-decoration-line:none;text-decoration-style:solid;text-decoration-color:#000;letter-spacing:normal;word-spacing:normal;text-transform:none;writing-mode:lr-tb;direction:ltr;text-orientation:mixed;dominant-baseline:auto;baseline-shift:baseline;text-anchor:start;white-space:normal;shape-padding:0;clip-rule:nonzero;display:inline;overflow:visible;visibility:visible;opacity:1;isolation:auto;mix-blend-mode:normal;color-interpolation:sRGB;color-interpolation-filters:linearRGB;solid-color:#000;solid-opacity:1;vector-effect:none;fill:#fff;fill-opacity:1;fill-rule:evenodd;stroke:none;stroke-width:.52916664;stroke-linecap:butt;stroke-linejoin:round;stroke-miterlimit:4;stroke-dasharray:none;stroke-dashoffset:0;stroke-opacity:1;color-rendering:auto;image-rendering:auto;shape-rendering:auto;text-rendering:auto;enable-background:accumulate" transform="translate(-5.201 -290.936)"/><path style="display:inline;fill:url(#b);fill-opacity:1;fill-rule:evenodd;stroke:none;stroke-width:.26458332px;stroke-linecap:butt;stroke-linejoin:miter;stroke-opacity:1" d="M7.318 291.201v1.19l.132.265.132-.264V291.2zm-1.852 1.852v.265h1.19l.265-.133-.265-.132zm1.852 0v.265h.264v-.265zm.926 0-.265.132.265.132h1.19v-.264zm-.794.661-.132.265v1.19h.264v-1.19z" transform="translate(-5.201 -290.936)"/><path style="opacity:1;fill:#111;fill-opacity:1;stroke:none;stroke-width:2;stroke-linecap:butt;stroke-linejoin:round;stroke-miterlimit:4;stroke-dasharray:none;stroke-opacity:1" d="M19 17a5 5 0 0 0-5 5 5 5 0 0 0 5 5 5 5 0 0 0 5-5 5 5 0 0 0-5-5zm0 1a4 4 0 0 1 4 4 4 4 0 0 1-4 4 4 4 0 0 1-4-4 4 4 0 0 1 4-4z" transform="scale(.26458)"/></svg>