<svg xmlns="http://www.w3.org/2000/svg" viewBox="0 0 32 32"><path style="fill:#000;stroke:#000;opacity:.7;stroke-width:2;stroke-miterlimit:4;stroke-dasharray:none;stroke-linejoin:round" fill="#232629" d="M16 4a12 7.5 0 0 0-12 7.5A12 7.5 0 0 0 16 19a12 7.5 0 0 0 12-7.5A12 7.5 0 0 0 16 4zm-4.5 15A4.5 2.25 0 0 0 7 21.25a4.5 2.25 0 0 0 4.5 2.25 4.5 2.25 0 0 0 4.5-2.25A4.5 2.25 0 0 0 11.5 19zm-3 4.5a3 1.5 0 0 0-3 1.5 3 1.5 0 0 0 3 1.5 3 1.5 0 0 0 3-1.5 3 1.5 0 0 0-3-1.5zm-3 3a1.5.75 0 0 0-1.5.75 1.5.75 0 0 0 1.5.75 1.5.75 0 0 0 1.5-.75 1.5.75 0 0 0-1.5-.75z"/><path d="M16 4a12 7.5 0 0 0-12 7.5A12 7.5 0 0 0 16 19a12 7.5 0 0 0 12-7.5A12 7.5 0 0 0 16 4zm-4.5 15A4.5 2.25 0 0 0 7 21.25a4.5 2.25 0 0 0 4.5 2.25 4.5 2.25 0 0 0 4.5-2.25A4.5 2.25 0 0 0 11.5 19zm-3 4.5a3 1.5 0 0 0-3 1.5 3 1.5 0 0 0 3 1.5 3 1.5 0 0 0 3-1.5 3 1.5 0 0 0-3-1.5zm-3 3a1.5.75 0 0 0-1.5.75 1.5.75 0 0 0 1.5.75 1.5.75 0 0 0 1.5-.75 1.5.75 0 0 0-1.5-.75z" fill="#232629" style="fill:#fff"/></svg>