<svg viewBox="0 0 32 32" xmlns="http://www.w3.org/2000/svg"><circle style="opacity:.7;fill:#d85eca;fill-rule:evenodd;stroke:#000;stroke-width:2;stroke-linecap:round;stroke-linejoin:round" cx="20" cy="11" r="7"/><circle style="opacity:1;fill:#d85eca;fill-rule:evenodd;stroke:none;stroke-width:2;stroke-linecap:round;stroke-linejoin:round" cx="20" cy="11" r="7"/><path d="m14.002 13.5-5 9.5h14l-4.5-8-2 2.5z" style="color:#000;display:inline;overflow:visible;visibility:visible;fill:#6d6d6d;fill-opacity:1;fill-rule:nonzero;stroke:none;stroke-width:10.3809;marker:none;enable-background:accumulate"/><path style="opacity:.7;fill:#fff;stroke:#000;stroke-width:2;stroke-linejoin:round;stroke-miterlimit:4;stroke-dasharray:none" fill="#b3b3b3" d="m19 14-8 14h16z"/><path d="m19 14-8 14h16z" fill="#b3b3b3" style="fill:#fff"/><path style="opacity:.7;fill:#80a3fa;fill-opacity:1;stroke:#000;stroke-width:2;stroke-linejoin:round;stroke-miterlimit:4;stroke-dasharray:none" d="M5 11v13h13v-6.613a3.528 3.528 0 0 1-.615-.407A7 7 0 0 1 14 11z"/><path style="fill:#80a3fa;fill-opacity:1" d="M5 11v13h13v-6.613a3.528 3.528 0 0 1-.615-.407A7 7 0 0 1 14 11z"/></svg>