<svg xmlns="http://www.w3.org/2000/svg" xmlns:xlink="http://www.w3.org/1999/xlink" viewBox="0 0 32 32"><defs><linearGradient id="a"><stop style="stop-color:#151515;stop-opacity:1" offset="0"/><stop style="stop-color:#4d4d4d;stop-opacity:1" offset="1"/></linearGradient><linearGradient xlink:href="#a" id="b" x1="13" y1="9" x2="13" y2="21" gradientUnits="userSpaceOnUse"/></defs><path d="M13 9c-2.21 0-4 1.994-4 3.5v5c0 1.506 1.79 3.5 4 3.5s4-1.994 4-3.5v-5c0-1.506-1.79-3.5-4-3.5zm0 2c1.105 0 2 .869 2 1.5v5.191c0 .632-.895 1.309-2 1.309s-2-.677-2-1.309V12.5c0-.631.895-1.5 2-1.5z" style="opacity:1;fill:#fff;stroke:#fff;stroke-width:2;stroke-miterlimit:4;stroke-dasharray:none;stroke-opacity:1"/><path style="opacity:1;fill:#fff;fill-opacity:1;fill-rule:evenodd;stroke:#fff;stroke-width:2;stroke-linecap:butt;stroke-linejoin:round;stroke-miterlimit:4;stroke-dasharray:none;stroke-opacity:1" d="M5 19h2v2H5z"/><path style="opacity:1;fill:#fff;stroke:#fff;stroke-width:2;stroke-miterlimit:4;stroke-dasharray:none;stroke-opacity:1" d="M23 9c-2.21 0-4 1.994-4 3.5v5c0 1.506 1.79 3.5 4 3.5s4-1.994 4-3.5v-5c0-1.506-1.79-3.5-4-3.5zm0 2c1.105 0 2 .869 2 1.5v5.191c0 .632-.895 1.309-2 1.309s-2-.677-2-1.309V12.5c0-.631.895-1.5 2-1.5z"/><path style="fill:url(#b);stroke-width:1.3211565;fill-opacity:1" d="M13 9c-2.21 0-4 1.994-4 3.5v5c0 1.506 1.79 3.5 4 3.5s4-1.994 4-3.5v-5c0-1.506-1.79-3.5-4-3.5zm10 0c-2.21 0-4 1.994-4 3.5v5c0 1.506 1.79 3.5 4 3.5s4-1.994 4-3.5v-5c0-1.506-1.79-3.5-4-3.5zm-10 2c1.105 0 2 .869 2 1.5v5.191c0 .632-.895 1.309-2 1.309s-2-.677-2-1.309V12.5c0-.631.895-1.5 2-1.5zm10 0c1.105 0 2 .869 2 1.5v5.191c0 .632-.895 1.309-2 1.309s-2-.677-2-1.309V12.5c0-.631.895-1.5 2-1.5zM5 19v2h2v-2H5z"/><circle style="opacity:1;vector-effect:none;fill:#c7162b;fill-opacity:1;stroke:none;stroke-width:4.49999952;stroke-linecap:butt;stroke-linejoin:round;stroke-miterlimit:4;stroke-dasharray:none;stroke-dashoffset:0;stroke-opacity:1" cy="21.5" cx="26.5" r="4.5"/><path overflow="visible" font-weight="400" style="color:#000;font-weight:400;line-height:normal;font-family:sans-serif;text-indent:0;text-align:start;text-decoration:none;text-decoration-line:none;text-decoration-style:solid;text-decoration-color:#000;text-transform:none;white-space:normal;overflow:visible;isolation:auto;mix-blend-mode:normal;fill:#fff;fill-opacity:1;marker:none" d="m24.379 20.086 1.414 1.414-1.414 1.414.707.707 1.414-1.414 1.414 1.414.707-.707-1.414-1.414 1.414-1.414-.707-.707-1.414 1.414-1.414-1.414z"/></svg>