<svg xmlns="http://www.w3.org/2000/svg" viewBox="0 0 32 32"><path style="opacity:1;fill:#fff;fill-opacity:1;stroke:none;stroke-width:2;stroke-linecap:round;stroke-linejoin:round;stroke-miterlimit:4;stroke-dasharray:none;stroke-opacity:1" d="M5 5h22v22H5z"/><path style="fill:#232629" d="M4 4v24h24V4zm1 1h22v22H5z"/><path style="fill:#B39169" d="M3 3v26h26V3zm1 1h24v24H4z"/><path style="opacity:.7;fill:#000;fill-opacity:1;fill-rule:evenodd;stroke:#000;stroke-width:2;stroke-linecap:round;stroke-linejoin:round" d="M26.951 22A2 2 0 0 0 25 24v2h-1v4h6v-4h-1v-2a2 2 0 0 0-2-2 2 2 0 0 0-.049 0zM27 23a1 1 0 0 1 1 1v2h-2v-2a1 1 0 0 1 1-1z"/><path style="opacity:1;fill:#fee581;fill-opacity:1;fill-rule:evenodd;stroke:none;stroke-width:2;stroke-linecap:round;stroke-linejoin:round" d="M26.951 22A2 2 0 0 0 25 24v2h-1v4h6v-4h-1v-2a2 2 0 0 0-2-2 2 2 0 0 0-.049 0zM27 23a1 1 0 0 1 1 1v2h-2v-2a1 1 0 0 1 1-1z"/></svg>