<svg xmlns="http://www.w3.org/2000/svg" viewBox="0 0 24 24"><path style="fill:#000;stroke:#000;opacity:.7;stroke-width:2;stroke-miterlimit:4;stroke-dasharray:none;stroke-linejoin:round" fill="#232629" d="M12 4a8 4 0 0 0-8 4 8 4 0 0 0 8 4 8 4 0 0 0 8-4 8 4 0 0 0-8-4zM4 9v7c0 2.21 3.582 4 8 4s8-1.79 8-4V9c0 2.21-3.582 4-8 4s-8-1.79-8-4z"/><path d="M12 4a8 4 0 0 0-8 4 8 4 0 0 0 8 4 8 4 0 0 0 8-4 8 4 0 0 0-8-4zM4 9v7c0 2.21 3.582 4 8 4s8-1.79 8-4V9c0 2.21-3.582 4-8 4s-8-1.79-8-4z" fill="#232629" style="fill:#fff"/></svg>