<svg xmlns="http://www.w3.org/2000/svg" viewBox="0 0 24 24"><path d="M6.994 3c-1.258.014-2.179-.03-2.932.384a1.88 1.88 0 0 0-.837.999C3.06 4.82 3 5.343 3 6v12c0 .658.06 1.179.225 1.617.164.44.461.789.837.997.753.415 1.674.371 2.932.386h10.012c1.258-.014 2.179.03 2.932-.384a1.88 1.88 0 0 0 .837-.999c.165-.438.225-.96.225-1.617V6c0-.658-.06-1.179-.225-1.617a1.875 1.875 0 0 0-.837-.997c-.753-.415-1.674-.371-2.932-.386H6.998z" style="font-style:normal;font-variant:normal;font-weight:400;font-stretch:normal;font-size:15px;line-height:125%;font-family:Ubuntu;-inkscape-font-specification:Ubuntu;text-align:center;letter-spacing:0;word-spacing:0;writing-mode:lr-tb;text-anchor:middle;display:inline;opacity:.7;fill:#000;fill-opacity:1;stroke:none;stroke-width:.99980211"/><path d="M11.983 4.027c-1.556.01-5.11-.012-6.66.039-.46.042-1.016.206-1.155.71-.219.635-.108 1.333-.146 1.982-.008 2.297-.023 9.596.022 11.885.039.462.202 1.013.699 1.164.632.225 1.284.123 1.936.154 1.424.007 4.85.011 6.276.012 1.704 0 3.408-.005 5.107-.019.512-.012 1.184.02 1.585-.405.421-.54.287-1.268.323-1.904.011-2.444.027-9.911-.022-12.357-.05-.402-.17-.863-.575-1.044-.669-.294-1.427-.168-2.126-.206a715.985 715.985 0 0 0-5.264-.011Z" style="opacity:1;vector-effect:none;fill:#43b2a8;fill-opacity:1;stroke:none;stroke-width:1;stroke-linecap:round;stroke-linejoin:bevel;stroke-miterlimit:4;stroke-dasharray:none;stroke-dashoffset:0;stroke-opacity:1"/><path style="opacity:1;fill:#fff;fill-opacity:1;stroke:none;stroke-width:2.19089031;stroke-linecap:round;stroke-linejoin:round;stroke-miterlimit:4;stroke-dasharray:none;stroke-opacity:1" d="M4 9h1v6H4zM19 9h1v6h-1z"/><path style="opacity:1;fill:#fff;fill-opacity:1;stroke:none;stroke-width:8.77999973;stroke-linejoin:round;stroke-miterlimit:4;stroke-dasharray:none;stroke-opacity:1" d="M10.5 8H10l-.354.354-2.474 2.474a.499.499 0 1 0 .707.707L10 9.415V15.5a.499.499 0 1 0 1 0v-7c0-.277-.223-.5-.5-.5z"/><path style="color:#000;font-style:normal;font-variant:normal;font-weight:400;font-stretch:normal;font-size:medium;line-height:normal;font-family:sans-serif;font-variant-ligatures:normal;font-variant-position:normal;font-variant-caps:normal;font-variant-numeric:normal;font-variant-alternates:normal;font-feature-settings:normal;text-indent:0;text-align:start;text-decoration:none;text-decoration-line:none;text-decoration-style:solid;text-decoration-color:#000;letter-spacing:normal;word-spacing:normal;text-transform:none;writing-mode:lr-tb;direction:ltr;text-orientation:mixed;dominant-baseline:auto;baseline-shift:baseline;text-anchor:start;white-space:normal;shape-padding:0;clip-rule:nonzero;display:inline;overflow:visible;visibility:visible;opacity:1;isolation:auto;mix-blend-mode:normal;color-interpolation:sRGB;color-interpolation-filters:linearRGB;solid-color:#000;solid-opacity:1;vector-effect:none;fill:#fff;fill-opacity:1;fill-rule:nonzero;stroke:none;stroke-width:1px;stroke-linecap:round;stroke-linejoin:round;stroke-miterlimit:4;stroke-dasharray:none;stroke-dashoffset:0;stroke-opacity:1;color-rendering:auto;image-rendering:auto;shape-rendering:auto;text-rendering:auto;enable-background:accumulate" d="M14.488 7.988c-.25 0-.443-.001-.633.02-.189.02-.415.071-.595.252-.18.18-.231.406-.252.595-.021.19-.02.383-.02.633v1c0 .25-.001.444.02.633.02.19.071.415.252.596.18.18.406.23.595.252.19.02.383.02.633.02h1a6.4 6.4 0 0 1 .489.011c.008.097.011.255.011.488v2a6.4 6.4 0 0 1-.011.489 6.411 6.411 0 0 1-.489.011h-2a.5.5 0 1 0 0 1h2c.25 0 .444.002.633-.02.19-.02.415-.07.596-.251.18-.18.23-.407.252-.596.02-.189.02-.383.02-.633v-2c0-.25 0-.443-.02-.633-.021-.189-.072-.415-.252-.595s-.407-.231-.596-.252c-.189-.021-.383-.02-.633-.02h-1a6.4 6.4 0 0 1-.488-.011 6.411 6.411 0 0 1-.012-.489v-1A6.4 6.4 0 0 1 14 9c.097-.009.255-.012.488-.012h2a.5.5 0 1 0 0-1z"/></svg>