<svg xmlns="http://www.w3.org/2000/svg" xmlns:xlink="http://www.w3.org/1999/xlink" viewBox="0 0 24 24"><defs><linearGradient xlink:href="#a" id="b" x1="16" y1="3" x2="16" y2="14" gradientUnits="userSpaceOnUse"/><linearGradient id="a"><stop style="stop-color:#151515;stop-opacity:1" offset="0"/><stop style="stop-color:#4d4d4d;stop-opacity:1" offset="1"/></linearGradient></defs><path d="m14.5 3-4.105 11h2.308l.797-2h5.018l.773 2h2.412L17.5 3ZM16 5l1.773 5h-3.562z" style="opacity:1;fill:#000;stroke:#fff;stroke-width:2;stroke-linecap:round;stroke-linejoin:round;stroke-miterlimit:4;stroke-dasharray:none;stroke-opacity:.987055"/><path style="fill:url(#b);fill-opacity:1;stroke:none;stroke-width:.647105;stroke-linecap:round;stroke-linejoin:round;stroke-opacity:.490196" d="m14.5 3-4.105 11h2.308l.797-2h5.018l.773 2h2.412L17.5 3ZM16 5l1.773 5h-3.562z"/><path style="fill:#6d6d6d;fill-opacity:1;stroke:none;stroke-width:1px;stroke-linecap:butt;stroke-linejoin:miter;stroke-opacity:1" d="m7.515 9.992-.707-.707c-1.415-1.414-2.122-.707-2.829 0L2.565 10.7c-.707.707-1.414 1.415 0 2.829l2.828 2.828c.708.707.708.707 0 1.414l.708.707c.707-.707 1.414-1.414 0-2.828l-2.829-2.828c-.707-.707-.707-.707 0-1.415l1.414-1.414c.707-.707.707-.707 1.415 0l.707.707.707-.707"/><path style="fill:#fa9381;fill-opacity:1;stroke:none;stroke-width:1px;stroke-linecap:butt;stroke-linejoin:miter;stroke-opacity:1" d="m6.1 18.477-.707-.707c-.707-.707-.707-.707-2.828 1.415l-.707.707c-1.415 1.414-1.415 1.414-.707 2.12l.707.708c.707.707.707.707 2.121-.707l.707-.707c2.122-2.121 2.122-2.121 1.415-2.829z"/><rect ry="1" y="-.248" x="-22.379" height="5" width="10" style="opacity:.7;fill:#000;fill-opacity:1;fill-rule:evenodd;stroke:#000;stroke-width:2;stroke-linecap:butt;stroke-linejoin:round;stroke-miterlimit:4;stroke-dasharray:none;stroke-opacity:1" rx="1" transform="scale(-1 1) rotate(-45)"/><rect ry="1" y="-.248" x="-22.379" height="5" width="10" style="opacity:1;fill:#fff;fill-opacity:1;fill-rule:evenodd;stroke:none;stroke-width:2;stroke-linecap:butt;stroke-linejoin:round;stroke-miterlimit:4;stroke-dasharray:none;stroke-opacity:1" rx="1" transform="scale(-1 1) rotate(-45)"/><g style="display:inline;stroke-width:27.20000267;enable-background:new"><path style="fill:#fec589;fill-opacity:1;stroke:none;stroke-width:27.20000267" d="M701.484 292.832 656 400.493l-45.484-107.661v-11.065h90.968z" transform="matrix(.03808 .02199 -.02385 .0413 -2.163 -6.963)"/><path style="color:#000;display:inline;overflow:visible;visibility:visible;fill:#5d5d5d;fill-opacity:1;fill-rule:nonzero;stroke:none;stroke-width:28.00900841;marker:none;enable-background:accumulate" d="M645.198 374.677 656 400.493l10.803-25.816c.01.175-21.605 0-21.605 0z" transform="matrix(.03808 .02199 -.02385 .0413 -2.163 -6.963)"/><path style="fill:#2f5fdd;fill-opacity:1;stroke:none;stroke-width:27.20000267" d="M610.516 292.832s91.989 1.586 90.968 0V23.057h-90.968z" transform="matrix(.03808 .02199 -.02385 .0413 -2.163 -6.963)"/></g></svg>