<svg xmlns="http://www.w3.org/2000/svg" viewBox="0 0 24 24"><path style="fill:#000;fill-opacity:1;stroke:#000;opacity:.7;stroke-width:2;stroke-miterlimit:4;stroke-dasharray:none;stroke-linejoin:round" d="M8 5v2H6v2H4v8c2.872 3.173 4.585 2.115 7.438 0 2.064-1.268 2.988-1.809 4.562-2v-1.438A6.593 6.593 0 0 1 18 13v-1.438A6.593 6.593 0 0 1 20 11V5H8z"/><path d="M6 7v2h10v4.563A6.593 6.593 0 0 1 18 13V7H8z" fill="#b3b3b3" style="fill:#6d6d6d;fill-opacity:1"/><path d="M8 5v2h10V11.563A6.593 6.593 0 0 1 20 11V5zM4 9v8c2.872 3.173 4.585 2.115 7.438 0 2.064-1.268 2.988-1.808 4.562-2V9H6z" fill="#232629" style="fill:#fff"/></svg>