<svg xmlns="http://www.w3.org/2000/svg" viewBox="0 0 24 24"><path style="opacity:.7;fill:#000;fill-opacity:1;fill-rule:nonzero;stroke:#000;stroke-width:2;stroke-linecap:round;stroke-linejoin:round;stroke-miterlimit:4;stroke-dasharray:none;stroke-opacity:1" d="M3 3h18v18H3z"/><path style="opacity:1;fill:#fff;fill-opacity:1;fill-rule:nonzero;stroke:none;stroke-width:2;stroke-linecap:round;stroke-linejoin:round;stroke-miterlimit:4;stroke-dasharray:none;stroke-opacity:1" d="M3 3h18v18H3z"/><path d="M17 5v2h2V5ZM13 5v2h2V5ZM9 5v2h2V5ZM5 5v2h2V5ZM17 9v2h2V9ZM13 9v2h2V9ZM9 9v2h2V9ZM5 9v2h2V9ZM17 13v2h2v-2zM13 13v2h2v-2zM9 13v2h2v-2zM5 13v2h2v-2zM17 17v2h2v-2zM13 17v2h2v-2zM9 17v2h2v-2zM5 17v2h2v-2z" style="fill:#232629"/></svg>