<svg viewBox="0 0 24 24" xmlns:xlink="http://www.w3.org/1999/xlink" xmlns="http://www.w3.org/2000/svg"><path style="fill:#2190a4;fill-opacity:1" d="M17 12a2.5 2.5 0 1 0 0 5v5h1v-9h1v9h1V12h-3z"/><defs><linearGradient id="a"><stop style="stop-color:#151515;stop-opacity:1" offset="0"/><stop style="stop-color:#4d4d4d;stop-opacity:1" offset="1"/></linearGradient><linearGradient xlink:href="#a" id="b" x1="10" y1="4" x2="9.75" y2="20" gradientUnits="userSpaceOnUse"/></defs><path style="opacity:1;fill:#000;stroke:#fff;stroke-width:2;stroke-linejoin:round;stroke-miterlimit:4;stroke-dasharray:none" d="m12.75 4-4 15.754 1 .246 4-15.754zM7.504 7l-3.975 4.645L3.25 12l.28.355L7.503 17l.746-.709L4.586 12 8.25 7.709Z"/><path d="m12.75 4-4 15.754 1 .246 4-15.754zM7.504 7l-3.975 4.645L3.25 12l.28.355L7.503 17l.746-.709L4.586 12 8.25 7.709Z" style="fill:url(#b);stroke:none;stroke-width:.5;stroke-miterlimit:4;stroke-dasharray:none;stroke-opacity:1;fill-opacity:1"/></svg>