<svg height="24" width="24" xmlns="http://www.w3.org/2000/svg"><g style="display:inline"><path style="color:#000;font-weight:400;line-height:normal;font-family:sans-serif;font-variant-ligatures:normal;font-variant-position:normal;font-variant-caps:normal;font-variant-numeric:normal;font-variant-alternates:normal;font-feature-settings:normal;text-indent:0;text-align:start;text-decoration:none;text-decoration-line:none;text-decoration-style:solid;text-decoration-color:#000;text-transform:none;text-orientation:mixed;white-space:normal;shape-padding:0;overflow:visible;opacity:.7;isolation:auto;mix-blend-mode:normal;fill:#000;fill-opacity:1;marker:none" d="M7.656 3C6.74 3 6 3.892 6 5v3H5c-.338.053-.655.131-.938.287a1.874 1.874 0 0 0-.837.998c-.165.438-.225.96-.225 1.617V14.098c0 .658.06 1.179.225 1.617.164.439.46.79.837.998.282.156.6.234.938.287h1v2c0 1.108.739 2 1.656 2h6.354l-.004-.006-.008-.01a5.047 5.047 0 0 1-.582-.998l-.006-.011a4.952 4.952 0 0 1-.133-.34c-.007-.02-.012-.042-.02-.063a4.963 4.963 0 0 1-.099-.328c0-.003 0-.006-.002-.01l-.01-.043a4.92 4.92 0 0 1-.068-.316l-.014-.088a4.932 4.932 0 0 1-.044-.36l-.002-.029a4.965 4.965 0 0 1 .588-2.775 5.032 5.032 0 0 1 .865-1.152 5.084 5.084 0 0 1 1.152-.866A5.003 5.003 0 0 1 18 13H6v2.96c-.667-.031-1.206-.084-1.455-.222-.183-.1-.287-.212-.385-.472C4.063 15.006 4 14.592 4 14v-3c0-.592.063-1.006.16-1.266.098-.26.202-.371.385-.472.249-.138.788-.19 1.455-.223V12h12V9.04c.666.031 1.204.084 1.453.222.184.1.29.212.387.472.097.26.16.674.16 1.266v2.422l.016.008c.075.033.15.068.222.105l.026.012.021.012a4.985 4.985 0 0 1 .715.45V10.903c0-.657-.06-1.179-.225-1.617a1.882 1.882 0 0 0-.837-.998c-.284-.156-.6-.234-.938-.287h-1V5c0-1.108-.739-2-1.656-2H7.656z"/><path style="opacity:1;vector-effect:none;fill:#b3b3b3;fill-opacity:1;stroke:none;stroke-width:.0625;stroke-linecap:round;stroke-linejoin:round;stroke-miterlimit:4;stroke-dasharray:none;stroke-dashoffset:0;stroke-opacity:1" d="M8.205 8.93c-1.024.017-2.053-.032-3.072.078-.39.048-.842.18-1 .584-.271.536-.174 1.16-.205 1.738.006 1.166-.026 2.335.023 3.5.05.423.181.934.621 1.107.446.208.954.16 1.428.145V14h9.012a4.968 4.968 0 0 1 5.049-.55c0-1.089.019-2.178-.024-3.264-.049-.426-.233-.916-.682-1.057-.73-.255-1.519-.15-2.277-.184-2.29-.01-6.582-.015-8.873-.015z"/><path style="opacity:1;vector-effect:none;fill:#666;fill-opacity:1;stroke:none;stroke-width:3.99999976;stroke-linecap:butt;stroke-linejoin:round;stroke-miterlimit:4;stroke-dasharray:none;stroke-dashoffset:0;stroke-opacity:1" d="M6 13v4h7.102c.467-2.273 2.493-4 4.898-4H6z"/><path style="opacity:1;vector-effect:none;fill:#fff;fill-opacity:1;stroke:none;stroke-width:4;stroke-linecap:butt;stroke-linejoin:round;stroke-miterlimit:4;stroke-dasharray:none;stroke-dashoffset:0;stroke-opacity:1" d="M7 14v5c0 1 1 1 1 1h5.422A4.943 4.943 0 0 1 13 18c0-1.63.793-3.085 2.012-4H7z"/><path style="color:#000;font-weight:400;line-height:normal;font-family:sans-serif;font-variant-ligatures:normal;font-variant-position:normal;font-variant-caps:normal;font-variant-numeric:normal;font-variant-alternates:normal;font-feature-settings:normal;text-indent:0;text-align:start;text-decoration:none;text-decoration-line:none;text-decoration-style:solid;text-decoration-color:#000;text-transform:none;text-orientation:mixed;white-space:normal;shape-padding:0;overflow:visible;isolation:auto;mix-blend-mode:normal;fill:#a7a7f1;fill-opacity:1;marker:none" d="M8 16v1h5.102c.071-.348.18-.682.32-1H8zM8 18v1h5.102A4.963 4.963 0 0 1 13 18H8z"/><path style="opacity:1;vector-effect:none;fill:#fff;fill-opacity:1;stroke:none;stroke-width:4;stroke-linecap:butt;stroke-linejoin:round;stroke-miterlimit:4;stroke-dasharray:none;stroke-dashoffset:0;stroke-opacity:1" d="M7 2h10v-3c-.032-.981-1-1-1-1H8S7-2 7-1z" transform="translate(0 6)"/><path style="opacity:1;vector-effect:none;fill:#666;fill-opacity:1;stroke:none;stroke-width:2;stroke-linecap:round;stroke-linejoin:round;stroke-miterlimit:4;stroke-dasharray:none;stroke-dashoffset:0;stroke-opacity:1" d="M5 2h14v1H5z" transform="translate(0 6)"/><g style="display:inline;stroke-width:.999982;enable-background:new;stroke:#666" transform="matrix(.1 0 0 .1 -12.808 12.154)"><path style="color:#000;display:inline;overflow:visible;visibility:visible;opacity:1;fill:none;fill-opacity:0;fill-rule:nonzero;stroke:#666;stroke-width:15.9997;stroke-linecap:round;stroke-linejoin:miter;stroke-miterlimit:4;stroke-dasharray:none;stroke-dashoffset:0;stroke-opacity:1;marker:none;enable-background:accumulate" d="m358.07 108.462-20-20"/><circle style="color:#000;display:inline;overflow:visible;visibility:visible;opacity:1;fill:#fff;fill-opacity:.97;fill-rule:nonzero;stroke:#666;stroke-width:9.99982;stroke-linecap:butt;stroke-linejoin:miter;stroke-miterlimit:4;stroke-dasharray:none;stroke-dashoffset:0;stroke-opacity:1;marker:none;enable-background:accumulate" cx="308.071" cy="58.462" r="35"/></g></g></svg>