<svg xmlns="http://www.w3.org/2000/svg" viewBox="0 0 24 24"><path overflow="visible" style="color:#bebebe;overflow:visible;fill:#298fe5;fill-opacity:1;stroke-width:1.41421;marker:none" d="M3 8h15v2H3z"/><path style="fill:#232629;fill-opacity:1;fill-rule:evenodd;stroke:none;stroke-width:3;stroke-linecap:round;stroke-linejoin:round" d="M3 8h15v1H3z"/><path style="fill:#fff;fill-rule:evenodd;stroke:none;stroke-width:3;stroke-linecap:round;stroke-linejoin:round" d="M3 9h15v1H3zM3 12h15v1H3z"/><path style="fill:#232629;fill-opacity:1;fill-rule:evenodd;stroke:none;stroke-width:3;stroke-linecap:round;stroke-linejoin:round" d="M3 11h15v1H3zM3 14h15v1H3z"/><path style="fill:#fff;fill-rule:evenodd;stroke:none;stroke-width:3;stroke-linecap:round;stroke-linejoin:round" d="M3 15h15v1H3z"/><path style="fill:#232629;fill-opacity:1;fill-rule:evenodd;stroke:none;stroke-width:3;stroke-linecap:round;stroke-linejoin:round" d="M3 17h15v1H3z"/><path style="fill:#fff;fill-rule:evenodd;stroke:none;stroke-width:3;stroke-linecap:round;stroke-linejoin:round" d="M3 18h15v1H3z"/><path style="fill:#232629;fill-opacity:1;fill-rule:evenodd;stroke:none;stroke-width:3;stroke-linecap:round;stroke-linejoin:round" d="M3 20h15v1H3z"/><path style="fill:#fff;fill-rule:evenodd;stroke:none;stroke-width:3;stroke-linecap:round;stroke-linejoin:round" d="M3 21h15v1H3z"/><circle style="opacity:.7;fill:#000;fill-opacity:1;stroke:#000;stroke-width:2;stroke-linejoin:round;stroke-miterlimit:4;stroke-dasharray:none;stroke-opacity:1" cx="15.5" cy="9.5" r="6.5"/><circle style="opacity:1;fill:#fee581;fill-opacity:1;stroke:none;stroke-width:2.16667;stroke-linejoin:round;stroke-miterlimit:4;stroke-dasharray:none;stroke-opacity:1" cx="15.5" cy="9.5" r="6.5"/></svg>