<svg xmlns="http://www.w3.org/2000/svg" viewBox="0 0 24 24"><path fill="#232629" d="m12 4-.531 4.031-1.531-3.75.53 4.032L8 5.063l1.563 3.75-3.22-2.47 2.47 3.22L5.063 8l3.25 2.469-4.032-.531 3.75 1.53L4 12l4.031.531-3.75 1.531 4.032-.53L5.063 16l3.75-1.563-2.47 3.22L9 15.618V13l1-1h10l-4.031-.531 3.75-1.531-4.032.53L18.938 8l-3.75 1.563 2.47-3.22-3.22 2.47L16 5.063l-2.469 3.25.531-4.032-1.53 3.75zm-.178 9c-.247 0-.52.038-.818.115a6.637 6.637 0 0 0-.975.354v1.052c.338-.205.705-.32 1-.421.298-.101.53-.114.797-.114.377 0 .607.04.84.27.236.23.342.388.342.754 0 .224-.08.413-.19.646-.107.23-.207.363-.48.698-.22.24-.534.638-1.094 1.255-.557.614-.909 1.04-1.232 1.405L10 20h4v-1.037l-2.76.039c.687-.764 1.004-1.143 1.381-1.566.377-.427.6-.685.67-.774.256-.344.432-.643.527-.894a2.22 2.22 0 0 0 .149-.807c0-.596-.194-1.07-.582-1.426S12.475 13 11.822 13zM18 13l-3 4.238V18h3v2h1v-2h1v-1h-1v-4zm0 1.477V17h-1.703z" style="fill:#000;stroke:#000;opacity:.7;stroke-width:2;stroke-miterlimit:4;stroke-dasharray:none;stroke-linejoin:round"/><path d="m12 4-.531 4.031-1.531-3.75.53 4.032L8 5.063l1.563 3.75-3.22-2.47 2.47 3.22L5.063 8l3.25 2.469-4.032-.531 3.75 1.53L4 12l4.031.531-3.75 1.531 4.032-.53L5.063 16l3.75-1.563-2.47 3.22L9 15.618V13l1-1h10l-4.031-.531 3.75-1.531-4.032.53L18.938 8l-3.75 1.563 2.47-3.22-3.22 2.47L16 5.063l-2.469 3.25.531-4.032-1.53 3.75zm-.178 9c-.247 0-.52.038-.818.115a6.637 6.637 0 0 0-.975.354v1.052c.338-.205.705-.32 1-.421.298-.101.53-.114.797-.114.377 0 .607.04.84.27.236.23.342.388.342.754 0 .224-.08.413-.19.646-.107.23-.207.363-.48.698-.22.24-.534.638-1.094 1.255-.557.614-.909 1.04-1.232 1.405L10 20h4v-1.037l-2.76.039c.687-.764 1.004-1.143 1.381-1.566.377-.427.6-.685.67-.774.256-.344.432-.643.527-.894a2.22 2.22 0 0 0 .149-.807c0-.596-.194-1.07-.582-1.426S12.475 13 11.822 13zM18 13l-3 4.238V18h3v2h1v-2h1v-1h-1v-4zm0 1.477V17h-1.703z" fill="#232629" style="fill:#fff"/></svg>