<svg xmlns="http://www.w3.org/2000/svg" viewBox="0 0 24 24"><path style="fill:#f2cbf8;fill-opacity:1" d="M12 4c-4.418 0-8 .895-8 2v12c0 1.105 3.582 2 8 2 .343 0 .669-.015 1-.025V18h5v-2.805l2 1.25V6c0-1.105-3.582-2-8-2z"/><path style="fill:#8e03a3;fill-opacity:1" d="M12 4c-4.418 0-8 .895-8 2v12c0 1.105 3.582 2 8 2 .343 0 .669-.015 1-.025V18.97c-.34.007-.645.029-1 .029-3.866 0-7-.448-7-1v-3.063C6.353 15.563 8.958 16 12 16c2.415 0 4.544-.279 6-.705v-.1l.107.067a7.23 7.23 0 0 0 .893-.325v.883l1 .625V6c0-1.105-3.582-2-8-2zm0 1c3.866 0 7 .448 7 1s-3.134 1-7 1-7-.448-7-1 3.134-1 7-1zM5 6.938C6.353 7.561 8.958 8 12 8s5.647-.438 7-1.063V10c0 .552-3.134 1-7 1s-7-.448-7-1V6.938zm0 4C6.353 11.562 8.958 12 12 12s5.647-.438 7-1.063V14c0 .552-3.134 1-7 1s-7-.448-7-1v-3.063z"/><path style="fill:#2190a4;fill-opacity:1;stroke:none;stroke-width:1px;stroke-linecap:butt;stroke-linejoin:miter;stroke-opacity:1" d="M23 19.5 19 17v2h-5v1h5v2z"/></svg>