<svg height="24" viewBox="0 0 6.35 6.35" width="24" xmlns="http://www.w3.org/2000/svg"><path style="opacity:.7;fill:#000;stroke:#000;stroke-width:.529167;stroke-linejoin:round;stroke-miterlimit:4;stroke-dasharray:none" d="M2.117 5.292c-.53 0-.794 0-.794-.53V1.589c0-.53.264-.53.794-.53h1.852l.264.265.53.53.264.264v2.646c0 .529-.264.529-.794.529z"/><path d="M2.117 5.292c-.53 0-.794 0-.794-.53V1.589c0-.53.264-.53.794-.53h1.852l.264.265.53.53.264.264v2.646c0 .529-.264.529-.794.529z" style="fill:#fff;stroke-width:.264583"/><path d="M3.969 2.117V1.058l1.058 1.059z" style="fill:#6d6d6d;fill-opacity:1;stroke-width:.264583"/><g style="opacity:.7"><path style="color:#000;fill:#020400;stroke-width:.529167;stroke-linecap:round;stroke-linejoin:round;-inkscape-stroke:none" d="M4.763 2.91h.529v1.323h.529l-.794 1.323-.794-1.323h.53z" transform="translate(0 .265)"/><path style="color:#000;fill:#000;stroke-linecap:round;stroke-linejoin:round;-inkscape-stroke:none" d="M4.762 2.646a.265.265 0 0 0-.264.264V3.97h-.266a.265.265 0 0 0-.226.4L4.8 5.693a.265.265 0 0 0 .453 0l.793-1.324a.265.265 0 0 0-.227-.4h-.263V2.91a.265.265 0 0 0-.266-.264zm.265 1.586a.265.265 0 0 0 .264.266h.063l-.327.545-.326-.545h.06a.265.265 0 0 0 .266-.266z" transform="translate(0 .265)"/></g><path style="color:#000;overflow:visible;fill:#a6d74f;fill-opacity:1;stroke-width:.220486;marker:none" d="M4.763 3.175h.529v1.323h.529c-.104.22-.485.858-.794 1.323-.309-.465-.69-1.103-.794-1.323h.53z"/><path style="color:#000;overflow:visible;fill:#6d6d6d;fill-opacity:1;stroke-width:.220486;marker:none" d="M3.704 6.085v.265H6.35v-.265z"/></svg>