<svg xmlns="http://www.w3.org/2000/svg" viewBox="0 0 16 16"><path style="opacity:.7;fill:#000;stroke:#000;stroke-width:2;stroke-linecap:round;stroke-linejoin:round;stroke-miterlimit:4;stroke-dasharray:none" d="M4 1 2 3h10.293l2-2zm11 .707-2 2V14l2-2zM2 4v10h10V4Z"/><path style="fill:#b6b6b6;fill-opacity:1" d="M4 1 2 3h10.293l2-2zM15 1.707l-2 2V14l2-2z"/><path d="M2 4v10h10V4Z" style="fill:#fff"/><circle style="opacity:1;vector-effect:none;fill:#2190a4;fill-opacity:1;stroke:none;stroke-width:3.49999976;stroke-linecap:butt;stroke-linejoin:round;stroke-miterlimit:4;stroke-dasharray:none;stroke-dashoffset:0;stroke-opacity:1" cy="12.5" cx="12.5" r="3.5"/><path d="M12.5 10c-.433 0-.833.12-1.188.313l.75.75c.138-.041.287-.063.438-.063.831 0 1.5.669 1.5 1.5 0 .15-.021.3-.063.438l.75.75c.193-.355.313-.755.313-1.188 0-1.385-1.115-2.5-2.5-2.5zm-2.188 1.313A2.476 2.476 0 0 0 10 12.5c0 1.385 1.115 2.5 2.5 2.5.433 0 .833-.12 1.188-.312l-.75-.75A1.539 1.539 0 0 1 12.5 14c-.831 0-1.5-.669-1.5-1.5 0-.15.021-.3.063-.437z" style="fill:#fff;fill-opacity:1"/></svg>