<svg xmlns="http://www.w3.org/2000/svg" viewBox="0 0 16 16">/&gt;<path style="fill:#000;stroke:#000;opacity:.7;stroke-width:2;stroke-miterlimit:4;stroke-dasharray:none;stroke-linejoin:round;stroke-linecap:round" fill="#232629" d="M3.5 2a1.5 1.5 0 0 0 0 3c.233 0 .46-.061.656-.156l8 8L11 14h3v-3l-1.156 1.156-8-8C4.939 3.96 5 3.733 5 3.5A1.5 1.5 0 0 0 3.5 2zm0 1a.5.5 0 1 1 0 1 .5.5 0 0 1 0-1z"/><path d="M3.5 2a1.5 1.5 0 0 0 0 3c.233 0 .46-.061.656-.156l8 8L11 14h3v-3l-1.156 1.156-8-8C4.939 3.96 5 3.733 5 3.5A1.5 1.5 0 0 0 3.5 2zm0 1a.5.5 0 1 1 0 1 .5.5 0 0 1 0-1z" style="fill:#fff;stroke:none;stroke-opacity:1" fill="#232629"/><circle style="opacity:.7;fill:#000;fill-opacity:1;fill-rule:nonzero;stroke:none;stroke-width:2;stroke-linecap:round;stroke-linejoin:round;stroke-miterlimit:4;stroke-dasharray:none;stroke-opacity:1" cx="3.5" cy="3.5" r=".5"/></svg>