<svg viewBox="0 0 16 16" xmlns="http://www.w3.org/2000/svg"><path style="fill:#232629;fill-rule:evenodd;stroke-width:3;stroke-linecap:round;stroke-linejoin:round" transform="scale(1 -1)" d="M6-9h7v1H6z"/><path style="fill:#fff;fill-rule:evenodd;stroke-width:3;stroke-linecap:round;stroke-linejoin:round" transform="scale(1 -1)" d="M6-10h7v1H6zM6-8h9v1H6z"/><path style="fill:#232629;fill-rule:evenodd;stroke-width:3;stroke-linecap:round;stroke-linejoin:round" transform="scale(1 -1)" d="M6-7h9v1H6z"/><path style="fill:#2190a4;fill-rule:evenodd;stroke-width:3;stroke-linecap:round;stroke-linejoin:round" transform="scale(1 -1)" d="M6-15h5v1H6zM6-13h9v1H6zM6-4h5v1H6zM6-2h9v1H6z"/><path style="fill:none;stroke:#2190a4;stroke-width:1px;stroke-linecap:butt;stroke-linejoin:miter" d="M5 2.5H3.5c-1.5 0-2 .5-2 2v7c0 1.5.454 2.034 2 2H4"/><path style="fill:#2190a4;stroke:none;stroke-width:1px;stroke-linecap:butt;stroke-linejoin:miter" d="M3 11.5v4l2.5-2z"/></svg>