<svg viewBox="0 0 16 16" xmlns="http://www.w3.org/2000/svg">/&gt;<path style="fill:#000;fill-rule:evenodd;stroke-width:.75;stroke-linecap:square;stroke-linejoin:round;fill-opacity:1;opacity:.6" d="M3 1a1.989 1.989 0 0 0-2 2v12h14V3c0-1.108-.892-2-2-2Z"/><path style="fill:#fff;fill-opacity:1;fill-rule:evenodd;stroke:none;stroke-width:.75;stroke-linecap:square;stroke-linejoin:round;stroke-opacity:1" d="M2 6h12v8H2ZM3 2c-.554 0-1 .446-1 1v2h12V3c0-.554-.446-1-1-1Z"/><path style="fill:#2190a4;fill-opacity:1;fill-rule:evenodd;stroke:none;stroke-width:.75;stroke-linecap:square;stroke-linejoin:round;stroke-opacity:1" d="M2 6h12v3H2Z"/><path style="fill:#232629;fill-opacity:1;fill-rule:evenodd;stroke:none;stroke-width:.75;stroke-linecap:square;stroke-linejoin:round;stroke-opacity:1" d="M12 3h1v1h-1zM10 3h1v1h-1zM8 3h1v1H8Z"/></svg>