<svg xmlns="http://www.w3.org/2000/svg" viewBox="0 0 16 16">/&gt;<path style="opacity:1;fill:#fff;fill-opacity:1;stroke:none;stroke-width:2;stroke-linecap:round;stroke-linejoin:round;stroke-miterlimit:4;stroke-dasharray:none;stroke-opacity:1" d="M2 2h12v12H2z"/><path d="M1 3v10c0 2 1 2 3 2h8c2 0 3 0 3-2V3c0-2-1-2-3-2H4C2 1 1 1 1 3Zm3-1h1v3H2V3c0-1 1-1 2-1Zm2 0h4v3H6Zm5 0h1c1 0 2 0 2 1v2h-3ZM2 6h3v4H2Zm4 0h4v4H6Zm5 0h3v4h-3zm-9 5h3v3H4c-1 0-2 0-2-1Zm4 0h4v3H6Zm5 0h3v2c0 1-1 1-2 1h-1z" style="fill:#6d6d6d;fill-opacity:1"/><path d="M13 15 1 9v6z" style="opacity:.7;fill:#000;fill-opacity:1;stroke:#000;stroke-width:2;stroke-linecap:butt;stroke-linejoin:round;stroke-miterlimit:4;stroke-dasharray:none;stroke-opacity:1"/><path style="opacity:1;fill:#fff;fill-opacity:1;stroke:none;stroke-width:1px;stroke-linecap:butt;stroke-linejoin:miter;stroke-opacity:1" d="M13 15 1 9v6z"/></svg>