<?xml version="1.0" encoding="UTF-8" standalone="no"?>
<svg
   height="16"
   viewBox="0 0 2.6458332 4.2333335"
   width="10"
   version="1.1"
   id="svg9"
   sodipodi:docname="grip.svg"
   inkscape:version="1.4.2 (ebf0e940d0, 2025-05-08)"
   xmlns:inkscape="http://www.inkscape.org/namespaces/inkscape"
   xmlns:sodipodi="http://sodipodi.sourceforge.net/DTD/sodipodi-0.dtd"
   xmlns="http://www.w3.org/2000/svg"
   xmlns:svg="http://www.w3.org/2000/svg"
   xmlns:rdf="http://www.w3.org/1999/02/22-rdf-syntax-ns#"
   xmlns:cc="http://creativecommons.org/ns#"
   xmlns:dc="http://purl.org/dc/elements/1.1/">
  <metadata
     id="metadata15">
    <rdf:RDF>
      <cc:Work
         rdf:about="">
        <dc:format>image/svg+xml</dc:format>
        <dc:type
           rdf:resource="http://purl.org/dc/dcmitype/StillImage" />
        <dc:title />
      </cc:Work>
    </rdf:RDF>
  </metadata>
  <defs
     id="defs13" />
  <sodipodi:namedview
     pagecolor="#ffffff"
     bordercolor="#666666"
     borderopacity="1"
     objecttolerance="10"
     gridtolerance="10"
     guidetolerance="10"
     inkscape:pageopacity="0"
     inkscape:pageshadow="2"
     inkscape:window-width="1920"
     inkscape:window-height="1011"
     id="namedview11"
     showgrid="true"
     inkscape:zoom="35.708892"
     inkscape:cx="0.43406555"
     inkscape:cy="9.1993893"
     inkscape:window-x="0"
     inkscape:window-y="0"
     inkscape:window-maximized="1"
     inkscape:current-layer="svg9"
     inkscape:document-rotation="0"
     inkscape:showpageshadow="2"
     inkscape:pagecheckerboard="0"
     inkscape:deskcolor="#d1d1d1">
    <inkscape:grid
       type="xygrid"
       id="grid840"
       originx="0"
       originy="0"
       spacingy="1"
       spacingx="1"
       units="px" />
  </sodipodi:namedview>
  <linearGradient
     id="a"
     gradientUnits="userSpaceOnUse"
     x1="1"
     x2="3"
     y1="8"
     y2="8">
    <stop
       offset="0"
       stop-color="#22a7f0"
       id="stop2" />
    <stop
       offset="1"
       stop-color="#19b5fe"
       id="stop4" />
  </linearGradient>
  <path
     id="path938"
     style="opacity:0.5;fill:#0000ff;fill-opacity:1;fill-rule:evenodd;stroke:none;stroke-width:0.529167;stroke-linecap:round;stroke-linejoin:round"
     d="M 0.66145833 0.26458333 A 0.39687499 0.39687499 0 0 0 0.26458333 0.66145833 A 0.39687499 0.39687499 0 0 0 0.66145833 1.0583333 A 0.39687499 0.39687499 0 0 0 1.0583333 0.66145833 A 0.39687499 0.39687499 0 0 0 0.66145833 0.26458333 z M 1.984375 0.26458333 A 0.39687499 0.39687499 0 0 0 1.5875 0.66145833 A 0.39687499 0.39687499 0 0 0 1.984375 1.0583333 A 0.39687499 0.39687499 0 0 0 2.38125 0.66145833 A 0.39687499 0.39687499 0 0 0 1.984375 0.26458333 z M 0.66145833 1.5875 A 0.39687499 0.39687499 0 0 0 0.26458333 1.984375 A 0.39687499 0.39687499 0 0 0 0.66145833 2.38125 A 0.39687499 0.39687499 0 0 0 1.0583333 1.984375 A 0.39687499 0.39687499 0 0 0 0.66145833 1.5875 z M 1.984375 1.5875 A 0.39687499 0.39687499 0 0 0 1.5875 1.984375 A 0.39687499 0.39687499 0 0 0 1.984375 2.38125 A 0.39687499 0.39687499 0 0 0 2.38125 1.984375 A 0.39687499 0.39687499 0 0 0 1.984375 1.5875 z M 0.66145833 2.9104167 A 0.39687499 0.39687499 0 0 0 0.26458333 3.3072916 A 0.39687499 0.39687499 0 0 0 0.66145833 3.7041666 A 0.39687499 0.39687499 0 0 0 1.0583333 3.3072916 A 0.39687499 0.39687499 0 0 0 0.66145833 2.9104167 z M 1.984375 2.9104167 A 0.39687499 0.39687499 0 0 0 1.5875 3.3072916 A 0.39687499 0.39687499 0 0 0 1.984375 3.7041666 A 0.39687499 0.39687499 0 0 0 2.38125 3.3072916 A 0.39687499 0.39687499 0 0 0 1.984375 2.9104167 z " />
</svg>
