<?xml version="1.0" encoding="UTF-8" standalone="no"?>
<svg
   xmlns:dc="http://purl.org/dc/elements/1.1/"
   xmlns:cc="http://creativecommons.org/ns#"
   xmlns:rdf="http://www.w3.org/1999/02/22-rdf-syntax-ns#"
   xmlns:svg="http://www.w3.org/2000/svg"
   xmlns="http://www.w3.org/2000/svg"
   xmlns:sodipodi="http://sodipodi.sourceforge.net/DTD/sodipodi-0.dtd"
   xmlns:inkscape="http://www.inkscape.org/namespaces/inkscape"
   height="32"
   viewBox="0 0 32 32"
   width="32"
   version="1.1"
   id="svg16"
   sodipodi:docname="transition-cover.svg"
   inkscape:version="1.0.1 (3bc2e813f5, 2020-09-07)">
  <metadata
     id="metadata22">
    <rdf:RDF>
      <cc:Work
         rdf:about="">
        <dc:format>image/svg+xml</dc:format>
        <dc:type
           rdf:resource="http://purl.org/dc/dcmitype/StillImage" />
      </cc:Work>
    </rdf:RDF>
  </metadata>
  <defs
     id="defs20" />
  <sodipodi:namedview
     pagecolor="#ffffff"
     bordercolor="#666666"
     borderopacity="1"
     objecttolerance="10"
     gridtolerance="10"
     guidetolerance="10"
     inkscape:pageopacity="0"
     inkscape:pageshadow="2"
     inkscape:window-width="1920"
     inkscape:window-height="1011"
     id="namedview18"
     showgrid="true"
     inkscape:zoom="17.854446"
     inkscape:cx="19.944477"
     inkscape:cy="10.423422"
     inkscape:window-x="0"
     inkscape:window-y="0"
     inkscape:window-maximized="1"
     inkscape:current-layer="svg16">
    <inkscape:grid
       type="xygrid"
       id="grid855" />
  </sodipodi:namedview>
  <path
     style="opacity:0.6;fill:#000000;stroke:#000000;stroke-width:2;stroke-linecap:butt;stroke-linejoin:miter;stroke-miterlimit:4;stroke-dasharray:none;stroke-opacity:1"
     d="m 2,6.9999999 c 0,-2 1.0000001,-2 3.0000001,-2 H 27 c 2,0 3,0 3,2 V 25 c 0,2 -1,2 -3,2 H 5.0000001 C 3.0000001,27 2,27 2,25 Z"
     id="path865"
     sodipodi:nodetypes="ccccccccc" />
  <path
     style="fill:#ffffff;stroke:none;stroke-width:1px;stroke-linecap:butt;stroke-linejoin:miter;stroke-opacity:1"
     d="m 2,6.9999999 c 0,-2 1.0000001,-2 3.0000001,-2 H 27 c 2,0 3,0 3,2 V 25 c 0,2 -1,2 -3,2 H 5.0000001 C 3.0000001,27 2,27 2,25 Z"
     id="path863"
     sodipodi:nodetypes="ccccccccc" />
  <path
     id="path877"
     style="fill:#762572"
     d="M 5 5 C 3 5 2 5 2 7 L 2 17 L 30 17 L 30 7 C 30 5 29 5 27 5 L 5 5 z " />
  <path
     style="fill:#762572"
     d="M 2,1 V 3 H 30 V 1 Z"
     id="path6" />
  <path
     style="fill:#762572"
     d="m 11,20 h 10 l -5,5 z"
     id="path8" />
  <path
     style="fill:#762572"
     d="m 13.99998,12.99997 h 4 V 22 h -4 z"
     id="path10" />
</svg>
