<?xml version="1.0" encoding="UTF-8" standalone="no"?>
<svg
   xmlns:dc="http://purl.org/dc/elements/1.1/"
   xmlns:cc="http://creativecommons.org/ns#"
   xmlns:rdf="http://www.w3.org/1999/02/22-rdf-syntax-ns#"
   xmlns:svg="http://www.w3.org/2000/svg"
   xmlns="http://www.w3.org/2000/svg"
   xmlns:sodipodi="http://sodipodi.sourceforge.net/DTD/sodipodi-0.dtd"
   xmlns:inkscape="http://www.inkscape.org/namespaces/inkscape"
   height="32"
   viewBox="0 0 32 32"
   width="32"
   version="1.1"
   id="svg20"
   sodipodi:docname="transition-diagonal-squares.svg"
   inkscape:version="1.0.1 (3bc2e813f5, 2020-09-07)">
  <metadata
     id="metadata26">
    <rdf:RDF>
      <cc:Work
         rdf:about="">
        <dc:format>image/svg+xml</dc:format>
        <dc:type
           rdf:resource="http://purl.org/dc/dcmitype/StillImage" />
      </cc:Work>
    </rdf:RDF>
  </metadata>
  <defs
     id="defs24" />
  <sodipodi:namedview
     pagecolor="#ffffff"
     bordercolor="#666666"
     borderopacity="1"
     objecttolerance="10"
     gridtolerance="10"
     guidetolerance="10"
     inkscape:pageopacity="0"
     inkscape:pageshadow="2"
     inkscape:window-width="1920"
     inkscape:window-height="1011"
     id="namedview22"
     showgrid="false"
     inkscape:zoom="17.854446"
     inkscape:cx="16.852528"
     inkscape:cy="16.785153"
     inkscape:window-x="0"
     inkscape:window-y="0"
     inkscape:window-maximized="1"
     inkscape:current-layer="svg20" />
  <path
     style="opacity:0.7;fill:#000000;stroke:#000000;stroke-width:2.0004;stroke-linecap:butt;stroke-linejoin:miter;stroke-miterlimit:4;stroke-dasharray:none;stroke-opacity:1"
     d="m 2.000201,6.9962724 c 0,-2.0008291 0.998981,-2.0008291 3.0010196,-2.0008291 H 27.000818 c 1.997961,0 2.998981,0 2.998981,2.0008291 V 25.003729 c 0,2.000828 -0.998981,2.000828 -2.998981,2.000828 H 5.0012206 c -1.9979616,0 -3.0010196,0 -3.0010196,-2.000828 z"
     id="path865"
     sodipodi:nodetypes="ccccccccc" />
  <path
     style="fill:#ffffff;stroke:none;stroke-width:1.0002px;stroke-linecap:butt;stroke-linejoin:miter;stroke-opacity:1"
     d="m 2.000201,6.9962724 c 0,-2.0008291 0.998981,-2.0008291 3.0010196,-2.0008291 H 27.000818 c 1.997961,0 2.998981,0 2.998981,2.0008291 V 25.003729 c 0,2.000828 -0.998981,2.000828 -2.998981,2.000828 H 5.0012206 c -1.9979616,0 -3.0010196,0 -3.0010196,-2.000828 z"
     id="path863"
     sodipodi:nodetypes="ccccccccc" />
  <path
     id="path6"
     style="fill:#77216F"
     d="M 6 5 L 6 8 L 10 8 L 10 12 L 14 12 L 14 16 L 18 16 L 18 20 L 22 20 L 22 24 L 26 24 L 26 27 L 27.164062 27 C 29.040956 26.998107 30 26.942208 30 25.003906 L 30 6.9960938 C 30 5.0577906 29.039222 5.0018929 27.164062 5 L 6 5 z " />
</svg>
