<?xml version="1.0" encoding="UTF-8" standalone="no"?>
<svg
   xmlns:dc="http://purl.org/dc/elements/1.1/"
   xmlns:cc="http://creativecommons.org/ns#"
   xmlns:rdf="http://www.w3.org/1999/02/22-rdf-syntax-ns#"
   xmlns:svg="http://www.w3.org/2000/svg"
   xmlns="http://www.w3.org/2000/svg"
   xmlns:sodipodi="http://sodipodi.sourceforge.net/DTD/sodipodi-0.dtd"
   xmlns:inkscape="http://www.inkscape.org/namespaces/inkscape"
   height="32"
   viewBox="0 0 32 32"
   width="32"
   version="1.1"
   id="svg118"
   sodipodi:docname="transition-static.svg"
   inkscape:version="1.0.1 (3bc2e813f5, 2020-09-07)">
  <metadata
     id="metadata124">
    <rdf:RDF>
      <cc:Work
         rdf:about="">
        <dc:format>image/svg+xml</dc:format>
        <dc:type
           rdf:resource="http://purl.org/dc/dcmitype/StillImage" />
      </cc:Work>
    </rdf:RDF>
  </metadata>
  <defs
     id="defs122" />
  <sodipodi:namedview
     pagecolor="#ffffff"
     bordercolor="#666666"
     borderopacity="1"
     objecttolerance="10"
     gridtolerance="10"
     guidetolerance="10"
     inkscape:pageopacity="0"
     inkscape:pageshadow="2"
     inkscape:window-width="1920"
     inkscape:window-height="1011"
     id="namedview120"
     showgrid="false"
     inkscape:zoom="25.25"
     inkscape:cx="18.844993"
     inkscape:cy="17.551301"
     inkscape:window-x="0"
     inkscape:window-y="0"
     inkscape:window-maximized="1"
     inkscape:current-layer="svg118" />
  <path
     style="opacity:0.6;fill:#000000;stroke:#000000;stroke-width:2.0004;stroke-linecap:butt;stroke-linejoin:miter;stroke-miterlimit:4;stroke-dasharray:none;stroke-opacity:1"
     d="m 2.0002007,6.996272 c 0,-2.0008287 0.9989808,-2.0008287 3.00102,-2.0008287 H 27.000818 c 1.997961,0 2.998981,0 2.998981,2.0008287 v 18.007457 c 0,2.000828 -0.998981,2.000828 -2.998981,2.000828 H 5.0012207 c -1.9979617,0 -3.00102,0 -3.00102,-2.000828 z"
     id="path865"
     sodipodi:nodetypes="ccccccccc" />
  <path
     style="fill:#ffffff;stroke:none;stroke-width:1.0002px;stroke-linecap:butt;stroke-linejoin:miter;stroke-opacity:1"
     d="m 2.0002007,6.996272 c 0,-2.0008287 0.9989808,-2.0008287 3.00102,-2.0008287 H 27.000818 c 1.997961,0 2.998981,0 2.998981,2.0008287 v 18.007457 c 0,2.000828 -0.998981,2.000828 -2.998981,2.000828 H 5.0012207 c -1.9979617,0 -3.00102,0 -3.00102,-2.000828 z"
     id="path863"
     sodipodi:nodetypes="ccccccccc" />
  <path
     id="path6"
     style="fill:#762572"
     d="M 4.8378906 5 C 3.3656206 5.0014789 2.4607297 5.0512999 2.1425781 6 L 6 6 L 6 5 L 4.8378906 5 z M 7 5 L 7 6 L 11 6 L 11 5 L 7 5 z M 12 5 L 12 6 L 16 6 L 16 5 L 12 5 z M 17 5 L 17 6 L 21 6 L 21 5 L 17 5 z M 22 5 L 22 6 L 26 6 L 26 5 L 22 5 z M 27 5 L 27 6 L 29.857422 6 C 29.538913 5.0513579 28.63336 5.0014832 27.164062 5 L 27 5 z M 2 8 L 2 9 L 5 9 L 5 8 L 2 8 z M 6 8 L 6 9 L 10 9 L 10 8 L 6 8 z M 11 8 L 11 9 L 15 9 L 15 8 L 11 8 z M 16 8 L 16 9 L 20 9 L 20 8 L 16 8 z M 21 8 L 21 9 L 25 9 L 25 8 L 21 8 z M 26 8 L 26 9 L 30 9 L 30 8 L 26 8 z M 2 11 L 2 12 L 6 12 L 6 11 L 2 11 z M 7 11 L 7 12 L 11 12 L 11 11 L 7 11 z M 12 11 L 12 12 L 16 12 L 16 11 L 12 11 z M 17 11 L 17 12 L 21 12 L 21 11 L 17 11 z M 22 11 L 22 12 L 26 12 L 26 11 L 22 11 z M 27 11 L 27 12 L 30 12 L 30 11 L 27 11 z M 3 13 L 3 14 L 7 14 L 7 13 L 3 13 z M 8 13 L 8 14 L 12 14 L 12 13 L 8 13 z M 13 13 L 13 14 L 17 14 L 17 13 L 13 13 z M 18 13 L 18 14 L 22 14 L 22 13 L 18 13 z M 23 13 L 23 14 L 27 14 L 27 13 L 23 13 z M 28 13 L 28 14 L 30 14 L 30 13 L 28 13 z M 2 15 L 2 16 L 5 16 L 5 15 L 2 15 z M 6 15 L 6 16 L 10 16 L 10 15 L 6 15 z M 11 15 L 11 16 L 15 16 L 15 15 L 11 15 z M 16 15 L 16 16 L 20 16 L 20 15 L 16 15 z M 21 15 L 21 16 L 25 16 L 25 15 L 21 15 z M 26 15 L 26 16 L 30 16 L 30 15 L 26 15 z M 2 17 L 2 18 L 6 18 L 6 17 L 2 17 z M 7 17 L 7 18 L 11 18 L 11 17 L 7 17 z M 12 17 L 12 18 L 16 18 L 16 17 L 12 17 z M 17 17 L 17 18 L 21 18 L 21 17 L 17 17 z M 22 17 L 22 18 L 26 18 L 26 17 L 22 17 z M 27 17 L 27 18 L 30 18 L 30 17 L 27 17 z M 2 19 L 2 20 L 3 20 L 3 19 L 2 19 z M 4 19 L 4 20 L 8 20 L 8 19 L 4 19 z M 9 19 L 9 20 L 13 20 L 13 19 L 9 19 z M 14 19 L 14 20 L 18 20 L 18 19 L 14 19 z M 19 19 L 19 20 L 23 20 L 23 19 L 19 19 z M 24 19 L 24 20 L 28 20 L 28 19 L 24 19 z M 29 19 L 29 20 L 30 20 L 30 19 L 29 19 z M 2 22 L 2 23 L 5 23 L 5 22 L 2 22 z M 6 22 L 6 23 L 10 23 L 10 22 L 6 22 z M 11 22 L 11 23 L 15 23 L 15 22 L 11 22 z M 16 22 L 16 23 L 20 23 L 20 22 L 16 22 z M 21 22 L 21 23 L 25 23 L 25 22 L 21 22 z M 26 22 L 26 23 L 30 23 L 30 22 L 26 22 z M 2.1425781 26 C 2.4616 26.948642 3.3684985 26.998517 4.8378906 27 L 6 27 L 6 26 L 2.1425781 26 z M 7 26 L 7 27 L 11 27 L 11 26 L 7 26 z M 12 26 L 12 27 L 16 27 L 16 26 L 12 26 z M 17 26 L 17 27 L 21 27 L 21 26 L 17 26 z M 22 26 L 22 27 L 26 27 L 26 26 L 22 26 z M 27 26 L 27 27 L 27.164062 27 C 28.634719 26.998517 29.539358 26.948642 29.857422 26 L 27 26 z " />
</svg>
