<?xml version="1.0" encoding="UTF-8" standalone="no"?>
<svg
   xmlns:dc="http://purl.org/dc/elements/1.1/"
   xmlns:cc="http://creativecommons.org/ns#"
   xmlns:rdf="http://www.w3.org/1999/02/22-rdf-syntax-ns#"
   xmlns:svg="http://www.w3.org/2000/svg"
   xmlns="http://www.w3.org/2000/svg"
   xmlns:sodipodi="http://sodipodi.sourceforge.net/DTD/sodipodi-0.dtd"
   xmlns:inkscape="http://www.inkscape.org/namespaces/inkscape"
   height="32"
   viewBox="0 0 32 32"
   width="32"
   version="1.1"
   id="svg18"
   sodipodi:docname="transition-revolving-circles.svg"
   inkscape:version="1.0.1 (3bc2e813f5, 2020-09-07)">
  <metadata
     id="metadata24">
    <rdf:RDF>
      <cc:Work
         rdf:about="">
        <dc:format>image/svg+xml</dc:format>
        <dc:type
           rdf:resource="http://purl.org/dc/dcmitype/StillImage" />
      </cc:Work>
    </rdf:RDF>
  </metadata>
  <defs
     id="defs22" />
  <sodipodi:namedview
     pagecolor="#ffffff"
     bordercolor="#666666"
     borderopacity="1"
     objecttolerance="10"
     gridtolerance="10"
     guidetolerance="10"
     inkscape:pageopacity="0"
     inkscape:pageshadow="2"
     inkscape:window-width="1920"
     inkscape:window-height="1011"
     id="namedview20"
     showgrid="false"
     inkscape:zoom="25.25"
     inkscape:cx="16"
     inkscape:cy="16"
     inkscape:window-x="0"
     inkscape:window-y="0"
     inkscape:window-maximized="1"
     inkscape:current-layer="svg18" />
  <path
     style="opacity:0.7;fill:#000000;stroke:#000000;stroke-width:2.0004;stroke-linecap:butt;stroke-linejoin:miter;stroke-miterlimit:4;stroke-dasharray:none;stroke-opacity:1"
     d="m 2.0002008,6.9962719 c 0,-2.0008287 0.9989808,-2.0008287 3.0010199,-2.0008287 H 27.000818 c 1.997961,0 2.998981,0 2.998981,2.0008287 V 25.003729 c 0,2.000828 -0.998981,2.000828 -2.998981,2.000828 H 5.0012207 c -1.9979616,0 -3.00102,0 -3.00102,-2.000828 z"
     id="path865"
     sodipodi:nodetypes="ccccccccc" />
  <path
     style="fill:#ffffff;stroke:none;stroke-width:1.0002px;stroke-linecap:butt;stroke-linejoin:miter;stroke-opacity:1"
     d="m 2.0002008,6.9962719 c 0,-2.0008287 0.9989808,-2.0008287 3.0010199,-2.0008287 H 27.000818 c 1.997961,0 2.998981,0 2.998981,2.0008287 V 25.003729 c 0,2.000828 -0.998981,2.000828 -2.998981,2.000828 H 5.0012207 c -1.9979616,0 -3.00102,0 -3.00102,-2.000828 z"
     id="path863"
     sodipodi:nodetypes="ccccccccc" />
  <g
     fill="#77216F"
     id="g16">
    <circle
       cx="15.999969"
       cy="15.999969"
       r="2"
       id="circle6" />
    <path
       d="m16 6a6 10 0 0 0 -6 10 6 10 0 0 0 6 10 6 10 0 0 0 6-10 6 10 0 0 0 -6-10zm0 1a5 9 0 0 1 5 9 5 9 0 0 1 -5 9 5 9 0 0 1 -5-9 5 9 0 0 1 5-9z"
       id="path8" />
    <path
       d="m16 10a12 6 0 0 0 -12 6 12 6 0 0 0 12 6 12 6 0 0 0 12-6 12 6 0 0 0 -12-6zm0 1a11 5 0 0 1 11 5 11 5 0 0 1 -11 5 11 5 0 0 1 -11-5 11 5 0 0 1 11-5z"
       id="path10" />
    <path
       d="m12.46447 12.46447a5 12 45 0 0 -4.94975 12.02081 5 12 45 0 0 12.02081-4.94975 5 12 45 0 0 4.94975-12.02081 5 12 45 0 0 -12.02081 4.94975zm.7071.7071a4 11 45 0 1 10.6066-4.94974 4 11 45 0 1 -4.94974 10.6066 4 11 45 0 1 -10.6066 4.94974 4 11 45 0 1 4.94974-10.6066z"
       id="path12" />
    <path
       d="m18.82843 13.17157a12 4 45 0 0 -11.31371-5.65685 12 4 45 0 0 5.65685 11.31371 12 4 45 0 0 11.31371 5.65685 12 4 45 0 0 -5.65685-11.31371zm-.70711.70711a11 3 45 0 1 5.65685 9.89949 11 3 45 0 1 -9.89949-5.65685 11 3 45 0 1 -5.65685-9.89949 11 3 45 0 1 9.89949 5.65685z"
       id="path14" />
  </g>
</svg>
