<?xml version="1.0" encoding="UTF-8" standalone="no"?>
<svg
   xmlns:dc="http://purl.org/dc/elements/1.1/"
   xmlns:cc="http://creativecommons.org/ns#"
   xmlns:rdf="http://www.w3.org/1999/02/22-rdf-syntax-ns#"
   xmlns:svg="http://www.w3.org/2000/svg"
   xmlns="http://www.w3.org/2000/svg"
   xmlns:sodipodi="http://sodipodi.sourceforge.net/DTD/sodipodi-0.dtd"
   xmlns:inkscape="http://www.inkscape.org/namespaces/inkscape"
   height="32"
   viewBox="0 0 32 32"
   width="32"
   version="1.1"
   id="svg20"
   sodipodi:docname="transition-venetian-blinds.svg"
   inkscape:version="1.0.1 (3bc2e813f5, 2020-09-07)">
  <metadata
     id="metadata26">
    <rdf:RDF>
      <cc:Work
         rdf:about="">
        <dc:format>image/svg+xml</dc:format>
        <dc:type
           rdf:resource="http://purl.org/dc/dcmitype/StillImage" />
      </cc:Work>
    </rdf:RDF>
  </metadata>
  <defs
     id="defs24" />
  <sodipodi:namedview
     pagecolor="#ffffff"
     bordercolor="#666666"
     borderopacity="1"
     objecttolerance="10"
     gridtolerance="10"
     guidetolerance="10"
     inkscape:pageopacity="0"
     inkscape:pageshadow="2"
     inkscape:window-width="1920"
     inkscape:window-height="1011"
     id="namedview22"
     showgrid="false"
     inkscape:zoom="17.854446"
     inkscape:cx="16.761553"
     inkscape:cy="16.625723"
     inkscape:window-x="0"
     inkscape:window-y="0"
     inkscape:window-maximized="1"
     inkscape:current-layer="svg20" />
  <path
     style="opacity:0.6;fill:#000000;stroke:#000000;stroke-width:2.0004;stroke-linecap:butt;stroke-linejoin:miter;stroke-miterlimit:4;stroke-dasharray:none;stroke-opacity:1"
     d="m 2.000201,6.9962721 c 0,-2.0008287 0.998981,-2.0008287 3.00102,-2.0008287 h 21.999597 c 1.997961,0 2.998981,0 2.998981,2.0008287 V 25.003729 c 0,2.000828 -0.998981,2.000828 -2.998981,2.000828 H 5.001221 c -1.997961,0 -3.00102,0 -3.00102,-2.000828 z"
     id="path865"
     sodipodi:nodetypes="ccccccccc" />
  <path
     style="fill:#ffffff;stroke:none;stroke-width:1.0002px;stroke-linecap:butt;stroke-linejoin:miter;stroke-opacity:1"
     d="m 2.000201,6.9962721 c 0,-2.0008287 0.998981,-2.0008287 3.00102,-2.0008287 h 21.999597 c 1.997961,0 2.998981,0 2.998981,2.0008287 V 25.003729 c 0,2.000828 -0.998981,2.000828 -2.998981,2.000828 H 5.001221 c -1.997961,0 -3.00102,0 -3.00102,-2.000828 z"
     id="path863"
     sodipodi:nodetypes="ccccccccc" />
  <path
     id="path6"
     style="fill:#762572"
     d="M 4.8378906 5 C 2.9589087 5.0018387 2 5.057698 2 6.9960938 L 2 25.003906 C 2 26.942208 2.9625571 26.998156 4.8378906 27 L 6 27 L 6 17 L 7 17 L 7 19 L 10 16 L 7 13 L 7 15 L 6 15 L 6 5 L 4.8378906 5 z M 11 5 L 11 27 L 15 27 L 15 17 L 17 17 L 17 19 L 20 16 L 17 13 L 17 15 L 15 15 L 15 5 L 11 5 z M 21 5 L 21 27 L 25 27 L 25 17 L 26 17 L 26 19 L 29 16 L 26 13 L 26 15 L 25 15 L 25 5 L 21 5 z " />
</svg>
