<?xml version="1.0" encoding="UTF-8" standalone="no"?>
<svg
   xmlns:dc="http://purl.org/dc/elements/1.1/"
   xmlns:cc="http://creativecommons.org/ns#"
   xmlns:rdf="http://www.w3.org/1999/02/22-rdf-syntax-ns#"
   xmlns:svg="http://www.w3.org/2000/svg"
   xmlns="http://www.w3.org/2000/svg"
   xmlns:sodipodi="http://sodipodi.sourceforge.net/DTD/sodipodi-0.dtd"
   xmlns:inkscape="http://www.inkscape.org/namespaces/inkscape"
   height="32"
   viewBox="0 0 32 32"
   width="32"
   version="1.1"
   id="svg58"
   sodipodi:docname="transition-honeycomb.svg"
   inkscape:version="1.0.1 (3bc2e813f5, 2020-09-07)">
  <metadata
     id="metadata64">
    <rdf:RDF>
      <cc:Work
         rdf:about="">
        <dc:format>image/svg+xml</dc:format>
        <dc:type
           rdf:resource="http://purl.org/dc/dcmitype/StillImage" />
      </cc:Work>
    </rdf:RDF>
  </metadata>
  <defs
     id="defs62" />
  <sodipodi:namedview
     pagecolor="#ffffff"
     bordercolor="#666666"
     borderopacity="1"
     objecttolerance="10"
     gridtolerance="10"
     guidetolerance="10"
     inkscape:pageopacity="0"
     inkscape:pageshadow="2"
     inkscape:window-width="1920"
     inkscape:window-height="1011"
     id="namedview60"
     showgrid="false"
     inkscape:zoom="25.25"
     inkscape:cx="16"
     inkscape:cy="16"
     inkscape:window-x="0"
     inkscape:window-y="0"
     inkscape:window-maximized="1"
     inkscape:current-layer="svg58" />
  <path
     style="opacity:0.6;fill:#000000;stroke:#000000;stroke-width:2.0004;stroke-linecap:butt;stroke-linejoin:miter;stroke-miterlimit:4;stroke-dasharray:none;stroke-opacity:1"
     d="m 2.0002009,6.9962717 c 0,-2.0008287 0.9989808,-2.0008287 3.0010199,-2.0008287 H 27.000818 c 1.997961,0 2.998981,0 2.998981,2.0008287 V 25.00373 c 0,2.000828 -0.998981,2.000828 -2.998981,2.000828 H 5.0012208 c -1.9979616,0 -3.0010199,0 -3.0010199,-2.000828 z"
     id="path865"
     sodipodi:nodetypes="ccccccccc" />
  <path
     style="fill:#ffffff;stroke:none;stroke-width:1.0002px;stroke-linecap:butt;stroke-linejoin:miter;stroke-opacity:1"
     d="m 2.0002009,6.9962717 c 0,-2.0008287 0.9989808,-2.0008287 3.0010199,-2.0008287 H 27.000818 c 1.997961,0 2.998981,0 2.998981,2.0008287 V 25.00373 c 0,2.000828 -0.998981,2.000828 -2.998981,2.000828 H 5.0012208 c -1.9979616,0 -3.0010199,0 -3.0010199,-2.000828 z"
     id="path863"
     sodipodi:nodetypes="ccccccccc" />
  <g
     fill="#762572"
     id="g56">
    <g
       fill-rule="evenodd"
       id="g50">
      <path
         d="m8.57201 13.94802-2.19068-.44829-.51763-1.93185 1.67303-1.48356 2.19067.44828.51764 1.93186z"
         id="path6" />
      <path
         d="m12.43571 12.91275-2.19067-.44828-.51764-1.93186 1.67303-1.48356 2.19067.44829.51764 1.93185z"
         id="path8" />
      <path
         d="m16.29942 11.87748-2.19067-.44829-.51764-1.93185 1.67304-1.48357 2.19067.44829.51763 1.93185z"
         id="path10" />
      <path
         d="m15.14402 15.29289-2.19067-.44829-.51764-1.93185 1.67303-1.48356 2.19067.44829.51764 1.93185z"
         id="path12" />
      <path
         d="m19.00772 14.25762-2.19067-.44829-.51764-1.93185 1.67303-1.48357 2.19068.44829.51763 1.93185z"
         id="path14" />
      <path
         d="m10.12493 19.74358-2.19067-.44828-.51764-1.93186 1.67303-1.48356 2.19067.44829.51764 1.93185z"
         id="path16" />
      <path
         d="m13.98863 18.70831-2.19067-.44829-.51764-1.93185 1.67304-1.48357 2.19067.44829.51764 1.93185z"
         id="path18" />
      <path
         d="m17.85233 17.67302-2.19067-.44829-.51764-1.93185 1.67303-1.48356 2.19067.44829.51764 1.93185z"
         id="path20" />
      <path
         d="m12.83324 22.12372-2.19067-.44828-.51764-1.93186 1.67303-1.48356 2.19067.44829.51764 1.93185z"
         id="path22" />
      <path
         d="m16.69693 21.08845-2.19067-.44829-.51764-1.93185 1.67304-1.48357 2.19067.44829.51763 1.93185z"
         id="path24" />
      <path
         d="m21.71604 16.63776-2.19067-.44829-.51764-1.93185 1.67303-1.48357 2.19067.44829.51764 1.93185z"
         id="path26" />
      <path
         d="m22.87142 13.22234-2.19067-.44829-.51763-1.93185 1.67303-1.48356 2.19067.44828.51764 1.93186z"
         id="path28" />
      <path
         d="m20.16312 10.84219-2.19068-.44829-.51763-1.93185 1.67303-1.48356 2.19067.44829.51764 1.93185z"
         id="path30" />
      <path
         d="m8.96953 23.15899-2.19068-.44829-.51763-1.93185 1.67303-1.48356 2.19067.44828.51764 1.93186z"
         id="path32" />
      <path
         d="m7.41662 17.36344-2.19067-.44828-.51764-1.93185 1.67303-1.48357 2.19068.44829.51763 1.93185z"
         id="path34" />
      <path
         d="m24.02682 9.80693-2.19067-.44829-.51763-1.93185 1.67303-1.48356 2.19067.44828.51764 1.93186z"
         id="path36" />
      <path
         d="m6.26122 20.77886-2.19068-.44829-.51763-1.93185 1.67303-1.48356 2.19067.44828.51764 1.93186z"
         id="path38" />
      <path
         d="m4.70831 14.98331-2.19068-.44829-.51763-1.93185 1.67303-1.48356 2.19067.44828.51764 1.93186z"
         id="path40" />
      <path
         d="m26.73513 12.18705-2.19068-.44829-.51763-1.93185 1.67303-1.48356 2.19067.44828.51764 1.93186z"
         id="path42" />
      <path
         d="m25.57974 15.60247-2.19068-.44829-.51763-1.93185 1.67303-1.48356 2.19067.44828.51764 1.93186z"
         id="path44" />
      <path
         d="m11.67784 25.53913-2.19068-.44829-.51763-1.93185 1.67303-1.48356 2.19067.44828.51764 1.93186z"
         id="path46" />
      <path
         d="m15.54154 24.50385-2.19068-.44829-.51763-1.93185 1.67303-1.48356 2.19067.44828.51764 1.93186z"
         id="path48" />
    </g>
    <path
       d="m16 10.24219v1.99414a6.0000001 6.0000001 0 0 1 3.28906.94531 6.0000001 6.0000001 0 0 1 1.81641 8.28906l1.68555 1.07813a8.0000001 8.0000001 0 0 0 -2.42383-11.05078 8.0000001 8.0000001 0 0 0 -4.36719-1.25586z"
       id="path52" />
    <path
       d="m24.47497 23.62696-5.05311-3.23513.90899 4.14413z"
       fill-rule="evenodd"
       id="path54" />
  </g>
</svg>
