<svg xmlns="http://www.w3.org/2000/svg" viewBox="0 0 32 32"><path style="fill:#000;stroke:#000;opacity:.7;stroke-width:2;stroke-miterlimit:4;stroke-dasharray:none;stroke-linejoin:round" fill="#232629" d="M16 4a12 6 0 0 0-12 6 12 6 0 0 0 12 6 12 6 0 0 0 12-6 12 6 0 0 0-12-6zM4 11.5V22c0 3.314 5.373 6 12 6s12-2.686 12-6V11.5l-.05.008A12 6 0 0 1 16 17a12 6 0 0 1-11.951-5.492L4 11.5z"/><path d="M16 4a12 6 0 0 0-12 6 12 6 0 0 0 12 6 12 6 0 0 0 12-6 12 6 0 0 0-12-6zM4 11.5V22c0 3.314 5.373 6 12 6s12-2.686 12-6V11.5l-.05.008A12 6 0 0 1 16 17a12 6 0 0 1-11.951-5.492L4 11.5z" fill="#232629" style="fill:#fff"/></svg>