<svg xmlns="http://www.w3.org/2000/svg" viewBox="0 0 32 32"><path d="M4 24l23-14v14z" opacity=".7" stroke="#000" stroke-width="2" stroke-linejoin="round"/><path d="M4 24l23-14v14z" fill="#fff"/><circle r="4.8" cy="22" cx="24" opacity=".7" stroke="#000" stroke-width="2.4" stroke-linejoin="round"/><circle cx="24" cy="22" r="5" fill="#fff"/><path d="M22.928 17.001c-.057-.013-.09.101-.158.134a.372.372 0 01-.16.032c-.024-.011-.06-.016-.063-.066-.003-.034.027-.052.048-.075a5.024 5.278 0 00-.708.278c-.052.158-.199.236-.386.231-.047.047-.007.135-.033.2-.021.054-.106.104-.158.1-.037 0-.095-.063-.095-.1 0-.032.023-.047.03-.069a5.024 5.278 0 00-.61.5c.041.045.078.103.01.134a.493.493 0 01-.158.035c-.005 0-.01-.01-.015-.016a5.024 5.278 0 00-1.091 1.653c.036.013.06.06.092.062.093.01.113-.092.19-.134.08.011.118-.011.19 0 .05.01.12.061.158.065.032 0 .032-.035.062-.03.03.01.09.06.096.1.005.047-.043.112-.03.165.048.05.152.07.22.1.045-.04.007-.11 0-.166-.001-.024.003-.077 0-.1-.005-.038-.03-.067-.03-.1 0-.152.123-.209.22-.268.042-.026.091-.081.128-.1.052-.027.085-.01.128-.032.077-.046.13-.116.19-.168.028-.07-.003-.163 0-.232.028-.018.066 0 .095 0 .047-.01.07-.072.096-.1.015-.015.044-.018.062-.034.047-.038.055-.083.095-.1a.247.247 0 01.063-.034c.03-.01.079-.012.127-.031.032-.012.116-.02.128-.035.016-.016-.004-.075 0-.1.025-.12.183-.125.286-.165.07-.028.14-.115.22-.1-.015.057-.076.062-.063.131.018.097.125-.017.158-.031.062-.028.174-.068.256-.1.07-.027.192-.048.125-.135-.056-.01-.077.046-.125.066-.034.01-.037-.028-.066-.031-.027 0-.035.036-.062.031-.028-.01-.059-.065-.063-.1-.01-.09.061-.099.096-.165-.024-.082-.126-.035-.19-.066a.121.121 0 01.094-.103.356.356 0 01.19.034c.016.014-.023.045 0 .066.027.024.061.01.096 0 .012-.061-.076-.026-.066-.066.07-.047.202-.022.286-.034a.687.687 0 00.16-.066c.041-.024.053-.072.096-.031.012.044-.01.077-.033.1-.078.072-.162.147-.223.231.037.038.098.027.16.034.025.011.07 0 .096 0 .03.011.067-.01.092 0 .042.011.052.1.095.1.069 0 .04-.086 0-.134.012-.05.05-.096.033-.131-.032-.066-.152.02-.158-.066-.004-.053.044-.06.063-.1-.009-.102.072-.107.062-.2-.005-.038-.037-.032-.062-.068-.014-.02-.018-.085-.033-.1-.053-.047-.152-.01-.158-.1-.003-.053.007-.109 0-.166-.007-.054-.05-.223-.095-.234zm3.399.437c.026.018.042.07.089.097.018.01.016.022.033.031.03.017.068.036.062.066-.008.043-.067.034-.095.066.004.061-.047.061-.062.103.009.026.058.034.062.065-.005.034-.075.032-.062.066.054.045.105.01.157 0 .114-.015.216-.01.286-.066-.007-.042.043-.053.071-.075a5.024 5.278 0 00-.541-.353zm-.164.028c-.018.011-.016.024-.032.035-.039.024-.066.055-.096.065-.041.016-.089.027-.095.066-.005.033.034.036.033.066-.015.039-.025.055-.033.103.052.088.16-.02.223-.035.029-.01.047-.012.063-.034.017-.029.02-.06.032-.1.014-.045.068-.06.063-.1-.004-.04-.095-.07-.158-.066zm.794.397c-.021.01-.046.022-.065.034-.029.02-.063.045-.095.066-.024.017-.071.1-.096.1-.029 0-.073-.038-.095-.031-.03.01-.028.054-.062.065-.067.026-.2-.038-.223.066.028.06.14.033.19.066a.33.33 0 01.095.134.662.662 0 010 .2c-.031.085-.126.067-.22.065h-.065c-.157-.01-.31-.084-.38.035.004.09.019.152 0 .231-.015.058-.099.119-.096.169.001.025.06.063.065.1.004.019-.008.047 0 .065.027.052.079-.01.125 0 .045.01.096.08.096.131a.288.288 0 01-.03.135c-.045.07-.127.061-.19.1-.053.032-.064.113-.096.168-.033.06-.078.08-.065.166a.38.38 0 01-.19.2c-.028.013-.07.012-.096.031-.02.015-.034.069-.062.103-.036.042-.076.068-.095.1-.014.025-.018.066-.033.1-.022.045-.067.055-.095.1-.013.021-.016.072-.03.1-.032.062-.071.111-.065.166.005.05.062.053.065.1.003.025-.033.037-.032.065 0 .04.03.071.032.103.007.08-.051.112-.065.166-.007.025.006.045 0 .065-.012.04-.062.088-.063.135 0 .033.06.053.063.1.002.03-.036.07-.03.1.011.057.115.12.158.165.058.06.132.105.157.169.022.054.026.16.066.2.03.03.087.034.125.065.035.03.057.035.095.066.062.051.157.173.255.165.052-.01.1-.056.158-.065.06-.01.13-.04.19-.034.047.01.11.037.158.034.05-.01.103-.012.16-.034.101-.046.265-.122.41-.1.113.017.113.147.191.2.09.01.152-.019.223 0 .054.013.123.089.128.134.005.046-.06.105-.065.134-.014.062.01.126 0 .166-.008.03-.031.069-.03.1 0 .027.035.098.062.134.034.045.088.083.128.131.074.09.106.182.158.3.013.03-.012.065 0 .103-.022.18-.079.302-.19.5-.053.064-.13.12-.128.2-.004.192.103.314.095.5-.018.249.018.266 0 .4.08.042.023.176 0 .265-.035.105-.076.13-.095.2.034.016.079.005.122 0A5.024 5.278 0 0029 22.099a5.024 5.278 0 00-.553-2.402c-.01.009-.03.011-.033.034-.01.06.023.158-.062.169-.054.01-.116-.048-.19-.066-.031-.01-.071.011-.096 0-.056-.019-.047-.099-.095-.134a.466.466 0 00-.157-.066c-.028 0-.037.011-.066 0-.034-.01-.096.015-.125 0a.335.335 0 01-.095-.1c-.011-.04.093-.066.095-.1.002-.025-.028-.063-.032-.103-.004-.023.005-.05 0-.065-.008-.028-.054-.03-.096-.032h-.38c-.089.011-.154-.01-.223 0-.05 0-.144.045-.19.066-.024.012-.033.015-.063.031a.43.43 0 01-.062.035c-.029.014-.068.057-.096.065-.04.011-.088-.01-.16 0-.052 0-.124-.035-.125-.1-.001-.099.163-.047.253-.065.033-.011.054-.04.095-.066.02-.012.014-.021.033-.034.03-.023.09-.075.095-.1.004-.024-.003-.048 0-.066.004-.022.035-.036.062-.065.043-.045.075-.106.128-.135.036-.019.079-.035.095-.065.004-.034 0-.034 0-.066a.131.131 0 01.063-.034c.054-.013.093 0 .157 0 .028 0 .066.014.095 0 .025-.017.041-.054.066-.066a.247.247 0 01.095-.034c.08-.011.121.08.158.13.03.043.107.106.157.135.029.016.064.052.095.066.066.03.188.132.19.2.002.034-.034.068-.03.1.04.008.061-.055.075-.103a5.024 5.278 0 00-1.12-1.2zm1.047 1.303h-.128c-.045 0-.101-.025-.128 0 .038.064.106.084.19.1a.206.206 0 00.066-.1zm-7.202-.831c.024 0 .037.064.065.065.028 0 .047-.038.063-.034.042.012.073.101.033.134-.034.011-.042-.038-.066-.034-.069.013-.106.173-.158.169-.048-.011-.082-.132-.032-.169 0-.032-.002-.033 0-.066.015-.019.054-.068.095-.065zm-.253.031c.014 0 .028-.01.033 0-.007.057-.024.073-.066.1a.32.32 0 00-.157.2c-.007.029-.093.107-.128.1-.08-.018.047-.176.065-.2.02-.027.04-.036.063-.066.023-.03.04-.083.062-.1a.244.244 0 01.128-.03zm.509.2h.095c.025 0 .052-.01.062 0-.016.07-.17.06-.223.034.003-.026.033-.03.066-.034zm-.223.134c-.045.034-.088.077-.158.1-.039.013-.088.01-.095-.034-.008-.056.06-.026.095-.031.045-.011.106-.033.158-.035zm6.598 0c-.034.012-.05.09 0 .1.023-.015.036-.054.03-.1-.014-.015-.02-.01-.03 0zm-.065.166c0 .06.01.117 0 .169.032.066.111.01.127-.035.02-.11-.013-.148-.062-.134-.016.01-.048-.014-.065 0zm-7.8 1.899c-.084.01-.142.012-.19.034-.11.053-.08.198-.19.235a.908.908 0 01-.129.03c-.003.003-.008 0-.011 0a5.024 5.278 0 00-.048.338c.038.048.069.104.122.131.025.014.063.023.095.032.026.01.037-.011.063 0 .053.019.117.045.16.065.065.03.135.135.19.169.003.034-.01.074 0 .1.027.037.053.074.096.1.051.03.076.076.124.1.018.01.04-.01.066 0 .067.021.1.118.157.1.038-.012.027-.062.033-.1.026-.029.056-.066.095-.066.063 0 .072.102.095.166.014.036.054.061.063.1.015.066.013.26 0 .3-.016.049-.09.045-.128.1-.018.025-.016.081-.03.1-.024.03-.047.04-.065.068-.01.016-.02.045-.03.066-.03.068-.09.118-.065.2.01.033.065.06.065.1 0 .047-.088.083-.095.134-.005.037.019.081.03.131.008.038.074.076.095.1.035.042.063.116.095.169.064.103.098.23.16.331.034.052.103.079.126.134.01.028-.01.075 0 .1.036.087.203.192.285.235.039.02.092.01.128.03a.706.706 0 01.19.17c.025.044.02.16.033.23.015.095-.004.168 0 .27.003.055.03.075.03.13v.1c-.001.067.005.133 0 .2a.666.666 0 000 .1c.003.033.03.04.032.07.002.03-.036.075-.032.099.007.067.053.103.065.166.01.049.036.175.03.234-.004.03-.026.065-.03.1-.003.025.002.039 0 .06a5.024 5.278 0 00.874.474c-.008-.014-.019-.028-.018-.04.053-.024.152.078.19 0 .02-.038-.025-.129 0-.166.019-.026.12-.024.158-.031.054-.011.13-.02.16-.035.034-.022.07-.1.063-.165-.003-.031-.039-.041-.062-.069-.02-.024.013-.044 0-.066-.024-.037-.085-.045-.095-.1.073-.014.18.066.285.035.05-.015.134-.117.158-.166.007-.015-.008-.05 0-.069.009-.019.03-.056.033-.065.007-.029-.007-.012 0-.031.018-.055.061-.096.092-.135.023-.03.074-.069.095-.1.024-.033.016-.035.033-.065.015-.097-.055-.184-.033-.269.024-.096.167-.156.256-.2.03-.015.07-.021.095-.031.06-.022.133-.045.19-.066.095-.036.11-.108.158-.2.022-.042.058-.103.062-.134.004-.028-.005-.033 0-.065.005-.031-.008-.064 0-.1a1.16 1.16 0 00.033-.2c0-.043-.032-.062-.033-.1-.007-.139.047-.125.095-.2.025-.038.049-.108.066-.135.082-.127.23-.171.22-.365-.004-.064-.05-.214-.095-.234-.026-.012-.058-.02-.096-.035-.12-.047-.223-.189-.348-.2h-.062c-.049 0-.106-.023-.16-.03-.035-.012-.105.01-.125 0-.032-.017-.04-.083-.066-.1-.02-.016-.064-.023-.095-.035-.05-.02-.067-.063-.125-.066-.018 0-.045.011-.065 0-.032-.01-.063-.015-.093-.034-.036-.024-.08-.033-.095-.066.034-.115-.073-.132-.095-.2-.01-.03.01-.103 0-.13-.013-.04-.053-.07-.095-.104a.374.374 0 00-.223-.1c-.047-.01-.102.01-.158 0a.356.356 0 01-.19-.1c-.043-.052-.058-.106-.095-.131-.036-.023-.07-.045-.095-.069-.011-.01-.023-.009-.033-.031-.018-.04-.055-.052-.033-.1-.04-.021-.018.039-.062.031-.04-.058-.068-.116-.158-.1-.04.011-.08.1-.128.1-.04 0-.076-.091-.127-.1-.04-.01-.098.04-.125.035-.044-.011-.056-.038-.095-.066-.03-.02-.08-.067-.096-.065-.05 0-.09.105-.16.065-.035-.046.073-.057.033-.1-.03-.03-.039.016-.063.031-.028.02-.064.023-.095.035-.07.027-.136.036-.19.065-.051.028-.066.046-.096.1-.023.045-.06.132-.095.135-.042 0-.056-.048-.095-.066-.117-.053-.189.03-.285.031-.09 0-.227-.145-.223-.234.003-.054.026-.133.032-.2.005-.053.062-.117.063-.165 0-.067-.117-.093-.158-.1-.095-.019-.21.044-.318 0-.02-.037.02-.064.033-.1.007-.02-.007-.045 0-.066.012-.034.08-.064.095-.1.011-.028-.011-.065 0-.1.013-.038.06-.072.062-.1.004-.036-.035-.08-.062-.103z" fill="#6d6d6d"/></svg>