<svg xmlns="http://www.w3.org/2000/svg" viewBox="0 0 32 32"><path style="line-height:125%;-inkscape-font-specification:Ubuntu;text-align:center" d="M7.012 2.973c-1.258.014-2.18-.03-2.932.384a1.88 1.88 0 00-.838.998c-.164.44-.224.96-.224 1.618v19c0 .657.06 1.178.224 1.617.165.438.462.788.838.996.753.415 1.674.372 2.932.387H20.035c-.076-.57.21-1.11.686-1.465C15 25 25 17 26.496 20.73c.176-.237.24-.621.504-.73.38-.157.92-.042 1.332.129l.686.283V5.973c0-.658-.06-1.179-.225-1.618a1.875 1.875 0 00-.838-.996c-.753-.415-1.673-.371-2.932-.386H7.014z" font-weight="400" font-size="15" font-family="Ubuntu" letter-spacing="0" word-spacing="0" text-anchor="middle" opacity=".7"/><path d="M12 4c-1.557.01-5.11-.011-6.66.04-.461.042-1.015.204-1.154.708-.22.635-.11 1.334-.147 1.982-.008 2.298-.023 16.598.022 18.887.039.462.203 1.011.699 1.162.632.225 1.283.123 1.935.155 1.358.006 11.41.01 13.614.011.113-.162.246-.313.412-.437-.578-.432-.888-1.138-.6-1.834l.57-1.381c.29-.699 1.01-.977 1.723-.873-.101-.71.177-1.422.875-1.711l1.383-.574c.699-.29 1.394.022 1.824.595.176-.237.342-.495.606-.603a1.6 1.6 0 01.89-.096c.008-5.182.01-12.903-.027-14.77-.05-.401-.171-.863-.576-1.044-.668-.294-1.426-.168-2.125-.205A4546.85 4546.85 0 0012 4z" fill="#fff"/><path d="M15 6.973v1h11.01v-1zM15 9v1h11.01V9zM15 21v1h7.41c.028-.381.163-.74.432-1H15zM15 12.973v1h11.01v-1zM15 15v1h11.01v-1zM15 18.973v1h11.01v-1z" fill="#232629"/><path d="M10 7v1h1v2h-1v1h3v-1h-1V8h1V7h-2zm-2 6v1h1v2H8v1h5v-1h-1v-2h1v-1h-2zm2 1h1v2h-1zm-4 5v1h1v2H6v1h7v-1h-1v-2h1v-1H7zm2 1h1v2H8zm2 0h1v2h-1z" fill="#762572"/><g transform="matrix(1.23872 0 0 1.23872 2.342 2.342)" stroke-width=".807"><circle cx="19.5" cy="19.5" r="1.5" fill="#fff" fill-rule="evenodd"/><g transform="translate(8 8)"><circle cx="11.5" cy="11.5" r="1.5" fill="#fff" fill-rule="evenodd"/><path d="M9.311 7.792a.244.244 0 00-.135.325l.273.657c-.26.195-.472.424-.662.678l-.674-.279a.248.248 0 00-.329.136l-.462 1.115a.248.248 0 00.137.329l.673.279a3.312 3.312 0 00-.011.948l-.657.272a.244.244 0 00-.135.325l.463 1.117c.054.13.194.189.325.135l.657-.272c.195.26.424.471.678.662l-.279.673a.248.248 0 00.136.329l1.115.462a.248.248 0 00.329-.136l.279-.674c.314.045.626.057.948.012l.272.657c.054.13.195.188.325.134l1.117-.462a.244.244 0 00.135-.326l-.272-.657c.26-.195.471-.424.662-.678l.673.28a.248.248 0 00.329-.137l.462-1.115a.248.248 0 00-.136-.329l-.674-.279c.045-.314.057-.625.012-.947l.657-.273a.244.244 0 00.134-.325l-.462-1.117a.244.244 0 00-.326-.135l-.657.273a3.312 3.312 0 00-.678-.662l.28-.674a.248.248 0 00-.137-.329l-1.115-.462a.248.248 0 00-.329.137l-.279.673a3.312 3.312 0 00-.947-.011l-.273-.657a.244.244 0 00-.325-.135zm1.756 2.66a1.138 1.138 0 11.87 2.103 1.138 1.138 0 01-.87-2.104z" display="block" fill="#d3d3d3" stroke="#4d4d4d" stroke-linejoin="round" stroke-width=".484"/></g></g></svg>