<svg xmlns="http://www.w3.org/2000/svg" viewBox="0 0 32 32"><path style="opacity:1;fill:#fff;fill-opacity:1;fill-rule:evenodd;stroke:none;stroke-width:2;stroke-linecap:butt;stroke-linejoin:round;stroke-miterlimit:4;stroke-dasharray:none;stroke-opacity:1" d="M5 5h5v23H5z"/><path style="opacity:1;fill:#a6d74f;fill-opacity:1;fill-rule:evenodd;stroke:none;stroke-width:2;stroke-linecap:butt;stroke-linejoin:round;stroke-miterlimit:4;stroke-dasharray:none;stroke-opacity:1" transform="rotate(90)" d="M5-28h5v23H5z"/><path style="opacity:1;fill:#6d6d6d;fill-opacity:1;fill-rule:evenodd;stroke:none;stroke-width:2;stroke-linecap:butt;stroke-linejoin:round;stroke-miterlimit:4;stroke-dasharray:none;stroke-opacity:1" d="M4 6v21c0 2 1 2 3 2h4V11h18V6c0-2-1-2-3-2H7C5 4 4 4 4 6zm3-1h3v5H5V6c0-1 1-1 2-1zm4 0h5v5h-5zm6 0h5v5h-5zm6 0h3c1 0 2 0 2 1v4h-5zM5 11h5v5H5zm0 6h5v5H5zm0 6h5v5H7c-1 0-2 0-2-1z"/><path style="fill:#88a05d;fill-opacity:1;stroke:none;stroke-width:1px;stroke-linecap:butt;stroke-linejoin:miter;stroke-opacity:1" d="m14.015 20 5 4v-8z"/><path style="fill:#88a05d;fill-opacity:1;stroke:none;stroke-width:1px;stroke-linecap:butt;stroke-linejoin:miter;stroke-opacity:1" d="M27.015 14 27 17.983c0 2-1 3-3 3L19.015 21 19 18.983h4c2 0 2 0 2-2L25.015 14z"/></svg>