<svg xmlns="http://www.w3.org/2000/svg" viewBox="0 0 32 32"><path opacity=".7" stroke="#000" stroke-width="2" stroke-linejoin="round" d="M5 4h22v23H5z"/><path fill="#fff" d="M5 4h22v23H5z"/><path fill="#6d6d6d" d="M5 4h22v5H5z"/><path fill="#924d8b" d="M12 12h13v2H12z"/><rect y="11" x="7" height="4" width="4" ry="1" opacity=".7"/><path fill="#fff" d="M8 12h2v2H8z"/><path fill="#924d8b" d="M12 17h13v2H12z"/><rect ry="1" width="4" height="4" x="7" y="16" opacity=".7"/><path fill="#fff" d="M8 17h2v2H8z"/><path fill="#924d8b" d="M12 22h13v2H12z"/><rect y="21" x="7" height="4" width="4" ry="1" opacity=".7"/><path fill="#fff" d="M8 22h2v2H8z"/><circle cy="25.5" cx="25.5" r="4.5" fill="#46a926"/><path overflow="visible" font-weight="400" style="line-height:normal;text-indent:0;text-align:start;text-decoration-line:none;text-decoration-style:solid;text-decoration-color:#000;text-transform:none;white-space:normal;isolation:auto;mix-blend-mode:normal;marker:none" d="M25 23v2h-2v1h2v2h1v-2h2v-1h-2v-2z" color="#000" font-family="sans-serif" fill="#fff"/></svg>