<svg xmlns="http://www.w3.org/2000/svg" viewBox="0 0 32 32"><path d="M3 8v16c0 2.216 1.784 4 4 4h18c2.216 0 4-1.784 4-4V8z" style="opacity:.7;fill:#000;fill-opacity:1;fill-rule:evenodd;stroke:#000;stroke-width:2;stroke-linecap:butt;stroke-linejoin:round;stroke-miterlimit:4;stroke-dasharray:none;stroke-opacity:1"/><path style="opacity:1;fill:#6d6d6d;fill-opacity:1;fill-rule:evenodd;stroke:none;stroke-width:2;stroke-linecap:butt;stroke-linejoin:round;stroke-miterlimit:4;stroke-dasharray:none;stroke-opacity:1" d="M0 4h32v4H0z"/><path style="opacity:1;fill:#fff;fill-opacity:1;fill-rule:evenodd;stroke:none;stroke-width:2;stroke-linecap:butt;stroke-linejoin:round;stroke-miterlimit:4;stroke-dasharray:none;stroke-opacity:1" d="M3 8v16c0 2.216 1.784 4 4 4h18c2.216 0 4-1.784 4-4V8z"/><path style="opacity:1;fill:#46a926;fill-opacity:1;fill-rule:evenodd;stroke:none;stroke-width:2;stroke-linecap:butt;stroke-linejoin:round;stroke-miterlimit:4;stroke-dasharray:none;stroke-opacity:1" d="M27 18a6 6 0 0 1-3.704 5.543 6 6 0 0 1-6.539-1.3 6 6 0 0 1-1.3-6.54A6 6 0 0 1 21 12v6z"/><path d="M12-21a6 6 0 0 1 6-6v6z" style="opacity:1;fill:#c7162b;fill-opacity:1;fill-rule:evenodd;stroke:none;stroke-width:2;stroke-linecap:butt;stroke-linejoin:round;stroke-miterlimit:4;stroke-dasharray:none;stroke-opacity:1" transform="rotate(90)"/><path style="opacity:1;fill:#1a7fd4;fill-opacity:1;fill-rule:evenodd;stroke:none;stroke-width:4;stroke-linecap:butt;stroke-linejoin:round;stroke-miterlimit:4;stroke-dasharray:none;stroke-opacity:1" d="M6 13h6v2H6z"/><path style="opacity:1;fill:#c7162b;fill-opacity:1;fill-rule:evenodd;stroke:none;stroke-width:3.99999976;stroke-linecap:butt;stroke-linejoin:round;stroke-miterlimit:4;stroke-dasharray:none;stroke-opacity:1" d="M6 17h6v2H6z"/><path style="opacity:1;fill:#46a926;fill-opacity:1;fill-rule:evenodd;stroke:none;stroke-width:3.99999976;stroke-linecap:butt;stroke-linejoin:round;stroke-miterlimit:4;stroke-dasharray:none;stroke-opacity:1" d="M6 21h6v2H6z"/><path d="m13.642 1-.132 3.303-2.128 1.115-.665-.378-.023-1.965L9.296 4.36l-1.879-.586.794 1.724L7.07 7.104l1.89-.22 1.171 1.588.378-1.867.983-.329 2.079.771.578 3.387L16.2 7.84l3.402.499-1.837-2.76 1.523-3.072-3.182.888zM6.284 6.82 5.199 7.822 3.74 7.357l.616 1.346-.884 1.247 1.459-.17.907 1.228.29-1.444 1.452-.491-1.285-.718zm4.95 1.19L9.656 9.463 7.52 8.793l.907 1.954-1.285 1.814 2.124-.245 1.33 1.787.416-2.105 2.116-.71-1.87-1.051zM2.94 10.128l-.397 1.49L1 12.032l1.292.84-.075 1.594 1.19-.975 1.497.575-.555-1.437 1.009-1.247-1.542.083z" style="opacity:.7;fill:#000;fill-opacity:1;stroke:#000;stroke-width:2;stroke-linejoin:round"/><path style="fill:#fa9381;fill-opacity:1;stroke-width:3.77952743" d="m13.642 1-.132 3.303-2.128 1.115-.665-.378-.023-1.965L9.296 4.36l-1.879-.586.794 1.724L7.07 7.104l1.89-.22 1.171 1.588.378-1.867.983-.329 2.079.771.578 3.387L16.2 7.84l3.402.499-1.837-2.76 1.523-3.072-3.182.888zM6.284 6.82 5.199 7.822 3.74 7.357l.616 1.346-.884 1.247 1.459-.17.907 1.228.29-1.444 1.452-.491-1.285-.718zm4.95 1.19L9.656 9.463 7.52 8.793l.907 1.954-1.285 1.814 2.124-.245 1.33 1.787.416-2.105 2.116-.71-1.87-1.051zM2.94 10.128l-.397 1.49L1 12.032l1.292.84-.075 1.594 1.19-.975 1.497.575-.555-1.437 1.009-1.247-1.542.083z"/></svg>