<svg xmlns="http://www.w3.org/2000/svg" viewBox="0 0 32 32"><path d="M6.994 4.973c-1.258.014-2.179-.031-2.931.384a1.88 1.88 0 00-.838.998C3.06 6.795 3 7.315 3 7.973V24.027c0 .658.06 1.179.225 1.618.164.438.461.788.838.996.752.415 1.673.371 2.931.386h18.012c1.258-.014 2.179.031 2.931-.384a1.88 1.88 0 00.838-.998c.165-.44.223-.96.225-1.618V7.973c0-.658-.06-1.179-.225-1.618a1.875 1.875 0 00-.837-.996c-.753-.415-1.674-.371-2.932-.386H6.998z" style="line-height:125%;-inkscape-font-specification:Ubuntu;text-align:center" font-weight="400" font-size="15" font-family="Ubuntu" letter-spacing="0" word-spacing="0" text-anchor="middle" opacity=".7"/><path d="M11.94 6c-.92.006-2.45.005-3.94.01-1.03.003-2.087.008-2.72.03-.462.042-1.016.204-1.155.708-.219.635-.11 1.334-.146 1.982-.002.471-.003 2.194-.004 3.27-.004 2.634 0 4.966.007 8 .005 1.772.005 3.999.018 4.67.04.462.203 1.013.7 1.164.632.225 1.283.123 1.935.154.31.002.907.001 1.365.002 1.648.005 3.796.01 4.912.01L16 25.996c2.8-.001 5.69-.005 8-.012.583-.001 1.756 0 2.018-.002.511-.012 1.184.02 1.586-.406.42-.54.286-1.268.322-1.904.002-.547.003-2.42.006-3.672.005-2.729 0-4.99-.008-8-.005-1.782-.005-4.032-.02-4.738-.049-.402-.17-.864-.576-1.045-.668-.294-1.425-.168-2.125-.205L24 6.01c-1.854-.006-4.892-.006-8-.006-1.578 0-3.523-.004-4.06-.004z" fill="#fff"/><path d="M23.207 4.844l-6.363 6.363 6.363 6.363c1.414 1.415 2.121.707 3.535-.707l2.121-2.12c1.414-1.415 2.122-2.122.707-3.536zM15 8c-.554 0-1 .446-1 1v7c0 .554.446 1 1 1s1-.446 1-1v-4.258a1 1 0 01.137-1.242l2.5-2.5h-.414z" opacity=".7" fill-rule="evenodd" stroke="#000" stroke-width="2" stroke-linecap="round" stroke-linejoin="round"/><path d="M16.843 11.207l6.364-6.364 6.364 6.364c1.414 1.414.707 2.121-.707 3.536l-2.121 2.121c-1.415 1.414-2.122 2.121-3.536.707z" fill="#fff" fill-rule="evenodd"/><circle cx="8.485" cy="23.335" r=".5" transform="rotate(-45)" opacity=".7" fill-rule="evenodd" stroke="#000" stroke-width="2" stroke-linecap="round" stroke-linejoin="round"/><circle cx="8.485" cy="23.335" r=".5" transform="rotate(-45)" fill="#fff" fill-rule="evenodd"/><path d="M25 1a3 3 0 00-3 3v5.543h1V4h.006c.059-1.121.934-1.998 1.994-2 1.061 0 1.937.878 1.996 2H27v3.395l1 1V4a3 3 0 00-3-3z" fill="#6d6d6d" fill-rule="evenodd"/><path d="M15 8c-.554 0-1 .446-1 1v7c0 .554.446 1 1 1s1-.446 1-1v-4.258a1 1 0 01.137-1.242l2.5-2.5h-.414z" fill="#aee3f8" fill-rule="evenodd"/></svg>