<svg xmlns="http://www.w3.org/2000/svg" xmlns:xlink="http://www.w3.org/1999/xlink" viewBox="0 0 32 32"><defs><linearGradient id="a"><stop offset="0" style="stop-color:#5884f4;stop-opacity:1"/><stop style="stop-color:#5884f4;stop-opacity:1" offset=".278"/><stop offset=".278" style="stop-color:#2f5fdd;stop-opacity:1"/><stop style="stop-color:#2f5fdd;stop-opacity:1" offset=".707"/><stop style="stop-color:#234db8;stop-opacity:1" offset=".709"/><stop offset="1" style="stop-color:#234db8;stop-opacity:1"/></linearGradient><linearGradient xlink:href="#a" id="b" gradientUnits="userSpaceOnUse" x1="624" y1="369.239" x2="737.711" y2="369.354"/></defs><g style="display:inline;stroke-width:9.7142868;enable-background:new"><path d="m737.71 319.356-56.855 141.736L624 319.356V290.72h113.71z" style="fill:#fee1c2;fill-opacity:1;stroke:none;stroke-width:9.7142868" transform="rotate(44.997 34.622 -21.398) scale(.07035 .07631)"/><path d="m670.668 435.275 10.187 25.817 10.188-25.817s.776-2.766-1.206-2.766-3.946 3.688-3.946 3.688-1.036-4.61-5.014-4.61c-3.979 0-5.014 4.61-5.014 4.61s-2.008-3.688-4.008-3.688-1.187 2.766-1.187 2.766z" style="color:#000;display:inline;overflow:visible;visibility:visible;fill:#5d5d5d;fill-opacity:1;fill-rule:nonzero;stroke:none;stroke-width:9.7142868;marker:none;enable-background:accumulate" transform="rotate(44.997 34.622 -21.398) scale(.07035 .07631)"/><path d="M624 319.356c0-7.376 35.535-15.53 35.535 7.376 0-29.45 42.641-29.547 42.641 0 0-22.905 35.535-14.752 35.535-7.376V67.929H624z" style="fill:url(#b);fill-opacity:1;stroke:none;stroke-width:9.7142868" transform="rotate(44.997 34.622 -21.398) scale(.07035 .07631)"/></g></svg>