<svg xmlns="http://www.w3.org/2000/svg" xmlns:xlink="http://www.w3.org/1999/xlink" viewBox="0 0 32 32"><defs><linearGradient y2="316.932" x2="702.214" y1="316.932" x1="609.786" gradientUnits="userSpaceOnUse" id="b" xlink:href="#a"/><linearGradient id="a"><stop offset="0" stop-color="#5884f4"/><stop offset=".308" stop-color="#5884f4"/><stop offset=".308" stop-color="#2f5fdd"/><stop offset=".692" stop-color="#2f5fdd"/><stop offset=".692" stop-color="#234db8"/><stop offset="1" stop-color="#234db8"/></linearGradient></defs><path d="M1 1v22h12v-1.098c0-.717.06-1.358.29-1.966a2.876 2.876 0 011.29-1.524c.436-.24.874-.339 1.266-.4l.076-.012H16v-2c0-1.552 1.09-3 2.656-3H23V1z" fill="#fff"/><path d="M3 0C1 0 0 0 0 2v20c0 2 1 2 3 2h10v-1H9v-3h4.27c.007-.021.011-.043.02-.064.129-.348.324-.664.565-.936H9v-3h6v2.24c.293-.108.58-.187.846-.228l.076-.012H16v-2c0-.345.061-.68.162-1H16v-3h7v1h1V2c0-2-1-2-3-2zm0 1h5v2H1V2c0-1 1-1 2-1zm6 0h6v2H9zm7 0h5c1 0 2 0 2 1v1h-7zM1 4h7v3H1zm8 0h6v3H9zm7 0h7v3h-7zM1 8h7v3H1zm8 0h6v3H9zm7 0h7v3h-7zM1 12h7v3H1zm8 0h6v3H9zm-8 4h7v3H1zm0 4h7v3H3c-1 0-2 0-2-1z" fill="#6d6d6d"/><path d="M18.657 14c-.918 0-1.657.892-1.657 2v3h-1c-.338.053-.655.131-.937.287a1.874 1.874 0 00-.838.998c-.165.438-.225.96-.225 1.617V25.098c0 .658.06 1.179.225 1.617.164.439.461.79.838.998.282.156.6.234.937.287h1v2c0 1.108.739 2 1.656 2h8.688C28.26 32 29 31.108 29 30v-2h1c.338-.053.654-.131.938-.287.389-.222.686-.576.837-.998.165-.438.225-.96.225-1.617V21.902c0-.657-.06-1.179-.225-1.617a1.882 1.882 0 00-.837-.998c-.284-.156-.6-.234-.938-.287h-1v-3c0-1.108-.739-2-1.656-2zM17 20.04V23h12v-2.96c.666.031 1.204.084 1.453.222.184.1.29.212.387.472.097.26.16.674.16 1.266v3c0 .592-.063 1.006-.16 1.266s-.203.372-.387.472c-.249.138-.787.19-1.453.223V24H17v2.96c-.667-.031-1.206-.084-1.455-.222-.183-.1-.286-.212-.384-.472-.097-.26-.16-.674-.16-1.266v-3c0-.592.063-1.006.16-1.266.098-.26.201-.371.384-.472.25-.138.788-.19 1.455-.223z" style="line-height:normal;font-variant-ligatures:normal;font-variant-position:normal;font-variant-caps:normal;font-variant-numeric:normal;font-variant-alternates:normal;font-feature-settings:normal;text-indent:0;text-align:start;text-decoration-line:none;text-decoration-style:solid;text-decoration-color:#000;text-transform:none;text-orientation:mixed;white-space:normal;shape-padding:0;isolation:auto;mix-blend-mode:normal;marker:none" color="#000" font-weight="400" font-family="sans-serif" overflow="visible" opacity=".7"/><path d="M19.206 19.93c-1.024.017-2.053-.032-3.073.078-.39.048-.842.18-1 .584-.271.536-.173 1.16-.205 1.738.006 1.166-.026 2.335.024 3.5.05.423.181.934.62 1.108.447.207.955.159 1.428.144V25h12v2.082c.118.047.292-.016.418.008.46-.006 1-.002 1.326-.385.398-.517.292-1.208.317-1.816-.007-1.234.025-2.47-.024-3.703-.049-.426-.233-.916-.682-1.057-.73-.255-1.519-.15-2.277-.184-2.29-.01-6.582-.015-8.872-.015z" fill="#b3b3b3"/><path fill="#666" d="M17 24h12v4H17z"/><path d="M18 25h10v5c-.032.981-1 1-1 1h-8s-1 0-1-1z" fill="#fff"/><path d="M19 27v1h8v-1zM19 29v1h8v-1z" style="line-height:normal;font-variant-ligatures:normal;font-variant-position:normal;font-variant-caps:normal;font-variant-numeric:normal;font-variant-alternates:normal;font-feature-settings:normal;text-indent:0;text-align:start;text-decoration-line:none;text-decoration-style:solid;text-decoration-color:#000;text-transform:none;text-orientation:mixed;white-space:normal;shape-padding:0;isolation:auto;mix-blend-mode:normal;marker:none" color="#000" font-weight="400" font-family="sans-serif" overflow="visible" fill="#a7a7f1"/><path d="M18 19h10v-3c-.032-.981-1-1-1-1h-8s-1 0-1 1z" fill="#fff"/><path fill="#666" d="M16 19h14v1H16z"/><path fill="#f3d8f2" fill-rule="evenodd" d="M1 1h14v10H1z"/><path d="M3 0C1 0 0 0 0 2v10h16V0zm0 1h5v2H1V2c0-1 1-1 2-1zm6 0h6v2H9zM1 4h7v3H1zm8 0h6v3H9zM1 8h7v3H1zm8 0h6v3H9z" fill="#88a05d"/><g stroke-width="9.714"><path d="M9.592 28.264L15.504 32l-.28-6.987-1.12-1.877-5.631 3.252z" fill="#fee1c2"/><path style="marker:none" d="M15.415 29.777l.09 2.223-1.881-1.189s-.174-.143 0-.244c.174-.1.488.043.488.043s-.085-.357.265-.559c.35-.202.616.05.616.05s.036-.345.212-.447c.176-.101.21.123.21.123z" color="#000" overflow="visible" fill="#5d5d5d"/><path d="M609.786 306.25c0-7.376 28.428-3.688 28.428 7.377 0-18.44 35.534-18.44 35.534 0 0-11.065 28.47-14.753 28.47-7.377V67.93h-92.432z" fill="url(#b)" transform="matrix(-.06093 .03518 .03815 .06608 40.193 -17.541)"/></g></svg>