<svg viewBox="0 0 32 32" xmlns="http://www.w3.org/2000/svg"><path d="m28 4-6 6H4v18h19l5-5z" fill="#b3b3b3"/><path d="M8.646 4 4 8.646V28h19l4.293-4.293L28 23V4H9zM10 5h16.293l-4 4H5.06L9 5zm17 .707v16.914l-.414.379L23 26.586V9.707zM5 10h17v17h-7v-8h3l-4-5-4 5h3v8H5v-.707z" style="fill:#1463a5;fill-opacity:1"/><path d="M15 27v-8h3l-4-5-4 5h3v8z" style="fill:#fff;fill-opacity:1;stroke:#fff;opacity:1;stroke-width:2;stroke-miterlimit:4;stroke-dasharray:none;stroke-linejoin:round"/><path style="fill:#88a05d;fill-opacity:1" d="M15 27v-8h3l-4-5-4 5h3v8z"/><path style="fill:#fff;stroke:none;stroke-width:1px;stroke-linecap:butt;stroke-linejoin:miter;stroke-opacity:1;fill-opacity:1" d="M9 5h17.293l-4 4H5.061z"/></svg>