<svg xmlns="http://www.w3.org/2000/svg" viewBox="0 0 32 32"><path style="fill:#000;stroke:#000;opacity:.7;stroke-width:2;stroke-miterlimit:4;stroke-dasharray:none;stroke-linejoin:round" fill="#232629" d="M10 4C6.686 4 4 9.373 4 16s2.686 12 6 12h10.5l-.008-.05A6 12 0 0 1 15 16a6 12 0 0 1 5.492-11.951L20.5 4zm12 0a6 12 0 0 0-6 12 6 12 0 0 0 6 12 6 12 0 0 0 6-12 6 12 0 0 0-6-12z"/><path d="M10 4C6.686 4 4 9.373 4 16s2.686 12 6 12h10.5l-.008-.05A6 12 0 0 1 15 16a6 12 0 0 1 5.492-11.951L20.5 4zm12 0a6 12 0 0 0-6 12 6 12 0 0 0 6 12 6 12 0 0 0 6-12 6 12 0 0 0-6-12z" fill="#232629" style="fill:#fff"/></svg>