<svg xmlns="http://www.w3.org/2000/svg" viewBox="0 0 32 32"><path style="fill:#000;stroke:#000;opacity:.7;stroke-width:2;stroke-miterlimit:4;stroke-dasharray:none;stroke-linejoin:round" fill="#232629" d="M10.234 7c-2.012-.117-4.08.843-6.234 3.186V22c3.7-3.096 7.563-4.509 11.906 0 3.823 3.752 7.786 4.686 12.094 0V10.186c-3.7 3.096-7.563 4.508-11.906 0-1.912-1.876-3.847-3.07-5.86-3.186z"/><path d="M10.234 7c-2.012-.117-4.08.843-6.234 3.186V22c3.7-3.096 7.563-4.509 11.906 0 3.823 3.752 7.786 4.686 12.094 0V10.186c-3.7 3.096-7.563 4.508-11.906 0-1.912-1.876-3.847-3.07-5.86-3.186z" fill="#232629" style="fill:#fff"/></svg>