<svg xmlns="http://www.w3.org/2000/svg" viewBox="0 0 32 32"><path style="line-height:125%;-inkscape-font-specification:Ubuntu;text-align:center" d="M7 4c-1.258.014-2.179-.03-2.932.385a1.88 1.88 0 00-.838.998c-.164.438-.224.96-.224 1.617v19c0 .658.06 1.179.224 1.617.165.439.462.789.838.996.753.415 1.674.372 2.932.387h18.012c1.258-.015 2.179.03 2.931-.385a1.88 1.88 0 00.838-.998c.165-.438.225-.96.225-1.617V11.598l-.678.28c-.7.29-1.395-.018-1.826-.593C23 15 16.544 9 20.721 5.508c-.488-.364-.78-.924-.688-1.508H7.003z" font-weight="400" font-size="15" font-family="Ubuntu" letter-spacing="0" word-spacing="0" text-anchor="middle" opacity=".7"/><path d="M11.988 5.027c-1.556.011-5.108-.011-6.658.04-.461.042-1.017.205-1.156.708-.22.636-.11 1.335-.147 1.983-.007 2.297-.023 16.597.022 18.887.039.461.203 1.01.699 1.162.633.225 1.284.122 1.936.154 1.424.007 12.851.011 14.277.012 1.704 0 3.409-.004 5.107-.018.512-.012 1.183.019 1.584-.406.421-.54.287-1.269.323-1.904.008-1.728.012-8.426 0-13.676-.574.08-1.115-.206-1.473-.684-.43.577-1.135.891-1.834.602l-1.383-.573c-.701-.29-.98-1.008-.875-1.722-.71.1-1.42-.176-1.709-.873l-.572-1.383c-.29-.7.017-1.397.592-1.828a1.872 1.872 0 01-.436-.473c-3.442-.003-7.2-.008-8.297-.008z" fill="#fff"/><path d="M6 8v1h14.86a1.439 1.439 0 01-.159-.281L20.404 8H6zm0 4v1h20v-1H6zm0 4v1h20v-1H6zm0 4v1h20v-1H6z" fill="#232629"/><path fill="#fa9381" d="M9 24h17v1H9zM7 23l-1 2h1v2h1v-4z"/><g transform="matrix(1.23872 0 0 1.23872 2.342 -18.658)" stroke-width=".807"><circle cx="19.5" cy="19.5" r="1.5" fill="#fff" fill-rule="evenodd"/><g transform="translate(8 8)"><circle cx="11.5" cy="11.5" r="1.5" fill="#fff" fill-rule="evenodd"/><path d="M9.311 7.792a.244.244 0 00-.135.325l.273.657c-.26.195-.472.424-.662.678l-.674-.279a.248.248 0 00-.329.136l-.462 1.115a.248.248 0 00.137.329l.673.279a3.312 3.312 0 00-.011.948l-.657.272a.244.244 0 00-.135.325l.463 1.117c.054.13.194.189.325.135l.657-.272c.195.26.424.471.678.662l-.279.673a.248.248 0 00.136.329l1.115.462a.248.248 0 00.329-.136l.279-.674c.314.045.626.057.948.012l.272.657c.054.13.195.188.325.134l1.117-.462a.244.244 0 00.135-.326l-.272-.657c.26-.195.471-.424.662-.678l.673.28a.248.248 0 00.329-.137l.462-1.115a.248.248 0 00-.136-.329l-.674-.279c.045-.314.057-.625.012-.947l.657-.273a.244.244 0 00.134-.325l-.462-1.117a.244.244 0 00-.326-.135l-.657.273a3.312 3.312 0 00-.678-.662l.28-.674a.248.248 0 00-.137-.329l-1.115-.462a.248.248 0 00-.329.137l-.279.673a3.312 3.312 0 00-.947-.011l-.273-.657a.244.244 0 00-.325-.135zm1.756 2.66a1.138 1.138 0 11.87 2.103 1.138 1.138 0 01-.87-2.104z" display="block" fill="#d3d3d3" stroke="#4d4d4d" stroke-linejoin="round" stroke-width=".484"/></g></g></svg>