<svg xmlns="http://www.w3.org/2000/svg" viewBox="0 0 32 32"><path style="opacity:.7;fill:#000;stroke:#000;stroke-width:2;stroke-miterlimit:4;stroke-dasharray:none" d="M10 4C8 4 6 5 6 7v18c0 2 2 3 4 3h12c2 0 4-1 4-3V7c0-2-2-3-4-3H10z"/><path style="fill:#fff;fill-opacity:1" d="M10 4C8 4 6 5 6 7v18c0 2 2 3 4 3h12c2 0 4-1 4-3V7c0-2-2-3-4-3H10z"/><path style="opacity:1;fill:#232629;fill-opacity:1;stroke:none;stroke-width:2;stroke-linejoin:round;stroke-miterlimit:4;stroke-dasharray:none;stroke-opacity:1" d="M8 24h7v1H8zM17 24h7v1h-7zM8 21h7v1H8zM17 21h7v1h-7zM8 18h7v1H8zM17 18h7v1h-7zM8 15h7v1H8zM17 15h7v1h-7zM8 12h7v1H8zM17 12h7v1h-7z"/><path style="opacity:1;fill:#1463a5;fill-opacity:1;stroke:none;stroke-width:2.82842708;stroke-linejoin:round;stroke-miterlimit:4;stroke-dasharray:none;stroke-opacity:1" d="M8 7h7v2H8zM17 7h7v2h-7z"/></svg>