<svg xmlns="http://www.w3.org/2000/svg" viewBox="0 0 32 32"><path style="line-height:normal;font-variant-ligatures:normal;font-variant-position:normal;font-variant-caps:normal;font-variant-numeric:normal;font-variant-alternates:normal;font-variant-east-asian:normal;font-feature-settings:normal;font-variation-settings:normal;text-indent:0;text-align:start;text-decoration-line:none;text-decoration-style:solid;text-decoration-color:#000;text-transform:none;text-orientation:mixed;white-space:normal;shape-padding:0;shape-margin:0;inline-size:0;isolation:auto;mix-blend-mode:normal;solid-color:#000;solid-opacity:1" d="M6.293 2.996a1 1 0 00-.707.291L4.293 4.58A1 1 0 004 5.29v2.538a1 1 0 00.24.649l.008.01.057.074.257.34c.222.292.535.71.91 1.21a3169.05 3169.05 0 012.749 3.664c1.893 2.529 3.595 4.807 3.779 5.053v4.676a1 1 0 00.4.799l4.625 3.47c.007-.494.277-.95.696-1.265-.41-.306-.807-.752-.83-1.233L14 23.004v-4.508a1 1 0 00-.2-.6s-1.986-2.657-3.98-5.32c-.996-1.331-1.995-2.663-2.748-3.666l-.914-1.217L6 7.486V5.703l.707-.707h18.586l.707.707v1.791l-7.8 10.4a1 1 0 00-.2.602l-.11 4.276c.358-.357.996-.43 1.524-.352-.086-.601.104-1.2.586-1.547v-2.045l7.8-10.4a1 1 0 00.2-.6V5.29a1 1 0 00-.293-.709l-1.293-1.293a1 1 0 00-.707-.29zm-2.02 5.518a.995.995 0 00.024.021l-.022-.017c-.001-.002 0-.003-.002-.004z" color="#000" font-weight="400" font-family="sans-serif" overflow="visible" opacity=".7"/><path d="M6.293 3.996L5 5.29v2.54c.055.039 8 10.667 8 10.667v5.008l4.41 3.308c.093-.109.192-.215.31-.304-.577-.432-.887-1.138-.599-1.834l.57-1.381c.233-.562.746-.84 1.309-.877v-3.92l8-10.668V5.29l-1.293-1.293H6.293z" fill="#fff"/><g transform="matrix(1.23872 0 0 1.23872 -.658 2.342)" stroke-width=".807"><circle cx="19.5" cy="19.5" r="1.5" fill="#fff" fill-rule="evenodd"/><g transform="translate(8 8)"><circle cx="11.5" cy="11.5" r="1.5" fill="#fff" fill-rule="evenodd"/><path d="M9.311 7.792a.244.244 0 00-.135.325l.273.657c-.26.195-.472.424-.662.678l-.674-.279a.248.248 0 00-.329.136l-.462 1.115a.248.248 0 00.137.329l.673.279a3.312 3.312 0 00-.011.948l-.657.272a.244.244 0 00-.135.325l.463 1.117c.054.13.194.189.325.135l.657-.272c.195.26.424.471.678.662l-.279.673a.248.248 0 00.136.329l1.115.462a.248.248 0 00.329-.136l.279-.674c.314.045.626.057.948.012l.272.657c.054.13.195.188.325.134l1.117-.462a.244.244 0 00.135-.326l-.272-.657c.26-.195.471-.424.662-.678l.673.28a.248.248 0 00.329-.137l.462-1.115a.248.248 0 00-.136-.329l-.674-.279c.045-.314.057-.625.012-.947l.657-.273a.244.244 0 00.134-.325l-.462-1.117a.244.244 0 00-.326-.135l-.657.273a3.312 3.312 0 00-.678-.662l.28-.674a.248.248 0 00-.137-.329l-1.115-.462a.248.248 0 00-.329.137l-.279.673a3.312 3.312 0 00-.947-.011l-.273-.657a.244.244 0 00-.325-.135zm1.756 2.66a1.138 1.138 0 11.87 2.103 1.138 1.138 0 01-.87-2.104z" display="block" fill="#d3d3d3" stroke="#4d4d4d" stroke-linejoin="round" stroke-width=".484"/></g></g></svg>