<svg xmlns="http://www.w3.org/2000/svg" viewBox="0 0 32 32"><path d="M40.712 7.05v24h9v-1h-8v-22h18v10h1v-11zm2 2v9h16v-9zm1 1h14v7h-14zm15.398 9L54 24.16l-3.287 3.29v3.6h3.601l8.399-8.398zm-16.398 1v9h7v-1h-6v-7h12v-1zm14.35 2.491l2.16 2.16-3.174 3.176v-.676l-1.014.024h-1.037v-1.037l.002-.584 1.44-1.442zm-4.077 4.074v1.621h2.028l.021.655-1.08 1.08h-1.441l-.721-.72v-1.442z" fill="#88a05d"/><path d="M10 4C8 4 6 5 6 7v18c0 2 2 3 4 3h12c2 0 4-1 4-3V7c0-2-2-3-4-3H10z" opacity=".7" stroke="#000" stroke-width="2"/><path d="M10 4C8 4 6 5 6 7v18c0 2 2 3 4 3h12c2 0 4-1 4-3V7c0-2-2-3-4-3H10z" fill="#aee3f8"/><path opacity=".7" fill-rule="evenodd" d="M9 18h14v6H9zM9 8h14v6H9z"/></svg>