<svg xmlns="http://www.w3.org/2000/svg" xmlns:xlink="http://www.w3.org/1999/xlink" height="32" width="32"><defs><linearGradient xlink:href="#a" id="b" x1="10" y1="5" x2="10" y2="25" gradientUnits="userSpaceOnUse"/><linearGradient id="a"><stop offset="0" stop-color="#151515"/><stop offset="1" stop-color="#4d4d4d"/></linearGradient></defs><path style="line-height:normal;font-variant-ligatures:normal;font-variant-position:normal;font-variant-caps:normal;font-variant-numeric:normal;font-variant-alternates:normal;font-variant-east-asian:normal;font-feature-settings:normal;font-variation-settings:normal;text-indent:0;text-align:start;text-decoration-line:none;text-decoration-style:solid;text-decoration-color:#000;text-transform:none;text-orientation:mixed;white-space:normal;shape-padding:0;shape-margin:0;inline-size:0;isolation:auto;mix-blend-mode:normal;solid-color:#000;solid-opacity:1" d="M3 4a1 1 0 00-1 1v20a1 1 0 001 1h2a1 1 0 001-1v-8h9v3h4V5a1 1 0 00-1-1h-2a1 1 0 00-1 1v8H6V5a1 1 0 00-1-1H3zm1 10a1 1 0 001 1 1 1 0 00-1 1v-2zm13 0v2a1 1 0 00-1-1 1 1 0 001-1z" color="#000" font-weight="400" font-family="sans-serif" overflow="visible" fill="#fff"/><path d="M3 5v20h2v-9h11v4h2V5h-2v9H5V5H3z" fill="url(#b)"/><path fill="#88a05d" fill-rule="evenodd" d="M20 22h1v6h-1zM18 21h13v1H18zM18 28h13v1H18z"/><path d="M22.5 21.5l3.5 7 3.5-7" fill="none" stroke="#88a05d" stroke-linejoin="round"/></svg>