<svg xmlns="http://www.w3.org/2000/svg" xmlns:xlink="http://www.w3.org/1999/xlink" viewBox="0 0 32 32"><defs><linearGradient xlink:href="#a" id="b" gradientUnits="userSpaceOnUse" x1="22" y1="20" x2="22" y2="32" gradientTransform="translate(.4)"/><linearGradient id="a"><stop offset="0" stop-color="#151515"/><stop offset="1" stop-color="#4d4d4d"/></linearGradient><linearGradient xlink:href="#a" id="c" gradientUnits="userSpaceOnUse" gradientTransform="translate(.4)" x1="22" y1="20" x2="22" y2="32"/></defs><path d="M24 12V6c0-2-1-2-3-2H7C5 4 4 4 4 6v9c0 2 1 2 3 2l6 6v-6h8c2 0 3 0 3-2z" opacity=".7" stroke="#000" stroke-width="2" stroke-linejoin="round"/><path d="M24 12V6c0-2-1-2-3-2H7C5 4 4 4 4 6v9c0 2 1 2 3 2l6 6v-6h8c2 0 3 0 3-2z" fill="#fa9381"/><path d="M28 17v-6c0-2-1-2-3-2H11c-2 0-3 0-3 2v9c0 2 1 2 3 2l6 6v-6h8c2 0 3 0 3-2z" opacity=".7" stroke="#000" stroke-width="2" stroke-linejoin="round"/><path d="M28 17v-6c0-2-1-2-3-2H11c-2 0-3 0-3 2v9c0 2 1 2 3 2l6 6v-6h8c2 0 3 0 3-2z" fill="#fa9381"/><rect width="14" height="1" x="11" y="12" ry=".5" fill="#fff"/><rect ry=".5" y="15" x="11" height="1" width="14" fill="#fff"/><rect width="14" height="1" x="11" y="18" ry=".5" fill="#fff"/><path d="M22.31 20.93A10 10 0 0013.626 26a10 10 0 008.686 5.07A10 10 0 0031 26.006L30.996 26l.004-.006a10 10 0 00-8.69-5.065z" opacity=".7" fill="#090909" stroke="#140c0c" stroke-width="2" stroke-linejoin="round"/><path d="M22.31 20.93A10 10 0 0013.626 26a10 10 0 008.686 5.07A10 10 0 0031 26.006L30.996 26l.004-.006a10 10 0 00-8.69-5.065z" fill="#fff"/><path d="M22.313 22a4 4 0 00-4 4 4 4 0 004 4 4 4 0 004-4 4 4 0 00-4-4zm0 1a3 3 0 013 3 3 3 0 01-3 3 3 3 0 01-3-3 3 3 0 013-3z" fill="#232629"/><path d="M22.313 24a2 2 0 00-2 2 2 2 0 002 2 2 2 0 002-2 2 2 0 00-.09-.588 1 1 0 01-.91.588 1 1 0 01-1-1 1 1 0 01.59-.91 2 2 0 00-.59-.09z" fill="#232629"/><path style="line-height:normal;font-variant-ligatures:normal;font-variant-position:normal;font-variant-caps:normal;font-variant-numeric:normal;font-variant-alternates:normal;font-variant-east-asian:normal;font-feature-settings:normal;font-variation-settings:normal;text-indent:0;text-align:start;text-decoration-line:none;text-decoration-style:solid;text-decoration-color:#000;text-transform:none;text-orientation:mixed;white-space:normal;shape-padding:0;shape-margin:0;inline-size:0;isolation:auto;mix-blend-mode:normal;solid-color:#000;solid-opacity:1" d="M27.702 19.99L16.39 31.302l.707.707 11.312-11.312z" color="#000" font-weight="400" font-family="sans-serif" overflow="visible" fill="url(#b)" stroke="#fff" stroke-width="2" stroke-linejoin="round"/><path style="line-height:normal;font-variant-ligatures:normal;font-variant-position:normal;font-variant-caps:normal;font-variant-numeric:normal;font-variant-alternates:normal;font-variant-east-asian:normal;font-feature-settings:normal;font-variation-settings:normal;text-indent:0;text-align:start;text-decoration-line:none;text-decoration-style:solid;text-decoration-color:#000;text-transform:none;text-orientation:mixed;white-space:normal;shape-padding:0;shape-margin:0;inline-size:0;isolation:auto;mix-blend-mode:normal;solid-color:#000;solid-opacity:1" d="M27.702 19.99L16.39 31.302l.707.707 11.312-11.312z" color="#000" font-weight="400" font-family="sans-serif" overflow="visible" fill="url(#c)"/></svg>