<svg xmlns="http://www.w3.org/2000/svg" xmlns:xlink="http://www.w3.org/1999/xlink" viewBox="0 0 32 32"><defs><linearGradient xlink:href="#a" id="b" gradientUnits="userSpaceOnUse" x1="22" y1="20" x2="22" y2="32" gradientTransform="translate(.4)"/><linearGradient id="a"><stop offset="0" stop-color="#151515"/><stop offset="1" stop-color="#4d4d4d"/></linearGradient><linearGradient xlink:href="#a" id="c" gradientUnits="userSpaceOnUse" gradientTransform="translate(.4)" x1="22" y1="20" x2="22" y2="32"/></defs><path d="M3 8v16c0 2.216 1.784 4 4 4h18c2.216 0 4-1.784 4-4V8z" opacity=".7" fill-rule="evenodd" stroke="#000" stroke-width="2" stroke-linejoin="round"/><path fill="#6d6d6d" fill-rule="evenodd" d="M0 4h32v4H0z"/><path d="M3 8v16c0 2.216 1.784 4 4 4h18c2.216 0 4-1.784 4-4V8z" fill="#fff" fill-rule="evenodd"/><path d="M27 18a6 6 0 01-3.704 5.543 6 6 0 01-6.539-1.3 6 6 0 01-1.3-6.539A6 6 0 0121 12v6z" fill="#46a926" fill-rule="evenodd"/><path d="M21 12a6 6 0 016 6h-6z" fill="#c7162b" fill-rule="evenodd"/><path fill="#1a7fd4" fill-rule="evenodd" d="M6 13h6v2H6z"/><path fill="#c7162b" fill-rule="evenodd" d="M6 17h6v2H6z"/><path fill="#46a926" fill-rule="evenodd" d="M6 21h6v2H6z"/><path d="M22.31 20.93A10 10 0 0013.626 26a10 10 0 008.686 5.07A10 10 0 0031 26.006L30.996 26l.004-.006a10 10 0 00-8.69-5.065z" opacity=".7" fill="#090909" stroke="#140c0c" stroke-width="2" stroke-linejoin="round"/><path d="M22.31 20.93A10 10 0 0013.626 26a10 10 0 008.686 5.07A10 10 0 0031 26.006L30.996 26l.004-.006a10 10 0 00-8.69-5.065z" fill="#fff"/><path d="M22.313 22a4 4 0 00-4 4 4 4 0 004 4 4 4 0 004-4 4 4 0 00-4-4zm0 1a3 3 0 013 3 3 3 0 01-3 3 3 3 0 01-3-3 3 3 0 013-3z" fill="#232629"/><path d="M22.313 24a2 2 0 00-2 2 2 2 0 002 2 2 2 0 002-2 2 2 0 00-.09-.588 1 1 0 01-.91.588 1 1 0 01-1-1 1 1 0 01.59-.91 2 2 0 00-.59-.09z" fill="#232629"/><path style="line-height:normal;font-variant-ligatures:normal;font-variant-position:normal;font-variant-caps:normal;font-variant-numeric:normal;font-variant-alternates:normal;font-variant-east-asian:normal;font-feature-settings:normal;font-variation-settings:normal;text-indent:0;text-align:start;text-decoration-line:none;text-decoration-style:solid;text-decoration-color:#000;text-transform:none;text-orientation:mixed;white-space:normal;shape-padding:0;shape-margin:0;inline-size:0;isolation:auto;mix-blend-mode:normal;solid-color:#000;solid-opacity:1" d="M27.702 19.99L16.39 31.302l.707.707 11.312-11.312z" color="#000" font-weight="400" font-family="sans-serif" overflow="visible" fill="url(#b)" stroke="#fff" stroke-width="2" stroke-linejoin="round"/><path style="line-height:normal;font-variant-ligatures:normal;font-variant-position:normal;font-variant-caps:normal;font-variant-numeric:normal;font-variant-alternates:normal;font-variant-east-asian:normal;font-feature-settings:normal;font-variation-settings:normal;text-indent:0;text-align:start;text-decoration-line:none;text-decoration-style:solid;text-decoration-color:#000;text-transform:none;text-orientation:mixed;white-space:normal;shape-padding:0;shape-margin:0;inline-size:0;isolation:auto;mix-blend-mode:normal;solid-color:#000;solid-opacity:1" d="M27.702 19.99L16.39 31.302l.707.707 11.312-11.312z" color="#000" font-weight="400" font-family="sans-serif" overflow="visible" fill="url(#c)"/></svg>