<svg xmlns="http://www.w3.org/2000/svg" viewBox="0 0 32 32"><path d="M29 19l-5-3 5-3z" fill="#e95420"/><path fill="#fff" fill-rule="evenodd" d="M4 9h22V8H4z"/><path fill="#232629" fill-rule="evenodd" d="M4 8h22V7H4z"/><path fill="#fff" fill-rule="evenodd" d="M4 12h14v-1H4z"/><path fill="#232629" fill-rule="evenodd" d="M4 11h14v-1H4z"/><path fill="#fff" fill-rule="evenodd" d="M4 15h14v-1H4z"/><path fill="#232629" fill-rule="evenodd" d="M4 14h14v-1H4z"/><path fill="#fff" fill-rule="evenodd" d="M4 21h14v-1H4z"/><path fill="#232629" fill-rule="evenodd" d="M4 20h14v-1H4z"/><path fill="#fff" fill-rule="evenodd" d="M4 24h14v-1H4z"/><path fill="#232629" fill-rule="evenodd" d="M4 23h14v-1H4z"/><path fill="#fff" fill-rule="evenodd" d="M4 18h14v-1H4z"/><path fill="#232629" fill-rule="evenodd" d="M4 17h14v-1H4z"/><path fill="#fff" fill-rule="evenodd" d="M4 6h22V5H4z"/><path fill="#232629" fill-rule="evenodd" d="M4 5h22V4H4z"/><path fill="#fff" fill-rule="evenodd" d="M4 27h14v-1H4z"/><path fill="#232629" fill-rule="evenodd" d="M4 26h14v-1H4z"/></svg>