<svg xmlns="http://www.w3.org/2000/svg" viewBox="0 0 32 32"><path style="fill:#fff;fill-opacity:1;stroke:none;stroke-width:2;stroke-linecap:round;stroke-linejoin:round;stroke-miterlimit:4;stroke-dasharray:none;stroke-opacity:1" transform="matrix(0 1 1 0 0 0)" d="M5 5h22v22H5z"/><path d="M28 12v13c0 2 0 3-2 3H6c-2 0-2-1-2-3V12zM5 12h2zm0 1v6h2v-6zm0 7v5c0 1 0 2 1 2h1v-7zm3-8h3zm0 1v6h3v-6zm0 7v7h3v-7zm4-8h3zm0 1v6h3v-6zm0 7v7h3v-7zm4-8h3zm0 1v6h3v-6zm0 7v7h3v-7zm4-8h3zm0 1v6h3v-6zm0 7v7h3v-7zm4-8h3zm0 1v6h3v-6zm0 7v7h2c1 0 1-1 1-2v-5z" style="fill:#6d6d6d;fill-opacity:1"/><path style="fill:#ddf6d5;fill-opacity:1;fill-rule:evenodd;stroke-width:2;stroke-linecap:round;stroke-linejoin:round" transform="rotate(-90)" d="M-12 5h7v22h-7z"/><path style="fill:#46a926;fill-opacity:1" d="M4 13h24V7c0-2 0-3-2-3H6C4 4 4 5 4 7Zm1-1V7c0-1 0-2 1-2h1v7zm3 0V5h3v7zm4 0V5h3v7zm4 0V5h3v7zm4 0V5h3v7zm4 0V5h2c1 0 1 1 1 2v5z"/><circle style="opacity:1;vector-effect:none;fill:#46a926;fill-opacity:1;stroke:none;stroke-width:4.49999952;stroke-linecap:butt;stroke-linejoin:round;stroke-miterlimit:4;stroke-dasharray:none;stroke-dashoffset:0;stroke-opacity:1" cy="26.5" cx="26.5" r="4.5"/><path overflow="visible" font-weight="400" style="color:#000;font-weight:400;line-height:normal;font-family:sans-serif;text-indent:0;text-align:start;text-decoration:none;text-decoration-line:none;text-decoration-style:solid;text-decoration-color:#000;text-transform:none;white-space:normal;overflow:visible;isolation:auto;mix-blend-mode:normal;fill:#fff;fill-opacity:1;marker:none" d="M26 24v2h-2v1h2v2h1v-2h2v-1h-2v-2z"/></svg>