<svg xmlns="http://www.w3.org/2000/svg" viewBox="0 0 32 32"><path d="M8 19h16c1.108 0 2.016.892 2 2v11H6V21c0-1.108.892-2 2-2z" opacity=".7" stroke="#000" stroke-width="2" stroke-linecap="round" stroke-linejoin="round"/><path d="M8 19h16c1.108 0 2.016.892 2 2v11H6V21c0-1.108.892-2 2-2z" fill="#fff"/><path d="M24 12H8c-1.108 0-2-.892-2-2V0h20v10c0 1.108-.892 2-2 2z" opacity=".7" stroke="#000" stroke-width="2" stroke-linecap="round" stroke-linejoin="round"/><path d="M24 12H8c-1.108 0-1.934-.894-2-2V0h20v10c0 1.108-.892 2-2 2z" fill="#fff"/><path fill="#e97cc8" d="M24 15h3v1h-3zM19 15h4v1h-4zM14 15h4v1h-4zM9 15h4v1H9zM5 15h3v1H5zM0 13l4 2.5L0 18z"/></svg>