<svg viewBox="0 0 32 32" xmlns="http://www.w3.org/2000/svg"><path style="color:#000;fill:gray;-inkscape-stroke:none" d="m22.164 11.957-.77.77C21.73 13.633 22 14.75 22 16c0 3.31-1.89 5.688-1.89 5.688l.78.625S23 19.69 23 16c0-1.588-.391-2.975-.836-4.043zM22.854 5.646l-.708.708s.258.26.637.74l.713-.713c-.385-.48-.642-.735-.642-.735zm2.32 3.301-.736.737C25.265 11.316 26 13.475 26 16c0 5.778-3.854 9.646-3.854 9.646l.708.708S27 22.222 27 16c0-2.862-.878-5.274-1.826-7.053z"/><path style="color:#000;fill:#000;stroke-linejoin:round;-inkscape-stroke:none;opacity:.7" d="M15.5 3a.5.5 0 0 0-.354.146L7.793 11H3.5a.5.5 0 0 0-.5.5v9a.5.5 0 0 0 .5.5h4.293l.523.56L18 11.878V3.5a.5.5 0 0 0-.5-.5h-2zM18 16.121l-7.63 7.631 4.776 5.102A.5.5 0 0 0 15.5 29h2a.5.5 0 0 0 .5-.5V16.121z"/><path style="opacity:1;fill:#fff;stroke:none;stroke-width:1px;stroke-linecap:butt;stroke-linejoin:round" d="m15.707 4-7.353 7.854A.5.5 0 0 1 8 12H4v8h4a.5.5 0 0 1 .354.146l.666.711 7.98-7.98V4h-1.293zM17 17.121l-5.928 5.928L15.707 28H17V17.121z"/><path style="opacity:1;fill:gray;fill-rule:evenodd;stroke:none;stroke-width:.5;stroke-linecap:square;stroke-linejoin:round" d="M4 12h4v8H4z"/><path style="opacity:1;fill:#c7162b;fill-opacity:1;stroke:none;stroke-width:2;stroke-linejoin:round;stroke-miterlimit:4;stroke-dasharray:none;stroke-opacity:1" transform="rotate(45)" d="M22.127-16h1v32h-1z"/></svg>