<svg xmlns="http://www.w3.org/2000/svg" height="32" width="32"><path d="M8.95-14c-1.258.014-2.179-.031-2.931.384a1.88 1.88 0 00-.838.998c-.165.439-.225.96-.225 1.617V5c0 .658.06 1.179.225 1.617.164.439.461.789.838.996.752.415 1.673.372 2.931.387h14.013c1.258-.015 2.179.03 2.931-.385a1.88 1.88 0 00.838-.998c.165-.438.146-.964.225-1.617v-16.001c0-.657-.06-1.178-.225-1.617a1.875 1.875 0 00-.837-.996c-.753-.415-1.674-.372-2.932-.387H8.954z" style="line-height:125%;-inkscape-font-specification:Ubuntu;text-align:center" font-weight="400" font-size="15" font-family="Ubuntu" letter-spacing="0" word-spacing="0" text-anchor="middle" opacity=".7"/><path d="M13.94-12.973c-1.557.01-5.11-.012-6.66.038-.462.043-1.017.207-1.156.71-.219.636-.108 1.334-.146 1.982C5.971-7.946 5.956 3.354 6 5.643c.04.462.203 1.013.699 1.164.632.225 1.284.122 1.936.154 1.424.007 8.851.011 10.277.011 1.704 0 3.408-.005 5.107-.018.512-.012 1.184.02 1.585-.405.42-.54.287-1.268.323-1.904.011-2.444.027-13.911-.022-16.357-.05-.402-.17-.863-.575-1.044-.669-.295-1.427-.168-2.126-.206-1.755-.012-7.51-.012-9.264-.011z" fill="#fff"/><path style="line-height:125%;-inkscape-font-specification:Ubuntu;text-align:center" d="M-9.99 18.973c-1.257.014-2.178-.03-2.93.385a1.88 1.88 0 00-.839.998c-.164.438-.224.96-.224 1.617v16c0 .658.06 1.179.224 1.618.165.438.462.788.838.996.753.415 1.674.371 2.932.386H4.023c1.258-.014 2.18.031 2.932-.384a1.88 1.88 0 00.838-.998c.164-.44.145-.965.224-1.618v-16c0-.658-.06-1.179-.224-1.617a1.875 1.875 0 00-.838-.996c-.753-.416-1.674-.372-2.932-.387H-9.985z" font-weight="400" font-size="15" font-family="Ubuntu" letter-spacing="0" word-spacing="0" text-anchor="middle" opacity=".7"/><path d="M-5 20c-1.557.01-5.11-.012-6.66.039-.461.042-1.016.206-1.155.71-.22.635-.109 1.334-.146 1.982-.008 2.297-.023 13.596.021 15.885.04.462.203 1.013.7 1.164.632.225 1.283.123 1.935.154 1.424.007 8.852.011 10.277.012 1.705 0 3.409-.005 5.108-.019.511-.012 1.183.02 1.584-.405.421-.54.287-1.268.323-1.904.012-2.444.028-13.91-.022-16.357-.05-.402-.17-.863-.575-1.044-.668-.294-1.426-.168-2.126-.206C2.51 20-3.246 20-5 20z" fill="#fff"/><path d="M28.01 18.973c-1.257.014-2.178-.03-2.93.385a1.88 1.88 0 00-.839.998c-.164.438-.224.96-.224 1.617v16c0 .658.06 1.179.224 1.618.165.438.462.788.838.996.753.415 1.674.371 2.932.386h14.012c1.258-.014 2.18.031 2.932-.384a1.88 1.88 0 00.838-.998c.164-.44.145-.965.224-1.618v-16c0-.658-.06-1.179-.224-1.617a1.875 1.875 0 00-.838-.996c-.753-.416-1.674-.372-2.932-.387H28.015z" style="line-height:125%;-inkscape-font-specification:Ubuntu;text-align:center" font-weight="400" font-size="15" font-family="Ubuntu" letter-spacing="0" word-spacing="0" text-anchor="middle" opacity=".7"/><path d="M33 20c-1.557.01-5.11-.012-6.66.039-.461.042-1.016.206-1.155.71-.22.635-.109 1.334-.146 1.982-.008 2.297-.023 13.596.021 15.885.04.462.203 1.013.7 1.164.632.225 1.283.123 1.935.154 1.424.007 8.852.011 10.277.012 1.705 0 3.409-.005 5.108-.019.511-.012 1.183.02 1.584-.405.421-.54.287-1.268.323-1.904.012-2.444.028-13.91-.022-16.357-.05-.402-.17-.863-.575-1.044-.668-.294-1.426-.168-2.126-.206C40.51 20 34.754 20 33 20z" fill="#fff"/><path d="M16 5.125l-.542.833-5.333 8L9.417 15H14v3.333s-.014 1.177-.708 2.334c-.356.593-.836 1.196-1.625 1.625C10.87 22.724 9.735 23 8 23H5v4h3c4.033 0 6.503-1.74 7.958-3.625h.084C17.497 25.26 19.967 27 24 27h3v-4h-3c-1.735 0-2.87-.276-3.667-.708h-.041c-.772-.428-1.232-1.04-1.584-1.625A5.149 5.149 0 0118 18.333V15h4.583l-.708-1.042-5.333-8z" opacity=".7" stroke="#000" stroke-width="2" stroke-linejoin="round"/><path d="M16 5.125l-.542.833-5.333 8L9.417 15H14v3.333s-.014 1.177-.708 2.334c-.356.593-.836 1.196-1.625 1.625C10.87 22.724 9.735 23 8 23H5v4h3c4.033 0 6.503-1.74 7.958-3.625h.084C17.497 25.26 19.967 27 24 27h3v-4h-3c-1.735 0-2.87-.276-3.667-.708h-.041c-.772-.428-1.232-1.04-1.584-1.625A5.149 5.149 0 0118 18.333V15h4.583l-.708-1.042-5.333-8z" fill="#fee581"/></svg>