<svg xmlns="http://www.w3.org/2000/svg" height="32" width="32"><path d="M6 3C4.338 3 3 4.338 3 6v23h26V6c0-1.662-1.338-3-3-3z" fill-rule="evenodd" opacity=".7"/><path fill="#fff" fill-rule="evenodd" d="M4 11h24v17H4zM6 4c-1.108 0-2 .892-2 2v4h24V6c0-1.108-.892-2-2-2H6z"/><path d="M18.002 5.99h2v2h-2zM21.002 5.99h2v2h-2z" fill="#232629"/><path d="M24.002 5.99h2v2h-2z" fill="#88a05d"/><circle cy="26.5" cx="26.5" r="4.5" fill="#46a926"/><path overflow="visible" font-weight="400" style="line-height:normal;text-indent:0;text-align:start;text-decoration-line:none;text-decoration-style:solid;text-decoration-color:#000;text-transform:none;white-space:normal;isolation:auto;mix-blend-mode:normal;marker:none" d="M26 24v2h-2v1h2v2h1v-2h2v-1h-2v-2z" color="#000" font-family="sans-serif" fill="#fff"/></svg>