<svg xmlns="http://www.w3.org/2000/svg" viewBox="0 0 32 32"><path fill="#88a05d" d="M8 14h1v3H8zM3 4v1h1v3H3v1h7V8H9V5h1V4zm2 1h1v3H5zm2 0h1v3H7z"/><rect width="3" height="1" x="7" y="13" ry="0" fill="#88a05d"/><path fill="#88a05d" d="M7 17h3v1H7z"/><path fill="#fff" fill-rule="evenodd" d="M13 8h12V7H13z"/><path fill="#232629" fill-rule="evenodd" d="M13 7h12V6H13z"/><path fill="#fff" fill-rule="evenodd" d="M13 6h16V5H13z"/><path fill="#232629" fill-rule="evenodd" d="M13 5h16V4H13z"/><path fill="#fff" fill-rule="evenodd" d="M13 10h14V9H13z"/><path fill="#232629" fill-rule="evenodd" d="M13 9h14V8H13z"/><path fill="#fff" fill-rule="evenodd" d="M13 17h12v-1H13z"/><path fill="#232629" fill-rule="evenodd" d="M13 16h12v-1H13z"/><path fill="#fff" fill-rule="evenodd" d="M13 15h16v-1H13z"/><path fill="#232629" fill-rule="evenodd" d="M13 14h16v-1H13z"/><path fill="#fff" fill-rule="evenodd" d="M13 19h14v-1H13z"/><path fill="#232629" fill-rule="evenodd" d="M13 18h14v-1H13z"/><path fill="#fff" fill-rule="evenodd" d="M13 26h12v-1H13z"/><path fill="#232629" fill-rule="evenodd" d="M13 25h12v-1H13z"/><path fill="#fff" fill-rule="evenodd" d="M13 24h16v-1H13z"/><path fill="#232629" fill-rule="evenodd" d="M13 23h16v-1H13z"/><path fill="#fff" fill-rule="evenodd" d="M13 28h14v-1H13z"/><path fill="#232629" fill-rule="evenodd" d="M13 27h14v-1H13z"/></svg>