<svg xmlns="http://www.w3.org/2000/svg" viewBox="0 0 32 32"><path fill="#fff" fill-rule="evenodd" d="M28 9H10V8h18z"/><path fill="#232629" fill-rule="evenodd" d="M28 8H10V7h18z"/><path fill="#fff" fill-rule="evenodd" d="M28 6H4V5h24z"/><path fill="#232629" fill-rule="evenodd" d="M28 5H4V4h24z"/><path fill="#fff" fill-rule="evenodd" d="M28 12H7v-1h21z"/><path fill="#232629" fill-rule="evenodd" d="M28 11H7v-1h21z"/><path fill="#fff" fill-rule="evenodd" d="M28 19H10v-1h18z"/><path fill="#232629" fill-rule="evenodd" d="M28 18H10v-1h18z"/><path fill="#fff" fill-rule="evenodd" d="M28 16H4v-1h24z"/><path fill="#232629" fill-rule="evenodd" d="M28 15H4v-1h24z"/><path fill="#fff" fill-rule="evenodd" d="M28 22H7v-1h21z"/><path fill="#232629" fill-rule="evenodd" d="M28 21H7v-1h21z"/><path fill="#fff" fill-rule="evenodd" d="M28 27H18v1h10z"/><path fill="#232629" fill-rule="evenodd" d="M28 28H18v1h10z"/><path fill="#fff" fill-rule="evenodd" d="M28 24H15v1h13z"/><path fill="#232629" fill-rule="evenodd" d="M28 25H15v1h13z"/><path d="M7 24l-5 3 5 3z" fill="#e95420"/><path fill="#e95420" fill-rule="evenodd" d="M13 26H6v2h7z"/></svg>