<svg xmlns="http://www.w3.org/2000/svg" viewBox="0 0 32 32"><path d="M12 4c-.604 0-1 .398-1 1H7c-1.108 0-2 .892-2 2v13c0 1.108.892 2 2 2h4V12c0-1.108.892-2 2-2h8V7c0-1.108-.892-2-2-2h-4c0-.598-.4-1-1-1z" opacity=".7"/><rect width="14" height="15" x="6" y="6" ry="1" rx="1" fill="#ccc"/><path fill="#ccc" d="M12 5h2v2h-2z"/><path fill="#fff" d="M11 6h4v1h-4zM12 5h2v1h-2z"/><rect width="17" height="19" x="10" y="9" ry="2" rx="2" opacity=".2"/><rect width="17" height="19" x="10" y="9" ry="2" rx="2" opacity=".7"/><rect width="15" height="17" x="11" y="10" ry="1" rx="1" fill="#fff"/><path fill="#a7a7f1" d="M13 13h11v1H13zM13 16h11v1H13zM13 19h5v1h-5z"/></svg>