<svg xmlns="http://www.w3.org/2000/svg" viewBox="0 0 32 32"><path style="line-height:normal;font-variant-ligatures:normal;font-variant-position:normal;font-variant-caps:normal;font-variant-numeric:normal;font-variant-alternates:normal;font-variant-east-asian:normal;font-feature-settings:normal;font-variation-settings:normal;text-indent:0;text-align:start;text-decoration-line:none;text-decoration-style:solid;text-decoration-color:#000;text-transform:none;text-orientation:mixed;white-space:normal;shape-padding:0;shape-margin:0;inline-size:0;isolation:auto;mix-blend-mode:normal;solid-color:#000;solid-opacity:1" d="M7 3c-1 0-1.84-.073-2.697.355-.43.215-.82.613-1.03 1.083C3.065 4.907 3 5.417 3 6v13c0 .583.065 1.093.273 1.563.21.47.6.867 1.03 1.082.462.23.943.275 1.435.285L7 20.92v1.494L9.586 25H14v-3h11c1 0 1.84.073 2.697-.355.43-.215.82-.613 1.03-1.082.208-.47.273-.98.273-1.563V6c0-.583-.065-1.093-.273-1.563-.21-.47-.6-.867-1.03-1.082C26.84 2.927 26 3 25 3H7zm0 2h18c1 0 1.66.073 1.803.145.07.035.054.012.095.105.042.093.102.333.102.75v13c0 .417-.06.657-.102.75-.04.093-.024.07-.095.105C26.66 19.927 26 20 25 20H13a1 1 0 00-1 1v3.586l-4.293-4.293A1 1 0 007 20c-1 0-1.66-.073-1.803-.145-.07-.035-.054-.012-.095-.105C5.06 19.657 5 19.417 5 19V6c0-.417.06-.657.102-.75.04-.093.024-.07.095-.105C5.34 5.073 6 5 7 5z" color="#000" font-weight="400" font-family="sans-serif" overflow="visible" opacity=".7"/><path d="M7 4C5 4 4 4 4 6v13c0 1.963.976 1.997 2.902 1.998L7 20.92V21l4 4h2v-4h12c2 0 3 0 3-2V6c0-2-1-2-3-2H7z" fill="#fa9381"/><rect width="14" height="1" x="9" y="9" ry=".5" fill="#fff"/><rect ry=".5" y="12" x="9" height="1" width="14" fill="#fff"/><rect width="14" height="1" x="9" y="15" ry=".5" fill="#fff"/><path d="M1 27l5-4v3h7v2H6v3z" fill="#88a05d"/></svg>