<svg viewBox="0 0 32 32" xmlns="http://www.w3.org/2000/svg"><path style="opacity:1;fill:#666;fill-opacity:1;fill-rule:nonzero;stroke:none;stroke-width:2;stroke-linecap:butt;stroke-linejoin:round;stroke-miterlimit:4;stroke-dasharray:none;stroke-dashoffset:0;stroke-opacity:1" d="M11 4c-1.108 0-2 .892-2 2v4H7c-1.108 0-2 .892-2 2v9c0 1.108.892 2 2 2h2v3c0 1.108.892 2 2 2h8.541a6.06 6.06 0 0 1-.621-.824l-.035-.053a6.023 6.023 0 0 1-.242-.434l-.016-.03a5.968 5.968 0 0 1-.203-.456l-.018-.045a5.922 5.922 0 0 1-.168-.494l-.004-.014a5.922 5.922 0 0 1-.117-.482l-.023-.121a5.934 5.934 0 0 1-.065-.469c0-.01-.003-.02-.004-.031a5.993 5.993 0 0 1 .246-2.326c.06-.188.127-.37.204-.55a6 6 0 0 1 .252-.525 6.033 6.033 0 0 1 .648-.957 6.078 6.078 0 0 1 1.277-1.16c.16-.108.324-.21.494-.302a6 6 0 0 1 .526-.252 5.923 5.923 0 0 1 2.693-.463c.037.002.073.007.11.01.088.007.176.016.263.027.038.005.076.008.114.014.107.015.214.033.32.054l.023.004h.004l.006.002c.12.025.24.054.358.086l.015.004.031.01c.105.029.209.06.31.095l.03.01.016.006c.118.041.233.087.348.135l.015.006a5.967 5.967 0 0 1 .672.337V12c0-1.108-.892-2-2-2h-2V6c0-1.108-.892-2-2-2H11z"/><path style="opacity:1;fill:#fff;fill-opacity:1;fill-rule:nonzero;stroke:none;stroke-width:2;stroke-linecap:butt;stroke-linejoin:round;stroke-miterlimit:4;stroke-dasharray:none;stroke-dashoffset:0;stroke-opacity:1" d="M11 5h10c.554 0 1 .446 1 1v4H10V6c0-.554.446-1 1-1z"/><path style="opacity:1;fill:#b3b3b3;fill-opacity:1;fill-rule:nonzero;stroke:none;stroke-width:2;stroke-linecap:butt;stroke-linejoin:round;stroke-miterlimit:4;stroke-dasharray:none;stroke-dashoffset:0;stroke-opacity:1" d="M7 11c-.554 0-1 .446-1 1v9c0 .554.446 1 1 1h11.346c.829-2.324 3.056-4 5.654-4 .7 0 1.374.122 2 .346V12c0-.554-.446-1-1-1H7z"/><path style="opacity:1;fill:#666;fill-opacity:1;fill-rule:nonzero;stroke:none;stroke-width:2;stroke-linecap:butt;stroke-linejoin:round;stroke-miterlimit:4;stroke-dasharray:none;stroke-dashoffset:0;stroke-opacity:1" d="M9 19v4h9.086a6.028 6.028 0 0 1 2.611-4H9z"/><path style="opacity:1;vector-effect:none;fill:#fff;fill-opacity:1;stroke:none;stroke-width:4;stroke-linecap:butt;stroke-linejoin:round;stroke-miterlimit:4;stroke-dasharray:none;stroke-dashoffset:0;stroke-opacity:1" d="M10 20v6c0 1 1 1 1 1h7.813A5.943 5.943 0 0 1 18 24a5.97 5.97 0 0 1 1.541-4H10z"/><path style="color:#000;font-weight:400;line-height:normal;font-family:sans-serif;font-variant-ligatures:normal;font-variant-position:normal;font-variant-caps:normal;font-variant-numeric:normal;font-variant-alternates:normal;font-feature-settings:normal;text-indent:0;text-align:start;text-decoration:none;text-decoration-line:none;text-decoration-style:solid;text-decoration-color:#000;text-transform:none;text-orientation:mixed;white-space:normal;shape-padding:0;overflow:visible;isolation:auto;mix-blend-mode:normal;fill:#a7a7f1;fill-opacity:1;marker:none" d="M11 25v1h7.346a5.927 5.927 0 0 1-.26-1H11zM11 23v1h7c0-.34.03-.674.086-1H11z"/><g style="display:inline;stroke-width:.999982;enable-background:new;stroke:#666" transform="translate(-13.332 16.916) scale(.12118)"><path style="color:#000;display:inline;overflow:visible;visibility:visible;opacity:1;fill:none;fill-opacity:0;fill-rule:nonzero;stroke:#666;stroke-width:15.9997;stroke-linecap:round;stroke-linejoin:miter;stroke-miterlimit:4;stroke-dasharray:none;stroke-dashoffset:0;stroke-opacity:1;marker:none;enable-background:accumulate" d="m361.555 111.947-20-20"/><ellipse style="color:#000;display:inline;overflow:visible;visibility:visible;opacity:1;fill:#fff;fill-opacity:.97;fill-rule:nonzero;stroke:#666;stroke-width:8.25223;stroke-linecap:butt;stroke-linejoin:miter;stroke-miterlimit:4;stroke-dasharray:none;stroke-dashoffset:0;stroke-opacity:1;marker:none;enable-background:accumulate" cx="308.071" cy="58.462" rx="37.134" ry="37.136"/></g></svg>