<svg xmlns="http://www.w3.org/2000/svg" xmlns:xlink="http://www.w3.org/1999/xlink" viewBox="0 0 32 32"><defs><linearGradient xlink:href="#a" id="b" x1="17" y1="5" x2="17" y2="27" gradientUnits="userSpaceOnUse"/><linearGradient id="a"><stop style="stop-color:#151515;stop-opacity:1" offset="0"/><stop style="stop-color:#4d4d4d;stop-opacity:1" offset="1"/></linearGradient></defs><path d="M6.728 17.854a5.245 5.245 0 1 0 7.418 7.418l4.636-4.636a5.245 5.245 0 0 0 0-7.418 5.233 5.233 0 0 0-2.35-1.36l-1.144 1.145c.936.05 1.852.428 2.566 1.143a3.934 3.934 0 0 1 0 5.563l-4.636 4.636a3.934 3.934 0 1 1-5.563-5.563L10.437 16v-1.854zm6.49-6.49a5.245 5.245 0 0 0 0 7.418 5.193 5.193 0 0 0 2.355 1.354L16.71 19a3.934 3.934 0 0 1-2.564-6.708l4.636-4.636a3.934 3.934 0 1 1 5.563 5.563L21.563 16v1.854l3.71-3.708a5.245 5.245 0 0 0-7.419-7.418z" style="opacity:1;fill:#100000;fill-opacity:1;fill-rule:nonzero;stroke:#fff;stroke-width:2.62257;stroke-linecap:round;stroke-linejoin:round;stroke-miterlimit:4;stroke-dasharray:none;stroke-opacity:1"/><path style="fill:url(#b);fill-opacity:1;fill-rule:nonzero;stroke:none;stroke-width:2.62257;stroke-linecap:round;stroke-linejoin:round;stroke-miterlimit:4;stroke-dasharray:none;stroke-opacity:1" d="M21.563 5.191a5.23 5.23 0 0 0-3.71 1.538l-4.634 4.634a5.245 5.245 0 0 0 0 7.418 5.193 5.193 0 0 0 2.353 1.356l1.139-1.139a3.933 3.933 0 0 1-2.564-6.707l4.634-4.637a3.935 3.935 0 0 1 5.565 5.565L21.562 16v1.854l3.71-3.708a5.245 5.245 0 0 0-3.71-8.955Zm-5.131 6.668-1.145 1.145c.936.05 1.852.428 2.567 1.142a3.933 3.933 0 0 1 0 5.563l-4.635 4.637a3.935 3.935 0 0 1-5.565-5.565L10.438 16v-1.854l-3.71 3.708a5.245 5.245 0 0 0 7.418 7.417l4.635-4.634a5.245 5.245 0 0 0-2.35-8.778z"/><circle style="opacity:1;vector-effect:none;fill:#c7162b;fill-opacity:1;stroke:none;stroke-width:5;stroke-linecap:butt;stroke-linejoin:round;stroke-miterlimit:4;stroke-dasharray:none;stroke-dashoffset:0;stroke-opacity:1" cy="25" cx="25" r="5"/><path overflow="visible" font-weight="400" style="color:#000;font-weight:400;line-height:normal;font-family:sans-serif;text-indent:0;text-align:start;text-decoration:none;text-decoration-line:none;text-decoration-style:solid;text-decoration-color:#000;text-transform:none;white-space:normal;overflow:visible;isolation:auto;mix-blend-mode:normal;fill:#fff;fill-opacity:1;marker:none" d="M22.172 22.879 24.292 25l-2.12 2.121.707.707L25 25.708l2.121 2.12.707-.707L25.708 25l2.12-2.121-.707-.707L25 24.292l-2.121-2.12Z"/></svg>