<svg xmlns="http://www.w3.org/2000/svg" viewBox="0 0 32 32"><path style="fill:#fff;fill-rule:evenodd;stroke-width:3;stroke-linecap:round;stroke-linejoin:round" transform="scale(1 -1)" d="M11-8h12v1H11z"/><path style="fill:#232629;fill-rule:evenodd;stroke-width:3;stroke-linecap:round;stroke-linejoin:round" transform="scale(1 -1)" d="M11-7h12v1H11z"/><path style="fill:#fff;fill-rule:evenodd;stroke-width:3;stroke-linecap:round;stroke-linejoin:round" transform="scale(1 -1)" d="M11-6h16v1H11z"/><path style="fill:#232629;fill-rule:evenodd;stroke-width:3;stroke-linecap:round;stroke-linejoin:round" transform="scale(1 -1)" d="M11-5h16v1H11z"/><path style="fill:#fff;fill-rule:evenodd;stroke-width:3;stroke-linecap:round;stroke-linejoin:round" transform="scale(1 -1)" d="M11-10h14v1H11z"/><path style="fill:#232629;fill-rule:evenodd;stroke-width:3;stroke-linecap:round;stroke-linejoin:round" transform="scale(1 -1)" d="M11-9h14v1H11z"/><path style="fill:#fff;fill-rule:evenodd;stroke-width:3;stroke-linecap:round;stroke-linejoin:round" transform="scale(1 -1)" d="M11-17h12v1H11z"/><path style="fill:#232629;fill-rule:evenodd;stroke-width:3;stroke-linecap:round;stroke-linejoin:round" transform="scale(1 -1)" d="M11-16h12v1H11z"/><path style="fill:#fff;fill-rule:evenodd;stroke-width:3;stroke-linecap:round;stroke-linejoin:round" transform="scale(1 -1)" d="M11-15h16v1H11z"/><path style="fill:#232629;fill-rule:evenodd;stroke-width:3;stroke-linecap:round;stroke-linejoin:round" transform="scale(1 -1)" d="M11-14h16v1H11z"/><path style="fill:#fff;fill-rule:evenodd;stroke-width:3;stroke-linecap:round;stroke-linejoin:round" transform="scale(1 -1)" d="M11-19h14v1H11z"/><path style="fill:#232629;fill-rule:evenodd;stroke-width:3;stroke-linecap:round;stroke-linejoin:round" transform="scale(1 -1)" d="M11-18h14v1H11z"/><path style="fill:#fff;fill-rule:evenodd;stroke-width:3;stroke-linecap:round;stroke-linejoin:round" transform="scale(1 -1)" d="M11-26h12v1H11z"/><path style="fill:#232629;fill-rule:evenodd;stroke-width:3;stroke-linecap:round;stroke-linejoin:round" transform="scale(1 -1)" d="M11-25h12v1H11z"/><path style="fill:#fff;fill-rule:evenodd;stroke-width:3;stroke-linecap:round;stroke-linejoin:round" transform="scale(1 -1)" d="M11-24h16v1H11z"/><path style="fill:#232629;fill-rule:evenodd;stroke-width:3;stroke-linecap:round;stroke-linejoin:round" transform="scale(1 -1)" d="M11-23h16v1H11z"/><path style="fill:#fff;fill-rule:evenodd;stroke-width:3;stroke-linecap:round;stroke-linejoin:round" transform="scale(1 -1)" d="M11-28h14v1H11z"/><path style="fill:#232629;fill-rule:evenodd;stroke-width:3;stroke-linecap:round;stroke-linejoin:round" transform="scale(1 -1)" d="M11-27h14v1H11z"/><circle style="fill:#88a05d;fill-rule:evenodd;stroke-width:2;stroke-linecap:round;stroke-linejoin:round" cx="6.5" cy="5.5" r="1.5"/><circle style="fill:#88a05d;fill-rule:evenodd;stroke-width:2;stroke-linecap:round;stroke-linejoin:round" cx="6.5" cy="14.5" r="1.5"/><circle style="fill:#88a05d;fill-rule:evenodd;stroke-width:2;stroke-linecap:round;stroke-linejoin:round" cx="6.5" cy="23.5" r="1.5"/><circle style="opacity:1;vector-effect:none;fill:#c7162b;fill-opacity:1;stroke:none;stroke-width:3.5;stroke-linecap:butt;stroke-linejoin:round;stroke-miterlimit:4;stroke-dasharray:none;stroke-dashoffset:0;stroke-opacity:1" cy="27.5" cx="27.5" r="3.5"/><path overflow="visible" font-weight="400" style="color:#000;font-weight:400;line-height:normal;font-family:sans-serif;text-indent:0;text-align:start;text-decoration:none;text-decoration-line:none;text-decoration-style:solid;text-decoration-color:#000;text-transform:none;white-space:normal;overflow:visible;isolation:auto;mix-blend-mode:normal;fill:#fff;fill-opacity:1;marker:none" d="M28.914 25.379 27.5 26.793l-1.414-1.414-.707.707 1.414 1.414-1.414 1.414.707.707 1.414-1.414 1.414 1.414.707-.707-1.414-1.414 1.414-1.414z"/></svg>