<svg xmlns="http://www.w3.org/2000/svg" viewBox="0 0 32 32"><path fill="#fff" d="M5 5h22v22H5z"/><path d="M4 6v20c0 2 1 2 3 2h18c2 0 3 0 3-2V6c0-2-1-2-3-2H7C5 4 4 4 4 6zm1 0c0-1 1-1 2-1h5v2H5zm8-1h6v2h-6zm7 0h5c1 0 2 0 2 1v1h-7zM5 8h7v3H5zm8 0h6v3h-6zm7 0h7v3h-7zM5 12h7v3H5zm8 0h6v3h-6zm7 0h7v3h-7zM5 16h7v3H5zm8 0h6v3h-6zm7 0h7v3h-7zM5 20h7v3H5zm8 0h6v3h-6zm7 0h7v3h-7zM5 24h7v3H7c-1 0-2 0-2-1zm8 0h6v3h-6zm7 0h7v2c0 1-1 1-2 1h-5z" fill="#6d6d6d"/><g color="#000" font-weight="400" font-family="sans-serif" fill-rule="evenodd"><path d="M24 13v3h1.992a.451.451 0 00.008.025v10.95l-.008.025H24v3h2c.599 0 1.086-.2 1.5-.46.414.26.901.46 1.5.46h2v-3h-1.992L29 26.975v-10.95l.008-.025H31v-3h-2c-.599 0-1.086.2-1.5.46-.414-.26-.901-.46-1.5-.46z" style="line-height:normal;font-variant-ligatures:normal;font-variant-position:normal;font-variant-caps:normal;font-variant-numeric:normal;font-variant-alternates:normal;font-feature-settings:normal;text-indent:0;text-align:start;text-decoration-line:none;text-decoration-style:solid;text-decoration-color:#000;text-transform:none;text-orientation:mixed;white-space:normal;shape-padding:0;isolation:auto;mix-blend-mode:normal;solid-color:#000;solid-opacity:1" overflow="visible" fill="#fff"/><path style="line-height:normal;font-variant-ligatures:normal;font-variant-position:normal;font-variant-caps:normal;font-variant-numeric:normal;font-variant-alternates:normal;font-feature-settings:normal;text-indent:0;text-align:start;text-decoration-line:none;text-decoration-style:solid;text-decoration-color:#000;text-transform:none;text-orientation:mixed;white-space:normal;shape-padding:0;isolation:auto;mix-blend-mode:normal;solid-color:#000;solid-opacity:1" d="M25 14v1h1c.583 0 .737.217.865.473.128.255.135.527.135.527v11s-.007.272-.135.527c-.128.256-.403.473-.865.473h-1v1h1c.727 0 1.19-.353 1.5-.738.31.385.773.738 1.5.738h1v-1h-1c-.583 0-.737-.217-.865-.473A1.404 1.404 0 0128 27V16s.007-.272.135-.527c.128-.256.282-.473.865-.473h1v-1h-1c-.727 0-1.19.353-1.5.738-.31-.385-.773-.738-1.5-.738z" overflow="visible" fill="#111"/></g></svg>