<svg xmlns="http://www.w3.org/2000/svg" viewBox="0 0 32 32"><path style="opacity:.7;vector-effect:none;fill:#000;fill-opacity:1;stroke:none;stroke-width:2;stroke-linecap:round;stroke-linejoin:round;stroke-miterlimit:4;stroke-dasharray:none;stroke-dashoffset:0;stroke-opacity:1" d="M12 4c-.604 0-1 .398-1 1H7c-1.108 0-2 .892-2 2v13c0 1.108.892 2 2 2h4V12c0-1.108.892-2 2-2h8V7c0-1.108-.892-2-2-2h-4c0-.598-.4-1-1-1z"/><rect style="opacity:1;vector-effect:none;fill:#ccc;fill-opacity:1;stroke:none;stroke-width:2;stroke-linecap:round;stroke-linejoin:round;stroke-miterlimit:4;stroke-dasharray:none;stroke-dashoffset:0;stroke-opacity:1" width="14" height="15" x="6" y="6" ry="1" rx="1"/><path style="opacity:1;vector-effect:none;fill:#ccc;fill-opacity:1;stroke:none;stroke-width:2;stroke-linecap:round;stroke-linejoin:round;stroke-miterlimit:4;stroke-dasharray:none;stroke-dashoffset:0;stroke-opacity:1" d="M12 5h2v2h-2z"/><path style="opacity:1;vector-effect:none;fill:#fff;fill-opacity:1;stroke:none;stroke-width:2;stroke-linecap:round;stroke-linejoin:round;stroke-miterlimit:4;stroke-dasharray:none;stroke-dashoffset:0;stroke-opacity:1" d="M11 6h4v1h-4zM12 5h2v1h-2z"/><path style="opacity:.7;vector-effect:none;fill:#000;fill-opacity:1;stroke:none;stroke-width:2;stroke-linecap:round;stroke-linejoin:round;stroke-miterlimit:4;stroke-dasharray:none;stroke-dashoffset:0;stroke-opacity:1" d="M12 9c-1.108 0-2 .892-2 2v15c0 1.108.892 2 2 2h6.648l-1.389-1.122 6.116-5.58L25 20v4.982h2V11c0-1.108-.892-2-2-2z"/><path style="opacity:1;vector-effect:none;fill:#fff;fill-opacity:1;stroke:none;stroke-width:2;stroke-linecap:round;stroke-linejoin:round;stroke-miterlimit:4;stroke-dasharray:none;stroke-dashoffset:0;stroke-opacity:1" d="M12 10c-.554 0-1 .446-1 1v15c0 .554.446 1 1 1h5.398l5.977-4.781 1.625-1.3v4.063h1V11c0-.554-.446-1-1-1H12z"/><path style="opacity:1;vector-effect:none;fill:#a7a7f1;fill-opacity:1;stroke:none;stroke-width:2.50713277;stroke-linecap:round;stroke-linejoin:round;stroke-miterlimit:4;stroke-dasharray:none;stroke-dashoffset:0;stroke-opacity:1" d="M13 12h11v1H13zM13 15h11v1H13z"/><path style="opacity:1;vector-effect:none;fill:#a7a7f1;fill-opacity:1;stroke:none;stroke-width:2.23606801;stroke-linecap:round;stroke-linejoin:round;stroke-miterlimit:4;stroke-dasharray:none;stroke-dashoffset:0;stroke-opacity:1" d="M13 18h5v1h-5z"/><path style="fill:#88a05d;fill-opacity:1;stroke:none;stroke-width:1px;stroke-linecap:butt;stroke-linejoin:miter;stroke-opacity:1" d="m24 23-5 4 5 4v-3.004l3.984-.014c2 0 3-1 3-3L31 23h-2l-.016.982c0 2 0 2-2 2H24V23z"/></svg>