<svg xmlns="http://www.w3.org/2000/svg" xmlns:xlink="http://www.w3.org/1999/xlink" viewBox="0 0 32 32"><defs><linearGradient xlink:href="#a" id="b" x1="16" y1="6" x2="16" y2="26" gradientUnits="userSpaceOnUse" gradientTransform="translate(-1)"/><linearGradient id="a"><stop offset="0" stop-color="#151515"/><stop offset="1" stop-color="#4d4d4d"/></linearGradient></defs><path d="M17 9L8 29h3l2.908-6h10.184L27 29h3L21 9h-2zm2 2.402L22.85 20h-7.7z" fill="#6d6d6d" stroke="#6d6d6d" stroke-width="2" stroke-linejoin="round"/><path d="M13 6L4 26h3l2.908-6h10.184L23 26h3L17 6h-2zm2 2.402L18.85 17h-7.7z" stroke="#fff" stroke-width="2" stroke-linejoin="round"/><path d="M13 6L4 26h3l2.908-6h10.184L23 26h3L17 6h-2zm2 2.402L18.85 17h-7.7z" fill="url(#b)"/></svg>