<svg xmlns="http://www.w3.org/2000/svg" viewBox="0 0 32 32"><path d="M5 5h22v22H5z" fill="#fff"/><path d="M4 4v24h24V4zm1 1h22v22H5z" fill="#232629"/><path d="M3 3v26h26V3zm1 1h24v24H4z" fill="#88a05d"/><path d="M26.951 22A2 2 0 0025 24v2h-1v4h6v-4h-1v-2a2 2 0 00-2-2 2 2 0 00-.049 0zM27 23a1 1 0 011 1v2h-2v-2a1 1 0 011-1z" opacity=".7" fill-rule="evenodd" stroke="#000" stroke-width="2" stroke-linecap="round" stroke-linejoin="round"/><path d="M26.951 22A2 2 0 0025 24v2h-1v4h6v-4h-1v-2a2 2 0 00-2-2 2 2 0 00-.049 0zM27 23a1 1 0 011 1v2h-2v-2a1 1 0 011-1z" fill="#fee581" fill-rule="evenodd"/></svg>