<svg xmlns="http://www.w3.org/2000/svg" viewBox="0 0 32 32"><path d="M26 7l-3 5h2v8h-2l3 5 3-5h-2v-8h2z" fill="#88a05d"/><path fill="#fff" fill-rule="evenodd" d="M3 9h16V8H3z"/><path fill="#232629" fill-rule="evenodd" d="M3 8h16V7H3z"/><path fill="#fff" fill-rule="evenodd" d="M3 12h16v-1H3z"/><path fill="#232629" fill-rule="evenodd" d="M3 11h16v-1H3z"/><path fill="#fff" fill-rule="evenodd" d="M3 15h16v-1H3z"/><path fill="#232629" fill-rule="evenodd" d="M3 14h16v-1H3z"/><path fill="#fff" fill-rule="evenodd" d="M3 21h16v-1H3z"/><path fill="#232629" fill-rule="evenodd" d="M3 20h16v-1H3z"/><path fill="#fff" fill-rule="evenodd" d="M3 24h16v-1H3z"/><path fill="#232629" fill-rule="evenodd" d="M3 23h16v-1H3z"/><path fill="#fff" fill-rule="evenodd" d="M3 18h16v-1H3z"/><path fill="#232629" fill-rule="evenodd" d="M3 17h16v-1H3z"/></svg>