<svg xmlns="http://www.w3.org/2000/svg" viewBox="0 0 32 32"><path style="fill:#88a05d;fill-opacity:1" d="m26 7-3 5h2v8h-2l3 5 3-5h-2v-8h2z"/><path style="fill:#fff;fill-rule:evenodd;stroke-width:3;stroke-linecap:round;stroke-linejoin:round" transform="scale(1 -1)" d="M3-9h16v1H3z"/><path style="fill:#232629;fill-rule:evenodd;stroke-width:3;stroke-linecap:round;stroke-linejoin:round" transform="scale(1 -1)" d="M3-8h16v1H3z"/><path style="fill:#fff;fill-rule:evenodd;stroke-width:3;stroke-linecap:round;stroke-linejoin:round" transform="scale(1 -1)" d="M3-12h16v1H3z"/><path style="fill:#232629;fill-rule:evenodd;stroke-width:3;stroke-linecap:round;stroke-linejoin:round" transform="scale(1 -1)" d="M3-11h16v1H3z"/><path style="fill:#fff;fill-rule:evenodd;stroke-width:3;stroke-linecap:round;stroke-linejoin:round" transform="scale(1 -1)" d="M3-15h16v1H3z"/><path style="fill:#232629;fill-rule:evenodd;stroke-width:3;stroke-linecap:round;stroke-linejoin:round" transform="scale(1 -1)" d="M3-14h16v1H3z"/><path style="fill:#fff;fill-rule:evenodd;stroke-width:3;stroke-linecap:round;stroke-linejoin:round" transform="scale(1 -1)" d="M3-21h16v1H3z"/><path style="fill:#232629;fill-rule:evenodd;stroke-width:3;stroke-linecap:round;stroke-linejoin:round" transform="scale(1 -1)" d="M3-20h16v1H3z"/><path style="fill:#fff;fill-rule:evenodd;stroke-width:3;stroke-linecap:round;stroke-linejoin:round" transform="scale(1 -1)" d="M3-24h16v1H3z"/><path style="fill:#232629;fill-rule:evenodd;stroke-width:3;stroke-linecap:round;stroke-linejoin:round" transform="scale(1 -1)" d="M3-23h16v1H3z"/><path style="fill:#fff;fill-rule:evenodd;stroke-width:3;stroke-linecap:round;stroke-linejoin:round" transform="scale(1 -1)" d="M3-18h16v1H3z"/><path style="fill:#232629;fill-rule:evenodd;stroke-width:3;stroke-linecap:round;stroke-linejoin:round" transform="scale(1 -1)" d="M3-17h16v1H3z"/></svg>