<svg xmlns="http://www.w3.org/2000/svg" viewBox="0 0 32 32"><path style="fill:#000;stroke:#000;opacity:.7;stroke-width:2;stroke-miterlimit:4;stroke-dasharray:none;stroke-linejoin:round" fill="#232629" d="m19.027 4-2.574 5.963-1.734-4.856-1.492 5.008-3.368-4.072 3.692 6.603-6.217-4.193 4.787 5.656-6.055-2.277 3.608 2.78L4.08 16.38l6.455.932L4 20.245l7.23-1.088-2.718 5.418 5.103-4.27-3.7 6.073 5.067-4.223-1.283 4.719 2.576-5.77L18.008 28l1.496-7.047 3.363 3.879-1.252-4.178 5.12 2.989-6.128-4.454L28 20.563l-4.945-3.86 4.498-.99-5.358.273 5.438-4.136-6.135 2.293 4.057-4.584-6.442 1.2 3.701-3.837-5.07 4.523z"/><path d="m19.027 4-2.574 5.963-1.734-4.856-1.492 5.008-3.368-4.072 3.692 6.603-6.217-4.193 4.787 5.656-6.055-2.277 3.608 2.78L4.08 16.38l6.455.932L4 20.245l7.23-1.088-2.718 5.418 5.103-4.27-3.7 6.073 5.067-4.223-1.283 4.719 2.576-5.77L18.008 28l1.496-7.047 3.363 3.879-1.252-4.178 5.12 2.989-6.128-4.454L28 20.563l-4.945-3.86 4.498-.99-5.358.273 5.438-4.136-6.135 2.293 4.057-4.584-6.442 1.2 3.701-3.837-5.07 4.523z" fill="#232629" style="fill:#fff"/></svg>