<svg xmlns="http://www.w3.org/2000/svg" xmlns:xlink="http://www.w3.org/1999/xlink" viewBox="0 0 32 32"><defs><linearGradient xlink:href="#a" id="b" x1="22" y1="4" x2="22" y2="19" gradientUnits="userSpaceOnUse"/><linearGradient id="a"><stop offset="0" stop-color="#151515"/><stop offset="1" stop-color="#4d4d4d"/></linearGradient></defs><path d="M24.75 16h-6.5L17 19h-3l6-15h3l6 15h-3zM19 14h5l-2.5-7z" stroke="#fff" stroke-width="2" stroke-linecap="round" stroke-linejoin="round"/><path d="M24.75 16h-6.5L17 19h-3l6-15h3l6 15h-3zM19 14h5l-2.5-7z" fill="url(#b)"/><rect width="14" height="6" x="15.26" y="-.885" ry="2" rx="2" transform="rotate(45)" opacity=".7" fill-rule="evenodd" stroke="#000" stroke-width="2" stroke-linejoin="round"/><path d="M19.901 21.479l1.415 1.414c1.414 1.414.707 2.121 0 2.828l-2.829 2.829c-.707.707-1.414 1.414-2.828 0l-4.95-4.95c-.707-.707-.707-.707-1.414 0L7.88 22.186l.707-.707c.707-.707 1.414-1.414 2.828 0l4.95 4.95c.707.707.707.707 1.414 0l1.414-1.415c.707-.707.707-.707 0-1.414l-.707-.707 1.414-1.414" fill="#6d6d6d"/><path d="M7.88 22.186L9.296 23.6c.707.707.707.707-1.414 2.829l-3.536 3.535c-1.414 1.414-1.414 1.414-2.828 0-1.415-1.414-1.415-1.414 0-2.828L5.052 23.6c2.122-2.121 2.122-2.121 2.829-1.414z" fill="#fa9381"/><rect ry="2" y="-.885" x="15.26" height="6" width="14" rx="2" transform="rotate(45)" fill="#fff" fill-rule="evenodd"/><circle cx="25.438" cy="25.5" r="4.5" fill="#88a05d"/><path d="M27.625 24.313l-.75.75c.041.137.063.286.063.437 0 .831-.67 1.5-1.5 1.5-.151 0-.3-.021-.438-.063l-.75.75c.355.193.754.313 1.188.313 1.385 0 2.5-1.115 2.5-2.5 0-.433-.12-.833-.313-1.188zM25.437 23a2.495 2.495 0 00-2.5 2.5c0 .433.12.833.313 1.188l.75-.75a1.539 1.539 0 01-.063-.438c0-.831.67-1.5 1.5-1.5.151 0 .3.021.438.063l.75-.75A2.475 2.475 0 0025.437 23z" fill="#fff"/></svg>