<svg xmlns="http://www.w3.org/2000/svg" xmlns:xlink="http://www.w3.org/1999/xlink" viewBox="0 0 32 32"><defs><linearGradient xlink:href="#a" id="b" x1="16" y1="6" x2="16" y2="26" gradientUnits="userSpaceOnUse"/><linearGradient id="a"><stop offset="0" stop-color="#151515"/><stop offset="1" stop-color="#4d4d4d"/></linearGradient></defs><path d="M24 1v10h4a3 3 0 001.254-5.723A2.5 2.5 0 0030 3.5a2.5 2.5 0 00-2.4-2.496V1H25zm1 1h2.5a1.5 1.5 0 010 3H25zm0 4h3a2 2 0 010 4h-3z" fill="#88a05d"/><path d="M14 6L5 26h3l2.908-6h10.184L24 26h3L18 6h-2zm2 2.402L19.85 17h-7.7z" stroke="#fff" stroke-width="2" stroke-linejoin="round"/><path d="M14 6L5 26h3l2.908-6h10.184L24 26h3L18 6h-2zm2 2.402L19.85 17h-7.7z" fill="url(#b)"/></svg>