<svg xmlns="http://www.w3.org/2000/svg" viewBox="0 0 32 32"><path style="fill:#000;stroke:#000;opacity:.7;stroke-width:2;stroke-miterlimit:4;stroke-dasharray:none;stroke-linejoin:round" fill="#232629" d="M16.94 4v1.184c1.184 0 1.216.478 1.216 2.21V9h-.008c.002.138.008 2.236.008 2.395v2.033c0 .83.205 2.07 1.203 2.582-.998.512-1.203 1.749-1.203 2.58v2.015c0 .16-.006 2.257-.008 2.395h.008v1.605c0 1.733-.032 2.211-1.217 2.211V28c1.777 0 2.538-.706 2.538-2.51V23.05l.002-.049h-.002v-3.951c0-1.114.068-2.404 1.033-2.404H21v-1.29h-.49c-.965 0-1.033-1.29-1.033-2.404V9h.002l-.002-.049V6.51c0-1.804-.76-2.51-2.538-2.51z"/><path d="M16.94 4v1.184c1.184 0 1.216.478 1.216 2.21V9h-.008c.002.138.008 2.236.008 2.395v2.033c0 .83.205 2.07 1.203 2.582-.998.512-1.203 1.749-1.203 2.58v2.015c0 .16-.006 2.257-.008 2.395h.008v1.605c0 1.733-.032 2.211-1.217 2.211V28c1.777 0 2.538-.706 2.538-2.51V23.05l.002-.049h-.002v-3.951c0-1.114.068-2.404 1.033-2.404H21v-1.29h-.49c-.965 0-1.033-1.29-1.033-2.404V9h.002l-.002-.049V6.51c0-1.804-.76-2.51-2.538-2.51z" fill="#232629" style="fill:#fff"/></svg>