<svg xmlns="http://www.w3.org/2000/svg" viewBox="0 0 32 32"><path d="M10 4C8 4 6 5 6 7v17c0 2 2 3 4 3h12c2 0 4-1 4-3V7c0-2-2-3-4-3h-3z" opacity=".7" stroke="#000" stroke-width="2"/><path d="M10 4C8 4 6 5 6 7v17c0 2 2 3 4 3h12c2 0 4-1 4-3V7c0-2-2-3-4-3h-3z" fill="#fff"/><path fill="#1463a5" d="M14 8h9v1h-9zM9 8h3v3H9z"/><path fill="#88a05d" d="M9 14h3v3H9z"/><path fill="#46a926" d="M9 20h3v3H9z"/><path fill="#88a05d" d="M14 14h9v1h-9z"/><path fill="#46a926" d="M14 20h9v1h-9z"/><path fill="#1463a5" d="M14 10h9v1h-9z"/><path fill="#88a05d" d="M14 16h9v1h-9z"/><path fill="#46a926" d="M14 22h9v1h-9z"/></svg>