<svg xmlns="http://www.w3.org/2000/svg" xmlns:xlink="http://www.w3.org/1999/xlink" viewBox="0 0 32 32"><defs><linearGradient id="a"><stop offset="0" stop-color="#151515"/><stop offset="1" stop-color="#4d4d4d"/></linearGradient><linearGradient xlink:href="#a" id="b" x1="16" y1="4" x2="16" y2="28" gradientUnits="userSpaceOnUse"/></defs><path d="M9 4v14c0 5 3 7 7 7s7-3 7-7V4h-3v14a4 4 0 01-4 4c-2.21 0-4.13-1.795-4-4V4h-1zM7 27v1h18v-1z" stroke="#fff" stroke-width="2" stroke-linejoin="round"/><path d="M9 4v14c0 5 3 7 7 7s7-3 7-7V4h-3v14a4 4 0 01-4 4c-2.21 0-4.13-1.795-4-4V4H9zM7 27v1h18v-1H7z" fill="url(#b)"/></svg>