<svg xmlns="http://www.w3.org/2000/svg" xmlns:xlink="http://www.w3.org/1999/xlink" viewBox="0 0 32 32"><defs><linearGradient id="a"><stop offset="0" stop-color="#151515"/><stop offset="1" stop-color="#4d4d4d"/></linearGradient><linearGradient xlink:href="#a" id="b" x1="16" y1="3" x2="16" y2="29" gradientUnits="userSpaceOnUse"/></defs><path d="M7 26v1h18v-1zm0 2v1h18v-1zM9 3v14c0 5 3 7 7 7s7-3 7-7V3h-3v14a4 4 0 01-4 4c-2.21 0-4.13-1.795-4-4V3h-1z" stroke="#fff" stroke-width="2" stroke-linejoin="round"/><path d="M9 3v14c0 5 3 7 7 7s7-3 7-7V3h-3v14a4 4 0 01-4 4c-2.21 0-4.13-1.795-4-4V3H9zM7 26v1h18v-1H7zm0 2v1h18v-1H7z" fill="url(#b)"/></svg>