<svg xmlns="http://www.w3.org/2000/svg" viewBox="0 0 32 32"><path d="M27.027 6.994c-.014-1.258.03-2.179-.385-2.931a1.88 1.88 0 00-.998-.838C25.206 3.06 24.684 3 24.027 3H8c-.657 0-1.178.06-1.617.225a1.875 1.875 0 00-.996.838c-.415.752-.372 1.673-.387 2.931v18.012c.015 1.258-.03 2.179.385 2.931.208.377.56.674.998.838.439.165.96.225 1.617.225h16.028c.658 0 1.179-.06 1.617-.225.439-.164.789-.461.996-.837.416-.753.372-1.674.387-2.932V6.998z" style="line-height:125%;-inkscape-font-specification:Ubuntu;text-align:center" font-weight="400" font-size="15" font-family="Ubuntu" letter-spacing="0" word-spacing="0" text-anchor="middle" opacity=".7"/><path d="M26 10.985c-.01-1.557.012-4.112-.039-5.662-.042-.46-.206-1.016-.71-1.155-.635-.219-1.334-.108-1.982-.146C20.972 4.014 9.646 4 7.356 4.044c-.462.039-1.012.202-1.163.699-.225.632-.123 1.284-.155 1.936a1425.69 1425.69 0 00-.01 5.278c-.001 1.704.004 12.406.018 14.105.012.512-.02 1.184.405 1.585.54.42 1.268.287 1.904.323 2.444.011 13.938.027 16.384-.022.402-.05.863-.17 1.044-.575.294-.669.168-1.427.206-2.126C26 23.492 26 12.739 26 10.985z" fill="#fa9381"/><path d="M22 9h-2v6H10v2h10v6h2z" fill="#fff"/></svg>