<svg xmlns="http://www.w3.org/2000/svg" xmlns:xlink="http://www.w3.org/1999/xlink" viewBox="0 0 32 32"><defs><linearGradient xlink:href="#a" id="b" x1="16" y1="6" x2="16" y2="26" gradientUnits="userSpaceOnUse"/><linearGradient id="a"><stop offset="0" stop-color="#151515"/><stop offset="1" stop-color="#4d4d4d"/></linearGradient></defs><path style="line-height:normal;font-variant-ligatures:normal;font-variant-position:normal;font-variant-caps:normal;font-variant-numeric:normal;font-variant-alternates:normal;font-variant-east-asian:normal;font-feature-settings:normal;font-variation-settings:normal;text-indent:0;text-align:start;text-decoration-line:none;text-decoration-style:solid;text-decoration-color:#000;text-transform:none;text-orientation:mixed;white-space:normal;shape-padding:0;shape-margin:0;inline-size:0;isolation:auto;mix-blend-mode:normal;solid-color:#000;solid-opacity:1" d="M14 5a1 1 0 00-.912.59l-9 20A1 1 0 005 27h3a1 1 0 00.9-.564L11.535 21H21v-2H10.908a1 1 0 00-.9.564L7.373 25h-.826l8.1-18h2.707l5.4 12h2.193L18.912 5.59A1 1 0 0018 5h-4zm1.973 2.402a1 1 0 00-.885.592l-3.85 8.598A1 1 0 0012.15 18h7.7a1 1 0 00.912-1.408l-3.85-8.598a1 1 0 00-.94-.592zM16 10.848L18.307 16h-4.614L16 10.848z" color="#000" font-weight="400" font-family="sans-serif" overflow="visible" fill="#fff"/><path d="M14 6L5 26h3l2.908-6H21v-1h2.85L18 6h-4zm2 2.402L19.85 17h-7.7L16 8.402z" fill="url(#b)"/><path d="M22 20v2h-2v2h2v2h-2v2h2v2h2v-2h2v2h2v-2h2v-2h-2v-2h2v-2h-2v-2h-2v2h-2v-2zm2 4h2v2h-2z" style="line-height:normal;font-variant-ligatures:normal;font-variant-position:normal;font-variant-caps:normal;font-variant-numeric:normal;font-variant-alternates:normal;font-feature-settings:normal;text-indent:0;text-align:start;text-decoration-line:none;text-decoration-style:solid;text-decoration-color:#000;text-transform:none;text-orientation:mixed;white-space:normal;shape-padding:0;isolation:auto;mix-blend-mode:normal;solid-color:#000;solid-opacity:1;marker:none" color="#000" font-weight="400" font-family="sans-serif" overflow="visible" fill="#1a7fd4"/></svg>