<svg xmlns="http://www.w3.org/2000/svg" viewBox="0 0 32 32"><path d="M10 9v13h12V9z" opacity=".7" stroke="#000" stroke-width="2" stroke-linejoin="round"/><path d="M10 9v13h12V9z" fill="#88a05d"/><path fill="#232629" fill-rule="evenodd" d="M3 6h26v1H3z"/><path fill="#fff" fill-rule="evenodd" d="M4 7h24v1H4z"/><path fill="#232629" fill-rule="evenodd" d="M3 4h26v1H3z"/><path fill="#fff" fill-rule="evenodd" d="M4 5h24v1H4z"/><path fill="#232629" fill-rule="evenodd" d="M3 25h26v-1H3z"/><path fill="#fff" fill-rule="evenodd" d="M4 24h24v-1H4z"/><path fill="#232629" fill-rule="evenodd" d="M3 27h26v-1H3z"/><path fill="#fff" fill-rule="evenodd" d="M4 26h24v-1H4z"/><path fill="#232629" fill-rule="evenodd" d="M3 8h5v1H3zM3 10h5v1H3zM3 12h5v1H3zM3 14h5v1H3zM3 16h5v1H3zM3 18h5v1H3z"/><path fill="#fff" fill-rule="evenodd" d="M4 9h5v1H4zM4 11h5v1H4zM4 13h5v1H4zM4 15h5v1H4zM4 17h5v1H4z"/><path fill="#232629" fill-rule="evenodd" d="M3 20h5v1H3zM3 22h5v1H3z"/><path fill="#fff" fill-rule="evenodd" d="M4 19h5v1H4zM4 21h5v1H4z"/><path fill="#232629" fill-rule="evenodd" d="M29 23h-5v-1h5zM29 21h-5v-1h5zM29 19h-5v-1h5zM29 17h-5v-1h5zM29 15h-5v-1h5zM29 13h-5v-1h5z"/><path fill="#fff" fill-rule="evenodd" d="M28 22h-5v-1h5zM28 20h-5v-1h5zM28 18h-5v-1h5zM28 16h-5v-1h5zM28 14h-5v-1h5z"/><path fill="#232629" fill-rule="evenodd" d="M29 11h-5v-1h5zM29 9h-5V8h5z"/><path fill="#fff" fill-rule="evenodd" d="M28 12h-5v-1h5zM28 10h-5V9h5z"/></svg>