<svg xmlns="http://www.w3.org/2000/svg" viewBox="0 0 32 32"><path d="M10 10v13h12V10z" opacity=".7" stroke="#000" stroke-width="2" stroke-linejoin="round"/><path d="M10 10v13h12V10z" fill="#d85eca"/><path fill="#232629" fill-rule="evenodd" d="M3 7h26v1H3z"/><path fill="#fff" fill-rule="evenodd" d="M4 8h24v1H4z"/><path fill="#232629" fill-rule="evenodd" d="M3 5h26v1H3z"/><path fill="#fff" fill-rule="evenodd" d="M4 6h24v1H4z"/><path fill="#232629" fill-rule="evenodd" d="M3 26h26v-1H3z"/><path fill="#fff" fill-rule="evenodd" d="M4 25h24v-1H4z"/><path fill="#232629" fill-rule="evenodd" d="M3 28h26v-1H3z"/><path fill="#fff" fill-rule="evenodd" d="M4 27h24v-1H4z"/><path fill="#232629" fill-rule="evenodd" d="M3 9h5v1H3zM3 11h5v1H3zM3 13h5v1H3zM3 15h5v1H3zM3 17h5v1H3zM3 19h5v1H3z"/><path fill="#fff" fill-rule="evenodd" d="M4 10h5v1H4zM4 12h5v1H4zM4 14h5v1H4zM4 16h5v1H4zM4 18h5v1H4z"/><path fill="#232629" fill-rule="evenodd" d="M3 21h5v1H3zM3 23h5v1H3z"/><path fill="#fff" fill-rule="evenodd" d="M4 20h5v1H4zM4 22h5v1H4z"/><path fill="#232629" fill-rule="evenodd" d="M29 24h-5v-1h5zM29 22h-5v-1h5zM29 20h-5v-1h5zM29 18h-5v-1h5zM29 16h-5v-1h5zM29 14h-5v-1h5z"/><path fill="#fff" fill-rule="evenodd" d="M28 23h-5v-1h5zM28 21h-5v-1h5zM28 19h-5v-1h5zM28 17h-5v-1h5zM28 15h-5v-1h5z"/><path fill="#232629" fill-rule="evenodd" d="M29 12h-5v-1h5zM29 10h-5V9h5z"/><path fill="#fff" fill-rule="evenodd" d="M28 13h-5v-1h5zM28 11h-5v-1h5z"/></svg>