<svg xmlns="http://www.w3.org/2000/svg" viewBox="0 0 32 32"><path style="line-height:normal;font-variant-ligatures:normal;font-variant-position:normal;font-variant-caps:normal;font-variant-numeric:normal;font-variant-alternates:normal;font-variant-east-asian:normal;font-feature-settings:normal;font-variation-settings:normal;text-indent:0;text-align:start;text-decoration-line:none;text-decoration-style:solid;text-decoration-color:#000;text-transform:none;text-orientation:mixed;white-space:normal;shape-padding:0;shape-margin:0;inline-size:0;isolation:auto;mix-blend-mode:normal;solid-color:#000;solid-opacity:1" d="M14.494 4a10.47 10.47 0 00-7.426 3.068c-4.092 4.092-4.092 10.758 0 14.85 3.703 3.702 9.483 3.941 13.612.883l5.127 5.129a1 1 0 001.414 0l.709-.71a1 1 0 000-1.413L22.8 20.68c2.113-2.852 2.65-6.491 1.561-9.69L23 12.08 19.97 8a8.6 8.6 0 01.534.482 8.488 8.488 0 01.308 11.698 1 1 0 00-.222.41 1 1 0 00-.41.222 8.488 8.488 0 01-11.698-.308 8.486 8.486 0 010-12.022A8.474 8.474 0 0116 6.127V4.119C15.5 4.047 14.998 4 14.494 4z" color="#000" font-weight="400" font-family="sans-serif" overflow="visible" opacity=".7" fill-rule="evenodd"/><path d="M14.44 4.994a9.5 9.5 0 00-6.665 2.781 9.5 9.5 0 000 13.436 9.5 9.5 0 0013.073.344l5.666 5.666.707-.707-5.666-5.666a9.5 9.5 0 002-9.211L23 12.08v-1.814A9.5 9.5 0 0021.428 8H16V5.113a9.5 9.5 0 00-1.56-.119z" fill="#fff" fill-rule="evenodd"/><path d="M29 6l-5 4V7h-7V5h7V2z" fill="#e95420"/></svg>