<svg xmlns="http://www.w3.org/2000/svg" viewBox="0 0 32 32"><g fill="#88a05d" stroke="#88a05d" stroke-width="2" stroke-linejoin="round"><path d="M11 19l-4-3 4-3zM21 19l4-3-4-3z"/></g><path d="M27.037 25.006c-.015 1.258.03 2.179-.385 2.931a1.88 1.88 0 01-.998.838c-.439.165-.96.225-1.617.225H7.999c-.657 0-1.178-.06-1.617-.225a1.875 1.875 0 01-.996-.837c-.415-.753-.372-1.674-.387-2.932V6.994c.015-1.258-.03-2.179.385-2.931a1.88 1.88 0 01.998-.838C6.821 3.06 7.342 3 8 3h16.038c.657 0 1.178.06 1.617.225.438.164.788.461.996.838.415.752.371 1.673.387 2.931v18.008z" style="line-height:125%;-inkscape-font-specification:Ubuntu;text-align:center" font-weight="400" font-size="15" font-family="Ubuntu" letter-spacing="0" word-spacing="0" text-anchor="middle" opacity=".7"/><path d="M26.011 21.014c-.01 1.556.012 4.11-.038 5.66-.043.46-.207 1.016-.71 1.155-.636.219-1.334.108-1.982.146-2.297.008-13.633.023-15.923-.022-.462-.039-1.012-.202-1.163-.698-.225-.633-.123-1.285-.155-1.936-.006-1.425-.01-12.85-.01-14.277-.001-1.704.004-3.408.018-5.107.012-.512-.02-1.184.405-1.585.54-.42 1.268-.287 1.904-.322C10.8 4.016 22.304 4 24.75 4.049c.402.05.863.17 1.044.576.295.668.168 1.426.206 2.125.012 1.755.012 12.51.011 14.264z" fill="#fff"/><path d="M13 8l3-4 3 4zM13 24l3 4 3-4zM10 13l-4 3 4 3zM22 13l4 3-4 3z" fill="#88a05d"/></svg>