<svg xmlns="http://www.w3.org/2000/svg" viewBox="0 0 32 32"><path d="M1 13v5h10v-5z" opacity=".7" stroke="#000" stroke-width="2" stroke-linejoin="round"/><path d="M1 13v5h10v-5z" fill="#fff"/><path d="M6 1H1v9h5z" opacity=".7" stroke="#000" stroke-width="2" stroke-linejoin="round"/><path d="M6 1H1v9h5z" fill="#d85eca"/><path d="M18 10V5H9v5z" opacity=".7" stroke="#000" stroke-width="2" stroke-linejoin="round"/><path d="M18 10V5H9v5z" fill="#80a3fa"/><path d="M10.433 10.433a11 11 0 000 15.557 11 11 0 0015.185.335l4.968 4.968.707-.707-4.962-4.962a11 11 0 00-.341-15.19 11 11 0 00-15.557 0z" opacity=".7" stroke="#000" stroke-width="2" stroke-linejoin="bevel"/><path d="M18.205 7.21a11 11 0 00-7.771 3.224 11 11 0 000 15.556 11 11 0 0015.183.334l4.969 4.969.707-.707-4.963-4.963a11 11 0 00-.34-15.19 11 11 0 00-7.785-3.222z" fill="#fff"/><path d="M17 13v4h-4v2h4v4h2v-4h4v-2h-4v-4z" fill="#46a926"/></svg>