<svg height="150" viewBox="0 0 39.688 39.688" width="150" xml:space="preserve" xmlns:xlink="http://www.w3.org/1999/xlink" xmlns="http://www.w3.org/2000/svg"><defs><linearGradient id="d"><stop style="stop-color:#f0b100;stop-opacity:1" offset="0"/><stop style="stop-color:#ffd66f;stop-opacity:1" offset="1"/></linearGradient><linearGradient id="c"><stop style="stop-color:#191b1c;stop-opacity:1" offset="0"/><stop style="stop-color:#26262c;stop-opacity:1" offset="1"/></linearGradient><linearGradient id="b"><stop style="stop-color:#a6a6a6;stop-opacity:1" offset="0"/><stop style="stop-color:#bfbfbf;stop-opacity:1" offset="1"/></linearGradient><linearGradient id="a"><stop style="stop-color:#919191;stop-opacity:1" offset="0"/><stop style="stop-color:#a1a1a1;stop-opacity:1" offset="1"/></linearGradient><linearGradient xlink:href="#a" id="h" x1="17.198" y1="25.797" x2="21.167" y2="27.649" gradientUnits="userSpaceOnUse" gradientTransform="translate(.53 -.264)"/><linearGradient xlink:href="#b" id="g" x1="17.992" y1="27.649" x2="20.638" y2="30.824" gradientUnits="userSpaceOnUse" gradientTransform="translate(.53 -.264)"/><linearGradient xlink:href="#c" id="e" x1="17.992" y1="30.824" x2="20.638" y2="32.015" gradientUnits="userSpaceOnUse" gradientTransform="translate(.53 -.264)"/><linearGradient xlink:href="#d" id="i" x1="14.552" y1="6.085" x2="25.135" y2="24.077" gradientUnits="userSpaceOnUse" gradientTransform="translate(0 1.63)"/><linearGradient xlink:href="#c" id="f" gradientUnits="userSpaceOnUse" gradientTransform="translate(.53 -.264)" x1="17.992" y1="30.824" x2="20.638" y2="32.015"/></defs><path style="color:#000;opacity:.1;fill:url(#e);fill-opacity:1;stroke:#000;stroke-width:.529167" d="M19.844 7.673c-3.797 0-6.879 3.022-6.879 6.748a.132.132 0 0 0 0 .002c.03 2.28.843 3.444 1.627 4.746.783 1.301 1.547 2.75 1.547 5.703 0 .237.109.444.28.582.139.113.318.181.515.203v1.2c0 .227.09.419.26.525.14.088.318.122.533.132v2.516c0 .199-.009.335.042.463a.31.31 0 0 0 .225.187.867.867 0 0 0 .144.494c.142.202.397.376.862.566l.023.01h1.645l.025-.011c.475-.223.727-.395.865-.588.112-.157.133-.317.137-.476a.322.322 0 0 0 .213-.181c.055-.125.053-.263.053-.464v-2.517c.216-.01.394-.05.533-.141a.601.601 0 0 0 .26-.516V25.66c.17-.012.336-.049.478-.128.18-.1.317-.285.317-.527 0-2.947.777-4.43 1.568-5.766.791-1.336 1.605-2.538 1.605-4.818 0-3.726-3.082-6.748-6.878-6.748z"/><path style="color:#000;fill:url(#f);fill-opacity:1;stroke-width:.264583px" d="M18.124 30.56h-.132c0 .201.005.412.146.614.142.201.397.375.862.566l.023.01h1.645l.025-.012c.475-.223.727-.394.865-.588.14-.193.137-.392.137-.59h-.131z"/><path style="fill:url(#g);fill-opacity:1;stroke:#666;stroke-width:.264583px;stroke-linecap:butt;stroke-linejoin:miter" d="M21.828 27.385v2.646c0 .397-.022.518-.264.53h-3.44c-.265 0-.265-.133-.265-.53v-2.646"/><path style="fill:url(#h);fill-opacity:1;stroke:#666;stroke-width:.264583px;stroke-linecap:butt;stroke-linejoin:miter" d="M17.066 25.533v1.323c0 .397.264.53.793.53h3.97c.528 0 .79-.158.793-.53v-1.323"/><path style="opacity:1;fill:url(#i);fill-opacity:1;fill-rule:evenodd;stroke:gray;stroke-width:.264583;stroke-linecap:square;stroke-linejoin:round" d="M19.844 7.806c-3.726 0-6.747 2.961-6.747 6.615.058 4.498 3.175 4.498 3.175 10.45 0 .398.349.662.794.662h5.556c.397 0 .794-.132.794-.529 0-5.94 3.175-6.085 3.175-10.583 0-3.654-3.021-6.615-6.747-6.615z"/><path style="opacity:.15;fill:#000;fill-opacity:1;fill-rule:evenodd;stroke:none;stroke-width:.264583;stroke-linecap:round;stroke-linejoin:round;stroke-opacity:1" d="M19.844 9.95a.53.397 0 0 0-.33.086 3.017 3.017 0 0 0-.887.25l.026.06h-.034v.524l-.098-.012-1.189 9.393.097.012c-.072.332-.104.564-.093.724a.4.4 0 0 0 .053.191.23.23 0 0 0 .132.098c.11.032.256.008.448-.035.191-.044.428-.109.715-.17l-.014-.064a11.27 11.27 0 0 0-.247.055l.13-.788-.032-.006.131.012.795-9.13-.099-.008.09-.54a.53.397 0 0 0 .141.088v9.843h.53V10.69a.53.397 0 0 0 .14-.09l.09.542-.099.009.795 9.129.132-.012-.032.006.13.788c-.078-.018-.16-.037-.247-.055l-.014.064c.286.061.523.126.715.17.191.043.337.067.447.035a.23.23 0 0 0 .133-.098.4.4 0 0 0 .053-.191c.01-.16-.021-.392-.093-.724l.096-.012-1.189-9.393-.098.012v-.524h-.034l.027-.06a3.047 3.047 0 0 0-.887-.25.53.397 0 0 0-.33-.087zm-.488.242a.53.397 0 0 0-.041.154.53.397 0 0 0 .066.193l-.1.596.014.002-.111-.01-.795 9.13.099.008-.133.792.056.009c-.176.041-.33.081-.458.11-.19.044-.328.06-.414.036a.157.157 0 0 1-.096-.069.35.35 0 0 1-.04-.162c-.01-.147.019-.376.091-.707l-.034-.007.134.017 1.19-9.393-.123-.015h.025v-.472c.222-.1.446-.17.67-.212zm.976 0c.224.043.448.113.67.212v.471h.024l-.123.016 1.19 9.393.134-.017-.034.007c.073.331.102.56.092.707a.35.35 0 0 1-.04.162.157.157 0 0 1-.096.069c-.086.025-.225.007-.414-.036-.13-.03-.283-.069-.458-.11l.055-.009-.132-.792.099-.009-.795-9.128-.111.01.014-.003-.1-.596a.53.397 0 0 0 .066-.193.53.397 0 0 0-.041-.153z"/><path style="opacity:1;fill:#999;fill-opacity:1;fill-rule:evenodd;stroke:none;stroke-width:.264583;stroke-linecap:round;stroke-linejoin:round;stroke-opacity:1" d="M19.579 10.32h.529v10.054h-.529z"/><path style="fill:none;stroke:#fff;stroke-width:.264583px;stroke-linecap:butt;stroke-linejoin:miter;stroke-opacity:1" d="m19.315 10.981-.794 9.128M18.653 10.716l-1.19 9.393M20.373 10.981l.794 9.128M21.034 10.716l1.191 9.393"/><path style="color:#000;fill:#fff;fill-opacity:.5;fill-rule:evenodd;stroke-width:.264583;stroke-linecap:round;stroke-linejoin:round" d="M19.182 20.506a.528.528 0 0 0-.529.53V25.4h2.381v-4.366a.528.528 0 0 0-.529-.529z"/><path style="opacity:.3;fill:none;stroke:#000;stroke-width:.0661458;stroke-linecap:butt;stroke-linejoin:miter;stroke-opacity:1" d="M17.463 20.11c-.29 1.329.064 1.015 1.213.769M18.52 20.11l-.131.793M22.225 20.11c.29 1.329-.064 1.015-1.214.769M21.167 20.11l.132.793M18.653 10.716v-.529M19.315 10.981l.132-.794M20.373 10.981l-.132-.794M21.034 10.716v-.529"/><ellipse style="opacity:1;fill:#999;fill-opacity:1;fill-rule:evenodd;stroke:none;stroke-width:.264583;stroke-linecap:round;stroke-linejoin:round;stroke-opacity:1" cx="19.844" cy="10.187" rx=".529" ry=".397"/><path style="fill:none;stroke:#999;stroke-width:.132292;stroke-linecap:butt;stroke-linejoin:miter" d="M18.653 10.187a2.811 2.811 0 0 1 2.381 0"/><path style="color:#000;fill:#ccc;fill-opacity:1;fill-rule:evenodd;stroke-linecap:round;stroke-linejoin:round" d="M19.181 20.373a.663.663 0 0 0-.66.662v4.366h.264v-4.366c0-.222.174-.396.396-.396h1.325c.222 0 .396.174.396.396v4.366h.264v-4.366a.663.663 0 0 0-.66-.662z"/><path style="opacity:.3;fill:none;stroke:#666;stroke-width:.264583px;stroke-linecap:round;stroke-linejoin:miter" d="m21.828 28.078-3.969.467M21.828 28.607l-3.969.467M21.828 29.136l-3.969.467M21.828 29.665l-3.968.467"/><path style="fill:none;stroke:#666;stroke-width:.264583px;stroke-linecap:round;stroke-linejoin:miter" d="m22.093 27.914-4.498.53M22.093 28.444l-4.498.529M22.093 28.973l-4.498.529M22.093 29.502l-4.498.529"/><rect style="opacity:.06;fill:#000;fill-opacity:1;fill-rule:evenodd;stroke:none;stroke-width:.529167;stroke-linecap:round;stroke-linejoin:round;stroke-opacity:1" width="5.821" height=".265" x="16.933" y="25.665" ry=".117"/><rect style="opacity:.06;fill:#000;fill-opacity:1;fill-rule:evenodd;stroke:none;stroke-width:.529167;stroke-linecap:round;stroke-linejoin:round;stroke-opacity:1" width="4.233" height=".265" x="17.727" y="27.518" ry=".117"/><g style="display:inline"><path style="color:#000;opacity:.15;fill:#fff;stroke-width:.264583px" d="M19.844 7.674V31.75h.825l.025-.012c.475-.223.726-.394.865-.588.112-.156.132-.316.136-.476a.318.318 0 0 0 .214-.18c.054-.124.052-.262.052-.463v-2.517c.217-.011.394-.052.534-.143a.597.597 0 0 0 .26-.513V25.66c.168-.012.335-.049.478-.128a.6.6 0 0 0 .316-.529c0-2.947.777-4.429 1.568-5.766.791-1.336 1.606-2.538 1.606-4.818 0-3.726-3.082-6.746-6.879-6.746z"/></g><path style="color:#000;opacity:.5;fill:#fff;fill-rule:evenodd;stroke-width:.259444;stroke-linecap:square;stroke-linejoin:round" d="M19.844 7.938c-3.65 0-6.614 3.021-6.614 6.747a.127.132 0 0 0 0 .003l.002.088c.09-3.646 3.019-6.574 6.612-6.574 3.61 0 6.55 2.957 6.612 6.628l.002-.145c0-3.726-2.964-6.747-6.614-6.747z"/></svg>