<svg xmlns="http://www.w3.org/2000/svg" viewBox="0 0 24 24"><path style="fill:#000;stroke:#000;opacity:.7;stroke-width:2;stroke-miterlimit:4;stroke-dasharray:none;stroke-linejoin:round" fill="#232629" d="M12 4a8 5 0 0 0-8 5 8 5 0 0 0 8 5 8 5 0 0 0 8-5 8 5 0 0 0-8-5zM9 14a3 1.5 0 0 0-3 1.5A3 1.5 0 0 0 9 17a3 1.5 0 0 0 3-1.5A3 1.5 0 0 0 9 14zm-2 3a2 1 0 0 0-2 1 2 1 0 0 0 2 1 2 1 0 0 0 2-1 2 1 0 0 0-2-1zm-2 2a1 .5 0 0 0-1 .5 1 .5 0 0 0 1 .5 1 .5 0 0 0 1-.5 1 .5 0 0 0-1-.5z"/><path d="M12 4a8 5 0 0 0-8 5 8 5 0 0 0 8 5 8 5 0 0 0 8-5 8 5 0 0 0-8-5zM9 14a3 1.5 0 0 0-3 1.5A3 1.5 0 0 0 9 17a3 1.5 0 0 0 3-1.5A3 1.5 0 0 0 9 14zm-2 3a2 1 0 0 0-2 1 2 1 0 0 0 2 1 2 1 0 0 0 2-1 2 1 0 0 0-2-1zm-2 2a1 .5 0 0 0-1 .5 1 .5 0 0 0 1 .5 1 .5 0 0 0 1-.5 1 .5 0 0 0-1-.5z" fill="#232629" style="fill:#fff"/></svg>