<svg xmlns="http://www.w3.org/2000/svg" xmlns:xlink="http://www.w3.org/1999/xlink" viewBox="0 0 24 24"><defs><linearGradient xlink:href="#a" id="b" x1="16" y1="3" x2="16" y2="14" gradientUnits="userSpaceOnUse"/><linearGradient id="a"><stop style="stop-color:#151515;stop-opacity:1" offset="0"/><stop style="stop-color:#4d4d4d;stop-opacity:1" offset="1"/></linearGradient></defs><path style="color:#000;font-style:normal;font-variant:normal;font-weight:400;font-stretch:normal;font-size:medium;line-height:normal;font-family:sans-serif;font-variant-ligatures:normal;font-variant-position:normal;font-variant-caps:normal;font-variant-numeric:normal;font-variant-alternates:normal;font-variant-east-asian:normal;font-feature-settings:normal;font-variation-settings:normal;text-indent:0;text-align:start;text-decoration:none;text-decoration-line:none;text-decoration-style:solid;text-decoration-color:#000;letter-spacing:normal;word-spacing:normal;text-transform:none;writing-mode:lr-tb;direction:ltr;text-orientation:mixed;dominant-baseline:auto;baseline-shift:baseline;text-anchor:start;white-space:normal;shape-padding:0;shape-margin:0;inline-size:0;clip-rule:nonzero;display:inline;overflow:visible;visibility:visible;isolation:auto;mix-blend-mode:normal;color-interpolation:sRGB;color-interpolation-filters:linearRGB;solid-color:#000;solid-opacity:1;vector-effect:none;fill:#fff;fill-opacity:.987055;fill-rule:nonzero;stroke:none;stroke-width:2;stroke-linecap:round;stroke-linejoin:round;stroke-miterlimit:4;stroke-dasharray:none;stroke-dashoffset:0;stroke-opacity:1;color-rendering:auto;image-rendering:auto;shape-rendering:auto;text-rendering:auto;enable-background:accumulate;stop-color:#000;stop-opacity:1;opacity:1" d="M14.5 2a1 1 0 0 0-.938.65l-4.105 11a1 1 0 0 0 .938 1.35h.707a5 5 0 0 1 .9-2h-.166l3.36-9h.773a1 1 0 0 0-.91.664l-1.79 5A1 1 0 0 0 14.212 11H13.5a1 1 0 0 0-.93.629l-.517 1.305A5 5 0 0 1 16 11a5 5 0 0 1 3.953 1.941l-.502-1.302a1 1 0 0 0-.933-.639h-.745a1 1 0 0 0 .944-1.334l-1.774-5A1 1 0 0 0 16.055 4h.758l3.437 9H20a5 5 0 0 1 .898 2h.805a1 1 0 0 0 .934-1.357l-4.203-11A1 1 0 0 0 17.5 2h-3zm1.496 5.98L16.357 9h-.726l.365-1.02z"/><path style="fill:url(#b);fill-opacity:1;stroke:none;stroke-width:.647105;stroke-linecap:round;stroke-linejoin:round;stroke-opacity:.490196" d="m14.5 3-4.105 11h1.023A5 5 0 0 1 16 11a5 5 0 0 1 4.582 3h1.121L17.5 3h-3zM16 5l1.773 5h-3.562L16 5z"/><path style="fill:#6d6d6d;fill-opacity:1;stroke:none;stroke-width:1px;stroke-linecap:butt;stroke-linejoin:miter;stroke-opacity:1" d="m7.515 9.992-.707-.707c-1.415-1.414-2.122-.707-2.829 0L2.565 10.7c-.707.707-1.414 1.415 0 2.829l2.828 2.828c.708.707.708.707 0 1.414l.708.707c.707-.707 1.414-1.414 0-2.828l-2.829-2.828c-.707-.707-.707-.707 0-1.415l1.414-1.414c.707-.707.707-.707 1.415 0l.707.707.707-.707"/><path style="fill:#fa9381;fill-opacity:1;stroke:none;stroke-width:1px;stroke-linecap:butt;stroke-linejoin:miter;stroke-opacity:1" d="m6.1 18.477-.707-.707c-.707-.707-.707-.707-2.828 1.415l-.707.707c-1.415 1.414-1.415 1.414-.707 2.12l.707.708c.707.707.707.707 2.121-.707l.707-.707c2.122-2.121 2.122-2.121 1.415-2.829z"/><path style="color:#000;font-style:normal;font-variant:normal;font-weight:400;font-stretch:normal;font-size:medium;line-height:normal;font-family:sans-serif;font-variant-ligatures:normal;font-variant-position:normal;font-variant-caps:normal;font-variant-numeric:normal;font-variant-alternates:normal;font-variant-east-asian:normal;font-feature-settings:normal;font-variation-settings:normal;text-indent:0;text-align:start;text-decoration:none;text-decoration-line:none;text-decoration-style:solid;text-decoration-color:#000;letter-spacing:normal;word-spacing:normal;text-transform:none;writing-mode:lr-tb;direction:ltr;text-orientation:mixed;dominant-baseline:auto;baseline-shift:baseline;text-anchor:start;white-space:normal;shape-padding:0;shape-margin:0;inline-size:0;clip-rule:nonzero;display:inline;overflow:visible;visibility:visible;isolation:auto;mix-blend-mode:normal;color-interpolation:sRGB;color-interpolation-filters:linearRGB;solid-color:#000;solid-opacity:1;vector-effect:none;fill:#000;fill-opacity:1;fill-rule:evenodd;stroke:none;stroke-width:2;stroke-linecap:butt;stroke-linejoin:round;stroke-miterlimit:4;stroke-dasharray:none;stroke-dashoffset:0;stroke-opacity:1;color-rendering:auto;image-rendering:auto;shape-rendering:auto;text-rendering:auto;enable-background:accumulate;stop-color:#000;stop-opacity:1;opacity:.7" d="M8.928 8c-.515 0-1.029.193-1.414.578L5.393 10.7a2.018 2.018 0 0 0 0 2.828l5.658 5.657c.441.44 1.05.622 1.635.558a5 5 0 0 1-1.674-3.426l-4.205-4.203 2.12-2.12 3.048 3.044a5 5 0 0 1 1.486-1.342l-3.117-3.117A1.998 1.998 0 0 0 8.928 8z"/><path style="opacity:1;fill:#fff;fill-opacity:1;fill-rule:evenodd;stroke:none;stroke-width:2;stroke-linecap:butt;stroke-linejoin:round;stroke-miterlimit:4;stroke-dasharray:none;stroke-opacity:1" d="M8.93 8.992a.996.996 0 0 0-.707.293L6.1 11.406a.998.998 0 0 0 0 1.414l5.441 5.44A5 5 0 0 1 11 16a5 5 0 0 1 1.645-3.707L9.637 9.285a.996.996 0 0 0-.707-.293z"/><g style="display:inline;stroke-width:.999982;enable-background:new;stroke:#6d6d6d;stroke-opacity:1" transform="matrix(.1 0 0 .1 -14.808 10.154)"><path style="color:#000;display:inline;overflow:visible;visibility:visible;opacity:1;fill:none;fill-opacity:0;fill-rule:nonzero;stroke:#6d6d6d;stroke-width:15.9997;stroke-linecap:round;stroke-linejoin:miter;stroke-miterlimit:4;stroke-dasharray:none;stroke-dashoffset:0;stroke-opacity:1;marker:none;enable-background:accumulate" d="m358.07 108.462-20-20"/><circle style="color:#000;display:inline;overflow:visible;visibility:visible;opacity:1;fill:#fff;fill-opacity:.97;fill-rule:nonzero;stroke:#6d6d6d;stroke-width:9.99982;stroke-linecap:butt;stroke-linejoin:miter;stroke-miterlimit:4;stroke-dasharray:none;stroke-dashoffset:0;stroke-opacity:1;marker:none;enable-background:accumulate" cx="308.071" cy="58.462" r="35"/></g></svg>