<svg xmlns="http://www.w3.org/2000/svg" xmlns:xlink="http://www.w3.org/1999/xlink" viewBox="0 0 24 24"><defs><linearGradient xlink:href="#a" id="c" x1="15" y1="4" x2="15" y2="20" gradientUnits="userSpaceOnUse"/><linearGradient id="a"><stop style="stop-color:#151515;stop-opacity:1" offset="0"/><stop style="stop-color:#4d4d4d;stop-opacity:1" offset="1"/></linearGradient><linearGradient xlink:href="#a" id="b" x1="15" y1="3" x2="15" y2="21" gradientUnits="userSpaceOnUse"/></defs><path d="M4.929 13.414a4 4 0 1 0 5.657 5.657l3.535-3.535a4 4 0 0 0-1.79-6.695l-.874.873a2.976 2.976 0 0 1 1.957.872 3 3 0 0 1 0 4.242L9.88 18.364a3 3 0 0 1-4.243-4.243L7.757 12v-1.414Zm4.95-4.95a4 4 0 0 0 0 5.657 3.96 3.96 0 0 0 1.795 1.033l.867-.867a3 3 0 0 1-1.956-5.115l3.536-3.536a3 3 0 1 1 4.243 4.243L16.243 12v1.414l2.828-2.828a4 4 0 0 0-5.657-5.657z" style="opacity:1;fill:#fff;fill-opacity:1;fill-rule:nonzero;stroke:#fff;stroke-width:2;stroke-linecap:round;stroke-linejoin:round;stroke-miterlimit:4;stroke-dasharray:none;stroke-opacity:1"/><path style="fill:url(#b);fill-opacity:1;fill-rule:nonzero;stroke:none;stroke-width:2;stroke-linecap:round;stroke-linejoin:round;stroke-miterlimit:4;stroke-dasharray:none;stroke-opacity:1" d="m16.243 13.414 2.828-2.828a4 4 0 0 0-5.657-5.657L9.88 8.464a4 4 0 0 0 1.795 6.69l.868-.867a3 3 0 0 1-1.956-5.115l3.535-3.536a3 3 0 1 1 4.243 4.243L16.243 12Z"/><path d="M11.457 9.715a2.977 2.977 0 0 1 1.957.87 3 3 0 0 1 0 4.243L9.88 18.364a3 3 0 0 1-4.243-4.243L7.757 12v-1.414L4.93 13.414a4 4 0 1 0 5.657 5.657l3.535-3.535a4 4 0 0 0-1.791-6.694Z" style="fill:url(#c);fill-opacity:1;fill-rule:nonzero;stroke:none;stroke-width:2;stroke-linecap:round;stroke-linejoin:round;stroke-miterlimit:4;stroke-dasharray:none;stroke-opacity:1"/><circle style="opacity:1;vector-effect:none;fill:#c7162b;fill-opacity:1;stroke:none;stroke-width:3.49999976;stroke-linecap:butt;stroke-linejoin:round;stroke-miterlimit:4;stroke-dasharray:none;stroke-dashoffset:0;stroke-opacity:1" cy="19.5" cx="19.5" r="3.5"/><path overflow="visible" font-weight="400" style="color:#000;font-weight:400;line-height:normal;font-family:sans-serif;text-indent:0;text-align:start;text-decoration:none;text-decoration-line:none;text-decoration-style:solid;text-decoration-color:#000;text-transform:none;white-space:normal;overflow:visible;isolation:auto;mix-blend-mode:normal;fill:#fff;fill-opacity:1;marker:none" d="M20.914 17.379 19.5 18.793l-1.414-1.414-.707.707 1.414 1.414-1.414 1.414.707.707 1.414-1.414 1.414 1.414.707-.707-1.414-1.414 1.414-1.414Z"/></svg>