<svg xmlns="http://www.w3.org/2000/svg" viewBox="0 0 24 24"><g style="opacity:.7;fill:#000;stroke:#000;stroke-width:2;stroke-linejoin:round"><path style="color:#000;font-style:normal;font-variant:normal;font-weight:400;font-stretch:normal;font-size:medium;line-height:normal;font-family:sans-serif;font-variant-ligatures:normal;font-variant-position:normal;font-variant-caps:normal;font-variant-numeric:normal;font-variant-alternates:normal;font-variant-east-asian:normal;font-feature-settings:normal;font-variation-settings:normal;text-indent:0;text-align:start;text-decoration:none;text-decoration-line:none;text-decoration-style:solid;text-decoration-color:#000;letter-spacing:normal;word-spacing:normal;text-transform:none;writing-mode:lr-tb;direction:ltr;text-orientation:mixed;dominant-baseline:auto;baseline-shift:baseline;text-anchor:start;white-space:normal;shape-padding:0;shape-margin:0;inline-size:0;clip-rule:nonzero;display:inline;overflow:visible;visibility:visible;isolation:auto;mix-blend-mode:normal;color-interpolation:sRGB;color-interpolation-filters:linearRGB;solid-color:#000;solid-opacity:1;vector-effect:none;fill:#000;fill-opacity:1;fill-rule:nonzero;stroke:#000;stroke-width:2;stroke-linecap:butt;stroke-linejoin:round;stroke-miterlimit:4;stroke-dasharray:none;stroke-dashoffset:0;stroke-opacity:1;color-rendering:auto;image-rendering:auto;shape-rendering:auto;text-rendering:auto;enable-background:accumulate;stop-color:#000;stop-opacity:1" d="m2.5 4.5 17 17M2.854 4.146l-.708.708 17 17 .708-.708-17-17z"/></g><path style="fill:#fff;stroke:#fff;stroke-width:1;stroke-linecap:butt;stroke-linejoin:miter" d="m2.5 4.5 17 17"/><path style="opacity:.7;fill:#000;fill-opacity:1;fill-rule:evenodd;stroke:#000;stroke-width:2;stroke-linecap:round;stroke-linejoin:round;stroke-miterlimit:4;stroke-dasharray:none;stroke-opacity:1" d="m17.494 2.545-4.95 4.95 4.243 4.241c1.414 1.415 2.121.708 3.535-.707l.707-.707c1.415-1.414 2.122-2.12.707-3.535l-4.242-4.242zM11 4c-.554 0-1 .446-1 1v6c0 .554.446 1 1 1s1-.446 1-1V7.742a1 1 0 0 1 .137-1.242l2.5-2.5H11z"/><path style="opacity:1;fill:#fff;fill-opacity:1;fill-rule:evenodd;stroke:none;stroke-width:1;stroke-linecap:round;stroke-linejoin:round;stroke-miterlimit:4;stroke-dasharray:none;stroke-opacity:1" d="m12.544 7.494 4.95-4.95 4.242 4.243c1.415 1.414.707 2.12-.707 3.535l-.707.707c-1.414 1.414-2.121 2.122-3.535.707z"/><circle style="opacity:.7;fill:#000;fill-opacity:1;fill-rule:evenodd;stroke:#000;stroke-width:2;stroke-linecap:round;stroke-linejoin:round;stroke-miterlimit:4;stroke-dasharray:none;stroke-opacity:1" cx="7.071" cy="17.669" r=".5" transform="rotate(-45)"/><circle style="opacity:1;fill:#fff;fill-opacity:1;fill-rule:evenodd;stroke:none;stroke-width:2;stroke-linecap:round;stroke-linejoin:round;stroke-miterlimit:4;stroke-dasharray:none;stroke-opacity:1" cx="7.071" cy="17.669" r=".5" transform="rotate(-45)"/><path style="opacity:1;fill:#aee3f8;fill-opacity:1;fill-rule:evenodd;stroke:none;stroke-width:2;stroke-linecap:round;stroke-linejoin:round;stroke-miterlimit:4;stroke-dasharray:none;stroke-opacity:1" d="M11 4c-.554 0-1 .446-1 1v6c0 .554.446 1 1 1s1-.446 1-1V7.742a1 1 0 0 1 .137-1.242l2.5-2.5h-.414z"/><path style="opacity:1;fill:#6d6d6d;fill-opacity:1;fill-rule:evenodd;stroke:none;stroke-width:1;stroke-linecap:round;stroke-linejoin:round;stroke-miterlimit:4;stroke-dasharray:none;stroke-opacity:1" d="M19.5 0A2.5 2 0 0 0 17 2v4.086c.324-.11.677-.11 1 .004V2a1.5 1 0 0 1 1.5-1A1.5 1 0 0 1 21 2v2.635l1 1.002V2a2.5 2 0 0 0-2.5-2Z"/></svg>