<svg xmlns="http://www.w3.org/2000/svg" viewBox="0 0 16 16"><path style="fill:#b549b5;fill-opacity:1;stroke-width:.86165076" d="M4 2.496h8l-.026 11.014H4Z" transform="rotate(90 8 8)"/><path style="opacity:.7;stroke-width:.86165076" d="M2.429 1.504A.43.43 0 0 0 2 1.937v12.126c0 .24.192.433.429.433H13.57a.43.43 0 0 0 .429-.433V1.937c0-.24-.335-.433-.571-.433H3.983zM3 2.496h.983l.017 1h-.983Zm2 0h6v11H5Zm7 0h1l.017 1h-1zm-9 2h.983v1H3Zm9 0h1v1h-1zm-9 2h.983v1H3Zm9 0h1v1h-1zm-9 2h.983v1H3Zm9 0h1v1h-1Zm-9 2h.983v1H3Zm9 0h1v1h-1zm-9 2h.983v1H3Zm9 0h1v1h-1z" transform="rotate(90 8 8)"/><path display="block" d="M5.5 7.996h5" style="display:block;fill:none;stroke:#000;stroke-width:1;stroke-linecap:square;stroke-linejoin:round;stroke-opacity:.58823494" transform="rotate(90 8 8)"/><path style="opacity:1;fill:#fff;fill-opacity:1;fill-rule:evenodd;stroke:none;stroke-width:2;stroke-linecap:butt;stroke-linejoin:round;stroke-miterlimit:4;stroke-dasharray:none;stroke-opacity:1" d="M3 2.496h1v1H3zM3 4.496h1v1H3zM3 6.496h1v1H3zM3 8.496h1v1H3zM3 10.496h1v1H3zM3 12.496h1v1H3zM12 2.496h1v1h-1zM12 4.496h1v1h-1zM12 6.496h1v1h-1zM12 8.496h1v1h-1zM12 10.496h1v1h-1zM12 12.496h1v1h-1z" transform="rotate(90 8 8)"/><g style="display:inline;stroke-width:27.20000267;enable-background:new"><path style="fill:#fec589;fill-opacity:1;stroke:none;stroke-width:27.20000267" d="m688 319.356-32 81.137-32-81.137v-11.064h64z" transform="matrix(.03808 .02199 -.02385 .0413 -7.15 -14.963)"/><path style="color:#000;display:inline;overflow:visible;visibility:visible;fill:#5d5d5d;fill-opacity:1;fill-rule:nonzero;stroke:none;stroke-width:27.20000267;marker:none;enable-background:accumulate" d="M645.813 374.677 656 400.493l10.188-25.816c.01.175-20.375 0-20.375 0z" transform="matrix(.03808 .02199 -.02385 .0413 -7.15 -14.963)"/><path style="fill:#2f5fdd;fill-opacity:1;stroke:none;stroke-width:27.20000267" d="M624 319.356s65.02 1.586 64 0V127.9h-64z" transform="matrix(.03808 .02199 -.02385 .0413 -7.15 -14.963)"/></g></svg>