<svg xmlns="http://www.w3.org/2000/svg" viewBox="0 0 16 16"><path d="M7.011 3.656c-2.758.881-5.378 5.366-5.5 10.844h1c.11-4.84 2.302-8.826 4.5-9.781zm2 0V4.72c2.199.955 4.39 4.941 4.5 9.781h1c-.122-5.478-2.741-9.963-5.5-10.844Z" style="fill:#1463a5;fill-opacity:1;stroke:#1463a5;stroke-opacity:1"/><path d="M15 2c.554 0 1 .446 1 1v2c0 .554-.446 1-1 1h-2c-.554 0-1-.446-1-1h-2V3h2c0-.554.446-1 1-1zM1 2c-.554 0-1 .446-1 1v2c0 .554.446 1 1 1h2c.554 0 1-.446 1-1h2V3H4c0-.554-.446-1-1-1Z" style="opacity:1;fill:gray;fill-opacity:1;fill-rule:nonzero;stroke:none;stroke-width:2;stroke-linecap:round;stroke-linejoin:round;stroke-miterlimit:4;stroke-dasharray:none;stroke-opacity:1"/><path style="opacity:.7;vector-effect:none;fill:#000;fill-opacity:1;stroke:none;stroke-width:1.49999988;stroke-linecap:round;stroke-linejoin:round;stroke-miterlimit:4;stroke-dasharray:none;stroke-dashoffset:0;stroke-opacity:1" transform="matrix(0 1 1 0 0 0)" d="M1 5h6v6H1z"/><path style="opacity:1;fill:#fff;fill-opacity:1;fill-rule:nonzero;stroke:none;stroke-width:2;stroke-linecap:round;stroke-linejoin:round;stroke-miterlimit:4;stroke-dasharray:none;stroke-opacity:1" d="M1 3h2v1.957H1Z"/><path style="opacity:1;vector-effect:none;fill:#aee3f8;fill-opacity:1;stroke:none;stroke-width:2;stroke-linecap:round;stroke-linejoin:round;stroke-miterlimit:4;stroke-dasharray:none;stroke-dashoffset:0;stroke-opacity:1" transform="matrix(0 1 1 0 0 0)" d="M2 6h4v4H2z"/><path d="M15 3.043h-2V5h2z" style="opacity:1;fill:#fff;fill-opacity:1;fill-rule:nonzero;stroke:none;stroke-width:2;stroke-linecap:round;stroke-linejoin:round;stroke-miterlimit:4;stroke-dasharray:none;stroke-opacity:1"/></svg>