<svg xmlns="http://www.w3.org/2000/svg" viewBox="0 0 16 16"><path d="M5 2.002c-2 0-3 0-3 2v5c0 2 1 2 3 2l4 3v-3h2c2 0 3 0 3-2v-5c0-2-1-2-3-2z" style="opacity:.7;fill:#000;fill-opacity:1;fill-rule:nonzero;stroke:#000;stroke-width:2;stroke-linecap:butt;stroke-linejoin:round;stroke-miterlimit:4;stroke-dasharray:none;stroke-dashoffset:0;stroke-opacity:1"/><path style="opacity:1;fill:#fff;fill-opacity:1;fill-rule:nonzero;stroke:none;stroke-width:.00106905;stroke-linecap:butt;stroke-linejoin:round;stroke-miterlimit:4;stroke-dasharray:none;stroke-dashoffset:0;stroke-opacity:1" d="M5 2.002c-2 0-3 0-3 2v5c0 2 1 2 3 2l4 3v-3h2c2 0 3 0 3-2v-5c0-2-1-2-3-2z"/><path d="M8 4.5a2 2 0 0 0-2 2 2 2 0 0 0 2 2 2 2 0 0 0 2-2 2 2 0 0 0-2-2z" fill="#c7162b"/></svg>