<svg xmlns="http://www.w3.org/2000/svg" viewBox="0 0 16 16"><path style="opacity:.7;fill:#000;stroke:#000;stroke-width:2;stroke-linejoin:round;stroke-miterlimit:4;stroke-dasharray:none" d="M3 12V4c0-2 1-2 3-2h4l3 3v7c0 2-1 2-3 2H6c-2 0-3 0-3-2Z"/><path d="M3 12V4c0-2 1-2 3-2h4l3 3v7c0 2-1 2-3 2H6c-2 0-3 0-3-2Z" style="fill:#fff"/><path d="M10 5V2l3 3z" style="fill:#6d6d6d;fill-opacity:1"/><path style="display:inline;fill:#579120;fill-opacity:1;stroke-width:.0509752;enable-background:new" d="M8 11.514 5.486 9 8 6.486l.838.838L7.162 9 8 9.838l2.514-2.514-2.19-2.19a.458.458 0 0 0-.648 0L4.134 8.676a.458.458 0 0 0 0 .648l3.542 3.542a.458.458 0 0 0 .648 0l3.542-3.542a.458.458 0 0 0 0-.648l-.514-.514z"/></svg>