<svg xmlns="http://www.w3.org/2000/svg" viewBox="0 0 16 16">/&gt;<path style="fill:#000;stroke:#000;opacity:.7;stroke-width:2;stroke-miterlimit:4;stroke-dasharray:none;stroke-linejoin:round" d="M12.125 9c-.196.001-.731.046-1.563.563-.26.161-.453.344-.75.562a24.2 24.2 0 0 1-.937.625c-.62.383-.84.48-1.375.75-.517.261-1.06.499-1.438.688C4.47 12.982 2 13 2 13v1s2.496.032 4.313-.875c.24-.12.668-.318 1.062-.5 0 0 1.853.763 3.25 1.156 1.144.412 2.033.149 2.469-.156.627-.477.928-1.336.906-2.156a2.601 2.601 0 0 0-.156-.844c-.106-.319-.266-.676-.5-.938-.362-.423-.543-.609-1.219-.687Z"/><path d="M12.125 9c-.196.001-.731.046-1.563.563-.26.161-.453.344-.75.562a24.2 24.2 0 0 1-.937.625c-.62.383-.84.48-1.375.75-.517.261-1.06.499-1.438.688C4.47 12.982 2 13 2 13v1s2.496.032 4.313-.875c.24-.12.668-.318 1.062-.5 0 0 1.853.763 3.25 1.156 1.144.412 2.033.149 2.469-.156.627-.477.928-1.336.906-2.156a2.601 2.601 0 0 0-.156-.844c-.106-.319-.266-.676-.5-.938-.362-.423-.543-.609-1.219-.687Z" style="fill:#fff"/><g style="display:inline;stroke-width:27.20000267;enable-background:new"><path style="fill:#fec589;fill-opacity:1;stroke:none;stroke-width:27.20000267" d="m688 319.356-32 81.137-32-81.137v-11.064h64z" transform="matrix(.0311 .0311 -.03372 .03372 -5.891 -22.902)"/><path style="color:#000;display:inline;overflow:visible;visibility:visible;fill:#5d5d5d;fill-opacity:1;fill-rule:nonzero;stroke:none;stroke-width:27.20000267;marker:none;enable-background:accumulate" d="M645.813 374.677 656 400.493l10.188-25.816c.01.175-20.375 0-20.375 0z" transform="matrix(.0311 .0311 -.03372 .03372 -5.891 -22.902)"/><path style="fill:#2f5fdd;fill-opacity:1;stroke:none;stroke-width:27.20000267" d="M624 319.356s65.02 1.586 64 0V127.9h-64z" transform="matrix(.0311 .0311 -.03372 .03372 -5.891 -22.902)"/></g></svg>