<svg xmlns="http://www.w3.org/2000/svg" viewBox="0 0 16 16">/&amp;gt;<path d="M3.994 1c-1.258.014-2.179-.03-2.932.385a1.88 1.88 0 0 0-.837.998C.06 2.82 0 3.343 0 4V9.078c0 .657.06 1.178.225 1.617.164.439.461.788.838.996.752.415 1.673.372 2.931.387h5.012c1.258-.015 2.179.03 2.931-.385a1.88 1.88 0 0 0 .838-.998c.165-.439.233-.96.225-1.617V4c0-.658-.06-1.179-.225-1.617a1.875 1.875 0 0 0-.838-.996C11.185.972 10.264 1.015 9.006 1H3.998Z" style="font-style:normal;font-variant:normal;font-weight:400;font-stretch:normal;font-size:15px;line-height:125%;font-family:Ubuntu;-inkscape-font-specification:Ubuntu;text-align:center;letter-spacing:0;word-spacing:0;writing-mode:lr-tb;text-anchor:middle;display:inline;opacity:.7;fill:#000;fill-opacity:1;stroke:none;stroke-width:.999802"/><path d="M5.988 2.027c-1.556.011-2.115-.012-3.665.039-.46.043-1.016.206-1.155.71-.219.635-.108 1.334-.146 1.982C1.014 7.055 1 7.43 1.044 9.72c.039.462.202 1.012.699 1.163.632.226 1.284.123 1.936.155 1.424.007 1.855.01 3.28.011 1.705 0 1.404-.005 3.103-.018.512-.012 1.184.02 1.585-.406.42-.54.287-1.268.323-1.903.011-2.445.027-2.989-.022-5.434-.05-.402-.17-.863-.575-1.045-.669-.294-1.427-.168-2.126-.205-1.755-.012-1.504-.013-3.259-.012Z" style="opacity:1;vector-effect:none;fill:#d85eca;fill-opacity:1;stroke:none;stroke-width:1;stroke-linecap:round;stroke-linejoin:bevel;stroke-miterlimit:4;stroke-dasharray:none;stroke-dashoffset:0;stroke-opacity:1"/><path d="M6.994 3.961c-1.258.015-2.179-.03-2.931.385a1.88 1.88 0 0 0-.838.998C3.06 5.783 3 6.304 3 6.961v5.079c0 .657.06 1.178.225 1.616.164.439.461.789.838.996.752.416 1.673.372 2.931.387h5.012c1.258-.014 2.179.03 2.931-.385a1.88 1.88 0 0 0 .838-.998c.165-.438.233-.96.225-1.617V6.961c0-.657-.06-1.178-.225-1.617a1.875 1.875 0 0 0-.838-.996c-.752-.415-1.673-.371-2.931-.387H6.998Z" style="font-style:normal;font-variant:normal;font-weight:400;font-stretch:normal;font-size:15px;line-height:125%;font-family:Ubuntu;-inkscape-font-specification:Ubuntu;text-align:center;letter-spacing:0;word-spacing:0;writing-mode:lr-tb;text-anchor:middle;display:inline;opacity:.7;fill:#000;fill-opacity:1;stroke:none;stroke-width:.999802"/><path d="M8.988 4.989c-1.556.01-2.115-.012-3.665.038-.46.043-1.016.207-1.155.71-.219.636-.108 1.334-.146 1.982-.008 2.297-.023 2.674.022 4.963.039.462.202 1.013.699 1.164.632.225 1.284.123 1.936.154 1.424.007 1.855.011 3.28.011 1.705 0 1.404-.005 3.103-.018.512-.012 1.184.02 1.585-.405.42-.54.287-1.268.323-1.904.011-2.444.027-2.988-.022-5.434-.05-.402-.17-.863-.575-1.044-.669-.295-1.427-.168-2.126-.206-1.755-.012-1.504-.012-3.259-.011Z" style="opacity:1;vector-effect:none;fill:#d85eca;fill-opacity:1;stroke:none;stroke-width:1;stroke-linecap:round;stroke-linejoin:bevel;stroke-miterlimit:4;stroke-dasharray:none;stroke-dashoffset:0;stroke-opacity:1"/><path d="M8.437 7.69 6 12h6.498l-2.03-3.526-.813 1.175Z" style="color:#000;display:inline;overflow:visible;visibility:visible;fill:#fff;fill-opacity:1;fill-rule:nonzero;stroke:none;stroke-width:4.7856;marker:none;enable-background:accumulate"/><path d="M12 7a1 1 0 1 0 0 2 1 1 0 0 0 0-2z" style="color:#000;display:inline;overflow:visible;visibility:visible;fill:#fff;fill-opacity:1;fill-rule:nonzero;stroke:none;stroke-width:3.99921;marker:none;enable-background:accumulate"/></svg>