<svg xmlns="http://www.w3.org/2000/svg" viewBox="0 0 16 16"><path style="opacity:.7;fill:#000;stroke:#000;stroke-width:2;stroke-linejoin:round;stroke-miterlimit:4;stroke-dasharray:none" d="M6 2C4 2 3 2 3 4v8c0 2 1 2 3 2h4c2 0 3 0 3-2V4c0-2-1-2-3-2H6z"/><path style="fill:#aee3f8;fill-opacity:1" d="M6 2C4 2 3 2 3 4v8c0 2 1 2 3 2h4c2 0 3 0 3-2V4c0-2-1-2-3-2H6z"/><path style="opacity:.7;fill:#000;fill-opacity:1;fill-rule:evenodd;stroke:none;stroke-width:1.87215126;stroke-linecap:butt;stroke-linejoin:round;stroke-miterlimit:4;stroke-dasharray:none;stroke-opacity:1" d="M5 4h6v3H5zM5 9h6v3H5z"/></svg>