<svg viewBox="0 0 16 16" xmlns="http://www.w3.org/2000/svg"><path style="opacity:.7;fill:#000;fill-opacity:1;stroke:none;stroke-width:2;stroke-linecap:round;stroke-linejoin:round;stroke-miterlimit:4;stroke-dasharray:none;stroke-opacity:1" d="M6 1c-1.108 0-2 .892-2 2v2H3c-1.108 0-2 .892-2 2v4c0 1.108.892 2 2 2h1c0 1.108.892 2 2 2h4v-5h5V7c0-1.108-.892-2-2-2h-1V3c0-1.108-.892-2-2-2H6z"/><path style="opacity:1;fill:#fff;fill-opacity:1;stroke:none;stroke-width:2;stroke-linecap:round;stroke-linejoin:round;stroke-miterlimit:4;stroke-dasharray:none;stroke-opacity:1" d="M6 2h4c.554 0 1 .446 1 1v2H5V3c0-.554.446-1 1-1Z"/><path style="opacity:1;fill:#b3b3b3;fill-opacity:1;stroke:none;stroke-width:2;stroke-linecap:round;stroke-linejoin:round;stroke-miterlimit:4;stroke-dasharray:none;stroke-opacity:1" d="M3 6c-.554 0-1 .446-1 1v4c0 .554.446 1 1 1h7v-2h4V7c0-.554-.446-1-1-1H3z"/><path style="opacity:1;vector-effect:none;fill:#666;fill-opacity:1;stroke:none;stroke-width:2.23606777;stroke-linecap:round;stroke-linejoin:round;stroke-miterlimit:4;stroke-dasharray:none;stroke-dashoffset:0;stroke-opacity:1" d="M3 5h10v1H3z"/><path style="opacity:1;fill:#666;fill-opacity:1;stroke:none;stroke-width:2;stroke-linecap:round;stroke-linejoin:round;stroke-miterlimit:4;stroke-dasharray:none;stroke-opacity:1" d="M4 9v3h6v-2h2V9H4z"/><path style="opacity:1;fill:#fff;fill-opacity:1;stroke:none;stroke-width:2;stroke-linecap:round;stroke-linejoin:round;stroke-miterlimit:4;stroke-dasharray:none;stroke-opacity:1" d="M5 10v3c0 .554.446 1 1 1h4v-4H5z"/><path style="color:#000;font-weight:400;line-height:normal;font-family:sans-serif;font-variant-ligatures:normal;font-variant-position:normal;font-variant-caps:normal;font-variant-numeric:normal;font-variant-alternates:normal;font-feature-settings:normal;text-indent:0;text-align:start;text-decoration:none;text-decoration-line:none;text-decoration-style:solid;text-decoration-color:#000;text-transform:none;text-orientation:mixed;white-space:normal;shape-padding:0;overflow:visible;isolation:auto;mix-blend-mode:normal;fill:#a7a7f1;fill-opacity:1;stroke-width:1.41421366;marker:none" d="M6 12v1h4v-1H6z"/><path style="fill:#3a944a;fill-opacity:1;stroke:none;stroke-width:1px;stroke-linecap:butt;stroke-linejoin:miter;stroke-opacity:1" d="m11 16 5-2.5-5-2.5z"/></svg>