<svg xmlns="http://www.w3.org/2000/svg" viewBox="0 0 16 16">/&gt;<path d="M-9.63 8.167c-1.259.014-2.18-.03-2.932.385a1.88 1.88 0 0 0-.838.998c-.165.438-.252.96-.225 1.617v8.039c0 .658.06 1.179.225 1.617.165.439.461.789.838.996.753.415 1.673.372 2.931.387h8.012c1.258-.014 2.18.03 2.932-.385a1.88 1.88 0 0 0 .838-.998c.164-.438.224-.96.224-1.617v-8.039c0-.658-.06-1.179-.224-1.617a1.875 1.875 0 0 0-.838-.996C.56 8.138-.361 8.182-1.62 8.167H-9.627z" style="font-style:normal;font-variant:normal;font-weight:400;font-stretch:normal;font-size:15px;line-height:125%;font-family:Ubuntu;-inkscape-font-specification:Ubuntu;text-align:center;letter-spacing:0;word-spacing:0;writing-mode:lr-tb;text-anchor:middle;display:inline;opacity:.7;fill:#000;fill-opacity:1;stroke:none;stroke-width:.999802" transform="rotate(90 4.78 18.407)"/><path d="M-5.641 9.194c-1.557.01-4.11-.012-5.66.039-.461.042-1.016.206-1.156.71-.219.635-.108 1.334-.145 1.982-.008 2.297-.023 5.635.021 7.924.04.462.203 1.013.699 1.164.632.225 1.284.122 1.936.154 1.424.007 3.85.011 5.276.011 1.705 0 2.409-.005 4.107-.018.512-.012 1.184.02 1.585-.405.421-.54.287-1.268.323-1.904.012-2.444.028-5.95-.022-8.396-.05-.402-.17-.862-.575-1.044-.668-.294-1.426-.168-2.126-.206a469.804 469.804 0 0 0-4.263-.011z" style="opacity:1;vector-effect:none;fill:#fa9381;fill-opacity:1;stroke:none;stroke-width:1;stroke-linecap:round;stroke-linejoin:bevel;stroke-miterlimit:4;stroke-dasharray:none;stroke-dashoffset:0;stroke-opacity:1" transform="rotate(90 4.78 18.407)"/><path style="opacity:1;fill:#fff;fill-opacity:1;stroke:none;stroke-width:2;stroke-linecap:round;stroke-linejoin:round;stroke-miterlimit:4;stroke-dasharray:none;stroke-opacity:1" d="M-9.627 12.186h8v2h-8zM-6.627 14.186h2v5h-2z" transform="rotate(90 4.78 18.407)"/></svg>