<svg xmlns="http://www.w3.org/2000/svg" xmlns:xlink="http://www.w3.org/1999/xlink" height="80" width="80"><defs><linearGradient xlink:href="#a" id="b" gradientUnits="userSpaceOnUse" gradientTransform="matrix(0 -.11328 .11328 0 4.51 68)" x1="459.034" y1="419.233" x2="35.31" y2="207.365"/><linearGradient id="a"><stop style="stop-color:#f2f2f2;stop-opacity:1" offset="0"/><stop style="stop-color:#f9f9f9;stop-opacity:1" offset="1"/></linearGradient></defs><path style="color:#000;display:inline;overflow:visible;visibility:visible;fill:url(#b);fill-opacity:1;fill-rule:nonzero;stroke:none;stroke-width:1;marker:none;enable-background:accumulate" d="M31.731 18c-8.824 0-9.774.906-9.73 9.748v24.504c-.044 8.842.906 9.748 9.73 9.748h16.54c8.823 0 9.73-.906 9.73-9.748V27.748C58 18.906 57.094 18 48.27 18Z"/><path style="font-style:normal;font-variant:normal;font-weight:400;font-stretch:normal;font-size:15px;line-height:125%;font-family:Ubuntu;-inkscape-font-specification:Ubuntu;text-align:center;letter-spacing:0;word-spacing:0;writing-mode:lr-tb;text-anchor:middle;display:inline;opacity:.8;fill:#ec3c50;fill-opacity:1;stroke:none;stroke-width:.31269634;enable-background:new" d="M48.026 28c-.304-.004-.709.044-1.248.125l-8.633 1.37c-2.163.461-2.156.604-2.163 2.432v14.831c-.09-.063-.18-.126-.273-.189v.001c-.687-.46-1.42-.789-2.404-.789-1.232 0-1.967.472-2.413 1.094-.444.622-.592 1.405-.592 2.011 0 .73.25 1.51.79 2.104.541.594 1.373 1.01 2.569 1.01 1.35 0 2.3-.377 2.837-1.114.423-.58.657-1.354.74-2.31v-.003c.013-.116.02-.235.029-.357.012-.19.01-.543.01-.543V36.318c0-1.622 0-1.72 2.164-2.09l6.045-.999c2.168-.283 2.169-.085 2.169 1.132v10.422c-.087-.062-.175-.124-.266-.184-.687-.46-1.42-.788-2.403-.788-1.233 0-1.968.472-2.413 1.093-.445.622-.593 1.406-.593 2.011 0 .73.25 1.51.79 2.104.542.594 1.374 1.01 2.57 1.01 1.35 0 2.3-.377 2.837-1.113.423-.58.656-1.354.74-2.31v-.003c.012-.116.019-.235.028-.358.012-.188.01-.542.01-.542V29.905c0-1.423-.01-1.894-.922-1.904z"/></svg>