<svg xmlns="http://www.w3.org/2000/svg" height="15" width="15"><path d="M1 1v1h1V1zm2 0v1h2V1zm3 0v1h2V1zm3 0v1h2V1zm3 0v1h2V1h-1zM1 3v2h1V3zm12 0v2h1V3zM1 6v2h1V6zm12 0v2h1V6zM1 9v2h1V9zm12 0v2h1V9zM1 12v2h1v-2zm12 0v1h-1v1h2v-2zM3 13v1h2v-1zm3 0v1h2v-1zm3 0v1h2v-1z" style="opacity:.8;fill:gray;fill-opacity:1"/><path style="fill:#7764D8;fill-opacity:1;fill-rule:evenodd;stroke:none;stroke-width:2;stroke-linecap:round;stroke-linejoin:round" d="M1 1v13h13V1H2zm1 1h11v11H2z"/><path style="opacity:.8;fill:gray;fill-opacity:1;fill-rule:evenodd;stroke:none;stroke-width:2;stroke-linecap:round;stroke-linejoin:round" transform="translate(.074 16.02)" d="M6.926-13.02h1v2h-1zM6.926-10.02h1v2h-1zM6.926-7.02h1v2h-1zM6.926-4.02h1v1h-1z"/></svg>