<svg xmlns="http://www.w3.org/2000/svg" height="32" width="32"><path style="opacity:.7;fill:#000;stroke:#000;stroke-width:2.0004;stroke-linecap:butt;stroke-linejoin:miter;stroke-miterlimit:4;stroke-dasharray:none;stroke-opacity:1" d="M2 6.996c0-2 1-2 3.001-2h22c1.998 0 2.999 0 2.999 2v18.008c0 2-1 2-3 2H5.002c-1.998 0-3 0-3-2z"/><path style="fill:#fff;stroke:none;stroke-width:1.0002px;stroke-linecap:butt;stroke-linejoin:miter;stroke-opacity:1" d="M2 6.996c0-2 1-2 3.001-2h22c1.998 0 2.999 0 2.999 2v18.008c0 2-1 2-3 2H5.002c-1.998 0-3 0-3-2z"/><path style="fill:#B39169;fill-opacity:1" d="M5.002 4.996C3 4.996 2 4.996 2 6.996V8h12v2h-3l5 5 5-5h-3V8h12V6.996c0-2-1.002-2-3-2H5.002zM16 17l-5 5h3v2H2v1.004c0 1.938.963 1.994 2.838 1.996h22.326c1.877-.002 2.836-.058 2.836-1.996V24H18v-2h3l-5-5z"/></svg>