<svg xmlns="http://www.w3.org/2000/svg" height="32" width="32"><path style="opacity:.7;fill:#000;stroke:#000;stroke-width:2;stroke-linecap:butt;stroke-linejoin:miter;stroke-miterlimit:4;stroke-dasharray:none;stroke-opacity:1" d="M2 7c0-2 1-2 3-2h22c2 0 3 0 3 2v18c0 2-1 2-3 2H5c-2 0-3 0-3-2z"/><path style="fill:#fff;stroke:none;stroke-width:1px;stroke-linecap:butt;stroke-linejoin:miter;stroke-opacity:1" d="M2 7c0-2 1-2 3-2h22c2 0 3 0 3 2v18c0 2-1 2-3 2H5c-2 0-3 0-3-2z"/><path style="fill:#B39169" d="M5 5C3 5 2 5 2 7v3h7V5H5zm4 5v4h7v-4H9zm7 0h7V5h-7v5zm7 0v4h7v-4h-7zm0 4h-7v4h7v-4zm0 4v4h7v-4h-7zm0 4h-7v5h7v-5zm-7 0v-4H9v4h7zm-7 0H2v3c0 2 1 2 3 2h4v-5zm0-4v-4H2v4h7z"/></svg>