<svg xmlns="http://www.w3.org/2000/svg" viewBox="0 0 24 24"><path d="M20 9v1h-1v2h1v1h-3v-1h1v-2h-1V9zM22 14v1h-1v2h1v1h-5v-1h1v-2h-1v-1zm-2 1h-1v2h1z" fill="#88a05d"/><path d="M5 20c-2 0-3 0-3-2V6c0-2 1-2 3-2h5l1 1 2 2 1 1v10c0 2-1 2-3 2z" opacity=".7" stroke="#000" stroke-width="2" stroke-linejoin="round"/><path d="M5 20c-2 0-3 0-3-2V6c0-2 1-2 3-2h5l1 1 2 2 1 1v10c0 2-1 2-3 2z" fill="#fff"/><path d="M10 8V4l4 4z" fill="#6d6d6d"/><path fill="#232629" fill-rule="evenodd" d="M4 10h8v1H4zM4 12h8v1H4zM4 14h8v1H4zM4 16h8v1H4z"/></svg>