<svg xmlns="http://www.w3.org/2000/svg" viewBox="0 0 16 16"><path d="M13 2a-2 2 0 00-2 2-2 2 0 002 2h1V5h-1a-1 1 0 01-1-1-1 1 0 011-1h1V2zM11 9v4h2a2 2 0 000-4h-1zm1 1h1a1 1 0 110 2h-1z" fill="#e95420"/><path fill="#232629" fill-rule="evenodd" d="M10 7H3V6h7z"/><path fill="#fff" fill-rule="evenodd" d="M10 8H3V7h7zM10 6H5V5h5z"/><path fill="#232629" fill-rule="evenodd" d="M10 5H5V4h5z"/><path fill="#fff" fill-rule="evenodd" d="M10 4H1V3h9z"/><path fill="#232629" fill-rule="evenodd" d="M10 3H1V2h9zM10 14H3v-1h7z"/><path fill="#fff" fill-rule="evenodd" d="M10 15H3v-1h7zM10 13H5v-1h5z"/><path fill="#232629" fill-rule="evenodd" d="M10 12H5v-1h5z"/><path fill="#fff" fill-rule="evenodd" d="M10 11H1v-1h9z"/><path fill="#232629" fill-rule="evenodd" d="M10 10H1V9h9z"/></svg>