<svg xmlns="http://www.w3.org/2000/svg" viewBox="0 0 16 16"><path style="line-height:125%;-inkscape-font-specification:Ubuntu;text-align:center" d="M5.977-.027c-1.259.015-2.18-.029-2.932.386a1.875 1.875 0 00-.838.996c-.165.44-.225.96-.225 1.618V6.527l.942-.39c.591-.245 1.146-.022 1.572.379.136-.127.218-.321.387-.391.365-.151.788-.16 1.19.006l1.114.463c.586.242.825.8.844 1.386.585.02 1.134.258 1.377.844l.463 1.115c.244.589.023 1.145-.377 1.573.402.429.628.99.385 1.576L9.5 14h2.488c1.258-.015 2.18.028 2.932-.387.376-.207.673-.557.838-.996.165-.438.224-.96.224-1.617V2.973c0-.658-.06-1.179-.224-1.618a1.88 1.88 0 00-.838-.998c-.753-.415-1.674-.37-2.932-.384H5.977zm-1.541 11.39c-.063.026-.114.15-.088.211.026.063.149.114.21.088.064-.026.114-.15.088-.21-.026-.064-.149-.114-.21-.089z" font-weight="400" font-size="15" font-family="Ubuntu" letter-spacing="0" word-spacing="0" text-anchor="middle" opacity=".7"/><path d="M12 1c-1.754-.001-4.51 0-6.264.012-.7.037-1.457-.09-2.125.205-.405.181-.527.643-.576 1.045a216.32 216.32 0 00-.031 3.857c.56-.193 1.085.014 1.492.397.136-.127.218-.321.387-.391.365-.151.788-.16 1.19.006l1.114.463c.586.242.825.8.844 1.386.585.02 1.134.258 1.377.844l.463 1.115c.244.589.023 1.145-.377 1.573.375.4.58.914.412 1.457.369 0 .81.004 1.123.004 1.426 0-.149-.005 1.276-.012.652-.032 1.303.07 1.935-.154.496-.151.66-.702.7-1.164.044-2.29.029-5.615.02-7.913-.036-.648.073-1.347-.146-1.982-.139-.504-.693-.666-1.154-.709C12.11.99 13.557 1.011 12 1zM4.436 11.363c-.063.026-.114.15-.088.211.026.063.149.114.21.088.064-.026.114-.15.088-.21-.026-.064-.149-.114-.21-.089z" fill="#fff"/><path d="M9 3v1h1v1H9v1h3V5h-1V4h1V3H9zm0 5v.313c.168.13.315.287.408.511L9.48 9H10v1h-.115c.128.354.086.693-.055 1H14v-1h-1V9h1V8H9zm2 1h1v1h-1V9z" fill="#762572"/><path fill="#232629" d="M8 3H4v1h4zM8 5H4v1h4z"/><g transform="translate(-7.005)"><circle cx="11.5" cy="11.5" r="1.5" fill="#fff" fill-rule="evenodd"/><path d="M9.311 7.792a.244.244 0 00-.135.325l.273.657c-.26.195-.472.424-.662.678l-.674-.279a.248.248 0 00-.329.136l-.462 1.115a.248.248 0 00.137.329l.673.279a3.312 3.312 0 00-.011.948l-.657.272a.244.244 0 00-.135.325l.463 1.117c.054.13.194.189.325.135l.657-.272c.195.26.424.471.678.662l-.279.673a.248.248 0 00.136.329l1.115.462a.248.248 0 00.329-.136l.279-.674c.314.045.626.057.948.012l.272.657c.054.13.195.188.325.134l1.117-.462a.244.244 0 00.135-.326l-.272-.657c.26-.195.471-.424.662-.678l.673.28a.248.248 0 00.329-.137l.462-1.115a.248.248 0 00-.136-.329l-.674-.279c.045-.314.057-.625.012-.947l.657-.273a.244.244 0 00.134-.325l-.462-1.117a.244.244 0 00-.326-.135l-.657.273a3.312 3.312 0 00-.678-.662l.28-.674a.248.248 0 00-.137-.329l-1.115-.462a.248.248 0 00-.329.137l-.279.673a3.312 3.312 0 00-.947-.011l-.273-.657a.244.244 0 00-.325-.135zm1.756 2.66a1.138 1.138 0 11.87 2.103 1.138 1.138 0 01-.87-2.104z" display="block" fill="#d3d3d3" stroke="#4d4d4d" stroke-linejoin="round" stroke-width=".6"/></g></svg>