<svg xmlns="http://www.w3.org/2000/svg" viewBox="0 0 16 16"><rect width="3" height="3" x="-15.058" y="2.022" ry="1.5" rx="1.5" transform="scale(-1 1)" fill="#88a05d" fill-rule="evenodd"/><rect width="3" height="3" x="-15" y="9" ry="1.5" rx="1.5" transform="scale(-1 1)" fill="#88a05d" fill-rule="evenodd"/><path fill="#232629" fill-rule="evenodd" d="M10 7H3V6h7z"/><path fill="#fff" fill-rule="evenodd" d="M10 8H3V7h7zM10 6H5V5h5z"/><path fill="#232629" fill-rule="evenodd" d="M10 5H5V4h5z"/><path fill="#fff" fill-rule="evenodd" d="M10 4H1V3h9z"/><path fill="#232629" fill-rule="evenodd" d="M10 3H1V2h9zM10 14H3v-1h7z"/><path fill="#fff" fill-rule="evenodd" d="M10 15H3v-1h7zM10 13H5v-1h5z"/><path fill="#232629" fill-rule="evenodd" d="M10 12H5v-1h5z"/><path fill="#fff" fill-rule="evenodd" d="M10 11H1v-1h9z"/><path fill="#232629" fill-rule="evenodd" d="M10 10H1V9h9z"/></svg>