<svg xmlns="http://www.w3.org/2000/svg" viewBox="0 0 16 16"><path d="M1 12V4c0-2 1-2 3-2h2l3 3v7c0 2-1 2-3 2H4c-2 0-3 0-3-2z" opacity=".7" stroke="#000" stroke-width="2" stroke-linejoin="round"/><path d="M1 12V4c0-2 1-2 3-2h2l3 3v7c0 2-1 2-3 2H4c-2 0-3 0-3-2z" fill="#fff"/><path d="M6 5V2l3 3z" fill="#6d6d6d"/><path fill="#88a05d" d="M13 7h-1v2h1z"/><path fill="#88a05d" fill-rule="evenodd" d="M15 10h-1v2h1zM13 10h-1v2h1z"/><path fill="#232629" fill-rule="evenodd" d="M8 7H2v1h6zM8 9H2v1h6zM8 11H2v1h6z"/></svg>