<?xml version="1.0" encoding="UTF-8" standalone="no"?>
<svg
   xmlns:dc="http://purl.org/dc/elements/1.1/"
   xmlns:cc="http://creativecommons.org/ns#"
   xmlns:rdf="http://www.w3.org/1999/02/22-rdf-syntax-ns#"
   xmlns:svg="http://www.w3.org/2000/svg"
   xmlns="http://www.w3.org/2000/svg"
   xmlns:sodipodi="http://sodipodi.sourceforge.net/DTD/sodipodi-0.dtd"
   xmlns:inkscape="http://www.inkscape.org/namespaces/inkscape"
   viewBox="0 0 32 32"
   version="1.1"
   id="svg4"
   sodipodi:docname="backgroundcolor.svg"
   inkscape:version="1.0.1 (3bc2e813f5, 2020-09-07)"
   inkscape:export-filename="/home/jupiter007/Libreoffice yaru theme fullcolor/build/cmd/32/backgroundcolor.png"
   inkscape:export-xdpi="95"
   inkscape:export-ydpi="95">
  <metadata
     id="metadata10">
    <rdf:RDF>
      <cc:Work
         rdf:about="">
        <dc:format>image/svg+xml</dc:format>
        <dc:type
           rdf:resource="http://purl.org/dc/dcmitype/StillImage" />
      </cc:Work>
    </rdf:RDF>
  </metadata>
  <defs
     id="defs8" />
  <sodipodi:namedview
     pagecolor="#ffffff"
     bordercolor="#666666"
     borderopacity="1"
     objecttolerance="10"
     gridtolerance="10"
     guidetolerance="10"
     inkscape:pageopacity="0"
     inkscape:pageshadow="2"
     inkscape:window-width="1920"
     inkscape:window-height="1011"
     id="namedview6"
     showgrid="true"
     inkscape:zoom="20.85965"
     inkscape:cx="5.5725297"
     inkscape:cy="15.508502"
     inkscape:window-x="0"
     inkscape:window-y="0"
     inkscape:window-maximized="1"
     inkscape:current-layer="svg4"
     inkscape:document-rotation="0">
    <inkscape:grid
       type="xygrid"
       id="grid817" />
  </sodipodi:namedview>
  <path
     id="path863"
     style="opacity:0.7;fill:#000000;fill-opacity:1;fill-rule:evenodd;stroke:#000000;stroke-width:2;stroke-linecap:round;stroke-linejoin:round;stroke-miterlimit:4;stroke-dasharray:none;stroke-opacity:1"
     d="m 16.914062,4.7226566 -9.1914058,9.1914054 9.1914058,9.19336 c 1.414213,1.414214 2.120943,0.707183 3.535157,-0.707031 l 4.951172,-4.951172 c 1.414214,-1.414214 2.121244,-2.120942 0.707031,-3.535157 z M 6,11 c -0.554,0 -1,0.446 -1,1 v 1 8 c 0,0.554 0.446,1 1,1 0.554,0 1,-0.446 1,-1 V 14.605469 C 6.624239,14.212562 6.631174,13.591444 7.015625,13.207031 L 9.2226562,11 Z" />
  <path
     style="opacity:1;fill:#ffffff;fill-opacity:1;fill-rule:evenodd;stroke:none;stroke-width:1;stroke-linecap:round;stroke-linejoin:round;stroke-miterlimit:4;stroke-dasharray:none;stroke-opacity:1"
     d="m 7.721826,13.914214 9.192388,-9.1923881 9.192388,9.1923881 c 1.414213,1.414214 0.707107,2.12132 -0.707107,3.535534 l -4.949747,4.949747 c -1.414214,1.414214 -2.121321,2.121321 -3.535534,0.707107 z"
     id="rect830"
     inkscape:connector-curvature="0"
     sodipodi:nodetypes="ccccccc" />
  <circle
     style="opacity:0.7;fill:#000000;fill-opacity:1;fill-rule:evenodd;stroke:#000000;stroke-width:2;stroke-linecap:round;stroke-linejoin:round;stroke-miterlimit:4;stroke-dasharray:none;stroke-opacity:1"
     id="path837"
     cx="2.1213205"
     cy="19.798988"
     r="1.5"
     transform="rotate(-45)" />
  <circle
     style="opacity:1;fill:#ffffff;fill-opacity:1;fill-rule:evenodd;stroke:none;stroke-width:2;stroke-linecap:round;stroke-linejoin:round;stroke-miterlimit:4;stroke-dasharray:none;stroke-opacity:1"
     id="path839"
     cx="2.1213205"
     cy="19.798988"
     r="1.5"
     transform="rotate(-45)" />
  <path
     style="opacity:1;fill:#6d6d6d;fill-opacity:1;fill-rule:evenodd;stroke:none;stroke-width:2;stroke-linecap:round;stroke-linejoin:round;stroke-miterlimit:4;stroke-dasharray:none;stroke-opacity:1"
     d="m 18,0 a 3,3 0 0 0 -3,3 v 7.542969 h 1 V 3 h 0.0059 A 2,2.1179962 0 0 1 18,1 2,2.1179962 0 0 1 19.996094,3 h 0.0039 v 3.3945314 l 1,1 V 3 a 3,3 0 0 0 -3,-3 z"
     id="rect841"
     inkscape:connector-curvature="0" />
  <path
     style="opacity:1;fill:#aee3f8;fill-opacity:1;fill-rule:evenodd;stroke:none;stroke-width:2;stroke-linecap:round;stroke-linejoin:round;stroke-miterlimit:4;stroke-dasharray:none;stroke-opacity:1"
     d="m 6,11 c -0.554,0 -1,0.446 -1,1 v 1 8 c 0,0.554 0.446,1 1,1 0.554,0 1,-0.446 1,-1 V 14.605469 C 6.624239,14.212562 6.631179,13.591444 7.01563,13.207031 L 9.222656,11 Z"
     id="rect862"
     inkscape:connector-curvature="0"
     sodipodi:nodetypes="sscssscccs" />
  <path
     d="M -2e-7,26 H 32 v 6 H -2e-7 Z"
     fill="#ed3d3b"
     id="path4"
     style="stroke-width:1;fill:#aee3f8;fill-opacity:1" />
</svg>
