<?xml version="1.0" encoding="UTF-8" standalone="no"?>
<svg
   xmlns:dc="http://purl.org/dc/elements/1.1/"
   xmlns:cc="http://creativecommons.org/ns#"
   xmlns:rdf="http://www.w3.org/1999/02/22-rdf-syntax-ns#"
   xmlns:svg="http://www.w3.org/2000/svg"
   xmlns="http://www.w3.org/2000/svg"
   xmlns:xlink="http://www.w3.org/1999/xlink"
   xmlns:sodipodi="http://sodipodi.sourceforge.net/DTD/sodipodi-0.dtd"
   xmlns:inkscape="http://www.inkscape.org/namespaces/inkscape"
   viewBox="0 0 32 32"
   version="1.1"
   id="svg6"
   sodipodi:docname="basicstepover.svg"
   inkscape:export-filename="/home/jupiter007/Libreoffice yaru theme fullcolor/build/cmd/32/basicstepover.png"
   inkscape:export-xdpi="96"
   inkscape:export-ydpi="96"
   inkscape:version="1.0.1 (3bc2e813f5, 2020-09-07)">
  <metadata
     id="metadata12">
    <rdf:RDF>
      <cc:Work
         rdf:about="">
        <dc:format>image/svg+xml</dc:format>
        <dc:type
           rdf:resource="http://purl.org/dc/dcmitype/StillImage" />
        <dc:title></dc:title>
      </cc:Work>
    </rdf:RDF>
  </metadata>
  <defs
     id="defs10">
    <linearGradient
       inkscape:collect="always"
       xlink:href="#linearGradient842"
       id="linearGradient844"
       x1="17"
       y1="4"
       x2="17"
       y2="28"
       gradientUnits="userSpaceOnUse"
       gradientTransform="translate(0.01526,1.983091)" />
    <linearGradient
       inkscape:collect="always"
       id="linearGradient842">
      <stop
         style="stop-color:#151515;stop-opacity:1"
         offset="0"
         id="stop838" />
      <stop
         style="stop-color:#4d4d4d;stop-opacity:1"
         offset="1"
         id="stop840" />
    </linearGradient>
  </defs>
  <sodipodi:namedview
     pagecolor="#808080"
     bordercolor="#666666"
     borderopacity="1"
     objecttolerance="10"
     gridtolerance="10"
     guidetolerance="10"
     inkscape:pageopacity="0"
     inkscape:pageshadow="2"
     inkscape:window-width="1920"
     inkscape:window-height="1043"
     id="namedview8"
     showgrid="true"
     inkscape:zoom="22.627417"
     inkscape:cx="28.138295"
     inkscape:cy="14.005307"
     inkscape:window-x="1920"
     inkscape:window-y="0"
     inkscape:window-maximized="1"
     inkscape:current-layer="svg6"
     inkscape:document-rotation="0">
    <inkscape:grid
       type="xygrid"
       id="grid842" />
  </sodipodi:namedview>
  <path
     sodipodi:nodetypes="cssccssccssccssccccccccccc"
     style="opacity:1;fill:#000000;stroke:#ffffff;stroke-width:2;stroke-linejoin:round;stroke-miterlimit:4;stroke-dasharray:none"
     inkscape:connector-curvature="0"
     id="path821"
     d="m 8.7383071,5.983089 c -1.7768299,0 -2.7226568,0.706366 -2.7226568,2.509766 v 2.441406 c 0,0.0161 -0.0019,0.03273 -0.0019,0.04883 h 0.0019 v 3.595703 c 0,1.1138 -0.03419,2.404297 -1.0156251,2.404297 H 4.01526 v 2 h 0.9847652 c 0.98148,0 1.0009211,1.290594 1.0156251,2.404297 v 3.595703 h -0.0019 c 2e-5,0.0162 0.0019,0.03273 0.0019,0.04883 v 2.441406 c 0,1.803398 0.9458269,2.509764 2.7226568,2.509764 H 9.01526 v -2 c -1.18455,0 -1,-0.478337 -1,-2.210937 v -5.382813 c 0,-0.8309 -0.204705,-2.067378 -1.2031247,-2.580078 C 7.810555,17.296563 8.01526,16.058231 8.01526,15.227231 v -5.033203 c 2.7e-4,-1.7326 -0.18462,-2.210937 1,-2.210937 v -2 z" />
  <path
     d="m 16.276953,5.999998 c 1.77683,0 2.722656,0.706366 2.722656,2.509766 v 2.441406 c 0,0.0161 0.002,0.03273 0.002,0.04883 h -0.002 v 3.595703 c 0,1.1138 0.03602,2.344572 1.015625,2.404297 H 21 v 2 h -0.984766 c -0.98148,0 -1.081724,1.29246 -1.015625,2.404297 V 25 h 0.002 c -2e-5,0.0162 -0.002,0.03273 -0.002,0.04883 v 2.441406 C 18.999609,29.293634 18.053783,30 16.276953,30 H 16 v -2 c 1.18455,0 1,-0.478337 1,-2.210937 V 20.40625 c 0,-0.8309 0.204705,-2.067378 1.203125,-2.580078 C 17.204705,17.313472 17,16.07514 17,15.24414 V 10.210937 C 16.99973,8.478337 17.18462,8 16,8 V 6 Z"
     id="path823"
     inkscape:connector-curvature="0"
     style="opacity:1;fill:#000000;stroke:#ffffff;stroke-width:2;stroke-linejoin:round;stroke-miterlimit:4;stroke-dasharray:none"
     sodipodi:nodetypes="cssccssccssccssccccccccccc" />
  <path
     id="path2"
     style="fill:url(#linearGradient844);fill-opacity:1"
     d="m 8.7379138,5.98309 c -1.77683,0 -2.7226563,0.706366 -2.7226563,2.509766 v 2.441406 c 0,0.0161 -0.00195,0.03273 -0.00195,0.04883 h 0.00195 v 3.595703 c 0,1.1138 -0.03419,2.404297 -1.015625,2.404297 h -0.984375 v 2 h 0.984375 c 0.98148,0 1.000921,1.290594 1.015625,2.404297 v 3.595701 h -0.00195 c 2e-5,0.0162 0.00195,0.03273 0.00195,0.04883 v 2.441406 c 0,1.803396 0.9458264,2.509759 2.7226563,2.509764 H 9.015258 v -2 c -1.1845505,0 -1.0000005,-0.478337 -1.0000005,-2.210938 V 20.38934 c 0,-0.8309 -0.2047053,-2.067378 -1.203125,-2.580078 0.9984197,-0.5127 1.203125,-1.751031 1.203125,-2.582031 v -5.033204 c 2.7e-4,-1.7326 -0.18462,-2.210937 1.0000005,-2.210937 v -2 z M 16,6 v 2 c 1.184619,0 0.999729,0.478337 1,2.210937 v 5.033204 c 0,0.831 0.204705,2.069331 1.203124,2.582031 C 17.204705,18.338872 17,19.57535 17,20.40625 v 5.382812 C 17,27.521663 17.18455,28 16,28 v 2 h 0.277343 C 18.054173,30 19,29.293632 19,27.490234 v -2.441406 c -1e-6,-0.0161 0.0019,-0.03263 0.002,-0.04883 H 19 V 21.404297 C 19,20.290497 19.034421,19.0235 20.015624,19 H 21 V 17 H 20.015624 C 19.034199,17 19.00178,15.709502 19,14.595703 V 11 h 0.002 C 19.002,10.9839 19,10.96727 19,10.95117 V 8.509766 C 19,6.706366 18.054173,6 16.277343,6 Z"
     sodipodi:nodetypes="sssccssccssccsssccsscscccscccscssccsscccssccssccsssc" />
  <path
     style="fill:#e95420;fill-opacity:1;stroke:none;stroke-width:1px;stroke-linecap:butt;stroke-linejoin:miter;stroke-opacity:1"
     d="m 25.983094,15.998351 4,-5 h -8 z"
     id="path833"
     inkscape:connector-curvature="0"
     sodipodi:nodetypes="cccc" />
  <path
     style="fill:#e95420;fill-opacity:1;stroke:none;stroke-width:1px;stroke-linecap:butt;stroke-linejoin:miter;stroke-opacity:1"
     d="m 27,10.983091 v -7 c 0,-2 -0.999999,-3 -2.999999,-3 H 16 L 15.98474,3 22.999998,2.98309 c 1.999999,0 1.999999,0 1.999999,2 v 6 z"
     id="path835"
     inkscape:connector-curvature="0"
     sodipodi:nodetypes="ccccccccc" />
</svg>
