<?xml version="1.0" encoding="UTF-8" standalone="no"?>
<svg
   viewBox="0 0 32 32"
   version="1.1"
   id="svg4"
   sodipodi:docname="comparedocuments.svg"
   inkscape:version="1.1.2 (76b9e6a115, 2022-02-25)"
   inkscape:export-filename="/home/jupiter007/Libreoffice yaru theme fullcolor/build/cmd/32/comparedocuments.png"
   inkscape:export-xdpi="96"
   inkscape:export-ydpi="96"
   xmlns:inkscape="http://www.inkscape.org/namespaces/inkscape"
   xmlns:sodipodi="http://sodipodi.sourceforge.net/DTD/sodipodi-0.dtd"
   xmlns="http://www.w3.org/2000/svg"
   xmlns:svg="http://www.w3.org/2000/svg"
   xmlns:rdf="http://www.w3.org/1999/02/22-rdf-syntax-ns#"
   xmlns:cc="http://creativecommons.org/ns#"
   xmlns:dc="http://purl.org/dc/elements/1.1/">
  <metadata
     id="metadata10">
    <rdf:RDF>
      <cc:Work
         rdf:about="">
        <dc:format>image/svg+xml</dc:format>
        <dc:type
           rdf:resource="http://purl.org/dc/dcmitype/StillImage" />
      </cc:Work>
    </rdf:RDF>
  </metadata>
  <defs
     id="defs8" />
  <sodipodi:namedview
     pagecolor="#ffffff"
     bordercolor="#666666"
     borderopacity="1"
     objecttolerance="10"
     gridtolerance="10"
     guidetolerance="10"
     inkscape:pageopacity="0"
     inkscape:pageshadow="2"
     inkscape:window-width="1852"
     inkscape:window-height="1016"
     id="namedview6"
     showgrid="true"
     inkscape:zoom="14.992873"
     inkscape:cx="13.406369"
     inkscape:cy="15.774161"
     inkscape:window-x="0"
     inkscape:window-y="0"
     inkscape:window-maximized="1"
     inkscape:current-layer="svg4"
     inkscape:pagecheckerboard="0">
    <inkscape:grid
       type="xygrid"
       id="grid817" />
  </sodipodi:namedview>
  <path
     id="path4237-1"
     style="font-style:normal;font-variant:normal;font-weight:normal;font-stretch:normal;font-size:15px;line-height:125%;font-family:Ubuntu;-inkscape-font-specification:Ubuntu;text-align:center;letter-spacing:0px;word-spacing:0px;writing-mode:lr-tb;text-anchor:middle;display:inline;opacity:0.7;fill:#000000;fill-opacity:1;stroke:none;stroke-width:0.99980211"
     d="M 5.9941406 2 C 4.7359406 2.0145 3.81525 1.969396 3.0625 2.3847656 C 2.68613 2.5924256 2.3892694 2.9441525 2.2246094 3.3828125 C 2.0599394 3.8214825 2 4.3424004 2 5 L 2 6.4882812 L 2 10 L 10 10 L 10 8 A 1.0001 1.0001 0 0 1 11 7 C 11 7 11.28543 7.0113236 11.619141 7.0898438 C 11.952851 7.1683639 12.418507 7.3136071 13.03125 7.5859375 C 14.256737 8.1305982 16.074214 9.1781175 18.625 11.21875 A 1.0001 1.0001 0 0 1 18.625 12.78125 C 16.074214 14.821879 14.256737 15.869402 13.03125 16.414062 C 12.418507 16.686393 11.952851 16.831636 11.619141 16.910156 C 11.28543 16.988676 11 17 11 17 A 1.0001 1.0001 0 0 1 10 16 L 10 14 L 2 14 L 2 21 C 2 21.657609 2.0599004 22.178578 2.2246094 22.617188 C 2.3892894 23.055799 2.68614 23.405713 3.0625 23.613281 C 3.81522 24.028412 4.7360406 23.984931 5.9941406 24 L 5.9960938 24 L 18.121094 24 C 16.950347 23.386254 15.396643 22.398564 13.375 20.78125 A 1.0001 1.0001 0 0 1 13.375 19.21875 C 15.925786 17.178121 17.743263 16.130598 18.96875 15.585938 C 19.581493 15.313606 20.047149 15.168364 20.380859 15.089844 C 20.71457 15.011324 21 15 21 15 A 1.0001 1.0001 0 0 1 22 16 L 22 18 L 24 18 L 24 6.4667969 L 24 5 C 24 4.3424004 23.9401 3.8214225 23.775391 3.3828125 C 23.610711 2.9442125 23.31386 2.5942786 22.9375 2.3867188 C 22.18473 1.9715887 21.263949 2.01508 20.005859 2 L 20.003906 2 L 5.9980469 2 L 5.9941406 2 z M 22 22 L 22 23.917969 C 22.343002 23.864529 22.652047 23.772747 22.9375 23.615234 C 23.31387 23.407574 23.610721 23.055847 23.775391 22.617188 C 23.845685 22.429777 23.879029 22.222301 23.904297 22 L 22 22 z " />
  <path
     id="path1993"
     style="opacity:1;vector-effect:none;fill:#ffffff;fill-opacity:1;stroke:none;stroke-width:1;stroke-linecap:round;stroke-linejoin:bevel;stroke-miterlimit:4;stroke-dasharray:none;stroke-dashoffset:0;stroke-opacity:1"
     d="M 10.982422 3.0273438 C 9.4258408 3.0381398 5.8741698 3.0158794 4.3242188 3.0664062 C 3.8629898 3.1090742 3.3071206 3.2718432 3.1679688 3.7753906 C 2.9489747 4.410737 3.0588664 5.1096755 3.0214844 5.7578125 C 3.0194021 6.3710462 3.0194356 8.4463116 3.0175781 10 L 10 10 L 10 8 A 1.0001 1.0001 0 0 1 11 7 C 11 7 11.28543 7.0113236 11.619141 7.0898438 C 11.952851 7.1683639 12.418507 7.3136071 13.03125 7.5859375 C 14.256737 8.1305982 16.074214 9.1781175 18.625 11.21875 A 1.0001 1.0001 0 0 1 18.625 12.78125 C 16.074214 14.821879 14.256737 15.869402 13.03125 16.414062 C 12.418507 16.686393 11.952851 16.831636 11.619141 16.910156 C 11.28543 16.988676 11 17 11 17 A 1.0001 1.0001 0 0 1 10 16 L 10 14 L 3.0136719 14 C 3.0148395 17.291238 3.0214095 20.533194 3.0429688 21.642578 C 3.0820687 22.104508 3.2459824 22.655641 3.7421875 22.806641 C 4.3746435 23.031723 5.0259044 22.929378 5.6777344 22.960938 C 7.1019693 22.967737 14.529221 22.972366 15.955078 22.972656 C 16.097829 22.972685 16.240071 22.970743 16.382812 22.970703 C 15.518083 22.409541 14.52477 21.701066 13.375 20.78125 A 1.0001 1.0001 0 0 1 13.375 19.21875 C 15.925786 17.178121 17.743263 16.130598 18.96875 15.585938 C 19.581493 15.313606 20.047149 15.168364 20.380859 15.089844 C 20.71457 15.011324 21 15 21 15 A 1.0001 1.0001 0 0 1 22 16 L 22 18 L 22.974609 18 C 22.984205 13.900727 22.99079 6.3393153 22.949219 4.2890625 C 22.899939 3.8870222 22.778194 3.4256637 22.373047 3.2441406 C 21.704878 2.9500432 20.947763 3.0766163 20.248047 3.0390625 C 18.49364 3.0272595 12.736861 3.0262495 10.982422 3.0273438 z M 22 22 L 22 22.884766 C 22.243724 22.83162 22.472707 22.735107 22.648438 22.548828 C 22.778902 22.381592 22.851099 22.195129 22.896484 22 L 22 22 z " />
  <path
     id="path4237-1-3"
     style="font-style:normal;font-variant:normal;font-weight:normal;font-stretch:normal;font-size:15px;line-height:125%;font-family:Ubuntu;-inkscape-font-specification:Ubuntu;text-align:center;letter-spacing:0px;word-spacing:0px;writing-mode:lr-tb;text-anchor:middle;display:inline;opacity:0.7;fill:#000000;fill-opacity:1;stroke:none;stroke-width:0.99980211"
     d="M 13.878906 8 C 15.049653 8.6137456 16.603357 9.6014328 18.625 11.21875 A 1.0001 1.0001 0 0 1 18.625 12.78125 C 16.074214 14.821879 14.256737 15.869402 13.03125 16.414062 C 12.418507 16.686393 11.952851 16.831636 11.619141 16.910156 C 11.28543 16.988676 11 17 11 17 A 1.0001 1.0001 0 0 1 10 16 L 10 14 L 8 14 L 8 27 C 8 27.657609 8.0599004 28.178578 8.2246094 28.617188 C 8.3892894 29.055799 8.68614 29.405713 9.0625 29.613281 C 9.81522 30.028412 10.736041 29.984931 11.994141 30 L 11.996094 30 L 26.001953 30 L 26.005859 30 C 27.264049 29.9855 28.18475 30.0306 28.9375 29.615234 C 29.31387 29.407574 29.610721 29.055847 29.775391 28.617188 C 29.93993 28.178517 29.921028 27.65285 30 27 L 30 22 L 22 22 L 22 24 A 1.0001 1.0001 0 0 1 21 25 C 21 25 20.71457 24.98868 20.380859 24.910156 C 20.047149 24.831636 19.581493 24.686394 18.96875 24.414062 C 17.743263 23.869404 15.925786 22.821879 13.375 20.78125 A 1.0001 1.0001 0 0 1 13.375 19.21875 C 15.925786 17.178121 17.743263 16.130598 18.96875 15.585938 C 19.581493 15.313606 20.047149 15.168364 20.380859 15.089844 C 20.71457 15.011324 21 15 21 15 A 1.0001 1.0001 0 0 1 22 16 L 22 18 L 30 18 L 30 12.466797 L 30 11 C 30 10.3424 29.9401 9.8214235 29.775391 9.3828125 C 29.610711 8.9442125 29.31386 8.5942787 28.9375 8.3867188 C 28.18473 7.9715887 27.263949 8.01508 26.005859 8 L 26.003906 8 L 13.878906 8 z M 10 8.0820312 C 9.6570008 8.1354713 9.3479519 8.2272523 9.0625 8.3847656 C 8.68613 8.5924256 8.3892694 8.9441525 8.2246094 9.3828125 C 8.154095 9.5706583 8.1059351 9.7777164 8.0703125 10 L 10 10 L 10 8.0820312 z " />
  <path
     id="path1993-6"
     style="opacity:1;vector-effect:none;fill:#ffffff;fill-opacity:1;stroke:none;stroke-width:1;stroke-linecap:round;stroke-linejoin:bevel;stroke-miterlimit:4;stroke-dasharray:none;stroke-dashoffset:0;stroke-opacity:1"
     d="M 16.984375 9.0273438 C 16.665217 9.0295581 16.069759 9.0289692 15.617188 9.0292969 C 16.481916 9.5904582 17.47523 10.298932 18.625 11.21875 A 1.0001 1.0001 0 0 1 18.625 12.78125 C 16.074214 14.821879 14.256737 15.869402 13.03125 16.414062 C 12.418507 16.686393 11.952851 16.831636 11.619141 16.910156 C 11.28543 16.988676 11 17 11 17 A 1.0001 1.0001 0 0 1 10 16 L 10 14 L 9.0195312 14 C 9.0121918 17.846946 9.0047562 25.676257 9.0429688 27.642578 C 9.0820687 28.104508 9.2459825 28.655641 9.7421875 28.806641 C 10.374643 29.031723 11.025904 28.929378 11.677734 28.960938 C 13.101969 28.967737 20.529221 28.972366 21.955078 28.972656 C 23.659609 28.973005 25.363698 28.966635 27.0625 28.953125 C 27.574411 28.941115 28.247392 28.973949 28.648438 28.548828 C 29.069534 28.009045 28.935031 27.280298 28.970703 26.644531 C 28.974074 25.950407 28.974095 23.735938 28.976562 22 L 22 22 L 22 24 A 1.0001 1.0001 0 0 1 21 25 C 21 25 20.71457 24.98868 20.380859 24.910156 C 20.047149 24.831636 19.581493 24.686394 18.96875 24.414062 C 17.743263 23.869404 15.925786 22.821879 13.375 20.78125 A 1.0001 1.0001 0 0 1 13.375 19.21875 C 15.925786 17.178121 17.743263 16.130598 18.96875 15.585938 C 19.581493 15.313606 20.047149 15.168364 20.380859 15.089844 C 20.71457 15.011324 21 15 21 15 A 1.0001 1.0001 0 0 1 22 16 L 22 18 L 28.982422 18 C 28.981086 14.691697 28.972841 11.454063 28.949219 10.289062 C 28.899939 9.887022 28.778194 9.4256636 28.373047 9.2441406 C 27.704878 8.9500436 26.947763 9.0766155 26.248047 9.0390625 C 24.49364 9.0272625 18.738814 9.0262537 16.984375 9.0273438 z M 10 9.1171875 C 9.6314171 9.2015401 9.2753849 9.3866843 9.1679688 9.7753906 C 9.1426078 9.8489677 9.1227313 9.9249067 9.1054688 10 L 10 10 L 10 9.1171875 z " />
  <path
     inkscape:connector-curvature="0"
     style="display:inline;opacity:1;fill:#00ffff;fill-opacity:1;stroke:none;stroke-width:1;stroke-linecap:round;stroke-linejoin:round;stroke-miterlimit:4;stroke-dasharray:none;stroke-dashoffset:0;stroke-opacity:0.880597;enable-background:new"
     d="m 1,13 h 10 v 3 c 0,0 2,0 7,-4 C 13,8 11,8 11,8 v 3 H 1 Z"
     id="rect11148-3-5"
     sodipodi:nodetypes="cccccccc"
     inkscape:export-filename="/home/stuart/yaru/icons/Suru/32x32/legacy/document-export.png"
     inkscape:export-xdpi="96"
     inkscape:export-ydpi="96" />
  <path
     inkscape:export-ydpi="96"
     inkscape:export-xdpi="96"
     inkscape:export-filename="/home/stuart/yaru/icons/Suru/32x32/legacy/document-export.png"
     sodipodi:nodetypes="cccccccc"
     id="path1870"
     d="M 31,21 H 21 v 3 c 0,0 -2,0 -7,-4 5,-4 7,-4 7,-4 v 3 h 10 z"
     style="display:inline;opacity:1;fill:#00ffff;fill-opacity:1;stroke:none;stroke-width:1;stroke-linecap:round;stroke-linejoin:round;stroke-miterlimit:4;stroke-dasharray:none;stroke-dashoffset:0;stroke-opacity:0.880597;enable-background:new"
     inkscape:connector-curvature="0" />
</svg>
