<?xml version="1.0" encoding="UTF-8" standalone="no"?>
<svg
   xmlns:dc="http://purl.org/dc/elements/1.1/"
   xmlns:cc="http://creativecommons.org/ns#"
   xmlns:rdf="http://www.w3.org/1999/02/22-rdf-syntax-ns#"
   xmlns:svg="http://www.w3.org/2000/svg"
   xmlns="http://www.w3.org/2000/svg"
   xmlns:sodipodi="http://sodipodi.sourceforge.net/DTD/sodipodi-0.dtd"
   xmlns:inkscape="http://www.inkscape.org/namespaces/inkscape"
   viewBox="0 0 32 32"
   version="1.1"
   id="svg6"
   sodipodi:docname="dataarearefresh.svg"
   inkscape:export-filename="/home/jupiter007/Libreoffice yaru theme fullcolor/build/cmd/32/datadatapilotrun.png"
   inkscape:export-xdpi="95"
   inkscape:export-ydpi="95"
   inkscape:version="1.0.1 (3bc2e813f5, 2020-09-07)">
  <metadata
     id="metadata12">
    <rdf:RDF>
      <cc:Work
         rdf:about="">
        <dc:format>image/svg+xml</dc:format>
        <dc:type
           rdf:resource="http://purl.org/dc/dcmitype/StillImage" />
        <dc:title />
      </cc:Work>
    </rdf:RDF>
  </metadata>
  <defs
     id="defs10" />
  <sodipodi:namedview
     pagecolor="#ffffff"
     bordercolor="#666666"
     borderopacity="1"
     objecttolerance="10"
     gridtolerance="10"
     guidetolerance="10"
     inkscape:pageopacity="0"
     inkscape:pageshadow="2"
     inkscape:window-width="1920"
     inkscape:window-height="1011"
     id="namedview8"
     showgrid="true"
     inkscape:zoom="20.85965"
     inkscape:cx="10.852476"
     inkscape:cy="19.578212"
     inkscape:window-x="0"
     inkscape:window-y="0"
     inkscape:window-maximized="1"
     inkscape:current-layer="svg6"
     inkscape:document-rotation="0">
    <inkscape:grid
       type="xygrid"
       id="grid830" />
  </sodipodi:namedview>
  <rect
     style="opacity:1;fill:#ffffff;fill-opacity:1;fill-rule:evenodd;stroke:none;stroke-width:2;stroke-linecap:butt;stroke-linejoin:round;stroke-miterlimit:4;stroke-dasharray:none;stroke-opacity:1"
     id="rect859"
     width="23"
     height="23"
     x="4"
     y="4" />
  <rect
     y="-27"
     x="4"
     height="23"
     width="5"
     id="rect861"
     style="opacity:1;fill:#a6d74f;fill-opacity:1;fill-rule:evenodd;stroke:none;stroke-width:2;stroke-linecap:butt;stroke-linejoin:round;stroke-miterlimit:4;stroke-dasharray:none;stroke-opacity:1"
     transform="rotate(90)" />
  <path
     id="rect832"
     style="opacity:1;fill:#6d6d6d;fill-opacity:1;fill-rule:evenodd;stroke:none;stroke-width:2;stroke-linecap:butt;stroke-linejoin:round;stroke-miterlimit:4;stroke-dasharray:none;stroke-opacity:1"
     d="M 6 3 C 4 3 3 3 3 5 L 3 10 L 3 21 L 3 26 C 3 28 4 28 6 28 L 10 28 L 21 28 L 25 28 C 27 28 28 28 28 26 L 28 21 L 28 10 L 28 5 C 28 4.75 27.984375 4.5312499 27.953125 4.3398438 C 27.734375 3 26.75 3 25 3 L 21 3 L 10 3 L 6 3 z M 6 4 L 9 4 L 9 9 L 4 9 L 4 5 C 4 4 5 4 6 4 z M 10 4 L 15 4 L 15 9 L 10 9 L 10 4 z M 16 4 L 21 4 L 21 9 L 16 9 L 16 4 z M 22 4 L 25 4 C 26 4 27 4 27 5 L 27 9 L 22 9 L 22 4 z M 4 10 L 9 10 L 9 15 L 4 15 L 4 10 z M 10 10 L 15 10 L 15 15 L 10 15 L 10 10 z M 16 10 L 21 10 L 21 15 L 16 15 L 16 10 z M 22 10 L 27 10 L 27 15 L 22 15 L 22 10 z M 4 16 L 9 16 L 9 21 L 4 21 L 4 16 z M 10 16 L 15 16 L 15 21 L 10 21 L 10 16 z M 16 16 L 21 16 L 21 21 L 16 21 L 16 16 z M 22 16 L 27 16 L 27 21 L 22 21 L 22 16 z M 4 22 L 9 22 L 9 27 L 6 27 C 5 27 4 27 4 26 L 4 22 z M 10 22 L 15 22 L 15 27 L 10 27 L 10 22 z M 16 22 L 21 22 L 21 27 L 16 27 L 16 22 z M 22 22 L 27 22 L 27 26 C 27 27 26 27 25 27 L 22 27 L 22 22 z " />
  <circle
     style="opacity:1;fill:#77216F;fill-opacity:1;stroke:none;stroke-width:2.57143;stroke-linecap:round;stroke-linejoin:round;stroke-miterlimit:4;stroke-dasharray:none;stroke-opacity:1"
     id="path850"
     cx="25.5"
     cy="25.5"
     r="4.5" />
  <path
     id="path845"
     style="fill:#ffffff;fill-opacity:1"
     d="m 27.6875,24.3125 -0.75,0.75 C 26.9785,25.1996 27,25.34921 27,25.5 27,26.331 26.331,27 25.5,27 25.34921,27 25.1996,26.9785 25.0625,26.9375 l -0.75,0.75 C 24.66714,27.88 25.06657,28 25.5,28 26.885,28 28,26.885 28,25.5 28,25.06657 27.88,24.66714 27.6875,24.3125 Z M 25.5,23 c -1.385,0 -2.5,1.115 -2.5,2.5 0,0.43343 0.12,0.83286 0.3125,1.1875 l 0.75,-0.75 C 24.0215,25.8004 24,25.65079 24,25.5 24,24.669 24.669,24 25.5,24 c 0.15079,0 0.3004,0.0215 0.4375,0.0625 l 0.75,-0.75 C 26.33286,23.12 25.93343,23 25.5,23 Z"
     inkscape:connector-curvature="0" />
</svg>
