<?xml version="1.0" encoding="UTF-8" standalone="no"?>
<svg
   viewBox="0 0 32 32"
   version="1.1"
   id="svg6"
   sodipodi:docname="defaultbullet.svg"
   inkscape:version="1.4.2 (ebf0e940d0, 2025-05-08)"
   inkscape:export-filename="/home/jupiter007/Libreoffice yaru theme fullcolor/build/cmd/32/defaultbullet.png"
   inkscape:export-xdpi="96"
   inkscape:export-ydpi="96"
   xmlns:inkscape="http://www.inkscape.org/namespaces/inkscape"
   xmlns:sodipodi="http://sodipodi.sourceforge.net/DTD/sodipodi-0.dtd"
   xmlns="http://www.w3.org/2000/svg"
   xmlns:svg="http://www.w3.org/2000/svg"
   xmlns:rdf="http://www.w3.org/1999/02/22-rdf-syntax-ns#"
   xmlns:cc="http://creativecommons.org/ns#"
   xmlns:dc="http://purl.org/dc/elements/1.1/">
  <metadata
     id="metadata12">
    <rdf:RDF>
      <cc:Work
         rdf:about="">
        <dc:format>image/svg+xml</dc:format>
        <dc:type
           rdf:resource="http://purl.org/dc/dcmitype/StillImage" />
        <dc:title />
      </cc:Work>
    </rdf:RDF>
  </metadata>
  <defs
     id="defs10" />
  <sodipodi:namedview
     pagecolor="#ffffff"
     bordercolor="#666666"
     borderopacity="1"
     objecttolerance="10"
     gridtolerance="10"
     guidetolerance="10"
     inkscape:pageopacity="0"
     inkscape:pageshadow="2"
     inkscape:window-width="1920"
     inkscape:window-height="1011"
     id="namedview8"
     showgrid="true"
     inkscape:zoom="20.85965"
     inkscape:cx="9.46804"
     inkscape:cy="12.248528"
     inkscape:window-x="0"
     inkscape:window-y="0"
     inkscape:window-maximized="1"
     inkscape:current-layer="svg6"
     inkscape:document-rotation="0"
     inkscape:showpageshadow="2"
     inkscape:pagecheckerboard="0"
     inkscape:deskcolor="#d1d1d1">
    <inkscape:grid
       type="xygrid"
       id="grid822"
       originx="0"
       originy="0"
       spacingy="1"
       spacingx="1"
       units="px" />
  </sodipodi:namedview>
  <path
     id="rect861"
     style="fill:#0000ff;fill-rule:evenodd;stroke-width:3;stroke-linecap:round;stroke-linejoin:round"
     d="M 11 -4 L 11 -5 L 27 -5 L 27 -4 L 11 -4 z M 11 -6 L 11 -7 L 23 -7 L 23 -6 L 11 -6 z M 11 -8 L 11 -9 L 25 -9 L 25 -8 L 11 -8 z M 11 -13 L 11 -14 L 27 -14 L 27 -13 L 11 -13 z M 11 -15 L 11 -16 L 23 -16 L 23 -15 L 11 -15 z M 11 -17 L 11 -18 L 25 -18 L 25 -17 L 11 -17 z M 11 -22 L 11 -23 L 27 -23 L 27 -22 L 11 -22 z M 11 -24 L 11 -25 L 23 -25 L 23 -24 L 11 -24 z M 11 -26 L 11 -27 L 25 -27 L 25 -26 L 11 -26 z "
     transform="scale(1,-1)" />
  <path
     id="path898"
     style="fill:#00ff00;fill-rule:evenodd;stroke-width:2;stroke-linecap:round;stroke-linejoin:round"
     d="M 6.5 4 A 1.5 1.5 0 0 0 5 5.5 A 1.5 1.5 0 0 0 6.5 7 A 1.5 1.5 0 0 0 8 5.5 A 1.5 1.5 0 0 0 6.5 4 z M 6.5 13 A 1.5 1.5 0 0 0 5 14.5 A 1.5 1.5 0 0 0 6.5 16 A 1.5 1.5 0 0 0 8 14.5 A 1.5 1.5 0 0 0 6.5 13 z M 6.5 22 A 1.5 1.5 0 0 0 5 23.5 A 1.5 1.5 0 0 0 6.5 25 A 1.5 1.5 0 0 0 8 23.5 A 1.5 1.5 0 0 0 6.5 22 z " />
</svg>
