<?xml version="1.0" encoding="UTF-8" standalone="no"?>
<svg
   xmlns:dc="http://purl.org/dc/elements/1.1/"
   xmlns:cc="http://creativecommons.org/ns#"
   xmlns:rdf="http://www.w3.org/1999/02/22-rdf-syntax-ns#"
   xmlns:svg="http://www.w3.org/2000/svg"
   xmlns="http://www.w3.org/2000/svg"
   xmlns:sodipodi="http://sodipodi.sourceforge.net/DTD/sodipodi-0.dtd"
   xmlns:inkscape="http://www.inkscape.org/namespaces/inkscape"
   viewBox="0 0 32 32"
   version="1.1"
   id="svg4"
   sodipodi:docname="definedbname.svg"
   inkscape:version="1.0.1 (3bc2e813f5, 2020-09-07)"
   inkscape:export-filename="/home/jupiter007/Libreoffice yaru theme fullcolor/build/cmd/32/definedbname.png"
   inkscape:export-xdpi="96"
   inkscape:export-ydpi="96">
  <metadata
     id="metadata10">
    <rdf:RDF>
      <cc:Work
         rdf:about="">
        <dc:format>image/svg+xml</dc:format>
        <dc:type
           rdf:resource="http://purl.org/dc/dcmitype/StillImage" />
      </cc:Work>
    </rdf:RDF>
  </metadata>
  <defs
     id="defs8">
    <linearGradient
       id="c"
       gradientTransform="matrix(0.42267674,0,0.10898479,0.40673145,9.7408406,10.009229)"
       gradientUnits="userSpaceOnUse"
       spreadMethod="reflect"
       x1="0.36500001"
       x2="28.059999"
       y1="19.599001"
       y2="19.599001">
      <stop
         offset="0"
         stop-color="#ffcd7d"
         id="stop8" />
      <stop
         offset=".262"
         stop-color="#fc8f36"
         id="stop10" />
      <stop
         offset="1"
         stop-color="#e23a0e"
         id="stop12" />
    </linearGradient>
    <linearGradient
       id="d"
       gradientTransform="matrix(0.31868645,0,0.08160783,0.30458035,12.217844,10.671507)"
       gradientUnits="userSpaceOnUse"
       spreadMethod="reflect"
       x1="30"
       x2="-11"
       y1="30"
       y2="30">
      <stop
         offset="0"
         stop-color="#ba3d12"
         id="stop15" />
      <stop
         offset="1"
         stop-color="#db6737"
         id="stop17" />
    </linearGradient>
  </defs>
  <sodipodi:namedview
     pagecolor="#ffffff"
     bordercolor="#666666"
     borderopacity="1"
     objecttolerance="10"
     gridtolerance="10"
     guidetolerance="10"
     inkscape:pageopacity="0"
     inkscape:pageshadow="2"
     inkscape:window-width="1920"
     inkscape:window-height="1011"
     id="namedview6"
     showgrid="true"
     inkscape:zoom="20.85965"
     inkscape:cx="17.763986"
     inkscape:cy="16.767954"
     inkscape:window-x="0"
     inkscape:window-y="0"
     inkscape:window-maximized="1"
     inkscape:current-layer="svg4"
     inkscape:document-rotation="0">
    <inkscape:grid
       type="xygrid"
       id="grid827" />
  </sodipodi:namedview>
  <rect
     style="opacity:1;fill:#ffffff;fill-opacity:1;fill-rule:evenodd;stroke:none;stroke-width:2;stroke-linecap:butt;stroke-linejoin:round;stroke-miterlimit:4;stroke-dasharray:none;stroke-opacity:1"
     id="rect859"
     width="23"
     height="23"
     x="4"
     y="4" />
  <rect
     y="-27"
     x="4"
     height="23"
     width="5"
     id="rect861"
     style="opacity:1;fill:#a6d74f;fill-opacity:1;fill-rule:evenodd;stroke:none;stroke-width:2;stroke-linecap:butt;stroke-linejoin:round;stroke-miterlimit:4;stroke-dasharray:none;stroke-opacity:1"
     transform="rotate(90)" />
  <path
     id="rect832"
     style="opacity:1;fill:#6d6d6d;fill-opacity:1;fill-rule:evenodd;stroke:none;stroke-width:2;stroke-linecap:butt;stroke-linejoin:round;stroke-miterlimit:4;stroke-dasharray:none;stroke-opacity:1"
     d="M 6 3 C 4 3 3 3 3 5 L 3 10 L 3 21 L 3 26 C 3 28 4 28 6 28 L 10 28 L 17.003906 28 L 16.767578 27 L 16 27 L 16 23.734375 L 15 19.484375 L 15 21 L 10 21 L 10 16 L 14.179688 16 L 14.052734 15.458984 A 2.0002 2.0002 0 0 1 14 15 L 10 15 L 10 10 L 15 10 L 15 13.269531 A 2.0002 2.0002 0 0 1 16 13 L 16 10 L 21 10 L 21 13.169922 C 21.158819 13.169116 21.315273 13.164353 21.478516 13.169922 C 21.6632 13.176218 21.829573 13.193807 22 13.208984 L 22 10 L 27 10 L 27 13.806641 C 27.316281 13.725225 27.652898 13.613256 27.974609 13.484375 C 27.982865 13.481068 27.991799 13.47792 28 13.474609 L 28 10 L 28 5 C 28 4.75 27.984375 4.5312499 27.953125 4.3398438 C 27.734375 3 26.75 3 25 3 L 21 3 L 10 3 L 6 3 z M 6 4 L 9 4 L 9 9 L 4 9 L 4 5 C 4 4 5 4 6 4 z M 10 4 L 15 4 L 15 9 L 10 9 L 10 4 z M 16 4 L 21 4 L 21 9 L 16 9 L 16 4 z M 22 4 L 25 4 C 26 4 27 4 27 5 L 27 9 L 22 9 L 22 4 z M 4 10 L 9 10 L 9 15 L 4 15 L 4 10 z M 4 16 L 9 16 L 9 21 L 4 21 L 4 16 z M 21.341797 17.167969 C 21.212422 17.163556 21.108458 17.17747 21 17.1875 L 21 19.015625 L 21.685547 21.927734 C 22.261615 21.755484 22.807454 21.557021 23.697266 21.572266 C 24.840865 21.592257 25.695388 21.821337 26.328125 22 L 27 22 L 27 22.169922 C 27.291895 22.242946 27.629463 22.290866 28 22.310547 L 28 21 L 28 17.679688 C 27.691767 17.765308 27.355045 17.8292 27 17.875 L 27 21 L 22 21 L 22 17.240234 C 21.796392 17.209869 21.601619 17.176827 21.341797 17.167969 z M 4 22 L 9 22 L 9 27 L 6 27 C 5 27 4 27 4 26 L 4 22 z M 10 22 L 15 22 L 15 27 L 10 27 L 10 22 z M 26.96875 26.230469 C 26.81639 26.990837 25.912728 27 25 27 L 22.878906 27 L 23.113281 28 L 25 28 C 26.87868 28 27.862601 27.977983 27.976562 26.320312 C 27.613155 26.306286 27.277526 26.275512 26.96875 26.230469 z " />
  <path
     style="color:#000000;font-style:normal;font-variant:normal;font-weight:normal;font-stretch:normal;font-size:medium;line-height:normal;font-family:sans-serif;font-variant-ligatures:normal;font-variant-position:normal;font-variant-caps:normal;font-variant-numeric:normal;font-variant-alternates:normal;font-variant-east-asian:normal;font-feature-settings:normal;font-variation-settings:normal;text-indent:0;text-align:start;text-decoration:none;text-decoration-line:none;text-decoration-style:solid;text-decoration-color:#000000;letter-spacing:normal;word-spacing:normal;text-transform:none;writing-mode:lr-tb;direction:ltr;text-orientation:mixed;dominant-baseline:auto;baseline-shift:baseline;text-anchor:start;white-space:normal;shape-padding:0;shape-margin:0;inline-size:0;clip-rule:nonzero;display:inline;overflow:visible;visibility:visible;isolation:auto;mix-blend-mode:normal;color-interpolation:sRGB;color-interpolation-filters:linearRGB;solid-color:#000000;solid-opacity:1;vector-effect:none;fill:#ffffff;fill-opacity:1;fill-rule:nonzero;stroke:none;stroke-width:4;stroke-linecap:butt;stroke-linejoin:round;stroke-miterlimit:4;stroke-dasharray:none;stroke-dashoffset:0;stroke-opacity:1;color-rendering:auto;image-rendering:auto;shape-rendering:auto;text-rendering:auto;enable-background:accumulate;stop-color:#000000"
     d="m 16,15 h 2 l 4,17 h -2 z"
     id="path860" />
  <path
     style="color:#000000;font-style:normal;font-variant:normal;font-weight:normal;font-stretch:normal;font-size:medium;line-height:normal;font-family:sans-serif;font-variant-ligatures:normal;font-variant-position:normal;font-variant-caps:normal;font-variant-numeric:normal;font-variant-alternates:normal;font-variant-east-asian:normal;font-feature-settings:normal;font-variation-settings:normal;text-indent:0;text-align:start;text-decoration:none;text-decoration-line:none;text-decoration-style:solid;text-decoration-color:#000000;letter-spacing:normal;word-spacing:normal;text-transform:none;writing-mode:lr-tb;direction:ltr;text-orientation:mixed;dominant-baseline:auto;baseline-shift:baseline;text-anchor:start;white-space:normal;shape-padding:0;shape-margin:0;inline-size:0;clip-rule:nonzero;display:inline;overflow:visible;visibility:visible;isolation:auto;mix-blend-mode:normal;color-interpolation:sRGB;color-interpolation-filters:linearRGB;solid-color:#000000;solid-opacity:1;vector-effect:none;fill:#ffffff;fill-opacity:1;fill-rule:evenodd;stroke:none;stroke-width:4;stroke-linecap:butt;stroke-linejoin:round;stroke-miterlimit:4;stroke-dasharray:none;stroke-dashoffset:0;stroke-opacity:1;color-rendering:auto;image-rendering:auto;shape-rendering:auto;text-rendering:auto;enable-background:accumulate;stop-color:#000000"
     d="m 18,16 c -0.119951,-0.400776 1.548772,-0.893984 3.41012,-0.830481 1.86276,0.0635 2.518959,0.677368 4.630793,0.762038 C 27.997516,16.009167 29.902629,14.591464 30,15 l 2,8 c 0.162287,0.539777 -1.594302,1.3422 -3.685673,1.336555 C 26.22225,24.330855 25.640138,23.606974 23.662366,23.5724 21.685301,23.53853 20.150996,24.754277 20,24 Z"
     id="path871" />
  <path
     inkscape:connector-curvature="0"
     style="opacity:1;fill:#6d6d6d;fill-opacity:1;stroke:none;stroke-width:0.999944;stroke-linejoin:round"
     d="m 16,15 h 2 l 4,17 h -2 z"
     id="path79"
     sodipodi:nodetypes="ccccc" />
  <path
     inkscape:connector-curvature="0"
     style="fill:#fa9381;fill-opacity:1;fill-rule:evenodd;stroke:none;stroke-width:0.836125;stroke-linejoin:round"
     d="m 18,16 c -0.119951,-0.400776 1.548772,-0.893984 3.41012,-0.830481 1.86276,0.0635 2.518959,0.677368 4.630793,0.762038 C 27.997516,16.009167 29.902629,14.591464 30,15 l 2,8 c 0.162287,0.539777 -1.594302,1.3422 -3.685673,1.336555 C 26.22225,24.330855 25.640138,23.606974 23.662366,23.5724 21.685301,23.53853 20.150996,24.754277 20,24 Z"
     id="path81"
     sodipodi:nodetypes="ccccccccc" />
</svg>
