<?xml version="1.0" encoding="UTF-8" standalone="no"?>
<svg
   xmlns:dc="http://purl.org/dc/elements/1.1/"
   xmlns:cc="http://creativecommons.org/ns#"
   xmlns:rdf="http://www.w3.org/1999/02/22-rdf-syntax-ns#"
   xmlns:svg="http://www.w3.org/2000/svg"
   xmlns="http://www.w3.org/2000/svg"
   xmlns:xlink="http://www.w3.org/1999/xlink"
   xmlns:sodipodi="http://sodipodi.sourceforge.net/DTD/sodipodi-0.dtd"
   xmlns:inkscape="http://www.inkscape.org/namespaces/inkscape"
   viewBox="0 0 32 32"
   version="1.1"
   id="svg6"
   sodipodi:docname="editstyle.svg"
   inkscape:version="1.0.1 (3bc2e813f5, 2020-09-07)"
   inkscape:export-filename="/home/jupiter007/Libreoffice yaru theme fullcolor/build/cmd/32/editstyle.png"
   inkscape:export-xdpi="95"
   inkscape:export-ydpi="95">
  <metadata
     id="metadata12">
    <rdf:RDF>
      <cc:Work
         rdf:about="">
        <dc:format>image/svg+xml</dc:format>
        <dc:type
           rdf:resource="http://purl.org/dc/dcmitype/StillImage" />
        <dc:title></dc:title>
      </cc:Work>
    </rdf:RDF>
  </metadata>
  <defs
     id="defs10">
    <linearGradient
       y2="316.93201"
       x2="702.21381"
       y1="316.93201"
       x1="609.78619"
       gradientUnits="userSpaceOnUse"
       id="linearGradient4400"
       xlink:href="#linearGradient4336-3"
       inkscape:collect="always" />
    <linearGradient
       id="linearGradient4336-3">
      <stop
         id="stop4338-8"
         offset="0"
         style="stop-color:#5884f4;stop-opacity:1" />
      <stop
         style="stop-color:#5884f4;stop-opacity:1"
         offset="0.30756706"
         id="stop4344-3" />
      <stop
         id="stop4346-3"
         offset="0.30756706"
         style="stop-color:#2f5fdd;stop-opacity:1" />
      <stop
         style="stop-color:#2f5fdd;stop-opacity:1"
         offset="0.69206423"
         id="stop4350-1" />
      <stop
         style="stop-color:#234db8;stop-opacity:1"
         offset="0.69206423"
         id="stop4348-6" />
      <stop
         id="stop4340-0"
         offset="1"
         style="stop-color:#234db8;stop-opacity:1" />
    </linearGradient>
    <linearGradient
       inkscape:collect="always"
       xlink:href="#linearGradient842"
       id="linearGradient844"
       x1="22"
       y1="4"
       x2="22"
       y2="19"
       gradientUnits="userSpaceOnUse"
       gradientTransform="translate(-4.768719e-5)" />
    <linearGradient
       inkscape:collect="always"
       id="linearGradient842">
      <stop
         style="stop-color:#151515;stop-opacity:1"
         offset="0"
         id="stop838" />
      <stop
         style="stop-color:#4d4d4d;stop-opacity:1"
         offset="1"
         id="stop840" />
    </linearGradient>
  </defs>
  <sodipodi:namedview
     pagecolor="#ffffff"
     bordercolor="#666666"
     borderopacity="1"
     objecttolerance="10"
     gridtolerance="10"
     guidetolerance="10"
     inkscape:pageopacity="0"
     inkscape:pageshadow="2"
     inkscape:window-width="1920"
     inkscape:window-height="1016"
     id="namedview8"
     showgrid="true"
     inkscape:zoom="20.85965"
     inkscape:cx="6.5755622"
     inkscape:cy="16.302462"
     inkscape:window-x="0"
     inkscape:window-y="27"
     inkscape:window-maximized="1"
     inkscape:current-layer="svg6"
     inkscape:document-rotation="0">
    <inkscape:grid
       type="xygrid"
       id="grid829" />
  </sodipodi:namedview>
  <path
     sodipodi:nodetypes="ccccccccccccc"
     id="path830"
     d="m 24.749952,16 h -6.5 l -1.25,3 h -3 l 6,-15 h 3 l 6,15 h -3 z m -5.75,-2 h 5 l -2.5,-7 z"
     style="opacity:1;fill:#000000;stroke:#ffffff;stroke-width:2;stroke-linecap:round;stroke-linejoin:round;stroke-miterlimit:4;stroke-dasharray:none"
     inkscape:connector-curvature="0" />
  <path
     inkscape:connector-curvature="0"
     style="opacity:1;fill:url(#linearGradient844);fill-opacity:1;stroke:none;stroke-linecap:round;stroke-linejoin:round"
     d="m 24.749952,16 h -6.5 l -1.25,3 h -3 l 6,-15 h 3 l 6,15 h -3 z m -5.75,-2 h 5 l -2.5,-7 z"
     id="path16"
     sodipodi:nodetypes="ccccccccccccc" />
  <rect
     style="opacity:0.7;fill:#000000;fill-opacity:1;fill-rule:evenodd;stroke:#000000;stroke-width:2;stroke-linecap:butt;stroke-linejoin:round;stroke-miterlimit:4;stroke-dasharray:none;stroke-opacity:1"
     id="rect831"
     width="14"
     height="6"
     x="15.260273"
     y="-0.88461041"
     ry="2"
     rx="2"
     transform="rotate(45)" />
  <path
     style="fill:#6d6d6d;fill-opacity:1;stroke:none;stroke-width:1px;stroke-linecap:butt;stroke-linejoin:miter;stroke-opacity:1"
     d="m 19.901437,21.478836 1.414213,1.414214 c 1.414215,1.414214 0.707107,2.121321 0,2.828428 l -2.828426,2.828427 c -0.707107,0.707107 -1.414213,1.414213 -2.828427,0 l -4.949748,-4.949748 c -0.707106,-0.707106 -0.707106,-0.707106 -1.4142141,0 L 7.8806213,22.185943 8.5877279,21.478836 c 0.707107,-0.707107 1.4142151,-1.414215 2.8284271,0 l 4.949749,4.949748 c 0.707107,0.707107 0.707107,0.707107 1.414213,0 l 1.414213,-1.414215 c 0.707107,-0.707107 0.707107,-0.707107 0,-1.414214 l -0.707107,-0.707105 1.414214,-1.414214"
     id="path823"
     inkscape:connector-curvature="0"
     sodipodi:nodetypes="cccccccccccccccc" />
  <path
     style="fill:#fa9381;fill-opacity:1;stroke:none;stroke-width:1px;stroke-linecap:butt;stroke-linejoin:miter;stroke-opacity:1"
     d="m 7.8806213,22.185943 1.4142136,1.414214 c 0.7071081,0.707107 0.7071081,0.707107 -1.4142136,2.828427 l -3.5355339,3.535533 c -1.4142136,1.414215 -1.4142136,1.414215 -2.8284272,0 -1.4142136,-1.414212 -1.4142136,-1.414212 0,-2.828426 l 3.5355339,-3.535536 c 2.1213204,-2.121319 2.1213204,-2.121319 2.8284272,-1.414212 z"
     id="path827"
     inkscape:connector-curvature="0"
     sodipodi:nodetypes="cccccccc" />
  <rect
     ry="2"
     y="-0.88461041"
     x="15.260273"
     height="6"
     width="14"
     id="rect829"
     style="opacity:1;fill:#ffffff;fill-opacity:1;fill-rule:evenodd;stroke:none;stroke-width:2;stroke-linecap:butt;stroke-linejoin:round;stroke-miterlimit:4;stroke-dasharray:none;stroke-opacity:1"
     rx="2"
     transform="rotate(45)" />
  <g
     style="display:inline;stroke-width:9.7142868;enable-background:new"
     transform="matrix(0.06092831,0.03517698,-0.03815213,0.06608143,-8.6892946,-17.54128)"
     id="g1135">
    <path
       style="fill:#fee1c2;fill-opacity:1;stroke:none;stroke-width:9.7142868"
       d="m 702.21881,319.35584 -46.21878,81.13762 -46.21383,-81.13762 0.44418,-28.63468 h 92.43261 z"
       id="path1129"
       inkscape:connector-curvature="0"
       sodipodi:nodetypes="cccccc" />
    <path
       style="color:#000000;display:inline;overflow:visible;visibility:visible;fill:#5d5d5d;fill-opacity:1;fill-rule:nonzero;stroke:none;stroke-width:11.66852188;marker:none;enable-background:accumulate"
       d="m 641.30138,374.67695 14.69865,25.81651 14.69864,-25.81651 c 0,0 1.12026,-2.76606 -1.73934,-2.76606 -2.85961,0 -5.69434,3.68807 -5.69434,3.68807 0,0 -1.49371,-4.61009 -7.23393,-4.61009 -5.74023,0 -7.23394,4.61009 -7.23394,4.61009 0,0 -2.89678,-3.68807 -5.7824,-3.68807 -2.88562,0 -1.71334,2.76606 -1.71334,2.76606 z"
       id="path1131"
       inkscape:connector-curvature="0"
       sodipodi:nodetypes="ccczczczc" />
    <path
       style="fill:url(#linearGradient4400);fill-opacity:1;stroke:none;stroke-width:9.7142868"
       d="m 609.7862,306.2504 c 0,-7.37615 28.42768,-3.68808 28.42768,7.37614 0,-18.44036 35.53461,-18.44036 35.53461,0 0,-11.06422 28.47032,-14.75229 28.47032,-7.37614 V 67.928881 H 609.7862 Z"
       id="path1133"
       inkscape:connector-curvature="0"
       sodipodi:nodetypes="ccccccc" />
  </g>
</svg>
