<?xml version="1.0" encoding="UTF-8" standalone="no"?>
<svg
   viewBox="0 0 32 32"
   version="1.1"
   id="svg4"
   sodipodi:docname="firstpage.svg"
   inkscape:version="1.4.4 (dcaf3e7d9e, 2026-05-05)"
   inkscape:export-filename="/home/jupiter007/Libreoffice yaru theme fullcolor/build/cmd/32/firstpage.png"
   inkscape:export-xdpi="95"
   inkscape:export-ydpi="95"
   xmlns:inkscape="http://www.inkscape.org/namespaces/inkscape"
   xmlns:sodipodi="http://sodipodi.sourceforge.net/DTD/sodipodi-0.dtd"
   xmlns="http://www.w3.org/2000/svg"
   xmlns:svg="http://www.w3.org/2000/svg"
   xmlns:rdf="http://www.w3.org/1999/02/22-rdf-syntax-ns#"
   xmlns:cc="http://creativecommons.org/ns#"
   xmlns:dc="http://purl.org/dc/elements/1.1/">
  <metadata
     id="metadata10">
    <rdf:RDF>
      <cc:Work
         rdf:about="">
        <dc:format>image/svg+xml</dc:format>
        <dc:type
           rdf:resource="http://purl.org/dc/dcmitype/StillImage" />
      </cc:Work>
    </rdf:RDF>
  </metadata>
  <defs
     id="defs8" />
  <sodipodi:namedview
     pagecolor="#ffffff"
     bordercolor="#666666"
     borderopacity="1"
     objecttolerance="10"
     gridtolerance="10"
     guidetolerance="10"
     inkscape:pageopacity="0"
     inkscape:pageshadow="2"
     inkscape:window-width="1920"
     inkscape:window-height="1011"
     id="namedview6"
     showgrid="true"
     inkscape:zoom="20.85965"
     inkscape:cx="17.929352"
     inkscape:cy="15.220773"
     inkscape:window-x="0"
     inkscape:window-y="0"
     inkscape:window-maximized="1"
     inkscape:current-layer="svg4"
     inkscape:document-rotation="0"
     inkscape:showpageshadow="2"
     inkscape:pagecheckerboard="0"
     inkscape:deskcolor="#d1d1d1">
    <inkscape:grid
       type="xygrid"
       id="grid817"
       originx="0"
       originy="0"
       spacingy="1"
       spacingx="1"
       units="px" />
  </sodipodi:namedview>
  <g
     id="g1"
     style="fill:#0000ff"
     transform="matrix(-1.3333333,0,0,1.3333333,32.333333,0)">
    <path
       d="m 10,2 c 0.8625,1.0925 1.7462,2.1962 2.51,3.32 0.84875,1.25 1.6088,2.465 2.2812,3.64 0.62125,1.085 1.0875,2.2175 1.4588,3.04 -0.37125,0.8225 -0.8375,1.955 -1.4588,3.04 A 56.02,56.02 0 0 1 12.51,18.68 C 11.7475,19.805 10.8638,20.9075 10,22 v -1.8625 c 0.5,-0.655 1.0462,-1.3275 1.5275,-2.0312 0.6075,-0.8875 1.1775,-1.7962 1.7125,-2.725 0.54125,-0.94375 1.1875,-2.24 1.6062,-3.125 v -0.0012 l 0.12,-0.255 -0.12,-0.25375 A 48.885,48.885 0 0 0 13.24,8.62005 41.091,41.091 0 0 0 11.5275,5.89385 C 11.04625,5.19135 10.5,4.51885 10,3.86265 Z"
       fill="#ffffff"
       stroke-width="1.25"
       id="path1"
       style="fill:#0000ff" />
  </g>
  <circle
     style="fill:#0000ff;stroke:none;stroke-width:1.99999;stroke-linecap:round;stroke-linejoin:round"
     id="path2"
     cx="-16"
     cy="-5.5"
     r="1.5"
     transform="matrix(0,-1,-1,0,0,0)" />
</svg>
