<?xml version="1.0" encoding="UTF-8" standalone="no"?>
<svg
   xmlns:dc="http://purl.org/dc/elements/1.1/"
   xmlns:cc="http://creativecommons.org/ns#"
   xmlns:rdf="http://www.w3.org/1999/02/22-rdf-syntax-ns#"
   xmlns:svg="http://www.w3.org/2000/svg"
   xmlns="http://www.w3.org/2000/svg"
   xmlns:sodipodi="http://sodipodi.sourceforge.net/DTD/sodipodi-0.dtd"
   xmlns:inkscape="http://www.inkscape.org/namespaces/inkscape"
   viewBox="0 0 32 32"
   version="1.1"
   id="svg6"
   sodipodi:docname="gotopage.svg"
   inkscape:version="1.0.1 (3bc2e813f5, 2020-09-07)"
   inkscape:export-filename="/home/jupiter007/Libreoffice yaru theme fullcolor/build/cmd/32/gotopage.png"
   inkscape:export-xdpi="96"
   inkscape:export-ydpi="96">
  <metadata
     id="metadata12">
    <rdf:RDF>
      <cc:Work
         rdf:about="">
        <dc:format>image/svg+xml</dc:format>
        <dc:type
           rdf:resource="http://purl.org/dc/dcmitype/StillImage" />
      </cc:Work>
    </rdf:RDF>
  </metadata>
  <defs
     id="defs10" />
  <sodipodi:namedview
     pagecolor="#ffffff"
     bordercolor="#666666"
     borderopacity="1"
     objecttolerance="10"
     gridtolerance="10"
     guidetolerance="10"
     inkscape:pageopacity="0"
     inkscape:pageshadow="2"
     inkscape:window-width="1920"
     inkscape:window-height="1043"
     id="namedview8"
     showgrid="true"
     inkscape:zoom="20.85965"
     inkscape:cx="24.674336"
     inkscape:cy="20.469445"
     inkscape:window-x="1920"
     inkscape:window-y="0"
     inkscape:window-maximized="1"
     inkscape:current-layer="svg6"
     inkscape:document-rotation="0">
    <inkscape:grid
       type="xygrid"
       id="grid830" />
  </sodipodi:namedview>
  <path
     id="path853"
     style="color:#000000;font-style:normal;font-variant:normal;font-weight:normal;font-stretch:normal;font-size:medium;line-height:normal;font-family:sans-serif;font-variant-ligatures:normal;font-variant-position:normal;font-variant-caps:normal;font-variant-numeric:normal;font-variant-alternates:normal;font-variant-east-asian:normal;font-feature-settings:normal;font-variation-settings:normal;text-indent:0;text-align:start;text-decoration:none;text-decoration-line:none;text-decoration-style:solid;text-decoration-color:#000000;letter-spacing:normal;word-spacing:normal;text-transform:none;writing-mode:lr-tb;direction:ltr;text-orientation:mixed;dominant-baseline:auto;baseline-shift:baseline;text-anchor:start;white-space:normal;shape-padding:0;shape-margin:0;inline-size:0;clip-rule:nonzero;display:inline;overflow:visible;visibility:visible;isolation:auto;mix-blend-mode:normal;color-interpolation:sRGB;color-interpolation-filters:linearRGB;solid-color:#000000;solid-opacity:1;vector-effect:none;fill:#000000;fill-opacity:1;fill-rule:nonzero;stroke:none;stroke-width:2;stroke-linecap:butt;stroke-linejoin:miter;stroke-miterlimit:4;stroke-dasharray:none;stroke-dashoffset:0;stroke-opacity:1;color-rendering:auto;image-rendering:auto;shape-rendering:auto;text-rendering:auto;enable-background:accumulate;stop-color:#000000;stop-opacity:1;opacity:0.7"
     d="M 10 3 C 8.8333333 3 7.6586587 3.2757379 6.6953125 3.9179688 C 5.7319663 4.5601996 5 5.6666667 5 7 L 5 25 C 5 26.333333 5.7319663 27.4398 6.6953125 28.082031 C 7.6586587 28.724262 8.8333333 29 10 29 L 18 29 L 18 27 L 10 27 C 9.1666667 27 8.3413413 26.775738 7.8046875 26.417969 C 7.2680337 26.0602 7 25.666667 7 25 L 7 7 C 7 6.3333333 7.2680337 5.9398004 7.8046875 5.5820312 C 8.3413413 5.2242621 9.1666667 5 10 5 L 18.585938 5 L 25 11.414062 L 25 20.919922 L 27 22.519531 L 27 10.585938 L 19.414062 3 L 10 3 z " />
  <path
     id="path2"
     style="fill:#ffffff"
     d="M 10 4 C 8 4 6 5 6 7 L 6 25 C 6 27 8 28 10 28 L 18 28 L 18 25 L 25 25 L 25 20.919922 L 26 21.720703 L 26 11 L 19 4 L 10 4 z " />
  <path
     inkscape:connector-curvature="0"
     d="M 19,11 V 4 l 7,7 z"
     id="path4"
     style="fill:#6d6d6d;fill-opacity:1" />
  <path
     inkscape:connector-curvature="0"
     style="fill:#00ffff;fill-opacity:1;stroke:none;stroke-width:1px;stroke-linecap:butt;stroke-linejoin:miter;stroke-opacity:1"
     d="m 31,27 -4.999999,4 V 28 H 19 v -2 h 7.000001 v -3 z"
     id="path834"
     sodipodi:nodetypes="cccccccc"
     inkscape:transform-center-x="-6.082182" />
</svg>
