<?xml version="1.0" encoding="UTF-8" standalone="no"?>
<svg
   xmlns:dc="http://purl.org/dc/elements/1.1/"
   xmlns:cc="http://creativecommons.org/ns#"
   xmlns:rdf="http://www.w3.org/1999/02/22-rdf-syntax-ns#"
   xmlns:svg="http://www.w3.org/2000/svg"
   xmlns="http://www.w3.org/2000/svg"
   xmlns:xlink="http://www.w3.org/1999/xlink"
   xmlns:sodipodi="http://sodipodi.sourceforge.net/DTD/sodipodi-0.dtd"
   xmlns:inkscape="http://www.inkscape.org/namespaces/inkscape"
   viewBox="0 0 32 32"
   version="1.1"
   id="svg4"
   sodipodi:docname="insertfixedtext.svg"
   inkscape:export-filename="/home/jupiter007/Libreoffice yaru theme fullcolor/build/cmd/sc_insertfixedtext.png"
   inkscape:export-xdpi="96"
   inkscape:export-ydpi="96"
   inkscape:version="1.0.1 (3bc2e813f5, 2020-09-07)"
   width="32"
   height="32"><metadata
   id="metadata10">
  <rdf:RDF>
    <cc:Work
       rdf:about="">
      <dc:format>image/svg+xml</dc:format>
      <dc:type
         rdf:resource="http://purl.org/dc/dcmitype/StillImage" />
      <dc:title></dc:title>
    </cc:Work>
  </rdf:RDF>
</metadata>
<defs
   id="defs8">
  <linearGradient
     inkscape:collect="always"
     id="linearGradient839">
    <stop
       style="stop-color:#151515;stop-opacity:1"
       offset="0"
       id="stop835" />
    <stop
       style="stop-color:#4d4d4d;stop-opacity:1"
       offset="1"
       id="stop837" />
  </linearGradient>
  <linearGradient
     inkscape:collect="always"
     xlink:href="#linearGradient839"
     id="linearGradient841"
     x1="20"
     y1="9"
     x2="20"
     y2="23"
     gradientUnits="userSpaceOnUse" />
</defs>
<sodipodi:namedview
   pagecolor="#808080"
   bordercolor="#666666"
   borderopacity="1"
   objecttolerance="10"
   gridtolerance="10"
   guidetolerance="10"
   inkscape:pageopacity="0"
   inkscape:pageshadow="2"
   inkscape:window-width="1920"
   inkscape:window-height="1043"
   id="namedview6"
   showgrid="true"
   inkscape:zoom="20.85965"
   inkscape:cx="6.5933785"
   inkscape:cy="12.007923"
   inkscape:window-x="1920"
   inkscape:window-y="0"
   inkscape:window-maximized="1"
   inkscape:current-layer="svg4"
   inkscape:document-rotation="0">
  <inkscape:grid
     type="xygrid"
     id="grid829" />
</sodipodi:namedview>



/&gt;<path
   id="path899"
   style="opacity:1;fill:#000000;fill-rule:evenodd;stroke:#ffffff;stroke-width:2;stroke-linecap:round;stroke-linejoin:round"
   d="m 19,9 v 4 a 4,4 0 0 0 0,0.06055 V 15 v 2 6 h 6 A 4,4 0 0 0 29,19 4,4 0 0 0 26.322266,15.224609 4,4 0 0 0 27,13 4,4 0 0 0 23,9 h -0.06055 z m 3,3 h 1 a 1,1 0 0 1 1,1 1,1 0 0 1 -1,1 h -1 v -1 z m 0,5 h 1 1 a 2,1.5 0 0 1 2,1.5 2,1.5 0 0 1 -2,1.5 h -2 v -1.5 z" />
<path
   inkscape:connector-curvature="0"
   id="path828"
   d="M 7.9999999,9 3,23 H 6 L 7.4550779,19 H 12.544922 L 14,23 h 3 L 12,9 Z M 10,12 11.818359,17 H 8.1816409 Z"
   style="opacity:1;fill:#000000;fill-opacity:1;stroke:#ffffff;stroke-width:2;stroke-linecap:butt;stroke-linejoin:round;stroke-miterlimit:4;stroke-dasharray:none;stroke-opacity:1" />
<path
   id="path846"
   style="opacity:1;fill:url(#linearGradient841);fill-rule:evenodd;stroke:none;stroke-width:2;stroke-linecap:round;stroke-linejoin:round;fill-opacity:1"
   d="M 8 9 L 3 23 L 6 23 L 7.4550781 19 L 12.544922 19 L 14 23 L 17 23 L 12 9 L 8 9 z M 19 9 L 19 13 A 4 4 0 0 0 19 13.060547 L 19 15 L 19 17 L 19 23 L 25 23 A 4 4 0 0 0 29 19 A 4 4 0 0 0 26.322266 15.224609 A 4 4 0 0 0 27 13 A 4 4 0 0 0 23 9 L 22.939453 9 L 19 9 z M 10 12 L 11.818359 17 L 8.1816406 17 L 10 12 z M 22 12 L 23 12 A 1 1 0 0 1 24 13 A 1 1 0 0 1 23 14 L 22 14 L 22 13 L 22 12 z M 22 17 L 23 17 L 24 17 A 2 1.5 0 0 1 26 18.5 A 2 1.5 0 0 1 24 20 L 22 20 L 22 18.5 L 22 17 z " />
</svg>
