<?xml version="1.0" encoding="UTF-8" standalone="no"?>
<svg
   xmlns:dc="http://purl.org/dc/elements/1.1/"
   xmlns:cc="http://creativecommons.org/ns#"
   xmlns:rdf="http://www.w3.org/1999/02/22-rdf-syntax-ns#"
   xmlns:svg="http://www.w3.org/2000/svg"
   xmlns="http://www.w3.org/2000/svg"
   xmlns:sodipodi="http://sodipodi.sourceforge.net/DTD/sodipodi-0.dtd"
   xmlns:inkscape="http://www.inkscape.org/namespaces/inkscape"
   viewBox="0 0 32 32"
   version="1.1"
   id="svg4"
   sodipodi:docname="insertvideo.svg"
   inkscape:export-filename="/home/jupiter007/Libreoffice yaru theme fullcolor/build/cmd/32/insertvideo.png"
   inkscape:export-xdpi="95"
   inkscape:export-ydpi="95"
   inkscape:version="1.0.1 (3bc2e813f5, 2020-09-07)">
  <metadata
     id="metadata10">
    <rdf:RDF>
      <cc:Work
         rdf:about="">
        <dc:format>image/svg+xml</dc:format>
        <dc:type
           rdf:resource="http://purl.org/dc/dcmitype/StillImage" />
      </cc:Work>
    </rdf:RDF>
  </metadata>
  <defs
     id="defs8" />
  <sodipodi:namedview
     pagecolor="#ffffff"
     bordercolor="#666666"
     borderopacity="1"
     objecttolerance="10"
     gridtolerance="10"
     guidetolerance="10"
     inkscape:pageopacity="0"
     inkscape:pageshadow="2"
     inkscape:window-width="1920"
     inkscape:window-height="1011"
     id="namedview6"
     showgrid="true"
     inkscape:zoom="20.85965"
     inkscape:cx="7.9754618"
     inkscape:cy="13.492606"
     inkscape:window-x="0"
     inkscape:window-y="0"
     inkscape:window-maximized="1"
     inkscape:current-layer="svg4"
     inkscape:document-rotation="0">
    <inkscape:grid
       type="xygrid"
       id="grid825" />
  </sodipodi:namedview>
  <g
     style="color:#000000"
     transform="matrix(1.6,0,0,1.6153846,-503.29999,-252.38464)"
     id="g4" />
  <path
     inkscape:connector-curvature="0"
     d="m 8.500031,4.49997 h 15 v 23 h -15 z"
     id="path42"
     style="fill:#d85eca;fill-opacity:1"
     sodipodi:nodetypes="ccccc" />
  <path
     inkscape:connector-curvature="0"
     style="opacity:0.7"
     d="m 3.500021,3 c -0.276131,2.8e-5 -0.499972,0.223869 -0.5,0.5 v 25 c 2.8e-5,0.27613 0.223869,0.499971 0.5,0.5 h 2.5 19.99976 2.5 c 0.276131,-2.9e-5 0.499972,-0.22387 0.5,-0.5 v -25 c -2.8e-5,-0.276131 -0.223869,-0.499972 -0.5,-0.5 h -2.5 -19.99976 z M 9,4.999999 H 23 V 27 H 9 Z"
     id="path50"
     sodipodi:nodetypes="cccccccccccccccccc" />
  <path
     id="path52"
     display="block"
     d="M 9.500142,15.5 H 22.49966"
     inkscape:connector-curvature="0"
     style="display:block;opacity:0.7;fill:none;stroke:#000000;stroke-linecap:square;stroke-linejoin:round"
     sodipodi:nodetypes="cc" />
  <path
     style="fill:#ffffff"
     d="M 5,5 H 7 V 6.000001 H 5 Z"
     id="path861" />
  <path
     style="fill:#ffffff"
     d="m 5,8.000001 h 2 v 1 H 5 Z"
     id="path859" />
  <path
     style="fill:#ffffff"
     d="m 5,11.000001 h 2 v 1 H 5 Z"
     id="path857" />
  <path
     style="fill:#ffffff"
     d="m 5,14.000001 h 2 v 1 H 5 Z"
     id="path855" />
  <path
     style="fill:#ffffff"
     d="m 5,17.000001 h 2 v 1 H 5 Z"
     id="path853" />
  <path
     style="fill:#ffffff"
     d="m 5,20.000001 h 2 v 1 H 5 Z"
     id="path851" />
  <path
     style="fill:#ffffff"
     d="m 5,23.000001 h 2 v 1 H 5 Z"
     id="path849" />
  <path
     style="fill:#ffffff"
     d="m 25,17.000001 h 2 v 1 h -2 z"
     id="path847" />
  <path
     style="fill:#ffffff"
     d="m 25,20.000001 h 2 v 1 h -2 z"
     id="path845" />
  <path
     style="fill:#ffffff"
     d="m 25,23.000001 h 2 v 1 h -2 z"
     id="path60" />
  <path
     style="fill:#ffffff"
     d="m 25,8.000001 h 2 v 1 h -2 z"
     id="path863" />
  <path
     style="fill:#ffffff"
     d="m 25,11.000001 h 2 v 1 h -2 z"
     id="path865" />
  <path
     style="fill:#ffffff"
     d="m 25,14.000001 h 2 v 1 h -2 z"
     id="path867" />
  <path
     style="fill:#ffffff"
     d="m 25,5.000001 h 2 v 1 h -2 z"
     id="path869" />
  <path
     style="fill:#ffffff"
     d="m 5,26 h 2 v 1 H 5 Z"
     id="path864" />
  <path
     style="fill:#ffffff"
     d="m 25,26 h 2 v 1 h -2 z"
     id="path866" />
</svg>
