<?xml version="1.0" encoding="UTF-8" standalone="no"?>
<svg
   viewBox="0 0 32 32"
   version="1.1"
   id="svg6"
   sodipodi:docname="insertneutralparagraph.svg"
   inkscape:version="1.4.2 (ebf0e940d0, 2025-05-08)"
   inkscape:export-filename="/home/jupiter007/Libreoffice yaru theme fullcolor/build/cmd/32/insertneutralparagraph.png"
   inkscape:export-xdpi="96"
   inkscape:export-ydpi="96"
   xmlns:inkscape="http://www.inkscape.org/namespaces/inkscape"
   xmlns:sodipodi="http://sodipodi.sourceforge.net/DTD/sodipodi-0.dtd"
   xmlns="http://www.w3.org/2000/svg"
   xmlns:svg="http://www.w3.org/2000/svg"
   xmlns:rdf="http://www.w3.org/1999/02/22-rdf-syntax-ns#"
   xmlns:cc="http://creativecommons.org/ns#"
   xmlns:dc="http://purl.org/dc/elements/1.1/">
  <path
     id="rect861"
     style="fill:#0000ff;fill-rule:evenodd;stroke-width:3;stroke-linecap:round;stroke-linejoin:round"
     d="M 13 -4 L 13 -5 L 29 -5 L 29 -4 L 13 -4 z M 13 -6 L 13 -7 L 25 -7 L 25 -6 L 13 -6 z M 13 -8 L 13 -9 L 27 -9 L 27 -8 L 13 -8 z M 13 -13 L 13 -14 L 29 -14 L 29 -13 L 13 -13 z M 13 -15 L 13 -16 L 25 -16 L 25 -15 L 13 -15 z M 13 -17 L 13 -18 L 27 -18 L 27 -17 L 13 -17 z M 13 -22 L 13 -23 L 29 -23 L 29 -22 L 13 -22 z M 13 -24 L 13 -25 L 25 -25 L 25 -24 L 13 -24 z M 13 -26 L 13 -27 L 27 -27 L 27 -26 L 13 -26 z "
     transform="scale(1,-1)" />
  <metadata
     id="metadata12">
    <rdf:RDF>
      <cc:Work
         rdf:about="">
        <dc:format>image/svg+xml</dc:format>
        <dc:type
           rdf:resource="http://purl.org/dc/dcmitype/StillImage" />
        <dc:title />
      </cc:Work>
    </rdf:RDF>
  </metadata>
  <defs
     id="defs10" />
  <sodipodi:namedview
     pagecolor="#ffffff"
     bordercolor="#666666"
     borderopacity="1"
     objecttolerance="10"
     gridtolerance="10"
     guidetolerance="10"
     inkscape:pageopacity="0"
     inkscape:pageshadow="2"
     inkscape:window-width="1920"
     inkscape:window-height="1011"
     id="namedview8"
     showgrid="true"
     inkscape:zoom="20.85965"
     inkscape:cx="9.9953738"
     inkscape:cy="17.473927"
     inkscape:window-x="0"
     inkscape:window-y="0"
     inkscape:window-maximized="1"
     inkscape:current-layer="svg6"
     inkscape:document-rotation="0"
     inkscape:showpageshadow="2"
     inkscape:pagecheckerboard="0"
     inkscape:deskcolor="#d1d1d1">
    <inkscape:grid
       type="xygrid"
       id="grid822"
       originx="0"
       originy="0"
       spacingy="1"
       spacingx="1"
       units="px" />
  </sodipodi:namedview>
  <path
     id="rect832"
     style="opacity:1;vector-effect:none;fill:#00ff00;fill-opacity:1;stroke:none;stroke-width:2.15385;stroke-linecap:round;stroke-linejoin:round;stroke-miterlimit:4;stroke-dasharray:none;stroke-dashoffset:0;stroke-opacity:1"
     d="M 7 4 L 7 5 L 8 5 L 8 8 L 7 8 L 7 9 L 10 9 L 10 8 L 9 8 L 9 5 L 10 5 L 10 4 L 7 4 z M 5 22 L 5 23 L 6 23 L 6 26 L 5 26 L 5 27 L 10 27 L 10 26 L 9 26 L 9 23 L 10 23 L 10 22 L 5 22 z M 7 23 L 8 23 L 8 26 L 7 26 L 7 23 z " />
</svg>
