<?xml version="1.0" encoding="UTF-8" standalone="no"?>
<svg
   viewBox="0 0 32 32"
   version="1.1"
   id="svg6"
   sodipodi:docname="insertfootnote.svg"
   inkscape:export-filename="/home/jupiter007/Libreoffice yaru theme fullcolor/build/cmd/32/insertfootnote.png"
   inkscape:export-xdpi="95"
   inkscape:export-ydpi="95"
   inkscape:version="1.2 (1:1.2.1+202207142221+cd75a1ee6d)"
   xmlns:inkscape="http://www.inkscape.org/namespaces/inkscape"
   xmlns:sodipodi="http://sodipodi.sourceforge.net/DTD/sodipodi-0.dtd"
   xmlns="http://www.w3.org/2000/svg"
   xmlns:svg="http://www.w3.org/2000/svg"
   xmlns:rdf="http://www.w3.org/1999/02/22-rdf-syntax-ns#"
   xmlns:cc="http://creativecommons.org/ns#"
   xmlns:dc="http://purl.org/dc/elements/1.1/">
  <metadata
     id="metadata12">
    <rdf:RDF>
      <cc:Work
         rdf:about="">
        <dc:format>image/svg+xml</dc:format>
        <dc:type
           rdf:resource="http://purl.org/dc/dcmitype/StillImage" />
      </cc:Work>
    </rdf:RDF>
  </metadata>
  <defs
     id="defs10" />
  <sodipodi:namedview
     pagecolor="#ffffff"
     bordercolor="#666666"
     borderopacity="1"
     objecttolerance="10"
     gridtolerance="10"
     guidetolerance="10"
     inkscape:pageopacity="0"
     inkscape:pageshadow="2"
     inkscape:window-width="1920"
     inkscape:window-height="1043"
     id="namedview8"
     showgrid="true"
     inkscape:zoom="7.375"
     inkscape:cx="-11.322034"
     inkscape:cy="9.220339"
     inkscape:window-x="0"
     inkscape:window-y="0"
     inkscape:window-maximized="1"
     inkscape:current-layer="svg6"
     inkscape:document-rotation="0"
     inkscape:showpageshadow="2"
     inkscape:pagecheckerboard="0"
     inkscape:deskcolor="#d1d1d1">
    <inkscape:grid
       type="xygrid"
       id="grid822" />
  </sodipodi:namedview>
  <path
     sodipodi:nodetypes="cccscsccccccccscscccccc"
     inkscape:connector-curvature="0"
     id="path4237-1"
     d="M 7.010772,3.972815 C 5.752572,3.987315 4.831881,3.942215 4.079131,4.357581 3.702761,4.565241 3.4059,4.916968 3.24124,5.355628 3.07657,5.794298 3.016631,6.315215 3.016631,6.972815 v 1.488282 17.512301 c 0,0.65761 0.0599,1.178577 0.224609,1.617188 0.16468,0.438611 0.461531,0.788524 0.837891,0.996093 0.75272,0.41513 1.673541,0.371649 2.931641,0.386719 h 0.002 18.005859 0.0039 c 1.25819,-0.0145 2.178891,0.0306 2.931641,-0.384766 0.37637,-0.20766 0.673221,-0.559386 0.837891,-0.998046 0.164539,-0.438671 0.224618,-0.959578 0.224618,-1.617188 V 8.439613 6.972815 c 0,-0.6576 -0.0599,-1.178577 -0.224609,-1.617187 C 28.627392,4.917028 28.330541,4.567094 27.954181,4.359534 27.201411,3.944404 26.28058,3.987895 25.02249,3.972815 h -0.002 -18.005859 z"
     style="font-style:normal;font-variant:normal;font-weight:normal;font-stretch:normal;font-size:15px;line-height:125%;font-family:Ubuntu;-inkscape-font-specification:Ubuntu;text-align:center;letter-spacing:0px;word-spacing:0px;writing-mode:lr-tb;text-anchor:middle;display:inline;opacity:0.7;fill:#000000;fill-opacity:1;stroke:none;stroke-width:0.99980211" />
  <path
     inkscape:connector-curvature="0"
     id="path1993"
     d="M 12,5 C 10.443419,5.0108 6.89001,4.98825 5.340059,5.03877 4.87883,5.08144 4.323871,5.24519 4.184719,5.748737 3.965725,6.384083 4.076305,7.082524 4.038923,7.730661 c -0.0078,2.297085 -0.02297,16.596428 0.02152,18.88578 0.0391,0.461929 0.202551,1.012666 0.698756,1.163666 0.632456,0.225082 1.284144,0.12274 1.935974,0.154298 1.424235,0.0068 12.850563,0.01102 14.27642,0.01131 1.704531,3.5e-4 3.408388,-0.005 5.10719,-0.01851 0.511911,-0.01201 1.183699,0.01993 1.584745,-0.405191 0.421097,-0.539783 0.287073,-1.268021 0.322745,-1.903787 0.01187,-2.444323 0.02769,-16.911094 -0.0219,-19.356794 C 27.915093,5.859393 27.794381,5.398481 27.389234,5.216958 26.721065,4.92286 25.963029,5.048939 25.263313,5.011385 23.508906,4.999585 13.754439,4.998905 12,4.999995 Z"
     style="opacity:1;vector-effect:none;fill:#ffffff;fill-opacity:1;stroke:none;stroke-width:1;stroke-linecap:round;stroke-linejoin:bevel;stroke-miterlimit:4;stroke-dasharray:none;stroke-dashoffset:0;stroke-opacity:1"
     sodipodi:nodetypes="cccccccsccccccc" />
  <rect
     style="fill:#00ff00;fill-rule:evenodd;stroke:none;stroke-width:2;stroke-linecap:square;stroke-linejoin:round"
     id="rect291"
     width="1"
     height="3.9895389"
     x="6"
     y="22" />
  <rect
     style="fill:#00ff00;fill-rule:evenodd;stroke:none;stroke-width:2;stroke-linecap:square;stroke-linejoin:round"
     id="rect345"
     width="1"
     height="1"
     x="6"
     y="20" />
  <rect
     style="fill:#00ff00;fill-rule:evenodd;stroke:none;stroke-width:2;stroke-linecap:square;stroke-linejoin:round"
     id="rect347"
     width="17"
     height="1"
     x="9"
     y="22" />
  <rect
     style="fill:#00ff00;fill-rule:evenodd;stroke:none;stroke-width:2;stroke-linecap:square;stroke-linejoin:round"
     id="rect349"
     width="13"
     height="1"
     x="9"
     y="24" />
  <rect
     style="fill:#232629;fill-opacity:1;fill-rule:evenodd;stroke:none;stroke-width:1.84391;stroke-linecap:square;stroke-linejoin:round"
     id="rect353"
     width="14"
     height="1"
     x="9"
     y="13" />
  <rect
     style="fill:#232629;fill-opacity:1;fill-rule:evenodd;stroke:none;stroke-width:1.84391;stroke-linecap:square;stroke-linejoin:round"
     id="rect409"
     width="11"
     height="1"
     x="9"
     y="11" />
  <rect
     style="fill:#232629;fill-rule:evenodd;stroke:none;stroke-width:1.84391;stroke-linecap:square;stroke-linejoin:round;fill-opacity:1"
     id="rect411"
     width="17"
     height="1"
     x="9"
     y="9" />
  <rect
     style="fill:#00ff00;fill-rule:evenodd;stroke:none;stroke-width:2;stroke-linecap:square;stroke-linejoin:round"
     id="rect413"
     width="1"
     height="4"
     x="6"
     y="10" />
  <rect
     style="fill:#00ff00;fill-rule:evenodd;stroke:none;stroke-width:2;stroke-linecap:square;stroke-linejoin:round"
     id="rect415"
     width="1"
     height="1"
     x="6"
     y="8" />
</svg>
