<?xml version="1.0" encoding="UTF-8" standalone="no"?>
<svg
   xmlns:dc="http://purl.org/dc/elements/1.1/"
   xmlns:cc="http://creativecommons.org/ns#"
   xmlns:rdf="http://www.w3.org/1999/02/22-rdf-syntax-ns#"
   xmlns:svg="http://www.w3.org/2000/svg"
   xmlns="http://www.w3.org/2000/svg"
   xmlns:xlink="http://www.w3.org/1999/xlink"
   xmlns:sodipodi="http://sodipodi.sourceforge.net/DTD/sodipodi-0.dtd"
   xmlns:inkscape="http://www.inkscape.org/namespaces/inkscape"
   viewBox="0 0 32 32"
   version="1.1"
   id="svg6"
   sodipodi:docname="inspectordeck.svg"
   inkscape:version="1.0.1 (3bc2e813f5, 2020-09-07)"
   inkscape:export-filename="/home/jupiter007/Libreoffice yaru theme fullcolor/build/cmd/32/stylenewbyexample.png"
   inkscape:export-xdpi="95"
   inkscape:export-ydpi="95">
  <path
     id="path881"
     style="color:#000000;font-style:normal;font-variant:normal;font-weight:normal;font-stretch:normal;font-size:medium;line-height:normal;font-family:sans-serif;font-variant-ligatures:normal;font-variant-position:normal;font-variant-caps:normal;font-variant-numeric:normal;font-variant-alternates:normal;font-variant-east-asian:normal;font-feature-settings:normal;font-variation-settings:normal;text-indent:0;text-align:start;text-decoration:none;text-decoration-line:none;text-decoration-style:solid;text-decoration-color:#000000;letter-spacing:normal;word-spacing:normal;text-transform:none;writing-mode:lr-tb;direction:ltr;text-orientation:mixed;dominant-baseline:auto;baseline-shift:baseline;text-anchor:start;white-space:normal;shape-padding:0;shape-margin:0;inline-size:0;clip-rule:nonzero;display:inline;overflow:visible;visibility:visible;isolation:auto;mix-blend-mode:normal;color-interpolation:sRGB;color-interpolation-filters:linearRGB;solid-color:#000000;solid-opacity:1;vector-effect:none;fill:#ffffff;fill-opacity:1;fill-rule:nonzero;stroke:none;stroke-width:2;stroke-linecap:round;stroke-linejoin:round;stroke-miterlimit:4;stroke-dasharray:none;stroke-dashoffset:0;stroke-opacity:1;color-rendering:auto;image-rendering:auto;shape-rendering:auto;text-rendering:auto;enable-background:accumulate;stop-color:#000000;stop-opacity:1;opacity:1"
     d="M 20 3 A 1.0001 1.0001 0 0 0 19.072266 3.6289062 L 13.072266 18.628906 A 1.0001 1.0001 0 0 0 14 20 L 15.072266 20 A 7 7 0 0 1 15.675781 18 L 15.476562 18 L 20.677734 5 L 22.322266 5 L 26.621094 15.742188 A 7 7 0 0 1 28.927734 20 L 29 20 A 1.0001 1.0001 0 0 0 29.927734 18.628906 L 23.927734 3.6289062 A 1.0001 1.0001 0 0 0 23 3 L 20 3 z M 21.464844 6.0019531 A 1.0001 1.0001 0 0 0 20.558594 6.6640625 L 18.058594 13.664062 A 1.0001 1.0001 0 0 0 18.566406 14.900391 A 7 7 0 0 1 22 14 A 7 7 0 0 1 24.806641 14.587891 A 1.0001 1.0001 0 0 0 24.941406 13.664062 L 22.441406 6.6640625 A 1.0001 1.0001 0 0 0 21.464844 6.0019531 z M 21.5 9.9726562 L 22.582031 13 L 20.417969 13 L 21.5 9.9726562 z M 18.25 15 A 1.0001 1.0001 0 0 0 17.326172 15.615234 L 17.208984 15.898438 A 7 7 0 0 1 18.396484 15 L 18.25 15 z " />
  <path
     id="path16"
     style="opacity:1;fill:url(#linearGradient856);fill-opacity:1;stroke:none;stroke-linecap:round;stroke-linejoin:round"
     d="M 20 4 L 14 19 L 15.292969 19 A 7 7 0 0 1 21.90625 14 L 19 14 L 21.5 7 L 24 14 L 22 14 A 7 7 0 0 1 28.707031 19 L 29 19 L 23 4 L 20 4 z " />
  <path
     id="path873"
     style="color:#000000;font-style:normal;font-variant:normal;font-weight:normal;font-stretch:normal;font-size:medium;line-height:normal;font-family:sans-serif;font-variant-ligatures:normal;font-variant-position:normal;font-variant-caps:normal;font-variant-numeric:normal;font-variant-alternates:normal;font-variant-east-asian:normal;font-feature-settings:normal;font-variation-settings:normal;text-indent:0;text-align:start;text-decoration:none;text-decoration-line:none;text-decoration-style:solid;text-decoration-color:#000000;letter-spacing:normal;word-spacing:normal;text-transform:none;writing-mode:lr-tb;direction:ltr;text-orientation:mixed;dominant-baseline:auto;baseline-shift:baseline;text-anchor:start;white-space:normal;shape-padding:0;shape-margin:0;inline-size:0;clip-rule:nonzero;display:inline;overflow:visible;visibility:visible;isolation:auto;mix-blend-mode:normal;color-interpolation:sRGB;color-interpolation-filters:linearRGB;solid-color:#000000;solid-opacity:1;vector-effect:none;fill:#000000;fill-opacity:1;fill-rule:evenodd;stroke:none;stroke-width:2;stroke-linecap:butt;stroke-linejoin:round;stroke-miterlimit:4;stroke-dasharray:none;stroke-dashoffset:0;stroke-opacity:1;color-rendering:auto;image-rendering:auto;shape-rendering:auto;text-rendering:auto;enable-background:accumulate;stop-color:#000000;stop-opacity:1;opacity:0.7"
     d="M 11.416016 10 C 10.646101 10 9.8764121 10.289603 9.2949219 10.871094 L 7.8808594 12.285156 C 6.7178789 13.448137 6.7178787 15.366316 7.8808594 16.529297 L 14.951172 23.599609 C 15.189073 23.83751 15.463878 24.013727 15.751953 24.154297 A 7 7 0 0 1 15 21 A 7 7 0 0 1 15.003906 20.824219 L 9.2949219 15.115234 C 8.8909532 14.711266 8.8909538 14.103187 9.2949219 13.699219 L 10.708984 12.285156 C 11.112953 11.881188 11.719078 11.881188 12.123047 12.285156 L 16.503906 16.666016 A 7 7 0 0 1 17.953125 15.287109 L 13.537109 10.871094 C 12.955619 10.289603 12.185931 10 11.416016 10 z " />
  <path
     id="path823"
     style="fill:#6d6d6d;fill-opacity:1;stroke:none;stroke-width:1px;stroke-linecap:butt;stroke-linejoin:miter;stroke-opacity:1"
     d="M 10.085938 20.671875 C 9.471362 20.595916 9.0298328 21.036574 8.5878906 21.478516 L 7.8808594 22.185547 L 9.2949219 23.599609 C 10.00203 22.892503 10.001877 22.892503 10.708984 23.599609 L 15.658203 28.550781 C 17.072417 29.964994 17.779221 29.257888 18.486328 28.550781 L 19.5 27.537109 A 7 7 0 0 1 17.689453 26.513672 C 17.088313 27.110954 17.034374 27.096873 16.365234 26.427734 L 11.416016 21.478516 C 10.885686 20.948185 10.454683 20.71745 10.085938 20.671875 z " />
  <path
     style="fill:#fa9381;fill-opacity:1;stroke:none;stroke-width:1px;stroke-linecap:butt;stroke-linejoin:miter;stroke-opacity:1"
     d="m 7.8804993,22.185943 1.4142137,1.414213 c 0.707108,0.707107 0.707108,0.707107 -1.4142137,2.828428 l -3.5355339,3.535533 c -1.4142136,1.414215 -1.4142136,1.414215 -2.8284272,0 -1.4142136,-1.414213 -1.4142136,-1.414213 0,-2.828427 l 3.5355339,-3.535535 c 2.1213204,-2.12132 2.1213204,-2.12132 2.8284272,-1.414212 z"
     id="path827"
     inkscape:connector-curvature="0"
     sodipodi:nodetypes="cccccccc" />
  <path
     id="rect829"
     style="opacity:1;fill:#ffffff;fill-opacity:1;fill-rule:evenodd;stroke:none;stroke-width:2;stroke-linecap:butt;stroke-linejoin:round;stroke-miterlimit:4;stroke-dasharray:none;stroke-opacity:1"
     d="M 11.416016 10.992188 C 10.904777 10.992188 10.39369 11.188341 10.001953 11.580078 L 8.5878906 12.994141 C 7.8044163 13.777615 7.8044163 15.038791 8.5878906 15.822266 L 15.134766 22.369141 A 7 7 0 0 1 15 21 A 7 7 0 0 1 17.177734 15.927734 L 12.830078 11.580078 C 12.438341 11.188341 11.927254 10.992187 11.416016 10.992188 z " />
  <g
     style="display:inline;stroke-width:0.999982;enable-background:new"
     id="g1246"
     transform="matrix(-0.08568832,-0.08568832,-0.08568517,0.08568517,47.560382,27.474957)" />
  <metadata
     id="metadata12">
    <rdf:RDF>
      <cc:Work
         rdf:about="">
        <dc:format>image/svg+xml</dc:format>
        <dc:type
           rdf:resource="http://purl.org/dc/dcmitype/StillImage" />
        <dc:title></dc:title>
      </cc:Work>
    </rdf:RDF>
  </metadata>
  <defs
     id="defs10">
    <linearGradient
       inkscape:collect="always"
       xlink:href="#linearGradient862"
       id="linearGradient856"
       x1="23"
       y1="4"
       x2="23"
       y2="19"
       gradientUnits="userSpaceOnUse"
       gradientTransform="translate(-1.22e-4)" />
    <linearGradient
       inkscape:collect="always"
       id="linearGradient862">
      <stop
         style="stop-color:#151515;stop-opacity:1;"
         offset="0"
         id="stop858" />
      <stop
         style="stop-color:#4d4d4d;stop-opacity:1"
         offset="1"
         id="stop860" />
    </linearGradient>
  </defs>
  <sodipodi:namedview
     pagecolor="#ffffff"
     bordercolor="#666666"
     borderopacity="1"
     objecttolerance="10"
     gridtolerance="10"
     guidetolerance="10"
     inkscape:pageopacity="0"
     inkscape:pageshadow="2"
     inkscape:window-width="1920"
     inkscape:window-height="1043"
     id="namedview8"
     showgrid="true"
     inkscape:zoom="20.85965"
     inkscape:cx="17.293537"
     inkscape:cy="17.054854"
     inkscape:window-x="1920"
     inkscape:window-y="0"
     inkscape:window-maximized="1"
     inkscape:current-layer="svg6"
     inkscape:document-rotation="0"
     inkscape:snap-bbox="true"
     inkscape:bbox-nodes="true"
     inkscape:snap-nodes="true"
     inkscape:snap-center="true">
    <inkscape:grid
       type="xygrid"
       id="grid822" />
  </sodipodi:namedview>
  <g
     id="g2065"
     inkscape:transform-center-y="1.4910697"
     transform="rotate(-45,21.505365,19.790671)"
     inkscape:transform-center-x="-1.4910697">
    <g
       id="g2073">
      <circle
         style="color:#000000;display:inline;overflow:visible;visibility:visible;fill:#ffffff;fill-opacity:0.97;fill-rule:nonzero;stroke:#6d6d6d;stroke-width:1;stroke-linecap:butt;stroke-linejoin:miter;stroke-miterlimit:4;stroke-dasharray:none;stroke-dashoffset:0;stroke-opacity:1;marker:none;enable-background:accumulate"
         id="circle1248"
         cx="29.698484"
         cy="1.7763568e-15"
         transform="rotate(45)"
         r="5.5031424" />
      <path
         style="color:#000000;display:inline;overflow:visible;visibility:visible;fill:none;fill-opacity:0;fill-rule:nonzero;stroke:#6d6d6d;stroke-width:1.93883;stroke-linecap:round;stroke-linejoin:miter;stroke-miterlimit:4;stroke-dasharray:none;stroke-dashoffset:0;stroke-opacity:1;marker:none;enable-background:accumulate"
         d="m 21,33 1.1e-4,-5.261506"
         id="path1244"
         inkscape:connector-curvature="0"
         sodipodi:nodetypes="cc" />
    </g>
  </g>
</svg>
