<?xml version="1.0" encoding="UTF-8" standalone="no"?>
<svg
   viewBox="0 0 32 32"
   version="1.1"
   id="svg8"
   sodipodi:docname="jumpupthislevel.svg"
   inkscape:version="1.4.2 (ebf0e940d0, 2025-05-08)"
   inkscape:export-filename="/home/jupiter007/Libreoffice yaru theme fullcolor/build/cmd/32/removebullets.png"
   inkscape:export-xdpi="96"
   inkscape:export-ydpi="96"
   xmlns:inkscape="http://www.inkscape.org/namespaces/inkscape"
   xmlns:sodipodi="http://sodipodi.sourceforge.net/DTD/sodipodi-0.dtd"
   xmlns="http://www.w3.org/2000/svg"
   xmlns:svg="http://www.w3.org/2000/svg"
   xmlns:rdf="http://www.w3.org/1999/02/22-rdf-syntax-ns#"
   xmlns:cc="http://creativecommons.org/ns#"
   xmlns:dc="http://purl.org/dc/elements/1.1/">
  <metadata
     id="metadata14">
    <rdf:RDF>
      <cc:Work
         rdf:about="">
        <dc:format>image/svg+xml</dc:format>
        <dc:type
           rdf:resource="http://purl.org/dc/dcmitype/StillImage" />
      </cc:Work>
    </rdf:RDF>
  </metadata>
  <defs
     id="defs12" />
  <sodipodi:namedview
     pagecolor="#ffffff"
     bordercolor="#666666"
     borderopacity="1"
     objecttolerance="10"
     gridtolerance="10"
     guidetolerance="10"
     inkscape:pageopacity="0"
     inkscape:pageshadow="2"
     inkscape:window-width="1920"
     inkscape:window-height="1011"
     id="namedview10"
     showgrid="false"
     inkscape:zoom="20.85965"
     inkscape:cx="12.775862"
     inkscape:cy="16.754835"
     inkscape:window-x="0"
     inkscape:window-y="0"
     inkscape:window-maximized="1"
     inkscape:current-layer="svg8"
     inkscape:document-rotation="0"
     inkscape:pagecheckerboard="0"
     inkscape:showpageshadow="2"
     inkscape:deskcolor="#808080">
    <inkscape:grid
       type="xygrid"
       id="grid821"
       originx="0"
       originy="0"
       spacingy="1"
       spacingx="1"
       units="px" />
    <inkscape:grid
       type="xygrid"
       id="grid925"
       dotted="true"
       spacingx="0.5"
       spacingy="0.5"
       empspacing="10"
       originx="0"
       originy="0"
       units="px" />
  </sodipodi:namedview>
  <path
     id="rect843-2"
     style="fill:#00ff00;fill-rule:evenodd;stroke-width:3;stroke-linecap:round;stroke-linejoin:round"
     d="M 7 -5 L 7 -7 L 6.9804688 -7 L 6.9609375 -7.0019531 C 6.0116613 -7.0777911 5.2688587 -7.1897697 4.7226562 -7.6835938 C 4.1764538 -8.1774167 4 -8.945401 4 -10 L 4 -22 C 4 -23.041667 4.1143495 -23.821381 4.6464844 -24.353516 C 5.1786192 -24.88565 5.9583333 -25 7 -25 L 9 -25 L 9 -24 L 7 -24 C 6.0416667 -24 5.5713808 -23.864349 5.3535156 -23.646484 C 5.1356505 -23.428619 5 -22.958333 5 -22 L 5 -10 C 5 -9.054599 5.1499836 -8.6451122 5.3925781 -8.4257812 C 5.6311766 -8.2100638 6.1316175 -8.0744189 7 -8.0019531 L 7 -10 L 10 -7.5 L 7 -5 z M 11 -5 L 11 -6 L 27 -6 L 27 -5 L 11 -5 z M 11 -7 L 11 -8 L 23 -8 L 23 -7 L 11 -7 z M 11 -9 L 11 -10 L 25 -10 L 25 -9 L 11 -9 z M 11 -22 L 11 -23 L 27 -23 L 27 -22 L 11 -22 z M 11 -24 L 11 -25 L 23 -25 L 23 -24 L 11 -24 z M 11 -26 L 11 -27 L 25 -27 L 25 -26 L 11 -26 z "
     transform="scale(1,-1)" />
  <path
     id="rect862"
     style="fill:#0000ff;fill-rule:evenodd;stroke-width:3;stroke-linecap:round;stroke-linejoin:round"
     d="M 11 -13 L 11 -14 L 27 -14 L 27 -13 L 11 -13 z M 11 -15 L 11 -16 L 23 -16 L 23 -15 L 11 -15 z M 11 -17 L 11 -18 L 25 -18 L 25 -17 L 11 -17 z "
     transform="scale(1,-1)" />
</svg>
