<?xml version="1.0" encoding="UTF-8" standalone="no"?>
<svg
   viewBox="0 0 32 32"
   version="1.1"
   id="svg24"
   sodipodi:docname="move.svg"
   inkscape:version="1.1.2 (b8e25be833, 2022-02-05)"
   xmlns:inkscape="http://www.inkscape.org/namespaces/inkscape"
   xmlns:sodipodi="http://sodipodi.sourceforge.net/DTD/sodipodi-0.dtd"
   xmlns="http://www.w3.org/2000/svg"
   xmlns:svg="http://www.w3.org/2000/svg">
  <defs
     id="defs28" />
  <sodipodi:namedview
     id="namedview26"
     pagecolor="#ffffff"
     bordercolor="#666666"
     borderopacity="1.0"
     inkscape:pageshadow="2"
     inkscape:pageopacity="0.0"
     inkscape:pagecheckerboard="0"
     showgrid="false"
     inkscape:zoom="22.627417"
     inkscape:cx="8.9493202"
     inkscape:cy="20.594485"
     inkscape:window-width="1920"
     inkscape:window-height="1043"
     inkscape:window-x="1920"
     inkscape:window-y="0"
     inkscape:window-maximized="1"
     inkscape:current-layer="svg24">
    <inkscape:grid
       type="xygrid"
       id="grid845" />
    <inkscape:grid
       type="xygrid"
       id="grid847"
       dotted="true"
       spacingx="0.5"
       spacingy="0.5"
       empspacing="10" />
  </sodipodi:namedview>
  <path
     id="path3618"
     style="fill:#cccccc;stroke:none;stroke-width:1px;stroke-linecap:butt;stroke-linejoin:miter;fill-opacity:1"
     d="m 7.5,3.5 c -2,0 -3,0 -3,2 v 14 2.5 c 0,1 0.5,1.5 2.5,1.5 h 3.5 l 2,-4 h 1.5 v -11.5 h 3.5 v -1.5 c 0,-3 -1,-3 -3,-3 z" />
  <path
     id="path3620"
     style="color:#000000;fill:#808080;-inkscape-stroke:none"
     d="m 6.7871094,3 c -0.676945,0.00559 -1.2506017,0.048153 -1.7597656,0.3027344 -0.3394431,0.1697212 -0.6300051,0.4624336 -0.796875,0.8378906 -0.16687,0.375457 -0.2304688,0.8177089 -0.2304688,1.359375 v 14.5 2 c 0,0.583333 0.1983143,1.191454 0.7226562,1.541016 0.524342,0.349561 1.2356778,0.458984 2.2773438,0.458984 h 3.808594 l 2,-4 h 1.191406 v -1 -3 -1 -3 -1 -3 h 3 1 v -1.5 c 0,-0.777777 -0.06249,-1.382534 -0.208984,-1.8769531 -0.146495,-0.4944192 -0.394235,-0.8889378 -0.740235,-1.1484375 -0.691999,-0.5189995 -1.550782,-0.4746094 -2.550781,-0.4746094 h -7 c -0.25,0 -0.4872416,-0.00186 -0.7128906,0 z m 0.7128906,1 h 0.5 v 3 h -3 v -1.5 c 0,-0.458333 0.0614,-0.7660826 0.1445312,-0.953125 0.08313,-0.1870424 0.167568,-0.2693308 0.328125,-0.3496094 0.321114,-0.1605571 1.0273448,-0.1972656 2.0273438,-0.1972656 z m 1.5,0 h 4 v 3 h -4 z m 5,0 h 0.5 c 0.999999,0 1.641219,0.044391 1.949219,0.2753906 0.154,0.1154999 0.28126,0.2834825 0.384765,0.6328125 0.103506,0.3493299 0.166016,0.8695749 0.166016,1.5917969 v 0.5 h -3 z m -9,4 h 3 v 3 h -3 z m 4,0 h 4 v 3 h -4 z m -4,4 h 3 v 3 h -3 z m 4,0 h 4 v 3 h -4 z m -4,4 h 3 v 3 h -3 z m 4,0 h 4 v 3 h -4 z m -4,4 h 6.691406 l -1.5,3 h -3.191406 c -0.958332,0 -1.4969993,-0.140577 -1.7226562,-0.291016 -0.2256581,-0.150438 -0.2773438,-0.292318 -0.2773438,-0.708984 z" />
  <path
     id="path2730"
     style="fill:#ffffff;stroke:none;stroke-width:1px;stroke-linecap:butt;stroke-linejoin:miter"
     d="m 18.5,9.5009472 c -2,0 -3,0 -3,1.9999998 v 14 2.5 c 0,1 0.5,1.5 2.5,1.5 h 3.5 l 2,-4 h 2 c 2,0 3,0 3,-2 v -11 c 0,-2.9999998 -1,-2.9999998 -3,-2.9999998 z"
     sodipodi:nodetypes="sscssccsssss" />
  <path
     id="path995"
     style="color:#000000;fill:#808080;-inkscape-stroke:none"
     d="m 17.787109,9.0009472 c -0.676945,0.00559 -1.250601,0.048153 -1.759765,0.3027344 -0.339443,0.1697212 -0.630005,0.4624336 -0.796875,0.8378904 -0.16687,0.375457 -0.230469,0.817709 -0.230469,1.359375 v 14.5 2 c 0,0.583333 0.198314,1.191454 0.722656,1.541016 0.524342,0.349561 1.235678,0.458984 2.277344,0.458984 h 3.808594 l 2,-4 h 1.691406 c 0.999999,0 1.793771,0.03671 2.472656,-0.302734 0.339443,-0.169722 0.630005,-0.462434 0.796875,-0.837891 0.16687,-0.375457 0.230469,-0.817709 0.230469,-1.359375 v -11 c 0,-0.777777 -0.06249,-1.382534 -0.208984,-1.876953 -0.146495,-0.494419 -0.394235,-0.8889377 -0.740235,-1.1484374 -0.691999,-0.5189995 -1.550782,-0.4746094 -2.550781,-0.4746094 h -7 c -0.25,0 -0.487242,-0.00186 -0.712891,0 z m 0.712891,0.9999998 h 0.5 v 3 h -3 v -1.5 c 0,-0.458333 0.0614,-0.766082 0.144531,-0.953125 0.08313,-0.187042 0.167568,-0.269331 0.328125,-0.349609 0.321114,-0.160557 1.027345,-0.197266 2.027344,-0.197266 z m 1.5,0 h 4 v 3 h -4 z m 5,0 h 0.5 c 0.999999,0 1.641219,0.04439 1.949219,0.275391 0.154,0.1155 0.28126,0.283482 0.384765,0.632812 0.103506,0.34933 0.166016,0.869575 0.166016,1.591797 v 0.5 h -3 z m -9,4 h 3 v 3 h -3 z m 4,0 h 4 v 3 h -4 z m 5,0 h 3 v 3 h -3 z m -9,4 h 3 v 3 h -3 z m 4,0 h 4 v 3 h -4 z m 5,0 h 3 v 3 h -3 z m -9,4 h 3 v 3 h -3 z m 4,0 h 4 v 3 h -4 z m 5,0 h 3 v 1.5 c 0,0.458333 -0.0614,0.766083 -0.144531,0.953125 -0.08313,0.187042 -0.167568,0.269331 -0.328125,0.349609 -0.321114,0.160557 -1.027345,0.197266 -2.027344,0.197266 h -0.5 z m -9,4 h 6.691406 l -1.5,3 h -3.191406 c -0.958332,0 -1.496999,-0.140577 -1.722656,-0.291016 -0.225658,-0.150438 -0.277344,-0.292318 -0.277344,-0.708984 z" />
</svg>
