<?xml version="1.0" encoding="UTF-8" standalone="no"?>
<svg
   height="32"
   viewBox="0 0 32 32"
   width="32"
   version="1.1"
   id="svg4"
   sodipodi:docname="opentemplate.svg"
   inkscape:export-filename="/home/jupiter007/Libreoffice yaru theme fullcolor/build/cmd/32/opentemplate.png"
   inkscape:export-xdpi="96"
   inkscape:export-ydpi="96"
   inkscape:version="1.1.2 (76b9e6a115, 2022-02-25)"
   xmlns:inkscape="http://www.inkscape.org/namespaces/inkscape"
   xmlns:sodipodi="http://sodipodi.sourceforge.net/DTD/sodipodi-0.dtd"
   xmlns="http://www.w3.org/2000/svg"
   xmlns:svg="http://www.w3.org/2000/svg"
   xmlns:rdf="http://www.w3.org/1999/02/22-rdf-syntax-ns#"
   xmlns:cc="http://creativecommons.org/ns#"
   xmlns:dc="http://purl.org/dc/elements/1.1/">
  <metadata
     id="metadata10">
    <rdf:RDF>
      <cc:Work
         rdf:about="">
        <dc:format>image/svg+xml</dc:format>
        <dc:type
           rdf:resource="http://purl.org/dc/dcmitype/StillImage" />
      </cc:Work>
    </rdf:RDF>
  </metadata>
  <defs
     id="defs8" />
  <sodipodi:namedview
     pagecolor="#ffffff"
     bordercolor="#666666"
     borderopacity="1"
     objecttolerance="10"
     gridtolerance="10"
     guidetolerance="10"
     inkscape:pageopacity="0"
     inkscape:pageshadow="2"
     inkscape:window-width="1920"
     inkscape:window-height="1016"
     id="namedview6"
     showgrid="true"
     inkscape:zoom="20.85965"
     inkscape:cx="10.522708"
     inkscape:cy="16.419259"
     inkscape:window-x="0"
     inkscape:window-y="27"
     inkscape:window-maximized="1"
     inkscape:current-layer="svg4"
     inkscape:pagecheckerboard="0">
    <inkscape:grid
       type="xygrid"
       id="grid825" />
  </sodipodi:namedview>
  <path
     sodipodi:nodetypes="ccccccccc"
     style="opacity:0.7;fill:#000000;stroke:#000000;stroke-width:2;stroke-miterlimit:4;stroke-dasharray:none"
     id="path815"
     d="m 10,28 c -2,0 -4,-1 -4,-3 v -18 c 0,-2 2,-3 4,-3 h 9 l 7,7 v 14 c 0,2 -2,3 -4,3 z"
     inkscape:connector-curvature="0" />
  <path
     inkscape:connector-curvature="0"
     d="m 10,28 c -2,0 -4,-1 -4,-3 v -18 c 0,-2 2,-3 4,-3 h 9 l 7,7 v 14 c 0,2 -2,3 -4,3 z"
     id="path2"
     style="fill:#ffffff"
     sodipodi:nodetypes="ccccccccc" />
  <path
     inkscape:connector-curvature="0"
     d="m 19,11 v -7 l 7,7 z"
     id="path4"
     style="fill:#6d6d6d;fill-opacity:1" />
  <rect
     style="fill:#6d6d6d;fill-rule:evenodd;stroke-width:1.6;stroke-linecap:square;stroke-linejoin:round"
     id="rect34"
     width="1"
     height="1"
     x="7"
     y="9" />
  <rect
     style="fill:#6d6d6d;fill-rule:evenodd;stroke-width:1.6;stroke-linecap:square;stroke-linejoin:round"
     id="rect36"
     width="3"
     height="1"
     x="3"
     y="9" />
  <rect
     style="fill:#6d6d6d;fill-rule:evenodd;stroke-width:1.6;stroke-linecap:square;stroke-linejoin:round"
     id="rect344"
     width="1"
     height="1"
     x="7"
     y="11" />
  <rect
     style="fill:#6d6d6d;fill-rule:evenodd;stroke-width:1.6;stroke-linecap:square;stroke-linejoin:round"
     id="rect346"
     width="3"
     height="1"
     x="3"
     y="11" />
  <rect
     style="fill:#6d6d6d;fill-rule:evenodd;stroke-width:1.6;stroke-linecap:square;stroke-linejoin:round"
     id="rect348"
     width="1"
     height="1"
     x="7"
     y="13" />
  <rect
     style="fill:#6d6d6d;fill-rule:evenodd;stroke-width:1.6;stroke-linecap:square;stroke-linejoin:round"
     id="rect350"
     width="3"
     height="1"
     x="3"
     y="13" />
  <rect
     style="fill:#6d6d6d;fill-rule:evenodd;stroke-width:1.6;stroke-linecap:square;stroke-linejoin:round"
     id="rect352"
     width="1"
     height="1"
     x="7"
     y="15" />
  <rect
     style="fill:#6d6d6d;fill-rule:evenodd;stroke-width:1.6;stroke-linecap:square;stroke-linejoin:round"
     id="rect354"
     width="3"
     height="1"
     x="3"
     y="15" />
  <rect
     style="fill:#6d6d6d;fill-rule:evenodd;stroke-width:1.6;stroke-linecap:square;stroke-linejoin:round"
     id="rect356"
     width="1"
     height="1"
     x="7"
     y="17" />
  <rect
     style="fill:#6d6d6d;fill-rule:evenodd;stroke-width:1.6;stroke-linecap:square;stroke-linejoin:round"
     id="rect358"
     width="3"
     height="1"
     x="3"
     y="17" />
  <rect
     style="fill:#6d6d6d;fill-rule:evenodd;stroke-width:1.6;stroke-linecap:square;stroke-linejoin:round"
     id="rect360"
     width="1"
     height="1"
     x="7"
     y="19" />
  <rect
     style="fill:#6d6d6d;fill-rule:evenodd;stroke-width:1.6;stroke-linecap:square;stroke-linejoin:round"
     id="rect362"
     width="3"
     height="1"
     x="3"
     y="19" />
  <rect
     style="fill:#6d6d6d;fill-rule:evenodd;stroke-width:1.6;stroke-linecap:square;stroke-linejoin:round"
     id="rect364"
     width="1"
     height="1"
     x="7"
     y="21" />
  <rect
     style="fill:#6d6d6d;fill-rule:evenodd;stroke-width:1.6;stroke-linecap:square;stroke-linejoin:round"
     id="rect366"
     width="3"
     height="1"
     x="3"
     y="21" />
  <rect
     style="fill:#6d6d6d;fill-rule:evenodd;stroke-width:1.6;stroke-linecap:square;stroke-linejoin:round"
     id="rect368"
     width="1"
     height="1"
     x="7"
     y="23" />
  <rect
     style="fill:#6d6d6d;fill-rule:evenodd;stroke-width:1.6;stroke-linecap:square;stroke-linejoin:round"
     id="rect370"
     width="3"
     height="1"
     x="3"
     y="23" />
  <g
     id="g24"
     transform="translate(11,12.004759)">
    <path
       sodipodi:nodetypes="ccccccccccc"
       inkscape:connector-curvature="0"
       id="path847"
       d="m 7,5 h 2 l 3,2 h 5 c 2,0 3,0 3,2 v 8 c 0,2 -1,2 -3,2 h -10 c -2,0 -3,0 -3,-2 v -10 c 0,-2 1,-2 3,-2 z"
       style="opacity:0.7;fill:#000000;fill-opacity:1;stroke:#000000;stroke-width:2;stroke-linecap:butt;stroke-linejoin:round;stroke-miterlimit:4;stroke-dasharray:none;stroke-opacity:1" />
    <path
       style="fill:#b3b3b3;fill-opacity:1;stroke:none;stroke-width:1px;stroke-linecap:butt;stroke-linejoin:miter;stroke-opacity:1"
       d="m 7,5 h 2 l 3,2 h 5 c 2,0 3,0 3,2 v 8 c 0,2 -1,2 -3,2 h -10 c -2,0 -3,0 -3,-2 v -10 c 0,-2 1,-2 3,-2 z"
       id="path824"
       inkscape:connector-curvature="0"
       sodipodi:nodetypes="ccccccccccc" />
  </g>
</svg>
