<?xml version="1.0" encoding="UTF-8" standalone="no"?>
<svg
   xmlns:dc="http://purl.org/dc/elements/1.1/"
   xmlns:cc="http://creativecommons.org/ns#"
   xmlns:rdf="http://www.w3.org/1999/02/22-rdf-syntax-ns#"
   xmlns:svg="http://www.w3.org/2000/svg"
   xmlns="http://www.w3.org/2000/svg"
   xmlns:xlink="http://www.w3.org/1999/xlink"
   xmlns:sodipodi="http://sodipodi.sourceforge.net/DTD/sodipodi-0.dtd"
   xmlns:inkscape="http://www.inkscape.org/namespaces/inkscape"
   viewBox="0 0 32 32"
   version="1.1"
   id="svg4"
   sodipodi:docname="overline.svg"
   inkscape:version="1.0.1 (3bc2e813f5, 2020-09-07)"
   inkscape:export-filename="/home/jupiter007/Libreoffice yaru theme fullcolor/build/cmd/32/overline.png"
   inkscape:export-xdpi="96"
   inkscape:export-ydpi="96">
  <metadata
     id="metadata10">
    <rdf:RDF>
      <cc:Work
         rdf:about="">
        <dc:format>image/svg+xml</dc:format>
        <dc:type
           rdf:resource="http://purl.org/dc/dcmitype/StillImage" />
        <dc:title></dc:title>
      </cc:Work>
    </rdf:RDF>
  </metadata>
  <defs
     id="defs8">
    <linearGradient
       inkscape:collect="always"
       id="linearGradient840">
      <stop
         style="stop-color:#151515;stop-opacity:1"
         offset="0"
         id="stop836" />
      <stop
         style="stop-color:#4d4d4d;stop-opacity:1"
         offset="1"
         id="stop838" />
    </linearGradient>
    <linearGradient
       inkscape:collect="always"
       xlink:href="#linearGradient840"
       id="linearGradient842"
       x1="16"
       y1="4"
       x2="16"
       y2="28"
       gradientUnits="userSpaceOnUse" />
  </defs>
  <sodipodi:namedview
     pagecolor="#ffffff"
     bordercolor="#666666"
     borderopacity="1"
     objecttolerance="10"
     gridtolerance="10"
     guidetolerance="10"
     inkscape:pageopacity="0"
     inkscape:pageshadow="2"
     inkscape:window-width="1920"
     inkscape:window-height="1043"
     id="namedview6"
     showgrid="true"
     inkscape:zoom="14.75"
     inkscape:cx="3.5911195"
     inkscape:cy="14.917779"
     inkscape:window-x="1920"
     inkscape:window-y="0"
     inkscape:window-maximized="1"
     inkscape:current-layer="svg4"
     inkscape:document-rotation="0">
    <inkscape:grid
       type="xygrid"
       id="grid829" />
  </sodipodi:namedview>
  <rect
     style="opacity:1;fill:#000000;fill-opacity:1;stroke:#ffffff;stroke-width:2;stroke-linejoin:round;stroke-miterlimit:4;stroke-dasharray:none;stroke-opacity:1"
     id="rect844"
     width="18"
     height="1"
     x="-25"
     y="-5"
     transform="scale(-1)" />
  <path
     inkscape:connector-curvature="0"
     id="path863"
     d="m 15.999998,7.000001 c 3.878,0 7,2.676 7,6 V 22 c 0,3.324 -3.122,6 -7,6 -3.878,0 -7,-2.676 -7,-6 v -8.999999 c 0,-3.324 3.122,-6 7,-6 z m 2e-6,2 c -2.216,0 -4,1.784 -4,4 V 22 c 0,2.216 1.784,4 4,4 2.216,0 4,-1.784 4,-4 v -8.999999 c 0,-2.216 -1.784,-4 -4,-4 z"
     style="opacity:1;fill:#000000;fill-opacity:1;stroke:#ffffff;stroke-width:2;stroke-linejoin:round;stroke-miterlimit:4;stroke-dasharray:none;stroke-opacity:1"
     sodipodi:nodetypes="ssssssssssssss" />
  <path
     id="rect833"
     style="opacity:1;fill:url(#linearGradient842);fill-opacity:1;stroke:none;stroke-width:2.0755;stroke-linejoin:round;stroke-miterlimit:4;stroke-dasharray:none;stroke-opacity:1"
     d="M 7 4 L 7 5 L 25 5 L 25 4 L 7 4 z M 16 7 C 12.122 7 9 9.676 9 13 L 9 22 C 9 25.324 12.122 28 16 28 C 19.878 28 23 25.324 23 22 L 23 13 C 23 9.676 19.878 7 16 7 z M 16 9 C 18.216 9 20 10.784 20 13 L 20 22 C 20 24.216 18.216 26 16 26 C 13.784 26 12 24.216 12 22 L 12 13 C 12 10.784 13.784 9 16 9 z " />
</svg>
