<?xml version="1.0" encoding="UTF-8" standalone="no"?>
<svg
   xmlns:dc="http://purl.org/dc/elements/1.1/"
   xmlns:cc="http://creativecommons.org/ns#"
   xmlns:rdf="http://www.w3.org/1999/02/22-rdf-syntax-ns#"
   xmlns:svg="http://www.w3.org/2000/svg"
   xmlns="http://www.w3.org/2000/svg"
   xmlns:xlink="http://www.w3.org/1999/xlink"
   xmlns:sodipodi="http://sodipodi.sourceforge.net/DTD/sodipodi-0.dtd"
   xmlns:inkscape="http://www.inkscape.org/namespaces/inkscape"
   viewBox="0 0 32 32"
   version="1.1"
   id="svg4"
   sodipodi:docname="pasteaslink.svg"
   inkscape:version="1.0.2 (e86c870879, 2021-01-15)"
   inkscape:export-filename="/home/jupiter007/Libreoffice yaru theme fullcolor/build/cmd/32/paste.png"
   inkscape:export-xdpi="95"
   inkscape:export-ydpi="95">
  <metadata
     id="metadata10">
    <rdf:RDF>
      <cc:Work
         rdf:about="">
        <dc:format>image/svg+xml</dc:format>
        <dc:type
           rdf:resource="http://purl.org/dc/dcmitype/StillImage" />
        <dc:title></dc:title>
      </cc:Work>
    </rdf:RDF>
  </metadata>
  <defs
     id="defs8">
    <linearGradient
       inkscape:collect="always"
       xlink:href="#linearGradient861"
       id="linearGradient855"
       x1="15"
       y1="4"
       x2="15"
       y2="20"
       gradientUnits="userSpaceOnUse"
       gradientTransform="matrix(-1,0,0,1,21.236358,10.236358)" />
    <linearGradient
       inkscape:collect="always"
       id="linearGradient861">
      <stop
         style="stop-color:#151515;stop-opacity:1"
         offset="0"
         id="stop857" />
      <stop
         style="stop-color:#4d4d4d;stop-opacity:1"
         offset="1"
         id="stop859" />
    </linearGradient>
    <linearGradient
       inkscape:collect="always"
       xlink:href="#linearGradient861"
       id="linearGradient853"
       x1="15"
       y1="3"
       x2="15"
       y2="21"
       gradientUnits="userSpaceOnUse"
       gradientTransform="matrix(-1,0,0,1,21.236358,10.236358)" />
  </defs>
  <sodipodi:namedview
     pagecolor="#ffffff"
     bordercolor="#666666"
     borderopacity="1"
     objecttolerance="10"
     gridtolerance="10"
     guidetolerance="10"
     inkscape:pageopacity="0"
     inkscape:pageshadow="2"
     inkscape:window-width="1920"
     inkscape:window-height="1016"
     id="namedview6"
     showgrid="true"
     inkscape:snap-global="true"
     inkscape:zoom="20.85965"
     inkscape:cx="16.690035"
     inkscape:cy="15.960444"
     inkscape:window-x="0"
     inkscape:window-y="27"
     inkscape:window-maximized="1"
     inkscape:current-layer="svg4"
     inkscape:document-rotation="0">
    <inkscape:grid
       type="xygrid"
       id="grid843" />
  </sodipodi:namedview>
  <path
     inkscape:connector-curvature="0"
     style="opacity:0.7;vector-effect:none;fill:#000000;fill-opacity:1;stroke:none;stroke-width:2;stroke-linecap:round;stroke-linejoin:round;stroke-miterlimit:4;stroke-dasharray:none;stroke-dashoffset:0;stroke-opacity:1"
     d="m 14,2.9999994 c -0.603883,0 -1,0.3984775 -1,0.9999996 h -4 c -1.108,0 -2,0.892 -2,2 v 13 c 0,1.108 0.892,2 2,2 h 4 v -10 c 0,-1.108 0.892,-2 2,-2 h 8 v -3 c 0,-1.108 -0.892,-2 -2,-2 h -4 c 0,-0.5980317 -0.400788,-0.999999 -1,-0.9999996 z"
     id="rect9566"
     sodipodi:nodetypes="scsssscsscssccs" />
  <rect
     style="opacity:1;vector-effect:none;fill:#cccccc;fill-opacity:1;stroke:none;stroke-width:2;stroke-linecap:round;stroke-linejoin:round;stroke-miterlimit:4;stroke-dasharray:none;stroke-dashoffset:0;stroke-opacity:1"
     id="rect873-1"
     width="14"
     height="15"
     x="8"
     y="5"
     ry="1"
     rx="1" />
  <rect
     style="opacity:1;vector-effect:none;fill:#ffffff;fill-opacity:1;stroke:none;stroke-width:2;stroke-linecap:round;stroke-linejoin:round;stroke-miterlimit:4;stroke-dasharray:none;stroke-dashoffset:0;stroke-opacity:1"
     id="rect9576"
     width="4"
     height="1"
     x="13"
     y="5" />
  <rect
     style="opacity:1;vector-effect:none;fill:#ffffff;fill-opacity:1;stroke:none;stroke-width:2;stroke-linecap:round;stroke-linejoin:round;stroke-miterlimit:4;stroke-dasharray:none;stroke-dashoffset:0;stroke-opacity:1"
     id="rect9578"
     width="2"
     height="1"
     x="14"
     y="4" />
  <rect
     style="opacity:0.7;vector-effect:none;fill:#000000;fill-opacity:1;stroke:none;stroke-width:2;stroke-linecap:round;stroke-linejoin:round;stroke-miterlimit:4;stroke-dasharray:none;stroke-dashoffset:0;stroke-opacity:1"
     id="rect899"
     width="17"
     height="19"
     x="12"
     y="8"
     ry="2"
     rx="2" />
  <rect
     style="opacity:1;vector-effect:none;fill:#ffffff;fill-opacity:1;stroke:none;stroke-width:2;stroke-linecap:round;stroke-linejoin:round;stroke-miterlimit:4;stroke-dasharray:none;stroke-dashoffset:0;stroke-opacity:1"
     id="rect873"
     width="15"
     height="17"
     x="13"
     y="9"
     ry="1"
     rx="1" />
  <rect
     style="opacity:1;vector-effect:none;fill:#a7a7f1;fill-opacity:1;stroke:none;stroke-width:2.50713;stroke-linecap:round;stroke-linejoin:round;stroke-miterlimit:4;stroke-dasharray:none;stroke-dashoffset:0;stroke-opacity:1"
     id="rect912"
     width="11"
     height="1"
     x="15"
     y="12" />
  <rect
     style="opacity:1;vector-effect:none;fill:#a7a7f1;fill-opacity:1;stroke:none;stroke-width:2.50713;stroke-linecap:round;stroke-linejoin:round;stroke-miterlimit:4;stroke-dasharray:none;stroke-dashoffset:0;stroke-opacity:1"
     id="rect914"
     width="11"
     height="1"
     x="15"
     y="15" />
  <rect
     style="opacity:1;vector-effect:none;fill:#a7a7f1;fill-opacity:1;stroke:none;stroke-width:2.23607;stroke-linecap:round;stroke-linejoin:round;stroke-miterlimit:4;stroke-dasharray:none;stroke-dashoffset:0;stroke-opacity:1"
     id="rect916"
     width="5"
     height="1"
     x="15"
     y="18" />
  <path
     inkscape:connector-curvature="0"
     id="path834"
     d="m 16.307426,23.650572 c 1.562097,1.562097 1.562097,4.094757 0,5.656854 -1.562097,1.562097 -4.094757,1.562097 -5.656854,0 l -3.5355342,-3.535534 c -1.562098,-1.562097 -1.562098,-4.094757 0,-5.656854 0.514426,-0.514427 1.135629,-0.861576 1.791246,-1.037183 l 0.872835,0.872835 c -0.713412,0.038 -1.412031,0.326511 -1.956975,0.871454 -1.171572,1.171573 -1.171572,3.071068 0,4.242641 l 3.5355342,3.535534 c 1.171573,1.171573 3.071068,1.171573 4.242641,0 1.171573,-1.171573 1.171573,-3.071068 0,-4.242641 l -2.12132,-2.12132 v -1.414214 z m -4.949748,-4.949748 c 1.562098,1.562097 1.562098,4.094757 0,5.656854 -0.516875,0.516876 -1.136308,0.858217 -1.7953872,1.033039 l -0.867311,-0.867311 c 0.712449,-0.03861 1.4113642,-0.328606 1.9555922,-0.872834 1.171572,-1.171573 1.171572,-3.071068 0,-4.242641 l -3.5355342,-3.535534 c -1.171573,-1.171573 -3.071068,-1.171573 -4.242641,0 -1.171573,1.171573 -1.171573,3.071068 0,4.242641 l 2.12132,2.12132 v 1.414214 l -2.828427,-2.828428 c -1.56209704,-1.562097 -1.56209704,-4.094757 0,-5.656854 1.562097,-1.562097 4.094757,-1.562097 5.656854,0 z"
     style="fill:#ffffff;fill-opacity:1;fill-rule:nonzero;stroke:#ffffff;stroke-width:2;stroke-linecap:round;stroke-linejoin:round;stroke-miterlimit:4;stroke-dasharray:none;stroke-opacity:1" />
  <path
     sodipodi:nodetypes="csssssccssssscc"
     style="fill:url(#linearGradient853);fill-opacity:1;fill-rule:nonzero;stroke:none;stroke-width:2;stroke-linecap:round;stroke-linejoin:round;stroke-miterlimit:4;stroke-dasharray:none;stroke-opacity:1"
     d="m 4.9937168,23.650572 -2.828427,-2.828428 c -1.56209704,-1.562097 -1.56209704,-4.094757 0,-5.656854 1.562097,-1.562097 4.094757,-1.562097 5.656854,0 l 3.5355342,3.535534 c 1.562098,1.562097 1.562098,4.094757 0,5.656854 -0.516875,0.516876 -1.135906,0.858619 -1.7949852,1.033441 l -0.868196,-0.868195 c 0.712449,-0.03861 1.4118472,-0.328124 1.9560752,-0.872352 1.171572,-1.171573 1.171572,-3.071068 0,-4.242641 l -3.5355342,-3.535534 c -1.171573,-1.171573 -3.071068,-1.171573 -4.242641,0 -1.171573,1.171573 -1.171573,3.071068 0,4.242641 l 2.12132,2.12132 z"
     id="path832"
     inkscape:connector-curvature="0" />
  <path
     sodipodi:nodetypes="csssssccssssscc"
     inkscape:connector-curvature="0"
     id="circle829"
     d="m 9.7795478,19.95112 c -0.713412,0.038 -1.41246,0.326081 -1.957404,0.871024 -1.171572,1.171573 -1.171572,3.071068 0,4.242641 l 3.5355342,3.535534 c 1.171573,1.171573 3.071068,1.171573 4.242641,0 1.171573,-1.171573 1.171573,-3.071068 0,-4.242641 l -2.12132,-2.12132 v -1.414214 l 2.828427,2.828428 c 1.562097,1.562097 1.562097,4.094757 0,5.656854 -1.562097,1.562097 -4.094757,1.562097 -5.656854,0 l -3.5355342,-3.535534 c -1.562098,-1.562097 -1.562098,-4.094757 0,-5.656854 0.514426,-0.514427 1.135936,-0.861269 1.791553,-1.036876 z"
     style="fill:url(#linearGradient855);fill-opacity:1;fill-rule:nonzero;stroke:none;stroke-width:2;stroke-linecap:round;stroke-linejoin:round;stroke-miterlimit:4;stroke-dasharray:none;stroke-opacity:1" />
</svg>
