<?xml version="1.0" encoding="UTF-8" standalone="no"?>
<svg
   xmlns:dc="http://purl.org/dc/elements/1.1/"
   xmlns:cc="http://creativecommons.org/ns#"
   xmlns:rdf="http://www.w3.org/1999/02/22-rdf-syntax-ns#"
   xmlns:svg="http://www.w3.org/2000/svg"
   xmlns="http://www.w3.org/2000/svg"
   xmlns:sodipodi="http://sodipodi.sourceforge.net/DTD/sodipodi-0.dtd"
   xmlns:inkscape="http://www.inkscape.org/namespaces/inkscape"
   viewBox="0 0 32 32"
   version="1.1"
   id="svg4"
   sodipodi:docname="previousannotation.svg"
   inkscape:version="1.0.1 (3bc2e813f5, 2020-09-07)"
   inkscape:export-filename="/home/jupiter007/Libreoffice yaru theme fullcolor/build/cmd/32/previousannotation.png"
   inkscape:export-xdpi="96"
   inkscape:export-ydpi="96">
  <metadata
     id="metadata10">
    <rdf:RDF>
      <cc:Work
         rdf:about="">
        <dc:format>image/svg+xml</dc:format>
        <dc:type
           rdf:resource="http://purl.org/dc/dcmitype/StillImage" />
      </cc:Work>
    </rdf:RDF>
  </metadata>
  <defs
     id="defs8" />
  <sodipodi:namedview
     pagecolor="#ffffff"
     bordercolor="#666666"
     borderopacity="1"
     objecttolerance="10"
     gridtolerance="10"
     guidetolerance="10"
     inkscape:pageopacity="0"
     inkscape:pageshadow="2"
     inkscape:window-width="1920"
     inkscape:window-height="1016"
     id="namedview6"
     showgrid="true"
     inkscape:zoom="16.656924"
     inkscape:cx="3.267702"
     inkscape:cy="12.539132"
     inkscape:window-x="0"
     inkscape:window-y="27"
     inkscape:window-maximized="1"
     inkscape:current-layer="svg4"
     inkscape:document-rotation="0">
    <inkscape:grid
       type="xygrid"
       id="grid834" />
  </sodipodi:namedview>
  <path
     id="path845"
     style="color:#000000;font-style:normal;font-variant:normal;font-weight:normal;font-stretch:normal;font-size:medium;line-height:normal;font-family:sans-serif;font-variant-ligatures:normal;font-variant-position:normal;font-variant-caps:normal;font-variant-numeric:normal;font-variant-alternates:normal;font-variant-east-asian:normal;font-feature-settings:normal;font-variation-settings:normal;text-indent:0;text-align:start;text-decoration:none;text-decoration-line:none;text-decoration-style:solid;text-decoration-color:#000000;letter-spacing:normal;word-spacing:normal;text-transform:none;writing-mode:lr-tb;direction:ltr;text-orientation:mixed;dominant-baseline:auto;baseline-shift:baseline;text-anchor:start;white-space:normal;shape-padding:0;shape-margin:0;inline-size:0;clip-rule:nonzero;display:inline;overflow:visible;visibility:visible;isolation:auto;mix-blend-mode:normal;color-interpolation:sRGB;color-interpolation-filters:linearRGB;solid-color:#000000;solid-opacity:1;vector-effect:none;fill:#000000;fill-opacity:1;fill-rule:nonzero;stroke:none;stroke-width:2;stroke-linecap:butt;stroke-linejoin:round;stroke-miterlimit:4;stroke-dasharray:none;stroke-dashoffset:0;stroke-opacity:1;color-rendering:auto;image-rendering:auto;shape-rendering:auto;text-rendering:auto;enable-background:accumulate;stop-color:#000000;stop-opacity:1;opacity:0.7"
     d="M 7 3 C 6.0000002 3 5.1605052 2.9265832 4.3027344 3.3554688 C 3.873849 3.5699114 3.4821774 3.9678352 3.2734375 4.4375 C 3.0646976 4.9071648 3 5.4166666 3 6 L 3 19 C 3 19.583333 3.0646976 20.092835 3.2734375 20.5625 C 3.4821774 21.032165 3.873849 21.430089 4.3027344 21.644531 C 4.765479 21.875904 5.2464407 21.919895 5.7382812 21.929688 L 7 20.919922 L 7 22.414062 L 9.5859375 25 L 14 25 L 14 22 L 16 22 L 25 22 C 26 22 26.839495 22.073417 27.697266 21.644531 C 28.126151 21.430089 28.517823 21.032165 28.726562 20.5625 C 28.935302 20.092835 29 19.583333 29 19 L 29 16 L 29 6 C 29 5.4166666 28.935303 4.9071648 28.726562 4.4375 C 28.517823 3.9678352 28.126151 3.5699114 27.697266 3.3554688 C 26.839495 2.9265832 26 3 25 3 L 7 3 z M 7 5 L 25 5 C 26 5 26.660505 5.0734167 26.802734 5.1445312 C 26.873849 5.1800885 26.857177 5.1571647 26.898438 5.25 C 26.939698 5.3428353 27 5.5833333 27 6 L 27 16 L 27 19 C 27 19.416667 26.939697 19.657165 26.898438 19.75 C 26.857177 19.842835 26.873849 19.819911 26.802734 19.855469 C 26.660505 19.926583 26 20 25 20 L 16 20 L 13 20 A 1.0001 1.0001 0 0 0 12 21 L 12 24.585938 L 7.7070312 20.292969 A 1.0001 1.0001 0 0 0 7 20 C 6.0000003 20 5.3394947 19.926583 5.1972656 19.855469 C 5.1261511 19.819911 5.1428226 19.842835 5.1015625 19.75 C 5.0603024 19.657165 5 19.416667 5 19 L 5 6 C 5 5.5833333 5.0603024 5.3428353 5.1015625 5.25 C 5.1428226 5.1571647 5.1261511 5.1800885 5.1972656 5.1445312 C 5.3394947 5.0734167 6.0000003 5 7 5 z " />
  <path
     id="rect841"
     style="opacity:1;fill:#fa9381;fill-opacity:1;fill-rule:nonzero;stroke:none;stroke-width:0.00119524;stroke-linecap:butt;stroke-linejoin:round;stroke-miterlimit:4;stroke-dasharray:none;stroke-dashoffset:0;stroke-opacity:1"
     d="M 7 4 C 5.0000005 4 4 3.9999998 4 6 L 4 19 C 4 20.962801 4.9760504 20.997368 6.9023438 20.998047 L 7 20.919922 L 7 21 L 11 25 L 13 25 L 13 21 L 16 21 L 25 21 C 27 21 28 21 28 19 L 28 16 L 28 6 C 28 3.9999998 27 4 25 4 L 7 4 z " />
  <rect
     style="opacity:1;fill:#ffffff;fill-opacity:1;stroke:none;stroke-width:2;stroke-linecap:round;stroke-linejoin:round;stroke-miterlimit:4;stroke-dasharray:none;stroke-opacity:1"
     id="rect833"
     width="14"
     height="1"
     x="9"
     y="9.0001421"
     ry="0.5" />
  <rect
     ry="0.5"
     y="12.000142"
     x="9"
     height="1"
     width="14"
     id="rect835"
     style="opacity:1;fill:#ffffff;fill-opacity:1;stroke:none;stroke-width:2;stroke-linecap:round;stroke-linejoin:round;stroke-miterlimit:4;stroke-dasharray:none;stroke-opacity:1" />
  <rect
     style="opacity:1;fill:#ffffff;fill-opacity:1;stroke:none;stroke-width:2;stroke-linecap:round;stroke-linejoin:round;stroke-miterlimit:4;stroke-dasharray:none;stroke-opacity:1"
     id="rect837"
     width="14"
     height="1"
     x="9"
     y="15.000142"
     ry="0.5" />
  <path
     inkscape:connector-curvature="0"
     style="fill:#e95420;fill-opacity:1;stroke:none;stroke-width:1px;stroke-linecap:butt;stroke-linejoin:miter;stroke-opacity:1"
     d="M 1.000001,27 6,23 v 3 h 7.000001 v 2 H 6 v 3 z"
     id="path834"
     sodipodi:nodetypes="cccccccc"
     inkscape:transform-center-x="6.0821824" />
</svg>
