<?xml version="1.0" encoding="UTF-8" standalone="no"?>
<svg
   viewBox="0 0 32 32"
   version="1.1"
   id="svg8"
   sodipodi:docname="removebullets.svg"
   inkscape:version="1.4.2 (ebf0e940d0, 2025-05-08)"
   inkscape:export-filename="/home/jupiter007/Libreoffice yaru theme fullcolor/build/cmd/32/removebullets.png"
   inkscape:export-xdpi="96"
   inkscape:export-ydpi="96"
   xmlns:inkscape="http://www.inkscape.org/namespaces/inkscape"
   xmlns:sodipodi="http://sodipodi.sourceforge.net/DTD/sodipodi-0.dtd"
   xmlns="http://www.w3.org/2000/svg"
   xmlns:svg="http://www.w3.org/2000/svg"
   xmlns:rdf="http://www.w3.org/1999/02/22-rdf-syntax-ns#"
   xmlns:cc="http://creativecommons.org/ns#"
   xmlns:dc="http://purl.org/dc/elements/1.1/">
  <metadata
     id="metadata14">
    <rdf:RDF>
      <cc:Work
         rdf:about="">
        <dc:format>image/svg+xml</dc:format>
        <dc:type
           rdf:resource="http://purl.org/dc/dcmitype/StillImage" />
      </cc:Work>
    </rdf:RDF>
  </metadata>
  <defs
     id="defs12" />
  <sodipodi:namedview
     pagecolor="#ffffff"
     bordercolor="#666666"
     borderopacity="1"
     objecttolerance="10"
     gridtolerance="10"
     guidetolerance="10"
     inkscape:pageopacity="0"
     inkscape:pageshadow="2"
     inkscape:window-width="1920"
     inkscape:window-height="1011"
     id="namedview10"
     showgrid="true"
     inkscape:zoom="20.85965"
     inkscape:cx="15.604289"
     inkscape:cy="17.425987"
     inkscape:window-x="0"
     inkscape:window-y="0"
     inkscape:window-maximized="1"
     inkscape:current-layer="svg8"
     inkscape:document-rotation="0"
     inkscape:pagecheckerboard="0"
     inkscape:showpageshadow="2"
     inkscape:deskcolor="#d1d1d1">
    <inkscape:grid
       type="xygrid"
       id="grid821"
       originx="0"
       originy="0"
       spacingy="1"
       spacingx="1"
       units="px" />
    <inkscape:grid
       type="xygrid"
       id="grid925"
       dotted="true"
       spacingx="0.5"
       spacingy="0.5"
       empspacing="10"
       originx="0"
       originy="0"
       units="px" />
  </sodipodi:namedview>
  <path
     id="circle1317"
     style="vector-effect:none;fill:#c7162b;fill-opacity:1;stroke:none;stroke-width:3.5;stroke-linecap:butt;stroke-linejoin:round;stroke-miterlimit:4;stroke-dasharray:none;stroke-dashoffset:0;stroke-opacity:1"
     d="M 6.5 4 A 2.5 2.5 0 0 0 4 6.5 A 2.5 2.5 0 0 0 6.5 9 A 2.5 2.5 0 0 0 9 6.5 A 2.5 2.5 0 0 0 6.5 4 z M 6.5 13 A 2.5 2.5 0 0 0 4 15.5 A 2.5 2.5 0 0 0 6.5 18 A 2.5 2.5 0 0 0 9 15.5 A 2.5 2.5 0 0 0 6.5 13 z M 6.5 22 A 2.5 2.5 0 0 0 4 24.5 A 2.5 2.5 0 0 0 6.5 27 A 2.5 2.5 0 0 0 9 24.5 A 2.5 2.5 0 0 0 6.5 22 z " />
  <path
     id="rect861"
     style="fill:#0000ff;fill-rule:evenodd;stroke-width:3;stroke-linecap:round;stroke-linejoin:round"
     d="M 11 -4 L 11 -5 L 27 -5 L 27 -4 L 11 -4 z M 11 -6 L 11 -7 L 23 -7 L 23 -6 L 11 -6 z M 11 -8 L 11 -9 L 25 -9 L 25 -8 L 11 -8 z M 11 -13 L 11 -14 L 27 -14 L 27 -13 L 11 -13 z M 11 -15 L 11 -16 L 23 -16 L 23 -15 L 11 -15 z M 11 -17 L 11 -18 L 25 -18 L 25 -17 L 11 -17 z M 11 -22 L 11 -23 L 27 -23 L 27 -22 L 11 -22 z M 11 -24 L 11 -25 L 23 -25 L 23 -24 L 11 -24 z M 11 -26 L 11 -27 L 25 -27 L 25 -26 L 11 -26 z "
     transform="scale(1,-1)" />
  <path
     id="path1319"
     style="baseline-shift:baseline;display:inline;overflow:visible;vector-effect:none;fill:#ffffff;enable-background:accumulate;stop-color:#000000;stop-opacity:1;opacity:1"
     d="M 5.3535156 4.6464844 L 4.6464844 5.3535156 L 5.7929688 6.5 L 4.6464844 7.6464844 L 5.3535156 8.3535156 L 6.5 7.2070312 L 7.6464844 8.3535156 L 8.3535156 7.6464844 L 7.2070312 6.5 L 8.3535156 5.3535156 L 7.6464844 4.6464844 L 6.5 5.7929688 L 5.3535156 4.6464844 z M 5.3535156 13.646484 L 4.6464844 14.353516 L 5.7929688 15.5 L 4.6464844 16.646484 L 5.3535156 17.353516 L 6.5 16.207031 L 7.6464844 17.353516 L 8.3535156 16.646484 L 7.2070312 15.5 L 8.3535156 14.353516 L 7.6464844 13.646484 L 6.5 14.792969 L 5.3535156 13.646484 z M 5.3535156 22.646484 L 4.6464844 23.353516 L 5.7929688 24.5 L 4.6464844 25.646484 L 5.3535156 26.353516 L 6.5 25.207031 L 7.6464844 26.353516 L 8.3535156 25.646484 L 7.2070312 24.5 L 8.3535156 23.353516 L 7.6464844 22.646484 L 6.5 23.792969 L 5.3535156 22.646484 z " />
</svg>
