<?xml version="1.0" encoding="UTF-8" standalone="no"?>
<svg
   xmlns:dc="http://purl.org/dc/elements/1.1/"
   xmlns:cc="http://creativecommons.org/ns#"
   xmlns:rdf="http://www.w3.org/1999/02/22-rdf-syntax-ns#"
   xmlns:svg="http://www.w3.org/2000/svg"
   xmlns="http://www.w3.org/2000/svg"
   xmlns:sodipodi="http://sodipodi.sourceforge.net/DTD/sodipodi-0.dtd"
   xmlns:inkscape="http://www.inkscape.org/namespaces/inkscape"
   viewBox="0 0 32 32"
   version="1.1"
   id="svg6"
   sodipodi:docname="repeat.svg"
   inkscape:export-filename="/home/jupiter007/Libreoffice yaru theme fullcolor/build/cmd/32/repeat.png"
   inkscape:export-xdpi="95"
   inkscape:export-ydpi="95"
   inkscape:version="1.0.1 (3bc2e813f5, 2020-09-07)">
  <metadata
     id="metadata12">
    <rdf:RDF>
      <cc:Work
         rdf:about="">
        <dc:format>image/svg+xml</dc:format>
        <dc:type
           rdf:resource="http://purl.org/dc/dcmitype/StillImage" />
      </cc:Work>
    </rdf:RDF>
  </metadata>
  <defs
     id="defs10" />
  <sodipodi:namedview
     pagecolor="#ffffff"
     bordercolor="#666666"
     borderopacity="1"
     objecttolerance="10"
     gridtolerance="10"
     guidetolerance="10"
     inkscape:pageopacity="0"
     inkscape:pageshadow="2"
     inkscape:window-width="1920"
     inkscape:window-height="1043"
     id="namedview8"
     showgrid="true"
     inkscape:zoom="20.85965"
     inkscape:cx="9.3133519"
     inkscape:cy="19.014552"
     inkscape:window-x="1920"
     inkscape:window-y="0"
     inkscape:window-maximized="1"
     inkscape:current-layer="svg6"
     inkscape:document-rotation="0">
    <inkscape:grid
       type="xygrid"
       id="grid856" />
  </sodipodi:namedview>
  <path
     inkscape:connector-curvature="0"
     style="opacity:0.7;vector-effect:none;fill:#000000;fill-opacity:1;stroke:none;stroke-width:2;stroke-linecap:round;stroke-linejoin:round;stroke-miterlimit:4;stroke-dasharray:none;stroke-dashoffset:0;stroke-opacity:1"
     d="m 12,3.9999992 c -0.603883,0 -1,0.3984775 -1,0.9999996 H 7 c -1.108,0 -2,0.892 -2,2 V 19.999999 c 0,1.108 0.892,2 2,2 h 4 v -10 c 0,-1.108 0.892,-2.0000002 2,-2.0000002 h 8 v -3 c 0,-1.108 -0.892,-2 -2,-2 H 15 C 15,4.4019671 14.599212,3.9999998 14,3.9999992 Z"
     id="rect9566"
     sodipodi:nodetypes="scsssscsscssccs" />
  <rect
     style="opacity:1;vector-effect:none;fill:#cccccc;fill-opacity:1;stroke:none;stroke-width:2;stroke-linecap:round;stroke-linejoin:round;stroke-miterlimit:4;stroke-dasharray:none;stroke-dashoffset:0;stroke-opacity:1"
     id="rect873-1"
     width="14"
     height="15"
     x="5.9999995"
     y="6"
     ry="1"
     rx="1" />
  <rect
     style="opacity:1;vector-effect:none;fill:#cccccc;fill-opacity:1;stroke:none;stroke-width:2;stroke-linecap:round;stroke-linejoin:round;stroke-miterlimit:4;stroke-dasharray:none;stroke-dashoffset:0;stroke-opacity:1"
     id="rect9574"
     width="2"
     height="2"
     x="12"
     y="5" />
  <rect
     style="opacity:1;vector-effect:none;fill:#ffffff;fill-opacity:1;stroke:none;stroke-width:2;stroke-linecap:round;stroke-linejoin:round;stroke-miterlimit:4;stroke-dasharray:none;stroke-dashoffset:0;stroke-opacity:1"
     id="rect9576"
     width="4"
     height="1"
     x="11"
     y="6" />
  <rect
     style="opacity:1;vector-effect:none;fill:#ffffff;fill-opacity:1;stroke:none;stroke-width:2;stroke-linecap:round;stroke-linejoin:round;stroke-miterlimit:4;stroke-dasharray:none;stroke-dashoffset:0;stroke-opacity:1"
     id="rect9578"
     width="2"
     height="1"
     x="12"
     y="5" />
  <path
     id="rect899"
     style="opacity:0.7;vector-effect:none;fill:#000000;fill-opacity:1;stroke:none;stroke-width:2;stroke-linecap:round;stroke-linejoin:round;stroke-miterlimit:4;stroke-dasharray:none;stroke-dashoffset:0;stroke-opacity:1"
     d="m 12,9 c -1.108,0 -2,0.892 -2,2 v 15 c 0,1.108 0.892,2 2,2 h 6.648438 L 17.259015,26.87764 23.375,21.298828 25,20 v 4.982422 h 1.984375 c 0.0075,0 0.0082,3e-6 0.01563,0 V 11 C 27,9.892 26.108,9 25,9 Z"
     sodipodi:nodetypes="sssscccccscsss" />
  <path
     id="rect873"
     style="opacity:1;vector-effect:none;fill:#ffffff;fill-opacity:1;stroke:none;stroke-width:2;stroke-linecap:round;stroke-linejoin:round;stroke-miterlimit:4;stroke-dasharray:none;stroke-dashoffset:0;stroke-opacity:1"
     d="M 12 10 C 11.446 10 11 10.446 11 11 L 11 26 C 11 26.554 11.446 27 12 27 L 17.398438 27 L 23.375 22.21875 L 25 20.919922 L 25 24.982422 L 26 24.982422 L 26 11 C 26 10.446 25.554 10 25 10 L 12 10 z " />
  <rect
     style="opacity:1;vector-effect:none;fill:#a7a7f1;fill-opacity:1;stroke:none;stroke-width:2.50713277;stroke-linecap:round;stroke-linejoin:round;stroke-miterlimit:4;stroke-dasharray:none;stroke-dashoffset:0;stroke-opacity:1"
     id="rect912"
     width="11"
     height="1"
     x="13"
     y="12" />
  <rect
     style="opacity:1;vector-effect:none;fill:#a7a7f1;fill-opacity:1;stroke:none;stroke-width:2.50713277;stroke-linecap:round;stroke-linejoin:round;stroke-miterlimit:4;stroke-dasharray:none;stroke-dashoffset:0;stroke-opacity:1"
     id="rect914"
     width="11"
     height="1"
     x="13"
     y="15" />
  <rect
     style="opacity:1;vector-effect:none;fill:#a7a7f1;fill-opacity:1;stroke:none;stroke-width:2.23606801;stroke-linecap:round;stroke-linejoin:round;stroke-miterlimit:4;stroke-dasharray:none;stroke-dashoffset:0;stroke-opacity:1"
     id="rect916"
     width="5"
     height="1"
     x="13"
     y="18" />
  <path
     id="path833-2"
     style="fill:#00ff00;fill-opacity:1;stroke:none;stroke-width:1px;stroke-linecap:butt;stroke-linejoin:miter;stroke-opacity:1"
     d="M 24 23 L 19 27 L 24 31 L 24 27.996094 L 27.984375 27.982422 C 29.984375 27.982422 30.984375 26.982422 30.984375 24.982422 L 31 23 L 29 23 L 28.984375 23.982422 C 28.984375 25.982422 28.984375 25.982422 26.984375 25.982422 L 24 25.982422 L 24 23 z " />
</svg>
