<?xml version="1.0" encoding="UTF-8" standalone="no"?>
<svg
   xmlns:dc="http://purl.org/dc/elements/1.1/"
   xmlns:cc="http://creativecommons.org/ns#"
   xmlns:rdf="http://www.w3.org/1999/02/22-rdf-syntax-ns#"
   xmlns:svg="http://www.w3.org/2000/svg"
   xmlns="http://www.w3.org/2000/svg"
   xmlns:xlink="http://www.w3.org/1999/xlink"
   xmlns:sodipodi="http://sodipodi.sourceforge.net/DTD/sodipodi-0.dtd"
   xmlns:inkscape="http://www.inkscape.org/namespaces/inkscape"
   viewBox="0 0 32 32"
   version="1.1"
   id="svg6"
   sodipodi:docname="sbanativesql.svg"
   inkscape:export-filename="/home/jupiter007/Libreoffice yaru theme fullcolor/build/cmd/32/sbanativesql.png"
   inkscape:export-xdpi="96"
   inkscape:export-ydpi="96"
   inkscape:version="1.0.1 (3bc2e813f5, 2020-09-07)">
  <metadata
     id="metadata12">
    <rdf:RDF>
      <cc:Work
         rdf:about="">
        <dc:format>image/svg+xml</dc:format>
        <dc:type
           rdf:resource="http://purl.org/dc/dcmitype/StillImage" />
        <dc:title></dc:title>
      </cc:Work>
    </rdf:RDF>
  </metadata>
  <defs
     id="defs10">
    <linearGradient
       inkscape:collect="always"
       id="linearGradient842">
      <stop
         style="stop-color:#151515;stop-opacity:1"
         offset="0"
         id="stop838" />
      <stop
         style="stop-color:#4d4d4d;stop-opacity:1"
         offset="1"
         id="stop840" />
    </linearGradient>
    <linearGradient
       inkscape:collect="always"
       xlink:href="#linearGradient842"
       id="linearGradient844"
       x1="11"
       y1="15"
       x2="11"
       y2="29"
       gradientUnits="userSpaceOnUse"
       gradientTransform="translate(-2)" />
  </defs>
  <sodipodi:namedview
     pagecolor="#ffffff"
     bordercolor="#666666"
     borderopacity="1"
     objecttolerance="10"
     gridtolerance="10"
     guidetolerance="10"
     inkscape:pageopacity="0"
     inkscape:pageshadow="2"
     inkscape:window-width="1920"
     inkscape:window-height="1016"
     id="namedview8"
     showgrid="true"
     inkscape:zoom="20.85965"
     inkscape:cx="4.0974296"
     inkscape:cy="16.690401"
     inkscape:window-x="0"
     inkscape:window-y="27"
     inkscape:window-maximized="1"
     inkscape:current-layer="svg6"
     inkscape:document-rotation="0">
    <inkscape:grid
       type="xygrid"
       id="grid832" />
  </sodipodi:namedview>
  <path
     style="fill:#f2cbf8;fill-opacity:1;stroke-width:0.95833331"
     id="path817"
     d="m 16,4.5000002 c -6.3512754,0 -11.5,1.2871814 -11.5,2.875 V 13.125 v 5.75 5.75 c 0,1.587818 5.1487246,2.875 11.5,2.875 6.351275,0 11.5,-1.287182 11.5,-2.875 V 7.3750002 c 0,-1.5878186 -5.148725,-2.875 -11.5,-2.875 z"
     inkscape:connector-curvature="0"
     sodipodi:nodetypes="ssccsssss" />
  <path
     inkscape:connector-curvature="0"
     d="m 16,4.0000002 a 12,3 0 0 0 -12,3 V 13 v 6 6 a 12,3 0 0 0 12,3 12,3 0 0 0 12,-3 V 7.0000002 a 12,3 0 0 0 -12,-3 z m 0,1 a 11,2 0 0 1 11,2 11,2 0 0 1 -11,2 11,2 0 0 1 -11,-2 11,2 0 0 1 11,-2 z M 27,8.1914064 V 13 A 11,2 0 0 1 16,15 11,2 0 0 1 5,13 V 8.1953127 A 12,3 0 0 0 16,10 12,3 0 0 0 27,8.1914064 Z m 0,5.9999996 V 19 A 11,2 0 0 1 16,21 11,2 0 0 1 5,19 V 14.195312 A 12,3 0 0 0 16,16 12,3 0 0 0 27,14.191406 Z m 0,6 V 25 A 11,2 0 0 1 16,27 11,2 0 0 1 5,25 V 20.195312 A 12,3 0 0 0 16,22 12,3 0 0 0 27,20.191406 Z"
     id="path2-3"
     style="fill:#8e03a3;fill-opacity:1" />
  <path
     inkscape:connector-curvature="0"
     id="path832"
     d="M 3.0501768,15.343146 1.6359628,16.757359 5.878604,21 1.6359628,25.242641 3.0501768,26.656854 7.292818,22.414214 8.707031,21 7.292818,19.585786 Z"
     style="opacity:1;fill:#000000;fill-opacity:1;stroke:#ffffff;stroke-width:2;stroke-linejoin:round;stroke-miterlimit:4;stroke-dasharray:none" />
  <rect
     y="27"
     x="9"
     height="2"
     width="7"
     id="rect834"
     style="opacity:1;fill:#000000;fill-opacity:1;stroke:#ffffff;stroke-width:2;stroke-linejoin:round;stroke-miterlimit:4;stroke-dasharray:none" />
  <path
     id="rect825"
     style="opacity:1;fill:url(#linearGradient844);fill-opacity:1;stroke:none;stroke-width:2;stroke-linejoin:round;stroke-miterlimit:4;stroke-dasharray:none"
     d="M 3.0507812,15.34375 1.6367188,16.757812 5.8789062,21 1.6367188,25.242188 3.0507812,26.65625 7.2929688,22.414062 8.707031,21 7.2929688,19.585938 Z M 9,27 v 2 h 7 v -2 z" />
</svg>
