<?xml version="1.0" encoding="UTF-8" standalone="no"?>
<svg
   xmlns:dc="http://purl.org/dc/elements/1.1/"
   xmlns:cc="http://creativecommons.org/ns#"
   xmlns:rdf="http://www.w3.org/1999/02/22-rdf-syntax-ns#"
   xmlns:svg="http://www.w3.org/2000/svg"
   xmlns="http://www.w3.org/2000/svg"
   xmlns:xlink="http://www.w3.org/1999/xlink"
   xmlns:sodipodi="http://sodipodi.sourceforge.net/DTD/sodipodi-0.dtd"
   xmlns:inkscape="http://www.inkscape.org/namespaces/inkscape"
   viewBox="0 0 32 32"
   version="1.1"
   id="svg6"
   sodipodi:docname="spelling.svg"
   inkscape:version="1.0.1 (3bc2e813f5, 2020-09-07)"
   inkscape:export-filename="/home/jupiter007/Libreoffice yaru theme fullcolor/build/cmd/32/spelling.png"
   inkscape:export-xdpi="96"
   inkscape:export-ydpi="96">
  <metadata
     id="metadata12">
    <rdf:RDF>
      <cc:Work
         rdf:about="">
        <dc:format>image/svg+xml</dc:format>
        <dc:type
           rdf:resource="http://purl.org/dc/dcmitype/StillImage" />
        <dc:title></dc:title>
      </cc:Work>
    </rdf:RDF>
  </metadata>
  <defs
     id="defs10">
    <linearGradient
       id="f"
       gradientTransform="matrix(0.2818,0,0,0.2801,10.766,1036.762)"
       gradientUnits="userSpaceOnUse"
       x1="24.139"
       x2="24.139"
       y1="10.631"
       y2="35.623001">
      <stop
         offset="0"
         stop-color="#fff"
         id="stop14" />
      <stop
         offset="0"
         stop-color="#fff"
         stop-opacity=".235"
         id="stop16" />
      <stop
         offset="1"
         stop-color="#fff"
         stop-opacity=".157"
         id="stop18" />
      <stop
         offset="1"
         stop-color="#fff"
         stop-opacity=".392"
         id="stop20" />
    </linearGradient>
    <radialGradient
       id="e"
       cx="71.439003"
       cy="54.764"
       gradientTransform="matrix(0.03111536,0.65582465,-0.71344564,0.03383769,57.470813,-29.573636)"
       gradientUnits="userSpaceOnUse"
       r="31"
       fx="71.439003"
       fy="54.764">
      <stop
         offset="0"
         stop-color="#cdf87e"
         id="stop23" />
      <stop
         offset=".262"
         stop-color="#a2e34f"
         id="stop25" />
      <stop
         offset=".661"
         stop-color="#68b723"
         id="stop27" />
      <stop
         offset="1"
         stop-color="#1d7e0d"
         id="stop29" />
    </radialGradient>
    <linearGradient
       inkscape:collect="always"
       xlink:href="#linearGradient837"
       id="linearGradient839"
       x1="16"
       y1="6"
       x2="16"
       y2="26"
       gradientUnits="userSpaceOnUse"
       gradientTransform="translate(0,-3)" />
    <linearGradient
       inkscape:collect="always"
       id="linearGradient837">
      <stop
         style="stop-color:#151515;stop-opacity:1"
         offset="0"
         id="stop833" />
      <stop
         style="stop-color:#4d4d4d;stop-opacity:1"
         offset="1"
         id="stop835" />
    </linearGradient>
  </defs>
  <sodipodi:namedview
     pagecolor="#ffffff"
     bordercolor="#666666"
     borderopacity="1"
     objecttolerance="10"
     gridtolerance="10"
     guidetolerance="10"
     inkscape:pageopacity="0"
     inkscape:pageshadow="2"
     inkscape:window-width="1920"
     inkscape:window-height="1016"
     id="namedview8"
     showgrid="true"
     inkscape:zoom="20.85965"
     inkscape:cx="17.212757"
     inkscape:cy="14.94724"
     inkscape:window-x="0"
     inkscape:window-y="27"
     inkscape:window-maximized="1"
     inkscape:current-layer="svg6"
     inkscape:document-rotation="0">
    <inkscape:grid
       type="xygrid"
       id="grid822" />
  </sodipodi:namedview>
  <path
     id="path870"
     style="color:#000000;font-style:normal;font-variant:normal;font-weight:normal;font-stretch:normal;font-size:medium;line-height:normal;font-family:sans-serif;font-variant-ligatures:normal;font-variant-position:normal;font-variant-caps:normal;font-variant-numeric:normal;font-variant-alternates:normal;font-variant-east-asian:normal;font-feature-settings:normal;font-variation-settings:normal;text-indent:0;text-align:start;text-decoration:none;text-decoration-line:none;text-decoration-style:solid;text-decoration-color:#000000;letter-spacing:normal;word-spacing:normal;text-transform:none;writing-mode:lr-tb;direction:ltr;text-orientation:mixed;dominant-baseline:auto;baseline-shift:baseline;text-anchor:start;white-space:normal;shape-padding:0;shape-margin:0;inline-size:0;clip-rule:nonzero;display:inline;overflow:visible;visibility:visible;isolation:auto;mix-blend-mode:normal;color-interpolation:sRGB;color-interpolation-filters:linearRGB;solid-color:#000000;solid-opacity:1;vector-effect:none;fill:#ffffff;fill-opacity:1;fill-rule:nonzero;stroke:none;stroke-width:2;stroke-linecap:butt;stroke-linejoin:round;stroke-miterlimit:4;stroke-dasharray:none;stroke-dashoffset:0;stroke-opacity:1;color-rendering:auto;image-rendering:auto;shape-rendering:auto;text-rendering:auto;enable-background:accumulate;stop-color:#000000;stop-opacity:1;opacity:1"
     d="M 14 2 A 1.0001 1.0001 0 0 0 13.087891 2.5898438 L 4.0878906 22.589844 A 1.0001 1.0001 0 0 0 5 24 L 8 24 A 1.0001 1.0001 0 0 0 8.9003906 23.435547 L 11.535156 18 L 20.464844 18 L 21.990234 21.146484 L 23.498047 19.671875 L 21.992188 16.564453 A 1.0001 1.0001 0 0 0 21.091797 16 L 10.908203 16 A 1.0001 1.0001 0 0 0 10.007812 16.564453 L 7.3730469 22 L 6.546875 22 L 14.646484 4 L 16 4 L 17.353516 4 L 24.126953 19.054688 L 25.650391 17.564453 L 18.912109 2.5898438 A 1.0001 1.0001 0 0 0 18 2 L 16 2 L 14 2 z M 15.972656 4.4023438 A 1.0001 1.0001 0 0 0 15.087891 4.9941406 L 11.238281 13.591797 A 1.0001 1.0001 0 0 0 12.150391 15 L 16 15 L 19.849609 15 A 1.0001 1.0001 0 0 0 20.761719 13.591797 L 16.912109 4.9941406 A 1.0001 1.0001 0 0 0 15.972656 4.4023438 z M 16 7.8476562 L 18.306641 13 L 16 13 L 13.693359 13 L 16 7.8476562 z M 27.884766 23.464844 L 27.527344 23.849609 A 1.0001 1.0001 0 0 0 27.884766 23.464844 z " />
  <path
     id="path2-3"
     style="fill:url(#linearGradient839);fill-opacity:1"
     d="M 14 3 L 5 23 L 8 23 L 10.908203 17 L 21.091797 17 L 22.744141 20.408203 L 24.888672 18.310547 L 18 3 L 16 3 L 14 3 z M 16 5.4023438 L 19.849609 14 L 16 14 L 12.150391 14 L 16 5.4023438 z " />
  <path
     inkscape:connector-curvature="0"
     style="fill:#0e8420;fill-opacity:1;stroke-width:1.24950004"
     d="m 19.903417,24.584761 8.61806,-8.430079 2.487616,2.495673 L 19.550528,30.932221 12,23 15.231387,20.127409 Z"
     id="path40"
     sodipodi:nodetypes="ccccccc" />
</svg>
