<?xml version="1.0" encoding="UTF-8" standalone="no"?>
<svg
   viewBox="0 0 32 32"
   version="1.1"
   id="svg4"
   sodipodi:docname="splitwindow.svg"
   inkscape:export-filename="/home/jupiter007/Libreoffice yaru theme fullcolor/build/cmd/32/splitwindow.png"
   inkscape:export-xdpi="96"
   inkscape:export-ydpi="96"
   inkscape:version="1.4.4 (dcaf3e7d9e, 2026-05-05)"
   xmlns:inkscape="http://www.inkscape.org/namespaces/inkscape"
   xmlns:sodipodi="http://sodipodi.sourceforge.net/DTD/sodipodi-0.dtd"
   xmlns="http://www.w3.org/2000/svg"
   xmlns:svg="http://www.w3.org/2000/svg"
   xmlns:rdf="http://www.w3.org/1999/02/22-rdf-syntax-ns#"
   xmlns:cc="http://creativecommons.org/ns#"
   xmlns:dc="http://purl.org/dc/elements/1.1/">
  <metadata
     id="metadata10">
    <rdf:RDF>
      <cc:Work
         rdf:about="">
        <dc:format>image/svg+xml</dc:format>
        <dc:type
           rdf:resource="http://purl.org/dc/dcmitype/StillImage" />
      </cc:Work>
    </rdf:RDF>
  </metadata>
  <defs
     id="defs8" />
  <sodipodi:namedview
     pagecolor="#ffffff"
     bordercolor="#666666"
     borderopacity="1"
     objecttolerance="10"
     gridtolerance="10"
     guidetolerance="10"
     inkscape:pageopacity="0"
     inkscape:pageshadow="2"
     inkscape:window-width="1920"
     inkscape:window-height="1043"
     id="namedview6"
     showgrid="true"
     inkscape:zoom="20.85965"
     inkscape:cx="18.552564"
     inkscape:cy="15.412531"
     inkscape:window-x="0"
     inkscape:window-y="0"
     inkscape:window-maximized="1"
     inkscape:current-layer="svg4"
     inkscape:showpageshadow="2"
     inkscape:pagecheckerboard="0"
     inkscape:deskcolor="#d1d1d1">
    <inkscape:grid
       type="xygrid"
       id="grid829"
       originx="0"
       originy="0"
       spacingy="1"
       spacingx="1"
       units="px" />
  </sodipodi:namedview>
  <path
     id="rect831"
     style="opacity:1;fill:#ffff00;fill-opacity:1;stroke:none;stroke-width:1.04447;stroke-linecap:round;stroke-linejoin:round;stroke-miterlimit:4;stroke-dasharray:none;stroke-opacity:1"
     d="M 7 4 C 6 4 5 4 5 5 L 5 7 L 12 7 L 12 4 L 7 4 z M 13 4 L 13 7 L 19 7 L 19 4 L 13 4 z M 20 4 L 20 7 L 27 7 L 27 5 C 27 4 26 4 25 4 L 20 4 z M 5 8 L 5 11 L 12 11 L 12 8 L 5 8 z M 13 8 L 13 11 L 19 11 L 19 8 L 13 8 z M 20 8 L 20 11 L 27 11 L 27 8 L 20 8 z M 5 20 L 5 23 L 12 23 L 12 20 L 5 20 z M 13 20 L 13 23 L 19 23 L 19 20 L 13 20 z M 20 20 L 20 23 L 27 23 L 27 20 L 20 20 z M 5 24 L 5 26 C 5 27 6 27 7 27 L 12 27 L 12 24 L 5 24 z M 13 24 L 13 27 L 19 27 L 19 24 L 13 24 z M 20 24 L 20 27 L 25 27 C 26 27 27 27 27 26 L 27 24 L 20 24 z " />
  <path
     id="path2"
     style="fill:#0000ff;fill-opacity:1;opacity:0.8"
     d="M 7 3 C 5 3 4 3 4 5 L 4 12 L 5 12 L 12 12 L 13 12 L 19 12 L 20 12 L 27 12 L 28 12 L 28 5 C 28 3 27 3 25 3 L 7 3 z M 7 4 L 12 4 L 12 7 L 5 7 L 5 5 C 5 4 6 4 7 4 z M 13 4 L 19 4 L 19 7 L 13 7 L 13 4 z M 20 4 L 25 4 C 26 4 27 4 27 5 L 27 7 L 20 7 L 20 4 z M 5 8 L 12 8 L 12 11 L 5 11 L 5 8 z M 13 8 L 19 8 L 19 11 L 13 11 L 13 8 z M 20 8 L 27 8 L 27 11 L 20 11 L 20 8 z M 4 19 L 4 26 C 4 28 5 28 7 28 L 25 28 C 27 28 28 28 28 26 L 28 19 L 27 19 L 20 19 L 19 19 L 13 19 L 12 19 L 5 19 L 4 19 z M 5 20 L 12 20 L 12 23 L 5 23 L 5 20 z M 13 20 L 19 20 L 19 23 L 13 23 L 13 20 z M 20 20 L 27 20 L 27 23 L 20 23 L 20 20 z M 5 24 L 12 24 L 12 27 L 7 27 C 6 27 5 27 5 26 L 5 24 z M 13 24 L 19 24 L 19 27 L 13 27 L 13 24 z M 20 24 L 27 24 L 27 26 C 27 27 26 27 25 27 L 20 27 L 20 24 z " />
  <rect
     y="15"
     x="24"
     height="1"
     width="4"
     id="rect869"
     style="opacity:1;fill:#00ffff;fill-opacity:1;stroke:none;stroke-width:2.30940127;stroke-linecap:round;stroke-linejoin:round;stroke-miterlimit:4;stroke-dasharray:none;stroke-opacity:1" />
  <rect
     style="opacity:1;fill:#00ffff;fill-opacity:1;stroke:none;stroke-width:2.30940127;stroke-linecap:round;stroke-linejoin:round;stroke-miterlimit:4;stroke-dasharray:none;stroke-opacity:1"
     id="rect881"
     width="4"
     height="1"
     x="19"
     y="15" />
  <rect
     y="15"
     x="14"
     height="1"
     width="4"
     id="rect883"
     style="opacity:1;fill:#00ffff;fill-opacity:1;stroke:none;stroke-width:2.30940127;stroke-linecap:round;stroke-linejoin:round;stroke-miterlimit:4;stroke-dasharray:none;stroke-opacity:1" />
  <rect
     style="opacity:1;fill:#00ffff;fill-opacity:1;stroke:none;stroke-width:2.30940127;stroke-linecap:round;stroke-linejoin:round;stroke-miterlimit:4;stroke-dasharray:none;stroke-opacity:1"
     id="rect885"
     width="4"
     height="1"
     x="9"
     y="15" />
  <rect
     y="15"
     x="4"
     height="1"
     width="4"
     id="rect887"
     style="opacity:1;fill:#00ffff;fill-opacity:1;stroke:none;stroke-width:2.30940127;stroke-linecap:round;stroke-linejoin:round;stroke-miterlimit:4;stroke-dasharray:none;stroke-opacity:1" />
</svg>
