<?xml version="1.0" encoding="UTF-8" standalone="no"?>
<svg
   xmlns:dc="http://purl.org/dc/elements/1.1/"
   xmlns:cc="http://creativecommons.org/ns#"
   xmlns:rdf="http://www.w3.org/1999/02/22-rdf-syntax-ns#"
   xmlns:svg="http://www.w3.org/2000/svg"
   xmlns="http://www.w3.org/2000/svg"
   xmlns:sodipodi="http://sodipodi.sourceforge.net/DTD/sodipodi-0.dtd"
   xmlns:inkscape="http://www.inkscape.org/namespaces/inkscape"
   viewBox="0 0 32 32"
   version="1.1"
   id="svg6"
   sodipodi:docname="tabdialog.svg"
   inkscape:version="1.0.1 (3bc2e813f5, 2020-09-07)"
   inkscape:export-filename="/home/jupiter007/Libreoffice yaru theme fullcolor/build/cmd/32/tabdialog.png"
   inkscape:export-xdpi="95"
   inkscape:export-ydpi="95">
  <metadata
     id="metadata12">
    <rdf:RDF>
      <cc:Work
         rdf:about="">
        <dc:format>image/svg+xml</dc:format>
        <dc:type
           rdf:resource="http://purl.org/dc/dcmitype/StillImage" />
      </cc:Work>
    </rdf:RDF>
  </metadata>
  <defs
     id="defs10" />
  <sodipodi:namedview
     pagecolor="#ffffff"
     bordercolor="#666666"
     borderopacity="1"
     objecttolerance="10"
     gridtolerance="10"
     guidetolerance="10"
     inkscape:pageopacity="0"
     inkscape:pageshadow="2"
     inkscape:window-width="1920"
     inkscape:window-height="1011"
     id="namedview8"
     showgrid="true"
     inkscape:zoom="20.85965"
     inkscape:cx="14.228268"
     inkscape:cy="22.951353"
     inkscape:window-x="1920"
     inkscape:window-y="32"
     inkscape:window-maximized="1"
     inkscape:current-layer="svg6"
     inkscape:document-rotation="0">
    <inkscape:grid
       type="xygrid"
       id="grid822" />
  </sodipodi:namedview>
  <path
     id="path868"
     style="color:#000000;font-style:normal;font-variant:normal;font-weight:normal;font-stretch:normal;font-size:medium;line-height:normal;font-family:sans-serif;font-variant-ligatures:normal;font-variant-position:normal;font-variant-caps:normal;font-variant-numeric:normal;font-variant-alternates:normal;font-variant-east-asian:normal;font-feature-settings:normal;font-variation-settings:normal;text-indent:0;text-align:start;text-decoration:none;text-decoration-line:none;text-decoration-style:solid;text-decoration-color:#000000;letter-spacing:normal;word-spacing:normal;text-transform:none;writing-mode:lr-tb;direction:ltr;text-orientation:mixed;dominant-baseline:auto;baseline-shift:baseline;text-anchor:start;white-space:normal;shape-padding:0;shape-margin:0;inline-size:0;clip-rule:nonzero;display:inline;overflow:visible;visibility:visible;opacity:0.7;isolation:auto;mix-blend-mode:normal;color-interpolation:sRGB;color-interpolation-filters:linearRGB;solid-color:#000000;solid-opacity:1;vector-effect:none;fill:#000000;fill-opacity:1;fill-rule:nonzero;stroke:none;stroke-width:2;stroke-linecap:butt;stroke-linejoin:round;stroke-miterlimit:4;stroke-dasharray:none;stroke-dashoffset:0;stroke-opacity:1;color-rendering:auto;image-rendering:auto;shape-rendering:auto;text-rendering:auto;enable-background:accumulate;stop-color:#000000;stop-opacity:1"
     d="m 4,23 c -0.5522619,5.5e-5 -0.9999448,0.447738 -1,1 v 2 c 5.52e-5,0.552262 0.4477381,0.999945 1,1 h 16.277344 c 0.118342,-0.183193 0.259779,-0.354501 0.443359,-0.492188 -0.577545,-0.431314 -0.888106,-1.137505 -0.599609,-1.833984 l 0.570312,-1.380859 C 20.736664,23.183703 20.796695,23.088877 20.861328,23 Z"
     sodipodi:nodetypes="cccccccccc" />
  <path
     sodipodi:nodetypes="cccc"
     inkscape:connector-curvature="0"
     id="path833"
     d="m 26,20 -4,-5 -4,5 z"
     style="fill:#00ff00;fill-opacity:1;stroke:none;stroke-width:2;stroke-linejoin:round;stroke-miterlimit:4;stroke-dasharray:none;stroke-opacity:1" />
  <path
     id="rect827"
     style="opacity:1;fill:#ffffff;fill-opacity:1;stroke:none;stroke-width:2;stroke-linejoin:round;stroke-miterlimit:4;stroke-dasharray:none;stroke-opacity:1"
     d="m 4,24 v 2 H 20.267578 C 20.020475,25.609364 19.927033,25.142324 20.121094,24.673828 L 20.398438,24 Z"
     sodipodi:nodetypes="cccccc" />
  <rect
     style="opacity:0.7;fill:#000000;fill-opacity:1;stroke:#000000;stroke-width:2;stroke-linejoin:round;stroke-miterlimit:4;stroke-dasharray:none;stroke-opacity:1"
     id="rect831"
     width="24"
     height="2"
     x="-28"
     y="-8"
     transform="scale(-1)" />
  <path
     style="fill:#00ff00;fill-opacity:1;stroke:none;stroke-width:2;stroke-linejoin:round;stroke-miterlimit:4;stroke-dasharray:none;stroke-opacity:1"
     d="m 6,12 4,5 4,-5 z"
     id="path836"
     inkscape:connector-curvature="0"
     sodipodi:nodetypes="cccc" />
  <rect
     y="-8"
     x="-28"
     height="2"
     width="24"
     id="rect838"
     style="opacity:1;fill:#ffffff;fill-opacity:1;stroke:none;stroke-width:2;stroke-linejoin:round;stroke-miterlimit:4;stroke-dasharray:none;stroke-opacity:1"
     transform="scale(-1)" />
  <g
     id="g915"
     transform="matrix(1.2387196,0,0,1.2387196,2.3416999,2.3417)"
     style="stroke-width:0.807285">
    <circle
       style="fill:#ffffff;fill-rule:evenodd;stroke:none;stroke-width:1.61457;stroke-linecap:round;stroke-linejoin:round"
       id="path909"
       cx="19.5"
       cy="19.5"
       r="1.5" />
    <g
       id="g1425"
       transform="translate(8.0000004,8)"
       style="stroke-width:0.807285">
      <circle
         style="fill:#ffffff;fill-opacity:1;fill-rule:evenodd;stroke:none;stroke-width:1.61457;stroke-linecap:round;stroke-linejoin:round;stroke-miterlimit:4;stroke-dasharray:none;stroke-opacity:1"
         id="path1328"
         cx="11.5"
         cy="11.5"
         r="1.5" />
      <path
         d="m 9.3111344,7.791575 c -0.13058,0.05409 -0.188804,0.19465 -0.134715,0.325232 l 0.272166,0.657066 c -0.260199,0.195351 -0.471578,0.424352 -0.66202,0.678364 L 8.1128724,9.173184 c -0.130581,-0.05409 -0.274445,0.0055 -0.328533,0.136083 l -0.461881,1.115078 c -0.05409,0.130582 0.0055,0.274445 0.136083,0.328534 l 0.673693,0.279053 c -0.04495,0.314275 -0.05741,0.62567 -0.01156,0.947793 l -0.657066,0.272166 c -0.130581,0.05409 -0.188804,0.19465 -0.134715,0.325232 l 0.462682,1.117013 c 0.05409,0.130581 0.19465,0.188803 0.325231,0.134715 l 0.657067,-0.272166 c 0.195351,0.260198 0.424352,0.471578 0.678363,0.66202 l -0.279053,0.673693 c -0.05409,0.130583 0.0055,0.274445 0.136083,0.328533 l 1.1150786,0.461881 c 0.130582,0.05409 0.274445,-0.0055 0.328533,-0.136083 l 0.279053,-0.673693 c 0.314276,0.04495 0.625672,0.05741 0.947794,0.01156 l 0.272166,0.657067 c 0.05409,0.130582 0.19465,0.188803 0.325231,0.134715 l 1.117013,-0.462682 c 0.130582,-0.05409 0.188804,-0.19465 0.134716,-0.325231 l -0.272166,-0.657067 c 0.260198,-0.19535 0.471577,-0.424351 0.662019,-0.678363 l 0.673694,0.279053 c 0.130583,0.05409 0.274445,-0.0055 0.328533,-0.136083 l 0.461881,-1.115079 c 0.05409,-0.130583 -0.0055,-0.274445 -0.136083,-0.328533 L 14.873035,11.97334 c 0.04495,-0.314276 0.05741,-0.625672 0.01156,-0.947794 l 0.657066,-0.272166 c 0.130582,-0.05409 0.188804,-0.194649 0.134716,-0.325231 L 15.213692,9.311132 C 15.159602,9.18055 15.019042,9.122328 14.88846,9.176417 L 14.231394,9.448582 C 14.036043,9.188383 13.807042,8.977005 13.553031,8.786563 l 0.279053,-0.673694 c 0.05409,-0.130582 -0.0055,-0.274445 -0.136083,-0.328533 L 12.580922,7.322455 c -0.130583,-0.05409 -0.274445,0.0055 -0.328534,0.136083 L 11.973335,8.132232 C 11.65906,8.087282 11.347664,8.074822 11.025542,8.120672 L 10.753376,7.463606 C 10.699286,7.333024 10.558726,7.274802 10.428144,7.32889 Z m 1.7560366,2.659752 c 0.580321,-0.240377 1.246395,0.03552 1.486772,0.615841 0.240377,0.580322 -0.03552,1.246395 -0.615841,1.486772 -0.580321,0.240377 -1.246395,-0.03552 -1.486772,-0.615841 -0.240377,-0.580321 0.03552,-1.246395 0.615841,-1.486772 z"
         display="block"
         fill="url(#d)"
         stroke="url(#e)"
         stroke-linejoin="round"
         stroke-width="0.484372"
         id="path42"
         style="fill:#d3d3d3;fill-opacity:1;stroke:#4d4d4d;stroke-opacity:1" />
    </g>
  </g>
</svg>
