<?xml version="1.0" encoding="UTF-8" standalone="no"?>
<svg
   viewBox="0 0 32 32"
   version="1.1"
   id="svg6"
   sodipodi:docname="wrapright.svg"
   inkscape:export-filename="/home/jupiter007/Libreoffice yaru theme fullcolor/build/cmd/32/wrapright.png"
   inkscape:export-xdpi="95"
   inkscape:export-ydpi="95"
   inkscape:version="1.4.2 (ebf0e940d0, 2025-05-08)"
   xmlns:inkscape="http://www.inkscape.org/namespaces/inkscape"
   xmlns:sodipodi="http://sodipodi.sourceforge.net/DTD/sodipodi-0.dtd"
   xmlns="http://www.w3.org/2000/svg"
   xmlns:svg="http://www.w3.org/2000/svg"
   xmlns:rdf="http://www.w3.org/1999/02/22-rdf-syntax-ns#"
   xmlns:cc="http://creativecommons.org/ns#"
   xmlns:dc="http://purl.org/dc/elements/1.1/">
  <metadata
     id="metadata12">
    <rdf:RDF>
      <cc:Work
         rdf:about="">
        <dc:format>image/svg+xml</dc:format>
        <dc:type
           rdf:resource="http://purl.org/dc/dcmitype/StillImage" />
        <dc:title />
      </cc:Work>
    </rdf:RDF>
  </metadata>
  <defs
     id="defs10" />
  <sodipodi:namedview
     pagecolor="#ffffff"
     bordercolor="#666666"
     borderopacity="1"
     objecttolerance="10"
     gridtolerance="10"
     guidetolerance="10"
     inkscape:pageopacity="0"
     inkscape:pageshadow="2"
     inkscape:window-width="1920"
     inkscape:window-height="1011"
     id="namedview8"
     showgrid="true"
     inkscape:zoom="10.429825"
     inkscape:cx="-4.0748526"
     inkscape:cy="-2.1572749"
     inkscape:window-x="0"
     inkscape:window-y="0"
     inkscape:window-maximized="1"
     inkscape:current-layer="svg6"
     inkscape:document-rotation="0"
     inkscape:showpageshadow="2"
     inkscape:pagecheckerboard="0"
     inkscape:deskcolor="#d1d1d1">
    <inkscape:grid
       type="xygrid"
       id="grid837"
       originx="0"
       originy="0"
       spacingy="1"
       spacingx="1"
       units="px" />
  </sodipodi:namedview>
  <path
     d="M 16,8.9999998 V 22 H 4.0000007 V 8.9999998 Z"
     id="path2"
     inkscape:connector-curvature="0"
     style="fill:#00ff00;fill-opacity:1;stroke-width:0.857143"
     sodipodi:nodetypes="ccccc" />
  <path
     id="rect834"
     style="fill:#0000ff;fill-opacity:1;fill-rule:evenodd;stroke:none;stroke-width:2;stroke-linecap:round;stroke-linejoin:round"
     d="M -3 4 L -3 5 L -29 5 L -29 4 L -3 4 z M -3 6 L -3 7 L -29 7 L -29 6 L -3 6 z M -18 8 L -18 9 L -29 9 L -29 8 L -18 8 z M -18 10 L -18 11 L -29 11 L -29 10 L -18 10 z M -18 12 L -18 13 L -29 13 L -29 12 L -18 12 z M -18 14 L -18 15 L -29 15 L -29 14 L -18 14 z M -18 16 L -18 17 L -29 17 L -29 16 L -18 16 z M -18 18 L -18 19 L -29 19 L -29 18 L -18 18 z M -18 20 L -18 21 L -29 21 L -29 20 L -18 20 z M -18 22 L -18 23 L -29 23 L -29 22 L -18 22 z M -3 24 L -3 25 L -29 25 L -29 24 L -3 24 z M -3 26 L -3 27 L -29 27 L -29 26 L -3 26 z "
     transform="scale(-1,1)" />
</svg>
