<?xml version="1.0" encoding="UTF-8" standalone="no"?>
<svg
   xmlns:dc="http://purl.org/dc/elements/1.1/"
   xmlns:cc="http://creativecommons.org/ns#"
   xmlns:rdf="http://www.w3.org/1999/02/22-rdf-syntax-ns#"
   xmlns:svg="http://www.w3.org/2000/svg"
   xmlns="http://www.w3.org/2000/svg"
   xmlns:sodipodi="http://sodipodi.sourceforge.net/DTD/sodipodi-0.dtd"
   xmlns:inkscape="http://www.inkscape.org/namespaces/inkscape"
   viewBox="0 0 32 32"
   version="1.1"
   id="svg4"
   sodipodi:docname="zoompage.svg"
   inkscape:version="1.0.1 (3bc2e813f5, 2020-09-07)"
   inkscape:export-filename="/home/jupiter007/Libreoffice yaru theme fullcolor/build/cmd/32/zoompage.png"
   inkscape:export-xdpi="95"
   inkscape:export-ydpi="95">
  <g
     id="g844">
    <path
       sodipodi:nodetypes="cccc"
       inkscape:connector-curvature="0"
       id="path837"
       d="M 11,19 7,16 11,13 Z"
       style="fill:#00ffff;fill-opacity:1;stroke:#00ffff;stroke-width:2;stroke-linejoin:round;stroke-miterlimit:4;stroke-dasharray:none;stroke-opacity:1" />
    <path
       sodipodi:nodetypes="cccc"
       inkscape:connector-curvature="0"
       id="path840"
       d="m 21,19 4,-3 -4,-3 z"
       style="fill:#00ffff;fill-opacity:1;stroke:#00ffff;stroke-width:2;stroke-linejoin:round;stroke-miterlimit:4;stroke-dasharray:none;stroke-opacity:1" />
  </g>
  <metadata
     id="metadata10">
    <rdf:RDF>
      <cc:Work
         rdf:about="">
        <dc:format>image/svg+xml</dc:format>
        <dc:type
           rdf:resource="http://purl.org/dc/dcmitype/StillImage" />
      </cc:Work>
    </rdf:RDF>
  </metadata>
  <defs
     id="defs8" />
  <sodipodi:namedview
     pagecolor="#ffffff"
     bordercolor="#666666"
     borderopacity="1"
     objecttolerance="10"
     gridtolerance="10"
     guidetolerance="10"
     inkscape:pageopacity="0"
     inkscape:pageshadow="2"
     inkscape:window-width="1920"
     inkscape:window-height="1011"
     id="namedview6"
     showgrid="true"
     inkscape:zoom="10.429825"
     inkscape:cx="-9.1256081"
     inkscape:cy="11.549284"
     inkscape:window-x="0"
     inkscape:window-y="32"
     inkscape:window-maximized="1"
     inkscape:current-layer="svg4"
     inkscape:document-rotation="0">
    <inkscape:grid
       type="xygrid"
       id="grid825" />
  </sodipodi:namedview>
  <path
     sodipodi:nodetypes="cccscsccccccccscscccccc"
     inkscape:connector-curvature="0"
     id="path4237-1"
     d="m 27.036554,25.00586 c -0.0145,1.2582 0.0306,2.178891 -0.384765,2.93164 -0.20766,0.37637 -0.559387,0.673231 -0.998047,0.837891 C 25.215072,28.940061 24.694155,29 24.036554,29 H 22.548272 7.9994074 c -0.65761,0 -1.178577,-0.0599 -1.617188,-0.224609 -0.438611,-0.16468 -0.788524,-0.461531 -0.996093,-0.837891 -0.41513,-0.752719 -0.371649,-1.67354 -0.386719,-2.93164 v -0.002 -18.00581 -0.0039 c 0.0145,-1.25819 -0.0306,-2.178891 0.384766,-2.931641 0.20766,-0.37637 0.559386,-0.673221 0.998046,-0.837891 C 6.8208904,3.060079 7.3417974,3 7.9994074,3 h 14.5703486 1.466798 c 0.657601,0 1.178578,0.0599 1.617188,0.224609 0.4386,0.16468 0.788534,0.461531 0.996094,0.837891 0.41513,0.75277 0.371638,1.673601 0.386718,2.931691 v 0.002 18.00581 z"
     style="font-style:normal;font-variant:normal;font-weight:normal;font-stretch:normal;font-size:15px;line-height:125%;font-family:Ubuntu;-inkscape-font-specification:Ubuntu;text-align:center;letter-spacing:0px;word-spacing:0px;writing-mode:lr-tb;text-anchor:middle;display:inline;opacity:0.7;fill:#000000;fill-opacity:1;stroke:none;stroke-width:0.999802" />
  <path
     inkscape:connector-curvature="0"
     id="path1993"
     d="m 26.011385,21.013546 c -0.0108,1.556581 0.01175,4.110207 -0.03877,5.660158 -0.04267,0.461229 -0.206419,1.016188 -0.709967,1.155339 -0.635346,0.218994 -1.333788,0.108414 -1.981925,0.145796 -2.297086,0.0078 -13.6329922,0.02297 -15.9223444,-0.02152 -0.461929,-0.0391 -1.012666,-0.20255 -1.163666,-0.698755 -0.225082,-0.632456 -0.12274,-1.284144 -0.154298,-1.935974 -0.0068,-1.424235 -0.01102,-12.850515 -0.01131,-14.276372 -3.5e-4,-1.7045306 0.005,-3.4083869 0.01851,-5.1071889 0.01201,-0.511911 -0.01993,-1.183699 0.405191,-1.584745 0.539783,-0.421097 1.268021,-0.287073 1.903787,-0.322745 2.4443224,-0.01187 13.9476584,-0.02769 16.3933594,0.0219 0.402041,0.04928 0.862952,0.169992 1.044476,0.575139 0.294097,0.668169 0.168018,1.426205 0.205572,2.125921 0.0118,1.754407 0.01248,12.5086079 0.01139,14.2630469 z"
     style="opacity:1;vector-effect:none;fill:#ffffff;fill-opacity:1;stroke:none;stroke-width:1;stroke-linecap:round;stroke-linejoin:bevel;stroke-miterlimit:4;stroke-dasharray:none;stroke-dashoffset:0;stroke-opacity:1"
     sodipodi:nodetypes="cccccccscccccccc" />
  <path
     sodipodi:nodetypes="cccc"
     inkscape:connector-curvature="0"
     id="path852"
     d="m 13,8 3,-4 3,4 z"
     style="fill:#00ffff;fill-opacity:1;stroke:none;stroke-width:2;stroke-linejoin:round;stroke-miterlimit:4;stroke-dasharray:none;stroke-opacity:1" />
  <path
     sodipodi:nodetypes="cccc"
     inkscape:connector-curvature="0"
     id="path839"
     d="m 13,24 3,4 3,-4 z"
     style="fill:#00ffff;fill-opacity:1;stroke:none;stroke-width:2;stroke-linejoin:round;stroke-miterlimit:4;stroke-dasharray:none;stroke-opacity:1" />
  <path
     sodipodi:nodetypes="cccc"
     inkscape:connector-curvature="0"
     id="path841"
     d="m 10,13 -4,3 4,3 z"
     style="fill:#00ffff;fill-opacity:1;stroke:none;stroke-width:2;stroke-linejoin:round;stroke-miterlimit:4;stroke-dasharray:none;stroke-opacity:1" />
  <path
     sodipodi:nodetypes="cccc"
     inkscape:connector-curvature="0"
     id="path843"
     d="m 22,13 4,3 -4,3 z"
     style="fill:#00ffff;fill-opacity:1;stroke:none;stroke-width:2;stroke-linejoin:round;stroke-miterlimit:4;stroke-dasharray:none;stroke-opacity:1" />
</svg>
