<?xml version="1.0" encoding="UTF-8" standalone="no"?>
<svg
   viewBox="0 0 32 32"
   version="1.1"
   id="svg4"
   sodipodi:docname="zoomnext.svg"
   inkscape:export-filename="/home/jupiter007/Libreoffice yaru theme fullcolor/build/cmd/32/zoomnext.png"
   inkscape:export-xdpi="96"
   inkscape:export-ydpi="96"
   inkscape:version="1.2 (1:1.2.1+202207142221+cd75a1ee6d)"
   xmlns:inkscape="http://www.inkscape.org/namespaces/inkscape"
   xmlns:sodipodi="http://sodipodi.sourceforge.net/DTD/sodipodi-0.dtd"
   xmlns="http://www.w3.org/2000/svg"
   xmlns:svg="http://www.w3.org/2000/svg"
   xmlns:rdf="http://www.w3.org/1999/02/22-rdf-syntax-ns#"
   xmlns:cc="http://creativecommons.org/ns#"
   xmlns:dc="http://purl.org/dc/elements/1.1/">
  <metadata
     id="metadata10">
    <rdf:RDF>
      <cc:Work
         rdf:about="">
        <dc:format>image/svg+xml</dc:format>
        <dc:type
           rdf:resource="http://purl.org/dc/dcmitype/StillImage" />
      </cc:Work>
    </rdf:RDF>
  </metadata>
  <defs
     id="defs8" />
  <sodipodi:namedview
     pagecolor="#ffffff"
     bordercolor="#666666"
     borderopacity="1"
     objecttolerance="10"
     gridtolerance="10"
     guidetolerance="10"
     inkscape:pageopacity="0"
     inkscape:pageshadow="2"
     inkscape:window-width="1920"
     inkscape:window-height="1043"
     id="namedview6"
     showgrid="true"
     inkscape:zoom="14.75"
     inkscape:cx="4.7118644"
     inkscape:cy="13.559322"
     inkscape:window-x="0"
     inkscape:window-y="0"
     inkscape:window-maximized="1"
     inkscape:current-layer="svg4"
     inkscape:document-rotation="0"
     inkscape:showpageshadow="2"
     inkscape:pagecheckerboard="0"
     inkscape:deskcolor="#d1d1d1">
    <inkscape:grid
       type="xygrid"
       id="grid831" />
  </sodipodi:namedview>
  <path
     id="path290"
     style="color:#000000;opacity:0.7;fill:#000000;fill-rule:evenodd;stroke-linecap:round;stroke-linejoin:round"
     d="m 15,4 c -6.0632754,0 -11,4.9367246 -11,11 0,6.063276 4.9367246,11 11,11 6.063276,0 11,-4.936724 11,-11 0,-1.615661 -0.353453,-3.149613 -0.982422,-4.533203 l -1.617187,1.292969 c 0.386323,1.004936 0.599609,2.096759 0.599609,3.240234 0,4.982397 -4.017603,9 -9,9 -4.982397,0 -9,-4.017603 -9,-9 0,-4.982397 4.017603,-9 9,-9 0.338359,0 0.671496,0.020539 1,0.056641 v -2.0097656 c -0.329585,-0.029883 -0.662791,-0.046875 -1,-0.046875 z m 5.666016,4 c 0.963793,0.7802346 1.760318,1.7572619 2.333984,2.869141 l -1,-1.869141 z"
     sodipodi:nodetypes="ssssccssssccscccc" />
  <path
     id="circle344"
     style="fill:#ffffff;fill-rule:evenodd;stroke:none;stroke-width:2;stroke-linecap:round;stroke-linejoin:round"
     d="M 15 5 A 10 10 0 0 0 5 15 A 10 10 0 0 0 15 25 A 10 10 0 0 0 25 15 A 10 10 0 0 0 24.210938 11.111328 L 23 12.080078 L 23 9 A 10 10 0 0 0 22.140625 8 L 16 8 L 16 5.0527344 A 10 10 0 0 0 15 5 z " />
  <path
     style="fill:none;stroke:#6d6d6d;stroke-width:2;stroke-linecap:round;stroke-linejoin:miter"
     d="m 27,27 -3.515,-3.515"
     id="path409"
     sodipodi:nodetypes="cc" />
  <path
     inkscape:connector-curvature="0"
     style="fill:#00ff00;fill-opacity:1;stroke:none;stroke-width:1px;stroke-linecap:butt;stroke-linejoin:miter;stroke-opacity:1"
     d="M 28.999999,6 24,10 V 7 H 16.999999 V 5 H 24 V 2 Z"
     id="path834"
     sodipodi:nodetypes="cccccccc" />
</svg>
