<svg xmlns="http://www.w3.org/2000/svg" viewBox="0 0 24 24"><path style="opacity:1;fill:gray;fill-opacity:1" d="m5.5 4-.531.969L4 5.5l.969.531L5.5 7l.531-.969L7 5.5l-.969-.531zM10.5 4l-.531.969L9 5.5l.969.531L10.5 7l.531-.969L12 5.5l-.969-.531z"/><path style="opacity:.7;fill:#000" d="M17.172 4 4 17.172 6.828 20 20 6.828z"/><path style="fill:#fff;fill-opacity:1" d="m17.104 5.482 1.414 1.414-3.098 3.1-1.416-1.416z"/><path style="opacity:1;fill:gray;fill-opacity:1" d="m7.5 8-.531.969L6 9.5l.969.531L7.5 11l.531-.969L9 9.5l-.969-.531z"/><rect style="opacity:1;fill:#fa9381;fill-opacity:1;stroke:none;stroke-width:1.00675654;stroke-linecap:round;stroke-linejoin:round;stroke-miterlimit:4;stroke-dasharray:none;stroke-opacity:1" width="11.149" height="2" x="-8.314" y="15.972" ry="0" transform="rotate(-45)"/></svg>