<svg viewBox="0 0 24 24" xmlns="http://www.w3.org/2000/svg"><path style="opacity:1;fill:#fff;fill-opacity:1;stroke:none;stroke-width:2;stroke-linecap:round;stroke-linejoin:round;stroke-miterlimit:4;stroke-dasharray:none;stroke-opacity:1" transform="rotate(-90)" d="M-20 4h16v16h-16z"/><path style="fill:#6d6d6d;fill-opacity:1" d="M3 18c0 2 0 3 2 3h14c2 0 2-1 2-3V6c0-2 0-3-2-3H5C3 3 3 4 3 6zm5 2V4h11c1 0 1 1 1 2v12c0 1 0 2-1 2z"/><path style="fill:#787859;fill-opacity:1;stroke:none;stroke-width:1px;stroke-linecap:butt;stroke-linejoin:miter;stroke-opacity:1" d="m16 12-4 3v-2H8v-2h4V9z"/></svg>