<svg xmlns="http://www.w3.org/2000/svg" height="24" viewBox="0 0 6.35 6.35" width="24"><linearGradient id="b" gradientTransform="matrix(.26458 0 0 .26458 -20.905 216.09)" gradientUnits="userSpaceOnUse" x1="105.472" x2="105.472" y1="283.477" y2="303.339"><stop offset="0" stop-color="#fff"/><stop offset=".063" stop-color="#fff" stop-opacity=".235"/><stop offset=".951" stop-color="#fff" stop-opacity=".157"/><stop offset="1" stop-color="#fff" stop-opacity=".392"/></linearGradient><linearGradient id="a" gradientTransform="matrix(.93897 0 0 .26458 -217.548 281.708)" gradientUnits="userSpaceOnUse" x1="236.195" x2="236.195" y1="35.804" y2="53.804"><stop offset="0" stop-color="#f4f4f4" stop-opacity=".746"/><stop offset=".5" stop-color="#f7f7f7"/><stop offset="1" stop-color="#dcdcdc"/></linearGradient><path d="M.806 290.92a.529.529 0 0 0-.529.53l-.005 2.425c0 .282.22.51.499.526l7.09-.007a.529.529 0 0 0 .53-.53l.004-2.425c0-.282-.22-.51-.497-.526z" style="opacity:.2;fill:none;stroke:#000;stroke-width:.386578;stroke-linecap:round;stroke-linejoin:round" transform="matrix(.68442 0 0 .68442 .206 -197.124)"/><path d="M1 291.111a.525.525 0 0 0-.529.53l.024 1.978a.531.531 0 0 0 .53.53l6.688.035a.525.525 0 0 0 .53-.529l-.025-1.978a.531.531 0 0 0-.53-.53z" fill="url(#a)" transform="matrix(.68442 0 0 .68442 .206 -197.124)"/><path d="m7.73 291.318-6.79-.001a.264.264 0 0 0-.264.264l-.007 2.134c0 .142.111.255.251.262l6.8.003a.264.264 0 0 0 .265-.265l.007-2.133a.263.263 0 0 0-.263-.264z" fill="none" stroke="url(#b)" stroke-linecap="round" stroke-linejoin="round" stroke-width=".387" transform="matrix(.68442 0 0 .68442 .206 -197.124)"/><g fill="#fff" fill-opacity=".846"><path d="M2.117 3.175h.264v.265h-.264z"/><path d="M2.381 2.91h.265v.265H2.38zM2.646 3.175h.264v.265h-.264zM2.117 3.44h.264v.264h-.264zM2.646 3.44h.264v.264h-.264zM2.381 3.704h.265v.265H2.38zM3.175 2.91h.265v.265h-.265z"/><path d="M3.175 3.175h.265v.265h-.265zM3.175 3.44h.265v.264h-.265zM3.175 3.704h.265v.265h-.265zM3.704 2.91h.265v.265h-.265zM3.44 3.175h.264v.265H3.44zM3.704 3.44h.265v.264h-.265zM3.704 3.704h.265v.265h-.265z"/></g><g fill="#4d4d4d" stroke-width=".387"><path d="M2.117 2.91h.264v.265h-.264zM2.381 2.646h.265v.264H2.38zM2.646 2.91h.264v.265h-.264z"/><path d="M2.117 3.175h.264v.265h-.264zM2.646 3.175h.264v.265h-.264zM2.381 3.44h.265v.264H2.38zM3.175 2.646h.265v.264h-.265zM3.175 2.91h.265v.265h-.265z"/><path d="M3.175 3.175h.265v.265h-.265zM3.175 3.44h.265v.264h-.265zM3.704 2.646h.265v.264h-.265zM3.44 2.91h.264v.265H3.44zM3.704 3.175h.265v.265h-.265zM3.704 3.44h.265v.264h-.265z"/></g></svg>