<svg xmlns="http://www.w3.org/2000/svg" xmlns:xlink="http://www.w3.org/1999/xlink" viewBox="0 0 16 16"><defs><linearGradient id="a"><stop style="stop-color:#151515;stop-opacity:1" offset="0"/><stop style="stop-color:#4d4d4d;stop-opacity:1" offset="1"/></linearGradient><linearGradient xlink:href="#a" id="b" x1="8" y1="3" x2="8" y2="15" gradientUnits="userSpaceOnUse" gradientTransform="translate(-.006 -.016)"/><linearGradient xlink:href="#a" id="c" gradientUnits="userSpaceOnUse" gradientTransform="translate(-.006 -.016)" x1="8" y1="3" x2="8" y2="15"/><linearGradient xlink:href="#a" id="d" gradientUnits="userSpaceOnUse" gradientTransform="matrix(-1 0 0 1 13.006 -.016)" x1="8" y1="3" x2="8" y2="15"/></defs><path style="fill:url(#b);fill-opacity:1;stroke:#fff;stroke-width:2;stroke-linejoin:round" d="M4 3c-1.104.017-2 .895-2 2v2.5a.503.503 0 0 1-.5.5H1v2h.5c.276 0 .5.226.5.502v2.5a2 2 0 0 0 2 2l.994-.018v-1h-1c-.552 0-.99-.447-1-1v-3a1.5 1.5 0 0 0-.375-1c.236-.265.382-.617.375-1v-3c0-.552.452-1.069 1-1h1v-1z"/><path style="fill:url(#c);fill-opacity:1" d="M4 3c-1.104.017-2 .895-2 2v2.5a.503.503 0 0 1-.5.5H1v2h.5c.276 0 .5.226.5.502v2.5a2 2 0 0 0 2 2l.994-.018v-1h-1c-.552 0-.99-.447-1-1v-3a1.5 1.5 0 0 0-.375-1c.236-.265.382-.617.375-1v-3c0-.552.452-1.069 1-1h1v-1z"/><path style="fill:#787859;fill-opacity:1;stroke:none;stroke-width:1px;stroke-linecap:butt;stroke-linejoin:miter;stroke-opacity:1" d="m12.977 2.47-3-2.5.017 5.014z" transform="rotate(90 10.99 4.995)"/><path style="color:#000;font-style:normal;font-variant:normal;font-weight:400;font-stretch:normal;font-size:medium;line-height:normal;font-family:sans-serif;font-variant-ligatures:normal;font-variant-position:normal;font-variant-caps:normal;font-variant-numeric:normal;font-variant-alternates:normal;font-variant-east-asian:normal;font-feature-settings:normal;font-variation-settings:normal;text-indent:0;text-align:start;text-decoration:none;text-decoration-line:none;text-decoration-style:solid;text-decoration-color:#000;letter-spacing:normal;word-spacing:normal;text-transform:none;writing-mode:lr-tb;direction:ltr;text-orientation:mixed;dominant-baseline:auto;baseline-shift:baseline;text-anchor:start;white-space:normal;shape-padding:0;shape-margin:0;inline-size:0;clip-rule:nonzero;display:inline;overflow:visible;visibility:visible;isolation:auto;mix-blend-mode:normal;color-interpolation:sRGB;color-interpolation-filters:linearRGB;solid-color:#000;solid-opacity:1;vector-effect:none;fill:#787859;fill-opacity:1;fill-rule:nonzero;stroke:none;stroke-width:1px;stroke-linecap:square;stroke-linejoin:miter;stroke-miterlimit:4;stroke-dasharray:none;stroke-dashoffset:0;stroke-opacity:1;color-rendering:auto;image-rendering:auto;shape-rendering:auto;text-rendering:auto;enable-background:accumulate;stop-color:#000" d="M6.994 7.984h1c.002-.732.01-3.345.045-3.771.044-.526.139-.806.23-.928.092-.122.207-.19.565-.244.358-.053.91-.057 1.66-.057h.5v-1h-.5c-.75 0-1.323-.003-1.808.069-.486.072-.934.253-1.217.63-.284.379-.376.849-.426 1.448-.04.486-.048 3.114-.049 3.853z" transform="rotate(90 10.99 4.995)"/><path style="color:#000;font-style:normal;font-variant:normal;font-weight:400;font-stretch:normal;font-size:medium;line-height:normal;font-family:sans-serif;font-variant-ligatures:normal;font-variant-position:normal;font-variant-caps:normal;font-variant-numeric:normal;font-variant-alternates:normal;font-variant-east-asian:normal;font-feature-settings:normal;font-variation-settings:normal;text-indent:0;text-align:start;text-decoration:none;text-decoration-line:none;text-decoration-style:solid;text-decoration-color:#000;letter-spacing:normal;word-spacing:normal;text-transform:none;writing-mode:lr-tb;direction:ltr;text-orientation:mixed;dominant-baseline:auto;baseline-shift:baseline;text-anchor:start;white-space:normal;shape-padding:0;shape-margin:0;inline-size:0;clip-rule:nonzero;display:inline;overflow:visible;visibility:visible;isolation:auto;mix-blend-mode:normal;color-interpolation:sRGB;color-interpolation-filters:linearRGB;solid-color:#000;solid-opacity:1;vector-effect:none;fill:#fff;fill-opacity:1;fill-rule:nonzero;stroke:none;stroke-width:2;stroke-linecap:butt;stroke-linejoin:round;stroke-miterlimit:4;stroke-dasharray:none;stroke-dashoffset:0;stroke-opacity:1;color-rendering:auto;image-rendering:auto;shape-rendering:auto;text-rendering:auto;enable-background:accumulate;stop-color:#000;stop-opacity:1;opacity:1" d="M7.006 3.498v.486a1 1 0 0 0 1 1h1v2.983c-.007.39.223.684.379 1.013-.154.329-.38.627-.38 1.004v3h-1a1 1 0 0 0-1 1v1a1 1 0 0 0 .983 1l.994.018a1 1 0 0 0 .018 0c1.645 0 3-1.355 3-3V11a1 1 0 0 0 1-1V8.695L8.62 3.504c-.191 0-.51-.004-.624-.004l-.99-.002z"/><path style="fill:url(#d);fill-opacity:1" d="M8.006 3.5v.484h1.02l-.407-.48c-.187 0-.495-.004-.613-.004zm2 1.646v2.838c-.007.383.14.735.375 1a1.5 1.5 0 0 0-.375 1v3c-.01.553-.448 1-1 1h-1v1l.994.018a2 2 0 0 0 2-2v-2.5c0-.276.224-.502.5-.502h.5V8h-.5a.503.503 0 0 1-.5-.5V6.326l-.994-1.18z"/></svg>