<svg xmlns="http://www.w3.org/2000/svg" xmlns:xlink="http://www.w3.org/1999/xlink" height="16" width="24"><defs><linearGradient xlink:href="#a" id="b" x1="3" y1="3" x2="3" y2="8" gradientUnits="userSpaceOnUse"/><linearGradient id="a"><stop style="stop-color:#151515;stop-opacity:1" offset="0"/><stop style="stop-color:#4d4d4d;stop-opacity:1" offset="1"/></linearGradient></defs><path style="opacity:1;fill:#000;stroke:#fff;stroke-width:2;stroke-linejoin:round;stroke-miterlimit:4;stroke-dasharray:none" d="M2 3v5h2.5A1.5 1.5 0 0 0 6 6.5c0-.533-.268-1.015-.687-1.281.115-.213.187-.46.187-.719A1.5 1.5 0 0 0 4 3H2.5zm1 1h1a.5.5 0 0 1 0 1H3zm0 2h1.5a.5.5 0 0 1 0 1H3zM9 3v5h2.5A1.5 1.5 0 0 0 13 6.5v-2A1.5 1.5 0 0 0 11.5 3H10zm1 1h1.5a.5.5 0 0 1 .5.5v2a.5.5 0 0 1-.5.5H10z"/><path style="fill:#7764D8;fill-opacity:1;stroke:none;stroke-width:1px;stroke-linecap:butt;stroke-linejoin:miter;stroke-opacity:1" d="m2 10 4 2-4 2zM13 10l-4 2 4 2z"/><path style="fill:url(#b);fill-opacity:1" d="M2 3v5h2.5A1.5 1.5 0 0 0 6 6.5c0-.533-.268-1.015-.688-1.281.116-.213.188-.46.188-.719A1.5 1.5 0 0 0 4 3H2.5zm7 0v5h2.5A1.5 1.5 0 0 0 13 6.5v-2A1.5 1.5 0 0 0 11.5 3H10zM3 4h1a.5.5 0 0 1 0 1H3zm7 0h1.5a.5.5 0 0 1 .5.5v2a.505.505 0 0 1-.5.5H10zM3 6h1.5a.5.5 0 0 1 0 1H3z"/></svg>