<svg xmlns="http://www.w3.org/2000/svg" viewBox="0 0 24 24"><path d="M12 3a4 4 0 0 0-4 4 4 4 0 0 0 4 4 4 4 0 0 0 4-4 4 4 0 0 0-4-4zm0 8.943c-3.897 0-6 2.16-6 6.057v2h12v-2c0-3.897-2.103-6.057-6-6.057z" style="opacity:.7;fill:#000;fill-opacity:1;stroke:#000;stroke-width:2;stroke-linejoin:round;stroke-miterlimit:4;stroke-dasharray:none;stroke-opacity:1"/><path style="opacity:1;fill:#aee3f8;fill-opacity:1;stroke:none;stroke-width:1.88605523;stroke-linejoin:round;stroke-miterlimit:4;stroke-dasharray:none;stroke-opacity:1" d="M12 3a4 4 0 0 0-4 4 4 4 0 0 0 4 4 4 4 0 0 0 4-4 4 4 0 0 0-4-4zm0 8.943c-3.897 0-6 2.16-6 6.057v2h12v-2c0-3.897-2.103-6.057-6-6.057z"/></svg>