<svg xmlns="http://www.w3.org/2000/svg" viewBox="0 0 24 24"><path style="fill:#308280;fill-opacity:1;stroke:none;stroke-width:1px;stroke-linecap:butt;stroke-linejoin:miter;stroke-opacity:1" d="m3 18 5-2.5L3 13z"/><path style="fill:#fff;fill-rule:evenodd;stroke-width:3;stroke-linecap:round;stroke-linejoin:round" transform="scale(-1)" d="M-21-14h10v1h-10z"/><path style="fill:#232629;fill-rule:evenodd;stroke-width:3;stroke-linecap:round;stroke-linejoin:round" transform="scale(-1)" d="M-21-13h10v1h-10z"/><path style="fill:#fff;fill-rule:evenodd;stroke-width:3;stroke-linecap:round;stroke-linejoin:round" transform="scale(-1)" d="M-21-16h10v1h-10z"/><path style="fill:#232629;fill-rule:evenodd;stroke-width:3;stroke-linecap:round;stroke-linejoin:round" transform="scale(-1)" d="M-21-15h10v1h-10z"/><path style="fill:#fff;fill-rule:evenodd;stroke-width:3;stroke-linecap:round;stroke-linejoin:round" transform="scale(-1)" d="M-21-18h10v1h-10z"/><path style="fill:#232629;fill-rule:evenodd;stroke-width:3;stroke-linecap:round;stroke-linejoin:round" transform="scale(-1)" d="M-21-17h10v1h-10z"/><path style="fill:#fff;fill-rule:evenodd;stroke-width:3;stroke-linecap:round;stroke-linejoin:round" transform="scale(-1)" d="M-21-20h10v1h-10z"/><path style="fill:#232629;fill-rule:evenodd;stroke-width:3;stroke-linecap:round;stroke-linejoin:round" transform="scale(-1)" d="M-21-19h10v1h-10z"/><path style="fill:#fff;fill-rule:evenodd;stroke-width:3;stroke-linecap:round;stroke-linejoin:round" transform="scale(-1)" d="M-21-7h18v1h-18z"/><path style="fill:#232629;fill-rule:evenodd;stroke-width:3;stroke-linecap:round;stroke-linejoin:round" transform="scale(-1)" d="M-21-6h18v1h-18z"/><path style="fill:#fff;fill-rule:evenodd;stroke-width:2.99999;stroke-linecap:round;stroke-linejoin:round" transform="scale(-1)" d="M-21-11h18v1h-18z"/><path style="fill:#232629;fill-rule:evenodd;stroke-width:2.99999;stroke-linecap:round;stroke-linejoin:round" transform="scale(-1)" d="M-21-10h18v1h-18z"/><path style="fill:#fff;fill-rule:evenodd;stroke-width:2.99999;stroke-linecap:round;stroke-linejoin:round" transform="scale(-1)" d="M-21-9h18v1h-18z"/><path style="fill:#232629;fill-rule:evenodd;stroke-width:2.99999;stroke-linecap:round;stroke-linejoin:round" transform="scale(-1)" d="M-21-8h18v1h-18z"/></svg>