<svg xmlns="http://www.w3.org/2000/svg" viewBox="0 0 24 24"><path style="opacity:1;fill:#6d6d6d;stroke:#6d6d6d;stroke-width:2;stroke-linejoin:round;stroke-miterlimit:4;stroke-dasharray:none;fill-opacity:1;stroke-opacity:1" d="M8 20c-2 0-3 0-3-2V6c0-2 1-2 3-2h8c2 0 3 0 3 2v12c0 2-1 2-3 2z"/><path d="M8 20c-2 0-3 0-3-2V6c0-2 1-2 3-2h6l5 5v9c0 2-1 2-3 2z" style="fill:#fff"/><path d="M4 12v4c-.022 4.421.453 4.875 4.865 4.875h6.27C19.547 20.875 20 20.421 20 16v-4z" style="color:#000;display:inline;overflow:visible;visibility:visible;opacity:.1;fill:#fff;fill-opacity:1;fill-rule:nonzero;stroke:none;stroke-width:1;marker:none;enable-background:accumulate"/></svg>