<svg xmlns="http://www.w3.org/2000/svg" viewBox="0 0 24 24"><path style="fill:#000;stroke:#000;opacity:.7;stroke-width:2;stroke-miterlimit:4;stroke-dasharray:none;stroke-linejoin:round" fill="#232629" d="M4 4v1h1V4zm14.563 0L4 18.563V20h1.438L20 5.437zM4 7v1h1V7zm0 3v1h1v-1zm0 3v1h1v-1zm0 3v1h1v-1zm3 3v1h1v-1zm3 0v1h1v-1zm3 0v1h1v-1zm3 0v1h1v-1zm3 0v1h1v-1z"/><path d="M4 4v1h1V4zm14.563 0L4 18.563V20h1.438L20 5.437zM4 7v1h1V7zm0 3v1h1v-1zm0 3v1h1v-1zm0 3v1h1v-1zm3 3v1h1v-1zm3 0v1h1v-1zm3 0v1h1v-1zm3 0v1h1v-1zm3 0v1h1v-1z" fill="#232629" style="fill:#fff"/></svg>