<svg height="24" width="24" xmlns="http://www.w3.org/2000/svg"><path style="opacity:.7;fill:#000;stroke:#000;stroke-width:2;stroke-linejoin:round;stroke-miterlimit:4;stroke-dasharray:none" d="M8 20c-2 0-3 0-3-2V6c0-2 1-2 3-2h7l1 1 2 2 1 1v10c0 2-1 2-3 2z"/><path d="M8 20c-2 0-3 0-3-2V6c0-2 1-2 3-2h7l1 1 2 2 1 1v10c0 2-1 2-3 2z" style="fill:#fff"/><path d="M15 8V4l4 4z" style="fill:#6d6d6d;fill-opacity:1"/><path style="fill:#6d6d6d;fill-opacity:1;fill-rule:evenodd;stroke:none;stroke-width:1.6;stroke-linecap:square;stroke-linejoin:round" d="M6 7h1v1H6zM3 7h2v1H3zM6 9h1v1H6zM3 9h2v1H3zM6 11h1v1H6zM3 11h2v1H3zM6 13h1v1H6zM3 13h2v1H3zM6 15h1v1H6zM3 15h2v1H3zM6 17h1v1H6zM3 17h2v1H3z"/><path d="M11 15c0-.592.062-1.006.16-1.266s.203-.371.387-.472c.366-.203 2.183-.262 3.457-.262h.533l2.115 2 .46.254h2.237c1.263.015 1.74.06 2.107.262.183.1.288.212.386.472.098.26.162.674.161 1.266V21c0 .592-.063 1.006-.16 1.266-.098.26-.203.371-.387.472-.365.202-1.192.247-2.451.262h-5.008c-1.259-.015-3.085-.06-3.45-.262-.184-.1-.29-.212-.387-.472-.097-.26-.16-.674-.16-1.266v-1z" style="color:#000;font-weight:400;line-height:normal;font-family:sans-serif;font-variant-ligatures:none;font-variant-position:normal;font-variant-caps:normal;font-variant-numeric:normal;font-variant-alternates:normal;font-feature-settings:normal;text-indent:0;text-align:start;text-decoration:none;text-decoration-line:none;text-decoration-style:solid;text-decoration-color:#000;text-transform:none;white-space:normal;shape-padding:0;overflow:visible;opacity:.7;isolation:auto;mix-blend-mode:normal;fill:#000;fill-opacity:1;stroke:#000;stroke-width:2;stroke-linejoin:round;stroke-miterlimit:4;stroke-dasharray:none;stroke-opacity:1;marker:none"/><path style="color:#000;font-weight:400;line-height:normal;font-family:sans-serif;font-variant-ligatures:none;font-variant-position:normal;font-variant-caps:normal;font-variant-numeric:normal;font-variant-alternates:normal;font-feature-settings:normal;text-indent:0;text-align:start;text-decoration:none;text-decoration-line:none;text-decoration-style:solid;text-decoration-color:#000;text-transform:none;white-space:normal;shape-padding:0;overflow:visible;isolation:auto;mix-blend-mode:normal;fill:#b3b3b3;fill-opacity:1;stroke-width:.999667;stroke-linejoin:round;marker:none" d="M11 15c0-.592.062-1.006.16-1.266s.203-.371.387-.472c.366-.203 2.183-.262 3.457-.262h.533l2.115 2 .46.254h2.237c1.263.015 1.74.06 2.107.262.183.1.288.212.386.472.098.26.162.674.161 1.266V21c0 .592-.063 1.006-.16 1.266-.098.26-.203.371-.387.472-.365.202-1.192.247-2.451.262h-5.008c-1.259-.015-3.085-.06-3.45-.262-.184-.1-.29-.212-.387-.472-.097-.26-.16-.674-.16-1.266v-1z"/></svg>