<svg xmlns="http://www.w3.org/2000/svg" viewBox="0 0 16 16"><path style="color:#000;font-style:normal;font-variant:normal;font-weight:400;font-stretch:normal;font-size:medium;line-height:normal;font-family:sans-serif;font-variant-ligatures:normal;font-variant-position:normal;font-variant-caps:normal;font-variant-numeric:normal;font-variant-alternates:normal;font-variant-east-asian:normal;font-feature-settings:normal;font-variation-settings:normal;text-indent:0;text-align:start;text-decoration:none;text-decoration-line:none;text-decoration-style:solid;text-decoration-color:#000;letter-spacing:normal;word-spacing:normal;text-transform:none;writing-mode:lr-tb;direction:ltr;text-orientation:mixed;dominant-baseline:auto;baseline-shift:baseline;text-anchor:start;white-space:normal;shape-padding:0;shape-margin:0;inline-size:0;clip-rule:nonzero;display:inline;overflow:visible;visibility:visible;isolation:auto;mix-blend-mode:normal;color-interpolation:sRGB;color-interpolation-filters:linearRGB;solid-color:#000;solid-opacity:1;vector-effect:none;fill:#000;fill-opacity:1;fill-rule:nonzero;stroke:none;stroke-width:2;stroke-linecap:butt;stroke-linejoin:round;stroke-miterlimit:4;stroke-dasharray:none;stroke-dashoffset:0;stroke-opacity:1;color-rendering:auto;image-rendering:auto;shape-rendering:auto;text-rendering:auto;enable-background:accumulate;stop-color:#000;stop-opacity:1;opacity:.7" d="M6 1c-1 0-1.84-.073-2.697.355-.43.215-.82.613-1.03 1.083C2.065 2.907 2 3.417 2 4v8c0 .583.065 1.093.273 1.563.21.47.6.867 1.03 1.082C4.16 15.073 5 15 6 15h1v-2H6c-1 0-1.66-.073-1.803-.145-.07-.035-.054-.012-.095-.105C4.06 12.657 4 12.417 4 12V4c0-.417.06-.657.102-.75.04-.093.024-.07.095-.105C4.34 3.073 5 3 6 3h3.586L12 5.414V9.82l2 1.25V5a1 1 0 0 0-.293-.707l-3-3A1 1 0 0 0 10 1H6z"/><path style="fill:#fff" d="M6 2C4 2 3 2 3 4v8c0 2 1 2 3 2h1v-2h4V9.195l2 1.25V5l-3-3H6z"/><path d="M10 5V2l3 3z" style="fill:#6d6d6d;fill-opacity:1"/><path d="M16 13.5 12 11v2H8v1h4v2z" style="fill:#308280;fill-opacity:1;stroke:none;stroke-width:1px;stroke-linecap:butt;stroke-linejoin:miter;stroke-opacity:1"/></svg>