<svg xmlns="http://www.w3.org/2000/svg" viewBox="0 0 16 16">/&gt;<path d="M2 5c0-.592.062-1.006.16-1.266s.203-.371.387-.472C2.912 3.059 4.729 3 6.003 3h.534l2.115 2 .46.254H11.348c1.263.015 1.74.06 2.107.262.183.1.288.212.386.472.098.26.162.674.162 1.266V11c0 .592-.063 1.006-.16 1.266-.098.26-.203.371-.387.472-.366.202-1.192.247-2.452.262H5.997c-1.26-.015-3.085-.06-3.45-.262-.185-.1-.29-.212-.388-.472C2.062 12.006 2 11.592 2 11v-1z" style="color:#000;font-weight:400;line-height:normal;font-family:sans-serif;font-variant-ligatures:none;font-variant-position:normal;font-variant-caps:normal;font-variant-numeric:normal;font-variant-alternates:normal;font-feature-settings:normal;text-indent:0;text-align:start;text-decoration:none;text-decoration-line:none;text-decoration-style:solid;text-decoration-color:#000;text-transform:none;white-space:normal;shape-padding:0;overflow:visible;opacity:.7;isolation:auto;mix-blend-mode:normal;fill:#000;fill-opacity:1;stroke:#000;stroke-width:2;stroke-linejoin:round;stroke-miterlimit:4;stroke-dasharray:none;stroke-opacity:1;marker:none"/><path style="color:#000;font-weight:400;line-height:normal;font-family:sans-serif;font-variant-ligatures:none;font-variant-position:normal;font-variant-caps:normal;font-variant-numeric:normal;font-variant-alternates:normal;font-feature-settings:normal;text-indent:0;text-align:start;text-decoration:none;text-decoration-line:none;text-decoration-style:solid;text-decoration-color:#000;text-transform:none;white-space:normal;shape-padding:0;overflow:visible;isolation:auto;mix-blend-mode:normal;fill:#b3b3b3;fill-opacity:1;stroke-width:.99966687;stroke-linejoin:round;marker:none" d="M2 5c0-.592.062-1.006.16-1.266s.203-.371.387-.472C2.912 3.059 4.729 3 6.003 3h.534l2.115 2 .46.254H11.348c1.263.015 1.74.06 2.107.262.183.1.288.212.386.472.098.26.162.674.162 1.266V11c0 .592-.063 1.006-.16 1.266-.098.26-.203.371-.387.472-.366.202-1.192.247-2.452.262H5.997c-1.26-.015-3.085-.06-3.45-.262-.185-.1-.29-.212-.388-.472C2.062 12.006 2 11.592 2 11v-1z"/><rect style="opacity:.4;vector-effect:none;fill:#000;fill-opacity:1;stroke:none;stroke-width:1.27272725;stroke-linecap:round;stroke-linejoin:round;stroke-miterlimit:4;stroke-dasharray:none;stroke-dashoffset:0;stroke-opacity:1" width="7" height="8" x="7" y="8" ry="1" rx="1.273"/><rect style="opacity:1;vector-effect:none;fill:#fff;fill-opacity:1;stroke:none;stroke-width:1.27272725;stroke-linecap:round;stroke-linejoin:round;stroke-miterlimit:4;stroke-dasharray:none;stroke-dashoffset:0;stroke-opacity:1" width="5" height="6" x="8" y="9" rx="0" ry="1"/><path style="opacity:1;vector-effect:none;fill:#a7a7f1;fill-opacity:1;stroke:none;stroke-width:1.27272725;stroke-linecap:round;stroke-linejoin:round;stroke-miterlimit:4;stroke-dasharray:none;stroke-dashoffset:0;stroke-opacity:1" d="M9 10h3v1H9zM9 12h2v1H9z"/></svg>