<svg xmlns="http://www.w3.org/2000/svg" viewBox="0 0 32 32"><path d="M7.01 2.973c-1.257.014-2.178-.03-2.93.385a1.88 1.88 0 0 0-.839.998c-.164.438-.224.96-.224 1.617v19c0 .658.06 1.179.224 1.618.165.438.462.788.838.996.753.415 1.674.371 2.932.386h18.012c1.258-.014 2.178.031 2.931-.384a1.88 1.88 0 0 0 .838-.998c.165-.44.225-.96.225-1.618v-19c0-.658-.06-1.179-.225-1.617a1.875 1.875 0 0 0-.838-.996c-.753-.416-1.673-.372-2.932-.387H7.015z" style="font-style:normal;font-variant:normal;font-weight:400;font-stretch:normal;font-size:15px;line-height:125%;font-family:Ubuntu;-inkscape-font-specification:Ubuntu;text-align:center;letter-spacing:0;word-spacing:0;writing-mode:lr-tb;text-anchor:middle;display:inline;opacity:.7;fill:#000;fill-opacity:1;stroke:none;stroke-width:.99980211"/><path d="M12 4c-1.557.01-5.11-.012-6.66.039-.461.042-1.016.206-1.155.71-.22.635-.109 1.334-.146 1.982-.008 2.297-.023 16.596.021 18.885.04.462.203 1.013.7 1.164.632.225 1.283.123 1.935.154 1.424.007 12.85.011 14.277.012 1.704 0 3.408-.005 5.107-.019.512-.012 1.183.02 1.585-.405.42-.54.287-1.268.322-1.904.012-2.444.028-16.91-.022-19.357-.049-.402-.17-.863-.575-1.044-.668-.294-1.426-.168-2.126-.206C23.51 4 13.754 4 12 4Z" style="opacity:1;vector-effect:none;fill:#fff;fill-opacity:1;stroke:none;stroke-width:1;stroke-linecap:round;stroke-linejoin:bevel;stroke-miterlimit:4;stroke-dasharray:none;stroke-dashoffset:0;stroke-opacity:1"/><path d="M6.01 6.973v1h20v-1Zm0 4v1h20v-1zm0 4v1h20v-1zm0 4v1h10v-1zm18 0v1h2v-1zm-18 4v1h20v-1z" style="fill:#232629"/><path d="M17.01 17.973v3h6v-3z" style="fill:#d85eca;fill-opacity:1"/></svg>