<svg xmlns="http://www.w3.org/2000/svg" xmlns:xlink="http://www.w3.org/1999/xlink" viewBox="0 0 32 32"><defs><linearGradient xlink:href="#a" id="f" x1="22.245" y1="-345.069" x2="38.245" y2="-345.069" gradientUnits="userSpaceOnUse" gradientTransform="rotate(-90 31.657 -357.412)"/><linearGradient id="a"><stop offset="0" style="stop-color:#4d4d4d;stop-opacity:1"/><stop offset="1" style="stop-color:#151515;stop-opacity:1"/></linearGradient><linearGradient id="b" gradientTransform="matrix(3.54885 0 0 1 -822.227 -30.258)" gradientUnits="userSpaceOnUse" x1="235.915" x2="235.888" y1="35.258" y2="57.14"><stop offset="0" stop-color="#f4f4f4" stop-opacity=".746"/><stop offset=".5" stop-color="#f7f7f7"/><stop offset="1" stop-color="#dcdcdc"/></linearGradient><linearGradient id="c" gradientTransform="matrix(1 0 0 1 -79.013 -278.258)" gradientUnits="userSpaceOnUse" x1="105.472" x2="105.472" y1="283.477" y2="303.339"><stop offset="0" stop-color="#fff"/><stop offset=".063" stop-color="#fff" stop-opacity=".235"/><stop offset=".951" stop-color="#fff" stop-opacity=".157"/><stop offset="1" stop-color="#fff" stop-opacity=".392"/></linearGradient><filter style="color-interpolation-filters:sRGB" id="e" x="-.324" width="1.647" y="-.191" height="1.382"><feGaussianBlur stdDeviation="1.256"/></filter><filter style="color-interpolation-filters:sRGB" id="d" x="-.162" width="1.324" y="-.095" height="1.191"><feGaussianBlur stdDeviation=".628"/></filter></defs><path style="fill:url(#b)" d="M3.998 4.033c-1.108 0-2 .892-2 2l.001 11.013c0 1.108.892 2 2 2h24.49c1.109 0 2-.892 2-2V6.033c0-1.108-.893-2-2-2z" transform="translate(.005 -1.54)"/><g style="fill:none;stroke-linecap:round;stroke-linejoin:round"><path style="stroke:url(#c)" d="M28.496 5.035 3.51 5.043c-.554 0-1 .446-1 1l.001 11.013c0 .537.422.964.951.99H28.49c.554 0 1-.446 1-1l-.002-11.013a.997.997 0 0 0-.992-.998z" transform="translate(.005 -1.54)"/><path style="opacity:.2;stroke:#000" d="M3.5 4.045c-1.108 0-2 .892-2 2l.001 11.013a1.99 1.99 0 0 0 1.885 1.988H28.49c1.108 0 2-.892 2-2l-.002-11.013a1.99 1.99 0 0 0-1.879-1.988Z" transform="translate(.005 -1.54)"/></g><g style="fill:#fbfbfb"><path d="M9.005 9h2v2h-2zM11.005 7h2v2h-2zM13.005 9h2v2h-2zM9.005 11h2v2h-2zM13.005 11h2v2h-2zM11.005 13h2v2h-2zM17.005 7h2v2h-2zM17.005 9h2v2h-2zM17.005 11h2v2h-2zM17.005 13h2v2h-2zM21.005 7h2v2h-2zM19.005 9h2v2h-2zM21.005 11h2v2h-2zM21.005 13h2v2h-2z"/></g><g style="fill:#7c7c7c"><path d="M9.005 8h2v2h-2zM11.005 6h2v2h-2zM13.005 8h2v2h-2zM9.005 10h2v2h-2zM13.005 10h2v2h-2zM11.005 12h2v2h-2zM17.005 6h2v2h-2zM17.005 8h2v2h-2zM17.005 10h2v2h-2zM17.005 12h2v2h-2zM21.005 6h2v2h-2zM19.005 8h2v2h-2zM21.005 10h2v2h-2zM21.005 12h2v2h-2z"/></g><path style="color:#000;font-style:normal;font-variant:normal;font-weight:400;font-stretch:normal;font-size:medium;line-height:normal;font-family:sans-serif;font-variant-ligatures:normal;font-variant-position:normal;font-variant-caps:normal;font-variant-numeric:normal;font-variant-alternates:normal;font-feature-settings:normal;text-indent:0;text-align:start;text-decoration:none;text-decoration-line:none;text-decoration-style:solid;text-decoration-color:#000;letter-spacing:normal;word-spacing:normal;text-transform:none;writing-mode:lr-tb;direction:ltr;text-orientation:mixed;dominant-baseline:auto;baseline-shift:baseline;text-anchor:start;white-space:normal;shape-padding:0;clip-rule:nonzero;display:inline;overflow:visible;visibility:visible;opacity:.7;isolation:auto;mix-blend-mode:normal;color-interpolation:sRGB;color-interpolation-filters:linearRGB;solid-color:#000;solid-opacity:1;vector-effect:none;fill:#000;fill-opacity:1;fill-rule:evenodd;stroke:none;stroke-width:1;stroke-linecap:butt;stroke-linejoin:miter;stroke-miterlimit:4;stroke-dasharray:none;stroke-dashoffset:0;stroke-opacity:1;filter:url(#d);color-rendering:auto;image-rendering:auto;shape-rendering:auto;text-rendering:auto;enable-background:accumulate" d="M16.5 12.32V28.927l3.49-4.258 1.746 4.213a1.5 1.5 0 0 0 .872.87c.37.13.759.098 1.095-.042.336-.139.634-.392.803-.746.17-.354.183-.806 0-1.232l.004.006-1.824-4.402 4.838.011zm1 2.415 7.606 7.605-3.92-.01 2.4 5.793.002.002c.084.195.065.306.016.408a.547.547 0 0 1-.284.252.548.548 0 0 1-.378.022c-.107-.038-.2-.101-.278-.299l-.002-.002-2.387-5.762L17.5 26.13z"/><path style="color:#000;font-style:normal;font-variant:normal;font-weight:400;font-stretch:normal;font-size:medium;line-height:normal;font-family:sans-serif;font-variant-ligatures:normal;font-variant-position:normal;font-variant-caps:normal;font-variant-numeric:normal;font-variant-alternates:normal;font-feature-settings:normal;text-indent:0;text-align:start;text-decoration:none;text-decoration-line:none;text-decoration-style:solid;text-decoration-color:#000;letter-spacing:normal;word-spacing:normal;text-transform:none;writing-mode:lr-tb;direction:ltr;text-orientation:mixed;dominant-baseline:auto;baseline-shift:baseline;text-anchor:start;white-space:normal;shape-padding:0;clip-rule:nonzero;display:inline;overflow:visible;visibility:visible;opacity:.2;isolation:auto;mix-blend-mode:normal;color-interpolation:sRGB;color-interpolation-filters:linearRGB;solid-color:#000;solid-opacity:1;vector-effect:none;fill:#000;fill-opacity:1;fill-rule:evenodd;stroke:none;stroke-width:2;stroke-linecap:butt;stroke-linejoin:miter;stroke-miterlimit:4;stroke-dasharray:none;stroke-dashoffset:0;stroke-opacity:1;filter:url(#e);color-rendering:auto;image-rendering:auto;shape-rendering:auto;text-rendering:auto;enable-background:accumulate" d="M17 10.114V29.325l3.847-4.692 1.422 3.43c.218.547.67.981 1.172 1.158a2.019 2.019 0 0 0 1.453-.049c.44-.182.833-.512 1.063-.992.23-.48.24-1.107.007-1.648l-1.53-3.696 5.3.012zm2 4.828 5.894 5.894-3.457-.008-.02-.044L19 23.73z"/><g style="display:inline"><path style="display:inline;fill:none;fill-opacity:1;fill-rule:evenodd;stroke:#fff;stroke-width:2;stroke-linecap:butt;stroke-linejoin:miter;stroke-miterlimit:4;stroke-dasharray:none;stroke-opacity:1" d="M27-365.314v14l3.133-3.82 2.066 4.986c.5 1.256 2.383.476 1.848-.766l-2.111-5.096 4.378.01z" transform="translate(-10 377.842)"/><path d="M27-365.314v14l3.133-3.82 2.066 4.986c.5 1.256 2.383.476 1.848-.766l-2.111-5.096 4.378.01z" style="display:inline;fill:url(#f);fill-opacity:1;fill-rule:evenodd;stroke:none;stroke-width:2;stroke-linecap:butt;stroke-linejoin:miter;stroke-miterlimit:4;stroke-dasharray:none;stroke-opacity:1" transform="translate(-10 377.842)"/></g></svg>