<svg xmlns="http://www.w3.org/2000/svg" xmlns:xlink="http://www.w3.org/1999/xlink" width="32" height="32"><defs><linearGradient id="a"><stop style="stop-color:#151515;stop-opacity:1" offset="0"/><stop style="stop-color:#4d4d4d;stop-opacity:1" offset="1"/></linearGradient><linearGradient xlink:href="#a" id="b" x1="20.552" y1="5.023" x2="20.5" y2="27" gradientUnits="userSpaceOnUse"/></defs><path style="opacity:1;fill:#000;fill-rule:evenodd;stroke:#fff;stroke-width:2;stroke-linejoin:round" d="M20 5c-1.93 0-3.77.463-5.104 1.746C13.563 8.03 13 9.916 13 12a2 2 0 0 0 2 2 2 2 0 0 0 2-2c0-1.416.315-2.03.67-2.371C18.025 9.287 18.686 9 20 9c.896 0 1.887.53 2.227 1.31.34.781.409 2.273-1.77 4.919l-7 8.5a2 2 0 0 0-.455 1.207l-.002.002V27h14v-4h-7.764l4.307-5.229c2.736-3.321 3.43-6.579 2.352-9.056C24.817 6.237 22.348 5 20 5z"/><path d="M2 15h8v2H2Z" style="fill:#c7162b;stroke-width:1.54919"/><path style="opacity:1;fill:url(#b);fill-rule:evenodd;stroke:none;stroke-width:2;fill-opacity:1" d="M20 5c-1.93 0-3.77.463-5.104 1.746C13.563 8.03 13 9.916 13 12a2 2 0 0 0 2 2 2 2 0 0 0 2-2c0-1.416.315-2.03.67-2.371C18.025 9.287 18.686 9 20 9c.896 0 1.887.53 2.227 1.31.34.781.409 2.273-1.77 4.919l-7 8.5a2 2 0 0 0-.455 1.207l-.002.002V27h14v-4h-7.764l4.307-5.229c2.736-3.321 3.43-6.579 2.352-9.056C24.817 6.237 22.348 5 20 5z"/></svg>