<svg xmlns="http://www.w3.org/2000/svg" viewBox="0 0 32 32"><path d="M6.994 2.973c-1.258.014-2.179-.03-2.932.385a1.88 1.88 0 0 0-.837.998C3.06 4.794 3 5.316 3 5.973v20c0 .658.06 1.179.225 1.618.164.438.461.788.837.996.753.415 1.674.371 2.932.386h18.012c1.258-.014 2.179.031 2.932-.384a1.88 1.88 0 0 0 .837-.998c.165-.44.225-.96.225-1.618v-20c0-.658-.06-1.179-.225-1.617a1.875 1.875 0 0 0-.837-.996c-.753-.416-1.674-.372-2.932-.387H6.998z" style="font-style:normal;font-variant:normal;font-weight:400;font-stretch:normal;font-size:15px;line-height:125%;font-family:Ubuntu;-inkscape-font-specification:Ubuntu;text-align:center;letter-spacing:0;word-spacing:0;writing-mode:lr-tb;text-anchor:middle;display:inline;opacity:.7;fill:#000;fill-opacity:1;stroke:none;stroke-width:.99980211"/><path d="M11.983 4c-1.556.01-5.11-.012-6.66.039-.46.042-1.016.206-1.155.71-.219.635-.108 1.334-.146 1.982-.008 2.297-.023 17.596.022 19.885.039.462.202 1.013.699 1.164.632.225 1.284.123 1.936.154 1.424.007 12.85.011 14.276.012 1.704 0 3.408-.005 5.107-.019.512-.012 1.184.02 1.585-.405.421-.54.287-1.268.323-1.904.011-2.444.027-17.91-.022-20.357-.05-.402-.17-.862-.575-1.044-.669-.294-1.427-.168-2.126-.206C23.492 4 13.737 4 11.983 4z" style="opacity:1;vector-effect:none;fill:#fff;fill-opacity:1;stroke:none;stroke-width:1;stroke-linecap:round;stroke-linejoin:bevel;stroke-miterlimit:4;stroke-dasharray:none;stroke-dashoffset:0;stroke-opacity:1"/><circle style="opacity:1;fill:#aee3f8;fill-opacity:1;fill-rule:evenodd;stroke:none;stroke-width:2.33333325;stroke-linecap:butt;stroke-linejoin:round;stroke-miterlimit:4;stroke-dasharray:none;stroke-opacity:1" cx="24" cy="24" r="7"/><g style="display:inline"><path style="color:#000;font-style:normal;font-variant:normal;font-weight:400;font-stretch:normal;font-size:medium;line-height:normal;font-family:sans-serif;font-variant-ligatures:normal;font-variant-position:normal;font-variant-caps:normal;font-variant-numeric:normal;font-variant-alternates:normal;font-feature-settings:normal;text-indent:0;text-align:start;text-decoration:none;text-decoration-line:none;text-decoration-style:solid;text-decoration-color:#000;letter-spacing:normal;word-spacing:normal;text-transform:none;writing-mode:lr-tb;direction:ltr;text-orientation:mixed;dominant-baseline:auto;baseline-shift:baseline;text-anchor:start;white-space:normal;shape-padding:0;clip-rule:nonzero;display:inline;overflow:visible;visibility:visible;opacity:.7;isolation:auto;mix-blend-mode:normal;color-interpolation:sRGB;color-interpolation-filters:linearRGB;solid-color:#000;solid-opacity:1;vector-effect:none;fill:#000;fill-opacity:1;fill-rule:nonzero;stroke:none;stroke-width:1.00007653;stroke-linecap:butt;stroke-linejoin:miter;stroke-miterlimit:4;stroke-dasharray:none;stroke-dashoffset:0;stroke-opacity:1;marker:none;color-rendering:auto;image-rendering:auto;shape-rendering:auto;text-rendering:auto;enable-background:accumulate" d="M525.993 249a6 6 0 1 0 0 12 6 6 0 0 0 0-12zm0 1c.173 0 .332.014.5.031.04.004.085-.005.125 0 .053.007.104.023.156.031.144.023.267.06.407.094.256.063.51.149.75.25.132.056.249.121.375.188v.03c.029.014.044.068.093.094.018.01.015.023.032.032.029.016.068.033.062.062-.008.04-.066.032-.094.063.004.058-.047.054-.062.093.009.025.058.033.062.063-.005.032-.074.03-.062.062.054.042.105.01.156 0 .112-.014.212-.005.281-.062-.009-.053.1-.046.094-.094.029.021.065.041.094.063-.011.01-.02.025-.031.03-.021.01-.044.02-.063.032l-.094.063c-.023.016-.07.093-.093.093-.03 0-.073-.037-.094-.03-.03.01-.029.05-.063.062-.066.024-.195-.037-.218.062.028.057.137.03.187.063.031.02.086.09.094.125a.59.59 0 0 1 0 .187c-.031.08-.127.064-.219.063h-.062c-.155-.01-.305-.08-.375.03.005.086.019.146 0 .22-.014.054-.097.11-.094.156 0 .024.056.06.062.093.004.018-.008.046 0 .063.026.049.08-.01.125 0 .044.01.094.076.094.125a.258.258 0 0 1-.031.125c-.044.066-.125.058-.188.094-.052.03-.062.104-.093.156-.033.056-.076.076-.063.156a.365.365 0 0 1-.187.188c-.027.012-.07.013-.094.03-.02.015-.035.063-.063.095-.035.039-.074.063-.093.093-.014.023-.017.062-.031.094-.022.042-.066.051-.094.094-.013.02-.017.067-.031.093-.032.058-.069.106-.063.157.005.048.06.05.063.093.003.024-.033.036-.032.063.001.038.029.064.032.094.007.074-.049.105-.063.156-.007.024.006.042 0 .062-.012.037-.061.081-.062.125-.001.031.06.05.062.094.002.029-.037.066-.031.094.011.054.114.114.156.156.057.057.132.096.156.156.021.051.024.15.063.188.029.028.088.032.125.062.035.027.057.033.094.063.06.048.153.163.25.156.05-.01.099-.053.156-.063.059-.01.127-.036.187-.03.046.01.109.034.157.03.05-.01.099-.006.156-.03.099-.044.262-.115.406-.094.11.016.11.138.188.187.088.01.148-.017.218 0 .053.013.12.083.125.125.005.043-.056.098-.062.125-.014.058.01.12 0 .156-.008.03-.032.065-.031.094 0 .026.035.09.062.125.033.042.085.08.125.125.073.084.105.17.156.281.013.028-.012.058 0 .094-.022.168-.077.283-.187.469-.052.06-.126.112-.125.187-.004.18.102.295.094.469-.018.234.018.25 0 .375.079.04.023.167 0 .25-.034.099-.075.121-.094.187.053.024.129.014.187 0-.03.032-.063.064-.093.094a5.203 5.203 0 0 1-.75.625 4.94 4.94 0 0 1-1.719.75 4.986 4.986 0 0 1-1.062.094c-.19 0-.379-.01-.563-.031-.147-.017-.295-.034-.437-.063-.284-.058-.55-.177-.813-.281-.009-.017-.033-.043-.031-.063.052-.022.15.074.187 0 .02-.035-.025-.12 0-.156.018-.024.12-.024.157-.031.053-.01.126-.017.156-.031.033-.021.068-.095.062-.157-.003-.029-.04-.036-.062-.062-.02-.022.013-.042 0-.063-.024-.035-.084-.042-.094-.093.072-.014.177.06.281.031.05-.014.134-.11.157-.156.007-.014-.008-.045 0-.063.009-.018.028-.052.03-.062.008-.027-.005-.014 0-.031.019-.051.065-.09.095-.125.023-.028.072-.065.093-.094.024-.031.016-.035.031-.063.015-.09-.053-.17-.03-.25.023-.09.162-.146.25-.187.03-.014.068-.022.093-.031.06-.021.131-.043.187-.063.094-.034.11-.101.157-.187.022-.04.058-.096.062-.125.004-.026-.005-.032 0-.063.005-.029-.008-.06 0-.094.011-.043.031-.14.031-.187 0-.04-.03-.058-.03-.094-.008-.13.045-.116.093-.187.024-.035.045-.1.062-.125.081-.12.23-.162.22-.344-.005-.06-.05-.2-.095-.219-.025-.01-.056-.018-.093-.031-.118-.044-.221-.177-.344-.187h-.063c-.048 0-.102-.025-.156-.032-.034-.01-.105.01-.125 0-.03-.015-.037-.077-.062-.093-.02-.014-.063-.02-.094-.032-.049-.018-.068-.058-.125-.062-.018 0-.042.01-.062 0-.031-.01-.065-.013-.094-.031-.036-.022-.079-.032-.094-.063.033-.108-.072-.124-.094-.187-.01-.03.01-.1 0-.125-.013-.037-.052-.063-.093-.094a.374.374 0 0 0-.219-.094c-.046-.01-.101.01-.156 0a.356.356 0 0 1-.188-.093c-.042-.05-.057-.102-.093-.125-.035-.022-.07-.04-.094-.063-.011-.01-.021-.008-.031-.031-.018-.037-.054-.049-.032-.094-.04-.02-.02.038-.062.031-.04-.055-.068-.11-.156-.093-.04.01-.078.092-.125.093-.04 0-.074-.085-.125-.093-.04-.01-.098.036-.125.03-.043-.01-.055-.036-.094-.062-.029-.019-.078-.063-.094-.062-.05 0-.087.099-.156.062-.034-.043.071-.053.031-.093-.03-.03-.038.017-.062.03-.028.019-.063.021-.094.032-.069.026-.133.034-.187.063a.185.185 0 0 0-.094.093c-.023.042-.059.123-.094.125-.042 0-.056-.045-.094-.062-.115-.05-.186.029-.28.03-.089 0-.224-.135-.22-.218.003-.05.026-.124.032-.187.005-.05.061-.111.062-.157.001-.062-.116-.086-.156-.093-.094-.017-.206.042-.313 0-.02-.034.02-.06.032-.094.007-.018-.007-.041 0-.062.012-.032.078-.06.093-.094.011-.026-.01-.06 0-.094.013-.036.06-.068.063-.094.004-.034-.036-.071-.063-.093-.083.01-.14.007-.187.03-.108.05-.079.186-.188.22a.913.913 0 0 1-.125.03c-.018.01-.042-.001-.062 0 .002-.01-.002-.02 0-.03.005-.023.026-.04.031-.063.071-.325.181-.64.312-.937h.032c.038.01.06.06.093.062.092.01.112-.085.188-.125.078.011.116-.01.187 0 .048.01.119.059.157.063.032 0 .032-.036.062-.032.03.01.089.058.094.094.005.045-.044.107-.031.156.047.048.151.066.218.094.044-.037.007-.104 0-.156 0-.023.003-.073 0-.094-.005-.036-.03-.063-.03-.094 0-.143.122-.194.218-.25.04-.024.089-.075.125-.093.05-.025.083-.007.125-.031.076-.043.128-.108.187-.157.027-.065-.003-.154 0-.218.027-.017.065 0 .094 0 .046-.01.068-.068.094-.094.015-.015.044-.016.062-.031.046-.036.054-.078.094-.094a.26.26 0 0 1 .063-.031c.03-.01.077-.013.125-.031.03-.011.113-.019.125-.032.015-.015-.004-.07 0-.093.024-.113.18-.118.28-.157.07-.026.142-.107.22-.093-.015.054-.076.06-.063.125.017.09.124-.018.156-.031.061-.026.17-.064.25-.094.07-.025.191-.045.125-.125-.055-.01-.077.042-.125.062-.033.01-.034-.028-.062-.03-.027 0-.036.035-.063.03-.027-.01-.058-.06-.062-.093-.011-.084.06-.095.093-.157-.023-.076-.123-.032-.187-.062a.113.113 0 0 1 .094-.094c.043-.01.161.008.187.031.015.013-.023.042 0 .063.026.023.06.01.094 0 .012-.057-.073-.026-.063-.063.068-.044.199-.02.282-.03a.68.68 0 0 0 .156-.063c.04-.023.052-.07.094-.032.012.041-.008.072-.032.094-.077.068-.158.14-.218.219.037.036.094.024.156.031.024.01.069-.005.094 0 .03.01.07-.01.093 0 .042.01.052.094.094.094.068 0 .039-.08 0-.125.012-.047.048-.092.031-.125-.03-.062-.15.018-.156-.063-.004-.05.044-.055.062-.093-.008-.096.073-.1.063-.188-.005-.036-.038-.028-.063-.062-.013-.018-.016-.08-.03-.094-.053-.044-.151-.01-.157-.094-.003-.05.007-.102 0-.156-.007-.051-.05-.209-.094-.219-.056-.012-.089.094-.156.125a.375.375 0 0 1-.156.031c-.024-.01-.06-.015-.063-.062-.004-.042.047-.061.063-.094.004-.008-.002-.02 0-.031.072-.02.145-.045.219-.062.041-.01.082-.023.125-.032.03-.006.063.006.093 0a4.983 4.983 0 0 1 .906-.093zm-2.031.469c-.032.182-.203.255-.406.25-.046.044-.006.126-.032.187-.02.051-.105.098-.156.094-.037 0-.094-.059-.094-.094 0-.043.069-.044.032-.093.002-.01.02-.022.03-.032.021-.012.043-.018.063-.03.182-.112.367-.194.563-.282zm4.187.187c-.018.01-.015.022-.03.031-.039.023-.066.052-.095.063-.04.015-.087.025-.093.062-.005.031.032.034.03.063-.014.037-.022.049-.03.094.05.083.156-.019.218-.032.028-.01.048-.007.063-.03.017-.028.018-.056.031-.094.014-.042.068-.057.063-.094-.004-.037-.095-.068-.157-.063zm-5.468.625c.047.038.114.12.03.156a.516.516 0 0 1-.155.032c-.01 0-.023-.024-.032-.032.052-.05.103-.108.157-.156zm.187.188c.024 0 .035.06.063.062.027 0 .046-.035.062-.031.042.011.071.094.031.125-.033.01-.038-.035-.062-.031-.068.012-.105.16-.156.156-.048-.01-.08-.121-.032-.156.001-.03-.002-.032 0-.063.015-.018.054-.065.094-.062zm-.25.03c.014 0 .026-.01.031 0-.007.054-.021.07-.062.095-.071.043-.133.096-.156.187-.007.027-.091.1-.125.094-.08-.017.044-.165.062-.188.02-.025.04-.033.063-.062.023-.028.04-.078.062-.094a.245.245 0 0 1 .125-.031zm6.781.157c.08-.01.12.078.157.125.03.04.107.098.156.125.028.015.063.049.094.063.065.029.184.123.187.187.001.032-.036.064-.031.094.049.01.093-.076.094-.125.091.13.17.268.25.406.037.066.09.12.125.188-.045.013-.056.02-.063.062-.01.056.022.146-.062.156-.053.01-.115-.045-.188-.062-.03-.01-.07.01-.094 0-.055-.018-.046-.092-.093-.125a.501.501 0 0 0-.157-.063c-.027 0-.034.01-.062 0-.034-.01-.097.014-.125 0a.322.322 0 0 1-.094-.093c-.01-.037.092-.063.094-.094.002-.024-.026-.057-.031-.094-.004-.022.005-.047 0-.062-.007-.026-.053-.03-.094-.031h-.094c-.044 0-.132-.004-.187 0-.033 0-.063-.003-.094 0-.087.01-.15-.01-.219 0a.628.628 0 0 0-.187.062l-.063.031c-.014.01-.044.023-.062.031-.028.013-.067.055-.094.063-.039.01-.085-.01-.156 0-.051 0-.124-.033-.125-.094-.001-.093.162-.045.25-.062.033-.01.054-.039.094-.063.019-.01.013-.019.03-.03.03-.022.09-.07.095-.095.004-.022-.003-.045 0-.062.004-.021.035-.035.062-.063.042-.042.073-.097.125-.125.035-.018.078-.033.094-.062.004-.032-.001-.033 0-.063a.13.13 0 0 1 .062-.03c.054-.013.093.002.156 0 .027 0 .065.012.094 0 .024-.017.039-.051.063-.063a.247.247 0 0 1 .093-.032zm.563.594h-.125c-.044 0-.1-.023-.125 0 .037.06.104.079.187.094a.194.194 0 0 0 .063-.094zm-6.844-.563h.094c.025 0 .052-.01.062 0-.016.066-.166.056-.218.032.003-.025.03-.028.062-.032zm-.219.125c-.043.032-.087.073-.156.094-.038.012-.087.01-.094-.031-.008-.052.06-.026.094-.031.044-.01.105-.03.156-.031zm6.5 0c-.033.011-.049.084 0 .094.023-.014.038-.05.032-.094-.013-.014-.022-.01-.032 0zm-.062.157c0 .056.01.107 0 .156.032.062.109.01.125-.031.019-.104-.015-.138-.063-.125-.016.01-.045-.013-.062 0zm-8.281 2.343c.056.051.088.123.156.157a.468.468 0 0 0 .094.03c.026.01.037-.007.062 0 .053.019.114.044.156.063.064.028.133.125.188.157.003.032-.01.07 0 .093.026.035.052.07.094.094.05.028.077.072.125.094.017.01.036-.01.062 0 .066.02.1.11.156.093.037-.01.026-.057.031-.093.025-.027.055-.063.094-.063.062 0 .07.096.094.156.013.034.053.058.062.094a.943.943 0 0 1 0 .281c-.016.046-.087.044-.125.094-.018.024-.017.077-.03.094-.025.029-.045.034-.063.062a.443.443 0 0 0-.032.063c-.03.064-.087.11-.062.187.01.031.062.057.062.094 0 .044-.086.077-.093.125-.005.035.02.078.031.125.008.035.073.07.094.094.035.039.061.107.093.156.063.097.095.218.157.313.033.049.103.073.125.125.01.026-.01.07 0 .093.036.081.2.18.28.219.039.019.09.011.126.031.053.03.16.11.187.156.024.042.02.152.032.22.015.087-.004.154 0 .25.003.051.03.073.03.124 0 .018.002.075 0 .094 0 .062.006.124 0 .187a.585.585 0 0 0 0 .094c.004.031.03.035.032.063.002.029-.034.07-.031.093.007.063.05.098.062.157.01.046.037.163.031.218-.004.03-.027.061-.03.094-.004.026.003.039 0 .063-.004.023.005.043 0 .062-.033-.02-.063-.041-.094-.062a5.203 5.203 0 0 1-.75-.625l-.094-.094a5.2 5.2 0 0 1-.5-.625c-.014-.02-.018-.043-.031-.063a4.824 4.824 0 0 1-.438-.812c-.009-.021-.023-.042-.031-.063a5.018 5.018 0 0 1-.281-.968 4.983 4.983 0 0 1-.094-.907c0-.237.03-.458.063-.687zm1.937.532c.048-.022.04.055 0 .062-.037.01-.036-.044 0-.062z" transform="matrix(1.16667 0 0 1.16667 -589.659 -273.5)"/></g></svg>