<svg xmlns="http://www.w3.org/2000/svg" viewBox="0 0 32 32"><path style="opacity:.7;fill:#000;fill-opacity:1;stroke:#000;stroke-width:2;stroke-linejoin:round;stroke-miterlimit:4;stroke-dasharray:none;stroke-opacity:1" d="M16 3a6 6 0 0 0-6 6 6 6 0 0 0 6 6 6 6 0 0 0 6-6 6 6 0 0 0-6-6zm0 13c-4.97 0-9 2.373-9 9v3h18v-3c0-6.627-4.03-9-9-9z"/><path style="opacity:1;fill:#aee3f8;fill-opacity:1;stroke:none;stroke-width:2.50217319;stroke-linejoin:round;stroke-miterlimit:4;stroke-dasharray:none;stroke-opacity:1" d="M16 3a6 6 0 0 0-6 6 6 6 0 0 0 6 6 6 6 0 0 0 6-6 6 6 0 0 0-6-6zm0 13c-4.97 0-9 2.373-9 9v3h18v-3c0-6.627-4.03-9-9-9z"/></svg>