<svg xmlns="http://www.w3.org/2000/svg" viewBox="0 0 32 32"><path style="font-style:normal;font-variant:normal;font-weight:400;font-stretch:normal;font-size:15px;line-height:125%;font-family:Ubuntu;-inkscape-font-specification:Ubuntu;text-align:center;letter-spacing:0;word-spacing:0;writing-mode:lr-tb;text-anchor:middle;display:inline;opacity:.7;fill:#000;fill-opacity:1;stroke:none;stroke-width:.999802" d="M6.994 4.973c-1.258.014-2.179-.03-2.931.384a1.88 1.88 0 0 0-.838.998C3.06 6.795 3 7.315 3 7.973V24.027c0 .658.06 1.179.225 1.618.164.438.461.788.837.996.753.415 1.674.371 2.932.386h13.268c.12-.194.266-.375.459-.52-.578-.43-.888-1.137-.6-1.833l.57-1.381c.29-.699 1.01-.977 1.723-.873-.101-.71.177-1.422.875-1.711l1.383-.574c.699-.29 1.394.022 1.824.595.176-.237.342-.495.606-.603.38-.157.818-.169 1.23.002l.668.275V7.973c0-.658-.06-1.179-.225-1.618a1.875 1.875 0 0 0-.837-.996c-.753-.415-1.674-.371-2.932-.386H6.994z"/><path style="opacity:1;vector-effect:none;fill:#d85eca;fill-opacity:1;stroke:none;stroke-width:1;stroke-linecap:round;stroke-linejoin:bevel;stroke-miterlimit:4;stroke-dasharray:none;stroke-dashoffset:0;stroke-opacity:1" d="M11.982 6c-1.556.01-5.108-.011-6.658.04-.461.042-1.017.204-1.156.708-.219.635-.11 1.334-.147 1.982-.007 2.298-.023 13.65.022 15.94.04.462.203 1.013.7 1.164.632.225 1.283.123 1.935.154 1.424.007 4.851.012 6.277.012.95 0 4.157-.006 7.307-.01-.243-.389-.333-.852-.14-1.316l.57-1.381c.289-.699 1.008-.977 1.722-.873-.101-.71.177-1.422.875-1.711l1.383-.574c.699-.29 1.394.022 1.824.595.176-.237.342-.495.606-.603a1.6 1.6 0 0 1 .873-.098c.008-4.34.01-10.864-.028-12.767-.049-.402-.169-.864-.574-1.045-.668-.294-1.427-.168-2.127-.205A4549.39 4549.39 0 0 0 11.982 6z"/><path d="M22.002 10a2 2 0 1 0 0 4 2 2 0 0 0 0-4z" style="color:#000;display:inline;overflow:visible;visibility:visible;fill:#fff;fill-opacity:1;fill-rule:nonzero;stroke:none;stroke-width:7.99841;marker:none;enable-background:accumulate"/><path style="color:#000;display:inline;overflow:visible;visibility:visible;fill:#fff;fill-opacity:1;fill-rule:nonzero;stroke:none;stroke-width:10.3809;marker:none;enable-background:accumulate" d="m13.002 13.5-5 9.5H20.861c.207-.284.507-.451.84-.533L17.502 15l-2 2.5-2.5-4z"/><g transform="matrix(1.23872 0 0 1.23872 2.342 2.342)" style="stroke-width:.807285"><circle style="fill:#fff;fill-rule:evenodd;stroke:none;stroke-width:1.61457;stroke-linecap:round;stroke-linejoin:round" cx="19.5" cy="19.5" r="1.5"/><g transform="translate(8 8)" style="stroke-width:.807285"><circle style="fill:#fff;fill-opacity:1;fill-rule:evenodd;stroke:none;stroke-width:1.61457;stroke-linecap:round;stroke-linejoin:round;stroke-miterlimit:4;stroke-dasharray:none;stroke-opacity:1" cx="11.5" cy="11.5" r="1.5"/><path d="M9.311 7.792a.244.244 0 0 0-.135.325l.273.657c-.26.195-.472.424-.662.678l-.674-.279a.248.248 0 0 0-.329.136l-.462 1.115a.248.248 0 0 0 .137.329l.673.279a3.312 3.312 0 0 0-.011.948l-.657.272a.244.244 0 0 0-.135.325l.463 1.117c.054.13.194.189.325.135l.657-.272c.195.26.424.471.678.662l-.279.673a.248.248 0 0 0 .136.329l1.115.462a.248.248 0 0 0 .329-.136l.279-.674c.314.045.626.057.948.012l.272.657c.054.13.195.188.325.134l1.117-.462a.244.244 0 0 0 .135-.326l-.272-.657c.26-.195.471-.424.662-.678l.673.28a.248.248 0 0 0 .329-.137l.462-1.115a.248.248 0 0 0-.136-.329l-.674-.279c.045-.314.057-.625.012-.947l.657-.273a.244.244 0 0 0 .134-.325l-.462-1.117a.244.244 0 0 0-.326-.135l-.657.273a3.312 3.312 0 0 0-.678-.662l.28-.674a.248.248 0 0 0-.137-.329l-1.115-.462a.248.248 0 0 0-.329.137l-.279.673a3.312 3.312 0 0 0-.947-.011l-.273-.657a.244.244 0 0 0-.325-.135Zm1.756 2.66a1.138 1.138 0 1 1 .87 2.103 1.138 1.138 0 0 1-.87-2.104z" display="block" fill="url(#d)" stroke="url(#e)" stroke-linejoin="round" stroke-width=".484" style="fill:#d3d3d3;fill-opacity:1;stroke:#4d4d4d;stroke-opacity:1"/></g></g></svg>