<svg xmlns="http://www.w3.org/2000/svg" xmlns:xlink="http://www.w3.org/1999/xlink" viewBox="0 0 32 32"><defs><linearGradient y2="316.932" x2="702.214" y1="316.932" x1="609.786" gradientUnits="userSpaceOnUse" id="b" xlink:href="#a"/><linearGradient id="a"><stop offset="0" style="stop-color:#5884f4;stop-opacity:1"/><stop style="stop-color:#5884f4;stop-opacity:1" offset=".308"/><stop offset=".308" style="stop-color:#2f5fdd;stop-opacity:1"/><stop style="stop-color:#2f5fdd;stop-opacity:1" offset=".692"/><stop style="stop-color:#234db8;stop-opacity:1" offset=".692"/><stop offset="1" style="stop-color:#234db8;stop-opacity:1"/></linearGradient></defs><path style="opacity:.7;fill:#000;stroke:#000;stroke-width:2;stroke-miterlimit:4;stroke-dasharray:none" d="M9.956 28c-2 0-4-1-4-3V7c0-2 2-3 4-3h9l7 7v14c0 2-2 3-4 3z"/><path d="M9.956 28c-2 0-4-1-4-3V7c0-2 2-3 4-3h9l7 7v14c0 2-2 3-4 3z" style="fill:#fff"/><path d="M18.956 11V4l7 7z" style="fill:#6d6d6d;fill-opacity:1"/><path style="font-style:normal;font-variant:normal;font-weight:400;font-stretch:normal;font-size:15px;line-height:125%;font-family:Ubuntu;-inkscape-font-specification:Ubuntu;text-align:center;letter-spacing:0;word-spacing:0;writing-mode:lr-tb;text-anchor:middle;display:inline;opacity:.7;fill:#000;fill-opacity:1;stroke:none;stroke-width:.99980211" d="M13.95 13.961c-1.258.015-2.179-.03-2.931.385a1.88 1.88 0 0 0-.838.998c-.165.439-.225.96-.225 1.617V27.04c0 .658.06 1.179.225 1.617.164.439.461.789.838.996.752.415 1.673.372 2.931.387h12.012c1.258-.015 2.179.03 2.932-.385a1.88 1.88 0 0 0 .838-.998c.164-.438.224-.96.224-1.617V16.961c0-.657-.06-1.178-.224-1.617a1.875 1.875 0 0 0-.838-.996c-.753-.415-1.674-.371-2.932-.387H13.954z"/><path style="opacity:1;vector-effect:none;fill:#aee3f8;fill-opacity:1;stroke:none;stroke-width:1;stroke-linecap:round;stroke-linejoin:bevel;stroke-miterlimit:4;stroke-dasharray:none;stroke-dashoffset:0;stroke-opacity:1" d="M18.94 14.989c-1.557.01-5.11-.012-6.66.038-.462.043-1.017.207-1.156.71-.219.636-.108 1.334-.146 1.982-.007 2.297-.022 7.674.022 9.963.04.462.203 1.013.699 1.164.632.225 1.284.122 1.936.154a1504.2 1504.2 0 0 0 13.383-.007c.512-.012 1.184.02 1.585-.405.421-.54.287-1.268.323-1.904.012-2.445.028-7.988-.022-10.434-.05-.402-.17-.863-.575-1.044-.668-.295-1.426-.168-2.126-.206-1.755-.012-5.509-.012-7.263-.011z"/><path style="font-style:normal;font-variant:normal;font-weight:400;font-stretch:normal;font-size:15px;line-height:125%;font-family:Ubuntu;-inkscape-font-specification:Ubuntu;text-align:center;letter-spacing:0;word-spacing:0;writing-mode:lr-tb;text-anchor:middle;display:inline;opacity:.7;fill:#000;fill-opacity:1;stroke:none;stroke-width:1.28545988" d="M16.092 16c-.81.009-1.423.012-1.937.07-.513.06-.98.182-1.333.533-.352.35-.475.822-.53 1.333-.039.362-.046.854-.048 1.536l-1.288-.778v1.213l7.714 5.522L16.1 28s3.502-1.58 5.143-2.571c2.55-1.54 6.147-4.288 7.714-5.495v-1.24l-1.288.778c-.002-.682-.01-1.174-.048-1.536-.054-.51-.177-.982-.53-1.333-.352-.351-.82-.474-1.333-.533-.513-.059-2.413-.06-3.222-.07h-6.439zm.007 1h6.429c.806.01 2.69.018 3.08.063.394.045.527.12.573.166.046.045.12.17.161.557.04.38.043 1.655.043 2.46l-6.431 3.88-6.426-3.88c0-.805.002-2.08.042-2.46.042-.387.115-.512.161-.557.046-.046.177-.121.57-.166.392-.045.991-.054 1.798-.063Z"/><path style="opacity:1;vector-effect:none;fill:#fff;fill-opacity:1;stroke:none;stroke-width:1.28571427;stroke-linecap:round;stroke-linejoin:bevel;stroke-miterlimit:4;stroke-dasharray:none;stroke-dashoffset:0;stroke-opacity:1" d="M17.895 16.938c-1.322.04-2.661-.048-3.973.108-.603.151-.375.675-.457 1.122.015.624-.116 1.574.016 2.172 2.154 1.247 4.223 2.649 6.437 3.787.426-.009.77-.417 1.16-.573 1.784-1.051 3.55-2.131 5.325-3.198.131-.746.026-1.63.032-2.403.025-.397-.118-.94-.611-.929-2.64-.11-5.287-.08-7.93-.086z"/><path style="color:#000;font-weight:400;line-height:normal;font-family:sans-serif;font-variant-ligatures:normal;font-variant-position:normal;font-variant-caps:normal;font-variant-numeric:normal;font-variant-alternates:normal;font-feature-settings:normal;text-indent:0;text-align:start;text-decoration:none;text-decoration-line:none;text-decoration-style:solid;text-decoration-color:#000;text-transform:none;text-orientation:mixed;white-space:normal;shape-padding:0;overflow:visible;isolation:auto;mix-blend-mode:normal;fill:#a7a7f1;fill-opacity:1;stroke-width:1.15470064;marker:none" d="M15.956 19v1h8v-1z"/><g style="display:inline;stroke-width:9.7142868;enable-background:new"><path style="fill:#fee1c2;fill-opacity:1;stroke:none;stroke-width:9.7142868" d="M702.219 319.356 656 400.493l-46.214-81.137.444-28.635h92.433z" transform="matrix(.06093 .03518 -.03815 .06608 -8.69 -17.541)"/><path style="color:#000;display:inline;overflow:visible;visibility:visible;fill:#5d5d5d;fill-opacity:1;fill-rule:nonzero;stroke:none;stroke-width:11.66852188;marker:none;enable-background:accumulate" d="M641.301 374.677 656 400.493l14.699-25.816s1.12-2.766-1.74-2.766c-2.86 0-5.694 3.688-5.694 3.688s-1.494-4.61-7.234-4.61-7.234 4.61-7.234 4.61-2.897-3.688-5.782-3.688c-2.886 0-1.714 2.766-1.714 2.766z" transform="matrix(.06093 .03518 -.03815 .06608 -8.69 -17.541)"/><path style="fill:url(#b);fill-opacity:1;stroke:none;stroke-width:9.7142868" d="M609.786 306.25c0-7.376 28.428-3.688 28.428 7.377 0-18.44 35.534-18.44 35.534 0 0-11.065 28.47-14.753 28.47-7.377V67.93h-92.432Z" transform="matrix(.06093 .03518 -.03815 .06608 -8.69 -17.541)"/></g></svg>