<svg xmlns="http://www.w3.org/2000/svg" height="16" width="24"><path d="M2 10v4l4-2-4-2zm9 0l-4 2 4 2v-4zM2 3v5h2.5A1.5 1.5 0 006 6.5c0-.533-.268-1.015-.688-1.281.116-.213.188-.46.188-.719A1.5 1.5 0 004 3H2zm5 0v5h2.5A1.5 1.5 0 0011 6.5v-2A1.5 1.5 0 009.5 3H7zM3 4h1a.5.5 0 010 1H3V4zm5 0h1.5a.5.5 0 01.5.5v2a.5.5 0 01-.5.5H8V4zM3 6h1.5a.5.5 0 010 1H3V6z" opacity=".6" stroke="#000" stroke-width="2" stroke-linejoin="round"/><path d="M2 3v5h2.5A1.5 1.5 0 006 6.5c0-.533-.268-1.015-.688-1.281.116-.213.188-.46.188-.719A1.5 1.5 0 004 3H2.5zm1 1h1a.5.5 0 010 1H3zm0 2h1.5a.5.5 0 010 1H3zM7 3v5h2.5A1.5 1.5 0 0011 6.5v-2A1.5 1.5 0 009.5 3H8zm1 1h1.5a.5.5 0 01.5.5v2a.5.5 0 01-.5.5H8z" fill="#fff"/><path d="M2 10l4 2-4 2zM11 10l-4 2 4 2z" fill="#aee3f8"/></svg>