<svg viewBox="0 0 32 32" xmlns:xlink="http://www.w3.org/1999/xlink" xmlns="http://www.w3.org/2000/svg"><defs><linearGradient xlink:href="#a" id="c" gradientUnits="userSpaceOnUse" gradientTransform="matrix(0 -.07466 .07509 0 -8.093 34.455)" x1="434.683" y1="243.531" x2="52.965" y2="401.43"/><linearGradient id="a"><stop style="stop-color:#2a6dcf;stop-opacity:1" offset="0"/><stop style="stop-color:#3979d7;stop-opacity:1" offset="1"/></linearGradient><linearGradient xlink:href="#b" id="d" x1="336" y1="134" x2="336" y2="162" gradientUnits="userSpaceOnUse" gradientTransform="translate(-320 -132)"/><linearGradient id="b"><stop style="stop-color:#fff;stop-opacity:1" offset="0"/><stop offset=".125" style="stop-color:#fff;stop-opacity:.09803922"/><stop offset=".925" style="stop-color:#fff;stop-opacity:.09803922"/><stop style="stop-color:#fff;stop-opacity:.49803922" offset="1"/></linearGradient></defs><path style="color:#000;font-style:normal;font-variant:normal;font-weight:400;font-stretch:normal;font-size:medium;line-height:normal;font-family:sans-serif;font-variant-ligatures:normal;font-variant-position:normal;font-variant-caps:normal;font-variant-numeric:normal;font-variant-alternates:normal;font-feature-settings:normal;text-indent:0;text-align:start;text-decoration:none;text-decoration-line:none;text-decoration-style:solid;text-decoration-color:#000;letter-spacing:normal;word-spacing:normal;text-transform:none;writing-mode:lr-tb;direction:ltr;text-orientation:mixed;dominant-baseline:auto;baseline-shift:baseline;text-anchor:start;white-space:normal;shape-padding:0;clip-rule:nonzero;display:inline;overflow:visible;visibility:visible;opacity:.1;isolation:auto;mix-blend-mode:normal;color-interpolation:sRGB;color-interpolation-filters:linearRGB;solid-color:#000;solid-opacity:1;fill:#000;fill-opacity:1;fill-rule:nonzero;stroke:none;stroke-width:2;stroke-linecap:butt;stroke-linejoin:miter;stroke-miterlimit:4;stroke-dasharray:none;stroke-dashoffset:0;stroke-opacity:1;marker:none;color-rendering:auto;image-rendering:auto;shape-rendering:auto;text-rendering:auto;enable-background:accumulate" d="M10.194 2c-1.421 0-2.549.03-3.506.191-.957.161-1.791.473-2.412 1.092-.62.62-.937 1.456-1.096 2.414-.16.958-.186 2.087-.18 3.512V24.797c-.007 1.421.021 2.55.18 3.506.16.958.475 1.795 1.096 2.414.62.619 1.455.931 2.412 1.092.957.16 2.085.191 3.506.191h11.615c1.421 0 2.547-.03 3.502-.191.955-.161 1.788-.475 2.406-1.094.619-.62.932-1.454 1.092-2.41.16-.957.191-2.084.191-3.508V9l-7-7z"/><path d="M9.951 1.5c-5.849 0-6.478.597-6.45 6.425v16.15c-.028 5.828.601 6.425 6.45 6.425h12.1c5.849 0 6.45-.597 6.45-6.425V7.714L22.25 1.5z" style="color:#000;display:inline;overflow:visible;visibility:visible;fill:url(#c);fill-opacity:1;fill-rule:nonzero;stroke:none;stroke-width:1;marker:none;enable-background:accumulate"/><path style="display:inline;opacity:.4;fill:#fff;stroke-width:.444309;enable-background:new" d="M12.362 11a.8.8 0 0 0-.52.209.713.713 0 0 0-.213.512v1.496h3.637a1.739 1.739 0 0 1 1.723 1.537h7.787V11.72a.73.73 0 0 0-.734-.721z"/><path style="display:inline;fill:#fff;stroke-width:.444309;enable-background:new" d="M16.99 22.254a1.743 1.743 0 0 1-1.724 1.539h-3.639v1.492a.724.724 0 0 0 .735.715h11.68a.724.724 0 0 0 .734-.715v-3.031z"/><path style="display:inline;opacity:.8;fill:#fff;stroke-width:.444309;enable-background:new" class="cls-8" d="M17 18.504v3.574c0 .06-.003.118-.01.176h7.786v-3.75z"/><path style="display:inline;opacity:.6;fill:#fff;stroke-width:.444309;enable-background:new" d="M16.989 14.754c.006.055.01.11.011.166V18.504h7.776v-3.75z"/><path style="display:inline;fill:#fff;stroke-width:.444309;enable-background:new" class="cls-8" d="M7.976 14.217a.724.724 0 0 0-.728.71v7.145a.702.702 0 0 0 .213.507.769.769 0 0 0 .515.213h7.296a.724.724 0 0 0 .728-.72v-7.14a.724.724 0 0 0-.728-.715zm.476 1.608h.986l.764 3.75 1.151-3.643h.822l1.097 3.643.765-3.75h.933l-1.098 5.359h-.982l-1.15-3.697-1.205 3.697H9.55z"/><path style="color:#000;display:inline;overflow:visible;visibility:visible;opacity:.1;fill:#fff;fill-opacity:1;fill-rule:nonzero;stroke:none;stroke-width:1;marker:none;enable-background:accumulate" d="M4 16v7.797C3.973 29.424 4.578 30 10.194 30h11.615C27.424 30 28 29.424 28 23.797V16z"/><path style="color:#000;display:inline;overflow:visible;visibility:visible;opacity:.1;fill:#fff;fill-opacity:1;fill-rule:nonzero;stroke:none;stroke-width:1;marker:none;enable-background:accumulate" d="M16 2v28h5.81c5.614 0 6.19-.576 6.19-6.203V8l-6-6z"/><path style="color:#000;font-style:normal;font-variant:normal;font-weight:400;font-stretch:normal;font-size:medium;line-height:normal;font-family:sans-serif;font-variant-ligatures:normal;font-variant-position:normal;font-variant-caps:normal;font-variant-numeric:normal;font-variant-alternates:normal;font-feature-settings:normal;text-indent:0;text-align:start;text-decoration:none;text-decoration-line:none;text-decoration-style:solid;text-decoration-color:#000;letter-spacing:normal;word-spacing:normal;text-transform:none;writing-mode:lr-tb;direction:ltr;text-orientation:mixed;dominant-baseline:auto;baseline-shift:baseline;text-anchor:start;white-space:normal;shape-padding:0;clip-rule:nonzero;display:inline;overflow:visible;visibility:visible;opacity:.4;isolation:auto;mix-blend-mode:normal;color-interpolation:sRGB;color-interpolation-filters:linearRGB;solid-color:#000;solid-opacity:1;fill:#000;fill-opacity:1;fill-rule:nonzero;stroke:none;stroke-width:2;stroke-linecap:butt;stroke-linejoin:miter;stroke-miterlimit:4;stroke-dasharray:none;stroke-dashoffset:0;stroke-opacity:1;marker:none;color-rendering:auto;image-rendering:auto;shape-rendering:auto;text-rendering:auto;enable-background:accumulate" d="M10.194 1c-1.421 0-2.549.03-3.506.191-.957.161-1.791.473-2.412 1.092-.62.62-.937 1.456-1.096 2.414-.16.958-.186 2.087-.18 3.512V23.797c-.007 1.421.021 2.55.18 3.506.16.958.475 1.795 1.096 2.414.62.619 1.455.931 2.412 1.092.957.16 2.085.191 3.506.191h11.615c1.421 0 2.547-.03 3.502-.191.955-.161 1.788-.475 2.406-1.094.619-.62.932-1.454 1.092-2.41.16-.957.191-2.084.191-3.508V7.79L22.223 1zm0 1h11.615L28 8.203v15.594C28 29.424 27.424 30 21.81 30H10.193C4.578 30 3.973 29.424 4 23.797V8.203C3.973 2.576 4.578 2 10.194 2z"/><path style="color:#000;font-style:normal;font-variant:normal;font-weight:400;font-stretch:normal;font-size:medium;line-height:normal;font-family:sans-serif;font-variant-ligatures:normal;font-variant-position:normal;font-variant-caps:normal;font-variant-numeric:normal;font-variant-alternates:normal;font-feature-settings:normal;text-indent:0;text-align:start;text-decoration:none;text-decoration-line:none;text-decoration-style:solid;text-decoration-color:#000;letter-spacing:normal;word-spacing:normal;text-transform:none;writing-mode:lr-tb;direction:ltr;text-orientation:mixed;dominant-baseline:auto;baseline-shift:baseline;text-anchor:start;white-space:normal;shape-padding:0;clip-rule:nonzero;display:inline;overflow:visible;visibility:visible;opacity:.4;isolation:auto;mix-blend-mode:normal;color-interpolation:sRGB;color-interpolation-filters:linearRGB;solid-color:#000;solid-opacity:1;fill:url(#d);fill-opacity:1;fill-rule:nonzero;stroke:none;stroke-width:2;stroke-linecap:butt;stroke-linejoin:miter;stroke-miterlimit:4;stroke-dasharray:none;stroke-dashoffset:0;stroke-opacity:1;marker:none;color-rendering:auto;image-rendering:auto;shape-rendering:auto;text-rendering:auto;enable-background:accumulate" d="M10.194 2C4.578 2 3.973 2.576 4 8.203v15.594C3.973 29.424 4.578 30 10.194 30h11.615C27.424 30 28 29.424 28 23.797V8.203L21.81 2zm0 1h11.615L27 8.203v15.594c0 1.39-.04 2.443-.164 3.178-.123.734-.305 1.1-.533 1.328-.227.228-.592.41-1.324.533-.732.123-1.783.164-3.17.164H10.194c-1.387 0-2.441-.04-3.176-.164-.735-.123-1.101-.307-1.33-.535-.229-.229-.411-.594-.533-1.326-.122-.733-.161-1.786-.155-3.174V8.199c-.007-1.389.033-2.443.155-3.176.122-.732.304-1.095.533-1.324.229-.228.595-.412 1.33-.535C7.753 3.041 8.808 3 10.194 3z"/><path style="color:#000;display:inline;overflow:visible;visibility:visible;opacity:.6;fill:#165d7c;fill-opacity:1;fill-rule:nonzero;stroke:none;stroke-width:.250023;marker:none;enable-background:accumulate" d="M28 9V8l-6-6h-1V4.836c0 3.622.485 4.18 4.116 4.163z"/><path style="color:#000;display:inline;overflow:visible;visibility:visible;fill:#80a9e5;fill-opacity:1;fill-rule:nonzero;stroke:none;stroke-width:.250023;marker:none;enable-background:accumulate" d="m28 8-6-6v2.374c0 3.415.158 3.642 3.58 3.625z"/></svg>