<svg width="32" height="32" xmlns:xlink="http://www.w3.org/1999/xlink" xmlns="http://www.w3.org/2000/svg"><defs><linearGradient xlink:href="#a" id="f" gradientUnits="userSpaceOnUse" gradientTransform="matrix(.31818 0 0 .375 -223.817 345.237)" x1="756" y1="-860.638" x2="756" y2="-876.638"/><linearGradient id="a"><stop style="stop-color:#d36118;stop-opacity:1" offset="0"/><stop style="stop-color:#f09e6f;stop-opacity:1" offset="1"/></linearGradient><linearGradient xlink:href="#b" id="g" gradientUnits="userSpaceOnUse" gradientTransform="matrix(.11667 0 0 .15 -77.433 183.845)" x1="812" y1="-1075.638" x2="812" y2="-1115.638"/><linearGradient id="b"><stop style="stop-color:#fff;stop-opacity:.588235" offset="0"/><stop style="stop-color:#fff;stop-opacity:.862745" offset="1"/></linearGradient><linearGradient id="c"><stop offset="0" style="stop-color:#a33e03;stop-opacity:1"/><stop offset="1" style="stop-color:#622502;stop-opacity:1"/></linearGradient><linearGradient xlink:href="#c" id="h" x1="15" y1="4" x2="15" y2="35" gradientUnits="userSpaceOnUse"/><linearGradient xlink:href="#c" id="i" gradientUnits="userSpaceOnUse" x1="15" y1="4" x2="15" y2="35" gradientTransform="translate(0 2)"/><linearGradient gradientTransform="translate(-320 -132)" xlink:href="#d" id="e" x1="340" y1="132" x2="328" y2="164" gradientUnits="userSpaceOnUse"/><linearGradient id="d"><stop style="stop-color:#f2f2f2;stop-opacity:1" offset="0"/><stop style="stop-color:#fff;stop-opacity:1" offset="1"/></linearGradient></defs><path style="color:#000;display:inline;overflow:visible;visibility:visible;fill:#a33e03;fill-opacity:1;fill-rule:nonzero;stroke:none;stroke-width:1;marker:none;enable-background:accumulate" d="M11.691 3c-1.412 0-2.519.034-3.418.186-.9.15-1.616.431-2.137.953-.52.521-.8 1.237-.95 2.138C5.033 7.178 5 8.287 5 9.703v12.594c0 1.415.034 2.525.185 3.426.151.9.43 1.617.951 2.138.521.522 1.237.802 2.137.953.9.152 2.006.186 3.418.186h8.615c1.413 0 2.523-.034 3.424-.186.901-.15 1.62-.431 2.143-.953.522-.521.803-1.239.953-2.14.15-.901.18-2.01.174-3.424V9.705a41.067 41.067 0 0 0-.024-1.728L22.03 3.029c-.52-.02-1.09-.029-1.723-.029z"/><path d="M11.192 5c-1.372 0-2.378.045-3.01.15-.618.104-.761.23-.79.258-.028.028-.15.166-.252.781-.105.63-.148 1.631-.14 3.004V22.81c-.008 1.371.035 2.373.14 3.002.102.615.224.753.252.78.029.03.172.155.79.259.632.106 1.638.15 3.01.15h9.616c1.372 0 2.374-.044 3.004-.15.616-.104.754-.227.78-.254.03-.028.153-.169.257-.787.106-.632.15-1.638.15-3.012V10c-5 0-5.17.242-5-5z" style="color:#000;font-style:normal;font-variant:normal;font-weight:400;font-stretch:normal;font-size:medium;line-height:normal;font-family:sans-serif;font-variant-ligatures:normal;font-variant-position:normal;font-variant-caps:normal;font-variant-numeric:normal;font-variant-alternates:normal;font-feature-settings:normal;text-indent:0;text-align:start;text-decoration:none;text-decoration-line:none;text-decoration-style:solid;text-decoration-color:#000;letter-spacing:normal;word-spacing:normal;text-transform:none;writing-mode:lr-tb;direction:ltr;text-orientation:mixed;dominant-baseline:auto;baseline-shift:baseline;text-anchor:start;white-space:normal;shape-padding:0;clip-rule:nonzero;display:inline;overflow:visible;visibility:visible;isolation:auto;mix-blend-mode:normal;color-interpolation:sRGB;color-interpolation-filters:linearRGB;solid-color:#000;solid-opacity:1;fill:url(#e);fill-opacity:1;fill-rule:nonzero;stroke:none;stroke-width:5;stroke-linecap:butt;stroke-linejoin:miter;stroke-miterlimit:4;stroke-dasharray:none;stroke-dashoffset:0;stroke-opacity:1;marker:none;color-rendering:auto;image-rendering:auto;shape-rendering:auto;text-rendering:auto;enable-background:accumulate"/><path style="display:inline;overflow:visible;visibility:visible;fill:#a33e03;fill-opacity:1;fill-rule:nonzero;stroke:none;stroke-width:.999993;marker:none;enable-background:new" d="M11 13h10c1.108 0 2 .892 2 2v7c0 1.108-.892 2-2 2H11c-1.108 0-2-.892-2-2v-7c0-1.108.892-2 2-2z"/><path style="display:inline;overflow:visible;visibility:visible;fill:url(#f);fill-opacity:1;fill-rule:nonzero;stroke:none;stroke-width:.999993;marker:none;enable-background:new" d="M11 14h10c.554 0 1 .446 1 1v7c0 .554-.446 1-1 1H11c-.554 0-1-.446-1-1v-7c0-.554.446-1 1-1z"/><path style="display:inline;overflow:visible;visibility:visible;fill:url(#g);fill-opacity:1;fill-rule:nonzero;stroke:none;stroke-width:.999993;marker:none;enable-background:new" d="M11 14h10c.554 0 1 .446 1 1v7c0 .554-.446 1-1 1H11c-.554 0-1-.446-1-1v-7c0-.554.446-1 1-1z"/><path style="display:inline;overflow:visible;visibility:visible;fill:#d36118;fill-opacity:1;fill-rule:nonzero;stroke:none;stroke-width:.186095;marker:none;enable-background:new" d="M13 18.5a.5.5 0 1 1-1 0 .5.5 0 0 1 1 0zM13 20.5a.5.5 0 1 1-1 0 .5.5 0 0 1 1 0z"/><rect style="opacity:1;fill:#d36118;fill-rule:evenodd;stroke:none;stroke-width:1.00157;stroke-linecap:square;fill-opacity:1" width="8" height="1" x="12" y="16" ry=".5" rx=".5"/><rect style="opacity:1;fill:url(#h);fill-opacity:1;fill-rule:evenodd;stroke:none;stroke-width:1.00157;stroke-linecap:square" width="6" height="1" x="14" y="18" rx=".5" ry=".5"/><rect style="opacity:1;fill:url(#i);fill-opacity:1;fill-rule:evenodd;stroke:none;stroke-width:1.00157;stroke-linecap:square" width="6" height="1" x="14" y="20" rx=".5" ry=".5"/></svg>