<svg height="128" width="128" xmlns:xlink="http://www.w3.org/1999/xlink" xmlns="http://www.w3.org/2000/svg"><defs><linearGradient gradientUnits="userSpaceOnUse" y2="169.669" x2="4.414" y1="386.308" x1="494.345" id="e" xlink:href="#a" gradientTransform="matrix(0 -.22656 -.22656 0 126.981 120)"/><linearGradient id="a"><stop style="stop-color:#f2f2f2;stop-opacity:1" offset="0"/><stop style="stop-color:#fff;stop-opacity:1" offset="1"/></linearGradient><linearGradient xlink:href="#b" id="f" x1="201.078" y1="270" x2="102.922" y2="46" gradientUnits="userSpaceOnUse" gradientTransform="matrix(.5 0 0 .5 -12 -14)"/><linearGradient id="b" x1="0" y1="0" x2="1" y2="0" gradientUnits="userSpaceOnUse" gradientTransform="matrix(0 16.223 -16.223 0 338 228.912)"><stop offset="0" style="stop-color:#dc195b;stop-opacity:1"/><stop offset="1" style="stop-color:#a91326;stop-opacity:1"/></linearGradient><filter style="color-interpolation-filters:sRGB" id="c" x="-.055" width="1.109" y="-.043" height="1.086"><feGaussianBlur stdDeviation="4"/></filter><filter style="color-interpolation-filters:sRGB" id="d" x="-.014" width="1.027" y="-.011" height="1.022"><feGaussianBlur stdDeviation="1"/></filter></defs><path style="color:#000;display:inline;overflow:visible;visibility:visible;opacity:.3;fill:#000;fill-opacity:1;fill-rule:nonzero;stroke:none;stroke-width:1;marker:none;filter:url(#c);enable-background:accumulate" d="M115.261-22.135c-35.297 0-38.922 3.625-38.922 38.994V160.87c0 35.369 3.625 38.995 38.922 38.995h98.156c35.297 0 39.095-3.626 38.922-38.995V60.105c-.044-9.733-8.179-17.956-14.762-24.162l-.048-.051-40.524-42.408c-10.677-10.561-18.058-15.62-32.666-15.62zm96.982.09c-2.169 2.775-2.385 7.403.21 9.912l28.495 30.386c3.724 3.696 11.117.57 11.381-4.777-.115-29.585-4.142-34.876-31.359-35.522z" transform="matrix(.5 0 0 .5 -18.17 20.068)"/><path style="color:#000;display:inline;overflow:visible;visibility:visible;opacity:.1;fill:#000;fill-opacity:1;fill-rule:nonzero;stroke:none;stroke-width:1;marker:none;filter:url(#d);enable-background:accumulate" d="M115.261-23.135c-35.297 0-38.922 3.625-38.922 38.994V160.87c0 35.369 3.625 38.995 38.922 38.995h98.156c35.297 0 39.095-3.626 38.922-38.995V59.105c-.044-9.733-8.179-17.956-14.762-24.162l-.048-.051-40.524-42.408c-10.677-10.561-18.058-15.62-32.666-15.62zm97.969.09c-3.04 2.502-3.72 8.066-.778 10.912l28.496 30.386c3.729 3.7 11.14.561 11.385-4.799-.032-30.448-3.848-35.847-31.363-36.5z" transform="matrix(.5 0 0 .5 -18.17 20.068)"/><path style="color:#000;display:inline;overflow:visible;visibility:visible;opacity:.1;fill:none;fill-opacity:1;fill-rule:nonzero;stroke:#000;stroke-width:2;stroke-miterlimit:4;stroke-dasharray:none;marker:none;enable-background:accumulate" d="M39.461 8c-1.088 0-2.113.007-3.084.024-14.74.264-16.334 2.894-16.334 19.473v73.006c0 16.579 1.593 19.209 16.334 19.473.97.017 1.996.024 3.084.024H88.539c1.103 0 2.145-.007 3.128-.024 14.75-.264 16.414-2.894 16.333-19.473V49.12c-.022-4.866-4.09-8.978-7.38-12.08l-.025-.026L80.333 15.81C74.995 10.53 71.304 8 64 8zm49.866.045c-2.237.746-2.995 4.288-1.27 5.956l14.248 15.193c1.87 1.857 5.597.271 5.695-2.425v-3.596c-.319-12.478-2.883-14.825-15.642-15.128h-1.976z"/><path style="color:#000;display:inline;overflow:visible;visibility:visible;fill:url(#e);fill-opacity:1;fill-rule:nonzero;stroke:none;stroke-width:.5;marker:none;enable-background:accumulate" d="M39.461 8c-17.648 0-19.46 1.813-19.46 19.497v73.006C20 118.187 21.812 120 39.46 120h49.078c17.649 0 19.548-1.813 19.461-19.497V49.12c-.022-4.866-4.09-8.978-7.38-12.08l-.025-.026L80.333 15.81C74.995 10.529 71.304 8 64 8z"/><path style="color:#000;display:inline;overflow:visible;visibility:visible;fill:url(#f);fill-opacity:1;fill-rule:nonzero;stroke:none;stroke-width:.5;marker:none;enable-background:accumulate" d="M39.461 8c-17.648 0-19.46 1.813-19.46 19.497v73.006C20 118.187 21.812 120 39.46 120h49.078c7.721 0 12.428-.347 15.273-2.219.203-.133.397-.274.582-.423 1.107-.898 1.888-2.092 2.432-3.673.999-2.9 1.204-7.103 1.174-13.182V49.12c-.022-4.866-4.09-8.978-7.38-12.08l-.025-.026L80.333 15.81C74.995 10.53 71.304 8 64 8zm49.866.045c-2.237.746-2.995 4.288-1.27 5.956l14.248 15.193c1.867 1.853 5.58.277 5.693-2.41.024-15.664-1.777-18.41-15.683-18.739h-1.933z"/><path style="display:inline;opacity:.1;fill:#fff;fill-opacity:1;stroke-width:1;stroke-linejoin:round;stroke-dasharray:1.5,1.5;enable-background:new" d="M64 8v112h24.54c7.72 0 12.427-.347 15.272-2.219.203-.133.397-.274.582-.424 1.107-.897 1.888-2.091 2.432-3.672.999-2.9 1.204-7.103 1.174-13.182V49.12c-.022-4.866-4.09-8.978-7.38-12.08l-.025-.026L80.333 15.81C74.995 10.53 71.304 8 64 8zm25.327.045c-2.237.746-2.995 4.288-1.27 5.956l14.248 15.193c1.867 1.853 5.58.277 5.693-2.41.024-15.664-1.777-18.41-15.683-18.739h-1.933z"/><path style="color:#000;display:inline;overflow:visible;visibility:visible;opacity:.1;fill:#fff;fill-opacity:1;fill-rule:nonzero;stroke:none;stroke-width:.5;marker:none;enable-background:accumulate" d="M20 64v36.503C19.914 118.188 21.813 120 39.461 120H88.54c17.649 0 19.002-1.818 19.461-19.497V64z"/><path style="color:#000;display:inline;overflow:visible;visibility:visible;opacity:.08;fill:#fff;fill-opacity:1;fill-rule:nonzero;stroke:none;stroke-width:4;stroke-linecap:butt;stroke-linejoin:miter;stroke-miterlimit:4;stroke-dasharray:none;stroke-dashoffset:0;stroke-opacity:1;marker:none;enable-background:accumulate" d="m78 120 30-30v11.242C107.974 118.24 106.099 120 88.913 120z"/><path style="color:#000;display:inline;overflow:visible;visibility:visible;opacity:.3;fill:#fff;fill-opacity:1;fill-rule:nonzero;stroke:none;stroke-width:.5;marker:none;enable-background:accumulate" d="M20.006 26.71c-.001.27-.006.51-.006.787v1c-.003-.63.003-1.196.006-1.786z"/><path style="color:#000;display:inline;overflow:visible;visibility:visible;opacity:.2;fill:#000;fill-opacity:1;fill-rule:nonzero;stroke:none;stroke-width:.5;marker:none;enable-background:accumulate" d="M20.003 99.503v1c-.001.221.002.41.002.627 0 .23.003.442.005.666-.006-.744-.011-1.484-.007-2.293zm87.997.376C107.972 117.195 106.058 119 88.542 119H39.464c-16.467 0-19.22-1.59-19.446-16.167.153 12.437 1.745 15.983 11.088 16.883h.005c.38.036.774.07 1.18.098h.004c.407.028.827.053 1.262.074.29.014.624.018.926.029.605.022 1.196.047 1.851.059h.002c.982.017 2.023.024 3.125.024h49.078c1.838 0 3.469-.028 4.98-.083a58.485 58.485 0 0 0 3.377-.201c9.748-.939 11.061-4.75 11.102-18.542 0-.231.003-.434.002-.671z"/><path style="color:#000;display:inline;overflow:visible;visibility:visible;opacity:.3;fill:#fff;fill-opacity:1;fill-rule:nonzero;stroke:none;stroke-width:.5;marker:none;enable-background:accumulate" d="M39.46 8c-1.253 0-2.405.013-3.505.036-.785.017-1.543.038-2.253.071-.446.021-.88.044-1.299.073l-.114.006-.057.005c-.558.04-1.085.09-1.594.146-.14.015-.282.03-.42.047a30.282 30.282 0 0 0-.975.136c-.123.019-.247.037-.366.058-.194.034-.379.071-.564.109-.254.05-.5.105-.739.164-.095.023-.193.045-.286.07a14.323 14.323 0 0 0-1.22.384l-.119.046c-.78.3-1.462.662-2.054 1.102 0 0 0 .002-.002.002-2.696 2.007-3.568 5.611-3.807 11.96a116.112 116.112 0 0 0-.066 2.629C20.258 10.587 23.041 9 39.46 9h31.265c-.43-.148-.873-.277-1.327-.392l-.235-.06a17.839 17.839 0 0 0-1.02-.208c-.167-.03-.332-.061-.502-.087a20.928 20.928 0 0 0-.943-.12c-.128-.013-.26-.022-.39-.033-.246-.022-.497-.04-.753-.054-.13-.007-.26-.015-.393-.02A28.85 28.85 0 0 0 64 8z"/><path style="color:#000;display:inline;overflow:visible;visibility:visible;opacity:.4;fill:#fff;fill-opacity:1;fill-rule:nonzero;stroke:none;stroke-width:.5;marker:none;enable-background:accumulate" d="M89.327 8.045c-.536.179-.984.52-1.336.955h.548c17.076 0 19.32 1.743 19.448 17.873.001-.02.006-.037.007-.057-.027-8.896-.584-13.656-3.598-16.142a7.092 7.092 0 0 0-.512-.383 7.662 7.662 0 0 0-.544-.337 8.531 8.531 0 0 0-.364-.197c-.071-.036-.145-.07-.218-.105a9.814 9.814 0 0 0-.509-.224l-.072-.029c-2.3-.907-5.476-1.25-9.854-1.354h-1.941z"/><path style="color:#000;display:inline;overflow:visible;visibility:visible;opacity:.3;fill:#fff;fill-opacity:1;fill-rule:nonzero;stroke:none;stroke-width:.5;marker:none;enable-background:accumulate" d="M20.006 26.77c-.002.246-.006.47-.006.727v1c-.003-.61.003-1.157.006-1.726z"/><path style="display:inline;overflow:visible;visibility:visible;opacity:.25;fill:#000;fill-opacity:1;fill-rule:nonzero;stroke:none;stroke-width:2.5;marker:none;enable-background:new" d="M33.5 51.5v5H31V59h2.5v42h-2.501v2.5H33.5v5H36v-5h56v5h2.5v-5h2.499V101H94.5V59H97v-2.5h-2.5v-5H92v5H36v-5zM36 59h56v42H36zm19.984 3.491-4.375 27.5-4.375-12.5h-6.25v4.25h3l5 15.75h6l5.25-31h23.25v3.5h3.75v-7.5zM64.753 75a2.5 2.5 0 0 0-1.768.732 2.5 2.5 0 0 0 0 3.536l6.983 6.982-6.983 6.982a2.5 2.5 0 0 0 0 3.536 2.5 2.5 0 0 0 3.536 0l6.983-6.983 6.981 6.983a2.5 2.5 0 0 0 3.536 0 2.5 2.5 0 0 0 0-3.536L77.04 86.25l6.982-6.982a2.5 2.5 0 0 0 0-3.536A2.5 2.5 0 0 0 82.253 75a2.5 2.5 0 0 0-1.768.732l-6.981 6.983-6.983-6.983A2.5 2.5 0 0 0 64.753 75z"/><path style="display:inline;overflow:visible;visibility:visible;opacity:.75;fill:#fff;fill-opacity:1;fill-rule:nonzero;stroke:none;stroke-width:2.5;marker:none;enable-background:new" d="M33.5 50.5v5H31V58h2.5v42h-2.501v2.5H33.5v5H36v-5h56v5h2.5v-5h2.499V100H94.5V58H97v-2.5h-2.5v-5H92v5H36v-5zM36 58h56v42H36z"/><g style="font-style:normal;font-variant:normal;font-weight:400;font-stretch:normal;font-size:8px;font-family:Vegur;display:inline;fill:#fff;fill-opacity:1;stroke:none;enable-background:new"><path d="M3725.054 691.79v1.995h-.997v-.931h-6.183l-1.396 8.244h-1.596l-1.33-4.188h-.798v-1.13h1.663l1.163 3.323 1.163-7.313" style="font-family:Symbol;fill:#fff;fill-opacity:1" transform="matrix(3.76028 0 0 3.76028 -13919.994 -2539.83)"/></g><path d="M82.253 76.5 64.753 94M64.753 76.5l17.5 17.5" style="display:inline;fill:none;stroke:#fff;stroke-width:5;stroke-linecap:round;stroke-linejoin:round;stroke-miterlimit:4;stroke-dasharray:none;stroke-opacity:1;enable-background:new"/></svg>