<?xml version="1.0" encoding="UTF-8" standalone="no"?>
<svg
   xmlns:dc="http://purl.org/dc/elements/1.1/"
   xmlns:cc="http://creativecommons.org/ns#"
   xmlns:rdf="http://www.w3.org/1999/02/22-rdf-syntax-ns#"
   xmlns:svg="http://www.w3.org/2000/svg"
   xmlns="http://www.w3.org/2000/svg"
   xmlns:xlink="http://www.w3.org/1999/xlink"
   xmlns:sodipodi="http://sodipodi.sourceforge.net/DTD/sodipodi-0.dtd"
   xmlns:inkscape="http://www.inkscape.org/namespaces/inkscape"
   height="16"
   viewBox="0 0 24 16"
   width="24"
   version="1.1"
   id="svg16"
   sodipodi:docname="spacing_normal.svg"
   inkscape:version="1.0.1 (3bc2e813f5, 2020-09-07)">
  <metadata
     id="metadata22">
    <rdf:RDF>
      <cc:Work
         rdf:about="">
        <dc:format>image/svg+xml</dc:format>
        <dc:type
           rdf:resource="http://purl.org/dc/dcmitype/StillImage" />
        <dc:title></dc:title>
      </cc:Work>
    </rdf:RDF>
  </metadata>
  <defs
     id="defs20">
    <linearGradient
       inkscape:collect="always"
       xlink:href="#linearGradient842"
       id="linearGradient844"
       x1="3"
       y1="3"
       x2="3"
       y2="8"
       gradientUnits="userSpaceOnUse" />
    <linearGradient
       inkscape:collect="always"
       id="linearGradient842">
      <stop
         style="stop-color:#151515;stop-opacity:1"
         offset="0"
         id="stop838" />
      <stop
         style="stop-color:#4d4d4d;stop-opacity:1"
         offset="1"
         id="stop840" />
    </linearGradient>
  </defs>
  <sodipodi:namedview
     pagecolor="#808080"
     bordercolor="#666666"
     borderopacity="1"
     objecttolerance="10"
     gridtolerance="10"
     guidetolerance="10"
     inkscape:pageopacity="0"
     inkscape:pageshadow="2"
     inkscape:window-width="1920"
     inkscape:window-height="1043"
     id="namedview18"
     showgrid="true"
     inkscape:zoom="25.25"
     inkscape:cx="5.0172145"
     inkscape:cy="8.2335702"
     inkscape:window-x="1920"
     inkscape:window-y="0"
     inkscape:window-maximized="1"
     inkscape:current-layer="svg16"
     inkscape:document-rotation="0">
    <inkscape:grid
       type="xygrid"
       id="grid867" />
  </sodipodi:namedview>
  <path
     id="path874"
     style="opacity:1;fill:#000000;stroke:#ffffff;stroke-width:2;stroke-linejoin:round;stroke-miterlimit:4;stroke-dasharray:none"
     d="m 2,3 v 5 h 1 1.5 c 0.8284303,0 1.5000003,-0.67157 1.5000003,-1.5 0,-0.533302 -0.268198,-1.015272 -0.6875,-1.28125 C 5.4279583,5.00621 5.5000003,4.758884 5.5000003,4.5 5.5000003,3.67157 4.8284303,3 4,3 H 3 2.5 Z M 3,4 H 4 C 4.27614,4 4.5,4.22386 4.5,4.5 4.5,4.77614 4.27614,5 4,5 H 3 Z M 3,6 H 4.5 C 4.7761403,6 5.0000003,6.22386 5.0000003,6.5 5.0000003,6.77614 4.7761403,7 4.5,7 H 3 Z" />
  <path
     id="path876"
     style="opacity:1;fill:#000000;stroke:#ffffff;stroke-width:2;stroke-linejoin:round;stroke-miterlimit:4;stroke-dasharray:none"
     d="m 11,3 v 5 h 1 1.5 C 14.32843,8 15,7.32843 15,6.5 v -2 C 15,3.67157 14.32843,3 13.5,3 H 12 Z m 1,1 h 1.5 C 13.77614,4 14,4.22386 14,4.5 V 5.09375 5.90625 6.5 C 14,6.77614 13.77614,7 13.5,7 H 12 Z" />
  <path
     style="fill:#e95420;fill-opacity:1;stroke:none;stroke-width:1px;stroke-linecap:butt;stroke-linejoin:miter;stroke-opacity:1"
     d="M 2,10 6.0000003,12 2,14 Z"
     id="path834-1"
     sodipodi:nodetypes="cccc" />
  <path
     style="fill:#e95420;fill-opacity:1;stroke:none;stroke-width:1px;stroke-linecap:butt;stroke-linejoin:miter;stroke-opacity:1"
     d="m 15,10 -4,2 4,2 z"
     id="path878"
     sodipodi:nodetypes="cccc" />
  <path
     id="path2-9"
     style="fill:url(#linearGradient844);fill-opacity:1"
     d="M 2,3 V 8 H 3 4.5 C 5.3284303,8 6,7.32843 6,6.5 6,5.966698 5.731802,5.484728 5.3125,5.21875 5.427958,5.00621 5.5,4.758884 5.5,4.5 5.5,3.67157 4.8284303,3 4,3 H 3 2.5 Z m 9,0 v 5 h 1 1.5 C 14.32843,8 15,7.32843 15,6.5 v -2 C 15,3.67157 14.32843,3 13.5,3 H 12 Z M 3,4 H 4 C 4.27614,4 4.5,4.22386 4.5,4.5 4.5,4.77614 4.27614,5 4,5 H 3 Z m 9,0 h 1.5 c 0.27614,0 0.588259,0.2383446 0.5,0.5 V 5.09375 5.90625 6.5 C 14,6.77614 13.77614,7 13.5,7 H 12 Z M 3,6 H 4.5 C 4.7761403,6 5,6.22386 5,6.5 5,6.77614 4.7761403,7 4.5,7 H 3 Z"
     sodipodi:nodetypes="cccsscssccccccsssscccssscccssccsscccssscc" />
</svg>
