<?xml version="1.0" encoding="UTF-8" standalone="no"?>
<svg
   xmlns:dc="http://purl.org/dc/elements/1.1/"
   xmlns:cc="http://creativecommons.org/ns#"
   xmlns:rdf="http://www.w3.org/1999/02/22-rdf-syntax-ns#"
   xmlns:svg="http://www.w3.org/2000/svg"
   xmlns="http://www.w3.org/2000/svg"
   xmlns:sodipodi="http://sodipodi.sourceforge.net/DTD/sodipodi-0.dtd"
   xmlns:inkscape="http://www.inkscape.org/namespaces/inkscape"
   height="16"
   viewBox="0 0 24 16"
   width="24"
   version="1.1"
   id="svg16"
   sodipodi:docname="spacing_normal.svg"
   inkscape:version="1.0.1 (3bc2e813f5, 2020-09-07)">
  <metadata
     id="metadata22">
    <rdf:RDF>
      <cc:Work
         rdf:about="">
        <dc:format>image/svg+xml</dc:format>
        <dc:type
           rdf:resource="http://purl.org/dc/dcmitype/StillImage" />
      </cc:Work>
    </rdf:RDF>
  </metadata>
  <defs
     id="defs20" />
  <sodipodi:namedview
     pagecolor="#ffffff"
     bordercolor="#666666"
     borderopacity="1"
     objecttolerance="10"
     gridtolerance="10"
     guidetolerance="10"
     inkscape:pageopacity="0"
     inkscape:pageshadow="2"
     inkscape:window-width="1920"
     inkscape:window-height="1011"
     id="namedview18"
     showgrid="true"
     inkscape:zoom="17.854446"
     inkscape:cx="4.0794826"
     inkscape:cy="8.1873066"
     inkscape:window-x="0"
     inkscape:window-y="0"
     inkscape:window-maximized="1"
     inkscape:current-layer="svg16"
     inkscape:document-rotation="0">
    <inkscape:grid
       type="xygrid"
       id="grid867" />
  </sodipodi:namedview>
  <path
     style="opacity:0.6;fill:#000000;fill-opacity:1;stroke:#000000;stroke-width:2;stroke-linecap:butt;stroke-linejoin:round;stroke-miterlimit:4;stroke-dasharray:none;stroke-opacity:1"
     d="M 2,9.9999999 6,12 2,14 Z"
     id="path880"
     sodipodi:nodetypes="cccc" />
  <path
     style="opacity:0.6;fill:#000000;fill-opacity:1;stroke:#000000;stroke-width:2;stroke-linecap:butt;stroke-linejoin:round;stroke-miterlimit:4;stroke-dasharray:none;stroke-opacity:1"
     d="M 15,9.9999999 11,12 l 4,2 z"
     id="path882"
     sodipodi:nodetypes="cccc" />
  <path
     id="path874"
     style="opacity:0.6;fill:#000000;stroke:#000000;stroke-width:2;stroke-linejoin:round;stroke-miterlimit:4;stroke-dasharray:none"
     d="M 2,3 V 8 H 3 4.5 C 5.32843,8 6,7.32843 6,6.5 6,5.9666982 5.731802,5.484728 5.3125,5.21875 5.427958,5.00621 5.5,4.7588844 5.5,4.5 5.5,3.67157 4.82843,3 4,3 H 3 2.5 Z M 3,4 H 4 C 4.27614,4 4.5,4.22386 4.5,4.5 4.5,4.77614 4.27614,5 4,5 H 3 Z M 3,6 H 4.5 C 4.77614,6 5,6.22386 5,6.5 5,6.77614 4.77614,7 4.5,7 H 3 Z" />
  <path
     id="path876"
     style="opacity:0.6;fill:#000000;stroke:#000000;stroke-width:2;stroke-linejoin:round;stroke-miterlimit:4;stroke-dasharray:none"
     d="m 11,3 v 5 h 1 1.5 C 14.32843,8 15,7.32843 15,6.5 v -2 C 15,3.67157 14.32843,3 13.5,3 H 12 Z m 1,1 h 1.5 C 13.77614,4 14,4.22386 14,4.5 V 5.09375 5.90625 6.5 C 14,6.77614 13.77614,7 13.5,7 H 12 Z" />
  <path
     id="path2-9"
     style="fill:#ffffff"
     d="M 2,3 V 8 H 3 4.5 C 5.32843,8 6,7.32843 6,6.5 6,5.9666982 5.731802,5.484728 5.3125,5.21875 5.427958,5.00621 5.5,4.7588844 5.5,4.5 5.5,3.67157 4.82843,3 4,3 H 3 2.5 Z M 3,4 H 4 C 4.27614,4 4.5,4.22386 4.5,4.5 4.5,4.77614 4.27614,5 4,5 H 3 Z M 3,6 H 4.5 C 4.77614,6 5,6.22386 5,6.5 5,6.77614 4.77614,7 4.5,7 H 3 Z" />
  <path
     id="path861"
     style="fill:#ffffff"
     d="m 11,3 v 5 h 1 1.5 C 14.32843,8 15,7.32843 15,6.5 v -2 C 15,3.67157 14.32843,3 13.5,3 H 12 Z m 1,1 h 1.5 C 13.77614,4 14,4.22386 14,4.5 V 5.09375 5.90625 6.5 C 14,6.77614 13.77614,7 13.5,7 H 12 Z" />
  <path
     style="fill:#aee3f8;fill-opacity:1;stroke:none;stroke-width:1px;stroke-linecap:butt;stroke-linejoin:miter;stroke-opacity:1"
     d="M 2,9.9999999 6,12 2,14 Z"
     id="path834-1"
     sodipodi:nodetypes="cccc" />
  <path
     style="fill:#aee3f8;fill-opacity:1;stroke:none;stroke-width:1px;stroke-linecap:butt;stroke-linejoin:miter;stroke-opacity:1"
     d="M 15,9.9999999 11,12 l 4,2 z"
     id="path878"
     sodipodi:nodetypes="cccc" />
</svg>
