<?xml version="1.0" encoding="UTF-8" standalone="no"?>
<svg
   xmlns:dc="http://purl.org/dc/elements/1.1/"
   xmlns:cc="http://creativecommons.org/ns#"
   xmlns:rdf="http://www.w3.org/1999/02/22-rdf-syntax-ns#"
   xmlns:svg="http://www.w3.org/2000/svg"
   xmlns="http://www.w3.org/2000/svg"
   xmlns:sodipodi="http://sodipodi.sourceforge.net/DTD/sodipodi-0.dtd"
   xmlns:inkscape="http://www.inkscape.org/namespaces/inkscape"
   height="16"
   viewBox="0 0 24 16"
   width="24"
   version="1.1"
   id="svg16"
   sodipodi:docname="spacing_loose.svg"
   inkscape:version="1.0.1 (3bc2e813f5, 2020-09-07)">
  <metadata
     id="metadata22">
    <rdf:RDF>
      <cc:Work
         rdf:about="">
        <dc:format>image/svg+xml</dc:format>
        <dc:type
           rdf:resource="http://purl.org/dc/dcmitype/StillImage" />
        <dc:title />
      </cc:Work>
    </rdf:RDF>
  </metadata>
  <defs
     id="defs20" />
  <sodipodi:namedview
     pagecolor="#ffffff"
     bordercolor="#666666"
     borderopacity="1"
     objecttolerance="10"
     gridtolerance="10"
     guidetolerance="10"
     inkscape:pageopacity="0"
     inkscape:pageshadow="2"
     inkscape:window-width="1920"
     inkscape:window-height="1011"
     id="namedview18"
     showgrid="true"
     inkscape:zoom="22.627417"
     inkscape:cx="6.0186603"
     inkscape:cy="10.078534"
     inkscape:window-x="0"
     inkscape:window-y="0"
     inkscape:window-maximized="1"
     inkscape:current-layer="svg16"
     inkscape:document-rotation="0">
    <inkscape:grid
       type="xygrid"
       id="grid847" />
  </sodipodi:namedview>
  <path
     style="fill:#000000;fill-opacity:1;stroke:#000000;stroke-width:2;stroke-linecap:butt;stroke-linejoin:round;stroke-opacity:1;opacity:0.6;stroke-miterlimit:4;stroke-dasharray:none"
     d="m 2,10 4,2 -4,2 z"
     id="path880"
     sodipodi:nodetypes="cccc" />
  <path
     style="opacity:0.6;fill:#000000;fill-opacity:1;stroke:#000000;stroke-width:2;stroke-linecap:butt;stroke-linejoin:round;stroke-miterlimit:4;stroke-dasharray:none;stroke-opacity:1"
     d="m 17,10 -4,2 4,2 z"
     id="path882"
     sodipodi:nodetypes="cccc" />
  <path
     id="path874"
     style="fill:#000000;stroke:#000000;opacity:0.6;stroke-width:2;stroke-miterlimit:4;stroke-dasharray:none;stroke-linejoin:round"
     d="M 2 3 L 2 8 L 3 8 L 4.5 8 C 5.32843 8 6 7.32843 6 6.5 C 6 5.9666982 5.731802 5.484728 5.3125 5.21875 C 5.427958 5.00621 5.5 4.7588844 5.5 4.5 C 5.5 3.67157 4.82843 3 4 3 L 3 3 L 2.5 3 L 2 3 z M 3 4 L 4 4 C 4.27614 4 4.5 4.22386 4.5 4.5 C 4.5 4.77614 4.27614 5 4 5 L 3 5 L 3 4 z M 3 6 L 4.5 6 C 4.77614 6 5 6.22386 5 6.5 C 5 6.77614 4.77614 7 4.5 7 L 3 7 L 3 6 z " />
  <path
     id="path876"
     style="opacity:0.6;fill:#000000;stroke:#000000;stroke-width:2;stroke-linejoin:round;stroke-miterlimit:4;stroke-dasharray:none"
     d="m 13,3 v 5 h 1 1.5 C 16.32843,8 17,7.32843 17,6.5 v -2 C 17,3.67157 16.32843,3 15.5,3 H 14 Z m 1,1 h 1.5 C 15.77614,4 16,4.22386 16,4.5 V 5.09375 5.90625 6.5 C 16,6.77614 15.77614,7 15.5,7 H 14 Z" />
  <path
     id="path2-9"
     style="fill:#ffffff"
     d="M 2 3 L 2 8 L 3 8 L 4.5 8 C 5.32843 8 6 7.32843 6 6.5 C 6 5.9666982 5.731802 5.484728 5.3125 5.21875 C 5.427958 5.00621 5.5 4.7588844 5.5 4.5 C 5.5 3.67157 4.82843 3 4 3 L 3 3 L 2.5 3 L 2 3 z M 3 4 L 4 4 C 4.27614 4 4.5 4.22386 4.5 4.5 C 4.5 4.77614 4.27614 5 4 5 L 3 5 L 3 4 z M 3 6 L 4.5 6 C 4.77614 6 5 6.22386 5 6.5 C 5 6.77614 4.77614 7 4.5 7 L 3 7 L 3 6 z " />
  <path
     id="path861"
     style="fill:#ffffff"
     d="m 13,3 v 5 h 1 1.5 C 16.32843,8 17,7.32843 17,6.5 v -2 C 17,3.67157 16.32843,3 15.5,3 H 14 Z m 1,1 h 1.5 C 15.77614,4 16,4.22386 16,4.5 V 5.09375 5.90625 6.5 C 16,6.77614 15.77614,7 15.5,7 H 14 Z" />
  <path
     style="fill:#aee3f8;fill-opacity:1;stroke:none;stroke-width:1px;stroke-linecap:butt;stroke-linejoin:miter;stroke-opacity:1"
     d="m 2,10 4,2 -4,2 z"
     id="path834-1"
     sodipodi:nodetypes="cccc" />
  <path
     style="fill:#aee3f8;fill-opacity:1;stroke:none;stroke-width:1px;stroke-linecap:butt;stroke-linejoin:miter;stroke-opacity:1"
     d="m 17,10 -4,2 4,2 z"
     id="path878"
     sodipodi:nodetypes="cccc" />
</svg>
