<svg height="128" width="128" xmlns:xlink="http://www.w3.org/1999/xlink" xmlns="http://www.w3.org/2000/svg"><defs><linearGradient id="b"><stop offset="0" style="stop-color:#c04fba;stop-opacity:1"/><stop offset="1" style="stop-color:#91a;stop-opacity:1"/></linearGradient><linearGradient gradientUnits="userSpaceOnUse" y2="169.669" x2="4.414" y1="386.308" x1="494.345" id="e" xlink:href="#a" gradientTransform="matrix(0 -.22656 -.22656 0 126.981 120)"/><linearGradient id="a"><stop style="stop-color:#f2f2f2;stop-opacity:1" offset="0"/><stop style="stop-color:#fff;stop-opacity:1" offset="1"/></linearGradient><linearGradient xlink:href="#b" id="f" x1="201.078" y1="270" x2="102.922" y2="46" gradientUnits="userSpaceOnUse" gradientTransform="matrix(.5 0 0 .5 -12 -14)"/><filter style="color-interpolation-filters:sRGB" id="c" x="-.055" width="1.109" y="-.043" height="1.086"><feGaussianBlur stdDeviation="4"/></filter><filter style="color-interpolation-filters:sRGB" id="d" x="-.014" width="1.027" y="-.011" height="1.022"><feGaussianBlur stdDeviation="1"/></filter></defs><path style="color:#000;display:inline;overflow:visible;visibility:visible;opacity:.3;fill:#000;fill-opacity:1;fill-rule:nonzero;stroke:none;stroke-width:1;marker:none;filter:url(#c);enable-background:accumulate" d="M62.922-19C27.625-19 24-15.374 24 19.994v144.012C24 199.375 27.625 203 62.922 203h98.156c35.297 0 39.095-3.626 38.922-38.994V63.24c-.044-9.733-8.179-17.955-14.762-24.162l-.048-.05-40.524-42.409C133.99-13.94 126.608-19 112-19zm96.982.09c-2.169 2.776-2.385 7.403.21 9.912L188.61 21.39c3.723 3.695 11.116.569 11.38-4.778-.115-29.584-4.142-34.875-31.359-35.521z" transform="matrix(.5 0 0 .5 8 18.5)"/><path style="color:#000;display:inline;overflow:visible;visibility:visible;opacity:.1;fill:#000;fill-opacity:1;fill-rule:nonzero;stroke:none;stroke-width:1;marker:none;filter:url(#d);enable-background:accumulate" d="M62.922-20C27.625-20 24-16.374 24 18.994v145.012C24 199.375 27.625 203 62.922 203h98.156c35.297 0 39.095-3.626 38.922-38.994V62.24c-.044-9.733-8.179-17.955-14.762-24.162l-.048-.05-40.524-42.409C133.99-14.94 126.608-20 112-20zm97.969.09c-3.04 2.502-3.72 8.066-.778 10.912L188.61 21.39c3.728 3.7 11.14.56 11.384-4.8-.032-30.448-3.848-35.846-31.363-36.5z" transform="matrix(.5 0 0 .5 8 18.5)"/><path style="color:#000;display:inline;overflow:visible;visibility:visible;opacity:.1;fill:none;fill-opacity:1;fill-rule:nonzero;stroke:#000;stroke-width:2;stroke-miterlimit:4;stroke-dasharray:none;marker:none;enable-background:accumulate" d="M39.461 8c-1.088 0-2.113.007-3.084.024-14.74.264-16.334 2.894-16.334 19.473v73.006c0 16.579 1.593 19.209 16.334 19.473.97.017 1.996.024 3.084.024H88.539c1.103 0 2.145-.007 3.128-.024 14.75-.264 16.414-2.894 16.333-19.473V49.12c-.022-4.866-4.09-8.978-7.38-12.08l-.025-.026L80.333 15.81C74.995 10.53 71.304 8 64 8zm49.866.045c-2.237.746-2.995 4.288-1.27 5.956l14.248 15.193c1.87 1.857 5.597.271 5.695-2.425v-3.596c-.319-12.478-2.883-14.825-15.642-15.128h-1.976z"/><path style="color:#000;display:inline;overflow:visible;visibility:visible;fill:url(#e);fill-opacity:1;fill-rule:nonzero;stroke:none;stroke-width:.5;marker:none;enable-background:accumulate" d="M39.461 8c-17.648 0-19.46 1.813-19.46 19.497v73.006C20 118.187 21.812 120 39.46 120h49.078c17.648 0 19.548-1.813 19.461-19.497V49.12c-.022-4.866-4.09-8.978-7.38-12.08l-.025-.026L80.333 15.81C74.995 10.529 71.304 8 64 8z"/><path style="color:#000;display:inline;overflow:visible;visibility:visible;fill:url(#f);fill-opacity:1;fill-rule:nonzero;stroke:none;stroke-width:.5;marker:none;enable-background:accumulate" d="M39.461 8c-17.648 0-19.46 1.813-19.46 19.497v73.006C20 118.187 21.812 120 39.46 120h49.078c7.721 0 12.428-.347 15.273-2.219a7.25 7.25 0 0 0 .582-.424c1.107-.897 1.888-2.091 2.432-3.672.999-2.9 1.204-7.103 1.174-13.182V49.12c-.022-4.866-4.09-8.978-7.38-12.08l-.025-.026L80.333 15.81C74.995 10.53 71.304 8 64 8zm49.866.045c-2.237.746-2.995 4.288-1.27 5.956l14.248 15.193c1.867 1.853 5.58.277 5.693-2.41.024-15.664-1.777-18.41-15.683-18.739h-1.933z"/><path style="display:inline;opacity:.1;fill:#fff;fill-opacity:1;stroke-width:1;stroke-linejoin:round;stroke-dasharray:1.5,1.5;enable-background:new" d="M64 8v112h24.54c7.72 0 12.427-.347 15.272-2.219a7.25 7.25 0 0 0 .582-.424c1.107-.897 1.888-2.091 2.432-3.672.999-2.9 1.204-7.103 1.174-13.182V49.12c-.022-4.866-4.09-8.978-7.38-12.08l-.025-.026L80.333 15.81C74.995 10.53 71.304 8 64 8zm25.327.045c-2.237.746-2.995 4.288-1.27 5.956l14.248 15.193c1.867 1.853 5.58.277 5.693-2.41.024-15.664-1.777-18.41-15.683-18.739h-1.933z"/><path style="color:#000;display:inline;overflow:visible;visibility:visible;opacity:.1;fill:#fff;fill-opacity:1;fill-rule:nonzero;stroke:none;stroke-width:.5;marker:none;enable-background:accumulate" d="M20 64v36.503C19.914 118.188 21.813 120 39.461 120H88.54c17.649 0 19.002-1.818 19.461-19.497V64z"/><g style="display:inline;opacity:.25;fill:#000;fill-opacity:1;stroke:#000;stroke-width:1.07236;stroke-opacity:1;enable-background:new"><path d="M332.742 90.105v4.003c0 1.935 5.04 3.503 11.257 3.503 6.218 0 11.258-1.568 11.258-3.503v-4.003z" style="color:#000;display:inline;overflow:visible;visibility:visible;fill:#000;fill-opacity:1;fill-rule:nonzero;stroke:#000;stroke-width:1.07236;stroke-linecap:butt;stroke-linejoin:miter;stroke-miterlimit:4;stroke-dasharray:none;stroke-dashoffset:0;stroke-opacity:1;marker:none" transform="matrix(2.25692 0 0 2.24756 -712.377 -121.563)"/><g style="fill:#000;fill-opacity:1;stroke:#000;stroke-width:1.07236;stroke-miterlimit:4;stroke-dasharray:none;stroke-opacity:1"><path d="M1259.742-868.572v4.002c0 1.935 5.04 3.503 11.258 3.503 6.217 0 11.258-1.568 11.258-3.502v-4.003z" style="color:#000;display:inline;overflow:visible;visibility:visible;fill:#000;fill-opacity:1;fill-rule:nonzero;stroke:#000;stroke-width:1.07236;stroke-linecap:butt;stroke-linejoin:miter;stroke-miterlimit:4;stroke-dasharray:none;stroke-dashoffset:0;stroke-opacity:1;marker:none" transform="matrix(2.25692 0 0 2.24756 -2804.541 2022.59)"/><g style="fill:#000;fill-opacity:1;stroke:#000;stroke-width:1.08344;stroke-miterlimit:4;stroke-dasharray:none;stroke-opacity:1" transform="matrix(2.20936 0 0 2.24919 -821.95 2023.438)"><path d="M389.5-872.957v4c0 1.933 5.149 3.5 11.5 3.5s11.5-1.567 11.5-3.5v-4z" style="color:#000;display:inline;overflow:visible;visibility:visible;fill:#000;fill-opacity:1;fill-rule:nonzero;stroke:#000;stroke-width:1.08344;stroke-linecap:butt;stroke-linejoin:miter;stroke-miterlimit:4;stroke-dasharray:none;stroke-dashoffset:0;stroke-opacity:1;marker:none"/><ellipse ry="5.688" rx="22.438" cy="730.313" cx="519.688" transform="matrix(.51253 0 0 .61538 134.642 -1323.187)" style="color:#000;display:inline;overflow:visible;visibility:visible;fill:#000;fill-opacity:1;fill-rule:nonzero;stroke:#000;stroke-width:1.92917;stroke-miterlimit:4;stroke-dasharray:none;stroke-opacity:1;marker:none"/></g></g></g><g style="display:inline;fill:#dc85e9;fill-opacity:1;stroke:#fff;stroke-width:1.07236;stroke-opacity:1;enable-background:new"><path d="M332.742 90.105v4.003c0 1.935 5.04 3.503 11.257 3.503 6.218 0 11.258-1.568 11.258-3.503v-4.003z" style="color:#000;display:inline;overflow:visible;visibility:visible;fill:#dc85e9;fill-opacity:1;fill-rule:nonzero;stroke:#fff;stroke-width:1.07236;stroke-linecap:butt;stroke-linejoin:miter;stroke-miterlimit:4;stroke-dasharray:none;stroke-dashoffset:0;stroke-opacity:1;marker:none" transform="matrix(2.25692 0 0 2.24756 -712.377 -122.562)"/><g style="fill:#dc85e9;fill-opacity:1;stroke:#fff;stroke-width:1.07236;stroke-miterlimit:4;stroke-dasharray:none;stroke-opacity:1"><path d="M1259.742-868.572v4.002c0 1.935 5.04 3.503 11.258 3.503 6.217 0 11.258-1.568 11.258-3.502v-4.003z" style="color:#000;display:inline;overflow:visible;visibility:visible;fill:#dc85e9;fill-opacity:1;fill-rule:nonzero;stroke:#fff;stroke-width:1.07236;stroke-linecap:butt;stroke-linejoin:miter;stroke-miterlimit:4;stroke-dasharray:none;stroke-dashoffset:0;stroke-opacity:1;marker:none" transform="matrix(2.25692 0 0 2.24756 -2804.541 2021.59)"/><g style="fill:#dc85e9;fill-opacity:1;stroke:#fff;stroke-width:1.08344;stroke-miterlimit:4;stroke-dasharray:none;stroke-opacity:1" transform="matrix(2.20936 0 0 2.24919 -821.95 2022.439)"><path d="M389.5-872.957v4c0 1.933 5.149 3.5 11.5 3.5s11.5-1.567 11.5-3.5v-4z" style="color:#000;display:inline;overflow:visible;visibility:visible;fill:#dc85e9;fill-opacity:1;fill-rule:nonzero;stroke:#fff;stroke-width:1.08344;stroke-linecap:butt;stroke-linejoin:miter;stroke-miterlimit:4;stroke-dasharray:none;stroke-dashoffset:0;stroke-opacity:1;marker:none"/><ellipse ry="5.688" rx="22.438" cy="730.313" cx="519.688" transform="matrix(.51253 0 0 .61538 134.642 -1323.187)" style="color:#000;display:inline;overflow:visible;visibility:visible;fill:#dc85e9;fill-opacity:1;fill-rule:nonzero;stroke:#fff;stroke-width:1.92917;stroke-miterlimit:4;stroke-dasharray:none;stroke-opacity:1;marker:none"/></g></g></g><path style="color:#000;display:inline;overflow:visible;visibility:visible;opacity:.3;fill:#fff;fill-opacity:1;fill-rule:nonzero;stroke:none;stroke-width:.5;marker:none;enable-background:accumulate" d="M39.46 8c-1.253 0-2.405.013-3.505.036-.784.017-1.543.038-2.253.071-.446.021-.88.044-1.299.073l-.114.007c-.02 0-.037.003-.057.004-.558.04-1.084.09-1.593.146-.141.015-.283.03-.42.047a30.444 30.444 0 0 0-.976.136c-.122.019-.247.037-.366.058-.193.034-.378.071-.564.109-.253.05-.5.105-.739.164-.095.023-.193.045-.286.07a14.322 14.322 0 0 0-1.22.384l-.119.046c-.78.3-1.462.662-2.053 1.102l-.002.002c-2.697 2.007-3.57 5.611-3.808 11.96-.012.303-.02.616-.03.932-.015.552-.029 1.105-.037 1.697C20.26 10.587 23.043 9 39.461 9h31.265c-.43-.148-.873-.277-1.328-.392l-.235-.06a17.84 17.84 0 0 0-1.02-.208c-.167-.03-.331-.061-.501-.087a20.914 20.914 0 0 0-.944-.12c-.127-.013-.26-.022-.39-.033-.246-.022-.497-.04-.752-.054-.13-.007-.261-.015-.394-.02A28.85 28.85 0 0 0 64 8z"/><path style="color:#000;display:inline;overflow:visible;visibility:visible;opacity:.4;fill:#fff;fill-opacity:1;fill-rule:nonzero;stroke:none;stroke-width:.5;marker:none;enable-background:accumulate" d="M89.327 8.045c-.535.179-.984.52-1.336.955h.548c17.077 0 19.32 1.743 19.448 17.873.002-.02.006-.037.007-.057-.027-8.896-.583-13.656-3.597-16.142a7.092 7.092 0 0 0-.513-.383 7.537 7.537 0 0 0-.544-.337 8.531 8.531 0 0 0-.364-.197c-.071-.036-.145-.07-.218-.105a9.814 9.814 0 0 0-.509-.224l-.072-.029c-2.299-.907-5.476-1.25-9.854-1.354h-1.941z"/><path style="color:#000;display:inline;overflow:visible;visibility:visible;opacity:.3;fill:#fff;fill-opacity:1;fill-rule:nonzero;stroke:none;stroke-width:.5;marker:none;enable-background:accumulate" d="M20.006 26.77c-.002.246-.006.47-.006.727v1c-.003-.61.003-1.157.006-1.726z"/><path style="color:#000;display:inline;overflow:visible;visibility:visible;opacity:.2;fill:#000;fill-opacity:1;fill-rule:nonzero;stroke:none;stroke-width:.5;marker:none;enable-background:accumulate" d="M20 99.503v1C19.914 118.187 21.813 120 39.461 120H88.54c17.649 0 19.002-1.819 19.461-19.497v-1C107.541 117.18 106.188 119 88.54 119H39.46c-17.648 0-19.547-1.813-19.46-19.497z"/><path style="color:#000;display:inline;overflow:visible;visibility:visible;opacity:.08;fill:#fff;fill-opacity:1;fill-rule:nonzero;stroke:none;stroke-width:4;stroke-linecap:butt;stroke-linejoin:miter;stroke-miterlimit:4;stroke-dasharray:none;stroke-dashoffset:0;stroke-opacity:1;marker:none;enable-background:accumulate" d="m78 120 30-30v11.242C107.974 118.24 106.1 120 88.913 120z"/></svg>