<svg viewBox="0 0 32 32" xmlns="http://www.w3.org/2000/svg"><path style="fill:#6f8396;fill-rule:evenodd;stroke-width:3;stroke-linecap:round;stroke-linejoin:round" transform="scale(-1)" d="M-21-8h12v1h-12zM-21-6h16v1h-16zM-21-10h14v1h-14z"/><path style="fill:#fff;fill-rule:evenodd;stroke-width:3;stroke-linecap:round;stroke-linejoin:round" transform="scale(-1)" d="M-21-17h12v1h-12z"/><path style="fill:#232629;fill-rule:evenodd;stroke-width:3;stroke-linecap:round;stroke-linejoin:round" transform="scale(-1)" d="M-21-16h12v1h-12z"/><path style="fill:#fff;fill-rule:evenodd;stroke-width:3;stroke-linecap:round;stroke-linejoin:round" transform="scale(-1)" d="M-21-15h16v1h-16z"/><path style="fill:#232629;fill-rule:evenodd;stroke-width:3;stroke-linecap:round;stroke-linejoin:round" transform="scale(-1)" d="M-21-14h16v1h-16z"/><path style="fill:#fff;fill-rule:evenodd;stroke-width:3;stroke-linecap:round;stroke-linejoin:round" transform="scale(-1)" d="M-21-19h14v1h-14z"/><path style="fill:#232629;fill-rule:evenodd;stroke-width:3;stroke-linecap:round;stroke-linejoin:round" transform="scale(-1)" d="M-21-18h14v1h-14z"/><path style="fill:#6f8396;fill-rule:evenodd;stroke-width:3;stroke-linecap:round;stroke-linejoin:round" transform="scale(-1)" d="M-21-25h12v1h-12zM-21-23h16v1h-16zM-21-27h14v1h-14z"/><path style="fill:none;stroke:#6f8396;stroke-width:1px;stroke-linecap:butt;stroke-linejoin:miter" d="M23 7.5h2c2 0 2.5.5 2.5 2.5v12c0 2-.655 2.353-2.5 2.5h-2"/><path style="fill:#6f8396;stroke:none;stroke-width:1px;stroke-linecap:butt;stroke-linejoin:miter" d="m22 24.5 3-2.5v5l-3-2.5"/></svg>