<svg xmlns="http://www.w3.org/2000/svg" height="52" width="60"><path d="M0 0h60v52H0z" fill="#fff"/><path d="M12 40l-9 9" fill="none" stroke="#232629"/><path d="M11 40.006h46v.988H11z" fill="#232629"/><path d="M11 3h1v38h-1z" fill="#232629"/><path d="M10 10v15l19.875-6L48 31V10z" fill="#77216f"/><path d="M10 25l19.875-6L48 31v15H10z" fill="#e95420"/><path d="M48 10H10l4-3h37z" fill="#b87ab2" fill-rule="evenodd"/><path d="M48 10v21l3-3V7z" fill="#a6599f" fill-rule="evenodd"/><path d="M48 31v15l3-3V28z" fill="#f08966" fill-rule="evenodd"/><g fill="#fff"><path d="M40 11.5a2 2 0 00-2 2 2 2 0 002 2 2 2 0 002-2 2 2 0 00-2-2zm0 1a1 1 0 011 1 1 1 0 01-1 1 1 1 0 01-1-1 1 1 0 011-1zM44 15.5a2 2 0 00-2 2 2 2 0 002 2 2 2 0 002-2 2 2 0 00-2-2zm0 1a1 1 0 011 1 1 1 0 01-1 1 1 1 0 01-1-1 1 1 0 011-1z"/><path d="M44.6 11.2l-6 8 .8.6 6-8z" fill-rule="evenodd"/></g></svg>