<svg height="52" width="60" xmlns="http://www.w3.org/2000/svg" xmlns:xlink="http://www.w3.org/1999/xlink"><linearGradient id="a"><stop offset="0" stop-color="#e95420"/><stop offset="1" stop-color="#fe865c"/></linearGradient><linearGradient id="c" gradientTransform="matrix(0 -.88889 -1.5 0 1576.543 1045.029)" gradientUnits="userSpaceOnUse" x1="16.5" x2="16.5" xlink:href="#a" y1="1046.362" y2="1014.362"/><linearGradient id="d" gradientTransform="matrix(0 -.88889 -1.2 0 1262.634 1082.362)" gradientUnits="userSpaceOnUse" x1="49.5" x2="49.5" xlink:href="#b" y1="1046.362" y2="1006.362"/><linearGradient id="b"><stop offset="0" stop-color="#77216F"/><stop offset="1" stop-color="#a25f9e"/></linearGradient><linearGradient id="e" gradientTransform="matrix(0 -.88889 -1.33333 0 1402.15 1025.029)" gradientUnits="userSpaceOnUse" x1="16.5" x2="16.5" xlink:href="#a" y1="1046.362" y2="1010.362"/><linearGradient id="f" gradientTransform="matrix(0 -.88889 -1 0 1053.362 1062.362)" gradientUnits="userSpaceOnUse" x1="49.5" x2="49.5" xlink:href="#b" y1="1046.362" y2="998.362"/><path d="M0 0h60v52H0z" fill="#fff"/><path d="M34 1034.362v-8H7v8z" fill="url(#c)" transform="translate(0 -1000.362)"/><path d="M43 1042.362v-8H7v8z" fill="url(#d)" transform="translate(0 -1000.362)"/><path d="M31 1014.362v-8H7v8z" fill="url(#e)" transform="translate(0 -1000.362)"/><path d="M37 1022.362v-8H7v8z" fill="url(#f)" transform="translate(0 -1000.362)"/><path d="M3 45h52v1H3z" fill="#232629"/><path d="M6 3h1v46H6z" fill="#232629"/><g fill="#fff"><path d="M10 34a2 2 0 00-2 2 2 2 0 002 2 2 2 0 002-2 2 2 0 00-2-2zm0 1a1 1 0 011 1 1 1 0 01-1 1 1 1 0 01-1-1 1 1 0 011-1zM14 38a2 2 0 00-2 2 2 2 0 002 2 2 2 0 002-2 2 2 0 00-2-2zm0 1a1 1 0 011 1 1 1 0 01-1 1 1 1 0 01-1-1 1 1 0 011-1z"/><path d="M14.6 33.7l-6 8 .8.6 6-8z" fill-rule="evenodd"/></g></svg>