<svg height="52" width="60" xmlns="http://www.w3.org/2000/svg" xmlns:xlink="http://www.w3.org/1999/xlink"><linearGradient id="a"><stop offset="0" stop-color="#e95420"/><stop offset="1" stop-color="#fe865c"/></linearGradient><linearGradient id="c" gradientTransform="matrix(2 0 0 .83333 -14 174.394)" gradientUnits="userSpaceOnUse" x1="16" x2="16" xlink:href="#a" y1="1046.362" y2="994.762"/><linearGradient id="d" gradientTransform="matrix(2 0 0 .7 -80 298.909)" gradientUnits="userSpaceOnUse" x1="50" x2="50" xlink:href="#b" y1="1066.362" y2="1006.362"/><linearGradient id="b"><stop offset="0" stop-color="#77216F"/><stop offset="1" stop-color="#a25f9e"/></linearGradient><linearGradient id="e" gradientTransform="matrix(2 0 0 1.16667 10 -174.394)" gradientUnits="userSpaceOnUse" x1="16" x2="16" xlink:href="#a" y1="1046.362" y2="1009.505"/><linearGradient id="f" gradientTransform="matrix(2 0 0 -.3 -56 1330.27)" gradientUnits="userSpaceOnUse" x1="50" x2="50" xlink:href="#b" y1="949.696" y2="1089.696"/><path d="M0 0h60v52H0z" fill="#fff"/><path d="M10 1031.362h18v15H10z" fill="url(#c)" transform="translate(0 -1000.362)"/><path d="M10 1010.362h18v21H10z" fill="url(#d)" transform="translate(0 -1000.362)"/><path d="M34 1025.362h18v21H34z" fill="url(#e)" transform="translate(0 -1000.362)"/><path d="M34 1025.362h18v-9H34z" fill="url(#f)" transform="translate(0 -1000.362)"/><g fill="#232629"><path d="M3 45h52v1H3z"/><path d="M6 3h1v46H6z"/></g></svg>