<svg height="52" width="60" xmlns="http://www.w3.org/2000/svg" xmlns:xlink="http://www.w3.org/1999/xlink"><linearGradient id="a"><stop offset="0" stop-color="#e95420"/><stop offset="1" stop-color="#fe865c"/></linearGradient><linearGradient id="c" gradientTransform="matrix(1.77778 0 0 .83333 48.667 -145.606)" gradientUnits="userSpaceOnUse" x1="15.938" x2="15.938" xlink:href="#a" y1="1046.362" y2="1028.362"/><linearGradient id="d" gradientTransform="matrix(1.77778 0 0 .5 70.667 202.181)" gradientUnits="userSpaceOnUse" x1="15.938" x2="15.938" xlink:href="#a" y1="1046.362" y2="1028.362"/><linearGradient id="e" gradientTransform="matrix(1.77778 0 0 .5 12 193.181)" gradientUnits="userSpaceOnUse" x1="50" x2="50.063" xlink:href="#b" y1="1046.362" y2="1016.362"/><linearGradient id="b"><stop offset="0" stop-color="#762572"/><stop offset="1" stop-color="#a25f9e"/></linearGradient><linearGradient id="f" gradientTransform="matrix(1.77778 0 0 .6 -10 83.545)" gradientUnits="userSpaceOnUse" x1="50.063" x2="50.063" xlink:href="#b" y1="1046.362" y2="1016.362"/><path d="M0 0h60v52H0z" fill="#fff"/><path d="M12 40l-9 9" fill="none" stroke="#232629"/><path d="M11 40.006h46v.988H11z" fill="#232629"/><path d="M11 3h1v38h-1z" fill="#232629"/><path d="M70 711.362h16v15H70z" fill="url(#c)" transform="translate(-60 -680.362)"/><path d="M92 716.362h16v9H92z" fill="url(#d)" transform="translate(-60 -680.362)"/><path d="M92 701.362h16v15H92z" fill="url(#e)" transform="translate(-60 -680.362)"/><path d="M70 693.362h16v18H70z" fill="url(#f)" transform="translate(-60 -680.362)"/><g fill-rule="evenodd"><path d="M26 13H10l4-3h15zM48 21H32l3-3h16z" fill="#987197"/><path d="M26 13v18l3-3V10zM48 21v15l3-3V18z" fill="#945c93"/><g fill="#fe865c"><path d="M48 36v9l3-3v-9zM26 31v15l3-3V28z"/></g></g></svg>