<svg height="52" width="60" xmlns="http://www.w3.org/2000/svg" xmlns:xlink="http://www.w3.org/1999/xlink"><linearGradient id="c" gradientTransform="matrix(1 0 0 1.16667 -2 -174.394)" gradientUnits="userSpaceOnUse" x1="16" x2="16" xlink:href="#a" y1="1046.362" y2="1017.696"/><linearGradient id="a"><stop offset="0" stop-color="#e95420"/><stop offset="1" stop-color="#fe865c"/></linearGradient><linearGradient id="d" gradientTransform="matrix(1 0 0 .9 -26 104.636)" gradientUnits="userSpaceOnUse" x1="101" x2="36" xlink:href="#b" y1="959.695" y2="947.195"/><linearGradient id="b"><stop offset="0" stop-color="#77216F"/><stop offset="1" stop-color="#a25f9e"/></linearGradient><linearGradient id="e" gradientTransform="matrix(1 0 0 1.66667 22 -697.575)" gradientUnits="userSpaceOnUse" x1="16" x2="16" xlink:href="#a" y1="1046.362" y2="1020.562"/><linearGradient id="f" gradientTransform="matrix(1 0 0 .7 -2 313.909)" gradientUnits="userSpaceOnUse" x1="50" x2="50" xlink:href="#b" y1="1046.362" y2="984.934"/><path d="M0 0h60v52H0z" fill="#fff"/><path d="M10 1025.362h9v21h-9z" fill="url(#c)" transform="translate(0 -1000.362)"/><path d="M19 1019.362h9v27h-9z" fill="url(#d)" transform="translate(0 -1000.362)"/><path d="M34 1016.362h9v30h-9z" fill="url(#e)" transform="translate(0 -1000.362)"/><path d="M43 1025.362h9v21h-9z" fill="url(#f)" transform="translate(0 -1000.362)"/><g fill="#232629"><path d="M3 45h52v1H3z"/><path d="M6 3h1v46H6z"/><path d="M29.896 4.38l-16.26 17.277.727.686L30.103 5.62l16.663 8.822.468-.884z" fill-rule="evenodd"/></g></svg>