<svg xmlns="http://www.w3.org/2000/svg" height="52" width="60"><linearGradient id="a"><stop offset="0" stop-color="#e95420"/><stop offset="1" stop-color="#fe865c"/></linearGradient><linearGradient id="b"><stop offset="0" stop-color="#77216F"/><stop offset="1" stop-color="#a25f9e"/></linearGradient><path d="M0 0h60v52H0z" fill="#fff"/><path d="M10 19h9v27h-9z" fill="#e95420"/><path d="M19 10h9v36h-9z" fill="#77216f"/><path d="M34 16h9v30h-9z" fill="#e95420"/><path d="M43 25h9v21h-9z" fill="#77216f"/><path d="M3 45h52v1H3z" fill="#232629"/><path d="M6 3h1v46H6z" fill="#232629"/><g fill="#fff"><path d="M45.5 36a2 2 0 00-2 2 2 2 0 002 2 2 2 0 002-2 2 2 0 00-2-2zm0 1a1 1 0 011 1 1 1 0 01-1 1 1 1 0 01-1-1 1 1 0 011-1zM49.5 40a2 2 0 00-2 2 2 2 0 002 2 2 2 0 002-2 2 2 0 00-2-2zm0 1a1 1 0 011 1 1 1 0 01-1 1 1 1 0 01-1-1 1 1 0 011-1z"/><path d="M50.1 35.7l-6 8 .8.6 6-8z" fill-rule="evenodd"/></g></svg>