<svg xmlns="http://www.w3.org/2000/svg" height="52" width="60"><linearGradient id="b"><stop offset="0" stop-color="#77216F"/><stop offset="1" stop-color="#945c93"/></linearGradient><linearGradient id="a"><stop offset="0" stop-color="#e95420"/><stop offset="1" stop-color="#fe865c"/></linearGradient><path d="M0 0h60v52H0z" fill="#fff"/><path d="M0 0h60v52H0z" fill="#fff"/><path d="M14 37L2 49" fill="none" stroke="#232629"/><path d="M13 37h46v.987H13z" fill="#232629"/><path d="M13 2h1v36h-1z" fill="#232629"/><path d="M11 5c-1.632-.288-3 2.686-3 6s1.343 6 3 6l34-6z" fill="#77216f"/><path d="M7 10c-1.572-.524-3 2.686-3 6s1.343 6 3 6l18-6z" fill="#e95420"/><path d="M11 23c-1.641-.229-3 2.686-3 6s1.343 6 3 6l43-6z" fill="#77216f"/><path d="M7 28c-1.628-.305-3 2.686-3 6s1.343 6 3 6l32-6z" fill="#e95420"/></svg>