<svg xmlns="http://www.w3.org/2000/svg" height="52" width="60"><linearGradient id="a"><stop offset="0" stop-color="#e95420"/><stop offset="1" stop-color="#fe865c"/></linearGradient><linearGradient id="b"><stop offset="0" stop-color="#77216F"/><stop offset="1" stop-color="#945c93"/></linearGradient><path d="M0 0h60v52H0z" fill="#fff"/><path d="M11 40.006h46v.988H11z" fill="#232629"/><path d="M12 40l-9 9" fill="none" stroke="#232629"/><path d="M11 3h1v38h-1z" fill="#232629"/><path d="M21 3L11 43c-.536 2.143 4.253 4 9.5 4s9.5-1.79 9.5-4zM43 3L33 43c-.536 2.143 4.253 4 9.5 4s9.5-1.79 9.5-4z" fill="#e95420"/><path d="M43 3l-6.75 27h-.002a6.412 3 0 006.412 3 6.412 3 0 006.412-3h.002z" fill="#77216f"/><g fill="#fff"><path d="M40.48 37a2 2 0 00-2 2 2 2 0 002 2 2 2 0 002-2 2 2 0 00-2-2zm0 1a1 1 0 011 1 1 1 0 01-1 1 1 1 0 01-1-1 1 1 0 011-1zM44.48 41a2 2 0 00-2 2 2 2 0 002 2 2 2 0 002-2 2 2 0 00-2-2zm0 1a1 1 0 011 1 1 1 0 01-1 1 1 1 0 01-1-1 1 1 0 011-1z"/><path d="M45.08 36.7l-6 8 .8.6 6-8z" fill-rule="evenodd"/></g><path d="M21 3l-8.5 34h.004a8.095 3 0 00-.01.074 8.095 3 0 008.096 3 8.095 3 0 008.094-3 8.095 3 0 00-.006-.074h-.028z" fill="#77216f"/></svg>