<svg height="52" width="60" xmlns="http://www.w3.org/2000/svg" xmlns:xlink="http://www.w3.org/1999/xlink"><linearGradient id="a"><stop offset="0" stop-color="#e95420"/><stop offset="1" stop-color="#fe865c"/></linearGradient><linearGradient id="b"><stop offset="0" stop-color="#77216F"/><stop offset="1" stop-color="#945c93"/></linearGradient><linearGradient id="c" gradientTransform="matrix(.98462 0 0 1.875 .21 -875.442)" gradientUnits="userSpaceOnUse" x1="19" x2="19" xlink:href="#a" y1="1023.362" y2="1015.362"/><linearGradient id="d" gradientTransform="matrix(.98462 0 0 1.875 20.21 -875.442)" gradientUnits="userSpaceOnUse" x1="19" x2="19" xlink:href="#b" y1="1023.362" y2="1015.362"/><linearGradient id="f" gradientTransform="matrix(.98462 0 0 1.875 20.21 -1895.804)" gradientUnits="userSpaceOnUse" x1="19" x2="19" xlink:href="#b" y1="1023.362" y2="1015.362"/><linearGradient id="e" gradientTransform="matrix(.98462 0 0 1.875 .21 -895.442)" gradientUnits="userSpaceOnUse" x1="19" x2="19" xlink:href="#a" y1="1023.362" y2="1015.362"/><g transform="translate(0 -1000.362)"><path d="M0 1000.362h60v52H0z" fill="#fff"/><g fill="#232629"><path d="M11.646 1040.008l-9 9 .708.707 9-9z" fill-rule="evenodd"/><path d="M11 1040.368h46v.988H11zM9 1003.362h1v38H9z"/></g><path d="M7 1028.362a4 7.5 0 00-4 7.5 4 7.5 0 004 7.5h28v-15z" fill="url(#c)"/><path d="M27 1028.362c-2.21 0-4 3.358-4 7.5s1.79 7.5 4 7.5h22v-15z" fill="url(#d)"/><ellipse cx="1035.862" cy="-49" fill="#987197" rx="7.5" ry="4" transform="rotate(90)"/><path d="M7 1008.362a4 7.5 0 00-4 7.5 4 7.5 0 004 7.5h28v-15z" fill="url(#e)"/><path d="M19 8c-2.21 0-4 3.358-4 7.5s1.79 7.5 4 7.5h16V8h-8z" fill="url(#f)" transform="translate(0 1000.362)"/><ellipse cx="1015.862" cy="-35" fill="#987197" rx="7.5" ry="4" transform="rotate(90)"/></g></svg>