<svg height="52" width="60" xmlns="http://www.w3.org/2000/svg" xmlns:xlink="http://www.w3.org/1999/xlink"><linearGradient id="a"><stop offset="0" stop-color="#e95420"/><stop offset="1" stop-color="#fe865c"/></linearGradient><linearGradient id="b"><stop offset="0" stop-color="#762572"/><stop offset="1" stop-color="#945c93"/></linearGradient><linearGradient id="c" gradientUnits="userSpaceOnUse" x1="32" x2="51" xlink:href="#a" y1="1036.862" y2="1036.862"/><linearGradient id="d" gradientUnits="userSpaceOnUse" x1="32" x2="51" xlink:href="#b" y1="1024.362" y2="1024.362"/><linearGradient id="f" gradientUnits="userSpaceOnUse" x1="10" x2="29" xlink:href="#b" y1="1020.362" y2="1020.362"/><linearGradient id="e" gradientUnits="userSpaceOnUse" x1="10" x2="29" xlink:href="#a" y1="1036.862" y2="1036.862"/><g transform="translate(0 -1000.362)"><path d="M0 1000.362h60v52H0z" fill="#fff"/><path d="M11 1040.368h46v.988H11z" fill="#232629"/><path d="M32 1031.362v11a9.5 4 0 009.5 4 9.5 4 0 009.5-4v-11a9.5 4 0 01-9.5 4 9.5 4 0 01-9.5-4z" fill="url(#c)"/><path d="M32 1019.362v12c0 2.21 4.253 4 9.5 4s9.5-1.79 9.5-4v-12z" fill="url(#d)"/><ellipse cx="41.5" cy="1019.362" fill="#987197" rx="9.5" ry="4"/><path d="M12 1040.362l-9 9" fill="none" stroke="#232629"/><path d="M11 1003.362h1v38h-1z" fill="#232629"/><path d="M10 1021.362v21a9.5 4 0 009.5 4 9.5 4 0 009.5-4v-21a9.5 4 0 01-9.5 4 9.5 4 0 01-9.5-4z" fill="url(#e)"/><path d="M10 1009.362v12a9.5 4 0 009.5 4 9.5 4 0 009.5-4v-12z" fill="url(#f)"/><ellipse cx="19.5" cy="1009.362" fill="#987197" rx="9.5" ry="4"/></g></svg>