<svg height="52" width="60" xmlns="http://www.w3.org/2000/svg" xmlns:xlink="http://www.w3.org/1999/xlink"><linearGradient id="a"><stop offset="0" stop-color="#e95420"/><stop offset="1" stop-color="#fe865c"/></linearGradient><linearGradient id="b"><stop offset="0" stop-color="#762572"/><stop offset="1" stop-color="#945c93"/></linearGradient><linearGradient id="e" gradientUnits="userSpaceOnUse" x1="10" x2="29" xlink:href="#a" y1="36.5" y2="36.5"/><linearGradient id="f" gradientUnits="userSpaceOnUse" x1="10" x2="29" xlink:href="#b" y1="20" y2="20"/><linearGradient id="d" gradientUnits="userSpaceOnUse" x1="32" x2="51" xlink:href="#b" y1="20" y2="20"/><linearGradient id="c" gradientUnits="userSpaceOnUse" x1="32" x2="51" xlink:href="#a" y1="36.5" y2="36.5"/><g transform="translate(0 -1000.362)"><path d="M0 1000.362h60v52H0z" fill="#fff"/><path d="M11 1040.368h46v.988H11z" fill="#232629"/><path d="M32 21v21a9.5 4 0 009.5 4 9.5 4 0 009.5-4V21a9.5 4 0 01-9.5 4 9.5 4 0 01-9.5-4z" fill="url(#c)" transform="translate(0 1000.362)"/><path d="M32 9v12a9.5 4 0 009.5 4 9.5 4 0 009.5-4V9z" fill="url(#d)" transform="translate(0 1000.362)"/><ellipse cx="41.5" cy="1009.362" fill="#987197" rx="9.5" ry="4"/><path d="M12 1040.362l-9 9" fill="none" stroke="#232629"/><path d="M11 1003.362h1v38h-1z" fill="#232629"/><g fill="#fff"><path d="M39.5 1015.362a2 2 0 00-2 2 2 2 0 002 2 2 2 0 002-2 2 2 0 00-2-2zm0 1a1 1 0 011 1 1 1 0 01-1 1 1 1 0 01-1-1 1 1 0 011-1zM43.5 1019.362a2 2 0 00-2 2 2 2 0 002 2 2 2 0 002-2 2 2 0 00-2-2zm0 1a1 1 0 011 1 1 1 0 01-1 1 1 1 0 01-1-1 1 1 0 011-1z"/><path d="M44.1 1015.063l-6 8 .8.6 6-8z" fill-rule="evenodd"/></g><path d="M10 27v15a9.5 4 0 009.5 4 9.5 4 0 009.5-4V27a9.5 4 0 01-9.5 4 9.5 4 0 01-9.5-4z" fill="url(#e)" transform="translate(0 1000.362)"/><path d="M10 9v18a9.5 4 0 009.5 4 9.5 4 0 009.5-4V9z" fill="url(#f)" transform="translate(0 1000.362)"/><ellipse cx="19.5" cy="1009.362" fill="#987197" rx="9.5" ry="4"/></g></svg>