<svg height="52" width="60" xmlns="http://www.w3.org/2000/svg" xmlns:xlink="http://www.w3.org/1999/xlink"><linearGradient id="b"><stop offset="0" stop-color="#e95420"/><stop offset="1" stop-color="#fe865c"/></linearGradient><radialGradient id="c" cx="30" cy="1026.362" gradientUnits="userSpaceOnUse" r="23" xlink:href="#a"/><linearGradient id="a"><stop offset="0" stop-color="#77216F"/><stop offset="1" stop-color="#a25f9e"/></linearGradient><radialGradient id="d" cx="30" cy="1026.362" gradientUnits="userSpaceOnUse" r="14" xlink:href="#b"/><radialGradient id="e" cx="30" cy="-31.107" gradientTransform="translate(-12.456 1070.386) scale(1.4152)" gradientUnits="userSpaceOnUse" r="9.893" xlink:href="#a"/><radialGradient id="f" cx="30" cy="21.246" gradientTransform="matrix(-1.41504 0 0 -1.41504 72.451 1056.426)" gradientUnits="userSpaceOnUse" r="16.254" xlink:href="#b"/><path d="M0 0h60v52H0z" fill="#fff"/><path d="M30 1003.362a23 23 0 00-23 23 23 23 0 0023 23 23 23 0 0023-23 23 23 0 00-23-23zm0 9a14 14 0 0114 14 14 14 0 01-14 14 14 14 0 01-14-14 14 14 0 0114-14z" fill="url(#c)" transform="translate(0 -1000.362)"/><path d="M20.813 1017.175a13 13 0 00-3.813 9.187 13 13 0 0013 13 13 13 0 0013-13 13 13 0 00-3.813-9.187l-5.654 5.654a5 5 0 011.467 3.533 5 5 0 01-5 5 5 5 0 01-5-5 5 5 0 011.467-3.533zm-2.39 1.336c-.025.038-.052.074-.077.111a14 14 0 01.078-.111zm-.644 1.056c-.05.09-.105.174-.152.264a14 14 0 01.152-.264zm-.566 1.14c-.057.13-.12.255-.174.386a14 14 0 01.174-.385zm-.484 1.25c-.05.15-.103.296-.147.446a14 14 0 01.147-.445zm-.354 1.265c-.042.182-.088.364-.123.548a14 14 0 01.123-.548zm-.24 1.324c-.027.203-.057.405-.074.61a14 14 0 01.074-.61zm27.804 3.017a14 14 0 01-.09.737c.035-.245.07-.489.09-.737zm-.187 1.375a14 14 0 01-.18.803c.066-.266.13-.531.18-.803zm-27.473.205c.085.422.195.834.317 1.24a14 14 0 01-.317-1.24zm.317 1.24a14 14 0 00.095.296c-.031-.1-.066-.196-.095-.295zm.095.296c.106.325.22.644.348.959a14 14 0 01-.348-.96zm.348.959a14 14 0 00.115.28c-.04-.092-.077-.186-.115-.28zm.115.28c.17.394.353.782.557 1.155a14 14 0 01-.557-1.154zm26.285-1.66a14 14 0 01-.289.87c.104-.287.204-.574.29-.87zm-.447 1.303a14 14 0 01-.385.858c.136-.282.268-.566.385-.858zm-.578 1.26a14 14 0 01-.441.772c.153-.254.304-.508.441-.772zm-24.676.293c.215.39.447.769.698 1.135a14 14 0 01-.698-1.135zm23.965.922a14 14 0 01-.474.662c.162-.218.325-.435.474-.662zm-23.111.424c.212.298.43.593.664.873a14 14 0 01-.664-.873zm22.293.697a14 14 0 01-.545.621c.186-.204.371-.406.545-.62zm-21.31.525c.2.225.398.45.613.66a14 14 0 01-.614-.66zm20.405.493a14 14 0 01-.66.613c.225-.2.45-.399.66-.613zm-19.396.527c.204.186.407.371.621.545a14 14 0 01-.621-.545zm18.387.404a14 14 0 01-.873.664c.298-.212.592-.43.873-.664zm-17.307.485c.218.162.435.325.662.474a14 14 0 01-.662-.474zm16.223.336a14 14 0 01-1.135.697c.39-.215.769-.447 1.135-.697zm-15.117.408c.253.153.507.304.771.441a14 14 0 01-.771-.441zm13.94.316a14 14 0 01-1.153.557c.393-.17.78-.352 1.154-.557zm-1.153.557c-.093.04-.188.077-.282.115a14 14 0 00.282-.115zm-.282.115a14 14 0 01-.959.348c.326-.105.645-.22.96-.348zm-.959.348c-.098.032-.195.066-.295.096a14 14 0 00.295-.096zm-.295.096a14 14 0 01-1.24.316c.422-.085.834-.195 1.24-.316zm-10.078-.797c.282.136.566.268.858.385a14 14 0 01-.858-.385zm1.291.543c.287.104.574.204.87.289a14 14 0 01-.87-.29zm1.387.422c.266.066.532.129.803.18a14 14 0 01-.803-.18zm1.442.277c.244.034.488.07.736.09a14 14 0 01-.736-.09z" fill="url(#d)" transform="translate(0 -1000.362)"/><path d="M31.104 1012.411a14 14 0 01.501.061 14 14 0 00-.501-.061zm1.412.186a14 14 0 01.41.092 14 14 0 00-.41-.092zm1.361.32a14 14 0 01.371.123 14 14 0 00-.371-.123zm-3.877.445a13 13 0 00-9.188 3.813l5.655 5.654a5 5 0 013.533-1.467 5 5 0 013.533 1.467l5.654-5.654a13 13 0 00-9.187-3.813zm5.227.02a14 14 0 01.214.097 14 14 0 00-.214-.098zm1.263.583a14 14 0 01.225.13 14 14 0 00-.225-.13z" fill="url(#e)" transform="translate(0 -1000.362)"/><path d="M20.107 1036.255l-6.36 6.361a23 23 0 00.007.01 23 23 0 001.549 1.402 23 23 0 00.176.155 23 23 0 001.627 1.2 23 23 0 00.228.165 23 23 0 001.613.959 23 23 0 00.393.225 23 23 0 001.566.73 23 23 0 00.538.24 23 23 0 001.529.533 23 23 0 00.66.221 23 23 0 001.47.352 23 23 0 00.78.175 23 23 0 001.436.196 23 23 0 00.863.105 23 23 0 001.818.08 23 23 0 0016.158-6.658 23 23 0 00.096-.088l-6.361-6.361a14 14 0 01-9.893 4.105 14 14 0 01-9.892-4.107z" fill="url(#f)" fill-rule="evenodd" transform="translate(0 -1000.362)"/></svg>