<svg xmlns="http://www.w3.org/2000/svg" xmlns:xlink="http://www.w3.org/1999/xlink" height="52" width="60"><defs><linearGradient xlink:href="#a" id="d" x1="25.641" y1="1037.422" x2="55" y2="1037.422" gradientUnits="userSpaceOnUse"/></defs><linearGradient id="b"><stop offset="0" stop-color="#e95420"/><stop offset="1" stop-color="#fe865c"/></linearGradient><linearGradient id="a" gradientUnits="userSpaceOnUse" x1="18.748" x2="47.063" y1="1014.938" y2="1021.568"><stop offset="0" stop-color="#987197"/><stop offset="1" stop-color="#945c93"/></linearGradient><radialGradient id="e" cx="30" cy="-34" gradientTransform="matrix(1 0 0 .93532 0 1056.684)" gradientUnits="userSpaceOnUse" r="14" xlink:href="#b"/><radialGradient id="f" cx="30" cy="-31.107" gradientTransform="matrix(1.4152 0 0 1.32366 -12.456 1066.059)" gradientUnits="userSpaceOnUse" r="9.893" xlink:href="#c"/><linearGradient id="c"><stop offset="0" stop-color="#762572"/><stop offset="1" stop-color="#a25f9e"/></linearGradient><radialGradient id="g" cx="30" cy="26" gradientTransform="matrix(.445 .8376 -.89553 .41621 41.926 988.926)" gradientUnits="userSpaceOnUse" r="23" xlink:href="#c"/><radialGradient id="h" cx="30" cy="21.246" gradientTransform="matrix(-.7208 -1.13894 1.2177 -.67417 23.772 1073.397)" gradientUnits="userSpaceOnUse" r="16.254" xlink:href="#b"/><path d="M0 0h60v52H0z" fill="#fff"/><path d="M32.031 1010.487c-6.17 0-11.713 3.578-13.978 9.02h-.012v3.084c.01-.025.019-.051.03-.076l.077.025c1.377-3.14 3.925-5.707 7.17-7.225 7.42-3.447 16.422-.617 20.108 6.322.787 1.53 1.167 2.95 1.543 4.65.06-.513.092-1.03.094-1.546 0-7.87-6.73-14.25-15.032-14.25z" fill="url(#a)" transform="translate(0 -1000.362)"/><path d="M10.592 16.775s-.039 3.052-.031 3.014l6.673 2.098A13.53 13.53 0 0017 24.375c.005.486.036.97.094 1.453.148-1.235.468-2.446.947-3.603V19.14z" fill="#945c93"/><path d="M54.963 1025.544c-.26 7.92-5.154 15.064-12.736 18.595-5.152 2.379-11.069 2.868-16.586 1.372v2.683c2.216.73 4.53 1.102 6.859 1.106 12.426 0 22.5-10.298 22.5-23a23.5 23.5 0 00-.037-.756z" fill="url(#d)" transform="translate(0 -1000.362)"/><path d="M17.037 25.209A13 14 0 0017 26a13 14 0 00.873 5.043A13 14 0 0030 40a13 14 0 0012.104-8.932A13 14 0 0043 26a13 14 0 00-.027-.791A13 12.16 0 0130 36.679a13 12.16 0 01-12.963-11.47zm26.902.436c-.02.232-.055.46-.09.689a14 13.094 0 00.09-.69zm-.187 1.285c-.05.253-.114.503-.18.752a14 13.094 0 00.18-.752zm-.313 1.236c-.085.276-.185.544-.289.813a14 13.094 0 00.29-.813zm-.447 1.219c-.117.273-.249.537-.385.8a14 13.094 0 00.385-.8z" fill="#fe865c"/><path d="M26.438 21.225C25.64 21.96 24.01 23.042 25 27c.04-.015.08-.05.12-.068a5 5 0 011.317-2.428v-3.279zm7.156.029v3.275a5 5 0 011.25 2.246c.053.08.102.143.156.225.978-3.914-.6-5.01-1.406-5.746zm-3.973 1.765a5 5 0 00-.217.021 5 5 0 01.217-.02zm-.504.064a5 5 0 00-.191.04 5 5 0 01.191-.04zm-.515.121a5 5 0 00-.118.037 5 5 0 01.118-.037zm-.493.174a5 5 0 00-.068.03 5 5 0 01.068-.03zm-.447.21a5 5 0 00-.078.042 5 5 0 01.078-.043zm-.433.259a5 5 0 00-.061.04 5 5 0 01.06-.04z" fill="#fe865c"/><path d="M30 19.826a5.176 5.176 0 00-3.533 1.371c-.008.01-.021.02-.03.027v3.28A5 5 0 0130 23a5 5 0 013.594 1.53v-3.276l-.06-.057c-.938-.877-2.208-1.37-3.534-1.371z" fill="#945c93"/><path d="M20.813 1016.29a13 12.16 0 00-3.813 8.593 13 12.16 0 0013 12.16 13 12.16 0 0013-12.16 13 12.16 0 00-3.813-8.593l-5.654 5.289a5 4.677 0 011.467 3.304 5 4.677 0 01-5 4.677 5 4.677 0 01-5-4.677 5 4.677 0 011.467-3.304zm-2.39 1.25c-.025.036-.052.069-.077.104a14 13.094 0 01.078-.105zm-.644.988c-.05.083-.105.162-.152.246a14 13.094 0 01.152-.246zm-.566 1.067c-.057.12-.12.237-.174.36a14 13.094 0 01.174-.36zm-.484 1.169c-.05.139-.103.276-.147.416a14 13.094 0 01.147-.416zm-.354 1.182c-.042.17-.088.34-.123.513a14 13.094 0 01.123-.513zm-.24 1.238c-.027.19-.057.379-.074.57a14 13.094 0 01.074-.57zm27.804 2.823a14 13.094 0 01-.09.688c.035-.228.07-.456.09-.688zm-.187 1.286a14 13.094 0 01-.18.75c.066-.248.13-.496.18-.75zm-27.473.192c.085.394.195.78.317 1.16a14 13.094 0 01-.317-1.16zm.317 1.16a14 13.094 0 00.095.275c-.031-.093-.066-.182-.095-.275zm.095.275c.106.305.22.603.348.897a14 13.094 0 01-.348-.897zm.348.897a14 13.094 0 00.115.263c-.04-.087-.077-.175-.115-.263zm.115.263c.17.368.353.73.557 1.08a14 13.094 0 01-.557-1.08zm26.285-1.552a14 13.094 0 01-.289.813c.104-.269.204-.537.29-.813zm-.447 1.218a14 13.094 0 01-.385.802c.136-.264.268-.529.385-.802zm-.578 1.178a14 13.094 0 01-.441.722c.153-.237.304-.475.441-.722zm-24.676.274c.215.365.447.72.698 1.062a14 13.094 0 01-.698-1.061zm23.965.863a14 13.094 0 01-.474.619c.162-.204.325-.407.474-.62zm-23.111.396c.212.279.43.554.664.817a14 13.094 0 01-.664-.817zm22.293.652a14 13.094 0 01-.545.581c.186-.19.371-.38.545-.58zm-21.31.492c.2.21.398.42.613.617a14 13.094 0 01-.614-.617zm20.405.46a14 13.094 0 01-.66.574c.225-.188.45-.373.66-.574zm-19.396.493c.204.174.407.348.621.51a14 13.094 0 01-.621-.51zm18.387.378a14 13.094 0 01-.873.621c.298-.198.592-.402.873-.62zm-17.307.453c.218.152.435.305.662.444a14 13.094 0 01-.662-.444zm16.223.315a14 13.094 0 01-1.135.652c.39-.201.769-.418 1.135-.652zm-15.117.381c.253.144.507.285.771.413a14 13.094 0 01-.771-.412zm13.94.296a14 13.094 0 01-1.153.521c.393-.159.78-.33 1.154-.52zm-1.153.521c-.093.037-.188.072-.282.108a14 13.094 0 00.282-.108zm-.282.108a14 13.094 0 01-.959.325c.326-.098.645-.206.96-.325zm-.959.325c-.098.03-.195.062-.295.09a14 13.094 0 00.295-.09zm-.295.09a14 13.094 0 01-1.24.296c.422-.08.834-.182 1.24-.296zm-10.078-.745c.282.127.566.25.858.36a14 13.094 0 01-.858-.36zm1.291.508c.287.097.574.19.87.27a14 13.094 0 01-.87-.27zm1.387.394c.266.062.532.12.803.168a14 13.094 0 01-.803-.168zm1.442.26c.244.031.488.064.736.083a14 13.094 0 01-.736-.084z" fill="url(#e)" transform="translate(0 -1000.362)"/><path d="M31.104 1011.835a14 13.094 0 01.501.057 14 13.094 0 00-.501-.057zm1.412.173a14 13.094 0 01.41.086 14 13.094 0 00-.41-.086zm1.361.3a14 13.094 0 01.371.115 14 13.094 0 00-.371-.115zm-3.877.416a13 12.16 0 00-9.188 3.566l5.655 5.289a5 4.677 0 013.533-1.372 5 4.677 0 013.533 1.372l5.654-5.289a13 12.16 0 00-9.187-3.566zm5.227.018a14 13.094 0 01.214.092 14 13.094 0 00-.214-.092zm1.263.546a14 13.094 0 01.225.12 14 13.094 0 00-.225-.12z" fill="url(#f)" transform="translate(0 -1000.362)"/><path d="M39 1004.385a23 21.512 0 00-17.243 1.225 23 21.512 0 00-11.196 11.541l7.587 2.385a15 14.03 0 017.17-7.224 15 14.03 0 0120.107 6.32 15 14.03 0 01-6.758 18.808 15 14.03 0 01-10.49.988l-2.545 7.08a23 21.512 0 0016.595-1.368 23 21.512 0 0010.362-28.838A23 21.512 0 0039 1004.385zm-29.43 15.76a23 21.512 0 00-.331 1.74 23 21.512 0 01.33-1.74zm-.397 2.13a23 21.512 0 00-.132 1.63 23 21.512 0 01.132-1.63zm-.166 2.16a23 21.512 0 00.04 1.493 23 21.512 0 01-.04-1.493zm.07 2.175a23 21.512 0 00.188 1.39 23 21.512 0 01-.189-1.39zm.303 2.158a23 21.512 0 00.317 1.286 23 21.512 0 01-.317-1.287zm.53 2.09a23 21.512 0 00.43 1.195 23 21.512 0 01-.43-1.196zm.754 2.056a23 21.512 0 00.644 1.355 23 21.512 0 01-.644-1.355z" fill="url(#g)" transform="translate(0 -1000.362)"/><g fill-rule="evenodd"><path d="M13.258 21.969l.023.01v-.01zm.023.058a15 14.03 0 000 4.994v-2.092a15 14.03 0 01.01-.05h-.01v-2.85zm10.043 15.877l-1.972 7.193V48l1.986-7.244a15 14.03 0 01-.014-.01V37.9zM5.096 26.012a23 21.512 0 00-.012.117 23 21.512 0 00-.025.262 23 21.512 0 00-.004 1.756 23 21.512 0 00.006.423 23 21.512 0 00.168 1.61 23 21.512 0 00.068.545 23 21.512 0 00.318 1.486 23 21.512 0 00.147.637 23 21.512 0 00.449 1.35 23 21.512 0 00.244.71 23 21.512 0 00.563 1.248 23 21.512 0 00.35.746 23 21.512 0 00.857 1.502A23 21.512 0 0021.352 48v-2.902a23 21.512 0 01-13.127-9.596A23 21.512 0 017.367 34a23 21.512 0 01-.35-.746 23 21.512 0 01-.562-1.248 23 21.512 0 01-.244-.711 23 21.512 0 01-.45-1.35 23 21.512 0 01-.146-.636 23 21.512 0 01-.318-1.487 23 21.512 0 01-.068-.545 23 21.512 0 01-.133-1.265z" fill="#fe865c"/><path d="M5.551 1020.484a23 21.512 0 00-.22 1.009 23 21.512 0 00-.044.214 23 21.512 0 00-.203 1.882 23 21.512 0 00-.026.262 23 21.512 0 00-.004 1.757 23 21.512 0 00.007.422 23 21.512 0 00.168 1.609 23 21.512 0 00.068.546 23 21.512 0 00.319 1.486 23 21.512 0 00.146.636 23 21.512 0 00.448 1.35 23 21.512 0 00.245.712 23 21.512 0 00.563 1.247 23 21.512 0 00.349.746 23 21.512 0 00.858 1.503 23 21.512 0 0013.127 9.595l1.986-7.244a15 14.03 0 01-8.228-6.16 15 14.03 0 01-1.82-9.716l-7.74-1.856z" fill="url(#h)" transform="translate(0 -1000.362)"/></g></svg>