<svg xmlns="http://www.w3.org/2000/svg" height="52" width="60"><path d="M0 0h60v52H0z" fill="#fff"/><path d="M3 45h52v1H3z" fill="#232629"/><path d="M6 3h1v46H6z" fill="#232629"/><path d="M14.286 7.955l14.41-4.977-2.977 2.955-14.433 5.022z" fill="#b87ab2"/><path d="M28.67 2.933l14.946 29.732-3.045 3.134L25.67 5.933z" fill="#a6599f"/><path d="M43.58 32.643l10.773-8.66-3.201 3.29-10.616 8.548z" fill="#b87ab2"/><path d="M44.295 5.947l10.58 6.155-3.159 3.095-10.421-6.25z" fill="#f08966"/><path d="M23.446 26.795l20.84-20.866-2.843 3.063-20.997 20.803z" fill="#fe865c"/><path d="M14.82 18.19l8.75 8.649-3.127 3.252-8.622-8.902z" fill="#f08966"/><g fill="none"><path d="M11.5 11.4l14-5 15 30 11-8.9" stroke="#77216f"/><path d="M11.5 21.5l9 9 21-21 10 6" stroke="#e95420"/></g></svg>