<svg height="52" width="60" xmlns="http://www.w3.org/2000/svg"><radialGradient id="a" cx="30" cy="1026.362" gradientTransform="matrix(1 0 0 .92672 0 73.527)" gradientUnits="userSpaceOnUse" r="23"><stop offset="0" stop-color="#77216F"/><stop offset="1" stop-color="#a25f9e"/></radialGradient><radialGradient id="b" cx="30" cy="21.246" gradientTransform="matrix(-1.41504 0 0 -1.31135 72.451 1052.538)" gradientUnits="userSpaceOnUse" r="16.254"><stop offset="0" stop-color="#e95420"/><stop offset="1" stop-color="#fe865c"/></radialGradient><path d="M0 0h60v52H0z" fill="#fff"/><path d="M7.031 25.363c-.011.213-.025.426-.03.639A22.877 22.877 0 0013 41.455V38.62c-3.59-3.653-5.696-8.34-5.969-13.256zM13 41.455h.004l16.22-14.963.708-.635.707.635 16.367 14.944c.44-.444.702-.82 1.098-1.293a23.004 23.004 0 004.814-12.524c.004-.158.013-.315.014-.473 0-.33-.01-.658-.026-.986-.447 4.619-2.513 8.992-5.906 12.443v2.823L30.64 26.488l-.707-.635-.707.635-16.221 14.963H13z" fill="#987197"/><path d="M14.5 40v2.934A23 23 0 0030 49a23 23 0 0015.5-6.055V40z" fill="#fe865c"/><path d="M30 1003.362c-12.703 0-23 9.543-23 21.315.012 5.328 2.177 10.458 6.068 14.38l16.225-15.036.707-.634.707.635 16.219 15.03c3.892-3.92 6.059-9.049 6.074-14.375 0-11.772-10.297-21.315-23-21.315z" fill="url(#a)" transform="translate(0 -1000.362)"/><path d="M30 1025.987l-15.512 14.375a23 21.315 0 0015.512 5.63 23 21.315 0 0015.518-5.624z" fill="url(#b)" fill-rule="evenodd" transform="translate(0 -1000.362)"/><path d="M30 23.025l-.707.635-16.225 15.035c-.024-.024-.044-.052-.068-.076v2.836h.004l16.22-14.963.708-.634.707.634L47 41.43v-2.826c-.026.027-.048.056-.074.082L30.707 23.66z" fill="#945c93"/></svg>