<svg height="52" width="60" xmlns="http://www.w3.org/2000/svg" xmlns:xlink="http://www.w3.org/1999/xlink"><linearGradient id="a"><stop offset="0" stop-color="#e95420"/><stop offset="1" stop-color="#fe865c"/></linearGradient><linearGradient id="c" gradientTransform="matrix(1 0 0 1.5 -2 -523.181)" gradientUnits="userSpaceOnUse" x1="16" x2="16" xlink:href="#a" y1="1046.362" y2="1017.696"/><linearGradient id="d" gradientTransform="matrix(1 0 0 .83333 -26 174.394)" gradientUnits="userSpaceOnUse" x1="101" x2="36" xlink:href="#b" y1="959.695" y2="947.195"/><linearGradient id="b"><stop offset="0" stop-color="#77216F"/><stop offset="1" stop-color="#a25f9e"/></linearGradient><linearGradient id="e" gradientTransform="matrix(1 0 0 1.66667 22 -697.575)" gradientUnits="userSpaceOnUse" x1="16" x2="16" xlink:href="#a" y1="1046.362" y2="1020.562"/><linearGradient id="f" gradientTransform="matrix(1 0 0 .7 -2 313.909)" gradientUnits="userSpaceOnUse" x1="50" x2="50" xlink:href="#b" y1="1046.362" y2="984.934"/><path d="M0 0h60v52H0z" fill="#fff"/><path d="M10 1019.362h9v27h-9z" fill="url(#c)" transform="translate(0 -1000.362)"/><path d="M19 1021.362h9v25h-9z" fill="url(#d)" transform="translate(0 -1000.362)"/><path d="M34 1016.362h9v30h-9z" fill="url(#e)" transform="translate(0 -1000.362)"/><path d="M43 1025.362h9v21h-9z" fill="url(#f)" transform="translate(0 -1000.362)"/><path d="M3 45h52v1H3z" fill="#232629"/><path d="M6 3h1v46H6z" fill="#232629"/><path d="M47 13h1v9h-1z" fill="#77216F"/><path d="M47 17h3v1h-3z" fill="#77216F"/><path d="M38 4h1v9h-1z" fill="#e95420"/><path d="M38 8h3v1h-3z" fill="#e95420"/><path d="M23 9h1v9h-1z" fill="#77216F"/><path d="M23 13h3v1h-3z" fill="#77216F"/><g fill="#e95420"><path d="M14 7h1v9h-1z"/><path d="M14 11h3v1h-3z"/></g></svg>