<svg xmlns="http://www.w3.org/2000/svg" height="52" width="60"><linearGradient id="a"><stop offset="0" stop-color="#e95420"/><stop offset="1" stop-color="#fe865c"/></linearGradient><linearGradient id="b"><stop offset="0" stop-color="#77216F"/><stop offset="1" stop-color="#a25f9e"/></linearGradient><path d="M0 0h60v52H0z" fill="#fff"/><path d="M10 19h9v27h-9z" fill="#e95420"/><path d="M19 21h9v25h-9z" fill="#77216f"/><path d="M34 16h9v30h-9z" fill="#e95420"/><path d="M43 25h9v21h-9z" fill="#77216f"/><path d="M3 45h52v1H3z" fill="#232629"/><path d="M6 3h1v46H6z" fill="#232629"/><g fill="#e95420"><path d="M13 9h3v5h-3z"/><path d="M14 7h1v9h-1zM37 6h3v5h-3z"/><path d="M38 4h1v9h-1z"/></g><g fill="#77216f"><path d="M22 11h3v5h-3z"/><path d="M23 9h1v9h-1zM46 15h3v5h-3z"/><path d="M47 13h1v9h-1z"/></g></svg>