<svg xmlns="http://www.w3.org/2000/svg" viewBox="0 0 32 32"><path transform="rotate(90)" style="opacity:1;fill:#308280;fill-opacity:1;fill-rule:nonzero;stroke:none;stroke-width:3.02372;stroke-linecap:round;stroke-linejoin:round;stroke-miterlimit:4;stroke-dasharray:none;stroke-opacity:1" d="M24-28h1v24h-1z"/><path style="opacity:1;fill:#308280;fill-opacity:1;fill-rule:nonzero;stroke:none;stroke-width:3.02372;stroke-linecap:round;stroke-linejoin:round;stroke-miterlimit:4;stroke-dasharray:none;stroke-opacity:1" d="M7 4h1v24H7z"/><path style="opacity:.7;fill:#000;fill-opacity:1;fill-rule:evenodd;stroke:#000;stroke-width:2;stroke-linecap:round;stroke-linejoin:round" d="M24.951 20A2 2 0 0 0 23 22v2h-1v4h6v-4h-1v-2a2 2 0 0 0-2-2 2 2 0 0 0-.049 0zM25 21a1 1 0 0 1 1 1v2h-2v-2a1 1 0 0 1 1-1z"/><path style="opacity:1;fill:#fee581;fill-opacity:1;fill-rule:evenodd;stroke:none;stroke-width:2;stroke-linecap:round;stroke-linejoin:round" d="M24.951 20A2 2 0 0 0 23 22v2h-1v4h6v-4h-1v-2a2 2 0 0 0-2-2 2 2 0 0 0-.049 0zM25 21a1 1 0 0 1 1 1v2h-2v-2a1 1 0 0 1 1-1z"/></svg>