<svg xmlns="http://www.w3.org/2000/svg" viewBox="0 0 32 32"><path style="opacity:1;fill:#fff;fill-opacity:1;fill-rule:evenodd;stroke:none;stroke-width:2;stroke-linecap:butt;stroke-linejoin:round;stroke-miterlimit:4;stroke-dasharray:none;stroke-opacity:1" d="M5 5h5v23H5z"/><path style="opacity:1;fill:#a6d74f;fill-opacity:1;fill-rule:evenodd;stroke:none;stroke-width:2;stroke-linecap:butt;stroke-linejoin:round;stroke-miterlimit:4;stroke-dasharray:none;stroke-opacity:1" transform="rotate(90)" d="M5-28h5v23H5z"/><path style="opacity:1;fill:#6d6d6d;fill-opacity:1;fill-rule:evenodd;stroke:none;stroke-width:2;stroke-linecap:butt;stroke-linejoin:round;stroke-miterlimit:4;stroke-dasharray:none;stroke-opacity:1" d="M4 6v21c0 2 1 2 3 2h4V11h18V6c0-2-1-2-3-2H7C5 4 4 4 4 6zm3-1h3v5H5V6c0-1 1-1 2-1zm4 0h5v5h-5zm6 0h5v5h-5zm6 0h3c1 0 2 0 2 1v4h-5zM5 11h5v5H5zm0 6h5v5H5zm0 6h5v5H7c-1 0-2 0-2-1z"/><circle style="opacity:1;fill:#308280;fill-opacity:1;stroke:none;stroke-width:2.57143;stroke-linecap:round;stroke-linejoin:round;stroke-miterlimit:4;stroke-dasharray:none;stroke-opacity:1" cx="22.5" cy="22.5" r="4.5"/><path style="fill:#fff;fill-opacity:1" d="m24.688 21.313-.75.75c.04.137.062.286.062.437 0 .831-.669 1.5-1.5 1.5-.15 0-.3-.021-.438-.063l-.75.75c.355.193.755.313 1.188.313 1.385 0 2.5-1.115 2.5-2.5 0-.433-.12-.833-.313-1.188zM22.5 20a2.495 2.495 0 0 0-2.5 2.5c0 .433.12.833.313 1.188l.75-.75A1.539 1.539 0 0 1 21 22.5c0-.831.669-1.5 1.5-1.5.15 0 .3.021.438.063l.75-.75A2.475 2.475 0 0 0 22.5 20z"/></svg>