<svg xmlns="http://www.w3.org/2000/svg" viewBox="0 0 32 32"><path style="opacity:.7;fill:#000;stroke:#000;stroke-width:2;stroke-linejoin:round;stroke-miterlimit:4;stroke-dasharray:none" d="M4 13V5c0-2 1-2 3-2h4l3 3v7c0 2-1 2-3 2H7c-2 0-3 0-3-2z"/><path d="M4 13V5c0-2 1-2 3-2h4l3 3v7c0 2-1 2-3 2H7c-2 0-3 0-3-2z" style="fill:#fff"/><path d="M11 6V3l3 3z" style="fill:#6d6d6d;fill-opacity:1"/><path d="M18 13V5c0-2 1-2 3-2h4l3 3v7c0 2-1 2-3 2h-4c-2 0-3 0-3-2z" style="opacity:.7;fill:#000;stroke:#000;stroke-width:2;stroke-linejoin:round;stroke-miterlimit:4;stroke-dasharray:none"/><path style="fill:#fff" d="M18 13V5c0-2 1-2 3-2h4l3 3v7c0 2-1 2-3 2h-4c-2 0-3 0-3-2z"/><path style="fill:#6d6d6d;fill-opacity:1" d="M25 6V3l3 3z"/><path style="opacity:.7;fill:#000;stroke:#000;stroke-width:2;stroke-linejoin:round;stroke-miterlimit:4;stroke-dasharray:none" d="M18 28v-8c0-2 1-2 3-2h4l3 3v7c0 2-1 2-3 2h-4c-2 0-3 0-3-2z"/><path d="M18 28v-8c0-2 1-2 3-2h4l3 3v7c0 2-1 2-3 2h-4c-2 0-3 0-3-2z" style="fill:#fff"/><path d="M25 21v-3l3 3z" style="fill:#6d6d6d;fill-opacity:1"/><path d="M4 28v-8c0-2 1-2 3-2h4l3 3v7c0 2-1 2-3 2H7c-2 0-3 0-3-2z" style="opacity:.7;fill:#000;stroke:#000;stroke-width:2;stroke-linejoin:round;stroke-miterlimit:4;stroke-dasharray:none"/><path style="fill:#fff" d="M4 28v-8c0-2 1-2 3-2h4l3 3v7c0 2-1 2-3 2H7c-2 0-3 0-3-2z"/><path style="fill:#6d6d6d;fill-opacity:1" d="M11 21v-3l3 3z"/></svg>