<svg height="52" width="60" xmlns:xlink="http://www.w3.org/1999/xlink" xmlns="http://www.w3.org/2000/svg"><linearGradient id="a"><stop offset="0" stop-color="#e95420"/><stop offset="1" stop-color="#fe865c"/></linearGradient><linearGradient id="b"><stop offset="0" stop-color="#77216f"/><stop offset="1" stop-color="#945c93"/></linearGradient><linearGradient id="c" gradientTransform="matrix(1.11111 0 0 1.2 -39 -1203.634)" gradientUnits="userSpaceOnUse" x1="45" x2="54" xlink:href="#a" y1="1032.195" y2="1032.195"/><linearGradient id="d" gradientTransform="matrix(1.11111 0 0 1.2 -14 -1203.634)" gradientUnits="userSpaceOnUse" x1="45" x2="54" xlink:href="#a" y1="1032.195" y2="1032.195"/><linearGradient id="e" gradientTransform="matrix(1.11111 0 0 1.2 -4 -1203.634)" gradientUnits="userSpaceOnUse" x1="45" x2="54" xlink:href="#b" y1="1032.195" y2="1032.195"/><linearGradient id="f" gradientTransform="matrix(1.11111 0 0 1.2 -29 -1203.634)" gradientUnits="userSpaceOnUse" x1="45" x2="54" xlink:href="#b" y1="1032.195" y2="1032.195"/><path d="M0 0h60v52H0z" fill="#fff"/><path d="m12 40-9 9" fill="none" stroke="#232629"/><path d="M11 40.006h46v.988H11z" fill="#232629"/><path d="M11 3h1v38h-1z" fill="#232629"/><path d="m16 24-4.955 18.75A.837.837 0 0 0 11 43c0 1.105 2.239 2 5 2s5-.895 5-2a.837.837 0 0 0-.045-.248z" fill="url(#c)" style="fill:#787859;fill-opacity:1"/><path d="m41 14-4.955 28.75A.837.837 0 0 0 36 43c0 1.105 2.239 2 5 2s5-.895 5-2a.837.837 0 0 0-.045-.248z" fill="url(#d)" style="fill:#787859;fill-opacity:1"/><path d="m51 5-4.955 37.75A.837.837 0 0 0 46 43c0 1.105 2.239 2 5 2s5-.895 5-2a.837.837 0 0 0-.045-.248z" fill="url(#e)" style="fill:#787859;fill-opacity:1"/><path d="m26 17-4.955 25.75A.837.837 0 0 0 21 43c0 1.105 2.239 2 5 2s5-.895 5-2a.837.837 0 0 0-.045-.248z" fill="url(#f)" style="fill:#787859;fill-opacity:1"/><path d="m16 24-4.955 18.75A.837.837 0 0 0 11 43c0 1.105 2.239 2 5 2s5-.895 5-2a.837.837 0 0 0-.045-.248z" fill="url(#c)" style="fill:#fff;fill-opacity:1;opacity:.3"/><path d="m41 14-4.955 28.75A.837.837 0 0 0 36 43c0 1.105 2.239 2 5 2s5-.895 5-2a.837.837 0 0 0-.045-.248z" fill="url(#d)" style="fill:#fff;fill-opacity:1;opacity:.3"/></svg>