<svg height="52" width="60" xmlns:xlink="http://www.w3.org/1999/xlink" xmlns="http://www.w3.org/2000/svg"><linearGradient id="b"><stop offset="0" stop-color="#e95420"/><stop offset="1" stop-color="#fe865c"/></linearGradient><linearGradient id="a"><stop offset="0" stop-color="#77216f"/><stop offset="1" stop-color="#945c93"/></linearGradient><linearGradient id="c" gradientTransform="matrix(1.11111 0 0 1.2 -32 -1212.634)" gradientUnits="userSpaceOnUse" x1="45" x2="54" xlink:href="#a" y1="1032.195" y2="1032.195"/><linearGradient id="d" gradientTransform="matrix(1.11111 0 0 1.2 -6 -1212.634)" gradientUnits="userSpaceOnUse" x1="45" x2="54" xlink:href="#a" y1="1032.195" y2="1032.195"/><linearGradient id="e" gradientTransform="matrix(1.11111 0 0 1.2 -42 -1203.634)" gradientUnits="userSpaceOnUse" x1="45" x2="54" xlink:href="#b" y1="1032.195" y2="1032.195"/><linearGradient id="f" gradientTransform="matrix(1.11111 0 0 1.2 -16 -1205.634)" gradientUnits="userSpaceOnUse" x1="45" x2="54" xlink:href="#b" y1="1032.195" y2="1032.195"/><path d="M0 0h60v52H0z" fill="#fff"/><path d="m12 40-9 9" fill="none" stroke="#232629"/><path d="M11 40.006h46v.988H11z" fill="#232629"/><path d="M11 3h1v38h-1z" fill="#232629"/><path d="M18 7v36a5 2 0 0 0 5 2 5 2 0 0 0 5-2V7a5 2 0 0 1-5 2 5 2 0 0 1-5-2z" fill="url(#c)" style="fill:#787859;fill-opacity:1"/><ellipse cx="23" cy="7" fill="#987197" rx="5" ry="2" style="fill:#787859;fill-opacity:1"/><path d="M44 22v21a5 2 0 0 0 5 2 5 2 0 0 0 5-2V22a5 2 0 0 1-5 2 5 2 0 0 1-5-2z" fill="url(#d)" style="fill:#787859;fill-opacity:1"/><ellipse cx="49" cy="22" fill="#987197" rx="5" ry="2" style="fill:#787859;fill-opacity:1"/><path d="M8 16v27a5 2 0 0 0 5 2 5 2 0 0 0 5-2V16a5 2 0 0 1-5 2 5 2 0 0 1-5-2z" fill="url(#e)" style="fill:#787859;fill-opacity:1"/><ellipse cx="13" cy="16" fill="#fe865c" rx="5" ry="2" style="fill:#787859;fill-opacity:1"/><path d="M34 14v29a5 2 0 0 0 5 2 5 2 0 0 0 5-2V14a5 2 0 0 1-5 2 5 2 0 0 1-5-2z" fill="url(#f)" style="fill:#787859;fill-opacity:1"/><ellipse cx="39" cy="14" fill="#fe865c" rx="5" ry="2" style="fill:#787859;fill-opacity:1"/><path d="M8 16v27a5 2 0 0 0 5 2 5 2 0 0 0 5-2V16a5 2 0 0 1-5 2 5 2 0 0 1-5-2z" fill="url(#e)" style="fill:#fff;fill-opacity:1;opacity:.4"/><path d="M34 14v29a5 2 0 0 0 5 2 5 2 0 0 0 5-2V14a5 2 0 0 1-5 2 5 2 0 0 1-5-2z" fill="url(#f)" style="fill:#fff;fill-opacity:1;opacity:.4"/><ellipse cx="13" cy="16" fill="#fe865c" rx="5" ry="2" style="fill:#fff;fill-opacity:1;opacity:.6"/><ellipse cx="39" cy="14" fill="#fe865c" rx="5" ry="2" style="fill:#fff;fill-opacity:1;opacity:.6"/><ellipse cx="23" cy="7" fill="#987197" rx="5" ry="2" style="fill:#fff;fill-opacity:1;opacity:.3"/><ellipse cx="49" cy="22" fill="#987197" rx="5" ry="2" style="fill:#fff;fill-opacity:1;opacity:.3"/></svg>