<svg xmlns="http://www.w3.org/2000/svg" xmlns:xlink="http://www.w3.org/1999/xlink" height="52" width="60"><linearGradient id="a"><stop offset="0" stop-color="#787859"/><stop offset="1" stop-color="#fe865c"/></linearGradient><linearGradient id="d" gradientTransform="matrix(1.77778 0 0 .5 12.667 -477.181)" gradientUnits="userSpaceOnUse" x1="15.938" x2="15.938" xlink:href="#a" y1="1046.362" y2="1028.362"/><linearGradient id="c" gradientTransform="matrix(1.77778 0 0 .83333 -11.333 -825.968)" gradientUnits="userSpaceOnUse" x1="15.938" x2="15.938" xlink:href="#a" y1="1046.362" y2="1028.362"/><linearGradient id="b" gradientTransform="matrix(1.77778 0 0 .6 -70 -596.817)" gradientUnits="userSpaceOnUse" x1="50.063" x2="50.063" y1="1046.362" y2="1016.362"><stop offset="0" stop-color="#787859"/><stop offset="1" stop-color="#a25f9e"/></linearGradient><path d="M0 0h60v52H0z" fill="#fff"/><path d="m12 40-9 9" fill="none" stroke="#232629"/><path d="M11 40.006h46v.988H11z" fill="#232629"/><path d="M11 3h1v38h-1z" fill="#232629"/><path d="m20 11 6 35H10z" fill="url(#b)" style="fill:#787859;fill-opacity:1"/><path d="m20 11 6 35 3-3zM43 21l7 25 3-3z" fill="#945c93" style="fill-rule:evenodd;fill:#a6599f;fill-opacity:1"/><g fill="#fe865c" style="fill-rule:evenodd;fill:#f08966;fill-opacity:1"><path d="m49.375 1035.39-1.896 1.964 2.521 9.008 3-3zM25.332 1030.32l-1.908 1.017L26 1046.362l3-3z" style="fill:#f08966;fill-opacity:1" transform="translate(0 -1000.362)"/></g><path d="M14.285 31 10 46h16l-2.572-15z" fill="url(#c)" style="fill:#787859;fill-opacity:1"/><path d="m43 21 7 25H34z" fill="#787859" style="fill:#787859;fill-opacity:1"/><path d="M37.24 37 34 46h16l-2.52-9z" fill="url(#d)" style="fill:#787859;fill-opacity:1"/></svg>