<svg xmlns="http://www.w3.org/2000/svg" viewBox="0 0 16 16">/&amp;gt;<rect width="3" height="3" y="8" ry="1.5" rx="1.5" fill="#e95420" fill-rule="evenodd"/><path d="M5 12v1h1.11a1.283 1.283 0 01.064-1z" fill="#232629" fill-rule="evenodd"/><path d="M5 13v1h1.51l-.383-.926c-.01-.025-.009-.049-.018-.074zM5 11v1h1.174l.004-.008c.037-.078.077-.155.127-.228.058-.092.124-.18.2-.262a1.759 1.759 0 01-.194-.256 1.749 1.749 0 01-.137-.242L6.172 11z" fill="#fff" fill-rule="evenodd"/><path d="M5 10v1h1.172a1.286 1.286 0 01-.068-1z" fill="#232629" fill-rule="evenodd"/><path d="M5 9v1h1.104c.008-.025.007-.05.017-.074v-.002L6.506 9z" fill="#fff" fill-rule="evenodd"/><path d="M5 8v1h1.506l.078-.188c.21-.507.659-.742 1.156-.812z" fill="#232629" fill-rule="evenodd"/><rect width="1" height="3" x="2" y="1" ry="0" rx="0" fill="#e95420" fill-rule="evenodd"/><path fill="#232629" fill-rule="evenodd" d="M5 6h7V5H5z"/><path d="M5 6v1h3.299c.13-.168.29-.317.515-.41l1.116-.463c.591-.245 1.146-.022 1.572.379.135-.127.218-.32.387-.39.035-.016.074-.022.111-.034V6zM5 5h5V4H5z" fill="#fff" fill-rule="evenodd"/><path fill="#232629" fill-rule="evenodd" d="M5 4h5V3H5z"/><path fill="#fff" fill-rule="evenodd" d="M5 3h9V2H5z"/><path fill="#232629" fill-rule="evenodd" d="M5 2h9V1H5z"/><path fill="#e95420" fill-rule="evenodd" d="M1 1h3v1H1zM1 4h3v1H1z"/><circle cx="11.5" cy="11.5" r="1.5" fill="#fff" fill-rule="evenodd"/><path d="M9.311 7.792a.244.244 0 00-.135.325l.273.657c-.26.195-.472.424-.662.678l-.674-.279a.248.248 0 00-.329.136l-.462 1.115a.248.248 0 00.137.329l.673.279a3.312 3.312 0 00-.011.948l-.657.272a.244.244 0 00-.135.325l.463 1.117c.054.13.194.189.325.135l.657-.272c.195.26.424.471.678.662l-.279.673a.248.248 0 00.136.329l1.115.462a.248.248 0 00.329-.136l.279-.674c.314.045.626.057.948.012l.272.657c.054.13.195.188.325.134l1.117-.462a.244.244 0 00.135-.326l-.272-.657c.26-.195.471-.424.662-.678l.673.28a.248.248 0 00.329-.137l.462-1.115a.248.248 0 00-.136-.329l-.674-.279c.045-.314.057-.625.012-.947l.657-.273a.244.244 0 00.134-.325l-.462-1.117a.244.244 0 00-.326-.135l-.657.273a3.312 3.312 0 00-.678-.662l.28-.674a.248.248 0 00-.137-.329l-1.115-.462a.248.248 0 00-.329.137l-.279.673a3.312 3.312 0 00-.947-.011l-.273-.657a.244.244 0 00-.325-.135zm1.756 2.66a1.138 1.138 0 11.87 2.103 1.138 1.138 0 01-.87-2.104z" display="block" fill="#d3d3d3" stroke="#4d4d4d" stroke-linejoin="round" stroke-width=".6"/></svg>